<?xml version="1.0" encoding="UTF-8" standalone="no"?>
<svg
   xmlns:dc="http://purl.org/dc/elements/1.1/"
   xmlns:cc="http://creativecommons.org/ns#"
   xmlns:rdf="http://www.w3.org/1999/02/22-rdf-syntax-ns#"
   xmlns:svg="http://www.w3.org/2000/svg"
   xmlns="http://www.w3.org/2000/svg"
   xmlns:sodipodi="http://sodipodi.sourceforge.net/DTD/sodipodi-0.dtd"
   xmlns:inkscape="http://www.inkscape.org/namespaces/inkscape"
   version="1.1"
   id="svg2"
   xml:space="preserve"
   width="80mm"
   height="62mm"
   viewBox="0 0 302.36222 234.33071"
   sodipodi:docname="lossOverEpochs.svg"
   inkscape:version="1.0.2 (1.0.2+r75+1)"><metadata
     id="metadata8"><rdf:RDF><cc:Work
         rdf:about=""><dc:format>image/svg+xml</dc:format><dc:type
           rdf:resource="http://purl.org/dc/dcmitype/StillImage" /><dc:title></dc:title></cc:Work></rdf:RDF></metadata><defs
     id="defs6"><clipPath
       clipPathUnits="userSpaceOnUse"
       id="clipPath22"><path
         d="M 72.816488,41.96 H 371.41 v 256.6 H 72.816488 Z"
         id="path20" /></clipPath><clipPath
       clipPathUnits="userSpaceOnUse"
       id="clipPath40"><path
         d="M 72.816488,41.96 H 371.41 v 256.6 H 72.816488 Z"
         id="path38" /></clipPath><clipPath
       clipPathUnits="userSpaceOnUse"
       id="clipPath58"><path
         d="M 72.816488,41.96 H 371.41 v 256.6 H 72.816488 Z"
         id="path56" /></clipPath><clipPath
       clipPathUnits="userSpaceOnUse"
       id="clipPath76"><path
         d="M 72.816488,41.96 H 371.41 v 256.6 H 72.816488 Z"
         id="path74" /></clipPath><clipPath
       clipPathUnits="userSpaceOnUse"
       id="clipPath94"><path
         d="M 72.816488,41.96 H 371.41 v 256.6 H 72.816488 Z"
         id="path92" /></clipPath><clipPath
       clipPathUnits="userSpaceOnUse"
       id="clipPath112"><path
         d="M 72.816488,41.96 H 371.41 v 256.6 H 72.816488 Z"
         id="path110" /></clipPath><clipPath
       clipPathUnits="userSpaceOnUse"
       id="clipPath130"><path
         d="M 72.816488,41.96 H 371.41 v 256.6 H 72.816488 Z"
         id="path128" /></clipPath><clipPath
       clipPathUnits="userSpaceOnUse"
       id="clipPath148"><path
         d="M 72.816488,41.96 H 371.41 v 256.6 H 72.816488 Z"
         id="path146" /></clipPath><clipPath
       clipPathUnits="userSpaceOnUse"
       id="clipPath166"><path
         d="M 72.816488,41.96 H 371.41 v 256.6 H 72.816488 Z"
         id="path164" /></clipPath><clipPath
       clipPathUnits="userSpaceOnUse"
       id="clipPath184"><path
         d="M 72.816488,41.96 H 371.41 v 256.6 H 72.816488 Z"
         id="path182" /></clipPath><clipPath
       clipPathUnits="userSpaceOnUse"
       id="clipPath202"><path
         d="M 72.816488,41.96 H 371.41 v 256.6 H 72.816488 Z"
         id="path200" /></clipPath><clipPath
       clipPathUnits="userSpaceOnUse"
       id="clipPath224"><path
         d="M 72.816488,41.96 H 371.41 v 256.6 H 72.816488 Z"
         id="path222" /></clipPath><clipPath
       clipPathUnits="userSpaceOnUse"
       id="clipPath248"><path
         d="M 72.816488,41.96 H 371.41 v 256.6 H 72.816488 Z"
         id="path246" /></clipPath><clipPath
       clipPathUnits="userSpaceOnUse"
       id="clipPath274"><path
         d="M -1021,-463 H 1794 V 1233 H -1021 Z"
         id="path272" /></clipPath><clipPath
       clipPathUnits="userSpaceOnUse"
       id="clipPath284"><path
         d="M 72.816488,41.96 H 371.41 v 256.6 H 72.816488 Z"
         id="path282" /></clipPath><clipPath
       clipPathUnits="userSpaceOnUse"
       id="clipPath310"><path
         d="M -1021,-463 H 1794 V 1233 H -1021 Z"
         id="path308" /></clipPath><clipPath
       clipPathUnits="userSpaceOnUse"
       id="clipPath324"><path
         d="M 72.816488,41.96 H 371.41 v 256.6 H 72.816488 Z"
         id="path322" /></clipPath><clipPath
       clipPathUnits="userSpaceOnUse"
       id="clipPath334"><path
         d="M 72.816488,41.96 H 371.41 v 256.6 H 72.816488 Z"
         id="path332" /></clipPath><clipPath
       clipPathUnits="userSpaceOnUse"
       id="clipPath416"><path
         d="M 72.816488,41.96 H 371.41 v 256.6 H 72.816488 Z"
         id="path414" /></clipPath><clipPath
       clipPathUnits="userSpaceOnUse"
       id="clipPath426"><path
         d="M 72.816488,41.96 H 371.41 v 256.6 H 72.816488 Z"
         id="path424" /></clipPath><clipPath
       clipPathUnits="userSpaceOnUse"
       id="clipPath436"><path
         d="M 72.816488,41.96 H 371.41 v 256.6 H 72.816488 Z"
         id="path434" /></clipPath><clipPath
       clipPathUnits="userSpaceOnUse"
       id="clipPath446"><path
         d="M 72.816488,41.96 H 371.41 v 256.6 H 72.816488 Z"
         id="path444" /></clipPath></defs><sodipodi:namedview
     pagecolor="#ffffff"
     bordercolor="#666666"
     borderopacity="1"
     objecttolerance="10"
     gridtolerance="10"
     guidetolerance="10"
     inkscape:pageopacity="0"
     inkscape:pageshadow="2"
     inkscape:window-width="1920"
     inkscape:window-height="1020"
     id="namedview4"
     showgrid="false"
     units="mm"
     fit-margin-top="0"
     fit-margin-left="0"
     fit-margin-right="0"
     fit-margin-bottom="0"
     inkscape:zoom="2.8055116"
     inkscape:cx="146.76455"
     inkscape:cy="88.049002"
     inkscape:window-x="0"
     inkscape:window-y="0"
     inkscape:window-maximized="1"
     inkscape:current-layer="layer1" /><g
     id="g10"
     inkscape:groupmode="layer"
     inkscape:label="lossOverEpochs"
     transform="matrix(1.3333333,0,0,-1.3333333,-64.63422,401.80215)"><g
       id="g16"
       transform="matrix(0.61226695,0,0,0.61226695,18.795618,118.18068)"><g
         id="g18"
         clip-path="url(#clipPath22)"><path
           d="m 83.647015,41.96 v 256.6"
           style="fill:none;stroke:#b0b0b0;stroke-width:0.8;stroke-linecap:square;stroke-linejoin:round;stroke-miterlimit:10;stroke-dasharray:none;stroke-opacity:1"
           id="path24" /></g></g><path
       d="m 70.00992,143.8714 v -2.14293"
       style="fill:#000000;fill-opacity:1;fill-rule:nonzero;stroke:#000000;stroke-width:0.489813;stroke-linecap:butt;stroke-linejoin:round;stroke-miterlimit:10;stroke-dasharray:none;stroke-opacity:1"
       id="path28" /><g
       id="g34"
       transform="matrix(0.61226695,0,0,0.61226695,18.795618,118.18068)"><g
         id="g36"
         clip-path="url(#clipPath40)"><path
           d="m 111.06607,41.96 v 256.6"
           style="fill:none;stroke:#b0b0b0;stroke-width:0.8;stroke-linecap:square;stroke-linejoin:round;stroke-miterlimit:10;stroke-dasharray:none;stroke-opacity:1"
           id="path42" /></g></g><path
       d="m 86.797702,143.8714 v -2.14293"
       style="fill:#000000;fill-opacity:1;fill-rule:nonzero;stroke:#000000;stroke-width:0.489813;stroke-linecap:butt;stroke-linejoin:round;stroke-miterlimit:10;stroke-dasharray:none;stroke-opacity:1"
       id="path46" /><g
       id="g52"
       transform="matrix(0.61226695,0,0,0.61226695,18.795618,118.18068)"><g
         id="g54"
         clip-path="url(#clipPath58)"><path
           d="m 138.48512,41.96 v 256.6"
           style="fill:none;stroke:#b0b0b0;stroke-width:0.8;stroke-linecap:square;stroke-linejoin:round;stroke-miterlimit:10;stroke-dasharray:none;stroke-opacity:1"
           id="path60" /></g></g><path
       d="m 103.58548,143.8714 v -2.14293"
       style="fill:#000000;fill-opacity:1;fill-rule:nonzero;stroke:#000000;stroke-width:0.489813;stroke-linecap:butt;stroke-linejoin:round;stroke-miterlimit:10;stroke-dasharray:none;stroke-opacity:1"
       id="path64" /><g
       id="g70"
       transform="matrix(0.61226695,0,0,0.61226695,18.795618,118.18068)"><g
         id="g72"
         clip-path="url(#clipPath76)"><path
           d="m 165.90418,41.96 v 256.6"
           style="fill:none;stroke:#b0b0b0;stroke-width:0.8;stroke-linecap:square;stroke-linejoin:round;stroke-miterlimit:10;stroke-dasharray:none;stroke-opacity:1"
           id="path78" /></g></g><path
       d="m 120.37326,143.8714 v -2.14293"
       style="fill:#000000;fill-opacity:1;fill-rule:nonzero;stroke:#000000;stroke-width:0.489813;stroke-linecap:butt;stroke-linejoin:round;stroke-miterlimit:10;stroke-dasharray:none;stroke-opacity:1"
       id="path82" /><g
       id="g88"
       transform="matrix(0.61226695,0,0,0.61226695,18.795618,118.18068)"><g
         id="g90"
         clip-path="url(#clipPath94)"><path
           d="m 193.32324,41.96 v 256.6"
           style="fill:none;stroke:#b0b0b0;stroke-width:0.8;stroke-linecap:square;stroke-linejoin:round;stroke-miterlimit:10;stroke-dasharray:none;stroke-opacity:1"
           id="path96" /></g></g><path
       d="m 137.16105,143.8714 v -2.14293"
       style="fill:#000000;fill-opacity:1;fill-rule:nonzero;stroke:#000000;stroke-width:0.489813;stroke-linecap:butt;stroke-linejoin:round;stroke-miterlimit:10;stroke-dasharray:none;stroke-opacity:1"
       id="path100" /><g
       id="g106"
       transform="matrix(0.61226695,0,0,0.61226695,18.795618,118.18068)"><g
         id="g108"
         clip-path="url(#clipPath112)"><path
           d="m 220.74229,41.96 v 256.6"
           style="fill:none;stroke:#b0b0b0;stroke-width:0.8;stroke-linecap:square;stroke-linejoin:round;stroke-miterlimit:10;stroke-dasharray:none;stroke-opacity:1"
           id="path114" /></g></g><path
       d="m 153.94883,143.8714 v -2.14293"
       style="fill:#000000;fill-opacity:1;fill-rule:nonzero;stroke:#000000;stroke-width:0.489813;stroke-linecap:butt;stroke-linejoin:round;stroke-miterlimit:10;stroke-dasharray:none;stroke-opacity:1"
       id="path118" /><g
       id="g124"
       transform="matrix(0.61226695,0,0,0.61226695,18.795618,118.18068)"><g
         id="g126"
         clip-path="url(#clipPath130)"><path
           d="m 248.16135,41.96 v 256.6"
           style="fill:none;stroke:#b0b0b0;stroke-width:0.8;stroke-linecap:square;stroke-linejoin:round;stroke-miterlimit:10;stroke-dasharray:none;stroke-opacity:1"
           id="path132" /></g></g><path
       d="m 170.73662,143.8714 v -2.14293"
       style="fill:#000000;fill-opacity:1;fill-rule:nonzero;stroke:#000000;stroke-width:0.489813;stroke-linecap:butt;stroke-linejoin:round;stroke-miterlimit:10;stroke-dasharray:none;stroke-opacity:1"
       id="path136" /><g
       id="g142"
       transform="matrix(0.61226695,0,0,0.61226695,18.795618,118.18068)"><g
         id="g144"
         clip-path="url(#clipPath148)"><path
           d="m 275.5804,41.96 v 256.6"
           style="fill:none;stroke:#b0b0b0;stroke-width:0.8;stroke-linecap:square;stroke-linejoin:round;stroke-miterlimit:10;stroke-dasharray:none;stroke-opacity:1"
           id="path150" /></g></g><path
       d="m 187.52439,143.8714 v -2.14293"
       style="fill:#000000;fill-opacity:1;fill-rule:nonzero;stroke:#000000;stroke-width:0.489813;stroke-linecap:butt;stroke-linejoin:round;stroke-miterlimit:10;stroke-dasharray:none;stroke-opacity:1"
       id="path154" /><g
       id="g160"
       transform="matrix(0.61226695,0,0,0.61226695,18.795618,118.18068)"><g
         id="g162"
         clip-path="url(#clipPath166)"><path
           d="m 302.99946,41.96 v 256.6"
           style="fill:none;stroke:#b0b0b0;stroke-width:0.8;stroke-linecap:square;stroke-linejoin:round;stroke-miterlimit:10;stroke-dasharray:none;stroke-opacity:1"
           id="path168" /></g></g><path
       d="m 204.31218,143.8714 v -2.14293"
       style="fill:#000000;fill-opacity:1;fill-rule:nonzero;stroke:#000000;stroke-width:0.489813;stroke-linecap:butt;stroke-linejoin:round;stroke-miterlimit:10;stroke-dasharray:none;stroke-opacity:1"
       id="path172" /><g
       id="g178"
       transform="matrix(0.61226695,0,0,0.61226695,18.795618,118.18068)"><g
         id="g180"
         clip-path="url(#clipPath184)"><path
           d="m 330.41851,41.96 v 256.6"
           style="fill:none;stroke:#b0b0b0;stroke-width:0.8;stroke-linecap:square;stroke-linejoin:round;stroke-miterlimit:10;stroke-dasharray:none;stroke-opacity:1"
           id="path186" /></g></g><path
       d="m 221.09995,143.8714 v -2.14293"
       style="fill:#000000;fill-opacity:1;fill-rule:nonzero;stroke:#000000;stroke-width:0.489813;stroke-linecap:butt;stroke-linejoin:round;stroke-miterlimit:10;stroke-dasharray:none;stroke-opacity:1"
       id="path190" /><g
       id="g196"
       transform="matrix(0.61226695,0,0,0.61226695,18.795618,118.18068)"><g
         id="g198"
         clip-path="url(#clipPath202)"><path
           d="m 357.83757,41.96 v 256.6"
           style="fill:none;stroke:#b0b0b0;stroke-width:0.8;stroke-linecap:square;stroke-linejoin:round;stroke-miterlimit:10;stroke-dasharray:none;stroke-opacity:1"
           id="path204" /></g></g><path
       d="m 237.88774,143.8714 v -2.14293"
       style="fill:#000000;fill-opacity:1;fill-rule:nonzero;stroke:#000000;stroke-width:0.489813;stroke-linecap:butt;stroke-linejoin:round;stroke-miterlimit:10;stroke-dasharray:none;stroke-opacity:1"
       id="path208" /><g
       id="g218"
       transform="matrix(0.61226695,0,0,0.61226695,18.795618,118.18068)"><g
         id="g220"
         clip-path="url(#clipPath224)"><path
           d="M 72.816488,143.10837 H 371.41"
           style="fill:none;stroke:#b0b0b0;stroke-width:0.8;stroke-linecap:square;stroke-linejoin:round;stroke-miterlimit:10;stroke-dasharray:none;stroke-opacity:1"
           id="path226" /></g></g><path
       d="M 63.378747,205.8012 H 61.235813"
       style="fill:#000000;fill-opacity:1;fill-rule:nonzero;stroke:#000000;stroke-width:0.489813;stroke-linecap:butt;stroke-linejoin:round;stroke-miterlimit:10;stroke-dasharray:none;stroke-opacity:1"
       id="path230" /><g
       id="g242"
       transform="matrix(0.61226695,0,0,0.61226695,18.795618,118.18068)"><g
         id="g244"
         clip-path="url(#clipPath248)"><path
           d="M 72.816488,74.119148 H 371.41"
           style="fill:none;stroke:#b0b0b0;stroke-width:0.8;stroke-linecap:square;stroke-linejoin:round;stroke-miterlimit:10;stroke-dasharray:none;stroke-opacity:1"
           id="path250" /></g></g><path
       d="M 63.378747,163.56138 H 62.154213"
       style="fill:#000000;fill-opacity:1;fill-rule:nonzero;stroke:#000000;stroke-width:0.36736;stroke-linecap:butt;stroke-linejoin:round;stroke-miterlimit:10;stroke-dasharray:none;stroke-opacity:1"
       id="path254" /><g
       id="g278"
       transform="matrix(0.61226695,0,0,0.61226695,18.795618,118.18068)"><g
         id="g280"
         clip-path="url(#clipPath284)"><path
           d="M 72.816488,110.53409 H 371.41"
           style="fill:none;stroke:#b0b0b0;stroke-width:0.8;stroke-linecap:square;stroke-linejoin:round;stroke-miterlimit:10;stroke-dasharray:none;stroke-opacity:1"
           id="path286" /></g></g><path
       d="M 63.378747,185.85705 H 62.154213"
       style="fill:#000000;fill-opacity:1;fill-rule:nonzero;stroke:#000000;stroke-width:0.36736;stroke-linecap:butt;stroke-linejoin:round;stroke-miterlimit:10;stroke-dasharray:none;stroke-opacity:1"
       id="path290" /><g
       id="g320"
       clip-path="url(#clipPath324)"
       transform="matrix(0.61226695,0,0,0.61226695,18.795618,118.18068)"><path
         d="m 86.38892,286.89636 2.741906,-197.606315 2.741905,-5.757837 2.741906,-3.19026 2.741905,-2.28896 2.741908,-1.964277 2.7419,-1.749975 2.74191,-1.492346 2.7419,-1.244069 2.74191,-1.155025 2.74191,-1.085873 2.7419,-1.038201 2.74191,-0.971575 2.7419,-0.862609 2.74191,-0.802191 2.7419,-0.728056 2.74191,-0.650108 2.7419,-0.615287 2.74191,-0.562136 2.7419,-0.522011 2.74191,-0.473539 2.74191,-0.429326 2.7419,-0.427281 2.74191,-0.392337 2.7419,-0.374949 2.74191,-0.346726 2.7419,-0.305116 2.74191,-0.292548 2.7419,-0.277938 2.74191,-0.304143 2.74191,-0.299309 2.7419,-0.258059 2.74191,-0.245784 2.7419,-0.215082 2.74191,-0.190654 2.7419,-0.209313 2.74191,-0.166634 2.7419,-0.154121 2.74191,-0.153055 2.74191,-0.183985 2.7419,-0.133924 2.74191,-0.127573 2.7419,-0.148888 2.74191,-0.118563 2.7419,-0.110798 2.74191,-0.102636 2.7419,-0.143674 2.74191,-0.08225 2.74191,-0.123615 2.7419,-0.09218 2.74191,-0.08998 2.7419,-0.09857 2.74191,-0.07171 2.7419,-0.08232 2.74191,-0.08858 2.7419,-0.04733 2.74191,-0.05625 2.7419,-0.06662 2.74191,-0.05539 2.74191,-0.06691 2.7419,-0.04382 2.74191,-0.07645 2.7419,-0.08973 2.74191,-0.06396 2.7419,-0.01533 2.74191,-0.05539 2.74191,-0.05967 2.7419,-0.07769 2.74191,-0.01482 2.7419,-0.07938 2.74191,0.01635 2.7419,-0.08242 2.74191,-0.004 2.7419,-0.07272 2.74191,-0.03824 2.7419,-0.01911 2.74191,-0.03601 2.74191,-0.0073 2.7419,-0.06686 2.74191,-0.02342 2.7419,-0.0059 2.74191,-0.08379 2.7419,0.0094 2.74191,-0.03058 2.7419,-0.06162 2.74191,0.03012 2.74191,-0.06529 2.7419,-0.0095 2.74191,-0.02369 2.7419,-0.03562 2.74191,-0.01609 2.7419,0.01606 2.74191,-0.0139 2.7419,-0.06827 2.74191,-0.01206 2.74191,-0.02729 2.7419,0.03391 2.74191,-0.02704 2.7419,-0.07679 2.74191,0.01125"
         style="fill:none;stroke:#1f77b4;stroke-width:1.5;stroke-linecap:square;stroke-linejoin:round;stroke-miterlimit:10;stroke-dasharray:none;stroke-opacity:1"
         id="path326" /></g><g
       id="g330"
       clip-path="url(#clipPath334)"
       transform="matrix(0.61226695,0,0,0.61226695,18.795618,118.18068)"><path
         d="m 86.38892,113.83353 2.741906,-3.46686 2.741905,-2.61873 2.741906,1.2162 2.741905,4.00577 2.741908,-7.67135 2.7419,2.65466 2.74191,-2.48165 2.7419,3.86348 2.74191,-3.4001 2.74191,-0.15048 2.7419,-2.69781 2.74191,-1.41734 2.7419,4.31796 2.74191,-2.64115 2.7419,0.12595 2.74191,0.16884 2.7419,-0.23318 2.74191,-0.91885 2.7419,1.40451 2.74191,-1.56452 2.74191,2.15459 2.7419,-2.9682 2.74191,-0.15756 2.7419,0.92318 2.74191,1.88908 2.7419,-2.85409 2.74191,1.20119 2.7419,-1.31206 2.74191,-1.413189 2.74191,-0.354191 2.7419,0.193606 2.74191,-0.369856 2.7419,-0.669291 2.74191,1.325483 2.7419,-0.63984 2.74191,0.694783 2.7419,-3.176159 2.74191,3.112337 2.74191,0.07473 2.7419,-3.006672 2.74191,3.609449 2.7419,-1.38414 2.74191,-1.453396 2.7419,3.031256 2.74191,-3.63827 2.7419,-0.53786 2.74191,3.251196 2.74191,1.703354 2.7419,-2.061186 2.74191,-0.571655 2.7419,-1.859529 2.74191,0.33173 2.7419,0.12598 2.74191,1.091708 2.7419,-0.207126 2.74191,4.455078 2.7419,-3.829185 2.74191,0.570606 2.74191,1.626939 2.7419,-1.243765 2.74191,-1.054039 2.7419,-1.079681 2.74191,0.758705 2.7419,-0.946938 2.74191,3.653818 2.74191,-4.391979 2.7419,3.126659 2.74191,-1.31016 2.7419,1.82002 2.74191,-1.178291 2.7419,0.636841 2.74191,-1.942162 2.7419,2.442662 2.74191,0.41468 2.7419,-1.466041 2.74191,3.079791 2.74191,-3.281439 2.7419,2.339979 2.74191,-2.655079 2.7419,0.318158 2.74191,0.617852 2.7419,-2.207614 2.74191,2.679813 2.7419,-1.606365 2.74191,0.988857 2.74191,0.893758 2.7419,-0.47827 2.74191,1.89348 2.7419,-4.978586 2.74191,3.063996 2.7419,-0.288829 2.74191,-1.291519 2.7419,3.666098 2.74191,-3.143293 2.74191,-1.487903 2.7419,3.453746 2.74191,-3.376061 2.7419,-0.263107 2.74191,3.022738"
         style="fill:none;stroke:#ff7f0e;stroke-width:1.5;stroke-linecap:square;stroke-linejoin:round;stroke-miterlimit:10;stroke-dasharray:none;stroke-opacity:1"
         id="path336" /></g><path
       d="M 63.378747,143.8714 V 300.97909"
       style="fill:none;stroke:#000000;stroke-width:0.489813;stroke-linecap:square;stroke-linejoin:miter;stroke-miterlimit:10;stroke-dasharray:none;stroke-opacity:1"
       id="path340" /><path
       d="M 246.19768,143.8714 V 300.97909"
       style="fill:none;stroke:#000000;stroke-width:0.489813;stroke-linecap:square;stroke-linejoin:miter;stroke-miterlimit:10;stroke-dasharray:none;stroke-opacity:1"
       id="path342" /><path
       d="M 63.378747,143.8714 H 246.19768"
       style="fill:none;stroke:#000000;stroke-width:0.489813;stroke-linecap:square;stroke-linejoin:miter;stroke-miterlimit:10;stroke-dasharray:none;stroke-opacity:1"
       id="path344" /><path
       d="M 63.378747,300.97909 H 246.19768"
       style="fill:none;stroke:#000000;stroke-width:0.489813;stroke-linecap:square;stroke-linejoin:miter;stroke-miterlimit:10;stroke-dasharray:none;stroke-opacity:1"
       id="path346" /><path
       d="m 177.49889,183.56764 h 49.74669 c 0.81635,0 1.22453,0.40818 1.22453,1.22454 v 26.33705 c 0,0.81635 -0.40818,1.22453 -1.22453,1.22453 h -49.74669 c -0.81635,0 -1.22453,-0.40818 -1.22453,-1.22453 v -26.33705 c 0,-0.81636 0.40818,-1.22454 1.22453,-1.22454 z"
       style="fill:#ffffff;fill-opacity:0.8;fill-rule:nonzero;stroke:#cccccc;stroke-width:0.612267;stroke-linecap:butt;stroke-linejoin:miter;stroke-miterlimit:10;stroke-dasharray:none;stroke-opacity:0.8"
       id="path352" /><path
       d="m 178.72342,198.41512 h 12.24535"
       style="fill:none;stroke:#1f77b4;stroke-width:0.918401;stroke-linecap:square;stroke-linejoin:round;stroke-miterlimit:10;stroke-dasharray:none;stroke-opacity:1"
       id="path358" /><path
       d="m 178.72342,189.43202 h 12.24535"
       style="fill:none;stroke:#ff7f0e;stroke-width:0.918401;stroke-linecap:square;stroke-linejoin:round;stroke-miterlimit:10;stroke-dasharray:none;stroke-opacity:1"
       id="path364" /><path
       d="m 246.19768,169.5521 h 2.14294"
       style="fill:#000000;fill-opacity:1;fill-rule:nonzero;stroke:#000000;stroke-width:0.489813;stroke-linecap:butt;stroke-linejoin:round;stroke-miterlimit:10;stroke-dasharray:none;stroke-opacity:1"
       id="path370" /><path
       d="m 246.19768,195.73544 h 2.14294"
       style="fill:#000000;fill-opacity:1;fill-rule:nonzero;stroke:#000000;stroke-width:0.489813;stroke-linecap:butt;stroke-linejoin:round;stroke-miterlimit:10;stroke-dasharray:none;stroke-opacity:1"
       id="path376" /><path
       d="m 246.19768,221.91879 h 2.14294"
       style="fill:#000000;fill-opacity:1;fill-rule:nonzero;stroke:#000000;stroke-width:0.489813;stroke-linecap:butt;stroke-linejoin:round;stroke-miterlimit:10;stroke-dasharray:none;stroke-opacity:1"
       id="path382" /><path
       d="m 246.19768,248.10215 h 2.14294"
       style="fill:#000000;fill-opacity:1;fill-rule:nonzero;stroke:#000000;stroke-width:0.489813;stroke-linecap:butt;stroke-linejoin:round;stroke-miterlimit:10;stroke-dasharray:none;stroke-opacity:1"
       id="path388" /><path
       d="m 246.19768,274.2855 h 2.14294"
       style="fill:#000000;fill-opacity:1;fill-rule:nonzero;stroke:#000000;stroke-width:0.489813;stroke-linecap:butt;stroke-linejoin:round;stroke-miterlimit:10;stroke-dasharray:none;stroke-opacity:1"
       id="path394" /><path
       d="m 246.19768,300.46886 h 2.14294"
       style="fill:#000000;fill-opacity:1;fill-rule:nonzero;stroke:#000000;stroke-width:0.489813;stroke-linecap:butt;stroke-linejoin:round;stroke-miterlimit:10;stroke-dasharray:none;stroke-opacity:1"
       id="path400" /><g
       id="g412"
       clip-path="url(#clipPath416)"
       transform="matrix(0.61226695,0,0,0.61226695,18.795618,118.18068)"><path
         d="m 86.38892,58.148056 2.741906,117.199684 2.741905,7.8623 2.741906,2.44318 2.741905,2.05384 2.741908,1.45482 2.7419,0.57097 2.74191,-0.47092 2.7419,0.13637 2.74191,0.25681 2.74191,-0.1625 2.7419,-0.15485 2.74191,-0.32818 2.7419,-0.004 2.74191,-0.16696 2.7419,0.11853 2.74191,-0.0803 2.7419,-0.0816 2.74191,-0.003 2.7419,-0.53082 2.74191,-0.40593 2.74191,-0.20073 2.7419,-0.13955 2.74191,0.009 2.7419,-0.4021 2.74191,-0.22941 2.7419,-0.26318 2.74191,-0.0414 2.7419,0.18352 2.74191,2.3578 2.74191,-0.24789 2.7419,-0.18543 2.74191,0.008 2.7419,0.0688 2.74191,-0.0561 2.7419,-0.16377 2.74191,-0.0529 2.7419,-0.0726 2.74191,-0.0631 2.74191,0.0382 2.7419,-0.1128 2.74191,-0.16313 2.7419,0.1026 2.74191,-0.0255 2.7419,-0.0733 2.74191,-0.0739 2.7419,0.33137 2.74191,-0.34347 2.74191,0.0956 2.7419,-0.19244 2.74191,0.0962 2.7419,-0.17269 2.74191,-0.0344 2.7419,0.12808 2.74191,-0.27975 2.7419,-0.16696 2.74191,0.11981 2.7419,-0.17971 2.74191,-0.0669 2.74191,-0.10578 2.7419,-0.15294 2.74191,-0.0198 2.7419,0.0975 2.74191,0.0898 2.7419,-0.26446 2.74191,0.10897 2.74191,-0.1472 2.7419,0.0663 2.74191,-0.15166 2.7419,0.11024 2.74191,-0.2224 2.7419,0.0746 2.74191,-0.25044 2.7419,-0.006 2.74191,-0.12745 2.7419,-0.19627 2.74191,0.0542 2.74191,-0.4346 2.7419,0.16377 2.74191,-0.10769 2.7419,-0.11343 2.74191,-0.003 2.7419,-0.20901 2.74191,-0.23324 2.7419,0.12044 2.74191,-0.48876 2.74191,0.2447 2.7419,-0.014 2.74191,-0.0299 2.7419,-0.23833 2.74191,-0.18926 2.7419,-0.12299 2.74191,-0.39318 2.7419,0.15995 2.74191,-0.28102 2.74191,-0.13191 2.7419,-0.25554 2.74191,-0.16504 2.7419,0.15549 2.74191,-0.23706"
         style="fill:none;stroke:#1f77b4;stroke-width:1.5;stroke-linecap:butt;stroke-linejoin:round;stroke-miterlimit:10;stroke-dasharray:1.5, 2.475;stroke-dashoffset:0;stroke-opacity:1"
         id="path418" /></g><g
       id="g442"
       clip-path="url(#clipPath446)"
       transform="matrix(0.61226695,0,0,0.61226695,18.795618,118.18068)"><path
         d="m 86.38892,277.274 2.741906,-8.93796 2.741905,-15.94125 2.741906,34.50157 2.741905,-25.96762 2.741908,11.71124 2.7419,-19.38619 2.74191,-18.84197 2.7419,-19.84628 2.74191,12.55113 2.74191,-0.014 2.7419,-38.77747 2.74191,-18.5514 2.7419,23.93865 2.74191,-22.30986 2.7419,26.97447 2.74191,-19.82716 2.7419,8.2867 2.74191,-12.83915 2.7419,-9.77912 2.74191,13.47767 2.74191,-9.49109 2.7419,1.51537 2.74191,-2.2482 2.7419,-3.79286 2.74191,-1.89898 2.7419,-3.95218 2.74191,13.43434 2.7419,-11.91261 2.74191,-0.80547 2.74191,27.36063 2.7419,-23.66335 2.74191,4.36001 2.7419,2.043 2.74191,-8.16435 2.7419,8.44729 2.74191,-4.40462 2.7419,6.35458 2.74191,-4.40717 2.74191,-9.16482 2.7419,16.46252 2.74191,-1.17635 2.7419,-2.67897 2.74191,-1.4886 2.7419,0.60156 2.74191,-0.30078 2.7419,26.55899 2.74191,-12.20574 2.74191,-4.02228 2.7419,-21.70192 2.74191,26.22252 2.7419,13.94031 2.74191,-14.20923 2.7419,-7.9515 2.74191,-12.78053 2.7419,12.23632 2.74191,-6.25517 2.7419,-14.33285 2.74191,30.30342 2.74191,-14.31246 2.7419,6.45526 2.74191,16.73271 2.7419,-20.99459 2.74191,3.87444 2.7419,11.22566 2.74191,-25.80577 2.74191,12.40201 2.7419,3.49719 2.74191,-1.07184 2.7419,11.9279 2.74191,-7.3079 2.7419,20.52685 2.74191,-29.79617 2.7419,-4.38296 2.74191,3.73297 2.7419,20.91429 2.74191,-22.4322 2.74191,-1.75497 2.7419,20.81234 2.74191,8.76463 2.7419,-16.42174 2.74191,-2.4776 2.7419,2.42025 2.74191,-1.53193 2.7419,11.18615 2.74191,-23.48238 2.74191,10.41764 2.7419,14.47687 2.74191,-1.7384 2.7419,14.78147 2.74191,-23.49512 2.7419,9.05776 2.74191,-14.71647 2.7419,13.9059 2.74191,-0.75959 2.74191,-5.28019 2.7419,-10.61646 2.74191,18.21876 2.7419,8.22042 2.74191,-22.10975"
         style="fill:none;stroke:#d62728;stroke-width:1.5;stroke-linecap:butt;stroke-linejoin:round;stroke-miterlimit:10;stroke-dasharray:1.5, 2.475;stroke-dashoffset:0;stroke-opacity:1"
         id="path448" /></g><path
       d="M 63.378747,143.8714 V 300.97909"
       style="fill:none;stroke:#000000;stroke-width:0.489813;stroke-linecap:square;stroke-linejoin:miter;stroke-miterlimit:10;stroke-dasharray:none;stroke-opacity:1"
       id="path452" /><path
       d="M 246.19768,143.8714 V 300.97909"
       style="fill:none;stroke:#000000;stroke-width:0.489813;stroke-linecap:square;stroke-linejoin:miter;stroke-miterlimit:10;stroke-dasharray:none;stroke-opacity:1"
       id="path454" /><path
       d="M 63.378747,143.8714 H 246.19768"
       style="fill:none;stroke:#000000;stroke-width:0.489813;stroke-linecap:square;stroke-linejoin:miter;stroke-miterlimit:10;stroke-dasharray:none;stroke-opacity:1"
       id="path456" /><path
       d="M 63.378747,300.97909 H 246.19768"
       style="fill:none;stroke:#000000;stroke-width:0.489813;stroke-linecap:square;stroke-linejoin:miter;stroke-miterlimit:10;stroke-dasharray:none;stroke-opacity:1"
       id="path458" /><path
       d="m 167.51183,249.31259 h 56.05681 c 0.87722,0 1.31584,0.40818 1.31584,1.22453 v 44.30326 c 0,0.81636 -0.43862,1.22453 -1.31584,1.22453 h -56.05681 c -0.87722,0 -1.31584,-0.40817 -1.31584,-1.22453 v -44.30326 c 0,-0.81635 0.43862,-1.22453 1.31584,-1.22453 z"
       style="fill:#ffffff;fill-opacity:0.8;fill-rule:nonzero;stroke:#cccccc;stroke-width:0.612267;stroke-linecap:butt;stroke-linejoin:miter;stroke-miterlimit:10;stroke-dasharray:none;stroke-opacity:0.8"
       id="path460" /><path
       d="M 168.64506,282.12627 H 180.8904"
       style="fill:none;stroke:#1f77b4;stroke-width:0.918401;stroke-linecap:butt;stroke-linejoin:round;stroke-miterlimit:10;stroke-dasharray:0.918401, 1.51536;stroke-dashoffset:0;stroke-opacity:1"
       id="path466" /><path
       d="M 168.64506,273.14318 H 180.8904"
       style="fill:none;stroke:#ff7f0e;stroke-width:0.918401;stroke-linecap:butt;stroke-linejoin:round;stroke-miterlimit:10;stroke-dasharray:0.918401, 1.51536;stroke-dashoffset:0;stroke-opacity:1"
       id="path472" /><path
       d="M 168.64506,264.16006 H 180.8904"
       style="fill:none;stroke:#2ca02c;stroke-width:0.918401;stroke-linecap:butt;stroke-linejoin:round;stroke-miterlimit:10;stroke-dasharray:0.918401, 1.51536;stroke-dashoffset:0;stroke-opacity:1"
       id="path478" /><path
       d="M 168.64506,255.17697 H 180.8904"
       style="fill:none;stroke:#d62728;stroke-width:0.918401;stroke-linecap:butt;stroke-linejoin:round;stroke-miterlimit:10;stroke-dasharray:0.918401, 1.51536;stroke-dashoffset:0;stroke-opacity:1"
       id="path484" /><g
       id="g422"
       clip-path="url(#clipPath426)"
       transform="matrix(0.61226695,0,0,0.61226695,18.795618,118.18068)"><path
         d="m 86.38892,62.672477 2.741906,113.675093 2.741905,6.99947 2.741906,2.26731 2.741905,2.10163 2.741908,1.37771 2.7419,0.70097 2.74191,-0.50979 2.7419,0.13509 2.74191,0.33774 2.74191,-0.24725 2.7419,-0.12617 2.74191,-0.35941 2.7419,-0.008 2.74191,-0.20265 2.7419,0.16696 2.74191,-0.12872 2.7419,-0.0752 2.74191,0.0765 2.7419,-0.65508 2.74191,-0.35304 2.74191,-0.32499 2.7419,-0.0115 2.74191,-0.0752 2.7419,-0.40656 2.74191,-0.30461 2.7419,-0.15421 2.74191,-0.0663 2.7419,0.093 2.74191,2.49927 2.74191,-0.24598 2.7419,-0.25107 2.74191,0.014 2.7419,-0.001 2.74191,0.0726 2.7419,-0.20137 2.74191,-0.0637 2.7419,-0.0433 2.74191,0.001 2.74191,-0.0688 2.7419,-0.0625 2.74191,-0.26764 2.7419,0.14274 2.74191,-0.0242 2.7419,-0.11088 2.74191,-0.0127 2.7419,0.32627 2.74191,-0.4295 2.74191,0.14019 2.7419,-0.14402 2.74191,0.0433 2.7419,-0.1402 2.74191,-0.12108 2.7419,0.23579 2.74191,-0.28931 2.7419,-0.20647 2.74191,0.0879 2.7419,-0.11215 2.74191,-0.14275 2.74191,-0.0548 2.7419,-0.15166 2.74191,-0.0548 2.7419,0.14147 2.74191,0.10961 2.7419,-0.3097 2.74191,0.0969 2.74191,-0.12872 2.7419,0.079 2.74191,-0.24342 2.7419,0.24597 2.74191,-0.31989 2.7419,0.11088 2.74191,-0.17461 2.7419,-0.0663 2.74191,-0.17461 2.7419,-0.0981 2.74191,-0.0319 2.74191,-0.39254 2.7419,0.17842 2.74191,-0.18097 2.7419,-0.0548 h 2.74191 l 2.7419,-0.22558 2.74191,-0.21284 2.7419,0.15549 2.74191,-0.57607 2.74191,0.29441 2.7419,-0.0229 2.74191,0.0204 2.7419,-0.34284 2.74191,-0.15931 2.7419,-0.0867 2.74191,-0.33264 2.7419,0.0357 2.74191,-0.16823 2.74191,-0.19627 2.7419,-0.32754 2.74191,-0.065 2.7419,0.10196 2.74191,-0.20519"
         style="fill:none;stroke:#ff7f0e;stroke-width:1.5;stroke-linecap:butt;stroke-linejoin:round;stroke-miterlimit:10;stroke-dasharray:1.5, 2.475;stroke-dashoffset:0;stroke-opacity:1"
         id="path428" /></g><g
       id="g432"
       clip-path="url(#clipPath436)"
       transform="matrix(0.61226695,0,0,0.61226695,18.795618,118.18068)"><path
         d="m 86.38892,53.623636 2.741906,120.724274 2.741905,8.72512 2.741906,2.61907 2.741905,2.00603 2.741908,1.53193 2.7419,0.44098 2.74191,-0.43205 2.7419,0.13764 2.74191,0.17588 2.74191,-0.0777 2.7419,-0.18353 2.74191,-0.29696 2.7419,-10e-4 2.74191,-0.13127 2.7419,0.0701 2.74191,-0.0319 2.7419,-0.0879 2.74191,-0.0816 2.7419,-0.40656 2.74191,-0.45882 2.74191,-0.0765 2.7419,-0.26764 2.74191,0.093 2.7419,-0.39764 2.74191,-0.15421 2.7419,-0.37215 2.74191,-0.0166 2.7419,0.27401 2.74191,2.21633 2.74191,-0.2498 2.7419,-0.1198 2.74191,0.001 2.7419,0.13891 2.74191,-0.1848 2.7419,-0.12617 2.74191,-0.0421 2.7419,-0.10196 2.74191,-0.12744 2.74191,0.14529 2.7419,-0.16314 2.74191,-0.0586 2.7419,0.0625 2.74191,-0.0268 2.7419,-0.0357 2.74191,-0.1351 2.7419,0.33646 2.74191,-0.25744 2.74191,0.051 2.7419,-0.24088 2.74191,0.14911 2.7419,-0.20519 2.74191,0.0523 2.7419,0.0204 2.74191,-0.27019 2.7419,-0.12745 2.74191,0.15166 2.7419,-0.24725 2.74191,0.009 2.74191,-0.15676 2.7419,-0.15421 2.74191,0.0153 2.7419,0.0535 2.74191,0.0701 2.7419,-0.21921 2.74191,0.12107 2.74191,-0.16568 2.7419,0.0535 2.74191,-0.0599 2.7419,-0.0255 2.74191,-0.1249 2.7419,0.0382 2.74191,-0.32626 2.7419,0.0535 2.74191,-0.0803 2.7419,-0.2944 2.74191,0.14019 2.74191,-0.47666 2.7419,0.14912 2.74191,-0.0344 2.7419,-0.17206 2.74191,-0.006 2.7419,-0.19245 2.74191,-0.25362 2.7419,0.0854 2.74191,-0.40146 2.74191,0.19499 2.7419,-0.005 2.74191,-0.0803 2.7419,-0.13382 2.74191,-0.21921 2.7419,-0.15931 2.74191,-0.45372 2.7419,0.28421 2.74191,-0.39381 2.74191,-0.0675 2.7419,-0.18353 2.74191,-0.26509 2.7419,0.20902 2.74191,-0.26892"
         style="fill:none;stroke:#2ca02c;stroke-width:1.5;stroke-linecap:butt;stroke-linejoin:round;stroke-miterlimit:10;stroke-dasharray:1.5, 2.475;stroke-dashoffset:0;stroke-opacity:1"
         id="path438" /></g></g><g
     inkscape:groupmode="layer"
     id="layer1"
     inkscape:label="text"
     style="display:inline"><text
       style="font-variant:normal;font-weight:normal;font-size:8.16356px;font-family:'DejaVu Sans';-inkscape-font-specification:DejaVuSans;writing-mode:lr-tb;fill:#000000;fill-opacity:1;fill-rule:nonzero;stroke:none;stroke-width:0.816356"
       id="text32"
       x="26.116581"
       y="221.88737"><tspan
         x="26.116581"
         y="221.88737"
         id="tspan30"
         style="stroke-width:0.816356">0</tspan></text><text
       style="font-variant:normal;font-weight:normal;font-size:8.16356px;font-family:'DejaVu Sans';-inkscape-font-specification:DejaVuSans;writing-mode:lr-tb;fill:#000000;fill-opacity:1;fill-rule:nonzero;stroke:none;stroke-width:0.816356"
       id="text50"
       x="45.904533"
       y="221.88737"><tspan
         x="45.904533 51.09655"
         y="221.88737"
         sodipodi:role="line"
         id="tspan48"
         style="stroke-width:0.816356">10</tspan></text><text
       style="font-variant:normal;font-weight:normal;font-size:8.16356px;font-family:'DejaVu Sans';-inkscape-font-specification:DejaVuSans;writing-mode:lr-tb;fill:#000000;fill-opacity:1;fill-rule:nonzero;stroke:none;stroke-width:0.816356"
       id="text68"
       x="68.288239"
       y="221.88737"><tspan
         x="68.288239 73.480247"
         y="221.88737"
         sodipodi:role="line"
         id="tspan66"
         style="stroke-width:0.816356">20</tspan></text><text
       style="font-variant:normal;font-weight:normal;font-size:8.16356px;font-family:'DejaVu Sans';-inkscape-font-specification:DejaVuSans;writing-mode:lr-tb;fill:#000000;fill-opacity:1;fill-rule:nonzero;stroke:none;stroke-width:0.816356"
       id="text86"
       x="90.671959"
       y="221.88737"><tspan
         x="90.671959 95.863983"
         y="221.88737"
         sodipodi:role="line"
         id="tspan84"
         style="stroke-width:0.816356">30</tspan></text><text
       style="font-variant:normal;font-weight:normal;font-size:8.16356px;font-family:'DejaVu Sans';-inkscape-font-specification:DejaVuSans;writing-mode:lr-tb;fill:#000000;fill-opacity:1;fill-rule:nonzero;stroke:none;stroke-width:0.816356"
       id="text104"
       x="113.05566"
       y="221.88737"><tspan
         x="113.05566 118.24767"
         y="221.88737"
         sodipodi:role="line"
         id="tspan102"
         style="stroke-width:0.816356">40</tspan></text><text
       style="font-variant:normal;font-weight:normal;font-size:8.16356px;font-family:'DejaVu Sans';-inkscape-font-specification:DejaVuSans;writing-mode:lr-tb;fill:#000000;fill-opacity:1;fill-rule:nonzero;stroke:none;stroke-width:0.816356"
       id="text122"
       x="135.43938"
       y="221.88737"><tspan
         x="135.43938 140.63138"
         y="221.88737"
         sodipodi:role="line"
         id="tspan120"
         style="stroke-width:0.816356">50</tspan></text><text
       style="font-variant:normal;font-weight:normal;font-size:8.16356px;font-family:'DejaVu Sans';-inkscape-font-specification:DejaVuSans;writing-mode:lr-tb;fill:#000000;fill-opacity:1;fill-rule:nonzero;stroke:none;stroke-width:0.816356"
       id="text140"
       x="157.82307"
       y="221.88737"><tspan
         x="157.82307 163.01509"
         y="221.88737"
         sodipodi:role="line"
         id="tspan138"
         style="stroke-width:0.816356">60</tspan></text><text
       style="font-variant:normal;font-weight:normal;font-size:8.16356px;font-family:'DejaVu Sans';-inkscape-font-specification:DejaVuSans;writing-mode:lr-tb;fill:#000000;fill-opacity:1;fill-rule:nonzero;stroke:none;stroke-width:0.816356"
       id="text158"
       x="180.2068"
       y="221.88737"><tspan
         x="180.2068 185.39882"
         y="221.88737"
         sodipodi:role="line"
         id="tspan156"
         style="stroke-width:0.816356">70</tspan></text><text
       style="font-variant:normal;font-weight:normal;font-size:8.16356px;font-family:'DejaVu Sans';-inkscape-font-specification:DejaVuSans;writing-mode:lr-tb;fill:#000000;fill-opacity:1;fill-rule:nonzero;stroke:none;stroke-width:0.816356"
       id="text176"
       x="202.59048"
       y="221.88737"><tspan
         x="202.59048 207.78252"
         y="221.88737"
         sodipodi:role="line"
         id="tspan174"
         style="stroke-width:0.816356">80</tspan></text><text
       style="font-variant:normal;font-weight:normal;font-size:8.16356px;font-family:'DejaVu Sans';-inkscape-font-specification:DejaVuSans;writing-mode:lr-tb;fill:#000000;fill-opacity:1;fill-rule:nonzero;stroke:none;stroke-width:0.816356"
       id="text194"
       x="224.9742"
       y="221.88737"><tspan
         x="224.9742 230.16621"
         y="221.88737"
         sodipodi:role="line"
         id="tspan192"
         style="stroke-width:0.816356">90</tspan></text><text
       style="font-variant:normal;font-weight:normal;font-size:8.16356px;font-family:'DejaVu Sans';-inkscape-font-specification:DejaVuSans;writing-mode:lr-tb;fill:#000000;fill-opacity:1;fill-rule:nonzero;stroke:none;stroke-width:0.816356"
       id="text212"
       x="244.76216"
       y="221.88737"><tspan
         x="244.76216 249.95418 255.14621"
         y="221.88737"
         sodipodi:role="line"
         id="tspan210"
         style="stroke-width:0.816356">100</tspan></text><text
       style="font-variant:normal;font-weight:normal;font-size:8.16356px;font-family:'DejaVu Sans';-inkscape-font-specification:DejaVuSans;writing-mode:lr-tb;fill:#000000;fill-opacity:1;fill-rule:nonzero;stroke:none;stroke-width:0.816356"
       id="text216"
       x="129.31339"
       y="233.04849"><tspan
         x="129.31339 134.334 139.51784 144.51395 149.00389"
         y="233.04849"
         sodipodi:role="line"
         id="tspan214"
         style="stroke-width:0.816356">epoch</tspan></text><text
       style="font-variant:normal;font-weight:normal;font-size:8.16356px;font-family:'DejaVu Sans';-inkscape-font-specification:DejaVuSans;writing-mode:lr-tb;fill:#000000;fill-opacity:1;fill-rule:nonzero;stroke:none;stroke-width:0.816356"
       id="text236"
       x="-0.53812683"
       y="130.24507"><tspan
         x="-0.53812683"
         y="130.24507"
         sodipodi:role="line"
         id="tspan234"
         style="stroke-width:0.816356">1.0</tspan></text><text
       style="font-variant:normal;font-weight:normal;font-size:8.16356px;font-family:'DejaVu Sans';-inkscape-font-specification:DejaVuSans;writing-mode:lr-tb;fill:#000000;fill-opacity:1;fill-rule:nonzero;stroke:none;stroke-width:0.816356"
       id="text260"
       x="-0.53812683"
       y="186.90158"><tspan
         sodipodi:role="line"
         id="tspan258"
         x="-0.53812683"
         y="186.90158"
         style="stroke-width:0.816356">0.8</tspan></text><text
       style="font-variant:normal;font-weight:normal;font-size:8.16356px;font-family:'DejaVu Sans';-inkscape-font-specification:DejaVuSans;writing-mode:lr-tb;fill:#000000;fill-opacity:1;fill-rule:nonzero;stroke:none;stroke-width:0.816356"
       id="text296"
       x="-0.53812683"
       y="157.17404"><tspan
         sodipodi:role="line"
         id="tspan294"
         x="-0.53812683"
         y="157.17404"
         style="stroke-width:0.816356">0.9</tspan></text><text
       transform="rotate(-90)"
       style="font-variant:normal;font-weight:normal;font-size:8.16356px;font-family:'DejaVu Sans';-inkscape-font-specification:DejaVuSans;writing-mode:lr-tb;fill:#000000;fill-opacity:1;fill-rule:nonzero;stroke:none;stroke-width:0.816356"
       id="text316"
       x="-108.54724"
       y="8.8940582"><tspan
         x="-108.54724 -103.36339 -98.342804 -93.167107 -88.146515 -84.79129 -79.787041 -76.586906 -71.590836 -68.235588 -65.639603 -63.370129 -58.374016 -54.1208"
         y="8.8940582"
         sodipodi:role="line"
         id="tspan314"
         style="stroke-width:0.816356">generator loss</tspan></text><text
       style="font-variant:normal;font-weight:normal;font-size:8.16356px;font-family:'DejaVu Sans';-inkscape-font-specification:DejaVuSans;writing-mode:lr-tb;fill:#000000;fill-opacity:1;fill-rule:nonzero;stroke:none;stroke-width:0.816356"
       id="text356"
       x="172.59303"
       y="128.12846"><tspan
         x="172.59303 178.91975 183.94034 189.11604 194.13661 197.49185 202.49611 205.6962 210.69231"
         y="128.12846"
         sodipodi:role="line"
         id="tspan354"
         style="stroke-width:0.816356">Generator</tspan></text><text
       style="font-variant:normal;font-weight:normal;font-size:8.16356px;font-family:'DejaVu Sans';-inkscape-font-specification:DejaVuSans;writing-mode:lr-tb;fill:#000000;fill-opacity:1;fill-rule:nonzero;stroke:none;stroke-width:0.816356"
       id="text362"
       x="192.84804"
       y="140.10593"><tspan
         sodipodi:role="line"
         id="tspan360"
         x="192.84804"
         y="140.10593"
         style="stroke-width:0.816356">\tiny{training}</tspan></text><text
       style="font-variant:normal;font-weight:normal;font-size:8.16356px;font-family:'DejaVu Sans';-inkscape-font-specification:DejaVuSans;writing-mode:lr-tb;fill:#000000;fill-opacity:1;fill-rule:nonzero;stroke:none;stroke-width:0.816356"
       id="text368"
       x="192.84804"
       y="152.0834"><tspan
         sodipodi:role="line"
         id="tspan366"
         x="192.84804"
         y="152.0834"
         style="stroke-width:0.816356">\tiny{validation}</tspan></text><text
       style="font-variant:normal;font-weight:normal;font-size:8.16356px;font-family:'DejaVu Sans';-inkscape-font-specification:DejaVuSans;writing-mode:lr-tb;fill:#000000;fill-opacity:1;fill-rule:nonzero;stroke:none;stroke-width:0.816356"
       id="text374"
       x="269.34384"
       y="178.83232"><tspan
         x="269.34384 274.53586 277.1319 282.32391 287.51593"
         y="178.83232"
         sodipodi:role="line"
         id="tspan372"
         style="stroke-width:0.816356">0.688</tspan></text><text
       style="font-variant:normal;font-weight:normal;font-size:8.16356px;font-family:'DejaVu Sans';-inkscape-font-specification:DejaVuSans;writing-mode:lr-tb;fill:#000000;fill-opacity:1;fill-rule:nonzero;stroke:none;stroke-width:0.816356"
       id="text380"
       x="269.34384"
       y="143.92117"><tspan
         x="269.34384 274.53586 277.1319 282.32391 287.51593"
         y="143.92117"
         sodipodi:role="line"
         id="tspan378"
         style="stroke-width:0.816356">0.690</tspan></text><text
       style="font-variant:normal;font-weight:normal;font-size:8.16356px;font-family:'DejaVu Sans';-inkscape-font-specification:DejaVuSans;writing-mode:lr-tb;fill:#000000;fill-opacity:1;fill-rule:nonzero;stroke:none;stroke-width:0.816356"
       id="text386"
       x="269.34384"
       y="109.01003"><tspan
         x="269.34384 274.53586 277.1319 282.32391 287.51593"
         y="109.01003"
         sodipodi:role="line"
         id="tspan384"
         style="stroke-width:0.816356">0.692</tspan></text><text
       style="font-variant:normal;font-weight:normal;font-size:8.16356px;font-family:'DejaVu Sans';-inkscape-font-specification:DejaVuSans;writing-mode:lr-tb;fill:#000000;fill-opacity:1;fill-rule:nonzero;stroke:none;stroke-width:0.816356"
       id="text392"
       x="269.34384"
       y="74.09893"><tspan
         x="269.34384 274.53586 277.1319 282.32391 287.51593"
         y="74.09893"
         sodipodi:role="line"
         id="tspan390"
         style="stroke-width:0.816356">0.694</tspan></text><text
       style="font-variant:normal;font-weight:normal;font-size:8.16356px;font-family:'DejaVu Sans';-inkscape-font-specification:DejaVuSans;writing-mode:lr-tb;fill:#000000;fill-opacity:1;fill-rule:nonzero;stroke:none;stroke-width:0.816356"
       id="text398"
       x="269.34384"
       y="39.187778"><tspan
         x="269.34384 274.53586 277.1319 282.32391 287.51593"
         y="39.187778"
         sodipodi:role="line"
         id="tspan396"
         style="stroke-width:0.816356">0.696</tspan></text><text
       style="font-variant:normal;font-weight:normal;font-size:8.16356px;font-family:'DejaVu Sans';-inkscape-font-specification:DejaVuSans;writing-mode:lr-tb;fill:#000000;fill-opacity:1;fill-rule:nonzero;stroke:none;stroke-width:0.816356"
       id="text404"
       x="269.34384"
       y="4.2766762"><tspan
         x="269.34384 274.53586 277.1319 282.32391 287.51593"
         y="4.2766762"
         sodipodi:role="line"
         id="tspan402"
         style="stroke-width:0.816356">0.698</tspan></text><text
       transform="rotate(-90)"
       style="font-variant:normal;font-weight:normal;font-size:8.16356px;font-family:'DejaVu Sans';-inkscape-font-specification:DejaVuSans;writing-mode:lr-tb;fill:#000000;fill-opacity:1;fill-rule:nonzero;stroke:none;stroke-width:0.816356"
       id="text408"
       x="-141.32706"
       y="305.24597"><tspan
         x="-141.32706 -136.14317 -133.87373 -129.62051 -125.13055 -121.77531 -119.50585 -111.55453 -109.28507 -104.10938 -99.105133 -95.905022 -90.908905 -87.55368 -84.957672 -82.688202 -77.692108 -73.438896"
         y="305.24597"
         sodipodi:role="line"
         id="tspan406"
         style="stroke-width:0.816356">discriminator loss</tspan></text><text
       style="font-variant:normal;font-weight:normal;font-size:8.16356px;font-family:'DejaVu Sans';-inkscape-font-specification:DejaVuSans;writing-mode:lr-tb;fill:#000000;fill-opacity:1;fill-rule:nonzero;stroke:none;stroke-width:0.816356"
       id="text464"
       x="159.42465"
       y="16.513569"><tspan
         x="159.42465 165.7106 167.98007 172.23326 176.72322 180.07845 182.34792 190.29922 192.5687 197.74442 202.74869 205.94881 210.94487"
         y="16.513569"
         sodipodi:role="line"
         id="tspan462"
         style="stroke-width:0.816356">Discriminator</tspan></text><text
       style="font-variant:normal;font-weight:normal;font-size:8.16356px;font-family:'DejaVu Sans';-inkscape-font-specification:DejaVuSans;writing-mode:lr-tb;fill:#000000;fill-opacity:1;fill-rule:nonzero;stroke:none;stroke-width:0.816356"
       id="text470"
       x="179.41023"
       y="28.49102"><tspan
         sodipodi:role="line"
         id="tspan468"
         x="179.41023"
         y="28.49102"
         style="stroke-width:0.816356">\tiny{train total}</tspan></text><text
       style="font-variant:normal;font-weight:normal;font-size:8.16356px;font-family:'DejaVu Sans';-inkscape-font-specification:DejaVuSans;writing-mode:lr-tb;fill:#000000;fill-opacity:1;fill-rule:nonzero;stroke:none;stroke-width:0.816356"
       id="text476"
       x="179.41023"
       y="40.468498"><tspan
         sodipodi:role="line"
         id="tspan474"
         x="179.41023"
         y="40.468498"
         style="stroke-width:0.816356">\tiny{train real}</tspan></text><text
       style="font-variant:normal;font-weight:normal;font-size:8.16356px;font-family:'DejaVu Sans';-inkscape-font-specification:DejaVuSans;writing-mode:lr-tb;fill:#000000;fill-opacity:1;fill-rule:nonzero;stroke:none;stroke-width:0.816356"
       id="text482"
       x="179.41023"
       y="52.445957"><tspan
         sodipodi:role="line"
         id="tspan480"
         x="179.41023"
         y="52.445957"
         style="stroke-width:0.816356">\tiny{train fake}</tspan></text><text
       style="font-variant:normal;font-weight:normal;font-size:8.16356px;font-family:'DejaVu Sans';-inkscape-font-specification:DejaVuSans;writing-mode:lr-tb;fill:#000000;fill-opacity:1;fill-rule:nonzero;stroke:none;stroke-width:0.816356"
       id="text488"
       x="179.41023"
       y="64.42347"><tspan
         sodipodi:role="line"
         id="tspan486"
         x="179.41023"
         y="64.42347"
         style="stroke-width:0.816356">\tiny{valid. total}</tspan></text></g></svg>
