<?xml version="1.0" encoding="UTF-8" standalone="no"?>
<svg
   xmlns:dc="http://purl.org/dc/elements/1.1/"
   xmlns:cc="http://creativecommons.org/ns#"
   xmlns:rdf="http://www.w3.org/1999/02/22-rdf-syntax-ns#"
   xmlns:svg="http://www.w3.org/2000/svg"
   xmlns="http://www.w3.org/2000/svg"
   xmlns:sodipodi="http://sodipodi.sourceforge.net/DTD/sodipodi-0.dtd"
   xmlns:inkscape="http://www.inkscape.org/namespaces/inkscape"
   version="1.1"
   id="svg2"
   xml:space="preserve"
   width="80mm"
   height="65.300003mm"
   viewBox="0 0 302.36219 246.80316"
   sodipodi:docname="pearson_chr03.svg"
   inkscape:version="1.0.2 (1.0.2+r75+1)"><metadata
     id="metadata8"><rdf:RDF><cc:Work
         rdf:about=""><dc:format>image/svg+xml</dc:format><dc:type
           rdf:resource="http://purl.org/dc/dcmitype/StillImage" /><dc:title></dc:title></cc:Work></rdf:RDF></metadata><defs
     id="defs6"><clipPath
       clipPathUnits="userSpaceOnUse"
       id="clipPath22"><path
         d="M 57.6,38.016 H 414.72 V 304.128 H 57.6 Z"
         id="path20" /></clipPath><clipPath
       clipPathUnits="userSpaceOnUse"
       id="clipPath40"><path
         d="M 57.6,38.016 H 414.72 V 304.128 H 57.6 Z"
         id="path38" /></clipPath><clipPath
       clipPathUnits="userSpaceOnUse"
       id="clipPath58"><path
         d="M 57.6,38.016 H 414.72 V 304.128 H 57.6 Z"
         id="path56" /></clipPath><clipPath
       clipPathUnits="userSpaceOnUse"
       id="clipPath76"><path
         d="M 57.6,38.016 H 414.72 V 304.128 H 57.6 Z"
         id="path74" /></clipPath><clipPath
       clipPathUnits="userSpaceOnUse"
       id="clipPath94"><path
         d="M 57.6,38.016 H 414.72 V 304.128 H 57.6 Z"
         id="path92" /></clipPath><clipPath
       clipPathUnits="userSpaceOnUse"
       id="clipPath112"><path
         d="M 57.6,38.016 H 414.72 V 304.128 H 57.6 Z"
         id="path110" /></clipPath><clipPath
       clipPathUnits="userSpaceOnUse"
       id="clipPath130"><path
         d="M 57.6,38.016 H 414.72 V 304.128 H 57.6 Z"
         id="path128" /></clipPath><clipPath
       clipPathUnits="userSpaceOnUse"
       id="clipPath152"><path
         d="M 57.6,38.016 H 414.72 V 304.128 H 57.6 Z"
         id="path150" /></clipPath><clipPath
       clipPathUnits="userSpaceOnUse"
       id="clipPath170"><path
         d="M 57.6,38.016 H 414.72 V 304.128 H 57.6 Z"
         id="path168" /></clipPath><clipPath
       clipPathUnits="userSpaceOnUse"
       id="clipPath188"><path
         d="M 57.6,38.016 H 414.72 V 304.128 H 57.6 Z"
         id="path186" /></clipPath><clipPath
       clipPathUnits="userSpaceOnUse"
       id="clipPath206"><path
         d="M 57.6,38.016 H 414.72 V 304.128 H 57.6 Z"
         id="path204" /></clipPath><clipPath
       clipPathUnits="userSpaceOnUse"
       id="clipPath224"><path
         d="M 57.6,38.016 H 414.72 V 304.128 H 57.6 Z"
         id="path222" /></clipPath><clipPath
       clipPathUnits="userSpaceOnUse"
       id="clipPath242"><path
         d="M 57.6,38.016 H 414.72 V 304.128 H 57.6 Z"
         id="path240" /></clipPath><clipPath
       clipPathUnits="userSpaceOnUse"
       id="clipPath264"><path
         d="M 57.6,38.016 H 414.72 V 304.128 H 57.6 Z"
         id="path262" /></clipPath><clipPath
       clipPathUnits="userSpaceOnUse"
       id="clipPath274"><path
         d="M 57.6,38.016 H 414.72 V 304.128 H 57.6 Z"
         id="path272" /></clipPath><clipPath
       clipPathUnits="userSpaceOnUse"
       id="clipPath284"><path
         d="M 57.6,38.016 H 414.72 V 304.128 H 57.6 Z"
         id="path282" /></clipPath><clipPath
       clipPathUnits="userSpaceOnUse"
       id="clipPath294"><path
         d="M 57.6,38.016 H 414.72 V 304.128 H 57.6 Z"
         id="path292" /></clipPath><clipPath
       clipPathUnits="userSpaceOnUse"
       id="clipPath304"><path
         d="M 57.6,38.016 H 414.72 V 304.128 H 57.6 Z"
         id="path302" /></clipPath><clipPath
       clipPathUnits="userSpaceOnUse"
       id="clipPath314"><path
         d="M 57.6,38.016 H 414.72 V 304.128 H 57.6 Z"
         id="path312" /></clipPath></defs><sodipodi:namedview
     pagecolor="#ffffff"
     bordercolor="#666666"
     borderopacity="1"
     objecttolerance="10"
     gridtolerance="10"
     guidetolerance="10"
     inkscape:pageopacity="0"
     inkscape:pageshadow="2"
     inkscape:window-width="1920"
     inkscape:window-height="1020"
     id="namedview4"
     showgrid="false"
     units="mm"
     fit-margin-top="0"
     fit-margin-left="0"
     fit-margin-right="0"
     fit-margin-bottom="0"
     inkscape:zoom="29.756945"
     inkscape:cx="201.45213"
     inkscape:cy="244.8247"
     inkscape:window-x="0"
     inkscape:window-y="0"
     inkscape:window-maximized="1"
     inkscape:current-layer="g10" /><g
     id="g10"
     inkscape:groupmode="layer"
     inkscape:label="pearson_chr03"
     transform="matrix(1.3333333,0,0,-1.3333333,-28.023958,443.59358)"><g
       id="g310"
       clip-path="url(#clipPath314)"
       style="stroke:#d62728;stroke-opacity:1"
       transform="matrix(0.57532783,0,0,0.57532783,8.9257467,141.992)"><path
         d="m 57.6,248.52707 1.400471,-5.5251 1.40047,-4.35076 1.400471,-2.54559 1.40047,0.5513 1.400471,1.8885 1.400471,0.1417 2.800941,2.23222 1.40047,-1.47155 1.400471,1.33663 1.40047,0.59181 1.400471,0.2708 1.400471,-2.79773 1.40047,-1.6912 1.400471,-3.97756 4.201412,-6.28562 1.40047,-3.22394 1.400471,-4.86042 1.40047,-0.99561 1.400471,-1.68976 2.800941,-4.73946 1.400471,-0.34948 1.40047,-1.6141 1.400471,-6.27775 1.40047,2.9425 1.400471,-2.2345 1.400471,1.51853 1.400472,-1.42757 1.40047,2.19308 1.40047,-3.07369 1.40047,-4.06867 1.40047,1.30769 1.40047,0.36635 1.40047,-2.16142 1.40047,5.72577 1.40047,0.21788 2.80094,-4.32482 1.40048,0.38756 1.40046,0.59566 1.40048,1.00719 1.40047,1.47669 1.40047,-2.40403 1.40047,1.14131 1.40047,6.36685 1.40047,-2.30982 1.40047,-5.23868 1.40047,7.5701 1.40047,-3.36177 1.40047,-5.34049 1.40047,-2.57933 1.40047,5.59987 1.40047,-2.13263 1.40047,-2.98591 1.40047,-0.18745 1.40047,2.17312 1.40048,-0.25279 1.40047,2.51104 1.40047,-2.32731 1.40047,2.94443 1.40047,-6.44611 1.40047,3.62189 1.40047,-7.23553 1.40047,3.20798 1.40047,-2.0896 1.40047,-4.96782 1.40047,3.27783 1.40047,1.90926 1.40047,-0.78443 1.40047,-4.89483 1.40047,-2.18167 1.40047,0.48779 1.40047,2.55461 1.40047,-7.32815 1.40048,3.45131 1.40047,0.26331 1.40047,-5.46751 1.40047,2.29236 1.40047,-4.49728 1.40047,-6.13043 1.40047,-0.66326 1.40047,1.86828 1.40047,-5.43202 1.40047,-1.51577 1.40047,-0.4507 1.40047,-6.16776 1.40047,-1.57932 1.40047,3.07968 1.40047,-5.10355 1.40047,1.0887 1.40047,-0.95475 2.80095,-0.63841 1.40047,3.29085 1.40047,1.88133 1.40047,-4.84407 1.40047,2.38536 1.40047,-2.75775 1.40047,2.16815 1.40047,-0.0738 1.40047,-2.68458 1.40047,1.2189 1.40047,0.50314 1.40047,3.75854 1.40047,1.52651 1.40047,-2.31948 1.40047,2.70073 1.40048,-0.9698 1.40047,-0.20276 1.40047,-1.34352 1.40047,2.89078 1.40047,-1.84076 1.40047,1.4454 1.40047,-2.65431 1.40047,-0.79015 1.40047,-3.59905 1.40047,2.27632 1.40047,-8.58488 1.40047,7.14175 1.40047,-2.82178 1.40047,3.16981 1.40047,2.62322 1.40047,1.63696 2.80095,-1.66696 1.40047,2.86657 1.40047,-3.5746 1.40047,-1.18243 1.40047,0.10199 1.40047,-5.26338 1.40047,6.69393 1.40047,2.94984 1.40047,-4.45983 1.40047,-2e-5 1.40047,2.87826 1.40047,3.32981 1.40047,-7.25426 1.40047,4.08916 1.40047,-2.23828 1.40047,-1.3382 1.40047,2.0814 1.40047,0.28811 1.40048,-3.89169 1.40047,-3.01581 1.40047,3.93127 1.40047,-7.55253 1.40047,0.6494 1.40047,6.04032 1.40047,-5.88925 1.40047,-0.43304 1.40047,-4.05971 1.40047,6.74086 1.40047,-0.21582 1.40047,-2.4024 1.40047,-4.08952 1.40047,-2.76816 1.40047,2.25273 1.40047,-7.23651 1.40047,-2.37546 1.40048,-0.42068 1.40047,0.6338 1.40047,1.7724 1.40047,1.47171 1.40047,-3.95095 1.40047,6.57037 1.40047,-5.84814 1.40047,2.96321 1.40047,-2.28211 1.40047,2.45421 1.40047,3.81721 1.40047,-6.082 1.40047,3.29898 1.40047,2.44599 1.40047,0.17465 1.40047,-4.61417 1.40047,-2.00752 1.40048,3.50917 1.40047,-1.42729 1.40047,2.97281 1.40047,-3.90758 1.40047,-0.65948 1.40047,0.54613 1.40047,1.52179 1.40047,-6.45711 1.40047,6.99569 1.40047,-4.2496 1.40047,-1.69694 1.40047,1.43374 1.40047,-1.2032 1.40047,-3.0683 1.40047,2.84984 1.40047,-6.13907 1.40047,4.48684 2.80095,-5.0409 1.40047,1.84944 1.40047,4.53494 1.40047,-1.98864 1.40047,1.20685 1.40047,-1.21291 1.40047,5.17406 1.40047,-5.6941 1.40047,1.29717 1.40047,-0.35705 1.40047,-3.01073 1.40047,4.90637 1.40047,-6.09749 1.40047,6.54267 1.40047,-7.90576 1.40047,4.21966 1.40048,-3.45934 1.40047,-0.332 1.40047,1.71667 1.40047,-1.10372 1.40047,5.62432 1.40047,-4.29335 1.40047,-1.13492 1.40047,1.56068 1.40047,6.78233 1.40047,-4.59086 1.40047,0.49314 1.40047,-2.73414 1.40047,0.13633 1.40047,-0.0691 1.40047,0.66442 1.40048,1.02969 1.40046,-3.59513 1.40048,-5.61861 1.40047,9.79629 1.40047,-3.37668 1.40047,0.87775 1.40047,-3.71239 1.40047,1.40179 1.40047,-5.3002 1.40047,-1.39288 1.40047,0.75957 1.40047,4.77656 1.40047,-1.00759 1.40047,-2.47747 1.40047,-3.72219 1.40047,-1.77082 1.40047,-2.38998 1.40047,-1.89975 1.40047,6.84765 1.40048,-2.10448 1.40047,0.0985 1.40047,4.09442 1.40047,-5.77028 1.40047,0.25213 1.40047,5.42632 1.40047,0.87642 1.40047,-4.03793 v 0"
         style="fill:none;stroke:#d62728;stroke-width:1.5;stroke-linecap:square;stroke-linejoin:round;stroke-miterlimit:10;stroke-dasharray:none;stroke-opacity:1"
         id="path316" /></g><g
       id="g16"
       transform="matrix(0.57532783,0,0,0.57532783,8.9257467,141.992)"><g
         id="g18"
         clip-path="url(#clipPath22)"><path
           d="M 57.6,38.016 V 304.128"
           style="fill:none;stroke:#b0b0b0;stroke-width:0.8;stroke-linecap:square;stroke-linejoin:round;stroke-miterlimit:10;stroke-dasharray:none;stroke-opacity:1"
           id="path24" /></g></g><path
       d="m 42.06463,163.86367 v -2.01365"
       style="fill:#000000;fill-opacity:1;fill-rule:nonzero;stroke:#000000;stroke-width:0.460262;stroke-linecap:butt;stroke-linejoin:round;stroke-miterlimit:10;stroke-dasharray:none;stroke-opacity:1"
       id="path28" /><g
       id="g34"
       transform="matrix(0.57532783,0,0,0.57532783,8.9257467,141.992)"><g
         id="g36"
         clip-path="url(#clipPath40)"><path
           d="M 113.61882,38.016 V 304.128"
           style="fill:none;stroke:#b0b0b0;stroke-width:0.8;stroke-linecap:square;stroke-linejoin:round;stroke-miterlimit:10;stroke-dasharray:none;stroke-opacity:1"
           id="path42" /></g></g><path
       d="m 74.293815,163.86367 v -2.01365"
       style="fill:#000000;fill-opacity:1;fill-rule:nonzero;stroke:#000000;stroke-width:0.460262;stroke-linecap:butt;stroke-linejoin:round;stroke-miterlimit:10;stroke-dasharray:none;stroke-opacity:1"
       id="path46" /><g
       id="g52"
       transform="matrix(0.57532783,0,0,0.57532783,8.9257467,141.992)"><g
         id="g54"
         clip-path="url(#clipPath58)"><path
           d="M 169.63765,38.016 V 304.128"
           style="fill:none;stroke:#b0b0b0;stroke-width:0.8;stroke-linecap:square;stroke-linejoin:round;stroke-miterlimit:10;stroke-dasharray:none;stroke-opacity:1"
           id="path60" /></g></g><path
       d="m 42.06463,281.73946 0.80573,1.86304 0.805729,-3.29559 1.611459,-4.00388 0.80573,-1.33505 0.80573,-1.64705 0.80573,-0.21785 0.805729,-2.55951 0.80573,-0.37634 0.80573,-1.62298 0.805729,-1.15782 0.80573,-0.82589 0.80573,-1.27984 0.805729,0.52216 0.80573,-0.75423 1.611459,-0.56794 0.80573,-0.46863 0.80573,-0.0983 0.80573,-0.9437 0.805729,0.44013 0.80573,-1.39226 0.80573,-0.76451 0.805729,-0.46528 0.80573,-2.31246 0.805729,0.78618 0.80573,-0.60698 0.80573,-2.14779 0.80573,-0.42639 0.80573,-2.2649 0.80573,0.68309 0.805729,-1.736 0.80573,0.0999 0.805729,0.60155 0.805729,-1.6547 0.80573,0.65217 0.805729,-0.67461 0.80573,-0.39024 1.611458,-2.29267 0.80573,-1.37769 0.805735,0.0347 0.805723,-1.32205 0.805735,1.31609 0.80573,0.0653 0.805729,-0.60308 0.805729,-1.04777 0.80573,-0.62808 0.805729,-0.0778 0.805729,-0.34436 0.80573,0.70557 0.805729,-1.91104 0.805729,0.72211 0.80573,1.11826 0.805729,-0.65984 0.80573,0.61994 0.805729,-0.46429 0.805729,1.57138 0.80573,-1.39542 0.805735,-0.81842 0.805729,-0.0194 0.805729,-0.73785 0.80573,-1.5e-4 0.805729,0.22467 0.805729,-0.74235 0.80573,-0.0859 0.805729,0.74815 0.805729,0.0909 0.80573,0.83483 0.805729,-1.69945 0.805729,-3.66068 0.805734,3.62283 0.80573,-1.57931 0.80573,0.87528 0.80572,-1.26235 0.80573,-1.63179 0.80573,0.35824 0.80573,-1.21251 0.80573,-1.34367 0.80574,0.18486 0.80573,1.66075 0.80573,-0.0442 0.80573,0.19488 0.80572,-2.08377 0.80573,1.18934 0.80573,-0.18394 0.80573,1.66669 0.80573,-0.32659 0.80573,-2.07056 0.80573,0.19635 0.80573,-1.28422 0.80573,1.19304 0.80573,-1.72268 0.80573,-0.0261 0.80573,0.57685 0.80573,-0.0419 0.80573,-0.99443 0.80573,-1.17459 0.80573,1.54362 0.80573,0.25051 0.80573,-2.23295 0.80573,2.72652 0.80573,1.07771 0.80573,-1.68414 0.80573,0.24464 0.80572,-1.50619 0.80573,0.5324 0.80573,-0.0623 0.80573,1.05976 0.80574,0.1336 1.61146,-1.87799 0.80573,-1.82808 0.80573,4.56207 0.80573,0.23781 0.80572,-1.22538 0.80573,0.53809 0.80573,-0.34028 0.80573,1.93093 0.80574,-0.75675 0.80573,-1.23258 0.80572,-0.80306 0.80573,2.17834 0.80573,-1.17498 1.61146,1.73373 0.80573,-3.05065 0.80573,2.33519 0.80573,0.063 0.80574,0.90638 0.80572,0.63426 0.80573,0.48361 0.80573,-2.18321 0.80573,0.53091 0.80573,0.23439 0.80573,-1.13757 0.80572,0.24309 0.80573,0.37622 0.80573,-1.34165 0.80574,2.67647 0.80573,0.34629 0.80573,-1.12335 0.80572,2.03526 0.80573,-2.02135 0.80573,-0.21424 0.80574,0.2369 0.80572,0.15334 0.80573,0.73249 0.80573,0.0742 0.80574,-2.79299 0.80573,-1.09546 0.80573,-0.43585 0.80572,2.03565 0.80573,0.76326 0.80573,-2.44038 0.80573,1.22826 0.80573,-1.56731 0.80573,1.02339 0.80573,-2.03621 0.80573,-0.0986 0.80573,1.25667 0.80573,-0.92982 0.80573,-0.28458 0.80573,-2.15309 0.80573,1.88246 0.80573,-0.9766 0.80573,-1.23407 0.80572,0.48867 0.80574,-1.02028 0.80573,-0.43156 0.80573,0.63489 0.80573,0.79116 0.80573,0.34259 0.80572,-1.43133 0.80573,0.068 0.80573,1.61592 0.80573,-3.29184 0.80573,-1.64089 0.80574,2.35121 0.80573,0.0873 0.80573,-0.43469 0.80573,0.76043 0.80573,-0.2883 0.80572,-0.62018 0.80573,-3.09697 0.80573,1.3125 0.80573,0.23036 0.80573,-0.70537 0.80574,-0.0658 0.80572,-0.3803 0.80573,1.83244 0.80573,1.11846 0.80573,-4.53928 0.80573,1.08209 0.80573,2.80994 0.80572,-1.78425 0.80574,-0.55136 0.80573,0.695 0.80573,-0.0978 1.61146,0.36187 0.80573,-2.44903 0.80573,2.5991 0.80573,0.28417 0.80573,0.16682 0.80572,1.28089 0.80573,-2.26564 0.80573,3.25238 0.80574,-1.16203 0.80573,-0.37345 0.80573,-0.86427 0.80572,-3.34492 0.80573,2.42934 0.80574,-1.52159 0.80572,1.16921 0.80573,-1.96196 0.80573,-0.1212 0.80573,0.74794 0.80574,2.1377 0.80573,-3.58728 0.80572,0.98778 0.80573,-0.62186 0.80573,-0.47644 0.80573,2.75605 0.80573,-0.24214 0.80573,-1.58626 0.80572,-0.0924 0.80573,-2.43104 0.80575,-2.17359 0.80572,-0.28407 0.80573,3.12464 0.80573,-3.8305 0.80573,-1.40182 0.80573,-5.95661 0.80573,-5.31089 0.80573,-11.44594 0.65207,-31.27349"
       style="fill:none;stroke:#1f77b4;stroke-width:0.862992;stroke-linecap:square;stroke-linejoin:round;stroke-miterlimit:10;stroke-dasharray:none;stroke-opacity:1"
       id="path266"
       sodipodi:nodetypes="cccccccccccccccccccccccccccccccccccccccccccccccccccccccccccccccccccccccccccccccccccccccccccccccccccccccccccccccccccccccccccccccccccccccccccccccccccccccccccccccccccccccccccccccccccccccccccccccccccccccccccccccccccccccccccccccccccccccc" /><path
       d="m 106.52301,163.86367 v -2.01365"
       style="fill:#000000;fill-opacity:1;fill-rule:nonzero;stroke:#000000;stroke-width:0.460262;stroke-linecap:butt;stroke-linejoin:round;stroke-miterlimit:10;stroke-dasharray:none;stroke-opacity:1"
       id="path64" /><path
       d="m 42.06463,282.86055 0.80573,0.98254 0.805729,-3.21554 0.80573,-2.19575 0.805729,-1.87378 1.61146,-2.24269 0.80573,-0.45985 0.805729,-1.25599 0.80573,-0.10146 0.80573,-1.32932 0.805729,-0.75065 0.80573,0.12915 0.80573,-0.71109 0.805729,0.50177 0.80573,-0.50273 0.80573,-0.26752 0.805729,-0.77956 0.80573,-0.99168 0.80573,-0.15877 0.80573,-0.89854 0.805729,-0.26573 0.80573,-0.81092 0.80573,-1.17916 0.805729,0.018 0.80573,-2.77661 0.805729,0.49178 0.80573,-0.94384 0.80573,-2.02589 0.80573,-0.51885 0.80573,-3.09643 0.80573,1.14948 0.805729,-1.27937 0.80573,0.44664 0.805729,0.36748 0.805729,-1.75303 0.80573,0.37455 0.805729,-1.31923 0.80573,-0.58711 0.805729,-0.94379 1.611459,-2.22331 0.805735,-0.1965 0.805723,-1.04931 0.805735,1.34091 0.80573,0.15294 0.805729,0.23694 0.805729,-1.791 0.80573,-0.59733 0.805729,-0.42027 0.805729,0.37641 0.80573,0.24453 0.805729,-1.48869 0.805729,1.38919 0.80573,1.02357 0.805729,-1.15557 0.80573,1.11367 0.805729,0.17625 0.805729,0.50343 0.80573,-0.45531 0.805735,-0.37536 0.805729,-0.0207 0.805729,-1.19381 0.80573,1.00642 0.805729,1.22841 0.805729,-1.08007 0.80573,-0.16761 0.805729,1.07874 0.805729,0.19103 0.80573,1.10508 1.611458,-5.12849 0.805734,3.51666 0.80573,-1.32402 0.80573,0.12749 0.80572,-0.73879 0.80573,-2.02749 0.80573,0.86811 0.80573,-1.88705 0.80573,-1.36285 0.80574,1.03896 0.80573,1.28427 0.80573,0.0522 0.80573,-0.45481 0.80572,-2.13931 0.80573,0.86988 0.80573,0.57349 0.80573,1.78555 0.80573,-0.51288 0.80573,-1.80704 0.80573,0.1208 0.80573,-0.009 0.80573,-0.94897 0.80573,-1.15146 0.80573,0.69373 0.80573,-0.21283 0.80573,-0.40703 0.80573,-0.18181 0.80573,-0.64749 0.80573,1.16304 0.80573,0.52252 0.80573,-2.20883 0.80573,2.86486 0.80573,0.76516 0.80573,-2.35394 0.80573,-0.27231 0.80572,-0.81562 0.80573,0.70674 0.80573,-0.67634 0.80573,0.92592 0.80574,0.2788 0.80573,-1.30267 1.61146,-2.02241 0.80573,4.99553 0.80573,0.91845 0.80572,-0.85395 0.80573,0.40443 0.80573,-0.38844 0.80573,2.73335 0.80574,-0.47462 0.80573,-0.0996 0.80572,-1.5919 0.80573,2.0948 0.80573,0.2957 0.80573,-0.7257 0.80573,1.61821 0.80573,-2.64512 1.61146,2.33906 0.80574,2.21052 0.80572,-0.45291 0.80573,0.78225 0.80573,-3.65803 0.80573,2.19283 0.80573,-0.30319 1.61145,-1.0258 0.80573,0.45476 0.80573,-2.1058 0.80574,2.3914 0.80573,-1.41787 0.80573,-0.40896 0.80572,2.01623 0.80573,-1.82172 0.80573,-0.37118 0.80574,-0.5091 0.80572,0.53829 0.80573,1.20037 0.80573,0.0205 0.80574,-3.40387 0.80573,0.18419 0.80573,0.0782 0.80572,0.89542 0.80573,0.73736 0.80573,-2.37606 0.80573,0.7996 0.80573,-1.69324 0.80573,0.51441 0.80573,-1.30843 2.41719,0.40959 0.80573,0.53521 0.80573,-1.88754 0.80573,1.7364 0.80573,0.0214 0.80573,-1.37522 0.80572,0.76742 0.80574,0.47295 0.80573,-0.88205 0.80573,-0.55666 0.80573,1.09986 0.80573,0.35187 0.80572,-1.3266 0.80573,0.35374 0.80573,1.78273 1.61146,-5.724 0.80574,1.99533 0.80573,0.9128 0.80573,-1.17455 0.80573,-0.40003 0.80573,-0.24877 0.80572,-1.03652 0.80573,-2.64369 0.80573,0.37276 0.80573,0.1454 2.41719,-1.89519 0.80573,1.65712 0.80573,-0.6886 0.80573,-3.39638 0.80573,1.19808 0.80573,2.63176 0.80572,-1.78539 0.80574,-1.42231 0.80573,1.85821 0.80573,-0.0354 0.80573,-0.65458 0.80573,-0.41679 0.80573,-1.82133 0.80573,3.15897 0.80573,0.94134 0.80573,-0.23906 0.80572,1.3458 0.80573,-2.78824 0.80573,3.09239 0.80574,-0.12848 0.80573,-1.47004 0.80573,-0.82497 0.80572,-2.28269 0.80573,1.73659 0.80574,-0.99559 0.80572,1.581 0.80573,-2.01884 1.61146,0.67466 0.80574,1.93858 0.80573,-2.23517 0.80572,0.66555 0.80573,-1.80944 0.80573,-0.75905 0.80573,0.39981 1.61146,0.2902 0.80572,0.33985 0.80573,-2.48984 1.61147,-4.16387 0.80573,2.90394 0.80573,-1.95327 0.80573,-0.12007 0.80573,-2.0789 0.80573,-0.30732 0.80573,-0.43048 0.80572,-6.51802 0.80573,-10.54499 0.72355,-41.46754"
       style="fill:none;stroke:#ff7f0e;stroke-width:0.862992;stroke-linecap:square;stroke-linejoin:round;stroke-miterlimit:10;stroke-dasharray:none;stroke-opacity:1"
       id="path276"
       sodipodi:nodetypes="cccccccccccccccccccccccccccccccccccccccccccccccccccccccccccccccccccccccccccccccccccccccccccccccccccccccccccccccccccccccccccccccccccccccccccccccccccccccccccccccccccccccccccccccccccccccccccccccccccccccccccccccccccccccccccccccccc" /><path
       d="m 42.06463,281.81732 0.80573,1.34577 0.805729,-3.61486 1.611459,-4.07927 0.80573,-1.22205 0.80573,-0.75849 0.80573,-0.1076 0.805729,-1.21614 0.80573,0.0388 0.80573,-1.466 0.805729,-0.71232 0.80573,-0.0969 0.80573,-0.76796 0.805729,0.64866 0.80573,-0.82899 0.80573,-0.70812 0.805729,-1.36329 0.80573,-0.97502 0.80573,-0.11687 0.80573,-0.82264 0.805729,-0.009 0.80573,-0.61414 0.80573,-0.89961 0.805729,0.0196 0.80573,-2.3975 0.805729,0.67724 0.80573,-0.56337 0.80573,-2.10389 0.80573,-0.45458 0.80573,-2.46904 0.80573,1.0237 0.805729,-1.13825 0.80573,0.96353 0.805729,0.0813 0.805729,-1.2634 0.80573,0.90034 0.805729,-1.57365 0.80573,-0.68802 0.805729,-1.09128 0.805729,-0.93995 0.80573,-1.72367 0.805735,0.006 0.805723,-0.80747 0.805735,1.47121 0.80573,-0.41624 0.805729,0.49886 0.805729,-1.69138 0.80573,-1.02985 0.805729,-0.0216 1.611459,1.01532 0.805729,-1.76046 0.805729,1.38158 0.80573,1.17217 0.805729,-1.08305 0.80573,1.01964 0.805729,0.11827 0.805729,0.35375 0.80573,-0.19718 0.805735,-0.36363 0.805729,0.28639 0.805729,-1.0226 0.80573,1.57635 0.805729,1.01849 0.805729,-0.96983 0.80573,-0.69208 0.805729,1.57487 0.805729,0.0257 0.80573,0.446 0.805729,-2.53892 0.805729,-2.96192 0.805734,3.5241 0.80573,-1.12714 0.80573,0.1892 0.80572,-0.71325 0.80573,-1.94674 0.80573,0.9682 0.80573,-1.96001 0.80573,-1.24349 1.61147,1.92077 0.80573,0.28346 0.80573,-1.0385 0.80572,-2.18047 0.80573,0.76554 0.80573,0.25342 0.80573,1.92237 0.80573,-0.45971 0.80573,-1.36381 0.80573,-0.31779 0.80573,-0.46887 0.80573,-0.0781 0.80573,-1.41072 0.80573,0.64186 0.80573,-0.29909 0.80573,0.19486 0.80573,-0.54119 0.80573,0.0973 0.80573,1.05056 0.80573,0.69392 0.80573,-2.06799 0.80573,2.33853 0.80573,0.83182 0.80573,-2.18037 0.80573,-0.80657 0.80572,-1.00724 0.80573,1.56628 0.80573,-0.77756 0.80573,0.38583 0.80574,-0.0135 1.61146,-2.53435 0.80573,-0.63688 0.80573,5.07194 0.80573,0.82641 0.80572,-0.41729 0.80573,1.05791 0.80573,-0.70363 0.80573,3.12744 0.80574,-0.25762 0.80573,0.65226 0.80572,-2.54573 0.80573,2.61686 0.80573,0.37478 0.80573,-1.3229 0.80573,1.38689 0.80573,-2.20798 0.80573,0.98471 0.80573,1.14854 0.80574,2.82822 0.80572,-0.70509 0.80573,1.27528 0.80573,-4.22848 0.80573,2.03496 0.80573,0.11688 0.80573,-0.97361 0.80572,-0.57434 0.80573,0.12027 0.80573,-1.81115 0.80574,2.15043 0.80573,-2.58146 0.80573,0.2017 0.80572,1.92491 0.80573,-1.64211 0.80573,-0.99297 0.80574,-0.74263 0.80572,0.67033 0.80573,0.8576 0.80573,0.61115 0.80574,-4.3421 0.80573,0.13784 0.80573,0.65259 0.80572,0.46211 0.80573,0.67056 0.80573,-1.64187 0.80573,0.94894 0.80573,-2.05314 0.80573,0.76256 0.80573,-2.09087 0.80573,1.26249 0.80573,-0.19722 0.80573,0.0439 0.80573,1.17305 0.80573,-1.10958 0.80573,1.45142 0.80573,0.54901 0.80573,-1.05452 0.80572,1.07892 0.80574,0.5576 0.80573,-1.11681 0.80573,-0.48656 0.80573,1.59696 0.80573,-0.4315 0.80572,-0.66951 0.80573,-0.29889 0.80573,2.2881 1.61146,-5.93419 1.61147,3.00316 0.80573,-1.25664 0.80573,-1.43959 0.80573,-1.00802 0.80572,-0.27167 0.80573,-3.23531 0.80573,-0.71202 0.80573,0.41328 0.80573,0.26514 0.80574,-1.68079 0.80572,-0.90315 0.80573,2.03686 0.80573,-1.18517 0.80573,-3.87988 0.80573,0.57235 0.80573,2.8262 0.80572,-2.21948 0.80574,-0.89043 0.80573,1.70618 0.80573,-0.38401 0.80573,-0.76074 0.80573,-0.005 0.80573,-1.13766 0.80573,3.29764 0.80573,0.52176 0.80573,-0.64412 0.80572,1.84563 0.80573,-2.43476 0.80573,2.60139 0.80574,-0.21345 0.80573,-1.55951 0.80573,-0.33622 0.80572,-2.22475 0.80573,1.95278 0.80574,-0.78541 0.80572,1.50468 0.80573,-1.9601 0.80573,-0.53076 0.80573,0.52954 0.80574,2.22162 0.80573,-2.14774 0.80572,-0.26866 0.80573,-0.87548 0.80573,-1.0414 0.80573,0.40633 0.80573,0.53061 0.80573,-0.24384 0.80572,-0.10159 0.80573,-2.44238 0.80575,-0.36304 0.80572,-1.85534 0.80573,3.15211 0.80573,-2.79429 0.80573,-0.50201 0.80573,-1.31719 0.80573,0.0244 0.80573,0.6949 0.80572,-4.50976 0.80573,-2.10439 0.80574,-21.78749 0.66374,-32.50414"
       style="fill:none;stroke:#2ca02c;stroke-width:0.862992;stroke-linecap:square;stroke-linejoin:round;stroke-miterlimit:10;stroke-dasharray:none;stroke-opacity:1"
       id="path286"
       sodipodi:nodetypes="ccccccccccccccccccccccccccccccccccccccccccccccccccccccccccccccccccccccccccccccccccccccccccccccccccccccccccccccccccccccccccccccccccccccccccccccccccccccccccccccccccccccccccccccccccccccccccccccccccccccccccccccccccccccccccccccccccccccccccc" /><g
       id="g70"
       transform="matrix(0.57532783,0,0,0.57532783,8.9257467,141.992)"><g
         id="g72"
         clip-path="url(#clipPath76)"><path
           d="M 225.65647,38.016 V 304.128"
           style="fill:none;stroke:#b0b0b0;stroke-width:0.8;stroke-linecap:square;stroke-linejoin:round;stroke-miterlimit:10;stroke-dasharray:none;stroke-opacity:1"
           id="path78" /></g></g><path
       d="m 42.06463,281.93104 0.80573,1.37223 0.805729,-3.04911 0.80573,-1.39411 0.805729,-1.68706 0.80573,-1.29205 0.80573,-0.77095 0.80573,-0.48664 0.805729,-1.26809 0.80573,-0.49719 0.80573,-1.26482 0.805729,-0.73198 0.80573,0.17488 0.80573,-0.97374 0.805729,0.0921 1.61146,-1.82126 0.805729,-1.65659 0.80573,-1.28892 0.80573,-0.22522 0.80573,-0.55142 0.805729,0.42721 0.80573,-0.53146 0.80573,-0.94025 0.805729,-0.0946 0.80573,-2.68515 0.805729,0.6454 0.80573,-0.0108 0.80573,-2.14805 0.80573,-0.36414 0.80573,-2.18992 0.80573,0.84548 0.805729,-1.00495 0.80573,0.8483 0.805729,0.25776 0.805729,-1.43249 0.80573,1.11581 0.805729,-1.58 0.80573,-0.29827 0.805729,-1.48316 0.805729,-1.05032 0.80573,-1.57823 0.805735,-0.0497 0.805723,-0.71302 0.805735,0.87765 0.80573,-0.41836 0.805729,0.36799 0.805729,-1.97607 0.80573,-1.04044 0.805729,-0.10268 0.805729,0.42455 0.80573,-0.0912 0.805729,-1.68551 0.805729,1.50238 0.80573,1.10586 0.805729,-0.74143 0.80573,0.61723 0.805729,0.38982 0.805729,0.26099 0.80573,-0.31205 1.611464,0.0451 0.805729,-0.79192 0.80573,1.2494 0.805729,1.10832 1.611459,-1.43254 0.805729,1.43353 0.805729,-0.0356 0.80573,0.63188 0.805729,-2.40463 0.805729,-3.31163 0.805734,3.9313 0.80573,-1.44832 0.80573,0.19875 0.80572,-0.94585 0.80573,-2.20498 0.80573,1.04892 1.61146,-3.41335 0.80574,1.28894 0.80573,0.92151 0.80573,0.54581 0.80573,-0.96496 0.80572,-2.35785 0.80573,1.18766 0.80573,0.14873 0.80573,2.23594 0.80573,-0.19379 0.80573,-1.36944 0.80573,-0.21694 0.80573,-0.71444 0.80573,0.49283 0.80573,-1.91154 0.80573,0.37628 0.80573,0.0923 0.80573,0.0222 0.80573,-0.73991 0.80573,-0.33371 0.80573,1.33054 0.80573,0.35813 0.80573,-1.66963 0.80573,1.99504 0.80573,0.83492 0.80573,-2.19049 0.80573,-0.74926 0.80572,-1.18206 0.80573,1.37101 0.80573,-0.63483 0.80573,0.55392 0.80574,0.0512 1.61146,-2.55121 0.80573,-1.00875 0.80573,5.45759 0.80573,0.90421 0.80572,-0.29792 0.80573,1.52083 0.80573,-0.38359 0.80573,3.26731 0.80574,-0.89904 0.80573,1.02424 0.80572,-2.29838 0.80573,2.72715 0.80573,0.25418 0.80573,-1.21069 0.80573,1.74999 0.80573,-2.75098 0.80573,0.77727 0.80573,1.59504 0.80574,2.94501 0.80572,-0.84144 0.80573,1.31985 0.80573,-4.3676 0.80573,2.19705 0.80573,-0.15009 0.80573,-0.89481 0.80572,-0.18168 0.80573,-0.36824 0.80573,-1.60284 0.80574,2.37832 0.80573,-3.31129 0.80573,0.64212 0.80572,1.43328 0.80573,-1.0918 0.80573,-1.30078 0.80574,-0.75593 0.80572,0.46225 0.80573,1.00489 0.80573,0.44887 0.80574,-4.47552 1.61146,0.43248 0.80572,0.496 0.80573,0.83311 0.80573,-1.7535 0.80573,0.63849 0.80573,-1.87094 0.80573,0.88143 0.80573,-2.07014 0.80573,1.45097 0.80573,0.0486 0.80573,-0.37716 0.80573,1.37044 0.80573,-1.03077 0.80573,1.39315 0.80573,0.50019 0.80573,-0.8581 0.80572,1.3999 0.80574,0.88413 0.80573,-1.05167 0.80573,-0.65715 0.80573,2.04431 0.80573,-0.73297 0.80572,-0.48278 0.80573,-0.57641 0.80573,2.38409 0.80573,-2.84971 0.80573,-2.33889 0.80574,0.72509 0.80573,1.36805 0.80573,-0.9049 0.80573,-1.49767 0.80573,-1.7554 0.80572,-0.17668 0.80573,-3.27104 1.61146,-0.37187 0.80573,0.34336 0.80574,-1.86304 0.80572,-0.8654 0.80573,2.44045 0.80573,-0.8623 0.80573,-4.03448 0.80573,0.25228 0.80573,2.54578 0.80572,-2.066 0.80574,-0.64774 0.80573,1.91336 0.80573,-0.16619 0.80573,-1.35307 0.80573,0.71344 0.80573,-0.8392 0.80573,3.30126 0.80573,1.14846 0.80573,-0.75297 0.80572,1.3296 0.80573,-2.17174 0.80573,2.77167 0.80574,-0.49064 0.80573,-1.31981 0.80573,-0.19044 0.80572,-2.13771 0.80573,2.3056 0.80574,-1.36817 0.80572,0.92082 0.80573,-1.96712 1.61146,1.54396 0.80574,1.5776 0.80573,-1.79677 0.80572,0.52061 0.80573,-1.99238 0.80573,-1.45741 0.80573,0.90663 0.80573,0.65653 0.80573,-0.69726 0.80572,-0.2323 0.80573,-2.12972 0.80575,-0.0885 0.80572,-2.21007 0.80573,3.58308 0.80573,-3.66688 0.80573,-0.22641 0.80573,-0.78876 0.80573,-0.4499 0.80573,0.47098 0.80572,-4.82946 0.80573,-2.87758 0.80574,-2.09688 0.69423,-52.44183"
       style="fill:none;stroke:#8c564b;stroke-width:0.862992;stroke-linecap:square;stroke-linejoin:round;stroke-miterlimit:10;stroke-dasharray:none;stroke-opacity:1"
       id="path296"
       sodipodi:nodetypes="ccccccccccccccccccccccccccccccccccccccccccccccccccccccccccccccccccccccccccccccccccccccccccccccccccccccccccccccccccccccccccccccccccccccccccccccccccccccccccccccccccccccccccccccccccccccccccccccccccccccccccccccccccccccccccccccccccccccccc" /><path
       d="m 138.7522,163.86367 v -2.01365"
       style="fill:#000000;fill-opacity:1;fill-rule:nonzero;stroke:#000000;stroke-width:0.460262;stroke-linecap:butt;stroke-linejoin:round;stroke-miterlimit:10;stroke-dasharray:none;stroke-opacity:1"
       id="path82" /><path
       d="m 42.06463,281.67747 0.80573,1.27937 0.805729,-2.7018 0.80573,-1.31281 0.805729,-1.52351 0.80573,-1.07704 0.80573,-0.76013 0.80573,-0.46246 0.805729,-1.40882 0.80573,-0.79006 0.80573,-1.28794 0.805729,-0.64125 0.80573,0.23009 0.80573,-0.54015 0.805729,0.01 0.80573,-0.91034 0.80573,-1.01562 0.805729,-1.5939 0.80573,-1.34813 0.80573,-0.41974 0.80573,-0.54465 0.805729,0.21691 0.80573,-0.67169 0.80573,-0.83922 0.805729,-0.11496 0.80573,-2.70824 0.805729,0.67964 0.80573,0.0193 0.80573,-1.92148 0.80573,-0.38141 0.80573,-1.91578 0.80573,0.74035 0.805729,-1.25634 0.80573,0.64497 0.805729,0.47118 0.805729,-1.35237 0.80573,1.08311 0.805729,-1.2443 0.80573,-0.33363 0.805729,-1.45284 0.805729,-1.12738 0.80573,-1.52588 0.805735,-0.28007 0.805723,-0.76329 0.805735,0.7447 0.80573,-0.29883 0.805729,0.20271 1.611459,-2.83753 0.805729,-0.0913 0.805729,0.36281 0.80573,0.15854 0.805729,-2.03656 0.805729,1.64054 0.80573,1.15324 0.805729,-0.53882 0.80573,0.37291 0.805729,0.56332 0.805729,0.32653 0.80573,-0.29417 0.805735,0.17777 0.805729,0.0453 0.805729,-0.71383 0.80573,1.40616 0.805729,1.14775 0.805729,-1.11331 0.80573,-0.68843 0.805729,1.33785 0.805729,-0.15463 0.80573,0.72917 0.805729,-2.57453 0.805729,-3.45166 0.805734,4.13834 0.80573,-1.67496 0.80573,0.37696 0.80572,-1.01237 0.80573,-2.29766 0.80573,1.14321 0.80573,-1.60479 0.80573,-1.83044 0.80574,0.99691 0.80573,1.34936 0.80573,0.50461 0.80573,-1.30029 0.80572,-2.19743 0.80573,1.02573 0.80573,0.22355 0.80573,1.89172 0.80573,-0.11744 0.80573,-1.24028 0.80573,-0.16979 0.80573,-0.70466 0.80573,0.89182 0.80573,-1.74456 0.80573,0.16492 0.80573,0.38454 0.80573,-0.0441 0.80573,-0.70521 0.80573,-0.14586 0.80573,1.35222 0.80573,0.41103 0.80573,-1.79649 0.80573,2.14991 0.80573,1.0129 0.80573,-2.64008 0.80573,-0.57838 0.80572,-1.04055 0.80573,1.41454 0.80573,-0.83086 0.80573,0.47207 0.80574,-0.0566 0.80573,-1.44217 0.80573,-1.85689 0.80573,-0.76379 0.80573,5.58395 0.80573,1.23655 0.80572,-0.4549 0.80573,1.3565 0.80573,0.0984 0.80573,3.45335 0.80574,-1.14072 0.80573,1.24555 0.80572,-2.25372 0.80573,2.71858 0.80573,0.48355 0.80573,-1.23115 0.80573,2.06221 0.80573,-2.79226 0.80573,0.18364 0.80573,1.9124 0.80574,3.22373 0.80572,-0.81615 0.80573,1.33961 0.80573,-4.36655 0.80573,1.99033 0.80573,-0.4297 0.80573,-0.74655 1.61145,-0.79653 0.80573,-1.19585 0.80574,2.15217 0.80573,-3.59398 0.80573,0.78234 0.80572,1.50256 0.80573,-1.11839 0.80573,-1.60983 0.80574,-0.8451 0.80572,0.32586 0.80573,0.91329 0.80573,0.57115 0.80574,-4.39792 0.80573,0.3176 0.80573,0.19634 0.80572,0.58883 0.80573,1.09342 0.80573,-2.0174 0.80573,0.7651 0.80573,-2.21236 0.80573,1.07623 0.80573,-1.99291 0.80573,1.37858 0.80573,-0.37254 0.80573,-0.13037 0.80573,1.18511 0.80573,-0.7743 0.80573,0.96097 0.80573,0.62697 0.80573,-0.83241 1.61146,2.82443 0.80573,-1.50502 0.80573,-0.28491 0.80573,1.96234 0.80573,-0.72662 0.80572,-0.14319 0.80573,-0.82495 0.80573,2.15586 0.80573,-2.7279 0.80573,-2.03982 0.80574,0.26423 0.80573,1.52012 0.80573,-0.59356 0.80573,-1.57616 0.80573,-1.8924 0.80572,-0.44434 0.80573,-2.90998 1.61146,-0.34809 0.80573,0.04 0.80574,-2.08764 0.80572,-0.60667 0.80573,2.24908 0.80573,-0.74735 0.80573,-3.84263 0.80573,-0.3068 0.80573,2.53619 0.80572,-2.07766 0.80574,-0.60887 0.80573,1.89604 0.80573,-0.026 0.80573,-1.84402 0.80573,0.81826 0.80573,-0.62975 0.80573,3.44873 0.80573,1.1676 0.80573,-0.82721 0.80572,1.27417 0.80573,-2.30053 0.80573,2.88175 0.80574,-0.53156 0.80573,-1.43937 0.80573,-0.3662 0.80572,-1.88332 0.80573,2.11526 0.80574,-1.35451 0.80572,1.07926 0.80573,-1.86504 0.80573,0.59207 0.80573,0.73342 0.80574,1.36507 0.80573,-2.27354 0.80572,0.7681 0.80573,-2.40118 0.80573,-0.94425 1.61146,1.47401 0.80573,-0.64586 0.80572,-0.14633 0.80573,-2.0881 0.80575,-1.02349 0.80572,-1.90858 0.80573,3.48096 0.80573,-3.03863 0.80573,0.24127 0.80573,-0.86514 0.80573,-1.70732 0.80573,-0.32584 0.80572,-2.72426 0.80573,-3.41683 0.80574,-0.64965 0.69686,-53.22372"
       style="fill:none;stroke:#9467bd;stroke-width:0.862992;stroke-linecap:square;stroke-linejoin:round;stroke-miterlimit:10;stroke-dasharray:none;stroke-opacity:1"
       id="path306"
       sodipodi:nodetypes="cccccccccccccccccccccccccccccccccccccccccccccccccccccccccccccccccccccccccccccccccccccccccccccccccccccccccccccccccccccccccccccccccccccccccccccccccccccccccccccccccccccccccccccccccccccccccccccccccccccccccccccccccccccccccccccccccccccccccccc" /><g
       id="g88"
       transform="matrix(0.57532783,0,0,0.57532783,8.9257467,141.992)"><g
         id="g90"
         clip-path="url(#clipPath94)"><path
           d="M 281.67529,38.016 V 304.128"
           style="fill:none;stroke:#b0b0b0;stroke-width:0.8;stroke-linecap:square;stroke-linejoin:round;stroke-miterlimit:10;stroke-dasharray:none;stroke-opacity:1"
           id="path96" /></g></g><path
       d="m 170.98138,163.86367 v -2.01365"
       style="fill:#000000;fill-opacity:1;fill-rule:nonzero;stroke:#000000;stroke-width:0.460262;stroke-linecap:butt;stroke-linejoin:round;stroke-miterlimit:10;stroke-dasharray:none;stroke-opacity:1"
       id="path100" /><g
       id="g106"
       transform="matrix(0.57532783,0,0,0.57532783,8.9257467,141.992)"><g
         id="g108"
         clip-path="url(#clipPath112)"><path
           d="M 337.69412,38.016 V 304.128"
           style="fill:none;stroke:#b0b0b0;stroke-width:0.8;stroke-linecap:square;stroke-linejoin:round;stroke-miterlimit:10;stroke-dasharray:none;stroke-opacity:1"
           id="path114" /></g></g><path
       d="m 203.21057,163.86367 v -2.01365"
       style="fill:#000000;fill-opacity:1;fill-rule:nonzero;stroke:#000000;stroke-width:0.460262;stroke-linecap:butt;stroke-linejoin:round;stroke-miterlimit:10;stroke-dasharray:none;stroke-opacity:1"
       id="path118" /><g
       id="g124"
       transform="matrix(0.57532783,0,0,0.57532783,8.9257467,141.992)"><g
         id="g126"
         clip-path="url(#clipPath130)"><path
           d="M 393.71294,38.016 V 304.128"
           style="fill:none;stroke:#b0b0b0;stroke-width:0.8;stroke-linecap:square;stroke-linejoin:round;stroke-miterlimit:10;stroke-dasharray:none;stroke-opacity:1"
           id="path132" /></g></g><path
       d="m 235.43976,163.86367 v -2.01365"
       style="fill:#000000;fill-opacity:1;fill-rule:nonzero;stroke:#000000;stroke-width:0.460262;stroke-linecap:butt;stroke-linejoin:round;stroke-miterlimit:10;stroke-dasharray:none;stroke-opacity:1"
       id="path136" /><g
       id="g146"
       transform="matrix(0.57532783,0,0,0.57532783,8.9257467,141.992)"><g
         id="g148"
         clip-path="url(#clipPath152)"><path
           d="M 57.6,38.016 H 414.72"
           style="fill:none;stroke:#b0b0b0;stroke-width:0.8;stroke-linecap:square;stroke-linejoin:round;stroke-miterlimit:10;stroke-dasharray:none;stroke-opacity:1"
           id="path154" /></g></g><path
       d="M 42.06463,163.86367 H 40.050982"
       style="fill:#000000;fill-opacity:1;fill-rule:nonzero;stroke:#000000;stroke-width:0.460262;stroke-linecap:butt;stroke-linejoin:round;stroke-miterlimit:10;stroke-dasharray:none;stroke-opacity:1"
       id="path158" /><g
       id="g164"
       transform="matrix(0.57532783,0,0,0.57532783,8.9257467,141.992)"><g
         id="g166"
         clip-path="url(#clipPath170)"><path
           d="M 57.6,91.2384 H 414.72"
           style="fill:none;stroke:#b0b0b0;stroke-width:0.8;stroke-linecap:square;stroke-linejoin:round;stroke-miterlimit:10;stroke-dasharray:none;stroke-opacity:1"
           id="path172" /></g></g><path
       d="M 42.06463,194.48399 H 40.050982"
       style="fill:#000000;fill-opacity:1;fill-rule:nonzero;stroke:#000000;stroke-width:0.460262;stroke-linecap:butt;stroke-linejoin:round;stroke-miterlimit:10;stroke-dasharray:none;stroke-opacity:1"
       id="path176" /><g
       id="g182"
       transform="matrix(0.57532783,0,0,0.57532783,8.9257467,141.992)"><g
         id="g184"
         clip-path="url(#clipPath188)"><path
           d="M 57.6,144.4608 H 414.72"
           style="fill:none;stroke:#b0b0b0;stroke-width:0.8;stroke-linecap:square;stroke-linejoin:round;stroke-miterlimit:10;stroke-dasharray:none;stroke-opacity:1"
           id="path190" /></g></g><path
       d="M 42.06463,225.10432 H 40.050982"
       style="fill:#000000;fill-opacity:1;fill-rule:nonzero;stroke:#000000;stroke-width:0.460262;stroke-linecap:butt;stroke-linejoin:round;stroke-miterlimit:10;stroke-dasharray:none;stroke-opacity:1"
       id="path194" /><g
       id="g200"
       transform="matrix(0.57532783,0,0,0.57532783,8.9257467,141.992)"><g
         id="g202"
         clip-path="url(#clipPath206)"><path
           d="M 57.6,197.6832 H 414.72"
           style="fill:none;stroke:#b0b0b0;stroke-width:0.8;stroke-linecap:square;stroke-linejoin:round;stroke-miterlimit:10;stroke-dasharray:none;stroke-opacity:1"
           id="path208" /></g></g><path
       d="M 42.06463,255.72464 H 40.050982"
       style="fill:#000000;fill-opacity:1;fill-rule:nonzero;stroke:#000000;stroke-width:0.460262;stroke-linecap:butt;stroke-linejoin:round;stroke-miterlimit:10;stroke-dasharray:none;stroke-opacity:1"
       id="path212" /><g
       id="g218"
       transform="matrix(0.57532783,0,0,0.57532783,8.9257467,141.992)"><g
         id="g220"
         clip-path="url(#clipPath224)"><path
           d="M 57.6,250.9056 H 414.72"
           style="fill:none;stroke:#b0b0b0;stroke-width:0.8;stroke-linecap:square;stroke-linejoin:round;stroke-miterlimit:10;stroke-dasharray:none;stroke-opacity:1"
           id="path226" /></g></g><path
       d="M 42.06463,286.34498 H 40.050982"
       style="fill:#000000;fill-opacity:1;fill-rule:nonzero;stroke:#000000;stroke-width:0.460262;stroke-linecap:butt;stroke-linejoin:round;stroke-miterlimit:10;stroke-dasharray:none;stroke-opacity:1"
       id="path230" /><g
       id="g236"
       transform="matrix(0.57532783,0,0,0.57532783,8.9257467,141.992)"><g
         id="g238"
         clip-path="url(#clipPath242)"><path
           d="M 57.6,304.128 H 414.72"
           style="fill:none;stroke:#b0b0b0;stroke-width:0.8;stroke-linecap:square;stroke-linejoin:round;stroke-miterlimit:10;stroke-dasharray:none;stroke-opacity:1"
           id="path244" /></g></g><path
       d="M 42.06463,316.9653 H 40.050982"
       style="fill:#000000;fill-opacity:1;fill-rule:nonzero;stroke:#000000;stroke-width:0.460262;stroke-linecap:butt;stroke-linejoin:round;stroke-miterlimit:10;stroke-dasharray:none;stroke-opacity:1"
       id="path248" /><path
       d="M 42.06463,163.86367 V 316.9653"
       style="fill:none;stroke:#000000;stroke-width:0.460262;stroke-linecap:square;stroke-linejoin:miter;stroke-miterlimit:10;stroke-dasharray:none;stroke-opacity:1"
       id="path320" /><path
       d="M 247.5257,163.86367 V 316.9653"
       style="fill:none;stroke:#000000;stroke-width:0.460262;stroke-linecap:square;stroke-linejoin:miter;stroke-miterlimit:10;stroke-dasharray:none;stroke-opacity:1"
       id="path322" /><path
       d="M 42.06463,163.86367 H 247.5257"
       style="fill:none;stroke:#000000;stroke-width:0.460262;stroke-linecap:square;stroke-linejoin:miter;stroke-miterlimit:10;stroke-dasharray:none;stroke-opacity:1"
       id="path324" /><path
       d="M 42.06463,316.9653 H 247.5257"
       style="fill:none;stroke:#000000;stroke-width:0.460262;stroke-linecap:square;stroke-linejoin:miter;stroke-miterlimit:10;stroke-dasharray:none;stroke-opacity:1"
       id="path326" /><path
       d="M 60.055888,215.05531 H 71.562429"
       style="fill:none;stroke:#1f77b4;stroke-width:0.862992;stroke-linecap:square;stroke-linejoin:round;stroke-miterlimit:10;stroke-dasharray:none;stroke-opacity:1"
       id="path336" /><path
       d="M 60.055888,206.61417 H 71.562429"
       style="fill:none;stroke:#ff7f0e;stroke-width:0.862992;stroke-linecap:square;stroke-linejoin:round;stroke-miterlimit:10;stroke-dasharray:none;stroke-opacity:1"
       id="path342" /><path
       d="M 60.055888,198.17303 H 71.562429"
       style="fill:none;stroke:#2ca02c;stroke-width:0.862992;stroke-linecap:square;stroke-linejoin:round;stroke-miterlimit:10;stroke-dasharray:none;stroke-opacity:1"
       id="path348" /><path
       d="M 60.055888,189.7319 H 71.562429"
       style="fill:none;stroke:#8c564b;stroke-width:0.862992;stroke-linecap:square;stroke-linejoin:round;stroke-miterlimit:10;stroke-dasharray:none;stroke-opacity:1"
       id="path354" /><path
       d="M 60.055888,181.29076 H 71.562429"
       style="fill:none;stroke:#9467bd;stroke-width:0.862992;stroke-linecap:square;stroke-linejoin:round;stroke-miterlimit:10;stroke-dasharray:none;stroke-opacity:1"
       id="path360" /><path
       d="M 60.055888,172.84962 H 71.562429"
       style="fill:none;stroke:#d62728;stroke-width:0.862992;stroke-linecap:square;stroke-linejoin:round;stroke-miterlimit:10;stroke-dasharray:none;stroke-opacity:1"
       id="path366" /></g><g
     inkscape:groupmode="layer"
     id="layer1"
     inkscape:label="text"
     style="display:inline"
     transform="translate(-28.023958,-17.206424)"><text
       style="font-variant:normal;font-weight:normal;font-size:7.67104px;font-family:'DejaVu Sans';-inkscape-font-specification:DejaVuSans;writing-mode:lr-tb;fill:#000000;fill-opacity:1;fill-rule:nonzero;stroke:none;stroke-width:0.767104"
       id="text32"
       x="53.647022"
       y="253.51004"><tspan
         x="53.647022"
         y="253.51004"
         id="tspan30"
         style="stroke-width:0.767104">0</tspan></text><text
       style="font-variant:normal;font-weight:normal;font-size:7.67104px;font-family:'DejaVu Sans';-inkscape-font-specification:DejaVuSans;writing-mode:lr-tb;fill:#000000;fill-opacity:1;fill-rule:nonzero;stroke:none;stroke-width:0.767104"
       id="text50"
       x="96.619278"
       y="253.51004"><tspan
         x="96.619278"
         y="253.51004"
         id="tspan48"
         style="stroke-width:0.767104">1</tspan></text><text
       style="font-variant:normal;font-weight:normal;font-size:7.67104px;font-family:'DejaVu Sans';-inkscape-font-specification:DejaVuSans;writing-mode:lr-tb;fill:#000000;fill-opacity:1;fill-rule:nonzero;stroke:none;stroke-width:0.767104"
       id="text68"
       x="139.59152"
       y="253.51004"><tspan
         x="139.59152"
         y="253.51004"
         id="tspan66"
         style="stroke-width:0.767104">2</tspan></text><text
       style="font-variant:normal;font-weight:normal;font-size:7.67104px;font-family:'DejaVu Sans';-inkscape-font-specification:DejaVuSans;writing-mode:lr-tb;fill:#000000;fill-opacity:1;fill-rule:nonzero;stroke:none;stroke-width:0.767104"
       id="text86"
       x="182.56377"
       y="253.51004"><tspan
         x="182.56377"
         y="253.51004"
         id="tspan84"
         style="stroke-width:0.767104">3</tspan></text><text
       style="font-variant:normal;font-weight:normal;font-size:7.67104px;font-family:'DejaVu Sans';-inkscape-font-specification:DejaVuSans;writing-mode:lr-tb;fill:#000000;fill-opacity:1;fill-rule:nonzero;stroke:none;stroke-width:0.767104"
       id="text104"
       x="225.53601"
       y="253.51004"><tspan
         x="225.53601"
         y="253.51004"
         id="tspan102"
         style="stroke-width:0.767104">4</tspan></text><text
       style="font-variant:normal;font-weight:normal;font-size:7.67104px;font-family:'DejaVu Sans';-inkscape-font-specification:DejaVuSans;writing-mode:lr-tb;fill:#000000;fill-opacity:1;fill-rule:nonzero;stroke:none;stroke-width:0.767104"
       id="text122"
       x="268.50827"
       y="253.51004"><tspan
         x="268.50827"
         y="253.51004"
         id="tspan120"
         style="stroke-width:0.767104">5</tspan></text><text
       style="font-variant:normal;font-weight:normal;font-size:7.67104px;font-family:'DejaVu Sans';-inkscape-font-specification:DejaVuSans;writing-mode:lr-tb;fill:#000000;fill-opacity:1;fill-rule:nonzero;stroke:none;stroke-width:0.767104"
       id="text140"
       x="311.48053"
       y="253.51004"><tspan
         x="311.48053"
         y="253.51004"
         id="tspan138"
         style="stroke-width:0.767104">6</tspan></text><text
       style="font-variant:normal;font-weight:normal;font-size:7.67104px;font-family:'DejaVu Sans';-inkscape-font-specification:DejaVuSans;writing-mode:lr-tb;fill:#000000;fill-opacity:1;fill-rule:nonzero;stroke:none;stroke-width:0.767104"
       id="text144"
       x="146.63246"
       y="263.9978"><tspan
         x="146.63246 152.57751 157.2952 162.15863 166.85332 174.32489 176.45744 180.67653 183.11592 187.98701 190.11957 194.11618 197.12323 201.82558 206.68901 210.9081 215.62578 218.06516 220.6503 223.08968 229.70979 234.5809"
         y="263.9978"
         sodipodi:role="line"
         id="tspan142"
         style="stroke-width:0.767104">Genomic distance / Mbp</tspan></text><text
       style="font-variant:normal;font-weight:normal;font-size:7.67104px;font-family:'DejaVu Sans';-inkscape-font-specification:DejaVuSans;writing-mode:lr-tb;fill:#000000;fill-opacity:1;fill-rule:nonzero;stroke:none;stroke-width:0.767104"
       id="text162"
       x="38.514698"
       y="245.22772"><tspan
         x="38.514698 43.393478 45.83287"
         y="245.22772"
         sodipodi:role="line"
         id="tspan160"
         style="stroke-width:0.767104">0.0</tspan></text><text
       style="font-variant:normal;font-weight:normal;font-size:7.67104px;font-family:'DejaVu Sans';-inkscape-font-specification:DejaVuSans;writing-mode:lr-tb;fill:#000000;fill-opacity:1;fill-rule:nonzero;stroke:none;stroke-width:0.767104"
       id="text180"
       x="38.514698"
       y="204.40062"><tspan
         x="38.514698 43.393478 45.83287"
         y="204.40062"
         sodipodi:role="line"
         id="tspan178"
         style="stroke-width:0.767104">0.2</tspan></text><text
       style="font-variant:normal;font-weight:normal;font-size:7.67104px;font-family:'DejaVu Sans';-inkscape-font-specification:DejaVuSans;writing-mode:lr-tb;fill:#000000;fill-opacity:1;fill-rule:nonzero;stroke:none;stroke-width:0.767104"
       id="text198"
       x="38.514698"
       y="163.57352"><tspan
         x="38.514698 43.393478 45.83287"
         y="163.57352"
         sodipodi:role="line"
         id="tspan196"
         style="stroke-width:0.767104">0.4</tspan></text><text
       style="font-variant:normal;font-weight:normal;font-size:7.67104px;font-family:'DejaVu Sans';-inkscape-font-specification:DejaVuSans;writing-mode:lr-tb;fill:#000000;fill-opacity:1;fill-rule:nonzero;stroke:none;stroke-width:0.767104"
       id="text216"
       x="38.514698"
       y="122.74624"><tspan
         x="38.514698 43.393478 45.83287"
         y="122.74624"
         sodipodi:role="line"
         id="tspan214"
         style="stroke-width:0.767104">0.6</tspan></text><text
       style="font-variant:normal;font-weight:normal;font-size:7.67104px;font-family:'DejaVu Sans';-inkscape-font-specification:DejaVuSans;writing-mode:lr-tb;fill:#000000;fill-opacity:1;fill-rule:nonzero;stroke:none;stroke-width:0.767104"
       id="text234"
       x="38.514698"
       y="81.919121"><tspan
         x="38.514698 43.393478 45.83287"
         y="81.919121"
         sodipodi:role="line"
         id="tspan232"
         style="stroke-width:0.767104">0.8</tspan></text><text
       style="font-variant:normal;font-weight:normal;font-size:7.67104px;font-family:'DejaVu Sans';-inkscape-font-specification:DejaVuSans;writing-mode:lr-tb;fill:#000000;fill-opacity:1;fill-rule:nonzero;stroke:none;stroke-width:0.767104"
       id="text252"
       x="38.514698"
       y="41.092022"><tspan
         x="38.514698 43.393478 45.83287"
         y="41.092022"
         sodipodi:role="line"
         id="tspan250"
         style="stroke-width:0.767104">1.0</tspan></text><text
       transform="rotate(-90)"
       style="font-variant:normal;font-weight:normal;font-size:7.67104px;font-family:'DejaVu Sans';-inkscape-font-specification:DejaVuSans;writing-mode:lr-tb;fill:#000000;fill-opacity:1;fill-rule:nonzero;stroke:none;stroke-width:0.767104"
       id="text256"
       x="-177.30806"
       y="33.85215"><tspan
         x="-177.30806 -172.68243 -167.96474 -163.26239 -160.1096 -156.11301 -151.4183 -146.55487 -144.11549 -139.89642 -135.20174 -132.04893 -128.89613 -124.17828 -122.04564 -117.34338 -114.3363 -112.20379 -107.50906"
         y="33.85215"
         sodipodi:role="line"
         id="tspan254"
         style="stroke-width:0.767104">Pearson correlation</tspan></text><text
       style="font-variant:normal;font-weight:normal;font-size:9.20524px;font-family:'DejaVu Sans';-inkscape-font-specification:DejaVuSans;writing-mode:lr-tb;fill:#000000;fill-opacity:1;fill-rule:nonzero;stroke:none;stroke-width:0.767104"
       id="text330"
       x="98.328896"
       y="23.259296"><tspan
         x="98.328896 103.87966 109.54089 115.1837 118.96706 123.76299 129.39659 135.23273 138.16 143.22287 148.85648 152.63985 156.4232 162.08441 164.64349 170.2863 173.89474 176.45381 182.08743 187.92354 190.85081 196.30032 201.09625 204.02351 206.95079 212.79611 218.45735 224.29346 229.92708 238.89297 241.45204 246.51492 249.44221 255.28754 257.84659 262.64249 266.25098 271.89377 277.72989 282.79282"
         y="23.259296"
         sodipodi:role="line"
         id="tspan328"
         style="stroke-width:0.767104">Pearson correlation vs. genomic distance</tspan></text><text
       style="font-variant:normal;font-weight:normal;font-size:9.20524px;font-family:'DejaVu Sans';-inkscape-font-specification:DejaVuSans;writing-mode:lr-tb;fill:#000000;fill-opacity:1;fill-rule:nonzero;stroke:none;stroke-width:0.767104"
       id="text334"
       x="63.991703"
       y="33.576801"><tspan
         x="63.991703 71.125771 79.069885 84.924423 90.778961 96.633507 102.48804 108.34257 111.26984 114.19711 120.05164 122.97893 128.83345 131.76073 137.61525 140.54253 146.39706 149.32433 155.17886 158.10612 163.96066 169.81519 172.74248 178.597 184.45154 187.37881 193.23334 199.08788 202.01514 207.86967 213.72421 216.65149 222.50603 228.36057 231.28781 237.14236 242.99689 245.92418 251.7787 257.63324 260.56049 266.41507 272.26956 275.19687 280.83047 286.66656 289.59387 295.63251 301.48703 307.34158 313.19611 316.12335 319.05066"
         y="33.576801"
         sodipodi:role="line"
         id="tspan332"
         style="stroke-width:0.767104">GM12878, 1,2,4,7,9,11,13,14,16,17,18,20,22 on K562, 3</tspan></text><text
       style="font-variant:normal;font-weight:normal;font-size:7.67102px;font-family:'DejaVu Sans';-inkscape-font-specification:DejaVuSans;writing-mode:lr-tb;fill:#000000;fill-opacity:1;fill-rule:nonzero;stroke:none;stroke-width:0.767102"
       id="text340"
       x="101.55339"
       y="176.74446"><tspan
         x="101.55339 106.43217 111.31097 113.75034 118.46801 123.33913 125.77852 128.36366 130.80307 136.05005 141.66525 147.01964 149.60475 152.04416 156.92293 159.36237 164.24118 169.11995"
         y="176.74446"
         sodipodi:role="line"
         id="tspan338"
         style="stroke-width:0.767102">20 ep / AUC: 0.455</tspan></text><text
       style="font-variant:normal;font-weight:normal;font-size:7.67102px;font-family:'DejaVu Sans';-inkscape-font-specification:DejaVuSans;writing-mode:lr-tb;fill:#000000;fill-opacity:1;fill-rule:nonzero;stroke:none;stroke-width:0.767102"
       id="text346"
       x="101.55339"
       y="187.99931"><tspan
         x="101.55339 106.43217 111.31097 113.75034 118.46801 123.33913 125.77852 128.36366 130.80307 136.05005 141.66525 147.01964 149.60475 152.04416 156.92293 159.36237 164.24118 169.11995"
         y="187.99931"
         sodipodi:role="line"
         id="tspan344"
         style="stroke-width:0.767102">40 ep / AUC: 0.495</tspan></text><text
       style="font-variant:normal;font-weight:normal;font-size:7.67102px;font-family:'DejaVu Sans';-inkscape-font-specification:DejaVuSans;writing-mode:lr-tb;fill:#000000;fill-opacity:1;fill-rule:nonzero;stroke:none;stroke-width:0.767102"
       id="text352"
       x="101.55339"
       y="199.25417"><tspan
         x="101.55339 106.43217 111.31097 113.75034 118.46801 123.33913 125.77852 128.36366 130.80307 136.05005 141.66525 147.01964 149.60475 152.04416 156.92293 159.36237 164.24118 169.11995"
         y="199.25417"
         sodipodi:role="line"
         id="tspan350"
         style="stroke-width:0.767102">60 ep / AUC: 0.502</tspan></text><text
       style="font-variant:normal;font-weight:normal;font-size:7.67102px;font-family:'DejaVu Sans';-inkscape-font-specification:DejaVuSans;writing-mode:lr-tb;fill:#000000;fill-opacity:1;fill-rule:nonzero;stroke:none;stroke-width:0.767102"
       id="text358"
       x="101.55339"
       y="210.50902"><tspan
         x="101.55339 106.43217 111.31097 113.75034 118.46801 123.33913 125.77852 128.36366 130.80307 136.05005 141.66525 147.01964 149.60475 152.04416 156.92293 159.36237 164.24118 169.11995"
         y="210.50902"
         sodipodi:role="line"
         id="tspan356"
         style="stroke-width:0.767102">80 ep / AUC: 0.503</tspan></text><text
       style="font-variant:normal;font-weight:normal;font-size:7.67102px;font-family:'DejaVu Sans';-inkscape-font-specification:DejaVuSans;writing-mode:lr-tb;fill:#000000;fill-opacity:1;fill-rule:nonzero;stroke:none;stroke-width:0.767102"
       id="text364"
       x="101.55339"
       y="221.76387"><tspan
         x="101.55339 106.43217 111.31097 116.18973 118.6291 123.34681 128.21791 130.65732 133.24245 135.68182 140.92883 146.54402 151.89842 154.48355 156.92293 161.80179 164.24118 169.11995 173.99873"
         y="221.76387"
         sodipodi:role="line"
         id="tspan362"
         style="stroke-width:0.767102">100 ep / AUC: 0.506</tspan></text><text
       style="font-variant:normal;font-weight:normal;font-size:7.67102px;font-family:'DejaVu Sans';-inkscape-font-specification:DejaVuSans;writing-mode:lr-tb;fill:#000000;fill-opacity:1;fill-rule:nonzero;stroke:none;stroke-width:0.767102"
       id="text370"
       x="101.55339"
       y="233.01872"><tspan
         x="101.55339 104.56044 107.71323 112.41558 117.27901 121.27562 123.97581 128.69353 131.84631 134.28569 140.23076 146.85086 151.72964 156.60841 161.48726 166.36603 171.24484 173.68422 176.26935 178.70872 183.95573 189.57092 194.92532 197.51045 199.94984 204.82864 207.26802 212.14679 217.02557"
         y="233.01872"
         sodipodi:role="line"
         id="tspan368"
         style="stroke-width:0.767102">transfer GM12878 / AUC: 0.471</tspan></text></g></svg>
