<?xml version="1.0" encoding="UTF-8" standalone="no"?>
<svg
   xmlns:dc="http://purl.org/dc/elements/1.1/"
   xmlns:cc="http://creativecommons.org/ns#"
   xmlns:rdf="http://www.w3.org/1999/02/22-rdf-syntax-ns#"
   xmlns:svg="http://www.w3.org/2000/svg"
   xmlns="http://www.w3.org/2000/svg"
   xmlns:sodipodi="http://sodipodi.sourceforge.net/DTD/sodipodi-0.dtd"
   xmlns:inkscape="http://www.inkscape.org/namespaces/inkscape"
   version="1.1"
   id="svg2"
   xml:space="preserve"
   width="80mm"
   height="65.300003mm"
   viewBox="0 0 302.3622 246.80316"
   sodipodi:docname="pearson_chr19.svg"
   inkscape:version="1.0.2 (1.0.2+r75+1)"><metadata
     id="metadata8"><rdf:RDF><cc:Work
         rdf:about=""><dc:format>image/svg+xml</dc:format><dc:type
           rdf:resource="http://purl.org/dc/dcmitype/StillImage" /><dc:title></dc:title></cc:Work></rdf:RDF></metadata><defs
     id="defs6"><clipPath
       clipPathUnits="userSpaceOnUse"
       id="clipPath22"><path
         d="M 57.6,38.016 H 414.72 V 304.128 H 57.6 Z"
         id="path20" /></clipPath><clipPath
       clipPathUnits="userSpaceOnUse"
       id="clipPath40"><path
         d="M 57.6,38.016 H 414.72 V 304.128 H 57.6 Z"
         id="path38" /></clipPath><clipPath
       clipPathUnits="userSpaceOnUse"
       id="clipPath58"><path
         d="M 57.6,38.016 H 414.72 V 304.128 H 57.6 Z"
         id="path56" /></clipPath><clipPath
       clipPathUnits="userSpaceOnUse"
       id="clipPath76"><path
         d="M 57.6,38.016 H 414.72 V 304.128 H 57.6 Z"
         id="path74" /></clipPath><clipPath
       clipPathUnits="userSpaceOnUse"
       id="clipPath94"><path
         d="M 57.6,38.016 H 414.72 V 304.128 H 57.6 Z"
         id="path92" /></clipPath><clipPath
       clipPathUnits="userSpaceOnUse"
       id="clipPath112"><path
         d="M 57.6,38.016 H 414.72 V 304.128 H 57.6 Z"
         id="path110" /></clipPath><clipPath
       clipPathUnits="userSpaceOnUse"
       id="clipPath130"><path
         d="M 57.6,38.016 H 414.72 V 304.128 H 57.6 Z"
         id="path128" /></clipPath><clipPath
       clipPathUnits="userSpaceOnUse"
       id="clipPath152"><path
         d="M 57.6,38.016 H 414.72 V 304.128 H 57.6 Z"
         id="path150" /></clipPath><clipPath
       clipPathUnits="userSpaceOnUse"
       id="clipPath170"><path
         d="M 57.6,38.016 H 414.72 V 304.128 H 57.6 Z"
         id="path168" /></clipPath><clipPath
       clipPathUnits="userSpaceOnUse"
       id="clipPath188"><path
         d="M 57.6,38.016 H 414.72 V 304.128 H 57.6 Z"
         id="path186" /></clipPath><clipPath
       clipPathUnits="userSpaceOnUse"
       id="clipPath206"><path
         d="M 57.6,38.016 H 414.72 V 304.128 H 57.6 Z"
         id="path204" /></clipPath><clipPath
       clipPathUnits="userSpaceOnUse"
       id="clipPath224"><path
         d="M 57.6,38.016 H 414.72 V 304.128 H 57.6 Z"
         id="path222" /></clipPath><clipPath
       clipPathUnits="userSpaceOnUse"
       id="clipPath242"><path
         d="M 57.6,38.016 H 414.72 V 304.128 H 57.6 Z"
         id="path240" /></clipPath><clipPath
       clipPathUnits="userSpaceOnUse"
       id="clipPath264"><path
         d="M 57.6,38.016 H 414.72 V 304.128 H 57.6 Z"
         id="path262" /></clipPath><clipPath
       clipPathUnits="userSpaceOnUse"
       id="clipPath274"><path
         d="M 57.6,38.016 H 414.72 V 304.128 H 57.6 Z"
         id="path272" /></clipPath><clipPath
       clipPathUnits="userSpaceOnUse"
       id="clipPath284"><path
         d="M 57.6,38.016 H 414.72 V 304.128 H 57.6 Z"
         id="path282" /></clipPath><clipPath
       clipPathUnits="userSpaceOnUse"
       id="clipPath294"><path
         d="M 57.6,38.016 H 414.72 V 304.128 H 57.6 Z"
         id="path292" /></clipPath><clipPath
       clipPathUnits="userSpaceOnUse"
       id="clipPath304"><path
         d="M 57.6,38.016 H 414.72 V 304.128 H 57.6 Z"
         id="path302" /></clipPath><clipPath
       clipPathUnits="userSpaceOnUse"
       id="clipPath314"><path
         d="M 57.6,38.016 H 414.72 V 304.128 H 57.6 Z"
         id="path312" /></clipPath></defs><sodipodi:namedview
     pagecolor="#ffffff"
     bordercolor="#666666"
     borderopacity="1"
     objecttolerance="10"
     gridtolerance="10"
     guidetolerance="10"
     inkscape:pageopacity="0"
     inkscape:pageshadow="2"
     inkscape:window-width="1920"
     inkscape:window-height="1020"
     id="namedview4"
     showgrid="false"
     fit-margin-top="0"
     fit-margin-left="0"
     fit-margin-right="0"
     fit-margin-bottom="0"
     units="mm"
     inkscape:zoom="2.6301672"
     inkscape:cx="132.57178"
     inkscape:cy="165.41679"
     inkscape:window-x="0"
     inkscape:window-y="0"
     inkscape:window-maximized="1"
     inkscape:current-layer="layer1" /><g
     id="g10"
     inkscape:groupmode="layer"
     inkscape:label="pearson_chr19"
     transform="matrix(1.3333333,0,0,-1.3333333,-28.023958,443.59358)"><path
       d="M 59.819092,172.87268 H 71.323861"
       style="fill:none;stroke:#d62728;stroke-width:0.862858;stroke-linecap:square;stroke-linejoin:round;stroke-miterlimit:10;stroke-dasharray:none;stroke-opacity:1"
       id="path366" /><g
       id="g16"
       transform="matrix(0.57523859,0,0,0.57523859,8.9276224,141.97141)"><g
         id="g18"
         clip-path="url(#clipPath22)"><path
           d="M 57.6,38.016 V 304.128"
           style="fill:none;stroke:#b0b0b0;stroke-width:0.8;stroke-linecap:square;stroke-linejoin:round;stroke-miterlimit:10;stroke-dasharray:none;stroke-opacity:1"
           id="path24" /></g></g><path
       d="m 42.061365,163.83968 v -2.01334"
       style="fill:#000000;fill-opacity:1;fill-rule:nonzero;stroke:#000000;stroke-width:0.46019;stroke-linecap:butt;stroke-linejoin:round;stroke-miterlimit:10;stroke-dasharray:none;stroke-opacity:1"
       id="path28" /><g
       id="g34"
       transform="matrix(0.57523859,0,0,0.57523859,8.9276224,141.97141)"><g
         id="g36"
         clip-path="url(#clipPath40)"><path
           d="M 113.61882,38.016 V 304.128"
           style="fill:none;stroke:#b0b0b0;stroke-width:0.8;stroke-linecap:square;stroke-linejoin:round;stroke-miterlimit:10;stroke-dasharray:none;stroke-opacity:1"
           id="path42" /></g></g><path
       d="m 74.285551,163.83968 v -2.01334"
       style="fill:#000000;fill-opacity:1;fill-rule:nonzero;stroke:#000000;stroke-width:0.46019;stroke-linecap:butt;stroke-linejoin:round;stroke-miterlimit:10;stroke-dasharray:none;stroke-opacity:1"
       id="path46" /><g
       id="g52"
       transform="matrix(0.57523859,0,0,0.57523859,8.9276224,141.97141)"><g
         id="g54"
         clip-path="url(#clipPath58)"><path
           d="M 169.63765,38.016 V 304.128"
           style="fill:none;stroke:#b0b0b0;stroke-width:0.8;stroke-linecap:square;stroke-linejoin:round;stroke-miterlimit:10;stroke-dasharray:none;stroke-opacity:1"
           id="path60" /></g></g><path
       d="m 106.50974,163.83968 v -2.01334"
       style="fill:#000000;fill-opacity:1;fill-rule:nonzero;stroke:#000000;stroke-width:0.46019;stroke-linecap:butt;stroke-linejoin:round;stroke-miterlimit:10;stroke-dasharray:none;stroke-opacity:1"
       id="path64" /><g
       id="g70"
       transform="matrix(0.57523859,0,0,0.57523859,8.9276224,141.97141)"><g
         id="g72"
         clip-path="url(#clipPath76)"><path
           d="M 225.65647,38.016 V 304.128"
           style="fill:none;stroke:#b0b0b0;stroke-width:0.8;stroke-linecap:square;stroke-linejoin:round;stroke-miterlimit:10;stroke-dasharray:none;stroke-opacity:1"
           id="path78" /></g></g><path
       d="m 138.73393,163.83968 v -2.01334"
       style="fill:#000000;fill-opacity:1;fill-rule:nonzero;stroke:#000000;stroke-width:0.46019;stroke-linecap:butt;stroke-linejoin:round;stroke-miterlimit:10;stroke-dasharray:none;stroke-opacity:1"
       id="path82" /><g
       id="g88"
       transform="matrix(0.57523859,0,0,0.57523859,8.9276224,141.97141)"><g
         id="g90"
         clip-path="url(#clipPath94)"><path
           d="M 281.67529,38.016 V 304.128"
           style="fill:none;stroke:#b0b0b0;stroke-width:0.8;stroke-linecap:square;stroke-linejoin:round;stroke-miterlimit:10;stroke-dasharray:none;stroke-opacity:1"
           id="path96" /></g></g><path
       d="m 170.95812,163.83968 v -2.01334"
       style="fill:#000000;fill-opacity:1;fill-rule:nonzero;stroke:#000000;stroke-width:0.46019;stroke-linecap:butt;stroke-linejoin:round;stroke-miterlimit:10;stroke-dasharray:none;stroke-opacity:1"
       id="path100" /><g
       id="g106"
       transform="matrix(0.57523859,0,0,0.57523859,8.9276224,141.97141)"><g
         id="g108"
         clip-path="url(#clipPath112)"><path
           d="M 337.69412,38.016 V 304.128"
           style="fill:none;stroke:#b0b0b0;stroke-width:0.8;stroke-linecap:square;stroke-linejoin:round;stroke-miterlimit:10;stroke-dasharray:none;stroke-opacity:1"
           id="path114" /></g></g><path
       d="m 203.18231,163.83968 v -2.01334"
       style="fill:#000000;fill-opacity:1;fill-rule:nonzero;stroke:#000000;stroke-width:0.46019;stroke-linecap:butt;stroke-linejoin:round;stroke-miterlimit:10;stroke-dasharray:none;stroke-opacity:1"
       id="path118" /><g
       id="g124"
       transform="matrix(0.57523859,0,0,0.57523859,8.9276224,141.97141)"><g
         id="g126"
         clip-path="url(#clipPath130)"><path
           d="M 393.71294,38.016 V 304.128"
           style="fill:none;stroke:#b0b0b0;stroke-width:0.8;stroke-linecap:square;stroke-linejoin:round;stroke-miterlimit:10;stroke-dasharray:none;stroke-opacity:1"
           id="path132" /></g></g><path
       d="m 235.40649,163.83968 v -2.01334"
       style="fill:#000000;fill-opacity:1;fill-rule:nonzero;stroke:#000000;stroke-width:0.46019;stroke-linecap:butt;stroke-linejoin:round;stroke-miterlimit:10;stroke-dasharray:none;stroke-opacity:1"
       id="path136" /><g
       id="g146"
       transform="matrix(0.57523859,0,0,0.57523859,8.9276224,141.97141)"><g
         id="g148"
         clip-path="url(#clipPath152)"><path
           d="M 57.6,38.016 H 414.72"
           style="fill:none;stroke:#b0b0b0;stroke-width:0.8;stroke-linecap:square;stroke-linejoin:round;stroke-miterlimit:10;stroke-dasharray:none;stroke-opacity:1"
           id="path154" /></g></g><path
       d="M 42.061365,163.83968 H 40.04803"
       style="fill:#000000;fill-opacity:1;fill-rule:nonzero;stroke:#000000;stroke-width:0.46019;stroke-linecap:butt;stroke-linejoin:round;stroke-miterlimit:10;stroke-dasharray:none;stroke-opacity:1"
       id="path158" /><g
       id="g164"
       transform="matrix(0.57523859,0,0,0.57523859,8.9276224,141.97141)"><g
         id="g166"
         clip-path="url(#clipPath170)"><path
           d="M 57.6,91.2384 H 414.72"
           style="fill:none;stroke:#b0b0b0;stroke-width:0.8;stroke-linecap:square;stroke-linejoin:round;stroke-miterlimit:10;stroke-dasharray:none;stroke-opacity:1"
           id="path172" /></g></g><path
       d="M 42.061365,194.45526 H 40.04803"
       style="fill:#000000;fill-opacity:1;fill-rule:nonzero;stroke:#000000;stroke-width:0.46019;stroke-linecap:butt;stroke-linejoin:round;stroke-miterlimit:10;stroke-dasharray:none;stroke-opacity:1"
       id="path176" /><g
       id="g182"
       transform="matrix(0.57523859,0,0,0.57523859,8.9276224,141.97141)"><g
         id="g184"
         clip-path="url(#clipPath188)"><path
           d="M 57.6,144.4608 H 414.72"
           style="fill:none;stroke:#b0b0b0;stroke-width:0.8;stroke-linecap:square;stroke-linejoin:round;stroke-miterlimit:10;stroke-dasharray:none;stroke-opacity:1"
           id="path190" /></g></g><path
       d="M 42.061365,225.07084 H 40.04803"
       style="fill:#000000;fill-opacity:1;fill-rule:nonzero;stroke:#000000;stroke-width:0.46019;stroke-linecap:butt;stroke-linejoin:round;stroke-miterlimit:10;stroke-dasharray:none;stroke-opacity:1"
       id="path194" /><g
       id="g200"
       transform="matrix(0.57523859,0,0,0.57523859,8.9276224,141.97141)"><g
         id="g202"
         clip-path="url(#clipPath206)"><path
           d="M 57.6,197.6832 H 414.72"
           style="fill:none;stroke:#b0b0b0;stroke-width:0.8;stroke-linecap:square;stroke-linejoin:round;stroke-miterlimit:10;stroke-dasharray:none;stroke-opacity:1"
           id="path208" /></g></g><path
       d="M 42.061365,255.68642 H 40.04803"
       style="fill:#000000;fill-opacity:1;fill-rule:nonzero;stroke:#000000;stroke-width:0.46019;stroke-linecap:butt;stroke-linejoin:round;stroke-miterlimit:10;stroke-dasharray:none;stroke-opacity:1"
       id="path212" /><g
       id="g218"
       transform="matrix(0.57523859,0,0,0.57523859,8.9276224,141.97141)"><g
         id="g220"
         clip-path="url(#clipPath224)"><path
           d="M 57.6,250.9056 H 414.72"
           style="fill:none;stroke:#b0b0b0;stroke-width:0.8;stroke-linecap:square;stroke-linejoin:round;stroke-miterlimit:10;stroke-dasharray:none;stroke-opacity:1"
           id="path226" /></g></g><path
       d="M 42.061365,286.30199 H 40.04803"
       style="fill:#000000;fill-opacity:1;fill-rule:nonzero;stroke:#000000;stroke-width:0.46019;stroke-linecap:butt;stroke-linejoin:round;stroke-miterlimit:10;stroke-dasharray:none;stroke-opacity:1"
       id="path230" /><g
       id="g236"
       transform="matrix(0.57523859,0,0,0.57523859,8.9276224,141.97141)"><g
         id="g238"
         clip-path="url(#clipPath242)"><path
           d="M 57.6,304.128 H 414.72"
           style="fill:none;stroke:#b0b0b0;stroke-width:0.8;stroke-linecap:square;stroke-linejoin:round;stroke-miterlimit:10;stroke-dasharray:none;stroke-opacity:1"
           id="path244" /></g></g><path
       d="M 42.061365,316.91757 H 40.04803"
       style="fill:#000000;fill-opacity:1;fill-rule:nonzero;stroke:#000000;stroke-width:0.46019;stroke-linecap:butt;stroke-linejoin:round;stroke-miterlimit:10;stroke-dasharray:none;stroke-opacity:1"
       id="path248" /><g
       id="g260"
       clip-path="url(#clipPath264)"
       transform="matrix(0.57523859,0,0,0.57523859,8.9276224,141.97141)"><path
         d="m 57.6,269.63911 1.400471,-4.14964 1.40047,-19.67326 1.400471,-10.93481 1.40047,-4.76364 1.400471,-3.70371 1.400471,0.45618 1.40047,-0.15237 1.400471,-0.7805 1.40047,-1.09826 1.400471,-2.13606 1.40047,-8.2203 1.400471,-1.02942 1.400471,-3.20551 1.40047,-0.42343 2.800941,-5.45291 1.400471,-1.24535 1.400471,-4.73346 1.40047,0.071 1.400471,-4.81731 1.40047,-0.27117 1.400471,0.50105 1.400471,-2.55248 1.40047,-1.66013 1.400471,-8.06948 1.40047,0.66951 1.400471,-1.18441 1.40047,-3.17712 1.400471,0.003 1.400471,-3.62355 1.400472,2.09832 1.40047,-2.16446 1.40047,1.32312 1.40047,1.07039 1.40047,2.61798 1.40047,-5.24636 1.40047,2.42523 1.40047,4.83 1.40047,-0.0171 1.40047,-4.44681 1.40047,7.34087 1.40048,-4.63667 1.40046,-1.16973 1.40048,-0.69332 1.40047,-2.05551 1.40047,2.05475 1.40047,7.42958 1.40047,-0.61373 1.40047,-3.4064 1.40047,-1.24324 1.40047,7.24958 1.40047,0.63833 1.40047,1.31227 1.40047,-1.29617 1.40047,-1.47974 1.40047,-4.17944 1.40047,1.42964 1.40047,0.16174 1.40047,-0.38951 1.40048,1.48593 1.40047,-5.04569 1.40047,-3.52622 1.40047,2.88336 1.40047,-3.86597 1.40047,-3.07459 1.40047,-2.04223 1.40047,9.9763 1.40047,-5.19317 1.40047,-3.68987 1.40047,4.33894 1.40047,-4.02621 1.40047,-2.47709 1.40047,0.38511 1.40047,-6.52204 1.40047,-0.43392 1.40047,-3.21794 1.40047,8.9058 1.40048,-5.0295 1.40047,7.66771 1.40047,-2.00611 1.40047,-0.67903 1.40047,3.66438 1.40047,-4.6715 1.40047,3.34329 2.80094,0.5661 1.40047,-2.78679 1.40047,1.83783 1.40047,7.19801 1.40047,-1.44819 1.40047,-6.75628 1.40047,3.68332 1.40047,4.4509 1.40047,-0.9666 1.40048,1.10914 1.40047,2.76043 1.40047,0.60019 1.40047,1.5254 1.40047,-4.1531 1.40047,-1.23208 1.40047,1.71536 1.40047,-1.03258 1.40047,-0.71802 1.40047,-0.4368 1.40047,0.17228 1.40047,-1.09453 1.40047,-3.77718 1.40047,9.72736 2.80094,-5.94207 1.40048,1.77165 1.40047,0.61846 1.40047,-4.79273 1.40047,7.6682 1.40047,-8.70233 1.40047,0.53392 1.40047,4.89058 1.40047,-6.80148 1.40047,6.16256 1.40047,-2.48636 1.40047,-6.2184 1.40047,4.03169 1.40047,2.84774 1.40047,-2.85247 1.40047,-7.32442 1.40047,3.27759 1.40047,5.53756 1.40048,-4.5591 1.40047,6.76068 1.40047,-1.27143 1.40047,-5.94727 1.40047,4.60743 1.40047,-11.13909 1.40047,0.33982 1.40047,14.12293 1.40047,-5.895 1.40047,0.60574 1.40047,-2.53274 1.40047,0.10141 1.40047,4.90604 1.40047,-3.31885 1.40047,-3.67895 1.40047,4.53541 1.40047,0.66293 1.40047,0.42917 1.40048,2.36834 1.40047,-3.45566 1.40047,1.84767 1.40047,-2.30422 1.40047,-7.42111 1.40047,0.43726 1.40047,0.21057 1.40047,-3.96349 1.40047,5.32043 1.40047,-3.71937 2.80094,-0.98716 1.40047,0.13671 1.40047,-3.8926 1.40047,8.28185 2.80094,-8.15691 1.40048,-0.27246 1.40047,2.91017 1.40047,-4.22432 1.40047,1.93523 1.40047,2.84574 1.40047,-5.62346 1.40047,1.56669 1.40047,1.9503 1.40047,-1.6039 1.40047,6.19084 1.40047,-9.56181 1.40047,-3.1974 1.40047,5.94847 1.40047,1.3287 1.40047,-2.35806 1.40047,-5.24875 1.40047,4.64617 1.40048,-2.45413 1.40047,-1.0554 1.40047,2.59874 1.40047,1.5538 1.40047,2.83995 1.40047,-1.09879 1.40047,1.64138 1.40047,0.85477 1.40047,-4.75706 1.40047,-0.19733 1.40047,4.1245 1.40047,-4.62196 1.40047,3.48289 1.40047,-1.54169 1.40047,5.34601 1.40047,-4.74647 1.40047,1.3154 1.40048,1.94452 1.40047,-12.23432 1.40047,9.26675 1.40047,2.44297 1.40047,3.04869 1.40047,-3.4449 1.40047,3.29686 1.40047,-9.0751 1.40047,-0.24683 1.40047,6.47469 1.40047,-13.45414 1.40047,14.53218 1.40047,-2.73075 1.40047,1.42568 1.40047,-7.11928 1.40047,-2.92422 1.40047,3.09565 1.40048,2.02876 1.40047,-5.83868 1.40047,-4.60141 1.40047,3.99161 1.40047,-4.1891 1.40047,7.88405 1.40047,-6.36015 1.40047,5.14616 1.40047,-10.38748 1.40047,4.42457 1.40047,0.0994 1.40047,-4.37752 1.40047,8.94939 1.40047,-10.81856 1.40047,9.2153 1.40048,-9.20134 1.40046,3.61164 1.40048,-10.37671 1.40047,-7.15367 1.40047,-1.58324 1.40047,-9.53047 1.40047,-15.470679 1.40047,-7.114269 1.40047,-51.756598 1.40047,-9.869584 1.40047,2.017731 1.40047,1.127776 1.40047,0.598097 1.40047,0.07547 1.40047,10.71042 1.40047,0.499915 1.40047,-11.747023 1.40047,-0.651291 1.40047,-2.667142 1.40048,-0.614499 1.40047,-1.103443 1.40047,-0.369237 1.40047,2.660448 1.40047,-8.250019 1.40047,-9.950715 L 413.11174,-1 v 0"
         style="fill:none;stroke:#1f77b4;stroke-width:1.5;stroke-linecap:square;stroke-linejoin:round;stroke-miterlimit:10;stroke-dasharray:none;stroke-opacity:1"
         id="path266" /></g><g
       id="g270"
       clip-path="url(#clipPath274)"
       transform="matrix(0.57523859,0,0,0.57523859,8.9276224,141.97141)"><path
         d="m 57.6,269.31639 1.400471,-4.29498 1.40047,-17.21589 1.400471,-10.49916 1.40047,-2.98194 1.400471,-2.24418 1.400471,0.47829 1.40047,0.14778 1.400471,-0.86931 1.40047,-2.21905 1.400471,-3.84225 1.40047,-8.96746 1.400471,1.64481 1.400471,-2.88244 1.40047,1.0711 1.400471,-5.26372 1.40047,-3.34578 1.400471,-0.41199 1.400471,-2.65991 1.40047,-0.11333 1.400471,-2.3508 1.40047,-0.61722 1.400471,2.08474 1.400471,-2.97085 1.40047,-1.77216 1.400471,-5.85489 1.40047,1.55712 1.400471,-0.22894 1.40047,-1.53181 1.400471,-1.22556 1.400471,-3.3627 1.400472,1.81251 1.40047,-1.8969 2.80094,-0.0584 1.40047,1.00316 1.40047,-4.46343 1.40047,3.36421 1.40047,4.67142 1.40047,-1.38612 1.40047,-5.53735 1.40047,10.17186 1.40048,-5.17237 1.40046,-1.4969 1.40048,-1.72892 1.40047,-0.21596 1.40047,1.43602 1.40047,8.62676 1.40047,-2.7146 1.40047,-4.30564 1.40047,0.0962 1.40047,6.37509 1.40047,-5.10507 1.40047,3.33315 1.40047,-0.89324 1.40047,-0.38729 1.40047,-4.1428 1.40047,3.36383 1.40047,-0.56409 1.40047,0.36019 1.40048,0.23955 1.40047,-1.99087 1.40047,-4.38869 1.40047,3.3766 1.40047,-4.44544 1.40047,-2.33725 1.40047,-2.97739 1.40047,6.58023 1.40047,-2.22663 1.40047,-3.92368 1.40047,1.60283 1.40047,-3.89137 1.40047,-2.65048 1.40047,0.23707 1.40047,-5.3465 1.40047,-0.99618 1.40047,-1.54203 1.40047,7.33065 1.40048,-5.51012 1.40047,9.10626 2.80094,-3.15855 1.40047,4.66888 1.40047,-6.34338 1.40047,5.9399 1.40047,-1.42334 1.40047,1.75376 1.40047,-1.94731 1.40047,5.16108 1.40047,4.57432 1.40047,-3.84783 1.40047,-5.23135 2.80094,7.91734 1.40047,-0.3991 1.40048,1.38352 1.40047,2.41776 1.40047,3.56789 1.40047,-0.092 1.40047,-2.74877 1.40047,-0.3966 1.40047,0.84756 1.40047,-0.30572 1.40047,-2.52474 1.40047,1.39609 2.80094,-0.77076 1.40047,-4.13105 1.40047,8.3409 1.40047,-2.49261 1.40047,-1.8278 1.40048,1.77568 1.40047,-1.63332 1.40047,-4.27323 1.40047,7.4049 1.40047,-9.44376 1.40047,1.73685 1.40047,3.40969 1.40047,-4.33728 1.40047,5.85115 2.80094,-7.97888 1.40047,2.79093 1.40047,1.10352 1.40047,-0.0881 1.40047,-5.90105 1.40047,0.52071 1.40047,7.77148 1.40048,-2.99905 1.40047,5.31037 1.40047,-2.74693 1.40047,-1.90698 1.40047,5.534 1.40047,-13.68513 1.40047,0.59713 1.40047,11.53164 1.40047,-1.41396 1.40047,-2.38314 1.40047,-1.29724 1.40047,-0.94523 1.40047,4.19599 1.40047,-2.97821 1.40047,-4.42642 1.40047,2.31671 1.40047,-0.42704 1.40047,4.44318 1.40048,3.11688 1.40047,-6.42329 1.40047,-0.3068 1.40047,3.7175 1.40047,-11.22727 1.40047,2.53491 1.40047,1.95263 1.40047,-3.25658 1.40047,6.89483 1.40047,-7.40046 1.40047,2.29633 1.40047,1.15228 1.40047,-3.82849 1.40047,-1.083 1.40047,5.54538 1.40047,-2.97043 1.40047,-5.05129 1.40048,0.33688 1.40047,4.47157 1.40047,-2.92944 1.40047,2.56349 1.40047,-0.6043 1.40047,-2.20578 1.40047,1.31139 1.40047,1.63309 1.40047,-1.18881 1.40047,5.55179 1.40047,-7.05836 1.40047,-3.01511 1.40047,5.87895 1.40047,-0.39698 1.40047,2.02601 1.40047,-5.56184 1.40047,3.88247 1.40048,-3.59052 1.40047,-1.55573 1.40047,5.76082 1.40047,-1.19623 1.40047,-0.0425 1.40047,1.28778 1.40047,-0.64432 1.40047,0.33888 1.40047,-2.01971 1.40047,-2.9523 1.40047,0.47261 1.40047,-1.29453 1.40047,1.25 1.40047,-1.94738 1.40047,3.7374 1.40047,-4.11998 1.40047,1.79541 1.40048,5.60475 1.40047,-17.50441 1.40047,10.61951 1.40047,1.94957 1.40047,4.70535 1.40047,-4.70589 1.40047,-0.19869 1.40047,-5.98055 1.40047,3.56658 1.40047,2.1443 1.40047,-12.22903 1.40047,15.52215 1.40047,-5.49627 1.40047,3.52629 1.40047,-7.20815 1.40047,0.51255 1.40047,2.24853 1.40048,3.34278 1.40047,-4.89417 1.40047,-5.78442 1.40047,3.66406 1.40047,-5.78294 1.40047,8.10402 1.40047,-9.30328 1.40047,6.27333 1.40047,-7.19656 1.40047,3.26891 1.40047,-3.82167 1.40047,0.11343 1.40047,7.68693 1.40047,-9.05779 1.40047,2.91285 1.40048,-8.49017 1.40046,10.17044 1.40048,-6.30024 1.40047,-5.02895 1.40047,2.82213 2.80094,-9.88583 1.40047,-2.8288 1.40047,-16.6301 1.40047,-29.049875 1.40047,-65.48362 1.40047,-0.4398 1.40047,-2.137985 1.40047,-1.083417 1.40047,2.724805 1.40047,4.088568 1.40047,-2.924548 1.40047,-0.306775 1.40047,-1.337658 1.40048,3.019158 1.40047,2.435933 1.40047,-6.345695 1.40047,2.610291 1.40047,-6.063756 1.40047,5.160516 1.40047,0.543026 1.40047,-13.321614 v 0"
         style="fill:none;stroke:#ff7f0e;stroke-width:1.5;stroke-linecap:square;stroke-linejoin:round;stroke-miterlimit:10;stroke-dasharray:none;stroke-opacity:1"
         id="path276" /></g><g
       id="g280"
       clip-path="url(#clipPath284)"
       transform="matrix(0.57523859,0,0,0.57523859,8.9276224,141.97141)"><path
         d="m 57.6,268.34489 1.400471,-5.13052 1.40047,-17.17492 1.400471,-8.72683 1.40047,-1.84755 1.400471,-0.88065 1.400471,0.10626 1.40047,-1.6384 1.400471,-1.92593 1.40047,-2.35756 1.400471,-4.07353 1.40047,-8.31541 1.400471,1.21571 1.400471,-4.09578 1.40047,-0.38786 1.400471,-4.19502 1.40047,-2.58213 1.400471,0.4918 1.400471,-3.6847 1.40047,-0.77043 1.400471,-2.4773 1.40047,-0.11942 1.400471,2.27846 1.400471,-1.68327 1.40047,0.32663 1.400471,-6.56877 1.40047,1.48012 1.400471,0.33615 1.40047,-1.18141 1.400471,-0.56244 1.400471,-3.5712 1.400472,2.19904 1.40047,-2.08538 1.40047,-0.64137 1.40047,-0.88293 1.40047,1.58953 1.40047,-4.09768 1.40047,3.84706 1.40047,2.08208 1.40047,-1.2493 1.40047,-6.14813 1.40047,11.4837 1.40048,-5.77884 1.40046,-0.0594 1.40048,-1.57998 1.40047,1.2174 1.40047,-0.0983 1.40047,9.88886 1.40047,-4.56991 1.40047,-3.61972 1.40047,-0.20328 1.40047,6.40567 1.40047,-6.2738 1.40047,4.56834 1.40047,-0.13862 1.40047,0.0736 1.40047,-4.84322 1.40047,4.33867 1.40047,0.45119 1.40047,-1.25158 1.40048,-0.0123 1.40047,-1.625 1.40047,-3.37439 1.40047,2.43896 2.80094,-11.57188 1.40047,-2.33088 1.40047,5.99285 1.40047,-1.54947 1.40047,-3.08868 1.40047,0.47997 1.40047,-4.03586 2.80094,-2.19765 1.40047,-3.31097 1.40047,-0.90931 1.40047,-2.50092 1.40047,8.59376 1.40048,-3.89779 1.40047,9.15811 1.40047,-2.48895 1.40047,-1.27721 1.40047,3.88639 1.40047,-5.69752 1.40047,5.99436 1.40047,-1.60026 1.40047,0.9333 1.40047,0.60201 1.40047,4.5994 1.40047,3.31822 1.40047,-2.75106 1.40047,-5.49113 1.40047,3.78933 1.40047,4.5769 1.40047,-2.17234 1.40048,2.43022 2.80094,7.01951 1.40047,0.70891 1.40047,-1.98565 1.40047,-0.43004 1.40047,-0.0711 1.40047,0.44917 1.40047,-3.12504 1.40047,3.51591 1.40047,-1.7497 1.40047,-0.1824 1.40047,-3.54221 1.40047,6.32162 1.40047,-3.78237 1.40047,-0.21456 1.40048,2.43684 1.40047,-4.21374 1.40047,-3.30719 1.40047,7.20245 1.40047,-9.47521 1.40047,2.52015 1.40047,-0.62781 1.40047,-1.27341 1.40047,4.53733 2.80094,-8.00848 1.40047,1.55719 1.40047,2.5646 1.40047,-1.05479 1.40047,-5.41257 1.40047,0.30462 1.40047,7.4782 1.40048,-3.10418 1.40047,5.59087 1.40047,-1.3739 1.40047,-3.56504 1.40047,7.25599 1.40047,-13.85437 1.40047,0.89513 1.40047,9.38009 1.40047,-0.75149 1.40047,-1.62298 1.40047,-0.29412 1.40047,-2.51881 1.40047,4.6676 1.40047,-2.432 1.40047,-2.81572 1.40047,1.19604 1.40047,-0.78164 2.80095,7.82359 1.40047,-5.84767 1.40047,-1.66507 1.40047,3.20252 1.40047,-10.7779 1.40047,1.59919 1.40047,2.88892 1.40047,-3.08509 1.40047,9.10086 1.40047,-9.3848 1.40047,3.1247 1.40047,0.50069 1.40047,-4.17356 1.40047,-2.64892 1.40047,4.41343 1.40047,-1.51011 1.40047,-3.76882 1.40048,0.9982 1.40047,4.08722 1.40047,-3.57771 1.40047,1.26426 1.40047,-0.44874 1.40047,-2.70836 2.80094,3.21693 1.40047,-1.57743 1.40047,4.10241 1.40047,-6.57074 1.40047,-0.96762 1.40047,4.85954 1.40047,-0.60037 1.40047,2.45966 1.40047,-5.51556 1.40047,2.76891 1.40048,-3.23733 1.40047,-2.11422 1.40047,6.26159 1.40047,-0.0153 1.40047,-2.37103 1.40047,2.99975 1.40047,-1.56111 1.40047,0.84134 1.40047,-2.24023 1.40047,-1.09824 1.40047,-1.52627 1.40047,-2.27299 1.40047,0.36078 2.80094,4.9735 1.40047,-5.76791 1.40047,3.63373 1.40048,3.06363 1.40047,-15.64774 1.40047,8.91413 1.40047,1.46613 1.40047,6.84153 1.40047,-5.26066 1.40047,-0.20373 1.40047,-5.99478 1.40047,3.76695 1.40047,2.43373 1.40047,-12.1908 1.40047,14.91194 1.40047,-4.3366 1.40047,3.2951 1.40047,-7.39636 1.40047,1.62279 1.40047,2.0349 1.40048,6.02622 1.40047,-4.78252 1.40047,-6.39675 1.40047,4.35556 1.40047,-6.26291 1.40047,7.75666 1.40047,-8.35592 1.40047,7.01015 1.40047,-6.87193 1.40047,0.65137 1.40047,-2.4375 1.40047,-0.0468 1.40047,7.76648 1.40047,-10.09587 1.40047,5.30653 1.40048,-8.56168 1.40046,10.47662 1.40048,-6.48601 1.40047,-5.15041 1.40047,1.98226 1.40047,-5.58085 1.40047,-2.30066 1.40047,-5.63107 1.40047,-8.43205 1.40047,-6.63451 1.40047,-22.11995 1.40047,-69.59266 1.40047,-3.177109 1.40047,9.250766 1.40047,-5.90628 1.40047,2.270086 1.40047,-6.38721 1.40047,6.733008 1.40047,-2.27099 1.40048,6.376987 1.40047,-4.608009 1.40047,-6.58423 1.40047,3.548807 1.40047,-3.469037 1.40047,9.944226 1.40047,-18.59616 L 414.72,7.243479 v 0"
         style="fill:none;stroke:#2ca02c;stroke-width:1.5;stroke-linecap:square;stroke-linejoin:round;stroke-miterlimit:10;stroke-dasharray:none;stroke-opacity:1"
         id="path286" /></g><g
       id="g290"
       clip-path="url(#clipPath294)"
       transform="matrix(0.57523859,0,0,0.57523859,8.9276224,141.97141)"><path
         d="m 57.6,268.96519 1.400471,-5.03359 1.40047,-16.81893 1.400471,-8.40811 1.40047,-2.05359 1.400471,-0.10348 1.400471,-0.79588 1.40047,-2.4576 1.400471,-1.24533 1.40047,-1.63385 1.400471,-3.89468 1.40047,-8.06515 1.400471,1.07174 1.400471,-4.0546 1.40047,-1.85579 1.400471,-4.57329 1.40047,-2.3286 1.400471,0.74906 1.400471,-3.95202 1.40047,-1.09154 1.400471,-2.51798 1.40047,0.43586 1.400471,2.84181 1.400471,-2.09537 1.40047,0.49749 1.400471,-6.27363 1.40047,0.29335 1.400471,-1.51445 2.800941,-1.30065 1.400471,-3.78796 1.400472,1.05461 1.40047,-2.31614 1.40047,0.8047 1.40047,-1.4e-4 1.40047,0.974 1.40047,-4.42415 1.40047,4.11152 1.40047,1.57581 1.40047,-0.17433 1.40047,-6.07989 1.40047,11.35719 1.40048,-5.24053 1.40046,0.74791 1.40048,-1.1881 1.40047,1.24078 1.40047,0.43219 1.40047,9.66084 1.40047,-4.27192 1.40047,-2.61739 1.40047,0.68817 1.40047,4.98524 1.40047,-5.67634 1.40047,4.33067 1.40047,-0.41289 1.40047,0.55767 1.40047,-4.6791 1.40047,4.21825 1.40047,0.6057 1.40047,-0.64923 1.40048,-1.60255 1.40047,-0.95639 1.40047,-3.19346 1.40047,2.66201 2.80094,-11.4374 1.40047,-3.64544 1.40047,4.95176 1.40047,-1.07965 1.40047,-3.04772 1.40047,0.26222 1.40047,-3.44011 1.40047,-1.94803 1.40047,-1.42448 1.40047,-4.48971 1.40047,0.28161 1.40047,-3.64563 1.40047,8.59478 1.40048,-3.71601 1.40047,8.98708 1.40047,-1.98723 1.40047,-1.30518 1.40047,3.47026 1.40047,-5.24571 1.40047,5.44475 1.40047,-0.74564 1.40047,0.10085 1.40047,0.47174 1.40047,5.87857 1.40047,1.82381 2.80094,-7.55503 1.40047,0.94793 1.40047,6.11888 1.40047,-2.16348 1.40048,1.0688 1.40047,5.43599 1.40047,3.4666 1.40047,0.67571 1.40047,-2.58679 1.40047,0.86631 1.40047,-0.17901 1.40047,0.36402 1.40047,-2.79927 1.40047,3.64198 1.40047,-1.5189 1.40047,0.0647 1.40047,-2.68708 1.40047,4.69094 1.40047,-3.91206 1.40047,2.35832 1.40048,0.93883 1.40047,-4.32455 1.40047,-3.57999 1.40047,6.2064 1.40047,-8.64655 1.40047,1.91036 1.40047,-1.31619 1.40047,-1.13326 1.40047,4.65977 1.40047,-4.35459 1.40047,-1.6906 1.40047,-0.30435 1.40047,2.96726 1.40047,-0.30681 1.40047,-5.49904 1.40047,0.0184 1.40047,8.17959 1.40048,-2.37496 1.40047,6.30105 2.80094,-5.75021 1.40047,8.28023 1.40047,-14.98621 1.40047,1.25934 1.40047,8.32773 1.40047,-0.34593 1.40047,-1.53753 1.40047,-0.73842 1.40047,-0.98245 1.40047,3.6177 1.40047,-1.11259 1.40047,-5.38318 1.40047,3.17798 1.40047,-2.4139 2.80095,7.08991 1.40047,-4.39044 1.40047,-2.39604 1.40047,3.76899 1.40047,-10.22911 1.40047,2.97269 1.40047,1.41449 1.40047,-2.39099 1.40047,10.15814 1.40047,-10.99227 1.40047,3.85606 1.40047,-1.39024 1.40047,-3.21158 1.40047,-0.90832 1.40047,0.81712 1.40047,-0.0666 1.40047,-2.35034 1.40048,1.19155 1.40047,3.79827 1.40047,-3.92637 1.40047,2.10422 1.40047,-0.94364 1.40047,-2.48986 1.40047,1.35478 1.40047,2.83603 1.40047,-2.10173 1.40047,2.02773 1.40047,-4.79311 1.40047,-3.1257 1.40047,6.36806 1.40047,-1.46305 1.40047,5.01202 1.40047,-5.66833 1.40047,1.98297 1.40048,-2.75405 1.40047,-1.74638 1.40047,5.45531 1.40047,-0.98221 1.40047,-2.34974 1.40047,2.28358 1.40047,-0.46888 1.40047,-0.0568 1.40047,-2.04745 1.40047,-0.83996 1.40047,-2.95483 1.40047,0.13731 1.40047,-1.86325 1.40047,4.4424 1.40047,2.26339 1.40047,-6.18792 1.40047,4.25584 1.40048,3.2835 1.40047,-16.23285 1.40047,8.23287 1.40047,3.22197 1.40047,5.9086 1.40047,-6.03309 1.40047,-0.39361 1.40047,-4.44856 1.40047,3.40769 1.40047,2.58976 1.40047,-10.72809 1.40047,13.72556 1.40047,-3.87603 1.40047,4.09905 1.40047,-8.41907 1.40047,4.11127 1.40047,-1.05604 1.40048,7.16131 1.40047,-2.9481 1.40047,-8.05549 1.40047,6.66956 1.40047,-9.42715 1.40047,8.18324 1.40047,-8.19133 1.40047,5.91628 1.40047,-5.4338 1.40047,-0.37494 1.40047,0.43333 1.40047,-1.95488 1.40047,8.33593 1.40047,-9.80623 1.40047,2.21064 1.40048,-4.85062 1.40046,9.24041 1.40048,-8.56769 1.40047,-4.16516 1.40047,-0.6466 1.40047,-5.17531 1.40047,-1.88218 1.40047,-4.23831 1.40047,-9.82648 1.40047,-11.68306 1.40047,-28.151008 1.40047,-65.34719 1.40047,-8.991734 1.40047,-1.543718 1.40047,8.136574 1.40047,-0.175451 1.40047,-4.045752 1.40047,7.992513 1.40047,-0.353154 1.40048,0.554708 1.40047,5.10072 1.40047,-13.035553 1.40047,2.104108 1.40047,-5.495178 1.40047,-0.12504 1.40047,7.326534 L 414.72,5.483456 v 0"
         style="fill:none;stroke:#8c564b;stroke-width:1.5;stroke-linecap:square;stroke-linejoin:round;stroke-miterlimit:10;stroke-dasharray:none;stroke-opacity:1"
         id="path296" /></g><g
       id="g300"
       clip-path="url(#clipPath304)"
       transform="matrix(0.57523859,0,0,0.57523859,8.9276224,141.97141)"><path
         d="m 57.6,268.73094 1.400471,-5.44007 1.40047,-16.88178 1.400471,-8.05683 1.40047,-2.122 1.400471,-0.65145 1.400471,-1.35535 1.40047,-2.8138 1.400471,-1.15316 1.40047,-0.89843 1.400471,-3.119 1.40047,-7.70703 1.400471,1.67505 1.400471,-4.42944 1.40047,-2.35316 1.400471,-5.15501 1.40047,-2.30875 1.400471,0.3321 1.400471,-4.38911 1.40047,-0.0202 1.400471,-1.55653 1.40047,0.48934 1.400471,2.81888 1.400471,-1.44124 1.40047,0.22418 1.400471,-5.76293 1.40047,0.13915 1.400471,-1.5604 1.40047,-0.65651 1.400471,-0.33828 1.400471,-4.73181 1.400472,1.65791 1.40047,-1.96537 1.40047,-0.33531 1.40047,0.3113 1.40047,1.47512 1.40047,-4.18498 1.40047,4.20917 1.40047,0.91852 1.40047,0.2126 1.40047,-6.87188 1.40047,11.93611 1.40048,-5.01283 1.40046,0.96557 1.40048,-1.02146 2.80094,1.35738 1.40047,9.63293 1.40047,-4.75235 1.40047,-2.29793 1.40047,0.64377 1.40047,5.1597 1.40047,-6.16446 1.40047,4.16472 1.40047,-0.78873 1.40047,1.03569 1.40047,-4.56816 1.40047,3.89733 1.40047,1.15431 1.40047,-0.34453 1.40048,-2.06482 1.40047,-0.43621 1.40047,-3.12619 1.40047,2.56965 1.40047,-4.19802 2.80094,-10.05712 1.40047,5.11551 1.40047,-2.31618 1.40047,-2.81843 1.40047,0.92828 1.40047,-3.54062 1.40047,-1.81077 1.40047,-1.12437 1.40047,-4.17816 1.40047,0.31198 1.40047,-4.20733 1.40047,8.24388 1.40048,-3.56607 1.40047,8.69136 1.40047,-3.16721 1.40047,-0.62962 1.40047,2.85815 1.40047,-5.50862 1.40047,5.63827 1.40047,-1.44972 1.40047,-1.16636 1.40047,1.56199 1.40047,6.37043 1.40047,0.21343 1.40047,-2.6739 1.40047,-4.29305 1.40047,-0.18423 1.40047,7.46738 1.40047,-3.26106 1.40048,1.45497 1.40047,5.9635 1.40047,2.89192 1.40047,0.26119 1.40047,-2.73252 1.40047,0.87707 1.40047,0.13779 1.40047,0.2926 1.40047,-2.4529 1.40047,3.73388 1.40047,-1.03882 1.40047,0.57637 1.40047,-3.30297 1.40047,4.80963 1.40047,-3.75704 1.40047,2.97559 1.40048,0.66801 1.40047,-4.00328 1.40047,-4.52056 1.40047,7.49826 1.40047,-8.84092 1.40047,1.83354 1.40047,-1.89776 1.40047,0.20328 1.40047,4.28552 1.40047,-4.29534 1.40047,-1.8985 1.40047,-0.57461 1.40047,3.09258 1.40047,-0.60637 1.40047,-5.1332 1.40047,-0.15726 1.40047,7.90043 1.40048,-1.59112 1.40047,5.93141 1.40047,-2.85004 1.40047,-3.19859 1.40047,7.99302 1.40047,-14.37091 1.40047,0.94747 1.40047,8.55254 1.40047,-0.37582 1.40047,-1.3918 1.40047,-0.57454 1.40047,-1.13064 1.40047,2.93568 1.40047,-0.0378 1.40047,-5.09517 1.40047,1.82037 1.40047,-2.46866 1.40047,3.85387 1.40048,3.15597 1.40047,-5.37988 1.40047,-1.22111 1.40047,3.37555 1.40047,-10.4935 1.40047,3.16003 1.40047,1.16439 1.40047,-1.83702 1.40047,10.02067 1.40047,-10.72711 1.40047,3.45565 1.40047,0.40027 1.40047,-4.48624 1.40047,-0.7998 1.40047,0.71569 1.40047,0.57073 1.40047,-2.03181 1.40048,0.38643 1.40047,4.20206 1.40047,-4.18975 1.40047,2.73903 1.40047,-1.09383 1.40047,-1.98511 1.40047,1.42763 1.40047,3.08317 1.40047,-1.77745 1.40047,0.90101 1.40047,-4.0871 1.40047,-3.41237 1.40047,6.77103 1.40047,-2.04425 1.40047,5.5373 1.40047,-5.55647 1.40047,1.92398 1.40048,-2.87958 1.40047,-2.0864 1.40047,5.88909 1.40047,-1.62956 1.40047,-1.85986 1.40047,2.00895 1.40047,-0.99627 1.40047,0.53386 1.40047,-2.20464 1.40047,-1.49878 1.40047,-2.47333 1.40047,1.18487 1.40047,-2.66747 1.40047,5.97564 1.40047,0.43197 1.40047,-5.70432 1.40047,4.66068 1.40048,3.48958 1.40047,-15.94341 1.40047,8.73048 1.40047,1.70326 1.40047,6.01545 1.40047,-5.13545 1.40047,-1.58552 1.40047,-3.47873 1.40047,2.08039 1.40047,2.41498 1.40047,-8.88642 1.40047,12.02887 1.40047,-2.42232 1.40047,3.17503 1.40047,-8.39673 1.40047,4.04871 1.40047,-0.83044 1.40048,6.32638 1.40047,-2.64835 1.40047,-6.97636 1.40047,7.59107 1.40047,-11.27696 1.40047,8.86119 1.40047,-8.63163 1.40047,6.27415 1.40047,-5.21482 1.40047,0.17614 1.40047,-0.27402 1.40047,-1.09791 1.40047,8.01003 1.40047,-11.13054 1.40047,4.20607 1.40048,-6.95677 1.40046,13.85848 1.40048,-8.45141 1.40047,-6.60949 1.40047,-1.30501 1.40047,-4.11755 1.40047,-2.58533 1.40047,-6.04188 1.40047,-10.51097 1.40047,-16.36306 1.40047,-21.248813 1.40047,-66.28995 1.40047,-10.075645 1.40047,-2.425762 1.40047,8.848335 1.40047,-0.833133 1.40047,1.292406 1.40047,4.004202 1.40047,0.152085 1.40048,-1.087687 1.40047,3.889817 1.40047,-10.103037 1.40047,0.609128 1.40047,-2.917566 1.40047,0.434867 1.40047,7.990892 1.40047,-18.318713 v 0"
         style="fill:none;stroke:#9467bd;stroke-width:1.5;stroke-linecap:square;stroke-linejoin:round;stroke-miterlimit:10;stroke-dasharray:none;stroke-opacity:1"
         id="path306" /></g><path
       d="m 42.061365,310.13864 0.805605,-4.2907 0.805604,-2.756 0.805605,-1.62128 0.805604,-1.41656 0.805605,-0.25468 0.805605,-0.75063 0.805605,0.33444 0.805604,1.25737 0.805605,-2.45613 0.805605,1.18634 0.805604,-1.62228 0.805606,-1.82497 0.805605,-1.57303 1.611208,-0.97068 0.805605,-1.28858 0.805605,-1.90693 0.805605,-0.76054 0.805604,-0.39555 0.805605,0.72108 0.805604,-1.70325 0.805605,0.0313 1.61121,-1.43116 0.805604,-2.05309 0.805605,0.25886 0.805605,-1.03049 0.805605,-0.52493 1.61121,0.49027 0.805604,-2.62822 0.805605,0.19532 0.805605,0.1125 0.805604,-0.30193 0.805605,0.79206 0.805603,0.4765 0.805605,-2.22584 0.805604,-0.57868 0.805605,-0.14127 0.805604,-1.71661 0.805605,1.10888 0.805609,-2.5032 0.805599,0.3895 0.80561,0.027 0.805605,1.08109 0.805604,-5.98218 0.805605,3.70742 0.805604,-2.30693 0.805604,2.02068 0.805605,1.5344 0.805604,-0.77492 0.805605,1.92788 0.805603,-1.9252 0.805605,-0.22301 0.805604,-0.90459 0.805605,2.37727 0.805605,0.50857 1.611208,2.8198 0.80561,2.62361 0.805605,1.74067 0.805604,2.26618 0.805605,0.009 0.805604,-5.03491 0.805604,-2.97258 0.805604,0.50123 0.805605,-5.69945 0.805604,-0.2545 0.805605,-1.41118 0.805604,-2.40016 0.805604,-0.17866 0.805602,4.32214 0.80561,-0.49814 0.8056,5.29291 0.80561,-1.65128 0.8056,0.72709 0.80561,-6.64165 0.8056,-1.45549 0.8056,-0.79568 0.80561,-3.37558 0.8056,3.38052 0.80561,-5.29342 0.8056,5.70407 0.80561,-5.25512 0.8056,2.65335 0.80561,-0.94597 0.8056,0.10792 0.80561,-1.76522 0.8056,1.85589 0.80561,-1.4308 0.8056,-1.07026 0.80561,-0.44676 0.8056,3.17135 0.80561,-3.39622 0.8056,2.66847 0.80561,2.05336 0.8056,-0.0485 0.80561,-2.91011 0.8056,4.10243 0.80561,-3.20176 0.8056,3.67073 1.61121,-3.34106 0.80561,2.76038 0.8056,0.0912 0.80561,0.33731 0.8056,0.0719 0.8056,-0.13303 0.80561,-3.40256 0.8056,2.04982 0.80561,0.68601 0.8056,-1.38643 0.80561,-1.75083 0.8056,1.58296 0.80561,-5.86999 0.8056,5.17332 0.80561,-5.04716 0.8056,3.53664 0.80561,-3.56527 0.8056,-0.18201 0.80561,-2.17136 0.8056,-0.74828 0.80561,1.02876 1.61121,5.48704 0.80559,-4.62642 0.80561,4.2329 0.80561,-0.33864 0.80561,1.18692 0.8056,-3.06903 0.80561,1.28847 0.8056,-0.59855 0.80561,-1.69154 0.8056,-3.70068 0.80561,2.9279 0.8056,-0.72926 0.8056,0.61877 0.8056,1.718 0.8056,-2.06273 0.80561,2.64433 0.8056,-7.81118 0.80561,1.11668 0.8056,1.34177 1.61121,-5.17567 0.80562,9.55497 0.8056,-8.35883 0.80561,3.12799 0.8056,0.30965 0.80561,-4.04796 0.80559,4.19093 0.80561,-1.67156 0.8056,0.35976 0.80561,-3.96351 0.8056,1.76943 0.80561,0.34736 0.8056,-0.86966 0.80561,-1.1258 0.8056,0.77944 0.80561,2.89822 0.8056,4.6969 0.80561,-8.41129 0.80561,-3.43971 0.8056,2.97945 0.8056,1.35276 0.8056,-2.10216 0.80561,-1.88928 0.8056,-1.1704 0.80561,3.46115 0.8056,-0.5844 0.80561,1.22114 0.8056,-4.15759 0.80561,-0.0999 0.8056,0.26757 0.80561,2.45354 0.8056,-1.97297 0.80561,2.05212 0.8056,-3.34319 0.80561,0.40191 0.8056,0.12978 0.80561,-4.70342 0.8056,9.11139 0.80561,-0.35925 0.8056,-9.04464 0.80561,3.50715 0.8056,-3.85574 1.61121,-2.73645 0.80561,1.68493 0.8056,-5.79746 0.80561,2.07559 0.8056,-5.66253 0.8056,4.62593 0.80561,1.21859 0.8056,-0.69749 0.80561,1.04559 0.8056,3.21531 0.80561,-0.0396 0.8056,1.07809 0.80561,-3.59078 0.8056,2.96564 0.80561,-2.44802 0.8056,-0.0529 0.80561,-0.24023 0.8056,-2.11982 0.80561,2.07346 0.8056,-3.05619 0.80561,5.33397 0.8056,0.68638 0.80561,-0.36215 0.8056,-6.17548 0.8056,5.83984 0.8056,-6.1635 0.80562,4.26814 0.8056,0.89299 0.80561,-2.44789 0.8056,4.35902 0.80561,-4.71849 0.8056,6.45003 1.61121,-9.78355 0.8056,2.79645 0.80561,-2.63914 0.8056,-9.13321 0.8056,-0.0476 0.8056,8.06787 0.80561,1.72441 0.8056,-2.22424 0.80562,-4.59199 0.80559,1.90611 0.80562,-0.76906 0.8056,3.26848 0.80561,-9.3772 0.8056,1.88014 0.80561,-0.19739 0.8056,0.23248 0.80561,7.62467 0.80559,-4.2178 0.80561,2.31609 0.8056,0.0566 0.80561,0.23224 0.8056,1.50839 0.80561,-1.49436 0.8056,4.95133 0.80561,2.49688 0.8056,-7.84044 0.80561,3.12389 0.80561,3.44651 0.80561,-3.83988 0.80559,8.40102 0.8056,-6.42469 0.80561,1.64204 0.8056,-0.95212 0.80561,0.74923 0.8056,2.52472 v 0"
       style="fill:none;stroke:#d62728;stroke-width:0.862858;stroke-linecap:square;stroke-linejoin:round;stroke-miterlimit:10;stroke-dasharray:none;stroke-opacity:1"
       id="path316" /><path
       d="M 42.061365,163.83968 V 316.91757"
       style="fill:none;stroke:#000000;stroke-width:0.46019;stroke-linecap:square;stroke-linejoin:miter;stroke-miterlimit:10;stroke-dasharray:none;stroke-opacity:1"
       id="path320" /><path
       d="M 247.49056,163.83968 V 316.91757"
       style="fill:none;stroke:#000000;stroke-width:0.46019;stroke-linecap:square;stroke-linejoin:miter;stroke-miterlimit:10;stroke-dasharray:none;stroke-opacity:1"
       id="path322" /><path
       d="M 42.061365,163.83968 H 247.49056"
       style="fill:none;stroke:#000000;stroke-width:0.46019;stroke-linecap:square;stroke-linejoin:miter;stroke-miterlimit:10;stroke-dasharray:none;stroke-opacity:1"
       id="path324" /><path
       d="M 42.061365,316.91757 H 247.49056"
       style="fill:none;stroke:#000000;stroke-width:0.46019;stroke-linecap:square;stroke-linejoin:miter;stroke-miterlimit:10;stroke-dasharray:none;stroke-opacity:1"
       id="path326" /><path
       d="M 59.819092,215.07183 H 71.323861"
       style="fill:none;stroke:#1f77b4;stroke-width:0.862858;stroke-linecap:square;stroke-linejoin:round;stroke-miterlimit:10;stroke-dasharray:none;stroke-opacity:1"
       id="path336" /><path
       d="M 59.819092,206.632 H 71.323861"
       style="fill:none;stroke:#ff7f0e;stroke-width:0.862858;stroke-linecap:square;stroke-linejoin:round;stroke-miterlimit:10;stroke-dasharray:none;stroke-opacity:1"
       id="path342" /><path
       d="M 59.819092,198.19218 H 71.323861"
       style="fill:none;stroke:#2ca02c;stroke-width:0.862858;stroke-linecap:square;stroke-linejoin:round;stroke-miterlimit:10;stroke-dasharray:none;stroke-opacity:1"
       id="path348" /><path
       d="M 59.819092,189.75235 H 71.323861"
       style="fill:none;stroke:#8c564b;stroke-width:0.862858;stroke-linecap:square;stroke-linejoin:round;stroke-miterlimit:10;stroke-dasharray:none;stroke-opacity:1"
       id="path354" /><path
       d="M 59.819092,181.31253 H 71.323861"
       style="fill:none;stroke:#9467bd;stroke-width:0.862858;stroke-linecap:square;stroke-linejoin:round;stroke-miterlimit:10;stroke-dasharray:none;stroke-opacity:1"
       id="path360" /></g><g
     inkscape:groupmode="layer"
     id="layer1"
     inkscape:label="text"
     style="display:inline"
     transform="translate(-28.023958,-17.206424)"><text
       style="font-variant:normal;font-weight:normal;font-size:7.66983px;font-family:'DejaVu Sans';-inkscape-font-specification:DejaVuSans;writing-mode:lr-tb;fill:#000000;fill-opacity:1;fill-rule:nonzero;stroke:none;stroke-width:0.766983"
       id="text370"
       x="101.23437"
       y="232.98749"><tspan
         x="101.23437 104.24094 107.39324 112.09487 116.95754 120.95353 123.65331 128.37029 131.52258 133.96158 139.90572 146.52481 151.40285 156.28085 161.15889 166.03691 170.91493 173.35394 175.93867 178.37767 183.62386 189.23819 194.59175 197.17648 199.61551 204.49353 206.93253 211.81053 216.6886"
         y="232.98749"
         sodipodi:role="line"
         id="tspan368"
         style="stroke-width:0.766983">transfer GM12878 / AUC: 0.629</tspan></text><text
       style="font-variant:normal;font-weight:normal;font-size:7.66985px;font-family:'DejaVu Sans';-inkscape-font-specification:DejaVuSans;writing-mode:lr-tb;fill:#000000;fill-opacity:1;fill-rule:nonzero;stroke:none;stroke-width:0.766985"
       id="text32"
       x="53.643047"
       y="253.54025"><tspan
         x="53.643047"
         y="253.54025"
         id="tspan30"
         style="stroke-width:0.766985">0</tspan></text><text
       style="font-variant:normal;font-weight:normal;font-size:7.66985px;font-family:'DejaVu Sans';-inkscape-font-specification:DejaVuSans;writing-mode:lr-tb;fill:#000000;fill-opacity:1;fill-rule:nonzero;stroke:none;stroke-width:0.766985"
       id="text50"
       x="96.608635"
       y="253.54025"><tspan
         x="96.608635"
         y="253.54025"
         id="tspan48"
         style="stroke-width:0.766985">1</tspan></text><text
       style="font-variant:normal;font-weight:normal;font-size:7.66985px;font-family:'DejaVu Sans';-inkscape-font-specification:DejaVuSans;writing-mode:lr-tb;fill:#000000;fill-opacity:1;fill-rule:nonzero;stroke:none;stroke-width:0.766985"
       id="text68"
       x="139.57422"
       y="253.54025"><tspan
         x="139.57422"
         y="253.54025"
         id="tspan66"
         style="stroke-width:0.766985">2</tspan></text><text
       style="font-variant:normal;font-weight:normal;font-size:7.66985px;font-family:'DejaVu Sans';-inkscape-font-specification:DejaVuSans;writing-mode:lr-tb;fill:#000000;fill-opacity:1;fill-rule:nonzero;stroke:none;stroke-width:0.766985"
       id="text86"
       x="182.53979"
       y="253.54025"><tspan
         x="182.53979"
         y="253.54025"
         id="tspan84"
         style="stroke-width:0.766985">3</tspan></text><text
       style="font-variant:normal;font-weight:normal;font-size:7.66985px;font-family:'DejaVu Sans';-inkscape-font-specification:DejaVuSans;writing-mode:lr-tb;fill:#000000;fill-opacity:1;fill-rule:nonzero;stroke:none;stroke-width:0.766985"
       id="text104"
       x="225.50539"
       y="253.54025"><tspan
         x="225.50539"
         y="253.54025"
         id="tspan102"
         style="stroke-width:0.766985">4</tspan></text><text
       style="font-variant:normal;font-weight:normal;font-size:7.66985px;font-family:'DejaVu Sans';-inkscape-font-specification:DejaVuSans;writing-mode:lr-tb;fill:#000000;fill-opacity:1;fill-rule:nonzero;stroke:none;stroke-width:0.766985"
       id="text122"
       x="268.47098"
       y="253.54025"><tspan
         x="268.47098"
         y="253.54025"
         id="tspan120"
         style="stroke-width:0.766985">5</tspan></text><text
       style="font-variant:normal;font-weight:normal;font-size:7.66985px;font-family:'DejaVu Sans';-inkscape-font-specification:DejaVuSans;writing-mode:lr-tb;fill:#000000;fill-opacity:1;fill-rule:nonzero;stroke:none;stroke-width:0.766985"
       id="text140"
       x="311.43655"
       y="253.54025"><tspan
         x="311.43655"
         y="253.54025"
         id="tspan138"
         style="stroke-width:0.766985">6</tspan></text><text
       style="font-variant:normal;font-weight:normal;font-size:7.66985px;font-family:'DejaVu Sans';-inkscape-font-specification:DejaVuSans;writing-mode:lr-tb;fill:#000000;fill-opacity:1;fill-rule:nonzero;stroke:none;stroke-width:0.766985"
       id="text144"
       x="146.61407"
       y="264.02658"><tspan
         x="146.61407 152.5582 157.27515 162.13783 166.83177 174.30222 176.43443 180.65285 183.09186 187.9622 190.09442 194.09042 197.097 201.79861 206.66129 210.87973 215.59668 218.03569 220.62042 223.05942 229.6785 234.54886"
         y="264.02658"
         sodipodi:role="line"
         id="tspan142"
         style="stroke-width:0.766985">Genomic distance / Mbp</tspan></text><text
       style="font-variant:normal;font-weight:normal;font-size:7.66985px;font-family:'DejaVu Sans';-inkscape-font-specification:DejaVuSans;writing-mode:lr-tb;fill:#000000;fill-opacity:1;fill-rule:nonzero;stroke:none;stroke-width:0.766985"
       id="text162"
       x="38.513069"
       y="245.25922"><tspan
         x="38.513069 43.391098 45.830109"
         y="245.25922"
         sodipodi:role="line"
         id="tspan160"
         style="stroke-width:0.766985">0.0</tspan></text><text
       style="font-variant:normal;font-weight:normal;font-size:7.66985px;font-family:'DejaVu Sans';-inkscape-font-specification:DejaVuSans;writing-mode:lr-tb;fill:#000000;fill-opacity:1;fill-rule:nonzero;stroke:none;stroke-width:0.766985"
       id="text180"
       x="38.513069"
       y="204.43845"><tspan
         x="38.513069 43.391098 45.830109"
         y="204.43845"
         sodipodi:role="line"
         id="tspan178"
         style="stroke-width:0.766985">0.2</tspan></text><text
       style="font-variant:normal;font-weight:normal;font-size:7.66985px;font-family:'DejaVu Sans';-inkscape-font-specification:DejaVuSans;writing-mode:lr-tb;fill:#000000;fill-opacity:1;fill-rule:nonzero;stroke:none;stroke-width:0.766985"
       id="text198"
       x="38.513069"
       y="163.61768"><tspan
         x="38.513069 43.391098 45.830109"
         y="163.61768"
         sodipodi:role="line"
         id="tspan196"
         style="stroke-width:0.766985">0.4</tspan></text><text
       style="font-variant:normal;font-weight:normal;font-size:7.66985px;font-family:'DejaVu Sans';-inkscape-font-specification:DejaVuSans;writing-mode:lr-tb;fill:#000000;fill-opacity:1;fill-rule:nonzero;stroke:none;stroke-width:0.766985"
       id="text216"
       x="38.513069"
       y="122.7969"><tspan
         x="38.513069 43.391098 45.830109"
         y="122.7969"
         sodipodi:role="line"
         id="tspan214"
         style="stroke-width:0.766985">0.6</tspan></text><text
       style="font-variant:normal;font-weight:normal;font-size:7.66985px;font-family:'DejaVu Sans';-inkscape-font-specification:DejaVuSans;writing-mode:lr-tb;fill:#000000;fill-opacity:1;fill-rule:nonzero;stroke:none;stroke-width:0.766985"
       id="text234"
       x="38.513069"
       y="81.976143"><tspan
         x="38.513069 43.391098 45.830109"
         y="81.976143"
         sodipodi:role="line"
         id="tspan232"
         style="stroke-width:0.766985">0.8</tspan></text><text
       style="font-variant:normal;font-weight:normal;font-size:7.66985px;font-family:'DejaVu Sans';-inkscape-font-specification:DejaVuSans;writing-mode:lr-tb;fill:#000000;fill-opacity:1;fill-rule:nonzero;stroke:none;stroke-width:0.766985"
       id="text252"
       x="38.513069"
       y="41.15543"><tspan
         x="38.513069 43.391098 45.830109"
         y="41.15543"
         sodipodi:role="line"
         id="tspan250"
         style="stroke-width:0.766985">1.0</tspan></text><text
       transform="rotate(-90)"
       style="font-variant:normal;font-weight:normal;font-size:7.66985px;font-family:'DejaVu Sans';-inkscape-font-specification:DejaVuSans;writing-mode:lr-tb;fill:#000000;fill-opacity:1;fill-rule:nonzero;stroke:none;stroke-width:0.766985"
       id="text256"
       x="-177.3501"
       y="33.851246"><tspan
         x="-177.3501 -172.72519 -168.00822 -163.30661 -160.1543 -156.15833 -151.46436 -146.60168 -144.16267 -139.94426 -135.25032 -132.09799 -128.94569 -124.22874 -122.09651 -117.3949 -114.38833 -112.2561 -107.56216"
         y="33.851246"
         sodipodi:role="line"
         id="tspan254"
         style="stroke-width:0.766985">Pearson correlation</tspan></text><text
       style="font-variant:normal;font-weight:normal;font-size:9.20382px;font-family:'DejaVu Sans';-inkscape-font-specification:DejaVuSans;writing-mode:lr-tb;fill:#000000;fill-opacity:1;fill-rule:nonzero;stroke:none;stroke-width:0.766985"
       id="text330"
       x="98.317986"
       y="23.325422"><tspan
         x="98.317986 103.86789 109.52824 115.17018 118.95295 123.74813 129.38089 135.21609 138.14291 143.205 148.83774 152.62053 156.40327 162.06363 164.62228 170.26424 173.87213 176.43079 182.06354 187.89873 190.82556 196.27422 201.06941 203.99622 206.92305 212.76747 218.42781 224.263 229.89577 238.86028 241.41893 246.48103 249.40787 255.25229 257.81094 262.60614 266.21402 271.85596 277.69116 282.75327"
         y="23.325422"
         sodipodi:role="line"
         id="tspan328"
         style="stroke-width:0.766985">Pearson correlation vs. genomic distance</tspan></text><text
       style="font-variant:normal;font-weight:normal;font-size:9.20382px;font-family:'DejaVu Sans';-inkscape-font-specification:DejaVuSans;writing-mode:lr-tb;fill:#000000;fill-opacity:1;fill-rule:nonzero;stroke:none;stroke-width:0.766985"
       id="text334"
       x="61.056"
       y="33.641376"><tspan
         x="61.056 68.188965 76.131859 81.985481 87.839104 93.692734 99.546356 105.39998 108.32681 111.25362 117.10725 120.03407 125.8877 128.81451 134.66814 137.59496 143.44858 146.3754 152.22902 155.15584 161.00946 166.86307 169.7899 175.64351 181.49715 184.42397 190.27759 196.13121 199.05803 204.91165 210.76529 213.69211 219.54573 225.39937 228.32617 234.17981 240.03343 242.96025 248.81386 254.66751 257.5943 263.44794 269.30157 272.22839 277.86111 283.69635 286.62314 292.66083 298.5145 304.36813 310.22177 313.14856 316.07538 321.92899"
         y="33.641376"
         sodipodi:role="line"
         id="tspan332"
         style="stroke-width:0.766985">GM12878, 1,2,4,7,9,11,13,14,16,17,18,20,22 on K562, 19</tspan></text><text
       style="font-variant:normal;font-weight:normal;font-size:7.66983px;font-family:'DejaVu Sans';-inkscape-font-specification:DejaVuSans;writing-mode:lr-tb;fill:#000000;fill-opacity:1;fill-rule:nonzero;stroke:none;stroke-width:0.766983"
       id="text340"
       x="101.23437"
       y="176.72197"><tspan
         x="101.23437 106.11238 110.99041 113.42941 118.14636 123.01672 125.45573 128.04047 130.47949 135.72566 141.34 146.69354 149.27827 151.7173 156.59531 159.03432 163.91235 168.79037"
         y="176.72197"
         sodipodi:role="line"
         id="tspan338"
         style="stroke-width:0.766983">20 ep / AUC: 0.459</tspan></text><text
       style="font-variant:normal;font-weight:normal;font-size:7.66983px;font-family:'DejaVu Sans';-inkscape-font-specification:DejaVuSans;writing-mode:lr-tb;fill:#000000;fill-opacity:1;fill-rule:nonzero;stroke:none;stroke-width:0.766983"
       id="text346"
       x="101.23437"
       y="187.97507"><tspan
         x="101.23437 106.11238 110.99041 113.42941 118.14636 123.01672 125.45573 128.04047 130.47949 135.72566 141.34 146.69354 149.27827 151.7173 156.59531 159.03432 163.91235 168.79037"
         y="187.97507"
         sodipodi:role="line"
         id="tspan344"
         style="stroke-width:0.766983">40 ep / AUC: 0.509</tspan></text><text
       style="font-variant:normal;font-weight:normal;font-size:7.66983px;font-family:'DejaVu Sans';-inkscape-font-specification:DejaVuSans;writing-mode:lr-tb;fill:#000000;fill-opacity:1;fill-rule:nonzero;stroke:none;stroke-width:0.766983"
       id="text352"
       x="101.23437"
       y="199.22818"><tspan
         x="101.23437 106.11238 110.99041 113.42941 118.14636 123.01672 125.45573 128.04047 130.47949 135.72566 141.34 146.69354 149.27827 151.7173 156.59531 159.03432 163.91235 168.79037"
         y="199.22818"
         sodipodi:role="line"
         id="tspan350"
         style="stroke-width:0.766983">60 ep / AUC: 0.516</tspan></text><text
       style="font-variant:normal;font-weight:normal;font-size:7.66983px;font-family:'DejaVu Sans';-inkscape-font-specification:DejaVuSans;writing-mode:lr-tb;fill:#000000;fill-opacity:1;fill-rule:nonzero;stroke:none;stroke-width:0.766983"
       id="text358"
       x="101.23437"
       y="210.48129"><tspan
         x="101.23437 106.11238 110.99041 113.42941 118.14636 123.01672 125.45573 128.04047 130.47949 135.72566 141.34 146.69354 149.27827 151.7173 156.59531 159.03432 163.91235 168.79037"
         y="210.48129"
         sodipodi:role="line"
         id="tspan356"
         style="stroke-width:0.766983">80 ep / AUC: 0.516</tspan></text><text
       style="font-variant:normal;font-weight:normal;font-size:7.66983px;font-family:'DejaVu Sans';-inkscape-font-specification:DejaVuSans;writing-mode:lr-tb;fill:#000000;fill-opacity:1;fill-rule:nonzero;stroke:none;stroke-width:0.766983"
       id="text364"
       x="101.23437"
       y="221.73439"><tspan
         x="101.23437 106.11238 110.99041 115.86842 118.30743 123.02441 127.89473 130.33377 132.9185 135.3575 140.60368 146.21802 151.57158 154.15631 156.59531 161.47336 163.91235 168.79037 173.6684"
         y="221.73439"
         sodipodi:role="line"
         id="tspan362"
         style="stroke-width:0.766983">100 ep / AUC: 0.518</tspan></text></g></svg>
