<?xml version="1.0" encoding="UTF-8" standalone="no"?>
<svg
   xmlns:dc="http://purl.org/dc/elements/1.1/"
   xmlns:cc="http://creativecommons.org/ns#"
   xmlns:rdf="http://www.w3.org/1999/02/22-rdf-syntax-ns#"
   xmlns:svg="http://www.w3.org/2000/svg"
   xmlns="http://www.w3.org/2000/svg"
   xmlns:sodipodi="http://sodipodi.sourceforge.net/DTD/sodipodi-0.dtd"
   xmlns:inkscape="http://www.inkscape.org/namespaces/inkscape"
   version="1.1"
   id="svg2"
   xml:space="preserve"
   width="80mm"
   height="65.300003mm"
   viewBox="0 0 302.36219 246.80316"
   sodipodi:docname="pearson_chr03.svg"
   inkscape:version="1.0.2 (1.0.2+r75+1)"><metadata
     id="metadata8"><rdf:RDF><cc:Work
         rdf:about=""><dc:format>image/svg+xml</dc:format><dc:type
           rdf:resource="http://purl.org/dc/dcmitype/StillImage" /><dc:title></dc:title></cc:Work></rdf:RDF></metadata><defs
     id="defs6"><clipPath
       clipPathUnits="userSpaceOnUse"
       id="clipPath22"><path
         d="M 57.6,38.016 H 414.72 V 304.128 H 57.6 Z"
         id="path20" /></clipPath><clipPath
       clipPathUnits="userSpaceOnUse"
       id="clipPath40"><path
         d="M 57.6,38.016 H 414.72 V 304.128 H 57.6 Z"
         id="path38" /></clipPath><clipPath
       clipPathUnits="userSpaceOnUse"
       id="clipPath58"><path
         d="M 57.6,38.016 H 414.72 V 304.128 H 57.6 Z"
         id="path56" /></clipPath><clipPath
       clipPathUnits="userSpaceOnUse"
       id="clipPath76"><path
         d="M 57.6,38.016 H 414.72 V 304.128 H 57.6 Z"
         id="path74" /></clipPath><clipPath
       clipPathUnits="userSpaceOnUse"
       id="clipPath94"><path
         d="M 57.6,38.016 H 414.72 V 304.128 H 57.6 Z"
         id="path92" /></clipPath><clipPath
       clipPathUnits="userSpaceOnUse"
       id="clipPath112"><path
         d="M 57.6,38.016 H 414.72 V 304.128 H 57.6 Z"
         id="path110" /></clipPath><clipPath
       clipPathUnits="userSpaceOnUse"
       id="clipPath130"><path
         d="M 57.6,38.016 H 414.72 V 304.128 H 57.6 Z"
         id="path128" /></clipPath><clipPath
       clipPathUnits="userSpaceOnUse"
       id="clipPath148"><path
         d="M 57.6,38.016 H 414.72 V 304.128 H 57.6 Z"
         id="path146" /></clipPath><clipPath
       clipPathUnits="userSpaceOnUse"
       id="clipPath170"><path
         d="M 57.6,38.016 H 414.72 V 304.128 H 57.6 Z"
         id="path168" /></clipPath><clipPath
       clipPathUnits="userSpaceOnUse"
       id="clipPath188"><path
         d="M 57.6,38.016 H 414.72 V 304.128 H 57.6 Z"
         id="path186" /></clipPath><clipPath
       clipPathUnits="userSpaceOnUse"
       id="clipPath206"><path
         d="M 57.6,38.016 H 414.72 V 304.128 H 57.6 Z"
         id="path204" /></clipPath><clipPath
       clipPathUnits="userSpaceOnUse"
       id="clipPath224"><path
         d="M 57.6,38.016 H 414.72 V 304.128 H 57.6 Z"
         id="path222" /></clipPath><clipPath
       clipPathUnits="userSpaceOnUse"
       id="clipPath242"><path
         d="M 57.6,38.016 H 414.72 V 304.128 H 57.6 Z"
         id="path240" /></clipPath><clipPath
       clipPathUnits="userSpaceOnUse"
       id="clipPath260"><path
         d="M 57.6,38.016 H 414.72 V 304.128 H 57.6 Z"
         id="path258" /></clipPath><clipPath
       clipPathUnits="userSpaceOnUse"
       id="clipPath282"><path
         d="M 57.6,38.016 H 414.72 V 304.128 H 57.6 Z"
         id="path280" /></clipPath><clipPath
       clipPathUnits="userSpaceOnUse"
       id="clipPath292"><path
         d="M 57.6,38.016 H 414.72 V 304.128 H 57.6 Z"
         id="path290" /></clipPath><clipPath
       clipPathUnits="userSpaceOnUse"
       id="clipPath302"><path
         d="M 57.6,38.016 H 414.72 V 304.128 H 57.6 Z"
         id="path300" /></clipPath><clipPath
       clipPathUnits="userSpaceOnUse"
       id="clipPath312"><path
         d="M 57.6,38.016 H 414.72 V 304.128 H 57.6 Z"
         id="path310" /></clipPath><clipPath
       clipPathUnits="userSpaceOnUse"
       id="clipPath322"><path
         d="M 57.6,38.016 H 414.72 V 304.128 H 57.6 Z"
         id="path320" /></clipPath><clipPath
       clipPathUnits="userSpaceOnUse"
       id="clipPath332"><path
         d="M 57.6,38.016 H 414.72 V 304.128 H 57.6 Z"
         id="path330" /></clipPath></defs><sodipodi:namedview
     pagecolor="#ffffff"
     bordercolor="#666666"
     borderopacity="1"
     objecttolerance="10"
     gridtolerance="10"
     guidetolerance="10"
     inkscape:pageopacity="0"
     inkscape:pageshadow="2"
     inkscape:window-width="1920"
     inkscape:window-height="1020"
     id="namedview4"
     showgrid="false"
     fit-margin-top="0"
     fit-margin-left="0"
     fit-margin-right="0"
     fit-margin-bottom="0"
     units="mm"
     inkscape:zoom="1.8598091"
     inkscape:cx="190.77479"
     inkscape:cy="144.73261"
     inkscape:window-x="0"
     inkscape:window-y="0"
     inkscape:window-maximized="1"
     inkscape:current-layer="layer1" /><g
     id="g10"
     inkscape:groupmode="layer"
     inkscape:label="pearson_chr03"
     transform="matrix(1.3333333,0,0,-1.3333333,-28.023958,443.59358)"><g
       id="g328"
       clip-path="url(#clipPath332)"
       style="stroke:#d62728;stroke-opacity:1"
       transform="matrix(0.57526416,0,0,0.57526416,8.927085,141.98474)"><path
         d="m 57.6,249.59067 5.668571,-5.03852 5.668572,-4.18733 5.668571,-2.46767 5.668572,0.37439 5.668571,1.72112 5.668572,-0.004 5.668571,1.51314 5.66857,1.39577 5.66857,-0.89786 5.66857,1.96613 5.66858,1.33749 5.66857,-0.53189 5.66857,-2.68686 5.66857,-1.81133 5.66857,-4.1856 5.66857,-2.53148 5.66857,-1.62903 5.66858,-2.88153 5.66857,-2.91804 5.66857,-4.21862 5.66857,0.17346 5.66857,-1.68093 5.66857,-2.96491 5.66857,-2.59023 5.66858,-1.97438 5.66857,-1.69155 5.66857,-6.55182 5.66857,3.0325 5.66857,-1.88589 5.66857,1.14505 5.66857,-1.59183 5.66858,0.42152 5.66857,-0.92409 5.66857,-3.43764 5.66857,0.65537 5.66857,0.34486 5.66857,-2.51059 5.66857,5.26589 5.66858,0.2239 5.66857,-1.05603 5.66857,-1.41809 5.66857,-0.18235 5.66857,1.59826 5.66857,3.46085 5.66857,-1.19037 5.66858,-2.84335 5.66857,-0.1945 5.66857,6.00871 5.66857,-1.8039 5.66857,-5.30133 5.66857,6.73212 5.66857,-2.78949 5.66858,-5.02578 5.66857,-2.16497 5.66857,5.86576 5.66857,-1.69485 5.66857,-2.8213 5.66857,0.0801 5.66857,2.4624 5.66858,0.61762 5.66857,0.28287 5.66857,-2.82845 5.66857,3.48401"
         style="fill:none;stroke:#d62728;stroke-width:1.5;stroke-linecap:square;stroke-linejoin:round;stroke-miterlimit:10;stroke-dasharray:none;stroke-opacity:1"
         id="path334" /></g><g
       id="g16"
       transform="matrix(0.57526416,0,0,0.57526416,8.927085,141.98474)"><g
         id="g18"
         clip-path="url(#clipPath22)"><path
           d="M 57.6,38.016 V 304.128"
           style="fill:none;stroke:#b0b0b0;stroke-width:0.8;stroke-linecap:square;stroke-linejoin:round;stroke-miterlimit:10;stroke-dasharray:none;stroke-opacity:1"
           id="path24" /></g></g><path
       d="m 42.062301,163.85398 v -2.01342"
       style="fill:#000000;fill-opacity:1;fill-rule:nonzero;stroke:#000000;stroke-width:0.460211;stroke-linecap:butt;stroke-linejoin:round;stroke-miterlimit:10;stroke-dasharray:none;stroke-opacity:1"
       id="path28" /><g
       id="g34"
       transform="matrix(0.57526416,0,0,0.57526416,8.927085,141.98474)"><g
         id="g36"
         clip-path="url(#clipPath40)"><path
           d="M 102.94857,38.016 V 304.128"
           style="fill:none;stroke:#b0b0b0;stroke-width:0.8;stroke-linecap:square;stroke-linejoin:round;stroke-miterlimit:10;stroke-dasharray:none;stroke-opacity:1"
           id="path42" /></g></g><path
       d="m 68.149706,163.85398 v -2.01342"
       style="fill:#000000;fill-opacity:1;fill-rule:nonzero;stroke:#000000;stroke-width:0.460211;stroke-linecap:butt;stroke-linejoin:round;stroke-miterlimit:10;stroke-dasharray:none;stroke-opacity:1"
       id="path46" /><g
       id="g52"
       transform="matrix(0.57526416,0,0,0.57526416,8.927085,141.98474)"><g
         id="g54"
         clip-path="url(#clipPath58)"><path
           d="M 148.29714,38.016 V 304.128"
           style="fill:none;stroke:#b0b0b0;stroke-width:0.8;stroke-linecap:square;stroke-linejoin:round;stroke-miterlimit:10;stroke-dasharray:none;stroke-opacity:1"
           id="path60" /></g></g><path
       d="m 94.237113,163.85398 v -2.01342"
       style="fill:#000000;fill-opacity:1;fill-rule:nonzero;stroke:#000000;stroke-width:0.460211;stroke-linecap:butt;stroke-linejoin:round;stroke-miterlimit:10;stroke-dasharray:none;stroke-opacity:1"
       id="path64" /><g
       id="g70"
       transform="matrix(0.57526416,0,0,0.57526416,8.927085,141.98474)"><g
         id="g72"
         clip-path="url(#clipPath76)"><path
           d="M 193.64571,38.016 V 304.128"
           style="fill:none;stroke:#b0b0b0;stroke-width:0.8;stroke-linecap:square;stroke-linejoin:round;stroke-miterlimit:10;stroke-dasharray:none;stroke-opacity:1"
           id="path78" /></g></g><path
       d="m 120.32452,163.85398 v -2.01342"
       style="fill:#000000;fill-opacity:1;fill-rule:nonzero;stroke:#000000;stroke-width:0.460211;stroke-linecap:butt;stroke-linejoin:round;stroke-miterlimit:10;stroke-dasharray:none;stroke-opacity:1"
       id="path82" /><g
       id="g88"
       transform="matrix(0.57526416,0,0,0.57526416,8.927085,141.98474)"><g
         id="g90"
         clip-path="url(#clipPath94)"><path
           d="M 238.99429,38.016 V 304.128"
           style="fill:none;stroke:#b0b0b0;stroke-width:0.8;stroke-linecap:square;stroke-linejoin:round;stroke-miterlimit:10;stroke-dasharray:none;stroke-opacity:1"
           id="path96" /></g></g><path
       d="m 146.41193,163.85398 v -2.01342"
       style="fill:#000000;fill-opacity:1;fill-rule:nonzero;stroke:#000000;stroke-width:0.460211;stroke-linecap:butt;stroke-linejoin:round;stroke-miterlimit:10;stroke-dasharray:none;stroke-opacity:1"
       id="path100" /><g
       id="g106"
       transform="matrix(0.57526416,0,0,0.57526416,8.927085,141.98474)"><g
         id="g108"
         clip-path="url(#clipPath112)"><path
           d="M 284.34286,38.016 V 304.128"
           style="fill:none;stroke:#b0b0b0;stroke-width:0.8;stroke-linecap:square;stroke-linejoin:round;stroke-miterlimit:10;stroke-dasharray:none;stroke-opacity:1"
           id="path114" /></g></g><path
       d="m 172.49934,163.85398 v -2.01342"
       style="fill:#000000;fill-opacity:1;fill-rule:nonzero;stroke:#000000;stroke-width:0.460211;stroke-linecap:butt;stroke-linejoin:round;stroke-miterlimit:10;stroke-dasharray:none;stroke-opacity:1"
       id="path118" /><g
       id="g124"
       transform="matrix(0.57526416,0,0,0.57526416,8.927085,141.98474)"><g
         id="g126"
         clip-path="url(#clipPath130)"><path
           d="M 329.69143,38.016 V 304.128"
           style="fill:none;stroke:#b0b0b0;stroke-width:0.8;stroke-linecap:square;stroke-linejoin:round;stroke-miterlimit:10;stroke-dasharray:none;stroke-opacity:1"
           id="path132" /></g></g><path
       d="m 198.58675,163.85398 v -2.01342"
       style="fill:#000000;fill-opacity:1;fill-rule:nonzero;stroke:#000000;stroke-width:0.460211;stroke-linecap:butt;stroke-linejoin:round;stroke-miterlimit:10;stroke-dasharray:none;stroke-opacity:1"
       id="path136" /><g
       id="g142"
       transform="matrix(0.57526416,0,0,0.57526416,8.927085,141.98474)"><g
         id="g144"
         clip-path="url(#clipPath148)"><path
           d="M 375.04,38.016 V 304.128"
           style="fill:none;stroke:#b0b0b0;stroke-width:0.8;stroke-linecap:square;stroke-linejoin:round;stroke-miterlimit:10;stroke-dasharray:none;stroke-opacity:1"
           id="path150" /></g></g><path
       d="m 224.67415,163.85398 v -2.01342"
       style="fill:#000000;fill-opacity:1;fill-rule:nonzero;stroke:#000000;stroke-width:0.460211;stroke-linecap:butt;stroke-linejoin:round;stroke-miterlimit:10;stroke-dasharray:none;stroke-opacity:1"
       id="path154" /><g
       id="g164"
       transform="matrix(0.57526416,0,0,0.57526416,8.927085,141.98474)"><g
         id="g166"
         clip-path="url(#clipPath170)"><path
           d="M 57.6,38.016 H 414.72"
           style="fill:none;stroke:#b0b0b0;stroke-width:0.8;stroke-linecap:square;stroke-linejoin:round;stroke-miterlimit:10;stroke-dasharray:none;stroke-opacity:1"
           id="path172" /></g></g><path
       d="M 42.062301,163.85398 H 40.048876"
       style="fill:#000000;fill-opacity:1;fill-rule:nonzero;stroke:#000000;stroke-width:0.460211;stroke-linecap:butt;stroke-linejoin:round;stroke-miterlimit:10;stroke-dasharray:none;stroke-opacity:1"
       id="path176" /><g
       id="g182"
       transform="matrix(0.57526416,0,0,0.57526416,8.927085,141.98474)"><g
         id="g184"
         clip-path="url(#clipPath188)"><path
           d="M 57.6,91.2384 H 414.72"
           style="fill:none;stroke:#b0b0b0;stroke-width:0.8;stroke-linecap:square;stroke-linejoin:round;stroke-miterlimit:10;stroke-dasharray:none;stroke-opacity:1"
           id="path190" /></g></g><path
       d="M 42.062301,194.47091 H 40.048876"
       style="fill:#000000;fill-opacity:1;fill-rule:nonzero;stroke:#000000;stroke-width:0.460211;stroke-linecap:butt;stroke-linejoin:round;stroke-miterlimit:10;stroke-dasharray:none;stroke-opacity:1"
       id="path194" /><g
       id="g200"
       transform="matrix(0.57526416,0,0,0.57526416,8.927085,141.98474)"><g
         id="g202"
         clip-path="url(#clipPath206)"><path
           d="M 57.6,144.4608 H 414.72"
           style="fill:none;stroke:#b0b0b0;stroke-width:0.8;stroke-linecap:square;stroke-linejoin:round;stroke-miterlimit:10;stroke-dasharray:none;stroke-opacity:1"
           id="path208" /></g></g><path
       d="M 42.062301,225.08786 H 40.048876"
       style="fill:#000000;fill-opacity:1;fill-rule:nonzero;stroke:#000000;stroke-width:0.460211;stroke-linecap:butt;stroke-linejoin:round;stroke-miterlimit:10;stroke-dasharray:none;stroke-opacity:1"
       id="path212" /><g
       id="g218"
       transform="matrix(0.57526416,0,0,0.57526416,8.927085,141.98474)"><g
         id="g220"
         clip-path="url(#clipPath224)"><path
           d="M 57.6,197.6832 H 414.72"
           style="fill:none;stroke:#b0b0b0;stroke-width:0.8;stroke-linecap:square;stroke-linejoin:round;stroke-miterlimit:10;stroke-dasharray:none;stroke-opacity:1"
           id="path226" /></g></g><path
       d="M 42.062301,255.70479 H 40.048876"
       style="fill:#000000;fill-opacity:1;fill-rule:nonzero;stroke:#000000;stroke-width:0.460211;stroke-linecap:butt;stroke-linejoin:round;stroke-miterlimit:10;stroke-dasharray:none;stroke-opacity:1"
       id="path230" /><g
       id="g236"
       transform="matrix(0.57526416,0,0,0.57526416,8.927085,141.98474)"><g
         id="g238"
         clip-path="url(#clipPath242)"><path
           d="M 57.6,250.9056 H 414.72"
           style="fill:none;stroke:#b0b0b0;stroke-width:0.8;stroke-linecap:square;stroke-linejoin:round;stroke-miterlimit:10;stroke-dasharray:none;stroke-opacity:1"
           id="path244" /></g></g><path
       d="M 42.062301,286.32173 H 40.048876"
       style="fill:#000000;fill-opacity:1;fill-rule:nonzero;stroke:#000000;stroke-width:0.460211;stroke-linecap:butt;stroke-linejoin:round;stroke-miterlimit:10;stroke-dasharray:none;stroke-opacity:1"
       id="path248" /><g
       id="g254"
       transform="matrix(0.57526416,0,0,0.57526416,8.927085,141.98474)"><g
         id="g256"
         clip-path="url(#clipPath260)"><path
           d="M 57.6,304.128 H 414.72"
           style="fill:none;stroke:#b0b0b0;stroke-width:0.8;stroke-linecap:square;stroke-linejoin:round;stroke-miterlimit:10;stroke-dasharray:none;stroke-opacity:1"
           id="path262" /></g></g><path
       d="M 42.062301,316.93867 H 40.048876"
       style="fill:#000000;fill-opacity:1;fill-rule:nonzero;stroke:#000000;stroke-width:0.460211;stroke-linecap:butt;stroke-linejoin:round;stroke-miterlimit:10;stroke-dasharray:none;stroke-opacity:1"
       id="path266" /><g
       id="g278"
       clip-path="url(#clipPath282)"
       transform="matrix(0.57526416,0,0,0.57526416,8.927085,141.98474)"><path
         d="m 69.878632,-1 4.727082,253.86136 5.668572,-4.22191 5.668571,-7.78238 5.668572,-3.6626 5.668571,-2.35756 5.66857,-4.09789 5.66857,-1.61319 5.66857,-4.17773 5.66858,-3.83164 5.66857,-1.80811 5.66857,-1.81542 5.66857,0.2837 5.66857,-0.41706 5.66857,-0.24638 5.66857,0.39426 5.66858,-3.44084 5.66857,-0.82929 5.66857,-3.36943 5.66857,-4.1136 5.66857,-5.04058 5.66857,-3.75476 5.66857,-0.031 5.66858,-3.42276 5.66857,-2.93229 5.66857,0.27695 5.66857,-2.1522 5.66857,-1.93122 5.66857,-5.06712 5.66857,0.9771 5.66858,-5.51084 5.66857,0.10687 5.66857,-1.40286 5.66857,-0.90442 5.66857,-3.14018 5.66857,-1.68326 5.66857,-6.51246 5.66858,-3.95591 5.66857,1.43275 5.66857,-0.40234 5.66857,-5.28828 5.66857,1.06115 5.66857,-5.32121 5.66857,-1.54072 5.66858,2.28634 5.66857,-1.26123 5.66857,-4.13491 5.66857,0.97867 5.66857,0.93627 5.66857,-1.93822 5.66857,-3.67569 5.66858,4.46865 5.66857,0.39596 5.66857,-4.22732 5.66857,1.06267 5.66857,0.72854 5.66857,-7.23992 5.66857,1.72554 5.66858,-3.78702 5.66857,1.84186 5.66857,-4.66663 5.66857,-26.81524"
         style="fill:none;stroke:#1f77b4;stroke-width:1.5;stroke-linecap:square;stroke-linejoin:round;stroke-miterlimit:10;stroke-dasharray:none;stroke-opacity:1"
         id="path284" /></g><g
       id="g288"
       clip-path="url(#clipPath292)"
       transform="matrix(0.57526416,0,0,0.57526416,8.927085,141.98474)"><path
         d="m 57.6,263.63961 5.668571,4.14086 5.668572,-6.30233 5.668571,-7.82253 5.668572,-7.24302 5.668571,-7.95331 5.668572,-3.9301 5.668571,-1.58128 5.66857,-3.3678 5.66857,-2.03781 5.66857,-3.80178 5.66858,-3.99588 5.66857,-2.01381 5.66857,-1.36267 5.66857,0.77848 5.66857,-0.36369 5.66857,0.14986 5.66857,0.78308 5.66858,-3.56214 5.66857,-0.79122 5.66857,-2.65134 5.66857,-4.06698 5.66857,-3.89162 5.66857,-3.43805 5.66857,0.60312 5.66858,-3.06156 5.66857,-2.31583 5.66857,0.78634 5.66857,-1.24283 5.66857,-2.1837 5.66857,-4.11925 5.66857,1.32715 5.66858,-5.55572 5.66857,0.73859 5.66857,-0.94286 5.66857,-0.87555 5.66857,-2.54941 5.66857,-2.75869 5.66857,-5.763 5.66858,-3.47995 5.66857,1.03772 5.66857,-0.3845 5.66857,-5.35544 5.66857,0.90819 5.66857,-3.61533 5.66857,-2.38624 5.66858,3.53744 5.66857,-1.7143 5.66857,-3.51978 5.66857,0.63766 5.66857,0.41213 5.66857,-3.16252 5.66857,-2.32389 5.66858,2.38728 5.66857,-0.37752 5.66857,-5.43586 5.66857,2.3615 5.66857,-2.18192 5.66857,-1.36597 5.66857,-2.74211 5.66858,-4.18381 5.66857,-5.9526 5.66857,-1.66019 5.66857,-5.46188"
         style="fill:none;stroke:#ff7f0e;stroke-width:1.5;stroke-linecap:square;stroke-linejoin:round;stroke-miterlimit:10;stroke-dasharray:none;stroke-opacity:1"
         id="path294" /></g><g
       id="g298"
       clip-path="url(#clipPath302)"
       transform="matrix(0.57526416,0,0,0.57526416,8.927085,141.98474)"><path
         d="m 57.6,260.59028 5.668571,4.52854 5.668572,-6.15896 5.668571,-7.02418 5.668572,-7.4624 5.668571,-7.88977 5.668572,-4.28479 5.668571,-2.06222 5.66857,-3.52051 5.66857,-1.63223 5.66857,-3.73913 5.66858,-4.04351 5.66857,-1.93428 5.66857,-0.93324 5.66857,0.53772 5.66857,-0.34242 5.66857,-0.32864 5.66857,0.34905 5.66858,-3.57234 5.66857,-0.77879 5.66857,-2.56369 5.66857,-3.52231 5.66857,-3.51708 5.66857,-3.07222 5.66857,-0.24786 5.66858,-2.70672 5.66857,-1.58915 5.66857,0.82797 5.66857,-1.13638 5.66857,-2.00127 5.66857,-3.65246 5.66857,1.48651 5.66858,-5.31502 5.66857,0.80298 5.66857,-0.59 5.66857,-2.92241 5.66857,-2.39229 5.66857,-3.94249 5.66857,-5.35658 5.66858,-4.33922 5.66857,1.68269 5.66857,-2.12315 5.66857,-4.18873 5.66857,0.79278 5.66857,-2.93981 5.66857,-3.03658 5.66858,3.59101 5.66857,-1.5966 5.66857,-3.44093 5.66857,1.07866 5.66857,1.51228 5.66857,-3.21233 5.66857,-0.54042 5.66858,1.80403 5.66857,-0.35581 5.66857,-6.84818 5.66857,3.5481 5.66857,-2.99723 5.66857,-0.17089 5.66857,-1.16438 5.66858,-4.03482 5.66857,-10.04986 5.66857,0.27932 5.66857,-7.17543"
         style="fill:none;stroke:#2ca02c;stroke-width:1.5;stroke-linecap:square;stroke-linejoin:round;stroke-miterlimit:10;stroke-dasharray:none;stroke-opacity:1"
         id="path304" /></g><g
       id="g308"
       clip-path="url(#clipPath312)"
       style="stroke:#8c564b;stroke-opacity:1"
       transform="matrix(0.57526416,0,0,0.57526416,8.927085,141.98474)"><path
         d="m 57.6,261.91118 5.668571,4.2158 5.668572,-6.23407 5.668571,-7.06568 5.668572,-7.38833 5.668571,-7.69072 5.668572,-4.62733 5.668571,-2.11992 5.66857,-3.77666 5.66857,-1.91842 5.66857,-4.08235 5.66858,-4.5028 5.66857,-2.12571 5.66857,-1.50924 5.66857,0.18399 5.66857,-0.44022 5.66857,-0.24262 5.66857,0.23293 5.66858,-4.02857 5.66857,-1.17537 5.66857,-2.78001 5.66857,-3.67699 5.66857,-3.5697 5.66857,-3.25348 5.66857,-0.46177 5.66858,-2.5035 5.66857,-2.04861 5.66857,0.22824 5.66857,-0.59458 5.66857,-2.3374 5.66857,-3.06666 5.66857,2.35546 5.66858,-4.5716 5.66857,0.55167 5.66857,-0.99911 5.66857,-2.72962 5.66857,-2.30562 5.66857,-3.91565 5.66857,-5.64447 5.66858,-3.61329 5.66857,0.99375 5.66857,-1.95475 5.66857,-3.76427 5.66857,0.37825 5.66857,-3.97182 5.66857,-3.12184 5.66858,2.96596 5.66857,-1.62794 5.66857,-4.17219 5.66857,0.97819 5.66857,1.09133 5.66857,-2.99711 5.66857,-0.75028 5.66858,1.93297 5.66857,-0.54367 5.66857,-7.41374 5.66857,4.24657 5.66857,-1.99008 5.66857,-0.24164 5.66857,0.003 5.66858,-2.87502 5.66857,-9.59142 5.66857,1.98591 5.66857,-7.65481"
         style="fill:none;stroke:#8c564b;stroke-width:1.5;stroke-linecap:square;stroke-linejoin:round;stroke-miterlimit:10;stroke-dasharray:none;stroke-opacity:1"
         id="path314" /></g><g
       id="g318"
       clip-path="url(#clipPath322)"
       transform="matrix(0.57526416,0,0,0.57526416,8.927085,141.98474)"><path
         d="m 57.6,261.90989 5.668571,4.79506 5.668572,-6.52422 5.668571,-7.24888 5.668572,-7.49896 5.668571,-7.66217 5.668572,-4.7632 5.668571,-2.45768 5.66857,-4.04725 5.66857,-1.93674 5.66857,-3.92112 5.66858,-4.46126 5.66857,-2.24996 5.66857,-1.4699 5.66857,-0.0783 5.66857,-0.0925 5.66857,-0.0983 5.66857,0.36371 5.66858,-3.91439 5.66857,-0.84691 5.66857,-2.27002 5.66857,-3.56068 5.66857,-2.96054 5.66857,-2.84589 5.66857,-0.31304 5.66858,-2.25023 5.66857,-1.95264 5.66857,0.63457 5.66857,-1.12653 5.66857,-2.36007 5.66857,-3.28896 5.66857,1.80808 5.66858,-4.45208 5.66857,0.79106 5.66857,-0.81223 5.66857,-3.05088 5.66857,-2.66849 5.66857,-3.21023 5.66857,-5.44403 5.66858,-3.45962 5.66857,0.83884 5.66857,-2.18172 5.66857,-4.27279 5.66857,-0.33273 5.66857,-3.53768 5.66857,-3.1882 5.66858,2.37921 5.66857,-2.94796 5.66857,-4.78594 5.66857,-0.69359 5.66857,-0.59219 5.66857,-3.07276 5.66857,-0.78426 5.66858,0.15776 5.66857,1.04498 5.66857,-7.77475 5.66857,4.26941 5.66857,-2.65848 5.66857,-1.53535 5.66857,3.44099 5.66858,-3.41563 5.66857,-11.0189 5.66857,1.49071 5.66857,-6.73796"
         style="fill:none;stroke:#9467bd;stroke-width:1.5;stroke-linecap:square;stroke-linejoin:round;stroke-miterlimit:10;stroke-dasharray:none;stroke-opacity:1"
         id="path324" /></g><path
       d="M 42.062301,163.85398 V 316.93867"
       style="fill:none;stroke:#000000;stroke-width:0.460211;stroke-linecap:square;stroke-linejoin:miter;stroke-miterlimit:10;stroke-dasharray:none;stroke-opacity:1"
       id="path338" /><path
       d="M 247.50063,163.85398 V 316.93867"
       style="fill:none;stroke:#000000;stroke-width:0.460211;stroke-linecap:square;stroke-linejoin:miter;stroke-miterlimit:10;stroke-dasharray:none;stroke-opacity:1"
       id="path340" /><path
       d="M 42.062301,163.85398 H 247.50063"
       style="fill:none;stroke:#000000;stroke-width:0.460211;stroke-linecap:square;stroke-linejoin:miter;stroke-miterlimit:10;stroke-dasharray:none;stroke-opacity:1"
       id="path342" /><path
       d="M 42.062301,316.93867 H 247.50063"
       style="fill:none;stroke:#000000;stroke-width:0.460211;stroke-linecap:square;stroke-linejoin:miter;stroke-miterlimit:10;stroke-dasharray:none;stroke-opacity:1"
       id="path344" /><path
       d="m 79.767519,215.20306 h 11.50529"
       style="fill:none;stroke:#1f77b4;stroke-width:0.862897;stroke-linecap:square;stroke-linejoin:round;stroke-miterlimit:10;stroke-dasharray:none;stroke-opacity:1"
       id="path354" /><path
       d="m 79.767519,206.76286 h 11.50529"
       style="fill:none;stroke:#ff7f0e;stroke-width:0.862897;stroke-linecap:square;stroke-linejoin:round;stroke-miterlimit:10;stroke-dasharray:none;stroke-opacity:1"
       id="path360" /><path
       d="m 79.767519,198.32266 h 11.50529"
       style="fill:none;stroke:#2ca02c;stroke-width:0.862897;stroke-linecap:square;stroke-linejoin:round;stroke-miterlimit:10;stroke-dasharray:none;stroke-opacity:1"
       id="path366" /><path
       d="m 79.767519,189.88245 h 11.50529"
       style="fill:none;stroke:#8c564b;stroke-width:0.862897;stroke-linecap:square;stroke-linejoin:round;stroke-miterlimit:10;stroke-dasharray:none;stroke-opacity:1"
       id="path372" /><path
       d="m 79.767519,181.44225 h 11.50529"
       style="fill:none;stroke:#9467bd;stroke-width:0.862897;stroke-linecap:square;stroke-linejoin:round;stroke-miterlimit:10;stroke-dasharray:none;stroke-opacity:1"
       id="path378" /><path
       d="m 79.767519,173.00204 h 11.50529"
       style="fill:none;stroke:#d62728;stroke-width:0.862897;stroke-linecap:square;stroke-linejoin:round;stroke-miterlimit:10;stroke-dasharray:none;stroke-opacity:1"
       id="path384" /></g><g
     inkscape:groupmode="layer"
     id="layer1"
     inkscape:label="text"
     style="display:inline"
     transform="translate(-28.023958,-17.206424)"><text
       style="font-variant:normal;font-weight:normal;font-size:7.67019px;font-family:'DejaVu Sans';-inkscape-font-specification:DejaVuSans;writing-mode:lr-tb;fill:#000000;fill-opacity:1;fill-rule:nonzero;stroke:none;stroke-width:0.767019"
       id="text32"
       x="53.982864"
       y="253.52151"><tspan
         x="53.982864 58.861107 61.300228"
         y="253.52151"
         sodipodi:role="line"
         id="tspan30"
         style="stroke-width:0.767019">0.0</tspan></text><text
       style="font-variant:normal;font-weight:normal;font-size:7.67019px;font-family:'DejaVu Sans';-inkscape-font-specification:DejaVuSans;writing-mode:lr-tb;fill:#000000;fill-opacity:1;fill-rule:nonzero;stroke:none;stroke-width:0.767019"
       id="text50"
       x="84.766075"
       y="253.52151"><tspan
         x="84.766075 89.644325 92.083443"
         y="253.52151"
         sodipodi:role="line"
         id="tspan48"
         style="stroke-width:0.767019">0.2</tspan></text><text
       style="font-variant:normal;font-weight:normal;font-size:7.67019px;font-family:'DejaVu Sans';-inkscape-font-specification:DejaVuSans;writing-mode:lr-tb;fill:#000000;fill-opacity:1;fill-rule:nonzero;stroke:none;stroke-width:0.767019"
       id="text68"
       x="119.54929"
       y="253.52151"><tspan
         x="119.54929 124.42754 126.86665"
         y="253.52151"
         sodipodi:role="line"
         id="tspan66"
         style="stroke-width:0.767019">0.4</tspan></text><text
       style="font-variant:normal;font-weight:normal;font-size:7.67019px;font-family:'DejaVu Sans';-inkscape-font-specification:DejaVuSans;writing-mode:lr-tb;fill:#000000;fill-opacity:1;fill-rule:nonzero;stroke:none;stroke-width:0.767019"
       id="text86"
       x="154.3325"
       y="253.52151"><tspan
         x="154.3325 159.21074 161.64986"
         y="253.52151"
         sodipodi:role="line"
         id="tspan84"
         style="stroke-width:0.767019">0.6</tspan></text><text
       style="font-variant:normal;font-weight:normal;font-size:7.67019px;font-family:'DejaVu Sans';-inkscape-font-specification:DejaVuSans;writing-mode:lr-tb;fill:#000000;fill-opacity:1;fill-rule:nonzero;stroke:none;stroke-width:0.767019"
       id="text104"
       x="189.11569"
       y="253.52151"><tspan
         x="189.11569 193.99394 196.43306"
         y="253.52151"
         sodipodi:role="line"
         id="tspan102"
         style="stroke-width:0.767019">0.8</tspan></text><text
       style="font-variant:normal;font-weight:normal;font-size:7.67019px;font-family:'DejaVu Sans';-inkscape-font-specification:DejaVuSans;writing-mode:lr-tb;fill:#000000;fill-opacity:1;fill-rule:nonzero;stroke:none;stroke-width:0.767019"
       id="text122"
       x="223.89893"
       y="253.52151"><tspan
         x="223.89893 228.77715 231.21626"
         y="253.52151"
         sodipodi:role="line"
         id="tspan120"
         style="stroke-width:0.767019">1.0</tspan></text><text
       style="font-variant:normal;font-weight:normal;font-size:7.67019px;font-family:'DejaVu Sans';-inkscape-font-specification:DejaVuSans;writing-mode:lr-tb;fill:#000000;fill-opacity:1;fill-rule:nonzero;stroke:none;stroke-width:0.767019"
       id="text140"
       x="258.68213"
       y="253.52151"><tspan
         x="258.68213 263.56036 265.99945"
         y="253.52151"
         sodipodi:role="line"
         id="tspan138"
         style="stroke-width:0.767019">1.2</tspan></text><text
       style="font-variant:normal;font-weight:normal;font-size:7.67019px;font-family:'DejaVu Sans';-inkscape-font-specification:DejaVuSans;writing-mode:lr-tb;fill:#000000;fill-opacity:1;fill-rule:nonzero;stroke:none;stroke-width:0.767019"
       id="text158"
       x="293.46533"
       y="253.52151"><tspan
         x="293.46533 298.34357 300.78268"
         y="253.52151"
         sodipodi:role="line"
         id="tspan156"
         style="stroke-width:0.767019">1.4</tspan></text><text
       style="font-variant:normal;font-weight:normal;font-size:7.67019px;font-family:'DejaVu Sans';-inkscape-font-specification:DejaVuSans;writing-mode:lr-tb;fill:#000000;fill-opacity:1;fill-rule:nonzero;stroke:none;stroke-width:0.767019"
       id="text162"
       x="146.61934"
       y="264.00839"><tspan
         x="146.61934 152.56374 157.28088 162.14378 166.83795 174.30872 176.44102 180.65964 183.09875 187.96931 190.10162 194.09779 197.10451 201.80634 206.66925 210.88786 215.60503 218.04413 220.62898 223.0681 229.68747 234.55804"
         y="264.00839"
         sodipodi:role="line"
         id="tspan160"
         style="stroke-width:0.767019">Genomic distance / Mbp</tspan></text><text
       style="font-variant:normal;font-weight:normal;font-size:7.67019px;font-family:'DejaVu Sans';-inkscape-font-specification:DejaVuSans;writing-mode:lr-tb;fill:#000000;fill-opacity:1;fill-rule:nonzero;stroke:none;stroke-width:0.767019"
       id="text180"
       x="38.513538"
       y="245.2401"><tspan
         x="38.513538 43.391781 45.830902"
         y="245.2401"
         sodipodi:role="line"
         id="tspan178"
         style="stroke-width:0.767019">0.0</tspan></text><text
       style="font-variant:normal;font-weight:normal;font-size:7.67019px;font-family:'DejaVu Sans';-inkscape-font-specification:DejaVuSans;writing-mode:lr-tb;fill:#000000;fill-opacity:1;fill-rule:nonzero;stroke:none;stroke-width:0.767019"
       id="text198"
       x="38.513538"
       y="204.41753"><tspan
         x="38.513538 43.391781 45.830902"
         y="204.41753"
         sodipodi:role="line"
         id="tspan196"
         style="stroke-width:0.767019">0.2</tspan></text><text
       style="font-variant:normal;font-weight:normal;font-size:7.67019px;font-family:'DejaVu Sans';-inkscape-font-specification:DejaVuSans;writing-mode:lr-tb;fill:#000000;fill-opacity:1;fill-rule:nonzero;stroke:none;stroke-width:0.767019"
       id="text216"
       x="38.513538"
       y="163.59492"><tspan
         x="38.513538 43.391781 45.830902"
         y="163.59492"
         sodipodi:role="line"
         id="tspan214"
         style="stroke-width:0.767019">0.4</tspan></text><text
       style="font-variant:normal;font-weight:normal;font-size:7.67019px;font-family:'DejaVu Sans';-inkscape-font-specification:DejaVuSans;writing-mode:lr-tb;fill:#000000;fill-opacity:1;fill-rule:nonzero;stroke:none;stroke-width:0.767019"
       id="text234"
       x="38.513538"
       y="122.77251"><tspan
         x="38.513538 43.391781 45.830902"
         y="122.77251"
         sodipodi:role="line"
         id="tspan232"
         style="stroke-width:0.767019">0.6</tspan></text><text
       style="font-variant:normal;font-weight:normal;font-size:7.67019px;font-family:'DejaVu Sans';-inkscape-font-specification:DejaVuSans;writing-mode:lr-tb;fill:#000000;fill-opacity:1;fill-rule:nonzero;stroke:none;stroke-width:0.767019"
       id="text252"
       x="38.513538"
       y="81.949913"><tspan
         x="38.513538 43.391781 45.830902"
         y="81.949913"
         sodipodi:role="line"
         id="tspan250"
         style="stroke-width:0.767019">0.8</tspan></text><text
       style="font-variant:normal;font-weight:normal;font-size:7.67019px;font-family:'DejaVu Sans';-inkscape-font-specification:DejaVuSans;writing-mode:lr-tb;fill:#000000;fill-opacity:1;fill-rule:nonzero;stroke:none;stroke-width:0.767019"
       id="text270"
       x="38.513538"
       y="41.127258"><tspan
         x="38.513538 43.391781 45.830902"
         y="41.127258"
         sodipodi:role="line"
         id="tspan268"
         style="stroke-width:0.767019">1.0</tspan></text><text
       transform="rotate(-90)"
       style="font-variant:normal;font-weight:normal;font-size:7.67019px;font-family:'DejaVu Sans';-inkscape-font-specification:DejaVuSans;writing-mode:lr-tb;fill:#000000;fill-opacity:1;fill-rule:nonzero;stroke:none;stroke-width:0.767019"
       id="text274"
       x="-177.32796"
       y="33.851505"><tspan
         x="-177.32796 -172.70284 -167.98567 -163.28386 -160.13139 -156.13522 -151.44107 -146.57819 -144.13907 -139.92047 -135.2263 -132.07384 -128.9214 -124.20441 -122.07209 -117.37027 -114.36356 -112.23125 -107.53709"
         y="33.851505"
         sodipodi:role="line"
         id="tspan272"
         style="stroke-width:0.767019">Pearson correlation</tspan></text><text
       style="font-variant:normal;font-weight:normal;font-size:9.20423px;font-family:'DejaVu Sans';-inkscape-font-specification:DejaVuSans;writing-mode:lr-tb;fill:#000000;fill-opacity:1;fill-rule:nonzero;stroke:none;stroke-width:0.767019"
       id="text348"
       x="98.321114"
       y="23.296495"><tspan
         x="98.321114 103.87126 109.53185 115.17406 118.95699 123.7524 129.38538 135.22087 138.1478 143.21013 148.84311 152.62605 156.40898 162.0696 164.62837 170.27057 173.87862 176.43739 182.07037 187.90584 190.83279 196.28169 201.07709 204.00404 206.931 212.77568 218.43626 224.27173 229.90474 238.86966 241.42842 246.49075 249.41769 255.26239 257.82117 262.61655 266.22461 271.86679 277.70227 282.76459"
         y="23.296495"
         sodipodi:role="line"
         id="tspan346"
         style="stroke-width:0.767019">Pearson correlation vs. genomic distance</tspan></text><text
       style="font-variant:normal;font-weight:normal;font-size:9.20423px;font-family:'DejaVu Sans';-inkscape-font-specification:DejaVuSans;writing-mode:lr-tb;fill:#000000;fill-opacity:1;fill-rule:nonzero;stroke:none;stroke-width:0.767019"
       id="text352"
       x="63.98772"
       y="33.612873"><tspan
         x="63.98772 71.120995 79.06424 84.918129 90.772018 96.625908 102.47978 108.33368 111.26064 114.18757 120.04147 122.96841 128.8223 131.74924 137.60312 140.53008 146.38396 149.3109 155.16479 158.09174 163.94562 169.79951 172.72646 178.58034 184.43423 187.36118 193.21506 199.06894 201.9959 207.84978 213.70366 216.63062 222.4845 228.33839 231.26534 237.11923 242.9731 245.90005 251.75394 257.60785 260.53479 266.38867 272.24255 275.16949 280.80246 286.63797 289.56494 295.60287 301.45676 307.31067 313.16455 316.09146 319.01843"
         y="33.612873"
         sodipodi:role="line"
         id="tspan350"
         style="stroke-width:0.767019">GM12878, 1,2,4,7,9,11,13,14,16,17,18,20,22 on K562, 3</tspan></text><text
       style="font-variant:normal;font-weight:normal;font-size:7.67019px;font-family:'DejaVu Sans';-inkscape-font-specification:DejaVuSans;writing-mode:lr-tb;fill:#000000;fill-opacity:1;fill-rule:nonzero;stroke:none;stroke-width:0.767019"
       id="text358"
       x="127.83325"
       y="176.54691"><tspan
         x="127.83325 132.71146 137.58971 140.02881 144.74597 149.61655 152.05566 154.64052 157.07965 162.32605 167.94064 173.29442 175.87926 178.31839 183.19662 185.63574 190.51398 195.39221"
         y="176.54691"
         sodipodi:role="line"
         id="tspan356"
         style="stroke-width:0.767019">20 ep / AUC: 0.506</tspan></text><text
       style="font-variant:normal;font-weight:normal;font-size:7.67019px;font-family:'DejaVu Sans';-inkscape-font-specification:DejaVuSans;writing-mode:lr-tb;fill:#000000;fill-opacity:1;fill-rule:nonzero;stroke:none;stroke-width:0.767019"
       id="text364"
       x="127.83325"
       y="187.80051"><tspan
         x="127.83325 132.71146 137.58971 140.02881 144.74597 149.61655 152.05566 154.64052 157.07965 162.32605 167.94064 173.29442 175.87926 178.31839 183.19662 185.63574 190.51398 195.39221"
         y="187.80051"
         sodipodi:role="line"
         id="tspan362"
         style="stroke-width:0.767019">40 ep / AUC: 0.567</tspan></text><text
       style="font-variant:normal;font-weight:normal;font-size:7.67019px;font-family:'DejaVu Sans';-inkscape-font-specification:DejaVuSans;writing-mode:lr-tb;fill:#000000;fill-opacity:1;fill-rule:nonzero;stroke:none;stroke-width:0.767019"
       id="text370"
       x="127.83325"
       y="199.05411"><tspan
         x="127.83325 132.71146 137.58971 140.02881 144.74597 149.61655 152.05566 154.64052 157.07965 162.32605 167.94064 173.29442 175.87926 178.31839 183.19662 185.63574 190.51398 195.39221"
         y="199.05411"
         sodipodi:role="line"
         id="tspan368"
         style="stroke-width:0.767019">60 ep / AUC: 0.560</tspan></text><text
       style="font-variant:normal;font-weight:normal;font-size:7.67019px;font-family:'DejaVu Sans';-inkscape-font-specification:DejaVuSans;writing-mode:lr-tb;fill:#000000;fill-opacity:1;fill-rule:nonzero;stroke:none;stroke-width:0.767019"
       id="text376"
       x="127.83325"
       y="210.30772"><tspan
         x="127.83325 132.71146 137.58971 140.02881 144.74597 149.61655 152.05566 154.64052 157.07965 162.32605 167.94064 173.29442 175.87926 178.31839 183.19662 185.63574 190.51398 195.39221"
         y="210.30772"
         sodipodi:role="line"
         id="tspan374"
         style="stroke-width:0.767019">80 ep / AUC: 0.550</tspan></text><text
       style="font-variant:normal;font-weight:normal;font-size:7.67019px;font-family:'DejaVu Sans';-inkscape-font-specification:DejaVuSans;writing-mode:lr-tb;fill:#000000;fill-opacity:1;fill-rule:nonzero;stroke:none;stroke-width:0.767019"
       id="text382"
       x="127.83325"
       y="221.56131"><tspan
         x="127.83325 132.71146 137.58971 142.46793 144.90704 149.62424 154.49478 156.93391 159.51877 161.95789 167.20428 172.81886 178.17267 180.75751 183.19662 188.07489 190.51398 195.39221 200.27048"
         y="221.56131"
         sodipodi:role="line"
         id="tspan380"
         style="stroke-width:0.767019">100 ep / AUC: 0.548</tspan></text><text
       style="font-variant:normal;font-weight:normal;font-size:7.67019px;font-family:'DejaVu Sans';-inkscape-font-specification:DejaVuSans;writing-mode:lr-tb;fill:#000000;fill-opacity:1;fill-rule:nonzero;stroke:none;stroke-width:0.767019"
       id="text388"
       x="127.83325"
       y="232.81493"><tspan
         x="127.83325 130.83992 133.99237 138.69421 143.55711 147.55327 150.25316 154.97035 158.12279 160.5619 166.5063 173.12567 178.00392 182.88214 187.76038 192.63861 197.51688 199.95599 202.54086 204.97995 210.22635 215.84094 221.19476 223.7796 226.21872 231.09695 233.5361 238.41431 243.29257"
         y="232.81493"
         sodipodi:role="line"
         id="tspan386"
         style="stroke-width:0.767019">transfer GM12878 / AUC: 0.671</tspan></text></g></svg>
