<?xml version="1.0" encoding="UTF-8" standalone="no"?>
<svg
   xmlns:dc="http://purl.org/dc/elements/1.1/"
   xmlns:cc="http://creativecommons.org/ns#"
   xmlns:rdf="http://www.w3.org/1999/02/22-rdf-syntax-ns#"
   xmlns:svg="http://www.w3.org/2000/svg"
   xmlns="http://www.w3.org/2000/svg"
   xmlns:sodipodi="http://sodipodi.sourceforge.net/DTD/sodipodi-0.dtd"
   xmlns:inkscape="http://www.inkscape.org/namespaces/inkscape"
   version="1.1"
   id="svg2"
   xml:space="preserve"
   width="80mm"
   height="65.300003mm"
   viewBox="0 0 302.36219 246.80316"
   sodipodi:docname="pearson_chr05.svg"
   inkscape:version="1.0.2 (1.0.2+r75+1)"><metadata
     id="metadata8"><rdf:RDF><cc:Work
         rdf:about=""><dc:format>image/svg+xml</dc:format><dc:type
           rdf:resource="http://purl.org/dc/dcmitype/StillImage" /><dc:title></dc:title></cc:Work></rdf:RDF></metadata><defs
     id="defs6"><clipPath
       clipPathUnits="userSpaceOnUse"
       id="clipPath22"><path
         d="M 57.6,38.016 H 414.72 V 304.128 H 57.6 Z"
         id="path20" /></clipPath><clipPath
       clipPathUnits="userSpaceOnUse"
       id="clipPath40"><path
         d="M 57.6,38.016 H 414.72 V 304.128 H 57.6 Z"
         id="path38" /></clipPath><clipPath
       clipPathUnits="userSpaceOnUse"
       id="clipPath58"><path
         d="M 57.6,38.016 H 414.72 V 304.128 H 57.6 Z"
         id="path56" /></clipPath><clipPath
       clipPathUnits="userSpaceOnUse"
       id="clipPath76"><path
         d="M 57.6,38.016 H 414.72 V 304.128 H 57.6 Z"
         id="path74" /></clipPath><clipPath
       clipPathUnits="userSpaceOnUse"
       id="clipPath94"><path
         d="M 57.6,38.016 H 414.72 V 304.128 H 57.6 Z"
         id="path92" /></clipPath><clipPath
       clipPathUnits="userSpaceOnUse"
       id="clipPath112"><path
         d="M 57.6,38.016 H 414.72 V 304.128 H 57.6 Z"
         id="path110" /></clipPath><clipPath
       clipPathUnits="userSpaceOnUse"
       id="clipPath130"><path
         d="M 57.6,38.016 H 414.72 V 304.128 H 57.6 Z"
         id="path128" /></clipPath><clipPath
       clipPathUnits="userSpaceOnUse"
       id="clipPath148"><path
         d="M 57.6,38.016 H 414.72 V 304.128 H 57.6 Z"
         id="path146" /></clipPath><clipPath
       clipPathUnits="userSpaceOnUse"
       id="clipPath170"><path
         d="M 57.6,38.016 H 414.72 V 304.128 H 57.6 Z"
         id="path168" /></clipPath><clipPath
       clipPathUnits="userSpaceOnUse"
       id="clipPath188"><path
         d="M 57.6,38.016 H 414.72 V 304.128 H 57.6 Z"
         id="path186" /></clipPath><clipPath
       clipPathUnits="userSpaceOnUse"
       id="clipPath206"><path
         d="M 57.6,38.016 H 414.72 V 304.128 H 57.6 Z"
         id="path204" /></clipPath><clipPath
       clipPathUnits="userSpaceOnUse"
       id="clipPath224"><path
         d="M 57.6,38.016 H 414.72 V 304.128 H 57.6 Z"
         id="path222" /></clipPath><clipPath
       clipPathUnits="userSpaceOnUse"
       id="clipPath242"><path
         d="M 57.6,38.016 H 414.72 V 304.128 H 57.6 Z"
         id="path240" /></clipPath><clipPath
       clipPathUnits="userSpaceOnUse"
       id="clipPath260"><path
         d="M 57.6,38.016 H 414.72 V 304.128 H 57.6 Z"
         id="path258" /></clipPath><clipPath
       clipPathUnits="userSpaceOnUse"
       id="clipPath282"><path
         d="M 57.6,38.016 H 414.72 V 304.128 H 57.6 Z"
         id="path280" /></clipPath><clipPath
       clipPathUnits="userSpaceOnUse"
       id="clipPath292"><path
         d="M 57.6,38.016 H 414.72 V 304.128 H 57.6 Z"
         id="path290" /></clipPath><clipPath
       clipPathUnits="userSpaceOnUse"
       id="clipPath302"><path
         d="M 57.6,38.016 H 414.72 V 304.128 H 57.6 Z"
         id="path300" /></clipPath><clipPath
       clipPathUnits="userSpaceOnUse"
       id="clipPath312"><path
         d="M 57.6,38.016 H 414.72 V 304.128 H 57.6 Z"
         id="path310" /></clipPath><clipPath
       clipPathUnits="userSpaceOnUse"
       id="clipPath322"><path
         d="M 57.6,38.016 H 414.72 V 304.128 H 57.6 Z"
         id="path320" /></clipPath><clipPath
       clipPathUnits="userSpaceOnUse"
       id="clipPath332"><path
         d="M 57.6,38.016 H 414.72 V 304.128 H 57.6 Z"
         id="path330" /></clipPath></defs><sodipodi:namedview
     pagecolor="#ffffff"
     bordercolor="#666666"
     borderopacity="1"
     objecttolerance="10"
     gridtolerance="10"
     guidetolerance="10"
     inkscape:pageopacity="0"
     inkscape:pageshadow="2"
     inkscape:window-width="1920"
     inkscape:window-height="1020"
     id="namedview4"
     showgrid="false"
     fit-margin-top="0"
     fit-margin-left="0"
     fit-margin-right="0"
     fit-margin-bottom="0"
     units="mm"
     inkscape:zoom="1.3150836"
     inkscape:cx="137.85139"
     inkscape:cy="165.63592"
     inkscape:window-x="0"
     inkscape:window-y="0"
     inkscape:window-maximized="1"
     inkscape:current-layer="layer1" /><g
     id="g10"
     inkscape:groupmode="layer"
     inkscape:label="pearson_chr05"
     transform="matrix(1.3333333,0,0,-1.3333333,-28.023958,443.59358)"><path
       d="m 79.897163,172.98318 h 11.50139"
       style="fill:none;stroke:#d62728;stroke-width:0.862604;stroke-linecap:square;stroke-linejoin:round;stroke-miterlimit:10;stroke-dasharray:none;stroke-opacity:1"
       id="path384" /><g
       id="g16"
       transform="matrix(0.57506971,0,0,0.57506971,8.9311718,142.01387)"><g
         id="g18"
         clip-path="url(#clipPath22)"><path
           d="M 57.6,38.016 V 304.128"
           style="fill:none;stroke:#b0b0b0;stroke-width:0.8;stroke-linecap:square;stroke-linejoin:round;stroke-miterlimit:10;stroke-dasharray:none;stroke-opacity:1"
           id="path24" /></g></g><path
       d="m 42.055187,163.87572 v -2.01274"
       style="fill:#000000;fill-opacity:1;fill-rule:nonzero;stroke:#000000;stroke-width:0.460056;stroke-linecap:butt;stroke-linejoin:round;stroke-miterlimit:10;stroke-dasharray:none;stroke-opacity:1"
       id="path28" /><g
       id="g34"
       transform="matrix(0.57506971,0,0,0.57506971,8.9311718,142.01387)"><g
         id="g36"
         clip-path="url(#clipPath40)"><path
           d="M 102.94857,38.016 V 304.128"
           style="fill:none;stroke:#b0b0b0;stroke-width:0.8;stroke-linecap:square;stroke-linejoin:round;stroke-miterlimit:10;stroke-dasharray:none;stroke-opacity:1"
           id="path42" /></g></g><path
       d="m 68.133776,163.87572 v -2.01274"
       style="fill:#000000;fill-opacity:1;fill-rule:nonzero;stroke:#000000;stroke-width:0.460056;stroke-linecap:butt;stroke-linejoin:round;stroke-miterlimit:10;stroke-dasharray:none;stroke-opacity:1"
       id="path46" /><g
       id="g52"
       transform="matrix(0.57506971,0,0,0.57506971,8.9311718,142.01387)"><g
         id="g54"
         clip-path="url(#clipPath58)"><path
           d="M 148.29714,38.016 V 304.128"
           style="fill:none;stroke:#b0b0b0;stroke-width:0.8;stroke-linecap:square;stroke-linejoin:round;stroke-miterlimit:10;stroke-dasharray:none;stroke-opacity:1"
           id="path60" /></g></g><path
       d="m 94.212365,163.87572 v -2.01274"
       style="fill:#000000;fill-opacity:1;fill-rule:nonzero;stroke:#000000;stroke-width:0.460056;stroke-linecap:butt;stroke-linejoin:round;stroke-miterlimit:10;stroke-dasharray:none;stroke-opacity:1"
       id="path64" /><g
       id="g70"
       transform="matrix(0.57506971,0,0,0.57506971,8.9311718,142.01387)"><g
         id="g72"
         clip-path="url(#clipPath76)"><path
           d="M 193.64571,38.016 V 304.128"
           style="fill:none;stroke:#b0b0b0;stroke-width:0.8;stroke-linecap:square;stroke-linejoin:round;stroke-miterlimit:10;stroke-dasharray:none;stroke-opacity:1"
           id="path78" /></g></g><path
       d="m 120.29096,163.87572 v -2.01274"
       style="fill:#000000;fill-opacity:1;fill-rule:nonzero;stroke:#000000;stroke-width:0.460056;stroke-linecap:butt;stroke-linejoin:round;stroke-miterlimit:10;stroke-dasharray:none;stroke-opacity:1"
       id="path82" /><g
       id="g88"
       transform="matrix(0.57506971,0,0,0.57506971,8.9311718,142.01387)"><g
         id="g90"
         clip-path="url(#clipPath94)"><path
           d="M 238.99429,38.016 V 304.128"
           style="fill:none;stroke:#b0b0b0;stroke-width:0.8;stroke-linecap:square;stroke-linejoin:round;stroke-miterlimit:10;stroke-dasharray:none;stroke-opacity:1"
           id="path96" /></g></g><path
       d="m 146.36954,163.87572 v -2.01274"
       style="fill:#000000;fill-opacity:1;fill-rule:nonzero;stroke:#000000;stroke-width:0.460056;stroke-linecap:butt;stroke-linejoin:round;stroke-miterlimit:10;stroke-dasharray:none;stroke-opacity:1"
       id="path100" /><g
       id="g106"
       transform="matrix(0.57506971,0,0,0.57506971,8.9311718,142.01387)"><g
         id="g108"
         clip-path="url(#clipPath112)"><path
           d="M 284.34286,38.016 V 304.128"
           style="fill:none;stroke:#b0b0b0;stroke-width:0.8;stroke-linecap:square;stroke-linejoin:round;stroke-miterlimit:10;stroke-dasharray:none;stroke-opacity:1"
           id="path114" /></g></g><path
       d="m 172.44814,163.87572 v -2.01274"
       style="fill:#000000;fill-opacity:1;fill-rule:nonzero;stroke:#000000;stroke-width:0.460056;stroke-linecap:butt;stroke-linejoin:round;stroke-miterlimit:10;stroke-dasharray:none;stroke-opacity:1"
       id="path118" /><g
       id="g124"
       transform="matrix(0.57506971,0,0,0.57506971,8.9311718,142.01387)"><g
         id="g126"
         clip-path="url(#clipPath130)"><path
           d="M 329.69143,38.016 V 304.128"
           style="fill:none;stroke:#b0b0b0;stroke-width:0.8;stroke-linecap:square;stroke-linejoin:round;stroke-miterlimit:10;stroke-dasharray:none;stroke-opacity:1"
           id="path132" /></g></g><path
       d="m 198.52673,163.87572 v -2.01274"
       style="fill:#000000;fill-opacity:1;fill-rule:nonzero;stroke:#000000;stroke-width:0.460056;stroke-linecap:butt;stroke-linejoin:round;stroke-miterlimit:10;stroke-dasharray:none;stroke-opacity:1"
       id="path136" /><g
       id="g142"
       transform="matrix(0.57506971,0,0,0.57506971,8.9311718,142.01387)"><g
         id="g144"
         clip-path="url(#clipPath148)"><path
           d="M 375.04,38.016 V 304.128"
           style="fill:none;stroke:#b0b0b0;stroke-width:0.8;stroke-linecap:square;stroke-linejoin:round;stroke-miterlimit:10;stroke-dasharray:none;stroke-opacity:1"
           id="path150" /></g></g><path
       d="m 224.60531,163.87572 v -2.01274"
       style="fill:#000000;fill-opacity:1;fill-rule:nonzero;stroke:#000000;stroke-width:0.460056;stroke-linecap:butt;stroke-linejoin:round;stroke-miterlimit:10;stroke-dasharray:none;stroke-opacity:1"
       id="path154" /><g
       id="g164"
       transform="matrix(0.57506971,0,0,0.57506971,8.9311718,142.01387)"><g
         id="g166"
         clip-path="url(#clipPath170)"><path
           d="M 57.6,38.016 H 414.72"
           style="fill:none;stroke:#b0b0b0;stroke-width:0.8;stroke-linecap:square;stroke-linejoin:round;stroke-miterlimit:10;stroke-dasharray:none;stroke-opacity:1"
           id="path172" /></g></g><path
       d="M 42.055187,163.87572 H 40.042443"
       style="fill:#000000;fill-opacity:1;fill-rule:nonzero;stroke:#000000;stroke-width:0.460056;stroke-linecap:butt;stroke-linejoin:round;stroke-miterlimit:10;stroke-dasharray:none;stroke-opacity:1"
       id="path176" /><g
       id="g182"
       transform="matrix(0.57506971,0,0,0.57506971,8.9311718,142.01387)"><g
         id="g184"
         clip-path="url(#clipPath188)"><path
           d="M 57.6,91.2384 H 414.72"
           style="fill:none;stroke:#b0b0b0;stroke-width:0.8;stroke-linecap:square;stroke-linejoin:round;stroke-miterlimit:10;stroke-dasharray:none;stroke-opacity:1"
           id="path190" /></g></g><path
       d="M 42.055187,194.48232 H 40.042443"
       style="fill:#000000;fill-opacity:1;fill-rule:nonzero;stroke:#000000;stroke-width:0.460056;stroke-linecap:butt;stroke-linejoin:round;stroke-miterlimit:10;stroke-dasharray:none;stroke-opacity:1"
       id="path194" /><g
       id="g200"
       transform="matrix(0.57506971,0,0,0.57506971,8.9311718,142.01387)"><g
         id="g202"
         clip-path="url(#clipPath206)"><path
           d="M 57.6,144.4608 H 414.72"
           style="fill:none;stroke:#b0b0b0;stroke-width:0.8;stroke-linecap:square;stroke-linejoin:round;stroke-miterlimit:10;stroke-dasharray:none;stroke-opacity:1"
           id="path208" /></g></g><path
       d="M 42.055187,225.0889 H 40.042443"
       style="fill:#000000;fill-opacity:1;fill-rule:nonzero;stroke:#000000;stroke-width:0.460056;stroke-linecap:butt;stroke-linejoin:round;stroke-miterlimit:10;stroke-dasharray:none;stroke-opacity:1"
       id="path212" /><g
       id="g218"
       transform="matrix(0.57506971,0,0,0.57506971,8.9311718,142.01387)"><g
         id="g220"
         clip-path="url(#clipPath224)"><path
           d="M 57.6,197.6832 H 414.72"
           style="fill:none;stroke:#b0b0b0;stroke-width:0.8;stroke-linecap:square;stroke-linejoin:round;stroke-miterlimit:10;stroke-dasharray:none;stroke-opacity:1"
           id="path226" /></g></g><path
       d="M 42.055187,255.6955 H 40.042443"
       style="fill:#000000;fill-opacity:1;fill-rule:nonzero;stroke:#000000;stroke-width:0.460056;stroke-linecap:butt;stroke-linejoin:round;stroke-miterlimit:10;stroke-dasharray:none;stroke-opacity:1"
       id="path230" /><g
       id="g236"
       transform="matrix(0.57506971,0,0,0.57506971,8.9311718,142.01387)"><g
         id="g238"
         clip-path="url(#clipPath242)"><path
           d="M 57.6,250.9056 H 414.72"
           style="fill:none;stroke:#b0b0b0;stroke-width:0.8;stroke-linecap:square;stroke-linejoin:round;stroke-miterlimit:10;stroke-dasharray:none;stroke-opacity:1"
           id="path244" /></g></g><path
       d="M 42.055187,286.30208 H 40.042443"
       style="fill:#000000;fill-opacity:1;fill-rule:nonzero;stroke:#000000;stroke-width:0.460056;stroke-linecap:butt;stroke-linejoin:round;stroke-miterlimit:10;stroke-dasharray:none;stroke-opacity:1"
       id="path248" /><g
       id="g254"
       transform="matrix(0.57506971,0,0,0.57506971,8.9311718,142.01387)"><g
         id="g256"
         clip-path="url(#clipPath260)"><path
           d="M 57.6,304.128 H 414.72"
           style="fill:none;stroke:#b0b0b0;stroke-width:0.8;stroke-linecap:square;stroke-linejoin:round;stroke-miterlimit:10;stroke-dasharray:none;stroke-opacity:1"
           id="path262" /></g></g><path
       d="M 42.055187,316.90868 H 40.042443"
       style="fill:#000000;fill-opacity:1;fill-rule:nonzero;stroke:#000000;stroke-width:0.460056;stroke-linecap:butt;stroke-linejoin:round;stroke-miterlimit:10;stroke-dasharray:none;stroke-opacity:1"
       id="path266" /><g
       id="g278"
       clip-path="url(#clipPath282)"
       transform="matrix(0.57506971,0,0,0.57506971,8.9311718,142.01387)"><path
         d="m 69.503425,-1 5.102289,251.37599 5.668572,-5.06005 5.668571,-6.41057 5.668572,-3.14302 5.668571,-5.29916 5.66857,-5.7191 5.66857,0.91849 5.66857,-2.91292 5.66858,-6.11507 5.66857,-1.61651 5.66857,-4.35768 5.66857,-5.2459 5.66857,-5.93836 5.66857,-2.57183 5.66857,-3.34892 5.66858,0.216 5.66857,-0.65343 5.66857,-3.09972 5.66857,-2.40973 5.66857,-3.87447 5.66857,-1.14811 5.66857,-2.98337 5.66858,-2.98568 5.66857,-6.45447 5.66857,1.38355 5.66857,-5.32267 5.66857,-0.80467 5.66857,-4.37495 5.66857,-2.04834 5.66858,-2.47891 5.66857,-2.85352 5.66857,-3.39407 5.66857,-1.16609 5.66857,-2.48097 5.66857,1.90511 5.66857,-2.12443 5.66858,0.78698 5.66857,-4.72737 5.66857,0.66994 5.66857,3.78581 5.66857,-3.55806 5.66857,-3.06536 5.66857,3.34123 5.66858,-1.93808 5.66857,-4.39486 5.66857,2.41772 5.66857,-4.43653 5.66857,0.18914 5.66857,0.49648 5.66857,2.07369 5.66858,-1.77799 5.66857,0.51202 5.66857,-0.27518 5.66857,-1.23641 5.66857,0.015 5.66857,0.0708 5.66857,2.63097 5.66858,-2.5909 5.66857,2.94135 5.66857,-2.86843 5.66857,-20.5615"
         style="fill:none;stroke:#1f77b4;stroke-width:1.5;stroke-linecap:square;stroke-linejoin:round;stroke-miterlimit:10;stroke-dasharray:none;stroke-opacity:1"
         id="path284" /></g><g
       id="g288"
       clip-path="url(#clipPath292)"
       transform="matrix(0.57506971,0,0,0.57506971,8.9311718,142.01387)"><path
         d="m 57.6,265.82412 5.668571,3.25378 5.668572,-9.14783 5.668571,-9.49026 5.668572,-7.39936 5.668571,-6.04033 5.668572,-3.65902 5.668571,-5.38526 5.66857,-4.78182 5.66857,0.72912 5.66857,-2.68117 5.66858,-5.5766 5.66857,-1.30943 5.66857,-4.27049 5.66857,-4.81627 5.66857,-5.88543 5.66857,-2.23368 5.66857,-2.95465 5.66858,0.51707 5.66857,-1.62429 5.66857,-2.31517 5.66857,-2.90605 5.66857,-2.65968 5.66857,-0.45583 5.66857,-2.30344 5.66858,-1.135 5.66857,-6.23532 5.66857,2.869 5.66857,-4.75025 5.66857,-0.0947 5.66857,-2.14231 5.66857,-1.19012 5.66858,-3.03278 5.66857,-1.04454 5.66857,-3.84128 5.66857,-1.47602 5.66857,-1.64993 5.66857,1.11674 5.66857,-2.27855 5.66858,0.71821 5.66857,-4.09474 5.66857,0.86876 5.66857,3.77264 5.66857,-3.42658 5.66857,-2.08507 5.66857,3.07301 5.66858,-1.17813 5.66857,-3.40083 5.66857,0.59614 5.66857,-4.59152 5.66857,-0.002 5.66857,-0.37953 5.66857,1.9718 5.66858,-3.10701 5.66857,1.66401 5.66857,-1.1721 5.66857,-3.2715 5.66857,-0.75448 5.66857,-1.83138 5.66857,2.06517 5.66858,-4.48984 5.66857,3.5627 5.66857,-5.76439 5.66857,-15.39505"
         style="fill:none;stroke:#ff7f0e;stroke-width:1.5;stroke-linecap:square;stroke-linejoin:round;stroke-miterlimit:10;stroke-dasharray:none;stroke-opacity:1"
         id="path294" /></g><g
       id="g298"
       clip-path="url(#clipPath302)"
       transform="matrix(0.57506971,0,0,0.57506971,8.9311718,142.01387)"><path
         d="m 57.6,264.5672 5.668571,3.39982 5.668572,-9.18572 5.668571,-9.32944 5.668572,-7.8375 5.668571,-6.08741 5.668572,-4.02497 5.668571,-5.41293 5.66857,-4.9884 5.66857,0.91867 5.66857,-2.33552 5.66858,-5.52638 5.66857,-1.25484 5.66857,-4.31262 5.66857,-5.07579 5.66857,-5.27545 5.66857,-1.90707 5.66857,-2.58841 5.66858,0.38607 5.66857,-1.57351 5.66857,-2.48287 5.66857,-2.78001 5.66857,-2.15606 5.66857,-0.0897 5.66857,-2.6036 5.66858,-1.15299 5.66857,-5.77381 5.66857,2.00562 5.66857,-4.5522 5.66857,0.36361 5.66857,-1.86219 5.66857,0.74803 5.66858,-2.4395 5.66857,-0.73425 5.66857,-3.30808 5.66857,-1.35827 5.66857,-1.26423 5.66857,1.67173 5.66857,-1.06741 5.66858,0.0399 5.66857,-2.77625 5.66857,0.63414 5.66857,4.31769 5.66857,-4.15716 5.66857,-0.57739 5.66857,2.58703 5.66858,-1.00747 5.66857,-3.85295 5.66857,0.56027 5.66857,-3.09632 5.66857,0.55773 5.66857,1.6322 5.66857,2.93732 5.66858,-5.90383 5.66857,3.19263 5.66857,-1.9251 5.66857,-1.80353 5.66857,-2.91755 5.66857,-2.31509 5.66857,2.20711 5.66858,-4.1668 5.66857,-5.12816 5.66857,-4.08638 5.66857,-16.04034"
         style="fill:none;stroke:#2ca02c;stroke-width:1.5;stroke-linecap:square;stroke-linejoin:round;stroke-miterlimit:10;stroke-dasharray:none;stroke-opacity:1"
         id="path304" /></g><g
       id="g308"
       clip-path="url(#clipPath312)"
       style="stroke:#8c564b;stroke-opacity:1"
       transform="matrix(0.57506971,0,0,0.57506971,8.9311718,142.01387)"><path
         d="m 57.6,264.69019 5.668571,3.35963 5.668572,-9.08923 5.668571,-9.092 5.668572,-7.54863 5.668571,-6.31271 5.668572,-4.45572 5.668571,-5.63295 5.66857,-5.56832 5.66857,0.83368 5.66857,-2.2649 5.66858,-5.15988 5.66857,-0.86288 5.66857,-4.31157 5.66857,-5.08747 5.66857,-5.26938 5.66857,-1.68894 5.66857,-2.60154 5.66858,0.27728 5.66857,-1.70784 5.66857,-2.46057 5.66857,-2.84895 5.66857,-2.7795 5.66857,-0.14043 5.66857,-3.1689 5.66858,-1.16629 5.66857,-6.38238 5.66857,1.57946 5.66857,-4.68912 5.66857,0.48092 5.66857,-1.47057 5.66857,0.75104 5.66858,-1.90558 5.66857,-0.23467 5.66857,-2.44789 5.66857,-0.20186 5.66857,-0.51988 5.66857,1.88187 5.66857,-0.69842 5.66858,0.49846 5.66857,-2.35978 5.66857,0.84596 5.66857,3.82334 5.66857,-4.31692 5.66857,-0.20428 5.66857,2.18439 5.66858,-0.47689 5.66857,-2.97164 5.66857,0.14621 5.66857,-1.98428 5.66857,0.66558 5.66857,2.28345 5.66857,1.72557 5.66858,-4.47997 5.66857,3.36777 5.66857,-2.61215 5.66857,-1.68211 5.66857,-5.03315 5.66857,-1.02636 5.66857,2.64779 5.66858,-4.10497 5.66857,-7.94481 5.66857,-1.63332 5.66857,-15.02346"
         style="fill:none;stroke:#8c564b;stroke-width:1.5;stroke-linecap:square;stroke-linejoin:round;stroke-miterlimit:10;stroke-dasharray:none;stroke-opacity:1"
         id="path314" /></g><g
       id="g318"
       clip-path="url(#clipPath322)"
       transform="matrix(0.57506971,0,0,0.57506971,8.9311718,142.01387)"><path
         d="m 57.6,264.94011 5.668571,3.84592 5.668572,-9.03721 5.668571,-9.3112 5.668572,-7.47841 5.668571,-6.27388 5.668572,-4.26342 5.668571,-5.69764 5.66857,-5.4125 5.66857,1.05318 5.66857,-2.00089 5.66858,-5.15017 5.66857,-1.09223 5.66857,-4.54632 5.66857,-5.19407 5.66857,-5.71663 5.66857,-2.16134 5.66857,-2.49803 5.66858,-0.0304 5.66857,-1.72495 5.66857,-2.58554 5.66857,-2.93189 5.66857,-2.83155 5.66857,0.43256 5.66857,-2.62288 5.66858,-1.02073 5.66857,-5.95586 5.66857,1.7629 5.66857,-4.83637 5.66857,0.71014 5.66857,-1.56705 5.66857,0.1859 5.66858,-1.86388 5.66857,-0.92782 5.66857,-2.2605 5.66857,-0.87923 5.66857,-0.30264 5.66857,0.66167 5.66857,0.28502 5.66858,-0.78097 5.66857,-1.64193 5.66857,0.89094 5.66857,3.71367 5.66857,-4.16142 5.66857,-0.40032 5.66857,1.58432 5.66858,-1.06087 5.66857,-3.23603 5.66857,-0.7191 5.66857,-1.75843 5.66857,0.82455 5.66857,2.88331 5.66857,0.95472 5.66858,-3.88156 5.66857,3.58901 5.66857,-1.2705 5.66857,-1.68018 5.66857,-4.34686 5.66857,-1.98644 5.66857,3.65608 5.66858,-5.92913 5.66857,-7.89716 5.66857,-1.87294 5.66857,-16.02255"
         style="fill:none;stroke:#9467bd;stroke-width:1.5;stroke-linecap:square;stroke-linejoin:round;stroke-miterlimit:10;stroke-dasharray:none;stroke-opacity:1"
         id="path324" /></g><g
       id="g328"
       clip-path="url(#clipPath332)"
       style="stroke:#d62728;stroke-opacity:1"
       transform="matrix(0.57506971,0,0,0.57506971,8.9311718,142.01387)"><path
         d="m 57.6,274.26669 5.668571,-8.51413 5.668572,-4.60585 5.668571,-0.61572 5.668572,-0.97414 5.668571,0.2994 5.668572,0.17462 5.668571,-0.0369 5.66857,0.55342 5.66857,-1.55777 5.66857,-1.31879 5.66858,-0.0429 5.66857,-1.84437 5.66857,-1.25059 5.66857,-0.22577 5.66857,-2.59774 5.66857,-0.67705 5.66857,-0.23919 5.66858,-2.43211 5.66857,-1.4151 5.66857,-1.07585 5.66857,-1.42078 5.66857,0.29705 5.66857,-1.2512 5.66857,-4.21345 5.66858,1.85402 5.66857,0.40948 5.66857,0.49735 5.66857,-0.15599 5.66857,-2.90436 5.66857,0.90238 5.66857,-3.56086 5.66858,-0.71117 5.66857,0.0317 5.66857,-3.35022 5.66857,0.40922 5.66857,-1.31818 5.66857,-0.0777 5.66857,-2.52089 5.66858,2.24148 5.66857,-2.15834 5.66857,-3.06158 5.66857,-0.31306 5.66857,-0.70681 5.66857,4.80396 5.66857,-2.65466 5.66858,0.83184 5.66857,-1.614 5.66857,-2.32449 5.66857,2.89507 5.66857,-6.57443 5.66857,2.15945 5.66857,-6.06139 5.66858,-1.32181 5.66857,-1.42226 5.66857,-2.91308 5.66857,-0.51664 5.66857,1.0175 5.66857,-5.84401 5.66857,1.57233 5.66858,-5.53072 5.66857,5.36572 5.66857,-2.10874 5.66857,3.65182"
         style="fill:none;stroke:#d62728;stroke-width:1.5;stroke-linecap:square;stroke-linejoin:round;stroke-miterlimit:10;stroke-dasharray:none;stroke-opacity:1"
         id="path334" /></g><path
       d="M 42.055187,163.87572 V 316.90868"
       style="fill:none;stroke:#000000;stroke-width:0.460056;stroke-linecap:square;stroke-linejoin:miter;stroke-miterlimit:10;stroke-dasharray:none;stroke-opacity:1"
       id="path338" /><path
       d="M 247.42409,163.87572 V 316.90868"
       style="fill:none;stroke:#000000;stroke-width:0.460056;stroke-linecap:square;stroke-linejoin:miter;stroke-miterlimit:10;stroke-dasharray:none;stroke-opacity:1"
       id="path340" /><path
       d="M 42.055187,163.87572 H 247.42409"
       style="fill:none;stroke:#000000;stroke-width:0.460056;stroke-linecap:square;stroke-linejoin:miter;stroke-miterlimit:10;stroke-dasharray:none;stroke-opacity:1"
       id="path342" /><path
       d="M 42.055187,316.90868 H 247.42409"
       style="fill:none;stroke:#000000;stroke-width:0.460056;stroke-linecap:square;stroke-linejoin:miter;stroke-miterlimit:10;stroke-dasharray:none;stroke-opacity:1"
       id="path344" /><path
       d="m 79.897163,215.16994 h 11.50139"
       style="fill:none;stroke:#1f77b4;stroke-width:0.862604;stroke-linecap:square;stroke-linejoin:round;stroke-miterlimit:10;stroke-dasharray:none;stroke-opacity:1"
       id="path354" /><path
       d="m 79.897163,206.73258 h 11.50139"
       style="fill:none;stroke:#ff7f0e;stroke-width:0.862604;stroke-linecap:square;stroke-linejoin:round;stroke-miterlimit:10;stroke-dasharray:none;stroke-opacity:1"
       id="path360" /><path
       d="m 79.897163,198.29523 h 11.50139"
       style="fill:none;stroke:#2ca02c;stroke-width:0.862604;stroke-linecap:square;stroke-linejoin:round;stroke-miterlimit:10;stroke-dasharray:none;stroke-opacity:1"
       id="path366" /><path
       d="m 79.897163,189.85788 h 11.50139"
       style="fill:none;stroke:#8c564b;stroke-width:0.862604;stroke-linecap:square;stroke-linejoin:round;stroke-miterlimit:10;stroke-dasharray:none;stroke-opacity:1"
       id="path372" /><path
       d="m 79.897163,181.42054 h 11.50139"
       style="fill:none;stroke:#9467bd;stroke-width:0.862604;stroke-linecap:square;stroke-linejoin:round;stroke-miterlimit:10;stroke-dasharray:none;stroke-opacity:1"
       id="path378" /></g><g
     inkscape:groupmode="layer"
     id="layer1"
     inkscape:label="text"
     transform="translate(-28.023958,-17.206424)"><text
       style="font-variant:normal;font-weight:normal;font-size:7.6676px;font-family:'DejaVu Sans';-inkscape-font-specification:DejaVuSans;writing-mode:lr-tb;fill:#000000;fill-opacity:1;fill-rule:nonzero;stroke:none;stroke-width:0.76676"
       id="text388"
       x="127.99883"
       y="232.83945"><tspan
         x="127.99883 131.0045 134.1559 138.85612 143.71738 147.71219 150.41116 155.12675 158.27814 160.71642 166.65881 173.27596 178.15256 183.02914 187.90573 192.78232 197.65894 200.0972 202.68118 205.11948 210.36411 215.97681 221.32877 223.91278 226.35104 231.22766 233.66592 238.54254 243.41913"
         y="232.83945"
         sodipodi:role="line"
         id="tspan386"
         style="stroke-width:0.76676">transfer GM12878 / AUC: 0.745</tspan></text><text
       style="font-variant:normal;font-weight:normal;font-size:7.6676px;font-family:'DejaVu Sans';-inkscape-font-specification:DejaVuSans;writing-mode:lr-tb;fill:#000000;fill-opacity:1;fill-rule:nonzero;stroke:none;stroke-width:0.76676"
       id="text32"
       x="53.975449"
       y="253.489"><tspan
         x="53.975449 58.852036 61.290333"
         y="253.489"
         sodipodi:role="line"
         id="tspan30"
         style="stroke-width:0.76676">0.0</tspan></text><text
       style="font-variant:normal;font-weight:normal;font-size:7.6676px;font-family:'DejaVu Sans';-inkscape-font-specification:DejaVuSans;writing-mode:lr-tb;fill:#000000;fill-opacity:1;fill-rule:nonzero;stroke:none;stroke-width:0.76676"
       id="text50"
       x="84.746902"
       y="253.489"><tspan
         x="84.746902 89.623497 92.06179"
         y="253.489"
         sodipodi:role="line"
         id="tspan48"
         style="stroke-width:0.76676">0.2</tspan></text><text
       style="font-variant:normal;font-weight:normal;font-size:7.6676px;font-family:'DejaVu Sans';-inkscape-font-specification:DejaVuSans;writing-mode:lr-tb;fill:#000000;fill-opacity:1;fill-rule:nonzero;stroke:none;stroke-width:0.76676"
       id="text68"
       x="119.51836"
       y="253.489"><tspan
         x="119.51836 124.39495 126.83324"
         y="253.489"
         sodipodi:role="line"
         id="tspan66"
         style="stroke-width:0.76676">0.4</tspan></text><text
       style="font-variant:normal;font-weight:normal;font-size:7.6676px;font-family:'DejaVu Sans';-inkscape-font-specification:DejaVuSans;writing-mode:lr-tb;fill:#000000;fill-opacity:1;fill-rule:nonzero;stroke:none;stroke-width:0.76676"
       id="text86"
       x="154.28981"
       y="253.489"><tspan
         x="154.28981 159.1664 161.60469"
         y="253.489"
         sodipodi:role="line"
         id="tspan84"
         style="stroke-width:0.76676">0.6</tspan></text><text
       style="font-variant:normal;font-weight:normal;font-size:7.6676px;font-family:'DejaVu Sans';-inkscape-font-specification:DejaVuSans;writing-mode:lr-tb;fill:#000000;fill-opacity:1;fill-rule:nonzero;stroke:none;stroke-width:0.76676"
       id="text104"
       x="189.06125"
       y="253.489"><tspan
         x="189.06125 193.93785 196.37614"
         y="253.489"
         sodipodi:role="line"
         id="tspan102"
         style="stroke-width:0.76676">0.8</tspan></text><text
       style="font-variant:normal;font-weight:normal;font-size:7.6676px;font-family:'DejaVu Sans';-inkscape-font-specification:DejaVuSans;writing-mode:lr-tb;fill:#000000;fill-opacity:1;fill-rule:nonzero;stroke:none;stroke-width:0.76676"
       id="text122"
       x="223.83272"
       y="253.489"><tspan
         x="223.83272 228.70929 231.14758"
         y="253.489"
         sodipodi:role="line"
         id="tspan120"
         style="stroke-width:0.76676">1.0</tspan></text><text
       style="font-variant:normal;font-weight:normal;font-size:7.6676px;font-family:'DejaVu Sans';-inkscape-font-specification:DejaVuSans;writing-mode:lr-tb;fill:#000000;fill-opacity:1;fill-rule:nonzero;stroke:none;stroke-width:0.76676"
       id="text140"
       x="258.60419"
       y="253.489"><tspan
         x="258.60419 263.48074 265.91904"
         y="253.489"
         sodipodi:role="line"
         id="tspan138"
         style="stroke-width:0.76676">1.2</tspan></text><text
       style="font-variant:normal;font-weight:normal;font-size:7.6676px;font-family:'DejaVu Sans';-inkscape-font-specification:DejaVuSans;writing-mode:lr-tb;fill:#000000;fill-opacity:1;fill-rule:nonzero;stroke:none;stroke-width:0.76676"
       id="text158"
       x="293.37561"
       y="253.489"><tspan
         x="293.37561 298.2522 300.69049"
         y="253.489"
         sodipodi:role="line"
         id="tspan156"
         style="stroke-width:0.76676">1.4</tspan></text><text
       style="font-variant:normal;font-weight:normal;font-size:7.6676px;font-family:'DejaVu Sans';-inkscape-font-specification:DejaVuSans;writing-mode:lr-tb;fill:#000000;fill-opacity:1;fill-rule:nonzero;stroke:none;stroke-width:0.76676"
       id="text162"
       x="146.57925"
       y="263.97189"><tspan
         x="146.57925 152.52164 157.2372 162.09846 166.79105 174.25926 176.39085 180.60803 183.04634 187.91525 190.04684 194.04166 197.04736 201.7476 206.60886 210.82603 215.54161 217.97989 220.56387 223.00217 229.61929 234.48824"
         y="263.97189"
         sodipodi:role="line"
         id="tspan160"
         style="stroke-width:0.76676">Genomic distance / Mbp</tspan></text><text
       style="font-variant:normal;font-weight:normal;font-size:7.6676px;font-family:'DejaVu Sans';-inkscape-font-specification:DejaVuSans;writing-mode:lr-tb;fill:#000000;fill-opacity:1;fill-rule:nonzero;stroke:none;stroke-width:0.76676"
       id="text180"
       x="38.509995"
       y="245.21039"><tspan
         x="38.509995 43.386585 45.824879"
         y="245.21039"
         sodipodi:role="line"
         id="tspan178"
         style="stroke-width:0.76676">0.0</tspan></text><text
       style="font-variant:normal;font-weight:normal;font-size:7.6676px;font-family:'DejaVu Sans';-inkscape-font-specification:DejaVuSans;writing-mode:lr-tb;fill:#000000;fill-opacity:1;fill-rule:nonzero;stroke:none;stroke-width:0.76676"
       id="text198"
       x="38.509995"
       y="204.40161"><tspan
         x="38.509995 43.386585 45.824879"
         y="204.40161"
         sodipodi:role="line"
         id="tspan196"
         style="stroke-width:0.76676">0.2</tspan></text><text
       style="font-variant:normal;font-weight:normal;font-size:7.6676px;font-family:'DejaVu Sans';-inkscape-font-specification:DejaVuSans;writing-mode:lr-tb;fill:#000000;fill-opacity:1;fill-rule:nonzero;stroke:none;stroke-width:0.76676"
       id="text216"
       x="38.509995"
       y="163.59282"><tspan
         x="38.509995 43.386585 45.824879"
         y="163.59282"
         sodipodi:role="line"
         id="tspan214"
         style="stroke-width:0.76676">0.4</tspan></text><text
       style="font-variant:normal;font-weight:normal;font-size:7.6676px;font-family:'DejaVu Sans';-inkscape-font-specification:DejaVuSans;writing-mode:lr-tb;fill:#000000;fill-opacity:1;fill-rule:nonzero;stroke:none;stroke-width:0.76676"
       id="text234"
       x="38.509995"
       y="122.78394"><tspan
         x="38.509995 43.386585 45.824879"
         y="122.78394"
         sodipodi:role="line"
         id="tspan232"
         style="stroke-width:0.76676">0.6</tspan></text><text
       style="font-variant:normal;font-weight:normal;font-size:7.6676px;font-family:'DejaVu Sans';-inkscape-font-specification:DejaVuSans;writing-mode:lr-tb;fill:#000000;fill-opacity:1;fill-rule:nonzero;stroke:none;stroke-width:0.76676"
       id="text252"
       x="38.509995"
       y="81.975182"><tspan
         x="38.509995 43.386585 45.824879"
         y="81.975182"
         sodipodi:role="line"
         id="tspan250"
         style="stroke-width:0.76676">0.8</tspan></text><text
       style="font-variant:normal;font-weight:normal;font-size:7.6676px;font-family:'DejaVu Sans';-inkscape-font-specification:DejaVuSans;writing-mode:lr-tb;fill:#000000;fill-opacity:1;fill-rule:nonzero;stroke:none;stroke-width:0.76676"
       id="text270"
       x="38.509995"
       y="41.166431"><tspan
         x="38.509995 43.386585 45.824879"
         y="41.166431"
         sodipodi:role="line"
         id="tspan268"
         style="stroke-width:0.76676">1.0</tspan></text><text
       transform="rotate(-90)"
       style="font-variant:normal;font-weight:normal;font-size:7.6676px;font-family:'DejaVu Sans';-inkscape-font-specification:DejaVuSans;writing-mode:lr-tb;fill:#000000;fill-opacity:1;fill-rule:nonzero;stroke:none;stroke-width:0.76676"
       id="text274"
       x="-177.3212"
       y="33.849533"><tspan
         x="-177.3212 -172.69763 -167.98207 -163.28183 -160.13045 -156.13564 -151.44307 -146.58182 -144.14352 -139.92633 -135.23376 -132.0824 -128.931 -124.21536 -122.08378 -117.38352 -114.37784 -112.24625 -107.55369"
         y="33.849533"
         sodipodi:role="line"
         id="tspan272"
         style="stroke-width:0.76676">Pearson correlation</tspan></text><text
       style="font-variant:normal;font-weight:normal;font-size:9.20111px;font-family:'DejaVu Sans';-inkscape-font-specification:DejaVuSans;writing-mode:lr-tb;fill:#000000;fill-opacity:1;fill-rule:nonzero;stroke:none;stroke-width:0.76676"
       id="text348"
       x="98.297348"
       y="23.341658"><tspan
         x="98.297348 103.84561 109.50432 115.14459 118.92626 123.72003 129.35112 135.18463 138.11058 143.17119 148.80228 152.58394 156.36559 162.02429 164.58218 170.22247 173.8293 176.38722 182.01831 187.85181 190.77776 196.22484 201.0186 203.94456 206.87051 212.71323 218.37192 224.20541 229.8365 238.79839 241.35628 246.4169 249.34286 255.18558 257.7435 262.53723 266.1441 271.78436 277.61789 282.6785"
         y="23.341658"
         sodipodi:role="line"
         id="tspan346"
         style="stroke-width:0.76676">Pearson correlation vs. genomic distance</tspan></text><text
       style="font-variant:normal;font-weight:normal;font-size:9.20111px;font-family:'DejaVu Sans';-inkscape-font-specification:DejaVuSans;writing-mode:lr-tb;fill:#000000;fill-opacity:1;fill-rule:nonzero;stroke:none;stroke-width:0.76676"
       id="text352"
       x="63.975563"
       y="33.654583"><tspan
         x="63.975563 71.10643 79.046989 84.898903 90.750809 96.602715 102.45463 108.30653 111.23249 114.15845 120.01035 122.93632 128.78821 131.71419 137.56609 140.49205 146.34395 149.26991 155.12183 158.04776 163.89969 169.75159 172.67754 178.52945 184.38136 187.30731 193.15923 199.01112 201.93709 207.789 213.6409 216.56688 222.41876 228.27069 231.19664 237.04855 242.90045 245.82642 251.67831 257.53024 260.45618 266.30811 272.16 275.08597 280.71704 286.55054 289.4765 295.51245 301.36435 307.21625 313.06818 315.99411 318.92007"
         y="33.654583"
         sodipodi:role="line"
         id="tspan350"
         style="stroke-width:0.76676">GM12878, 1,2,4,7,9,11,13,14,16,17,18,20,22 on K562, 5</tspan></text><text
       style="font-variant:normal;font-weight:normal;font-size:7.6676px;font-family:'DejaVu Sans';-inkscape-font-specification:DejaVuSans;writing-mode:lr-tb;fill:#000000;fill-opacity:1;fill-rule:nonzero;stroke:none;stroke-width:0.76676"
       id="text358"
       x="127.99883"
       y="176.59044"><tspan
         x="127.99883 132.8754 137.752 140.19028 144.90585 149.77477 152.21307 154.79704 157.23537 162.47998 168.09267 173.44464 176.02861 178.46692 183.34351 185.7818 190.65842 195.53497"
         y="176.59044"
         sodipodi:role="line"
         id="tspan356"
         style="stroke-width:0.76676">20 ep / AUC: 0.463</tspan></text><text
       style="font-variant:normal;font-weight:normal;font-size:7.6676px;font-family:'DejaVu Sans';-inkscape-font-specification:DejaVuSans;writing-mode:lr-tb;fill:#000000;fill-opacity:1;fill-rule:nonzero;stroke:none;stroke-width:0.76676"
       id="text364"
       x="127.99883"
       y="187.84024"><tspan
         x="127.99883 132.8754 137.752 140.19028 144.90585 149.77477 152.21307 154.79704 157.23537 162.47998 168.09267 173.44464 176.02861 178.46692 183.34351 185.7818 190.65842 195.53497"
         y="187.84024"
         sodipodi:role="line"
         id="tspan362"
         style="stroke-width:0.76676">40 ep / AUC: 0.529</tspan></text><text
       style="font-variant:normal;font-weight:normal;font-size:7.6676px;font-family:'DejaVu Sans';-inkscape-font-specification:DejaVuSans;writing-mode:lr-tb;fill:#000000;fill-opacity:1;fill-rule:nonzero;stroke:none;stroke-width:0.76676"
       id="text370"
       x="127.99883"
       y="199.09003"><tspan
         x="127.99883 132.8754 137.752 140.19028 144.90585 149.77477 152.21307 154.79704 157.23537 162.47998 168.09267 173.44464 176.02861 178.46692 183.34351 185.7818 190.65842 195.53497"
         y="199.09003"
         sodipodi:role="line"
         id="tspan368"
         style="stroke-width:0.76676">60 ep / AUC: 0.541</tspan></text><text
       style="font-variant:normal;font-weight:normal;font-size:7.6676px;font-family:'DejaVu Sans';-inkscape-font-specification:DejaVuSans;writing-mode:lr-tb;fill:#000000;fill-opacity:1;fill-rule:nonzero;stroke:none;stroke-width:0.76676"
       id="text376"
       x="127.99883"
       y="210.33984"><tspan
         x="127.99883 132.8754 137.752 140.19028 144.90585 149.77477 152.21307 154.79704 157.23537 162.47998 168.09267 173.44464 176.02861 178.46692 183.34351 185.7818 190.65842 195.53497"
         y="210.33984"
         sodipodi:role="line"
         id="tspan374"
         style="stroke-width:0.76676">80 ep / AUC: 0.546</tspan></text><text
       style="font-variant:normal;font-weight:normal;font-size:7.6676px;font-family:'DejaVu Sans';-inkscape-font-specification:DejaVuSans;writing-mode:lr-tb;fill:#000000;fill-opacity:1;fill-rule:nonzero;stroke:none;stroke-width:0.76676"
       id="text382"
       x="127.99883"
       y="221.58963"><tspan
         x="127.99883 132.8754 137.752 142.62857 145.06686 149.78246 154.65135 157.08966 159.67365 162.11192 167.35657 172.96925 178.32124 180.90523 183.34351 188.22009 190.65842 195.53497 200.41159"
         y="221.58963"
         sodipodi:role="line"
         id="tspan380"
         style="stroke-width:0.76676">100 ep / AUC: 0.545</tspan></text></g></svg>
