<?xml version="1.0" encoding="UTF-8" standalone="no"?>
<svg
   xmlns:dc="http://purl.org/dc/elements/1.1/"
   xmlns:cc="http://creativecommons.org/ns#"
   xmlns:rdf="http://www.w3.org/1999/02/22-rdf-syntax-ns#"
   xmlns:svg="http://www.w3.org/2000/svg"
   xmlns="http://www.w3.org/2000/svg"
   xmlns:sodipodi="http://sodipodi.sourceforge.net/DTD/sodipodi-0.dtd"
   xmlns:inkscape="http://www.inkscape.org/namespaces/inkscape"
   version="1.1"
   id="svg2"
   xml:space="preserve"
   width="80mm"
   height="65.300003mm"
   viewBox="0 0 302.36219 246.80316"
   sodipodi:docname="pearson_chr10.svg"
   inkscape:version="1.0.2 (1.0.2+r75+1)"><metadata
     id="metadata8"><rdf:RDF><cc:Work
         rdf:about=""><dc:format>image/svg+xml</dc:format><dc:type
           rdf:resource="http://purl.org/dc/dcmitype/StillImage" /><dc:title></dc:title></cc:Work></rdf:RDF></metadata><defs
     id="defs6"><clipPath
       clipPathUnits="userSpaceOnUse"
       id="clipPath22"><path
         d="M 57.6,38.016 H 414.72 V 304.128 H 57.6 Z"
         id="path20" /></clipPath><clipPath
       clipPathUnits="userSpaceOnUse"
       id="clipPath40"><path
         d="M 57.6,38.016 H 414.72 V 304.128 H 57.6 Z"
         id="path38" /></clipPath><clipPath
       clipPathUnits="userSpaceOnUse"
       id="clipPath58"><path
         d="M 57.6,38.016 H 414.72 V 304.128 H 57.6 Z"
         id="path56" /></clipPath><clipPath
       clipPathUnits="userSpaceOnUse"
       id="clipPath76"><path
         d="M 57.6,38.016 H 414.72 V 304.128 H 57.6 Z"
         id="path74" /></clipPath><clipPath
       clipPathUnits="userSpaceOnUse"
       id="clipPath94"><path
         d="M 57.6,38.016 H 414.72 V 304.128 H 57.6 Z"
         id="path92" /></clipPath><clipPath
       clipPathUnits="userSpaceOnUse"
       id="clipPath112"><path
         d="M 57.6,38.016 H 414.72 V 304.128 H 57.6 Z"
         id="path110" /></clipPath><clipPath
       clipPathUnits="userSpaceOnUse"
       id="clipPath130"><path
         d="M 57.6,38.016 H 414.72 V 304.128 H 57.6 Z"
         id="path128" /></clipPath><clipPath
       clipPathUnits="userSpaceOnUse"
       id="clipPath148"><path
         d="M 57.6,38.016 H 414.72 V 304.128 H 57.6 Z"
         id="path146" /></clipPath><clipPath
       clipPathUnits="userSpaceOnUse"
       id="clipPath170"><path
         d="M 57.6,38.016 H 414.72 V 304.128 H 57.6 Z"
         id="path168" /></clipPath><clipPath
       clipPathUnits="userSpaceOnUse"
       id="clipPath188"><path
         d="M 57.6,38.016 H 414.72 V 304.128 H 57.6 Z"
         id="path186" /></clipPath><clipPath
       clipPathUnits="userSpaceOnUse"
       id="clipPath206"><path
         d="M 57.6,38.016 H 414.72 V 304.128 H 57.6 Z"
         id="path204" /></clipPath><clipPath
       clipPathUnits="userSpaceOnUse"
       id="clipPath224"><path
         d="M 57.6,38.016 H 414.72 V 304.128 H 57.6 Z"
         id="path222" /></clipPath><clipPath
       clipPathUnits="userSpaceOnUse"
       id="clipPath242"><path
         d="M 57.6,38.016 H 414.72 V 304.128 H 57.6 Z"
         id="path240" /></clipPath><clipPath
       clipPathUnits="userSpaceOnUse"
       id="clipPath260"><path
         d="M 57.6,38.016 H 414.72 V 304.128 H 57.6 Z"
         id="path258" /></clipPath><clipPath
       clipPathUnits="userSpaceOnUse"
       id="clipPath282"><path
         d="M 57.6,38.016 H 414.72 V 304.128 H 57.6 Z"
         id="path280" /></clipPath><clipPath
       clipPathUnits="userSpaceOnUse"
       id="clipPath292"><path
         d="M 57.6,38.016 H 414.72 V 304.128 H 57.6 Z"
         id="path290" /></clipPath><clipPath
       clipPathUnits="userSpaceOnUse"
       id="clipPath302"><path
         d="M 57.6,38.016 H 414.72 V 304.128 H 57.6 Z"
         id="path300" /></clipPath><clipPath
       clipPathUnits="userSpaceOnUse"
       id="clipPath312"><path
         d="M 57.6,38.016 H 414.72 V 304.128 H 57.6 Z"
         id="path310" /></clipPath><clipPath
       clipPathUnits="userSpaceOnUse"
       id="clipPath322"><path
         d="M 57.6,38.016 H 414.72 V 304.128 H 57.6 Z"
         id="path320" /></clipPath><clipPath
       clipPathUnits="userSpaceOnUse"
       id="clipPath332"><path
         d="M 57.6,38.016 H 414.72 V 304.128 H 57.6 Z"
         id="path330" /></clipPath></defs><sodipodi:namedview
     pagecolor="#ffffff"
     bordercolor="#666666"
     borderopacity="1"
     objecttolerance="10"
     gridtolerance="10"
     guidetolerance="10"
     inkscape:pageopacity="0"
     inkscape:pageshadow="2"
     inkscape:window-width="1920"
     inkscape:window-height="1020"
     id="namedview4"
     showgrid="false"
     fit-margin-top="0"
     fit-margin-left="0"
     fit-margin-right="0"
     fit-margin-bottom="0"
     units="mm"
     inkscape:zoom="5.2603344"
     inkscape:cx="21.889661"
     inkscape:cy="208.3257"
     inkscape:window-x="0"
     inkscape:window-y="0"
     inkscape:window-maximized="1"
     inkscape:current-layer="layer1" /><g
     id="g10"
     inkscape:groupmode="layer"
     inkscape:label="pearson_chr10"
     transform="matrix(1.3333333,0,0,-1.3333333,-28.023958,443.59358)"><g
       id="g328"
       clip-path="url(#clipPath332)"
       style="stroke:#d62728;stroke-opacity:1"
       transform="matrix(0.57532877,0,0,0.57532877,8.9257268,141.99182)"><path
         d="m 57.6,248.06087 5.668571,-7.29187 5.668572,-2.64319 5.668571,-1.93013 5.668572,0.54601 5.668571,1.59325 5.668572,-0.82048 5.668571,4.73928 5.66857,1.5332 5.66857,-0.13717 5.66857,-0.0418 5.66858,0.0806 5.66857,-2.90026 5.66857,0.21707 5.66857,-0.3958 5.66857,1.80474 5.66857,-2.15561 5.66857,-1.25425 5.66858,1.11235 5.66857,0.67488 5.66857,-1.59361 5.66857,-2.88676 5.66857,-3.72877 5.66857,-3.70619 5.66857,-0.453 5.66858,-2.45747 5.66857,-0.95794 5.66857,1.2394 5.66857,-1.25637 5.66857,6.93874 5.66857,3.25746 5.66857,-2.18465 5.66858,-0.95258 5.66857,6.25023 5.66857,-2.70001 5.66857,-2.34489 5.66857,-2.58518 5.66857,3.99357 5.66857,0.33421 5.66858,2.02432 5.66857,-4.83246 5.66857,1.02922 5.66857,2.38637 5.66857,-4.87707 5.66857,-1.12189 5.66857,-2.62176 5.66858,2.86751 5.66857,3.78359 5.66857,-0.44397 5.66857,4.76036 5.66857,-3.69919 5.66857,0.85233 5.66857,1.144 5.66858,-2.18453 5.66857,-1.99703 5.66857,3.80299 5.66857,-2.09308 5.66857,-1.42895 5.66857,-1.48115 5.66857,-3.76073 5.66858,-4.27128 5.66857,-0.29657 5.66857,1.01551 5.66857,-3.61633"
         style="fill:none;stroke:#d62728;stroke-width:1.5;stroke-linecap:square;stroke-linejoin:round;stroke-miterlimit:10;stroke-dasharray:none;stroke-opacity:1"
         id="path334" /></g><g
       id="g16"
       transform="matrix(0.57532877,0,0,0.57532877,8.9257268,141.99182)"><g
         id="g18"
         clip-path="url(#clipPath22)"><path
           d="M 57.6,38.016 V 304.128"
           style="fill:none;stroke:#b0b0b0;stroke-width:0.8;stroke-linecap:square;stroke-linejoin:round;stroke-miterlimit:10;stroke-dasharray:none;stroke-opacity:1"
           id="path24" /></g></g><path
       d="m 42.064664,163.86351 v -2.01364"
       style="fill:#000000;fill-opacity:1;fill-rule:nonzero;stroke:#000000;stroke-width:0.460263;stroke-linecap:butt;stroke-linejoin:round;stroke-miterlimit:10;stroke-dasharray:none;stroke-opacity:1"
       id="path28" /><g
       id="g34"
       transform="matrix(0.57532877,0,0,0.57532877,8.9257268,141.99182)"><g
         id="g36"
         clip-path="url(#clipPath40)"><path
           d="M 102.94857,38.016 V 304.128"
           style="fill:none;stroke:#b0b0b0;stroke-width:0.8;stroke-linecap:square;stroke-linejoin:round;stroke-miterlimit:10;stroke-dasharray:none;stroke-opacity:1"
           id="path42" /></g></g><path
       d="m 68.155001,163.86351 v -2.01364"
       style="fill:#000000;fill-opacity:1;fill-rule:nonzero;stroke:#000000;stroke-width:0.460263;stroke-linecap:butt;stroke-linejoin:round;stroke-miterlimit:10;stroke-dasharray:none;stroke-opacity:1"
       id="path46" /><g
       id="g52"
       transform="matrix(0.57532877,0,0,0.57532877,8.9257268,141.99182)"><g
         id="g54"
         clip-path="url(#clipPath58)"><path
           d="M 148.29714,38.016 V 304.128"
           style="fill:none;stroke:#b0b0b0;stroke-width:0.8;stroke-linecap:square;stroke-linejoin:round;stroke-miterlimit:10;stroke-dasharray:none;stroke-opacity:1"
           id="path60" /></g></g><path
       d="m 94.245338,163.86351 v -2.01364"
       style="fill:#000000;fill-opacity:1;fill-rule:nonzero;stroke:#000000;stroke-width:0.460263;stroke-linecap:butt;stroke-linejoin:round;stroke-miterlimit:10;stroke-dasharray:none;stroke-opacity:1"
       id="path64" /><g
       id="g70"
       transform="matrix(0.57532877,0,0,0.57532877,8.9257268,141.99182)"><g
         id="g72"
         clip-path="url(#clipPath76)"><path
           d="M 193.64571,38.016 V 304.128"
           style="fill:none;stroke:#b0b0b0;stroke-width:0.8;stroke-linecap:square;stroke-linejoin:round;stroke-miterlimit:10;stroke-dasharray:none;stroke-opacity:1"
           id="path78" /></g></g><path
       d="m 120.33567,163.86351 v -2.01364"
       style="fill:#000000;fill-opacity:1;fill-rule:nonzero;stroke:#000000;stroke-width:0.460263;stroke-linecap:butt;stroke-linejoin:round;stroke-miterlimit:10;stroke-dasharray:none;stroke-opacity:1"
       id="path82" /><g
       id="g88"
       transform="matrix(0.57532877,0,0,0.57532877,8.9257268,141.99182)"><g
         id="g90"
         clip-path="url(#clipPath94)"><path
           d="M 238.99429,38.016 V 304.128"
           style="fill:none;stroke:#b0b0b0;stroke-width:0.8;stroke-linecap:square;stroke-linejoin:round;stroke-miterlimit:10;stroke-dasharray:none;stroke-opacity:1"
           id="path96" /></g></g><path
       d="m 146.42602,163.86351 v -2.01364"
       style="fill:#000000;fill-opacity:1;fill-rule:nonzero;stroke:#000000;stroke-width:0.460263;stroke-linecap:butt;stroke-linejoin:round;stroke-miterlimit:10;stroke-dasharray:none;stroke-opacity:1"
       id="path100" /><g
       id="g106"
       transform="matrix(0.57532877,0,0,0.57532877,8.9257268,141.99182)"><g
         id="g108"
         clip-path="url(#clipPath112)"><path
           d="M 284.34286,38.016 V 304.128"
           style="fill:none;stroke:#b0b0b0;stroke-width:0.8;stroke-linecap:square;stroke-linejoin:round;stroke-miterlimit:10;stroke-dasharray:none;stroke-opacity:1"
           id="path114" /></g></g><path
       d="m 172.51635,163.86351 v -2.01364"
       style="fill:#000000;fill-opacity:1;fill-rule:nonzero;stroke:#000000;stroke-width:0.460263;stroke-linecap:butt;stroke-linejoin:round;stroke-miterlimit:10;stroke-dasharray:none;stroke-opacity:1"
       id="path118" /><g
       id="g124"
       transform="matrix(0.57532877,0,0,0.57532877,8.9257268,141.99182)"><g
         id="g126"
         clip-path="url(#clipPath130)"><path
           d="M 329.69143,38.016 V 304.128"
           style="fill:none;stroke:#b0b0b0;stroke-width:0.8;stroke-linecap:square;stroke-linejoin:round;stroke-miterlimit:10;stroke-dasharray:none;stroke-opacity:1"
           id="path132" /></g></g><path
       d="m 198.60669,163.86351 v -2.01364"
       style="fill:#000000;fill-opacity:1;fill-rule:nonzero;stroke:#000000;stroke-width:0.460263;stroke-linecap:butt;stroke-linejoin:round;stroke-miterlimit:10;stroke-dasharray:none;stroke-opacity:1"
       id="path136" /><g
       id="g142"
       transform="matrix(0.57532877,0,0,0.57532877,8.9257268,141.99182)"><g
         id="g144"
         clip-path="url(#clipPath148)"><path
           d="M 375.04,38.016 V 304.128"
           style="fill:none;stroke:#b0b0b0;stroke-width:0.8;stroke-linecap:square;stroke-linejoin:round;stroke-miterlimit:10;stroke-dasharray:none;stroke-opacity:1"
           id="path150" /></g></g><path
       d="m 224.69702,163.86351 v -2.01364"
       style="fill:#000000;fill-opacity:1;fill-rule:nonzero;stroke:#000000;stroke-width:0.460263;stroke-linecap:butt;stroke-linejoin:round;stroke-miterlimit:10;stroke-dasharray:none;stroke-opacity:1"
       id="path154" /><g
       id="g164"
       transform="matrix(0.57532877,0,0,0.57532877,8.9257268,141.99182)"><g
         id="g166"
         clip-path="url(#clipPath170)"><path
           d="M 57.6,38.016 H 414.72"
           style="fill:none;stroke:#b0b0b0;stroke-width:0.8;stroke-linecap:square;stroke-linejoin:round;stroke-miterlimit:10;stroke-dasharray:none;stroke-opacity:1"
           id="path172" /></g></g><path
       d="m 42.064664,163.86351 h -2.01365"
       style="fill:#000000;fill-opacity:1;fill-rule:nonzero;stroke:#000000;stroke-width:0.460263;stroke-linecap:butt;stroke-linejoin:round;stroke-miterlimit:10;stroke-dasharray:none;stroke-opacity:1"
       id="path176" /><g
       id="g182"
       transform="matrix(0.57532877,0,0,0.57532877,8.9257268,141.99182)"><g
         id="g184"
         clip-path="url(#clipPath188)"><path
           d="M 57.6,91.2384 H 414.72"
           style="fill:none;stroke:#b0b0b0;stroke-width:0.8;stroke-linecap:square;stroke-linejoin:round;stroke-miterlimit:10;stroke-dasharray:none;stroke-opacity:1"
           id="path190" /></g></g><path
       d="m 42.064664,194.48389 h -2.01365"
       style="fill:#000000;fill-opacity:1;fill-rule:nonzero;stroke:#000000;stroke-width:0.460263;stroke-linecap:butt;stroke-linejoin:round;stroke-miterlimit:10;stroke-dasharray:none;stroke-opacity:1"
       id="path194" /><g
       id="g200"
       transform="matrix(0.57532877,0,0,0.57532877,8.9257268,141.99182)"><g
         id="g202"
         clip-path="url(#clipPath206)"><path
           d="M 57.6,144.4608 H 414.72"
           style="fill:none;stroke:#b0b0b0;stroke-width:0.8;stroke-linecap:square;stroke-linejoin:round;stroke-miterlimit:10;stroke-dasharray:none;stroke-opacity:1"
           id="path208" /></g></g><path
       d="m 42.064664,225.10427 h -2.01365"
       style="fill:#000000;fill-opacity:1;fill-rule:nonzero;stroke:#000000;stroke-width:0.460263;stroke-linecap:butt;stroke-linejoin:round;stroke-miterlimit:10;stroke-dasharray:none;stroke-opacity:1"
       id="path212" /><g
       id="g218"
       transform="matrix(0.57532877,0,0,0.57532877,8.9257268,141.99182)"><g
         id="g220"
         clip-path="url(#clipPath224)"><path
           d="M 57.6,197.6832 H 414.72"
           style="fill:none;stroke:#b0b0b0;stroke-width:0.8;stroke-linecap:square;stroke-linejoin:round;stroke-miterlimit:10;stroke-dasharray:none;stroke-opacity:1"
           id="path226" /></g></g><path
       d="m 42.064664,255.72465 h -2.01365"
       style="fill:#000000;fill-opacity:1;fill-rule:nonzero;stroke:#000000;stroke-width:0.460263;stroke-linecap:butt;stroke-linejoin:round;stroke-miterlimit:10;stroke-dasharray:none;stroke-opacity:1"
       id="path230" /><g
       id="g236"
       transform="matrix(0.57532877,0,0,0.57532877,8.9257268,141.99182)"><g
         id="g238"
         clip-path="url(#clipPath242)"><path
           d="M 57.6,250.9056 H 414.72"
           style="fill:none;stroke:#b0b0b0;stroke-width:0.8;stroke-linecap:square;stroke-linejoin:round;stroke-miterlimit:10;stroke-dasharray:none;stroke-opacity:1"
           id="path244" /></g></g><path
       d="m 42.064664,286.34502 h -2.01365"
       style="fill:#000000;fill-opacity:1;fill-rule:nonzero;stroke:#000000;stroke-width:0.460263;stroke-linecap:butt;stroke-linejoin:round;stroke-miterlimit:10;stroke-dasharray:none;stroke-opacity:1"
       id="path248" /><g
       id="g254"
       transform="matrix(0.57532877,0,0,0.57532877,8.9257268,141.99182)"><g
         id="g256"
         clip-path="url(#clipPath260)"><path
           d="M 57.6,304.128 H 414.72"
           style="fill:none;stroke:#b0b0b0;stroke-width:0.8;stroke-linecap:square;stroke-linejoin:round;stroke-miterlimit:10;stroke-dasharray:none;stroke-opacity:1"
           id="path262" /></g></g><path
       d="m 42.064664,316.9654 h -2.01365"
       style="fill:#000000;fill-opacity:1;fill-rule:nonzero;stroke:#000000;stroke-width:0.460263;stroke-linecap:butt;stroke-linejoin:round;stroke-miterlimit:10;stroke-dasharray:none;stroke-opacity:1"
       id="path266" /><g
       id="g278"
       clip-path="url(#clipPath282)"
       transform="matrix(0.57532877,0,0,0.57532877,8.9257268,141.99182)"><path
         d="m 69.671145,-1 4.934569,250.09227 5.668572,-1.66356 5.668571,-6.29416 5.668572,-2.44761 5.668571,-3.46515 5.66857,-4.89559 5.66857,-0.21653 5.66857,-4.28348 5.66858,-2.87537 5.66857,-2.48442 5.66857,-6.67242 5.66857,-1.91209 5.66857,-1.54415 5.66857,-1.45326 5.66857,2.21912 5.66858,-2.64404 5.66857,-4.1143 5.66857,-4.83777 5.66857,-1.10019 5.66857,-6.2239 5.66857,-3.392 5.66857,1.61194 5.66858,-1.35974 5.66857,-2.8752 5.66857,2.91995 5.66857,-3.14525 5.66857,1.33311 5.66857,-2.96143 5.66857,1.19559 5.66858,-1.04039 5.66857,-3.14592 5.66857,1.49634 5.66857,0.3624 5.66857,3.92393 5.66857,-3.20374 5.66857,-1.85868 5.66858,-2.68737 5.66857,3.62119 5.66857,0.0768 5.66857,-4.66463 5.66857,4.09106 5.66857,2.26155 5.66857,-0.67675 5.66858,-2.94047 5.66857,0.48131 5.66857,-8.79112 5.66857,2.01927 5.66857,-4.05935 5.66857,3.51236 5.66857,-5.50568 5.66858,-3.02281 5.66857,-1.08014 5.66857,-4.49418 5.66857,-2.00884 5.66857,-1.50209 5.66857,2.53017 5.66857,-4.5259 5.66858,-0.7535 5.66857,-3.83523 5.66857,1.35521 5.66857,-17.41751"
         style="fill:none;stroke:#1f77b4;stroke-width:1.5;stroke-linecap:square;stroke-linejoin:round;stroke-miterlimit:10;stroke-dasharray:none;stroke-opacity:1"
         id="path284" /></g><g
       id="g288"
       clip-path="url(#clipPath292)"
       transform="matrix(0.57532877,0,0,0.57532877,8.9257268,141.99182)"><path
         d="m 57.6,267.903 5.668571,0.59775 5.668572,-8.41571 5.668571,-6.13095 5.668572,-5.43215 5.668571,-7.45539 5.668572,-3.72314 5.668571,-3.51068 5.66857,-4.43722 5.66857,-0.85857 5.66857,-4.80705 5.66858,-3.09717 5.66857,-2.99293 5.66857,-7.14291 5.66857,-1.23596 5.66857,-1.65018 5.66857,-1.36224 5.66857,2.59593 5.66858,-2.67992 5.66857,-3.84349 5.66857,-5.08287 5.66857,-0.99902 5.66857,-5.90896 5.66857,-4.40493 5.66857,2.64597 5.66858,-1.75833 5.66857,-2.51428 5.66857,1.59939 5.66857,-2.46015 5.66857,0.0721 5.66857,-1.30807 5.66857,0.25937 5.66858,0.28346 5.66857,-3.10854 5.66857,1.81629 5.66857,-0.63683 5.66857,3.5247 5.66857,-2.29659 5.66857,-0.54995 5.66858,-5.05928 5.66857,3.82794 5.66857,0.22912 5.66857,-4.3656 5.66857,5.07294 5.66857,1.72281 5.66857,-0.58506 5.66858,-1.19674 5.66857,0.14255 5.66857,-8.47417 5.66857,1.96481 5.66857,-2.84246 5.66857,2.17575 5.66857,-5.31823 5.66858,-2.27538 5.66857,-1.08223 5.66857,-2.77907 5.66857,-2.22128 5.66857,-1.46316 5.66857,0.63272 5.66857,-1.03372 5.66858,-0.82888 5.66857,-1.55509 5.66857,-1.58307 5.66857,-13.58628"
         style="fill:none;stroke:#ff7f0e;stroke-width:1.5;stroke-linecap:square;stroke-linejoin:round;stroke-miterlimit:10;stroke-dasharray:none;stroke-opacity:1"
         id="path294" /></g><g
       id="g298"
       clip-path="url(#clipPath302)"
       transform="matrix(0.57532877,0,0,0.57532877,8.9257268,141.99182)"><path
         d="m 57.6,268.0229 5.668571,1.42892 5.668572,-8.07589 5.668571,-7.79379 5.668572,-5.64833 5.668571,-7.75292 5.668572,-4.04358 5.668571,-4.08636 5.66857,-4.71246 5.66857,-1.46976 5.66857,-5.51727 5.66858,-3.30463 5.66857,-2.9126 5.66857,-7.21783 5.66857,-1.3406 5.66857,-1.40092 5.66857,-1.37337 5.66857,2.91622 5.66858,-2.42726 5.66857,-3.89506 5.66857,-4.64335 5.66857,-0.32115 5.66857,-5.95311 5.66857,-4.60529 5.66857,2.57913 5.66858,-1.42345 5.66857,-2.5196 5.66857,1.68021 5.66857,-2.10171 5.66857,0.85394 5.66857,-1.44419 5.66857,0.3167 5.66858,-0.0515 5.66857,-2.80665 5.66857,2.38219 5.66857,-0.60456 5.66857,2.92908 5.66857,-2.06311 5.66857,0.23336 5.66858,-5.83491 5.66857,3.88242 5.66857,0.28138 5.66857,-3.46911 5.66857,4.76619 5.66857,2.53113 5.66857,-0.008 5.66858,-2.13461 5.66857,-0.48107 5.66857,-7.07947 5.66857,1.56844 5.66857,-3.28865 5.66857,3.03699 5.66857,-4.01639 5.66858,-2.36201 5.66857,-1.96298 5.66857,-2.68185 5.66857,-4.0712 5.66857,-1.1588 5.66857,0.8794 5.66857,-1.61109 5.66858,-0.78287 5.66857,-3.58434 5.66857,-3.54687 5.66857,-11.50606"
         style="fill:none;stroke:#2ca02c;stroke-width:1.5;stroke-linecap:square;stroke-linejoin:round;stroke-miterlimit:10;stroke-dasharray:none;stroke-opacity:1"
         id="path304" /></g><g
       id="g308"
       clip-path="url(#clipPath312)"
       style="stroke:#8c564b;stroke-opacity:1"
       transform="matrix(0.57532877,0,0,0.57532877,8.9257268,141.99182)"><path
         d="m 57.6,267.89252 5.668571,1.38823 5.668572,-8.71929 5.668571,-7.77985 5.668572,-5.58253 5.668571,-7.85236 5.668572,-4.1141 5.668571,-4.28719 5.66857,-5.12367 5.66857,-1.13014 5.66857,-5.51012 5.66858,-3.4242 5.66857,-3.13591 5.66857,-7.24944 5.66857,-1.59432 5.66857,-1.35207 5.66857,-1.53525 5.66857,2.98501 5.66858,-2.20101 5.66857,-4.50892 5.66857,-4.45556 5.66857,-0.2549 5.66857,-5.80942 5.66857,-4.32462 5.66857,2.64974 5.66858,-1.73285 5.66857,-2.78642 5.66857,1.5789 5.66857,-2.39493 5.66857,1.69312 5.66857,-1.08767 5.66857,0.64807 5.66858,-0.41551 5.66857,-3.5788 5.66857,2.15612 5.66857,-0.32396 5.66857,2.27752 5.66857,-2.42484 5.66857,0.28797 5.66858,-5.65565 5.66857,4.08585 5.66857,0.81541 5.66857,-3.16956 5.66857,4.04437 5.66857,2.73966 5.66857,-1.03901 5.66858,-2.0523 5.66857,-2.83325 5.66857,-6.04334 5.66857,0.68884 5.66857,-2.8978 5.66857,1.75699 5.66857,-2.45754 5.66858,-2.70367 5.66857,-1.9716 5.66857,-1.92374 5.66857,-3.11737 5.66857,0.067 5.66857,1.94038 5.66857,-0.0955 5.66858,-0.0837 5.66857,-5.05415 5.66857,-2.1487 5.66857,-5.89839"
         style="fill:none;stroke:#8c564b;stroke-width:1.5;stroke-linecap:square;stroke-linejoin:round;stroke-miterlimit:10;stroke-dasharray:none;stroke-opacity:1"
         id="path314" /></g><g
       id="g318"
       clip-path="url(#clipPath322)"
       transform="matrix(0.57532877,0,0,0.57532877,8.9257268,141.99182)"><path
         d="m 57.6,268.02664 5.668571,1.50552 5.668572,-8.6795 5.668571,-7.89232 5.668572,-5.6776 5.668571,-7.63312 5.668572,-3.80256 5.668571,-3.97348 5.66857,-4.9188 5.66857,-1.06291 5.66857,-5.44689 5.66858,-3.37014 5.66857,-2.65815 5.66857,-7.27977 5.66857,-0.97742 5.66857,-1.54821 5.66857,-1.42971 5.66857,3.04176 5.66858,-1.75983 5.66857,-4.53417 5.66857,-4.19826 5.66857,-0.10616 5.66857,-5.86981 5.66857,-4.48512 5.66857,2.93956 5.66858,-1.51196 5.66857,-2.21008 5.66857,1.7801 5.66857,-2.48196 5.66857,2.15671 5.66857,-0.96396 5.66857,-0.46374 5.66858,-0.43847 5.66857,-3.85663 5.66857,2.10166 5.66857,-0.53585 5.66857,2.25767 5.66857,-2.7112 5.66857,0.71204 5.66858,-6.66115 5.66857,3.79655 5.66857,0.42789 5.66857,-3.45738 5.66857,3.88333 5.66857,2.86199 5.66857,-0.50424 5.66858,-1.50692 5.66857,-3.02333 5.66857,-5.90881 5.66857,-0.99325 5.66857,-3.19491 5.66857,1.70487 5.66857,-2.83583 5.66858,-3.05859 5.66857,-3.37124 5.66857,-0.91943 5.66857,-2.93663 5.66857,-1.39457 5.66857,2.96536 5.66857,-1.42154 5.66858,-0.80346 5.66857,-6.67971 5.66857,-3.58392 5.66857,-7.71226"
         style="fill:none;stroke:#9467bd;stroke-width:1.5;stroke-linecap:square;stroke-linejoin:round;stroke-miterlimit:10;stroke-dasharray:none;stroke-opacity:1"
         id="path324" /></g><path
       d="M 42.064664,163.86351 V 316.9654"
       style="fill:none;stroke:#000000;stroke-width:0.460263;stroke-linecap:square;stroke-linejoin:miter;stroke-miterlimit:10;stroke-dasharray:none;stroke-opacity:1"
       id="path338" /><path
       d="M 247.52608,163.86351 V 316.9654"
       style="fill:none;stroke:#000000;stroke-width:0.460263;stroke-linecap:square;stroke-linejoin:miter;stroke-miterlimit:10;stroke-dasharray:none;stroke-opacity:1"
       id="path340" /><path
       d="M 42.064664,163.86351 H 247.52608"
       style="fill:none;stroke:#000000;stroke-width:0.460263;stroke-linecap:square;stroke-linejoin:miter;stroke-miterlimit:10;stroke-dasharray:none;stroke-opacity:1"
       id="path342" /><path
       d="M 42.064664,316.9654 H 247.52608"
       style="fill:none;stroke:#000000;stroke-width:0.460263;stroke-linecap:square;stroke-linejoin:miter;stroke-miterlimit:10;stroke-dasharray:none;stroke-opacity:1"
       id="path344" /><path
       d="M 80.43926,215.27276 H 91.94583"
       style="fill:none;stroke:#1f77b4;stroke-width:0.862993;stroke-linecap:square;stroke-linejoin:round;stroke-miterlimit:10;stroke-dasharray:none;stroke-opacity:1"
       id="path354" /><path
       d="M 80.43926,206.83161 H 91.94583"
       style="fill:none;stroke:#ff7f0e;stroke-width:0.862993;stroke-linecap:square;stroke-linejoin:round;stroke-miterlimit:10;stroke-dasharray:none;stroke-opacity:1"
       id="path360" /><path
       d="M 80.43926,198.39046 H 91.94583"
       style="fill:none;stroke:#2ca02c;stroke-width:0.862993;stroke-linecap:square;stroke-linejoin:round;stroke-miterlimit:10;stroke-dasharray:none;stroke-opacity:1"
       id="path366" /><path
       d="M 80.43926,189.9493 H 91.94583"
       style="fill:none;stroke:#8c564b;stroke-width:0.862993;stroke-linecap:square;stroke-linejoin:round;stroke-miterlimit:10;stroke-dasharray:none;stroke-opacity:1"
       id="path372" /><path
       d="M 80.43926,181.50815 H 91.94583"
       style="fill:none;stroke:#9467bd;stroke-width:0.862993;stroke-linecap:square;stroke-linejoin:round;stroke-miterlimit:10;stroke-dasharray:none;stroke-opacity:1"
       id="path378" /><path
       d="M 80.43926,173.067 H 91.94583"
       style="fill:none;stroke:#d62728;stroke-width:0.862993;stroke-linecap:square;stroke-linejoin:round;stroke-miterlimit:10;stroke-dasharray:none;stroke-opacity:1"
       id="path384" /></g><g
     inkscape:groupmode="layer"
     id="layer1"
     inkscape:label="text"
     style="display:inline"><text
       style="font-variant:normal;font-weight:normal;font-size:7.67105px;font-family:'DejaVu Sans';-inkscape-font-specification:DejaVuSans;writing-mode:lr-tb;fill:#000000;fill-opacity:1;fill-rule:nonzero;stroke:none;stroke-width:0.767105"
       id="text32"
       x="25.961376"
       y="236.30373"><tspan
         x="25.961376 30.840166 33.279556"
         y="236.30373"
         sodipodi:role="line"
         id="tspan30"
         style="stroke-width:0.767105">0.0</tspan></text><text
       transform="matrix(1.3333333,0,0,1.3333333,-28.023958,443.59358)"
       style="font-variant:normal;font-weight:normal;font-size:5.75329px;font-family:'DejaVu Sans';-inkscape-font-specification:DejaVuSans;writing-mode:lr-tb;fill:#000000;fill-opacity:1;fill-rule:nonzero;stroke:none;stroke-width:0.575329"
       id="text50"
       x="63.579338"
       y="-155.46739"><tspan
         x="63.579338 67.238434 69.067978"
         y="-155.46739"
         sodipodi:role="line"
         id="tspan48"
         style="stroke-width:0.575329">0.2</tspan></text><text
       transform="matrix(1.3333333,0,0,1.3333333,-28.023958,443.59358)"
       style="font-variant:normal;font-weight:normal;font-size:5.75329px;font-family:'DejaVu Sans';-inkscape-font-specification:DejaVuSans;writing-mode:lr-tb;fill:#000000;fill-opacity:1;fill-rule:nonzero;stroke:none;stroke-width:0.575329"
       id="text68"
       x="89.669685"
       y="-155.46739"><tspan
         x="89.669685 93.328773 95.158318"
         y="-155.46739"
         sodipodi:role="line"
         id="tspan66"
         style="stroke-width:0.575329">0.4</tspan></text><text
       transform="matrix(1.3333333,0,0,1.3333333,-28.023958,443.59358)"
       style="font-variant:normal;font-weight:normal;font-size:5.75329px;font-family:'DejaVu Sans';-inkscape-font-specification:DejaVuSans;writing-mode:lr-tb;fill:#000000;fill-opacity:1;fill-rule:nonzero;stroke:none;stroke-width:0.575329"
       id="text86"
       x="115.76003"
       y="-155.46739"><tspan
         x="115.76003 119.41911 121.24864"
         y="-155.46739"
         sodipodi:role="line"
         id="tspan84"
         style="stroke-width:0.575329">0.6</tspan></text><text
       transform="matrix(1.3333333,0,0,1.3333333,-28.023958,443.59358)"
       style="font-variant:normal;font-weight:normal;font-size:5.75329px;font-family:'DejaVu Sans';-inkscape-font-specification:DejaVuSans;writing-mode:lr-tb;fill:#000000;fill-opacity:1;fill-rule:nonzero;stroke:none;stroke-width:0.575329"
       id="text104"
       x="141.85034"
       y="-155.46739"><tspan
         x="141.85034 145.50943 147.339"
         y="-155.46739"
         sodipodi:role="line"
         id="tspan102"
         style="stroke-width:0.575329">0.8</tspan></text><text
       transform="matrix(1.3333333,0,0,1.3333333,-28.023958,443.59358)"
       style="font-variant:normal;font-weight:normal;font-size:5.75329px;font-family:'DejaVu Sans';-inkscape-font-specification:DejaVuSans;writing-mode:lr-tb;fill:#000000;fill-opacity:1;fill-rule:nonzero;stroke:none;stroke-width:0.575329"
       id="text122"
       x="167.94069"
       y="-155.46739"><tspan
         x="167.94069 171.59978 173.42932"
         y="-155.46739"
         sodipodi:role="line"
         id="tspan120"
         style="stroke-width:0.575329">1.0</tspan></text><text
       transform="matrix(1.3333333,0,0,1.3333333,-28.023958,443.59358)"
       style="font-variant:normal;font-weight:normal;font-size:5.75329px;font-family:'DejaVu Sans';-inkscape-font-specification:DejaVuSans;writing-mode:lr-tb;fill:#000000;fill-opacity:1;fill-rule:nonzero;stroke:none;stroke-width:0.575329"
       id="text140"
       x="194.03104"
       y="-155.46739"><tspan
         x="194.03104 197.69012 199.51965"
         y="-155.46739"
         sodipodi:role="line"
         id="tspan138"
         style="stroke-width:0.575329">1.2</tspan></text><text
       transform="matrix(1.3333333,0,0,1.3333333,-28.023958,443.59358)"
       style="font-variant:normal;font-weight:normal;font-size:5.75329px;font-family:'DejaVu Sans';-inkscape-font-specification:DejaVuSans;writing-mode:lr-tb;fill:#000000;fill-opacity:1;fill-rule:nonzero;stroke:none;stroke-width:0.575329"
       id="text158"
       x="220.12137"
       y="-155.46739"><tspan
         x="220.12137 223.78046 225.61"
         y="-155.46739"
         sodipodi:role="line"
         id="tspan156"
         style="stroke-width:0.575329">1.4</tspan></text><text
       transform="matrix(1.3333333,0,0,1.3333333,-28.023958,443.59358)"
       style="font-variant:normal;font-weight:normal;font-size:5.75329px;font-family:'DejaVu Sans';-inkscape-font-specification:DejaVuSans;writing-mode:lr-tb;fill:#000000;fill-opacity:1;fill-rule:nonzero;stroke:none;stroke-width:0.575329"
       id="text162"
       x="109.97449"
       y="-147.60156"><tspan
         x="109.97449 114.4333 117.97156 121.61914 125.14017 130.74387 132.34326 135.50758 137.33713 140.99046 142.58987 145.58736 147.84264 151.3694 155.01698 158.1813 161.71957 163.5491 165.48796 167.3175 172.28259 175.93593"
         y="-147.60156"
         sodipodi:role="line"
         id="tspan160"
         style="stroke-width:0.575329">Genomic distance / Mbp</tspan></text><text
       transform="matrix(1.3333333,0,0,1.3333333,-28.023958,443.59358)"
       style="font-variant:normal;font-weight:normal;font-size:5.75329px;font-family:'DejaVu Sans';-inkscape-font-specification:DejaVuSans;writing-mode:lr-tb;fill:#000000;fill-opacity:1;fill-rule:nonzero;stroke:none;stroke-width:0.575329"
       id="text180"
       x="28.886038"
       y="-161.67914"><tspan
         x="28.886038 32.545128 34.374676"
         y="-161.67914"
         sodipodi:role="line"
         id="tspan178"
         style="stroke-width:0.575329">0.0</tspan></text><text
       transform="matrix(1.3333333,0,0,1.3333333,-28.023958,443.59358)"
       style="font-variant:normal;font-weight:normal;font-size:5.75329px;font-family:'DejaVu Sans';-inkscape-font-specification:DejaVuSans;writing-mode:lr-tb;fill:#000000;fill-opacity:1;fill-rule:nonzero;stroke:none;stroke-width:0.575329"
       id="text198"
       x="28.886038"
       y="-192.29951"><tspan
         x="28.886038 32.545128 34.374676"
         y="-192.29951"
         sodipodi:role="line"
         id="tspan196"
         style="stroke-width:0.575329">0.2</tspan></text><text
       transform="matrix(1.3333333,0,0,1.3333333,-28.023958,443.59358)"
       style="font-variant:normal;font-weight:normal;font-size:5.75329px;font-family:'DejaVu Sans';-inkscape-font-specification:DejaVuSans;writing-mode:lr-tb;fill:#000000;fill-opacity:1;fill-rule:nonzero;stroke:none;stroke-width:0.575329"
       id="text216"
       x="28.886038"
       y="-222.91989"><tspan
         x="28.886038 32.545128 34.374676"
         y="-222.91989"
         sodipodi:role="line"
         id="tspan214"
         style="stroke-width:0.575329">0.4</tspan></text><text
       transform="matrix(1.3333333,0,0,1.3333333,-28.023958,443.59358)"
       style="font-variant:normal;font-weight:normal;font-size:5.75329px;font-family:'DejaVu Sans';-inkscape-font-specification:DejaVuSans;writing-mode:lr-tb;fill:#000000;fill-opacity:1;fill-rule:nonzero;stroke:none;stroke-width:0.575329"
       id="text234"
       x="28.886038"
       y="-253.54027"><tspan
         x="28.886038 32.545128 34.374676"
         y="-253.54027"
         sodipodi:role="line"
         id="tspan232"
         style="stroke-width:0.575329">0.6</tspan></text><text
       transform="matrix(1.3333333,0,0,1.3333333,-28.023958,443.59358)"
       style="font-variant:normal;font-weight:normal;font-size:5.75329px;font-family:'DejaVu Sans';-inkscape-font-specification:DejaVuSans;writing-mode:lr-tb;fill:#000000;fill-opacity:1;fill-rule:nonzero;stroke:none;stroke-width:0.575329"
       id="text252"
       x="28.886038"
       y="-284.16064"><tspan
         x="28.886038 32.545128 34.374676"
         y="-284.16064"
         sodipodi:role="line"
         id="tspan250"
         style="stroke-width:0.575329">0.8</tspan></text><text
       transform="matrix(1.3333333,0,0,1.3333333,-28.023958,443.59358)"
       style="font-variant:normal;font-weight:normal;font-size:5.75329px;font-family:'DejaVu Sans';-inkscape-font-specification:DejaVuSans;writing-mode:lr-tb;fill:#000000;fill-opacity:1;fill-rule:nonzero;stroke:none;stroke-width:0.575329"
       id="text270"
       x="28.886038"
       y="-314.78104"><tspan
         x="28.886038 32.545128 34.374676"
         y="-314.78104"
         sodipodi:role="line"
         id="tspan268"
         style="stroke-width:0.575329">1.0</tspan></text><text
       transform="matrix(0,-1.3333333,1.3333333,0,-28.023958,443.59358)"
       style="font-variant:normal;font-weight:normal;font-size:5.75329px;font-family:'DejaVu Sans';-inkscape-font-specification:DejaVuSans;writing-mode:lr-tb;fill:#000000;fill-opacity:1;fill-rule:nonzero;stroke:none;stroke-width:0.575329"
       id="text274"
       x="212.61896"
       y="25.389118"><tspan
         x="212.61896 216.0882 219.62646 223.15323 225.51784 228.51529 232.03632 235.6839 237.51343 240.67775 244.19875 246.56335 248.92796 252.46623 254.06564 257.59241 259.84772 261.44711 264.96811"
         y="25.389118"
         sodipodi:role="line"
         id="tspan272"
         style="stroke-width:0.575329">Pearson correlation</tspan></text><text
       transform="matrix(1.3333333,0,0,1.3333333,-28.023958,443.59358)"
       style="font-variant:normal;font-weight:normal;font-size:6.90395px;font-family:'DejaVu Sans';-inkscape-font-specification:DejaVuSans;writing-mode:lr-tb;fill:#000000;fill-opacity:1;fill-rule:nonzero;stroke:none;stroke-width:0.575329"
       id="text348"
       x="73.746765"
       y="-328.15564"><tspan
         x="73.746765 77.909836 82.155762 86.387886 89.225403 92.822357 97.047577 101.42468 103.62013 107.41729 111.64252 114.48004 117.31756 121.5635 123.48278 127.7149 130.42125 132.34053 136.56577 140.94286 143.13832 147.22545 150.8224 153.01787 155.21332 159.59732 163.84325 168.22034 172.44557 179.17 181.08929 184.88647 187.08194 191.46594 193.38522 196.98218 199.68854 203.92064 208.29774 212.09492"
         y="-328.15564"
         sodipodi:role="line"
         id="tspan346"
         style="stroke-width:0.575329">Pearson correlation vs. genomic distance</tspan></text><text
       transform="matrix(1.3333333,0,0,1.3333333,-28.023958,443.59358)"
       style="font-variant:normal;font-weight:normal;font-size:6.90395px;font-family:'DejaVu Sans';-inkscape-font-specification:DejaVuSans;writing-mode:lr-tb;fill:#000000;fill-opacity:1;fill-rule:nonzero;stroke:none;stroke-width:0.575329"
       id="text352"
       x="45.795887"
       y="-320.41745"><tspan
         x="45.795887 51.146442 57.104549 61.495461 65.886368 70.277275 74.66819 79.05909 81.254547 83.450005 87.840912 90.036377 94.427277 96.622734 101.01363 103.2091 107.60001 109.79546 114.18637 116.38183 120.77274 125.16364 127.3591 131.75 136.14091 138.33638 142.72726 147.11818 149.31364 153.70456 158.09546 160.29092 164.68182 169.07274 171.26819 175.6591 180.05 182.24547 186.63637 191.02728 193.22273 197.61365 202.00455 204.20001 208.42522 212.80232 214.99779 219.52676 223.91769 228.30859 232.69951 234.89496 237.09041 241.48131"
         y="-320.41745"
         sodipodi:role="line"
         id="tspan350"
         style="stroke-width:0.575329">GM12878, 1,2,4,7,9,11,13,14,16,17,18,20,22 on K562, 10</tspan></text><text
       style="font-variant:normal;font-weight:normal;font-size:7.67105px;font-family:'DejaVu Sans';-inkscape-font-specification:DejaVuSans;writing-mode:lr-tb;fill:#000000;fill-opacity:1;fill-rule:nonzero;stroke:none;stroke-width:0.767105"
       id="text358"
       x="100.70734"
       y="159.24806"><tspan
         x="100.70734 105.58611 110.4649 112.90428 117.62199 122.4931 124.9325 127.51764 129.95703 135.20404 140.81926 146.17363 148.75877 151.19818 156.07697 158.51634 163.39514 168.27393"
         y="159.24806"
         sodipodi:role="line"
         id="tspan356"
         style="stroke-width:0.767105">20 ep / AUC: 0.538</tspan></text><text
       style="font-variant:normal;font-weight:normal;font-size:7.67105px;font-family:'DejaVu Sans';-inkscape-font-specification:DejaVuSans;writing-mode:lr-tb;fill:#000000;fill-opacity:1;fill-rule:nonzero;stroke:none;stroke-width:0.767105"
       id="text364"
       x="100.70734"
       y="170.50294"><tspan
         x="100.70734 105.58611 110.4649 112.90428 117.62199 122.4931 124.9325 127.51764 129.95703 135.20404 140.81926 146.17363 148.75877 151.19818 156.07697 158.51634 163.39514 168.27393"
         y="170.50294"
         sodipodi:role="line"
         id="tspan362"
         style="stroke-width:0.767105">40 ep / AUC: 0.580</tspan></text><text
       style="font-variant:normal;font-weight:normal;font-size:7.67105px;font-family:'DejaVu Sans';-inkscape-font-specification:DejaVuSans;writing-mode:lr-tb;fill:#000000;fill-opacity:1;fill-rule:nonzero;stroke:none;stroke-width:0.767105"
       id="text370"
       x="100.70734"
       y="181.75783"><tspan
         x="100.70734 105.58611 110.4649 112.90428 117.62199 122.4931 124.9325 127.51764 129.95703 135.20404 140.81926 146.17363 148.75877 151.19818 156.07697 158.51634 163.39514 168.27393"
         y="181.75783"
         sodipodi:role="line"
         id="tspan368"
         style="stroke-width:0.767105">60 ep / AUC: 0.577</tspan></text><text
       style="font-variant:normal;font-weight:normal;font-size:7.67105px;font-family:'DejaVu Sans';-inkscape-font-specification:DejaVuSans;writing-mode:lr-tb;fill:#000000;fill-opacity:1;fill-rule:nonzero;stroke:none;stroke-width:0.767105"
       id="text376"
       x="100.70734"
       y="193.01266"><tspan
         x="100.70734 105.58611 110.4649 112.90428 117.62199 122.4931 124.9325 127.51764 129.95703 135.20404 140.81926 146.17363 148.75877 151.19818 156.07697 158.51634 163.39514 168.27393"
         y="193.01266"
         sodipodi:role="line"
         id="tspan374"
         style="stroke-width:0.767105">80 ep / AUC: 0.570</tspan></text><text
       style="font-variant:normal;font-weight:normal;font-size:7.67105px;font-family:'DejaVu Sans';-inkscape-font-specification:DejaVuSans;writing-mode:lr-tb;fill:#000000;fill-opacity:1;fill-rule:nonzero;stroke:none;stroke-width:0.767105"
       id="text382"
       x="100.70734"
       y="204.26755"><tspan
         x="100.70734 105.58611 110.4649 115.34369 117.78307 122.50078 127.37187 129.81131 132.39645 134.83582 140.08282 145.69804 151.05243 153.63757 156.07697 160.95576 163.39514 168.27393 173.15273"
         y="204.26755"
         sodipodi:role="line"
         id="tspan380"
         style="stroke-width:0.767105">100 ep / AUC: 0.574</tspan></text><text
       style="font-variant:normal;font-weight:normal;font-size:7.67105px;font-family:'DejaVu Sans';-inkscape-font-specification:DejaVuSans;writing-mode:lr-tb;fill:#000000;fill-opacity:1;fill-rule:nonzero;stroke:none;stroke-width:0.767105"
       id="text388"
       x="100.70734"
       y="215.52238"><tspan
         x="100.70734 103.71439 106.86717 111.56955 116.43298 120.4296 123.12979 127.84752 131.00029 133.4397 139.38475 146.00488 150.88367 155.76245 160.64125 165.52002 170.39882 172.83821 175.42336 177.86273 183.10974 188.72495 194.07938 196.66449 199.10388 203.9827 206.42206 211.30084 216.17963"
         y="215.52238"
         sodipodi:role="line"
         id="tspan386"
         style="stroke-width:0.767105">transfer GM12878 / AUC: 0.738</tspan></text></g></svg>
