<?xml version="1.0" encoding="UTF-8" standalone="no"?>
<svg
   xmlns:dc="http://purl.org/dc/elements/1.1/"
   xmlns:cc="http://creativecommons.org/ns#"
   xmlns:rdf="http://www.w3.org/1999/02/22-rdf-syntax-ns#"
   xmlns:svg="http://www.w3.org/2000/svg"
   xmlns="http://www.w3.org/2000/svg"
   xmlns:sodipodi="http://sodipodi.sourceforge.net/DTD/sodipodi-0.dtd"
   xmlns:inkscape="http://www.inkscape.org/namespaces/inkscape"
   version="1.1"
   id="svg2"
   xml:space="preserve"
   width="80mm"
   height="65.300003mm"
   viewBox="0 0 302.36219 246.80315"
   sodipodi:docname="pearson_chr03.svg"
   inkscape:version="1.0.2 (1.0.2+r75+1)"><metadata
     id="metadata8"><rdf:RDF><cc:Work
         rdf:about=""><dc:format>image/svg+xml</dc:format><dc:type
           rdf:resource="http://purl.org/dc/dcmitype/StillImage" /><dc:title></dc:title></cc:Work></rdf:RDF></metadata><defs
     id="defs6"><clipPath
       clipPathUnits="userSpaceOnUse"
       id="clipPath22"><path
         d="M 57.6,38.016 H 414.72 V 304.128 H 57.6 Z"
         id="path20" /></clipPath><clipPath
       clipPathUnits="userSpaceOnUse"
       id="clipPath40"><path
         d="M 57.6,38.016 H 414.72 V 304.128 H 57.6 Z"
         id="path38" /></clipPath><clipPath
       clipPathUnits="userSpaceOnUse"
       id="clipPath58"><path
         d="M 57.6,38.016 H 414.72 V 304.128 H 57.6 Z"
         id="path56" /></clipPath><clipPath
       clipPathUnits="userSpaceOnUse"
       id="clipPath76"><path
         d="M 57.6,38.016 H 414.72 V 304.128 H 57.6 Z"
         id="path74" /></clipPath><clipPath
       clipPathUnits="userSpaceOnUse"
       id="clipPath94"><path
         d="M 57.6,38.016 H 414.72 V 304.128 H 57.6 Z"
         id="path92" /></clipPath><clipPath
       clipPathUnits="userSpaceOnUse"
       id="clipPath112"><path
         d="M 57.6,38.016 H 414.72 V 304.128 H 57.6 Z"
         id="path110" /></clipPath><clipPath
       clipPathUnits="userSpaceOnUse"
       id="clipPath130"><path
         d="M 57.6,38.016 H 414.72 V 304.128 H 57.6 Z"
         id="path128" /></clipPath><clipPath
       clipPathUnits="userSpaceOnUse"
       id="clipPath148"><path
         d="M 57.6,38.016 H 414.72 V 304.128 H 57.6 Z"
         id="path146" /></clipPath><clipPath
       clipPathUnits="userSpaceOnUse"
       id="clipPath170"><path
         d="M 57.6,38.016 H 414.72 V 304.128 H 57.6 Z"
         id="path168" /></clipPath><clipPath
       clipPathUnits="userSpaceOnUse"
       id="clipPath188"><path
         d="M 57.6,38.016 H 414.72 V 304.128 H 57.6 Z"
         id="path186" /></clipPath><clipPath
       clipPathUnits="userSpaceOnUse"
       id="clipPath206"><path
         d="M 57.6,38.016 H 414.72 V 304.128 H 57.6 Z"
         id="path204" /></clipPath><clipPath
       clipPathUnits="userSpaceOnUse"
       id="clipPath224"><path
         d="M 57.6,38.016 H 414.72 V 304.128 H 57.6 Z"
         id="path222" /></clipPath><clipPath
       clipPathUnits="userSpaceOnUse"
       id="clipPath242"><path
         d="M 57.6,38.016 H 414.72 V 304.128 H 57.6 Z"
         id="path240" /></clipPath><clipPath
       clipPathUnits="userSpaceOnUse"
       id="clipPath260"><path
         d="M 57.6,38.016 H 414.72 V 304.128 H 57.6 Z"
         id="path258" /></clipPath><clipPath
       clipPathUnits="userSpaceOnUse"
       id="clipPath282"><path
         d="M 57.6,38.016 H 414.72 V 304.128 H 57.6 Z"
         id="path280" /></clipPath><clipPath
       clipPathUnits="userSpaceOnUse"
       id="clipPath292"><path
         d="M 57.6,38.016 H 414.72 V 304.128 H 57.6 Z"
         id="path290" /></clipPath><clipPath
       clipPathUnits="userSpaceOnUse"
       id="clipPath302"><path
         d="M 57.6,38.016 H 414.72 V 304.128 H 57.6 Z"
         id="path300" /></clipPath><clipPath
       clipPathUnits="userSpaceOnUse"
       id="clipPath312"><path
         d="M 57.6,38.016 H 414.72 V 304.128 H 57.6 Z"
         id="path310" /></clipPath><clipPath
       clipPathUnits="userSpaceOnUse"
       id="clipPath322"><path
         d="M 57.6,38.016 H 414.72 V 304.128 H 57.6 Z"
         id="path320" /></clipPath><clipPath
       clipPathUnits="userSpaceOnUse"
       id="clipPath332"><path
         d="M 57.6,38.016 H 414.72 V 304.128 H 57.6 Z"
         id="path330" /></clipPath></defs><sodipodi:namedview
     pagecolor="#ffffff"
     bordercolor="#666666"
     borderopacity="1"
     objecttolerance="10"
     gridtolerance="10"
     guidetolerance="10"
     inkscape:pageopacity="0"
     inkscape:pageshadow="2"
     inkscape:window-width="1920"
     inkscape:window-height="1020"
     id="namedview4"
     showgrid="false"
     units="mm"
     fit-margin-top="0"
     fit-margin-left="0"
     fit-margin-right="0"
     fit-margin-bottom="0"
     inkscape:zoom="2.6301672"
     inkscape:cx="82.814098"
     inkscape:cy="147.50174"
     inkscape:window-x="0"
     inkscape:window-y="0"
     inkscape:window-maximized="1"
     inkscape:current-layer="layer1" /><g
     id="g10"
     inkscape:groupmode="layer"
     inkscape:label="pearson_chr03"
     transform="matrix(1.3333333,0,0,-1.3333333,-28.023958,443.59358)"><path
       d="m 52.989207,173.04145 h 11.50654"
       style="fill:none;stroke:#d62728;stroke-width:0.862991;stroke-linecap:square;stroke-linejoin:round;stroke-miterlimit:10;stroke-dasharray:none;stroke-opacity:1"
       id="path384" /><g
       id="g16"
       transform="matrix(0.57532703,0,0,0.57532703,8.9257635,141.99226)"><g
         id="g18"
         clip-path="url(#clipPath22)"><path
           d="M 57.6,38.016 V 304.128"
           style="fill:none;stroke:#b0b0b0;stroke-width:0.8;stroke-linecap:square;stroke-linejoin:round;stroke-miterlimit:10;stroke-dasharray:none;stroke-opacity:1"
           id="path24" /></g></g><path
       d="m 42.0646,163.86389 v -2.01365"
       style="fill:#000000;fill-opacity:1;fill-rule:nonzero;stroke:#000000;stroke-width:0.460262;stroke-linecap:butt;stroke-linejoin:round;stroke-miterlimit:10;stroke-dasharray:none;stroke-opacity:1"
       id="path28" /><g
       id="g34"
       transform="matrix(0.57532703,0,0,0.57532703,8.9257635,141.99226)"><g
         id="g36"
         clip-path="url(#clipPath40)"><path
           d="M 102.94857,38.016 V 304.128"
           style="fill:none;stroke:#b0b0b0;stroke-width:0.8;stroke-linecap:square;stroke-linejoin:round;stroke-miterlimit:10;stroke-dasharray:none;stroke-opacity:1"
           id="path42" /></g></g><path
       d="m 68.154858,163.86389 v -2.01365"
       style="fill:#000000;fill-opacity:1;fill-rule:nonzero;stroke:#000000;stroke-width:0.460262;stroke-linecap:butt;stroke-linejoin:round;stroke-miterlimit:10;stroke-dasharray:none;stroke-opacity:1"
       id="path46" /><g
       id="g52"
       transform="matrix(0.57532703,0,0,0.57532703,8.9257635,141.99226)"><g
         id="g54"
         clip-path="url(#clipPath58)"><path
           d="M 148.29714,38.016 V 304.128"
           style="fill:none;stroke:#b0b0b0;stroke-width:0.8;stroke-linecap:square;stroke-linejoin:round;stroke-miterlimit:10;stroke-dasharray:none;stroke-opacity:1"
           id="path60" /></g></g><path
       d="m 94.245116,163.86389 v -2.01365"
       style="fill:#000000;fill-opacity:1;fill-rule:nonzero;stroke:#000000;stroke-width:0.460262;stroke-linecap:butt;stroke-linejoin:round;stroke-miterlimit:10;stroke-dasharray:none;stroke-opacity:1"
       id="path64" /><g
       id="g70"
       transform="matrix(0.57532703,0,0,0.57532703,8.9257635,141.99226)"><g
         id="g72"
         clip-path="url(#clipPath76)"><path
           d="M 193.64571,38.016 V 304.128"
           style="fill:none;stroke:#b0b0b0;stroke-width:0.8;stroke-linecap:square;stroke-linejoin:round;stroke-miterlimit:10;stroke-dasharray:none;stroke-opacity:1"
           id="path78" /></g></g><path
       d="m 120.33537,163.86389 v -2.01365"
       style="fill:#000000;fill-opacity:1;fill-rule:nonzero;stroke:#000000;stroke-width:0.460262;stroke-linecap:butt;stroke-linejoin:round;stroke-miterlimit:10;stroke-dasharray:none;stroke-opacity:1"
       id="path82" /><g
       id="g88"
       transform="matrix(0.57532703,0,0,0.57532703,8.9257635,141.99226)"><g
         id="g90"
         clip-path="url(#clipPath94)"><path
           d="M 238.99429,38.016 V 304.128"
           style="fill:none;stroke:#b0b0b0;stroke-width:0.8;stroke-linecap:square;stroke-linejoin:round;stroke-miterlimit:10;stroke-dasharray:none;stroke-opacity:1"
           id="path96" /></g></g><path
       d="m 146.42564,163.86389 v -2.01365"
       style="fill:#000000;fill-opacity:1;fill-rule:nonzero;stroke:#000000;stroke-width:0.460262;stroke-linecap:butt;stroke-linejoin:round;stroke-miterlimit:10;stroke-dasharray:none;stroke-opacity:1"
       id="path100" /><g
       id="g106"
       transform="matrix(0.57532703,0,0,0.57532703,8.9257635,141.99226)"><g
         id="g108"
         clip-path="url(#clipPath112)"><path
           d="M 284.34286,38.016 V 304.128"
           style="fill:none;stroke:#b0b0b0;stroke-width:0.8;stroke-linecap:square;stroke-linejoin:round;stroke-miterlimit:10;stroke-dasharray:none;stroke-opacity:1"
           id="path114" /></g></g><path
       d="m 172.5159,163.86389 v -2.01365"
       style="fill:#000000;fill-opacity:1;fill-rule:nonzero;stroke:#000000;stroke-width:0.460262;stroke-linecap:butt;stroke-linejoin:round;stroke-miterlimit:10;stroke-dasharray:none;stroke-opacity:1"
       id="path118" /><g
       id="g124"
       transform="matrix(0.57532703,0,0,0.57532703,8.9257635,141.99226)"><g
         id="g126"
         clip-path="url(#clipPath130)"><path
           d="M 329.69143,38.016 V 304.128"
           style="fill:none;stroke:#b0b0b0;stroke-width:0.8;stroke-linecap:square;stroke-linejoin:round;stroke-miterlimit:10;stroke-dasharray:none;stroke-opacity:1"
           id="path132" /></g></g><path
       d="m 198.60615,163.86389 v -2.01365"
       style="fill:#000000;fill-opacity:1;fill-rule:nonzero;stroke:#000000;stroke-width:0.460262;stroke-linecap:butt;stroke-linejoin:round;stroke-miterlimit:10;stroke-dasharray:none;stroke-opacity:1"
       id="path136" /><g
       id="g142"
       transform="matrix(0.57532703,0,0,0.57532703,8.9257635,141.99226)"><g
         id="g144"
         clip-path="url(#clipPath148)"><path
           d="M 375.04,38.016 V 304.128"
           style="fill:none;stroke:#b0b0b0;stroke-width:0.8;stroke-linecap:square;stroke-linejoin:round;stroke-miterlimit:10;stroke-dasharray:none;stroke-opacity:1"
           id="path150" /></g></g><path
       d="m 224.69641,163.86389 v -2.01365"
       style="fill:#000000;fill-opacity:1;fill-rule:nonzero;stroke:#000000;stroke-width:0.460262;stroke-linecap:butt;stroke-linejoin:round;stroke-miterlimit:10;stroke-dasharray:none;stroke-opacity:1"
       id="path154" /><g
       id="g164"
       transform="matrix(0.57532703,0,0,0.57532703,8.9257635,141.99226)"><g
         id="g166"
         clip-path="url(#clipPath170)"><path
           d="M 57.6,38.016 H 414.72"
           style="fill:none;stroke:#b0b0b0;stroke-width:0.8;stroke-linecap:square;stroke-linejoin:round;stroke-miterlimit:10;stroke-dasharray:none;stroke-opacity:1"
           id="path172" /></g></g><path
       d="M 42.0646,163.86389 H 40.050956"
       style="fill:#000000;fill-opacity:1;fill-rule:nonzero;stroke:#000000;stroke-width:0.460262;stroke-linecap:butt;stroke-linejoin:round;stroke-miterlimit:10;stroke-dasharray:none;stroke-opacity:1"
       id="path176" /><g
       id="g182"
       transform="matrix(0.57532703,0,0,0.57532703,8.9257635,141.99226)"><g
         id="g184"
         clip-path="url(#clipPath188)"><path
           d="M 57.6,91.2384 H 414.72"
           style="fill:none;stroke:#b0b0b0;stroke-width:0.8;stroke-linecap:square;stroke-linejoin:round;stroke-miterlimit:10;stroke-dasharray:none;stroke-opacity:1"
           id="path190" /></g></g><path
       d="M 42.0646,194.48417 H 40.050956"
       style="fill:#000000;fill-opacity:1;fill-rule:nonzero;stroke:#000000;stroke-width:0.460262;stroke-linecap:butt;stroke-linejoin:round;stroke-miterlimit:10;stroke-dasharray:none;stroke-opacity:1"
       id="path194" /><g
       id="g200"
       transform="matrix(0.57532703,0,0,0.57532703,8.9257635,141.99226)"><g
         id="g202"
         clip-path="url(#clipPath206)"><path
           d="M 57.6,144.4608 H 414.72"
           style="fill:none;stroke:#b0b0b0;stroke-width:0.8;stroke-linecap:square;stroke-linejoin:round;stroke-miterlimit:10;stroke-dasharray:none;stroke-opacity:1"
           id="path208" /></g></g><path
       d="M 42.0646,225.10446 H 40.050956"
       style="fill:#000000;fill-opacity:1;fill-rule:nonzero;stroke:#000000;stroke-width:0.460262;stroke-linecap:butt;stroke-linejoin:round;stroke-miterlimit:10;stroke-dasharray:none;stroke-opacity:1"
       id="path212" /><g
       id="g218"
       transform="matrix(0.57532703,0,0,0.57532703,8.9257635,141.99226)"><g
         id="g220"
         clip-path="url(#clipPath224)"><path
           d="M 57.6,197.6832 H 414.72"
           style="fill:none;stroke:#b0b0b0;stroke-width:0.8;stroke-linecap:square;stroke-linejoin:round;stroke-miterlimit:10;stroke-dasharray:none;stroke-opacity:1"
           id="path226" /></g></g><path
       d="M 42.0646,255.72474 H 40.050956"
       style="fill:#000000;fill-opacity:1;fill-rule:nonzero;stroke:#000000;stroke-width:0.460262;stroke-linecap:butt;stroke-linejoin:round;stroke-miterlimit:10;stroke-dasharray:none;stroke-opacity:1"
       id="path230" /><g
       id="g236"
       transform="matrix(0.57532703,0,0,0.57532703,8.9257635,141.99226)"><g
         id="g238"
         clip-path="url(#clipPath242)"><path
           d="M 57.6,250.9056 H 414.72"
           style="fill:none;stroke:#b0b0b0;stroke-width:0.8;stroke-linecap:square;stroke-linejoin:round;stroke-miterlimit:10;stroke-dasharray:none;stroke-opacity:1"
           id="path244" /></g></g><path
       d="M 42.0646,286.34503 H 40.050956"
       style="fill:#000000;fill-opacity:1;fill-rule:nonzero;stroke:#000000;stroke-width:0.460262;stroke-linecap:butt;stroke-linejoin:round;stroke-miterlimit:10;stroke-dasharray:none;stroke-opacity:1"
       id="path248" /><g
       id="g254"
       transform="matrix(0.57532703,0,0,0.57532703,8.9257635,141.99226)"><g
         id="g256"
         clip-path="url(#clipPath260)"><path
           d="M 57.6,304.128 H 414.72"
           style="fill:none;stroke:#b0b0b0;stroke-width:0.8;stroke-linecap:square;stroke-linejoin:round;stroke-miterlimit:10;stroke-dasharray:none;stroke-opacity:1"
           id="path262" /></g></g><path
       d="M 42.0646,316.96531 H 40.050956"
       style="fill:#000000;fill-opacity:1;fill-rule:nonzero;stroke:#000000;stroke-width:0.460262;stroke-linecap:butt;stroke-linejoin:round;stroke-miterlimit:10;stroke-dasharray:none;stroke-opacity:1"
       id="path266" /><g
       id="g276"
       transform="matrix(0.57532703,0,0,0.57532703,8.9257635,141.99226)"><g
         id="g278"
         clip-path="url(#clipPath282)"><path
           d="m 57.6,264.90451 5.668571,5.67236 5.668572,-11.92454 5.668571,-3.29841 5.668572,-6.21829 5.668571,-6.85412 5.668572,-5.45336 5.668571,-1.86795 5.66857,-4.16438 5.66857,-2.38428 5.66857,-3.77484 5.66858,-3.75802 5.66857,-2.28418 5.66857,-1.93658 5.66857,-0.19383 5.66857,-0.84451 5.66857,0.13796 5.66857,-0.20747 5.66858,-3.54768 5.66857,-1.7145 5.66857,-2.70404 5.66857,-5.04268 5.66857,-4.79788 5.66857,-3.32993 5.66857,1.27485 5.66858,-3.40724 5.66857,-3.55241 5.66857,0.92818 5.66857,-1.60783 5.66857,-1.88216 5.66857,-4.64893 5.66857,1.31386 5.66858,-5.26242 5.66857,0.25938 5.66857,-1.65 5.66857,0.73893 5.66857,-4.30859 5.66857,-1.63535 5.66857,-7.46776 5.66858,-2.93896 5.66857,1.67944 5.66857,-0.46287 5.66857,-6.19469 5.66857,2.58754 5.66857,-4.77972 5.66857,-1.78577 5.66858,1.25214 5.66857,-0.26032 5.66857,-3.35589 5.66857,-0.0273 5.66857,0.0768 5.66857,-2.03273 5.66857,-2.51385 5.66858,2.17563 5.66857,1.11838 5.66857,-3.98563 5.66857,2.5836 5.66857,-0.99845 5.66857,-5.77297 5.66857,-0.10003 5.66858,-1.65571 5.66857,-1.37234 5.66857,-1.05427 5.66857,-24.1538"
           style="fill:none;stroke:#1f77b4;stroke-width:1.5;stroke-linecap:square;stroke-linejoin:round;stroke-miterlimit:10;stroke-dasharray:none;stroke-opacity:1"
           id="path284" /></g></g><g
       id="g288"
       clip-path="url(#clipPath292)"
       transform="matrix(0.57532703,0,0,0.57532703,8.9257635,141.99226)"><path
         d="m 57.6,263.07863 5.668571,4.5326 5.668572,-6.89519 5.668571,-7.8064 5.668572,-6.58129 5.668571,-7.34178 5.668572,-4.2471 5.668571,-1.89886 5.66857,-3.76685 5.66857,-2.31073 5.66857,-3.99394 5.66858,-3.97478 5.66857,-2.35009 5.66857,-1.28567 5.66857,0.43979 5.66857,-0.39757 5.66857,-0.13841 5.66857,-0.0183 5.66858,-3.69613 5.66857,-1.33833 5.66857,-2.32114 5.66857,-4.38831 5.66857,-4.20993 5.66857,-3.11582 5.66857,0.67061 5.66858,-3.51502 5.66857,-2.80853 5.66857,0.80178 5.66857,-1.56866 5.66857,-1.9388 5.66857,-4.31144 5.66857,1.22801 5.66858,-4.9535 5.66857,0.26912 5.66857,-1.79535 5.66857,-0.76095 5.66857,-3.15097 5.66857,-3.0244 5.66857,-6.24496 5.66858,-3.63752 5.66857,1.43433 5.66857,-1.55546 5.66857,-5.19115 5.66857,0.86349 5.66857,-3.57684 5.66857,-3.18358 5.66858,4.25617 5.66857,-1.41837 5.66857,-1.83246 5.66857,0.14804 5.66857,1.51372 5.66857,-2.92388 5.66857,-2.49426 5.66858,3.53564 5.66857,0.57979 5.66857,-3.79502 5.66857,3.65269 5.66857,-0.81382 5.66857,-5.55075 5.66857,0.99746 5.66858,-7.14834 5.66857,-1.1171 5.66857,-0.52527 5.66857,-11.76763"
         style="fill:none;stroke:#ff7f0e;stroke-width:1.5;stroke-linecap:square;stroke-linejoin:round;stroke-miterlimit:10;stroke-dasharray:none;stroke-opacity:1"
         id="path294" /></g><g
       id="g298"
       clip-path="url(#clipPath302)"
       transform="matrix(0.57532703,0,0,0.57532703,8.9257635,141.99226)"><path
         d="m 57.6,260.0632 5.668571,5.88265 5.668572,-6.93302 5.668571,-6.90499 5.668572,-6.61721 5.668571,-7.23664 5.668572,-4.6438 5.668571,-2.28453 5.66857,-4.18553 5.66857,-2.12711 5.66857,-4.07917 5.66858,-4.45079 5.66857,-2.17244 5.66857,-1.20953 5.66857,0.74128 5.66857,-0.29748 5.66857,0.2223 5.66857,0.20331 5.66858,-2.91226 5.66857,-1.03213 5.66857,-2.05787 5.66857,-3.64215 5.66857,-3.30459 5.66857,-3.59162 5.66857,1.10201 5.66858,-3.51594 5.66857,-1.87773 5.66857,0.45833 5.66857,-1.31251 5.66857,-2.46707 5.66857,-3.88805 5.66857,0.48532 5.66858,-5.56995 5.66857,-0.29574 5.66857,-1.50809 5.66857,-1.58766 5.66857,-2.85265 5.66857,-3.00789 5.66857,-5.54623 5.66858,-4.79205 5.66857,1.99483 5.66857,-2.96274 5.66857,-4.13419 5.66857,0.33939 5.66857,-3.02324 5.66857,-3.67173 5.66858,4.54445 5.66857,-3.06962 5.66857,-0.79448 5.66857,-1.13086 5.66857,2.61857 5.66857,-4.72798 5.66857,-2.33777 5.66858,2.74487 5.66857,1.79413 5.66857,-5.754 5.66857,3.60356 5.66857,-0.53059 5.66857,-6.59668 5.66857,-1.70376 5.66858,-9.10426 5.66857,0.46198 5.66857,0.0625 5.66857,-2.91234"
         style="fill:none;stroke:#2ca02c;stroke-width:1.5;stroke-linecap:square;stroke-linejoin:round;stroke-miterlimit:10;stroke-dasharray:none;stroke-opacity:1"
         id="path304" /></g><g
       id="g308"
       clip-path="url(#clipPath312)"
       style="stroke:#8c564b;stroke-opacity:1"
       transform="matrix(0.57532703,0,0,0.57532703,8.9257635,141.99226)"><path
         d="m 57.6,261.70088 5.668571,5.70011 5.668572,-6.84588 5.668571,-7.2091 5.668572,-7.43783 5.668571,-7.64531 5.668572,-4.82742 5.668571,-2.62207 5.66857,-4.67066 5.66857,-2.15608 5.66857,-4.17225 5.66858,-4.85012 5.66857,-2.37622 5.66857,-1.47938 5.66857,0.47791 5.66857,-0.26907 5.66857,0.25426 5.66857,0.20904 5.66858,-3.14206 5.66857,-1.52082 5.66857,-1.56297 5.66857,-4.07004 5.66857,-3.47398 5.66857,-3.51772 5.66857,0.76758 5.66858,-3.19753 5.66857,-1.15696 5.66857,0.53599 5.66857,-1.10945 5.66857,-2.84964 5.66857,-4.00262 5.66857,1.28499 5.66858,-5.04787 5.66857,0.4985 5.66857,-0.48459 5.66857,-1.92579 5.66857,-2.35031 5.66857,-2.34563 5.66857,-5.63316 5.66858,-4.02366 5.66857,1.86499 5.66857,-3.2294 5.66857,-3.69285 5.66857,0.25875 5.66857,-2.84148 5.66857,-3.92585 5.66858,2.79643 5.66857,-2.72131 5.66857,0.25501 5.66857,-2.76407 5.66857,1.63395 5.66857,-4.93141 5.66857,-1.52913 5.66858,0.62059 5.66857,2.63466 5.66857,-6.46094 5.66857,4.29842 5.66857,-1.13941 5.66857,-8.42392 5.66857,-2.64735 5.66858,-9.36784 5.66857,0.10117 5.66857,-0.10367 5.66857,2.02299"
         style="fill:none;stroke:#8c564b;stroke-width:1.5;stroke-linecap:square;stroke-linejoin:round;stroke-miterlimit:10;stroke-dasharray:none;stroke-opacity:1"
         id="path314" /></g><g
       id="g318"
       clip-path="url(#clipPath322)"
       transform="matrix(0.57532703,0,0,0.57532703,8.9257635,141.99226)"><path
         d="m 57.6,261.35602 5.668571,4.56436 5.668572,-6.14959 5.668571,-7.20915 5.668572,-6.85736 5.668571,-7.67788 5.668572,-4.96993 5.668571,-2.50016 5.66857,-4.23819 5.66857,-1.86536 5.66857,-4.01349 5.66858,-4.90222 5.66857,-2.42283 5.66857,-1.58298 5.66857,0.47804 5.66857,-0.12269 5.66857,0.4842 5.66857,0.6875 5.66858,-3.43999 5.66857,-1.56538 5.66857,-1.7075 5.66857,-4.06452 5.66857,-3.07999 5.66857,-3.64364 5.66857,0.65619 5.66858,-3.70555 5.66857,-1.52158 5.66857,0.22749 5.66857,-0.85824 5.66857,-2.72502 5.66857,-3.93051 5.66857,0.8986 5.66858,-4.21276 5.66857,-0.0867 5.66857,-0.14606 5.66857,-2.09115 5.66857,-2.02657 5.66857,-3.05992 5.66857,-5.3973 5.66858,-4.04916 5.66857,2.9121 5.66857,-3.85065 5.66857,-4.15318 5.66857,-0.84106 5.66857,-3.3849 5.66857,-4.24249 5.66858,1.34246 5.66857,-3.2486 5.66857,0.0406 5.66857,-2.14266 5.66857,0.74903 5.66857,-4.30307 5.66857,-1.83681 5.66858,-0.072 5.66857,0.2802 5.66857,-5.55048 5.66857,4.69689 5.66857,-0.36457 5.66857,-7.20891 5.66857,-3.27436 5.66858,-8.52684 5.66857,-1.92508 5.66857,-2.73713 5.66857,11.84856"
         style="fill:none;stroke:#9467bd;stroke-width:1.5;stroke-linecap:square;stroke-linejoin:round;stroke-miterlimit:10;stroke-dasharray:none;stroke-opacity:1"
         id="path324" /></g><g
       id="g328"
       clip-path="url(#clipPath332)"
       style="stroke:#d62728;stroke-opacity:1"
       transform="matrix(0.57532703,0,0,0.57532703,8.9257635,141.99226)"><path
         d="m 57.6,249.59067 5.668571,-5.03852 5.668572,-4.18733 5.668571,-2.46767 5.668572,0.37439 5.668571,1.72112 5.668572,-0.004 5.668571,1.51314 5.66857,1.39577 5.66857,-0.89786 5.66857,1.96613 5.66858,1.33749 5.66857,-0.53189 5.66857,-2.68686 5.66857,-1.81133 5.66857,-4.1856 5.66857,-2.53148 5.66857,-1.62903 5.66858,-2.88153 5.66857,-2.91804 5.66857,-4.21862 5.66857,0.17346 5.66857,-1.68093 5.66857,-2.96491 5.66857,-2.59023 5.66858,-1.97438 5.66857,-1.69155 5.66857,-6.55182 5.66857,3.0325 5.66857,-1.88589 5.66857,1.14505 5.66857,-1.59183 5.66858,0.42152 5.66857,-0.92409 5.66857,-3.43764 5.66857,0.65537 5.66857,0.34486 5.66857,-2.51059 5.66857,5.26589 5.66858,0.2239 5.66857,-1.05603 5.66857,-1.41809 5.66857,-0.18235 5.66857,1.59826 5.66857,3.46085 5.66857,-1.19037 5.66858,-2.84335 5.66857,-0.1945 5.66857,6.00871 5.66857,-1.8039 5.66857,-5.30133 5.66857,6.73212 5.66857,-2.78949 5.66858,-5.02578 5.66857,-2.16497 5.66857,5.86576 5.66857,-1.69485 5.66857,-2.8213 5.66857,0.0801 5.66857,2.4624 5.66858,0.61762 5.66857,0.28287 5.66857,-2.82845 5.66857,3.48401"
         style="fill:none;stroke:#d62728;stroke-width:1.5;stroke-linecap:square;stroke-linejoin:round;stroke-miterlimit:10;stroke-dasharray:none;stroke-opacity:1"
         id="path334" /></g><path
       d="M 42.0646,163.86389 V 316.96531"
       style="fill:none;stroke:#000000;stroke-width:0.460262;stroke-linecap:square;stroke-linejoin:miter;stroke-miterlimit:10;stroke-dasharray:none;stroke-opacity:1"
       id="path338" /><path
       d="M 247.52539,163.86389 V 316.96531"
       style="fill:none;stroke:#000000;stroke-width:0.460262;stroke-linecap:square;stroke-linejoin:miter;stroke-miterlimit:10;stroke-dasharray:none;stroke-opacity:1"
       id="path340" /><path
       d="M 42.0646,163.86389 H 247.52539"
       style="fill:none;stroke:#000000;stroke-width:0.460262;stroke-linecap:square;stroke-linejoin:miter;stroke-miterlimit:10;stroke-dasharray:none;stroke-opacity:1"
       id="path342" /><path
       d="M 42.0646,316.96531 H 247.52539"
       style="fill:none;stroke:#000000;stroke-width:0.460262;stroke-linecap:square;stroke-linejoin:miter;stroke-miterlimit:10;stroke-dasharray:none;stroke-opacity:1"
       id="path344" /><path
       d="m 52.989207,215.24709 h 11.50654"
       style="fill:none;stroke:#1f77b4;stroke-width:0.862991;stroke-linecap:square;stroke-linejoin:round;stroke-miterlimit:10;stroke-dasharray:none;stroke-opacity:1"
       id="path354" /><path
       d="m 52.989207,206.80596 h 11.50654"
       style="fill:none;stroke:#ff7f0e;stroke-width:0.862991;stroke-linecap:square;stroke-linejoin:round;stroke-miterlimit:10;stroke-dasharray:none;stroke-opacity:1"
       id="path360" /><path
       d="m 52.989207,198.36483 h 11.50654"
       style="fill:none;stroke:#2ca02c;stroke-width:0.862991;stroke-linecap:square;stroke-linejoin:round;stroke-miterlimit:10;stroke-dasharray:none;stroke-opacity:1"
       id="path366" /><path
       d="m 52.989207,189.9237 h 11.50654"
       style="fill:none;stroke:#8c564b;stroke-width:0.862991;stroke-linecap:square;stroke-linejoin:round;stroke-miterlimit:10;stroke-dasharray:none;stroke-opacity:1"
       id="path372" /><path
       d="m 52.989207,181.48258 h 11.50654"
       style="fill:none;stroke:#9467bd;stroke-width:0.862991;stroke-linecap:square;stroke-linejoin:round;stroke-miterlimit:10;stroke-dasharray:none;stroke-opacity:1"
       id="path378" /></g><g
     inkscape:groupmode="layer"
     id="layer1"
     inkscape:label="text"
     style="display:inline"><text
       style="font-variant:normal;font-weight:normal;font-size:7.67103px;font-family:'DejaVu Sans';-inkscape-font-specification:DejaVuSans;writing-mode:lr-tb;fill:#000000;fill-opacity:1;fill-rule:nonzero;stroke:none;stroke-width:0.767103"
       id="text388"
       x="64.107193"
       y="215.55623"><tspan
         x="64.107193 67.114227 70.267044 74.969376 79.832794 83.829399 86.529594 91.247284 94.400078 96.839447 102.7845 109.40459 114.28339 119.16214 124.04092 128.91969 133.79848 136.23787 138.82298 141.26237 146.50935 152.12454 157.47893 160.06407 162.50345 167.38223 169.82162 174.70039 179.57918"
         y="215.55623"
         sodipodi:role="line"
         id="tspan386"
         style="stroke-width:0.767103">transfer GM12878 / AUC: 0.671</tspan></text><text
       style="font-variant:normal;font-weight:normal;font-size:7.67103px;font-family:'DejaVu Sans';-inkscape-font-specification:DejaVuSans;writing-mode:lr-tb;fill:#000000;fill-opacity:1;fill-rule:nonzero;stroke:none;stroke-width:0.767103"
       id="text32"
       x="25.961311"
       y="236.30302"><tspan
         x="25.961311 30.840084 33.279472"
         y="236.30302"
         sodipodi:role="line"
         id="tspan30"
         style="stroke-width:0.767103">0.0</tspan></text><text
       transform="matrix(1.3333333,0,0,1.3333333,-28.023958,443.59358)"
       style="font-variant:normal;font-weight:normal;font-size:5.75327px;font-family:'DejaVu Sans';-inkscape-font-specification:DejaVuSans;writing-mode:lr-tb;fill:#000000;fill-opacity:1;fill-rule:nonzero;stroke:none;stroke-width:0.575327"
       id="text50"
       x="63.579212"
       y="-155.46793"><tspan
         x="63.579212 67.238297 69.067833"
         y="-155.46793"
         sodipodi:role="line"
         id="tspan48"
         style="stroke-width:0.575327">0.2</tspan></text><text
       transform="matrix(1.3333333,0,0,1.3333333,-28.023958,443.59358)"
       style="font-variant:normal;font-weight:normal;font-size:5.75327px;font-family:'DejaVu Sans';-inkscape-font-specification:DejaVuSans;writing-mode:lr-tb;fill:#000000;fill-opacity:1;fill-rule:nonzero;stroke:none;stroke-width:0.575327"
       id="text68"
       x="89.669472"
       y="-155.46793"><tspan
         x="89.669472 93.328552 95.158089"
         y="-155.46793"
         sodipodi:role="line"
         id="tspan66"
         style="stroke-width:0.575327">0.4</tspan></text><text
       transform="matrix(1.3333333,0,0,1.3333333,-28.023958,443.59358)"
       style="font-variant:normal;font-weight:normal;font-size:5.75327px;font-family:'DejaVu Sans';-inkscape-font-specification:DejaVuSans;writing-mode:lr-tb;fill:#000000;fill-opacity:1;fill-rule:nonzero;stroke:none;stroke-width:0.575327"
       id="text86"
       x="115.75974"
       y="-155.46793"><tspan
         x="115.75974 119.41882 121.24835"
         y="-155.46793"
         sodipodi:role="line"
         id="tspan84"
         style="stroke-width:0.575327">0.6</tspan></text><text
       transform="matrix(1.3333333,0,0,1.3333333,-28.023958,443.59358)"
       style="font-variant:normal;font-weight:normal;font-size:5.75327px;font-family:'DejaVu Sans';-inkscape-font-specification:DejaVuSans;writing-mode:lr-tb;fill:#000000;fill-opacity:1;fill-rule:nonzero;stroke:none;stroke-width:0.575327"
       id="text104"
       x="141.84998"
       y="-155.46793"><tspan
         x="141.84998 145.50906 147.33861"
         y="-155.46793"
         sodipodi:role="line"
         id="tspan102"
         style="stroke-width:0.575327">0.8</tspan></text><text
       transform="matrix(1.3333333,0,0,1.3333333,-28.023958,443.59358)"
       style="font-variant:normal;font-weight:normal;font-size:5.75327px;font-family:'DejaVu Sans';-inkscape-font-specification:DejaVuSans;writing-mode:lr-tb;fill:#000000;fill-opacity:1;fill-rule:nonzero;stroke:none;stroke-width:0.575327"
       id="text122"
       x="167.94025"
       y="-155.46793"><tspan
         x="167.94025 171.59932 173.42886"
         y="-155.46793"
         sodipodi:role="line"
         id="tspan120"
         style="stroke-width:0.575327">1.0</tspan></text><text
       transform="matrix(1.3333333,0,0,1.3333333,-28.023958,443.59358)"
       style="font-variant:normal;font-weight:normal;font-size:5.75327px;font-family:'DejaVu Sans';-inkscape-font-specification:DejaVuSans;writing-mode:lr-tb;fill:#000000;fill-opacity:1;fill-rule:nonzero;stroke:none;stroke-width:0.575327"
       id="text140"
       x="194.0305"
       y="-155.46793"><tspan
         x="194.0305 197.68958 199.51912"
         y="-155.46793"
         sodipodi:role="line"
         id="tspan138"
         style="stroke-width:0.575327">1.2</tspan></text><text
       transform="matrix(1.3333333,0,0,1.3333333,-28.023958,443.59358)"
       style="font-variant:normal;font-weight:normal;font-size:5.75327px;font-family:'DejaVu Sans';-inkscape-font-specification:DejaVuSans;writing-mode:lr-tb;fill:#000000;fill-opacity:1;fill-rule:nonzero;stroke:none;stroke-width:0.575327"
       id="text158"
       x="220.12077"
       y="-155.46793"><tspan
         x="220.12077 223.77985 225.60938"
         y="-155.46793"
         sodipodi:role="line"
         id="tspan156"
         style="stroke-width:0.575327">1.4</tspan></text><text
       transform="matrix(1.3333333,0,0,1.3333333,-28.023958,443.59358)"
       style="font-variant:normal;font-weight:normal;font-size:5.75327px;font-family:'DejaVu Sans';-inkscape-font-specification:DejaVuSans;writing-mode:lr-tb;fill:#000000;fill-opacity:1;fill-rule:nonzero;stroke:none;stroke-width:0.575327"
       id="text162"
       x="109.97423"
       y="-147.60213"><tspan
         x="109.97423 114.43301 117.97127 121.61884 125.13985 130.74353 132.34294 135.50723 137.33678 140.9901 142.58951 145.58696 147.84225 151.369 155.01657 158.18088 161.71915 163.54868 165.48753 167.31706 172.28214 175.93547"
         y="-147.60213"
         sodipodi:role="line"
         id="tspan160"
         style="stroke-width:0.575327">Genomic distance / Mbp</tspan></text><text
       transform="matrix(1.3333333,0,0,1.3333333,-28.023958,443.59358)"
       style="font-variant:normal;font-weight:normal;font-size:5.75327px;font-family:'DejaVu Sans';-inkscape-font-specification:DejaVuSans;writing-mode:lr-tb;fill:#000000;fill-opacity:1;fill-rule:nonzero;stroke:none;stroke-width:0.575327"
       id="text180"
       x="28.886015"
       y="-161.67966"><tspan
         x="28.886015 32.545094 34.374634"
         y="-161.67966"
         sodipodi:role="line"
         id="tspan178"
         style="stroke-width:0.575327">0.0</tspan></text><text
       transform="matrix(1.3333333,0,0,1.3333333,-28.023958,443.59358)"
       style="font-variant:normal;font-weight:normal;font-size:5.75327px;font-family:'DejaVu Sans';-inkscape-font-specification:DejaVuSans;writing-mode:lr-tb;fill:#000000;fill-opacity:1;fill-rule:nonzero;stroke:none;stroke-width:0.575327"
       id="text198"
       x="28.886015"
       y="-192.29994"><tspan
         x="28.886015 32.545094 34.374634"
         y="-192.29994"
         sodipodi:role="line"
         id="tspan196"
         style="stroke-width:0.575327">0.2</tspan></text><text
       transform="matrix(1.3333333,0,0,1.3333333,-28.023958,443.59358)"
       style="font-variant:normal;font-weight:normal;font-size:5.75327px;font-family:'DejaVu Sans';-inkscape-font-specification:DejaVuSans;writing-mode:lr-tb;fill:#000000;fill-opacity:1;fill-rule:nonzero;stroke:none;stroke-width:0.575327"
       id="text216"
       x="28.886015"
       y="-222.92023"><tspan
         x="28.886015 32.545094 34.374634"
         y="-222.92023"
         sodipodi:role="line"
         id="tspan214"
         style="stroke-width:0.575327">0.4</tspan></text><text
       transform="matrix(1.3333333,0,0,1.3333333,-28.023958,443.59358)"
       style="font-variant:normal;font-weight:normal;font-size:5.75327px;font-family:'DejaVu Sans';-inkscape-font-specification:DejaVuSans;writing-mode:lr-tb;fill:#000000;fill-opacity:1;fill-rule:nonzero;stroke:none;stroke-width:0.575327"
       id="text234"
       x="28.886015"
       y="-253.54051"><tspan
         x="28.886015 32.545094 34.374634"
         y="-253.54051"
         sodipodi:role="line"
         id="tspan232"
         style="stroke-width:0.575327">0.6</tspan></text><text
       transform="matrix(1.3333333,0,0,1.3333333,-28.023958,443.59358)"
       style="font-variant:normal;font-weight:normal;font-size:5.75327px;font-family:'DejaVu Sans';-inkscape-font-specification:DejaVuSans;writing-mode:lr-tb;fill:#000000;fill-opacity:1;fill-rule:nonzero;stroke:none;stroke-width:0.575327"
       id="text252"
       x="28.886015"
       y="-284.1608"><tspan
         x="28.886015 32.545094 34.374634"
         y="-284.1608"
         sodipodi:role="line"
         id="tspan250"
         style="stroke-width:0.575327">0.8</tspan></text><text
       transform="matrix(1.3333333,0,0,1.3333333,-28.023958,443.59358)"
       style="font-variant:normal;font-weight:normal;font-size:5.75327px;font-family:'DejaVu Sans';-inkscape-font-specification:DejaVuSans;writing-mode:lr-tb;fill:#000000;fill-opacity:1;fill-rule:nonzero;stroke:none;stroke-width:0.575327"
       id="text270"
       x="28.886015"
       y="-314.78107"><tspan
         x="28.886015 32.545094 34.374634"
         y="-314.78107"
         sodipodi:role="line"
         id="tspan268"
         style="stroke-width:0.575327">1.0</tspan></text><text
       transform="matrix(0,-1.3333333,1.3333333,0,-28.023958,443.59358)"
       style="font-variant:normal;font-weight:normal;font-size:5.75327px;font-family:'DejaVu Sans';-inkscape-font-specification:DejaVuSans;writing-mode:lr-tb;fill:#000000;fill-opacity:1;fill-rule:nonzero;stroke:none;stroke-width:0.575327"
       id="text274"
       x="212.61932"
       y="25.389107"><tspan
         x="212.61932 216.08855 219.6268 223.15356 225.51816 228.51561 232.03662 235.68419 237.51372 240.67802 244.19904 246.56363 248.92822 252.46648 254.06589 257.59265 259.84793 261.44733 264.96832"
         y="25.389107"
         sodipodi:role="line"
         id="tspan272"
         style="stroke-width:0.575327">Pearson correlation</tspan></text><text
       transform="matrix(1.3333333,0,0,1.3333333,-28.023958,443.59358)"
       style="font-variant:normal;font-weight:normal;font-size:6.90392px;font-family:'DejaVu Sans';-inkscape-font-specification:DejaVuSans;writing-mode:lr-tb;fill:#000000;fill-opacity:1;fill-rule:nonzero;stroke:none;stroke-width:0.575327"
       id="text348"
       x="73.746597"
       y="-328.15564"><tspan
         x="73.746597 77.909668 82.155579 86.387688 89.225197 92.822144 97.047348 101.42444 103.61988 107.41704 111.64224 114.47976 117.31727 121.56318 123.48248 127.71458 130.42091 132.34021 136.56541 140.94249 143.13794 147.22507 150.82202 153.01746 155.21292 159.59691 163.84282 168.21989 172.4451 179.16953 181.08881 184.88597 187.08142 191.46542 193.3847 196.98164 199.68799 203.92009 208.29718 212.09433"
         y="-328.15564"
         sodipodi:role="line"
         id="tspan346"
         style="stroke-width:0.575327">Pearson correlation vs. genomic distance</tspan></text><text
       transform="matrix(1.3333333,0,0,1.3333333,-28.023958,443.59358)"
       style="font-variant:normal;font-weight:normal;font-size:6.90392px;font-family:'DejaVu Sans';-inkscape-font-specification:DejaVuSans;writing-mode:lr-tb;fill:#000000;fill-opacity:1;fill-rule:nonzero;stroke:none;stroke-width:0.575327"
       id="text352"
       x="47.99374"
       y="-320.41748"><tspan
         x="47.99374 53.344284 59.302368 63.693264 68.08416 72.47506 76.865952 81.256851 83.452293 85.647743 90.038643 92.234093 96.624985 98.820435 103.21133 105.40678 109.79768 111.99312 116.38402 118.57946 122.97036 127.36125 129.5567 133.9476 138.33849 140.53395 144.92484 149.31573 151.51118 155.90207 160.29297 162.48843 166.87932 171.27022 173.46565 177.85657 182.24745 184.4429 188.8338 193.2247 195.42014 199.81105 204.20193 206.39738 210.62259 214.99968 217.19513 221.72409 226.11501 230.50589 234.89679 237.09222 239.28769"
         y="-320.41748"
         sodipodi:role="line"
         id="tspan350"
         style="stroke-width:0.575327">GM12878, 1,2,4,7,9,11,13,14,16,17,18,20,22 on K562, 3</tspan></text><text
       style="font-variant:normal;font-weight:normal;font-size:7.67103px;font-family:'DejaVu Sans';-inkscape-font-specification:DejaVuSans;writing-mode:lr-tb;fill:#000000;fill-opacity:1;fill-rule:nonzero;stroke:none;stroke-width:0.767103"
       id="text358"
       x="64.107193"
       y="159.28201"><tspan
         x="64.107193 68.985977 73.864738 76.304131 81.021805 85.892914 88.332291 90.917435 93.356827 98.603821 104.21902 109.57336 112.15849 114.59792 119.47665 121.91605 126.79483 131.6736"
         y="159.28201"
         sodipodi:role="line"
         id="tspan356"
         style="stroke-width:0.767103">20 ep / AUC: 0.552</tspan></text><text
       style="font-variant:normal;font-weight:normal;font-size:7.67103px;font-family:'DejaVu Sans';-inkscape-font-specification:DejaVuSans;writing-mode:lr-tb;fill:#000000;fill-opacity:1;fill-rule:nonzero;stroke:none;stroke-width:0.767103"
       id="text364"
       x="64.107193"
       y="170.53685"><tspan
         x="64.107193 68.985977 73.864738 76.304131 81.021805 85.892914 88.332291 90.917435 93.356827 98.603821 104.21902 109.57336 112.15849 114.59792 119.47665 121.91605 126.79483 131.6736"
         y="170.53685"
         sodipodi:role="line"
         id="tspan362"
         style="stroke-width:0.767103">40 ep / AUC: 0.555</tspan></text><text
       style="font-variant:normal;font-weight:normal;font-size:7.67103px;font-family:'DejaVu Sans';-inkscape-font-specification:DejaVuSans;writing-mode:lr-tb;fill:#000000;fill-opacity:1;fill-rule:nonzero;stroke:none;stroke-width:0.767103"
       id="text370"
       x="64.107193"
       y="181.7917"><tspan
         x="64.107193 68.985977 73.864738 76.304131 81.021805 85.892914 88.332291 90.917435 93.356827 98.603821 104.21902 109.57336 112.15849 114.59792 119.47665 121.91605 126.79483 131.6736"
         y="181.7917"
         sodipodi:role="line"
         id="tspan368"
         style="stroke-width:0.767103">60 ep / AUC: 0.551</tspan></text><text
       style="font-variant:normal;font-weight:normal;font-size:7.67103px;font-family:'DejaVu Sans';-inkscape-font-specification:DejaVuSans;writing-mode:lr-tb;fill:#000000;fill-opacity:1;fill-rule:nonzero;stroke:none;stroke-width:0.767103"
       id="text376"
       x="64.107193"
       y="193.04654"><tspan
         x="64.107193 68.985977 73.864738 76.304131 81.021805 85.892914 88.332291 90.917435 93.356827 98.603821 104.21902 109.57336 112.15849 114.59792 119.47665 121.91605 126.79483 131.6736"
         y="193.04654"
         sodipodi:role="line"
         id="tspan374"
         style="stroke-width:0.767103">80 ep / AUC: 0.548</tspan></text><text
       style="font-variant:normal;font-weight:normal;font-size:7.67103px;font-family:'DejaVu Sans';-inkscape-font-specification:DejaVuSans;writing-mode:lr-tb;fill:#000000;fill-opacity:1;fill-rule:nonzero;stroke:none;stroke-width:0.767103"
       id="text382"
       x="64.107193"
       y="204.30138"><tspan
         x="64.107193 68.985977 73.864738 78.7435 81.182892 85.900589 90.771683 93.211075 95.796219 98.235588 103.48257 109.09776 114.45216 117.03728 119.47665 124.35542 126.79483 131.6736 136.55238"
         y="204.30138"
         sodipodi:role="line"
         id="tspan380"
         style="stroke-width:0.767103">100 ep / AUC: 0.543</tspan></text></g></svg>
