<?xml version="1.0" encoding="UTF-8" standalone="no"?>
<svg
   xmlns:dc="http://purl.org/dc/elements/1.1/"
   xmlns:cc="http://creativecommons.org/ns#"
   xmlns:rdf="http://www.w3.org/1999/02/22-rdf-syntax-ns#"
   xmlns:svg="http://www.w3.org/2000/svg"
   xmlns="http://www.w3.org/2000/svg"
   xmlns:sodipodi="http://sodipodi.sourceforge.net/DTD/sodipodi-0.dtd"
   xmlns:inkscape="http://www.inkscape.org/namespaces/inkscape"
   version="1.1"
   id="svg2"
   xml:space="preserve"
   width="80mm"
   height="65.300003mm"
   viewBox="0 0 302.3622 246.80316"
   sodipodi:docname="pearson_chr10.svg"
   inkscape:version="1.0.2 (1.0.2+r75+1)"><metadata
     id="metadata8"><rdf:RDF><cc:Work
         rdf:about=""><dc:format>image/svg+xml</dc:format><dc:type
           rdf:resource="http://purl.org/dc/dcmitype/StillImage" /><dc:title></dc:title></cc:Work></rdf:RDF></metadata><defs
     id="defs6"><clipPath
       clipPathUnits="userSpaceOnUse"
       id="clipPath22"><path
         d="M 57.6,38.016 H 414.72 V 304.128 H 57.6 Z"
         id="path20" /></clipPath><clipPath
       clipPathUnits="userSpaceOnUse"
       id="clipPath40"><path
         d="M 57.6,38.016 H 414.72 V 304.128 H 57.6 Z"
         id="path38" /></clipPath><clipPath
       clipPathUnits="userSpaceOnUse"
       id="clipPath58"><path
         d="M 57.6,38.016 H 414.72 V 304.128 H 57.6 Z"
         id="path56" /></clipPath><clipPath
       clipPathUnits="userSpaceOnUse"
       id="clipPath76"><path
         d="M 57.6,38.016 H 414.72 V 304.128 H 57.6 Z"
         id="path74" /></clipPath><clipPath
       clipPathUnits="userSpaceOnUse"
       id="clipPath94"><path
         d="M 57.6,38.016 H 414.72 V 304.128 H 57.6 Z"
         id="path92" /></clipPath><clipPath
       clipPathUnits="userSpaceOnUse"
       id="clipPath112"><path
         d="M 57.6,38.016 H 414.72 V 304.128 H 57.6 Z"
         id="path110" /></clipPath><clipPath
       clipPathUnits="userSpaceOnUse"
       id="clipPath130"><path
         d="M 57.6,38.016 H 414.72 V 304.128 H 57.6 Z"
         id="path128" /></clipPath><clipPath
       clipPathUnits="userSpaceOnUse"
       id="clipPath148"><path
         d="M 57.6,38.016 H 414.72 V 304.128 H 57.6 Z"
         id="path146" /></clipPath><clipPath
       clipPathUnits="userSpaceOnUse"
       id="clipPath170"><path
         d="M 57.6,38.016 H 414.72 V 304.128 H 57.6 Z"
         id="path168" /></clipPath><clipPath
       clipPathUnits="userSpaceOnUse"
       id="clipPath188"><path
         d="M 57.6,38.016 H 414.72 V 304.128 H 57.6 Z"
         id="path186" /></clipPath><clipPath
       clipPathUnits="userSpaceOnUse"
       id="clipPath206"><path
         d="M 57.6,38.016 H 414.72 V 304.128 H 57.6 Z"
         id="path204" /></clipPath><clipPath
       clipPathUnits="userSpaceOnUse"
       id="clipPath224"><path
         d="M 57.6,38.016 H 414.72 V 304.128 H 57.6 Z"
         id="path222" /></clipPath><clipPath
       clipPathUnits="userSpaceOnUse"
       id="clipPath242"><path
         d="M 57.6,38.016 H 414.72 V 304.128 H 57.6 Z"
         id="path240" /></clipPath><clipPath
       clipPathUnits="userSpaceOnUse"
       id="clipPath260"><path
         d="M 57.6,38.016 H 414.72 V 304.128 H 57.6 Z"
         id="path258" /></clipPath><clipPath
       clipPathUnits="userSpaceOnUse"
       id="clipPath282"><path
         d="M 57.6,38.016 H 414.72 V 304.128 H 57.6 Z"
         id="path280" /></clipPath><clipPath
       clipPathUnits="userSpaceOnUse"
       id="clipPath292"><path
         d="M 57.6,38.016 H 414.72 V 304.128 H 57.6 Z"
         id="path290" /></clipPath><clipPath
       clipPathUnits="userSpaceOnUse"
       id="clipPath302"><path
         d="M 57.6,38.016 H 414.72 V 304.128 H 57.6 Z"
         id="path300" /></clipPath><clipPath
       clipPathUnits="userSpaceOnUse"
       id="clipPath312"><path
         d="M 57.6,38.016 H 414.72 V 304.128 H 57.6 Z"
         id="path310" /></clipPath><clipPath
       clipPathUnits="userSpaceOnUse"
       id="clipPath322"><path
         d="M 57.6,38.016 H 414.72 V 304.128 H 57.6 Z"
         id="path320" /></clipPath><clipPath
       clipPathUnits="userSpaceOnUse"
       id="clipPath332"><path
         d="M 57.6,38.016 H 414.72 V 304.128 H 57.6 Z"
         id="path330" /></clipPath></defs><sodipodi:namedview
     pagecolor="#ffffff"
     bordercolor="#666666"
     borderopacity="1"
     objecttolerance="10"
     gridtolerance="10"
     guidetolerance="10"
     inkscape:pageopacity="0"
     inkscape:pageshadow="2"
     inkscape:window-width="1920"
     inkscape:window-height="1020"
     id="namedview4"
     showgrid="false"
     fit-margin-top="0"
     fit-margin-left="0"
     fit-margin-right="0"
     fit-margin-bottom="0"
     units="mm"
     inkscape:zoom="2.6301672"
     inkscape:cx="151.1681"
     inkscape:cy="95.401394"
     inkscape:window-x="0"
     inkscape:window-y="0"
     inkscape:window-maximized="1"
     inkscape:current-layer="layer1" /><g
     id="g10"
     inkscape:groupmode="layer"
     inkscape:label="pearson_chr10"
     transform="matrix(1.3333333,0,0,-1.3333333,-28.023958,443.59358)"><g
       id="g16"
       transform="matrix(0.57525122,0,0,0.57525122,8.9273567,141.99227)"><g
         id="g18"
         clip-path="url(#clipPath22)"><path
           d="M 57.6,38.016 V 304.128"
           style="fill:none;stroke:#b0b0b0;stroke-width:0.8;stroke-linecap:square;stroke-linejoin:round;stroke-miterlimit:10;stroke-dasharray:none;stroke-opacity:1"
           id="path24" /></g></g><path
       d="m 42.061827,163.86103 v -2.01338"
       style="fill:#000000;fill-opacity:1;fill-rule:nonzero;stroke:#000000;stroke-width:0.460201;stroke-linecap:butt;stroke-linejoin:round;stroke-miterlimit:10;stroke-dasharray:none;stroke-opacity:1"
       id="path28" /><g
       id="g34"
       transform="matrix(0.57525122,0,0,0.57525122,8.9273567,141.99227)"><g
         id="g36"
         clip-path="url(#clipPath40)"><path
           d="M 102.94857,38.016 V 304.128"
           style="fill:none;stroke:#b0b0b0;stroke-width:0.8;stroke-linecap:square;stroke-linejoin:round;stroke-miterlimit:10;stroke-dasharray:none;stroke-opacity:1"
           id="path42" /></g></g><path
       d="m 68.148648,163.86103 v -2.01338"
       style="fill:#000000;fill-opacity:1;fill-rule:nonzero;stroke:#000000;stroke-width:0.460201;stroke-linecap:butt;stroke-linejoin:round;stroke-miterlimit:10;stroke-dasharray:none;stroke-opacity:1"
       id="path46" /><g
       id="g52"
       transform="matrix(0.57525122,0,0,0.57525122,8.9273567,141.99227)"><g
         id="g54"
         clip-path="url(#clipPath58)"><path
           d="M 148.29714,38.016 V 304.128"
           style="fill:none;stroke:#b0b0b0;stroke-width:0.8;stroke-linecap:square;stroke-linejoin:round;stroke-miterlimit:10;stroke-dasharray:none;stroke-opacity:1"
           id="path60" /></g></g><path
       d="m 94.235468,163.86103 v -2.01338"
       style="fill:#000000;fill-opacity:1;fill-rule:nonzero;stroke:#000000;stroke-width:0.460201;stroke-linecap:butt;stroke-linejoin:round;stroke-miterlimit:10;stroke-dasharray:none;stroke-opacity:1"
       id="path64" /><g
       id="g70"
       transform="matrix(0.57525122,0,0,0.57525122,8.9273567,141.99227)"><g
         id="g72"
         clip-path="url(#clipPath76)"><path
           d="M 193.64571,38.016 V 304.128"
           style="fill:none;stroke:#b0b0b0;stroke-width:0.8;stroke-linecap:square;stroke-linejoin:round;stroke-miterlimit:10;stroke-dasharray:none;stroke-opacity:1"
           id="path78" /></g></g><path
       d="m 120.32229,163.86103 v -2.01338"
       style="fill:#000000;fill-opacity:1;fill-rule:nonzero;stroke:#000000;stroke-width:0.460201;stroke-linecap:butt;stroke-linejoin:round;stroke-miterlimit:10;stroke-dasharray:none;stroke-opacity:1"
       id="path82" /><g
       id="g88"
       transform="matrix(0.57525122,0,0,0.57525122,8.9273567,141.99227)"><g
         id="g90"
         clip-path="url(#clipPath94)"><path
           d="M 238.99429,38.016 V 304.128"
           style="fill:none;stroke:#b0b0b0;stroke-width:0.8;stroke-linecap:square;stroke-linejoin:round;stroke-miterlimit:10;stroke-dasharray:none;stroke-opacity:1"
           id="path96" /></g></g><path
       d="m 146.40911,163.86103 v -2.01338"
       style="fill:#000000;fill-opacity:1;fill-rule:nonzero;stroke:#000000;stroke-width:0.460201;stroke-linecap:butt;stroke-linejoin:round;stroke-miterlimit:10;stroke-dasharray:none;stroke-opacity:1"
       id="path100" /><g
       id="g106"
       transform="matrix(0.57525122,0,0,0.57525122,8.9273567,141.99227)"><g
         id="g108"
         clip-path="url(#clipPath112)"><path
           d="M 284.34286,38.016 V 304.128"
           style="fill:none;stroke:#b0b0b0;stroke-width:0.8;stroke-linecap:square;stroke-linejoin:round;stroke-miterlimit:10;stroke-dasharray:none;stroke-opacity:1"
           id="path114" /></g></g><path
       d="m 172.49593,163.86103 v -2.01338"
       style="fill:#000000;fill-opacity:1;fill-rule:nonzero;stroke:#000000;stroke-width:0.460201;stroke-linecap:butt;stroke-linejoin:round;stroke-miterlimit:10;stroke-dasharray:none;stroke-opacity:1"
       id="path118" /><g
       id="g124"
       transform="matrix(0.57525122,0,0,0.57525122,8.9273567,141.99227)"><g
         id="g126"
         clip-path="url(#clipPath130)"><path
           d="M 329.69143,38.016 V 304.128"
           style="fill:none;stroke:#b0b0b0;stroke-width:0.8;stroke-linecap:square;stroke-linejoin:round;stroke-miterlimit:10;stroke-dasharray:none;stroke-opacity:1"
           id="path132" /></g></g><path
       d="m 198.58276,163.86103 v -2.01338"
       style="fill:#000000;fill-opacity:1;fill-rule:nonzero;stroke:#000000;stroke-width:0.460201;stroke-linecap:butt;stroke-linejoin:round;stroke-miterlimit:10;stroke-dasharray:none;stroke-opacity:1"
       id="path136" /><g
       id="g142"
       transform="matrix(0.57525122,0,0,0.57525122,8.9273567,141.99227)"><g
         id="g144"
         clip-path="url(#clipPath148)"><path
           d="M 375.04,38.016 V 304.128"
           style="fill:none;stroke:#b0b0b0;stroke-width:0.8;stroke-linecap:square;stroke-linejoin:round;stroke-miterlimit:10;stroke-dasharray:none;stroke-opacity:1"
           id="path150" /></g></g><path
       d="m 224.66957,163.86103 v -2.01338"
       style="fill:#000000;fill-opacity:1;fill-rule:nonzero;stroke:#000000;stroke-width:0.460201;stroke-linecap:butt;stroke-linejoin:round;stroke-miterlimit:10;stroke-dasharray:none;stroke-opacity:1"
       id="path154" /><g
       id="g164"
       transform="matrix(0.57525122,0,0,0.57525122,8.9273567,141.99227)"><g
         id="g166"
         clip-path="url(#clipPath170)"><path
           d="M 57.6,38.016 H 414.72"
           style="fill:none;stroke:#b0b0b0;stroke-width:0.8;stroke-linecap:square;stroke-linejoin:round;stroke-miterlimit:10;stroke-dasharray:none;stroke-opacity:1"
           id="path172" /></g></g><path
       d="M 42.061827,163.86103 H 40.048448"
       style="fill:#000000;fill-opacity:1;fill-rule:nonzero;stroke:#000000;stroke-width:0.460201;stroke-linecap:butt;stroke-linejoin:round;stroke-miterlimit:10;stroke-dasharray:none;stroke-opacity:1"
       id="path176" /><g
       id="g182"
       transform="matrix(0.57525122,0,0,0.57525122,8.9273567,141.99227)"><g
         id="g184"
         clip-path="url(#clipPath188)"><path
           d="M 57.6,91.2384 H 414.72"
           style="fill:none;stroke:#b0b0b0;stroke-width:0.8;stroke-linecap:square;stroke-linejoin:round;stroke-miterlimit:10;stroke-dasharray:none;stroke-opacity:1"
           id="path190" /></g></g><path
       d="M 42.061827,194.47727 H 40.048448"
       style="fill:#000000;fill-opacity:1;fill-rule:nonzero;stroke:#000000;stroke-width:0.460201;stroke-linecap:butt;stroke-linejoin:round;stroke-miterlimit:10;stroke-dasharray:none;stroke-opacity:1"
       id="path194" /><g
       id="g200"
       transform="matrix(0.57525122,0,0,0.57525122,8.9273567,141.99227)"><g
         id="g202"
         clip-path="url(#clipPath206)"><path
           d="M 57.6,144.4608 H 414.72"
           style="fill:none;stroke:#b0b0b0;stroke-width:0.8;stroke-linecap:square;stroke-linejoin:round;stroke-miterlimit:10;stroke-dasharray:none;stroke-opacity:1"
           id="path208" /></g></g><path
       d="M 42.061827,225.09353 H 40.048448"
       style="fill:#000000;fill-opacity:1;fill-rule:nonzero;stroke:#000000;stroke-width:0.460201;stroke-linecap:butt;stroke-linejoin:round;stroke-miterlimit:10;stroke-dasharray:none;stroke-opacity:1"
       id="path212" /><g
       id="g218"
       transform="matrix(0.57525122,0,0,0.57525122,8.9273567,141.99227)"><g
         id="g220"
         clip-path="url(#clipPath224)"><path
           d="M 57.6,197.6832 H 414.72"
           style="fill:none;stroke:#b0b0b0;stroke-width:0.8;stroke-linecap:square;stroke-linejoin:round;stroke-miterlimit:10;stroke-dasharray:none;stroke-opacity:1"
           id="path226" /></g></g><path
       d="M 42.061827,255.70978 H 40.048448"
       style="fill:#000000;fill-opacity:1;fill-rule:nonzero;stroke:#000000;stroke-width:0.460201;stroke-linecap:butt;stroke-linejoin:round;stroke-miterlimit:10;stroke-dasharray:none;stroke-opacity:1"
       id="path230" /><g
       id="g236"
       transform="matrix(0.57525122,0,0,0.57525122,8.9273567,141.99227)"><g
         id="g238"
         clip-path="url(#clipPath242)"><path
           d="M 57.6,250.9056 H 414.72"
           style="fill:none;stroke:#b0b0b0;stroke-width:0.8;stroke-linecap:square;stroke-linejoin:round;stroke-miterlimit:10;stroke-dasharray:none;stroke-opacity:1"
           id="path244" /></g></g><path
       d="M 42.061827,286.32602 H 40.048448"
       style="fill:#000000;fill-opacity:1;fill-rule:nonzero;stroke:#000000;stroke-width:0.460201;stroke-linecap:butt;stroke-linejoin:round;stroke-miterlimit:10;stroke-dasharray:none;stroke-opacity:1"
       id="path248" /><g
       id="g254"
       transform="matrix(0.57525122,0,0,0.57525122,8.9273567,141.99227)"><g
         id="g256"
         clip-path="url(#clipPath260)"><path
           d="M 57.6,304.128 H 414.72"
           style="fill:none;stroke:#b0b0b0;stroke-width:0.8;stroke-linecap:square;stroke-linejoin:round;stroke-miterlimit:10;stroke-dasharray:none;stroke-opacity:1"
           id="path262" /></g></g><path
       d="M 42.061827,316.94228 H 40.048448"
       style="fill:#000000;fill-opacity:1;fill-rule:nonzero;stroke:#000000;stroke-width:0.460201;stroke-linecap:butt;stroke-linejoin:round;stroke-miterlimit:10;stroke-dasharray:none;stroke-opacity:1"
       id="path266" /><path
       d="m 42.061827,297.45804 3.260852,-0.42225 3.260854,-10.76926 3.260852,-0.003 3.260853,-1.34651 3.260853,-3.87059 3.260852,-1.47177 3.260853,-2.12154 3.260852,-2.62147 3.260852,-0.6101 3.260852,-2.2714 3.260857,-1.57185 3.260851,-1.63394 3.260852,-3.93618 3.260852,-1.06794 3.260852,-1.24985 3.260852,-0.71891 3.260852,0.84123 3.26086,-1.37843 3.26085,-2.68152 3.26085,-2.63145 3.26085,-1.64367 3.26085,-2.68998 3.26086,-2.84203 3.26085,1.53821 3.26085,-1.27023 3.26086,-0.84967 3.26085,1.2843 3.26085,-1.29056 3.26086,0.24829 3.26084,-0.81595 3.26086,0.009 3.26085,-0.0938 3.26086,-2.43257 3.26085,1.18164 3.26085,-0.52153 3.26086,2.75629 3.26084,-2.10161 3.26086,-0.56356 3.26085,-2.22239 3.26085,2.53558 3.26086,-0.90044 3.26085,-1.78241 3.26085,2.33079 3.26085,1.44447 3.26085,-0.2995 3.26087,-1.19189 3.26084,0.0255 3.26086,-4.38524 3.26084,0.002 3.26086,-1.94763 3.26085,2.3314 3.26085,-3.1769 3.26086,-2.19938 3.26085,-0.0523 3.26086,-2.13594 3.26084,-0.89671 3.26086,-0.67673 3.26085,0.0652 3.26085,-0.20037 3.26086,-0.31104 3.26085,-4.07281 3.26085,0.52305 3.26085,-14.26014"
       style="fill:none;stroke:#1f77b4;stroke-width:0.862877;stroke-linecap:square;stroke-linejoin:round;stroke-miterlimit:10;stroke-dasharray:none;stroke-opacity:1"
       id="path284" /><path
       d="m 42.061827,296.25441 3.260852,0.96806 3.260854,-5.41728 3.260852,-4.27513 3.260853,-2.91226 3.260853,-4.16345 3.260852,-1.9131 3.260853,-2.15531 3.260852,-2.72934 3.260852,-0.57655 3.260852,-2.75466 3.260857,-1.70814 3.260851,-1.65149 3.260852,-4.04846 3.260852,-0.81959 3.260852,-0.99397 3.260852,-0.55803 3.260852,1.01686 3.26086,-1.47563 3.26085,-2.41581 3.26085,-2.31398 3.26085,-0.94971 3.26085,-3.00954 3.26086,-2.65704 3.26085,1.62294 3.26085,-0.8418 3.26086,-1.28744 3.26085,1.04873 3.26085,-1.24721 3.26086,0.54262 3.26084,-1.26762 3.26086,0.29801 3.26085,0.0165 3.26086,-2.17909 3.26085,1.32345 3.26085,-0.3199 3.26086,2.27591 3.26084,-1.9291 3.26086,-0.30283 3.26085,-2.63959 3.26085,2.0089 3.26086,-0.5262 3.26085,-2.03441 3.26085,2.34973 3.26085,1.06434 3.26085,-0.40322 3.26087,-1.27702 3.26084,-0.0398 3.26086,-4.38095 3.26084,0.79632 3.26086,-1.9441 3.26085,2.27985 3.26085,-2.73992 3.26086,-2.28661 3.26085,-0.29351 3.26086,-1.7581 3.26084,-1.76114 3.26086,0.0472 3.26085,0.54586 3.26085,1.18374 3.26086,-1.25006 3.26085,-1.7892 3.26085,-2.24877 3.26085,-9.9799"
       style="fill:none;stroke:#ff7f0e;stroke-width:0.862877;stroke-linecap:square;stroke-linejoin:round;stroke-miterlimit:10;stroke-dasharray:none;stroke-opacity:1"
       id="path294" /><path
       d="m 42.061827,296.32492 3.260852,0.90155 3.260854,-5.28695 3.260852,-4.29815 3.260853,-3.00926 3.260853,-4.39708 3.260852,-2.16912 3.260853,-2.221 3.260852,-3.06269 3.260852,-0.70764 3.260852,-2.85974 3.260857,-2.02766 3.260851,-1.44632 3.260852,-4.1995 3.260852,-1.03573 3.260852,-0.84893 3.260852,-0.59302 3.260852,1.33321 3.26086,-1.02618 3.26085,-2.43771 3.26085,-2.21163 3.26085,-0.45947 3.26085,-3.10375 3.26086,-2.78194 3.26085,1.93604 3.26085,-1.2907 3.26086,-1.06892 3.26085,0.74654 3.26085,-1.29386 3.26086,1.00372 3.26084,-0.99198 3.26086,0.56881 3.26085,0.12095 3.26086,-2.12298 3.26085,0.79674 3.26085,0.0749 3.26086,1.81123 3.26084,-1.78385 3.26086,-0.18193 3.26085,-3.4207 3.26085,1.6027 3.26086,-0.29705 3.26085,-2.46136 3.26085,2.64749 3.26085,1.06186 3.26085,-0.37959 3.26087,-1.68297 3.26084,0.0795 3.26086,-4.32123 3.26084,0.23843 3.26086,-2.03721 3.26085,2.04292 3.26085,-2.23758 3.26086,-2.61521 3.26085,-0.78204 3.26086,-1.2213 3.26084,-2.02393 3.26086,0.29667 3.26085,-0.18149 3.26085,0.9493 3.26086,-1.33403 3.26085,-0.50324 3.26085,-2.17494 3.26085,-6.65761"
       style="fill:none;stroke:#2ca02c;stroke-width:0.862877;stroke-linecap:square;stroke-linejoin:round;stroke-miterlimit:10;stroke-dasharray:none;stroke-opacity:1"
       id="path304" /><path
       d="m 42.061827,284.68959 3.260852,-4.19466 3.260854,-1.52049 3.260852,-1.11031 3.260853,0.31409 3.260853,0.91652 3.260852,-0.47198 3.260853,2.72627 3.260852,0.88198 3.260852,-0.0789 3.260852,-0.0241 3.260857,0.0463 3.260851,-1.66838 3.260852,0.12487 3.260852,-0.22769 3.260852,1.03818 3.260852,-1.24002 3.260852,-0.72151 3.26086,0.63988 3.26085,0.38823 3.26085,-0.91673 3.26085,-1.66061 3.26085,-2.14498 3.26086,-2.13199 3.26085,-0.26058 3.26085,-1.41367 3.26086,-0.55105 3.26085,0.71296 3.26085,-0.72273 3.26086,3.99152 3.26084,1.87386 3.26086,-1.25673 3.26085,-0.54796 3.26086,3.59544 3.26085,-1.55318 3.26085,-1.3489 3.26086,-1.48713 3.26084,2.2973 3.26086,0.19226 3.26085,1.16449 3.26085,-2.77987 3.26086,0.59205 3.26085,1.37277 3.26085,-2.80554 3.26085,-0.64537 3.26085,-1.50817 3.26087,1.64954 3.26084,2.17651 3.26086,-0.25539 3.26084,2.7384 3.26086,-2.12797 3.26085,0.49031 3.26085,0.65809 3.26086,-1.25666 3.26085,-1.14879 3.26086,2.18768 3.26084,-1.20405 3.26086,-0.82201 3.26085,-0.85203 3.26085,-2.16336 3.26086,-2.45706 3.26085,-0.17061 3.26085,0.58418 3.26085,-2.0803"
       style="fill:none;stroke:#d62728;stroke-width:0.862877;stroke-linecap:square;stroke-linejoin:round;stroke-miterlimit:10;stroke-dasharray:none;stroke-opacity:1"
       id="path334" /><path
       d="M 42.061827,163.86103 V 316.94228"
       style="fill:none;stroke:#000000;stroke-width:0.460201;stroke-linecap:square;stroke-linejoin:miter;stroke-miterlimit:10;stroke-dasharray:none;stroke-opacity:1"
       id="path338" /><path
       d="M 247.49554,163.86103 V 316.94228"
       style="fill:none;stroke:#000000;stroke-width:0.460201;stroke-linecap:square;stroke-linejoin:miter;stroke-miterlimit:10;stroke-dasharray:none;stroke-opacity:1"
       id="path340" /><path
       d="M 42.061827,163.86103 H 247.49554"
       style="fill:none;stroke:#000000;stroke-width:0.460201;stroke-linecap:square;stroke-linejoin:miter;stroke-miterlimit:10;stroke-dasharray:none;stroke-opacity:1"
       id="path342" /><path
       d="M 42.061827,316.94228 H 247.49554"
       style="fill:none;stroke:#000000;stroke-width:0.460201;stroke-linecap:square;stroke-linejoin:miter;stroke-miterlimit:10;stroke-dasharray:none;stroke-opacity:1"
       id="path344" /><path
       d="m 53.201952,215.22041 h 11.50503"
       style="fill:none;stroke:#1f77b4;stroke-width:0.862877;stroke-linecap:square;stroke-linejoin:round;stroke-miterlimit:10;stroke-dasharray:none;stroke-opacity:1"
       id="path354" /><path
       d="m 53.201952,206.7804 h 11.50503"
       style="fill:none;stroke:#ff7f0e;stroke-width:0.862877;stroke-linecap:square;stroke-linejoin:round;stroke-miterlimit:10;stroke-dasharray:none;stroke-opacity:1"
       id="path360" /><path
       d="m 53.201952,198.34039 h 11.50503"
       style="fill:none;stroke:#2ca02c;stroke-width:0.862877;stroke-linecap:square;stroke-linejoin:round;stroke-miterlimit:10;stroke-dasharray:none;stroke-opacity:1"
       id="path366" /><path
       d="m 53.201952,189.90037 h 11.50503"
       style="fill:none;stroke:#8c564b;stroke-width:0.862877;stroke-linecap:square;stroke-linejoin:round;stroke-miterlimit:10;stroke-dasharray:none;stroke-opacity:1"
       id="path372" /><path
       d="m 53.201952,181.46036 h 11.50503"
       style="fill:none;stroke:#9467bd;stroke-width:0.862877;stroke-linecap:square;stroke-linejoin:round;stroke-miterlimit:10;stroke-dasharray:none;stroke-opacity:1"
       id="path378" /><path
       d="m 53.201952,173.02034 h 11.50503"
       style="fill:none;stroke:#d62728;stroke-width:0.862877;stroke-linecap:square;stroke-linejoin:round;stroke-miterlimit:10;stroke-dasharray:none;stroke-opacity:1"
       id="path384" /><path
       d="m 42.061827,296.71218 3.260852,0.628 3.260854,-5.60964 3.260852,-4.38609 3.260853,-3.06887 3.260853,-4.3974 3.260852,-2.17614 3.260853,-2.36757 3.260852,-3.02957 3.260852,-0.66395 3.260852,-2.80139 3.260857,-1.92696 3.260851,-1.47012 3.260852,-4.03452 3.260852,-1.12453 3.260852,-0.89422 3.260852,-0.59801 3.260852,1.21451 3.26086,-1.14767 3.26085,-2.61403 3.26085,-2.36278 3.26085,-0.69021 3.26085,-3.38584 3.26086,-2.69484 3.26085,1.85186 3.26085,-1.29045 3.26086,-1.15573 3.26085,0.80888 3.26085,-1.07944 3.26086,0.70331 3.26084,-0.72452 3.26086,0.23421 3.26085,-0.21472 3.26086,-1.97124 3.26085,0.76632 3.26085,0.49763 3.26086,1.88518 3.26084,-1.90272 3.26086,0.37367 3.26085,-3.48626 3.26085,1.62565 3.26086,0.21389 3.26085,-1.86056 3.26085,2.92473 3.26085,0.92228 3.26085,0.0132 3.26087,-1.28713 3.26084,-0.16203 3.26086,-3.53794 3.26084,-0.15887 3.26086,-1.72737 3.26085,1.26433 3.26085,-1.38472 3.26086,-2.89559 3.26085,-0.66624 3.26086,-1.78094 3.26084,-1.58155 3.26086,-0.33392 3.26085,-0.83375 3.26085,0.63311 3.26086,-1.87582 3.26085,-0.0789 3.26085,-0.87651 3.26085,-3.67575"
       style="fill:none;stroke:#8c564b;stroke-width:0.862877;stroke-linecap:square;stroke-linejoin:round;stroke-miterlimit:10;stroke-dasharray:none;stroke-opacity:1"
       id="path314" /><path
       d="m 42.061827,296.67248 3.260852,0.41136 3.260854,-5.34673 3.260852,-4.39403 3.260853,-3.01182 3.260853,-4.21462 3.260852,-2.16141 3.260853,-2.36056 3.260852,-3.1022 3.260852,-0.73603 3.260852,-2.84463 3.260857,-1.94565 3.260851,-1.41635 3.260852,-4.06266 3.260852,-1.05068 3.260852,-0.71331 3.260852,-0.60005 3.260852,1.11749 3.26086,-0.97731 3.26085,-2.86366 3.26085,-2.26415 3.26085,-0.65802 3.26085,-3.22692 3.26086,-2.90308 3.26085,1.89838 3.26085,-1.47006 3.26086,-1.14751 3.26085,0.49273 3.26085,-1.10949 3.26086,0.92068 3.26084,-1.10154 3.26086,-0.0854 3.26085,-0.28779 3.26086,-2.17843 3.26085,0.59361 3.26085,0.86989 3.26086,1.49831 3.26084,-1.71037 3.26086,0.38595 3.26085,-3.26832 3.26085,1.04133 3.26086,0.70192 3.26085,-1.74965 3.26085,2.31753 3.26085,1.67222 3.26085,-0.28444 3.26087,-1.1405 3.26084,-0.65953 3.26086,-3.92143 3.26084,0.25074 3.26086,-1.56354 3.26085,0.9936 3.26085,-0.61996 3.26086,-2.05348 3.26085,-1.28238 3.26086,-1.21358 3.26084,-1.36381 3.26086,-1.00529 3.26085,0.18491 3.26085,-0.9347 3.26086,-0.52151 3.26085,-0.087 3.26085,-2.3396 3.26085,-2.38047"
       style="fill:none;stroke:#9467bd;stroke-width:0.862877;stroke-linecap:square;stroke-linejoin:round;stroke-miterlimit:10;stroke-dasharray:none;stroke-opacity:1"
       id="path324" /></g><g
     inkscape:groupmode="layer"
     id="layer1"
     inkscape:label="text"
     style="display:inline"><text
       transform="matrix(1.3333333,0,0,1.3333333,-28.023958,443.59358)"
       style="font-variant:normal;font-weight:normal;font-size:5.75251px;font-family:'DejaVu Sans';-inkscape-font-specification:DejaVuSans;writing-mode:lr-tb;fill:#000000;fill-opacity:1;fill-rule:nonzero;stroke:none;stroke-width:0.575251"
       id="text32"
       x="40.486782"
       y="-155.46616"><tspan
         x="40.486782 44.145382 45.974678"
         y="-155.46616"
         sodipodi:role="line"
         id="tspan30"
         style="stroke-width:0.575251">0.0</tspan></text><text
       transform="matrix(1.3333333,0,0,1.3333333,-28.023958,443.59358)"
       style="font-variant:normal;font-weight:normal;font-size:5.75251px;font-family:'DejaVu Sans';-inkscape-font-specification:DejaVuSans;writing-mode:lr-tb;fill:#000000;fill-opacity:1;fill-rule:nonzero;stroke:none;stroke-width:0.575251"
       id="text50"
       x="63.573601"
       y="-155.46616"><tspan
         x="63.573601 67.232201 69.061501"
         y="-155.46616"
         sodipodi:role="line"
         id="tspan48"
         style="stroke-width:0.575251">0.2</tspan></text><text
       transform="matrix(1.3333333,0,0,1.3333333,-28.023958,443.59358)"
       style="font-variant:normal;font-weight:normal;font-size:5.75251px;font-family:'DejaVu Sans';-inkscape-font-specification:DejaVuSans;writing-mode:lr-tb;fill:#000000;fill-opacity:1;fill-rule:nonzero;stroke:none;stroke-width:0.575251"
       id="text68"
       x="89.660431"
       y="-155.46616"><tspan
         x="89.660431 93.319023 95.148323"
         y="-155.46616"
         sodipodi:role="line"
         id="tspan66"
         style="stroke-width:0.575251">0.4</tspan></text><text
       transform="matrix(1.3333333,0,0,1.3333333,-28.023958,443.59358)"
       style="font-variant:normal;font-weight:normal;font-size:5.75251px;font-family:'DejaVu Sans';-inkscape-font-specification:DejaVuSans;writing-mode:lr-tb;fill:#000000;fill-opacity:1;fill-rule:nonzero;stroke:none;stroke-width:0.575251"
       id="text86"
       x="115.74725"
       y="-155.46616"><tspan
         x="115.74725 119.40585 121.23513"
         y="-155.46616"
         sodipodi:role="line"
         id="tspan84"
         style="stroke-width:0.575251">0.6</tspan></text><text
       transform="matrix(1.3333333,0,0,1.3333333,-28.023958,443.59358)"
       style="font-variant:normal;font-weight:normal;font-size:5.75251px;font-family:'DejaVu Sans';-inkscape-font-specification:DejaVuSans;writing-mode:lr-tb;fill:#000000;fill-opacity:1;fill-rule:nonzero;stroke:none;stroke-width:0.575251"
       id="text104"
       x="141.83406"
       y="-155.46616"><tspan
         x="141.83406 145.49266 147.32196"
         y="-155.46616"
         sodipodi:role="line"
         id="tspan102"
         style="stroke-width:0.575251">0.8</tspan></text><text
       transform="matrix(1.3333333,0,0,1.3333333,-28.023958,443.59358)"
       style="font-variant:normal;font-weight:normal;font-size:5.75251px;font-family:'DejaVu Sans';-inkscape-font-specification:DejaVuSans;writing-mode:lr-tb;fill:#000000;fill-opacity:1;fill-rule:nonzero;stroke:none;stroke-width:0.575251"
       id="text122"
       x="167.92088"
       y="-155.46616"><tspan
         x="167.92088 171.57948 173.40878"
         y="-155.46616"
         sodipodi:role="line"
         id="tspan120"
         style="stroke-width:0.575251">1.0</tspan></text><text
       transform="matrix(1.3333333,0,0,1.3333333,-28.023958,443.59358)"
       style="font-variant:normal;font-weight:normal;font-size:5.75251px;font-family:'DejaVu Sans';-inkscape-font-specification:DejaVuSans;writing-mode:lr-tb;fill:#000000;fill-opacity:1;fill-rule:nonzero;stroke:none;stroke-width:0.575251"
       id="text140"
       x="194.00771"
       y="-155.46616"><tspan
         x="194.00771 197.66631 199.49559"
         y="-155.46616"
         sodipodi:role="line"
         id="tspan138"
         style="stroke-width:0.575251">1.2</tspan></text><text
       transform="matrix(1.3333333,0,0,1.3333333,-28.023958,443.59358)"
       style="font-variant:normal;font-weight:normal;font-size:5.75251px;font-family:'DejaVu Sans';-inkscape-font-specification:DejaVuSans;writing-mode:lr-tb;fill:#000000;fill-opacity:1;fill-rule:nonzero;stroke:none;stroke-width:0.575251"
       id="text158"
       x="220.09453"
       y="-155.46616"><tspan
         x="220.09453 223.75313 225.58241"
         y="-155.46616"
         sodipodi:role="line"
         id="tspan156"
         style="stroke-width:0.575251">1.4</tspan></text><text
       transform="matrix(1.3333333,0,0,1.3333333,-28.023958,443.59358)"
       style="font-variant:normal;font-weight:normal;font-size:5.75251px;font-family:'DejaVu Sans';-inkscape-font-specification:DejaVuSans;writing-mode:lr-tb;fill:#000000;fill-opacity:1;fill-rule:nonzero;stroke:none;stroke-width:0.575251"
       id="text162"
       x="109.9625"
       y="-147.60139"><tspan
         x="109.9625 114.4207 117.95849 121.60558 125.12613 130.72906 132.32826 135.49214 137.32146 140.97429 142.57349 145.57056 147.82555 151.35184 154.99893 158.16281 161.70059 163.52989 165.46849 167.29779 172.26221 175.91505"
         y="-147.60139"
         sodipodi:role="line"
         id="tspan160"
         style="stroke-width:0.575251">Genomic distance / Mbp</tspan></text><text
       transform="matrix(1.3333333,0,0,1.3333333,-28.023958,443.59358)"
       style="font-variant:normal;font-weight:normal;font-size:5.75251px;font-family:'DejaVu Sans';-inkscape-font-specification:DejaVuSans;writing-mode:lr-tb;fill:#000000;fill-opacity:1;fill-rule:nonzero;stroke:none;stroke-width:0.575251"
       id="text180"
       x="28.884977"
       y="-161.67706"><tspan
         x="28.884977 32.543575 34.372875"
         y="-161.67706"
         sodipodi:role="line"
         id="tspan178"
         style="stroke-width:0.575251">0.0</tspan></text><text
       transform="matrix(1.3333333,0,0,1.3333333,-28.023958,443.59358)"
       style="font-variant:normal;font-weight:normal;font-size:5.75251px;font-family:'DejaVu Sans';-inkscape-font-specification:DejaVuSans;writing-mode:lr-tb;fill:#000000;fill-opacity:1;fill-rule:nonzero;stroke:none;stroke-width:0.575251"
       id="text198"
       x="28.884977"
       y="-192.29333"><tspan
         x="28.884977 32.543575 34.372875"
         y="-192.29333"
         sodipodi:role="line"
         id="tspan196"
         style="stroke-width:0.575251">0.2</tspan></text><text
       transform="matrix(1.3333333,0,0,1.3333333,-28.023958,443.59358)"
       style="font-variant:normal;font-weight:normal;font-size:5.75251px;font-family:'DejaVu Sans';-inkscape-font-specification:DejaVuSans;writing-mode:lr-tb;fill:#000000;fill-opacity:1;fill-rule:nonzero;stroke:none;stroke-width:0.575251"
       id="text216"
       x="28.884977"
       y="-222.90956"><tspan
         x="28.884977 32.543575 34.372875"
         y="-222.90956"
         sodipodi:role="line"
         id="tspan214"
         style="stroke-width:0.575251">0.4</tspan></text><text
       transform="matrix(1.3333333,0,0,1.3333333,-28.023958,443.59358)"
       style="font-variant:normal;font-weight:normal;font-size:5.75251px;font-family:'DejaVu Sans';-inkscape-font-specification:DejaVuSans;writing-mode:lr-tb;fill:#000000;fill-opacity:1;fill-rule:nonzero;stroke:none;stroke-width:0.575251"
       id="text234"
       x="28.884977"
       y="-253.52583"><tspan
         x="28.884977 32.543575 34.372875"
         y="-253.52583"
         sodipodi:role="line"
         id="tspan232"
         style="stroke-width:0.575251">0.6</tspan></text><text
       transform="matrix(1.3333333,0,0,1.3333333,-28.023958,443.59358)"
       style="font-variant:normal;font-weight:normal;font-size:5.75251px;font-family:'DejaVu Sans';-inkscape-font-specification:DejaVuSans;writing-mode:lr-tb;fill:#000000;fill-opacity:1;fill-rule:nonzero;stroke:none;stroke-width:0.575251"
       id="text252"
       x="28.884977"
       y="-284.14206"><tspan
         x="28.884977 32.543575 34.372875"
         y="-284.14206"
         sodipodi:role="line"
         id="tspan250"
         style="stroke-width:0.575251">0.8</tspan></text><text
       transform="matrix(1.3333333,0,0,1.3333333,-28.023958,443.59358)"
       style="font-variant:normal;font-weight:normal;font-size:5.75251px;font-family:'DejaVu Sans';-inkscape-font-specification:DejaVuSans;writing-mode:lr-tb;fill:#000000;fill-opacity:1;fill-rule:nonzero;stroke:none;stroke-width:0.575251"
       id="text270"
       x="28.884977"
       y="-314.75833"><tspan
         x="28.884977 32.543575 34.372875"
         y="-314.75833"
         sodipodi:role="line"
         id="tspan268"
         style="stroke-width:0.575251">1.0</tspan></text><text
       transform="matrix(0,-1.3333333,1.3333333,0,-28.023958,443.59358)"
       style="font-variant:normal;font-weight:normal;font-size:5.75251px;font-family:'DejaVu Sans';-inkscape-font-specification:DejaVuSans;writing-mode:lr-tb;fill:#000000;fill-opacity:1;fill-rule:nonzero;stroke:none;stroke-width:0.575251"
       id="text274"
       x="212.61003"
       y="25.388531"><tspan
         x="212.61003 216.0788 219.61658 223.14288 225.50717 228.50421 232.02477 235.67184 237.50114 240.66502 244.18558 246.54985 248.91414 252.45193 254.05113 257.57742 259.8324 261.43161 264.95212"
         y="25.388531"
         sodipodi:role="line"
         id="tspan272"
         style="stroke-width:0.575251">Pearson correlation</tspan></text><text
       transform="matrix(1.3333333,0,0,1.3333333,-28.023958,443.59358)"
       style="font-variant:normal;font-weight:normal;font-size:6.90301px;font-family:'DejaVu Sans';-inkscape-font-specification:DejaVuSans;writing-mode:lr-tb;fill:#000000;fill-opacity:1;fill-rule:nonzero;stroke:none;stroke-width:0.575251"
       id="text348"
       x="73.739655"
       y="-328.13113"><tspan
         x="73.739655 77.902168 82.147522 86.379074 89.216209 92.812675 97.037331 101.41384 103.609 107.40565 111.63029 114.46745 117.30458 121.54993 123.46897 127.70053 130.40651 132.32555 136.55019 140.92668 143.12186 147.20844 150.80492 153.00008 155.19524 159.57864 163.82401 168.2005 172.42516 179.14868 181.06772 184.86438 187.05954 191.44296 193.362 196.95847 199.66444 203.89598 208.27249 212.06915"
         y="-328.13113"
         sodipodi:role="line"
         id="tspan346"
         style="stroke-width:0.575251">Pearson correlation vs. genomic distance</tspan></text><text
       transform="matrix(1.3333333,0,0,1.3333333,-28.023958,443.59358)"
       style="font-variant:normal;font-weight:normal;font-size:6.90301px;font-family:'DejaVu Sans';-inkscape-font-specification:DejaVuSans;writing-mode:lr-tb;fill:#000000;fill-opacity:1;fill-rule:nonzero;stroke:none;stroke-width:0.575251"
       id="text352"
       x="45.792545"
       y="-320.39398"><tspan
         x="45.792545 51.142384 57.099686 61.490005 65.880318 70.270638 74.66095 79.05127 81.246437 83.441589 87.831909 90.027069 94.417381 96.612541 101.00285 103.19802 107.58833 109.78349 114.17381 116.36897 120.75928 125.1496 127.34476 131.73508 136.1254 138.32056 142.71086 147.10118 149.29634 153.68666 158.077 160.27216 164.66246 169.05278 171.24794 175.63826 180.02858 182.22374 186.61404 191.00438 193.19952 197.58986 201.98016 204.17532 208.39996 212.77647 214.97163 219.50002 223.89035 228.28064 232.67097 234.86612 237.06129 241.4516"
         y="-320.39398"
         sodipodi:role="line"
         id="tspan350"
         style="stroke-width:0.575251">GM12878, 1,2,4,7,9,11,13,14,16,17,18,20,22 on K562, 10</tspan></text><text
       style="font-variant:normal;font-weight:normal;font-size:7.67001px;font-family:'DejaVu Sans';-inkscape-font-specification:DejaVuSans;writing-mode:lr-tb;fill:#000000;fill-opacity:1;fill-rule:nonzero;stroke:none;stroke-width:0.767001"
       id="text358"
       x="64.388"
       y="159.31726"><tspan
         x="64.388 69.266151 74.144287 76.583336 81.300392 86.170876 88.609901 91.194702 93.633789 98.880089 104.49453 109.84821 112.43298 114.87207 119.75018 122.18927 127.06739 131.94553"
         y="159.31726"
         sodipodi:role="line"
         id="tspan356"
         style="stroke-width:0.767001">20 ep / AUC: 0.579</tspan></text><text
       style="font-variant:normal;font-weight:normal;font-size:7.67001px;font-family:'DejaVu Sans';-inkscape-font-specification:DejaVuSans;writing-mode:lr-tb;fill:#000000;fill-opacity:1;fill-rule:nonzero;stroke:none;stroke-width:0.767001"
       id="text364"
       x="64.388"
       y="170.57063"><tspan
         x="64.388 69.266151 74.144287 76.583336 81.300392 86.170876 88.609901 91.194702 93.633789 98.880089 104.49453 109.84821 112.43298 114.87207 119.75018 122.18927 127.06739 131.94553"
         y="170.57063"
         sodipodi:role="line"
         id="tspan362"
         style="stroke-width:0.767001">40 ep / AUC: 0.579</tspan></text><text
       style="font-variant:normal;font-weight:normal;font-size:7.67001px;font-family:'DejaVu Sans';-inkscape-font-specification:DejaVuSans;writing-mode:lr-tb;fill:#000000;fill-opacity:1;fill-rule:nonzero;stroke:none;stroke-width:0.767001"
       id="text370"
       x="64.388"
       y="181.82397"><tspan
         x="64.388 69.266151 74.144287 76.583336 81.300392 86.170876 88.609901 91.194702 93.633789 98.880089 104.49453 109.84821 112.43298 114.87207 119.75018 122.18927 127.06739 131.94553"
         y="181.82397"
         sodipodi:role="line"
         id="tspan368"
         style="stroke-width:0.767001">60 ep / AUC: 0.573</tspan></text><text
       style="font-variant:normal;font-weight:normal;font-size:7.67001px;font-family:'DejaVu Sans';-inkscape-font-specification:DejaVuSans;writing-mode:lr-tb;fill:#000000;fill-opacity:1;fill-rule:nonzero;stroke:none;stroke-width:0.767001"
       id="text376"
       x="64.388"
       y="193.07735"><tspan
         x="64.388 69.266151 74.144287 76.583336 81.300392 86.170876 88.609901 91.194702 93.633789 98.880089 104.49453 109.84821 112.43298 114.87207 119.75018 122.18927 127.06739 131.94553"
         y="193.07735"
         sodipodi:role="line"
         id="tspan374"
         style="stroke-width:0.767001">80 ep / AUC: 0.572</tspan></text><text
       style="font-variant:normal;font-weight:normal;font-size:7.67001px;font-family:'DejaVu Sans';-inkscape-font-specification:DejaVuSans;writing-mode:lr-tb;fill:#000000;fill-opacity:1;fill-rule:nonzero;stroke:none;stroke-width:0.767001"
       id="text382"
       x="64.388"
       y="204.33069"><tspan
         x="64.388 69.266151 74.144287 79.0224 81.461464 86.178551 91.048973 93.48806 96.072853 98.511925 103.75819 109.37265 114.72636 117.31113 119.75018 124.62833 127.06739 131.94553 136.82365"
         y="204.33069"
         sodipodi:role="line"
         id="tspan380"
         style="stroke-width:0.767001">100 ep / AUC: 0.570</tspan></text><text
       style="font-variant:normal;font-weight:normal;font-size:7.67001px;font-family:'DejaVu Sans';-inkscape-font-specification:DejaVuSans;writing-mode:lr-tb;fill:#000000;fill-opacity:1;fill-rule:nonzero;stroke:none;stroke-width:0.767001"
       id="text388"
       x="64.388"
       y="215.58403"><tspan
         x="64.388 67.394653 70.547035 75.248756 80.111549 84.107628 86.807472 91.524559 94.676903 97.115967 103.06023 109.67947 114.55762 119.43571 124.31387 129.19197 134.07014 136.50917 139.09398 141.53304 146.77936 152.39381 157.7475 160.33228 162.77132 167.64948 170.08855 174.96666 179.8448"
         y="215.58403"
         sodipodi:role="line"
         id="tspan386"
         style="stroke-width:0.767001">transfer GM12878 / AUC: 0.738</tspan></text></g></svg>
