<?xml version="1.0" encoding="UTF-8" standalone="no"?>
<svg
   xmlns:dc="http://purl.org/dc/elements/1.1/"
   xmlns:cc="http://creativecommons.org/ns#"
   xmlns:rdf="http://www.w3.org/1999/02/22-rdf-syntax-ns#"
   xmlns:svg="http://www.w3.org/2000/svg"
   xmlns="http://www.w3.org/2000/svg"
   xmlns:sodipodi="http://sodipodi.sourceforge.net/DTD/sodipodi-0.dtd"
   xmlns:inkscape="http://www.inkscape.org/namespaces/inkscape"
   version="1.1"
   id="svg2"
   xml:space="preserve"
   width="80mm"
   height="65.300003mm"
   viewBox="0 0 302.36219 246.80316"
   sodipodi:docname="pearson_chr10.svg"
   inkscape:version="1.0.2 (1.0.2+r75+1)"><metadata
     id="metadata8"><rdf:RDF><cc:Work
         rdf:about=""><dc:format>image/svg+xml</dc:format><dc:type
           rdf:resource="http://purl.org/dc/dcmitype/StillImage" /><dc:title></dc:title></cc:Work></rdf:RDF></metadata><defs
     id="defs6"><clipPath
       clipPathUnits="userSpaceOnUse"
       id="clipPath22"><path
         d="M 57.6,38.016 H 414.72 V 304.128 H 57.6 Z"
         id="path20" /></clipPath><clipPath
       clipPathUnits="userSpaceOnUse"
       id="clipPath40"><path
         d="M 57.6,38.016 H 414.72 V 304.128 H 57.6 Z"
         id="path38" /></clipPath><clipPath
       clipPathUnits="userSpaceOnUse"
       id="clipPath58"><path
         d="M 57.6,38.016 H 414.72 V 304.128 H 57.6 Z"
         id="path56" /></clipPath><clipPath
       clipPathUnits="userSpaceOnUse"
       id="clipPath76"><path
         d="M 57.6,38.016 H 414.72 V 304.128 H 57.6 Z"
         id="path74" /></clipPath><clipPath
       clipPathUnits="userSpaceOnUse"
       id="clipPath94"><path
         d="M 57.6,38.016 H 414.72 V 304.128 H 57.6 Z"
         id="path92" /></clipPath><clipPath
       clipPathUnits="userSpaceOnUse"
       id="clipPath112"><path
         d="M 57.6,38.016 H 414.72 V 304.128 H 57.6 Z"
         id="path110" /></clipPath><clipPath
       clipPathUnits="userSpaceOnUse"
       id="clipPath130"><path
         d="M 57.6,38.016 H 414.72 V 304.128 H 57.6 Z"
         id="path128" /></clipPath><clipPath
       clipPathUnits="userSpaceOnUse"
       id="clipPath148"><path
         d="M 57.6,38.016 H 414.72 V 304.128 H 57.6 Z"
         id="path146" /></clipPath><clipPath
       clipPathUnits="userSpaceOnUse"
       id="clipPath170"><path
         d="M 57.6,38.016 H 414.72 V 304.128 H 57.6 Z"
         id="path168" /></clipPath><clipPath
       clipPathUnits="userSpaceOnUse"
       id="clipPath188"><path
         d="M 57.6,38.016 H 414.72 V 304.128 H 57.6 Z"
         id="path186" /></clipPath><clipPath
       clipPathUnits="userSpaceOnUse"
       id="clipPath206"><path
         d="M 57.6,38.016 H 414.72 V 304.128 H 57.6 Z"
         id="path204" /></clipPath><clipPath
       clipPathUnits="userSpaceOnUse"
       id="clipPath224"><path
         d="M 57.6,38.016 H 414.72 V 304.128 H 57.6 Z"
         id="path222" /></clipPath><clipPath
       clipPathUnits="userSpaceOnUse"
       id="clipPath242"><path
         d="M 57.6,38.016 H 414.72 V 304.128 H 57.6 Z"
         id="path240" /></clipPath><clipPath
       clipPathUnits="userSpaceOnUse"
       id="clipPath260"><path
         d="M 57.6,38.016 H 414.72 V 304.128 H 57.6 Z"
         id="path258" /></clipPath><clipPath
       clipPathUnits="userSpaceOnUse"
       id="clipPath282"><path
         d="M 57.6,38.016 H 414.72 V 304.128 H 57.6 Z"
         id="path280" /></clipPath><clipPath
       clipPathUnits="userSpaceOnUse"
       id="clipPath292"><path
         d="M 57.6,38.016 H 414.72 V 304.128 H 57.6 Z"
         id="path290" /></clipPath><clipPath
       clipPathUnits="userSpaceOnUse"
       id="clipPath302"><path
         d="M 57.6,38.016 H 414.72 V 304.128 H 57.6 Z"
         id="path300" /></clipPath><clipPath
       clipPathUnits="userSpaceOnUse"
       id="clipPath312"><path
         d="M 57.6,38.016 H 414.72 V 304.128 H 57.6 Z"
         id="path310" /></clipPath><clipPath
       clipPathUnits="userSpaceOnUse"
       id="clipPath322"><path
         d="M 57.6,38.016 H 414.72 V 304.128 H 57.6 Z"
         id="path320" /></clipPath><clipPath
       clipPathUnits="userSpaceOnUse"
       id="clipPath332"><path
         d="M 57.6,38.016 H 414.72 V 304.128 H 57.6 Z"
         id="path330" /></clipPath></defs><sodipodi:namedview
     pagecolor="#ffffff"
     bordercolor="#666666"
     borderopacity="1"
     objecttolerance="10"
     gridtolerance="10"
     guidetolerance="10"
     inkscape:pageopacity="0"
     inkscape:pageshadow="2"
     inkscape:window-width="1920"
     inkscape:window-height="1020"
     id="namedview4"
     showgrid="false"
     fit-margin-top="0"
     fit-margin-left="0"
     fit-margin-right="0"
     fit-margin-bottom="0"
     units="mm"
     inkscape:zoom="3.7196182"
     inkscape:cx="127.90707"
     inkscape:cy="190.01719"
     inkscape:window-x="0"
     inkscape:window-y="0"
     inkscape:window-maximized="1"
     inkscape:current-layer="layer1" /><g
     id="g10"
     inkscape:groupmode="layer"
     inkscape:label="pearson_chr10"
     transform="matrix(1.3333333,0,0,-1.3333333,-28.023958,443.59358)"><g
       id="g328"
       clip-path="url(#clipPath332)"
       style="stroke:#d62728;stroke-opacity:1"
       transform="matrix(0.57534939,0,0,0.57534939,8.9252935,141.98496)"><path
         d="m 57.6,248.06087 5.668571,-7.29187 5.668572,-2.64319 5.668571,-1.93013 5.668572,0.54601 5.668571,1.59325 5.668572,-0.82048 5.668571,4.73928 5.66857,1.5332 5.66857,-0.13717 5.66857,-0.0418 5.66858,0.0806 5.66857,-2.90026 5.66857,0.21707 5.66857,-0.3958 5.66857,1.80474 5.66857,-2.15561 5.66857,-1.25425 5.66858,1.11235 5.66857,0.67488 5.66857,-1.59361 5.66857,-2.88676 5.66857,-3.72877 5.66857,-3.70619 5.66857,-0.453 5.66858,-2.45747 5.66857,-0.95794 5.66857,1.2394 5.66857,-1.25637 5.66857,6.93874 5.66857,3.25746 5.66857,-2.18465 5.66858,-0.95258 5.66857,6.25023 5.66857,-2.70001 5.66857,-2.34489 5.66857,-2.58518 5.66857,3.99357 5.66857,0.33421 5.66858,2.02432 5.66857,-4.83246 5.66857,1.02922 5.66857,2.38637 5.66857,-4.87707 5.66857,-1.12189 5.66857,-2.62176 5.66858,2.86751 5.66857,3.78359 5.66857,-0.44397 5.66857,4.76036 5.66857,-3.69919 5.66857,0.85233 5.66857,1.144 5.66858,-2.18453 5.66857,-1.99703 5.66857,3.80299 5.66857,-2.09308 5.66857,-1.42895 5.66857,-1.48115 5.66857,-3.76073 5.66858,-4.27128 5.66857,-0.29657 5.66857,1.01551 5.66857,-3.61633"
         style="fill:none;stroke:#d62728;stroke-width:1.5;stroke-linecap:square;stroke-linejoin:round;stroke-miterlimit:10;stroke-dasharray:none;stroke-opacity:1"
         id="path334" /></g><g
       id="g16"
       transform="matrix(0.57534939,0,0,0.57534939,8.9252935,141.98496)"><g
         id="g18"
         clip-path="url(#clipPath22)"><path
           d="M 57.6,38.016 V 304.128"
           style="fill:none;stroke:#b0b0b0;stroke-width:0.8;stroke-linecap:square;stroke-linejoin:round;stroke-miterlimit:10;stroke-dasharray:none;stroke-opacity:1"
           id="path24" /></g></g><path
       d="m 42.065418,163.85744 v -2.01372"
       style="fill:#000000;fill-opacity:1;fill-rule:nonzero;stroke:#000000;stroke-width:0.460279;stroke-linecap:butt;stroke-linejoin:round;stroke-miterlimit:10;stroke-dasharray:none;stroke-opacity:1"
       id="path28" /><g
       id="g34"
       transform="matrix(0.57534939,0,0,0.57534939,8.9252935,141.98496)"><g
         id="g36"
         clip-path="url(#clipPath40)"><path
           d="M 102.94857,38.016 V 304.128"
           style="fill:none;stroke:#b0b0b0;stroke-width:0.8;stroke-linecap:square;stroke-linejoin:round;stroke-miterlimit:10;stroke-dasharray:none;stroke-opacity:1"
           id="path42" /></g></g><path
       d="m 68.15669,163.85744 v -2.01372"
       style="fill:#000000;fill-opacity:1;fill-rule:nonzero;stroke:#000000;stroke-width:0.460279;stroke-linecap:butt;stroke-linejoin:round;stroke-miterlimit:10;stroke-dasharray:none;stroke-opacity:1"
       id="path46" /><g
       id="g52"
       transform="matrix(0.57534939,0,0,0.57534939,8.9252935,141.98496)"><g
         id="g54"
         clip-path="url(#clipPath58)"><path
           d="M 148.29714,38.016 V 304.128"
           style="fill:none;stroke:#b0b0b0;stroke-width:0.8;stroke-linecap:square;stroke-linejoin:round;stroke-miterlimit:10;stroke-dasharray:none;stroke-opacity:1"
           id="path60" /></g></g><path
       d="m 94.247962,163.85744 v -2.01372"
       style="fill:#000000;fill-opacity:1;fill-rule:nonzero;stroke:#000000;stroke-width:0.460279;stroke-linecap:butt;stroke-linejoin:round;stroke-miterlimit:10;stroke-dasharray:none;stroke-opacity:1"
       id="path64" /><g
       id="g70"
       transform="matrix(0.57534939,0,0,0.57534939,8.9252935,141.98496)"><g
         id="g72"
         clip-path="url(#clipPath76)"><path
           d="M 193.64571,38.016 V 304.128"
           style="fill:none;stroke:#b0b0b0;stroke-width:0.8;stroke-linecap:square;stroke-linejoin:round;stroke-miterlimit:10;stroke-dasharray:none;stroke-opacity:1"
           id="path78" /></g></g><path
       d="m 120.33923,163.85744 v -2.01372"
       style="fill:#000000;fill-opacity:1;fill-rule:nonzero;stroke:#000000;stroke-width:0.460279;stroke-linecap:butt;stroke-linejoin:round;stroke-miterlimit:10;stroke-dasharray:none;stroke-opacity:1"
       id="path82" /><g
       id="g88"
       transform="matrix(0.57534939,0,0,0.57534939,8.9252935,141.98496)"><g
         id="g90"
         clip-path="url(#clipPath94)"><path
           d="M 238.99429,38.016 V 304.128"
           style="fill:none;stroke:#b0b0b0;stroke-width:0.8;stroke-linecap:square;stroke-linejoin:round;stroke-miterlimit:10;stroke-dasharray:none;stroke-opacity:1"
           id="path96" /></g></g><path
       d="m 146.43051,163.85744 v -2.01372"
       style="fill:#000000;fill-opacity:1;fill-rule:nonzero;stroke:#000000;stroke-width:0.460279;stroke-linecap:butt;stroke-linejoin:round;stroke-miterlimit:10;stroke-dasharray:none;stroke-opacity:1"
       id="path100" /><g
       id="g106"
       transform="matrix(0.57534939,0,0,0.57534939,8.9252935,141.98496)"><g
         id="g108"
         clip-path="url(#clipPath112)"><path
           d="M 284.34286,38.016 V 304.128"
           style="fill:none;stroke:#b0b0b0;stroke-width:0.8;stroke-linecap:square;stroke-linejoin:round;stroke-miterlimit:10;stroke-dasharray:none;stroke-opacity:1"
           id="path114" /></g></g><path
       d="m 172.52178,163.85744 v -2.01372"
       style="fill:#000000;fill-opacity:1;fill-rule:nonzero;stroke:#000000;stroke-width:0.460279;stroke-linecap:butt;stroke-linejoin:round;stroke-miterlimit:10;stroke-dasharray:none;stroke-opacity:1"
       id="path118" /><g
       id="g124"
       transform="matrix(0.57534939,0,0,0.57534939,8.9252935,141.98496)"><g
         id="g126"
         clip-path="url(#clipPath130)"><path
           d="M 329.69143,38.016 V 304.128"
           style="fill:none;stroke:#b0b0b0;stroke-width:0.8;stroke-linecap:square;stroke-linejoin:round;stroke-miterlimit:10;stroke-dasharray:none;stroke-opacity:1"
           id="path132" /></g></g><path
       d="m 198.61306,163.85744 v -2.01372"
       style="fill:#000000;fill-opacity:1;fill-rule:nonzero;stroke:#000000;stroke-width:0.460279;stroke-linecap:butt;stroke-linejoin:round;stroke-miterlimit:10;stroke-dasharray:none;stroke-opacity:1"
       id="path136" /><g
       id="g142"
       transform="matrix(0.57534939,0,0,0.57534939,8.9252935,141.98496)"><g
         id="g144"
         clip-path="url(#clipPath148)"><path
           d="M 375.04,38.016 V 304.128"
           style="fill:none;stroke:#b0b0b0;stroke-width:0.8;stroke-linecap:square;stroke-linejoin:round;stroke-miterlimit:10;stroke-dasharray:none;stroke-opacity:1"
           id="path150" /></g></g><path
       d="m 224.70433,163.85744 v -2.01372"
       style="fill:#000000;fill-opacity:1;fill-rule:nonzero;stroke:#000000;stroke-width:0.460279;stroke-linecap:butt;stroke-linejoin:round;stroke-miterlimit:10;stroke-dasharray:none;stroke-opacity:1"
       id="path154" /><g
       id="g164"
       transform="matrix(0.57534939,0,0,0.57534939,8.9252935,141.98496)"><g
         id="g166"
         clip-path="url(#clipPath170)"><path
           d="M 57.6,38.016 H 414.72"
           style="fill:none;stroke:#b0b0b0;stroke-width:0.8;stroke-linecap:square;stroke-linejoin:round;stroke-miterlimit:10;stroke-dasharray:none;stroke-opacity:1"
           id="path172" /></g></g><path
       d="M 42.065418,163.85744 H 40.051696"
       style="fill:#000000;fill-opacity:1;fill-rule:nonzero;stroke:#000000;stroke-width:0.460279;stroke-linecap:butt;stroke-linejoin:round;stroke-miterlimit:10;stroke-dasharray:none;stroke-opacity:1"
       id="path176" /><g
       id="g182"
       transform="matrix(0.57534939,0,0,0.57534939,8.9252935,141.98496)"><g
         id="g184"
         clip-path="url(#clipPath188)"><path
           d="M 57.6,91.2384 H 414.72"
           style="fill:none;stroke:#b0b0b0;stroke-width:0.8;stroke-linecap:square;stroke-linejoin:round;stroke-miterlimit:10;stroke-dasharray:none;stroke-opacity:1"
           id="path190" /></g></g><path
       d="M 42.065418,194.47892 H 40.051696"
       style="fill:#000000;fill-opacity:1;fill-rule:nonzero;stroke:#000000;stroke-width:0.460279;stroke-linecap:butt;stroke-linejoin:round;stroke-miterlimit:10;stroke-dasharray:none;stroke-opacity:1"
       id="path194" /><g
       id="g200"
       transform="matrix(0.57534939,0,0,0.57534939,8.9252935,141.98496)"><g
         id="g202"
         clip-path="url(#clipPath206)"><path
           d="M 57.6,144.4608 H 414.72"
           style="fill:none;stroke:#b0b0b0;stroke-width:0.8;stroke-linecap:square;stroke-linejoin:round;stroke-miterlimit:10;stroke-dasharray:none;stroke-opacity:1"
           id="path208" /></g></g><path
       d="M 42.065418,225.10039 H 40.051696"
       style="fill:#000000;fill-opacity:1;fill-rule:nonzero;stroke:#000000;stroke-width:0.460279;stroke-linecap:butt;stroke-linejoin:round;stroke-miterlimit:10;stroke-dasharray:none;stroke-opacity:1"
       id="path212" /><g
       id="g218"
       transform="matrix(0.57534939,0,0,0.57534939,8.9252935,141.98496)"><g
         id="g220"
         clip-path="url(#clipPath224)"><path
           d="M 57.6,197.6832 H 414.72"
           style="fill:none;stroke:#b0b0b0;stroke-width:0.8;stroke-linecap:square;stroke-linejoin:round;stroke-miterlimit:10;stroke-dasharray:none;stroke-opacity:1"
           id="path226" /></g></g><path
       d="M 42.065418,255.72186 H 40.051696"
       style="fill:#000000;fill-opacity:1;fill-rule:nonzero;stroke:#000000;stroke-width:0.460279;stroke-linecap:butt;stroke-linejoin:round;stroke-miterlimit:10;stroke-dasharray:none;stroke-opacity:1"
       id="path230" /><g
       id="g236"
       transform="matrix(0.57534939,0,0,0.57534939,8.9252935,141.98496)"><g
         id="g238"
         clip-path="url(#clipPath242)"><path
           d="M 57.6,250.9056 H 414.72"
           style="fill:none;stroke:#b0b0b0;stroke-width:0.8;stroke-linecap:square;stroke-linejoin:round;stroke-miterlimit:10;stroke-dasharray:none;stroke-opacity:1"
           id="path244" /></g></g><path
       d="M 42.065418,286.34334 H 40.051696"
       style="fill:#000000;fill-opacity:1;fill-rule:nonzero;stroke:#000000;stroke-width:0.460279;stroke-linecap:butt;stroke-linejoin:round;stroke-miterlimit:10;stroke-dasharray:none;stroke-opacity:1"
       id="path248" /><g
       id="g254"
       transform="matrix(0.57534939,0,0,0.57534939,8.9252935,141.98496)"><g
         id="g256"
         clip-path="url(#clipPath260)"><path
           d="M 57.6,304.128 H 414.72"
           style="fill:none;stroke:#b0b0b0;stroke-width:0.8;stroke-linecap:square;stroke-linejoin:round;stroke-miterlimit:10;stroke-dasharray:none;stroke-opacity:1"
           id="path262" /></g></g><path
       d="M 42.065418,316.96481 H 40.051696"
       style="fill:#000000;fill-opacity:1;fill-rule:nonzero;stroke:#000000;stroke-width:0.460279;stroke-linecap:butt;stroke-linejoin:round;stroke-miterlimit:10;stroke-dasharray:none;stroke-opacity:1"
       id="path266" /><g
       id="g278"
       clip-path="url(#clipPath282)"
       transform="matrix(0.57534939,0,0,0.57534939,8.9252935,141.98496)"><path
         d="m 57.6,210.28522 5.668571,9.02974 5.668572,-5.77276 5.668571,-4.91006 5.668572,-3.15456 5.668571,-3.41181 5.668572,-0.63493 5.668571,0.46574 5.66857,-1.96627 5.66857,-0.21631 5.66857,-1.88185 5.66858,-0.88492 5.66857,0.63762 5.66857,-6.74609 5.66857,-1.19114 5.66857,-0.59076 5.66857,-4.08599 5.66857,0.46457 5.66858,-3.34356 5.66857,-4.55689 5.66857,-4.83579 5.66857,-1.95682 5.66857,-4.23707 5.66857,-3.11091 5.66857,1.92341 5.66858,-0.14855 5.66857,-0.20249 5.66857,1.33007 5.66857,-0.93675 5.66857,3.55167 5.66857,1.77319 5.66857,-1.27076 5.66858,2.48719 5.66857,-2.93636 5.66857,-0.42244 5.66857,2.00182 5.66857,2.90591 5.66857,-0.8315 5.66857,0.14104 5.66858,-2.26474 5.66857,-0.21873 5.66857,-0.17479 5.66857,-4.05824 5.66857,-0.44675 5.66857,2.20403 5.66857,-5.40845 5.66858,0.67748 5.66857,-4.70487 5.66857,-5.621 5.66857,1.32101 5.66857,-5.63318 5.66857,-2.30036 5.66857,-5.31004 5.66858,-5.74665 5.66857,-7.78868 5.66857,-6.11404 5.66857,-11.99857 5.66857,-9.25477 5.66857,-36.572876 5.66857,-54.202517 5.66858,-4.105247 5.66857,1.701256 5.66857,1.086857 5.66857,-2.239656"
         style="fill:none;stroke:#1f77b4;stroke-width:1.5;stroke-linecap:square;stroke-linejoin:round;stroke-miterlimit:10;stroke-dasharray:none;stroke-opacity:1"
         id="path284" /></g><g
       id="g288"
       clip-path="url(#clipPath292)"
       transform="matrix(0.57534939,0,0,0.57534939,8.9252935,141.98496)"><path
         d="m 57.6,213.56943 5.668571,8.97097 5.668572,-5.08628 5.668571,-4.4003 5.668572,-1.71358 5.668571,-0.0327 5.668572,1.54721 5.668571,1.97929 5.66857,-2.07717 5.66857,-2.16198 5.66857,-3.30904 5.66858,-2.47049 5.66857,-0.96746 5.66857,-6.98532 5.66857,-1.14212 5.66857,-0.15912 5.66857,-2.3187 5.66857,0.85573 5.66858,-2.75656 5.66857,-3.98758 5.66857,-5.21344 5.66857,-1.6784 5.66857,-5.95342 5.66857,-3.52818 5.66857,1.72089 5.66858,-0.72817 5.66857,-0.59944 5.66857,1.62754 5.66857,-0.33316 5.66857,4.1786 5.66857,2.03574 5.66857,-2.02209 5.66858,1.31281 5.66857,-3.4472 5.66857,-1.6277 5.66857,1.78051 5.66857,2.59519 5.66857,0.37297 5.66857,-0.008 5.66858,-1.99064 5.66857,-1.59248 5.66857,-0.059 5.66857,-3.93753 5.66857,-0.0522 5.66857,1.62935 5.66857,-3.85956 5.66858,0.98792 5.66857,-2.47801 5.66857,-5.2873 5.66857,0.71827 5.66857,-3.20862 5.66857,-1.00998 5.66857,-2.54713 5.66858,-5.35983 5.66857,-4.75958 5.66857,-1.06077 5.66857,-3.13009 5.66857,-4.15041 5.66857,-2.47729 5.66857,-117.073986 5.66858,-9.351572 5.66857,4.254283 5.66857,2.103369 5.66857,-1.344872"
         style="fill:none;stroke:#ff7f0e;stroke-width:1.5;stroke-linecap:square;stroke-linejoin:round;stroke-miterlimit:10;stroke-dasharray:none;stroke-opacity:1"
         id="path294" /></g><g
       id="g298"
       clip-path="url(#clipPath302)"
       transform="matrix(0.57534939,0,0,0.57534939,8.9252935,141.98496)"><path
         d="m 57.6,215.76316 5.668571,8.3933 5.668572,-5.26127 5.668571,-4.51349 5.668572,-1.98989 5.668571,-0.20706 5.668572,1.3078 5.668571,2.21404 5.66857,-1.5408 5.66857,-2.0622 5.66857,-3.3974 5.66858,-2.49525 5.66857,-1.15751 5.66857,-6.68214 5.66857,-1.4762 5.66857,-0.0787 5.66857,-2.25057 5.66857,0.30135 5.66858,-2.50924 5.66857,-3.74408 5.66857,-5.19101 5.66857,-1.89031 5.66857,-6.50544 5.66857,-3.52808 5.66857,1.49227 5.66858,-1.01143 5.66857,-0.81748 5.66857,0.95708 5.66857,-0.12856 5.66857,4.56265 5.66857,1.85092 5.66857,-2.00101 5.66858,0.77677 5.66857,-3.3115 5.66857,-1.84839 5.66857,1.81334 5.66857,2.72975 5.66857,0.11791 5.66857,-0.14269 5.66858,-1.83035 5.66857,-0.95025 5.66857,-0.41549 5.66857,-3.30405 5.66857,-0.23105 5.66857,1.53057 5.66857,-3.11188 5.66858,1.26931 5.66857,-1.94935 5.66857,-4.10664 5.66857,0.43552 5.66857,-2.35163 5.66857,-1.1735 5.66857,-2.42984 5.66858,-5.67428 5.66857,-4.68204 5.66857,-0.32321 5.66857,-2.75215 5.66857,-4.9942 5.66857,-0.20029 5.66857,-99.329805 5.66858,-32.874207 5.66857,4.027512 5.66857,2.609993 5.66857,-0.363976"
         style="fill:none;stroke:#2ca02c;stroke-width:1.5;stroke-linecap:square;stroke-linejoin:round;stroke-miterlimit:10;stroke-dasharray:none;stroke-opacity:1"
         id="path304" /></g><g
       id="g308"
       clip-path="url(#clipPath312)"
       style="stroke:#8c564b;stroke-opacity:1"
       transform="matrix(0.57534939,0,0,0.57534939,8.9252935,141.98496)"><path
         d="m 57.6,214.88484 5.668571,7.96803 5.668572,-5.34331 5.668571,-4.72854 5.668572,-1.95436 5.668571,-0.18182 5.668572,1.09849 5.668571,2.44686 5.66857,-1.20039 5.66857,-1.87235 5.66857,-3.41714 5.66858,-2.63138 5.66857,-0.83622 5.66857,-6.54262 5.66857,-1.59284 5.66857,-0.13127 5.66857,-2.16834 5.66857,0.24308 5.66858,-2.90174 5.66857,-3.64805 5.66857,-4.74456 5.66857,-1.72977 5.66857,-6.25517 5.66857,-3.86149 5.66857,0.84676 5.66858,-0.69877 5.66857,-1.14163 5.66857,0.55931 5.66857,-0.01 5.66857,4.29858 5.66857,2.30003 5.66857,-2.44656 5.66858,1.16896 5.66857,-3.31878 5.66857,-1.77297 5.66857,1.56791 5.66857,2.77625 5.66857,0.004 5.66857,0.19906 5.66858,-2.25354 5.66857,-0.51978 5.66857,-0.31563 5.66857,-3.45882 5.66857,-1.17934 5.66857,1.61046 5.66857,-3.38302 5.66858,1.76954 5.66857,-1.99205 5.66857,-4.73204 5.66857,0.44375 5.66857,-1.55623 5.66857,-0.82689 5.66857,-2.31495 5.66858,-4.52366 5.66857,-3.75857 5.66857,0.55011 5.66857,-2.66683 5.66857,-3.3565 5.66857,0.43771 5.66857,-33.30394 5.66858,-101.277747 5.66857,3.0558 5.66857,3.768183 5.66857,0.765402"
         style="fill:none;stroke:#8c564b;stroke-width:1.5;stroke-linecap:square;stroke-linejoin:round;stroke-miterlimit:10;stroke-dasharray:none;stroke-opacity:1"
         id="path314" /></g><g
       id="g318"
       clip-path="url(#clipPath322)"
       transform="matrix(0.57534939,0,0,0.57534939,8.9252935,141.98496)"><path
         d="m 57.6,214.84379 5.668571,7.64152 5.668572,-4.83265 5.668571,-4.03763 5.668572,-1.63373 5.668571,-0.0917 5.668572,1.00105 5.668571,2.42212 5.66857,-0.79317 5.66857,-1.73663 5.66857,-3.68647 5.66858,-2.97519 5.66857,-1.04582 5.66857,-6.47116 5.66857,-1.43456 5.66857,-0.41935 5.66857,-2.94783 5.66857,0.14336 5.66858,-2.85258 5.66857,-3.75285 5.66857,-4.90468 5.66857,-1.73849 5.66857,-6.36545 5.66857,-3.79625 5.66857,0.93546 5.66858,-0.8411 5.66857,-0.95225 5.66857,0.18917 5.66857,0.11208 5.66857,4.00109 5.66857,2.36868 5.66857,-2.48902 5.66858,1.29407 5.66857,-3.15534 5.66857,-1.73904 5.66857,1.55173 5.66857,3.09098 5.66857,-0.0257 5.66857,0.28356 5.66858,-2.64237 5.66857,-0.46718 5.66857,-0.029 5.66857,-3.08094 5.66857,-0.84019 5.66857,1.56276 5.66857,-3.52453 5.66858,1.27508 5.66857,-2.15749 5.66857,-4.68464 5.66857,0.85552 5.66857,-2.11736 5.66857,-0.55002 5.66857,-1.85661 5.66858,-4.72126 5.66857,-4.26726 5.66857,0.98552 5.66857,-3.72083 5.66857,-1.78359 5.66857,1.19074 5.66857,-7.54991 5.66858,-101.392219 5.66857,-22.606852 5.66857,4.283576 5.66857,1.404636"
         style="fill:none;stroke:#9467bd;stroke-width:1.5;stroke-linecap:square;stroke-linejoin:round;stroke-miterlimit:10;stroke-dasharray:none;stroke-opacity:1"
         id="path324" /></g><path
       d="M 42.065418,163.85744 V 316.96481"
       style="fill:none;stroke:#000000;stroke-width:0.460279;stroke-linecap:square;stroke-linejoin:miter;stroke-miterlimit:10;stroke-dasharray:none;stroke-opacity:1"
       id="path338" /><path
       d="M 247.53419,163.85744 V 316.96481"
       style="fill:none;stroke:#000000;stroke-width:0.460279;stroke-linecap:square;stroke-linejoin:miter;stroke-miterlimit:10;stroke-dasharray:none;stroke-opacity:1"
       id="path340" /><path
       d="M 42.065418,163.85744 H 247.53419"
       style="fill:none;stroke:#000000;stroke-width:0.460279;stroke-linecap:square;stroke-linejoin:miter;stroke-miterlimit:10;stroke-dasharray:none;stroke-opacity:1"
       id="path342" /><path
       d="M 42.065418,316.96481 H 247.53419"
       style="fill:none;stroke:#000000;stroke-width:0.460279;stroke-linecap:square;stroke-linejoin:miter;stroke-miterlimit:10;stroke-dasharray:none;stroke-opacity:1"
       id="path344" /><path
       d="M 79.90871,215.32337 H 91.4157"
       style="fill:none;stroke:#1f77b4;stroke-width:0.863024;stroke-linecap:square;stroke-linejoin:round;stroke-miterlimit:10;stroke-dasharray:none;stroke-opacity:1"
       id="path354" /><path
       d="M 79.90871,206.88192 H 91.4157"
       style="fill:none;stroke:#ff7f0e;stroke-width:0.863024;stroke-linecap:square;stroke-linejoin:round;stroke-miterlimit:10;stroke-dasharray:none;stroke-opacity:1"
       id="path360" /><path
       d="M 79.90871,198.44047 H 91.4157"
       style="fill:none;stroke:#2ca02c;stroke-width:0.863024;stroke-linecap:square;stroke-linejoin:round;stroke-miterlimit:10;stroke-dasharray:none;stroke-opacity:1"
       id="path366" /><path
       d="M 79.90871,189.99901 H 91.4157"
       style="fill:none;stroke:#8c564b;stroke-width:0.863024;stroke-linecap:square;stroke-linejoin:round;stroke-miterlimit:10;stroke-dasharray:none;stroke-opacity:1"
       id="path372" /><path
       d="M 79.90871,181.55756 H 91.4157"
       style="fill:none;stroke:#9467bd;stroke-width:0.863024;stroke-linecap:square;stroke-linejoin:round;stroke-miterlimit:10;stroke-dasharray:none;stroke-opacity:1"
       id="path378" /><path
       d="M 79.90871,173.1161 H 91.4157"
       style="fill:none;stroke:#d62728;stroke-width:0.863024;stroke-linecap:square;stroke-linejoin:round;stroke-miterlimit:10;stroke-dasharray:none;stroke-opacity:1"
       id="path384" /></g><g
     inkscape:groupmode="layer"
     id="layer1"
     inkscape:label="text"
     style="display:inline"
     transform="translate(-28.023958,-17.206424)"><text
       style="font-variant:normal;font-weight:normal;font-size:7.67133px;font-family:'DejaVu Sans';-inkscape-font-specification:DejaVuSans;writing-mode:lr-tb;fill:#000000;fill-opacity:1;fill-rule:nonzero;stroke:none;stroke-width:0.767133"
       id="text32"
       x="53.986122"
       y="253.51872"><tspan
         x="53.986122 58.865082 61.304565"
         y="253.51872"
         sodipodi:role="line"
         id="tspan30"
         style="stroke-width:0.767133">0.0</tspan></text><text
       style="font-variant:normal;font-weight:normal;font-size:7.67133px;font-family:'DejaVu Sans';-inkscape-font-specification:DejaVuSans;writing-mode:lr-tb;fill:#000000;fill-opacity:1;fill-rule:nonzero;stroke:none;stroke-width:0.767133"
       id="text50"
       x="84.774483"
       y="253.51872"><tspan
         x="84.774483 89.653458 92.092934"
         y="253.51872"
         sodipodi:role="line"
         id="tspan48"
         style="stroke-width:0.767133">0.2</tspan></text><text
       style="font-variant:normal;font-weight:normal;font-size:7.67133px;font-family:'DejaVu Sans';-inkscape-font-specification:DejaVuSans;writing-mode:lr-tb;fill:#000000;fill-opacity:1;fill-rule:nonzero;stroke:none;stroke-width:0.767133"
       id="text68"
       x="119.56284"
       y="253.51872"><tspan
         x="119.56284 124.44181 126.88129"
         y="253.51872"
         sodipodi:role="line"
         id="tspan66"
         style="stroke-width:0.767133">0.4</tspan></text><text
       style="font-variant:normal;font-weight:normal;font-size:7.67133px;font-family:'DejaVu Sans';-inkscape-font-specification:DejaVuSans;writing-mode:lr-tb;fill:#000000;fill-opacity:1;fill-rule:nonzero;stroke:none;stroke-width:0.767133"
       id="text86"
       x="154.35123"
       y="253.51872"><tspan
         x="154.35123 159.23018 161.66966"
         y="253.51872"
         sodipodi:role="line"
         id="tspan84"
         style="stroke-width:0.767133">0.6</tspan></text><text
       style="font-variant:normal;font-weight:normal;font-size:7.67133px;font-family:'DejaVu Sans';-inkscape-font-specification:DejaVuSans;writing-mode:lr-tb;fill:#000000;fill-opacity:1;fill-rule:nonzero;stroke:none;stroke-width:0.767133"
       id="text104"
       x="189.13956"
       y="253.51872"><tspan
         x="189.13956 194.01852 196.45801"
         y="253.51872"
         sodipodi:role="line"
         id="tspan102"
         style="stroke-width:0.767133">0.8</tspan></text><text
       style="font-variant:normal;font-weight:normal;font-size:7.67133px;font-family:'DejaVu Sans';-inkscape-font-specification:DejaVuSans;writing-mode:lr-tb;fill:#000000;fill-opacity:1;fill-rule:nonzero;stroke:none;stroke-width:0.767133"
       id="text122"
       x="223.92793"
       y="253.51872"><tspan
         x="223.92793 228.80688 231.24637"
         y="253.51872"
         sodipodi:role="line"
         id="tspan120"
         style="stroke-width:0.767133">1.0</tspan></text><text
       style="font-variant:normal;font-weight:normal;font-size:7.67133px;font-family:'DejaVu Sans';-inkscape-font-specification:DejaVuSans;writing-mode:lr-tb;fill:#000000;fill-opacity:1;fill-rule:nonzero;stroke:none;stroke-width:0.767133"
       id="text140"
       x="258.71631"
       y="253.51872"><tspan
         x="258.71631 263.59528 266.03473"
         y="253.51872"
         sodipodi:role="line"
         id="tspan138"
         style="stroke-width:0.767133">1.2</tspan></text><text
       style="font-variant:normal;font-weight:normal;font-size:7.67133px;font-family:'DejaVu Sans';-inkscape-font-specification:DejaVuSans;writing-mode:lr-tb;fill:#000000;fill-opacity:1;fill-rule:nonzero;stroke:none;stroke-width:0.767133"
       id="text158"
       x="293.50467"
       y="253.51872"><tspan
         x="293.50467 298.38361 300.82312"
         y="253.51872"
         sodipodi:role="line"
         id="tspan156"
         style="stroke-width:0.767133">1.4</tspan></text><text
       style="font-variant:normal;font-weight:normal;font-size:7.67133px;font-family:'DejaVu Sans';-inkscape-font-specification:DejaVuSans;writing-mode:lr-tb;fill:#000000;fill-opacity:1;fill-rule:nonzero;stroke:none;stroke-width:0.767133"
       id="text162"
       x="146.6369"
       y="264.00687"><tspan
         x="146.6369 152.58218 157.30005 162.16367 166.85852 174.33038 176.46301 180.68224 183.12173 187.99301 190.12564 194.12241 197.12956 201.83209 206.69569 210.91495 215.6328 218.0723 220.65752 223.097 229.71735 234.58865"
         y="264.00687"
         sodipodi:role="line"
         id="tspan160"
         style="stroke-width:0.767133">Genomic distance / Mbp</tspan></text><text
       style="font-variant:normal;font-weight:normal;font-size:7.67133px;font-family:'DejaVu Sans';-inkscape-font-specification:DejaVuSans;writing-mode:lr-tb;fill:#000000;fill-opacity:1;fill-rule:nonzero;stroke:none;stroke-width:0.767133"
       id="text180"
       x="38.515091"
       y="245.2361"><tspan
         x="38.515091 43.394054 45.833538"
         y="245.2361"
         sodipodi:role="line"
         id="tspan178"
         style="stroke-width:0.767133">0.0</tspan></text><text
       style="font-variant:normal;font-weight:normal;font-size:7.67133px;font-family:'DejaVu Sans';-inkscape-font-specification:DejaVuSans;writing-mode:lr-tb;fill:#000000;fill-opacity:1;fill-rule:nonzero;stroke:none;stroke-width:0.767133"
       id="text198"
       x="38.515091"
       y="204.40747"><tspan
         x="38.515091 43.394054 45.833538"
         y="204.40747"
         sodipodi:role="line"
         id="tspan196"
         style="stroke-width:0.767133">0.2</tspan></text><text
       style="font-variant:normal;font-weight:normal;font-size:7.67133px;font-family:'DejaVu Sans';-inkscape-font-specification:DejaVuSans;writing-mode:lr-tb;fill:#000000;fill-opacity:1;fill-rule:nonzero;stroke:none;stroke-width:0.767133"
       id="text216"
       x="38.515091"
       y="163.57883"><tspan
         x="38.515091 43.394054 45.833538"
         y="163.57883"
         sodipodi:role="line"
         id="tspan214"
         style="stroke-width:0.767133">0.4</tspan></text><text
       style="font-variant:normal;font-weight:normal;font-size:7.67133px;font-family:'DejaVu Sans';-inkscape-font-specification:DejaVuSans;writing-mode:lr-tb;fill:#000000;fill-opacity:1;fill-rule:nonzero;stroke:none;stroke-width:0.767133"
       id="text234"
       x="38.515091"
       y="122.75023"><tspan
         x="38.515091 43.394054 45.833538"
         y="122.75023"
         sodipodi:role="line"
         id="tspan232"
         style="stroke-width:0.767133">0.6</tspan></text><text
       style="font-variant:normal;font-weight:normal;font-size:7.67133px;font-family:'DejaVu Sans';-inkscape-font-specification:DejaVuSans;writing-mode:lr-tb;fill:#000000;fill-opacity:1;fill-rule:nonzero;stroke:none;stroke-width:0.767133"
       id="text252"
       x="38.515091"
       y="81.921631"><tspan
         x="38.515091 43.394054 45.833538"
         y="81.921631"
         sodipodi:role="line"
         id="tspan250"
         style="stroke-width:0.767133">0.8</tspan></text><text
       style="font-variant:normal;font-weight:normal;font-size:7.67133px;font-family:'DejaVu Sans';-inkscape-font-specification:DejaVuSans;writing-mode:lr-tb;fill:#000000;fill-opacity:1;fill-rule:nonzero;stroke:none;stroke-width:0.767133"
       id="text270"
       x="38.515091"
       y="41.093002"><tspan
         x="38.515091 43.394054 45.833538"
         y="41.093002"
         sodipodi:role="line"
         id="tspan268"
         style="stroke-width:0.767133">1.0</tspan></text><text
       transform="rotate(-90)"
       style="font-variant:normal;font-weight:normal;font-size:7.67133px;font-family:'DejaVu Sans';-inkscape-font-specification:DejaVuSans;writing-mode:lr-tb;fill:#000000;fill-opacity:1;fill-rule:nonzero;stroke:none;stroke-width:0.767133"
       id="text274"
       x="-177.3139"
       y="33.852367"><tspan
         x="-177.3139 -172.68808 -167.97023 -163.2677 -160.11479 -156.11804 -151.42319 -146.55956 -144.12009 -139.90085 -135.20599 -132.05307 -128.90018 -124.18232 -122.04975 -117.34723 -114.34002 -112.20736 -107.51255"
         y="33.852367"
         sodipodi:role="line"
         id="tspan272"
         style="stroke-width:0.767133">Pearson correlation</tspan></text><text
       style="font-variant:normal;font-weight:normal;font-size:9.20559px;font-family:'DejaVu Sans';-inkscape-font-specification:DejaVuSans;writing-mode:lr-tb;fill:#000000;fill-opacity:1;fill-rule:nonzero;stroke:none;stroke-width:0.767133"
       id="text348"
       x="98.331528"
       y="23.259558"><tspan
         x="98.331528 103.8825 109.54394 115.18697 118.97046 123.76657 129.40039 135.23676 138.16412 143.22719 148.86102 152.64452 156.42801 162.08945 164.64861 170.29163 173.90022 176.45938 182.0932 187.92952 190.85692 196.30663 201.10274 204.03012 206.95749 212.80305 218.46449 224.30081 229.93465 238.90089 241.46004 246.52312 249.4505 255.29605 257.85519 262.65131 266.25989 271.90289 277.73926 282.80234"
         y="23.259558"
         sodipodi:role="line"
         id="tspan346"
         style="stroke-width:0.767133">Pearson correlation vs. genomic distance</tspan></text><text
       style="font-variant:normal;font-weight:normal;font-size:9.20559px;font-family:'DejaVu Sans';-inkscape-font-specification:DejaVuSans;writing-mode:lr-tb;fill:#000000;fill-opacity:1;fill-rule:nonzero;stroke:none;stroke-width:0.767133"
       id="text352"
       x="134.29355"
       y="33.577503"><tspan
         x="134.29355 141.42789 149.37231 155.22705 161.08182 166.93657 172.79132 178.64609 181.57346 184.50084 190.35561 196.21034 199.13773 204.77153 210.60788 213.53526 219.57411 225.42889 231.28363 237.1384 240.06578 242.99315 248.8479"
         y="33.577503"
         sodipodi:role="line"
         id="tspan350"
         style="stroke-width:0.767133">GM12878, 14 on K562, 10</tspan></text><text
       style="font-variant:normal;font-weight:normal;font-size:7.67133px;font-family:'DejaVu Sans';-inkscape-font-specification:DejaVuSans;writing-mode:lr-tb;fill:#000000;fill-opacity:1;fill-rule:nonzero;stroke:none;stroke-width:0.767133"
       id="text358"
       x="128.02454"
       y="176.38705"><tspan
         x="128.02454 132.90355 137.78252 140.22198 144.93983 149.81114 152.25061 154.83585 157.27534 162.52252 168.13795 173.49252 176.07774 178.51726 183.39619 185.83568 190.71465 195.59361"
         y="176.38705"
         sodipodi:role="line"
         id="tspan356"
         style="stroke-width:0.767133">20 ep / AUC: 0.452</tspan></text><text
       style="font-variant:normal;font-weight:normal;font-size:7.67133px;font-family:'DejaVu Sans';-inkscape-font-specification:DejaVuSans;writing-mode:lr-tb;fill:#000000;fill-opacity:1;fill-rule:nonzero;stroke:none;stroke-width:0.767133"
       id="text364"
       x="128.02454"
       y="187.64233"><tspan
         x="128.02454 132.90355 137.78252 140.22198 144.93983 149.81114 152.25061 154.83585 157.27534 162.52252 168.13795 173.49252 176.07774 178.51726 183.39619 185.83568 190.71465 195.59361"
         y="187.64233"
         sodipodi:role="line"
         id="tspan362"
         style="stroke-width:0.767133">40 ep / AUC: 0.488</tspan></text><text
       style="font-variant:normal;font-weight:normal;font-size:7.67133px;font-family:'DejaVu Sans';-inkscape-font-specification:DejaVuSans;writing-mode:lr-tb;fill:#000000;fill-opacity:1;fill-rule:nonzero;stroke:none;stroke-width:0.767133"
       id="text370"
       x="128.02454"
       y="198.8976"><tspan
         x="128.02454 132.90355 137.78252 140.22198 144.93983 149.81114 152.25061 154.83585 157.27534 162.52252 168.13795 173.49252 176.07774 178.51726 183.39619 185.83568 190.71465 195.59361"
         y="198.8976"
         sodipodi:role="line"
         id="tspan368"
         style="stroke-width:0.767133">60 ep / AUC: 0.493</tspan></text><text
       style="font-variant:normal;font-weight:normal;font-size:7.67133px;font-family:'DejaVu Sans';-inkscape-font-specification:DejaVuSans;writing-mode:lr-tb;fill:#000000;fill-opacity:1;fill-rule:nonzero;stroke:none;stroke-width:0.767133"
       id="text376"
       x="128.02454"
       y="210.15288"><tspan
         x="128.02454 132.90355 137.78252 140.22198 144.93983 149.81114 152.25061 154.83585 157.27534 162.52252 168.13795 173.49252 176.07774 178.51726 183.39619 185.83568 190.71465 195.59361"
         y="210.15288"
         sodipodi:role="line"
         id="tspan374"
         style="stroke-width:0.767133">80 ep / AUC: 0.493</tspan></text><text
       style="font-variant:normal;font-weight:normal;font-size:7.67133px;font-family:'DejaVu Sans';-inkscape-font-specification:DejaVuSans;writing-mode:lr-tb;fill:#000000;fill-opacity:1;fill-rule:nonzero;stroke:none;stroke-width:0.767133"
       id="text382"
       x="128.02454"
       y="221.40813"><tspan
         x="128.02454 132.90355 137.78252 142.66145 145.10094 149.81882 154.69008 157.12959 159.71481 162.1543 167.40149 173.01689 178.37149 180.95673 183.39619 188.27516 190.71465 195.59361 200.47255"
         y="221.40813"
         sodipodi:role="line"
         id="tspan380"
         style="stroke-width:0.767133">100 ep / AUC: 0.497</tspan></text><text
       style="font-variant:normal;font-weight:normal;font-size:7.67133px;font-family:'DejaVu Sans';-inkscape-font-specification:DejaVuSans;writing-mode:lr-tb;fill:#000000;fill-opacity:1;fill-rule:nonzero;stroke:none;stroke-width:0.767133"
       id="text388"
       x="128.02454"
       y="232.66341"><tspan
         x="128.02454 131.03175 134.18466 138.88718 143.75079 147.74756 150.44786 155.16574 158.31863 160.7581 166.70338 173.32375 178.20273 183.08168 187.96065 192.83958 197.71858 200.15807 202.7433 205.18275 210.42995 216.04536 221.39995 223.98518 226.42467 231.3036 233.74312 238.62206 243.50102"
         y="232.66341"
         sodipodi:role="line"
         id="tspan386"
         style="stroke-width:0.767133">transfer GM12878 / AUC: 0.738</tspan></text></g></svg>
