<?xml version="1.0" encoding="UTF-8" standalone="no"?>
<svg
   xmlns:dc="http://purl.org/dc/elements/1.1/"
   xmlns:cc="http://creativecommons.org/ns#"
   xmlns:rdf="http://www.w3.org/1999/02/22-rdf-syntax-ns#"
   xmlns:svg="http://www.w3.org/2000/svg"
   xmlns="http://www.w3.org/2000/svg"
   xmlns:sodipodi="http://sodipodi.sourceforge.net/DTD/sodipodi-0.dtd"
   xmlns:inkscape="http://www.inkscape.org/namespaces/inkscape"
   version="1.1"
   id="svg2"
   xml:space="preserve"
   width="80mm"
   height="65.300003mm"
   viewBox="0 0 302.36219 246.80316"
   sodipodi:docname="pearson_chr03.svg"
   inkscape:version="1.0.2 (1.0.2+r75+1)"><metadata
     id="metadata8"><rdf:RDF><cc:Work
         rdf:about=""><dc:format>image/svg+xml</dc:format><dc:type
           rdf:resource="http://purl.org/dc/dcmitype/StillImage" /><dc:title></dc:title></cc:Work></rdf:RDF></metadata><defs
     id="defs6"><clipPath
       clipPathUnits="userSpaceOnUse"
       id="clipPath22"><path
         d="M 57.6,38.016 H 414.72 V 304.128 H 57.6 Z"
         id="path20" /></clipPath><clipPath
       clipPathUnits="userSpaceOnUse"
       id="clipPath40"><path
         d="M 57.6,38.016 H 414.72 V 304.128 H 57.6 Z"
         id="path38" /></clipPath><clipPath
       clipPathUnits="userSpaceOnUse"
       id="clipPath58"><path
         d="M 57.6,38.016 H 414.72 V 304.128 H 57.6 Z"
         id="path56" /></clipPath><clipPath
       clipPathUnits="userSpaceOnUse"
       id="clipPath76"><path
         d="M 57.6,38.016 H 414.72 V 304.128 H 57.6 Z"
         id="path74" /></clipPath><clipPath
       clipPathUnits="userSpaceOnUse"
       id="clipPath94"><path
         d="M 57.6,38.016 H 414.72 V 304.128 H 57.6 Z"
         id="path92" /></clipPath><clipPath
       clipPathUnits="userSpaceOnUse"
       id="clipPath112"><path
         d="M 57.6,38.016 H 414.72 V 304.128 H 57.6 Z"
         id="path110" /></clipPath><clipPath
       clipPathUnits="userSpaceOnUse"
       id="clipPath130"><path
         d="M 57.6,38.016 H 414.72 V 304.128 H 57.6 Z"
         id="path128" /></clipPath><clipPath
       clipPathUnits="userSpaceOnUse"
       id="clipPath148"><path
         d="M 57.6,38.016 H 414.72 V 304.128 H 57.6 Z"
         id="path146" /></clipPath><clipPath
       clipPathUnits="userSpaceOnUse"
       id="clipPath170"><path
         d="M 57.6,38.016 H 414.72 V 304.128 H 57.6 Z"
         id="path168" /></clipPath><clipPath
       clipPathUnits="userSpaceOnUse"
       id="clipPath188"><path
         d="M 57.6,38.016 H 414.72 V 304.128 H 57.6 Z"
         id="path186" /></clipPath><clipPath
       clipPathUnits="userSpaceOnUse"
       id="clipPath206"><path
         d="M 57.6,38.016 H 414.72 V 304.128 H 57.6 Z"
         id="path204" /></clipPath><clipPath
       clipPathUnits="userSpaceOnUse"
       id="clipPath224"><path
         d="M 57.6,38.016 H 414.72 V 304.128 H 57.6 Z"
         id="path222" /></clipPath><clipPath
       clipPathUnits="userSpaceOnUse"
       id="clipPath242"><path
         d="M 57.6,38.016 H 414.72 V 304.128 H 57.6 Z"
         id="path240" /></clipPath><clipPath
       clipPathUnits="userSpaceOnUse"
       id="clipPath260"><path
         d="M 57.6,38.016 H 414.72 V 304.128 H 57.6 Z"
         id="path258" /></clipPath><clipPath
       clipPathUnits="userSpaceOnUse"
       id="clipPath282"><path
         d="M 57.6,38.016 H 414.72 V 304.128 H 57.6 Z"
         id="path280" /></clipPath><clipPath
       clipPathUnits="userSpaceOnUse"
       id="clipPath292"><path
         d="M 57.6,38.016 H 414.72 V 304.128 H 57.6 Z"
         id="path290" /></clipPath><clipPath
       clipPathUnits="userSpaceOnUse"
       id="clipPath302"><path
         d="M 57.6,38.016 H 414.72 V 304.128 H 57.6 Z"
         id="path300" /></clipPath><clipPath
       clipPathUnits="userSpaceOnUse"
       id="clipPath312"><path
         d="M 57.6,38.016 H 414.72 V 304.128 H 57.6 Z"
         id="path310" /></clipPath><clipPath
       clipPathUnits="userSpaceOnUse"
       id="clipPath322"><path
         d="M 57.6,38.016 H 414.72 V 304.128 H 57.6 Z"
         id="path320" /></clipPath><clipPath
       clipPathUnits="userSpaceOnUse"
       id="clipPath332"><path
         d="M 57.6,38.016 H 414.72 V 304.128 H 57.6 Z"
         id="path330" /></clipPath></defs><sodipodi:namedview
     pagecolor="#ffffff"
     bordercolor="#666666"
     borderopacity="1"
     objecttolerance="10"
     gridtolerance="10"
     guidetolerance="10"
     inkscape:pageopacity="0"
     inkscape:pageshadow="2"
     inkscape:window-width="1920"
     inkscape:window-height="1020"
     id="namedview4"
     showgrid="false"
     fit-margin-top="0"
     fit-margin-left="0"
     fit-margin-right="0"
     fit-margin-bottom="0"
     units="mm"
     inkscape:zoom="0.92990454"
     inkscape:cx="215.21473"
     inkscape:cy="432.60768"
     inkscape:window-x="0"
     inkscape:window-y="0"
     inkscape:window-maximized="1"
     inkscape:current-layer="layer1" /><g
     id="g10"
     inkscape:groupmode="layer"
     inkscape:label="pearson_chr03"
     transform="matrix(1.3333333,0,0,-1.3333333,-28.023958,443.59357)"><g
       id="g328"
       clip-path="url(#clipPath332)"
       transform="matrix(0.57533426,0,0,0.57533426,8.9256114,141.99715)"
       style="stroke:#d62728;stroke-opacity:1"><path
         d="m 57.6,249.59067 5.668571,-5.03852 5.668572,-4.18733 5.668571,-2.46767 5.668572,0.37439 5.668571,1.72112 5.668572,-0.004 5.668571,1.51314 5.66857,1.39577 5.66857,-0.89786 5.66857,1.96613 5.66858,1.33749 5.66857,-0.53189 5.66857,-2.68686 5.66857,-1.81133 5.66857,-4.1856 5.66857,-2.53148 5.66857,-1.62903 5.66858,-2.88153 5.66857,-2.91804 5.66857,-4.21862 5.66857,0.17346 5.66857,-1.68093 5.66857,-2.96491 5.66857,-2.59023 5.66858,-1.97438 5.66857,-1.69155 5.66857,-6.55182 5.66857,3.0325 5.66857,-1.88589 5.66857,1.14505 5.66857,-1.59183 5.66858,0.42152 5.66857,-0.92409 5.66857,-3.43764 5.66857,0.65537 5.66857,0.34486 5.66857,-2.51059 5.66857,5.26589 5.66858,0.2239 5.66857,-1.05603 5.66857,-1.41809 5.66857,-0.18235 5.66857,1.59826 5.66857,3.46085 5.66857,-1.19037 5.66858,-2.84335 5.66857,-0.1945 5.66857,6.00871 5.66857,-1.8039 5.66857,-5.30133 5.66857,6.73212 5.66857,-2.78949 5.66858,-5.02578 5.66857,-2.16497 5.66857,5.86576 5.66857,-1.69485 5.66857,-2.8213 5.66857,0.0801 5.66857,2.4624 5.66858,0.61762 5.66857,0.28287 5.66857,-2.82845 5.66857,3.48401"
         style="fill:none;stroke:#d62728;stroke-width:1.5;stroke-linecap:square;stroke-linejoin:round;stroke-miterlimit:10;stroke-dasharray:none;stroke-opacity:1"
         id="path334" /></g><g
       id="g16"
       transform="matrix(0.57533426,0,0,0.57533426,8.9256114,141.99715)"><g
         id="g18"
         clip-path="url(#clipPath22)"><path
           d="M 57.6,38.016 V 304.128"
           style="fill:none;stroke:#b0b0b0;stroke-width:0.8;stroke-linecap:square;stroke-linejoin:round;stroke-miterlimit:10;stroke-dasharray:none;stroke-opacity:1"
           id="path24" /></g></g><path
       d="m 42.064865,163.86906 v -2.01368"
       style="fill:#000000;fill-opacity:1;fill-rule:nonzero;stroke:#000000;stroke-width:0.460268;stroke-linecap:butt;stroke-linejoin:round;stroke-miterlimit:10;stroke-dasharray:none;stroke-opacity:1"
       id="path28" /><g
       id="g34"
       transform="matrix(0.57533426,0,0,0.57533426,8.9256114,141.99715)"><g
         id="g36"
         clip-path="url(#clipPath40)"><path
           d="M 102.94857,38.016 V 304.128"
           style="fill:none;stroke:#b0b0b0;stroke-width:0.8;stroke-linecap:square;stroke-linejoin:round;stroke-miterlimit:10;stroke-dasharray:none;stroke-opacity:1"
           id="path42" /></g></g><path
       d="m 68.155451,163.86906 v -2.01368"
       style="fill:#000000;fill-opacity:1;fill-rule:nonzero;stroke:#000000;stroke-width:0.460268;stroke-linecap:butt;stroke-linejoin:round;stroke-miterlimit:10;stroke-dasharray:none;stroke-opacity:1"
       id="path46" /><g
       id="g52"
       transform="matrix(0.57533426,0,0,0.57533426,8.9256114,141.99715)"><g
         id="g54"
         clip-path="url(#clipPath58)"><path
           d="M 148.29714,38.016 V 304.128"
           style="fill:none;stroke:#b0b0b0;stroke-width:0.8;stroke-linecap:square;stroke-linejoin:round;stroke-miterlimit:10;stroke-dasharray:none;stroke-opacity:1"
           id="path60" /></g></g><path
       d="m 94.246037,163.86906 v -2.01368"
       style="fill:#000000;fill-opacity:1;fill-rule:nonzero;stroke:#000000;stroke-width:0.460268;stroke-linecap:butt;stroke-linejoin:round;stroke-miterlimit:10;stroke-dasharray:none;stroke-opacity:1"
       id="path64" /><g
       id="g70"
       transform="matrix(0.57533426,0,0,0.57533426,8.9256114,141.99715)"><g
         id="g72"
         clip-path="url(#clipPath76)"><path
           d="M 193.64571,38.016 V 304.128"
           style="fill:none;stroke:#b0b0b0;stroke-width:0.8;stroke-linecap:square;stroke-linejoin:round;stroke-miterlimit:10;stroke-dasharray:none;stroke-opacity:1"
           id="path78" /></g></g><path
       d="m 120.33663,163.86906 v -2.01368"
       style="fill:#000000;fill-opacity:1;fill-rule:nonzero;stroke:#000000;stroke-width:0.460268;stroke-linecap:butt;stroke-linejoin:round;stroke-miterlimit:10;stroke-dasharray:none;stroke-opacity:1"
       id="path82" /><g
       id="g88"
       transform="matrix(0.57533426,0,0,0.57533426,8.9256114,141.99715)"><g
         id="g90"
         clip-path="url(#clipPath94)"><path
           d="M 238.99429,38.016 V 304.128"
           style="fill:none;stroke:#b0b0b0;stroke-width:0.8;stroke-linecap:square;stroke-linejoin:round;stroke-miterlimit:10;stroke-dasharray:none;stroke-opacity:1"
           id="path96" /></g></g><path
       d="m 146.42722,163.86906 v -2.01368"
       style="fill:#000000;fill-opacity:1;fill-rule:nonzero;stroke:#000000;stroke-width:0.460268;stroke-linecap:butt;stroke-linejoin:round;stroke-miterlimit:10;stroke-dasharray:none;stroke-opacity:1"
       id="path100" /><g
       id="g106"
       transform="matrix(0.57533426,0,0,0.57533426,8.9256114,141.99715)"><g
         id="g108"
         clip-path="url(#clipPath112)"><path
           d="M 284.34286,38.016 V 304.128"
           style="fill:none;stroke:#b0b0b0;stroke-width:0.8;stroke-linecap:square;stroke-linejoin:round;stroke-miterlimit:10;stroke-dasharray:none;stroke-opacity:1"
           id="path114" /></g></g><path
       d="m 172.5178,163.86906 v -2.01368"
       style="fill:#000000;fill-opacity:1;fill-rule:nonzero;stroke:#000000;stroke-width:0.460268;stroke-linecap:butt;stroke-linejoin:round;stroke-miterlimit:10;stroke-dasharray:none;stroke-opacity:1"
       id="path118" /><g
       id="g124"
       transform="matrix(0.57533426,0,0,0.57533426,8.9256114,141.99715)"><g
         id="g126"
         clip-path="url(#clipPath130)"><path
           d="M 329.69143,38.016 V 304.128"
           style="fill:none;stroke:#b0b0b0;stroke-width:0.8;stroke-linecap:square;stroke-linejoin:round;stroke-miterlimit:10;stroke-dasharray:none;stroke-opacity:1"
           id="path132" /></g></g><path
       d="m 198.60838,163.86906 v -2.01368"
       style="fill:#000000;fill-opacity:1;fill-rule:nonzero;stroke:#000000;stroke-width:0.460268;stroke-linecap:butt;stroke-linejoin:round;stroke-miterlimit:10;stroke-dasharray:none;stroke-opacity:1"
       id="path136" /><g
       id="g142"
       transform="matrix(0.57533426,0,0,0.57533426,8.9256114,141.99715)"><g
         id="g144"
         clip-path="url(#clipPath148)"><path
           d="M 375.04,38.016 V 304.128"
           style="fill:none;stroke:#b0b0b0;stroke-width:0.8;stroke-linecap:square;stroke-linejoin:round;stroke-miterlimit:10;stroke-dasharray:none;stroke-opacity:1"
           id="path150" /></g></g><path
       d="m 224.69898,163.86906 v -2.01368"
       style="fill:#000000;fill-opacity:1;fill-rule:nonzero;stroke:#000000;stroke-width:0.460268;stroke-linecap:butt;stroke-linejoin:round;stroke-miterlimit:10;stroke-dasharray:none;stroke-opacity:1"
       id="path154" /><g
       id="g164"
       transform="matrix(0.57533426,0,0,0.57533426,8.9256114,141.99715)"><g
         id="g166"
         clip-path="url(#clipPath170)"><path
           d="M 57.6,38.016 H 414.72"
           style="fill:none;stroke:#b0b0b0;stroke-width:0.8;stroke-linecap:square;stroke-linejoin:round;stroke-miterlimit:10;stroke-dasharray:none;stroke-opacity:1"
           id="path172" /></g></g><path
       d="m 42.064865,163.86906 h -2.01367"
       style="fill:#000000;fill-opacity:1;fill-rule:nonzero;stroke:#000000;stroke-width:0.460268;stroke-linecap:butt;stroke-linejoin:round;stroke-miterlimit:10;stroke-dasharray:none;stroke-opacity:1"
       id="path176" /><g
       id="g182"
       transform="matrix(0.57533426,0,0,0.57533426,8.9256114,141.99715)"><g
         id="g184"
         clip-path="url(#clipPath188)"><path
           d="M 57.6,91.2384 H 414.72"
           style="fill:none;stroke:#b0b0b0;stroke-width:0.8;stroke-linecap:square;stroke-linejoin:round;stroke-miterlimit:10;stroke-dasharray:none;stroke-opacity:1"
           id="path190" /></g></g><path
       d="m 42.064865,194.48973 h -2.01367"
       style="fill:#000000;fill-opacity:1;fill-rule:nonzero;stroke:#000000;stroke-width:0.460268;stroke-linecap:butt;stroke-linejoin:round;stroke-miterlimit:10;stroke-dasharray:none;stroke-opacity:1"
       id="path194" /><g
       id="g200"
       transform="matrix(0.57533426,0,0,0.57533426,8.9256114,141.99715)"><g
         id="g202"
         clip-path="url(#clipPath206)"><path
           d="M 57.6,144.4608 H 414.72"
           style="fill:none;stroke:#b0b0b0;stroke-width:0.8;stroke-linecap:square;stroke-linejoin:round;stroke-miterlimit:10;stroke-dasharray:none;stroke-opacity:1"
           id="path208" /></g></g><path
       d="m 42.064865,225.1104 h -2.01367"
       style="fill:#000000;fill-opacity:1;fill-rule:nonzero;stroke:#000000;stroke-width:0.460268;stroke-linecap:butt;stroke-linejoin:round;stroke-miterlimit:10;stroke-dasharray:none;stroke-opacity:1"
       id="path212" /><g
       id="g218"
       transform="matrix(0.57533426,0,0,0.57533426,8.9256114,141.99715)"><g
         id="g220"
         clip-path="url(#clipPath224)"><path
           d="M 57.6,197.6832 H 414.72"
           style="fill:none;stroke:#b0b0b0;stroke-width:0.8;stroke-linecap:square;stroke-linejoin:round;stroke-miterlimit:10;stroke-dasharray:none;stroke-opacity:1"
           id="path226" /></g></g><path
       d="m 42.064865,255.73107 h -2.01367"
       style="fill:#000000;fill-opacity:1;fill-rule:nonzero;stroke:#000000;stroke-width:0.460268;stroke-linecap:butt;stroke-linejoin:round;stroke-miterlimit:10;stroke-dasharray:none;stroke-opacity:1"
       id="path230" /><g
       id="g236"
       transform="matrix(0.57533426,0,0,0.57533426,8.9256114,141.99715)"><g
         id="g238"
         clip-path="url(#clipPath242)"><path
           d="M 57.6,250.9056 H 414.72"
           style="fill:none;stroke:#b0b0b0;stroke-width:0.8;stroke-linecap:square;stroke-linejoin:round;stroke-miterlimit:10;stroke-dasharray:none;stroke-opacity:1"
           id="path244" /></g></g><path
       d="m 42.064865,286.35174 h -2.01367"
       style="fill:#000000;fill-opacity:1;fill-rule:nonzero;stroke:#000000;stroke-width:0.460268;stroke-linecap:butt;stroke-linejoin:round;stroke-miterlimit:10;stroke-dasharray:none;stroke-opacity:1"
       id="path248" /><g
       id="g254"
       transform="matrix(0.57533426,0,0,0.57533426,8.9256114,141.99715)"><g
         id="g256"
         clip-path="url(#clipPath260)"><path
           d="M 57.6,304.128 H 414.72"
           style="fill:none;stroke:#b0b0b0;stroke-width:0.8;stroke-linecap:square;stroke-linejoin:round;stroke-miterlimit:10;stroke-dasharray:none;stroke-opacity:1"
           id="path262" /></g></g><path
       d="m 42.064865,316.97241 h -2.01367"
       style="fill:#000000;fill-opacity:1;fill-rule:nonzero;stroke:#000000;stroke-width:0.460268;stroke-linecap:butt;stroke-linejoin:round;stroke-miterlimit:10;stroke-dasharray:none;stroke-opacity:1"
       id="path266" /><g
       id="g278"
       clip-path="url(#clipPath282)"
       transform="matrix(0.57533426,0,0,0.57533426,8.9256114,141.99715)"><path
         d="m 57.6,223.55358 5.668571,5.66233 5.668572,-5.87095 5.668571,-4.53495 5.668572,-6.80039 5.668571,-5.40571 5.668572,-4.18752 5.668571,0.27028 5.66857,-1.88604 5.66857,0.3423 5.66857,-3.9861 5.66858,-1.71505 5.66857,-3.42705 5.66857,-1.07609 5.66857,-0.0284 5.66857,0.6294 5.66857,-1.97313 5.66857,-0.44258 5.66858,-3.03994 5.66857,-1.33915 5.66857,-3.28886 5.66857,-1.00562 5.66857,-3.15728 5.66857,0.113 5.66857,-1.48001 5.66858,-2.37913 5.66857,0.0528 5.66857,-1.50579 5.66857,-2.89919 5.66857,-0.61462 5.66857,-3.32743 5.66857,0.26074 5.66858,-0.41392 5.66857,-0.80614 5.66857,-0.85671 5.66857,-2.99439 5.66857,-1.53012 5.66857,0.92253 5.66857,-1.64472 5.66858,-1.9249 5.66857,-1.50792 5.66857,0.21047 5.66857,0.37525 5.66857,-4.4693 5.66857,-0.031 5.66857,0.0274 5.66858,-0.74321 5.66857,-1.37845 5.66857,-4.39378 5.66857,0.88906 5.66857,-2.61797 5.66857,-0.67587 5.66857,-2.27477 5.66858,-3.95428 5.66857,-4.90902 5.66857,-14.05618 5.66857,-12.85824 5.66857,-15.870204 5.66857,-41.015765 5.66857,-44.451395 5.66858,-0.265316 5.66857,0.747569 5.66857,0.704624 5.66857,-3.20669"
         style="fill:none;stroke:#1f77b4;stroke-width:1.5;stroke-linecap:square;stroke-linejoin:round;stroke-miterlimit:10;stroke-dasharray:none;stroke-opacity:1"
         id="path284" /></g><g
       id="g288"
       clip-path="url(#clipPath292)"
       transform="matrix(0.57533426,0,0,0.57533426,8.9256114,141.99715)"><path
         d="m 57.6,222.73484 5.668571,4.96873 5.668572,-4.54365 5.668571,-3.58705 5.668572,-5.24731 5.668571,-3.43439 5.668572,-2.83041 5.668571,0.5528 5.66857,-0.40131 5.66857,-0.051 5.66857,-3.89653 5.66858,-2.97228 5.66857,-3.54495 5.66857,-2.56571 5.66857,-0.27537 5.66857,0.62711 5.66857,-0.53521 5.66857,-1.39239 5.66858,-3.04565 5.66857,-1.74134 5.66857,-2.05 5.66857,-1.37173 5.66857,-2.16544 5.66857,-0.0134 5.66857,-0.94119 5.66858,-2.19852 5.66857,-0.0562 5.66857,-1.58954 5.66857,-2.72569 5.66857,-1.00873 5.66857,-2.91901 5.66857,-0.0422 5.66858,-1.04211 5.66857,0.31465 5.66857,-0.56897 5.66857,-2.75533 5.66857,-0.40829 5.66857,0.34948 5.66857,-1.78673 5.66858,-3.03014 5.66857,-1.16278 5.66857,-1.65056 5.66857,1.3653 5.66857,-4.17732 5.66857,0.007 5.66857,-0.21846 5.66858,-0.79923 5.66857,-0.75653 5.66857,-3.48291 5.66857,0.60152 5.66857,-0.73754 5.66857,-0.30091 5.66857,-0.10202 5.66858,0.45371 5.66857,2.08727 5.66857,-2.76229 5.66857,-1.32652 5.66857,-5.07696 5.66857,-14.33543 5.66857,-118.953204 5.66858,-5.643068 5.66857,3.70722 5.66857,2.083479 L 414.72,9.50807"
         style="fill:none;stroke:#ff7f0e;stroke-width:1.5;stroke-linecap:square;stroke-linejoin:round;stroke-miterlimit:10;stroke-dasharray:none;stroke-opacity:1"
         id="path294" /></g><g
       id="g298"
       clip-path="url(#clipPath302)"
       transform="matrix(0.57533426,0,0,0.57533426,8.9256114,141.99715)"><path
         d="m 57.6,223.00007 5.668571,4.41398 5.668572,-4.06792 5.668571,-3.15417 5.668572,-4.64779 5.668571,-3.22962 5.668572,-3.14027 5.668571,0.0752 5.66857,-0.99695 5.66857,0.15575 5.66857,-3.19369 5.66858,-2.49615 5.66857,-3.41764 5.66857,-2.68361 5.66857,-0.27464 5.66857,0.0238 5.66857,-0.52679 5.66857,-1.51227 5.66858,-3.05317 5.66857,-1.53054 5.66857,-1.74194 5.66857,-1.41401 5.66857,-2.31252 5.66857,-0.19107 5.66857,-0.56434 5.66858,-2.16563 5.66857,0.67168 5.66857,-1.79608 5.66857,-2.70181 5.66857,-0.18566 5.66857,-2.87265 5.66857,-0.12803 5.66858,-1.31332 5.66857,0.55829 5.66857,0.17657 5.66857,-3.28037 5.66857,-0.41556 5.66857,-0.34129 5.66857,-2.21758 5.66858,-2.40149 5.66857,-1.01037 5.66857,-1.60195 5.66857,0.0711 5.66857,-4.54584 5.66857,0.25665 5.66857,0.40197 5.66858,-0.0707 5.66857,-0.65764 5.66857,-3.59102 5.66857,0.39334 5.66857,-0.84898 5.66857,-1.17372 5.66857,0.68675 5.66858,0.18038 5.66857,0.98015 5.66857,-2.47809 5.66857,-0.80661 5.66857,-0.68257 5.66857,-8.57452 5.66857,-101.499632 5.66858,-37.4456 5.66857,4.259026 5.66857,3.832323 5.66857,-0.907429"
         style="fill:none;stroke:#2ca02c;stroke-width:1.5;stroke-linecap:square;stroke-linejoin:round;stroke-miterlimit:10;stroke-dasharray:none;stroke-opacity:1"
         id="path304" /></g><g
       id="g308"
       clip-path="url(#clipPath312)"
       transform="matrix(0.57533426,0,0,0.57533426,8.9256114,141.99715)"
       style="stroke:#8c564b;stroke-opacity:1"><path
         d="m 57.6,221.9632 5.668571,4.04951 5.668572,-4.03511 5.668571,-2.93719 5.668572,-4.27693 5.668571,-2.8794 5.668572,-3.02688 5.668571,0.10134 5.66857,-0.67674 5.66857,0.54651 5.66857,-2.5586 5.66858,-2.53044 5.66857,-3.30306 5.66857,-2.82771 5.66857,-0.6902 5.66857,-0.39931 5.66857,-0.64741 5.66857,-1.99471 5.66858,-2.94523 5.66857,-1.4177 5.66857,-1.64893 5.66857,-1.4643 5.66857,-2.53992 5.66857,-0.57708 5.66857,-0.34939 5.66858,-2.3139 5.66857,0.76707 5.66857,-2.1125 5.66857,-3.00229 5.66857,-0.45743 5.66857,-2.84609 5.66857,0.0667 5.66858,-1.27528 5.66857,0.87587 5.66857,-0.0371 5.66857,-3.6505 5.66857,-0.15137 5.66857,-0.54528 5.66857,-1.97115 5.66858,-2.21855 5.66857,-1.85019 5.66857,-1.83317 5.66857,0.31854 5.66857,-5.53233 5.66857,0.82 5.66857,0.91311 5.66858,-0.66608 5.66857,-0.0612 5.66857,-4.14382 5.66857,0.85426 5.66857,-0.70068 5.66857,-0.54692 5.66857,0.76283 5.66858,-0.15742 5.66857,2.87587 5.66857,-2.7978 5.66857,-0.13076 5.66857,0.12422 5.66857,-3.91052 5.66857,-37.45761 5.66858,-105.756818 5.66857,2.094874 5.66857,4.955237 5.66857,0.183904"
         style="fill:none;stroke:#8c564b;stroke-width:1.5;stroke-linecap:square;stroke-linejoin:round;stroke-miterlimit:10;stroke-dasharray:none;stroke-opacity:1"
         id="path314" /></g><g
       id="g318"
       clip-path="url(#clipPath322)"
       transform="matrix(0.57533426,0,0,0.57533426,8.9256114,141.99715)"><path
         d="m 57.6,222.25037 5.668571,3.8422 5.668572,-3.61119 5.668571,-2.69053 5.668572,-4.07131 5.668571,-2.84437 5.668572,-3.27746 5.668571,-0.38714 5.66857,-0.53345 5.66857,0.82959 5.66857,-2.62713 5.66858,-2.46781 5.66857,-3.27164 5.66857,-2.55326 5.66857,-0.33338 5.66857,-0.60261 5.66857,-0.88682 5.66857,-2.20836 5.66858,-3.18098 5.66857,-1.29711 5.66857,-1.81597 5.66857,-1.12712 5.66857,-2.69279 5.66857,-0.34288 5.66857,-0.56844 5.66858,-2.27718 5.66857,0.74412 5.66857,-2.15495 5.66857,-2.86429 5.66857,-0.30433 5.66857,-2.49226 5.66857,-0.32215 5.66858,-1.35936 5.66857,0.87335 5.66857,-0.0887 5.66857,-3.64048 5.66857,-0.24726 5.66857,-0.57757 5.66857,-2.42751 5.66858,-2.64569 5.66857,-1.46597 5.66857,-2.03836 5.66857,0.11252 5.66857,-4.65935 5.66857,1.04955 5.66857,0.51809 5.66858,-0.0556 5.66857,-0.25925 5.66857,-4.35041 5.66857,0.11135 5.66857,-0.68458 5.66857,-0.92736 5.66857,1.41126 5.66858,-0.33069 5.66857,2.67792 5.66857,-2.41266 5.66857,0.46127 5.66857,-0.63324 5.66857,-2.62135 5.66857,-9.80485 5.66858,-87.554751 5.66857,-42.997228 5.66857,4.796624 5.66857,1.120879"
         style="fill:none;stroke:#9467bd;stroke-width:1.5;stroke-linecap:square;stroke-linejoin:round;stroke-miterlimit:10;stroke-dasharray:none;stroke-opacity:1"
         id="path324" /></g><path
       d="M 42.064865,163.86906 V 316.97241"
       style="fill:none;stroke:#000000;stroke-width:0.460268;stroke-linecap:square;stroke-linejoin:miter;stroke-miterlimit:10;stroke-dasharray:none;stroke-opacity:1"
       id="path338" /><path
       d="M 247.52824,163.86906 V 316.97241"
       style="fill:none;stroke:#000000;stroke-width:0.460268;stroke-linecap:square;stroke-linejoin:miter;stroke-miterlimit:10;stroke-dasharray:none;stroke-opacity:1"
       id="path340" /><path
       d="M 42.064865,163.86906 H 247.52824"
       style="fill:none;stroke:#000000;stroke-width:0.460268;stroke-linecap:square;stroke-linejoin:miter;stroke-miterlimit:10;stroke-dasharray:none;stroke-opacity:1"
       id="path342" /><path
       d="M 42.064865,316.97241 H 247.52824"
       style="fill:none;stroke:#000000;stroke-width:0.460268;stroke-linecap:square;stroke-linejoin:miter;stroke-miterlimit:10;stroke-dasharray:none;stroke-opacity:1"
       id="path344" /><path
       d="M 80.44035,215.50944 H 91.94704"
       style="fill:none;stroke:#1f77b4;stroke-width:0.863001;stroke-linecap:square;stroke-linejoin:round;stroke-miterlimit:10;stroke-dasharray:none;stroke-opacity:1"
       id="path354" /><path
       d="M 80.44035,207.06821 H 91.94704"
       style="fill:none;stroke:#ff7f0e;stroke-width:0.863001;stroke-linecap:square;stroke-linejoin:round;stroke-miterlimit:10;stroke-dasharray:none;stroke-opacity:1"
       id="path360" /><path
       d="M 80.44035,198.62698 H 91.94704"
       style="fill:none;stroke:#2ca02c;stroke-width:0.863001;stroke-linecap:square;stroke-linejoin:round;stroke-miterlimit:10;stroke-dasharray:none;stroke-opacity:1"
       id="path366" /><path
       d="M 80.44035,190.18574 H 91.94704"
       style="fill:none;stroke:#8c564b;stroke-width:0.863001;stroke-linecap:square;stroke-linejoin:round;stroke-miterlimit:10;stroke-dasharray:none;stroke-opacity:1"
       id="path372" /><path
       d="M 80.44035,181.74452 H 91.94704"
       style="fill:none;stroke:#9467bd;stroke-width:0.863001;stroke-linecap:square;stroke-linejoin:round;stroke-miterlimit:10;stroke-dasharray:none;stroke-opacity:1"
       id="path378" /><path
       d="M 80.44035,173.30328 H 91.94704"
       style="fill:none;stroke:#d62728;stroke-width:0.863001;stroke-linecap:square;stroke-linejoin:round;stroke-miterlimit:10;stroke-dasharray:none;stroke-opacity:1"
       id="path384" /></g><g
     inkscape:groupmode="layer"
     id="layer1"
     inkscape:label="text"
     style="display:inline"><text
       style="font-variant:normal;font-weight:normal;font-size:7.67113px;font-family:'DejaVu Sans';-inkscape-font-specification:DejaVuSans;writing-mode:lr-tb;fill:#000000;fill-opacity:1;fill-rule:nonzero;stroke:none;stroke-width:0.767113"
       id="text32"
       x="25.961586"
       y="236.29655"><tspan
         x="25.961586 30.84042 33.279839"
         y="236.29655"
         sodipodi:role="line"
         id="tspan30"
         style="stroke-width:0.767113">0.0</tspan></text><text
       transform="matrix(1.3333333,0,0,1.3333333,-28.023958,443.59357)"
       style="font-variant:normal;font-weight:normal;font-size:5.75335px;font-family:'DejaVu Sans';-inkscape-font-specification:DejaVuSans;writing-mode:lr-tb;fill:#000000;fill-opacity:1;fill-rule:nonzero;stroke:none;stroke-width:0.575335"
       id="text50"
       x="63.579746"
       y="-155.47276"><tspan
         x="63.579746 67.238876 69.068436"
         y="-155.47276"
         sodipodi:role="line"
         id="tspan48"
         style="stroke-width:0.575335">0.2</tspan></text><text
       transform="matrix(1.3333333,0,0,1.3333333,-28.023958,443.59357)"
       style="font-variant:normal;font-weight:normal;font-size:5.75335px;font-family:'DejaVu Sans';-inkscape-font-specification:DejaVuSans;writing-mode:lr-tb;fill:#000000;fill-opacity:1;fill-rule:nonzero;stroke:none;stroke-width:0.575335"
       id="text68"
       x="89.670341"
       y="-155.47276"><tspan
         x="89.670341 93.32946 95.159027"
         y="-155.47276"
         sodipodi:role="line"
         id="tspan66"
         style="stroke-width:0.575335">0.4</tspan></text><text
       transform="matrix(1.3333333,0,0,1.3333333,-28.023958,443.59357)"
       style="font-variant:normal;font-weight:normal;font-size:5.75335px;font-family:'DejaVu Sans';-inkscape-font-specification:DejaVuSans;writing-mode:lr-tb;fill:#000000;fill-opacity:1;fill-rule:nonzero;stroke:none;stroke-width:0.575335"
       id="text86"
       x="115.76093"
       y="-155.47276"><tspan
         x="115.76093 119.42005 121.24961"
         y="-155.47276"
         sodipodi:role="line"
         id="tspan84"
         style="stroke-width:0.575335">0.6</tspan></text><text
       transform="matrix(1.3333333,0,0,1.3333333,-28.023958,443.59357)"
       style="font-variant:normal;font-weight:normal;font-size:5.75335px;font-family:'DejaVu Sans';-inkscape-font-specification:DejaVuSans;writing-mode:lr-tb;fill:#000000;fill-opacity:1;fill-rule:nonzero;stroke:none;stroke-width:0.575335"
       id="text104"
       x="141.8515"
       y="-155.47276"><tspan
         x="141.8515 145.51062 147.34019"
         y="-155.47276"
         sodipodi:role="line"
         id="tspan102"
         style="stroke-width:0.575335">0.8</tspan></text><text
       transform="matrix(1.3333333,0,0,1.3333333,-28.023958,443.59357)"
       style="font-variant:normal;font-weight:normal;font-size:5.75335px;font-family:'DejaVu Sans';-inkscape-font-specification:DejaVuSans;writing-mode:lr-tb;fill:#000000;fill-opacity:1;fill-rule:nonzero;stroke:none;stroke-width:0.575335"
       id="text122"
       x="167.94211"
       y="-155.47276"><tspan
         x="167.94211 171.60121 173.43077"
         y="-155.47276"
         sodipodi:role="line"
         id="tspan120"
         style="stroke-width:0.575335">1.0</tspan></text><text
       transform="matrix(1.3333333,0,0,1.3333333,-28.023958,443.59357)"
       style="font-variant:normal;font-weight:normal;font-size:5.75335px;font-family:'DejaVu Sans';-inkscape-font-specification:DejaVuSans;writing-mode:lr-tb;fill:#000000;fill-opacity:1;fill-rule:nonzero;stroke:none;stroke-width:0.575335"
       id="text140"
       x="194.03268"
       y="-155.47276"><tspan
         x="194.03268 197.6918 199.52136"
         y="-155.47276"
         sodipodi:role="line"
         id="tspan138"
         style="stroke-width:0.575335">1.2</tspan></text><text
       transform="matrix(1.3333333,0,0,1.3333333,-28.023958,443.59357)"
       style="font-variant:normal;font-weight:normal;font-size:5.75335px;font-family:'DejaVu Sans';-inkscape-font-specification:DejaVuSans;writing-mode:lr-tb;fill:#000000;fill-opacity:1;fill-rule:nonzero;stroke:none;stroke-width:0.575335"
       id="text158"
       x="220.12328"
       y="-155.47276"><tspan
         x="220.12328 223.78238 225.61195"
         y="-155.47276"
         sodipodi:role="line"
         id="tspan156"
         style="stroke-width:0.575335">1.4</tspan></text><text
       transform="matrix(1.3333333,0,0,1.3333333,-28.023958,443.59357)"
       style="font-variant:normal;font-weight:normal;font-size:5.75335px;font-family:'DejaVu Sans';-inkscape-font-specification:DejaVuSans;writing-mode:lr-tb;fill:#000000;fill-opacity:1;fill-rule:nonzero;stroke:none;stroke-width:0.575335"
       id="text162"
       x="109.97534"
       y="-147.60687"><tspan
         x="109.97534 114.43419 117.97249 121.62011 125.14116 130.7449 132.34433 135.50868 137.33824 140.99161 142.59103 145.58855 147.84384 151.37065 155.01826 158.1826 161.7209 163.55046 165.48935 167.31889 172.28404 175.93742"
         y="-147.60687"
         sodipodi:role="line"
         id="tspan160"
         style="stroke-width:0.575335">Genomic distance / Mbp</tspan></text><text
       transform="matrix(1.3333333,0,0,1.3333333,-28.023958,443.59357)"
       style="font-variant:normal;font-weight:normal;font-size:5.75335px;font-family:'DejaVu Sans';-inkscape-font-specification:DejaVuSans;writing-mode:lr-tb;fill:#000000;fill-opacity:1;fill-rule:nonzero;stroke:none;stroke-width:0.575335"
       id="text180"
       x="28.886114"
       y="-161.68457"><tspan
         x="28.886114 32.545242 34.374805"
         y="-161.68457"
         sodipodi:role="line"
         id="tspan178"
         style="stroke-width:0.575335">0.0</tspan></text><text
       transform="matrix(1.3333333,0,0,1.3333333,-28.023958,443.59357)"
       style="font-variant:normal;font-weight:normal;font-size:5.75335px;font-family:'DejaVu Sans';-inkscape-font-specification:DejaVuSans;writing-mode:lr-tb;fill:#000000;fill-opacity:1;fill-rule:nonzero;stroke:none;stroke-width:0.575335"
       id="text198"
       x="28.886114"
       y="-192.30525"><tspan
         x="28.886114 32.545242 34.374805"
         y="-192.30525"
         sodipodi:role="line"
         id="tspan196"
         style="stroke-width:0.575335">0.2</tspan></text><text
       transform="matrix(1.3333333,0,0,1.3333333,-28.023958,443.59357)"
       style="font-variant:normal;font-weight:normal;font-size:5.75335px;font-family:'DejaVu Sans';-inkscape-font-specification:DejaVuSans;writing-mode:lr-tb;fill:#000000;fill-opacity:1;fill-rule:nonzero;stroke:none;stroke-width:0.575335"
       id="text216"
       x="28.886114"
       y="-222.92592"><tspan
         x="28.886114 32.545242 34.374805"
         y="-222.92592"
         sodipodi:role="line"
         id="tspan214"
         style="stroke-width:0.575335">0.4</tspan></text><text
       transform="matrix(1.3333333,0,0,1.3333333,-28.023958,443.59357)"
       style="font-variant:normal;font-weight:normal;font-size:5.75335px;font-family:'DejaVu Sans';-inkscape-font-specification:DejaVuSans;writing-mode:lr-tb;fill:#000000;fill-opacity:1;fill-rule:nonzero;stroke:none;stroke-width:0.575335"
       id="text234"
       x="28.886114"
       y="-253.54659"><tspan
         x="28.886114 32.545242 34.374805"
         y="-253.54659"
         sodipodi:role="line"
         id="tspan232"
         style="stroke-width:0.575335">0.6</tspan></text><text
       transform="matrix(1.3333333,0,0,1.3333333,-28.023958,443.59357)"
       style="font-variant:normal;font-weight:normal;font-size:5.75335px;font-family:'DejaVu Sans';-inkscape-font-specification:DejaVuSans;writing-mode:lr-tb;fill:#000000;fill-opacity:1;fill-rule:nonzero;stroke:none;stroke-width:0.575335"
       id="text252"
       x="28.886114"
       y="-284.16727"><tspan
         x="28.886114 32.545242 34.374805"
         y="-284.16727"
         sodipodi:role="line"
         id="tspan250"
         style="stroke-width:0.575335">0.8</tspan></text><text
       transform="matrix(1.3333333,0,0,1.3333333,-28.023958,443.59357)"
       style="font-variant:normal;font-weight:normal;font-size:5.75335px;font-family:'DejaVu Sans';-inkscape-font-specification:DejaVuSans;writing-mode:lr-tb;fill:#000000;fill-opacity:1;fill-rule:nonzero;stroke:none;stroke-width:0.575335"
       id="text270"
       x="28.886114"
       y="-314.78793"><tspan
         x="28.886114 32.545242 34.374805"
         y="-314.78793"
         sodipodi:role="line"
         id="tspan268"
         style="stroke-width:0.575335">1.0</tspan></text><text
       transform="matrix(0,-1.3333333,1.3333333,0,-28.023958,443.59357)"
       style="font-variant:normal;font-weight:normal;font-size:5.75335px;font-family:'DejaVu Sans';-inkscape-font-specification:DejaVuSans;writing-mode:lr-tb;fill:#000000;fill-opacity:1;fill-rule:nonzero;stroke:none;stroke-width:0.575335"
       id="text274"
       x="212.62488"
       y="25.38916"><tspan
         x="212.62488 216.09415 219.63246 223.15926 225.52388 228.52136 232.04243 235.69003 237.51959 240.68393 244.20499 246.56961 248.93423 252.47253 254.07196 257.59875 259.85406 261.45352 264.97455"
         y="25.38916"
         sodipodi:role="line"
         id="tspan272"
         style="stroke-width:0.575335">Pearson correlation</tspan></text><text
       transform="matrix(1.3333333,0,0,1.3333333,-28.023958,443.59357)"
       style="font-variant:normal;font-weight:normal;font-size:6.90402px;font-family:'DejaVu Sans';-inkscape-font-specification:DejaVuSans;writing-mode:lr-tb;fill:#000000;fill-opacity:1;fill-rule:nonzero;stroke:none;stroke-width:0.575335"
       id="text348"
       x="73.747261"
       y="-328.16266"><tspan
         x="73.747261 77.910385 82.156349 86.388512 89.226051 92.823044 97.048302 101.42545 103.62092 107.41811 111.64338 114.48093 117.31847 121.56445 123.48376 127.71592 130.42229 132.34161 136.56688 140.944 143.13948 147.22667 150.82365 153.01913 155.2146 159.59865 163.84462 168.22174 172.44702 179.17151 181.09082 184.88803 187.08351 191.46756 193.38687 196.98386 199.69023 203.92239 208.29953 212.09674"
         y="-328.16266"
         sodipodi:role="line"
         id="tspan346"
         style="stroke-width:0.575335">Pearson correlation vs. genomic distance</tspan></text><text
       transform="matrix(1.3333333,0,0,1.3333333,-28.023958,443.59357)"
       style="font-variant:normal;font-weight:normal;font-size:6.90402px;font-family:'DejaVu Sans';-inkscape-font-specification:DejaVuSans;writing-mode:lr-tb;fill:#000000;fill-opacity:1;fill-rule:nonzero;stroke:none;stroke-width:0.575335"
       id="text352"
       x="102.91603"
       y="-320.42441"><tspan
         x="102.91603 108.26664 114.22479 118.61574 123.00669 127.39765 131.78859 136.17955 138.37503 140.57051 144.96146 149.3524 151.54788 155.77313 160.15027 162.34576 166.87477 171.26573 175.65669 180.04762 182.24312 184.43858"
         y="-320.42441"
         sodipodi:role="line"
         id="tspan350"
         style="stroke-width:0.575335">GM12878, 14 on K562, 3</tspan></text><text
       style="font-variant:normal;font-weight:normal;font-size:7.67113px;font-family:'DejaVu Sans';-inkscape-font-specification:DejaVuSans;writing-mode:lr-tb;fill:#000000;fill-opacity:1;fill-rule:nonzero;stroke:none;stroke-width:0.767113"
       id="text358"
       x="100.70901"
       y="158.93262"><tspan
         x="100.70901 105.58783 110.46666 112.9061 117.62381 122.49498 124.93439 127.51956 129.95898 135.20604 140.8213 146.17572 148.76088 151.20032 156.07916 158.51857 163.39742 168.27625"
         y="158.93262"
         sodipodi:role="line"
         id="tspan356"
         style="stroke-width:0.767113">20 ep / AUC: 0.445</tspan></text><text
       style="font-variant:normal;font-weight:normal;font-size:7.67113px;font-family:'DejaVu Sans';-inkscape-font-specification:DejaVuSans;writing-mode:lr-tb;fill:#000000;fill-opacity:1;fill-rule:nonzero;stroke:none;stroke-width:0.767113"
       id="text364"
       x="100.70901"
       y="170.18758"><tspan
         x="100.70901 105.58783 110.46666 112.9061 117.62381 122.49498 124.93439 127.51956 129.95898 135.20604 140.8213 146.17572 148.76088 151.20032 156.07916 158.51857 163.39742 168.27625"
         y="170.18758"
         sodipodi:role="line"
         id="tspan362"
         style="stroke-width:0.767113">40 ep / AUC: 0.480</tspan></text><text
       style="font-variant:normal;font-weight:normal;font-size:7.67113px;font-family:'DejaVu Sans';-inkscape-font-specification:DejaVuSans;writing-mode:lr-tb;fill:#000000;fill-opacity:1;fill-rule:nonzero;stroke:none;stroke-width:0.767113"
       id="text370"
       x="100.70901"
       y="181.44258"><tspan
         x="100.70901 105.58783 110.46666 112.9061 117.62381 122.49498 124.93439 127.51956 129.95898 135.20604 140.8213 146.17572 148.76088 151.20032 156.07916 158.51857 163.39742 168.27625"
         y="181.44258"
         sodipodi:role="line"
         id="tspan368"
         style="stroke-width:0.767113">60 ep / AUC: 0.488</tspan></text><text
       style="font-variant:normal;font-weight:normal;font-size:7.67113px;font-family:'DejaVu Sans';-inkscape-font-specification:DejaVuSans;writing-mode:lr-tb;fill:#000000;fill-opacity:1;fill-rule:nonzero;stroke:none;stroke-width:0.767113"
       id="text376"
       x="100.70901"
       y="192.69754"><tspan
         x="100.70901 105.58783 110.46666 112.9061 117.62381 122.49498 124.93439 127.51956 129.95898 135.20604 140.8213 146.17572 148.76088 151.20032 156.07916 158.51857 163.39742 168.27625"
         y="192.69754"
         sodipodi:role="line"
         id="tspan374"
         style="stroke-width:0.767113">80 ep / AUC: 0.490</tspan></text><text
       style="font-variant:normal;font-weight:normal;font-size:7.67113px;font-family:'DejaVu Sans';-inkscape-font-specification:DejaVuSans;writing-mode:lr-tb;fill:#000000;fill-opacity:1;fill-rule:nonzero;stroke:none;stroke-width:0.767113"
       id="text382"
       x="100.70901"
       y="203.95251"><tspan
         x="100.70901 105.58783 110.46666 115.3455 117.7849 122.50267 127.37381 129.81323 132.39841 134.83783 140.08485 145.70012 151.05458 153.63972 156.07916 160.95801 163.39742 168.27625 173.15509"
         y="203.95251"
         sodipodi:role="line"
         id="tspan380"
         style="stroke-width:0.767113">100 ep / AUC: 0.497</tspan></text><text
       style="font-variant:normal;font-weight:normal;font-size:7.67113px;font-family:'DejaVu Sans';-inkscape-font-specification:DejaVuSans;writing-mode:lr-tb;fill:#000000;fill-opacity:1;fill-rule:nonzero;stroke:none;stroke-width:0.767113"
       id="text388"
       x="100.70901"
       y="215.20747"><tspan
         x="100.70901 103.71606 106.86893 111.57129 116.4348 120.43146 123.13168 127.84946 131.00224 133.44168 139.38678 146.00696 150.88582 155.76463 160.64348 165.52232 170.40114 172.84056 175.42572 177.86513 183.1122 188.72746 194.08191 196.66707 199.10649 203.98532 206.42474 211.30356 216.1824"
         y="215.20747"
         sodipodi:role="line"
         id="tspan386"
         style="stroke-width:0.767113">transfer GM12878 / AUC: 0.671</tspan></text></g></svg>
