<?xml version="1.0" encoding="UTF-8" standalone="no"?>
<svg
   xmlns:dc="http://purl.org/dc/elements/1.1/"
   xmlns:cc="http://creativecommons.org/ns#"
   xmlns:rdf="http://www.w3.org/1999/02/22-rdf-syntax-ns#"
   xmlns:svg="http://www.w3.org/2000/svg"
   xmlns="http://www.w3.org/2000/svg"
   xmlns:sodipodi="http://sodipodi.sourceforge.net/DTD/sodipodi-0.dtd"
   xmlns:inkscape="http://www.inkscape.org/namespaces/inkscape"
   version="1.1"
   id="svg2"
   xml:space="preserve"
   width="80mm"
   height="65.300003mm"
   viewBox="0 0 302.36219 246.80316"
   sodipodi:docname="pearson_chr05.svg"
   inkscape:version="1.0.2 (1.0.2+r75+1)"><metadata
     id="metadata8"><rdf:RDF><cc:Work
         rdf:about=""><dc:format>image/svg+xml</dc:format><dc:type
           rdf:resource="http://purl.org/dc/dcmitype/StillImage" /><dc:title /></cc:Work></rdf:RDF></metadata><defs
     id="defs6"><clipPath
       clipPathUnits="userSpaceOnUse"
       id="clipPath22"><path
         d="M 57.6,38.016 H 414.72 V 304.128 H 57.6 Z"
         id="path20" /></clipPath><clipPath
       clipPathUnits="userSpaceOnUse"
       id="clipPath40"><path
         d="M 57.6,38.016 H 414.72 V 304.128 H 57.6 Z"
         id="path38" /></clipPath><clipPath
       clipPathUnits="userSpaceOnUse"
       id="clipPath58"><path
         d="M 57.6,38.016 H 414.72 V 304.128 H 57.6 Z"
         id="path56" /></clipPath><clipPath
       clipPathUnits="userSpaceOnUse"
       id="clipPath76"><path
         d="M 57.6,38.016 H 414.72 V 304.128 H 57.6 Z"
         id="path74" /></clipPath><clipPath
       clipPathUnits="userSpaceOnUse"
       id="clipPath94"><path
         d="M 57.6,38.016 H 414.72 V 304.128 H 57.6 Z"
         id="path92" /></clipPath><clipPath
       clipPathUnits="userSpaceOnUse"
       id="clipPath112"><path
         d="M 57.6,38.016 H 414.72 V 304.128 H 57.6 Z"
         id="path110" /></clipPath><clipPath
       clipPathUnits="userSpaceOnUse"
       id="clipPath130"><path
         d="M 57.6,38.016 H 414.72 V 304.128 H 57.6 Z"
         id="path128" /></clipPath><clipPath
       clipPathUnits="userSpaceOnUse"
       id="clipPath148"><path
         d="M 57.6,38.016 H 414.72 V 304.128 H 57.6 Z"
         id="path146" /></clipPath><clipPath
       clipPathUnits="userSpaceOnUse"
       id="clipPath170"><path
         d="M 57.6,38.016 H 414.72 V 304.128 H 57.6 Z"
         id="path168" /></clipPath><clipPath
       clipPathUnits="userSpaceOnUse"
       id="clipPath188"><path
         d="M 57.6,38.016 H 414.72 V 304.128 H 57.6 Z"
         id="path186" /></clipPath><clipPath
       clipPathUnits="userSpaceOnUse"
       id="clipPath206"><path
         d="M 57.6,38.016 H 414.72 V 304.128 H 57.6 Z"
         id="path204" /></clipPath><clipPath
       clipPathUnits="userSpaceOnUse"
       id="clipPath224"><path
         d="M 57.6,38.016 H 414.72 V 304.128 H 57.6 Z"
         id="path222" /></clipPath><clipPath
       clipPathUnits="userSpaceOnUse"
       id="clipPath242"><path
         d="M 57.6,38.016 H 414.72 V 304.128 H 57.6 Z"
         id="path240" /></clipPath><clipPath
       clipPathUnits="userSpaceOnUse"
       id="clipPath260"><path
         d="M 57.6,38.016 H 414.72 V 304.128 H 57.6 Z"
         id="path258" /></clipPath><clipPath
       clipPathUnits="userSpaceOnUse"
       id="clipPath282"><path
         d="M 57.6,38.016 H 414.72 V 304.128 H 57.6 Z"
         id="path280" /></clipPath><clipPath
       clipPathUnits="userSpaceOnUse"
       id="clipPath292"><path
         d="M 57.6,38.016 H 414.72 V 304.128 H 57.6 Z"
         id="path290" /></clipPath><clipPath
       clipPathUnits="userSpaceOnUse"
       id="clipPath302"><path
         d="M 57.6,38.016 H 414.72 V 304.128 H 57.6 Z"
         id="path300" /></clipPath><clipPath
       clipPathUnits="userSpaceOnUse"
       id="clipPath312"><path
         d="M 57.6,38.016 H 414.72 V 304.128 H 57.6 Z"
         id="path310" /></clipPath><clipPath
       clipPathUnits="userSpaceOnUse"
       id="clipPath322"><path
         d="M 57.6,38.016 H 414.72 V 304.128 H 57.6 Z"
         id="path320" /></clipPath><clipPath
       clipPathUnits="userSpaceOnUse"
       id="clipPath332"><path
         d="M 57.6,38.016 H 414.72 V 304.128 H 57.6 Z"
         id="path330" /></clipPath></defs><sodipodi:namedview
     pagecolor="#ffffff"
     bordercolor="#666666"
     borderopacity="1"
     objecttolerance="10"
     gridtolerance="10"
     guidetolerance="10"
     inkscape:pageopacity="0"
     inkscape:pageshadow="2"
     inkscape:window-width="1920"
     inkscape:window-height="1020"
     id="namedview4"
     showgrid="false"
     units="mm"
     fit-margin-top="0"
     fit-margin-left="0"
     fit-margin-right="0"
     fit-margin-bottom="0"
     inkscape:zoom="1.8598091"
     inkscape:cx="129.86723"
     inkscape:cy="185.58785"
     inkscape:window-x="0"
     inkscape:window-y="0"
     inkscape:window-maximized="1"
     inkscape:current-layer="g10"
     inkscape:document-rotation="0" /><g
     id="g10"
     inkscape:groupmode="layer"
     inkscape:label="pearson_chr05"
     transform="matrix(1.3333333,0,0,-1.3333333,-28.023958,443.59358)"><path
       d="M 57.6,38.016 V 304.128"
       style="fill:none;stroke:#b0b0b0;stroke-width:0.8;stroke-linecap:square;stroke-linejoin:round;stroke-miterlimit:10;stroke-dasharray:none;stroke-opacity:1"
       id="path24"
       transform="matrix(0.57540597,0,0,0.57540597,8.924104,141.96613)" /><path
       d="M 102.94857,38.016 V 304.128"
       style="fill:none;stroke:#b0b0b0;stroke-width:0.8;stroke-linecap:square;stroke-linejoin:round;stroke-miterlimit:10;stroke-dasharray:none;stroke-opacity:1"
       id="path42"
       transform="matrix(0.57540597,0,0,0.57540597,8.924104,141.96613)" /><path
       d="M 148.29714,38.016 V 304.128"
       style="fill:none;stroke:#b0b0b0;stroke-width:0.8;stroke-linecap:square;stroke-linejoin:round;stroke-miterlimit:10;stroke-dasharray:none;stroke-opacity:1"
       id="path60"
       transform="matrix(0.57540597,0,0,0.57540597,8.924104,141.96613)" /><path
       d="M 120.349,163.84076 V 316.9632"
       style="fill:none;stroke:#b0b0b0;stroke-width:0.460325;stroke-linecap:square;stroke-linejoin:round;stroke-miterlimit:10;stroke-dasharray:none;stroke-opacity:1"
       id="path78" /><path
       d="M 238.99429,38.016 V 304.128"
       style="fill:none;stroke:#b0b0b0;stroke-width:0.8;stroke-linecap:square;stroke-linejoin:round;stroke-miterlimit:10;stroke-dasharray:none;stroke-opacity:1"
       id="path96"
       transform="matrix(0.57540597,0,0,0.57540597,8.924104,141.96613)" /><path
       d="M 284.34286,38.016 V 304.128"
       style="fill:none;stroke:#b0b0b0;stroke-width:0.8;stroke-linecap:square;stroke-linejoin:round;stroke-miterlimit:10;stroke-dasharray:none;stroke-opacity:1"
       id="path114"
       transform="matrix(0.57540597,0,0,0.57540597,8.924104,141.96613)" /><path
       d="M 329.69143,38.016 V 304.128"
       style="fill:none;stroke:#b0b0b0;stroke-width:0.8;stroke-linecap:square;stroke-linejoin:round;stroke-miterlimit:10;stroke-dasharray:none;stroke-opacity:1"
       id="path132"
       transform="matrix(0.57540597,0,0,0.57540597,8.924104,141.96613)" /><path
       d="M 375.04,38.016 V 304.128"
       style="fill:none;stroke:#b0b0b0;stroke-width:0.8;stroke-linecap:square;stroke-linejoin:round;stroke-miterlimit:10;stroke-dasharray:none;stroke-opacity:1"
       id="path150"
       transform="matrix(0.57540597,0,0,0.57540597,8.924104,141.96613)" /><path
       d="M 57.6,38.016 H 414.72"
       style="fill:none;stroke:#b0b0b0;stroke-width:0.8;stroke-linecap:square;stroke-linejoin:round;stroke-miterlimit:10;stroke-dasharray:none;stroke-opacity:1"
       id="path172"
       transform="matrix(0.57540597,0,0,0.57540597,8.924104,141.96613)" /><path
       d="M 57.6,91.2384 H 414.72"
       style="fill:none;stroke:#b0b0b0;stroke-width:0.8;stroke-linecap:square;stroke-linejoin:round;stroke-miterlimit:10;stroke-dasharray:none;stroke-opacity:1"
       id="path190"
       transform="matrix(0.57540597,0,0,0.57540597,8.924104,141.96613)" /><path
       d="M 57.6,144.4608 H 414.72"
       style="fill:none;stroke:#b0b0b0;stroke-width:0.8;stroke-linecap:square;stroke-linejoin:round;stroke-miterlimit:10;stroke-dasharray:none;stroke-opacity:1"
       id="path208"
       transform="matrix(0.57540597,0,0,0.57540597,8.924104,141.96613)" /><path
       d="M 57.6,197.6832 H 414.72"
       style="fill:none;stroke:#b0b0b0;stroke-width:0.8;stroke-linecap:square;stroke-linejoin:round;stroke-miterlimit:10;stroke-dasharray:none;stroke-opacity:1"
       id="path226"
       transform="matrix(0.57540597,0,0,0.57540597,8.924104,141.96613)" /><path
       d="M 57.6,250.9056 H 414.72"
       style="fill:none;stroke:#b0b0b0;stroke-width:0.8;stroke-linecap:square;stroke-linejoin:round;stroke-miterlimit:10;stroke-dasharray:none;stroke-opacity:1"
       id="path244"
       transform="matrix(0.57540597,0,0,0.57540597,8.924104,141.96613)" /><path
       d="M 57.6,304.128 H 414.72"
       style="fill:none;stroke:#b0b0b0;stroke-width:0.8;stroke-linecap:square;stroke-linejoin:round;stroke-miterlimit:10;stroke-dasharray:none;stroke-opacity:1"
       id="path262"
       transform="matrix(0.57540597,0,0,0.57540597,8.924104,141.96613)" /><g
       id="g328"
       clip-path="url(#clipPath332)"
       style="stroke:#d62728;stroke-opacity:1"
       transform="matrix(0.57540597,0,0,0.57540597,8.9241042,141.96613)"><path
         d="m 57.6,274.26669 5.668571,-8.51413 5.668572,-4.60585 5.668571,-0.61572 5.668572,-0.97414 5.668571,0.2994 5.668572,0.17462 5.668571,-0.0369 5.66857,0.55342 5.66857,-1.55777 5.66857,-1.31879 5.66858,-0.0429 5.66857,-1.84437 5.66857,-1.25059 5.66857,-0.22577 5.66857,-2.59774 5.66857,-0.67705 5.66857,-0.23919 5.66858,-2.43211 5.66857,-1.4151 5.66857,-1.07585 5.66857,-1.42078 5.66857,0.29705 5.66857,-1.2512 5.66857,-4.21345 5.66858,1.85402 5.66857,0.40948 5.66857,0.49735 5.66857,-0.15599 5.66857,-2.90436 5.66857,0.90238 5.66857,-3.56086 5.66858,-0.71117 5.66857,0.0317 5.66857,-3.35022 5.66857,0.40922 5.66857,-1.31818 5.66857,-0.0777 5.66857,-2.52089 5.66858,2.24148 5.66857,-2.15834 5.66857,-3.06158 5.66857,-0.31306 5.66857,-0.70681 5.66857,4.80396 5.66857,-2.65466 5.66858,0.83184 5.66857,-1.614 5.66857,-2.32449 5.66857,2.89507 5.66857,-6.57443 5.66857,2.15945 5.66857,-6.06139 5.66858,-1.32181 5.66857,-1.42226 5.66857,-2.91308 5.66857,-0.51664 5.66857,1.0175 5.66857,-5.84401 5.66857,1.57233 5.66858,-5.53072 5.66857,5.36572 5.66857,-2.10874 5.66857,3.65182"
         style="fill:none;stroke:#d62728;stroke-width:1.5;stroke-linecap:square;stroke-linejoin:round;stroke-miterlimit:10;stroke-dasharray:none;stroke-opacity:1"
         id="path334" /></g><g
       id="g16"
       transform="matrix(0.57540597,0,0,0.57540597,8.9241042,141.96613)"><g
         id="g18"
         clip-path="url(#clipPath22)" /></g><path
       d="m 42.067488,163.84077 v -2.01393"
       style="fill:#000000;fill-opacity:1;fill-rule:nonzero;stroke:#000000;stroke-width:0.460324;stroke-linecap:butt;stroke-linejoin:round;stroke-miterlimit:10;stroke-dasharray:none;stroke-opacity:1"
       id="path28" /><g
       id="g34"
       transform="matrix(0.57540597,0,0,0.57540597,8.9241042,141.96613)"><g
         id="g36"
         clip-path="url(#clipPath40)" /></g><path
       d="m 68.161326,163.84077 v -2.01393"
       style="fill:#000000;fill-opacity:1;fill-rule:nonzero;stroke:#000000;stroke-width:0.460324;stroke-linecap:butt;stroke-linejoin:round;stroke-miterlimit:10;stroke-dasharray:none;stroke-opacity:1"
       id="path46" /><g
       id="g52"
       transform="matrix(0.57540597,0,0,0.57540597,8.9241042,141.96613)"><g
         id="g54"
         clip-path="url(#clipPath58)" /></g><path
       d="m 94.255165,163.84077 v -2.01393"
       style="fill:#000000;fill-opacity:1;fill-rule:nonzero;stroke:#000000;stroke-width:0.460324;stroke-linecap:butt;stroke-linejoin:round;stroke-miterlimit:10;stroke-dasharray:none;stroke-opacity:1"
       id="path64" /><path
       d="m 120.349,163.84077 v -2.01393"
       style="fill:#000000;fill-opacity:1;fill-rule:nonzero;stroke:#000000;stroke-width:0.460324;stroke-linecap:butt;stroke-linejoin:round;stroke-miterlimit:10;stroke-dasharray:none;stroke-opacity:1"
       id="path82" /><g
       id="g88"
       transform="matrix(0.57540597,0,0,0.57540597,8.9241042,141.96613)"><g
         id="g90"
         clip-path="url(#clipPath94)" /></g><path
       d="m 146.44284,163.84077 v -2.01393"
       style="fill:#000000;fill-opacity:1;fill-rule:nonzero;stroke:#000000;stroke-width:0.460324;stroke-linecap:butt;stroke-linejoin:round;stroke-miterlimit:10;stroke-dasharray:none;stroke-opacity:1"
       id="path100" /><g
       id="g106"
       transform="matrix(0.57540597,0,0,0.57540597,8.9241042,141.96613)"><g
         id="g108"
         clip-path="url(#clipPath112)" /></g><path
       d="m 172.53668,163.84077 v -2.01393"
       style="fill:#000000;fill-opacity:1;fill-rule:nonzero;stroke:#000000;stroke-width:0.460324;stroke-linecap:butt;stroke-linejoin:round;stroke-miterlimit:10;stroke-dasharray:none;stroke-opacity:1"
       id="path118" /><g
       id="g124"
       transform="matrix(0.57540597,0,0,0.57540597,8.9241042,141.96613)"><g
         id="g126"
         clip-path="url(#clipPath130)" /></g><path
       d="m 198.63053,163.84077 v -2.01393"
       style="fill:#000000;fill-opacity:1;fill-rule:nonzero;stroke:#000000;stroke-width:0.460324;stroke-linecap:butt;stroke-linejoin:round;stroke-miterlimit:10;stroke-dasharray:none;stroke-opacity:1"
       id="path136" /><g
       id="g142"
       transform="matrix(0.57540597,0,0,0.57540597,8.9241042,141.96613)"><g
         id="g144"
         clip-path="url(#clipPath148)" /></g><path
       d="m 224.72436,163.84077 v -2.01393"
       style="fill:#000000;fill-opacity:1;fill-rule:nonzero;stroke:#000000;stroke-width:0.460324;stroke-linecap:butt;stroke-linejoin:round;stroke-miterlimit:10;stroke-dasharray:none;stroke-opacity:1"
       id="path154" /><g
       id="g164"
       transform="matrix(0.57540597,0,0,0.57540597,8.9241042,141.96613)"><g
         id="g166"
         clip-path="url(#clipPath170)" /></g><path
       d="m 42.067488,163.84077 h -2.01392"
       style="fill:#000000;fill-opacity:1;fill-rule:nonzero;stroke:#000000;stroke-width:0.460324;stroke-linecap:butt;stroke-linejoin:round;stroke-miterlimit:10;stroke-dasharray:none;stroke-opacity:1"
       id="path176" /><g
       id="g182"
       transform="matrix(0.57540597,0,0,0.57540597,8.9241042,141.96613)"><g
         id="g184"
         clip-path="url(#clipPath188)" /></g><path
       d="m 42.067488,194.46525 h -2.01392"
       style="fill:#000000;fill-opacity:1;fill-rule:nonzero;stroke:#000000;stroke-width:0.460324;stroke-linecap:butt;stroke-linejoin:round;stroke-miterlimit:10;stroke-dasharray:none;stroke-opacity:1"
       id="path194" /><g
       id="g200"
       transform="matrix(0.57540597,0,0,0.57540597,8.9241042,141.96613)"><g
         id="g202"
         clip-path="url(#clipPath206)" /></g><path
       d="m 42.067488,225.08974 h -2.01392"
       style="fill:#000000;fill-opacity:1;fill-rule:nonzero;stroke:#000000;stroke-width:0.460324;stroke-linecap:butt;stroke-linejoin:round;stroke-miterlimit:10;stroke-dasharray:none;stroke-opacity:1"
       id="path212" /><g
       id="g218"
       transform="matrix(0.57540597,0,0,0.57540597,8.9241042,141.96613)"><g
         id="g220"
         clip-path="url(#clipPath224)" /></g><path
       d="m 42.067488,255.71422 h -2.01392"
       style="fill:#000000;fill-opacity:1;fill-rule:nonzero;stroke:#000000;stroke-width:0.460324;stroke-linecap:butt;stroke-linejoin:round;stroke-miterlimit:10;stroke-dasharray:none;stroke-opacity:1"
       id="path230" /><g
       id="g236"
       transform="matrix(0.57540597,0,0,0.57540597,8.9241042,141.96613)"><g
         id="g238"
         clip-path="url(#clipPath242)" /></g><path
       d="m 42.067488,286.33871 h -2.01392"
       style="fill:#000000;fill-opacity:1;fill-rule:nonzero;stroke:#000000;stroke-width:0.460324;stroke-linecap:butt;stroke-linejoin:round;stroke-miterlimit:10;stroke-dasharray:none;stroke-opacity:1"
       id="path248" /><g
       id="g254"
       transform="matrix(0.57540597,0,0,0.57540597,8.9241042,141.96613)"><g
         id="g256"
         clip-path="url(#clipPath260)" /></g><path
       d="m 42.067488,316.9632 h -2.01392"
       style="fill:#000000;fill-opacity:1;fill-rule:nonzero;stroke:#000000;stroke-width:0.460324;stroke-linecap:butt;stroke-linejoin:round;stroke-miterlimit:10;stroke-dasharray:none;stroke-opacity:1"
       id="path266" /><g
       id="g278"
       clip-path="url(#clipPath282)"
       transform="matrix(0.57540597,0,0,0.57540597,8.9241042,141.96613)"><path
         d="m 57.6,238.92212 5.668571,6.48422 5.668572,-8.45041 5.668571,-8.68626 5.668572,-6.31542 5.668571,-6.78357 5.668572,-4.04713 5.668571,-2.53673 5.66857,-2.90741 5.66857,2.68524 5.66857,-0.42874 5.66858,-2.13715 5.66857,0.25536 5.66857,-1.76796 5.66857,-3.6359 5.66857,-3.112 5.66857,-2.5399 5.66857,-1.93983 5.66858,-2.00491 5.66857,-2.80346 5.66857,-2.99562 5.66857,-3.20312 5.66857,-1.34048 5.66857,-1.31103 5.66857,-3.13376 5.66858,0.38836 5.66857,-5.39899 5.66857,2.30369 5.66857,-4.49836 5.66857,-0.82999 5.66857,-0.71538 5.66857,0.75991 5.66858,2.2485 5.66857,-5.02509 5.66857,1.5817 5.66857,-4.09972 5.66857,0.9237 5.66857,-0.40194 5.66857,-1.69862 5.66858,-1.34901 5.66857,-2.93491 5.66857,-1.5448 5.66857,1.59945 5.66857,-1.80108 5.66857,-2.65376 5.66857,-2.88194 5.66858,-3.55306 5.66857,-1.23733 5.66857,-2.89787 5.66857,-2.93176 5.66857,-2.28564 5.66857,1.042 5.66857,-4.33949 5.66858,-4.28047 5.66857,0.0307 5.66857,-4.99119 5.66857,-7.31634 5.66857,-6.44445 5.66857,-3.33789 5.66857,-2.61208 5.66858,-2.99872 5.66857,-3.460285 5.66857,-0.06387 5.66857,-6.255375"
         style="fill:none;stroke:#1f77b4;stroke-width:1.5;stroke-linecap:square;stroke-linejoin:round;stroke-miterlimit:10;stroke-dasharray:none;stroke-opacity:1"
         id="path284" /></g><g
       id="g288"
       clip-path="url(#clipPath292)"
       transform="matrix(0.57540597,0,0,0.57540597,8.9241042,141.96613)"><path
         d="m 57.6,241.50929 5.668571,3.97421 5.668572,-7.61826 5.668571,-8.13867 5.668572,-5.86324 5.668571,-3.29158 5.668572,-1.09668 5.668571,-3.44952 5.66857,-4.58778 5.66857,1.0664 5.66857,-1.94284 5.66858,-2.08889 5.66857,0.887 5.66857,-1.70685 5.66857,-2.8735 5.66857,-3.11704 5.66857,-2.63219 5.66857,-2.45085 5.66858,-2.11986 5.66857,-3.52871 5.66857,-3.345 5.66857,-4.19522 5.66857,-1.77977 5.66857,-0.6771 5.66857,-2.84103 5.66858,-1.14049 5.66857,-4.83832 5.66857,2.76817 5.66857,-4.4672 5.66857,-1.00334 5.66857,0.29426 5.66857,-0.20774 5.66858,2.32342 5.66857,-5.18018 5.66857,1.69353 5.66857,-3.54021 5.66857,1.09575 5.66857,-0.91672 5.66857,-1.67997 5.66858,-1.93838 5.66857,-2.26685 5.66857,-1.55625 5.66857,2.47534 5.66857,-1.64145 5.66857,-1.80363 5.66857,-2.5927 5.66858,-0.77378 5.66857,-1.57835 5.66857,-1.47592 5.66857,-1.54393 5.66857,-0.17332 5.66857,1.16246 5.66857,-3.76867 5.66858,-1.83464 5.66857,3.89359 5.66857,-0.40526 5.66857,-5.71083 5.66857,-4.0342 5.66857,1.6307 5.66857,-0.70972 5.66858,1.92829 5.66857,-3.02611 5.66857,-0.26004 5.66857,-12.00596"
         style="fill:none;stroke:#ff7f0e;stroke-width:1.5;stroke-linecap:square;stroke-linejoin:round;stroke-miterlimit:10;stroke-dasharray:none;stroke-opacity:1"
         id="path294" /></g><g
       id="g298"
       clip-path="url(#clipPath302)"
       transform="matrix(0.57540597,0,0,0.57540597,8.9241042,141.96613)"><path
         d="m 57.6,242.21413 5.668571,4.65088 5.668572,-6.73497 5.668571,-7.27771 5.668572,-5.37795 5.668571,-3.3189 5.668572,-1.06879 5.668571,-3.27745 5.66857,-4.24643 5.66857,1.1728 5.66857,-1.20822 5.66858,-1.86945 5.66857,0.44117 5.66857,-2.09995 5.66857,-3.09573 5.66857,-3.13782 5.66857,-2.64227 5.66857,-2.44166 5.66858,-2.52393 5.66857,-4.4545 5.66857,-4.10724 5.66857,-4.16495 5.66857,-2.26445 5.66857,-0.52997 5.66857,-3.0859 5.66858,-1.08859 5.66857,-4.55865 5.66857,2.75137 5.66857,-3.93145 5.66857,-1.12169 5.66857,-0.69436 5.66857,-1.33985 5.66858,1.30171 5.66857,-5.55542 5.66857,1.66486 5.66857,-3.02118 5.66857,0.44432 5.66857,1.0101 5.66857,-0.32572 5.66858,-2.1646 5.66857,-2.82866 5.66857,-0.86716 5.66857,1.95284 5.66857,-1.91221 5.66857,-1.45695 5.66857,-2.04007 5.66858,-0.80455 5.66857,-1.33915 5.66857,-2.41041 5.66857,-1.21369 5.66857,-0.58429 5.66857,1.92262 5.66857,-4.19809 5.66858,-0.66039 5.66857,2.35321 5.66857,1.27625 5.66857,-5.84408 5.66857,-2.48777 5.66857,1.87405 5.66857,-0.89185 5.66858,2.54374 5.66857,-3.21993 5.66857,-1.32513 5.66857,-9.77356"
         style="fill:none;stroke:#2ca02c;stroke-width:1.5;stroke-linecap:square;stroke-linejoin:round;stroke-miterlimit:10;stroke-dasharray:none;stroke-opacity:1"
         id="path304" /></g><g
       id="g308"
       clip-path="url(#clipPath312)"
       style="stroke:#8c564b;stroke-opacity:1"
       transform="matrix(0.57540597,0,0,0.57540597,8.9241042,141.96613)"><path
         d="m 57.6,244.46347 5.668571,3.57298 5.668572,-6.55696 5.668571,-6.93407 5.668572,-4.23204 5.668571,-2.74893 5.668572,-1.30995 5.668571,-2.32045 5.66857,-4.29797 5.66857,0.74044 5.66857,-2.37009 5.66858,-1.85164 5.66857,-0.39238 5.66857,-2.85772 5.66857,-3.02708 5.66857,-2.27764 5.66857,-1.44318 5.66857,-2.74165 5.66858,-1.9268 5.66857,-5.07977 5.66857,-4.07437 5.66857,-4.37472 5.66857,-2.16264 5.66857,-1.19051 5.66857,-2.98641 5.66858,-1.56472 5.66857,-5.02361 5.66857,3.35571 5.66857,-4.34371 5.66857,-1.11016 5.66857,-1.66305 5.66857,-0.41489 5.66858,1.86385 5.66857,-4.60244 5.66857,1.48811 5.66857,-3.02249 5.66857,0.27759 5.66857,0.99912 5.66857,-0.7174 5.66858,-1.00188 5.66857,-3.56751 5.66857,-0.38001 5.66857,2.3185 5.66857,-0.92566 5.66857,-1.37286 5.66857,-2.64779 5.66858,-1.8975 5.66857,-0.58885 5.66857,-1.47551 5.66857,-1.64176 5.66857,-0.82493 5.66857,1.99858 5.66857,-3.26863 5.66858,-1.24266 5.66857,2.80023 5.66857,0.2458 5.66857,-5.40109 5.66857,-1.10145 5.66857,1.36062 5.66857,-4.3e-4 5.66858,1.85426 5.66857,-3.01674 5.66857,-4.08469 5.66857,-8.97489"
         style="fill:none;stroke:#8c564b;stroke-width:1.5;stroke-linecap:square;stroke-linejoin:round;stroke-miterlimit:10;stroke-dasharray:none;stroke-opacity:1"
         id="path314" /></g><g
       id="g318"
       clip-path="url(#clipPath322)"
       transform="matrix(0.57540597,0,0,0.57540597,8.9241042,141.96613)"><path
         d="m 57.6,243.30205 5.668571,3.67218 5.668572,-6.49941 5.668571,-6.05315 5.668572,-3.68447 5.668571,-2.99844 5.668572,-1.1525 5.668571,-3.13178 5.66857,-3.91284 5.66857,-0.32578 5.66857,-2.07786 5.66858,-2.41534 5.66857,-0.70188 5.66857,-1.60083 5.66857,-2.45625 5.66857,-2.04508 5.66857,-1.51128 5.66857,-2.39522 5.66858,-2.33368 5.66857,-4.65986 5.66857,-4.29632 5.66857,-3.71968 5.66857,-2.45217 5.66857,-1.51479 5.66857,-3.12924 5.66858,-0.64347 5.66857,-4.82647 5.66857,2.7629 5.66857,-4.25991 5.66857,-0.99699 5.66857,-1.19792 5.66857,0.16945 5.66858,2.69441 5.66857,-4.03471 5.66857,1.33205 5.66857,-2.3367 5.66857,-0.23936 5.66857,1.84467 5.66857,-0.15935 5.66858,-0.1858 5.66857,-4.31121 5.66857,-0.6588 5.66857,1.7368 5.66857,-0.85951 5.66857,-2.32319 5.66857,-1.54896 5.66858,-1.62254 5.66857,-0.18869 5.66857,-1.01869 5.66857,-1.33613 5.66857,-1.98413 5.66857,2.50932 5.66857,-3.94695 5.66858,-0.84404 5.66857,1.92232 5.66857,0.97594 5.66857,-4.41479 5.66857,-2.62275 5.66857,0.53426 5.66857,0.76146 5.66858,0.33295 5.66857,-3.47844 5.66857,-4.24805 5.66857,-10.13642"
         style="fill:none;stroke:#9467bd;stroke-width:1.5;stroke-linecap:square;stroke-linejoin:round;stroke-miterlimit:10;stroke-dasharray:none;stroke-opacity:1"
         id="path324" /></g><path
       d="M 42.067488,163.84077 V 316.9632"
       style="fill:none;stroke:#000000;stroke-width:0.460324;stroke-linecap:square;stroke-linejoin:miter;stroke-miterlimit:10;stroke-dasharray:none;stroke-opacity:1"
       id="path338" /><path
       d="M 247.55647,163.84077 V 316.9632"
       style="fill:none;stroke:#000000;stroke-width:0.460324;stroke-linecap:square;stroke-linejoin:miter;stroke-miterlimit:10;stroke-dasharray:none;stroke-opacity:1"
       id="path340" /><path
       d="M 42.067488,163.84077 H 247.55647"
       style="fill:none;stroke:#000000;stroke-width:0.460324;stroke-linecap:square;stroke-linejoin:miter;stroke-miterlimit:10;stroke-dasharray:none;stroke-opacity:1"
       id="path342" /><path
       d="M 42.067488,316.9632 H 247.55647"
       style="fill:none;stroke:#000000;stroke-width:0.460324;stroke-linecap:square;stroke-linejoin:miter;stroke-miterlimit:10;stroke-dasharray:none;stroke-opacity:1"
       id="path344" /><path
       d="M 53.892066,215.36887 H 65.400185"
       style="fill:none;stroke:#1f77b4;stroke-width:0.863109;stroke-linecap:square;stroke-linejoin:round;stroke-miterlimit:10;stroke-dasharray:none;stroke-opacity:1"
       id="path354" /><path
       d="M 53.892066,206.92658 H 65.400185"
       style="fill:none;stroke:#ff7f0e;stroke-width:0.863109;stroke-linecap:square;stroke-linejoin:round;stroke-miterlimit:10;stroke-dasharray:none;stroke-opacity:1"
       id="path360" /><path
       d="M 53.892066,198.4843 H 65.400185"
       style="fill:none;stroke:#2ca02c;stroke-width:0.863109;stroke-linecap:square;stroke-linejoin:round;stroke-miterlimit:10;stroke-dasharray:none;stroke-opacity:1"
       id="path366" /><path
       d="M 53.892066,190.04201 H 65.400185"
       style="fill:none;stroke:#8c564b;stroke-width:0.863109;stroke-linecap:square;stroke-linejoin:round;stroke-miterlimit:10;stroke-dasharray:none;stroke-opacity:1"
       id="path372" /><path
       d="M 53.892066,181.59972 H 65.400185"
       style="fill:none;stroke:#9467bd;stroke-width:0.863109;stroke-linecap:square;stroke-linejoin:round;stroke-miterlimit:10;stroke-dasharray:none;stroke-opacity:1"
       id="path378" /><path
       d="M 53.892066,173.15744 H 65.400185"
       style="fill:none;stroke:#d62728;stroke-width:0.863109;stroke-linecap:square;stroke-linejoin:round;stroke-miterlimit:10;stroke-dasharray:none;stroke-opacity:1"
       id="path384" /></g><g
     inkscape:groupmode="layer"
     id="layer1"
     inkscape:label="text"
     transform="translate(-28.023958,-17.206424)"><text
       style="font-variant:normal;font-weight:normal;font-size:7.67208px;font-family:'DejaVu Sans';-inkscape-font-specification:DejaVuSans;writing-mode:lr-tb;fill:#000000;fill-opacity:1;fill-rule:nonzero;stroke:none;stroke-width:0.767208"
       id="text32"
       x="53.988281"
       y="253.54207"><tspan
         x="53.988281 58.867722 61.307446"
         y="253.54207"
         sodipodi:role="line"
         id="tspan30"
         style="stroke-width:0.767208">0.0</tspan></text><text
       style="font-variant:normal;font-weight:normal;font-size:7.67208px;font-family:'DejaVu Sans';-inkscape-font-specification:DejaVuSans;writing-mode:lr-tb;fill:#000000;fill-opacity:1;fill-rule:nonzero;stroke:none;stroke-width:0.767208"
       id="text50"
       x="84.780067"
       y="253.54207"><tspan
         x="84.780067 89.659515 92.099236"
         y="253.54207"
         sodipodi:role="line"
         id="tspan48"
         style="stroke-width:0.767208">0.2</tspan></text><text
       style="font-variant:normal;font-weight:normal;font-size:7.67208px;font-family:'DejaVu Sans';-inkscape-font-specification:DejaVuSans;writing-mode:lr-tb;fill:#000000;fill-opacity:1;fill-rule:nonzero;stroke:none;stroke-width:0.767208"
       id="text68"
       x="119.57185"
       y="253.54207"><tspan
         x="119.57185 124.45129 126.89101"
         y="253.54207"
         sodipodi:role="line"
         id="tspan66"
         style="stroke-width:0.767208">0.4</tspan></text><text
       style="font-variant:normal;font-weight:normal;font-size:7.67208px;font-family:'DejaVu Sans';-inkscape-font-specification:DejaVuSans;writing-mode:lr-tb;fill:#000000;fill-opacity:1;fill-rule:nonzero;stroke:none;stroke-width:0.767208"
       id="text86"
       x="154.36363"
       y="253.54207"><tspan
         x="154.36363 159.24309 161.6828"
         y="253.54207"
         sodipodi:role="line"
         id="tspan84"
         style="stroke-width:0.767208">0.6</tspan></text><text
       style="font-variant:normal;font-weight:normal;font-size:7.67208px;font-family:'DejaVu Sans';-inkscape-font-specification:DejaVuSans;writing-mode:lr-tb;fill:#000000;fill-opacity:1;fill-rule:nonzero;stroke:none;stroke-width:0.767208"
       id="text104"
       x="189.15541"
       y="253.54207"><tspan
         x="189.15541 194.03485 196.47458"
         y="253.54207"
         sodipodi:role="line"
         id="tspan102"
         style="stroke-width:0.767208">0.8</tspan></text><text
       style="font-variant:normal;font-weight:normal;font-size:7.67208px;font-family:'DejaVu Sans';-inkscape-font-specification:DejaVuSans;writing-mode:lr-tb;fill:#000000;fill-opacity:1;fill-rule:nonzero;stroke:none;stroke-width:0.767208"
       id="text122"
       x="223.9472"
       y="253.54207"><tspan
         x="223.9472 228.82664 231.26634"
         y="253.54207"
         sodipodi:role="line"
         id="tspan120"
         style="stroke-width:0.767208">1.0</tspan></text><text
       style="font-variant:normal;font-weight:normal;font-size:7.67208px;font-family:'DejaVu Sans';-inkscape-font-specification:DejaVuSans;writing-mode:lr-tb;fill:#000000;fill-opacity:1;fill-rule:nonzero;stroke:none;stroke-width:0.767208"
       id="text140"
       x="258.73898"
       y="253.54207"><tspan
         x="258.73898 263.61841 266.05814"
         y="253.54207"
         sodipodi:role="line"
         id="tspan138"
         style="stroke-width:0.767208">1.2</tspan></text><text
       style="font-variant:normal;font-weight:normal;font-size:7.67208px;font-family:'DejaVu Sans';-inkscape-font-specification:DejaVuSans;writing-mode:lr-tb;fill:#000000;fill-opacity:1;fill-rule:nonzero;stroke:none;stroke-width:0.767208"
       id="text158"
       x="293.53079"
       y="253.54207"><tspan
         x="293.53079 298.41022 300.84995"
         y="253.54207"
         sodipodi:role="line"
         id="tspan156"
         style="stroke-width:0.767208">1.4</tspan></text><text
       style="font-variant:normal;font-weight:normal;font-size:7.67208px;font-family:'DejaVu Sans';-inkscape-font-specification:DejaVuSans;writing-mode:lr-tb;fill:#000000;fill-opacity:1;fill-rule:nonzero;stroke:none;stroke-width:0.767208"
       id="text162"
       x="146.64857"
       y="264.03146"><tspan
         x="146.64857 152.59444 157.31276 162.17685 166.87218 174.34477 176.47762 180.69725 183.13698 188.00874 190.14159 194.13875 197.14619 201.84918 206.71327 210.93294 215.65125 218.09097 220.67647 223.11618 229.73718 234.60895"
         y="264.03146"
         sodipodi:role="line"
         id="tspan160"
         style="stroke-width:0.767208">Genomic distance / Mbp</tspan></text><text
       style="font-variant:normal;font-weight:normal;font-size:7.67208px;font-family:'DejaVu Sans';-inkscape-font-specification:DejaVuSans;writing-mode:lr-tb;fill:#000000;fill-opacity:1;fill-rule:nonzero;stroke:none;stroke-width:0.767208"
       id="text180"
       x="38.516125"
       y="245.25862"><tspan
         x="38.516125 43.395565 45.835289"
         y="245.25862"
         sodipodi:role="line"
         id="tspan178"
         style="stroke-width:0.767208">0.0</tspan></text><text
       style="font-variant:normal;font-weight:normal;font-size:7.67208px;font-family:'DejaVu Sans';-inkscape-font-specification:DejaVuSans;writing-mode:lr-tb;fill:#000000;fill-opacity:1;fill-rule:nonzero;stroke:none;stroke-width:0.767208"
       id="text198"
       x="38.516125"
       y="204.42596"><tspan
         x="38.516125 43.395565 45.835289"
         y="204.42596"
         sodipodi:role="line"
         id="tspan196"
         style="stroke-width:0.767208">0.2</tspan></text><text
       style="font-variant:normal;font-weight:normal;font-size:7.67208px;font-family:'DejaVu Sans';-inkscape-font-specification:DejaVuSans;writing-mode:lr-tb;fill:#000000;fill-opacity:1;fill-rule:nonzero;stroke:none;stroke-width:0.767208"
       id="text216"
       x="38.516125"
       y="163.59334"><tspan
         x="38.516125 43.395565 45.835289"
         y="163.59334"
         sodipodi:role="line"
         id="tspan214"
         style="stroke-width:0.767208">0.4</tspan></text><text
       style="font-variant:normal;font-weight:normal;font-size:7.67208px;font-family:'DejaVu Sans';-inkscape-font-specification:DejaVuSans;writing-mode:lr-tb;fill:#000000;fill-opacity:1;fill-rule:nonzero;stroke:none;stroke-width:0.767208"
       id="text234"
       x="38.516125"
       y="122.76067"><tspan
         x="38.516125 43.395565 45.835289"
         y="122.76067"
         sodipodi:role="line"
         id="tspan232"
         style="stroke-width:0.767208">0.6</tspan></text><text
       style="font-variant:normal;font-weight:normal;font-size:7.67208px;font-family:'DejaVu Sans';-inkscape-font-specification:DejaVuSans;writing-mode:lr-tb;fill:#000000;fill-opacity:1;fill-rule:nonzero;stroke:none;stroke-width:0.767208"
       id="text252"
       x="38.516125"
       y="81.928032"><tspan
         x="38.516125 43.395565 45.835289"
         y="81.928032"
         sodipodi:role="line"
         id="tspan250"
         style="stroke-width:0.767208">0.8</tspan></text><text
       style="font-variant:normal;font-weight:normal;font-size:7.67208px;font-family:'DejaVu Sans';-inkscape-font-specification:DejaVuSans;writing-mode:lr-tb;fill:#000000;fill-opacity:1;fill-rule:nonzero;stroke:none;stroke-width:0.767208"
       id="text270"
       x="38.516125"
       y="41.09544"><tspan
         x="38.516125 43.395565 45.835289"
         y="41.09544"
         sodipodi:role="line"
         id="tspan268"
         style="stroke-width:0.767208">1.0</tspan></text><text
       transform="rotate(-90)"
       style="font-variant:normal;font-weight:normal;font-size:7.67208px;font-family:'DejaVu Sans';-inkscape-font-specification:DejaVuSans;writing-mode:lr-tb;fill:#000000;fill-opacity:1;fill-rule:nonzero;stroke:none;stroke-width:0.767208"
       id="text274"
       x="-177.32974"
       y="33.85294"><tspan
         x="-177.32974 -172.70348 -167.98515 -163.28215 -160.12894 -156.13179 -151.43648 -146.57239 -144.13266 -139.91301 -135.2177 -132.06447 -128.91124 -124.19292 -122.06008 -117.3571 -114.34965 -112.2168 -107.52149"
         y="33.85294"
         sodipodi:role="line"
         id="tspan272"
         style="stroke-width:0.767208">Pearson correlation</tspan></text><text
       style="font-variant:normal;font-weight:normal;font-size:9.2065px;font-family:'DejaVu Sans';-inkscape-font-specification:DejaVuSans;writing-mode:lr-tb;fill:#000000;fill-opacity:1;fill-rule:nonzero;stroke:none;stroke-width:0.767208"
       id="text348"
       x="98.33844"
       y="23.260246"><tspan
         x="98.33844 103.88995 109.55196 115.19554 118.97941 123.77599 129.41037 135.24728 138.17494 143.23853 148.87291 152.65678 156.44063 162.10263 164.66203 170.30562 173.91457 176.47397 182.10835 187.94527 190.87292 196.32318 201.11975 204.04742 206.9751 212.82123 218.48322 224.32011 229.95451 238.92162 241.48103 246.5446 249.47227 255.31841 257.87781 262.67438 266.28333 271.92691 277.76382 282.82739"
         y="23.260246"
         sodipodi:role="line"
         id="tspan346"
         style="stroke-width:0.767208">Pearson correlation vs. genomic distance</tspan></text><text
       style="font-variant:normal;font-weight:normal;font-size:9.2065px;font-family:'DejaVu Sans';-inkscape-font-specification:DejaVuSans;writing-mode:lr-tb;fill:#000000;fill-opacity:1;fill-rule:nonzero;stroke:none;stroke-width:0.767208"
       id="text352"
       x="63.996586"
       y="33.579201"><tspan
         x="63.996586 71.131622 79.07682 84.932159 90.787483 96.642815 102.49815 108.35347 111.28115 114.20882 120.06415 122.99181 128.84714 131.77481 137.63014 140.5578 146.41315 149.34081 155.19614 158.12379 163.97913 169.83446 172.76213 178.61746 184.47278 187.40045 193.25578 199.1111 202.03877 207.8941 213.74945 216.67711 222.53242 228.38779 231.31543 237.17078 243.02609 245.95378 251.8091 257.66443 260.5921 266.44742 272.30273 275.23044 280.86481 286.70172 289.62939 295.66882 301.52417 307.37952 313.23486 316.16251 319.09018"
         y="33.579201"
         sodipodi:role="line"
         id="tspan350"
         style="stroke-width:0.767208">GM12878, 1,2,4,7,9,11,13,14,16,17,18,20,22 on K562, 5</tspan></text><text
       style="font-variant:normal;font-weight:normal;font-size:7.67208px;font-family:'DejaVu Sans';-inkscape-font-specification:DejaVuSans;writing-mode:lr-tb;fill:#000000;fill-opacity:1;fill-rule:nonzero;stroke:none;stroke-width:0.767208"
       id="text358"
       x="93.337921"
       y="176.32674"><tspan
         x="93.337921 98.217354 103.0968 105.53651 110.25484 115.12662 117.56633 120.15181 122.59155 127.83926 133.45523 138.81032 141.3958 143.83556 148.71497 151.15469 156.03415 160.91357"
         y="176.32674"
         sodipodi:role="line"
         id="tspan356"
         style="stroke-width:0.767208">20 ep / AUC: 0.489</tspan></text><text
       style="font-variant:normal;font-weight:normal;font-size:7.67208px;font-family:'DejaVu Sans';-inkscape-font-specification:DejaVuSans;writing-mode:lr-tb;fill:#000000;fill-opacity:1;fill-rule:nonzero;stroke:none;stroke-width:0.767208"
       id="text364"
       x="93.337921"
       y="187.58311"><tspan
         x="93.337921 98.217354 103.0968 105.53651 110.25484 115.12662 117.56633 120.15181 122.59155 127.83926 133.45523 138.81032 141.3958 143.83556 148.71497 151.15469 156.03415 160.91357"
         y="187.58311"
         sodipodi:role="line"
         id="tspan362"
         style="stroke-width:0.767208">40 ep / AUC: 0.517</tspan></text><text
       style="font-variant:normal;font-weight:normal;font-size:7.67208px;font-family:'DejaVu Sans';-inkscape-font-specification:DejaVuSans;writing-mode:lr-tb;fill:#000000;fill-opacity:1;fill-rule:nonzero;stroke:none;stroke-width:0.767208"
       id="text370"
       x="93.337921"
       y="198.83951"><tspan
         x="93.337921 98.217354 103.0968 105.53651 110.25484 115.12662 117.56633 120.15181 122.59155 127.83926 133.45523 138.81032 141.3958 143.83556 148.71497 151.15469 156.03415 160.91357"
         y="198.83951"
         sodipodi:role="line"
         id="tspan368"
         style="stroke-width:0.767208">60 ep / AUC: 0.526</tspan></text><text
       style="font-variant:normal;font-weight:normal;font-size:7.67208px;font-family:'DejaVu Sans';-inkscape-font-specification:DejaVuSans;writing-mode:lr-tb;fill:#000000;fill-opacity:1;fill-rule:nonzero;stroke:none;stroke-width:0.767208"
       id="text376"
       x="93.337921"
       y="210.09589"><tspan
         x="93.337921 98.217354 103.0968 105.53651 110.25484 115.12662 117.56633 120.15181 122.59155 127.83926 133.45523 138.81032 141.3958 143.83556 148.71497 151.15469 156.03415 160.91357"
         y="210.09589"
         sodipodi:role="line"
         id="tspan374"
         style="stroke-width:0.767208">80 ep / AUC: 0.537</tspan></text><text
       style="font-variant:normal;font-weight:normal;font-size:7.67208px;font-family:'DejaVu Sans';-inkscape-font-specification:DejaVuSans;writing-mode:lr-tb;fill:#000000;fill-opacity:1;fill-rule:nonzero;stroke:none;stroke-width:0.767208"
       id="text382"
       x="93.337921"
       y="221.35225"><tspan
         x="93.337921 98.217354 103.0968 107.97624 110.41595 115.13429 120.00604 122.44579 125.03127 127.47099 132.71869 138.33464 143.68977 146.27525 148.71497 153.59442 156.03415 160.91357 165.79303"
         y="221.35225"
         sodipodi:role="line"
         id="tspan380"
         style="stroke-width:0.767208">100 ep / AUC: 0.545</tspan></text><text
       style="font-variant:normal;font-weight:normal;font-size:7.67208px;font-family:'DejaVu Sans';-inkscape-font-specification:DejaVuSans;writing-mode:lr-tb;fill:#000000;fill-opacity:1;fill-rule:nonzero;stroke:none;stroke-width:0.767208"
       id="text388"
       x="93.337921"
       y="232.60864"><tspan
         x="93.337921 96.34536 99.498581 104.20158 109.06569 113.06282 115.76339 120.48173 123.63496 126.07466 132.02052 138.64154 143.52098 148.40042 153.27988 158.1593 163.03876 165.47847 168.06396 170.50368 175.75137 181.36734 186.72246 189.30795 191.74767 196.62712 199.06683 203.94626 208.82573"
         y="232.60864"
         sodipodi:role="line"
         id="tspan386"
         style="stroke-width:0.767208">transfer GM12878 / AUC: 0.745</tspan></text></g></svg>
