<?xml version="1.0" encoding="UTF-8" standalone="no"?>
<svg
   xmlns:dc="http://purl.org/dc/elements/1.1/"
   xmlns:cc="http://creativecommons.org/ns#"
   xmlns:rdf="http://www.w3.org/1999/02/22-rdf-syntax-ns#"
   xmlns:svg="http://www.w3.org/2000/svg"
   xmlns="http://www.w3.org/2000/svg"
   xmlns:sodipodi="http://sodipodi.sourceforge.net/DTD/sodipodi-0.dtd"
   xmlns:inkscape="http://www.inkscape.org/namespaces/inkscape"
   version="1.1"
   id="svg2"
   xml:space="preserve"
   width="80mm"
   height="65.300003mm"
   viewBox="0 0 302.36219 246.80316"
   sodipodi:docname="pearson_chr21.svg"
   inkscape:version="1.0.2 (1.0.2+r75+1)"><metadata
     id="metadata8"><rdf:RDF><cc:Work
         rdf:about=""><dc:format>image/svg+xml</dc:format><dc:type
           rdf:resource="http://purl.org/dc/dcmitype/StillImage" /><dc:title></dc:title></cc:Work></rdf:RDF></metadata><defs
     id="defs6"><clipPath
       clipPathUnits="userSpaceOnUse"
       id="clipPath22"><path
         d="M 57.6,38.016 H 414.72 V 304.128 H 57.6 Z"
         id="path20" /></clipPath><clipPath
       clipPathUnits="userSpaceOnUse"
       id="clipPath40"><path
         d="M 57.6,38.016 H 414.72 V 304.128 H 57.6 Z"
         id="path38" /></clipPath><clipPath
       clipPathUnits="userSpaceOnUse"
       id="clipPath58"><path
         d="M 57.6,38.016 H 414.72 V 304.128 H 57.6 Z"
         id="path56" /></clipPath><clipPath
       clipPathUnits="userSpaceOnUse"
       id="clipPath76"><path
         d="M 57.6,38.016 H 414.72 V 304.128 H 57.6 Z"
         id="path74" /></clipPath><clipPath
       clipPathUnits="userSpaceOnUse"
       id="clipPath94"><path
         d="M 57.6,38.016 H 414.72 V 304.128 H 57.6 Z"
         id="path92" /></clipPath><clipPath
       clipPathUnits="userSpaceOnUse"
       id="clipPath112"><path
         d="M 57.6,38.016 H 414.72 V 304.128 H 57.6 Z"
         id="path110" /></clipPath><clipPath
       clipPathUnits="userSpaceOnUse"
       id="clipPath130"><path
         d="M 57.6,38.016 H 414.72 V 304.128 H 57.6 Z"
         id="path128" /></clipPath><clipPath
       clipPathUnits="userSpaceOnUse"
       id="clipPath152"><path
         d="M 57.6,38.016 H 414.72 V 304.128 H 57.6 Z"
         id="path150" /></clipPath><clipPath
       clipPathUnits="userSpaceOnUse"
       id="clipPath170"><path
         d="M 57.6,38.016 H 414.72 V 304.128 H 57.6 Z"
         id="path168" /></clipPath><clipPath
       clipPathUnits="userSpaceOnUse"
       id="clipPath188"><path
         d="M 57.6,38.016 H 414.72 V 304.128 H 57.6 Z"
         id="path186" /></clipPath><clipPath
       clipPathUnits="userSpaceOnUse"
       id="clipPath206"><path
         d="M 57.6,38.016 H 414.72 V 304.128 H 57.6 Z"
         id="path204" /></clipPath><clipPath
       clipPathUnits="userSpaceOnUse"
       id="clipPath224"><path
         d="M 57.6,38.016 H 414.72 V 304.128 H 57.6 Z"
         id="path222" /></clipPath><clipPath
       clipPathUnits="userSpaceOnUse"
       id="clipPath242"><path
         d="M 57.6,38.016 H 414.72 V 304.128 H 57.6 Z"
         id="path240" /></clipPath><clipPath
       clipPathUnits="userSpaceOnUse"
       id="clipPath264"><path
         d="M 57.6,38.016 H 414.72 V 304.128 H 57.6 Z"
         id="path262" /></clipPath><clipPath
       clipPathUnits="userSpaceOnUse"
       id="clipPath274"><path
         d="M 57.6,38.016 H 414.72 V 304.128 H 57.6 Z"
         id="path272" /></clipPath><clipPath
       clipPathUnits="userSpaceOnUse"
       id="clipPath284"><path
         d="M 57.6,38.016 H 414.72 V 304.128 H 57.6 Z"
         id="path282" /></clipPath><clipPath
       clipPathUnits="userSpaceOnUse"
       id="clipPath294"><path
         d="M 57.6,38.016 H 414.72 V 304.128 H 57.6 Z"
         id="path292" /></clipPath><clipPath
       clipPathUnits="userSpaceOnUse"
       id="clipPath304"><path
         d="M 57.6,38.016 H 414.72 V 304.128 H 57.6 Z"
         id="path302" /></clipPath><clipPath
       clipPathUnits="userSpaceOnUse"
       id="clipPath314"><path
         d="M 57.6,38.016 H 414.72 V 304.128 H 57.6 Z"
         id="path312" /></clipPath></defs><sodipodi:namedview
     pagecolor="#ffffff"
     bordercolor="#666666"
     borderopacity="1"
     objecttolerance="10"
     gridtolerance="10"
     guidetolerance="10"
     inkscape:pageopacity="0"
     inkscape:pageshadow="2"
     inkscape:window-width="1920"
     inkscape:window-height="1020"
     id="namedview4"
     showgrid="false"
     units="mm"
     fit-margin-top="0"
     fit-margin-left="0"
     fit-margin-right="0"
     fit-margin-bottom="0"
     inkscape:zoom="1.8598091"
     inkscape:cx="74.278216"
     inkscape:cy="214.56435"
     inkscape:window-x="0"
     inkscape:window-y="0"
     inkscape:window-maximized="1"
     inkscape:current-layer="layer1" /><g
     id="g10"
     inkscape:groupmode="layer"
     inkscape:label="pearson_chr21"
     transform="matrix(1.3333333,0,0,-1.3333333,-28.023958,443.59358)"><g
       id="g16"
       transform="matrix(0.57557337,0,0,0.57557337,8.9205858,141.98889)"><g
         id="g18"
         clip-path="url(#clipPath22)"><path
           d="M 57.6,38.016 V 304.128"
           style="fill:none;stroke:#b0b0b0;stroke-width:0.8;stroke-linecap:square;stroke-linejoin:round;stroke-miterlimit:10;stroke-dasharray:none;stroke-opacity:1"
           id="path24" /></g></g><path
       d="m 42.073612,163.86988 v -2.0145"
       style="fill:#000000;fill-opacity:1;fill-rule:nonzero;stroke:#000000;stroke-width:0.460459;stroke-linecap:butt;stroke-linejoin:round;stroke-miterlimit:10;stroke-dasharray:none;stroke-opacity:1"
       id="path28" /><g
       id="g34"
       transform="matrix(0.57557337,0,0,0.57557337,8.9205858,141.98889)"><g
         id="g36"
         clip-path="url(#clipPath40)"><path
           d="M 113.83937,38.016 V 304.128"
           style="fill:none;stroke:#b0b0b0;stroke-width:0.8;stroke-linecap:square;stroke-linejoin:round;stroke-miterlimit:10;stroke-dasharray:none;stroke-opacity:1"
           id="path42" /></g></g><path
       d="m 74.443496,163.86988 v -2.0145"
       style="fill:#000000;fill-opacity:1;fill-rule:nonzero;stroke:#000000;stroke-width:0.460459;stroke-linecap:butt;stroke-linejoin:round;stroke-miterlimit:10;stroke-dasharray:none;stroke-opacity:1"
       id="path46" /><g
       id="g52"
       transform="matrix(0.57557337,0,0,0.57557337,8.9205858,141.98889)"><g
         id="g54"
         clip-path="url(#clipPath58)"><path
           d="M 170.07874,38.016 V 304.128"
           style="fill:none;stroke:#b0b0b0;stroke-width:0.8;stroke-linecap:square;stroke-linejoin:round;stroke-miterlimit:10;stroke-dasharray:none;stroke-opacity:1"
           id="path60" /></g></g><path
       d="m 106.81338,163.86988 v -2.0145"
       style="fill:#000000;fill-opacity:1;fill-rule:nonzero;stroke:#000000;stroke-width:0.460459;stroke-linecap:butt;stroke-linejoin:round;stroke-miterlimit:10;stroke-dasharray:none;stroke-opacity:1"
       id="path64" /><g
       id="g70"
       transform="matrix(0.57557337,0,0,0.57557337,8.9205858,141.98889)"><g
         id="g72"
         clip-path="url(#clipPath76)"><path
           d="M 226.31811,38.016 V 304.128"
           style="fill:none;stroke:#b0b0b0;stroke-width:0.8;stroke-linecap:square;stroke-linejoin:round;stroke-miterlimit:10;stroke-dasharray:none;stroke-opacity:1"
           id="path78" /></g></g><path
       d="m 139.18327,163.86988 v -2.0145"
       style="fill:#000000;fill-opacity:1;fill-rule:nonzero;stroke:#000000;stroke-width:0.460459;stroke-linecap:butt;stroke-linejoin:round;stroke-miterlimit:10;stroke-dasharray:none;stroke-opacity:1"
       id="path82" /><g
       id="g88"
       transform="matrix(0.57557337,0,0,0.57557337,8.9205858,141.98889)"><g
         id="g90"
         clip-path="url(#clipPath94)"><path
           d="M 282.55748,38.016 V 304.128"
           style="fill:none;stroke:#b0b0b0;stroke-width:0.8;stroke-linecap:square;stroke-linejoin:round;stroke-miterlimit:10;stroke-dasharray:none;stroke-opacity:1"
           id="path96" /></g></g><path
       d="m 171.55315,163.86988 v -2.0145"
       style="fill:#000000;fill-opacity:1;fill-rule:nonzero;stroke:#000000;stroke-width:0.460459;stroke-linecap:butt;stroke-linejoin:round;stroke-miterlimit:10;stroke-dasharray:none;stroke-opacity:1"
       id="path100" /><g
       id="g106"
       transform="matrix(0.57557337,0,0,0.57557337,8.9205858,141.98889)"><g
         id="g108"
         clip-path="url(#clipPath112)"><path
           d="M 338.79685,38.016 V 304.128"
           style="fill:none;stroke:#b0b0b0;stroke-width:0.8;stroke-linecap:square;stroke-linejoin:round;stroke-miterlimit:10;stroke-dasharray:none;stroke-opacity:1"
           id="path114" /></g></g><path
       d="m 203.92303,163.86988 v -2.0145"
       style="fill:#000000;fill-opacity:1;fill-rule:nonzero;stroke:#000000;stroke-width:0.460459;stroke-linecap:butt;stroke-linejoin:round;stroke-miterlimit:10;stroke-dasharray:none;stroke-opacity:1"
       id="path118" /><g
       id="g124"
       transform="matrix(0.57557337,0,0,0.57557337,8.9205858,141.98889)"><g
         id="g126"
         clip-path="url(#clipPath130)"><path
           d="M 395.03622,38.016 V 304.128"
           style="fill:none;stroke:#b0b0b0;stroke-width:0.8;stroke-linecap:square;stroke-linejoin:round;stroke-miterlimit:10;stroke-dasharray:none;stroke-opacity:1"
           id="path132" /></g></g><path
       d="m 236.29291,163.86988 v -2.0145"
       style="fill:#000000;fill-opacity:1;fill-rule:nonzero;stroke:#000000;stroke-width:0.460459;stroke-linecap:butt;stroke-linejoin:round;stroke-miterlimit:10;stroke-dasharray:none;stroke-opacity:1"
       id="path136" /><g
       id="g146"
       transform="matrix(0.57557337,0,0,0.57557337,8.9205858,141.98889)"><g
         id="g148"
         clip-path="url(#clipPath152)"><path
           d="M 57.6,38.016 H 414.72"
           style="fill:none;stroke:#b0b0b0;stroke-width:0.8;stroke-linecap:square;stroke-linejoin:round;stroke-miterlimit:10;stroke-dasharray:none;stroke-opacity:1"
           id="path154" /></g></g><path
       d="M 42.073612,163.86988 H 40.059105"
       style="fill:#000000;fill-opacity:1;fill-rule:nonzero;stroke:#000000;stroke-width:0.460459;stroke-linecap:butt;stroke-linejoin:round;stroke-miterlimit:10;stroke-dasharray:none;stroke-opacity:1"
       id="path158" /><g
       id="g164"
       transform="matrix(0.57557337,0,0,0.57557337,8.9205858,141.98889)"><g
         id="g166"
         clip-path="url(#clipPath170)"><path
           d="M 57.6,91.2384 H 414.72"
           style="fill:none;stroke:#b0b0b0;stroke-width:0.8;stroke-linecap:square;stroke-linejoin:round;stroke-miterlimit:10;stroke-dasharray:none;stroke-opacity:1"
           id="path172" /></g></g><path
       d="M 42.073612,194.50328 H 40.059105"
       style="fill:#000000;fill-opacity:1;fill-rule:nonzero;stroke:#000000;stroke-width:0.460459;stroke-linecap:butt;stroke-linejoin:round;stroke-miterlimit:10;stroke-dasharray:none;stroke-opacity:1"
       id="path176" /><g
       id="g182"
       transform="matrix(0.57557337,0,0,0.57557337,8.9205858,141.98889)"><g
         id="g184"
         clip-path="url(#clipPath188)"><path
           d="M 57.6,144.4608 H 414.72"
           style="fill:none;stroke:#b0b0b0;stroke-width:0.8;stroke-linecap:square;stroke-linejoin:round;stroke-miterlimit:10;stroke-dasharray:none;stroke-opacity:1"
           id="path190" /></g></g><path
       d="M 42.073612,225.13668 H 40.059105"
       style="fill:#000000;fill-opacity:1;fill-rule:nonzero;stroke:#000000;stroke-width:0.460459;stroke-linecap:butt;stroke-linejoin:round;stroke-miterlimit:10;stroke-dasharray:none;stroke-opacity:1"
       id="path194" /><g
       id="g200"
       transform="matrix(0.57557337,0,0,0.57557337,8.9205858,141.98889)"><g
         id="g202"
         clip-path="url(#clipPath206)"><path
           d="M 57.6,197.6832 H 414.72"
           style="fill:none;stroke:#b0b0b0;stroke-width:0.8;stroke-linecap:square;stroke-linejoin:round;stroke-miterlimit:10;stroke-dasharray:none;stroke-opacity:1"
           id="path208" /></g></g><path
       d="M 42.073612,255.77008 H 40.059105"
       style="fill:#000000;fill-opacity:1;fill-rule:nonzero;stroke:#000000;stroke-width:0.460459;stroke-linecap:butt;stroke-linejoin:round;stroke-miterlimit:10;stroke-dasharray:none;stroke-opacity:1"
       id="path212" /><g
       id="g218"
       transform="matrix(0.57557337,0,0,0.57557337,8.9205858,141.98889)"><g
         id="g220"
         clip-path="url(#clipPath224)"><path
           d="M 57.6,250.9056 H 414.72"
           style="fill:none;stroke:#b0b0b0;stroke-width:0.8;stroke-linecap:square;stroke-linejoin:round;stroke-miterlimit:10;stroke-dasharray:none;stroke-opacity:1"
           id="path226" /></g></g><path
       d="M 42.073612,286.40347 H 40.059105"
       style="fill:#000000;fill-opacity:1;fill-rule:nonzero;stroke:#000000;stroke-width:0.460459;stroke-linecap:butt;stroke-linejoin:round;stroke-miterlimit:10;stroke-dasharray:none;stroke-opacity:1"
       id="path230" /><g
       id="g236"
       transform="matrix(0.57557337,0,0,0.57557337,8.9205858,141.98889)"><g
         id="g238"
         clip-path="url(#clipPath242)"><path
           d="M 57.6,304.128 H 414.72"
           style="fill:none;stroke:#b0b0b0;stroke-width:0.8;stroke-linecap:square;stroke-linejoin:round;stroke-miterlimit:10;stroke-dasharray:none;stroke-opacity:1"
           id="path244" /></g></g><path
       d="M 42.073612,317.03687 H 40.059105"
       style="fill:#000000;fill-opacity:1;fill-rule:nonzero;stroke:#000000;stroke-width:0.460459;stroke-linecap:butt;stroke-linejoin:round;stroke-miterlimit:10;stroke-dasharray:none;stroke-opacity:1"
       id="path248" /><g
       id="g260"
       clip-path="url(#clipPath264)"
       transform="matrix(0.57557337,0,0,0.57557337,8.9205858,141.98889)"><path
         d="m 57.6,247.44364 2.811969,-3.11276 5.623937,-11.4756 2.811968,2.88861 2.811969,-0.79611 2.811968,0.86743 2.811969,-0.0668 2.811968,-2.00079 2.811969,3.03974 2.811968,-6.3369 2.811969,1.77573 2.811968,-1.27389 2.811969,-0.4846 2.811968,-1.75292 2.811969,1.49049 2.811972,6.04032 2.81197,-0.15852 2.81196,1.13123 2.81197,-3.54765 2.81197,-4.05432 2.81197,-5.03258 2.81197,1.79753 2.81197,-1.26828 2.81196,4.14052 2.81197,-6.35449 2.81197,-5.12964 2.81197,-2.79572 2.81197,2.37761 2.81197,0.17146 2.81196,-3.36324 2.81197,-0.70823 2.81197,-0.24029 2.81197,-0.96871 2.81197,-0.83238 2.81197,-1.43637 2.81197,2.26708 2.81196,3.09971 2.81197,-3.43624 2.81197,2.01484 2.81197,-0.039 2.81197,1.34123 2.81197,-3.16376 2.81197,-5.46062 2.81196,-9.50136 2.81197,6.35956 2.81197,3.17343 2.81197,-0.091 2.81197,-0.92824 2.81197,5.29748 5.62393,4.53906 2.81197,3.02418 2.81197,-1.34155 2.81197,-2.39458 2.81197,-2.58876 2.81197,1.71565 2.81197,-0.26698 2.81196,-4.75639 2.81197,-1.8909 2.81197,0.78909 2.81197,1.67108 2.81197,-4.04551 2.81197,2.75665 2.81196,-3.70335 2.81197,-3.21243 2.81197,3.49914 2.81197,-4.07475 2.81197,1.19938 2.81197,-0.28722 2.81196,-2.33902 2.81197,-1.54191 2.81197,6.85032 2.81197,1.19738 2.81197,0.0906 2.81197,-8.2889 2.81197,-13.08046 2.81196,16.86933 2.81197,2.85769 2.81197,3.84285 2.81197,-2.06726 2.81197,-1.26699 2.81197,-0.61382 2.81197,3.57586 2.81196,-7.42488 2.81197,5.04477 2.81197,0.90585 2.81197,0.73111 2.81197,-2.65598 2.81197,5.05414 2.81196,-1.00846 2.81197,2.07497 2.81197,-3.95043 2.81197,6.65162 2.81197,-3.14999 2.81197,1.1869 2.81197,-5.1396 2.81197,8.52748 2.81196,-1.56531 2.81197,2.02563 2.81197,1.48138 2.81197,-4.43218 2.81197,1.95756 2.81197,-1.19083 2.81196,-2.9547 2.81197,0.16052 2.81197,5.19617 2.81197,-7.43539 2.81197,1.29243 2.81197,-6.42992 2.81196,3.40718 2.81197,-0.67166 2.81197,1.2563 2.81197,2.39781 2.81197,-4.26657 2.81197,-6.31651 2.81197,2.84764 2.81196,-3.13718 2.81197,-7.80169 2.81197,-1.29029 2.81197,6.96632 2.81197,-6.45153 2.81197,-7.22251 2.81197,-7.59457 2.81196,-14.81736 2.81197,-14.15894 2.81197,-15.91523 2.81197,-8.36805 v 0"
         style="fill:none;stroke:#1f77b4;stroke-width:1.5;stroke-linecap:square;stroke-linejoin:round;stroke-miterlimit:10;stroke-dasharray:none;stroke-opacity:1"
         id="path266" /></g><g
       id="g270"
       clip-path="url(#clipPath274)"
       transform="matrix(0.57557337,0,0,0.57557337,8.9205858,141.98889)"><path
         d="m 57.6,258.19884 2.811969,-5.59117 2.811968,-6.04496 2.811969,-5.15703 5.623937,-2.48927 2.811968,6.34746 2.811969,0.64789 2.811968,-4.5145 2.811969,1.2924 2.811968,-6.60604 2.811969,1.49048 2.811968,0.74244 5.623937,-2.31774 2.811969,1.72311 2.811972,5.64627 2.81197,-3.77107 2.81196,6.51578 2.81197,-2.55805 2.81197,-4.42616 2.81197,-6.13336 2.81197,2.40402 2.81197,-1.71904 2.81196,3.95429 2.81197,-0.0449 2.81197,-8.26966 2.81197,-6.06434 2.81197,0.984 2.81197,0.59357 2.81196,-2.42155 2.81197,-3.633 2.81197,0.75818 2.81197,-0.31211 2.81197,1.22418 2.81197,-1.61623 2.81197,4.39805 2.81196,-1.5284 2.81197,-0.43727 2.81197,1.04586 2.81197,2.58797 2.81197,1.25969 2.81197,0.58015 2.81197,-4.27138 2.81196,-9.27105 2.81197,6.40031 2.81197,2.54412 2.81197,1.36215 2.81197,-0.92831 2.81197,4.66549 2.81197,1.51678 2.81196,0.92107 2.81197,-1.01751 2.81197,1.10141 2.81197,-2.33745 2.81197,-1.48288 5.62394,-1.0122 2.81196,-1.52748 2.81197,-5.20388 2.81197,-0.77961 2.81197,0.27284 2.81197,-1.34277 2.81197,0.52661 2.81196,-1.12708 2.81197,-4.05584 2.81197,1.3892 2.81197,-4.93374 2.81197,-1.59372 2.81197,1.38046 2.81196,-2.44651 2.81197,-4.0864 2.81197,6.69784 2.81197,3.04168 2.81197,-1.4567 2.81197,-7.05247 2.81197,-15.67104 2.81196,16.33928 5.62394,6.61891 2.81197,-0.80857 5.62394,0.0236 2.81197,4.36754 2.81196,-8.75807 2.81197,5.36564 2.81197,0.75744 2.81197,-1.84128 2.81197,-0.8389 2.81197,0.59628 2.81196,1.56152 2.81197,0.38981 2.81197,-0.75874 2.81197,8.36855 2.81197,-3.74952 2.81197,1.12229 2.81197,-1.80571 2.81197,5.11956 2.81196,-1.07272 2.81197,0.89724 2.81197,4.51346 2.81197,-1.94723 2.81197,4.24316 2.81197,-2.40444 2.81196,-1.62084 2.81197,3.3843 2.81197,4.47933 2.81197,-6.05937 2.81197,4.35557 2.81197,-5.54263 2.81196,-0.0646 2.81197,-0.24045 2.81197,1.26959 2.81197,4.22113 2.81197,-0.81054 2.81197,-5.78474 2.81197,-1.30723 2.81196,2.2876 2.81197,-2.76844 2.81197,-7.37807 2.81197,-1.63066 2.81197,-5.27085 2.81197,1.46085 2.81197,-13.19224 2.81196,-7.10769 5.62394,-25.17392 2.81197,-32.62958 v 0"
         style="fill:none;stroke:#ff7f0e;stroke-width:1.5;stroke-linecap:square;stroke-linejoin:round;stroke-miterlimit:10;stroke-dasharray:none;stroke-opacity:1"
         id="path276" /></g><g
       id="g280"
       clip-path="url(#clipPath284)"
       transform="matrix(0.57557337,0,0,0.57557337,8.9205858,141.98889)"><path
         d="m 57.6,258.77172 5.623937,-11.75185 2.811969,-2.74965 2.811968,0.0745 2.811969,-1.45044 2.811968,4.99706 2.811969,0.98636 2.811968,-4.98707 2.811969,1.93255 2.811968,-6.58857 2.811969,-1.13436 2.811968,1.75634 2.811969,0.39275 2.811968,-2.80538 2.811969,3.46379 2.811972,4.97674 2.81197,-3.6928 2.81196,4.25296 2.81197,-0.43498 2.81197,-5.15739 2.81197,-2.93381 2.81197,4.4638 2.81197,0.39985 2.81196,5.05747 2.81197,0.91989 2.81197,-6.60046 2.81197,-8.65265 2.81197,-2.55116 2.81197,0.0943 2.81196,-1.4027 2.81197,-6.12126 2.81197,0.23742 2.81197,0.64908 2.81197,-0.031 2.81197,-0.70853 2.81197,4.86856 2.81196,-2.59221 2.81197,-0.20435 2.81197,-1.84842 2.81197,3.67987 2.81197,0.79493 2.81197,-0.12624 2.81197,-3.05217 2.81196,-7.74941 2.81197,3.24487 2.81197,2.34359 2.81197,-0.39192 2.81197,-0.64366 2.81197,2.05833 2.81197,2.45736 2.81196,-1.25371 2.81197,-2.30325 2.81197,-3.83524 2.81197,-1.99843 2.81197,-0.59142 2.81197,1.10538 2.81197,0.91969 2.81196,-3.33994 2.81197,-5.0625 2.81197,4.16339 2.81197,-0.41836 2.81197,-1.37232 2.81197,0.45002 2.81196,-1.85504 2.81197,-5.03231 2.81197,0.17496 2.81197,-4.3851 2.81197,-0.31688 2.81197,1.42013 2.81196,-2.87 2.81197,-2.4999 2.81197,6.51454 2.81197,2.92096 2.81197,-2.11457 2.81197,-3.88598 2.81197,-16.35338 2.81196,16.48917 5.62394,6.77647 2.81197,0.83566 2.81197,-2.15513 2.81197,2.14925 2.81197,1.80734 2.81196,-7.01377 2.81197,4.39643 2.81197,1.08001 2.81197,-2.55349 2.81197,-0.0266 2.81197,0.67015 2.81196,0.4134 5.62394,-1.64162 2.81197,8.16008 2.81197,0.18431 2.81197,-1.81221 2.81197,-1.1925 2.81197,2.6186 2.81196,2.02708 2.81197,-2.61231 2.81197,3.21901 2.81197,-2.31498 2.81197,5.13562 2.81197,-1.26673 2.81196,-5.95842 2.81197,0.34322 2.81197,9.67538 2.81197,-8.9875 2.81197,2.46744 2.81197,-1.20421 2.81196,0.61589 2.81197,-2.14649 2.81197,4.22531 2.81197,2.96923 2.81197,-4.83297 2.81197,0.87524 2.81197,-5.94042 2.81196,-3.02154 2.81197,2.34303 2.81197,-12.6497 2.81197,6.24485 2.81197,-5.53812 2.81197,-3.97012 2.81197,-7.22808 2.81196,-8.16712 2.81197,-6.3936 2.81197,-3.52009 2.81197,-29.12599 v 0"
         style="fill:none;stroke:#2ca02c;stroke-width:1.5;stroke-linecap:square;stroke-linejoin:round;stroke-miterlimit:10;stroke-dasharray:none;stroke-opacity:1"
         id="path286" /></g><g
       id="g290"
       clip-path="url(#clipPath294)"
       style="stroke:#8c564b;stroke-opacity:1"
       transform="matrix(0.57557337,0,0,0.57557337,8.9205858,141.98889)"><path
         d="m 57.6,260.75356 5.623937,-11.22102 2.811969,-2.54059 2.811968,1.11077 2.811969,-0.61564 2.811968,4.50664 2.811969,-0.0197 2.811968,-5.13017 2.811969,2.67002 2.811968,-5.15977 2.811969,-0.49085 2.811968,0.85774 2.811969,1.00186 2.811968,-2.87878 2.811969,2.207 2.811972,2.98763 2.81197,-1.1321 2.81196,4.11381 2.81197,-1.36958 5.62394,-9.85739 2.81197,5.71095 2.81197,1.33654 2.81196,4.62793 2.81197,0.265 2.81197,-7.15825 2.81197,-9.23492 2.81197,-2.2545 2.81197,-0.74032 2.81196,-2.03254 2.81197,-5.45826 2.81197,-0.67997 2.81197,0.2577 2.81197,0.0916 2.81197,-1.5439 2.81197,6.38463 2.81196,-4.48465 2.81197,-0.67501 2.81197,-1.09523 2.81197,3.75323 2.81197,1.15295 2.81197,-1.6442 2.81197,-2.58157 2.81196,-8.1142 2.81197,2.90333 2.81197,2.32832 2.81197,0.45324 2.81197,-0.85157 2.81197,1.56996 2.81197,2.82148 2.81196,-4.05657 2.81197,-0.12397 2.81197,-5.7522 2.81197,-2.49073 2.81197,1.00403 5.62394,2.79282 2.81196,-2.01955 2.81197,-6.19216 2.81197,5.54626 2.81197,-1.7204 2.81197,-1.41137 2.81197,1.04849 5.62393,-6.964 2.81197,1.44745 2.81197,-5.05657 2.81197,0.76796 2.81197,1.00248 2.81196,-3.15596 2.81197,-0.92346 2.81197,8.09562 2.81197,2.06192 2.81197,0.14554 2.81197,-3.89191 2.81197,-16.37659 2.81196,16.7466 2.81197,3.29102 2.81197,2.77678 2.81197,1.38588 2.81197,-2.55121 2.81197,1.21161 2.81197,3.93377 2.81196,-7.19132 2.81197,5.59916 2.81197,0.27815 2.81197,-2.40819 2.81197,-0.0191 2.81197,1.36507 2.81196,-0.0711 2.81197,-1.33354 2.81197,-0.68133 2.81197,7.99577 2.81197,-0.878 2.81197,1.1708 2.81197,-3.65209 2.81197,4.44696 2.81196,3.10166 2.81197,-4.57951 2.81197,3.35056 2.81197,-1.40527 2.81197,6.29207 2.81197,-2.61328 2.81196,-2.37794 2.81197,0.0354 2.81197,7.46264 2.81197,-5.28319 5.62394,3.4646 2.81196,-0.30778 2.81197,-4.31742 2.81197,-0.54356 2.81197,1.3771 2.81197,-4.41891 2.81197,-6.24607 2.81197,-1.65661 2.81196,4.47614 2.81197,-4.20909 2.81197,-4.47674 2.81197,-0.85172 2.81197,1.59309 2.81197,-2.5493 2.81197,-10.22008 2.81196,-7.42696 2.81197,-14.82404 2.81197,-7.17528 2.81197,-32.75646 v 0"
         style="fill:none;stroke:#8c564b;stroke-width:1.5;stroke-linecap:square;stroke-linejoin:round;stroke-miterlimit:10;stroke-dasharray:none;stroke-opacity:1"
         id="path296" /></g><g
       id="g300"
       clip-path="url(#clipPath304)"
       transform="matrix(0.57557337,0,0,0.57557337,8.9205858,141.98889)"><path
         d="m 57.6,260.0107 2.811969,-4.82097 2.811968,-5.31395 2.811969,-2.46799 2.811968,0.90842 2.811969,-0.092 2.811968,4.17359 2.811969,0.71932 2.811968,-4.44163 2.811969,2.56445 2.811968,-5.77581 2.811969,-0.19647 2.811968,1.81073 2.811969,0.32167 2.811968,-2.69127 2.811969,1.55215 2.811972,2.72004 2.81197,-0.5427 2.81196,2.09235 2.81197,-1.23431 2.81197,-5.48911 2.81197,-4.60387 2.81197,5.3187 2.81197,2.75923 2.81196,4.65515 2.81197,0.66909 2.81197,-7.63648 2.81197,-9.41749 2.81197,-3.59567 2.81197,0.51757 2.81196,-2.09413 2.81197,-5.55892 2.81197,-0.39727 5.62394,-0.33775 2.81197,-1.09684 2.81197,6.33953 2.81196,-4.44495 2.81197,-1.21942 2.81197,-0.92116 2.81197,2.11266 2.81197,2.2832 2.81197,-2.54125 2.81197,-2.84963 2.81196,-8.45787 2.81197,3.62447 5.62394,0.44011 2.81197,-0.91272 2.81197,1.11419 2.81197,3.39203 2.81196,-2.88876 2.81197,-0.35628 2.81197,-4.5038 2.81197,-3.08387 2.81197,1.47821 2.81197,-0.0183 2.81197,1.73814 2.81196,-2.14822 2.81197,-5.30541 2.81197,6.0995 2.81197,-1.27755 2.81197,-0.12107 2.81197,-0.30918 5.62393,-8.87415 2.81197,0.83759 2.81197,-5.35257 2.81197,1.65073 2.81197,0.82318 2.81196,-2.10151 2.81197,-1.91317 2.81197,7.9318 2.81197,2.92882 2.81197,-0.9851 2.81197,-2.63017 2.81197,-16.26308 2.81196,17.0606 2.81197,3.23246 2.81197,2.56354 2.81197,1.99866 2.81197,-1.95063 2.81197,0.37328 2.81197,3.60702 2.81196,-7.04494 2.81197,5.5896 2.81197,1.13878 2.81197,-3.02374 2.81197,0.0643 2.81197,0.84944 2.81196,-1.00526 2.81197,-1.45399 2.81197,0.69183 2.81197,6.91754 2.81197,-0.1166 2.81197,1.81846 2.81197,-4.10777 2.81197,2.24969 2.81196,3.10381 2.81197,-5.30093 2.81197,4.39713 2.81197,-1.44237 2.81197,6.60522 2.81197,-4.09526 2.81196,-3.10007 2.81197,-1.95211 2.81197,4.853 2.81197,-3.29188 2.81197,0.14247 2.81197,0.29453 2.81196,2.99358 2.81197,-3.86074 2.81197,1.67892 2.81197,4.68013 2.81197,-2.54404 2.81197,1.07848 2.81197,-8.4059 2.81196,5.58197 2.81197,1.88033 2.81197,-6.59818 2.81197,2.6386 2.81197,0.98633 2.81197,-0.0442 2.81197,-4.76978 2.81196,-13.15695 2.81197,-6.38927 2.81197,-9.2276 2.81197,-28.48039 v 0"
         style="fill:none;stroke:#9467bd;stroke-width:1.5;stroke-linecap:square;stroke-linejoin:round;stroke-miterlimit:10;stroke-dasharray:none;stroke-opacity:1"
         id="path306" /></g><path
       d="M 42.073612,163.86988 H 247.62237"
       style="fill:none;stroke:#000000;stroke-width:0.460459;stroke-linecap:square;stroke-linejoin:miter;stroke-miterlimit:10;stroke-dasharray:none;stroke-opacity:1"
       id="path324" /><path
       d="M 42.073612,317.03687 H 247.62237"
       style="fill:none;stroke:#000000;stroke-width:0.460459;stroke-linecap:square;stroke-linejoin:miter;stroke-miterlimit:10;stroke-dasharray:none;stroke-opacity:1"
       id="path326" /><path
       d="M 60.05562,215.54796 H 71.567073"
       style="fill:none;stroke:#1f77b4;stroke-width:0.86336;stroke-linecap:square;stroke-linejoin:round;stroke-miterlimit:10;stroke-dasharray:none;stroke-opacity:1"
       id="path336" /><path
       d="M 60.05562,207.10323 H 71.567073"
       style="fill:none;stroke:#ff7f0e;stroke-width:0.86336;stroke-linecap:square;stroke-linejoin:round;stroke-miterlimit:10;stroke-dasharray:none;stroke-opacity:1"
       id="path342" /><path
       d="M 60.05562,198.65849 H 71.567073"
       style="fill:none;stroke:#2ca02c;stroke-width:0.86336;stroke-linecap:square;stroke-linejoin:round;stroke-miterlimit:10;stroke-dasharray:none;stroke-opacity:1"
       id="path348" /><path
       d="M 60.05562,190.21375 H 71.567073"
       style="fill:none;stroke:#8c564b;stroke-width:0.86336;stroke-linecap:square;stroke-linejoin:round;stroke-miterlimit:10;stroke-dasharray:none;stroke-opacity:1"
       id="path354" /><path
       d="M 60.05562,181.76901 H 71.567073"
       style="fill:none;stroke:#9467bd;stroke-width:0.86336;stroke-linecap:square;stroke-linejoin:round;stroke-miterlimit:10;stroke-dasharray:none;stroke-opacity:1"
       id="path360" /><path
       d="M 60.05562,173.32426 H 71.567073"
       style="fill:none;stroke:#d62728;stroke-width:0.86336;stroke-linecap:square;stroke-linejoin:round;stroke-miterlimit:10;stroke-dasharray:none;stroke-opacity:1"
       id="path366" /><g
       id="g310"
       clip-path="url(#clipPath314)"
       style="stroke:#d62728;stroke-opacity:1"
       transform="matrix(0.57557337,0,0,0.57557337,8.9205858,141.98889)"><path
         d="m 57.6,288.09885 2.811969,-9.16321 2.811968,-4.33998 2.811969,-1.32717 2.811968,-2.82998 2.811969,-0.0276 2.811968,-0.65746 2.811969,1.5673 2.811968,1.01526 2.811969,-0.8178 2.811968,4.21959 2.811969,-4.1004 2.811968,2.17298 2.811969,-1.71923 2.811968,-1.86553 2.811969,2.28461 2.811972,-2.36297 2.81197,2.61969 2.81196,-2.69078 2.81197,-3.43365 2.81197,-2.69839 2.81197,1.46297 2.81197,-1.65142 2.81197,-0.99155 2.81196,3.00174 2.81197,-0.45845 2.81197,3.28384 2.81197,-2.80164 2.81197,0.19289 2.81197,1.84096 2.81196,-2.68703 2.81197,-4.48927 2.81197,2.75652 2.81197,-0.11247 2.81197,-1.61573 2.81197,1.61692 2.81197,-3.97285 2.81196,-0.0769 2.81197,4.73306 2.81197,-4.9335 2.81197,4.7381 2.81197,-3.99894 2.81197,4.74329 2.81197,3.82015 2.81196,4.23776 2.81197,-6.84245 2.81197,3.02196 2.81197,-0.81984 2.81197,1.62286 2.81197,-1.03305 2.81197,-6.31778 2.81196,4.51771 2.81197,-2.4799 2.81197,1.65256 2.81197,0.43166 2.81197,-1.30852 2.81197,-2.83362 2.81197,0.99892 2.81196,-3.31386 2.81197,-4.48859 2.81197,-1.24605 2.81197,0.49742 2.81197,1.28791 2.81197,-2.75251 2.81196,1.72646 2.81197,-7.08674 2.81197,0.9825 2.81197,2.62406 2.81197,-4.94826 2.81197,-2.28029 2.81196,1.24124 2.81197,3.85938 2.81197,0.83394 2.81197,-0.72269 2.81197,-3.96196 2.81197,12.47014 2.81197,6.85782 2.81196,-13.36088 2.81197,-8.16051 2.81197,-6.64271 2.81197,-5.53866 2.81197,6.95748 2.81197,-5.91216 2.81197,2.28033 2.81196,-0.21218 2.81197,-3.22813 2.81197,3.34214 2.81197,-2.1465 2.81197,8.78853 2.81197,-4.72296 2.81196,1.82665 2.81197,-3.29733 2.81197,-0.80142 2.81197,2.74766 2.81197,-0.4579 2.81197,0.95284 2.81197,-1.2082 2.81197,-3.04612 2.81196,-0.26893 2.81197,-7.01249 2.81197,7.3068 2.81197,-0.13478 2.81197,-6.39909 2.81197,-8.34577 2.81196,14.10429 2.81197,-3.23787 2.81197,-0.27572 2.81197,7.8485 2.81197,2.19315 2.81197,-9.66754 2.81196,-3.84237 2.81197,9.56904 2.81197,-2.34736 2.81197,-5.61839 2.81197,6.22335 2.81197,-3.68447 2.81197,-1.18701 2.81196,6.08925 2.81197,-4.54623 2.81197,-5.12689 2.81197,3.46417 2.81197,0.6016 2.81197,2.85411 2.81197,-5.86018 2.81196,0.83326 2.81197,5.09869 2.81197,4.17594 2.81197,-4.4999 v 0"
         style="fill:none;stroke:#d62728;stroke-width:1.5;stroke-linecap:square;stroke-linejoin:round;stroke-miterlimit:10;stroke-dasharray:none;stroke-opacity:1"
         id="path316" /></g><path
       d="M 247.62237,163.86988 V 317.03687"
       style="fill:none;stroke:#000000;stroke-width:0.460459;stroke-linecap:square;stroke-linejoin:miter;stroke-miterlimit:10;stroke-dasharray:none;stroke-opacity:1"
       id="path322" /><path
       d="M 42.073612,163.86988 V 317.03687"
       style="fill:none;stroke:#000000;stroke-width:0.460459;stroke-linecap:square;stroke-linejoin:miter;stroke-miterlimit:10;stroke-dasharray:none;stroke-opacity:1"
       id="path320" /></g><g
     inkscape:groupmode="layer"
     id="layer1"
     inkscape:label="text"
     style="display:inline"
     transform="translate(-28.023958,-17.206424)"><text
       style="font-variant:normal;font-weight:normal;font-size:7.67431px;font-family:'DejaVu Sans';-inkscape-font-specification:DejaVuSans;writing-mode:lr-tb;fill:#000000;fill-opacity:1;fill-rule:nonzero;stroke:none;stroke-width:0.767431"
       id="text32"
       x="53.994671"
       y="253.50659"><tspan
         x="53.994671 58.875534 61.315968"
         y="253.50659"
         sodipodi:role="line"
         id="tspan30"
         style="stroke-width:0.767431">0.0</tspan></text><text
       style="font-variant:normal;font-weight:normal;font-size:7.67431px;font-family:'DejaVu Sans';-inkscape-font-specification:DejaVuSans;writing-mode:lr-tb;fill:#000000;fill-opacity:1;fill-rule:nonzero;stroke:none;stroke-width:0.767431"
       id="text50"
       x="93.154526"
       y="253.50659"><tspan
         x="93.154526 98.035378 100.47581"
         y="253.50659"
         sodipodi:role="line"
         id="tspan48"
         style="stroke-width:0.767431">0.5</tspan></text><text
       style="font-variant:normal;font-weight:normal;font-size:7.67431px;font-family:'DejaVu Sans';-inkscape-font-specification:DejaVuSans;writing-mode:lr-tb;fill:#000000;fill-opacity:1;fill-rule:nonzero;stroke:none;stroke-width:0.767431"
       id="text68"
       x="136.31436"
       y="253.50659"><tspan
         x="136.31436 141.19522 143.63565"
         y="253.50659"
         sodipodi:role="line"
         id="tspan66"
         style="stroke-width:0.767431">1.0</tspan></text><text
       style="font-variant:normal;font-weight:normal;font-size:7.67431px;font-family:'DejaVu Sans';-inkscape-font-specification:DejaVuSans;writing-mode:lr-tb;fill:#000000;fill-opacity:1;fill-rule:nonzero;stroke:none;stroke-width:0.767431"
       id="text86"
       x="179.4742"
       y="253.50659"><tspan
         x="179.4742 184.35506 186.7955"
         y="253.50659"
         sodipodi:role="line"
         id="tspan84"
         style="stroke-width:0.767431">1.5</tspan></text><text
       style="font-variant:normal;font-weight:normal;font-size:7.67431px;font-family:'DejaVu Sans';-inkscape-font-specification:DejaVuSans;writing-mode:lr-tb;fill:#000000;fill-opacity:1;fill-rule:nonzero;stroke:none;stroke-width:0.767431"
       id="text104"
       x="222.63406"
       y="253.50659"><tspan
         x="222.63406 227.51491 229.95534"
         y="253.50659"
         sodipodi:role="line"
         id="tspan102"
         style="stroke-width:0.767431">2.0</tspan></text><text
       style="font-variant:normal;font-weight:normal;font-size:7.67431px;font-family:'DejaVu Sans';-inkscape-font-specification:DejaVuSans;writing-mode:lr-tb;fill:#000000;fill-opacity:1;fill-rule:nonzero;stroke:none;stroke-width:0.767431"
       id="text122"
       x="265.79388"
       y="253.50659"><tspan
         x="265.79388 270.67477 273.1152"
         y="253.50659"
         sodipodi:role="line"
         id="tspan120"
         style="stroke-width:0.767431">2.5</tspan></text><text
       style="font-variant:normal;font-weight:normal;font-size:7.67431px;font-family:'DejaVu Sans';-inkscape-font-specification:DejaVuSans;writing-mode:lr-tb;fill:#000000;fill-opacity:1;fill-rule:nonzero;stroke:none;stroke-width:0.767431"
       id="text140"
       x="308.95374"
       y="253.50659"><tspan
         x="308.95374 313.83459 316.27505"
         y="253.50659"
         sodipodi:role="line"
         id="tspan138"
         style="stroke-width:0.767431">3.0</tspan></text><text
       style="font-variant:normal;font-weight:normal;font-size:7.67431px;font-family:'DejaVu Sans';-inkscape-font-specification:DejaVuSans;writing-mode:lr-tb;fill:#000000;fill-opacity:1;fill-rule:nonzero;stroke:none;stroke-width:0.767431"
       id="text144"
       x="146.68309"
       y="263.99866"><tspan
         x="146.68309 152.63068 157.35037 162.21588 166.91258 174.38733 176.5208 180.74167 183.1821 188.05528 190.18875 194.18707 197.19539 201.89975 206.76526 210.98615 215.70584 218.14627 220.73251 223.17293 229.79587 234.66905"
         y="263.99866"
         sodipodi:role="line"
         id="tspan142"
         style="stroke-width:0.767431">Genomic distance / Mbp</tspan></text><text
       style="font-variant:normal;font-weight:normal;font-size:7.67431px;font-family:'DejaVu Sans';-inkscape-font-specification:DejaVuSans;writing-mode:lr-tb;fill:#000000;fill-opacity:1;fill-rule:nonzero;stroke:none;stroke-width:0.767431"
       id="text162"
       x="38.519176"
       y="245.22073"><tspan
         x="38.519176 43.40004 45.840473"
         y="245.22073"
         sodipodi:role="line"
         id="tspan160"
         style="stroke-width:0.767431">0.0</tspan></text><text
       style="font-variant:normal;font-weight:normal;font-size:7.67431px;font-family:'DejaVu Sans';-inkscape-font-specification:DejaVuSans;writing-mode:lr-tb;fill:#000000;fill-opacity:1;fill-rule:nonzero;stroke:none;stroke-width:0.767431"
       id="text180"
       x="38.519176"
       y="204.37621"><tspan
         x="38.519176 43.40004 45.840473"
         y="204.37621"
         sodipodi:role="line"
         id="tspan178"
         style="stroke-width:0.767431">0.2</tspan></text><text
       style="font-variant:normal;font-weight:normal;font-size:7.67431px;font-family:'DejaVu Sans';-inkscape-font-specification:DejaVuSans;writing-mode:lr-tb;fill:#000000;fill-opacity:1;fill-rule:nonzero;stroke:none;stroke-width:0.767431"
       id="text198"
       x="38.519176"
       y="163.53168"><tspan
         x="38.519176 43.40004 45.840473"
         y="163.53168"
         sodipodi:role="line"
         id="tspan196"
         style="stroke-width:0.767431">0.4</tspan></text><text
       style="font-variant:normal;font-weight:normal;font-size:7.67431px;font-family:'DejaVu Sans';-inkscape-font-specification:DejaVuSans;writing-mode:lr-tb;fill:#000000;fill-opacity:1;fill-rule:nonzero;stroke:none;stroke-width:0.767431"
       id="text216"
       x="38.519176"
       y="122.68704"><tspan
         x="38.519176 43.40004 45.840473"
         y="122.68704"
         sodipodi:role="line"
         id="tspan214"
         style="stroke-width:0.767431">0.6</tspan></text><text
       style="font-variant:normal;font-weight:normal;font-size:7.67431px;font-family:'DejaVu Sans';-inkscape-font-specification:DejaVuSans;writing-mode:lr-tb;fill:#000000;fill-opacity:1;fill-rule:nonzero;stroke:none;stroke-width:0.767431"
       id="text234"
       x="38.519176"
       y="81.842545"><tspan
         x="38.519176 43.40004 45.840473"
         y="81.842545"
         sodipodi:role="line"
         id="tspan232"
         style="stroke-width:0.767431">0.8</tspan></text><text
       style="font-variant:normal;font-weight:normal;font-size:7.67431px;font-family:'DejaVu Sans';-inkscape-font-specification:DejaVuSans;writing-mode:lr-tb;fill:#000000;fill-opacity:1;fill-rule:nonzero;stroke:none;stroke-width:0.767431"
       id="text252"
       x="38.519176"
       y="40.998066"><tspan
         x="38.519176 43.40004 45.840473"
         y="40.998066"
         sodipodi:role="line"
         id="tspan250"
         style="stroke-width:0.767431">1.0</tspan></text><text
       transform="rotate(-90)"
       style="font-variant:normal;font-weight:normal;font-size:7.67431px;font-family:'DejaVu Sans';-inkscape-font-specification:DejaVuSans;writing-mode:lr-tb;fill:#000000;fill-opacity:1;fill-rule:nonzero;stroke:none;stroke-width:0.767431"
       id="text256"
       x="-177.27209"
       y="33.854633"><tspan
         x="-177.27209 -172.64449 -167.92479 -163.22043 -160.06628 -156.06798 -151.37128 -146.50578 -144.06535 -139.84447 -135.1478 -131.99365 -128.83951 -124.11971 -121.98627 -117.28189 -114.27357 -112.14012 -107.44344"
         y="33.854633"
         sodipodi:role="line"
         id="tspan254"
         style="stroke-width:0.767431">Pearson correlation</tspan></text><text
       style="font-variant:normal;font-weight:normal;font-size:9.20917px;font-family:'DejaVu Sans';-inkscape-font-specification:DejaVuSans;writing-mode:lr-tb;fill:#000000;fill-opacity:1;fill-rule:nonzero;stroke:none;stroke-width:0.767431"
       id="text330"
       x="98.358902"
       y="23.157679"><tspan
         x="98.358902 103.91203 109.57568 115.22091 119.00586 123.80384 129.43987 135.27849 138.207 143.27203 148.90807 152.69304 156.47798 162.14163 164.7018 170.34702 173.95702 176.51717 182.15317 187.99178 190.92032 196.37215 201.17012 204.09863 207.02715 212.87498 218.53862 224.37721 230.01326 238.98299 241.54312 246.60818 249.5367 255.38454 257.94467 262.74265 266.35263 271.99786 277.83646 282.90155"
         y="23.157679"
         sodipodi:role="line"
         id="tspan328"
         style="stroke-width:0.767431">Pearson correlation vs. genomic distance</tspan></text><text
       style="font-variant:normal;font-weight:normal;font-size:9.20917px;font-family:'DejaVu Sans';-inkscape-font-specification:DejaVuSans;writing-mode:lr-tb;fill:#000000;fill-opacity:1;fill-rule:nonzero;stroke:none;stroke-width:0.767431"
       id="text334"
       x="61.075226"
       y="33.479637"><tspan
         x="61.075226 68.212334 76.159851 82.016884 87.873917 93.730949 99.58799 105.44501 108.37354 111.30206 117.1591 120.08761 125.94464 128.87317 134.73019 137.65872 143.51576 146.44426 152.3013 155.22983 161.08687 166.94388 169.87241 175.72943 181.58647 184.51498 190.37202 196.22905 199.15758 205.0146 210.87164 213.80017 219.6572 225.51425 228.44275 234.29979 240.15681 243.08534 248.94237 254.79941 257.72794 263.58496 269.44199 272.37051 278.00653 283.84512 286.77368 292.81485 298.67194 304.52893 310.38602 313.31448 316.24301 322.10007"
         y="33.479637"
         sodipodi:role="line"
         id="tspan332"
         style="stroke-width:0.767431">GM12878, 1,2,4,7,9,11,13,14,16,17,18,20,22 on K562, 21</tspan></text><text
       style="font-variant:normal;font-weight:normal;font-size:7.67431px;font-family:'DejaVu Sans';-inkscape-font-specification:DejaVuSans;writing-mode:lr-tb;fill:#000000;fill-opacity:1;fill-rule:nonzero;stroke:none;stroke-width:0.767431"
       id="text340"
       x="101.56225"
       y="176.08879"><tspan
         x="101.56225 106.44311 111.32397 113.7644 118.48409 123.35728 125.79771 128.38394 130.8244 136.07362 141.69122 147.04787 149.63411 152.07457 156.95541 159.39584 164.2767 169.15756"
         y="176.08879"
         sodipodi:role="line"
         id="tspan338"
         style="stroke-width:0.767431">20 ep / AUC: 0.648</tspan></text><text
       style="font-variant:normal;font-weight:normal;font-size:7.67431px;font-family:'DejaVu Sans';-inkscape-font-specification:DejaVuSans;writing-mode:lr-tb;fill:#000000;fill-opacity:1;fill-rule:nonzero;stroke:none;stroke-width:0.767431"
       id="text346"
       x="101.56225"
       y="187.34845"><tspan
         x="101.56225 106.44311 111.32397 113.7644 118.48409 123.35728 125.79771 128.38394 130.8244 136.07362 141.69122 147.04787 149.63411 152.07457 156.95541 159.39584 164.2767 169.15756"
         y="187.34845"
         sodipodi:role="line"
         id="tspan344"
         style="stroke-width:0.767431">40 ep / AUC: 0.686</tspan></text><text
       style="font-variant:normal;font-weight:normal;font-size:7.67431px;font-family:'DejaVu Sans';-inkscape-font-specification:DejaVuSans;writing-mode:lr-tb;fill:#000000;fill-opacity:1;fill-rule:nonzero;stroke:none;stroke-width:0.767431"
       id="text352"
       x="101.56225"
       y="198.60809"><tspan
         x="101.56225 106.44311 111.32397 113.7644 118.48409 123.35728 125.79771 128.38394 130.8244 136.07362 141.69122 147.04787 149.63411 152.07457 156.95541 159.39584 164.2767 169.15756"
         y="198.60809"
         sodipodi:role="line"
         id="tspan350"
         style="stroke-width:0.767431">60 ep / AUC: 0.679</tspan></text><text
       style="font-variant:normal;font-weight:normal;font-size:7.67431px;font-family:'DejaVu Sans';-inkscape-font-specification:DejaVuSans;writing-mode:lr-tb;fill:#000000;fill-opacity:1;fill-rule:nonzero;stroke:none;stroke-width:0.767431"
       id="text358"
       x="101.56225"
       y="209.86775"><tspan
         x="101.56225 106.44311 111.32397 113.7644 118.48409 123.35728 125.79771 128.38394 130.8244 136.07362 141.69122 147.04787 149.63411 152.07457 156.95541 159.39584 164.2767 169.15756"
         y="209.86775"
         sodipodi:role="line"
         id="tspan356"
         style="stroke-width:0.767431">80 ep / AUC: 0.690</tspan></text><text
       style="font-variant:normal;font-weight:normal;font-size:7.67431px;font-family:'DejaVu Sans';-inkscape-font-specification:DejaVuSans;writing-mode:lr-tb;fill:#000000;fill-opacity:1;fill-rule:nonzero;stroke:none;stroke-width:0.767431"
       id="text364"
       x="101.56225"
       y="221.1274"><tspan
         x="101.56225 106.44311 111.32397 113.7644 118.48409 123.35728 125.79771 128.38394 130.8244 136.07362 141.69122 147.04787 149.63411 152.07457 156.95541 159.39584 164.2767 169.15756"
         y="221.1274"
         sodipodi:role="line"
         id="tspan362"
         style="stroke-width:0.767431">90 ep / AUC: 0.686</tspan></text><text
       style="font-variant:normal;font-weight:normal;font-size:7.67431px;font-family:'DejaVu Sans';-inkscape-font-specification:DejaVuSans;writing-mode:lr-tb;fill:#000000;fill-opacity:1;fill-rule:nonzero;stroke:none;stroke-width:0.767431"
       id="text370"
       x="101.56225"
       y="232.38707"><tspan
         x="101.56225 104.57056 107.72472 112.42907 117.29458 121.2929 123.99424 128.71396 131.86809 134.30852 140.2561 146.87903 151.7599 156.64078 161.52165 166.4025 171.28337 173.72379 176.31004 178.75046 183.99969 189.61729 194.97395 197.56021 200.00063 204.8815 207.32193 212.2027 217.08357"
         y="232.38707"
         sodipodi:role="line"
         id="tspan368"
         style="stroke-width:0.767431">transfer GM12878 / AUC: 0.801</tspan></text></g></svg>
