<?xml version="1.0" encoding="UTF-8" standalone="no"?>
<svg
   xmlns:dc="http://purl.org/dc/elements/1.1/"
   xmlns:cc="http://creativecommons.org/ns#"
   xmlns:rdf="http://www.w3.org/1999/02/22-rdf-syntax-ns#"
   xmlns:svg="http://www.w3.org/2000/svg"
   xmlns="http://www.w3.org/2000/svg"
   xmlns:sodipodi="http://sodipodi.sourceforge.net/DTD/sodipodi-0.dtd"
   xmlns:inkscape="http://www.inkscape.org/namespaces/inkscape"
   version="1.1"
   id="svg2"
   xml:space="preserve"
   width="80mm"
   height="65.300003mm"
   viewBox="0 0 302.36219 246.80316"
   sodipodi:docname="pearson_chr21.svg"
   inkscape:version="1.0.2 (1.0.2+r75+1)"><metadata
     id="metadata8"><rdf:RDF><cc:Work
         rdf:about=""><dc:format>image/svg+xml</dc:format><dc:type
           rdf:resource="http://purl.org/dc/dcmitype/StillImage" /><dc:title></dc:title></cc:Work></rdf:RDF></metadata><defs
     id="defs6"><clipPath
       clipPathUnits="userSpaceOnUse"
       id="clipPath22"><path
         d="M 57.6,38.016 H 414.72 V 304.128 H 57.6 Z"
         id="path20" /></clipPath><clipPath
       clipPathUnits="userSpaceOnUse"
       id="clipPath40"><path
         d="M 57.6,38.016 H 414.72 V 304.128 H 57.6 Z"
         id="path38" /></clipPath><clipPath
       clipPathUnits="userSpaceOnUse"
       id="clipPath58"><path
         d="M 57.6,38.016 H 414.72 V 304.128 H 57.6 Z"
         id="path56" /></clipPath><clipPath
       clipPathUnits="userSpaceOnUse"
       id="clipPath76"><path
         d="M 57.6,38.016 H 414.72 V 304.128 H 57.6 Z"
         id="path74" /></clipPath><clipPath
       clipPathUnits="userSpaceOnUse"
       id="clipPath94"><path
         d="M 57.6,38.016 H 414.72 V 304.128 H 57.6 Z"
         id="path92" /></clipPath><clipPath
       clipPathUnits="userSpaceOnUse"
       id="clipPath112"><path
         d="M 57.6,38.016 H 414.72 V 304.128 H 57.6 Z"
         id="path110" /></clipPath><clipPath
       clipPathUnits="userSpaceOnUse"
       id="clipPath130"><path
         d="M 57.6,38.016 H 414.72 V 304.128 H 57.6 Z"
         id="path128" /></clipPath><clipPath
       clipPathUnits="userSpaceOnUse"
       id="clipPath148"><path
         d="M 57.6,38.016 H 414.72 V 304.128 H 57.6 Z"
         id="path146" /></clipPath><clipPath
       clipPathUnits="userSpaceOnUse"
       id="clipPath170"><path
         d="M 57.6,38.016 H 414.72 V 304.128 H 57.6 Z"
         id="path168" /></clipPath><clipPath
       clipPathUnits="userSpaceOnUse"
       id="clipPath188"><path
         d="M 57.6,38.016 H 414.72 V 304.128 H 57.6 Z"
         id="path186" /></clipPath><clipPath
       clipPathUnits="userSpaceOnUse"
       id="clipPath206"><path
         d="M 57.6,38.016 H 414.72 V 304.128 H 57.6 Z"
         id="path204" /></clipPath><clipPath
       clipPathUnits="userSpaceOnUse"
       id="clipPath224"><path
         d="M 57.6,38.016 H 414.72 V 304.128 H 57.6 Z"
         id="path222" /></clipPath><clipPath
       clipPathUnits="userSpaceOnUse"
       id="clipPath242"><path
         d="M 57.6,38.016 H 414.72 V 304.128 H 57.6 Z"
         id="path240" /></clipPath><clipPath
       clipPathUnits="userSpaceOnUse"
       id="clipPath260"><path
         d="M 57.6,38.016 H 414.72 V 304.128 H 57.6 Z"
         id="path258" /></clipPath><clipPath
       clipPathUnits="userSpaceOnUse"
       id="clipPath282"><path
         d="M 57.6,38.016 H 414.72 V 304.128 H 57.6 Z"
         id="path280" /></clipPath><clipPath
       clipPathUnits="userSpaceOnUse"
       id="clipPath292"><path
         d="M 57.6,38.016 H 414.72 V 304.128 H 57.6 Z"
         id="path290" /></clipPath><clipPath
       clipPathUnits="userSpaceOnUse"
       id="clipPath302"><path
         d="M 57.6,38.016 H 414.72 V 304.128 H 57.6 Z"
         id="path300" /></clipPath><clipPath
       clipPathUnits="userSpaceOnUse"
       id="clipPath312"><path
         d="M 57.6,38.016 H 414.72 V 304.128 H 57.6 Z"
         id="path310" /></clipPath><clipPath
       clipPathUnits="userSpaceOnUse"
       id="clipPath322"><path
         d="M 57.6,38.016 H 414.72 V 304.128 H 57.6 Z"
         id="path320" /></clipPath><clipPath
       clipPathUnits="userSpaceOnUse"
       id="clipPath332"><path
         d="M 57.6,38.016 H 414.72 V 304.128 H 57.6 Z"
         id="path330" /></clipPath></defs><sodipodi:namedview
     pagecolor="#ffffff"
     bordercolor="#666666"
     borderopacity="1"
     objecttolerance="10"
     gridtolerance="10"
     guidetolerance="10"
     inkscape:pageopacity="0"
     inkscape:pageshadow="2"
     inkscape:window-width="1920"
     inkscape:window-height="1020"
     id="namedview4"
     showgrid="false"
     fit-margin-top="0"
     fit-margin-left="0"
     fit-margin-right="0"
     fit-margin-bottom="0"
     units="mm"
     inkscape:zoom="5.2603344"
     inkscape:cx="76.148402"
     inkscape:cy="149.73823"
     inkscape:window-x="0"
     inkscape:window-y="0"
     inkscape:window-maximized="1"
     inkscape:current-layer="layer1" /><g
     id="g10"
     inkscape:groupmode="layer"
     inkscape:label="pearson_chr21"
     transform="matrix(1.3333333,0,0,-1.3333333,-28.023958,443.59357)"><path
       d="m 42.066819,308.71413 3.261626,-4.47963 3.261627,-2.49392 3.261626,-0.76637 3.261626,-1.13986 3.261626,0.83206 3.261626,-0.50236 3.261626,-0.28259 3.261626,0.0438 3.261625,-0.2584 3.261625,2.16431 3.261632,-1.87953 3.261625,1.15644 3.261626,-0.96586 3.261624,-1.24355 3.261626,1.17737 3.261625,-1.2272 3.261626,1.81743 3.261628,-0.6463 3.26163,-0.90959 3.26162,-2.27584 3.26163,-0.68514 3.26162,-1.45193 3.26163,-0.7071 3.26162,1.63908 3.26164,-0.46862 3.26162,0.58708 3.26163,-1.40726 3.26162,0.72037 3.26162,0.70079 3.26163,-0.46502 3.26162,-2.64792 3.26164,2.54886 3.26162,-0.5338 3.26163,-0.65909 3.26162,0.82976 3.26163,-1.8565 3.26162,-0.0163 3.26163,2.29302 3.26163,-3.05525 3.26163,2.68221 3.26162,-2.03607 3.26163,2.04314 3.26162,2.2771 3.26163,1.9852 3.26162,-3.78908 3.26164,1.38681 3.26162,-0.31846 3.26163,1.02109 3.26162,-0.85548 3.26163,-3.51004 3.26162,2.64285 3.26162,-1.54506 3.26164,0.99311 3.26162,0.26184 3.26163,-0.7871 3.26162,-1.9741 3.26163,0.53277 3.26162,-1.7322 3.26163,-2.87342 3.26163,-0.9701 3.26163,0.50569 3.26162,0.36371 3.26163,-2.0093"
       style="fill:none;stroke:#d62728;stroke-width:0.863081;stroke-linecap:square;stroke-linejoin:round;stroke-miterlimit:10;stroke-dasharray:none;stroke-opacity:1"
       id="path334" /><g
       id="g16"
       transform="matrix(0.57538768,0,0,0.57538768,8.9244886,141.97209)"><g
         id="g18"
         clip-path="url(#clipPath22)"><path
           d="M 57.6,38.016 V 304.128"
           style="fill:none;stroke:#b0b0b0;stroke-width:0.8;stroke-linecap:square;stroke-linejoin:round;stroke-miterlimit:10;stroke-dasharray:none;stroke-opacity:1"
           id="path24" /></g></g><path
       d="m 42.066819,163.84604 v -2.01386"
       style="fill:#000000;fill-opacity:1;fill-rule:nonzero;stroke:#000000;stroke-width:0.46031;stroke-linecap:butt;stroke-linejoin:round;stroke-miterlimit:10;stroke-dasharray:none;stroke-opacity:1"
       id="path28" /><g
       id="g34"
       transform="matrix(0.57538768,0,0,0.57538768,8.9244886,141.97209)"><g
         id="g36"
         clip-path="url(#clipPath40)"><path
           d="M 102.94857,38.016 V 304.128"
           style="fill:none;stroke:#b0b0b0;stroke-width:0.8;stroke-linecap:square;stroke-linejoin:round;stroke-miterlimit:10;stroke-dasharray:none;stroke-opacity:1"
           id="path42" /></g></g><path
       d="m 68.159828,163.84604 v -2.01386"
       style="fill:#000000;fill-opacity:1;fill-rule:nonzero;stroke:#000000;stroke-width:0.46031;stroke-linecap:butt;stroke-linejoin:round;stroke-miterlimit:10;stroke-dasharray:none;stroke-opacity:1"
       id="path46" /><g
       id="g52"
       transform="matrix(0.57538768,0,0,0.57538768,8.9244886,141.97209)"><g
         id="g54"
         clip-path="url(#clipPath58)"><path
           d="M 148.29714,38.016 V 304.128"
           style="fill:none;stroke:#b0b0b0;stroke-width:0.8;stroke-linecap:square;stroke-linejoin:round;stroke-miterlimit:10;stroke-dasharray:none;stroke-opacity:1"
           id="path60" /></g></g><path
       d="m 94.252836,163.84604 v -2.01386"
       style="fill:#000000;fill-opacity:1;fill-rule:nonzero;stroke:#000000;stroke-width:0.46031;stroke-linecap:butt;stroke-linejoin:round;stroke-miterlimit:10;stroke-dasharray:none;stroke-opacity:1"
       id="path64" /><g
       id="g70"
       transform="matrix(0.57538768,0,0,0.57538768,8.9244886,141.97209)"><g
         id="g72"
         clip-path="url(#clipPath76)"><path
           d="M 193.64571,38.016 V 304.128"
           style="fill:none;stroke:#b0b0b0;stroke-width:0.8;stroke-linecap:square;stroke-linejoin:round;stroke-miterlimit:10;stroke-dasharray:none;stroke-opacity:1"
           id="path78" /></g></g><path
       d="m 120.34584,163.84604 v -2.01386"
       style="fill:#000000;fill-opacity:1;fill-rule:nonzero;stroke:#000000;stroke-width:0.46031;stroke-linecap:butt;stroke-linejoin:round;stroke-miterlimit:10;stroke-dasharray:none;stroke-opacity:1"
       id="path82" /><g
       id="g88"
       transform="matrix(0.57538768,0,0,0.57538768,8.9244886,141.97209)"><g
         id="g90"
         clip-path="url(#clipPath94)"><path
           d="M 238.99429,38.016 V 304.128"
           style="fill:none;stroke:#b0b0b0;stroke-width:0.8;stroke-linecap:square;stroke-linejoin:round;stroke-miterlimit:10;stroke-dasharray:none;stroke-opacity:1"
           id="path96" /></g></g><path
       d="m 146.43886,163.84604 v -2.01386"
       style="fill:#000000;fill-opacity:1;fill-rule:nonzero;stroke:#000000;stroke-width:0.46031;stroke-linecap:butt;stroke-linejoin:round;stroke-miterlimit:10;stroke-dasharray:none;stroke-opacity:1"
       id="path100" /><g
       id="g106"
       transform="matrix(0.57538768,0,0,0.57538768,8.9244886,141.97209)"><g
         id="g108"
         clip-path="url(#clipPath112)"><path
           d="M 284.34286,38.016 V 304.128"
           style="fill:none;stroke:#b0b0b0;stroke-width:0.8;stroke-linecap:square;stroke-linejoin:round;stroke-miterlimit:10;stroke-dasharray:none;stroke-opacity:1"
           id="path114" /></g></g><path
       d="m 172.53187,163.84604 v -2.01386"
       style="fill:#000000;fill-opacity:1;fill-rule:nonzero;stroke:#000000;stroke-width:0.46031;stroke-linecap:butt;stroke-linejoin:round;stroke-miterlimit:10;stroke-dasharray:none;stroke-opacity:1"
       id="path118" /><g
       id="g124"
       transform="matrix(0.57538768,0,0,0.57538768,8.9244886,141.97209)"><g
         id="g126"
         clip-path="url(#clipPath130)"><path
           d="M 329.69143,38.016 V 304.128"
           style="fill:none;stroke:#b0b0b0;stroke-width:0.8;stroke-linecap:square;stroke-linejoin:round;stroke-miterlimit:10;stroke-dasharray:none;stroke-opacity:1"
           id="path132" /></g></g><path
       d="m 198.62488,163.84604 v -2.01386"
       style="fill:#000000;fill-opacity:1;fill-rule:nonzero;stroke:#000000;stroke-width:0.46031;stroke-linecap:butt;stroke-linejoin:round;stroke-miterlimit:10;stroke-dasharray:none;stroke-opacity:1"
       id="path136" /><g
       id="g142"
       transform="matrix(0.57538768,0,0,0.57538768,8.9244886,141.97209)"><g
         id="g144"
         clip-path="url(#clipPath148)"><path
           d="M 375.04,38.016 V 304.128"
           style="fill:none;stroke:#b0b0b0;stroke-width:0.8;stroke-linecap:square;stroke-linejoin:round;stroke-miterlimit:10;stroke-dasharray:none;stroke-opacity:1"
           id="path150" /></g></g><path
       d="m 224.71788,163.84604 v -2.01386"
       style="fill:#000000;fill-opacity:1;fill-rule:nonzero;stroke:#000000;stroke-width:0.46031;stroke-linecap:butt;stroke-linejoin:round;stroke-miterlimit:10;stroke-dasharray:none;stroke-opacity:1"
       id="path154" /><g
       id="g164"
       transform="matrix(0.57538768,0,0,0.57538768,8.9244886,141.97209)"><g
         id="g166"
         clip-path="url(#clipPath170)"><path
           d="M 57.6,38.016 H 414.72"
           style="fill:none;stroke:#b0b0b0;stroke-width:0.8;stroke-linecap:square;stroke-linejoin:round;stroke-miterlimit:10;stroke-dasharray:none;stroke-opacity:1"
           id="path172" /></g></g><path
       d="M 42.066819,163.84604 H 40.052963"
       style="fill:#000000;fill-opacity:1;fill-rule:nonzero;stroke:#000000;stroke-width:0.46031;stroke-linecap:butt;stroke-linejoin:round;stroke-miterlimit:10;stroke-dasharray:none;stroke-opacity:1"
       id="path176" /><g
       id="g182"
       transform="matrix(0.57538768,0,0,0.57538768,8.9244886,141.97209)"><g
         id="g184"
         clip-path="url(#clipPath188)"><path
           d="M 57.6,91.2384 H 414.72"
           style="fill:none;stroke:#b0b0b0;stroke-width:0.8;stroke-linecap:square;stroke-linejoin:round;stroke-miterlimit:10;stroke-dasharray:none;stroke-opacity:1"
           id="path190" /></g></g><path
       d="M 42.066819,194.46954 H 40.052963"
       style="fill:#000000;fill-opacity:1;fill-rule:nonzero;stroke:#000000;stroke-width:0.46031;stroke-linecap:butt;stroke-linejoin:round;stroke-miterlimit:10;stroke-dasharray:none;stroke-opacity:1"
       id="path194" /><g
       id="g200"
       transform="matrix(0.57538768,0,0,0.57538768,8.9244886,141.97209)"><g
         id="g202"
         clip-path="url(#clipPath206)"><path
           d="M 57.6,144.4608 H 414.72"
           style="fill:none;stroke:#b0b0b0;stroke-width:0.8;stroke-linecap:square;stroke-linejoin:round;stroke-miterlimit:10;stroke-dasharray:none;stroke-opacity:1"
           id="path208" /></g></g><path
       d="M 42.066819,225.09306 H 40.052963"
       style="fill:#000000;fill-opacity:1;fill-rule:nonzero;stroke:#000000;stroke-width:0.46031;stroke-linecap:butt;stroke-linejoin:round;stroke-miterlimit:10;stroke-dasharray:none;stroke-opacity:1"
       id="path212" /><g
       id="g218"
       transform="matrix(0.57538768,0,0,0.57538768,8.9244886,141.97209)"><g
         id="g220"
         clip-path="url(#clipPath224)"><path
           d="M 57.6,197.6832 H 414.72"
           style="fill:none;stroke:#b0b0b0;stroke-width:0.8;stroke-linecap:square;stroke-linejoin:round;stroke-miterlimit:10;stroke-dasharray:none;stroke-opacity:1"
           id="path226" /></g></g><path
       d="M 42.066819,255.71657 H 40.052963"
       style="fill:#000000;fill-opacity:1;fill-rule:nonzero;stroke:#000000;stroke-width:0.46031;stroke-linecap:butt;stroke-linejoin:round;stroke-miterlimit:10;stroke-dasharray:none;stroke-opacity:1"
       id="path230" /><g
       id="g236"
       transform="matrix(0.57538768,0,0,0.57538768,8.9244886,141.97209)"><g
         id="g238"
         clip-path="url(#clipPath242)"><path
           d="M 57.6,250.9056 H 414.72"
           style="fill:none;stroke:#b0b0b0;stroke-width:0.8;stroke-linecap:square;stroke-linejoin:round;stroke-miterlimit:10;stroke-dasharray:none;stroke-opacity:1"
           id="path244" /></g></g><path
       d="M 42.066819,286.34009 H 40.052963"
       style="fill:#000000;fill-opacity:1;fill-rule:nonzero;stroke:#000000;stroke-width:0.46031;stroke-linecap:butt;stroke-linejoin:round;stroke-miterlimit:10;stroke-dasharray:none;stroke-opacity:1"
       id="path248" /><g
       id="g254"
       transform="matrix(0.57538768,0,0,0.57538768,8.9244886,141.97209)"><g
         id="g256"
         clip-path="url(#clipPath260)"><path
           d="M 57.6,304.128 H 414.72"
           style="fill:none;stroke:#b0b0b0;stroke-width:0.8;stroke-linecap:square;stroke-linejoin:round;stroke-miterlimit:10;stroke-dasharray:none;stroke-opacity:1"
           id="path262" /></g></g><path
       d="M 42.066819,316.96361 H 40.052963"
       style="fill:#000000;fill-opacity:1;fill-rule:nonzero;stroke:#000000;stroke-width:0.46031;stroke-linecap:butt;stroke-linejoin:round;stroke-miterlimit:10;stroke-dasharray:none;stroke-opacity:1"
       id="path266" /><g
       id="g276"
       transform="matrix(0.57538768,0,0,0.57538768,8.9244886,141.97209)"><g
         id="g278"
         clip-path="url(#clipPath282)"><path
           d="m 57.6,75.121583 5.668571,24.612989 5.668572,7.799168 5.668571,2.41072 5.668572,6.61432 5.668571,6.98812 5.668572,3.85121 5.668571,3.28066 5.66857,0.50291 5.66857,0.77272 5.66857,-0.32825 5.66858,2.04368 5.66857,4.866 5.66857,1.92683 5.66857,2.4514 5.66857,0.14799 5.66857,4.26464 5.66857,3.17709 5.66858,1.00559 5.66857,1.83735 5.66857,-1.05246 5.66857,-5.03489 5.66857,2.45871 5.66857,-3.90651 5.66857,4.03978 5.66858,-3.66609 5.66857,-2.04474 5.66857,-2.74926 5.66857,-0.69502 5.66857,-2.39691 5.66857,-5.64047 5.66857,-2.72792 5.66858,-4.6171 5.66857,-5.279 5.66857,-7.04876 5.66857,-0.36342 5.66857,-2.43644 5.66857,0.0629 5.66857,-9.96708 5.66858,-1.553675 5.66857,-1.781283 5.66857,-3.073402 5.66857,-6.662774 5.66857,0.534069 5.66857,-3.103424 5.66857,0.05541 5.66858,1.996072 5.66857,6.308226 5.66857,0.289164 5.66857,-0.380934 5.66857,-2.841765 5.66857,-1.962552 5.66857,-2.137597 5.66858,-3.522262 5.66857,-4.414005 5.66857,-0.942761 5.66857,-3.789699 5.66857,-4.228497 5.66857,-9.878153 5.66857,5.363475 5.66858,-6.887462 5.66857,1.246601 5.66857,-5.882223 5.66857,-0.54543"
           style="fill:none;stroke:#1f77b4;stroke-width:1.5;stroke-linecap:square;stroke-linejoin:round;stroke-miterlimit:10;stroke-dasharray:none;stroke-opacity:1"
           id="path284" /></g></g><g
       id="g288"
       clip-path="url(#clipPath292)"
       transform="matrix(0.57538768,0,0,0.57538768,8.9244886,141.97209)"><path
         d="m 57.6,160.20822 5.668571,25.76515 5.668572,5.74058 5.668571,0.42989 5.668572,2.62055 5.668571,1.65633 5.668572,1.49817 5.668571,-0.15633 5.66857,-1.72105 5.66857,2.63732 5.66857,-1.85632 5.66858,1.44954 5.66857,0.76649 5.66857,-1.5028 5.66857,-0.7903 5.66857,-1.97978 5.66857,4.37552 5.66857,1.8124 5.66858,1.5521 5.66857,3.52993 5.66857,-3.26505 5.66857,-9.3642 5.66857,-0.0329 5.66857,-7.20601 5.66857,2.12541 5.66858,-4.15741 5.66857,-1.75214 5.66857,-3.43553 5.66857,-0.067 5.66857,-1.13998 5.66857,-3.45859 5.66857,-1.33146 5.66858,-4.13949 5.66857,-5.08153 5.66857,-5.89248 5.66857,-5.47442 5.66857,-3.75519 5.66857,-1.83836 5.66857,-11.55034 5.66858,-4.93936 5.66857,-7.29911 5.66857,-3.67223 5.66857,-8.42592 5.66857,-4.75139 5.66857,-4.77349 5.66857,-4.86816 5.66858,1.293859 5.66857,2.527221 5.66857,-1.418743 5.66857,-2.228499 5.66857,-3.346156 5.66857,-1.51828 5.66857,-3.76327 5.66858,-3.527965 5.66857,-7.185594 5.66857,-1.514274 5.66857,-4.727777 5.66857,-3.286605 5.66857,-9.873009 5.66857,6.155119 5.66858,-3.043309 5.66857,0.102202 5.66857,-2.494179 5.66857,6.331616"
         style="fill:none;stroke:#ff7f0e;stroke-width:1.5;stroke-linecap:square;stroke-linejoin:round;stroke-miterlimit:10;stroke-dasharray:none;stroke-opacity:1"
         id="path294" /></g><g
       id="g298"
       clip-path="url(#clipPath302)"
       transform="matrix(0.57538768,0,0,0.57538768,8.9244886,141.97209)"><path
         d="m 57.6,187.42528 5.668571,19.51193 5.668572,3.52168 5.668571,-3.11468 5.668572,1.23505 5.668571,4.14427 5.668572,0.86354 5.668571,-1.43818 5.66857,-2.08636 5.66857,2.5732 5.66857,-2.595 5.66858,0.47523 5.66857,2.59165 5.66857,-2.0846 5.66857,-2.33115 5.66857,0.49145 5.66857,5.34544 5.66857,1.16479 5.66858,1.00207 5.66857,1.18825 5.66857,-4.77971 5.66857,-9.03696 5.66857,-0.93067 5.66857,-4.35422 5.66857,4.58509 5.66858,-4.13332 5.66857,-2.22655 5.66857,-5.57226 5.66857,-2.48033 5.66857,-3.70523 5.66857,-4.87975 5.66857,-3.47911 5.66858,-4.72352 5.66857,-7.21806 5.66857,-5.59842 5.66857,-5.78528 5.66857,0.89449 5.66857,-2.47533 5.66857,-10.48623 5.66858,-3.81843 5.66857,-8.57698 5.66857,0.55298 5.66857,-10.25029 5.66857,-4.97622 5.66857,-8.15182 5.66857,-4.21401 5.66858,2.0383 5.66857,2.40558 5.66857,-2.60497 5.66857,-0.42366 5.66857,-2.03143 5.66857,0.33278 5.66857,-3.863291 5.66858,-3.045613 5.66857,-8.952843 5.66857,-1.005311 5.66857,-7.116532 5.66857,0.259621 5.66857,-9.188348 5.66857,1.597709 5.66858,-3.638978 5.66857,0.307412 5.66857,-0.213928 5.66857,3.516235"
         style="fill:none;stroke:#2ca02c;stroke-width:1.5;stroke-linecap:square;stroke-linejoin:round;stroke-miterlimit:10;stroke-dasharray:none;stroke-opacity:1"
         id="path304" /></g><g
       id="g308"
       clip-path="url(#clipPath312)"
       style="stroke:#8c564b;stroke-opacity:1"
       transform="matrix(0.57538768,0,0,0.57538768,8.9244886,141.97209)"><path
         d="m 57.6,204.47918 5.668571,16.8654 5.668572,3.45564 5.668571,-4.49187 5.668572,1.56905 5.668571,3.52105 5.668572,-1.12253 5.668571,-1.17689 5.66857,-0.53151 5.66857,1.54215 5.66857,-4.31691 5.66858,0.20699 5.66857,1.97698 5.66857,-2.39706 5.66857,-0.90012 5.66857,0.75317 5.66857,3.94826 5.66857,0.10898 5.66858,1.06899 5.66857,-0.46317 5.66857,-3.02333 5.66857,-6.36748 5.66857,-0.0151 5.66857,-2.65262 5.66857,4.82773 5.66858,-5.28788 5.66857,-1.77903 5.66857,-8.30341 5.66857,-3.44377 5.66857,-5.97092 5.66857,-4.66609 5.66857,-3.59368 5.66858,-5.1673 5.66857,-5.05849 5.66857,-4.77478 5.66857,-6.41464 5.66857,-1.83907 5.66857,-3.5343 5.66857,-9.04548 5.66858,-3.14856 5.66857,-9.79894 5.66857,0.56455 5.66857,-9.07794 5.66857,-8.59004 5.66857,-7.97822 5.66857,-3.16327 5.66858,1.52735 5.66857,3.60049 5.66857,-0.89765 5.66857,1.93058 5.66857,-2.45358 5.66857,-0.37403 5.66857,-4.57829 5.66858,-3.38988 5.66857,-8.80913 5.66857,-1.850174 5.66857,-6.277851 5.66857,-1.591564 5.66857,-5.619829 5.66857,1.71681 5.66858,-2.846027 5.66857,1.320646 5.66857,-1.690484 5.66857,6.308166"
         style="fill:none;stroke:#8c564b;stroke-width:1.5;stroke-linecap:square;stroke-linejoin:round;stroke-miterlimit:10;stroke-dasharray:none;stroke-opacity:1"
         id="path314" /></g><path
       d="m 42.066819,263.83485 3.261626,8.65015 3.261627,0.7681 3.261626,-2.10226 3.261626,1.70331 3.261626,0.82695 3.261626,0.21102 3.261626,-0.42018 3.261626,-0.65288 3.261625,1.79991 3.261625,-2.69295 3.261632,-1.18964 3.261625,0.77568 3.261626,-1.64329 3.261624,-0.10507 3.261626,-0.14289 3.261625,2.92908 3.261626,0.89587 3.261628,0.85691 3.26163,-0.0652 3.26162,-1.01463 3.26163,-3.68784 3.26162,-0.44058 3.26163,-1.4462 3.26162,2.01763 3.26164,-2.65734 3.26162,-2.08088 3.26163,-5.56752 3.26162,-2.22051 3.26162,-2.89548 3.26163,-2.58887 3.26162,-2.64322 3.26164,-2.65601 3.26162,-2.79129 3.26163,-3.2031 3.26162,-3.13644 3.26163,-1.90873 3.26162,-2.20109 3.26163,-4.70821 3.26163,-1.68635 3.26163,-6.07368 3.26162,-0.75887 3.26163,-4.38197 3.26162,-3.19935 3.26163,-5.05005 3.26162,-3.00633 3.26164,0.53615 3.26162,2.08479 3.26163,-0.0719 3.26162,1.03496 3.26163,-0.12346 3.26162,1.72913 3.26162,-2.53366 3.26164,-1.41008 3.26162,-5.86487 3.26163,-2.07045 3.26162,-5.93948 3.26163,-0.0985 3.26162,-3.38444 3.26163,1.4904 3.26163,-1.57556 3.26163,-0.96353 3.26162,0.29533 3.26163,2.96534"
       style="fill:none;stroke:#9467bd;stroke-width:0.863081;stroke-linecap:square;stroke-linejoin:round;stroke-miterlimit:10;stroke-dasharray:none;stroke-opacity:1"
       id="path324" /><path
       d="M 42.066819,163.84604 V 316.96361"
       style="fill:none;stroke:#000000;stroke-width:0.46031;stroke-linecap:square;stroke-linejoin:miter;stroke-miterlimit:10;stroke-dasharray:none;stroke-opacity:1"
       id="path338" /><path
       d="M 247.54927,163.84604 V 316.96361"
       style="fill:none;stroke:#000000;stroke-width:0.46031;stroke-linecap:square;stroke-linejoin:miter;stroke-miterlimit:10;stroke-dasharray:none;stroke-opacity:1"
       id="path340" /><path
       d="M 42.066819,163.84604 H 247.54927"
       style="fill:none;stroke:#000000;stroke-width:0.46031;stroke-linecap:square;stroke-linejoin:miter;stroke-miterlimit:10;stroke-dasharray:none;stroke-opacity:1"
       id="path342" /><path
       d="M 42.066819,316.96361 H 247.54927"
       style="fill:none;stroke:#000000;stroke-width:0.46031;stroke-linecap:square;stroke-linejoin:miter;stroke-miterlimit:10;stroke-dasharray:none;stroke-opacity:1"
       id="path344" /><path
       d="m 59.98439,211.28571 h 7.00775"
       style="fill:none;stroke:#1f77b4;stroke-width:0.863081;stroke-linecap:square;stroke-linejoin:round;stroke-miterlimit:10;stroke-dasharray:none;stroke-opacity:1"
       id="path354"
       sodipodi:nodetypes="cc" /><path
       d="m 59.98439,202.84369 h 7.00775"
       style="fill:none;stroke:#ff7f0e;stroke-width:0.863081;stroke-linecap:square;stroke-linejoin:round;stroke-miterlimit:10;stroke-dasharray:none;stroke-opacity:1"
       id="path360"
       sodipodi:nodetypes="cc" /><path
       d="m 59.98439,194.40168 h 7.00775"
       style="fill:none;stroke:#2ca02c;stroke-width:0.863081;stroke-linecap:square;stroke-linejoin:round;stroke-miterlimit:10;stroke-dasharray:none;stroke-opacity:1"
       id="path366"
       sodipodi:nodetypes="cc" /><path
       d="m 59.98439,185.95965 h 7.00775"
       style="fill:none;stroke:#8c564b;stroke-width:0.863081;stroke-linecap:square;stroke-linejoin:round;stroke-miterlimit:10;stroke-dasharray:none;stroke-opacity:1"
       id="path372"
       sodipodi:nodetypes="cc" /><path
       d="m 59.98439,177.51765 h 7.00775"
       style="fill:none;stroke:#9467bd;stroke-width:0.863081;stroke-linecap:square;stroke-linejoin:round;stroke-miterlimit:10;stroke-dasharray:none;stroke-opacity:1"
       id="path378"
       sodipodi:nodetypes="cc" /><path
       d="m 59.98439,169.07563 h 7.00775"
       style="fill:none;stroke:#d62728;stroke-width:0.863081;stroke-linecap:square;stroke-linejoin:round;stroke-miterlimit:10;stroke-dasharray:none;stroke-opacity:1"
       id="path384"
       sodipodi:nodetypes="cc" /></g><g
     inkscape:groupmode="layer"
     id="layer1"
     inkscape:label="text"><text
       style="font-variant:normal;font-weight:normal;font-size:7.67184px;font-family:'DejaVu Sans';-inkscape-font-specification:DejaVuSans;writing-mode:lr-tb;fill:#000000;fill-opacity:1;fill-rule:nonzero;stroke:none;stroke-width:0.767184"
       id="text32"
       x="21.963625"
       y="236.32829"><tspan
         x="21.963625 26.842913 29.282557"
         y="236.32829"
         sodipodi:role="line"
         id="tspan30"
         style="stroke-width:0.767184">0.0</tspan></text><text
       style="font-variant:normal;font-weight:normal;font-size:7.67184px;font-family:'DejaVu Sans';-inkscape-font-specification:DejaVuSans;writing-mode:lr-tb;fill:#000000;fill-opacity:1;fill-rule:nonzero;stroke:none;stroke-width:0.767184"
       id="text50"
       x="56.754303"
       y="236.32829"><tspan
         x="56.754303 61.633598 64.073242"
         y="236.32829"
         sodipodi:role="line"
         id="tspan48"
         style="stroke-width:0.767184">0.2</tspan></text><text
       style="font-variant:normal;font-weight:normal;font-size:7.67184px;font-family:'DejaVu Sans';-inkscape-font-specification:DejaVuSans;writing-mode:lr-tb;fill:#000000;fill-opacity:1;fill-rule:nonzero;stroke:none;stroke-width:0.767184"
       id="text68"
       x="91.544983"
       y="236.32829"><tspan
         x="91.544983 96.424278 98.863914"
         y="236.32829"
         sodipodi:role="line"
         id="tspan66"
         style="stroke-width:0.767184">0.4</tspan></text><text
       style="font-variant:normal;font-weight:normal;font-size:7.67184px;font-family:'DejaVu Sans';-inkscape-font-specification:DejaVuSans;writing-mode:lr-tb;fill:#000000;fill-opacity:1;fill-rule:nonzero;stroke:none;stroke-width:0.767184"
       id="text86"
       x="126.33566"
       y="236.32829"><tspan
         x="126.33566 131.21495 133.65459"
         y="236.32829"
         sodipodi:role="line"
         id="tspan84"
         style="stroke-width:0.767184">0.6</tspan></text><text
       style="font-variant:normal;font-weight:normal;font-size:7.67184px;font-family:'DejaVu Sans';-inkscape-font-specification:DejaVuSans;writing-mode:lr-tb;fill:#000000;fill-opacity:1;fill-rule:nonzero;stroke:none;stroke-width:0.767184"
       id="text104"
       x="161.12633"
       y="236.32829"><tspan
         x="161.12633 166.00562 168.44527"
         y="236.32829"
         sodipodi:role="line"
         id="tspan102"
         style="stroke-width:0.767184">0.8</tspan></text><text
       style="font-variant:normal;font-weight:normal;font-size:7.67184px;font-family:'DejaVu Sans';-inkscape-font-specification:DejaVuSans;writing-mode:lr-tb;fill:#000000;fill-opacity:1;fill-rule:nonzero;stroke:none;stroke-width:0.767184"
       id="text122"
       x="195.91702"
       y="236.32829"><tspan
         x="195.91702 200.79631 203.23593"
         y="236.32829"
         sodipodi:role="line"
         id="tspan120"
         style="stroke-width:0.767184">1.0</tspan></text><text
       style="font-variant:normal;font-weight:normal;font-size:7.67184px;font-family:'DejaVu Sans';-inkscape-font-specification:DejaVuSans;writing-mode:lr-tb;fill:#000000;fill-opacity:1;fill-rule:nonzero;stroke:none;stroke-width:0.767184"
       id="text140"
       x="230.7077"
       y="236.32829"><tspan
         x="230.7077 235.58698 238.02663"
         y="236.32829"
         sodipodi:role="line"
         id="tspan138"
         style="stroke-width:0.767184">1.2</tspan></text><text
       style="font-variant:normal;font-weight:normal;font-size:7.67184px;font-family:'DejaVu Sans';-inkscape-font-specification:DejaVuSans;writing-mode:lr-tb;fill:#000000;fill-opacity:1;fill-rule:nonzero;stroke:none;stroke-width:0.767184"
       id="text158"
       x="265.49838"
       y="236.32829"><tspan
         x="265.49838 270.37766 272.81732"
         y="236.32829"
         sodipodi:role="line"
         id="tspan156"
         style="stroke-width:0.767184">1.4</tspan></text><text
       style="font-variant:normal;font-weight:normal;font-size:7.67184px;font-family:'DejaVu Sans';-inkscape-font-specification:DejaVuSans;writing-mode:lr-tb;fill:#000000;fill-opacity:1;fill-rule:nonzero;stroke:none;stroke-width:0.767184"
       id="text162"
       x="118.62086"
       y="246.81712"><tspan
         x="118.62086 124.56652 129.28468 134.14862 138.8438 146.31616 148.44893 152.66844 155.10809 159.97971 162.11247 166.1095 169.11687 173.8197 178.68364 182.90315 187.62134 190.06097 192.64638 195.08601 201.70682 206.57843"
         y="246.81712"
         sodipodi:role="line"
         id="tspan160"
         style="stroke-width:0.767184">Genomic distance / Mbp</tspan></text><text
       style="font-variant:normal;font-weight:normal;font-size:7.67184px;font-family:'DejaVu Sans';-inkscape-font-specification:DejaVuSans;writing-mode:lr-tb;fill:#000000;fill-opacity:1;fill-rule:nonzero;stroke:none;stroke-width:0.767184"
       id="text180"
       x="10.491835"
       y="228.04509"><tspan
         x="10.491835 15.371121 17.810764"
         y="228.04509"
         sodipodi:role="line"
         id="tspan178"
         style="stroke-width:0.767184">0.0</tspan></text><text
       style="font-variant:normal;font-weight:normal;font-size:7.67184px;font-family:'DejaVu Sans';-inkscape-font-specification:DejaVuSans;writing-mode:lr-tb;fill:#000000;fill-opacity:1;fill-rule:nonzero;stroke:none;stroke-width:0.767184"
       id="text198"
       x="10.491835"
       y="187.21375"><tspan
         x="10.491835 15.371121 17.810764"
         y="187.21375"
         sodipodi:role="line"
         id="tspan196"
         style="stroke-width:0.767184">0.2</tspan></text><text
       style="font-variant:normal;font-weight:normal;font-size:7.67184px;font-family:'DejaVu Sans';-inkscape-font-specification:DejaVuSans;writing-mode:lr-tb;fill:#000000;fill-opacity:1;fill-rule:nonzero;stroke:none;stroke-width:0.767184"
       id="text216"
       x="10.491835"
       y="146.3824"><tspan
         x="10.491835 15.371121 17.810764"
         y="146.3824"
         sodipodi:role="line"
         id="tspan214"
         style="stroke-width:0.767184">0.4</tspan></text><text
       style="font-variant:normal;font-weight:normal;font-size:7.67184px;font-family:'DejaVu Sans';-inkscape-font-specification:DejaVuSans;writing-mode:lr-tb;fill:#000000;fill-opacity:1;fill-rule:nonzero;stroke:none;stroke-width:0.767184"
       id="text234"
       x="10.491835"
       y="105.5508"><tspan
         x="10.491835 15.371121 17.810764"
         y="105.5508"
         sodipodi:role="line"
         id="tspan232"
         style="stroke-width:0.767184">0.6</tspan></text><text
       style="font-variant:normal;font-weight:normal;font-size:7.67184px;font-family:'DejaVu Sans';-inkscape-font-specification:DejaVuSans;writing-mode:lr-tb;fill:#000000;fill-opacity:1;fill-rule:nonzero;stroke:none;stroke-width:0.767184"
       id="text252"
       x="10.491835"
       y="64.719513"><tspan
         x="10.491835 15.371121 17.810764"
         y="64.719513"
         sodipodi:role="line"
         id="tspan250"
         style="stroke-width:0.767184">0.8</tspan></text><text
       style="font-variant:normal;font-weight:normal;font-size:7.67184px;font-family:'DejaVu Sans';-inkscape-font-specification:DejaVuSans;writing-mode:lr-tb;fill:#000000;fill-opacity:1;fill-rule:nonzero;stroke:none;stroke-width:0.767184"
       id="text270"
       x="10.491835"
       y="23.888224"><tspan
         x="10.491835 15.371121 17.810764"
         y="23.888224"
         sodipodi:role="line"
         id="tspan268"
         style="stroke-width:0.767184">1.0</tspan></text><text
       transform="rotate(-90)"
       style="font-variant:normal;font-weight:normal;font-size:7.67184px;font-family:'DejaVu Sans';-inkscape-font-specification:DejaVuSans;writing-mode:lr-tb;fill:#000000;fill-opacity:1;fill-rule:nonzero;stroke:none;stroke-width:0.767184"
       id="text274"
       x="-160.11838"
       y="5.8287969"><tspan
         x="-160.11838 -155.49226 -150.77409 -146.07124 -142.91812 -138.9211 -134.22594 -129.36198 -126.9221 -122.70261 -118.00745 -114.85429 -111.70116 -106.98301 -104.85031 -100.14748 -97.140091 -95.007324 -90.312164"
         y="5.8287969"
         sodipodi:role="line"
         id="tspan272"
         style="stroke-width:0.767184">Pearson correlation</tspan></text><text
       style="font-variant:normal;font-weight:normal;font-size:9.2062px;font-family:'DejaVu Sans';-inkscape-font-specification:DejaVuSans;writing-mode:lr-tb;fill:#000000;fill-opacity:1;fill-rule:nonzero;stroke:none;stroke-width:0.767184"
       id="text348"
       x="70.312248"
       y="6.0535941"><tspan
         x="70.312248 75.863586 81.525414 87.168808 90.952553 95.748993 101.38319 107.21992 110.1475 115.21091 120.8451 124.62885 128.4126 134.07442 136.63373 142.27715 145.88597 148.4453 154.0795 159.91621 162.84381 168.29387 173.0903 176.01787 178.94545 184.79138 190.45322 196.28992 201.92413 210.89098 213.45029 218.5137 221.44128 227.28722 229.84654 234.64296 238.25179 243.8952 249.73193 254.79535"
         y="6.0535941"
         sodipodi:role="line"
         id="tspan346"
         style="stroke-width:0.767184">Pearson correlation vs. genomic distance</tspan></text><text
       style="font-variant:normal;font-weight:normal;font-size:9.2062px;font-family:'DejaVu Sans';-inkscape-font-specification:DejaVuSans;writing-mode:lr-tb;fill:#000000;fill-opacity:1;fill-rule:nonzero;stroke:none;stroke-width:0.767184"
       id="text352"
       x="33.040607"
       y="16.372221"><tspan
         x="33.040607 40.175415 48.120365 53.97551 59.83065 65.685799 71.540947 77.396088 80.323662 83.251236 89.106384 92.033958 97.889091 100.81668 106.67181 109.59939 115.45454 118.3821 124.23726 127.16483 133.01997 138.87511 141.80269 147.65782 153.51297 156.44055 162.29568 168.15085 171.0784 176.93355 182.7887 185.71628 191.57143 197.42657 200.35413 206.20929 212.06442 214.99202 220.84714 226.7023 229.62985 235.48502 241.34015 244.26773 249.90192 255.73866 258.66623 264.70551 270.56067 276.41577 282.27094 285.19852 288.1261 293.98123"
         y="16.372221"
         sodipodi:role="line"
         id="tspan350"
         style="stroke-width:0.767184">GM12878, 1,2,4,7,9,11,13,14,16,17,18,20,22 on K562, 21</tspan></text><text
       style="font-variant:normal;font-weight:normal;font-size:7.67184px;font-family:'DejaVu Sans';-inkscape-font-specification:DejaVuSans;writing-mode:lr-tb;fill:#000000;fill-opacity:1;fill-rule:nonzero;stroke:none;stroke-width:0.767184"
       id="text358"
       x="63.436371"
       y="164.56427"><tspan
         x="63.436371"
         sodipodi:role="line"
         id="tspan356"
         style="stroke-width:0.767184"
         y="164.56427">20 ep / AUC: 0.276</tspan></text><text
       style="font-variant:normal;font-weight:normal;font-size:7.67184px;font-family:'DejaVu Sans';-inkscape-font-specification:DejaVuSans;writing-mode:lr-tb;fill:#000000;fill-opacity:1;fill-rule:nonzero;stroke:none;stroke-width:0.767184"
       id="text364"
       x="63.436371"
       y="175.82028"><tspan
         x="63.436371"
         sodipodi:role="line"
         id="tspan362"
         style="stroke-width:0.767184"
         y="175.82028">40 ep / AUC: 0.410</tspan></text><text
       style="font-variant:normal;font-weight:normal;font-size:7.67184px;font-family:'DejaVu Sans';-inkscape-font-specification:DejaVuSans;writing-mode:lr-tb;fill:#000000;fill-opacity:1;fill-rule:nonzero;stroke:none;stroke-width:0.767184"
       id="text370"
       x="63.436371"
       y="187.07631"><tspan
         x="63.436371 68.315659 73.194946 75.634583 80.352753 85.22438 87.664001 90.24942 92.689087 97.936607 103.55241 108.90732 111.49274 113.93239 118.81168 121.2513 126.13062 131.00989"
         y="187.07631"
         sodipodi:role="line"
         id="tspan368"
         style="stroke-width:0.767184">60 ep / AUC: 0.448</tspan></text><text
       style="font-variant:normal;font-weight:normal;font-size:7.67184px;font-family:'DejaVu Sans';-inkscape-font-specification:DejaVuSans;writing-mode:lr-tb;fill:#000000;fill-opacity:1;fill-rule:nonzero;stroke:none;stroke-width:0.767184"
       id="text376"
       x="63.436371"
       y="198.33232"><tspan
         x="63.436371 68.315659 73.194946 75.634583 80.352753 85.22438 87.664001 90.24942 92.689087 97.936607 103.55241 108.90732 111.49274 113.93239 118.81168 121.2513 126.13062 131.00989"
         y="198.33232"
         sodipodi:role="line"
         id="tspan374"
         style="stroke-width:0.767184">80 ep / AUC: 0.482</tspan></text><text
       style="font-variant:normal;font-weight:normal;font-size:7.67184px;font-family:'DejaVu Sans';-inkscape-font-specification:DejaVuSans;writing-mode:lr-tb;fill:#000000;fill-opacity:1;fill-rule:nonzero;stroke:none;stroke-width:0.767184"
       id="text382"
       x="63.436371"
       y="209.58833"><tspan
         x="63.436371 68.315659 73.194946 78.074219 80.513855 85.232063 90.103653 92.54332 95.128723 97.568359 102.81589 108.43169 113.78664 116.37202 118.81168 123.69098 126.13062 131.00989 135.88919"
         y="209.58833"
         sodipodi:role="line"
         id="tspan380"
         style="stroke-width:0.767184">100 ep / AUC: 0.496</tspan></text><text
       style="font-variant:normal;font-weight:normal;font-size:7.67184px;font-family:'DejaVu Sans';-inkscape-font-specification:DejaVuSans;writing-mode:lr-tb;fill:#000000;fill-opacity:1;fill-rule:nonzero;stroke:none;stroke-width:0.767184"
       id="text388"
       x="63.436371"
       y="220.84436"><tspan
         x="63.436371 66.443726 69.596848 74.299698 79.163635 83.16066 85.86113 90.579323 93.732437 96.172073 102.11775 108.73856 113.61784 118.49712 123.37642 128.25571 133.13499 135.57465 138.16003 140.59969 145.8472 151.46301 156.81796 159.40335 161.84299 166.72229 169.16193 174.0412 178.92053"
         y="220.84436"
         sodipodi:role="line"
         id="tspan386"
         style="stroke-width:0.767184">transfer GM12878 / AUC: 0.864</tspan></text></g></svg>
