<?xml version="1.0" encoding="UTF-8" standalone="no"?>
<svg
   xmlns:dc="http://purl.org/dc/elements/1.1/"
   xmlns:cc="http://creativecommons.org/ns#"
   xmlns:rdf="http://www.w3.org/1999/02/22-rdf-syntax-ns#"
   xmlns:svg="http://www.w3.org/2000/svg"
   xmlns="http://www.w3.org/2000/svg"
   xmlns:sodipodi="http://sodipodi.sourceforge.net/DTD/sodipodi-0.dtd"
   xmlns:inkscape="http://www.inkscape.org/namespaces/inkscape"
   version="1.1"
   id="svg2"
   xml:space="preserve"
   width="80mm"
   height="65.300003mm"
   viewBox="0 0 302.36219 246.80316"
   sodipodi:docname="pearson_chr19.svg"
   inkscape:version="1.0.2 (1.0.2+r75+1)"><metadata
     id="metadata8"><rdf:RDF><cc:Work
         rdf:about=""><dc:format>image/svg+xml</dc:format><dc:type
           rdf:resource="http://purl.org/dc/dcmitype/StillImage" /><dc:title></dc:title></cc:Work></rdf:RDF></metadata><defs
     id="defs6"><clipPath
       clipPathUnits="userSpaceOnUse"
       id="clipPath22"><path
         d="M 57.6,38.016 H 414.72 V 304.128 H 57.6 Z"
         id="path20" /></clipPath><clipPath
       clipPathUnits="userSpaceOnUse"
       id="clipPath40"><path
         d="M 57.6,38.016 H 414.72 V 304.128 H 57.6 Z"
         id="path38" /></clipPath><clipPath
       clipPathUnits="userSpaceOnUse"
       id="clipPath58"><path
         d="M 57.6,38.016 H 414.72 V 304.128 H 57.6 Z"
         id="path56" /></clipPath><clipPath
       clipPathUnits="userSpaceOnUse"
       id="clipPath76"><path
         d="M 57.6,38.016 H 414.72 V 304.128 H 57.6 Z"
         id="path74" /></clipPath><clipPath
       clipPathUnits="userSpaceOnUse"
       id="clipPath94"><path
         d="M 57.6,38.016 H 414.72 V 304.128 H 57.6 Z"
         id="path92" /></clipPath><clipPath
       clipPathUnits="userSpaceOnUse"
       id="clipPath112"><path
         d="M 57.6,38.016 H 414.72 V 304.128 H 57.6 Z"
         id="path110" /></clipPath><clipPath
       clipPathUnits="userSpaceOnUse"
       id="clipPath130"><path
         d="M 57.6,38.016 H 414.72 V 304.128 H 57.6 Z"
         id="path128" /></clipPath><clipPath
       clipPathUnits="userSpaceOnUse"
       id="clipPath148"><path
         d="M 57.6,38.016 H 414.72 V 304.128 H 57.6 Z"
         id="path146" /></clipPath><clipPath
       clipPathUnits="userSpaceOnUse"
       id="clipPath170"><path
         d="M 57.6,38.016 H 414.72 V 304.128 H 57.6 Z"
         id="path168" /></clipPath><clipPath
       clipPathUnits="userSpaceOnUse"
       id="clipPath188"><path
         d="M 57.6,38.016 H 414.72 V 304.128 H 57.6 Z"
         id="path186" /></clipPath><clipPath
       clipPathUnits="userSpaceOnUse"
       id="clipPath206"><path
         d="M 57.6,38.016 H 414.72 V 304.128 H 57.6 Z"
         id="path204" /></clipPath><clipPath
       clipPathUnits="userSpaceOnUse"
       id="clipPath224"><path
         d="M 57.6,38.016 H 414.72 V 304.128 H 57.6 Z"
         id="path222" /></clipPath><clipPath
       clipPathUnits="userSpaceOnUse"
       id="clipPath242"><path
         d="M 57.6,38.016 H 414.72 V 304.128 H 57.6 Z"
         id="path240" /></clipPath><clipPath
       clipPathUnits="userSpaceOnUse"
       id="clipPath260"><path
         d="M 57.6,38.016 H 414.72 V 304.128 H 57.6 Z"
         id="path258" /></clipPath><clipPath
       clipPathUnits="userSpaceOnUse"
       id="clipPath282"><path
         d="M 57.6,38.016 H 414.72 V 304.128 H 57.6 Z"
         id="path280" /></clipPath><clipPath
       clipPathUnits="userSpaceOnUse"
       id="clipPath292"><path
         d="M 57.6,38.016 H 414.72 V 304.128 H 57.6 Z"
         id="path290" /></clipPath><clipPath
       clipPathUnits="userSpaceOnUse"
       id="clipPath302"><path
         d="M 57.6,38.016 H 414.72 V 304.128 H 57.6 Z"
         id="path300" /></clipPath><clipPath
       clipPathUnits="userSpaceOnUse"
       id="clipPath312"><path
         d="M 57.6,38.016 H 414.72 V 304.128 H 57.6 Z"
         id="path310" /></clipPath><clipPath
       clipPathUnits="userSpaceOnUse"
       id="clipPath322"><path
         d="M 57.6,38.016 H 414.72 V 304.128 H 57.6 Z"
         id="path320" /></clipPath><clipPath
       clipPathUnits="userSpaceOnUse"
       id="clipPath332"><path
         d="M 57.6,38.016 H 414.72 V 304.128 H 57.6 Z"
         id="path330" /></clipPath></defs><sodipodi:namedview
     pagecolor="#ffffff"
     bordercolor="#666666"
     borderopacity="1"
     objecttolerance="10"
     gridtolerance="10"
     guidetolerance="10"
     inkscape:pageopacity="0"
     inkscape:pageshadow="2"
     inkscape:window-width="1920"
     inkscape:window-height="1020"
     id="namedview4"
     showgrid="false"
     fit-margin-top="0"
     fit-margin-left="0"
     fit-margin-right="0"
     fit-margin-bottom="0"
     units="mm"
     inkscape:zoom="3.7196182"
     inkscape:cx="184.19122"
     inkscape:cy="215.59341"
     inkscape:window-x="0"
     inkscape:window-y="0"
     inkscape:window-maximized="1"
     inkscape:current-layer="layer1" /><g
     id="g10"
     inkscape:groupmode="layer"
     inkscape:label="pearson_chr19"
     transform="matrix(1.3333333,0,0,-1.3333333,-28.023958,443.59357)"><path
       d="m 42.065259,309.53389 3.261384,-4.50522 3.261384,-2.79881 3.261384,-1.42083 3.261385,-1.12859 3.261384,-0.40468 3.261386,-0.44821 3.261384,0.32761 3.261383,0.83 3.261383,-2.43472 3.261384,0.77719 3.261389,-1.31315 3.261384,-1.6874 3.261383,-1.77248 3.261383,-1.2353 3.261384,-0.4804 3.261383,-0.96756 3.261385,-2.06603 3.261389,-0.86756 3.26139,-0.49946 3.26138,0.58461 3.26138,-2.07447 3.26139,0.4664 3.26138,-1.12996 3.26138,-0.95121 3.26139,-0.84003 3.26139,-1.31943 3.26138,-0.0457 3.26138,1.44849 3.26139,-1.41973 3.26138,1.18072 3.26138,-2.17488 3.26139,-0.71809 3.26139,0.43795 3.26138,-0.53642 3.26138,0.77931 3.26139,-0.88819 3.26138,-1.82985 3.26138,-0.11718 3.26139,-0.47253 3.26139,-2.48699 3.26138,2.23963 3.26138,-2.55104 3.26139,0.59215 3.26138,-0.85917 3.26138,1.01342 3.26139,-5.01299 3.26139,3.76553 3.26138,-1.69036 3.26138,1.32307 3.26139,-0.0355 3.26138,0.56723 3.26138,0.81698 3.26139,-1.42193 3.26139,-2.14259 3.26138,0.75915 3.26138,1.2151 3.26139,0.67128 3.26138,-0.15371 3.26138,2.94886 3.26139,1.7543 3.26139,1.61999 3.26138,2.62018 3.26138,0.23373"
       style="fill:none;stroke:#d62728;stroke-width:0.863018;stroke-linecap:square;stroke-linejoin:round;stroke-miterlimit:10;stroke-dasharray:none;stroke-opacity:1"
       id="path334" /><g
       id="g16"
       transform="matrix(0.57534502,0,0,0.57534502,8.9253852,141.98641)"><g
         id="g18"
         clip-path="url(#clipPath22)"><path
           d="M 57.6,38.016 V 304.128"
           style="fill:none;stroke:#b0b0b0;stroke-width:0.8;stroke-linecap:square;stroke-linejoin:round;stroke-miterlimit:10;stroke-dasharray:none;stroke-opacity:1"
           id="path24" /></g></g><path
       d="m 42.065259,163.85872 v -2.0137"
       style="fill:#000000;fill-opacity:1;fill-rule:nonzero;stroke:#000000;stroke-width:0.460276;stroke-linecap:butt;stroke-linejoin:round;stroke-miterlimit:10;stroke-dasharray:none;stroke-opacity:1"
       id="path28" /><g
       id="g34"
       transform="matrix(0.57534502,0,0,0.57534502,8.9253852,141.98641)"><g
         id="g36"
         clip-path="url(#clipPath40)"><path
           d="M 102.94857,38.016 V 304.128"
           style="fill:none;stroke:#b0b0b0;stroke-width:0.8;stroke-linecap:square;stroke-linejoin:round;stroke-miterlimit:10;stroke-dasharray:none;stroke-opacity:1"
           id="path42" /></g></g><path
       d="m 68.156333,163.85872 v -2.0137"
       style="fill:#000000;fill-opacity:1;fill-rule:nonzero;stroke:#000000;stroke-width:0.460276;stroke-linecap:butt;stroke-linejoin:round;stroke-miterlimit:10;stroke-dasharray:none;stroke-opacity:1"
       id="path46" /><g
       id="g52"
       transform="matrix(0.57534502,0,0,0.57534502,8.9253852,141.98641)"><g
         id="g54"
         clip-path="url(#clipPath58)"><path
           d="M 148.29714,38.016 V 304.128"
           style="fill:none;stroke:#b0b0b0;stroke-width:0.8;stroke-linecap:square;stroke-linejoin:round;stroke-miterlimit:10;stroke-dasharray:none;stroke-opacity:1"
           id="path60" /></g></g><path
       d="m 94.247406,163.85872 v -2.0137"
       style="fill:#000000;fill-opacity:1;fill-rule:nonzero;stroke:#000000;stroke-width:0.460276;stroke-linecap:butt;stroke-linejoin:round;stroke-miterlimit:10;stroke-dasharray:none;stroke-opacity:1"
       id="path64" /><g
       id="g70"
       transform="matrix(0.57534502,0,0,0.57534502,8.9253852,141.98641)"><g
         id="g72"
         clip-path="url(#clipPath76)"><path
           d="M 193.64571,38.016 V 304.128"
           style="fill:none;stroke:#b0b0b0;stroke-width:0.8;stroke-linecap:square;stroke-linejoin:round;stroke-miterlimit:10;stroke-dasharray:none;stroke-opacity:1"
           id="path78" /></g></g><path
       d="m 120.33848,163.85872 v -2.0137"
       style="fill:#000000;fill-opacity:1;fill-rule:nonzero;stroke:#000000;stroke-width:0.460276;stroke-linecap:butt;stroke-linejoin:round;stroke-miterlimit:10;stroke-dasharray:none;stroke-opacity:1"
       id="path82" /><g
       id="g88"
       transform="matrix(0.57534502,0,0,0.57534502,8.9253852,141.98641)"><g
         id="g90"
         clip-path="url(#clipPath94)"><path
           d="M 238.99429,38.016 V 304.128"
           style="fill:none;stroke:#b0b0b0;stroke-width:0.8;stroke-linecap:square;stroke-linejoin:round;stroke-miterlimit:10;stroke-dasharray:none;stroke-opacity:1"
           id="path96" /></g></g><path
       d="m 146.42956,163.85872 v -2.0137"
       style="fill:#000000;fill-opacity:1;fill-rule:nonzero;stroke:#000000;stroke-width:0.460276;stroke-linecap:butt;stroke-linejoin:round;stroke-miterlimit:10;stroke-dasharray:none;stroke-opacity:1"
       id="path100" /><g
       id="g106"
       transform="matrix(0.57534502,0,0,0.57534502,8.9253852,141.98641)"><g
         id="g108"
         clip-path="url(#clipPath112)"><path
           d="M 284.34286,38.016 V 304.128"
           style="fill:none;stroke:#b0b0b0;stroke-width:0.8;stroke-linecap:square;stroke-linejoin:round;stroke-miterlimit:10;stroke-dasharray:none;stroke-opacity:1"
           id="path114" /></g></g><path
       d="m 172.52064,163.85872 v -2.0137"
       style="fill:#000000;fill-opacity:1;fill-rule:nonzero;stroke:#000000;stroke-width:0.460276;stroke-linecap:butt;stroke-linejoin:round;stroke-miterlimit:10;stroke-dasharray:none;stroke-opacity:1"
       id="path118" /><g
       id="g124"
       transform="matrix(0.57534502,0,0,0.57534502,8.9253852,141.98641)"><g
         id="g126"
         clip-path="url(#clipPath130)"><path
           d="M 329.69143,38.016 V 304.128"
           style="fill:none;stroke:#b0b0b0;stroke-width:0.8;stroke-linecap:square;stroke-linejoin:round;stroke-miterlimit:10;stroke-dasharray:none;stroke-opacity:1"
           id="path132" /></g></g><path
       d="m 198.61171,163.85872 v -2.0137"
       style="fill:#000000;fill-opacity:1;fill-rule:nonzero;stroke:#000000;stroke-width:0.460276;stroke-linecap:butt;stroke-linejoin:round;stroke-miterlimit:10;stroke-dasharray:none;stroke-opacity:1"
       id="path136" /><g
       id="g142"
       transform="matrix(0.57534502,0,0,0.57534502,8.9253852,141.98641)"><g
         id="g144"
         clip-path="url(#clipPath148)"><path
           d="M 375.04,38.016 V 304.128"
           style="fill:none;stroke:#b0b0b0;stroke-width:0.8;stroke-linecap:square;stroke-linejoin:round;stroke-miterlimit:10;stroke-dasharray:none;stroke-opacity:1"
           id="path150" /></g></g><path
       d="m 224.70278,163.85872 v -2.0137"
       style="fill:#000000;fill-opacity:1;fill-rule:nonzero;stroke:#000000;stroke-width:0.460276;stroke-linecap:butt;stroke-linejoin:round;stroke-miterlimit:10;stroke-dasharray:none;stroke-opacity:1"
       id="path154" /><g
       id="g164"
       transform="matrix(0.57534502,0,0,0.57534502,8.9253852,141.98641)"><g
         id="g166"
         clip-path="url(#clipPath170)"><path
           d="M 57.6,38.016 H 414.72"
           style="fill:none;stroke:#b0b0b0;stroke-width:0.8;stroke-linecap:square;stroke-linejoin:round;stroke-miterlimit:10;stroke-dasharray:none;stroke-opacity:1"
           id="path172" /></g></g><path
       d="M 42.065259,163.85872 H 40.051551"
       style="fill:#000000;fill-opacity:1;fill-rule:nonzero;stroke:#000000;stroke-width:0.460276;stroke-linecap:butt;stroke-linejoin:round;stroke-miterlimit:10;stroke-dasharray:none;stroke-opacity:1"
       id="path176" /><g
       id="g182"
       transform="matrix(0.57534502,0,0,0.57534502,8.9253852,141.98641)"><g
         id="g184"
         clip-path="url(#clipPath188)"><path
           d="M 57.6,91.2384 H 414.72"
           style="fill:none;stroke:#b0b0b0;stroke-width:0.8;stroke-linecap:square;stroke-linejoin:round;stroke-miterlimit:10;stroke-dasharray:none;stroke-opacity:1"
           id="path190" /></g></g><path
       d="M 42.065259,194.47997 H 40.051551"
       style="fill:#000000;fill-opacity:1;fill-rule:nonzero;stroke:#000000;stroke-width:0.460276;stroke-linecap:butt;stroke-linejoin:round;stroke-miterlimit:10;stroke-dasharray:none;stroke-opacity:1"
       id="path194" /><g
       id="g200"
       transform="matrix(0.57534502,0,0,0.57534502,8.9253852,141.98641)"><g
         id="g202"
         clip-path="url(#clipPath206)"><path
           d="M 57.6,144.4608 H 414.72"
           style="fill:none;stroke:#b0b0b0;stroke-width:0.8;stroke-linecap:square;stroke-linejoin:round;stroke-miterlimit:10;stroke-dasharray:none;stroke-opacity:1"
           id="path208" /></g></g><path
       d="M 42.065259,225.10121 H 40.051551"
       style="fill:#000000;fill-opacity:1;fill-rule:nonzero;stroke:#000000;stroke-width:0.460276;stroke-linecap:butt;stroke-linejoin:round;stroke-miterlimit:10;stroke-dasharray:none;stroke-opacity:1"
       id="path212" /><g
       id="g218"
       transform="matrix(0.57534502,0,0,0.57534502,8.9253852,141.98641)"><g
         id="g220"
         clip-path="url(#clipPath224)"><path
           d="M 57.6,197.6832 H 414.72"
           style="fill:none;stroke:#b0b0b0;stroke-width:0.8;stroke-linecap:square;stroke-linejoin:round;stroke-miterlimit:10;stroke-dasharray:none;stroke-opacity:1"
           id="path226" /></g></g><path
       d="M 42.065259,255.72245 H 40.051551"
       style="fill:#000000;fill-opacity:1;fill-rule:nonzero;stroke:#000000;stroke-width:0.460276;stroke-linecap:butt;stroke-linejoin:round;stroke-miterlimit:10;stroke-dasharray:none;stroke-opacity:1"
       id="path230" /><g
       id="g236"
       transform="matrix(0.57534502,0,0,0.57534502,8.9253852,141.98641)"><g
         id="g238"
         clip-path="url(#clipPath242)"><path
           d="M 57.6,250.9056 H 414.72"
           style="fill:none;stroke:#b0b0b0;stroke-width:0.8;stroke-linecap:square;stroke-linejoin:round;stroke-miterlimit:10;stroke-dasharray:none;stroke-opacity:1"
           id="path244" /></g></g><path
       d="M 42.065259,286.3437 H 40.051551"
       style="fill:#000000;fill-opacity:1;fill-rule:nonzero;stroke:#000000;stroke-width:0.460276;stroke-linecap:butt;stroke-linejoin:round;stroke-miterlimit:10;stroke-dasharray:none;stroke-opacity:1"
       id="path248" /><g
       id="g254"
       transform="matrix(0.57534502,0,0,0.57534502,8.9253852,141.98641)"><g
         id="g256"
         clip-path="url(#clipPath260)"><path
           d="M 57.6,304.128 H 414.72"
           style="fill:none;stroke:#b0b0b0;stroke-width:0.8;stroke-linecap:square;stroke-linejoin:round;stroke-miterlimit:10;stroke-dasharray:none;stroke-opacity:1"
           id="path262" /></g></g><path
       d="M 42.065259,316.96494 H 40.051551"
       style="fill:#000000;fill-opacity:1;fill-rule:nonzero;stroke:#000000;stroke-width:0.460276;stroke-linecap:butt;stroke-linejoin:round;stroke-miterlimit:10;stroke-dasharray:none;stroke-opacity:1"
       id="path266" /><g
       id="g278"
       clip-path="url(#clipPath282)"
       transform="matrix(0.57534502,0,0,0.57534502,8.9253852,141.98641)"><path
         d="m 57.6,220.44459 5.668571,0.11666 5.668572,-16.73241 5.668571,-8.64252 5.668572,-3.09774 5.668571,-0.36494 5.668572,0.0553 5.668571,-3.1948 5.66857,-2.23904 5.66857,-5.35013 5.66857,-1.77243 5.66858,-4.98599 5.66857,1.36944 5.66857,0.29129 5.66857,-0.32719 5.66857,-3.22639 5.66857,-2.55614 5.66857,1.2851 5.66858,-5.32287 5.66857,2.45856 5.66857,1.38011 5.66857,-2.98782 5.66857,-0.58317 5.66857,-2.36823 5.66857,-2.95372 5.66858,-9.31865 5.66857,2.37729 5.66857,-2.53686 5.66857,-2.92234 5.66857,-2.99981 5.66857,-7.77527 5.66857,-1.59911 5.66858,0.30879 5.66857,-3.39215 5.66857,1.84445 5.66857,-6.78352 5.66857,-8.07206 5.66857,1.09118 5.66857,-3.57843 5.66858,-7.39351 5.66857,-2.14209 5.66857,0.0355 5.66857,0.19436 5.66857,-3.81296 5.66857,-3.53235 5.66857,-3.891877 5.66858,-0.635071 5.66857,2.065788 5.66857,3.02125 5.66857,0.25391 5.66857,-8.484782 5.66857,2.045532 5.66857,6.00881 5.66858,1.5204 5.66857,-7.672019 5.66857,-5.451055 5.66857,1.177139 5.66857,4.201881 5.66857,-8.446767 5.66857,-7.739259 5.66858,1.336463 5.66857,-12.839128 5.66857,-14.459679 5.66857,-16.74688"
         style="fill:none;stroke:#1f77b4;stroke-width:1.5;stroke-linecap:square;stroke-linejoin:round;stroke-miterlimit:10;stroke-dasharray:none;stroke-opacity:1"
         id="path284" /></g><g
       id="g288"
       clip-path="url(#clipPath292)"
       transform="matrix(0.57534502,0,0,0.57534502,8.9253852,141.98641)"><path
         d="m 57.6,233.60774 5.668571,-1.91157 5.668572,-15.46163 5.668571,-5.91812 5.668572,-2.52827 5.668571,-1.33594 5.668572,-3.97929 5.668571,-6.01863 5.66857,-1.37126 5.66857,-4.73276 5.66857,-2.91904 5.66858,-6.74389 5.66857,2.69986 5.66857,2.04408 5.66857,0.57644 5.66857,-6.46572 5.66857,-2.75754 5.66857,-1.25641 5.66858,-5.20489 5.66857,2.02812 5.66857,0.34694 5.66857,-1.99679 5.66857,-0.71036 5.66857,-2.37833 5.66857,-1.20951 5.66858,-11.35816 5.66857,2.34203 5.66857,-3.01814 5.66857,-0.3521 5.66857,-2.87636 5.66857,-10.63643 5.66857,1.76898 5.66858,1.22149 5.66857,-3.06869 5.66857,3.78491 5.66857,-3.96608 5.66857,-5.97438 5.66857,1.48356 5.66857,-1.45221 5.66858,-1.17998 5.66857,-5.42655 5.66857,5.10107 5.66857,0.17165 5.66857,-3.65952 5.66857,-1.34981 5.66857,-4.16458 5.66858,-2.39462 5.66857,-0.18515 5.66857,3.48338 5.66857,-6.74214 5.66857,-4.6536 5.66857,4.93143 5.66857,-0.99064 5.66858,0.82791 5.66857,-4.37435 5.66857,-0.97265 5.66857,1.12497 5.66857,-0.60752 5.66857,0.34474 5.66857,-7.23805 5.66858,2.9794 5.66857,-15.031618 5.66857,-11.013512 5.66857,-18.558585"
         style="fill:none;stroke:#ff7f0e;stroke-width:1.5;stroke-linecap:square;stroke-linejoin:round;stroke-miterlimit:10;stroke-dasharray:none;stroke-opacity:1"
         id="path294" /></g><g
       id="g298"
       clip-path="url(#clipPath302)"
       transform="matrix(0.57534502,0,0,0.57534502,8.9253852,141.98641)"><path
         d="m 57.6,240.01208 5.668571,-2.68577 5.668572,-11.93138 5.668571,-5.24841 5.668572,-2.26923 5.668571,-1.64035 5.668572,-5.07009 5.668571,-7.96316 5.66857,-0.95173 5.66857,-3.14244 5.66857,-2.84674 5.66858,-7.62899 5.66857,0.89458 5.66857,-0.20025 5.66857,-2.67461 5.66857,-4.53535 5.66857,-2.66776 5.66857,-0.36635 5.66858,-3.17132 5.66857,2.92069 5.66857,-0.69932 5.66857,-1.47346 5.66857,0.89306 5.66857,-1.17867 5.66857,-1.89852 5.66858,-10.0569 5.66857,2.92377 5.66857,-0.54047 5.66857,0.94696 5.66857,-2.30174 5.66857,-8.09104 5.66857,1.40552 5.66858,1.0495 5.66857,-1.1369 5.66857,2.80713 5.66857,-5.5393 5.66857,-3.5671 5.66857,-0.9819 5.66857,-1.83718 5.66858,-0.52331 5.66857,-8.80968 5.66857,8.74128 5.66857,-1.23109 5.66857,-3.43628 5.66857,-1.13653 5.66857,-2.44763 5.66858,-3.63568 5.66857,5.18178 5.66857,1.80634 5.66857,-6.37094 5.66857,-0.59205 5.66857,3.38909 5.66857,4.50562 5.66858,-0.0918 5.66857,-3.08403 5.66857,-0.98667 5.66857,-0.15098 5.66857,-0.95036 5.66857,0.19412 5.66857,3.15241 5.66858,0.60914 5.66857,-8.1943 5.66857,-10.17663 5.66857,-13.22773"
         style="fill:none;stroke:#2ca02c;stroke-width:1.5;stroke-linecap:square;stroke-linejoin:round;stroke-miterlimit:10;stroke-dasharray:none;stroke-opacity:1"
         id="path304" /></g><path
       d="m 42.065259,281.44983 3.261384,-1.44527 3.261384,-5.94088 3.261384,-2.93413 3.261385,-1.29895 3.261384,-0.75467 3.261386,-3.17168 3.261384,-4.10077 3.261383,-0.35525 3.261383,-2.3726 3.261384,-1.43377 3.261389,-3.72568 3.261384,-0.33329 3.261383,-0.15082 3.261383,-1.13537 3.261384,-2.58208 3.261383,-1.41453 3.261385,-0.21143 3.261389,-2.25686 3.26139,1.21928 3.26138,-0.24228 3.26138,-0.47099 3.26139,0.6184 3.26138,-1.04828 3.26138,-1.57365 3.26139,-5.38374 3.26139,0.5877 3.26138,0.10933 3.26138,0.74617 3.26139,-1.03162 3.26138,-4.4766 3.26138,0.84088 3.26139,0.45431 3.26139,-1.03769 3.26138,0.052 3.26138,-2.67778 3.26139,-2.24211 3.26138,-0.27697 3.26138,-2.37329 3.26139,-0.32642 3.26139,-4.70113 3.26138,5.43033 3.26138,1.92875 3.26139,-3.25919 3.26138,0.76796 3.26138,-2.54555 3.26139,-0.48589 3.26139,1.82191 3.26138,0.73053 3.26138,-3.92961 3.26139,-1.40143 3.26138,2.85234 3.26138,-0.30253 3.26139,-1.02131 3.26139,-2.61478 3.26138,1.78466 3.26138,-2.46881 3.26139,-1.43509 3.26138,0.21903 3.26138,-1.76261 3.26139,2.81333 3.26139,-9.08443 3.26138,-2.81201 3.26138,-6.35457"
       style="fill:none;stroke:#8c564b;stroke-width:0.863018;stroke-linecap:square;stroke-linejoin:round;stroke-miterlimit:10;stroke-dasharray:none;stroke-opacity:1"
       id="path314" /><g
       id="g318"
       clip-path="url(#clipPath322)"
       transform="matrix(0.57534502,0,0,0.57534502,8.9253852,141.98641)"><path
         d="m 57.6,243.371 5.668571,-0.64914 5.668572,-11.33697 5.668571,-4.98976 5.668572,-0.18319 5.668571,-4.22116 5.668572,-2.79204 5.668571,-7.02914 5.66857,-2.6364 5.66857,-2.62543 5.66857,-3.90864 5.66858,-7.87159 5.66857,0.211 5.66857,-0.83398 5.66857,-3.0946 5.66857,-3.76157 5.66857,-2.62714 5.66857,0.17784 5.66858,-4.14649 5.66857,2.19284 5.66857,-1.53988 5.66857,-1.4759 5.66857,0.12778 5.66857,-3.01012 5.66857,-3.94017 5.66858,-7.97975 5.66857,-0.36218 5.66857,-0.22246 5.66857,-0.52097 5.66857,-1.35675 5.66857,-7.75508 5.66857,2.67647 5.66858,1.48755 5.66857,0.0346 5.66857,2.22006 5.66857,-4.02413 5.66857,-6.92213 5.66857,-3.11798 5.66857,-2.47973 5.66858,-3.2583 5.66857,-8.09479 5.66857,8.10156 5.66857,5.72573 5.66857,-8.00283 5.66857,3.89463 5.66857,-6.10577 5.66858,-3.57213 5.66857,4.06831 5.66857,2.19093 5.66857,-6.10082 5.66857,0.78083 5.66857,1.89593 5.66857,0.41718 5.66858,1.55025 5.66857,-0.0385 5.66857,1.75943 5.66857,-1.99465 5.66857,1.66521 5.66857,1.14556 5.66857,-4.01779 5.66858,6.22589 5.66857,-10.49676 5.66857,-8.34024 5.66857,-14.62823"
         style="fill:none;stroke:#9467bd;stroke-width:1.5;stroke-linecap:square;stroke-linejoin:round;stroke-miterlimit:10;stroke-dasharray:none;stroke-opacity:1"
         id="path324" /></g><path
       d="M 42.065259,163.85872 V 316.96494"
       style="fill:none;stroke:#000000;stroke-width:0.460276;stroke-linecap:square;stroke-linejoin:miter;stroke-miterlimit:10;stroke-dasharray:none;stroke-opacity:1"
       id="path338" /><path
       d="M 247.53247,163.85872 V 316.96494"
       style="fill:none;stroke:#000000;stroke-width:0.460276;stroke-linecap:square;stroke-linejoin:miter;stroke-miterlimit:10;stroke-dasharray:none;stroke-opacity:1"
       id="path340" /><path
       d="M 42.065259,163.85872 H 247.53247"
       style="fill:none;stroke:#000000;stroke-width:0.460276;stroke-linecap:square;stroke-linejoin:miter;stroke-miterlimit:10;stroke-dasharray:none;stroke-opacity:1"
       id="path342" /><path
       d="M 42.065259,316.96494 H 247.53247"
       style="fill:none;stroke:#000000;stroke-width:0.460276;stroke-linecap:square;stroke-linejoin:miter;stroke-miterlimit:10;stroke-dasharray:none;stroke-opacity:1"
       id="path344" /><path
       d="m 43.986375,216.15529 h 11.5069"
       style="fill:none;stroke:#1f77b4;stroke-width:0.863018;stroke-linecap:square;stroke-linejoin:round;stroke-miterlimit:10;stroke-dasharray:none;stroke-opacity:1"
       id="path354" /><path
       d="m 43.986375,207.71389 h 11.5069"
       style="fill:none;stroke:#ff7f0e;stroke-width:0.863018;stroke-linecap:square;stroke-linejoin:round;stroke-miterlimit:10;stroke-dasharray:none;stroke-opacity:1"
       id="path360" /><path
       d="m 43.986375,199.2725 h 11.5069"
       style="fill:none;stroke:#2ca02c;stroke-width:0.863018;stroke-linecap:square;stroke-linejoin:round;stroke-miterlimit:10;stroke-dasharray:none;stroke-opacity:1"
       id="path366" /><path
       d="m 43.986375,190.83111 h 11.5069"
       style="fill:none;stroke:#8c564b;stroke-width:0.863018;stroke-linecap:square;stroke-linejoin:round;stroke-miterlimit:10;stroke-dasharray:none;stroke-opacity:1"
       id="path372" /><path
       d="m 43.986375,182.38973 h 11.5069"
       style="fill:none;stroke:#9467bd;stroke-width:0.863018;stroke-linecap:square;stroke-linejoin:round;stroke-miterlimit:10;stroke-dasharray:none;stroke-opacity:1"
       id="path378" /><path
       d="m 43.986375,173.94833 h 11.5069"
       style="fill:none;stroke:#d62728;stroke-width:0.863018;stroke-linecap:square;stroke-linejoin:round;stroke-miterlimit:10;stroke-dasharray:none;stroke-opacity:1"
       id="path384" /></g><g
     inkscape:groupmode="layer"
     id="layer1"
     inkscape:label="text"><text
       style="font-variant:normal;font-weight:normal;font-size:7.67127px;font-family:'DejaVu Sans';-inkscape-font-specification:DejaVuSans;writing-mode:lr-tb;fill:#000000;fill-opacity:1;fill-rule:nonzero;stroke:none;stroke-width:0.767127"
       id="text32"
       x="21.961996"
       y="236.31052"><tspan
         x="21.961996 26.840923 29.280386"
         y="236.31052"
         sodipodi:role="line"
         id="tspan30"
         style="stroke-width:0.767127">0.0</tspan></text><text
       style="font-variant:normal;font-weight:normal;font-size:7.67127px;font-family:'DejaVu Sans';-inkscape-font-specification:DejaVuSans;writing-mode:lr-tb;fill:#000000;fill-opacity:1;fill-rule:nonzero;stroke:none;stroke-width:0.767127"
       id="text50"
       x="56.750099"
       y="236.31052"><tspan
         x="56.750099 61.629028 64.068489"
         y="236.31052"
         sodipodi:role="line"
         id="tspan48"
         style="stroke-width:0.767127">0.2</tspan></text><text
       style="font-variant:normal;font-weight:normal;font-size:7.67127px;font-family:'DejaVu Sans';-inkscape-font-specification:DejaVuSans;writing-mode:lr-tb;fill:#000000;fill-opacity:1;fill-rule:nonzero;stroke:none;stroke-width:0.767127"
       id="text68"
       x="91.5382"
       y="236.31052"><tspan
         x="91.5382 96.417122 98.85659"
         y="236.31052"
         sodipodi:role="line"
         id="tspan66"
         style="stroke-width:0.767127">0.4</tspan></text><text
       style="font-variant:normal;font-weight:normal;font-size:7.67127px;font-family:'DejaVu Sans';-inkscape-font-specification:DejaVuSans;writing-mode:lr-tb;fill:#000000;fill-opacity:1;fill-rule:nonzero;stroke:none;stroke-width:0.767127"
       id="text86"
       x="126.3263"
       y="236.31052"><tspan
         x="126.3263 131.20522 133.64468"
         y="236.31052"
         sodipodi:role="line"
         id="tspan84"
         style="stroke-width:0.767127">0.6</tspan></text><text
       style="font-variant:normal;font-weight:normal;font-size:7.67127px;font-family:'DejaVu Sans';-inkscape-font-specification:DejaVuSans;writing-mode:lr-tb;fill:#000000;fill-opacity:1;fill-rule:nonzero;stroke:none;stroke-width:0.767127"
       id="text104"
       x="161.11438"
       y="236.31052"><tspan
         x="161.11438 165.99332 168.43279"
         y="236.31052"
         sodipodi:role="line"
         id="tspan102"
         style="stroke-width:0.767127">0.8</tspan></text><text
       style="font-variant:normal;font-weight:normal;font-size:7.67127px;font-family:'DejaVu Sans';-inkscape-font-specification:DejaVuSans;writing-mode:lr-tb;fill:#000000;fill-opacity:1;fill-rule:nonzero;stroke:none;stroke-width:0.767127"
       id="text122"
       x="195.90251"
       y="236.31052"><tspan
         x="195.90251 200.78142 203.22087"
         y="236.31052"
         sodipodi:role="line"
         id="tspan120"
         style="stroke-width:0.767127">1.0</tspan></text><text
       style="font-variant:normal;font-weight:normal;font-size:7.67127px;font-family:'DejaVu Sans';-inkscape-font-specification:DejaVuSans;writing-mode:lr-tb;fill:#000000;fill-opacity:1;fill-rule:nonzero;stroke:none;stroke-width:0.767127"
       id="text140"
       x="230.6906"
       y="236.31052"><tspan
         x="230.6906 235.5695 238.00897"
         y="236.31052"
         sodipodi:role="line"
         id="tspan138"
         style="stroke-width:0.767127">1.2</tspan></text><text
       style="font-variant:normal;font-weight:normal;font-size:7.67127px;font-family:'DejaVu Sans';-inkscape-font-specification:DejaVuSans;writing-mode:lr-tb;fill:#000000;fill-opacity:1;fill-rule:nonzero;stroke:none;stroke-width:0.767127"
       id="text158"
       x="265.4787"
       y="236.31052"><tspan
         x="265.4787 270.3576 272.79706"
         y="236.31052"
         sodipodi:role="line"
         id="tspan156"
         style="stroke-width:0.767127">1.4</tspan></text><text
       style="font-variant:normal;font-weight:normal;font-size:7.67127px;font-family:'DejaVu Sans';-inkscape-font-specification:DejaVuSans;writing-mode:lr-tb;fill:#000000;fill-opacity:1;fill-rule:nonzero;stroke:none;stroke-width:0.767127"
       id="text162"
       x="118.61205"
       y="246.79857"><tspan
         x="118.61205 124.55728 129.2751 134.13869 138.8335 146.30533 148.43793 152.65714 155.0966 159.96785 162.10045 166.0972 169.10432 173.80682 178.67038 182.88959 187.60742 190.04688 192.6321 195.07155 201.69186 206.56313"
         y="246.79857"
         sodipodi:role="line"
         id="tspan160"
         style="stroke-width:0.767127">Genomic distance / Mbp</tspan></text><text
       style="font-variant:normal;font-weight:normal;font-size:7.67127px;font-family:'DejaVu Sans';-inkscape-font-specification:DejaVuSans;writing-mode:lr-tb;fill:#000000;fill-opacity:1;fill-rule:nonzero;stroke:none;stroke-width:0.767127"
       id="text180"
       x="10.491055"
       y="228.02794"><tspan
         x="10.491055 15.369982 17.809444"
         y="228.02794"
         sodipodi:role="line"
         id="tspan178"
         style="stroke-width:0.767127">0.0</tspan></text><text
       style="font-variant:normal;font-weight:normal;font-size:7.67127px;font-family:'DejaVu Sans';-inkscape-font-specification:DejaVuSans;writing-mode:lr-tb;fill:#000000;fill-opacity:1;fill-rule:nonzero;stroke:none;stroke-width:0.767127"
       id="text198"
       x="10.491055"
       y="187.19962"><tspan
         x="10.491055 15.369982 17.809444"
         y="187.19962"
         sodipodi:role="line"
         id="tspan196"
         style="stroke-width:0.767127">0.2</tspan></text><text
       style="font-variant:normal;font-weight:normal;font-size:7.67127px;font-family:'DejaVu Sans';-inkscape-font-specification:DejaVuSans;writing-mode:lr-tb;fill:#000000;fill-opacity:1;fill-rule:nonzero;stroke:none;stroke-width:0.767127"
       id="text216"
       x="10.491055"
       y="146.37129"><tspan
         x="10.491055 15.369982 17.809444"
         y="146.37129"
         sodipodi:role="line"
         id="tspan214"
         style="stroke-width:0.767127">0.4</tspan></text><text
       style="font-variant:normal;font-weight:normal;font-size:7.67127px;font-family:'DejaVu Sans';-inkscape-font-specification:DejaVuSans;writing-mode:lr-tb;fill:#000000;fill-opacity:1;fill-rule:nonzero;stroke:none;stroke-width:0.767127"
       id="text234"
       x="10.491055"
       y="105.54297"><tspan
         x="10.491055 15.369982 17.809444"
         y="105.54297"
         sodipodi:role="line"
         id="tspan232"
         style="stroke-width:0.767127">0.6</tspan></text><text
       style="font-variant:normal;font-weight:normal;font-size:7.67127px;font-family:'DejaVu Sans';-inkscape-font-specification:DejaVuSans;writing-mode:lr-tb;fill:#000000;fill-opacity:1;fill-rule:nonzero;stroke:none;stroke-width:0.767127"
       id="text252"
       x="10.491055"
       y="64.714645"><tspan
         x="10.491055 15.369982 17.809444"
         y="64.714645"
         sodipodi:role="line"
         id="tspan250"
         style="stroke-width:0.767127">0.8</tspan></text><text
       style="font-variant:normal;font-weight:normal;font-size:7.67127px;font-family:'DejaVu Sans';-inkscape-font-specification:DejaVuSans;writing-mode:lr-tb;fill:#000000;fill-opacity:1;fill-rule:nonzero;stroke:none;stroke-width:0.767127"
       id="text270"
       x="10.491055"
       y="23.886383"><tspan
         x="10.491055 15.369982 17.809444"
         y="23.886383"
         sodipodi:role="line"
         id="tspan268"
         style="stroke-width:0.767127">1.0</tspan></text><text
       transform="rotate(-90)"
       style="font-variant:normal;font-weight:normal;font-size:7.67127px;font-family:'DejaVu Sans';-inkscape-font-specification:DejaVuSans;writing-mode:lr-tb;fill:#000000;fill-opacity:1;fill-rule:nonzero;stroke:none;stroke-width:0.767127"
       id="text274"
       x="-160.10626"
       y="5.8283648"><tspan
         x="-160.10626 -155.48048 -150.76265 -146.06015 -142.90727 -138.91054 -134.21573 -129.35214 -126.91268 -122.69348 -117.99866 -114.84577 -111.69288 -106.97505 -104.84244 -100.13995 -97.132828 -95.000214 -90.305405"
         y="5.8283648"
         sodipodi:role="line"
         id="tspan272"
         style="stroke-width:0.767127">Pearson correlation</tspan></text><text
       style="font-variant:normal;font-weight:normal;font-size:9.20552px;font-family:'DejaVu Sans';-inkscape-font-specification:DejaVuSans;writing-mode:lr-tb;fill:#000000;fill-opacity:1;fill-rule:nonzero;stroke:none;stroke-width:0.767127"
       id="text348"
       x="70.307037"
       y="6.0530758"><tspan
         x="70.307037 75.857964 81.519363 87.162354 90.945816 95.741882 101.37566 107.21197 110.13933 115.20235 120.83614 124.61961 128.40308 134.06447 136.62361 142.26659 145.87515 148.43428 154.06807 159.90437 162.83173 168.28139 173.07748 176.00482 178.93219 184.77768 190.43909 196.27536 201.90916 210.87532 213.43446 218.4975 221.42487 227.27036 229.8295 234.62555 238.23413 243.87712 249.71341 254.77646"
         y="6.0530758"
         sodipodi:role="line"
         id="tspan346"
         style="stroke-width:0.767127">Pearson correlation vs. genomic distance</tspan></text><text
       style="font-variant:normal;font-weight:normal;font-size:9.20552px;font-family:'DejaVu Sans';-inkscape-font-specification:DejaVuSans;writing-mode:lr-tb;fill:#000000;fill-opacity:1;fill-rule:nonzero;stroke:none;stroke-width:0.767127"
       id="text352"
       x="33.038155"
       y="16.370939"><tspan
         x="33.038155 40.172436 48.116802 53.971512 59.826214 65.680923 71.535637 77.390343 80.317711 83.245056 89.09977 92.027138 97.881844 100.8092 106.6639 109.59126 115.44597 118.37333 124.22804 127.1554 133.0101 138.86482 141.79218 147.64687 153.50159 156.42896 162.28366 168.13837 171.06572 176.92044 182.77515 185.7025 191.55721 197.41193 200.33928 206.194 212.04871 214.97607 220.83076 226.6855 229.61284 235.46756 241.32227 244.24962 249.88341 255.7197 258.64706 264.68585 270.54059 276.39529 282.25 285.17734 288.10471 293.95944"
         y="16.370939"
         sodipodi:role="line"
         id="tspan350"
         style="stroke-width:0.767127">GM12878, 1,2,4,7,9,11,13,14,16,17,18,20,22 on K562, 19</tspan></text><text
       style="font-variant:normal;font-weight:normal;font-size:7.67127px;font-family:'DejaVu Sans';-inkscape-font-specification:DejaVuSans;writing-mode:lr-tb;fill:#000000;fill-opacity:1;fill-rule:nonzero;stroke:none;stroke-width:0.767127"
       id="text358"
       x="48.104149"
       y="158.07152"><tspan
         x="48.104149"
         sodipodi:role="line"
         id="tspan356"
         style="stroke-width:0.767127"
         y="158.07152">20 ep / AUC: 0.370</tspan></text><text
       style="font-variant:normal;font-weight:normal;font-size:7.67127px;font-family:'DejaVu Sans';-inkscape-font-specification:DejaVuSans;writing-mode:lr-tb;fill:#000000;fill-opacity:1;fill-rule:nonzero;stroke:none;stroke-width:0.767127"
       id="text364"
       x="48.104149"
       y="169.32671"><tspan
         x="48.104149"
         sodipodi:role="line"
         id="tspan362"
         style="stroke-width:0.767127"
         y="169.32671">40 ep / AUC: 0.424</tspan></text><text
       style="font-variant:normal;font-weight:normal;font-size:7.67127px;font-family:'DejaVu Sans';-inkscape-font-specification:DejaVuSans;writing-mode:lr-tb;fill:#000000;fill-opacity:1;fill-rule:nonzero;stroke:none;stroke-width:0.767127"
       id="text370"
       x="48.104149"
       y="180.58189"><tspan
         x="48.104149 52.983086 57.862007 60.30146 65.019295 69.890541 72.329994 74.915199 77.354698 82.601845 88.217209 93.571739 96.156937 98.596428 103.47534 105.9148 110.79373 115.67267"
         y="180.58189"
         sodipodi:role="line"
         id="tspan368"
         style="stroke-width:0.767127">60 ep / AUC: 0.482</tspan></text><text
       style="font-variant:normal;font-weight:normal;font-size:7.67127px;font-family:'DejaVu Sans';-inkscape-font-specification:DejaVuSans;writing-mode:lr-tb;fill:#000000;fill-opacity:1;fill-rule:nonzero;stroke:none;stroke-width:0.767127"
       id="text376"
       x="48.104149"
       y="191.83702"><tspan
         x="48.104149 52.983086 57.862007 60.30146 65.019295 69.890541 72.329994 74.915199 77.354698 82.601845 88.217209 93.571739 96.156937 98.596428 103.47534 105.9148 110.79373 115.67267"
         y="191.83702"
         sodipodi:role="line"
         id="tspan374"
         style="stroke-width:0.767127">80 ep / AUC: 0.488</tspan></text><text
       style="font-variant:normal;font-weight:normal;font-size:7.67127px;font-family:'DejaVu Sans';-inkscape-font-specification:DejaVuSans;writing-mode:lr-tb;fill:#000000;fill-opacity:1;fill-rule:nonzero;stroke:none;stroke-width:0.767127"
       id="text382"
       x="48.104149"
       y="203.09219"><tspan
         x="48.104149 52.983086 57.862007 62.740913 65.180382 69.898216 74.769447 77.208931 79.794151 82.233604 87.480743 93.096123 98.450668 101.03587 103.47534 108.35428 110.79373 115.67267 120.5516"
         y="203.09219"
         sodipodi:role="line"
         id="tspan380"
         style="stroke-width:0.767127">100 ep / AUC: 0.483</tspan></text><text
       style="font-variant:normal;font-weight:normal;font-size:7.67127px;font-family:'DejaVu Sans';-inkscape-font-specification:DejaVuSans;writing-mode:lr-tb;fill:#000000;fill-opacity:1;fill-rule:nonzero;stroke:none;stroke-width:0.767127"
       id="text388"
       x="48.104149"
       y="214.3474"><tspan
         x="48.104149 51.111275 54.264168 58.966667 63.830254 67.826958 70.527245 75.245094 78.397972 80.837425 86.782669 93.402969 98.281898 103.16081 108.03976 112.91868 117.79762 120.23707 122.82229 125.26175 130.5089 136.12425 141.47881 144.06401 146.50346 151.3824 153.82188 158.70079 163.57973"
         y="214.3474"
         sodipodi:role="line"
         id="tspan386"
         style="stroke-width:0.767127">transfer GM12878 / AUC: 0.786</tspan></text></g></svg>
