<?xml version="1.0" encoding="UTF-8" standalone="no"?>
<svg
   xmlns:dc="http://purl.org/dc/elements/1.1/"
   xmlns:cc="http://creativecommons.org/ns#"
   xmlns:rdf="http://www.w3.org/1999/02/22-rdf-syntax-ns#"
   xmlns:svg="http://www.w3.org/2000/svg"
   xmlns="http://www.w3.org/2000/svg"
   xmlns:sodipodi="http://sodipodi.sourceforge.net/DTD/sodipodi-0.dtd"
   xmlns:inkscape="http://www.inkscape.org/namespaces/inkscape"
   version="1.1"
   id="svg2"
   xml:space="preserve"
   width="80mm"
   height="65.300003mm"
   viewBox="0 0 302.36219 246.80316"
   sodipodi:docname="pearson_chr03.svg"
   inkscape:version="1.0.2 (1.0.2+r75+1)"><metadata
     id="metadata8"><rdf:RDF><cc:Work
         rdf:about=""><dc:format>image/svg+xml</dc:format><dc:type
           rdf:resource="http://purl.org/dc/dcmitype/StillImage" /><dc:title></dc:title></cc:Work></rdf:RDF></metadata><defs
     id="defs6"><clipPath
       clipPathUnits="userSpaceOnUse"
       id="clipPath22"><path
         d="M 57.6,38.016 H 414.72 V 304.128 H 57.6 Z"
         id="path20" /></clipPath><clipPath
       clipPathUnits="userSpaceOnUse"
       id="clipPath40"><path
         d="M 57.6,38.016 H 414.72 V 304.128 H 57.6 Z"
         id="path38" /></clipPath><clipPath
       clipPathUnits="userSpaceOnUse"
       id="clipPath58"><path
         d="M 57.6,38.016 H 414.72 V 304.128 H 57.6 Z"
         id="path56" /></clipPath><clipPath
       clipPathUnits="userSpaceOnUse"
       id="clipPath76"><path
         d="M 57.6,38.016 H 414.72 V 304.128 H 57.6 Z"
         id="path74" /></clipPath><clipPath
       clipPathUnits="userSpaceOnUse"
       id="clipPath94"><path
         d="M 57.6,38.016 H 414.72 V 304.128 H 57.6 Z"
         id="path92" /></clipPath><clipPath
       clipPathUnits="userSpaceOnUse"
       id="clipPath112"><path
         d="M 57.6,38.016 H 414.72 V 304.128 H 57.6 Z"
         id="path110" /></clipPath><clipPath
       clipPathUnits="userSpaceOnUse"
       id="clipPath130"><path
         d="M 57.6,38.016 H 414.72 V 304.128 H 57.6 Z"
         id="path128" /></clipPath><clipPath
       clipPathUnits="userSpaceOnUse"
       id="clipPath148"><path
         d="M 57.6,38.016 H 414.72 V 304.128 H 57.6 Z"
         id="path146" /></clipPath><clipPath
       clipPathUnits="userSpaceOnUse"
       id="clipPath170"><path
         d="M 57.6,38.016 H 414.72 V 304.128 H 57.6 Z"
         id="path168" /></clipPath><clipPath
       clipPathUnits="userSpaceOnUse"
       id="clipPath188"><path
         d="M 57.6,38.016 H 414.72 V 304.128 H 57.6 Z"
         id="path186" /></clipPath><clipPath
       clipPathUnits="userSpaceOnUse"
       id="clipPath206"><path
         d="M 57.6,38.016 H 414.72 V 304.128 H 57.6 Z"
         id="path204" /></clipPath><clipPath
       clipPathUnits="userSpaceOnUse"
       id="clipPath224"><path
         d="M 57.6,38.016 H 414.72 V 304.128 H 57.6 Z"
         id="path222" /></clipPath><clipPath
       clipPathUnits="userSpaceOnUse"
       id="clipPath242"><path
         d="M 57.6,38.016 H 414.72 V 304.128 H 57.6 Z"
         id="path240" /></clipPath><clipPath
       clipPathUnits="userSpaceOnUse"
       id="clipPath260"><path
         d="M 57.6,38.016 H 414.72 V 304.128 H 57.6 Z"
         id="path258" /></clipPath><clipPath
       clipPathUnits="userSpaceOnUse"
       id="clipPath282"><path
         d="M 57.6,38.016 H 414.72 V 304.128 H 57.6 Z"
         id="path280" /></clipPath><clipPath
       clipPathUnits="userSpaceOnUse"
       id="clipPath292"><path
         d="M 57.6,38.016 H 414.72 V 304.128 H 57.6 Z"
         id="path290" /></clipPath><clipPath
       clipPathUnits="userSpaceOnUse"
       id="clipPath302"><path
         d="M 57.6,38.016 H 414.72 V 304.128 H 57.6 Z"
         id="path300" /></clipPath><clipPath
       clipPathUnits="userSpaceOnUse"
       id="clipPath312"><path
         d="M 57.6,38.016 H 414.72 V 304.128 H 57.6 Z"
         id="path310" /></clipPath><clipPath
       clipPathUnits="userSpaceOnUse"
       id="clipPath322"><path
         d="M 57.6,38.016 H 414.72 V 304.128 H 57.6 Z"
         id="path320" /></clipPath><clipPath
       clipPathUnits="userSpaceOnUse"
       id="clipPath332"><path
         d="M 57.6,38.016 H 414.72 V 304.128 H 57.6 Z"
         id="path330" /></clipPath></defs><sodipodi:namedview
     pagecolor="#ffffff"
     bordercolor="#666666"
     borderopacity="1"
     objecttolerance="10"
     gridtolerance="10"
     guidetolerance="10"
     inkscape:pageopacity="0"
     inkscape:pageshadow="2"
     inkscape:window-width="1920"
     inkscape:window-height="1020"
     id="namedview4"
     showgrid="false"
     fit-margin-top="0"
     fit-margin-left="0"
     fit-margin-right="0"
     fit-margin-bottom="0"
     units="mm"
     inkscape:zoom="5.2603344"
     inkscape:cx="138.81477"
     inkscape:cy="183.67543"
     inkscape:window-x="0"
     inkscape:window-y="0"
     inkscape:window-maximized="1"
     inkscape:current-layer="layer1" /><g
     id="g10"
     inkscape:groupmode="layer"
     inkscape:label="pearson_chr03"
     transform="matrix(1.3333333,0,0,-1.3333333,-28.023958,443.59357)"><g
       id="g16"
       transform="matrix(0.57541976,0,0,0.57541976,8.9238144,141.96861)"><g
         id="g18"
         clip-path="url(#clipPath22)"><path
           d="M 57.6,38.016 V 304.128"
           style="fill:none;stroke:#b0b0b0;stroke-width:0.8;stroke-linecap:square;stroke-linejoin:round;stroke-miterlimit:10;stroke-dasharray:none;stroke-opacity:1"
           id="path24" /></g></g><path
       d="M 42.067992,163.84377 V 161.8298"
       style="fill:#000000;fill-opacity:1;fill-rule:nonzero;stroke:#000000;stroke-width:0.460336;stroke-linecap:butt;stroke-linejoin:round;stroke-miterlimit:10;stroke-dasharray:none;stroke-opacity:1"
       id="path28" /><g
       id="g34"
       transform="matrix(0.57541976,0,0,0.57541976,8.9238144,141.96861)"><g
         id="g36"
         clip-path="url(#clipPath40)"><path
           d="M 102.94857,38.016 V 304.128"
           style="fill:none;stroke:#b0b0b0;stroke-width:0.8;stroke-linecap:square;stroke-linejoin:round;stroke-miterlimit:10;stroke-dasharray:none;stroke-opacity:1"
           id="path42" /></g></g><path
       d="M 68.162455,163.84377 V 161.8298"
       style="fill:#000000;fill-opacity:1;fill-rule:nonzero;stroke:#000000;stroke-width:0.460336;stroke-linecap:butt;stroke-linejoin:round;stroke-miterlimit:10;stroke-dasharray:none;stroke-opacity:1"
       id="path46" /><g
       id="g52"
       transform="matrix(0.57541976,0,0,0.57541976,8.9238144,141.96861)"><g
         id="g54"
         clip-path="url(#clipPath58)"><path
           d="M 148.29714,38.016 V 304.128"
           style="fill:none;stroke:#b0b0b0;stroke-width:0.8;stroke-linecap:square;stroke-linejoin:round;stroke-miterlimit:10;stroke-dasharray:none;stroke-opacity:1"
           id="path60" /></g></g><path
       d="M 94.256919,163.84377 V 161.8298"
       style="fill:#000000;fill-opacity:1;fill-rule:nonzero;stroke:#000000;stroke-width:0.460336;stroke-linecap:butt;stroke-linejoin:round;stroke-miterlimit:10;stroke-dasharray:none;stroke-opacity:1"
       id="path64" /><g
       id="g70"
       transform="matrix(0.57541976,0,0,0.57541976,8.9238144,141.96861)"><g
         id="g72"
         clip-path="url(#clipPath76)"><path
           d="M 193.64571,38.016 V 304.128"
           style="fill:none;stroke:#b0b0b0;stroke-width:0.8;stroke-linecap:square;stroke-linejoin:round;stroke-miterlimit:10;stroke-dasharray:none;stroke-opacity:1"
           id="path78" /></g></g><path
       d="M 120.35138,163.84377 V 161.8298"
       style="fill:#000000;fill-opacity:1;fill-rule:nonzero;stroke:#000000;stroke-width:0.460336;stroke-linecap:butt;stroke-linejoin:round;stroke-miterlimit:10;stroke-dasharray:none;stroke-opacity:1"
       id="path82" /><g
       id="g88"
       transform="matrix(0.57541976,0,0,0.57541976,8.9238144,141.96861)"><g
         id="g90"
         clip-path="url(#clipPath94)"><path
           d="M 238.99429,38.016 V 304.128"
           style="fill:none;stroke:#b0b0b0;stroke-width:0.8;stroke-linecap:square;stroke-linejoin:round;stroke-miterlimit:10;stroke-dasharray:none;stroke-opacity:1"
           id="path96" /></g></g><path
       d="M 146.44585,163.84377 V 161.8298"
       style="fill:#000000;fill-opacity:1;fill-rule:nonzero;stroke:#000000;stroke-width:0.460336;stroke-linecap:butt;stroke-linejoin:round;stroke-miterlimit:10;stroke-dasharray:none;stroke-opacity:1"
       id="path100" /><g
       id="g106"
       transform="matrix(0.57541976,0,0,0.57541976,8.9238144,141.96861)"><g
         id="g108"
         clip-path="url(#clipPath112)"><path
           d="M 284.34286,38.016 V 304.128"
           style="fill:none;stroke:#b0b0b0;stroke-width:0.8;stroke-linecap:square;stroke-linejoin:round;stroke-miterlimit:10;stroke-dasharray:none;stroke-opacity:1"
           id="path114" /></g></g><path
       d="M 172.54032,163.84377 V 161.8298"
       style="fill:#000000;fill-opacity:1;fill-rule:nonzero;stroke:#000000;stroke-width:0.460336;stroke-linecap:butt;stroke-linejoin:round;stroke-miterlimit:10;stroke-dasharray:none;stroke-opacity:1"
       id="path118" /><g
       id="g124"
       transform="matrix(0.57541976,0,0,0.57541976,8.9238144,141.96861)"><g
         id="g126"
         clip-path="url(#clipPath130)"><path
           d="M 329.69143,38.016 V 304.128"
           style="fill:none;stroke:#b0b0b0;stroke-width:0.8;stroke-linecap:square;stroke-linejoin:round;stroke-miterlimit:10;stroke-dasharray:none;stroke-opacity:1"
           id="path132" /></g></g><path
       d="M 198.63477,163.84377 V 161.8298"
       style="fill:#000000;fill-opacity:1;fill-rule:nonzero;stroke:#000000;stroke-width:0.460336;stroke-linecap:butt;stroke-linejoin:round;stroke-miterlimit:10;stroke-dasharray:none;stroke-opacity:1"
       id="path136" /><g
       id="g142"
       transform="matrix(0.57541976,0,0,0.57541976,8.9238144,141.96861)"><g
         id="g144"
         clip-path="url(#clipPath148)"><path
           d="M 375.04,38.016 V 304.128"
           style="fill:none;stroke:#b0b0b0;stroke-width:0.8;stroke-linecap:square;stroke-linejoin:round;stroke-miterlimit:10;stroke-dasharray:none;stroke-opacity:1"
           id="path150" /></g></g><path
       d="M 224.72924,163.84377 V 161.8298"
       style="fill:#000000;fill-opacity:1;fill-rule:nonzero;stroke:#000000;stroke-width:0.460336;stroke-linecap:butt;stroke-linejoin:round;stroke-miterlimit:10;stroke-dasharray:none;stroke-opacity:1"
       id="path154" /><g
       id="g164"
       transform="matrix(0.57541976,0,0,0.57541976,8.9238144,141.96861)"><g
         id="g166"
         clip-path="url(#clipPath170)"><path
           d="M 57.6,38.016 H 414.72"
           style="fill:none;stroke:#b0b0b0;stroke-width:0.8;stroke-linecap:square;stroke-linejoin:round;stroke-miterlimit:10;stroke-dasharray:none;stroke-opacity:1"
           id="path172" /></g></g><path
       d="M 42.067992,163.84377 H 40.054023"
       style="fill:#000000;fill-opacity:1;fill-rule:nonzero;stroke:#000000;stroke-width:0.460336;stroke-linecap:butt;stroke-linejoin:round;stroke-miterlimit:10;stroke-dasharray:none;stroke-opacity:1"
       id="path176" /><g
       id="g182"
       transform="matrix(0.57541976,0,0,0.57541976,8.9238144,141.96861)"><g
         id="g184"
         clip-path="url(#clipPath188)"><path
           d="M 57.6,91.2384 H 414.72"
           style="fill:none;stroke:#b0b0b0;stroke-width:0.8;stroke-linecap:square;stroke-linejoin:round;stroke-miterlimit:10;stroke-dasharray:none;stroke-opacity:1"
           id="path190" /></g></g><path
       d="M 42.067992,194.46898 H 40.054023"
       style="fill:#000000;fill-opacity:1;fill-rule:nonzero;stroke:#000000;stroke-width:0.460336;stroke-linecap:butt;stroke-linejoin:round;stroke-miterlimit:10;stroke-dasharray:none;stroke-opacity:1"
       id="path194" /><g
       id="g200"
       transform="matrix(0.57541976,0,0,0.57541976,8.9238144,141.96861)"><g
         id="g202"
         clip-path="url(#clipPath206)"><path
           d="M 57.6,144.4608 H 414.72"
           style="fill:none;stroke:#b0b0b0;stroke-width:0.8;stroke-linecap:square;stroke-linejoin:round;stroke-miterlimit:10;stroke-dasharray:none;stroke-opacity:1"
           id="path208" /></g></g><path
       d="M 42.067992,225.0942 H 40.054023"
       style="fill:#000000;fill-opacity:1;fill-rule:nonzero;stroke:#000000;stroke-width:0.460336;stroke-linecap:butt;stroke-linejoin:round;stroke-miterlimit:10;stroke-dasharray:none;stroke-opacity:1"
       id="path212" /><g
       id="g218"
       transform="matrix(0.57541976,0,0,0.57541976,8.9238144,141.96861)"><g
         id="g220"
         clip-path="url(#clipPath224)"><path
           d="M 57.6,197.6832 H 414.72"
           style="fill:none;stroke:#b0b0b0;stroke-width:0.8;stroke-linecap:square;stroke-linejoin:round;stroke-miterlimit:10;stroke-dasharray:none;stroke-opacity:1"
           id="path226" /></g></g><path
       d="M 42.067992,255.71942 H 40.054023"
       style="fill:#000000;fill-opacity:1;fill-rule:nonzero;stroke:#000000;stroke-width:0.460336;stroke-linecap:butt;stroke-linejoin:round;stroke-miterlimit:10;stroke-dasharray:none;stroke-opacity:1"
       id="path230" /><g
       id="g236"
       transform="matrix(0.57541976,0,0,0.57541976,8.9238144,141.96861)"><g
         id="g238"
         clip-path="url(#clipPath242)"><path
           d="M 57.6,250.9056 H 414.72"
           style="fill:none;stroke:#b0b0b0;stroke-width:0.8;stroke-linecap:square;stroke-linejoin:round;stroke-miterlimit:10;stroke-dasharray:none;stroke-opacity:1"
           id="path244" /></g></g><path
       d="M 42.067992,286.34465 H 40.054023"
       style="fill:#000000;fill-opacity:1;fill-rule:nonzero;stroke:#000000;stroke-width:0.460336;stroke-linecap:butt;stroke-linejoin:round;stroke-miterlimit:10;stroke-dasharray:none;stroke-opacity:1"
       id="path248" /><g
       id="g254"
       transform="matrix(0.57541976,0,0,0.57541976,8.9238144,141.96861)"><g
         id="g256"
         clip-path="url(#clipPath260)"><path
           d="M 57.6,304.128 H 414.72"
           style="fill:none;stroke:#b0b0b0;stroke-width:0.8;stroke-linecap:square;stroke-linejoin:round;stroke-miterlimit:10;stroke-dasharray:none;stroke-opacity:1"
           id="path262" /></g></g><g
       id="g276"
       transform="matrix(0.57541976,0,0,0.57541976,8.9238144,141.96861)"><g
         id="g278"
         clip-path="url(#clipPath282)"><path
           d="m 57.6,174.92352 5.668571,15.64916 5.668572,-0.75022 5.668571,-0.61709 5.668572,-0.69001 5.668571,-0.66813 5.668572,-1.89743 5.668571,-1.53887 5.66857,-2.30408 5.66857,-0.92193 5.66857,-2.87446 5.66858,-1.33392 5.66857,-2.96291 5.66857,-2.24017 5.66857,0.0769 5.66857,-0.12845 5.66857,0.69885 5.66857,-3.41137 5.66858,-2.28206 5.66857,-2.12813 5.66857,0.13176 5.66857,0.2777 5.66857,-2.15513 5.66857,-2.43823 5.66857,-3.50901 5.66858,-5.86301 5.66857,-1.53985 5.66857,-2.11548 5.66857,-4.01271 5.66857,-4.32639 5.66857,-4.96708 5.66857,-1.57344 5.66858,-3.53301 5.66857,-0.8228 5.66857,-4.35732 5.66857,-3.15723 5.66857,-1.08701 5.66857,-3.07072 5.66857,-1.65216 5.66858,-4.25316 5.66857,-2.65733 5.66857,-5.44539 5.66857,-2.600228 5.66857,-3.723533 5.66857,-1.538717 5.66857,-5.440023 5.66858,0.0082 5.66857,-4.340582 5.66857,0.689326 5.66857,-1.550701 5.66857,-3.027241 5.66857,0.34565 5.66857,-3.074928 5.66858,2.081538 5.66857,-0.99075 5.66857,-3.000494 5.66857,2.728291 5.66857,2.251168 5.66857,-1.158548 5.66857,2.580656 5.66858,-4.488296 5.66857,-0.460091 5.66857,-5.547294 5.66857,-9.046222"
           style="fill:none;stroke:#1f77b4;stroke-width:1.5;stroke-linecap:square;stroke-linejoin:round;stroke-miterlimit:10;stroke-dasharray:none;stroke-opacity:1"
           id="path284" /></g></g><g
       id="g286"
       transform="matrix(0.57541976,0,0,0.57541976,8.9238144,141.96861)"><g
         id="g288"
         clip-path="url(#clipPath292)"><path
           d="m 57.6,188.50945 5.668571,14.35248 5.668572,0.27581 5.668571,0.0661 5.668572,-0.585 5.668571,-0.57874 5.668572,-2.69105 5.668571,-3.00809 5.66857,-2.5413 5.66857,-0.94206 5.66857,-1.88005 5.66858,-0.5676 5.66857,-1.31906 5.66857,-2.91697 5.66857,-0.84335 5.66857,-0.21742 5.66857,1.07238 5.66857,-3.20285 5.66858,-2.8613 5.66857,-1.35934 5.66857,0.17548 5.66857,1.39355 5.66857,-2.36407 5.66857,-3.28377 5.66857,-3.12393 5.66858,-5.84369 5.66857,-0.68648 5.66857,-2.44961 5.66857,-3.02883 5.66857,-4.00431 5.66857,-2.96463 5.66857,0.47583 5.66858,-2.72475 5.66857,-0.68723 5.66857,-1.93465 5.66857,-3.17887 5.66857,-0.0581 5.66857,-3.43405 5.66857,-1.80269 5.66858,-3.01426 5.66857,-4.04781 5.66857,-5.00766 5.66857,-2.81683 5.66857,-4.06326 5.66857,-0.25901 5.66857,-7.59054 5.66858,-0.93944 5.66857,-5.78194 5.66857,-1.1216 5.66857,-4.940826 5.66857,-3.726848 5.66857,1.327204 5.66857,-4.275165 5.66858,0.810662 5.66857,2.007825 5.66857,-2.236893 5.66857,1.732259 5.66857,0.112986 5.66857,-1.118641 5.66857,0.965078 5.66858,-3.342711 5.66857,-0.751617 5.66857,-4.020679 L 414.72,77.9142"
           style="fill:none;stroke:#ff7f0e;stroke-width:1.5;stroke-linecap:square;stroke-linejoin:round;stroke-miterlimit:10;stroke-dasharray:none;stroke-opacity:1"
           id="path294" /></g></g><path
       d="M 42.067992,316.96987 H 40.054023"
       style="fill:#000000;fill-opacity:1;fill-rule:nonzero;stroke:#000000;stroke-width:0.460336;stroke-linecap:butt;stroke-linejoin:round;stroke-miterlimit:10;stroke-dasharray:none;stroke-opacity:1"
       id="path266" /><g
       id="g296"
       transform="matrix(0.57541976,0,0,0.57541976,8.9238144,141.96861)"><g
         id="g298"
         clip-path="url(#clipPath302)"><path
           d="m 57.6,198.54955 5.668571,13.30127 5.668572,1.66587 5.668571,-0.47596 5.668572,-1.30778 5.668571,-0.87103 5.668572,-3.9542 5.668571,-3.2228 5.66857,-3.15146 5.66857,-1.06249 5.66857,-1.9729 5.66858,-1.29314 5.66857,-1.81671 5.66857,-2.85557 5.66857,-0.90043 5.66857,0.30353 5.66857,0.91738 5.66857,-3.91146 5.66858,-2.05416 5.66857,-0.5801 5.66857,-0.0166 5.66857,1.19762 5.66857,-2.93324 5.66857,-2.12439 5.66857,-3.33846 5.66858,-5.34702 5.66857,-0.67995 5.66857,-2.84116 5.66857,-4.10372 5.66857,-3.76135 5.66857,-3.24366 5.66857,0.33976 5.66858,-3.0857 5.66857,0.49375 5.66857,-2.31305 5.66857,-2.64613 5.66857,-0.77326 5.66857,-1.46453 5.66857,-2.63329 5.66858,-2.69823 5.66857,-3.55429 5.66857,-4.08398 5.66857,-3.67134 5.66857,-3.72249 5.66857,-0.56822 5.66857,-6.82162 5.66858,-0.32546 5.66857,-5.44688 5.66857,-0.10786 5.66857,-5.04711 5.66857,-2.05272 5.66857,2.66041 5.66857,-5.17337 5.66858,2.90529 5.66857,2.60822 5.66857,-5.28761 5.66857,2.83283 5.66857,-0.33665 5.66857,-1.04232 5.66857,1.76758 5.66858,-1.49314 5.66857,-5.77503 5.66857,-0.25902 L 414.72,92.797"
           style="fill:none;stroke:#2ca02c;stroke-width:1.5;stroke-linecap:square;stroke-linejoin:round;stroke-miterlimit:10;stroke-dasharray:none;stroke-opacity:1"
           id="path304" /></g></g><path
       d="m 42.067992,259.42877 3.261808,7.33334 3.261809,1.12001 3.261807,-0.46683 3.261808,-0.34357 3.261808,-0.75982 3.261809,-2.82398 3.261808,-0.99145 3.261806,-1.43655 3.261808,-1.23219 3.261807,-1.36114 3.261813,-0.68396 3.261807,-1.28958 3.261807,-1.59534 3.261807,-0.20762 3.261808,0.2771 3.261807,0.43201 3.261807,-2.3361 3.261814,-1.30681 3.26181,-0.4849 3.2618,-0.30959 3.26181,1.36149 3.2618,-2.18048 3.26182,-1.87592 3.2618,-1.51105 3.26181,-3.56826 3.26182,-0.81982 3.2618,-1.72788 3.26181,-2.2684 3.2618,-2.321 3.26181,-1.40086 3.2618,-0.009 3.26182,-2.32565 3.26181,0.34208 3.2618,-1.7098 3.26181,-1.46948 3.26181,-0.23406 3.26181,-1.83991 3.26181,-1.71368 3.26181,-2.37846 3.26181,-2.09469 3.2618,-2.23029 3.26181,-2.26177 3.2618,-2.89542 3.26181,-0.30663 3.26181,-3.53581 3.26181,-0.29821 3.26181,-2.33349 3.2618,-0.0289 3.26182,-3.44351 3.26181,-0.96731 3.2618,0.84876 3.26181,-2.62626 3.26181,2.03759 3.26181,1.82779 3.2618,-3.77817 3.26181,0.51854 3.26181,-0.64182 3.2618,-0.41487 3.26181,0.24414 3.26181,-1.68087 3.26181,-3.25296 3.2618,0.7022 3.26182,-5.57856"
       style="fill:none;stroke:#8c564b;stroke-width:0.863129;stroke-linecap:square;stroke-linejoin:round;stroke-miterlimit:10;stroke-dasharray:none;stroke-opacity:1"
       id="path314" /><g
       id="g316"
       transform="matrix(0.57541976,0,0,0.57541976,8.9238144,141.96861)"><g
         id="g318"
         clip-path="url(#clipPath322)"><path
           d="m 57.6,207.97243 5.668571,13.42029 5.668572,0.51174 5.668571,-0.2662 5.668572,0.46025 5.668571,-3.28154 5.668572,-4.94416 5.668571,-0.39674 5.66857,-4.15532 5.66857,-1.38896 5.66857,-2.37579 5.66858,-2.07329 5.66857,-2.09911 5.66857,-2.61415 5.66857,-0.1221 5.66857,0.81556 5.66857,0.43071 5.66857,-4.61266 5.66858,-2.15629 5.66857,-0.85148 5.66857,-0.73594 5.66857,2.31082 5.66857,-2.95164 5.66857,-3.23654 5.66857,-3.16049 5.66858,-7.33377 5.66857,-0.59881 5.66857,-2.44327 5.66857,-4.30547 5.66857,-3.66293 5.66857,-2.8078 5.66857,0.17993 5.66858,-4.20193 5.66857,-0.24307 5.66857,-2.60616 5.66857,-2.77022 5.66857,-0.86733 5.66857,-4.14063 5.66857,-3.72101 5.66858,-5.2252 5.66857,-3.88792 5.66857,-5.79738 5.66857,-6.29989 5.66857,-5.65761 5.66857,-1.55849 5.66857,-7.92584 5.66858,-1.80522 5.66857,-1.85407 5.66857,-1.33989 5.66857,-5.768629 5.66857,-1.822127 5.66857,3.335053 5.66857,-4.547432 5.66858,3.450466 5.66857,2.016199 5.66857,-3.532353 5.66857,0.242828 5.66857,3.036115 5.66857,-3.278475 5.66857,2.495745 5.66858,-2.85644 5.66857,-3.994765 5.66857,0.644029 5.66857,-5.185037"
           style="fill:none;stroke:#9467bd;stroke-width:1.5;stroke-linecap:square;stroke-linejoin:round;stroke-miterlimit:10;stroke-dasharray:none;stroke-opacity:1"
           id="path324" /></g></g><path
       d="m 42.067992,285.58801 3.261808,-2.89926 3.261809,-2.40948 3.261807,-1.41994 3.261808,0.21543 3.261808,0.99036 3.261809,-0.002 3.261808,0.87069 3.261806,0.80315 3.261808,-0.51664 3.261807,1.13135 3.261813,0.76962 3.261807,-0.30606 3.261807,-1.54607 3.261807,-1.04228 3.261808,-2.40847 3.261807,-1.45667 3.261807,-0.93737 3.261814,-1.6581 3.26181,-1.67909 3.2618,-2.42748 3.26181,0.0998 3.2618,-0.96724 3.26182,-1.70606 3.2618,-1.49047 3.26181,-1.1361 3.26182,-0.97336 3.2618,-3.77004 3.26181,1.74496 3.2618,-1.08518 3.26181,0.65889 3.2618,-0.91598 3.26182,0.24256 3.26181,-0.53175 3.2618,-1.97808 3.26181,0.37711 3.26181,0.19845 3.26181,-1.44465 3.26181,3.0301 3.26181,0.12884 3.26181,-0.60767 3.2618,-0.81599 3.26181,-0.10493 3.2618,0.91967 3.26181,1.99144 3.26181,-0.68497 3.26181,-1.63611 3.26181,-0.11192 3.2618,3.45753 3.26182,-1.038 3.26181,-3.05049 3.2618,3.87379 3.26181,-1.60512 3.26181,-2.89194 3.26181,-1.24576 3.2618,3.37527 3.26181,-0.97525 3.26181,-1.62344 3.2618,0.046 3.26181,1.41691 3.26181,0.3554 3.26181,0.16276 3.2618,-1.62754 3.26182,2.00476"
       style="fill:none;stroke:#d62728;stroke-width:0.863129;stroke-linecap:square;stroke-linejoin:round;stroke-miterlimit:10;stroke-dasharray:none;stroke-opacity:1"
       id="path334" /><path
       d="m 42.067992,163.84377 v 153.1261"
       style="fill:none;stroke:#000000;stroke-width:0.460336;stroke-linecap:square;stroke-linejoin:miter;stroke-miterlimit:10;stroke-dasharray:none;stroke-opacity:1"
       id="path338" /><path
       d="m 247.5619,163.84377 v 153.1261"
       style="fill:none;stroke:#000000;stroke-width:0.460336;stroke-linecap:square;stroke-linejoin:miter;stroke-miterlimit:10;stroke-dasharray:none;stroke-opacity:1"
       id="path340" /><path
       d="M 42.067992,163.84377 H 247.5619"
       style="fill:none;stroke:#000000;stroke-width:0.460336;stroke-linecap:square;stroke-linejoin:miter;stroke-miterlimit:10;stroke-dasharray:none;stroke-opacity:1"
       id="path342" /><path
       d="M 42.067992,316.96987 H 247.5619"
       style="fill:none;stroke:#000000;stroke-width:0.460336;stroke-linecap:square;stroke-linejoin:miter;stroke-miterlimit:10;stroke-dasharray:none;stroke-opacity:1"
       id="path344" /><path
       d="m 44.055375,215.59716 h 11.50839"
       style="fill:none;stroke:#1f77b4;stroke-width:0.863129;stroke-linecap:square;stroke-linejoin:round;stroke-miterlimit:10;stroke-dasharray:none;stroke-opacity:1"
       id="path354" /><path
       d="m 44.055375,207.15467 h 11.50839"
       style="fill:none;stroke:#ff7f0e;stroke-width:0.863129;stroke-linecap:square;stroke-linejoin:round;stroke-miterlimit:10;stroke-dasharray:none;stroke-opacity:1"
       id="path360" /><path
       d="m 44.055375,198.71219 h 11.50839"
       style="fill:none;stroke:#2ca02c;stroke-width:0.863129;stroke-linecap:square;stroke-linejoin:round;stroke-miterlimit:10;stroke-dasharray:none;stroke-opacity:1"
       id="path366" /><path
       d="m 44.055375,190.2697 h 11.50839"
       style="fill:none;stroke:#8c564b;stroke-width:0.863129;stroke-linecap:square;stroke-linejoin:round;stroke-miterlimit:10;stroke-dasharray:none;stroke-opacity:1"
       id="path372" /><path
       d="m 44.055375,181.82722 h 11.50839"
       style="fill:none;stroke:#9467bd;stroke-width:0.863129;stroke-linecap:square;stroke-linejoin:round;stroke-miterlimit:10;stroke-dasharray:none;stroke-opacity:1"
       id="path378" /><path
       d="m 44.055375,173.38473 h 11.50839"
       style="fill:none;stroke:#d62728;stroke-width:0.863129;stroke-linecap:square;stroke-linejoin:round;stroke-miterlimit:10;stroke-dasharray:none;stroke-opacity:1"
       id="path384" /></g><g
     inkscape:groupmode="layer"
     id="layer1"
     inkscape:label="text"
     style="display:inline"><text
       transform="matrix(1.3333333,0,0,1.3333333,-28.023958,443.59357)"
       style="font-variant:normal;font-weight:normal;font-size:5.7542px;font-family:'DejaVu Sans';-inkscape-font-specification:DejaVuSans;writing-mode:lr-tb;fill:#000000;fill-opacity:1;fill-rule:nonzero;stroke:none;stroke-width:0.575419"
       id="text32"
       x="37.491608"
       y="-155.44632"><tspan
         x="37.491608 41.151279 42.981113"
         y="-155.44632"
         sodipodi:role="line"
         id="tspan30"
         style="stroke-width:0.575419">0.0</tspan></text><text
       transform="matrix(1.3333333,0,0,1.3333333,-28.023958,443.59357)"
       style="font-variant:normal;font-weight:normal;font-size:5.7542px;font-family:'DejaVu Sans';-inkscape-font-specification:DejaVuSans;writing-mode:lr-tb;fill:#000000;fill-opacity:1;fill-rule:nonzero;stroke:none;stroke-width:0.575419"
       id="text50"
       x="63.586071"
       y="-155.44632"><tspan
         x="63.586071 67.245743 69.075577"
         y="-155.44632"
         sodipodi:role="line"
         id="tspan48"
         style="stroke-width:0.575419">0.2</tspan></text><text
       transform="matrix(1.3333333,0,0,1.3333333,-28.023958,443.59357)"
       style="font-variant:normal;font-weight:normal;font-size:5.7542px;font-family:'DejaVu Sans';-inkscape-font-specification:DejaVuSans;writing-mode:lr-tb;fill:#000000;fill-opacity:1;fill-rule:nonzero;stroke:none;stroke-width:0.575419"
       id="text68"
       x="89.680534"
       y="-155.44632"><tspan
         x="89.680534 93.340202 95.170036"
         y="-155.44632"
         sodipodi:role="line"
         id="tspan66"
         style="stroke-width:0.575419">0.4</tspan></text><text
       transform="matrix(1.3333333,0,0,1.3333333,-28.023958,443.59357)"
       style="font-variant:normal;font-weight:normal;font-size:5.7542px;font-family:'DejaVu Sans';-inkscape-font-specification:DejaVuSans;writing-mode:lr-tb;fill:#000000;fill-opacity:1;fill-rule:nonzero;stroke:none;stroke-width:0.575419"
       id="text86"
       x="115.77501"
       y="-155.44632"><tspan
         x="115.77501 119.43468 121.2645"
         y="-155.44632"
         sodipodi:role="line"
         id="tspan84"
         style="stroke-width:0.575419">0.6</tspan></text><text
       transform="matrix(1.3333333,0,0,1.3333333,-28.023958,443.59357)"
       style="font-variant:normal;font-weight:normal;font-size:5.7542px;font-family:'DejaVu Sans';-inkscape-font-specification:DejaVuSans;writing-mode:lr-tb;fill:#000000;fill-opacity:1;fill-rule:nonzero;stroke:none;stroke-width:0.575419"
       id="text104"
       x="141.86946"
       y="-155.44632"><tspan
         x="141.86946 145.52913 147.35898"
         y="-155.44632"
         sodipodi:role="line"
         id="tspan102"
         style="stroke-width:0.575419">0.8</tspan></text><text
       transform="matrix(1.3333333,0,0,1.3333333,-28.023958,443.59357)"
       style="font-variant:normal;font-weight:normal;font-size:5.7542px;font-family:'DejaVu Sans';-inkscape-font-specification:DejaVuSans;writing-mode:lr-tb;fill:#000000;fill-opacity:1;fill-rule:nonzero;stroke:none;stroke-width:0.575419"
       id="text122"
       x="167.96393"
       y="-155.44632"><tspan
         x="167.96393 171.6236 173.45343"
         y="-155.44632"
         sodipodi:role="line"
         id="tspan120"
         style="stroke-width:0.575419">1.0</tspan></text><text
       transform="matrix(1.3333333,0,0,1.3333333,-28.023958,443.59357)"
       style="font-variant:normal;font-weight:normal;font-size:5.7542px;font-family:'DejaVu Sans';-inkscape-font-specification:DejaVuSans;writing-mode:lr-tb;fill:#000000;fill-opacity:1;fill-rule:nonzero;stroke:none;stroke-width:0.575419"
       id="text140"
       x="194.0584"
       y="-155.44632"><tspan
         x="194.0584 197.71806 199.5479"
         y="-155.44632"
         sodipodi:role="line"
         id="tspan138"
         style="stroke-width:0.575419">1.2</tspan></text><text
       transform="matrix(1.3333333,0,0,1.3333333,-28.023958,443.59357)"
       style="font-variant:normal;font-weight:normal;font-size:5.7542px;font-family:'DejaVu Sans';-inkscape-font-specification:DejaVuSans;writing-mode:lr-tb;fill:#000000;fill-opacity:1;fill-rule:nonzero;stroke:none;stroke-width:0.575419"
       id="text158"
       x="220.15285"
       y="-155.44632"><tspan
         x="220.15285 223.81252 225.64236"
         y="-155.44632"
         sodipodi:role="line"
         id="tspan156"
         style="stroke-width:0.575419">1.4</tspan></text><text
       transform="matrix(1.3333333,0,0,1.3333333,-28.023958,443.59357)"
       style="font-variant:normal;font-weight:normal;font-size:5.7542px;font-family:'DejaVu Sans';-inkscape-font-specification:DejaVuSans;writing-mode:lr-tb;fill:#000000;fill-opacity:1;fill-rule:nonzero;stroke:none;stroke-width:0.575419"
       id="text162"
       x="109.98856"
       y="-147.57925"><tspan
         x="109.98856 114.44807 117.9869 121.63505 125.15663 130.7612 132.36089 135.5257 137.35553 141.00943 142.6091 145.60704 147.86269 151.39001 155.03818 158.20299 161.74182 163.57166 165.51082 167.34065 172.30652 175.96045"
         y="-147.57925"
         sodipodi:role="line"
         id="tspan160"
         style="stroke-width:0.575419">Genomic distance / Mbp</tspan></text><text
       transform="matrix(1.3333333,0,0,1.3333333,-28.023958,443.59357)"
       style="font-variant:normal;font-weight:normal;font-size:5.7542px;font-family:'DejaVu Sans';-inkscape-font-specification:DejaVuSans;writing-mode:lr-tb;fill:#000000;fill-opacity:1;fill-rule:nonzero;stroke:none;stroke-width:0.575419"
       id="text180"
       x="28.887283"
       y="-161.65906"><tspan
         x="28.887283 32.546955 34.376789"
         y="-161.65906"
         sodipodi:role="line"
         id="tspan178"
         style="stroke-width:0.575419">0.0</tspan></text><text
       transform="matrix(1.3333333,0,0,1.3333333,-28.023958,443.59357)"
       style="font-variant:normal;font-weight:normal;font-size:5.7542px;font-family:'DejaVu Sans';-inkscape-font-specification:DejaVuSans;writing-mode:lr-tb;fill:#000000;fill-opacity:1;fill-rule:nonzero;stroke:none;stroke-width:0.575419"
       id="text198"
       x="28.887283"
       y="-192.28427"><tspan
         x="28.887283 32.546955 34.376789"
         y="-192.28427"
         sodipodi:role="line"
         id="tspan196"
         style="stroke-width:0.575419">0.2</tspan></text><text
       transform="matrix(1.3333333,0,0,1.3333333,-28.023958,443.59357)"
       style="font-variant:normal;font-weight:normal;font-size:5.7542px;font-family:'DejaVu Sans';-inkscape-font-specification:DejaVuSans;writing-mode:lr-tb;fill:#000000;fill-opacity:1;fill-rule:nonzero;stroke:none;stroke-width:0.575419"
       id="text216"
       x="28.887283"
       y="-222.90948"><tspan
         x="28.887283 32.546955 34.376789"
         y="-222.90948"
         sodipodi:role="line"
         id="tspan214"
         style="stroke-width:0.575419">0.4</tspan></text><text
       transform="matrix(1.3333333,0,0,1.3333333,-28.023958,443.59357)"
       style="font-variant:normal;font-weight:normal;font-size:5.7542px;font-family:'DejaVu Sans';-inkscape-font-specification:DejaVuSans;writing-mode:lr-tb;fill:#000000;fill-opacity:1;fill-rule:nonzero;stroke:none;stroke-width:0.575419"
       id="text234"
       x="28.887283"
       y="-253.53471"><tspan
         x="28.887283 32.546955 34.376789"
         y="-253.53471"
         sodipodi:role="line"
         id="tspan232"
         style="stroke-width:0.575419">0.6</tspan></text><text
       transform="matrix(1.3333333,0,0,1.3333333,-28.023958,443.59357)"
       style="font-variant:normal;font-weight:normal;font-size:5.7542px;font-family:'DejaVu Sans';-inkscape-font-specification:DejaVuSans;writing-mode:lr-tb;fill:#000000;fill-opacity:1;fill-rule:nonzero;stroke:none;stroke-width:0.575419"
       id="text252"
       x="28.887283"
       y="-284.15994"><tspan
         x="28.887283 32.546955 34.376789"
         y="-284.15994"
         sodipodi:role="line"
         id="tspan250"
         style="stroke-width:0.575419">0.8</tspan></text><text
       transform="matrix(1.3333333,0,0,1.3333333,-28.023958,443.59357)"
       style="font-variant:normal;font-weight:normal;font-size:5.7542px;font-family:'DejaVu Sans';-inkscape-font-specification:DejaVuSans;writing-mode:lr-tb;fill:#000000;fill-opacity:1;fill-rule:nonzero;stroke:none;stroke-width:0.575419"
       id="text270"
       x="28.887283"
       y="-314.78516"><tspan
         x="28.887283 32.546955 34.376789"
         y="-314.78516"
         sodipodi:role="line"
         id="tspan268"
         style="stroke-width:0.575419">1.0</tspan></text><text
       transform="matrix(0,-1.3333333,1.3333333,0,-28.023958,443.59357)"
       style="font-variant:normal;font-weight:normal;font-size:5.7542px;font-family:'DejaVu Sans';-inkscape-font-specification:DejaVuSans;writing-mode:lr-tb;fill:#000000;fill-opacity:1;fill-rule:nonzero;stroke:none;stroke-width:0.575419"
       id="text274"
       x="212.60693"
       y="25.389811"><tspan
         x="212.60693 216.07672 219.61554 223.14287 225.50784 228.50578 232.02736 235.67552 237.50536 240.67017 244.19173 246.5567 248.92168 252.46051 254.06018 257.58749 259.84314 261.44281 264.96436"
         y="25.389811"
         sodipodi:role="line"
         id="tspan272"
         style="stroke-width:0.575419">Pearson correlation</tspan></text><text
       transform="matrix(1.3333333,0,0,1.3333333,-28.023958,443.59357)"
       style="font-variant:normal;font-weight:normal;font-size:6.90503px;font-family:'DejaVu Sans';-inkscape-font-specification:DejaVuSans;writing-mode:lr-tb;fill:#000000;fill-opacity:1;fill-rule:nonzero;stroke:none;stroke-width:0.575419"
       id="text348"
       x="73.755096"
       y="-328.1619"><tspan
         x="73.755096 77.918831 82.165436 86.398232 89.236191 92.833717 97.059601 101.4374 103.63319 107.43095 111.65685 114.49482 117.33279 121.57939 123.49899 127.73177 130.43855 132.35814 136.58403 140.96182 143.15762 147.24541 150.84294 153.03874 155.23454 159.61925 163.86584 168.24361 172.46951 179.19501 181.11461 184.91238 187.1082 191.49289 193.41249 197.01001 199.71678 203.94955 208.32736 212.12514"
         y="-328.1619"
         sodipodi:role="line"
         id="tspan346"
         style="stroke-width:0.575419">Pearson correlation vs. genomic distance</tspan></text><text
       transform="matrix(1.3333333,0,0,1.3333333,-28.023958,443.59357)"
       style="font-variant:normal;font-weight:normal;font-size:6.90503px;font-family:'DejaVu Sans';-inkscape-font-specification:DejaVuSans;writing-mode:lr-tb;fill:#000000;fill-opacity:1;fill-rule:nonzero;stroke:none;stroke-width:0.575419"
       id="text352"
       x="47.998085"
       y="-320.42249"><tspan
         x="47.998085 53.349491 59.308537 63.700142 68.091743 72.483353 76.874947 81.266563 83.462364 85.658157 90.049767 92.245575 96.637169 98.83297 103.22457 105.42038 109.81199 112.00779 116.3994 118.59518 122.98679 127.37839 129.5742 133.96579 138.35739 140.55321 144.94481 149.33641 151.53221 155.92381 160.31541 162.51122 166.90283 171.29445 173.49023 177.88184 182.27344 184.46924 188.86086 193.25246 195.44824 199.83986 204.23146 206.42728 210.65314 215.03094 217.22676 221.75644 226.14806 230.53966 234.93126 237.12704 239.32288"
         y="-320.42249"
         sodipodi:role="line"
         id="tspan350"
         style="stroke-width:0.575419">GM12878, 1,2,4,7,9,11,13,14,16,17,18,20,22 on K562, 3</tspan></text><text
       style="font-variant:normal;font-weight:normal;font-size:7.67227px;font-family:'DejaVu Sans';-inkscape-font-specification:DejaVuSans;writing-mode:lr-tb;fill:#000000;fill-opacity:1;fill-rule:nonzero;stroke:none;stroke-width:0.767225"
       id="text358"
       x="48.777031"
       y="158.81589"><tspan
         x="48.777031 53.656609 58.536163 60.975945"
         y="158.81589"
         sodipodi:role="line"
         id="tspan356"
         style="stroke-width:0.767225">20 ep / AUC: 0.349</tspan></text><text
       style="font-variant:normal;font-weight:normal;font-size:7.67227px;font-family:'DejaVu Sans';-inkscape-font-specification:DejaVuSans;writing-mode:lr-tb;fill:#000000;fill-opacity:1;fill-rule:nonzero;stroke:none;stroke-width:0.767225"
       id="text364"
       x="48.777031"
       y="170.07253"><tspan
         x="48.777031"
         sodipodi:role="line"
         id="tspan362"
         style="stroke-width:0.767225"
         y="170.07253">40 ep / AUC: 0.413</tspan></text><text
       style="font-variant:normal;font-weight:normal;font-size:7.67227px;font-family:'DejaVu Sans';-inkscape-font-specification:DejaVuSans;writing-mode:lr-tb;fill:#000000;fill-opacity:1;fill-rule:nonzero;stroke:none;stroke-width:0.767225"
       id="text370"
       x="48.777031"
       y="181.32919"><tspan
         x="48.777031 53.656609 58.536163 60.975945 65.694366 70.566254 73.00605 75.591583 78.03138 83.279205 88.895332 94.250557 96.836121 99.275925 104.15549 106.59527 111.47484 116.35421"
         y="181.32919"
         sodipodi:role="line"
         id="tspan368"
         style="stroke-width:0.767225">60 ep / AUC: 0.444</tspan></text><text
       style="font-variant:normal;font-weight:normal;font-size:7.67227px;font-family:'DejaVu Sans';-inkscape-font-specification:DejaVuSans;writing-mode:lr-tb;fill:#000000;fill-opacity:1;fill-rule:nonzero;stroke:none;stroke-width:0.767225"
       id="text376"
       x="48.777031"
       y="192.58583"><tspan
         x="48.777031 53.656609 58.536163 60.975945 65.694366 70.566254 73.00605 75.591583 78.03138 83.279205 88.895332 94.250557 96.836121 99.275925 104.15549 106.59527 111.47484 116.35421"
         y="192.58583"
         sodipodi:role="line"
         id="tspan374"
         style="stroke-width:0.767225">80 ep / AUC: 0.448</tspan></text><text
       style="font-variant:normal;font-weight:normal;font-size:7.67227px;font-family:'DejaVu Sans';-inkscape-font-specification:DejaVuSans;writing-mode:lr-tb;fill:#000000;fill-opacity:1;fill-rule:nonzero;stroke:none;stroke-width:0.767225"
       id="text382"
       x="48.777031"
       y="203.84245"><tspan
         x="48.777031 53.656609 58.536163 63.415718 65.855476 70.573944 75.445808 77.885612 80.471161 82.910942 88.158768 93.774879 99.13015 101.7157 104.15549 109.03506 111.47484 116.35421 121.23357"
         y="203.84245"
         sodipodi:role="line"
         id="tspan380"
         style="stroke-width:0.767225">100 ep / AUC: 0.444</tspan></text><text
       style="font-variant:normal;font-weight:normal;font-size:7.67227px;font-family:'DejaVu Sans';-inkscape-font-specification:DejaVuSans;writing-mode:lr-tb;fill:#000000;fill-opacity:1;fill-rule:nonzero;stroke:none;stroke-width:0.767225"
       id="text388"
       x="48.777031"
       y="215.09914"><tspan
         x="48.777031 51.784554 54.937859 59.640961 64.50518 68.502411 71.203033 75.921501 79.074799 81.51458 87.460571 94.081779 98.961357 103.8409 108.7205 113.6 118.47937 120.91902 123.50445 125.94413 131.19185 136.80795 142.16321 144.74875 147.18854 152.06808 154.50787 159.38742 164.26698"
         y="215.09914"
         sodipodi:role="line"
         id="tspan386"
         style="stroke-width:0.767225">transfer GM12878 / AUC: 0.671</tspan></text></g></svg>
