<?xml version="1.0" encoding="UTF-8" standalone="no"?>
<svg
   xmlns:dc="http://purl.org/dc/elements/1.1/"
   xmlns:cc="http://creativecommons.org/ns#"
   xmlns:rdf="http://www.w3.org/1999/02/22-rdf-syntax-ns#"
   xmlns:svg="http://www.w3.org/2000/svg"
   xmlns="http://www.w3.org/2000/svg"
   xmlns:sodipodi="http://sodipodi.sourceforge.net/DTD/sodipodi-0.dtd"
   xmlns:inkscape="http://www.inkscape.org/namespaces/inkscape"
   version="1.1"
   id="svg2"
   xml:space="preserve"
   width="80mm"
   height="60mm"
   viewBox="0 0 302.36221 226.77166"
   sodipodi:docname="lossOverEpochs.svg"
   inkscape:version="1.0.2 (1.0.2+r75+1)"><metadata
     id="metadata8"><rdf:RDF><cc:Work
         rdf:about=""><dc:format>image/svg+xml</dc:format><dc:type
           rdf:resource="http://purl.org/dc/dcmitype/StillImage" /><dc:title></dc:title></cc:Work></rdf:RDF></metadata><defs
     id="defs6"><clipPath
       clipPathUnits="userSpaceOnUse"
       id="clipPath22"><path
         d="M 54,35.64 H 388.8 V 285.12 H 54 Z"
         id="path20" /></clipPath><clipPath
       clipPathUnits="userSpaceOnUse"
       id="clipPath40"><path
         d="M 54,35.64 H 388.8 V 285.12 H 54 Z"
         id="path38" /></clipPath><clipPath
       clipPathUnits="userSpaceOnUse"
       id="clipPath58"><path
         d="M 54,35.64 H 388.8 V 285.12 H 54 Z"
         id="path56" /></clipPath><clipPath
       clipPathUnits="userSpaceOnUse"
       id="clipPath76"><path
         d="M 54,35.64 H 388.8 V 285.12 H 54 Z"
         id="path74" /></clipPath><clipPath
       clipPathUnits="userSpaceOnUse"
       id="clipPath94"><path
         d="M 54,35.64 H 388.8 V 285.12 H 54 Z"
         id="path92" /></clipPath><clipPath
       clipPathUnits="userSpaceOnUse"
       id="clipPath112"><path
         d="M 54,35.64 H 388.8 V 285.12 H 54 Z"
         id="path110" /></clipPath><clipPath
       clipPathUnits="userSpaceOnUse"
       id="clipPath130"><path
         d="M 54,35.64 H 388.8 V 285.12 H 54 Z"
         id="path128" /></clipPath><clipPath
       clipPathUnits="userSpaceOnUse"
       id="clipPath148"><path
         d="M 54,35.64 H 388.8 V 285.12 H 54 Z"
         id="path146" /></clipPath><clipPath
       clipPathUnits="userSpaceOnUse"
       id="clipPath166"><path
         d="M 54,35.64 H 388.8 V 285.12 H 54 Z"
         id="path164" /></clipPath><clipPath
       clipPathUnits="userSpaceOnUse"
       id="clipPath184"><path
         d="M 54,35.64 H 388.8 V 285.12 H 54 Z"
         id="path182" /></clipPath><clipPath
       clipPathUnits="userSpaceOnUse"
       id="clipPath202"><path
         d="M 54,35.64 H 388.8 V 285.12 H 54 Z"
         id="path200" /></clipPath><clipPath
       clipPathUnits="userSpaceOnUse"
       id="clipPath224"><path
         d="M 54,35.64 H 388.8 V 285.12 H 54 Z"
         id="path222" /></clipPath><clipPath
       clipPathUnits="userSpaceOnUse"
       id="clipPath248"><path
         d="M 54,35.64 H 388.8 V 285.12 H 54 Z"
         id="path246" /></clipPath><clipPath
       clipPathUnits="userSpaceOnUse"
       id="clipPath262"><path
         d="M 54,35.64 H 388.8 V 285.12 H 54 Z"
         id="path260" /></clipPath><clipPath
       clipPathUnits="userSpaceOnUse"
       id="clipPath276"><path
         d="M 54,35.64 H 388.8 V 285.12 H 54 Z"
         id="path274" /></clipPath><clipPath
       clipPathUnits="userSpaceOnUse"
       id="clipPath290"><path
         d="M 54,35.64 H 388.8 V 285.12 H 54 Z"
         id="path288" /></clipPath><clipPath
       clipPathUnits="userSpaceOnUse"
       id="clipPath304"><path
         d="M 54,35.64 H 388.8 V 285.12 H 54 Z"
         id="path302" /></clipPath><clipPath
       clipPathUnits="userSpaceOnUse"
       id="clipPath318"><path
         d="M 54,35.64 H 388.8 V 285.12 H 54 Z"
         id="path316" /></clipPath><clipPath
       clipPathUnits="userSpaceOnUse"
       id="clipPath332"><path
         d="M 54,35.64 H 388.8 V 285.12 H 54 Z"
         id="path330" /></clipPath><clipPath
       clipPathUnits="userSpaceOnUse"
       id="clipPath346"><path
         d="M 54,35.64 H 388.8 V 285.12 H 54 Z"
         id="path344" /></clipPath><clipPath
       clipPathUnits="userSpaceOnUse"
       id="clipPath360"><path
         d="M 54,35.64 H 388.8 V 285.12 H 54 Z"
         id="path358" /></clipPath><clipPath
       clipPathUnits="userSpaceOnUse"
       id="clipPath378"><path
         d="M 54,35.64 H 388.8 V 285.12 H 54 Z"
         id="path376" /></clipPath><clipPath
       clipPathUnits="userSpaceOnUse"
       id="clipPath388"><path
         d="M 54,35.64 H 388.8 V 285.12 H 54 Z"
         id="path386" /></clipPath></defs><sodipodi:namedview
     pagecolor="#ffffff"
     bordercolor="#666666"
     borderopacity="1"
     objecttolerance="10"
     gridtolerance="10"
     guidetolerance="10"
     inkscape:pageopacity="0"
     inkscape:pageshadow="2"
     inkscape:window-width="1920"
     inkscape:window-height="1020"
     id="namedview4"
     showgrid="false"
     fit-margin-top="0"
     fit-margin-left="0"
     fit-margin-right="0"
     fit-margin-bottom="0"
     units="mm"
     inkscape:zoom="1.9837963"
     inkscape:cx="177.46824"
     inkscape:cy="145.4259"
     inkscape:window-x="0"
     inkscape:window-y="0"
     inkscape:window-maximized="1"
     inkscape:current-layer="layer1" /><g
     id="g10"
     inkscape:groupmode="layer"
     inkscape:label="lossOverEpochs"
     transform="matrix(1.3333333,0,0,-1.3333333,-23.481764,380.69332)"><g
       id="g16"
       transform="matrix(0.61028838,0,0,0.61028838,6.8633375,111.27047)"><g
         id="g18"
         clip-path="url(#clipPath22)"><path
           d="M 68.913514,35.64 V 285.12"
           style="fill:none;stroke:#b0b0b0;stroke-width:0.8;stroke-linecap:square;stroke-linejoin:round;stroke-miterlimit:10;stroke-dasharray:none;stroke-opacity:1"
           id="path24" /></g></g><path
       d="m 48.920454,133.02114 v -2.13601"
       style="fill:#000000;fill-opacity:1;fill-rule:nonzero;stroke:#000000;stroke-width:0.488231;stroke-linecap:butt;stroke-linejoin:round;stroke-miterlimit:10;stroke-dasharray:none;stroke-opacity:1"
       id="path28" /><g
       id="g34"
       transform="matrix(0.61028838,0,0,0.61028838,6.8633375,111.27047)"><g
         id="g36"
         clip-path="url(#clipPath40)"><path
           d="M 99.380344,35.64 V 285.12"
           style="fill:none;stroke:#b0b0b0;stroke-width:0.8;stroke-linecap:square;stroke-linejoin:round;stroke-miterlimit:10;stroke-dasharray:none;stroke-opacity:1"
           id="path42" /></g></g><path
       d="m 67.514007,133.02114 v -2.13601"
       style="fill:#000000;fill-opacity:1;fill-rule:nonzero;stroke:#000000;stroke-width:0.488231;stroke-linecap:butt;stroke-linejoin:round;stroke-miterlimit:10;stroke-dasharray:none;stroke-opacity:1"
       id="path46" /><g
       id="g52"
       transform="matrix(0.61028838,0,0,0.61028838,6.8633375,111.27047)"><g
         id="g54"
         clip-path="url(#clipPath58)"><path
           d="M 129.84717,35.64 V 285.12"
           style="fill:none;stroke:#b0b0b0;stroke-width:0.8;stroke-linecap:square;stroke-linejoin:round;stroke-miterlimit:10;stroke-dasharray:none;stroke-opacity:1"
           id="path60" /></g></g><path
       d="m 86.107556,133.02114 v -2.13601"
       style="fill:#000000;fill-opacity:1;fill-rule:nonzero;stroke:#000000;stroke-width:0.488231;stroke-linecap:butt;stroke-linejoin:round;stroke-miterlimit:10;stroke-dasharray:none;stroke-opacity:1"
       id="path64" /><g
       id="g70"
       transform="matrix(0.61028838,0,0,0.61028838,6.8633375,111.27047)"><g
         id="g72"
         clip-path="url(#clipPath76)"><path
           d="M 160.314,35.64 V 285.12"
           style="fill:none;stroke:#b0b0b0;stroke-width:0.8;stroke-linecap:square;stroke-linejoin:round;stroke-miterlimit:10;stroke-dasharray:none;stroke-opacity:1"
           id="path78" /></g></g><path
       d="m 104.7011,133.02114 v -2.13601"
       style="fill:#000000;fill-opacity:1;fill-rule:nonzero;stroke:#000000;stroke-width:0.488231;stroke-linecap:butt;stroke-linejoin:round;stroke-miterlimit:10;stroke-dasharray:none;stroke-opacity:1"
       id="path82" /><g
       id="g88"
       transform="matrix(0.61028838,0,0,0.61028838,6.8633375,111.27047)"><g
         id="g90"
         clip-path="url(#clipPath94)"><path
           d="M 190.78083,35.64 V 285.12"
           style="fill:none;stroke:#b0b0b0;stroke-width:0.8;stroke-linecap:square;stroke-linejoin:round;stroke-miterlimit:10;stroke-dasharray:none;stroke-opacity:1"
           id="path96" /></g></g><path
       d="m 123.29466,133.02114 v -2.13601"
       style="fill:#000000;fill-opacity:1;fill-rule:nonzero;stroke:#000000;stroke-width:0.488231;stroke-linecap:butt;stroke-linejoin:round;stroke-miterlimit:10;stroke-dasharray:none;stroke-opacity:1"
       id="path100" /><g
       id="g106"
       transform="matrix(0.61028838,0,0,0.61028838,6.8633375,111.27047)"><g
         id="g108"
         clip-path="url(#clipPath112)"><path
           d="M 221.24767,35.64 V 285.12"
           style="fill:none;stroke:#b0b0b0;stroke-width:0.8;stroke-linecap:square;stroke-linejoin:round;stroke-miterlimit:10;stroke-dasharray:none;stroke-opacity:1"
           id="path114" /></g></g><path
       d="m 141.88822,133.02114 v -2.13601"
       style="fill:#000000;fill-opacity:1;fill-rule:nonzero;stroke:#000000;stroke-width:0.488231;stroke-linecap:butt;stroke-linejoin:round;stroke-miterlimit:10;stroke-dasharray:none;stroke-opacity:1"
       id="path118" /><g
       id="g124"
       transform="matrix(0.61028838,0,0,0.61028838,6.8633375,111.27047)"><g
         id="g126"
         clip-path="url(#clipPath130)"><path
           d="M 251.7145,35.64 V 285.12"
           style="fill:none;stroke:#b0b0b0;stroke-width:0.8;stroke-linecap:square;stroke-linejoin:round;stroke-miterlimit:10;stroke-dasharray:none;stroke-opacity:1"
           id="path132" /></g></g><path
       d="m 160.48177,133.02114 v -2.13601"
       style="fill:#000000;fill-opacity:1;fill-rule:nonzero;stroke:#000000;stroke-width:0.488231;stroke-linecap:butt;stroke-linejoin:round;stroke-miterlimit:10;stroke-dasharray:none;stroke-opacity:1"
       id="path136" /><g
       id="g142"
       transform="matrix(0.61028838,0,0,0.61028838,6.8633375,111.27047)"><g
         id="g144"
         clip-path="url(#clipPath148)"><path
           d="M 282.18133,35.64 V 285.12"
           style="fill:none;stroke:#b0b0b0;stroke-width:0.8;stroke-linecap:square;stroke-linejoin:round;stroke-miterlimit:10;stroke-dasharray:none;stroke-opacity:1"
           id="path150" /></g></g><path
       d="m 179.07532,133.02114 v -2.13601"
       style="fill:#000000;fill-opacity:1;fill-rule:nonzero;stroke:#000000;stroke-width:0.488231;stroke-linecap:butt;stroke-linejoin:round;stroke-miterlimit:10;stroke-dasharray:none;stroke-opacity:1"
       id="path154" /><g
       id="g160"
       transform="matrix(0.61028838,0,0,0.61028838,6.8633375,111.27047)"><g
         id="g162"
         clip-path="url(#clipPath166)"><path
           d="M 312.64816,35.64 V 285.12"
           style="fill:none;stroke:#b0b0b0;stroke-width:0.8;stroke-linecap:square;stroke-linejoin:round;stroke-miterlimit:10;stroke-dasharray:none;stroke-opacity:1"
           id="path168" /></g></g><path
       d="m 197.66888,133.02114 v -2.13601"
       style="fill:#000000;fill-opacity:1;fill-rule:nonzero;stroke:#000000;stroke-width:0.488231;stroke-linecap:butt;stroke-linejoin:round;stroke-miterlimit:10;stroke-dasharray:none;stroke-opacity:1"
       id="path172" /><g
       id="g178"
       transform="matrix(0.61028838,0,0,0.61028838,6.8633375,111.27047)"><g
         id="g180"
         clip-path="url(#clipPath184)"><path
           d="M 343.11499,35.64 V 285.12"
           style="fill:none;stroke:#b0b0b0;stroke-width:0.8;stroke-linecap:square;stroke-linejoin:round;stroke-miterlimit:10;stroke-dasharray:none;stroke-opacity:1"
           id="path186" /></g></g><path
       d="m 216.26243,133.02114 v -2.13601"
       style="fill:#000000;fill-opacity:1;fill-rule:nonzero;stroke:#000000;stroke-width:0.488231;stroke-linecap:butt;stroke-linejoin:round;stroke-miterlimit:10;stroke-dasharray:none;stroke-opacity:1"
       id="path190" /><g
       id="g196"
       transform="matrix(0.61028838,0,0,0.61028838,6.8633375,111.27047)"><g
         id="g198"
         clip-path="url(#clipPath202)"><path
           d="M 373.58182,35.64 V 285.12"
           style="fill:none;stroke:#b0b0b0;stroke-width:0.8;stroke-linecap:square;stroke-linejoin:round;stroke-miterlimit:10;stroke-dasharray:none;stroke-opacity:1"
           id="path204" /></g></g><g
       id="g218"
       transform="matrix(0.61028838,0,0,0.61028838,6.8633375,111.27047)"><g
         id="g220"
         clip-path="url(#clipPath224)"><path
           d="M 54,211.15833 H 388.8"
           style="fill:none;stroke:#b0b0b0;stroke-width:0.8;stroke-linecap:square;stroke-linejoin:round;stroke-miterlimit:10;stroke-dasharray:none;stroke-opacity:1"
           id="path226" /></g></g><path
       d="M 39.81891,240.13793 H 37.6829"
       style="fill:#000000;fill-opacity:1;fill-rule:nonzero;stroke:#000000;stroke-width:0.488231;stroke-linecap:butt;stroke-linejoin:round;stroke-miterlimit:10;stroke-dasharray:none;stroke-opacity:1"
       id="path230" /><path
       d="m 234.85598,133.02114 v -2.13601"
       style="fill:#000000;fill-opacity:1;fill-rule:nonzero;stroke:#000000;stroke-width:0.488231;stroke-linecap:butt;stroke-linejoin:round;stroke-miterlimit:10;stroke-dasharray:none;stroke-opacity:1"
       id="path208" /><g
       id="g242"
       transform="matrix(0.61028838,0,0,0.61028838,6.8633375,111.27047)"><g
         id="g244"
         clip-path="url(#clipPath248)"><path
           d="M 54,75.805471 H 388.8"
           style="fill:none;stroke:#b0b0b0;stroke-width:0.8;stroke-linecap:square;stroke-linejoin:round;stroke-miterlimit:10;stroke-dasharray:none;stroke-opacity:1"
           id="path250" /></g></g><g
       id="g252"
       transform="matrix(0.61028838,0,0,0.61028838,6.8633375,111.27047)"><path
         d="M 54,75.805471 H 52"
         style="fill:#000000;fill-opacity:1;fill-rule:nonzero;stroke:#000000;stroke-width:0.6;stroke-linecap:butt;stroke-linejoin:round;stroke-miterlimit:10;stroke-dasharray:none;stroke-opacity:1"
         id="path254" /></g><g
       id="g256"
       transform="matrix(0.61028838,0,0,0.61028838,6.8633375,111.27047)"><g
         id="g258"
         clip-path="url(#clipPath262)"><path
           d="M 54,109.90487 H 388.8"
           style="fill:none;stroke:#b0b0b0;stroke-width:0.8;stroke-linecap:square;stroke-linejoin:round;stroke-miterlimit:10;stroke-dasharray:none;stroke-opacity:1"
           id="path264" /></g></g><g
       id="g266"
       transform="matrix(0.61028838,0,0,0.61028838,6.8633375,111.27047)"><path
         d="M 54,109.90487 H 52"
         style="fill:#000000;fill-opacity:1;fill-rule:nonzero;stroke:#000000;stroke-width:0.6;stroke-linecap:butt;stroke-linejoin:round;stroke-miterlimit:10;stroke-dasharray:none;stroke-opacity:1"
         id="path268" /></g><g
       id="g270"
       transform="matrix(0.61028838,0,0,0.61028838,6.8633375,111.27047)"><g
         id="g272"
         clip-path="url(#clipPath276)"><path
           d="M 54,134.09877 H 388.8"
           style="fill:none;stroke:#b0b0b0;stroke-width:0.8;stroke-linecap:square;stroke-linejoin:round;stroke-miterlimit:10;stroke-dasharray:none;stroke-opacity:1"
           id="path278" /></g></g><g
       id="g280"
       transform="matrix(0.61028838,0,0,0.61028838,6.8633375,111.27047)"><path
         d="M 54,134.09877 H 52"
         style="fill:#000000;fill-opacity:1;fill-rule:nonzero;stroke:#000000;stroke-width:0.6;stroke-linecap:butt;stroke-linejoin:round;stroke-miterlimit:10;stroke-dasharray:none;stroke-opacity:1"
         id="path282" /></g><g
       id="g284"
       transform="matrix(0.61028838,0,0,0.61028838,6.8633375,111.27047)"><g
         id="g286"
         clip-path="url(#clipPath290)"><path
           d="M 54,152.86502 H 388.8"
           style="fill:none;stroke:#b0b0b0;stroke-width:0.8;stroke-linecap:square;stroke-linejoin:round;stroke-miterlimit:10;stroke-dasharray:none;stroke-opacity:1"
           id="path292" /></g></g><g
       id="g294"
       transform="matrix(0.61028838,0,0,0.61028838,6.8633375,111.27047)"><path
         d="M 54,152.86502 H 52"
         style="fill:#000000;fill-opacity:1;fill-rule:nonzero;stroke:#000000;stroke-width:0.6;stroke-linecap:butt;stroke-linejoin:round;stroke-miterlimit:10;stroke-dasharray:none;stroke-opacity:1"
         id="path296" /></g><g
       id="g298"
       transform="matrix(0.61028838,0,0,0.61028838,6.8633375,111.27047)"><g
         id="g300"
         clip-path="url(#clipPath304)"><path
           d="M 54,168.19817 H 388.8"
           style="fill:none;stroke:#b0b0b0;stroke-width:0.8;stroke-linecap:square;stroke-linejoin:round;stroke-miterlimit:10;stroke-dasharray:none;stroke-opacity:1"
           id="path306" /></g></g><g
       id="g308"
       transform="matrix(0.61028838,0,0,0.61028838,6.8633375,111.27047)"><path
         d="M 54,168.19817 H 52"
         style="fill:#000000;fill-opacity:1;fill-rule:nonzero;stroke:#000000;stroke-width:0.6;stroke-linecap:butt;stroke-linejoin:round;stroke-miterlimit:10;stroke-dasharray:none;stroke-opacity:1"
         id="path310" /></g><g
       id="g312"
       transform="matrix(0.61028838,0,0,0.61028838,6.8633375,111.27047)"><g
         id="g314"
         clip-path="url(#clipPath318)"><path
           d="M 54,181.16216 H 388.8"
           style="fill:none;stroke:#b0b0b0;stroke-width:0.8;stroke-linecap:square;stroke-linejoin:round;stroke-miterlimit:10;stroke-dasharray:none;stroke-opacity:1"
           id="path320" /></g></g><g
       id="g322"
       transform="matrix(0.61028838,0,0,0.61028838,6.8633375,111.27047)"><path
         d="M 54,181.16216 H 52"
         style="fill:#000000;fill-opacity:1;fill-rule:nonzero;stroke:#000000;stroke-width:0.6;stroke-linecap:butt;stroke-linejoin:round;stroke-miterlimit:10;stroke-dasharray:none;stroke-opacity:1"
         id="path324" /></g><g
       id="g326"
       transform="matrix(0.61028838,0,0,0.61028838,6.8633375,111.27047)"><g
         id="g328"
         clip-path="url(#clipPath332)"><path
           d="M 54,192.39207 H 388.8"
           style="fill:none;stroke:#b0b0b0;stroke-width:0.8;stroke-linecap:square;stroke-linejoin:round;stroke-miterlimit:10;stroke-dasharray:none;stroke-opacity:1"
           id="path334" /></g></g><g
       id="g336"
       transform="matrix(0.61028838,0,0,0.61028838,6.8633375,111.27047)"><path
         d="M 54,192.39207 H 52"
         style="fill:#000000;fill-opacity:1;fill-rule:nonzero;stroke:#000000;stroke-width:0.6;stroke-linecap:butt;stroke-linejoin:round;stroke-miterlimit:10;stroke-dasharray:none;stroke-opacity:1"
         id="path338" /></g><g
       id="g340"
       transform="matrix(0.61028838,0,0,0.61028838,6.8633375,111.27047)"><g
         id="g342"
         clip-path="url(#clipPath346)"><path
           d="M 54,202.29756 H 388.8"
           style="fill:none;stroke:#b0b0b0;stroke-width:0.8;stroke-linecap:square;stroke-linejoin:round;stroke-miterlimit:10;stroke-dasharray:none;stroke-opacity:1"
           id="path348" /></g></g><g
       id="g350"
       transform="matrix(0.61028838,0,0,0.61028838,6.8633375,111.27047)"><path
         d="M 54,202.29756 H 52"
         style="fill:#000000;fill-opacity:1;fill-rule:nonzero;stroke:#000000;stroke-width:0.6;stroke-linecap:butt;stroke-linejoin:round;stroke-miterlimit:10;stroke-dasharray:none;stroke-opacity:1"
         id="path352" /></g><g
       id="g354"
       transform="matrix(0.61028838,0,0,0.61028838,6.8633375,111.27047)"><g
         id="g356"
         clip-path="url(#clipPath360)"><path
           d="M 54,269.45163 H 388.8"
           style="fill:none;stroke:#b0b0b0;stroke-width:0.8;stroke-linecap:square;stroke-linejoin:round;stroke-miterlimit:10;stroke-dasharray:none;stroke-opacity:1"
           id="path362" /></g></g><path
       d="M 39.81891,275.71366 H 38.598333"
       style="fill:#000000;fill-opacity:1;fill-rule:nonzero;stroke:#000000;stroke-width:0.366173;stroke-linecap:butt;stroke-linejoin:round;stroke-miterlimit:10;stroke-dasharray:none;stroke-opacity:1"
       id="path366" /><g
       id="g374"
       clip-path="url(#clipPath378)"
       transform="matrix(0.61028838,0,0,0.61028838,6.8633375,111.27047)"><path
         d="m 69.218182,273.78 0.304668,-50.8827 0.609337,-32.40212 0.609336,-11.63779 0.304669,-3.18188 0.304668,-5.75364 0.304668,-3.56921 0.914005,-6.02964 0.609337,-6.8712 0.304668,-3.26652 0.304668,-1.45143 0.304669,-0.49677 0.914005,-12.17883 0.609336,-2.76383 0.914005,-6.22993 0.304668,-1.19776 0.304669,-2.07925 0.304668,-1.0282 1.218673,-7.22652 0.304669,-1.00246 0.609336,-3.44057 0.304668,-1.10623 0.609337,-3.20194 0.914005,-3.6665 1.218673,-4.208376 0.304669,-1.238445 0.609336,-1.553365 1.218673,-3.230678 1.82801,-4.015722 0.304668,-0.483894 0.609337,-1.634675 0.304668,-0.06038 0.609337,-1.341792 0.304668,-0.229067 0.304669,-0.791085 0.304668,-0.313939 1.523341,-2.342165 0.304669,-0.273275 0.609336,-0.852105 1.82801,-2.018794 0.304668,-0.632419 0.304669,-0.08892 0.304668,-0.473264 0.304668,0.0044 0.304669,-0.429079 0.304668,0.0022 0.304668,-0.655057 2.742015,-2.114129 0.304668,-0.550222 0.609337,-0.08639 0.914006,-1.039938 0.30467,-0.03531 0.30467,-0.377726 0.30466,-0.09092 0.30467,-0.297364 0.60934,-0.197421 0.30467,-0.145471 0.30467,-0.374766 0.914,-0.433149 0.30467,-0.340242 0.30467,-0.122649 0.30466,0.0376 1.21868,-1.18407 0.30467,-0.07821 0.30467,0.06408 0.60933,-0.473868 0.30467,-0.0038 1.52334,-0.895828 0.30467,0.09166 0.60934,-0.609226 0.30466,0.01186 0.30467,-0.111828 0.30467,-0.273086 0.91401,-0.252988 0.914,-0.447079 0.30467,-0.213528 0.30467,-0.05072 0.30467,-0.22083 0.914,-0.203947 0.91401,-0.384869 0.30466,-0.01879 0.60934,-0.301906 0.30467,-0.02163 1.21867,-0.497307 0.91401,-0.236595 0.914,-0.308913 0.30467,-0.0059 0.60934,-0.476165 0.30467,0.113186 0.30466,-0.271548 0.30467,0.165677 0.30467,-0.343451 0.30467,0.11433 0.914,-0.24395 0.30467,0.06271 0.30467,-0.3778 0.30467,-0.190629 0.30467,0.225665 0.30467,-0.0046 0.30466,-0.333356 0.60934,-0.101638 0.30467,0.01498 0.60934,-0.140847 0.30466,-0.01024 0.30467,-0.250144 0.60934,-0.151393 0.30467,-0.169375 0.30466,0.164462 0.30467,-0.22463 0.30467,0.07569 0.30467,-0.119378 0.30467,-0.270902 0.30467,0.117078 0.30466,-0.105208 0.30467,0.04039 0.30467,-0.153438 0.30467,-0.33191 0.30467,0.267068 0.30467,-0.05555 0.30466,0.07249 0.30467,-0.247266 0.91401,-0.331081 0.30467,0.227285 0.30466,-0.318043 0.30467,0.06527 0.30467,-0.0911 0.30467,0.145087 0.30467,-0.254217 1.52334,-0.187409 0.30467,-0.194648 0.30466,0.178972 0.30467,-0.09425 0.30467,-0.30323 0.30467,0.170519 0.60934,-0.304762 0.914,0.03905 0.30467,-0.297923 0.60934,0.04605 0.30466,-0.223996 0.30467,0.168823 0.30467,-0.04857 0.30467,-0.253751 0.30467,0.0991 1.52334,-0.304451 0.30467,0.0422 0.30467,-0.197485 0.60933,-0.08561 0.30467,0.06404 0.60934,-0.11961 0.30467,0.04097 0.60933,-0.357984 0.30467,0.235114 0.30467,-0.234739 0.30467,-0.05903 0.60933,0.129793 0.60934,-0.233172 0.30467,0.142261 0.30467,-0.247592 0.914,-0.04086 0.30467,-0.369484 0.30467,0.366988 0.30467,-0.312956 0.60933,0.07473 0.30467,-0.14376 0.30467,0.207371 0.30467,-0.377795 0.60934,0.342873 0.60933,-0.206651 0.30467,0.09284 0.30467,-0.313315 0.30467,0.111185 0.30466,-0.222525 0.30467,0.06742 0.91401,-0.237365 0.30467,0.108631 0.60933,-0.13465 0.30467,0.131047 0.91401,-0.220487 0.30466,0.06366 0.30467,-0.128307 0.30467,0.04529 0.30467,-0.185252 0.30467,0.03406 0.30467,-0.160544 0.30466,0.130807 0.30467,-0.001 0.60934,-0.1902 0.30467,0.06048 0.30467,-0.19492 0.30466,0.166183 0.91401,-0.214323 0.30467,0.126504 0.30467,-0.228295 1.52334,0.03899 0.30467,-0.251534 0.30466,0.187365 0.30467,-0.261053 0.60934,0.0027 0.30467,0.136113 0.30467,-0.266344 1.52334,-0.01633 0.30467,-0.15557 0.30466,-0.02671 0.30467,0.131749 0.30467,-0.134896 0.30467,0.152812 1.82801,-0.220808 0.60933,-0.209113 0.30467,0.372824 0.30467,-0.314537 0.30467,-0.08934 0.30467,0.03458 0.30467,-0.182296 0.30466,0.295336 1.52335,-0.468576 0.30467,0.258006 0.30466,-0.312651 0.30467,0.366215 0.30467,-0.163028 0.30467,-0.347679 0.914,0.219717 1.21868,-0.202342 0.60933,0.03303 0.30467,-0.234483 0.60934,0.199819 0.60933,-0.261659 0.30467,0.307413 0.30467,-0.318135 0.30467,0.09572 0.60934,-0.152941 0.30466,-0.09575 0.30467,0.119578 0.30467,-0.202761 0.30467,0.21075 0.60934,0.04662 0.30466,-0.20397 0.60934,0.193454 0.60934,-0.253816 0.60933,-0.041 0.30467,0.162385 0.30467,-0.264885 0.30467,0.05445 0.30467,-0.08733 0.30467,0.05207 0.60933,-0.116033 0.91401,0.124174 0.30466,-0.204476 0.30467,0.10305 0.30467,-0.176223 0.30467,0.133473 0.30467,-0.211756 0.30467,0.177434 0.60933,-0.236837 0.30467,0.136595 0.30467,-0.139631 0.60934,0.168182 0.30466,-0.01892 0.30467,-0.383209 0.30467,0.27948 0.30467,-0.220436 0.30467,0.179905 0.60933,-0.155573 0.30467,0.02398 0.60934,-0.207431 0.60934,0.123277 0.30466,-0.196928 0.30467,0.242925 0.60934,-0.08225 0.30467,0.113611 1.21867,-0.361602 0.30467,0.204047 0.30467,-0.219512 0.30467,0.02395 0.30466,0.301729 0.30467,-0.332762 0.30467,0.06307 0.30467,-0.05639 0.30467,0.09167 0.30467,-0.157391 0.60933,-9.36e-4 0.30467,-0.108966 0.30467,0.287884 0.30467,-0.117043 0.30467,-0.239854 0.30466,0.14375 0.30467,-0.114468 0.30467,0.139905 0.30467,-0.240872 0.30467,0.136969 0.914,-0.26914 0.30467,0.196504 0.30467,-0.104635 0.30467,0.138206 0.30466,-0.282437 0.30467,0.256131 0.30467,-0.02869 0.30467,-0.165924 0.30467,0.09808 0.30467,-0.234211 0.60933,0.111443 0.60934,-0.02878 1.52334,-0.152201 0.30467,0.09601 0.60934,-0.06051 0.30466,-0.212775 0.30467,0.209758 1.21868,-0.03863 0.914,-0.07084 0.91401,-0.02388 0.30466,0.04788 0.60934,-0.118998 0.30467,0.05218 0.914,-0.262831 0.60934,0.223982 0.30467,-0.253872 0.30467,0.118701 0.30467,-0.254167 0.914,0.0906 0.60934,-0.0042 0.30467,0.103618 0.60933,-0.139914 0.30467,-0.105029 0.60934,0.11917 0.60933,-0.168579 0.60934,0.238094 0.30467,-0.128394 0.30467,-0.0012 0.30466,-0.240688 0.30467,0.199755 1.21868,-0.104883 0.60933,0.08033 0.60934,-0.163867 2.13268,-0.05849 0.30467,-0.157718 0.60933,0.229615 0.30467,-0.383739 1.82801,0.325379 0.60934,-0.269903 0.30467,-0.0065 0.30466,-0.130101 0.60934,0.297134 0.30467,-0.213531 0.30467,0.07148 0.60933,-0.223581 0.30467,0.223802 0.30467,-0.146086 0.30467,0.07521 0.30467,-0.07565 0.30467,0.05189 0.30466,-0.218202 0.30467,0.14287 0.30467,-0.05108 0.30467,0.08466 1.21867,-0.133109 0.30467,0.131401 0.30467,0.0099 0.30467,-0.209997 0.60933,0.05639 0.30467,0.0975 2.13268,-0.352759 0.30467,0.240789 0.914,-0.02821 0.30467,0.101761 1.52334,-0.248465 1.21868,-0.01953 0.60933,-0.03114 0.60934,-0.11841 0.30467,0.176598 0.30467,-0.08282 0.30466,-0.24033 0.30467,0.229616 0.30467,-0.214451 0.91401,0.14996 0.914,-0.165723 0.30467,0.197485 0.60934,-0.20954 0.30466,0.07619 0.30467,-0.09224 0.30467,0.157882 0.30467,-0.261659 0.60934,0.237476 0.60933,-0.24637 0.30467,0.145719 0.30467,-0.24334 0.30467,0.222929 0.30467,-0.08796 0.30466,0.159271 0.30467,-0.340679 0.30467,0.267824 0.30467,-0.03235 0.30467,-0.158228 0.30467,0.123739 0.30466,-0.07255 0.30467,0.162759 0.30467,-0.204431 0.30467,0.05055 0.60933,-0.14211 0.60934,0.0359 0.30467,0.07597 0.30467,-0.157637 0.60933,0.148121 1.82801,-0.266297 0.30467,0.168703 0.60934,-0.100681 0.30467,0.207112 0.60933,-0.158703 0.60934,-0.05479 0.60934,-0.124203 1.21867,0.04992 0.30467,-0.127114 0.30467,0.153478 1.82801,-0.247248 0.30467,0.215782 2.13267,-0.235579 0.30467,0.153479 0.30467,-0.180943 0.60934,0.132769 0.60933,-0.211408 0.30467,-0.02614 0.30467,0.169477 0.30467,-0.158185 0.60933,-0.0114 0.30467,0.130229 0.30467,-0.205748 0.30467,0.132758 1.21867,-0.08546 0.30467,0.105785 1.21867,-0.05938 0.30467,0.300187 0.30467,-0.396816 0.60934,0.03498 0.30467,0.158648 0.914,-0.37399 0.60934,0.239991 0.30467,-0.171916 0.30467,0.133066 0.30466,-0.09202 0.30467,0.09075 0.91401,-0.32342 0.30466,0.217707 0.60934,-0.195084 0.30467,0.318008 0.60934,-0.23234 0.30466,0.187999 0.91401,-0.137589 0.30467,-0.195357 0.30467,0.164009 0.30466,-0.206884 0.30467,0.08144 0.30467,-0.148412 0.60934,0.250936 0.30467,-0.185648 0.30466,0.17832 0.91401,-0.255535 0.30467,0.223658 0.914,-0.288143 0.60934,0.197753 0.60933,-0.02843 0.30467,-0.122487 0.30467,0.168506 0.91401,-0.15083 0.30466,0.322574 0.30467,-0.366926 0.60934,0.0016 1.21867,0.07727 0.60934,0.518182 0.30467,-0.469019 0.914,-0.217903 1.21868,-0.114154 0.30467,0.366395 0.60933,-0.18312 0.30467,-0.179984 0.30467,-0.02805 0.30467,0.175108 0.30466,-0.06926 0.30467,0.105328 0.60934,-0.09398 0.60934,0.133088 0.60933,-0.257684 0.30467,-0.06063 0.30467,0.202026 0.914,-0.155317 0.30467,0.109666 0.30467,-0.190564 0.30467,0.165226 0.60934,-0.07677 0.30466,-0.133106 0.91401,0.278023 0.30467,-0.199831 0.30467,0.04976 0.60933,-0.108167 0.60934,0.172991 0.30467,-0.177845 0.30466,0.221694 0.30467,-0.161041 0.30467,0.03027 0.91401,-0.164555 0.30467,0.141617 0.60933,-0.109801 0.30467,0.08738 0.30467,-0.11529 0.914,-0.0144 0.30467,0.202873 0.30467,-0.379574 0.30467,0.222226 0.914,-0.06466 0.30467,0.236461 0.30467,-0.218426 0.30467,0.198064 0.30467,-0.267343 0.30466,0.112016 0.30467,-0.217422 0.60934,0.297916 0.30467,-0.08148 0.30467,-0.288951 1.21867,0.355726 0.60934,-0.179596 0.30466,0.0075 0.30467,-0.142668 0.30467,0.212271 0.30467,-0.122829 0.30467,0.106828 1.21867,-0.249833 1.21867,0.304149 0.30467,-0.330729 0.30467,0.123506 0.60934,-0.112996 0.30467,0.03555 0.30466,-0.105236 0.60934,0.02669 0.30467,-0.06191 0.60933,0.347836 0.30467,-0.425212 0.30467,-0.02978 0.60934,0.316339 0.30467,0.02236 0.60933,-0.186646 0.30467,0.0893 0.60934,-0.219566 0.30467,0.09333 0.914,-0.06945 1.52334,-0.05723 0.30467,0.397723 0.30467,-0.419663 0.30467,-0.05402 0.30467,0.173595 0.30466,-0.12383 0.30467,0.160912 0.30467,-0.230258 0.60934,0.271131 0.30467,-0.234579 0.30466,0.741956 0.30467,-0.63396 0.30467,0.0013 0.30467,-0.210862 0.30467,0.103483 0.30467,-0.106175 0.60933,0.253084 0.30467,-0.249463 0.30467,0.09612 0.60934,-0.003 0.30466,0.114862 0.91401,-0.09462 0.30467,0.09704 0.914,-0.270247 0.30467,0.111599 0.30467,-0.09647 0.60934,0.06482 1.21867,-0.0337 0.30467,0.170933 0.30466,-0.116289 0.30467,0.06648 0.30467,-0.06412 0.30467,0.09565 0.60934,-0.139632 0.60933,-0.156461 0.60934,0.219599 0.30467,-0.196938 0.30467,0.317214 0.30466,-0.23244 0.30467,0.41594 0.30467,-0.467331 0.60934,-0.08899 0.30467,0.07914 0.30466,-0.184029 0.60934,0.158383 0.30467,-0.121287 0.30467,0.180793 0.30467,0.05028 0.30466,-0.236201 0.30467,0.27057 0.30467,-0.166019 0.60934,0.09131 0.60933,-0.115228 0.60934,-0.07953 0.30467,-0.156781 0.30467,0.179904 1.82801,0.06168 0.30467,-0.146661 0.30466,0.106874 0.30467,-0.09972 0.60934,0.03828 0.30467,-0.174354 0.60933,0.259263 0.30467,0.0697 0.30467,-0.290261 0.30467,0.09388 0.60933,-0.115391 0.30467,0.408436 0.30467,-0.433895 0.30467,-0.01353 0.30467,0.319361 0.30467,-0.251813 0.30466,0.148447 0.60934,-0.176095 0.30467,0.169781 0.60934,0.07008 0.30466,-0.137273 0.30467,0.0093 0.30467,-0.194173 0.30467,0.14435 0.914,-0.218722 0.30467,0.26444 0.30467,0.02269 0.60934,-0.315087 v 0"
         style="fill:none;stroke:#1f77b4;stroke-width:1.5;stroke-linecap:square;stroke-linejoin:round;stroke-miterlimit:10;stroke-dasharray:none;stroke-opacity:1"
         id="path380" /></g><g
       id="g384"
       clip-path="url(#clipPath388)"
       transform="matrix(0.61028838,0,0,0.61028838,6.8633375,111.27047)"><path
         d="m 69.218182,161.13437 0.609336,-16.13679 0.304669,-0.31856 0.609336,-11.16814 0.304669,-0.16835 0.304668,-2.11326 0.304668,2.98913 0.609337,8.11282 0.304668,-23.63607 0.304668,-4.97742 0.304669,-0.74818 0.304668,6.48161 0.304668,-4.74269 0.304669,4.97209 0.304668,-8.18819 0.304668,9.47689 0.304669,-5.7027 0.304668,4.36173 0.304668,24.13021 0.304669,-28.57313 0.304668,5.25172 0.304668,-6.18104 0.304668,-0.91938 0.304669,4.2022 0.304668,-1.56822 0.304668,13.2263 0.304669,24.99643 0.304668,-28.22308 0.304668,-0.0497 0.304669,-5.0461 0.304668,-0.14996 0.304668,2.49237 0.304668,-4.74072 0.304669,8.51902 0.304668,-5.59358 0.304668,1.85903 0.304669,-3.70349 0.304668,6.3468 0.609337,-6.50571 0.304668,7.47295 0.304668,-7.67683 0.304669,-4.47777 0.304668,2.87058 0.304668,0.61951 0.609337,8.98421 0.304668,-2.48289 0.304668,-0.72279 0.304669,-6.95516 0.304668,4.41363 0.304668,-2.33952 0.304669,-4.29977 0.304668,3.19569 0.304668,5.52214 0.304668,-6.3154 0.304669,-0.77388 0.304668,-4.34791 0.304668,9.42644 0.304669,-7.19661 0.304668,-0.261 0.304668,6.10153 0.304669,-6.718 0.304668,3.03481 0.304668,0.0727 0.304669,6.72091 0.304668,-9.85054 0.609336,11.16531 0.304669,-8.87828 0.304668,-1.00865 0.304668,0.34367 0.304669,-1.60825 0.304668,-0.35772 0.304668,1.22644 0.304669,-2.19785 0.304668,1.9278 0.304668,-3.19546 0.304668,2.89876 0.304669,-0.40206 0.304668,-4.47838 0.304668,9.37053 0.304669,-7.61117 0.304668,7.54536 0.304668,-7.23217 0.304669,5.82302 0.304668,-3.35351 0.304668,-0.53862 0.304669,-1.8204 0.304668,0.17258 0.304668,-0.29629 0.304668,-0.579 0.304669,4.68907 0.304668,-6.29648 0.304668,4.64085 0.304669,0.2489 0.304668,-2.51345 0.304668,3.82867 0.304669,-3.67256 0.304669,-0.68538 0.30467,-2.35323 0.30467,6.59153 0.30466,-4.01851 0.30467,-0.91134 0.30467,-0.0603 0.30467,1.86052 0.30467,-1.52773 0.30467,-3.12359 0.60933,1.19168 0.30467,2.04367 0.30467,-1.0753 0.30467,1.47388 0.30466,-0.983 0.30467,-2.16465 0.30467,2.23862 0.30467,-0.98477 0.30467,0.31849 0.30467,-2.0868 0.30467,4.41835 0.30466,0.36014 0.30467,-3.0355 0.30467,1.34281 0.30467,-1.96927 0.30467,0.84488 0.30467,4.0902 0.30466,-3.5321 0.30467,3.88974 0.30467,-1.67824 0.30467,-5.30278 0.30467,4.30566 0.30466,0.24607 0.30467,-4.07621 0.60934,2.37754 0.30467,-2.64877 0.60933,5.58012 0.30467,-5.04128 0.30467,0.0555 0.30467,0.85775 0.30467,-0.45024 0.30467,-1.54116 0.30466,0.2974 0.30467,-0.63375 0.30467,4.36828 0.30467,-4.47323 0.30467,4.89401 0.30467,-2.14826 0.30466,2.18409 0.30467,-3.36656 0.30467,-0.62542 0.30467,2.09548 0.30467,0.40184 0.30467,-4.17878 0.30466,2.45583 0.30467,-0.72484 0.30467,1.41721 0.91401,-3.40111 0.30466,5.76838 0.30467,-7.66142 0.30467,3.26757 0.60934,-1.51722 0.30467,0.10975 0.30466,2.30807 0.30467,-1.91089 0.30467,2.57899 0.30467,-3.10074 0.30467,2.83599 0.30466,-2.66698 0.30467,-1.33728 0.60934,2.5699 0.30467,-0.97302 0.30467,-1.40674 0.30467,2.90979 0.30466,0.43392 0.30467,-0.92764 0.30467,-0.28833 0.30467,0.73707 0.30467,-2.14467 0.30467,0.868 0.30466,-2.41348 0.91401,2.90505 0.30467,-0.48034 0.30466,1.61893 0.30467,0.15982 0.30467,-4.02694 0.30467,1.96063 0.30467,-0.33688 0.30467,-0.72318 0.30466,2.74459 0.30467,-0.54676 0.30467,-3.90137 0.30467,2.33375 0.30467,-0.16267 0.30467,0.55476 0.30466,2.17921 0.30467,-4.278 0.30467,1.34617 0.30467,-1.70328 0.30467,2.66116 0.30467,-0.35647 0.30466,-0.17262 0.30467,1.25162 0.30467,-1.98134 0.30467,-2.96122 0.30467,3.07172 0.30467,0.72925 0.30466,1.96683 0.30467,-2.58817 0.30467,-0.11504 0.30467,-0.52227 0.30467,-3.24998 0.30466,5.88381 0.30467,-3.41474 0.30467,-0.042 0.30467,-0.84988 0.60934,4.06971 0.30466,-2.93266 0.30467,1.3808 0.30467,2.14589 0.30467,-2.91953 0.30467,-0.15012 0.30467,-0.47049 0.30466,1.0025 0.30467,-2.37757 0.30467,2.13309 0.30467,-0.81846 0.30467,1.94297 0.30467,-1.49211 0.30466,1.90827 0.30467,-5.471736 0.30467,1.346406 0.30467,1.96759 0.30467,-1.12317 0.914,2.51839 0.30467,-1.55495 0.30467,-0.38785 0.30467,1.48748 0.30467,-1.48801 0.30466,0.54137 0.30467,0.90047 0.30467,-1.24952 0.30467,-2.05089 0.30467,3.34793 0.30467,-0.49915 0.30466,-1.43036 0.30467,0.5522 0.30467,1.26628 0.30467,-2.73894 0.30467,-0.0769 0.30467,1.6223 0.60933,-1.67872 0.30467,-1.68696 0.30467,2.37376 0.30467,1.30912 0.30467,-0.52445 0.30466,-2.12876 0.30467,4.2049 0.30467,-5.002048 0.30467,2.305058 0.30467,0.74396 0.30467,-1.64412 0.30466,1.04739 0.30467,0.055 0.30467,-0.66364 0.30467,1.27473 0.30467,-0.3021 0.30466,-1.73244 0.30467,-0.781938 0.30467,1.368088 0.30467,2.50314 0.30467,-4.688887 0.60933,2.589987 0.30467,0.25347 0.30467,0.4574 0.30467,1.08524 0.30467,-0.95082 0.30467,0.9958 0.30466,-1.17053 0.30467,-2.708534 0.30467,3.117324 0.30467,-0.53503 0.30467,0.26625 0.60933,-3.117171 0.30467,-0.01802 0.30467,2.928411 0.30467,-0.82649 0.30467,-3.443737 0.30467,6.079097 0.30466,-0.1139 0.30467,-3.27661 0.30467,1.73728 0.30467,0.94906 0.914,-4.963743 0.30467,-0.09723 0.30467,4.601843 0.30467,0.16762 0.30467,-1.23947 0.30467,-2.209814 0.30466,-0.01421 0.30467,4.214754 0.30467,-2.47215 0.30467,2.82767 0.30467,-3.38406 0.30467,1.19874 0.30466,0.41848 0.30467,-2.395593 0.30467,2.199013 0.30467,-3.981594 0.60934,6.491004 0.30466,-2.47233 0.30467,0.36627 0.30467,1.08098 0.30467,-1.97786 0.30467,0.41473 0.30467,-1.3958 0.30466,0.48312 0.30467,4.48918 0.30467,-3.9039 0.30467,-1.929226 0.30467,0.712066 0.30466,1.80198 0.30467,-2.276903 0.30467,3.233783 0.30467,-2.78788 0.30467,-0.10433 0.30467,0.7265 0.30466,-3.388402 0.30467,0.958601 0.30467,0.334923 0.30467,3.245208 0.30467,1.53252 0.30467,-2.83033 0.30467,-0.886589 0.30466,1.994479 0.30467,-0.45193 0.30467,-1.748535 0.30467,-0.451122 0.30467,5.964957 0.30466,-3.80599 0.30467,1.32317 0.30467,-1.14249 0.30467,0.981 0.30467,-2.54671 0.30467,0.54707 0.30466,1.56743 0.30467,-0.67913 0.30467,-1.746081 0.30467,1.443571 0.30467,2.32016 0.30467,-3.846672 0.30466,1.267172 0.30467,0.50167 0.30467,-2.516301 0.30467,3.325301 0.30467,-3.469513 0.30467,2.297403 0.30466,1.09564 0.30467,-1.51517 0.30467,-2.339875 0.30467,1.120554 0.30467,2.196171 0.30467,-0.18125 0.30466,-1.45821 0.30467,1.12913 0.30467,0.5198 0.30467,0.10375 0.30467,-2.94251 0.30467,2.0419 0.30466,1.1844 0.30467,-2.01534 0.30467,-0.218174 0.30467,1.295254 0.30467,0.40191 0.30467,-1.67492 0.30466,-0.156378 0.30467,2.626978 0.30467,-2.369286 0.30467,0.650896 0.30467,-1.321322 0.30466,-3.028837 0.30467,4.338659 0.30467,-2.260854 0.30467,3.494944 0.30467,-1.881808 0.30467,1.026008 0.30466,-1.429223 0.30467,2.432273 0.30467,0.18085 0.30467,-0.78974 0.30467,0.94899 0.30467,-4.999016 0.914,5.638996 0.30467,-3.61011 0.30467,2.67147 0.30467,-2.00238 0.30466,-0.557075 0.30467,1.266935 0.30467,-2.15978 0.30467,1.043511 0.30467,2.701189 0.30467,-2.726608 0.30466,0.638998 0.60934,-0.10518 0.30467,1.93273 0.30467,-2.546212 0.30467,-1.271696 0.30466,2.958128 0.30467,-0.29147 0.30467,1.54427 0.30467,2.25185 0.30467,-5.723612 0.30467,2.789922 0.30466,0.35547 0.30467,2.3057 0.30467,-4.02671 0.30467,0.30673 0.30467,2.73474 0.30467,-2.71273 0.30466,-0.069 0.30467,1.51512 0.30467,2.83214 0.60934,-5.993661 0.30467,1.126051 0.30466,-0.795087 0.30467,5.958457 0.30467,-5.05366 0.30467,-0.843715 0.30467,0.283275 0.30467,1.00822 0.30466,2.06142 0.30467,-4.464366 0.30467,2.889266 0.30467,-2.92627 0.30467,0.601866 0.30466,2.464654 0.60934,-2.220903 0.30467,4.672613 0.30467,-4.44993 0.30467,1.2993 0.60933,-1.445944 0.30467,1.558354 0.30467,-2.404284 0.30467,3.315824 0.30467,-0.99167 0.30466,-0.003 0.30467,0.3813 0.30467,0.72179 0.30467,-2.357303 0.60934,0.747593 0.30466,-2.719 0.30467,3.10561 0.30467,0.16677 0.30467,-2.261036 0.30467,1.526371 0.30467,-2.243723 0.30466,0.325054 0.30467,3.445964 0.30467,-0.9917 0.30467,0.68756 0.30467,-1.406175 0.30467,0.815525 0.30466,-3.036856 0.30467,5.881156 0.30467,-3.3556 0.30467,-0.443274 0.30467,-2.118823 0.60933,2.430647 0.30467,-0.485251 0.30467,0.603581 0.30467,1.18107 0.30467,-3.010732 0.30467,3.783132 0.30466,0.0798 0.30467,-2.06729 0.30467,-0.382852 0.30467,-1.651505 0.30467,3.205447 0.30467,-0.91146 0.30466,1.71595 0.30467,-0.27691 0.30467,-2.147383 0.30467,-1.318862 0.30467,2.964105 0.30467,-0.16652 0.30466,1.94484 0.30467,-3.812165 0.30467,0.716317 0.30467,-0.162759 0.30467,-0.597365 0.30466,-0.20112 0.30467,-0.521181 0.30467,0.05659 0.30467,2.589793 0.60934,-0.18903 0.60933,-3.49605 0.30467,2.69761 0.30467,0.13683 0.30467,-0.347599 0.30467,0.343419 0.30467,-1.307751 0.30466,-0.382505 0.30467,-1.027467 0.30467,0.877352 0.30467,2.847181 0.30467,-1.643003 0.30466,-2.811074 0.30467,0.662061 0.60934,4.628116 0.30467,-3.622348 0.30467,2.497168 0.30466,-0.47452 0.30467,-2.106323 0.30467,-1.297267 0.30467,0.178708 0.30467,2.985982 0.30467,-1.746869 0.30466,-0.202974 0.60934,1.062179 0.30467,1.732144 0.60934,-0.49999 0.30466,-1.437648 0.30467,1.209658 0.30467,-0.18492 0.30467,-1.922538 0.60934,3.703988 0.30466,-1.16966 0.30467,0.67677 0.30467,-3.043169 0.30467,0.762931 0.30467,4.119508 0.30467,-5.634366 0.30466,0.753614 0.30467,-0.165661 0.30467,2.404073 0.914,-1.681059 0.30467,2.110109 0.30467,-2.661753 0.30467,2.168803 0.30467,0.99331 0.30467,-1.52589 0.30466,0.17197 0.30467,0.87237 0.30467,-1.561216 0.30467,-0.6889 0.60934,2.400296 0.60933,-1.822102 0.30467,1.517362 0.30467,-2.651131 0.30467,0.335188 0.30467,0.918393 0.30466,-0.176431 0.30467,0.791101 0.30467,0.29645 0.30467,-1.715801 0.30467,2.952821 0.30467,-1.702528 0.30466,-2.527052 0.30467,3.49636 0.30467,1.81871 0.30467,-4.888315 0.30467,2.478215 0.60933,-2.552954 0.30467,2.604534 0.30467,-0.0378 0.30467,-2.638796 0.30467,-1.221438 0.30467,4.369444 0.30466,-0.59776 0.30467,2.53564 0.30467,-3.071296 0.30467,1.310966 0.30467,-2.66463 0.60933,1.94629 0.30467,-0.0962 0.60934,2.08231 0.30467,-4.285595 0.30467,0.829463 0.30466,-1.21526 0.30467,2.747422 0.30467,-0.834742 0.30467,-3.412338 0.30467,4.47858 0.30467,0.0893 0.30466,0.7029 0.30467,-3.119663 0.30467,2.061053 0.30467,1.24501 0.30467,-2.208877 0.30467,-0.430679 0.30466,0.324403 0.30467,0.772643 0.30467,-1.367436 0.30467,2.683586 0.30467,-0.58963 0.30466,-3.834403 0.30467,3.448503 0.30467,-3.554187 0.30467,1.585946 0.30467,2.892021 0.30467,-0.87538 0.30466,-0.402 0.30467,-1.37064 0.30467,0.680118 0.30467,2.500452 0.30467,-3.300204 0.30467,1.571624 0.30466,-2.208309 0.30467,0.78317 0.30467,2.065169 0.30467,1.21009 0.30467,-2.819414 0.30467,3.205954 0.30466,-2.16776 0.30467,0.45293 0.30467,-1.159744 0.30467,3.787674 0.30467,-0.62924 0.30467,-1.89208 0.30466,-0.30248 0.30467,-2.889981 0.30467,1.576801 0.30467,-0.714498 0.30467,-1.188042 0.30467,0.978429 0.30466,0.444937 0.60934,1.849044 0.30467,1.22927 0.30467,-4.417687 0.30467,1.232529 0.30466,2.632868 0.30467,-4.769818 0.30467,1.252661 0.30467,-1.233848 0.30467,5.235615 0.30467,-3.746955 0.30466,1.529515 0.30467,-0.737072 0.30467,0.73012 0.30467,0.172975 0.30467,-0.139173 0.30467,-2.386024 0.60933,0.452281 0.30467,2.725233 0.30467,-0.907928 0.30467,-3.07054 0.30466,4.635808 0.30467,-0.0204 0.91401,-3.027943 0.30467,0.777247 0.30467,-0.118626 0.30466,0.254777 0.60934,0.938833 0.30467,-1.504003 0.30467,0.807019 0.30466,1.168446 0.30467,0.43607 0.60934,-2.507433 0.30467,1.183437 0.30467,-0.198259 0.30466,0.195855 0.30467,-1.14622 0.30467,3.18976 0.30467,-4.230075 0.60934,4.145435 0.30467,-3.853011 0.60933,2.042157 0.30467,-0.205122 0.30467,-0.572825 0.30467,0.325092 0.30466,0.06805 0.30467,-1.67943 0.30467,3.245209 0.30467,-0.690031 0.30467,-1.092926 0.30467,1.912187 0.60933,-0.77798 0.30467,-1.563202 0.30467,-0.476711 0.30467,0.45229 0.30467,1.138034 0.30466,-1.468165 0.30467,1.222054 0.30467,1.87705 0.30467,-0.15548 0.914,-3.914416 0.30467,2.144746 0.30467,3.98978 0.30467,-4.321035 0.30467,0.678922 0.30467,-1.677692 0.30466,1.033374 0.30467,0.01295 0.30467,-0.724382 0.30467,0.526106 0.30467,2.489697 0.30466,-1.669476 0.30467,-0.607972 0.30467,-1.290308 0.30467,-0.352208 0.30467,-0.0133 0.30467,0.931955 0.30466,2.326739 0.30467,-1.945298 0.30467,-0.100501 0.30467,1.427259 0.30467,-1.402304 0.30467,0.0547 0.30466,4.266164 0.30467,-6.107261 0.30467,1.156952 0.30467,1.831591 0.30467,3.705078 0.30467,-3.903737 0.30466,-0.152008 0.30467,-0.45858 0.30467,-0.129425 0.30467,0.724305 0.30467,2.056465 0.30467,-4.212674 0.30467,2.857914 0.60933,-2.560026 0.30467,2.036815 0.30467,1.137591 0.30467,-2.080414 0.30466,1.189336 0.30467,-0.512617 0.30467,-1.763121 0.30467,1.433481 0.30467,0.347784 0.30467,-0.411827 0.30466,0.586433 0.30467,-0.06226 0.30467,-0.608845 0.30467,1.11753 0.30467,-1.443277 0.30467,0.284811 0.30466,0.649415 0.60934,-0.465049 0.30467,0.679437 0.30467,-1.693937 0.30467,0.126094 0.30466,-1.349647 0.30467,1.544952 0.30467,-2.183517 0.60934,5.185968 0.60933,-3.816488 0.30467,-1.299339 0.30467,5.139627 0.30467,-2.592608 0.30467,-0.302142 0.30466,6.15041 0.60934,-5.625085 0.30467,-0.102518 0.30467,-0.915533 0.30467,2.713926 0.30467,-2.133493 0.30466,-0.891383 0.30467,1.578467 0.30467,-2.304624 0.30467,2.083707 0.30467,0.507617 0.30466,0.03643 0.30467,-2.076979 0.30467,1.218193 0.30467,2.191315 0.30467,-3.829626 0.30467,1.944506 0.60933,-1.9396 0.30467,2.061667 0.30467,0.29309 0.30467,-1.478364 0.30467,-2.587324 0.30466,2.728748 0.30467,1.301402 0.30467,-2.049156 0.30467,1.099318 0.30467,-1.0204 0.30467,1.359253 0.30466,3.623296 0.30467,-4.110414 0.30467,0.233224 0.30467,-0.841647 0.30467,2.326297 0.60933,-2.725347 0.60934,2.601757 0.60934,-2.2897 0.30467,1.857281 0.30466,-2.483005 0.30467,4.273234 0.30467,-0.302 0.30467,-1.269289 0.30467,0.339029 0.30467,-3.06364 0.30466,1.276422 0.30467,2.704268 0.30467,-2.575455 0.30467,0.146824 0.30467,0.361617 0.30467,0.104472 0.30466,0.479688 0.30467,-0.844908 0.30467,-1.412921 0.30467,0.221978 0.30467,0.801029 0.30466,1.304609 0.30467,-0.321355 0.30467,-1.439448 0.30467,-0.03491 0.30467,1.806508 0.30467,-1.212941 0.30466,0.141908 0.30467,0.718758 0.30467,-0.190346 0.30467,-1.129414 0.30467,1.01117 0.30467,-0.01616 0.30466,2.069437 0.30467,-2.989041 0.30467,-1.69583 0.60934,1.925754 0.30467,0.314924 0.30466,0.628609 0.30467,2.863934 0.30467,-3.076624 0.30467,0.07688 0.30467,0.306976 0.30467,-0.439559 0.30466,1.648677 0.30467,-3.087 0.30467,2.93374 0.30467,-0.866791 0.30467,0.3321 0.30467,-0.974837 0.30466,2.051608 0.30467,-4.834218 0.30467,2.449717 0.30467,0.484727 0.30467,1.796244 0.30467,0.61422 0.30466,-2.37682 0.30467,-1.35392 0.60934,2.81742 0.30467,-2.008646 0.30467,-0.601996 0.30466,0.10405 0.30467,-0.849807 0.30467,1.360871 0.30467,-0.04219 0.60934,-0.948688 0.30466,1.664684 0.30467,-0.847986 0.30467,0.03995 0.30467,-2.937988 0.30467,4.689806 0.30467,-2.992829 0.30466,-1.195505 0.30467,2.965417 0.30467,1.385127 0.30467,-2.030352 0.30467,0.0102 0.60933,1.614915 0.30467,-2.001385 0.30467,1.138169 0.30467,0.397923 0.30467,-1.081222 0.30466,0.332037 0.60934,1.884715 0.30467,1.56415 0.30467,-1.90108 0.30467,0.1893 0.30466,-4.111227 0.30467,7.106597 0.30467,-5.101522 0.30467,0.95818 0.30467,-0.668335 0.30467,1.351297 0.30466,-2.708108 0.60934,3.274048 0.30467,-1.932435 0.30467,0.815179 0.30467,0.494685 0.30466,-2.06215 0.30467,-0.319829 0.30467,-0.0294 0.30467,0.325677 0.30467,0.884326 0.30467,-0.674537 0.30466,-0.160876 0.30467,1.049444 0.30467,-1.972075 0.30467,1.069509 0.30467,1.748202 0.30467,-0.803483 0.30466,0.01738 0.30467,-0.69339 0.30467,1.356029 0.60934,-1.910223 0.30467,-0.140243 0.30466,1.896067 0.30467,-0.719782 0.30467,-1.602635 0.30467,2.857 0.30467,-3.86233 0.30467,4.45412 0.30466,-1.318076 0.30467,-0.506148 0.30467,-1.166448 0.30467,2.422192 0.30467,-0.203036 0.30466,-2.128518 0.30467,1.962152 0.30467,-1.213101 0.30467,2.295433 0.30467,-3.559335 0.30467,1.943604 0.30466,-0.21139 0.30467,-1.961323 0.30467,1.058482 0.30467,-1.829108 0.30467,2.393939 0.30467,-0.19238 0.30466,0.01979 0.30467,2.752691 0.30467,-3.176163 0.30467,1.254158 0.30467,-1.719815 0.30467,0.839049 0.30466,1.294209 0.30467,-3.664674 0.30467,4.681196 0.30467,-2.125018 0.30467,0.473079 v 0"
         style="fill:none;stroke:#ff7f0e;stroke-width:1.5;stroke-linecap:square;stroke-linejoin:round;stroke-miterlimit:10;stroke-dasharray:none;stroke-opacity:1"
         id="path390" /></g><path
       d="M 39.81891,133.02114 V 285.27588"
       style="fill:none;stroke:#000000;stroke-width:0.488231;stroke-linecap:square;stroke-linejoin:miter;stroke-miterlimit:10;stroke-dasharray:none;stroke-opacity:1"
       id="path394" /><path
       d="M 244.14346,133.02114 V 285.27588"
       style="fill:none;stroke:#000000;stroke-width:0.488231;stroke-linecap:square;stroke-linejoin:miter;stroke-miterlimit:10;stroke-dasharray:none;stroke-opacity:1"
       id="path396" /><path
       d="M 39.81891,133.02114 H 244.14346"
       style="fill:none;stroke:#000000;stroke-width:0.488231;stroke-linecap:square;stroke-linejoin:miter;stroke-miterlimit:10;stroke-dasharray:none;stroke-opacity:1"
       id="path398" /><path
       d="M 39.81891,285.27588 H 244.14346"
       style="fill:none;stroke:#000000;stroke-width:0.488231;stroke-linecap:square;stroke-linejoin:miter;stroke-miterlimit:10;stroke-dasharray:none;stroke-opacity:1"
       id="path400" /><path
       d="m 149.9209,248.47875 h 57.72771 c 0.94732,0 1.42099,0.40686 1.42099,1.22058 v 17.29786 c 0,0.81371 -0.47367,1.22058 -1.42099,1.22058 H 149.9209 c -0.94731,0 -1.42098,-0.40687 -1.42098,-1.22058 v -17.29786 c 0,-0.81372 0.47367,-1.22058 1.42098,-1.22058 z"
       style="fill:#ffffff;fill-opacity:0.8;fill-rule:nonzero;stroke:#cccccc;stroke-width:0.610288;stroke-linecap:butt;stroke-linejoin:miter;stroke-miterlimit:10;stroke-dasharray:none;stroke-opacity:0.8"
       id="path406" /><path
       d="m 150.94106,263.27824 h 12.20577"
       style="fill:none;stroke:#1f77b4;stroke-width:0.915433;stroke-linecap:square;stroke-linejoin:round;stroke-miterlimit:10;stroke-dasharray:none;stroke-opacity:1"
       id="path408" /><path
       d="m 150.94106,254.32417 h 12.20577"
       style="fill:none;stroke:#ff7f0e;stroke-width:0.915433;stroke-linecap:square;stroke-linejoin:round;stroke-miterlimit:10;stroke-dasharray:none;stroke-opacity:1"
       id="path414" /></g><g
     inkscape:groupmode="layer"
     id="layer1"
     inkscape:label="text"
     style="display:inline"
     transform="translate(-23.481764,-51.306676)"><text
       style="font-variant:normal;font-weight:normal;font-size:8.13718px;font-family:'DejaVu Sans';-inkscape-font-specification:DejaVuSans;writing-mode:lr-tb;fill:#000000;fill-opacity:1;fill-rule:nonzero;stroke:none;stroke-width:0.813718"
       id="text32"
       x="62.639904"
       y="266.51367"><tspan
         x="62.639904"
         y="266.51367"
         id="tspan30"
         style="stroke-width:0.813718">0</tspan></text><text
       style="font-variant:normal;font-weight:normal;font-size:8.13718px;font-family:'DejaVu Sans';-inkscape-font-specification:DejaVuSans;writing-mode:lr-tb;fill:#000000;fill-opacity:1;fill-rule:nonzero;stroke:none;stroke-width:0.813718"
       id="text50"
       x="82.256569"
       y="266.51367"><tspan
         x="82.256569 87.431808 92.607056"
         y="266.51367"
         sodipodi:role="line"
         id="tspan48"
         style="stroke-width:0.813718">100</tspan></text><text
       style="font-variant:normal;font-weight:normal;font-size:8.13718px;font-family:'DejaVu Sans';-inkscape-font-specification:DejaVuSans;writing-mode:lr-tb;fill:#000000;fill-opacity:1;fill-rule:nonzero;stroke:none;stroke-width:0.813718"
       id="text68"
       x="107.04797"
       y="266.51367"><tspan
         x="107.04797 112.22322 117.39845"
         y="266.51367"
         sodipodi:role="line"
         id="tspan66"
         style="stroke-width:0.813718">200</tspan></text><text
       style="font-variant:normal;font-weight:normal;font-size:8.13718px;font-family:'DejaVu Sans';-inkscape-font-specification:DejaVuSans;writing-mode:lr-tb;fill:#000000;fill-opacity:1;fill-rule:nonzero;stroke:none;stroke-width:0.813718"
       id="text86"
       x="131.83936"
       y="266.51367"><tspan
         x="131.83936 137.0146 142.18987"
         y="266.51367"
         sodipodi:role="line"
         id="tspan84"
         style="stroke-width:0.813718">300</tspan></text><text
       style="font-variant:normal;font-weight:normal;font-size:8.13718px;font-family:'DejaVu Sans';-inkscape-font-specification:DejaVuSans;writing-mode:lr-tb;fill:#000000;fill-opacity:1;fill-rule:nonzero;stroke:none;stroke-width:0.813718"
       id="text104"
       x="156.63078"
       y="266.51367"><tspan
         x="156.63078 161.80603 166.98126"
         y="266.51367"
         sodipodi:role="line"
         id="tspan102"
         style="stroke-width:0.813718">400</tspan></text><text
       style="font-variant:normal;font-weight:normal;font-size:8.13718px;font-family:'DejaVu Sans';-inkscape-font-specification:DejaVuSans;writing-mode:lr-tb;fill:#000000;fill-opacity:1;fill-rule:nonzero;stroke:none;stroke-width:0.813718"
       id="text122"
       x="181.42218"
       y="266.51367"><tspan
         x="181.42218 186.59741 191.77267"
         y="266.51367"
         sodipodi:role="line"
         id="tspan120"
         style="stroke-width:0.813718">500</tspan></text><text
       style="font-variant:normal;font-weight:normal;font-size:8.13718px;font-family:'DejaVu Sans';-inkscape-font-specification:DejaVuSans;writing-mode:lr-tb;fill:#000000;fill-opacity:1;fill-rule:nonzero;stroke:none;stroke-width:0.813718"
       id="text140"
       x="206.21358"
       y="266.51367"><tspan
         x="206.21358 211.38882 216.56407"
         y="266.51367"
         sodipodi:role="line"
         id="tspan138"
         style="stroke-width:0.813718">600</tspan></text><text
       style="font-variant:normal;font-weight:normal;font-size:8.13718px;font-family:'DejaVu Sans';-inkscape-font-specification:DejaVuSans;writing-mode:lr-tb;fill:#000000;fill-opacity:1;fill-rule:nonzero;stroke:none;stroke-width:0.813718"
       id="text158"
       x="231.00499"
       y="266.51367"><tspan
         x="231.00499 236.18022 241.35548"
         y="266.51367"
         sodipodi:role="line"
         id="tspan156"
         style="stroke-width:0.813718">700</tspan></text><text
       style="font-variant:normal;font-weight:normal;font-size:8.13718px;font-family:'DejaVu Sans';-inkscape-font-specification:DejaVuSans;writing-mode:lr-tb;fill:#000000;fill-opacity:1;fill-rule:nonzero;stroke:none;stroke-width:0.813718"
       id="text176"
       x="255.79639"
       y="266.51367"><tspan
         x="255.79639 260.97162 266.14688"
         y="266.51367"
         sodipodi:role="line"
         id="tspan174"
         style="stroke-width:0.813718">800</tspan></text><text
       style="font-variant:normal;font-weight:normal;font-size:8.13718px;font-family:'DejaVu Sans';-inkscape-font-specification:DejaVuSans;writing-mode:lr-tb;fill:#000000;fill-opacity:1;fill-rule:nonzero;stroke:none;stroke-width:0.813718"
       id="text194"
       x="280.5878"
       y="266.51367"><tspan
         x="280.5878 285.76303 290.93829"
         y="266.51367"
         sodipodi:role="line"
         id="tspan192"
         style="stroke-width:0.813718">900</tspan></text><g
       id="g232"
       transform="matrix(0.81371782,0,0,-0.81371782,32.748933,115.44604)"><text
         transform="matrix(1,0,0,-1,0,0.9765625)"
         style="font-variant:normal;font-weight:normal;font-size:10px;font-family:'DejaVu Sans';-inkscape-font-specification:DejaVuSans;writing-mode:lr-tb;fill:#000000;fill-opacity:1;fill-rule:nonzero;stroke:none"
         id="text236"><tspan
           x="0 6.3623047"
           y="0"
           sodipodi:role="line"
           id="tspan234">10</tspan></text><text
         transform="matrix(1,0,0,-1,12.820313,4.8046875)"
         style="font-variant:normal;font-weight:normal;font-size:7px;font-family:'DejaVu Sans';-inkscape-font-specification:DejaVuSans;writing-mode:lr-tb;fill:#000000;fill-opacity:1;fill-rule:nonzero;stroke:none"
         id="text240"><tspan
           x="0"
           y="0"
           id="tspan238">6</tspan></text></g><text
       style="font-variant:normal;font-weight:normal;font-size:8.13718px;font-family:'DejaVu Sans';-inkscape-font-specification:DejaVuSans;writing-mode:lr-tb;fill:#000000;fill-opacity:1;fill-rule:nonzero;stroke:none;stroke-width:0.813718"
       id="text212"
       x="302.79184"
       y="266.51367"><tspan
         x="302.79184 307.96707 313.14233 318.31757"
         y="266.51367"
         sodipodi:role="line"
         id="tspan210"
         style="stroke-width:0.813718">1000</tspan></text><text
       style="font-variant:normal;font-weight:normal;font-size:8.13718px;font-family:'DejaVu Sans';-inkscape-font-specification:DejaVuSans;writing-mode:lr-tb;fill:#000000;fill-opacity:1;fill-rule:nonzero;stroke:none;stroke-width:0.813718"
       id="text216"
       x="176.91176"
       y="277.63873"><tspan
         x="176.91176 181.91611 187.08322 192.06317 196.53862"
         y="277.63873"
         sodipodi:role="line"
         id="tspan214"
         style="stroke-width:0.813718">epoch</tspan></text><text
       transform="rotate(-90)"
       style="font-variant:normal;font-weight:normal;font-size:8.13716px;font-family:'DejaVu Sans';-inkscape-font-specification:DejaVuSans;writing-mode:lr-tb;fill:#000000;fill-opacity:1;fill-rule:nonzero;stroke:none;stroke-width:0.813716"
       id="text370"
       x="-191.6642"
       y="42.667366"><tspan
         x="-191.6642 -189.40208 -184.42212 -180.18265"
         y="42.667366"
         sodipodi:role="line"
         id="tspan368"
         style="stroke-width:0.813716">loss (MSE)</tspan></text><text
       style="font-variant:normal;font-weight:normal;font-size:8.13718px;font-family:'DejaVu Sans';-inkscape-font-specification:DejaVuSans;writing-mode:lr-tb;fill:#000000;fill-opacity:1;fill-rule:nonzero;stroke:none;stroke-width:0.813718"
       id="text412"
       x="224.03885"
       y="83.810379"><tspan
         x="224.03885 227.22864 230.573 235.5611 237.82323"
         y="83.810379"
         sodipodi:role="line"
         id="tspan410"
         style="stroke-width:0.813718">train</tspan></text><text
       style="font-variant:normal;font-weight:normal;font-size:8.13718px;font-family:'DejaVu Sans';-inkscape-font-specification:DejaVuSans;writing-mode:lr-tb;fill:#000000;fill-opacity:1;fill-rule:nonzero;stroke:none;stroke-width:0.813718"
       id="text418"
       x="224.03885"
       y="95.749138"><tspan
         x="224.03885 228.85608 233.84416 236.10631 238.36842 243.53554 248.52365 251.71339 253.97554 258.95547"
         y="95.749138"
         sodipodi:role="line"
         id="tspan416"
         style="stroke-width:0.813718">validation</tspan></text><text
       xml:space="preserve"
       style="font-style:normal;font-weight:normal;font-size:8.95091px;line-height:1.25;font-family:sans-serif;letter-spacing:0px;word-spacing:0px;fill:#000000;fill-opacity:1;stroke:none;stroke-width:0.610288"
       x="22.82618"
       y="225.56537"
       id="text1351"><tspan
         sodipodi:role="line"
         id="tspan1349"
         x="22.82618"
         y="225.56537"
         style="stroke-width:0.610288">2x$10^5$</tspan></text></g></svg>
