<?xml version="1.0" encoding="UTF-8" standalone="no"?>
<svg
   xmlns:dc="http://purl.org/dc/elements/1.1/"
   xmlns:cc="http://creativecommons.org/ns#"
   xmlns:rdf="http://www.w3.org/1999/02/22-rdf-syntax-ns#"
   xmlns:svg="http://www.w3.org/2000/svg"
   xmlns="http://www.w3.org/2000/svg"
   xmlns:sodipodi="http://sodipodi.sourceforge.net/DTD/sodipodi-0.dtd"
   xmlns:inkscape="http://www.inkscape.org/namespaces/inkscape"
   version="1.1"
   id="svg2"
   xml:space="preserve"
   width="80mm"
   height="65.300003mm"
   viewBox="0 0 302.36219 246.80316"
   sodipodi:docname="pearson_chr21.svg"
   inkscape:version="1.0.2 (1.0.2+r75+1)"><metadata
     id="metadata8"><rdf:RDF><cc:Work
         rdf:about=""><dc:format>image/svg+xml</dc:format><dc:type
           rdf:resource="http://purl.org/dc/dcmitype/StillImage" /><dc:title></dc:title></cc:Work></rdf:RDF></metadata><defs
     id="defs6"><clipPath
       clipPathUnits="userSpaceOnUse"
       id="clipPath22"><path
         d="M 57.6,38.016 H 414.72 V 304.128 H 57.6 Z"
         id="path20" /></clipPath><clipPath
       clipPathUnits="userSpaceOnUse"
       id="clipPath40"><path
         d="M 57.6,38.016 H 414.72 V 304.128 H 57.6 Z"
         id="path38" /></clipPath><clipPath
       clipPathUnits="userSpaceOnUse"
       id="clipPath58"><path
         d="M 57.6,38.016 H 414.72 V 304.128 H 57.6 Z"
         id="path56" /></clipPath><clipPath
       clipPathUnits="userSpaceOnUse"
       id="clipPath76"><path
         d="M 57.6,38.016 H 414.72 V 304.128 H 57.6 Z"
         id="path74" /></clipPath><clipPath
       clipPathUnits="userSpaceOnUse"
       id="clipPath94"><path
         d="M 57.6,38.016 H 414.72 V 304.128 H 57.6 Z"
         id="path92" /></clipPath><clipPath
       clipPathUnits="userSpaceOnUse"
       id="clipPath112"><path
         d="M 57.6,38.016 H 414.72 V 304.128 H 57.6 Z"
         id="path110" /></clipPath><clipPath
       clipPathUnits="userSpaceOnUse"
       id="clipPath130"><path
         d="M 57.6,38.016 H 414.72 V 304.128 H 57.6 Z"
         id="path128" /></clipPath><clipPath
       clipPathUnits="userSpaceOnUse"
       id="clipPath148"><path
         d="M 57.6,38.016 H 414.72 V 304.128 H 57.6 Z"
         id="path146" /></clipPath><clipPath
       clipPathUnits="userSpaceOnUse"
       id="clipPath170"><path
         d="M 57.6,38.016 H 414.72 V 304.128 H 57.6 Z"
         id="path168" /></clipPath><clipPath
       clipPathUnits="userSpaceOnUse"
       id="clipPath188"><path
         d="M 57.6,38.016 H 414.72 V 304.128 H 57.6 Z"
         id="path186" /></clipPath><clipPath
       clipPathUnits="userSpaceOnUse"
       id="clipPath206"><path
         d="M 57.6,38.016 H 414.72 V 304.128 H 57.6 Z"
         id="path204" /></clipPath><clipPath
       clipPathUnits="userSpaceOnUse"
       id="clipPath224"><path
         d="M 57.6,38.016 H 414.72 V 304.128 H 57.6 Z"
         id="path222" /></clipPath><clipPath
       clipPathUnits="userSpaceOnUse"
       id="clipPath242"><path
         d="M 57.6,38.016 H 414.72 V 304.128 H 57.6 Z"
         id="path240" /></clipPath><clipPath
       clipPathUnits="userSpaceOnUse"
       id="clipPath260"><path
         d="M 57.6,38.016 H 414.72 V 304.128 H 57.6 Z"
         id="path258" /></clipPath><clipPath
       clipPathUnits="userSpaceOnUse"
       id="clipPath282"><path
         d="M 57.6,38.016 H 414.72 V 304.128 H 57.6 Z"
         id="path280" /></clipPath><clipPath
       clipPathUnits="userSpaceOnUse"
       id="clipPath292"><path
         d="M 57.6,38.016 H 414.72 V 304.128 H 57.6 Z"
         id="path290" /></clipPath><clipPath
       clipPathUnits="userSpaceOnUse"
       id="clipPath302"><path
         d="M 57.6,38.016 H 414.72 V 304.128 H 57.6 Z"
         id="path300" /></clipPath><clipPath
       clipPathUnits="userSpaceOnUse"
       id="clipPath312"><path
         d="M 57.6,38.016 H 414.72 V 304.128 H 57.6 Z"
         id="path310" /></clipPath><clipPath
       clipPathUnits="userSpaceOnUse"
       id="clipPath322"><path
         d="M 57.6,38.016 H 414.72 V 304.128 H 57.6 Z"
         id="path320" /></clipPath></defs><sodipodi:namedview
     pagecolor="#ffffff"
     bordercolor="#666666"
     borderopacity="1"
     objecttolerance="10"
     gridtolerance="10"
     guidetolerance="10"
     inkscape:pageopacity="0"
     inkscape:pageshadow="2"
     inkscape:window-width="1920"
     inkscape:window-height="1020"
     id="namedview4"
     showgrid="false"
     fit-margin-top="0"
     fit-margin-left="0"
     fit-margin-right="0"
     fit-margin-bottom="0"
     units="mm"
     inkscape:zoom="2.6301672"
     inkscape:cx="128.90739"
     inkscape:cy="116.03735"
     inkscape:window-x="0"
     inkscape:window-y="0"
     inkscape:window-maximized="1"
     inkscape:current-layer="layer1" /><g
     id="g10"
     inkscape:groupmode="layer"
     inkscape:label="pearson_chr21"
     transform="matrix(1.3333333,0,0,-1.3333333,-28.023958,443.59358)"><path
       d="m 42.067325,308.56969 2.601106,-4.52069 2.601107,-2.33314 2.601107,-0.87489 2.601106,-1.32677 2.601106,0.87054 2.601106,-0.48337 2.601106,-0.061 2.601106,0.17104 2.601106,-0.45247 2.601105,2.10186 2.601109,-2.10471 2.601108,1.20763 2.601102,-0.96926 2.601109,-1.18518 2.601108,1.16501 2.601102,-1.39318 2.601109,2.03425 2.601102,-0.49135 2.601108,-0.98858 2.60111,-2.34513 2.601102,-0.72163 2.601108,-1.59932 2.601107,-0.61636 2.6011,1.42535 2.60111,-0.15473 2.60111,1.1862 2.6011,-1.16851 2.60111,0.0411 2.60111,1.14545 2.6011,-0.49782 2.60111,-2.02794 2.60111,1.80931 2.6011,-0.11795 2.6011,-1.1274 2.60112,0.79396 2.6011,-2.13105 2.6011,0.13333 2.60111,2.33528 2.60111,-2.86368 2.6011,2.31694 2.60111,-1.62408 2.60111,1.93689 2.6011,2.20183 2.60111,2.02842 2.60111,-3.88852 2.6011,1.72243 2.60111,-0.75492 2.60111,1.21783 2.6011,-0.99917 2.60111,-3.43082 2.60111,2.43622 2.6011,-1.53 2.6011,1.08829 2.60111,0.34209 2.60111,-0.84282 2.6011,-2.01746 2.60111,0.5089 2.60111,-1.71935 2.6011,-2.84521 2.60111,-1.11967 2.60111,0.56355 2.6011,0.36722 2.60111,-1.96483 2.60111,1.61107 2.6011,-3.61179 2.60111,-0.18612 2.60111,1.73504 2.6011,-2.72177 2.60111,-1.51943 2.6011,1.27049 2.60111,1.52822 2.60111,0.68165 2.6011,-0.19735 2.60111,-2.29168 2.6011,7.12538 2.60111,4.09387 2.60111,-8.22139 2.6011,-4.33732 2.60111,-3.84315"
       style="fill:none;stroke:#d62728;stroke-width:0.863102;stroke-linecap:square;stroke-linejoin:round;stroke-miterlimit:10;stroke-dasharray:none;stroke-opacity:1"
       id="path324" /><g
       id="g16"
       transform="matrix(0.57540152,0,0,0.57540152,8.9241977,141.97477)"><g
         id="g18"
         clip-path="url(#clipPath22)"><path
           d="M 57.6,38.016 V 304.128"
           style="fill:none;stroke:#b0b0b0;stroke-width:0.8;stroke-linecap:square;stroke-linejoin:round;stroke-miterlimit:10;stroke-dasharray:none;stroke-opacity:1"
           id="path24" /></g></g><path
       d="m 42.067325,163.84924 v -2.01391"
       style="fill:#000000;fill-opacity:1;fill-rule:nonzero;stroke:#000000;stroke-width:0.460322;stroke-linecap:butt;stroke-linejoin:round;stroke-miterlimit:10;stroke-dasharray:none;stroke-opacity:1"
       id="path28" /><g
       id="g34"
       transform="matrix(0.57540152,0,0,0.57540152,8.9241977,141.97477)"><g
         id="g36"
         clip-path="url(#clipPath40)"><path
           d="M 102.80506,38.016 V 304.128"
           style="fill:none;stroke:#b0b0b0;stroke-width:0.8;stroke-linecap:square;stroke-linejoin:round;stroke-miterlimit:10;stroke-dasharray:none;stroke-opacity:1"
           id="path42" /></g></g><path
       d="m 68.078386,163.84924 v -2.01391"
       style="fill:#000000;fill-opacity:1;fill-rule:nonzero;stroke:#000000;stroke-width:0.460322;stroke-linecap:butt;stroke-linejoin:round;stroke-miterlimit:10;stroke-dasharray:none;stroke-opacity:1"
       id="path46" /><g
       id="g52"
       transform="matrix(0.57540152,0,0,0.57540152,8.9241977,141.97477)"><g
         id="g54"
         clip-path="url(#clipPath58)"><path
           d="M 148.01013,38.016 V 304.128"
           style="fill:none;stroke:#b0b0b0;stroke-width:0.8;stroke-linecap:square;stroke-linejoin:round;stroke-miterlimit:10;stroke-dasharray:none;stroke-opacity:1"
           id="path60" /></g></g><path
       d="m 94.089453,163.84924 v -2.01391"
       style="fill:#000000;fill-opacity:1;fill-rule:nonzero;stroke:#000000;stroke-width:0.460322;stroke-linecap:butt;stroke-linejoin:round;stroke-miterlimit:10;stroke-dasharray:none;stroke-opacity:1"
       id="path64" /><g
       id="g70"
       transform="matrix(0.57540152,0,0,0.57540152,8.9241977,141.97477)"><g
         id="g72"
         clip-path="url(#clipPath76)"><path
           d="M 193.21519,38.016 V 304.128"
           style="fill:none;stroke:#b0b0b0;stroke-width:0.8;stroke-linecap:square;stroke-linejoin:round;stroke-miterlimit:10;stroke-dasharray:none;stroke-opacity:1"
           id="path78" /></g></g><path
       d="m 120.10051,163.84924 v -2.01391"
       style="fill:#000000;fill-opacity:1;fill-rule:nonzero;stroke:#000000;stroke-width:0.460322;stroke-linecap:butt;stroke-linejoin:round;stroke-miterlimit:10;stroke-dasharray:none;stroke-opacity:1"
       id="path82" /><g
       id="g88"
       transform="matrix(0.57540152,0,0,0.57540152,8.9241977,141.97477)"><g
         id="g90"
         clip-path="url(#clipPath94)"><path
           d="M 238.42025,38.016 V 304.128"
           style="fill:none;stroke:#b0b0b0;stroke-width:0.8;stroke-linecap:square;stroke-linejoin:round;stroke-miterlimit:10;stroke-dasharray:none;stroke-opacity:1"
           id="path96" /></g></g><path
       d="m 146.11157,163.84924 v -2.01391"
       style="fill:#000000;fill-opacity:1;fill-rule:nonzero;stroke:#000000;stroke-width:0.460322;stroke-linecap:butt;stroke-linejoin:round;stroke-miterlimit:10;stroke-dasharray:none;stroke-opacity:1"
       id="path100" /><g
       id="g106"
       transform="matrix(0.57540152,0,0,0.57540152,8.9241977,141.97477)"><g
         id="g108"
         clip-path="url(#clipPath112)"><path
           d="M 283.62532,38.016 V 304.128"
           style="fill:none;stroke:#b0b0b0;stroke-width:0.8;stroke-linecap:square;stroke-linejoin:round;stroke-miterlimit:10;stroke-dasharray:none;stroke-opacity:1"
           id="path114" /></g></g><path
       d="m 172.12264,163.84924 v -2.01391"
       style="fill:#000000;fill-opacity:1;fill-rule:nonzero;stroke:#000000;stroke-width:0.460322;stroke-linecap:butt;stroke-linejoin:round;stroke-miterlimit:10;stroke-dasharray:none;stroke-opacity:1"
       id="path118" /><g
       id="g124"
       transform="matrix(0.57540152,0,0,0.57540152,8.9241977,141.97477)"><g
         id="g126"
         clip-path="url(#clipPath130)"><path
           d="M 328.83038,38.016 V 304.128"
           style="fill:none;stroke:#b0b0b0;stroke-width:0.8;stroke-linecap:square;stroke-linejoin:round;stroke-miterlimit:10;stroke-dasharray:none;stroke-opacity:1"
           id="path132" /></g></g><path
       d="m 198.1337,163.84924 v -2.01391"
       style="fill:#000000;fill-opacity:1;fill-rule:nonzero;stroke:#000000;stroke-width:0.460322;stroke-linecap:butt;stroke-linejoin:round;stroke-miterlimit:10;stroke-dasharray:none;stroke-opacity:1"
       id="path136" /><g
       id="g142"
       transform="matrix(0.57540152,0,0,0.57540152,8.9241977,141.97477)"><g
         id="g144"
         clip-path="url(#clipPath148)"><path
           d="M 374.03544,38.016 V 304.128"
           style="fill:none;stroke:#b0b0b0;stroke-width:0.8;stroke-linecap:square;stroke-linejoin:round;stroke-miterlimit:10;stroke-dasharray:none;stroke-opacity:1"
           id="path150" /></g></g><path
       d="m 224.14476,163.84924 v -2.01391"
       style="fill:#000000;fill-opacity:1;fill-rule:nonzero;stroke:#000000;stroke-width:0.460322;stroke-linecap:butt;stroke-linejoin:round;stroke-miterlimit:10;stroke-dasharray:none;stroke-opacity:1"
       id="path154" /><g
       id="g164"
       transform="matrix(0.57540152,0,0,0.57540152,8.9241977,141.97477)"><g
         id="g166"
         clip-path="url(#clipPath170)"><path
           d="M 57.6,38.016 H 414.72"
           style="fill:none;stroke:#b0b0b0;stroke-width:0.8;stroke-linecap:square;stroke-linejoin:round;stroke-miterlimit:10;stroke-dasharray:none;stroke-opacity:1"
           id="path172" /></g></g><path
       d="M 42.067325,163.84924 H 40.05342"
       style="fill:#000000;fill-opacity:1;fill-rule:nonzero;stroke:#000000;stroke-width:0.460322;stroke-linecap:butt;stroke-linejoin:round;stroke-miterlimit:10;stroke-dasharray:none;stroke-opacity:1"
       id="path176" /><g
       id="g182"
       transform="matrix(0.57540152,0,0,0.57540152,8.9241977,141.97477)"><g
         id="g184"
         clip-path="url(#clipPath188)"><path
           d="M 57.6,91.2384 H 414.72"
           style="fill:none;stroke:#b0b0b0;stroke-width:0.8;stroke-linecap:square;stroke-linejoin:round;stroke-miterlimit:10;stroke-dasharray:none;stroke-opacity:1"
           id="path190" /></g></g><path
       d="M 42.067325,194.47349 H 40.05342"
       style="fill:#000000;fill-opacity:1;fill-rule:nonzero;stroke:#000000;stroke-width:0.460322;stroke-linecap:butt;stroke-linejoin:round;stroke-miterlimit:10;stroke-dasharray:none;stroke-opacity:1"
       id="path194" /><g
       id="g200"
       transform="matrix(0.57540152,0,0,0.57540152,8.9241977,141.97477)"><g
         id="g202"
         clip-path="url(#clipPath206)"><path
           d="M 57.6,144.4608 H 414.72"
           style="fill:none;stroke:#b0b0b0;stroke-width:0.8;stroke-linecap:square;stroke-linejoin:round;stroke-miterlimit:10;stroke-dasharray:none;stroke-opacity:1"
           id="path208" /></g></g><path
       d="M 42.067325,225.09773 H 40.05342"
       style="fill:#000000;fill-opacity:1;fill-rule:nonzero;stroke:#000000;stroke-width:0.460322;stroke-linecap:butt;stroke-linejoin:round;stroke-miterlimit:10;stroke-dasharray:none;stroke-opacity:1"
       id="path212" /><g
       id="g218"
       transform="matrix(0.57540152,0,0,0.57540152,8.9241977,141.97477)"><g
         id="g220"
         clip-path="url(#clipPath224)"><path
           d="M 57.6,197.6832 H 414.72"
           style="fill:none;stroke:#b0b0b0;stroke-width:0.8;stroke-linecap:square;stroke-linejoin:round;stroke-miterlimit:10;stroke-dasharray:none;stroke-opacity:1"
           id="path226" /></g></g><path
       d="M 42.067325,255.72199 H 40.05342"
       style="fill:#000000;fill-opacity:1;fill-rule:nonzero;stroke:#000000;stroke-width:0.460322;stroke-linecap:butt;stroke-linejoin:round;stroke-miterlimit:10;stroke-dasharray:none;stroke-opacity:1"
       id="path230" /><g
       id="g236"
       transform="matrix(0.57540152,0,0,0.57540152,8.9241977,141.97477)"><g
         id="g238"
         clip-path="url(#clipPath242)"><path
           d="M 57.6,250.9056 H 414.72"
           style="fill:none;stroke:#b0b0b0;stroke-width:0.8;stroke-linecap:square;stroke-linejoin:round;stroke-miterlimit:10;stroke-dasharray:none;stroke-opacity:1"
           id="path244" /></g></g><path
       d="M 42.067325,286.34624 H 40.05342"
       style="fill:#000000;fill-opacity:1;fill-rule:nonzero;stroke:#000000;stroke-width:0.460322;stroke-linecap:butt;stroke-linejoin:round;stroke-miterlimit:10;stroke-dasharray:none;stroke-opacity:1"
       id="path248" /><g
       id="g254"
       transform="matrix(0.57540152,0,0,0.57540152,8.9241977,141.97477)"><g
         id="g256"
         clip-path="url(#clipPath260)"><path
           d="M 57.6,304.128 H 414.72"
           style="fill:none;stroke:#b0b0b0;stroke-width:0.8;stroke-linecap:square;stroke-linejoin:round;stroke-miterlimit:10;stroke-dasharray:none;stroke-opacity:1"
           id="path262" /></g></g><path
       d="M 42.067325,316.97048 H 40.05342"
       style="fill:#000000;fill-opacity:1;fill-rule:nonzero;stroke:#000000;stroke-width:0.460322;stroke-linecap:butt;stroke-linejoin:round;stroke-miterlimit:10;stroke-dasharray:none;stroke-opacity:1"
       id="path266" /><path
       d="m 42.067325,299.43829 2.601106,0.48908 2.601107,-3.45643 2.601107,-4.16405 2.601106,-2.85484 2.601106,-4.62269 2.601106,-0.2827 2.601106,-4.04451 2.601106,-2.53392 2.601106,2.08388 2.601105,-4.06352 2.601109,0.84738 2.601108,0.67919 2.601102,-0.40372 2.601109,-1.46188 2.601108,-0.69103 2.601102,-2.24306 2.601109,-2.89097 2.601102,-2.47899 2.601108,1.55327 2.60111,1.68858 2.601102,3.20175 2.601108,-0.33132 2.601107,0.12149 2.6011,-3.6359 2.60111,-3.60191 2.60111,-2.72643 2.6011,0.029 2.60111,3.415 2.60111,2.67711 2.6011,0.2186 2.60111,-0.43436 2.60111,0.41066 2.6011,-1.26669 2.6011,0.51888 2.60112,-0.36559 2.6011,-1.25539 2.6011,-1.0652 2.60111,-1.27977 2.60111,-0.24641 2.6011,-1.69827 2.60111,-2.08559 2.60111,-2.34149 2.6011,-5.14918 2.60111,-6.14276 2.60111,-0.28369 2.6011,-0.80873 2.60111,-0.62071 2.60111,-3.24106 2.6011,1.9619 2.60111,1.29809 2.60111,-2.78067 2.6011,0.035 2.6011,3.48717 2.60111,1.40386 2.60111,1.99333 2.6011,2.02781 2.60111,0.0498 2.60111,0.59057 2.6011,-2.05066 2.60111,2.79887 2.60111,0.39461 2.6011,-2.38985 2.60111,-0.72569 2.60111,0.82322 2.6011,0.6246 2.60111,0.85001 2.60111,1.6809 2.6011,0.32223 2.60111,-4.37024 2.6011,2.86682 2.60111,2.38644 2.60111,-1.70003 2.6011,-0.29645 2.60111,-0.22188 2.6011,-7.24283 2.60111,-6.52469 2.60111,7.80541 2.6011,-1.09852 2.60111,1.44431"
       style="fill:none;stroke:#1f77b4;stroke-width:0.863102;stroke-linecap:square;stroke-linejoin:round;stroke-miterlimit:10;stroke-dasharray:none;stroke-opacity:1"
       id="path284" /><path
       d="m 42.067325,298.70456 2.601106,0.60681 2.601107,-3.32675 2.601107,-4.0638 2.601106,-2.924 2.601106,-4.66935 2.601106,-0.26719 2.601106,-4.02994 2.601106,-2.41919 2.601106,2.11004 2.601105,-4.165 2.601109,0.68968 2.601108,0.36619 2.601102,-0.40992 2.601109,-1.28905 2.601108,-1.01663 2.601102,-2.18016 2.601109,-2.96772 2.601102,-2.73055 2.601108,1.65687 2.60111,1.84701 2.601102,3.47842 2.601108,-0.0923 2.601107,-10e-4 2.6011,-3.62 2.60111,-3.47843 2.60111,-2.70419 2.6011,0.0315 2.60111,3.81738 2.60111,2.38521 2.6011,0.3206 2.60111,-0.47643 2.60111,0.1 2.6011,-1.46714 2.6011,0.53991 2.60112,-0.17382 2.6011,-1.40875 2.6011,-0.99681 2.60111,-1.3425 2.60111,-0.26814 2.6011,-1.64442 2.60111,-2.2628 2.60111,-2.29073 2.6011,-5.28541 2.60111,-6.04622 2.60111,-0.36425 2.6011,-0.66676 2.60111,-0.38433 2.60111,-3.26875 2.6011,2.00692 2.60111,1.33598 2.60111,-2.94207 2.6011,0.17263 2.6011,3.34249 2.60111,1.70181 2.60111,2.32554 2.6011,1.90576 2.60111,-0.0326 2.60111,0.71442 2.6011,-2.16502 2.60111,2.75895 2.60111,0.63463 2.6011,-2.47316 2.60111,-0.41903 2.60111,0.60088 2.6011,0.78342 2.60111,0.34778 2.60111,2.09025 2.6011,-0.042 2.60111,-3.19042 2.6011,2.78049 2.60111,1.59969 2.60111,-0.77977 2.6011,-0.19886 2.60111,-1.24148 2.6011,-6.80603 2.60111,-7.07615 2.60111,7.73717 2.6011,-0.3606 2.60111,0.70606"
       style="fill:none;stroke:#ff7f0e;stroke-width:0.863102;stroke-linecap:square;stroke-linejoin:round;stroke-miterlimit:10;stroke-dasharray:none;stroke-opacity:1"
       id="path294" /><path
       d="m 42.067325,299.14998 2.601106,0.49629 2.601107,-3.05075 2.601107,-3.91352 2.601106,-2.75116 2.601106,-4.70327 2.601106,-0.1705 2.601106,-4.07333 2.601106,-2.37552 2.601106,2.04806 2.601105,-4.14481 2.601109,0.68085 2.601108,0.24976 2.601102,-0.56767 2.601109,-1.27376 2.601108,-1.0785 2.601102,-2.12264 2.601109,-3.09675 2.601102,-2.92881 2.601108,1.57912 2.60111,2.24377 2.601102,3.72989 2.601108,-0.10836 2.601107,-0.0562 2.6011,-3.67545 2.60111,-3.5579 2.60111,-2.65825 2.6011,-0.0769 2.60111,3.81633 2.60111,2.35966 2.6011,-0.0827 2.60111,-0.44927 2.60111,-0.083 2.6011,-1.16972 2.6011,0.3122 2.60112,0.003 2.6011,-1.30542 2.6011,-0.98482 2.60111,-1.16245 2.60111,-0.22789 2.6011,-1.595 2.60111,-2.29608 2.60111,-1.97876 2.6011,-5.24936 2.60111,-5.97922 2.60111,0.0945 2.6011,-0.81185 2.60111,-0.45396 2.60111,-3.1473 2.6011,2.17634 2.60111,1.59715 2.60111,-3.11956 2.6011,0.0219 2.6011,3.44106 2.60111,1.96964 2.60111,1.8153 2.6011,1.90486 2.60111,0.0355 2.60111,0.58535 2.6011,-2.49113 2.60111,3.00064 2.60111,0.63093 2.6011,-2.48721 2.60111,-0.11282 2.60111,0.4199 2.6011,0.41777 2.60111,0.34637 2.60111,1.70488 2.6011,0.51756 2.60111,-3.65127 2.6011,3.00021 2.60111,2.24888 2.60111,-1.59623 2.6011,1.05695 2.60111,-1.578 2.6011,-6.73277 2.60111,-7.38752 2.60111,7.91104 2.6011,-0.40567 2.60111,0.66712"
       style="fill:none;stroke:#2ca02c;stroke-width:0.863102;stroke-linecap:square;stroke-linejoin:round;stroke-miterlimit:10;stroke-dasharray:none;stroke-opacity:1"
       id="path304" /><path
       d="m 42.067325,297.32491 2.601106,-1.072 2.601107,-4.27993 2.601107,-3.7414 2.601106,-2.2797 2.601106,-3.71837 2.601106,0.0925 2.601106,-3.74355 2.601106,-1.91815 2.601106,1.8618 2.601105,-4.68731 2.601109,0.0366 2.601108,-0.33737 2.601102,-1.29074 2.601109,-1.1212 2.601108,-1.98675 2.601102,-2.48644 2.601109,-2.80972 2.601102,-2.47059 2.601108,2.00231 2.60111,2.20806 2.601102,4.29367 2.601108,0.16197 2.601107,-0.56649 2.6011,-2.56237 2.60111,-4.16618 2.60111,-2.27375 2.6011,-1.82038 2.60111,3.1542 2.60111,2.1961 2.6011,0.28429 2.60111,-0.76661 2.60111,-1.71835 2.6011,-1.15081 2.6011,0.55251 2.60112,-1.95838 2.6011,-1.3164 2.6011,-2.03976 2.60111,-1.1824 2.60111,-1.18282 2.6011,-0.80813 2.60111,-3.87346 2.60111,-1.55653 2.6011,-5.21521 2.60111,-6.49895 2.60111,0.15401 2.6011,-1.06045 2.60111,-1.36346 2.60111,-2.6093 2.6011,2.19627 2.60111,1.21506 2.60111,-1.33972 2.6011,0.33572 2.6011,3.58213 2.60111,2.55199 2.60111,0.75593 2.6011,2.70815 2.60111,-2.40868 2.60111,-0.34053 2.6011,-0.27588 2.60111,-0.92934 2.60111,-0.11726 2.6011,-2.52454 2.60111,-0.1529 2.60111,1.31175 2.6011,-1.20182 2.60111,2.10411 2.60111,0.0728 2.6011,1.43522 2.60111,-5.06785 2.6011,2.07328 2.60111,0.2744 2.60111,1.16408 2.6011,1.39993 2.60111,-0.414 2.6011,-6.52297 2.60111,-7.07553 2.60111,10.10928 2.6011,-0.82825 2.60111,3.13043"
       style="fill:none;stroke:#9467bd;stroke-width:0.863102;stroke-linecap:square;stroke-linejoin:round;stroke-miterlimit:10;stroke-dasharray:none;stroke-opacity:0.980392"
       id="path314" /><path
       d="M 42.067325,163.84924 V 316.97048"
       style="fill:none;stroke:#000000;stroke-width:0.460322;stroke-linecap:square;stroke-linejoin:miter;stroke-miterlimit:10;stroke-dasharray:none;stroke-opacity:1"
       id="path328" /><path
       d="M 247.55472,163.84924 V 316.97048"
       style="fill:none;stroke:#000000;stroke-width:0.460322;stroke-linecap:square;stroke-linejoin:miter;stroke-miterlimit:10;stroke-dasharray:none;stroke-opacity:1"
       id="path330" /><path
       d="M 42.067325,163.84924 H 247.55472"
       style="fill:none;stroke:#000000;stroke-width:0.460322;stroke-linecap:square;stroke-linejoin:miter;stroke-miterlimit:10;stroke-dasharray:none;stroke-opacity:1"
       id="path332" /><path
       d="M 42.067325,316.97048 H 247.55472"
       style="fill:none;stroke:#000000;stroke-width:0.460322;stroke-linecap:square;stroke-linejoin:miter;stroke-miterlimit:10;stroke-dasharray:none;stroke-opacity:1"
       id="path334" /><path
       d="m 54.197074,206.66826 h 11.50803"
       style="fill:none;stroke:#1f77b4;stroke-width:0.863102;stroke-linecap:square;stroke-linejoin:round;stroke-miterlimit:10;stroke-dasharray:none;stroke-opacity:1"
       id="path344" /><path
       d="m 54.197074,198.22604 h 11.50803"
       style="fill:none;stroke:#ff7f0e;stroke-width:0.863102;stroke-linecap:square;stroke-linejoin:round;stroke-miterlimit:10;stroke-dasharray:none;stroke-opacity:1"
       id="path350" /><path
       d="m 54.197074,189.78383 h 11.50803"
       style="fill:none;stroke:#2ca02c;stroke-width:0.863102;stroke-linecap:square;stroke-linejoin:round;stroke-miterlimit:10;stroke-dasharray:none;stroke-opacity:1"
       id="path356" /><path
       d="m 54.197074,181.34161 h 11.50803"
       style="fill:none;stroke:#9467bd;stroke-width:0.863102;stroke-linecap:square;stroke-linejoin:round;stroke-miterlimit:10;stroke-dasharray:none;stroke-opacity:1"
       id="path362" /><path
       d="m 54.197074,172.89938 h 11.50803"
       style="fill:none;stroke:#d62728;stroke-width:0.863102;stroke-linecap:square;stroke-linejoin:round;stroke-miterlimit:10;stroke-dasharray:none;stroke-opacity:1"
       id="path368" /></g><g
     inkscape:groupmode="layer"
     id="layer1"
     inkscape:label="text"
     style="display:inline"
     transform="translate(-28.023958,-17.206424)"><text
       style="font-variant:normal;font-weight:normal;font-size:7.67202px;font-family:'DejaVu Sans';-inkscape-font-specification:DejaVuSans;writing-mode:lr-tb;fill:#000000;fill-opacity:1;fill-rule:nonzero;stroke:none;stroke-width:0.767202"
       id="text32"
       x="53.548649"
       y="253.53078"><tspan
         x="53.548649 58.428055 60.86776 65.747162"
         y="253.53078"
         sodipodi:role="line"
         id="tspan30"
         style="stroke-width:0.767202">0.00</tspan></text><text
       style="font-variant:normal;font-weight:normal;font-size:7.67202px;font-family:'DejaVu Sans';-inkscape-font-specification:DejaVuSans;writing-mode:lr-tb;fill:#000000;fill-opacity:1;fill-rule:nonzero;stroke:none;stroke-width:0.767202"
       id="text50"
       x="82.230064"
       y="253.53078"><tspan
         x="82.230064 87.109467 89.549171 94.428581"
         y="253.53078"
         sodipodi:role="line"
         id="tspan48"
         style="stroke-width:0.767202">0.25</tspan></text><text
       style="font-variant:normal;font-weight:normal;font-size:7.67202px;font-family:'DejaVu Sans';-inkscape-font-specification:DejaVuSans;writing-mode:lr-tb;fill:#000000;fill-opacity:1;fill-rule:nonzero;stroke:none;stroke-width:0.767202"
       id="text68"
       x="116.91148"
       y="253.53078"><tspan
         x="116.91148 121.79088 124.23059 129.10999"
         y="253.53078"
         sodipodi:role="line"
         id="tspan66"
         style="stroke-width:0.767202">0.50</tspan></text><text
       style="font-variant:normal;font-weight:normal;font-size:7.67202px;font-family:'DejaVu Sans';-inkscape-font-specification:DejaVuSans;writing-mode:lr-tb;fill:#000000;fill-opacity:1;fill-rule:nonzero;stroke:none;stroke-width:0.767202"
       id="text86"
       x="151.5929"
       y="253.53078"><tspan
         x="151.5929 156.47231 158.912 163.79141"
         y="253.53078"
         sodipodi:role="line"
         id="tspan84"
         style="stroke-width:0.767202">0.75</tspan></text><text
       style="font-variant:normal;font-weight:normal;font-size:7.67202px;font-family:'DejaVu Sans';-inkscape-font-specification:DejaVuSans;writing-mode:lr-tb;fill:#000000;fill-opacity:1;fill-rule:nonzero;stroke:none;stroke-width:0.767202"
       id="text104"
       x="186.27432"
       y="253.53078"><tspan
         x="186.27432 191.15373 193.59341 198.47282"
         y="253.53078"
         sodipodi:role="line"
         id="tspan102"
         style="stroke-width:0.767202">1.00</tspan></text><text
       style="font-variant:normal;font-weight:normal;font-size:7.67202px;font-family:'DejaVu Sans';-inkscape-font-specification:DejaVuSans;writing-mode:lr-tb;fill:#000000;fill-opacity:1;fill-rule:nonzero;stroke:none;stroke-width:0.767202"
       id="text122"
       x="220.95572"
       y="253.53078"><tspan
         x="220.95572 225.83513 228.27484 233.15424"
         y="253.53078"
         sodipodi:role="line"
         id="tspan120"
         style="stroke-width:0.767202">1.25</tspan></text><text
       style="font-variant:normal;font-weight:normal;font-size:7.67202px;font-family:'DejaVu Sans';-inkscape-font-specification:DejaVuSans;writing-mode:lr-tb;fill:#000000;fill-opacity:1;fill-rule:nonzero;stroke:none;stroke-width:0.767202"
       id="text140"
       x="255.63715"
       y="253.53078"><tspan
         x="255.63715 260.51654 262.95627 267.83563"
         y="253.53078"
         sodipodi:role="line"
         id="tspan138"
         style="stroke-width:0.767202">1.50</tspan></text><text
       style="font-variant:normal;font-weight:normal;font-size:7.67202px;font-family:'DejaVu Sans';-inkscape-font-specification:DejaVuSans;writing-mode:lr-tb;fill:#000000;fill-opacity:1;fill-rule:nonzero;stroke:none;stroke-width:0.767202"
       id="text158"
       x="290.31854"
       y="253.53078"><tspan
         x="290.31854 295.19797 297.63766 302.51709"
         y="253.53078"
         sodipodi:role="line"
         id="tspan156"
         style="stroke-width:0.767202">1.75</tspan></text><text
       style="font-variant:normal;font-weight:normal;font-size:7.67202px;font-family:'DejaVu Sans';-inkscape-font-specification:DejaVuSans;writing-mode:lr-tb;fill:#000000;fill-opacity:1;fill-rule:nonzero;stroke:none;stroke-width:0.767202"
       id="text162"
       x="146.64766"
       y="264.01971"><tspan
         x="146.64766 152.59348 157.31177 162.17581 166.87111 174.34364 176.47647 180.69608 183.13579 188.00751 190.14032 194.13745 197.14488 201.84784 206.7119 210.93152 215.64981 218.08951 220.67497 223.11467 229.73563 234.60736"
         y="264.01971"
         sodipodi:role="line"
         id="tspan160"
         style="stroke-width:0.767202">Genomic distance / Mbp</tspan></text><text
       style="font-variant:normal;font-weight:normal;font-size:7.67202px;font-family:'DejaVu Sans';-inkscape-font-specification:DejaVuSans;writing-mode:lr-tb;fill:#000000;fill-opacity:1;fill-rule:nonzero;stroke:none;stroke-width:0.767202"
       id="text180"
       x="38.516045"
       y="245.24739"><tspan
         x="38.516045 43.395447 45.835152"
         y="245.24739"
         sodipodi:role="line"
         id="tspan178"
         style="stroke-width:0.767202">0.0</tspan></text><text
       style="font-variant:normal;font-weight:normal;font-size:7.67202px;font-family:'DejaVu Sans';-inkscape-font-specification:DejaVuSans;writing-mode:lr-tb;fill:#000000;fill-opacity:1;fill-rule:nonzero;stroke:none;stroke-width:0.767202"
       id="text198"
       x="38.516045"
       y="204.41507"><tspan
         x="38.516045 43.395447 45.835152"
         y="204.41507"
         sodipodi:role="line"
         id="tspan196"
         style="stroke-width:0.767202">0.2</tspan></text><text
       style="font-variant:normal;font-weight:normal;font-size:7.67202px;font-family:'DejaVu Sans';-inkscape-font-specification:DejaVuSans;writing-mode:lr-tb;fill:#000000;fill-opacity:1;fill-rule:nonzero;stroke:none;stroke-width:0.767202"
       id="text216"
       x="38.516045"
       y="163.58273"><tspan
         x="38.516045 43.395447 45.835152"
         y="163.58273"
         sodipodi:role="line"
         id="tspan214"
         style="stroke-width:0.767202">0.4</tspan></text><text
       style="font-variant:normal;font-weight:normal;font-size:7.67202px;font-family:'DejaVu Sans';-inkscape-font-specification:DejaVuSans;writing-mode:lr-tb;fill:#000000;fill-opacity:1;fill-rule:nonzero;stroke:none;stroke-width:0.767202"
       id="text234"
       x="38.516045"
       y="122.7503"><tspan
         x="38.516045 43.395447 45.835152"
         y="122.7503"
         sodipodi:role="line"
         id="tspan232"
         style="stroke-width:0.767202">0.6</tspan></text><text
       style="font-variant:normal;font-weight:normal;font-size:7.67202px;font-family:'DejaVu Sans';-inkscape-font-specification:DejaVuSans;writing-mode:lr-tb;fill:#000000;fill-opacity:1;fill-rule:nonzero;stroke:none;stroke-width:0.767202"
       id="text252"
       x="38.516045"
       y="81.917984"><tspan
         x="38.516045 43.395447 45.835152"
         y="81.917984"
         sodipodi:role="line"
         id="tspan250"
         style="stroke-width:0.767202">0.8</tspan></text><text
       style="font-variant:normal;font-weight:normal;font-size:7.67202px;font-family:'DejaVu Sans';-inkscape-font-specification:DejaVuSans;writing-mode:lr-tb;fill:#000000;fill-opacity:1;fill-rule:nonzero;stroke:none;stroke-width:0.767202"
       id="text270"
       x="38.516045"
       y="41.085701"><tspan
         x="38.516045 43.395447 45.835152"
         y="41.085701"
         sodipodi:role="line"
         id="tspan268"
         style="stroke-width:0.767202">1.0</tspan></text><text
       transform="rotate(-90)"
       style="font-variant:normal;font-weight:normal;font-size:7.67202px;font-family:'DejaVu Sans';-inkscape-font-specification:DejaVuSans;writing-mode:lr-tb;fill:#000000;fill-opacity:1;fill-rule:nonzero;stroke:none;stroke-width:0.767202"
       id="text274"
       x="-177.31905"
       y="33.852894"><tspan
         x="-177.31905 -172.69281 -167.97452 -163.27158 -160.11836 -156.12125 -151.42596 -146.56192 -144.12221 -139.9026 -135.20732 -132.05412 -128.90091 -124.18254 -122.04973 -117.34676 -114.33933 -112.2065 -107.51124"
         y="33.852894"
         sodipodi:role="line"
         id="tspan272"
         style="stroke-width:0.767202">Pearson correlation</tspan></text><text
       style="font-variant:normal;font-weight:normal;font-size:9.20642px;font-family:'DejaVu Sans';-inkscape-font-specification:DejaVuSans;writing-mode:lr-tb;fill:#000000;fill-opacity:1;fill-rule:nonzero;stroke:none;stroke-width:0.767202"
       id="text338"
       x="98.337898"
       y="23.250641"><tspan
         x="98.337898 103.88937 109.55133 115.19486 118.97871 123.77525 129.40958 135.24646 138.1741 143.23763 148.87196 152.65581 156.43964 162.10159 164.66098 170.30453 173.91345 176.47281 182.10716 187.94402 190.87167 196.32187 201.11842 204.04607 206.97371 212.81979 218.48174 224.3186 229.95294 238.92 241.47939 246.54292 249.47057 255.31665 257.87604 262.67255 266.28149 271.92502 277.7619 282.82544"
         y="23.250641"
         sodipodi:role="line"
         id="tspan336"
         style="stroke-width:0.767202">Pearson correlation vs. genomic distance</tspan></text><text
       style="font-variant:normal;font-weight:normal;font-size:9.20642px;font-family:'DejaVu Sans';-inkscape-font-specification:DejaVuSans;writing-mode:lr-tb;fill:#000000;fill-opacity:1;fill-rule:nonzero;stroke:none;stroke-width:0.767202"
       id="text342"
       x="61.065357"
       y="33.569515"><tspan
         x="61.065357 68.200333 76.145485 82.000771 87.856049 93.711334 99.56662 105.42191 108.34956 111.2772 117.13248 120.06013 125.91541 128.84305 134.69833 137.62599 143.48128 146.40891 152.26421 155.19185 161.04713 166.9024 169.83005 175.68533 181.54062 184.46828 190.32355 196.17885 199.10648 204.96176 210.81705 213.74471 219.59999 225.45528 228.3829 234.2382 240.09349 243.02113 248.87642 254.7317 257.65936 263.51465 269.3699 272.29758 277.93192 283.76877 286.69641 292.73584 298.59113 304.44641 310.3017 313.22931 316.15695 322.01224"
         y="33.569515"
         sodipodi:role="line"
         id="tspan340"
         style="stroke-width:0.767202">GM12878, 1,2,4,7,9,11,13,14,16,17,18,20,22 on K562, 21</tspan></text><text
       style="font-variant:normal;font-weight:normal;font-size:7.67202px;font-family:'DejaVu Sans';-inkscape-font-specification:DejaVuSans;writing-mode:lr-tb;fill:#000000;fill-opacity:1;fill-rule:nonzero;stroke:none;stroke-width:0.767202"
       id="text348"
       x="93.744438"
       y="187.92757"><tspan
         sodipodi:role="line"
         id="tspan346"
         style="stroke-width:0.767202"
         x="93.744438"
         y="187.92757">25k+50k$\rightarrow$25k, 250ep / AUC: 0.645</tspan></text><text
       style="font-variant:normal;font-weight:normal;font-size:7.67202px;font-family:'DejaVu Sans';-inkscape-font-specification:DejaVuSans;writing-mode:lr-tb;fill:#000000;fill-opacity:1;fill-rule:nonzero;stroke:none;stroke-width:0.767202"
       id="text354"
       x="93.744438"
       y="199.18387"><tspan
         sodipodi:role="line"
         id="tspan352"
         style="stroke-width:0.767202"
         x="93.744438"
         y="199.18387">25k+50k$\rightarrow$25k, 500ep / AUC: 0.642</tspan></text><text
       style="font-variant:normal;font-weight:normal;font-size:7.67202px;font-family:'DejaVu Sans';-inkscape-font-specification:DejaVuSans;writing-mode:lr-tb;fill:#000000;fill-opacity:1;fill-rule:nonzero;stroke:none;stroke-width:0.767202"
       id="text360"
       x="93.744438"
       y="210.44011"><tspan
         sodipodi:role="line"
         id="tspan358"
         style="stroke-width:0.767202"
         x="93.744438"
         y="210.44011">25k+50k$\rightarrow$25k, 1000ep / AUC: 0.648</tspan></text><text
       style="font-variant:normal;font-weight:normal;font-size:7.67202px;font-family:'DejaVu Sans';-inkscape-font-specification:DejaVuSans;writing-mode:lr-tb;fill:#000000;fill-opacity:1;fill-rule:nonzero;stroke:none;stroke-width:0.767202"
       id="text366"
       x="93.744438"
       y="221.69641"><tspan
         x="93.744438 95.877251 100.74129 102.87412 105.88157 108.0144 112.71732 114.85014 117.28986 119.72956 124.60896 129.48837 134.36775 139.08607 143.95778 146.39749 148.98296 151.42268 156.6703 162.28624 167.64131 170.22679 172.66649 177.54591 179.98558 184.86501 189.7444"
         y="221.69641"
         sodipodi:role="line"
         id="tspan364"
         style="stroke-width:0.767202">initial, 500ep / AUC: 0.585</tspan></text><text
       style="font-variant:normal;font-weight:normal;font-size:7.67202px;font-family:'DejaVu Sans';-inkscape-font-specification:DejaVuSans;writing-mode:lr-tb;fill:#000000;fill-opacity:1;fill-rule:nonzero;stroke:none;stroke-width:0.767202"
       id="text372"
       x="93.744438"
       y="232.95268"><tspan
         x="93.744438 96.751854 99.905067 104.60801 109.47207 113.46918 116.16973 120.88804 124.04124 126.48092 132.42673 139.0477 143.92711 148.8065 153.6859 158.56532 163.44472 165.88441 168.46989 170.90959 176.15724 181.77318 187.12825 189.71373 192.1534 197.03285 199.47252 204.35191 209.23134"
         y="232.95268"
         sodipodi:role="line"
         id="tspan370"
         style="stroke-width:0.767202">transfer GM12878 / AUC: 0.849</tspan></text></g></svg>
