<?xml version="1.0" encoding="UTF-8" standalone="no"?>
<svg
   xmlns:dc="http://purl.org/dc/elements/1.1/"
   xmlns:cc="http://creativecommons.org/ns#"
   xmlns:rdf="http://www.w3.org/1999/02/22-rdf-syntax-ns#"
   xmlns:svg="http://www.w3.org/2000/svg"
   xmlns="http://www.w3.org/2000/svg"
   xmlns:sodipodi="http://sodipodi.sourceforge.net/DTD/sodipodi-0.dtd"
   xmlns:inkscape="http://www.inkscape.org/namespaces/inkscape"
   version="1.1"
   id="svg2"
   xml:space="preserve"
   width="80mm"
   height="65.300003mm"
   viewBox="0 0 302.36219 246.80316"
   sodipodi:docname="pearson_chr10.svg"
   inkscape:version="1.0.2 (1.0.2+r75+1)"><metadata
     id="metadata8"><rdf:RDF><cc:Work
         rdf:about=""><dc:format>image/svg+xml</dc:format><dc:type
           rdf:resource="http://purl.org/dc/dcmitype/StillImage" /><dc:title></dc:title></cc:Work></rdf:RDF></metadata><defs
     id="defs6"><clipPath
       clipPathUnits="userSpaceOnUse"
       id="clipPath22"><path
         d="M 57.6,38.016 H 414.72 V 304.128 H 57.6 Z"
         id="path20" /></clipPath><clipPath
       clipPathUnits="userSpaceOnUse"
       id="clipPath40"><path
         d="M 57.6,38.016 H 414.72 V 304.128 H 57.6 Z"
         id="path38" /></clipPath><clipPath
       clipPathUnits="userSpaceOnUse"
       id="clipPath58"><path
         d="M 57.6,38.016 H 414.72 V 304.128 H 57.6 Z"
         id="path56" /></clipPath><clipPath
       clipPathUnits="userSpaceOnUse"
       id="clipPath76"><path
         d="M 57.6,38.016 H 414.72 V 304.128 H 57.6 Z"
         id="path74" /></clipPath><clipPath
       clipPathUnits="userSpaceOnUse"
       id="clipPath94"><path
         d="M 57.6,38.016 H 414.72 V 304.128 H 57.6 Z"
         id="path92" /></clipPath><clipPath
       clipPathUnits="userSpaceOnUse"
       id="clipPath112"><path
         d="M 57.6,38.016 H 414.72 V 304.128 H 57.6 Z"
         id="path110" /></clipPath><clipPath
       clipPathUnits="userSpaceOnUse"
       id="clipPath130"><path
         d="M 57.6,38.016 H 414.72 V 304.128 H 57.6 Z"
         id="path128" /></clipPath><clipPath
       clipPathUnits="userSpaceOnUse"
       id="clipPath148"><path
         d="M 57.6,38.016 H 414.72 V 304.128 H 57.6 Z"
         id="path146" /></clipPath><clipPath
       clipPathUnits="userSpaceOnUse"
       id="clipPath170"><path
         d="M 57.6,38.016 H 414.72 V 304.128 H 57.6 Z"
         id="path168" /></clipPath><clipPath
       clipPathUnits="userSpaceOnUse"
       id="clipPath188"><path
         d="M 57.6,38.016 H 414.72 V 304.128 H 57.6 Z"
         id="path186" /></clipPath><clipPath
       clipPathUnits="userSpaceOnUse"
       id="clipPath206"><path
         d="M 57.6,38.016 H 414.72 V 304.128 H 57.6 Z"
         id="path204" /></clipPath><clipPath
       clipPathUnits="userSpaceOnUse"
       id="clipPath224"><path
         d="M 57.6,38.016 H 414.72 V 304.128 H 57.6 Z"
         id="path222" /></clipPath><clipPath
       clipPathUnits="userSpaceOnUse"
       id="clipPath242"><path
         d="M 57.6,38.016 H 414.72 V 304.128 H 57.6 Z"
         id="path240" /></clipPath><clipPath
       clipPathUnits="userSpaceOnUse"
       id="clipPath260"><path
         d="M 57.6,38.016 H 414.72 V 304.128 H 57.6 Z"
         id="path258" /></clipPath><clipPath
       clipPathUnits="userSpaceOnUse"
       id="clipPath282"><path
         d="M 57.6,38.016 H 414.72 V 304.128 H 57.6 Z"
         id="path280" /></clipPath><clipPath
       clipPathUnits="userSpaceOnUse"
       id="clipPath292"><path
         d="M 57.6,38.016 H 414.72 V 304.128 H 57.6 Z"
         id="path290" /></clipPath><clipPath
       clipPathUnits="userSpaceOnUse"
       id="clipPath302"><path
         d="M 57.6,38.016 H 414.72 V 304.128 H 57.6 Z"
         id="path300" /></clipPath><clipPath
       clipPathUnits="userSpaceOnUse"
       id="clipPath312"><path
         d="M 57.6,38.016 H 414.72 V 304.128 H 57.6 Z"
         id="path310" /></clipPath><clipPath
       clipPathUnits="userSpaceOnUse"
       id="clipPath322"><path
         d="M 57.6,38.016 H 414.72 V 304.128 H 57.6 Z"
         id="path320" /></clipPath></defs><sodipodi:namedview
     pagecolor="#ffffff"
     bordercolor="#666666"
     borderopacity="1"
     objecttolerance="10"
     gridtolerance="10"
     guidetolerance="10"
     inkscape:pageopacity="0"
     inkscape:pageshadow="2"
     inkscape:window-width="1920"
     inkscape:window-height="1020"
     id="namedview4"
     showgrid="false"
     fit-margin-top="0"
     fit-margin-left="0"
     fit-margin-right="0"
     fit-margin-bottom="0"
     units="mm"
     inkscape:zoom="2.6301672"
     inkscape:cx="146.69728"
     inkscape:cy="207.10588"
     inkscape:window-x="0"
     inkscape:window-y="0"
     inkscape:window-maximized="1"
     inkscape:current-layer="layer1" /><g
     id="g10"
     inkscape:groupmode="layer"
     inkscape:label="pearson_chr10"
     transform="matrix(1.3333333,0,0,-1.3333333,-28.023958,443.59358)"><path
       d="m 42.059649,284.64859 2.600157,-4.20663 2.600158,-1.53691 2.600157,-1.10772 2.600157,0.30401 2.600158,0.91041 2.600158,-0.48168 2.600158,2.73548 2.600157,0.8739 2.600158,-0.0728 2.600155,-0.006 2.60016,0.06 2.60016,-1.66898 2.600154,0.12478 2.600159,-0.24844 2.60016,1.04141 2.600154,-1.22891 2.600159,-0.73723 2.600154,0.64103 2.600161,0.39406 2.600159,-0.89926 2.600154,-1.65779 2.600159,-2.14387 2.600155,-2.13447 2.60016,-0.25762 2.60016,-1.40514 2.60015,-0.5548 2.60017,0.70268 2.60016,-0.69713 2.60014,3.96724 2.60016,1.92617 2.60017,-1.24457 2.60015,-0.58236 2.60016,3.61271 2.60015,-1.56596 2.60016,-1.27313 2.60016,-1.50896 2.60016,2.32591 2.60016,0.14701 2.60015,1.20493 2.60016,-2.84493 2.60016,0.52542 2.60016,1.40258 2.60016,-2.87564 2.60016,-0.49577 2.60014,-1.54608 2.60016,1.64126 2.60017,2.17228 2.60015,-0.29391 2.60016,2.66277 2.60015,-2.05638 2.60016,0.21675 2.60016,0.9002 2.60016,-1.20557 2.60016,-1.13166 2.60016,2.42718 2.60015,-1.21714 2.60016,-0.83178 2.60016,-0.85258 2.60016,-2.25536 2.60016,-2.25047 2.60015,0.43117 2.60015,0.44728 2.60017,-1.68703 2.60015,-2.57151 2.60016,-2.01686 2.60016,-0.43691 2.60015,-1.15051 2.60016,-1.14227 2.60016,-0.18678 2.60016,-1.75958 2.60016,1.12563 2.60015,0.12012 2.60016,-1.82281 2.60016,0.58982 2.60016,1.33147 2.60016,1.56365 2.60015,-2.25497 2.60015,0.57985 2.60017,-4.13804"
       style="fill:none;stroke:#d62728;stroke-width:0.862788;stroke-linecap:square;stroke-linejoin:round;stroke-miterlimit:10;stroke-dasharray:none;stroke-opacity:1"
       id="path324" /><g
       id="g16"
       transform="matrix(0.57519167,0,0,0.57519167,8.9286084,141.9733)"><g
         id="g18"
         clip-path="url(#clipPath22)"><path
           d="M 57.6,38.016 V 304.128"
           style="fill:none;stroke:#b0b0b0;stroke-width:0.8;stroke-linecap:square;stroke-linejoin:round;stroke-miterlimit:10;stroke-dasharray:none;stroke-opacity:1"
           id="path24" /></g></g><path
       d="m 42.059649,163.83979 v -2.01318"
       style="fill:#000000;fill-opacity:1;fill-rule:nonzero;stroke:#000000;stroke-width:0.460153;stroke-linecap:butt;stroke-linejoin:round;stroke-miterlimit:10;stroke-dasharray:none;stroke-opacity:1"
       id="path28" /><g
       id="g34"
       transform="matrix(0.57519167,0,0,0.57519167,8.9286084,141.9733)"><g
         id="g36"
         clip-path="url(#clipPath40)"><path
           d="M 102.80506,38.016 V 304.128"
           style="fill:none;stroke:#b0b0b0;stroke-width:0.8;stroke-linecap:square;stroke-linejoin:round;stroke-miterlimit:10;stroke-dasharray:none;stroke-opacity:1"
           id="path42" /></g></g><path
       d="m 68.061222,163.83979 v -2.01318"
       style="fill:#000000;fill-opacity:1;fill-rule:nonzero;stroke:#000000;stroke-width:0.460153;stroke-linecap:butt;stroke-linejoin:round;stroke-miterlimit:10;stroke-dasharray:none;stroke-opacity:1"
       id="path46" /><g
       id="g52"
       transform="matrix(0.57519167,0,0,0.57519167,8.9286084,141.9733)"><g
         id="g54"
         clip-path="url(#clipPath58)"><path
           d="M 148.01013,38.016 V 304.128"
           style="fill:none;stroke:#b0b0b0;stroke-width:0.8;stroke-linecap:square;stroke-linejoin:round;stroke-miterlimit:10;stroke-dasharray:none;stroke-opacity:1"
           id="path60" /></g></g><path
       d="m 94.062802,163.83979 v -2.01318"
       style="fill:#000000;fill-opacity:1;fill-rule:nonzero;stroke:#000000;stroke-width:0.460153;stroke-linecap:butt;stroke-linejoin:round;stroke-miterlimit:10;stroke-dasharray:none;stroke-opacity:1"
       id="path64" /><g
       id="g70"
       transform="matrix(0.57519167,0,0,0.57519167,8.9286084,141.9733)"><g
         id="g72"
         clip-path="url(#clipPath76)"><path
           d="M 193.21519,38.016 V 304.128"
           style="fill:none;stroke:#b0b0b0;stroke-width:0.8;stroke-linecap:square;stroke-linejoin:round;stroke-miterlimit:10;stroke-dasharray:none;stroke-opacity:1"
           id="path78" /></g></g><path
       d="m 120.06437,163.83979 v -2.01318"
       style="fill:#000000;fill-opacity:1;fill-rule:nonzero;stroke:#000000;stroke-width:0.460153;stroke-linecap:butt;stroke-linejoin:round;stroke-miterlimit:10;stroke-dasharray:none;stroke-opacity:1"
       id="path82" /><g
       id="g88"
       transform="matrix(0.57519167,0,0,0.57519167,8.9286084,141.9733)"><g
         id="g90"
         clip-path="url(#clipPath94)"><path
           d="M 238.42025,38.016 V 304.128"
           style="fill:none;stroke:#b0b0b0;stroke-width:0.8;stroke-linecap:square;stroke-linejoin:round;stroke-miterlimit:10;stroke-dasharray:none;stroke-opacity:1"
           id="path96" /></g></g><path
       d="m 146.06595,163.83979 v -2.01318"
       style="fill:#000000;fill-opacity:1;fill-rule:nonzero;stroke:#000000;stroke-width:0.460153;stroke-linecap:butt;stroke-linejoin:round;stroke-miterlimit:10;stroke-dasharray:none;stroke-opacity:1"
       id="path100" /><g
       id="g106"
       transform="matrix(0.57519167,0,0,0.57519167,8.9286084,141.9733)"><g
         id="g108"
         clip-path="url(#clipPath112)"><path
           d="M 283.62532,38.016 V 304.128"
           style="fill:none;stroke:#b0b0b0;stroke-width:0.8;stroke-linecap:square;stroke-linejoin:round;stroke-miterlimit:10;stroke-dasharray:none;stroke-opacity:1"
           id="path114" /></g></g><path
       d="m 172.06752,163.83979 v -2.01318"
       style="fill:#000000;fill-opacity:1;fill-rule:nonzero;stroke:#000000;stroke-width:0.460153;stroke-linecap:butt;stroke-linejoin:round;stroke-miterlimit:10;stroke-dasharray:none;stroke-opacity:1"
       id="path118" /><g
       id="g124"
       transform="matrix(0.57519167,0,0,0.57519167,8.9286084,141.9733)"><g
         id="g126"
         clip-path="url(#clipPath130)"><path
           d="M 328.83038,38.016 V 304.128"
           style="fill:none;stroke:#b0b0b0;stroke-width:0.8;stroke-linecap:square;stroke-linejoin:round;stroke-miterlimit:10;stroke-dasharray:none;stroke-opacity:1"
           id="path132" /></g></g><path
       d="m 198.06911,163.83979 v -2.01318"
       style="fill:#000000;fill-opacity:1;fill-rule:nonzero;stroke:#000000;stroke-width:0.460153;stroke-linecap:butt;stroke-linejoin:round;stroke-miterlimit:10;stroke-dasharray:none;stroke-opacity:1"
       id="path136" /><g
       id="g142"
       transform="matrix(0.57519167,0,0,0.57519167,8.9286084,141.9733)"><g
         id="g144"
         clip-path="url(#clipPath148)"><path
           d="M 374.03544,38.016 V 304.128"
           style="fill:none;stroke:#b0b0b0;stroke-width:0.8;stroke-linecap:square;stroke-linejoin:round;stroke-miterlimit:10;stroke-dasharray:none;stroke-opacity:1"
           id="path150" /></g></g><path
       d="m 224.07068,163.83979 v -2.01318"
       style="fill:#000000;fill-opacity:1;fill-rule:nonzero;stroke:#000000;stroke-width:0.460153;stroke-linecap:butt;stroke-linejoin:round;stroke-miterlimit:10;stroke-dasharray:none;stroke-opacity:1"
       id="path154" /><g
       id="g164"
       transform="matrix(0.57519167,0,0,0.57519167,8.9286084,141.9733)"><g
         id="g166"
         clip-path="url(#clipPath170)"><path
           d="M 57.6,38.016 H 414.72"
           style="fill:none;stroke:#b0b0b0;stroke-width:0.8;stroke-linecap:square;stroke-linejoin:round;stroke-miterlimit:10;stroke-dasharray:none;stroke-opacity:1"
           id="path172" /></g></g><path
       d="M 42.059649,163.83979 H 40.046478"
       style="fill:#000000;fill-opacity:1;fill-rule:nonzero;stroke:#000000;stroke-width:0.460153;stroke-linecap:butt;stroke-linejoin:round;stroke-miterlimit:10;stroke-dasharray:none;stroke-opacity:1"
       id="path176" /><g
       id="g182"
       transform="matrix(0.57519167,0,0,0.57519167,8.9286084,141.9733)"><g
         id="g184"
         clip-path="url(#clipPath188)"><path
           d="M 57.6,91.2384 H 414.72"
           style="fill:none;stroke:#b0b0b0;stroke-width:0.8;stroke-linecap:square;stroke-linejoin:round;stroke-miterlimit:10;stroke-dasharray:none;stroke-opacity:1"
           id="path190" /></g></g><path
       d="M 42.059649,194.45286 H 40.046478"
       style="fill:#000000;fill-opacity:1;fill-rule:nonzero;stroke:#000000;stroke-width:0.460153;stroke-linecap:butt;stroke-linejoin:round;stroke-miterlimit:10;stroke-dasharray:none;stroke-opacity:1"
       id="path194" /><g
       id="g200"
       transform="matrix(0.57519167,0,0,0.57519167,8.9286084,141.9733)"><g
         id="g202"
         clip-path="url(#clipPath206)"><path
           d="M 57.6,144.4608 H 414.72"
           style="fill:none;stroke:#b0b0b0;stroke-width:0.8;stroke-linecap:square;stroke-linejoin:round;stroke-miterlimit:10;stroke-dasharray:none;stroke-opacity:1"
           id="path208" /></g></g><path
       d="M 42.059649,225.06594 H 40.046478"
       style="fill:#000000;fill-opacity:1;fill-rule:nonzero;stroke:#000000;stroke-width:0.460153;stroke-linecap:butt;stroke-linejoin:round;stroke-miterlimit:10;stroke-dasharray:none;stroke-opacity:1"
       id="path212" /><g
       id="g218"
       transform="matrix(0.57519167,0,0,0.57519167,8.9286084,141.9733)"><g
         id="g220"
         clip-path="url(#clipPath224)"><path
           d="M 57.6,197.6832 H 414.72"
           style="fill:none;stroke:#b0b0b0;stroke-width:0.8;stroke-linecap:square;stroke-linejoin:round;stroke-miterlimit:10;stroke-dasharray:none;stroke-opacity:1"
           id="path226" /></g></g><path
       d="M 42.059649,255.67903 H 40.046478"
       style="fill:#000000;fill-opacity:1;fill-rule:nonzero;stroke:#000000;stroke-width:0.460153;stroke-linecap:butt;stroke-linejoin:round;stroke-miterlimit:10;stroke-dasharray:none;stroke-opacity:1"
       id="path230" /><g
       id="g236"
       transform="matrix(0.57519167,0,0,0.57519167,8.9286084,141.9733)"><g
         id="g238"
         clip-path="url(#clipPath242)"><path
           d="M 57.6,250.9056 H 414.72"
           style="fill:none;stroke:#b0b0b0;stroke-width:0.8;stroke-linecap:square;stroke-linejoin:round;stroke-miterlimit:10;stroke-dasharray:none;stroke-opacity:1"
           id="path244" /></g></g><path
       d="M 42.059649,286.29211 H 40.046478"
       style="fill:#000000;fill-opacity:1;fill-rule:nonzero;stroke:#000000;stroke-width:0.460153;stroke-linecap:butt;stroke-linejoin:round;stroke-miterlimit:10;stroke-dasharray:none;stroke-opacity:1"
       id="path248" /><g
       id="g254"
       transform="matrix(0.57519167,0,0,0.57519167,8.9286084,141.9733)"><g
         id="g256"
         clip-path="url(#clipPath260)"><path
           d="M 57.6,304.128 H 414.72"
           style="fill:none;stroke:#b0b0b0;stroke-width:0.8;stroke-linecap:square;stroke-linejoin:round;stroke-miterlimit:10;stroke-dasharray:none;stroke-opacity:1"
           id="path262" /></g></g><path
       d="M 42.059649,316.90519 H 40.046478"
       style="fill:#000000;fill-opacity:1;fill-rule:nonzero;stroke:#000000;stroke-width:0.460153;stroke-linecap:butt;stroke-linejoin:round;stroke-miterlimit:10;stroke-dasharray:none;stroke-opacity:1"
       id="path266" /><path
       d="m 42.059649,276.59375 2.600157,5.08861 2.600158,-4.24688 2.600157,-3.9121 2.600157,-3.16555 2.600158,-4.2444 2.600158,-2.13169 2.600158,-2.58851 2.600157,-2.60799 2.600158,-0.67721 2.600155,-3.4785 2.60016,-1.9964 2.60016,-1.96018 2.600154,-4.51589 2.600159,-2.17296 2.60016,-1.36238 2.600154,-1.48976 2.600159,0.51829 2.600154,-1.46505 2.600161,-2.57146 2.600159,-0.6337 2.600154,-1.11804 2.600159,-2.21605 2.600155,-1.84367 2.60016,0.44898 2.60016,-0.79446 2.60015,-1.10771 2.60017,0.32488 2.60016,-1.77739 2.60014,-1.14527 2.60016,-1.83633 2.60017,0.0674 2.60015,-0.46715 2.60016,-1.82235 2.60015,2.79173 2.60016,-2.38332 2.60016,-0.57944 2.60016,-0.2283 2.60016,-2.65747 2.60015,-0.13282 2.60016,0.1365 2.60016,0.39641 2.60016,-3.07061 2.60016,1.93196 2.60016,0.4319 2.60014,-2.20685 2.60016,-0.11778 2.60017,1.10154 2.60015,-4.0659 2.60016,0.71428 2.60015,2.00155 2.60016,0.79537 2.60016,-1.64752 2.60016,1.11138 2.60016,-1.39051 2.60016,0.0259 2.60015,-1.25394 2.60016,-0.32391 2.60016,-0.18341 2.60016,-1.25554 2.60016,1.46344 2.60015,-2.95904 2.60015,0.44282 2.60017,2.08992 2.60015,-0.24642 2.60016,-0.84367 2.60016,-2.16882 2.60015,1.12303 2.60016,-4.09873 2.60016,0.80372 2.60016,-0.77538 2.60016,-1.23385 2.60015,1.83317 2.60016,-0.0985 2.60016,1.7795 2.60016,-0.95888 2.60016,-0.38825 2.60015,0.20341 2.60015,-3.33403 2.60017,0.52627"
       style="fill:none;stroke:#1f77b4;stroke-width:0.862788;stroke-linecap:square;stroke-linejoin:round;stroke-miterlimit:10;stroke-dasharray:none;stroke-opacity:1"
       id="path284" /><path
       d="m 42.059649,277.26796 2.600157,5.38615 2.600158,-4.31761 2.600157,-4.16189 2.600157,-3.39239 2.600158,-4.3578 2.600158,-2.32026 2.600158,-2.69069 2.600157,-2.67564 2.600158,-0.72873 2.600155,-3.49917 2.60016,-2.10855 2.60016,-2.0093 2.600154,-4.36336 2.600159,-2.35699 2.60016,-1.27796 2.600154,-1.39563 2.600159,0.62957 2.600154,-1.15479 2.600161,-2.5641 2.600159,-0.50032 2.600154,-0.8694 2.600159,-1.98606 2.600155,-1.74391 2.60016,0.42662 2.60016,-0.71481 2.60015,-1.48122 2.60017,0.2463 2.60016,-1.77443 2.60014,-1.18549 2.60016,-1.81238 2.60017,0.0796 2.60015,-0.49031 2.60016,-1.62857 2.60015,2.48771 2.60016,-2.0398 2.60016,-0.95365 2.60016,-0.008 2.60016,-2.18156 2.60015,-0.49767 2.60016,0.15248 2.60016,0.42206 2.60016,-2.83617 2.60016,1.42309 2.60016,0.0567 2.60014,-2.05034 2.60016,-0.57326 2.60017,1.05549 2.60015,-3.68031 2.60016,0.8684 2.60015,2.12509 2.60016,1.25552 2.60016,-1.88247 2.60016,1.23122 2.60016,-1.08924 2.60016,-0.4517 2.60015,-0.5651 2.60016,-0.65081 2.60016,0.0279 2.60016,-1.02222 2.60016,1.44147 2.60015,-2.99655 2.60015,0.37006 2.60017,2.01216 2.60015,0.0453 2.60016,-1.32402 2.60016,-1.6103 2.60015,2.00548 2.60016,-3.88292 2.60016,0.815 2.60016,-0.921 2.60016,-0.64188 2.60015,0.6283 2.60016,-0.0271 2.60016,2.06324 2.60016,-2.60568 2.60016,-0.26336 2.60015,-0.13379 2.60015,-3.04003 2.60017,1.01829"
       style="fill:none;stroke:#ff7f0e;stroke-width:0.862788;stroke-linecap:square;stroke-linejoin:round;stroke-miterlimit:10;stroke-dasharray:none;stroke-opacity:1"
       id="path294" /><path
       d="m 42.059649,278.53274 2.600157,5.32606 2.600158,-4.42822 2.600157,-4.32683 2.600157,-3.62858 2.600158,-4.49563 2.600158,-2.61674 2.600158,-2.74826 2.600157,-2.74326 2.600158,-0.75042 2.600155,-3.47456 2.60016,-2.14777 2.60016,-1.75332 2.600154,-4.31325 2.600159,-2.31697 2.60016,-1.33591 2.600154,-1.50307 2.600159,0.64657 2.600154,-1.32919 2.600161,-2.4388 2.600159,-0.48894 2.600154,-0.75677 2.600159,-1.93415 2.600155,-1.89252 2.60016,0.32831 2.60016,-0.99165 2.60015,-1.52553 2.60017,-0.27202 2.60016,-1.85174 2.60014,-1.68824 2.60016,-2.23442 2.60017,0.10769 2.60015,-0.55193 2.60016,-1.94618 2.60015,2.59682 2.60016,-2.00832 2.60016,-1.24245 2.60016,0.0819 2.60016,-2.01176 2.60015,-0.24049 2.60016,0.36745 2.60016,0.6497 2.60016,-2.89556 2.60016,1.75309 2.60016,0.24824 2.60014,-2.24661 2.60016,-0.36009 2.60017,0.74375 2.60015,-3.26081 2.60016,0.69643 2.60015,2.69934 2.60016,1.55287 2.60016,-1.70164 2.60016,1.17814 2.60016,-0.96804 2.60016,0.0688 2.60015,-0.93645 2.60016,-0.6393 2.60016,-0.33848 2.60016,-0.57842 2.60016,1.3558 2.60015,-2.81267 2.60015,0.44857 2.60017,1.78081 2.60015,-0.20323 2.60016,-1.62001 2.60016,-1.19601 2.60015,0.64743 2.60016,-3.53837 2.60016,1.35032 2.60016,-1.61071 2.60016,-1.00551 2.60015,-0.21092 2.60016,-0.35389 2.60016,2.204 2.60016,-1.63232 2.60016,-0.20648 2.60015,-0.18416 2.60015,-2.06592 2.60017,0.3742"
       style="fill:none;stroke:#2ca02c;stroke-width:0.862788;stroke-linecap:square;stroke-linejoin:round;stroke-miterlimit:10;stroke-dasharray:none;stroke-opacity:1"
       id="path304" /><path
       d="m 42.059649,295.42377 2.600157,1.42895 2.600158,-4.79757 2.600157,-4.88126 2.600157,-3.30065 2.600158,-4.00988 2.600158,-1.91356 2.600158,-2.25141 2.600157,-2.7279 2.600158,0.0372 2.600155,-2.67509 2.60016,-1.49519 2.60016,-1.34109 2.600154,-4.24326 2.600159,-1.45932 2.60016,-0.93188 2.600154,-1.42368 2.600159,0.92285 2.600154,-1.44113 2.600161,-1.86936 2.600159,-1.05253 2.600154,0.0327 2.600159,-2.01281 2.600155,-1.87235 2.60016,1.86309 2.60016,-1.26367 2.60015,-1.52403 2.60017,-0.41491 2.60016,-2.20414 2.60014,-0.33797 2.60016,-1.83946 2.60017,-0.35142 2.60015,-0.27816 2.60016,-1.63824 2.60015,1.35759 2.60016,0.0164 2.60016,0.70199 2.60016,-0.75023 2.60016,-0.64968 2.60015,-1.87524 2.60016,0.52188 2.60016,0.64114 2.60016,-2.31299 2.60016,1.10819 2.60016,0.97986 2.60014,-0.98984 2.60016,0.1306 2.60017,0.0798 2.60015,-2.06898 2.60016,0.59083 2.60015,2.44011 2.60016,1.8354 2.60016,-0.36972 2.60016,0.0724 2.60016,-1.00425 2.60016,-0.0294 2.60015,-1.71666 2.60016,-1.81349 2.60016,2.1382 2.60016,-1.30342 2.60016,0.90917 2.60015,-0.91651 2.60015,-0.2552 2.60017,2.05127 2.60015,2.16947 2.60016,-0.99832 2.60016,0.77924 2.60015,1.29729 2.60016,-2.47034 2.60016,1.48479 2.60016,-2.68486 2.60016,-1.31647 2.60015,2.77644 2.60016,-0.32135 2.60016,-1.69852 2.60016,-0.58599 2.60016,0.15511 2.60015,-3.39964 2.60015,-1.88382 2.60017,-0.0129"
       style="fill:none;stroke:#9467bd;stroke-width:0.862788;stroke-linecap:square;stroke-linejoin:round;stroke-miterlimit:10;stroke-dasharray:none;stroke-opacity:1"
       id="path314" /><path
       d="m 42.059649,163.83979 v 153.0654"
       style="fill:none;stroke:#000000;stroke-width:0.460153;stroke-linecap:square;stroke-linejoin:miter;stroke-miterlimit:10;stroke-dasharray:none;stroke-opacity:1"
       id="path328" /><path
       d="m 247.4721,163.83979 v 153.0654"
       style="fill:none;stroke:#000000;stroke-width:0.460153;stroke-linecap:square;stroke-linejoin:miter;stroke-miterlimit:10;stroke-dasharray:none;stroke-opacity:1"
       id="path330" /><path
       d="M 42.059649,163.83979 H 247.4721"
       style="fill:none;stroke:#000000;stroke-width:0.460153;stroke-linecap:square;stroke-linejoin:miter;stroke-miterlimit:10;stroke-dasharray:none;stroke-opacity:1"
       id="path332" /><path
       d="M 42.059649,316.90519 H 247.4721"
       style="fill:none;stroke:#000000;stroke-width:0.460153;stroke-linecap:square;stroke-linejoin:miter;stroke-miterlimit:10;stroke-dasharray:none;stroke-opacity:1"
       id="path334" /><path
       d="m 53.508327,206.93557 h 11.50384"
       style="fill:none;stroke:#1f77b4;stroke-width:0.862788;stroke-linecap:square;stroke-linejoin:round;stroke-miterlimit:10;stroke-dasharray:none;stroke-opacity:1"
       id="path344" /><path
       d="m 53.508327,198.49643 h 11.50384"
       style="fill:none;stroke:#ff7f0e;stroke-width:0.862788;stroke-linecap:square;stroke-linejoin:round;stroke-miterlimit:10;stroke-dasharray:none;stroke-opacity:1"
       id="path350" /><path
       d="m 53.508327,190.0573 h 11.50384"
       style="fill:none;stroke:#2ca02c;stroke-width:0.862788;stroke-linecap:square;stroke-linejoin:round;stroke-miterlimit:10;stroke-dasharray:none;stroke-opacity:1"
       id="path356" /><path
       d="m 53.508327,181.61816 h 11.50384"
       style="fill:none;stroke:#9467bd;stroke-width:0.862788;stroke-linecap:square;stroke-linejoin:round;stroke-miterlimit:10;stroke-dasharray:none;stroke-opacity:1"
       id="path362" /><path
       d="m 53.508327,173.17902 h 11.50384"
       style="fill:none;stroke:#d62728;stroke-width:0.862788;stroke-linecap:square;stroke-linejoin:round;stroke-miterlimit:10;stroke-dasharray:none;stroke-opacity:1"
       id="path368" /></g><g
     inkscape:groupmode="layer"
     id="layer1"
     inkscape:label="text"
     transform="translate(-28.023958,-17.206424)"><text
       style="font-variant:normal;font-weight:normal;font-size:7.6692px;font-family:'DejaVu Sans';-inkscape-font-specification:DejaVuSans;writing-mode:lr-tb;fill:#000000;fill-opacity:1;fill-rule:nonzero;stroke:none;stroke-width:0.76692"
       id="text32"
       x="52.143063"
       y="253.53929"><tspan
         x="52.143063 57.020687 59.459499 64.337128"
         y="253.53929"
         sodipodi:role="line"
         id="tspan30"
         style="stroke-width:0.76692">0.00</tspan></text><text
       style="font-variant:normal;font-weight:normal;font-size:7.66922px;font-family:'DejaVu Sans';-inkscape-font-specification:DejaVuSans;writing-mode:lr-tb;fill:#000000;fill-opacity:1;fill-rule:nonzero;stroke:none;stroke-width:0.766922"
       id="text50"
       x="82.210297"
       y="253.53928"><tspan
         x="82.210297 87.087921 89.526726 94.404358"
         y="253.53928"
         sodipodi:role="line"
         id="tspan48"
         style="stroke-width:0.766922">0.25</tspan></text><text
       style="font-variant:normal;font-weight:normal;font-size:7.66922px;font-family:'DejaVu Sans';-inkscape-font-specification:DejaVuSans;writing-mode:lr-tb;fill:#000000;fill-opacity:1;fill-rule:nonzero;stroke:none;stroke-width:0.766922"
       id="text68"
       x="116.87905"
       y="253.53928"><tspan
         x="116.87905 121.75668 124.1955 129.07314"
         y="253.53928"
         sodipodi:role="line"
         id="tspan66"
         style="stroke-width:0.766922">0.50</tspan></text><text
       style="font-variant:normal;font-weight:normal;font-size:7.66922px;font-family:'DejaVu Sans';-inkscape-font-specification:DejaVuSans;writing-mode:lr-tb;fill:#000000;fill-opacity:1;fill-rule:nonzero;stroke:none;stroke-width:0.766922"
       id="text86"
       x="151.54784"
       y="253.53928"><tspan
         x="151.54784 156.42546 158.86427 163.74188"
         y="253.53928"
         sodipodi:role="line"
         id="tspan84"
         style="stroke-width:0.766922">0.75</tspan></text><text
       style="font-variant:normal;font-weight:normal;font-size:7.66922px;font-family:'DejaVu Sans';-inkscape-font-specification:DejaVuSans;writing-mode:lr-tb;fill:#000000;fill-opacity:1;fill-rule:nonzero;stroke:none;stroke-width:0.766922"
       id="text104"
       x="186.2166"
       y="253.53928"><tspan
         x="186.2166 191.09424 193.53302 198.41066"
         y="253.53928"
         sodipodi:role="line"
         id="tspan102"
         style="stroke-width:0.766922">1.00</tspan></text><text
       style="font-variant:normal;font-weight:normal;font-size:7.66922px;font-family:'DejaVu Sans';-inkscape-font-specification:DejaVuSans;writing-mode:lr-tb;fill:#000000;fill-opacity:1;fill-rule:nonzero;stroke:none;stroke-width:0.766922"
       id="text122"
       x="220.88536"
       y="253.53928"><tspan
         x="220.88536 225.76299 228.2018 233.07941"
         y="253.53928"
         sodipodi:role="line"
         id="tspan120"
         style="stroke-width:0.766922">1.25</tspan></text><text
       style="font-variant:normal;font-weight:normal;font-size:7.66922px;font-family:'DejaVu Sans';-inkscape-font-specification:DejaVuSans;writing-mode:lr-tb;fill:#000000;fill-opacity:1;fill-rule:nonzero;stroke:none;stroke-width:0.766922"
       id="text140"
       x="255.55412"
       y="253.53928"><tspan
         x="255.55412 260.43176 262.87057 267.74817"
         y="253.53928"
         sodipodi:role="line"
         id="tspan138"
         style="stroke-width:0.766922">1.50</tspan></text><text
       style="font-variant:normal;font-weight:normal;font-size:7.66922px;font-family:'DejaVu Sans';-inkscape-font-specification:DejaVuSans;writing-mode:lr-tb;fill:#000000;fill-opacity:1;fill-rule:nonzero;stroke:none;stroke-width:0.766922"
       id="text158"
       x="290.22287"
       y="253.53928"><tspan
         x="290.22287 295.10052 297.53934 302.41699"
         y="253.53928"
         sodipodi:role="line"
         id="tspan156"
         style="stroke-width:0.766922">1.75</tspan></text><text
       style="font-variant:normal;font-weight:normal;font-size:7.66922px;font-family:'DejaVu Sans';-inkscape-font-specification:DejaVuSans;writing-mode:lr-tb;fill:#000000;fill-opacity:1;fill-rule:nonzero;stroke:none;stroke-width:0.766922"
       id="text162"
       x="146.6044"
       y="264.02441"><tspan
         x="146.6044 152.54805 157.2646 162.12689 166.82047 174.29028 176.42233 180.64038 183.07921 187.94916 190.08121 194.07687 197.08321 201.78444 206.64673 210.86481 215.58138 218.02019 220.60471 223.04352 229.66206 234.53201"
         y="264.02441"
         sodipodi:role="line"
         id="tspan160"
         style="stroke-width:0.766922">Genomic distance / Mbp</tspan></text><text
       style="font-variant:normal;font-weight:normal;font-size:7.66922px;font-family:'DejaVu Sans';-inkscape-font-specification:DejaVuSans;writing-mode:lr-tb;fill:#000000;fill-opacity:1;fill-rule:nonzero;stroke:none;stroke-width:0.766922"
       id="text180"
       x="38.512215"
       y="245.25893"><tspan
         x="38.512215 43.389843 45.828655"
         y="245.25893"
         sodipodi:role="line"
         id="tspan178"
         style="stroke-width:0.766922">0.0</tspan></text><text
       style="font-variant:normal;font-weight:normal;font-size:7.66922px;font-family:'DejaVu Sans';-inkscape-font-specification:DejaVuSans;writing-mode:lr-tb;fill:#000000;fill-opacity:1;fill-rule:nonzero;stroke:none;stroke-width:0.766922"
       id="text198"
       x="38.512215"
       y="204.44148"><tspan
         x="38.512215 43.389843 45.828655"
         y="204.44148"
         sodipodi:role="line"
         id="tspan196"
         style="stroke-width:0.766922">0.2</tspan></text><text
       style="font-variant:normal;font-weight:normal;font-size:7.66922px;font-family:'DejaVu Sans';-inkscape-font-specification:DejaVuSans;writing-mode:lr-tb;fill:#000000;fill-opacity:1;fill-rule:nonzero;stroke:none;stroke-width:0.766922"
       id="text216"
       x="38.512215"
       y="163.62404"><tspan
         x="38.512215 43.389843 45.828655"
         y="163.62404"
         sodipodi:role="line"
         id="tspan214"
         style="stroke-width:0.766922">0.4</tspan></text><text
       style="font-variant:normal;font-weight:normal;font-size:7.66922px;font-family:'DejaVu Sans';-inkscape-font-specification:DejaVuSans;writing-mode:lr-tb;fill:#000000;fill-opacity:1;fill-rule:nonzero;stroke:none;stroke-width:0.766922"
       id="text234"
       x="38.512215"
       y="122.8065"><tspan
         x="38.512215 43.389843 45.828655"
         y="122.8065"
         sodipodi:role="line"
         id="tspan232"
         style="stroke-width:0.766922">0.6</tspan></text><text
       style="font-variant:normal;font-weight:normal;font-size:7.66922px;font-family:'DejaVu Sans';-inkscape-font-specification:DejaVuSans;writing-mode:lr-tb;fill:#000000;fill-opacity:1;fill-rule:nonzero;stroke:none;stroke-width:0.766922"
       id="text252"
       x="38.512215"
       y="81.989098"><tspan
         x="38.512215 43.389843 45.828655"
         y="81.989098"
         sodipodi:role="line"
         id="tspan250"
         style="stroke-width:0.766922">0.8</tspan></text><text
       style="font-variant:normal;font-weight:normal;font-size:7.66922px;font-family:'DejaVu Sans';-inkscape-font-specification:DejaVuSans;writing-mode:lr-tb;fill:#000000;fill-opacity:1;fill-rule:nonzero;stroke:none;stroke-width:0.766922"
       id="text270"
       x="38.512215"
       y="41.171696"><tspan
         x="38.512215 43.389843 45.828655"
         y="41.171696"
         sodipodi:role="line"
         id="tspan268"
         style="stroke-width:0.766922">1.0</tspan></text><text
       transform="rotate(-90)"
       style="font-variant:normal;font-weight:normal;font-size:7.66922px;font-family:'DejaVu Sans';-inkscape-font-specification:DejaVuSans;writing-mode:lr-tb;fill:#000000;fill-opacity:1;fill-rule:nonzero;stroke:none;stroke-width:0.766922"
       id="text274"
       x="-177.35535"
       y="33.850769"><tspan
         x="-177.35535 -172.73079 -168.01422 -163.31299 -160.16095 -156.16528 -151.47171 -146.60944 -144.17062 -139.95255 -135.25897 -132.10693 -128.95488 -124.23823 -122.1062 -117.40495 -114.39863 -112.26657 -107.57301"
         y="33.850769"
         sodipodi:role="line"
         id="tspan272"
         style="stroke-width:0.766922">Pearson correlation</tspan></text><text
       style="font-variant:normal;font-weight:normal;font-size:9.20307px;font-family:'DejaVu Sans';-inkscape-font-specification:DejaVuSans;writing-mode:lr-tb;fill:#000000;fill-opacity:1;fill-rule:nonzero;stroke:none;stroke-width:0.766922"
       id="text338"
       x="98.312248"
       y="23.34314"><tspan
         x="98.312248 103.86171 109.5216 115.16307 118.94552 123.74033 129.3726 135.20735 138.13393 143.1956 148.82788 152.61035 156.39281 162.0527 164.61116 170.25264 173.86023 176.41869 182.05096 187.8857 190.81229 196.2605 201.0553 203.98187 206.90845 212.7524 218.41228 224.24699 229.8793 238.84308 241.40154 246.46323 249.3898 255.23375 257.79221 262.58698 266.19461 271.83606 277.67081 282.73251"
         y="23.34314"
         sodipodi:role="line"
         id="tspan336"
         style="stroke-width:0.766922">Pearson correlation vs. genomic distance</tspan></text><text
       style="font-variant:normal;font-weight:normal;font-size:9.20307px;font-family:'DejaVu Sans';-inkscape-font-specification:DejaVuSans;writing-mode:lr-tb;fill:#000000;fill-opacity:1;fill-rule:nonzero;stroke:none;stroke-width:0.766922"
       id="text342"
       x="61.053307"
       y="33.658253"><tspan
         x="61.053307 68.185684 76.12793 81.981079 87.834229 93.68737 99.540527 105.39368 108.32026 111.24683 117.09999 120.02657 125.8797 128.80629 134.65942 137.58601 143.43916 146.36574 152.21889 155.14546 160.99861 166.85175 169.77834 175.63147 181.48463 184.41121 190.26436 196.11751 199.04408 204.89723 210.75038 213.67697 219.53011 225.38329 228.30983 234.16301 240.01614 242.94273 248.79587 254.64902 257.57559 263.42877 269.28189 272.20847 277.84076 283.67551 286.60208 292.63925 298.49243 304.34558 310.19873 313.12531 316.05188 321.90503"
         y="33.658253"
         sodipodi:role="line"
         id="tspan340"
         style="stroke-width:0.766922">GM12878, 1,2,4,7,9,11,13,14,16,17,18,20,22 on K562, 10</tspan></text><text
       style="font-variant:normal;font-weight:normal;font-size:7.66922px;font-family:'DejaVu Sans';-inkscape-font-specification:DejaVuSans;writing-mode:lr-tb;fill:#000000;fill-opacity:1;fill-rule:nonzero;stroke:none;stroke-width:0.766922"
       id="text348"
       x="92.818268"
       y="187.57016"><tspan
         sodipodi:role="line"
         id="tspan346"
         style="stroke-width:0.766922"
         x="92.818268"
         y="187.57016">25k+50k$\rightarrow$25k, 250ep / AUC: 0.420</tspan></text><text
       style="font-variant:normal;font-weight:normal;font-size:7.66922px;font-family:'DejaVu Sans';-inkscape-font-specification:DejaVuSans;writing-mode:lr-tb;fill:#000000;fill-opacity:1;fill-rule:nonzero;stroke:none;stroke-width:0.766922"
       id="text354"
       x="92.818268"
       y="198.82234"><tspan
         sodipodi:role="line"
         id="tspan352"
         style="stroke-width:0.766922"
         x="92.818268"
         y="198.82234">25k+50k$\rightarrow$25k, 500ep / AUC: 0.425</tspan></text><text
       style="font-variant:normal;font-weight:normal;font-size:7.66922px;font-family:'DejaVu Sans';-inkscape-font-specification:DejaVuSans;writing-mode:lr-tb;fill:#000000;fill-opacity:1;fill-rule:nonzero;stroke:none;stroke-width:0.766922"
       id="text360"
       x="92.818268"
       y="210.07449"><tspan
         sodipodi:role="line"
         id="tspan358"
         style="stroke-width:0.766922"
         x="92.818268"
         y="210.07449">25k+50k$\rightarrow$25k, 1000ep / AUC: 0.422</tspan></text><text
       style="font-variant:normal;font-weight:normal;font-size:7.66922px;font-family:'DejaVu Sans';-inkscape-font-specification:DejaVuSans;writing-mode:lr-tb;fill:#000000;fill-opacity:1;fill-rule:nonzero;stroke:none;stroke-width:0.766922"
       id="text366"
       x="92.818268"
       y="221.32669"><tspan
         x="92.818268 94.950302 99.812592 101.94464 104.95097 107.08302 111.78425 113.91628 116.35512 118.79394 123.67153 128.54916 133.42679 138.14339 143.01332 145.45215 148.03667 150.47548 155.72121 161.3351 166.68822 169.27275 171.71156 176.58919 179.02797 183.90559 188.78325"
         y="221.32669"
         sodipodi:role="line"
         id="tspan364"
         style="stroke-width:0.766922">initial, 500ep / AUC: 0.575</tspan></text><text
       style="font-variant:normal;font-weight:normal;font-size:7.66922px;font-family:'DejaVu Sans';-inkscape-font-specification:DejaVuSans;writing-mode:lr-tb;fill:#000000;fill-opacity:1;fill-rule:nonzero;stroke:none;stroke-width:0.766922"
       id="text372"
       x="92.818268"
       y="232.57886"><tspan
         x="92.818268 95.824615 98.976654 103.67789 108.54018 112.53584 115.23538 119.95199 123.10401 125.54283 131.48647 138.10501 142.98267 147.86024 152.7379 157.61552 162.49318 164.93199 167.51649 169.95531 175.20103 180.8149 186.16805 188.75255 191.19136 196.06902 198.50783 203.38542 208.26305"
         y="232.57886"
         sodipodi:role="line"
         id="tspan370"
         style="stroke-width:0.766922">transfer GM12878 / AUC: 0.720</tspan></text></g></svg>
