<?xml version="1.0" encoding="UTF-8" standalone="no"?>
<svg
   xmlns:dc="http://purl.org/dc/elements/1.1/"
   xmlns:cc="http://creativecommons.org/ns#"
   xmlns:rdf="http://www.w3.org/1999/02/22-rdf-syntax-ns#"
   xmlns:svg="http://www.w3.org/2000/svg"
   xmlns="http://www.w3.org/2000/svg"
   xmlns:sodipodi="http://sodipodi.sourceforge.net/DTD/sodipodi-0.dtd"
   xmlns:inkscape="http://www.inkscape.org/namespaces/inkscape"
   version="1.1"
   id="svg2"
   xml:space="preserve"
   width="80mm"
   height="65.300003mm"
   viewBox="0 0 302.36221 246.80316"
   sodipodi:docname="pearson_chr05.svg"
   inkscape:version="1.0.2 (1.0.2+r75+1)"><metadata
     id="metadata8"><rdf:RDF><cc:Work
         rdf:about=""><dc:format>image/svg+xml</dc:format><dc:type
           rdf:resource="http://purl.org/dc/dcmitype/StillImage" /><dc:title></dc:title></cc:Work></rdf:RDF></metadata><defs
     id="defs6"><clipPath
       clipPathUnits="userSpaceOnUse"
       id="clipPath22"><path
         d="M 57.6,38.016 H 414.72 V 304.128 H 57.6 Z"
         id="path20" /></clipPath><clipPath
       clipPathUnits="userSpaceOnUse"
       id="clipPath40"><path
         d="M 57.6,38.016 H 414.72 V 304.128 H 57.6 Z"
         id="path38" /></clipPath><clipPath
       clipPathUnits="userSpaceOnUse"
       id="clipPath58"><path
         d="M 57.6,38.016 H 414.72 V 304.128 H 57.6 Z"
         id="path56" /></clipPath><clipPath
       clipPathUnits="userSpaceOnUse"
       id="clipPath76"><path
         d="M 57.6,38.016 H 414.72 V 304.128 H 57.6 Z"
         id="path74" /></clipPath><clipPath
       clipPathUnits="userSpaceOnUse"
       id="clipPath94"><path
         d="M 57.6,38.016 H 414.72 V 304.128 H 57.6 Z"
         id="path92" /></clipPath><clipPath
       clipPathUnits="userSpaceOnUse"
       id="clipPath112"><path
         d="M 57.6,38.016 H 414.72 V 304.128 H 57.6 Z"
         id="path110" /></clipPath><clipPath
       clipPathUnits="userSpaceOnUse"
       id="clipPath130"><path
         d="M 57.6,38.016 H 414.72 V 304.128 H 57.6 Z"
         id="path128" /></clipPath><clipPath
       clipPathUnits="userSpaceOnUse"
       id="clipPath148"><path
         d="M 57.6,38.016 H 414.72 V 304.128 H 57.6 Z"
         id="path146" /></clipPath><clipPath
       clipPathUnits="userSpaceOnUse"
       id="clipPath170"><path
         d="M 57.6,38.016 H 414.72 V 304.128 H 57.6 Z"
         id="path168" /></clipPath><clipPath
       clipPathUnits="userSpaceOnUse"
       id="clipPath188"><path
         d="M 57.6,38.016 H 414.72 V 304.128 H 57.6 Z"
         id="path186" /></clipPath><clipPath
       clipPathUnits="userSpaceOnUse"
       id="clipPath206"><path
         d="M 57.6,38.016 H 414.72 V 304.128 H 57.6 Z"
         id="path204" /></clipPath><clipPath
       clipPathUnits="userSpaceOnUse"
       id="clipPath224"><path
         d="M 57.6,38.016 H 414.72 V 304.128 H 57.6 Z"
         id="path222" /></clipPath><clipPath
       clipPathUnits="userSpaceOnUse"
       id="clipPath242"><path
         d="M 57.6,38.016 H 414.72 V 304.128 H 57.6 Z"
         id="path240" /></clipPath><clipPath
       clipPathUnits="userSpaceOnUse"
       id="clipPath260"><path
         d="M 57.6,38.016 H 414.72 V 304.128 H 57.6 Z"
         id="path258" /></clipPath><clipPath
       clipPathUnits="userSpaceOnUse"
       id="clipPath282"><path
         d="M 57.6,38.016 H 414.72 V 304.128 H 57.6 Z"
         id="path280" /></clipPath><clipPath
       clipPathUnits="userSpaceOnUse"
       id="clipPath292"><path
         d="M 57.6,38.016 H 414.72 V 304.128 H 57.6 Z"
         id="path290" /></clipPath><clipPath
       clipPathUnits="userSpaceOnUse"
       id="clipPath302"><path
         d="M 57.6,38.016 H 414.72 V 304.128 H 57.6 Z"
         id="path300" /></clipPath><clipPath
       clipPathUnits="userSpaceOnUse"
       id="clipPath312"><path
         d="M 57.6,38.016 H 414.72 V 304.128 H 57.6 Z"
         id="path310" /></clipPath><clipPath
       clipPathUnits="userSpaceOnUse"
       id="clipPath322"><path
         d="M 57.6,38.016 H 414.72 V 304.128 H 57.6 Z"
         id="path320" /></clipPath></defs><sodipodi:namedview
     pagecolor="#ffffff"
     bordercolor="#666666"
     borderopacity="1"
     objecttolerance="10"
     gridtolerance="10"
     guidetolerance="10"
     inkscape:pageopacity="0"
     inkscape:pageshadow="2"
     inkscape:window-width="1920"
     inkscape:window-height="1020"
     id="namedview4"
     showgrid="false"
     fit-margin-top="0"
     fit-margin-left="0"
     fit-margin-right="0"
     fit-margin-bottom="0"
     units="mm"
     inkscape:zoom="3.7196182"
     inkscape:cx="153.08881"
     inkscape:cy="136.72151"
     inkscape:window-x="0"
     inkscape:window-y="0"
     inkscape:window-maximized="1"
     inkscape:current-layer="layer1" /><g
     id="g10"
     inkscape:groupmode="layer"
     inkscape:label="pearson_chr05"
     transform="matrix(1.3333333,0,0,-1.3333333,-28.023958,443.59358)"><path
       d="m 42.064417,299.74564 2.600747,-4.90543 2.600747,-2.60057 2.600747,-0.34576 2.600747,-0.58578 2.600746,0.20316 2.600748,0.1426 2.600746,-0.0192 2.600748,0.32176 2.600746,-0.86592 2.600745,-0.80983 2.600749,-0.0152 2.600749,-1.00021 2.600743,-0.61318 2.600749,-0.0536 2.600749,-1.47868 2.600744,-0.38327 2.600748,-0.12824 2.600743,-1.40894 2.60075,-0.77313 2.600748,-0.57353 2.600744,-0.99624 2.600748,0.16022 2.600752,-0.76653 2.60074,-2.36813 2.60075,0.93921 2.60074,0.28199 2.60075,0.3249 2.60075,-0.0854 2.60074,-1.74384 2.60076,0.56259 2.60074,-2.08306 2.60074,-0.37531 2.60076,-0.002 2.60074,-1.89443 2.60074,0.2544 2.60076,-0.94016 2.60074,0.27867 2.60075,-1.55063 2.60075,1.35233 2.60074,-1.3331 2.60075,-1.7847 2.60075,-0.17889 2.60074,-0.41184 2.60075,2.74698 2.60075,-1.69086 2.60074,0.68151 2.60075,-1.19126 2.60075,-1.39961 2.60074,1.84107 2.60075,-3.80717 2.60075,1.08343 2.60074,-3.4389 2.60074,-0.6327 2.60076,-1.44882 2.60075,-1.42349 2.60074,-0.77242 2.60075,1.24025 2.60075,-3.87611 2.60074,1.48791 2.60075,-3.202 2.60075,3.28127 2.60074,-0.96711 2.60075,1.72298 2.60074,-0.96972 2.60075,-0.26176 2.60075,0.36489 2.60074,-0.4659 2.60075,1.26394 2.60075,-1.54029 2.60074,-0.82947 2.60075,-0.0178 2.60076,-3.66532 2.60074,1.10024 2.60074,0.38265 2.60075,-2.77767 2.60075,-2.76318 2.60074,4.42979 2.60075,-3.28933 2.60075,-1.17111"
       style="fill:none;stroke:#d62728;stroke-width:0.862983;stroke-linecap:square;stroke-linejoin:round;stroke-miterlimit:10;stroke-dasharray:none;stroke-opacity:1"
       id="path324" /><g
       id="g16"
       transform="matrix(0.57532203,0,0,0.57532203,8.9258686,142.00122)"><g
         id="g18"
         clip-path="url(#clipPath22)"><path
           d="M 57.6,38.016 V 304.128"
           style="fill:none;stroke:#b0b0b0;stroke-width:0.8;stroke-linecap:square;stroke-linejoin:round;stroke-miterlimit:10;stroke-dasharray:none;stroke-opacity:1"
           id="path24" /></g></g><path
       d="m 42.064417,163.87266 v -2.01362"
       style="fill:#000000;fill-opacity:1;fill-rule:nonzero;stroke:#000000;stroke-width:0.460258;stroke-linecap:butt;stroke-linejoin:round;stroke-miterlimit:10;stroke-dasharray:none;stroke-opacity:1"
       id="path28" /><g
       id="g34"
       transform="matrix(0.57532203,0,0,0.57532203,8.9258686,142.00122)"><g
         id="g36"
         clip-path="url(#clipPath40)"><path
           d="M 102.80506,38.016 V 304.128"
           style="fill:none;stroke:#b0b0b0;stroke-width:0.8;stroke-linecap:square;stroke-linejoin:round;stroke-miterlimit:10;stroke-dasharray:none;stroke-opacity:1"
           id="path42" /></g></g><path
       d="m 68.071884,163.87266 v -2.01362"
       style="fill:#000000;fill-opacity:1;fill-rule:nonzero;stroke:#000000;stroke-width:0.460258;stroke-linecap:butt;stroke-linejoin:round;stroke-miterlimit:10;stroke-dasharray:none;stroke-opacity:1"
       id="path46" /><g
       id="g52"
       transform="matrix(0.57532203,0,0,0.57532203,8.9258686,142.00122)"><g
         id="g54"
         clip-path="url(#clipPath58)"><path
           d="M 148.01013,38.016 V 304.128"
           style="fill:none;stroke:#b0b0b0;stroke-width:0.8;stroke-linecap:square;stroke-linejoin:round;stroke-miterlimit:10;stroke-dasharray:none;stroke-opacity:1"
           id="path60" /></g></g><path
       d="m 94.079356,163.87266 v -2.01362"
       style="fill:#000000;fill-opacity:1;fill-rule:nonzero;stroke:#000000;stroke-width:0.460258;stroke-linecap:butt;stroke-linejoin:round;stroke-miterlimit:10;stroke-dasharray:none;stroke-opacity:1"
       id="path64" /><g
       id="g70"
       transform="matrix(0.57532203,0,0,0.57532203,8.9258686,142.00122)"><g
         id="g72"
         clip-path="url(#clipPath76)"><path
           d="M 193.21519,38.016 V 304.128"
           style="fill:none;stroke:#b0b0b0;stroke-width:0.8;stroke-linecap:square;stroke-linejoin:round;stroke-miterlimit:10;stroke-dasharray:none;stroke-opacity:1"
           id="path78" /></g></g><path
       d="m 120.08683,163.87266 v -2.01362"
       style="fill:#000000;fill-opacity:1;fill-rule:nonzero;stroke:#000000;stroke-width:0.460258;stroke-linecap:butt;stroke-linejoin:round;stroke-miterlimit:10;stroke-dasharray:none;stroke-opacity:1"
       id="path82" /><g
       id="g88"
       transform="matrix(0.57532203,0,0,0.57532203,8.9258686,142.00122)"><g
         id="g90"
         clip-path="url(#clipPath94)"><path
           d="M 238.42025,38.016 V 304.128"
           style="fill:none;stroke:#b0b0b0;stroke-width:0.8;stroke-linecap:square;stroke-linejoin:round;stroke-miterlimit:10;stroke-dasharray:none;stroke-opacity:1"
           id="path96" /></g></g><path
       d="m 146.09429,163.87266 v -2.01362"
       style="fill:#000000;fill-opacity:1;fill-rule:nonzero;stroke:#000000;stroke-width:0.460258;stroke-linecap:butt;stroke-linejoin:round;stroke-miterlimit:10;stroke-dasharray:none;stroke-opacity:1"
       id="path100" /><g
       id="g106"
       transform="matrix(0.57532203,0,0,0.57532203,8.9258686,142.00122)"><g
         id="g108"
         clip-path="url(#clipPath112)"><path
           d="M 283.62532,38.016 V 304.128"
           style="fill:none;stroke:#b0b0b0;stroke-width:0.8;stroke-linecap:square;stroke-linejoin:round;stroke-miterlimit:10;stroke-dasharray:none;stroke-opacity:1"
           id="path114" /></g></g><path
       d="m 172.10176,163.87266 v -2.01362"
       style="fill:#000000;fill-opacity:1;fill-rule:nonzero;stroke:#000000;stroke-width:0.460258;stroke-linecap:butt;stroke-linejoin:round;stroke-miterlimit:10;stroke-dasharray:none;stroke-opacity:1"
       id="path118" /><g
       id="g124"
       transform="matrix(0.57532203,0,0,0.57532203,8.9258686,142.00122)"><g
         id="g126"
         clip-path="url(#clipPath130)"><path
           d="M 328.83038,38.016 V 304.128"
           style="fill:none;stroke:#b0b0b0;stroke-width:0.8;stroke-linecap:square;stroke-linejoin:round;stroke-miterlimit:10;stroke-dasharray:none;stroke-opacity:1"
           id="path132" /></g></g><path
       d="m 198.10923,163.87266 v -2.01362"
       style="fill:#000000;fill-opacity:1;fill-rule:nonzero;stroke:#000000;stroke-width:0.460258;stroke-linecap:butt;stroke-linejoin:round;stroke-miterlimit:10;stroke-dasharray:none;stroke-opacity:1"
       id="path136" /><g
       id="g142"
       transform="matrix(0.57532203,0,0,0.57532203,8.9258686,142.00122)"><g
         id="g144"
         clip-path="url(#clipPath148)"><path
           d="M 374.03544,38.016 V 304.128"
           style="fill:none;stroke:#b0b0b0;stroke-width:0.8;stroke-linecap:square;stroke-linejoin:round;stroke-miterlimit:10;stroke-dasharray:none;stroke-opacity:1"
           id="path150" /></g></g><path
       d="m 224.11669,163.87266 v -2.01362"
       style="fill:#000000;fill-opacity:1;fill-rule:nonzero;stroke:#000000;stroke-width:0.460258;stroke-linecap:butt;stroke-linejoin:round;stroke-miterlimit:10;stroke-dasharray:none;stroke-opacity:1"
       id="path154" /><g
       id="g164"
       transform="matrix(0.57532203,0,0,0.57532203,8.9258686,142.00122)"><g
         id="g166"
         clip-path="url(#clipPath170)"><path
           d="M 57.6,38.016 H 414.72"
           style="fill:none;stroke:#b0b0b0;stroke-width:0.8;stroke-linecap:square;stroke-linejoin:round;stroke-miterlimit:10;stroke-dasharray:none;stroke-opacity:1"
           id="path172" /></g></g><path
       d="M 42.064417,163.87266 H 40.05079"
       style="fill:#000000;fill-opacity:1;fill-rule:nonzero;stroke:#000000;stroke-width:0.460258;stroke-linecap:butt;stroke-linejoin:round;stroke-miterlimit:10;stroke-dasharray:none;stroke-opacity:1"
       id="path176" /><g
       id="g182"
       transform="matrix(0.57532203,0,0,0.57532203,8.9258686,142.00122)"><g
         id="g184"
         clip-path="url(#clipPath188)"><path
           d="M 57.6,91.2384 H 414.72"
           style="fill:none;stroke:#b0b0b0;stroke-width:0.8;stroke-linecap:square;stroke-linejoin:round;stroke-miterlimit:10;stroke-dasharray:none;stroke-opacity:1"
           id="path190" /></g></g><path
       d="M 42.064417,194.49268 H 40.05079"
       style="fill:#000000;fill-opacity:1;fill-rule:nonzero;stroke:#000000;stroke-width:0.460258;stroke-linecap:butt;stroke-linejoin:round;stroke-miterlimit:10;stroke-dasharray:none;stroke-opacity:1"
       id="path194" /><g
       id="g200"
       transform="matrix(0.57532203,0,0,0.57532203,8.9258686,142.00122)"><g
         id="g202"
         clip-path="url(#clipPath206)"><path
           d="M 57.6,144.4608 H 414.72"
           style="fill:none;stroke:#b0b0b0;stroke-width:0.8;stroke-linecap:square;stroke-linejoin:round;stroke-miterlimit:10;stroke-dasharray:none;stroke-opacity:1"
           id="path208" /></g></g><path
       d="M 42.064417,225.11271 H 40.05079"
       style="fill:#000000;fill-opacity:1;fill-rule:nonzero;stroke:#000000;stroke-width:0.460258;stroke-linecap:butt;stroke-linejoin:round;stroke-miterlimit:10;stroke-dasharray:none;stroke-opacity:1"
       id="path212" /><g
       id="g218"
       transform="matrix(0.57532203,0,0,0.57532203,8.9258686,142.00122)"><g
         id="g220"
         clip-path="url(#clipPath224)"><path
           d="M 57.6,197.6832 H 414.72"
           style="fill:none;stroke:#b0b0b0;stroke-width:0.8;stroke-linecap:square;stroke-linejoin:round;stroke-miterlimit:10;stroke-dasharray:none;stroke-opacity:1"
           id="path226" /></g></g><path
       d="M 42.064417,255.73272 H 40.05079"
       style="fill:#000000;fill-opacity:1;fill-rule:nonzero;stroke:#000000;stroke-width:0.460258;stroke-linecap:butt;stroke-linejoin:round;stroke-miterlimit:10;stroke-dasharray:none;stroke-opacity:1"
       id="path230" /><g
       id="g236"
       transform="matrix(0.57532203,0,0,0.57532203,8.9258686,142.00122)"><g
         id="g238"
         clip-path="url(#clipPath242)"><path
           d="M 57.6,250.9056 H 414.72"
           style="fill:none;stroke:#b0b0b0;stroke-width:0.8;stroke-linecap:square;stroke-linejoin:round;stroke-miterlimit:10;stroke-dasharray:none;stroke-opacity:1"
           id="path244" /></g></g><path
       d="M 42.064417,286.35274 H 40.05079"
       style="fill:#000000;fill-opacity:1;fill-rule:nonzero;stroke:#000000;stroke-width:0.460258;stroke-linecap:butt;stroke-linejoin:round;stroke-miterlimit:10;stroke-dasharray:none;stroke-opacity:1"
       id="path248" /><g
       id="g254"
       transform="matrix(0.57532203,0,0,0.57532203,8.9258686,142.00122)"><g
         id="g256"
         clip-path="url(#clipPath260)"><path
           d="M 57.6,304.128 H 414.72"
           style="fill:none;stroke:#b0b0b0;stroke-width:0.8;stroke-linecap:square;stroke-linejoin:round;stroke-miterlimit:10;stroke-dasharray:none;stroke-opacity:1"
           id="path262" /></g></g><path
       d="M 42.064417,316.97276 H 40.05079"
       style="fill:#000000;fill-opacity:1;fill-rule:nonzero;stroke:#000000;stroke-width:0.460258;stroke-linecap:butt;stroke-linejoin:round;stroke-miterlimit:10;stroke-dasharray:none;stroke-opacity:1"
       id="path266" /><path
       d="m 42.064417,275.68446 2.600747,9.18169 2.600747,-3.04312 2.600747,-4.76793 2.600747,-3.93229 2.600746,-4.06017 2.600748,-2.55387 2.600746,-2.68767 2.600748,-3.75903 2.600746,-0.68389 2.600745,-2.0927 2.600749,-4.06055 2.600749,-1.83429 2.600743,-3.42166 2.600749,-3.61061 2.600749,-2.7104 2.600744,-1.67322 2.600748,-1.30687 2.600743,-0.69395 2.60075,-1.03761 2.600748,-1.91405 2.600744,-2.40245 2.600748,-1.4885 2.600752,-1.78221 2.60074,-1.43521 2.60075,-1.93388 2.60074,-2.77371 2.60075,-0.11378 2.60075,-2.23402 2.60074,-0.96957 2.60076,-1.99069 2.60074,-0.9299 2.60074,-1.25535 2.60076,-2.16439 2.60074,-1.31395 2.60074,0.0399 2.60076,-2.45441 2.60074,1.36295 2.60075,-1.03366 2.60075,-0.004 2.60074,-3.34682 2.60075,0.68697 2.60075,-0.0396 2.60074,-0.94533 2.60075,-0.98798 2.60075,0.66168 2.60074,-1.0076 2.60075,-2.27829 2.60075,1.65654 2.60074,-2.50137 2.60075,-0.40235 2.60075,0.0593 2.60074,0.091 2.60074,0.70155 2.60076,-0.15507 2.60075,0.65956 2.60074,-0.80279 2.60075,-0.43509 2.60075,-0.6285 2.60074,1.42988 2.60075,-0.55865 2.60075,-1.98705 2.60074,0.45691 2.60075,-0.60466 2.60074,1.38226 2.60075,0.63244 2.60075,-0.60613 2.60074,-1.6934 2.60075,0.0862 2.60075,-1.52942 2.60074,0.0324 2.60075,2.8807 2.60076,-1.51565 2.60074,2.32869 2.60074,-1.61722 2.60075,-0.31528 2.60075,0.49526 2.60074,0.29301 2.60075,0.83193 2.60075,-3.32537"
       style="fill:none;stroke:#1f77b4;stroke-width:0.862983;stroke-linecap:square;stroke-linejoin:round;stroke-miterlimit:10;stroke-dasharray:none;stroke-opacity:1"
       id="path284" /><path
       d="m 42.064417,278.64582 2.600747,8.53512 2.600747,-3.3079 2.600747,-4.93303 2.600747,-3.84297 2.600746,-3.91868 2.600748,-2.49378 2.600746,-2.70087 2.600748,-3.8129 2.600746,-0.70442 2.600745,-1.96839 2.600749,-4.09908 2.600749,-1.7726 2.600743,-3.2777 2.600749,-3.59018 2.600749,-2.70734 2.600744,-1.72349 2.600748,-1.37019 2.600743,-0.75632 2.60075,-0.93621 2.600748,-1.96382 2.600744,-2.6228 2.600748,-1.56178 2.600752,-1.76981 2.60074,-1.49732 2.60075,-2.05489 2.60074,-3.09231 2.60075,-0.0314 2.60075,-2.65657 2.60074,-0.79384 2.60076,-2.11504 2.60074,-1.0192 2.60074,-1.08972 2.60076,-2.12619 2.60074,-1.05135 2.60074,-0.10388 2.60076,-2.49541 2.60074,1.50453 2.60075,-0.9285 2.60075,0.12017 2.60074,-3.3376 2.60075,0.80581 2.60075,0.11606 2.60074,-1.01009 2.60075,-1.02478 2.60075,0.8804 2.60074,-1.36149 2.60075,-1.88518 2.60075,1.56654 2.60074,-2.42064 2.60075,-0.5383 2.60075,-0.25925 2.60074,0.70599 2.60074,0.17078 2.60076,-0.17636 2.60075,0.64138 2.60074,-0.98521 2.60075,-0.0662 2.60075,-0.37276 2.60074,1.37355 2.60075,-0.9243 2.60075,-1.67607 2.60074,0.0744 2.60075,-0.109 2.60074,1.13425 2.60075,0.38302 2.60075,-0.50063 2.60074,-0.9202 2.60075,0.0537 2.60075,-2.14651 2.60074,0.76028 2.60075,1.50611 2.60076,-0.8118 2.60074,2.06184 2.60074,-1.56895 2.60075,-0.55566 2.60075,1.07974 2.60074,-0.66334 2.60075,0.37865 2.60075,-2.68974"
       style="fill:none;stroke:#ff7f0e;stroke-width:0.862983;stroke-linecap:square;stroke-linejoin:round;stroke-miterlimit:10;stroke-dasharray:none;stroke-opacity:1"
       id="path294" /><path
       d="m 42.064417,278.73985 2.600747,8.61195 2.600747,-3.37028 2.600747,-4.97013 2.600747,-3.81112 2.600746,-3.68616 2.600748,-2.44087 2.600746,-2.88554 2.600748,-3.84346 2.600746,-0.68299 2.600745,-1.977 2.600749,-4.01833 2.600749,-1.72768 2.600743,-3.10043 2.600749,-3.53233 2.600749,-2.73675 2.600744,-1.73619 2.600748,-1.34764 2.600743,-0.75849 2.60075,-1.16446 2.600748,-2.12069 2.600744,-2.62515 2.600748,-1.63945 2.600752,-1.39487 2.60074,-1.47337 2.60075,-2.19654 2.60074,-3.18738 2.60075,0.0953 2.60075,-2.73576 2.60074,-1.0489 2.60076,-1.89148 2.60074,-0.98806 2.60074,-1.05155 2.60076,-2.07023 2.60074,-0.77308 2.60074,-0.0922 2.60076,-2.57805 2.60074,1.56059 2.60075,-0.65619 2.60075,-0.1073 2.60074,-3.1995 2.60075,0.67824 2.60075,0.15421 2.60074,-0.83053 2.60075,-1.11999 2.60075,0.90918 2.60074,-1.47107 2.60075,-2.06429 2.60075,1.56715 2.60074,-2.46626 2.60075,-0.3413 2.60075,-0.42054 2.60074,0.19281 2.60074,0.27721 2.60076,0.004 2.60075,0.48711 2.60074,-1.19849 2.60075,-0.0969 2.60075,-0.47025 2.60074,1.31437 2.60075,-1.00983 2.60075,-1.50066 2.60074,0.24137 2.60075,-0.16073 2.60074,0.9767 2.60075,0.50606 2.60075,-1.25032 2.60074,-0.86954 2.60075,0.0192 2.60075,-2.40938 2.60074,0.85773 2.60075,1.30905 2.60076,-1.07391 2.60074,2.70977 2.60074,-1.88486 2.60075,-0.48773 2.60075,1.71906 2.60074,-1.81679 2.60075,1.15386 2.60075,-1.7937"
       style="fill:none;stroke:#2ca02c;stroke-width:0.862983;stroke-linecap:square;stroke-linejoin:round;stroke-miterlimit:10;stroke-dasharray:none;stroke-opacity:1"
       id="path304" /><path
       d="m 42.064417,292.71128 2.600747,2.80374 2.600747,-5.41476 2.600747,-5.46727 2.600747,-4.09624 2.600746,-2.97697 2.600748,-2.00326 2.600746,-3.21413 2.600748,-3.24951 2.600746,0.68758 2.600745,-1.07832 2.600749,-2.92141 2.600749,-0.73243 2.600743,-2.31088 2.600749,-2.88767 2.600749,-2.5997 2.600744,-0.7495 2.600748,-0.82605 2.600743,-0.17922 2.60075,-0.50221 2.600748,-1.27144 2.600744,-1.26557 2.600748,-1.20388 2.600752,0.53466 2.60074,-1.08825 2.60075,-0.94218 2.60074,-2.74426 2.60075,1.52127 2.60075,-2.99111 2.60074,-0.23139 2.60076,-0.41464 2.60074,-0.60983 2.60074,-0.27122 2.60076,-1.25963 2.60074,-1.53607 2.60074,-0.24993 2.60076,-1.2626 2.60074,1.7622 2.60075,-1.25815 2.60075,-0.72996 2.60074,-2.48053 2.60075,-0.5735 2.60075,2.46472 2.60074,-2.12656 2.60075,-1.02425 2.60075,1.04901 2.60074,-0.15221 2.60075,-1.9085 2.60075,2.56473 2.60074,-2.99956 2.60075,-0.80405 2.60075,1.95015 2.60074,0.39563 2.60074,-0.0735 2.60076,1.20966 2.60075,0.45597 2.60074,-2.10282 2.60075,-1.55253 2.60075,-0.19354 2.60074,2.44212 2.60075,-0.97348 2.60075,-0.63884 2.60074,0.82264 2.60075,0.98761 2.60074,0.1161 2.60075,0.43166 2.60075,-1.59582 2.60074,1.19246 2.60075,-0.17086 2.60075,-1.29378 2.60074,1.29037 2.60075,1.2936 2.60076,-0.91412 2.60074,-0.13381 2.60074,-2.04292 2.60075,-1.45643 2.60075,2.13527 2.60074,-3.81702 2.60075,-1.18126 2.60075,-1.38515"
       style="fill:none;stroke:#9467bd;stroke-width:0.862983;stroke-linecap:square;stroke-linejoin:round;stroke-miterlimit:10;stroke-dasharray:none;stroke-opacity:1"
       id="path314" /><path
       d="m 42.064417,163.87266 v 153.1001"
       style="fill:none;stroke:#000000;stroke-width:0.460258;stroke-linecap:square;stroke-linejoin:miter;stroke-miterlimit:10;stroke-dasharray:none;stroke-opacity:1"
       id="path328" /><path
       d="m 247.52342,163.87266 v 153.1001"
       style="fill:none;stroke:#000000;stroke-width:0.460258;stroke-linecap:square;stroke-linejoin:miter;stroke-miterlimit:10;stroke-dasharray:none;stroke-opacity:1"
       id="path330" /><path
       d="M 42.064417,163.87266 H 247.52342"
       style="fill:none;stroke:#000000;stroke-width:0.460258;stroke-linecap:square;stroke-linejoin:miter;stroke-miterlimit:10;stroke-dasharray:none;stroke-opacity:1"
       id="path332" /><path
       d="M 42.064417,316.97276 H 247.52342"
       style="fill:none;stroke:#000000;stroke-width:0.460258;stroke-linecap:square;stroke-linejoin:miter;stroke-miterlimit:10;stroke-dasharray:none;stroke-opacity:1"
       id="path334" /><path
       d="M 48.68459,189.37255 H 60.19103"
       style="fill:none;stroke:#1f77b4;stroke-width:0.862983;stroke-linecap:square;stroke-linejoin:round;stroke-miterlimit:10;stroke-dasharray:none;stroke-opacity:1"
       id="path344" /><path
       d="M 48.68459,180.9315 H 60.19103"
       style="fill:none;stroke:#ff7f0e;stroke-width:0.862983;stroke-linecap:square;stroke-linejoin:round;stroke-miterlimit:10;stroke-dasharray:none;stroke-opacity:1"
       id="path350" /><path
       d="M 48.68459,172.49045 H 60.19103"
       style="fill:none;stroke:#2ca02c;stroke-width:0.862983;stroke-linecap:square;stroke-linejoin:round;stroke-miterlimit:10;stroke-dasharray:none;stroke-opacity:1"
       id="path356" /><path
       d="M 104.77676,305.1503 H 116.2832"
       style="fill:none;stroke:#9467bd;stroke-width:0.862983;stroke-linecap:square;stroke-linejoin:round;stroke-miterlimit:10;stroke-dasharray:none;stroke-opacity:1"
       id="path362" /><path
       d="M 104.77676,296.70925 H 116.2832"
       style="fill:none;stroke:#d62728;stroke-width:0.862983;stroke-linecap:square;stroke-linejoin:round;stroke-miterlimit:10;stroke-dasharray:none;stroke-opacity:1"
       id="path368" /></g><g
     inkscape:groupmode="layer"
     id="layer1"
     inkscape:label="text"
     transform="translate(-28.023958,-17.206424)"
     style="display:inline"><text
       style="font-variant:normal;font-weight:normal;font-size:7.67096px;font-family:'DejaVu Sans';-inkscape-font-specification:DejaVuSans;writing-mode:lr-tb;fill:#000000;fill-opacity:1;fill-rule:nonzero;stroke:none;stroke-width:0.767096"
       id="text32"
       x="53.545952"
       y="253.498"><tspan
         x="53.545952 58.424683 60.864048 65.742783"
         y="253.498"
         sodipodi:role="line"
         id="tspan30"
         style="stroke-width:0.767096">0.00</tspan></text><text
       style="font-variant:normal;font-weight:normal;font-size:7.67096px;font-family:'DejaVu Sans';-inkscape-font-specification:DejaVuSans;writing-mode:lr-tb;fill:#000000;fill-opacity:1;fill-rule:nonzero;stroke:none;stroke-width:0.767096"
       id="text50"
       x="82.22258"
       y="253.498"><tspan
         x="82.22258 87.101311 89.540672 94.419403"
         y="253.498"
         sodipodi:role="line"
         id="tspan48"
         style="stroke-width:0.767096">0.25</tspan></text><text
       style="font-variant:normal;font-weight:normal;font-size:7.67096px;font-family:'DejaVu Sans';-inkscape-font-specification:DejaVuSans;writing-mode:lr-tb;fill:#000000;fill-opacity:1;fill-rule:nonzero;stroke:none;stroke-width:0.767096"
       id="text68"
       x="116.89919"
       y="253.498"><tspan
         x="116.89919 121.77792 124.2173 129.09602"
         y="253.498"
         sodipodi:role="line"
         id="tspan66"
         style="stroke-width:0.767096">0.50</tspan></text><text
       style="font-variant:normal;font-weight:normal;font-size:7.67096px;font-family:'DejaVu Sans';-inkscape-font-specification:DejaVuSans;writing-mode:lr-tb;fill:#000000;fill-opacity:1;fill-rule:nonzero;stroke:none;stroke-width:0.767096"
       id="text86"
       x="151.57584"
       y="253.498"><tspan
         x="151.57584 156.45456 158.89392 163.77264"
         y="253.498"
         sodipodi:role="line"
         id="tspan84"
         style="stroke-width:0.767096">0.75</tspan></text><text
       style="font-variant:normal;font-weight:normal;font-size:7.67096px;font-family:'DejaVu Sans';-inkscape-font-specification:DejaVuSans;writing-mode:lr-tb;fill:#000000;fill-opacity:1;fill-rule:nonzero;stroke:none;stroke-width:0.767096"
       id="text104"
       x="186.25246"
       y="253.498"><tspan
         x="186.25246 191.1312 193.57054 198.44926"
         y="253.498"
         sodipodi:role="line"
         id="tspan102"
         style="stroke-width:0.767096">1.00</tspan></text><text
       style="font-variant:normal;font-weight:normal;font-size:7.67096px;font-family:'DejaVu Sans';-inkscape-font-specification:DejaVuSans;writing-mode:lr-tb;fill:#000000;fill-opacity:1;fill-rule:nonzero;stroke:none;stroke-width:0.767096"
       id="text122"
       x="220.92908"
       y="253.498"><tspan
         x="220.92908 225.80782 228.24716 233.12589"
         y="253.498"
         sodipodi:role="line"
         id="tspan120"
         style="stroke-width:0.767096">1.25</tspan></text><text
       style="font-variant:normal;font-weight:normal;font-size:7.67096px;font-family:'DejaVu Sans';-inkscape-font-specification:DejaVuSans;writing-mode:lr-tb;fill:#000000;fill-opacity:1;fill-rule:nonzero;stroke:none;stroke-width:0.767096"
       id="text140"
       x="255.6057"
       y="253.498"><tspan
         x="255.6057 260.48441 262.9238 267.80252"
         y="253.498"
         sodipodi:role="line"
         id="tspan138"
         style="stroke-width:0.767096">1.50</tspan></text><text
       style="font-variant:normal;font-weight:normal;font-size:7.67096px;font-family:'DejaVu Sans';-inkscape-font-specification:DejaVuSans;writing-mode:lr-tb;fill:#000000;fill-opacity:1;fill-rule:nonzero;stroke:none;stroke-width:0.767096"
       id="text158"
       x="290.28232"
       y="253.498"><tspan
         x="290.28232 295.16107 297.6004 302.47916"
         y="253.498"
         sodipodi:role="line"
         id="tspan156"
         style="stroke-width:0.767096">1.75</tspan></text><text
       style="font-variant:normal;font-weight:normal;font-size:7.67096px;font-family:'DejaVu Sans';-inkscape-font-specification:DejaVuSans;writing-mode:lr-tb;fill:#000000;fill-opacity:1;fill-rule:nonzero;stroke:none;stroke-width:0.767096"
       id="text162"
       x="146.63127"
       y="263.98547"><tspan
         x="146.63127 152.57626 157.29388 162.15729 166.85193 174.32343 176.45596 180.67499 183.11435 187.98541 190.11794 194.1145 197.12152 201.82382 206.68721 210.90625 215.62389 218.06325 220.64835 223.08772 229.70775 234.57883"
         y="263.98547"
         sodipodi:role="line"
         id="tspan160"
         style="stroke-width:0.767096">Genomic distance / Mbp</tspan></text><text
       style="font-variant:normal;font-weight:normal;font-size:7.67096px;font-family:'DejaVu Sans';-inkscape-font-specification:DejaVuSans;writing-mode:lr-tb;fill:#000000;fill-opacity:1;fill-rule:nonzero;stroke:none;stroke-width:0.767096"
       id="text180"
       x="38.514595"
       y="245.21576"><tspan
         x="38.514595 43.393326 45.832691"
         y="245.21576"
         sodipodi:role="line"
         id="tspan178"
         style="stroke-width:0.767096">0.0</tspan></text><text
       style="font-variant:normal;font-weight:normal;font-size:7.67096px;font-family:'DejaVu Sans';-inkscape-font-specification:DejaVuSans;writing-mode:lr-tb;fill:#000000;fill-opacity:1;fill-rule:nonzero;stroke:none;stroke-width:0.767096"
       id="text198"
       x="38.514595"
       y="204.38907"><tspan
         x="38.514595 43.393326 45.832691"
         y="204.38907"
         sodipodi:role="line"
         id="tspan196"
         style="stroke-width:0.767096">0.2</tspan></text><text
       style="font-variant:normal;font-weight:normal;font-size:7.67096px;font-family:'DejaVu Sans';-inkscape-font-specification:DejaVuSans;writing-mode:lr-tb;fill:#000000;fill-opacity:1;fill-rule:nonzero;stroke:none;stroke-width:0.767096"
       id="text216"
       x="38.514595"
       y="163.56238"><tspan
         x="38.514595 43.393326 45.832691"
         y="163.56238"
         sodipodi:role="line"
         id="tspan214"
         style="stroke-width:0.767096">0.4</tspan></text><text
       style="font-variant:normal;font-weight:normal;font-size:7.67096px;font-family:'DejaVu Sans';-inkscape-font-specification:DejaVuSans;writing-mode:lr-tb;fill:#000000;fill-opacity:1;fill-rule:nonzero;stroke:none;stroke-width:0.767096"
       id="text234"
       x="38.514595"
       y="122.73557"><tspan
         x="38.514595 43.393326 45.832691"
         y="122.73557"
         sodipodi:role="line"
         id="tspan232"
         style="stroke-width:0.767096">0.6</tspan></text><text
       style="font-variant:normal;font-weight:normal;font-size:7.67096px;font-family:'DejaVu Sans';-inkscape-font-specification:DejaVuSans;writing-mode:lr-tb;fill:#000000;fill-opacity:1;fill-rule:nonzero;stroke:none;stroke-width:0.767096"
       id="text252"
       x="38.514595"
       y="81.90892"><tspan
         x="38.514595 43.393326 45.832691"
         y="81.90892"
         sodipodi:role="line"
         id="tspan250"
         style="stroke-width:0.767096">0.8</tspan></text><text
       style="font-variant:normal;font-weight:normal;font-size:7.67096px;font-family:'DejaVu Sans';-inkscape-font-specification:DejaVuSans;writing-mode:lr-tb;fill:#000000;fill-opacity:1;fill-rule:nonzero;stroke:none;stroke-width:0.767096"
       id="text270"
       x="38.514595"
       y="41.082268"><tspan
         x="38.514595 43.393326 45.832691"
         y="41.082268"
         sodipodi:role="line"
         id="tspan268"
         style="stroke-width:0.767096">1.0</tspan></text><text
       transform="rotate(-90)"
       style="font-variant:normal;font-weight:normal;font-size:7.67096px;font-family:'DejaVu Sans';-inkscape-font-specification:DejaVuSans;writing-mode:lr-tb;fill:#000000;fill-opacity:1;fill-rule:nonzero;stroke:none;stroke-width:0.767096"
       id="text274"
       x="-177.29678"
       y="33.852089"><tspan
         x="-177.29678 -172.6712 -167.95355 -163.25125 -160.0985 -156.10193 -151.40729 -146.54391 -144.10454 -139.88551 -135.19087 -132.03812 -128.88535 -124.16762 -122.0351 -117.3328 -114.32578 -112.19325 -107.49863"
         y="33.852089"
         sodipodi:role="line"
         id="tspan272"
         style="stroke-width:0.767096">Pearson correlation</tspan></text><text
       style="font-variant:normal;font-weight:normal;font-size:9.20515px;font-family:'DejaVu Sans';-inkscape-font-specification:DejaVuSans;writing-mode:lr-tb;fill:#000000;fill-opacity:1;fill-rule:nonzero;stroke:none;stroke-width:0.767096"
       id="text338"
       x="98.328186"
       y="23.249674"><tspan
         x="98.328186 103.87889 109.54006 115.18282 118.96613 123.76202 129.39558 135.23164 138.15887 143.22171 148.85527 152.6386 156.42191 162.08307 164.64211 170.28487 173.8933 176.45232 182.08586 187.92192 190.84918 196.29863 201.0945 204.02174 206.94899 212.79425 218.45543 224.29149 229.92503 238.89085 241.44989 246.51273 249.43997 255.28523 257.84427 262.64014 266.24857 271.8913 277.72739 282.79022"
         y="23.249674"
         sodipodi:role="line"
         id="tspan336"
         style="stroke-width:0.767096">Pearson correlation vs. genomic distance</tspan></text><text
       style="font-variant:normal;font-weight:normal;font-size:9.20515px;font-family:'DejaVu Sans';-inkscape-font-specification:DejaVuSans;writing-mode:lr-tb;fill:#000000;fill-opacity:1;fill-rule:nonzero;stroke:none;stroke-width:0.767096"
       id="text342"
       x="63.991337"
       y="33.567123"><tspan
         x="63.991337 71.125336 79.069382 84.923851 90.778328 96.632812 102.48728 108.34177 111.269 114.19624 120.05071 122.97797 128.83243 131.75969 137.61414 140.5414 146.39587 149.3231 155.17758 158.10481 163.95929 169.81377 172.74101 178.59547 184.44997 187.3772 193.23167 199.08615 202.01338 207.86786 213.72235 216.64958 222.50406 228.35855 231.28577 237.14026 242.99474 245.92197 251.77644 257.63092 260.55817 266.41266 272.26712 275.19437 280.82794 286.66397 289.59125 295.62979 301.48428 307.33875 313.19324 316.12048 319.0477"
         y="33.567123"
         sodipodi:role="line"
         id="tspan340"
         style="stroke-width:0.767096">GM12878, 1,2,4,7,9,11,13,14,16,17,18,20,22 on K562, 5</tspan></text><text
       style="font-variant:normal;font-weight:normal;font-size:7.67096px;font-family:'DejaVu Sans';-inkscape-font-specification:DejaVuSans;writing-mode:lr-tb;fill:#000000;fill-opacity:1;fill-rule:nonzero;stroke:none;stroke-width:0.767096"
       id="text348"
       x="87.047256"
       y="210.98813"><tspan
         sodipodi:role="line"
         id="tspan346"
         style="stroke-width:0.767096"
         x="87.047256"
         y="210.98813">25k+50k$\rightarrow$25k, 250ep / AUC: 0.369</tspan></text><text
       style="font-variant:normal;font-weight:normal;font-size:7.67096px;font-family:'DejaVu Sans';-inkscape-font-specification:DejaVuSans;writing-mode:lr-tb;fill:#000000;fill-opacity:1;fill-rule:nonzero;stroke:none;stroke-width:0.767096"
       id="text354"
       x="87.047256"
       y="222.24286"><tspan
         sodipodi:role="line"
         id="tspan352"
         style="stroke-width:0.767096"
         x="87.047256"
         y="222.24286">25k+50k$\rightarrow$25k, 500ep / AUC: 0.381</tspan></text><text
       style="font-variant:normal;font-weight:normal;font-size:7.67096px;font-family:'DejaVu Sans';-inkscape-font-specification:DejaVuSans;writing-mode:lr-tb;fill:#000000;fill-opacity:1;fill-rule:nonzero;stroke:none;stroke-width:0.767096"
       id="text360"
       x="87.047256"
       y="233.49756"><tspan
         sodipodi:role="line"
         id="tspan358"
         style="stroke-width:0.767096"
         x="87.047256"
         y="233.49756">25k+50k$\rightarrow$25k, 1000ep / AUC: 0.382</tspan></text><text
       style="font-variant:normal;font-weight:normal;font-size:7.67096px;font-family:'DejaVu Sans';-inkscape-font-specification:DejaVuSans;writing-mode:lr-tb;fill:#000000;fill-opacity:1;fill-rule:nonzero;stroke:none;stroke-width:0.767096"
       id="text366"
       x="161.83681"
       y="56.61776"><tspan
         x="161.83681 163.96935 168.83272 170.96524 173.97227 176.10481 180.8071 182.93961 185.37897 187.81836 192.69707 197.57582 202.45453 207.1722 212.04323 214.48262 217.06772 219.50708 224.75403 230.36917 235.72348 238.30859 240.74796 245.62671 248.06607 252.94479 257.82352"
         y="56.61776"
         sodipodi:role="line"
         id="tspan364"
         style="stroke-width:0.767096">initial, 500ep / AUC: 0.540</tspan></text><text
       style="font-variant:normal;font-weight:normal;font-size:7.67096px;font-family:'DejaVu Sans';-inkscape-font-specification:DejaVuSans;writing-mode:lr-tb;fill:#000000;fill-opacity:1;fill-rule:nonzero;stroke:none;stroke-width:0.767096"
       id="text372"
       x="161.83681"
       y="67.872475"><tspan
         x="161.83681 164.84383 167.9966 172.69888 177.56229 181.55887 184.25899 188.97668 192.12943 194.56879 200.51378 207.13382 212.01256 216.89127 221.77005 226.64874 231.52747 233.96686 236.55197 238.99133 244.23825 249.85339 255.20773 257.79285 260.23221 265.11093 267.55032 272.42902 277.30777"
         y="67.872475"
         sodipodi:role="line"
         id="tspan370"
         style="stroke-width:0.767096">transfer GM12878 / AUC: 0.719</tspan></text></g></svg>
