<?xml version="1.0" encoding="UTF-8" standalone="no"?>
<svg
   xmlns:dc="http://purl.org/dc/elements/1.1/"
   xmlns:cc="http://creativecommons.org/ns#"
   xmlns:rdf="http://www.w3.org/1999/02/22-rdf-syntax-ns#"
   xmlns:svg="http://www.w3.org/2000/svg"
   xmlns="http://www.w3.org/2000/svg"
   xmlns:sodipodi="http://sodipodi.sourceforge.net/DTD/sodipodi-0.dtd"
   xmlns:inkscape="http://www.inkscape.org/namespaces/inkscape"
   version="1.1"
   id="svg2"
   xml:space="preserve"
   width="80mm"
   height="65.300003mm"
   viewBox="0 0 302.36221 246.80316"
   sodipodi:docname="pearson_chr17_detail_25k.svg"
   inkscape:version="1.0.2 (1.0.2+r75+1)"><metadata
     id="metadata8"><rdf:RDF><cc:Work
         rdf:about=""><dc:format>image/svg+xml</dc:format><dc:type
           rdf:resource="http://purl.org/dc/dcmitype/StillImage" /><dc:title></dc:title></cc:Work></rdf:RDF></metadata><defs
     id="defs6"><clipPath
       clipPathUnits="userSpaceOnUse"
       id="clipPath22"><path
         d="M 57.6,38.016 H 414.72 V 304.128 H 57.6 Z"
         id="path20" /></clipPath><clipPath
       clipPathUnits="userSpaceOnUse"
       id="clipPath40"><path
         d="M 57.6,38.016 H 414.72 V 304.128 H 57.6 Z"
         id="path38" /></clipPath><clipPath
       clipPathUnits="userSpaceOnUse"
       id="clipPath58"><path
         d="M 57.6,38.016 H 414.72 V 304.128 H 57.6 Z"
         id="path56" /></clipPath><clipPath
       clipPathUnits="userSpaceOnUse"
       id="clipPath76"><path
         d="M 57.6,38.016 H 414.72 V 304.128 H 57.6 Z"
         id="path74" /></clipPath><clipPath
       clipPathUnits="userSpaceOnUse"
       id="clipPath94"><path
         d="M 57.6,38.016 H 414.72 V 304.128 H 57.6 Z"
         id="path92" /></clipPath><clipPath
       clipPathUnits="userSpaceOnUse"
       id="clipPath112"><path
         d="M 57.6,38.016 H 414.72 V 304.128 H 57.6 Z"
         id="path110" /></clipPath><clipPath
       clipPathUnits="userSpaceOnUse"
       id="clipPath134"><path
         d="M 57.6,38.016 H 414.72 V 304.128 H 57.6 Z"
         id="path132" /></clipPath><clipPath
       clipPathUnits="userSpaceOnUse"
       id="clipPath152"><path
         d="M 57.6,38.016 H 414.72 V 304.128 H 57.6 Z"
         id="path150" /></clipPath><clipPath
       clipPathUnits="userSpaceOnUse"
       id="clipPath170"><path
         d="M 57.6,38.016 H 414.72 V 304.128 H 57.6 Z"
         id="path168" /></clipPath><clipPath
       clipPathUnits="userSpaceOnUse"
       id="clipPath188"><path
         d="M 57.6,38.016 H 414.72 V 304.128 H 57.6 Z"
         id="path186" /></clipPath><clipPath
       clipPathUnits="userSpaceOnUse"
       id="clipPath206"><path
         d="M 57.6,38.016 H 414.72 V 304.128 H 57.6 Z"
         id="path204" /></clipPath><clipPath
       clipPathUnits="userSpaceOnUse"
       id="clipPath224"><path
         d="M 57.6,38.016 H 414.72 V 304.128 H 57.6 Z"
         id="path222" /></clipPath><clipPath
       clipPathUnits="userSpaceOnUse"
       id="clipPath246"><path
         d="M 57.6,38.016 H 414.72 V 304.128 H 57.6 Z"
         id="path244" /></clipPath><clipPath
       clipPathUnits="userSpaceOnUse"
       id="clipPath256"><path
         d="M 57.6,38.016 H 414.72 V 304.128 H 57.6 Z"
         id="path254" /></clipPath><clipPath
       clipPathUnits="userSpaceOnUse"
       id="clipPath266"><path
         d="M 57.6,38.016 H 414.72 V 304.128 H 57.6 Z"
         id="path264" /></clipPath><clipPath
       clipPathUnits="userSpaceOnUse"
       id="clipPath276"><path
         d="M 57.6,38.016 H 414.72 V 304.128 H 57.6 Z"
         id="path274" /></clipPath><clipPath
       clipPathUnits="userSpaceOnUse"
       id="clipPath286"><path
         d="M 57.6,38.016 H 414.72 V 304.128 H 57.6 Z"
         id="path284" /></clipPath></defs><sodipodi:namedview
     pagecolor="#ffffff"
     bordercolor="#666666"
     borderopacity="1"
     objecttolerance="10"
     gridtolerance="10"
     guidetolerance="10"
     inkscape:pageopacity="0"
     inkscape:pageshadow="2"
     inkscape:window-width="1920"
     inkscape:window-height="1020"
     id="namedview4"
     showgrid="false"
     fit-margin-top="0"
     fit-margin-left="0"
     fit-margin-right="0"
     fit-margin-bottom="0"
     units="mm"
     inkscape:zoom="3.7196182"
     inkscape:cx="82.502353"
     inkscape:cy="175.98862"
     inkscape:window-x="0"
     inkscape:window-y="0"
     inkscape:window-maximized="1"
     inkscape:current-layer="layer1" /><g
     id="g10"
     inkscape:groupmode="layer"
     inkscape:label="pearson_chr17_detail_25k"
     transform="matrix(1.3333333,0,0,-1.3333333,-28.023958,443.59358)"><path
       d="M 47.237371,302.14772 H 58.741642"
       style="fill:none;stroke:#ff0000;stroke-width:0.862821;stroke-linecap:square;stroke-linejoin:round;stroke-miterlimit:10;stroke-dasharray:none;stroke-opacity:1"
       id="path332" /><g
       id="g16"
       transform="matrix(0.57521355,0,0,0.57521355,8.9281485,141.97961)"><g
         id="g18"
         clip-path="url(#clipPath22)"><path
           d="M 57.6,38.016 V 304.128"
           style="fill:none;stroke:#b0b0b0;stroke-width:0.8;stroke-linecap:square;stroke-linejoin:round;stroke-miterlimit:10;stroke-dasharray:none;stroke-opacity:1"
           id="path24" /></g></g><path
       d="m 42.060449,163.84693 v -2.01325"
       style="fill:#000000;fill-opacity:1;fill-rule:nonzero;stroke:#000000;stroke-width:0.460171;stroke-linecap:butt;stroke-linejoin:round;stroke-miterlimit:10;stroke-dasharray:none;stroke-opacity:1"
       id="path28" /><g
       id="g34"
       transform="matrix(0.57521355,0,0,0.57521355,8.9281485,141.97961)"><g
         id="g36"
         clip-path="url(#clipPath40)"><path
           d="M 129.024,38.016 V 304.128"
           style="fill:none;stroke:#b0b0b0;stroke-width:0.8;stroke-linecap:square;stroke-linejoin:round;stroke-miterlimit:10;stroke-dasharray:none;stroke-opacity:1"
           id="path42" /></g></g><path
       d="m 83.144502,163.84693 v -2.01325"
       style="fill:#000000;fill-opacity:1;fill-rule:nonzero;stroke:#000000;stroke-width:0.460171;stroke-linecap:butt;stroke-linejoin:round;stroke-miterlimit:10;stroke-dasharray:none;stroke-opacity:1"
       id="path46" /><g
       id="g52"
       transform="matrix(0.57521355,0,0,0.57521355,8.9281485,141.97961)"><g
         id="g54"
         clip-path="url(#clipPath58)"><path
           d="M 200.448,38.016 V 304.128"
           style="fill:none;stroke:#b0b0b0;stroke-width:0.8;stroke-linecap:square;stroke-linejoin:round;stroke-miterlimit:10;stroke-dasharray:none;stroke-opacity:1"
           id="path60" /></g></g><path
       d="m 124.22855,163.84693 v -2.01325"
       style="fill:#000000;fill-opacity:1;fill-rule:nonzero;stroke:#000000;stroke-width:0.460171;stroke-linecap:butt;stroke-linejoin:round;stroke-miterlimit:10;stroke-dasharray:none;stroke-opacity:1"
       id="path64" /><g
       id="g70"
       transform="matrix(0.57521355,0,0,0.57521355,8.9281485,141.97961)"><g
         id="g72"
         clip-path="url(#clipPath76)"><path
           d="M 271.872,38.016 V 304.128"
           style="fill:none;stroke:#b0b0b0;stroke-width:0.8;stroke-linecap:square;stroke-linejoin:round;stroke-miterlimit:10;stroke-dasharray:none;stroke-opacity:1"
           id="path78" /></g></g><path
       d="m 165.31261,163.84693 v -2.01325"
       style="fill:#000000;fill-opacity:1;fill-rule:nonzero;stroke:#000000;stroke-width:0.460171;stroke-linecap:butt;stroke-linejoin:round;stroke-miterlimit:10;stroke-dasharray:none;stroke-opacity:1"
       id="path82" /><g
       id="g88"
       transform="matrix(0.57521355,0,0,0.57521355,8.9281485,141.97961)"><g
         id="g90"
         clip-path="url(#clipPath94)"><path
           d="M 343.296,38.016 V 304.128"
           style="fill:none;stroke:#b0b0b0;stroke-width:0.8;stroke-linecap:square;stroke-linejoin:round;stroke-miterlimit:10;stroke-dasharray:none;stroke-opacity:1"
           id="path96" /></g></g><path
       d="m 206.39666,163.84693 v -2.01325"
       style="fill:#000000;fill-opacity:1;fill-rule:nonzero;stroke:#000000;stroke-width:0.460171;stroke-linecap:butt;stroke-linejoin:round;stroke-miterlimit:10;stroke-dasharray:none;stroke-opacity:1"
       id="path100" /><g
       id="g106"
       transform="matrix(0.57521355,0,0,0.57521355,8.9281485,141.97961)"><g
         id="g108"
         clip-path="url(#clipPath112)"><path
           d="M 414.72,38.016 V 304.128"
           style="fill:none;stroke:#b0b0b0;stroke-width:0.8;stroke-linecap:square;stroke-linejoin:round;stroke-miterlimit:10;stroke-dasharray:none;stroke-opacity:1"
           id="path114" /></g></g><path
       d="m 247.48071,163.84693 v -2.01325"
       style="fill:#000000;fill-opacity:1;fill-rule:nonzero;stroke:#000000;stroke-width:0.460171;stroke-linecap:butt;stroke-linejoin:round;stroke-miterlimit:10;stroke-dasharray:none;stroke-opacity:1"
       id="path118" /><path
       d="M 42.060449,177.7625 H 40.047202"
       style="fill:#000000;fill-opacity:1;fill-rule:nonzero;stroke:#000000;stroke-width:0.460171;stroke-linecap:butt;stroke-linejoin:round;stroke-miterlimit:10;stroke-dasharray:none;stroke-opacity:1"
       id="path140" /><g
       id="g146"
       transform="matrix(0.57521355,0,0,0.57521355,8.9281485,141.97961)"><g
         id="g148"
         clip-path="url(#clipPath152)"><path
           d="M 57.6,110.592 H 414.72"
           style="fill:none;stroke:#b0b0b0;stroke-width:0.8;stroke-linecap:square;stroke-linejoin:round;stroke-miterlimit:10;stroke-dasharray:none;stroke-opacity:1"
           id="path154" /></g></g><path
       d="M 42.060449,205.59362 H 40.047202"
       style="fill:#000000;fill-opacity:1;fill-rule:nonzero;stroke:#000000;stroke-width:0.460171;stroke-linecap:butt;stroke-linejoin:round;stroke-miterlimit:10;stroke-dasharray:none;stroke-opacity:1"
       id="path158" /><g
       id="g164"
       transform="matrix(0.57521355,0,0,0.57521355,8.9281485,141.97961)"><g
         id="g166"
         clip-path="url(#clipPath170)"><path
           d="M 57.6,158.976 H 414.72"
           style="fill:none;stroke:#b0b0b0;stroke-width:0.8;stroke-linecap:square;stroke-linejoin:round;stroke-miterlimit:10;stroke-dasharray:none;stroke-opacity:1"
           id="path172" /></g></g><path
       d="M 42.060449,233.42476 H 40.047202"
       style="fill:#000000;fill-opacity:1;fill-rule:nonzero;stroke:#000000;stroke-width:0.460171;stroke-linecap:butt;stroke-linejoin:round;stroke-miterlimit:10;stroke-dasharray:none;stroke-opacity:1"
       id="path176" /><g
       id="g182"
       transform="matrix(0.57521355,0,0,0.57521355,8.9281485,141.97961)"><g
         id="g184"
         clip-path="url(#clipPath188)"><path
           d="M 57.6,207.36 H 414.72"
           style="fill:none;stroke:#b0b0b0;stroke-width:0.8;stroke-linecap:square;stroke-linejoin:round;stroke-miterlimit:10;stroke-dasharray:none;stroke-opacity:1"
           id="path190" /></g></g><path
       d="M 42.060449,261.25589 H 40.047202"
       style="fill:#000000;fill-opacity:1;fill-rule:nonzero;stroke:#000000;stroke-width:0.460171;stroke-linecap:butt;stroke-linejoin:round;stroke-miterlimit:10;stroke-dasharray:none;stroke-opacity:1"
       id="path194" /><g
       id="g200"
       transform="matrix(0.57521355,0,0,0.57521355,8.9281485,141.97961)"><g
         id="g202"
         clip-path="url(#clipPath206)"><path
           d="M 57.6,255.744 H 414.72"
           style="fill:none;stroke:#b0b0b0;stroke-width:0.8;stroke-linecap:square;stroke-linejoin:round;stroke-miterlimit:10;stroke-dasharray:none;stroke-opacity:1"
           id="path208" /></g></g><path
       d="M 42.060449,289.08702 H 40.047202"
       style="fill:#000000;fill-opacity:1;fill-rule:nonzero;stroke:#000000;stroke-width:0.460171;stroke-linecap:butt;stroke-linejoin:round;stroke-miterlimit:10;stroke-dasharray:none;stroke-opacity:1"
       id="path212" /><g
       id="g218"
       transform="matrix(0.57521355,0,0,0.57521355,8.9281485,141.97961)"><g
         id="g220"
         clip-path="url(#clipPath224)"><path
           d="M 57.6,304.128 H 414.72"
           style="fill:none;stroke:#b0b0b0;stroke-width:0.8;stroke-linecap:square;stroke-linejoin:round;stroke-miterlimit:10;stroke-dasharray:none;stroke-opacity:1"
           id="path226" /></g></g><path
       d="M 42.060449,316.91816 H 40.047202"
       style="fill:#000000;fill-opacity:1;fill-rule:nonzero;stroke:#000000;stroke-width:0.460171;stroke-linecap:butt;stroke-linejoin:round;stroke-miterlimit:10;stroke-dasharray:none;stroke-opacity:1"
       id="path230" /><g
       id="g242"
       clip-path="url(#clipPath246)"
       transform="matrix(0.57521355,0,0,0.57521355,8.9281485,141.97961)"><path
         d="m 57.6,245.70532 8.928,-2.11554 8.928,-27.54205 8.928,-18.48385 8.928,-14.6797 8.928,-0.56767 8.928,-6.21493 8.928,-5.21347 8.928,-0.61673 8.928,-3.6007 8.928,-4.01687 8.928,-8.31116 8.928,-2.08552 8.928,1.77913 8.928,-9.90746 8.928,-4.05014 8.928,-6.32411 8.928,-5.85832 8.928,-12.09961 8.928,-6.56484 8.928,6.16424 8.928,-5.20011 8.928,0.21781 8.928,-3.84782 8.928,-10.075501 8.928,1.378342 8.928,-1.433367 8.928,-1.116157 8.928,-7.978535 8.928,9.522043 8.928,-3.387713 8.928,7.756988 8.928,-0.11243 8.928,-5.491728 8.928,-5.726021 8.928,-0.05771 8.928,0.210762 8.928,-3.46349 8.928,-6.995814 8.928,4.234601 8.928,-1.610397 8.928,0.527205 8.928,-2.993953 8.928,2.47384 8.928,4.896493 8.928,-5.076091 2.44,0.815199"
         style="fill:none;stroke:#0000ff;stroke-width:1.5;stroke-linecap:square;stroke-linejoin:round;stroke-miterlimit:10;stroke-dasharray:none;stroke-opacity:1"
         id="path248" /></g><g
       id="g252"
       clip-path="url(#clipPath256)"
       transform="matrix(0.57521355,0,0,0.57521355,8.9281485,141.97961)"><path
         d="m 57.6,230.82077 8.928,-6.43686 8.928,-19.70666 8.928,-7.85131 8.928,0.93307 8.928,6.35865 8.928,-3.13822 8.928,-1.06389 8.928,-2.4276 8.928,-9.56427 8.928,-1.11847 8.928,-7.11333 8.928,-1.62806 8.928,5.1538 8.928,-5.08883 8.928,4.49524 8.928,3.0401 8.928,0.26803 8.928,1.57296 8.928,0.85987 8.928,-1.39997 8.928,-8.22703 8.928,1.88072 8.928,-2.87012 8.928,-5.73247 8.928,1.81333 8.928,2.07723 8.928,-6.42279 8.928,-9.08526 8.928,5.89783 8.928,1.26358 8.928,0.59042 8.928,3.33282 8.928,-0.11816 8.928,-2.26336 8.928,-10.67686 8.928,-3.62035 8.928,-2.05985 8.928,-2.61669 8.928,3.22965 8.928,2.53311 8.928,1.43022 8.928,-2.31711 8.928,-4.30449 8.928,-2.37509 8.928,-6.46639 2.44,0.90482 v 0"
         style="fill:none;stroke:#87ceeb;stroke-width:1.5;stroke-linecap:square;stroke-linejoin:round;stroke-miterlimit:10;stroke-dasharray:none;stroke-opacity:1"
         id="path258" /></g><g
       id="g262"
       clip-path="url(#clipPath266)"
       transform="matrix(0.57521355,0,0,0.57521355,8.9281485,141.97961)"><path
         d="m 57.6,121.44533 8.928,-1.359 8.928,12.12207 8.928,8.52258 8.928,4.33238 8.928,15.41843 8.928,11.5031 8.928,10.01425 8.928,12.57004 8.928,10.52878 8.928,4.10362 8.928,1.14615 8.928,7.95838 8.928,6.03275 8.928,-1.55203 8.928,8.15444 8.928,1.82592 8.928,-4.05519 8.928,-1.13824 8.928,-3.17953 8.928,14.32166 8.928,-7.05241 8.928,-4.76361 8.928,3.93805 8.928,-9.57948 8.928,8.5909 8.928,-0.0264 8.928,4.58753 8.928,-4.80631 8.928,9.62097 8.928,-3.05074 8.928,19.35258 8.928,-3.52566 8.928,5.11677 8.928,-7.7983 8.928,6.05314 8.928,0.28821 8.928,-1.78297 8.928,3.49779 8.928,1.63615"
         style="fill:none;stroke:#7cfc00;stroke-width:1.5;stroke-linecap:square;stroke-linejoin:round;stroke-miterlimit:10;stroke-dasharray:none;stroke-opacity:1"
         id="path268" /></g><g
       id="g272"
       clip-path="url(#clipPath276)"
       transform="matrix(0.57521355,0,0,0.57521355,8.9281485,141.97961)"><path
         d="m 57.6,135.26692 8.928,-6.13036 8.928,0.67749 8.928,-1.31122 8.928,-3.98403 8.928,11.08839 8.928,9.27815 8.928,8.65982 8.928,10.66622 8.928,8.54499 8.928,5.23071 8.928,2.28337 8.928,7.12307 8.928,7.90463 8.928,-3.20273 8.928,5.45201 8.928,0.0529 8.928,-4.7216 8.928,-3.71247 8.928,-1.82428 8.928,16.2273 8.928,-8.13401 8.928,-2.64748 8.928,5.29037 8.928,-11.3016 8.928,6.04947 8.928,-1.15858 8.928,6.03368 8.928,-4.06842 8.928,13.54748 8.928,0.0521 8.928,19.63334 8.928,-3.6601 8.928,4.69506 8.928,-12.17026 8.928,5.7344 8.928,4.26416 8.928,-2.11979 8.928,4.49133 8.928,4.29632"
         style="fill:none;stroke:#006400;stroke-width:1.5;stroke-linecap:square;stroke-linejoin:round;stroke-miterlimit:10;stroke-dasharray:none;stroke-opacity:1"
         id="path278" /></g><g
       id="g282"
       clip-path="url(#clipPath286)"
       transform="matrix(0.57521355,0,0,0.57521355,8.9281485,141.97961)"><path
         d="m 57.6,261.0628 8.928,-7.40852 8.928,-6.10248 8.928,3.0783 8.928,3.67396 8.928,0.43305 8.928,-3.268 8.928,-3.84385 8.928,0.79099 8.928,-3.21872 8.928,-2.81292 8.928,-3.62027 8.928,-1.67227 8.928,-5.21709 8.928,-6.92019 8.928,9.8089 8.928,-1.43418 8.928,-0.29254 8.928,3.42376 8.928,-4.31457 8.928,-10.49892 8.928,-1.73218 8.928,-7.35651 8.928,0.7333 8.928,11.85232 8.928,-1.59108 8.928,-6.74634 8.928,2.0336 8.928,-7.27834 8.928,-0.63536 8.928,0.96584 8.928,-8.26279 8.928,-0.85884 8.928,-4.68455 8.928,6.71461 8.928,-1.14927 8.928,-11.4338 8.928,7.94404 8.928,-0.74799 8.928,-10.08145 8.928,-1.9899 8.928,2.81845 8.928,-5.00215 8.928,-7.77188 8.928,-5.1757 8.928,8.73161 2.44,-2.04053 v 0"
         style="fill:none;stroke:#ff0000;stroke-width:1.5;stroke-linecap:square;stroke-linejoin:round;stroke-miterlimit:10;stroke-dasharray:none;stroke-opacity:1"
         id="path288" /></g><path
       d="M 42.060449,163.84693 V 316.91816"
       style="fill:none;stroke:#000000;stroke-width:0.460171;stroke-linecap:square;stroke-linejoin:miter;stroke-miterlimit:10;stroke-dasharray:none;stroke-opacity:1"
       id="path292" /><path
       d="M 247.48071,163.84693 V 316.91816"
       style="fill:none;stroke:#000000;stroke-width:0.460171;stroke-linecap:square;stroke-linejoin:miter;stroke-miterlimit:10;stroke-dasharray:none;stroke-opacity:1"
       id="path294" /><path
       d="M 42.060449,163.84693 H 247.48071"
       style="fill:none;stroke:#000000;stroke-width:0.460171;stroke-linecap:square;stroke-linejoin:miter;stroke-miterlimit:10;stroke-dasharray:none;stroke-opacity:1"
       id="path296" /><path
       d="M 42.060449,316.91816 H 247.48071"
       style="fill:none;stroke:#000000;stroke-width:0.460171;stroke-linecap:square;stroke-linejoin:miter;stroke-miterlimit:10;stroke-dasharray:none;stroke-opacity:1"
       id="path298" /><path
       d="M 47.237371,195.39747 H 58.741642"
       style="fill:none;stroke:#0000ff;stroke-width:0.862821;stroke-linecap:square;stroke-linejoin:round;stroke-miterlimit:10;stroke-dasharray:none;stroke-opacity:1"
       id="path308" /><path
       d="M 47.237371,186.95796 H 58.741642"
       style="fill:none;stroke:#87ceeb;stroke-width:0.862821;stroke-linecap:square;stroke-linejoin:round;stroke-miterlimit:10;stroke-dasharray:none;stroke-opacity:1"
       id="path314" /><path
       d="M 47.237371,178.51849 H 58.741642"
       style="fill:none;stroke:#7cfc00;stroke-width:0.862821;stroke-linecap:square;stroke-linejoin:round;stroke-miterlimit:10;stroke-dasharray:none;stroke-opacity:1"
       id="path320" /><path
       d="M 47.237371,170.07903 H 58.741642"
       style="fill:none;stroke:#006400;stroke-width:0.862821;stroke-linecap:square;stroke-linejoin:round;stroke-miterlimit:10;stroke-dasharray:none;stroke-opacity:1"
       id="path326" /></g><g
     inkscape:groupmode="layer"
     id="layer1"
     inkscape:label="text"
     transform="translate(-28.023958,-17.206424)"
     style="display:inline"><text
       style="font-variant:normal;font-weight:normal;font-size:7.66952px;font-family:'DejaVu Sans';-inkscape-font-specification:DejaVuSans;writing-mode:lr-tb;fill:#000000;fill-opacity:1;fill-rule:nonzero;stroke:none;stroke-width:0.766952"
       id="text336"
       x="84.457794"
       y="60.620697"><tspan
         x="84.457794 89.143867 92.296036 96.997452 101.85992 105.85574 108.5554 113.27216 116.42433 118.86325 124.80711 131.42589 136.30371 141.18152 146.05933 150.93716 155.81496 158.25386 160.69276 165.57057 170.44839 174.88904 177.32794 179.91255 182.35147 187.59743 193.21152 198.56483 201.14944 203.58838 208.46619 210.90506 215.78287 220.66071"
         y="60.620697"
         sodipodi:role="line"
         id="tspan334"
         style="stroke-width:0.766952">Transfer GM12878, 25k / AUC: 0.837</tspan></text><text
       style="font-variant:normal;font-weight:normal;font-size:7.66952px;font-family:'DejaVu Sans';-inkscape-font-specification:DejaVuSans;writing-mode:lr-tb;fill:#000000;fill-opacity:1;fill-rule:nonzero;stroke:none;stroke-width:0.766952"
       id="text32"
       x="49.980934"
       y="253.53015"><tspan
         x="49.980934 54.858749 57.297657"
         y="253.53015"
         sodipodi:role="line"
         id="tspan30"
         style="stroke-width:0.766952">0.0</tspan></text><text
       style="font-variant:normal;font-weight:normal;font-size:7.66952px;font-family:'DejaVu Sans';-inkscape-font-specification:DejaVuSans;writing-mode:lr-tb;fill:#000000;fill-opacity:1;fill-rule:nonzero;stroke:none;stroke-width:0.766952"
       id="text50"
       x="104.75967"
       y="253.53015"><tspan
         x="104.75967 109.63749 112.07639"
         y="253.53015"
         sodipodi:role="line"
         id="tspan48"
         style="stroke-width:0.766952">0.2</tspan></text><text
       style="font-variant:normal;font-weight:normal;font-size:7.66952px;font-family:'DejaVu Sans';-inkscape-font-specification:DejaVuSans;writing-mode:lr-tb;fill:#000000;fill-opacity:1;fill-rule:nonzero;stroke:none;stroke-width:0.766952"
       id="text68"
       x="159.53841"
       y="253.53015"><tspan
         x="159.53841 164.4162 166.85512"
         y="253.53015"
         sodipodi:role="line"
         id="tspan66"
         style="stroke-width:0.766952">0.4</tspan></text><text
       style="font-variant:normal;font-weight:normal;font-size:7.66952px;font-family:'DejaVu Sans';-inkscape-font-specification:DejaVuSans;writing-mode:lr-tb;fill:#000000;fill-opacity:1;fill-rule:nonzero;stroke:none;stroke-width:0.766952"
       id="text86"
       x="214.31715"
       y="253.53015"><tspan
         x="214.31715 219.19495 221.63385"
         y="253.53015"
         sodipodi:role="line"
         id="tspan84"
         style="stroke-width:0.766952">0.6</tspan></text><text
       style="font-variant:normal;font-weight:normal;font-size:7.66952px;font-family:'DejaVu Sans';-inkscape-font-specification:DejaVuSans;writing-mode:lr-tb;fill:#000000;fill-opacity:1;fill-rule:nonzero;stroke:none;stroke-width:0.766952"
       id="text104"
       x="269.09589"
       y="253.53015"><tspan
         x="269.09589 273.97369 276.4126"
         y="253.53015"
         sodipodi:role="line"
         id="tspan102"
         style="stroke-width:0.766952">0.8</tspan></text><text
       style="font-variant:normal;font-weight:normal;font-size:7.66952px;font-family:'DejaVu Sans';-inkscape-font-specification:DejaVuSans;writing-mode:lr-tb;fill:#000000;fill-opacity:1;fill-rule:nonzero;stroke:none;stroke-width:0.766952"
       id="text122"
       x="323.8746"
       y="253.53015"><tspan
         x="323.8746 328.75241 331.19135"
         y="253.53015"
         sodipodi:role="line"
         id="tspan120"
         style="stroke-width:0.766952">1.0</tspan></text><text
       style="font-variant:normal;font-weight:normal;font-size:7.66952px;font-family:'DejaVu Sans';-inkscape-font-specification:DejaVuSans;writing-mode:lr-tb;fill:#000000;fill-opacity:1;fill-rule:nonzero;stroke:none;stroke-width:0.766952"
       id="text126"
       x="146.6089"
       y="264.01581"><tspan
         x="146.6089 152.55278 157.26955 162.13199 166.82574 174.29584 176.42798 180.64619 183.0851 187.95526 190.08737 194.08319 197.08963 201.79105 206.65352 210.87178 215.58852 218.0274 220.61203 223.05092 229.66974 234.53987"
         y="264.01581"
         sodipodi:role="line"
         id="tspan124"
         style="stroke-width:0.766952">Genomic distance / Mbp</tspan></text><text
       style="font-variant:normal;font-weight:normal;font-size:7.66952px;font-family:'DejaVu Sans';-inkscape-font-specification:DejaVuSans;writing-mode:lr-tb;fill:#000000;fill-opacity:1;fill-rule:nonzero;stroke:none;stroke-width:0.766952"
       id="text144"
       x="38.512615"
       y="226.69537"><tspan
         x="38.512615 43.390427 45.829334"
         y="226.69537"
         sodipodi:role="line"
         id="tspan142"
         style="stroke-width:0.766952">0.5</tspan></text><text
       style="font-variant:normal;font-weight:normal;font-size:7.66952px;font-family:'DejaVu Sans';-inkscape-font-specification:DejaVuSans;writing-mode:lr-tb;fill:#000000;fill-opacity:1;fill-rule:nonzero;stroke:none;stroke-width:0.766952"
       id="text162"
       x="38.512615"
       y="189.5872"><tspan
         x="38.512615 43.390427 45.829334"
         y="189.5872"
         sodipodi:role="line"
         id="tspan160"
         style="stroke-width:0.766952">0.6</tspan></text><text
       style="font-variant:normal;font-weight:normal;font-size:7.66952px;font-family:'DejaVu Sans';-inkscape-font-specification:DejaVuSans;writing-mode:lr-tb;fill:#000000;fill-opacity:1;fill-rule:nonzero;stroke:none;stroke-width:0.766952"
       id="text180"
       x="38.512615"
       y="152.47902"><tspan
         x="38.512615 43.390427 45.829334"
         y="152.47902"
         sodipodi:role="line"
         id="tspan178"
         style="stroke-width:0.766952">0.7</tspan></text><text
       style="font-variant:normal;font-weight:normal;font-size:7.66952px;font-family:'DejaVu Sans';-inkscape-font-specification:DejaVuSans;writing-mode:lr-tb;fill:#000000;fill-opacity:1;fill-rule:nonzero;stroke:none;stroke-width:0.766952"
       id="text198"
       x="38.512615"
       y="115.37065"><tspan
         x="38.512615 43.390427 45.829334"
         y="115.37065"
         sodipodi:role="line"
         id="tspan196"
         style="stroke-width:0.766952">0.8</tspan></text><text
       style="font-variant:normal;font-weight:normal;font-size:7.66952px;font-family:'DejaVu Sans';-inkscape-font-specification:DejaVuSans;writing-mode:lr-tb;fill:#000000;fill-opacity:1;fill-rule:nonzero;stroke:none;stroke-width:0.766952"
       id="text216"
       x="38.512615"
       y="78.262482"><tspan
         x="38.512615 43.390427 45.829334"
         y="78.262482"
         sodipodi:role="line"
         id="tspan214"
         style="stroke-width:0.766952">0.9</tspan></text><text
       style="font-variant:normal;font-weight:normal;font-size:7.66952px;font-family:'DejaVu Sans';-inkscape-font-specification:DejaVuSans;writing-mode:lr-tb;fill:#000000;fill-opacity:1;fill-rule:nonzero;stroke:none;stroke-width:0.766952"
       id="text234"
       x="38.512615"
       y="41.154285"><tspan
         x="38.512615 43.390427 45.829334"
         y="41.154285"
         sodipodi:role="line"
         id="tspan232"
         style="stroke-width:0.766952">1.0</tspan></text><text
       transform="rotate(-90)"
       style="font-variant:normal;font-weight:normal;font-size:7.66952px;font-family:'DejaVu Sans';-inkscape-font-specification:DejaVuSans;writing-mode:lr-tb;fill:#000000;fill-opacity:1;fill-rule:nonzero;stroke:none;stroke-width:0.766952"
       id="text238"
       x="-177.34331"
       y="33.85099"><tspan
         x="-177.34331 -172.71858 -168.00183 -163.30042 -160.14825 -156.15245 -151.45868 -146.59621 -144.1573 -139.93907 -135.24532 -132.09315 -128.94101 -124.22398 -122.0919 -117.39055 -114.38406 -112.25187 -107.55815"
         y="33.85099"
         sodipodi:role="line"
         id="tspan236"
         style="stroke-width:0.766952">Pearson correlation</tspan></text><text
       style="font-variant:normal;font-weight:normal;font-size:9.20343px;font-family:'DejaVu Sans';-inkscape-font-specification:DejaVuSans;writing-mode:lr-tb;fill:#000000;fill-opacity:1;fill-rule:nonzero;stroke:none;stroke-width:0.766952"
       id="text302"
       x="98.314926"
       y="23.325109"><tspan
         x="98.314926 103.86459 109.5247 115.1664 118.94899 123.74397 129.37646 135.21143 138.13812 143.19998 148.83249 152.6151 156.39767 162.0578 164.61636 170.25803 173.86578 176.42433 182.05682 187.89178 190.81848 196.26691 201.06189 203.98856 206.91525 212.75943 218.41953 224.25447 229.88699 238.85109 241.40964 246.47153 249.39822 255.2424 257.80093 262.59589 266.20367 271.84534 277.6803 282.74219"
         y="23.325109"
         sodipodi:role="line"
         id="tspan300"
         style="stroke-width:0.766952">Pearson correlation vs. genomic distance</tspan></text><text
       style="font-variant:normal;font-weight:normal;font-size:9.20343px;font-family:'DejaVu Sans';-inkscape-font-specification:DejaVuSans;writing-mode:lr-tb;fill:#000000;fill-opacity:1;fill-rule:nonzero;stroke:none;stroke-width:0.766952"
       id="text306"
       x="155.13525"
       y="33.640572"><tspan
         x="155.13525 161.5592 167.3942 171.17682 176.8093 185.77344 191.40591 196.20088 201.83339 210.7975 216.45761 219.38429 225.23767"
         y="33.640572"
         sodipodi:role="line"
         id="tspan304"
         style="stroke-width:0.766952">Chromosome 17</tspan></text><text
       style="font-variant:normal;font-weight:normal;font-size:7.66952px;font-family:'DejaVu Sans';-inkscape-font-specification:DejaVuSans;writing-mode:lr-tb;fill:#000000;fill-opacity:1;fill-rule:nonzero;stroke:none;stroke-width:0.766952"
       id="text312"
       x="84.457794"
       y="202.95462"><tspan
         x="84.457794 90.363319 96.100113 101.83692 106.71473 111.59254 114.03144 116.47035 121.34815 126.22597 130.66663 133.10553 135.69016 138.12904 143.37498 148.98909 154.34241 156.92703 159.36594 164.24376 166.68265 171.56046 176.43826"
         y="202.95462"
         sodipodi:role="line"
         id="tspan310"
         style="stroke-width:0.766952">DNN80, 25k / AUC: 0.640</tspan></text><text
       style="font-variant:normal;font-weight:normal;font-size:7.66952px;font-family:'DejaVu Sans';-inkscape-font-specification:DejaVuSans;writing-mode:lr-tb;fill:#000000;fill-opacity:1;fill-rule:nonzero;stroke:none;stroke-width:0.766952"
       id="text318"
       x="84.457794"
       y="214.20715"><tspan
         x="84.457794 90.401672 95.647621 101.38441 106.26222 111.14005 116.01784 118.45676 120.89566 125.77348 130.65128 135.09192 137.53084 140.11545 142.55438 147.80032 153.4144 158.76773 161.35234 163.79124 168.66907 171.10797 175.98578 180.8636"
         y="214.20715"
         sodipodi:role="line"
         id="tspan316"
         style="stroke-width:0.766952">GAN256, 25k / AUC: 0.744</tspan></text><text
       style="font-variant:normal;font-weight:normal;font-size:7.66952px;font-family:'DejaVu Sans';-inkscape-font-specification:DejaVuSans;writing-mode:lr-tb;fill:#000000;fill-opacity:1;fill-rule:nonzero;stroke:none;stroke-width:0.766952"
       id="text324"
       x="84.457794"
       y="225.45978"><tspan
         x="84.457794 91.076599 96.690674 100.9626 105.64867 107.91117 113.2645 118.11162 122.38354 126.65546 129.09436 131.53326 136.41107 139.17976 144.04993 148.75133 153.62146 158.49162 163.20837 168.07851 170.51741 172.95631 177.83412 182.71194 187.15259 189.59151 192.17615 194.61505 199.86098 205.47505 210.82838 213.41299 215.85193 220.72971 223.16864 228.04645 232.92422"
         y="225.45978"
         sodipodi:role="line"
         id="tspan322"
         style="stroke-width:0.766952">MULTICELL, 0-padded, 25k / AUC: 0.820</tspan></text><text
       style="font-variant:normal;font-weight:normal;font-size:7.66952px;font-family:'DejaVu Sans';-inkscape-font-specification:DejaVuSans;writing-mode:lr-tb;fill:#000000;fill-opacity:1;fill-rule:nonzero;stroke:none;stroke-width:0.766952"
       id="text330"
       x="84.457794"
       y="236.71231"><tspan
         x="84.457794 92.042946 94.305458 100.04225 105.94777 111.98369 119.56885 122.00774 124.44664 129.32446 132.09315 136.96329 141.6647 146.53484 151.40497 156.12173 160.99188 163.43077 165.86969 170.7475 175.62531 180.06595 182.50485 185.08949 187.52841 192.77435 198.38844 203.74176 206.32637 208.76527 213.6431 216.08199 220.95979 225.83762"
         y="236.71231"
         sodipodi:role="line"
         id="tspan328"
         style="stroke-width:0.766952">WINDOW, 0-padded, 25k / AUC: 0.760</tspan></text></g></svg>
