<?xml version="1.0" encoding="UTF-8" standalone="no"?>
<svg
   xmlns:dc="http://purl.org/dc/elements/1.1/"
   xmlns:cc="http://creativecommons.org/ns#"
   xmlns:rdf="http://www.w3.org/1999/02/22-rdf-syntax-ns#"
   xmlns:svg="http://www.w3.org/2000/svg"
   xmlns="http://www.w3.org/2000/svg"
   xmlns:sodipodi="http://sodipodi.sourceforge.net/DTD/sodipodi-0.dtd"
   xmlns:inkscape="http://www.inkscape.org/namespaces/inkscape"
   version="1.1"
   id="svg2"
   xml:space="preserve"
   width="80mm"
   height="65.300003mm"
   viewBox="0 0 302.36221 246.80316"
   sodipodi:docname="pearson_chr14_detail_25k.svg"
   inkscape:version="1.0.2 (1.0.2+r75+1)"><metadata
     id="metadata8"><rdf:RDF><cc:Work
         rdf:about=""><dc:format>image/svg+xml</dc:format><dc:type
           rdf:resource="http://purl.org/dc/dcmitype/StillImage" /><dc:title></dc:title></cc:Work></rdf:RDF></metadata><defs
     id="defs6"><clipPath
       clipPathUnits="userSpaceOnUse"
       id="clipPath22"><path
         d="M 57.6,38.016 H 414.72 V 304.128 H 57.6 Z"
         id="path20" /></clipPath><clipPath
       clipPathUnits="userSpaceOnUse"
       id="clipPath40"><path
         d="M 57.6,38.016 H 414.72 V 304.128 H 57.6 Z"
         id="path38" /></clipPath><clipPath
       clipPathUnits="userSpaceOnUse"
       id="clipPath58"><path
         d="M 57.6,38.016 H 414.72 V 304.128 H 57.6 Z"
         id="path56" /></clipPath><clipPath
       clipPathUnits="userSpaceOnUse"
       id="clipPath76"><path
         d="M 57.6,38.016 H 414.72 V 304.128 H 57.6 Z"
         id="path74" /></clipPath><clipPath
       clipPathUnits="userSpaceOnUse"
       id="clipPath94"><path
         d="M 57.6,38.016 H 414.72 V 304.128 H 57.6 Z"
         id="path92" /></clipPath><clipPath
       clipPathUnits="userSpaceOnUse"
       id="clipPath112"><path
         d="M 57.6,38.016 H 414.72 V 304.128 H 57.6 Z"
         id="path110" /></clipPath><clipPath
       clipPathUnits="userSpaceOnUse"
       id="clipPath134"><path
         d="M 57.6,38.016 H 414.72 V 304.128 H 57.6 Z"
         id="path132" /></clipPath><clipPath
       clipPathUnits="userSpaceOnUse"
       id="clipPath152"><path
         d="M 57.6,38.016 H 414.72 V 304.128 H 57.6 Z"
         id="path150" /></clipPath><clipPath
       clipPathUnits="userSpaceOnUse"
       id="clipPath170"><path
         d="M 57.6,38.016 H 414.72 V 304.128 H 57.6 Z"
         id="path168" /></clipPath><clipPath
       clipPathUnits="userSpaceOnUse"
       id="clipPath188"><path
         d="M 57.6,38.016 H 414.72 V 304.128 H 57.6 Z"
         id="path186" /></clipPath><clipPath
       clipPathUnits="userSpaceOnUse"
       id="clipPath206"><path
         d="M 57.6,38.016 H 414.72 V 304.128 H 57.6 Z"
         id="path204" /></clipPath><clipPath
       clipPathUnits="userSpaceOnUse"
       id="clipPath224"><path
         d="M 57.6,38.016 H 414.72 V 304.128 H 57.6 Z"
         id="path222" /></clipPath><clipPath
       clipPathUnits="userSpaceOnUse"
       id="clipPath246"><path
         d="M 57.6,38.016 H 414.72 V 304.128 H 57.6 Z"
         id="path244" /></clipPath><clipPath
       clipPathUnits="userSpaceOnUse"
       id="clipPath256"><path
         d="M 57.6,38.016 H 414.72 V 304.128 H 57.6 Z"
         id="path254" /></clipPath><clipPath
       clipPathUnits="userSpaceOnUse"
       id="clipPath266"><path
         d="M 57.6,38.016 H 414.72 V 304.128 H 57.6 Z"
         id="path264" /></clipPath><clipPath
       clipPathUnits="userSpaceOnUse"
       id="clipPath276"><path
         d="M 57.6,38.016 H 414.72 V 304.128 H 57.6 Z"
         id="path274" /></clipPath><clipPath
       clipPathUnits="userSpaceOnUse"
       id="clipPath286"><path
         d="M 57.6,38.016 H 414.72 V 304.128 H 57.6 Z"
         id="path284" /></clipPath></defs><sodipodi:namedview
     pagecolor="#ffffff"
     bordercolor="#666666"
     borderopacity="1"
     objecttolerance="10"
     gridtolerance="10"
     guidetolerance="10"
     inkscape:pageopacity="0"
     inkscape:pageshadow="2"
     inkscape:window-width="1920"
     inkscape:window-height="1020"
     id="namedview4"
     showgrid="false"
     fit-margin-top="0"
     fit-margin-left="0"
     fit-margin-right="0"
     fit-margin-bottom="0"
     units="mm"
     inkscape:zoom="1.3150836"
     inkscape:cx="49.878438"
     inkscape:cy="173.04861"
     inkscape:window-x="0"
     inkscape:window-y="0"
     inkscape:window-maximized="1"
     inkscape:current-layer="layer1" /><g
     id="g10"
     inkscape:groupmode="layer"
     inkscape:label="pearson_chr14_detail_25k"
     transform="matrix(1.3333333,0,0,-1.3333333,-28.023958,443.59358)"><path
       d="M 47.242445,173.41894 H 58.748943"
       style="fill:none;stroke:#ff0000;stroke-width:0.862987;stroke-linecap:square;stroke-linejoin:round;stroke-miterlimit:10;stroke-dasharray:none;stroke-opacity:1"
       id="path332" /><g
       id="g16"
       transform="matrix(0.57532488,0,0,0.57532488,8.9258086,142.00018)"><g
         id="g18"
         clip-path="url(#clipPath22)"><path
           d="M 57.6,38.016 V 304.128"
           style="fill:none;stroke:#b0b0b0;stroke-width:0.8;stroke-linecap:square;stroke-linejoin:round;stroke-miterlimit:10;stroke-dasharray:none;stroke-opacity:1"
           id="path24" /></g></g><g
       id="g26"
       transform="matrix(0.57532488,0,0,0.57532488,8.9258086,142.00018)"><path
         d="m 57.6,38.016 v -3.5"
         style="fill:#000000;fill-opacity:1;fill-rule:nonzero;stroke:#000000;stroke-width:0.8;stroke-linecap:butt;stroke-linejoin:round;stroke-miterlimit:10;stroke-dasharray:none;stroke-opacity:1"
         id="path28" /></g><g
       id="g34"
       transform="matrix(0.57532488,0,0,0.57532488,8.9258086,142.00018)"><g
         id="g36"
         clip-path="url(#clipPath40)"><path
           d="M 129.024,38.016 V 304.128"
           style="fill:none;stroke:#b0b0b0;stroke-width:0.8;stroke-linecap:square;stroke-linejoin:round;stroke-miterlimit:10;stroke-dasharray:none;stroke-opacity:1"
           id="path42" /></g></g><g
       id="g44"
       transform="matrix(0.57532488,0,0,0.57532488,8.9258086,142.00018)"><path
         d="m 129.024,38.016 v -3.5"
         style="fill:#000000;fill-opacity:1;fill-rule:nonzero;stroke:#000000;stroke-width:0.8;stroke-linecap:butt;stroke-linejoin:round;stroke-miterlimit:10;stroke-dasharray:none;stroke-opacity:1"
         id="path46" /></g><g
       id="g52"
       transform="matrix(0.57532488,0,0,0.57532488,8.9258086,142.00018)"><g
         id="g54"
         clip-path="url(#clipPath58)"><path
           d="M 200.448,38.016 V 304.128"
           style="fill:none;stroke:#b0b0b0;stroke-width:0.8;stroke-linecap:square;stroke-linejoin:round;stroke-miterlimit:10;stroke-dasharray:none;stroke-opacity:1"
           id="path60" /></g></g><g
       id="g62"
       transform="matrix(0.57532488,0,0,0.57532488,8.9258086,142.00018)"><path
         d="m 200.448,38.016 v -3.5"
         style="fill:#000000;fill-opacity:1;fill-rule:nonzero;stroke:#000000;stroke-width:0.8;stroke-linecap:butt;stroke-linejoin:round;stroke-miterlimit:10;stroke-dasharray:none;stroke-opacity:1"
         id="path64" /></g><g
       id="g70"
       transform="matrix(0.57532488,0,0,0.57532488,8.9258086,142.00018)"><g
         id="g72"
         clip-path="url(#clipPath76)"><path
           d="M 271.872,38.016 V 304.128"
           style="fill:none;stroke:#b0b0b0;stroke-width:0.8;stroke-linecap:square;stroke-linejoin:round;stroke-miterlimit:10;stroke-dasharray:none;stroke-opacity:1"
           id="path78" /></g></g><g
       id="g80"
       transform="matrix(0.57532488,0,0,0.57532488,8.9258086,142.00018)"><path
         d="m 271.872,38.016 v -3.5"
         style="fill:#000000;fill-opacity:1;fill-rule:nonzero;stroke:#000000;stroke-width:0.8;stroke-linecap:butt;stroke-linejoin:round;stroke-miterlimit:10;stroke-dasharray:none;stroke-opacity:1"
         id="path82" /></g><g
       id="g88"
       transform="matrix(0.57532488,0,0,0.57532488,8.9258086,142.00018)"><g
         id="g90"
         clip-path="url(#clipPath94)"><path
           d="M 343.296,38.016 V 304.128"
           style="fill:none;stroke:#b0b0b0;stroke-width:0.8;stroke-linecap:square;stroke-linejoin:round;stroke-miterlimit:10;stroke-dasharray:none;stroke-opacity:1"
           id="path96" /></g></g><g
       id="g98"
       transform="matrix(0.57532488,0,0,0.57532488,8.9258086,142.00018)"><path
         d="m 343.296,38.016 v -3.5"
         style="fill:#000000;fill-opacity:1;fill-rule:nonzero;stroke:#000000;stroke-width:0.8;stroke-linecap:butt;stroke-linejoin:round;stroke-miterlimit:10;stroke-dasharray:none;stroke-opacity:1"
         id="path100" /></g><g
       id="g106"
       transform="matrix(0.57532488,0,0,0.57532488,8.9258086,142.00018)"><g
         id="g108"
         clip-path="url(#clipPath112)"><path
           d="M 414.72,38.016 V 304.128"
           style="fill:none;stroke:#b0b0b0;stroke-width:0.8;stroke-linecap:square;stroke-linejoin:round;stroke-miterlimit:10;stroke-dasharray:none;stroke-opacity:1"
           id="path114" /></g></g><g
       id="g116"
       transform="matrix(0.57532488,0,0,0.57532488,8.9258086,142.00018)"><path
         d="m 414.72,38.016 v -3.5"
         style="fill:#000000;fill-opacity:1;fill-rule:nonzero;stroke:#000000;stroke-width:0.8;stroke-linecap:butt;stroke-linejoin:round;stroke-miterlimit:10;stroke-dasharray:none;stroke-opacity:1"
         id="path118" /></g><g
       id="g128"
       transform="matrix(0.57532488,0,0,0.57532488,8.9258086,142.00018)"><g
         id="g130"
         clip-path="url(#clipPath134)"><path
           d="M 57.6,62.208 H 414.72"
           style="fill:none;stroke:#b0b0b0;stroke-width:0.8;stroke-linecap:square;stroke-linejoin:round;stroke-miterlimit:10;stroke-dasharray:none;stroke-opacity:1"
           id="path136" /></g></g><g
       id="g138"
       transform="matrix(0.57532488,0,0,0.57532488,8.9258086,142.00018)"><path
         d="M 57.6,62.208 H 54.1"
         style="fill:#000000;fill-opacity:1;fill-rule:nonzero;stroke:#000000;stroke-width:0.8;stroke-linecap:butt;stroke-linejoin:round;stroke-miterlimit:10;stroke-dasharray:none;stroke-opacity:1"
         id="path140" /></g><g
       id="g146"
       transform="matrix(0.57532488,0,0,0.57532488,8.9258086,142.00018)"><g
         id="g148"
         clip-path="url(#clipPath152)"><path
           d="M 57.6,110.592 H 414.72"
           style="fill:none;stroke:#b0b0b0;stroke-width:0.8;stroke-linecap:square;stroke-linejoin:round;stroke-miterlimit:10;stroke-dasharray:none;stroke-opacity:1"
           id="path154" /></g></g><g
       id="g156"
       transform="matrix(0.57532488,0,0,0.57532488,8.9258086,142.00018)"><path
         d="M 57.6,110.592 H 54.1"
         style="fill:#000000;fill-opacity:1;fill-rule:nonzero;stroke:#000000;stroke-width:0.8;stroke-linecap:butt;stroke-linejoin:round;stroke-miterlimit:10;stroke-dasharray:none;stroke-opacity:1"
         id="path158" /></g><g
       id="g164"
       transform="matrix(0.57532488,0,0,0.57532488,8.9258086,142.00018)"><g
         id="g166"
         clip-path="url(#clipPath170)"><path
           d="M 57.6,158.976 H 414.72"
           style="fill:none;stroke:#b0b0b0;stroke-width:0.8;stroke-linecap:square;stroke-linejoin:round;stroke-miterlimit:10;stroke-dasharray:none;stroke-opacity:1"
           id="path172" /></g></g><g
       id="g174"
       transform="matrix(0.57532488,0,0,0.57532488,8.9258086,142.00018)"><path
         d="M 57.6,158.976 H 54.1"
         style="fill:#000000;fill-opacity:1;fill-rule:nonzero;stroke:#000000;stroke-width:0.8;stroke-linecap:butt;stroke-linejoin:round;stroke-miterlimit:10;stroke-dasharray:none;stroke-opacity:1"
         id="path176" /></g><g
       id="g182"
       transform="matrix(0.57532488,0,0,0.57532488,8.9258086,142.00018)"><g
         id="g184"
         clip-path="url(#clipPath188)"><path
           d="M 57.6,207.36 H 414.72"
           style="fill:none;stroke:#b0b0b0;stroke-width:0.8;stroke-linecap:square;stroke-linejoin:round;stroke-miterlimit:10;stroke-dasharray:none;stroke-opacity:1"
           id="path190" /></g></g><g
       id="g192"
       transform="matrix(0.57532488,0,0,0.57532488,8.9258086,142.00018)"><path
         d="M 57.6,207.36 H 54.1"
         style="fill:#000000;fill-opacity:1;fill-rule:nonzero;stroke:#000000;stroke-width:0.8;stroke-linecap:butt;stroke-linejoin:round;stroke-miterlimit:10;stroke-dasharray:none;stroke-opacity:1"
         id="path194" /></g><g
       id="g200"
       transform="matrix(0.57532488,0,0,0.57532488,8.9258086,142.00018)"><g
         id="g202"
         clip-path="url(#clipPath206)"><path
           d="M 57.6,255.744 H 414.72"
           style="fill:none;stroke:#b0b0b0;stroke-width:0.8;stroke-linecap:square;stroke-linejoin:round;stroke-miterlimit:10;stroke-dasharray:none;stroke-opacity:1"
           id="path208" /></g></g><g
       id="g210"
       transform="matrix(0.57532488,0,0,0.57532488,8.9258086,142.00018)"><path
         d="M 57.6,255.744 H 54.1"
         style="fill:#000000;fill-opacity:1;fill-rule:nonzero;stroke:#000000;stroke-width:0.8;stroke-linecap:butt;stroke-linejoin:round;stroke-miterlimit:10;stroke-dasharray:none;stroke-opacity:1"
         id="path212" /></g><g
       id="g218"
       transform="matrix(0.57532488,0,0,0.57532488,8.9258086,142.00018)"><g
         id="g220"
         clip-path="url(#clipPath224)"><path
           d="M 57.6,304.128 H 414.72"
           style="fill:none;stroke:#b0b0b0;stroke-width:0.8;stroke-linecap:square;stroke-linejoin:round;stroke-miterlimit:10;stroke-dasharray:none;stroke-opacity:1"
           id="path226" /></g></g><g
       id="g228"
       transform="matrix(0.57532488,0,0,0.57532488,8.9258086,142.00018)"><path
         d="M 57.6,304.128 H 54.1"
         style="fill:#000000;fill-opacity:1;fill-rule:nonzero;stroke:#000000;stroke-width:0.8;stroke-linecap:butt;stroke-linejoin:round;stroke-miterlimit:10;stroke-dasharray:none;stroke-opacity:1"
         id="path230" /></g><g
       id="g240"
       transform="matrix(0.57532488,0,0,0.57532488,8.9258086,142.00018)"><g
         id="g242"
         clip-path="url(#clipPath246)"><path
           d="m 57.6,259.81843 8.928,-0.9838 8.928,-17.45441 8.928,-14.93109 8.928,-3.9168 8.928,-6.98716 8.928,-10.03708 8.928,-7.85331 8.928,-1.44278 8.928,-3.64979 8.928,-1.8498 8.928,-6.29215 8.928,-0.89642 8.928,-2.5777 8.928,-5.45644 8.928,-7.73143 8.928,-2.78329 8.928,-7.22949 8.928,-6.40791 8.928,-2.10596 8.928,-4.16251 8.928,-3.01383 8.928,-8.80337 8.928,-4.02051 8.928,-7.30042 8.928,1.98549 8.928,1.44198 8.928,-2.70017 8.928,2.84486 8.928,4.16789 8.928,-7.4933 8.928,-0.28667 8.928,1.21546 8.928,1.13977 8.928,-0.66255 8.928,-11.2913 8.928,-7.75828 8.928,8.35956 8.928,-2.45525 8.928,3.38198 8.928,-1.84883 8.928,-3.1117 8.928,0.36852 8.928,0.58246 8.928,-6.80019 8.928,8.99534 2.44,-1.78849"
           style="fill:none;stroke:#0000ff;stroke-width:1.5;stroke-linecap:square;stroke-linejoin:round;stroke-miterlimit:10;stroke-dasharray:none;stroke-opacity:1"
           id="path248" /></g></g><g
       id="g250"
       transform="matrix(0.57532488,0,0,0.57532488,8.9258086,142.00018)"><g
         id="g252"
         clip-path="url(#clipPath256)"><path
           d="m 57.6,252.78958 8.928,-1.70335 8.928,-16.09218 8.928,-11.82495 8.928,3.49238 8.928,-0.9259 8.928,-1.17935 8.928,-2.64767 8.928,2.40472 8.928,-2.97738 8.928,-3.83058 8.928,-8.11454 8.928,-0.17141 8.928,0.60156 8.928,-6.39239 8.928,-7.38553 8.928,-0.57981 8.928,-3.02708 8.928,-8.60082 8.928,-4.61346 8.928,-1.64081 8.928,-3.83778 8.928,-5.81845 8.928,4.42379 8.928,-7.12854 8.928,8.40966 8.928,0.0921 8.928,-0.44706 8.928,4.2237 8.928,-6.79939 8.928,-0.59181 8.928,0.8785 8.928,-0.006 8.928,6.18856 8.928,4.41562 8.928,3.1597 8.928,-0.0379 8.928,-0.48821 8.928,-4.91695 8.928,-3.52981 8.928,3.548 8.928,-11.3182 8.928,2.24815 8.928,-6.43759 8.928,4.28011 8.928,-1.00321 2.44,-1.01762 v 0"
           style="fill:none;stroke:#87ceeb;stroke-width:1.5;stroke-linecap:square;stroke-linejoin:round;stroke-miterlimit:10;stroke-dasharray:none;stroke-opacity:1"
           id="path258" /></g></g><g
       id="g260"
       transform="matrix(0.57532488,0,0,0.57532488,8.9258086,142.00018)"><g
         id="g262"
         clip-path="url(#clipPath266)"><path
           d="m 57.6,158.32775 8.928,-4.89673 8.928,20.67088 8.928,14.92464 8.928,17.47798 8.928,8.58567 8.928,8.11443 8.928,3.86341 8.928,6.2519 8.928,5.11632 8.928,5.33348 8.928,10e-4 8.928,6.43087 8.928,4.39954 8.928,0.0376 8.928,-3.80536 8.928,2.65361 8.928,-4.56866 8.928,0.12241 8.928,3.73259 8.928,-0.70615 8.928,1.68668 8.928,-4.72118 8.928,-2.56053 8.928,1.41116 8.928,11.15176 8.928,2.64667 8.928,0.98466 8.928,2.19867 8.928,0.74721 8.928,-1.40604 8.928,0.0274 8.928,1.49101 8.928,0.47479 8.928,0.16117 8.928,-5.45048 8.928,-1.85785 8.928,5.18749 8.928,0.25446 8.928,2.42676"
           style="fill:none;stroke:#7cfc00;stroke-width:1.5;stroke-linecap:square;stroke-linejoin:round;stroke-miterlimit:10;stroke-dasharray:none;stroke-opacity:1"
           id="path268" /></g></g><g
       id="g270"
       transform="matrix(0.57532488,0,0,0.57532488,8.9258086,142.00018)"><g
         id="g272"
         clip-path="url(#clipPath276)"><path
           d="m 57.6,179.70951 8.928,-18.39649 8.928,4.3553 8.928,10.42762 8.928,12.30338 8.928,5.4414 8.928,4.2388 8.928,-1.72578 8.928,2.71778 8.928,0.25863 8.928,1.89061 8.928,-5.64404 8.928,3.92993 8.928,0.68503 8.928,-5.23027 8.928,-8.04953 8.928,1.96961 8.928,-4.68157 8.928,-4.20208 8.928,0.51045 8.928,-3.81442 8.928,0.22745 8.928,-5.73711 8.928,-6.58234 8.928,0.8818 8.928,10.9048 8.928,8.23793 8.928,1.46936 8.928,2.44029 8.928,-0.78386 8.928,-2.7348 8.928,-0.0893 8.928,-1.39924 8.928,-1.51796 8.928,0.37265 8.928,-5.39281 8.928,-3.63136 8.928,7.68486 8.928,5.29724 8.928,4.88471"
           style="fill:none;stroke:#006400;stroke-width:1.5;stroke-linecap:square;stroke-linejoin:round;stroke-miterlimit:10;stroke-dasharray:none;stroke-opacity:1"
           id="path278" /></g></g><g
       id="g280"
       transform="matrix(0.57532488,0,0,0.57532488,8.9258086,142.00018)"><g
         id="g282"
         clip-path="url(#clipPath286)"><path
           d="m 57.6,266.13115 8.928,-16.08156 8.928,-9.50097 8.928,0.99104 8.928,0.45404 8.928,-0.9865 8.928,0.90945 8.928,3.40449 8.928,-1.85026 8.928,-0.0664 8.928,-1.58095 8.928,-3.27706 8.928,-7.85357 8.928,-0.95012 8.928,-5.18304 8.928,-2.54446 8.928,-6.74043 8.928,-3.43631 8.928,-3.59511 8.928,-10.21469 8.928,-4.08381 8.928,1.87113 8.928,-1.3217 8.928,6.71173 8.928,2.60902 8.928,14.79735 8.928,2.62104 8.928,-1.01282 8.928,-4.02816 8.928,-4.2848 8.928,1.32181 8.928,-6.80576 8.928,-0.92971 8.928,-4.76502 8.928,-5.56622 8.928,8.29673 8.928,-3.6531 8.928,-12.46554 8.928,0.66429 8.928,-2.03121 8.928,2.74972 8.928,-6.92786 8.928,-4.08396 8.928,0.51811 8.928,1.29556 8.928,-1.07418 2.44,-1.22733 v 0"
           style="fill:none;stroke:#ff0000;stroke-width:1.5;stroke-linecap:square;stroke-linejoin:round;stroke-miterlimit:10;stroke-dasharray:none;stroke-opacity:1"
           id="path288" /></g></g><path
       d="M 42.064521,163.87173 V 316.97259"
       style="fill:none;stroke:#000000;stroke-width:0.46026;stroke-linecap:square;stroke-linejoin:miter;stroke-miterlimit:10;stroke-dasharray:none;stroke-opacity:1"
       id="path292" /><path
       d="M 247.52454,163.87173 V 316.97259"
       style="fill:none;stroke:#000000;stroke-width:0.46026;stroke-linecap:square;stroke-linejoin:miter;stroke-miterlimit:10;stroke-dasharray:none;stroke-opacity:1"
       id="path294" /><path
       d="M 42.064521,163.87173 H 247.52454"
       style="fill:none;stroke:#000000;stroke-width:0.46026;stroke-linecap:square;stroke-linejoin:miter;stroke-miterlimit:10;stroke-dasharray:none;stroke-opacity:1"
       id="path296" /><path
       d="M 42.064521,316.97259 H 247.52454"
       style="fill:none;stroke:#000000;stroke-width:0.46026;stroke-linecap:square;stroke-linejoin:miter;stroke-miterlimit:10;stroke-dasharray:none;stroke-opacity:1"
       id="path298" /><path
       d="M 47.242445,207.18332 H 58.748943"
       style="fill:none;stroke:#0000ff;stroke-width:0.862987;stroke-linecap:square;stroke-linejoin:round;stroke-miterlimit:10;stroke-dasharray:none;stroke-opacity:1"
       id="path308" /><path
       d="M 47.242445,198.74222 H 58.748943"
       style="fill:none;stroke:#87ceeb;stroke-width:0.862987;stroke-linecap:square;stroke-linejoin:round;stroke-miterlimit:10;stroke-dasharray:none;stroke-opacity:1"
       id="path314" /><path
       d="M 47.242445,190.30113 H 58.748943"
       style="fill:none;stroke:#7cfc00;stroke-width:0.862987;stroke-linecap:square;stroke-linejoin:round;stroke-miterlimit:10;stroke-dasharray:none;stroke-opacity:1"
       id="path320" /><path
       d="M 47.242445,181.86003 H 58.748943"
       style="fill:none;stroke:#006400;stroke-width:0.862987;stroke-linecap:square;stroke-linejoin:round;stroke-miterlimit:10;stroke-dasharray:none;stroke-opacity:1"
       id="path326" /></g><g
     inkscape:groupmode="layer"
     id="layer1"
     inkscape:label="text"
     transform="translate(-28.023958,-17.206424)"><text
       style="font-variant:normal;font-weight:normal;font-size:7.67098px;font-family:'DejaVu Sans';-inkscape-font-specification:DejaVuSans;writing-mode:lr-tb;fill:#000000;fill-opacity:1;fill-rule:nonzero;stroke:none;stroke-width:0.767098"
       id="text336"
       x="84.468719"
       y="232.2594"><tspan
         x="84.468719 89.155701 92.308479 97.010796 101.87421 105.87081 108.57099 113.28865 116.44144 118.88083 124.82584 131.44591 136.32468 141.20343 146.08217 150.96094 155.83969 158.27907 160.71844 165.5972 170.47594 174.91747 177.35686 179.94196 182.38135 187.62831 193.24348 198.59782 201.18295 203.62234 208.50108 210.94048 215.81921 220.69797"
         y="232.2594"
         sodipodi:role="line"
         id="tspan334"
         style="stroke-width:0.767098">Transfer GM12878, 25k / AUC: 0.821</tspan></text><text
       style="font-variant:normal;font-weight:normal;font-size:7.671px;font-family:'DejaVu Sans';-inkscape-font-specification:DejaVuSans;writing-mode:lr-tb;fill:#000000;fill-opacity:1;fill-rule:nonzero;stroke:none;stroke-width:0.7671"
       id="text32"
       x="49.985188"
       y="253.49902"><tspan
         x="49.985188 54.863941 57.303318"
         y="253.49902"
         sodipodi:role="line"
         id="tspan30"
         style="stroke-width:0.7671">0.0</tspan></text><text
       style="font-variant:normal;font-weight:normal;font-size:7.671px;font-family:'DejaVu Sans';-inkscape-font-specification:DejaVuSans;writing-mode:lr-tb;fill:#000000;fill-opacity:1;fill-rule:nonzero;stroke:none;stroke-width:0.7671"
       id="text50"
       x="104.77451"
       y="253.49902"><tspan
         x="104.77451 109.65327 112.09265"
         y="253.49902"
         sodipodi:role="line"
         id="tspan48"
         style="stroke-width:0.7671">0.2</tspan></text><text
       style="font-variant:normal;font-weight:normal;font-size:7.671px;font-family:'DejaVu Sans';-inkscape-font-specification:DejaVuSans;writing-mode:lr-tb;fill:#000000;fill-opacity:1;fill-rule:nonzero;stroke:none;stroke-width:0.7671"
       id="text68"
       x="159.56386"
       y="253.49902"><tspan
         x="159.56386 164.44261 166.882"
         y="253.49902"
         sodipodi:role="line"
         id="tspan66"
         style="stroke-width:0.7671">0.4</tspan></text><text
       style="font-variant:normal;font-weight:normal;font-size:7.671px;font-family:'DejaVu Sans';-inkscape-font-specification:DejaVuSans;writing-mode:lr-tb;fill:#000000;fill-opacity:1;fill-rule:nonzero;stroke:none;stroke-width:0.7671"
       id="text86"
       x="214.3532"
       y="253.49902"><tspan
         x="214.3532 219.23195 221.67133"
         y="253.49902"
         sodipodi:role="line"
         id="tspan84"
         style="stroke-width:0.7671">0.6</tspan></text><text
       style="font-variant:normal;font-weight:normal;font-size:7.671px;font-family:'DejaVu Sans';-inkscape-font-specification:DejaVuSans;writing-mode:lr-tb;fill:#000000;fill-opacity:1;fill-rule:nonzero;stroke:none;stroke-width:0.7671"
       id="text104"
       x="269.14255"
       y="253.49902"><tspan
         x="269.14255 274.0213 276.46069"
         y="253.49902"
         sodipodi:role="line"
         id="tspan102"
         style="stroke-width:0.7671">0.8</tspan></text><text
       style="font-variant:normal;font-weight:normal;font-size:7.671px;font-family:'DejaVu Sans';-inkscape-font-specification:DejaVuSans;writing-mode:lr-tb;fill:#000000;fill-opacity:1;fill-rule:nonzero;stroke:none;stroke-width:0.7671"
       id="text122"
       x="323.93188"
       y="253.49902"><tspan
         x="323.93188 328.81061 331.25"
         y="253.49902"
         sodipodi:role="line"
         id="tspan120"
         style="stroke-width:0.7671">1.0</tspan></text><text
       style="font-variant:normal;font-weight:normal;font-size:7.671px;font-family:'DejaVu Sans';-inkscape-font-specification:DejaVuSans;writing-mode:lr-tb;fill:#000000;fill-opacity:1;fill-rule:nonzero;stroke:none;stroke-width:0.7671"
       id="text126"
       x="146.63184"
       y="263.987"><tspan
         x="146.63184 152.57687 157.29454 162.15794 166.8526 174.32414 176.45668 180.67574 183.11513 187.98619 190.11873 194.11534 197.12236 201.82468 206.6881 210.90714 215.6248 218.06419 220.64931 223.08868 229.70876 234.57983"
         y="263.987"
         sodipodi:role="line"
         id="tspan124"
         style="stroke-width:0.7671">Genomic distance / Mbp</tspan></text><text
       style="font-variant:normal;font-weight:normal;font-size:7.671px;font-family:'DejaVu Sans';-inkscape-font-specification:DejaVuSans;writing-mode:lr-tb;fill:#000000;fill-opacity:1;fill-rule:nonzero;stroke:none;stroke-width:0.7671"
       id="text144"
       x="38.514648"
       y="226.65907"><tspan
         x="38.514648 43.393402 45.832779"
         y="226.65907"
         sodipodi:role="line"
         id="tspan142"
         style="stroke-width:0.7671">0.5</tspan></text><text
       style="font-variant:normal;font-weight:normal;font-size:7.671px;font-family:'DejaVu Sans';-inkscape-font-specification:DejaVuSans;writing-mode:lr-tb;fill:#000000;fill-opacity:1;fill-rule:nonzero;stroke:none;stroke-width:0.7671"
       id="text162"
       x="38.514648"
       y="189.54372"><tspan
         x="38.514648 43.393402 45.832779"
         y="189.54372"
         sodipodi:role="line"
         id="tspan160"
         style="stroke-width:0.7671">0.6</tspan></text><text
       style="font-variant:normal;font-weight:normal;font-size:7.671px;font-family:'DejaVu Sans';-inkscape-font-specification:DejaVuSans;writing-mode:lr-tb;fill:#000000;fill-opacity:1;fill-rule:nonzero;stroke:none;stroke-width:0.7671"
       id="text180"
       x="38.514648"
       y="152.42836"><tspan
         x="38.514648 43.393402 45.832779"
         y="152.42836"
         sodipodi:role="line"
         id="tspan178"
         style="stroke-width:0.7671">0.7</tspan></text><text
       style="font-variant:normal;font-weight:normal;font-size:7.671px;font-family:'DejaVu Sans';-inkscape-font-specification:DejaVuSans;writing-mode:lr-tb;fill:#000000;fill-opacity:1;fill-rule:nonzero;stroke:none;stroke-width:0.7671"
       id="text198"
       x="38.514648"
       y="115.31313"><tspan
         x="38.514648 43.393402 45.832779"
         y="115.31313"
         sodipodi:role="line"
         id="tspan196"
         style="stroke-width:0.7671">0.8</tspan></text><text
       style="font-variant:normal;font-weight:normal;font-size:7.671px;font-family:'DejaVu Sans';-inkscape-font-specification:DejaVuSans;writing-mode:lr-tb;fill:#000000;fill-opacity:1;fill-rule:nonzero;stroke:none;stroke-width:0.7671"
       id="text216"
       x="38.514648"
       y="78.197777"><tspan
         x="38.514648 43.393402 45.832779"
         y="78.197777"
         sodipodi:role="line"
         id="tspan214"
         style="stroke-width:0.7671">0.9</tspan></text><text
       style="font-variant:normal;font-weight:normal;font-size:7.671px;font-family:'DejaVu Sans';-inkscape-font-specification:DejaVuSans;writing-mode:lr-tb;fill:#000000;fill-opacity:1;fill-rule:nonzero;stroke:none;stroke-width:0.7671"
       id="text234"
       x="38.514648"
       y="41.082355"><tspan
         x="38.514648 43.393402 45.832779"
         y="41.082355"
         sodipodi:role="line"
         id="tspan232"
         style="stroke-width:0.7671">1.0</tspan></text><text
       transform="rotate(-90)"
       style="font-variant:normal;font-weight:normal;font-size:7.671px;font-family:'DejaVu Sans';-inkscape-font-specification:DejaVuSans;writing-mode:lr-tb;fill:#000000;fill-opacity:1;fill-rule:nonzero;stroke:none;stroke-width:0.7671"
       id="text238"
       x="-177.29745"
       y="33.852119"><tspan
         x="-177.29745 -172.67183 -167.95416 -163.25185 -160.09908 -156.10248 -151.40782 -146.5444 -144.10504 -139.88599 -135.19133 -132.03856 -128.88579 -124.16824 -122.03574 -117.3334 -114.32637 -112.19382 -107.49921"
         y="33.852119"
         sodipodi:role="line"
         id="tspan236"
         style="stroke-width:0.7671">Pearson correlation</tspan></text><text
       style="font-variant:normal;font-weight:normal;font-size:9.20519px;font-family:'DejaVu Sans';-inkscape-font-specification:DejaVuSans;writing-mode:lr-tb;fill:#000000;fill-opacity:1;fill-rule:nonzero;stroke:none;stroke-width:0.7671"
       id="text302"
       x="98.328537"
       y="23.249708"><tspan
         x="98.328537 103.87926 109.54047 115.18325 118.96658 123.7625 129.39607 135.23218 138.15944 143.22229 148.85587 152.63921 156.42253 162.08374 164.64279 170.28558 173.894 176.45305 182.08664 187.92271 190.84999 196.29945 201.09537 204.02261 206.94987 212.79517 218.45638 224.29245 229.92604 238.89191 241.45096 246.51381 249.44107 255.28636 257.8454 262.6413 266.24976 271.89255 277.72861 282.79147"
         y="23.249708"
         sodipodi:role="line"
         id="tspan300"
         style="stroke-width:0.7671">Pearson correlation vs. genomic distance</tspan></text><text
       style="font-variant:normal;font-weight:normal;font-size:9.20519px;font-family:'DejaVu Sans';-inkscape-font-specification:DejaVuSans;writing-mode:lr-tb;fill:#000000;fill-opacity:1;fill-rule:nonzero;stroke:none;stroke-width:0.7671"
       id="text306"
       x="155.15985"
       y="33.567173"><tspan
         x="155.15985 161.58507 167.42116 171.2045 176.83809 185.80394 191.43752 196.23343 201.86702 210.83287 216.49408 219.42134 225.27583"
         y="33.567173"
         sodipodi:role="line"
         id="tspan304"
         style="stroke-width:0.7671">Chromosome 14</tspan></text><text
       style="font-variant:normal;font-weight:normal;font-size:7.67098px;font-family:'DejaVu Sans';-inkscape-font-specification:DejaVuSans;writing-mode:lr-tb;fill:#000000;fill-opacity:1;fill-rule:nonzero;stroke:none;stroke-width:0.767098"
       id="text312"
       x="84.468719"
       y="187.24023"><tspan
         x="84.468719 90.375389 96.113289 101.8512 106.72996 111.60871 114.04809 116.48746 121.36622 126.24496 130.68649 133.12585 135.711 138.15038 143.39734 149.01251 154.36687 156.95198 159.39134 164.27011 166.70949 171.58824 176.467"
         y="187.24023"
         sodipodi:role="line"
         id="tspan310"
         style="stroke-width:0.767098">DNN80, 25k / AUC: 0.698</tspan></text><text
       style="font-variant:normal;font-weight:normal;font-size:7.67098px;font-family:'DejaVu Sans';-inkscape-font-specification:DejaVuSans;writing-mode:lr-tb;fill:#000000;fill-opacity:1;fill-rule:nonzero;stroke:none;stroke-width:0.767098"
       id="text318"
       x="84.468719"
       y="198.49503"><tspan
         x="84.468719 90.413742 95.660713 101.39861 106.27737 111.15612 116.03488 118.47427 120.91363 125.7924 130.67114 135.11264 137.55202 140.13716 142.57654 147.8235 153.43867 158.79303 161.37814 163.81754 168.69627 171.13565 176.01442 180.89317"
         y="198.49503"
         sodipodi:role="line"
         id="tspan316"
         style="stroke-width:0.767098">GAN256, 25k / AUC: 0.773</tspan></text><text
       style="font-variant:normal;font-weight:normal;font-size:7.67098px;font-family:'DejaVu Sans';-inkscape-font-specification:DejaVuSans;writing-mode:lr-tb;fill:#000000;fill-opacity:1;fill-rule:nonzero;stroke:none;stroke-width:0.767098"
       id="text324"
       x="84.468719"
       y="209.74982"><tspan
         x="84.468719 91.088791 96.703957 100.97671 105.6637 107.92664 113.281 118.12906 122.40181 126.67455 129.11394 131.55331 136.43205 139.20129 144.07239 148.7747 153.64578 158.51686 163.23453 168.10561 170.54498 172.98438 177.86313 182.74187 187.18338 189.62277 192.2079 194.64728 199.89424 205.5094 210.86375 213.44887 215.88828 220.767 223.20639 228.08516 232.9639"
         y="209.74982"
         sodipodi:role="line"
         id="tspan322"
         style="stroke-width:0.767098">MULTICELL, 0-padded, 25k / AUC: 0.876</tspan></text><text
       style="font-variant:normal;font-weight:normal;font-size:7.67098px;font-family:'DejaVu Sans';-inkscape-font-specification:DejaVuSans;writing-mode:lr-tb;fill:#000000;fill-opacity:1;fill-rule:nonzero;stroke:none;stroke-width:0.767098"
       id="text330"
       x="84.468719"
       y="221.00461"><tspan
         x="84.468719 92.055328 94.318275 100.05618 105.96286 111.99992 119.58655 122.02593 124.4653 129.34406 132.1133 136.98438 141.68671 146.5578 151.42886 156.14655 161.01759 163.457 165.89636 170.77513 175.65387 180.0954 182.53476 185.11989 187.55928 192.80623 198.42142 203.77576 206.36089 208.80025 213.67902 216.11839 220.99713 225.8759"
         y="221.00461"
         sodipodi:role="line"
         id="tspan328"
         style="stroke-width:0.767098">WINDOW, 0-padded, 25k / AUC: 0.752</tspan></text></g></svg>
