<?xml version="1.0" encoding="UTF-8" standalone="no"?>
<svg
   xmlns:dc="http://purl.org/dc/elements/1.1/"
   xmlns:cc="http://creativecommons.org/ns#"
   xmlns:rdf="http://www.w3.org/1999/02/22-rdf-syntax-ns#"
   xmlns:svg="http://www.w3.org/2000/svg"
   xmlns="http://www.w3.org/2000/svg"
   xmlns:sodipodi="http://sodipodi.sourceforge.net/DTD/sodipodi-0.dtd"
   xmlns:inkscape="http://www.inkscape.org/namespaces/inkscape"
   version="1.1"
   id="svg2"
   xml:space="preserve"
   width="80mm"
   height="65.300003mm"
   viewBox="0 0 302.3622 246.80316"
   sodipodi:docname="pearson_chr14_overview_25k.svg"
   inkscape:version="1.0.2 (1.0.2+r75+1)"><metadata
     id="metadata8"><rdf:RDF><cc:Work
         rdf:about=""><dc:format>image/svg+xml</dc:format><dc:type
           rdf:resource="http://purl.org/dc/dcmitype/StillImage" /><dc:title></dc:title></cc:Work></rdf:RDF></metadata><defs
     id="defs6"><clipPath
       clipPathUnits="userSpaceOnUse"
       id="clipPath22"><path
         d="M 57.6,38.016 H 414.72 V 304.128 H 57.6 Z"
         id="path20" /></clipPath><clipPath
       clipPathUnits="userSpaceOnUse"
       id="clipPath40"><path
         d="M 57.6,38.016 H 414.72 V 304.128 H 57.6 Z"
         id="path38" /></clipPath><clipPath
       clipPathUnits="userSpaceOnUse"
       id="clipPath58"><path
         d="M 57.6,38.016 H 414.72 V 304.128 H 57.6 Z"
         id="path56" /></clipPath><clipPath
       clipPathUnits="userSpaceOnUse"
       id="clipPath76"><path
         d="M 57.6,38.016 H 414.72 V 304.128 H 57.6 Z"
         id="path74" /></clipPath><clipPath
       clipPathUnits="userSpaceOnUse"
       id="clipPath94"><path
         d="M 57.6,38.016 H 414.72 V 304.128 H 57.6 Z"
         id="path92" /></clipPath><clipPath
       clipPathUnits="userSpaceOnUse"
       id="clipPath112"><path
         d="M 57.6,38.016 H 414.72 V 304.128 H 57.6 Z"
         id="path110" /></clipPath><clipPath
       clipPathUnits="userSpaceOnUse"
       id="clipPath130"><path
         d="M 57.6,38.016 H 414.72 V 304.128 H 57.6 Z"
         id="path128" /></clipPath><clipPath
       clipPathUnits="userSpaceOnUse"
       id="clipPath152"><path
         d="M 57.6,38.016 H 414.72 V 304.128 H 57.6 Z"
         id="path150" /></clipPath><clipPath
       clipPathUnits="userSpaceOnUse"
       id="clipPath174"><path
         d="M -1021,-463 H 1794 V 1233 H -1021 Z"
         id="path172" /></clipPath><clipPath
       clipPathUnits="userSpaceOnUse"
       id="clipPath184"><path
         d="M 57.6,38.016 H 414.72 V 304.128 H 57.6 Z"
         id="path182" /></clipPath><clipPath
       clipPathUnits="userSpaceOnUse"
       id="clipPath202"><path
         d="M 57.6,38.016 H 414.72 V 304.128 H 57.6 Z"
         id="path200" /></clipPath><clipPath
       clipPathUnits="userSpaceOnUse"
       id="clipPath220"><path
         d="M 57.6,38.016 H 414.72 V 304.128 H 57.6 Z"
         id="path218" /></clipPath><clipPath
       clipPathUnits="userSpaceOnUse"
       id="clipPath238"><path
         d="M 57.6,38.016 H 414.72 V 304.128 H 57.6 Z"
         id="path236" /></clipPath><clipPath
       clipPathUnits="userSpaceOnUse"
       id="clipPath256"><path
         d="M 57.6,38.016 H 414.72 V 304.128 H 57.6 Z"
         id="path254" /></clipPath><clipPath
       clipPathUnits="userSpaceOnUse"
       id="clipPath278"><path
         d="M 57.6,38.016 H 414.72 V 304.128 H 57.6 Z"
         id="path276" /></clipPath><clipPath
       clipPathUnits="userSpaceOnUse"
       id="clipPath288"><path
         d="M 57.6,38.016 H 414.72 V 304.128 H 57.6 Z"
         id="path286" /></clipPath><clipPath
       clipPathUnits="userSpaceOnUse"
       id="clipPath298"><path
         d="M 57.6,38.016 H 414.72 V 304.128 H 57.6 Z"
         id="path296" /></clipPath><clipPath
       clipPathUnits="userSpaceOnUse"
       id="clipPath308"><path
         d="M 57.6,38.016 H 414.72 V 304.128 H 57.6 Z"
         id="path306" /></clipPath><clipPath
       clipPathUnits="userSpaceOnUse"
       id="clipPath318"><path
         d="M 57.6,38.016 H 414.72 V 304.128 H 57.6 Z"
         id="path316" /></clipPath></defs><sodipodi:namedview
     pagecolor="#ffffff"
     bordercolor="#666666"
     borderopacity="1"
     objecttolerance="10"
     gridtolerance="10"
     guidetolerance="10"
     inkscape:pageopacity="0"
     inkscape:pageshadow="2"
     inkscape:window-width="1920"
     inkscape:window-height="1020"
     id="namedview4"
     showgrid="false"
     fit-margin-top="0"
     fit-margin-left="0"
     fit-margin-right="0"
     fit-margin-bottom="0"
     units="mm"
     inkscape:zoom="21.041338"
     inkscape:cx="199.84746"
     inkscape:cy="230.21316"
     inkscape:window-x="0"
     inkscape:window-y="0"
     inkscape:window-maximized="1"
     inkscape:current-layer="layer1" /><g
     id="g10"
     inkscape:groupmode="layer"
     inkscape:label="pearson_chr14_overview_25k"
     transform="matrix(1.3333333,0,0,-1.3333333,-16.857292,443.59358)"><path
       d="M 43.039026,171.72536 H 54.305791"
       style="fill:none;stroke:#ff0000;stroke-width:0.845007;stroke-linecap:square;stroke-linejoin:round;stroke-miterlimit:10;stroke-dasharray:none;stroke-opacity:1"
       id="path364" /><g
       id="g16"
       transform="matrix(0.56333822,0,0,0.56333822,5.5207015,142.09708)"><g
         id="g18"
         clip-path="url(#clipPath22)"><path
           d="M 57.6,38.016 V 304.128"
           style="fill:none;stroke:#b0b0b0;stroke-width:0.8;stroke-linecap:square;stroke-linejoin:round;stroke-miterlimit:10;stroke-dasharray:none;stroke-opacity:1"
           id="path24" /></g></g><path
       d="m 37.968982,163.51294 v -1.97168"
       style="fill:#000000;fill-opacity:1;fill-rule:nonzero;stroke:#000000;stroke-width:0.450671;stroke-linecap:butt;stroke-linejoin:round;stroke-miterlimit:10;stroke-dasharray:none;stroke-opacity:1"
       id="path28" /><g
       id="g34"
       transform="matrix(0.56333822,0,0,0.56333822,5.5207015,142.09708)"><g
         id="g36"
         clip-path="url(#clipPath40)"><path
           d="M 113.61882,38.016 V 304.128"
           style="fill:none;stroke:#b0b0b0;stroke-width:0.8;stroke-linecap:square;stroke-linejoin:round;stroke-miterlimit:10;stroke-dasharray:none;stroke-opacity:1"
           id="path42" /></g></g><path
       d="m 69.526525,163.51294 v -1.97168"
       style="fill:#000000;fill-opacity:1;fill-rule:nonzero;stroke:#000000;stroke-width:0.450671;stroke-linecap:butt;stroke-linejoin:round;stroke-miterlimit:10;stroke-dasharray:none;stroke-opacity:1"
       id="path46" /><g
       id="g52"
       transform="matrix(0.56333822,0,0,0.56333822,5.5207015,142.09708)"><g
         id="g54"
         clip-path="url(#clipPath58)"><path
           d="M 169.63765,38.016 V 304.128"
           style="fill:none;stroke:#b0b0b0;stroke-width:0.8;stroke-linecap:square;stroke-linejoin:round;stroke-miterlimit:10;stroke-dasharray:none;stroke-opacity:1"
           id="path60" /></g></g><path
       d="m 101.08407,163.51294 v -1.97168"
       style="fill:#000000;fill-opacity:1;fill-rule:nonzero;stroke:#000000;stroke-width:0.450671;stroke-linecap:butt;stroke-linejoin:round;stroke-miterlimit:10;stroke-dasharray:none;stroke-opacity:1"
       id="path64" /><g
       id="g70"
       transform="matrix(0.56333822,0,0,0.56333822,5.5207015,142.09708)"><g
         id="g72"
         clip-path="url(#clipPath76)"><path
           d="M 225.65647,38.016 V 304.128"
           style="fill:none;stroke:#b0b0b0;stroke-width:0.8;stroke-linecap:square;stroke-linejoin:round;stroke-miterlimit:10;stroke-dasharray:none;stroke-opacity:1"
           id="path78" /></g></g><path
       d="m 132.64161,163.51294 v -1.97168"
       style="fill:#000000;fill-opacity:1;fill-rule:nonzero;stroke:#000000;stroke-width:0.450671;stroke-linecap:butt;stroke-linejoin:round;stroke-miterlimit:10;stroke-dasharray:none;stroke-opacity:1"
       id="path82" /><g
       id="g88"
       transform="matrix(0.56333822,0,0,0.56333822,5.5207015,142.09708)"><g
         id="g90"
         clip-path="url(#clipPath94)"><path
           d="M 281.67529,38.016 V 304.128"
           style="fill:none;stroke:#b0b0b0;stroke-width:0.8;stroke-linecap:square;stroke-linejoin:round;stroke-miterlimit:10;stroke-dasharray:none;stroke-opacity:1"
           id="path96" /></g></g><path
       d="m 164.19915,163.51294 v -1.97168"
       style="fill:#000000;fill-opacity:1;fill-rule:nonzero;stroke:#000000;stroke-width:0.450671;stroke-linecap:butt;stroke-linejoin:round;stroke-miterlimit:10;stroke-dasharray:none;stroke-opacity:1"
       id="path100" /><g
       id="g106"
       transform="matrix(0.56333822,0,0,0.56333822,5.5207015,142.09708)"><g
         id="g108"
         clip-path="url(#clipPath112)"><path
           d="M 337.69412,38.016 V 304.128"
           style="fill:none;stroke:#b0b0b0;stroke-width:0.8;stroke-linecap:square;stroke-linejoin:round;stroke-miterlimit:10;stroke-dasharray:none;stroke-opacity:1"
           id="path114" /></g></g><path
       d="m 195.75671,163.51294 v -1.97168"
       style="fill:#000000;fill-opacity:1;fill-rule:nonzero;stroke:#000000;stroke-width:0.450671;stroke-linecap:butt;stroke-linejoin:round;stroke-miterlimit:10;stroke-dasharray:none;stroke-opacity:1"
       id="path118" /><g
       id="g124"
       transform="matrix(0.56333822,0,0,0.56333822,5.5207015,142.09708)"><g
         id="g126"
         clip-path="url(#clipPath130)"><path
           d="M 393.71294,38.016 V 304.128"
           style="fill:none;stroke:#b0b0b0;stroke-width:0.8;stroke-linecap:square;stroke-linejoin:round;stroke-miterlimit:10;stroke-dasharray:none;stroke-opacity:1"
           id="path132" /></g></g><path
       d="m 227.31425,163.51294 v -1.97168"
       style="fill:#000000;fill-opacity:1;fill-rule:nonzero;stroke:#000000;stroke-width:0.450671;stroke-linecap:butt;stroke-linejoin:round;stroke-miterlimit:10;stroke-dasharray:none;stroke-opacity:1"
       id="path136" /><g
       id="g146"
       transform="matrix(0.56333822,0,0,0.56333822,5.5207015,142.09708)"><g
         id="g148"
         clip-path="url(#clipPath152)"><path
           d="M 57.6,55.399939 H 414.72"
           style="fill:none;stroke:#b0b0b0;stroke-width:0.8;stroke-linecap:square;stroke-linejoin:round;stroke-miterlimit:10;stroke-dasharray:none;stroke-opacity:1"
           id="path154" /></g></g><path
       d="M 37.968982,173.30598 H 35.997298"
       style="fill:#000000;fill-opacity:1;fill-rule:nonzero;stroke:#000000;stroke-width:0.450671;stroke-linecap:butt;stroke-linejoin:round;stroke-miterlimit:10;stroke-dasharray:none;stroke-opacity:1"
       id="path158" /><g
       id="g178"
       transform="matrix(0.56333822,0,0,0.56333822,5.5207015,142.09708)"><g
         id="g180"
         clip-path="url(#clipPath184)"><path
           d="M 57.6,97.538981 H 414.72"
           style="fill:none;stroke:#b0b0b0;stroke-width:0.8;stroke-linecap:square;stroke-linejoin:round;stroke-miterlimit:10;stroke-dasharray:none;stroke-opacity:1"
           id="path186" /></g></g><path
       d="M 37.968982,197.04452 H 35.997298"
       style="fill:#000000;fill-opacity:1;fill-rule:nonzero;stroke:#000000;stroke-width:0.450671;stroke-linecap:butt;stroke-linejoin:round;stroke-miterlimit:10;stroke-dasharray:none;stroke-opacity:1"
       id="path190" /><g
       id="g196"
       transform="matrix(0.56333822,0,0,0.56333822,5.5207015,142.09708)"><g
         id="g198"
         clip-path="url(#clipPath202)"><path
           d="M 57.6,139.67802 H 414.72"
           style="fill:none;stroke:#b0b0b0;stroke-width:0.8;stroke-linecap:square;stroke-linejoin:round;stroke-miterlimit:10;stroke-dasharray:none;stroke-opacity:1"
           id="path204" /></g></g><path
       d="M 37.968982,220.78304 H 35.997298"
       style="fill:#000000;fill-opacity:1;fill-rule:nonzero;stroke:#000000;stroke-width:0.450671;stroke-linecap:butt;stroke-linejoin:round;stroke-miterlimit:10;stroke-dasharray:none;stroke-opacity:1"
       id="path208" /><g
       id="g214"
       transform="matrix(0.56333822,0,0,0.56333822,5.5207015,142.09708)"><g
         id="g216"
         clip-path="url(#clipPath220)"><path
           d="M 57.6,181.81707 H 414.72"
           style="fill:none;stroke:#b0b0b0;stroke-width:0.8;stroke-linecap:square;stroke-linejoin:round;stroke-miterlimit:10;stroke-dasharray:none;stroke-opacity:1"
           id="path222" /></g></g><path
       d="M 37.968982,244.52158 H 35.997298"
       style="fill:#000000;fill-opacity:1;fill-rule:nonzero;stroke:#000000;stroke-width:0.450671;stroke-linecap:butt;stroke-linejoin:round;stroke-miterlimit:10;stroke-dasharray:none;stroke-opacity:1"
       id="path226" /><g
       id="g232"
       transform="matrix(0.56333822,0,0,0.56333822,5.5207015,142.09708)"><g
         id="g234"
         clip-path="url(#clipPath238)"><path
           d="M 57.6,223.95611 H 414.72"
           style="fill:none;stroke:#b0b0b0;stroke-width:0.8;stroke-linecap:square;stroke-linejoin:round;stroke-miterlimit:10;stroke-dasharray:none;stroke-opacity:1"
           id="path240" /></g></g><path
       d="M 37.968982,268.26011 H 35.997298"
       style="fill:#000000;fill-opacity:1;fill-rule:nonzero;stroke:#000000;stroke-width:0.450671;stroke-linecap:butt;stroke-linejoin:round;stroke-miterlimit:10;stroke-dasharray:none;stroke-opacity:1"
       id="path244" /><g
       id="g250"
       transform="matrix(0.56333822,0,0,0.56333822,5.5207015,142.09708)"><g
         id="g252"
         clip-path="url(#clipPath256)"><path
           d="M 57.6,266.09515 H 414.72"
           style="fill:none;stroke:#b0b0b0;stroke-width:0.8;stroke-linecap:square;stroke-linejoin:round;stroke-miterlimit:10;stroke-dasharray:none;stroke-opacity:1"
           id="path258" /></g></g><path
       d="M 37.968982,291.99865 H 35.997298"
       style="fill:#000000;fill-opacity:1;fill-rule:nonzero;stroke:#000000;stroke-width:0.450671;stroke-linecap:butt;stroke-linejoin:round;stroke-miterlimit:10;stroke-dasharray:none;stroke-opacity:1"
       id="path262" /><g
       id="g272"
       transform="matrix(0.56333822,0,0,0.56333822,5.5207015,142.09708)"><g
         id="g274"
         clip-path="url(#clipPath278)"><path
           d="m 57.6,288.93894 1.400471,-0.42841 1.40047,-7.60077 1.400471,-6.50197 1.40047,-1.70563 1.400471,-3.04265 1.400471,-4.3708 1.40047,-3.41984 1.400471,-0.62828 1.40047,-1.58935 1.400471,-0.80553 1.40047,-2.74001 1.400471,-0.39035 1.400471,-1.1225 1.40047,-2.37609 1.400471,-3.36676 1.40047,-1.21203 1.400471,-3.14818 1.400471,-2.79042 1.40047,-0.91707 1.400471,-1.81263 1.40047,-1.31242 1.400471,-3.83355 1.400471,-1.75079 1.40047,-3.17908 1.400471,0.86462 1.40047,0.62793 1.400471,-1.17583 1.40047,1.23883 1.400471,1.81497 1.400471,-3.26307 1.400472,-0.12483 1.40047,0.52929 1.40047,0.49633 1.40047,-0.28852 1.40047,-4.91696 1.40047,-3.37846 1.40047,3.6403 1.40047,-1.06918 1.40047,1.47274 1.40047,-0.80511 1.40047,-1.35503 1.40048,0.16048 1.40046,0.25364 1.40048,-2.96124 1.40047,3.91715 1.40047,-2.84973 1.40047,-0.59592 1.40047,1.09852 1.40047,0.66379 1.40047,-3.61003 1.40047,2.03243 1.40047,-0.96883 1.40047,0.40625 1.40047,1.30934 1.40047,-4.5273 1.40047,1.8422 1.40047,-1.39297 1.40047,-2.44519 1.40047,-1.41141 1.40048,2.28272 1.40047,1.86678 1.40047,-0.42666 1.40047,-1.94271 1.40047,-1.0962 1.40047,1.20111 1.40047,0.1929 1.40047,-2.32207 1.40047,0.4294 1.40047,-7.91355 1.40047,0.55446 1.40047,4.45333 1.40047,0.49366 1.40047,-2.38828 1.40047,0.90035 1.40047,-2.12728 1.40047,0.19305 1.40047,1.03445 1.40048,-6.27571 1.40047,1.72282"
           style="fill:none;stroke:#0000ff;stroke-width:1.5;stroke-linecap:square;stroke-linejoin:round;stroke-miterlimit:10;stroke-dasharray:none;stroke-opacity:1"
           id="path280" /></g></g><g
       id="g284"
       clip-path="url(#clipPath288)"
       transform="matrix(0.56333822,0,0,0.56333822,5.5207015,142.09708)"><path
         d="m 57.6,285.91947 1.400471,-1.49567 1.40047,-5.76906 1.400471,-2.79482 1.40047,1.51544 1.400471,-0.15943 1.400471,-1.69491 1.40047,-2.84083 1.400471,-0.64207 1.40047,-0.1838 1.400471,-1.22049 1.40047,-2.79811 2.800942,-2.00466 1.40047,-2.52064 1.400471,-3.34401 1.40047,-0.88288 1.400471,-1.27176 1.400471,-3.22333 1.40047,-2.4716 1.400471,0.67064 1.40047,-0.99377 1.400471,-2.41802 1.400471,-0.52238 1.40047,-3.90223 1.400471,1.90864 1.40047,0.5953 1.400471,-0.46759 1.40047,2.26568 1.400471,0.1717 1.400471,-2.29656 1.400472,1.07058 1.40047,-1.14515 1.40047,3.09179 1.40047,0.0725 1.40047,-2.07628 1.40047,-0.5707 1.40047,3.39314 1.40047,-1.44841 1.40047,-0.48866 1.40047,1.04427 1.40047,-6.13009 1.40048,1.29339 2.80094,-2.41336 1.40047,1.022 1.40047,-0.44086 1.40047,-0.63405 1.40047,0.83112 1.40047,-2.56652 1.40047,-0.87928 1.40047,3.18803 1.40047,-1.51171 1.40047,3.37025 1.40047,-1.02594 1.40047,-3.9657 1.40047,0.56735 1.40047,0.70957 1.40047,-4.04779 1.40047,-1.40768 1.40048,0.58267 1.40047,3.22623 1.40047,-1.28817 1.40047,-3.81942 1.40047,1.61063 1.40047,0.15783 1.40047,-2.20279 1.40047,-0.0583 1.40047,-0.96786 1.40047,-4.48466 1.40047,-3.65283 1.40047,6.99024 1.40047,-1.1882 1.40047,0.0906 1.40047,-0.0477 1.40047,-0.18093 1.40047,-2.04874 1.40047,1.7932 1.40048,-2.86986 1.40047,0.71797 1.40047,2.5395 1.40047,-0.98524 1.40047,-2.04415 1.40047,-0.79994 1.40047,-5.19225 1.40047,-1.55483 1.40047,3.25992 1.40047,-1.71912 1.40047,-1.52229 1.40047,-0.25043 1.40047,3.89466 1.40047,-0.93 1.40047,3.20393 1.40047,-4.37195 1.40047,4.88645 1.40048,-1.93565 1.40047,2.82104 1.40047,0.0971 1.40047,-3.01903 1.40047,2.99542 1.40047,2.20332 2.80094,-5.53489 1.40047,5.72982 1.40047,-1.91412 1.40047,-2.61214 1.40047,1.48342 1.40047,3.2517 1.40047,-3.80561 1.40047,3.1563 1.40047,-0.24424 1.40048,1.91092 1.40047,-1.85784 1.40047,1.83455 1.40047,1.02566 1.40047,-2.06545 1.40047,-3.51339 1.40047,1.72427 1.40047,-1.20954 2.80094,-3.06565 1.40047,4.05425 1.40047,-4.06228 1.40047,3.50657 1.40047,-1.21483 1.40047,0.71459 1.40047,0.35876 1.40047,-5.33757 1.40048,0.4692 2.80094,2.59652 1.40047,0.23803 1.40047,4.70924 1.40047,-4.25184 1.40047,-3.21063 1.40047,3.97612 1.40047,1.9648 1.40047,-5.26727 1.40047,3.21406 1.40047,-4.13281 1.40047,2.05904 1.40047,-3.99189 1.40047,0.88785 1.40047,5.79698 1.40047,-4.57254 1.40047,-0.61996 1.40048,4.1085 1.40047,-3.64939 2.80094,-2.98775 1.40047,-1.13629 1.40047,-1.45294 1.40047,0.006 1.40047,3.90511 1.40047,-6.01818 1.40047,6.44037 1.40047,-7.38065 1.40047,-0.0343 1.40047,3.32417 1.40047,-2.96239 1.40047,-2.5854 1.40047,-0.40263 1.40047,1.6185 1.40048,-5.87272 1.40047,5.88653 1.40047,-1.64947 1.40047,-0.30555 1.40047,-6.04754 1.40047,2.30887 1.40047,-3.29021 1.40047,1.00878 1.40047,7.61058 1.40047,-5.69057 1.40047,8.02837 1.40047,-5.19025 1.40047,-0.55991 1.40047,0.75573 1.40047,1.76418 1.40047,-0.48755 1.40047,2.4956 1.40048,-1.11306 1.40047,-1.84228 1.40047,-2.22604 1.40047,2.03772 1.40047,-2.36305 1.40047,2.29758 1.40047,-0.0348 1.40047,2.35025 1.40047,-8.85422 1.40047,6.20902 1.40047,-6.76182 1.40047,3.44846 1.40047,2.50137 1.40047,-4.44066 1.40047,-2.32851 1.40047,3.65296 1.40047,-5.66971 1.40048,4.31537 1.40047,-6.0836 2.80094,5.43518 1.40047,-5.35386 2.80094,0.0704 1.40047,1.80605 1.40047,-2.21045 1.40047,-0.78914 1.40047,4.14047 1.40047,-5.81679 1.40047,-0.68037 1.40047,2.90406 1.40047,-2.03611 1.40047,-0.86055 1.40047,-0.5359 1.40048,2.30088 1.40047,-2.4988 1.40047,-1.29969 1.40047,0.13213 1.40047,1.49371 1.40047,0.4856 1.40047,-1.38495 1.40047,4.87921 1.40047,-9.71673 1.40047,3.30088 1.40047,4.07975 1.40047,-1.10978 1.40047,-3.59132 1.40047,-0.51538 1.40047,2.48485 1.40048,-0.77455 1.40046,-3.42211 1.40048,1.03344 1.40047,-4.60815 1.40047,-0.82761 1.40047,1.79994 1.40047,-6.68448 1.40047,-1.82028 2.80094,-5.67016 1.40047,-13.01319 1.40047,-103.668961 1.40047,-0.779144 1.40047,-1.686996 1.40047,-0.478604 1.40047,0.756219 1.40047,0.516929 1.40047,-0.970838 1.40047,-0.463835 1.40048,0.520057 1.40047,-0.413303 1.40047,1.641779 1.40047,1.323507 1.40047,-3.372184 1.40047,2.655441 1.40047,-2.086635 1.40047,-3.304872 v 0"
         style="fill:none;stroke:#87ceeb;stroke-width:1.5;stroke-linecap:square;stroke-linejoin:round;stroke-miterlimit:10;stroke-dasharray:none;stroke-opacity:1"
         id="path290" /></g><g
       id="g294"
       clip-path="url(#clipPath298)"
       transform="matrix(0.56333822,0,0,0.56333822,5.5207015,142.09708)"><path
         d="m 57.6,244.74334 1.400471,-2.13235 1.40047,9.00144 1.400471,6.49915 1.40047,7.61104 1.400471,3.73876 1.400471,3.53354 1.40047,1.68238 1.400471,2.72248 1.40047,2.22798 1.400471,2.32254 1.40047,5.7e-4 1.400471,2.80042 1.400471,1.91584 1.40047,0.0164 1.400471,-1.6571 1.40047,1.15555 1.400471,-1.98949 1.400471,0.0533 1.40047,1.62541 1.400471,-0.3075 1.40047,0.73449 1.400471,-2.05591 1.400471,-1.11502 1.40047,0.61451 1.400471,4.8562 1.40047,1.15253 1.400471,0.42878 1.40047,0.95745 1.400471,0.32538 1.400471,-0.61228 1.400472,0.0119 1.40047,0.64928 1.40047,0.20675 1.40047,0.0702 1.40047,-2.3735 1.40047,-0.80902 1.40047,2.25897 1.40047,0.1108 1.40047,1.05677"
         style="fill:none;stroke:#7cfc00;stroke-width:1.5;stroke-linecap:square;stroke-linejoin:round;stroke-miterlimit:10;stroke-dasharray:none;stroke-opacity:1"
         id="path300" /></g><g
       id="g304"
       clip-path="url(#clipPath308)"
       transform="matrix(0.56333822,0,0,0.56333822,5.5207015,142.09708)"><path
         d="m 57.6,254.05434 1.400471,-8.01102 1.40047,1.89658 1.400471,4.54086 1.40047,5.35769 1.400471,2.36953 1.400471,1.84585 1.40047,-0.75152 1.400471,1.1835 1.40047,0.11263 1.400471,0.82329 1.40047,-2.45778 1.400471,1.71135 1.400471,0.2983 1.40047,-2.2776 1.400471,-3.50528 1.40047,0.85769 1.400471,-2.03865 1.400471,-1.82986 1.40047,0.22228 1.400471,-1.66104 1.40047,0.099 1.400471,-2.49831 1.400471,-2.86637 1.40047,0.38399 1.400471,4.74865 1.40047,3.58733 1.400471,0.63986 1.40047,1.06266 1.400471,-0.34135 1.400471,-1.1909 1.400472,-0.0389 1.40047,-0.60932 1.40047,-0.66101 1.40047,0.16227 1.40047,-2.34838 1.40047,-1.58133 1.40047,3.34649 1.40047,2.30676 1.40047,2.12712"
         style="fill:none;stroke:#006400;stroke-width:1.5;stroke-linecap:square;stroke-linejoin:round;stroke-miterlimit:10;stroke-dasharray:none;stroke-opacity:1"
         id="path310" /></g><g
       id="g314"
       clip-path="url(#clipPath318)"
       transform="matrix(0.56333822,0,0,0.56333822,5.5207015,142.09708)"><path
         d="m 57.6,291.68791 1.400471,-7.00295 1.40047,-4.13734 1.400471,0.43157 1.40047,0.19771 1.400471,-0.42958 1.400471,0.39603 1.40047,1.48254 1.400471,-0.80572 1.40047,-0.0289 1.400471,-0.68845 1.40047,-1.42705 1.400471,-3.41995 1.400471,-0.41374 1.40047,-2.25703 1.400471,-1.10803 1.40047,-2.93521 2.800942,-3.06194 1.40047,-4.44814 1.400471,-1.77835 1.40047,0.81481 1.400471,-0.57555 1.400471,2.92272 1.40047,1.13613 1.400471,6.44373 1.40047,1.14137 1.400471,-0.44105 2.800941,-3.62 1.400471,0.5756 1.400472,-2.96366 1.40047,-0.40486 1.40047,-2.075 1.40047,-2.42389 1.40047,3.61293 1.40047,-1.5908 1.40047,-5.4283 1.40047,0.28928 1.40047,-0.88452 1.40047,1.1974 1.40047,-3.01684 1.40048,-1.77842 1.40046,0.22562 1.40048,0.56418 1.40047,-0.46778 1.40047,-1.95558 1.40047,-3.53711 1.40047,4.50655 1.40047,-5.3098 1.40047,-0.12974 1.40047,-0.38383 1.40047,-4.79164 1.40047,3.6067 1.40047,0.16636 1.40047,-1.05648 1.40047,-1.3012 1.40047,4.12847 1.40047,0.0692 1.40047,1.7845 1.40048,-4.73336 1.40047,4.0433 1.40047,-1.73523 1.40047,0.4105 1.40047,-1.6942 1.40047,0.72122 1.40047,-3.40409 1.40047,0.22317 1.40047,-0.64694 1.40047,-0.17259 1.40047,7.09781 1.40047,-3.97569 1.40047,-3.40851 1.40047,0.58746 1.40047,1.70933 1.40047,-1.42497 1.40047,2.53698 1.40047,0.64066 1.40048,-3.68876 1.40047,-4.31067 1.40047,5.64976 1.40047,-0.68642 1.40047,3.36654 1.40047,-4.44979 1.40047,0.9381 1.40047,3.55955 1.40047,-2.65429 1.40047,1.48391 1.40047,0.96278 1.40047,-0.36928 1.40047,-3.27085 1.40047,4.86113 1.40047,-2.67346 1.40047,-4.52382 1.40047,2.65771 1.40048,-3.62254 1.40047,-0.91179 1.40047,6.10393 1.40047,-3.70759 1.40047,-2.43656 1.40047,1.8649 1.40047,0.64359 1.40047,1.44455 1.40047,4.845 1.40047,-2.36971 1.40047,0.50206 1.40047,5.43572 1.40047,-0.97364 1.40047,-2.23764 1.40047,-2.83621 1.40047,-5.9236 1.40048,-1.95695 1.40047,-3.78297 1.40047,-3.27028 1.40047,5.72393 1.40047,-5.87549 1.40047,-2.80201 1.40047,-1.74521 1.40047,-2.91009 1.40047,-1.56863 1.40047,0.83801 1.40047,5.2945 1.40047,-6.69702 1.40047,9.13437 1.40047,-8.86366 1.40047,4.65188 1.40047,1.12269 1.40047,-5.63894 1.40048,3.73851 1.40047,-3.46089 1.40047,-2.3551 1.40047,4.62416 1.40047,-2.36174 1.40047,-5.2551 1.40047,1.17991 1.40047,-7.15434 1.40047,8.58463 1.40047,-9.40413 1.40047,4.7134 1.40047,-5.87161 1.40047,1.42408 1.40047,-2.55998 1.40047,2.86395 1.40047,-3.5975 1.40047,2.12952 1.40047,-0.14809 1.40048,-4.76827 1.40047,-1.05068 1.40047,1.78184 1.40047,4.00911 1.40047,-3.69024 1.40047,-5.38052 1.40047,6.02633 1.40047,-1.32235 1.40047,1.82594 1.40047,2.02764 1.40047,-2.73492 1.40047,-8.68842 1.40047,3.86531 1.40047,-2.5981 1.40047,-0.90892 1.40047,0.32506 1.40047,0.77678 1.40048,-6.90739 1.40047,8.75211 1.40047,-2.83162 1.40047,3.42955 1.40047,-2.97938 1.40047,-2.4024 1.40047,2.94198 1.40047,-4.33678 1.40047,-0.20708 1.40047,1.47295 1.40047,4.22722 1.40047,0.74486 1.40047,-1.13525 1.40047,-0.54934 1.40047,-0.71251 1.40047,-0.4061 1.40047,7.18491 1.40048,-3.2086 1.40047,0.77926 1.40047,-6.68385 1.40047,7.9434 1.40047,-0.84473 2.80094,-3.39246 1.40047,6.21935 1.40047,-2.95244 1.40047,0.11971 1.40047,-0.2553 1.40047,-4.03776 1.40047,2.74014 1.40047,0.14552 1.40047,-6.29141 1.40047,5.17478 1.40047,-5.01817 1.40048,6.26247 1.40047,-3.41606 1.40047,6.70419 1.40047,-12.10855 1.40047,6.32561 1.40047,0.68075 1.40047,2.67692 1.40047,-1.79664 1.40047,-6.04611 1.40047,6.97809 1.40047,-2.97081 1.40047,5.53786 1.40047,-5.22415 1.40047,-1.52143 1.40047,7.13019 1.40047,3.64211 1.40047,0.63098 1.40048,7.06922 1.40047,-11.2602 1.40047,5.12286 1.40047,0.54743 1.40047,-0.6546 1.40047,-4.59072 1.40047,7.31764 1.40047,-7.32298 1.40047,9.19006 1.40047,-4.13819 1.40047,3.17842 1.40047,0.84044 1.40047,-5.09885 1.40047,4.00403 1.40047,4.54045 1.40048,2.98403 1.40046,5.59705 1.40048,-4.03876 1.40047,8.45948 1.40047,-6.95709 1.40047,0.89899 2.80094,-2.31863 1.40047,2.86033 1.40047,-6.58646 1.40047,-2.35439 1.40047,5.20733 1.40047,-3.81864 1.40047,-4.26217 1.40047,-1.81021 1.40047,-2.83601 1.40047,-3.35203 1.40047,-4.28227 1.40047,-0.33625 1.40048,-1.50777 1.40047,1.33585 1.40047,-7.32196 1.40047,-2.09158 1.40047,2.76547 1.40047,1.81738 1.40047,-3.53153 1.40047,2.36303 v 0"
         style="fill:none;stroke:#ff0000;stroke-width:1.5;stroke-linecap:square;stroke-linejoin:round;stroke-miterlimit:10;stroke-dasharray:none;stroke-opacity:1"
         id="path320" /></g><path
       d="M 37.968982,163.51294 V 313.424"
       style="fill:none;stroke:#000000;stroke-width:0.450671;stroke-linecap:square;stroke-linejoin:miter;stroke-miterlimit:10;stroke-dasharray:none;stroke-opacity:1"
       id="path324" /><path
       d="M 239.14833,163.51294 V 313.424"
       style="fill:none;stroke:#000000;stroke-width:0.450671;stroke-linecap:square;stroke-linejoin:miter;stroke-miterlimit:10;stroke-dasharray:none;stroke-opacity:1"
       id="path326" /><path
       d="M 37.968982,163.51294 H 239.14833"
       style="fill:none;stroke:#000000;stroke-width:0.450671;stroke-linecap:square;stroke-linejoin:miter;stroke-miterlimit:10;stroke-dasharray:none;stroke-opacity:1"
       id="path328" /><path
       d="M 37.968982,313.424 H 239.14833"
       style="fill:none;stroke:#000000;stroke-width:0.450671;stroke-linecap:square;stroke-linejoin:miter;stroke-miterlimit:10;stroke-dasharray:none;stroke-opacity:1"
       id="path330" /><path
       d="M 43.039026,204.78627 H 54.305791"
       style="fill:none;stroke:#0000ff;stroke-width:0.845007;stroke-linecap:square;stroke-linejoin:round;stroke-miterlimit:10;stroke-dasharray:none;stroke-opacity:1"
       id="path340" /><path
       d="M 43.039026,196.52104 H 54.305791"
       style="fill:none;stroke:#87ceeb;stroke-width:0.845007;stroke-linecap:square;stroke-linejoin:round;stroke-miterlimit:10;stroke-dasharray:none;stroke-opacity:1"
       id="path346" /><path
       d="M 43.039026,188.25581 H 54.305791"
       style="fill:none;stroke:#7cfc00;stroke-width:0.845007;stroke-linecap:square;stroke-linejoin:round;stroke-miterlimit:10;stroke-dasharray:none;stroke-opacity:1"
       id="path352" /><path
       d="M 43.039026,179.99059 H 54.305791"
       style="fill:none;stroke:#006400;stroke-width:0.845007;stroke-linecap:square;stroke-linejoin:round;stroke-miterlimit:10;stroke-dasharray:none;stroke-opacity:1"
       id="path358" /></g><g
     inkscape:groupmode="layer"
     id="layer1"
     inkscape:label="text"
     style="display:inline"
     transform="translate(-16.857292,-17.206424)"><text
       style="font-variant:normal;font-weight:normal;font-size:7.51117px;font-family:'DejaVu Sans';-inkscape-font-specification:DejaVuSans;writing-mode:lr-tb;fill:#000000;fill-opacity:1;fill-rule:nonzero;stroke:none;stroke-width:0.751117"
       id="text32"
       x="48.236992"
       y="253.74443"><tspan
         x="48.236992"
         y="253.74443"
         id="tspan30"
         style="stroke-width:0.751117">0</tspan></text><text
       style="font-variant:normal;font-weight:normal;font-size:7.51117px;font-family:'DejaVu Sans';-inkscape-font-specification:DejaVuSans;writing-mode:lr-tb;fill:#000000;fill-opacity:1;fill-rule:nonzero;stroke:none;stroke-width:0.751117"
       id="text50"
       x="90.313713"
       y="253.74443"><tspan
         x="90.313713"
         y="253.74443"
         id="tspan48"
         style="stroke-width:0.751117">1</tspan></text><text
       style="font-variant:normal;font-weight:normal;font-size:7.51117px;font-family:'DejaVu Sans';-inkscape-font-specification:DejaVuSans;writing-mode:lr-tb;fill:#000000;fill-opacity:1;fill-rule:nonzero;stroke:none;stroke-width:0.751117"
       id="text68"
       x="132.39044"
       y="253.74443"><tspan
         x="132.39044"
         y="253.74443"
         id="tspan66"
         style="stroke-width:0.751117">2</tspan></text><text
       style="font-variant:normal;font-weight:normal;font-size:7.51117px;font-family:'DejaVu Sans';-inkscape-font-specification:DejaVuSans;writing-mode:lr-tb;fill:#000000;fill-opacity:1;fill-rule:nonzero;stroke:none;stroke-width:0.751117"
       id="text86"
       x="174.46715"
       y="253.74443"><tspan
         x="174.46715"
         y="253.74443"
         id="tspan84"
         style="stroke-width:0.751117">3</tspan></text><text
       style="font-variant:normal;font-weight:normal;font-size:7.51117px;font-family:'DejaVu Sans';-inkscape-font-specification:DejaVuSans;writing-mode:lr-tb;fill:#000000;fill-opacity:1;fill-rule:nonzero;stroke:none;stroke-width:0.751117"
       id="text104"
       x="216.54388"
       y="253.74443"><tspan
         x="216.54388"
         y="253.74443"
         id="tspan102"
         style="stroke-width:0.751117">4</tspan></text><text
       style="font-variant:normal;font-weight:normal;font-size:7.51117px;font-family:'DejaVu Sans';-inkscape-font-specification:DejaVuSans;writing-mode:lr-tb;fill:#000000;fill-opacity:1;fill-rule:nonzero;stroke:none;stroke-width:0.751117"
       id="text122"
       x="258.62064"
       y="253.74443"><tspan
         x="258.62064"
         y="253.74443"
         id="tspan120"
         style="stroke-width:0.751117">5</tspan></text><text
       style="font-variant:normal;font-weight:normal;font-size:7.51117px;font-family:'DejaVu Sans';-inkscape-font-specification:DejaVuSans;writing-mode:lr-tb;fill:#000000;fill-opacity:1;fill-rule:nonzero;stroke:none;stroke-width:0.751117"
       id="text140"
       x="300.69736"
       y="253.74443"><tspan
         x="300.69736"
         y="253.74443"
         id="tspan138"
         style="stroke-width:0.751117">6</tspan></text><text
       style="font-variant:normal;font-weight:normal;font-size:7.51117px;font-family:'DejaVu Sans';-inkscape-font-specification:DejaVuSans;writing-mode:lr-tb;fill:#000000;fill-opacity:1;fill-rule:nonzero;stroke:none;stroke-width:0.751117"
       id="text144"
       x="139.28465"
       y="264.01355"><tspan
         x="139.28465 145.10582 149.72519 154.48726 159.08411 166.39999 168.4881 172.61925 175.0078 179.77739 181.86551 185.77882 188.72321 193.32756 198.08965 202.22081 206.84016 209.22871 211.75998 214.14853 220.63069 225.40027"
         y="264.01355"
         sodipodi:role="line"
         id="tspan142"
         style="stroke-width:0.751117">Genomic distance / Mbp</tspan></text><text
       style="font-variant:normal;font-weight:normal;font-size:7.51117px;font-family:'DejaVu Sans';-inkscape-font-specification:DejaVuSans;writing-mode:lr-tb;fill:#000000;fill-opacity:1;fill-rule:nonzero;stroke:none;stroke-width:0.751117"
       id="text368"
       x="78.416656"
       y="234.46184"><tspan
         x="78.416656 83.005989 86.093086 90.697433 95.459518 99.372841 102.01678 106.63615 109.72324 112.1118 117.93297 124.4151 129.1922 133.96933 138.74643 143.52353 148.30063 150.68919 153.07776 157.85486 162.63196 166.98094 169.36951 171.90076 174.28931 179.42696 184.92514 190.16794 192.6992 195.08777 199.86487 202.25342 207.03052 211.80765"
         y="234.46184"
         sodipodi:role="line"
         id="tspan366"
         style="stroke-width:0.751117">Transfer GM12878, 25k / AUC: 0.617</tspan></text><g
       id="g160"
       transform="matrix(0.75111761,0,0,-0.75111761,27.129411,232.57732)"><text
         transform="matrix(1,0,0,-1,8.3789063,0)"
         style="font-variant:normal;font-weight:normal;font-size:10px;font-family:'DejaVu Sans';-inkscape-font-specification:DejaVuSans;writing-mode:lr-tb;fill:#000000;fill-opacity:1;fill-rule:nonzero;stroke:none"
         id="text164"><tspan
           x="0 6.3600001 9.54"
           y="0"
           sodipodi:role="line"
           id="tspan162">0.2</tspan></text><g
         id="g166"
         transform="scale(0.01)"><g
           id="g168"><g
             id="g170"
             clip-path="url(#clipPath174)"><path
               d="M 106,355 H 732 V 272 H 106 v 83"
               style="fill:#000000;fill-opacity:1;fill-rule:nonzero;stroke:none"
               id="path176" /></g></g></g></g><text
       style="font-variant:normal;font-weight:normal;font-size:7.51117px;font-family:'DejaVu Sans';-inkscape-font-specification:DejaVuSans;writing-mode:lr-tb;fill:#000000;fill-opacity:1;fill-rule:nonzero;stroke:none;stroke-width:0.751117"
       id="text194"
       x="33.420017"
       y="200.92595"><tspan
         x="33.420017 38.197128 40.585682"
         y="200.92595"
         sodipodi:role="line"
         id="tspan192"
         style="stroke-width:0.751117">0.0</tspan></text><text
       style="font-variant:normal;font-weight:normal;font-size:7.51117px;font-family:'DejaVu Sans';-inkscape-font-specification:DejaVuSans;writing-mode:lr-tb;fill:#000000;fill-opacity:1;fill-rule:nonzero;stroke:none;stroke-width:0.751117"
       id="text212"
       x="33.420017"
       y="169.27458"><tspan
         x="33.420017 38.197128 40.585682"
         y="169.27458"
         sodipodi:role="line"
         id="tspan210"
         style="stroke-width:0.751117">0.2</tspan></text><text
       style="font-variant:normal;font-weight:normal;font-size:7.51117px;font-family:'DejaVu Sans';-inkscape-font-specification:DejaVuSans;writing-mode:lr-tb;fill:#000000;fill-opacity:1;fill-rule:nonzero;stroke:none;stroke-width:0.751117"
       id="text230"
       x="33.420017"
       y="137.6232"><tspan
         x="33.420017 38.197128 40.585682"
         y="137.6232"
         sodipodi:role="line"
         id="tspan228"
         style="stroke-width:0.751117">0.4</tspan></text><text
       style="font-variant:normal;font-weight:normal;font-size:7.51117px;font-family:'DejaVu Sans';-inkscape-font-specification:DejaVuSans;writing-mode:lr-tb;fill:#000000;fill-opacity:1;fill-rule:nonzero;stroke:none;stroke-width:0.751117"
       id="text248"
       x="33.420017"
       y="105.97179"><tspan
         x="33.420017 38.197128 40.585682"
         y="105.97179"
         sodipodi:role="line"
         id="tspan246"
         style="stroke-width:0.751117">0.6</tspan></text><text
       style="font-variant:normal;font-weight:normal;font-size:7.51117px;font-family:'DejaVu Sans';-inkscape-font-specification:DejaVuSans;writing-mode:lr-tb;fill:#000000;fill-opacity:1;fill-rule:nonzero;stroke:none;stroke-width:0.751117"
       id="text266"
       x="33.420017"
       y="74.320404"><tspan
         x="33.420017 38.197128 40.585682"
         y="74.320404"
         sodipodi:role="line"
         id="tspan264"
         style="stroke-width:0.751117">0.8</tspan></text><text
       transform="rotate(-90)"
       style="font-variant:normal;font-weight:normal;font-size:7.51117px;font-family:'DejaVu Sans';-inkscape-font-specification:DejaVuSans;writing-mode:lr-tb;fill:#000000;fill-opacity:1;fill-rule:nonzero;stroke:none;stroke-width:0.751117"
       id="text270"
       x="-179.13048"
       y="22.564024"><tspan
         x="-179.13048 -174.60123 -169.98186 -165.3775 -162.29042 -158.37711 -153.78024 -149.01816 -146.62962 -142.49847 -137.90161 -134.81453 -131.72743 -127.10802 -125.01994 -120.41555 -117.47118 -115.38309 -110.78625"
         y="22.564024"
         sodipodi:role="line"
         id="tspan268"
         style="stroke-width:0.751117">Pearson correlation</tspan></text><text
       style="font-variant:normal;font-weight:normal;font-size:9.01341px;font-family:'DejaVu Sans';-inkscape-font-specification:DejaVuSans;writing-mode:lr-tb;fill:#000000;fill-opacity:1;fill-rule:nonzero;stroke:none;stroke-width:0.751117"
       id="text334"
       x="91.987709"
       y="28.29213"><tspan
         x="91.987709 97.422798 102.96605 108.49128 112.19577 116.89176 122.40797 128.12248 130.98875 135.94612 141.46233 145.16685 148.87135 154.4146 156.92032 162.44556 165.97879 168.48454 174.00075 179.71524 182.58151 187.91747 192.61343 195.47969 198.34598 204.06949 209.61273 215.32722 220.84344 229.6225 232.12822 237.0856 239.95187 245.6754 248.18112 252.87709 256.41034 261.93558 267.65005 272.60745"
         y="28.29213"
         sodipodi:role="line"
         id="tspan332"
         style="stroke-width:0.751117">Pearson correlation vs. genomic distance</tspan></text><text
       style="font-variant:normal;font-weight:normal;font-size:9.01341px;font-family:'DejaVu Sans';-inkscape-font-specification:DejaVuSans;writing-mode:lr-tb;fill:#000000;fill-opacity:1;fill-rule:nonzero;stroke:none;stroke-width:0.751117"
       id="text338"
       x="147.63498"
       y="38.394684"><tspan
         x="147.63498 153.92632 159.64082 163.34534 168.86154 177.64061 183.15681 187.8528 193.36902 202.14807 207.69133 210.55759 216.29012"
         y="38.394684"
         sodipodi:role="line"
         id="tspan336"
         style="stroke-width:0.751117">Chromosome 14</tspan></text><text
       style="font-variant:normal;font-weight:normal;font-size:7.51117px;font-family:'DejaVu Sans';-inkscape-font-specification:DejaVuSans;writing-mode:lr-tb;fill:#000000;fill-opacity:1;fill-rule:nonzero;stroke:none;stroke-width:0.751117"
       id="text344"
       x="78.416656"
       y="190.38062"><tspan
         x="78.416656 84.200264 89.818626 95.436981 100.2141 104.9912 107.37976 109.7683 114.54542 119.32252 123.6715 126.06006 128.59132 130.97987 136.11751 141.61569 146.85849 149.38977 151.77832 156.55544 158.94397 163.72108 168.4982"
         y="190.38062"
         sodipodi:role="line"
         id="tspan342"
         style="stroke-width:0.751117">DNN80, 25k / AUC: 0.632</tspan></text><text
       style="font-variant:normal;font-weight:normal;font-size:7.51117px;font-family:'DejaVu Sans';-inkscape-font-specification:DejaVuSans;writing-mode:lr-tb;fill:#000000;fill-opacity:1;fill-rule:nonzero;stroke:none;stroke-width:0.751117"
       id="text350"
       x="78.416656"
       y="201.40092"><tspan
         x="78.416656 84.237816 89.375465 94.993828 99.770935 104.54804 109.32515 111.71371 114.10226 118.87936 123.65648 128.00545 130.394 132.92526 135.31381 140.45146 145.94965 151.19244 153.72371 156.11227 160.88937 163.27792 168.05504 172.83215"
         y="201.40092"
         sodipodi:role="line"
         id="tspan348"
         style="stroke-width:0.751117">GAN256, 25k / AUC: 0.553</tspan></text><text
       style="font-variant:normal;font-weight:normal;font-size:7.51117px;font-family:'DejaVu Sans';-inkscape-font-specification:DejaVuSans;writing-mode:lr-tb;fill:#000000;fill-opacity:1;fill-rule:nonzero;stroke:none;stroke-width:0.751117"
       id="text356"
       x="78.416656"
       y="212.42122"><tspan
         x="78.416656 84.898811 90.396988 94.580711 99.170036 101.38583 106.62865 111.37569 115.55943 119.74314 122.13171 124.52026 129.29736 132.0089 136.7785 141.38286 146.15245 150.92206 155.54141 160.311 162.69957 165.08813 169.86523 174.64233 178.99132 181.37987 183.91113 186.29968 191.43733 196.93552 202.1783 204.70956 207.09814 211.87523 214.26378 219.04089 223.81801"
         y="212.42122"
         sodipodi:role="line"
         id="tspan354"
         style="stroke-width:0.751117">MULTICELL, 0-padded, 25k / AUC: 0.876</tspan></text><text
       style="font-variant:normal;font-weight:normal;font-size:7.51117px;font-family:'DejaVu Sans';-inkscape-font-specification:DejaVuSans;writing-mode:lr-tb;fill:#000000;fill-opacity:1;fill-rule:nonzero;stroke:none;stroke-width:0.751117"
       id="text362"
       x="78.416656"
       y="223.44153"><tspan
         x="78.416656 85.845215 88.061012 93.679367 99.462982 105.37426 112.80283 115.19137 117.57993 122.35705 125.06858 129.83818 134.44252 139.21213 143.98172 148.6011 153.37068 155.75925 158.1478 162.9249 167.70201 172.05099 174.43953 176.97081 179.35934 184.49699 189.99519 195.23798 197.76924 200.15779 204.93491 207.32347 212.10056 216.87769"
         y="223.44153"
         sodipodi:role="line"
         id="tspan360"
         style="stroke-width:0.751117">WINDOW, 0-padded, 25k / AUC: 0.752</tspan></text></g></svg>
