<?xml version="1.0" encoding="UTF-8" standalone="no"?>
<svg
   xmlns:dc="http://purl.org/dc/elements/1.1/"
   xmlns:cc="http://creativecommons.org/ns#"
   xmlns:rdf="http://www.w3.org/1999/02/22-rdf-syntax-ns#"
   xmlns:svg="http://www.w3.org/2000/svg"
   xmlns="http://www.w3.org/2000/svg"
   xmlns:sodipodi="http://sodipodi.sourceforge.net/DTD/sodipodi-0.dtd"
   xmlns:inkscape="http://www.inkscape.org/namespaces/inkscape"
   version="1.1"
   id="svg2"
   xml:space="preserve"
   width="80mm"
   height="65.300003mm"
   viewBox="0 0 302.36219 246.80316"
   sodipodi:docname="pearson_chr17_overview_25k.svg"
   inkscape:version="1.0.2 (1.0.2+r75+1)"><metadata
     id="metadata8"><rdf:RDF><cc:Work
         rdf:about=""><dc:format>image/svg+xml</dc:format><dc:type
           rdf:resource="http://purl.org/dc/dcmitype/StillImage" /><dc:title></dc:title></cc:Work></rdf:RDF></metadata><defs
     id="defs6"><clipPath
       clipPathUnits="userSpaceOnUse"
       id="clipPath22"><path
         d="M 57.6,38.016 H 414.72 V 304.128 H 57.6 Z"
         id="path20" /></clipPath><clipPath
       clipPathUnits="userSpaceOnUse"
       id="clipPath40"><path
         d="M 57.6,38.016 H 414.72 V 304.128 H 57.6 Z"
         id="path38" /></clipPath><clipPath
       clipPathUnits="userSpaceOnUse"
       id="clipPath58"><path
         d="M 57.6,38.016 H 414.72 V 304.128 H 57.6 Z"
         id="path56" /></clipPath><clipPath
       clipPathUnits="userSpaceOnUse"
       id="clipPath76"><path
         d="M 57.6,38.016 H 414.72 V 304.128 H 57.6 Z"
         id="path74" /></clipPath><clipPath
       clipPathUnits="userSpaceOnUse"
       id="clipPath94"><path
         d="M 57.6,38.016 H 414.72 V 304.128 H 57.6 Z"
         id="path92" /></clipPath><clipPath
       clipPathUnits="userSpaceOnUse"
       id="clipPath112"><path
         d="M 57.6,38.016 H 414.72 V 304.128 H 57.6 Z"
         id="path110" /></clipPath><clipPath
       clipPathUnits="userSpaceOnUse"
       id="clipPath130"><path
         d="M 57.6,38.016 H 414.72 V 304.128 H 57.6 Z"
         id="path128" /></clipPath><clipPath
       clipPathUnits="userSpaceOnUse"
       id="clipPath152"><path
         d="M 57.6,38.016 H 414.72 V 304.128 H 57.6 Z"
         id="path150" /></clipPath><clipPath
       clipPathUnits="userSpaceOnUse"
       id="clipPath170"><path
         d="M 57.6,38.016 H 414.72 V 304.128 H 57.6 Z"
         id="path168" /></clipPath><clipPath
       clipPathUnits="userSpaceOnUse"
       id="clipPath188"><path
         d="M 57.6,38.016 H 414.72 V 304.128 H 57.6 Z"
         id="path186" /></clipPath><clipPath
       clipPathUnits="userSpaceOnUse"
       id="clipPath206"><path
         d="M 57.6,38.016 H 414.72 V 304.128 H 57.6 Z"
         id="path204" /></clipPath><clipPath
       clipPathUnits="userSpaceOnUse"
       id="clipPath224"><path
         d="M 57.6,38.016 H 414.72 V 304.128 H 57.6 Z"
         id="path222" /></clipPath><clipPath
       clipPathUnits="userSpaceOnUse"
       id="clipPath246"><path
         d="M 57.6,38.016 H 414.72 V 304.128 H 57.6 Z"
         id="path244" /></clipPath><clipPath
       clipPathUnits="userSpaceOnUse"
       id="clipPath256"><path
         d="M 57.6,38.016 H 414.72 V 304.128 H 57.6 Z"
         id="path254" /></clipPath><clipPath
       clipPathUnits="userSpaceOnUse"
       id="clipPath266"><path
         d="M 57.6,38.016 H 414.72 V 304.128 H 57.6 Z"
         id="path264" /></clipPath><clipPath
       clipPathUnits="userSpaceOnUse"
       id="clipPath276"><path
         d="M 57.6,38.016 H 414.72 V 304.128 H 57.6 Z"
         id="path274" /></clipPath><clipPath
       clipPathUnits="userSpaceOnUse"
       id="clipPath286"><path
         d="M 57.6,38.016 H 414.72 V 304.128 H 57.6 Z"
         id="path284" /></clipPath></defs><sodipodi:namedview
     pagecolor="#ffffff"
     bordercolor="#666666"
     borderopacity="1"
     objecttolerance="10"
     gridtolerance="10"
     guidetolerance="10"
     inkscape:pageopacity="0"
     inkscape:pageshadow="2"
     inkscape:window-width="1920"
     inkscape:window-height="1020"
     id="namedview4"
     showgrid="false"
     fit-margin-top="0"
     fit-margin-left="0"
     fit-margin-right="0"
     fit-margin-bottom="0"
     units="mm"
     inkscape:zoom="2.6301672"
     inkscape:cx="158.48464"
     inkscape:cy="144.47483"
     inkscape:window-x="0"
     inkscape:window-y="0"
     inkscape:window-maximized="1"
     inkscape:current-layer="layer1" /><g
     id="g10"
     inkscape:groupmode="layer"
     inkscape:label="pearson_chr17_overview_25k"
     transform="matrix(1.3333333,0,0,-1.3333333,-28.023958,443.59358)"><path
       d="M 47.242604,172.20043 H 58.749172"
       style="fill:none;stroke:#ff0000;stroke-width:0.862992;stroke-linecap:square;stroke-linejoin:round;stroke-miterlimit:10;stroke-dasharray:none;stroke-opacity:1"
       id="path332" /><g
       id="g16"
       transform="matrix(0.57532836,0,0,0.57532836,8.9257355,141.94155)"><g
         id="g18"
         clip-path="url(#clipPath22)"><path
           d="M 57.6,38.016 V 304.128"
           style="fill:none;stroke:#b0b0b0;stroke-width:0.8;stroke-linecap:square;stroke-linejoin:round;stroke-miterlimit:10;stroke-dasharray:none;stroke-opacity:1"
           id="path24" /></g></g><path
       d="m 42.064649,163.81322 v -2.01364"
       style="fill:#000000;fill-opacity:1;fill-rule:nonzero;stroke:#000000;stroke-width:0.460263;stroke-linecap:butt;stroke-linejoin:round;stroke-miterlimit:10;stroke-dasharray:none;stroke-opacity:1"
       id="path28" /><g
       id="g34"
       transform="matrix(0.57532836,0,0,0.57532836,8.9257355,141.94155)"><g
         id="g36"
         clip-path="url(#clipPath40)"><path
           d="M 113.61882,38.016 V 304.128"
           style="fill:none;stroke:#b0b0b0;stroke-width:0.8;stroke-linecap:square;stroke-linejoin:round;stroke-miterlimit:10;stroke-dasharray:none;stroke-opacity:1"
           id="path42" /></g></g><path
       d="m 74.293865,163.81322 v -2.01364"
       style="fill:#000000;fill-opacity:1;fill-rule:nonzero;stroke:#000000;stroke-width:0.460263;stroke-linecap:butt;stroke-linejoin:round;stroke-miterlimit:10;stroke-dasharray:none;stroke-opacity:1"
       id="path46" /><g
       id="g52"
       transform="matrix(0.57532836,0,0,0.57532836,8.9257355,141.94155)"><g
         id="g54"
         clip-path="url(#clipPath58)"><path
           d="M 169.63765,38.016 V 304.128"
           style="fill:none;stroke:#b0b0b0;stroke-width:0.8;stroke-linecap:square;stroke-linejoin:round;stroke-miterlimit:10;stroke-dasharray:none;stroke-opacity:1"
           id="path60" /></g></g><path
       d="m 106.52308,163.81322 v -2.01364"
       style="fill:#000000;fill-opacity:1;fill-rule:nonzero;stroke:#000000;stroke-width:0.460263;stroke-linecap:butt;stroke-linejoin:round;stroke-miterlimit:10;stroke-dasharray:none;stroke-opacity:1"
       id="path64" /><g
       id="g70"
       transform="matrix(0.57532836,0,0,0.57532836,8.9257355,141.94155)"><g
         id="g72"
         clip-path="url(#clipPath76)"><path
           d="M 225.65647,38.016 V 304.128"
           style="fill:none;stroke:#b0b0b0;stroke-width:0.8;stroke-linecap:square;stroke-linejoin:round;stroke-miterlimit:10;stroke-dasharray:none;stroke-opacity:1"
           id="path78" /></g></g><path
       d="m 138.7523,163.81322 v -2.01364"
       style="fill:#000000;fill-opacity:1;fill-rule:nonzero;stroke:#000000;stroke-width:0.460263;stroke-linecap:butt;stroke-linejoin:round;stroke-miterlimit:10;stroke-dasharray:none;stroke-opacity:1"
       id="path82" /><g
       id="g88"
       transform="matrix(0.57532836,0,0,0.57532836,8.9257355,141.94155)"><g
         id="g90"
         clip-path="url(#clipPath94)"><path
           d="M 281.67529,38.016 V 304.128"
           style="fill:none;stroke:#b0b0b0;stroke-width:0.8;stroke-linecap:square;stroke-linejoin:round;stroke-miterlimit:10;stroke-dasharray:none;stroke-opacity:1"
           id="path96" /></g></g><path
       d="m 170.98152,163.81322 v -2.01364"
       style="fill:#000000;fill-opacity:1;fill-rule:nonzero;stroke:#000000;stroke-width:0.460263;stroke-linecap:butt;stroke-linejoin:round;stroke-miterlimit:10;stroke-dasharray:none;stroke-opacity:1"
       id="path100" /><g
       id="g106"
       transform="matrix(0.57532836,0,0,0.57532836,8.9257355,141.94155)"><g
         id="g108"
         clip-path="url(#clipPath112)"><path
           d="M 337.69412,38.016 V 304.128"
           style="fill:none;stroke:#b0b0b0;stroke-width:0.8;stroke-linecap:square;stroke-linejoin:round;stroke-miterlimit:10;stroke-dasharray:none;stroke-opacity:1"
           id="path114" /></g></g><path
       d="m 203.21074,163.81322 v -2.01364"
       style="fill:#000000;fill-opacity:1;fill-rule:nonzero;stroke:#000000;stroke-width:0.460263;stroke-linecap:butt;stroke-linejoin:round;stroke-miterlimit:10;stroke-dasharray:none;stroke-opacity:1"
       id="path118" /><g
       id="g124"
       transform="matrix(0.57532836,0,0,0.57532836,8.9257355,141.94155)"><g
         id="g126"
         clip-path="url(#clipPath130)"><path
           d="M 393.71294,38.016 V 304.128"
           style="fill:none;stroke:#b0b0b0;stroke-width:0.8;stroke-linecap:square;stroke-linejoin:round;stroke-miterlimit:10;stroke-dasharray:none;stroke-opacity:1"
           id="path132" /></g></g><path
       d="m 235.43996,163.81322 v -2.01364"
       style="fill:#000000;fill-opacity:1;fill-rule:nonzero;stroke:#000000;stroke-width:0.460263;stroke-linecap:butt;stroke-linejoin:round;stroke-miterlimit:10;stroke-dasharray:none;stroke-opacity:1"
       id="path136" /><g
       id="g146"
       transform="matrix(0.57532836,0,0,0.57532836,8.9257355,141.94155)"><g
         id="g148"
         clip-path="url(#clipPath152)"><path
           d="M 57.6,71.859669 H 414.72"
           style="fill:none;stroke:#b0b0b0;stroke-width:0.8;stroke-linecap:square;stroke-linejoin:round;stroke-miterlimit:10;stroke-dasharray:none;stroke-opacity:1"
           id="path154" /></g></g><path
       d="M 42.064649,183.28444 H 40.051"
       style="fill:#000000;fill-opacity:1;fill-rule:nonzero;stroke:#000000;stroke-width:0.460263;stroke-linecap:butt;stroke-linejoin:round;stroke-miterlimit:10;stroke-dasharray:none;stroke-opacity:1"
       id="path158" /><g
       id="g164"
       transform="matrix(0.57532836,0,0,0.57532836,8.9257355,141.94155)"><g
         id="g166"
         clip-path="url(#clipPath170)"><path
           d="M 57.6,120.19645 H 414.72"
           style="fill:none;stroke:#b0b0b0;stroke-width:0.8;stroke-linecap:square;stroke-linejoin:round;stroke-miterlimit:10;stroke-dasharray:none;stroke-opacity:1"
           id="path172" /></g></g><path
       d="M 42.064649,211.09397 H 40.051"
       style="fill:#000000;fill-opacity:1;fill-rule:nonzero;stroke:#000000;stroke-width:0.460263;stroke-linecap:butt;stroke-linejoin:round;stroke-miterlimit:10;stroke-dasharray:none;stroke-opacity:1"
       id="path176" /><g
       id="g182"
       transform="matrix(0.57532836,0,0,0.57532836,8.9257355,141.94155)"><g
         id="g184"
         clip-path="url(#clipPath188)"><path
           d="M 57.6,168.53323 H 414.72"
           style="fill:none;stroke:#b0b0b0;stroke-width:0.8;stroke-linecap:square;stroke-linejoin:round;stroke-miterlimit:10;stroke-dasharray:none;stroke-opacity:1"
           id="path190" /></g></g><path
       d="M 42.064649,238.90349 H 40.051"
       style="fill:#000000;fill-opacity:1;fill-rule:nonzero;stroke:#000000;stroke-width:0.460263;stroke-linecap:butt;stroke-linejoin:round;stroke-miterlimit:10;stroke-dasharray:none;stroke-opacity:1"
       id="path194" /><g
       id="g200"
       transform="matrix(0.57532836,0,0,0.57532836,8.9257355,141.94155)"><g
         id="g202"
         clip-path="url(#clipPath206)"><path
           d="M 57.6,216.87002 H 414.72"
           style="fill:none;stroke:#b0b0b0;stroke-width:0.8;stroke-linecap:square;stroke-linejoin:round;stroke-miterlimit:10;stroke-dasharray:none;stroke-opacity:1"
           id="path208" /></g></g><path
       d="M 42.064649,266.71301 H 40.051"
       style="fill:#000000;fill-opacity:1;fill-rule:nonzero;stroke:#000000;stroke-width:0.460263;stroke-linecap:butt;stroke-linejoin:round;stroke-miterlimit:10;stroke-dasharray:none;stroke-opacity:1"
       id="path212" /><g
       id="g218"
       transform="matrix(0.57532836,0,0,0.57532836,8.9257355,141.94155)"><g
         id="g220"
         clip-path="url(#clipPath224)"><path
           d="M 57.6,265.2068 H 414.72"
           style="fill:none;stroke:#b0b0b0;stroke-width:0.8;stroke-linecap:square;stroke-linejoin:round;stroke-miterlimit:10;stroke-dasharray:none;stroke-opacity:1"
           id="path226" /></g></g><path
       d="M 42.064649,294.52254 H 40.051"
       style="fill:#000000;fill-opacity:1;fill-rule:nonzero;stroke:#000000;stroke-width:0.460263;stroke-linecap:butt;stroke-linejoin:round;stroke-miterlimit:10;stroke-dasharray:none;stroke-opacity:1"
       id="path230" /><g
       id="g240"
       transform="matrix(0.57532836,0,0,0.57532836,8.9257355,141.94155)"><g
         id="g242"
         clip-path="url(#clipPath246)"><path
           d="m 57.6,284.36075 1.400471,-1.05674 1.40047,-13.75758 1.400471,-9.23291 1.40047,-7.33268 1.400471,-0.28356 1.400471,-3.10444 1.40047,-2.60419 1.400471,-0.30806 1.40047,-1.7986 1.400471,-2.00647 1.40047,-4.15153 1.400471,-1.04174 1.400471,0.8887 1.40047,-4.9489 1.400471,-2.02309 1.40047,-3.15897 1.400471,-2.9263 1.400471,-6.0439 1.40047,-3.27922 1.400471,3.07912 1.40047,-2.59752 1.400471,0.1088 1.400471,-1.92204 1.40047,-5.03283 1.400471,0.6885 1.40047,-0.71599 1.400471,-0.55753 1.40047,-3.98538 1.400471,4.75638 1.400471,-1.6922 1.400472,3.87471 1.40047,-0.0562 1.40047,-2.74319 1.40047,-2.86022 1.40047,-0.0288 1.40047,0.10527 1.40047,-1.73005 1.40047,-3.49449 1.40047,2.11523 1.40047,-0.80441 1.40047,0.26334 1.40048,-1.49551 1.40046,1.23571 1.40048,2.44586 1.40047,-2.53557 1.40047,1.48996 1.40047,-0.99826 1.40047,0.84316 1.40047,-2.79109 1.40047,1.83245 1.40047,-2.91043 1.40047,-1.51622 1.40047,-0.69768 1.40047,0.10687 1.40047,-1.86902 1.40047,-0.70066 1.40047,1.23318 1.40047,-3.7065 1.40047,3.40421 1.40048,-2.77487 1.40047,1.31777 1.40047,-0.76296 1.40047,-0.4108 1.40047,3.05505 1.40047,-2.64194 1.40047,0.63625 1.40047,-0.82219 1.40047,1.98364 1.40047,-5.39528 1.40047,-0.734 1.40047,4.0706 1.40047,-2.2189 1.40047,-2.48537 1.40047,-3.6851 1.40047,5.86668 1.40047,-5.99607 1.40047,0.84569 1.40048,-1.12703 1.40047,-0.81713"
           style="fill:none;stroke:#0000ff;stroke-width:1.5;stroke-linecap:square;stroke-linejoin:round;stroke-miterlimit:10;stroke-dasharray:none;stroke-opacity:1"
           id="path248" /></g></g><g
       id="g252"
       clip-path="url(#clipPath256)"
       transform="matrix(0.57532836,0,0,0.57532836,8.9257355,141.94155)"><path
         d="m 57.6,276.92574 1.400471,-3.21529 1.40047,-9.84372 1.400471,-3.92182 1.40047,0.46608 1.400471,3.17622 1.400471,-1.56758 1.40047,-0.53142 1.400471,-1.21262 1.40047,-4.77746 1.400471,-0.55869 1.40047,-3.5532 1.400471,-0.81324 1.400471,2.57439 1.40047,-2.54193 1.400471,2.24543 1.40047,1.51856 1.400471,0.13389 1.400471,0.78571 1.40047,0.42951 1.400471,-0.6993 1.40047,-4.1095 1.400471,0.93944 1.400471,-1.43366 1.40047,-2.86343 2.800941,1.94338 1.400471,-3.20826 1.40047,-4.5382 1.400471,2.94604 1.400471,0.63117 1.400472,0.29492 1.40047,1.66479 1.40047,-0.059 1.40047,-1.13057 1.40047,-5.33322 1.40047,-1.80841 1.40047,-1.02892 1.40047,-1.30707 1.40047,1.61325 1.40047,1.26532 1.40047,0.71441 1.40048,-1.15742 1.40046,-2.15014 1.40048,-1.18639 1.40047,-3.23004 1.40047,1.65375 1.40047,-3.03653 1.40047,0.39078 1.40047,-2.24477 1.40047,1.21776 1.40047,-4.31936 1.40047,-0.99488 1.40047,-0.29632 2.80094,-1.88585 1.40047,-0.61981 1.40047,2.53601 1.40047,-2.33135 1.40047,1.69501 1.40048,2.08463 1.40047,-1.526 1.40047,-3.59392 1.40047,-0.76643 1.40047,3.78555 1.40047,-2.56931 1.40047,2.39383 1.40047,-2.46186 1.40047,4.21361 1.40047,-5.04515 1.40047,-2.8258 1.40047,4.99425 1.40047,-1.59946 1.40047,-2.06527 1.40047,0.99687 1.40047,2.57322 1.40047,-4.21271 1.40047,1.89113 1.40048,-0.12501 1.40047,0.0897 1.40047,-1.33281 1.40047,0.49865 1.40047,1.33578 1.40047,3.06203 1.40047,-4.51722 1.40047,0.23967 1.40047,0.53067 1.40047,-3.25344 1.40047,1.1196 1.40047,-2.55613 1.40047,2.38757 1.40047,3.5677 1.40047,-0.93044 1.40047,-1.08862 1.40047,1.57879 1.40048,-6.46491 1.40047,3.64498 1.40047,-2.76226 1.40047,2.94559 1.40047,0.10953 1.40047,-1.69661 1.40047,-0.24498 1.40047,1.52059 1.40047,-1.04105 2.80094,4.74056 1.40047,-6.51604 2.80094,6.1562 1.40047,-5.08792 1.40047,-0.88077 1.40048,2.20071 1.40047,-1.34891 1.40047,2.69731 1.40047,1.26104 1.40047,-3.34591 1.40047,1.29543 1.40047,-5.12792 1.40047,1.51129 1.40047,2.92601 1.40047,-2.46725 1.40047,-3.33939 1.40047,-4.30298 1.40047,6.8001 1.40047,1.03271 1.40047,-0.63276 1.40047,-0.017 1.40047,1.14344 1.40048,-2.00833 1.40047,-1.44446 1.40047,1.55037 1.40047,-0.0901 1.40047,-2.14047 1.40047,5.85019 1.40047,-10.42442 1.40047,0.3184 1.40047,1.44112 1.40047,1.93085 1.40047,0.54698 1.40047,1.19375 1.40047,-6.80845 1.40047,0.37878 1.40047,4.4557 1.40047,-1.03793 1.40047,1.09398 1.40047,0.38103 1.40048,-0.009 1.40047,0.75758 1.40047,-3.82694 1.40047,0.82489 1.40047,2.8348 2.80094,3.47477 1.40047,-1.46272 1.40047,3.05931 1.40047,-1.92585 1.40047,-1.26735 1.40047,0.65609 1.40047,-3.22114 1.40047,-3.88412 1.40047,-1.86216 1.40047,9.60893 1.40047,0.39182 1.40048,-7.93288 1.40047,-0.39464 1.40047,8.01853 1.40047,-2.298 1.40047,1.63832 1.40047,-5.92054 1.40047,0.84866 1.40047,8.56799 1.40047,-5.59658 1.40047,-2.09601 1.40047,2.54521 1.40047,-3.16464 1.40047,6.26066 1.40047,-0.48015 1.40047,-4.71066 1.40047,4.56623 1.40047,-8.57135 1.40048,0.0234 1.40047,1.5168 1.40047,2.06377 1.40047,-2.07367 1.40047,2.46226 1.40047,-2.02764 1.40047,2.78375 1.40047,-1.79256 1.40047,-5.02055 1.40047,1.33345 1.40047,4.69562 1.40047,-3.92062 1.40047,1.63733 1.40047,-0.36322 1.40047,1.90117 1.40047,-4.61343 1.40047,3.58599 1.40048,-1.60011 1.40047,1.53001 1.40047,-1.74223 1.40047,0.30868 1.40047,-5.2627 1.40047,2.02634 1.40047,-1.29218 1.40047,7.49656 1.40047,-4.49904 1.40047,3.30096 1.40047,-6.67178 1.40047,4.89109 1.40047,-4.40338 1.40047,2.86246 1.40047,-0.71856 1.40047,1.75064 1.40047,-5.51083 1.40048,0.6752 1.40047,3.64427 1.40047,-4.19615 1.40047,5.11611 1.40047,-6.91031 1.40047,3.87172 1.40047,-0.77598 1.40047,0.4141 1.40047,0.59761 1.40047,-4.89226 1.40047,6.30327 1.40047,-6.51649 1.40047,-2.01815 1.40047,1.96806 1.40047,-5.77501 1.40048,8.96698 1.40046,-5.22514 1.40048,-1.50769 1.40047,-4.25206 1.40047,-3.31004 1.40047,3.27998 1.40047,4.88767 1.40047,-9.16856 1.40047,4.19508 1.40047,-3.14735 1.40047,-11.28853 1.40047,-116.162953 1.40047,6.576655 1.40047,-6.348834 1.40047,1.963598 1.40047,-1.637558 1.40047,3.952706 1.40047,-3.053229 1.40047,4.564553 1.40048,4.127445 1.40047,-6.271389 1.40047,-0.59232 1.40047,0.40546 1.40047,-0.759344 1.40047,-2.703322 1.40047,-1.624855 1.40047,-8.369533 v 0"
         style="fill:none;stroke:#87ceeb;stroke-width:1.5;stroke-linecap:square;stroke-linejoin:round;stroke-miterlimit:10;stroke-dasharray:none;stroke-opacity:1"
         id="path258" /></g><g
       id="g262"
       clip-path="url(#clipPath266)"
       transform="matrix(0.57532836,0,0,0.57532836,8.9257355,141.94155)"><path
         d="m 57.6,222.29139 1.400471,-0.67884 1.40047,6.05512 1.400471,4.25713 1.40047,2.16408 1.400471,7.70169 1.400471,5.74594 1.40047,5.00224 1.400471,6.27888 1.40047,5.25926 1.400471,2.0498 1.40047,0.57252 1.400471,3.97531 1.400471,3.01343 1.40047,-0.77526 1.400471,4.07324 1.40047,0.91207 1.400471,-2.02562 1.400471,-0.56856 1.40047,-1.58821 1.400471,7.15384 1.40047,-3.52277 1.400471,-2.37948 1.400471,1.96711 1.40047,-4.78507 1.400471,4.29126 1.40047,-0.0132 1.400471,2.29152 1.40047,-2.40081 1.400471,4.8058 1.400471,-1.52389 1.400472,9.66685 1.40047,-1.76111 1.40047,2.55589 1.40047,-3.89535 1.40047,3.02362 1.40047,0.14396 1.40047,-0.89061 1.40047,1.74719 1.40047,0.81728"
         style="fill:none;stroke:#7cfc00;stroke-width:1.5;stroke-linecap:square;stroke-linejoin:round;stroke-miterlimit:10;stroke-dasharray:none;stroke-opacity:1"
         id="path268" /></g><g
       id="g272"
       clip-path="url(#clipPath276)"
       transform="matrix(0.57532836,0,0,0.57532836,8.9257355,141.94155)"><path
         d="m 57.6,229.19544 1.400471,-3.06219 1.40047,0.33842 1.400471,-0.65497 1.40047,-1.99008 1.400471,5.53879 1.400471,4.63455 1.40047,4.32568 1.400471,5.3279 1.40047,4.26833 1.400471,2.6128 1.40047,1.14057 1.400471,3.55806 1.400471,3.94846 1.40047,-1.5998 1.400471,2.72335 1.40047,0.0264 1.400471,-2.3585 1.400471,-1.85442 1.40047,-0.91125 1.400471,8.10573 1.40047,-4.06303 1.400471,-1.32245 1.400471,2.6426 1.40047,-5.64529 1.400471,3.02179 1.40047,-0.57873 1.400471,3.0139 1.40047,-2.03222 1.400471,6.76713 1.400471,0.026 1.400472,9.80709 1.40047,-1.82826 1.40047,2.34523 1.40047,-6.07919 1.40047,2.86441 1.40047,2.13 1.40047,-1.05887 1.40047,2.24348 1.40047,2.14606"
         style="fill:none;stroke:#006400;stroke-width:1.5;stroke-linecap:square;stroke-linejoin:round;stroke-miterlimit:10;stroke-dasharray:none;stroke-opacity:1"
         id="path278" /></g><g
       id="g282"
       clip-path="url(#clipPath286)"
       transform="matrix(0.57532836,0,0,0.57532836,8.9257355,141.94155)"><path
         d="m 57.6,292.032 1.400471,-3.70064 1.40047,-3.04827 1.400471,1.53765 1.40047,1.83519 1.400471,0.21631 1.400471,-1.63241 1.40047,-1.92004 1.400471,0.39511 1.40047,-1.60779 1.400471,-1.4051 1.40047,-1.80836 1.400471,-0.83532 1.400471,-2.606 1.40047,-3.45672 1.400471,4.89967 1.40047,-0.7164 1.400471,-0.14612 1.400471,1.71021 1.40047,-2.15518 1.400471,-5.24434 1.40047,-0.86524 1.400471,-3.67467 1.400471,0.36629 1.40047,5.92038 1.400471,-0.79476 1.40047,-3.36988 1.400471,1.01581 1.40047,-3.63562 1.400471,-0.31737 1.400471,0.48245 1.400472,-4.12737 1.40047,-0.429 1.40047,-2.33999 1.40047,3.35403 1.40047,-0.57407 1.40047,-5.71133 1.40047,3.96815 1.40047,-0.37363 1.40047,-5.03581 1.40047,-0.99398 1.40047,1.40785 1.40048,-2.49863 1.40046,-3.88215 1.40048,-2.58532 1.40047,4.36154 1.40047,-3.72953 1.40047,-3.04107 1.40047,-4.32287 1.40047,5.18593 1.40047,-1.24171 1.40047,-2.50054 1.40047,5.66948 1.40047,-8.3532 1.40047,1.10175 1.40047,1.90069 1.40047,-2.00091 1.40047,0.91011 1.40047,-1.43739 1.40047,3.69679 1.40048,-3.40439 1.40047,1.64631 1.40047,1.03217 1.40047,-6.41327 1.40047,0.30081 1.40047,-3.54686 1.40047,2.61701 1.40047,4.83938 1.40047,-4.49339 1.40047,1.47134 1.40047,-7.49898 1.40047,7.49133 1.40047,-1.46735 1.40047,0.57733 1.40047,-0.93148 1.40047,0.96275 1.40047,3.29471 1.40047,-3.2632 1.40048,-7.07533 1.40047,-0.71468 1.40047,-4.89706 1.40047,-4.374 1.40047,8.8528 1.40047,2.6173 1.40047,-9.22576 1.40047,0.46253 1.40047,0.65053 1.40047,1.22058 1.40047,-6.47989 1.40047,0.74312 1.40047,0.9732 1.40047,3.1675 1.40047,-4.64797 1.40047,-2.17962 1.40047,3.75253 1.40048,0.37292 1.40047,1.04186 1.40047,-4.26443 1.40047,3.11371 1.40047,-4.47985 1.40047,2.79736 1.40047,0.20204 1.40047,1.32664 1.40047,-1.70367 1.40047,-4.77491 1.40047,7.87022 1.40047,-3.0249 1.40047,-0.96531 1.40047,3.97494 1.40047,-0.52879 1.40047,-4.80778 1.40048,1.3599 1.40047,0.83901 1.40047,2.2275 1.40047,0.93636 1.40047,1.07369 1.40047,-1.0212 1.40047,3.09372 1.40047,3.45173 1.40047,-1.60088 1.40047,3.05021 1.40047,-5.99688 1.40047,1.20447 1.40047,-1.46132 1.40047,-1.97089 1.40047,-3.05 1.40047,5.29149 1.40047,-0.72062 1.40048,-6.41567 1.40047,0.65415 2.80094,-2.17283 1.40047,3.47129 1.40047,-5.12042 1.40047,-4.23487 1.40047,0.97237 1.40047,2.31008 1.40047,3.05172 1.40047,6.77602 1.40047,-2.95603 1.40047,-9.7908 1.40047,5.04235 1.40047,-2.62805 1.40047,1.60675 1.40047,-2.92694 1.40047,5.27688 1.40048,-4.00291 1.40047,0.62522 1.40047,6.19491 1.40047,-1.82149 1.40047,-10.87908 1.40047,3.04355 1.40047,9.22902 1.40047,-2.82524 1.40047,-4.22296 1.40047,2.2023 1.40047,-4.43974 1.40047,4.44943 1.40047,-4.72523 1.40047,14.14305 1.40047,0.54701 2.80094,-18.13934 1.40048,4.9639 1.40047,1.0959 1.40047,-3.15088 1.40047,2.51041 1.40047,-0.008 1.40047,2.51755 1.40047,2.04757 1.40047,-4.22608 1.40047,-8.67179 1.40047,-0.29997 1.40047,2.01175 1.40047,-4.27069 1.40047,7.44835 1.40047,-1.63311 1.40047,-6.48755 1.40047,6.96632 1.40047,-11.79691 1.40048,2.06557 1.40047,0.36412 1.40047,-5.44587 1.40047,1.54127 1.40047,-2.22424 1.40047,2.89877 1.40047,-6.79634 1.40047,3.15668 1.40047,-1.25119 1.40047,3.21634 1.40047,1.85919 1.40047,-3.49649 1.40047,2.47886 1.40047,-2.90046 1.40047,2.61551 1.40047,-0.11728 1.40047,-6.09251 1.40048,2.03144 1.40047,3.07542 1.40047,-0.92934 1.40047,-2.74477 1.40047,-5.22114 1.40047,2.82442 1.40047,-0.36691 1.40047,11.42033 1.40047,-7.12418 1.40047,3.31974 1.40047,-5.64586 1.40047,3.12807 1.40047,1.69223 1.40047,4.13205 1.40047,-7.5509 1.40047,4.51472 1.40047,-1.22637 1.40048,-0.96412 1.40047,-1.79542 1.40047,-0.45907 1.40047,4.87417 1.40047,-6.6057 1.40047,-8.69641 1.40047,10.03649 1.40047,-3.764 1.40047,7.67634 1.40047,-4.21396 1.40047,1.63808 1.40047,-4.48197 1.40047,9.36086 1.40047,-0.41035 1.40047,-9.99137 1.40048,8.13091 1.40046,3.2574 1.40048,-5.85221 1.40047,7.41827 1.40047,-8.8488 1.40047,3.8508 1.40047,5.88307 1.40047,-11.87389 1.40047,-0.4945 1.40047,4.70497 1.40047,-2.71166 1.40047,-8.63163 1.40047,9.68386 1.40047,0.41752 1.40047,0.008 1.40047,0.90605 1.40047,-9.94729 1.40047,13.34663 1.40047,-6.5378 1.40048,1.96156 1.40047,4.31543 1.40047,-11.1836 1.40047,2.12383 1.40047,1.23757 1.40047,0.79863 1.40047,4.434 1.40047,-3.54685 v 0"
         style="fill:none;stroke:#ff0000;stroke-width:1.5;stroke-linecap:square;stroke-linejoin:round;stroke-miterlimit:10;stroke-dasharray:none;stroke-opacity:1"
         id="path288" /></g><path
       d="M 42.064649,163.81322 V 316.915"
       style="fill:none;stroke:#000000;stroke-width:0.460263;stroke-linecap:square;stroke-linejoin:miter;stroke-miterlimit:10;stroke-dasharray:none;stroke-opacity:1"
       id="path292" /><path
       d="M 247.52592,163.81322 V 316.915"
       style="fill:none;stroke:#000000;stroke-width:0.460263;stroke-linecap:square;stroke-linejoin:miter;stroke-miterlimit:10;stroke-dasharray:none;stroke-opacity:1"
       id="path294" /><path
       d="M 42.064649,163.81322 H 247.52592"
       style="fill:none;stroke:#000000;stroke-width:0.460263;stroke-linecap:square;stroke-linejoin:miter;stroke-miterlimit:10;stroke-dasharray:none;stroke-opacity:1"
       id="path296" /><path
       d="M 42.064649,316.915 H 247.52592"
       style="fill:none;stroke:#000000;stroke-width:0.460263;stroke-linecap:square;stroke-linejoin:miter;stroke-miterlimit:10;stroke-dasharray:none;stroke-opacity:1"
       id="path298" /><path
       d="M 47.242604,205.96503 H 58.749172"
       style="fill:none;stroke:#0000ff;stroke-width:0.862992;stroke-linecap:square;stroke-linejoin:round;stroke-miterlimit:10;stroke-dasharray:none;stroke-opacity:1"
       id="path308" /><path
       d="M 47.242604,197.52387 H 58.749172"
       style="fill:none;stroke:#87ceeb;stroke-width:0.862992;stroke-linecap:square;stroke-linejoin:round;stroke-miterlimit:10;stroke-dasharray:none;stroke-opacity:1"
       id="path314" /><path
       d="M 47.242604,189.08273 H 58.749172"
       style="fill:none;stroke:#7cfc00;stroke-width:0.862992;stroke-linecap:square;stroke-linejoin:round;stroke-miterlimit:10;stroke-dasharray:none;stroke-opacity:1"
       id="path320" /><path
       d="M 47.242604,180.64158 H 58.749172"
       style="fill:none;stroke:#006400;stroke-width:0.862992;stroke-linecap:square;stroke-linejoin:round;stroke-miterlimit:10;stroke-dasharray:none;stroke-opacity:1"
       id="path326" /></g><g
     inkscape:groupmode="layer"
     id="layer1"
     inkscape:label="text"
     style="display:inline"
     transform="translate(-28.023958,-17.206424)"><text
       style="font-variant:normal;font-weight:normal;font-size:7.67104px;font-family:'DejaVu Sans';-inkscape-font-specification:DejaVuSans;writing-mode:lr-tb;fill:#000000;fill-opacity:1;fill-rule:nonzero;stroke:none;stroke-width:0.767104"
       id="text336"
       x="84.469063"
       y="233.88428"><tspan
         x="84.469063 89.156067 92.308868 97.011215 101.87467 105.87128 108.57148 113.28917 116.44197 118.88138 124.82643 131.44653 136.32532 141.2041 146.0829 150.96169 155.84045 158.27986 160.71924 165.59804 170.47682 174.91837 177.35774 179.94287 182.38228 187.62927 193.24449 198.59888 201.18401 203.6234 208.5022 210.94157 215.82034 220.69914"
         y="233.88428"
         sodipodi:role="line"
         id="tspan334"
         style="stroke-width:0.767104">Transfer GM12878, 25k / AUC: 0.617</tspan></text><text
       style="font-variant:normal;font-weight:normal;font-size:7.67104px;font-family:'DejaVu Sans';-inkscape-font-specification:DejaVuSans;writing-mode:lr-tb;fill:#000000;fill-opacity:1;fill-rule:nonzero;stroke:none;stroke-width:0.767104"
       id="text32"
       x="53.647045"
       y="253.57729"><tspan
         x="53.647045"
         y="253.57729"
         id="tspan30"
         style="stroke-width:0.767104">0</tspan></text><text
       style="font-variant:normal;font-weight:normal;font-size:7.67104px;font-family:'DejaVu Sans';-inkscape-font-specification:DejaVuSans;writing-mode:lr-tb;fill:#000000;fill-opacity:1;fill-rule:nonzero;stroke:none;stroke-width:0.767104"
       id="text50"
       x="96.619339"
       y="253.57729"><tspan
         x="96.619339"
         y="253.57729"
         id="tspan48"
         style="stroke-width:0.767104">1</tspan></text><text
       style="font-variant:normal;font-weight:normal;font-size:7.67104px;font-family:'DejaVu Sans';-inkscape-font-specification:DejaVuSans;writing-mode:lr-tb;fill:#000000;fill-opacity:1;fill-rule:nonzero;stroke:none;stroke-width:0.767104"
       id="text68"
       x="139.59163"
       y="253.57729"><tspan
         x="139.59163"
         y="253.57729"
         id="tspan66"
         style="stroke-width:0.767104">2</tspan></text><text
       style="font-variant:normal;font-weight:normal;font-size:7.67104px;font-family:'DejaVu Sans';-inkscape-font-specification:DejaVuSans;writing-mode:lr-tb;fill:#000000;fill-opacity:1;fill-rule:nonzero;stroke:none;stroke-width:0.767104"
       id="text86"
       x="182.5639"
       y="253.57729"><tspan
         x="182.5639"
         y="253.57729"
         id="tspan84"
         style="stroke-width:0.767104">3</tspan></text><text
       style="font-variant:normal;font-weight:normal;font-size:7.67104px;font-family:'DejaVu Sans';-inkscape-font-specification:DejaVuSans;writing-mode:lr-tb;fill:#000000;fill-opacity:1;fill-rule:nonzero;stroke:none;stroke-width:0.767104"
       id="text104"
       x="225.53621"
       y="253.57729"><tspan
         x="225.53621"
         y="253.57729"
         id="tspan102"
         style="stroke-width:0.767104">4</tspan></text><text
       style="font-variant:normal;font-weight:normal;font-size:7.67104px;font-family:'DejaVu Sans';-inkscape-font-specification:DejaVuSans;writing-mode:lr-tb;fill:#000000;fill-opacity:1;fill-rule:nonzero;stroke:none;stroke-width:0.767104"
       id="text122"
       x="268.50851"
       y="253.57729"><tspan
         x="268.50851"
         y="253.57729"
         id="tspan120"
         style="stroke-width:0.767104">5</tspan></text><text
       style="font-variant:normal;font-weight:normal;font-size:7.67104px;font-family:'DejaVu Sans';-inkscape-font-specification:DejaVuSans;writing-mode:lr-tb;fill:#000000;fill-opacity:1;fill-rule:nonzero;stroke:none;stroke-width:0.767104"
       id="text140"
       x="311.48077"
       y="253.57729"><tspan
         x="311.48077"
         y="253.57729"
         id="tspan138"
         style="stroke-width:0.767104">6</tspan></text><text
       style="font-variant:normal;font-weight:normal;font-size:7.67104px;font-family:'DejaVu Sans';-inkscape-font-specification:DejaVuSans;writing-mode:lr-tb;fill:#000000;fill-opacity:1;fill-rule:nonzero;stroke:none;stroke-width:0.767104"
       id="text144"
       x="146.63257"
       y="264.06522"><tspan
         x="146.63257 152.57764 157.29532 162.15877 166.85344 174.32503 176.45758 180.67667 183.11606 187.98717 190.11972 194.11633 197.12338 201.82574 206.68918 210.90826 215.62596 218.06534 220.65048 223.08987 229.70998 234.5811"
         y="264.06522"
         sodipodi:role="line"
         id="tspan142"
         style="stroke-width:0.767104">Genomic distance / Mbp</tspan></text><text
       style="font-variant:normal;font-weight:normal;font-size:7.67104px;font-family:'DejaVu Sans';-inkscape-font-specification:DejaVuSans;writing-mode:lr-tb;fill:#000000;fill-opacity:1;fill-rule:nonzero;stroke:none;stroke-width:0.767104"
       id="text162"
       x="38.514709"
       y="219.33333"><tspan
         x="38.514709 43.393494 45.832886"
         y="219.33333"
         sodipodi:role="line"
         id="tspan160"
         style="stroke-width:0.767104">0.0</tspan></text><text
       style="font-variant:normal;font-weight:normal;font-size:7.67104px;font-family:'DejaVu Sans';-inkscape-font-specification:DejaVuSans;writing-mode:lr-tb;fill:#000000;fill-opacity:1;fill-rule:nonzero;stroke:none;stroke-width:0.767104"
       id="text180"
       x="38.514709"
       y="182.25395"><tspan
         x="38.514709 43.393494 45.832886"
         y="182.25395"
         sodipodi:role="line"
         id="tspan178"
         style="stroke-width:0.767104">0.2</tspan></text><text
       style="font-variant:normal;font-weight:normal;font-size:7.67104px;font-family:'DejaVu Sans';-inkscape-font-specification:DejaVuSans;writing-mode:lr-tb;fill:#000000;fill-opacity:1;fill-rule:nonzero;stroke:none;stroke-width:0.767104"
       id="text198"
       x="38.514709"
       y="145.17459"><tspan
         x="38.514709 43.393494 45.832886"
         y="145.17459"
         sodipodi:role="line"
         id="tspan196"
         style="stroke-width:0.767104">0.4</tspan></text><text
       style="font-variant:normal;font-weight:normal;font-size:7.67104px;font-family:'DejaVu Sans';-inkscape-font-specification:DejaVuSans;writing-mode:lr-tb;fill:#000000;fill-opacity:1;fill-rule:nonzero;stroke:none;stroke-width:0.767104"
       id="text216"
       x="38.514709"
       y="108.09524"><tspan
         x="38.514709 43.393494 45.832886"
         y="108.09524"
         sodipodi:role="line"
         id="tspan214"
         style="stroke-width:0.767104">0.6</tspan></text><text
       style="font-variant:normal;font-weight:normal;font-size:7.67104px;font-family:'DejaVu Sans';-inkscape-font-specification:DejaVuSans;writing-mode:lr-tb;fill:#000000;fill-opacity:1;fill-rule:nonzero;stroke:none;stroke-width:0.767104"
       id="text234"
       x="38.514709"
       y="71.015862"><tspan
         x="38.514709 43.393494 45.832886"
         y="71.015862"
         sodipodi:role="line"
         id="tspan232"
         style="stroke-width:0.767104">0.8</tspan></text><text
       transform="rotate(-90)"
       style="font-variant:normal;font-weight:normal;font-size:7.67104px;font-family:'DejaVu Sans';-inkscape-font-specification:DejaVuSans;writing-mode:lr-tb;fill:#000000;fill-opacity:1;fill-rule:nonzero;stroke:none;stroke-width:0.767104"
       id="text238"
       x="-177.37524"
       y="33.852154"><tspan
         x="-177.37524 -172.74959 -168.03191 -163.32954 -160.17676 -156.18013 -151.48546 -146.62201 -144.18263 -139.96355 -135.26886 -132.11607 -128.96327 -124.24558 -122.11302 -117.41067 -114.40363 -112.27107 -107.57641"
         y="33.852154"
         sodipodi:role="line"
         id="tspan236"
         style="stroke-width:0.767104">Pearson correlation</tspan></text><text
       style="font-variant:normal;font-weight:normal;font-size:9.20526px;font-family:'DejaVu Sans';-inkscape-font-specification:DejaVuSans;writing-mode:lr-tb;fill:#000000;fill-opacity:1;fill-rule:nonzero;stroke:none;stroke-width:0.767104"
       id="text302"
       x="98.328964"
       y="23.326513"><tspan
         x="98.328964 103.87972 109.54096 115.18377 118.96714 123.76307 129.39668 135.23282 138.1601 143.22298 148.8566 152.63997 156.42331 162.08455 164.6436 170.28642 173.8949 176.45395 182.08757 187.92369 190.85097 196.30048 201.09642 204.02368 206.95097 212.7963 218.45752 224.29364 229.92726 238.89319 241.45224 246.51514 249.44241 255.28775 257.8468 262.64273 266.25119 271.89401 277.73013 282.79303"
         y="23.326513"
         sodipodi:role="line"
         id="tspan300"
         style="stroke-width:0.767104">Pearson correlation vs. genomic distance</tspan></text><text
       style="font-variant:normal;font-weight:normal;font-size:9.20526px;font-family:'DejaVu Sans';-inkscape-font-specification:DejaVuSans;writing-mode:lr-tb;fill:#000000;fill-opacity:1;fill-rule:nonzero;stroke:none;stroke-width:0.767104"
       id="text306"
       x="155.16061"
       y="33.644077"><tspan
         x="155.16061 161.58588 167.42201 171.20537 176.83899 185.8049 191.43851 196.23445 201.86809 210.83398 216.49521 219.4225 225.27702"
         y="33.644077"
         sodipodi:role="line"
         id="tspan304"
         style="stroke-width:0.767104">Chromosome 17</tspan></text><text
       style="font-variant:normal;font-weight:normal;font-size:7.67104px;font-family:'DejaVu Sans';-inkscape-font-specification:DejaVuSans;writing-mode:lr-tb;fill:#000000;fill-opacity:1;fill-rule:nonzero;stroke:none;stroke-width:0.767104"
       id="text312"
       x="84.469063"
       y="188.86482"><tspan
         x="84.469063 90.375771 96.113701 101.85165 106.73043 111.60921 114.04862 116.488 121.36679 126.24557 130.68712 133.1265 135.71165 138.15103 143.39803 149.01324 154.36761 156.95276 159.39217 164.27095 166.71033 171.58911 176.46791"
         y="188.86482"
         sodipodi:role="line"
         id="tspan310"
         style="stroke-width:0.767104">DNN80, 25k / AUC: 0.577</tspan></text><text
       style="font-variant:normal;font-weight:normal;font-size:7.67104px;font-family:'DejaVu Sans';-inkscape-font-specification:DejaVuSans;writing-mode:lr-tb;fill:#000000;fill-opacity:1;fill-rule:nonzero;stroke:none;stroke-width:0.767104"
       id="text318"
       x="84.469063"
       y="200.11969"><tspan
         x="84.469063 90.414124 95.661118 101.39906 106.27784 111.15663 116.0354 118.47481 120.9142 125.79298 130.67177 135.1133 137.5527 140.13783 142.57722 147.82423 153.43942 158.79382 161.37895 163.81834 168.69714 171.13654 176.0153 180.89409"
         y="200.11969"
         sodipodi:role="line"
         id="tspan316"
         style="stroke-width:0.767104">GAN256, 25k / AUC: 0.571</tspan></text><text
       style="font-variant:normal;font-weight:normal;font-size:7.67104px;font-family:'DejaVu Sans';-inkscape-font-specification:DejaVuSans;writing-mode:lr-tb;fill:#000000;fill-opacity:1;fill-rule:nonzero;stroke:none;stroke-width:0.767104"
       id="text324"
       x="84.469063"
       y="211.37454"><tspan
         x="84.469063 91.08918 96.704384 100.97716 105.66416 107.92712 113.28151 118.1296 122.40237 126.67514 129.11455 131.55394 136.43271 139.20197 144.07309 148.77544 153.64655 158.51767 163.23534 168.10648 170.54585 172.98526 177.86403 182.74281 187.18434 189.62375 192.20889 194.64828 199.89528 205.51048 210.86485 213.45 215.8894 220.76817 223.20757 228.08636 232.96515"
         y="211.37454"
         sodipodi:role="line"
         id="tspan322"
         style="stroke-width:0.767104">MULTICELL, 0-padded, 25k / AUC: 0.820</tspan></text><text
       style="font-variant:normal;font-weight:normal;font-size:7.67104px;font-family:'DejaVu Sans';-inkscape-font-specification:DejaVuSans;writing-mode:lr-tb;fill:#000000;fill-opacity:1;fill-rule:nonzero;stroke:none;stroke-width:0.767104"
       id="text330"
       x="84.469063"
       y="222.62941"><tspan
         x="84.469063 92.055725 94.318687 100.05663 105.96333 112.00046 119.5871 122.02649 124.4659 129.34468 132.11394 136.98503 141.68738 146.5585 151.42961 156.14731 161.0184 163.45782 165.8972 170.77599 175.65477 180.09631 182.53569 185.12085 187.56024 192.80722 198.42244 203.77682 206.36197 208.80135 213.68015 216.11952 220.99829 225.87711"
         y="222.62941"
         sodipodi:role="line"
         id="tspan328"
         style="stroke-width:0.767104">WINDOW, 0-padded, 25k / AUC: 0.760</tspan></text></g></svg>
