<?xml version="1.0" encoding="UTF-8" standalone="no"?>
<svg
   xmlns:dc="http://purl.org/dc/elements/1.1/"
   xmlns:cc="http://creativecommons.org/ns#"
   xmlns:rdf="http://www.w3.org/1999/02/22-rdf-syntax-ns#"
   xmlns:svg="http://www.w3.org/2000/svg"
   xmlns="http://www.w3.org/2000/svg"
   xmlns:sodipodi="http://sodipodi.sourceforge.net/DTD/sodipodi-0.dtd"
   xmlns:inkscape="http://www.inkscape.org/namespaces/inkscape"
   version="1.1"
   id="svg2"
   xml:space="preserve"
   width="80mm"
   height="65.300003mm"
   viewBox="0 0 302.36219 246.80316"
   sodipodi:docname="pearson_chr17_originalData_ZhangEtAl.svg"
   inkscape:version="1.0.2 (1.0.2+r75+1)"><metadata
     id="metadata8"><rdf:RDF><cc:Work
         rdf:about=""><dc:format>image/svg+xml</dc:format><dc:type
           rdf:resource="http://purl.org/dc/dcmitype/StillImage" /><dc:title></dc:title></cc:Work></rdf:RDF></metadata><defs
     id="defs6"><clipPath
       clipPathUnits="userSpaceOnUse"
       id="clipPath22"><path
         d="M 57.6,38.016 H 414.72 V 304.128 H 57.6 Z"
         id="path20" /></clipPath><clipPath
       clipPathUnits="userSpaceOnUse"
       id="clipPath40"><path
         d="M 57.6,38.016 H 414.72 V 304.128 H 57.6 Z"
         id="path38" /></clipPath><clipPath
       clipPathUnits="userSpaceOnUse"
       id="clipPath58"><path
         d="M 57.6,38.016 H 414.72 V 304.128 H 57.6 Z"
         id="path56" /></clipPath><clipPath
       clipPathUnits="userSpaceOnUse"
       id="clipPath76"><path
         d="M 57.6,38.016 H 414.72 V 304.128 H 57.6 Z"
         id="path74" /></clipPath><clipPath
       clipPathUnits="userSpaceOnUse"
       id="clipPath94"><path
         d="M 57.6,38.016 H 414.72 V 304.128 H 57.6 Z"
         id="path92" /></clipPath><clipPath
       clipPathUnits="userSpaceOnUse"
       id="clipPath112"><path
         d="M 57.6,38.016 H 414.72 V 304.128 H 57.6 Z"
         id="path110" /></clipPath><clipPath
       clipPathUnits="userSpaceOnUse"
       id="clipPath134"><path
         d="M 57.6,38.016 H 414.72 V 304.128 H 57.6 Z"
         id="path132" /></clipPath><clipPath
       clipPathUnits="userSpaceOnUse"
       id="clipPath152"><path
         d="M 57.6,38.016 H 414.72 V 304.128 H 57.6 Z"
         id="path150" /></clipPath><clipPath
       clipPathUnits="userSpaceOnUse"
       id="clipPath170"><path
         d="M 57.6,38.016 H 414.72 V 304.128 H 57.6 Z"
         id="path168" /></clipPath><clipPath
       clipPathUnits="userSpaceOnUse"
       id="clipPath188"><path
         d="M 57.6,38.016 H 414.72 V 304.128 H 57.6 Z"
         id="path186" /></clipPath><clipPath
       clipPathUnits="userSpaceOnUse"
       id="clipPath206"><path
         d="M 57.6,38.016 H 414.72 V 304.128 H 57.6 Z"
         id="path204" /></clipPath><clipPath
       clipPathUnits="userSpaceOnUse"
       id="clipPath224"><path
         d="M 57.6,38.016 H 414.72 V 304.128 H 57.6 Z"
         id="path222" /></clipPath><clipPath
       clipPathUnits="userSpaceOnUse"
       id="clipPath246"><path
         d="M 57.6,38.016 H 414.72 V 304.128 H 57.6 Z"
         id="path244" /></clipPath><clipPath
       clipPathUnits="userSpaceOnUse"
       id="clipPath256"><path
         d="M 57.6,38.016 H 414.72 V 304.128 H 57.6 Z"
         id="path254" /></clipPath><clipPath
       clipPathUnits="userSpaceOnUse"
       id="clipPath266"><path
         d="M 57.6,38.016 H 414.72 V 304.128 H 57.6 Z"
         id="path264" /></clipPath></defs><sodipodi:namedview
     pagecolor="#ffffff"
     bordercolor="#666666"
     borderopacity="1"
     objecttolerance="10"
     gridtolerance="10"
     guidetolerance="10"
     inkscape:pageopacity="0"
     inkscape:pageshadow="2"
     inkscape:window-width="1920"
     inkscape:window-height="1020"
     id="namedview4"
     showgrid="false"
     fit-margin-top="0"
     fit-margin-left="0"
     fit-margin-right="0"
     fit-margin-bottom="0"
     units="mm"
     inkscape:zoom="2.6301672"
     inkscape:cx="81.333924"
     inkscape:cy="33.328475"
     inkscape:window-x="0"
     inkscape:window-y="0"
     inkscape:window-maximized="1"
     inkscape:current-layer="layer1" /><g
     id="g10"
     inkscape:groupmode="layer"
     inkscape:label="pearson_chr17_originalData_ZhangEtAl"
     transform="matrix(1.3333333,0,0,-1.3333333,-28.023958,443.59358)"><path
       d="m 42.068484,303.14669 0.978565,-5.45171 0.978566,-2.25017 0.978565,-1.23807 0.978565,6.85217 0.978565,-9.65386 0.978566,-1.16189 0.978564,-2.17277 0.978566,-0.6191 0.978566,-0.85056 0.978565,-1.128 0.978565,-0.15036 0.978565,1.56797 0.978566,-1.7733 0.978564,0.008 1.957131,-0.62886 0.978566,0.12445 0.978565,0.58582 1.957131,-1.25624 0.978565,-0.99017 0.978564,0.40046 0.978566,-1.33871 0.978565,2.02922 0.978568,-2.02314 0.978564,0.41968 0.978565,-1.19493 0.978565,-0.32765 0.978563,-1.50683 0.978565,0.76897 0.978565,-2.06285 0.978569,0.14737 0.978565,-0.45989 0.978565,-1.38953 0.978565,-0.72948 0.978563,-1.02792 0.978565,0.0802 0.978565,-0.76688 0.978569,0.37719 0.978565,-1.4902 0.978565,0.40603 0.978564,-2.04278 0.978564,0.0923 0.978565,-0.39263 0.978564,-0.27145 0.97857,-1.21253 0.978565,0.3553 0.978564,-0.31158 0.978565,0.15772 0.978564,-1.04895 0.978565,-0.60892 0.978564,-2.0257 0.97857,-0.1515 0.978564,-0.35599 0.978565,-0.835 0.978565,0.31088 0.978564,0.77233 0.978564,-0.52086 0.978565,-10e-4 0.978568,-3.65911 0.97856,0.40658 0.97857,-0.55152 0.97856,0.42432 0.97857,-1.73516 0.97857,1.11036 0.97856,-1.43363 0.97857,-2.97599 0.97856,-0.16356 0.97856,0.24833 0.97857,0.37625 0.97857,-0.69365 0.97857,-1.34458 0.97856,1.42059 0.97856,0.3795 0.97857,-0.39842 0.97856,-2.95274 0.97857,1.28172 0.97857,-0.19688 0.97856,0.72403 0.97856,-3.37097 0.97857,1.34652 0.97856,1.85481 0.97858,-1.77811 0.97856,1.23996 0.97856,-1.20726 0.97857,-0.46213 0.97856,0.74957 0.97856,-0.055 0.97858,-0.53562 0.97856,2.07681 0.97857,-0.54369 0.97856,1.59827 0.97856,-1.33565 0.97857,-4.9661 0.97857,1.44724 2.93569,-3.67997 0.97857,-0.11385 0.97856,-3.48061 0.97856,1.63241 0.97858,-0.092 0.97856,0.50439 0.97856,-1.21312 0.97857,0.0891 0.97856,1.41863 0.97857,-1.16828 0.97856,-1.78859 0.97857,4.20888 0.97857,-0.76713 0.97856,3.48987 0.97856,-4.49815 0.97857,-0.86872 0.97856,-0.47231 0.97856,-4.4336 0.97858,-0.54613 0.97856,1.55033 0.97857,1.15084 0.97856,-0.86963 0.97856,-0.43747 0.97857,2.57294 0.97856,-0.97311 0.97857,1.14657 0.97857,-0.97365 0.97856,-0.15306 0.97857,-1.48159 0.97856,-0.19025 0.97856,-0.85301 0.97857,-1.50272 0.97857,-0.58539 0.97856,0.24621 0.97857,-2.18624 0.97856,-0.83194 0.97857,0.42835 0.97856,0.97109 0.97856,-0.71077 0.97858,6.58499 0.97856,-1.3466 0.97856,0.60951 0.97857,-0.346 0.97856,-6.91676 0.97857,3.49 0.97856,-5.88748 1.95714,2.58486 0.97856,-5.81236 0.97856,1.48735 1.95713,1.71115 0.97857,-0.97306 0.97857,0.24727 0.97856,-4.64918 0.97857,3.19671 0.97856,1.09492 0.97856,-7.49272 0.97858,3.86637 0.97856,-2.24524 0.97856,-0.18764 0.97857,-0.0732 0.97856,-1.15434 0.97857,1.69127 0.97857,0.3256 0.97856,-2.18918 0.97857,-1.70841 0.97856,2.70296 0.97856,1.87063 0.97857,-4.35748 0.97857,-1.46246 0.97857,2.626 0.97856,0.91957 0.97856,-1.17249 0.97857,2.71444 0.97856,-2.61164 0.97857,-3.44076 0.97857,1.23048 0.97856,-0.60177 0.97857,-0.80718 0.97856,0.6052 0.97856,-0.10018 0.97858,-2.26748 0.97856,-1.52648 1.95713,3.86251 0.97856,-0.83382 0.97857,1.1845 0.97857,-3.97189 0.97856,4.43731 0.97857,0.29804 0.97856,-5.66944 0.97856,1.92033 0.97857,-2.49365 0.97856,3.53529 0.97857,-0.70675 0.97857,-3.63453 0.97856,1.72522 0.97857,-2.17714 0.97856,0.46061 0.97856,-3.07345 0.97857,2.39273 v 0"
       style="fill:none;stroke:#ff0000;stroke-width:0.86315;stroke-linecap:square;stroke-linejoin:round;stroke-miterlimit:10;stroke-dasharray:none;stroke-opacity:1"
       id="path268" /><g
       id="g16"
       transform="matrix(0.5754332,0,0,0.5754332,8.923532,141.94477)"><g
         id="g18"
         clip-path="url(#clipPath22)"><path
           d="M 57.6,38.016 V 304.128"
           style="fill:none;stroke:#b0b0b0;stroke-width:0.8;stroke-linecap:square;stroke-linejoin:round;stroke-miterlimit:10;stroke-dasharray:none;stroke-opacity:1"
           id="path24" /></g></g><path
       d="m 42.068484,163.82044 v -2.01401"
       style="fill:#000000;fill-opacity:1;fill-rule:nonzero;stroke:#000000;stroke-width:0.460347;stroke-linecap:butt;stroke-linejoin:round;stroke-miterlimit:10;stroke-dasharray:none;stroke-opacity:1"
       id="path28" /><g
       id="g34"
       transform="matrix(0.5754332,0,0,0.5754332,8.923532,141.94477)"><g
         id="g36"
         clip-path="url(#clipPath40)"><path
           d="M 125.62286,38.016 V 304.128"
           style="fill:none;stroke:#b0b0b0;stroke-width:0.8;stroke-linecap:square;stroke-linejoin:round;stroke-miterlimit:10;stroke-dasharray:none;stroke-opacity:1"
           id="path42" /></g></g><path
       d="m 81.211096,163.82044 v -2.01401"
       style="fill:#000000;fill-opacity:1;fill-rule:nonzero;stroke:#000000;stroke-width:0.460347;stroke-linecap:butt;stroke-linejoin:round;stroke-miterlimit:10;stroke-dasharray:none;stroke-opacity:1"
       id="path46" /><g
       id="g52"
       transform="matrix(0.5754332,0,0,0.5754332,8.923532,141.94477)"><g
         id="g54"
         clip-path="url(#clipPath58)"><path
           d="M 193.64571,38.016 V 304.128"
           style="fill:none;stroke:#b0b0b0;stroke-width:0.8;stroke-linecap:square;stroke-linejoin:round;stroke-miterlimit:10;stroke-dasharray:none;stroke-opacity:1"
           id="path60" /></g></g><path
       d="m 120.3537,163.82044 v -2.01401"
       style="fill:#000000;fill-opacity:1;fill-rule:nonzero;stroke:#000000;stroke-width:0.460347;stroke-linecap:butt;stroke-linejoin:round;stroke-miterlimit:10;stroke-dasharray:none;stroke-opacity:1"
       id="path64" /><g
       id="g70"
       transform="matrix(0.5754332,0,0,0.5754332,8.923532,141.94477)"><g
         id="g72"
         clip-path="url(#clipPath76)"><path
           d="M 261.66857,38.016 V 304.128"
           style="fill:none;stroke:#b0b0b0;stroke-width:0.8;stroke-linecap:square;stroke-linejoin:round;stroke-miterlimit:10;stroke-dasharray:none;stroke-opacity:1"
           id="path78" /></g></g><path
       d="m 159.49631,163.82044 v -2.01401"
       style="fill:#000000;fill-opacity:1;fill-rule:nonzero;stroke:#000000;stroke-width:0.460347;stroke-linecap:butt;stroke-linejoin:round;stroke-miterlimit:10;stroke-dasharray:none;stroke-opacity:1"
       id="path82" /><g
       id="g88"
       transform="matrix(0.5754332,0,0,0.5754332,8.923532,141.94477)"><g
         id="g90"
         clip-path="url(#clipPath94)"><path
           d="M 329.69143,38.016 V 304.128"
           style="fill:none;stroke:#b0b0b0;stroke-width:0.8;stroke-linecap:square;stroke-linejoin:round;stroke-miterlimit:10;stroke-dasharray:none;stroke-opacity:1"
           id="path96" /></g></g><path
       d="m 198.63892,163.82044 v -2.01401"
       style="fill:#000000;fill-opacity:1;fill-rule:nonzero;stroke:#000000;stroke-width:0.460347;stroke-linecap:butt;stroke-linejoin:round;stroke-miterlimit:10;stroke-dasharray:none;stroke-opacity:1"
       id="path100" /><g
       id="g106"
       transform="matrix(0.5754332,0,0,0.5754332,8.923532,141.94477)"><g
         id="g108"
         clip-path="url(#clipPath112)"><path
           d="M 397.71429,38.016 V 304.128"
           style="fill:none;stroke:#b0b0b0;stroke-width:0.8;stroke-linecap:square;stroke-linejoin:round;stroke-miterlimit:10;stroke-dasharray:none;stroke-opacity:1"
           id="path114" /></g></g><path
       d="m 237.78154,163.82044 v -2.01401"
       style="fill:#000000;fill-opacity:1;fill-rule:nonzero;stroke:#000000;stroke-width:0.460347;stroke-linecap:butt;stroke-linejoin:round;stroke-miterlimit:10;stroke-dasharray:none;stroke-opacity:1"
       id="path118" /><g
       id="g128"
       transform="matrix(0.5754332,0,0,0.5754332,8.923532,141.94477)"><g
         id="g130"
         clip-path="url(#clipPath134)"><path
           d="M 57.6,38.016 H 414.72"
           style="fill:none;stroke:#b0b0b0;stroke-width:0.8;stroke-linecap:square;stroke-linejoin:round;stroke-miterlimit:10;stroke-dasharray:none;stroke-opacity:1"
           id="path136" /></g></g><path
       d="M 42.068484,163.82044 H 40.054468"
       style="fill:#000000;fill-opacity:1;fill-rule:nonzero;stroke:#000000;stroke-width:0.460347;stroke-linecap:butt;stroke-linejoin:round;stroke-miterlimit:10;stroke-dasharray:none;stroke-opacity:1"
       id="path140" /><g
       id="g146"
       transform="matrix(0.5754332,0,0,0.5754332,8.923532,141.94477)"><g
         id="g148"
         clip-path="url(#clipPath152)"><path
           d="M 57.6,91.2384 H 414.72"
           style="fill:none;stroke:#b0b0b0;stroke-width:0.8;stroke-linecap:square;stroke-linejoin:round;stroke-miterlimit:10;stroke-dasharray:none;stroke-opacity:1"
           id="path154" /></g></g><path
       d="M 42.068484,194.44638 H 40.054468"
       style="fill:#000000;fill-opacity:1;fill-rule:nonzero;stroke:#000000;stroke-width:0.460347;stroke-linecap:butt;stroke-linejoin:round;stroke-miterlimit:10;stroke-dasharray:none;stroke-opacity:1"
       id="path158" /><g
       id="g164"
       transform="matrix(0.5754332,0,0,0.5754332,8.923532,141.94477)"><g
         id="g166"
         clip-path="url(#clipPath170)"><path
           d="M 57.6,144.4608 H 414.72"
           style="fill:none;stroke:#b0b0b0;stroke-width:0.8;stroke-linecap:square;stroke-linejoin:round;stroke-miterlimit:10;stroke-dasharray:none;stroke-opacity:1"
           id="path172" /></g></g><path
       d="M 42.068484,225.07231 H 40.054468"
       style="fill:#000000;fill-opacity:1;fill-rule:nonzero;stroke:#000000;stroke-width:0.460347;stroke-linecap:butt;stroke-linejoin:round;stroke-miterlimit:10;stroke-dasharray:none;stroke-opacity:1"
       id="path176" /><g
       id="g182"
       transform="matrix(0.5754332,0,0,0.5754332,8.923532,141.94477)"><g
         id="g184"
         clip-path="url(#clipPath188)"><path
           d="M 57.6,197.6832 H 414.72"
           style="fill:none;stroke:#b0b0b0;stroke-width:0.8;stroke-linecap:square;stroke-linejoin:round;stroke-miterlimit:10;stroke-dasharray:none;stroke-opacity:1"
           id="path190" /></g></g><path
       d="M 42.068484,255.69825 H 40.054468"
       style="fill:#000000;fill-opacity:1;fill-rule:nonzero;stroke:#000000;stroke-width:0.460347;stroke-linecap:butt;stroke-linejoin:round;stroke-miterlimit:10;stroke-dasharray:none;stroke-opacity:1"
       id="path194" /><g
       id="g200"
       transform="matrix(0.5754332,0,0,0.5754332,8.923532,141.94477)"><g
         id="g202"
         clip-path="url(#clipPath206)"><path
           d="M 57.6,250.9056 H 414.72"
           style="fill:none;stroke:#b0b0b0;stroke-width:0.8;stroke-linecap:square;stroke-linejoin:round;stroke-miterlimit:10;stroke-dasharray:none;stroke-opacity:1"
           id="path208" /></g></g><path
       d="M 42.068484,286.32418 H 40.054468"
       style="fill:#000000;fill-opacity:1;fill-rule:nonzero;stroke:#000000;stroke-width:0.460347;stroke-linecap:butt;stroke-linejoin:round;stroke-miterlimit:10;stroke-dasharray:none;stroke-opacity:1"
       id="path212" /><g
       id="g218"
       transform="matrix(0.5754332,0,0,0.5754332,8.923532,141.94477)"><g
         id="g220"
         clip-path="url(#clipPath224)"><path
           d="M 57.6,304.128 H 414.72"
           style="fill:none;stroke:#b0b0b0;stroke-width:0.8;stroke-linecap:square;stroke-linejoin:round;stroke-miterlimit:10;stroke-dasharray:none;stroke-opacity:1"
           id="path226" /></g></g><path
       d="M 42.068484,316.95012 H 40.054468"
       style="fill:#000000;fill-opacity:1;fill-rule:nonzero;stroke:#000000;stroke-width:0.460347;stroke-linecap:butt;stroke-linejoin:round;stroke-miterlimit:10;stroke-dasharray:none;stroke-opacity:1"
       id="path230" /><path
       d="m 43.047049,249.34078 0.978566,-0.45303 0.978565,-4.26104 0.978565,-3.43767 0.978565,-4.27269 0.978566,-3.23419 0.978564,-2.51694 0.978566,0.4919 0.978566,-2.97366 0.978565,-2.71616 0.978565,1.48403 0.978565,-1.90515 0.978566,-0.55198 0.978564,0.14729 0.978566,-2.62501 0.978565,-0.5115 0.978566,-0.97773 0.978565,-1.1311 0.978565,0.23994 0.978566,-0.6334 0.978565,-0.86176 0.978564,0.14144 0.978566,0.0406 0.978565,-0.0572 0.978568,-0.85067 0.978564,0.17916 0.978565,-1.46914 0.978565,1.71806 0.978563,-1.80404 0.978565,-1.98485 0.978565,-1.82865 0.978569,0.48603 0.978565,1.19051 0.978565,-0.39265 0.978565,-2.20324 0.978563,-3.24069 0.978565,1.53334 0.978565,0.60853 0.978569,0.0848 0.978565,-2.68323 0.978565,-0.0838 0.978564,-1.71363 0.978564,1.60144 0.978565,0.15696 0.978564,0.89332 0.97857,0.46746 0.978565,-0.15402 0.978564,1.31415 1.957129,-3.36554 0.978565,-2.18702 0.978564,1.61471 0.97857,-1.10292 0.978564,3.78274 0.978565,-1.48337 0.978565,1.10594 0.978564,-2.55032 0.978564,-0.053 0.978565,3.11336 0.978568,-0.37681 0.97856,-0.12083 0.97857,1.73099 0.97856,-2.55813 0.97857,2.88803 0.97857,0.62585 1.95713,0.38518 0.97856,-0.35076 0.97856,0.32555 0.97857,1.08545 0.97857,-0.0588 0.97857,-1.54055 0.97856,0.92821 0.97856,0.31972 0.97857,0.16839 0.97856,-0.12171 0.97857,-0.7521 0.97857,0.76119 0.97856,1.5061 0.97856,-0.26345 0.97857,1.44074 0.97856,1.81257 0.97858,-1.39384 0.97856,0.0893 0.97856,-1.47929 0.97857,1.05557 0.97856,2.56524 0.97856,-2.53188 0.97858,0.20593 0.97856,0.0854 0.97857,1.98197 0.97856,1.57557 0.97856,-2.97323 0.97857,-1.00129 0.97857,1.04552 0.97856,-2.7518 0.97857,1.9341 0.97856,-0.63985 0.97857,1.15738 0.97856,-2.76795 0.97856,1.96267 0.97858,0.65004 0.97856,-2.3481 0.97856,2.47683 0.97857,-1.20041 0.97856,1.83233 0.97857,1.31358 0.97856,-3.8602 0.97857,3.02978 0.97857,-3.12745 0.97856,1.17783 0.97856,0.92468 0.97857,2.34814 0.97856,1.44294 0.97856,-4.18837 0.97858,0.64669 0.97856,4.30881 0.97857,-2.10976 0.97856,1.77564 0.97856,-2.32678 0.97857,3.51162 0.97856,-1.39516 0.97857,1.19783 0.97857,-1.02843 0.97856,0.87088 0.97857,-0.27654 0.97856,0.31058 0.97856,0.83605 0.97857,-0.60417 0.97857,-1.62316 0.97856,1.58385 0.97857,-0.59596 0.97856,1.97892 0.97857,-0.0641 0.97856,1.47027 0.97856,0.058 0.97858,1.40458 0.97856,-0.39773 0.97856,-2.60441 0.97857,3.89985 0.97856,-4.59019 0.97857,2.32035 1.95713,0.53897 0.97857,0.29444 0.97856,-3.66797 0.97856,1.77105 0.97857,-0.43522 0.97856,0.4904 0.97857,2.65859 0.97857,-3.5394 0.97856,-1.10897 0.97857,3.60489 0.97856,1.36696 0.97856,-5.63542 0.97858,3.68605 0.97856,-1.29402 0.97856,0.51196 0.97857,-0.65748 0.97856,2.44599 0.97857,-2.99262 0.97857,3.5738 0.97856,-2.50376 0.97857,-0.88972 0.97856,2.95294 0.97856,4.12367 0.97857,-6.38426 0.97857,0.66939 0.97857,3.20237 0.97856,2.71965 0.97856,-3.2106 0.97857,2.2823 0.97856,-2.11438 0.97857,1.64122 0.97857,0.59175 0.97856,-4.05847 0.97857,2.89091 0.97856,1.08474 0.97856,-0.60642 0.97858,-3.40319 0.97856,0.35633 0.97856,1.29925 0.97857,0.66944 0.97856,1.26437 0.97857,-1.64228 0.97857,-4.32746 0.97856,4.72229 0.97857,0.79615 0.97856,-2.49686 0.97856,1.86568 0.97857,0.89714 0.97856,-0.61371 0.97857,2.33132 0.97857,-3.42262 0.97856,0.85976 0.97857,-1.68999 0.97856,4.2368 0.97856,-4.4701 0.97857,2.48354 0.97857,-1.33719 0.97856,0.31822 v 0"
       style="fill:none;stroke:#7cfc00;stroke-width:0.86315;stroke-linecap:square;stroke-linejoin:round;stroke-miterlimit:10;stroke-dasharray:none;stroke-opacity:1"
       id="path248" /><path
       d="m 43.047049,228.05214 0.978566,5.2033 0.978565,-3.36189 0.978565,-2.83841 0.978565,-4.22987 0.978566,-4.7822 0.978564,-1.70486 0.978566,-0.90596 1.957131,-6.29337 0.978565,-0.2732 0.978565,-1.78269 0.978566,-0.71717 0.978564,-1.71089 0.978566,-3.1459 0.978565,-0.44493 0.978566,-1.87466 0.978565,-3.60425 0.978565,-0.12669 0.978566,-1.39537 0.978565,-3.19746 0.978564,0.44387 0.978566,-1.37598 0.978565,-2.29598 0.978568,-0.98874 0.978564,-0.68234 0.978565,-1.13676 0.978565,-0.56585 0.978563,-1.38508 1.95713,-4.11901 0.978569,0.69559 0.978565,1.9708 0.978565,-2.43768 0.978565,-1.15147 0.978563,-3.16986 0.978565,1.1469 1.957134,0.43621 0.978565,-3.74491 0.978565,0.1509 0.978564,-1.77455 0.978564,-0.47034 0.978565,-3.28179 0.978564,3.74971 0.97857,-1.22827 0.978565,0.60504 0.978564,3.44332 0.978565,-4.39309 0.978564,1.42716 0.978565,-1.99117 0.978564,1.18824 0.97857,-1.47314 0.978564,0.59147 0.978565,1.16315 0.978565,-1.08142 0.978564,-1.31134 0.978564,-0.66194 0.978565,3.70417 0.978568,-1.23571 1.95713,2.71862 0.97856,-4.05377 0.97857,4.51834 0.97857,0.88444 0.97856,-0.31899 0.97857,1.06617 0.97856,-1.77156 0.97856,4.22803 0.97857,0.59663 0.97857,-0.65601 0.97857,-1.27666 0.97856,0.23416 0.97856,-0.005 0.97857,1.32919 0.97856,0.36181 0.97857,-0.39729 0.97857,-2.90418 1.95712,6.97553 0.97857,1.79682 0.97856,0.28101 0.97858,3.50601 0.97856,-3.22924 0.97856,1.05721 0.97857,0.61596 1.95712,0.16898 0.97858,-2.16818 0.97856,3.30005 0.97857,-0.28593 0.97856,4.62373 0.97856,-7.04791 0.97857,2.18405 0.97857,3.1822 0.97856,-2.31379 0.97857,3.83769 0.97856,-0.26417 0.97857,3.04677 0.97856,1.51867 0.97856,-0.83394 0.97858,-0.0341 0.97856,1.00688 0.97856,-1.07725 0.97857,2.49579 0.97856,1.63686 0.97857,0.54475 0.97856,1.47151 0.97857,-0.82314 0.97857,1.17481 0.97856,-0.54194 0.97856,1.74356 0.97857,2.44081 0.97856,0.819 1.95714,-0.27947 0.97856,3.61561 0.97857,1.20874 0.97856,2.80303 0.97856,-2.48397 0.97857,1.37705 0.97856,1.68995 0.97857,-1.4365 0.97857,-1.14229 0.97856,2.09961 0.97857,-0.66403 0.97856,1.38799 0.97856,-0.26354 0.97857,-1.19881 0.97857,-0.46556 0.97856,1.54395 0.97857,2.93121 0.97856,0.88928 0.97857,-0.70879 0.97856,2.45464 0.97856,-0.74546 0.97858,0.63011 0.97856,-1.76884 0.97856,-2.05512 0.97857,4.64382 0.97856,-4.09711 0.97857,4.45018 0.97856,-0.18146 0.97857,2.02044 0.97857,0.79022 0.97856,-2.52202 0.97856,1.42514 0.97857,-0.41739 1.95713,3.44723 0.97857,-3.49801 0.97856,3.16862 0.97857,0.25565 0.97856,0.0647 0.97856,1.46299 0.97858,-0.91417 0.97856,3.33619 0.97856,-4.41838 0.97857,0.30548 0.97856,2.26455 0.97857,-2.43303 0.97857,0.53147 0.97856,2.11465 0.97857,0.28907 0.97856,-0.41445 0.97856,4.13292 0.97857,-4.29578 0.97857,0.38206 0.97857,0.88861 0.97856,1.25142 0.97856,-1.57858 0.97857,1.74274 0.97856,-0.11839 0.97857,2.37073 0.97857,-0.41612 0.97856,-2.71175 0.97857,4.89153 0.97856,-1.43368 0.97856,0.67862 0.97858,-1.02089 0.97856,-1.27772 0.97856,1.61009 0.97857,-0.26856 0.97856,4.18956 0.97857,-5.54969 0.97857,-0.67198 0.97856,1.56951 0.97857,4.72893 0.97856,-1.73602 0.97856,-0.0857 0.97857,0.0585 0.97856,-1.5553 0.97857,3.1132 0.97857,-0.15427 0.97856,-1.31937 0.97857,0.6634 0.97856,2.64104 0.97856,-0.81376 0.97857,0.71856 0.97857,-1.69507 0.97856,4.70533 v 0"
       style="fill:none;stroke:#006400;stroke-width:0.86315;stroke-linecap:square;stroke-linejoin:round;stroke-miterlimit:10;stroke-dasharray:none;stroke-opacity:1"
       id="path258" /><path
       d="M 42.068484,163.82044 V 316.95012"
       style="fill:none;stroke:#000000;stroke-width:0.460347;stroke-linecap:square;stroke-linejoin:miter;stroke-miterlimit:10;stroke-dasharray:none;stroke-opacity:1"
       id="path272" /><path
       d="M 247.56719,163.82044 V 316.95012"
       style="fill:none;stroke:#000000;stroke-width:0.460347;stroke-linecap:square;stroke-linejoin:miter;stroke-miterlimit:10;stroke-dasharray:none;stroke-opacity:1"
       id="path274" /><path
       d="M 42.068484,163.82044 H 247.56719"
       style="fill:none;stroke:#000000;stroke-width:0.460347;stroke-linecap:square;stroke-linejoin:miter;stroke-miterlimit:10;stroke-dasharray:none;stroke-opacity:1"
       id="path276" /><path
       d="M 42.068484,316.95012 H 247.56719"
       style="fill:none;stroke:#000000;stroke-width:0.460347;stroke-linecap:square;stroke-linejoin:miter;stroke-miterlimit:10;stroke-dasharray:none;stroke-opacity:1"
       id="path278" /><path
       d="M 67.09447,309.41555 H 78.60314"
       style="fill:none;stroke:#7cfc00;stroke-width:0.86315;stroke-linecap:square;stroke-linejoin:round;stroke-miterlimit:10;stroke-dasharray:none;stroke-opacity:1"
       id="path288" /><path
       d="M 67.09447,300.97285 H 78.60314"
       style="fill:none;stroke:#006400;stroke-width:0.86315;stroke-linecap:square;stroke-linejoin:round;stroke-miterlimit:10;stroke-dasharray:none;stroke-opacity:1"
       id="path294" /><path
       d="M 67.09447,292.53018 H 78.60314"
       style="fill:none;stroke:#ff0000;stroke-width:0.86315;stroke-linecap:square;stroke-linejoin:round;stroke-miterlimit:10;stroke-dasharray:none;stroke-opacity:1"
       id="path300" /></g><g
     inkscape:groupmode="layer"
     id="layer1"
     inkscape:label="text"
     transform="translate(-28.023958,-17.206424)"><text
       style="font-variant:normal;font-weight:normal;font-size:7.67244px;font-family:'DejaVu Sans';-inkscape-font-specification:DejaVuSans;writing-mode:lr-tb;fill:#000000;fill-opacity:1;fill-rule:nonzero;stroke:none;stroke-width:0.767244"
       id="text32"
       x="53.989319"
       y="253.56975"><tspan
         x="53.989319 58.868996 61.308834"
         y="253.56975"
         sodipodi:role="line"
         id="tspan30"
         style="stroke-width:0.767244">0.0</tspan></text><text
       style="font-variant:normal;font-weight:normal;font-size:7.67244px;font-family:'DejaVu Sans';-inkscape-font-specification:DejaVuSans;writing-mode:lr-tb;fill:#000000;fill-opacity:1;fill-rule:nonzero;stroke:none;stroke-width:0.767244"
       id="text50"
       x="102.17946"
       y="253.56975"><tspan
         x="102.17946 107.05913 109.49897"
         y="253.56975"
         sodipodi:role="line"
         id="tspan48"
         style="stroke-width:0.767244">0.2</tspan></text><text
       style="font-variant:normal;font-weight:normal;font-size:7.67244px;font-family:'DejaVu Sans';-inkscape-font-specification:DejaVuSans;writing-mode:lr-tb;fill:#000000;fill-opacity:1;fill-rule:nonzero;stroke:none;stroke-width:0.767244"
       id="text68"
       x="154.36961"
       y="253.56975"><tspan
         x="154.36961 159.24928 161.68912"
         y="253.56975"
         sodipodi:role="line"
         id="tspan66"
         style="stroke-width:0.767244">0.4</tspan></text><text
       style="font-variant:normal;font-weight:normal;font-size:7.67244px;font-family:'DejaVu Sans';-inkscape-font-specification:DejaVuSans;writing-mode:lr-tb;fill:#000000;fill-opacity:1;fill-rule:nonzero;stroke:none;stroke-width:0.767244"
       id="text86"
       x="206.55977"
       y="253.56975"><tspan
         x="206.55977 211.43942 213.87929"
         y="253.56975"
         sodipodi:role="line"
         id="tspan84"
         style="stroke-width:0.767244">0.6</tspan></text><text
       style="font-variant:normal;font-weight:normal;font-size:7.67244px;font-family:'DejaVu Sans';-inkscape-font-specification:DejaVuSans;writing-mode:lr-tb;fill:#000000;fill-opacity:1;fill-rule:nonzero;stroke:none;stroke-width:0.767244"
       id="text104"
       x="258.74991"
       y="253.56975"><tspan
         x="258.74991 263.62958 266.0694"
         y="253.56975"
         sodipodi:role="line"
         id="tspan102"
         style="stroke-width:0.767244">0.8</tspan></text><text
       style="font-variant:normal;font-weight:normal;font-size:7.67244px;font-family:'DejaVu Sans';-inkscape-font-specification:DejaVuSans;writing-mode:lr-tb;fill:#000000;fill-opacity:1;fill-rule:nonzero;stroke:none;stroke-width:0.767244"
       id="text122"
       x="310.94006"
       y="253.56975"><tspan
         x="310.94006 315.81973 318.25955"
         y="253.56975"
         sodipodi:role="line"
         id="tspan120"
         style="stroke-width:0.767244">1.0</tspan></text><text
       style="font-variant:normal;font-weight:normal;font-size:7.67244px;font-family:'DejaVu Sans';-inkscape-font-specification:DejaVuSans;writing-mode:lr-tb;fill:#000000;fill-opacity:1;fill-rule:nonzero;stroke:none;stroke-width:0.767244"
       id="text126"
       x="146.65419"
       y="264.05942"><tspan
         x="146.65419 152.60034 157.31888 162.18321 166.87874 174.3517 176.48463 180.70448 183.14432 188.01633 190.14925 194.14661 197.15419 201.85741 206.72173 210.94159 215.66014 218.09996 220.68558 223.12541 229.74673 234.61874"
         y="264.05942"
         sodipodi:role="line"
         id="tspan124"
         style="stroke-width:0.767244">Genomic distance / Mbp</tspan></text><text
       style="font-variant:normal;font-weight:normal;font-size:7.67244px;font-family:'DejaVu Sans';-inkscape-font-specification:DejaVuSans;writing-mode:lr-tb;fill:#000000;fill-opacity:1;fill-rule:nonzero;stroke:none;stroke-width:0.767244"
       id="text144"
       x="38.516621"
       y="245.2859"><tspan
         x="38.516621 43.396297 45.836132"
         y="245.2859"
         sodipodi:role="line"
         id="tspan142"
         style="stroke-width:0.767244">0.0</tspan></text><text
       style="font-variant:normal;font-weight:normal;font-size:7.67244px;font-family:'DejaVu Sans';-inkscape-font-specification:DejaVuSans;writing-mode:lr-tb;fill:#000000;fill-opacity:1;fill-rule:nonzero;stroke:none;stroke-width:0.767244"
       id="text162"
       x="38.516621"
       y="204.45132"><tspan
         x="38.516621 43.396297 45.836132"
         y="204.45132"
         sodipodi:role="line"
         id="tspan160"
         style="stroke-width:0.767244">0.2</tspan></text><text
       style="font-variant:normal;font-weight:normal;font-size:7.67244px;font-family:'DejaVu Sans';-inkscape-font-specification:DejaVuSans;writing-mode:lr-tb;fill:#000000;fill-opacity:1;fill-rule:nonzero;stroke:none;stroke-width:0.767244"
       id="text180"
       x="38.516621"
       y="163.61674"><tspan
         x="38.516621 43.396297 45.836132"
         y="163.61674"
         sodipodi:role="line"
         id="tspan178"
         style="stroke-width:0.767244">0.4</tspan></text><text
       style="font-variant:normal;font-weight:normal;font-size:7.67244px;font-family:'DejaVu Sans';-inkscape-font-specification:DejaVuSans;writing-mode:lr-tb;fill:#000000;fill-opacity:1;fill-rule:nonzero;stroke:none;stroke-width:0.767244"
       id="text198"
       x="38.516621"
       y="122.78214"><tspan
         x="38.516621 43.396297 45.836132"
         y="122.78214"
         sodipodi:role="line"
         id="tspan196"
         style="stroke-width:0.767244">0.6</tspan></text><text
       style="font-variant:normal;font-weight:normal;font-size:7.67244px;font-family:'DejaVu Sans';-inkscape-font-specification:DejaVuSans;writing-mode:lr-tb;fill:#000000;fill-opacity:1;fill-rule:nonzero;stroke:none;stroke-width:0.767244"
       id="text216"
       x="38.516621"
       y="81.947533"><tspan
         x="38.516621 43.396297 45.836132"
         y="81.947533"
         sodipodi:role="line"
         id="tspan214"
         style="stroke-width:0.767244">0.8</tspan></text><text
       style="font-variant:normal;font-weight:normal;font-size:7.67244px;font-family:'DejaVu Sans';-inkscape-font-specification:DejaVuSans;writing-mode:lr-tb;fill:#000000;fill-opacity:1;fill-rule:nonzero;stroke:none;stroke-width:0.767244"
       id="text234"
       x="38.516621"
       y="41.112953"><tspan
         x="38.516621 43.396297 45.836132"
         y="41.112953"
         sodipodi:role="line"
         id="tspan232"
         style="stroke-width:0.767244">1.0</tspan></text><text
       transform="rotate(-90)"
       style="font-variant:normal;font-weight:normal;font-size:7.67244px;font-family:'DejaVu Sans';-inkscape-font-specification:DejaVuSans;writing-mode:lr-tb;fill:#000000;fill-opacity:1;fill-rule:nonzero;stroke:none;stroke-width:0.767244"
       id="text238"
       x="-177.35382"
       y="33.853214"><tspan
         x="-177.35382 -172.72733 -168.00877 -163.30556 -160.15219 -156.15486 -151.4593 -146.59499 -144.15517 -139.93532 -135.23976 -132.0864 -128.93301 -124.2144 -122.08154 -117.37827 -114.37074 -112.23779 -107.54221"
         y="33.853214"
         sodipodi:role="line"
         id="tspan236"
         style="stroke-width:0.767244">Pearson correlation</tspan></text><text
       style="font-variant:normal;font-weight:normal;font-size:9.20693px;font-family:'DejaVu Sans';-inkscape-font-specification:DejaVuSans;writing-mode:lr-tb;fill:#000000;fill-opacity:1;fill-rule:nonzero;stroke:none;stroke-width:0.767244"
       id="text282"
       x="98.341774"
       y="23.276911"><tspan
         x="98.341774 103.89355 109.55582 115.19967 118.9837 123.78052 129.41518 135.25237 138.18016 143.24397 148.87862 152.66267 156.44672 162.10898 164.66852 170.31236 173.92148 176.48099 182.11565 187.95282 190.88063 196.33115 201.12796 204.05576 206.98357 212.82996 218.49223 224.32939 229.96407 238.93161 241.49112 246.55495 249.48276 255.32916 257.8887 262.68549 266.29462 271.93845 277.77563 282.83945"
         y="23.276911"
         sodipodi:role="line"
         id="tspan280"
         style="stroke-width:0.767244">Pearson correlation vs. genomic distance</tspan></text><text
       style="font-variant:normal;font-weight:normal;font-size:9.20693px;font-family:'DejaVu Sans';-inkscape-font-specification:DejaVuSans;writing-mode:lr-tb;fill:#000000;fill-opacity:1;fill-rule:nonzero;stroke:none;stroke-width:0.767244"
       id="text286"
       x="155.18378"
       y="33.596355"><tspan
         x="155.18378 161.61021 167.4474 171.23148 176.8661 185.83365 191.46829 196.26511 201.89975 210.86729 216.52956 219.45737 225.31297"
         y="33.596355"
         sodipodi:role="line"
         id="tspan284"
         style="stroke-width:0.767244">Chromosome 17</tspan></text><text
       style="font-variant:normal;font-weight:normal;font-size:7.67244px;font-family:'DejaVu Sans';-inkscape-font-specification:DejaVuSans;writing-mode:lr-tb;fill:#000000;fill-opacity:1;fill-rule:nonzero;stroke:none;stroke-width:0.767244"
       id="text292"
       x="110.94215"
       y="50.931282"><tspan
         x="110.94215 117.56345 123.17969 127.45323 132.14111 134.40445 139.75983 144.60883 148.88235 153.15591 155.59575 160.29131 163.44466 165.57759 170.4496 172.88943 175.32927 177.76912 182.64877 187.09113 189.53094 192.11658 194.55643 199.80438 205.42059 210.77597 213.36157 215.80142 220.68109 223.12091 228.00061 232.88025"
         y="50.931282"
         sodipodi:role="line"
         id="tspan290"
         style="stroke-width:0.767244">MULTICELL orig., 5k / AUC: 0.364</tspan></text><text
       style="font-variant:normal;font-weight:normal;font-size:7.67244px;font-family:'DejaVu Sans';-inkscape-font-specification:DejaVuSans;writing-mode:lr-tb;fill:#000000;fill-opacity:1;fill-rule:nonzero;stroke:none;stroke-width:0.767244"
       id="text298"
       x="110.94215"
       y="62.18819"><tspan
         x="110.94215 118.5302 120.79356 126.53255 132.44032 138.47853 146.06659 148.50641 150.94624 155.64178 158.79515 160.9281 165.80009 168.23994 170.67978 173.11963 177.99928 182.44165 184.88147 187.46707 189.90692 195.15488 200.77109 206.12646 208.71207 211.15189 216.03159 218.47141 223.3511 228.23077"
         y="62.18819"
         sodipodi:role="line"
         id="tspan296"
         style="stroke-width:0.767244">WINDOW, orig., 5k / AUC: 0.252</tspan></text><text
       style="font-variant:normal;font-weight:normal;font-size:7.67244px;font-family:'DejaVu Sans';-inkscape-font-specification:DejaVuSans;writing-mode:lr-tb;fill:#000000;fill-opacity:1;fill-rule:nonzero;stroke:none;stroke-width:0.767244"
       id="text304"
       x="110.94215"
       y="73.445099"><tspan
         x="110.94215 115.63 118.78337 123.48657 128.35091 132.34825 135.04895 139.76752 142.92088 145.36072 151.30685 157.92818 162.80786 167.68752 172.56721 177.44687 182.32654 184.76639 187.20621 192.08588 196.52823 198.96808 201.55368 203.99353 209.24146 214.85773 220.21307 222.79865 225.23853 230.11819 232.55801 237.43771 242.31735"
         y="73.445099"
         sodipodi:role="line"
         id="tspan302"
         style="stroke-width:0.767244">Transfer GM12878, 5k / AUC: 0.564</tspan></text></g></svg>
