<?xml version="1.0" encoding="UTF-8" standalone="no"?>
<svg
   xmlns:dc="http://purl.org/dc/elements/1.1/"
   xmlns:cc="http://creativecommons.org/ns#"
   xmlns:rdf="http://www.w3.org/1999/02/22-rdf-syntax-ns#"
   xmlns:svg="http://www.w3.org/2000/svg"
   xmlns="http://www.w3.org/2000/svg"
   xmlns:sodipodi="http://sodipodi.sourceforge.net/DTD/sodipodi-0.dtd"
   xmlns:inkscape="http://www.inkscape.org/namespaces/inkscape"
   version="1.1"
   id="svg2"
   xml:space="preserve"
   width="80mm"
   height="65.300003mm"
   viewBox="0 0 302.36219 246.80316"
   sodipodi:docname="pearson_chr17_detail_25k_singleChrom.svg"
   inkscape:version="1.0.2 (1.0.2+r75+1)"><metadata
     id="metadata8"><rdf:RDF><cc:Work
         rdf:about=""><dc:format>image/svg+xml</dc:format><dc:type
           rdf:resource="http://purl.org/dc/dcmitype/StillImage" /><dc:title></dc:title></cc:Work></rdf:RDF></metadata><defs
     id="defs6"><clipPath
       clipPathUnits="userSpaceOnUse"
       id="clipPath22"><path
         d="M 57.6,38.016 H 414.72 V 304.128 H 57.6 Z"
         id="path20" /></clipPath><clipPath
       clipPathUnits="userSpaceOnUse"
       id="clipPath40"><path
         d="M 57.6,38.016 H 414.72 V 304.128 H 57.6 Z"
         id="path38" /></clipPath><clipPath
       clipPathUnits="userSpaceOnUse"
       id="clipPath58"><path
         d="M 57.6,38.016 H 414.72 V 304.128 H 57.6 Z"
         id="path56" /></clipPath><clipPath
       clipPathUnits="userSpaceOnUse"
       id="clipPath76"><path
         d="M 57.6,38.016 H 414.72 V 304.128 H 57.6 Z"
         id="path74" /></clipPath><clipPath
       clipPathUnits="userSpaceOnUse"
       id="clipPath94"><path
         d="M 57.6,38.016 H 414.72 V 304.128 H 57.6 Z"
         id="path92" /></clipPath><clipPath
       clipPathUnits="userSpaceOnUse"
       id="clipPath112"><path
         d="M 57.6,38.016 H 414.72 V 304.128 H 57.6 Z"
         id="path110" /></clipPath><clipPath
       clipPathUnits="userSpaceOnUse"
       id="clipPath134"><path
         d="M 57.6,38.016 H 414.72 V 304.128 H 57.6 Z"
         id="path132" /></clipPath><clipPath
       clipPathUnits="userSpaceOnUse"
       id="clipPath152"><path
         d="M 57.6,38.016 H 414.72 V 304.128 H 57.6 Z"
         id="path150" /></clipPath><clipPath
       clipPathUnits="userSpaceOnUse"
       id="clipPath170"><path
         d="M 57.6,38.016 H 414.72 V 304.128 H 57.6 Z"
         id="path168" /></clipPath><clipPath
       clipPathUnits="userSpaceOnUse"
       id="clipPath188"><path
         d="M 57.6,38.016 H 414.72 V 304.128 H 57.6 Z"
         id="path186" /></clipPath><clipPath
       clipPathUnits="userSpaceOnUse"
       id="clipPath206"><path
         d="M 57.6,38.016 H 414.72 V 304.128 H 57.6 Z"
         id="path204" /></clipPath><clipPath
       clipPathUnits="userSpaceOnUse"
       id="clipPath224"><path
         d="M 57.6,38.016 H 414.72 V 304.128 H 57.6 Z"
         id="path222" /></clipPath><clipPath
       clipPathUnits="userSpaceOnUse"
       id="clipPath246"><path
         d="M 57.6,38.016 H 414.72 V 304.128 H 57.6 Z"
         id="path244" /></clipPath><clipPath
       clipPathUnits="userSpaceOnUse"
       id="clipPath256"><path
         d="M 57.6,38.016 H 414.72 V 304.128 H 57.6 Z"
         id="path254" /></clipPath><clipPath
       clipPathUnits="userSpaceOnUse"
       id="clipPath266"><path
         d="M 57.6,38.016 H 414.72 V 304.128 H 57.6 Z"
         id="path264" /></clipPath><clipPath
       clipPathUnits="userSpaceOnUse"
       id="clipPath276"><path
         d="M 57.6,38.016 H 414.72 V 304.128 H 57.6 Z"
         id="path274" /></clipPath></defs><sodipodi:namedview
     pagecolor="#ffffff"
     bordercolor="#666666"
     borderopacity="1"
     objecttolerance="10"
     gridtolerance="10"
     guidetolerance="10"
     inkscape:pageopacity="0"
     inkscape:pageshadow="2"
     inkscape:window-width="1920"
     inkscape:window-height="1020"
     id="namedview4"
     showgrid="false"
     units="mm"
     fit-margin-top="0"
     fit-margin-left="0"
     fit-margin-right="0"
     fit-margin-bottom="0"
     inkscape:zoom="2.6301672"
     inkscape:cx="136.59034"
     inkscape:cy="123.33591"
     inkscape:window-x="0"
     inkscape:window-y="0"
     inkscape:window-maximized="1"
     inkscape:current-layer="layer1" /><g
     id="g10"
     inkscape:groupmode="layer"
     inkscape:label="pearson_chr17_detail_25k_singleChrom"
     transform="matrix(1.3333333,0,0,-1.3333333,-28.023958,443.59358)"><g
       id="g272"
       clip-path="url(#clipPath276)"
       transform="matrix(0.57527009,0,0,0.57527009,8.9269601,141.98275)"><path
         d="m 57.6,261.0628 8.928,-7.40852 8.928,-6.10248 8.928,3.0783 8.928,3.67396 8.928,0.43305 8.928,-3.268 8.928,-3.84385 8.928,0.79099 8.928,-3.21872 8.928,-2.81292 8.928,-3.62027 8.928,-1.67227 8.928,-5.21709 8.928,-6.92019 8.928,9.8089 8.928,-1.43418 8.928,-0.29254 8.928,3.42376 8.928,-4.31457 8.928,-10.49892 8.928,-1.73218 8.928,-7.35651 8.928,0.7333 8.928,11.85232 8.928,-1.59108 8.928,-6.74634 8.928,2.0336 8.928,-7.27834 8.928,-0.63536 8.928,0.96584 8.928,-8.26279 8.928,-0.85884 8.928,-4.68455 8.928,6.71461 8.928,-1.14927 8.928,-11.4338 8.928,7.94404 8.928,-0.74799 8.928,-10.08145 8.928,-1.9899 8.928,2.81845 8.928,-5.00215 8.928,-7.77188 8.928,-5.1757 8.928,8.73161 2.44,-2.04053 v 0"
         style="fill:none;stroke:#ff0000;stroke-width:1.5;stroke-linecap:square;stroke-linejoin:round;stroke-miterlimit:10;stroke-dasharray:none;stroke-opacity:1"
         id="path278" /></g><g
       id="g16"
       transform="matrix(0.57527009,0,0,0.57527009,8.9269601,141.98275)"><g
         id="g18"
         clip-path="url(#clipPath22)"><path
           d="M 57.6,38.016 V 304.128"
           style="fill:none;stroke:#b0b0b0;stroke-width:0.8;stroke-linecap:square;stroke-linejoin:round;stroke-miterlimit:10;stroke-dasharray:none;stroke-opacity:1"
           id="path24" /></g></g><path
       d="m 42.062518,163.85223 v -2.01345"
       style="fill:#000000;fill-opacity:1;fill-rule:nonzero;stroke:#000000;stroke-width:0.460217;stroke-linecap:butt;stroke-linejoin:round;stroke-miterlimit:10;stroke-dasharray:none;stroke-opacity:1"
       id="path28" /><g
       id="g34"
       transform="matrix(0.57527009,0,0,0.57527009,8.9269601,141.98275)"><g
         id="g36"
         clip-path="url(#clipPath40)"><path
           d="M 129.024,38.016 V 304.128"
           style="fill:none;stroke:#b0b0b0;stroke-width:0.8;stroke-linecap:square;stroke-linejoin:round;stroke-miterlimit:10;stroke-dasharray:none;stroke-opacity:1"
           id="path42" /></g></g><path
       d="m 83.150609,163.85223 v -2.01345"
       style="fill:#000000;fill-opacity:1;fill-rule:nonzero;stroke:#000000;stroke-width:0.460217;stroke-linecap:butt;stroke-linejoin:round;stroke-miterlimit:10;stroke-dasharray:none;stroke-opacity:1"
       id="path46" /><g
       id="g52"
       transform="matrix(0.57527009,0,0,0.57527009,8.9269601,141.98275)"><g
         id="g54"
         clip-path="url(#clipPath58)"><path
           d="M 200.448,38.016 V 304.128"
           style="fill:none;stroke:#b0b0b0;stroke-width:0.8;stroke-linecap:square;stroke-linejoin:round;stroke-miterlimit:10;stroke-dasharray:none;stroke-opacity:1"
           id="path60" /></g></g><path
       d="m 124.2387,163.85223 v -2.01345"
       style="fill:#000000;fill-opacity:1;fill-rule:nonzero;stroke:#000000;stroke-width:0.460217;stroke-linecap:butt;stroke-linejoin:round;stroke-miterlimit:10;stroke-dasharray:none;stroke-opacity:1"
       id="path64" /><g
       id="g70"
       transform="matrix(0.57527009,0,0,0.57527009,8.9269601,141.98275)"><g
         id="g72"
         clip-path="url(#clipPath76)"><path
           d="M 271.872,38.016 V 304.128"
           style="fill:none;stroke:#b0b0b0;stroke-width:0.8;stroke-linecap:square;stroke-linejoin:round;stroke-miterlimit:10;stroke-dasharray:none;stroke-opacity:1"
           id="path78" /></g></g><path
       d="m 165.32679,163.85223 v -2.01345"
       style="fill:#000000;fill-opacity:1;fill-rule:nonzero;stroke:#000000;stroke-width:0.460217;stroke-linecap:butt;stroke-linejoin:round;stroke-miterlimit:10;stroke-dasharray:none;stroke-opacity:1"
       id="path82" /><g
       id="g88"
       transform="matrix(0.57527009,0,0,0.57527009,8.9269601,141.98275)"><g
         id="g90"
         clip-path="url(#clipPath94)"><path
           d="M 343.296,38.016 V 304.128"
           style="fill:none;stroke:#b0b0b0;stroke-width:0.8;stroke-linecap:square;stroke-linejoin:round;stroke-miterlimit:10;stroke-dasharray:none;stroke-opacity:1"
           id="path96" /></g></g><path
       d="m 206.41488,163.85223 v -2.01345"
       style="fill:#000000;fill-opacity:1;fill-rule:nonzero;stroke:#000000;stroke-width:0.460217;stroke-linecap:butt;stroke-linejoin:round;stroke-miterlimit:10;stroke-dasharray:none;stroke-opacity:1"
       id="path100" /><g
       id="g106"
       transform="matrix(0.57527009,0,0,0.57527009,8.9269601,141.98275)"><g
         id="g108"
         clip-path="url(#clipPath112)"><path
           d="M 414.72,38.016 V 304.128"
           style="fill:none;stroke:#b0b0b0;stroke-width:0.8;stroke-linecap:square;stroke-linejoin:round;stroke-miterlimit:10;stroke-dasharray:none;stroke-opacity:1"
           id="path114" /></g></g><path
       d="m 247.50298,163.85223 v -2.01345"
       style="fill:#000000;fill-opacity:1;fill-rule:nonzero;stroke:#000000;stroke-width:0.460217;stroke-linecap:butt;stroke-linejoin:round;stroke-miterlimit:10;stroke-dasharray:none;stroke-opacity:1"
       id="path118" /><g
       id="g128"
       transform="matrix(0.57527009,0,0,0.57527009,8.9269601,141.98275)"><g
         id="g130"
         clip-path="url(#clipPath134)"><path
           d="M 57.6,62.208 H 414.72"
           style="fill:none;stroke:#b0b0b0;stroke-width:0.8;stroke-linecap:square;stroke-linejoin:round;stroke-miterlimit:10;stroke-dasharray:none;stroke-opacity:1"
           id="path136" /></g></g><path
       d="M 42.062518,177.76916 H 40.049072"
       style="fill:#000000;fill-opacity:1;fill-rule:nonzero;stroke:#000000;stroke-width:0.460217;stroke-linecap:butt;stroke-linejoin:round;stroke-miterlimit:10;stroke-dasharray:none;stroke-opacity:1"
       id="path140" /><g
       id="g146"
       transform="matrix(0.57527009,0,0,0.57527009,8.9269601,141.98275)"><g
         id="g148"
         clip-path="url(#clipPath152)"><path
           d="M 57.6,110.592 H 414.72"
           style="fill:none;stroke:#b0b0b0;stroke-width:0.8;stroke-linecap:square;stroke-linejoin:round;stroke-miterlimit:10;stroke-dasharray:none;stroke-opacity:1"
           id="path154" /></g></g><path
       d="M 42.062518,205.60303 H 40.049072"
       style="fill:#000000;fill-opacity:1;fill-rule:nonzero;stroke:#000000;stroke-width:0.460217;stroke-linecap:butt;stroke-linejoin:round;stroke-miterlimit:10;stroke-dasharray:none;stroke-opacity:1"
       id="path158" /><g
       id="g164"
       transform="matrix(0.57527009,0,0,0.57527009,8.9269601,141.98275)"><g
         id="g166"
         clip-path="url(#clipPath170)"><path
           d="M 57.6,158.976 H 414.72"
           style="fill:none;stroke:#b0b0b0;stroke-width:0.8;stroke-linecap:square;stroke-linejoin:round;stroke-miterlimit:10;stroke-dasharray:none;stroke-opacity:1"
           id="path172" /></g></g><path
       d="M 42.062518,233.4369 H 40.049072"
       style="fill:#000000;fill-opacity:1;fill-rule:nonzero;stroke:#000000;stroke-width:0.460217;stroke-linecap:butt;stroke-linejoin:round;stroke-miterlimit:10;stroke-dasharray:none;stroke-opacity:1"
       id="path176" /><g
       id="g182"
       transform="matrix(0.57527009,0,0,0.57527009,8.9269601,141.98275)"><g
         id="g184"
         clip-path="url(#clipPath188)"><path
           d="M 57.6,207.36 H 414.72"
           style="fill:none;stroke:#b0b0b0;stroke-width:0.8;stroke-linecap:square;stroke-linejoin:round;stroke-miterlimit:10;stroke-dasharray:none;stroke-opacity:1"
           id="path190" /></g></g><path
       d="M 42.062518,261.27077 H 40.049072"
       style="fill:#000000;fill-opacity:1;fill-rule:nonzero;stroke:#000000;stroke-width:0.460217;stroke-linecap:butt;stroke-linejoin:round;stroke-miterlimit:10;stroke-dasharray:none;stroke-opacity:1"
       id="path194" /><g
       id="g200"
       transform="matrix(0.57527009,0,0,0.57527009,8.9269601,141.98275)"><g
         id="g202"
         clip-path="url(#clipPath206)"><path
           d="M 57.6,255.744 H 414.72"
           style="fill:none;stroke:#b0b0b0;stroke-width:0.8;stroke-linecap:square;stroke-linejoin:round;stroke-miterlimit:10;stroke-dasharray:none;stroke-opacity:1"
           id="path208" /></g></g><path
       d="M 42.062518,289.10464 H 40.049072"
       style="fill:#000000;fill-opacity:1;fill-rule:nonzero;stroke:#000000;stroke-width:0.460217;stroke-linecap:butt;stroke-linejoin:round;stroke-miterlimit:10;stroke-dasharray:none;stroke-opacity:1"
       id="path212" /><g
       id="g218"
       transform="matrix(0.57527009,0,0,0.57527009,8.9269601,141.98275)"><g
         id="g220"
         clip-path="url(#clipPath224)"><path
           d="M 57.6,304.128 H 414.72"
           style="fill:none;stroke:#b0b0b0;stroke-width:0.8;stroke-linecap:square;stroke-linejoin:round;stroke-miterlimit:10;stroke-dasharray:none;stroke-opacity:1"
           id="path226" /></g></g><path
       d="M 42.062518,316.9385 H 40.049072"
       style="fill:#000000;fill-opacity:1;fill-rule:nonzero;stroke:#000000;stroke-width:0.460217;stroke-linecap:butt;stroke-linejoin:round;stroke-miterlimit:10;stroke-dasharray:none;stroke-opacity:1"
       id="path230" /><g
       id="g242"
       clip-path="url(#clipPath246)"
       transform="matrix(0.57527009,0,0,0.57527009,8.9269601,141.98275)"><path
         d="m 57.6,225.66535 8.928,4.32127 8.928,-17.08657 8.928,1.00276 8.928,1.11698 8.928,1.37878 8.928,-3.99548 8.928,-0.23943 8.928,3.97011 8.928,-3.83822 8.928,-0.31347 8.928,-2.10812 8.928,0.97331 8.928,-0.58996 8.928,-5.17839 8.928,3.14128 8.928,2.30511 8.928,-6.68355 8.928,-1.27893 8.928,-5.13138 8.928,8.91966 8.928,-10.99258 8.928,-4.62063 8.928,3.32843 8.928,1.58536 8.928,2.29191 8.928,-1.24668 8.928,-3.94816 8.928,-5.37779 8.928,5.7753 8.928,-7.17909 8.928,6.66301 8.928,-2.83622 8.928,-1.26465 8.928,-6.50933 8.928,-0.30261 8.928,-0.61254 8.928,-2.87658 8.928,-3.45482 8.928,2.37738"
         style="fill:none;stroke:#87ceeb;stroke-width:1.5;stroke-linecap:square;stroke-linejoin:round;stroke-miterlimit:10;stroke-dasharray:none;stroke-opacity:1"
         id="path248" /></g><g
       id="g252"
       clip-path="url(#clipPath256)"
       transform="matrix(0.57527009,0,0,0.57527009,8.9269601,141.98275)"><path
         d="m 57.6,121.44533 8.928,-1.359 8.928,12.12207 8.928,8.52258 8.928,4.33238 8.928,15.41843 8.928,11.5031 8.928,10.01425 8.928,12.57004 8.928,10.52878 8.928,4.10362 8.928,1.14615 8.928,7.95838 8.928,6.03275 8.928,-1.55203 8.928,8.15444 8.928,1.82592 8.928,-4.05519 8.928,-1.13824 8.928,-3.17953 8.928,14.32166 8.928,-7.05241 8.928,-4.76361 8.928,3.93805 8.928,-9.57948 8.928,8.5909 8.928,-0.0264 8.928,4.58753 8.928,-4.80631 8.928,9.62097 8.928,-3.05074 8.928,19.35258 8.928,-3.52566 8.928,5.11677 8.928,-7.7983 8.928,6.05314 8.928,0.28821 8.928,-1.78297 8.928,3.49779 8.928,1.63615"
         style="fill:none;stroke:#7cfc00;stroke-width:1.5;stroke-linecap:square;stroke-linejoin:round;stroke-miterlimit:10;stroke-dasharray:none;stroke-opacity:1"
         id="path258" /></g><g
       id="g262"
       clip-path="url(#clipPath266)"
       transform="matrix(0.57527009,0,0,0.57527009,8.9269601,141.98275)"><path
         d="m 57.6,135.26692 8.928,-6.13036 8.928,0.67749 8.928,-1.31122 8.928,-3.98403 8.928,11.08839 8.928,9.27815 8.928,8.65982 8.928,10.66622 8.928,8.54499 8.928,5.23071 8.928,2.28337 8.928,7.12307 8.928,7.90463 8.928,-3.20273 8.928,5.45201 8.928,0.0529 8.928,-4.7216 8.928,-3.71247 8.928,-1.82428 8.928,16.2273 8.928,-8.13401 8.928,-2.64748 8.928,5.29037 8.928,-11.3016 8.928,6.04947 8.928,-1.15858 8.928,6.03368 8.928,-4.06842 8.928,13.54748 8.928,0.0521 8.928,19.63334 8.928,-3.6601 8.928,4.69506 8.928,-12.17026 8.928,5.7344 8.928,4.26416 8.928,-2.11979 8.928,4.49133 8.928,4.29632"
         style="fill:none;stroke:#006400;stroke-width:1.5;stroke-linecap:square;stroke-linejoin:round;stroke-miterlimit:10;stroke-dasharray:none;stroke-opacity:1"
         id="path268" /></g><path
       d="M 42.062518,163.85223 V 316.9385"
       style="fill:none;stroke:#000000;stroke-width:0.460217;stroke-linecap:square;stroke-linejoin:miter;stroke-miterlimit:10;stroke-dasharray:none;stroke-opacity:1"
       id="path282" /><path
       d="M 247.50298,163.85223 V 316.9385"
       style="fill:none;stroke:#000000;stroke-width:0.460217;stroke-linecap:square;stroke-linejoin:miter;stroke-miterlimit:10;stroke-dasharray:none;stroke-opacity:1"
       id="path284" /><path
       d="M 42.062518,163.85223 H 247.50298"
       style="fill:none;stroke:#000000;stroke-width:0.460217;stroke-linecap:square;stroke-linejoin:miter;stroke-miterlimit:10;stroke-dasharray:none;stroke-opacity:1"
       id="path286" /><path
       d="M 42.062518,316.9385 H 247.50298"
       style="fill:none;stroke:#000000;stroke-width:0.460217;stroke-linecap:square;stroke-linejoin:miter;stroke-miterlimit:10;stroke-dasharray:none;stroke-opacity:1"
       id="path288" /><path
       d="M 47.239948,197.55946 H 58.74535"
       style="fill:none;stroke:#87ceeb;stroke-width:0.862905;stroke-linecap:square;stroke-linejoin:round;stroke-miterlimit:10;stroke-dasharray:none;stroke-opacity:1"
       id="path298" /><path
       d="M 47.239948,189.11917 H 58.74535"
       style="fill:none;stroke:#7cfc00;stroke-width:0.862905;stroke-linecap:square;stroke-linejoin:round;stroke-miterlimit:10;stroke-dasharray:none;stroke-opacity:1"
       id="path304" /><path
       d="M 47.239948,180.67888 H 58.74535"
       style="fill:none;stroke:#006400;stroke-width:0.862905;stroke-linecap:square;stroke-linejoin:round;stroke-miterlimit:10;stroke-dasharray:none;stroke-opacity:1"
       id="path310" /><path
       d="M 47.239948,172.23858 H 58.74535"
       style="fill:none;stroke:#ff0000;stroke-width:0.862905;stroke-linecap:square;stroke-linejoin:round;stroke-miterlimit:10;stroke-dasharray:none;stroke-opacity:1"
       id="path316" /></g><g
     inkscape:groupmode="layer"
     id="layer1"
     inkscape:label="text"
     style="display:inline"
     transform="translate(-28.023958,-17.206424)"><text
       style="font-variant:normal;font-weight:normal;font-size:7.67027px;font-family:'DejaVu Sans';-inkscape-font-specification:DejaVuSans;writing-mode:lr-tb;fill:#000000;fill-opacity:1;fill-rule:nonzero;stroke:none;stroke-width:0.767027"
       id="text32"
       x="49.983093"
       y="253.52396"><tspan
         x="49.983093 54.861385 57.300529"
         y="253.52396"
         sodipodi:role="line"
         id="tspan30"
         style="stroke-width:0.767027">0.0</tspan></text><text
       style="font-variant:normal;font-weight:normal;font-size:7.67027px;font-family:'DejaVu Sans';-inkscape-font-specification:DejaVuSans;writing-mode:lr-tb;fill:#000000;fill-opacity:1;fill-rule:nonzero;stroke:none;stroke-width:0.767027"
       id="text50"
       x="104.76721"
       y="253.52396"><tspan
         x="104.76721 109.64549 112.08465"
         y="253.52396"
         sodipodi:role="line"
         id="tspan48"
         style="stroke-width:0.767027">0.2</tspan></text><text
       style="font-variant:normal;font-weight:normal;font-size:7.67027px;font-family:'DejaVu Sans';-inkscape-font-specification:DejaVuSans;writing-mode:lr-tb;fill:#000000;fill-opacity:1;fill-rule:nonzero;stroke:none;stroke-width:0.767027"
       id="text68"
       x="159.55133"
       y="253.52396"><tspan
         x="159.55133 164.42963 166.86876"
         y="253.52396"
         sodipodi:role="line"
         id="tspan66"
         style="stroke-width:0.767027">0.4</tspan></text><text
       style="font-variant:normal;font-weight:normal;font-size:7.67027px;font-family:'DejaVu Sans';-inkscape-font-specification:DejaVuSans;writing-mode:lr-tb;fill:#000000;fill-opacity:1;fill-rule:nonzero;stroke:none;stroke-width:0.767027"
       id="text86"
       x="214.33546"
       y="253.52396"><tspan
         x="214.33546 219.21375 221.65288"
         y="253.52396"
         sodipodi:role="line"
         id="tspan84"
         style="stroke-width:0.767027">0.6</tspan></text><text
       style="font-variant:normal;font-weight:normal;font-size:7.67027px;font-family:'DejaVu Sans';-inkscape-font-specification:DejaVuSans;writing-mode:lr-tb;fill:#000000;fill-opacity:1;fill-rule:nonzero;stroke:none;stroke-width:0.767027"
       id="text104"
       x="269.11957"
       y="253.52396"><tspan
         x="269.11957 273.99786 276.43701"
         y="253.52396"
         sodipodi:role="line"
         id="tspan102"
         style="stroke-width:0.767027">0.8</tspan></text><text
       style="font-variant:normal;font-weight:normal;font-size:7.67027px;font-family:'DejaVu Sans';-inkscape-font-specification:DejaVuSans;writing-mode:lr-tb;fill:#000000;fill-opacity:1;fill-rule:nonzero;stroke:none;stroke-width:0.767027"
       id="text122"
       x="323.90369"
       y="253.52396"><tspan
         x="323.90369 328.78198 331.22113"
         y="253.52396"
         sodipodi:role="line"
         id="tspan120"
         style="stroke-width:0.767027">1.0</tspan></text><text
       style="font-variant:normal;font-weight:normal;font-size:7.67027px;font-family:'DejaVu Sans';-inkscape-font-specification:DejaVuSans;writing-mode:lr-tb;fill:#000000;fill-opacity:1;fill-rule:nonzero;stroke:none;stroke-width:0.767027"
       id="text126"
       x="146.62056"
       y="264.01093"><tspan
         x="146.62056 152.56502 157.28223 162.14517 166.83939 174.31023 176.44255 180.66121 183.10036 187.97096 190.10329 194.0995 197.10626 201.80814 206.67108 210.88974 215.60695 218.0461 220.63097 223.07011 229.68954 234.56018"
         y="264.01093"
         sodipodi:role="line"
         id="tspan124"
         style="stroke-width:0.767027">Genomic distance / Mbp</tspan></text><text
       style="font-variant:normal;font-weight:normal;font-size:7.67027px;font-family:'DejaVu Sans';-inkscape-font-specification:DejaVuSans;writing-mode:lr-tb;fill:#000000;fill-opacity:1;fill-rule:nonzero;stroke:none;stroke-width:0.767027"
       id="text144"
       x="38.513649"
       y="226.68655"><tspan
         x="38.513649 43.391937 45.831085"
         y="226.68655"
         sodipodi:role="line"
         id="tspan142"
         style="stroke-width:0.767027">0.5</tspan></text><text
       style="font-variant:normal;font-weight:normal;font-size:7.67027px;font-family:'DejaVu Sans';-inkscape-font-specification:DejaVuSans;writing-mode:lr-tb;fill:#000000;fill-opacity:1;fill-rule:nonzero;stroke:none;stroke-width:0.767027"
       id="text162"
       x="38.513649"
       y="189.57474"><tspan
         x="38.513649 43.391937 45.831085"
         y="189.57474"
         sodipodi:role="line"
         id="tspan160"
         style="stroke-width:0.767027">0.6</tspan></text><text
       style="font-variant:normal;font-weight:normal;font-size:7.67027px;font-family:'DejaVu Sans';-inkscape-font-specification:DejaVuSans;writing-mode:lr-tb;fill:#000000;fill-opacity:1;fill-rule:nonzero;stroke:none;stroke-width:0.767027"
       id="text180"
       x="38.513649"
       y="152.46291"><tspan
         x="38.513649 43.391937 45.831085"
         y="152.46291"
         sodipodi:role="line"
         id="tspan178"
         style="stroke-width:0.767027">0.7</tspan></text><text
       style="font-variant:normal;font-weight:normal;font-size:7.67027px;font-family:'DejaVu Sans';-inkscape-font-specification:DejaVuSans;writing-mode:lr-tb;fill:#000000;fill-opacity:1;fill-rule:nonzero;stroke:none;stroke-width:0.767027"
       id="text198"
       x="38.513649"
       y="115.35125"><tspan
         x="38.513649 43.391937 45.831085"
         y="115.35125"
         sodipodi:role="line"
         id="tspan196"
         style="stroke-width:0.767027">0.8</tspan></text><text
       style="font-variant:normal;font-weight:normal;font-size:7.67027px;font-family:'DejaVu Sans';-inkscape-font-specification:DejaVuSans;writing-mode:lr-tb;fill:#000000;fill-opacity:1;fill-rule:nonzero;stroke:none;stroke-width:0.767027"
       id="text216"
       x="38.513649"
       y="78.23941"><tspan
         x="38.513649 43.391937 45.831085"
         y="78.23941"
         sodipodi:role="line"
         id="tspan214"
         style="stroke-width:0.767027">0.9</tspan></text><text
       style="font-variant:normal;font-weight:normal;font-size:7.67027px;font-family:'DejaVu Sans';-inkscape-font-specification:DejaVuSans;writing-mode:lr-tb;fill:#000000;fill-opacity:1;fill-rule:nonzero;stroke:none;stroke-width:0.767027"
       id="text234"
       x="38.513649"
       y="41.127518"><tspan
         x="38.513649 43.391937 45.831085"
         y="41.127518"
         sodipodi:role="line"
         id="tspan232"
         style="stroke-width:0.767027">1.0</tspan></text><text
       transform="rotate(-90)"
       style="font-variant:normal;font-weight:normal;font-size:7.67027px;font-family:'DejaVu Sans';-inkscape-font-specification:DejaVuSans;writing-mode:lr-tb;fill:#000000;fill-opacity:1;fill-rule:nonzero;stroke:none;stroke-width:0.767027"
       id="text238"
       x="-177.32962"
       y="33.851566"><tspan
         x="-177.32962 -172.70445 -167.98724 -163.28537 -160.13289 -156.13669 -151.44246 -146.57953 -144.14038 -139.92174 -135.22752 -132.07504 -128.92256 -124.20551 -122.0732 -117.3713 -114.36456 -112.23222 -107.53804"
         y="33.851566"
         sodipodi:role="line"
         id="tspan236"
         style="stroke-width:0.767027">Pearson correlation</tspan></text><text
       style="font-variant:normal;font-weight:normal;font-size:9.20432px;font-family:'DejaVu Sans';-inkscape-font-specification:DejaVuSans;writing-mode:lr-tb;fill:#000000;fill-opacity:1;fill-rule:nonzero;stroke:none;stroke-width:0.767027"
       id="text292"
       x="98.321838"
       y="23.296568"><tspan
         x="98.321838 103.87204 109.53271 115.17496 118.95793 123.75337 129.38643 135.22197 138.14893 143.21132 148.84438 152.62733 156.41031 162.07098 164.62978 170.27202 173.88011 176.43892 182.07196 187.9075 190.83449 196.28343 201.07889 204.00586 206.93285 212.77757 218.43825 224.27376 229.90683 238.87183 241.43063 246.49301 249.41998 255.26472 257.82355 262.61896 266.22705 271.86929 277.70483 282.76721"
         y="23.296568"
         sodipodi:role="line"
         id="tspan290"
         style="stroke-width:0.767027">Pearson correlation vs. genomic distance</tspan></text><text
       style="font-variant:normal;font-weight:normal;font-size:9.20432px;font-family:'DejaVu Sans';-inkscape-font-specification:DejaVuSans;writing-mode:lr-tb;fill:#000000;fill-opacity:1;fill-rule:nonzero;stroke:none;stroke-width:0.767027"
       id="text296"
       x="155.14774"
       y="33.613052"><tspan
         x="155.14774 161.57236 167.4079 171.19089 176.82391 185.78893 191.42197 196.21741 201.85046 210.81546 216.47614 219.40311 225.25705"
         y="33.613052"
         sodipodi:role="line"
         id="tspan294"
         style="stroke-width:0.767027">Chromosome 17</tspan></text><text
       style="font-variant:normal;font-weight:normal;font-size:7.67027px;font-family:'DejaVu Sans';-inkscape-font-specification:DejaVuSans;writing-mode:lr-tb;fill:#000000;fill-opacity:1;fill-rule:nonzero;stroke:none;stroke-width:0.767027"
       id="text302"
       x="84.463348"
       y="200.07178"><tspan
         x="84.463348 90.407806 95.654266 101.39163 106.26991 111.14821 113.58736 117.58356 119.7159 124.57884 129.44946 131.5818 136.29901 138.73816 142.9568 147.81976 150.97224 153.41138 155.85052 158.28969 163.16797 168.04626 172.48735 174.92648 177.51137 179.9505 185.19698 190.8116 196.16547 198.75034 201.18948 206.06776 208.50693 213.38521 218.2635"
         y="200.07178"
         sodipodi:role="line"
         id="tspan300"
         style="stroke-width:0.767027">GAN64 single chr., 25k / AUC: 0.786</tspan></text><text
       style="font-variant:normal;font-weight:normal;font-size:7.67027px;font-family:'DejaVu Sans';-inkscape-font-specification:DejaVuSans;writing-mode:lr-tb;fill:#000000;fill-opacity:1;fill-rule:nonzero;stroke:none;stroke-width:0.767027"
       id="text308"
       x="84.463348"
       y="211.3255"><tspan
         x="84.463348 91.082787 96.697426 100.96977 105.6563 107.91902 113.27287 118.12048 122.39283 126.66515 129.10431 131.54344 136.42174 139.1907 144.06133 148.76321 153.63382 158.50444 163.22165 168.09229 170.53143 172.97057 177.84885 182.72716 187.16823 189.60739 192.19226 194.63141 199.87787 205.49251 210.84634 213.43123 215.87038 220.74867 223.18781 228.0661 232.94438"
         y="211.3255"
         sodipodi:role="line"
         id="tspan306"
         style="stroke-width:0.767027">MULTICELL, 0-padded, 25k / AUC: 0.820</tspan></text><text
       style="font-variant:normal;font-weight:normal;font-size:7.67027px;font-family:'DejaVu Sans';-inkscape-font-specification:DejaVuSans;writing-mode:lr-tb;fill:#000000;fill-opacity:1;fill-rule:nonzero;stroke:none;stroke-width:0.767027"
       id="text314"
       x="84.463348"
       y="222.57922"><tspan
         x="84.463348 92.04924 94.311974 100.04932 105.95544 111.99194 119.57784 122.01698 124.45612 129.33441 132.10339 136.97398 141.67587 146.54649 151.41711 156.13434 161.00496 163.44409 165.88324 170.76152 175.63982 180.08092 182.52005 185.10495 187.54407 192.79054 198.40518 203.75902 206.3439 208.78304 213.66135 216.10048 220.97876 225.85706"
         y="222.57922"
         sodipodi:role="line"
         id="tspan312"
         style="stroke-width:0.767027">WINDOW, 0-padded, 25k / AUC: 0.760</tspan></text><text
       style="font-variant:normal;font-weight:normal;font-size:7.67027px;font-family:'DejaVu Sans';-inkscape-font-specification:DejaVuSans;writing-mode:lr-tb;fill:#000000;fill-opacity:1;fill-rule:nonzero;stroke:none;stroke-width:0.767027"
       id="text320"
       x="84.463348"
       y="233.83293"><tspan
         x="84.463348 89.149879 92.302361 97.004227 101.86719 105.8634 108.56333 113.28054 116.43302 118.87216 124.81663 131.43607 136.31435 141.19266 146.07094 150.94922 155.82753 158.26666 160.70581 165.58409 170.46239 174.90349 177.34262 179.92751 182.36664 187.61311 193.22774 198.58159 201.16647 203.60562 208.4839 210.92305 215.80133 220.67963"
         y="233.83293"
         sodipodi:role="line"
         id="tspan318"
         style="stroke-width:0.767027">Transfer GM12878, 25k / AUC: 0.837</tspan></text></g></svg>
