<?xml version="1.0" encoding="UTF-8" standalone="no"?>
<svg
   xmlns:dc="http://purl.org/dc/elements/1.1/"
   xmlns:cc="http://creativecommons.org/ns#"
   xmlns:rdf="http://www.w3.org/1999/02/22-rdf-syntax-ns#"
   xmlns:svg="http://www.w3.org/2000/svg"
   xmlns="http://www.w3.org/2000/svg"
   xmlns:sodipodi="http://sodipodi.sourceforge.net/DTD/sodipodi-0.dtd"
   xmlns:inkscape="http://www.inkscape.org/namespaces/inkscape"
   version="1.1"
   id="svg2"
   xml:space="preserve"
   width="80mm"
   height="65.300003mm"
   viewBox="0 0 302.36221 246.80316"
   sodipodi:docname="pearson_chr14_detail_25k.svg"
   inkscape:version="1.0.2 (1.0.2+r75+1)"><metadata
     id="metadata8"><rdf:RDF><cc:Work
         rdf:about=""><dc:format>image/svg+xml</dc:format><dc:type
           rdf:resource="http://purl.org/dc/dcmitype/StillImage" /><dc:title></dc:title></cc:Work></rdf:RDF></metadata><defs
     id="defs6"><clipPath
       clipPathUnits="userSpaceOnUse"
       id="clipPath22"><path
         d="M 57.6,38.016 H 414.72 V 304.128 H 57.6 Z"
         id="path20" /></clipPath><clipPath
       clipPathUnits="userSpaceOnUse"
       id="clipPath40"><path
         d="M 57.6,38.016 H 414.72 V 304.128 H 57.6 Z"
         id="path38" /></clipPath><clipPath
       clipPathUnits="userSpaceOnUse"
       id="clipPath58"><path
         d="M 57.6,38.016 H 414.72 V 304.128 H 57.6 Z"
         id="path56" /></clipPath><clipPath
       clipPathUnits="userSpaceOnUse"
       id="clipPath76"><path
         d="M 57.6,38.016 H 414.72 V 304.128 H 57.6 Z"
         id="path74" /></clipPath><clipPath
       clipPathUnits="userSpaceOnUse"
       id="clipPath94"><path
         d="M 57.6,38.016 H 414.72 V 304.128 H 57.6 Z"
         id="path92" /></clipPath><clipPath
       clipPathUnits="userSpaceOnUse"
       id="clipPath112"><path
         d="M 57.6,38.016 H 414.72 V 304.128 H 57.6 Z"
         id="path110" /></clipPath><clipPath
       clipPathUnits="userSpaceOnUse"
       id="clipPath134"><path
         d="M 57.6,38.016 H 414.72 V 304.128 H 57.6 Z"
         id="path132" /></clipPath><clipPath
       clipPathUnits="userSpaceOnUse"
       id="clipPath152"><path
         d="M 57.6,38.016 H 414.72 V 304.128 H 57.6 Z"
         id="path150" /></clipPath><clipPath
       clipPathUnits="userSpaceOnUse"
       id="clipPath170"><path
         d="M 57.6,38.016 H 414.72 V 304.128 H 57.6 Z"
         id="path168" /></clipPath><clipPath
       clipPathUnits="userSpaceOnUse"
       id="clipPath188"><path
         d="M 57.6,38.016 H 414.72 V 304.128 H 57.6 Z"
         id="path186" /></clipPath><clipPath
       clipPathUnits="userSpaceOnUse"
       id="clipPath206"><path
         d="M 57.6,38.016 H 414.72 V 304.128 H 57.6 Z"
         id="path204" /></clipPath><clipPath
       clipPathUnits="userSpaceOnUse"
       id="clipPath224"><path
         d="M 57.6,38.016 H 414.72 V 304.128 H 57.6 Z"
         id="path222" /></clipPath><clipPath
       clipPathUnits="userSpaceOnUse"
       id="clipPath246"><path
         d="M 57.6,38.016 H 414.72 V 304.128 H 57.6 Z"
         id="path244" /></clipPath><clipPath
       clipPathUnits="userSpaceOnUse"
       id="clipPath256"><path
         d="M 57.6,38.016 H 414.72 V 304.128 H 57.6 Z"
         id="path254" /></clipPath><clipPath
       clipPathUnits="userSpaceOnUse"
       id="clipPath266"><path
         d="M 57.6,38.016 H 414.72 V 304.128 H 57.6 Z"
         id="path264" /></clipPath><clipPath
       clipPathUnits="userSpaceOnUse"
       id="clipPath276"><path
         d="M 57.6,38.016 H 414.72 V 304.128 H 57.6 Z"
         id="path274" /></clipPath><clipPath
       clipPathUnits="userSpaceOnUse"
       id="clipPath286"><path
         d="M 57.6,38.016 H 414.72 V 304.128 H 57.6 Z"
         id="path284" /></clipPath></defs><sodipodi:namedview
     pagecolor="#ffffff"
     bordercolor="#666666"
     borderopacity="1"
     objecttolerance="10"
     gridtolerance="10"
     guidetolerance="10"
     inkscape:pageopacity="0"
     inkscape:pageshadow="2"
     inkscape:window-width="1920"
     inkscape:window-height="1020"
     id="namedview4"
     showgrid="false"
     fit-margin-top="0"
     fit-margin-left="0"
     fit-margin-right="0"
     fit-margin-bottom="0"
     units="mm"
     inkscape:zoom="2.6301672"
     inkscape:cx="33.827354"
     inkscape:cy="143.03045"
     inkscape:window-x="0"
     inkscape:window-y="0"
     inkscape:window-maximized="1"
     inkscape:current-layer="layer1" /><g
     id="g10"
     inkscape:groupmode="layer"
     inkscape:label="pearson_chr14_detail_25k"
     transform="matrix(1.3333333,0,0,-1.3333333,-28.023958,443.59358)"><path
       d="M 47.243353,304.2461 H 58.750248"
       style="fill:none;stroke:#ff0000;stroke-width:0.863017;stroke-linecap:square;stroke-linejoin:round;stroke-miterlimit:10;stroke-dasharray:none;stroke-opacity:1"
       id="path332" /><g
       id="g16"
       transform="matrix(0.57534478,0,0,0.57534478,8.9253902,141.98634)"><g
         id="g18"
         clip-path="url(#clipPath22)"><path
           d="M 57.6,38.016 V 304.128"
           style="fill:none;stroke:#b0b0b0;stroke-width:0.8;stroke-linecap:square;stroke-linejoin:round;stroke-miterlimit:10;stroke-dasharray:none;stroke-opacity:1"
           id="path24" /></g></g><path
       d="m 42.06525,163.85866 v -2.01372"
       style="fill:#000000;fill-opacity:1;fill-rule:nonzero;stroke:#000000;stroke-width:0.460276;stroke-linecap:butt;stroke-linejoin:round;stroke-miterlimit:10;stroke-dasharray:none;stroke-opacity:1"
       id="path28" /><g
       id="g34"
       transform="matrix(0.57534478,0,0,0.57534478,8.9253902,141.98634)"><g
         id="g36"
         clip-path="url(#clipPath40)"><path
           d="M 129.024,38.016 V 304.128"
           style="fill:none;stroke:#b0b0b0;stroke-width:0.8;stroke-linecap:square;stroke-linejoin:round;stroke-miterlimit:10;stroke-dasharray:none;stroke-opacity:1"
           id="path42" /></g></g><path
       d="m 83.158676,163.85866 v -2.01372"
       style="fill:#000000;fill-opacity:1;fill-rule:nonzero;stroke:#000000;stroke-width:0.460276;stroke-linecap:butt;stroke-linejoin:round;stroke-miterlimit:10;stroke-dasharray:none;stroke-opacity:1"
       id="path46" /><g
       id="g52"
       transform="matrix(0.57534478,0,0,0.57534478,8.9253902,141.98634)"><g
         id="g54"
         clip-path="url(#clipPath58)"><path
           d="M 200.448,38.016 V 304.128"
           style="fill:none;stroke:#b0b0b0;stroke-width:0.8;stroke-linecap:square;stroke-linejoin:round;stroke-miterlimit:10;stroke-dasharray:none;stroke-opacity:1"
           id="path60" /></g></g><path
       d="m 124.2521,163.85866 v -2.01372"
       style="fill:#000000;fill-opacity:1;fill-rule:nonzero;stroke:#000000;stroke-width:0.460276;stroke-linecap:butt;stroke-linejoin:round;stroke-miterlimit:10;stroke-dasharray:none;stroke-opacity:1"
       id="path64" /><g
       id="g70"
       transform="matrix(0.57534478,0,0,0.57534478,8.9253902,141.98634)"><g
         id="g72"
         clip-path="url(#clipPath76)"><path
           d="M 271.872,38.016 V 304.128"
           style="fill:none;stroke:#b0b0b0;stroke-width:0.8;stroke-linecap:square;stroke-linejoin:round;stroke-miterlimit:10;stroke-dasharray:none;stroke-opacity:1"
           id="path78" /></g></g><path
       d="m 165.34553,163.85866 v -2.01372"
       style="fill:#000000;fill-opacity:1;fill-rule:nonzero;stroke:#000000;stroke-width:0.460276;stroke-linecap:butt;stroke-linejoin:round;stroke-miterlimit:10;stroke-dasharray:none;stroke-opacity:1"
       id="path82" /><g
       id="g88"
       transform="matrix(0.57534478,0,0,0.57534478,8.9253902,141.98634)"><g
         id="g90"
         clip-path="url(#clipPath94)"><path
           d="M 343.296,38.016 V 304.128"
           style="fill:none;stroke:#b0b0b0;stroke-width:0.8;stroke-linecap:square;stroke-linejoin:round;stroke-miterlimit:10;stroke-dasharray:none;stroke-opacity:1"
           id="path96" /></g></g><path
       d="m 206.43896,163.85866 v -2.01372"
       style="fill:#000000;fill-opacity:1;fill-rule:nonzero;stroke:#000000;stroke-width:0.460276;stroke-linecap:butt;stroke-linejoin:round;stroke-miterlimit:10;stroke-dasharray:none;stroke-opacity:1"
       id="path100" /><g
       id="g106"
       transform="matrix(0.57534478,0,0,0.57534478,8.9253902,141.98634)"><g
         id="g108"
         clip-path="url(#clipPath112)"><path
           d="M 414.72,38.016 V 304.128"
           style="fill:none;stroke:#b0b0b0;stroke-width:0.8;stroke-linecap:square;stroke-linejoin:round;stroke-miterlimit:10;stroke-dasharray:none;stroke-opacity:1"
           id="path114" /></g></g><path
       d="m 247.53238,163.85866 v -2.01372"
       style="fill:#000000;fill-opacity:1;fill-rule:nonzero;stroke:#000000;stroke-width:0.460276;stroke-linecap:butt;stroke-linejoin:round;stroke-miterlimit:10;stroke-dasharray:none;stroke-opacity:1"
       id="path118" /><path
       d="M 42.06525,177.77739 H 40.051543"
       style="fill:#000000;fill-opacity:1;fill-rule:nonzero;stroke:#000000;stroke-width:0.460276;stroke-linecap:butt;stroke-linejoin:round;stroke-miterlimit:10;stroke-dasharray:none;stroke-opacity:1"
       id="path140" /><g
       id="g146"
       transform="matrix(0.57534478,0,0,0.57534478,8.9253902,141.98634)"><g
         id="g148"
         clip-path="url(#clipPath152)"><path
           d="M 57.6,110.592 H 414.72"
           style="fill:none;stroke:#b0b0b0;stroke-width:0.8;stroke-linecap:square;stroke-linejoin:round;stroke-miterlimit:10;stroke-dasharray:none;stroke-opacity:1"
           id="path154" /></g></g><path
       d="M 42.06525,205.61488 H 40.051543"
       style="fill:#000000;fill-opacity:1;fill-rule:nonzero;stroke:#000000;stroke-width:0.460276;stroke-linecap:butt;stroke-linejoin:round;stroke-miterlimit:10;stroke-dasharray:none;stroke-opacity:1"
       id="path158" /><g
       id="g164"
       transform="matrix(0.57534478,0,0,0.57534478,8.9253902,141.98634)"><g
         id="g166"
         clip-path="url(#clipPath170)"><path
           d="M 57.6,158.976 H 414.72"
           style="fill:none;stroke:#b0b0b0;stroke-width:0.8;stroke-linecap:square;stroke-linejoin:round;stroke-miterlimit:10;stroke-dasharray:none;stroke-opacity:1"
           id="path172" /></g></g><path
       d="M 42.06525,233.45236 H 40.051543"
       style="fill:#000000;fill-opacity:1;fill-rule:nonzero;stroke:#000000;stroke-width:0.460276;stroke-linecap:butt;stroke-linejoin:round;stroke-miterlimit:10;stroke-dasharray:none;stroke-opacity:1"
       id="path176" /><g
       id="g182"
       transform="matrix(0.57534478,0,0,0.57534478,8.9253902,141.98634)"><g
         id="g184"
         clip-path="url(#clipPath188)"><path
           d="M 57.6,207.36 H 414.72"
           style="fill:none;stroke:#b0b0b0;stroke-width:0.8;stroke-linecap:square;stroke-linejoin:round;stroke-miterlimit:10;stroke-dasharray:none;stroke-opacity:1"
           id="path190" /></g></g><path
       d="M 42.06525,261.28984 H 40.051543"
       style="fill:#000000;fill-opacity:1;fill-rule:nonzero;stroke:#000000;stroke-width:0.460276;stroke-linecap:butt;stroke-linejoin:round;stroke-miterlimit:10;stroke-dasharray:none;stroke-opacity:1"
       id="path194" /><g
       id="g200"
       transform="matrix(0.57534478,0,0,0.57534478,8.9253902,141.98634)"><g
         id="g202"
         clip-path="url(#clipPath206)"><path
           d="M 57.6,255.744 H 414.72"
           style="fill:none;stroke:#b0b0b0;stroke-width:0.8;stroke-linecap:square;stroke-linejoin:round;stroke-miterlimit:10;stroke-dasharray:none;stroke-opacity:1"
           id="path208" /></g></g><path
       d="M 42.06525,289.12733 H 40.051543"
       style="fill:#000000;fill-opacity:1;fill-rule:nonzero;stroke:#000000;stroke-width:0.460276;stroke-linecap:butt;stroke-linejoin:round;stroke-miterlimit:10;stroke-dasharray:none;stroke-opacity:1"
       id="path212" /><g
       id="g218"
       transform="matrix(0.57534478,0,0,0.57534478,8.9253902,141.98634)"><g
         id="g220"
         clip-path="url(#clipPath224)"><path
           d="M 57.6,304.128 H 414.72"
           style="fill:none;stroke:#b0b0b0;stroke-width:0.8;stroke-linecap:square;stroke-linejoin:round;stroke-miterlimit:10;stroke-dasharray:none;stroke-opacity:1"
           id="path226" /></g></g><path
       d="M 42.06525,316.96481 H 40.051543"
       style="fill:#000000;fill-opacity:1;fill-rule:nonzero;stroke:#000000;stroke-width:0.460276;stroke-linecap:butt;stroke-linejoin:round;stroke-miterlimit:10;stroke-dasharray:none;stroke-opacity:1"
       id="path230" /><g
       id="g242"
       clip-path="url(#clipPath246)"
       transform="matrix(0.57534478,0,0,0.57534478,8.9253902,141.98634)"><path
         d="m 57.6,259.81843 8.928,-0.9838 8.928,-17.45441 8.928,-14.93109 8.928,-3.9168 8.928,-6.98716 8.928,-10.03708 8.928,-7.85331 8.928,-1.44278 8.928,-3.64979 8.928,-1.8498 8.928,-6.29215 8.928,-0.89642 8.928,-2.5777 8.928,-5.45644 8.928,-7.73143 8.928,-2.78329 8.928,-7.22949 8.928,-6.40791 8.928,-2.10596 8.928,-4.16251 8.928,-3.01383 8.928,-8.80337 8.928,-4.02051 8.928,-7.30042 8.928,1.98549 8.928,1.44198 8.928,-2.70017 8.928,2.84486 8.928,4.16789 8.928,-7.4933 8.928,-0.28667 8.928,1.21546 8.928,1.13977 8.928,-0.66255 8.928,-11.2913 8.928,-7.75828 8.928,8.35956 8.928,-2.45525 8.928,3.38198 8.928,-1.84883 8.928,-3.1117 8.928,0.36852 8.928,0.58246 8.928,-6.80019 8.928,8.99534 2.44,-1.78849"
         style="fill:none;stroke:#0000ff;stroke-width:1.5;stroke-linecap:square;stroke-linejoin:round;stroke-miterlimit:10;stroke-dasharray:none;stroke-opacity:1"
         id="path248" /></g><g
       id="g252"
       clip-path="url(#clipPath256)"
       transform="matrix(0.57534478,0,0,0.57534478,8.9253902,141.98634)"><path
         d="m 57.6,252.88451 8.928,-3.43465 8.928,-13.24805 8.928,-6.41802 8.928,3.48007 8.928,-0.36613 8.928,-3.8922 8.928,-6.52366 8.928,-1.47445 8.928,-0.42207 8.928,-2.80273 8.928,-6.42558 8.928,-2.22773 8.928,-2.37577 8.928,-5.78839 8.928,-7.67917 8.928,-2.02746 8.928,-2.92045 8.928,-7.40206 8.928,-5.67577 8.928,1.54006 8.928,-2.28211 8.928,-5.55271 8.928,-1.1996 8.928,-8.96107 8.928,4.38298 8.928,1.36706 8.928,-1.07377 8.928,5.2029 8.928,0.39429 8.928,-5.27381 8.928,2.45847 8.928,-2.62972 8.928,7.09999 8.928,0.16654 8.928,-4.76796 8.928,-1.31054 8.928,7.79199 8.928,-3.32612 8.928,-1.12217 8.928,2.39806 8.928,-14.07712 8.928,2.97014 8.928,-2.64912 8.928,-2.89291 8.928,2.3469 2.44,-0.27668 v 0"
         style="fill:none;stroke:#87ceeb;stroke-width:1.5;stroke-linecap:square;stroke-linejoin:round;stroke-miterlimit:10;stroke-dasharray:none;stroke-opacity:1"
         id="path258" /></g><g
       id="g262"
       clip-path="url(#clipPath266)"
       transform="matrix(0.57534478,0,0,0.57534478,8.9253902,141.98634)"><path
         d="m 57.6,158.32775 8.928,-4.89673 8.928,20.67088 8.928,14.92464 8.928,17.47798 8.928,8.58567 8.928,8.11443 8.928,3.86341 8.928,6.2519 8.928,5.11632 8.928,5.33348 8.928,10e-4 8.928,6.43087 8.928,4.39954 8.928,0.0376 8.928,-3.80536 8.928,2.65361 8.928,-4.56866 8.928,0.12241 8.928,3.73259 8.928,-0.70615 8.928,1.68668 8.928,-4.72118 8.928,-2.56053 8.928,1.41116 8.928,11.15176 8.928,2.64667 8.928,0.98466 8.928,2.19867 8.928,0.74721 8.928,-1.40604 8.928,0.0274 8.928,1.49101 8.928,0.47479 8.928,0.16117 8.928,-5.45048 8.928,-1.85785 8.928,5.18749 8.928,0.25446 8.928,2.42676"
         style="fill:none;stroke:#7cfc00;stroke-width:1.5;stroke-linecap:square;stroke-linejoin:round;stroke-miterlimit:10;stroke-dasharray:none;stroke-opacity:1"
         id="path268" /></g><g
       id="g272"
       clip-path="url(#clipPath276)"
       transform="matrix(0.57534478,0,0,0.57534478,8.9253902,141.98634)"><path
         d="m 57.6,179.70951 8.928,-18.39649 8.928,4.3553 8.928,10.42762 8.928,12.30338 8.928,5.4414 8.928,4.2388 8.928,-1.72578 8.928,2.71778 8.928,0.25863 8.928,1.89061 8.928,-5.64404 8.928,3.92993 8.928,0.68503 8.928,-5.23027 8.928,-8.04953 8.928,1.96961 8.928,-4.68157 8.928,-4.20208 8.928,0.51045 8.928,-3.81442 8.928,0.22745 8.928,-5.73711 8.928,-6.58234 8.928,0.8818 8.928,10.9048 8.928,8.23793 8.928,1.46936 8.928,2.44029 8.928,-0.78386 8.928,-2.7348 8.928,-0.0893 8.928,-1.39924 8.928,-1.51796 8.928,0.37265 8.928,-5.39281 8.928,-3.63136 8.928,7.68486 8.928,5.29724 8.928,4.88471"
         style="fill:none;stroke:#006400;stroke-width:1.5;stroke-linecap:square;stroke-linejoin:round;stroke-miterlimit:10;stroke-dasharray:none;stroke-opacity:1"
         id="path278" /></g><g
       id="g282"
       clip-path="url(#clipPath286)"
       transform="matrix(0.57534478,0,0,0.57534478,8.9253902,141.98634)"><path
         d="m 57.6,266.13115 8.928,-16.08156 8.928,-9.50097 8.928,0.99104 8.928,0.45404 8.928,-0.9865 8.928,0.90945 8.928,3.40449 8.928,-1.85026 8.928,-0.0664 8.928,-1.58095 8.928,-3.27706 8.928,-7.85357 8.928,-0.95012 8.928,-5.18304 8.928,-2.54446 8.928,-6.74043 8.928,-3.43631 8.928,-3.59511 8.928,-10.21469 8.928,-4.08381 8.928,1.87113 8.928,-1.3217 8.928,6.71173 8.928,2.60902 8.928,14.79735 8.928,2.62104 8.928,-1.01282 8.928,-4.02816 8.928,-4.2848 8.928,1.32181 8.928,-6.80576 8.928,-0.92971 8.928,-4.76502 8.928,-5.56622 8.928,8.29673 8.928,-3.6531 8.928,-12.46554 8.928,0.66429 8.928,-2.03121 8.928,2.74972 8.928,-6.92786 8.928,-4.08396 8.928,0.51811 8.928,1.29556 8.928,-1.07418 2.44,-1.22733 v 0"
         style="fill:none;stroke:#ff0000;stroke-width:1.5;stroke-linecap:square;stroke-linejoin:round;stroke-miterlimit:10;stroke-dasharray:none;stroke-opacity:1"
         id="path288" /></g><path
       d="M 42.06525,163.85866 V 316.96481"
       style="fill:none;stroke:#000000;stroke-width:0.460276;stroke-linecap:square;stroke-linejoin:miter;stroke-miterlimit:10;stroke-dasharray:none;stroke-opacity:1"
       id="path292" /><path
       d="M 247.53238,163.85866 V 316.96481"
       style="fill:none;stroke:#000000;stroke-width:0.460276;stroke-linecap:square;stroke-linejoin:miter;stroke-miterlimit:10;stroke-dasharray:none;stroke-opacity:1"
       id="path294" /><path
       d="M 42.06525,163.85866 H 247.53238"
       style="fill:none;stroke:#000000;stroke-width:0.460276;stroke-linecap:square;stroke-linejoin:miter;stroke-miterlimit:10;stroke-dasharray:none;stroke-opacity:1"
       id="path296" /><path
       d="M 42.06525,316.96481 H 247.53238"
       style="fill:none;stroke:#000000;stroke-width:0.460276;stroke-linecap:square;stroke-linejoin:miter;stroke-miterlimit:10;stroke-dasharray:none;stroke-opacity:1"
       id="path298" /><path
       d="M 47.243353,197.01165 H 58.750248"
       style="fill:none;stroke:#0000ff;stroke-width:0.863017;stroke-linecap:square;stroke-linejoin:round;stroke-miterlimit:10;stroke-dasharray:none;stroke-opacity:1"
       id="path308" /><path
       d="M 47.243353,188.57027 H 58.750248"
       style="fill:none;stroke:#87ceeb;stroke-width:0.863017;stroke-linecap:square;stroke-linejoin:round;stroke-miterlimit:10;stroke-dasharray:none;stroke-opacity:1"
       id="path314" /><path
       d="M 47.243353,180.12888 H 58.750248"
       style="fill:none;stroke:#7cfc00;stroke-width:0.863017;stroke-linecap:square;stroke-linejoin:round;stroke-miterlimit:10;stroke-dasharray:none;stroke-opacity:1"
       id="path320" /><path
       d="M 47.243353,171.68749 H 58.750248"
       style="fill:none;stroke:#006400;stroke-width:0.863017;stroke-linecap:square;stroke-linejoin:round;stroke-miterlimit:10;stroke-dasharray:none;stroke-opacity:1"
       id="path326" /></g><g
     inkscape:groupmode="layer"
     id="layer1"
     inkscape:label="text"
     style="display:inline"><text
       style="font-variant:normal;font-weight:normal;font-size:7.67125px;font-family:'DejaVu Sans';-inkscape-font-specification:DejaVuSans;writing-mode:lr-tb;fill:#000000;fill-opacity:1;fill-rule:nonzero;stroke:none;stroke-width:0.767125"
       id="text336"
       x="56.446712"
       y="40.616783"><tspan
         x="56.446712 61.133858 64.286751 68.989235 73.852806 77.849541 80.549828 85.267654 88.42054 90.860008 96.805244 103.42553 108.30447 113.18337 118.0623 122.94124 127.82015 130.25961 132.69907 137.578 142.45691 146.89859 149.33804 151.92325 154.36272 159.60986 165.22525 170.57977 173.16498 175.60446 180.48338 182.92284 187.80176 192.68069"
         y="40.616783"
         sodipodi:role="line"
         id="tspan334"
         style="stroke-width:0.767125">Transfer GM12878, 25k / AUC: 0.821</tspan></text><text
       transform="matrix(1.3333333,0,0,1.3333333,-28.023958,443.59358)"
       style="font-variant:normal;font-weight:normal;font-size:5.75344px;font-family:'DejaVu Sans';-inkscape-font-specification:DejaVuSans;writing-mode:lr-tb;fill:#000000;fill-opacity:1;fill-rule:nonzero;stroke:none;stroke-width:0.575344"
       id="text32"
       x="37.48946"
       y="-155.46243"><tspan
         x="37.48946 41.148651 42.978249"
         y="-155.46243"
         sodipodi:role="line"
         id="tspan30"
         style="stroke-width:0.575344">0.0</tspan></text><text
       transform="matrix(1.3333333,0,0,1.3333333,-28.023958,443.59358)"
       style="font-variant:normal;font-weight:normal;font-size:5.75344px;font-family:'DejaVu Sans';-inkscape-font-specification:DejaVuSans;writing-mode:lr-tb;fill:#000000;fill-opacity:1;fill-rule:nonzero;stroke:none;stroke-width:0.575344"
       id="text50"
       x="78.582886"
       y="-155.46243"><tspan
         x="78.582886 82.242073 84.071671"
         y="-155.46243"
         sodipodi:role="line"
         id="tspan48"
         style="stroke-width:0.575344">0.2</tspan></text><text
       transform="matrix(1.3333333,0,0,1.3333333,-28.023958,443.59358)"
       style="font-variant:normal;font-weight:normal;font-size:5.75344px;font-family:'DejaVu Sans';-inkscape-font-specification:DejaVuSans;writing-mode:lr-tb;fill:#000000;fill-opacity:1;fill-rule:nonzero;stroke:none;stroke-width:0.575344"
       id="text68"
       x="119.67631"
       y="-155.46243"><tspan
         x="119.67631 123.33551 125.16509"
         y="-155.46243"
         sodipodi:role="line"
         id="tspan66"
         style="stroke-width:0.575344">0.4</tspan></text><text
       transform="matrix(1.3333333,0,0,1.3333333,-28.023958,443.59358)"
       style="font-variant:normal;font-weight:normal;font-size:5.75344px;font-family:'DejaVu Sans';-inkscape-font-specification:DejaVuSans;writing-mode:lr-tb;fill:#000000;fill-opacity:1;fill-rule:nonzero;stroke:none;stroke-width:0.575344"
       id="text86"
       x="160.76974"
       y="-155.46243"><tspan
         x="160.76974 164.42892 166.25851"
         y="-155.46243"
         sodipodi:role="line"
         id="tspan84"
         style="stroke-width:0.575344">0.6</tspan></text><text
       transform="matrix(1.3333333,0,0,1.3333333,-28.023958,443.59358)"
       style="font-variant:normal;font-weight:normal;font-size:5.75344px;font-family:'DejaVu Sans';-inkscape-font-specification:DejaVuSans;writing-mode:lr-tb;fill:#000000;fill-opacity:1;fill-rule:nonzero;stroke:none;stroke-width:0.575344"
       id="text104"
       x="201.86316"
       y="-155.46243"><tspan
         x="201.86316 205.52235 207.35196"
         y="-155.46243"
         sodipodi:role="line"
         id="tspan102"
         style="stroke-width:0.575344">0.8</tspan></text><text
       transform="matrix(1.3333333,0,0,1.3333333,-28.023958,443.59358)"
       style="font-variant:normal;font-weight:normal;font-size:5.75344px;font-family:'DejaVu Sans';-inkscape-font-specification:DejaVuSans;writing-mode:lr-tb;fill:#000000;fill-opacity:1;fill-rule:nonzero;stroke:none;stroke-width:0.575344"
       id="text122"
       x="242.95659"
       y="-155.46243"><tspan
         x="242.95659 246.61578 248.44539"
         y="-155.46243"
         sodipodi:role="line"
         id="tspan120"
         style="stroke-width:0.575344">1.0</tspan></text><text
       transform="matrix(1.3333333,0,0,1.3333333,-28.023958,443.59358)"
       style="font-variant:normal;font-weight:normal;font-size:5.75344px;font-family:'DejaVu Sans';-inkscape-font-specification:DejaVuSans;writing-mode:lr-tb;fill:#000000;fill-opacity:1;fill-rule:nonzero;stroke:none;stroke-width:0.575344"
       id="text126"
       x="109.97697"
       y="-147.59637"><tspan
         x="109.97697 114.43589 117.97427 121.62194 125.14307 130.74692 132.34636 135.51077 137.34038 140.9938 142.59326 145.59082 147.84616 151.37302 155.02071 158.1851 161.72348 163.55307 165.49199 167.32158 172.2868 175.94025"
         y="-147.59637"
         sodipodi:role="line"
         id="tspan124"
         style="stroke-width:0.575344">Genomic distance / Mbp</tspan></text><text
       transform="matrix(1.3333333,0,0,1.3333333,-28.023958,443.59358)"
       style="font-variant:normal;font-weight:normal;font-size:5.75344px;font-family:'DejaVu Sans';-inkscape-font-specification:DejaVuSans;writing-mode:lr-tb;fill:#000000;fill-opacity:1;fill-rule:nonzero;stroke:none;stroke-width:0.575344"
       id="text144"
       x="28.886257"
       y="-175.59309"><tspan
         x="28.886257 32.545448 34.375046"
         y="-175.59309"
         sodipodi:role="line"
         id="tspan142"
         style="stroke-width:0.575344">0.5</tspan></text><text
       transform="matrix(1.3333333,0,0,1.3333333,-28.023958,443.59358)"
       style="font-variant:normal;font-weight:normal;font-size:5.75344px;font-family:'DejaVu Sans';-inkscape-font-specification:DejaVuSans;writing-mode:lr-tb;fill:#000000;fill-opacity:1;fill-rule:nonzero;stroke:none;stroke-width:0.575344"
       id="text162"
       x="28.886257"
       y="-203.43057"><tspan
         x="28.886257 32.545448 34.375046"
         y="-203.43057"
         sodipodi:role="line"
         id="tspan160"
         style="stroke-width:0.575344">0.6</tspan></text><text
       transform="matrix(1.3333333,0,0,1.3333333,-28.023958,443.59358)"
       style="font-variant:normal;font-weight:normal;font-size:5.75344px;font-family:'DejaVu Sans';-inkscape-font-specification:DejaVuSans;writing-mode:lr-tb;fill:#000000;fill-opacity:1;fill-rule:nonzero;stroke:none;stroke-width:0.575344"
       id="text180"
       x="28.886257"
       y="-231.26805"><tspan
         x="28.886257 32.545448 34.375046"
         y="-231.26805"
         sodipodi:role="line"
         id="tspan178"
         style="stroke-width:0.575344">0.7</tspan></text><text
       transform="matrix(1.3333333,0,0,1.3333333,-28.023958,443.59358)"
       style="font-variant:normal;font-weight:normal;font-size:5.75344px;font-family:'DejaVu Sans';-inkscape-font-specification:DejaVuSans;writing-mode:lr-tb;fill:#000000;fill-opacity:1;fill-rule:nonzero;stroke:none;stroke-width:0.575344"
       id="text198"
       x="28.886257"
       y="-259.10553"><tspan
         x="28.886257 32.545448 34.375046"
         y="-259.10553"
         sodipodi:role="line"
         id="tspan196"
         style="stroke-width:0.575344">0.8</tspan></text><text
       transform="matrix(1.3333333,0,0,1.3333333,-28.023958,443.59358)"
       style="font-variant:normal;font-weight:normal;font-size:5.75344px;font-family:'DejaVu Sans';-inkscape-font-specification:DejaVuSans;writing-mode:lr-tb;fill:#000000;fill-opacity:1;fill-rule:nonzero;stroke:none;stroke-width:0.575344"
       id="text216"
       x="28.886257"
       y="-286.94302"><tspan
         x="28.886257 32.545448 34.375046"
         y="-286.94302"
         sodipodi:role="line"
         id="tspan214"
         style="stroke-width:0.575344">0.9</tspan></text><text
       transform="matrix(1.3333333,0,0,1.3333333,-28.023958,443.59358)"
       style="font-variant:normal;font-weight:normal;font-size:5.75344px;font-family:'DejaVu Sans';-inkscape-font-specification:DejaVuSans;writing-mode:lr-tb;fill:#000000;fill-opacity:1;fill-rule:nonzero;stroke:none;stroke-width:0.575344"
       id="text234"
       x="28.886257"
       y="-314.78049"><tspan
         x="28.886257 32.545448 34.375046"
         y="-314.78049"
         sodipodi:role="line"
         id="tspan232"
         style="stroke-width:0.575344">1.0</tspan></text><text
       transform="matrix(0,-1.3333333,1.3333333,0,-28.023958,443.59358)"
       style="font-variant:normal;font-weight:normal;font-size:5.75344px;font-family:'DejaVu Sans';-inkscape-font-specification:DejaVuSans;writing-mode:lr-tb;fill:#000000;fill-opacity:1;fill-rule:nonzero;stroke:none;stroke-width:0.575344"
       id="text238"
       x="212.61559"
       y="25.38924"><tspan
         x="212.61559 216.08493 219.62329 223.15016 225.51483 228.51237 232.03348 235.68117 237.51076 240.67516 244.19627 246.56094 248.9256 252.46397 254.06343 257.5903 259.84564 261.4451 264.96622"
         y="25.38924"
         sodipodi:role="line"
         id="tspan236"
         style="stroke-width:0.575344">Pearson correlation</tspan></text><text
       transform="matrix(1.3333333,0,0,1.3333333,-28.023958,443.59358)"
       style="font-variant:normal;font-weight:normal;font-size:6.90414px;font-family:'DejaVu Sans';-inkscape-font-specification:DejaVuSans;writing-mode:lr-tb;fill:#000000;fill-opacity:1;fill-rule:nonzero;stroke:none;stroke-width:0.575344"
       id="text302"
       x="73.74823"
       y="-328.15549"><tspan
         x="73.74823 77.911423 82.157463 86.389702 89.227303 92.824356 97.049698 101.42692 103.62244 107.4197 111.64504 114.48264 117.32024 121.56628 123.48564 127.71787 130.42429 132.34364 136.56897 140.94618 143.14171 147.22897 150.82602 153.02153 155.21706 159.60118 163.84721 168.22444 172.44978 179.17441 181.09375 184.89102 187.08655 191.47067 193.39003 196.98708 199.6935 203.92574 208.30296 212.10023"
         y="-328.15549"
         sodipodi:role="line"
         id="tspan300"
         style="stroke-width:0.575344">Pearson correlation vs. genomic distance</tspan></text><text
       transform="matrix(1.3333333,0,0,1.3333333,-28.023958,443.59358)"
       style="font-variant:normal;font-weight:normal;font-size:6.90414px;font-family:'DejaVu Sans';-inkscape-font-specification:DejaVuSans;writing-mode:lr-tb;fill:#000000;fill-opacity:1;fill-rule:nonzero;stroke:none;stroke-width:0.575344"
       id="text306"
       x="116.37318"
       y="-320.41708"><tspan
         x="116.37318 121.19228 125.5695 128.40709 132.63242 139.35706 143.5824 147.17944 151.40479 158.12941 162.37546 164.57098 168.96199"
         y="-320.41708"
         sodipodi:role="line"
         id="tspan304"
         style="stroke-width:0.575344">Chromosome 14</tspan></text><text
       style="font-variant:normal;font-weight:normal;font-size:7.67125px;font-family:'DejaVu Sans';-inkscape-font-specification:DejaVuSans;writing-mode:lr-tb;fill:#000000;fill-opacity:1;fill-rule:nonzero;stroke:none;stroke-width:0.767125"
       id="text312"
       x="56.446712"
       y="183.59605"><tspan
         x="56.446712 62.353592 68.09169 73.829811 78.708725 83.587639 86.027115 88.466568 93.345482 98.224419 102.66609 105.10555 107.69076 110.13023 115.37736 120.99273 126.34727 128.9325 131.37196 136.25089 138.69034 143.56926 148.44818"
         y="183.59605"
         sodipodi:role="line"
         id="tspan310"
         style="stroke-width:0.767125">DNN80, 25k / AUC: 0.698</tspan></text><text
       style="font-variant:normal;font-weight:normal;font-size:7.67125px;font-family:'DejaVu Sans';-inkscape-font-specification:DejaVuSans;writing-mode:lr-tb;fill:#000000;fill-opacity:1;fill-rule:nonzero;stroke:none;stroke-width:0.767125"
       id="text318"
       x="56.446712"
       y="194.85121"><tspan
         x="56.446712 62.391945 67.639091 73.37719 78.256119 83.135048 88.013962 90.453438 92.892891 97.771812 102.65074 107.0924 109.53187 112.11708 114.55654 119.8037 125.41905 130.77359 133.3588 135.79828 140.6772 143.11667 147.99557 152.8745"
         y="194.85121"
         sodipodi:role="line"
         id="tspan316"
         style="stroke-width:0.767125">GAN256, 25k / AUC: 0.765</tspan></text><text
       style="font-variant:normal;font-weight:normal;font-size:7.67125px;font-family:'DejaVu Sans';-inkscape-font-specification:DejaVuSans;writing-mode:lr-tb;fill:#000000;fill-opacity:1;fill-rule:nonzero;stroke:none;stroke-width:0.767125"
       id="text324"
       x="56.446712"
       y="206.1064"><tspan
         x="56.446712 63.067024 68.682388 72.955276 77.642418 79.905441 85.259987 90.108208 94.381119 98.654007 101.09347 103.53292 108.41187 111.18119 116.05242 120.75493 125.62615 130.49742 135.21526 140.0865 142.52597 144.96544 149.84436 154.7233 159.16495 161.6044 164.18962 166.62907 171.87622 177.49158 182.84613 185.43134 187.87082 192.74973 195.18918 200.06812 204.94702"
         y="206.1064"
         sodipodi:role="line"
         id="tspan322"
         style="stroke-width:0.767125">MULTICELL, 0-padded, 25k / AUC: 0.876</tspan></text><text
       style="font-variant:normal;font-weight:normal;font-size:7.67125px;font-family:'DejaVu Sans';-inkscape-font-specification:DejaVuSans;writing-mode:lr-tb;fill:#000000;fill-opacity:1;fill-rule:nonzero;stroke:none;stroke-width:0.767125"
       id="text330"
       x="56.446712"
       y="217.36159"><tspan
         x="56.446712 64.033585 66.296616 72.034721 77.941597 83.978889 91.565773 94.005226 96.444687 101.32362 104.09294 108.96419 113.66668 118.53793 123.40917 128.12701 132.99826 135.43773 137.87718 142.7561 147.63504 152.07671 154.51616 157.10138 159.54083 164.78799 170.40335 175.7579 178.34311 180.78256 185.66148 188.10094 192.97986 197.8588"
         y="217.36159"
         sodipodi:role="line"
         id="tspan328"
         style="stroke-width:0.767125">WINDOW, 0-padded, 25k / AUC: 0.752</tspan></text></g></svg>
