<?xml version="1.0" encoding="UTF-8" standalone="no"?>
<svg
   xmlns:dc="http://purl.org/dc/elements/1.1/"
   xmlns:cc="http://creativecommons.org/ns#"
   xmlns:rdf="http://www.w3.org/1999/02/22-rdf-syntax-ns#"
   xmlns:svg="http://www.w3.org/2000/svg"
   xmlns="http://www.w3.org/2000/svg"
   xmlns:sodipodi="http://sodipodi.sourceforge.net/DTD/sodipodi-0.dtd"
   xmlns:inkscape="http://www.inkscape.org/namespaces/inkscape"
   version="1.1"
   id="svg2"
   xml:space="preserve"
   width="80mm"
   height="65.300003mm"
   viewBox="0 0 302.36219 246.80316"
   sodipodi:docname="pearson_chr14_originalData_ZhangEtAl.svg"
   inkscape:version="1.0.2 (1.0.2+r75+1)"><metadata
     id="metadata8"><rdf:RDF><cc:Work
         rdf:about=""><dc:format>image/svg+xml</dc:format><dc:type
           rdf:resource="http://purl.org/dc/dcmitype/StillImage" /><dc:title /></cc:Work></rdf:RDF></metadata><defs
     id="defs6"><clipPath
       clipPathUnits="userSpaceOnUse"
       id="clipPath22"><path
         d="M 57.6,38.016 H 414.72 V 304.128 H 57.6 Z"
         id="path20" /></clipPath><clipPath
       clipPathUnits="userSpaceOnUse"
       id="clipPath40"><path
         d="M 57.6,38.016 H 414.72 V 304.128 H 57.6 Z"
         id="path38" /></clipPath><clipPath
       clipPathUnits="userSpaceOnUse"
       id="clipPath58"><path
         d="M 57.6,38.016 H 414.72 V 304.128 H 57.6 Z"
         id="path56" /></clipPath><clipPath
       clipPathUnits="userSpaceOnUse"
       id="clipPath76"><path
         d="M 57.6,38.016 H 414.72 V 304.128 H 57.6 Z"
         id="path74" /></clipPath><clipPath
       clipPathUnits="userSpaceOnUse"
       id="clipPath94"><path
         d="M 57.6,38.016 H 414.72 V 304.128 H 57.6 Z"
         id="path92" /></clipPath><clipPath
       clipPathUnits="userSpaceOnUse"
       id="clipPath112"><path
         d="M 57.6,38.016 H 414.72 V 304.128 H 57.6 Z"
         id="path110" /></clipPath><clipPath
       clipPathUnits="userSpaceOnUse"
       id="clipPath134"><path
         d="M 57.6,38.016 H 414.72 V 304.128 H 57.6 Z"
         id="path132" /></clipPath><clipPath
       clipPathUnits="userSpaceOnUse"
       id="clipPath152"><path
         d="M 57.6,38.016 H 414.72 V 304.128 H 57.6 Z"
         id="path150" /></clipPath><clipPath
       clipPathUnits="userSpaceOnUse"
       id="clipPath170"><path
         d="M 57.6,38.016 H 414.72 V 304.128 H 57.6 Z"
         id="path168" /></clipPath><clipPath
       clipPathUnits="userSpaceOnUse"
       id="clipPath188"><path
         d="M 57.6,38.016 H 414.72 V 304.128 H 57.6 Z"
         id="path186" /></clipPath><clipPath
       clipPathUnits="userSpaceOnUse"
       id="clipPath206"><path
         d="M 57.6,38.016 H 414.72 V 304.128 H 57.6 Z"
         id="path204" /></clipPath><clipPath
       clipPathUnits="userSpaceOnUse"
       id="clipPath224"><path
         d="M 57.6,38.016 H 414.72 V 304.128 H 57.6 Z"
         id="path222" /></clipPath><clipPath
       clipPathUnits="userSpaceOnUse"
       id="clipPath246"><path
         d="M 57.6,38.016 H 414.72 V 304.128 H 57.6 Z"
         id="path244" /></clipPath><clipPath
       clipPathUnits="userSpaceOnUse"
       id="clipPath256"><path
         d="M 57.6,38.016 H 414.72 V 304.128 H 57.6 Z"
         id="path254" /></clipPath><clipPath
       clipPathUnits="userSpaceOnUse"
       id="clipPath266"><path
         d="M 57.6,38.016 H 414.72 V 304.128 H 57.6 Z"
         id="path264" /></clipPath></defs><sodipodi:namedview
     pagecolor="#ffffff"
     bordercolor="#666666"
     borderopacity="1"
     objecttolerance="10"
     gridtolerance="10"
     guidetolerance="10"
     inkscape:pageopacity="0"
     inkscape:pageshadow="2"
     inkscape:window-width="1920"
     inkscape:window-height="1020"
     id="namedview4"
     showgrid="false"
     units="mm"
     fit-margin-top="0"
     fit-margin-left="0"
     fit-margin-right="0"
     fit-margin-bottom="0"
     inkscape:zoom="2.56"
     inkscape:cx="118.40872"
     inkscape:cy="115.728"
     inkscape:window-x="0"
     inkscape:window-y="0"
     inkscape:window-maximized="1"
     inkscape:current-layer="layer1"
     inkscape:document-rotation="0" /><g
     id="g10"
     inkscape:groupmode="layer"
     inkscape:label="pearson_chr14_originalData_ZhangEtAl"
     transform="matrix(1.3333333,0,0,-1.3333333,-28.023958,443.59358)"><g
       id="g16"
       transform="matrix(0.57521225,0,0,0.57521225,8.9281759,142.01921)"><g
         id="g18"
         clip-path="url(#clipPath22)"><path
           d="M 57.6,38.016 V 304.128"
           style="fill:none;stroke:#b0b0b0;stroke-width:0.8;stroke-linecap:square;stroke-linejoin:round;stroke-miterlimit:10;stroke-dasharray:none;stroke-opacity:1"
           id="path24" /></g></g><path
       d="m 42.060402,163.88647 v -2.01324"
       style="fill:#000000;fill-opacity:1;fill-rule:nonzero;stroke:#000000;stroke-width:0.46017;stroke-linecap:butt;stroke-linejoin:round;stroke-miterlimit:10;stroke-dasharray:none;stroke-opacity:1"
       id="path28" /><g
       id="g34"
       transform="matrix(0.57521225,0,0,0.57521225,8.9281759,142.01921)"><g
         id="g36"
         clip-path="url(#clipPath40)"><path
           d="M 125.62286,38.016 V 304.128"
           style="fill:none;stroke:#b0b0b0;stroke-width:0.8;stroke-linecap:square;stroke-linejoin:round;stroke-miterlimit:10;stroke-dasharray:none;stroke-opacity:1"
           id="path42" /></g></g><path
       d="m 81.187983,163.88647 v -2.01324"
       style="fill:#000000;fill-opacity:1;fill-rule:nonzero;stroke:#000000;stroke-width:0.46017;stroke-linecap:butt;stroke-linejoin:round;stroke-miterlimit:10;stroke-dasharray:none;stroke-opacity:1"
       id="path46" /><g
       id="g52"
       transform="matrix(0.57521225,0,0,0.57521225,8.9281759,142.01921)"><g
         id="g54"
         clip-path="url(#clipPath58)"><path
           d="M 193.64571,38.016 V 304.128"
           style="fill:none;stroke:#b0b0b0;stroke-width:0.8;stroke-linecap:square;stroke-linejoin:round;stroke-miterlimit:10;stroke-dasharray:none;stroke-opacity:1"
           id="path60" /></g></g><path
       d="m 120.31556,163.88647 v -2.01324"
       style="fill:#000000;fill-opacity:1;fill-rule:nonzero;stroke:#000000;stroke-width:0.46017;stroke-linecap:butt;stroke-linejoin:round;stroke-miterlimit:10;stroke-dasharray:none;stroke-opacity:1"
       id="path64" /><g
       id="g70"
       transform="matrix(0.57521225,0,0,0.57521225,8.9281759,142.01921)"><g
         id="g72"
         clip-path="url(#clipPath76)"><path
           d="M 261.66857,38.016 V 304.128"
           style="fill:none;stroke:#b0b0b0;stroke-width:0.8;stroke-linecap:square;stroke-linejoin:round;stroke-miterlimit:10;stroke-dasharray:none;stroke-opacity:1"
           id="path78" /></g></g><path
       d="m 159.44314,163.88647 v -2.01324"
       style="fill:#000000;fill-opacity:1;fill-rule:nonzero;stroke:#000000;stroke-width:0.46017;stroke-linecap:butt;stroke-linejoin:round;stroke-miterlimit:10;stroke-dasharray:none;stroke-opacity:1"
       id="path82" /><g
       id="g88"
       transform="matrix(0.57521225,0,0,0.57521225,8.9281759,142.01921)"><g
         id="g90"
         clip-path="url(#clipPath94)"><path
           d="M 329.69143,38.016 V 304.128"
           style="fill:none;stroke:#b0b0b0;stroke-width:0.8;stroke-linecap:square;stroke-linejoin:round;stroke-miterlimit:10;stroke-dasharray:none;stroke-opacity:1"
           id="path96" /></g></g><path
       d="m 42.060402,306.183 0.978188,-6.45586 0.978191,-3.54516 0.978189,-1.77118 0.978189,-1.95913 0.97819,-2.13301 0.978189,-1.85617 0.97819,-1.53271 0.978189,-1.14906 0.97819,-1.3529 0.978189,-1.60985 0.97819,-0.50129 0.97819,-1.05637 0.978189,-0.53518 0.97819,0.39619 0.978189,0.60568 0.978189,-1.98235 0.97819,-0.6997 0.97819,0.0119 0.978189,-0.6067 0.97819,0.0718 0.978189,-0.40017 0.97819,-0.97228 0.978189,-2.56999 1.956382,-0.78435 0.978189,0.67201 0.978188,-0.92079 0.978188,-0.51822 0.97819,1.56108 0.978188,-1.48061 0.978189,-0.15938 0.978194,-1.82057 0.978189,0.74932 0.978189,0.18197 0.978188,-1.08187 0.978189,-0.35436 1.956378,0.026 0.978194,-2.27157 0.978188,-0.38878 0.97819,1.36872 0.978188,-0.94521 0.978189,-1.8256 0.978188,0.26267 0.978189,-2.04736 0.978195,-0.13065 0.978188,-0.3122 0.978189,0.0826 0.978189,1.12024 0.978188,-2.03935 0.978189,0.20732 0.978188,-0.89666 0.978195,0.0798 0.978189,0.79095 0.978189,-2.03091 0.978188,-0.85116 0.978189,-1.41462 0.978189,-0.57368 0.978188,-1.20895 0.9782,-2.10716 0.97818,-0.11574 0.97819,1.37908 0.97819,-1.80318 0.97819,-0.47195 0.97819,-1.04987 0.97819,-1.31172 0.97819,0.85526 0.97819,-0.0585 0.97819,-0.88916 0.97818,-0.0809 0.97819,0.67449 0.97819,-2.07512 0.97819,-1.81699 0.97819,0.17387 0.97819,-0.55515 0.9782,0.39654 0.97819,-0.54118 0.97819,-0.0989 0.97818,-2.21952 0.97819,1.50442 0.9782,-1.29666 0.97819,-3.19669 0.97818,2.96326 0.97819,-1.97111 0.97819,0.41901 0.97819,1.16018 0.97819,0.12455 0.97819,-1.33398 0.97819,-2.28183 0.97819,-0.75054 0.97819,0.7055 0.97818,-1.80052 1.95638,-0.90334 0.97819,-0.12402 0.97819,-1.72207 1.95638,1.37208 0.97819,-1.40602 0.9782,-0.0528 0.97818,-0.94228 0.9782,1.18547 0.97819,-2.35201 0.97818,1.0448 0.97819,-0.0713 0.97819,-0.36974 0.97819,-0.84254 0.97819,2.12181 0.97819,-0.74806 0.97819,-1.40547 0.97819,-0.37029 0.97819,-5.02675 0.97819,5.21344 0.97818,-2.1347 0.97819,1.05112 0.9782,-0.0924 1.95637,-1.43944 0.97819,0.59053 0.97819,2.76023 0.97819,-3.27885 0.97819,1.76469 0.97819,-0.4667 0.9782,2.85464 0.97819,-4.59815 0.97818,1.71806 1.95638,1.15194 0.97819,-4.30165 0.97819,1.24556 0.97819,-1.37442 0.97819,-0.41518 0.97819,-0.26433 0.97819,-0.14825 0.97818,0.40081 0.97819,-1.14506 0.9782,1.61081 0.97819,-2.65155 0.97818,0.59567 0.97819,-0.47651 0.97819,-1.69191 0.97819,0.70347 0.97819,-1.3547 0.97819,0.44078 0.97819,-2.20184 0.97819,0.85286 1.95638,2.57076 0.97819,-5.49065 0.97819,1.7559 0.97819,2.07369 0.97819,-1.55735 0.97819,0.23297 0.97819,-0.18376 0.97819,0.35564 0.97819,-0.0233 0.97818,-1.50691 0.9782,-2.04939 0.97819,3.05761 0.97818,-4.25365 0.97819,2.39952 0.97819,-0.93218 0.97819,-1.1479 0.97819,0.80229 0.97819,-2.04359 0.97819,-0.47441 0.97819,2.47968 0.97819,0.9622 0.97818,-0.9397 0.97819,-2.10089 0.97819,-0.55742 0.97821,1.97976 0.97818,-2.7522 0.97819,2.55879 0.97819,-1.42258 0.97819,0.30271 0.97819,2.04682 0.97819,-4.66288 0.97819,4.55537 0.97819,-0.65153 0.97819,-1.81075 0.97818,-0.84746 0.97819,0.46478 0.97819,-2.14223 0.97819,2.51667 0.97819,-4.69495 0.97819,-0.0278 0.97819,3.47129 0.97819,-4.12224 0.97819,1.49793 0.97818,1.25045 0.97819,-2.62606 0.9782,-1.44043 0.97818,1.57109 0.97819,1.02288 0.9782,0.67329 0.97819,-1.86944 0.97819,-4.06225 0.97819,5.44266 v 0"
       style="fill:none;stroke:#ff0000;stroke-width:0.862818;stroke-linecap:square;stroke-linejoin:round;stroke-miterlimit:10;stroke-dasharray:none;stroke-opacity:1"
       id="path268" /><path
       d="m 198.57072,163.88647 v -2.01324"
       style="fill:#000000;fill-opacity:1;fill-rule:nonzero;stroke:#000000;stroke-width:0.46017;stroke-linecap:butt;stroke-linejoin:round;stroke-miterlimit:10;stroke-dasharray:none;stroke-opacity:1"
       id="path100" /><g
       id="g106"
       transform="matrix(0.57521225,0,0,0.57521225,8.9281759,142.01921)"><g
         id="g108"
         clip-path="url(#clipPath112)"><path
           d="M 397.71429,38.016 V 304.128"
           style="fill:none;stroke:#b0b0b0;stroke-width:0.8;stroke-linecap:square;stroke-linejoin:round;stroke-miterlimit:10;stroke-dasharray:none;stroke-opacity:1"
           id="path114" /></g></g><path
       d="m 237.69831,163.88647 v -2.01324"
       style="fill:#000000;fill-opacity:1;fill-rule:nonzero;stroke:#000000;stroke-width:0.46017;stroke-linecap:butt;stroke-linejoin:round;stroke-miterlimit:10;stroke-dasharray:none;stroke-opacity:1"
       id="path118" /><g
       id="g128"
       transform="matrix(0.57521225,0,0,0.57521225,8.9281759,142.01921)"><g
         id="g130"
         clip-path="url(#clipPath134)"><path
           d="M 57.6,38.016 H 414.72"
           style="fill:none;stroke:#b0b0b0;stroke-width:0.8;stroke-linecap:square;stroke-linejoin:round;stroke-miterlimit:10;stroke-dasharray:none;stroke-opacity:1"
           id="path136" /></g></g><path
       d="M 42.060402,163.88647 H 40.047158"
       style="fill:#000000;fill-opacity:1;fill-rule:nonzero;stroke:#000000;stroke-width:0.46017;stroke-linecap:butt;stroke-linejoin:round;stroke-miterlimit:10;stroke-dasharray:none;stroke-opacity:1"
       id="path140" /><g
       id="g146"
       transform="matrix(0.57521225,0,0,0.57521225,8.9281759,142.01921)"><g
         id="g148"
         clip-path="url(#clipPath152)"><path
           d="M 57.6,91.2384 H 414.72"
           style="fill:none;stroke:#b0b0b0;stroke-width:0.8;stroke-linecap:square;stroke-linejoin:round;stroke-miterlimit:10;stroke-dasharray:none;stroke-opacity:1"
           id="path154" /></g></g><path
       d="M 42.060402,194.50064 H 40.047158"
       style="fill:#000000;fill-opacity:1;fill-rule:nonzero;stroke:#000000;stroke-width:0.46017;stroke-linecap:butt;stroke-linejoin:round;stroke-miterlimit:10;stroke-dasharray:none;stroke-opacity:1"
       id="path158" /><g
       id="g164"
       transform="matrix(0.57521225,0,0,0.57521225,8.9281759,142.01921)"><g
         id="g166"
         clip-path="url(#clipPath170)"><path
           d="M 57.6,144.4608 H 414.72"
           style="fill:none;stroke:#b0b0b0;stroke-width:0.8;stroke-linecap:square;stroke-linejoin:round;stroke-miterlimit:10;stroke-dasharray:none;stroke-opacity:1"
           id="path172" /></g></g><path
       d="M 42.060402,225.11483 H 40.047158"
       style="fill:#000000;fill-opacity:1;fill-rule:nonzero;stroke:#000000;stroke-width:0.46017;stroke-linecap:butt;stroke-linejoin:round;stroke-miterlimit:10;stroke-dasharray:none;stroke-opacity:1"
       id="path176" /><g
       id="g182"
       transform="matrix(0.57521225,0,0,0.57521225,8.9281759,142.01921)"><g
         id="g184"
         clip-path="url(#clipPath188)"><path
           d="M 57.6,197.6832 H 414.72"
           style="fill:none;stroke:#b0b0b0;stroke-width:0.8;stroke-linecap:square;stroke-linejoin:round;stroke-miterlimit:10;stroke-dasharray:none;stroke-opacity:1"
           id="path190" /></g></g><path
       d="M 42.060402,255.729 H 40.047158"
       style="fill:#000000;fill-opacity:1;fill-rule:nonzero;stroke:#000000;stroke-width:0.46017;stroke-linecap:butt;stroke-linejoin:round;stroke-miterlimit:10;stroke-dasharray:none;stroke-opacity:1"
       id="path194" /><g
       id="g200"
       transform="matrix(0.57521225,0,0,0.57521225,8.9281759,142.01921)"><g
         id="g202"
         clip-path="url(#clipPath206)"><path
           d="M 57.6,250.9056 H 414.72"
           style="fill:none;stroke:#b0b0b0;stroke-width:0.8;stroke-linecap:square;stroke-linejoin:round;stroke-miterlimit:10;stroke-dasharray:none;stroke-opacity:1"
           id="path208" /></g></g><path
       d="M 42.060402,286.34318 H 40.047158"
       style="fill:#000000;fill-opacity:1;fill-rule:nonzero;stroke:#000000;stroke-width:0.46017;stroke-linecap:butt;stroke-linejoin:round;stroke-miterlimit:10;stroke-dasharray:none;stroke-opacity:1"
       id="path212" /><g
       id="g218"
       transform="matrix(0.57521225,0,0,0.57521225,8.9281759,142.01921)"><g
         id="g220"
         clip-path="url(#clipPath224)"><path
           d="M 57.6,304.128 H 414.72"
           style="fill:none;stroke:#b0b0b0;stroke-width:0.8;stroke-linecap:square;stroke-linejoin:round;stroke-miterlimit:10;stroke-dasharray:none;stroke-opacity:1"
           id="path226" /></g></g><path
       d="M 42.060402,316.95735 H 40.047158"
       style="fill:#000000;fill-opacity:1;fill-rule:nonzero;stroke:#000000;stroke-width:0.46017;stroke-linecap:butt;stroke-linejoin:round;stroke-miterlimit:10;stroke-dasharray:none;stroke-opacity:1"
       id="path230" /><path
       d="m 43.03859,247.22063 0.978191,-1.13211 0.978189,-6.86432 0.978189,-4.51673 1.956379,-8.26441 0.97819,-5.70799 0.978189,-1.57725 0.97819,-3.82199 0.978189,-1.21365 0.97819,-1.80099 0.97819,-2.18593 0.978189,-3.71181 1.956379,-0.99178 0.978189,-3.1036 0.97819,-1.66374 0.97819,-0.50427 0.978189,0.69584 0.97819,-3.89729 0.978189,0.25222 0.97819,-1.44021 0.978189,-2.21251 0.97819,2.42284 0.978192,-0.63594 0.978189,-2.15682 0.978188,-0.85536 0.978188,-3.04353 0.97819,2.46147 0.978188,-1.98001 0.978189,0.069 0.978194,0.21025 0.978189,-2.17228 0.978189,0.19518 0.978188,1.70586 0.978189,2.23291 0.978189,-1.14154 0.978189,1.32711 0.978194,-3.04281 0.978188,-2.30432 0.97819,1.36485 1.956377,-5.50693 0.978188,2.04352 0.978189,-2.98226 0.978195,0.8765 0.978188,1.14772 0.978189,-2.35577 0.978189,1.97273 0.978188,-1.64289 0.978189,1.6242 0.978188,0.65387 0.978195,-0.0707 0.978189,-1.99413 0.978189,1.50574 0.978188,0.76938 0.978189,2.31438 0.978189,-3.39758 0.978188,0.66284 0.9782,0.331 0.97818,1.31724 0.97819,2.98069 0.97819,-1.76799 0.97819,-0.12129 0.97819,0.92026 0.97819,-1.62389 0.97819,5.40505 0.97819,-2.51992 0.97819,3.05092 0.97818,1.89372 0.97819,0.95414 0.97819,-1.84952 0.97819,3.35399 0.97819,0.97764 0.97819,3.03462 0.9782,-0.1942 0.97819,-0.35301 0.97819,-0.50424 0.97818,-0.1641 0.97819,0.56058 0.9782,-0.63631 0.97819,1.19711 0.97818,0.13666 0.97819,-1.4231 0.97819,3.16731 0.97819,1.02663 0.97819,2.36274 0.97819,1.15341 0.97819,-2.20446 0.97819,0.52438 1.95637,5.22686 0.97819,-4.87196 0.97819,2.02311 0.97819,1.55871 0.97819,0.22892 0.97819,3.44611 0.97819,4.12102 0.97819,-4.17145 0.9782,2.78203 0.97818,-3.05193 0.9782,2.0975 0.97819,2.50552 0.97818,-0.92482 0.97819,-1.38403 0.97819,2.918 0.97819,-3.17716 0.97819,4.25864 0.97819,1.58535 0.97819,-2.19347 0.97819,-0.0299 0.97819,-0.34473 0.97819,1.42401 0.97818,0.12188 0.97819,-1.57915 0.9782,4.55527 0.97818,-2.61499 0.97819,0.20958 0.97819,1.8318 0.97819,4.64659 0.97819,-3.49591 0.97819,0.36024 0.97819,2.54676 0.9782,0.54529 0.97819,-0.65775 0.97818,4.48437 0.97819,-4.28957 0.97819,2.00728 0.97819,-0.0616 0.97819,5.07041 0.97819,-5.0273 1.95638,5.60397 0.97819,-0.69567 0.97818,-0.0839 0.97819,0.32548 0.9782,2.91609 0.97819,-1.1216 0.97818,5.23894 0.97819,-3.40109 0.97819,1.06218 0.97819,5.06279 0.97819,-4.35435 0.97819,2.79536 0.97819,0.29472 0.97819,-2.12682 0.97819,1.67131 0.97819,0.69452 0.97819,-1.52706 0.97819,2.703 0.97819,0.69868 0.97819,1.06411 0.97819,1.46892 0.97819,-3.78877 0.97819,-2.17894 0.97819,6.51503 0.97818,-1.88469 0.9782,-2.4776 0.97819,4.17145 0.97818,-1.06022 0.97819,0.928 0.97819,-0.16828 0.97819,2.63593 0.97819,-1.76612 0.97819,-2.90576 0.97819,7.30068 0.97819,-2.0295 0.97819,-2.96497 0.97818,0.098 0.97819,0.21131 0.97819,-0.51002 0.97821,2.34624 0.97818,-0.50818 0.97819,-0.18342 0.97819,-0.80712 0.97819,2.96151 0.97819,-3.34087 0.97819,-0.46665 0.97819,2.50403 0.97819,2.70045 0.97819,-2.62524 0.97818,-0.43611 0.97819,-0.54342 0.97819,3.82045 0.97819,-0.80052 0.97819,-3.13267 0.97819,2.92366 0.97819,0.25694 0.97819,-2.95115 0.97819,3.26466 0.97818,-2.06187 0.97819,2.49365 0.9782,2.04789 0.97818,-3.83343 0.97819,-0.98423 0.9782,2.6104 0.97819,-0.9648 0.97819,-0.0722 0.97819,2.70664 0.97819,-2.68366 0.97819,1.72855 v 0"
       style="fill:none;stroke:#7cfc00;stroke-width:0.862818;stroke-linecap:square;stroke-linejoin:round;stroke-miterlimit:10;stroke-dasharray:none;stroke-opacity:1"
       id="path248" /><path
       d="m 43.03859,232.75092 0.978191,10.10259 0.978189,-6.01776 3.912758,-21.89625 0.978189,-1.92038 0.97819,-5.9139 0.978189,-1.40149 0.97819,-1.62274 0.97819,-1.26277 0.978189,-3.22776 0.97819,-2.44239 0.978189,0.29337 0.978189,-1.74689 0.97819,-1.96255 0.97819,-0.57497 0.978189,0.38542 0.97819,-4.21746 1.956379,-0.65558 0.978189,-3.01061 0.97819,0.78091 0.978192,0.0132 0.978189,-0.7433 0.978188,-1.61612 0.978188,-1.12834 0.97819,-0.20386 0.978188,-1.87987 0.978189,1.59299 0.978194,0.009 0.978189,-2.36068 0.978189,0.93571 0.978188,4.75045 0.978189,-2.003 0.978189,1.46145 0.978189,1.02646 0.978194,0.0769 0.978188,1.23704 0.97819,0.64654 0.978188,-1.63938 0.978189,2.92311 0.978188,-0.29361 0.978189,4.9094 0.978195,0.95573 0.978188,-0.81812 0.978189,0.12021 0.978189,2.03906 0.978188,-0.18634 0.978189,0.95355 0.978188,2.89434 0.978195,0.89342 0.978189,1.49265 0.978189,2.86331 0.978188,-0.51778 0.978189,2.10661 0.978189,-1.40796 0.978188,1.70238 0.9782,0.51446 0.97818,0.96957 0.97819,-0.4103 0.97819,1.72082 0.97819,-0.59471 0.97819,2.21929 0.97819,0.55926 0.97819,1.31729 0.97819,-1.06918 0.97819,0.57399 0.97818,0.23646 0.97819,2.44081 0.97819,0.0607 0.97819,3.55042 0.97819,-2.00869 0.97819,-1.62618 0.9782,3.43512 0.97819,-1.54022 0.97819,1.54907 0.97818,2.07837 0.97819,-1.44663 0.9782,1.58108 0.97819,1.3556 0.97818,1.11034 0.97819,-0.23792 0.97819,0.43874 0.97819,-1.11856 0.97819,2.13077 0.97819,0.29777 0.97819,0.9726 0.97819,-2.07256 0.97819,2.02522 0.97818,0.84832 0.97819,1.41359 0.97819,-1.404 0.97819,3.25999 0.97819,-1.51415 0.97819,1.60376 0.97819,-0.46777 0.97819,2.25204 0.9782,-0.39104 0.97818,1.33666 0.9782,-3.21852 0.97819,4.58451 0.97818,-1.26915 0.97819,-0.27147 0.97819,1.32012 0.97819,1.77379 0.97819,0.30041 0.97819,-1.9382 0.97819,-0.19421 0.97819,1.92808 0.97819,0.30088 0.97819,-0.33895 0.97818,1.23423 0.97819,1.41234 0.9782,-0.8502 0.97818,0.1986 0.97819,2.06934 0.97819,-1.94537 0.97819,2.28573 0.97819,-1.47185 0.97819,-0.57495 0.97819,-0.0815 0.9782,3.35217 0.97819,0.18703 0.97818,2.72451 0.97819,-3.25031 0.97819,3.238 0.97819,-1.62104 0.97819,2.76577 0.97819,-1.80938 0.97819,2.32324 0.97819,-0.40893 0.97819,-1.09444 0.97818,0.6848 0.97819,-0.83523 1.95639,2.83566 0.97818,0.92632 0.97819,-0.80977 0.97819,-0.38959 0.97819,3.06605 0.97819,-2.2424 0.97819,2.10751 0.97819,0.71169 0.97819,-0.86166 0.97819,-1.1544 0.97819,2.78767 0.97819,-2.06524 0.97819,0.56382 0.97819,1.02112 0.97819,1.5159 0.97819,-0.79157 0.97819,-0.97663 0.97819,-0.82274 0.97819,2.2255 0.97818,-0.30331 0.9782,2.13919 0.97819,-0.58513 0.97818,0.21893 0.97819,0.0277 0.97819,-0.34131 0.97819,4.78939 0.97819,-3.20341 0.97819,0.14567 0.97819,2.20951 0.97819,-2.05641 0.97819,-2.83896 0.97818,2.12656 0.97819,1.04753 0.97819,-0.0214 0.97821,-0.41759 0.97818,-0.046 0.97819,-1.20456 0.97819,-0.29788 0.97819,3.58625 0.97819,-2.71969 0.97819,-0.0497 0.97819,1.56401 0.97819,1.39041 0.97819,-0.16544 0.97818,-2.47417 0.97819,1.89851 0.97819,2.30892 0.97819,-1.33947 0.97819,-1.17481 0.97819,2.50832 0.97819,-0.95547 0.97819,-2.03676 0.97819,3.6516 0.97818,-2.9901 0.97819,2.1593 0.9782,2.4076 0.97818,-2.15432 0.97819,-1.72018 0.9782,0.42382 0.97819,0.15932 0.97819,1.84951 0.97819,-0.62833 0.97819,1.2025 0.97819,-1.06189 v 0"
       style="fill:none;stroke:#006400;stroke-width:0.862818;stroke-linecap:square;stroke-linejoin:round;stroke-miterlimit:10;stroke-dasharray:none;stroke-opacity:1"
       id="path258" /><path
       d="M 42.060402,163.88647 V 316.95735"
       style="fill:none;stroke:#000000;stroke-width:0.46017;stroke-linecap:square;stroke-linejoin:miter;stroke-miterlimit:10;stroke-dasharray:none;stroke-opacity:1"
       id="path272" /><path
       d="M 247.4802,163.88647 V 316.95735"
       style="fill:none;stroke:#000000;stroke-width:0.46017;stroke-linecap:square;stroke-linejoin:miter;stroke-miterlimit:10;stroke-dasharray:none;stroke-opacity:1"
       id="path274" /><path
       d="M 42.060402,163.88647 H 247.4802"
       style="fill:none;stroke:#000000;stroke-width:0.46017;stroke-linecap:square;stroke-linejoin:miter;stroke-miterlimit:10;stroke-dasharray:none;stroke-opacity:1"
       id="path276" /><path
       d="M 42.060402,316.95735 H 247.4802"
       style="fill:none;stroke:#000000;stroke-width:0.46017;stroke-linecap:square;stroke-linejoin:miter;stroke-miterlimit:10;stroke-dasharray:none;stroke-opacity:1"
       id="path278" /><path
       d="M 66.24194,309.42566 H 77.74618"
       style="fill:none;stroke:#7cfc00;stroke-width:0.862818;stroke-linecap:square;stroke-linejoin:round;stroke-miterlimit:10;stroke-dasharray:none;stroke-opacity:1"
       id="path288" /><path
       d="M 66.24194,300.98623 H 77.74618"
       style="fill:none;stroke:#006400;stroke-width:0.862818;stroke-linecap:square;stroke-linejoin:round;stroke-miterlimit:10;stroke-dasharray:none;stroke-opacity:1"
       id="path294" /><path
       d="M 66.24194,292.54678 H 77.74618"
       style="fill:none;stroke:#ff0000;stroke-width:0.862818;stroke-linecap:square;stroke-linejoin:round;stroke-miterlimit:10;stroke-dasharray:none;stroke-opacity:1"
       id="path300" /></g><g
     inkscape:groupmode="layer"
     id="layer1"
     inkscape:label="text"
     transform="translate(-28.023958,-17.206414)"><text
       style="font-variant:normal;font-weight:normal;font-size:7.66949px;font-family:'DejaVu Sans';-inkscape-font-specification:DejaVuSans;writing-mode:lr-tb;fill:#000000;fill-opacity:1;fill-rule:nonzero;stroke:none;stroke-width:0.766949"
       id="text32"
       x="53.980885"
       y="253.4774"><tspan
         x="53.980885 58.858688 61.297585"
         y="253.4774"
         sodipodi:role="line"
         id="tspan30"
         style="stroke-width:0.766949">0.0</tspan></text><text
       style="font-variant:normal;font-weight:normal;font-size:7.66949px;font-family:'DejaVu Sans';-inkscape-font-specification:DejaVuSans;writing-mode:lr-tb;fill:#000000;fill-opacity:1;fill-rule:nonzero;stroke:none;stroke-width:0.766949"
       id="text50"
       x="102.15099"
       y="253.4774"><tspan
         x="102.15099 107.0288 109.4677"
         y="253.4774"
         sodipodi:role="line"
         id="tspan48"
         style="stroke-width:0.766949">0.2</tspan></text><text
       style="font-variant:normal;font-weight:normal;font-size:7.66949px;font-family:'DejaVu Sans';-inkscape-font-specification:DejaVuSans;writing-mode:lr-tb;fill:#000000;fill-opacity:1;fill-rule:nonzero;stroke:none;stroke-width:0.766949"
       id="text68"
       x="154.32111"
       y="253.4774"><tspan
         x="154.32111 159.19891 161.6378"
         y="253.4774"
         sodipodi:role="line"
         id="tspan66"
         style="stroke-width:0.766949">0.4</tspan></text><text
       style="font-variant:normal;font-weight:normal;font-size:7.66949px;font-family:'DejaVu Sans';-inkscape-font-specification:DejaVuSans;writing-mode:lr-tb;fill:#000000;fill-opacity:1;fill-rule:nonzero;stroke:none;stroke-width:0.766949"
       id="text86"
       x="206.49123"
       y="253.4774"><tspan
         x="206.49123 211.369 213.80791"
         y="253.4774"
         sodipodi:role="line"
         id="tspan84"
         style="stroke-width:0.766949">0.6</tspan></text><text
       style="font-variant:normal;font-weight:normal;font-size:7.66949px;font-family:'DejaVu Sans';-inkscape-font-specification:DejaVuSans;writing-mode:lr-tb;fill:#000000;fill-opacity:1;fill-rule:nonzero;stroke:none;stroke-width:0.766949"
       id="text104"
       x="258.66132"
       y="253.4774"><tspan
         x="258.66132 263.53912 265.97803"
         y="253.4774"
         sodipodi:role="line"
         id="tspan102"
         style="stroke-width:0.766949">0.8</tspan></text><text
       style="font-variant:normal;font-weight:normal;font-size:7.66949px;font-family:'DejaVu Sans';-inkscape-font-specification:DejaVuSans;writing-mode:lr-tb;fill:#000000;fill-opacity:1;fill-rule:nonzero;stroke:none;stroke-width:0.766949"
       id="text122"
       x="310.83142"
       y="253.4774"><tspan
         x="310.83142 315.70923 318.14813"
         y="253.4774"
         sodipodi:role="line"
         id="tspan120"
         style="stroke-width:0.766949">1.0</tspan></text><text
       style="font-variant:normal;font-weight:normal;font-size:7.66949px;font-family:'DejaVu Sans';-inkscape-font-specification:DejaVuSans;writing-mode:lr-tb;fill:#000000;fill-opacity:1;fill-rule:nonzero;stroke:none;stroke-width:0.766949"
       id="text126"
       x="146.60863"
       y="263.96304"><tspan
         x="146.60863 152.55249 157.26924 162.1317 166.82542 174.29552 176.42763 180.64584 183.08476 187.95488 190.08701 194.08281 197.08925 201.79066 206.65311 210.87135 215.58809 218.02698 220.6116 223.05051 229.66927 234.53941"
         y="263.96304"
         sodipodi:role="line"
         id="tspan124"
         style="stroke-width:0.766949">Genomic distance / Mbp</tspan></text><text
       style="font-variant:normal;font-weight:normal;font-size:7.66949px;font-family:'DejaVu Sans';-inkscape-font-specification:DejaVuSans;writing-mode:lr-tb;fill:#000000;fill-opacity:1;fill-rule:nonzero;stroke:none;stroke-width:0.766949"
       id="text144"
       x="38.512592"
       y="245.19675"><tspan
         x="38.512592 43.390392 45.829292"
         y="245.19675"
         sodipodi:role="line"
         id="tspan142"
         style="stroke-width:0.766949">0.0</tspan></text><text
       style="font-variant:normal;font-weight:normal;font-size:7.66949px;font-family:'DejaVu Sans';-inkscape-font-specification:DejaVuSans;writing-mode:lr-tb;fill:#000000;fill-opacity:1;fill-rule:nonzero;stroke:none;stroke-width:0.766949"
       id="text162"
       x="38.512592"
       y="204.37785"><tspan
         x="38.512592 43.390392 45.829292"
         y="204.37785"
         sodipodi:role="line"
         id="tspan160"
         style="stroke-width:0.766949">0.2</tspan></text><text
       style="font-variant:normal;font-weight:normal;font-size:7.66949px;font-family:'DejaVu Sans';-inkscape-font-specification:DejaVuSans;writing-mode:lr-tb;fill:#000000;fill-opacity:1;fill-rule:nonzero;stroke:none;stroke-width:0.766949"
       id="text180"
       x="38.512592"
       y="163.55894"><tspan
         x="38.512592 43.390392 45.829292"
         y="163.55894"
         sodipodi:role="line"
         id="tspan178"
         style="stroke-width:0.766949">0.4</tspan></text><text
       style="font-variant:normal;font-weight:normal;font-size:7.66949px;font-family:'DejaVu Sans';-inkscape-font-specification:DejaVuSans;writing-mode:lr-tb;fill:#000000;fill-opacity:1;fill-rule:nonzero;stroke:none;stroke-width:0.766949"
       id="text198"
       x="38.512592"
       y="122.74006"><tspan
         x="38.512592 43.390392 45.829292"
         y="122.74006"
         sodipodi:role="line"
         id="tspan196"
         style="stroke-width:0.766949">0.6</tspan></text><text
       style="font-variant:normal;font-weight:normal;font-size:7.66949px;font-family:'DejaVu Sans';-inkscape-font-specification:DejaVuSans;writing-mode:lr-tb;fill:#000000;fill-opacity:1;fill-rule:nonzero;stroke:none;stroke-width:0.766949"
       id="text216"
       x="38.512592"
       y="81.921143"><tspan
         x="38.512592 43.390392 45.829292"
         y="81.921143"
         sodipodi:role="line"
         id="tspan214"
         style="stroke-width:0.766949">0.8</tspan></text><text
       style="font-variant:normal;font-weight:normal;font-size:7.66949px;font-family:'DejaVu Sans';-inkscape-font-specification:DejaVuSans;writing-mode:lr-tb;fill:#000000;fill-opacity:1;fill-rule:nonzero;stroke:none;stroke-width:0.766949"
       id="text234"
       x="38.512592"
       y="41.102249"><tspan
         x="38.512592 43.390392 45.829292"
         y="41.102249"
         sodipodi:role="line"
         id="tspan232"
         style="stroke-width:0.766949">1.0</tspan></text><text
       transform="rotate(-90)"
       style="font-variant:normal;font-weight:normal;font-size:7.66949px;font-family:'DejaVu Sans';-inkscape-font-specification:DejaVuSans;writing-mode:lr-tb;fill:#000000;fill-opacity:1;fill-rule:nonzero;stroke:none;stroke-width:0.766949"
       id="text238"
       x="-177.29074"
       y="33.850979"><tspan
         x="-177.29074 -172.66603 -167.94928 -163.24788 -160.09572 -156.09993 -151.40619 -146.54372 -144.10483 -139.88661 -135.19286 -132.04071 -128.88855 -124.1718 -122.03973 -117.33829 -114.33189 -112.19975 -107.50602"
         y="33.850979"
         sodipodi:role="line"
         id="tspan236"
         style="stroke-width:0.766949">Pearson correlation</tspan></text><text
       style="font-variant:normal;font-weight:normal;font-size:9.2034px;font-family:'DejaVu Sans';-inkscape-font-specification:DejaVuSans;writing-mode:lr-tb;fill:#000000;fill-opacity:1;fill-rule:nonzero;stroke:none;stroke-width:0.766949"
       id="text282"
       x="98.314774"
       y="23.273058"><tspan
         x="98.314774 103.86443 109.52451 115.16619 118.94878 123.74375 129.37624 135.21118 138.13786 143.19972 148.83221 152.61482 156.3974 162.0575 164.61604 170.25772 173.86545 176.42398 182.05647 187.89142 190.8181 196.26651 201.06149 203.98816 206.91486 212.759 218.41908 224.25403 229.88652 238.85063 241.40916 246.47104 249.39772 255.24188 257.80042 262.59537 266.20309 271.84479 277.67975 282.74161"
         y="23.273058"
         sodipodi:role="line"
         id="tspan280"
         style="stroke-width:0.766949">Pearson correlation vs. genomic distance</tspan></text><text
       style="font-variant:normal;font-weight:normal;font-size:9.2034px;font-family:'DejaVu Sans';-inkscape-font-specification:DejaVuSans;writing-mode:lr-tb;fill:#000000;fill-opacity:1;fill-rule:nonzero;stroke:none;stroke-width:0.766949"
       id="text286"
       x="155.13495"
       y="33.588539"><tspan
         x="155.13495 161.55893 167.39388 171.17648 176.80894 185.77306 191.40553 196.20052 201.83299 210.79709 216.45717 219.38387 225.23721"
         y="33.588539"
         sodipodi:role="line"
         id="tspan284"
         style="stroke-width:0.766949">Chromosome 14</tspan></text><text
       style="font-variant:normal;font-weight:normal;font-size:7.66948px;font-family:'DejaVu Sans';-inkscape-font-specification:DejaVuSans;writing-mode:lr-tb;fill:#000000;fill-opacity:1;fill-rule:nonzero;stroke:none;stroke-width:0.766948"
       id="text292"
       x="109.79716"
       y="50.916809"><tspan
         sodipodi:role="line"
         id="tspan290"
         style="stroke-width:0.766948"
         x="109.79716"
         y="50.916809">MULTICELL, 5k / AUC: 0.353</tspan></text><text
       style="font-variant:normal;font-weight:normal;font-size:7.66948px;font-family:'DejaVu Sans';-inkscape-font-specification:DejaVuSans;writing-mode:lr-tb;fill:#000000;fill-opacity:1;fill-rule:nonzero;stroke:none;stroke-width:0.766948"
       id="text298"
       x="109.79716"
       y="62.169395"><tspan
         sodipodi:role="line"
         id="tspan296"
         style="stroke-width:0.766948"
         x="109.79716"
         y="62.169395">WINDOW, 5k / AUC: 0.417</tspan></text><text
       style="font-variant:normal;font-weight:normal;font-size:7.66948px;font-family:'DejaVu Sans';-inkscape-font-specification:DejaVuSans;writing-mode:lr-tb;fill:#000000;fill-opacity:1;fill-rule:nonzero;stroke:none;stroke-width:0.766948"
       id="text304"
       x="109.79716"
       y="73.421989"><tspan
         x="109.79716 114.48323 117.63539 122.33678 127.19925 131.19507 133.89471 138.61148 141.76363 144.20251 150.14638 156.76515 161.64299 166.52077 171.39857 176.27637 181.15417 183.59306 186.03195 190.90977 195.3504 197.78931 200.37393 202.81281 208.05875 213.67282 219.02612 221.61078 224.04965 228.92746 231.36633 236.24414 241.12195"
         y="73.421989"
         sodipodi:role="line"
         id="tspan302"
         style="stroke-width:0.766948">Transfer GM12878, 5k / AUC: 0.524</tspan></text></g></svg>
