<?xml version="1.0" encoding="UTF-8" standalone="no"?>
<svg
   xmlns:dc="http://purl.org/dc/elements/1.1/"
   xmlns:cc="http://creativecommons.org/ns#"
   xmlns:rdf="http://www.w3.org/1999/02/22-rdf-syntax-ns#"
   xmlns:svg="http://www.w3.org/2000/svg"
   xmlns="http://www.w3.org/2000/svg"
   xmlns:sodipodi="http://sodipodi.sourceforge.net/DTD/sodipodi-0.dtd"
   xmlns:inkscape="http://www.inkscape.org/namespaces/inkscape"
   version="1.1"
   id="svg2"
   xml:space="preserve"
   width="80mm"
   height="65.300003mm"
   viewBox="0 0 302.36219 246.80316"
   sodipodi:docname="pearson_chr14_overview_25k.svg"
   inkscape:version="1.0.2 (1.0.2+r75+1)"><metadata
     id="metadata8"><rdf:RDF><cc:Work
         rdf:about=""><dc:format>image/svg+xml</dc:format><dc:type
           rdf:resource="http://purl.org/dc/dcmitype/StillImage" /><dc:title /></cc:Work></rdf:RDF></metadata><defs
     id="defs6"><clipPath
       clipPathUnits="userSpaceOnUse"
       id="clipPath22"><path
         d="M 57.6,38.016 H 414.72 V 304.128 H 57.6 Z"
         id="path20" /></clipPath><clipPath
       clipPathUnits="userSpaceOnUse"
       id="clipPath40"><path
         d="M 57.6,38.016 H 414.72 V 304.128 H 57.6 Z"
         id="path38" /></clipPath><clipPath
       clipPathUnits="userSpaceOnUse"
       id="clipPath58"><path
         d="M 57.6,38.016 H 414.72 V 304.128 H 57.6 Z"
         id="path56" /></clipPath><clipPath
       clipPathUnits="userSpaceOnUse"
       id="clipPath76"><path
         d="M 57.6,38.016 H 414.72 V 304.128 H 57.6 Z"
         id="path74" /></clipPath><clipPath
       clipPathUnits="userSpaceOnUse"
       id="clipPath94"><path
         d="M 57.6,38.016 H 414.72 V 304.128 H 57.6 Z"
         id="path92" /></clipPath><clipPath
       clipPathUnits="userSpaceOnUse"
       id="clipPath112"><path
         d="M 57.6,38.016 H 414.72 V 304.128 H 57.6 Z"
         id="path110" /></clipPath><clipPath
       clipPathUnits="userSpaceOnUse"
       id="clipPath130"><path
         d="M 57.6,38.016 H 414.72 V 304.128 H 57.6 Z"
         id="path128" /></clipPath><clipPath
       clipPathUnits="userSpaceOnUse"
       id="clipPath152"><path
         d="M 57.6,38.016 H 414.72 V 304.128 H 57.6 Z"
         id="path150" /></clipPath><clipPath
       clipPathUnits="userSpaceOnUse"
       id="clipPath170"><path
         d="M 57.6,38.016 H 414.72 V 304.128 H 57.6 Z"
         id="path168" /></clipPath><clipPath
       clipPathUnits="userSpaceOnUse"
       id="clipPath188"><path
         d="M 57.6,38.016 H 414.72 V 304.128 H 57.6 Z"
         id="path186" /></clipPath><clipPath
       clipPathUnits="userSpaceOnUse"
       id="clipPath206"><path
         d="M 57.6,38.016 H 414.72 V 304.128 H 57.6 Z"
         id="path204" /></clipPath><clipPath
       clipPathUnits="userSpaceOnUse"
       id="clipPath224"><path
         d="M 57.6,38.016 H 414.72 V 304.128 H 57.6 Z"
         id="path222" /></clipPath><clipPath
       clipPathUnits="userSpaceOnUse"
       id="clipPath246"><path
         d="M 57.6,38.016 H 414.72 V 304.128 H 57.6 Z"
         id="path244" /></clipPath><clipPath
       clipPathUnits="userSpaceOnUse"
       id="clipPath256"><path
         d="M 57.6,38.016 H 414.72 V 304.128 H 57.6 Z"
         id="path254" /></clipPath><clipPath
       clipPathUnits="userSpaceOnUse"
       id="clipPath266"><path
         d="M 57.6,38.016 H 414.72 V 304.128 H 57.6 Z"
         id="path264" /></clipPath><clipPath
       clipPathUnits="userSpaceOnUse"
       id="clipPath276"><path
         d="M 57.6,38.016 H 414.72 V 304.128 H 57.6 Z"
         id="path274" /></clipPath><clipPath
       clipPathUnits="userSpaceOnUse"
       id="clipPath286"><path
         d="M 57.6,38.016 H 414.72 V 304.128 H 57.6 Z"
         id="path284" /></clipPath></defs><sodipodi:namedview
     pagecolor="#ffffff"
     bordercolor="#666666"
     borderopacity="1"
     objecttolerance="10"
     gridtolerance="10"
     guidetolerance="10"
     inkscape:pageopacity="0"
     inkscape:pageshadow="2"
     inkscape:window-width="1920"
     inkscape:window-height="1020"
     id="namedview4"
     showgrid="false"
     units="mm"
     fit-margin-top="0"
     fit-margin-left="0"
     fit-margin-right="0"
     fit-margin-bottom="0"
     inkscape:zoom="3.7196182"
     inkscape:cx="93.502708"
     inkscape:cy="163.35746"
     inkscape:window-x="0"
     inkscape:window-y="0"
     inkscape:window-maximized="1"
     inkscape:current-layer="layer1"
     inkscape:document-rotation="0" /><g
     id="g10"
     inkscape:groupmode="layer"
     inkscape:label="pearson_chr14_overview_25k"
     transform="matrix(1.3333333,0,0,-1.3333333,-28.023958,443.59358)"><path
       d="M 57.6,38.016 V 304.128"
       style="fill:none;stroke:#b0b0b0;stroke-width:0.8;stroke-linecap:square;stroke-linejoin:round;stroke-miterlimit:10;stroke-dasharray:none;stroke-opacity:1"
       id="path24"
       transform="matrix(0.57522742,0,0,0.57522742,8.927857,141.99696)" /><path
       d="M 113.61882,38.016 V 304.128"
       style="fill:none;stroke:#b0b0b0;stroke-width:0.8;stroke-linecap:square;stroke-linejoin:round;stroke-miterlimit:10;stroke-dasharray:none;stroke-opacity:1"
       id="path42"
       transform="matrix(0.57522742,0,0,0.57522742,8.927857,141.99696)" /><path
       d="M 169.63765,38.016 V 304.128"
       style="fill:none;stroke:#b0b0b0;stroke-width:0.8;stroke-linecap:square;stroke-linejoin:round;stroke-miterlimit:10;stroke-dasharray:none;stroke-opacity:1"
       id="path60"
       transform="matrix(0.57522742,0,0,0.57522742,8.927857,141.99696)" /><path
       d="M 138.73165,163.86481 V 316.93972"
       style="fill:none;stroke:#b0b0b0;stroke-width:0.460182;stroke-linecap:square;stroke-linejoin:round;stroke-miterlimit:10;stroke-dasharray:none;stroke-opacity:1"
       id="path78" /><path
       d="M 281.67529,38.016 V 304.128"
       style="fill:none;stroke:#b0b0b0;stroke-width:0.8;stroke-linecap:square;stroke-linejoin:round;stroke-miterlimit:10;stroke-dasharray:none;stroke-opacity:1"
       id="path96"
       transform="matrix(0.57522742,0,0,0.57522742,8.927857,141.99696)" /><path
       d="M 337.69412,38.016 V 304.128"
       style="fill:none;stroke:#b0b0b0;stroke-width:0.8;stroke-linecap:square;stroke-linejoin:round;stroke-miterlimit:10;stroke-dasharray:none;stroke-opacity:1"
       id="path114"
       transform="matrix(0.57522742,0,0,0.57522742,8.927857,141.99696)" /><path
       d="M 393.71294,38.016 V 304.128"
       style="fill:none;stroke:#b0b0b0;stroke-width:0.8;stroke-linecap:square;stroke-linejoin:round;stroke-miterlimit:10;stroke-dasharray:none;stroke-opacity:1"
       id="path132"
       transform="matrix(0.57522742,0,0,0.57522742,8.927857,141.99696)" /><path
       d="M 57.6,40.069314 H 414.72"
       style="fill:none;stroke:#b0b0b0;stroke-width:0.8;stroke-linecap:square;stroke-linejoin:round;stroke-miterlimit:10;stroke-dasharray:none;stroke-opacity:1"
       id="path154"
       transform="matrix(0.57522742,0,0,0.57522742,8.927857,141.99696)" /><path
       d="M 57.6,94.659789 H 414.72"
       style="fill:none;stroke:#b0b0b0;stroke-width:0.8;stroke-linecap:square;stroke-linejoin:round;stroke-miterlimit:10;stroke-dasharray:none;stroke-opacity:1"
       id="path172"
       transform="matrix(0.57522742,0,0,0.57522742,8.927857,141.99696)" /><path
       d="M 57.6,149.25026 H 414.72"
       style="fill:none;stroke:#b0b0b0;stroke-width:0.8;stroke-linecap:square;stroke-linejoin:round;stroke-miterlimit:10;stroke-dasharray:none;stroke-opacity:1"
       id="path190"
       transform="matrix(0.57522742,0,0,0.57522742,8.927857,141.99696)" /><path
       d="M 57.6,203.84074 H 414.72"
       style="fill:none;stroke:#b0b0b0;stroke-width:0.8;stroke-linecap:square;stroke-linejoin:round;stroke-miterlimit:10;stroke-dasharray:none;stroke-opacity:1"
       id="path208"
       transform="matrix(0.57522742,0,0,0.57522742,8.927857,141.99696)" /><path
       d="M 57.6,258.43122 H 414.72"
       style="fill:none;stroke:#b0b0b0;stroke-width:0.8;stroke-linecap:square;stroke-linejoin:round;stroke-miterlimit:10;stroke-dasharray:none;stroke-opacity:1"
       id="path226"
       transform="matrix(0.57522742,0,0,0.57522742,8.927857,141.99696)" /><path
       d="M 60.460307,175.23797 H 71.964896"
       style="fill:none;stroke:#ff0000;stroke-width:0.862842;stroke-linecap:square;stroke-linejoin:round;stroke-miterlimit:10;stroke-dasharray:none;stroke-opacity:1"
       id="path332" /><g
       id="g16"
       transform="matrix(0.57522742,0,0,0.57522742,8.9278568,141.99696)"><g
         id="g18"
         clip-path="url(#clipPath22)" /></g><g
       id="g26"
       transform="matrix(0.57522742,0,0,0.57522742,8.9278568,141.99696)"><path
         d="m 57.6,38.016 v -3.5"
         style="fill:#000000;fill-opacity:1;fill-rule:nonzero;stroke:#000000;stroke-width:0.8;stroke-linecap:butt;stroke-linejoin:round;stroke-miterlimit:10;stroke-dasharray:none;stroke-opacity:1"
         id="path28" /></g><g
       id="g34"
       transform="matrix(0.57522742,0,0,0.57522742,8.9278568,141.99696)"><g
         id="g36"
         clip-path="url(#clipPath40)" /></g><g
       id="g44"
       transform="matrix(0.57522742,0,0,0.57522742,8.9278568,141.99696)"><path
         d="m 113.61882,38.016 v -3.5"
         style="fill:#000000;fill-opacity:1;fill-rule:nonzero;stroke:#000000;stroke-width:0.8;stroke-linecap:butt;stroke-linejoin:round;stroke-miterlimit:10;stroke-dasharray:none;stroke-opacity:1"
         id="path46" /></g><g
       id="g52"
       transform="matrix(0.57522742,0,0,0.57522742,8.9278568,141.99696)"><g
         id="g54"
         clip-path="url(#clipPath58)" /></g><g
       id="g62"
       transform="matrix(0.57522742,0,0,0.57522742,8.9278568,141.99696)"><path
         d="m 169.63765,38.016 v -3.5"
         style="fill:#000000;fill-opacity:1;fill-rule:nonzero;stroke:#000000;stroke-width:0.8;stroke-linecap:butt;stroke-linejoin:round;stroke-miterlimit:10;stroke-dasharray:none;stroke-opacity:1"
         id="path64" /></g><g
       id="g80"
       transform="matrix(0.57522742,0,0,0.57522742,8.9278568,141.99696)"><path
         d="m 225.65647,38.016 v -3.5"
         style="fill:#000000;fill-opacity:1;fill-rule:nonzero;stroke:#000000;stroke-width:0.8;stroke-linecap:butt;stroke-linejoin:round;stroke-miterlimit:10;stroke-dasharray:none;stroke-opacity:1"
         id="path82" /></g><g
       id="g88"
       transform="matrix(0.57522742,0,0,0.57522742,8.9278568,141.99696)"><g
         id="g90"
         clip-path="url(#clipPath94)" /></g><g
       id="g98"
       transform="matrix(0.57522742,0,0,0.57522742,8.9278568,141.99696)"><path
         d="m 281.67529,38.016 v -3.5"
         style="fill:#000000;fill-opacity:1;fill-rule:nonzero;stroke:#000000;stroke-width:0.8;stroke-linecap:butt;stroke-linejoin:round;stroke-miterlimit:10;stroke-dasharray:none;stroke-opacity:1"
         id="path100" /></g><g
       id="g106"
       transform="matrix(0.57522742,0,0,0.57522742,8.9278568,141.99696)"><g
         id="g108"
         clip-path="url(#clipPath112)" /></g><g
       id="g116"
       transform="matrix(0.57522742,0,0,0.57522742,8.9278568,141.99696)"><path
         d="m 337.69412,38.016 v -3.5"
         style="fill:#000000;fill-opacity:1;fill-rule:nonzero;stroke:#000000;stroke-width:0.8;stroke-linecap:butt;stroke-linejoin:round;stroke-miterlimit:10;stroke-dasharray:none;stroke-opacity:1"
         id="path118" /></g><g
       id="g124"
       transform="matrix(0.57522742,0,0,0.57522742,8.9278568,141.99696)"><g
         id="g126"
         clip-path="url(#clipPath130)" /></g><g
       id="g134"
       transform="matrix(0.57522742,0,0,0.57522742,8.9278568,141.99696)"><path
         d="m 393.71294,38.016 v -3.5"
         style="fill:#000000;fill-opacity:1;fill-rule:nonzero;stroke:#000000;stroke-width:0.8;stroke-linecap:butt;stroke-linejoin:round;stroke-miterlimit:10;stroke-dasharray:none;stroke-opacity:1"
         id="path136" /></g><g
       id="g146"
       transform="matrix(0.57522742,0,0,0.57522742,8.9278568,141.99696)"><g
         id="g148"
         clip-path="url(#clipPath152)" /></g><g
       id="g156"
       transform="matrix(0.57522742,0,0,0.57522742,8.9278568,141.99696)"><path
         d="M 57.6,40.069314 H 54.1"
         style="fill:#000000;fill-opacity:1;fill-rule:nonzero;stroke:#000000;stroke-width:0.8;stroke-linecap:butt;stroke-linejoin:round;stroke-miterlimit:10;stroke-dasharray:none;stroke-opacity:1"
         id="path158" /></g><g
       id="g164"
       transform="matrix(0.57522742,0,0,0.57522742,8.9278568,141.99696)"><g
         id="g166"
         clip-path="url(#clipPath170)" /></g><g
       id="g174"
       transform="matrix(0.57522742,0,0,0.57522742,8.9278568,141.99696)"><path
         d="M 57.6,94.659789 H 54.1"
         style="fill:#000000;fill-opacity:1;fill-rule:nonzero;stroke:#000000;stroke-width:0.8;stroke-linecap:butt;stroke-linejoin:round;stroke-miterlimit:10;stroke-dasharray:none;stroke-opacity:1"
         id="path176" /></g><g
       id="g182"
       transform="matrix(0.57522742,0,0,0.57522742,8.9278568,141.99696)"><g
         id="g184"
         clip-path="url(#clipPath188)" /></g><g
       id="g192"
       transform="matrix(0.57522742,0,0,0.57522742,8.9278568,141.99696)"><path
         d="M 57.6,149.25026 H 54.1"
         style="fill:#000000;fill-opacity:1;fill-rule:nonzero;stroke:#000000;stroke-width:0.8;stroke-linecap:butt;stroke-linejoin:round;stroke-miterlimit:10;stroke-dasharray:none;stroke-opacity:1"
         id="path194" /></g><g
       id="g200"
       transform="matrix(0.57522742,0,0,0.57522742,8.9278568,141.99696)"><g
         id="g202"
         clip-path="url(#clipPath206)" /></g><g
       id="g210"
       transform="matrix(0.57522742,0,0,0.57522742,8.9278568,141.99696)"><path
         d="M 57.6,203.84074 H 54.1"
         style="fill:#000000;fill-opacity:1;fill-rule:nonzero;stroke:#000000;stroke-width:0.8;stroke-linecap:butt;stroke-linejoin:round;stroke-miterlimit:10;stroke-dasharray:none;stroke-opacity:1"
         id="path212" /></g><g
       id="g218"
       transform="matrix(0.57522742,0,0,0.57522742,8.9278568,141.99696)"><g
         id="g220"
         clip-path="url(#clipPath224)" /></g><g
       id="g228"
       transform="matrix(0.57522742,0,0,0.57522742,8.9278568,141.99696)"><path
         d="M 57.6,258.43122 H 54.1"
         style="fill:#000000;fill-opacity:1;fill-rule:nonzero;stroke:#000000;stroke-width:0.8;stroke-linecap:butt;stroke-linejoin:round;stroke-miterlimit:10;stroke-dasharray:none;stroke-opacity:1"
         id="path230" /></g><g
       id="g240"
       transform="matrix(0.57522742,0,0,0.57522742,8.9278568,141.99696)"><g
         id="g242"
         clip-path="url(#clipPath246)"><path
           d="m 57.6,288.02499 1.400471,-0.555 1.40047,-9.84669 1.400471,-8.42319 1.40047,-2.20961 1.400471,-3.94172 1.400471,-5.6623 1.40047,-4.43035 1.400471,-0.81392 1.40047,-2.05899 1.400471,-1.04354 1.40047,-3.54964 1.400471,-0.5057 1.400471,-1.45418 1.40047,-3.07818 1.400471,-4.36159 1.40047,-1.57016 1.400471,-4.07843 1.400471,-3.61494 1.40047,-1.18805 1.400471,-2.34823 1.40047,-1.70022 1.400471,-4.96631 1.400471,-2.26812 1.40047,-4.11845 1.400471,1.1201 1.40047,0.81347 1.400471,-1.52327 1.40047,1.6049 1.400471,2.35126 1.400471,-4.22725 1.400472,-0.16172 1.40047,0.68568 1.40047,0.64299 1.40047,-0.37377 1.40047,-6.36985 1.40047,-4.37674 1.40047,4.71595 1.40047,-1.3851 1.40047,1.9079 1.40047,-1.043 1.40047,-1.75542 1.40048,0.2079 1.40046,0.32858 1.40048,-3.83624 1.40047,5.07461 1.40047,-3.69178 1.40047,-0.77201 1.40047,1.42312 1.40047,0.85993 1.40047,-4.67673 1.40047,2.63298 1.40047,-1.2551 1.40047,0.52629 1.40047,1.69622 1.40047,-5.86505 1.40047,2.38654 1.40047,-1.80457 1.40047,-3.16771 1.40047,-1.82846 1.40048,2.95724 1.40047,2.41839 1.40047,-0.55275 1.40047,-2.51674 1.40047,-1.42011 1.40047,1.55601 1.40047,0.2499 1.40047,-3.0082 1.40047,0.55628 1.40047,-10.25188 1.40047,0.7183 1.40047,5.76922 1.40047,0.63953 1.40047,-3.09398 1.40047,1.16638 1.40047,-2.75585 1.40047,0.25009 1.40047,1.34012 1.40048,-8.13009 1.40047,2.23189"
           style="fill:none;stroke:#0000ff;stroke-width:1.5;stroke-linecap:square;stroke-linejoin:round;stroke-miterlimit:10;stroke-dasharray:none;stroke-opacity:1"
           id="path248" /></g></g><g
       id="g250"
       transform="matrix(0.57522742,0,0,0.57522742,8.9278568,141.99696)"><g
         id="g252"
         clip-path="url(#clipPath256)"><path
           d="m 57.6,284.05975 1.400471,-0.96092 1.40047,-9.0782 1.400471,-6.6709 1.40047,1.97018 1.400471,-0.52234 1.400471,-0.66531 1.40047,-1.49365 1.400471,1.35659 1.40047,-1.67965 1.400471,-2.16098 1.40047,-4.57772 1.400471,-0.0967 1.400471,0.33936 1.40047,-3.60619 1.400471,-4.16646 1.40047,-0.32709 1.400471,-1.70769 1.400471,-4.85204 1.40047,-2.60263 1.400471,-0.92564 1.40047,-2.16504 1.400471,-3.2824 1.400471,2.49562 1.40047,-4.02148 1.400471,4.74421 1.40047,0.0519 1.400471,-0.2522 1.40047,2.38275 1.400471,-3.8358 1.400471,-0.33386 1.400472,0.4956 1.40047,-0.004 1.40047,3.4912 1.40047,2.49101 1.40047,1.78251 1.40047,-0.0214 1.40047,-0.27542 1.40047,-2.77384 1.40047,-1.9913 1.40047,2.00156 1.40047,-6.38502 1.40048,1.26827 1.40046,-3.63169 1.40048,2.41457 1.40047,-0.56595 2.80094,-4.25515 1.40047,1.3089 1.40047,-6.09498 1.40047,3.13571 1.40047,2.15561 1.40047,-0.86257 1.40047,1.80835 1.40047,-0.68765 1.40047,-4.18415 1.40047,2.07269 1.40047,-0.98857 1.40047,-3.73557 1.40047,-3.23117 1.40048,1.2206 1.40047,3.39598 1.40047,-3.09867 1.40047,-3.67783 2.80094,2.97419 1.40047,-3.01314 1.40047,-2.67423 1.40047,-1.58198 1.40047,-3.8235 1.40047,-4.66815 1.40047,7.99336 1.40047,0.31889 1.40047,-0.10282 2.80094,2.23461 1.40047,-5.44053 1.40047,3.75098 1.40048,-3.83334 1.40047,0.34126 1.40047,3.21953 1.40047,-0.89813 1.40047,-3.57128 1.40047,0.89417 1.40047,-6.3538 1.40047,-2.72535 1.40047,4.97285 1.40047,-2.71101 1.40047,-3.54955 1.40047,1.60419 1.40047,2.89381 1.40047,-1.42937 1.40047,6.27593 1.40047,-7.16499 1.40047,4.00638 1.40048,-4.05001 1.40047,6.79958 1.40047,-0.4307 1.40047,-5.14021 1.40047,4.1139 1.40047,2.71922 1.40047,-4.24238 1.40047,-3.18259 1.40047,8.32595 1.40047,-2.37549 1.40047,-4.86075 1.40047,2.73292 1.40047,3.95859 1.40047,-2.35617 1.40047,2.96226 1.40047,1.20976 1.40048,3.60705 1.40047,-1.0191 1.40047,0.63569 1.40047,2.4078 1.40047,-3.77214 1.40047,-2.0584 1.40047,0.0935 1.40047,-0.30104 1.40047,-2.16774 1.40047,-3.05167 1.40047,2.86903 1.40047,-5.21527 1.40047,5.19467 1.40047,-2.04121 1.40047,1.32085 1.40047,-0.43129 1.40047,-4.65357 1.40048,1.92246 1.40047,-2.76392 1.40047,1.84235 1.40047,-2.48363 1.40047,5.14891 1.40047,-6.15761 1.40047,-4.59942 1.40047,7.76924 1.40047,-0.73377 1.40047,-2.63125 1.40047,2.72337 1.40047,-4.7006 1.40047,0.70507 1.40047,-3.08007 1.40047,1.00228 1.40047,6.23109 1.40047,-7.1991 2.80095,5.31622 1.40047,-3.04174 1.40047,-4.18355 1.40047,1.10175 1.40047,-1.75056 1.40047,-4.61236 1.40047,3.14142 1.40047,1.00584 1.40047,-3.07813 1.40047,5.29487 1.40047,-5.2206 1.40047,-1.34711 1.40047,3.74599 2.80094,-8.50196 1.40047,-0.27779 1.40047,2.8367 1.40048,-8.09485 1.40047,7.9955 1.40047,-3.97794 1.40047,3.11834 1.40047,-10.32383 1.40047,0.67872 1.40047,-1.97706 1.40047,0.73297 1.40047,9.77915 1.40047,-7.28615 1.40047,10.18832 1.40047,-6.56646 1.40047,-1.62714 1.40047,1.28777 1.40047,1.83798 1.40047,-0.18994 1.40047,4.2834 1.40048,-1.20265 1.40047,-0.55586 1.40047,-5.20644 1.40047,2.27957 1.40047,-3.6187 1.40047,3.42515 1.40047,1.86636 1.40047,2.10745 1.40047,-12.39552 1.40047,7.54773 1.40047,-6.8136 1.40047,3.68407 1.40047,-1.4723 1.40047,-2.01806 1.40047,-6.22746 1.40047,6.93291 1.40047,-8.94568 1.40048,6.4338 1.40047,-7.89846 1.40047,5.05773 1.40047,-2.04223 2.80094,-3.58219 1.40047,-0.18113 1.40047,4.80856 1.40047,-2.03687 1.40047,-1.34563 1.40047,3.75333 1.40047,-5.03266 1.40047,0.45686 1.40047,2.1188 1.40047,-3.88811 1.40047,3.37452 1.40047,-0.65918 1.40048,3.41991 1.40047,-2.82606 1.40047,-3.36034 1.40047,0.0119 1.40047,4.25385 1.40047,-1.68426 1.40047,-2.46797 1.40047,9.58968 1.40047,-8.07318 1.40047,-0.25513 1.40047,5.73049 1.40047,1.34308 1.40047,-9.10303 1.40047,-1.75573 1.40047,2.20385 1.40048,-1.10075 1.40046,-5.20043 1.40048,2.68795 1.40047,-6.30461 1.40047,2.49647 1.40047,0.55845 1.40047,-6.78883 1.40047,-6.20114 1.40047,0.23773 1.40047,4.70922 1.40047,-2.1378 1.40047,-4.59445 1.40047,-6.66709 1.40047,-0.43113 1.40047,2.40033 1.40047,-4.93811 1.40047,6.36301 1.40047,-4.43664 1.40047,2.48455 1.40048,-17.67026 1.40047,-3.60756 1.40047,2.14663 1.40047,-20.41512 1.40047,7.26478 2.80094,-28.808219 L 414.72,50.112 v 0"
           style="fill:none;stroke:#87ceeb;stroke-width:1.5;stroke-linecap:square;stroke-linejoin:round;stroke-miterlimit:10;stroke-dasharray:none;stroke-opacity:1"
           id="path258" /></g></g><g
       id="g260"
       transform="matrix(0.57522742,0,0,0.57522742,8.9278568,141.99696)"><g
         id="g262"
         clip-path="url(#clipPath266)"><path
           d="m 57.6,230.77027 1.400471,-2.76242 1.40047,11.66122 1.400471,8.41955 1.40047,9.85998 1.400471,4.84351 1.400471,4.57765 1.40047,2.1795 1.400471,3.52693 1.40047,2.88631 1.400471,3.00882 1.40047,7.4e-4 1.400471,3.62789 1.400471,2.48195 1.40047,0.0212 1.400471,-2.14675 1.40047,1.497 1.400471,-2.57735 1.400471,0.0691 1.40047,2.10569 1.400471,-0.39837 1.40047,0.95152 1.400471,-2.66339 1.400471,-1.4445 1.40047,0.79609 1.400471,6.29113 1.40047,1.49309 1.400471,0.55548 1.40047,1.24036 1.400471,0.42152 1.400471,-0.7932 1.400472,0.0155 1.40047,0.84113 1.40047,0.26785 1.40047,0.0909 1.40047,-3.07482 1.40047,-1.04808 1.40047,2.92646 1.40047,0.14354 1.40047,1.36903"
           style="fill:none;stroke:#7cfc00;stroke-width:1.5;stroke-linecap:square;stroke-linejoin:round;stroke-miterlimit:10;stroke-dasharray:none;stroke-opacity:1"
           id="path268" /></g></g><g
       id="g270"
       transform="matrix(0.57522742,0,0,0.57522742,8.9278568,141.99696)"><g
         id="g272"
         clip-path="url(#clipPath276)"><path
           d="m 57.6,242.83253 1.400471,-10.37815 1.40047,2.45699 1.400471,5.88261 1.40047,6.9408 1.400471,3.0697 1.400471,2.39126 1.40047,-0.97357 1.400471,1.5332 1.40047,0.1459 1.400471,1.06657 1.40047,-3.18402 1.400471,2.21703 1.400471,0.38645 1.40047,-2.9506 1.400471,-4.54104 1.40047,1.11113 1.400471,-2.64105 1.400471,-2.37055 1.40047,0.28797 1.400471,-2.15186 1.40047,0.12831 1.400471,-3.23652 1.400471,-3.71335 1.40047,0.49746 1.400471,6.15181 1.40047,4.64732 1.400471,0.82893 1.40047,1.37666 1.400471,-0.44221 1.400471,-1.5428 1.400472,-0.0504 1.40047,-0.78937 1.40047,-0.85633 1.40047,0.21022 1.40047,-3.04229 1.40047,-2.04859 1.40047,4.33533 1.40047,2.98837 1.40047,2.75565"
           style="fill:none;stroke:#006400;stroke-width:1.5;stroke-linecap:square;stroke-linejoin:round;stroke-miterlimit:10;stroke-dasharray:none;stroke-opacity:1"
           id="path278" /></g></g><g
       id="g280"
       transform="matrix(0.57522742,0,0,0.57522742,8.9278568,141.99696)"><g
         id="g282"
         clip-path="url(#clipPath286)"><path
           d="m 57.6,291.58624 1.400471,-9.07222 1.40047,-5.35985 1.400471,0.55908 1.40047,0.25614 1.400471,-0.55652 1.400471,0.51305 1.40047,1.92061 1.400471,-1.0438 1.40047,-0.0375 1.400471,-0.89188 1.40047,-1.84871 1.400471,-4.43049 1.400471,-0.536 1.40047,-2.92395 1.400471,-1.43543 1.40047,-3.80253 2.800942,-3.96669 1.40047,-5.76249 1.400471,-2.30382 1.40047,1.05557 1.400471,-0.74562 1.400471,3.78634 1.40047,1.47184 1.400471,8.34775 1.40047,1.47862 1.400471,-0.57137 2.800941,-4.68965 1.400471,0.74568 1.400472,-3.83938 1.40047,-0.52449 1.40047,-2.68813 1.40047,-3.14011 1.40047,4.6805 1.40047,-2.06086 1.40047,-7.03227 1.40047,0.37475 1.40047,-1.14588 1.40047,1.55122 1.40047,-3.90827 1.40048,-2.30392 1.40046,0.29229 1.40048,0.73087 1.40047,-0.60599 1.40047,-2.53342 1.40047,-4.58228 1.40047,5.83817 1.40047,-6.87876 1.40047,-0.16808 1.40047,-0.49724 1.40047,-6.2075 1.40047,4.67242 1.40047,0.21552 1.40047,-1.36865 1.40047,-1.68568 1.40047,5.34836 1.40047,0.0896 1.40047,2.31179 1.40048,-6.13199 1.40047,5.23803 1.40047,-2.24796 1.40047,0.53179 1.40047,-2.1948 1.40047,0.93433 1.40047,-4.40995 1.40047,0.28911 1.40047,-0.8381 1.40047,-0.22358 1.40047,9.19509 1.40047,-5.15043 1.40047,-4.41568 1.40047,0.76104 1.40047,2.21442 1.40047,-1.84603 1.40047,3.28662 1.40047,0.82997 1.40048,-4.77874 1.40047,-5.5844 1.40047,7.31918 1.40047,-0.88925 1.40047,4.36129 1.40047,-5.76463 1.40047,1.2153 1.40047,4.61134 1.40047,-3.43859 1.40047,1.92239 1.40047,1.24725 1.40047,-0.4784 1.40047,-4.23732 1.40047,6.29751 1.40047,-3.46342 1.40047,-5.86054 1.40047,3.44302 1.40048,-4.69295 1.40047,-1.1812 1.40047,7.90754 1.40047,-4.80313 1.40047,-3.15651 1.40047,2.41594 1.40047,0.83376 1.40047,1.87139 1.40047,6.27663 1.40047,-3.06993 1.40047,0.65042 1.40047,7.04189 1.40047,-1.26134 1.40047,-2.89882 1.40047,-3.67428 1.40047,-7.67393 1.40048,-2.53519 1.40047,-4.90078 1.40047,-4.2366 1.40047,7.41526 1.40047,-7.61161 1.40047,-3.62996 1.40047,-2.26089 1.40047,-3.76997 1.40047,-2.03214 1.40047,1.08562 1.40047,6.85895 1.40047,-8.67588 1.40047,11.83343 1.40047,-11.48273 1.40047,6.02644 1.40047,1.45443 1.40047,-7.30517 1.40048,4.84319 1.40047,-4.48353 1.40047,-3.05099 1.40047,5.99051 1.40047,-3.05959 1.40047,-6.8079 1.40047,1.52856 1.40047,-9.26834 1.40047,11.12125 1.40047,-12.1829 1.40047,6.10613 1.40047,-7.60658 1.40047,1.84488 1.40047,-3.31641 1.40047,3.71021 1.40047,-4.66052 1.40047,2.75877 1.40047,-0.19186 1.40048,-6.17722 1.40047,-1.36113 1.40047,2.30835 1.40047,5.19373 1.40047,-4.78065 1.40047,-6.97038 1.40047,7.80702 1.40047,-1.71308 1.40047,2.36548 1.40047,2.62677 1.40047,-3.54305 1.40047,-11.25571 1.40047,5.00745 1.40047,-3.3658 1.40047,-1.1775 1.40047,0.42111 1.40047,1.00632 1.40048,-8.94842 1.40047,11.33823 1.40047,-3.66832 1.40047,4.44292 1.40047,-3.85974 1.40047,-3.11228 1.40047,3.8113 1.40047,-5.61824 1.40047,-0.26826 1.40047,1.90819 1.40047,5.47629 1.40047,0.96495 1.40047,-1.47069 1.40047,-0.71167 1.40047,-0.92304 1.40047,-0.52609 1.40047,9.30793 1.40048,-4.15669 1.40047,1.00951 1.40047,-8.65882 1.40047,10.29055 1.40047,-1.09433 2.80094,-4.39487 1.40047,8.05706 1.40047,-3.82483 1.40047,0.15507 1.40047,-0.33073 1.40047,-5.23085 1.40047,3.5498 1.40047,0.18853 1.40047,-8.15044 1.40047,6.70385 1.40047,-6.50096 1.40048,8.11294 1.40047,-4.42546 1.40047,8.68518 1.40047,-15.68644 1.40047,8.19473 1.40047,0.8819 1.40047,3.4679 1.40047,-2.32751 1.40047,-7.83264 1.40047,9.04 1.40047,-3.84864 1.40047,7.17421 1.40047,-6.7678 1.40047,-1.97098 1.40047,9.23705 1.40047,4.71829 1.40047,0.81743 1.40048,9.15806 1.40047,-14.58741 1.40047,6.63658 1.40047,0.70918 1.40047,-0.84801 1.40047,-5.94721 1.40047,9.47989 1.40047,-9.48681 1.40047,11.90558 1.40047,-5.36096 1.40047,4.1176 1.40047,1.08877 1.40047,-6.60548 1.40047,5.18716 1.40047,5.88208 1.40048,3.86576 1.40046,7.25089 1.40048,-5.23214 1.40047,10.95912 1.40047,-9.0128 1.40047,1.16463 2.80094,-3.00375 1.40047,3.70551 1.40047,-8.53266 1.40047,-3.05007 1.40047,6.74602 1.40047,-4.947 1.40047,-5.52157 1.40047,-2.3451 1.40047,-3.67401 1.40047,-4.34251 1.40047,-5.54761 1.40047,-0.43561 1.40048,-1.95328 1.40047,1.73057 1.40047,-9.48548 1.40047,-2.70961 1.40047,3.58262 1.40047,2.35439 1.40047,-4.57504 1.40047,3.06127 v 0"
           style="fill:none;stroke:#ff0000;stroke-width:1.5;stroke-linecap:square;stroke-linejoin:round;stroke-miterlimit:10;stroke-dasharray:none;stroke-opacity:1"
           id="path288" /></g></g><path
       d="M 42.060956,163.86481 V 316.93973"
       style="fill:none;stroke:#000000;stroke-width:0.460181;stroke-linecap:square;stroke-linejoin:miter;stroke-miterlimit:10;stroke-dasharray:none;stroke-opacity:1"
       id="path292" /><path
       d="M 247.48617,163.86481 V 316.93973"
       style="fill:none;stroke:#000000;stroke-width:0.460181;stroke-linecap:square;stroke-linejoin:miter;stroke-miterlimit:10;stroke-dasharray:none;stroke-opacity:1"
       id="path294" /><path
       d="M 42.060956,163.86481 H 247.48617"
       style="fill:none;stroke:#000000;stroke-width:0.460181;stroke-linecap:square;stroke-linejoin:miter;stroke-miterlimit:10;stroke-dasharray:none;stroke-opacity:1"
       id="path296" /><path
       d="M 42.060956,316.93973 H 247.48617"
       style="fill:none;stroke:#000000;stroke-width:0.460181;stroke-linecap:square;stroke-linejoin:miter;stroke-miterlimit:10;stroke-dasharray:none;stroke-opacity:1"
       id="path298" /><path
       d="M 60.460307,208.99663 H 71.964896"
       style="fill:none;stroke:#0000ff;stroke-width:0.862842;stroke-linecap:square;stroke-linejoin:round;stroke-miterlimit:10;stroke-dasharray:none;stroke-opacity:1"
       id="path308" /><path
       d="M 60.460307,200.55696 H 71.964896"
       style="fill:none;stroke:#87ceeb;stroke-width:0.862842;stroke-linecap:square;stroke-linejoin:round;stroke-miterlimit:10;stroke-dasharray:none;stroke-opacity:1"
       id="path314" /><path
       d="M 60.460307,192.1173 H 71.964896"
       style="fill:none;stroke:#7cfc00;stroke-width:0.862842;stroke-linecap:square;stroke-linejoin:round;stroke-miterlimit:10;stroke-dasharray:none;stroke-opacity:1"
       id="path320" /><path
       d="M 60.460307,183.67763 H 71.964896"
       style="fill:none;stroke:#006400;stroke-width:0.862842;stroke-linecap:square;stroke-linejoin:round;stroke-miterlimit:10;stroke-dasharray:none;stroke-opacity:1"
       id="path326" /></g><g
     inkscape:groupmode="layer"
     id="layer1"
     inkscape:label="text"
     transform="translate(-28.023958,-17.206424)"><text
       style="font-variant:normal;font-weight:normal;font-size:7.66967px;font-family:'DejaVu Sans';-inkscape-font-specification:DejaVuSans;writing-mode:lr-tb;fill:#000000;fill-opacity:1;fill-rule:nonzero;stroke:none;stroke-width:0.766968"
       id="text336"
       x="102.08888"
       y="229.83359"><tspan
         x="102.08888 106.77508 109.92732 114.62885 119.49144 123.48734 126.18709 130.90395 134.0562 136.49516 142.43918 149.05812 153.93607 158.814 163.69191 168.56985 173.44778 175.88673 178.3257 183.20363 188.08154 192.52232 194.96129 197.54596 199.98494 205.23102 210.84523 216.19867 218.78336 221.22234 226.10027 228.53922 233.41713 238.29506"
         y="229.83359"
         sodipodi:role="line"
         id="tspan334"
         style="stroke-width:0.766968">Transfer GM12878, 25k / AUC: 0.617</tspan></text><text
       style="font-variant:normal;font-weight:normal;font-size:7.66969px;font-family:'DejaVu Sans';-inkscape-font-specification:DejaVuSans;writing-mode:lr-tb;fill:#000000;fill-opacity:1;fill-rule:nonzero;stroke:none;stroke-width:0.766969"
       id="text32"
       x="53.642548"
       y="253.50636"><tspan
         x="53.642548"
         y="253.50636"
         id="tspan30"
         style="stroke-width:0.766969">0</tspan></text><text
       style="font-variant:normal;font-weight:normal;font-size:7.66969px;font-family:'DejaVu Sans';-inkscape-font-specification:DejaVuSans;writing-mode:lr-tb;fill:#000000;fill-opacity:1;fill-rule:nonzero;stroke:none;stroke-width:0.766969"
       id="text50"
       x="96.6073"
       y="253.50636"><tspan
         x="96.6073"
         y="253.50636"
         id="tspan48"
         style="stroke-width:0.766969">1</tspan></text><text
       style="font-variant:normal;font-weight:normal;font-size:7.66969px;font-family:'DejaVu Sans';-inkscape-font-specification:DejaVuSans;writing-mode:lr-tb;fill:#000000;fill-opacity:1;fill-rule:nonzero;stroke:none;stroke-width:0.766969"
       id="text68"
       x="139.57205"
       y="253.50636"><tspan
         x="139.57205"
         y="253.50636"
         id="tspan66"
         style="stroke-width:0.766969">2</tspan></text><text
       style="font-variant:normal;font-weight:normal;font-size:7.66969px;font-family:'DejaVu Sans';-inkscape-font-specification:DejaVuSans;writing-mode:lr-tb;fill:#000000;fill-opacity:1;fill-rule:nonzero;stroke:none;stroke-width:0.766969"
       id="text86"
       x="182.53679"
       y="253.50636"><tspan
         x="182.53679"
         y="253.50636"
         id="tspan84"
         style="stroke-width:0.766969">3</tspan></text><text
       style="font-variant:normal;font-weight:normal;font-size:7.66969px;font-family:'DejaVu Sans';-inkscape-font-specification:DejaVuSans;writing-mode:lr-tb;fill:#000000;fill-opacity:1;fill-rule:nonzero;stroke:none;stroke-width:0.766969"
       id="text104"
       x="225.50156"
       y="253.50636"><tspan
         x="225.50156"
         y="253.50636"
         id="tspan102"
         style="stroke-width:0.766969">4</tspan></text><text
       style="font-variant:normal;font-weight:normal;font-size:7.66969px;font-family:'DejaVu Sans';-inkscape-font-specification:DejaVuSans;writing-mode:lr-tb;fill:#000000;fill-opacity:1;fill-rule:nonzero;stroke:none;stroke-width:0.766969"
       id="text122"
       x="268.46628"
       y="253.50636"><tspan
         x="268.46628"
         y="253.50636"
         id="tspan120"
         style="stroke-width:0.766969">5</tspan></text><text
       style="font-variant:normal;font-weight:normal;font-size:7.66969px;font-family:'DejaVu Sans';-inkscape-font-specification:DejaVuSans;writing-mode:lr-tb;fill:#000000;fill-opacity:1;fill-rule:nonzero;stroke:none;stroke-width:0.766969"
       id="text140"
       x="311.43106"
       y="253.50636"><tspan
         x="311.43106"
         y="253.50636"
         id="tspan138"
         style="stroke-width:0.766969">6</tspan></text><text
       style="font-variant:normal;font-weight:normal;font-size:7.66969px;font-family:'DejaVu Sans';-inkscape-font-specification:DejaVuSans;writing-mode:lr-tb;fill:#000000;fill-opacity:1;fill-rule:nonzero;stroke:none;stroke-width:0.766969"
       id="text144"
       x="146.61176"
       y="263.99255"><tspan
         x="146.61176 152.55577 157.27264 162.13524 166.82909 174.29938 176.43155 180.64987 183.08884 187.95909 190.09129 194.08719 197.09372 201.79524 206.65784 210.87616 215.59303 218.032 220.61668 223.05565 229.67461 234.54486"
         y="263.99255"
         sodipodi:role="line"
         id="tspan142"
         style="stroke-width:0.766969">Genomic distance / Mbp</tspan></text><text
       style="font-variant:normal;font-weight:normal;font-size:7.66969px;font-family:'DejaVu Sans';-inkscape-font-specification:DejaVuSans;writing-mode:lr-tb;fill:#000000;fill-opacity:1;fill-rule:nonzero;stroke:none;stroke-width:0.766969"
       id="text162"
       x="38.512871"
       y="243.65067"><tspan
         x="38.512871 43.3908 45.829762"
         y="243.65067"
         sodipodi:role="line"
         id="tspan160"
         style="stroke-width:0.766969">0.0</tspan></text><text
       style="font-variant:normal;font-weight:normal;font-size:7.66969px;font-family:'DejaVu Sans';-inkscape-font-specification:DejaVuSans;writing-mode:lr-tb;fill:#000000;fill-opacity:1;fill-rule:nonzero;stroke:none;stroke-width:0.766969"
       id="text180"
       x="38.512871"
       y="201.78142"><tspan
         x="38.512871 43.3908 45.829762"
         y="201.78142"
         sodipodi:role="line"
         id="tspan178"
         style="stroke-width:0.766969">0.2</tspan></text><text
       style="font-variant:normal;font-weight:normal;font-size:7.66969px;font-family:'DejaVu Sans';-inkscape-font-specification:DejaVuSans;writing-mode:lr-tb;fill:#000000;fill-opacity:1;fill-rule:nonzero;stroke:none;stroke-width:0.766969"
       id="text198"
       x="38.512871"
       y="159.91217"><tspan
         x="38.512871 43.3908 45.829762"
         y="159.91217"
         sodipodi:role="line"
         id="tspan196"
         style="stroke-width:0.766969">0.4</tspan></text><text
       style="font-variant:normal;font-weight:normal;font-size:7.66969px;font-family:'DejaVu Sans';-inkscape-font-specification:DejaVuSans;writing-mode:lr-tb;fill:#000000;fill-opacity:1;fill-rule:nonzero;stroke:none;stroke-width:0.766969"
       id="text216"
       x="38.512871"
       y="118.04306"><tspan
         x="38.512871 43.3908 45.829762"
         y="118.04306"
         sodipodi:role="line"
         id="tspan214"
         style="stroke-width:0.766969">0.6</tspan></text><text
       style="font-variant:normal;font-weight:normal;font-size:7.66969px;font-family:'DejaVu Sans';-inkscape-font-specification:DejaVuSans;writing-mode:lr-tb;fill:#000000;fill-opacity:1;fill-rule:nonzero;stroke:none;stroke-width:0.766969"
       id="text234"
       x="38.512871"
       y="76.17379"><tspan
         x="38.512871 43.3908 45.829762"
         y="76.17379"
         sodipodi:role="line"
         id="tspan232"
         style="stroke-width:0.766969">0.8</tspan></text><text
       transform="rotate(-90)"
       style="font-variant:normal;font-weight:normal;font-size:7.66969px;font-family:'DejaVu Sans';-inkscape-font-specification:DejaVuSans;writing-mode:lr-tb;fill:#000000;fill-opacity:1;fill-rule:nonzero;stroke:none;stroke-width:0.766969"
       id="text238"
       x="-177.31769"
       y="33.851131"><tspan
         x="-177.31769 -172.69287 -167.97601 -163.27448 -160.12222 -156.12633 -151.43246 -146.56987 -144.13091 -139.91258 -135.21872 -132.06648 -128.91423 -124.19751 -122.0653 -117.36382 -114.3573 -112.22511 -107.53125"
         y="33.851131"
         sodipodi:role="line"
         id="tspan236"
         style="stroke-width:0.766969">Pearson correlation</tspan></text><text
       style="font-variant:normal;font-weight:normal;font-size:9.20364px;font-family:'DejaVu Sans';-inkscape-font-specification:DejaVuSans;writing-mode:lr-tb;fill:#000000;fill-opacity:1;fill-rule:nonzero;stroke:none;stroke-width:0.766969"
       id="text302"
       x="98.31662"
       y="23.296049"><tspan
         x="98.31662 103.86642 109.52666 115.1685 118.95118 123.74628 129.37891 135.21402 138.14076 143.20276 148.8354 152.6181 156.40079 162.06104 164.61964 170.26147 173.86929 176.4279 182.06053 187.89563 190.8224 196.27095 201.06606 203.9928 206.91957 212.76387 218.42412 224.2592 229.89185 238.85619 241.41479 246.47681 249.40356 255.24786 257.80649 262.60156 266.20941 271.85123 277.68631 282.74835"
         y="23.296049"
         sodipodi:role="line"
         id="tspan300"
         style="stroke-width:0.766969">Pearson correlation vs. genomic distance</tspan></text><text
       style="font-variant:normal;font-weight:normal;font-size:9.20364px;font-family:'DejaVu Sans';-inkscape-font-specification:DejaVuSans;writing-mode:lr-tb;fill:#000000;fill-opacity:1;fill-rule:nonzero;stroke:none;stroke-width:0.766969"
       id="text306"
       x="155.13832"
       y="33.611771"><tspan
         x="155.13832 161.56244 167.39755 171.18025 176.81288 185.77724 191.40984 196.20494 201.83759 210.80191 216.46214 219.38892 225.24243"
         y="33.611771"
         sodipodi:role="line"
         id="tspan304"
         style="stroke-width:0.766969">Chromosome 14</tspan></text><text
       style="font-variant:normal;font-weight:normal;font-size:7.66967px;font-family:'DejaVu Sans';-inkscape-font-specification:DejaVuSans;writing-mode:lr-tb;fill:#000000;fill-opacity:1;fill-rule:nonzero;stroke:none;stroke-width:0.766968"
       id="text312"
       x="102.08888"
       y="184.82204"><tspan
         x="102.08888 107.99456 113.73148 119.46843 124.34635 129.22427 131.66325 134.10222 138.98015 143.85806 148.29883 150.73779 153.32249 155.76144 161.00752 166.62175 171.9752 174.55988 176.99884 181.87677 184.31573 189.19366 194.07158"
         y="184.82204"
         sodipodi:role="line"
         id="tspan310"
         style="stroke-width:0.766968">DNN80, 25k / AUC: 0.632</tspan></text><text
       style="font-variant:normal;font-weight:normal;font-size:7.66967px;font-family:'DejaVu Sans';-inkscape-font-specification:DejaVuSans;writing-mode:lr-tb;fill:#000000;fill-opacity:1;fill-rule:nonzero;stroke:none;stroke-width:0.766968"
       id="text318"
       x="102.08888"
       y="196.07495"><tspan
         sodipodi:role="line"
         id="tspan316"
         style="stroke-width:0.766968"
         x="102.08888"
         y="196.07495">Hi-cGAN256, 25k / AUC: 0.586</tspan></text><text
       style="font-variant:normal;font-weight:normal;font-size:7.66967px;font-family:'DejaVu Sans';-inkscape-font-specification:DejaVuSans;writing-mode:lr-tb;fill:#000000;fill-opacity:1;fill-rule:nonzero;stroke:none;stroke-width:0.766968"
       id="text324"
       x="102.08888"
       y="207.32782"><tspan
         x="102.08888 108.70785 114.32207 118.59408 123.28027 125.54283 130.89629 135.74353 140.01556 144.28757 146.72655 149.1655 154.04344 156.81219 161.68245 166.38399 171.25424 176.1245 180.84134 185.71161 188.15057 190.58955 195.46748 200.3454 204.78615 207.22513 209.80981 212.24879 217.49486 223.10907 228.46252 231.0472 233.48618 238.36409 240.80305 245.68102 250.55891"
         y="207.32782"
         sodipodi:role="line"
         id="tspan322"
         style="stroke-width:0.766968">MULTICELL, 0-padded, 25k / AUC: 0.876</tspan></text><text
       style="font-variant:normal;font-weight:normal;font-size:7.66967px;font-family:'DejaVu Sans';-inkscape-font-specification:DejaVuSans;writing-mode:lr-tb;fill:#000000;fill-opacity:1;fill-rule:nonzero;stroke:none;stroke-width:0.766968"
       id="text330"
       x="102.08888"
       y="218.5807"><tspan
         x="102.08888 109.67422 111.93679 117.67371 123.57939 129.61545 137.20079 139.63974 142.0787 146.95663 149.7254 154.59566 159.29718 164.16745 169.03769 173.75456 178.62482 181.06378 183.50275 188.38068 193.25861 197.69937 200.13834 202.72302 205.16197 210.40807 216.02228 221.37572 223.96042 226.39937 231.27731 233.71626 238.59418 243.47211"
         y="218.5807"
         sodipodi:role="line"
         id="tspan328"
         style="stroke-width:0.766968">WINDOW, 0-padded, 25k / AUC: 0.752</tspan></text></g></svg>
