<?xml version="1.0" encoding="UTF-8" standalone="no"?>
<svg
   xmlns:dc="http://purl.org/dc/elements/1.1/"
   xmlns:cc="http://creativecommons.org/ns#"
   xmlns:rdf="http://www.w3.org/1999/02/22-rdf-syntax-ns#"
   xmlns:svg="http://www.w3.org/2000/svg"
   xmlns="http://www.w3.org/2000/svg"
   xmlns:sodipodi="http://sodipodi.sourceforge.net/DTD/sodipodi-0.dtd"
   xmlns:inkscape="http://www.inkscape.org/namespaces/inkscape"
   version="1.1"
   id="svg2"
   xml:space="preserve"
   width="80mm"
   height="65.300003mm"
   viewBox="0 0 302.36219 246.80316"
   sodipodi:docname="pearson_chr10.svg"
   inkscape:version="1.0.2 (1.0.2+r75+1)"><metadata
     id="metadata8"><rdf:RDF><cc:Work
         rdf:about=""><dc:format>image/svg+xml</dc:format><dc:type
           rdf:resource="http://purl.org/dc/dcmitype/StillImage" /><dc:title /></cc:Work></rdf:RDF></metadata><defs
     id="defs6"><clipPath
       clipPathUnits="userSpaceOnUse"
       id="clipPath22"><path
         d="M 57.6,38.016 H 414.72 V 304.128 H 57.6 Z"
         id="path20" /></clipPath><clipPath
       clipPathUnits="userSpaceOnUse"
       id="clipPath40"><path
         d="M 57.6,38.016 H 414.72 V 304.128 H 57.6 Z"
         id="path38" /></clipPath><clipPath
       clipPathUnits="userSpaceOnUse"
       id="clipPath58"><path
         d="M 57.6,38.016 H 414.72 V 304.128 H 57.6 Z"
         id="path56" /></clipPath><clipPath
       clipPathUnits="userSpaceOnUse"
       id="clipPath76"><path
         d="M 57.6,38.016 H 414.72 V 304.128 H 57.6 Z"
         id="path74" /></clipPath><clipPath
       clipPathUnits="userSpaceOnUse"
       id="clipPath94"><path
         d="M 57.6,38.016 H 414.72 V 304.128 H 57.6 Z"
         id="path92" /></clipPath><clipPath
       clipPathUnits="userSpaceOnUse"
       id="clipPath112"><path
         d="M 57.6,38.016 H 414.72 V 304.128 H 57.6 Z"
         id="path110" /></clipPath><clipPath
       clipPathUnits="userSpaceOnUse"
       id="clipPath130"><path
         d="M 57.6,38.016 H 414.72 V 304.128 H 57.6 Z"
         id="path128" /></clipPath><clipPath
       clipPathUnits="userSpaceOnUse"
       id="clipPath148"><path
         d="M 57.6,38.016 H 414.72 V 304.128 H 57.6 Z"
         id="path146" /></clipPath><clipPath
       clipPathUnits="userSpaceOnUse"
       id="clipPath170"><path
         d="M 57.6,38.016 H 414.72 V 304.128 H 57.6 Z"
         id="path168" /></clipPath><clipPath
       clipPathUnits="userSpaceOnUse"
       id="clipPath188"><path
         d="M 57.6,38.016 H 414.72 V 304.128 H 57.6 Z"
         id="path186" /></clipPath><clipPath
       clipPathUnits="userSpaceOnUse"
       id="clipPath206"><path
         d="M 57.6,38.016 H 414.72 V 304.128 H 57.6 Z"
         id="path204" /></clipPath><clipPath
       clipPathUnits="userSpaceOnUse"
       id="clipPath224"><path
         d="M 57.6,38.016 H 414.72 V 304.128 H 57.6 Z"
         id="path222" /></clipPath><clipPath
       clipPathUnits="userSpaceOnUse"
       id="clipPath242"><path
         d="M 57.6,38.016 H 414.72 V 304.128 H 57.6 Z"
         id="path240" /></clipPath><clipPath
       clipPathUnits="userSpaceOnUse"
       id="clipPath260"><path
         d="M 57.6,38.016 H 414.72 V 304.128 H 57.6 Z"
         id="path258" /></clipPath><clipPath
       clipPathUnits="userSpaceOnUse"
       id="clipPath282"><path
         d="M 57.6,38.016 H 414.72 V 304.128 H 57.6 Z"
         id="path280" /></clipPath><clipPath
       clipPathUnits="userSpaceOnUse"
       id="clipPath292"><path
         d="M 57.6,38.016 H 414.72 V 304.128 H 57.6 Z"
         id="path290" /></clipPath><clipPath
       clipPathUnits="userSpaceOnUse"
       id="clipPath302"><path
         d="M 57.6,38.016 H 414.72 V 304.128 H 57.6 Z"
         id="path300" /></clipPath><clipPath
       clipPathUnits="userSpaceOnUse"
       id="clipPath312"><path
         d="M 57.6,38.016 H 414.72 V 304.128 H 57.6 Z"
         id="path310" /></clipPath><clipPath
       clipPathUnits="userSpaceOnUse"
       id="clipPath322"><path
         d="M 57.6,38.016 H 414.72 V 304.128 H 57.6 Z"
         id="path320" /></clipPath></defs><sodipodi:namedview
     pagecolor="#ffffff"
     bordercolor="#666666"
     borderopacity="1"
     objecttolerance="10"
     gridtolerance="10"
     guidetolerance="10"
     inkscape:pageopacity="0"
     inkscape:pageshadow="2"
     inkscape:window-width="1920"
     inkscape:window-height="1020"
     id="namedview4"
     showgrid="false"
     fit-margin-top="0"
     fit-margin-left="0"
     fit-margin-right="0"
     fit-margin-bottom="0"
     units="mm"
     inkscape:zoom="1.8598091"
     inkscape:cx="147.19259"
     inkscape:cy="231.07201"
     inkscape:window-x="0"
     inkscape:window-y="0"
     inkscape:window-maximized="1"
     inkscape:current-layer="layer1"
     inkscape:document-rotation="0" /><g
     id="g10"
     inkscape:groupmode="layer"
     inkscape:label="pearson_chr10"
     transform="matrix(1.3333333,0,0,-1.3333333,-28.023958,443.59358)"><path
       d="m 42.065822,284.70149 2.60092,-4.20787 2.600921,-1.53736 2.60092,-1.10804 2.600921,0.30409 2.600921,0.91068 2.600921,-0.48181 2.60092,2.73627 2.60092,0.87416 2.60092,-0.0729 2.600919,-0.006 2.600923,0.06 2.600922,-1.66947 2.600917,0.12481 2.600923,-0.24853 2.600923,1.04174 2.600915,-1.22928 2.600924,-0.73745 2.600916,0.64122 2.600923,0.39418 2.600922,-0.89952 2.600918,-1.65829 2.600922,-2.14449 2.600927,-2.13511 2.60092,-0.25769 2.60091,-1.40555 2.60092,-0.55496 2.60093,0.70288 2.60092,-0.69734 2.60092,3.96842 2.60091,1.92675 2.60093,-1.24495 2.60091,-0.58254 2.60093,3.61377 2.60092,-1.56642 2.60092,-1.2735 2.60092,-1.5094 2.60092,2.3266 2.60092,0.14705 2.60092,1.20529 2.60092,-2.84576 2.60092,0.52557 2.60092,1.40299 2.60091,-2.87649 2.60093,-0.49591 2.60092,-1.54654 2.60093,1.64174 2.60091,2.17292 2.60092,-0.294 2.60093,2.66355 2.60092,-2.05699 2.60092,0.21682 2.60091,0.90047 2.60092,-1.20591 2.60092,-1.132 2.60093,2.42788 2.60092,-1.2175 2.60092,-0.83202 2.60093,-0.85284 2.60091,-2.25601 2.60093,-2.25113 2.60091,0.4313 2.60092,0.44741 2.60092,-1.68753 2.60092,-2.57226 2.60092,-2.01745 2.60092,-0.43705 2.60091,-1.15085 2.60094,-1.14259 2.60092,-0.18684 2.60092,-1.76009 2.60092,1.12595 2.60092,0.12016 2.60092,-1.82335 2.60091,0.59 2.60092,1.33186 2.60092,1.5641 2.60093,-2.25561 2.60091,0.58 2.60093,-4.13925"
       style="fill:none;stroke:#d62728;stroke-width:0.863041;stroke-linecap:square;stroke-linejoin:round;stroke-miterlimit:10;stroke-dasharray:none;stroke-opacity:1"
       id="path324" /><g
       id="g16"
       transform="matrix(0.57536043,0,0,0.57536043,8.9250613,141.98433)"><g
         id="g18"
         clip-path="url(#clipPath22)"><path
           d="M 57.6,38.016 V 304.128"
           style="fill:none;stroke:#b0b0b0;stroke-width:0.8;stroke-linecap:square;stroke-linejoin:round;stroke-miterlimit:10;stroke-dasharray:none;stroke-opacity:1"
           id="path24" /></g></g><path
       d="m 42.065822,163.85723 v -2.01375"
       style="fill:#000000;fill-opacity:1;fill-rule:nonzero;stroke:#000000;stroke-width:0.460288;stroke-linecap:butt;stroke-linejoin:round;stroke-miterlimit:10;stroke-dasharray:none;stroke-opacity:1"
       id="path28" /><g
       id="g34"
       transform="matrix(0.57536043,0,0,0.57536043,8.9250613,141.98433)"><g
         id="g36"
         clip-path="url(#clipPath40)"><path
           d="M 102.80506,38.016 V 304.128"
           style="fill:none;stroke:#b0b0b0;stroke-width:0.8;stroke-linecap:square;stroke-linejoin:round;stroke-miterlimit:10;stroke-dasharray:none;stroke-opacity:1"
           id="path42" /></g></g><path
       d="m 68.075025,163.85723 v -2.01375"
       style="fill:#000000;fill-opacity:1;fill-rule:nonzero;stroke:#000000;stroke-width:0.460288;stroke-linecap:butt;stroke-linejoin:round;stroke-miterlimit:10;stroke-dasharray:none;stroke-opacity:1"
       id="path46" /><g
       id="g52"
       transform="matrix(0.57536043,0,0,0.57536043,8.9250613,141.98433)"><g
         id="g54"
         clip-path="url(#clipPath58)"><path
           d="M 148.01013,38.016 V 304.128"
           style="fill:none;stroke:#b0b0b0;stroke-width:0.8;stroke-linecap:square;stroke-linejoin:round;stroke-miterlimit:10;stroke-dasharray:none;stroke-opacity:1"
           id="path60" /></g></g><path
       d="m 94.084233,163.85723 v -2.01375"
       style="fill:#000000;fill-opacity:1;fill-rule:nonzero;stroke:#000000;stroke-width:0.460288;stroke-linecap:butt;stroke-linejoin:round;stroke-miterlimit:10;stroke-dasharray:none;stroke-opacity:1"
       id="path64" /><g
       id="g70"
       transform="matrix(0.57536043,0,0,0.57536043,8.9250613,141.98433)"><g
         id="g72"
         clip-path="url(#clipPath76)"><path
           d="M 193.21519,38.016 V 304.128"
           style="fill:none;stroke:#b0b0b0;stroke-width:0.8;stroke-linecap:square;stroke-linejoin:round;stroke-miterlimit:10;stroke-dasharray:none;stroke-opacity:1"
           id="path78" /></g></g><path
       d="m 120.09343,163.85723 v -2.01375"
       style="fill:#000000;fill-opacity:1;fill-rule:nonzero;stroke:#000000;stroke-width:0.460288;stroke-linecap:butt;stroke-linejoin:round;stroke-miterlimit:10;stroke-dasharray:none;stroke-opacity:1"
       id="path82" /><g
       id="g88"
       transform="matrix(0.57536043,0,0,0.57536043,8.9250613,141.98433)"><g
         id="g90"
         clip-path="url(#clipPath94)"><path
           d="M 238.42025,38.016 V 304.128"
           style="fill:none;stroke:#b0b0b0;stroke-width:0.8;stroke-linecap:square;stroke-linejoin:round;stroke-miterlimit:10;stroke-dasharray:none;stroke-opacity:1"
           id="path96" /></g></g><path
       d="m 146.10264,163.85723 v -2.01375"
       style="fill:#000000;fill-opacity:1;fill-rule:nonzero;stroke:#000000;stroke-width:0.460288;stroke-linecap:butt;stroke-linejoin:round;stroke-miterlimit:10;stroke-dasharray:none;stroke-opacity:1"
       id="path100" /><g
       id="g106"
       transform="matrix(0.57536043,0,0,0.57536043,8.9250613,141.98433)"><g
         id="g108"
         clip-path="url(#clipPath112)"><path
           d="M 283.62532,38.016 V 304.128"
           style="fill:none;stroke:#b0b0b0;stroke-width:0.8;stroke-linecap:square;stroke-linejoin:round;stroke-miterlimit:10;stroke-dasharray:none;stroke-opacity:1"
           id="path114" /></g></g><path
       d="m 172.11185,163.85723 v -2.01375"
       style="fill:#000000;fill-opacity:1;fill-rule:nonzero;stroke:#000000;stroke-width:0.460288;stroke-linecap:butt;stroke-linejoin:round;stroke-miterlimit:10;stroke-dasharray:none;stroke-opacity:1"
       id="path118" /><g
       id="g124"
       transform="matrix(0.57536043,0,0,0.57536043,8.9250613,141.98433)"><g
         id="g126"
         clip-path="url(#clipPath130)"><path
           d="M 328.83038,38.016 V 304.128"
           style="fill:none;stroke:#b0b0b0;stroke-width:0.8;stroke-linecap:square;stroke-linejoin:round;stroke-miterlimit:10;stroke-dasharray:none;stroke-opacity:1"
           id="path132" /></g></g><path
       d="m 198.12106,163.85723 v -2.01375"
       style="fill:#000000;fill-opacity:1;fill-rule:nonzero;stroke:#000000;stroke-width:0.460288;stroke-linecap:butt;stroke-linejoin:round;stroke-miterlimit:10;stroke-dasharray:none;stroke-opacity:1"
       id="path136" /><g
       id="g142"
       transform="matrix(0.57536043,0,0,0.57536043,8.9250613,141.98433)"><g
         id="g144"
         clip-path="url(#clipPath148)"><path
           d="M 374.03544,38.016 V 304.128"
           style="fill:none;stroke:#b0b0b0;stroke-width:0.8;stroke-linecap:square;stroke-linejoin:round;stroke-miterlimit:10;stroke-dasharray:none;stroke-opacity:1"
           id="path150" /></g></g><path
       d="m 224.13026,163.85723 v -2.01375"
       style="fill:#000000;fill-opacity:1;fill-rule:nonzero;stroke:#000000;stroke-width:0.460288;stroke-linecap:butt;stroke-linejoin:round;stroke-miterlimit:10;stroke-dasharray:none;stroke-opacity:1"
       id="path154" /><g
       id="g164"
       transform="matrix(0.57536043,0,0,0.57536043,8.9250613,141.98433)"><g
         id="g166"
         clip-path="url(#clipPath170)"><path
           d="M 57.6,38.016 H 414.72"
           style="fill:none;stroke:#b0b0b0;stroke-width:0.8;stroke-linecap:square;stroke-linejoin:round;stroke-miterlimit:10;stroke-dasharray:none;stroke-opacity:1"
           id="path172" /></g></g><path
       d="M 42.065822,163.85723 H 40.052061"
       style="fill:#000000;fill-opacity:1;fill-rule:nonzero;stroke:#000000;stroke-width:0.460288;stroke-linecap:butt;stroke-linejoin:round;stroke-miterlimit:10;stroke-dasharray:none;stroke-opacity:1"
       id="path176" /><g
       id="g182"
       transform="matrix(0.57536043,0,0,0.57536043,8.9250613,141.98433)"><g
         id="g184"
         clip-path="url(#clipPath188)"><path
           d="M 57.6,91.2384 H 414.72"
           style="fill:none;stroke:#b0b0b0;stroke-width:0.8;stroke-linecap:square;stroke-linejoin:round;stroke-miterlimit:10;stroke-dasharray:none;stroke-opacity:1"
           id="path190" /></g></g><path
       d="M 42.065822,194.4793 H 40.052061"
       style="fill:#000000;fill-opacity:1;fill-rule:nonzero;stroke:#000000;stroke-width:0.460288;stroke-linecap:butt;stroke-linejoin:round;stroke-miterlimit:10;stroke-dasharray:none;stroke-opacity:1"
       id="path194" /><g
       id="g200"
       transform="matrix(0.57536043,0,0,0.57536043,8.9250613,141.98433)"><g
         id="g202"
         clip-path="url(#clipPath206)"><path
           d="M 57.6,144.4608 H 414.72"
           style="fill:none;stroke:#b0b0b0;stroke-width:0.8;stroke-linecap:square;stroke-linejoin:round;stroke-miterlimit:10;stroke-dasharray:none;stroke-opacity:1"
           id="path208" /></g></g><path
       d="M 42.065822,225.10136 H 40.052061"
       style="fill:#000000;fill-opacity:1;fill-rule:nonzero;stroke:#000000;stroke-width:0.460288;stroke-linecap:butt;stroke-linejoin:round;stroke-miterlimit:10;stroke-dasharray:none;stroke-opacity:1"
       id="path212" /><g
       id="g218"
       transform="matrix(0.57536043,0,0,0.57536043,8.9250613,141.98433)"><g
         id="g220"
         clip-path="url(#clipPath224)"><path
           d="M 57.6,197.6832 H 414.72"
           style="fill:none;stroke:#b0b0b0;stroke-width:0.8;stroke-linecap:square;stroke-linejoin:round;stroke-miterlimit:10;stroke-dasharray:none;stroke-opacity:1"
           id="path226" /></g></g><path
       d="M 42.065822,255.72343 H 40.052061"
       style="fill:#000000;fill-opacity:1;fill-rule:nonzero;stroke:#000000;stroke-width:0.460288;stroke-linecap:butt;stroke-linejoin:round;stroke-miterlimit:10;stroke-dasharray:none;stroke-opacity:1"
       id="path230" /><g
       id="g236"
       transform="matrix(0.57536043,0,0,0.57536043,8.9250613,141.98433)"><g
         id="g238"
         clip-path="url(#clipPath242)"><path
           d="M 57.6,250.9056 H 414.72"
           style="fill:none;stroke:#b0b0b0;stroke-width:0.8;stroke-linecap:square;stroke-linejoin:round;stroke-miterlimit:10;stroke-dasharray:none;stroke-opacity:1"
           id="path244" /></g></g><path
       d="M 42.065822,286.34549 H 40.052061"
       style="fill:#000000;fill-opacity:1;fill-rule:nonzero;stroke:#000000;stroke-width:0.460288;stroke-linecap:butt;stroke-linejoin:round;stroke-miterlimit:10;stroke-dasharray:none;stroke-opacity:1"
       id="path248" /><g
       id="g254"
       transform="matrix(0.57536043,0,0,0.57536043,8.9250613,141.98433)"><g
         id="g256"
         clip-path="url(#clipPath260)"><path
           d="M 57.6,304.128 H 414.72"
           style="fill:none;stroke:#b0b0b0;stroke-width:0.8;stroke-linecap:square;stroke-linejoin:round;stroke-miterlimit:10;stroke-dasharray:none;stroke-opacity:1"
           id="path262" /></g></g><path
       d="M 42.065822,316.96755 H 40.052061"
       style="fill:#000000;fill-opacity:1;fill-rule:nonzero;stroke:#000000;stroke-width:0.460288;stroke-linecap:butt;stroke-linejoin:round;stroke-miterlimit:10;stroke-dasharray:none;stroke-opacity:1"
       id="path266" /><g
       id="g276"
       transform="matrix(0.57536043,0,0,0.57536043,8.9250613,141.98433)"><g
         id="g278"
         clip-path="url(#clipPath282)"><path
           d="m 57.6,267.78144 4.520506,3.08583 4.520507,-8.78184 4.520506,-8.22137 4.520506,-5.44323 4.520507,-6.99361 4.520506,-2.88654 4.520506,-3.20894 4.520507,-4.11146 4.520506,-0.33549 4.520503,-3.95643 4.52051,-3.24784 4.52051,-2.55663 4.5205,-7.6761 4.52051,-2.16259 4.52051,-1.10793 4.5205,-2.24818 4.52051,1.78942 4.5205,-2.43465 4.52051,-4.34223 4.52051,-2.68521 4.5205,-1.04661 4.52051,-4.26758 4.52051,-1.72688 4.5205,3.70872 4.52051,-1.22595 4.5205,-1.69429 4.52051,0.0512 4.52051,-3.31202 4.5205,1.37751 4.52051,-3.78178 4.52051,-1.29678 4.5205,-0.65184 4.52051,-2.82848 4.5205,2.94476 4.52051,-0.0183 4.52051,1.49546 4.5205,-1.23406 4.52051,-1.39726 4.52051,-4.68874 4.5205,0.71315 4.52051,1.07332 4.52051,-4.1442 4.5205,1.24777 4.52051,1.99059 4.5205,-0.67603 4.52051,-1.53701 4.52051,-1.95403 4.5205,-4.65975 4.52051,0.20087 4.52051,2.27461 4.5205,3.72041 4.52051,-1.14611 4.5205,-1.35249 4.52051,-1.54983 4.52051,-0.81423 4.5205,-1.73483 4.52051,-5.83606 4.52051,3.59179 4.5205,-3.36092 4.52051,-1.47457 4.52051,-0.92776 4.5205,1.77956 4.52051,0.80767 4.5205,4.31727 4.52051,-4.20222 4.52051,-3.02019 4.5205,1.73718 4.52051,-2.23339 4.52051,2.602 4.5205,-6.45582 4.52051,-2.63217 4.52051,2.69656 4.5205,-10.07719 4.52051,-2.38169 m 9.04101,-39.44498 4.52051,26.81135 4.5205,-16.69075"
           style="fill:none;stroke:#1f77b4;stroke-width:1.5;stroke-linecap:square;stroke-linejoin:round;stroke-miterlimit:10;stroke-dasharray:none;stroke-opacity:1"
           id="path284" /></g></g><g
       id="g288"
       clip-path="url(#clipPath292)"
       transform="matrix(0.57536043,0,0,0.57536043,8.9250613,141.98433)"><path
         d="m 57.6,267.24975 4.520506,2.69182 4.520507,-8.72979 4.520506,-8.23084 4.520506,-5.44464 4.520507,-6.56489 4.520506,-2.52931 4.520506,-3.14873 4.520507,-4.03999 4.520506,-0.64474 4.520503,-3.92233 4.52051,-3.43931 4.52051,-2.15896 4.5205,-7.53046 4.52051,-2.15133 4.52051,-1.39159 4.5205,-2.86548 4.52051,1.1565 4.5205,-2.14209 4.52051,-4.08237 4.52051,-2.27888 4.5205,-0.93212 4.52051,-4.54783 4.52051,-1.7543 4.5205,2.27322 4.52051,-0.76233 4.5205,-2.00504 4.52051,0.15235 4.52051,-3.80548 4.5205,1.05895 4.52051,-3.48541 4.52051,-1.87142 4.5205,-0.91768 4.52051,-2.19803 4.5205,2.11472 4.52051,0.31254 4.52051,1.19803 4.5205,-0.71811 4.52051,-1.51925 4.52051,-4.67353 4.5205,0.59639 4.52051,1.33573 4.52051,-3.31822 4.5205,1.86204 4.52051,2.45264 4.5205,-0.35622 4.52051,-2.00739 4.52051,-0.3382 4.5205,-4.20747 4.52051,1.10336 4.52051,3.14053 4.5205,3.70016 4.52051,-1.27501 4.5205,0.88716 4.52051,-0.87711 4.52051,-0.87083 4.5205,-0.84192 4.52051,-4.39485 4.52051,2.16445 4.5205,-2.13533 4.52051,0.66014 4.52051,-0.38348 4.5205,1.06673 4.52051,1.99007 4.5205,2.22348 4.52051,-5.93235 4.52051,4.14669 4.5205,2.31992 4.52051,-4.24814 4.52051,4.37315 4.5205,-7.01542 4.52051,0.20209 4.52051,3.09661 4.5205,-5.14179 4.52051,-0.54002 4.5205,-72.119131 4.52051,58.582271 4.52051,-6.04046 4.5205,1.43398"
         style="fill:none;stroke:#ff7f0e;stroke-width:1.5;stroke-linecap:square;stroke-linejoin:round;stroke-miterlimit:10;stroke-dasharray:none;stroke-opacity:1"
         id="path294" /></g><g
       id="g296"
       transform="matrix(0.57536043,0,0,0.57536043,8.9250613,141.98433)"><g
         id="g298"
         clip-path="url(#clipPath302)"><path
           d="m 57.6,266.36817 4.520506,2.49576 4.520507,-8.45934 4.520506,-8.00991 4.520506,-5.14568 4.520507,-6.41117 4.520506,-3.01036 4.520506,-3.42644 4.520507,-3.91406 4.520506,-0.25767 4.520503,-3.25399 4.52051,-3.69927 4.52051,-2.46875 4.5205,-7.67255 4.52051,-1.96892 4.52051,-1.30389 4.5205,-3.25764 4.52051,0.52346 4.5205,-1.97955 4.52051,-4.07461 4.52051,-2.02774 4.5205,-1.20964 4.52051,-4.60555 4.52051,-2.0065 4.5205,1.98872 4.52051,-0.43884 4.5205,-2.21178 4.52051,0.13181 4.52051,-3.62478 4.5205,0.99029 4.52051,-3.43225 4.52051,-1.86852 4.5205,-1.17371 4.52051,-2.05379 4.5205,1.47664 4.52051,0.41499 4.52051,0.9488 4.5205,-0.64839 4.52051,-1.46822 4.52051,-4.97264 4.5205,0.94133 4.52051,1.71602 4.52051,-2.9089 4.5205,1.75618 4.52051,2.68691 4.5205,0.0639 4.52051,-2.74293 4.52051,-0.72365 4.5205,-3.76432 4.52051,0.87543 4.52051,3.9286 4.5205,2.48502 4.52051,-1.12515 4.5205,0.46548 4.52051,-0.54089 4.52051,-1.29952 4.5205,-1.0024 4.52051,-3.51576 4.52051,2.1341 4.5205,-0.50417 4.52051,1.26095 4.52051,-0.50231 4.5205,0.29427 4.52051,2.19352 4.5205,0.58729 4.52051,1.41033 4.52051,0.95483 4.5205,2.49302 4.52051,-3.34129 4.52051,0.2435 4.5205,-3.1026 4.52051,-1.99185 4.52051,5.17579 4.5205,-2.02 4.52051,-1.78906 4.5205,-9.15176 4.52051,5.57101 4.52051,-3.70508 4.5205,-18.51417 4.52051,11.92675"
           style="fill:none;stroke:#2ca02c;stroke-width:1.5;stroke-linecap:square;stroke-linejoin:round;stroke-miterlimit:10;stroke-dasharray:none;stroke-opacity:1"
           id="path304" /></g></g><path
       d="m 42.065822,295.47983 2.60092,1.42936 2.600921,-4.79897 2.60092,-4.88269 2.600921,-3.30162 2.600921,-4.01106 2.600921,-1.91411 2.60092,-2.25209 2.60092,-2.72869 2.60092,0.0372 2.600919,-2.67589 2.600923,-1.49561 2.600922,-1.34149 2.600917,-4.2445 2.600923,-1.45975 2.600923,-0.93216 2.600915,-1.4241 2.600924,0.92314 2.600916,-1.44157 2.600923,-1.8699 2.600922,-1.05284 2.600918,0.0327 2.600922,-2.01339 2.600927,-1.8729 2.60092,1.86363 2.60091,-1.26404 2.60092,-1.52447 2.60093,-0.41503 2.60092,-2.20478 2.60092,-0.33809 2.60091,-1.83999 2.60093,-0.35152 2.60091,-0.27824 2.60093,-1.63872 2.60092,1.35798 2.60092,0.0165 2.60092,0.70221 2.60092,-0.75046 2.60092,-0.64987 2.60092,-1.87579 2.60092,0.52204 2.60092,0.64132 2.60092,-2.31367 2.60091,1.10853 2.60093,0.98014 2.60092,-0.99014 2.60093,0.13064 2.60091,0.0798 2.60092,-2.06959 2.60093,0.59101 2.60092,2.44082 2.60092,1.83594 2.60091,-0.36983 2.60092,0.0724 2.60092,-1.00455 2.60093,-0.0294 2.60092,-1.71716 2.60092,-1.81402 2.60093,2.13883 2.60091,-1.3038 2.60093,0.90943 2.60091,-0.91678 2.60092,-0.25527 2.60092,2.05187 2.60092,2.1701 2.60092,-0.99861 2.60092,0.77947 2.60091,1.29768 2.60094,-2.47107 2.60092,1.48522 2.60092,-2.68565 2.60092,-1.31685 2.60092,2.77725 2.60092,-0.32143 2.60091,-1.69903 2.60092,-0.58617 2.60092,0.15518 2.60093,-3.40065 2.60091,-1.88438 2.60093,-0.0129"
       style="fill:none;stroke:#9467bd;stroke-width:0.863041;stroke-linecap:square;stroke-linejoin:round;stroke-miterlimit:10;stroke-dasharray:none;stroke-opacity:1"
       id="path314" /><path
       d="M 42.065822,163.85723 V 316.96755"
       style="fill:none;stroke:#000000;stroke-width:0.460288;stroke-linecap:square;stroke-linejoin:miter;stroke-miterlimit:10;stroke-dasharray:none;stroke-opacity:1"
       id="path328" /><path
       d="M 247.53854,163.85723 V 316.96755"
       style="fill:none;stroke:#000000;stroke-width:0.460288;stroke-linecap:square;stroke-linejoin:miter;stroke-miterlimit:10;stroke-dasharray:none;stroke-opacity:1"
       id="path330" /><path
       d="M 42.065822,163.85723 H 247.53854"
       style="fill:none;stroke:#000000;stroke-width:0.460288;stroke-linecap:square;stroke-linejoin:miter;stroke-miterlimit:10;stroke-dasharray:none;stroke-opacity:1"
       id="path332" /><path
       d="M 42.065822,316.96755 H 247.53854"
       style="fill:none;stroke:#000000;stroke-width:0.460288;stroke-linecap:square;stroke-linejoin:miter;stroke-miterlimit:10;stroke-dasharray:none;stroke-opacity:1"
       id="path334" /><path
       d="M 53.67093,206.54858 H 65.17814"
       style="fill:none;stroke:#1f77b4;stroke-width:0.863041;stroke-linecap:square;stroke-linejoin:round;stroke-miterlimit:10;stroke-dasharray:none;stroke-opacity:1"
       id="path344" /><path
       d="M 53.67093,198.10695 H 65.17814"
       style="fill:none;stroke:#ff7f0e;stroke-width:0.863041;stroke-linecap:square;stroke-linejoin:round;stroke-miterlimit:10;stroke-dasharray:none;stroke-opacity:1"
       id="path350" /><path
       d="M 53.67093,189.66534 H 65.17814"
       style="fill:none;stroke:#2ca02c;stroke-width:0.863041;stroke-linecap:square;stroke-linejoin:round;stroke-miterlimit:10;stroke-dasharray:none;stroke-opacity:1"
       id="path356" /><path
       d="M 53.67093,181.22372 H 65.17814"
       style="fill:none;stroke:#9467bd;stroke-width:0.863041;stroke-linecap:square;stroke-linejoin:round;stroke-miterlimit:10;stroke-dasharray:none;stroke-opacity:1"
       id="path362" /><path
       d="M 53.67093,172.78211 H 65.17814"
       style="fill:none;stroke:#d62728;stroke-width:0.863041;stroke-linecap:square;stroke-linejoin:round;stroke-miterlimit:10;stroke-dasharray:none;stroke-opacity:1"
       id="path368" /></g><g
     inkscape:groupmode="layer"
     id="layer1"
     inkscape:label="text"
     style="display:inline"
     transform="translate(-28.023958,-17.206424)"><text
       style="font-variant:normal;font-weight:normal;font-size:7.67147px;font-family:'DejaVu Sans';-inkscape-font-specification:DejaVuSans;writing-mode:lr-tb;fill:#000000;fill-opacity:1;fill-rule:nonzero;stroke:none;stroke-width:0.767147"
       id="text32"
       x="53.547256"
       y="253.51918"><tspan
         x="53.547256 58.426311 60.865837 65.744896"
         y="253.51918"
         sodipodi:role="line"
         id="tspan30"
         style="stroke-width:0.767147">0.00</tspan></text><text
       style="font-variant:normal;font-weight:normal;font-size:7.67147px;font-family:'DejaVu Sans';-inkscape-font-specification:DejaVuSans;writing-mode:lr-tb;fill:#000000;fill-opacity:1;fill-rule:nonzero;stroke:none;stroke-width:0.767147"
       id="text50"
       x="82.226189"
       y="253.51918"><tspan
         x="82.226189 87.105247 89.544777 94.423836"
         y="253.51918"
         sodipodi:role="line"
         id="tspan48"
         style="stroke-width:0.767147">0.25</tspan></text><text
       style="font-variant:normal;font-weight:normal;font-size:7.67147px;font-family:'DejaVu Sans';-inkscape-font-specification:DejaVuSans;writing-mode:lr-tb;fill:#000000;fill-opacity:1;fill-rule:nonzero;stroke:none;stroke-width:0.767147"
       id="text68"
       x="116.90513"
       y="253.51918"><tspan
         x="116.90513 121.78419 124.22372 129.10277"
         y="253.51918"
         sodipodi:role="line"
         id="tspan66"
         style="stroke-width:0.767147">0.50</tspan></text><text
       style="font-variant:normal;font-weight:normal;font-size:7.67147px;font-family:'DejaVu Sans';-inkscape-font-specification:DejaVuSans;writing-mode:lr-tb;fill:#000000;fill-opacity:1;fill-rule:nonzero;stroke:none;stroke-width:0.767147"
       id="text86"
       x="151.58408"
       y="253.51918"><tspan
         x="151.58408 156.46312 158.90266 163.78171"
         y="253.51918"
         sodipodi:role="line"
         id="tspan84"
         style="stroke-width:0.767147">0.75</tspan></text><text
       style="font-variant:normal;font-weight:normal;font-size:7.67147px;font-family:'DejaVu Sans';-inkscape-font-specification:DejaVuSans;writing-mode:lr-tb;fill:#000000;fill-opacity:1;fill-rule:nonzero;stroke:none;stroke-width:0.767147"
       id="text104"
       x="186.26302"
       y="253.51918"><tspan
         x="186.26302 191.14207 193.5816 198.46065"
         y="253.51918"
         sodipodi:role="line"
         id="tspan102"
         style="stroke-width:0.767147">1.00</tspan></text><text
       style="font-variant:normal;font-weight:normal;font-size:7.67147px;font-family:'DejaVu Sans';-inkscape-font-specification:DejaVuSans;writing-mode:lr-tb;fill:#000000;fill-opacity:1;fill-rule:nonzero;stroke:none;stroke-width:0.767147"
       id="text122"
       x="220.94194"
       y="253.51918"><tspan
         x="220.94194 225.82101 228.26053 233.13957"
         y="253.51918"
         sodipodi:role="line"
         id="tspan120"
         style="stroke-width:0.767147">1.25</tspan></text><text
       style="font-variant:normal;font-weight:normal;font-size:7.67147px;font-family:'DejaVu Sans';-inkscape-font-specification:DejaVuSans;writing-mode:lr-tb;fill:#000000;fill-opacity:1;fill-rule:nonzero;stroke:none;stroke-width:0.767147"
       id="text140"
       x="255.6209"
       y="253.51918"><tspan
         x="255.6209 260.49994 262.93948 267.81854"
         y="253.51918"
         sodipodi:role="line"
         id="tspan138"
         style="stroke-width:0.767147">1.50</tspan></text><text
       style="font-variant:normal;font-weight:normal;font-size:7.67147px;font-family:'DejaVu Sans';-inkscape-font-specification:DejaVuSans;writing-mode:lr-tb;fill:#000000;fill-opacity:1;fill-rule:nonzero;stroke:none;stroke-width:0.767147"
       id="text158"
       x="290.2998"
       y="253.51918"><tspan
         x="290.2998 295.17889 297.61841 302.49747"
         y="253.51918"
         sodipodi:role="line"
         id="tspan156"
         style="stroke-width:0.767147">1.75</tspan></text><text
       style="font-variant:normal;font-weight:normal;font-size:7.67147px;font-family:'DejaVu Sans';-inkscape-font-specification:DejaVuSans;writing-mode:lr-tb;fill:#000000;fill-opacity:1;fill-rule:nonzero;stroke:none;stroke-width:0.767147"
       id="text162"
       x="146.63919"
       y="264.00781"><tspan
         x="146.63919 152.58458 157.30252 162.16623 166.86119 174.33319 176.46587 180.68517 183.12471 187.99609 190.12875 194.1256 197.13281 201.83543 206.69914 210.91846 215.63641 218.07593 220.66121 223.10074 229.72122 234.59262"
         y="264.00781"
         sodipodi:role="line"
         id="tspan160"
         style="stroke-width:0.767147">Genomic distance / Mbp</tspan></text><text
       style="font-variant:normal;font-weight:normal;font-size:7.67147px;font-family:'DejaVu Sans';-inkscape-font-specification:DejaVuSans;writing-mode:lr-tb;fill:#000000;fill-opacity:1;fill-rule:nonzero;stroke:none;stroke-width:0.767147"
       id="text180"
       x="38.515293"
       y="245.23639"><tspan
         x="38.515293 43.394352 45.833878"
         y="245.23639"
         sodipodi:role="line"
         id="tspan178"
         style="stroke-width:0.767147">0.0</tspan></text><text
       style="font-variant:normal;font-weight:normal;font-size:7.67147px;font-family:'DejaVu Sans';-inkscape-font-specification:DejaVuSans;writing-mode:lr-tb;fill:#000000;fill-opacity:1;fill-rule:nonzero;stroke:none;stroke-width:0.767147"
       id="text198"
       x="38.515293"
       y="204.40698"><tspan
         x="38.515293 43.394352 45.833878"
         y="204.40698"
         sodipodi:role="line"
         id="tspan196"
         style="stroke-width:0.767147">0.2</tspan></text><text
       style="font-variant:normal;font-weight:normal;font-size:7.67147px;font-family:'DejaVu Sans';-inkscape-font-specification:DejaVuSans;writing-mode:lr-tb;fill:#000000;fill-opacity:1;fill-rule:nonzero;stroke:none;stroke-width:0.767147"
       id="text216"
       x="38.515293"
       y="163.57756"><tspan
         x="38.515293 43.394352 45.833878"
         y="163.57756"
         sodipodi:role="line"
         id="tspan214"
         style="stroke-width:0.767147">0.4</tspan></text><text
       style="font-variant:normal;font-weight:normal;font-size:7.67147px;font-family:'DejaVu Sans';-inkscape-font-specification:DejaVuSans;writing-mode:lr-tb;fill:#000000;fill-opacity:1;fill-rule:nonzero;stroke:none;stroke-width:0.767147"
       id="text234"
       x="38.515293"
       y="122.74818"><tspan
         x="38.515293 43.394352 45.833878"
         y="122.74818"
         sodipodi:role="line"
         id="tspan232"
         style="stroke-width:0.767147">0.6</tspan></text><text
       style="font-variant:normal;font-weight:normal;font-size:7.67147px;font-family:'DejaVu Sans';-inkscape-font-specification:DejaVuSans;writing-mode:lr-tb;fill:#000000;fill-opacity:1;fill-rule:nonzero;stroke:none;stroke-width:0.767147"
       id="text252"
       x="38.515293"
       y="81.918777"><tspan
         x="38.515293 43.394352 45.833878"
         y="81.918777"
         sodipodi:role="line"
         id="tspan250"
         style="stroke-width:0.767147">0.8</tspan></text><text
       style="font-variant:normal;font-weight:normal;font-size:7.67147px;font-family:'DejaVu Sans';-inkscape-font-specification:DejaVuSans;writing-mode:lr-tb;fill:#000000;fill-opacity:1;fill-rule:nonzero;stroke:none;stroke-width:0.767147"
       id="text270"
       x="38.515293"
       y="41.08939"><tspan
         x="38.515293 43.394352 45.833878"
         y="41.08939"
         sodipodi:role="line"
         id="tspan268"
         style="stroke-width:0.767147">1.0</tspan></text><text
       transform="rotate(-90)"
       style="font-variant:normal;font-weight:normal;font-size:7.67147px;font-family:'DejaVu Sans';-inkscape-font-specification:DejaVuSans;writing-mode:lr-tb;fill:#000000;fill-opacity:1;fill-rule:nonzero;stroke:none;stroke-width:0.767147"
       id="text274"
       x="-177.3129"
       y="33.852478"><tspan
         x="-177.3129 -172.687 -167.96902 -163.26642 -160.11345 -156.11661 -151.42166 -146.55795 -144.11844 -139.89912 -135.20418 -132.05119 -128.89822 -124.18029 -122.04765 -117.34503 -114.33782 -112.20515 -107.5102"
         y="33.852478"
         sodipodi:role="line"
         id="tspan272"
         style="stroke-width:0.767147">Pearson correlation</tspan></text><text
       style="font-variant:normal;font-weight:normal;font-size:9.20577px;font-family:'DejaVu Sans';-inkscape-font-specification:DejaVuSans;writing-mode:lr-tb;fill:#000000;fill-opacity:1;fill-rule:nonzero;stroke:none;stroke-width:0.767147"
       id="text338"
       x="98.332886"
       y="23.255619"><tspan
         x="98.332886 103.88395 109.54551 115.18864 118.9722 123.76841 129.40234 135.2388 138.16623 143.2294 148.86334 152.64691 156.43047 162.09203 164.65121 170.29437 173.90303 176.46222 182.09615 187.9326 190.86005 196.30986 201.10608 204.03348 206.96094 212.80661 218.46815 224.30458 229.93852 238.90494 241.46413 246.52731 249.45476 255.3004 257.85962 262.65579 266.2645 271.90759 277.74405 282.80725"
         y="23.255619"
         sodipodi:role="line"
         id="tspan336"
         style="stroke-width:0.767147">Pearson correlation vs. genomic distance</tspan></text><text
       style="font-variant:normal;font-weight:normal;font-size:9.20577px;font-family:'DejaVu Sans';-inkscape-font-specification:DejaVuSans;writing-mode:lr-tb;fill:#000000;fill-opacity:1;fill-rule:nonzero;stroke:none;stroke-width:0.767147"
       id="text342"
       x="61.062996"
       y="33.573746"><tspan
         x="61.062996 68.197472 76.142044 81.99691 87.851776 93.706635 99.561516 105.41637 108.34382 111.27125 117.12611 120.05356 125.90842 128.83586 134.69072 137.61815 143.47304 146.40045 152.25534 155.18275 161.03761 166.8925 169.81992 175.67479 181.52965 184.45711 190.31197 196.16682 199.09427 204.94913 210.804 213.73143 219.58629 225.44118 228.36859 234.22348 240.07832 243.00578 248.86063 254.71553 257.64294 263.4978 269.35269 272.28015 277.91403 283.75049 286.67795 292.71695 298.57178 304.42667 310.28156 313.20895 316.13638 321.99124"
         y="33.573746"
         sodipodi:role="line"
         id="tspan340"
         style="stroke-width:0.767147">GM12878, 1,2,4,7,9,11,13,14,16,17,18,20,22 on K562, 10</tspan></text><text
       style="font-variant:normal;font-weight:normal;font-size:7.67147px;font-family:'DejaVu Sans';-inkscape-font-specification:DejaVuSans;writing-mode:lr-tb;fill:#000000;fill-opacity:1;fill-rule:nonzero;stroke:none;stroke-width:0.767147"
       id="text348"
       x="93.041344"
       y="188.08693"><tspan
         x="93.041344 99.316628 101.44929 106.32066 111.03863 114.19162 116.96101 119.09364 123.7886 128.65231 133.5237 138.24165 141.39464 143.83415 146.27368 151.15276 156.03178 160.91086 165.62881 170.50018 172.93973 175.52502 177.96454 183.21185 188.82733 194.18204 196.76733 199.20685 204.08594 206.52545 211.40448 216.28354"
         y="188.08693"
         sodipodi:role="line"
         id="tspan346"
         style="stroke-width:0.767147">wider-longer, 250ep / AUC: 0.557</tspan></text><text
       style="font-variant:normal;font-weight:normal;font-size:7.67147px;font-family:'DejaVu Sans';-inkscape-font-specification:DejaVuSans;writing-mode:lr-tb;fill:#000000;fill-opacity:1;fill-rule:nonzero;stroke:none;stroke-width:0.767147"
       id="text354"
       x="93.041344"
       y="199.34242"><tspan
         x="93.041344 99.316628 101.44929 106.32066 111.03863 114.19162 116.96101 119.09364 123.7886 128.65231 133.5237 138.24165 141.39464 143.83415 146.27368 151.15276 156.03178 160.91086 165.62881 170.50018 172.93973 175.52502 177.96454 183.21185 188.82733 194.18204 196.76733 199.20685 204.08594 206.52545 211.40448 216.28354"
         y="199.34242"
         sodipodi:role="line"
         id="tspan352"
         style="stroke-width:0.767147">wider-longer, 500ep / AUC: 0.569</tspan></text><text
       style="font-variant:normal;font-weight:normal;font-size:7.67147px;font-family:'DejaVu Sans';-inkscape-font-specification:DejaVuSans;writing-mode:lr-tb;fill:#000000;fill-opacity:1;fill-rule:nonzero;stroke:none;stroke-width:0.767147"
       id="text360"
       x="93.041344"
       y="210.59787"><tspan
         x="93.041344 99.316628 101.44929 106.32066 111.03863 114.19162 116.96101 119.09364 123.7886 128.65231 133.5237 138.24165 141.39464 143.83415 146.27368 151.15276 156.03178 160.91086 165.78989 170.50787 175.37927 177.81879 180.40408 182.8436 188.09088 193.70639 199.0611 201.64639 204.08594 208.96494 211.40448 216.28354 221.1626"
         y="210.59787"
         sodipodi:role="line"
         id="tspan358"
         style="stroke-width:0.767147">wider-longer, 1000ep / AUC: 0.577</tspan></text><text
       style="font-variant:normal;font-weight:normal;font-size:7.67147px;font-family:'DejaVu Sans';-inkscape-font-specification:DejaVuSans;writing-mode:lr-tb;fill:#000000;fill-opacity:1;fill-rule:nonzero;stroke:none;stroke-width:0.767147"
       id="text366"
       x="93.041344"
       y="221.85336"><tspan
         x="93.041344 95.174019 100.03774 102.17042 105.17762 107.31028 112.01289 114.14555 116.58511 119.02464 123.90368 128.78273 133.66179 138.37975 143.25113 145.69067 148.27596 150.71547 155.96275 161.57828 166.93298 169.51825 171.95776 176.83685 179.2764 184.15543 189.03448"
         y="221.85336"
         sodipodi:role="line"
         id="tspan364"
         style="stroke-width:0.767147">initial, 500ep / AUC: 0.575</tspan></text><text
       style="font-variant:normal;font-weight:normal;font-size:7.67147px;font-family:'DejaVu Sans';-inkscape-font-specification:DejaVuSans;writing-mode:lr-tb;fill:#000000;fill-opacity:1;fill-rule:nonzero;stroke:none;stroke-width:0.767147"
       id="text372"
       x="93.041344"
       y="233.10884"><tspan
         x="93.041344 96.048576 99.201546 103.90415 108.76788 112.76472 115.46507 120.18301 123.33601 125.77552 131.72089 138.34138 143.22046 148.0995 152.97856 157.85762 162.73669 165.17618 167.76147 170.20102 175.44827 181.06381 186.41852 189.00381 191.44333 196.32239 198.7619 203.64096 208.52002"
         y="233.10884"
         sodipodi:role="line"
         id="tspan370"
         style="stroke-width:0.767147">transfer GM12878 / AUC: 0.720</tspan></text></g></svg>
