<?xml version="1.0" encoding="UTF-8" standalone="no"?>
<svg
   xmlns:dc="http://purl.org/dc/elements/1.1/"
   xmlns:cc="http://creativecommons.org/ns#"
   xmlns:rdf="http://www.w3.org/1999/02/22-rdf-syntax-ns#"
   xmlns:svg="http://www.w3.org/2000/svg"
   xmlns="http://www.w3.org/2000/svg"
   xmlns:sodipodi="http://sodipodi.sourceforge.net/DTD/sodipodi-0.dtd"
   xmlns:inkscape="http://www.inkscape.org/namespaces/inkscape"
   version="1.1"
   id="svg2"
   xml:space="preserve"
   width="80mm"
   height="65.300003mm"
   viewBox="0 0 302.36219 246.80316"
   sodipodi:docname="pearson_chr21.svg"
   inkscape:version="1.0.2 (1.0.2+r75+1)"><metadata
     id="metadata8"><rdf:RDF><cc:Work
         rdf:about=""><dc:format>image/svg+xml</dc:format><dc:type
           rdf:resource="http://purl.org/dc/dcmitype/StillImage" /><dc:title></dc:title></cc:Work></rdf:RDF></metadata><defs
     id="defs6"><clipPath
       clipPathUnits="userSpaceOnUse"
       id="clipPath22"><path
         d="M 57.6,38.016 H 414.72 V 304.128 H 57.6 Z"
         id="path20" /></clipPath><clipPath
       clipPathUnits="userSpaceOnUse"
       id="clipPath40"><path
         d="M 57.6,38.016 H 414.72 V 304.128 H 57.6 Z"
         id="path38" /></clipPath><clipPath
       clipPathUnits="userSpaceOnUse"
       id="clipPath58"><path
         d="M 57.6,38.016 H 414.72 V 304.128 H 57.6 Z"
         id="path56" /></clipPath><clipPath
       clipPathUnits="userSpaceOnUse"
       id="clipPath76"><path
         d="M 57.6,38.016 H 414.72 V 304.128 H 57.6 Z"
         id="path74" /></clipPath><clipPath
       clipPathUnits="userSpaceOnUse"
       id="clipPath94"><path
         d="M 57.6,38.016 H 414.72 V 304.128 H 57.6 Z"
         id="path92" /></clipPath><clipPath
       clipPathUnits="userSpaceOnUse"
       id="clipPath112"><path
         d="M 57.6,38.016 H 414.72 V 304.128 H 57.6 Z"
         id="path110" /></clipPath><clipPath
       clipPathUnits="userSpaceOnUse"
       id="clipPath130"><path
         d="M 57.6,38.016 H 414.72 V 304.128 H 57.6 Z"
         id="path128" /></clipPath><clipPath
       clipPathUnits="userSpaceOnUse"
       id="clipPath148"><path
         d="M 57.6,38.016 H 414.72 V 304.128 H 57.6 Z"
         id="path146" /></clipPath><clipPath
       clipPathUnits="userSpaceOnUse"
       id="clipPath170"><path
         d="M 57.6,38.016 H 414.72 V 304.128 H 57.6 Z"
         id="path168" /></clipPath><clipPath
       clipPathUnits="userSpaceOnUse"
       id="clipPath188"><path
         d="M 57.6,38.016 H 414.72 V 304.128 H 57.6 Z"
         id="path186" /></clipPath><clipPath
       clipPathUnits="userSpaceOnUse"
       id="clipPath206"><path
         d="M 57.6,38.016 H 414.72 V 304.128 H 57.6 Z"
         id="path204" /></clipPath><clipPath
       clipPathUnits="userSpaceOnUse"
       id="clipPath224"><path
         d="M 57.6,38.016 H 414.72 V 304.128 H 57.6 Z"
         id="path222" /></clipPath><clipPath
       clipPathUnits="userSpaceOnUse"
       id="clipPath242"><path
         d="M 57.6,38.016 H 414.72 V 304.128 H 57.6 Z"
         id="path240" /></clipPath><clipPath
       clipPathUnits="userSpaceOnUse"
       id="clipPath260"><path
         d="M 57.6,38.016 H 414.72 V 304.128 H 57.6 Z"
         id="path258" /></clipPath><clipPath
       clipPathUnits="userSpaceOnUse"
       id="clipPath282"><path
         d="M 57.6,38.016 H 414.72 V 304.128 H 57.6 Z"
         id="path280" /></clipPath><clipPath
       clipPathUnits="userSpaceOnUse"
       id="clipPath292"><path
         d="M 57.6,38.016 H 414.72 V 304.128 H 57.6 Z"
         id="path290" /></clipPath><clipPath
       clipPathUnits="userSpaceOnUse"
       id="clipPath302"><path
         d="M 57.6,38.016 H 414.72 V 304.128 H 57.6 Z"
         id="path300" /></clipPath><clipPath
       clipPathUnits="userSpaceOnUse"
       id="clipPath312"><path
         d="M 57.6,38.016 H 414.72 V 304.128 H 57.6 Z"
         id="path310" /></clipPath><clipPath
       clipPathUnits="userSpaceOnUse"
       id="clipPath322"><path
         d="M 57.6,38.016 H 414.72 V 304.128 H 57.6 Z"
         id="path320" /></clipPath></defs><sodipodi:namedview
     pagecolor="#ffffff"
     bordercolor="#666666"
     borderopacity="1"
     objecttolerance="10"
     gridtolerance="10"
     guidetolerance="10"
     inkscape:pageopacity="0"
     inkscape:pageshadow="2"
     inkscape:window-width="1920"
     inkscape:window-height="1020"
     id="namedview4"
     showgrid="false"
     fit-margin-top="0"
     fit-margin-left="0"
     fit-margin-right="0"
     fit-margin-bottom="0"
     units="mm"
     inkscape:zoom="1.3150836"
     inkscape:cx="263.94597"
     inkscape:cy="234.73414"
     inkscape:window-x="0"
     inkscape:window-y="0"
     inkscape:window-maximized="1"
     inkscape:current-layer="layer1" /><g
     id="g10"
     inkscape:groupmode="layer"
     inkscape:label="pearson_chr21"
     transform="matrix(1.3333333,0,0,-1.3333333,-28.023958,443.59358)"><path
       d="m 42.069251,308.58514 2.601343,-4.5211 2.601345,-2.33335 2.601344,-0.87498 2.601344,-1.32689 2.601344,0.87062 2.601344,-0.48342 2.601344,-0.061 2.601345,0.17106 2.601344,-0.45251 2.601342,2.10204 2.601346,-2.1049 2.601346,1.20775 2.601341,-0.96935 2.601346,-1.18529 2.601346,1.16511 2.601341,-1.3933 2.601346,2.03443 2.60134,-0.49139 2.601347,-0.98868 2.601346,-2.34534 2.60134,-0.72169 2.601347,-1.59947 2.601348,-0.61641 2.60134,1.42548 2.60134,-0.15476 2.60135,1.18631 2.60134,-1.16861 2.60135,0.0411 2.60134,1.14556 2.60134,-0.49787 2.60135,-2.02812 2.60134,1.80947 2.60135,-0.11795 2.60134,-1.12751 2.60134,0.79404 2.60135,-2.13126 2.60134,0.13335 2.60135,2.33549 2.60134,-2.86394 2.60134,2.31716 2.60135,-1.62424 2.60135,1.93707 2.60134,2.20203 2.60134,2.02861 2.60134,-3.88887 2.60135,1.72258 2.60135,-0.75499 2.60134,1.21795 2.60134,-0.99926 2.60135,-3.43114 2.60134,2.43644 2.60135,-1.53014 2.60134,1.0884 2.60134,0.34211 2.60135,-0.8429 2.60134,-2.01763 2.60135,0.50894 2.60134,-1.7195 2.60134,-2.84548 2.60135,-1.11977 2.60134,0.5636 2.60134,0.36726 2.60135,-1.96501 2.60134,1.61122 2.60135,-3.61213 2.60134,-0.18613 2.60134,1.7352 2.60135,-2.72203 2.60135,-1.51957 2.60134,1.27062 2.60134,1.52835 2.60135,0.68171 2.60134,-0.19736 2.60135,-2.29189 2.60134,7.12603 2.60134,4.09423 2.60135,-8.22213 2.60134,-4.33772 2.60135,-3.8435"
       style="fill:none;stroke:#d62728;stroke-width:0.863181;stroke-linecap:square;stroke-linejoin:round;stroke-miterlimit:10;stroke-dasharray:none;stroke-opacity:1"
       id="path324" /><g
       id="g16"
       transform="matrix(0.57545415,0,0,0.57545415,8.9230916,141.97498)"><g
         id="g18"
         clip-path="url(#clipPath22)"><path
           d="M 57.6,38.016 V 304.128"
           style="fill:none;stroke:#b0b0b0;stroke-width:0.8;stroke-linecap:square;stroke-linejoin:round;stroke-miterlimit:10;stroke-dasharray:none;stroke-opacity:1"
           id="path24" /></g></g><path
       d="m 42.069251,163.85145 v -2.01409"
       style="fill:#000000;fill-opacity:1;fill-rule:nonzero;stroke:#000000;stroke-width:0.460363;stroke-linecap:butt;stroke-linejoin:round;stroke-miterlimit:10;stroke-dasharray:none;stroke-opacity:1"
       id="path28" /><g
       id="g34"
       transform="matrix(0.57545415,0,0,0.57545415,8.9230916,141.97498)"><g
         id="g36"
         clip-path="url(#clipPath40)"><path
           d="M 102.80506,38.016 V 304.128"
           style="fill:none;stroke:#b0b0b0;stroke-width:0.8;stroke-linecap:square;stroke-linejoin:round;stroke-miterlimit:10;stroke-dasharray:none;stroke-opacity:1"
           id="path42" /></g></g><path
       d="m 68.08269,163.85145 v -2.01409"
       style="fill:#000000;fill-opacity:1;fill-rule:nonzero;stroke:#000000;stroke-width:0.460363;stroke-linecap:butt;stroke-linejoin:round;stroke-miterlimit:10;stroke-dasharray:none;stroke-opacity:1"
       id="path46" /><g
       id="g52"
       transform="matrix(0.57545415,0,0,0.57545415,8.9230916,141.97498)"><g
         id="g54"
         clip-path="url(#clipPath58)"><path
           d="M 148.01013,38.016 V 304.128"
           style="fill:none;stroke:#b0b0b0;stroke-width:0.8;stroke-linecap:square;stroke-linejoin:round;stroke-miterlimit:10;stroke-dasharray:none;stroke-opacity:1"
           id="path60" /></g></g><path
       d="m 94.096135,163.85145 v -2.01409"
       style="fill:#000000;fill-opacity:1;fill-rule:nonzero;stroke:#000000;stroke-width:0.460363;stroke-linecap:butt;stroke-linejoin:round;stroke-miterlimit:10;stroke-dasharray:none;stroke-opacity:1"
       id="path64" /><g
       id="g70"
       transform="matrix(0.57545415,0,0,0.57545415,8.9230916,141.97498)"><g
         id="g72"
         clip-path="url(#clipPath76)"><path
           d="M 193.21519,38.016 V 304.128"
           style="fill:none;stroke:#b0b0b0;stroke-width:0.8;stroke-linecap:square;stroke-linejoin:round;stroke-miterlimit:10;stroke-dasharray:none;stroke-opacity:1"
           id="path78" /></g></g><path
       d="m 120.10957,163.85145 v -2.01409"
       style="fill:#000000;fill-opacity:1;fill-rule:nonzero;stroke:#000000;stroke-width:0.460363;stroke-linecap:butt;stroke-linejoin:round;stroke-miterlimit:10;stroke-dasharray:none;stroke-opacity:1"
       id="path82" /><g
       id="g88"
       transform="matrix(0.57545415,0,0,0.57545415,8.9230916,141.97498)"><g
         id="g90"
         clip-path="url(#clipPath94)"><path
           d="M 238.42025,38.016 V 304.128"
           style="fill:none;stroke:#b0b0b0;stroke-width:0.8;stroke-linecap:square;stroke-linejoin:round;stroke-miterlimit:10;stroke-dasharray:none;stroke-opacity:1"
           id="path96" /></g></g><path
       d="m 146.12301,163.85145 v -2.01409"
       style="fill:#000000;fill-opacity:1;fill-rule:nonzero;stroke:#000000;stroke-width:0.460363;stroke-linecap:butt;stroke-linejoin:round;stroke-miterlimit:10;stroke-dasharray:none;stroke-opacity:1"
       id="path100" /><g
       id="g106"
       transform="matrix(0.57545415,0,0,0.57545415,8.9230916,141.97498)"><g
         id="g108"
         clip-path="url(#clipPath112)"><path
           d="M 283.62532,38.016 V 304.128"
           style="fill:none;stroke:#b0b0b0;stroke-width:0.8;stroke-linecap:square;stroke-linejoin:round;stroke-miterlimit:10;stroke-dasharray:none;stroke-opacity:1"
           id="path114" /></g></g><path
       d="m 172.13646,163.85145 v -2.01409"
       style="fill:#000000;fill-opacity:1;fill-rule:nonzero;stroke:#000000;stroke-width:0.460363;stroke-linecap:butt;stroke-linejoin:round;stroke-miterlimit:10;stroke-dasharray:none;stroke-opacity:1"
       id="path118" /><g
       id="g124"
       transform="matrix(0.57545415,0,0,0.57545415,8.9230916,141.97498)"><g
         id="g126"
         clip-path="url(#clipPath130)"><path
           d="M 328.83038,38.016 V 304.128"
           style="fill:none;stroke:#b0b0b0;stroke-width:0.8;stroke-linecap:square;stroke-linejoin:round;stroke-miterlimit:10;stroke-dasharray:none;stroke-opacity:1"
           id="path132" /></g></g><path
       d="m 198.1499,163.85145 v -2.01409"
       style="fill:#000000;fill-opacity:1;fill-rule:nonzero;stroke:#000000;stroke-width:0.460363;stroke-linecap:butt;stroke-linejoin:round;stroke-miterlimit:10;stroke-dasharray:none;stroke-opacity:1"
       id="path136" /><g
       id="g142"
       transform="matrix(0.57545415,0,0,0.57545415,8.9230916,141.97498)"><g
         id="g144"
         clip-path="url(#clipPath148)"><path
           d="M 374.03544,38.016 V 304.128"
           style="fill:none;stroke:#b0b0b0;stroke-width:0.8;stroke-linecap:square;stroke-linejoin:round;stroke-miterlimit:10;stroke-dasharray:none;stroke-opacity:1"
           id="path150" /></g></g><path
       d="m 224.16334,163.85145 v -2.01409"
       style="fill:#000000;fill-opacity:1;fill-rule:nonzero;stroke:#000000;stroke-width:0.460363;stroke-linecap:butt;stroke-linejoin:round;stroke-miterlimit:10;stroke-dasharray:none;stroke-opacity:1"
       id="path154" /><g
       id="g164"
       transform="matrix(0.57545415,0,0,0.57545415,8.9230916,141.97498)"><g
         id="g166"
         clip-path="url(#clipPath170)"><path
           d="M 57.6,38.016 H 414.72"
           style="fill:none;stroke:#b0b0b0;stroke-width:0.8;stroke-linecap:square;stroke-linejoin:round;stroke-miterlimit:10;stroke-dasharray:none;stroke-opacity:1"
           id="path172" /></g></g><path
       d="m 42.069251,163.85145 h -2.01409"
       style="fill:#000000;fill-opacity:1;fill-rule:nonzero;stroke:#000000;stroke-width:0.460363;stroke-linecap:butt;stroke-linejoin:round;stroke-miterlimit:10;stroke-dasharray:none;stroke-opacity:1"
       id="path176" /><g
       id="g182"
       transform="matrix(0.57545415,0,0,0.57545415,8.9230916,141.97498)"><g
         id="g184"
         clip-path="url(#clipPath188)"><path
           d="M 57.6,91.2384 H 414.72"
           style="fill:none;stroke:#b0b0b0;stroke-width:0.8;stroke-linecap:square;stroke-linejoin:round;stroke-miterlimit:10;stroke-dasharray:none;stroke-opacity:1"
           id="path190" /></g></g><path
       d="m 42.069251,194.4785 h -2.01409"
       style="fill:#000000;fill-opacity:1;fill-rule:nonzero;stroke:#000000;stroke-width:0.460363;stroke-linecap:butt;stroke-linejoin:round;stroke-miterlimit:10;stroke-dasharray:none;stroke-opacity:1"
       id="path194" /><g
       id="g200"
       transform="matrix(0.57545415,0,0,0.57545415,8.9230916,141.97498)"><g
         id="g202"
         clip-path="url(#clipPath206)"><path
           d="M 57.6,144.4608 H 414.72"
           style="fill:none;stroke:#b0b0b0;stroke-width:0.8;stroke-linecap:square;stroke-linejoin:round;stroke-miterlimit:10;stroke-dasharray:none;stroke-opacity:1"
           id="path208" /></g></g><path
       d="m 42.069251,225.10555 h -2.01409"
       style="fill:#000000;fill-opacity:1;fill-rule:nonzero;stroke:#000000;stroke-width:0.460363;stroke-linecap:butt;stroke-linejoin:round;stroke-miterlimit:10;stroke-dasharray:none;stroke-opacity:1"
       id="path212" /><g
       id="g218"
       transform="matrix(0.57545415,0,0,0.57545415,8.9230916,141.97498)"><g
         id="g220"
         clip-path="url(#clipPath224)"><path
           d="M 57.6,197.6832 H 414.72"
           style="fill:none;stroke:#b0b0b0;stroke-width:0.8;stroke-linecap:square;stroke-linejoin:round;stroke-miterlimit:10;stroke-dasharray:none;stroke-opacity:1"
           id="path226" /></g></g><path
       d="m 42.069251,255.7326 h -2.01409"
       style="fill:#000000;fill-opacity:1;fill-rule:nonzero;stroke:#000000;stroke-width:0.460363;stroke-linecap:butt;stroke-linejoin:round;stroke-miterlimit:10;stroke-dasharray:none;stroke-opacity:1"
       id="path230" /><g
       id="g236"
       transform="matrix(0.57545415,0,0,0.57545415,8.9230916,141.97498)"><g
         id="g238"
         clip-path="url(#clipPath242)"><path
           d="M 57.6,250.9056 H 414.72"
           style="fill:none;stroke:#b0b0b0;stroke-width:0.8;stroke-linecap:square;stroke-linejoin:round;stroke-miterlimit:10;stroke-dasharray:none;stroke-opacity:1"
           id="path244" /></g></g><path
       d="m 42.069251,286.35965 h -2.01409"
       style="fill:#000000;fill-opacity:1;fill-rule:nonzero;stroke:#000000;stroke-width:0.460363;stroke-linecap:butt;stroke-linejoin:round;stroke-miterlimit:10;stroke-dasharray:none;stroke-opacity:1"
       id="path248" /><g
       id="g254"
       transform="matrix(0.57545415,0,0,0.57545415,8.9230916,141.97498)"><g
         id="g256"
         clip-path="url(#clipPath260)"><path
           d="M 57.6,304.128 H 414.72"
           style="fill:none;stroke:#b0b0b0;stroke-width:0.8;stroke-linecap:square;stroke-linejoin:round;stroke-miterlimit:10;stroke-dasharray:none;stroke-opacity:1"
           id="path262" /></g></g><path
       d="m 42.069251,316.9867 h -2.01409"
       style="fill:#000000;fill-opacity:1;fill-rule:nonzero;stroke:#000000;stroke-width:0.460363;stroke-linecap:butt;stroke-linejoin:round;stroke-miterlimit:10;stroke-dasharray:none;stroke-opacity:1"
       id="path266" /><g
       id="g276"
       transform="matrix(0.57545415,0,0,0.57545415,8.9230916,141.97498)"><g
         id="g278"
         clip-path="url(#clipPath282)"><path
           d="m 57.6,280.07591 4.520506,-1.54745 4.520507,-6.61251 4.520506,-7.13348 4.520506,-5.16747 4.520507,-6.96688 4.520506,-1.89609 4.520506,-7.457 4.520507,-3.54077 4.520506,4.46778 4.520503,-6.60521 4.52051,1.9522 4.52051,1.20508 4.5205,-1.02981 4.52051,-2.48875 4.52051,-2.95803 4.5205,-4.06603 4.52051,-4.24692 4.5205,-4.23652 4.52051,3.24246 4.52051,3.26952 4.5205,4.97698 4.52051,-0.37705 4.52051,-0.51762 4.5205,-6.41315 4.52051,-6.34074 4.5205,-4.44799 4.52051,-1.68971 4.52051,3.62247 4.5205,3.93117 4.52051,-0.71504 4.52051,-0.21107 4.5205,-2.76931 4.52051,-1.78234 4.5205,0.5213 4.52051,-0.99523 4.52051,-3.93394 4.5205,-3.37726 4.52051,-2.79174 4.52051,-1.15706 4.5205,-0.59191 4.52051,-8.51576 4.52051,-2.78471 4.5205,-8.85872 4.52051,-12.02677 4.5205,0.14866 4.52051,-0.38615 4.52051,-3.98474 4.5205,-4.79148 4.52051,4.41092 4.52051,1.24694 4.5205,-2.72048 4.52051,-4.22411 4.5205,8.49743 4.52051,3.97041 4.52051,-3.60279 4.5205,6.15285 4.52051,-6.70178 4.52051,3.15329 4.5205,-2.96155 4.52051,-0.85883 4.52051,0.50999 4.5205,-4.58311 4.52051,-1.77394 4.5205,0.90441 4.52051,-2.31832 4.52051,-0.76068 4.5205,8.80278 4.52051,-6.59686 4.52051,-4.98479 4.5205,4.20495 4.52051,-3.0559 4.52051,0.85 4.5205,-1.04247 4.52051,0.20458 4.5205,-115.086602 4.52051,33.761516 4.52051,51.179316 4.5205,-30.951451"
           style="fill:none;stroke:#1f77b4;stroke-width:1.5;stroke-linecap:square;stroke-linejoin:round;stroke-miterlimit:10;stroke-dasharray:none;stroke-opacity:1"
           id="path284" /></g></g><g
       id="g288"
       clip-path="url(#clipPath292)"
       transform="matrix(0.57545415,0,0,0.57545415,8.9230916,141.97498)"><path
         d="m 57.6,282.23447 4.520506,-1.50239 4.520507,-6.13809 4.520506,-7.29207 4.520506,-5.39993 4.520507,-7.24358 4.520506,-1.73949 4.520506,-7.76367 4.520507,-3.60995 4.520506,3.30381 4.520503,-6.99755 4.52051,1.4369 4.52051,1.3779 4.5205,-0.65798 4.52051,-2.94628 4.52051,-3.4352 4.5205,-4.52141 4.52051,-5.04516 4.5205,-4.95511 4.52051,3.4791 4.52051,3.389 4.5205,5.35924 4.52051,-0.48668 4.52051,0.0469 4.5205,-6.22894 4.52051,-5.95101 4.5205,-4.75482 4.52051,-2.19119 4.52051,3.68362 4.5205,3.86699 4.52051,-0.66763 4.52051,0.0412 4.5205,-3.8254 4.52051,-1.57012 4.5205,0.67059 4.52051,-0.22101 4.52051,-3.45093 4.5205,-3.28168 4.52051,-3.21303 4.52051,-1.43585 4.5205,-0.85478 4.52051,-8.41206 4.52051,-2.76965 4.5205,-9.12543 4.52051,-11.78891 4.5205,0.24481 4.52051,-0.80636 4.52051,-2.82331 4.5205,-4.55778 4.52051,3.80563 4.52051,1.5436 4.5205,-3.58402 4.52051,-3.18754 4.5205,7.17886 4.52051,4.40642 4.52051,0.17823 4.5205,3.68979 4.52051,-7.40665 4.52051,2.47503 4.5205,-2.76021 4.52051,0.76352 4.52051,0.65797 4.5205,-5.2265 4.52051,-0.53138 4.5205,3.98994 4.52051,-2.9753 4.52051,3.435 4.5205,3.49034 4.52051,-4.10978 4.52051,-5.69898 4.5205,2.70042 4.52051,-0.5704 4.52051,-2.38453 4.5205,4.53657 4.52051,1.80432 4.5205,-102.168745 4.52051,75.165665 4.52051,-0.78032 4.5205,9.56588"
         style="fill:none;stroke:#ff7f0e;stroke-width:1.5;stroke-linecap:square;stroke-linejoin:round;stroke-miterlimit:10;stroke-dasharray:none;stroke-opacity:1"
         id="path294" /></g><g
       id="g296"
       transform="matrix(0.57545415,0,0,0.57545415,8.9230916,141.97498)"><g
         id="g298"
         clip-path="url(#clipPath302)"><path
           d="m 57.6,282.40449 4.520506,-2.17782 4.520507,-5.73732 4.520506,-7.04574 4.520506,-5.24886 4.520507,-7.44549 4.520506,-1.53286 4.520506,-7.75792 4.520507,-3.40016 4.520506,3.3832 4.520503,-6.95477 4.52051,1.95815 4.52051,1.9856 4.5205,-0.85581 4.52051,-3.67559 4.52051,-3.26247 4.5205,-4.48188 4.52051,-4.82385 4.5205,-5.29329 4.52051,3.42885 4.52051,3.53573 4.5205,5.97737 4.52051,-0.36171 4.52051,0.49131 4.5205,-5.64254 4.52051,-6.16066 4.5205,-4.71866 4.52051,-2.53622 4.52051,3.9327 4.5205,3.64951 4.52051,-0.79017 4.52051,-0.0186 4.5205,-3.45505 4.52051,-1.3102 4.5205,0.57241 4.52051,0.0734 4.52051,-2.96474 4.5205,-3.38007 4.52051,-3.39139 4.52051,-1.7314 4.5205,-1.37959 4.52051,-7.77978 4.52051,-3.42382 4.5205,-9.06497 4.52051,-11.90055 4.5205,1.17711 4.52051,-1.51271 4.52051,-2.25126 4.5205,-4.81838 4.52051,3.69797 4.52051,1.24005 4.5205,-3.27026 4.52051,-4.00189 4.5205,7.85423 4.52051,4.10887 4.52051,0.91607 4.5205,3.08973 4.52051,-7.52651 4.52051,3.27294 4.5205,-4.12183 4.52051,2.18753 4.52051,-0.65566 4.5205,-3.85652 4.52051,-2.05044 4.5205,2.6421 4.52051,-2.81063 4.52051,2.61233 4.5205,4.26986 4.52051,-2.47007 4.52051,-9.75955 4.5205,3.48858 4.52051,3.36404 4.52051,-0.44756 4.5205,1.51283 4.52051,-1.2706 4.5205,-12.29441 4.52051,-13.13883 4.52051,9.52206 4.5205,-16.30133 4.52051,23.68169"
           style="fill:none;stroke:#2ca02c;stroke-width:1.5;stroke-linecap:square;stroke-linejoin:round;stroke-miterlimit:10;stroke-dasharray:none;stroke-opacity:1"
           id="path304" /></g></g><path
       d="m 42.069251,297.33933 2.601343,-1.07209 2.601345,-4.28033 2.601344,-3.74175 2.601344,-2.27991 2.601344,-3.7187 2.601344,0.0924 2.601344,-3.74389 2.601345,-1.91833 2.601344,1.86198 2.601342,-4.68775 2.601346,0.0366 2.601346,-0.33741 2.601341,-1.29085 2.601346,-1.12131 2.601346,-1.98692 2.601341,-2.48667 2.601346,-2.80998 2.60134,-2.47082 2.601347,2.00249 2.601346,2.20827 2.60134,4.29406 2.601347,0.16199 2.601348,-0.56655 2.60134,-2.5626 2.60134,-4.16657 2.60135,-2.27395 2.60134,-1.82055 2.60135,3.15449 2.60134,2.1963 2.60134,0.28431 2.60135,-0.76667 2.60134,-1.71851 2.60135,-1.15092 2.60134,0.55257 2.60134,-1.95857 2.60135,-1.31651 2.60134,-2.03995 2.60135,-1.1825 2.60134,-1.18294 2.60134,-0.80821 2.60135,-3.87381 2.60135,-1.55666 2.60134,-5.21569 2.60134,-6.49955 2.60134,0.15403 2.60135,-1.06055 2.60135,-1.36358 2.60134,-2.60955 2.60134,2.19647 2.60135,1.21518 2.60134,-1.33984 2.60135,0.33574 2.60134,3.58247 2.60134,2.55221 2.60135,0.75601 2.60134,2.70839 2.60135,-2.4089 2.60134,-0.34056 2.60134,-0.2759 2.60135,-0.92943 2.60134,-0.11727 2.60134,-2.52477 2.60135,-0.15291 2.60134,1.31187 2.60135,-1.20193 2.60134,2.10429 2.60134,0.0728 2.60135,1.43534 2.60135,-5.06832 2.60134,2.07349 2.60134,0.27441 2.60135,1.16419 2.60134,1.40007 2.60135,-0.41404 2.60134,-6.52357 2.60134,-7.07618 2.60135,10.11021 2.60134,-0.82833 2.60135,3.13072"
       style="fill:none;stroke:#9467bd;stroke-width:0.863181;stroke-linecap:square;stroke-linejoin:round;stroke-miterlimit:10;stroke-dasharray:none;stroke-opacity:1"
       id="path314" /><path
       d="M 42.069251,163.85145 V 316.9867"
       style="fill:none;stroke:#000000;stroke-width:0.460363;stroke-linecap:square;stroke-linejoin:miter;stroke-miterlimit:10;stroke-dasharray:none;stroke-opacity:1"
       id="path328" /><path
       d="M 247.57544,163.85145 V 316.9867"
       style="fill:none;stroke:#000000;stroke-width:0.460363;stroke-linecap:square;stroke-linejoin:miter;stroke-miterlimit:10;stroke-dasharray:none;stroke-opacity:1"
       id="path330" /><path
       d="M 42.069251,163.85145 H 247.57544"
       style="fill:none;stroke:#000000;stroke-width:0.460363;stroke-linecap:square;stroke-linejoin:miter;stroke-miterlimit:10;stroke-dasharray:none;stroke-opacity:1"
       id="path332" /><path
       d="M 42.069251,316.9867 H 247.57544"
       style="fill:none;stroke:#000000;stroke-width:0.460363;stroke-linecap:square;stroke-linejoin:miter;stroke-miterlimit:10;stroke-dasharray:none;stroke-opacity:1"
       id="path334" /><path
       d="m 53.590602,206.64377 h 11.50908"
       style="fill:none;stroke:#1f77b4;stroke-width:0.863181;stroke-linecap:square;stroke-linejoin:round;stroke-miterlimit:10;stroke-dasharray:none;stroke-opacity:1"
       id="path344" /><path
       d="m 53.590602,198.20078 h 11.50908"
       style="fill:none;stroke:#ff7f0e;stroke-width:0.863181;stroke-linecap:square;stroke-linejoin:round;stroke-miterlimit:10;stroke-dasharray:none;stroke-opacity:1"
       id="path350" /><path
       d="m 53.590602,189.75779 h 11.50908"
       style="fill:none;stroke:#2ca02c;stroke-width:0.863181;stroke-linecap:square;stroke-linejoin:round;stroke-miterlimit:10;stroke-dasharray:none;stroke-opacity:1"
       id="path356" /><path
       d="m 53.590602,181.31479 h 11.50908"
       style="fill:none;stroke:#9467bd;stroke-width:0.863181;stroke-linecap:square;stroke-linejoin:round;stroke-miterlimit:10;stroke-dasharray:none;stroke-opacity:1"
       id="path362" /><path
       d="m 53.590602,172.87181 h 11.50908"
       style="fill:none;stroke:#d62728;stroke-width:0.863181;stroke-linecap:square;stroke-linejoin:round;stroke-miterlimit:10;stroke-dasharray:none;stroke-opacity:1"
       id="path368" /></g><g
     inkscape:groupmode="layer"
     id="layer1"
     inkscape:label="text"
     style="display:inline"
     transform="translate(-28.023958,-17.206424)"><text
       style="font-variant:normal;font-weight:normal;font-size:7.67272px;font-family:'DejaVu Sans';-inkscape-font-specification:DejaVuSans;writing-mode:lr-tb;fill:#000000;fill-opacity:1;fill-rule:nonzero;stroke:none;stroke-width:0.767272"
       id="text32"
       x="47.550434"
       y="253.52863"><tspan
         x="47.550434 52.430286 54.870213 59.750065"
         y="253.52863"
         sodipodi:role="line"
         id="tspan30"
         style="stroke-width:0.767272">0.00</tspan></text><text
       style="font-variant:normal;font-weight:normal;font-size:7.67272px;font-family:'DejaVu Sans';-inkscape-font-specification:DejaVuSans;writing-mode:lr-tb;fill:#000000;fill-opacity:1;fill-rule:nonzero;stroke:none;stroke-width:0.767272"
       id="text50"
       x="82.235023"
       y="253.52863"><tspan
         x="82.235023 87.114876 89.554802 94.434647"
         y="253.52863"
         sodipodi:role="line"
         id="tspan48"
         style="stroke-width:0.767272">0.25</tspan></text><text
       style="font-variant:normal;font-weight:normal;font-size:7.67272px;font-family:'DejaVu Sans';-inkscape-font-specification:DejaVuSans;writing-mode:lr-tb;fill:#000000;fill-opacity:1;fill-rule:nonzero;stroke:none;stroke-width:0.767272"
       id="text68"
       x="116.9196"
       y="253.52863"><tspan
         x="116.9196 121.79945 124.23939 129.11923"
         y="253.52863"
         sodipodi:role="line"
         id="tspan66"
         style="stroke-width:0.767272">0.50</tspan></text><text
       style="font-variant:normal;font-weight:normal;font-size:7.67272px;font-family:'DejaVu Sans';-inkscape-font-specification:DejaVuSans;writing-mode:lr-tb;fill:#000000;fill-opacity:1;fill-rule:nonzero;stroke:none;stroke-width:0.767272"
       id="text86"
       x="151.6042"
       y="253.52863"><tspan
         x="151.6042 156.48405 158.92397 163.80382"
         y="253.52863"
         sodipodi:role="line"
         id="tspan84"
         style="stroke-width:0.767272">0.75</tspan></text><text
       style="font-variant:normal;font-weight:normal;font-size:7.67272px;font-family:'DejaVu Sans';-inkscape-font-specification:DejaVuSans;writing-mode:lr-tb;fill:#000000;fill-opacity:1;fill-rule:nonzero;stroke:none;stroke-width:0.767272"
       id="text104"
       x="186.28879"
       y="253.52863"><tspan
         x="186.28879 191.16864 193.60857 198.48842"
         y="253.52863"
         sodipodi:role="line"
         id="tspan102"
         style="stroke-width:0.767272">1.00</tspan></text><text
       style="font-variant:normal;font-weight:normal;font-size:7.67272px;font-family:'DejaVu Sans';-inkscape-font-specification:DejaVuSans;writing-mode:lr-tb;fill:#000000;fill-opacity:1;fill-rule:nonzero;stroke:none;stroke-width:0.767272"
       id="text122"
       x="220.97336"
       y="253.52863"><tspan
         x="220.97336 225.85323 228.29315 233.17299"
         y="253.52863"
         sodipodi:role="line"
         id="tspan120"
         style="stroke-width:0.767272">1.25</tspan></text><text
       style="font-variant:normal;font-weight:normal;font-size:7.67272px;font-family:'DejaVu Sans';-inkscape-font-specification:DejaVuSans;writing-mode:lr-tb;fill:#000000;fill-opacity:1;fill-rule:nonzero;stroke:none;stroke-width:0.767272"
       id="text140"
       x="255.65796"
       y="253.52863"><tspan
         x="255.65796 260.53781 262.97775 267.85757"
         y="253.52863"
         sodipodi:role="line"
         id="tspan138"
         style="stroke-width:0.767272">1.50</tspan></text><text
       style="font-variant:normal;font-weight:normal;font-size:7.67272px;font-family:'DejaVu Sans';-inkscape-font-specification:DejaVuSans;writing-mode:lr-tb;fill:#000000;fill-opacity:1;fill-rule:nonzero;stroke:none;stroke-width:0.767272"
       id="text158"
       x="290.34253"
       y="253.52863"><tspan
         x="290.34253 295.22241 297.66232 302.54218"
         y="253.52863"
         sodipodi:role="line"
         id="tspan156"
         style="stroke-width:0.767272">1.75</tspan></text><text
       style="font-variant:normal;font-weight:normal;font-size:7.67272px;font-family:'DejaVu Sans';-inkscape-font-specification:DejaVuSans;writing-mode:lr-tb;fill:#000000;fill-opacity:1;fill-rule:nonzero;stroke:none;stroke-width:0.767272"
       id="text162"
       x="146.65851"
       y="264.0188"><tspan
         x="146.65851 152.60486 157.32358 162.18808 166.8838 174.35703 176.49004 180.71004 183.14996 188.02214 190.15515 194.15265 197.16035 201.86374 206.72824 210.94824 215.66696 218.10689 220.6926 223.13251 229.75407 234.62625"
         y="264.0188"
         sodipodi:role="line"
         id="tspan160"
         style="stroke-width:0.767272">Genomic distance / Mbp</tspan></text><text
       style="font-variant:normal;font-weight:normal;font-size:7.67272px;font-family:'DejaVu Sans';-inkscape-font-specification:DejaVuSans;writing-mode:lr-tb;fill:#000000;fill-opacity:1;fill-rule:nonzero;stroke:none;stroke-width:0.767272"
       id="text180"
       x="38.517002"
       y="245.24449"><tspan
         x="38.517002 43.396854 45.836781"
         y="245.24449"
         sodipodi:role="line"
         id="tspan178"
         style="stroke-width:0.767272">0.0</tspan></text><text
       style="font-variant:normal;font-weight:normal;font-size:7.67272px;font-family:'DejaVu Sans';-inkscape-font-specification:DejaVuSans;writing-mode:lr-tb;fill:#000000;fill-opacity:1;fill-rule:nonzero;stroke:none;stroke-width:0.767272"
       id="text198"
       x="38.517002"
       y="204.40842"><tspan
         x="38.517002 43.396854 45.836781"
         y="204.40842"
         sodipodi:role="line"
         id="tspan196"
         style="stroke-width:0.767272">0.2</tspan></text><text
       style="font-variant:normal;font-weight:normal;font-size:7.67272px;font-family:'DejaVu Sans';-inkscape-font-specification:DejaVuSans;writing-mode:lr-tb;fill:#000000;fill-opacity:1;fill-rule:nonzero;stroke:none;stroke-width:0.767272"
       id="text216"
       x="38.517002"
       y="163.57236"><tspan
         x="38.517002 43.396854 45.836781"
         y="163.57236"
         sodipodi:role="line"
         id="tspan214"
         style="stroke-width:0.767272">0.4</tspan></text><text
       style="font-variant:normal;font-weight:normal;font-size:7.67272px;font-family:'DejaVu Sans';-inkscape-font-specification:DejaVuSans;writing-mode:lr-tb;fill:#000000;fill-opacity:1;fill-rule:nonzero;stroke:none;stroke-width:0.767272"
       id="text234"
       x="38.517002"
       y="122.73636"><tspan
         x="38.517002 43.396854 45.836781"
         y="122.73636"
         sodipodi:role="line"
         id="tspan232"
         style="stroke-width:0.767272">0.6</tspan></text><text
       style="font-variant:normal;font-weight:normal;font-size:7.67272px;font-family:'DejaVu Sans';-inkscape-font-specification:DejaVuSans;writing-mode:lr-tb;fill:#000000;fill-opacity:1;fill-rule:nonzero;stroke:none;stroke-width:0.767272"
       id="text252"
       x="38.517002"
       y="81.900276"><tspan
         x="38.517002 43.396854 45.836781"
         y="81.900276"
         sodipodi:role="line"
         id="tspan250"
         style="stroke-width:0.767272">0.8</tspan></text><text
       style="font-variant:normal;font-weight:normal;font-size:7.67272px;font-family:'DejaVu Sans';-inkscape-font-specification:DejaVuSans;writing-mode:lr-tb;fill:#000000;fill-opacity:1;fill-rule:nonzero;stroke:none;stroke-width:0.767272"
       id="text270"
       x="38.517002"
       y="41.064186"><tspan
         x="38.517002 43.396854 45.836781"
         y="41.064186"
         sodipodi:role="line"
         id="tspan268"
         style="stroke-width:0.767272">1.0</tspan></text><text
       transform="rotate(-90)"
       style="font-variant:normal;font-weight:normal;font-size:7.67272px;font-family:'DejaVu Sans';-inkscape-font-specification:DejaVuSans;writing-mode:lr-tb;fill:#000000;fill-opacity:1;fill-rule:nonzero;stroke:none;stroke-width:0.767272"
       id="text274"
       x="-177.30992"
       y="33.853428"><tspan
         x="-177.30992 -172.68326 -167.96454 -163.26117 -160.10767 -156.1102 -151.41447 -146.54997 -144.11006 -139.89006 -135.19435 -132.04086 -128.88736 -124.16874 -122.03573 -117.33233 -114.32464 -112.1916 -107.49592"
         y="33.853428"
         sodipodi:role="line"
         id="tspan272"
         style="stroke-width:0.767272">Pearson correlation</tspan></text><text
       style="font-variant:normal;font-weight:normal;font-size:9.20727px;font-family:'DejaVu Sans';-inkscape-font-specification:DejaVuSans;writing-mode:lr-tb;fill:#000000;fill-opacity:1;fill-rule:nonzero;stroke:none;stroke-width:0.767272"
       id="text338"
       x="98.34433"
       y="23.227509"><tspan
         x="98.34433 103.89631 109.55878 115.20284 118.98702 123.784 129.41885 135.25627 138.18417 143.24817 148.88301 152.66721 156.45139 162.11386 164.67348 170.31754 173.92677 176.4864 182.12125 187.95865 190.88657 196.33727 201.13426 204.06216 206.99008 212.83669 218.49916 224.33655 229.97142 238.93929 241.4989 246.5629 249.49081 255.33743 257.89706 262.69403 266.30328 271.94733 277.78473 282.84872"
         y="23.227509"
         sodipodi:role="line"
         id="tspan336"
         style="stroke-width:0.767272">Pearson correlation vs. genomic distance</tspan></text><text
       style="font-variant:normal;font-weight:normal;font-size:9.20727px;font-family:'DejaVu Sans';-inkscape-font-specification:DejaVuSans;writing-mode:lr-tb;fill:#000000;fill-opacity:1;fill-rule:nonzero;stroke:none;stroke-width:0.767272"
       id="text342"
       x="61.068378"
       y="33.547314"><tspan
         x="61.068378 68.20401 76.149887 82.005707 87.861519 93.717339 99.573166 105.42899 108.3569 111.28481 117.14063 120.06855 125.92436 128.85228 134.7081 137.63602 143.49184 146.41974 152.27556 155.20348 161.0593 166.9151 169.84303 175.69884 181.55466 184.48257 190.33839 196.19421 199.12212 204.97795 210.83377 213.76169 219.61751 225.47334 228.40123 234.25706 240.11288 243.0408 248.89661 254.75244 257.68033 263.53616 269.392 272.31992 277.95474 283.79214 286.72006 292.76004 298.61588 304.47168 310.32751 313.2554 316.18332 322.03912"
         y="33.547314"
         sodipodi:role="line"
         id="tspan340"
         style="stroke-width:0.767272">GM12878, 1,2,4,7,9,11,13,14,16,17,18,20,22 on K562, 21</tspan></text><text
       style="font-variant:normal;font-weight:normal;font-size:7.67272px;font-family:'DejaVu Sans';-inkscape-font-specification:DejaVuSans;writing-mode:lr-tb;fill:#000000;fill-opacity:1;fill-rule:nonzero;stroke:none;stroke-width:0.767272"
       id="text348"
       x="92.937759"
       y="187.9603"><tspan
         x="92.937759 99.214035 101.34706 106.21924 110.93796 114.09146 116.8613 118.99431 123.69002 128.55452 133.4267 138.14542 141.29892 143.73885 146.17876 151.05862 155.93846 160.81833 165.53705 170.40924 172.84915 175.43484 177.87479 183.12292 188.73935 194.09491 196.68063 199.12054 204.0004 206.44034 211.32016 216.20004"
         y="187.9603"
         sodipodi:role="line"
         id="tspan346"
         style="stroke-width:0.767272">wider-longer, 250ep / AUC: 0.589</tspan></text><text
       style="font-variant:normal;font-weight:normal;font-size:7.67272px;font-family:'DejaVu Sans';-inkscape-font-specification:DejaVuSans;writing-mode:lr-tb;fill:#000000;fill-opacity:1;fill-rule:nonzero;stroke:none;stroke-width:0.767272"
       id="text354"
       x="92.937759"
       y="199.21762"><tspan
         x="92.937759 99.214035 101.34706 106.21924 110.93796 114.09146 116.8613 118.99431 123.69002 128.55452 133.4267 138.14542 141.29892 143.73885 146.17876 151.05862 155.93846 160.81833 165.53705 170.40924 172.84915 175.43484 177.87479 183.12292 188.73935 194.09491 196.68063 199.12054 204.0004 206.44034 211.32016 216.20004"
         y="199.21762"
         sodipodi:role="line"
         id="tspan352"
         style="stroke-width:0.767272">wider-longer, 500ep / AUC: 0.596</tspan></text><text
       style="font-variant:normal;font-weight:normal;font-size:7.67272px;font-family:'DejaVu Sans';-inkscape-font-specification:DejaVuSans;writing-mode:lr-tb;fill:#000000;fill-opacity:1;fill-rule:nonzero;stroke:none;stroke-width:0.767272"
       id="text360"
       x="92.937759"
       y="210.47498"><tspan
         x="92.937759 99.214035 101.34706 106.21924 110.93796 114.09146 116.8613 118.99431 123.69002 128.55452 133.4267 138.14542 141.29892 143.73885 146.17876 151.05862 155.93846 160.81833 165.69818 170.4169 175.28906 177.729 180.31473 182.75464 188.00278 193.6192 198.97476 201.56049 204.0004 208.88025 211.32016 216.20004 221.07986"
         y="210.47498"
         sodipodi:role="line"
         id="tspan358"
         style="stroke-width:0.767272">wider-longer, 1000ep / AUC: 0.611</tspan></text><text
       style="font-variant:normal;font-weight:normal;font-size:7.67272px;font-family:'DejaVu Sans';-inkscape-font-specification:DejaVuSans;writing-mode:lr-tb;fill:#000000;fill-opacity:1;fill-rule:nonzero;stroke:none;stroke-width:0.767272"
       id="text366"
       x="92.937759"
       y="221.73228"><tspan
         x="92.937759 95.07077 99.935272 102.0683 105.076 107.20901 111.91238 114.04539 116.48535 118.92526 123.8051 128.68497 133.5648 138.28355 143.15572 145.59566 148.18135 150.62128 155.86942 161.48584 166.84143 169.42712 171.86703 176.74692 179.18683 184.06668 188.94653"
         y="221.73228"
         sodipodi:role="line"
         id="tspan364"
         style="stroke-width:0.767272">initial, 500ep / AUC: 0.585</tspan></text><text
       style="font-variant:normal;font-weight:normal;font-size:7.67272px;font-family:'DejaVu Sans';-inkscape-font-specification:DejaVuSans;writing-mode:lr-tb;fill:#000000;fill-opacity:1;fill-rule:nonzero;stroke:none;stroke-width:0.767272"
       id="text372"
       x="92.937759"
       y="232.98959"><tspan
         x="92.937759 95.945465 99.098953 103.80232 108.66684 112.66432 115.36511 120.08385 123.23734 125.67725 131.62361 138.24518 143.12503 148.00487 152.88474 157.76457 162.64444 165.08435 167.67007 170.10999 175.35812 180.97455 186.33014 188.91583 191.35574 196.23563 198.67554 203.55539 208.43524"
         y="232.98959"
         sodipodi:role="line"
         id="tspan370"
         style="stroke-width:0.767272">transfer GM12878 / AUC: 0.849</tspan></text></g></svg>
