<?xml version="1.0" encoding="UTF-8" standalone="no"?>
<svg
   xmlns:dc="http://purl.org/dc/elements/1.1/"
   xmlns:cc="http://creativecommons.org/ns#"
   xmlns:rdf="http://www.w3.org/1999/02/22-rdf-syntax-ns#"
   xmlns:svg="http://www.w3.org/2000/svg"
   xmlns="http://www.w3.org/2000/svg"
   xmlns:sodipodi="http://sodipodi.sourceforge.net/DTD/sodipodi-0.dtd"
   xmlns:inkscape="http://www.inkscape.org/namespaces/inkscape"
   version="1.1"
   id="svg2"
   xml:space="preserve"
   width="80mm"
   height="65.300003mm"
   viewBox="0 0 302.36219 246.80316"
   sodipodi:docname="pearson_chr05.svg"
   inkscape:version="1.0.2 (1.0.2+r75+1)"><metadata
     id="metadata8"><rdf:RDF><cc:Work
         rdf:about=""><dc:format>image/svg+xml</dc:format><dc:type
           rdf:resource="http://purl.org/dc/dcmitype/StillImage" /><dc:title /></cc:Work></rdf:RDF></metadata><defs
     id="defs6"><clipPath
       clipPathUnits="userSpaceOnUse"
       id="clipPath22"><path
         d="M 57.6,38.016 H 414.72 V 304.128 H 57.6 Z"
         id="path20" /></clipPath><clipPath
       clipPathUnits="userSpaceOnUse"
       id="clipPath40"><path
         d="M 57.6,38.016 H 414.72 V 304.128 H 57.6 Z"
         id="path38" /></clipPath><clipPath
       clipPathUnits="userSpaceOnUse"
       id="clipPath58"><path
         d="M 57.6,38.016 H 414.72 V 304.128 H 57.6 Z"
         id="path56" /></clipPath><clipPath
       clipPathUnits="userSpaceOnUse"
       id="clipPath76"><path
         d="M 57.6,38.016 H 414.72 V 304.128 H 57.6 Z"
         id="path74" /></clipPath><clipPath
       clipPathUnits="userSpaceOnUse"
       id="clipPath94"><path
         d="M 57.6,38.016 H 414.72 V 304.128 H 57.6 Z"
         id="path92" /></clipPath><clipPath
       clipPathUnits="userSpaceOnUse"
       id="clipPath112"><path
         d="M 57.6,38.016 H 414.72 V 304.128 H 57.6 Z"
         id="path110" /></clipPath><clipPath
       clipPathUnits="userSpaceOnUse"
       id="clipPath130"><path
         d="M 57.6,38.016 H 414.72 V 304.128 H 57.6 Z"
         id="path128" /></clipPath><clipPath
       clipPathUnits="userSpaceOnUse"
       id="clipPath148"><path
         d="M 57.6,38.016 H 414.72 V 304.128 H 57.6 Z"
         id="path146" /></clipPath><clipPath
       clipPathUnits="userSpaceOnUse"
       id="clipPath170"><path
         d="M 57.6,38.016 H 414.72 V 304.128 H 57.6 Z"
         id="path168" /></clipPath><clipPath
       clipPathUnits="userSpaceOnUse"
       id="clipPath188"><path
         d="M 57.6,38.016 H 414.72 V 304.128 H 57.6 Z"
         id="path186" /></clipPath><clipPath
       clipPathUnits="userSpaceOnUse"
       id="clipPath206"><path
         d="M 57.6,38.016 H 414.72 V 304.128 H 57.6 Z"
         id="path204" /></clipPath><clipPath
       clipPathUnits="userSpaceOnUse"
       id="clipPath224"><path
         d="M 57.6,38.016 H 414.72 V 304.128 H 57.6 Z"
         id="path222" /></clipPath><clipPath
       clipPathUnits="userSpaceOnUse"
       id="clipPath242"><path
         d="M 57.6,38.016 H 414.72 V 304.128 H 57.6 Z"
         id="path240" /></clipPath><clipPath
       clipPathUnits="userSpaceOnUse"
       id="clipPath260"><path
         d="M 57.6,38.016 H 414.72 V 304.128 H 57.6 Z"
         id="path258" /></clipPath><clipPath
       clipPathUnits="userSpaceOnUse"
       id="clipPath282"><path
         d="M 57.6,38.016 H 414.72 V 304.128 H 57.6 Z"
         id="path280" /></clipPath><clipPath
       clipPathUnits="userSpaceOnUse"
       id="clipPath292"><path
         d="M 57.6,38.016 H 414.72 V 304.128 H 57.6 Z"
         id="path290" /></clipPath><clipPath
       clipPathUnits="userSpaceOnUse"
       id="clipPath302"><path
         d="M 57.6,38.016 H 414.72 V 304.128 H 57.6 Z"
         id="path300" /></clipPath><clipPath
       clipPathUnits="userSpaceOnUse"
       id="clipPath312"><path
         d="M 57.6,38.016 H 414.72 V 304.128 H 57.6 Z"
         id="path310" /></clipPath><clipPath
       clipPathUnits="userSpaceOnUse"
       id="clipPath322"><path
         d="M 57.6,38.016 H 414.72 V 304.128 H 57.6 Z"
         id="path320" /></clipPath><clipPath
       clipPathUnits="userSpaceOnUse"
       id="clipPath332"><path
         d="M 57.6,38.016 H 414.72 V 304.128 H 57.6 Z"
         id="path330" /></clipPath></defs><sodipodi:namedview
     pagecolor="#ffffff"
     bordercolor="#666666"
     borderopacity="1"
     objecttolerance="10"
     gridtolerance="10"
     guidetolerance="10"
     inkscape:pageopacity="0"
     inkscape:pageshadow="2"
     inkscape:window-width="1920"
     inkscape:window-height="1020"
     id="namedview4"
     showgrid="false"
     fit-margin-top="0"
     fit-margin-left="0"
     fit-margin-right="0"
     fit-margin-bottom="0"
     units="mm"
     inkscape:zoom="3.7196182"
     inkscape:cx="112.35037"
     inkscape:cy="145.53281"
     inkscape:window-x="0"
     inkscape:window-y="0"
     inkscape:window-maximized="1"
     inkscape:current-layer="g10"
     inkscape:document-rotation="0" /><g
     id="g10"
     inkscape:groupmode="layer"
     inkscape:label="pearson_chr05"
     transform="matrix(1.3333333,0,0,-1.3333333,-28.023958,443.59358)"><path
       d="M 57.6,38.016 V 304.128"
       style="fill:none;stroke:#b0b0b0;stroke-width:0.8;stroke-linecap:square;stroke-linejoin:round;stroke-miterlimit:10;stroke-dasharray:none;stroke-opacity:1"
       id="path24"
       transform="matrix(0.57530878,0,0,0.57530878,8.926147,141.96989)" /><path
       d="M 102.94857,38.016 V 304.128"
       style="fill:none;stroke:#b0b0b0;stroke-width:0.8;stroke-linecap:square;stroke-linejoin:round;stroke-miterlimit:10;stroke-dasharray:none;stroke-opacity:1"
       id="path42"
       transform="matrix(0.57530878,0,0,0.57530878,8.926147,141.96989)" /><path
       d="M 148.29714,38.016 V 304.128"
       style="fill:none;stroke:#b0b0b0;stroke-width:0.8;stroke-linecap:square;stroke-linejoin:round;stroke-miterlimit:10;stroke-dasharray:none;stroke-opacity:1"
       id="path60"
       transform="matrix(0.57530878,0,0,0.57530878,8.926147,141.96989)" /><path
       d="M 193.64571,38.016 V 304.128"
       style="fill:none;stroke:#b0b0b0;stroke-width:0.8;stroke-linecap:square;stroke-linejoin:round;stroke-miterlimit:10;stroke-dasharray:none;stroke-opacity:1"
       id="path78"
       transform="matrix(0.57530878,0,0,0.57530878,8.926147,141.96989)" /><path
       d="M 238.99429,38.016 V 304.128"
       style="fill:none;stroke:#b0b0b0;stroke-width:0.8;stroke-linecap:square;stroke-linejoin:round;stroke-miterlimit:10;stroke-dasharray:none;stroke-opacity:1"
       id="path96"
       transform="matrix(0.57530878,0,0,0.57530878,8.926147,141.96989)" /><path
       d="M 172.51109,163.84083 V 316.9374"
       style="fill:none;stroke:#b0b0b0;stroke-width:0.460247;stroke-linecap:square;stroke-linejoin:round;stroke-miterlimit:10;stroke-dasharray:none;stroke-opacity:1"
       id="path114" /><path
       d="M 329.69143,38.016 V 304.128"
       style="fill:none;stroke:#b0b0b0;stroke-width:0.8;stroke-linecap:square;stroke-linejoin:round;stroke-miterlimit:10;stroke-dasharray:none;stroke-opacity:1"
       id="path132"
       transform="matrix(0.57530878,0,0,0.57530878,8.926147,141.96989)" /><path
       d="M 375.04,38.016 V 304.128"
       style="fill:none;stroke:#b0b0b0;stroke-width:0.8;stroke-linecap:square;stroke-linejoin:round;stroke-miterlimit:10;stroke-dasharray:none;stroke-opacity:1"
       id="path150"
       transform="matrix(0.57530878,0,0,0.57530878,8.926147,141.96989)" /><path
       d="M 57.6,38.016 H 414.72"
       style="fill:none;stroke:#b0b0b0;stroke-width:0.8;stroke-linecap:square;stroke-linejoin:round;stroke-miterlimit:10;stroke-dasharray:none;stroke-opacity:1"
       id="path172"
       transform="matrix(0.57530878,0,0,0.57530878,8.926147,141.96989)" /><path
       d="M 57.6,91.2384 H 414.72"
       style="fill:none;stroke:#b0b0b0;stroke-width:0.8;stroke-linecap:square;stroke-linejoin:round;stroke-miterlimit:10;stroke-dasharray:none;stroke-opacity:1"
       id="path190"
       transform="matrix(0.57530878,0,0,0.57530878,8.926147,141.96989)" /><path
       d="M 57.6,144.4608 H 414.72"
       style="fill:none;stroke:#b0b0b0;stroke-width:0.8;stroke-linecap:square;stroke-linejoin:round;stroke-miterlimit:10;stroke-dasharray:none;stroke-opacity:1"
       id="path208"
       transform="matrix(0.57530878,0,0,0.57530878,8.926147,141.96989)" /><path
       d="M 57.6,197.6832 H 414.72"
       style="fill:none;stroke:#b0b0b0;stroke-width:0.8;stroke-linecap:square;stroke-linejoin:round;stroke-miterlimit:10;stroke-dasharray:none;stroke-opacity:1"
       id="path226"
       transform="matrix(0.57530878,0,0,0.57530878,8.926147,141.96989)" /><path
       d="M 57.6,250.9056 H 414.72"
       style="fill:none;stroke:#b0b0b0;stroke-width:0.8;stroke-linecap:square;stroke-linejoin:round;stroke-miterlimit:10;stroke-dasharray:none;stroke-opacity:1"
       id="path244"
       transform="matrix(0.57530878,0,0,0.57530878,8.926147,141.96989)" /><path
       d="M 57.6,304.128 H 414.72"
       style="fill:none;stroke:#b0b0b0;stroke-width:0.8;stroke-linecap:square;stroke-linejoin:round;stroke-miterlimit:10;stroke-dasharray:none;stroke-opacity:1"
       id="path262"
       transform="matrix(0.57530878,0,0,0.57530878,8.926147,141.96989)" /><g
       id="g328"
       clip-path="url(#clipPath332)"
       style="stroke:#d62728;stroke-opacity:1"
       transform="matrix(0.57530878,0,0,0.57530878,8.9261472,141.96989)"><path
         d="m 57.6,274.26669 5.668571,-8.51413 5.668572,-4.60585 5.668571,-0.61572 5.668572,-0.97414 5.668571,0.2994 5.668572,0.17462 5.668571,-0.0369 5.66857,0.55342 5.66857,-1.55777 5.66857,-1.31879 5.66858,-0.0429 5.66857,-1.84437 5.66857,-1.25059 5.66857,-0.22577 5.66857,-2.59774 5.66857,-0.67705 5.66857,-0.23919 5.66858,-2.43211 5.66857,-1.4151 5.66857,-1.07585 5.66857,-1.42078 5.66857,0.29705 5.66857,-1.2512 5.66857,-4.21345 5.66858,1.85402 5.66857,0.40948 5.66857,0.49735 5.66857,-0.15599 5.66857,-2.90436 5.66857,0.90238 5.66857,-3.56086 5.66858,-0.71117 5.66857,0.0317 5.66857,-3.35022 5.66857,0.40922 5.66857,-1.31818 5.66857,-0.0777 5.66857,-2.52089 5.66858,2.24148 5.66857,-2.15834 5.66857,-3.06158 5.66857,-0.31306 5.66857,-0.70681 5.66857,4.80396 5.66857,-2.65466 5.66858,0.83184 5.66857,-1.614 5.66857,-2.32449 5.66857,2.89507 5.66857,-6.57443 5.66857,2.15945 5.66857,-6.06139 5.66858,-1.32181 5.66857,-1.42226 5.66857,-2.91308 5.66857,-0.51664 5.66857,1.0175 5.66857,-5.84401 5.66857,1.57233 5.66858,-5.53072 5.66857,5.36572 5.66857,-2.10874 5.66857,3.65182"
         style="fill:none;stroke:#d62728;stroke-width:1.5;stroke-linecap:square;stroke-linejoin:round;stroke-miterlimit:10;stroke-dasharray:none;stroke-opacity:1"
         id="path334" /></g><g
       id="g16"
       transform="matrix(0.57530878,0,0,0.57530878,8.9261472,141.96989)"><g
         id="g18"
         clip-path="url(#clipPath22)" /></g><path
       d="m 42.063932,163.84082 v -2.01357"
       style="fill:#000000;fill-opacity:1;fill-rule:nonzero;stroke:#000000;stroke-width:0.460247;stroke-linecap:butt;stroke-linejoin:round;stroke-miterlimit:10;stroke-dasharray:none;stroke-opacity:1"
       id="path28" /><g
       id="g34"
       transform="matrix(0.57530878,0,0,0.57530878,8.9261472,141.96989)"><g
         id="g36"
         clip-path="url(#clipPath40)" /></g><path
       d="m 68.153363,163.84082 v -2.01357"
       style="fill:#000000;fill-opacity:1;fill-rule:nonzero;stroke:#000000;stroke-width:0.460247;stroke-linecap:butt;stroke-linejoin:round;stroke-miterlimit:10;stroke-dasharray:none;stroke-opacity:1"
       id="path46" /><g
       id="g52"
       transform="matrix(0.57530878,0,0,0.57530878,8.9261472,141.96989)"><g
         id="g54"
         clip-path="url(#clipPath58)" /></g><path
       d="m 94.242792,163.84082 v -2.01357"
       style="fill:#000000;fill-opacity:1;fill-rule:nonzero;stroke:#000000;stroke-width:0.460247;stroke-linecap:butt;stroke-linejoin:round;stroke-miterlimit:10;stroke-dasharray:none;stroke-opacity:1"
       id="path64" /><g
       id="g70"
       transform="matrix(0.57530878,0,0,0.57530878,8.9261472,141.96989)"><g
         id="g72"
         clip-path="url(#clipPath76)" /></g><path
       d="m 120.33222,163.84082 v -2.01357"
       style="fill:#000000;fill-opacity:1;fill-rule:nonzero;stroke:#000000;stroke-width:0.460247;stroke-linecap:butt;stroke-linejoin:round;stroke-miterlimit:10;stroke-dasharray:none;stroke-opacity:1"
       id="path82" /><g
       id="g88"
       transform="matrix(0.57530878,0,0,0.57530878,8.9261472,141.96989)"><g
         id="g90"
         clip-path="url(#clipPath94)" /></g><path
       d="m 146.42166,163.84082 v -2.01357"
       style="fill:#000000;fill-opacity:1;fill-rule:nonzero;stroke:#000000;stroke-width:0.460247;stroke-linecap:butt;stroke-linejoin:round;stroke-miterlimit:10;stroke-dasharray:none;stroke-opacity:1"
       id="path100" /><path
       d="m 172.51109,163.84082 v -2.01357"
       style="fill:#000000;fill-opacity:1;fill-rule:nonzero;stroke:#000000;stroke-width:0.460247;stroke-linecap:butt;stroke-linejoin:round;stroke-miterlimit:10;stroke-dasharray:none;stroke-opacity:1"
       id="path118" /><g
       id="g124"
       transform="matrix(0.57530878,0,0,0.57530878,8.9261472,141.96989)"><g
         id="g126"
         clip-path="url(#clipPath130)" /></g><path
       d="m 198.60052,163.84082 v -2.01357"
       style="fill:#000000;fill-opacity:1;fill-rule:nonzero;stroke:#000000;stroke-width:0.460247;stroke-linecap:butt;stroke-linejoin:round;stroke-miterlimit:10;stroke-dasharray:none;stroke-opacity:1"
       id="path136" /><g
       id="g142"
       transform="matrix(0.57530878,0,0,0.57530878,8.9261472,141.96989)"><g
         id="g144"
         clip-path="url(#clipPath148)" /></g><path
       d="m 224.68995,163.84082 v -2.01357"
       style="fill:#000000;fill-opacity:1;fill-rule:nonzero;stroke:#000000;stroke-width:0.460247;stroke-linecap:butt;stroke-linejoin:round;stroke-miterlimit:10;stroke-dasharray:none;stroke-opacity:1"
       id="path154" /><g
       id="g164"
       transform="matrix(0.57530878,0,0,0.57530878,8.9261472,141.96989)"><g
         id="g166"
         clip-path="url(#clipPath170)" /></g><path
       d="m 42.063932,163.84082 h -2.01358"
       style="fill:#000000;fill-opacity:1;fill-rule:nonzero;stroke:#000000;stroke-width:0.460247;stroke-linecap:butt;stroke-linejoin:round;stroke-miterlimit:10;stroke-dasharray:none;stroke-opacity:1"
       id="path176" /><g
       id="g182"
       transform="matrix(0.57530878,0,0,0.57530878,8.9261472,141.96989)"><g
         id="g184"
         clip-path="url(#clipPath188)" /></g><path
       d="m 42.063932,194.46015 h -2.01358"
       style="fill:#000000;fill-opacity:1;fill-rule:nonzero;stroke:#000000;stroke-width:0.460247;stroke-linecap:butt;stroke-linejoin:round;stroke-miterlimit:10;stroke-dasharray:none;stroke-opacity:1"
       id="path194" /><g
       id="g200"
       transform="matrix(0.57530878,0,0,0.57530878,8.9261472,141.96989)"><g
         id="g202"
         clip-path="url(#clipPath206)" /></g><path
       d="m 42.063932,225.07946 h -2.01358"
       style="fill:#000000;fill-opacity:1;fill-rule:nonzero;stroke:#000000;stroke-width:0.460247;stroke-linecap:butt;stroke-linejoin:round;stroke-miterlimit:10;stroke-dasharray:none;stroke-opacity:1"
       id="path212" /><g
       id="g218"
       transform="matrix(0.57530878,0,0,0.57530878,8.9261472,141.96989)"><g
         id="g220"
         clip-path="url(#clipPath224)" /></g><path
       d="m 42.063932,255.69877 h -2.01358"
       style="fill:#000000;fill-opacity:1;fill-rule:nonzero;stroke:#000000;stroke-width:0.460247;stroke-linecap:butt;stroke-linejoin:round;stroke-miterlimit:10;stroke-dasharray:none;stroke-opacity:1"
       id="path230" /><g
       id="g236"
       transform="matrix(0.57530878,0,0,0.57530878,8.9261472,141.96989)"><g
         id="g238"
         clip-path="url(#clipPath242)" /></g><path
       d="m 42.063932,286.31808 h -2.01358"
       style="fill:#000000;fill-opacity:1;fill-rule:nonzero;stroke:#000000;stroke-width:0.460247;stroke-linecap:butt;stroke-linejoin:round;stroke-miterlimit:10;stroke-dasharray:none;stroke-opacity:1"
       id="path248" /><g
       id="g254"
       transform="matrix(0.57530878,0,0,0.57530878,8.9261472,141.96989)"><g
         id="g256"
         clip-path="url(#clipPath260)" /></g><path
       d="m 42.063932,316.9374 h -2.01358"
       style="fill:#000000;fill-opacity:1;fill-rule:nonzero;stroke:#000000;stroke-width:0.460247;stroke-linecap:butt;stroke-linejoin:round;stroke-miterlimit:10;stroke-dasharray:none;stroke-opacity:1"
       id="path266" /><g
       id="g278"
       clip-path="url(#clipPath282)"
       transform="matrix(0.57530878,0,0,0.57530878,8.9261472,141.96989)"><path
         d="m 57.6,235.41677 5.668571,8.89103 5.668572,-2.9158 5.668571,-7.28483 5.668572,-6.48833 5.668571,-3.81942 5.668572,-2.9711 5.668571,-6.22569 5.66857,-6.83155 5.66857,1.03024 5.66857,-2.89717 5.66858,-7.07389 5.66857,-5.52259 5.66857,-6.41269 5.66857,-9.09884 5.66857,-11.42184 5.66857,-15.32539 5.66857,0.39981 5.66858,-0.0253 5.66857,-2.97837 5.66857,-4.86435 5.66857,-0.43554 5.66857,2.7744 5.66857,-2.54225 5.66857,-0.87945 5.66858,-5.40725 5.66857,-1.93285 5.66857,1.62524 5.66857,-5.21297 5.66857,-0.23242 5.66857,-4.88503 5.66857,-3.12868 5.66858,-4.06719 5.66857,-2.91186 5.66857,-3.31812 5.66857,-2.99103 5.66857,-5.96166 5.66857,1.41629 5.66857,-4.51143 5.66858,-1.49354 5.66857,-5.759684 5.66857,-1.876254 5.66857,-1.981456 5.66857,-1.898214 5.66857,-5.312 5.66857,0.0077 5.66858,-2.121652 5.66857,-5.488765 5.66857,0.288236 5.66857,-4.33412 5.66857,-2.079278 5.66857,-2.762096 5.66857,2.079066 5.66858,-1.371547 5.66857,-1.800754 5.66857,-0.897434 5.66857,-0.766535 5.66857,-1.425845 5.66857,-0.05392 5.66857,-1.265727 5.66858,-4.530985 5.66857,-1.805407 5.66857,-1.848119 5.66857,-0.81989"
         style="fill:none;stroke:#1f77b4;stroke-width:1.5;stroke-linecap:square;stroke-linejoin:round;stroke-miterlimit:10;stroke-dasharray:none;stroke-opacity:1"
         id="path284" /></g><g
       id="g288"
       clip-path="url(#clipPath292)"
       transform="matrix(0.57530878,0,0,0.57530878,8.9261472,141.96989)"><path
         d="m 57.6,248.51764 5.668571,6.86118 5.668572,-3.55783 5.668571,-9.07645 5.668572,-7.55013 5.668571,-7.95264 5.668572,-7.66062 5.668571,-8.8119 5.66857,-8.16392 5.66857,-4.21548 5.66857,-11.04296 5.66858,-6.56803 5.66857,-3.06617 5.66857,-11.79024 5.66857,-24.07558 5.66857,-13.12841 5.66857,-51.449788 5.66857,46.231218 5.66858,7.4253 5.66857,21.35695 5.66857,7.27946 5.66857,-6.68112 5.66857,-6.67755 5.66857,-3.0347 5.66857,-5.51818 5.66858,-5.50035 5.66857,-7.36829 5.66857,-1.32067 5.66857,-12.62158 5.66857,-0.62497 5.66857,-4.54479 5.66857,-8.910765 5.66858,-9.982371 5.66857,4.54449 5.66857,8.020389 5.66857,1.036377 5.66857,-3.80778 5.66857,8.83951 5.66857,4.31737 5.66858,-3.69635 5.66857,-3.31858 5.66857,0.14333 5.66857,1.5794 5.66857,-2.2734 5.66857,-2.546956 5.66857,2.447896 5.66858,-0.29285 5.66857,-2.418169 5.66857,-0.824457 5.66857,-4.779621 5.66857,-1.36589 5.66857,-1.724598 5.66857,1.537908 5.66858,-2.901939 5.66857,-0.52067 5.66857,0.686538 5.66857,-2.171822 5.66857,0.25196 5.66857,-1.9814 5.66857,-0.121693 5.66858,-7.622686 5.66857,0.756079 5.66857,-0.715878 5.66857,-2.565056"
         style="fill:none;stroke:#ff7f0e;stroke-width:1.5;stroke-linecap:square;stroke-linejoin:round;stroke-miterlimit:10;stroke-dasharray:none;stroke-opacity:1"
         id="path294" /></g><g
       id="g298"
       clip-path="url(#clipPath302)"
       transform="matrix(0.57530878,0,0,0.57530878,8.9261472,141.96989)"><path
         d="m 57.6,225.41644 5.668571,2.84909 5.668572,-21.78929 5.668571,4.82529 5.668572,2.89757 5.668571,-8.1841 5.668572,-11.25218 5.668571,-1.32371 5.66857,0.72766 5.66857,-1.93248 5.66857,-5.68807 5.66858,-2.12639 5.66857,-3.01709 5.66857,-4.71662 5.66857,-8.9851 5.66857,-9.15045 5.66857,-37.98801 5.66857,29.90239 5.66858,5.02882 5.66857,-0.10399 5.66857,-2.14163 5.66857,-2.00969 5.66857,-8.48311 5.66857,-1.35641 5.66857,-2.50691 5.66858,-8.57952 5.66857,-4.64142 5.66857,-2.81118 5.66857,-15.76375 5.66857,3.84752 5.66857,-4.80952 5.66857,-9.64713 5.66858,-16.693154 5.66857,10.814751 5.66857,9.141505 5.66857,3.164388 5.66857,-7.007842 5.66857,11.493202 5.66857,2.90533 5.66858,-3.26628 5.66857,-2.8369 5.66857,-0.14407 5.66857,-0.15612 5.66857,-3.50405 5.66857,-3.237193 5.66857,1.087204 5.66858,0.380295 5.66857,-2.053205 5.66857,-2.824118 5.66857,-2.225759 5.66857,-1.195783 5.66857,-2.465482 5.66857,1.128638 5.66858,-0.394051 5.66857,3.453332 5.66857,1.443064 5.66857,-1.36288 5.66857,-0.788579 5.66857,-1.421346 5.66857,-1.895641 5.66858,-7.330481 5.66857,-1.569028 5.66857,2.777148 5.66857,-2.933535"
         style="fill:none;stroke:#2ca02c;stroke-width:1.5;stroke-linecap:square;stroke-linejoin:round;stroke-miterlimit:10;stroke-dasharray:none;stroke-opacity:1"
         id="path304" /></g><g
       id="g308"
       clip-path="url(#clipPath312)"
       style="stroke:#8c564b;stroke-opacity:1"
       transform="matrix(0.57530878,0,0,0.57530878,8.9261472,141.96989)"><path
         d="m 57.6,230.37275 5.668571,6.61033 5.668572,-16.52799 5.668571,-1.96052 5.668572,0.13898 5.668571,-11.61282 5.668572,-6.80539 5.668571,-5.74189 5.66857,-5.61104 5.66857,-1.64052 5.66857,-4.88971 5.66858,-7.48674 5.66857,-3.21918 5.66857,-6.42694 5.66857,-8.90501 5.66857,-4.46735 5.66857,-19.27964 5.66857,14.96622 5.66858,4.12565 5.66857,-0.69747 5.66857,4.20458 5.66857,-6.61411 5.66857,-6.50597 5.66857,2.07261 5.66857,5.21537 5.66858,-10.99252 5.66857,-6.21413 5.66857,-1.74008 5.66857,-15.8727 5.66857,8.68083 5.66857,-6.60129 5.66857,-9.5885 5.66858,-21.19288 5.66857,13.015603 5.66857,7.094547 5.66857,1.87499 5.66857,-3.48152 5.66857,12.38923 5.66857,0.58714 5.66858,-3.52809 5.66857,-5.06451 5.66857,1.10464 5.66857,2.8915 5.66857,-3.80019 5.66857,-3.32334 5.66857,5.04495 5.66858,4.48279 5.66857,-1.43165 5.66857,-2.62798 5.66857,-3.83223 5.66857,0.007 5.66857,-5.56012 5.66857,-0.39534 5.66858,-5.37745 5.66857,3.504525 5.66857,-2.510893 5.66857,-3.5903 5.66857,-3.248866 5.66857,-1.296001 5.66857,-2.815049 5.66858,-5.212117 5.66857,-4.258161 5.66857,5.598602 5.66857,-3.879083"
         style="fill:none;stroke:#8c564b;stroke-width:1.5;stroke-linecap:square;stroke-linejoin:round;stroke-miterlimit:10;stroke-dasharray:none;stroke-opacity:1"
         id="path314" /></g><g
       id="g318"
       clip-path="url(#clipPath322)"
       transform="matrix(0.57530878,0,0,0.57530878,8.9261472,141.96989)"><path
         d="m 57.6,223.38826 5.668571,9.49917 5.668572,-19.21922 5.668571,-5.65775 5.668572,-0.42161 5.668571,-18.9353 5.668572,-1.65182 5.668571,-8.88233 5.66857,-10.77006 5.66857,0.51514 5.66857,-2.66367 5.66858,-7.22483 5.66857,3.52401 5.66857,-8.48045 5.66857,-6.07806 5.66857,0.69028 5.66857,-4.9461 5.66857,5.00952 5.66858,4.56481 5.66857,0.35786 5.66857,3.79228 5.66857,-0.88945 5.66857,-1.21666 5.66857,1.29902 5.66857,0.39637 5.66858,-4.24392 5.66857,-3.32108 5.66857,0.22926 5.66857,-14.78952 5.66857,4.4534 5.66857,-10.0772 5.66857,-8.21092 5.66858,-15.75887 5.66857,5.98282 5.66857,4.10886 5.66857,-0.14783 5.66857,-3.67734 5.66857,4.32004 5.66857,-7.20919 5.66858,-3.66341 5.66857,-7.542708 5.66857,-0.177566 5.66857,1.60321 5.66857,-4.612951 5.66857,-6.673509 5.66857,8.404115 5.66858,3.431237 5.66857,-2.223177 5.66857,-7.944317 5.66857,3.202399 5.66857,0.774875 5.66857,-0.943534 5.66857,0.886916 5.66858,-3.468865 5.66857,4.002188 5.66857,-3.006854 5.66857,-1.736035 5.66857,-5.416666 5.66857,0.681755 5.66857,-4.983611 5.66858,-5.571075 5.66857,-4.348877 5.66857,6.320126 5.66857,-2.916896"
         style="fill:none;stroke:#9467bd;stroke-width:1.5;stroke-linecap:square;stroke-linejoin:round;stroke-miterlimit:10;stroke-dasharray:none;stroke-opacity:1"
         id="path324" /></g><path
       d="M 42.063932,163.84082 V 316.9374"
       style="fill:none;stroke:#000000;stroke-width:0.460247;stroke-linecap:square;stroke-linejoin:miter;stroke-miterlimit:10;stroke-dasharray:none;stroke-opacity:1"
       id="path338" /><path
       d="M 247.5182,163.84082 V 316.9374"
       style="fill:none;stroke:#000000;stroke-width:0.460247;stroke-linecap:square;stroke-linejoin:miter;stroke-miterlimit:10;stroke-dasharray:none;stroke-opacity:1"
       id="path340" /><path
       d="M 42.063932,163.84082 H 247.5182"
       style="fill:none;stroke:#000000;stroke-width:0.460247;stroke-linecap:square;stroke-linejoin:miter;stroke-miterlimit:10;stroke-dasharray:none;stroke-opacity:1"
       id="path342" /><path
       d="M 42.063932,316.9374 H 247.5182"
       style="fill:none;stroke:#000000;stroke-width:0.460247;stroke-linecap:square;stroke-linejoin:miter;stroke-miterlimit:10;stroke-dasharray:none;stroke-opacity:1"
       id="path344" /><path
       d="m 97.56944,266.49215 h 7.19146"
       style="fill:none;stroke:#1f77b4;stroke-width:0.862963;stroke-linecap:square;stroke-linejoin:round;stroke-miterlimit:10;stroke-dasharray:none;stroke-opacity:1"
       id="path354"
       sodipodi:nodetypes="cc" /><path
       d="m 97.56944,259.77722 h 7.19146"
       style="fill:none;stroke:#ff7f0e;stroke-width:0.862963;stroke-linecap:square;stroke-linejoin:round;stroke-miterlimit:10;stroke-dasharray:none;stroke-opacity:1"
       id="path360"
       sodipodi:nodetypes="cc" /><path
       d="m 97.56944,253.06229 h 7.19146"
       style="fill:none;stroke:#2ca02c;stroke-width:0.862963;stroke-linecap:square;stroke-linejoin:round;stroke-miterlimit:10;stroke-dasharray:none;stroke-opacity:1"
       id="path366"
       sodipodi:nodetypes="cc" /><path
       d="m 97.56944,246.34735 h 7.19146"
       style="fill:none;stroke:#8c564b;stroke-width:0.862963;stroke-linecap:square;stroke-linejoin:round;stroke-miterlimit:10;stroke-dasharray:none;stroke-opacity:1"
       id="path372"
       sodipodi:nodetypes="cc" /><path
       d="m 97.56944,239.63243 h 7.19146"
       style="fill:none;stroke:#9467bd;stroke-width:0.862963;stroke-linecap:square;stroke-linejoin:round;stroke-miterlimit:10;stroke-dasharray:none;stroke-opacity:1"
       id="path378"
       sodipodi:nodetypes="cc" /><path
       d="m 97.56944,293.01111 h 7.19136"
       style="fill:none;stroke:#d62728;stroke-width:0.862963;stroke-linecap:square;stroke-linejoin:round;stroke-miterlimit:10;stroke-dasharray:none;stroke-opacity:1"
       id="path384"
       sodipodi:nodetypes="cc" /></g><g
     inkscape:groupmode="layer"
     id="layer1"
     inkscape:label="text"
     style="display:inline"
     transform="translate(-28.023958,-17.206424)"><text
       style="font-variant:normal;font-weight:normal;font-size:7.67078px;font-family:'DejaVu Sans';-inkscape-font-specification:DejaVuSans;writing-mode:lr-tb;fill:#000000;fill-opacity:1;fill-rule:nonzero;stroke:none;stroke-width:0.767078"
       id="text32"
       x="53.98457"
       y="253.5399"><tspan
         x="53.98457 58.86319 61.302502"
         y="253.5399"
         sodipodi:role="line"
         id="tspan30"
         style="stroke-width:0.767078">0.0</tspan></text><text
       style="font-variant:normal;font-weight:normal;font-size:7.67078px;font-family:'DejaVu Sans';-inkscape-font-specification:DejaVuSans;writing-mode:lr-tb;fill:#000000;fill-opacity:1;fill-rule:nonzero;stroke:none;stroke-width:0.767078"
       id="text50"
       x="84.770477"
       y="253.5399"><tspan
         x="84.770477 89.649101 92.088417"
         y="253.5399"
         sodipodi:role="line"
         id="tspan48"
         style="stroke-width:0.767078">0.2</tspan></text><text
       style="font-variant:normal;font-weight:normal;font-size:7.67078px;font-family:'DejaVu Sans';-inkscape-font-specification:DejaVuSans;writing-mode:lr-tb;fill:#000000;fill-opacity:1;fill-rule:nonzero;stroke:none;stroke-width:0.767078"
       id="text68"
       x="119.55639"
       y="253.5399"><tspan
         x="119.55639 124.43501 126.87431"
         y="253.5399"
         sodipodi:role="line"
         id="tspan66"
         style="stroke-width:0.767078">0.4</tspan></text><text
       style="font-variant:normal;font-weight:normal;font-size:7.67078px;font-family:'DejaVu Sans';-inkscape-font-specification:DejaVuSans;writing-mode:lr-tb;fill:#000000;fill-opacity:1;fill-rule:nonzero;stroke:none;stroke-width:0.767078"
       id="text86"
       x="154.3423"
       y="253.5399"><tspan
         x="154.3423 159.22092 161.66023"
         y="253.5399"
         sodipodi:role="line"
         id="tspan84"
         style="stroke-width:0.767078">0.6</tspan></text><text
       style="font-variant:normal;font-weight:normal;font-size:7.67078px;font-family:'DejaVu Sans';-inkscape-font-specification:DejaVuSans;writing-mode:lr-tb;fill:#000000;fill-opacity:1;fill-rule:nonzero;stroke:none;stroke-width:0.767078"
       id="text104"
       x="189.12819"
       y="253.5399"><tspan
         x="189.12819 194.00682 196.44612"
         y="253.5399"
         sodipodi:role="line"
         id="tspan102"
         style="stroke-width:0.767078">0.8</tspan></text><text
       style="font-variant:normal;font-weight:normal;font-size:7.67078px;font-family:'DejaVu Sans';-inkscape-font-specification:DejaVuSans;writing-mode:lr-tb;fill:#000000;fill-opacity:1;fill-rule:nonzero;stroke:none;stroke-width:0.767078"
       id="text122"
       x="223.91412"
       y="253.5399"><tspan
         x="223.91412 228.79271 231.23203"
         y="253.5399"
         sodipodi:role="line"
         id="tspan120"
         style="stroke-width:0.767078">1.0</tspan></text><text
       style="font-variant:normal;font-weight:normal;font-size:7.67078px;font-family:'DejaVu Sans';-inkscape-font-specification:DejaVuSans;writing-mode:lr-tb;fill:#000000;fill-opacity:1;fill-rule:nonzero;stroke:none;stroke-width:0.767078"
       id="text140"
       x="258.70004"
       y="253.5399"><tspan
         x="258.70004 263.57861 266.01791"
         y="253.5399"
         sodipodi:role="line"
         id="tspan138"
         style="stroke-width:0.767078">1.2</tspan></text><text
       style="font-variant:normal;font-weight:normal;font-size:7.67078px;font-family:'DejaVu Sans';-inkscape-font-specification:DejaVuSans;writing-mode:lr-tb;fill:#000000;fill-opacity:1;fill-rule:nonzero;stroke:none;stroke-width:0.767078"
       id="text158"
       x="293.48593"
       y="253.5399"><tspan
         x="293.48593 298.36453 300.80386"
         y="253.5399"
         sodipodi:role="line"
         id="tspan156"
         style="stroke-width:0.767078">1.4</tspan></text><text
       style="font-variant:normal;font-weight:normal;font-size:7.67078px;font-family:'DejaVu Sans';-inkscape-font-specification:DejaVuSans;writing-mode:lr-tb;fill:#000000;fill-opacity:1;fill-rule:nonzero;stroke:none;stroke-width:0.767078"
       id="text162"
       x="146.62854"
       y="264.02759"><tspan
         x="146.62854 152.57339 157.29092 162.15419 166.84871 174.32005 176.45253 180.67146 183.11078 187.98172 190.1142 194.11069 197.11763 201.81982 206.68311 210.90204 215.61957 218.05887 220.64392 223.08322 229.70311 234.57407"
         y="264.02759"
         sodipodi:role="line"
         id="tspan160"
         style="stroke-width:0.767078">Genomic distance / Mbp</tspan></text><text
       style="font-variant:normal;font-weight:normal;font-size:7.67078px;font-family:'DejaVu Sans';-inkscape-font-specification:DejaVuSans;writing-mode:lr-tb;fill:#000000;fill-opacity:1;fill-rule:nonzero;stroke:none;stroke-width:0.767078"
       id="text180"
       x="38.514351"
       y="245.25786"><tspan
         x="38.514351 43.392971 45.832279"
         y="245.25786"
         sodipodi:role="line"
         id="tspan178"
         style="stroke-width:0.767078">0.0</tspan></text><text
       style="font-variant:normal;font-weight:normal;font-size:7.67078px;font-family:'DejaVu Sans';-inkscape-font-specification:DejaVuSans;writing-mode:lr-tb;fill:#000000;fill-opacity:1;fill-rule:nonzero;stroke:none;stroke-width:0.767078"
       id="text198"
       x="38.514351"
       y="204.43211"><tspan
         x="38.514351 43.392971 45.832279"
         y="204.43211"
         sodipodi:role="line"
         id="tspan196"
         style="stroke-width:0.767078">0.2</tspan></text><text
       style="font-variant:normal;font-weight:normal;font-size:7.67078px;font-family:'DejaVu Sans';-inkscape-font-specification:DejaVuSans;writing-mode:lr-tb;fill:#000000;fill-opacity:1;fill-rule:nonzero;stroke:none;stroke-width:0.767078"
       id="text216"
       x="38.514351"
       y="163.60635"><tspan
         x="38.514351 43.392971 45.832279"
         y="163.60635"
         sodipodi:role="line"
         id="tspan214"
         style="stroke-width:0.767078">0.4</tspan></text><text
       style="font-variant:normal;font-weight:normal;font-size:7.67078px;font-family:'DejaVu Sans';-inkscape-font-specification:DejaVuSans;writing-mode:lr-tb;fill:#000000;fill-opacity:1;fill-rule:nonzero;stroke:none;stroke-width:0.767078"
       id="text234"
       x="38.514351"
       y="122.78078"><tspan
         x="38.514351 43.392971 45.832279"
         y="122.78078"
         sodipodi:role="line"
         id="tspan232"
         style="stroke-width:0.767078">0.6</tspan></text><text
       style="font-variant:normal;font-weight:normal;font-size:7.67078px;font-family:'DejaVu Sans';-inkscape-font-specification:DejaVuSans;writing-mode:lr-tb;fill:#000000;fill-opacity:1;fill-rule:nonzero;stroke:none;stroke-width:0.767078"
       id="text252"
       x="38.514351"
       y="81.955009"><tspan
         x="38.514351 43.392971 45.832279"
         y="81.955009"
         sodipodi:role="line"
         id="tspan250"
         style="stroke-width:0.767078">0.8</tspan></text><text
       style="font-variant:normal;font-weight:normal;font-size:7.67078px;font-family:'DejaVu Sans';-inkscape-font-specification:DejaVuSans;writing-mode:lr-tb;fill:#000000;fill-opacity:1;fill-rule:nonzero;stroke:none;stroke-width:0.767078"
       id="text270"
       x="38.514351"
       y="41.129189"><tspan
         x="38.514351 43.392971 45.832279"
         y="41.129189"
         sodipodi:role="line"
         id="tspan268"
         style="stroke-width:0.767078">1.0</tspan></text><text
       transform="rotate(-90)"
       style="font-variant:normal;font-weight:normal;font-size:7.67078px;font-family:'DejaVu Sans';-inkscape-font-specification:DejaVuSans;writing-mode:lr-tb;fill:#000000;fill-opacity:1;fill-rule:nonzero;stroke:none;stroke-width:0.767078"
       id="text274"
       x="-177.34045"
       y="33.851955"><tspan
         x="-177.34045 -172.71498 -167.99744 -163.29526 -160.14256 -156.14607 -151.45155 -146.58829 -144.14899 -139.93004 -135.23552 -132.08282 -128.93013 -124.21278 -122.08031 -117.37811 -114.37117 -112.23869 -107.54417"
         y="33.851955"
         sodipodi:role="line"
         id="tspan272"
         style="stroke-width:0.767078">Pearson correlation</tspan></text><text
       style="font-variant:normal;font-weight:normal;font-size:9.20494px;font-family:'DejaVu Sans';-inkscape-font-specification:DejaVuSans;writing-mode:lr-tb;fill:#000000;fill-opacity:1;fill-rule:nonzero;stroke:none;stroke-width:0.767078"
       id="text348"
       x="98.326569"
       y="23.297039"><tspan
         x="98.326569 103.87714 109.53819 115.18082 118.96404 123.75981 129.39323 135.22919 138.15634 143.21906 148.85248 152.63573 156.41895 162.07999 164.63896 170.2816 173.88992 176.44888 182.08232 187.91824 190.84541 196.29475 201.09052 204.0177 206.94487 212.79001 218.45105 224.28696 229.92039 238.886 241.44496 246.50769 249.43486 255.28 257.83899 262.63474 266.2431 271.88568 277.72162 282.78436"
         y="23.297039"
         sodipodi:role="line"
         id="tspan346"
         style="stroke-width:0.767078">Pearson correlation vs. genomic distance</tspan></text><text
       style="font-variant:normal;font-weight:normal;font-size:9.20494px;font-family:'DejaVu Sans';-inkscape-font-specification:DejaVuSans;writing-mode:lr-tb;fill:#000000;fill-opacity:1;fill-rule:nonzero;stroke:none;stroke-width:0.767078"
       id="text352"
       x="63.990509"
       y="33.614216"><tspan
         x="63.990509 71.124344 79.068199 84.922539 90.776878 96.631226 102.48557 108.33991 111.26709 114.19425 120.0486 122.97578 128.83011 131.75728 137.61162 140.5388 146.39314 149.32031 155.17467 158.10182 163.95616 169.8105 172.73769 178.59201 184.44637 187.37354 193.22786 199.0822 202.00938 207.86372 213.71806 216.64523 222.49959 228.35394 231.28108 237.13545 242.98978 245.91696 251.7713 257.62564 260.55283 266.40717 272.26151 275.18866 280.82208 286.65802 289.58521 295.62363 301.47797 307.33231 313.18665 316.11383 319.04102"
         y="33.614216"
         sodipodi:role="line"
         id="tspan350"
         style="stroke-width:0.767078">GM12878, 1,2,4,7,9,11,13,14,16,17,18,20,22 on K562, 5</tspan></text><text
       style="font-variant:normal;font-weight:normal;font-size:7.67076px;font-family:'DejaVu Sans';-inkscape-font-specification:DejaVuSans;writing-mode:lr-tb;fill:#000000;fill-opacity:1;fill-rule:nonzero;stroke:none;stroke-width:0.767076"
       id="text358"
       x="143.51665"
       y="108.16194"><tspan
         x="143.51665 148.39528 153.27391 155.7132 160.43074 165.30168 167.741 170.32603 172.76537 178.01218 183.6272 188.9814 191.56644 194.00575 198.88435 201.32367 206.20232 211.08093"
         y="108.16194"
         sodipodi:role="line"
         id="tspan356"
         style="stroke-width:0.767076">20 ep / AUC: 0.337</tspan></text><text
       style="font-variant:normal;font-weight:normal;font-size:7.67076px;font-family:'DejaVu Sans';-inkscape-font-specification:DejaVuSans;writing-mode:lr-tb;fill:#000000;fill-opacity:1;fill-rule:nonzero;stroke:none;stroke-width:0.767076"
       id="text364"
       x="143.51665"
       y="117.11518"><tspan
         x="143.51665 148.39528 153.27391 155.7132 160.43074 165.30168 167.741 170.32603 172.76537 178.01218 183.6272 188.9814 191.56644 194.00575 198.88435 201.32367 206.20232 211.08093"
         y="117.11518"
         sodipodi:role="line"
         id="tspan362"
         style="stroke-width:0.767076">40 ep / AUC: 0.343</tspan></text><text
       style="font-variant:normal;font-weight:normal;font-size:7.67076px;font-family:'DejaVu Sans';-inkscape-font-specification:DejaVuSans;writing-mode:lr-tb;fill:#000000;fill-opacity:1;fill-rule:nonzero;stroke:none;stroke-width:0.767076"
       id="text370"
       x="143.51665"
       y="126.06843"><tspan
         x="143.51665 148.39528 153.27391 155.7132 160.43074 165.30168 167.741 170.32603 172.76537 178.01218 183.6272 188.9814 191.56644 194.00575 198.88435 201.32367 206.20232 211.08093"
         y="126.06843"
         sodipodi:role="line"
         id="tspan368"
         style="stroke-width:0.767076">60 ep / AUC: 0.339</tspan></text><text
       style="font-variant:normal;font-weight:normal;font-size:7.67076px;font-family:'DejaVu Sans';-inkscape-font-specification:DejaVuSans;writing-mode:lr-tb;fill:#000000;fill-opacity:1;fill-rule:nonzero;stroke:none;stroke-width:0.767076"
       id="text376"
       x="143.51665"
       y="135.02144"><tspan
         x="143.51665 148.39528 153.27391 155.7132 160.43074 165.30168 167.741 170.32603 172.76537 178.01218 183.6272 188.9814 191.56644 194.00575 198.88435 201.32367 206.20232 211.08093"
         y="135.02144"
         sodipodi:role="line"
         id="tspan374"
         style="stroke-width:0.767076">80 ep / AUC: 0.356</tspan></text><text
       style="font-variant:normal;font-weight:normal;font-size:7.67076px;font-family:'DejaVu Sans';-inkscape-font-specification:DejaVuSans;writing-mode:lr-tb;fill:#000000;fill-opacity:1;fill-rule:nonzero;stroke:none;stroke-width:0.767076"
       id="text382"
       x="143.51665"
       y="143.97469"><tspan
         x="143.51665 148.39528 153.27391 158.15251 160.59181 165.30936 170.18028 172.61961 175.20468 177.64398 182.89078 188.50581 193.86002 196.44507 198.88435 203.763 206.20232 211.08093 215.95953"
         y="143.97469"
         sodipodi:role="line"
         id="tspan380"
         style="stroke-width:0.767076">100 ep / AUC: 0.340</tspan></text><text
       style="font-variant:normal;font-weight:normal;font-size:7.67076px;font-family:'DejaVu Sans';-inkscape-font-specification:DejaVuSans;writing-mode:lr-tb;fill:#000000;fill-opacity:1;fill-rule:nonzero;stroke:none;stroke-width:0.767076"
       id="text388"
       x="143.51643"
       y="72.803093"><tspan
         x="143.51643 146.52341 149.67609 154.37827 159.24155 163.23804 165.93814 170.65567 173.80835 176.24767 182.19254 188.81242 193.69104 198.56966 203.44829 208.32689 213.20552 215.64484 218.22987 220.66917 225.91597 231.53102 236.88521 239.47029 241.90959 246.78819 249.22749 254.10609 258.98474"
         y="72.803093"
         sodipodi:role="line"
         id="tspan386"
         style="stroke-width:0.767076">transfer GM12878 / AUC: 0.745</tspan></text></g></svg>
