<?xml version="1.0" encoding="UTF-8" standalone="no"?>
<svg
   xmlns:dc="http://purl.org/dc/elements/1.1/"
   xmlns:cc="http://creativecommons.org/ns#"
   xmlns:rdf="http://www.w3.org/1999/02/22-rdf-syntax-ns#"
   xmlns:svg="http://www.w3.org/2000/svg"
   xmlns="http://www.w3.org/2000/svg"
   xmlns:sodipodi="http://sodipodi.sourceforge.net/DTD/sodipodi-0.dtd"
   xmlns:inkscape="http://www.inkscape.org/namespaces/inkscape"
   version="1.1"
   id="svg2"
   xml:space="preserve"
   width="80mm"
   height="65.300003mm"
   viewBox="0 0 302.36219 246.80316"
   sodipodi:docname="pearson_chr19.svg"
   inkscape:version="1.0.2 (1.0.2+r75+1)"><metadata
     id="metadata8"><rdf:RDF><cc:Work
         rdf:about=""><dc:format>image/svg+xml</dc:format><dc:type
           rdf:resource="http://purl.org/dc/dcmitype/StillImage" /><dc:title></dc:title></cc:Work></rdf:RDF></metadata><defs
     id="defs6"><clipPath
       clipPathUnits="userSpaceOnUse"
       id="clipPath22"><path
         d="M 57.6,38.016 H 414.72 V 304.128 H 57.6 Z"
         id="path20" /></clipPath><clipPath
       clipPathUnits="userSpaceOnUse"
       id="clipPath40"><path
         d="M 57.6,38.016 H 414.72 V 304.128 H 57.6 Z"
         id="path38" /></clipPath><clipPath
       clipPathUnits="userSpaceOnUse"
       id="clipPath58"><path
         d="M 57.6,38.016 H 414.72 V 304.128 H 57.6 Z"
         id="path56" /></clipPath><clipPath
       clipPathUnits="userSpaceOnUse"
       id="clipPath76"><path
         d="M 57.6,38.016 H 414.72 V 304.128 H 57.6 Z"
         id="path74" /></clipPath><clipPath
       clipPathUnits="userSpaceOnUse"
       id="clipPath94"><path
         d="M 57.6,38.016 H 414.72 V 304.128 H 57.6 Z"
         id="path92" /></clipPath><clipPath
       clipPathUnits="userSpaceOnUse"
       id="clipPath112"><path
         d="M 57.6,38.016 H 414.72 V 304.128 H 57.6 Z"
         id="path110" /></clipPath><clipPath
       clipPathUnits="userSpaceOnUse"
       id="clipPath130"><path
         d="M 57.6,38.016 H 414.72 V 304.128 H 57.6 Z"
         id="path128" /></clipPath><clipPath
       clipPathUnits="userSpaceOnUse"
       id="clipPath148"><path
         d="M 57.6,38.016 H 414.72 V 304.128 H 57.6 Z"
         id="path146" /></clipPath><clipPath
       clipPathUnits="userSpaceOnUse"
       id="clipPath170"><path
         d="M 57.6,38.016 H 414.72 V 304.128 H 57.6 Z"
         id="path168" /></clipPath><clipPath
       clipPathUnits="userSpaceOnUse"
       id="clipPath188"><path
         d="M 57.6,38.016 H 414.72 V 304.128 H 57.6 Z"
         id="path186" /></clipPath><clipPath
       clipPathUnits="userSpaceOnUse"
       id="clipPath206"><path
         d="M 57.6,38.016 H 414.72 V 304.128 H 57.6 Z"
         id="path204" /></clipPath><clipPath
       clipPathUnits="userSpaceOnUse"
       id="clipPath224"><path
         d="M 57.6,38.016 H 414.72 V 304.128 H 57.6 Z"
         id="path222" /></clipPath><clipPath
       clipPathUnits="userSpaceOnUse"
       id="clipPath242"><path
         d="M 57.6,38.016 H 414.72 V 304.128 H 57.6 Z"
         id="path240" /></clipPath><clipPath
       clipPathUnits="userSpaceOnUse"
       id="clipPath260"><path
         d="M 57.6,38.016 H 414.72 V 304.128 H 57.6 Z"
         id="path258" /></clipPath><clipPath
       clipPathUnits="userSpaceOnUse"
       id="clipPath282"><path
         d="M 57.6,38.016 H 414.72 V 304.128 H 57.6 Z"
         id="path280" /></clipPath><clipPath
       clipPathUnits="userSpaceOnUse"
       id="clipPath292"><path
         d="M 57.6,38.016 H 414.72 V 304.128 H 57.6 Z"
         id="path290" /></clipPath><clipPath
       clipPathUnits="userSpaceOnUse"
       id="clipPath302"><path
         d="M 57.6,38.016 H 414.72 V 304.128 H 57.6 Z"
         id="path300" /></clipPath><clipPath
       clipPathUnits="userSpaceOnUse"
       id="clipPath312"><path
         d="M 57.6,38.016 H 414.72 V 304.128 H 57.6 Z"
         id="path310" /></clipPath><clipPath
       clipPathUnits="userSpaceOnUse"
       id="clipPath322"><path
         d="M 57.6,38.016 H 414.72 V 304.128 H 57.6 Z"
         id="path320" /></clipPath><clipPath
       clipPathUnits="userSpaceOnUse"
       id="clipPath332"><path
         d="M 57.6,38.016 H 414.72 V 304.128 H 57.6 Z"
         id="path330" /></clipPath></defs><sodipodi:namedview
     pagecolor="#ffffff"
     bordercolor="#666666"
     borderopacity="1"
     objecttolerance="10"
     gridtolerance="10"
     guidetolerance="10"
     inkscape:pageopacity="0"
     inkscape:pageshadow="2"
     inkscape:window-width="1920"
     inkscape:window-height="1020"
     id="namedview4"
     showgrid="false"
     fit-margin-top="0"
     fit-margin-left="0"
     fit-margin-right="0"
     fit-margin-bottom="0"
     units="mm"
     inkscape:zoom="2.6301672"
     inkscape:cx="74.846541"
     inkscape:cy="42.858422"
     inkscape:window-x="0"
     inkscape:window-y="0"
     inkscape:window-maximized="1"
     inkscape:current-layer="layer1" /><g
     id="g10"
     inkscape:groupmode="layer"
     inkscape:label="pearson_chr19"
     transform="matrix(1.3333333,0,0,-1.3333333,-28.023958,443.59358)"><g
       id="g16"
       transform="matrix(0.57537649,0,0,0.57537649,8.9247239,141.9831)"><g
         id="g18"
         clip-path="url(#clipPath22)"><path
           d="M 57.6,38.016 V 304.128"
           style="fill:none;stroke:#b0b0b0;stroke-width:0.8;stroke-linecap:square;stroke-linejoin:round;stroke-miterlimit:10;stroke-dasharray:none;stroke-opacity:1"
           id="path24" /></g></g><path
       d="m 42.066409,163.85661 v -2.01382"
       style="fill:#000000;fill-opacity:1;fill-rule:nonzero;stroke:#000000;stroke-width:0.460301;stroke-linecap:butt;stroke-linejoin:round;stroke-miterlimit:10;stroke-dasharray:none;stroke-opacity:1"
       id="path28" /><g
       id="g34"
       transform="matrix(0.57537649,0,0,0.57537649,8.9247239,141.9831)"><g
         id="g36"
         clip-path="url(#clipPath40)"><path
           d="M 102.94857,38.016 V 304.128"
           style="fill:none;stroke:#b0b0b0;stroke-width:0.8;stroke-linecap:square;stroke-linejoin:round;stroke-miterlimit:10;stroke-dasharray:none;stroke-opacity:1"
           id="path42" /></g></g><path
       d="m 68.15891,163.85661 v -2.01382"
       style="fill:#000000;fill-opacity:1;fill-rule:nonzero;stroke:#000000;stroke-width:0.460301;stroke-linecap:butt;stroke-linejoin:round;stroke-miterlimit:10;stroke-dasharray:none;stroke-opacity:1"
       id="path46" /><g
       id="g52"
       transform="matrix(0.57537649,0,0,0.57537649,8.9247239,141.9831)"><g
         id="g54"
         clip-path="url(#clipPath58)"><path
           d="M 148.29714,38.016 V 304.128"
           style="fill:none;stroke:#b0b0b0;stroke-width:0.8;stroke-linecap:square;stroke-linejoin:round;stroke-miterlimit:10;stroke-dasharray:none;stroke-opacity:1"
           id="path60" /></g></g><path
       d="m 94.251411,163.85661 v -2.01382"
       style="fill:#000000;fill-opacity:1;fill-rule:nonzero;stroke:#000000;stroke-width:0.460301;stroke-linecap:butt;stroke-linejoin:round;stroke-miterlimit:10;stroke-dasharray:none;stroke-opacity:1"
       id="path64" /><g
       id="g70"
       transform="matrix(0.57537649,0,0,0.57537649,8.9247239,141.9831)"><g
         id="g72"
         clip-path="url(#clipPath76)"><path
           d="M 193.64571,38.016 V 304.128"
           style="fill:none;stroke:#b0b0b0;stroke-width:0.8;stroke-linecap:square;stroke-linejoin:round;stroke-miterlimit:10;stroke-dasharray:none;stroke-opacity:1"
           id="path78" /></g></g><path
       d="m 120.34391,163.85661 v -2.01382"
       style="fill:#000000;fill-opacity:1;fill-rule:nonzero;stroke:#000000;stroke-width:0.460301;stroke-linecap:butt;stroke-linejoin:round;stroke-miterlimit:10;stroke-dasharray:none;stroke-opacity:1"
       id="path82" /><g
       id="g88"
       transform="matrix(0.57537649,0,0,0.57537649,8.9247239,141.9831)"><g
         id="g90"
         clip-path="url(#clipPath94)"><path
           d="M 238.99429,38.016 V 304.128"
           style="fill:none;stroke:#b0b0b0;stroke-width:0.8;stroke-linecap:square;stroke-linejoin:round;stroke-miterlimit:10;stroke-dasharray:none;stroke-opacity:1"
           id="path96" /></g></g><path
       d="m 146.43642,163.85661 v -2.01382"
       style="fill:#000000;fill-opacity:1;fill-rule:nonzero;stroke:#000000;stroke-width:0.460301;stroke-linecap:butt;stroke-linejoin:round;stroke-miterlimit:10;stroke-dasharray:none;stroke-opacity:1"
       id="path100" /><g
       id="g106"
       transform="matrix(0.57537649,0,0,0.57537649,8.9247239,141.9831)"><g
         id="g108"
         clip-path="url(#clipPath112)"><path
           d="M 284.34286,38.016 V 304.128"
           style="fill:none;stroke:#b0b0b0;stroke-width:0.8;stroke-linecap:square;stroke-linejoin:round;stroke-miterlimit:10;stroke-dasharray:none;stroke-opacity:1"
           id="path114" /></g></g><path
       d="m 172.52892,163.85661 v -2.01382"
       style="fill:#000000;fill-opacity:1;fill-rule:nonzero;stroke:#000000;stroke-width:0.460301;stroke-linecap:butt;stroke-linejoin:round;stroke-miterlimit:10;stroke-dasharray:none;stroke-opacity:1"
       id="path118" /><g
       id="g124"
       transform="matrix(0.57537649,0,0,0.57537649,8.9247239,141.9831)"><g
         id="g126"
         clip-path="url(#clipPath130)"><path
           d="M 329.69143,38.016 V 304.128"
           style="fill:none;stroke:#b0b0b0;stroke-width:0.8;stroke-linecap:square;stroke-linejoin:round;stroke-miterlimit:10;stroke-dasharray:none;stroke-opacity:1"
           id="path132" /></g></g><path
       d="m 198.62142,163.85661 v -2.01382"
       style="fill:#000000;fill-opacity:1;fill-rule:nonzero;stroke:#000000;stroke-width:0.460301;stroke-linecap:butt;stroke-linejoin:round;stroke-miterlimit:10;stroke-dasharray:none;stroke-opacity:1"
       id="path136" /><g
       id="g142"
       transform="matrix(0.57537649,0,0,0.57537649,8.9247239,141.9831)"><g
         id="g144"
         clip-path="url(#clipPath148)"><path
           d="M 375.04,38.016 V 304.128"
           style="fill:none;stroke:#b0b0b0;stroke-width:0.8;stroke-linecap:square;stroke-linejoin:round;stroke-miterlimit:10;stroke-dasharray:none;stroke-opacity:1"
           id="path150" /></g></g><path
       d="m 224.71392,163.85661 v -2.01382"
       style="fill:#000000;fill-opacity:1;fill-rule:nonzero;stroke:#000000;stroke-width:0.460301;stroke-linecap:butt;stroke-linejoin:round;stroke-miterlimit:10;stroke-dasharray:none;stroke-opacity:1"
       id="path154" /><g
       id="g164"
       transform="matrix(0.57537649,0,0,0.57537649,8.9247239,141.9831)"><g
         id="g166"
         clip-path="url(#clipPath170)"><path
           d="M 57.6,38.016 H 414.72"
           style="fill:none;stroke:#b0b0b0;stroke-width:0.8;stroke-linecap:square;stroke-linejoin:round;stroke-miterlimit:10;stroke-dasharray:none;stroke-opacity:1"
           id="path172" /></g></g><path
       d="M 42.066409,163.85661 H 40.052592"
       style="fill:#000000;fill-opacity:1;fill-rule:nonzero;stroke:#000000;stroke-width:0.460301;stroke-linecap:butt;stroke-linejoin:round;stroke-miterlimit:10;stroke-dasharray:none;stroke-opacity:1"
       id="path176" /><g
       id="g182"
       transform="matrix(0.57537649,0,0,0.57537649,8.9247239,141.9831)"><g
         id="g184"
         clip-path="url(#clipPath188)"><path
           d="M 57.6,91.2384 H 414.72"
           style="fill:none;stroke:#b0b0b0;stroke-width:0.8;stroke-linecap:square;stroke-linejoin:round;stroke-miterlimit:10;stroke-dasharray:none;stroke-opacity:1"
           id="path190" /></g></g><path
       d="M 42.066409,194.47953 H 40.052592"
       style="fill:#000000;fill-opacity:1;fill-rule:nonzero;stroke:#000000;stroke-width:0.460301;stroke-linecap:butt;stroke-linejoin:round;stroke-miterlimit:10;stroke-dasharray:none;stroke-opacity:1"
       id="path194" /><g
       id="g200"
       transform="matrix(0.57537649,0,0,0.57537649,8.9247239,141.9831)"><g
         id="g202"
         clip-path="url(#clipPath206)"><path
           d="M 57.6,144.4608 H 414.72"
           style="fill:none;stroke:#b0b0b0;stroke-width:0.8;stroke-linecap:square;stroke-linejoin:round;stroke-miterlimit:10;stroke-dasharray:none;stroke-opacity:1"
           id="path208" /></g></g><path
       d="M 42.066409,225.10245 H 40.052592"
       style="fill:#000000;fill-opacity:1;fill-rule:nonzero;stroke:#000000;stroke-width:0.460301;stroke-linecap:butt;stroke-linejoin:round;stroke-miterlimit:10;stroke-dasharray:none;stroke-opacity:1"
       id="path212" /><g
       id="g218"
       transform="matrix(0.57537649,0,0,0.57537649,8.9247239,141.9831)"><g
         id="g220"
         clip-path="url(#clipPath224)"><path
           d="M 57.6,197.6832 H 414.72"
           style="fill:none;stroke:#b0b0b0;stroke-width:0.8;stroke-linecap:square;stroke-linejoin:round;stroke-miterlimit:10;stroke-dasharray:none;stroke-opacity:1"
           id="path226" /></g></g><path
       d="M 42.066409,255.72537 H 40.052592"
       style="fill:#000000;fill-opacity:1;fill-rule:nonzero;stroke:#000000;stroke-width:0.460301;stroke-linecap:butt;stroke-linejoin:round;stroke-miterlimit:10;stroke-dasharray:none;stroke-opacity:1"
       id="path230" /><g
       id="g236"
       transform="matrix(0.57537649,0,0,0.57537649,8.9247239,141.9831)"><g
         id="g238"
         clip-path="url(#clipPath242)"><path
           d="M 57.6,250.9056 H 414.72"
           style="fill:none;stroke:#b0b0b0;stroke-width:0.8;stroke-linecap:square;stroke-linejoin:round;stroke-miterlimit:10;stroke-dasharray:none;stroke-opacity:1"
           id="path244" /></g></g><path
       d="M 42.066409,286.34828 H 40.052592"
       style="fill:#000000;fill-opacity:1;fill-rule:nonzero;stroke:#000000;stroke-width:0.460301;stroke-linecap:butt;stroke-linejoin:round;stroke-miterlimit:10;stroke-dasharray:none;stroke-opacity:1"
       id="path248" /><g
       id="g254"
       transform="matrix(0.57537649,0,0,0.57537649,8.9247239,141.9831)"><g
         id="g256"
         clip-path="url(#clipPath260)"><path
           d="M 57.6,304.128 H 414.72"
           style="fill:none;stroke:#b0b0b0;stroke-width:0.8;stroke-linecap:square;stroke-linejoin:round;stroke-miterlimit:10;stroke-dasharray:none;stroke-opacity:1"
           id="path262" /></g></g><path
       d="M 42.066409,316.9712 H 40.052592"
       style="fill:#000000;fill-opacity:1;fill-rule:nonzero;stroke:#000000;stroke-width:0.460301;stroke-linecap:butt;stroke-linejoin:round;stroke-miterlimit:10;stroke-dasharray:none;stroke-opacity:1"
       id="path266" /><g
       id="g278"
       clip-path="url(#clipPath282)"
       transform="matrix(0.57537649,0,0,0.57537649,8.9247239,141.9831)"><path
         d="m 57.6,243.76131 5.668571,1.21509 5.668572,-17.71525 5.668571,-13.046 5.668572,-9.71706 5.668571,-6.0906 5.668572,-5.17939 5.668571,-6.2662 5.66857,-7.80702 5.66857,-5.99825 5.66857,-6.20266 5.66858,-9.91756 5.66857,-2.94299 5.66857,-4.97604 5.66857,-4.45327 5.66857,-3.13322 5.66857,-4.53695 5.66857,-2.27398 5.66858,-3.32773 5.66857,-3.90297 5.66857,-1.83366 5.66857,-7.33379 5.66857,-4.1222 5.66857,-1.23122 5.66857,-6.96457 5.66858,-5.42614 5.66857,-1.896967 5.66857,-2.744505 5.66857,-6.388375 5.66857,-5.418347 5.66857,-3.752925 5.66857,4.472676 5.66858,-7.319112 5.66857,-2.909956 5.66857,-5.223192 5.66857,-1.000998 5.66857,-3.336245 5.66857,1.441316 5.66857,-6.717031 5.66858,2.372874 5.66857,-8.18489 5.66857,7.664392 5.66857,-3.417548 5.66857,-4.271625 5.66857,-5.765071 5.66857,3.514221 5.66858,-0.724697 5.66857,-3.05645 5.66857,-2.808585 5.66857,-5.789326 5.66857,3.052673 5.66857,0.08154 5.66857,0.548735 5.66858,-5.37421 5.66857,-3.223509 5.66857,6.131249 5.66857,-8.753645 5.66857,-0.843035 5.66857,-5.451651 5.66857,1.480202 5.66858,-2.703947 5.66857,5.693814 5.66857,-1.964364 5.66857,4.707985"
         style="fill:none;stroke:#1f77b4;stroke-width:1.5;stroke-linecap:square;stroke-linejoin:round;stroke-miterlimit:10;stroke-dasharray:none;stroke-opacity:1"
         id="path284" /></g><g
       id="g288"
       clip-path="url(#clipPath292)"
       transform="matrix(0.57537649,0,0,0.57537649,8.9247239,141.9831)"><path
         d="m 57.6,251.82587 5.668571,0.0743 5.668572,-21.65243 5.668571,-13.92553 5.668572,-11.65834 5.668571,-5.94216 5.668572,-4.28448 5.668571,-7.22267 5.66857,-6.75112 5.66857,-5.38687 5.66857,-4.93978 5.66858,-9.61425 5.66857,-1.94595 5.66857,-3.31715 5.66857,-2.50635 5.66857,-0.59741 5.66857,-4.39646 5.66857,-2.06616 5.66858,-2.74156 5.66857,-2.80881 5.66857,-0.24153 5.66857,-5.73551 5.66857,-2.7144 5.66857,0.25461 5.66857,-7.83941 5.66858,-2.2448 5.66857,-1.58028 5.66857,-3.83622 5.66857,-3.23942 5.66857,-4.22449 5.66857,-3.99504 5.66857,4.75921 5.66858,-6.20358 5.66857,0.35988 5.66857,-5.590674 5.66857,-0.810134 5.66857,-3.114725 5.66857,0.878351 5.66857,-5.315712 5.66858,2.512027 5.66857,-6.073095 5.66857,9.069077 5.66857,-7.912333 5.66857,-2.38341 5.66857,-5.431743 5.66857,4.411138 5.66858,-1.71725 5.66857,-0.893816 5.66857,-0.790399 5.66857,-6.29106 5.66857,4.128077 5.66857,2.955995 5.66857,1.059279 5.66858,-6.070545 5.66857,-2.9206 5.66857,5.098817 5.66857,-3.515945 5.66857,-7.039341 5.66857,-2.777614 5.66857,3.336239 5.66858,-2.954288 5.66857,-2.428088 5.66857,-3.139644 5.66857,7.119864"
         style="fill:none;stroke:#ff7f0e;stroke-width:1.5;stroke-linecap:square;stroke-linejoin:round;stroke-miterlimit:10;stroke-dasharray:none;stroke-opacity:1"
         id="path294" /></g><g
       id="g298"
       clip-path="url(#clipPath302)"
       transform="matrix(0.57537649,0,0,0.57537649,8.9247239,141.9831)"><path
         d="m 57.6,255.01732 5.668571,-0.81282 5.668572,-22.6134 5.668571,-14.06939 5.668572,-11.70804 5.668571,-5.92327 5.668572,-3.93486 5.668571,-7.20398 5.66857,-6.77263 5.66857,-4.86926 5.66857,-5.10866 5.66858,-9.40106 5.66857,-2.25384 5.66857,-3.69937 5.66857,-3.03016 5.66857,-0.32035 5.66857,-3.97035 5.66857,-3.66401 5.66858,-3.57555 5.66857,-2.67459 5.66857,0.22662 5.66857,-5.65531 5.66857,-2.46901 5.66857,-0.25861 5.66857,-6.82352 5.66858,-1.29757 5.66857,-0.37227 5.66857,-3.52369 5.66857,-2.21247 5.66857,-4.54092 5.66857,-4.48658 5.66857,5.04472 5.66858,-6.94111 5.66857,0.68604 5.66857,-5.38794 5.66857,-0.6899 5.66857,-3.146147 5.66857,0.972798 5.66857,-5.614828 5.66858,2.093327 5.66857,-4.901473 5.66857,9.494633 5.66857,-6.7515 5.66857,-1.026489 5.66857,-7.221611 5.66857,4.219304 5.66858,-1.936536 5.66857,-0.176582 5.66857,-1.574334 5.66857,-5.8984 5.66857,4.534211 5.66857,1.823459 5.66857,1.266086 5.66858,-3.611163 5.66857,-7.017255 5.66857,5.666977 5.66857,-3.68116 5.66857,-6.057344 5.66857,-1.433631 5.66857,0.547936 5.66858,-2.382978 5.66857,-2.385161 5.66857,-4.694882 5.66857,2.2322"
         style="fill:none;stroke:#2ca02c;stroke-width:1.5;stroke-linecap:square;stroke-linejoin:round;stroke-miterlimit:10;stroke-dasharray:none;stroke-opacity:1"
         id="path304" /></g><g
       id="g308"
       clip-path="url(#clipPath312)"
       style="stroke:#8c564b;stroke-opacity:1"
       transform="matrix(0.57537649,0,0,0.57537649,8.9247239,141.9831)"><path
         d="m 57.6,255.74684 5.668571,-1.11994 5.668572,-22.82438 5.668571,-13.80213 5.668572,-11.24427 5.668571,-5.15138 5.668572,-2.86275 5.668571,-6.73885 5.66857,-6.50138 5.66857,-4.54725 5.66857,-5.31939 5.66858,-9.90737 5.66857,-2.18276 5.66857,-3.81771 5.66857,-3.88808 5.66857,-0.61179 5.66857,-4.55243 5.66857,-3.74456 5.66858,-3.6139 5.66857,-2.85473 5.66857,-0.47227 5.66857,-4.88058 5.66857,-2.28922 5.66857,-0.46325 5.66857,-6.54497 5.66858,-0.62275 5.66857,-0.51987 5.66857,-2.84763 5.66857,-2.76983 5.66857,-3.65107 5.66857,-4.57296 5.66857,5.16819 5.66858,-7.80986 5.66857,2.44029 5.66857,-5.25463 5.66857,0.6247 5.66857,-3.84366 5.66857,2.01857 5.66857,-5.174768 5.66858,1.514568 5.66857,-4.332587 5.66857,9.798627 5.66857,-7.179935 5.66857,-0.382049 5.66857,-8.1726 5.66857,2.05041 5.66858,-1.52238 5.66857,0.786612 5.66857,0.245191 5.66857,-5.880659 5.66857,2.113721 5.66857,2.109398 5.66857,3.029954 5.66858,-3.520027 5.66857,-6.576761 5.66857,6.323302 5.66857,-4.130222 5.66857,-6.627979 5.66857,-2.417544 5.66857,-1.545196 5.66858,-0.902167 5.66857,-4.333121 5.66857,-0.936539 5.66857,0.62894"
         style="fill:none;stroke:#8c564b;stroke-width:1.5;stroke-linecap:square;stroke-linejoin:round;stroke-miterlimit:10;stroke-dasharray:none;stroke-opacity:1"
         id="path314" /></g><g
       id="g318"
       clip-path="url(#clipPath322)"
       transform="matrix(0.57537649,0,0,0.57537649,8.9247239,141.9831)"><path
         d="m 57.6,255.49117 5.668571,-0.58322 5.668572,-22.70006 5.668571,-13.66669 5.668572,-10.67852 5.668571,-5.22611 5.668572,-2.90804 5.668571,-6.89067 5.66857,-7.15685 5.66857,-3.31477 5.66857,-4.22622 5.66858,-10.1527 5.66857,-1.82632 5.66857,-3.91976 5.66857,-3.52603 5.66857,-1.16782 5.66857,-5.27075 5.66857,-3.96681 5.66858,-3.67697 5.66857,-2.50316 5.66857,-0.22712 5.66857,-4.94962 5.66857,-2.59167 5.66857,-1.64721 5.66857,-7.20283 5.66858,-0.0325 5.66857,0.76795 5.66857,-1.95363 5.66857,-2.14257 5.66857,-2.20435 5.66857,-4.03951 5.66857,4.37778 5.66858,-6.72736 5.66857,2.27639 5.66857,-3.6869 5.66857,0.93826 5.66857,-5.03443 5.66857,2.70439 5.66857,-3.92468 5.66858,1.84667 5.66857,-3.89168 5.66857,10.90275 5.66857,-7.0542 5.66857,2.45105 5.66857,-8.29357 5.66857,2.1479 5.66858,-3.75122 5.66857,-0.52957 5.66857,-1.775233 5.66857,-4.792714 5.66857,1.631511 5.66857,2.21347 5.66857,0.74852 5.66858,-3.420602 5.66857,-7.930482 5.66857,5.427242 5.66857,-5.263745 5.66857,-7.956892 5.66857,-2.68069 5.66857,-0.0174 5.66858,-3.983769 5.66857,-2.151693 5.66857,0.758192 5.66857,2.637"
         style="fill:none;stroke:#9467bd;stroke-width:1.5;stroke-linecap:square;stroke-linejoin:round;stroke-miterlimit:10;stroke-dasharray:none;stroke-opacity:1"
         id="path324" /></g><g
       id="g328"
       clip-path="url(#clipPath332)"
       style="stroke:#d62728;stroke-opacity:1"
       transform="matrix(0.57537649,0,0,0.57537649,8.9247239,141.9831)"><path
         d="m 57.6,291.21219 5.668571,-7.83046 5.668572,-4.86458 5.668571,-2.46954 5.668572,-1.96157 5.668571,-0.70339 5.668572,-0.77901 5.668571,0.56941 5.66857,1.44261 5.66857,-4.23176 5.66857,1.35083 5.66858,-2.28237 5.66857,-2.93286 5.66857,-3.08073 5.66857,-2.14705 5.66857,-0.83498 5.66857,-1.68169 5.66857,-3.59095 5.66858,-1.50789 5.66857,-0.86811 5.66857,1.0161 5.66857,-3.60562 5.66857,0.81065 5.66857,-1.96396 5.66857,-1.65329 5.66858,-1.46005 5.66857,-2.29329 5.66857,-0.0795 5.66857,2.51759 5.66857,-2.46762 5.66857,2.05221 5.66857,-3.78015 5.66858,-1.24809 5.66857,0.76119 5.66857,-0.93235 5.66857,1.35451 5.66857,-1.54374 5.66857,-3.18044 5.66857,-0.20368 5.66858,-0.82129 5.66857,-4.32261 5.66857,3.89268 5.66857,-4.43393 5.66857,1.02919 5.66857,-1.49329 5.66857,1.7614 5.66858,-8.713 5.66857,6.54481 5.66857,-2.93798 5.66857,2.2996 5.66857,-0.0617 5.66857,0.9859 5.66857,1.41998 5.66858,-2.47145 5.66857,-3.724 5.66857,1.31946 5.66857,2.11197 5.66857,1.16673 5.66857,-0.26716 5.66857,5.12537 5.66858,3.04913 5.66857,2.81569 5.66857,4.55411 5.66857,0.40623"
         style="fill:none;stroke:#d62728;stroke-width:1.5;stroke-linecap:square;stroke-linejoin:round;stroke-miterlimit:10;stroke-dasharray:none;stroke-opacity:1"
         id="path334" /></g><path
       d="M 42.066409,163.85661 V 316.9712"
       style="fill:none;stroke:#000000;stroke-width:0.460301;stroke-linecap:square;stroke-linejoin:miter;stroke-miterlimit:10;stroke-dasharray:none;stroke-opacity:1"
       id="path338" /><path
       d="M 247.54485,163.85661 V 316.9712"
       style="fill:none;stroke:#000000;stroke-width:0.460301;stroke-linecap:square;stroke-linejoin:miter;stroke-miterlimit:10;stroke-dasharray:none;stroke-opacity:1"
       id="path340" /><path
       d="M 42.066409,163.85661 H 247.54485"
       style="fill:none;stroke:#000000;stroke-width:0.460301;stroke-linecap:square;stroke-linejoin:miter;stroke-miterlimit:10;stroke-dasharray:none;stroke-opacity:1"
       id="path342" /><path
       d="M 42.066409,316.9712 H 247.54485"
       style="fill:none;stroke:#000000;stroke-width:0.460301;stroke-linecap:square;stroke-linejoin:miter;stroke-miterlimit:10;stroke-dasharray:none;stroke-opacity:1"
       id="path344" /><path
       d="m 106.6875,265.43202 h 11.50753"
       style="fill:none;stroke:#1f77b4;stroke-width:0.863064;stroke-linecap:square;stroke-linejoin:round;stroke-miterlimit:10;stroke-dasharray:none;stroke-opacity:1"
       id="path354" /><path
       d="m 106.6875,258.65214 h 11.50753"
       style="fill:none;stroke:#ff7f0e;stroke-width:0.863064;stroke-linecap:square;stroke-linejoin:round;stroke-miterlimit:10;stroke-dasharray:none;stroke-opacity:1"
       id="path360" /><path
       d="m 106.6875,251.0168 h 11.50753"
       style="fill:none;stroke:#2ca02c;stroke-width:0.863064;stroke-linecap:square;stroke-linejoin:round;stroke-miterlimit:10;stroke-dasharray:none;stroke-opacity:1"
       id="path366" /><path
       d="m 106.6875,243.38147 h 11.50753"
       style="fill:none;stroke:#8c564b;stroke-width:0.863064;stroke-linecap:square;stroke-linejoin:round;stroke-miterlimit:10;stroke-dasharray:none;stroke-opacity:1"
       id="path372" /><path
       d="m 106.6875,235.74614 h 11.50753"
       style="fill:none;stroke:#9467bd;stroke-width:0.863064;stroke-linecap:square;stroke-linejoin:round;stroke-miterlimit:10;stroke-dasharray:none;stroke-opacity:1"
       id="path378" /><path
       d="m 106.6875,228.1108 h 11.50753"
       style="fill:none;stroke:#d62728;stroke-width:0.863064;stroke-linecap:square;stroke-linejoin:round;stroke-miterlimit:10;stroke-dasharray:none;stroke-opacity:1"
       id="path384" /></g><g
     inkscape:groupmode="layer"
     id="layer1"
     inkscape:label="text"
     style="display:inline"
     transform="translate(-28.023958,-17.206424)"><text
       style="font-variant:normal;font-weight:normal;font-size:7.67169px;font-family:'DejaVu Sans';-inkscape-font-specification:DejaVuSans;writing-mode:lr-tb;fill:#000000;fill-opacity:1;fill-rule:nonzero;stroke:none;stroke-width:0.767169"
       id="text32"
       x="53.987152"
       y="253.52045"><tspan
         x="53.987152 58.866348 61.305943"
         y="253.52045"
         sodipodi:role="line"
         id="tspan30"
         style="stroke-width:0.767169">0.0</tspan></text><text
       style="font-variant:normal;font-weight:normal;font-size:7.67169px;font-family:'DejaVu Sans';-inkscape-font-specification:DejaVuSans;writing-mode:lr-tb;fill:#000000;fill-opacity:1;fill-rule:nonzero;stroke:none;stroke-width:0.767169"
       id="text50"
       x="84.777153"
       y="253.52045"><tspan
         x="84.777153 89.656357 92.095947"
         y="253.52045"
         sodipodi:role="line"
         id="tspan48"
         style="stroke-width:0.767169">0.2</tspan></text><text
       style="font-variant:normal;font-weight:normal;font-size:7.67169px;font-family:'DejaVu Sans';-inkscape-font-specification:DejaVuSans;writing-mode:lr-tb;fill:#000000;fill-opacity:1;fill-rule:nonzero;stroke:none;stroke-width:0.767169"
       id="text68"
       x="119.56716"
       y="253.52045"><tspan
         x="119.56716 124.44636 126.88596"
         y="253.52045"
         sodipodi:role="line"
         id="tspan66"
         style="stroke-width:0.767169">0.4</tspan></text><text
       style="font-variant:normal;font-weight:normal;font-size:7.67169px;font-family:'DejaVu Sans';-inkscape-font-specification:DejaVuSans;writing-mode:lr-tb;fill:#000000;fill-opacity:1;fill-rule:nonzero;stroke:none;stroke-width:0.767169"
       id="text86"
       x="154.35716"
       y="253.52045"><tspan
         x="154.35716 159.23636 161.67595"
         y="253.52045"
         sodipodi:role="line"
         id="tspan84"
         style="stroke-width:0.767169">0.6</tspan></text><text
       style="font-variant:normal;font-weight:normal;font-size:7.67169px;font-family:'DejaVu Sans';-inkscape-font-specification:DejaVuSans;writing-mode:lr-tb;fill:#000000;fill-opacity:1;fill-rule:nonzero;stroke:none;stroke-width:0.767169"
       id="text104"
       x="189.14716"
       y="253.52045"><tspan
         x="189.14716 194.02635 196.46596"
         y="253.52045"
         sodipodi:role="line"
         id="tspan102"
         style="stroke-width:0.767169">0.8</tspan></text><text
       style="font-variant:normal;font-weight:normal;font-size:7.67169px;font-family:'DejaVu Sans';-inkscape-font-specification:DejaVuSans;writing-mode:lr-tb;fill:#000000;fill-opacity:1;fill-rule:nonzero;stroke:none;stroke-width:0.767169"
       id="text122"
       x="223.93718"
       y="253.52045"><tspan
         x="223.93718 228.81635 231.25594"
         y="253.52045"
         sodipodi:role="line"
         id="tspan120"
         style="stroke-width:0.767169">1.0</tspan></text><text
       style="font-variant:normal;font-weight:normal;font-size:7.67169px;font-family:'DejaVu Sans';-inkscape-font-specification:DejaVuSans;writing-mode:lr-tb;fill:#000000;fill-opacity:1;fill-rule:nonzero;stroke:none;stroke-width:0.767169"
       id="text140"
       x="258.72717"
       y="253.52045"><tspan
         x="258.72717 263.60635 266.04596"
         y="253.52045"
         sodipodi:role="line"
         id="tspan138"
         style="stroke-width:0.767169">1.2</tspan></text><text
       style="font-variant:normal;font-weight:normal;font-size:7.67169px;font-family:'DejaVu Sans';-inkscape-font-specification:DejaVuSans;writing-mode:lr-tb;fill:#000000;fill-opacity:1;fill-rule:nonzero;stroke:none;stroke-width:0.767169"
       id="text158"
       x="293.51718"
       y="253.52045"><tspan
         x="293.51718 298.39636 300.83594"
         y="253.52045"
         sodipodi:role="line"
         id="tspan156"
         style="stroke-width:0.767169">1.4</tspan></text><text
       style="font-variant:normal;font-weight:normal;font-size:7.67169px;font-family:'DejaVu Sans';-inkscape-font-specification:DejaVuSans;writing-mode:lr-tb;fill:#000000;fill-opacity:1;fill-rule:nonzero;stroke:none;stroke-width:0.767169"
       id="text162"
       x="146.6425"
       y="264.00894"><tspan
         x="146.6425 152.58806 157.30614 162.16998 166.86507 174.33728 176.47002 180.68944 183.12904 188.00053 190.13327 194.13023 197.13753 201.84029 206.70412 210.92355 215.64165 218.08122 220.66658 223.10619 229.72684 234.59837"
         y="264.00894"
         sodipodi:role="line"
         id="tspan160"
         style="stroke-width:0.767169">Genomic distance / Mbp</tspan></text><text
       style="font-variant:normal;font-weight:normal;font-size:7.67169px;font-family:'DejaVu Sans';-inkscape-font-specification:DejaVuSans;writing-mode:lr-tb;fill:#000000;fill-opacity:1;fill-rule:nonzero;stroke:none;stroke-width:0.767169"
       id="text180"
       x="38.515587"
       y="245.23743"><tspan
         x="38.515587 43.394779 45.834377"
         y="245.23743"
         sodipodi:role="line"
         id="tspan178"
         style="stroke-width:0.767169">0.0</tspan></text><text
       style="font-variant:normal;font-weight:normal;font-size:7.67169px;font-family:'DejaVu Sans';-inkscape-font-specification:DejaVuSans;writing-mode:lr-tb;fill:#000000;fill-opacity:1;fill-rule:nonzero;stroke:none;stroke-width:0.767169"
       id="text198"
       x="38.515587"
       y="204.40686"><tspan
         x="38.515587 43.394779 45.834377"
         y="204.40686"
         sodipodi:role="line"
         id="tspan196"
         style="stroke-width:0.767169">0.2</tspan></text><text
       style="font-variant:normal;font-weight:normal;font-size:7.67169px;font-family:'DejaVu Sans';-inkscape-font-specification:DejaVuSans;writing-mode:lr-tb;fill:#000000;fill-opacity:1;fill-rule:nonzero;stroke:none;stroke-width:0.767169"
       id="text216"
       x="38.515587"
       y="163.57631"><tspan
         x="38.515587 43.394779 45.834377"
         y="163.57631"
         sodipodi:role="line"
         id="tspan214"
         style="stroke-width:0.767169">0.4</tspan></text><text
       style="font-variant:normal;font-weight:normal;font-size:7.67169px;font-family:'DejaVu Sans';-inkscape-font-specification:DejaVuSans;writing-mode:lr-tb;fill:#000000;fill-opacity:1;fill-rule:nonzero;stroke:none;stroke-width:0.767169"
       id="text234"
       x="38.515587"
       y="122.74565"><tspan
         x="38.515587 43.394779 45.834377"
         y="122.74565"
         sodipodi:role="line"
         id="tspan232"
         style="stroke-width:0.767169">0.6</tspan></text><text
       style="font-variant:normal;font-weight:normal;font-size:7.67169px;font-family:'DejaVu Sans';-inkscape-font-specification:DejaVuSans;writing-mode:lr-tb;fill:#000000;fill-opacity:1;fill-rule:nonzero;stroke:none;stroke-width:0.767169"
       id="text252"
       x="38.515587"
       y="81.915131"><tspan
         x="38.515587 43.394779 45.834377"
         y="81.915131"
         sodipodi:role="line"
         id="tspan250"
         style="stroke-width:0.767169">0.8</tspan></text><text
       style="font-variant:normal;font-weight:normal;font-size:7.67169px;font-family:'DejaVu Sans';-inkscape-font-specification:DejaVuSans;writing-mode:lr-tb;fill:#000000;fill-opacity:1;fill-rule:nonzero;stroke:none;stroke-width:0.767169"
       id="text270"
       x="38.515587"
       y="41.084618"><tspan
         x="38.515587 43.394779 45.834377"
         y="41.084618"
         sodipodi:role="line"
         id="tspan268"
         style="stroke-width:0.767169">1.0</tspan></text><text
       transform="rotate(-90)"
       style="font-variant:normal;font-weight:normal;font-size:7.67169px;font-family:'DejaVu Sans';-inkscape-font-specification:DejaVuSans;writing-mode:lr-tb;fill:#000000;fill-opacity:1;fill-rule:nonzero;stroke:none;stroke-width:0.767169"
       id="text274"
       x="-177.31203"
       y="33.852642"><tspan
         x="-177.31203 -172.68599 -167.96791 -163.26517 -160.11211 -156.11516 -151.42007 -146.55624 -144.11664 -139.89722 -135.20213 -132.04907 -128.89601 -124.17784 -122.04511 -117.34236 -114.33507 -112.20233 -107.50729"
         y="33.852642"
         sodipodi:role="line"
         id="tspan272"
         style="stroke-width:0.767169">Pearson correlation</tspan></text><text
       style="font-variant:normal;font-weight:normal;font-size:9.20603px;font-family:'DejaVu Sans';-inkscape-font-specification:DejaVuSans;writing-mode:lr-tb;fill:#000000;fill-opacity:1;fill-rule:nonzero;stroke:none;stroke-width:0.767169"
       id="text348"
       x="98.334839"
       y="23.250338"><tspan
         x="98.334839 103.88608 109.54778 115.19109 118.97475 123.77108 129.40517 135.24181 138.1693 143.2326 148.86671 152.65038 156.43407 162.09576 164.65504 170.29834 173.90709 176.46635 182.10045 187.93706 190.86458 196.31456 201.1109 204.03841 206.96593 212.81175 218.47346 224.31004 229.94415 238.91083 241.47009 246.5334 249.46092 255.30676 257.86603 262.66235 266.27112 271.9144 277.75104 282.81436"
         y="23.250338"
         sodipodi:role="line"
         id="tspan346"
         style="stroke-width:0.767169">Pearson correlation vs. genomic distance</tspan></text><text
       style="font-variant:normal;font-weight:normal;font-size:9.20603px;font-family:'DejaVu Sans';-inkscape-font-specification:DejaVuSans;writing-mode:lr-tb;fill:#000000;fill-opacity:1;fill-rule:nonzero;stroke:none;stroke-width:0.767169"
       id="text352"
       x="61.063919"
       y="33.568764"><tspan
         x="61.063919 68.198586 76.143394 81.998421 87.853447 93.708473 99.563507 105.41853 108.34606 111.27356 117.12861 120.05612 125.91115 128.83867 134.6937 137.62122 143.47624 146.40376 152.25879 155.18631 161.04135 166.89636 169.82388 175.67891 181.53394 184.46147 190.31648 196.17152 199.09903 204.95406 210.8091 213.73663 219.59164 225.4467 228.37418 234.22923 240.08424 243.01178 248.86681 254.72185 257.64935 263.50439 269.35944 272.28693 277.92102 283.75763 286.68515 292.72427 298.57935 304.43436 310.28943 313.21692 316.14441 321.99945"
         y="33.568764"
         sodipodi:role="line"
         id="tspan350"
         style="stroke-width:0.767169">GM12878, 1,2,4,7,9,11,13,14,16,17,18,20,22 on K562, 19</tspan></text><text
       style="font-variant:normal;font-weight:normal;font-size:7.67167px;font-family:'DejaVu Sans';-inkscape-font-specification:DejaVuSans;writing-mode:lr-tb;fill:#000000;fill-opacity:1;fill-rule:nonzero;stroke:none;stroke-width:0.767167"
       id="text358"
       x="163.7307"
       y="109.57584"><tspan
         x="163.7307 168.60989 173.48911 175.9287 180.64677 185.5183 187.95789 190.54324 192.98286 198.23029 203.84598 209.20081 211.78615 214.22575 219.10493 221.54453 226.42375 231.30293"
         y="109.57584"
         sodipodi:role="line"
         id="tspan356"
         style="stroke-width:0.767167">20 ep / AUC: 0.221</tspan></text><text
       style="font-variant:normal;font-weight:normal;font-size:7.67167px;font-family:'DejaVu Sans';-inkscape-font-specification:DejaVuSans;writing-mode:lr-tb;fill:#000000;fill-opacity:1;fill-rule:nonzero;stroke:none;stroke-width:0.767167"
       id="text364"
       x="163.7307"
       y="118.61566"><tspan
         x="163.7307 168.60989 173.48911 175.9287 180.64677 185.5183 187.95789 190.54324 192.98286 198.23029 203.84598 209.20081 211.78615 214.22575 219.10493 221.54453 226.42375 231.30293"
         y="118.61566"
         sodipodi:role="line"
         id="tspan362"
         style="stroke-width:0.767167">40 ep / AUC: 0.306</tspan></text><text
       style="font-variant:normal;font-weight:normal;font-size:7.67167px;font-family:'DejaVu Sans';-inkscape-font-specification:DejaVuSans;writing-mode:lr-tb;fill:#000000;fill-opacity:1;fill-rule:nonzero;stroke:none;stroke-width:0.767167"
       id="text370"
       x="163.7307"
       y="128.79614"><tspan
         x="163.7307 168.60989 173.48911 175.9287 180.64677 185.5183 187.95789 190.54324 192.98286 198.23029 203.84598 209.20081 211.78615 214.22575 219.10493 221.54453 226.42375 231.30293"
         y="128.79614"
         sodipodi:role="line"
         id="tspan368"
         style="stroke-width:0.767167">60 ep / AUC: 0.316</tspan></text><text
       style="font-variant:normal;font-weight:normal;font-size:7.67167px;font-family:'DejaVu Sans';-inkscape-font-specification:DejaVuSans;writing-mode:lr-tb;fill:#000000;fill-opacity:1;fill-rule:nonzero;stroke:none;stroke-width:0.767167"
       id="text376"
       x="163.7307"
       y="138.97656"><tspan
         x="163.7307 168.60989 173.48911 175.9287 180.64677 185.5183 187.95789 190.54324 192.98286 198.23029 203.84598 209.20081 211.78615 214.22575 219.10493 221.54453 226.42375 231.30293"
         y="138.97656"
         sodipodi:role="line"
         id="tspan374"
         style="stroke-width:0.767167">80 ep / AUC: 0.330</tspan></text><text
       style="font-variant:normal;font-weight:normal;font-size:7.67167px;font-family:'DejaVu Sans';-inkscape-font-specification:DejaVuSans;writing-mode:lr-tb;fill:#000000;fill-opacity:1;fill-rule:nonzero;stroke:none;stroke-width:0.767167"
       id="text382"
       x="163.7307"
       y="149.157"><tspan
         x="163.7307 168.60989 173.48911 178.36829 180.80788 185.52597 190.39748 192.83708 195.42245 197.86205 203.10948 208.72516 214.07999 216.66534 219.10493 223.98415 226.42375 231.30293 236.18211"
         y="149.157"
         sodipodi:role="line"
         id="tspan380"
         style="stroke-width:0.767167">100 ep / AUC: 0.345</tspan></text><text
       style="font-variant:normal;font-weight:normal;font-size:7.67167px;font-family:'DejaVu Sans';-inkscape-font-specification:DejaVuSans;writing-mode:lr-tb;fill:#000000;fill-opacity:1;fill-rule:nonzero;stroke:none;stroke-width:0.767167"
       id="text388"
       x="163.7307"
       y="159.33743"><tspan
         x="163.7307 166.73802 169.89107 174.59383 179.45767 183.45462 186.15504 190.87314 194.02618 196.46579 202.41135 209.03201 213.91122 218.79041 223.66959 228.54878 233.42799 235.86758 238.45293 240.89252 246.13995 251.75565 257.11047 259.69583 262.13544 267.01462 269.45419 274.33337 279.21262"
         y="159.33743"
         sodipodi:role="line"
         id="tspan386"
         style="stroke-width:0.767167">transfer GM12878 / AUC: 0.786</tspan></text></g></svg>
