<?xml version="1.0" encoding="UTF-8" standalone="no"?>
<svg
   xmlns:dc="http://purl.org/dc/elements/1.1/"
   xmlns:cc="http://creativecommons.org/ns#"
   xmlns:rdf="http://www.w3.org/1999/02/22-rdf-syntax-ns#"
   xmlns:svg="http://www.w3.org/2000/svg"
   xmlns="http://www.w3.org/2000/svg"
   xmlns:sodipodi="http://sodipodi.sourceforge.net/DTD/sodipodi-0.dtd"
   xmlns:inkscape="http://www.inkscape.org/namespaces/inkscape"
   version="1.1"
   id="svg2"
   xml:space="preserve"
   width="80mm"
   height="65.300003mm"
   viewBox="0 0 302.36219 246.80316"
   sodipodi:docname="pearson_chr21.svg"
   inkscape:version="1.0.2 (1.0.2+r75+1)"><metadata
     id="metadata8"><rdf:RDF><cc:Work
         rdf:about=""><dc:format>image/svg+xml</dc:format><dc:type
           rdf:resource="http://purl.org/dc/dcmitype/StillImage" /><dc:title /></cc:Work></rdf:RDF></metadata><defs
     id="defs6"><clipPath
       clipPathUnits="userSpaceOnUse"
       id="clipPath22"><path
         d="M 57.6,38.016 H 414.72 V 304.128 H 57.6 Z"
         id="path20" /></clipPath><clipPath
       clipPathUnits="userSpaceOnUse"
       id="clipPath40"><path
         d="M 57.6,38.016 H 414.72 V 304.128 H 57.6 Z"
         id="path38" /></clipPath><clipPath
       clipPathUnits="userSpaceOnUse"
       id="clipPath58"><path
         d="M 57.6,38.016 H 414.72 V 304.128 H 57.6 Z"
         id="path56" /></clipPath><clipPath
       clipPathUnits="userSpaceOnUse"
       id="clipPath76"><path
         d="M 57.6,38.016 H 414.72 V 304.128 H 57.6 Z"
         id="path74" /></clipPath><clipPath
       clipPathUnits="userSpaceOnUse"
       id="clipPath94"><path
         d="M 57.6,38.016 H 414.72 V 304.128 H 57.6 Z"
         id="path92" /></clipPath><clipPath
       clipPathUnits="userSpaceOnUse"
       id="clipPath112"><path
         d="M 57.6,38.016 H 414.72 V 304.128 H 57.6 Z"
         id="path110" /></clipPath><clipPath
       clipPathUnits="userSpaceOnUse"
       id="clipPath130"><path
         d="M 57.6,38.016 H 414.72 V 304.128 H 57.6 Z"
         id="path128" /></clipPath><clipPath
       clipPathUnits="userSpaceOnUse"
       id="clipPath148"><path
         d="M 57.6,38.016 H 414.72 V 304.128 H 57.6 Z"
         id="path146" /></clipPath><clipPath
       clipPathUnits="userSpaceOnUse"
       id="clipPath170"><path
         d="M 57.6,38.016 H 414.72 V 304.128 H 57.6 Z"
         id="path168" /></clipPath><clipPath
       clipPathUnits="userSpaceOnUse"
       id="clipPath188"><path
         d="M 57.6,38.016 H 414.72 V 304.128 H 57.6 Z"
         id="path186" /></clipPath><clipPath
       clipPathUnits="userSpaceOnUse"
       id="clipPath206"><path
         d="M 57.6,38.016 H 414.72 V 304.128 H 57.6 Z"
         id="path204" /></clipPath><clipPath
       clipPathUnits="userSpaceOnUse"
       id="clipPath224"><path
         d="M 57.6,38.016 H 414.72 V 304.128 H 57.6 Z"
         id="path222" /></clipPath><clipPath
       clipPathUnits="userSpaceOnUse"
       id="clipPath242"><path
         d="M 57.6,38.016 H 414.72 V 304.128 H 57.6 Z"
         id="path240" /></clipPath><clipPath
       clipPathUnits="userSpaceOnUse"
       id="clipPath260"><path
         d="M 57.6,38.016 H 414.72 V 304.128 H 57.6 Z"
         id="path258" /></clipPath><clipPath
       clipPathUnits="userSpaceOnUse"
       id="clipPath282"><path
         d="M 57.6,38.016 H 414.72 V 304.128 H 57.6 Z"
         id="path280" /></clipPath><clipPath
       clipPathUnits="userSpaceOnUse"
       id="clipPath292"><path
         d="M 57.6,38.016 H 414.72 V 304.128 H 57.6 Z"
         id="path290" /></clipPath><clipPath
       clipPathUnits="userSpaceOnUse"
       id="clipPath302"><path
         d="M 57.6,38.016 H 414.72 V 304.128 H 57.6 Z"
         id="path300" /></clipPath><clipPath
       clipPathUnits="userSpaceOnUse"
       id="clipPath312"><path
         d="M 57.6,38.016 H 414.72 V 304.128 H 57.6 Z"
         id="path310" /></clipPath><clipPath
       clipPathUnits="userSpaceOnUse"
       id="clipPath322"><path
         d="M 57.6,38.016 H 414.72 V 304.128 H 57.6 Z"
         id="path320" /></clipPath><clipPath
       clipPathUnits="userSpaceOnUse"
       id="clipPath332"><path
         d="M 57.6,38.016 H 414.72 V 304.128 H 57.6 Z"
         id="path330" /></clipPath></defs><sodipodi:namedview
     pagecolor="#ffffff"
     bordercolor="#666666"
     borderopacity="1"
     objecttolerance="10"
     gridtolerance="10"
     guidetolerance="10"
     inkscape:pageopacity="0"
     inkscape:pageshadow="2"
     inkscape:window-width="1920"
     inkscape:window-height="1020"
     id="namedview4"
     showgrid="false"
     units="mm"
     fit-margin-top="0"
     fit-margin-left="0"
     fit-margin-right="0"
     fit-margin-bottom="0"
     inkscape:zoom="1.8598091"
     inkscape:cx="72.063007"
     inkscape:cy="108.67204"
     inkscape:window-x="0"
     inkscape:window-y="0"
     inkscape:window-maximized="1"
     inkscape:current-layer="g10"
     inkscape:document-rotation="0" /><g
     id="g10"
     inkscape:groupmode="layer"
     inkscape:label="pearson_chr21"
     transform="matrix(1.3333333,0,0,-1.3333333,-28.023958,443.59358)"><path
       d="M 57.6,38.016 V 304.128"
       style="fill:none;stroke:#b0b0b0;stroke-width:0.8;stroke-linecap:square;stroke-linejoin:round;stroke-miterlimit:10;stroke-dasharray:none;stroke-opacity:1"
       id="path24"
       transform="matrix(0.57543875,0,0,0.57543875,8.9234155,141.95522)" /><path
       d="M 102.94857,38.016 V 304.128"
       style="fill:none;stroke:#b0b0b0;stroke-width:0.8;stroke-linecap:square;stroke-linejoin:round;stroke-miterlimit:10;stroke-dasharray:none;stroke-opacity:1"
       id="path42"
       transform="matrix(0.57543875,0,0,0.57543875,8.9234155,141.95522)" /><path
       d="M 148.29714,38.016 V 304.128"
       style="fill:none;stroke:#b0b0b0;stroke-width:0.8;stroke-linecap:square;stroke-linejoin:round;stroke-miterlimit:10;stroke-dasharray:none;stroke-opacity:1"
       id="path60"
       transform="matrix(0.57543875,0,0,0.57543875,8.9234155,141.95522)" /><path
       d="M 193.64571,38.016 V 304.128"
       style="fill:none;stroke:#b0b0b0;stroke-width:0.8;stroke-linecap:square;stroke-linejoin:round;stroke-miterlimit:10;stroke-dasharray:none;stroke-opacity:1"
       id="path78"
       transform="matrix(0.57543875,0,0,0.57543875,8.9234155,141.95522)" /><path
       d="M 238.99429,38.016 V 304.128"
       style="fill:none;stroke:#b0b0b0;stroke-width:0.8;stroke-linecap:square;stroke-linejoin:round;stroke-miterlimit:10;stroke-dasharray:none;stroke-opacity:1"
       id="path96"
       transform="matrix(0.57543875,0,0,0.57543875,8.9234155,141.95522)" /><path
       d="M 172.54532,163.8311 V 316.96226"
       style="fill:none;stroke:#b0b0b0;stroke-width:0.460351;stroke-linecap:square;stroke-linejoin:round;stroke-miterlimit:10;stroke-dasharray:none;stroke-opacity:1"
       id="path114" /><path
       d="M 329.69143,38.016 V 304.128"
       style="fill:none;stroke:#b0b0b0;stroke-width:0.8;stroke-linecap:square;stroke-linejoin:round;stroke-miterlimit:10;stroke-dasharray:none;stroke-opacity:1"
       id="path132"
       transform="matrix(0.57543875,0,0,0.57543875,8.9234155,141.95522)" /><path
       d="M 375.04,38.016 V 304.128"
       style="fill:none;stroke:#b0b0b0;stroke-width:0.8;stroke-linecap:square;stroke-linejoin:round;stroke-miterlimit:10;stroke-dasharray:none;stroke-opacity:1"
       id="path150"
       transform="matrix(0.57543875,0,0,0.57543875,8.9234155,141.95522)" /><path
       d="M 57.6,38.016 H 414.72"
       style="fill:none;stroke:#b0b0b0;stroke-width:0.8;stroke-linecap:square;stroke-linejoin:round;stroke-miterlimit:10;stroke-dasharray:none;stroke-opacity:1"
       id="path172"
       transform="matrix(0.57543875,0,0,0.57543875,8.9234155,141.95522)" /><path
       d="M 57.6,91.2384 H 414.72"
       style="fill:none;stroke:#b0b0b0;stroke-width:0.8;stroke-linecap:square;stroke-linejoin:round;stroke-miterlimit:10;stroke-dasharray:none;stroke-opacity:1"
       id="path190"
       transform="matrix(0.57543875,0,0,0.57543875,8.9234155,141.95522)" /><path
       d="M 57.6,144.4608 H 414.72"
       style="fill:none;stroke:#b0b0b0;stroke-width:0.8;stroke-linecap:square;stroke-linejoin:round;stroke-miterlimit:10;stroke-dasharray:none;stroke-opacity:1"
       id="path208"
       transform="matrix(0.57543875,0,0,0.57543875,8.9234155,141.95522)" /><path
       d="M 57.6,197.6832 H 414.72"
       style="fill:none;stroke:#b0b0b0;stroke-width:0.8;stroke-linecap:square;stroke-linejoin:round;stroke-miterlimit:10;stroke-dasharray:none;stroke-opacity:1"
       id="path226"
       transform="matrix(0.57543875,0,0,0.57543875,8.9234155,141.95522)" /><path
       d="M 57.6,250.9056 H 414.72"
       style="fill:none;stroke:#b0b0b0;stroke-width:0.8;stroke-linecap:square;stroke-linejoin:round;stroke-miterlimit:10;stroke-dasharray:none;stroke-opacity:1"
       id="path244"
       transform="matrix(0.57543875,0,0,0.57543875,8.9234155,141.95522)" /><path
       d="M 57.6,304.128 H 414.72"
       style="fill:none;stroke:#b0b0b0;stroke-width:0.8;stroke-linecap:square;stroke-linejoin:round;stroke-miterlimit:10;stroke-dasharray:none;stroke-opacity:1"
       id="path262"
       transform="matrix(0.57543875,0,0,0.57543875,8.9234155,141.95522)" /><g
       id="g328"
       clip-path="url(#clipPath332)"
       style="stroke:#d62728;stroke-opacity:1"
       transform="matrix(0.57543875,0,0,0.57543875,8.9234151,141.95522)"><path
         d="m 57.6,289.79076 5.668571,-7.78541 5.668572,-4.33434 5.668571,-1.33192 5.668572,-1.98102 5.668571,1.44608 5.668572,-0.87307 5.668571,-0.49112 5.66857,0.0761 5.66857,-0.4491 5.66857,3.76149 5.66858,-3.26655 5.66857,2.00984 5.66857,-1.67862 5.66857,-2.16124 5.66857,2.04623 5.66857,-2.13284 5.66857,3.15862 5.66858,-1.12324 5.66857,-1.58083 5.66857,-3.95531 5.66857,-1.19075 5.66857,-2.52338 5.66857,-1.22892 5.66857,2.84865 5.66858,-0.81444 5.66857,1.02032 5.66857,-2.44576 5.66857,1.25196 5.66857,1.21796 5.66857,-0.80819 5.66857,-4.60198 5.66858,4.42983 5.66857,-0.92774 5.66857,-1.14548 5.66857,1.44211 5.66857,-3.22653 5.66857,-0.0284 5.66857,3.98517 5.66858,-5.30989 5.66857,4.66157 5.66857,-3.53861 5.66857,3.5509 5.66857,3.95749 5.66857,3.4502 5.66857,-6.58525 5.66858,2.41022 5.66857,-0.55346 5.66857,1.77459 5.66857,-1.48678 5.66857,-6.10031 5.66857,4.59318 5.66857,-2.68526 5.66858,1.72599 5.66857,0.45505 5.66857,-1.36795 5.66857,-3.43089 5.66857,0.92592 5.66857,-3.01047 5.66857,-4.9939 5.66858,-1.686 5.66857,0.87888 5.66857,0.63212 5.66857,-3.49209"
         style="fill:none;stroke:#d62728;stroke-width:1.5;stroke-linecap:square;stroke-linejoin:round;stroke-miterlimit:10;stroke-dasharray:none;stroke-opacity:1"
         id="path334" /></g><g
       id="g16"
       transform="matrix(0.57543875,0,0,0.57543875,8.9234151,141.95522)"><g
         id="g18"
         clip-path="url(#clipPath22)" /></g><path
       d="m 42.068687,163.8311 v -2.01403"
       style="fill:#000000;fill-opacity:1;fill-rule:nonzero;stroke:#000000;stroke-width:0.460351;stroke-linecap:butt;stroke-linejoin:round;stroke-miterlimit:10;stroke-dasharray:none;stroke-opacity:1"
       id="path28" /><g
       id="g34"
       transform="matrix(0.57543875,0,0,0.57543875,8.9234151,141.95522)"><g
         id="g36"
         clip-path="url(#clipPath40)" /></g><path
       d="m 68.164012,163.8311 v -2.01403"
       style="fill:#000000;fill-opacity:1;fill-rule:nonzero;stroke:#000000;stroke-width:0.460351;stroke-linecap:butt;stroke-linejoin:round;stroke-miterlimit:10;stroke-dasharray:none;stroke-opacity:1"
       id="path46" /><g
       id="g52"
       transform="matrix(0.57543875,0,0,0.57543875,8.9234151,141.95522)"><g
         id="g54"
         clip-path="url(#clipPath58)" /></g><path
       d="m 94.259336,163.8311 v -2.01403"
       style="fill:#000000;fill-opacity:1;fill-rule:nonzero;stroke:#000000;stroke-width:0.460351;stroke-linecap:butt;stroke-linejoin:round;stroke-miterlimit:10;stroke-dasharray:none;stroke-opacity:1"
       id="path64" /><g
       id="g70"
       transform="matrix(0.57543875,0,0,0.57543875,8.9234151,141.95522)"><g
         id="g72"
         clip-path="url(#clipPath76)" /></g><path
       d="m 120.35466,163.8311 v -2.01403"
       style="fill:#000000;fill-opacity:1;fill-rule:nonzero;stroke:#000000;stroke-width:0.460351;stroke-linecap:butt;stroke-linejoin:round;stroke-miterlimit:10;stroke-dasharray:none;stroke-opacity:1"
       id="path82" /><g
       id="g88"
       transform="matrix(0.57543875,0,0,0.57543875,8.9234151,141.95522)"><g
         id="g90"
         clip-path="url(#clipPath94)" /></g><path
       d="m 146.45,163.8311 v -2.01403"
       style="fill:#000000;fill-opacity:1;fill-rule:nonzero;stroke:#000000;stroke-width:0.460351;stroke-linecap:butt;stroke-linejoin:round;stroke-miterlimit:10;stroke-dasharray:none;stroke-opacity:1"
       id="path100" /><path
       d="m 172.54531,163.8311 v -2.01403"
       style="fill:#000000;fill-opacity:1;fill-rule:nonzero;stroke:#000000;stroke-width:0.460351;stroke-linecap:butt;stroke-linejoin:round;stroke-miterlimit:10;stroke-dasharray:none;stroke-opacity:1"
       id="path118" /><g
       id="g124"
       transform="matrix(0.57543875,0,0,0.57543875,8.9234151,141.95522)"><g
         id="g126"
         clip-path="url(#clipPath130)" /></g><path
       d="m 198.64064,163.8311 v -2.01403"
       style="fill:#000000;fill-opacity:1;fill-rule:nonzero;stroke:#000000;stroke-width:0.460351;stroke-linecap:butt;stroke-linejoin:round;stroke-miterlimit:10;stroke-dasharray:none;stroke-opacity:1"
       id="path136" /><g
       id="g142"
       transform="matrix(0.57543875,0,0,0.57543875,8.9234151,141.95522)"><g
         id="g144"
         clip-path="url(#clipPath148)" /></g><path
       d="m 224.73597,163.8311 v -2.01403"
       style="fill:#000000;fill-opacity:1;fill-rule:nonzero;stroke:#000000;stroke-width:0.460351;stroke-linecap:butt;stroke-linejoin:round;stroke-miterlimit:10;stroke-dasharray:none;stroke-opacity:1"
       id="path154" /><g
       id="g164"
       transform="matrix(0.57543875,0,0,0.57543875,8.9234151,141.95522)"><g
         id="g166"
         clip-path="url(#clipPath170)" /></g><path
       d="M 42.068687,163.8311 H 40.054652"
       style="fill:#000000;fill-opacity:1;fill-rule:nonzero;stroke:#000000;stroke-width:0.460351;stroke-linecap:butt;stroke-linejoin:round;stroke-miterlimit:10;stroke-dasharray:none;stroke-opacity:1"
       id="path176" /><g
       id="g182"
       transform="matrix(0.57543875,0,0,0.57543875,8.9234151,141.95522)"><g
         id="g184"
         clip-path="url(#clipPath188)" /></g><path
       d="M 42.068687,194.45733 H 40.054652"
       style="fill:#000000;fill-opacity:1;fill-rule:nonzero;stroke:#000000;stroke-width:0.460351;stroke-linecap:butt;stroke-linejoin:round;stroke-miterlimit:10;stroke-dasharray:none;stroke-opacity:1"
       id="path194" /><g
       id="g200"
       transform="matrix(0.57543875,0,0,0.57543875,8.9234151,141.95522)"><g
         id="g202"
         clip-path="url(#clipPath206)" /></g><path
       d="M 42.068687,225.08356 H 40.054652"
       style="fill:#000000;fill-opacity:1;fill-rule:nonzero;stroke:#000000;stroke-width:0.460351;stroke-linecap:butt;stroke-linejoin:round;stroke-miterlimit:10;stroke-dasharray:none;stroke-opacity:1"
       id="path212" /><g
       id="g218"
       transform="matrix(0.57543875,0,0,0.57543875,8.9234151,141.95522)"><g
         id="g220"
         clip-path="url(#clipPath224)" /></g><path
       d="M 42.068687,255.7098 H 40.054652"
       style="fill:#000000;fill-opacity:1;fill-rule:nonzero;stroke:#000000;stroke-width:0.460351;stroke-linecap:butt;stroke-linejoin:round;stroke-miterlimit:10;stroke-dasharray:none;stroke-opacity:1"
       id="path230" /><g
       id="g236"
       transform="matrix(0.57543875,0,0,0.57543875,8.9234151,141.95522)"><g
         id="g238"
         clip-path="url(#clipPath242)" /></g><path
       d="M 42.068687,286.33604 H 40.054652"
       style="fill:#000000;fill-opacity:1;fill-rule:nonzero;stroke:#000000;stroke-width:0.460351;stroke-linecap:butt;stroke-linejoin:round;stroke-miterlimit:10;stroke-dasharray:none;stroke-opacity:1"
       id="path248" /><g
       id="g254"
       transform="matrix(0.57543875,0,0,0.57543875,8.9234151,141.95522)"><g
         id="g256"
         clip-path="url(#clipPath260)" /></g><path
       d="M 42.068687,316.96227 H 40.054652"
       style="fill:#000000;fill-opacity:1;fill-rule:nonzero;stroke:#000000;stroke-width:0.460351;stroke-linecap:butt;stroke-linejoin:round;stroke-miterlimit:10;stroke-dasharray:none;stroke-opacity:1"
       id="path266" /><g
       id="g278"
       clip-path="url(#clipPath282)"
       transform="matrix(0.57543875,0,0,0.57543875,8.9234151,141.95522)"><path
         d="m 57.6,262.92465 5.668571,6.16085 5.668572,0.62189 5.668571,-4.00714 5.668572,-3.37761 5.668571,-7.3254 5.668572,-1.78384 5.668571,-7.68617 5.66857,-3.9882 5.66857,3.98979 5.66857,-6.18537 5.66858,1.13257 5.66857,0.0831 5.66857,-0.20074 5.66857,-3.52537 5.66857,-4.40815 5.66857,-9.92055 5.66857,-3.02103 5.66858,-4.57966 5.66857,-0.16059 5.66857,1.11106 5.66857,4.86956 5.66857,1.59321 5.66857,-2.72077 5.66857,-5.71651 5.66858,-5.65011 5.66857,-4.12957 5.66857,0.40182 5.66857,1.80399 5.66857,7.20393 5.66857,-1.04511 5.66857,0.81642 5.66858,-5.39269 5.66857,-0.0651 5.66857,-0.20416 5.66857,3.71753 5.66857,-4.27073 5.66857,-0.94293 5.66857,-1.93282 5.66858,0.28595 5.66857,-2.77794 5.66857,-5.83884 5.66857,-3.09652 5.66857,-5.76598 5.66857,-9.41384 5.66857,-0.21316 5.66858,0.20482 5.66857,-3.04254 5.66857,-7.18012 5.66857,5.22051 5.66857,1.0507 5.66857,-7.99718 5.66857,-2.08364 5.66858,7.2304 5.66857,4.16134 5.66857,-0.14502 5.66857,3.1304 5.66857,-6.31699 5.66857,1.01207 5.66857,-2.47337 5.66858,0.44787 5.66857,-0.59503 5.66857,-7.19173 5.66857,-3.54177"
         style="fill:none;stroke:#1f77b4;stroke-width:1.5;stroke-linecap:square;stroke-linejoin:round;stroke-miterlimit:10;stroke-dasharray:none;stroke-opacity:1"
         id="path284" /></g><g
       id="g288"
       clip-path="url(#clipPath292)"
       transform="matrix(0.57543875,0,0,0.57543875,8.9234151,141.95522)"><path
         d="m 57.6,270.75671 5.668571,5.04087 5.668572,-0.24317 5.668571,-5.64532 5.668572,-7.11814 5.668571,-9.53513 5.668572,-4.21101 5.668571,-7.87221 5.66857,-5.63385 5.66857,1.38601 5.66857,-9.03131 5.66858,-0.56828 5.66857,-1.65499 5.66857,1.02276 5.66857,-5.49646 5.66857,-4.75187 5.66857,-44.97515 5.66857,36.07312 5.66858,-0.59192 5.66857,7.24308 5.66857,3.66525 5.66857,5.33395 5.66857,-0.54797 5.66857,-0.367 5.66857,-8.78044 5.66858,-3.10675 5.66857,-4.15621 5.66857,0.70748 5.66857,3.53096 5.66857,6.35034 5.66857,-1.83346 5.66857,2.35913 5.66858,-3.97854 5.66857,2.78468 5.66857,-0.36033 5.66857,8.53587 5.66857,-3.25392 5.66857,-1.70938 5.66857,-1.48727 5.66858,-1.49148 5.66857,-0.92114 5.66857,-6.12379 5.66857,-7.15903 5.66857,-6.1774 5.66857,-9.00158 5.66857,-2.02772 5.66858,-2.50838 5.66857,-0.87702 5.66857,-6.17355 5.66857,2.50461 5.66857,-2.26047 5.66857,-6.26995 5.66857,-2.74367 5.66858,8.11743 5.66857,1.74917 5.66857,2.54079 5.66857,3.20278 5.66857,-6.6793 5.66857,-1.882 5.66857,-0.0379 5.66858,-0.75401 5.66857,0.86435 5.66857,-5.51741 5.66857,0.86731"
         style="fill:none;stroke:#ff7f0e;stroke-width:1.5;stroke-linecap:square;stroke-linejoin:round;stroke-miterlimit:10;stroke-dasharray:none;stroke-opacity:1"
         id="path294" /></g><g
       id="g298"
       clip-path="url(#clipPath302)"
       transform="matrix(0.57543875,0,0,0.57543875,8.9234151,141.95522)"><path
         d="m 57.6,253.4473 5.668571,5.26217 5.668572,-3.08908 5.668571,1.95315 5.668572,-1.56396 5.668571,-7.63421 5.668572,-2.45147 5.668571,-6.76624 5.66857,-5.8036 5.66857,1.29949 5.66857,-8.71554 5.66858,-0.0232 5.66857,-3.40692 5.66857,0.86302 5.66857,-3.69587 5.66857,-4.10864 5.66857,-17.02878 5.66857,11.40578 5.66858,0.0273 5.66857,4.14898 5.66857,1.65971 5.66857,8.94694 5.66857,1.88643 5.66857,-2.04826 5.66857,-9.10297 5.66858,-2.8366 5.66857,-3.0259 5.66857,-0.72593 5.66857,-1.05308 5.66857,7.95296 5.66857,0.28294 5.66857,-1.87767 5.66858,-12.96697 5.66857,11.97661 5.66857,1.13687 5.66857,5.43573 5.66857,-4.09719 5.66857,-1.98364 5.66857,-3.73908 5.66858,-4.3327 5.66857,-3.18112 5.66857,-6.93291 5.66857,-4.92216 5.66857,-5.38914 5.66857,-7.12642 5.66857,0.19764 5.66858,-1.64947 5.66857,-1.84198 5.66857,-7.73608 5.66857,7.19534 5.66857,1.30266 5.66857,-5.62705 5.66857,-3.24398 5.66858,9.58237 5.66857,3.61175 5.66857,2.45704 5.66857,3.51072 5.66857,-7.65449 5.66857,-2.72269 5.66857,0.61177 5.66858,-0.80931 5.66857,0.28725 5.66857,-5.78028 5.66857,-4.15752"
         style="fill:none;stroke:#2ca02c;stroke-width:1.5;stroke-linecap:square;stroke-linejoin:round;stroke-miterlimit:10;stroke-dasharray:none;stroke-opacity:1"
         id="path304" /></g><g
       id="g308"
       clip-path="url(#clipPath312)"
       style="stroke:#8c564b;stroke-opacity:1"
       transform="matrix(0.57543875,0,0,0.57543875,8.9234151,141.95522)"><path
         d="m 57.6,265.36884 5.668571,0.54394 5.668572,-4.93412 5.668571,-3.22625 5.668572,-4.81493 5.668571,-6.0026 5.668572,-2.16342 5.668571,-6.97408 5.66857,-5.9044 5.66857,1.17938 5.66857,-10.36745 5.66858,-1.23837 5.66857,-2.34971 5.66857,-1.51499 5.66857,-3.53141 5.66857,-0.2271 5.66857,-1.18384 5.66857,1.23513 5.66858,0.0622 5.66857,2.97465 5.66857,1.42383 5.66857,8.493 5.66857,1.57451 5.66857,-3.07855 5.66857,-9.61249 5.66858,-2.09069 5.66857,-2.95276 5.66857,-2.44229 5.66857,-2.57474 5.66857,7.31885 5.66857,-1.33665 5.66857,-5.11746 5.66858,-23.8717 5.66857,17.7361 5.66857,2.42253 5.66857,2.27622 5.66857,-3.57662 5.66857,-0.95485 5.66857,-5.27866 5.66858,-4.78431 5.66857,-5.39617 5.66857,-2.58729 5.66857,-7.29895 5.66857,-6.27952 5.66857,-9.21444 5.66857,-0.84467 5.66858,-3.92079 5.66857,-4.3962 5.66857,-12.35975 5.66857,12.34212 5.66857,5.55646 5.66857,-1.12381 5.66857,1.96877 5.66858,6.61021 5.66857,3.80601 5.66857,3.67747 5.66857,3.33317 5.66857,-7.49233 5.66857,-4.22467 5.66857,0.37008 5.66858,0.77719 5.66857,0.56391 5.66857,-2.03823 5.66857,-4.39588"
         style="fill:none;stroke:#8c564b;stroke-width:1.5;stroke-linecap:square;stroke-linejoin:round;stroke-miterlimit:10;stroke-dasharray:none;stroke-opacity:1"
         id="path314" /></g><g
       id="g318"
       clip-path="url(#clipPath322)"
       transform="matrix(0.57543875,0,0,0.57543875,8.9234151,141.95522)"><path
         d="m 57.6,258.44306 5.668571,2.48396 5.668572,-9.50256 5.668571,-2.51974 5.668572,-4.73601 5.668571,-8.5421 5.668572,-3.75487 5.668571,-7.50806 5.66857,-11.93047 5.66857,3.78861 5.66857,-10.68076 5.66858,0.74978 5.66857,-1.88507 5.66857,0.67596 5.66857,-2.77308 5.66857,3.03765 5.66857,-0.18888 5.66857,1.92348 5.66858,1.75574 5.66857,4.80509 5.66857,6.54439 5.66857,7.27116 5.66857,4.37915 5.66857,-3.01313 5.66857,-6.71169 5.66858,-7.55307 5.66857,-4.6397 5.66857,-3.79845 5.66857,-1.27593 5.66857,4.15235 5.66857,-6.43958 5.66857,-4.68944 5.66858,-25.01102 5.66857,16.55028 5.66857,0.0488 5.66857,3.80405 5.66857,-3.82854 5.66857,-1.27103 5.66857,-9.42319 5.66858,-2.81463 5.66857,-8.84602 5.66857,0.76828 5.66857,-4.45344 5.66857,-4.98464 5.66857,-10.66537 5.66857,0.55986 5.66858,-4.62373 5.66857,-5.5064 5.66857,-15.06247 5.66857,9.26715 5.66857,8.48046 5.66857,-4.13106 5.66857,1.77809 5.66858,7.01463 5.66857,3.84072 5.66857,4.02211 5.66857,3.98667 5.66857,-7.69188 5.66857,-2.66305 5.66857,2.41029 5.66858,4.13471 5.66857,2.50227 5.66857,-1.28825 5.66857,-1.82855"
         style="fill:none;stroke:#9467bd;stroke-width:1.5;stroke-linecap:square;stroke-linejoin:round;stroke-miterlimit:10;stroke-dasharray:none;stroke-opacity:1"
         id="path324" /></g><path
       d="M 42.068687,163.8311 V 316.96227"
       style="fill:none;stroke:#000000;stroke-width:0.460351;stroke-linecap:square;stroke-linejoin:miter;stroke-miterlimit:10;stroke-dasharray:none;stroke-opacity:1"
       id="path338" /><path
       d="M 247.56937,163.8311 V 316.96227"
       style="fill:none;stroke:#000000;stroke-width:0.460351;stroke-linecap:square;stroke-linejoin:miter;stroke-miterlimit:10;stroke-dasharray:none;stroke-opacity:1"
       id="path340" /><path
       d="M 42.068687,163.8311 H 247.56937"
       style="fill:none;stroke:#000000;stroke-width:0.460351;stroke-linecap:square;stroke-linejoin:miter;stroke-miterlimit:10;stroke-dasharray:none;stroke-opacity:1"
       id="path342" /><path
       d="M 42.068687,316.96227 H 247.56937"
       style="fill:none;stroke:#000000;stroke-width:0.460351;stroke-linecap:square;stroke-linejoin:miter;stroke-miterlimit:10;stroke-dasharray:none;stroke-opacity:1"
       id="path344" /><path
       d="m 80.108364,215.48212 h 11.50878"
       style="fill:none;stroke:#1f77b4;stroke-width:0.863158;stroke-linecap:square;stroke-linejoin:round;stroke-miterlimit:10;stroke-dasharray:none;stroke-opacity:1"
       id="path354" /><path
       d="m 80.108364,207.03936 h 11.50878"
       style="fill:none;stroke:#ff7f0e;stroke-width:0.863158;stroke-linecap:square;stroke-linejoin:round;stroke-miterlimit:10;stroke-dasharray:none;stroke-opacity:1"
       id="path360" /><path
       d="m 80.108364,198.59659 h 11.50878"
       style="fill:none;stroke:#2ca02c;stroke-width:0.863158;stroke-linecap:square;stroke-linejoin:round;stroke-miterlimit:10;stroke-dasharray:none;stroke-opacity:1"
       id="path366" /><path
       d="m 80.108364,190.15382 h 11.50878"
       style="fill:none;stroke:#8c564b;stroke-width:0.863158;stroke-linecap:square;stroke-linejoin:round;stroke-miterlimit:10;stroke-dasharray:none;stroke-opacity:1"
       id="path372" /><path
       d="m 80.108364,181.71106 h 11.50878"
       style="fill:none;stroke:#9467bd;stroke-width:0.863158;stroke-linecap:square;stroke-linejoin:round;stroke-miterlimit:10;stroke-dasharray:none;stroke-opacity:1"
       id="path378" /><path
       d="m 80.108364,173.26829 h 11.50878"
       style="fill:none;stroke:#d62728;stroke-width:0.863158;stroke-linecap:square;stroke-linejoin:round;stroke-miterlimit:10;stroke-dasharray:none;stroke-opacity:1"
       id="path384" /></g><g
     inkscape:groupmode="layer"
     id="layer1"
     inkscape:label="text"
     style="display:inline"
     transform="translate(-28.023958,-17.206424)"><text
       style="font-variant:normal;font-weight:normal;font-size:7.67252px;font-family:'DejaVu Sans';-inkscape-font-specification:DejaVuSans;writing-mode:lr-tb;fill:#000000;fill-opacity:1;fill-rule:nonzero;stroke:none;stroke-width:0.767252"
       id="text32"
       x="53.989532"
       y="253.55559"><tspan
         x="53.989532 58.869255 61.309113"
         y="253.55559"
         sodipodi:role="line"
         id="tspan30"
         style="stroke-width:0.767252">0.0</tspan></text><text
       style="font-variant:normal;font-weight:normal;font-size:7.67252px;font-family:'DejaVu Sans';-inkscape-font-specification:DejaVuSans;writing-mode:lr-tb;fill:#000000;fill-opacity:1;fill-rule:nonzero;stroke:none;stroke-width:0.767252"
       id="text50"
       x="84.783295"
       y="253.55559"><tspan
         x="84.783295 89.663025 92.102882"
         y="253.55559"
         sodipodi:role="line"
         id="tspan48"
         style="stroke-width:0.767252">0.2</tspan></text><text
       style="font-variant:normal;font-weight:normal;font-size:7.67252px;font-family:'DejaVu Sans';-inkscape-font-specification:DejaVuSans;writing-mode:lr-tb;fill:#000000;fill-opacity:1;fill-rule:nonzero;stroke:none;stroke-width:0.767252"
       id="text68"
       x="119.57707"
       y="253.55559"><tspan
         x="119.57707 124.45679 126.89664"
         y="253.55559"
         sodipodi:role="line"
         id="tspan66"
         style="stroke-width:0.767252">0.4</tspan></text><text
       style="font-variant:normal;font-weight:normal;font-size:7.67252px;font-family:'DejaVu Sans';-inkscape-font-specification:DejaVuSans;writing-mode:lr-tb;fill:#000000;fill-opacity:1;fill-rule:nonzero;stroke:none;stroke-width:0.767252"
       id="text86"
       x="154.37083"
       y="253.55559"><tspan
         x="154.37083 159.25056 161.69041"
         y="253.55559"
         sodipodi:role="line"
         id="tspan84"
         style="stroke-width:0.767252">0.6</tspan></text><text
       style="font-variant:normal;font-weight:normal;font-size:7.67252px;font-family:'DejaVu Sans';-inkscape-font-specification:DejaVuSans;writing-mode:lr-tb;fill:#000000;fill-opacity:1;fill-rule:nonzero;stroke:none;stroke-width:0.767252"
       id="text104"
       x="189.1646"
       y="253.55559"><tspan
         x="189.1646 194.04433 196.48419"
         y="253.55559"
         sodipodi:role="line"
         id="tspan102"
         style="stroke-width:0.767252">0.8</tspan></text><text
       style="font-variant:normal;font-weight:normal;font-size:7.67252px;font-family:'DejaVu Sans';-inkscape-font-specification:DejaVuSans;writing-mode:lr-tb;fill:#000000;fill-opacity:1;fill-rule:nonzero;stroke:none;stroke-width:0.767252"
       id="text122"
       x="223.95837"
       y="253.55559"><tspan
         x="223.95837 228.83809 231.27794"
         y="253.55559"
         sodipodi:role="line"
         id="tspan120"
         style="stroke-width:0.767252">1.0</tspan></text><text
       style="font-variant:normal;font-weight:normal;font-size:7.67252px;font-family:'DejaVu Sans';-inkscape-font-specification:DejaVuSans;writing-mode:lr-tb;fill:#000000;fill-opacity:1;fill-rule:nonzero;stroke:none;stroke-width:0.767252"
       id="text140"
       x="258.75214"
       y="253.55559"><tspan
         x="258.75214 263.63187 266.07169"
         y="253.55559"
         sodipodi:role="line"
         id="tspan138"
         style="stroke-width:0.767252">1.2</tspan></text><text
       style="font-variant:normal;font-weight:normal;font-size:7.67252px;font-family:'DejaVu Sans';-inkscape-font-specification:DejaVuSans;writing-mode:lr-tb;fill:#000000;fill-opacity:1;fill-rule:nonzero;stroke:none;stroke-width:0.767252"
       id="text158"
       x="293.5459"
       y="253.55559"><tspan
         x="293.5459 298.4256 300.86548"
         y="253.55559"
         sodipodi:role="line"
         id="tspan156"
         style="stroke-width:0.767252">1.4</tspan></text><text
       style="font-variant:normal;font-weight:normal;font-size:7.67252px;font-family:'DejaVu Sans';-inkscape-font-specification:DejaVuSans;writing-mode:lr-tb;fill:#000000;fill-opacity:1;fill-rule:nonzero;stroke:none;stroke-width:0.767252"
       id="text162"
       x="146.65533"
       y="264.04559"><tspan
         x="146.65533 152.60153 157.32013 162.18451 166.88008 174.3531 176.48607 180.70595 183.14581 188.01787 190.15082 194.14821 197.15584 201.85909 206.72346 210.94336 215.66196 218.10181 220.68744 223.1273 229.74869 234.62074"
         y="264.04559"
         sodipodi:role="line"
         id="tspan160"
         style="stroke-width:0.767252">Genomic distance / Mbp</tspan></text><text
       style="font-variant:normal;font-weight:normal;font-size:7.67252px;font-family:'DejaVu Sans';-inkscape-font-specification:DejaVuSans;writing-mode:lr-tb;fill:#000000;fill-opacity:1;fill-rule:nonzero;stroke:none;stroke-width:0.767252"
       id="text180"
       x="38.516724"
       y="245.27167"><tspan
         x="38.516724 43.396442 45.836304"
         y="245.27167"
         sodipodi:role="line"
         id="tspan178"
         style="stroke-width:0.767252">0.0</tspan></text><text
       style="font-variant:normal;font-weight:normal;font-size:7.67252px;font-family:'DejaVu Sans';-inkscape-font-specification:DejaVuSans;writing-mode:lr-tb;fill:#000000;fill-opacity:1;fill-rule:nonzero;stroke:none;stroke-width:0.767252"
       id="text198"
       x="38.516724"
       y="204.43669"><tspan
         x="38.516724 43.396442 45.836304"
         y="204.43669"
         sodipodi:role="line"
         id="tspan196"
         style="stroke-width:0.767252">0.2</tspan></text><text
       style="font-variant:normal;font-weight:normal;font-size:7.67252px;font-family:'DejaVu Sans';-inkscape-font-specification:DejaVuSans;writing-mode:lr-tb;fill:#000000;fill-opacity:1;fill-rule:nonzero;stroke:none;stroke-width:0.767252"
       id="text216"
       x="38.516724"
       y="163.60172"><tspan
         x="38.516724 43.396442 45.836304"
         y="163.60172"
         sodipodi:role="line"
         id="tspan214"
         style="stroke-width:0.767252">0.4</tspan></text><text
       style="font-variant:normal;font-weight:normal;font-size:7.67252px;font-family:'DejaVu Sans';-inkscape-font-specification:DejaVuSans;writing-mode:lr-tb;fill:#000000;fill-opacity:1;fill-rule:nonzero;stroke:none;stroke-width:0.767252"
       id="text234"
       x="38.516724"
       y="122.76673"><tspan
         x="38.516724 43.396442 45.836304"
         y="122.76673"
         sodipodi:role="line"
         id="tspan232"
         style="stroke-width:0.767252">0.6</tspan></text><text
       style="font-variant:normal;font-weight:normal;font-size:7.67252px;font-family:'DejaVu Sans';-inkscape-font-specification:DejaVuSans;writing-mode:lr-tb;fill:#000000;fill-opacity:1;fill-rule:nonzero;stroke:none;stroke-width:0.767252"
       id="text252"
       x="38.516724"
       y="81.931778"><tspan
         x="38.516724 43.396442 45.836304"
         y="81.931778"
         sodipodi:role="line"
         id="tspan250"
         style="stroke-width:0.767252">0.8</tspan></text><text
       style="font-variant:normal;font-weight:normal;font-size:7.67252px;font-family:'DejaVu Sans';-inkscape-font-specification:DejaVuSans;writing-mode:lr-tb;fill:#000000;fill-opacity:1;fill-rule:nonzero;stroke:none;stroke-width:0.767252"
       id="text270"
       x="38.516724"
       y="41.096855"><tspan
         x="38.516724 43.396442 45.836304"
         y="41.096855"
         sodipodi:role="line"
         id="tspan268"
         style="stroke-width:0.767252">1.0</tspan></text><text
       transform="rotate(-90)"
       style="font-variant:normal;font-weight:normal;font-size:7.67252px;font-family:'DejaVu Sans';-inkscape-font-specification:DejaVuSans;writing-mode:lr-tb;fill:#000000;fill-opacity:1;fill-rule:nonzero;stroke:none;stroke-width:0.767252"
       id="text274"
       x="-177.33891"
       y="33.853271"><tspan
         x="-177.33891 -172.71239 -167.9938 -163.29054 -160.13713 -156.13976 -151.44418 -146.5798 -144.13995 -139.92006 -135.22447 -132.07106 -128.91766 -124.19907 -122.06612 -117.36285 -114.35522 -112.22227 -107.52669"
         y="33.853271"
         sodipodi:role="line"
         id="tspan272"
         style="stroke-width:0.767252">Pearson correlation</tspan></text><text
       style="font-variant:normal;font-weight:normal;font-size:9.20702px;font-family:'DejaVu Sans';-inkscape-font-specification:DejaVuSans;writing-mode:lr-tb;fill:#000000;fill-opacity:1;fill-rule:nonzero;stroke:none;stroke-width:0.767252"
       id="text348"
       x="98.342453"
       y="23.260645"><tspan
         x="98.342453 103.89428 109.5566 115.20051 118.98457 123.78144 129.41615 135.2534 138.18123 143.24509 148.87978 152.66388 156.44795 162.11028 164.66982 170.31374 173.92288 176.48244 182.11713 187.95438 190.8822 196.33278 201.12962 204.05745 206.98531 212.83176 218.49406 224.3313 229.966 238.93364 241.49319 246.55705 249.48489 255.33134 257.8909 262.68777 266.29691 271.9408 277.77805 282.84192"
         y="23.260645"
         sodipodi:role="line"
         id="tspan346"
         style="stroke-width:0.767252">Pearson correlation vs. genomic distance</tspan></text><text
       style="font-variant:normal;font-weight:normal;font-size:9.20702px;font-family:'DejaVu Sans';-inkscape-font-specification:DejaVuSans;writing-mode:lr-tb;fill:#000000;fill-opacity:1;fill-rule:nonzero;stroke:none;stroke-width:0.767252"
       id="text352"
       x="61.067497"
       y="33.580189"><tspan
         x="61.067497 68.202942 76.148598 82.004257 87.859924 93.715584 99.571251 105.42691 108.35476 111.28258 117.13825 120.06609 125.92175 128.84958 134.70523 137.63309 143.48874 146.41658 152.27225 155.20007 161.05574 166.91139 169.83923 175.69489 181.55057 184.47839 190.33406 196.18973 199.11754 204.97322 210.82889 213.75671 219.61238 225.46806 228.39587 234.25156 240.10721 243.03505 248.8907 254.74638 257.67419 263.52988 269.38553 272.31339 277.94806 283.78531 286.71313 292.75293 298.60861 304.46426 310.31998 313.24777 316.1756 322.03125"
         y="33.580189"
         sodipodi:role="line"
         id="tspan350"
         style="stroke-width:0.767252">GM12878, 1,2,4,7,9,11,13,14,16,17,18,20,22 on K562, 21</tspan></text><text
       style="font-variant:normal;font-weight:normal;font-size:7.67252px;font-family:'DejaVu Sans';-inkscape-font-specification:DejaVuSans;writing-mode:lr-tb;fill:#000000;fill-opacity:1;fill-rule:nonzero;stroke:none;stroke-width:0.767252"
       id="text358"
       x="128.29417"
       y="176.17592"><tspan
         x="128.29417 133.1739 138.0536 140.49345 145.21207 150.08412 152.52397 155.10962 157.5495 162.79749 168.41377 173.76918 176.35481 178.79468 183.67442 186.11424 190.99397 195.8737"
         y="176.17592"
         sodipodi:role="line"
         id="tspan356"
         style="stroke-width:0.767252">20 ep / AUC: 0.637</tspan></text><text
       style="font-variant:normal;font-weight:normal;font-size:7.67252px;font-family:'DejaVu Sans';-inkscape-font-specification:DejaVuSans;writing-mode:lr-tb;fill:#000000;fill-opacity:1;fill-rule:nonzero;stroke:none;stroke-width:0.767252"
       id="text364"
       x="128.29417"
       y="187.43294"><tspan
         x="128.29417 133.1739 138.0536 140.49345 145.21207 150.08412 152.52397 155.10962 157.5495 162.79749 168.41377 173.76918 176.35481 178.79468 183.67442 186.11424 190.99397 195.8737"
         y="187.43294"
         sodipodi:role="line"
         id="tspan362"
         style="stroke-width:0.767252">40 ep / AUC: 0.643</tspan></text><text
       style="font-variant:normal;font-weight:normal;font-size:7.67252px;font-family:'DejaVu Sans';-inkscape-font-specification:DejaVuSans;writing-mode:lr-tb;fill:#000000;fill-opacity:1;fill-rule:nonzero;stroke:none;stroke-width:0.767252"
       id="text370"
       x="128.29417"
       y="198.6899"><tspan
         x="128.29417 133.1739 138.0536 140.49345 145.21207 150.08412 152.52397 155.10962 157.5495 162.79749 168.41377 173.76918 176.35481 178.79468 183.67442 186.11424 190.99397 195.8737"
         y="198.6899"
         sodipodi:role="line"
         id="tspan368"
         style="stroke-width:0.767252">60 ep / AUC: 0.633</tspan></text><text
       style="font-variant:normal;font-weight:normal;font-size:7.67252px;font-family:'DejaVu Sans';-inkscape-font-specification:DejaVuSans;writing-mode:lr-tb;fill:#000000;fill-opacity:1;fill-rule:nonzero;stroke:none;stroke-width:0.767252"
       id="text376"
       x="128.29417"
       y="209.94691"><tspan
         x="128.29417 133.1739 138.0536 140.49345 145.21207 150.08412 152.52397 155.10962 157.5495 162.79749 168.41377 173.76918 176.35481 178.79468 183.67442 186.11424 190.99397 195.8737"
         y="209.94691"
         sodipodi:role="line"
         id="tspan374"
         style="stroke-width:0.767252">80 ep / AUC: 0.604</tspan></text><text
       style="font-variant:normal;font-weight:normal;font-size:7.67252px;font-family:'DejaVu Sans';-inkscape-font-specification:DejaVuSans;writing-mode:lr-tb;fill:#000000;fill-opacity:1;fill-rule:nonzero;stroke:none;stroke-width:0.767252"
       id="text382"
       x="128.29417"
       y="221.20393"><tspan
         x="128.29417 133.1739 138.0536 142.93333 145.37318 150.0918 154.96384 157.40372 159.98935 162.4292 167.67719 173.29349 178.64891 181.23454 183.67442 188.55415 190.99397 195.8737 200.75343"
         y="221.20393"
         sodipodi:role="line"
         id="tspan380"
         style="stroke-width:0.767252">100 ep / AUC: 0.565</tspan></text><text
       style="font-variant:normal;font-weight:normal;font-size:7.67252px;font-family:'DejaVu Sans';-inkscape-font-specification:DejaVuSans;writing-mode:lr-tb;fill:#000000;fill-opacity:1;fill-rule:nonzero;stroke:none;stroke-width:0.767252"
       id="text388"
       x="128.29417"
       y="232.46095"><tspan
         x="128.29417 131.3018 134.45522 139.15846 144.02284 148.02022 150.72093 155.43956 158.59294 161.03279 166.97899 173.60039 178.48012 183.35982 188.23955 193.11925 197.99898 200.43886 203.02449 205.46434 210.71233 216.32863 221.68404 224.2697 226.70955 231.58928 234.02913 238.90886 243.78859"
         y="232.46095"
         sodipodi:role="line"
         id="tspan386"
         style="stroke-width:0.767252">transfer GM12878 / AUC: 0.864</tspan></text></g></svg>
