<?xml version="1.0" encoding="UTF-8" standalone="no"?>
<svg
   xmlns:dc="http://purl.org/dc/elements/1.1/"
   xmlns:cc="http://creativecommons.org/ns#"
   xmlns:rdf="http://www.w3.org/1999/02/22-rdf-syntax-ns#"
   xmlns:svg="http://www.w3.org/2000/svg"
   xmlns="http://www.w3.org/2000/svg"
   xmlns:sodipodi="http://sodipodi.sourceforge.net/DTD/sodipodi-0.dtd"
   xmlns:inkscape="http://www.inkscape.org/namespaces/inkscape"
   version="1.1"
   id="svg2"
   xml:space="preserve"
   width="80mm"
   height="60mm"
   viewBox="0 0 302.36221 226.77166"
   sodipodi:docname="lossOverEpochs.svg"
   inkscape:version="1.0.2 (1.0.2+r75+1)"><metadata
     id="metadata8"><rdf:RDF><cc:Work
         rdf:about=""><dc:format>image/svg+xml</dc:format><dc:type
           rdf:resource="http://purl.org/dc/dcmitype/StillImage" /><dc:title></dc:title></cc:Work></rdf:RDF></metadata><defs
     id="defs6"><clipPath
       clipPathUnits="userSpaceOnUse"
       id="clipPath22"><path
         d="M 54,35.64 H 388.8 V 285.12 H 54 Z"
         id="path20" /></clipPath><clipPath
       clipPathUnits="userSpaceOnUse"
       id="clipPath40"><path
         d="M 54,35.64 H 388.8 V 285.12 H 54 Z"
         id="path38" /></clipPath><clipPath
       clipPathUnits="userSpaceOnUse"
       id="clipPath58"><path
         d="M 54,35.64 H 388.8 V 285.12 H 54 Z"
         id="path56" /></clipPath><clipPath
       clipPathUnits="userSpaceOnUse"
       id="clipPath76"><path
         d="M 54,35.64 H 388.8 V 285.12 H 54 Z"
         id="path74" /></clipPath><clipPath
       clipPathUnits="userSpaceOnUse"
       id="clipPath94"><path
         d="M 54,35.64 H 388.8 V 285.12 H 54 Z"
         id="path92" /></clipPath><clipPath
       clipPathUnits="userSpaceOnUse"
       id="clipPath112"><path
         d="M 54,35.64 H 388.8 V 285.12 H 54 Z"
         id="path110" /></clipPath><clipPath
       clipPathUnits="userSpaceOnUse"
       id="clipPath130"><path
         d="M 54,35.64 H 388.8 V 285.12 H 54 Z"
         id="path128" /></clipPath><clipPath
       clipPathUnits="userSpaceOnUse"
       id="clipPath148"><path
         d="M 54,35.64 H 388.8 V 285.12 H 54 Z"
         id="path146" /></clipPath><clipPath
       clipPathUnits="userSpaceOnUse"
       id="clipPath166"><path
         d="M 54,35.64 H 388.8 V 285.12 H 54 Z"
         id="path164" /></clipPath><clipPath
       clipPathUnits="userSpaceOnUse"
       id="clipPath184"><path
         d="M 54,35.64 H 388.8 V 285.12 H 54 Z"
         id="path182" /></clipPath><clipPath
       clipPathUnits="userSpaceOnUse"
       id="clipPath202"><path
         d="M 54,35.64 H 388.8 V 285.12 H 54 Z"
         id="path200" /></clipPath><clipPath
       clipPathUnits="userSpaceOnUse"
       id="clipPath224"><path
         d="M 54,35.64 H 388.8 V 285.12 H 54 Z"
         id="path222" /></clipPath><clipPath
       clipPathUnits="userSpaceOnUse"
       id="clipPath248"><path
         d="M 54,35.64 H 388.8 V 285.12 H 54 Z"
         id="path246" /></clipPath><clipPath
       clipPathUnits="userSpaceOnUse"
       id="clipPath262"><path
         d="M 54,35.64 H 388.8 V 285.12 H 54 Z"
         id="path260" /></clipPath><clipPath
       clipPathUnits="userSpaceOnUse"
       id="clipPath276"><path
         d="M 54,35.64 H 388.8 V 285.12 H 54 Z"
         id="path274" /></clipPath><clipPath
       clipPathUnits="userSpaceOnUse"
       id="clipPath290"><path
         d="M 54,35.64 H 388.8 V 285.12 H 54 Z"
         id="path288" /></clipPath><clipPath
       clipPathUnits="userSpaceOnUse"
       id="clipPath304"><path
         d="M 54,35.64 H 388.8 V 285.12 H 54 Z"
         id="path302" /></clipPath><clipPath
       clipPathUnits="userSpaceOnUse"
       id="clipPath318"><path
         d="M 54,35.64 H 388.8 V 285.12 H 54 Z"
         id="path316" /></clipPath><clipPath
       clipPathUnits="userSpaceOnUse"
       id="clipPath332"><path
         d="M 54,35.64 H 388.8 V 285.12 H 54 Z"
         id="path330" /></clipPath><clipPath
       clipPathUnits="userSpaceOnUse"
       id="clipPath346"><path
         d="M 54,35.64 H 388.8 V 285.12 H 54 Z"
         id="path344" /></clipPath><clipPath
       clipPathUnits="userSpaceOnUse"
       id="clipPath360"><path
         d="M 54,35.64 H 388.8 V 285.12 H 54 Z"
         id="path358" /></clipPath><clipPath
       clipPathUnits="userSpaceOnUse"
       id="clipPath374"><path
         d="M 54,35.64 H 388.8 V 285.12 H 54 Z"
         id="path372" /></clipPath><clipPath
       clipPathUnits="userSpaceOnUse"
       id="clipPath388"><path
         d="M 54,35.64 H 388.8 V 285.12 H 54 Z"
         id="path386" /></clipPath><clipPath
       clipPathUnits="userSpaceOnUse"
       id="clipPath402"><path
         d="M 54,35.64 H 388.8 V 285.12 H 54 Z"
         id="path400" /></clipPath><clipPath
       clipPathUnits="userSpaceOnUse"
       id="clipPath416"><path
         d="M 54,35.64 H 388.8 V 285.12 H 54 Z"
         id="path414" /></clipPath><clipPath
       clipPathUnits="userSpaceOnUse"
       id="clipPath430"><path
         d="M 54,35.64 H 388.8 V 285.12 H 54 Z"
         id="path428" /></clipPath><clipPath
       clipPathUnits="userSpaceOnUse"
       id="clipPath448"><path
         d="M 54,35.64 H 388.8 V 285.12 H 54 Z"
         id="path446" /></clipPath><clipPath
       clipPathUnits="userSpaceOnUse"
       id="clipPath458"><path
         d="M 54,35.64 H 388.8 V 285.12 H 54 Z"
         id="path456" /></clipPath></defs><sodipodi:namedview
     pagecolor="#ffffff"
     bordercolor="#666666"
     borderopacity="1"
     objecttolerance="10"
     gridtolerance="10"
     guidetolerance="10"
     inkscape:pageopacity="0"
     inkscape:pageshadow="2"
     inkscape:window-width="1920"
     inkscape:window-height="1020"
     id="namedview4"
     showgrid="false"
     fit-margin-top="0"
     fit-margin-left="0"
     fit-margin-right="0"
     fit-margin-bottom="0"
     units="mm"
     inkscape:zoom="1.9837963"
     inkscape:cx="101.16013"
     inkscape:cy="188.67283"
     inkscape:window-x="0"
     inkscape:window-y="0"
     inkscape:window-maximized="1"
     inkscape:current-layer="layer1" /><g
     id="g10"
     inkscape:groupmode="layer"
     inkscape:label="lossOverEpochs"
     transform="matrix(1.3333333,0,0,-1.3333333,-19.220156,380.69332)"><g
       id="g16"
       transform="matrix(0.60486576,0,0,0.60486576,5.6959067,112.81873)"><g
         id="g18"
         clip-path="url(#clipPath22)"><path
           d="M 68.913514,35.64 V 285.12"
           style="fill:none;stroke:#b0b0b0;stroke-width:0.8;stroke-linecap:square;stroke-linejoin:round;stroke-miterlimit:10;stroke-dasharray:none;stroke-opacity:1"
           id="path24" /></g></g><path
       d="m 47.379331,134.37615 v -2.11704"
       style="fill:#000000;fill-opacity:1;fill-rule:nonzero;stroke:#000000;stroke-width:0.483893;stroke-linecap:butt;stroke-linejoin:round;stroke-miterlimit:10;stroke-dasharray:none;stroke-opacity:1"
       id="path28" /><g
       id="g34"
       transform="matrix(0.60486576,0,0,0.60486576,5.6959067,112.81873)"><g
         id="g36"
         clip-path="url(#clipPath40)"><path
           d="M 99.380344,35.64 V 285.12"
           style="fill:none;stroke:#b0b0b0;stroke-width:0.8;stroke-linecap:square;stroke-linejoin:round;stroke-miterlimit:10;stroke-dasharray:none;stroke-opacity:1"
           id="path42" /></g></g><path
       d="m 65.807673,134.37615 v -2.11704"
       style="fill:#000000;fill-opacity:1;fill-rule:nonzero;stroke:#000000;stroke-width:0.483893;stroke-linecap:butt;stroke-linejoin:round;stroke-miterlimit:10;stroke-dasharray:none;stroke-opacity:1"
       id="path46" /><g
       id="g52"
       transform="matrix(0.60486576,0,0,0.60486576,5.6959067,112.81873)"><g
         id="g54"
         clip-path="url(#clipPath58)"><path
           d="M 129.84717,35.64 V 285.12"
           style="fill:none;stroke:#b0b0b0;stroke-width:0.8;stroke-linecap:square;stroke-linejoin:round;stroke-miterlimit:10;stroke-dasharray:none;stroke-opacity:1"
           id="path60" /></g></g><path
       d="m 84.236013,134.37615 v -2.11704"
       style="fill:#000000;fill-opacity:1;fill-rule:nonzero;stroke:#000000;stroke-width:0.483893;stroke-linecap:butt;stroke-linejoin:round;stroke-miterlimit:10;stroke-dasharray:none;stroke-opacity:1"
       id="path64" /><g
       id="g70"
       transform="matrix(0.60486576,0,0,0.60486576,5.6959067,112.81873)"><g
         id="g72"
         clip-path="url(#clipPath76)"><path
           d="M 160.314,35.64 V 285.12"
           style="fill:none;stroke:#b0b0b0;stroke-width:0.8;stroke-linecap:square;stroke-linejoin:round;stroke-miterlimit:10;stroke-dasharray:none;stroke-opacity:1"
           id="path78" /></g></g><path
       d="m 102.66435,134.37615 v -2.11704"
       style="fill:#000000;fill-opacity:1;fill-rule:nonzero;stroke:#000000;stroke-width:0.483893;stroke-linecap:butt;stroke-linejoin:round;stroke-miterlimit:10;stroke-dasharray:none;stroke-opacity:1"
       id="path82" /><g
       id="g88"
       transform="matrix(0.60486576,0,0,0.60486576,5.6959067,112.81873)"><g
         id="g90"
         clip-path="url(#clipPath94)"><path
           d="M 190.78083,35.64 V 285.12"
           style="fill:none;stroke:#b0b0b0;stroke-width:0.8;stroke-linecap:square;stroke-linejoin:round;stroke-miterlimit:10;stroke-dasharray:none;stroke-opacity:1"
           id="path96" /></g></g><path
       d="m 121.0927,134.37615 v -2.11704"
       style="fill:#000000;fill-opacity:1;fill-rule:nonzero;stroke:#000000;stroke-width:0.483893;stroke-linecap:butt;stroke-linejoin:round;stroke-miterlimit:10;stroke-dasharray:none;stroke-opacity:1"
       id="path100" /><g
       id="g106"
       transform="matrix(0.60486576,0,0,0.60486576,5.6959067,112.81873)"><g
         id="g108"
         clip-path="url(#clipPath112)"><path
           d="M 221.24767,35.64 V 285.12"
           style="fill:none;stroke:#b0b0b0;stroke-width:0.8;stroke-linecap:square;stroke-linejoin:round;stroke-miterlimit:10;stroke-dasharray:none;stroke-opacity:1"
           id="path114" /></g></g><path
       d="m 139.52104,134.37615 v -2.11704"
       style="fill:#000000;fill-opacity:1;fill-rule:nonzero;stroke:#000000;stroke-width:0.483893;stroke-linecap:butt;stroke-linejoin:round;stroke-miterlimit:10;stroke-dasharray:none;stroke-opacity:1"
       id="path118" /><g
       id="g124"
       transform="matrix(0.60486576,0,0,0.60486576,5.6959067,112.81873)"><g
         id="g126"
         clip-path="url(#clipPath130)"><path
           d="M 251.7145,35.64 V 285.12"
           style="fill:none;stroke:#b0b0b0;stroke-width:0.8;stroke-linecap:square;stroke-linejoin:round;stroke-miterlimit:10;stroke-dasharray:none;stroke-opacity:1"
           id="path132" /></g></g><path
       d="m 157.94939,134.37615 v -2.11704"
       style="fill:#000000;fill-opacity:1;fill-rule:nonzero;stroke:#000000;stroke-width:0.483893;stroke-linecap:butt;stroke-linejoin:round;stroke-miterlimit:10;stroke-dasharray:none;stroke-opacity:1"
       id="path136" /><g
       id="g142"
       transform="matrix(0.60486576,0,0,0.60486576,5.6959067,112.81873)"><g
         id="g144"
         clip-path="url(#clipPath148)"><path
           d="M 282.18133,35.64 V 285.12"
           style="fill:none;stroke:#b0b0b0;stroke-width:0.8;stroke-linecap:square;stroke-linejoin:round;stroke-miterlimit:10;stroke-dasharray:none;stroke-opacity:1"
           id="path150" /></g></g><path
       d="m 176.37773,134.37615 v -2.11704"
       style="fill:#000000;fill-opacity:1;fill-rule:nonzero;stroke:#000000;stroke-width:0.483893;stroke-linecap:butt;stroke-linejoin:round;stroke-miterlimit:10;stroke-dasharray:none;stroke-opacity:1"
       id="path154" /><g
       id="g160"
       transform="matrix(0.60486576,0,0,0.60486576,5.6959067,112.81873)"><g
         id="g162"
         clip-path="url(#clipPath166)"><path
           d="M 312.64816,35.64 V 285.12"
           style="fill:none;stroke:#b0b0b0;stroke-width:0.8;stroke-linecap:square;stroke-linejoin:round;stroke-miterlimit:10;stroke-dasharray:none;stroke-opacity:1"
           id="path168" /></g></g><path
       d="m 194.80608,134.37615 v -2.11704"
       style="fill:#000000;fill-opacity:1;fill-rule:nonzero;stroke:#000000;stroke-width:0.483893;stroke-linecap:butt;stroke-linejoin:round;stroke-miterlimit:10;stroke-dasharray:none;stroke-opacity:1"
       id="path172" /><g
       id="g178"
       transform="matrix(0.60486576,0,0,0.60486576,5.6959067,112.81873)"><g
         id="g180"
         clip-path="url(#clipPath184)"><path
           d="M 343.11499,35.64 V 285.12"
           style="fill:none;stroke:#b0b0b0;stroke-width:0.8;stroke-linecap:square;stroke-linejoin:round;stroke-miterlimit:10;stroke-dasharray:none;stroke-opacity:1"
           id="path186" /></g></g><path
       d="m 213.23441,134.37615 v -2.11704"
       style="fill:#000000;fill-opacity:1;fill-rule:nonzero;stroke:#000000;stroke-width:0.483893;stroke-linecap:butt;stroke-linejoin:round;stroke-miterlimit:10;stroke-dasharray:none;stroke-opacity:1"
       id="path190" /><g
       id="g196"
       transform="matrix(0.60486576,0,0,0.60486576,5.6959067,112.81873)"><g
         id="g198"
         clip-path="url(#clipPath202)"><path
           d="M 373.58182,35.64 V 285.12"
           style="fill:none;stroke:#b0b0b0;stroke-width:0.8;stroke-linecap:square;stroke-linejoin:round;stroke-miterlimit:10;stroke-dasharray:none;stroke-opacity:1"
           id="path204" /></g></g><path
       d="m 231.66276,134.37615 v -2.11704"
       style="fill:#000000;fill-opacity:1;fill-rule:nonzero;stroke:#000000;stroke-width:0.483893;stroke-linecap:butt;stroke-linejoin:round;stroke-miterlimit:10;stroke-dasharray:none;stroke-opacity:1"
       id="path208" /><g
       id="g218"
       transform="matrix(0.60486576,0,0,0.60486576,5.6959067,112.81873)"><g
         id="g220"
         clip-path="url(#clipPath224)"><path
           d="M 54,129.40798 H 388.8"
           style="fill:none;stroke:#b0b0b0;stroke-width:0.8;stroke-linecap:square;stroke-linejoin:round;stroke-miterlimit:10;stroke-dasharray:none;stroke-opacity:1"
           id="path226" /></g></g><g
       id="g242"
       transform="matrix(0.60486576,0,0,0.60486576,5.6959067,112.81873)"><g
         id="g244"
         clip-path="url(#clipPath248)"><path
           d="M 54,43.585705 H 388.8"
           style="fill:none;stroke:#b0b0b0;stroke-width:0.8;stroke-linecap:square;stroke-linejoin:round;stroke-miterlimit:10;stroke-dasharray:none;stroke-opacity:1"
           id="path250" /></g></g><g
       id="g252"
       transform="matrix(0.60486576,0,0,0.60486576,5.6959067,112.81873)"><path
         d="M 54,43.585705 H 52"
         style="fill:#000000;fill-opacity:1;fill-rule:nonzero;stroke:#000000;stroke-width:0.6;stroke-linecap:butt;stroke-linejoin:round;stroke-miterlimit:10;stroke-dasharray:none;stroke-opacity:1"
         id="path254" /></g><path
       d="m 38.358657,191.09318 h -2.11703"
       style="fill:#000000;fill-opacity:1;fill-rule:nonzero;stroke:#000000;stroke-width:0.483893;stroke-linecap:butt;stroke-linejoin:round;stroke-miterlimit:10;stroke-dasharray:none;stroke-opacity:1"
       id="path230" /><g
       id="g256"
       transform="matrix(0.60486576,0,0,0.60486576,5.6959067,112.81873)"><g
         id="g258"
         clip-path="url(#clipPath262)"><path
           d="M 54,64.092424 H 388.8"
           style="fill:none;stroke:#b0b0b0;stroke-width:0.8;stroke-linecap:square;stroke-linejoin:round;stroke-miterlimit:10;stroke-dasharray:none;stroke-opacity:1"
           id="path264" /></g></g><g
       id="g266"
       transform="matrix(0.60486576,0,0,0.60486576,5.6959067,112.81873)"><path
         d="M 54,64.092424 H 52"
         style="fill:#000000;fill-opacity:1;fill-rule:nonzero;stroke:#000000;stroke-width:0.6;stroke-linecap:butt;stroke-linejoin:round;stroke-miterlimit:10;stroke-dasharray:none;stroke-opacity:1"
         id="path268" /></g><g
       id="g270"
       transform="matrix(0.60486576,0,0,0.60486576,5.6959067,112.81873)"><g
         id="g272"
         clip-path="url(#clipPath276)"><path
           d="M 54,79.99867 H 388.8"
           style="fill:none;stroke:#b0b0b0;stroke-width:0.8;stroke-linecap:square;stroke-linejoin:round;stroke-miterlimit:10;stroke-dasharray:none;stroke-opacity:1"
           id="path278" /></g></g><g
       id="g280"
       transform="matrix(0.60486576,0,0,0.60486576,5.6959067,112.81873)"><path
         d="M 54,79.99867 H 52"
         style="fill:#000000;fill-opacity:1;fill-rule:nonzero;stroke:#000000;stroke-width:0.6;stroke-linecap:butt;stroke-linejoin:round;stroke-miterlimit:10;stroke-dasharray:none;stroke-opacity:1"
         id="path282" /></g><g
       id="g284"
       transform="matrix(0.60486576,0,0,0.60486576,5.6959067,112.81873)"><g
         id="g286"
         clip-path="url(#clipPath290)"><path
           d="M 54,92.995019 H 388.8"
           style="fill:none;stroke:#b0b0b0;stroke-width:0.8;stroke-linecap:square;stroke-linejoin:round;stroke-miterlimit:10;stroke-dasharray:none;stroke-opacity:1"
           id="path292" /></g></g><g
       id="g294"
       transform="matrix(0.60486576,0,0,0.60486576,5.6959067,112.81873)"><path
         d="M 54,92.995019 H 52"
         style="fill:#000000;fill-opacity:1;fill-rule:nonzero;stroke:#000000;stroke-width:0.6;stroke-linecap:butt;stroke-linejoin:round;stroke-miterlimit:10;stroke-dasharray:none;stroke-opacity:1"
         id="path296" /></g><g
       id="g298"
       transform="matrix(0.60486576,0,0,0.60486576,5.6959067,112.81873)"><g
         id="g300"
         clip-path="url(#clipPath304)"><path
           d="M 54,103.98328 H 388.8"
           style="fill:none;stroke:#b0b0b0;stroke-width:0.8;stroke-linecap:square;stroke-linejoin:round;stroke-miterlimit:10;stroke-dasharray:none;stroke-opacity:1"
           id="path306" /></g></g><g
       id="g308"
       transform="matrix(0.60486576,0,0,0.60486576,5.6959067,112.81873)"><path
         d="M 54,103.98328 H 52"
         style="fill:#000000;fill-opacity:1;fill-rule:nonzero;stroke:#000000;stroke-width:0.6;stroke-linecap:butt;stroke-linejoin:round;stroke-miterlimit:10;stroke-dasharray:none;stroke-opacity:1"
         id="path310" /></g><g
       id="g312"
       transform="matrix(0.60486576,0,0,0.60486576,5.6959067,112.81873)"><g
         id="g314"
         clip-path="url(#clipPath318)"><path
           d="M 54,113.50174 H 388.8"
           style="fill:none;stroke:#b0b0b0;stroke-width:0.8;stroke-linecap:square;stroke-linejoin:round;stroke-miterlimit:10;stroke-dasharray:none;stroke-opacity:1"
           id="path320" /></g></g><g
       id="g322"
       transform="matrix(0.60486576,0,0,0.60486576,5.6959067,112.81873)"><path
         d="M 54,113.50174 H 52"
         style="fill:#000000;fill-opacity:1;fill-rule:nonzero;stroke:#000000;stroke-width:0.6;stroke-linecap:butt;stroke-linejoin:round;stroke-miterlimit:10;stroke-dasharray:none;stroke-opacity:1"
         id="path324" /></g><g
       id="g326"
       transform="matrix(0.60486576,0,0,0.60486576,5.6959067,112.81873)"><g
         id="g328"
         clip-path="url(#clipPath332)"><path
           d="M 54,121.89762 H 388.8"
           style="fill:none;stroke:#b0b0b0;stroke-width:0.8;stroke-linecap:square;stroke-linejoin:round;stroke-miterlimit:10;stroke-dasharray:none;stroke-opacity:1"
           id="path334" /></g></g><g
       id="g336"
       transform="matrix(0.60486576,0,0,0.60486576,5.6959067,112.81873)"><path
         d="M 54,121.89762 H 52"
         style="fill:#000000;fill-opacity:1;fill-rule:nonzero;stroke:#000000;stroke-width:0.6;stroke-linecap:butt;stroke-linejoin:round;stroke-miterlimit:10;stroke-dasharray:none;stroke-opacity:1"
         id="path338" /></g><g
       id="g340"
       transform="matrix(0.60486576,0,0,0.60486576,5.6959067,112.81873)"><g
         id="g342"
         clip-path="url(#clipPath346)"><path
           d="M 54,178.8173 H 388.8"
           style="fill:none;stroke:#b0b0b0;stroke-width:0.8;stroke-linecap:square;stroke-linejoin:round;stroke-miterlimit:10;stroke-dasharray:none;stroke-opacity:1"
           id="path348" /></g></g><g
       id="g350"
       transform="matrix(0.60486576,0,0,0.60486576,5.6959067,112.81873)"><path
         d="M 54,178.8173 H 52"
         style="fill:#000000;fill-opacity:1;fill-rule:nonzero;stroke:#000000;stroke-width:0.6;stroke-linecap:butt;stroke-linejoin:round;stroke-miterlimit:10;stroke-dasharray:none;stroke-opacity:1"
         id="path352" /></g><g
       id="g354"
       transform="matrix(0.60486576,0,0,0.60486576,5.6959067,112.81873)"><g
         id="g356"
         clip-path="url(#clipPath360)"><path
           d="M 54,207.71989 H 388.8"
           style="fill:none;stroke:#b0b0b0;stroke-width:0.8;stroke-linecap:square;stroke-linejoin:round;stroke-miterlimit:10;stroke-dasharray:none;stroke-opacity:1"
           id="path362" /></g></g><g
       id="g364"
       transform="matrix(0.60486576,0,0,0.60486576,5.6959067,112.81873)"><path
         d="M 54,207.71989 H 52"
         style="fill:#000000;fill-opacity:1;fill-rule:nonzero;stroke:#000000;stroke-width:0.6;stroke-linecap:butt;stroke-linejoin:round;stroke-miterlimit:10;stroke-dasharray:none;stroke-opacity:1"
         id="path366" /></g><g
       id="g368"
       transform="matrix(0.60486576,0,0,0.60486576,5.6959067,112.81873)"><g
         id="g370"
         clip-path="url(#clipPath374)"><path
           d="M 54,228.22661 H 388.8"
           style="fill:none;stroke:#b0b0b0;stroke-width:0.8;stroke-linecap:square;stroke-linejoin:round;stroke-miterlimit:10;stroke-dasharray:none;stroke-opacity:1"
           id="path376" /></g></g><g
       id="g378"
       transform="matrix(0.60486576,0,0,0.60486576,5.6959067,112.81873)"><path
         d="M 54,228.22661 H 52"
         style="fill:#000000;fill-opacity:1;fill-rule:nonzero;stroke:#000000;stroke-width:0.6;stroke-linecap:butt;stroke-linejoin:round;stroke-miterlimit:10;stroke-dasharray:none;stroke-opacity:1"
         id="path380" /></g><g
       id="g382"
       transform="matrix(0.60486576,0,0,0.60486576,5.6959067,112.81873)"><g
         id="g384"
         clip-path="url(#clipPath388)"><path
           d="M 54,244.13286 H 388.8"
           style="fill:none;stroke:#b0b0b0;stroke-width:0.8;stroke-linecap:square;stroke-linejoin:round;stroke-miterlimit:10;stroke-dasharray:none;stroke-opacity:1"
           id="path390" /></g></g><g
       id="g392"
       transform="matrix(0.60486576,0,0,0.60486576,5.6959067,112.81873)"><path
         d="M 54,244.13286 H 52"
         style="fill:#000000;fill-opacity:1;fill-rule:nonzero;stroke:#000000;stroke-width:0.6;stroke-linecap:butt;stroke-linejoin:round;stroke-miterlimit:10;stroke-dasharray:none;stroke-opacity:1"
         id="path394" /></g><g
       id="g396"
       transform="matrix(0.60486576,0,0,0.60486576,5.6959067,112.81873)"><g
         id="g398"
         clip-path="url(#clipPath402)"><path
           d="M 54,257.12921 H 388.8"
           style="fill:none;stroke:#b0b0b0;stroke-width:0.8;stroke-linecap:square;stroke-linejoin:round;stroke-miterlimit:10;stroke-dasharray:none;stroke-opacity:1"
           id="path404" /></g></g><g
       id="g406"
       transform="matrix(0.60486576,0,0,0.60486576,5.6959067,112.81873)"><path
         d="M 54,257.12921 H 52"
         style="fill:#000000;fill-opacity:1;fill-rule:nonzero;stroke:#000000;stroke-width:0.6;stroke-linecap:butt;stroke-linejoin:round;stroke-miterlimit:10;stroke-dasharray:none;stroke-opacity:1"
         id="path408" /></g><g
       id="g410"
       transform="matrix(0.60486576,0,0,0.60486576,5.6959067,112.81873)"><g
         id="g412"
         clip-path="url(#clipPath416)"><path
           d="M 54,268.11747 H 388.8"
           style="fill:none;stroke:#b0b0b0;stroke-width:0.8;stroke-linecap:square;stroke-linejoin:round;stroke-miterlimit:10;stroke-dasharray:none;stroke-opacity:1"
           id="path418" /></g></g><g
       id="g420"
       transform="matrix(0.60486576,0,0,0.60486576,5.6959067,112.81873)"><path
         d="M 54,268.11747 H 52"
         style="fill:#000000;fill-opacity:1;fill-rule:nonzero;stroke:#000000;stroke-width:0.6;stroke-linecap:butt;stroke-linejoin:round;stroke-miterlimit:10;stroke-dasharray:none;stroke-opacity:1"
         id="path422" /></g><g
       id="g424"
       transform="matrix(0.60486576,0,0,0.60486576,5.6959067,112.81873)"><g
         id="g426"
         clip-path="url(#clipPath430)"><path
           d="M 54,277.63593 H 388.8"
           style="fill:none;stroke:#b0b0b0;stroke-width:0.8;stroke-linecap:square;stroke-linejoin:round;stroke-miterlimit:10;stroke-dasharray:none;stroke-opacity:1"
           id="path432" /></g></g><path
       d="M 38.358657,280.7512 H 37.148926"
       style="fill:#000000;fill-opacity:1;fill-rule:nonzero;stroke:#000000;stroke-width:0.36292;stroke-linecap:butt;stroke-linejoin:round;stroke-miterlimit:10;stroke-dasharray:none;stroke-opacity:1"
       id="path436" /><g
       id="g444"
       clip-path="url(#clipPath448)"
       transform="matrix(0.60486576,0,0,0.60486576,5.6959067,112.81873)"><path
         d="m 69.218182,273.78 1.523341,-0.18945 0.304669,0.16304 0.609336,-0.008 0.304669,-0.15107 0.304668,0.16824 0.304668,-0.0682 0.304668,-0.29198 0.304669,0.3408 0.609336,-0.003 0.304669,-79.48503 0.304668,-29.83514 0.304668,-6.47742 0.609337,-2.56336 0.304668,-1.54046 0.304669,-4.28442 0.304668,-2.28723 0.914005,-10.45693 0.304668,-1.01768 0.914005,-6.82108 0.304668,-1.36385 1.218673,-7.90576 0.304669,-1.2605 0.609336,-3.97028 0.304669,-0.0992 0.304668,-3.01477 0.304668,0.0228 0.304669,-2.08911 0.304668,-0.70558 0.304668,-1.9559 0.304669,0.0721 0.304668,-1.48483 0.304668,-0.67186 0.304668,-1.9218 0.304669,1.13175 0.609336,-3.0746 0.304669,-0.34621 0.304668,-1.336132 0.609337,-1.160886 0.304668,0.05741 0.914005,-2.792303 0.304668,0.551817 0.304668,-1.06709 0.304669,-2.115021 0.304668,0.222901 0.304668,-0.388889 0.304669,-0.775339 0.304668,-0.139994 0.304668,-1.084567 0.304669,-0.563763 0.304668,-1.062015 0.304668,0.24314 0.304668,-0.139212 0.914005,-2.677633 0.304669,0.04598 0.304668,-1.024679 0.304668,0.180367 0.304669,-0.898383 0.304668,0.438766 0.304668,-1.500531 0.304668,0.329107 0.304669,-0.715112 0.304668,-0.36067 0.609337,-1.055693 0.609336,-0.627553 0.304669,-1.270514 0.304668,0.657454 0.304668,-0.0172 0.304669,-1.037739 0.304668,-0.371265 0.609336,-1.087914 0.304669,-0.09589 0.304668,-0.383611 0.609337,-1.50378 0.304668,-0.04797 0.304668,0.395387 0.609338,-1.036271 0.30467,0.124035 0.60933,-0.765221 0.30467,-0.839686 0.30467,0.46327 0.30467,-1.400582 0.30467,0.841468 0.30467,-1.246538 0.30466,0.475283 0.30467,-0.561484 0.30467,0.820832 0.30467,-1.548556 0.30467,-0.421713 0.30466,-0.636153 0.30467,1.086588 0.60934,-1.648016 0.30467,0.343759 0.30467,-0.296051 0.30467,1.218425 0.60933,-2.208534 0.30467,3.506291 0.30467,-3.560603 0.30467,-1.023258 0.30467,0.854377 0.60933,-0.973939 0.30467,-0.196187 0.30467,1.052397 0.30467,-1.790325 0.30466,5.557636 0.30467,-6.066188 0.30467,0.444996 0.30467,1.112256 0.30467,-1.319856 0.30467,-0.718804 0.30466,1.431973 0.60934,-1.692067 0.30467,0.391799 0.30467,-0.712604 0.30467,0.310201 0.30466,-0.593254 0.30467,0.06222 0.30467,0.552859 0.30467,-1.336949 0.30467,0.564472 0.30467,-0.559307 0.30466,0.890414 0.30467,-1.650802 0.30467,0.568454 0.30467,-0.607329 0.30467,-0.01294 0.30467,0.790961 0.60933,-1.819785 0.30467,0.529395 0.30467,-0.13958 0.30467,0.1662 0.30467,-0.694898 0.30466,-0.04397 0.30467,0.279742 0.30467,-0.587302 0.91401,-0.389093 0.30466,1.038225 0.30467,-1.738901 0.30467,0.768119 0.30467,0.02144 0.30467,-0.598501 0.60933,-0.0702 0.30467,0.172956 0.30467,-0.464719 0.30467,0.500659 0.30467,-1.061931 0.30467,4.812641 0.30466,-4.248855 0.30467,-0.760397 0.30467,0.105304 0.30467,-0.561233 0.30467,0.77268 0.30467,-0.62196 0.30466,0.351976 0.60934,-0.957322 0.30467,0.836779 0.30467,-0.178209 0.30466,0.0064 0.60934,-0.596066 0.30467,0.04143 0.30467,1.755015 0.30467,-2.39451 0.30466,-0.09007 0.30467,-0.286605 0.30467,0.44505 0.30467,-0.491333 0.30467,0.241789 0.30467,0.804657 0.30466,0.102868 0.30467,-1.945474 0.30467,0.560735 0.60934,0.511257 0.30467,-1.157263 0.30466,0.40786 0.30467,-0.09778 0.30467,0.128132 0.30467,-0.03472 0.30467,-0.683091 0.30467,0.202856 0.30466,-0.147848 0.30467,0.321114 0.30467,-0.29761 0.60934,0.606875 0.30466,-1.115177 0.30467,-0.266503 0.30467,7.697557 0.30467,-6.978198 0.30467,-0.174159 0.30467,0.231507 0.30466,-0.709857 0.30467,-0.02298 0.30467,-0.6069 0.30467,0.241477 0.30467,-0.03103 0.30467,1.024355 0.30466,-1.368966 0.30467,-0.20704 0.30467,0.504706 0.30467,0.197672 0.30467,-0.662535 0.30467,-0.211977 0.30466,-0.563234 0.30467,0.358403 0.30467,0.03621 0.30467,-0.245419 0.30467,3.262675 0.30467,-2.045991 0.30466,-1.211643 0.30467,0.96084 0.30467,-0.975996 0.30467,-0.12 0.30467,0.08291 0.30467,10.085392 0.30466,-8.219233 0.30467,-1.356933 0.30467,1.01075 0.30467,-1.583631 0.30467,-3.88e-4 0.30467,2.713165 0.30466,-3.742587 0.30467,0.64458 0.30467,-0.525415 0.30467,3.116185 0.30467,-3.586502 0.30467,-0.136284 0.30466,0.291944 0.30467,0.498927 0.30467,1.339825 0.30467,-1.936667 0.30467,0.429401 0.30467,-0.574446 0.30466,-0.281333 0.30467,0.498068 0.30467,-0.138212 0.30467,-0.526483 0.30467,1.370883 0.30467,-1.013785 0.30466,1.174348 0.30467,-0.688573 0.30467,-1.414165 0.30467,0.437872 0.30467,1.861249 0.30466,-2.251225 0.30467,0.267289 0.30467,-0.108797 0.30467,1.452959 0.30467,-1.709545 0.30467,0.755046 0.60933,0.616465 0.30467,-1.140384 0.30467,-0.398888 0.30467,1.141318 0.30467,-0.564957 0.30466,-0.239167 0.30467,-0.551648 0.30467,0.927114 0.30467,-0.608055 0.30467,-0.30976 0.30467,0.08792 0.30466,-0.330297 0.30467,0.196051 0.30467,2.133415 0.30467,-2.667099 0.30467,0.290154 0.30467,-0.244031 0.30466,4.142492 0.30467,-3.42071 0.30467,-0.875044 0.30467,0.488534 0.30467,-0.483438 0.30467,-0.121377 0.30466,2.509011 0.30467,-2.157965 0.30467,0.195564 0.30467,-1.072613 0.30467,0.72724 0.30467,0.337325 0.30466,-1.154492 0.30467,1.357722 0.30467,-1.040399 0.30467,3.815949 0.30467,-3.344912 0.30467,-0.0506 0.30466,-1.011523 0.30467,0.861996 0.30467,-0.412287 0.30467,1.204431 0.30467,-0.824964 0.30467,0.444685 0.30466,-1.855465 0.30467,2.26761 0.30467,-2.258962 0.60934,1.717152 0.30467,-0.78061 0.30466,-0.120489 0.30467,-0.636345 0.30467,0.55456 0.30467,-0.46245 0.30467,1.719796 0.30466,-0.864456 0.30467,4.112548 0.30467,-0.124677 0.60934,-4.736447 0.30467,0.774693 0.30466,-1.107863 0.30467,-0.01651 0.30467,0.513262 0.30467,-0.874434 0.60934,1.61384 0.30467,-1.138263 0.30466,0.869242 0.30467,-0.879704 0.91401,-0.894695 0.30466,5.164042 0.30467,-3.663551 0.30467,-1.075623 0.30467,0.03526 0.30467,-0.320872 0.30467,3.45038 0.30466,-3.1145 0.30467,-0.253358 0.30467,0.378509 0.30467,-0.492477 0.60934,1.11324 0.30466,-1.327451 0.30467,0.443576 0.30467,2.138514 0.30467,-2.680169 0.30467,28.54754 0.30467,-27.583036 0.30466,-0.592987 0.30467,0.398224 0.60934,-0.06567 0.60934,-0.306447 0.30466,-0.775634 0.30467,0.721298 0.30467,-0.648663 0.30467,0.446702 0.30467,0.772055 0.30467,-1.556366 0.30466,3.246735 0.30467,-3.173592 0.30467,0.36158 0.30467,0.188286 0.30467,-0.240013 0.30467,-0.389271 0.30466,3.07094 0.30467,-2.502119 0.30467,-0.241939 0.30467,1.549 0.30467,-1.839081 0.30466,0.91862 0.30467,-0.689252 0.30467,0.489209 0.30467,5.474315 0.30467,-6.268069 0.30467,0.0023 0.30466,0.934396 0.30467,-1.333966 0.30467,1.560735 0.30467,-1.898836 0.60934,1.443451 0.30466,-0.850034 0.30467,-0.245134 0.30467,0.885351 0.30467,0.247737 0.30467,-0.677346 0.30467,126.315088 0.30466,5.41577 0.91401,-2.90499 0.60934,-0.20469 1.21867,-0.0746 0.30467,-0.11797 0.60933,0.0963 0.91401,-0.10433 0.60934,0.0206 2.43734,0.0256 0.60934,-0.0895 0.30467,0.13902 0.60933,-0.15368 0.60934,0.0745 0.60934,0.0657 0.30467,-0.12111 0.60933,0.0171 1.21867,0.02 0.60934,0.0499 0.60934,-0.11467 1.21867,0.0193 0.60934,-0.0441 3.35135,0.14527 0.60934,-0.13514 0.30466,0.0864 0.30467,-0.0636 0.30467,0.0999 0.30467,-0.11639 0.60934,0.10712 0.60933,-0.0991 0.60934,-0.0242 0.914,0.061 0.30467,-0.0748 0.60934,0.0646 0.30467,-0.1254 0.60933,0.20106 0.30467,-0.21004 0.30467,0.14432 1.52334,-0.0193 0.60934,-0.0712 0.30467,0.0942 1.52334,-0.0971 0.30467,0.0739 0.60933,0.0121 1.21868,-0.0967 0.30466,0.12333 1.21868,-0.0998 0.30467,0.16747 0.60933,-0.22217 0.30467,0.11627 0.60934,0.0307 0.60933,-0.0176 0.30467,-0.0398 0.30467,0.16169 0.30467,-0.1648 1.52334,0.0347 1.21867,-0.026 1.21868,0.0119 0.30467,-0.10677 1.21867,0.14791 0.30467,-0.0959 0.30467,0.0978 0.60933,-0.0745 0.60934,0.069 0.914,-0.1059 2.43735,0.0699 0.60934,-0.0642 0.60933,0.01 0.60934,0.0712 0.30467,-0.14389 0.60933,0.16591 0.30467,-0.16962 0.30467,0.15506 0.60934,-0.003 0.60933,-0.10549 0.91401,0.0405 0.60934,-0.002 0.30466,-0.0488 0.60934,0.1007 1.82801,-0.0968 0.30467,0.0852 0.30467,-0.11645 3.04668,0.21764 0.30467,-0.22434 1.82801,0.0336 2.13268,0.0123 1.21867,0.0663 0.30467,-0.0727 0.914,0.0985 0.30467,-0.10095 0.30467,0.10937 0.60934,-0.11413 0.30466,0.0868 0.30467,-0.12161 0.91401,0.13159 0.60933,-0.12014 0.30467,0.0585 0.30467,-0.10976 0.60934,0.13868 0.60933,-0.0677 2.43735,0.0222 0.60934,-0.0156 1.21867,-0.0124 0.60934,0.0154 0.60933,0.0894 1.21868,-0.0775 1.21867,-0.0329 0.30467,0.08 0.30467,-0.0768 0.60933,0.0276 1.52334,-0.0314 0.30467,0.10369 0.30467,-0.14153 0.60934,0.10324 0.30467,-0.12485 1.21867,0.12261 3.04668,-0.092 0.30467,0.10197 1.52334,-0.0327 0.91401,-0.014 0.60933,-0.065 0.30467,0.13817 0.30467,-0.14581 0.30467,0.18858 1.82801,-0.17722 0.914,0.0983 0.60934,-0.0926 0.60934,0.0487 1.52334,-0.0317 0.30467,0.10729 0.30467,-0.13155 0.60933,0.11514 0.30467,-0.0564 0.30467,0.0692 0.30467,-0.10237 0.60933,0.044 0.60934,-0.0362 4.26536,0.0538 0.30466,0.0281 0.30467,-0.0916 0.30467,0.10033 0.91401,-0.11881 0.30467,-0.0262 0.30466,0.10972 0.91401,-0.0348 0.60933,-0.0108 0.30467,-0.038 0.30467,0.1193 0.30467,-0.0855 0.60934,0.0959 0.30466,-0.17169 0.60934,0.0855 0.30467,-0.0856 0.30467,0.12302 9.74938,-0.10528 0.30467,0.13209 0.91401,-0.11182 0.914,0.0643 0.30467,-0.094 0.30467,0.10192 0.914,-0.003 4.57003,-0.0404 0.30467,-0.0442 0.914,0.11341 1.52334,-0.0448 0.30467,-0.16385 0.30467,0.16034 2.74201,-0.001 0.30467,0.0487 0.30467,-0.0952 0.30467,0.12802 0.30467,-0.13636 0.914,0.004 0.91401,0.0565 1.82801,0.005 0.30466,-0.0992 1.82801,0.13327 0.60934,-0.0584 0.30467,0.0717 0.914,-0.0733 1.21868,0.0594 0.30467,-0.15904 0.30466,0.1485 0.30467,-0.1419 0.91401,0.0564 0.30467,0.11099 0.60933,-0.17629 0.60934,0.18645 0.60934,-0.0715 0.30466,0.0543 0.30467,-0.10692 1.52334,0.066 0.91401,-0.0374 0.914,-0.007 0.30467,-0.12179 0.60934,0.20093 0.30467,-0.0793 0.914,0.0163 0.60934,-0.0843 0.60933,0.13161 0.30467,-0.10323 0.30467,0.0851 0.30467,-0.0522 0.30467,0.10529 1.82801,-0.14162 0.914,0.1501 0.30467,-0.1611 0.30467,0.12239 0.30467,-0.0973 1.21867,0.1064 2.13268,-0.0934 0.60934,0.0796 0.30466,-0.1024 1.21868,0.0995 1.21867,-0.0934 5.7887,0.0383 0.30467,-0.0581 0.914,0.12154 0.60934,-0.0729 v 0"
         style="fill:none;stroke:#1f77b4;stroke-width:1.5;stroke-linecap:square;stroke-linejoin:round;stroke-miterlimit:10;stroke-dasharray:none;stroke-opacity:1"
         id="path450" /></g><g
       id="g454"
       clip-path="url(#clipPath458)"
       transform="matrix(0.60486576,0,0,0.60486576,5.6959067,112.81873)"><path
         d="m 69.218182,273.64698 4.570024,-0.11051 0.304669,-143.10848 0.609336,9.28543 0.304669,26.45377 0.304668,-39.53483 0.304668,-0.7615 0.304669,-7.003 0.304668,-3.04072 0.304668,0.38237 0.304668,2.27431 0.304669,18.35959 0.304668,-19.6151 0.304668,-9.74529 0.304669,32.28222 0.304668,-32.84304 0.304668,38.16067 0.304669,-44.08555 0.304668,0.40504 0.304668,13.67918 0.304668,-14.82869 0.304669,1.7909 0.304668,23.48146 0.304668,-28.993193 0.304669,-0.577783 0.304668,0.526671 0.609337,21.672305 0.304668,-15.8289 0.304668,-4.831396 0.304669,3.224336 0.304668,-7.784363 0.304668,26.071383 0.304668,-15.74782 0.304669,8.47295 0.304668,11.76319 0.304668,-11.41029 0.304669,-16.600337 0.304668,13.098697 0.304668,-7.48491 0.609337,14.90675 0.304668,-12.56314 0.304668,6.14045 0.304669,-3.01445 0.304668,11.0046 0.304668,-25.483372 0.304669,-1.635321 0.304668,2.600029 0.304668,5.337475 0.304669,-7.181542 0.304668,5.550522 0.304668,-6.225247 0.609337,15.372186 0.304668,-16.095074 0.304668,15.149414 0.304669,-14.140419 0.304668,4.51623 0.304668,-2.255988 0.304669,6.492039 0.304668,9.576858 0.304668,-21.542008 0.304669,7.269344 0.304668,-4.818959 0.304668,-1.678911 0.609337,-0.641559 0.304668,0.255082 0.609337,12.639721 0.304668,-12.802399 0.304668,7.2172 0.304669,-8.903607 0.304668,2.23721 0.304668,-1.168204 0.304669,3.359128 0.304668,-2.619995 0.304668,7.910993 0.304668,-7.790232 0.304669,4.624784 0.304668,-4.408025 0.304668,2.025687 0.304669,-4.625631 0.304668,10.951107 0.304668,-9.457578 0.304669,8.841566 0.304669,-7.85405 0.30467,0.989108 0.30467,1.551677 0.30466,-4.923496 0.30467,-0.244271 0.30467,2.473565 0.30467,-1.84973 0.30467,0.14987 0.30467,7.656197 0.30466,-9.458522 0.30467,0.522559 0.30467,13.865465 0.30467,1.813684 0.60933,-16.176621 0.30467,3.272868 0.30467,0.135567 0.30467,1.291164 0.30467,-5.102101 0.30467,1.867309 0.30467,-1.186708 0.30466,8.204938 0.30467,-8.972674 0.30467,9.060133 0.30467,-8.346167 0.30467,1.264701 0.30467,-0.776468 0.914,-0.342315 0.30467,0.530577 0.30467,0.106567 0.30466,2.653326 0.30467,-3.584944 0.30467,2.122147 0.30467,0.60878 0.30467,2.487942 0.30467,-5.741552 0.30466,-0.13666 0.30467,1.28023 0.30467,-1.295818 0.60934,1.901385 0.30467,0.131449 0.30466,-1.831495 0.30467,0.548243 0.30467,-0.258015 0.30467,0.45225 0.30467,0.764752 0.30467,1.441872 0.30466,-0.440596 0.30467,0.530386 0.30467,-3.209539 0.30467,0.194327 0.914,4.439285 0.30467,-3.103042 0.30467,-0.229753 0.30467,2.111908 0.30467,-0.986213 0.30467,-1.839864 0.30466,-0.0081 0.30467,0.928016 0.60934,-2.164687 0.30467,1.074506 0.30467,1.521407 0.60933,-0.677457 0.30467,-0.875074 0.30467,1.076825 0.30467,-0.559967 0.30466,-0.850003 0.30467,0.154819 0.30467,3.192649 0.30467,-2.416226 0.30467,-0.174493 0.60934,0.692411 0.30466,2.246388 0.30467,-3.456311 0.30467,0.267374 0.60934,2.083091 0.30467,2.820281 0.60933,-5.517833 0.30467,4.013851 0.60934,-4.203594 0.30466,23.814266 0.30467,-23.638247 0.30467,2.374935 0.30467,-1.583706 0.30467,2.82763 0.30467,-2.275282 0.30466,-0.400649 0.30467,-0.202633 0.30467,-1.039311 0.30467,7.247913 0.30467,-5.051296 0.30467,5.627409 0.30466,-2.125636 0.30467,-5.698399 0.30467,1.412377 0.30467,0.851615 0.30467,0.460057 0.30467,-0.951778 0.30466,0.140938 0.30467,0.317498 0.30467,1.466753 0.30467,16.045162 0.30467,-18.426782 0.30467,5.642985 0.30466,-3.057035 0.30467,1.880418 0.60934,-5.148597 0.30467,0.959338 0.30466,2.549595 0.30467,-1.344247 0.30467,0.729302 0.30467,1.319215 0.30467,0.10855 0.30467,-4.411961 0.30466,2.916909 0.30467,-1.038571 0.30467,1.871032 0.30467,0.715857 0.30467,0.305969 0.30467,-1.318188 0.30466,-3.394024 0.30467,7.692492 0.30467,-7.285745 0.60934,4.148961 0.60933,-2.406387 0.30467,-0.680935 0.30467,-0.007 0.30467,-1.303202 0.30467,1.055443 0.30467,13.01629 0.30466,-10.196052 0.30467,-1.543179 0.60934,0.484802 0.30467,0.950429 0.60933,-1.484916 0.30467,-0.230469 0.30467,1.367568 0.30467,0.275078 0.30467,-0.02557 0.30467,2.363758 0.30466,-0.913469 0.30467,-3.889532 0.30467,0.331947 0.30467,4.005683 0.30467,-4.369914 0.60933,6.555389 0.30467,-5.845138 0.30467,-0.564514 0.30467,1.940419 0.30467,-0.08822 0.30467,0.628322 0.30466,-2.843279 0.30467,-0.78452 0.30467,5.786047 0.30467,-4.861031 0.30467,-0.708873 0.30467,1.917968 0.30466,4.561585 0.30467,-3.914272 0.30467,4.287832 0.30467,-5.912021 0.30467,1.063294 0.30466,6.180263 0.30467,-5.507818 0.30467,-2.70226 0.30467,2.460231 0.30467,-0.612398 0.30467,-0.316215 0.30466,3.400973 0.30467,-5.273276 0.30467,7.856506 0.30467,22.94737 0.30467,-29.376993 0.30467,0.193875 0.30466,13.072505 0.30467,-9.688161 0.30467,1.950467 0.30467,-6.059761 0.30467,-0.516746 0.30467,2.457102 0.30466,0.702654 0.30467,-1.165409 0.30467,-1.918846 0.30467,7.139492 0.30467,-1.021011 0.30467,-7.017485 0.30466,12.518626 0.30467,-9.071726 0.30467,-0.08218 0.30467,-1.126611 0.30467,2.782233 0.30467,-0.743038 0.30466,-0.229084 0.30467,6.51847 0.30467,-5.983185 0.30467,4.368065 0.30467,-0.152277 0.30467,-4.5513 0.30466,-2.34523 0.30467,5.934943 0.60934,-5.50086 0.30467,1.540931 0.30467,-0.318177 0.30466,1.482717 0.30467,-1.360176 0.30467,0.69665 0.30467,0.0018 0.30467,5.285067 0.30467,-3.60656 0.30466,4.242731 0.30467,-8.89199 0.30467,8.373107 0.60934,-6.028804 0.30467,1.462363 0.30466,5.741125 0.30467,-8.084674 0.30467,0.953872 0.30467,11.547656 0.30467,-13.32519 0.30466,5.548624 0.30467,-1.287127 0.30467,-4.165795 0.30467,10.782006 0.30467,-8.656245 0.60933,5.247625 0.30467,-4.652432 0.30467,0.86962 0.30467,2.74414 0.30467,-4.730733 0.30467,0.36798 0.30467,-0.886447 0.30466,0.482402 0.30467,3.553341 0.30467,-4.503932 0.30467,9.249287 0.30467,2.715711 0.30466,-6.532133 0.30467,-4.045636 0.60934,8.331939 0.30467,-5.957843 0.30467,-2.234864 0.30466,2.082586 0.30467,0.235387 0.30467,6.445397 0.30467,-7.151636 0.30467,-3.260957 0.60933,9.448633 0.30467,-8.300235 0.30467,8.913533 0.30467,-9.600748 0.30467,6.572614 0.30467,0.152383 0.30466,-4.211363 0.30467,1.106652 0.30467,-2.914133 0.30467,-1.531001 0.30467,4.641909 0.30467,1.205456 0.30466,-3.831302 0.30467,5.603836 0.30467,-3.960077 0.30467,-2.477321 0.30467,4.102807 0.30467,-2.95982 0.30466,3.062069 0.30467,-4.960756 0.30467,7.112197 0.30467,1.858081 0.30467,-1.472823 0.30467,-7.213408 0.30466,2.843119 0.30467,-0.05749 0.60934,6.971053 0.30467,-6.846046 0.30466,-0.445602 0.30467,-2.039511 0.60934,4.354744 0.30467,-4.688999 0.30467,5.900171 0.30466,0.05642 0.30467,-2.146556 0.30467,-0.06859 0.30467,0.85139 0.30467,1.543078 0.30467,-4.601947 0.30466,-0.560801 0.30467,2.207881 0.30467,-1.102519 0.30467,4.139178 0.30467,-0.614923 0.30467,83.689875 0.30466,-13.18746 0.30467,7.80034 0.30467,-7.43208 0.60934,0.83317 0.30467,-1.16138 0.60933,0.13083 0.30467,0.73615 0.30467,2.36467 0.30467,-2.96978 0.30467,0.0936 0.60933,1.48748 0.30467,-0.2846 0.30467,2.49712 0.30467,-4.40094 0.30467,1.59341 0.30466,0.85915 0.30467,-0.2644 0.60934,-1.35208 0.30467,-0.0175 0.60933,1.27291 0.30467,-0.53895 0.30467,2.79926 0.30467,-1.94307 0.30467,-0.31721 0.30467,1.61229 0.30466,-3.0581 0.30467,0.91101 0.30467,1.62059 0.30467,-1.37786 0.30467,0.44064 0.30467,1.54619 0.30466,-4.11928 0.30467,0.80279 0.30467,1.33954 0.30467,-1.75898 0.30467,5.94365 0.30466,-4.25519 0.30467,1.55399 0.30467,-2.43422 0.30467,1.48055 0.30467,0.84628 0.30467,-0.0851 0.30466,-1.65827 0.30467,-0.0828 0.60934,1.42609 0.30467,-1.85232 0.30467,1.40035 0.30466,-1.28924 0.30467,3.40911 0.30467,-4.21856 0.30467,0.38466 0.30467,0.82191 0.30467,-1.06916 0.30466,1.15088 0.30467,0.71245 0.30467,0.13666 0.30467,-0.95973 0.30467,1.28207 0.30467,-2.52264 0.30466,0.32145 0.60934,4.01619 0.30467,-4.40269 0.30467,1.33121 0.30467,0.45573 0.30466,-0.44108 0.30467,0.45132 0.30467,-0.75816 0.60934,-0.7562 0.30467,-0.11111 0.60933,0.40719 0.30467,2.14625 0.30467,-2.65474 0.30467,0.10273 0.60933,1.95408 0.30467,-1.24012 0.30467,0.25267 0.30467,1.35014 0.30467,-1.99786 0.30467,0.15083 0.60933,0.76549 0.30467,2.78471 0.30467,-3.67638 0.30467,2.20325 0.30467,-0.7893 0.30466,-0.35304 0.30467,1.63266 0.30467,-1.72649 0.30467,1.55256 0.30467,-2.41093 0.30466,1.75801 0.30467,-1.94823 0.30467,0.83358 0.60934,-1.27525 0.30467,1.50581 0.30466,-1.40611 0.30467,4.23838 0.30467,-2.48344 0.30467,3.9405 0.30467,-3.84657 0.30467,0.74424 0.30467,-1.54114 0.30466,0.78407 0.30467,0.0837 0.30467,0.78748 0.30467,-1.55948 0.30467,-0.53297 0.30466,0.99101 0.30467,1.81334 0.30467,-2.1614 0.30467,-0.57945 0.30467,3.74985 0.30467,-2.46318 0.914,2.04953 0.30467,-3.18861 0.60934,1.19752 0.30466,-0.84456 0.30467,-0.15745 0.30467,1.02729 0.30467,-1.90753 0.30467,3.23007 0.30467,1.00433 0.30466,-3.88284 0.30467,2.13631 0.30467,-1.54522 0.30467,0.87442 0.30467,1.59078 0.30467,0.73783 0.30466,-1.37863 0.30467,-2.81918 0.60934,4.88979 0.30467,-5.11528 0.30467,2.18801 0.30466,-1.61927 0.30467,2.36011 0.30467,-1.91911 0.30467,3.04706 0.30467,-2.70847 0.30466,1.16903 0.30467,0.2428 0.30467,-1.29405 0.30467,-0.59448 0.30467,1.33764 0.30467,-0.87388 0.30466,-1.25603 0.30467,2.11253 0.30467,-1.57514 0.30467,0.19986 0.30467,0.38827 0.30467,4.57729 0.30466,-5.02401 0.30467,2.18587 0.30467,-0.0322 0.30467,-0.84059 0.30467,0.44804 0.30467,-0.97111 0.914,-0.0309 0.30467,-0.26322 0.30467,2.18496 0.30467,-2.58142 0.60933,1.79725 0.30467,-1.99473 0.60934,0.0487 0.30467,-0.21574 0.30466,2.48571 0.30467,0.54636 0.30467,-2.08582 0.30467,-0.18581 0.30467,0.93919 0.30467,-1.48578 0.30466,2.42134 0.30467,-1.83082 0.30467,-0.24718 0.30467,1.14723 0.30467,-1.39575 0.30467,1.77328 0.30466,-1.7126 0.30467,1.63538 0.30467,-1.11927 0.30467,0.14824 0.30467,1.24115 0.30467,-1.35956 0.30466,0.10356 0.30467,1.48053 0.30467,-2.31945 0.30467,0.002 0.30467,1.76846 0.30467,-1.27629 0.30466,0.47688 0.30467,-0.62107 0.30467,2.16273 0.30467,-2.2048 0.30467,0.91536 0.30467,0.24649 0.30466,-0.39023 0.60934,-1.07917 0.30467,1.94854 0.30467,0.71395 0.30466,-0.41772 0.30467,-2.72835 0.30467,1.4407 0.30467,-0.0896 0.30467,1.0628 0.30467,-1.61569 0.30466,1.8105 0.30467,-1.75453 0.30467,1.48115 0.30467,-0.77566 0.30467,1.7874 0.30467,-1.26873 0.60933,-1.58809 0.30467,0.58196 0.30467,0.0494 0.30467,1.06697 0.30467,-0.44148 0.60933,0.22587 0.30467,-1.03998 0.30467,2.86314 0.30467,-0.11501 0.30467,-1.42749 0.30466,-0.40034 0.30467,0.66512 0.30467,-1.48072 0.30467,0.98441 0.30467,-1.3177 0.60933,-0.20819 0.30467,1.1381 0.30467,-0.67674 0.30467,0.9724 0.30467,-0.77694 0.30467,2.13742 0.30466,-1.61464 0.30467,-0.80424 0.60934,0.65439 0.30467,-0.31232 0.30467,0.72484 0.30466,-0.36416 0.30467,0.42915 0.30467,-0.13092 0.30467,1.0022 0.60934,-0.72641 0.30466,-1.11183 0.30467,1.12831 0.30467,0.0508 0.30467,-2.03043 0.30467,0.29205 0.30466,1.19006 0.30467,-0.33453 0.30467,-1.33261 0.30467,1.17486 0.30467,0.47899 0.30467,0.82996 0.60933,-2.37125 0.30467,3.37927 0.30467,-3.00148 0.30467,1.74494 0.60933,-1.29727 0.30467,-0.83696 0.30467,2.1035 0.30467,0.0437 0.30467,-1.1107 0.30467,0.28749 0.30466,0.87462 0.30467,-1.72142 0.60934,1.76188 0.60934,-1.53402 0.30467,1.37477 0.30466,-2.22263 0.30467,0.0826 0.30467,1.90373 0.30467,0.42311 0.30467,-0.78006 0.30466,0.49451 0.30467,-0.90808 0.30467,-0.29307 0.30467,0.63958 0.30467,1.54724 0.30467,-1.78822 0.30466,0.42965 0.60934,-1.43244 0.60934,3.23864 0.60933,-3.15972 0.30467,0.0105 0.30467,3.20749 0.30467,-1.2607 0.30467,-1.98554 0.30467,0.5517 0.30466,1.80333 0.30467,-1.29765 0.30467,-0.61669 0.30467,2.23742 0.60934,-1.17027 0.30466,0.17238 0.30467,-1.28147 0.30467,1.52061 0.30467,-1.7114 0.30467,1.84851 0.30466,-0.20005 0.60934,-1.84026 0.30467,0.90774 0.30467,-0.20361 0.30467,1.1907 0.30466,-0.98822 0.30467,-0.18782 0.30467,0.22538 0.30467,-0.64646 0.30467,1.14859 0.30467,0.12333 0.30466,-0.0682 0.30467,-1.90817 0.30467,1.73918 0.30467,-0.78488 0.30467,2.65802 0.60933,-3.66105 0.30467,2.34673 0.30467,-0.93824 0.30467,0.0406 0.30467,0.43901 0.30467,-0.0387 0.30467,-0.20933 0.30466,1.44658 0.30467,-1.91573 0.30467,1.32817 0.30467,-1.24067 0.30467,1.33304 0.30466,-1.11032 0.30467,2.00329 0.30467,-2.7049 0.30467,0.50259 0.30467,-0.20434 0.30467,1.56374 0.30466,-0.0981 0.30467,-1.16338 0.30467,-0.1975 0.30467,0.10078 0.30467,0.70338 0.30467,-0.92166 0.30466,-0.41517 0.30467,0.47767 0.30467,0.006 0.30467,0.44299 0.30467,-1.15715 0.30467,1.24055 0.60933,-0.0479 0.30467,0.11991 0.30467,-0.74862 0.30467,-0.10327 0.30467,1.84652 0.30466,0.19058 0.30467,1.33075 0.30467,-2.48326 0.30467,-0.37035 0.30467,-0.007 0.30466,2.88142 0.30467,-2.40195 0.30467,-0.45901 0.30467,0.0821 0.60934,0.78043 0.30467,-0.91178 0.30466,1.64819 0.30467,0.1356 0.30467,0.30035 0.30467,-2.53 0.30467,1.97945 0.30466,-1.92793 0.30467,0.86436 0.30467,-0.82319 0.30467,0.75166 0.60934,-0.45176 0.30467,-0.76701 0.30466,0.004 0.30467,0.90371 0.30467,-0.31561 0.30467,0.11917 0.30467,-0.80584 0.30466,2.67198 0.30467,-0.34153 0.30467,1.82818 0.30467,-4.11955 0.30467,0.87619 0.60933,2.45198 0.30467,-3.33604 0.30467,2.28233 0.30467,-0.42491 0.60934,0.42205 0.30466,-0.98401 0.30467,-0.11289 0.60934,-0.60001 0.30467,-0.60521 0.30467,1.42815 0.30466,-0.36962 0.30467,2.14785 0.30467,-3.22893 0.30467,0.88272 0.60934,-0.27004 0.30466,-0.15872 0.30467,0.21924 0.60934,0.0324 0.30467,-0.34293 0.60933,4.47626 0.30467,-4.26715 0.30467,2.12167 0.60934,-3.23393 0.30466,2.603 0.30467,-0.36422 0.30467,0.28637 0.30467,-1.24009 0.30467,-0.67533 0.30467,1.07483 0.30466,2.11398 0.30467,-2.32849 0.30467,1.23932 0.30467,-0.9223 0.30467,-0.22644 0.30467,1.07633 0.30466,-1.27098 0.30467,0.0759 0.30467,1.70427 0.30467,-2.24748 0.30467,0.90226 0.60933,0.73539 0.30467,-1.44768 0.30467,0.21731 0.30467,0.49957 0.30467,-1.32889 0.30467,0.20439 0.60933,3.55642 0.30467,-0.15702 0.30467,-2.48809 0.30467,0.73302 0.30467,-2.38009 0.30466,1.01125 0.30467,1.48681 0.30467,-2.35436 0.30467,1.49978 0.30467,0.0388 0.30467,0.99245 0.30466,-1.41487 0.30467,-0.15661 0.30467,0.87945 0.30467,-0.86677 0.30467,2.78276 0.30467,-2.98892 0.60933,2.13754 0.30467,-1.87372 0.30467,0.82145 0.60934,0.89738 0.30466,0.11252 0.60934,-1.35355 0.30467,-0.15936 0.30467,2.19177 0.30467,-2.78972 0.30466,-0.0932 0.30467,0.58023 0.30467,-0.3535 0.30467,0.0902 0.30467,0.43154 0.30466,0.0648 0.60934,-1.10728 0.30467,0.84481 0.30467,0.30355 0.30467,-0.92896 0.30466,0.95462 0.60934,-1.08746 0.30467,1.36728 0.30467,0.0553 0.30467,-1.2266 0.30466,0.23807 0.30467,4.70297 0.30467,-4.63133 0.30467,-0.0343 0.30467,0.34892 0.30467,2.68978 0.30466,-2.20908 0.30467,-1.39264 0.30467,1.90063 0.30467,-2.10288 0.30467,3.83953 0.30467,-3.02192 0.30466,0.65576 0.30467,-1.47619 0.30467,2.775 0.30467,-1.03052 0.30467,-0.51948 0.30467,0.49661 0.30466,-0.79908 0.30467,0.46142 0.30467,0.17815 0.30467,-1.21825 0.30467,0.61875 0.30467,1.31546 0.30466,-0.58035 0.30467,-1.69182 0.30467,1.8369 0.30467,-0.56123 0.30467,0.39911 0.30467,-0.95735 0.30466,-0.27387 0.30467,2.01939 0.30467,0.57393 0.30467,-2.3498 0.30467,1.97608 0.30467,-1.84875 0.30466,-0.18783 0.30467,0.10252 0.30467,1.13359 0.30467,-1.04358 0.30467,0.95914 0.30466,-1.67836 0.30467,0.0836 0.30467,2.59539 0.60934,-2.7352 0.30467,1.06469 0.30466,-0.27482 0.30467,0.0137 0.30467,3.33946 0.30467,-3.77787 0.30467,1.80873 0.30467,-0.74264 0.30466,-0.3862 0.30467,0.90338 0.30467,0.23922 0.30467,-1.43792 0.30467,-0.69132 0.30467,1.22972 0.30466,-0.77468 0.30467,2.41091 0.30467,-0.32666 0.30467,-2.03942 0.30467,1.24274 v 0"
         style="fill:none;stroke:#ff7f0e;stroke-width:1.5;stroke-linecap:square;stroke-linejoin:round;stroke-miterlimit:10;stroke-dasharray:none;stroke-opacity:1"
         id="path460" /></g><path
       d="m 38.358657,134.37615 v 150.9019"
       style="fill:none;stroke:#000000;stroke-width:0.483893;stroke-linecap:square;stroke-linejoin:miter;stroke-miterlimit:10;stroke-dasharray:none;stroke-opacity:1"
       id="path464" /><path
       d="m 240.86771,134.37615 v 150.9019"
       style="fill:none;stroke:#000000;stroke-width:0.483893;stroke-linecap:square;stroke-linejoin:miter;stroke-miterlimit:10;stroke-dasharray:none;stroke-opacity:1"
       id="path466" /><path
       d="M 38.358657,134.37615 H 240.86771"
       style="fill:none;stroke:#000000;stroke-width:0.483893;stroke-linecap:square;stroke-linejoin:miter;stroke-miterlimit:10;stroke-dasharray:none;stroke-opacity:1"
       id="path468" /><path
       d="M 38.358657,285.27805 H 240.86771"
       style="fill:none;stroke:#000000;stroke-width:0.483893;stroke-linecap:square;stroke-linejoin:miter;stroke-miterlimit:10;stroke-dasharray:none;stroke-opacity:1"
       id="path470" /><path
       d="m 142.33867,253.46259 h 55.51495 c 0.91101,0 1.36652,0.40325 1.36652,1.20974 v 17.14416 c 0,0.80648 -0.45551,1.20973 -1.36652,1.20973 h -55.51495 c -0.91101,0 -1.36653,-0.40325 -1.36653,-1.20973 v -17.14416 c 0,-0.80649 0.45552,-1.20974 1.36653,-1.20974 z"
       style="fill:#ffffff;fill-opacity:0.8;fill-rule:nonzero;stroke:#cccccc;stroke-width:0.604866;stroke-linecap:butt;stroke-linejoin:miter;stroke-miterlimit:10;stroke-dasharray:none;stroke-opacity:0.8"
       id="path476" /><path
       d="m 143.39162,268.13058 h 12.09731"
       style="fill:none;stroke:#1f77b4;stroke-width:0.907299;stroke-linecap:square;stroke-linejoin:round;stroke-miterlimit:10;stroke-dasharray:none;stroke-opacity:1"
       id="path478" /><path
       d="m 143.39162,259.25607 h 12.09731"
       style="fill:none;stroke:#ff7f0e;stroke-width:0.907299;stroke-linecap:square;stroke-linejoin:round;stroke-miterlimit:10;stroke-dasharray:none;stroke-opacity:1"
       id="path484" /></g><g
     inkscape:groupmode="layer"
     id="layer1"
     inkscape:label="text"
     style="display:inline"
     transform="translate(-19.220156,-51.306676)"><text
       style="font-variant:normal;font-weight:normal;font-size:8.06488px;font-family:'DejaVu Sans';-inkscape-font-specification:DejaVuSans;writing-mode:lr-tb;fill:#000000;fill-opacity:1;fill-rule:nonzero;stroke:none;stroke-width:0.806488"
       id="text32"
       x="60.608059"
       y="264.60147"><tspan
         x="60.608059"
         y="264.60147"
         id="tspan30"
         style="stroke-width:0.806488">0</tspan></text><text
       style="font-variant:normal;font-weight:normal;font-size:8.06488px;font-family:'DejaVu Sans';-inkscape-font-specification:DejaVuSans;writing-mode:lr-tb;fill:#000000;fill-opacity:1;fill-rule:nonzero;stroke:none;stroke-width:0.806488"
       id="text50"
       x="80.050423"
       y="264.60147"><tspan
         x="80.050423 85.179688 90.308945"
         y="264.60147"
         sodipodi:role="line"
         id="tspan48"
         style="stroke-width:0.806488">100</tspan></text><text
       style="font-variant:normal;font-weight:normal;font-size:8.06488px;font-family:'DejaVu Sans';-inkscape-font-specification:DejaVuSans;writing-mode:lr-tb;fill:#000000;fill-opacity:1;fill-rule:nonzero;stroke:none;stroke-width:0.806488"
       id="text68"
       x="104.62156"
       y="264.60147"><tspan
         x="104.62156 109.75082 114.88007"
         y="264.60147"
         sodipodi:role="line"
         id="tspan66"
         style="stroke-width:0.806488">200</tspan></text><text
       style="font-variant:normal;font-weight:normal;font-size:8.06488px;font-family:'DejaVu Sans';-inkscape-font-specification:DejaVuSans;writing-mode:lr-tb;fill:#000000;fill-opacity:1;fill-rule:nonzero;stroke:none;stroke-width:0.806488"
       id="text86"
       x="129.19266"
       y="264.60147"><tspan
         x="129.19266 134.32193 139.45119"
         y="264.60147"
         sodipodi:role="line"
         id="tspan84"
         style="stroke-width:0.806488">300</tspan></text><text
       style="font-variant:normal;font-weight:normal;font-size:8.06488px;font-family:'DejaVu Sans';-inkscape-font-specification:DejaVuSans;writing-mode:lr-tb;fill:#000000;fill-opacity:1;fill-rule:nonzero;stroke:none;stroke-width:0.806488"
       id="text104"
       x="153.76379"
       y="264.60147"><tspan
         x="153.76379 158.89305 164.02232"
         y="264.60147"
         sodipodi:role="line"
         id="tspan102"
         style="stroke-width:0.806488">400</tspan></text><text
       style="font-variant:normal;font-weight:normal;font-size:8.06488px;font-family:'DejaVu Sans';-inkscape-font-specification:DejaVuSans;writing-mode:lr-tb;fill:#000000;fill-opacity:1;fill-rule:nonzero;stroke:none;stroke-width:0.806488"
       id="text122"
       x="178.33492"
       y="264.60147"><tspan
         x="178.33492 183.46417 188.59343"
         y="264.60147"
         sodipodi:role="line"
         id="tspan120"
         style="stroke-width:0.806488">500</tspan></text><text
       style="font-variant:normal;font-weight:normal;font-size:8.06488px;font-family:'DejaVu Sans';-inkscape-font-specification:DejaVuSans;writing-mode:lr-tb;fill:#000000;fill-opacity:1;fill-rule:nonzero;stroke:none;stroke-width:0.806488"
       id="text140"
       x="202.90604"
       y="264.60147"><tspan
         x="202.90604 208.03531 213.16457"
         y="264.60147"
         sodipodi:role="line"
         id="tspan138"
         style="stroke-width:0.806488">600</tspan></text><text
       style="font-variant:normal;font-weight:normal;font-size:8.06488px;font-family:'DejaVu Sans';-inkscape-font-specification:DejaVuSans;writing-mode:lr-tb;fill:#000000;fill-opacity:1;fill-rule:nonzero;stroke:none;stroke-width:0.806488"
       id="text158"
       x="227.47717"
       y="264.60147"><tspan
         x="227.47717 232.60641 237.7357"
         y="264.60147"
         sodipodi:role="line"
         id="tspan156"
         style="stroke-width:0.806488">700</tspan></text><text
       style="font-variant:normal;font-weight:normal;font-size:8.06488px;font-family:'DejaVu Sans';-inkscape-font-specification:DejaVuSans;writing-mode:lr-tb;fill:#000000;fill-opacity:1;fill-rule:nonzero;stroke:none;stroke-width:0.806488"
       id="text176"
       x="252.04829"
       y="264.60147"><tspan
         x="252.04829 257.17755 262.30682"
         y="264.60147"
         sodipodi:role="line"
         id="tspan174"
         style="stroke-width:0.806488">800</tspan></text><text
       style="font-variant:normal;font-weight:normal;font-size:8.06488px;font-family:'DejaVu Sans';-inkscape-font-specification:DejaVuSans;writing-mode:lr-tb;fill:#000000;fill-opacity:1;fill-rule:nonzero;stroke:none;stroke-width:0.806488"
       id="text194"
       x="276.61942"
       y="264.60147"><tspan
         x="276.61942 281.74869 286.87793"
         y="264.60147"
         sodipodi:role="line"
         id="tspan192"
         style="stroke-width:0.806488">900</tspan></text><text
       style="font-variant:normal;font-weight:normal;font-size:8.06488px;font-family:'DejaVu Sans';-inkscape-font-specification:DejaVuSans;writing-mode:lr-tb;fill:#000000;fill-opacity:1;fill-rule:nonzero;stroke:none;stroke-width:0.806488"
       id="text212"
       x="298.62616"
       y="264.60147"><tspan
         x="298.62616 303.75543 308.8847 314.01395"
         y="264.60147"
         sodipodi:role="line"
         id="tspan210"
         style="stroke-width:0.806488">1000</tspan></text><text
       style="font-variant:normal;font-weight:normal;font-size:8.06488px;font-family:'DejaVu Sans';-inkscape-font-specification:DejaVuSans;writing-mode:lr-tb;fill:#000000;fill-opacity:1;fill-rule:nonzero;stroke:none;stroke-width:0.806488"
       id="text216"
       x="173.86456"
       y="275.62769"><tspan
         x="173.86456 178.82446 183.94566 188.88136 193.31705"
         y="275.62769"
         sodipodi:role="line"
         id="tspan214"
         style="stroke-width:0.806488">epoch</tspan></text><text
       style="font-variant:normal;font-weight:normal;font-size:8.06488px;font-family:'DejaVu Sans';-inkscape-font-specification:DejaVuSans;writing-mode:lr-tb;fill:#000000;fill-opacity:1;fill-rule:nonzero;stroke:none;stroke-width:0.806488"
       id="text236"
       x="30.982683"
       y="180.0192"><tspan
         x="30.982683 36.113804"
         y="180.0192"
         sodipodi:role="line"
         id="tspan234"
         style="stroke-width:0.806488">10</tspan></text><text
       transform="rotate(-90)"
       style="font-variant:normal;font-weight:normal;font-size:8.06488px;font-family:'DejaVu Sans';-inkscape-font-specification:DejaVuSans;writing-mode:lr-tb;fill:#000000;fill-opacity:1;fill-rule:nonzero;stroke:none;stroke-width:0.806488"
       id="text440"
       x="-142.28323"
       y="39.943718"><tspan
         x="-142.28323 -140.0412 -135.10548 -130.90369"
         y="39.943718"
         sodipodi:role="line"
         id="tspan438"
         style="stroke-width:0.806488">loss (MSE)</tspan></text><text
       style="font-variant:normal;font-weight:normal;font-size:8.06488px;font-family:'DejaVu Sans';-inkscape-font-specification:DejaVuSans;writing-mode:lr-tb;fill:#000000;fill-opacity:1;fill-rule:nonzero;stroke:none;stroke-width:0.806488"
       id="text482"
       x="213.77046"
       y="77.315269"><tspan
         x="213.77046 216.93192 220.24657 225.19034 227.43237"
         y="77.315269"
         sodipodi:role="line"
         id="tspan480"
         style="stroke-width:0.806488">train</tspan></text><text
       style="font-variant:normal;font-weight:normal;font-size:8.06488px;font-family:'DejaVu Sans';-inkscape-font-specification:DejaVuSans;writing-mode:lr-tb;fill:#000000;fill-opacity:1;fill-rule:nonzero;stroke:none;stroke-width:0.806488"
       id="text488"
       x="213.77046"
       y="89.147957"><tspan
         x="213.77046 218.54489 223.48866 225.7307 227.97273 233.09393 238.0377 241.19911 243.44116 248.37685"
         y="89.147957"
         sodipodi:role="line"
         id="tspan486"
         style="stroke-width:0.806488">validation</tspan></text><text
       xml:space="preserve"
       style="font-style:normal;font-weight:normal;font-size:8.87139px;line-height:1.25;font-family:sans-serif;letter-spacing:0px;word-spacing:0px;display:inline;fill:#000000;fill-opacity:1;stroke:none;stroke-width:0.604866"
       x="18.544407"
       y="249.29959"
       id="text1381"><tspan
         sodipodi:role="line"
         id="tspan1379"
         x="18.544407"
         y="249.29959"
         style="stroke-width:0.604866">3x$10^5$</tspan></text><text
       style="font-variant:normal;font-weight:normal;font-size:5.64542px;font-family:'DejaVu Sans';-inkscape-font-specification:DejaVuSans;writing-mode:lr-tb;fill:#000000;fill-opacity:1;fill-rule:nonzero;stroke:none;stroke-width:0.806488"
       id="text240"
       x="41.322105"
       y="176.93184"><tspan
         x="41.322105"
         y="176.93184"
         id="tspan238"
         style="stroke-width:0.806488">6</tspan></text></g></svg>
