<?xml version="1.0" encoding="UTF-8" standalone="no"?>
<svg
   xmlns:dc="http://purl.org/dc/elements/1.1/"
   xmlns:cc="http://creativecommons.org/ns#"
   xmlns:rdf="http://www.w3.org/1999/02/22-rdf-syntax-ns#"
   xmlns:svg="http://www.w3.org/2000/svg"
   xmlns="http://www.w3.org/2000/svg"
   xmlns:sodipodi="http://sodipodi.sourceforge.net/DTD/sodipodi-0.dtd"
   xmlns:inkscape="http://www.inkscape.org/namespaces/inkscape"
   version="1.1"
   id="svg2"
   xml:space="preserve"
   width="80mm"
   height="65.300003mm"
   viewBox="0 0 302.36219 246.80316"
   sodipodi:docname="pearson_chr05.svg"
   inkscape:version="1.0.2 (1.0.2+r75+1)"><metadata
     id="metadata8"><rdf:RDF><cc:Work
         rdf:about=""><dc:format>image/svg+xml</dc:format><dc:type
           rdf:resource="http://purl.org/dc/dcmitype/StillImage" /><dc:title></dc:title></cc:Work></rdf:RDF></metadata><defs
     id="defs6"><clipPath
       clipPathUnits="userSpaceOnUse"
       id="clipPath22"><path
         d="M 57.6,38.016 H 414.72 V 304.128 H 57.6 Z"
         id="path20" /></clipPath><clipPath
       clipPathUnits="userSpaceOnUse"
       id="clipPath40"><path
         d="M 57.6,38.016 H 414.72 V 304.128 H 57.6 Z"
         id="path38" /></clipPath><clipPath
       clipPathUnits="userSpaceOnUse"
       id="clipPath58"><path
         d="M 57.6,38.016 H 414.72 V 304.128 H 57.6 Z"
         id="path56" /></clipPath><clipPath
       clipPathUnits="userSpaceOnUse"
       id="clipPath76"><path
         d="M 57.6,38.016 H 414.72 V 304.128 H 57.6 Z"
         id="path74" /></clipPath><clipPath
       clipPathUnits="userSpaceOnUse"
       id="clipPath94"><path
         d="M 57.6,38.016 H 414.72 V 304.128 H 57.6 Z"
         id="path92" /></clipPath><clipPath
       clipPathUnits="userSpaceOnUse"
       id="clipPath112"><path
         d="M 57.6,38.016 H 414.72 V 304.128 H 57.6 Z"
         id="path110" /></clipPath><clipPath
       clipPathUnits="userSpaceOnUse"
       id="clipPath130"><path
         d="M 57.6,38.016 H 414.72 V 304.128 H 57.6 Z"
         id="path128" /></clipPath><clipPath
       clipPathUnits="userSpaceOnUse"
       id="clipPath148"><path
         d="M 57.6,38.016 H 414.72 V 304.128 H 57.6 Z"
         id="path146" /></clipPath><clipPath
       clipPathUnits="userSpaceOnUse"
       id="clipPath170"><path
         d="M 57.6,38.016 H 414.72 V 304.128 H 57.6 Z"
         id="path168" /></clipPath><clipPath
       clipPathUnits="userSpaceOnUse"
       id="clipPath188"><path
         d="M 57.6,38.016 H 414.72 V 304.128 H 57.6 Z"
         id="path186" /></clipPath><clipPath
       clipPathUnits="userSpaceOnUse"
       id="clipPath206"><path
         d="M 57.6,38.016 H 414.72 V 304.128 H 57.6 Z"
         id="path204" /></clipPath><clipPath
       clipPathUnits="userSpaceOnUse"
       id="clipPath224"><path
         d="M 57.6,38.016 H 414.72 V 304.128 H 57.6 Z"
         id="path222" /></clipPath><clipPath
       clipPathUnits="userSpaceOnUse"
       id="clipPath242"><path
         d="M 57.6,38.016 H 414.72 V 304.128 H 57.6 Z"
         id="path240" /></clipPath><clipPath
       clipPathUnits="userSpaceOnUse"
       id="clipPath260"><path
         d="M 57.6,38.016 H 414.72 V 304.128 H 57.6 Z"
         id="path258" /></clipPath><clipPath
       clipPathUnits="userSpaceOnUse"
       id="clipPath282"><path
         d="M 57.6,38.016 H 414.72 V 304.128 H 57.6 Z"
         id="path280" /></clipPath><clipPath
       clipPathUnits="userSpaceOnUse"
       id="clipPath292"><path
         d="M 57.6,38.016 H 414.72 V 304.128 H 57.6 Z"
         id="path290" /></clipPath><clipPath
       clipPathUnits="userSpaceOnUse"
       id="clipPath302"><path
         d="M 57.6,38.016 H 414.72 V 304.128 H 57.6 Z"
         id="path300" /></clipPath><clipPath
       clipPathUnits="userSpaceOnUse"
       id="clipPath312"><path
         d="M 57.6,38.016 H 414.72 V 304.128 H 57.6 Z"
         id="path310" /></clipPath><clipPath
       clipPathUnits="userSpaceOnUse"
       id="clipPath322"><path
         d="M 57.6,38.016 H 414.72 V 304.128 H 57.6 Z"
         id="path320" /></clipPath><clipPath
       clipPathUnits="userSpaceOnUse"
       id="clipPath332"><path
         d="M 57.6,38.016 H 414.72 V 304.128 H 57.6 Z"
         id="path330" /></clipPath></defs><sodipodi:namedview
     pagecolor="#ffffff"
     bordercolor="#666666"
     borderopacity="1"
     objecttolerance="10"
     gridtolerance="10"
     guidetolerance="10"
     inkscape:pageopacity="0"
     inkscape:pageshadow="2"
     inkscape:window-width="1920"
     inkscape:window-height="1020"
     id="namedview4"
     showgrid="false"
     fit-margin-top="0"
     fit-margin-left="0"
     fit-margin-right="0"
     fit-margin-bottom="0"
     units="mm"
     inkscape:zoom="2.6301672"
     inkscape:cx="148.862"
     inkscape:cy="162.33002"
     inkscape:window-x="0"
     inkscape:window-y="0"
     inkscape:window-maximized="1"
     inkscape:current-layer="g10" /><g
     id="g10"
     inkscape:groupmode="layer"
     inkscape:label="pearson_chr05"
     transform="matrix(1.3333333,0,0,-1.3333333,-28.023958,443.59358)"><g
       id="g328"
       clip-path="url(#clipPath332)"
       transform="matrix(0.57535538,0,0,0.57535538,8.9251674,141.99003)"
       style="stroke:#d62728;stroke-opacity:1"><path
         d="m 57.6,274.26669 5.668571,-8.51413 5.668572,-4.60585 5.668571,-0.61572 5.668572,-0.97414 5.668571,0.2994 5.668572,0.17462 5.668571,-0.0369 5.66857,0.55342 5.66857,-1.55777 5.66857,-1.31879 5.66858,-0.0429 5.66857,-1.84437 5.66857,-1.25059 5.66857,-0.22577 5.66857,-2.59774 5.66857,-0.67705 5.66857,-0.23919 5.66858,-2.43211 5.66857,-1.4151 5.66857,-1.07585 5.66857,-1.42078 5.66857,0.29705 5.66857,-1.2512 5.66857,-4.21345 5.66858,1.85402 5.66857,0.40948 5.66857,0.49735 5.66857,-0.15599 5.66857,-2.90436 5.66857,0.90238 5.66857,-3.56086 5.66858,-0.71117 5.66857,0.0317 5.66857,-3.35022 5.66857,0.40922 5.66857,-1.31818 5.66857,-0.0777 5.66857,-2.52089 5.66858,2.24148 5.66857,-2.15834 5.66857,-3.06158 5.66857,-0.31306 5.66857,-0.70681 5.66857,4.80396 5.66857,-2.65466 5.66858,0.83184 5.66857,-1.614 5.66857,-2.32449 5.66857,2.89507 5.66857,-6.57443 5.66857,2.15945 5.66857,-6.06139 5.66858,-1.32181 5.66857,-1.42226 5.66857,-2.91308 5.66857,-0.51664 5.66857,1.0175 5.66857,-5.84401 5.66857,1.57233 5.66858,-5.53072 5.66857,5.36572 5.66857,-2.10874 5.66857,3.65182"
         style="fill:none;stroke:#d62728;stroke-width:1.5;stroke-linecap:square;stroke-linejoin:round;stroke-miterlimit:10;stroke-dasharray:none;stroke-opacity:1"
         id="path334" /></g><g
       id="g16"
       transform="matrix(0.57535538,0,0,0.57535538,8.9251674,141.99003)"><g
         id="g18"
         clip-path="url(#clipPath22)"><path
           d="M 57.6,38.016 V 304.128"
           style="fill:none;stroke:#b0b0b0;stroke-width:0.8;stroke-linecap:square;stroke-linejoin:round;stroke-miterlimit:10;stroke-dasharray:none;stroke-opacity:1"
           id="path24" /></g></g><path
       d="m 42.065638,163.86273 v -2.01374"
       style="fill:#000000;fill-opacity:1;fill-rule:nonzero;stroke:#000000;stroke-width:0.460284;stroke-linecap:butt;stroke-linejoin:round;stroke-miterlimit:10;stroke-dasharray:none;stroke-opacity:1"
       id="path28" /><g
       id="g34"
       transform="matrix(0.57535538,0,0,0.57535538,8.9251674,141.99003)"><g
         id="g36"
         clip-path="url(#clipPath40)"><path
           d="M 102.94857,38.016 V 304.128"
           style="fill:none;stroke:#b0b0b0;stroke-width:0.8;stroke-linecap:square;stroke-linejoin:round;stroke-miterlimit:10;stroke-dasharray:none;stroke-opacity:1"
           id="path42" /></g></g><path
       d="m 68.157181,163.86273 v -2.01374"
       style="fill:#000000;fill-opacity:1;fill-rule:nonzero;stroke:#000000;stroke-width:0.460284;stroke-linecap:butt;stroke-linejoin:round;stroke-miterlimit:10;stroke-dasharray:none;stroke-opacity:1"
       id="path46" /><g
       id="g52"
       transform="matrix(0.57535538,0,0,0.57535538,8.9251674,141.99003)"><g
         id="g54"
         clip-path="url(#clipPath58)"><path
           d="M 148.29714,38.016 V 304.128"
           style="fill:none;stroke:#b0b0b0;stroke-width:0.8;stroke-linecap:square;stroke-linejoin:round;stroke-miterlimit:10;stroke-dasharray:none;stroke-opacity:1"
           id="path60" /></g></g><path
       d="m 94.248725,163.86273 v -2.01374"
       style="fill:#000000;fill-opacity:1;fill-rule:nonzero;stroke:#000000;stroke-width:0.460284;stroke-linecap:butt;stroke-linejoin:round;stroke-miterlimit:10;stroke-dasharray:none;stroke-opacity:1"
       id="path64" /><g
       id="g70"
       transform="matrix(0.57535538,0,0,0.57535538,8.9251674,141.99003)"><g
         id="g72"
         clip-path="url(#clipPath76)"><path
           d="M 193.64571,38.016 V 304.128"
           style="fill:none;stroke:#b0b0b0;stroke-width:0.8;stroke-linecap:square;stroke-linejoin:round;stroke-miterlimit:10;stroke-dasharray:none;stroke-opacity:1"
           id="path78" /></g></g><path
       d="m 120.34027,163.86273 v -2.01374"
       style="fill:#000000;fill-opacity:1;fill-rule:nonzero;stroke:#000000;stroke-width:0.460284;stroke-linecap:butt;stroke-linejoin:round;stroke-miterlimit:10;stroke-dasharray:none;stroke-opacity:1"
       id="path82" /><g
       id="g88"
       transform="matrix(0.57535538,0,0,0.57535538,8.9251674,141.99003)"><g
         id="g90"
         clip-path="url(#clipPath94)"><path
           d="M 238.99429,38.016 V 304.128"
           style="fill:none;stroke:#b0b0b0;stroke-width:0.8;stroke-linecap:square;stroke-linejoin:round;stroke-miterlimit:10;stroke-dasharray:none;stroke-opacity:1"
           id="path96" /></g></g><path
       d="m 146.43182,163.86273 v -2.01374"
       style="fill:#000000;fill-opacity:1;fill-rule:nonzero;stroke:#000000;stroke-width:0.460284;stroke-linecap:butt;stroke-linejoin:round;stroke-miterlimit:10;stroke-dasharray:none;stroke-opacity:1"
       id="path100" /><g
       id="g106"
       transform="matrix(0.57535538,0,0,0.57535538,8.9251674,141.99003)"><g
         id="g108"
         clip-path="url(#clipPath112)"><path
           d="M 284.34286,38.016 V 304.128"
           style="fill:none;stroke:#b0b0b0;stroke-width:0.8;stroke-linecap:square;stroke-linejoin:round;stroke-miterlimit:10;stroke-dasharray:none;stroke-opacity:1"
           id="path114" /></g></g><path
       d="m 172.52337,163.86273 v -2.01374"
       style="fill:#000000;fill-opacity:1;fill-rule:nonzero;stroke:#000000;stroke-width:0.460284;stroke-linecap:butt;stroke-linejoin:round;stroke-miterlimit:10;stroke-dasharray:none;stroke-opacity:1"
       id="path118" /><g
       id="g124"
       transform="matrix(0.57535538,0,0,0.57535538,8.9251674,141.99003)"><g
         id="g126"
         clip-path="url(#clipPath130)"><path
           d="M 329.69143,38.016 V 304.128"
           style="fill:none;stroke:#b0b0b0;stroke-width:0.8;stroke-linecap:square;stroke-linejoin:round;stroke-miterlimit:10;stroke-dasharray:none;stroke-opacity:1"
           id="path132" /></g></g><path
       d="m 198.6149,163.86273 v -2.01374"
       style="fill:#000000;fill-opacity:1;fill-rule:nonzero;stroke:#000000;stroke-width:0.460284;stroke-linecap:butt;stroke-linejoin:round;stroke-miterlimit:10;stroke-dasharray:none;stroke-opacity:1"
       id="path136" /><g
       id="g142"
       transform="matrix(0.57535538,0,0,0.57535538,8.9251674,141.99003)"><g
         id="g144"
         clip-path="url(#clipPath148)"><path
           d="M 375.04,38.016 V 304.128"
           style="fill:none;stroke:#b0b0b0;stroke-width:0.8;stroke-linecap:square;stroke-linejoin:round;stroke-miterlimit:10;stroke-dasharray:none;stroke-opacity:1"
           id="path150" /></g></g><path
       d="m 224.70645,163.86273 v -2.01374"
       style="fill:#000000;fill-opacity:1;fill-rule:nonzero;stroke:#000000;stroke-width:0.460284;stroke-linecap:butt;stroke-linejoin:round;stroke-miterlimit:10;stroke-dasharray:none;stroke-opacity:1"
       id="path154" /><g
       id="g164"
       transform="matrix(0.57535538,0,0,0.57535538,8.9251674,141.99003)"><g
         id="g166"
         clip-path="url(#clipPath170)"><path
           d="M 57.6,38.016 H 414.72"
           style="fill:none;stroke:#b0b0b0;stroke-width:0.8;stroke-linecap:square;stroke-linejoin:round;stroke-miterlimit:10;stroke-dasharray:none;stroke-opacity:1"
           id="path172" /></g></g><path
       d="M 42.065638,163.86273 H 40.051893"
       style="fill:#000000;fill-opacity:1;fill-rule:nonzero;stroke:#000000;stroke-width:0.460284;stroke-linecap:butt;stroke-linejoin:round;stroke-miterlimit:10;stroke-dasharray:none;stroke-opacity:1"
       id="path176" /><g
       id="g182"
       transform="matrix(0.57535538,0,0,0.57535538,8.9251674,141.99003)"><g
         id="g184"
         clip-path="url(#clipPath188)"><path
           d="M 57.6,91.2384 H 414.72"
           style="fill:none;stroke:#b0b0b0;stroke-width:0.8;stroke-linecap:square;stroke-linejoin:round;stroke-miterlimit:10;stroke-dasharray:none;stroke-opacity:1"
           id="path190" /></g></g><path
       d="M 42.065638,194.48453 H 40.051893"
       style="fill:#000000;fill-opacity:1;fill-rule:nonzero;stroke:#000000;stroke-width:0.460284;stroke-linecap:butt;stroke-linejoin:round;stroke-miterlimit:10;stroke-dasharray:none;stroke-opacity:1"
       id="path194" /><g
       id="g200"
       transform="matrix(0.57535538,0,0,0.57535538,8.9251674,141.99003)"><g
         id="g202"
         clip-path="url(#clipPath206)"><path
           d="M 57.6,144.4608 H 414.72"
           style="fill:none;stroke:#b0b0b0;stroke-width:0.8;stroke-linecap:square;stroke-linejoin:round;stroke-miterlimit:10;stroke-dasharray:none;stroke-opacity:1"
           id="path208" /></g></g><path
       d="M 42.065638,225.10633 H 40.051893"
       style="fill:#000000;fill-opacity:1;fill-rule:nonzero;stroke:#000000;stroke-width:0.460284;stroke-linecap:butt;stroke-linejoin:round;stroke-miterlimit:10;stroke-dasharray:none;stroke-opacity:1"
       id="path212" /><g
       id="g218"
       transform="matrix(0.57535538,0,0,0.57535538,8.9251674,141.99003)"><g
         id="g220"
         clip-path="url(#clipPath224)"><path
           d="M 57.6,197.6832 H 414.72"
           style="fill:none;stroke:#b0b0b0;stroke-width:0.8;stroke-linecap:square;stroke-linejoin:round;stroke-miterlimit:10;stroke-dasharray:none;stroke-opacity:1"
           id="path226" /></g></g><path
       d="M 42.065638,255.72811 H 40.051893"
       style="fill:#000000;fill-opacity:1;fill-rule:nonzero;stroke:#000000;stroke-width:0.460284;stroke-linecap:butt;stroke-linejoin:round;stroke-miterlimit:10;stroke-dasharray:none;stroke-opacity:1"
       id="path230" /><g
       id="g236"
       transform="matrix(0.57535538,0,0,0.57535538,8.9251674,141.99003)"><g
         id="g238"
         clip-path="url(#clipPath242)"><path
           d="M 57.6,250.9056 H 414.72"
           style="fill:none;stroke:#b0b0b0;stroke-width:0.8;stroke-linecap:square;stroke-linejoin:round;stroke-miterlimit:10;stroke-dasharray:none;stroke-opacity:1"
           id="path244" /></g></g><path
       d="M 42.065638,286.34991 H 40.051893"
       style="fill:#000000;fill-opacity:1;fill-rule:nonzero;stroke:#000000;stroke-width:0.460284;stroke-linecap:butt;stroke-linejoin:round;stroke-miterlimit:10;stroke-dasharray:none;stroke-opacity:1"
       id="path248" /><g
       id="g254"
       transform="matrix(0.57535538,0,0,0.57535538,8.9251674,141.99003)"><g
         id="g256"
         clip-path="url(#clipPath260)"><path
           d="M 57.6,304.128 H 414.72"
           style="fill:none;stroke:#b0b0b0;stroke-width:0.8;stroke-linecap:square;stroke-linejoin:round;stroke-miterlimit:10;stroke-dasharray:none;stroke-opacity:1"
           id="path262" /></g></g><path
       d="M 42.065638,316.9717 H 40.051893"
       style="fill:#000000;fill-opacity:1;fill-rule:nonzero;stroke:#000000;stroke-width:0.460284;stroke-linecap:butt;stroke-linejoin:round;stroke-miterlimit:10;stroke-dasharray:none;stroke-opacity:1"
       id="path266" /><g
       id="g278"
       clip-path="url(#clipPath282)"
       transform="matrix(0.57535538,0,0,0.57535538,8.9251674,141.99003)"><path
         d="m 57.6,265.99299 5.668571,4.36408 5.668572,-13.11838 5.668571,-5.32228 5.668572,-6.19738 5.668571,-5.55838 5.668572,-4.37546 5.668571,-5.36796 5.66857,-5.85828 5.66857,0.11623 5.66857,-2.98248 5.66858,-5.6976 5.66857,-2.06875 5.66857,-4.05914 5.66857,-5.55234 5.66857,-6.01655 5.66857,-2.95234 5.66857,-3.67949 5.66858,0.13075 5.66857,-0.92735 5.66857,-3.19431 5.66857,-2.93641 5.66857,-3.90589 5.66857,-1.38615 5.66857,-1.99095 5.66858,-3.51529 5.66857,-6.37831 5.66857,1.82447 5.66857,-4.77935 5.66857,0.36073 5.66857,-4.8009 5.66857,-2.08548 5.66858,-1.65504 5.66857,-3.43444 5.66857,-3.26409 5.66857,-1.77969 5.66857,-2.68044 5.66857,1.4434 5.66857,-1.54524 5.66858,1.08692 5.66857,-4.04822 5.66857,-0.61393 5.66857,4.93288 5.66857,-3.34962 5.66857,-3.22091 5.66857,3.11145 5.66858,-1.49342 5.66857,-2.99062 5.66857,3.01525 5.66857,-5.76769 5.66857,0.95992 5.66857,0.41903 5.66857,1.57219 5.66858,-3.18954 5.66857,0.17199 5.66857,-0.0911 5.66857,-0.69226 5.66857,-0.60055 5.66857,-1.34086 5.66857,4.46134 5.66858,-3.39149 5.66857,-2.73833 5.66857,-4.49864 5.66857,-29.156731"
         style="fill:none;stroke:#1f77b4;stroke-width:1.5;stroke-linecap:square;stroke-linejoin:round;stroke-miterlimit:10;stroke-dasharray:none;stroke-opacity:1"
         id="path284" /></g><g
       id="g288"
       clip-path="url(#clipPath292)"
       transform="matrix(0.57535538,0,0,0.57535538,8.9251674,141.99003)"><path
         d="m 57.6,266.01441 5.668571,3.27805 5.668572,-9.07623 5.668571,-9.87327 5.668572,-6.96079 5.668571,-5.87782 5.668572,-3.81723 5.668571,-5.60533 5.66857,-5.36948 5.66857,0.79464 5.66857,-2.5566 5.66858,-5.2886 5.66857,-1.80125 5.66857,-4.16055 5.66857,-5.58311 5.66857,-5.77261 5.66857,-1.92298 5.66857,-2.83766 5.66858,0.49912 5.66857,-1.74682 5.66857,-2.40728 5.66857,-3.11103 5.66857,-3.15861 5.66857,-1.00193 5.66857,-2.17869 5.66858,-1.77741 5.66857,-6.21355 5.66857,1.82066 5.66857,-4.82703 5.66857,0.51558 5.66857,-3.07082 5.66857,-0.99603 5.66858,-1.71731 5.66857,-2.41792 5.66857,-2.69108 5.66857,-2.98764 5.66857,-1.34341 5.66857,1.32504 5.66857,-1.44318 5.66858,0.61936 5.66857,-4.29826 5.66857,-0.23924 5.66857,4.55362 5.66857,-4.24673 5.66857,-2.86704 5.66857,3.4135 5.66858,-1.28774 5.66857,-3.78805 5.66857,2.65148 5.66857,-4.74521 5.66857,-0.76721 5.66857,1.94559 5.66857,1.29513 5.66858,-3.22715 5.66857,0.66166 5.66857,1.3132 5.66857,-1.01926 5.66857,-1.41939 5.66857,-1.31728 5.66857,6.36889 5.66858,-4.28838 5.66857,2.32389 5.66857,-6.19724 5.66857,-24.03354"
         style="fill:none;stroke:#ff7f0e;stroke-width:1.5;stroke-linecap:square;stroke-linejoin:round;stroke-miterlimit:10;stroke-dasharray:none;stroke-opacity:1"
         id="path294" /></g><g
       id="g298"
       clip-path="url(#clipPath302)"
       transform="matrix(0.57535538,0,0,0.57535538,8.9251674,141.99003)"><path
         d="m 57.6,264.62142 5.668571,3.83163 5.668572,-9.15431 5.668571,-9.44003 5.668572,-6.82462 5.668571,-5.80009 5.668572,-4.28786 5.668571,-5.91474 5.66857,-5.73183 5.66857,0.59653 5.66857,-3.01135 5.66858,-5.33104 5.66857,-1.59059 5.66857,-3.85803 5.66857,-5.86798 5.66857,-5.57987 5.66857,-1.92001 5.66857,-3.08701 5.66858,0.29278 5.66857,-1.54037 5.66857,-3.04057 5.66857,-2.98814 5.66857,-3.35345 5.66857,-0.33533 5.66857,-1.48781 5.66858,-1.50436 5.66857,-6.03619 5.66857,1.82276 5.66857,-4.17709 5.66857,0.27513 5.66857,-2.13371 5.66857,0.28513 5.66858,-0.89195 5.66857,-2.58815 5.66857,-2.15312 5.66857,-2.7608 5.66857,-0.44884 5.66857,0.47056 5.66857,-0.98224 5.66858,0.32024 5.66857,-2.99262 5.66857,-0.55931 5.66857,3.84313 5.66857,-4.64726 5.66857,-1.10142 5.66857,2.1963 5.66858,0.65316 5.66857,-3.00416 5.66857,2.8058 5.66857,-3.98967 5.66857,-0.0725 5.66857,1.98795 5.66857,0.77286 5.66858,-4.09057 5.66857,0.23325 5.66857,-2.36334 5.66857,-0.47813 5.66857,-2.07464 5.66857,-4.0055 5.66857,5.34077 5.66858,-8.18547 5.66857,3.91169 5.66857,-4.50574 5.66857,-15.59897"
         style="fill:none;stroke:#2ca02c;stroke-width:1.5;stroke-linecap:square;stroke-linejoin:round;stroke-miterlimit:10;stroke-dasharray:none;stroke-opacity:1"
         id="path304" /></g><g
       id="g308"
       clip-path="url(#clipPath312)"
       transform="matrix(0.57535538,0,0,0.57535538,8.9251674,141.99003)"
       style="stroke:#8c564b;stroke-opacity:1"><path
         d="m 57.6,265.20831 5.668571,4.08683 5.668572,-8.99708 5.668571,-9.38691 5.668572,-7.35101 5.668571,-6.31116 5.668572,-4.20874 5.668571,-5.91667 5.66857,-5.85737 5.66857,0.79661 5.66857,-2.30582 5.66858,-5.28855 5.66857,-1.41738 5.66857,-4.13773 5.66857,-5.90018 5.66857,-5.77416 5.66857,-1.98201 5.66857,-2.85808 5.66858,0.717 5.66857,-1.83867 5.66857,-2.30926 5.66857,-3.30284 5.66857,-3.23856 5.66857,-0.79553 5.66857,-1.28878 5.66858,-2.16303 5.66857,-5.55201 5.66857,1.31992 5.66857,-4.38445 5.66857,-0.11377 5.66857,-1.3438 5.66857,-0.2347 5.66858,-0.93114 5.66857,-1.91157 5.66857,-1.70007 5.66857,-1.9062 5.66857,-0.26804 5.66857,0.60837 5.66857,-0.3074 5.66858,-0.5831 5.66857,-2.00848 5.66857,-0.5008 5.66857,3.85895 5.66857,-4.35748 5.66857,-1.23083 5.66857,2.63609 5.66858,-0.18476 5.66857,-4.21407 5.66857,1.70256 5.66857,-3.58421 5.66857,0.21676 5.66857,1.75986 5.66857,0.82614 5.66858,-5.60369 5.66857,2.01949 5.66857,-2.56356 5.66857,-0.78394 5.66857,-3.37525 5.66857,-5.93722 5.66857,2.67568 5.66858,-6.92533 5.66857,2.10691 5.66857,-6.49282 5.66857,-4.58455"
         style="fill:none;stroke:#8c564b;stroke-width:1.5;stroke-linecap:square;stroke-linejoin:round;stroke-miterlimit:10;stroke-dasharray:none;stroke-opacity:1"
         id="path314" /></g><g
       id="g318"
       clip-path="url(#clipPath322)"
       transform="matrix(0.57535538,0,0,0.57535538,8.9251674,141.99003)"><path
         d="m 57.6,265.28755 5.668571,3.38724 5.668572,-8.56976 5.668571,-9.32681 5.668572,-7.08631 5.668571,-6.12514 5.668572,-4.2746 5.668571,-5.73792 5.66857,-5.62222 5.66857,1.01964 5.66857,-1.80404 5.66858,-5.20012 5.66857,-1.50065 5.66857,-4.24765 5.66857,-5.99389 5.66857,-5.77753 5.66857,-2.10071 5.66857,-2.92626 5.66858,0.34504 5.66857,-1.8666 5.66857,-2.57514 5.66857,-3.42629 5.66857,-2.88421 5.66857,-0.90972 5.66857,-1.69529 5.66858,-2.12584 5.66857,-5.62315 5.66857,1.05854 5.66857,-3.45937 5.66857,0.13573 5.66857,-0.97817 5.66857,-0.21814 5.66858,-0.47741 5.66857,-2.46946 5.66857,-0.85069 5.66857,-1.84438 5.66857,-0.55452 5.66857,0.40415 5.66857,-0.3581 5.66858,-0.8055 5.66857,-2.01784 5.66857,-0.19714 5.66857,3.9448 5.66857,-4.40603 5.66857,-0.0863 5.66857,1.89088 5.66858,0.79 5.66857,-3.20418 5.66857,1.45692 5.66857,-3.03834 5.66857,1.9108 5.66857,2.66899 5.66857,0.25076 5.66858,-5.23774 5.66857,3.46622 5.66857,-4.51565 5.66857,0.51618 5.66857,-4.74823 5.66857,-5.5937 5.66857,-0.36681 5.66858,-7.60668 5.66857,-2.10139 5.66857,-3.52926 5.66857,-4.22906"
         style="fill:none;stroke:#9467bd;stroke-width:1.5;stroke-linecap:square;stroke-linejoin:round;stroke-miterlimit:10;stroke-dasharray:none;stroke-opacity:1"
         id="path324" /></g><path
       d="M 42.065638,163.86273 V 316.9717"
       style="fill:none;stroke:#000000;stroke-width:0.460284;stroke-linecap:square;stroke-linejoin:miter;stroke-miterlimit:10;stroke-dasharray:none;stroke-opacity:1"
       id="path338" /><path
       d="M 247.53655,163.86273 V 316.9717"
       style="fill:none;stroke:#000000;stroke-width:0.460284;stroke-linecap:square;stroke-linejoin:miter;stroke-miterlimit:10;stroke-dasharray:none;stroke-opacity:1"
       id="path340" /><path
       d="M 42.065638,163.86273 H 247.53655"
       style="fill:none;stroke:#000000;stroke-width:0.460284;stroke-linecap:square;stroke-linejoin:miter;stroke-miterlimit:10;stroke-dasharray:none;stroke-opacity:1"
       id="path342" /><path
       d="M 42.065638,316.9717 H 247.53655"
       style="fill:none;stroke:#000000;stroke-width:0.460284;stroke-linecap:square;stroke-linejoin:miter;stroke-miterlimit:10;stroke-dasharray:none;stroke-opacity:1"
       id="path344" /><path
       d="m 52.775806,215.0583 h 11.50711"
       style="fill:none;stroke:#1f77b4;stroke-width:0.863033;stroke-linecap:square;stroke-linejoin:round;stroke-miterlimit:10;stroke-dasharray:none;stroke-opacity:1"
       id="path354" /><path
       d="m 52.775806,206.61675 h 11.50711"
       style="fill:none;stroke:#ff7f0e;stroke-width:0.863033;stroke-linecap:square;stroke-linejoin:round;stroke-miterlimit:10;stroke-dasharray:none;stroke-opacity:1"
       id="path360" /><path
       d="m 52.775806,198.17521 h 11.50711"
       style="fill:none;stroke:#2ca02c;stroke-width:0.863033;stroke-linecap:square;stroke-linejoin:round;stroke-miterlimit:10;stroke-dasharray:none;stroke-opacity:1"
       id="path366" /><path
       d="m 52.775806,189.73366 h 11.50711"
       style="fill:none;stroke:#8c564b;stroke-width:0.863033;stroke-linecap:square;stroke-linejoin:round;stroke-miterlimit:10;stroke-dasharray:none;stroke-opacity:1"
       id="path372" /><path
       d="m 52.775806,181.29213 h 11.50711"
       style="fill:none;stroke:#9467bd;stroke-width:0.863033;stroke-linecap:square;stroke-linejoin:round;stroke-miterlimit:10;stroke-dasharray:none;stroke-opacity:1"
       id="path378" /><path
       d="m 52.775806,172.85058 h 11.50711"
       style="fill:none;stroke:#d62728;stroke-width:0.863033;stroke-linecap:square;stroke-linejoin:round;stroke-miterlimit:10;stroke-dasharray:none;stroke-opacity:1"
       id="path384" /></g><g
     inkscape:groupmode="layer"
     id="layer1"
     inkscape:label="text"
     transform="translate(-28.023958,-17.206424)"><text
       style="font-variant:normal;font-weight:normal;font-size:7.6714px;font-family:'DejaVu Sans';-inkscape-font-specification:DejaVuSans;writing-mode:lr-tb;fill:#000000;fill-opacity:1;fill-rule:nonzero;stroke:none;stroke-width:0.767141"
       id="text32"
       x="53.986347"
       y="253.51184"><tspan
         x="53.986347 58.865364 61.304874"
         y="253.51184"
         sodipodi:role="line"
         id="tspan30"
         style="stroke-width:0.767141">0.0</tspan></text><text
       style="font-variant:normal;font-weight:normal;font-size:7.6714px;font-family:'DejaVu Sans';-inkscape-font-specification:DejaVuSans;writing-mode:lr-tb;fill:#000000;fill-opacity:1;fill-rule:nonzero;stroke:none;stroke-width:0.767141"
       id="text50"
       x="84.775078"
       y="253.51184"><tspan
         x="84.775078 89.654091 92.093597"
         y="253.51184"
         sodipodi:role="line"
         id="tspan48"
         style="stroke-width:0.767141">0.2</tspan></text><text
       style="font-variant:normal;font-weight:normal;font-size:7.6714px;font-family:'DejaVu Sans';-inkscape-font-specification:DejaVuSans;writing-mode:lr-tb;fill:#000000;fill-opacity:1;fill-rule:nonzero;stroke:none;stroke-width:0.767141"
       id="text68"
       x="119.5638"
       y="253.51184"><tspan
         x="119.5638 124.44282 126.88232"
         y="253.51184"
         sodipodi:role="line"
         id="tspan66"
         style="stroke-width:0.767141">0.4</tspan></text><text
       style="font-variant:normal;font-weight:normal;font-size:7.6714px;font-family:'DejaVu Sans';-inkscape-font-specification:DejaVuSans;writing-mode:lr-tb;fill:#000000;fill-opacity:1;fill-rule:nonzero;stroke:none;stroke-width:0.767141"
       id="text86"
       x="154.35254"
       y="253.51184"><tspan
         x="154.35254 159.23155 161.67105"
         y="253.51184"
         sodipodi:role="line"
         id="tspan84"
         style="stroke-width:0.767141">0.6</tspan></text><text
       style="font-variant:normal;font-weight:normal;font-size:7.6714px;font-family:'DejaVu Sans';-inkscape-font-specification:DejaVuSans;writing-mode:lr-tb;fill:#000000;fill-opacity:1;fill-rule:nonzero;stroke:none;stroke-width:0.767141"
       id="text104"
       x="189.14125"
       y="253.51184"><tspan
         x="189.14125 194.02026 196.45978"
         y="253.51184"
         sodipodi:role="line"
         id="tspan102"
         style="stroke-width:0.767141">0.8</tspan></text><text
       style="font-variant:normal;font-weight:normal;font-size:7.6714px;font-family:'DejaVu Sans';-inkscape-font-specification:DejaVuSans;writing-mode:lr-tb;fill:#000000;fill-opacity:1;fill-rule:nonzero;stroke:none;stroke-width:0.767141"
       id="text122"
       x="223.92999"
       y="253.51184"><tspan
         x="223.92999 228.80899 231.24849"
         y="253.51184"
         sodipodi:role="line"
         id="tspan120"
         style="stroke-width:0.767141">1.0</tspan></text><text
       style="font-variant:normal;font-weight:normal;font-size:7.6714px;font-family:'DejaVu Sans';-inkscape-font-specification:DejaVuSans;writing-mode:lr-tb;fill:#000000;fill-opacity:1;fill-rule:nonzero;stroke:none;stroke-width:0.767141"
       id="text140"
       x="258.71872"
       y="253.51184"><tspan
         x="258.71872 263.59772 266.03723"
         y="253.51184"
         sodipodi:role="line"
         id="tspan138"
         style="stroke-width:0.767141">1.2</tspan></text><text
       style="font-variant:normal;font-weight:normal;font-size:7.6714px;font-family:'DejaVu Sans';-inkscape-font-specification:DejaVuSans;writing-mode:lr-tb;fill:#000000;fill-opacity:1;fill-rule:nonzero;stroke:none;stroke-width:0.767141"
       id="text158"
       x="293.50745"
       y="253.51184"><tspan
         x="293.50745 298.38644 300.82593"
         y="253.51184"
         sodipodi:role="line"
         id="tspan156"
         style="stroke-width:0.767141">1.4</tspan></text><text
       style="font-variant:normal;font-weight:normal;font-size:7.6714px;font-family:'DejaVu Sans';-inkscape-font-specification:DejaVuSans;writing-mode:lr-tb;fill:#000000;fill-opacity:1;fill-rule:nonzero;stroke:none;stroke-width:0.767141"
       id="text162"
       x="146.63814"
       y="263.99966"><tspan
         x="146.63814 152.58348 157.30139 162.16507 166.85997 174.33191 176.46455 180.68384 183.12334 187.99467 190.12732 194.12415 197.13132 201.83391 206.69757 210.91685 215.63475 218.07426 220.65953 223.09903 229.71945 234.59081"
         y="263.99966"
         sodipodi:role="line"
         id="tspan160"
         style="stroke-width:0.767141">Genomic distance / Mbp</tspan></text><text
       style="font-variant:normal;font-weight:normal;font-size:7.6714px;font-family:'DejaVu Sans';-inkscape-font-specification:DejaVuSans;writing-mode:lr-tb;fill:#000000;fill-opacity:1;fill-rule:nonzero;stroke:none;stroke-width:0.767141"
       id="text180"
       x="38.515202"
       y="245.22913"><tspan
         x="38.515202 43.394218 45.833721"
         y="245.22913"
         sodipodi:role="line"
         id="tspan178"
         style="stroke-width:0.767141">0.0</tspan></text><text
       style="font-variant:normal;font-weight:normal;font-size:7.6714px;font-family:'DejaVu Sans';-inkscape-font-specification:DejaVuSans;writing-mode:lr-tb;fill:#000000;fill-opacity:1;fill-rule:nonzero;stroke:none;stroke-width:0.767141"
       id="text198"
       x="38.515202"
       y="204.40007"><tspan
         x="38.515202 43.394218 45.833721"
         y="204.40007"
         sodipodi:role="line"
         id="tspan196"
         style="stroke-width:0.767141">0.2</tspan></text><text
       style="font-variant:normal;font-weight:normal;font-size:7.6714px;font-family:'DejaVu Sans';-inkscape-font-specification:DejaVuSans;writing-mode:lr-tb;fill:#000000;fill-opacity:1;fill-rule:nonzero;stroke:none;stroke-width:0.767141"
       id="text216"
       x="38.515202"
       y="163.571"><tspan
         x="38.515202 43.394218 45.833721"
         y="163.571"
         sodipodi:role="line"
         id="tspan214"
         style="stroke-width:0.767141">0.4</tspan></text><text
       style="font-variant:normal;font-weight:normal;font-size:7.6714px;font-family:'DejaVu Sans';-inkscape-font-specification:DejaVuSans;writing-mode:lr-tb;fill:#000000;fill-opacity:1;fill-rule:nonzero;stroke:none;stroke-width:0.767141"
       id="text234"
       x="38.515202"
       y="122.74175"><tspan
         x="38.515202 43.394218 45.833721"
         y="122.74175"
         sodipodi:role="line"
         id="tspan232"
         style="stroke-width:0.767141">0.6</tspan></text><text
       style="font-variant:normal;font-weight:normal;font-size:7.6714px;font-family:'DejaVu Sans';-inkscape-font-specification:DejaVuSans;writing-mode:lr-tb;fill:#000000;fill-opacity:1;fill-rule:nonzero;stroke:none;stroke-width:0.767141"
       id="text252"
       x="38.515202"
       y="81.912682"><tspan
         x="38.515202 43.394218 45.833721"
         y="81.912682"
         sodipodi:role="line"
         id="tspan250"
         style="stroke-width:0.767141">0.8</tspan></text><text
       style="font-variant:normal;font-weight:normal;font-size:7.6714px;font-family:'DejaVu Sans';-inkscape-font-specification:DejaVuSans;writing-mode:lr-tb;fill:#000000;fill-opacity:1;fill-rule:nonzero;stroke:none;stroke-width:0.767141"
       id="text270"
       x="38.515202"
       y="41.083729"><tspan
         x="38.515202 43.394218 45.833721"
         y="41.083729"
         sodipodi:role="line"
         id="tspan268"
         style="stroke-width:0.767141">1.0</tspan></text><text
       transform="rotate(-90)"
       style="font-variant:normal;font-weight:normal;font-size:7.6714px;font-family:'DejaVu Sans';-inkscape-font-specification:DejaVuSans;writing-mode:lr-tb;fill:#000000;fill-opacity:1;fill-rule:nonzero;stroke:none;stroke-width:0.767141"
       id="text274"
       x="-177.30621"
       y="33.852428"><tspan
         x="-177.30621 -172.68036 -167.96245 -163.25987 -160.10692 -156.11012 -151.41521 -146.55154 -144.11206 -139.89278 -135.19786 -132.04492 -128.89197 -124.17389 -122.04124 -117.33867 -114.33147 -112.19882 -107.50393"
         y="33.852428"
         sodipodi:role="line"
         id="tspan272"
         style="stroke-width:0.767141">Pearson correlation</tspan></text><text
       style="font-variant:normal;font-weight:normal;font-size:9.20569px;font-family:'DejaVu Sans';-inkscape-font-specification:DejaVuSans;writing-mode:lr-tb;fill:#000000;fill-opacity:1;fill-rule:nonzero;stroke:none;stroke-width:0.767141"
       id="text348"
       x="98.33226"
       y="23.25005"><tspan
         x="98.33226 103.88329 109.54478 115.18788 118.97141 123.76756 129.40146 135.23787 138.16525 143.22839 148.86227 152.64581 156.42935 162.09085 164.65002 170.29312 173.90173 176.46091 182.09482 187.93121 190.85861 196.3084 201.10455 204.03194 206.95937 212.80498 218.46646 224.30286 229.93677 238.90309 241.46227 246.52541 249.4528 255.29842 257.8576 262.65375 266.26236 271.90546 277.74185 282.80499"
         y="23.25005"
         sodipodi:role="line"
         id="tspan346"
         style="stroke-width:0.767141">Pearson correlation vs. genomic distance</tspan></text><text
       style="font-variant:normal;font-weight:normal;font-size:9.20569px;font-family:'DejaVu Sans';-inkscape-font-specification:DejaVuSans;writing-mode:lr-tb;fill:#000000;fill-opacity:1;fill-rule:nonzero;stroke:none;stroke-width:0.767141"
       id="text352"
       x="63.993423"
       y="33.568153"><tspan
         x="63.993423 71.127838 79.072334 84.927155 90.781967 96.636787 102.49159 108.34641 111.27383 114.20123 120.05605 122.98347 128.83827 131.76569 137.6205 140.54791 146.40274 149.33014 155.18495 158.11237 163.96718 169.82199 172.74939 178.60422 184.45903 187.38644 193.24124 199.09607 202.02348 207.8783 213.73311 216.66052 222.51534 228.37018 231.29756 237.15239 243.00719 245.93462 251.78941 257.64423 260.57166 266.42645 272.28128 275.20868 280.84259 286.67899 289.60638 295.64532 301.50012 307.35495 313.20978 316.13718 319.06458"
         y="33.568153"
         sodipodi:role="line"
         id="tspan350"
         style="stroke-width:0.767141">GM12878, 1,2,4,7,9,11,13,14,16,17,18,20,22 on K562, 5</tspan></text><text
       style="font-variant:normal;font-weight:normal;font-size:7.6714px;font-family:'DejaVu Sans';-inkscape-font-specification:DejaVuSans;writing-mode:lr-tb;fill:#000000;fill-opacity:1;fill-rule:nonzero;stroke:none;stroke-width:0.767141"
       id="text358"
       x="91.847687"
       y="176.74054"><tspan
         x="91.847687 96.7267 101.60572 104.0452 108.76313 113.63448 116.07399 118.65923 121.09877 126.34602 131.96147 137.3161 139.90137 142.34088 147.21989 149.65938 154.53841 159.41743"
         y="176.74054"
         sodipodi:role="line"
         id="tspan356"
         style="stroke-width:0.767141">20 ep / AUC: 0.503</tspan></text><text
       style="font-variant:normal;font-weight:normal;font-size:7.6714px;font-family:'DejaVu Sans';-inkscape-font-specification:DejaVuSans;writing-mode:lr-tb;fill:#000000;fill-opacity:1;fill-rule:nonzero;stroke:none;stroke-width:0.767141"
       id="text364"
       x="91.847687"
       y="187.99593"><tspan
         x="91.847687 96.7267 101.60572 104.0452 108.76313 113.63448 116.07399 118.65923 121.09877 126.34602 131.96147 137.3161 139.90137 142.34088 147.21989 149.65938 154.53841 159.41743"
         y="187.99593"
         sodipodi:role="line"
         id="tspan362"
         style="stroke-width:0.767141">40 ep / AUC: 0.523</tspan></text><text
       style="font-variant:normal;font-weight:normal;font-size:7.6714px;font-family:'DejaVu Sans';-inkscape-font-specification:DejaVuSans;writing-mode:lr-tb;fill:#000000;fill-opacity:1;fill-rule:nonzero;stroke:none;stroke-width:0.767141"
       id="text370"
       x="91.847687"
       y="199.25121"><tspan
         x="91.847687 96.7267 101.60572 104.0452 108.76313 113.63448 116.07399 118.65923 121.09877 126.34602 131.96147 137.3161 139.90137 142.34088 147.21989 149.65938 154.53841 159.41743"
         y="199.25121"
         sodipodi:role="line"
         id="tspan368"
         style="stroke-width:0.767141">60 ep / AUC: 0.527</tspan></text><text
       style="font-variant:normal;font-weight:normal;font-size:7.6714px;font-family:'DejaVu Sans';-inkscape-font-specification:DejaVuSans;writing-mode:lr-tb;fill:#000000;fill-opacity:1;fill-rule:nonzero;stroke:none;stroke-width:0.767141"
       id="text376"
       x="91.847687"
       y="210.50661"><tspan
         x="91.847687 96.7267 101.60572 104.0452 108.76313 113.63448 116.07399 118.65923 121.09877 126.34602 131.96147 137.3161 139.90137 142.34088 147.21989 149.65938 154.53841 159.41743"
         y="210.50661"
         sodipodi:role="line"
         id="tspan374"
         style="stroke-width:0.767141">80 ep / AUC: 0.530</tspan></text><text
       style="font-variant:normal;font-weight:normal;font-size:7.6714px;font-family:'DejaVu Sans';-inkscape-font-specification:DejaVuSans;writing-mode:lr-tb;fill:#000000;fill-opacity:1;fill-rule:nonzero;stroke:none;stroke-width:0.767141"
       id="text382"
       x="91.847687"
       y="221.76198"><tspan
         x="91.847687 96.7267 101.60572 106.48473 108.92424 113.64214 118.51347 120.95301 123.53825 125.97778 131.22499 136.84048 142.19513 144.7804 147.21989 152.09889 154.53841 159.41743 164.29643"
         y="221.76198"
         sodipodi:role="line"
         id="tspan380"
         style="stroke-width:0.767141">100 ep / AUC: 0.538</tspan></text><text
       style="font-variant:normal;font-weight:normal;font-size:7.6714px;font-family:'DejaVu Sans';-inkscape-font-specification:DejaVuSans;writing-mode:lr-tb;fill:#000000;fill-opacity:1;fill-rule:nonzero;stroke:none;stroke-width:0.767141"
       id="text388"
       x="91.847687"
       y="233.01741"><tspan
         x="91.847687 94.854889 98.007812 102.7104 107.57407 111.57085 114.27121 118.98912 122.14207 124.58154 130.52689 137.14732 142.02635 146.90535 151.78438 156.66341 161.5424 163.98192 166.56715 169.00667 174.25392 179.86937 185.22401 187.80928 190.24879 195.12782 197.56731 202.44633 207.32533"
         y="233.01741"
         sodipodi:role="line"
         id="tspan386"
         style="stroke-width:0.767141">transfer GM12878 / AUC: 0.745</tspan></text></g></svg>
