<?xml version="1.0" encoding="UTF-8" standalone="no"?>
<svg
   xmlns:dc="http://purl.org/dc/elements/1.1/"
   xmlns:cc="http://creativecommons.org/ns#"
   xmlns:rdf="http://www.w3.org/1999/02/22-rdf-syntax-ns#"
   xmlns:svg="http://www.w3.org/2000/svg"
   xmlns="http://www.w3.org/2000/svg"
   xmlns:sodipodi="http://sodipodi.sourceforge.net/DTD/sodipodi-0.dtd"
   xmlns:inkscape="http://www.inkscape.org/namespaces/inkscape"
   version="1.1"
   id="svg2"
   xml:space="preserve"
   width="80mm"
   height="65.300003mm"
   viewBox="0 0 302.36219 246.80316"
   sodipodi:docname="pearson_chr19.svg"
   inkscape:version="1.0.2 (1.0.2+r75+1)"><metadata
     id="metadata8"><rdf:RDF><cc:Work
         rdf:about=""><dc:format>image/svg+xml</dc:format><dc:type
           rdf:resource="http://purl.org/dc/dcmitype/StillImage" /><dc:title /></cc:Work></rdf:RDF></metadata><defs
     id="defs6"><clipPath
       clipPathUnits="userSpaceOnUse"
       id="clipPath22"><path
         d="M 57.6,38.016 H 414.72 V 304.128 H 57.6 Z"
         id="path20" /></clipPath><clipPath
       clipPathUnits="userSpaceOnUse"
       id="clipPath40"><path
         d="M 57.6,38.016 H 414.72 V 304.128 H 57.6 Z"
         id="path38" /></clipPath><clipPath
       clipPathUnits="userSpaceOnUse"
       id="clipPath58"><path
         d="M 57.6,38.016 H 414.72 V 304.128 H 57.6 Z"
         id="path56" /></clipPath><clipPath
       clipPathUnits="userSpaceOnUse"
       id="clipPath76"><path
         d="M 57.6,38.016 H 414.72 V 304.128 H 57.6 Z"
         id="path74" /></clipPath><clipPath
       clipPathUnits="userSpaceOnUse"
       id="clipPath94"><path
         d="M 57.6,38.016 H 414.72 V 304.128 H 57.6 Z"
         id="path92" /></clipPath><clipPath
       clipPathUnits="userSpaceOnUse"
       id="clipPath112"><path
         d="M 57.6,38.016 H 414.72 V 304.128 H 57.6 Z"
         id="path110" /></clipPath><clipPath
       clipPathUnits="userSpaceOnUse"
       id="clipPath130"><path
         d="M 57.6,38.016 H 414.72 V 304.128 H 57.6 Z"
         id="path128" /></clipPath><clipPath
       clipPathUnits="userSpaceOnUse"
       id="clipPath148"><path
         d="M 57.6,38.016 H 414.72 V 304.128 H 57.6 Z"
         id="path146" /></clipPath><clipPath
       clipPathUnits="userSpaceOnUse"
       id="clipPath170"><path
         d="M 57.6,38.016 H 414.72 V 304.128 H 57.6 Z"
         id="path168" /></clipPath><clipPath
       clipPathUnits="userSpaceOnUse"
       id="clipPath188"><path
         d="M 57.6,38.016 H 414.72 V 304.128 H 57.6 Z"
         id="path186" /></clipPath><clipPath
       clipPathUnits="userSpaceOnUse"
       id="clipPath206"><path
         d="M 57.6,38.016 H 414.72 V 304.128 H 57.6 Z"
         id="path204" /></clipPath><clipPath
       clipPathUnits="userSpaceOnUse"
       id="clipPath224"><path
         d="M 57.6,38.016 H 414.72 V 304.128 H 57.6 Z"
         id="path222" /></clipPath><clipPath
       clipPathUnits="userSpaceOnUse"
       id="clipPath242"><path
         d="M 57.6,38.016 H 414.72 V 304.128 H 57.6 Z"
         id="path240" /></clipPath><clipPath
       clipPathUnits="userSpaceOnUse"
       id="clipPath260"><path
         d="M 57.6,38.016 H 414.72 V 304.128 H 57.6 Z"
         id="path258" /></clipPath><clipPath
       clipPathUnits="userSpaceOnUse"
       id="clipPath282"><path
         d="M 57.6,38.016 H 414.72 V 304.128 H 57.6 Z"
         id="path280" /></clipPath><clipPath
       clipPathUnits="userSpaceOnUse"
       id="clipPath292"><path
         d="M 57.6,38.016 H 414.72 V 304.128 H 57.6 Z"
         id="path290" /></clipPath><clipPath
       clipPathUnits="userSpaceOnUse"
       id="clipPath302"><path
         d="M 57.6,38.016 H 414.72 V 304.128 H 57.6 Z"
         id="path300" /></clipPath><clipPath
       clipPathUnits="userSpaceOnUse"
       id="clipPath312"><path
         d="M 57.6,38.016 H 414.72 V 304.128 H 57.6 Z"
         id="path310" /></clipPath><clipPath
       clipPathUnits="userSpaceOnUse"
       id="clipPath322"><path
         d="M 57.6,38.016 H 414.72 V 304.128 H 57.6 Z"
         id="path320" /></clipPath><clipPath
       clipPathUnits="userSpaceOnUse"
       id="clipPath332"><path
         d="M 57.6,38.016 H 414.72 V 304.128 H 57.6 Z"
         id="path330" /></clipPath></defs><sodipodi:namedview
     pagecolor="#ffffff"
     bordercolor="#666666"
     borderopacity="1"
     objecttolerance="10"
     gridtolerance="10"
     guidetolerance="10"
     inkscape:pageopacity="0"
     inkscape:pageshadow="2"
     inkscape:window-width="1920"
     inkscape:window-height="1020"
     id="namedview4"
     showgrid="false"
     units="mm"
     fit-margin-top="0"
     fit-margin-left="0"
     fit-margin-right="0"
     fit-margin-bottom="0"
     inkscape:zoom="1.8598091"
     inkscape:cx="129.10794"
     inkscape:cy="172.67396"
     inkscape:window-x="0"
     inkscape:window-y="0"
     inkscape:window-maximized="1"
     inkscape:current-layer="g10"
     inkscape:document-rotation="0" /><g
     id="g10"
     inkscape:groupmode="layer"
     inkscape:label="pearson_chr19"
     transform="matrix(1.3333333,0,0,-1.3333333,-28.023958,443.59358)"><path
       d="M 57.6,38.016 V 304.128"
       style="fill:none;stroke:#b0b0b0;stroke-width:0.8;stroke-linecap:square;stroke-linejoin:round;stroke-miterlimit:10;stroke-dasharray:none;stroke-opacity:1"
       id="path24"
       transform="matrix(0.57525494,0,0,0.57525494,8.9272787,142.02354)" /><path
       d="M 102.94857,38.016 V 304.128"
       style="fill:none;stroke:#b0b0b0;stroke-width:0.8;stroke-linecap:square;stroke-linejoin:round;stroke-miterlimit:10;stroke-dasharray:none;stroke-opacity:1"
       id="path42"
       transform="matrix(0.57525494,0,0,0.57525494,8.9272787,142.02354)" /><path
       d="M 148.29714,38.016 V 304.128"
       style="fill:none;stroke:#b0b0b0;stroke-width:0.8;stroke-linecap:square;stroke-linejoin:round;stroke-miterlimit:10;stroke-dasharray:none;stroke-opacity:1"
       id="path60"
       transform="matrix(0.57525494,0,0,0.57525494,8.9272787,142.02354)" /><path
       d="M 193.64571,38.016 V 304.128"
       style="fill:none;stroke:#b0b0b0;stroke-width:0.8;stroke-linecap:square;stroke-linejoin:round;stroke-miterlimit:10;stroke-dasharray:none;stroke-opacity:1"
       id="path78"
       transform="matrix(0.57525494,0,0,0.57525494,8.9272787,142.02354)" /><path
       d="M 146.40992,163.89243 V 316.97467"
       style="fill:none;stroke:#b0b0b0;stroke-width:0.460204;stroke-linecap:square;stroke-linejoin:round;stroke-miterlimit:10;stroke-dasharray:none;stroke-opacity:1"
       id="path96" /><path
       d="M 284.34286,38.016 V 304.128"
       style="fill:none;stroke:#b0b0b0;stroke-width:0.8;stroke-linecap:square;stroke-linejoin:round;stroke-miterlimit:10;stroke-dasharray:none;stroke-opacity:1"
       id="path114"
       transform="matrix(0.57525494,0,0,0.57525494,8.9272787,142.02354)" /><path
       d="M 329.69143,38.016 V 304.128"
       style="fill:none;stroke:#b0b0b0;stroke-width:0.8;stroke-linecap:square;stroke-linejoin:round;stroke-miterlimit:10;stroke-dasharray:none;stroke-opacity:1"
       id="path132"
       transform="matrix(0.57525494,0,0,0.57525494,8.9272787,142.02354)" /><path
       d="M 375.04,38.016 V 304.128"
       style="fill:none;stroke:#b0b0b0;stroke-width:0.8;stroke-linecap:square;stroke-linejoin:round;stroke-miterlimit:10;stroke-dasharray:none;stroke-opacity:1"
       id="path150"
       transform="matrix(0.57525494,0,0,0.57525494,8.9272787,142.02354)" /><path
       d="M 57.6,38.016 H 414.72"
       style="fill:none;stroke:#b0b0b0;stroke-width:0.8;stroke-linecap:square;stroke-linejoin:round;stroke-miterlimit:10;stroke-dasharray:none;stroke-opacity:1"
       id="path172"
       transform="matrix(0.57525494,0,0,0.57525494,8.9272787,142.02354)" /><path
       d="M 57.6,91.2384 H 414.72"
       style="fill:none;stroke:#b0b0b0;stroke-width:0.8;stroke-linecap:square;stroke-linejoin:round;stroke-miterlimit:10;stroke-dasharray:none;stroke-opacity:1"
       id="path190"
       transform="matrix(0.57525494,0,0,0.57525494,8.9272787,142.02354)" /><path
       d="M 57.6,144.4608 H 414.72"
       style="fill:none;stroke:#b0b0b0;stroke-width:0.8;stroke-linecap:square;stroke-linejoin:round;stroke-miterlimit:10;stroke-dasharray:none;stroke-opacity:1"
       id="path208"
       transform="matrix(0.57525494,0,0,0.57525494,8.9272787,142.02354)" /><path
       d="M 57.6,197.6832 H 414.72"
       style="fill:none;stroke:#b0b0b0;stroke-width:0.8;stroke-linecap:square;stroke-linejoin:round;stroke-miterlimit:10;stroke-dasharray:none;stroke-opacity:1"
       id="path226"
       transform="matrix(0.57525494,0,0,0.57525494,8.9272787,142.02354)" /><path
       d="M 57.6,250.9056 H 414.72"
       style="fill:none;stroke:#b0b0b0;stroke-width:0.8;stroke-linecap:square;stroke-linejoin:round;stroke-miterlimit:10;stroke-dasharray:none;stroke-opacity:1"
       id="path244"
       transform="matrix(0.57525494,0,0,0.57525494,8.9272787,142.02354)" /><path
       d="M 57.6,304.128 H 414.72"
       style="fill:none;stroke:#b0b0b0;stroke-width:0.8;stroke-linecap:square;stroke-linejoin:round;stroke-miterlimit:10;stroke-dasharray:none;stroke-opacity:1"
       id="path262"
       transform="matrix(0.57525494,0,0,0.57525494,8.9272787,142.02354)" /><g
       id="g328"
       clip-path="url(#clipPath332)"
       style="stroke:#d62728;stroke-opacity:1"
       transform="matrix(0.57525494,0,0,0.57525494,8.9272787,142.02354)"><path
         d="m 57.6,291.21219 5.668571,-7.83046 5.668572,-4.86458 5.668571,-2.46954 5.668572,-1.96157 5.668571,-0.70339 5.668572,-0.77901 5.668571,0.56941 5.66857,1.44261 5.66857,-4.23176 5.66857,1.35083 5.66858,-2.28237 5.66857,-2.93286 5.66857,-3.08073 5.66857,-2.14705 5.66857,-0.83498 5.66857,-1.68169 5.66857,-3.59095 5.66858,-1.50789 5.66857,-0.86811 5.66857,1.0161 5.66857,-3.60562 5.66857,0.81065 5.66857,-1.96396 5.66857,-1.65329 5.66858,-1.46005 5.66857,-2.29329 5.66857,-0.0795 5.66857,2.51759 5.66857,-2.46762 5.66857,2.05221 5.66857,-3.78015 5.66858,-1.24809 5.66857,0.76119 5.66857,-0.93235 5.66857,1.35451 5.66857,-1.54374 5.66857,-3.18044 5.66857,-0.20368 5.66858,-0.82129 5.66857,-4.32261 5.66857,3.89268 5.66857,-4.43393 5.66857,1.02919 5.66857,-1.49329 5.66857,1.7614 5.66858,-8.713 5.66857,6.54481 5.66857,-2.93798 5.66857,2.2996 5.66857,-0.0617 5.66857,0.9859 5.66857,1.41998 5.66858,-2.47145 5.66857,-3.724 5.66857,1.31946 5.66857,2.11197 5.66857,1.16673 5.66857,-0.26716 5.66857,5.12537 5.66858,3.04913 5.66857,2.81569 5.66857,4.55411 5.66857,0.40623"
         style="fill:none;stroke:#d62728;stroke-width:1.5;stroke-linecap:square;stroke-linejoin:round;stroke-miterlimit:10;stroke-dasharray:none;stroke-opacity:1"
         id="path334" /></g><g
       id="g16"
       transform="matrix(0.57525494,0,0,0.57525494,8.9272787,142.02354)"><g
         id="g18"
         clip-path="url(#clipPath22)" /></g><path
       d="m 42.061963,163.89243 v -2.01339"
       style="fill:#000000;fill-opacity:1;fill-rule:nonzero;stroke:#000000;stroke-width:0.460204;stroke-linecap:butt;stroke-linejoin:round;stroke-miterlimit:10;stroke-dasharray:none;stroke-opacity:1"
       id="path28" /><g
       id="g34"
       transform="matrix(0.57525494,0,0,0.57525494,8.9272787,142.02354)"><g
         id="g36"
         clip-path="url(#clipPath40)" /></g><path
       d="m 68.148952,163.89243 v -2.01339"
       style="fill:#000000;fill-opacity:1;fill-rule:nonzero;stroke:#000000;stroke-width:0.460204;stroke-linecap:butt;stroke-linejoin:round;stroke-miterlimit:10;stroke-dasharray:none;stroke-opacity:1"
       id="path46" /><g
       id="g52"
       transform="matrix(0.57525494,0,0,0.57525494,8.9272787,142.02354)"><g
         id="g54"
         clip-path="url(#clipPath58)" /></g><path
       d="m 94.235941,163.89243 v -2.01339"
       style="fill:#000000;fill-opacity:1;fill-rule:nonzero;stroke:#000000;stroke-width:0.460204;stroke-linecap:butt;stroke-linejoin:round;stroke-miterlimit:10;stroke-dasharray:none;stroke-opacity:1"
       id="path64" /><g
       id="g70"
       transform="matrix(0.57525494,0,0,0.57525494,8.9272787,142.02354)"><g
         id="g72"
         clip-path="url(#clipPath76)" /></g><path
       d="m 120.32293,163.89243 v -2.01339"
       style="fill:#000000;fill-opacity:1;fill-rule:nonzero;stroke:#000000;stroke-width:0.460204;stroke-linecap:butt;stroke-linejoin:round;stroke-miterlimit:10;stroke-dasharray:none;stroke-opacity:1"
       id="path82" /><path
       d="m 146.40993,163.89243 v -2.01339"
       style="fill:#000000;fill-opacity:1;fill-rule:nonzero;stroke:#000000;stroke-width:0.460204;stroke-linecap:butt;stroke-linejoin:round;stroke-miterlimit:10;stroke-dasharray:none;stroke-opacity:1"
       id="path100" /><g
       id="g106"
       transform="matrix(0.57525494,0,0,0.57525494,8.9272787,142.02354)"><g
         id="g108"
         clip-path="url(#clipPath112)" /></g><path
       d="m 172.49692,163.89243 v -2.01339"
       style="fill:#000000;fill-opacity:1;fill-rule:nonzero;stroke:#000000;stroke-width:0.460204;stroke-linecap:butt;stroke-linejoin:round;stroke-miterlimit:10;stroke-dasharray:none;stroke-opacity:1"
       id="path118" /><g
       id="g124"
       transform="matrix(0.57525494,0,0,0.57525494,8.9272787,142.02354)"><g
         id="g126"
         clip-path="url(#clipPath130)" /></g><path
       d="m 198.5839,163.89243 v -2.01339"
       style="fill:#000000;fill-opacity:1;fill-rule:nonzero;stroke:#000000;stroke-width:0.460204;stroke-linecap:butt;stroke-linejoin:round;stroke-miterlimit:10;stroke-dasharray:none;stroke-opacity:1"
       id="path136" /><g
       id="g142"
       transform="matrix(0.57525494,0,0,0.57525494,8.9272787,142.02354)"><g
         id="g144"
         clip-path="url(#clipPath148)" /></g><path
       d="m 224.67088,163.89243 v -2.01339"
       style="fill:#000000;fill-opacity:1;fill-rule:nonzero;stroke:#000000;stroke-width:0.460204;stroke-linecap:butt;stroke-linejoin:round;stroke-miterlimit:10;stroke-dasharray:none;stroke-opacity:1"
       id="path154" /><g
       id="g164"
       transform="matrix(0.57525494,0,0,0.57525494,8.9272787,142.02354)"><g
         id="g166"
         clip-path="url(#clipPath170)" /></g><path
       d="M 42.061963,163.89243 H 40.048571"
       style="fill:#000000;fill-opacity:1;fill-rule:nonzero;stroke:#000000;stroke-width:0.460204;stroke-linecap:butt;stroke-linejoin:round;stroke-miterlimit:10;stroke-dasharray:none;stroke-opacity:1"
       id="path176" /><g
       id="g182"
       transform="matrix(0.57525494,0,0,0.57525494,8.9272787,142.02354)"><g
         id="g184"
         clip-path="url(#clipPath188)" /></g><path
       d="M 42.061963,194.50888 H 40.048571"
       style="fill:#000000;fill-opacity:1;fill-rule:nonzero;stroke:#000000;stroke-width:0.460204;stroke-linecap:butt;stroke-linejoin:round;stroke-miterlimit:10;stroke-dasharray:none;stroke-opacity:1"
       id="path194" /><g
       id="g200"
       transform="matrix(0.57525494,0,0,0.57525494,8.9272787,142.02354)"><g
         id="g202"
         clip-path="url(#clipPath206)" /></g><path
       d="M 42.061963,225.12533 H 40.048571"
       style="fill:#000000;fill-opacity:1;fill-rule:nonzero;stroke:#000000;stroke-width:0.460204;stroke-linecap:butt;stroke-linejoin:round;stroke-miterlimit:10;stroke-dasharray:none;stroke-opacity:1"
       id="path212" /><g
       id="g218"
       transform="matrix(0.57525494,0,0,0.57525494,8.9272787,142.02354)"><g
         id="g220"
         clip-path="url(#clipPath224)" /></g><path
       d="M 42.061963,255.74178 H 40.048571"
       style="fill:#000000;fill-opacity:1;fill-rule:nonzero;stroke:#000000;stroke-width:0.460204;stroke-linecap:butt;stroke-linejoin:round;stroke-miterlimit:10;stroke-dasharray:none;stroke-opacity:1"
       id="path230" /><g
       id="g236"
       transform="matrix(0.57525494,0,0,0.57525494,8.9272787,142.02354)"><g
         id="g238"
         clip-path="url(#clipPath242)" /></g><path
       d="M 42.061963,286.35823 H 40.048571"
       style="fill:#000000;fill-opacity:1;fill-rule:nonzero;stroke:#000000;stroke-width:0.460204;stroke-linecap:butt;stroke-linejoin:round;stroke-miterlimit:10;stroke-dasharray:none;stroke-opacity:1"
       id="path248" /><g
       id="g254"
       transform="matrix(0.57525494,0,0,0.57525494,8.9272787,142.02354)"><g
         id="g256"
         clip-path="url(#clipPath260)" /></g><path
       d="M 42.061963,316.97467 H 40.048571"
       style="fill:#000000;fill-opacity:1;fill-rule:nonzero;stroke:#000000;stroke-width:0.460204;stroke-linecap:butt;stroke-linejoin:round;stroke-miterlimit:10;stroke-dasharray:none;stroke-opacity:1"
       id="path266" /><g
       id="g278"
       clip-path="url(#clipPath282)"
       transform="matrix(0.57525494,0,0,0.57525494,8.9272787,142.02354)"><path
         d="m 57.6,262.6462 5.668571,-3.66628 5.668572,-24.15093 5.668571,-13.37733 5.668572,-12.00681 5.668571,-4.79287 5.668572,-6.02992 5.668571,-9.54304 5.66857,-7.00356 5.66857,-3.51608 5.66857,-9.59258 5.66858,-4.45886 5.66857,0.0346 5.66857,-0.21103 5.66857,-1.23695 5.66857,1.67796 5.66857,-2.86479 5.66857,-0.21255 5.66858,-6.75803 5.66857,1.36704 5.66857,-0.33543 5.66857,-2.71871 5.66857,0.0869 5.66857,0.80104 5.66857,-6.31411 5.66858,1.36618 5.66857,-2.96729 5.66857,3.16039 5.66857,-5.89707 5.66857,-0.26596 5.66857,-5.70016 5.66857,3.03411 5.66858,-1.33744 5.66857,1.69601 5.66857,-0.73029 5.66857,-0.10553 5.66857,-2.00771 5.66857,2.20245 5.66857,4.98011 5.66858,-0.57374 5.66857,5.92506 5.66857,3.4679 5.66857,1.88589 5.66857,6.09862 5.66857,-1.25469 5.66857,-3.03599 5.66858,3.1167 5.66857,2.7097 5.66857,-0.60968 5.66857,5.85405 5.66857,-0.75366 5.66857,2.93204 5.66857,1.78389 5.66858,-4.98065 5.66857,-0.53837 5.66857,-0.43814 5.66857,-4.17058 5.66857,-1.34469 5.66857,-6.434 5.66857,3.42247 5.66858,-3.00122 5.66857,-8.05171 5.66857,-13.04017 5.66857,-13.61366"
         style="fill:none;stroke:#1f77b4;stroke-width:1.5;stroke-linecap:square;stroke-linejoin:round;stroke-miterlimit:10;stroke-dasharray:none;stroke-opacity:1"
         id="path284" /></g><g
       id="g288"
       clip-path="url(#clipPath292)"
       transform="matrix(0.57525494,0,0,0.57525494,8.9272787,142.02354)"><path
         d="m 57.6,265.12929 5.668571,-3.29571 5.668572,-24.52835 5.668571,-14.1471 5.668572,-11.46599 5.668571,-5.77683 5.668572,-5.71569 5.668571,-7.70091 5.66857,-7.15571 5.66857,-4.506 5.66857,-2.96728 5.66858,-10.32405 5.66857,0.91318 5.66857,-2.62577 5.66857,1.76944 5.66857,-0.87391 5.66857,-1.28214 5.66857,-2.44247 5.66858,-5.09058 5.66857,-1.53341 5.66857,-0.4797 5.66857,-1.98457 5.66857,0.24961 5.66857,-1.93709 5.66857,-5.38292 5.66858,-1.01329 5.66857,0.42842 5.66857,-1.55992 5.66857,-3.37518 5.66857,-1.94491 5.66857,-2.78377 5.66857,2.52683 5.66858,1.64134 5.66857,-0.0893 5.66857,1.00072 5.66857,-1.86863 5.66857,-1.84955 5.66857,1.88726 5.66857,5.67428 5.66858,-1.8954 5.66857,2.55137 5.66857,7.5087 5.66857,-0.60345 5.66857,3.59178 5.66857,-2.38689 5.66857,-0.0319 5.66858,3.00899 5.66857,5.54529 5.66857,-3.2834 5.66857,5.18178 5.66857,1.85104 5.66857,3.09671 5.66857,-1.05169 5.66858,-0.22143 5.66857,-3.55073 5.66857,2.44848 5.66857,-3.94805 5.66857,4.09357 5.66857,-9.88409 5.66857,3.61552 5.66858,-7.25008 5.66857,-2.76622 5.66857,-18.4849 5.66857,-14.26054"
         style="fill:none;stroke:#ff7f0e;stroke-width:1.5;stroke-linecap:square;stroke-linejoin:round;stroke-miterlimit:10;stroke-dasharray:none;stroke-opacity:1"
         id="path294" /></g><g
       id="g298"
       clip-path="url(#clipPath302)"
       transform="matrix(0.57525494,0,0,0.57525494,8.9272787,142.02354)"><path
         d="m 57.6,265.12586 5.668571,-4.02767 5.668572,-23.08482 5.668571,-15.62115 5.668572,-9.81835 5.668571,-7.11365 5.668572,-6.52373 5.668571,-7.94917 5.66857,-6.45201 5.66857,-5.72717 5.66857,-3.62243 5.66858,-7.04819 5.66857,-1.71408 5.66857,-1.6715 5.66857,1.52219 5.66857,-0.73692 5.66857,-0.7237 5.66857,-2.39503 5.66858,-5.04362 5.66857,-1.31293 5.66857,-0.25076 5.66857,-0.003 5.66857,-0.10054 5.66857,-0.61282 5.66857,-5.9377 5.66858,3.0532 5.66857,0.71549 5.66857,0.61185 5.66857,-4.64785 5.66857,1.32553 5.66857,-3.66328 5.66857,4.2115 5.66858,0.58799 5.66857,0.21615 5.66857,1.54774 5.66857,-0.8981 5.66857,-1.85941 5.66857,3.56048 5.66857,4.81166 5.66858,1.23539 5.66857,0.42323 5.66857,8.90727 5.66857,0.25532 5.66857,3.24794 5.66857,-3.45468 5.66857,-1.20505 5.66858,0.72658 5.66857,7.05728 5.66857,-7.49124 5.66857,5.1181 5.66857,2.74236 5.66857,-0.23646 5.66857,0.83266 5.66858,-3.18291 5.66857,-2.49346 5.66857,-2.90977 5.66857,-5.47988 5.66857,3.31747 5.66857,-12.8033 5.66857,4.41522 5.66858,-9.51783 5.66857,-2.97406 5.66857,-16.81006 5.66857,-19.09648"
         style="fill:none;stroke:#2ca02c;stroke-width:1.5;stroke-linecap:square;stroke-linejoin:round;stroke-miterlimit:10;stroke-dasharray:none;stroke-opacity:1"
         id="path304" /></g><g
       id="g308"
       clip-path="url(#clipPath312)"
       style="stroke:#8c564b;stroke-opacity:1"
       transform="matrix(0.57525494,0,0,0.57525494,8.9272787,142.02354)"><path
         d="m 57.6,263.86205 5.668571,-4.0405 5.668572,-22.62596 5.668571,-14.55382 5.668572,-10.26559 5.668571,-6.21395 5.668572,-6.96815 5.668571,-8.1863 5.66857,-7.7212 5.66857,-3.09239 5.66857,-2.9168 5.66858,-8.88805 5.66857,-2.05668 5.66857,-1.07047 5.66857,0.72557 5.66857,-0.96074 5.66857,-3.4819 5.66857,-1.67712 5.66858,-4.84356 5.66857,-1.52275 5.66857,-1.24607 5.66857,-1.37495 5.66857,0.48409 5.66857,0.40009 5.66857,-1.75331 5.66858,-1.18163 5.66857,0.25066 5.66857,-1.05317 5.66857,-3.40235 5.66857,0.50785 5.66857,-4.15794 5.66857,4.20001 5.66858,5.10953 5.66857,-0.94184 5.66857,1.55134 5.66857,-1.34361 5.66857,-1.26207 5.66857,3.77974 5.66857,4.73791 5.66858,1.07274 5.66857,0.11938 5.66857,11.1971 5.66857,-0.40948 5.66857,4.35967 5.66857,-5.71287 5.66857,-0.69851 5.66858,-0.33716 5.66857,6.93474 5.66857,-6.9224 5.66857,5.20192 5.66857,-0.78524 5.66857,4.84688 5.66857,0.54618 5.66858,0.2374 5.66857,-2.22974 5.66857,-0.0204 5.66857,-5.11232 5.66857,3.28208 5.66857,-6.70592 5.66857,3.62578 5.66858,-6.2856 5.66857,-3.31925 5.66857,-15.32041 5.66857,-30.46503"
         style="fill:none;stroke:#8c564b;stroke-width:1.5;stroke-linecap:square;stroke-linejoin:round;stroke-miterlimit:10;stroke-dasharray:none;stroke-opacity:1"
         id="path314" /></g><g
       id="g318"
       clip-path="url(#clipPath322)"
       transform="matrix(0.57525494,0,0,0.57525494,8.9272787,142.02354)"><path
         d="m 57.6,264.68053 5.668571,-3.46107 5.668572,-22.78928 5.668571,-15.15006 5.668572,-10.58675 5.668571,-7.96905 5.668572,-7.22952 5.668571,-7.74544 5.66857,-7.4699 5.66857,-3.81401 5.66857,-2.19798 5.66858,-8.38209 5.66857,-0.62559 5.66857,-1.34104 5.66857,-0.98286 5.66857,-0.7058 5.66857,-2.13851 5.66857,-3.43466 5.66858,-3.58159 5.66857,-2.63737 5.66857,-0.56162 5.66857,-1.78206 5.66857,1.56389 5.66857,-0.49482 5.66857,-0.88453 5.66858,-0.61497 5.66857,0.98315 5.66857,-0.96655 5.66857,-4.42518 5.66857,1.66558 5.66857,-1.53885 5.66857,4.78241 5.66858,5.04007 5.66857,0.43336 5.66857,2.73858 5.66857,-1.63061 5.66857,-0.29858 5.66857,1.99621 5.66857,2.89301 5.66858,0.53374 5.66857,0.34059 5.66857,9.02799 5.66857,-1.78521 5.66857,5.48405 5.66857,-3.81971 5.66857,-2.48274 5.66858,-0.57092 5.66857,6.58666 5.66857,-7.00155 5.66857,5.70582 5.66857,-1.13269 5.66857,2.74782 5.66857,1.74353 5.66858,-2.20072 5.66857,-2.63243 5.66857,0.33054 5.66857,-3.29237 5.66857,3.03852 5.66857,-6.10977 5.66857,-1.45483 5.66858,-5.49927 5.66857,-3.78041 5.66857,-14.72982 5.66857,-36.71033"
         style="fill:none;stroke:#9467bd;stroke-width:1.5;stroke-linecap:square;stroke-linejoin:round;stroke-miterlimit:10;stroke-dasharray:none;stroke-opacity:1"
         id="path324" /></g><path
       d="M 42.061963,163.89243 V 316.97467"
       style="fill:none;stroke:#000000;stroke-width:0.460204;stroke-linecap:square;stroke-linejoin:miter;stroke-miterlimit:10;stroke-dasharray:none;stroke-opacity:1"
       id="path338" /><path
       d="M 247.497,163.89243 V 316.97467"
       style="fill:none;stroke:#000000;stroke-width:0.460204;stroke-linecap:square;stroke-linejoin:miter;stroke-miterlimit:10;stroke-dasharray:none;stroke-opacity:1"
       id="path340" /><path
       d="M 42.061963,163.89243 H 247.497"
       style="fill:none;stroke:#000000;stroke-width:0.460204;stroke-linecap:square;stroke-linejoin:miter;stroke-miterlimit:10;stroke-dasharray:none;stroke-opacity:1"
       id="path342" /><path
       d="M 42.061963,316.97467 H 247.497"
       style="fill:none;stroke:#000000;stroke-width:0.460204;stroke-linecap:square;stroke-linejoin:miter;stroke-miterlimit:10;stroke-dasharray:none;stroke-opacity:1"
       id="path344" /><path
       d="m 80.03336,211.42361 h 11.5051"
       style="fill:none;stroke:#1f77b4;stroke-width:0.862883;stroke-linecap:square;stroke-linejoin:round;stroke-miterlimit:10;stroke-dasharray:none;stroke-opacity:1"
       id="path354" /><path
       d="m 80.03336,202.98354 h 11.5051"
       style="fill:none;stroke:#ff7f0e;stroke-width:0.862883;stroke-linecap:square;stroke-linejoin:round;stroke-miterlimit:10;stroke-dasharray:none;stroke-opacity:1"
       id="path360" /><path
       d="m 80.03336,194.54347 h 11.5051"
       style="fill:none;stroke:#2ca02c;stroke-width:0.862883;stroke-linecap:square;stroke-linejoin:round;stroke-miterlimit:10;stroke-dasharray:none;stroke-opacity:1"
       id="path366" /><path
       d="m 80.03336,186.10341 h 11.5051"
       style="fill:none;stroke:#8c564b;stroke-width:0.862883;stroke-linecap:square;stroke-linejoin:round;stroke-miterlimit:10;stroke-dasharray:none;stroke-opacity:1"
       id="path372" /><path
       d="m 80.03336,177.66333 h 11.5051"
       style="fill:none;stroke:#9467bd;stroke-width:0.862883;stroke-linecap:square;stroke-linejoin:round;stroke-miterlimit:10;stroke-dasharray:none;stroke-opacity:1"
       id="path378" /><path
       d="m 80.03336,169.22326 h 11.5051"
       style="fill:none;stroke:#d62728;stroke-width:0.862883;stroke-linecap:square;stroke-linejoin:round;stroke-miterlimit:10;stroke-dasharray:none;stroke-opacity:1"
       id="path384" /></g><g
     inkscape:groupmode="layer"
     id="layer1"
     inkscape:label="text"
     style="display:inline"
     transform="translate(-28.023958,-17.206424)"><text
       style="font-variant:normal;font-weight:normal;font-size:7.67007px;font-family:'DejaVu Sans';-inkscape-font-specification:DejaVuSans;writing-mode:lr-tb;fill:#000000;fill-opacity:1;fill-rule:nonzero;stroke:none;stroke-width:0.767007"
       id="text32"
       x="53.982513"
       y="253.47032"><tspan
         x="53.982513 58.86068 61.299759"
         y="253.47032"
         sodipodi:role="line"
         id="tspan30"
         style="stroke-width:0.767007">0.0</tspan></text><text
       style="font-variant:normal;font-weight:normal;font-size:7.67007px;font-family:'DejaVu Sans';-inkscape-font-specification:DejaVuSans;writing-mode:lr-tb;fill:#000000;fill-opacity:1;fill-rule:nonzero;stroke:none;stroke-width:0.767007"
       id="text50"
       x="84.765167"
       y="253.47032"><tspan
         x="84.765167 89.643333 92.082413"
         y="253.47032"
         sodipodi:role="line"
         id="tspan48"
         style="stroke-width:0.767007">0.2</tspan></text><text
       style="font-variant:normal;font-weight:normal;font-size:7.67007px;font-family:'DejaVu Sans';-inkscape-font-specification:DejaVuSans;writing-mode:lr-tb;fill:#000000;fill-opacity:1;fill-rule:nonzero;stroke:none;stroke-width:0.767007"
       id="text68"
       x="119.54782"
       y="253.47032"><tspan
         x="119.54782 124.42599 126.86506"
         y="253.47032"
         sodipodi:role="line"
         id="tspan66"
         style="stroke-width:0.767007">0.4</tspan></text><text
       style="font-variant:normal;font-weight:normal;font-size:7.67007px;font-family:'DejaVu Sans';-inkscape-font-specification:DejaVuSans;writing-mode:lr-tb;fill:#000000;fill-opacity:1;fill-rule:nonzero;stroke:none;stroke-width:0.767007"
       id="text86"
       x="154.33047"
       y="253.47032"><tspan
         x="154.33047 159.20865 161.64772"
         y="253.47032"
         sodipodi:role="line"
         id="tspan84"
         style="stroke-width:0.767007">0.6</tspan></text><text
       style="font-variant:normal;font-weight:normal;font-size:7.67007px;font-family:'DejaVu Sans';-inkscape-font-specification:DejaVuSans;writing-mode:lr-tb;fill:#000000;fill-opacity:1;fill-rule:nonzero;stroke:none;stroke-width:0.767007"
       id="text104"
       x="189.11311"
       y="253.47032"><tspan
         x="189.11311 193.99129 196.43037"
         y="253.47032"
         sodipodi:role="line"
         id="tspan102"
         style="stroke-width:0.767007">0.8</tspan></text><text
       style="font-variant:normal;font-weight:normal;font-size:7.67007px;font-family:'DejaVu Sans';-inkscape-font-specification:DejaVuSans;writing-mode:lr-tb;fill:#000000;fill-opacity:1;fill-rule:nonzero;stroke:none;stroke-width:0.767007"
       id="text122"
       x="223.89578"
       y="253.47032"><tspan
         x="223.89578 228.77394 231.21301"
         y="253.47032"
         sodipodi:role="line"
         id="tspan120"
         style="stroke-width:0.767007">1.0</tspan></text><text
       style="font-variant:normal;font-weight:normal;font-size:7.67007px;font-family:'DejaVu Sans';-inkscape-font-specification:DejaVuSans;writing-mode:lr-tb;fill:#000000;fill-opacity:1;fill-rule:nonzero;stroke:none;stroke-width:0.767007"
       id="text140"
       x="258.67844"
       y="253.47032"><tspan
         x="258.67844 263.55658 265.99564"
         y="253.47032"
         sodipodi:role="line"
         id="tspan138"
         style="stroke-width:0.767007">1.2</tspan></text><text
       style="font-variant:normal;font-weight:normal;font-size:7.67007px;font-family:'DejaVu Sans';-inkscape-font-specification:DejaVuSans;writing-mode:lr-tb;fill:#000000;fill-opacity:1;fill-rule:nonzero;stroke:none;stroke-width:0.767007"
       id="text158"
       x="293.46109"
       y="253.47032"><tspan
         x="293.46109 298.33923 300.77829"
         y="253.47032"
         sodipodi:role="line"
         id="tspan156"
         style="stroke-width:0.767007">1.4</tspan></text><text
       style="font-variant:normal;font-weight:normal;font-size:7.67007px;font-family:'DejaVu Sans';-inkscape-font-specification:DejaVuSans;writing-mode:lr-tb;fill:#000000;fill-opacity:1;fill-rule:nonzero;stroke:none;stroke-width:0.767007"
       id="text162"
       x="146.61745"
       y="263.9566"><tspan
         x="146.61745 152.56174 157.27882 162.14165 166.83574 174.30637 176.43864 180.65718 183.09627 187.96675 190.09903 194.09514 197.10181 201.80356 206.66638 210.88492 215.60202 218.04108 220.6259 223.06496 229.68423 234.55473"
         y="263.9566"
         sodipodi:role="line"
         id="tspan160"
         style="stroke-width:0.767007">Genomic distance / Mbp</tspan></text><text
       style="font-variant:normal;font-weight:normal;font-size:7.67007px;font-family:'DejaVu Sans';-inkscape-font-specification:DejaVuSans;writing-mode:lr-tb;fill:#000000;fill-opacity:1;fill-rule:nonzero;stroke:none;stroke-width:0.767007"
       id="text180"
       x="38.513371"
       y="245.18906"><tspan
         x="38.513371 43.391533 45.830612"
         y="245.18906"
         sodipodi:role="line"
         id="tspan178"
         style="stroke-width:0.767007">0.0</tspan></text><text
       style="font-variant:normal;font-weight:normal;font-size:7.67007px;font-family:'DejaVu Sans';-inkscape-font-specification:DejaVuSans;writing-mode:lr-tb;fill:#000000;fill-opacity:1;fill-rule:nonzero;stroke:none;stroke-width:0.767007"
       id="text198"
       x="38.513371"
       y="204.36713"><tspan
         x="38.513371 43.391533 45.830612"
         y="204.36713"
         sodipodi:role="line"
         id="tspan196"
         style="stroke-width:0.767007">0.2</tspan></text><text
       style="font-variant:normal;font-weight:normal;font-size:7.67007px;font-family:'DejaVu Sans';-inkscape-font-specification:DejaVuSans;writing-mode:lr-tb;fill:#000000;fill-opacity:1;fill-rule:nonzero;stroke:none;stroke-width:0.767007"
       id="text216"
       x="38.513371"
       y="163.5452"><tspan
         x="38.513371 43.391533 45.830612"
         y="163.5452"
         sodipodi:role="line"
         id="tspan214"
         style="stroke-width:0.767007">0.4</tspan></text><text
       style="font-variant:normal;font-weight:normal;font-size:7.67007px;font-family:'DejaVu Sans';-inkscape-font-specification:DejaVuSans;writing-mode:lr-tb;fill:#000000;fill-opacity:1;fill-rule:nonzero;stroke:none;stroke-width:0.767007"
       id="text234"
       x="38.513371"
       y="122.72317"><tspan
         x="38.513371 43.391533 45.830612"
         y="122.72317"
         sodipodi:role="line"
         id="tspan232"
         style="stroke-width:0.767007">0.6</tspan></text><text
       style="font-variant:normal;font-weight:normal;font-size:7.67007px;font-family:'DejaVu Sans';-inkscape-font-specification:DejaVuSans;writing-mode:lr-tb;fill:#000000;fill-opacity:1;fill-rule:nonzero;stroke:none;stroke-width:0.767007"
       id="text252"
       x="38.513371"
       y="81.90126"><tspan
         x="38.513371 43.391533 45.830612"
         y="81.90126"
         sodipodi:role="line"
         id="tspan250"
         style="stroke-width:0.767007">0.8</tspan></text><text
       style="font-variant:normal;font-weight:normal;font-size:7.67007px;font-family:'DejaVu Sans';-inkscape-font-specification:DejaVuSans;writing-mode:lr-tb;fill:#000000;fill-opacity:1;fill-rule:nonzero;stroke:none;stroke-width:0.767007"
       id="text270"
       x="38.513371"
       y="41.079372"><tspan
         x="38.513371 43.391533 45.830612"
         y="41.079372"
         sodipodi:role="line"
         id="tspan268"
         style="stroke-width:0.767007">1.0</tspan></text><text
       transform="rotate(-90)"
       style="font-variant:normal;font-weight:normal;font-size:7.67007px;font-family:'DejaVu Sans';-inkscape-font-specification:DejaVuSans;writing-mode:lr-tb;fill:#000000;fill-opacity:1;fill-rule:nonzero;stroke:none;stroke-width:0.767007"
       id="text274"
       x="-177.27802"
       y="33.85141"><tspan
         x="-177.27802 -172.65295 -167.93587 -163.23412 -160.08173 -156.08562 -151.39153 -146.52872 -144.08963 -139.87109 -135.17702 -132.02461 -128.87222 -124.15504 -122.02277 -117.32101 -114.31435 -112.18207 -107.48799"
         y="33.85141"
         sodipodi:role="line"
         id="tspan272"
         style="stroke-width:0.767007">Pearson correlation</tspan></text><text
       style="font-variant:normal;font-weight:normal;font-size:9.20408px;font-family:'DejaVu Sans';-inkscape-font-specification:DejaVuSans;writing-mode:lr-tb;fill:#000000;fill-opacity:1;fill-rule:nonzero;stroke:none;stroke-width:0.767007"
       id="text348"
       x="98.319992"
       y="23.248859"><tspan
         x="98.319992 103.87006 109.53056 115.17266 118.95554 123.75085 129.38376 135.21915 138.14604 143.20828 148.84117 152.62405 156.40692 162.06744 164.62617 170.26828 173.87627 176.43501 182.0679 187.90327 190.83018 196.27901 201.07433 204.00122 206.92813 212.77271 218.43323 224.26859 229.9015 238.86627 241.425 246.48724 249.41415 255.25874 257.81747 262.61279 266.22076 271.86288 277.69827 282.7605"
         y="23.248859"
         sodipodi:role="line"
         id="tspan346"
         style="stroke-width:0.767007">Pearson correlation vs. genomic distance</tspan></text><text
       style="font-variant:normal;font-weight:normal;font-size:9.20408px;font-family:'DejaVu Sans';-inkscape-font-specification:DejaVuSans;writing-mode:lr-tb;fill:#000000;fill-opacity:1;fill-rule:nonzero;stroke:none;stroke-width:0.767007"
       id="text352"
       x="61.056938"
       y="33.565105"><tspan
         x="61.056938 68.190102 76.133224 81.987015 87.840805 93.694595 99.548393 105.40218 108.32909 111.25599 117.10978 120.03669 125.89046 128.81738 134.67116 137.59807 143.45186 146.37875 152.23256 155.15945 161.01324 166.86703 169.79393 175.64772 181.50151 184.42841 190.2822 196.136 199.06288 204.91669 210.77049 213.69739 219.55118 225.40498 228.33186 234.18567 240.03946 242.96635 248.82014 254.67395 257.60086 263.45462 269.30844 272.23532 277.86823 283.70361 286.63052 292.6684 298.52219 304.37598 310.2298 313.15668 316.08359 321.93738"
         y="33.565105"
         sodipodi:role="line"
         id="tspan350"
         style="stroke-width:0.767007">GM12878, 1,2,4,7,9,11,13,14,16,17,18,20,22 on K562, 19</tspan></text><text
       style="font-variant:normal;font-weight:normal;font-size:7.67007px;font-family:'DejaVu Sans';-inkscape-font-specification:DejaVuSans;writing-mode:lr-tb;fill:#000000;fill-opacity:1;fill-rule:nonzero;stroke:none;stroke-width:0.767007"
       id="text358"
       x="128.18733"
       y="181.58635"><tspan
         x="128.18733 133.06551 137.94365 140.38274 145.09982 149.97032 152.40939 154.9942 157.4333 162.67961 168.29411 173.64781 176.23262 178.67172 183.54988 185.98894 190.86711 195.74525"
         y="181.58635"
         sodipodi:role="line"
         id="tspan356"
         style="stroke-width:0.767007">10 ep / AUC: 0.470</tspan></text><text
       style="font-variant:normal;font-weight:normal;font-size:7.67007px;font-family:'DejaVu Sans';-inkscape-font-specification:DejaVuSans;writing-mode:lr-tb;fill:#000000;fill-opacity:1;fill-rule:nonzero;stroke:none;stroke-width:0.767007"
       id="text364"
       x="128.18733"
       y="192.83978"><tspan
         x="128.18733 133.06551 137.94365 140.38274 145.09982 149.97032 152.40939 154.9942 157.4333 162.67961 168.29411 173.64781 176.23262 178.67172 183.54988 185.98894 190.86711 195.74525"
         y="192.83978"
         sodipodi:role="line"
         id="tspan362"
         style="stroke-width:0.767007">20 ep / AUC: 0.471</tspan></text><text
       style="font-variant:normal;font-weight:normal;font-size:7.67007px;font-family:'DejaVu Sans';-inkscape-font-specification:DejaVuSans;writing-mode:lr-tb;fill:#000000;fill-opacity:1;fill-rule:nonzero;stroke:none;stroke-width:0.767007"
       id="text370"
       x="128.18733"
       y="204.09317"><tspan
         x="128.18733 133.06551 137.94365 140.38274 145.09982 149.97032 152.40939 154.9942 157.4333 162.67961 168.29411 173.64781 176.23262 178.67172 183.54988 185.98894 190.86711 195.74525"
         y="204.09317"
         sodipodi:role="line"
         id="tspan368"
         style="stroke-width:0.767007">40 ep / AUC: 0.489</tspan></text><text
       style="font-variant:normal;font-weight:normal;font-size:7.67007px;font-family:'DejaVu Sans';-inkscape-font-specification:DejaVuSans;writing-mode:lr-tb;fill:#000000;fill-opacity:1;fill-rule:nonzero;stroke:none;stroke-width:0.767007"
       id="text376"
       x="128.18733"
       y="215.34659"><tspan
         x="128.18733 133.06551 137.94365 140.38274 145.09982 149.97032 152.40939 154.9942 157.4333 162.67961 168.29411 173.64781 176.23262 178.67172 183.54988 185.98894 190.86711 195.74525"
         y="215.34659"
         sodipodi:role="line"
         id="tspan374"
         style="stroke-width:0.767007">60 ep / AUC: 0.488</tspan></text><text
       style="font-variant:normal;font-weight:normal;font-size:7.67007px;font-family:'DejaVu Sans';-inkscape-font-specification:DejaVuSans;writing-mode:lr-tb;fill:#000000;fill-opacity:1;fill-rule:nonzero;stroke:none;stroke-width:0.767007"
       id="text382"
       x="128.18733"
       y="226.60001"><tspan
         x="128.18733 133.06551 137.94365 140.38274 145.09982 149.97032 152.40939 154.9942 157.4333 162.67961 168.29411 173.64781 176.23262 178.67172 183.54988 185.98894 190.86711 195.74525"
         y="226.60001"
         sodipodi:role="line"
         id="tspan380"
         style="stroke-width:0.767007">80 ep / AUC: 0.491</tspan></text><text
       style="font-variant:normal;font-weight:normal;font-size:7.67007px;font-family:'DejaVu Sans';-inkscape-font-specification:DejaVuSans;writing-mode:lr-tb;fill:#000000;fill-opacity:1;fill-rule:nonzero;stroke:none;stroke-width:0.767007"
       id="text388"
       x="128.18733"
       y="237.85342"><tspan
         x="128.18733 131.194 134.34641 139.04816 143.91096 147.90707 150.60692 155.32404 158.47641 160.9155 166.85979 173.47906 178.35724 183.23537 188.11357 192.99171 197.86989 200.30898 202.89378 205.33287 210.57918 216.19368 221.54738 224.13219 226.57127 231.44945 233.8885 238.76665 243.64482"
         y="237.85342"
         sodipodi:role="line"
         id="tspan386"
         style="stroke-width:0.767007">transfer GM12878 / AUC: 0.786</tspan></text></g></svg>
