<?xml version="1.0" encoding="UTF-8" standalone="no"?>
<svg
   xmlns:dc="http://purl.org/dc/elements/1.1/"
   xmlns:cc="http://creativecommons.org/ns#"
   xmlns:rdf="http://www.w3.org/1999/02/22-rdf-syntax-ns#"
   xmlns:svg="http://www.w3.org/2000/svg"
   xmlns="http://www.w3.org/2000/svg"
   xmlns:sodipodi="http://sodipodi.sourceforge.net/DTD/sodipodi-0.dtd"
   xmlns:inkscape="http://www.inkscape.org/namespaces/inkscape"
   version="1.1"
   id="svg2"
   xml:space="preserve"
   width="80mm"
   height="65.300003mm"
   viewBox="0 0 302.36219 246.80316"
   sodipodi:docname="pearson_chr05.svg"
   inkscape:version="1.0.2 (1.0.2+r75+1)"><metadata
     id="metadata8"><rdf:RDF><cc:Work
         rdf:about=""><dc:format>image/svg+xml</dc:format><dc:type
           rdf:resource="http://purl.org/dc/dcmitype/StillImage" /><dc:title /></cc:Work></rdf:RDF></metadata><defs
     id="defs6"><clipPath
       clipPathUnits="userSpaceOnUse"
       id="clipPath22"><path
         d="M 57.6,38.016 H 414.72 V 304.128 H 57.6 Z"
         id="path20" /></clipPath><clipPath
       clipPathUnits="userSpaceOnUse"
       id="clipPath40"><path
         d="M 57.6,38.016 H 414.72 V 304.128 H 57.6 Z"
         id="path38" /></clipPath><clipPath
       clipPathUnits="userSpaceOnUse"
       id="clipPath58"><path
         d="M 57.6,38.016 H 414.72 V 304.128 H 57.6 Z"
         id="path56" /></clipPath><clipPath
       clipPathUnits="userSpaceOnUse"
       id="clipPath76"><path
         d="M 57.6,38.016 H 414.72 V 304.128 H 57.6 Z"
         id="path74" /></clipPath><clipPath
       clipPathUnits="userSpaceOnUse"
       id="clipPath94"><path
         d="M 57.6,38.016 H 414.72 V 304.128 H 57.6 Z"
         id="path92" /></clipPath><clipPath
       clipPathUnits="userSpaceOnUse"
       id="clipPath112"><path
         d="M 57.6,38.016 H 414.72 V 304.128 H 57.6 Z"
         id="path110" /></clipPath><clipPath
       clipPathUnits="userSpaceOnUse"
       id="clipPath130"><path
         d="M 57.6,38.016 H 414.72 V 304.128 H 57.6 Z"
         id="path128" /></clipPath><clipPath
       clipPathUnits="userSpaceOnUse"
       id="clipPath148"><path
         d="M 57.6,38.016 H 414.72 V 304.128 H 57.6 Z"
         id="path146" /></clipPath><clipPath
       clipPathUnits="userSpaceOnUse"
       id="clipPath170"><path
         d="M 57.6,38.016 H 414.72 V 304.128 H 57.6 Z"
         id="path168" /></clipPath><clipPath
       clipPathUnits="userSpaceOnUse"
       id="clipPath188"><path
         d="M 57.6,38.016 H 414.72 V 304.128 H 57.6 Z"
         id="path186" /></clipPath><clipPath
       clipPathUnits="userSpaceOnUse"
       id="clipPath206"><path
         d="M 57.6,38.016 H 414.72 V 304.128 H 57.6 Z"
         id="path204" /></clipPath><clipPath
       clipPathUnits="userSpaceOnUse"
       id="clipPath224"><path
         d="M 57.6,38.016 H 414.72 V 304.128 H 57.6 Z"
         id="path222" /></clipPath><clipPath
       clipPathUnits="userSpaceOnUse"
       id="clipPath242"><path
         d="M 57.6,38.016 H 414.72 V 304.128 H 57.6 Z"
         id="path240" /></clipPath><clipPath
       clipPathUnits="userSpaceOnUse"
       id="clipPath260"><path
         d="M 57.6,38.016 H 414.72 V 304.128 H 57.6 Z"
         id="path258" /></clipPath><clipPath
       clipPathUnits="userSpaceOnUse"
       id="clipPath282"><path
         d="M 57.6,38.016 H 414.72 V 304.128 H 57.6 Z"
         id="path280" /></clipPath><clipPath
       clipPathUnits="userSpaceOnUse"
       id="clipPath292"><path
         d="M 57.6,38.016 H 414.72 V 304.128 H 57.6 Z"
         id="path290" /></clipPath><clipPath
       clipPathUnits="userSpaceOnUse"
       id="clipPath302"><path
         d="M 57.6,38.016 H 414.72 V 304.128 H 57.6 Z"
         id="path300" /></clipPath><clipPath
       clipPathUnits="userSpaceOnUse"
       id="clipPath312"><path
         d="M 57.6,38.016 H 414.72 V 304.128 H 57.6 Z"
         id="path310" /></clipPath><clipPath
       clipPathUnits="userSpaceOnUse"
       id="clipPath322"><path
         d="M 57.6,38.016 H 414.72 V 304.128 H 57.6 Z"
         id="path320" /></clipPath><clipPath
       clipPathUnits="userSpaceOnUse"
       id="clipPath332"><path
         d="M 57.6,38.016 H 414.72 V 304.128 H 57.6 Z"
         id="path330" /></clipPath></defs><sodipodi:namedview
     pagecolor="#ffffff"
     bordercolor="#666666"
     borderopacity="1"
     objecttolerance="10"
     gridtolerance="10"
     guidetolerance="10"
     inkscape:pageopacity="0"
     inkscape:pageshadow="2"
     inkscape:window-width="1920"
     inkscape:window-height="1020"
     id="namedview4"
     showgrid="false"
     fit-margin-top="0"
     fit-margin-left="0"
     fit-margin-right="0"
     fit-margin-bottom="0"
     units="mm"
     inkscape:zoom="1.8598091"
     inkscape:cx="170.06332"
     inkscape:cy="175.27473"
     inkscape:window-x="0"
     inkscape:window-y="0"
     inkscape:window-maximized="1"
     inkscape:current-layer="g10"
     inkscape:document-rotation="0" /><g
     id="g10"
     inkscape:groupmode="layer"
     inkscape:label="pearson_chr05"
     transform="matrix(1.3333333,0,0,-1.3333333,-28.023958,443.59358)"><path
       d="M 57.6,38.016 V 304.128"
       style="fill:none;stroke:#b0b0b0;stroke-width:0.8;stroke-linecap:square;stroke-linejoin:round;stroke-miterlimit:10;stroke-dasharray:none;stroke-opacity:1"
       id="path24"
       transform="matrix(0.57512875,0,0,0.57512875,8.9299307,141.99415)" /><path
       d="M 102.94857,38.016 V 304.128"
       style="fill:none;stroke:#b0b0b0;stroke-width:0.8;stroke-linecap:square;stroke-linejoin:round;stroke-miterlimit:10;stroke-dasharray:none;stroke-opacity:1"
       id="path42"
       transform="matrix(0.57512875,0,0,0.57512875,8.9299307,141.99415)" /><path
       d="M 148.29714,38.016 V 304.128"
       style="fill:none;stroke:#b0b0b0;stroke-width:0.8;stroke-linecap:square;stroke-linejoin:round;stroke-miterlimit:10;stroke-dasharray:none;stroke-opacity:1"
       id="path60"
       transform="matrix(0.57512875,0,0,0.57512875,8.9299307,141.99415)" /><path
       d="M 193.64571,38.016 V 304.128"
       style="fill:none;stroke:#b0b0b0;stroke-width:0.8;stroke-linecap:square;stroke-linejoin:round;stroke-miterlimit:10;stroke-dasharray:none;stroke-opacity:1"
       id="path78"
       transform="matrix(0.57512875,0,0,0.57512875,8.9299307,141.99415)" /><path
       d="M 238.99429,38.016 V 304.128"
       style="fill:none;stroke:#b0b0b0;stroke-width:0.8;stroke-linecap:square;stroke-linejoin:round;stroke-miterlimit:10;stroke-dasharray:none;stroke-opacity:1"
       id="path96"
       transform="matrix(0.57512875,0,0,0.57512875,8.9299307,141.99415)" /><path
       d="M 172.46368,163.85824 V 316.90691"
       style="fill:none;stroke:#b0b0b0;stroke-width:0.460103;stroke-linecap:square;stroke-linejoin:round;stroke-miterlimit:10;stroke-dasharray:none;stroke-opacity:1"
       id="path114" /><path
       d="M 329.69143,38.016 V 304.128"
       style="fill:none;stroke:#b0b0b0;stroke-width:0.8;stroke-linecap:square;stroke-linejoin:round;stroke-miterlimit:10;stroke-dasharray:none;stroke-opacity:1"
       id="path132"
       transform="matrix(0.57512875,0,0,0.57512875,8.9299307,141.99415)" /><path
       d="M 375.04,38.016 V 304.128"
       style="fill:none;stroke:#b0b0b0;stroke-width:0.8;stroke-linecap:square;stroke-linejoin:round;stroke-miterlimit:10;stroke-dasharray:none;stroke-opacity:1"
       id="path150"
       transform="matrix(0.57512875,0,0,0.57512875,8.9299307,141.99415)" /><path
       d="M 57.6,38.016 H 414.72"
       style="fill:none;stroke:#b0b0b0;stroke-width:0.8;stroke-linecap:square;stroke-linejoin:round;stroke-miterlimit:10;stroke-dasharray:none;stroke-opacity:1"
       id="path172"
       transform="matrix(0.57512875,0,0,0.57512875,8.9299307,141.99415)" /><path
       d="M 57.6,91.2384 H 414.72"
       style="fill:none;stroke:#b0b0b0;stroke-width:0.8;stroke-linecap:square;stroke-linejoin:round;stroke-miterlimit:10;stroke-dasharray:none;stroke-opacity:1"
       id="path190"
       transform="matrix(0.57512875,0,0,0.57512875,8.9299307,141.99415)" /><path
       d="M 57.6,144.4608 H 414.72"
       style="fill:none;stroke:#b0b0b0;stroke-width:0.8;stroke-linecap:square;stroke-linejoin:round;stroke-miterlimit:10;stroke-dasharray:none;stroke-opacity:1"
       id="path208"
       transform="matrix(0.57512875,0,0,0.57512875,8.9299307,141.99415)" /><path
       d="M 57.6,197.6832 H 414.72"
       style="fill:none;stroke:#b0b0b0;stroke-width:0.8;stroke-linecap:square;stroke-linejoin:round;stroke-miterlimit:10;stroke-dasharray:none;stroke-opacity:1"
       id="path226"
       transform="matrix(0.57512875,0,0,0.57512875,8.9299307,141.99415)" /><path
       d="M 57.6,250.9056 H 414.72"
       style="fill:none;stroke:#b0b0b0;stroke-width:0.8;stroke-linecap:square;stroke-linejoin:round;stroke-miterlimit:10;stroke-dasharray:none;stroke-opacity:1"
       id="path244"
       transform="matrix(0.57512875,0,0,0.57512875,8.9299307,141.99415)" /><path
       d="M 57.6,304.128 H 414.72"
       style="fill:none;stroke:#b0b0b0;stroke-width:0.8;stroke-linecap:square;stroke-linejoin:round;stroke-miterlimit:10;stroke-dasharray:none;stroke-opacity:1"
       id="path262"
       transform="matrix(0.57512875,0,0,0.57512875,8.9299307,141.99415)" /><g
       id="g328"
       clip-path="url(#clipPath332)"
       style="stroke:#d62728;stroke-opacity:1"
       transform="matrix(0.57512875,0,0,0.57512875,8.9299308,141.99415)"><path
         d="m 57.6,274.26669 5.668571,-8.51413 5.668572,-4.60585 5.668571,-0.61572 5.668572,-0.97414 5.668571,0.2994 5.668572,0.17462 5.668571,-0.0369 5.66857,0.55342 5.66857,-1.55777 5.66857,-1.31879 5.66858,-0.0429 5.66857,-1.84437 5.66857,-1.25059 5.66857,-0.22577 5.66857,-2.59774 5.66857,-0.67705 5.66857,-0.23919 5.66858,-2.43211 5.66857,-1.4151 5.66857,-1.07585 5.66857,-1.42078 5.66857,0.29705 5.66857,-1.2512 5.66857,-4.21345 5.66858,1.85402 5.66857,0.40948 5.66857,0.49735 5.66857,-0.15599 5.66857,-2.90436 5.66857,0.90238 5.66857,-3.56086 5.66858,-0.71117 5.66857,0.0317 5.66857,-3.35022 5.66857,0.40922 5.66857,-1.31818 5.66857,-0.0777 5.66857,-2.52089 5.66858,2.24148 5.66857,-2.15834 5.66857,-3.06158 5.66857,-0.31306 5.66857,-0.70681 5.66857,4.80396 5.66857,-2.65466 5.66858,0.83184 5.66857,-1.614 5.66857,-2.32449 5.66857,2.89507 5.66857,-6.57443 5.66857,2.15945 5.66857,-6.06139 5.66858,-1.32181 5.66857,-1.42226 5.66857,-2.91308 5.66857,-0.51664 5.66857,1.0175 5.66857,-5.84401 5.66857,1.57233 5.66858,-5.53072 5.66857,5.36572 5.66857,-2.10874 5.66857,3.65182"
         style="fill:none;stroke:#d62728;stroke-width:1.5;stroke-linecap:square;stroke-linejoin:round;stroke-miterlimit:10;stroke-dasharray:none;stroke-opacity:1"
         id="path334" /></g><g
       id="g16"
       transform="matrix(0.57512875,0,0,0.57512875,8.9299308,141.99415)"><g
         id="g18"
         clip-path="url(#clipPath22)" /></g><path
       d="m 42.057347,163.85824 v -2.01295"
       style="fill:#000000;fill-opacity:1;fill-rule:nonzero;stroke:#000000;stroke-width:0.460103;stroke-linecap:butt;stroke-linejoin:round;stroke-miterlimit:10;stroke-dasharray:none;stroke-opacity:1"
       id="path28" /><g
       id="g34"
       transform="matrix(0.57512875,0,0,0.57512875,8.9299308,141.99415)"><g
         id="g36"
         clip-path="url(#clipPath40)" /></g><path
       d="m 68.138614,163.85824 v -2.01295"
       style="fill:#000000;fill-opacity:1;fill-rule:nonzero;stroke:#000000;stroke-width:0.460103;stroke-linecap:butt;stroke-linejoin:round;stroke-miterlimit:10;stroke-dasharray:none;stroke-opacity:1"
       id="path46" /><g
       id="g52"
       transform="matrix(0.57512875,0,0,0.57512875,8.9299308,141.99415)"><g
         id="g54"
         clip-path="url(#clipPath58)" /></g><path
       d="m 94.21988,163.85824 v -2.01295"
       style="fill:#000000;fill-opacity:1;fill-rule:nonzero;stroke:#000000;stroke-width:0.460103;stroke-linecap:butt;stroke-linejoin:round;stroke-miterlimit:10;stroke-dasharray:none;stroke-opacity:1"
       id="path64" /><g
       id="g70"
       transform="matrix(0.57512875,0,0,0.57512875,8.9299308,141.99415)"><g
         id="g72"
         clip-path="url(#clipPath76)" /></g><path
       d="m 120.30114,163.85824 v -2.01295"
       style="fill:#000000;fill-opacity:1;fill-rule:nonzero;stroke:#000000;stroke-width:0.460103;stroke-linecap:butt;stroke-linejoin:round;stroke-miterlimit:10;stroke-dasharray:none;stroke-opacity:1"
       id="path82" /><g
       id="g88"
       transform="matrix(0.57512875,0,0,0.57512875,8.9299308,141.99415)"><g
         id="g90"
         clip-path="url(#clipPath94)" /></g><path
       d="m 146.38242,163.85824 v -2.01295"
       style="fill:#000000;fill-opacity:1;fill-rule:nonzero;stroke:#000000;stroke-width:0.460103;stroke-linecap:butt;stroke-linejoin:round;stroke-miterlimit:10;stroke-dasharray:none;stroke-opacity:1"
       id="path100" /><path
       d="m 172.46368,163.85824 v -2.01295"
       style="fill:#000000;fill-opacity:1;fill-rule:nonzero;stroke:#000000;stroke-width:0.460103;stroke-linecap:butt;stroke-linejoin:round;stroke-miterlimit:10;stroke-dasharray:none;stroke-opacity:1"
       id="path118" /><g
       id="g124"
       transform="matrix(0.57512875,0,0,0.57512875,8.9299308,141.99415)"><g
         id="g126"
         clip-path="url(#clipPath130)" /></g><path
       d="m 198.54495,163.85824 v -2.01295"
       style="fill:#000000;fill-opacity:1;fill-rule:nonzero;stroke:#000000;stroke-width:0.460103;stroke-linecap:butt;stroke-linejoin:round;stroke-miterlimit:10;stroke-dasharray:none;stroke-opacity:1"
       id="path136" /><g
       id="g142"
       transform="matrix(0.57512875,0,0,0.57512875,8.9299308,141.99415)"><g
         id="g144"
         clip-path="url(#clipPath148)" /></g><path
       d="m 224.62622,163.85824 v -2.01295"
       style="fill:#000000;fill-opacity:1;fill-rule:nonzero;stroke:#000000;stroke-width:0.460103;stroke-linecap:butt;stroke-linejoin:round;stroke-miterlimit:10;stroke-dasharray:none;stroke-opacity:1"
       id="path154" /><g
       id="g164"
       transform="matrix(0.57512875,0,0,0.57512875,8.9299308,141.99415)"><g
         id="g166"
         clip-path="url(#clipPath170)" /></g><path
       d="M 42.057347,163.85824 H 40.044396"
       style="fill:#000000;fill-opacity:1;fill-rule:nonzero;stroke:#000000;stroke-width:0.460103;stroke-linecap:butt;stroke-linejoin:round;stroke-miterlimit:10;stroke-dasharray:none;stroke-opacity:1"
       id="path176" /><g
       id="g182"
       transform="matrix(0.57512875,0,0,0.57512875,8.9299308,141.99415)"><g
         id="g184"
         clip-path="url(#clipPath188)" /></g><path
       d="M 42.057347,194.46797 H 40.044396"
       style="fill:#000000;fill-opacity:1;fill-rule:nonzero;stroke:#000000;stroke-width:0.460103;stroke-linecap:butt;stroke-linejoin:round;stroke-miterlimit:10;stroke-dasharray:none;stroke-opacity:1"
       id="path194" /><g
       id="g200"
       transform="matrix(0.57512875,0,0,0.57512875,8.9299308,141.99415)"><g
         id="g202"
         clip-path="url(#clipPath206)" /></g><path
       d="M 42.057347,225.0777 H 40.044396"
       style="fill:#000000;fill-opacity:1;fill-rule:nonzero;stroke:#000000;stroke-width:0.460103;stroke-linecap:butt;stroke-linejoin:round;stroke-miterlimit:10;stroke-dasharray:none;stroke-opacity:1"
       id="path212" /><g
       id="g218"
       transform="matrix(0.57512875,0,0,0.57512875,8.9299308,141.99415)"><g
         id="g220"
         clip-path="url(#clipPath224)" /></g><path
       d="M 42.057347,255.68743 H 40.044396"
       style="fill:#000000;fill-opacity:1;fill-rule:nonzero;stroke:#000000;stroke-width:0.460103;stroke-linecap:butt;stroke-linejoin:round;stroke-miterlimit:10;stroke-dasharray:none;stroke-opacity:1"
       id="path230" /><g
       id="g236"
       transform="matrix(0.57512875,0,0,0.57512875,8.9299308,141.99415)"><g
         id="g238"
         clip-path="url(#clipPath242)" /></g><path
       d="M 42.057347,286.29716 H 40.044396"
       style="fill:#000000;fill-opacity:1;fill-rule:nonzero;stroke:#000000;stroke-width:0.460103;stroke-linecap:butt;stroke-linejoin:round;stroke-miterlimit:10;stroke-dasharray:none;stroke-opacity:1"
       id="path248" /><g
       id="g254"
       transform="matrix(0.57512875,0,0,0.57512875,8.9299308,141.99415)"><g
         id="g256"
         clip-path="url(#clipPath260)" /></g><path
       d="M 42.057347,316.9069 H 40.044396"
       style="fill:#000000;fill-opacity:1;fill-rule:nonzero;stroke:#000000;stroke-width:0.460103;stroke-linecap:butt;stroke-linejoin:round;stroke-miterlimit:10;stroke-dasharray:none;stroke-opacity:1"
       id="path266" /><g
       id="g278"
       clip-path="url(#clipPath282)"
       transform="matrix(0.57512875,0,0,0.57512875,8.9299308,141.99415)"><path
         d="m 57.6,258.69752 5.668571,3.47624 5.668572,-12.40032 5.668571,-7.41514 5.668572,-8.4981 5.668571,-5.68132 5.668572,-5.45415 5.668571,-9.20176 5.66857,-8.38021 5.66857,3.84901 5.66857,-11.6297 5.66858,0.30118 5.66857,1.10133 5.66857,-0.16374 5.66857,-5.10872 5.66857,-4.66045 5.66857,-3.40813 5.66857,-3.12732 5.66858,-2.15699 5.66857,0.84937 5.66857,-2.21993 5.66857,-2.94562 5.66857,-1.96951 5.66857,1.64798 5.66857,-2.63814 5.66858,-0.48852 5.66857,-6.25598 5.66857,3.94701 5.66857,-5.93571 5.66857,1.60739 5.66857,-2.94001 5.66857,0.30446 5.66858,0.45201 5.66857,-1.99546 5.66857,-2.70613 5.66857,-2.19831 5.66857,-0.18119 5.66857,1.7712 5.66857,-3.28287 5.66858,2.49704 5.66857,-2.1037 5.66857,0.30143 5.66857,4.31964 5.66857,-1.84829 5.66857,-3.20841 5.66857,3.10285 5.66858,-0.96335 5.66857,-2.42696 5.66857,1.70206 5.66857,-5.27855 5.66857,-1.13344 5.66857,1.9697 5.66857,-0.96113 5.66858,-3.74478 5.66857,-0.0408 5.66857,-1.1786 5.66857,-2.94884 5.66857,1.00875 5.66857,-2.63105 5.66857,2.58354 5.66858,-4.84267 5.66857,-3.17704 5.66857,-10.86283 5.66857,-17.50322"
         style="fill:none;stroke:#1f77b4;stroke-width:1.5;stroke-linecap:square;stroke-linejoin:round;stroke-miterlimit:10;stroke-dasharray:none;stroke-opacity:1"
         id="path284" /></g><g
       id="g288"
       clip-path="url(#clipPath292)"
       transform="matrix(0.57512875,0,0,0.57512875,8.9299308,141.99415)"><path
         d="m 57.6,262.70267 5.668571,4.14183 5.668572,-11.15735 5.668571,-9.95979 5.668572,-9.42367 5.668571,-5.96528 5.668572,-6.07366 5.668571,-9.18897 5.66857,-9.57394 5.66857,2.80116 5.66857,-4.22624 5.66858,-7.6895 5.66857,2.9151 5.66857,-2.42075 5.66857,-2.0109 5.66857,-5.69494 5.66857,-1.78231 5.66857,-3.19838 5.66858,-0.24652 5.66857,-1.84999 5.66857,-1.36074 5.66857,-1.23631 5.66857,-0.97218 5.66857,0.25545 5.66857,-0.59819 5.66858,-1.62379 5.66857,-3.33788 5.66857,2.30618 5.66857,-4.09149 5.66857,-1.81149 5.66857,-0.95618 5.66857,-0.53959 5.66858,2.22538 5.66857,-3.30484 5.66857,-1.23162 L 256,162.234 l 5.66857,0.66536 5.66857,0.98042 5.66857,-1.94223 5.66858,0.85003 5.66857,-0.9368 5.66857,-0.58947 5.66857,6.74952 5.66857,-4.09663 5.66857,-0.22524 5.66857,3.00342 5.66858,0.63154 5.66857,-3.72828 5.66857,0.41236 5.66857,-4.82347 5.66857,1.47875 5.66857,-0.28353 5.66857,-1.01958 5.66858,-3.33184 5.66857,3.18555 5.66857,-2.41623 5.66857,-3.69555 5.66857,-0.69425 5.66857,-1.21124 5.66857,-1.56443 5.66858,-3.49523 5.66857,-3.31617 5.66857,-14.90419 5.66857,-24.17447"
         style="fill:none;stroke:#ff7f0e;stroke-width:1.5;stroke-linecap:square;stroke-linejoin:round;stroke-miterlimit:10;stroke-dasharray:none;stroke-opacity:1"
         id="path294" /></g><g
       id="g298"
       clip-path="url(#clipPath302)"
       transform="matrix(0.57512875,0,0,0.57512875,8.9299308,141.99415)"><path
         d="m 57.6,260.93996 5.668571,3.9154 5.668572,-10.87852 5.668571,-10.76458 5.668572,-7.31867 5.668571,-6.18271 5.668572,-5.11613 5.668571,-9.10855 5.66857,-5.79191 5.66857,-1.0572 5.66857,-4.47563 5.66858,-3.98538 5.66857,0.34795 5.66857,-2.84122 5.66857,-3.99412 5.66857,-5.55113 5.66857,-1.80625 5.66857,-3.07391 5.66858,-1.08934 5.66857,-1.96687 5.66857,-2.39864 5.66857,-0.26963 5.66857,-2.24691 5.66857,0.3558 5.66857,-2.04272 5.66858,1.04115 5.66857,-3.21746 5.66857,2.86701 5.66857,-4.57979 5.66857,0.14836 5.66857,0.18079 5.66857,-0.71451 5.66858,0.24736 5.66857,-2.42597 5.66857,-0.57577 5.66857,-2.90774 5.66857,1.09255 5.66857,-0.335 5.66857,-0.84519 5.66858,0.47038 5.66857,-0.58125 5.66857,-2.31947 5.66857,6.09159 5.66857,-4.56582 5.66857,1.4412 5.66857,1.63924 5.66858,2.80363 5.66857,-3.58531 5.66857,-0.22348 5.66857,-4.40293 5.66857,3.78281 5.66857,-2.16081 5.66857,-1.78355 5.66858,-5.78801 5.66857,5.65998 5.66857,-6.02102 5.66857,-3.77207 5.66857,-2.87574 5.66857,-3.02003 5.66857,-0.81258 5.66858,-0.89739 5.66857,-5.33713 5.66857,-14.44412 5.66857,-27.925309"
         style="fill:none;stroke:#2ca02c;stroke-width:1.5;stroke-linecap:square;stroke-linejoin:round;stroke-miterlimit:10;stroke-dasharray:none;stroke-opacity:1"
         id="path304" /></g><g
       id="g308"
       clip-path="url(#clipPath312)"
       style="stroke:#8c564b;stroke-opacity:1"
       transform="matrix(0.57512875,0,0,0.57512875,8.9299308,141.99415)"><path
         d="m 57.6,260.05928 5.668571,3.15847 5.668572,-9.92664 5.668571,-9.83682 5.668572,-7.91538 5.668571,-6.1382 5.668572,-6.1207 5.668571,-8.3768 5.66857,-6.31685 5.66857,0.43243 5.66857,-3.166 5.66858,-4.55043 5.66857,0.045 5.66857,-2.87425 5.66857,-4.75567 5.66857,-5.1697 5.66857,-1.57073 5.66857,-3.17102 5.66858,-1.01528 5.66857,-2.13345 5.66857,-2.98929 5.66857,-2.04807 5.66857,-1.71992 5.66857,0.54567 5.66857,0.81176 5.66858,-1.2756 5.66857,-4.30042 5.66857,1.89477 5.66857,-3.85166 5.66857,-0.3204 5.66857,-0.34779 5.66857,-0.19895 5.66858,1.82148 5.66857,-2.63617 5.66857,-0.0353 5.66857,-2.07822 5.66857,1.42475 5.66857,-0.20798 5.66857,-0.0642 5.66858,0.63643 5.66857,-0.27853 5.66857,-2.19073 5.66857,6.792 5.66857,-4.62311 5.66857,1.22033 5.66857,2.18513 5.66858,2.50333 5.66857,-3.65133 5.66857,1.72942 5.66857,-2.02415 5.66857,2.53798 5.66857,-0.22661 5.66857,-0.77397 5.66858,-7.60991 5.66857,4.35346 5.66857,-7.7889 5.66857,-9.14384 5.66857,-5.24485 5.66857,2.66507 5.66857,-5.93774 5.66858,1.18079 5.66857,-3.92704 5.66857,-9.47929 5.66857,-31.483008"
         style="fill:none;stroke:#8c564b;stroke-width:1.5;stroke-linecap:square;stroke-linejoin:round;stroke-miterlimit:10;stroke-dasharray:none;stroke-opacity:1"
         id="path314" /></g><g
       id="g318"
       clip-path="url(#clipPath322)"
       transform="matrix(0.57512875,0,0,0.57512875,8.9299308,141.99415)"><path
         d="m 57.6,260.89796 5.668571,3.56881 5.668572,-9.90526 5.668571,-10.11995 5.668572,-8.40344 5.668571,-7.53758 5.668572,-5.37918 5.668571,-8.20361 5.66857,-5.90889 5.66857,0.59289 5.66857,-2.46623 5.66858,-4.19381 5.66857,0.77161 5.66857,-2.56525 5.66857,-4.72723 5.66857,-5.30704 5.66857,-0.43402 5.66857,-4.63976 5.66858,-1.03822 5.66857,-1.94952 5.66857,-1.44868 5.66857,-1.65596 5.66857,-2.14815 5.66857,0.5669 5.66857,1.35307 5.66858,-2.68767 5.66857,-3.52809 5.66857,2.4263 5.66857,-3.09526 5.66857,-1.21704 5.66857,-1.0244 5.66857,-1.22204 5.66858,0.32337 5.66857,-3.53386 5.66857,-0.7085 5.66857,-2.703 5.66857,1.00273 5.66857,-0.27798 5.66857,0.56762 5.66858,-0.20029 5.66857,-0.73947 5.66857,-2.19122 5.66857,7.01556 5.66857,-4.11733 5.66857,2.56373 5.66857,2.54416 5.66858,1.52198 5.66857,-4.60905 5.66857,0.96226 5.66857,-3.51299 5.66857,4.00241 5.66857,-1.64377 5.66857,0.29975 5.66858,-6.52277 5.66857,5.9033 5.66857,-9.19641 5.66857,-3.7815 5.66857,-7.34706 5.66857,1.29125 5.66857,-10.19202 5.66858,-0.44141 5.66857,-1.78247 5.66857,-12.14993 L 414.72,84.0641"
         style="fill:none;stroke:#9467bd;stroke-width:1.5;stroke-linecap:square;stroke-linejoin:round;stroke-miterlimit:10;stroke-dasharray:none;stroke-opacity:1"
         id="path324" /></g><path
       d="M 42.057347,163.85824 V 316.9069"
       style="fill:none;stroke:#000000;stroke-width:0.460103;stroke-linecap:square;stroke-linejoin:miter;stroke-miterlimit:10;stroke-dasharray:none;stroke-opacity:1"
       id="path338" /><path
       d="M 247.44733,163.85824 V 316.9069"
       style="fill:none;stroke:#000000;stroke-width:0.460103;stroke-linecap:square;stroke-linejoin:miter;stroke-miterlimit:10;stroke-dasharray:none;stroke-opacity:1"
       id="path340" /><path
       d="M 42.057347,163.85824 H 247.44733"
       style="fill:none;stroke:#000000;stroke-width:0.460103;stroke-linecap:square;stroke-linejoin:miter;stroke-miterlimit:10;stroke-dasharray:none;stroke-opacity:1"
       id="path342" /><path
       d="M 42.057347,316.9069 H 247.44733"
       style="fill:none;stroke:#000000;stroke-width:0.460103;stroke-linecap:square;stroke-linejoin:miter;stroke-miterlimit:10;stroke-dasharray:none;stroke-opacity:1"
       id="path344" /><path
       d="M 79.900042,215.47144 H 91.402617"
       style="fill:none;stroke:#1f77b4;stroke-width:0.862693;stroke-linecap:square;stroke-linejoin:round;stroke-miterlimit:10;stroke-dasharray:none;stroke-opacity:1"
       id="path354" /><path
       d="M 79.900042,207.03323 H 91.402617"
       style="fill:none;stroke:#ff7f0e;stroke-width:0.862693;stroke-linecap:square;stroke-linejoin:round;stroke-miterlimit:10;stroke-dasharray:none;stroke-opacity:1"
       id="path360" /><path
       d="M 79.900042,198.59502 H 91.402617"
       style="fill:none;stroke:#2ca02c;stroke-width:0.862693;stroke-linecap:square;stroke-linejoin:round;stroke-miterlimit:10;stroke-dasharray:none;stroke-opacity:1"
       id="path366" /><path
       d="M 79.900042,190.1568 H 91.402617"
       style="fill:none;stroke:#8c564b;stroke-width:0.862693;stroke-linecap:square;stroke-linejoin:round;stroke-miterlimit:10;stroke-dasharray:none;stroke-opacity:1"
       id="path372" /><path
       d="M 79.900042,181.71859 H 91.402617"
       style="fill:none;stroke:#9467bd;stroke-width:0.862693;stroke-linecap:square;stroke-linejoin:round;stroke-miterlimit:10;stroke-dasharray:none;stroke-opacity:1"
       id="path378" /><path
       d="M 79.900042,173.28037 H 91.402617"
       style="fill:none;stroke:#d62728;stroke-width:0.862693;stroke-linecap:square;stroke-linejoin:round;stroke-miterlimit:10;stroke-dasharray:none;stroke-opacity:1"
       id="path384" /></g><g
     inkscape:groupmode="layer"
     id="layer1"
     inkscape:label="text"
     style="display:inline"
     transform="translate(-28.023958,-17.206424)"><text
       style="font-variant:normal;font-weight:normal;font-size:7.66838px;font-family:'DejaVu Sans';-inkscape-font-specification:DejaVuSans;writing-mode:lr-tb;fill:#000000;fill-opacity:1;fill-rule:nonzero;stroke:none;stroke-width:0.766838"
       id="text32"
       x="53.977699"
       y="253.5132"><tspan
         x="53.977699 58.85479 61.293339"
         y="253.5132"
         sodipodi:role="line"
         id="tspan30"
         style="stroke-width:0.766838">0.0</tspan></text><text
       style="font-variant:normal;font-weight:normal;font-size:7.66838px;font-family:'DejaVu Sans';-inkscape-font-specification:DejaVuSans;writing-mode:lr-tb;fill:#000000;fill-opacity:1;fill-rule:nonzero;stroke:none;stroke-width:0.766838"
       id="text50"
       x="84.752724"
       y="253.5132"><tspan
         x="84.752724 89.629814 92.068359"
         y="253.5132"
         sodipodi:role="line"
         id="tspan48"
         style="stroke-width:0.766838">0.2</tspan></text><text
       style="font-variant:normal;font-weight:normal;font-size:7.66838px;font-family:'DejaVu Sans';-inkscape-font-specification:DejaVuSans;writing-mode:lr-tb;fill:#000000;fill-opacity:1;fill-rule:nonzero;stroke:none;stroke-width:0.766838"
       id="text68"
       x="119.52775"
       y="253.5132"><tspan
         x="119.52775 124.40484 126.84338"
         y="253.5132"
         sodipodi:role="line"
         id="tspan66"
         style="stroke-width:0.766838">0.4</tspan></text><text
       style="font-variant:normal;font-weight:normal;font-size:7.66838px;font-family:'DejaVu Sans';-inkscape-font-specification:DejaVuSans;writing-mode:lr-tb;fill:#000000;fill-opacity:1;fill-rule:nonzero;stroke:none;stroke-width:0.766838"
       id="text86"
       x="154.30276"
       y="253.5132"><tspan
         x="154.30276 159.17986 161.61841"
         y="253.5132"
         sodipodi:role="line"
         id="tspan84"
         style="stroke-width:0.766838">0.6</tspan></text><text
       style="font-variant:normal;font-weight:normal;font-size:7.66838px;font-family:'DejaVu Sans';-inkscape-font-specification:DejaVuSans;writing-mode:lr-tb;fill:#000000;fill-opacity:1;fill-rule:nonzero;stroke:none;stroke-width:0.766838"
       id="text104"
       x="189.07779"
       y="253.5132"><tspan
         x="189.07779 193.95486 196.39343"
         y="253.5132"
         sodipodi:role="line"
         id="tspan102"
         style="stroke-width:0.766838">0.8</tspan></text><text
       style="font-variant:normal;font-weight:normal;font-size:7.66838px;font-family:'DejaVu Sans';-inkscape-font-specification:DejaVuSans;writing-mode:lr-tb;fill:#000000;fill-opacity:1;fill-rule:nonzero;stroke:none;stroke-width:0.766838"
       id="text122"
       x="223.85281"
       y="253.5132"><tspan
         x="223.85281 228.72989 231.16844"
         y="253.5132"
         sodipodi:role="line"
         id="tspan120"
         style="stroke-width:0.766838">1.0</tspan></text><text
       style="font-variant:normal;font-weight:normal;font-size:7.66838px;font-family:'DejaVu Sans';-inkscape-font-specification:DejaVuSans;writing-mode:lr-tb;fill:#000000;fill-opacity:1;fill-rule:nonzero;stroke:none;stroke-width:0.766838"
       id="text140"
       x="258.62784"
       y="253.5132"><tspan
         x="258.62784 263.50491 265.94345"
         y="253.5132"
         sodipodi:role="line"
         id="tspan138"
         style="stroke-width:0.766838">1.2</tspan></text><text
       style="font-variant:normal;font-weight:normal;font-size:7.66838px;font-family:'DejaVu Sans';-inkscape-font-specification:DejaVuSans;writing-mode:lr-tb;fill:#000000;fill-opacity:1;fill-rule:nonzero;stroke:none;stroke-width:0.766838"
       id="text158"
       x="293.40286"
       y="253.5132"><tspan
         x="293.40286 298.27994 300.71848"
         y="253.5132"
         sodipodi:role="line"
         id="tspan156"
         style="stroke-width:0.766838">1.4</tspan></text><text
       style="font-variant:normal;font-weight:normal;font-size:7.66838px;font-family:'DejaVu Sans';-inkscape-font-specification:DejaVuSans;writing-mode:lr-tb;fill:#000000;fill-opacity:1;fill-rule:nonzero;stroke:none;stroke-width:0.766838"
       id="text162"
       x="146.59143"
       y="263.99762"><tspan
         x="146.59143 152.53441 157.25047 162.11221 166.80528 174.27428 176.4061 180.6237 183.06226 187.93167 190.06348 194.0587 197.06471 201.76544 206.6272 210.84482 215.56087 217.9994 220.58365 223.02219 229.64001 234.50943"
         y="263.99762"
         sodipodi:role="line"
         id="tspan160"
         style="stroke-width:0.766838">Genomic distance / Mbp</tspan></text><text
       style="font-variant:normal;font-weight:normal;font-size:7.66838px;font-family:'DejaVu Sans';-inkscape-font-specification:DejaVuSans;writing-mode:lr-tb;fill:#000000;fill-opacity:1;fill-rule:nonzero;stroke:none;stroke-width:0.766838"
       id="text180"
       x="38.51107"
       y="245.23375"><tspan
         x="38.51107 43.388165 45.826706"
         y="245.23375"
         sodipodi:role="line"
         id="tspan178"
         style="stroke-width:0.766838">0.0</tspan></text><text
       style="font-variant:normal;font-weight:normal;font-size:7.66838px;font-family:'DejaVu Sans';-inkscape-font-specification:DejaVuSans;writing-mode:lr-tb;fill:#000000;fill-opacity:1;fill-rule:nonzero;stroke:none;stroke-width:0.766838"
       id="text198"
       x="38.51107"
       y="204.42078"><tspan
         x="38.51107 43.388165 45.826706"
         y="204.42078"
         sodipodi:role="line"
         id="tspan196"
         style="stroke-width:0.766838">0.2</tspan></text><text
       style="font-variant:normal;font-weight:normal;font-size:7.66838px;font-family:'DejaVu Sans';-inkscape-font-specification:DejaVuSans;writing-mode:lr-tb;fill:#000000;fill-opacity:1;fill-rule:nonzero;stroke:none;stroke-width:0.766838"
       id="text216"
       x="38.51107"
       y="163.6078"><tspan
         x="38.51107 43.388165 45.826706"
         y="163.6078"
         sodipodi:role="line"
         id="tspan214"
         style="stroke-width:0.766838">0.4</tspan></text><text
       style="font-variant:normal;font-weight:normal;font-size:7.66838px;font-family:'DejaVu Sans';-inkscape-font-specification:DejaVuSans;writing-mode:lr-tb;fill:#000000;fill-opacity:1;fill-rule:nonzero;stroke:none;stroke-width:0.766838"
       id="text234"
       x="38.51107"
       y="122.79498"><tspan
         x="38.51107 43.388165 45.826706"
         y="122.79498"
         sodipodi:role="line"
         id="tspan232"
         style="stroke-width:0.766838">0.6</tspan></text><text
       style="font-variant:normal;font-weight:normal;font-size:7.66838px;font-family:'DejaVu Sans';-inkscape-font-specification:DejaVuSans;writing-mode:lr-tb;fill:#000000;fill-opacity:1;fill-rule:nonzero;stroke:none;stroke-width:0.766838"
       id="text252"
       x="38.51107"
       y="81.981987"><tspan
         x="38.51107 43.388165 45.826706"
         y="81.981987"
         sodipodi:role="line"
         id="tspan250"
         style="stroke-width:0.766838">0.8</tspan></text><text
       style="font-variant:normal;font-weight:normal;font-size:7.66838px;font-family:'DejaVu Sans';-inkscape-font-specification:DejaVuSans;writing-mode:lr-tb;fill:#000000;fill-opacity:1;fill-rule:nonzero;stroke:none;stroke-width:0.766838"
       id="text270"
       x="38.51107"
       y="41.168945"><tspan
         x="38.51107 43.388165 45.826706"
         y="41.168945"
         sodipodi:role="line"
         id="tspan268"
         style="stroke-width:0.766838">1.0</tspan></text><text
       transform="rotate(-90)"
       style="font-variant:normal;font-weight:normal;font-size:7.66838px;font-family:'DejaVu Sans';-inkscape-font-specification:DejaVuSans;writing-mode:lr-tb;fill:#000000;fill-opacity:1;fill-rule:nonzero;stroke:none;stroke-width:0.766838"
       id="text274"
       x="-177.3376"
       y="33.850132"><tspan
         x="-177.3376 -172.71355 -167.9975 -163.29678 -160.14508 -156.14986 -151.45679 -146.59505 -144.15651 -139.93889 -135.24583 -132.09413 -128.94243 -124.22654 -122.09473 -117.39399 -114.38799 -112.25618 -107.56313"
         y="33.850132"
         sodipodi:role="line"
         id="tspan272"
         style="stroke-width:0.766838">Pearson correlation</tspan></text><text
       style="font-variant:normal;font-weight:normal;font-size:9.20206px;font-family:'DejaVu Sans';-inkscape-font-specification:DejaVuSans;writing-mode:lr-tb;fill:#000000;fill-opacity:1;fill-rule:nonzero;stroke:none;stroke-width:0.766838"
       id="text348"
       x="98.304565"
       y="23.342377"><tspan
         x="98.304565 103.85341 109.51268 115.15356 118.93559 123.72985 129.36153 135.19563 138.12187 143.18301 148.81468 152.59673 156.37875 162.03804 164.59622 170.23708 173.84427 176.40245 182.03412 187.86821 190.79448 196.2421 201.03636 203.96262 206.88887 212.73219 218.39146 224.22554 229.85722 238.82001 241.37819 246.43933 249.36559 255.20889 257.76706 262.56131 266.16855 271.80939 277.64349 282.70462"
         y="23.342377"
         sodipodi:role="line"
         id="tspan346"
         style="stroke-width:0.766838">Pearson correlation vs. genomic distance</tspan></text><text
       style="font-variant:normal;font-weight:normal;font-size:9.20206px;font-family:'DejaVu Sans';-inkscape-font-specification:DejaVuSans;writing-mode:lr-tb;fill:#000000;fill-opacity:1;fill-rule:nonzero;stroke:none;stroke-width:0.766838"
       id="text352"
       x="63.979256"
       y="33.656326"><tspan
         x="63.979256 71.110855 79.052231 84.904739 90.757248 96.609764 102.46227 108.31477 111.24104 114.16728 120.0198 122.94606 128.79855 131.72484 137.57733 140.50359 146.35609 149.28235 155.13487 158.06113 163.91364 169.76613 172.6924 178.54489 184.3974 187.32367 193.17618 199.02869 201.95494 207.80745 213.65997 216.58623 222.43872 228.29124 231.2175 237.07002 242.92252 245.84877 251.70128 257.5538 260.48004 266.33255 272.18506 275.11133 280.74298 286.57709 289.50336 295.53989 301.3924 307.2449 313.09744 316.02368 318.94995"
         y="33.656326"
         sodipodi:role="line"
         id="tspan350"
         style="stroke-width:0.766838">GM12878, 1,2,4,7,9,11,13,14,16,17,18,20,22 on K562, 5</tspan></text><text
       style="font-variant:normal;font-weight:normal;font-size:7.66836px;font-family:'DejaVu Sans';-inkscape-font-specification:DejaVuSans;writing-mode:lr-tb;fill:#000000;fill-opacity:1;fill-rule:nonzero;stroke:none;stroke-width:0.766836"
       id="text358"
       x="128.00485"
       y="176.18845"><tspan
         x="128.00485 132.88194 137.75902 140.19757 144.91362 149.78305 152.22159 154.80583 157.2444 162.48967 168.10292 173.45544 176.03967 178.47824 183.35532 185.79385 190.67097 195.54805"
         y="176.18845"
         sodipodi:role="line"
         id="tspan356"
         style="stroke-width:0.766836">10 ep / AUC: 0.507</tspan></text><text
       style="font-variant:normal;font-weight:normal;font-size:7.66836px;font-family:'DejaVu Sans';-inkscape-font-specification:DejaVuSans;writing-mode:lr-tb;fill:#000000;fill-opacity:1;fill-rule:nonzero;stroke:none;stroke-width:0.766836"
       id="text364"
       x="128.00485"
       y="187.43941"><tspan
         x="128.00485 132.88194 137.75902 140.19757 144.91362 149.78305 152.22159 154.80583 157.2444 162.48967 168.10292 173.45544 176.03967 178.47824 183.35532 185.79385 190.67097 195.54805"
         y="187.43941"
         sodipodi:role="line"
         id="tspan362"
         style="stroke-width:0.766836">20 ep / AUC: 0.526</tspan></text><text
       style="font-variant:normal;font-weight:normal;font-size:7.66836px;font-family:'DejaVu Sans';-inkscape-font-specification:DejaVuSans;writing-mode:lr-tb;fill:#000000;fill-opacity:1;fill-rule:nonzero;stroke:none;stroke-width:0.766836"
       id="text370"
       x="128.00485"
       y="198.69035"><tspan
         x="128.00485 132.88194 137.75902 140.19757 144.91362 149.78305 152.22159 154.80583 157.2444 162.48967 168.10292 173.45544 176.03967 178.47824 183.35532 185.79385 190.67097 195.54805"
         y="198.69035"
         sodipodi:role="line"
         id="tspan368"
         style="stroke-width:0.766836">40 ep / AUC: 0.523</tspan></text><text
       style="font-variant:normal;font-weight:normal;font-size:7.66836px;font-family:'DejaVu Sans';-inkscape-font-specification:DejaVuSans;writing-mode:lr-tb;fill:#000000;fill-opacity:1;fill-rule:nonzero;stroke:none;stroke-width:0.766836"
       id="text376"
       x="128.00485"
       y="209.94131"><tspan
         x="128.00485 132.88194 137.75902 140.19757 144.91362 149.78305 152.22159 154.80583 157.2444 162.48967 168.10292 173.45544 176.03967 178.47824 183.35532 185.79385 190.67097 195.54805"
         y="209.94131"
         sodipodi:role="line"
         id="tspan374"
         style="stroke-width:0.766836">60 ep / AUC: 0.527</tspan></text><text
       style="font-variant:normal;font-weight:normal;font-size:7.66836px;font-family:'DejaVu Sans';-inkscape-font-specification:DejaVuSans;writing-mode:lr-tb;fill:#000000;fill-opacity:1;fill-rule:nonzero;stroke:none;stroke-width:0.766836"
       id="text382"
       x="128.00485"
       y="221.19226"><tspan
         x="128.00485 132.88194 137.75902 140.19757 144.91362 149.78305 152.22159 154.80583 157.2444 162.48967 168.10292 173.45544 176.03967 178.47824 183.35532 185.79385 190.67097 195.54805"
         y="221.19226"
         sodipodi:role="line"
         id="tspan380"
         style="stroke-width:0.766836">80 ep / AUC: 0.528</tspan></text><text
       style="font-variant:normal;font-weight:normal;font-size:7.66836px;font-family:'DejaVu Sans';-inkscape-font-specification:DejaVuSans;writing-mode:lr-tb;fill:#000000;fill-opacity:1;fill-rule:nonzero;stroke:none;stroke-width:0.766836"
       id="text388"
       x="128.00485"
       y="232.44322"><tspan
         x="128.00485 131.01085 134.16255 138.86327 143.72502 147.72025 150.41951 155.13559 158.28731 160.72591 166.66891 173.28674 178.16383 183.04092 187.91801 192.79509 197.67221 200.11075 202.69499 205.13353 210.37869 215.99196 221.3445 223.92874 226.36729 231.24438 233.68294 238.56001 243.4371"
         y="232.44322"
         sodipodi:role="line"
         id="tspan386"
         style="stroke-width:0.766836">transfer GM12878 / AUC: 0.745</tspan></text></g></svg>
