<?xml version="1.0" encoding="UTF-8" standalone="no"?>
<svg
   xmlns:dc="http://purl.org/dc/elements/1.1/"
   xmlns:cc="http://creativecommons.org/ns#"
   xmlns:rdf="http://www.w3.org/1999/02/22-rdf-syntax-ns#"
   xmlns:svg="http://www.w3.org/2000/svg"
   xmlns="http://www.w3.org/2000/svg"
   xmlns:sodipodi="http://sodipodi.sourceforge.net/DTD/sodipodi-0.dtd"
   xmlns:inkscape="http://www.inkscape.org/namespaces/inkscape"
   version="1.1"
   id="svg2"
   xml:space="preserve"
   width="80mm"
   height="65.300003mm"
   viewBox="0 0 302.36219 246.80316"
   sodipodi:docname="pearson_chr10.svg"
   inkscape:version="1.0.2 (1.0.2+r75+1)"><metadata
     id="metadata8"><rdf:RDF><cc:Work
         rdf:about=""><dc:format>image/svg+xml</dc:format><dc:type
           rdf:resource="http://purl.org/dc/dcmitype/StillImage" /><dc:title></dc:title></cc:Work></rdf:RDF></metadata><defs
     id="defs6"><clipPath
       clipPathUnits="userSpaceOnUse"
       id="clipPath22"><path
         d="M 57.6,38.016 H 414.72 V 304.128 H 57.6 Z"
         id="path20" /></clipPath><clipPath
       clipPathUnits="userSpaceOnUse"
       id="clipPath40"><path
         d="M 57.6,38.016 H 414.72 V 304.128 H 57.6 Z"
         id="path38" /></clipPath><clipPath
       clipPathUnits="userSpaceOnUse"
       id="clipPath58"><path
         d="M 57.6,38.016 H 414.72 V 304.128 H 57.6 Z"
         id="path56" /></clipPath><clipPath
       clipPathUnits="userSpaceOnUse"
       id="clipPath76"><path
         d="M 57.6,38.016 H 414.72 V 304.128 H 57.6 Z"
         id="path74" /></clipPath><clipPath
       clipPathUnits="userSpaceOnUse"
       id="clipPath94"><path
         d="M 57.6,38.016 H 414.72 V 304.128 H 57.6 Z"
         id="path92" /></clipPath><clipPath
       clipPathUnits="userSpaceOnUse"
       id="clipPath112"><path
         d="M 57.6,38.016 H 414.72 V 304.128 H 57.6 Z"
         id="path110" /></clipPath><clipPath
       clipPathUnits="userSpaceOnUse"
       id="clipPath130"><path
         d="M 57.6,38.016 H 414.72 V 304.128 H 57.6 Z"
         id="path128" /></clipPath><clipPath
       clipPathUnits="userSpaceOnUse"
       id="clipPath148"><path
         d="M 57.6,38.016 H 414.72 V 304.128 H 57.6 Z"
         id="path146" /></clipPath><clipPath
       clipPathUnits="userSpaceOnUse"
       id="clipPath170"><path
         d="M 57.6,38.016 H 414.72 V 304.128 H 57.6 Z"
         id="path168" /></clipPath><clipPath
       clipPathUnits="userSpaceOnUse"
       id="clipPath188"><path
         d="M 57.6,38.016 H 414.72 V 304.128 H 57.6 Z"
         id="path186" /></clipPath><clipPath
       clipPathUnits="userSpaceOnUse"
       id="clipPath206"><path
         d="M 57.6,38.016 H 414.72 V 304.128 H 57.6 Z"
         id="path204" /></clipPath><clipPath
       clipPathUnits="userSpaceOnUse"
       id="clipPath224"><path
         d="M 57.6,38.016 H 414.72 V 304.128 H 57.6 Z"
         id="path222" /></clipPath><clipPath
       clipPathUnits="userSpaceOnUse"
       id="clipPath242"><path
         d="M 57.6,38.016 H 414.72 V 304.128 H 57.6 Z"
         id="path240" /></clipPath><clipPath
       clipPathUnits="userSpaceOnUse"
       id="clipPath260"><path
         d="M 57.6,38.016 H 414.72 V 304.128 H 57.6 Z"
         id="path258" /></clipPath><clipPath
       clipPathUnits="userSpaceOnUse"
       id="clipPath282"><path
         d="M 57.6,38.016 H 414.72 V 304.128 H 57.6 Z"
         id="path280" /></clipPath><clipPath
       clipPathUnits="userSpaceOnUse"
       id="clipPath292"><path
         d="M 57.6,38.016 H 414.72 V 304.128 H 57.6 Z"
         id="path290" /></clipPath><clipPath
       clipPathUnits="userSpaceOnUse"
       id="clipPath302"><path
         d="M 57.6,38.016 H 414.72 V 304.128 H 57.6 Z"
         id="path300" /></clipPath><clipPath
       clipPathUnits="userSpaceOnUse"
       id="clipPath312"><path
         d="M 57.6,38.016 H 414.72 V 304.128 H 57.6 Z"
         id="path310" /></clipPath><clipPath
       clipPathUnits="userSpaceOnUse"
       id="clipPath322"><path
         d="M 57.6,38.016 H 414.72 V 304.128 H 57.6 Z"
         id="path320" /></clipPath><clipPath
       clipPathUnits="userSpaceOnUse"
       id="clipPath332"><path
         d="M 57.6,38.016 H 414.72 V 304.128 H 57.6 Z"
         id="path330" /></clipPath></defs><sodipodi:namedview
     pagecolor="#ffffff"
     bordercolor="#666666"
     borderopacity="1"
     objecttolerance="10"
     gridtolerance="10"
     guidetolerance="10"
     inkscape:pageopacity="0"
     inkscape:pageshadow="2"
     inkscape:window-width="1920"
     inkscape:window-height="1020"
     id="namedview4"
     showgrid="false"
     fit-margin-top="0"
     fit-margin-left="0"
     fit-margin-right="0"
     fit-margin-bottom="0"
     units="mm"
     inkscape:zoom="2.6301672"
     inkscape:cx="143.86136"
     inkscape:cy="148.38816"
     inkscape:window-x="0"
     inkscape:window-y="0"
     inkscape:window-maximized="1"
     inkscape:current-layer="layer1" /><g
     id="g10"
     inkscape:groupmode="layer"
     inkscape:label="pearson_chr10"
     transform="matrix(1.3333333,0,0,-1.3333333,-28.023958,443.59357)"><path
       d="m 79.942107,173.21615 h 11.50718"
       style="fill:none;stroke:#d62728;stroke-width:0.863039;stroke-linecap:square;stroke-linejoin:round;stroke-miterlimit:10;stroke-dasharray:none;stroke-opacity:1"
       id="path384" /><g
       id="g16"
       transform="matrix(0.57535885,0,0,0.57535885,8.9250947,141.98887)"><g
         id="g18"
         clip-path="url(#clipPath22)"><path
           d="M 57.6,38.016 V 304.128"
           style="fill:none;stroke:#b0b0b0;stroke-width:0.8;stroke-linecap:square;stroke-linejoin:round;stroke-miterlimit:10;stroke-dasharray:none;stroke-opacity:1"
           id="path24" /></g></g><path
       d="m 42.065765,163.86171 v -2.01375"
       style="fill:#000000;fill-opacity:1;fill-rule:nonzero;stroke:#000000;stroke-width:0.460287;stroke-linecap:butt;stroke-linejoin:round;stroke-miterlimit:10;stroke-dasharray:none;stroke-opacity:1"
       id="path28" /><g
       id="g34"
       transform="matrix(0.57535885,0,0,0.57535885,8.9250947,141.98887)"><g
         id="g36"
         clip-path="url(#clipPath40)"><path
           d="M 102.94857,38.016 V 304.128"
           style="fill:none;stroke:#b0b0b0;stroke-width:0.8;stroke-linecap:square;stroke-linejoin:round;stroke-miterlimit:10;stroke-dasharray:none;stroke-opacity:1"
           id="path42" /></g></g><path
       d="m 68.157465,163.86171 v -2.01375"
       style="fill:#000000;fill-opacity:1;fill-rule:nonzero;stroke:#000000;stroke-width:0.460287;stroke-linecap:butt;stroke-linejoin:round;stroke-miterlimit:10;stroke-dasharray:none;stroke-opacity:1"
       id="path46" /><g
       id="g52"
       transform="matrix(0.57535885,0,0,0.57535885,8.9250947,141.98887)"><g
         id="g54"
         clip-path="url(#clipPath58)"><path
           d="M 148.29714,38.016 V 304.128"
           style="fill:none;stroke:#b0b0b0;stroke-width:0.8;stroke-linecap:square;stroke-linejoin:round;stroke-miterlimit:10;stroke-dasharray:none;stroke-opacity:1"
           id="path60" /></g></g><path
       d="m 94.249165,163.86171 v -2.01375"
       style="fill:#000000;fill-opacity:1;fill-rule:nonzero;stroke:#000000;stroke-width:0.460287;stroke-linecap:butt;stroke-linejoin:round;stroke-miterlimit:10;stroke-dasharray:none;stroke-opacity:1"
       id="path64" /><g
       id="g70"
       transform="matrix(0.57535885,0,0,0.57535885,8.9250947,141.98887)"><g
         id="g72"
         clip-path="url(#clipPath76)"><path
           d="M 193.64571,38.016 V 304.128"
           style="fill:none;stroke:#b0b0b0;stroke-width:0.8;stroke-linecap:square;stroke-linejoin:round;stroke-miterlimit:10;stroke-dasharray:none;stroke-opacity:1"
           id="path78" /></g></g><path
       d="m 120.34086,163.86171 v -2.01375"
       style="fill:#000000;fill-opacity:1;fill-rule:nonzero;stroke:#000000;stroke-width:0.460287;stroke-linecap:butt;stroke-linejoin:round;stroke-miterlimit:10;stroke-dasharray:none;stroke-opacity:1"
       id="path82" /><g
       id="g88"
       transform="matrix(0.57535885,0,0,0.57535885,8.9250947,141.98887)"><g
         id="g90"
         clip-path="url(#clipPath94)"><path
           d="M 238.99429,38.016 V 304.128"
           style="fill:none;stroke:#b0b0b0;stroke-width:0.8;stroke-linecap:square;stroke-linejoin:round;stroke-miterlimit:10;stroke-dasharray:none;stroke-opacity:1"
           id="path96" /></g></g><path
       d="m 146.43257,163.86171 v -2.01375"
       style="fill:#000000;fill-opacity:1;fill-rule:nonzero;stroke:#000000;stroke-width:0.460287;stroke-linecap:butt;stroke-linejoin:round;stroke-miterlimit:10;stroke-dasharray:none;stroke-opacity:1"
       id="path100" /><g
       id="g106"
       transform="matrix(0.57535885,0,0,0.57535885,8.9250947,141.98887)"><g
         id="g108"
         clip-path="url(#clipPath112)"><path
           d="M 284.34286,38.016 V 304.128"
           style="fill:none;stroke:#b0b0b0;stroke-width:0.8;stroke-linecap:square;stroke-linejoin:round;stroke-miterlimit:10;stroke-dasharray:none;stroke-opacity:1"
           id="path114" /></g></g><path
       d="m 172.52428,163.86171 v -2.01375"
       style="fill:#000000;fill-opacity:1;fill-rule:nonzero;stroke:#000000;stroke-width:0.460287;stroke-linecap:butt;stroke-linejoin:round;stroke-miterlimit:10;stroke-dasharray:none;stroke-opacity:1"
       id="path118" /><g
       id="g124"
       transform="matrix(0.57535885,0,0,0.57535885,8.9250947,141.98887)"><g
         id="g126"
         clip-path="url(#clipPath130)"><path
           d="M 329.69143,38.016 V 304.128"
           style="fill:none;stroke:#b0b0b0;stroke-width:0.8;stroke-linecap:square;stroke-linejoin:round;stroke-miterlimit:10;stroke-dasharray:none;stroke-opacity:1"
           id="path132" /></g></g><path
       d="m 198.61597,163.86171 v -2.01375"
       style="fill:#000000;fill-opacity:1;fill-rule:nonzero;stroke:#000000;stroke-width:0.460287;stroke-linecap:butt;stroke-linejoin:round;stroke-miterlimit:10;stroke-dasharray:none;stroke-opacity:1"
       id="path136" /><g
       id="g142"
       transform="matrix(0.57535885,0,0,0.57535885,8.9250947,141.98887)"><g
         id="g144"
         clip-path="url(#clipPath148)"><path
           d="M 375.04,38.016 V 304.128"
           style="fill:none;stroke:#b0b0b0;stroke-width:0.8;stroke-linecap:square;stroke-linejoin:round;stroke-miterlimit:10;stroke-dasharray:none;stroke-opacity:1"
           id="path150" /></g></g><path
       d="m 224.70767,163.86171 v -2.01375"
       style="fill:#000000;fill-opacity:1;fill-rule:nonzero;stroke:#000000;stroke-width:0.460287;stroke-linecap:butt;stroke-linejoin:round;stroke-miterlimit:10;stroke-dasharray:none;stroke-opacity:1"
       id="path154" /><g
       id="g164"
       transform="matrix(0.57535885,0,0,0.57535885,8.9250947,141.98887)"><g
         id="g166"
         clip-path="url(#clipPath170)"><path
           d="M 57.6,38.016 H 414.72"
           style="fill:none;stroke:#b0b0b0;stroke-width:0.8;stroke-linecap:square;stroke-linejoin:round;stroke-miterlimit:10;stroke-dasharray:none;stroke-opacity:1"
           id="path172" /></g></g><path
       d="M 42.065765,163.86171 H 40.052008"
       style="fill:#000000;fill-opacity:1;fill-rule:nonzero;stroke:#000000;stroke-width:0.460287;stroke-linecap:butt;stroke-linejoin:round;stroke-miterlimit:10;stroke-dasharray:none;stroke-opacity:1"
       id="path176" /><g
       id="g182"
       transform="matrix(0.57535885,0,0,0.57535885,8.9250947,141.98887)"><g
         id="g184"
         clip-path="url(#clipPath188)"><path
           d="M 57.6,91.2384 H 414.72"
           style="fill:none;stroke:#b0b0b0;stroke-width:0.8;stroke-linecap:square;stroke-linejoin:round;stroke-miterlimit:10;stroke-dasharray:none;stroke-opacity:1"
           id="path190" /></g></g><path
       d="M 42.065765,194.48369 H 40.052008"
       style="fill:#000000;fill-opacity:1;fill-rule:nonzero;stroke:#000000;stroke-width:0.460287;stroke-linecap:butt;stroke-linejoin:round;stroke-miterlimit:10;stroke-dasharray:none;stroke-opacity:1"
       id="path194" /><g
       id="g200"
       transform="matrix(0.57535885,0,0,0.57535885,8.9250947,141.98887)"><g
         id="g202"
         clip-path="url(#clipPath206)"><path
           d="M 57.6,144.4608 H 414.72"
           style="fill:none;stroke:#b0b0b0;stroke-width:0.8;stroke-linecap:square;stroke-linejoin:round;stroke-miterlimit:10;stroke-dasharray:none;stroke-opacity:1"
           id="path208" /></g></g><path
       d="M 42.065765,225.10567 H 40.052008"
       style="fill:#000000;fill-opacity:1;fill-rule:nonzero;stroke:#000000;stroke-width:0.460287;stroke-linecap:butt;stroke-linejoin:round;stroke-miterlimit:10;stroke-dasharray:none;stroke-opacity:1"
       id="path212" /><g
       id="g218"
       transform="matrix(0.57535885,0,0,0.57535885,8.9250947,141.98887)"><g
         id="g220"
         clip-path="url(#clipPath224)"><path
           d="M 57.6,197.6832 H 414.72"
           style="fill:none;stroke:#b0b0b0;stroke-width:0.8;stroke-linecap:square;stroke-linejoin:round;stroke-miterlimit:10;stroke-dasharray:none;stroke-opacity:1"
           id="path226" /></g></g><path
       d="M 42.065765,255.72765 H 40.052008"
       style="fill:#000000;fill-opacity:1;fill-rule:nonzero;stroke:#000000;stroke-width:0.460287;stroke-linecap:butt;stroke-linejoin:round;stroke-miterlimit:10;stroke-dasharray:none;stroke-opacity:1"
       id="path230" /><g
       id="g236"
       transform="matrix(0.57535885,0,0,0.57535885,8.9250947,141.98887)"><g
         id="g238"
         clip-path="url(#clipPath242)"><path
           d="M 57.6,250.9056 H 414.72"
           style="fill:none;stroke:#b0b0b0;stroke-width:0.8;stroke-linecap:square;stroke-linejoin:round;stroke-miterlimit:10;stroke-dasharray:none;stroke-opacity:1"
           id="path244" /></g></g><path
       d="M 42.065765,286.34963 H 40.052008"
       style="fill:#000000;fill-opacity:1;fill-rule:nonzero;stroke:#000000;stroke-width:0.460287;stroke-linecap:butt;stroke-linejoin:round;stroke-miterlimit:10;stroke-dasharray:none;stroke-opacity:1"
       id="path248" /><g
       id="g254"
       transform="matrix(0.57535885,0,0,0.57535885,8.9250947,141.98887)"><g
         id="g256"
         clip-path="url(#clipPath260)"><path
           d="M 57.6,304.128 H 414.72"
           style="fill:none;stroke:#b0b0b0;stroke-width:0.8;stroke-linecap:square;stroke-linejoin:round;stroke-miterlimit:10;stroke-dasharray:none;stroke-opacity:1"
           id="path262" /></g></g><path
       d="M 42.065765,316.97161 H 40.052008"
       style="fill:#000000;fill-opacity:1;fill-rule:nonzero;stroke:#000000;stroke-width:0.460287;stroke-linecap:butt;stroke-linejoin:round;stroke-miterlimit:10;stroke-dasharray:none;stroke-opacity:1"
       id="path266" /><g
       id="g278"
       clip-path="url(#clipPath282)"
       transform="matrix(0.57535885,0,0,0.57535885,8.9250947,141.98887)"><path
         d="m 57.6,265.22119 5.668571,0.1297 5.668572,-10.89275 5.668571,-6.63624 5.668572,-5.22414 5.668571,-6.82458 5.668572,-5.72781 5.668571,-6.00937 5.66857,-9.0817 5.66857,1.5031 5.66857,-13.99901 5.66858,-1.50008 5.66857,-0.003 5.66857,-6.71062 5.66857,-1.00531 5.66857,1.71668 5.66857,-1.13933 5.66857,2.29083 5.66858,-1.85708 5.66857,-2.67211 5.66857,-2.68661 5.66857,-0.98113 5.66857,-4.94248 5.66857,-4.26408 5.66857,1.25637 5.66858,-1.91421 5.66857,-3.77312 5.66857,1.00297 5.66857,-2.92677 5.66857,2.68471 5.66857,-0.67112 5.66857,1.44294 5.66858,-0.34743 5.66857,-0.33079 5.66857,3.89692 5.66857,-0.17968 5.66857,5.30437 5.66857,-1.567 5.66857,-2.04833 5.66858,-3.49124 5.66857,1.39536 5.66857,4.55384 5.66857,-4.52679 5.66857,2.95379 5.66857,1.83159 5.66857,-0.42937 5.66858,-2.45947 5.66857,-0.77986 5.66857,-5.20673 5.66857,-0.13798 5.66857,-1.30371 5.66857,0.60444 5.66857,-4.29573 5.66858,-3.69333 5.66857,-2.28596 5.66857,-5.44952 5.66857,-4.64886 5.66857,-2.72463 5.66857,2.31787 5.66857,-2.4942 5.66858,-1.22326 5.66857,-8.81202 5.66857,-0.66666 5.66857,-7.1942"
         style="fill:none;stroke:#1f77b4;stroke-width:1.5;stroke-linecap:square;stroke-linejoin:round;stroke-miterlimit:10;stroke-dasharray:none;stroke-opacity:1"
         id="path284" /></g><g
       id="g288"
       clip-path="url(#clipPath292)"
       transform="matrix(0.57535885,0,0,0.57535885,8.9250947,141.98887)"><path
         d="m 57.6,267.69536 5.668571,1.23304 5.668572,-9.53973 5.668571,-8.47016 5.668572,-7.34254 5.668571,-7.69518 5.668572,-6.37113 5.668571,-5.61404 5.66857,-7.24287 5.66857,0.089 5.66857,-7.25026 5.66858,-8.99055 5.66857,0.99474 5.66857,-9.02715 5.66857,0.87957 5.66857,-1.59506 5.66857,-2.02195 5.66857,2.30917 5.66858,0.57908 5.66857,-5.23549 5.66857,0.27687 5.66857,-2.67067 5.66857,-2.71761 5.66857,-4.06439 5.66857,3.30996 5.66858,-3.49557 5.66857,-2.80796 5.66857,0.41021 5.66857,-1.88273 5.66857,-0.43163 5.66857,-0.55816 5.66857,0.085 5.66858,-1.1324 5.66857,1.20609 5.66857,5.31954 5.66857,1.48884 5.66857,5.99781 5.66857,-1.50997 5.66857,-0.67922 5.66858,-4.45821 5.66857,3.2866 5.66857,1.27706 5.66857,-3.6899 5.66857,1.94172 5.66857,2.91655 5.66857,-3.58315 5.66858,-1.94516 5.66857,-3.58706 5.66857,-6.43733 5.66857,-1.82285 5.66857,-2.31046 5.66857,-1.60562 5.66857,-6.06578 5.66858,-4.83922 5.66857,0.99518 5.66857,-5.96791 5.66857,-3.01335 5.66857,-1.20034 5.66857,0.35483 5.66857,0.37321 5.66858,0.68076 5.66857,-5.05569 5.66857,-4.52377 5.66857,-9.41686"
         style="fill:none;stroke:#ff7f0e;stroke-width:1.5;stroke-linecap:square;stroke-linejoin:round;stroke-miterlimit:10;stroke-dasharray:none;stroke-opacity:1"
         id="path294" /></g><g
       id="g298"
       clip-path="url(#clipPath302)"
       transform="matrix(0.57535885,0,0,0.57535885,8.9250947,141.98887)"><path
         d="m 57.6,267.28517 5.668571,1.34512 5.668572,-8.63073 5.668571,-9.20959 5.668572,-5.49603 5.668571,-9.02819 5.668572,-5.39506 5.668571,-6.42436 5.66857,-5.99481 5.66857,-0.9692 5.66857,-7.22143 5.66858,-3.99324 5.66857,-2.33044 5.66857,-9.77645 5.66857,-1.50887 5.66857,-2.88182 5.66857,-1.01323 5.66857,1.63886 5.66858,0.47204 5.66857,-6.00294 5.66857,-2.08905 5.66857,-2.15764 5.66857,-2.89173 5.66857,-4.81357 5.66857,2.89526 5.66858,-3.4823 5.66857,-4.06937 5.66857,-2.46083 5.66857,-4.34395 5.66857,-0.8039 5.66857,0.38683 5.66857,-0.48705 5.66858,1.04292 5.66857,-1.09385 5.66857,5.93632 5.66857,0.34889 5.66857,6.71167 5.66857,-2.39507 5.66857,2.62203 5.66858,-7.58469 5.66857,5.39531 5.66857,1.33916 5.66857,-1.36809 5.66857,0.8623 5.66857,4.5152 5.66857,-5.73913 5.66858,0.63837 5.66857,-7.96443 5.66857,-6.36227 5.66857,2.06206 5.66857,5.14445 5.66857,-3.69824 5.66857,-3.20374 5.66858,-4.95186 5.66857,1.95179 5.66857,-7.42686 5.66857,-4.78676 5.66857,-5.23249 5.66857,3.0711 5.66857,-2.02816 5.66858,-2.93548 5.66857,-2.36711 5.66857,-3.048 5.66857,-19.07527"
         style="fill:none;stroke:#2ca02c;stroke-width:1.5;stroke-linecap:square;stroke-linejoin:round;stroke-miterlimit:10;stroke-dasharray:none;stroke-opacity:1"
         id="path304" /></g><g
       id="g308"
       clip-path="url(#clipPath312)"
       style="stroke:#8c564b;stroke-opacity:1"
       transform="matrix(0.57535885,0,0,0.57535885,8.9250947,141.98887)"><path
         d="m 57.6,266.97303 5.668571,0.98289 5.668572,-8.69243 5.668571,-8.8658 5.668572,-6.11444 5.668571,-8.13685 5.668572,-5.34626 5.668571,-6.86528 5.66857,-6.31967 5.66857,-1.27422 5.66857,-6.31105 5.66858,-5.01984 5.66857,-3.05478 5.66857,-9.07164 5.66857,-2.55731 5.66857,-2.54182 5.66857,-2.51396 5.66857,2.91242 5.66858,0.97304 5.66857,-5.30999 5.66857,-2.74562 5.66857,-0.83904 5.66857,-2.82971 5.66857,-4.0456 5.66857,3.75708 5.66858,-5.26524 5.66857,-4.4731 5.66857,-3.44608 5.66857,-2.89892 5.66857,-1.40394 5.66857,0.54553 5.66857,-0.46349 5.66858,-1.44353 5.66857,-1.11663 5.66857,5.5153 5.66857,1.39359 5.66857,5.78289 5.66857,-0.95541 5.66857,3.12419 5.66858,-6.4353 5.66857,5.5781 5.66857,-0.0627 5.66857,-0.93576 5.66857,0.16452 5.66857,4.63436 5.66857,-2.28272 5.66858,0.30133 5.66857,-4.72542 5.66857,-4.93674 5.66857,4.36934 5.66857,2.71072 5.66857,-2.23989 5.66857,-2.24368 5.66858,-2.75526 5.66857,-0.58471 5.66857,-5.1685 5.66857,-8.58074 5.66857,-4.50439 5.66857,3.08304 5.66857,-6.40594 5.66858,0.42187 5.66857,-1.83397 5.66857,-7.03942 5.66857,-23.71224"
         style="fill:none;stroke:#8c564b;stroke-width:1.5;stroke-linecap:square;stroke-linejoin:round;stroke-miterlimit:10;stroke-dasharray:none;stroke-opacity:1"
         id="path314" /></g><g
       id="g318"
       clip-path="url(#clipPath322)"
       transform="matrix(0.57535885,0,0,0.57535885,8.9250947,141.98887)"><path
         d="m 57.6,266.81149 5.668571,0.9913 5.668572,-8.56861 5.668571,-9.07267 5.668572,-6.21319 5.668571,-7.76872 5.668572,-5.49662 5.668571,-6.40781 5.66857,-6.15509 5.66857,-0.1983 5.66857,-5.47433 5.66858,-4.6246 5.66857,-2.85237 5.66857,-9.4633 5.66857,-2.77426 5.66857,-2.99671 5.66857,-1.34469 5.66857,2.39288 5.66858,0.95472 5.66857,-5.43171 5.66857,-2.48057 5.66857,-1.49921 5.66857,-3.38857 5.66857,-3.44321 5.66857,3.96418 5.66858,-5.18207 5.66857,-2.62354 5.66857,-2.80911 5.66857,-0.46765 5.66857,-1.04366 5.66857,0.36231 5.66857,-0.57262 5.66858,1.9359 5.66857,-4.76885 5.66857,3.13697 5.66857,-1.47257 5.66857,4.80867 5.66857,-2.19047 5.66857,3.59964 5.66858,-7.88385 5.66857,6.16425 5.66857,-1.522 5.66857,0.98324 5.66857,-1.04321 5.66857,5.69569 5.66857,-1.52415 5.66858,2.28284 5.66857,-4.9904 5.66857,-1.46238 5.66857,0.81297 5.66857,2.18182 5.66857,-2.86065 5.66857,-0.41284 5.66858,-5.25823 5.66857,0.14219 5.66857,-9.01453 5.66857,-5.41449 5.66857,-7.78716 5.66857,5.80625 5.66857,-11.6351 5.66858,1.7041 5.66857,-5.43992 5.66857,-2.08357 5.66857,-32.682325"
         style="fill:none;stroke:#9467bd;stroke-width:1.5;stroke-linecap:square;stroke-linejoin:round;stroke-miterlimit:10;stroke-dasharray:none;stroke-opacity:1"
         id="path324" /></g><g
       id="g328"
       clip-path="url(#clipPath332)"
       style="stroke:#d62728;stroke-opacity:1"
       transform="matrix(0.57535885,0,0,0.57535885,8.9250947,141.98887)"><path
         d="m 57.6,248.06087 5.668571,-7.29187 5.668572,-2.64319 5.668571,-1.93013 5.668572,0.54601 5.668571,1.59325 5.668572,-0.82048 5.668571,4.73928 5.66857,1.5332 5.66857,-0.13717 5.66857,-0.0418 5.66858,0.0806 5.66857,-2.90026 5.66857,0.21707 5.66857,-0.3958 5.66857,1.80474 5.66857,-2.15561 5.66857,-1.25425 5.66858,1.11235 5.66857,0.67488 5.66857,-1.59361 5.66857,-2.88676 5.66857,-3.72877 5.66857,-3.70619 5.66857,-0.453 5.66858,-2.45747 5.66857,-0.95794 5.66857,1.2394 5.66857,-1.25637 5.66857,6.93874 5.66857,3.25746 5.66857,-2.18465 5.66858,-0.95258 5.66857,6.25023 5.66857,-2.70001 5.66857,-2.34489 5.66857,-2.58518 5.66857,3.99357 5.66857,0.33421 5.66858,2.02432 5.66857,-4.83246 5.66857,1.02922 5.66857,2.38637 5.66857,-4.87707 5.66857,-1.12189 5.66857,-2.62176 5.66858,2.86751 5.66857,3.78359 5.66857,-0.44397 5.66857,4.76036 5.66857,-3.69919 5.66857,0.85233 5.66857,1.144 5.66858,-2.18453 5.66857,-1.99703 5.66857,3.80299 5.66857,-2.09308 5.66857,-1.42895 5.66857,-1.48115 5.66857,-3.76073 5.66858,-4.27128 5.66857,-0.29657 5.66857,1.01551 5.66857,-3.61633"
         style="fill:none;stroke:#d62728;stroke-width:1.5;stroke-linecap:square;stroke-linejoin:round;stroke-miterlimit:10;stroke-dasharray:none;stroke-opacity:1"
         id="path334" /></g><path
       d="m 42.065765,163.86171 v 153.1099"
       style="fill:none;stroke:#000000;stroke-width:0.460287;stroke-linecap:square;stroke-linejoin:miter;stroke-miterlimit:10;stroke-dasharray:none;stroke-opacity:1"
       id="path338" /><path
       d="m 247.53791,163.86171 v 153.1099"
       style="fill:none;stroke:#000000;stroke-width:0.460287;stroke-linecap:square;stroke-linejoin:miter;stroke-miterlimit:10;stroke-dasharray:none;stroke-opacity:1"
       id="path340" /><path
       d="M 42.065765,163.86171 H 247.53791"
       style="fill:none;stroke:#000000;stroke-width:0.460287;stroke-linecap:square;stroke-linejoin:miter;stroke-miterlimit:10;stroke-dasharray:none;stroke-opacity:1"
       id="path342" /><path
       d="M 42.065765,316.97161 H 247.53791"
       style="fill:none;stroke:#000000;stroke-width:0.460287;stroke-linecap:square;stroke-linejoin:miter;stroke-miterlimit:10;stroke-dasharray:none;stroke-opacity:1"
       id="path344" /><path
       d="m 79.942107,215.42412 h 11.50718"
       style="fill:none;stroke:#1f77b4;stroke-width:0.863039;stroke-linecap:square;stroke-linejoin:round;stroke-miterlimit:10;stroke-dasharray:none;stroke-opacity:1"
       id="path354" /><path
       d="m 79.942107,206.98252 h 11.50718"
       style="fill:none;stroke:#ff7f0e;stroke-width:0.863039;stroke-linecap:square;stroke-linejoin:round;stroke-miterlimit:10;stroke-dasharray:none;stroke-opacity:1"
       id="path360" /><path
       d="m 79.942107,198.54094 h 11.50718"
       style="fill:none;stroke:#2ca02c;stroke-width:0.863039;stroke-linecap:square;stroke-linejoin:round;stroke-miterlimit:10;stroke-dasharray:none;stroke-opacity:1"
       id="path366" /><path
       d="m 79.942107,190.09934 h 11.50718"
       style="fill:none;stroke:#8c564b;stroke-width:0.863039;stroke-linecap:square;stroke-linejoin:round;stroke-miterlimit:10;stroke-dasharray:none;stroke-opacity:1"
       id="path372" /><path
       d="m 79.942107,181.65774 h 11.50718"
       style="fill:none;stroke:#9467bd;stroke-width:0.863039;stroke-linecap:square;stroke-linejoin:round;stroke-miterlimit:10;stroke-dasharray:none;stroke-opacity:1"
       id="path378" /></g><g
     inkscape:groupmode="layer"
     id="layer1"
     inkscape:label="text"
     style="display:inline"><text
       style="font-variant:normal;font-weight:normal;font-size:7.67145px;font-family:'DejaVu Sans';-inkscape-font-specification:DejaVuSans;writing-mode:lr-tb;fill:#000000;fill-opacity:1;fill-rule:nonzero;stroke:none;stroke-width:0.767145"
       id="text388"
       x="100.04566"
       y="215.32362"><tspan
         x="100.04566 103.05287 106.20586 110.90843 115.77215 119.76894 122.46929 127.18726 130.34021 132.77972 138.7251 145.34558 150.22464 155.10367 159.98271 164.86174 169.7408 172.18031 174.76558 177.20512 182.45238 188.06787 193.42256 196.00786 198.44734 203.3264 205.76593 210.64496 215.52403"
         y="215.32362"
         sodipodi:role="line"
         id="tspan386"
         style="stroke-width:0.767145">transfer GM12878 / AUC: 0.738</tspan></text><text
       style="font-variant:normal;font-weight:normal;font-size:7.67145px;font-family:'DejaVu Sans';-inkscape-font-specification:DejaVuSans;writing-mode:lr-tb;fill:#000000;fill-opacity:1;fill-rule:nonzero;stroke:none;stroke-width:0.767145"
       id="text32"
       x="25.962526"
       y="236.30669"><tspan
         x="25.962526 30.841564 33.28109"
         y="236.30669"
         sodipodi:role="line"
         id="tspan30"
         style="stroke-width:0.767145">0.0</tspan></text><text
       transform="matrix(1.3333333,0,0,1.3333333,-28.023958,443.59357)"
       style="font-variant:normal;font-weight:normal;font-size:5.75359px;font-family:'DejaVu Sans';-inkscape-font-specification:DejaVuSans;writing-mode:lr-tb;fill:#000000;fill-opacity:1;fill-rule:nonzero;stroke:none;stroke-width:0.575359"
       id="text50"
       x="63.581566"
       y="-155.46516"><tspan
         x="63.581566 67.240852 69.070496"
         y="-155.46516"
         sodipodi:role="line"
         id="tspan48"
         style="stroke-width:0.575359">0.2</tspan></text><text
       transform="matrix(1.3333333,0,0,1.3333333,-28.023958,443.59357)"
       style="font-variant:normal;font-weight:normal;font-size:5.75359px;font-family:'DejaVu Sans';-inkscape-font-specification:DejaVuSans;writing-mode:lr-tb;fill:#000000;fill-opacity:1;fill-rule:nonzero;stroke:none;stroke-width:0.575359"
       id="text68"
       x="89.673271"
       y="-155.46516"><tspan
         x="89.673271 93.33255 95.162186"
         y="-155.46516"
         sodipodi:role="line"
         id="tspan66"
         style="stroke-width:0.575359">0.4</tspan></text><text
       transform="matrix(1.3333333,0,0,1.3333333,-28.023958,443.59357)"
       style="font-variant:normal;font-weight:normal;font-size:5.75359px;font-family:'DejaVu Sans';-inkscape-font-specification:DejaVuSans;writing-mode:lr-tb;fill:#000000;fill-opacity:1;fill-rule:nonzero;stroke:none;stroke-width:0.575359"
       id="text86"
       x="115.76498"
       y="-155.46516"><tspan
         x="115.76498 119.42425 121.25389"
         y="-155.46516"
         sodipodi:role="line"
         id="tspan84"
         style="stroke-width:0.575359">0.6</tspan></text><text
       transform="matrix(1.3333333,0,0,1.3333333,-28.023958,443.59357)"
       style="font-variant:normal;font-weight:normal;font-size:5.75359px;font-family:'DejaVu Sans';-inkscape-font-specification:DejaVuSans;writing-mode:lr-tb;fill:#000000;fill-opacity:1;fill-rule:nonzero;stroke:none;stroke-width:0.575359"
       id="text104"
       x="141.85667"
       y="-155.46516"><tspan
         x="141.85667 145.51595 147.34558"
         y="-155.46516"
         sodipodi:role="line"
         id="tspan102"
         style="stroke-width:0.575359">0.8</tspan></text><text
       transform="matrix(1.3333333,0,0,1.3333333,-28.023958,443.59357)"
       style="font-variant:normal;font-weight:normal;font-size:5.75359px;font-family:'DejaVu Sans';-inkscape-font-specification:DejaVuSans;writing-mode:lr-tb;fill:#000000;fill-opacity:1;fill-rule:nonzero;stroke:none;stroke-width:0.575359"
       id="text122"
       x="167.94838"
       y="-155.46516"><tspan
         x="167.94838 171.60765 173.43729"
         y="-155.46516"
         sodipodi:role="line"
         id="tspan120"
         style="stroke-width:0.575359">1.0</tspan></text><text
       transform="matrix(1.3333333,0,0,1.3333333,-28.023958,443.59357)"
       style="font-variant:normal;font-weight:normal;font-size:5.75359px;font-family:'DejaVu Sans';-inkscape-font-specification:DejaVuSans;writing-mode:lr-tb;fill:#000000;fill-opacity:1;fill-rule:nonzero;stroke:none;stroke-width:0.575359"
       id="text140"
       x="194.04007"
       y="-155.46516"><tspan
         x="194.04007 197.69936 199.52899"
         y="-155.46516"
         sodipodi:role="line"
         id="tspan138"
         style="stroke-width:0.575359">1.2</tspan></text><text
       transform="matrix(1.3333333,0,0,1.3333333,-28.023958,443.59357)"
       style="font-variant:normal;font-weight:normal;font-size:5.75359px;font-family:'DejaVu Sans';-inkscape-font-specification:DejaVuSans;writing-mode:lr-tb;fill:#000000;fill-opacity:1;fill-rule:nonzero;stroke:none;stroke-width:0.575359"
       id="text158"
       x="220.13177"
       y="-155.46516"><tspan
         x="220.13177 223.79106 225.6207"
         y="-155.46516"
         sodipodi:role="line"
         id="tspan156"
         style="stroke-width:0.575359">1.4</tspan></text><text
       transform="matrix(1.3333333,0,0,1.3333333,-28.023958,443.59357)"
       style="font-variant:normal;font-weight:normal;font-size:5.75359px;font-family:'DejaVu Sans';-inkscape-font-specification:DejaVuSans;writing-mode:lr-tb;fill:#000000;fill-opacity:1;fill-rule:nonzero;stroke:none;stroke-width:0.575359"
       id="text162"
       x="109.97914"
       y="-147.59892"><tspan
         x="109.97914 114.43818 117.97663 121.6244 125.14561 130.74959 132.34909 135.51357 137.3432 140.99673 142.59624 145.59386 147.84926 151.37621 155.02399 158.18848 161.72693 163.55656 165.49551 167.32515 172.29051 175.94405"
         y="-147.59892"
         sodipodi:role="line"
         id="tspan160"
         style="stroke-width:0.575359">Genomic distance / Mbp</tspan></text><text
       transform="matrix(1.3333333,0,0,1.3333333,-28.023958,443.59357)"
       style="font-variant:normal;font-weight:normal;font-size:5.75359px;font-family:'DejaVu Sans';-inkscape-font-specification:DejaVuSans;writing-mode:lr-tb;fill:#000000;fill-opacity:1;fill-rule:nonzero;stroke:none;stroke-width:0.575359"
       id="text180"
       x="28.88645"
       y="-161.67723"><tspan
         x="28.88645 32.545731 34.375374"
         y="-161.67723"
         sodipodi:role="line"
         id="tspan178"
         style="stroke-width:0.575359">0.0</tspan></text><text
       transform="matrix(1.3333333,0,0,1.3333333,-28.023958,443.59357)"
       style="font-variant:normal;font-weight:normal;font-size:5.75359px;font-family:'DejaVu Sans';-inkscape-font-specification:DejaVuSans;writing-mode:lr-tb;fill:#000000;fill-opacity:1;fill-rule:nonzero;stroke:none;stroke-width:0.575359"
       id="text198"
       x="28.88645"
       y="-192.29922"><tspan
         x="28.88645 32.545731 34.375374"
         y="-192.29922"
         sodipodi:role="line"
         id="tspan196"
         style="stroke-width:0.575359">0.2</tspan></text><text
       transform="matrix(1.3333333,0,0,1.3333333,-28.023958,443.59357)"
       style="font-variant:normal;font-weight:normal;font-size:5.75359px;font-family:'DejaVu Sans';-inkscape-font-specification:DejaVuSans;writing-mode:lr-tb;fill:#000000;fill-opacity:1;fill-rule:nonzero;stroke:none;stroke-width:0.575359"
       id="text216"
       x="28.88645"
       y="-222.92119"><tspan
         x="28.88645 32.545731 34.375374"
         y="-222.92119"
         sodipodi:role="line"
         id="tspan214"
         style="stroke-width:0.575359">0.4</tspan></text><text
       transform="matrix(1.3333333,0,0,1.3333333,-28.023958,443.59357)"
       style="font-variant:normal;font-weight:normal;font-size:5.75359px;font-family:'DejaVu Sans';-inkscape-font-specification:DejaVuSans;writing-mode:lr-tb;fill:#000000;fill-opacity:1;fill-rule:nonzero;stroke:none;stroke-width:0.575359"
       id="text234"
       x="28.88645"
       y="-253.54318"><tspan
         x="28.88645 32.545731 34.375374"
         y="-253.54318"
         sodipodi:role="line"
         id="tspan232"
         style="stroke-width:0.575359">0.6</tspan></text><text
       transform="matrix(1.3333333,0,0,1.3333333,-28.023958,443.59357)"
       style="font-variant:normal;font-weight:normal;font-size:5.75359px;font-family:'DejaVu Sans';-inkscape-font-specification:DejaVuSans;writing-mode:lr-tb;fill:#000000;fill-opacity:1;fill-rule:nonzero;stroke:none;stroke-width:0.575359"
       id="text252"
       x="28.88645"
       y="-284.16513"><tspan
         x="28.88645 32.545731 34.375374"
         y="-284.16513"
         sodipodi:role="line"
         id="tspan250"
         style="stroke-width:0.575359">0.8</tspan></text><text
       transform="matrix(1.3333333,0,0,1.3333333,-28.023958,443.59357)"
       style="font-variant:normal;font-weight:normal;font-size:5.75359px;font-family:'DejaVu Sans';-inkscape-font-specification:DejaVuSans;writing-mode:lr-tb;fill:#000000;fill-opacity:1;fill-rule:nonzero;stroke:none;stroke-width:0.575359"
       id="text270"
       x="28.88645"
       y="-314.78714"><tspan
         x="28.88645 32.545731 34.375374"
         y="-314.78714"
         sodipodi:role="line"
         id="tspan268"
         style="stroke-width:0.575359">1.0</tspan></text><text
       transform="matrix(0,-1.3333333,1.3333333,0,-28.023958,443.59357)"
       style="font-variant:normal;font-weight:normal;font-size:5.75359px;font-family:'DejaVu Sans';-inkscape-font-specification:DejaVuSans;writing-mode:lr-tb;fill:#000000;fill-opacity:1;fill-rule:nonzero;stroke:none;stroke-width:0.575359"
       id="text274"
       x="212.61972"
       y="25.389347"><tspan
         x="212.61972 216.08914 219.62759 223.15456 225.51929 228.51688 232.0381 235.68587 237.5155 240.67996 244.20117 246.5659 248.93063 252.46909 254.06857 257.59552 259.85092 261.45044 264.97165"
         y="25.389347"
         sodipodi:role="line"
         id="tspan272"
         style="stroke-width:0.575359">Pearson correlation</tspan></text><text
       transform="matrix(1.3333333,0,0,1.3333333,-28.023958,443.59357)"
       style="font-variant:normal;font-weight:normal;font-size:6.90431px;font-family:'DejaVu Sans';-inkscape-font-specification:DejaVuSans;writing-mode:lr-tb;fill:#000000;fill-opacity:1;fill-rule:nonzero;stroke:none;stroke-width:0.575359"
       id="text348"
       x="73.749512"
       y="-328.16245"><tspan
         x="73.749512 77.912811 82.158958 86.391304 89.228966 92.826118 97.051552 101.42888 103.62445 107.42181 111.64725 114.48493 117.3226 121.56874 123.48814 127.72047 130.42696 132.34637 136.57181 140.94913 143.1447 147.23206 150.82919 153.02477 155.22034 159.60457 163.85071 168.22804 172.45348 179.17827 181.09767 184.89503 187.09062 191.47485 193.39424 196.99136 199.69788 203.93021 208.30753 212.1049"
         y="-328.16245"
         sodipodi:role="line"
         id="tspan346"
         style="stroke-width:0.575359">Pearson correlation vs. genomic distance</tspan></text><text
       transform="matrix(1.3333333,0,0,1.3333333,-28.023958,443.59357)"
       style="font-variant:normal;font-weight:normal;font-size:6.90431px;font-family:'DejaVu Sans';-inkscape-font-specification:DejaVuSans;writing-mode:lr-tb;fill:#000000;fill-opacity:1;fill-rule:nonzero;stroke:none;stroke-width:0.575359"
       id="text352"
       x="45.79718"
       y="-320.42386"><tspan
         x="45.79718 51.148018 57.106438 61.497574 65.88871 70.279846 74.67099 79.062126 81.257698 83.45327 87.844406 90.039986 94.431114 96.626694 101.01782 103.21339 107.60454 109.8001 114.19124 116.38681 120.77795 125.16908 127.36465 131.75578 136.14694 138.3425 142.73363 147.12479 149.32034 153.71147 158.10263 160.2982 164.68933 169.08047 171.27603 175.66719 180.05833 182.25389 186.64502 191.03618 193.23174 197.62288 202.01402 204.20959 208.43501 212.81235 215.00792 219.53714 223.9283 228.31943 232.71057 234.90613 237.1017 241.49284"
         y="-320.42386"
         sodipodi:role="line"
         id="tspan350"
         style="stroke-width:0.575359">GM12878, 1,2,4,7,9,11,13,14,16,17,18,20,22 on K562, 10</tspan></text><text
       style="font-variant:normal;font-weight:normal;font-size:7.67145px;font-family:'DejaVu Sans';-inkscape-font-specification:DejaVuSans;writing-mode:lr-tb;fill:#000000;fill-opacity:1;fill-rule:nonzero;stroke:none;stroke-width:0.767145"
       id="text358"
       x="100.04566"
       y="159.04636"><tspan
         x="100.04566 104.92471 109.80373 112.24325 116.96118 121.83259 124.27209 126.85739 129.29692 134.54417 140.1597 145.51434 148.09961 150.53915 155.4182 157.85771 162.73676 167.6158"
         y="159.04636"
         sodipodi:role="line"
         id="tspan356"
         style="stroke-width:0.767145">10 ep / AUC: 0.555</tspan></text><text
       style="font-variant:normal;font-weight:normal;font-size:7.67145px;font-family:'DejaVu Sans';-inkscape-font-specification:DejaVuSans;writing-mode:lr-tb;fill:#000000;fill-opacity:1;fill-rule:nonzero;stroke:none;stroke-width:0.767145"
       id="text364"
       x="100.04566"
       y="170.3018"><tspan
         x="100.04566 104.92471 109.80373 112.24325 116.96118 121.83259 124.27209 126.85739 129.29692 134.54417 140.1597 145.51434 148.09961 150.53915 155.4182 157.85771 162.73676 167.6158"
         y="170.3018"
         sodipodi:role="line"
         id="tspan362"
         style="stroke-width:0.767145">20 ep / AUC: 0.548</tspan></text><text
       style="font-variant:normal;font-weight:normal;font-size:7.67145px;font-family:'DejaVu Sans';-inkscape-font-specification:DejaVuSans;writing-mode:lr-tb;fill:#000000;fill-opacity:1;fill-rule:nonzero;stroke:none;stroke-width:0.767145"
       id="text370"
       x="100.04566"
       y="181.55722"><tspan
         x="100.04566 104.92471 109.80373 112.24325 116.96118 121.83259 124.27209 126.85739 129.29692 134.54417 140.1597 145.51434 148.09961 150.53915 155.4182 157.85771 162.73676 167.6158"
         y="181.55722"
         sodipodi:role="line"
         id="tspan368"
         style="stroke-width:0.767145">40 ep / AUC: 0.529</tspan></text><text
       style="font-variant:normal;font-weight:normal;font-size:7.67145px;font-family:'DejaVu Sans';-inkscape-font-specification:DejaVuSans;writing-mode:lr-tb;fill:#000000;fill-opacity:1;fill-rule:nonzero;stroke:none;stroke-width:0.767145"
       id="text376"
       x="100.04566"
       y="192.81271"><tspan
         x="100.04566 104.92471 109.80373 112.24325 116.96118 121.83259 124.27209 126.85739 129.29692 134.54417 140.1597 145.51434 148.09961 150.53915 155.4182 157.85771 162.73676 167.6158"
         y="192.81271"
         sodipodi:role="line"
         id="tspan374"
         style="stroke-width:0.767145">60 ep / AUC: 0.532</tspan></text><text
       style="font-variant:normal;font-weight:normal;font-size:7.67145px;font-family:'DejaVu Sans';-inkscape-font-specification:DejaVuSans;writing-mode:lr-tb;fill:#000000;fill-opacity:1;fill-rule:nonzero;stroke:none;stroke-width:0.767145"
       id="text382"
       x="100.04566"
       y="204.06816"><tspan
         x="100.04566 104.92471 109.80373 112.24325 116.96118 121.83259 124.27209 126.85739 129.29692 134.54417 140.1597 145.51434 148.09961 150.53915 155.4182 157.85771 162.73676 167.6158"
         y="204.06816"
         sodipodi:role="line"
         id="tspan380"
         style="stroke-width:0.767145">80 ep / AUC: 0.537</tspan></text></g></svg>
