<?xml version="1.0" encoding="UTF-8" standalone="no"?>
<svg
   xmlns:dc="http://purl.org/dc/elements/1.1/"
   xmlns:cc="http://creativecommons.org/ns#"
   xmlns:rdf="http://www.w3.org/1999/02/22-rdf-syntax-ns#"
   xmlns:svg="http://www.w3.org/2000/svg"
   xmlns="http://www.w3.org/2000/svg"
   xmlns:sodipodi="http://sodipodi.sourceforge.net/DTD/sodipodi-0.dtd"
   xmlns:inkscape="http://www.inkscape.org/namespaces/inkscape"
   version="1.1"
   id="svg2"
   xml:space="preserve"
   width="80mm"
   height="65.300003mm"
   viewBox="0 0 302.36218 246.80316"
   sodipodi:docname="pearson_chr03_50k.svg"
   inkscape:version="1.0.2 (1.0.2+r75+1)"><metadata
     id="metadata8"><rdf:RDF><cc:Work
         rdf:about=""><dc:format>image/svg+xml</dc:format><dc:type
           rdf:resource="http://purl.org/dc/dcmitype/StillImage" /><dc:title></dc:title></cc:Work></rdf:RDF></metadata><defs
     id="defs6"><clipPath
       clipPathUnits="userSpaceOnUse"
       id="clipPath22"><path
         d="M 57.6,38.016 H 414.72 V 304.128 H 57.6 Z"
         id="path20" /></clipPath><clipPath
       clipPathUnits="userSpaceOnUse"
       id="clipPath40"><path
         d="M 57.6,38.016 H 414.72 V 304.128 H 57.6 Z"
         id="path38" /></clipPath><clipPath
       clipPathUnits="userSpaceOnUse"
       id="clipPath58"><path
         d="M 57.6,38.016 H 414.72 V 304.128 H 57.6 Z"
         id="path56" /></clipPath><clipPath
       clipPathUnits="userSpaceOnUse"
       id="clipPath76"><path
         d="M 57.6,38.016 H 414.72 V 304.128 H 57.6 Z"
         id="path74" /></clipPath><clipPath
       clipPathUnits="userSpaceOnUse"
       id="clipPath94"><path
         d="M 57.6,38.016 H 414.72 V 304.128 H 57.6 Z"
         id="path92" /></clipPath><clipPath
       clipPathUnits="userSpaceOnUse"
       id="clipPath112"><path
         d="M 57.6,38.016 H 414.72 V 304.128 H 57.6 Z"
         id="path110" /></clipPath><clipPath
       clipPathUnits="userSpaceOnUse"
       id="clipPath130"><path
         d="M 57.6,38.016 H 414.72 V 304.128 H 57.6 Z"
         id="path128" /></clipPath><clipPath
       clipPathUnits="userSpaceOnUse"
       id="clipPath148"><path
         d="M 57.6,38.016 H 414.72 V 304.128 H 57.6 Z"
         id="path146" /></clipPath><clipPath
       clipPathUnits="userSpaceOnUse"
       id="clipPath170"><path
         d="M 57.6,38.016 H 414.72 V 304.128 H 57.6 Z"
         id="path168" /></clipPath><clipPath
       clipPathUnits="userSpaceOnUse"
       id="clipPath188"><path
         d="M 57.6,38.016 H 414.72 V 304.128 H 57.6 Z"
         id="path186" /></clipPath><clipPath
       clipPathUnits="userSpaceOnUse"
       id="clipPath206"><path
         d="M 57.6,38.016 H 414.72 V 304.128 H 57.6 Z"
         id="path204" /></clipPath><clipPath
       clipPathUnits="userSpaceOnUse"
       id="clipPath224"><path
         d="M 57.6,38.016 H 414.72 V 304.128 H 57.6 Z"
         id="path222" /></clipPath><clipPath
       clipPathUnits="userSpaceOnUse"
       id="clipPath242"><path
         d="M 57.6,38.016 H 414.72 V 304.128 H 57.6 Z"
         id="path240" /></clipPath><clipPath
       clipPathUnits="userSpaceOnUse"
       id="clipPath260"><path
         d="M 57.6,38.016 H 414.72 V 304.128 H 57.6 Z"
         id="path258" /></clipPath><clipPath
       clipPathUnits="userSpaceOnUse"
       id="clipPath282"><path
         d="M 57.6,38.016 H 414.72 V 304.128 H 57.6 Z"
         id="path280" /></clipPath><clipPath
       clipPathUnits="userSpaceOnUse"
       id="clipPath292"><path
         d="M 57.6,38.016 H 414.72 V 304.128 H 57.6 Z"
         id="path290" /></clipPath><clipPath
       clipPathUnits="userSpaceOnUse"
       id="clipPath302"><path
         d="M 57.6,38.016 H 414.72 V 304.128 H 57.6 Z"
         id="path300" /></clipPath><clipPath
       clipPathUnits="userSpaceOnUse"
       id="clipPath312"><path
         d="M 57.6,38.016 H 414.72 V 304.128 H 57.6 Z"
         id="path310" /></clipPath><clipPath
       clipPathUnits="userSpaceOnUse"
       id="clipPath322"><path
         d="M 57.6,38.016 H 414.72 V 304.128 H 57.6 Z"
         id="path320" /></clipPath></defs><sodipodi:namedview
     pagecolor="#ffffff"
     bordercolor="#666666"
     borderopacity="1"
     objecttolerance="10"
     gridtolerance="10"
     guidetolerance="10"
     inkscape:pageopacity="0"
     inkscape:pageshadow="2"
     inkscape:window-width="1920"
     inkscape:window-height="1020"
     id="namedview4"
     showgrid="false"
     fit-margin-top="0"
     fit-margin-left="0"
     fit-margin-right="0"
     fit-margin-bottom="0"
     units="mm"
     inkscape:zoom="2.6301672"
     inkscape:cx="89.529341"
     inkscape:cy="208.45199"
     inkscape:window-x="0"
     inkscape:window-y="0"
     inkscape:window-maximized="1"
     inkscape:current-layer="layer1" /><g
     id="g10"
     inkscape:groupmode="layer"
     inkscape:label="pearson_chr03_50k"
     transform="matrix(1.3333333,0,0,-1.3333333,-28.023958,443.59358)"><path
       d="m 42.062725,284.22435 2.600538,-3.97486 2.600537,-1.51604 2.600538,1.49467 2.600538,1.10266 2.600538,1.02955 2.600538,0.79959 2.600537,-2.26298 2.600538,-2.88955 2.600538,-3.28944 2.600536,-2.68943 2.60054,-3.0726 2.600539,-2.31946 2.600535,-1.50134 2.600539,-2.38856 2.60054,0.13633 2.600535,1.16578 2.600539,-2.44322 2.600535,0.77285 2.600539,1.06022 2.60054,1.20224 2.600535,-0.12885 2.600539,0.51761 2.600544,1.0768 2.60053,2.86547 2.60054,-1.14366 2.60054,2.65401 2.60053,-3.76394 2.60054,1.54184 2.60054,-0.12594 2.60054,0.76144 2.60054,1.00604 2.60053,-1.5577 2.60055,-1.53314 2.60053,-1.41347 2.60053,1.25055 2.60054,-2.27938 2.60054,-1.72307 2.60054,0.72992 2.60054,-1.39724 2.60053,-0.5068 2.60055,-2.43135 2.60053,-2.99666 2.60054,-2.22809 2.60053,-2.19659 2.60054,-1.29835 2.60054,0.2346 2.60054,-1.08209 2.60053,-0.0907 2.60055,0.0626 2.60054,-0.22539 2.60053,0.18928 2.60053,1.0645 2.60055,-0.63073 2.60053,3.53572 2.60054,1.03345 2.60053,-1.13914 2.60055,2.30425 2.60054,2.74888 2.60053,-0.54341 2.60055,-1.65331 2.60053,-1.337 2.60053,0.0141 2.60054,4.12534 2.60054,-1.61444 2.60054,0.28309 2.60054,-0.33347 2.60053,0.91705 2.60055,-1.89499 2.60053,1.29139 2.60053,-0.14553 2.60054,-1.11749 2.60055,0.8357 2.60053,-2.6597 2.60054,-0.78298 2.60053,-1.2065 2.60055,0.50799 2.60053,-2.16529 2.60054,2.56358 2.60053,-2.27808"
       style="fill:none;stroke:#d62728;stroke-width:0.862913;stroke-linecap:square;stroke-linejoin:round;stroke-miterlimit:10;stroke-dasharray:none;stroke-opacity:1"
       id="path324" /><g
       id="g16"
       transform="matrix(0.57527577,0,0,0.57527577,8.9268408,141.95904)"><g
         id="g18"
         clip-path="url(#clipPath22)"><path
           d="M 57.6,38.016 V 304.128"
           style="fill:none;stroke:#b0b0b0;stroke-width:0.8;stroke-linecap:square;stroke-linejoin:round;stroke-miterlimit:10;stroke-dasharray:none;stroke-opacity:1"
           id="path24" /></g></g><path
       d="m 42.062725,163.82873 v -2.01347"
       style="fill:#000000;fill-opacity:1;fill-rule:nonzero;stroke:#000000;stroke-width:0.46022;stroke-linecap:butt;stroke-linejoin:round;stroke-miterlimit:10;stroke-dasharray:none;stroke-opacity:1"
       id="path28" /><g
       id="g34"
       transform="matrix(0.57527577,0,0,0.57527577,8.9268408,141.95904)"><g
         id="g36"
         clip-path="url(#clipPath40)"><path
           d="M 102.80506,38.016 V 304.128"
           style="fill:none;stroke:#b0b0b0;stroke-width:0.8;stroke-linecap:square;stroke-linejoin:round;stroke-miterlimit:10;stroke-dasharray:none;stroke-opacity:1"
           id="path42" /></g></g><path
       d="m 68.068101,163.82873 v -2.01347"
       style="fill:#000000;fill-opacity:1;fill-rule:nonzero;stroke:#000000;stroke-width:0.46022;stroke-linecap:butt;stroke-linejoin:round;stroke-miterlimit:10;stroke-dasharray:none;stroke-opacity:1"
       id="path46" /><g
       id="g52"
       transform="matrix(0.57527577,0,0,0.57527577,8.9268408,141.95904)"><g
         id="g54"
         clip-path="url(#clipPath58)"><path
           d="M 148.01013,38.016 V 304.128"
           style="fill:none;stroke:#b0b0b0;stroke-width:0.8;stroke-linecap:square;stroke-linejoin:round;stroke-miterlimit:10;stroke-dasharray:none;stroke-opacity:1"
           id="path60" /></g></g><path
       d="m 94.073482,163.82873 v -2.01347"
       style="fill:#000000;fill-opacity:1;fill-rule:nonzero;stroke:#000000;stroke-width:0.46022;stroke-linecap:butt;stroke-linejoin:round;stroke-miterlimit:10;stroke-dasharray:none;stroke-opacity:1"
       id="path64" /><g
       id="g70"
       transform="matrix(0.57527577,0,0,0.57527577,8.9268408,141.95904)"><g
         id="g72"
         clip-path="url(#clipPath76)"><path
           d="M 193.21519,38.016 V 304.128"
           style="fill:none;stroke:#b0b0b0;stroke-width:0.8;stroke-linecap:square;stroke-linejoin:round;stroke-miterlimit:10;stroke-dasharray:none;stroke-opacity:1"
           id="path78" /></g></g><path
       d="m 120.07886,163.82873 v -2.01347"
       style="fill:#000000;fill-opacity:1;fill-rule:nonzero;stroke:#000000;stroke-width:0.46022;stroke-linecap:butt;stroke-linejoin:round;stroke-miterlimit:10;stroke-dasharray:none;stroke-opacity:1"
       id="path82" /><g
       id="g88"
       transform="matrix(0.57527577,0,0,0.57527577,8.9268408,141.95904)"><g
         id="g90"
         clip-path="url(#clipPath94)"><path
           d="M 238.42025,38.016 V 304.128"
           style="fill:none;stroke:#b0b0b0;stroke-width:0.8;stroke-linecap:square;stroke-linejoin:round;stroke-miterlimit:10;stroke-dasharray:none;stroke-opacity:1"
           id="path96" /></g></g><path
       d="m 146.08423,163.82873 v -2.01347"
       style="fill:#000000;fill-opacity:1;fill-rule:nonzero;stroke:#000000;stroke-width:0.46022;stroke-linecap:butt;stroke-linejoin:round;stroke-miterlimit:10;stroke-dasharray:none;stroke-opacity:1"
       id="path100" /><g
       id="g106"
       transform="matrix(0.57527577,0,0,0.57527577,8.9268408,141.95904)"><g
         id="g108"
         clip-path="url(#clipPath112)"><path
           d="M 283.62532,38.016 V 304.128"
           style="fill:none;stroke:#b0b0b0;stroke-width:0.8;stroke-linecap:square;stroke-linejoin:round;stroke-miterlimit:10;stroke-dasharray:none;stroke-opacity:1"
           id="path114" /></g></g><path
       d="m 172.08962,163.82873 v -2.01347"
       style="fill:#000000;fill-opacity:1;fill-rule:nonzero;stroke:#000000;stroke-width:0.46022;stroke-linecap:butt;stroke-linejoin:round;stroke-miterlimit:10;stroke-dasharray:none;stroke-opacity:1"
       id="path118" /><g
       id="g124"
       transform="matrix(0.57527577,0,0,0.57527577,8.9268408,141.95904)"><g
         id="g126"
         clip-path="url(#clipPath130)"><path
           d="M 328.83038,38.016 V 304.128"
           style="fill:none;stroke:#b0b0b0;stroke-width:0.8;stroke-linecap:square;stroke-linejoin:round;stroke-miterlimit:10;stroke-dasharray:none;stroke-opacity:1"
           id="path132" /></g></g><path
       d="m 198.095,163.82873 v -2.01347"
       style="fill:#000000;fill-opacity:1;fill-rule:nonzero;stroke:#000000;stroke-width:0.46022;stroke-linecap:butt;stroke-linejoin:round;stroke-miterlimit:10;stroke-dasharray:none;stroke-opacity:1"
       id="path136" /><g
       id="g142"
       transform="matrix(0.57527577,0,0,0.57527577,8.9268408,141.95904)"><g
         id="g144"
         clip-path="url(#clipPath148)"><path
           d="M 374.03544,38.016 V 304.128"
           style="fill:none;stroke:#b0b0b0;stroke-width:0.8;stroke-linecap:square;stroke-linejoin:round;stroke-miterlimit:10;stroke-dasharray:none;stroke-opacity:1"
           id="path150" /></g></g><path
       d="m 224.10036,163.82873 v -2.01347"
       style="fill:#000000;fill-opacity:1;fill-rule:nonzero;stroke:#000000;stroke-width:0.46022;stroke-linecap:butt;stroke-linejoin:round;stroke-miterlimit:10;stroke-dasharray:none;stroke-opacity:1"
       id="path154" /><g
       id="g164"
       transform="matrix(0.57527577,0,0,0.57527577,8.9268408,141.95904)"><g
         id="g166"
         clip-path="url(#clipPath170)"><path
           d="M 57.6,38.016 H 414.72"
           style="fill:none;stroke:#b0b0b0;stroke-width:0.8;stroke-linecap:square;stroke-linejoin:round;stroke-miterlimit:10;stroke-dasharray:none;stroke-opacity:1"
           id="path172" /></g></g><path
       d="M 42.062725,163.82873 H 40.04926"
       style="fill:#000000;fill-opacity:1;fill-rule:nonzero;stroke:#000000;stroke-width:0.46022;stroke-linecap:butt;stroke-linejoin:round;stroke-miterlimit:10;stroke-dasharray:none;stroke-opacity:1"
       id="path176" /><g
       id="g182"
       transform="matrix(0.57527577,0,0,0.57527577,8.9268408,141.95904)"><g
         id="g184"
         clip-path="url(#clipPath188)"><path
           d="M 57.6,91.2384 H 414.72"
           style="fill:none;stroke:#b0b0b0;stroke-width:0.8;stroke-linecap:square;stroke-linejoin:round;stroke-miterlimit:10;stroke-dasharray:none;stroke-opacity:1"
           id="path190" /></g></g><path
       d="M 42.062725,194.44628 H 40.04926"
       style="fill:#000000;fill-opacity:1;fill-rule:nonzero;stroke:#000000;stroke-width:0.46022;stroke-linecap:butt;stroke-linejoin:round;stroke-miterlimit:10;stroke-dasharray:none;stroke-opacity:1"
       id="path194" /><g
       id="g200"
       transform="matrix(0.57527577,0,0,0.57527577,8.9268408,141.95904)"><g
         id="g202"
         clip-path="url(#clipPath206)"><path
           d="M 57.6,144.4608 H 414.72"
           style="fill:none;stroke:#b0b0b0;stroke-width:0.8;stroke-linecap:square;stroke-linejoin:round;stroke-miterlimit:10;stroke-dasharray:none;stroke-opacity:1"
           id="path208" /></g></g><path
       d="M 42.062725,225.06384 H 40.04926"
       style="fill:#000000;fill-opacity:1;fill-rule:nonzero;stroke:#000000;stroke-width:0.46022;stroke-linecap:butt;stroke-linejoin:round;stroke-miterlimit:10;stroke-dasharray:none;stroke-opacity:1"
       id="path212" /><g
       id="g218"
       transform="matrix(0.57527577,0,0,0.57527577,8.9268408,141.95904)"><g
         id="g220"
         clip-path="url(#clipPath224)"><path
           d="M 57.6,197.6832 H 414.72"
           style="fill:none;stroke:#b0b0b0;stroke-width:0.8;stroke-linecap:square;stroke-linejoin:round;stroke-miterlimit:10;stroke-dasharray:none;stroke-opacity:1"
           id="path226" /></g></g><path
       d="M 42.062725,255.6814 H 40.04926"
       style="fill:#000000;fill-opacity:1;fill-rule:nonzero;stroke:#000000;stroke-width:0.46022;stroke-linecap:butt;stroke-linejoin:round;stroke-miterlimit:10;stroke-dasharray:none;stroke-opacity:1"
       id="path230" /><g
       id="g236"
       transform="matrix(0.57527577,0,0,0.57527577,8.9268408,141.95904)"><g
         id="g238"
         clip-path="url(#clipPath242)"><path
           d="M 57.6,250.9056 H 414.72"
           style="fill:none;stroke:#b0b0b0;stroke-width:0.8;stroke-linecap:square;stroke-linejoin:round;stroke-miterlimit:10;stroke-dasharray:none;stroke-opacity:1"
           id="path244" /></g></g><path
       d="M 42.062725,286.29895 H 40.04926"
       style="fill:#000000;fill-opacity:1;fill-rule:nonzero;stroke:#000000;stroke-width:0.46022;stroke-linecap:butt;stroke-linejoin:round;stroke-miterlimit:10;stroke-dasharray:none;stroke-opacity:1"
       id="path248" /><g
       id="g254"
       transform="matrix(0.57527577,0,0,0.57527577,8.9268408,141.95904)"><g
         id="g256"
         clip-path="url(#clipPath260)"><path
           d="M 57.6,304.128 H 414.72"
           style="fill:none;stroke:#b0b0b0;stroke-width:0.8;stroke-linecap:square;stroke-linejoin:round;stroke-miterlimit:10;stroke-dasharray:none;stroke-opacity:1"
           id="path262" /></g></g><path
       d="M 42.062725,316.91651 H 40.04926"
       style="fill:#000000;fill-opacity:1;fill-rule:nonzero;stroke:#000000;stroke-width:0.46022;stroke-linecap:butt;stroke-linejoin:round;stroke-miterlimit:10;stroke-dasharray:none;stroke-opacity:1"
       id="path266" /><g
       id="g276"
       transform="matrix(0.57527577,0,0,0.57527577,8.9268408,141.95904)"><g
         id="g278"
         clip-path="url(#clipPath282)"><path
           d="m 57.6,266.6644 4.520506,2.00384 4.520507,-13.53464 4.520506,-11.53579 4.520506,-6.8911 4.520507,-6.41957 4.520506,-7.57926 4.520506,-2.90979 4.520507,-1.14625 4.520506,-1.63063 4.520503,-2.75665 4.52051,-2.12622 4.52051,-3.04452 4.5205,-5.08547 4.52051,-0.61156 4.52051,-3.42759 4.5205,-3.14048 4.52051,-1.19907 4.5205,-4.54241 4.52051,-3.21712 4.52051,-1.59196 4.5205,-2.54073 4.52051,-1.32072 4.52051,-2.73142 4.5205,-5.13094 4.52051,1.55772 4.5205,-4.30928 4.52051,-1.10224 4.52051,-2.19289 4.5205,-3.29987 4.52051,-5.06472 4.52051,0.63319 4.5205,-1.44536 4.52051,1.62405 4.5205,-3.12506 4.52051,-2.2073 4.52051,-1.26321 4.5205,1.28077 4.52051,0.92678 4.52051,1.64622 4.5205,-0.28655 4.52051,3.48796 4.52051,4.19857 4.5205,5.81388 4.52051,1.96799 4.5205,-2.27821 4.52051,-4.53805 4.52051,1.7088 4.5205,-1.36786 4.52051,-5.35424 4.52051,-1.4666 4.5205,2.59947 4.52051,-1.28917 4.5205,-2.03947 4.52051,-3.63775 4.52051,-1.29537 4.5205,-0.86946 4.52051,-3.71497 4.52051,4.26948 4.5205,-4.85785 4.52051,1.57076 4.52051,-2.57042 4.5205,2.51406 4.52051,-5.15434 4.5205,-0.22685 4.52051,9.08806 4.52051,0.39047 4.5205,-2.20905 4.52051,3.31497 4.52051,1.92419 4.5205,6.34604 4.52051,-1.59763 4.52051,3.10734 4.5205,1.39976 4.52051,-0.70625 4.5205,-3.14706 4.52051,-0.0743 4.52051,0.6321 4.5205,3.03344 4.52051,1.80918"
           style="fill:none;stroke:#1f77b4;stroke-width:1.5;stroke-linecap:square;stroke-linejoin:round;stroke-miterlimit:10;stroke-dasharray:none;stroke-opacity:1"
           id="path284" /></g></g><path
       d="m 42.062725,301.69447 2.600538,-0.70624 2.600537,-8.92263 2.600538,-7.04458 2.600538,-3.74977 2.600538,-3.41382 2.600538,-3.62807 2.600537,-0.53439 2.600538,-0.11981 2.600538,-0.29499 2.600536,-1.83207 2.60054,-1.59092 2.600539,-2.22462 2.600535,-2.48356 2.600539,-0.12059 2.60054,-2.4087 2.600535,-1.77743 2.600539,-0.8546 2.600535,-3.05922 2.600539,-2.59136 2.60054,-1.08908 2.600535,-1.10025 2.600539,0.0728 2.600544,-0.95014 2.60053,-1.86413 2.60054,0.61839 2.60054,-2.14978 2.60053,0.3311 2.60054,-1.13679 2.60054,-0.73535 2.60054,-3.05718 2.60054,1.76849 2.60053,-0.1236 2.60055,1.28853 2.60053,-0.82722 2.60053,-0.57882 2.60054,-0.86995 2.60054,0.90694 2.60054,-0.83766 2.60054,0.97827 2.60053,-0.25801 2.60055,3.51236 2.60053,1.31746 2.60054,2.41275 2.60053,-0.11406 2.60054,-0.0659 2.60054,-0.2598 2.60054,-0.22156 2.60053,0.15954 2.60055,-1.20844 2.60054,-0.74658 2.60053,0.47857 2.60053,-1.23486 2.60055,-0.10913 2.60053,-0.31691 2.60054,-1.95994 2.60053,-2.09302 2.60055,-0.11215 2.60054,2.12765 2.60053,-2.37563 2.60055,0.60023 2.60053,-0.76842 2.60053,0.24945 2.60054,-2.65733 2.60054,0.2776 2.60054,5.17136 2.60054,-0.90472 2.60053,0.60146 2.60055,1.02972 2.60053,2.32237 2.60053,-0.21264 2.60054,0.91066 2.60055,1.45701 2.60053,0.5495 2.60054,-0.51901 2.60053,-3.7162 2.60055,-1.99221 2.60053,1.61209 2.60054,-4.143 2.60053,0.68414"
       style="fill:none;stroke:#ff7f0e;stroke-width:0.862913;stroke-linecap:square;stroke-linejoin:round;stroke-miterlimit:10;stroke-dasharray:none;stroke-opacity:1"
       id="path294" /><path
       d="m 42.062725,297.92393 2.600538,-0.70704 2.600537,-7.93505 2.600538,-6.1827 2.600538,-3.74778 2.600538,-2.92841 2.600538,-3.78944 2.600537,-0.60769 2.600538,-0.37679 2.600538,-0.94981 2.600536,-2.03153 2.60054,-2.15148 2.600539,-2.4533 2.600535,-1.82023 2.600539,0.11501 2.60054,-1.45153 2.600535,-0.81616 2.600539,0.0278 2.600535,-2.1081 2.600539,-2.98489 2.60054,-0.59832 2.600535,-2.69615 2.600539,-0.17868 2.600544,-0.50993 2.60053,-2.54354 2.60054,-0.34402 2.60054,-1.78202 2.60053,-0.16621 2.60054,-0.59778 2.60054,-2.09017 2.60054,-2.05465 2.60054,1.1527 2.60053,-0.11385 2.60055,0.85174 2.60053,-0.74201 2.60053,-1.07134 2.60054,1.89557 2.60054,-1.17154 2.60054,-0.20755 2.60054,-0.5347 2.60053,-5.3076"
       style="fill:none;stroke:#2ca02c;stroke-width:0.862913;stroke-linecap:square;stroke-linejoin:round;stroke-miterlimit:10;stroke-dasharray:none;stroke-opacity:1"
       id="path304" /><path
       d="m 42.062725,291.58226 2.600538,-0.0595 2.600537,-8.70364 2.600538,-7.04534 2.600538,-4.30187 2.600538,-3.73819 2.600538,-3.6613 2.600537,-0.92258 2.600538,0.29667 2.600538,-0.61808 2.600536,-1.96327 2.60054,-1.59721 2.600539,-2.73652 2.600535,-2.89633 2.600539,-0.6615 2.60054,-2.2759 2.600535,-1.0749 2.600539,-1.12787 2.600535,-3.27738 2.600539,-2.85696 2.60054,-0.98768 2.600535,-2.30757 2.600539,0.63345 2.600544,-1.10038 2.60053,-1.84911 2.60054,-0.68467 2.60054,-2.34175 2.60053,0.19412 2.60054,-1.26619 2.60054,-1.92829 2.60054,-1.7071 2.60054,1.26466 2.60053,0.002 2.60055,1.27862 2.60053,0.26107 2.60053,-1.45163 2.60054,-0.29214 2.60054,0.29231 2.60054,-1.18926 2.60054,2.77107 2.60053,-0.27025 2.60055,1.49208 2.60053,1.79939 2.60054,1.83475 2.60053,0.39256 2.60054,-0.4595 2.60054,-1.64986 2.60054,-0.13122 2.60053,-1.53117 2.60055,-0.0846 2.60054,-0.77541 2.60053,-0.36051 2.60053,-0.12398 2.60055,-1.50369 2.60053,-0.52399 2.60054,-2.30706 2.60053,-0.51643 2.60055,0.22993 2.60054,1.10221 2.60053,-1.13496 2.60055,1.57347 2.60053,-0.18387 2.60053,1.01224 2.60054,-4.29484 2.60054,0.70396 2.60054,5.49529 2.60054,-1.48325 2.60053,-0.19485 2.60055,0.87773 2.60053,-0.0936 2.60053,1.43076 2.60054,-0.24402 2.60055,1.32807 2.60053,-1.41342 2.60054,-0.9296 2.60053,-0.81855 2.60055,-4.09904 2.60053,2.7596 2.60054,-4.36467 2.60053,4.12473"
       style="fill:none;stroke:#9467bd;stroke-width:0.862913;stroke-linecap:square;stroke-linejoin:round;stroke-miterlimit:10;stroke-dasharray:none;stroke-opacity:1"
       id="path314" /><path
       d="M 42.062725,163.82873 V 316.91651"
       style="fill:none;stroke:#000000;stroke-width:0.46022;stroke-linecap:square;stroke-linejoin:miter;stroke-miterlimit:10;stroke-dasharray:none;stroke-opacity:1"
       id="path328" /><path
       d="M 247.5052,163.82873 V 316.91651"
       style="fill:none;stroke:#000000;stroke-width:0.46022;stroke-linecap:square;stroke-linejoin:miter;stroke-miterlimit:10;stroke-dasharray:none;stroke-opacity:1"
       id="path330" /><path
       d="M 42.062725,163.82873 H 247.5052"
       style="fill:none;stroke:#000000;stroke-width:0.46022;stroke-linecap:square;stroke-linejoin:miter;stroke-miterlimit:10;stroke-dasharray:none;stroke-opacity:1"
       id="path332" /><path
       d="M 42.062725,316.91651 H 247.5052"
       style="fill:none;stroke:#000000;stroke-width:0.46022;stroke-linecap:square;stroke-linejoin:miter;stroke-miterlimit:10;stroke-dasharray:none;stroke-opacity:1"
       id="path334" /><path
       d="m 53.816145,206.68763 h 11.50552"
       style="fill:none;stroke:#1f77b4;stroke-width:0.862913;stroke-linecap:square;stroke-linejoin:round;stroke-miterlimit:10;stroke-dasharray:none;stroke-opacity:1"
       id="path344" /><path
       d="m 53.816145,198.24725 h 11.50552"
       style="fill:none;stroke:#ff7f0e;stroke-width:0.862913;stroke-linecap:square;stroke-linejoin:round;stroke-miterlimit:10;stroke-dasharray:none;stroke-opacity:1"
       id="path350" /><path
       d="m 53.816145,189.80689 h 11.50552"
       style="fill:none;stroke:#2ca02c;stroke-width:0.862913;stroke-linecap:square;stroke-linejoin:round;stroke-miterlimit:10;stroke-dasharray:none;stroke-opacity:1"
       id="path356" /><path
       d="m 53.816145,181.36651 h 11.50552"
       style="fill:none;stroke:#9467bd;stroke-width:0.862913;stroke-linecap:square;stroke-linejoin:round;stroke-miterlimit:10;stroke-dasharray:none;stroke-opacity:1"
       id="path362" /><path
       d="m 53.816145,172.92613 h 11.50552"
       style="fill:none;stroke:#d62728;stroke-width:0.862913;stroke-linecap:square;stroke-linejoin:round;stroke-miterlimit:10;stroke-dasharray:none;stroke-opacity:1"
       id="path368" /></g><g
     inkscape:groupmode="layer"
     id="layer1"
     inkscape:label="text"
     style="display:inline"
     transform="translate(-28.023958,-17.206424)"><text
       style="font-variant:normal;font-weight:normal;font-size:7.67035px;font-family:'DejaVu Sans';-inkscape-font-specification:DejaVuSans;writing-mode:lr-tb;fill:#000000;fill-opacity:1;fill-rule:nonzero;stroke:none;stroke-width:0.767035"
       id="text32"
       x="49.983311"
       y="253.5556"><tspan
         x="49.983311 54.861652 57.300819"
         y="253.5556"
         sodipodi:role="line"
         id="tspan30"
         style="stroke-width:0.767035">0.0</tspan></text><text
       style="font-variant:normal;font-weight:normal;font-size:7.67035px;font-family:'DejaVu Sans';-inkscape-font-specification:DejaVuSans;writing-mode:lr-tb;fill:#000000;fill-opacity:1;fill-rule:nonzero;stroke:none;stroke-width:0.767035"
       id="text50"
       x="84.65715"
       y="253.5556"><tspan
         x="84.65715 89.535484 91.974655"
         y="253.5556"
         sodipodi:role="line"
         id="tspan48"
         style="stroke-width:0.767035">0.5</tspan></text><text
       style="font-variant:normal;font-weight:normal;font-size:7.67035px;font-family:'DejaVu Sans';-inkscape-font-specification:DejaVuSans;writing-mode:lr-tb;fill:#000000;fill-opacity:1;fill-rule:nonzero;stroke:none;stroke-width:0.767035"
       id="text68"
       x="119.33099"
       y="253.5556"><tspan
         x="119.33099 124.20933 126.64849"
         y="253.5556"
         sodipodi:role="line"
         id="tspan66"
         style="stroke-width:0.767035">1.0</tspan></text><text
       style="font-variant:normal;font-weight:normal;font-size:7.67035px;font-family:'DejaVu Sans';-inkscape-font-specification:DejaVuSans;writing-mode:lr-tb;fill:#000000;fill-opacity:1;fill-rule:nonzero;stroke:none;stroke-width:0.767035"
       id="text86"
       x="154.00482"
       y="253.5556"><tspan
         x="154.00482 158.88315 161.32233"
         y="253.5556"
         sodipodi:role="line"
         id="tspan84"
         style="stroke-width:0.767035">1.5</tspan></text><text
       style="font-variant:normal;font-weight:normal;font-size:7.67035px;font-family:'DejaVu Sans';-inkscape-font-specification:DejaVuSans;writing-mode:lr-tb;fill:#000000;fill-opacity:1;fill-rule:nonzero;stroke:none;stroke-width:0.767035"
       id="text104"
       x="188.67867"
       y="253.5556"><tspan
         x="188.67867 193.55699 195.99615"
         y="253.5556"
         sodipodi:role="line"
         id="tspan102"
         style="stroke-width:0.767035">2.0</tspan></text><text
       style="font-variant:normal;font-weight:normal;font-size:7.67035px;font-family:'DejaVu Sans';-inkscape-font-specification:DejaVuSans;writing-mode:lr-tb;fill:#000000;fill-opacity:1;fill-rule:nonzero;stroke:none;stroke-width:0.767035"
       id="text122"
       x="223.35249"
       y="253.5556"><tspan
         x="223.35249 228.23083 230.66998"
         y="253.5556"
         sodipodi:role="line"
         id="tspan120"
         style="stroke-width:0.767035">2.5</tspan></text><text
       style="font-variant:normal;font-weight:normal;font-size:7.67035px;font-family:'DejaVu Sans';-inkscape-font-specification:DejaVuSans;writing-mode:lr-tb;fill:#000000;fill-opacity:1;fill-rule:nonzero;stroke:none;stroke-width:0.767035"
       id="text140"
       x="258.02634"
       y="253.5556"><tspan
         x="258.02634 262.90466 265.34381"
         y="253.5556"
         sodipodi:role="line"
         id="tspan138"
         style="stroke-width:0.767035">3.0</tspan></text><text
       style="font-variant:normal;font-weight:normal;font-size:7.67035px;font-family:'DejaVu Sans';-inkscape-font-specification:DejaVuSans;writing-mode:lr-tb;fill:#000000;fill-opacity:1;fill-rule:nonzero;stroke:none;stroke-width:0.767035"
       id="text158"
       x="292.70013"
       y="253.5556"><tspan
         x="292.70013 297.57852 300.01767"
         y="253.5556"
         sodipodi:role="line"
         id="tspan156"
         style="stroke-width:0.767035">3.5</tspan></text><text
       style="font-variant:normal;font-weight:normal;font-size:7.67035px;font-family:'DejaVu Sans';-inkscape-font-specification:DejaVuSans;writing-mode:lr-tb;fill:#000000;fill-opacity:1;fill-rule:nonzero;stroke:none;stroke-width:0.767035"
       id="text162"
       x="146.62173"
       y="264.04257"><tspan
         x="146.62173 152.56624 157.28351 162.1465 166.84076 174.31166 176.44402 180.6627 183.10188 187.97255 190.1049 194.10115 197.10793 201.80984 206.67284 210.89154 215.60881 218.04796 220.63287 223.07204 229.69154 234.56221"
         y="264.04257"
         sodipodi:role="line"
         id="tspan160"
         style="stroke-width:0.767035">Genomic distance / Mbp</tspan></text><text
       style="font-variant:normal;font-weight:normal;font-size:7.67035px;font-family:'DejaVu Sans';-inkscape-font-specification:DejaVuSans;writing-mode:lr-tb;fill:#000000;fill-opacity:1;fill-rule:nonzero;stroke:none;stroke-width:0.767035"
       id="text180"
       x="38.513752"
       y="245.27403"><tspan
         x="38.513752 43.39209 45.831257"
         y="245.27403"
         sodipodi:role="line"
         id="tspan178"
         style="stroke-width:0.767035">0.0</tspan></text><text
       style="font-variant:normal;font-weight:normal;font-size:7.67035px;font-family:'DejaVu Sans';-inkscape-font-specification:DejaVuSans;writing-mode:lr-tb;fill:#000000;fill-opacity:1;fill-rule:nonzero;stroke:none;stroke-width:0.767035"
       id="text198"
       x="38.513752"
       y="204.45061"><tspan
         x="38.513752 43.39209 45.831257"
         y="204.45061"
         sodipodi:role="line"
         id="tspan196"
         style="stroke-width:0.767035">0.2</tspan></text><text
       style="font-variant:normal;font-weight:normal;font-size:7.67035px;font-family:'DejaVu Sans';-inkscape-font-specification:DejaVuSans;writing-mode:lr-tb;fill:#000000;fill-opacity:1;fill-rule:nonzero;stroke:none;stroke-width:0.767035"
       id="text216"
       x="38.513752"
       y="163.62721"><tspan
         x="38.513752 43.39209 45.831257"
         y="163.62721"
         sodipodi:role="line"
         id="tspan214"
         style="stroke-width:0.767035">0.4</tspan></text><text
       style="font-variant:normal;font-weight:normal;font-size:7.67035px;font-family:'DejaVu Sans';-inkscape-font-specification:DejaVuSans;writing-mode:lr-tb;fill:#000000;fill-opacity:1;fill-rule:nonzero;stroke:none;stroke-width:0.767035"
       id="text234"
       x="38.513752"
       y="122.80379"><tspan
         x="38.513752 43.39209 45.831257"
         y="122.80379"
         sodipodi:role="line"
         id="tspan232"
         style="stroke-width:0.767035">0.6</tspan></text><text
       style="font-variant:normal;font-weight:normal;font-size:7.67035px;font-family:'DejaVu Sans';-inkscape-font-specification:DejaVuSans;writing-mode:lr-tb;fill:#000000;fill-opacity:1;fill-rule:nonzero;stroke:none;stroke-width:0.767035"
       id="text252"
       x="38.513752"
       y="81.980392"><tspan
         x="38.513752 43.39209 45.831257"
         y="81.980392"
         sodipodi:role="line"
         id="tspan250"
         style="stroke-width:0.767035">0.8</tspan></text><text
       style="font-variant:normal;font-weight:normal;font-size:7.67035px;font-family:'DejaVu Sans';-inkscape-font-specification:DejaVuSans;writing-mode:lr-tb;fill:#000000;fill-opacity:1;fill-rule:nonzero;stroke:none;stroke-width:0.767035"
       id="text270"
       x="38.513752"
       y="41.157036"><tspan
         x="38.513752 43.39209 45.831257"
         y="41.157036"
         sodipodi:role="line"
         id="tspan268"
         style="stroke-width:0.767035">1.0</tspan></text><text
       transform="rotate(-90)"
       style="font-variant:normal;font-weight:normal;font-size:7.67035px;font-family:'DejaVu Sans';-inkscape-font-specification:DejaVuSans;writing-mode:lr-tb;fill:#000000;fill-opacity:1;fill-rule:nonzero;stroke:none;stroke-width:0.767035"
       id="text274"
       x="-177.3605"
       y="33.85162"><tspan
         x="-177.3605 -172.73529 -168.01804 -163.31612 -160.1636 -156.16736 -151.4731 -146.61009 -144.17094 -139.95226 -135.258 -132.10548 -128.95297 -124.2357 -122.10335 -117.40144 -114.39467 -112.26231 -107.56806"
         y="33.85162"
         sodipodi:role="line"
         id="tspan272"
         style="stroke-width:0.767035">Pearson correlation</tspan></text><text
       style="font-variant:normal;font-weight:normal;font-size:9.20442px;font-family:'DejaVu Sans';-inkscape-font-specification:DejaVuSans;writing-mode:lr-tb;fill:#000000;fill-opacity:1;fill-rule:nonzero;stroke:none;stroke-width:0.767035"
       id="text338"
       x="98.322533"
       y="23.325874"><tspan
         x="98.322533 103.8728 109.53351 115.17581 118.95882 123.75433 129.38742 135.22302 138.15002 143.21245 148.84555 152.62859 156.41158 162.0723 164.63112 170.27342 173.88155 176.44037 182.07349 187.90907 190.83609 196.2851 201.0806 204.0076 206.9346 212.7794 218.44011 224.2757 229.90881 238.8739 241.43272 246.49515 249.42216 255.26697 257.82581 262.62128 266.2294 271.87173 277.70731 282.76974"
         y="23.325874"
         sodipodi:role="line"
         id="tspan336"
         style="stroke-width:0.767035">Pearson correlation vs. genomic distance</tspan></text><text
       style="font-variant:normal;font-weight:normal;font-size:9.20442px;font-family:'DejaVu Sans';-inkscape-font-specification:DejaVuSans;writing-mode:lr-tb;fill:#000000;fill-opacity:1;fill-rule:nonzero;stroke:none;stroke-width:0.767035"
       id="text342"
       x="63.988445"
       y="33.642498"><tspan
         x="63.988445 71.121872 79.065269 84.919281 90.773285 96.627289 102.48129 108.3353 111.26231 114.18931 120.04332 122.97032 128.82433 131.75133 137.60533 140.53235 146.38635 149.31335 155.16736 158.09436 163.94836 169.80237 172.72939 178.58337 184.43739 187.36438 193.2184 199.07239 201.99939 207.85339 213.70741 216.63443 222.48842 228.34245 231.26942 237.12346 242.97745 245.90446 251.75845 257.61246 260.53946 266.39349 272.24747 275.1745 280.80759 286.64319 289.57019 295.60828 301.46228 307.31628 313.17032 316.09729 319.02429"
         y="33.642498"
         sodipodi:role="line"
         id="tspan340"
         style="stroke-width:0.767035">GM12878, 1,2,4,7,9,11,13,14,16,17,18,20,22 on K562, 3</tspan></text><text
       style="font-variant:normal;font-weight:normal;font-size:7.67035px;font-family:'DejaVu Sans';-inkscape-font-specification:DejaVuSans;writing-mode:lr-tb;fill:#000000;fill-opacity:1;fill-rule:nonzero;stroke:none;stroke-width:0.767035"
       id="text348"
       x="93.231819"
       y="187.90115"><tspan
         sodipodi:role="line"
         id="tspan346"
         style="stroke-width:0.767035"
         x="93.231819"
         y="187.90115">25k+50k$\rightarrow$50k, 500ep / AUC: 0.519</tspan></text><text
       style="font-variant:normal;font-weight:normal;font-size:7.67035px;font-family:'DejaVu Sans';-inkscape-font-specification:DejaVuSans;writing-mode:lr-tb;fill:#000000;fill-opacity:1;fill-rule:nonzero;stroke:none;stroke-width:0.767035"
       id="text354"
       x="93.231819"
       y="199.15498"><tspan
         sodipodi:role="line"
         id="tspan352"
         style="stroke-width:0.767035"
         x="93.231819"
         y="199.15498">initial 25k$\rightarrow$50k, 500ep / AUC: 0.588</tspan></text><text
       style="font-variant:normal;font-weight:normal;font-size:7.67035px;font-family:'DejaVu Sans';-inkscape-font-specification:DejaVuSans;writing-mode:lr-tb;fill:#000000;fill-opacity:1;fill-rule:nonzero;stroke:none;stroke-width:0.767035"
       id="text360"
       x="93.231819"
       y="210.40877"><tspan
         sodipodi:role="line"
         id="tspan358"
         style="stroke-width:0.767035"
         x="93.231819"
         y="210.40877">initial 25k coarsened, 500ep / AUC: 0.616</tspan></text><text
       style="font-variant:normal;font-weight:normal;font-size:7.67035px;font-family:'DejaVu Sans';-inkscape-font-specification:DejaVuSans;writing-mode:lr-tb;fill:#000000;fill-opacity:1;fill-rule:nonzero;stroke:none;stroke-width:0.767035"
       id="text366"
       x="93.231819"
       y="221.6626"><tspan
         sodipodi:role="line"
         id="tspan364"
         style="stroke-width:0.767035"
         x="93.231819"
         y="221.6626">50k direct, 250ep / AUC: 0.492</tspan></text><text
       style="font-variant:normal;font-weight:normal;font-size:7.67035px;font-family:'DejaVu Sans';-inkscape-font-specification:DejaVuSans;writing-mode:lr-tb;fill:#000000;fill-opacity:1;fill-rule:nonzero;stroke:none;stroke-width:0.767035"
       id="text372"
       x="93.231819"
       y="232.91641"><tspan
         x="93.231819 96.238594 99.391106 104.09299 108.95602 112.95229 115.65224 120.36951 123.52197 125.96117 131.90564 138.52515 143.4035 148.28183 153.16019 158.03851 162.91685 165.35602 167.94092 170.3801 175.62662 181.2413 186.59521 189.18011 191.61926 196.49762 198.93677 203.81512 208.69345"
         y="232.91641"
         sodipodi:role="line"
         id="tspan370"
         style="stroke-width:0.767035">transfer GM12878 / AUC: 0.640</tspan></text></g></svg>
