<?xml version="1.0" encoding="UTF-8" standalone="no"?>
<svg
   xmlns:dc="http://purl.org/dc/elements/1.1/"
   xmlns:cc="http://creativecommons.org/ns#"
   xmlns:rdf="http://www.w3.org/1999/02/22-rdf-syntax-ns#"
   xmlns:svg="http://www.w3.org/2000/svg"
   xmlns="http://www.w3.org/2000/svg"
   xmlns:sodipodi="http://sodipodi.sourceforge.net/DTD/sodipodi-0.dtd"
   xmlns:inkscape="http://www.inkscape.org/namespaces/inkscape"
   version="1.1"
   id="svg2"
   xml:space="preserve"
   width="80mm"
   height="65.300003mm"
   viewBox="0 0 302.36219 246.80316"
   sodipodi:docname="pearson_chr21.svg"
   inkscape:version="1.0.2 (1.0.2+r75+1)"><metadata
     id="metadata8"><rdf:RDF><cc:Work
         rdf:about=""><dc:format>image/svg+xml</dc:format><dc:type
           rdf:resource="http://purl.org/dc/dcmitype/StillImage" /><dc:title /></cc:Work></rdf:RDF></metadata><defs
     id="defs6"><clipPath
       clipPathUnits="userSpaceOnUse"
       id="clipPath22"><path
         d="M 57.6,38.016 H 414.72 V 304.128 H 57.6 Z"
         id="path20" /></clipPath><clipPath
       clipPathUnits="userSpaceOnUse"
       id="clipPath40"><path
         d="M 57.6,38.016 H 414.72 V 304.128 H 57.6 Z"
         id="path38" /></clipPath><clipPath
       clipPathUnits="userSpaceOnUse"
       id="clipPath58"><path
         d="M 57.6,38.016 H 414.72 V 304.128 H 57.6 Z"
         id="path56" /></clipPath><clipPath
       clipPathUnits="userSpaceOnUse"
       id="clipPath76"><path
         d="M 57.6,38.016 H 414.72 V 304.128 H 57.6 Z"
         id="path74" /></clipPath><clipPath
       clipPathUnits="userSpaceOnUse"
       id="clipPath94"><path
         d="M 57.6,38.016 H 414.72 V 304.128 H 57.6 Z"
         id="path92" /></clipPath><clipPath
       clipPathUnits="userSpaceOnUse"
       id="clipPath112"><path
         d="M 57.6,38.016 H 414.72 V 304.128 H 57.6 Z"
         id="path110" /></clipPath><clipPath
       clipPathUnits="userSpaceOnUse"
       id="clipPath130"><path
         d="M 57.6,38.016 H 414.72 V 304.128 H 57.6 Z"
         id="path128" /></clipPath><clipPath
       clipPathUnits="userSpaceOnUse"
       id="clipPath148"><path
         d="M 57.6,38.016 H 414.72 V 304.128 H 57.6 Z"
         id="path146" /></clipPath><clipPath
       clipPathUnits="userSpaceOnUse"
       id="clipPath170"><path
         d="M 57.6,38.016 H 414.72 V 304.128 H 57.6 Z"
         id="path168" /></clipPath><clipPath
       clipPathUnits="userSpaceOnUse"
       id="clipPath188"><path
         d="M 57.6,38.016 H 414.72 V 304.128 H 57.6 Z"
         id="path186" /></clipPath><clipPath
       clipPathUnits="userSpaceOnUse"
       id="clipPath206"><path
         d="M 57.6,38.016 H 414.72 V 304.128 H 57.6 Z"
         id="path204" /></clipPath><clipPath
       clipPathUnits="userSpaceOnUse"
       id="clipPath224"><path
         d="M 57.6,38.016 H 414.72 V 304.128 H 57.6 Z"
         id="path222" /></clipPath><clipPath
       clipPathUnits="userSpaceOnUse"
       id="clipPath242"><path
         d="M 57.6,38.016 H 414.72 V 304.128 H 57.6 Z"
         id="path240" /></clipPath><clipPath
       clipPathUnits="userSpaceOnUse"
       id="clipPath260"><path
         d="M 57.6,38.016 H 414.72 V 304.128 H 57.6 Z"
         id="path258" /></clipPath><clipPath
       clipPathUnits="userSpaceOnUse"
       id="clipPath282"><path
         d="M 57.6,38.016 H 414.72 V 304.128 H 57.6 Z"
         id="path280" /></clipPath><clipPath
       clipPathUnits="userSpaceOnUse"
       id="clipPath292"><path
         d="M 57.6,38.016 H 414.72 V 304.128 H 57.6 Z"
         id="path290" /></clipPath><clipPath
       clipPathUnits="userSpaceOnUse"
       id="clipPath302"><path
         d="M 57.6,38.016 H 414.72 V 304.128 H 57.6 Z"
         id="path300" /></clipPath><clipPath
       clipPathUnits="userSpaceOnUse"
       id="clipPath312"><path
         d="M 57.6,38.016 H 414.72 V 304.128 H 57.6 Z"
         id="path310" /></clipPath><clipPath
       clipPathUnits="userSpaceOnUse"
       id="clipPath322"><path
         d="M 57.6,38.016 H 414.72 V 304.128 H 57.6 Z"
         id="path320" /></clipPath></defs><sodipodi:namedview
     pagecolor="#ffffff"
     bordercolor="#666666"
     borderopacity="1"
     objecttolerance="10"
     gridtolerance="10"
     guidetolerance="10"
     inkscape:pageopacity="0"
     inkscape:pageshadow="2"
     inkscape:window-width="1920"
     inkscape:window-height="1020"
     id="namedview4"
     showgrid="false"
     fit-margin-top="0"
     fit-margin-left="0"
     fit-margin-right="0"
     fit-margin-bottom="0"
     units="mm"
     inkscape:zoom="2.6301672"
     inkscape:cx="136.45638"
     inkscape:cy="173.01477"
     inkscape:window-x="0"
     inkscape:window-y="0"
     inkscape:window-maximized="1"
     inkscape:current-layer="g10"
     inkscape:document-rotation="0" /><g
     id="g10"
     inkscape:groupmode="layer"
     inkscape:label="pearson_chr21_50k"
     transform="matrix(1.3333333,0,0,-1.3333333,-28.023958,443.59358)"><path
       d="M 57.6,38.016 V 304.128"
       style="fill:none;stroke:#b0b0b0;stroke-width:0.8;stroke-linecap:square;stroke-linejoin:round;stroke-miterlimit:10;stroke-dasharray:none;stroke-opacity:1"
       id="path24"
       transform="matrix(0.57558025,0,0,0.57558025,8.920441,141.90815)" /><path
       d="M 102.80506,38.016 V 304.128"
       style="fill:none;stroke:#b0b0b0;stroke-width:0.8;stroke-linecap:square;stroke-linejoin:round;stroke-miterlimit:10;stroke-dasharray:none;stroke-opacity:1"
       id="path42"
       transform="matrix(0.57558025,0,0,0.57558025,8.920441,141.90815)" /><path
       d="M 148.01013,38.016 V 304.128"
       style="fill:none;stroke:#b0b0b0;stroke-width:0.8;stroke-linecap:square;stroke-linejoin:round;stroke-miterlimit:10;stroke-dasharray:none;stroke-opacity:1"
       id="path60"
       transform="matrix(0.57558025,0,0,0.57558025,8.920441,141.90815)" /><path
       d="M 193.21519,38.016 V 304.128"
       style="fill:none;stroke:#b0b0b0;stroke-width:0.8;stroke-linecap:square;stroke-linejoin:round;stroke-miterlimit:10;stroke-dasharray:none;stroke-opacity:1"
       id="path78"
       transform="matrix(0.57558025,0,0,0.57558025,8.920441,141.90815)" /><path
       d="M 146.15043,163.78941 V 316.95822"
       style="fill:none;stroke:#b0b0b0;stroke-width:0.460464;stroke-linecap:square;stroke-linejoin:round;stroke-miterlimit:10;stroke-dasharray:none;stroke-opacity:1"
       id="path96" /><path
       d="M 283.62532,38.016 V 304.128"
       style="fill:none;stroke:#b0b0b0;stroke-width:0.8;stroke-linecap:square;stroke-linejoin:round;stroke-miterlimit:10;stroke-dasharray:none;stroke-opacity:1"
       id="path114"
       transform="matrix(0.57558025,0,0,0.57558025,8.920441,141.90815)" /><path
       d="M 328.83038,38.016 V 304.128"
       style="fill:none;stroke:#b0b0b0;stroke-width:0.8;stroke-linecap:square;stroke-linejoin:round;stroke-miterlimit:10;stroke-dasharray:none;stroke-opacity:1"
       id="path132"
       transform="matrix(0.57558025,0,0,0.57558025,8.920441,141.90815)" /><path
       d="M 374.03544,38.016 V 304.128"
       style="fill:none;stroke:#b0b0b0;stroke-width:0.8;stroke-linecap:square;stroke-linejoin:round;stroke-miterlimit:10;stroke-dasharray:none;stroke-opacity:1"
       id="path150"
       transform="matrix(0.57558025,0,0,0.57558025,8.920441,141.90815)" /><path
       d="M 57.6,38.016 H 414.72"
       style="fill:none;stroke:#b0b0b0;stroke-width:0.8;stroke-linecap:square;stroke-linejoin:round;stroke-miterlimit:10;stroke-dasharray:none;stroke-opacity:1"
       id="path172"
       transform="matrix(0.57558025,0,0,0.57558025,8.920441,141.90815)" /><path
       d="M 57.6,91.2384 H 414.72"
       style="fill:none;stroke:#b0b0b0;stroke-width:0.8;stroke-linecap:square;stroke-linejoin:round;stroke-miterlimit:10;stroke-dasharray:none;stroke-opacity:1"
       id="path190"
       transform="matrix(0.57558025,0,0,0.57558025,8.920441,141.90815)" /><path
       d="M 57.6,144.4608 H 414.72"
       style="fill:none;stroke:#b0b0b0;stroke-width:0.8;stroke-linecap:square;stroke-linejoin:round;stroke-miterlimit:10;stroke-dasharray:none;stroke-opacity:1"
       id="path208"
       transform="matrix(0.57558025,0,0,0.57558025,8.920441,141.90815)" /><path
       d="M 57.6,197.6832 H 414.72"
       style="fill:none;stroke:#b0b0b0;stroke-width:0.8;stroke-linecap:square;stroke-linejoin:round;stroke-miterlimit:10;stroke-dasharray:none;stroke-opacity:1"
       id="path226"
       transform="matrix(0.57558025,0,0,0.57558025,8.920441,141.90815)" /><path
       d="M 57.6,250.9056 H 414.72"
       style="fill:none;stroke:#b0b0b0;stroke-width:0.8;stroke-linecap:square;stroke-linejoin:round;stroke-miterlimit:10;stroke-dasharray:none;stroke-opacity:1"
       id="path244"
       transform="matrix(0.57558025,0,0,0.57558025,8.920441,141.90815)" /><path
       d="M 57.6,304.128 H 414.72"
       style="fill:none;stroke:#b0b0b0;stroke-width:0.8;stroke-linecap:square;stroke-linejoin:round;stroke-miterlimit:10;stroke-dasharray:none;stroke-opacity:1"
       id="path262"
       transform="matrix(0.57558025,0,0,0.57558025,8.920441,141.90815)" /><path
       d="m 42.073864,307.02856 2.601913,-6.01766 2.601915,-2.68073 2.601915,0.006 2.601913,0.0395 2.601915,1.98801 2.601914,0.40986 2.601914,-0.88336 2.601914,0.49342 2.601915,0.41394 2.601911,-4.0038 2.601917,0.62592 2.601917,0.21556 2.601909,-0.40595 2.601917,1.90657 2.601916,-1.80394 2.601912,-0.52066 2.601915,0.71831 2.601911,-0.64905 2.601916,0.76678 2.601916,-1.07935 2.60191,2.65185 2.601917,2.29968 2.601914,-0.70811 2.60191,0.47725 2.60191,-1.47692 2.60192,-0.32097 2.60191,2.56511 2.60192,-1.0893 2.60191,-1.59554 2.60192,-2.30207 2.60192,-1.2292 2.60191,0.39081 2.60191,-2.21863 2.60192,-0.71687 2.60191,-0.21859 2.60192,1.44542 2.60191,0.10527 2.60192,6.18968 2.60191,-8.35679 2.60192,-5.46753 2.60191,0.12556 2.60192,1.03187 2.60191,-0.68792 2.60191,4.92108 2.6019,-1.48157 2.60192,1.04066 2.60191,0.4088 2.60192,-1.60135 2.60191,-2.15089 2.60192,2.24684 2.60191,-3.19086 2.60192,1.09169 2.60191,0.394 2.60192,2.02383 2.60191,-2.37979 2.60191,3.45235 2.60192,-1.90949 2.60192,-1.19446 2.60191,-0.13873 2.60192,-0.1602 2.60191,-0.5357 2.60192,-0.78814 2.60191,3.93946 2.60191,-0.15255 2.60192,-1.21641 2.60192,1.63652 2.6019,-2.79738 2.60192,-1.95419 2.60191,-3.37404 2.60191,-5.43453 2.60192,-7.70597 2.60192,0.0436 2.60191,5.16188 2.60192,0.15126 2.60191,-7.53368 2.60191,-3.7888 2.60191,5.22632 2.60191,1.15312 2.60192,2.16164"
       style="fill:none;stroke:#d62728;stroke-width:0.863371;stroke-linecap:square;stroke-linejoin:round;stroke-miterlimit:10;stroke-dasharray:none;stroke-opacity:1"
       id="path324" /><g
       id="g16"
       transform="matrix(0.57558025,0,0,0.57558025,8.9204412,141.90815)"><g
         id="g18"
         clip-path="url(#clipPath22)" /></g><path
       d="m 42.073864,163.78941 v -2.01453"
       style="fill:#000000;fill-opacity:1;fill-rule:nonzero;stroke:#000000;stroke-width:0.460465;stroke-linecap:butt;stroke-linejoin:round;stroke-miterlimit:10;stroke-dasharray:none;stroke-opacity:1"
       id="path28" /><g
       id="g34"
       transform="matrix(0.57558025,0,0,0.57558025,8.9204412,141.90815)"><g
         id="g36"
         clip-path="url(#clipPath40)" /></g><path
       d="m 68.093003,163.78941 v -2.01453"
       style="fill:#000000;fill-opacity:1;fill-rule:nonzero;stroke:#000000;stroke-width:0.460465;stroke-linecap:butt;stroke-linejoin:round;stroke-miterlimit:10;stroke-dasharray:none;stroke-opacity:1"
       id="path46" /><g
       id="g52"
       transform="matrix(0.57558025,0,0,0.57558025,8.9204412,141.90815)"><g
         id="g54"
         clip-path="url(#clipPath58)" /></g><path
       d="m 94.112149,163.78941 v -2.01453"
       style="fill:#000000;fill-opacity:1;fill-rule:nonzero;stroke:#000000;stroke-width:0.460465;stroke-linecap:butt;stroke-linejoin:round;stroke-miterlimit:10;stroke-dasharray:none;stroke-opacity:1"
       id="path64" /><g
       id="g70"
       transform="matrix(0.57558025,0,0,0.57558025,8.9204412,141.90815)"><g
         id="g72"
         clip-path="url(#clipPath76)" /></g><path
       d="m 120.13129,163.78941 v -2.01453"
       style="fill:#000000;fill-opacity:1;fill-rule:nonzero;stroke:#000000;stroke-width:0.460465;stroke-linecap:butt;stroke-linejoin:round;stroke-miterlimit:10;stroke-dasharray:none;stroke-opacity:1"
       id="path82" /><path
       d="m 146.15044,163.78941 v -2.01453"
       style="fill:#000000;fill-opacity:1;fill-rule:nonzero;stroke:#000000;stroke-width:0.460465;stroke-linecap:butt;stroke-linejoin:round;stroke-miterlimit:10;stroke-dasharray:none;stroke-opacity:1"
       id="path100" /><g
       id="g106"
       transform="matrix(0.57558025,0,0,0.57558025,8.9204412,141.90815)"><g
         id="g108"
         clip-path="url(#clipPath112)" /></g><path
       d="m 172.16957,163.78941 v -2.01453"
       style="fill:#000000;fill-opacity:1;fill-rule:nonzero;stroke:#000000;stroke-width:0.460465;stroke-linecap:butt;stroke-linejoin:round;stroke-miterlimit:10;stroke-dasharray:none;stroke-opacity:1"
       id="path118" /><g
       id="g124"
       transform="matrix(0.57558025,0,0,0.57558025,8.9204412,141.90815)"><g
         id="g126"
         clip-path="url(#clipPath130)" /></g><path
       d="m 198.18872,163.78941 v -2.01453"
       style="fill:#000000;fill-opacity:1;fill-rule:nonzero;stroke:#000000;stroke-width:0.460465;stroke-linecap:butt;stroke-linejoin:round;stroke-miterlimit:10;stroke-dasharray:none;stroke-opacity:1"
       id="path136" /><g
       id="g142"
       transform="matrix(0.57558025,0,0,0.57558025,8.9204412,141.90815)"><g
         id="g144"
         clip-path="url(#clipPath148)" /></g><path
       d="m 224.20785,163.78941 v -2.01453"
       style="fill:#000000;fill-opacity:1;fill-rule:nonzero;stroke:#000000;stroke-width:0.460465;stroke-linecap:butt;stroke-linejoin:round;stroke-miterlimit:10;stroke-dasharray:none;stroke-opacity:1"
       id="path154" /><g
       id="g164"
       transform="matrix(0.57558025,0,0,0.57558025,8.9204412,141.90815)"><g
         id="g166"
         clip-path="url(#clipPath170)" /></g><path
       d="M 42.073864,163.78941 H 40.059333"
       style="fill:#000000;fill-opacity:1;fill-rule:nonzero;stroke:#000000;stroke-width:0.460465;stroke-linecap:butt;stroke-linejoin:round;stroke-miterlimit:10;stroke-dasharray:none;stroke-opacity:1"
       id="path176" /><g
       id="g182"
       transform="matrix(0.57558025,0,0,0.57558025,8.9204412,141.90815)"><g
         id="g184"
         clip-path="url(#clipPath188)" /></g><path
       d="M 42.073864,194.42317 H 40.059333"
       style="fill:#000000;fill-opacity:1;fill-rule:nonzero;stroke:#000000;stroke-width:0.460465;stroke-linecap:butt;stroke-linejoin:round;stroke-miterlimit:10;stroke-dasharray:none;stroke-opacity:1"
       id="path194" /><g
       id="g200"
       transform="matrix(0.57558025,0,0,0.57558025,8.9204412,141.90815)"><g
         id="g202"
         clip-path="url(#clipPath206)" /></g><path
       d="M 42.073864,225.05694 H 40.059333"
       style="fill:#000000;fill-opacity:1;fill-rule:nonzero;stroke:#000000;stroke-width:0.460465;stroke-linecap:butt;stroke-linejoin:round;stroke-miterlimit:10;stroke-dasharray:none;stroke-opacity:1"
       id="path212" /><g
       id="g218"
       transform="matrix(0.57558025,0,0,0.57558025,8.9204412,141.90815)"><g
         id="g220"
         clip-path="url(#clipPath224)" /></g><path
       d="M 42.073864,255.69069 H 40.059333"
       style="fill:#000000;fill-opacity:1;fill-rule:nonzero;stroke:#000000;stroke-width:0.460465;stroke-linecap:butt;stroke-linejoin:round;stroke-miterlimit:10;stroke-dasharray:none;stroke-opacity:1"
       id="path230" /><g
       id="g236"
       transform="matrix(0.57558025,0,0,0.57558025,8.9204412,141.90815)"><g
         id="g238"
         clip-path="url(#clipPath242)" /></g><path
       d="M 42.073864,286.32445 H 40.059333"
       style="fill:#000000;fill-opacity:1;fill-rule:nonzero;stroke:#000000;stroke-width:0.460465;stroke-linecap:butt;stroke-linejoin:round;stroke-miterlimit:10;stroke-dasharray:none;stroke-opacity:1"
       id="path248" /><g
       id="g254"
       transform="matrix(0.57558025,0,0,0.57558025,8.9204412,141.90815)"><g
         id="g256"
         clip-path="url(#clipPath260)" /></g><path
       d="M 42.073864,316.95822 H 40.059333"
       style="fill:#000000;fill-opacity:1;fill-rule:nonzero;stroke:#000000;stroke-width:0.460465;stroke-linecap:butt;stroke-linejoin:round;stroke-miterlimit:10;stroke-dasharray:none;stroke-opacity:1"
       id="path266" /><path
       d="m 42.073864,306.46814 2.601913,-0.30809 2.601915,-5.97803 2.601915,-6.0122 2.601913,-6.50684 2.601915,-2.47247 2.601914,1.24541 2.601914,-0.7951 2.601914,-3.52956 2.601915,-3.49264 2.601911,3.71929 2.601917,-1.39764 2.601917,-4.12996 2.601909,-10.15573 2.601917,7.4044 2.601916,1.80163 2.601912,1.15308 2.601915,-1.9732 2.601911,-1.21067 2.601916,-3.03407 2.601916,-3.8581 2.60191,-6.78278 2.601917,-8.68319 2.601914,-3.97996 2.60191,-0.33109 2.60191,-0.88418 2.60192,0.31308 2.60191,5.32393 2.60192,3.92545 2.60191,1.38416 2.60192,0.46391 2.60192,0.84043 2.60191,-1.01033 2.60191,1.39159 2.60192,-0.55499 2.60191,0.5494 2.60192,0.72137 2.60191,0.47517 2.60192,-11.30456 2.60191,8.16578 2.60192,1.58859 2.60191,2.56201 2.60192,2.11137 2.60191,3.62759 2.60191,-0.86623 2.6019,2.01294 2.60192,-0.59483 2.60191,0.27335 2.60192,-2.59458 2.60191,3.45327 2.60192,-0.27414 2.60191,1.20922 2.60192,-1.0696 2.60191,-2.07339 2.60192,-1.06324 2.60191,5.86737 2.60191,0.81455 2.60192,-1.10605 2.60192,-1.12113 2.60191,-1.05071 2.60192,0.22246 2.60191,0.7072 2.60192,-3.81249 2.60191,-2.64831 2.60191,-1.12929 2.60192,-4.78986 2.60192,-1.42311 2.6019,4.33237 2.60192,4.00891 2.60191,0.30237 2.60191,-0.91293 2.60192,-4.76724 2.60192,2.75586 2.60191,-1.70063 2.60192,-0.36 2.60191,0.93901 2.60191,2.95919 2.60191,-1.39752 2.60191,0.60871 2.60192,-4.53455"
       style="fill:none;stroke:#1f77b4;stroke-width:0.863371;stroke-linecap:square;stroke-linejoin:round;stroke-miterlimit:10;stroke-dasharray:none;stroke-opacity:1"
       id="path284" /><path
       d="m 42.073864,305.12252 2.601913,-2.82719 2.601915,-5.94919 2.601915,-4.80257 2.601913,-5.58124 2.601915,-2.41069 2.601914,-0.43491 2.601914,-2.02103 2.601914,-3.48898 2.601915,-3.29266 2.601911,4.79584 2.601917,0.71659 2.601917,-4.27146 2.601909,-10.35757 2.601917,6.83216 2.601916,1.4707 2.601912,0.46936 2.601915,-2.17063 2.601911,-2.98096 2.601916,-2.05751 2.601916,-3.75115 2.60191,-7.05566 2.601917,-9.17187 2.601914,-3.09771 2.60191,-0.21669 2.60191,-0.18384 2.60192,1.03888 2.60191,5.63075 2.60192,4.27809 2.60191,1.23414 2.60192,-1.49891 2.60192,1.99616 2.60191,-1.05835 2.60191,3.26927 2.60192,0.47164 2.60191,1.33362 2.60192,0.83518 2.60191,0.44766 2.60192,-12.11792 2.60191,11.84268 2.60192,2.30783 2.60191,2.55934 2.60192,2.81459 2.60191,1.06064 2.60191,1.61643 2.6019,2.11331 2.60192,-0.50087 2.60191,2.03788 2.60192,-1.98203 2.60191,5.6536 2.60192,1.20624 2.60191,1.94143 2.60192,-0.95336 2.60191,-0.94317 2.60192,-0.86851 2.60191,3.27865 2.60191,-0.58068 2.60192,-1.03708 2.60192,-0.0986 2.60191,-2.12488 2.60192,0.85273 2.60191,2.12392 2.60192,-2.87016 2.60191,-1.56583 2.60191,-0.3131 2.60192,-2.59556 2.60192,-0.92495 2.6019,5.83024 2.60192,0.90912 2.60191,-0.19673 2.60191,-3.11861 2.60192,-0.10921 2.60192,0.81043 2.60191,-3.23051 2.60192,0.5638 2.60191,-1.57098 2.60191,3.7702 2.60191,-4.13798 2.60191,-7.55075 2.60192,2.08238"
       style="fill:none;stroke:#ff7f0e;stroke-width:0.863371;stroke-linecap:square;stroke-linejoin:round;stroke-miterlimit:10;stroke-dasharray:none;stroke-opacity:1"
       id="path294" /><path
       d="m 42.073864,297.57429 2.601913,-3.56461 2.601915,-5.3071 2.601915,-4.05401 2.601913,-5.08425 2.601915,-2.26377 2.601914,-1.42655 2.601914,-2.04085 2.601914,-3.39814 2.601915,-3.41001 2.601911,3.75267 2.601917,1.6373 2.601917,-3.55564 2.601909,-9.52075 2.601917,4.67742 2.601916,1.29953 2.601912,0.19609 2.601915,-1.90184 2.601911,-2.68739 2.601916,-3.15769 2.601916,-4.36725 2.60191,-7.47477 2.601917,-8.70968 2.601914,-4.08412 2.60191,-0.72749 2.60191,0.0664 2.60192,2.90208 2.60191,4.9909 2.60192,4.38024 2.60191,0.264 2.60192,-3.29928 2.60192,-0.36591 2.60191,-0.70312 2.60191,1.60989 2.60192,0.26295 2.60191,-0.93051 2.60192,1.52044 2.60191,2.05178 2.60192,-10.64557 2.60191,10.97946 2.60192,-2.46058"
       style="fill:none;stroke:#2ca02c;stroke-width:0.863371;stroke-linecap:square;stroke-linejoin:round;stroke-miterlimit:10;stroke-dasharray:none;stroke-opacity:1"
       id="path304" /><path
       d="m 42.073864,299.07411 2.601913,-4.87027 2.601915,-6.4864 2.601915,-4.17949 2.601913,-4.38431 2.601915,-0.74132 2.601914,1.54264 2.601914,-0.33928 2.601914,-1.71416 2.601915,-2.22543 2.601911,4.75385 2.601917,0.94673 2.601917,-2.96545 2.601909,-10.41964 2.601917,8.34578 2.601916,1.595 2.601912,2.57802 2.601915,-1.41369 2.601911,-1.36712 2.601916,-1.54586 2.601916,-4.15905 2.60191,-6.70844 2.601917,-9.21324 2.601914,-4.98844 2.60191,-0.3453 2.60191,-0.61829 2.60192,1.39635 2.60191,4.90243 2.60192,4.06118 2.60191,3.46427 2.60192,-0.89517 2.60192,1.71662 2.60191,-2.07462 2.60191,3.04145 2.60192,-0.59389 2.60191,1.67893 2.60192,1.58822 2.60191,0.20854 2.60192,-12.85167 2.60191,11.20921 2.60192,1.53744 2.60191,1.31775 2.60192,2.40274 2.60191,3.45759 2.60191,1.27053 2.6019,0.10519 2.60192,-0.5722 2.60191,0.56068 2.60192,-2.56279 2.60191,3.36123 2.60192,-0.0861 2.60191,1.18579 2.60192,-1.93743 2.60191,-2.18294 2.60192,0.20986 2.60191,4.05908 2.60191,1.11528 2.60192,-0.22188 2.60192,-2.20392 2.60191,-1.85714 2.60192,-2.01065 2.60191,1.61739 2.60192,-4.17954 2.60191,-2.39175 2.60191,-0.27235 2.60192,-2.83341 2.60192,-1.49097 2.6019,5.59693 2.60192,2.56213 2.60191,1.79616 2.60191,-0.56865 2.60192,-5.38385 2.60192,2.31438 2.60191,-1.4121 2.60192,-2.2704 2.60191,-1.74418 2.60191,2.00259 2.60191,2.76794 2.60191,-4.86855 2.60192,-5.97267"
       style="fill:none;stroke:#9467bd;stroke-width:0.863371;stroke-linecap:square;stroke-linejoin:round;stroke-miterlimit:10;stroke-dasharray:none;stroke-opacity:1"
       id="path314" /><path
       d="M 42.073864,163.78941 V 316.95822"
       style="fill:none;stroke:#000000;stroke-width:0.460465;stroke-linecap:square;stroke-linejoin:miter;stroke-miterlimit:10;stroke-dasharray:none;stroke-opacity:1"
       id="path328" /><path
       d="M 247.62508,163.78941 V 316.95822"
       style="fill:none;stroke:#000000;stroke-width:0.460465;stroke-linecap:square;stroke-linejoin:miter;stroke-miterlimit:10;stroke-dasharray:none;stroke-opacity:1"
       id="path330" /><path
       d="M 42.073864,163.78941 H 247.62508"
       style="fill:none;stroke:#000000;stroke-width:0.460465;stroke-linecap:square;stroke-linejoin:miter;stroke-miterlimit:10;stroke-dasharray:none;stroke-opacity:1"
       id="path332" /><path
       d="M 42.073864,316.95822 H 247.62508"
       style="fill:none;stroke:#000000;stroke-width:0.460465;stroke-linecap:square;stroke-linejoin:miter;stroke-miterlimit:10;stroke-dasharray:none;stroke-opacity:1"
       id="path334" /><path
       d="m 54.271789,206.70878 h 11.5116"
       style="fill:none;stroke:#1f77b4;stroke-width:0.863371;stroke-linecap:square;stroke-linejoin:round;stroke-miterlimit:10;stroke-dasharray:none;stroke-opacity:1"
       id="path344" /><path
       d="m 54.271789,198.26393 h 11.5116"
       style="fill:none;stroke:#ff7f0e;stroke-width:0.863371;stroke-linecap:square;stroke-linejoin:round;stroke-miterlimit:10;stroke-dasharray:none;stroke-opacity:1"
       id="path350" /><path
       d="m 54.271789,189.81909 h 11.5116"
       style="fill:none;stroke:#2ca02c;stroke-width:0.863371;stroke-linecap:square;stroke-linejoin:round;stroke-miterlimit:10;stroke-dasharray:none;stroke-opacity:1"
       id="path356" /><path
       d="m 54.271789,181.37425 h 11.5116"
       style="fill:none;stroke:#9467bd;stroke-width:0.863371;stroke-linecap:square;stroke-linejoin:round;stroke-miterlimit:10;stroke-dasharray:none;stroke-opacity:1"
       id="path362" /><path
       d="m 54.271789,172.92941 h 11.5116"
       style="fill:none;stroke:#d62728;stroke-width:0.863371;stroke-linecap:square;stroke-linejoin:round;stroke-miterlimit:10;stroke-dasharray:none;stroke-opacity:1"
       id="path368" /></g><g
     inkscape:groupmode="layer"
     id="layer1"
     inkscape:label="text"
     style="display:inline"
     transform="translate(-28.023958,-17.206424)"><text
       style="font-variant:normal;font-weight:normal;font-size:7.67441px;font-family:'DejaVu Sans';-inkscape-font-specification:DejaVuSans;writing-mode:lr-tb;fill:#000000;fill-opacity:1;fill-rule:nonzero;stroke:none;stroke-width:0.767441"
       id="text32"
       x="53.994934"
       y="253.61394"><tspan
         x="53.994934 58.875854 61.316319"
         y="253.61394"
         sodipodi:role="line"
         id="tspan30"
         style="stroke-width:0.767441">0.0</tspan></text><text
       style="font-variant:normal;font-weight:normal;font-size:7.67441px;font-family:'DejaVu Sans';-inkscape-font-specification:DejaVuSans;writing-mode:lr-tb;fill:#000000;fill-opacity:1;fill-rule:nonzero;stroke:none;stroke-width:0.767441"
       id="text50"
       x="84.687126"
       y="253.61394"><tspan
         x="84.687126 89.568039 92.008499"
         y="253.61394"
         sodipodi:role="line"
         id="tspan48"
         style="stroke-width:0.767441">0.5</tspan></text><text
       style="font-variant:normal;font-weight:normal;font-size:7.67441px;font-family:'DejaVu Sans';-inkscape-font-specification:DejaVuSans;writing-mode:lr-tb;fill:#000000;fill-opacity:1;fill-rule:nonzero;stroke:none;stroke-width:0.767441"
       id="text68"
       x="119.37931"
       y="253.61394"><tspan
         x="119.37931 124.26022 126.70069"
         y="253.61394"
         sodipodi:role="line"
         id="tspan66"
         style="stroke-width:0.767441">1.0</tspan></text><text
       style="font-variant:normal;font-weight:normal;font-size:7.67441px;font-family:'DejaVu Sans';-inkscape-font-specification:DejaVuSans;writing-mode:lr-tb;fill:#000000;fill-opacity:1;fill-rule:nonzero;stroke:none;stroke-width:0.767441"
       id="text86"
       x="154.07149"
       y="253.61394"><tspan
         x="154.07149 158.95241 161.39288"
         y="253.61394"
         sodipodi:role="line"
         id="tspan84"
         style="stroke-width:0.767441">1.5</tspan></text><text
       style="font-variant:normal;font-weight:normal;font-size:7.67441px;font-family:'DejaVu Sans';-inkscape-font-specification:DejaVuSans;writing-mode:lr-tb;fill:#000000;fill-opacity:1;fill-rule:nonzero;stroke:none;stroke-width:0.767441"
       id="text104"
       x="188.7637"
       y="253.61394"><tspan
         x="188.7637 193.64461 196.08507"
         y="253.61394"
         sodipodi:role="line"
         id="tspan102"
         style="stroke-width:0.767441">2.0</tspan></text><text
       style="font-variant:normal;font-weight:normal;font-size:7.67441px;font-family:'DejaVu Sans';-inkscape-font-specification:DejaVuSans;writing-mode:lr-tb;fill:#000000;fill-opacity:1;fill-rule:nonzero;stroke:none;stroke-width:0.767441"
       id="text122"
       x="223.45587"
       y="253.61394"><tspan
         x="223.45587 228.33679 230.77724"
         y="253.61394"
         sodipodi:role="line"
         id="tspan120"
         style="stroke-width:0.767441">2.5</tspan></text><text
       style="font-variant:normal;font-weight:normal;font-size:7.67441px;font-family:'DejaVu Sans';-inkscape-font-specification:DejaVuSans;writing-mode:lr-tb;fill:#000000;fill-opacity:1;fill-rule:nonzero;stroke:none;stroke-width:0.767441"
       id="text140"
       x="258.14804"
       y="253.61394"><tspan
         x="258.14804 263.02899 265.46945"
         y="253.61394"
         sodipodi:role="line"
         id="tspan138"
         style="stroke-width:0.767441">3.0</tspan></text><text
       style="font-variant:normal;font-weight:normal;font-size:7.67441px;font-family:'DejaVu Sans';-inkscape-font-specification:DejaVuSans;writing-mode:lr-tb;fill:#000000;fill-opacity:1;fill-rule:nonzero;stroke:none;stroke-width:0.767441"
       id="text158"
       x="292.84021"
       y="253.61394"><tspan
         x="292.84021 297.72116 300.16165"
         y="253.61394"
         sodipodi:role="line"
         id="tspan156"
         style="stroke-width:0.767441">3.5</tspan></text><text
       style="font-variant:normal;font-weight:normal;font-size:7.67441px;font-family:'DejaVu Sans';-inkscape-font-specification:DejaVuSans;writing-mode:lr-tb;fill:#000000;fill-opacity:1;fill-rule:nonzero;stroke:none;stroke-width:0.767441"
       id="text162"
       x="146.68449"
       y="264.10629"><tspan
         x="146.68449 152.63217 157.35191 162.21748 166.91425 174.3891 176.52258 180.7435 183.18396 188.05722 190.19067 194.18906 197.19742 201.90184 206.7674 210.98833 215.7081 218.14854 220.73482 223.17526 229.79828 234.67154"
         y="264.10629"
         sodipodi:role="line"
         id="tspan160"
         style="stroke-width:0.767441">Genomic distance / Mbp</tspan></text><text
       style="font-variant:normal;font-weight:normal;font-size:7.67441px;font-family:'DejaVu Sans';-inkscape-font-specification:DejaVuSans;writing-mode:lr-tb;fill:#000000;fill-opacity:1;fill-rule:nonzero;stroke:none;stroke-width:0.767441"
       id="text180"
       x="38.519302"
       y="245.32799"><tspan
         x="38.519302 43.400227 45.840679"
         y="245.32799"
         sodipodi:role="line"
         id="tspan178"
         style="stroke-width:0.767441">0.0</tspan></text><text
       style="font-variant:normal;font-weight:normal;font-size:7.67441px;font-family:'DejaVu Sans';-inkscape-font-specification:DejaVuSans;writing-mode:lr-tb;fill:#000000;fill-opacity:1;fill-rule:nonzero;stroke:none;stroke-width:0.767441"
       id="text198"
       x="38.519302"
       y="204.48296"><tspan
         x="38.519302 43.400227 45.840679"
         y="204.48296"
         sodipodi:role="line"
         id="tspan196"
         style="stroke-width:0.767441">0.2</tspan></text><text
       style="font-variant:normal;font-weight:normal;font-size:7.67441px;font-family:'DejaVu Sans';-inkscape-font-specification:DejaVuSans;writing-mode:lr-tb;fill:#000000;fill-opacity:1;fill-rule:nonzero;stroke:none;stroke-width:0.767441"
       id="text216"
       x="38.519302"
       y="163.63794"><tspan
         x="38.519302 43.400227 45.840679"
         y="163.63794"
         sodipodi:role="line"
         id="tspan214"
         style="stroke-width:0.767441">0.4</tspan></text><text
       style="font-variant:normal;font-weight:normal;font-size:7.67441px;font-family:'DejaVu Sans';-inkscape-font-specification:DejaVuSans;writing-mode:lr-tb;fill:#000000;fill-opacity:1;fill-rule:nonzero;stroke:none;stroke-width:0.767441"
       id="text234"
       x="38.519302"
       y="122.79297"><tspan
         x="38.519302 43.400227 45.840679"
         y="122.79297"
         sodipodi:role="line"
         id="tspan232"
         style="stroke-width:0.767441">0.6</tspan></text><text
       style="font-variant:normal;font-weight:normal;font-size:7.67441px;font-family:'DejaVu Sans';-inkscape-font-specification:DejaVuSans;writing-mode:lr-tb;fill:#000000;fill-opacity:1;fill-rule:nonzero;stroke:none;stroke-width:0.767441"
       id="text252"
       x="38.519302"
       y="81.947983"><tspan
         x="38.519302 43.400227 45.840679"
         y="81.947983"
         sodipodi:role="line"
         id="tspan250"
         style="stroke-width:0.767441">0.8</tspan></text><text
       style="font-variant:normal;font-weight:normal;font-size:7.67441px;font-family:'DejaVu Sans';-inkscape-font-specification:DejaVuSans;writing-mode:lr-tb;fill:#000000;fill-opacity:1;fill-rule:nonzero;stroke:none;stroke-width:0.767441"
       id="text270"
       x="38.519302"
       y="41.102959"><tspan
         x="38.519302 43.400227 45.840679"
         y="41.102959"
         sodipodi:role="line"
         id="tspan268"
         style="stroke-width:0.767441">1.0</tspan></text><text
       transform="rotate(-90)"
       style="font-variant:normal;font-weight:normal;font-size:7.67441px;font-family:'DejaVu Sans';-inkscape-font-specification:DejaVuSans;writing-mode:lr-tb;fill:#000000;fill-opacity:1;fill-rule:nonzero;stroke:none;stroke-width:0.767441"
       id="text274"
       x="-177.37852"
       y="33.854706"><tspan
         x="-177.37852 -172.75087 -168.03111 -163.32669 -160.1725 -156.17416 -151.4774 -146.61186 -144.17139 -139.95047 -135.25372 -132.09955 -128.94536 -124.22564 -122.0922 -117.38775 -114.37938 -112.24594 -107.54918"
         y="33.854706"
         sodipodi:role="line"
         id="tspan272"
         style="stroke-width:0.767441">Pearson correlation</tspan></text><text
       style="font-variant:normal;font-weight:normal;font-size:9.20928px;font-family:'DejaVu Sans';-inkscape-font-specification:DejaVuSans;writing-mode:lr-tb;fill:#000000;fill-opacity:1;fill-rule:nonzero;stroke:none;stroke-width:0.767441"
       id="text338"
       x="98.359741"
       y="23.262365"><tspan
         x="98.359741 103.91293 109.57665 115.22195 119.00697 123.80499 129.44109 135.27977 138.20831 143.27342 148.90948 152.69452 156.47954 162.14325 164.70343 170.34872 173.95874 176.51894 182.15503 187.9937 190.92226 196.37416 201.1722 204.10074 207.0293 212.8772 218.54089 224.37956 230.01567 238.9855 241.54568 246.61081 249.53935 255.38724 257.94742 262.74545 266.35553 272.00079 277.83945 282.90457"
         y="23.262365"
         sodipodi:role="line"
         id="tspan336"
         style="stroke-width:0.767441">Pearson correlation vs. genomic distance</tspan></text><text
       style="font-variant:normal;font-weight:normal;font-size:9.20928px;font-family:'DejaVu Sans';-inkscape-font-specification:DejaVuSans;writing-mode:lr-tb;fill:#000000;fill-opacity:1;fill-rule:nonzero;stroke:none;stroke-width:0.767441"
       id="text342"
       x="61.075619"
       y="33.584446"><tspan
         x="61.075619 68.212814 76.160439 82.017532 87.874634 93.731735 99.588844 105.44594 108.37451 111.30305 117.16016 120.08872 125.94581 128.87436 134.73148 137.66002 143.51714 146.44569 152.3028 155.23134 161.08846 166.94554 169.8741 175.7312 181.5883 184.51686 190.37396 196.23106 199.15962 205.01672 210.87383 213.8024 219.6595 225.51662 228.44516 234.30226 240.15936 243.08792 248.94501 254.80214 257.73065 263.5878 269.44489 272.37344 278.00952 283.84821 286.77676 292.81805 298.67517 304.53226 310.38937 313.3179 316.24649 322.10358"
         y="33.584446"
         sodipodi:role="line"
         id="tspan340"
         style="stroke-width:0.767441">GM12878, 1,2,4,7,9,11,13,14,16,17,18,20,22 on K562, 21</tspan></text><text
       style="font-variant:normal;font-weight:normal;font-size:7.67441px;font-family:'DejaVu Sans';-inkscape-font-specification:DejaVuSans;writing-mode:lr-tb;fill:#000000;fill-opacity:1;fill-rule:nonzero;stroke:none;stroke-width:0.767441"
       id="text348"
       x="93.850708"
       y="187.87439"><tspan
         sodipodi:role="line"
         id="tspan346"
         style="stroke-width:0.767441"
         x="93.850708"
         y="187.87439">d) 25k+50k$\rightarrow$50k, 500ep / AUC: 0.672</tspan></text><text
       style="font-variant:normal;font-weight:normal;font-size:7.67441px;font-family:'DejaVu Sans';-inkscape-font-specification:DejaVuSans;writing-mode:lr-tb;fill:#000000;fill-opacity:1;fill-rule:nonzero;stroke:none;stroke-width:0.767441"
       id="text354"
       x="93.850708"
       y="199.13417"><tspan
         sodipodi:role="line"
         id="tspan352"
         style="stroke-width:0.767441"
         x="93.850708"
         y="199.13417">c) initial 25k$\rightarrow$50k, 500ep / AUC: 0.701</tspan></text><text
       style="font-variant:normal;font-weight:normal;font-size:7.67441px;font-family:'DejaVu Sans';-inkscape-font-specification:DejaVuSans;writing-mode:lr-tb;fill:#000000;fill-opacity:1;fill-rule:nonzero;stroke:none;stroke-width:0.767441"
       id="text360"
       x="93.850708"
       y="210.39395"><tspan
         sodipodi:role="line"
         id="tspan358"
         style="stroke-width:0.767441"
         x="93.850708"
         y="210.39395">b) initial 25k coarsened, 500ep / AUC: 0.605</tspan></text><text
       style="font-variant:normal;font-weight:normal;font-size:7.67441px;font-family:'DejaVu Sans';-inkscape-font-specification:DejaVuSans;writing-mode:lr-tb;fill:#000000;fill-opacity:1;fill-rule:nonzero;stroke:none;stroke-width:0.767441"
       id="text366"
       x="93.850708"
       y="221.65375"><tspan
         sodipodi:role="line"
         id="tspan364"
         style="stroke-width:0.767441"
         x="93.850708"
         y="221.65375">a) 50k direct, 250ep / AUC: 0.704</tspan></text><text
       style="font-variant:normal;font-weight:normal;font-size:7.67441px;font-family:'DejaVu Sans';-inkscape-font-specification:DejaVuSans;writing-mode:lr-tb;fill:#000000;fill-opacity:1;fill-rule:nonzero;stroke:none;stroke-width:0.767441"
       id="text372"
       x="93.850708"
       y="232.91353"><tspan
         x="93.850708 96.859085 100.01326 104.71765 109.58323 113.5816 116.28299 121.00276 124.15692 126.59739 132.54504 139.16806 144.049 148.92989 153.81082 158.69174 163.57268 166.01312 168.5994 171.03986 176.28915 181.9068 187.26355 189.84982 192.29028 197.17117 199.61166 204.49258 209.37354"
         y="232.91353"
         sodipodi:role="line"
         id="tspan370"
         style="stroke-width:0.767441">transfer GM12878 / AUC: 0.835</tspan></text></g></svg>
