<?xml version="1.0" encoding="UTF-8" standalone="no"?>
<svg
   xmlns:dc="http://purl.org/dc/elements/1.1/"
   xmlns:cc="http://creativecommons.org/ns#"
   xmlns:rdf="http://www.w3.org/1999/02/22-rdf-syntax-ns#"
   xmlns:svg="http://www.w3.org/2000/svg"
   xmlns="http://www.w3.org/2000/svg"
   xmlns:sodipodi="http://sodipodi.sourceforge.net/DTD/sodipodi-0.dtd"
   xmlns:inkscape="http://www.inkscape.org/namespaces/inkscape"
   version="1.1"
   id="svg2"
   xml:space="preserve"
   width="80mm"
   height="65.300003mm"
   viewBox="0 0 302.3622 246.80316"
   sodipodi:docname="pearson_chr03.svg"
   inkscape:version="1.0.2 (1.0.2+r75+1)"><metadata
     id="metadata8"><rdf:RDF><cc:Work
         rdf:about=""><dc:format>image/svg+xml</dc:format><dc:type
           rdf:resource="http://purl.org/dc/dcmitype/StillImage" /><dc:title></dc:title></cc:Work></rdf:RDF></metadata><defs
     id="defs6"><clipPath
       clipPathUnits="userSpaceOnUse"
       id="clipPath22"><path
         d="M 57.6,38.016 H 414.72 V 304.128 H 57.6 Z"
         id="path20" /></clipPath><clipPath
       clipPathUnits="userSpaceOnUse"
       id="clipPath40"><path
         d="M 57.6,38.016 H 414.72 V 304.128 H 57.6 Z"
         id="path38" /></clipPath><clipPath
       clipPathUnits="userSpaceOnUse"
       id="clipPath58"><path
         d="M 57.6,38.016 H 414.72 V 304.128 H 57.6 Z"
         id="path56" /></clipPath><clipPath
       clipPathUnits="userSpaceOnUse"
       id="clipPath76"><path
         d="M 57.6,38.016 H 414.72 V 304.128 H 57.6 Z"
         id="path74" /></clipPath><clipPath
       clipPathUnits="userSpaceOnUse"
       id="clipPath94"><path
         d="M 57.6,38.016 H 414.72 V 304.128 H 57.6 Z"
         id="path92" /></clipPath><clipPath
       clipPathUnits="userSpaceOnUse"
       id="clipPath112"><path
         d="M 57.6,38.016 H 414.72 V 304.128 H 57.6 Z"
         id="path110" /></clipPath><clipPath
       clipPathUnits="userSpaceOnUse"
       id="clipPath130"><path
         d="M 57.6,38.016 H 414.72 V 304.128 H 57.6 Z"
         id="path128" /></clipPath><clipPath
       clipPathUnits="userSpaceOnUse"
       id="clipPath152"><path
         d="M 57.6,38.016 H 414.72 V 304.128 H 57.6 Z"
         id="path150" /></clipPath><clipPath
       clipPathUnits="userSpaceOnUse"
       id="clipPath170"><path
         d="M 57.6,38.016 H 414.72 V 304.128 H 57.6 Z"
         id="path168" /></clipPath><clipPath
       clipPathUnits="userSpaceOnUse"
       id="clipPath188"><path
         d="M 57.6,38.016 H 414.72 V 304.128 H 57.6 Z"
         id="path186" /></clipPath><clipPath
       clipPathUnits="userSpaceOnUse"
       id="clipPath206"><path
         d="M 57.6,38.016 H 414.72 V 304.128 H 57.6 Z"
         id="path204" /></clipPath><clipPath
       clipPathUnits="userSpaceOnUse"
       id="clipPath224"><path
         d="M 57.6,38.016 H 414.72 V 304.128 H 57.6 Z"
         id="path222" /></clipPath><clipPath
       clipPathUnits="userSpaceOnUse"
       id="clipPath242"><path
         d="M 57.6,38.016 H 414.72 V 304.128 H 57.6 Z"
         id="path240" /></clipPath><clipPath
       clipPathUnits="userSpaceOnUse"
       id="clipPath264"><path
         d="M 57.6,38.016 H 414.72 V 304.128 H 57.6 Z"
         id="path262" /></clipPath><clipPath
       clipPathUnits="userSpaceOnUse"
       id="clipPath274"><path
         d="M 57.6,38.016 H 414.72 V 304.128 H 57.6 Z"
         id="path272" /></clipPath><clipPath
       clipPathUnits="userSpaceOnUse"
       id="clipPath284"><path
         d="M 57.6,38.016 H 414.72 V 304.128 H 57.6 Z"
         id="path282" /></clipPath><clipPath
       clipPathUnits="userSpaceOnUse"
       id="clipPath294"><path
         d="M 57.6,38.016 H 414.72 V 304.128 H 57.6 Z"
         id="path292" /></clipPath><clipPath
       clipPathUnits="userSpaceOnUse"
       id="clipPath304"><path
         d="M 57.6,38.016 H 414.72 V 304.128 H 57.6 Z"
         id="path302" /></clipPath><clipPath
       clipPathUnits="userSpaceOnUse"
       id="clipPath314"><path
         d="M 57.6,38.016 H 414.72 V 304.128 H 57.6 Z"
         id="path312" /></clipPath></defs><sodipodi:namedview
     pagecolor="#ffffff"
     bordercolor="#666666"
     borderopacity="1"
     objecttolerance="10"
     gridtolerance="10"
     guidetolerance="10"
     inkscape:pageopacity="0"
     inkscape:pageshadow="2"
     inkscape:window-width="1920"
     inkscape:window-height="1020"
     id="namedview4"
     showgrid="false"
     fit-margin-top="0"
     fit-margin-left="0"
     fit-margin-right="0"
     fit-margin-bottom="0"
     units="mm"
     inkscape:document-rotation="0"
     inkscape:zoom="9.8214384"
     inkscape:cx="147.54144"
     inkscape:cy="241.22387"
     inkscape:window-x="0"
     inkscape:window-y="0"
     inkscape:window-maximized="1"
     inkscape:current-layer="layer1" /><g
     id="g10"
     inkscape:groupmode="layer"
     inkscape:label="pearson_chr03"
     transform="matrix(1.3333333,0,0,-1.3333333,-28.023958,443.59358)"><g
       id="g310"
       clip-path="url(#clipPath314)"
       style="stroke:#d62728;stroke-opacity:1"
       transform="matrix(0.57542292,0,0,0.57542292,8.923748,142.01835)"><path
         d="m 57.6,248.9754 2.811969,-5.49789 2.811968,-4.46653 2.811969,-2.48585 2.811968,0.34215 2.811969,1.96308 2.811968,0.30638 5.623937,2.9843 2.811969,-1.04382 2.811968,1.78446 2.811969,1.112 2.811968,0.58732 2.811969,-2.64632 2.811968,-1.8541 2.811969,-4.2352 2.811972,-2.82433 2.81197,-2.2206 2.81196,-2.78206 2.81197,-3.02038 2.81197,-4.05937 2.81197,0.0934 2.81197,-2.32442 2.81197,-3.524 2.81196,-2.88686 2.81197,-0.0944 2.81197,-1.64306 2.81197,-6.31791 2.81197,3.02471 2.81197,-1.89235 2.81196,1.13398 2.81197,-1.63007 2.81197,1.6344 2.81197,-2.50004 2.81197,-4.5255 2.81197,0.74824 2.81197,0.94858 2.81196,-1.96564 2.81197,5.58774 2.81197,0.28827 2.81197,-0.97386 2.81197,-1.49632 2.81197,-0.34922 2.81197,1.96597 2.81196,3.50135 2.81197,-1.40179 2.81197,-4.00126 2.81197,0.42444 2.81197,6.57985 2.81197,-1.93727 2.81197,-5.40032 2.81196,7.33364 2.81197,-2.91498 2.81197,-5.46247 2.81197,-2.11601 2.81197,6.01647 2.81197,-1.60787 2.81197,-2.77297 2.81196,0.0267 2.81197,2.37908 5.62394,1.00567 2.81197,-3.24826 2.81197,4.08635 2.81196,-7.88041 2.81197,3.85793 2.81197,-7.82059 2.81197,3.36936 2.81197,-0.94146 2.81197,-5.14852 2.81196,2.70861 2.81197,1.51431 2.81197,-0.5613 2.81197,-4.01544 2.81197,-2.94688 2.81197,0.80675 2.81197,2.33864 2.81196,-6.2073 2.81197,2.34648 2.81197,0.4862 2.81197,-5.4642 2.81197,1.73057 2.81197,-3.46608 2.81197,-6.88415 2.81196,0.0747 2.81197,2.47513 2.81197,-6.69384 2.81197,-0.65455 2.81197,-0.34294 2.81197,-5.75495 2.81196,-0.24995 2.81197,4.49751 2.81197,-7.34853 2.81197,2.78597 2.81197,-1.86961 2.81197,0.006 2.81197,-0.75991 2.81197,5.02377 2.81196,-0.28787 2.81197,-5.30131 2.81197,1.6782 2.81197,-0.0501 5.62394,1.13218 2.81196,0.5856 2.81197,-0.5697 2.81197,-1.22707 2.81197,5.74648 2.81197,1.28171 2.81197,-0.5644 2.81196,3.32632 2.81197,-3.34274 2.81197,3.06527 2.81197,-1.58834 2.81197,4.16342 2.81197,0.0965 2.81197,2.20145 2.81196,-2.96458 2.81197,2.033 2.81197,-5.07586 2.81197,4.53538 2.81197,-9.47625 2.81197,4.47261 2.81197,-2.02126 2.81196,3.57278 2.81197,3.91386 2.81197,2.44677 2.81197,-2.1963 v 0"
         style="fill:none;stroke:#d62728;stroke-width:1.5;stroke-linecap:square;stroke-linejoin:round;stroke-miterlimit:10;stroke-dasharray:none;stroke-opacity:1"
         id="path316" /></g><g
       id="g16"
       transform="matrix(0.57542292,0,0,0.57542292,8.923748,142.01835)"><g
         id="g18"
         clip-path="url(#clipPath22)"><path
           d="M 57.6,38.016 V 304.128"
           style="fill:none;stroke:#b0b0b0;stroke-width:0.8;stroke-linecap:square;stroke-linejoin:round;stroke-miterlimit:10;stroke-dasharray:none;stroke-opacity:1"
           id="path24" /></g></g><path
       d="m 42.068108,163.89363 v -2.01398"
       style="fill:#000000;fill-opacity:1;fill-rule:nonzero;stroke:#000000;stroke-width:0.460339;stroke-linecap:butt;stroke-linejoin:round;stroke-miterlimit:10;stroke-dasharray:none;stroke-opacity:1"
       id="path28" /><g
       id="g34"
       transform="matrix(0.57542292,0,0,0.57542292,8.923748,142.01835)"><g
         id="g36"
         clip-path="url(#clipPath40)"><path
           d="M 113.83937,38.016 V 304.128"
           style="fill:none;stroke:#b0b0b0;stroke-width:0.8;stroke-linecap:square;stroke-linejoin:round;stroke-miterlimit:10;stroke-dasharray:none;stroke-opacity:1"
           id="path42" /></g></g><path
       d="m 74.429531,163.89363 v -2.01398"
       style="fill:#000000;fill-opacity:1;fill-rule:nonzero;stroke:#000000;stroke-width:0.460339;stroke-linecap:butt;stroke-linejoin:round;stroke-miterlimit:10;stroke-dasharray:none;stroke-opacity:1"
       id="path46" /><g
       id="g52"
       transform="matrix(0.57542292,0,0,0.57542292,8.923748,142.01835)"><g
         id="g54"
         clip-path="url(#clipPath58)"><path
           d="M 170.07874,38.016 V 304.128"
           style="fill:none;stroke:#b0b0b0;stroke-width:0.8;stroke-linecap:square;stroke-linejoin:round;stroke-miterlimit:10;stroke-dasharray:none;stroke-opacity:1"
           id="path60" /></g></g><path
       d="m 106.79095,163.89363 v -2.01398"
       style="fill:#000000;fill-opacity:1;fill-rule:nonzero;stroke:#000000;stroke-width:0.460339;stroke-linecap:butt;stroke-linejoin:round;stroke-miterlimit:10;stroke-dasharray:none;stroke-opacity:1"
       id="path64" /><g
       id="g70"
       transform="matrix(0.57542292,0,0,0.57542292,8.923748,142.01835)"><g
         id="g72"
         clip-path="url(#clipPath76)"><path
           d="M 226.31811,38.016 V 304.128"
           style="fill:none;stroke:#b0b0b0;stroke-width:0.8;stroke-linecap:square;stroke-linejoin:round;stroke-miterlimit:10;stroke-dasharray:none;stroke-opacity:1"
           id="path78" /></g></g><path
       d="m 139.15237,163.89363 v -2.01398"
       style="fill:#000000;fill-opacity:1;fill-rule:nonzero;stroke:#000000;stroke-width:0.460339;stroke-linecap:butt;stroke-linejoin:round;stroke-miterlimit:10;stroke-dasharray:none;stroke-opacity:1"
       id="path82" /><g
       id="g88"
       transform="matrix(0.57542292,0,0,0.57542292,8.923748,142.01835)"><g
         id="g90"
         clip-path="url(#clipPath94)"><path
           d="M 282.55748,38.016 V 304.128"
           style="fill:none;stroke:#b0b0b0;stroke-width:0.8;stroke-linecap:square;stroke-linejoin:round;stroke-miterlimit:10;stroke-dasharray:none;stroke-opacity:1"
           id="path96" /></g></g><path
       d="m 171.5138,163.89363 v -2.01398"
       style="fill:#000000;fill-opacity:1;fill-rule:nonzero;stroke:#000000;stroke-width:0.460339;stroke-linecap:butt;stroke-linejoin:round;stroke-miterlimit:10;stroke-dasharray:none;stroke-opacity:1"
       id="path100" /><g
       id="g106"
       transform="matrix(0.57542292,0,0,0.57542292,8.923748,142.01835)"><g
         id="g108"
         clip-path="url(#clipPath112)"><path
           d="M 338.79685,38.016 V 304.128"
           style="fill:none;stroke:#b0b0b0;stroke-width:0.8;stroke-linecap:square;stroke-linejoin:round;stroke-miterlimit:10;stroke-dasharray:none;stroke-opacity:1"
           id="path114" /></g></g><path
       d="m 203.87522,163.89363 v -2.01398"
       style="fill:#000000;fill-opacity:1;fill-rule:nonzero;stroke:#000000;stroke-width:0.460339;stroke-linecap:butt;stroke-linejoin:round;stroke-miterlimit:10;stroke-dasharray:none;stroke-opacity:1"
       id="path118" /><g
       id="g124"
       transform="matrix(0.57542292,0,0,0.57542292,8.923748,142.01835)"><g
         id="g126"
         clip-path="url(#clipPath130)"><path
           d="M 395.03622,38.016 V 304.128"
           style="fill:none;stroke:#b0b0b0;stroke-width:0.8;stroke-linecap:square;stroke-linejoin:round;stroke-miterlimit:10;stroke-dasharray:none;stroke-opacity:1"
           id="path132" /></g></g><path
       d="m 236.23664,163.89363 v -2.01398"
       style="fill:#000000;fill-opacity:1;fill-rule:nonzero;stroke:#000000;stroke-width:0.460339;stroke-linecap:butt;stroke-linejoin:round;stroke-miterlimit:10;stroke-dasharray:none;stroke-opacity:1"
       id="path136" /><g
       id="g146"
       transform="matrix(0.57542292,0,0,0.57542292,8.923748,142.01835)"><g
         id="g148"
         clip-path="url(#clipPath152)"><path
           d="M 57.6,38.016 H 414.72"
           style="fill:none;stroke:#b0b0b0;stroke-width:0.8;stroke-linecap:square;stroke-linejoin:round;stroke-miterlimit:10;stroke-dasharray:none;stroke-opacity:1"
           id="path154" /></g></g><path
       d="m 42.068108,163.89363 h -2.01398"
       style="fill:#000000;fill-opacity:1;fill-rule:nonzero;stroke:#000000;stroke-width:0.460339;stroke-linecap:butt;stroke-linejoin:round;stroke-miterlimit:10;stroke-dasharray:none;stroke-opacity:1"
       id="path158" /><g
       id="g164"
       transform="matrix(0.57542292,0,0,0.57542292,8.923748,142.01835)"><g
         id="g166"
         clip-path="url(#clipPath170)"><path
           d="M 57.6,91.2384 H 414.72"
           style="fill:none;stroke:#b0b0b0;stroke-width:0.8;stroke-linecap:square;stroke-linejoin:round;stroke-miterlimit:10;stroke-dasharray:none;stroke-opacity:1"
           id="path172" /></g></g><path
       d="m 42.068108,194.51902 h -2.01398"
       style="fill:#000000;fill-opacity:1;fill-rule:nonzero;stroke:#000000;stroke-width:0.460339;stroke-linecap:butt;stroke-linejoin:round;stroke-miterlimit:10;stroke-dasharray:none;stroke-opacity:1"
       id="path176" /><g
       id="g182"
       transform="matrix(0.57542292,0,0,0.57542292,8.923748,142.01835)"><g
         id="g184"
         clip-path="url(#clipPath188)"><path
           d="M 57.6,144.4608 H 414.72"
           style="fill:none;stroke:#b0b0b0;stroke-width:0.8;stroke-linecap:square;stroke-linejoin:round;stroke-miterlimit:10;stroke-dasharray:none;stroke-opacity:1"
           id="path190" /></g></g><path
       d="m 42.068108,225.14441 h -2.01398"
       style="fill:#000000;fill-opacity:1;fill-rule:nonzero;stroke:#000000;stroke-width:0.460339;stroke-linecap:butt;stroke-linejoin:round;stroke-miterlimit:10;stroke-dasharray:none;stroke-opacity:1"
       id="path194" /><g
       id="g200"
       transform="matrix(0.57542292,0,0,0.57542292,8.923748,142.01835)"><g
         id="g202"
         clip-path="url(#clipPath206)"><path
           d="M 57.6,197.6832 H 414.72"
           style="fill:none;stroke:#b0b0b0;stroke-width:0.8;stroke-linecap:square;stroke-linejoin:round;stroke-miterlimit:10;stroke-dasharray:none;stroke-opacity:1"
           id="path208" /></g></g><path
       d="m 42.068108,255.7698 h -2.01398"
       style="fill:#000000;fill-opacity:1;fill-rule:nonzero;stroke:#000000;stroke-width:0.460339;stroke-linecap:butt;stroke-linejoin:round;stroke-miterlimit:10;stroke-dasharray:none;stroke-opacity:1"
       id="path212" /><g
       id="g218"
       transform="matrix(0.57542292,0,0,0.57542292,8.923748,142.01835)"><g
         id="g220"
         clip-path="url(#clipPath224)"><path
           d="M 57.6,250.9056 H 414.72"
           style="fill:none;stroke:#b0b0b0;stroke-width:0.8;stroke-linecap:square;stroke-linejoin:round;stroke-miterlimit:10;stroke-dasharray:none;stroke-opacity:1"
           id="path226" /></g></g><path
       d="m 42.068108,286.39519 h -2.01398"
       style="fill:#000000;fill-opacity:1;fill-rule:nonzero;stroke:#000000;stroke-width:0.460339;stroke-linecap:butt;stroke-linejoin:round;stroke-miterlimit:10;stroke-dasharray:none;stroke-opacity:1"
       id="path230" /><g
       id="g236"
       transform="matrix(0.57542292,0,0,0.57542292,8.923748,142.01835)"><g
         id="g238"
         clip-path="url(#clipPath242)"><path
           d="M 57.6,304.128 H 414.72"
           style="fill:none;stroke:#b0b0b0;stroke-width:0.8;stroke-linecap:square;stroke-linejoin:round;stroke-miterlimit:10;stroke-dasharray:none;stroke-opacity:1"
           id="path244" /></g></g><path
       d="m 42.068108,317.02057 h -2.01398"
       style="fill:#000000;fill-opacity:1;fill-rule:nonzero;stroke:#000000;stroke-width:0.460339;stroke-linecap:butt;stroke-linejoin:round;stroke-miterlimit:10;stroke-dasharray:none;stroke-opacity:1"
       id="path248" /><g
       id="g260"
       clip-path="url(#clipPath264)"
       transform="matrix(0.57542292,0,0,0.57542292,8.923748,142.01835)"><path
         d="m 57.6,239.05126 2.811969,3.96889 2.811968,-3.73737 2.811969,-3.11974 2.811968,-2.64551 2.811969,-1.88534 2.811968,-2.13289 2.811969,-0.70885 2.811968,-2.37884 2.811969,-0.29633 2.811968,-1.47466 2.811969,-0.0813 2.811968,-0.76058 2.811969,-2.91722 2.811968,-0.54914 2.811969,-0.28882 2.811972,-1.1978 2.81197,-2.67406 2.81196,-2.37567 2.81197,-0.74614 2.81197,-0.86891 2.81197,1.17074 2.81197,-2.70923 2.81197,-0.10941 2.81196,-1.35621 2.81197,-5.25746 2.81197,0.88603 2.81197,-3.26086 2.81197,-3.75451 2.81197,-1.07909 2.81196,-2.15289 2.81197,0.17245 2.81197,-2.41845 2.81197,-0.4663 2.81197,1.10707 2.81197,-2.54417 2.81197,0.95056 2.81196,-0.35244 2.81197,0.37895 2.81197,-3.09155 5.62394,-3.9147 2.81197,-1.0254 2.81197,-3.02903 2.81196,0.78976 2.81197,1.31121 2.81197,2.11973 2.81197,-0.44156 2.81197,-2.68996 2.81197,1.6935 2.81197,-1.56973 2.81196,1.13156 2.81197,-1.9152 2.81197,-0.54705 2.81197,4.6233 2.81197,-1.60203 2.81197,-0.1202 2.81197,0.58464 2.81196,1.80235 2.81197,-2.6327 2.81197,-1.40127 2.81197,-0.62889 2.81197,-1.75051 2.81197,-1.88653 2.81196,1.61854 2.81197,-3.07842 2.81197,-0.0472 2.81197,1.81761 2.81197,-0.58378 2.81197,3.77752 2.81196,-2.91343 2.81197,-6.1647 2.81197,4.36494 2.81197,-0.47876 2.81197,1.31293 2.81197,-0.95729 2.81197,-2.84633 2.81196,2.63921 2.81197,-2.45521 2.81197,-0.9589 2.81197,-0.68494 2.81197,2.36093 2.81197,-2.99288 2.81197,1.15001 2.81196,-2.3108 2.81197,-0.85689 2.81197,2.06942 2.81197,1.74414 2.81197,-2.12649 2.81197,-0.56043 2.81196,-0.0226 2.81197,-0.93425 2.81197,0.0489 2.81197,-4.86997 2.81197,1.41084 2.81197,-1.39716 2.81197,-0.005 2.81197,-2.19374 2.81196,-1.67471 2.81197,1.36314 2.81197,0.002 2.81197,-1.5602 2.81197,3.33379 2.81197,1.54742 2.81196,-4.31802 2.81197,2.37236 2.81197,1.91743 2.81197,1.00928 2.81197,-1.16249 2.81197,0.86294 2.81196,-1.00617 2.81197,-4.31562 2.81197,-3.39361 2.81197,-2.3602 2.81197,-5.9833 2.81197,-4.19295 2.81197,-9.25229 2.81196,-8.68755 2.81197,-7.28151 2.81197,-2.82043 2.81197,-2.26377 2.81197,-1.72459 2.81197,-3.62305 2.81197,-9.995113 2.81196,-6.574279 2.81197,-9.249787 2.81197,-10.228835 2.81197,-11.010504 v 0"
         style="fill:none;stroke:#1f77b4;stroke-width:1.5;stroke-linecap:square;stroke-linejoin:round;stroke-miterlimit:10;stroke-dasharray:none;stroke-opacity:1"
         id="path266" /></g><g
       id="g270"
       clip-path="url(#clipPath274)"
       transform="matrix(0.57542292,0,0,0.57542292,8.923748,142.01835)"><path
         d="m 57.6,240.46216 2.811969,3.83179 2.811968,-4.90376 2.811969,-1.79769 2.811968,-0.38813 2.811969,-1.27007 2.811968,-1.5792 2.811969,-1.34219 2.811968,-4.92996 2.811969,-0.0352 2.811968,-1.21945 2.811969,-0.34428 2.811968,-1.07211 2.811969,-1.78196 5.623937,-1.02748 2.811972,-1.00195 2.81197,-3.38314 2.81196,-2.03779 2.81197,0.2739 2.81197,-0.97234 2.81197,3.08582 2.81197,-3.09808 2.81197,-1.49979 2.81196,-1.25101 2.81197,-3.22156 2.81197,-0.61249 2.81197,-2.2415 2.81197,-4.354 2.81197,-0.70128 2.81196,-3.03285 2.81197,0.80292 2.81197,-2.2317 2.81197,0.66957 2.81197,0.54781 2.81197,-1.57474 2.81197,0.64276 2.81196,-1.30913 2.81197,-0.0475 2.81197,-1.06979 2.81197,-2.15335 2.81197,-3.32738 2.81197,-0.25743 2.81197,-3.83407 2.81196,0.39082 5.62394,3.16379 2.81197,-1.10918 2.81197,-2.3137 2.81197,1.8805 2.81197,-2.53162 2.81196,1.69648 2.81197,-1.34753 2.81197,-0.17563 2.81197,3.80925 2.81197,-0.55071 2.81197,-0.33312 2.81197,0.99637 2.81196,0.76835 2.81197,-3.45667 2.81197,-0.76917 2.81197,0.47448 2.81197,-3.61116 2.81197,-0.5926 2.81196,2.02662 2.81197,-1.82064 2.81197,-1.06601 2.81197,1.36347 2.81197,-0.61553 2.81197,2.76091 2.81196,-3.65232 2.81197,-5.77546 2.81197,4.16895 2.81197,-2.40578 2.81197,1.17278 2.81197,-1.29492 2.81197,-2.48205 2.81196,2.82844 2.81197,-4.03687 2.81197,-0.50569 2.81197,0.94206 2.81197,3.79683 2.81197,-3.79475 2.81197,-0.15102 2.81196,-2.0679 2.81197,-1.02814 2.81197,2.22962 2.81197,2.49173 2.81197,-1.42871 2.81197,-1.97566 2.81196,0.83505 2.81197,-2.67663 2.81197,1.30616 2.81197,-4.26676 2.81197,0.81382 2.81197,-1.35925 2.81197,-0.72356 2.81197,-0.31957 2.81196,-1.80704 2.81197,2.52303 2.81197,-0.82966 2.81197,-3.48929 2.81197,3.29143 2.81197,1.52411 2.81196,-6.34053 2.81197,2.88582 2.81197,2.10545 2.81197,0.41224 2.81197,-0.23691 2.81197,5.10956 5.62393,-3.95421 2.81197,-2.47811 2.81197,-0.23481 2.81197,2.35467 2.81197,-1.4021 2.81197,0.53426 2.81196,-5.93655 5.62394,-6.7139 5.62394,-7.56747 2.81197,-6.89622 2.81197,-5.63726 2.81196,-7.00695 2.81197,-12.09392 2.81197,-20.125883 2.81197,-21.061811 v 0"
         style="fill:none;stroke:#ff7f0e;stroke-width:1.5;stroke-linecap:square;stroke-linejoin:round;stroke-miterlimit:10;stroke-dasharray:none;stroke-opacity:1"
         id="path276" /></g><g
       id="g280"
       clip-path="url(#clipPath284)"
       transform="matrix(0.57542292,0,0,0.57542292,8.923748,142.01835)"><path
         d="m 57.6,241.99548 2.811969,4.06037 2.811968,-4.27447 2.811969,0.097 2.811968,-1.32071 2.811969,-1.06315 2.811968,-2.00163 2.811969,-1.50196 2.811968,-5.04037 2.811969,-0.53079 2.811968,-1.25297 2.811969,-0.84324 2.811968,-1.01628 2.811969,-2.9367 2.811968,-0.47589 2.811969,0.36794 2.811972,-1.01752 2.81197,-2.3478 2.81196,-1.70419 2.81197,0.26043 2.81197,-0.76278 2.81197,1.78935 2.81197,-3.16945 2.81197,-2.20922 2.81196,-0.68171 2.81197,-3.92482 2.81197,-0.33148 2.81197,-1.33841 2.81197,-4.52738 2.81197,-0.68227 2.81196,-2.2756 2.81197,0.17514 2.81197,-1.95582 2.81197,0.96037 2.81197,0.75057 2.81197,-1.94523 2.81197,1.69631 2.81196,-1.44083 2.81197,0.95336 2.81197,-0.73453 2.81197,-3.15378 2.81197,-3.78782 2.81197,-0.35972 2.81197,-2.35775 2.81196,-0.58188 2.81197,0.83119 2.81197,1.5248 2.81197,-1.18886 2.81197,-2.50889 2.81197,1.49657 2.81197,-2.7096 2.81196,1.66722 2.81197,-1.45578 2.81197,0.98165 2.81197,2.78214 2.81197,-0.76662 2.81197,-0.19674 5.62393,2.22732 2.81197,-2.9136 2.81197,-1.39128 2.81197,0.71978 2.81197,-3.98349 2.81197,-0.64081 2.81196,2.33675 2.81197,-2.81427 2.81197,-1.3179 2.81197,1.49688 2.81197,-0.60445 2.81197,2.59986 2.81196,-3.85287 2.81197,-5.03503 2.81197,3.83647 2.81197,-2.50025 2.81197,1.33734 2.81197,-0.0327 2.81197,-3.64545 2.81196,2.39175 2.81197,-3.53881 2.81197,-0.84393 2.81197,0.80025 2.81197,3.57712 2.81197,-2.2941 2.81197,-0.43616 2.81196,-2.73998 2.81197,0.51374 2.81197,1.11211 2.81197,2.91739 2.81197,-2.41301 2.81197,-1.95203 2.81196,0.42842 2.81197,-1.49184 2.81197,0.65324 2.81197,-4.03443 2.81197,1.61771 2.81197,-1.94659 2.81197,-0.28396 2.81197,0.0488 2.81196,-0.56864 2.81197,2.88122 2.81197,-1.38589 2.81197,-3.6992 2.81197,1.86532 2.81197,1.61329 2.81196,-7.28556 2.81197,3.37267 2.81197,1.15582 2.81197,-0.37844 2.81197,-1.90245 2.81197,3.36718 2.81196,-1.67066 2.81197,-2.39069 2.81197,-3.18303 2.81197,0.0971 2.81197,3.10495 2.81197,-0.40305 2.81197,-2.02721 2.81196,-3.1937 2.81197,-3.4904 2.81197,-3.14089 2.81197,-7.21749 2.81197,-4.0463 2.81197,-6.76589 2.81197,-3.74725 2.81196,-6.28522 2.81197,-14.01246 2.81197,-14.989582 2.81197,-22.410281 v 0"
         style="fill:none;stroke:#2ca02c;stroke-width:1.5;stroke-linecap:square;stroke-linejoin:round;stroke-miterlimit:10;stroke-dasharray:none;stroke-opacity:1"
         id="path286" /></g><g
       id="g290"
       clip-path="url(#clipPath294)"
       style="stroke:#8c564b;stroke-opacity:1"
       transform="matrix(0.57542292,0,0,0.57542292,8.923748,142.01835)"><path
         d="m 57.6,243.84453 2.811969,3.19044 2.811968,-3.49568 2.811969,0.90873 2.811968,-0.7171 5.623937,-4.02074 2.811969,-1.50159 2.811968,-5.06452 2.811969,-1.23499 2.811968,-1.56034 5.623937,-2.01929 2.811969,-3.0248 2.811968,-0.31622 2.811969,0.47309 2.811972,-0.45773 2.81197,-2.83871 2.81196,-2.28692 5.62394,-0.644 2.81197,1.94013 2.81197,-3.54672 2.81197,-1.956 2.81196,-1.02138 2.81197,-4.15177 2.81197,-0.4015 2.81197,-1.58262 2.81197,-4.09457 2.81197,-1.2023 2.81196,-1.34193 2.81197,-0.0737 2.81197,-2.16622 2.81197,0.79014 2.81197,0.6445 2.81197,-2.03205 2.81197,1.50552 2.81196,-0.89815 2.81197,1.17283 2.81197,-1.10661 2.81197,-3.0132 2.81197,-3.59027 2.81197,-0.76286 2.81197,-2.2749 2.81196,-1.34821 2.81197,0.9136 2.81197,1.68772 2.81197,-1.66308 2.81197,-2.53022 2.81197,1.94545 2.81197,-2.56439 2.81196,1.7702 2.81197,-1.24301 2.81197,0.12616 2.81197,2.6323 5.62394,-0.66506 2.81197,1.53736 2.81196,0.61075 2.81197,-2.37273 2.81197,-1.75223 2.81197,0.81456 2.81197,-3.60871 2.81197,-0.57284 2.81196,2.34609 2.81197,-2.98028 2.81197,-1.4096 2.81197,1.3222 2.81197,-0.74433 2.81197,3.13239 2.81196,-4.01305 2.81197,-5.59179 2.81197,4.60951 2.81197,-2.74343 2.81197,2.02649 2.81197,-0.92889 2.81197,-3.89618 2.81196,2.46174 2.81197,-2.49801 2.81197,-1.78633 2.81197,0.78813 2.81197,3.55257 2.81197,-1.65572 2.81197,-0.35601 2.81196,-3.08753 5.62394,2.47353 2.81197,3.58803 2.81197,-2.14522 2.81197,-2.96723 2.81196,0.13614 2.81197,-1.54447 2.81197,1.30724 2.81197,-5.45677 2.81197,0.99671 2.81197,-1.26838 2.81197,-0.15454 2.81197,-1.16827 2.81196,-1.01345 2.81197,3.29047 2.81197,-1.81641 2.81197,-2.83282 5.62394,3.18357 2.81196,-7.82195 2.81197,4.34678 2.81197,0.56188 2.81197,-0.95096 2.81197,-2.35047 2.81197,3.3483 2.81196,-2.62316 2.81197,-2.85117 2.81197,-3.33862 2.81197,-0.27809 2.81197,4.30521 2.81197,-0.53283 2.81197,-2.32458 2.81196,-1.04267 2.81197,-1.74943 2.81197,-3.31318 2.81197,-7.40565 2.81197,-0.36654 2.81197,-4.7329 2.81197,-3.52 2.81196,-5.76794 2.81197,-14.23947 2.81197,-16.220242 2.81197,-17.748305 v 0"
         style="fill:none;stroke:#8c564b;stroke-width:1.5;stroke-linecap:square;stroke-linejoin:round;stroke-miterlimit:10;stroke-dasharray:none;stroke-opacity:1"
         id="path296" /></g><g
       id="g300"
       clip-path="url(#clipPath304)"
       transform="matrix(0.57542292,0,0,0.57542292,8.923748,142.01835)"><path
         d="m 57.6,243.61535 2.811969,2.69559 2.811968,-2.91554 2.811969,1.01587 2.811968,-0.43001 5.623937,-4.459 2.811969,-1.42468 2.811968,-5.02728 2.811969,-1.63583 2.811968,-1.39841 5.623937,-1.82512 2.811969,-2.91099 2.811968,-0.43148 2.811969,0.51869 2.811972,-0.40284 2.81197,-2.72607 2.81196,-2.22768 2.81197,-0.47007 2.81197,-0.0179 2.81197,2.15639 2.81197,-3.45815 2.81197,-1.95673 2.81196,-1.08412 2.81197,-4.25736 2.81197,-0.35714 2.81197,-1.90176 2.81197,-4.34531 2.81197,-1.19859 2.81196,-1.48822 2.81197,-0.60606 2.81197,-2.00679 2.81197,1.17372 2.81197,0.54961 2.81197,-1.80123 2.81197,1.65818 2.81196,-0.83879 2.81197,1.29939 2.81197,-1.29856 5.62394,-6.78002 2.81197,-0.41033 2.81197,-2.42703 2.81196,-1.81213 2.81197,1.61488 2.81197,1.89255 2.81197,-1.31188 2.81197,-3.10004 2.81197,2.26633 2.81197,-2.58019 2.81196,1.93869 2.81197,-1.05349 2.81197,0.51388 2.81197,2.31762 2.81197,-0.86345 2.81197,-0.0623 2.81197,2.01568 2.81196,-0.12307 2.81197,-2.18759 2.81197,-1.33281 2.81197,0.4181 2.81197,-3.24178 2.81197,-0.70477 2.81196,2.25883 2.81197,-2.65999 2.81197,-1.5904 2.81197,1.13727 2.81197,-0.0539 2.81197,2.54842 2.81196,-4.21293 2.81197,-5.09386 2.81197,5.33842 2.81197,-2.86207 2.81197,1.99471 2.81197,-0.20444 2.81197,-3.5216 2.81196,2.22613 5.62394,-4.28607 2.81197,1.11921 2.81197,3.92705 2.81197,-1.61822 2.81197,-0.46412 2.81196,-3.62774 2.81197,0.87059 2.81197,1.50474 2.81197,3.63479 2.81197,-1.92213 2.81197,-3.52271 2.81196,0.27489 2.81197,-2.01687 2.81197,1.09261 2.81197,-4.9446 2.81197,1.0268 2.81197,-1.60302 2.81197,-0.3337 2.81197,-0.88633 2.81196,-0.36418 2.81197,2.33936 2.81197,-2.16869 2.81197,-2.42828 2.81197,1.30879 2.81197,1.18068 2.81196,-8.9806 2.81197,4.09564 2.81197,0.0395 2.81197,-1.08636 2.81197,-1.70281 2.81197,2.90777 2.81196,-1.6676 2.81197,-1.9404 2.81197,-4.13785 2.81197,0.0938 2.81197,4.44893 2.81197,-1.32529 2.81197,-1.94164 2.81196,-1.63798 2.81197,-2.72996 2.81197,-0.24137 2.81197,-6.36264 2.81197,-0.69785 2.81197,-5.03145 2.81197,-2.75601 2.81196,-5.98323 2.81197,-16.31885 2.81197,-11.59724 2.81197,-21.071027 v 0"
         style="fill:none;stroke:#9467bd;stroke-width:1.5;stroke-linecap:square;stroke-linejoin:round;stroke-miterlimit:10;stroke-dasharray:none;stroke-opacity:1"
         id="path306" /></g><path
       d="M 42.068108,163.89363 V 317.02057"
       style="fill:none;stroke:#000000;stroke-width:0.460339;stroke-linecap:square;stroke-linejoin:miter;stroke-miterlimit:10;stroke-dasharray:none;stroke-opacity:1"
       id="path320" /><path
       d="M 247.56314,163.89363 V 317.02057"
       style="fill:none;stroke:#000000;stroke-width:0.460339;stroke-linecap:square;stroke-linejoin:miter;stroke-miterlimit:10;stroke-dasharray:none;stroke-opacity:1"
       id="path322" /><path
       d="M 42.068108,163.89363 H 247.56314"
       style="fill:none;stroke:#000000;stroke-width:0.460339;stroke-linecap:square;stroke-linejoin:miter;stroke-miterlimit:10;stroke-dasharray:none;stroke-opacity:1"
       id="path324" /><path
       d="M 42.068108,317.02057 H 247.56314"
       style="fill:none;stroke:#000000;stroke-width:0.460339;stroke-linecap:square;stroke-linejoin:miter;stroke-miterlimit:10;stroke-dasharray:none;stroke-opacity:1"
       id="path326" /><path
       d="m 60.523372,215.84853 h 11.50846"
       style="fill:none;stroke:#1f77b4;stroke-width:0.863134;stroke-linecap:square;stroke-linejoin:round;stroke-miterlimit:10;stroke-dasharray:none;stroke-opacity:1"
       id="path336" /><path
       d="m 60.523372,207.406 h 11.50846"
       style="fill:none;stroke:#ff7f0e;stroke-width:0.863134;stroke-linecap:square;stroke-linejoin:round;stroke-miterlimit:10;stroke-dasharray:none;stroke-opacity:1"
       id="path342" /><path
       d="m 60.523372,198.96347 h 11.50846"
       style="fill:none;stroke:#2ca02c;stroke-width:0.863134;stroke-linecap:square;stroke-linejoin:round;stroke-miterlimit:10;stroke-dasharray:none;stroke-opacity:1"
       id="path348" /><path
       d="m 60.523372,190.52093 h 11.50846"
       style="fill:none;stroke:#8c564b;stroke-width:0.863134;stroke-linecap:square;stroke-linejoin:round;stroke-miterlimit:10;stroke-dasharray:none;stroke-opacity:1"
       id="path354" /><path
       d="m 60.523372,182.0784 h 11.50846"
       style="fill:none;stroke:#9467bd;stroke-width:0.863134;stroke-linecap:square;stroke-linejoin:round;stroke-miterlimit:10;stroke-dasharray:none;stroke-opacity:1"
       id="path360" /><path
       d="m 60.523372,173.63587 h 11.50846"
       style="fill:none;fill-opacity:1;stroke:#d62728;stroke-width:0.863134;stroke-linecap:square;stroke-linejoin:round;stroke-miterlimit:10;stroke-dasharray:none;stroke-opacity:1"
       id="path366" /></g><g
     inkscape:groupmode="layer"
     id="layer1"
     inkscape:label="text"
     style="display:inline"
     transform="translate(-28.023958,-17.206424)"><text
       style="font-variant:normal;font-weight:normal;font-size:7.6723px;font-family:'DejaVu Sans';-inkscape-font-specification:DejaVuSans;writing-mode:lr-tb;fill:#000000;fill-opacity:1;fill-rule:nonzero;stroke:none;stroke-width:0.76723"
       id="text32"
       x="49.98893"
       y="253.47185"><tspan
         x="49.98893 54.868515 57.308308"
         y="253.47185"
         sodipodi:role="line"
         id="tspan30"
         style="stroke-width:0.76723">0.0</tspan></text><text
       style="font-variant:normal;font-weight:normal;font-size:7.6723px;font-family:'DejaVu Sans';-inkscape-font-specification:DejaVuSans;writing-mode:lr-tb;fill:#000000;fill-opacity:1;fill-rule:nonzero;stroke:none;stroke-width:0.76723"
       id="text50"
       x="93.137497"
       y="253.47185"><tspan
         x="93.137497 98.017082 100.45688"
         y="253.47185"
         sodipodi:role="line"
         id="tspan48"
         style="stroke-width:0.76723">0.5</tspan></text><text
       style="font-variant:normal;font-weight:normal;font-size:7.6723px;font-family:'DejaVu Sans';-inkscape-font-specification:DejaVuSans;writing-mode:lr-tb;fill:#000000;fill-opacity:1;fill-rule:nonzero;stroke:none;stroke-width:0.76723"
       id="text68"
       x="136.28606"
       y="253.47185"><tspan
         x="136.28606 141.16565 143.60544"
         y="253.47185"
         sodipodi:role="line"
         id="tspan66"
         style="stroke-width:0.76723">1.0</tspan></text><text
       style="font-variant:normal;font-weight:normal;font-size:7.6723px;font-family:'DejaVu Sans';-inkscape-font-specification:DejaVuSans;writing-mode:lr-tb;fill:#000000;fill-opacity:1;fill-rule:nonzero;stroke:none;stroke-width:0.76723"
       id="text86"
       x="179.43462"
       y="253.47185"><tspan
         x="179.43462 184.31421 186.754"
         y="253.47185"
         sodipodi:role="line"
         id="tspan84"
         style="stroke-width:0.76723">1.5</tspan></text><text
       style="font-variant:normal;font-weight:normal;font-size:7.6723px;font-family:'DejaVu Sans';-inkscape-font-specification:DejaVuSans;writing-mode:lr-tb;fill:#000000;fill-opacity:1;fill-rule:nonzero;stroke:none;stroke-width:0.76723"
       id="text104"
       x="222.58319"
       y="253.47185"><tspan
         x="222.58319 227.46277 229.90256"
         y="253.47185"
         sodipodi:role="line"
         id="tspan102"
         style="stroke-width:0.76723">2.0</tspan></text><text
       style="font-variant:normal;font-weight:normal;font-size:7.6723px;font-family:'DejaVu Sans';-inkscape-font-specification:DejaVuSans;writing-mode:lr-tb;fill:#000000;fill-opacity:1;fill-rule:nonzero;stroke:none;stroke-width:0.76723"
       id="text122"
       x="265.73175"
       y="253.47185"><tspan
         x="265.73175 270.61136 273.05115"
         y="253.47185"
         sodipodi:role="line"
         id="tspan120"
         style="stroke-width:0.76723">2.5</tspan></text><text
       style="font-variant:normal;font-weight:normal;font-size:7.6723px;font-family:'DejaVu Sans';-inkscape-font-specification:DejaVuSans;writing-mode:lr-tb;fill:#000000;fill-opacity:1;fill-rule:nonzero;stroke:none;stroke-width:0.76723"
       id="text140"
       x="308.88031"
       y="253.47185"><tspan
         x="308.88031 313.75992 316.19971"
         y="253.47185"
         sodipodi:role="line"
         id="tspan138"
         style="stroke-width:0.76723">3.0</tspan></text><text
       style="font-variant:normal;font-weight:normal;font-size:7.6723px;font-family:'DejaVu Sans';-inkscape-font-specification:DejaVuSans;writing-mode:lr-tb;fill:#000000;fill-opacity:1;fill-rule:nonzero;stroke:none;stroke-width:0.76723"
       id="text144"
       x="146.65207"
       y="263.96146"><tspan
         x="146.65207 152.5981 157.31657 162.18082 166.87627 174.34909 176.48198 180.70175 183.14156 188.01346 190.14636 194.14363 197.15117 201.85431 206.71855 210.93832 215.65678 218.09657 220.68214 223.12193 229.74312 234.61505"
         y="263.96146"
         sodipodi:role="line"
         id="tspan142"
         style="stroke-width:0.76723">Genomic distance / Mbp</tspan></text><text
       style="font-variant:normal;font-weight:normal;font-size:7.6723px;font-family:'DejaVu Sans';-inkscape-font-specification:DejaVuSans;writing-mode:lr-tb;fill:#000000;fill-opacity:1;fill-rule:nonzero;stroke:none;stroke-width:0.76723"
       id="text162"
       x="38.516434"
       y="245.18816"><tspan
         x="38.516434 43.396019 45.835812"
         y="245.18816"
         sodipodi:role="line"
         id="tspan160"
         style="stroke-width:0.76723">0.0</tspan></text><text
       style="font-variant:normal;font-weight:normal;font-size:7.6723px;font-family:'DejaVu Sans';-inkscape-font-specification:DejaVuSans;writing-mode:lr-tb;fill:#000000;fill-opacity:1;fill-rule:nonzero;stroke:none;stroke-width:0.76723"
       id="text180"
       x="38.516434"
       y="204.35429"><tspan
         x="38.516434 43.396019 45.835812"
         y="204.35429"
         sodipodi:role="line"
         id="tspan178"
         style="stroke-width:0.76723">0.2</tspan></text><text
       style="font-variant:normal;font-weight:normal;font-size:7.6723px;font-family:'DejaVu Sans';-inkscape-font-specification:DejaVuSans;writing-mode:lr-tb;fill:#000000;fill-opacity:1;fill-rule:nonzero;stroke:none;stroke-width:0.76723"
       id="text198"
       x="38.516434"
       y="163.52045"><tspan
         x="38.516434 43.396019 45.835812"
         y="163.52045"
         sodipodi:role="line"
         id="tspan196"
         style="stroke-width:0.76723">0.4</tspan></text><text
       style="font-variant:normal;font-weight:normal;font-size:7.6723px;font-family:'DejaVu Sans';-inkscape-font-specification:DejaVuSans;writing-mode:lr-tb;fill:#000000;fill-opacity:1;fill-rule:nonzero;stroke:none;stroke-width:0.76723"
       id="text216"
       x="38.516434"
       y="122.68666"><tspan
         x="38.516434 43.396019 45.835812"
         y="122.68666"
         sodipodi:role="line"
         id="tspan214"
         style="stroke-width:0.76723">0.6</tspan></text><text
       style="font-variant:normal;font-weight:normal;font-size:7.6723px;font-family:'DejaVu Sans';-inkscape-font-specification:DejaVuSans;writing-mode:lr-tb;fill:#000000;fill-opacity:1;fill-rule:nonzero;stroke:none;stroke-width:0.76723"
       id="text234"
       x="38.516434"
       y="81.852837"><tspan
         x="38.516434 43.396019 45.835812"
         y="81.852837"
         sodipodi:role="line"
         id="tspan232"
         style="stroke-width:0.76723">0.8</tspan></text><text
       style="font-variant:normal;font-weight:normal;font-size:7.6723px;font-family:'DejaVu Sans';-inkscape-font-specification:DejaVuSans;writing-mode:lr-tb;fill:#000000;fill-opacity:1;fill-rule:nonzero;stroke:none;stroke-width:0.76723"
       id="text252"
       x="38.516434"
       y="41.018948"><tspan
         x="38.516434 43.396019 45.835812"
         y="41.018948"
         sodipodi:role="line"
         id="tspan250"
         style="stroke-width:0.76723">1.0</tspan></text><text
       transform="rotate(-90)"
       style="font-variant:normal;font-weight:normal;font-size:7.6723px;font-family:'DejaVu Sans';-inkscape-font-specification:DejaVuSans;writing-mode:lr-tb;fill:#000000;fill-opacity:1;fill-rule:nonzero;stroke:none;stroke-width:0.76723"
       id="text256"
       x="-177.25728"
       y="33.853111"><tspan
         x="-177.25728 -172.63087 -167.9124 -163.20929 -160.05595 -156.0587 -151.36325 -146.49901 -144.05922 -139.83945 -135.14398 -131.99068 -128.83736 -124.11897 -121.98605 -117.28294 -114.27538 -112.14249 -107.44702"
         y="33.853111"
         sodipodi:role="line"
         id="tspan254"
         style="stroke-width:0.76723">Pearson correlation</tspan></text><text
       style="font-variant:normal;font-weight:normal;font-size:9.20677px;font-family:'DejaVu Sans';-inkscape-font-specification:DejaVuSans;writing-mode:lr-tb;fill:#000000;fill-opacity:1;fill-rule:nonzero;stroke:none;stroke-width:0.76723"
       id="text330"
       x="98.340508"
       y="23.183229"><tspan
         x="98.340508 103.8922 109.55436 115.1981 118.98209 123.77881 129.41336 135.25046 138.17819 143.24191 148.87645 152.66045 156.44443 162.10658 164.66606 170.30981 173.91885 176.47833 182.11288 187.94998 190.87773 196.32812 201.12486 204.05261 206.98036 212.82666 218.48883 224.3259 229.96045 238.92784 241.48732 246.55104 249.47881 255.3251 257.88458 262.6813 266.29034 271.93408 277.77118 282.8349"
         y="23.183229"
         sodipodi:role="line"
         id="tspan328"
         style="stroke-width:0.76723">Pearson correlation vs. genomic distance</tspan></text><text
       style="font-variant:normal;font-weight:normal;font-size:9.20677px;font-family:'DejaVu Sans';-inkscape-font-specification:DejaVuSans;writing-mode:lr-tb;fill:#000000;fill-opacity:1;fill-rule:nonzero;stroke:none;stroke-width:0.76723"
       id="text334"
       x="63.997646"
       y="33.502487"><tspan
         x="63.997646 71.132896 79.078331 84.933838 90.78933 96.644844 102.50034 108.35585 111.2836 114.21135 120.06686 122.99461 128.85011 131.77788 137.63336 140.56113 146.41663 149.34438 155.19987 158.12762 163.98314 169.83864 172.76639 178.62189 184.4774 187.40515 193.26064 199.11615 202.0439 207.8994 213.75491 216.68268 222.53816 228.39369 231.32143 237.17693 243.03242 245.96019 251.81569 257.6712 260.59894 266.45444 272.30994 275.2377 280.87222 286.70935 289.63708 295.67673 301.53223 307.38773 313.24326 316.17099 319.09875"
         y="33.502487"
         sodipodi:role="line"
         id="tspan332"
         style="stroke-width:0.76723">GM12878, 1,2,4,7,9,11,13,14,16,17,18,20,22 on K562, 3</tspan></text><text
       style="font-variant:normal;font-weight:normal;font-size:7.6723px;font-family:'DejaVu Sans';-inkscape-font-specification:DejaVuSans;writing-mode:lr-tb;fill:#000000;fill-opacity:1;fill-rule:nonzero;stroke:none;stroke-width:0.76723"
       id="text340"
       x="102.18025"
       y="175.68719"><tspan
         x="102.18025 107.05984 111.93944 114.37921 119.09766 123.96958 126.40938 128.995 131.4348 136.68266 142.29878 147.65404 150.23961 152.67941 157.55901 159.99879 164.87837 169.75795"
         y="175.68719"
         sodipodi:role="line"
         id="tspan338"
         style="stroke-width:0.76723">20 ep / AUC: 0.529</tspan></text><text
       style="font-variant:normal;font-weight:normal;font-size:7.6723px;font-family:'DejaVu Sans';-inkscape-font-specification:DejaVuSans;writing-mode:lr-tb;fill:#000000;fill-opacity:1;fill-rule:nonzero;stroke:none;stroke-width:0.76723"
       id="text346"
       x="102.18025"
       y="186.94391"><tspan
         x="102.18025 107.05984 111.93944 114.37921 119.09766 123.96958 126.40938 128.995 131.4348 136.68266 142.29878 147.65404 150.23961 152.67941 157.55901 159.99879 164.87837 169.75795"
         y="186.94391"
         sodipodi:role="line"
         id="tspan344"
         style="stroke-width:0.76723">40 ep / AUC: 0.552</tspan></text><text
       style="font-variant:normal;font-weight:normal;font-size:7.6723px;font-family:'DejaVu Sans';-inkscape-font-specification:DejaVuSans;writing-mode:lr-tb;fill:#000000;fill-opacity:1;fill-rule:nonzero;stroke:none;stroke-width:0.76723"
       id="text352"
       x="102.18025"
       y="198.20062"><tspan
         x="102.18025 107.05984 111.93944 114.37921 119.09766 123.96958 126.40938 128.995 131.4348 136.68266 142.29878 147.65404 150.23961 152.67941 157.55901 159.99879 164.87837 169.75795"
         y="198.20062"
         sodipodi:role="line"
         id="tspan350"
         style="stroke-width:0.76723">60 ep / AUC: 0.558</tspan></text><text
       style="font-variant:normal;font-weight:normal;font-size:7.6723px;font-family:'DejaVu Sans';-inkscape-font-specification:DejaVuSans;writing-mode:lr-tb;fill:#000000;fill-opacity:1;fill-rule:nonzero;stroke:none;stroke-width:0.76723"
       id="text358"
       x="102.18025"
       y="209.45732"><tspan
         x="102.18025 107.05984 111.93944 114.37921 119.09766 123.96958 126.40938 128.995 131.4348 136.68266 142.29878 147.65404 150.23961 152.67941 157.55901 159.99879 164.87837 169.75795"
         y="209.45732"
         sodipodi:role="line"
         id="tspan356"
         style="stroke-width:0.76723">80 ep / AUC: 0.557</tspan></text><text
       style="font-variant:normal;font-weight:normal;font-size:7.6723px;font-family:'DejaVu Sans';-inkscape-font-specification:DejaVuSans;writing-mode:lr-tb;fill:#000000;fill-opacity:1;fill-rule:nonzero;stroke:none;stroke-width:0.76723"
       id="text364"
       x="102.18025"
       y="220.71402"><tspan
         x="102.18025 107.05984 111.93944 116.81902 119.25881 123.97727 128.84921 131.28903 133.87459 136.31438 141.56224 147.17836 152.53365 155.1192 157.55901 162.43858 164.87837 169.75795 174.63756"
         y="220.71402"
         sodipodi:role="line"
         id="tspan362"
         style="stroke-width:0.76723">100 ep / AUC: 0.561</tspan></text><text
       style="font-variant:normal;font-weight:normal;font-size:7.6723px;font-family:'DejaVu Sans';-inkscape-font-specification:DejaVuSans;writing-mode:lr-tb;fill:#000000;fill-opacity:1;fill-rule:nonzero;stroke:none;stroke-width:0.76723"
       id="text370"
       x="102.18025"
       y="231.97075"><tspan
         x="102.18025 105.1878 108.34113 113.04423 117.90848 121.90575 124.60639 129.32492 132.47823 134.91801 140.86404 147.48526 152.36485 157.2444 162.12401 167.00359 171.88319 174.32298 176.90855 179.34834 184.59618 190.21233 195.56761 198.15315 200.59294 205.47255 207.91234 212.79192 217.67152"
         y="231.97075"
         sodipodi:role="line"
         id="tspan368"
         style="stroke-width:0.76723">transfer GM12878 / AUC: 0.588</tspan></text></g></svg>
