<?xml version="1.0" encoding="UTF-8" standalone="no"?>
<svg
   xmlns:dc="http://purl.org/dc/elements/1.1/"
   xmlns:cc="http://creativecommons.org/ns#"
   xmlns:rdf="http://www.w3.org/1999/02/22-rdf-syntax-ns#"
   xmlns:svg="http://www.w3.org/2000/svg"
   xmlns="http://www.w3.org/2000/svg"
   xmlns:sodipodi="http://sodipodi.sourceforge.net/DTD/sodipodi-0.dtd"
   xmlns:inkscape="http://www.inkscape.org/namespaces/inkscape"
   version="1.1"
   id="svg2"
   xml:space="preserve"
   width="80mm"
   height="65.300003mm"
   viewBox="0 0 302.36219 246.80316"
   sodipodi:docname="pearson_chr19.svg"
   inkscape:version="1.0.2 (1.0.2+r75+1)"><metadata
     id="metadata8"><rdf:RDF><cc:Work
         rdf:about=""><dc:format>image/svg+xml</dc:format><dc:type
           rdf:resource="http://purl.org/dc/dcmitype/StillImage" /><dc:title></dc:title></cc:Work></rdf:RDF></metadata><defs
     id="defs6"><clipPath
       clipPathUnits="userSpaceOnUse"
       id="clipPath22"><path
         d="M 57.6,38.016 H 414.72 V 304.128 H 57.6 Z"
         id="path20" /></clipPath><clipPath
       clipPathUnits="userSpaceOnUse"
       id="clipPath40"><path
         d="M 57.6,38.016 H 414.72 V 304.128 H 57.6 Z"
         id="path38" /></clipPath><clipPath
       clipPathUnits="userSpaceOnUse"
       id="clipPath58"><path
         d="M 57.6,38.016 H 414.72 V 304.128 H 57.6 Z"
         id="path56" /></clipPath><clipPath
       clipPathUnits="userSpaceOnUse"
       id="clipPath76"><path
         d="M 57.6,38.016 H 414.72 V 304.128 H 57.6 Z"
         id="path74" /></clipPath><clipPath
       clipPathUnits="userSpaceOnUse"
       id="clipPath94"><path
         d="M 57.6,38.016 H 414.72 V 304.128 H 57.6 Z"
         id="path92" /></clipPath><clipPath
       clipPathUnits="userSpaceOnUse"
       id="clipPath112"><path
         d="M 57.6,38.016 H 414.72 V 304.128 H 57.6 Z"
         id="path110" /></clipPath><clipPath
       clipPathUnits="userSpaceOnUse"
       id="clipPath130"><path
         d="M 57.6,38.016 H 414.72 V 304.128 H 57.6 Z"
         id="path128" /></clipPath><clipPath
       clipPathUnits="userSpaceOnUse"
       id="clipPath152"><path
         d="M 57.6,38.016 H 414.72 V 304.128 H 57.6 Z"
         id="path150" /></clipPath><clipPath
       clipPathUnits="userSpaceOnUse"
       id="clipPath170"><path
         d="M 57.6,38.016 H 414.72 V 304.128 H 57.6 Z"
         id="path168" /></clipPath><clipPath
       clipPathUnits="userSpaceOnUse"
       id="clipPath188"><path
         d="M 57.6,38.016 H 414.72 V 304.128 H 57.6 Z"
         id="path186" /></clipPath><clipPath
       clipPathUnits="userSpaceOnUse"
       id="clipPath206"><path
         d="M 57.6,38.016 H 414.72 V 304.128 H 57.6 Z"
         id="path204" /></clipPath><clipPath
       clipPathUnits="userSpaceOnUse"
       id="clipPath224"><path
         d="M 57.6,38.016 H 414.72 V 304.128 H 57.6 Z"
         id="path222" /></clipPath><clipPath
       clipPathUnits="userSpaceOnUse"
       id="clipPath242"><path
         d="M 57.6,38.016 H 414.72 V 304.128 H 57.6 Z"
         id="path240" /></clipPath><clipPath
       clipPathUnits="userSpaceOnUse"
       id="clipPath264"><path
         d="M 57.6,38.016 H 414.72 V 304.128 H 57.6 Z"
         id="path262" /></clipPath><clipPath
       clipPathUnits="userSpaceOnUse"
       id="clipPath274"><path
         d="M 57.6,38.016 H 414.72 V 304.128 H 57.6 Z"
         id="path272" /></clipPath><clipPath
       clipPathUnits="userSpaceOnUse"
       id="clipPath284"><path
         d="M 57.6,38.016 H 414.72 V 304.128 H 57.6 Z"
         id="path282" /></clipPath><clipPath
       clipPathUnits="userSpaceOnUse"
       id="clipPath294"><path
         d="M 57.6,38.016 H 414.72 V 304.128 H 57.6 Z"
         id="path292" /></clipPath><clipPath
       clipPathUnits="userSpaceOnUse"
       id="clipPath304"><path
         d="M 57.6,38.016 H 414.72 V 304.128 H 57.6 Z"
         id="path302" /></clipPath><clipPath
       clipPathUnits="userSpaceOnUse"
       id="clipPath314"><path
         d="M 57.6,38.016 H 414.72 V 304.128 H 57.6 Z"
         id="path312" /></clipPath></defs><sodipodi:namedview
     pagecolor="#ffffff"
     bordercolor="#666666"
     borderopacity="1"
     objecttolerance="10"
     gridtolerance="10"
     guidetolerance="10"
     inkscape:pageopacity="0"
     inkscape:pageshadow="2"
     inkscape:window-width="1920"
     inkscape:window-height="1020"
     id="namedview4"
     showgrid="false"
     fit-margin-top="0"
     fit-margin-left="0"
     fit-margin-right="0"
     fit-margin-bottom="0"
     units="mm"
     inkscape:zoom="2.6301672"
     inkscape:cx="99.380279"
     inkscape:cy="120.12292"
     inkscape:window-x="0"
     inkscape:window-y="0"
     inkscape:window-maximized="1"
     inkscape:current-layer="layer1" /><g
     id="g10"
     inkscape:groupmode="layer"
     inkscape:label="pearson_chr19"
     transform="matrix(1.3333333,0,0,-1.3333333,-28.023958,443.59358)"><g
       id="g16"
       transform="matrix(0.57532326,0,0,0.57532326,8.9258425,142.00081)"><g
         id="g18"
         clip-path="url(#clipPath22)"><path
           d="M 57.6,38.016 V 304.128"
           style="fill:none;stroke:#b0b0b0;stroke-width:0.8;stroke-linecap:square;stroke-linejoin:round;stroke-miterlimit:10;stroke-dasharray:none;stroke-opacity:1"
           id="path24" /></g></g><path
       d="m 42.064462,163.8723 v -2.01363"
       style="fill:#000000;fill-opacity:1;fill-rule:nonzero;stroke:#000000;stroke-width:0.460258;stroke-linecap:butt;stroke-linejoin:round;stroke-miterlimit:10;stroke-dasharray:none;stroke-opacity:1"
       id="path28" /><g
       id="g34"
       transform="matrix(0.57532326,0,0,0.57532326,8.9258425,142.00081)"><g
         id="g36"
         clip-path="url(#clipPath40)"><path
           d="M 113.83937,38.016 V 304.128"
           style="fill:none;stroke:#b0b0b0;stroke-width:0.8;stroke-linecap:square;stroke-linejoin:round;stroke-miterlimit:10;stroke-dasharray:none;stroke-opacity:1"
           id="path42" /></g></g><path
       d="m 74.420281,163.8723 v -2.01363"
       style="fill:#000000;fill-opacity:1;fill-rule:nonzero;stroke:#000000;stroke-width:0.460258;stroke-linecap:butt;stroke-linejoin:round;stroke-miterlimit:10;stroke-dasharray:none;stroke-opacity:1"
       id="path46" /><g
       id="g52"
       transform="matrix(0.57532326,0,0,0.57532326,8.9258425,142.00081)"><g
         id="g54"
         clip-path="url(#clipPath58)"><path
           d="M 170.07874,38.016 V 304.128"
           style="fill:none;stroke:#b0b0b0;stroke-width:0.8;stroke-linecap:square;stroke-linejoin:round;stroke-miterlimit:10;stroke-dasharray:none;stroke-opacity:1"
           id="path60" /></g></g><path
       d="m 106.7761,163.8723 v -2.01363"
       style="fill:#000000;fill-opacity:1;fill-rule:nonzero;stroke:#000000;stroke-width:0.460258;stroke-linecap:butt;stroke-linejoin:round;stroke-miterlimit:10;stroke-dasharray:none;stroke-opacity:1"
       id="path64" /><g
       id="g70"
       transform="matrix(0.57532326,0,0,0.57532326,8.9258425,142.00081)"><g
         id="g72"
         clip-path="url(#clipPath76)"><path
           d="M 226.31811,38.016 V 304.128"
           style="fill:none;stroke:#b0b0b0;stroke-width:0.8;stroke-linecap:square;stroke-linejoin:round;stroke-miterlimit:10;stroke-dasharray:none;stroke-opacity:1"
           id="path78" /></g></g><path
       d="m 60.227425,172.83867 h 11.50647"
       style="fill:none;stroke:#d62728;stroke-width:0.862985;stroke-linecap:square;stroke-linejoin:round;stroke-miterlimit:10;stroke-dasharray:none;stroke-opacity:1"
       id="path366" /><path
       d="m 139.13192,163.8723 v -2.01363"
       style="fill:#000000;fill-opacity:1;fill-rule:nonzero;stroke:#000000;stroke-width:0.460258;stroke-linecap:butt;stroke-linejoin:round;stroke-miterlimit:10;stroke-dasharray:none;stroke-opacity:1"
       id="path82" /><g
       id="g88"
       transform="matrix(0.57532326,0,0,0.57532326,8.9258425,142.00081)"><g
         id="g90"
         clip-path="url(#clipPath94)"><path
           d="M 282.55748,38.016 V 304.128"
           style="fill:none;stroke:#b0b0b0;stroke-width:0.8;stroke-linecap:square;stroke-linejoin:round;stroke-miterlimit:10;stroke-dasharray:none;stroke-opacity:1"
           id="path96" /></g></g><path
       d="m 171.48773,163.8723 v -2.01363"
       style="fill:#000000;fill-opacity:1;fill-rule:nonzero;stroke:#000000;stroke-width:0.460258;stroke-linecap:butt;stroke-linejoin:round;stroke-miterlimit:10;stroke-dasharray:none;stroke-opacity:1"
       id="path100" /><g
       id="g106"
       transform="matrix(0.57532326,0,0,0.57532326,8.9258425,142.00081)"><g
         id="g108"
         clip-path="url(#clipPath112)"><path
           d="M 338.79685,38.016 V 304.128"
           style="fill:none;stroke:#b0b0b0;stroke-width:0.8;stroke-linecap:square;stroke-linejoin:round;stroke-miterlimit:10;stroke-dasharray:none;stroke-opacity:1"
           id="path114" /></g></g><path
       d="m 203.84355,163.8723 v -2.01363"
       style="fill:#000000;fill-opacity:1;fill-rule:nonzero;stroke:#000000;stroke-width:0.460258;stroke-linecap:butt;stroke-linejoin:round;stroke-miterlimit:10;stroke-dasharray:none;stroke-opacity:1"
       id="path118" /><g
       id="g124"
       transform="matrix(0.57532326,0,0,0.57532326,8.9258425,142.00081)"><g
         id="g126"
         clip-path="url(#clipPath130)"><path
           d="M 395.03622,38.016 V 304.128"
           style="fill:none;stroke:#b0b0b0;stroke-width:0.8;stroke-linecap:square;stroke-linejoin:round;stroke-miterlimit:10;stroke-dasharray:none;stroke-opacity:1"
           id="path132" /></g></g><path
       d="m 236.19937,163.8723 v -2.01363"
       style="fill:#000000;fill-opacity:1;fill-rule:nonzero;stroke:#000000;stroke-width:0.460258;stroke-linecap:butt;stroke-linejoin:round;stroke-miterlimit:10;stroke-dasharray:none;stroke-opacity:1"
       id="path136" /><g
       id="g146"
       transform="matrix(0.57532326,0,0,0.57532326,8.9258425,142.00081)"><g
         id="g148"
         clip-path="url(#clipPath152)"><path
           d="M 57.6,38.016 H 414.72"
           style="fill:none;stroke:#b0b0b0;stroke-width:0.8;stroke-linecap:square;stroke-linejoin:round;stroke-miterlimit:10;stroke-dasharray:none;stroke-opacity:1"
           id="path154" /></g></g><path
       d="M 42.064462,163.8723 H 40.050831"
       style="fill:#000000;fill-opacity:1;fill-rule:nonzero;stroke:#000000;stroke-width:0.460258;stroke-linecap:butt;stroke-linejoin:round;stroke-miterlimit:10;stroke-dasharray:none;stroke-opacity:1"
       id="path158" /><g
       id="g164"
       transform="matrix(0.57532326,0,0,0.57532326,8.9258425,142.00081)"><g
         id="g166"
         clip-path="url(#clipPath170)"><path
           d="M 57.6,91.2384 H 414.72"
           style="fill:none;stroke:#b0b0b0;stroke-width:0.8;stroke-linecap:square;stroke-linejoin:round;stroke-miterlimit:10;stroke-dasharray:none;stroke-opacity:1"
           id="path172" /></g></g><path
       d="M 42.064462,194.49238 H 40.050831"
       style="fill:#000000;fill-opacity:1;fill-rule:nonzero;stroke:#000000;stroke-width:0.460258;stroke-linecap:butt;stroke-linejoin:round;stroke-miterlimit:10;stroke-dasharray:none;stroke-opacity:1"
       id="path176" /><g
       id="g182"
       transform="matrix(0.57532326,0,0,0.57532326,8.9258425,142.00081)"><g
         id="g184"
         clip-path="url(#clipPath188)"><path
           d="M 57.6,144.4608 H 414.72"
           style="fill:none;stroke:#b0b0b0;stroke-width:0.8;stroke-linecap:square;stroke-linejoin:round;stroke-miterlimit:10;stroke-dasharray:none;stroke-opacity:1"
           id="path190" /></g></g><path
       d="M 42.064462,225.11247 H 40.050831"
       style="fill:#000000;fill-opacity:1;fill-rule:nonzero;stroke:#000000;stroke-width:0.460258;stroke-linecap:butt;stroke-linejoin:round;stroke-miterlimit:10;stroke-dasharray:none;stroke-opacity:1"
       id="path194" /><g
       id="g200"
       transform="matrix(0.57532326,0,0,0.57532326,8.9258425,142.00081)"><g
         id="g202"
         clip-path="url(#clipPath206)"><path
           d="M 57.6,197.6832 H 414.72"
           style="fill:none;stroke:#b0b0b0;stroke-width:0.8;stroke-linecap:square;stroke-linejoin:round;stroke-miterlimit:10;stroke-dasharray:none;stroke-opacity:1"
           id="path208" /></g></g><path
       d="M 42.064462,255.73255 H 40.050831"
       style="fill:#000000;fill-opacity:1;fill-rule:nonzero;stroke:#000000;stroke-width:0.460258;stroke-linecap:butt;stroke-linejoin:round;stroke-miterlimit:10;stroke-dasharray:none;stroke-opacity:1"
       id="path212" /><g
       id="g218"
       transform="matrix(0.57532326,0,0,0.57532326,8.9258425,142.00081)"><g
         id="g220"
         clip-path="url(#clipPath224)"><path
           d="M 57.6,250.9056 H 414.72"
           style="fill:none;stroke:#b0b0b0;stroke-width:0.8;stroke-linecap:square;stroke-linejoin:round;stroke-miterlimit:10;stroke-dasharray:none;stroke-opacity:1"
           id="path226" /></g></g><path
       d="M 42.064462,286.35264 H 40.050831"
       style="fill:#000000;fill-opacity:1;fill-rule:nonzero;stroke:#000000;stroke-width:0.460258;stroke-linecap:butt;stroke-linejoin:round;stroke-miterlimit:10;stroke-dasharray:none;stroke-opacity:1"
       id="path230" /><g
       id="g236"
       transform="matrix(0.57532326,0,0,0.57532326,8.9258425,142.00081)"><g
         id="g238"
         clip-path="url(#clipPath242)"><path
           d="M 57.6,304.128 H 414.72"
           style="fill:none;stroke:#b0b0b0;stroke-width:0.8;stroke-linecap:square;stroke-linejoin:round;stroke-miterlimit:10;stroke-dasharray:none;stroke-opacity:1"
           id="path244" /></g></g><path
       d="M 42.064462,316.97272 H 40.050831"
       style="fill:#000000;fill-opacity:1;fill-rule:nonzero;stroke:#000000;stroke-width:0.460258;stroke-linecap:butt;stroke-linejoin:round;stroke-miterlimit:10;stroke-dasharray:none;stroke-opacity:1"
       id="path248" /><g
       id="g260"
       clip-path="url(#clipPath264)"
       transform="matrix(0.57532326,0,0,0.57532326,8.9258425,142.00081)"><path
         d="m 57.6,265.68085 2.811969,-6.38478 2.811968,-16.95855 2.811969,-6.63952 2.811968,-2.05432 2.811969,-0.6714 2.811968,-2.29099 2.811969,-6.29507 2.811968,-2.11504 2.811969,-1.74567 2.811968,-1.24024 2.811969,-7.90249 2.811968,1.12515 2.811969,-2.53448 2.811968,0.45708 2.811969,-4.41653 2.811972,-2.86117 2.81197,0.90845 2.81196,-3.49829 2.81197,-2.11404 2.81197,0.18141 2.81197,-0.60307 2.81197,-0.2291 2.81197,-1.97092 2.81196,-2.27551 2.81197,-6.98898 2.81197,0.82126 2.81197,-1.80518 2.81197,-2.31225 2.81197,-2.07202 2.81196,-5.59562 2.81197,4.68619 2.81197,-3.02179 2.81197,-1.96965 2.81197,0.0439 2.81197,-1.59282 2.81197,-3.96165 2.81196,1.53342 2.81197,-1.06445 2.81197,1.06453 2.81197,-6.08096 2.81197,8.62257 2.81197,-3.6906 2.81197,0.93819 2.81196,-0.3698 2.81197,-4.44505 2.81197,0.007 2.81197,6.94599 2.81197,-5.52639 2.81197,1.85352 2.81197,1.2305 2.81196,4.66996 2.81197,-2.32655 2.81197,1.46028 2.81197,-0.23114 2.81197,1.37334 2.81197,-2.80378 2.81197,0.81184 2.81196,-1.3631 5.62394,-1.9766 2.81197,2.33326 2.81197,-2.69337 2.81197,1.45243 2.81196,-5.3467 2.81197,0.43343 2.81197,-0.78412 2.81197,7.59204 2.81197,-3.27261 2.81197,-5.11713 2.81196,2.75388 2.81197,-3.58326 2.81197,-4.11907 2.81197,-0.13962 2.81197,-7.01597 2.81197,0.96221 2.81197,-7.54082 2.81196,11.04779 2.81197,-5.18712 2.81197,7.60045 2.81197,-6.56991 2.81197,1.5504 2.81197,0.37877 5.62393,1.01369 2.81197,2.71227 2.81197,-5.08167 2.81197,-0.90502 5.62394,8.51136 2.81196,-1.64338 2.81197,-4.87718 2.81197,-0.89547 2.81197,1.28146 2.81197,-0.137 2.81197,0.57614 2.81197,7.78787 2.81197,-4.24719 2.81196,-1.19541 2.81197,-4.68564 2.81197,-3.00761 2.81197,3.84676 2.81197,-0.45071 2.81197,4.09258 2.81196,-2.79756 2.81197,0.33835 2.81197,-2.3106 2.81197,2.79394 2.81197,5.43142 2.81197,-3.00563 2.81196,-2.62977 2.81197,2.02514 2.81197,3.90974 2.81197,-0.96297 2.81197,3.57196 2.81197,-3.19501 2.81197,-7.53356 2.81196,-2.86767 2.81197,-10.12013 2.81197,-3.27727 2.81197,-6.08368 2.81197,-10.33444 2.81197,5.00533 2.81197,-20.68656 2.81196,-5.752668 2.81197,-7.122338 2.81197,-24.194606 2.81197,-0.652996 v 0"
         style="fill:none;stroke:#1f77b4;stroke-width:1.5;stroke-linecap:square;stroke-linejoin:round;stroke-miterlimit:10;stroke-dasharray:none;stroke-opacity:1"
         id="path266" /></g><g
       id="g270"
       clip-path="url(#clipPath274)"
       transform="matrix(0.57532326,0,0,0.57532326,8.9258425,142.00081)"><path
         d="m 57.6,263.7414 2.811969,-4.68891 2.811968,-17.2316 2.811969,-5.95403 2.811968,-1.00928 2.811969,-0.0844 2.811968,-2.80771 2.811969,-5.7018 2.811968,-2.69064 2.811969,-1.91575 2.811968,-3.20577 2.811969,-7.50402 2.811968,-0.65451 2.811969,-1.67682 2.811968,1.38159 2.811969,-4.18171 2.811972,-1.94697 2.81197,-0.58501 2.81196,-5.15194 2.81197,-0.78108 2.81197,0.49146 2.81197,-2.00048 2.81197,2.91649 2.81197,-0.34258 2.81196,-3.62191 2.81197,-6.04687 2.81197,0.54528 2.81197,-1.91497 2.81197,-1.3199 2.81197,-2.07505 2.81196,-6.32644 2.81197,5.47544 2.81197,-3.68931 2.81197,-0.85026 2.81197,-1.26537 2.81197,-0.36646 2.81197,-5.66783 2.81196,3.54256 2.81197,-0.51623 2.81197,0.96313 2.81197,-5.79276 2.81197,9.6278 2.81197,-1.86596 2.81197,0.0644 2.81196,-2.53423 2.81197,-1.05811 2.81197,0.90847 2.81197,6.30527 2.81197,-2.13321 2.81197,-1.63636 2.81197,0.57884 2.81196,6.26062 2.81197,-3.11273 2.81197,0.15958 2.81197,2.72016 2.81197,-1.44946 2.81197,-2.24915 2.81197,1.2486 2.81196,-1.95248 5.62394,-2.06249 2.81197,0.79777 2.81197,-3.01348 2.81197,3.32384 2.81196,-6.38998 2.81197,1.73279 2.81197,0.47018 2.81197,6.03591 2.81197,-3.17191 2.81197,-3.66287 2.81196,0.4129 2.81197,-3.45859 2.81197,-5.62149 2.81197,-0.29814 2.81197,-5.57281 2.81197,0.71999 2.81197,-6.84772 2.81196,11.74476 2.81197,-5.47817 2.81197,7.0462 2.81197,-4.29698 2.81197,1.60612 5.62394,-0.83563 2.81196,0.81065 2.81197,2.7501 2.81197,-2.56035 2.81197,-0.77456 2.81197,2.8826 2.81197,5.57618 2.81196,-3.32047 2.81197,-4.55967 2.81197,1.61986 2.81197,0.23906 2.81197,2.03355 2.81197,0.0736 2.81197,4.06806 5.62393,0.51901 2.81197,-2.94871 2.81197,-0.61922 2.81197,0.86523 2.81197,1.34529 2.81197,1.73802 2.81196,-1.22943 2.81197,1.51362 2.81197,-0.35442 2.81197,-0.2174 2.81197,4.48575 2.81197,1.4505 2.81196,-1.88338 2.81197,5.1767 2.81197,-1.70562 2.81197,-8.02115 2.81197,6.35914 2.81197,-8.4084 2.81197,1.89495 2.81196,-2.54311 2.81197,-10.42048 2.81197,-3.6467 2.81197,-5.42556 2.81197,-13.98595 2.81197,-4.32587 2.81197,9.69147 2.81196,-7.81566 2.81197,-18.47442 2.81197,-16.071218 2.81197,-22.761074 v 0"
         style="fill:none;stroke:#ff7f0e;stroke-width:1.5;stroke-linecap:square;stroke-linejoin:round;stroke-miterlimit:10;stroke-dasharray:none;stroke-opacity:1"
         id="path276" /></g><g
       id="g280"
       clip-path="url(#clipPath284)"
       transform="matrix(0.57532326,0,0,0.57532326,8.9258425,142.00081)"><path
         d="m 57.6,262.95691 2.811969,-3.96067 2.811968,-15.63134 2.811969,-3.15457 2.811968,-1.49141 2.811969,-1.82929 2.811968,-5.13606 2.811969,-5.96429 2.811968,-0.37451 2.811969,-1.32887 2.811968,-1.92464 2.811969,-7.30909 2.811968,-2.24704 2.811969,-3.46159 2.811968,1.5764 2.811969,-2.40814 2.811972,-0.14835 2.81197,-1.25206 2.81196,-3.28189 2.81197,-1.54244 2.81197,-0.98465 2.81197,-2.32901 2.81197,1.37537 2.81197,-1.77434 2.81196,-2.33086 2.81197,-5.71917 2.81197,1.51217 2.81197,0.16198 2.81197,-1.81048 2.81197,-1.271 2.81196,-5.72743 2.81197,5.13919 2.81197,-4.30952 2.81197,0.77888 2.81197,-1.05912 2.81197,0.1007 2.81197,-4.50457 2.81196,1.65129 2.81197,-1.17924 2.81197,1.94676 2.81197,-7.63309 2.81197,10.21777 2.81197,-2.94208 2.81197,0.1119 2.81196,-2.6241 2.81197,0.0275 2.81197,-0.48986 2.81197,7.63801 2.81197,-3.84221 2.81197,1.08585 2.81197,-1.49612 2.81196,6.23027 2.81197,-2.76644 2.81197,0.23923 2.81197,2.55785 2.81197,0.79671 2.81197,-1.97254 2.81197,0.45293 2.81196,-1.92592 2.81197,0.0867 2.81197,-1.65608 2.81197,1.35336 2.81197,-2.83913 2.81197,4.76272 2.81196,-7.44519 2.81197,0.54364 2.81197,0.82096 2.81197,4.84479 2.81197,-3.57512 2.81197,-1.29141 2.81196,-0.12641 2.81197,-2.38002 2.81197,-3.82002 2.81197,-0.86528 2.81197,-4.3154 2.81197,0.90324 2.81197,-8.67707 2.81196,12.34535 2.81197,-5.42988 2.81197,8.03512 2.81197,-4.86289 2.81197,1.02131 2.81197,-1.49076 2.81197,-0.0259 2.81196,2.29004 2.81197,2.0487 2.81197,-3.47768 2.81197,-0.14799 2.81197,1.79641 2.81197,5.50623 2.81196,-4.70322 2.81197,-2.66264 2.81197,0.75997 2.81197,1.17217 2.81197,0.90436 2.81197,1.79671 2.81197,1.94949 2.81197,2.74004 2.81196,0.22211 2.81197,-2.11481 2.81197,0.64421 2.81197,-1.28568 2.81197,-0.0208 2.81197,-1.3431 2.81196,1.95513 2.81197,0.76361 2.81197,-2.72322 2.81197,-0.56411 2.81197,5.8177 2.81197,-0.16404 2.81196,-1.6607 2.81197,-0.15766 2.81197,-1.98751 2.81197,-7.91205 2.81197,5.4685 2.81197,-6.9117 2.81197,-1.75505 2.81196,1.27342 2.81197,-13.53824 2.81197,-1.30873 2.81197,-4.09132 2.81197,-10.04085 2.81197,3.93897 2.81197,-6.90282 2.81196,-5.57902 2.81197,-11.45661 2.81197,-28.181661 2.81197,-17.543518 v 0"
         style="fill:none;stroke:#2ca02c;stroke-width:1.5;stroke-linecap:square;stroke-linejoin:round;stroke-miterlimit:10;stroke-dasharray:none;stroke-opacity:1"
         id="path286" /></g><g
       id="g290"
       clip-path="url(#clipPath294)"
       style="stroke:#8c564b;stroke-opacity:1"
       transform="matrix(0.57532326,0,0,0.57532326,8.9258425,142.00081)"><path
         d="m 57.6,264.21531 2.811969,-4.78211 2.811968,-14.30775 2.811969,-1.38327 2.811968,-2.14795 2.811969,-2.34446 2.811968,-4.8065 2.811969,-6.96514 2.811968,0.12445 2.811969,-1.10665 2.811968,-1.8621 2.811969,-7.61073 2.811968,-2.46169 2.811969,-3.37631 2.811968,1.50148 5.623941,-1.23607 2.81197,-2.22299 2.81196,-3.90999 2.81197,-1.83721 2.81197,-0.98638 2.81197,-3.32158 2.81197,0.96614 2.81197,-1.93198 2.81196,-2.54824 2.81197,-5.71694 2.81197,1.19344 2.81197,0.61221 2.81197,-2.42851 2.81197,-1.11821 2.81196,-6.13478 2.81197,4.28275 2.81197,-4.39198 2.81197,0.91052 2.81197,-1.96685 2.81197,1.76211 2.81197,-3.41827 2.81196,1.00105 2.81197,-1.15833 2.81197,2.58035 2.81197,-7.2372 2.81197,10.25396 2.81197,-3.10328 2.81197,-0.90797 2.81196,-0.77872 5.62394,-0.44452 2.81197,6.58331 2.81197,-3.06544 2.81197,-0.59822 2.81197,-1.96762 2.81196,5.24264 2.81197,-1.71006 2.81197,-1.30187 2.81197,2.8467 2.81197,1.65764 2.81197,-1.91071 2.81197,-0.82358 2.81196,-1.04508 2.81197,-0.87927 2.81197,-3.32086 2.81197,1.68581 2.81197,-3.60952 2.81197,7.0177 2.81196,-8.4565 2.81197,1.90544 2.81197,1.41209 2.81197,5.28729 2.81197,-3.62014 2.81197,0.35812 2.81196,-0.19825 2.81197,-3.15929 2.81197,-2.19535 2.81197,-1.29558 2.81197,-4.2026 2.81197,0.9054 2.81197,-8.85764 2.81196,12.58029 2.81197,-5.25051 2.81197,8.37732 2.81197,-5.21901 2.81197,0.54797 2.81197,-1.0102 2.81197,-0.39181 2.81196,2.77762 2.81197,1.71341 2.81197,-3.06274 2.81197,-0.0166 2.81197,1.69107 2.81197,4.29202 2.81196,-4.57583 2.81197,-2.62143 2.81197,-1.00574 2.81197,2.08859 2.81197,0.58896 2.81197,1.43403 2.81197,2.1451 2.81197,3.81265 2.81196,-0.13839 2.81197,-3.41216 2.81197,1.49125 2.81197,-0.69908 2.81197,1.06775 2.81197,-1.63098 2.81196,3.63398 2.81197,0.73831 2.81197,-0.79509 2.81197,-0.0225 2.81197,2.80381 2.81197,1.07789 2.81196,0.0448 2.81197,-1.2444 2.81197,1.17611 2.81197,-9.85264 2.81197,5.9834 2.81197,-6.34532 2.81197,-1.1658 2.81196,1.04255 2.81197,-12.6221 2.81197,3.18346 2.81197,-8.14176 2.81197,-5.44053 2.81197,0.83514 2.81197,-6.83176 2.81196,-3.51221 5.62394,-39.13758 2.81197,-11.702113 v 0"
         style="fill:none;stroke:#8c564b;stroke-width:1.5;stroke-linecap:square;stroke-linejoin:round;stroke-miterlimit:10;stroke-dasharray:none;stroke-opacity:1"
         id="path296" /></g><g
       id="g300"
       clip-path="url(#clipPath304)"
       transform="matrix(0.57532326,0,0,0.57532326,8.9258425,142.00081)"><path
         d="m 57.6,263.53974 2.811969,-4.77986 2.811968,-13.89658 2.811969,-0.50812 2.811968,-1.772 2.811969,-2.28561 2.811968,-4.84934 2.811969,-6.77185 2.811968,0.3973 2.811969,-1.35093 2.811968,-1.12179 2.811969,-6.3815 2.811968,-2.23699 2.811969,-3.37333 2.811968,1.17813 2.811969,-1.93738 2.811972,-1.11405 2.81197,-1.8915 2.81196,-4.62345 2.81197,-2.89546 5.62394,-3.45589 2.81197,0.74811 2.81197,-1.17759 2.81196,-1.57998 2.81197,-5.83501 2.81197,1.08943 2.81197,0.47763 2.81197,-3.12302 2.81197,-1.01513 2.81196,-6.39815 2.81197,4.53919 2.81197,-4.81672 2.81197,0.44768 2.81197,-1.68854 2.81197,1.29801 2.81197,-2.59031 2.81196,1.07105 2.81197,-0.44439 2.81197,2.74271 2.81197,-6.39522 2.81197,10.07233 2.81197,-2.75187 2.81197,-1.44139 2.81196,-0.31703 2.81197,-1.07163 2.81197,0.16729 2.81197,6.31567 2.81197,-3.57058 2.81197,-0.7076 2.81197,-1.76323 2.81196,4.59207 5.62394,-2.98216 2.81197,2.76799 2.81197,0.83636 2.81197,-1.96663 2.81197,-1.05013 2.81196,-1.32134 2.81197,-0.73731 2.81197,-3.5276 2.81197,1.9237 2.81197,-3.95058 2.81197,7.62151 2.81196,-7.94248 5.62394,3.93027 2.81197,3.15492 2.81197,-2.56396 2.81197,0.75167 2.81196,0.31098 2.81197,-3.7252 2.81197,-1.86068 2.81197,-1.07286 2.81197,-3.52546 2.81197,0.68048 2.81197,-7.97766 2.81196,11.81895 2.81197,-6.24119 2.81197,9.74281 2.81197,-5.82539 2.81197,1.491 2.81197,-0.31439 2.81197,-0.77398 2.81196,2.05013 2.81197,2.53908 2.81197,-3.24712 2.81197,0.36597 2.81197,1.4669 2.81197,3.39513 2.81196,-4.42579 2.81197,-2.3147 2.81197,-2.13622 2.81197,3.7942 2.81197,0.28657 2.81197,0.96476 2.81197,2.97012 2.81197,3.78253 2.81196,-0.49012 2.81197,-4.21282 2.81197,2.03828 5.62394,0.29832 2.81197,-1.86956 2.81196,3.69175 2.81197,0.84339 2.81197,0.42621 2.81197,-1.4676 2.81197,2.79112 2.81197,0.42222 2.81196,0.73864 2.81197,1.58526 2.81197,-4.50315 2.81197,-9.07741 2.81197,5.55246 2.81197,-6.68125 2.81197,-1.43105 2.81196,3.4409 2.81197,-7.41054 2.81197,-0.12985 2.81197,-10.40609 2.81197,-6.59105 2.81197,-1.65514 2.81197,-1.29493 2.81196,-16.14466 5.62394,-24.43398 2.81197,-20.045017 v 0"
         style="fill:none;stroke:#9467bd;stroke-width:1.5;stroke-linecap:square;stroke-linejoin:round;stroke-miterlimit:10;stroke-dasharray:none;stroke-opacity:1"
         id="path306" /></g><g
       id="g310"
       clip-path="url(#clipPath314)"
       style="stroke:#d62728;stroke-opacity:1"
       transform="matrix(0.57532326,0,0,0.57532326,8.9258425,142.00081)"><path
         d="m 57.6,291.55425 2.811969,-7.91935 2.811968,-4.63818 5.623937,-4.85649 2.811969,-0.58407 2.811968,-1.19697 2.811969,0.42846 2.811968,1.57651 2.811969,-4.10247 2.811968,1.53684 2.811969,-1.96209 2.811968,-3.22683 2.811969,-2.88673 2.811968,-1.84201 2.811969,-0.8258 2.811972,-1.77743 2.81197,-3.57772 5.62393,-3.18057 2.81197,1.33641 2.81197,-3.06377 2.81197,1.08753 2.81197,-2.07006 2.81196,-0.33731 2.81197,-2.02826 2.81197,-1.68424 2.81197,-0.20954 2.81197,1.09271 2.81197,-1.66319 2.81196,2.44117 2.81197,-4.66657 2.81197,-1.15705 2.81197,0.8792 2.81197,-1.27485 2.81197,1.47453 2.81197,-0.51086 2.81196,-3.8971 2.81197,-0.89346 2.81197,-1.4394 2.81197,-3.89644 2.81197,4.15579 2.81197,-4.56623 2.81197,1.23038 2.81196,-1.76873 2.81197,1.34488 2.81197,-7.9141 2.81197,6.19222 2.81197,-2.48517 2.81197,2.26918 2.81197,1.89879 2.81196,-0.29573 2.81197,1.47827 2.81197,-2.02247 2.81197,-3.55666 2.81197,0.79402 2.81197,3.09362 2.81197,1.11953 5.62393,3.8379 2.81197,4.57676 2.81197,2.18872 2.81197,4.75228 2.81197,-0.11645 2.81196,-9.12973 2.81197,-4.59963 2.81197,1.3461 2.81197,-11.34661 2.81197,1.02609 2.81197,-3.51905 2.81196,-4.28695 2.81197,1.17183 2.81197,6.71272 2.81197,-3.4803 2.81197,7.11149 2.81197,-1.57463 2.81197,0.49895 2.81196,-11.93905 2.81197,-1.73822 2.81197,-2.38213 2.81197,-5.84097 2.81197,7.91694 2.81197,-9.84934 2.81197,10.95137 2.81196,-7.69827 2.81197,4.18972 2.81197,-3.24573 2.81197,1.68669 2.81197,-4.21636 2.81197,0.38637 2.81196,-0.75884 2.81197,-1.16407 2.81197,0.57629 2.81197,4.18591 2.81197,-4.93986 2.81197,5.22496 2.81197,2.3153 2.81197,0.40201 2.81196,-4.54305 2.81197,8.91929 2.81197,-6.62815 2.81197,5.8691 2.81197,-2.70786 2.81197,-2.10313 2.81196,4.30661 2.81197,0.37022 2.81197,-0.0348 2.81197,-0.63873 2.81197,1.02047 2.81197,-4.83711 2.81196,1.59808 2.81197,-0.15665 2.81197,-1.40933 2.81197,-1.99733 2.81197,1.43626 2.81197,-10.98974 2.81197,8.06532 2.81196,-5.47288 2.81197,4.78565 2.81197,-6.39993 2.81197,0.35754 2.81197,-7.55419 5.62394,2.02935 2.81196,4.4669 2.81197,5.96623 2.81197,-8.02446 2.81197,6.30331 v 0"
         style="fill:none;stroke:#d62728;stroke-width:1.5;stroke-linecap:square;stroke-linejoin:round;stroke-miterlimit:10;stroke-dasharray:none;stroke-opacity:1"
         id="path316" /></g><path
       d="M 42.064462,163.8723 V 316.97272"
       style="fill:none;stroke:#000000;stroke-width:0.460258;stroke-linecap:square;stroke-linejoin:miter;stroke-miterlimit:10;stroke-dasharray:none;stroke-opacity:1"
       id="path320" /><path
       d="M 247.52391,163.8723 V 316.97272"
       style="fill:none;stroke:#000000;stroke-width:0.460258;stroke-linecap:square;stroke-linejoin:miter;stroke-miterlimit:10;stroke-dasharray:none;stroke-opacity:1"
       id="path322" /><path
       d="M 42.064462,163.8723 H 247.52391"
       style="fill:none;stroke:#000000;stroke-width:0.460258;stroke-linecap:square;stroke-linejoin:miter;stroke-miterlimit:10;stroke-dasharray:none;stroke-opacity:1"
       id="path324" /><path
       d="M 42.064462,316.97272 H 247.52391"
       style="fill:none;stroke:#000000;stroke-width:0.460258;stroke-linecap:square;stroke-linejoin:miter;stroke-miterlimit:10;stroke-dasharray:none;stroke-opacity:1"
       id="path326" /><path
       d="m 60.227425,215.04402 h 11.50647"
       style="fill:none;stroke:#1f77b4;stroke-width:0.862985;stroke-linecap:square;stroke-linejoin:round;stroke-miterlimit:10;stroke-dasharray:none;stroke-opacity:1"
       id="path336" /><path
       d="m 60.227425,206.60295 h 11.50647"
       style="fill:none;stroke:#ff7f0e;stroke-width:0.862985;stroke-linecap:square;stroke-linejoin:round;stroke-miterlimit:10;stroke-dasharray:none;stroke-opacity:1"
       id="path342" /><path
       d="m 60.227425,198.16188 h 11.50647"
       style="fill:none;stroke:#2ca02c;stroke-width:0.862985;stroke-linecap:square;stroke-linejoin:round;stroke-miterlimit:10;stroke-dasharray:none;stroke-opacity:1"
       id="path348" /><path
       d="m 60.227425,189.72081 h 11.50647"
       style="fill:none;stroke:#8c564b;stroke-width:0.862985;stroke-linecap:square;stroke-linejoin:round;stroke-miterlimit:10;stroke-dasharray:none;stroke-opacity:1"
       id="path354" /><path
       d="m 60.227425,181.27974 h 11.50647"
       style="fill:none;stroke:#9467bd;stroke-width:0.862985;stroke-linecap:square;stroke-linejoin:round;stroke-miterlimit:10;stroke-dasharray:none;stroke-opacity:1"
       id="path360" /></g><g
     inkscape:groupmode="layer"
     id="layer1"
     inkscape:label="text"
     style="display:inline"
     transform="translate(-28.023958,-17.206424)"><text
       style="font-variant:normal;font-weight:normal;font-size:7.67097px;font-family:'DejaVu Sans';-inkscape-font-specification:DejaVuSans;writing-mode:lr-tb;fill:#000000;fill-opacity:1;fill-rule:nonzero;stroke:none;stroke-width:0.767097"
       id="text370"
       x="101.78194"
       y="233.03331"><tspan
         x="101.78194 104.78896 107.94173 112.64406 117.50744 121.50403 124.20419 128.92186 132.07463 134.51399 140.459 147.07906 151.95781 156.83655 161.7153 166.59402 171.47278 173.91214 176.49725 178.93661 184.18356 189.79874 195.15308 197.73822 200.17755 205.0563 207.4957 212.37442 217.25317"
         y="233.03331"
         sodipodi:role="line"
         id="tspan368"
         style="stroke-width:0.767097">transfer GM12878 / AUC: 0.722</tspan></text><text
       style="font-variant:normal;font-weight:normal;font-size:7.67097px;font-family:'DejaVu Sans';-inkscape-font-specification:DejaVuSans;writing-mode:lr-tb;fill:#000000;fill-opacity:1;fill-rule:nonzero;stroke:none;stroke-width:0.767097"
       id="text32"
       x="49.985123"
       y="253.4985"><tspan
         x="49.985123 54.863865 57.303238"
         y="253.4985"
         sodipodi:role="line"
         id="tspan30"
         style="stroke-width:0.767097">0.0</tspan></text><text
       style="font-variant:normal;font-weight:normal;font-size:7.67097px;font-family:'DejaVu Sans';-inkscape-font-specification:DejaVuSans;writing-mode:lr-tb;fill:#000000;fill-opacity:1;fill-rule:nonzero;stroke:none;stroke-width:0.767097"
       id="text50"
       x="93.126221"
       y="253.4985"><tspan
         x="93.126221 98.004951 100.44432"
         y="253.4985"
         sodipodi:role="line"
         id="tspan48"
         style="stroke-width:0.767097">0.5</tspan></text><text
       style="font-variant:normal;font-weight:normal;font-size:7.67097px;font-family:'DejaVu Sans';-inkscape-font-specification:DejaVuSans;writing-mode:lr-tb;fill:#000000;fill-opacity:1;fill-rule:nonzero;stroke:none;stroke-width:0.767097"
       id="text68"
       x="136.2673"
       y="253.4985"><tspan
         x="136.2673 141.14604 143.58542"
         y="253.4985"
         sodipodi:role="line"
         id="tspan66"
         style="stroke-width:0.767097">1.0</tspan></text><text
       style="font-variant:normal;font-weight:normal;font-size:7.67097px;font-family:'DejaVu Sans';-inkscape-font-specification:DejaVuSans;writing-mode:lr-tb;fill:#000000;fill-opacity:1;fill-rule:nonzero;stroke:none;stroke-width:0.767097"
       id="text86"
       x="179.4084"
       y="253.4985"><tspan
         x="179.4084 184.28714 186.7265"
         y="253.4985"
         sodipodi:role="line"
         id="tspan84"
         style="stroke-width:0.767097">1.5</tspan></text><text
       style="font-variant:normal;font-weight:normal;font-size:7.67097px;font-family:'DejaVu Sans';-inkscape-font-specification:DejaVuSans;writing-mode:lr-tb;fill:#000000;fill-opacity:1;fill-rule:nonzero;stroke:none;stroke-width:0.767097"
       id="text104"
       x="222.5495"
       y="253.4985"><tspan
         x="222.5495 227.42822 229.86758"
         y="253.4985"
         sodipodi:role="line"
         id="tspan102"
         style="stroke-width:0.767097">2.0</tspan></text><text
       style="font-variant:normal;font-weight:normal;font-size:7.67097px;font-family:'DejaVu Sans';-inkscape-font-specification:DejaVuSans;writing-mode:lr-tb;fill:#000000;fill-opacity:1;fill-rule:nonzero;stroke:none;stroke-width:0.767097"
       id="text122"
       x="265.69055"
       y="253.4985"><tspan
         x="265.69055 270.56934 273.00867"
         y="253.4985"
         sodipodi:role="line"
         id="tspan120"
         style="stroke-width:0.767097">2.5</tspan></text><text
       style="font-variant:normal;font-weight:normal;font-size:7.67097px;font-family:'DejaVu Sans';-inkscape-font-specification:DejaVuSans;writing-mode:lr-tb;fill:#000000;fill-opacity:1;fill-rule:nonzero;stroke:none;stroke-width:0.767097"
       id="text140"
       x="308.83167"
       y="253.4985"><tspan
         x="308.83167 313.71042 316.14978"
         y="253.4985"
         sodipodi:role="line"
         id="tspan138"
         style="stroke-width:0.767097">3.0</tspan></text><text
       style="font-variant:normal;font-weight:normal;font-size:7.67097px;font-family:'DejaVu Sans';-inkscape-font-specification:DejaVuSans;writing-mode:lr-tb;fill:#000000;fill-opacity:1;fill-rule:nonzero;stroke:none;stroke-width:0.767097"
       id="text144"
       x="146.63152"
       y="263.98602"><tspan
         x="146.63152 152.57654 157.29417 162.15756 166.85222 174.32375 176.45628 180.67532 183.11469 187.98575 190.11827 194.11487 197.12187 201.82419 206.68761 210.90665 215.62428 218.06364 220.64877 223.08813 229.70819 234.57927"
         y="263.98602"
         sodipodi:role="line"
         id="tspan142"
         style="stroke-width:0.767097">Genomic distance / Mbp</tspan></text><text
       style="font-variant:normal;font-weight:normal;font-size:7.67097px;font-family:'DejaVu Sans';-inkscape-font-specification:DejaVuSans;writing-mode:lr-tb;fill:#000000;fill-opacity:1;fill-rule:nonzero;stroke:none;stroke-width:0.767097"
       id="text162"
       x="38.514618"
       y="245.21625"><tspan
         x="38.514618 43.393356 45.832729"
         y="245.21625"
         sodipodi:role="line"
         id="tspan160"
         style="stroke-width:0.767097">0.0</tspan></text><text
       style="font-variant:normal;font-weight:normal;font-size:7.67097px;font-family:'DejaVu Sans';-inkscape-font-specification:DejaVuSans;writing-mode:lr-tb;fill:#000000;fill-opacity:1;fill-rule:nonzero;stroke:none;stroke-width:0.767097"
       id="text180"
       x="38.514618"
       y="204.38947"><tspan
         x="38.514618 43.393356 45.832729"
         y="204.38947"
         sodipodi:role="line"
         id="tspan178"
         style="stroke-width:0.767097">0.2</tspan></text><text
       style="font-variant:normal;font-weight:normal;font-size:7.67097px;font-family:'DejaVu Sans';-inkscape-font-specification:DejaVuSans;writing-mode:lr-tb;fill:#000000;fill-opacity:1;fill-rule:nonzero;stroke:none;stroke-width:0.767097"
       id="text198"
       x="38.514618"
       y="163.5627"><tspan
         x="38.514618 43.393356 45.832729"
         y="163.5627"
         sodipodi:role="line"
         id="tspan196"
         style="stroke-width:0.767097">0.4</tspan></text><text
       style="font-variant:normal;font-weight:normal;font-size:7.67097px;font-family:'DejaVu Sans';-inkscape-font-specification:DejaVuSans;writing-mode:lr-tb;fill:#000000;fill-opacity:1;fill-rule:nonzero;stroke:none;stroke-width:0.767097"
       id="text216"
       x="38.514618"
       y="122.73582"><tspan
         x="38.514618 43.393356 45.832729"
         y="122.73582"
         sodipodi:role="line"
         id="tspan214"
         style="stroke-width:0.767097">0.6</tspan></text><text
       style="font-variant:normal;font-weight:normal;font-size:7.67097px;font-family:'DejaVu Sans';-inkscape-font-specification:DejaVuSans;writing-mode:lr-tb;fill:#000000;fill-opacity:1;fill-rule:nonzero;stroke:none;stroke-width:0.767097"
       id="text234"
       x="38.514618"
       y="81.909058"><tspan
         x="38.514618 43.393356 45.832729"
         y="81.909058"
         sodipodi:role="line"
         id="tspan232"
         style="stroke-width:0.767097">0.8</tspan></text><text
       style="font-variant:normal;font-weight:normal;font-size:7.67097px;font-family:'DejaVu Sans';-inkscape-font-specification:DejaVuSans;writing-mode:lr-tb;fill:#000000;fill-opacity:1;fill-rule:nonzero;stroke:none;stroke-width:0.767097"
       id="text252"
       x="38.514618"
       y="41.082321"><tspan
         x="38.514618 43.393356 45.832729"
         y="41.082321"
         sodipodi:role="line"
         id="tspan250"
         style="stroke-width:0.767097">1.0</tspan></text><text
       transform="rotate(-90)"
       style="font-variant:normal;font-weight:normal;font-size:7.67097px;font-family:'DejaVu Sans';-inkscape-font-specification:DejaVuSans;writing-mode:lr-tb;fill:#000000;fill-opacity:1;fill-rule:nonzero;stroke:none;stroke-width:0.767097"
       id="text256"
       x="-177.29713"
       y="33.8521"><tspan
         x="-177.29713 -172.67154 -167.95387 -163.25156 -160.0988 -156.10222 -151.40758 -146.54419 -144.10483 -139.88579 -135.19115 -132.03836 -128.88559 -124.16786 -122.03533 -117.33301 -114.326 -112.19347 -107.49883"
         y="33.8521"
         sodipodi:role="line"
         id="tspan254"
         style="stroke-width:0.767097">Pearson correlation</tspan></text><text
       style="font-variant:normal;font-weight:normal;font-size:9.20517px;font-family:'DejaVu Sans';-inkscape-font-specification:DejaVuSans;writing-mode:lr-tb;fill:#000000;fill-opacity:1;fill-rule:nonzero;stroke:none;stroke-width:0.767097"
       id="text330"
       x="98.328331"
       y="23.249689"><tspan
         x="98.328331 103.87905 109.54023 115.18302 118.96634 123.76224 129.3958 135.23187 138.15912 143.22195 148.85553 152.63885 156.42218 162.08337 164.64241 170.28517 173.89359 176.45262 182.0862 187.92227 190.84952 196.29898 201.09488 204.02211 206.94939 212.79465 218.45584 224.2919 229.92549 238.89131 241.45035 246.5132 249.44044 255.28574 257.84476 262.64066 266.24908 271.89185 277.72791 282.79077"
         y="23.249689"
         sodipodi:role="line"
         id="tspan328"
         style="stroke-width:0.767097">Pearson correlation vs. genomic distance</tspan></text><text
       style="font-variant:normal;font-weight:normal;font-size:9.20517px;font-family:'DejaVu Sans';-inkscape-font-specification:DejaVuSans;writing-mode:lr-tb;fill:#000000;fill-opacity:1;fill-rule:nonzero;stroke:none;stroke-width:0.767097"
       id="text334"
       x="61.060863"
       y="33.567162"><tspan
         x="61.060863 68.194878 76.138939 81.993423 87.847908 93.7024 99.556892 105.41138 108.33862 111.26587 117.12036 120.04762 125.90209 128.82935 134.68384 137.61108 143.46556 146.39282 152.2473 155.17455 161.02904 166.88351 169.81076 175.66525 181.51974 184.44699 190.30148 196.15596 199.08321 204.9377 210.79219 213.71945 219.57393 225.42842 228.35567 234.21016 240.06465 242.9919 248.84637 254.70088 257.62811 263.4826 269.33707 272.26431 277.89789 283.73398 286.66125 292.69983 298.55432 304.40878 310.26331 313.19055 316.1178 321.97226"
         y="33.567162"
         sodipodi:role="line"
         id="tspan332"
         style="stroke-width:0.767097">GM12878, 1,2,4,7,9,11,13,14,16,17,18,20,22 on K562, 19</tspan></text><text
       style="font-variant:normal;font-weight:normal;font-size:7.67097px;font-family:'DejaVu Sans';-inkscape-font-specification:DejaVuSans;writing-mode:lr-tb;fill:#000000;fill-opacity:1;fill-rule:nonzero;stroke:none;stroke-width:0.767097"
       id="text340"
       x="101.78194"
       y="176.75955"><tspan
         x="101.78194 106.66068 111.53943 113.9788 118.69643 123.5675 126.00688 128.592 131.03139 136.27834 141.89349 147.24782 149.83293 152.27232 157.15106 159.59042 164.46918 169.3479"
         y="176.75955"
         sodipodi:role="line"
         id="tspan338"
         style="stroke-width:0.767097">20 ep / AUC: 0.498</tspan></text><text
       style="font-variant:normal;font-weight:normal;font-size:7.67097px;font-family:'DejaVu Sans';-inkscape-font-specification:DejaVuSans;writing-mode:lr-tb;fill:#000000;fill-opacity:1;fill-rule:nonzero;stroke:none;stroke-width:0.767097"
       id="text346"
       x="101.78194"
       y="188.01431"><tspan
         x="101.78194 106.66068 111.53943 113.9788 118.69643 123.5675 126.00688 128.592 131.03139 136.27834 141.89349 147.24782 149.83293 152.27232 157.15106 159.59042 164.46918 169.3479"
         y="188.01431"
         sodipodi:role="line"
         id="tspan344"
         style="stroke-width:0.767097">40 ep / AUC: 0.528</tspan></text><text
       style="font-variant:normal;font-weight:normal;font-size:7.67097px;font-family:'DejaVu Sans';-inkscape-font-specification:DejaVuSans;writing-mode:lr-tb;fill:#000000;fill-opacity:1;fill-rule:nonzero;stroke:none;stroke-width:0.767097"
       id="text352"
       x="101.78194"
       y="199.26903"><tspan
         x="101.78194 106.66068 111.53943 113.9788 118.69643 123.5675 126.00688 128.592 131.03139 136.27834 141.89349 147.24782 149.83293 152.27232 157.15106 159.59042 164.46918 169.3479"
         y="199.26903"
         sodipodi:role="line"
         id="tspan350"
         style="stroke-width:0.767097">60 ep / AUC: 0.547</tspan></text><text
       style="font-variant:normal;font-weight:normal;font-size:7.67097px;font-family:'DejaVu Sans';-inkscape-font-specification:DejaVuSans;writing-mode:lr-tb;fill:#000000;fill-opacity:1;fill-rule:nonzero;stroke:none;stroke-width:0.767097"
       id="text358"
       x="101.78194"
       y="210.52379"><tspan
         x="101.78194 106.66068 111.53943 113.9788 118.69643 123.5675 126.00688 128.592 131.03139 136.27834 141.89349 147.24782 149.83293 152.27232 157.15106 159.59042 164.46918 169.3479"
         y="210.52379"
         sodipodi:role="line"
         id="tspan356"
         style="stroke-width:0.767097">80 ep / AUC: 0.551</tspan></text><text
       style="font-variant:normal;font-weight:normal;font-size:7.67097px;font-family:'DejaVu Sans';-inkscape-font-specification:DejaVuSans;writing-mode:lr-tb;fill:#000000;fill-opacity:1;fill-rule:nonzero;stroke:none;stroke-width:0.767097"
       id="text364"
       x="101.78194"
       y="221.77855"><tspan
         x="101.78194 106.66068 111.53943 116.41814 118.85753 123.57519 128.44626 130.88564 133.47075 135.91013 141.15706 146.77223 152.12657 154.71169 157.15106 162.02982 164.46918 169.3479 174.22665"
         y="221.77855"
         sodipodi:role="line"
         id="tspan362"
         style="stroke-width:0.767097">100 ep / AUC: 0.556</tspan></text></g></svg>
