<?xml version="1.0" encoding="UTF-8" standalone="no"?>
<svg
   xmlns:dc="http://purl.org/dc/elements/1.1/"
   xmlns:cc="http://creativecommons.org/ns#"
   xmlns:rdf="http://www.w3.org/1999/02/22-rdf-syntax-ns#"
   xmlns:svg="http://www.w3.org/2000/svg"
   xmlns="http://www.w3.org/2000/svg"
   xmlns:sodipodi="http://sodipodi.sourceforge.net/DTD/sodipodi-0.dtd"
   xmlns:inkscape="http://www.inkscape.org/namespaces/inkscape"
   version="1.1"
   id="svg2"
   xml:space="preserve"
   width="80mm"
   height="65.300003mm"
   viewBox="0 0 302.36219 246.80316"
   sodipodi:docname="pearson_chr10.svg"
   inkscape:version="1.0.2 (1.0.2+r75+1)"><metadata
     id="metadata8"><rdf:RDF><cc:Work
         rdf:about=""><dc:format>image/svg+xml</dc:format><dc:type
           rdf:resource="http://purl.org/dc/dcmitype/StillImage" /><dc:title></dc:title></cc:Work></rdf:RDF></metadata><defs
     id="defs6"><clipPath
       clipPathUnits="userSpaceOnUse"
       id="clipPath22"><path
         d="M 57.6,38.016 H 414.72 V 304.128 H 57.6 Z"
         id="path20" /></clipPath><clipPath
       clipPathUnits="userSpaceOnUse"
       id="clipPath40"><path
         d="M 57.6,38.016 H 414.72 V 304.128 H 57.6 Z"
         id="path38" /></clipPath><clipPath
       clipPathUnits="userSpaceOnUse"
       id="clipPath58"><path
         d="M 57.6,38.016 H 414.72 V 304.128 H 57.6 Z"
         id="path56" /></clipPath><clipPath
       clipPathUnits="userSpaceOnUse"
       id="clipPath76"><path
         d="M 57.6,38.016 H 414.72 V 304.128 H 57.6 Z"
         id="path74" /></clipPath><clipPath
       clipPathUnits="userSpaceOnUse"
       id="clipPath94"><path
         d="M 57.6,38.016 H 414.72 V 304.128 H 57.6 Z"
         id="path92" /></clipPath><clipPath
       clipPathUnits="userSpaceOnUse"
       id="clipPath112"><path
         d="M 57.6,38.016 H 414.72 V 304.128 H 57.6 Z"
         id="path110" /></clipPath><clipPath
       clipPathUnits="userSpaceOnUse"
       id="clipPath130"><path
         d="M 57.6,38.016 H 414.72 V 304.128 H 57.6 Z"
         id="path128" /></clipPath><clipPath
       clipPathUnits="userSpaceOnUse"
       id="clipPath152"><path
         d="M 57.6,38.016 H 414.72 V 304.128 H 57.6 Z"
         id="path150" /></clipPath><clipPath
       clipPathUnits="userSpaceOnUse"
       id="clipPath170"><path
         d="M 57.6,38.016 H 414.72 V 304.128 H 57.6 Z"
         id="path168" /></clipPath><clipPath
       clipPathUnits="userSpaceOnUse"
       id="clipPath188"><path
         d="M 57.6,38.016 H 414.72 V 304.128 H 57.6 Z"
         id="path186" /></clipPath><clipPath
       clipPathUnits="userSpaceOnUse"
       id="clipPath206"><path
         d="M 57.6,38.016 H 414.72 V 304.128 H 57.6 Z"
         id="path204" /></clipPath><clipPath
       clipPathUnits="userSpaceOnUse"
       id="clipPath224"><path
         d="M 57.6,38.016 H 414.72 V 304.128 H 57.6 Z"
         id="path222" /></clipPath><clipPath
       clipPathUnits="userSpaceOnUse"
       id="clipPath242"><path
         d="M 57.6,38.016 H 414.72 V 304.128 H 57.6 Z"
         id="path240" /></clipPath><clipPath
       clipPathUnits="userSpaceOnUse"
       id="clipPath264"><path
         d="M 57.6,38.016 H 414.72 V 304.128 H 57.6 Z"
         id="path262" /></clipPath><clipPath
       clipPathUnits="userSpaceOnUse"
       id="clipPath274"><path
         d="M 57.6,38.016 H 414.72 V 304.128 H 57.6 Z"
         id="path272" /></clipPath><clipPath
       clipPathUnits="userSpaceOnUse"
       id="clipPath284"><path
         d="M 57.6,38.016 H 414.72 V 304.128 H 57.6 Z"
         id="path282" /></clipPath><clipPath
       clipPathUnits="userSpaceOnUse"
       id="clipPath294"><path
         d="M 57.6,38.016 H 414.72 V 304.128 H 57.6 Z"
         id="path292" /></clipPath><clipPath
       clipPathUnits="userSpaceOnUse"
       id="clipPath304"><path
         d="M 57.6,38.016 H 414.72 V 304.128 H 57.6 Z"
         id="path302" /></clipPath><clipPath
       clipPathUnits="userSpaceOnUse"
       id="clipPath314"><path
         d="M 57.6,38.016 H 414.72 V 304.128 H 57.6 Z"
         id="path312" /></clipPath></defs><sodipodi:namedview
     pagecolor="#ffffff"
     bordercolor="#666666"
     borderopacity="1"
     objecttolerance="10"
     gridtolerance="10"
     guidetolerance="10"
     inkscape:pageopacity="0"
     inkscape:pageshadow="2"
     inkscape:window-width="1920"
     inkscape:window-height="1020"
     id="namedview4"
     showgrid="false"
     fit-margin-top="0"
     fit-margin-left="0"
     fit-margin-right="0"
     fit-margin-bottom="0"
     units="mm"
     inkscape:zoom="5.2603344"
     inkscape:cx="110.70178"
     inkscape:cy="155.4203"
     inkscape:window-x="0"
     inkscape:window-y="0"
     inkscape:window-maximized="1"
     inkscape:current-layer="layer1" /><g
     id="g10"
     inkscape:groupmode="layer"
     inkscape:label="pearson_chr10"
     transform="matrix(1.3333333,0,0,-1.3333333,-28.023958,443.59358)"><g
       id="g310"
       clip-path="url(#clipPath314)"
       style="stroke:#d62728;stroke-opacity:1"
       transform="matrix(0.57530576,0,0,0.57530576,8.9262104,142.00663)"><path
         d="m 57.6,247.90932 2.811969,-7.52076 2.811968,-2.65937 2.811969,-1.88536 2.811968,0.52976 2.811969,1.62861 2.811968,-0.78099 2.811969,4.81911 2.811968,1.53914 2.811969,-0.0964 5.623937,0.12173 2.811968,-2.90183 2.811969,0.26917 2.811968,-0.43462 2.811969,1.85665 2.811972,-2.11113 2.81197,-1.27992 2.81196,1.15171 2.81197,0.76005 2.81197,-1.58774 2.81197,-2.85307 5.62394,-7.56094 2.81196,-0.20386 2.81197,-2.53893 2.81197,-1.03316 2.81197,1.353 2.81197,-1.33035 2.81197,6.96409 2.81196,3.49152 2.81197,-2.13458 2.81197,-1.13421 2.81197,6.46934 2.81197,-2.6602 2.81197,-2.23414 2.81197,-2.57196 2.81196,4.00756 2.81197,0.20286 2.81197,2.24143 2.81197,-5.13474 2.81197,0.85678 2.81197,2.47076 2.81197,-4.5721 2.81196,-0.72588 2.81197,-2.6974 2.81197,2.4846 2.81197,3.99902 2.81197,-0.52643 2.81197,4.60201 2.81197,-3.33772 2.81196,0.66222 2.81197,1.36407 2.81197,-2.41802 2.81197,-2.17729 2.81197,4.50999 2.81197,-2.00031 2.81197,-1.7031 2.81196,-0.71627 5.62394,-8.35791 2.81197,0.75669 2.81197,0.28714 2.81197,-3.2891 2.81196,-4.35129 2.81197,-3.71248 5.62394,-2.88229 2.81197,-2.43206 2.81197,-0.0443 2.81196,-3.21451 2.81197,2.32576 2.81197,0.25978 2.81197,-3.14626 2.81197,1.61315 2.81197,1.90236 2.81197,2.83 2.81196,-3.78262 2.81197,1.56186 2.81197,-7.33704 2.81197,-0.83324 2.81197,-0.51258 2.81197,-1.44601 2.81197,3.5206 2.81196,-1.00197 2.81197,2.77071 2.81197,-2.3284 2.81197,-3.63504 2.81197,-1.63383 2.81197,3.85755 2.81196,-8.19913 2.81197,5.10807 2.81197,2.23896 2.81197,3.41343 2.81197,-1.77738 2.81197,-4.45979 2.81197,7.89887 2.81197,-1.53412 2.81196,-3.71715 2.81197,-1.64447 2.81197,0.0235 2.81197,-6.09742 2.81197,-0.82862 2.81197,5.28513 2.81196,4.10926 2.81197,3.85636 2.81197,-3.7748 2.81197,-3.97532 2.81197,6.19907 2.81197,-3.52756 2.81196,-7.93146 2.81197,-3.71218 2.81197,1.14051 2.81197,1.95988 2.81197,-6.47105 2.81197,6.28563 2.81197,-6.84291 2.81196,0.73418 2.81197,-2.96108 2.81197,5.50788 2.81197,-4.21205 2.81197,6.94269 2.81197,0.25201 2.81197,-2.62933 2.81196,-4.4128 2.81197,3.09307 2.81197,-2.28705 2.81197,4.68249 v 0"
         style="fill:none;stroke:#d62728;stroke-width:1.5;stroke-linecap:square;stroke-linejoin:round;stroke-miterlimit:10;stroke-dasharray:none;stroke-opacity:1"
         id="path316" /></g><g
       id="g16"
       transform="matrix(0.57530576,0,0,0.57530576,8.9262104,142.00663)"><g
         id="g18"
         clip-path="url(#clipPath22)"><path
           d="M 57.6,38.016 V 304.128"
           style="fill:none;stroke:#b0b0b0;stroke-width:0.8;stroke-linecap:square;stroke-linejoin:round;stroke-miterlimit:10;stroke-dasharray:none;stroke-opacity:1"
           id="path24" /></g></g><path
       d="m 42.063822,163.87745 v -2.01357"
       style="fill:#000000;fill-opacity:1;fill-rule:nonzero;stroke:#000000;stroke-width:0.460245;stroke-linecap:butt;stroke-linejoin:round;stroke-miterlimit:10;stroke-dasharray:none;stroke-opacity:1"
       id="path28" /><g
       id="g34"
       transform="matrix(0.57530576,0,0,0.57530576,8.9262104,142.00663)"><g
         id="g36"
         clip-path="url(#clipPath40)"><path
           d="M 113.83937,38.016 V 304.128"
           style="fill:none;stroke:#b0b0b0;stroke-width:0.8;stroke-linecap:square;stroke-linejoin:round;stroke-miterlimit:10;stroke-dasharray:none;stroke-opacity:1"
           id="path42" /></g></g><path
       d="m 74.418656,163.87745 v -2.01357"
       style="fill:#000000;fill-opacity:1;fill-rule:nonzero;stroke:#000000;stroke-width:0.460245;stroke-linecap:butt;stroke-linejoin:round;stroke-miterlimit:10;stroke-dasharray:none;stroke-opacity:1"
       id="path46" /><g
       id="g52"
       transform="matrix(0.57530576,0,0,0.57530576,8.9262104,142.00663)"><g
         id="g54"
         clip-path="url(#clipPath58)"><path
           d="M 170.07874,38.016 V 304.128"
           style="fill:none;stroke:#b0b0b0;stroke-width:0.8;stroke-linecap:square;stroke-linejoin:round;stroke-miterlimit:10;stroke-dasharray:none;stroke-opacity:1"
           id="path60" /></g></g><path
       d="m 106.77349,163.87745 v -2.01357"
       style="fill:#000000;fill-opacity:1;fill-rule:nonzero;stroke:#000000;stroke-width:0.460245;stroke-linecap:butt;stroke-linejoin:round;stroke-miterlimit:10;stroke-dasharray:none;stroke-opacity:1"
       id="path64" /><g
       id="g70"
       transform="matrix(0.57530576,0,0,0.57530576,8.9262104,142.00663)"><g
         id="g72"
         clip-path="url(#clipPath76)"><path
           d="M 226.31811,38.016 V 304.128"
           style="fill:none;stroke:#b0b0b0;stroke-width:0.8;stroke-linecap:square;stroke-linejoin:round;stroke-miterlimit:10;stroke-dasharray:none;stroke-opacity:1"
           id="path78" /></g></g><path
       d="m 139.12832,163.87745 v -2.01357"
       style="fill:#000000;fill-opacity:1;fill-rule:nonzero;stroke:#000000;stroke-width:0.460245;stroke-linecap:butt;stroke-linejoin:round;stroke-miterlimit:10;stroke-dasharray:none;stroke-opacity:1"
       id="path82" /><g
       id="g88"
       transform="matrix(0.57530576,0,0,0.57530576,8.9262104,142.00663)"><g
         id="g90"
         clip-path="url(#clipPath94)"><path
           d="M 282.55748,38.016 V 304.128"
           style="fill:none;stroke:#b0b0b0;stroke-width:0.8;stroke-linecap:square;stroke-linejoin:round;stroke-miterlimit:10;stroke-dasharray:none;stroke-opacity:1"
           id="path96" /></g></g><path
       d="m 171.48315,163.87745 v -2.01357"
       style="fill:#000000;fill-opacity:1;fill-rule:nonzero;stroke:#000000;stroke-width:0.460245;stroke-linecap:butt;stroke-linejoin:round;stroke-miterlimit:10;stroke-dasharray:none;stroke-opacity:1"
       id="path100" /><g
       id="g106"
       transform="matrix(0.57530576,0,0,0.57530576,8.9262104,142.00663)"><g
         id="g108"
         clip-path="url(#clipPath112)"><path
           d="M 338.79685,38.016 V 304.128"
           style="fill:none;stroke:#b0b0b0;stroke-width:0.8;stroke-linecap:square;stroke-linejoin:round;stroke-miterlimit:10;stroke-dasharray:none;stroke-opacity:1"
           id="path114" /></g></g><path
       d="m 203.83799,163.87745 v -2.01357"
       style="fill:#000000;fill-opacity:1;fill-rule:nonzero;stroke:#000000;stroke-width:0.460245;stroke-linecap:butt;stroke-linejoin:round;stroke-miterlimit:10;stroke-dasharray:none;stroke-opacity:1"
       id="path118" /><g
       id="g124"
       transform="matrix(0.57530576,0,0,0.57530576,8.9262104,142.00663)"><g
         id="g126"
         clip-path="url(#clipPath130)"><path
           d="M 395.03622,38.016 V 304.128"
           style="fill:none;stroke:#b0b0b0;stroke-width:0.8;stroke-linecap:square;stroke-linejoin:round;stroke-miterlimit:10;stroke-dasharray:none;stroke-opacity:1"
           id="path132" /></g></g><path
       d="m 236.19282,163.87745 v -2.01357"
       style="fill:#000000;fill-opacity:1;fill-rule:nonzero;stroke:#000000;stroke-width:0.460245;stroke-linecap:butt;stroke-linejoin:round;stroke-miterlimit:10;stroke-dasharray:none;stroke-opacity:1"
       id="path136" /><g
       id="g146"
       transform="matrix(0.57530576,0,0,0.57530576,8.9262104,142.00663)"><g
         id="g148"
         clip-path="url(#clipPath152)"><path
           d="M 57.6,38.016 H 414.72"
           style="fill:none;stroke:#b0b0b0;stroke-width:0.8;stroke-linecap:square;stroke-linejoin:round;stroke-miterlimit:10;stroke-dasharray:none;stroke-opacity:1"
           id="path154" /></g></g><path
       d="m 42.063822,163.87745 h -2.01357"
       style="fill:#000000;fill-opacity:1;fill-rule:nonzero;stroke:#000000;stroke-width:0.460245;stroke-linecap:butt;stroke-linejoin:round;stroke-miterlimit:10;stroke-dasharray:none;stroke-opacity:1"
       id="path158" /><g
       id="g164"
       transform="matrix(0.57530576,0,0,0.57530576,8.9262104,142.00663)"><g
         id="g166"
         clip-path="url(#clipPath170)"><path
           d="M 57.6,91.2384 H 414.72"
           style="fill:none;stroke:#b0b0b0;stroke-width:0.8;stroke-linecap:square;stroke-linejoin:round;stroke-miterlimit:10;stroke-dasharray:none;stroke-opacity:1"
           id="path172" /></g></g><path
       d="m 42.063822,194.49661 h -2.01357"
       style="fill:#000000;fill-opacity:1;fill-rule:nonzero;stroke:#000000;stroke-width:0.460245;stroke-linecap:butt;stroke-linejoin:round;stroke-miterlimit:10;stroke-dasharray:none;stroke-opacity:1"
       id="path176" /><g
       id="g182"
       transform="matrix(0.57530576,0,0,0.57530576,8.9262104,142.00663)"><g
         id="g184"
         clip-path="url(#clipPath188)"><path
           d="M 57.6,144.4608 H 414.72"
           style="fill:none;stroke:#b0b0b0;stroke-width:0.8;stroke-linecap:square;stroke-linejoin:round;stroke-miterlimit:10;stroke-dasharray:none;stroke-opacity:1"
           id="path190" /></g></g><path
       d="m 42.063822,225.11576 h -2.01357"
       style="fill:#000000;fill-opacity:1;fill-rule:nonzero;stroke:#000000;stroke-width:0.460245;stroke-linecap:butt;stroke-linejoin:round;stroke-miterlimit:10;stroke-dasharray:none;stroke-opacity:1"
       id="path194" /><g
       id="g200"
       transform="matrix(0.57530576,0,0,0.57530576,8.9262104,142.00663)"><g
         id="g202"
         clip-path="url(#clipPath206)"><path
           d="M 57.6,197.6832 H 414.72"
           style="fill:none;stroke:#b0b0b0;stroke-width:0.8;stroke-linecap:square;stroke-linejoin:round;stroke-miterlimit:10;stroke-dasharray:none;stroke-opacity:1"
           id="path208" /></g></g><path
       d="m 42.063822,255.73491 h -2.01357"
       style="fill:#000000;fill-opacity:1;fill-rule:nonzero;stroke:#000000;stroke-width:0.460245;stroke-linecap:butt;stroke-linejoin:round;stroke-miterlimit:10;stroke-dasharray:none;stroke-opacity:1"
       id="path212" /><g
       id="g218"
       transform="matrix(0.57530576,0,0,0.57530576,8.9262104,142.00663)"><g
         id="g220"
         clip-path="url(#clipPath224)"><path
           d="M 57.6,250.9056 H 414.72"
           style="fill:none;stroke:#b0b0b0;stroke-width:0.8;stroke-linecap:square;stroke-linejoin:round;stroke-miterlimit:10;stroke-dasharray:none;stroke-opacity:1"
           id="path226" /></g></g><path
       d="m 42.063822,286.35407 h -2.01357"
       style="fill:#000000;fill-opacity:1;fill-rule:nonzero;stroke:#000000;stroke-width:0.460245;stroke-linecap:butt;stroke-linejoin:round;stroke-miterlimit:10;stroke-dasharray:none;stroke-opacity:1"
       id="path230" /><g
       id="g236"
       transform="matrix(0.57530576,0,0,0.57530576,8.9262104,142.00663)"><g
         id="g238"
         clip-path="url(#clipPath242)"><path
           d="M 57.6,304.128 H 414.72"
           style="fill:none;stroke:#b0b0b0;stroke-width:0.8;stroke-linecap:square;stroke-linejoin:round;stroke-miterlimit:10;stroke-dasharray:none;stroke-opacity:1"
           id="path244" /></g></g><path
       d="m 42.063822,316.97322 h -2.01357"
       style="fill:#000000;fill-opacity:1;fill-rule:nonzero;stroke:#000000;stroke-width:0.460245;stroke-linecap:butt;stroke-linejoin:round;stroke-miterlimit:10;stroke-dasharray:none;stroke-opacity:1"
       id="path248" /><g
       id="g258"
       transform="matrix(0.57530576,0,0,0.57530576,8.9262104,142.00663)"><g
         id="g260"
         clip-path="url(#clipPath264)"><path
           d="m 57.6,242.01061 2.811969,3.46829 2.811968,-2.5198 2.811969,-2.27044 2.811968,-1.9483 2.811969,-1.72831 2.811968,0.75898 2.811969,0.23691 2.811968,-0.71818 2.811969,-0.2935 2.811968,-1.2743 2.811969,0.0934 2.811968,-1.06043 2.811969,-5.27607 2.811968,-4.1997 2.811969,-0.76527 2.811972,-2.09302 2.81197,1.20023 2.81196,-3.41638 2.81197,-5.21627 2.81197,-4.04659 2.81197,-0.448 2.81197,-5.46191 2.81197,-3.06665 2.81196,1.80036 2.81197,0.75378 2.81197,-0.34611 2.81197,2.37945 2.81197,0.49775 2.81197,4.47036 2.81196,-0.49515 2.81197,-0.77314 2.81197,-0.26365 2.81197,-3.05527 2.81197,-0.19516 2.81197,1.12282 2.81197,2.39648 2.81196,1.37531 2.81197,-1.87143 2.81197,-3.62576 2.81197,0.72698 2.81197,2.86681 2.81197,-3.98552 2.81197,0.51832 2.81196,3.54425 2.81197,-0.62029 2.81197,0.79371 2.81197,-2.53702 2.81197,-7.32055 2.81197,3.15411 2.81197,-1.23126 2.81196,0.10115 5.62394,-4.85964 2.81197,-3.00839 2.81197,-1.07133 2.81197,-0.14385 2.81197,-2.67917 2.81196,4.38327 2.81197,0.0695 2.81197,0.22281 2.81197,-0.34277 2.81197,-3.95997 2.81197,1.8581 2.81196,2.28242 2.81197,-1.37154 2.81197,-1.57471 2.81197,4.34659 2.81197,-3.21221 2.81197,4.35657 2.81196,-3.29715 2.81197,-2.70824 2.81197,2.02256 2.81197,-1.247 2.81197,-3.78584 2.81197,1.55372 2.81197,-0.60058 2.81196,-1.54907 2.81197,-3.35428 2.81197,1.54856 2.81197,5.69713 2.81197,-1.00336 2.81197,-1.2135 2.81197,-1.83388 2.81196,0.0708 2.81197,-2.28392 2.81197,0.52086 2.81197,0.82582 2.81197,-0.47472 2.81197,4.0174 2.81196,-6.5168 2.81197,-11.31534 2.81197,-8.45708 2.81197,-2.88999 2.81197,-5.5981 2.81197,-6.21385 2.81197,1.16583 2.81197,-0.13756 2.81196,0.785 2.81197,5.21466 2.81197,5.96377 2.81197,2.70712 2.81197,-6.68061 2.81197,5.14716 2.81196,-2.44788 2.81197,1.6007 2.81197,-4.50625 2.81197,-1.39177 2.81197,-2.95801 2.81197,-2.60697 2.81196,-1.64642 2.81197,0.17082 2.81197,-0.71323 2.81197,2.24155 2.81197,0.90332 2.81197,-7.17964 2.81197,-8.91985 2.81196,-5.72574 2.81197,0.2682 2.81197,2.44381 2.81197,-3.08339 2.81197,-6.76823 2.81197,-9.60926 2.81197,-4.00933 2.81196,-12.929594 5.62394,-19.111198 2.81197,-15.985899 v 0"
           style="fill:none;stroke:#1f77b4;stroke-width:1.5;stroke-linecap:square;stroke-linejoin:round;stroke-miterlimit:10;stroke-dasharray:none;stroke-opacity:1"
           id="path266" /></g></g><g
       id="g270"
       clip-path="url(#clipPath274)"
       transform="matrix(0.57530576,0,0,0.57530576,8.9262104,142.00663)"><path
         d="m 57.6,240.7365 2.811969,3.05042 2.811968,-2.70779 2.811969,-0.53374 2.811968,-0.12875 5.623937,-1.6168 2.811969,-0.47933 2.811968,-1.888 2.811969,-0.0268 2.811968,-3.43668 5.623937,-1.61504 5.623937,-8.08704 2.811969,-0.84902 2.811972,-1.6846 2.81197,1.52761 2.81196,-3.79225 5.62394,-8.98939 2.81197,0.58191 2.81197,-6.48934 2.81197,-4.43291 2.81196,1.19663 2.81197,0.86167 2.81197,0.0577 2.81197,2.9422 2.81197,1.51152 2.81197,4.63009 2.81196,-1.70093 2.81197,0.64203 2.81197,1.52321 2.81197,-3.44999 2.81197,0.82217 2.81197,-0.3943 2.81197,1.95566 2.81196,1.70528 2.81197,-0.87206 2.81197,-3.51396 2.81197,0.61674 2.81197,3.45994 2.81197,-5.03215 2.81197,2.5876 2.81196,2.26166 2.81197,-0.49699 2.81197,0.84821 2.81197,-1.31303 2.81197,-6.47262 2.81197,2.99852 2.81197,-1.90157 2.81196,0.85806 2.81197,-2.40273 2.81197,-3.71618 2.81197,-2.13095 2.81197,0.0977 2.81197,-2.21929 2.81197,-1.22524 2.81196,2.65325 2.81197,0.76341 5.62394,1.05091 2.81197,-3.72792 2.81197,4.16577 2.81196,2.44133 2.81197,-2.33617 2.81197,-1.6111 2.81197,3.6416 2.81197,-4.99856 2.81197,3.82149 2.81196,-3.50934 2.81197,-4.26851 2.81197,2.05039 2.81197,-1.43902 2.81197,-3.43032 2.81197,1.77087 2.81197,-0.70806 2.81196,-1.84586 2.81197,-3.45864 2.81197,1.80165 2.81197,5.72838 2.81197,-1.76115 2.81197,0.50584 2.81197,-2.33004 2.81196,0.63142 2.81197,-1.57245 5.62394,1.92916 2.81197,-1.65728 2.81197,6.39408 2.81196,-7.26188 2.81197,-9.05286 2.81197,-6.18759 2.81197,-0.80388 2.81197,-4.80903 2.81197,-5.12779 2.81197,-0.12502 2.81197,1.68742 2.81196,-0.0261 5.62394,10.63291 2.81197,2.98311 2.81197,-7.63628 2.81197,7.64491 2.81196,-5.64892 2.81197,2.19011 2.81197,-7.18405 2.81197,-1.27562 2.81197,-3.88566 2.81197,3.38884 2.81196,-1.54234 2.81197,1.76835 2.81197,-1.88887 2.81197,2.99431 2.81197,2.32233 2.81197,-1.30357 2.81197,-8.22847 2.81196,-1.1068 2.81197,-0.0752 2.81197,-3.6305 2.81197,-4.4134 2.81197,-6.29132 2.81197,-8.1039 2.81197,-7.36709 2.81196,-4.86339 2.81197,-15.0151 2.81197,-16.666114 2.81197,-20.165669 v 0"
         style="fill:none;stroke:#ff7f0e;stroke-width:1.5;stroke-linecap:square;stroke-linejoin:round;stroke-miterlimit:10;stroke-dasharray:none;stroke-opacity:1"
         id="path276" /></g><g
       id="g280"
       clip-path="url(#clipPath284)"
       transform="matrix(0.57530576,0,0,0.57530576,8.9262104,142.00663)"><path
         d="m 57.6,242.47289 2.811969,2.51697 2.811968,-1.57376 2.811969,0.46469 2.811968,-0.0768 2.811969,-1.07024 2.811968,-0.65344 2.811969,-0.40439 2.811968,-1.14501 2.811969,-0.01 2.811968,-3.63149 2.811969,-2.07426 2.811968,-1.56196 2.811969,-3.6524 2.811968,-3.24812 2.811969,-1.24276 2.811972,-1.92656 2.81197,1.28386 2.81196,-2.75243 2.81197,-4.55415 2.81197,-4.86709 2.81197,0.17706 2.81197,-6.33541 2.81197,-4.77422 2.81196,1.49563 2.81197,0.14725 2.81197,-0.29944 2.81197,3.03372 2.81197,0.83077 2.81197,3.39498 2.81196,-1.31671 2.81197,-0.85305 2.81197,1.4429 2.81197,-2.61507 2.81197,1.80815 2.81197,-1.00359 2.81197,1.7782 2.81196,2.36703 2.81197,-0.69505 2.81197,-3.71922 2.81197,0.82267 2.81197,3.52936 2.81197,-5.13237 2.81197,2.53676 2.81196,1.82286 2.81197,-0.12196 2.81197,0.51489 2.81197,-1.59456 2.81197,-5.12379 2.81197,3.01621 2.81197,-1.58891 2.81196,0.71128 2.81197,-1.53114 2.81197,-3.31002 2.81197,-1.17408 2.81197,-0.1133 2.81197,-2.05641 2.81197,-0.84764 2.81196,1.72362 2.81197,1.24729 2.81197,-0.43685 2.81197,0.71257 2.81197,-4.43188 2.81197,4.55363 2.81196,2.99083 2.81197,-1.46838 2.81197,-1.05032 2.81197,2.94707 2.81197,-4.4131 2.81197,1.72477 2.81196,-2.85879 2.81197,-4.13202 2.81197,1.77351 2.81197,-1.06039 2.81197,-2.78474 2.81197,0.30675 2.81197,-0.63903 2.81196,-1.94015 2.81197,-3.53904 2.81197,1.36828 2.81197,6.63753 2.81197,-2.32137 2.81197,0.72082 2.81197,-2.49796 2.81196,-0.14639 2.81197,-1.67929 2.81197,0.46796 2.81197,2.22913 2.81197,-2.14587 2.81197,7.35493 2.81196,-7.75988 2.81197,-9.82057 2.81197,-7.3632 2.81197,-0.61779 2.81197,-4.01302 2.81197,-4.87157 2.81197,-0.40496 2.81197,2.08115 2.81196,-0.1817 2.81197,4.16795 2.81197,6.06943 2.81197,1.80525 2.81197,-6.81267 2.81197,7.39926 2.81196,-4.40017 2.81197,4.22262 2.81197,-6.58619 2.81197,-3.89082 2.81197,-5.2121 2.81197,2.10387 2.81196,-5.22583 2.81197,2.75493 2.81197,-1.91132 2.81197,0.33994 2.81197,3.05857 2.81197,-3.60815 2.81197,-7.11732 2.81196,-2.03607 2.81197,0.36823 2.81197,2.91437 2.81197,-7.93789 2.81197,-2.53327 5.62394,-10.90487 2.81196,-1.36919 2.81197,-11.27953 2.81197,-13.99703 2.81197,-24.729892 v 0"
         style="fill:none;stroke:#2ca02c;stroke-width:1.5;stroke-linecap:square;stroke-linejoin:round;stroke-miterlimit:10;stroke-dasharray:none;stroke-opacity:1"
         id="path286" /></g><g
       id="g290"
       clip-path="url(#clipPath294)"
       style="stroke:#8c564b;stroke-opacity:1"
       transform="matrix(0.57530576,0,0,0.57530576,8.9262104,142.00663)"><path
         d="m 57.6,243.7868 2.811969,1.92939 2.811968,-0.72371 2.811969,1.02429 2.811968,0.0267 2.811969,-1.3301 2.811968,-0.31339 2.811969,-0.52532 2.811968,-1.2933 2.811969,0.66814 2.811968,-3.39908 2.811969,-2.67897 2.811968,-1.97235 2.811969,-3.70365 2.811968,-3.50041 2.811969,-1.78041 2.811972,-1.39012 2.81197,1.74661 2.81196,-2.52165 2.81197,-4.60103 2.81197,-4.24008 2.81197,-0.28045 2.81197,-6.1203 2.81197,-4.92784 2.81196,1.63159 2.81197,-0.33147 2.81197,-0.66108 2.81197,3.39695 2.81197,1.6286 2.81197,2.60243 2.81196,-1.63455 2.81197,-0.60613 2.81197,1.39735 2.81197,-2.03581 2.81197,1.94567 2.81197,-2.00769 2.81197,1.7071 2.81196,2.63761 2.81197,-0.0173 2.81197,-3.53025 2.81197,0.5752 2.81197,3.98236 2.81197,-4.88883 2.81197,1.78823 2.81196,1.30243 2.81197,-0.46755 2.81197,1.0181 2.81197,-1.95638 2.81197,-5.59821 2.81197,3.96572 2.81197,-1.55922 2.81196,1.03606 2.81197,-1.60601 2.81197,-2.78368 2.81197,-1.73628 2.81197,0.28565 2.81197,-2.65659 2.81197,-0.59494 2.81196,1.48102 2.81197,0.92092 2.81197,-0.80135 2.81197,0.96877 2.81197,-3.62048 2.81197,5.15979 2.81196,3.12938 5.62394,-2.60219 2.81197,3.10762 2.81197,-4.31565 2.81197,1.38448 2.81196,-3.51249 2.81197,-4.5313 2.81197,1.50137 2.81197,-1.07711 2.81197,-3.36955 2.81197,0.97156 2.81197,-1.23056 2.81196,-1.66378 2.81197,-3.03691 2.81197,1.2801 2.81197,5.855 2.81197,-1.58332 2.81197,0.68622 2.81197,-2.39027 2.81196,-0.44214 2.81197,-1.87694 2.81197,0.74445 2.81197,1.7781 2.81197,-2.42957 2.81197,7.52845 2.81196,-7.03136 2.81197,-9.75407 2.81197,-6.44108 2.81197,-0.3663 2.81197,-4.05601 2.81197,-2.92609 2.81197,-0.46318 2.81197,2.84398 2.81196,-0.25676 2.81197,4.25986 2.81197,4.04105 2.81197,1.56068 2.81197,-6.07701 2.81197,7.00545 2.81196,-4.60273 2.81197,4.15334 2.81197,-5.48931 2.81197,-2.92372 2.81197,-7.5441 2.81197,1.91557 2.81196,-3.15648 2.81197,2.35905 2.81197,0.25955 2.81197,-3.15918 2.81197,3.56644 2.81197,-3.52329 2.81197,-8.71553 2.81196,0.67041 5.62394,5.97052 2.81197,-0.91065 2.81197,-4.75793 2.81197,-7.65553 2.81197,-4.84933 2.81196,-2.48752 2.81197,-6.53225 2.81197,-18.6684 2.81197,-24.444266 v 0"
         style="fill:none;stroke:#8c564b;stroke-width:1.5;stroke-linecap:square;stroke-linejoin:round;stroke-miterlimit:10;stroke-dasharray:none;stroke-opacity:1"
         id="path296" /></g><g
       id="g300"
       clip-path="url(#clipPath304)"
       transform="matrix(0.57530576,0,0,0.57530576,8.9262104,142.00663)"><path
         d="m 57.6,244.25941 2.811969,1.28391 2.811968,-0.59113 2.811969,1.4575 2.811968,0.55338 2.811969,-1.30523 2.811968,0.33688 5.623937,-2.27335 2.811969,0.61592 2.811968,-3.03839 2.811969,-2.53064 2.811968,-2.15987 2.811969,-3.30924 2.811968,-3.84899 2.811969,-1.52157 2.811972,-1.72965 2.81197,1.30717 2.81196,-1.9289 2.81197,-5.05257 2.81197,-4.67881 2.81197,-1.19676 2.81197,-5.77003 2.81197,-4.60206 2.81196,1.98916 2.81197,-0.36797 2.81197,-0.57267 2.81197,3.50112 2.81197,1.36431 2.81197,2.41577 2.81196,-1.89701 2.81197,-1.40721 2.81197,1.43153 2.81197,-2.12473 2.81197,1.96163 2.81197,-2.02523 2.81197,2.07127 2.81196,2.6568 2.81197,0.0331 2.81197,-3.55758 2.81197,0.89032 2.81197,4.40328 2.81197,-4.62201 2.81197,1.68487 2.81196,1.40865 2.81197,-0.43946 2.81197,0.79937 2.81197,-1.93748 2.81197,-5.18597 2.81197,3.61533 2.81197,-0.97305 2.81196,1.61379 5.62394,-4.08389 2.81197,-1.34108 2.81197,-0.56197 2.81197,-2.36184 2.81197,-0.55048 2.81196,1.42502 2.81197,1.01661 2.81197,-0.98075 2.81197,0.7049 2.81197,-3.31404 2.81197,4.79452 2.81196,3.33539 2.81197,-1.93182 2.81197,-1.49834 2.81197,2.84186 2.81197,-4.79934 2.81197,1.08267 2.81196,-3.18807 2.81197,-4.54259 2.81197,2.28983 2.81197,-0.33739 2.81197,-3.63532 2.81197,1.37507 2.81197,-1.00992 2.81196,-1.57651 2.81197,-2.9089 2.81197,1.59578 2.81197,5.89628 2.81197,-1.4908 2.81197,0.71158 2.81197,-2.60179 2.81196,-0.28814 2.81197,-2.14053 2.81197,1.61229 2.81197,1.09172 2.81197,-2.56831 2.81197,7.6021 2.81196,-8.01233 2.81197,-9.68098 2.81197,-7.45938 2.81197,-0.44116 2.81197,-3.59502 2.81197,-4.42674 2.81197,0.0863 2.81197,3.3775 2.81196,-0.9874 2.81197,3.84329 2.81197,5.21581 2.81197,0.84946 2.81197,-5.02597 2.81197,5.76347 2.81196,-6.14341 2.81197,4.31246 2.81197,-4.87332 2.81197,-3.89186 2.81197,-8.52049 2.81197,0.006 2.81196,-3.89931 2.81197,2.28992 2.81197,-1.97736 2.81197,-4.71792 2.81197,2.9846 2.81197,-2.30201 2.81197,-8.87392 2.81196,-2.88176 2.81197,1.81538 2.81197,1.10571 2.81197,-1.99393 2.81197,-5.48137 2.81197,-6.8545 2.81197,-6.13304 2.81196,-5.75523 2.81197,-4.71435 2.81197,-13.929671 2.81197,-22.184687 v 0"
         style="fill:none;stroke:#9467bd;stroke-width:1.5;stroke-linecap:square;stroke-linejoin:round;stroke-miterlimit:10;stroke-dasharray:none;stroke-opacity:1"
         id="path306" /></g><path
       d="M 42.063822,163.87745 V 316.97322"
       style="fill:none;stroke:#000000;stroke-width:0.460245;stroke-linecap:square;stroke-linejoin:miter;stroke-miterlimit:10;stroke-dasharray:none;stroke-opacity:1"
       id="path320" /><path
       d="M 247.51702,163.87745 V 316.97322"
       style="fill:none;stroke:#000000;stroke-width:0.460245;stroke-linecap:square;stroke-linejoin:miter;stroke-miterlimit:10;stroke-dasharray:none;stroke-opacity:1"
       id="path322" /><path
       d="M 42.063822,163.87745 H 247.51702"
       style="fill:none;stroke:#000000;stroke-width:0.460245;stroke-linecap:square;stroke-linejoin:miter;stroke-miterlimit:10;stroke-dasharray:none;stroke-opacity:1"
       id="path324" /><path
       d="M 42.063822,316.97322 H 247.51702"
       style="fill:none;stroke:#000000;stroke-width:0.460245;stroke-linecap:square;stroke-linejoin:miter;stroke-miterlimit:10;stroke-dasharray:none;stroke-opacity:1"
       id="path326" /><path
       d="M 60.55814,215.7857 H 72.06426"
       style="fill:none;stroke:#1f77b4;stroke-width:0.862959;stroke-linecap:square;stroke-linejoin:round;stroke-miterlimit:10;stroke-dasharray:none;stroke-opacity:1"
       id="path336" /><path
       d="M 60.55814,207.34488 H 72.06426"
       style="fill:none;stroke:#ff7f0e;stroke-width:0.862959;stroke-linecap:square;stroke-linejoin:round;stroke-miterlimit:10;stroke-dasharray:none;stroke-opacity:1"
       id="path342" /><path
       d="M 60.55814,198.90407 H 72.06426"
       style="fill:none;stroke:#2ca02c;stroke-width:0.862959;stroke-linecap:square;stroke-linejoin:round;stroke-miterlimit:10;stroke-dasharray:none;stroke-opacity:1"
       id="path348" /><path
       d="M 60.55814,190.46326 H 72.06426"
       style="fill:none;stroke:#8c564b;stroke-width:0.862959;stroke-linecap:square;stroke-linejoin:round;stroke-miterlimit:10;stroke-dasharray:none;stroke-opacity:1"
       id="path354" /><path
       d="M 60.55814,182.02245 H 72.06426"
       style="fill:none;stroke:#9467bd;stroke-width:0.862959;stroke-linecap:square;stroke-linejoin:round;stroke-miterlimit:10;stroke-dasharray:none;stroke-opacity:1"
       id="path360" /><path
       d="M 60.55814,173.58163 H 72.06426"
       style="fill:none;stroke:#d62728;stroke-width:0.862959;stroke-linecap:square;stroke-linejoin:round;stroke-miterlimit:10;stroke-dasharray:none;stroke-opacity:1"
       id="path366" /></g><g
     inkscape:groupmode="layer"
     id="layer1"
     inkscape:label="text"
     style="display:inline"
     transform="translate(-28.023958,-17.206424)"><text
       style="font-variant:normal;font-weight:normal;font-size:7.67075px;font-family:'DejaVu Sans';-inkscape-font-specification:DejaVuSans;writing-mode:lr-tb;fill:#000000;fill-opacity:1;fill-rule:nonzero;stroke:none;stroke-width:0.767075"
       id="text32"
       x="49.984455"
       y="253.49129"><tspan
         x="49.984455 54.863049 57.302345"
         y="253.49129"
         sodipodi:role="line"
         id="tspan30"
         style="stroke-width:0.767075">0.0</tspan></text><text
       style="font-variant:normal;font-weight:normal;font-size:7.67075px;font-family:'DejaVu Sans';-inkscape-font-specification:DejaVuSans;writing-mode:lr-tb;fill:#000000;fill-opacity:1;fill-rule:nonzero;stroke:none;stroke-width:0.767075"
       id="text50"
       x="93.124237"
       y="253.49129"><tspan
         x="93.124237 98.002831 100.44213"
         y="253.49129"
         sodipodi:role="line"
         id="tspan48"
         style="stroke-width:0.767075">0.5</tspan></text><text
       style="font-variant:normal;font-weight:normal;font-size:7.67075px;font-family:'DejaVu Sans';-inkscape-font-specification:DejaVuSans;writing-mode:lr-tb;fill:#000000;fill-opacity:1;fill-rule:nonzero;stroke:none;stroke-width:0.767075"
       id="text68"
       x="136.26402"
       y="253.49129"><tspan
         x="136.26402 141.14261 143.58191"
         y="253.49129"
         sodipodi:role="line"
         id="tspan66"
         style="stroke-width:0.767075">1.0</tspan></text><text
       style="font-variant:normal;font-weight:normal;font-size:7.67075px;font-family:'DejaVu Sans';-inkscape-font-specification:DejaVuSans;writing-mode:lr-tb;fill:#000000;fill-opacity:1;fill-rule:nonzero;stroke:none;stroke-width:0.767075"
       id="text86"
       x="179.40379"
       y="253.49129"><tspan
         x="179.40379 184.28239 186.72168"
         y="253.49129"
         sodipodi:role="line"
         id="tspan84"
         style="stroke-width:0.767075">1.5</tspan></text><text
       style="font-variant:normal;font-weight:normal;font-size:7.67075px;font-family:'DejaVu Sans';-inkscape-font-specification:DejaVuSans;writing-mode:lr-tb;fill:#000000;fill-opacity:1;fill-rule:nonzero;stroke:none;stroke-width:0.767075"
       id="text104"
       x="222.54358"
       y="253.49129"><tspan
         x="222.54358 227.42216 229.86145"
         y="253.49129"
         sodipodi:role="line"
         id="tspan102"
         style="stroke-width:0.767075">2.0</tspan></text><text
       style="font-variant:normal;font-weight:normal;font-size:7.67075px;font-family:'DejaVu Sans';-inkscape-font-specification:DejaVuSans;writing-mode:lr-tb;fill:#000000;fill-opacity:1;fill-rule:nonzero;stroke:none;stroke-width:0.767075"
       id="text122"
       x="265.68335"
       y="253.49129"><tspan
         x="265.68335 270.56195 273.00125"
         y="253.49129"
         sodipodi:role="line"
         id="tspan120"
         style="stroke-width:0.767075">2.5</tspan></text><text
       style="font-variant:normal;font-weight:normal;font-size:7.67075px;font-family:'DejaVu Sans';-inkscape-font-specification:DejaVuSans;writing-mode:lr-tb;fill:#000000;fill-opacity:1;fill-rule:nonzero;stroke:none;stroke-width:0.767075"
       id="text140"
       x="308.82312"
       y="253.49129"><tspan
         x="308.82312 313.70175 316.14102"
         y="253.49129"
         sodipodi:role="line"
         id="tspan138"
         style="stroke-width:0.767075">3.0</tspan></text><text
       style="font-variant:normal;font-weight:normal;font-size:7.67075px;font-family:'DejaVu Sans';-inkscape-font-specification:DejaVuSans;writing-mode:lr-tb;fill:#000000;fill-opacity:1;fill-rule:nonzero;stroke:none;stroke-width:0.767075"
       id="text144"
       x="146.62791"
       y="263.97849"><tspan
         x="146.62791 152.57274 157.29024 162.1535 166.84799 174.31929 176.45177 180.67067 183.10997 187.98088 190.11334 194.10982 197.11673 201.81891 206.68216 210.90109 215.61859 218.05788 220.64291 223.08221 229.70206 234.57298"
         y="263.97849"
         sodipodi:role="line"
         id="tspan142"
         style="stroke-width:0.767075">Genomic distance / Mbp</tspan></text><text
       style="font-variant:normal;font-weight:normal;font-size:7.67075px;font-family:'DejaVu Sans';-inkscape-font-specification:DejaVuSans;writing-mode:lr-tb;fill:#000000;fill-opacity:1;fill-rule:nonzero;stroke:none;stroke-width:0.767075"
       id="text162"
       x="38.514297"
       y="245.20927"><tspan
         x="38.514297 43.392891 45.832188"
         y="245.20927"
         sodipodi:role="line"
         id="tspan160"
         style="stroke-width:0.767075">0.0</tspan></text><text
       style="font-variant:normal;font-weight:normal;font-size:7.67075px;font-family:'DejaVu Sans';-inkscape-font-specification:DejaVuSans;writing-mode:lr-tb;fill:#000000;fill-opacity:1;fill-rule:nonzero;stroke:none;stroke-width:0.767075"
       id="text180"
       x="38.514297"
       y="204.38374"><tspan
         x="38.514297 43.392891 45.832188"
         y="204.38374"
         sodipodi:role="line"
         id="tspan178"
         style="stroke-width:0.767075">0.2</tspan></text><text
       style="font-variant:normal;font-weight:normal;font-size:7.67075px;font-family:'DejaVu Sans';-inkscape-font-specification:DejaVuSans;writing-mode:lr-tb;fill:#000000;fill-opacity:1;fill-rule:nonzero;stroke:none;stroke-width:0.767075"
       id="text198"
       x="38.514297"
       y="163.55821"><tspan
         x="38.514297 43.392891 45.832188"
         y="163.55821"
         sodipodi:role="line"
         id="tspan196"
         style="stroke-width:0.767075">0.4</tspan></text><text
       style="font-variant:normal;font-weight:normal;font-size:7.67075px;font-family:'DejaVu Sans';-inkscape-font-specification:DejaVuSans;writing-mode:lr-tb;fill:#000000;fill-opacity:1;fill-rule:nonzero;stroke:none;stroke-width:0.767075"
       id="text216"
       x="38.514297"
       y="122.73258"><tspan
         x="38.514297 43.392891 45.832188"
         y="122.73258"
         sodipodi:role="line"
         id="tspan214"
         style="stroke-width:0.767075">0.6</tspan></text><text
       style="font-variant:normal;font-weight:normal;font-size:7.67075px;font-family:'DejaVu Sans';-inkscape-font-specification:DejaVuSans;writing-mode:lr-tb;fill:#000000;fill-opacity:1;fill-rule:nonzero;stroke:none;stroke-width:0.767075"
       id="text234"
       x="38.514297"
       y="81.907066"><tspan
         x="38.514297 43.392891 45.832188"
         y="81.907066"
         sodipodi:role="line"
         id="tspan232"
         style="stroke-width:0.767075">0.8</tspan></text><text
       style="font-variant:normal;font-weight:normal;font-size:7.67075px;font-family:'DejaVu Sans';-inkscape-font-specification:DejaVuSans;writing-mode:lr-tb;fill:#000000;fill-opacity:1;fill-rule:nonzero;stroke:none;stroke-width:0.767075"
       id="text252"
       x="38.514297"
       y="41.081566"><tspan
         x="38.514297 43.392891 45.832188"
         y="41.081566"
         sodipodi:role="line"
         id="tspan250"
         style="stroke-width:0.767075">1.0</tspan></text><text
       transform="rotate(-90)"
       style="font-variant:normal;font-weight:normal;font-size:7.67075px;font-family:'DejaVu Sans';-inkscape-font-specification:DejaVuSans;writing-mode:lr-tb;fill:#000000;fill-opacity:1;fill-rule:nonzero;stroke:none;stroke-width:0.767075"
       id="text256"
       x="-177.29224"
       y="33.851925"><tspan
         x="-177.29224 -172.66678 -167.94928 -163.2471 -160.09442 -156.09798 -151.40346 -146.54022 -144.10092 -139.88202 -135.18753 -132.03484 -128.88217 -124.16458 -122.03211 -117.32995 -114.32301 -112.19055 -107.49605"
         y="33.851925"
         sodipodi:role="line"
         id="tspan254"
         style="stroke-width:0.767075">Pearson correlation</tspan></text><text
       style="font-variant:normal;font-weight:normal;font-size:9.20489px;font-family:'DejaVu Sans';-inkscape-font-specification:DejaVuSans;writing-mode:lr-tb;fill:#000000;fill-opacity:1;fill-rule:nonzero;stroke:none;stroke-width:0.767075"
       id="text330"
       x="98.326202"
       y="23.249475"><tspan
         x="98.326202 103.87675 109.53775 115.18036 118.96356 123.75931 129.39272 135.22861 138.15578 143.21846 148.85185 152.63506 156.41827 162.07928 164.63824 170.28085 173.88916 176.44812 182.08151 187.91742 190.84457 196.29387 201.08961 204.01677 206.94394 212.78905 218.45004 224.28593 229.91934 238.88489 241.44386 246.50655 249.43372 255.27881 257.83777 262.63351 266.24185 271.88443 277.72031 282.78305"
         y="23.249475"
         sodipodi:role="line"
         id="tspan328"
         style="stroke-width:0.767075">Pearson correlation vs. genomic distance</tspan></text><text
       style="font-variant:normal;font-weight:normal;font-size:9.20489px;font-family:'DejaVu Sans';-inkscape-font-specification:DejaVuSans;writing-mode:lr-tb;fill:#000000;fill-opacity:1;fill-rule:nonzero;stroke:none;stroke-width:0.767075"
       id="text334"
       x="61.059856"
       y="33.566635"><tspan
         x="61.059856 68.193649 76.137474 81.991783 87.846092 93.700401 99.55471 105.40903 108.33619 111.26334 117.11765 120.04482 125.89912 128.82629 134.68059 137.60774 143.46207 146.38921 152.24353 155.17067 161.02499 166.87929 169.80646 175.66075 181.51508 184.44223 190.29654 196.15085 199.07802 204.93231 210.78664 213.71379 219.5681 225.42242 228.34956 234.20389 240.0582 242.98535 248.83965 254.69398 257.62112 263.47546 269.32974 272.2569 277.89029 283.7262 286.65335 292.69177 298.54608 304.40039 310.25473 313.18185 316.10901 321.96332"
         y="33.566635"
         sodipodi:role="line"
         id="tspan332"
         style="stroke-width:0.767075">GM12878, 1,2,4,7,9,11,13,14,16,17,18,20,22 on K562, 10</tspan></text><text
       style="font-variant:normal;font-weight:normal;font-size:7.67075px;font-family:'DejaVu Sans';-inkscape-font-specification:DejaVuSans;writing-mode:lr-tb;fill:#000000;fill-opacity:1;fill-rule:nonzero;stroke:none;stroke-width:0.767075"
       id="text340"
       x="102.22227"
       y="175.77057"><tspan
         x="102.22227 107.10087 111.97947 114.41875 119.13625 124.00719 126.44648 129.03149 131.47081 136.71761 142.3326 147.68675 150.27179 152.71111 157.58968 160.02898 164.90758 169.78615"
         y="175.77057"
         sodipodi:role="line"
         id="tspan338"
         style="stroke-width:0.767075">20 ep / AUC: 0.562</tspan></text><text
       style="font-variant:normal;font-weight:normal;font-size:7.67075px;font-family:'DejaVu Sans';-inkscape-font-specification:DejaVuSans;writing-mode:lr-tb;fill:#000000;fill-opacity:1;fill-rule:nonzero;stroke:none;stroke-width:0.767075"
       id="text346"
       x="102.22227"
       y="187.02498"><tspan
         x="102.22227 107.10087 111.97947 114.41875 119.13625 124.00719 126.44648 129.03149 131.47081 136.71761 142.3326 147.68675 150.27179 152.71111 157.58968 160.02898 164.90758 169.78615"
         y="187.02498"
         sodipodi:role="line"
         id="tspan344"
         style="stroke-width:0.767075">40 ep / AUC: 0.580</tspan></text><text
       style="font-variant:normal;font-weight:normal;font-size:7.67075px;font-family:'DejaVu Sans';-inkscape-font-specification:DejaVuSans;writing-mode:lr-tb;fill:#000000;fill-opacity:1;fill-rule:nonzero;stroke:none;stroke-width:0.767075"
       id="text352"
       x="102.22227"
       y="198.27937"><tspan
         x="102.22227 107.10087 111.97947 114.41875 119.13625 124.00719 126.44648 129.03149 131.47081 136.71761 142.3326 147.68675 150.27179 152.71111 157.58968 160.02898 164.90758 169.78615"
         y="198.27937"
         sodipodi:role="line"
         id="tspan350"
         style="stroke-width:0.767075">60 ep / AUC: 0.585</tspan></text><text
       style="font-variant:normal;font-weight:normal;font-size:7.67075px;font-family:'DejaVu Sans';-inkscape-font-specification:DejaVuSans;writing-mode:lr-tb;fill:#000000;fill-opacity:1;fill-rule:nonzero;stroke:none;stroke-width:0.767075"
       id="text358"
       x="102.22227"
       y="209.53378"><tspan
         x="102.22227 107.10087 111.97947 114.41875 119.13625 124.00719 126.44648 129.03149 131.47081 136.71761 142.3326 147.68675 150.27179 152.71111 157.58968 160.02898 164.90758 169.78615"
         y="209.53378"
         sodipodi:role="line"
         id="tspan356"
         style="stroke-width:0.767075">80 ep / AUC: 0.597</tspan></text><text
       style="font-variant:normal;font-weight:normal;font-size:7.67075px;font-family:'DejaVu Sans';-inkscape-font-specification:DejaVuSans;writing-mode:lr-tb;fill:#000000;fill-opacity:1;fill-rule:nonzero;stroke:none;stroke-width:0.767075"
       id="text364"
       x="102.22227"
       y="220.78819"><tspan
         x="102.22227 107.10087 111.97947 116.85806 119.29734 124.01487 128.88576 131.32507 133.91011 136.3494 141.59619 147.21118 152.56537 155.15041 157.58968 162.46828 164.90758 169.78615 174.66478"
         y="220.78819"
         sodipodi:role="line"
         id="tspan362"
         style="stroke-width:0.767075">100 ep / AUC: 0.593</tspan></text><text
       style="font-variant:normal;font-weight:normal;font-size:7.67075px;font-family:'DejaVu Sans';-inkscape-font-specification:DejaVuSans;writing-mode:lr-tb;fill:#000000;fill-opacity:1;fill-rule:nonzero;stroke:none;stroke-width:0.767075"
       id="text370"
       x="102.22227"
       y="232.0426"><tspan
         x="102.22227 105.22921 108.38187 113.08405 117.9473 121.94376 124.64385 129.36136 132.51402 134.95331 140.89815 147.51799 152.39661 157.27519 162.15376 167.03236 171.91096 174.35027 176.93529 179.37459 184.62138 190.23637 195.59056 198.17558 200.61488 205.49348 207.93279 212.81139 217.68999"
         y="232.0426"
         sodipodi:role="line"
         id="tspan368"
         style="stroke-width:0.767075">transfer GM12878 / AUC: 0.671</tspan></text></g></svg>
