<?xml version="1.0" encoding="UTF-8" standalone="no"?>
<svg
   xmlns:dc="http://purl.org/dc/elements/1.1/"
   xmlns:cc="http://creativecommons.org/ns#"
   xmlns:rdf="http://www.w3.org/1999/02/22-rdf-syntax-ns#"
   xmlns:svg="http://www.w3.org/2000/svg"
   xmlns="http://www.w3.org/2000/svg"
   xmlns:sodipodi="http://sodipodi.sourceforge.net/DTD/sodipodi-0.dtd"
   xmlns:inkscape="http://www.inkscape.org/namespaces/inkscape"
   version="1.1"
   id="svg2"
   xml:space="preserve"
   width="80mm"
   height="60.299999mm"
   viewBox="0 0 302.36221 227.9055"
   sodipodi:docname="lossOverEpochs.svg"
   inkscape:version="1.0.2 (1.0.2+r75+1)"><metadata
     id="metadata8"><rdf:RDF><cc:Work
         rdf:about=""><dc:format>image/svg+xml</dc:format><dc:type
           rdf:resource="http://purl.org/dc/dcmitype/StillImage" /><dc:title></dc:title></cc:Work></rdf:RDF></metadata><defs
     id="defs6"><clipPath
       clipPathUnits="userSpaceOnUse"
       id="clipPath22"><path
         d="M 54,35.64 H 388.8 V 285.12 H 54 Z"
         id="path20" /></clipPath><clipPath
       clipPathUnits="userSpaceOnUse"
       id="clipPath40"><path
         d="M 54,35.64 H 388.8 V 285.12 H 54 Z"
         id="path38" /></clipPath><clipPath
       clipPathUnits="userSpaceOnUse"
       id="clipPath58"><path
         d="M 54,35.64 H 388.8 V 285.12 H 54 Z"
         id="path56" /></clipPath><clipPath
       clipPathUnits="userSpaceOnUse"
       id="clipPath76"><path
         d="M 54,35.64 H 388.8 V 285.12 H 54 Z"
         id="path74" /></clipPath><clipPath
       clipPathUnits="userSpaceOnUse"
       id="clipPath94"><path
         d="M 54,35.64 H 388.8 V 285.12 H 54 Z"
         id="path92" /></clipPath><clipPath
       clipPathUnits="userSpaceOnUse"
       id="clipPath112"><path
         d="M 54,35.64 H 388.8 V 285.12 H 54 Z"
         id="path110" /></clipPath><clipPath
       clipPathUnits="userSpaceOnUse"
       id="clipPath130"><path
         d="M 54,35.64 H 388.8 V 285.12 H 54 Z"
         id="path128" /></clipPath><clipPath
       clipPathUnits="userSpaceOnUse"
       id="clipPath148"><path
         d="M 54,35.64 H 388.8 V 285.12 H 54 Z"
         id="path146" /></clipPath><clipPath
       clipPathUnits="userSpaceOnUse"
       id="clipPath166"><path
         d="M 54,35.64 H 388.8 V 285.12 H 54 Z"
         id="path164" /></clipPath><clipPath
       clipPathUnits="userSpaceOnUse"
       id="clipPath184"><path
         d="M 54,35.64 H 388.8 V 285.12 H 54 Z"
         id="path182" /></clipPath><clipPath
       clipPathUnits="userSpaceOnUse"
       id="clipPath202"><path
         d="M 54,35.64 H 388.8 V 285.12 H 54 Z"
         id="path200" /></clipPath><clipPath
       clipPathUnits="userSpaceOnUse"
       id="clipPath224"><path
         d="M 54,35.64 H 388.8 V 285.12 H 54 Z"
         id="path222" /></clipPath><clipPath
       clipPathUnits="userSpaceOnUse"
       id="clipPath248"><path
         d="M 54,35.64 H 388.8 V 285.12 H 54 Z"
         id="path246" /></clipPath><clipPath
       clipPathUnits="userSpaceOnUse"
       id="clipPath262"><path
         d="M 54,35.64 H 388.8 V 285.12 H 54 Z"
         id="path260" /></clipPath><clipPath
       clipPathUnits="userSpaceOnUse"
       id="clipPath276"><path
         d="M 54,35.64 H 388.8 V 285.12 H 54 Z"
         id="path274" /></clipPath><clipPath
       clipPathUnits="userSpaceOnUse"
       id="clipPath290"><path
         d="M 54,35.64 H 388.8 V 285.12 H 54 Z"
         id="path288" /></clipPath><clipPath
       clipPathUnits="userSpaceOnUse"
       id="clipPath304"><path
         d="M 54,35.64 H 388.8 V 285.12 H 54 Z"
         id="path302" /></clipPath><clipPath
       clipPathUnits="userSpaceOnUse"
       id="clipPath318"><path
         d="M 54,35.64 H 388.8 V 285.12 H 54 Z"
         id="path316" /></clipPath><clipPath
       clipPathUnits="userSpaceOnUse"
       id="clipPath332"><path
         d="M 54,35.64 H 388.8 V 285.12 H 54 Z"
         id="path330" /></clipPath><clipPath
       clipPathUnits="userSpaceOnUse"
       id="clipPath346"><path
         d="M 54,35.64 H 388.8 V 285.12 H 54 Z"
         id="path344" /></clipPath><clipPath
       clipPathUnits="userSpaceOnUse"
       id="clipPath364"><path
         d="M 54,35.64 H 388.8 V 285.12 H 54 Z"
         id="path362" /></clipPath><clipPath
       clipPathUnits="userSpaceOnUse"
       id="clipPath374"><path
         d="M 54,35.64 H 388.8 V 285.12 H 54 Z"
         id="path372" /></clipPath></defs><sodipodi:namedview
     pagecolor="#ffffff"
     bordercolor="#666666"
     borderopacity="1"
     objecttolerance="10"
     gridtolerance="10"
     guidetolerance="10"
     inkscape:pageopacity="0"
     inkscape:pageshadow="2"
     inkscape:window-width="1920"
     inkscape:window-height="1020"
     id="namedview4"
     showgrid="false"
     fit-margin-top="0"
     fit-margin-left="0"
     fit-margin-right="0"
     fit-margin-bottom="0"
     units="mm"
     inkscape:zoom="2.8055116"
     inkscape:cx="183.43262"
     inkscape:cy="109.86882"
     inkscape:window-x="0"
     inkscape:window-y="0"
     inkscape:window-maximized="1"
     inkscape:current-layer="layer1" /><g
     id="g10"
     inkscape:groupmode="layer"
     inkscape:label="lossOverEpochs"
     transform="matrix(1.3333333,0,0,-1.3333333,-23.986417,400.31623)"><g
       id="g16"
       transform="matrix(0.61066732,0,0,0.61066732,7.004022,125.46147)"><g
         id="g18"
         clip-path="url(#clipPath22)"><path
           d="M 68.913514,35.64 V 285.12"
           style="fill:none;stroke:#b0b0b0;stroke-width:0.8;stroke-linecap:square;stroke-linejoin:round;stroke-miterlimit:10;stroke-dasharray:none;stroke-opacity:1"
           id="path24" /></g></g><path
       d="m 49.087253,147.22565 v -2.13733"
       style="fill:#000000;fill-opacity:1;fill-rule:nonzero;stroke:#000000;stroke-width:0.488534;stroke-linecap:butt;stroke-linejoin:round;stroke-miterlimit:10;stroke-dasharray:none;stroke-opacity:1"
       id="path28" /><g
       id="g34"
       transform="matrix(0.61066732,0,0,0.61066732,7.004022,125.46147)"><g
         id="g36"
         clip-path="url(#clipPath40)"><path
           d="M 99.380344,35.64 V 285.12"
           style="fill:none;stroke:#b0b0b0;stroke-width:0.8;stroke-linecap:square;stroke-linejoin:round;stroke-miterlimit:10;stroke-dasharray:none;stroke-opacity:1"
           id="path42" /></g></g><path
       d="m 67.69235,147.22565 v -2.13733"
       style="fill:#000000;fill-opacity:1;fill-rule:nonzero;stroke:#000000;stroke-width:0.488534;stroke-linecap:butt;stroke-linejoin:round;stroke-miterlimit:10;stroke-dasharray:none;stroke-opacity:1"
       id="path46" /><g
       id="g52"
       transform="matrix(0.61066732,0,0,0.61066732,7.004022,125.46147)"><g
         id="g54"
         clip-path="url(#clipPath58)"><path
           d="M 129.84717,35.64 V 285.12"
           style="fill:none;stroke:#b0b0b0;stroke-width:0.8;stroke-linecap:square;stroke-linejoin:round;stroke-miterlimit:10;stroke-dasharray:none;stroke-opacity:1"
           id="path60" /></g></g><path
       d="m 86.297445,147.22565 v -2.13733"
       style="fill:#000000;fill-opacity:1;fill-rule:nonzero;stroke:#000000;stroke-width:0.488534;stroke-linecap:butt;stroke-linejoin:round;stroke-miterlimit:10;stroke-dasharray:none;stroke-opacity:1"
       id="path64" /><g
       id="g70"
       transform="matrix(0.61066732,0,0,0.61066732,7.004022,125.46147)"><g
         id="g72"
         clip-path="url(#clipPath76)"><path
           d="M 160.314,35.64 V 285.12"
           style="fill:none;stroke:#b0b0b0;stroke-width:0.8;stroke-linecap:square;stroke-linejoin:round;stroke-miterlimit:10;stroke-dasharray:none;stroke-opacity:1"
           id="path78" /></g></g><path
       d="m 104.90254,147.22565 v -2.13733"
       style="fill:#000000;fill-opacity:1;fill-rule:nonzero;stroke:#000000;stroke-width:0.488534;stroke-linecap:butt;stroke-linejoin:round;stroke-miterlimit:10;stroke-dasharray:none;stroke-opacity:1"
       id="path82" /><g
       id="g88"
       transform="matrix(0.61066732,0,0,0.61066732,7.004022,125.46147)"><g
         id="g90"
         clip-path="url(#clipPath94)"><path
           d="M 190.78083,35.64 V 285.12"
           style="fill:none;stroke:#b0b0b0;stroke-width:0.8;stroke-linecap:square;stroke-linejoin:round;stroke-miterlimit:10;stroke-dasharray:none;stroke-opacity:1"
           id="path96" /></g></g><path
       d="m 123.50764,147.22565 v -2.13733"
       style="fill:#000000;fill-opacity:1;fill-rule:nonzero;stroke:#000000;stroke-width:0.488534;stroke-linecap:butt;stroke-linejoin:round;stroke-miterlimit:10;stroke-dasharray:none;stroke-opacity:1"
       id="path100" /><g
       id="g106"
       transform="matrix(0.61066732,0,0,0.61066732,7.004022,125.46147)"><g
         id="g108"
         clip-path="url(#clipPath112)"><path
           d="M 221.24767,35.64 V 285.12"
           style="fill:none;stroke:#b0b0b0;stroke-width:0.8;stroke-linecap:square;stroke-linejoin:round;stroke-miterlimit:10;stroke-dasharray:none;stroke-opacity:1"
           id="path114" /></g></g><path
       d="m 142.11274,147.22565 v -2.13733"
       style="fill:#000000;fill-opacity:1;fill-rule:nonzero;stroke:#000000;stroke-width:0.488534;stroke-linecap:butt;stroke-linejoin:round;stroke-miterlimit:10;stroke-dasharray:none;stroke-opacity:1"
       id="path118" /><g
       id="g124"
       transform="matrix(0.61066732,0,0,0.61066732,7.004022,125.46147)"><g
         id="g126"
         clip-path="url(#clipPath130)"><path
           d="M 251.7145,35.64 V 285.12"
           style="fill:none;stroke:#b0b0b0;stroke-width:0.8;stroke-linecap:square;stroke-linejoin:round;stroke-miterlimit:10;stroke-dasharray:none;stroke-opacity:1"
           id="path132" /></g></g><path
       d="m 160.71784,147.22565 v -2.13733"
       style="fill:#000000;fill-opacity:1;fill-rule:nonzero;stroke:#000000;stroke-width:0.488534;stroke-linecap:butt;stroke-linejoin:round;stroke-miterlimit:10;stroke-dasharray:none;stroke-opacity:1"
       id="path136" /><path
       d="m 179.32294,147.22565 v -2.13733"
       style="fill:#000000;fill-opacity:1;fill-rule:nonzero;stroke:#000000;stroke-width:0.488534;stroke-linecap:butt;stroke-linejoin:round;stroke-miterlimit:10;stroke-dasharray:none;stroke-opacity:1"
       id="path154" /><g
       id="g160"
       transform="matrix(0.61066732,0,0,0.61066732,7.004022,125.46147)"><g
         id="g162"
         clip-path="url(#clipPath166)"><path
           d="M 312.64816,35.64 V 285.12"
           style="fill:none;stroke:#b0b0b0;stroke-width:0.8;stroke-linecap:square;stroke-linejoin:round;stroke-miterlimit:10;stroke-dasharray:none;stroke-opacity:1"
           id="path168" /></g></g><g
       id="g144"
       clip-path="url(#clipPath148)"
       transform="matrix(0.61066732,0,0,0.61066732,7.004022,125.46147)"><path
         d="M 282.18133,35.64 V 285.12"
         style="fill:none;stroke:#b0b0b0;stroke-width:0.8;stroke-linecap:square;stroke-linejoin:round;stroke-miterlimit:10;stroke-dasharray:none;stroke-opacity:1"
         id="path150" /></g><path
       d="m 197.92804,147.22565 v -2.13733"
       style="fill:#000000;fill-opacity:1;fill-rule:nonzero;stroke:#000000;stroke-width:0.488534;stroke-linecap:butt;stroke-linejoin:round;stroke-miterlimit:10;stroke-dasharray:none;stroke-opacity:1"
       id="path172" /><g
       id="g178"
       transform="matrix(0.61066732,0,0,0.61066732,7.004022,125.46147)"><g
         id="g180"
         clip-path="url(#clipPath184)"><path
           d="M 343.11499,35.64 V 285.12"
           style="fill:none;stroke:#b0b0b0;stroke-width:0.8;stroke-linecap:square;stroke-linejoin:round;stroke-miterlimit:10;stroke-dasharray:none;stroke-opacity:1"
           id="path186" /></g></g><path
       d="m 216.53313,147.22565 v -2.13733"
       style="fill:#000000;fill-opacity:1;fill-rule:nonzero;stroke:#000000;stroke-width:0.488534;stroke-linecap:butt;stroke-linejoin:round;stroke-miterlimit:10;stroke-dasharray:none;stroke-opacity:1"
       id="path190" /><g
       id="g196"
       transform="matrix(0.61066732,0,0,0.61066732,7.004022,125.46147)"><g
         id="g198"
         clip-path="url(#clipPath202)"><path
           d="M 373.58182,35.64 V 285.12"
           style="fill:none;stroke:#b0b0b0;stroke-width:0.8;stroke-linecap:square;stroke-linejoin:round;stroke-miterlimit:10;stroke-dasharray:none;stroke-opacity:1"
           id="path204" /></g></g><path
       d="m 235.13823,147.22565 v -2.13733"
       style="fill:#000000;fill-opacity:1;fill-rule:nonzero;stroke:#000000;stroke-width:0.488534;stroke-linecap:butt;stroke-linejoin:round;stroke-miterlimit:10;stroke-dasharray:none;stroke-opacity:1"
       id="path208" /><g
       id="g218"
       transform="matrix(0.61066732,0,0,0.61066732,7.004022,125.46147)"><g
         id="g220"
         clip-path="url(#clipPath224)"><path
           d="M 54,117.78575 H 388.8"
           style="fill:none;stroke:#b0b0b0;stroke-width:0.8;stroke-linecap:square;stroke-linejoin:round;stroke-miterlimit:10;stroke-dasharray:none;stroke-opacity:1"
           id="path226" /></g></g><path
       d="M 39.980057,197.38938 H 37.842722"
       style="fill:#000000;fill-opacity:1;fill-rule:nonzero;stroke:#000000;stroke-width:0.488534;stroke-linecap:butt;stroke-linejoin:round;stroke-miterlimit:10;stroke-dasharray:none;stroke-opacity:1"
       id="path230" /><g
       id="g242"
       transform="matrix(0.61066732,0,0,0.61066732,7.004022,125.46147)"><g
         id="g244"
         clip-path="url(#clipPath248)"><path
           d="M 54,43.461175 H 388.8"
           style="fill:none;stroke:#b0b0b0;stroke-width:0.8;stroke-linecap:square;stroke-linejoin:round;stroke-miterlimit:10;stroke-dasharray:none;stroke-opacity:1"
           id="path250" /></g></g><g
       id="g252"
       transform="matrix(0.61066732,0,0,0.61066732,7.004022,125.46147)"><path
         d="M 54,43.461175 H 52"
         style="fill:#000000;fill-opacity:1;fill-rule:nonzero;stroke:#000000;stroke-width:0.6;stroke-linecap:butt;stroke-linejoin:round;stroke-miterlimit:10;stroke-dasharray:none;stroke-opacity:1"
         id="path254" /></g><g
       id="g256"
       transform="matrix(0.61066732,0,0,0.61066732,7.004022,125.46147)"><g
         id="g258"
         clip-path="url(#clipPath262)"><path
           d="M 54,63.011095 H 388.8"
           style="fill:none;stroke:#b0b0b0;stroke-width:0.8;stroke-linecap:square;stroke-linejoin:round;stroke-miterlimit:10;stroke-dasharray:none;stroke-opacity:1"
           id="path264" /></g></g><g
       id="g266"
       transform="matrix(0.61066732,0,0,0.61066732,7.004022,125.46147)"><path
         d="M 54,63.011095 H 52"
         style="fill:#000000;fill-opacity:1;fill-rule:nonzero;stroke:#000000;stroke-width:0.6;stroke-linecap:butt;stroke-linejoin:round;stroke-miterlimit:10;stroke-dasharray:none;stroke-opacity:1"
         id="path268" /></g><g
       id="g270"
       transform="matrix(0.61066732,0,0,0.61066732,7.004022,125.46147)"><g
         id="g272"
         clip-path="url(#clipPath276)"><path
           d="M 54,79.540318 H 388.8"
           style="fill:none;stroke:#b0b0b0;stroke-width:0.8;stroke-linecap:square;stroke-linejoin:round;stroke-miterlimit:10;stroke-dasharray:none;stroke-opacity:1"
           id="path278" /></g></g><g
       id="g280"
       transform="matrix(0.61066732,0,0,0.61066732,7.004022,125.46147)"><path
         d="M 54,79.540318 H 52"
         style="fill:#000000;fill-opacity:1;fill-rule:nonzero;stroke:#000000;stroke-width:0.6;stroke-linecap:butt;stroke-linejoin:round;stroke-miterlimit:10;stroke-dasharray:none;stroke-opacity:1"
         id="path282" /></g><g
       id="g284"
       transform="matrix(0.61066732,0,0,0.61066732,7.004022,125.46147)"><g
         id="g286"
         clip-path="url(#clipPath290)"><path
           d="M 54,93.858581 H 388.8"
           style="fill:none;stroke:#b0b0b0;stroke-width:0.8;stroke-linecap:square;stroke-linejoin:round;stroke-miterlimit:10;stroke-dasharray:none;stroke-opacity:1"
           id="path292" /></g></g><g
       id="g294"
       transform="matrix(0.61066732,0,0,0.61066732,7.004022,125.46147)"><path
         d="M 54,93.858581 H 52"
         style="fill:#000000;fill-opacity:1;fill-rule:nonzero;stroke:#000000;stroke-width:0.6;stroke-linecap:butt;stroke-linejoin:round;stroke-miterlimit:10;stroke-dasharray:none;stroke-opacity:1"
         id="path296" /></g><g
       id="g298"
       transform="matrix(0.61066732,0,0,0.61066732,7.004022,125.46147)"><g
         id="g300"
         clip-path="url(#clipPath304)"><path
           d="M 54,106.48819 H 388.8"
           style="fill:none;stroke:#b0b0b0;stroke-width:0.8;stroke-linecap:square;stroke-linejoin:round;stroke-miterlimit:10;stroke-dasharray:none;stroke-opacity:1"
           id="path306" /></g></g><g
       id="g308"
       transform="matrix(0.61066732,0,0,0.61066732,7.004022,125.46147)"><path
         d="M 54,106.48819 H 52"
         style="fill:#000000;fill-opacity:1;fill-rule:nonzero;stroke:#000000;stroke-width:0.6;stroke-linecap:butt;stroke-linejoin:round;stroke-miterlimit:10;stroke-dasharray:none;stroke-opacity:1"
         id="path310" /></g><g
       id="g312"
       transform="matrix(0.61066732,0,0,0.61066732,7.004022,125.46147)"><g
         id="g314"
         clip-path="url(#clipPath318)"><path
           d="M 54,192.11033 H 388.8"
           style="fill:none;stroke:#b0b0b0;stroke-width:0.8;stroke-linecap:square;stroke-linejoin:round;stroke-miterlimit:10;stroke-dasharray:none;stroke-opacity:1"
           id="path320" /></g></g><g
       id="g322"
       transform="matrix(0.61066732,0,0,0.61066732,7.004022,125.46147)"><path
         d="M 54,192.11033 H 52"
         style="fill:#000000;fill-opacity:1;fill-rule:nonzero;stroke:#000000;stroke-width:0.6;stroke-linecap:butt;stroke-linejoin:round;stroke-miterlimit:10;stroke-dasharray:none;stroke-opacity:1"
         id="path324" /></g><g
       id="g326"
       transform="matrix(0.61066732,0,0,0.61066732,7.004022,125.46147)"><g
         id="g328"
         clip-path="url(#clipPath332)"><path
           d="M 54,235.58742 H 388.8"
           style="fill:none;stroke:#b0b0b0;stroke-width:0.8;stroke-linecap:square;stroke-linejoin:round;stroke-miterlimit:10;stroke-dasharray:none;stroke-opacity:1"
           id="path334" /></g></g><g
       id="g336"
       transform="matrix(0.61066732,0,0,0.61066732,7.004022,125.46147)"><path
         d="M 54,235.58742 H 52"
         style="fill:#000000;fill-opacity:1;fill-rule:nonzero;stroke:#000000;stroke-width:0.6;stroke-linecap:butt;stroke-linejoin:round;stroke-miterlimit:10;stroke-dasharray:none;stroke-opacity:1"
         id="path338" /></g><g
       id="g340"
       transform="matrix(0.61066732,0,0,0.61066732,7.004022,125.46147)"><g
         id="g342"
         clip-path="url(#clipPath346)"><path
           d="M 54,266.4349 H 388.8"
           style="fill:none;stroke:#b0b0b0;stroke-width:0.8;stroke-linecap:square;stroke-linejoin:round;stroke-miterlimit:10;stroke-dasharray:none;stroke-opacity:1"
           id="path348" /></g></g><path
       d="M 39.980057,288.16455 H 38.758723"
       style="fill:#000000;fill-opacity:1;fill-rule:nonzero;stroke:#000000;stroke-width:0.3664;stroke-linecap:butt;stroke-linejoin:round;stroke-miterlimit:10;stroke-dasharray:none;stroke-opacity:1"
       id="path352" /><g
       id="g358"
       transform="matrix(0.61066732,0,0,0.61066732,7.004022,125.46147)"><g
         id="g360"
         clip-path="url(#clipPath364)"><path
           d="m 69.218182,273.78 0.304668,-66.52313 0.304668,-8.36125 0.304669,-3.3412 0.304668,-8.28606 0.609337,-22.93328 0.304668,-3.12905 0.304668,-1.32962 0.609337,-3.60669 0.609336,-3.15866 0.304669,-2.96145 0.304668,-5.16736 1.218673,-5.46032 0.609337,-1.22003 0.609337,-2.39417 0.304668,0.0749 0.609336,-1.4231 0.609337,-3.01011 0.304668,-0.69457 0.304669,-2.55195 0.304668,0.0674 0.609337,-2.44453 0.609336,-1.80997 0.304668,-0.27226 0.304669,-1.01738 0.609336,-0.37252 0.304669,-0.99818 0.304668,-0.53965 0.304668,-1.12393 0.304669,-0.33057 0.609336,-2.14072 0.304669,-0.12532 0.304668,-0.79818 0.304668,-1.25402 0.304668,-0.74989 0.304669,-0.42036 0.304668,0.23627 0.304668,-1.36857 0.304669,-0.0964 0.304668,-0.32368 0.304668,0.29909 0.304669,-1.03955 0.304668,-0.42287 0.304668,0.0902 0.609337,-0.5252 0.304668,-1.22579 0.304668,-0.10946 0.304669,-0.52847 0.304668,0.0595 0.304668,-0.85912 0.304669,-0.42169 0.304668,0.0881 0.304668,-0.65975 0.304669,0.0813 0.609336,-1.1683 0.609337,-0.71001 0.304668,2.37079 0.304668,-3.14449 0.304669,2.48831 0.304668,-2.77353 0.609337,-1.26623 0.304668,-0.0845 0.304668,-0.20783 0.304668,0.34537 0.304669,-0.39769 0.304668,-1.70057 0.304668,-0.12364 0.304669,0.0975 0.609336,-0.33633 0.304669,-1.112608 0.609336,-0.525491 0.914005,-0.610483 0.304668,-0.449901 0.609337,-0.270785 0.304668,-0.312572 0.304669,0.179119 0.304668,-0.7959 0.304668,0.126292 0.609338,-0.235873 0.30467,-0.763695 0.60933,0.03749 0.30467,-0.44892 0.30467,0.362163 0.30467,-1.23102 0.60934,-0.0367 0.30466,-0.297564 0.30467,0.580349 0.30467,-1.379175 0.30467,0.198125 2.13268,-1.144488 0.30467,0.290585 0.30466,-0.742485 0.30467,-0.04545 0.30467,-0.234439 0.30467,-0.426032 0.30467,0.06611 0.30467,-0.505573 0.30466,0.0456 0.30467,-0.145347 0.30467,-0.698838 0.30467,-0.212333 0.30467,-0.04551 0.30466,-0.5519 0.30467,0.594167 0.30467,-0.131081 0.30467,-0.970055 0.30467,0.424377 0.60933,-0.326101 0.30467,-0.447048 0.60934,0.07455 0.914,-0.883694 0.30467,0.02007 0.30467,-0.263593 0.30467,0.271537 0.30467,-0.29552 0.30467,0.144118 0.30466,-0.111259 0.60934,-0.753197 0.30467,0.06387 0.30467,-0.370907 0.60933,0.05401 0.30467,-0.405155 0.60934,0.356544 0.30467,-0.36813 0.30467,-0.613365 1.21867,-0.363559 0.30467,-0.197214 0.30467,0.06568 0.30466,-0.412948 0.30467,0.08143 0.30467,-0.395483 0.60934,-0.305422 0.30466,0.0438 0.30467,0.171944 0.30467,-0.360995 0.30467,0.282022 0.30467,-0.592 0.30467,-0.300791 0.30467,0.524593 0.60933,-0.854345 0.30467,0.2795 0.30467,-0.161805 0.30467,0.08125 0.30467,-0.559639 0.30466,0.03137 0.91401,-0.649861 0.30467,0.36795 0.30466,-0.02819 0.30467,-0.425698 0.30467,-0.229894 0.60934,0.01135 0.60933,-0.398863 0.30467,0.07857 0.30467,-0.08165 0.30467,0.112311 0.30467,-0.2788 0.60933,-0.197903 0.60934,-0.248653 0.60934,0.04065 0.30467,-0.568435 0.30466,0.106185 0.91401,-0.507691 0.60934,0.182176 0.60933,-0.361689 0.30467,-0.74366 0.30467,0.429601 0.30467,-0.256505 0.30466,0.173611 0.30467,-0.321791 0.30467,0.306158 0.30467,-0.5466 0.30467,0.104808 0.914,-0.620775 0.30467,0.304746 0.60934,-0.493908 0.30467,0.0769 0.60933,-0.410995 0.30467,0.06555 0.30467,-0.254722 0.30467,0.586524 0.30467,-0.861455 0.60933,-0.07973 0.30467,-0.07126 0.30467,-0.305776 0.60934,-0.12034 0.60933,0.437516 0.30467,-0.784349 0.30467,-0.03897 0.30467,0.174658 0.30467,-0.204495 0.30466,-0.391819 0.30467,0.398939 0.60934,-0.55859 0.30467,-0.0154 0.30467,0.138965 0.30466,-0.07497 0.30467,-0.707901 0.30467,0.456161 0.30467,-0.3554 0.30467,0.08059 0.60933,-0.441691 0.30467,-0.135975 0.30467,0.449723 0.30467,0.761451 0.30467,-0.897041 0.30467,-0.15746 0.30466,0.06443 0.30467,-0.158576 0.30467,-0.01809 0.30467,-0.202861 0.30467,-0.53747 0.30467,0.04448 0.30466,-0.426998 0.30467,-0.05974 0.30467,0.214611 0.30467,-0.453203 0.30467,1.263786 0.30466,-0.681841 0.30467,-0.223653 0.30467,0.09118 0.30467,-0.287473 0.30467,-0.06077 0.30467,-0.389237 1.21867,-0.655547 0.30467,-0.119504 0.30467,0.196618 0.30466,-0.0018 0.30467,-0.713736 0.30467,0.09435 L 159.4,71.66 l 0.30467,-0.225559 0.30467,0.326137 0.60933,-0.884991 0.30467,-0.09511 0.30467,0.133018 0.30467,-0.05027 0.30467,1.294112 0.30466,-1.035267 0.30467,0.284305 0.60934,-0.912851 0.30467,-0.213012 0.30467,0.006 0.30466,-0.168583 0.30467,0.263405 0.30467,-0.220261 0.30467,0.112014 0.30467,-0.340726 1.21867,-0.207802 0.30467,0.202861 0.30467,-0.412552 0.30467,-0.0587 0.30466,-0.369744 0.91401,0.197183 0.30467,-0.52836 0.30467,0.111574 0.30466,-0.07539 0.30467,-0.264142 0.30467,1.602834 0.30467,-0.807903 0.60934,0.05515 0.30466,-0.298931 0.30467,-0.0078 0.30467,-0.193842 0.30467,0.08227 0.914,-0.39636 0.60934,-0.0614 0.30467,-0.250457 0.60933,0.03265 0.30467,-0.304027 0.30467,-0.116245 0.30467,-0.286918 0.30467,0.241317 0.30467,-0.341854 0.30467,-0.08117 0.60933,-0.38286 0.30467,0.03519 0.30467,-0.276817 0.30467,0.175284 0.30466,-0.03116 0.30467,-0.230799 0.30467,0.303743 0.30467,-0.429851 0.914,0.192838 0.60934,-0.757113 0.30467,0.293312 0.30467,-0.26332 0.30467,0.156103 1.52334,-0.491868 0.60933,-0.1684 0.30467,0.181254 0.60934,-0.39121 0.30467,-0.162296 0.30467,0.354083 0.30466,-0.441007 0.30467,0.142129 0.30467,-0.255312 0.30467,0.138096 0.30467,0.411565 0.60933,-0.749956 0.60934,0.124756 0.30467,-0.204836 0.30467,0.197439 0.30467,-0.09774 0.30466,-0.223596 0.30467,0.142844 0.30467,-0.264373 0.30467,0.01094 0.30467,-0.267443 0.30466,0.17118 0.30467,-0.06991 0.60934,-0.369878 0.60934,0.0236 0.30466,-0.08626 0.30467,0.352102 0.60934,-0.651066 0.30467,0.410469 0.30467,-0.498579 0.30466,0.208941 0.30467,-0.224141 0.30467,0.281769 0.60934,-0.481714 0.60933,0.158118 0.30467,-0.330786 0.91401,-0.170194 0.30467,0.08729 0.30466,0.25812 0.30467,-0.458987 2.13268,-0.208093 0.30467,-0.311014 0.30467,0.168378 0.30467,-0.03115 0.30466,-0.257867 0.30467,0.220064 0.30467,-0.346264 0.30467,0.247281 0.30467,-0.302484 0.30467,0.0821 0.30466,-0.175932 0.60934,0.145995 0.60934,-0.356064 0.30467,0.270806 0.30466,-0.08057 0.30467,0.100475 0.30467,-0.442986 0.30467,-0.03684 0.30467,0.13177 0.30467,-0.161627 0.30466,0.01471 0.30467,0.165835 0.30467,-0.393647 0.30467,-0.153379 0.30467,0.179506 0.30466,-0.188868 0.60934,0.09942 0.30467,-0.227713 0.30467,0.186231 1.82801,-0.580811 0.30467,0.242367 0.30466,-0.121326 0.30467,0.01154 0.60934,-0.41119 0.30467,0.157482 0.60933,-0.193696 0.30467,0.150365 0.60934,-0.230417 0.30467,0.0778 0.914,-0.212975 0.91401,-0.228492 0.30467,0.03077 0.30466,-0.115732 0.30467,0.19706 0.60934,-0.284678 0.30467,0.07745 0.30467,-0.163279 0.30466,0.005 0.30467,0.282655 0.30467,-0.417793 0.60934,-0.0021 0.30467,0.02479 0.30466,-0.259735 0.30467,0.112224 0.91401,-0.322255 0.30467,0.125316 0.30466,-0.299379 0.91401,0.174012 0.30467,-0.270131 0.30467,0.102213 0.30466,-0.36415 0.30467,0.108469 0.30467,0.343153 0.60934,-0.297656 0.30466,-0.05316 0.30467,0.135877 0.60934,-0.363233 1.52334,-0.02084 0.30467,-0.207658 0.30467,0.03219 0.30467,-0.141433 0.30467,0.175847 0.30466,-0.233668 0.30467,-0.08752 0.30467,0.729537 0.30467,-0.748858 0.60933,-0.09754 0.60934,0.02111 0.60934,-0.17391 0.30467,-0.05578 0.30466,0.107538 1.21868,-0.296446 0.30467,0.08289 0.914,-0.282598 0.30467,0.296498 0.30467,-0.259725 0.30467,0.09334 1.52334,-0.372977 0.30467,-0.178055 0.30466,0.308187 0.30467,-0.3889 0.60934,0.07925 0.30467,-0.103637 0.30467,0.330303 0.30466,-0.39191 0.60934,0.106853 0.60934,-0.164896 0.914,-0.213994 0.30467,0.1315 0.60934,-0.175426 0.30466,-0.123483 0.60934,0.220558 0.30467,-0.260812 0.30467,-0.004 0.30467,0.117021 0.60933,-0.350708 0.30467,0.119775 0.91401,-0.126168 0.30466,0.01976 0.30467,-0.234101 0.30467,0.113362 0.91401,-0.02932 0.30466,-0.271013 0.60934,0.151018 0.30467,-0.213971 0.30467,0.04626 0.30467,-0.09372 0.30466,0.109778 0.60934,-0.131542 1.82801,-0.258101 0.30467,0.08477 0.30467,-0.124797 0.30467,0.01786 0.30466,-0.162464 0.60934,0.0262 0.30467,-0.09324 0.60934,-0.0026 1.21867,-0.0383 0.30467,-0.205749 0.30467,0.130307 0.60933,-0.204229 0.60934,0.02473 0.60934,-0.02929 0.30466,0.164185 0.60934,-0.401665 0.30467,0.07502 0.30467,-0.0482 0.30466,0.164401 0.30467,-0.416737 0.30467,0.203468 0.30467,-0.0059 0.30467,-0.171764 0.914,0.02754 0.30467,-0.292811 0.30467,0.14373 0.30467,-0.0093 0.30467,0.305534 0.30466,-0.416202 0.60934,0.08385 0.30467,-0.143642 0.30467,0.102512 0.30467,-0.234753 0.30466,0.179372 0.30467,-0.01753 0.30467,-0.130269 0.30467,0.01645 0.30467,-0.148046 0.30467,0.150638 0.30466,-0.116141 0.30467,0.141452 0.30467,-0.252593 0.60934,0.05305 1.52334,-0.172844 0.30467,0.124541 0.30467,-0.384147 0.30466,0.02707 0.30467,0.252246 0.91401,-0.368019 0.30467,0.195449 0.30466,0.0049 0.30467,-0.275926 0.30467,0.164506 0.60934,-0.132118 1.21867,0.08717 0.30467,-0.257922 0.30467,0.06681 0.30466,-0.123703 0.30467,0.233525 0.91401,-0.383833 0.30467,0.08779 0.60933,-0.07413 0.30467,0.123529 0.30467,-0.0057 0.30467,-0.154972 0.30467,-0.01953 0.30466,-0.179026 0.60934,0.123277 0.60934,-0.149839 0.30467,0.307991 0.30466,-0.254464 0.60934,-0.175748 0.30467,0.128791 1.21867,-0.215763 0.30467,0.127241 0.91401,-0.375145 0.60933,0.256018 0.30467,-0.165777 0.30467,0.04527 0.60934,-0.180374 0.30466,0.145894 1.21868,-0.191427 0.914,0.01459 0.30467,-0.245061 0.30467,0.230443 0.30467,0.05878 0.30467,-0.266098 0.30466,-0.02012 0.30467,0.104929 0.60934,-0.07411 0.60934,0.0048 0.60933,-0.177816 0.30467,0.06654 0.30467,-0.10347 0.60933,0.0037 0.91401,0.0202 0.30467,-0.150741 0.30467,0.129206 1.52334,-0.137465 0.30467,-0.131996 0.60933,-0.04137 0.30467,-0.120869 0.30467,0.03064 0.30467,0.175683 0.914,-0.121914 0.60934,-0.04364 0.30467,-0.159645 0.30467,0.143101 0.30467,-0.06596 0.30466,-0.205347 0.60934,0.2744 0.30467,-0.173572 0.30467,0.04042 0.30466,-0.154062 0.91401,-3.92e-4 0.30467,-0.04278 0.30467,0.237746 0.30466,-0.298851 0.60934,-0.03769 0.30467,0.101373 0.30467,-0.217788 0.60933,0.227151 0.91401,-0.134124 0.30467,-0.06246 0.60933,0.07023 1.21868,-0.212803 0.60933,-0.05821 0.30467,-0.197467 0.30467,0.129283 0.30467,-0.0491 0.30467,0.189124 0.60933,-0.138494 0.60934,-0.05697 0.30467,-0.155435 0.30467,0.261881 0.60933,-0.243062 0.30467,0.152186 0.30467,-0.219344 0.30467,0.104337 0.60933,-0.117941 0.30467,0.113895 0.30467,-0.135098 0.60934,0.004 0.30467,-0.08981 0.30467,0.164094 0.30466,-0.210793 0.30467,0.125077 1.21867,-0.157644 0.30467,-0.0671 0.91401,0.08143 0.914,-0.241526 0.30467,0.134294 0.60934,-0.07771 0.30467,-0.02558 0.30466,-0.137264 0.30467,0.277099 0.30467,-0.289359 0.30467,0.182911 0.30467,0.04735 0.30467,-0.106173 0.60933,0.01782 0.30467,-0.124102 0.60934,0.0223 0.30467,0.03154 0.60933,-0.126931 0.91401,-0.137511 0.30467,0.1667 0.30466,-0.245748 0.30467,5.41e-4 0.60934,0.174971 0.30467,-0.09735 0.30466,-0.216855 0.30467,0.164406 0.60934,-0.121671 0.30467,0.06858 0.60933,-0.08616 0.30467,0.152105 0.30467,0.0022 0.30467,-0.223346 1.21867,0.04298 1.21868,-0.145091 0.30466,0.145362 0.30467,-0.239511 0.60934,0.11507 0.30467,-0.105059 0.60933,0.07331 3.04669,-0.215798 0.60933,-0.09712 0.30467,0.122636 0.30467,-0.14396 0.60934,0.06451 0.914,-0.119493 0.30467,0.115374 0.30467,-0.113821 0.30467,0.04543 0.30467,-0.175527 1.21867,-0.03054 0.30467,-0.06255 0.30467,0.13648 6.09336,-0.358142 0.30467,0.150868 0.30467,0.0075 0.30467,-0.234062 3.35135,0.0036 0.30467,0.04343 0.30466,-0.206388 0.30467,0.05432 0.30467,-0.217349 0.91401,0.242254 0.60933,-0.276716 0.30467,0.283809 0.30467,-0.175545 1.52334,-0.132006 0.30467,0.245398 0.30467,-0.22214 0.30467,-0.07228 0.30466,0.111533 1.21868,-0.198903 0.60933,0.139853 0.60934,-0.178057 0.30467,0.277155 0.30467,-0.271882 0.30466,0.148545 0.60934,-0.194673 0.91401,0.03151 0.30466,-0.153153 0.60934,0.05052 0.30467,0.152361 0.60934,-0.244511 0.30466,0.141804 0.30467,-0.08795 0.30467,0.03684 0.60934,-0.147651 v 0"
           style="fill:none;stroke:#1f77b4;stroke-width:1.5;stroke-linecap:square;stroke-linejoin:round;stroke-miterlimit:10;stroke-dasharray:none;stroke-opacity:1"
           id="path366" /></g></g><g
       id="g368"
       transform="matrix(0.61066732,0,0,0.61066732,7.004022,125.46147)"><g
         id="g370"
         clip-path="url(#clipPath374)"><path
           d="m 69.218182,265.00509 0.304668,-16.15668 0.304668,-23.62559 0.304669,12.9582 0.304668,-27.50861 0.304668,4.35138 0.304669,1.65584 0.304668,-30.02237 0.304668,1.39957 0.304669,-6.00007 0.304668,-1.96716 0.304668,4.38156 0.304668,-6.23328 0.304669,-1.54816 0.304668,14.52433 0.304668,-20.35051 0.304669,6.84328 0.304668,0.72574 0.304668,10.32844 0.304669,-6.91065 0.304668,1.99454 0.304668,9.48245 0.304669,-14.45 0.304668,21.14602 0.304668,-21.62202 0.304668,11.68768 0.304669,-9.09678 0.304668,4.90265 0.609337,-16.33979 0.304668,10.63641 0.304668,-9.51297 0.304669,22.41454 0.304668,-23.03131 0.304668,8.14617 0.304668,-1.15615 0.304669,-6.28077 0.304668,2.33073 0.304668,5.97303 0.609337,2.33558 0.304668,1.85005 0.304669,4.35897 0.304668,-15.06741 0.304668,5.00704 0.304669,-4.80571 0.304668,8.08828 0.304668,-1.48824 0.609337,10.57573 0.304668,-7.04908 0.304668,4.6093 0.304669,0.37558 0.304668,2.05029 0.304668,-2.77646 0.304669,-7.54744 0.304668,23.57625 0.304668,-19.1747 0.304668,5.00056 0.304669,-8.08167 0.304668,8.37632 0.304668,-8.89003 0.609337,5.81064 0.304668,-14.68115 0.304669,5.80485 0.304668,2.1303 0.304668,-6.27594 0.304669,10.55857 0.304668,-9.28508 0.304668,6.22842 0.304668,-2.27547 0.304669,-10.28928 0.304668,10.72201 0.304668,-1.17399 0.304669,-0.48884 0.304668,-10.69122 0.304668,7.89655 0.304669,-0.0243 0.609336,-8.56009 0.304668,1.71916 0.304669,-0.12455 0.304668,3.20588 0.304668,-9.71915 0.304669,-5.34053 0.304668,13.94899 0.304668,-5.73029 0.304669,-2.57917 0.304668,-7.17657 0.304668,7.71016 0.609337,-10.22744 0.304668,0.82475 0.304668,0.43408 0.304669,-1.46347 0.304668,6.71174 0.304668,-2.67637 0.304669,3.72381 0.304668,-3.16852 0.609337,-4.01614 0.304669,-2.75212 0.30467,7.2364 0.60933,-6.93181 0.30467,6.85443 0.30467,-12.44492 0.30467,7.64291 0.30467,0.62509 0.30467,3.15259 0.30466,-1.38701 0.30467,-8.54485 0.30467,9.31681 0.30467,-5.39518 0.30467,-0.79038 0.30466,3.37777 0.30467,-7.43372 0.30467,9.23492 0.30467,-7.76685 0.30467,3.81416 0.30467,8.52548 0.30467,-12.10345 0.30466,-0.24105 0.30467,-2.74293 0.30467,-0.21001 0.30467,8.17774 0.30467,-9.64322 0.30467,9.25361 0.30466,-3.74089 0.30467,-1.23148 0.30467,-2.31161 0.30467,1.33618 0.30467,-0.47971 0.30466,-2.20924 0.30467,-5.57464 0.30467,3.19851 0.30467,7.31312 0.30467,-14.51701 0.30467,3.90856 0.30466,-1.75793 0.30467,9.94041 0.30467,-1.14052 0.30467,-5.02409 0.30467,-0.13207 0.30467,-1.93145 0.30466,4.6663 0.30467,-3.85893 0.30467,9.48462 0.30467,3.29794 0.30467,-4.60317 0.30467,-6.68093 0.30466,2.92685 0.30467,-5.77513 0.30467,2.42187 0.30467,-6.54873 0.30467,2.548 0.30467,4.72915 0.30466,-12.59734 0.60934,13.70791 0.30467,-3.3868 0.30467,15.23613 0.60933,-19.62752 0.30467,2.24671 0.30467,-0.67971 0.30467,6.19834 0.30467,-11.45196 0.30467,0.78973 0.30466,1.66958 0.30467,8.17182 0.30467,2.52555 0.60934,-16.71264 0.30466,5.10664 0.30467,8.31975 0.30467,-2.63189 0.30467,-3.84809 0.30467,0.201 0.30467,4.84962 0.30467,-8.19672 0.30466,10.01717 0.30467,-1.76473 0.30467,-0.4942 0.30467,-2.60279 0.30467,-4.63405 0.30467,10.47055 0.60933,-13.64444 0.30467,7.10939 0.60934,-3.85131 0.30466,11.54642 0.30467,-8.67637 0.30467,-3.86075 0.30467,4.04115 0.30467,0.12626 0.30467,-1.99788 0.30466,3.74801 0.30467,-9.1745 0.30467,1.98757 0.30467,6.71394 0.30467,-1.75486 0.30467,0.54306 0.30466,-4.37259 0.30467,9.14107 0.30467,-1.62462 0.30467,-6.49858 0.30467,2.69067 0.30467,-1.48827 0.30466,-2.79564 0.30467,4.60998 0.30467,-2.77267 0.30467,-0.97012 0.30467,8.2789 0.30467,0.0904 0.30466,-5.01478 0.30467,-0.31099 0.60934,-4.51412 0.30467,3.1271 0.30466,-5.66221 0.30467,6.08234 0.30467,-4.67514 0.30467,-0.48371 0.30467,1.62034 0.30467,-3.40126 0.30466,5.8388 0.30467,-6.86756 0.30467,13.18269 0.30467,-9.97999 0.30467,5.092 0.30467,0.56006 0.30466,-2.12067 0.30467,3.05038 0.30467,-10.9019 0.60934,11.73115 0.60933,-5.41074 0.30467,-0.0919 0.30467,-5.2331 0.60934,9.78577 0.30467,-7.33996 0.30466,7.86421 0.30467,-5.16524 0.30467,4.85537 0.30467,2.54094 0.30467,-7.37691 0.30467,3.63385 0.30466,1.536 0.30467,-7.27462 0.30467,1.40161 0.30467,10.40069 0.60934,-12.87942 0.30466,-2.75122 0.30467,1.81648 0.30467,5.80916 0.30467,-6.59335 0.30467,14.12049 0.30467,-7.16389 0.30466,1.33118 0.30467,7.25778 0.30467,-9.4398 0.30467,0.37841 0.30467,-0.22594 0.30467,1.49098 0.30466,-2.128 0.30467,0.61331 0.30467,3.91041 0.30467,-0.87423 0.30467,2.99393 0.30467,-8.99275 0.30466,11.01242 0.30467,-6.33972 0.30467,6.61097 0.60934,-5.58382 0.30466,1.14749 0.30467,-2.53077 0.30467,6.30082 0.30467,-0.75932 0.60934,-8.24229 0.30466,7.94999 0.60934,-6.77105 0.30467,0.90178 0.60934,13.97718 0.30466,-11.20758 0.30467,-1.77234 0.30467,1.31759 0.30467,2.82296 0.30467,4.56203 0.30467,0.38429 0.30466,8.24177 0.30467,-8.70971 0.30467,-3.48183 0.30467,-0.73009 0.60934,-2.77169 0.30466,-6.37959 0.30467,4.531 0.30467,-0.11299 0.30467,16.97721 0.30467,-13.3899 0.30467,8.08979 0.30466,-10.17563 0.30467,1.22718 0.30467,0.61494 0.30467,-5.83558 0.30467,13.37814 0.30467,-4.53242 0.30466,-0.79649 0.30467,6.08395 0.30467,-1.32482 0.30467,7.28831 0.30467,-12.68322 0.30467,-0.078 0.30466,-3.14975 0.30467,10.06277 0.60934,-0.4305 0.30467,0.007 0.30467,-6.32061 0.30466,2.3219 0.30467,-1.82109 0.30467,-10.20103 0.30467,1.52257 0.30467,5.39198 0.30467,0.8638 0.60933,-7.1812 0.30467,6.96585 0.30467,0.89593 0.30467,-6.49264 0.30466,-0.23019 0.30467,5.26198 0.30467,-1.04375 0.30467,-8.7754 0.30467,11.46785 0.30467,6.86366 0.60933,-15.77421 0.30467,9.43489 0.30467,-6.91932 0.30467,5.07943 0.30467,8.24739 0.60933,-8.61435 0.30467,1.3938 0.30467,0.16306 0.30467,3.22288 0.30467,-0.64222 0.30466,4.97236 0.30467,-0.28347 0.30467,-3.86632 0.30467,-0.31844 0.30467,-2.43789 0.30467,3.55605 0.30466,-10.65406 0.30467,14.57303 0.30467,-12.29824 0.30467,0.86703 0.30467,5.66873 0.30467,-0.55334 0.30466,9.66055 0.30467,-8.07674 0.30467,-0.78881 0.30467,-2.08274 0.30467,7.37964 0.30467,-3.76483 0.30466,0.80234 0.30467,4.42773 0.60934,-4.45439 0.30467,0.2826 0.30467,2.52855 0.30466,11.28002 0.30467,-19.90916 0.30467,2.93946 0.30467,-3.62388 0.30467,9.38016 0.30467,-7.68123 0.30466,0.97282 0.30467,4.83599 0.30467,-0.319 0.30467,2.17434 0.30467,5.08264 0.30467,-6.37051 0.60933,-1.14328 0.30467,1.96023 0.30467,-1.32743 0.30467,4.09372 0.30466,-7.18884 0.30467,9.2444 0.30467,-0.97055 0.30467,-13.28467 0.30467,11.30277 0.30467,-4.96889 0.60933,2.04011 0.30467,-4.38702 0.30467,7.48125 0.30467,-3.49043 0.30467,2.59073 0.30466,-4.22594 0.30467,3.7045 0.30467,-1.82553 0.30467,-3.98515 0.30467,-1.54715 0.30467,3.93101 0.30466,7.20079 0.30467,-6.49362 0.30467,-2.29901 0.30467,5.66866 0.60934,-7.13626 0.30466,5.41576 0.30467,-9.69763 0.30467,1.86102 0.30467,6.21663 0.30467,-5.44196 0.30467,14.286 0.30466,-5.53383 0.30467,1.54319 0.30467,-8.70444 0.30467,0.34916 0.30467,4.89587 0.30467,-12.37693 0.30466,8.30633 0.30467,-1.0962 0.30467,3.43871 0.30467,0.1393 0.30467,-0.80836 0.30467,-5.21289 0.30466,6.33925 0.30467,1.15715 0.30467,2.36474 0.30467,-8.08567 0.30467,2.94657 0.30467,1.71069 0.30466,9.30433 0.30467,-5.4342 0.30467,0.50067 0.30467,-7.35991 0.30467,6.84425 0.30467,-0.62526 0.60933,-6.11085 0.60934,13.60328 0.30467,-13.30017 0.30466,3.4679 0.30467,-1.78146 0.30467,2.44093 0.30467,-6.97343 0.30467,1.36291 0.30467,8.89917 0.30466,1.82622 0.30467,-4.54463 0.30467,-0.4467 0.30467,5.28357 0.30467,-7.68963 0.30467,0.0739 0.30466,5.34008 0.30467,-6.79212 0.30467,6.68487 0.30467,-2.72342 0.30467,0.51415 0.30467,0.80572 0.30466,3.26696 0.30467,-6.49468 0.30467,-2.23168 0.30467,0.5383 0.30467,-1.33286 0.30467,-2.80737 0.30466,5.63914 0.30467,-2.60151 0.30467,5.73072 0.30467,-5.61769 0.30467,1.23028 0.30467,3.57954 0.30466,-5.66148 0.30467,2.39515 0.30467,-1.70449 0.30467,10.52388 0.30467,-7.35453 0.30467,0.0455 0.30466,-4.86254 0.60934,4.51487 0.30467,4.05022 0.30467,-9.2501 0.60933,6.51931 0.30467,-0.89397 0.30467,2.05004 0.30467,-1.92116 0.30467,4.91408 0.30467,-3.85981 0.30466,1.77929 0.30467,0.0293 0.30467,6.82122 0.30467,-10.56198 0.30467,2.67828 0.30467,1.35993 0.30466,-5.39646 0.30467,-0.14322 0.30467,5.41009 0.30467,-7.29488 0.30467,8.66518 0.30466,-2.22854 0.30467,1.0451 0.30467,-1.26437 0.60934,-4.15245 0.30467,2.03209 0.30466,-2.14365 0.30467,-1.24633 0.30467,3.37258 0.30467,-3.65942 0.60934,5.57199 0.30467,-3.98476 0.30466,0.58121 0.30467,-1.62235 0.30467,-0.14136 0.30467,4.05192 0.30467,-3.18005 0.30466,-0.93838 0.30467,3.83537 0.30467,-4.26095 0.30467,6.16781 0.30467,1.8447 0.30467,-8.02427 0.30466,5.39704 0.30467,-3.96929 0.30467,3.37083 0.30467,-0.56965 0.30467,-1.68518 0.30467,0.49668 0.30466,-1.06764 0.30467,9.6188 0.30467,1.25818 0.30467,-8.93173 0.30467,0.83025 0.30467,4.74246 0.914,-7.81843 0.30467,5.70845 0.30467,-4.28395 0.30467,0.95559 0.30466,6.42081 0.30467,-3.79945 0.30467,0.18143 0.30467,-0.82522 0.60934,-4.22438 0.30466,5.01157 0.30467,-4.10293 0.30467,0.61962 0.30467,-1.06606 0.30467,3.68651 0.30466,-1.41998 0.30467,-0.21761 0.30467,0.12768 0.30467,-2.67019 0.30467,5.05468 0.30467,2.9976 0.30466,-6.79114 0.30467,-0.67605 0.30467,7.69472 0.30467,-7.27024 0.30467,9.93956 0.30467,-8.38455 0.30466,-0.8776 0.60934,-2.8561 0.30467,2.98289 0.30467,-1.11167 0.30467,-3.088 0.30466,1.76768 0.30467,-0.78029 0.30467,6.86237 0.30467,-5.74319 0.30467,4.85032 0.30467,-3.12234 0.30466,1.53836 0.30467,2.16377 0.30467,-5.76033 0.60934,1.97344 0.30467,-4.01822 0.30466,3.82082 0.30467,1.22163 0.60934,-0.60918 0.30467,-2.55755 0.30467,5.94096 0.30466,-4.35756 0.30467,2.98787 0.30467,-3.722 0.30467,3.32579 0.30467,1.0939 0.30467,-1.38332 0.30466,1.12907 0.60934,-7.411 0.30467,5.41331 0.30467,-2.93663 0.30467,-0.37327 0.30466,1.05636 0.30467,-0.0974 0.30467,6.51619 0.30467,-7.60533 0.30467,4.73484 0.30467,1.16478 0.30466,-8.43132 0.30467,7.52984 0.30467,-4.40366 0.60934,4.63056 0.30467,-1.80847 0.30466,0.92578 0.30467,-4.44324 0.30467,6.17463 0.30467,-1.64239 0.30467,-4.61894 0.30466,3.63609 0.30467,1.13134 0.30467,2.10653 0.30467,-6.31731 0.30467,7.00038 0.30467,-5.97868 0.30466,6.27238 0.30467,-4.37888 0.60934,-2.92129 0.30467,3.71916 0.30467,0.14416 0.30466,0.27743 0.30467,1.72947 0.30467,-6.06625 0.30467,0.1912 0.30467,6.29928 0.30467,-1.6032 0.30466,4.26774 0.30467,-1.82472 0.30467,-7.82653 0.30467,4.23443 0.30467,-2.33022 0.30467,0.37522 0.30466,-6.71479 0.30467,8.12558 0.30467,0.58417 0.30467,2.82714 0.30467,-5.48178 0.30467,0.28014 0.30466,0.0915 0.30467,-1.35658 0.30467,1.82314 0.60934,-6.4257 0.30467,7.25609 0.30466,-0.89277 0.30467,0.42135 0.30467,0.99255 0.30467,-5.22076 0.30467,-0.001 0.30467,6.84787 0.30466,-3.92551 0.60934,2.07088 0.30467,-4.94601 0.30467,6.99346 0.30467,-6.43028 0.30466,8.31556 0.30467,-3.54741 0.30467,0.26585 0.30467,0.435 0.30467,3.35904 0.60933,-9.60486 0.30467,4.96704 0.30467,2.99242 0.30467,-3.59577 0.30467,-4.92737 0.30467,8.41782 0.30466,-7.97514 0.30467,5.97253 0.30467,1.77661 0.30467,-3.94852 0.30467,5.26162 0.60933,-1.14109 0.30467,-4.51087 0.30467,0.3808 0.30467,-0.85249 0.30467,6.12734 0.30466,-6.3534 0.30467,3.19298 0.30467,1.8143 0.30467,-3.53325 0.30467,2.38742 0.30467,-4.14486 0.30467,2.41222 0.30466,-0.10322 0.30467,3.60379 0.30467,-1.29399 0.30467,-5.03878 0.30467,2.60807 0.30466,1.58919 0.30467,-3.76878 0.30467,1.77248 0.30467,4.7608 0.30467,-5.41385 0.30467,1.86576 0.30466,-0.72146 0.30467,-3.50051 0.30467,0.0521 0.30467,4.59411 0.30467,-1.32443 0.30467,5.10231 0.30466,-4.79293 0.30467,3.82227 0.30467,-5.39719 0.30467,8.9399 0.60934,-7.67713 0.30466,1.09484 0.30467,0.3855 0.30467,-1.38132 0.30467,1.29148 0.30467,-4.0371 0.30467,1.85435 0.30466,0.58578 0.30467,-2.39862 0.30467,3.37084 0.30467,2.13595 0.30467,-2.87769 0.30466,4.70323 0.30467,-1.2887 0.60934,-3.54553 0.30467,5.75722 0.30467,-1.1932 0.30466,-5.57107 0.30467,3.73777 0.30467,-1.30571 0.30467,-0.75452 0.30467,0.34401 0.30467,3.82282 0.30466,-7.58021 0.30467,2.8673 0.30467,1.22923 0.30467,-1.34706 0.60934,4.78809 0.30466,-5.21666 0.30467,4.61799 0.30467,-2.19255 0.30467,-5.91791 0.30467,4.74452 0.30467,-1.32862 0.30467,1.96593 0.30466,-1.53315 0.30467,3.33883 0.30467,1.17902 0.30467,0.14912 0.30467,-3.64991 0.60933,2.36778 0.30467,0.60895 0.30467,-0.45663 0.30467,-4.49317 0.30467,4.96422 0.30466,-1.15679 0.30467,-4.98825 0.30467,1.97681 0.30467,8.06883 0.30467,-7.44784 0.30467,0.19576 0.30466,-0.45153 0.30467,3.55828 0.30467,1.53442 0.30467,-5.75244 0.30467,0.96034 0.30467,3.90017 0.30466,-5.63787 0.30467,3.67994 0.30467,-4.61967 0.30467,6.61944 0.30467,-4.88463 0.30467,0.52478 0.30466,5.31732 0.60934,-3.31801 0.30467,-0.61291 0.30467,-4.40359 0.30466,4.21654 0.30467,0.23007 0.30467,-3.11075 0.30467,-0.53763 0.30467,6.67604 0.60934,-5.09352 0.30466,3.79049 0.30467,-5.2878 0.30467,3.57005 0.30467,1.95893 0.30467,-6.88742 0.30466,6.58812 0.30467,-3.33512 0.30467,-1.0802 0.30467,-1.84992 0.60934,4.99182 0.30467,-3.34435 0.30466,9.60187 0.60934,-3.79938 0.30467,-0.87123 0.30467,-3.78145 0.30466,1.20608 0.30467,0.4346 0.30467,-0.12088 0.30467,0.78623 0.30467,-3.69046 0.30467,2.67444 0.30466,-2.92895 0.30467,-0.25646 0.30467,3.93337 0.30467,-2.64099 0.30467,1.05313 0.30467,1.76707 0.30466,-0.48932 0.30467,-4.10553 0.30467,5.58195 0.30467,-2.53795 0.30467,2.85657 0.30467,-2.62439 0.30466,4.0439 0.30467,-3.7029 0.30467,3.98219 0.30467,-6.04125 0.30467,1.92313 0.30467,0.017 0.30466,1.25622 0.30467,-0.0884 0.30467,-3.15657 0.30467,4.12286 0.30467,-4.00538 0.60933,2.10025 0.30467,-0.19623 0.30467,-0.41195 0.30467,5.43591 0.60933,-4.30423 0.30467,7.92458 0.30467,-7.49128 0.30467,2.68318 0.30467,-1.4656 0.30467,1.94923 0.30466,0.57302 0.30467,-8.71063 0.91401,7.16786 0.30467,1.8021 0.30466,-5.25561 0.30467,-1.97411 0.30467,2.6301 0.30467,-3.89625 0.30467,5.46155 0.30467,-2.18386 0.30466,0.92107 0.30467,2.19403 0.30467,0.37951 0.30467,-5.73496 0.60934,5.25397 0.30466,-1.75866 0.30467,0.54197 0.30467,3.28231 0.30467,-5.78059 0.30467,6.24638 0.30467,-0.84811 0.30466,-4.32105 0.30467,0.98963 0.30467,-0.38954 0.30467,-3.34857 0.30467,7.92426 0.30467,-7.60582 0.30466,1.64669 0.30467,-0.43062 0.30467,2.56909 0.30467,1.15049 0.30467,-1.26588 0.30467,0.88762 0.30466,-4.40676 0.30467,3.0448 0.30467,-0.27551 0.30467,3.18027 0.60934,-0.56471 0.30466,-5.99873 0.30467,8.37165 0.30467,-4.37229 0.30467,-2.02199 0.30467,0.60422 0.30467,3.24152 0.30466,-0.69916 0.30467,2.88269 0.30467,-3.76428 0.30467,2.3924 0.60933,-2.6146 0.30467,-2.97936 0.30467,0.59081 0.30467,4.56981 0.30467,-3.48506 0.30467,3.64181 0.30466,-3.73121 0.60934,6.34307 0.60934,-5.90495 0.30467,1.45405 0.30466,-0.12569 0.60934,2.09834 0.30467,-2.69081 0.30467,0.1512 0.30467,-0.0183 0.30466,1.13875 0.30467,-1.7931 0.30467,3.57019 0.30467,-3.39105 0.30467,5.70661 0.30467,-4.09536 0.30466,-0.91739 0.30467,1.01767 0.30467,-1.58384 0.30467,-2.19618 0.30467,3.13105 0.30467,-0.0448 0.30466,0.75072 0.30467,-7.38351 0.30467,11.0429 0.30467,-4.91817 0.30467,0.46469 0.30467,4.34345 0.30466,-5.24164 0.30467,3.54637 0.30467,0.3532 0.30467,-3.79321 0.30467,2.05364 0.30467,3.96512 0.30466,-2.6942 0.30467,-3.98528 0.30467,-0.0881 0.30467,-0.41223 0.30467,1.21969 0.30467,-1.58811 0.30466,5.66816 0.30467,-3.08986 0.30467,0.36301 0.30467,2.99088 0.30467,-6.46854 0.30466,0.19231 0.30467,1.98138 0.30467,4.98997 0.60934,-4.19334 0.30467,-0.50651 0.30466,0.35233 0.30467,1.14808 0.30467,-2.61022 0.30467,7.12745 0.30467,-5.81105 0.30467,-3.09135 0.30466,-1.29996 0.30467,6.07437 0.30467,2.24735 0.30467,-2.74181 0.30467,3.42683 0.30467,-0.40682 0.30466,-3.53434 0.30467,1.34992 0.30467,-3.13636 0.30467,4.54616 0.30467,0.80309 v 0"
           style="fill:none;stroke:#ff7f0e;stroke-width:1.5;stroke-linecap:square;stroke-linejoin:round;stroke-miterlimit:10;stroke-dasharray:none;stroke-opacity:1"
           id="path376" /></g></g><path
       d="M 39.980057,147.22565 V 299.57493"
       style="fill:none;stroke:#000000;stroke-width:0.488534;stroke-linecap:square;stroke-linejoin:miter;stroke-miterlimit:10;stroke-dasharray:none;stroke-opacity:1"
       id="path380" /><path
       d="M 244.43147,147.22565 V 299.57493"
       style="fill:none;stroke:#000000;stroke-width:0.488534;stroke-linecap:square;stroke-linejoin:miter;stroke-miterlimit:10;stroke-dasharray:none;stroke-opacity:1"
       id="path382" /><path
       d="M 39.980057,147.22565 H 244.43147"
       style="fill:none;stroke:#000000;stroke-width:0.488534;stroke-linecap:square;stroke-linejoin:miter;stroke-miterlimit:10;stroke-dasharray:none;stroke-opacity:1"
       id="path384" /><path
       d="M 39.980057,299.57493 H 244.43147"
       style="fill:none;stroke:#000000;stroke-width:0.488534;stroke-linecap:square;stroke-linejoin:miter;stroke-miterlimit:10;stroke-dasharray:none;stroke-opacity:1"
       id="path386" /><path
       d="m 163.9199,258.80219 h 59.33506 c 0.9737,0 1.46055,0.40711 1.46055,1.22133 v 17.30861 c 0,0.81422 -0.48685,1.22133 -1.46055,1.22133 H 163.9199 c -0.97371,0 -1.46056,-0.40711 -1.46056,-1.22133 v -17.30861 c 0,-0.81422 0.48685,-1.22133 1.46056,-1.22133 z"
       style="fill:#ffffff;fill-opacity:0.8;fill-rule:nonzero;stroke:#cccccc;stroke-width:0.667801;stroke-linecap:butt;stroke-linejoin:miter;stroke-miterlimit:10;stroke-dasharray:none;stroke-opacity:0.8"
       id="path392" /><path
       d="m 164.90201,273.61087 h 12.21335"
       style="fill:none;stroke:#1f77b4;stroke-width:0.916001;stroke-linecap:square;stroke-linejoin:round;stroke-miterlimit:10;stroke-dasharray:none;stroke-opacity:1"
       id="path394" /><path
       d="m 164.90201,264.65123 h 12.21335"
       style="fill:none;stroke:#ff7f0e;stroke-width:0.916001;stroke-linecap:square;stroke-linejoin:round;stroke-miterlimit:10;stroke-dasharray:none;stroke-opacity:1"
       id="path400" /></g><g
     inkscape:groupmode="layer"
     id="layer1"
     inkscape:label="text"
     style="display:inline"><text
       transform="matrix(1.3333333,0,0,1.3333333,-23.986417,400.31623)"
       style="font-variant:normal;font-weight:normal;font-size:6.10667px;font-family:'DejaVu Sans';-inkscape-font-specification:DejaVuSans;writing-mode:lr-tb;fill:#000000;fill-opacity:1;fill-rule:nonzero;stroke:none;stroke-width:0.610667"
       id="text32"
       x="47.145519"
       y="-138.31374"><tspan
         x="47.145519"
         y="-138.31374"
         id="tspan30"
         style="stroke-width:0.610667">0</tspan></text><text
       transform="matrix(1.3333333,0,0,1.3333333,-23.986417,400.31623)"
       style="font-variant:normal;font-weight:normal;font-size:6.10667px;font-family:'DejaVu Sans';-inkscape-font-specification:DejaVuSans;writing-mode:lr-tb;fill:#000000;fill-opacity:1;fill-rule:nonzero;stroke:none;stroke-width:0.610667"
       id="text50"
       x="61.867157"
       y="-138.31374"><tspan
         x="61.867157 65.750999 69.634842"
         y="-138.31374"
         sodipodi:role="line"
         id="tspan48"
         style="stroke-width:0.610667">100</tspan></text><text
       transform="matrix(1.3333333,0,0,1.3333333,-23.986417,400.31623)"
       style="font-variant:normal;font-weight:normal;font-size:6.10667px;font-family:'DejaVu Sans';-inkscape-font-specification:DejaVuSans;writing-mode:lr-tb;fill:#000000;fill-opacity:1;fill-rule:nonzero;stroke:none;stroke-width:0.610667"
       id="text68"
       x="80.472252"
       y="-138.31374"><tspan
         x="80.472252 84.356094 88.239944"
         y="-138.31374"
         sodipodi:role="line"
         id="tspan66"
         style="stroke-width:0.610667">200</tspan></text><text
       transform="matrix(1.3333333,0,0,1.3333333,-23.986417,400.31623)"
       style="font-variant:normal;font-weight:normal;font-size:6.10667px;font-family:'DejaVu Sans';-inkscape-font-specification:DejaVuSans;writing-mode:lr-tb;fill:#000000;fill-opacity:1;fill-rule:nonzero;stroke:none;stroke-width:0.610667"
       id="text86"
       x="99.077354"
       y="-138.31374"><tspan
         x="99.077354 102.9612 106.84504"
         y="-138.31374"
         sodipodi:role="line"
         id="tspan84"
         style="stroke-width:0.610667">300</tspan></text><text
       transform="matrix(1.3333333,0,0,1.3333333,-23.986417,400.31623)"
       style="font-variant:normal;font-weight:normal;font-size:6.10667px;font-family:'DejaVu Sans';-inkscape-font-specification:DejaVuSans;writing-mode:lr-tb;fill:#000000;fill-opacity:1;fill-rule:nonzero;stroke:none;stroke-width:0.610667"
       id="text104"
       x="117.68245"
       y="-138.31374"><tspan
         x="117.68245 121.56629 125.45014"
         y="-138.31374"
         sodipodi:role="line"
         id="tspan102"
         style="stroke-width:0.610667">400</tspan></text><text
       transform="matrix(1.3333333,0,0,1.3333333,-23.986417,400.31623)"
       style="font-variant:normal;font-weight:normal;font-size:6.10667px;font-family:'DejaVu Sans';-inkscape-font-specification:DejaVuSans;writing-mode:lr-tb;fill:#000000;fill-opacity:1;fill-rule:nonzero;stroke:none;stroke-width:0.610667"
       id="text122"
       x="136.28755"
       y="-138.31374"><tspan
         x="136.28755 140.17139 144.05524"
         y="-138.31374"
         sodipodi:role="line"
         id="tspan120"
         style="stroke-width:0.610667">500</tspan></text><text
       transform="matrix(1.3333333,0,0,1.3333333,-23.986417,400.31623)"
       style="font-variant:normal;font-weight:normal;font-size:6.10667px;font-family:'DejaVu Sans';-inkscape-font-specification:DejaVuSans;writing-mode:lr-tb;fill:#000000;fill-opacity:1;fill-rule:nonzero;stroke:none;stroke-width:0.610667"
       id="text140"
       x="154.89264"
       y="-138.31374"><tspan
         x="154.89264 158.77649 162.66032"
         y="-138.31374"
         sodipodi:role="line"
         id="tspan138"
         style="stroke-width:0.610667">600</tspan></text><text
       transform="matrix(1.3333333,0,0,1.3333333,-23.986417,400.31623)"
       style="font-variant:normal;font-weight:normal;font-size:6.10667px;font-family:'DejaVu Sans';-inkscape-font-specification:DejaVuSans;writing-mode:lr-tb;fill:#000000;fill-opacity:1;fill-rule:nonzero;stroke:none;stroke-width:0.610667"
       id="text158"
       x="173.49774"
       y="-138.31374"><tspan
         x="173.49774 177.38159 181.26543"
         y="-138.31374"
         sodipodi:role="line"
         id="tspan156"
         style="stroke-width:0.610667">700</tspan></text><text
       transform="matrix(1.3333333,0,0,1.3333333,-23.986417,400.31623)"
       style="font-variant:normal;font-weight:normal;font-size:6.10667px;font-family:'DejaVu Sans';-inkscape-font-specification:DejaVuSans;writing-mode:lr-tb;fill:#000000;fill-opacity:1;fill-rule:nonzero;stroke:none;stroke-width:0.610667"
       id="text176"
       x="192.10284"
       y="-138.31374"><tspan
         x="192.10284 195.98668 199.87053"
         y="-138.31374"
         sodipodi:role="line"
         id="tspan174"
         style="stroke-width:0.610667">800</tspan></text><text
       transform="matrix(1.3333333,0,0,1.3333333,-23.986417,400.31623)"
       style="font-variant:normal;font-weight:normal;font-size:6.10667px;font-family:'DejaVu Sans';-inkscape-font-specification:DejaVuSans;writing-mode:lr-tb;fill:#000000;fill-opacity:1;fill-rule:nonzero;stroke:none;stroke-width:0.610667"
       id="text194"
       x="210.70795"
       y="-138.31374"><tspan
         x="210.70795 214.59178 218.47563"
         y="-138.31374"
         sodipodi:role="line"
         id="tspan192"
         style="stroke-width:0.610667">900</tspan></text><text
       transform="matrix(1.3333333,0,0,1.3333333,-23.986417,400.31623)"
       style="font-variant:normal;font-weight:normal;font-size:6.10667px;font-family:'DejaVu Sans';-inkscape-font-specification:DejaVuSans;writing-mode:lr-tb;fill:#000000;fill-opacity:1;fill-rule:nonzero;stroke:none;stroke-width:0.610667"
       id="text212"
       x="227.37131"
       y="-138.31375"><tspan
         x="227.37131 231.25516 235.13899 239.02284"
         y="-138.31375"
         sodipodi:role="line"
         id="tspan210"
         style="stroke-width:0.610667">1000</tspan></text><text
       transform="matrix(1.3333333,0,0,1.3333333,-23.986417,400.31623)"
       style="font-variant:normal;font-weight:normal;font-size:6.10667px;font-family:'DejaVu Sans';-inkscape-font-specification:DejaVuSans;writing-mode:lr-tb;fill:#000000;fill-opacity:1;fill-rule:nonzero;stroke:none;stroke-width:0.610667"
       id="text216"
       x="132.90263"
       y="-129.96478"><tspan
         x="132.90263 136.65823 140.53596 144.27325 147.63193"
         y="-129.96478"
         sodipodi:role="line"
         id="tspan214"
         style="stroke-width:0.610667">epoch</tspan></text><g
       id="g232"
       transform="matrix(0.81422307,0,0,-0.81422307,8.9647475,140.35549)"><text
         transform="matrix(1,0,0,-1,0,0.0640625)"
         style="font-variant:normal;font-weight:normal;font-size:10px;font-family:'DejaVu Sans';-inkscape-font-specification:DejaVuSans;writing-mode:lr-tb;fill:#000000;fill-opacity:1;fill-rule:nonzero;stroke:none"
         id="text236"><tspan
           x="0 6.3623047"
           y="0"
           sodipodi:role="line"
           id="tspan234">10</tspan></text><text
         transform="matrix(1,0,0,-1,12.820313,3.8921875)"
         style="font-variant:normal;font-weight:normal;font-size:7px;font-family:'DejaVu Sans';-inkscape-font-specification:DejaVuSans;writing-mode:lr-tb;fill:#000000;fill-opacity:1;fill-rule:nonzero;stroke:none"
         id="text240"><tspan
           x="0"
           y="0"
           id="tspan238">5</tspan></text></g><text
       transform="matrix(0,-1.3333333,1.3333333,0,-23.986417,400.31623)"
       style="font-variant:normal;font-weight:normal;font-size:6.10667px;font-family:'DejaVu Sans';-inkscape-font-specification:DejaVuSans;writing-mode:lr-tb;fill:#000000;fill-opacity:1;fill-rule:nonzero;stroke:none;stroke-width:0.610667"
       id="text356"
       x="215.28914"
       y="30.985695"><tspan
         x="215.28914 216.9868 220.72409 223.90567"
         y="30.985695"
         sodipodi:role="line"
         id="tspan354"
         style="stroke-width:0.610667">loss (MSE)</tspan></text><text
       transform="matrix(1.3333333,0,0,1.3333333,-23.986417,400.31623)"
       style="font-variant:normal;font-weight:normal;font-size:6.10667px;font-family:'DejaVu Sans';-inkscape-font-specification:DejaVuSans;writing-mode:lr-tb;fill:#000000;fill-opacity:1;fill-rule:nonzero;stroke:none;stroke-width:0.610667"
       id="text398"
       x="182.00069"
       y="-271.47357"><tspan
         x="182.00069 184.39452 186.90434 190.64774 192.3454"
         y="-271.47357"
         sodipodi:role="line"
         id="tspan396"
         style="stroke-width:0.610667">train</tspan></text><text
       transform="matrix(1.3333333,0,0,1.3333333,-23.986417,400.31623)"
       style="font-variant:normal;font-weight:normal;font-size:6.10667px;font-family:'DejaVu Sans';-inkscape-font-specification:DejaVuSans;writing-mode:lr-tb;fill:#000000;fill-opacity:1;fill-rule:nonzero;stroke:none;stroke-width:0.610667"
       id="text404"
       x="182.00069"
       y="-262.51392"><tspan
         x="182.00069 185.61584 189.35924 191.0569 192.75455 196.63229 200.37569 202.76949 204.46713 208.20442"
         y="-262.51392"
         sodipodi:role="line"
         id="tspan402"
         style="stroke-width:0.610667">validation</tspan></text><text
       xml:space="preserve"
       style="font-style:normal;font-weight:normal;font-size:6.71734px;line-height:1.25;font-family:sans-serif;letter-spacing:0px;word-spacing:0px;fill:#000000;fill-opacity:1;stroke:none;stroke-width:0.458"
       x="17.471581"
       y="-150.00133"
       id="text1249"
       transform="matrix(1.3333333,0,0,1.3333333,-23.986417,400.31623)"><tspan
         sodipodi:role="line"
         id="tspan1247"
         x="17.471581"
         y="-150.00133"
         style="stroke-width:0.458">5x$10^4$</tspan></text></g></svg>
