<?xml version="1.0" encoding="UTF-8" standalone="no"?>
<svg
   xmlns:dc="http://purl.org/dc/elements/1.1/"
   xmlns:cc="http://creativecommons.org/ns#"
   xmlns:rdf="http://www.w3.org/1999/02/22-rdf-syntax-ns#"
   xmlns:svg="http://www.w3.org/2000/svg"
   xmlns="http://www.w3.org/2000/svg"
   xmlns:sodipodi="http://sodipodi.sourceforge.net/DTD/sodipodi-0.dtd"
   xmlns:inkscape="http://www.inkscape.org/namespaces/inkscape"
   version="1.1"
   id="svg2"
   xml:space="preserve"
   width="80mm"
   height="65.300003mm"
   viewBox="0 0 302.36219 246.80316"
   sodipodi:docname="pearson_chr10.svg"
   inkscape:version="1.0.2 (1.0.2+r75+1)"><metadata
     id="metadata8"><rdf:RDF><cc:Work
         rdf:about=""><dc:format>image/svg+xml</dc:format><dc:type
           rdf:resource="http://purl.org/dc/dcmitype/StillImage" /><dc:title></dc:title></cc:Work></rdf:RDF></metadata><defs
     id="defs6"><clipPath
       clipPathUnits="userSpaceOnUse"
       id="clipPath22"><path
         d="M 57.6,38.016 H 414.72 V 304.128 H 57.6 Z"
         id="path20" /></clipPath><clipPath
       clipPathUnits="userSpaceOnUse"
       id="clipPath40"><path
         d="M 57.6,38.016 H 414.72 V 304.128 H 57.6 Z"
         id="path38" /></clipPath><clipPath
       clipPathUnits="userSpaceOnUse"
       id="clipPath58"><path
         d="M 57.6,38.016 H 414.72 V 304.128 H 57.6 Z"
         id="path56" /></clipPath><clipPath
       clipPathUnits="userSpaceOnUse"
       id="clipPath76"><path
         d="M 57.6,38.016 H 414.72 V 304.128 H 57.6 Z"
         id="path74" /></clipPath><clipPath
       clipPathUnits="userSpaceOnUse"
       id="clipPath94"><path
         d="M 57.6,38.016 H 414.72 V 304.128 H 57.6 Z"
         id="path92" /></clipPath><clipPath
       clipPathUnits="userSpaceOnUse"
       id="clipPath112"><path
         d="M 57.6,38.016 H 414.72 V 304.128 H 57.6 Z"
         id="path110" /></clipPath><clipPath
       clipPathUnits="userSpaceOnUse"
       id="clipPath130"><path
         d="M 57.6,38.016 H 414.72 V 304.128 H 57.6 Z"
         id="path128" /></clipPath><clipPath
       clipPathUnits="userSpaceOnUse"
       id="clipPath148"><path
         d="M 57.6,38.016 H 414.72 V 304.128 H 57.6 Z"
         id="path146" /></clipPath><clipPath
       clipPathUnits="userSpaceOnUse"
       id="clipPath170"><path
         d="M 57.6,38.016 H 414.72 V 304.128 H 57.6 Z"
         id="path168" /></clipPath><clipPath
       clipPathUnits="userSpaceOnUse"
       id="clipPath188"><path
         d="M 57.6,38.016 H 414.72 V 304.128 H 57.6 Z"
         id="path186" /></clipPath><clipPath
       clipPathUnits="userSpaceOnUse"
       id="clipPath206"><path
         d="M 57.6,38.016 H 414.72 V 304.128 H 57.6 Z"
         id="path204" /></clipPath><clipPath
       clipPathUnits="userSpaceOnUse"
       id="clipPath224"><path
         d="M 57.6,38.016 H 414.72 V 304.128 H 57.6 Z"
         id="path222" /></clipPath><clipPath
       clipPathUnits="userSpaceOnUse"
       id="clipPath242"><path
         d="M 57.6,38.016 H 414.72 V 304.128 H 57.6 Z"
         id="path240" /></clipPath><clipPath
       clipPathUnits="userSpaceOnUse"
       id="clipPath260"><path
         d="M 57.6,38.016 H 414.72 V 304.128 H 57.6 Z"
         id="path258" /></clipPath><clipPath
       clipPathUnits="userSpaceOnUse"
       id="clipPath282"><path
         d="M 57.6,38.016 H 414.72 V 304.128 H 57.6 Z"
         id="path280" /></clipPath><clipPath
       clipPathUnits="userSpaceOnUse"
       id="clipPath292"><path
         d="M 57.6,38.016 H 414.72 V 304.128 H 57.6 Z"
         id="path290" /></clipPath><clipPath
       clipPathUnits="userSpaceOnUse"
       id="clipPath302"><path
         d="M 57.6,38.016 H 414.72 V 304.128 H 57.6 Z"
         id="path300" /></clipPath></defs><sodipodi:namedview
     pagecolor="#ffffff"
     bordercolor="#666666"
     borderopacity="1"
     objecttolerance="10"
     gridtolerance="10"
     guidetolerance="10"
     inkscape:pageopacity="0"
     inkscape:pageshadow="2"
     inkscape:window-width="1920"
     inkscape:window-height="1020"
     id="namedview4"
     showgrid="false"
     fit-margin-top="0"
     fit-margin-left="0"
     fit-margin-right="0"
     fit-margin-bottom="0"
     units="mm"
     inkscape:zoom="1.8598091"
     inkscape:cx="188.61556"
     inkscape:cy="151.51659"
     inkscape:window-x="0"
     inkscape:window-y="0"
     inkscape:window-maximized="1"
     inkscape:current-layer="g10" /><g
     id="g10"
     inkscape:groupmode="layer"
     inkscape:label="pearson_chr10"
     transform="matrix(1.3333333,0,0,-1.3333333,-28.023958,443.59358)"><g
       id="g298"
       clip-path="url(#clipPath302)"
       style="stroke:#d40000"
       transform="matrix(0.57537176,0,0,0.57537176,8.9248235,141.98457)"><path
         d="m 57.6,248.04826 4.520506,-7.31345 4.520507,-2.67199 4.520506,-1.92582 4.520506,0.52852 4.520507,1.5828 4.520506,-0.83742 4.520506,4.75577 4.520507,1.51933 4.520506,-0.1265 4.520503,-0.0103 4.52051,0.10428 4.52051,-2.9016 4.5205,0.21693 4.52051,-0.43194 4.52051,1.81056 4.5205,-2.13652 4.52051,-1.28172 4.5205,1.11446 4.52051,0.68509 4.52051,-1.5634 4.5205,-2.88215 4.52051,-3.72723 4.52051,-3.7109 4.5205,-0.44788 4.52051,-2.4429 4.5205,-0.96455 4.52051,1.22164 4.52051,-1.212 4.5205,6.89727 4.52051,3.34875 4.52051,-2.16375 4.5205,-1.01249 4.52051,6.2809 4.5205,-2.72251 4.52051,-2.2134 4.52051,-2.6234 4.5205,4.04371 4.52051,0.25559 4.52051,2.09483 4.5205,-4.94605 4.52051,0.91346 4.52051,2.43847 4.5205,-4.99945 4.52051,-0.86193 4.5205,-2.68794 4.52051,2.85342 4.52051,3.77661 4.5205,-0.51097 4.52051,4.62935 4.52051,-3.57512 4.5205,0.37684 4.52051,1.56505 4.5205,-2.09594 4.52051,-1.96746 4.52051,4.21977 4.5205,-2.11606 4.52051,-1.44609 4.52051,-1.48226 4.5205,-3.92104 4.52051,-3.91256 4.52051,0.7496 4.5205,0.77762 4.52051,-2.93298 4.5205,-4.47071 4.52051,-3.50641 4.52051,-0.75959 4.5205,-2.00022 4.52051,-1.98589 4.52051,-0.32473 4.5205,-3.05912 4.52051,1.95696 4.52051,0.20884 4.5205,-3.16905 4.52051,1.02544 4.5205,2.31483 4.52051,2.71847 4.52051,-3.92037 4.5205,1.00809 4.52051,-7.19419"
         style="fill:none;stroke:#d40000;stroke-width:1.5;stroke-linecap:square;stroke-linejoin:round;stroke-miterlimit:10;stroke-dasharray:none;stroke-opacity:1"
         id="path304" /></g><g
       id="g16"
       transform="matrix(0.57537176,0,0,0.57537176,8.9248235,141.98457)"><g
         id="g18"
         clip-path="url(#clipPath22)"><path
           d="M 57.6,38.016 V 304.128"
           style="fill:none;stroke:#b0b0b0;stroke-width:0.8;stroke-linecap:square;stroke-linejoin:round;stroke-miterlimit:10;stroke-dasharray:none;stroke-opacity:1"
           id="path24" /></g></g><path
       d="m 42.066236,163.85791 v -2.0138"
       style="fill:#000000;fill-opacity:1;fill-rule:nonzero;stroke:#000000;stroke-width:0.460297;stroke-linecap:butt;stroke-linejoin:round;stroke-miterlimit:10;stroke-dasharray:none;stroke-opacity:1"
       id="path28" /><text
       transform="scale(1,-1)"
       style="font-variant:normal;font-weight:normal;font-size:5.75372px;font-family:'DejaVu Sans';-inkscape-font-specification:DejaVuSans;writing-mode:lr-tb;fill:#000000;fill-opacity:1;fill-rule:nonzero;stroke:none;stroke-width:0.575372"
       id="text32"
       x="40.160732"
       y="-155.46117"><tspan
         x="40.160732 43.820091 45.649776 49.309143"
         y="-155.46117"
         sodipodi:role="line"
         id="tspan30"
         style="stroke-width:0.575372">0.00</tspan></text><g
       id="g34"
       transform="matrix(0.57537176,0,0,0.57537176,8.9248235,141.98457)"><g
         id="g36"
         clip-path="url(#clipPath40)"><path
           d="M 102.80506,38.016 V 304.128"
           style="fill:none;stroke:#b0b0b0;stroke-width:0.8;stroke-linecap:square;stroke-linejoin:round;stroke-miterlimit:10;stroke-dasharray:none;stroke-opacity:1"
           id="path42" /></g></g><path
       d="m 68.075951,163.85791 v -2.0138"
       style="fill:#000000;fill-opacity:1;fill-rule:nonzero;stroke:#000000;stroke-width:0.460297;stroke-linecap:butt;stroke-linejoin:round;stroke-miterlimit:10;stroke-dasharray:none;stroke-opacity:1"
       id="path46" /><text
       transform="scale(1,-1)"
       style="font-variant:normal;font-weight:normal;font-size:5.75372px;font-family:'DejaVu Sans';-inkscape-font-specification:DejaVuSans;writing-mode:lr-tb;fill:#000000;fill-opacity:1;fill-rule:nonzero;stroke:none;stroke-width:0.575372"
       id="text50"
       x="61.670444"
       y="-155.46117"><tspan
         x="61.670444 65.329811 67.159492 70.818855"
         y="-155.46117"
         sodipodi:role="line"
         id="tspan48"
         style="stroke-width:0.575372">0.25</tspan></text><g
       id="g52"
       transform="matrix(0.57537176,0,0,0.57537176,8.9248235,141.98457)"><g
         id="g54"
         clip-path="url(#clipPath58)"><path
           d="M 148.01013,38.016 V 304.128"
           style="fill:none;stroke:#b0b0b0;stroke-width:0.8;stroke-linecap:square;stroke-linejoin:round;stroke-miterlimit:10;stroke-dasharray:none;stroke-opacity:1"
           id="path60" /></g></g><path
       d="m 94.085671,163.85791 v -2.0138"
       style="fill:#000000;fill-opacity:1;fill-rule:nonzero;stroke:#000000;stroke-width:0.460297;stroke-linecap:butt;stroke-linejoin:round;stroke-miterlimit:10;stroke-dasharray:none;stroke-opacity:1"
       id="path64" /><text
       transform="scale(1,-1)"
       style="font-variant:normal;font-weight:normal;font-size:5.75372px;font-family:'DejaVu Sans';-inkscape-font-specification:DejaVuSans;writing-mode:lr-tb;fill:#000000;fill-opacity:1;fill-rule:nonzero;stroke:none;stroke-width:0.575372"
       id="text68"
       x="87.680161"
       y="-155.46117"><tspan
         x="87.680161 91.339523 93.169205 96.828575"
         y="-155.46117"
         sodipodi:role="line"
         id="tspan66"
         style="stroke-width:0.575372">0.50</tspan></text><g
       id="g70"
       transform="matrix(0.57537176,0,0,0.57537176,8.9248235,141.98457)"><g
         id="g72"
         clip-path="url(#clipPath76)"><path
           d="M 193.21519,38.016 V 304.128"
           style="fill:none;stroke:#b0b0b0;stroke-width:0.8;stroke-linecap:square;stroke-linejoin:round;stroke-miterlimit:10;stroke-dasharray:none;stroke-opacity:1"
           id="path78" /></g></g><path
       d="m 120.09539,163.85791 v -2.0138"
       style="fill:#000000;fill-opacity:1;fill-rule:nonzero;stroke:#000000;stroke-width:0.460297;stroke-linecap:butt;stroke-linejoin:round;stroke-miterlimit:10;stroke-dasharray:none;stroke-opacity:1"
       id="path82" /><text
       transform="scale(1,-1)"
       style="font-variant:normal;font-weight:normal;font-size:5.75372px;font-family:'DejaVu Sans';-inkscape-font-specification:DejaVuSans;writing-mode:lr-tb;fill:#000000;fill-opacity:1;fill-rule:nonzero;stroke:none;stroke-width:0.575372"
       id="text86"
       x="113.68989"
       y="-155.46117"><tspan
         x="113.68989 117.34926 119.17892 122.83829"
         y="-155.46117"
         sodipodi:role="line"
         id="tspan84"
         style="stroke-width:0.575372">0.75</tspan></text><g
       id="g88"
       transform="matrix(0.57537176,0,0,0.57537176,8.9248235,141.98457)"><g
         id="g90"
         clip-path="url(#clipPath94)"><path
           d="M 238.42025,38.016 V 304.128"
           style="fill:none;stroke:#b0b0b0;stroke-width:0.8;stroke-linecap:square;stroke-linejoin:round;stroke-miterlimit:10;stroke-dasharray:none;stroke-opacity:1"
           id="path96" /></g></g><path
       d="m 146.1051,163.85791 v -2.0138"
       style="fill:#000000;fill-opacity:1;fill-rule:nonzero;stroke:#000000;stroke-width:0.460297;stroke-linecap:butt;stroke-linejoin:round;stroke-miterlimit:10;stroke-dasharray:none;stroke-opacity:1"
       id="path100" /><text
       transform="scale(1,-1)"
       style="font-variant:normal;font-weight:normal;font-size:5.75372px;font-family:'DejaVu Sans';-inkscape-font-specification:DejaVuSans;writing-mode:lr-tb;fill:#000000;fill-opacity:1;fill-rule:nonzero;stroke:none;stroke-width:0.575372"
       id="text104"
       x="139.6996"
       y="-155.46117"><tspan
         x="139.6996 143.35896 145.18863 148.84801"
         y="-155.46117"
         sodipodi:role="line"
         id="tspan102"
         style="stroke-width:0.575372">1.00</tspan></text><g
       id="g106"
       transform="matrix(0.57537176,0,0,0.57537176,8.9248235,141.98457)"><g
         id="g108"
         clip-path="url(#clipPath112)"><path
           d="M 283.62532,38.016 V 304.128"
           style="fill:none;stroke:#b0b0b0;stroke-width:0.8;stroke-linecap:square;stroke-linejoin:round;stroke-miterlimit:10;stroke-dasharray:none;stroke-opacity:1"
           id="path114" /></g></g><path
       d="m 172.11482,163.85791 v -2.0138"
       style="fill:#000000;fill-opacity:1;fill-rule:nonzero;stroke:#000000;stroke-width:0.460297;stroke-linecap:butt;stroke-linejoin:round;stroke-miterlimit:10;stroke-dasharray:none;stroke-opacity:1"
       id="path118" /><text
       transform="scale(1,-1)"
       style="font-variant:normal;font-weight:normal;font-size:5.75372px;font-family:'DejaVu Sans';-inkscape-font-specification:DejaVuSans;writing-mode:lr-tb;fill:#000000;fill-opacity:1;fill-rule:nonzero;stroke:none;stroke-width:0.575372"
       id="text122"
       x="165.7093"
       y="-155.46117"><tspan
         x="165.7093 169.36868 171.19835 174.85771"
         y="-155.46117"
         sodipodi:role="line"
         id="tspan120"
         style="stroke-width:0.575372">1.25</tspan></text><g
       id="g124"
       transform="matrix(0.57537176,0,0,0.57537176,8.9248235,141.98457)"><g
         id="g126"
         clip-path="url(#clipPath130)"><path
           d="M 328.83038,38.016 V 304.128"
           style="fill:none;stroke:#b0b0b0;stroke-width:0.8;stroke-linecap:square;stroke-linejoin:round;stroke-miterlimit:10;stroke-dasharray:none;stroke-opacity:1"
           id="path132" /></g></g><path
       d="m 198.12454,163.85791 v -2.0138"
       style="fill:#000000;fill-opacity:1;fill-rule:nonzero;stroke:#000000;stroke-width:0.460297;stroke-linecap:butt;stroke-linejoin:round;stroke-miterlimit:10;stroke-dasharray:none;stroke-opacity:1"
       id="path136" /><text
       transform="scale(1,-1)"
       style="font-variant:normal;font-weight:normal;font-size:5.75372px;font-family:'DejaVu Sans';-inkscape-font-specification:DejaVuSans;writing-mode:lr-tb;fill:#000000;fill-opacity:1;fill-rule:nonzero;stroke:none;stroke-width:0.575372"
       id="text140"
       x="191.71902"
       y="-155.46117"><tspan
         x="191.71902 195.37839 197.20808 200.86745"
         y="-155.46117"
         sodipodi:role="line"
         id="tspan138"
         style="stroke-width:0.575372">1.50</tspan></text><g
       id="g142"
       transform="matrix(0.57537176,0,0,0.57537176,8.9248235,141.98457)"><g
         id="g144"
         clip-path="url(#clipPath148)"><path
           d="M 374.03544,38.016 V 304.128"
           style="fill:none;stroke:#b0b0b0;stroke-width:0.8;stroke-linecap:square;stroke-linejoin:round;stroke-miterlimit:10;stroke-dasharray:none;stroke-opacity:1"
           id="path150" /></g></g><path
       d="m 224.13425,163.85791 v -2.0138"
       style="fill:#000000;fill-opacity:1;fill-rule:nonzero;stroke:#000000;stroke-width:0.460297;stroke-linecap:butt;stroke-linejoin:round;stroke-miterlimit:10;stroke-dasharray:none;stroke-opacity:1"
       id="path154" /><text
       transform="scale(1,-1)"
       style="font-variant:normal;font-weight:normal;font-size:5.75372px;font-family:'DejaVu Sans';-inkscape-font-specification:DejaVuSans;writing-mode:lr-tb;fill:#000000;fill-opacity:1;fill-rule:nonzero;stroke:none;stroke-width:0.575372"
       id="text158"
       x="217.72874"
       y="-155.46117"><tspan
         x="217.72874 221.38812 223.21779 226.87717"
         y="-155.46117"
         sodipodi:role="line"
         id="tspan156"
         style="stroke-width:0.575372">1.75</tspan></text><text
       transform="scale(1,-1)"
       style="font-variant:normal;font-weight:normal;font-size:5.75372px;font-family:'DejaVu Sans';-inkscape-font-specification:DejaVuSans;writing-mode:lr-tb;fill:#000000;fill-opacity:1;fill-rule:nonzero;stroke:none;stroke-width:0.575372"
       id="text162"
       x="109.98115"
       y="-147.59476"><tspan
         x="109.98115 114.44028 117.97881 121.62666 125.14794 130.75206 132.35159 135.51613 137.34583 140.99942 142.59895 145.59666 147.85211 151.37915 155.02699 158.19154 161.73007 163.55975 165.49876 167.32845 172.2939 175.94751"
         y="-147.59476"
         sodipodi:role="line"
         id="tspan160"
         style="stroke-width:0.575372">Genomic distance / Mbp</tspan></text><g
       id="g164"
       transform="matrix(0.57537176,0,0,0.57537176,8.9248235,141.98457)"><g
         id="g166"
         clip-path="url(#clipPath170)"><path
           d="M 57.6,38.016 H 414.72"
           style="fill:none;stroke:#b0b0b0;stroke-width:0.8;stroke-linecap:square;stroke-linejoin:round;stroke-miterlimit:10;stroke-dasharray:none;stroke-opacity:1"
           id="path172" /></g></g><path
       d="M 42.066236,163.85791 H 40.052435"
       style="fill:#000000;fill-opacity:1;fill-rule:nonzero;stroke:#000000;stroke-width:0.460297;stroke-linecap:butt;stroke-linejoin:round;stroke-miterlimit:10;stroke-dasharray:none;stroke-opacity:1"
       id="path176" /><text
       transform="scale(1,-1)"
       style="font-variant:normal;font-weight:normal;font-size:5.75372px;font-family:'DejaVu Sans';-inkscape-font-specification:DejaVuSans;writing-mode:lr-tb;fill:#000000;fill-opacity:1;fill-rule:nonzero;stroke:none;stroke-width:0.575372"
       id="text180"
       x="28.886625"
       y="-161.67339"><tspan
         x="28.886625 32.54599 34.375675"
         y="-161.67339"
         sodipodi:role="line"
         id="tspan178"
         style="stroke-width:0.575372">0.0</tspan></text><g
       id="g182"
       transform="matrix(0.57537176,0,0,0.57537176,8.9248235,141.98457)"><g
         id="g184"
         clip-path="url(#clipPath188)"><path
           d="M 57.6,91.2384 H 414.72"
           style="fill:none;stroke:#b0b0b0;stroke-width:0.8;stroke-linecap:square;stroke-linejoin:round;stroke-miterlimit:10;stroke-dasharray:none;stroke-opacity:1"
           id="path190" /></g></g><path
       d="M 42.066236,194.48058 H 40.052435"
       style="fill:#000000;fill-opacity:1;fill-rule:nonzero;stroke:#000000;stroke-width:0.460297;stroke-linecap:butt;stroke-linejoin:round;stroke-miterlimit:10;stroke-dasharray:none;stroke-opacity:1"
       id="path194" /><text
       transform="scale(1,-1)"
       style="font-variant:normal;font-weight:normal;font-size:5.75372px;font-family:'DejaVu Sans';-inkscape-font-specification:DejaVuSans;writing-mode:lr-tb;fill:#000000;fill-opacity:1;fill-rule:nonzero;stroke:none;stroke-width:0.575372"
       id="text198"
       x="28.886625"
       y="-192.29605"><tspan
         x="28.886625 32.54599 34.375675"
         y="-192.29605"
         sodipodi:role="line"
         id="tspan196"
         style="stroke-width:0.575372">0.2</tspan></text><g
       id="g200"
       transform="matrix(0.57537176,0,0,0.57537176,8.9248235,141.98457)"><g
         id="g202"
         clip-path="url(#clipPath206)"><path
           d="M 57.6,144.4608 H 414.72"
           style="fill:none;stroke:#b0b0b0;stroke-width:0.8;stroke-linecap:square;stroke-linejoin:round;stroke-miterlimit:10;stroke-dasharray:none;stroke-opacity:1"
           id="path208" /></g></g><path
       d="M 42.066236,225.10324 H 40.052435"
       style="fill:#000000;fill-opacity:1;fill-rule:nonzero;stroke:#000000;stroke-width:0.460297;stroke-linecap:butt;stroke-linejoin:round;stroke-miterlimit:10;stroke-dasharray:none;stroke-opacity:1"
       id="path212" /><text
       transform="scale(1,-1)"
       style="font-variant:normal;font-weight:normal;font-size:5.75372px;font-family:'DejaVu Sans';-inkscape-font-specification:DejaVuSans;writing-mode:lr-tb;fill:#000000;fill-opacity:1;fill-rule:nonzero;stroke:none;stroke-width:0.575372"
       id="text216"
       x="28.886625"
       y="-222.91872"><tspan
         x="28.886625 32.54599 34.375675"
         y="-222.91872"
         sodipodi:role="line"
         id="tspan214"
         style="stroke-width:0.575372">0.4</tspan></text><g
       id="g218"
       transform="matrix(0.57537176,0,0,0.57537176,8.9248235,141.98457)"><g
         id="g220"
         clip-path="url(#clipPath224)"><path
           d="M 57.6,197.6832 H 414.72"
           style="fill:none;stroke:#b0b0b0;stroke-width:0.8;stroke-linecap:square;stroke-linejoin:round;stroke-miterlimit:10;stroke-dasharray:none;stroke-opacity:1"
           id="path226" /></g></g><path
       d="M 42.066236,255.7259 H 40.052435"
       style="fill:#000000;fill-opacity:1;fill-rule:nonzero;stroke:#000000;stroke-width:0.460297;stroke-linecap:butt;stroke-linejoin:round;stroke-miterlimit:10;stroke-dasharray:none;stroke-opacity:1"
       id="path230" /><text
       transform="scale(1,-1)"
       style="font-variant:normal;font-weight:normal;font-size:5.75372px;font-family:'DejaVu Sans';-inkscape-font-specification:DejaVuSans;writing-mode:lr-tb;fill:#000000;fill-opacity:1;fill-rule:nonzero;stroke:none;stroke-width:0.575372"
       id="text234"
       x="28.886625"
       y="-253.5414"><tspan
         x="28.886625 32.54599 34.375675"
         y="-253.5414"
         sodipodi:role="line"
         id="tspan232"
         style="stroke-width:0.575372">0.6</tspan></text><g
       id="g236"
       transform="matrix(0.57537176,0,0,0.57537176,8.9248235,141.98457)"><g
         id="g238"
         clip-path="url(#clipPath242)"><path
           d="M 57.6,250.9056 H 414.72"
           style="fill:none;stroke:#b0b0b0;stroke-width:0.8;stroke-linecap:square;stroke-linejoin:round;stroke-miterlimit:10;stroke-dasharray:none;stroke-opacity:1"
           id="path244" /></g></g><path
       d="M 42.066236,286.34857 H 40.052435"
       style="fill:#000000;fill-opacity:1;fill-rule:nonzero;stroke:#000000;stroke-width:0.460297;stroke-linecap:butt;stroke-linejoin:round;stroke-miterlimit:10;stroke-dasharray:none;stroke-opacity:1"
       id="path248" /><text
       transform="scale(1,-1)"
       style="font-variant:normal;font-weight:normal;font-size:5.75372px;font-family:'DejaVu Sans';-inkscape-font-specification:DejaVuSans;writing-mode:lr-tb;fill:#000000;fill-opacity:1;fill-rule:nonzero;stroke:none;stroke-width:0.575372"
       id="text252"
       x="28.886625"
       y="-284.16403"><tspan
         x="28.886625 32.54599 34.375675"
         y="-284.16403"
         sodipodi:role="line"
         id="tspan250"
         style="stroke-width:0.575372">0.8</tspan></text><g
       id="g254"
       transform="matrix(0.57537176,0,0,0.57537176,8.9248235,141.98457)"><g
         id="g256"
         clip-path="url(#clipPath260)"><path
           d="M 57.6,304.128 H 414.72"
           style="fill:none;stroke:#b0b0b0;stroke-width:0.8;stroke-linecap:square;stroke-linejoin:round;stroke-miterlimit:10;stroke-dasharray:none;stroke-opacity:1"
           id="path262" /></g></g><path
       d="M 42.066236,316.97124 H 40.052435"
       style="fill:#000000;fill-opacity:1;fill-rule:nonzero;stroke:#000000;stroke-width:0.460297;stroke-linecap:butt;stroke-linejoin:round;stroke-miterlimit:10;stroke-dasharray:none;stroke-opacity:1"
       id="path266" /><text
       transform="scale(1,-1)"
       style="font-variant:normal;font-weight:normal;font-size:5.75372px;font-family:'DejaVu Sans';-inkscape-font-specification:DejaVuSans;writing-mode:lr-tb;fill:#000000;fill-opacity:1;fill-rule:nonzero;stroke:none;stroke-width:0.575372"
       id="text270"
       x="28.886625"
       y="-314.78671"><tspan
         x="28.886625 32.54599 34.375675"
         y="-314.78671"
         sodipodi:role="line"
         id="tspan268"
         style="stroke-width:0.575372">1.0</tspan></text><text
       transform="matrix(0,1,1,0,0,0)"
       style="font-variant:normal;font-weight:normal;font-size:5.75372px;font-family:'DejaVu Sans';-inkscape-font-specification:DejaVuSans;writing-mode:lr-tb;fill:#000000;fill-opacity:1;fill-rule:nonzero;stroke:none;stroke-width:0.575372"
       id="text274"
       x="212.61702"
       y="25.389446"><tspan
         x="212.61702 216.08652 219.62505 223.15207 225.51686 228.51453 232.03581 235.68367 237.51335 240.67789 244.19917 246.56395 248.92874 252.46727 254.0668 257.59384 259.84927 261.44879 264.97009"
         y="25.389446"
         sodipodi:role="line"
         id="tspan272"
         style="stroke-width:0.575372">Pearson correlation</tspan></text><g
       id="g278"
       clip-path="url(#clipPath282)"
       transform="matrix(0.57537176,0,0,0.57537176,8.9248235,141.98457)"><path
         d="m 57.6,257.14321 4.520506,-1.91823 4.520507,-1.84639 4.520506,0.24642 4.520506,-1.25025 4.520507,-6.69142 4.520506,-2.36687 4.520506,-6.00228 4.520507,-2.10151 4.520506,3.14016 4.520503,-3.91222 4.52051,-4.64396 4.52051,-2.44014 4.5205,-6.00077 4.52051,-3.81899 4.52051,-1.23509 4.5205,-5.74961 4.52051,-2.18246 4.5205,-4.46473 4.52051,-4.31697 4.52051,-3.7284 4.5205,-2.43736 4.52051,-0.67159 4.52051,-4.7842 4.5205,-0.281 4.52051,-1.15899 4.5205,-2.38917 4.52051,-5.01278 4.52051,-8.38706 4.5205,0.83838 4.52051,-2.73012 4.52051,-2.11254 4.5205,0.7752 4.52051,-9.39366 4.5205,-0.17092 4.52051,-1.09519 4.52051,6.01088 4.5205,-2.31655 4.52051,-0.0649 4.52051,-3.89165 4.5205,3.0976 4.52051,-0.87364 4.52051,-6.31967 4.5205,1.80455 4.52051,-3.73314 4.5205,1.91129 4.52051,1.20014 4.52051,1.25846 4.5205,-14.59148 4.52051,2.1216 4.52051,-4.03187 4.5205,1.87812 4.52051,-0.69149 4.5205,-1.75604 4.52051,-4.18287 4.52051,-2.86019 4.5205,-2.15159 4.52051,-3.46643 4.52051,-1.24981 4.5205,-4.23875 4.52051,4.3085 4.52051,-5.03095 4.5205,0.65362 4.52051,-2.19747 4.5205,-0.40604 4.52051,-3.48739 4.52051,2.82829 4.5205,-1.55893 4.52051,-8.07838 4.52051,6.43007 4.5205,-4.86624 4.52051,-2.60768 4.52051,1.27363 4.5205,-4.62073 4.52051,2.45228 4.5205,0.39323 4.52051,-0.0235 4.52051,0.22942 4.5205,-1.75815 4.52051,-2.30655"
         style="fill:none;stroke:#1f77b4;stroke-width:1.5;stroke-linecap:square;stroke-linejoin:round;stroke-miterlimit:10;stroke-dasharray:none;stroke-opacity:1"
         id="path284" /></g><g
       id="g288"
       clip-path="url(#clipPath292)"
       transform="matrix(0.57537176,0,0,0.57537176,8.9248235,141.98457)"><path
         d="m 57.6,266.78145 4.520506,2.4843 4.520507,-8.34081 4.520506,-8.48631 4.520506,-5.73836 4.520507,-6.97139 4.520506,-3.32681 4.520506,-3.9142 4.520507,-4.74258 4.520506,0.0647 4.520503,-4.65079 4.52051,-2.59945 4.52051,-2.33156 4.5205,-7.37712 4.52051,-2.5371 4.52051,-1.62013 4.5205,-2.47514 4.52051,1.60444 4.5205,-2.5055 4.52051,-3.24996 4.52051,-1.82988 4.5205,0.0569 4.52051,-3.49936 4.52051,-3.25519 4.5205,3.23908 4.52051,-2.19695 4.5205,-2.64961 4.52051,-0.72134 4.52051,-3.832 4.5205,-0.58759 4.52051,-3.19799 4.52051,-0.61097 4.5205,-0.48359 4.52051,-2.84816 4.5205,2.36024 4.52051,0.0285 4.52051,1.22046 4.5205,-1.30432 4.52051,-1.1295 4.52051,-3.26021 4.5205,0.90733 4.52051,1.11465 4.52051,-4.02126 4.5205,1.92665 4.52051,1.70354 4.5205,-1.72089 4.52051,0.22704 4.52051,0.13876 4.5205,-3.59701 4.52051,1.02719 4.52051,4.24224 4.5205,3.19094 4.52051,-0.64277 4.5205,0.12576 4.52051,-1.74594 4.52051,-0.0511 4.5205,-2.98449 4.52051,-3.15285 4.52051,3.71737 4.5205,-2.26606 4.52051,1.58062 4.52051,-1.59339 4.5205,-0.44368 4.52051,3.56623 4.5205,3.77175 4.52051,-1.73563 4.52051,1.35475 4.5205,2.25541 4.52051,-4.29482 4.52051,2.58138 4.5205,-4.66777 4.52051,-2.28875 4.52051,4.82699 4.5205,-0.55869 4.52051,-2.95296 4.5205,-1.01878 4.52051,0.26969 4.52051,-5.91046 4.5205,-3.27512 4.52051,-0.0225"
         style="fill:none;stroke:#ff7f0e;stroke-width:1.5;stroke-linecap:square;stroke-linejoin:round;stroke-miterlimit:10;stroke-dasharray:none;stroke-opacity:1"
         id="path294" /></g><path
       d="M 42.066236,163.85791 V 316.97124"
       style="fill:none;stroke:#000000;stroke-width:0.460297;stroke-linecap:square;stroke-linejoin:miter;stroke-miterlimit:10;stroke-dasharray:none;stroke-opacity:1"
       id="path308" /><path
       d="M 247.543,163.85791 V 316.97124"
       style="fill:none;stroke:#000000;stroke-width:0.460297;stroke-linecap:square;stroke-linejoin:miter;stroke-miterlimit:10;stroke-dasharray:none;stroke-opacity:1"
       id="path310" /><path
       d="M 42.066236,163.85791 H 247.543"
       style="fill:none;stroke:#000000;stroke-width:0.460297;stroke-linecap:square;stroke-linejoin:miter;stroke-miterlimit:10;stroke-dasharray:none;stroke-opacity:1"
       id="path312" /><path
       d="M 42.066236,316.97124 H 247.543"
       style="fill:none;stroke:#000000;stroke-width:0.460297;stroke-linecap:square;stroke-linejoin:miter;stroke-miterlimit:10;stroke-dasharray:none;stroke-opacity:1"
       id="path314" /><text
       transform="scale(1,-1)"
       style="font-variant:normal;font-weight:normal;font-size:6.90446px;font-family:'DejaVu Sans';-inkscape-font-specification:DejaVuSans;writing-mode:lr-tb;fill:#000000;fill-opacity:1;fill-rule:nonzero;stroke:none;stroke-width:0.575372"
       id="text318"
       x="73.750694"
       y="-328.16232"><tspan
         x="73.750694 77.914093 82.160332 86.392769 89.230499 92.827721 97.053253 101.43069 103.6263 107.42375 111.64928 114.48702 117.32475 121.571 123.49044 127.72287 130.42941 132.34886 136.57439 140.95181 143.14745 147.23488 150.83211 153.02773 155.22334 159.60768 163.85393 168.23134 172.45688 179.18182 181.10126 184.89871 187.09435 191.47867 193.39812 196.99532 199.70187 203.9343 208.31174 212.10919"
         y="-328.16232"
         sodipodi:role="line"
         id="tspan316"
         style="stroke-width:0.575372">Pearson correlation vs. genomic distance</tspan></text><text
       transform="scale(1,-1)"
       style="font-variant:normal;font-weight:normal;font-size:6.90446px;font-family:'DejaVu Sans';-inkscape-font-specification:DejaVuSans;writing-mode:lr-tb;fill:#000000;fill-opacity:1;fill-rule:nonzero;stroke:none;stroke-width:0.575372"
       id="text322"
       x="45.797737"
       y="-320.42355"><tspan
         x="45.797737 51.148693 57.107246 61.498482 65.889717 70.280952 74.672195 79.063431 81.259048 83.454666 87.845909 90.041527 94.432755 96.628387 101.01962 103.21523 107.60648 109.80209 114.19333 116.38895 120.78018 125.17142 127.36704 131.75829 136.14951 138.34514 142.73637 147.12759 149.32323 153.71446 158.10571 160.30133 164.69255 169.0838 171.2794 175.67067 180.06189 182.25752 186.64874 191.03999 193.2356 197.62685 202.01808 204.2137 208.43924 212.81665 215.01227 219.5416 223.93285 228.32408 232.71532 234.91092 237.10655 241.49779"
         y="-320.42355"
         sodipodi:role="line"
         id="tspan320"
         style="stroke-width:0.575372">GM12878, 1,2,4,7,9,11,13,14,16,17,18,20,22 on K562, 10</tspan></text><path
       d="M 53.394586,187.2758 H 64.90202"
       style="fill:none;stroke:#1f77b4;stroke-width:0.863058;stroke-linecap:square;stroke-linejoin:round;stroke-miterlimit:10;stroke-dasharray:none;stroke-opacity:1"
       id="path324" /><text
       transform="scale(1,-1)"
       style="font-variant:normal;font-weight:normal;font-size:5.75372px;font-family:'DejaVu Sans';-inkscape-font-specification:DejaVuSans;writing-mode:lr-tb;fill:#000000;fill-opacity:1;fill-rule:nonzero;stroke:none;stroke-width:0.575372"
       id="text328"
       x="69.504997"
       y="-185.26208"><tspan
         sodipodi:role="line"
         id="tspan326"
         x="69.504997"
         y="-185.26208"
         style="stroke-width:0.575372">rand. forest \cite{Krauth2020} / AUC: 0.474</tspan></text><path
       d="M 53.394586,178.83401 H 64.90202"
       style="fill:none;stroke:#ff7f0e;stroke-width:0.863058;stroke-linecap:square;stroke-linejoin:round;stroke-miterlimit:10;stroke-dasharray:none;stroke-opacity:1"
       id="path330" /><text
       transform="scale(1,-1)"
       style="font-variant:normal;font-weight:normal;font-size:5.75372px;font-family:'DejaVu Sans';-inkscape-font-specification:DejaVuSans;writing-mode:lr-tb;fill:#000000;fill-opacity:1;fill-rule:nonzero;stroke:none;stroke-width:0.575372"
       id="text334"
       x="69.504997"
       y="-176.8203"><tspan
         x="69.504997 73.935349 78.239143 82.542923 84.372604 86.202278 89.861656 93.521011 97.180389 100.71892 104.37253 106.20221 108.14122 109.97089 113.90643 118.11816 122.13425 124.07326 125.90293 129.5623 131.39198 135.05133 138.71072"
         y="-176.8203"
         sodipodi:role="line"
         id="tspan332"
         style="stroke-width:0.575372">DNN, 500ep / AUC: 0.575</tspan></text><path
       d="M 53.394586,170.39223 H 64.90202"
       style="fill:none;stroke:#d40000;stroke-width:0.863058;stroke-linecap:square;stroke-linejoin:round;stroke-miterlimit:10;stroke-dasharray:none;stroke-opacity:1"
       id="path336" /><text
       transform="scale(1,-1)"
       style="font-variant:normal;font-weight:normal;font-size:5.75372px;font-family:'DejaVu Sans';-inkscape-font-specification:DejaVuSans;writing-mode:lr-tb;fill:#000000;fill-opacity:1;fill-rule:nonzero;stroke:none;stroke-width:0.575372"
       id="text340"
       x="69.504997"
       y="-168.37851"><tspan
         x="69.504997 71.76046 74.125244 77.652267 81.300125 84.297806 86.323105 89.861656 92.226425 94.056099 98.515228 103.4807 107.14008 110.79942 114.45879 118.11816 121.77753 123.6072 125.54621 127.37589 131.31142 135.52315 139.53925 141.47824 143.30792 146.9673 148.79698 152.45634 156.11571"
         y="-168.37851"
         sodipodi:role="line"
         id="tspan338"
         style="stroke-width:0.575372">transfer GM12878 / AUC: 0.720</tspan></text></g><g
     inkscape:groupmode="layer"
     id="layer1"
     inkscape:label="text"
     transform="translate(-28.023958,-17.206424)" /></svg>
