<?xml version="1.0" encoding="UTF-8" standalone="no"?>
<svg
   xmlns:dc="http://purl.org/dc/elements/1.1/"
   xmlns:cc="http://creativecommons.org/ns#"
   xmlns:rdf="http://www.w3.org/1999/02/22-rdf-syntax-ns#"
   xmlns:svg="http://www.w3.org/2000/svg"
   xmlns="http://www.w3.org/2000/svg"
   xmlns:sodipodi="http://sodipodi.sourceforge.net/DTD/sodipodi-0.dtd"
   xmlns:inkscape="http://www.inkscape.org/namespaces/inkscape"
   version="1.1"
   id="svg2"
   xml:space="preserve"
   width="80mm"
   height="65.300003mm"
   viewBox="0 0 302.36219 246.80316"
   sodipodi:docname="pearson_chr19.svg"
   inkscape:version="1.0.2 (1.0.2+r75+1)"><metadata
     id="metadata8"><rdf:RDF><cc:Work
         rdf:about=""><dc:format>image/svg+xml</dc:format><dc:type
           rdf:resource="http://purl.org/dc/dcmitype/StillImage" /><dc:title></dc:title></cc:Work></rdf:RDF></metadata><defs
     id="defs6"><clipPath
       clipPathUnits="userSpaceOnUse"
       id="clipPath22"><path
         d="M 57.6,38.016 H 414.72 V 304.128 H 57.6 Z"
         id="path20" /></clipPath><clipPath
       clipPathUnits="userSpaceOnUse"
       id="clipPath40"><path
         d="M 57.6,38.016 H 414.72 V 304.128 H 57.6 Z"
         id="path38" /></clipPath><clipPath
       clipPathUnits="userSpaceOnUse"
       id="clipPath58"><path
         d="M 57.6,38.016 H 414.72 V 304.128 H 57.6 Z"
         id="path56" /></clipPath><clipPath
       clipPathUnits="userSpaceOnUse"
       id="clipPath76"><path
         d="M 57.6,38.016 H 414.72 V 304.128 H 57.6 Z"
         id="path74" /></clipPath><clipPath
       clipPathUnits="userSpaceOnUse"
       id="clipPath94"><path
         d="M 57.6,38.016 H 414.72 V 304.128 H 57.6 Z"
         id="path92" /></clipPath><clipPath
       clipPathUnits="userSpaceOnUse"
       id="clipPath112"><path
         d="M 57.6,38.016 H 414.72 V 304.128 H 57.6 Z"
         id="path110" /></clipPath><clipPath
       clipPathUnits="userSpaceOnUse"
       id="clipPath130"><path
         d="M 57.6,38.016 H 414.72 V 304.128 H 57.6 Z"
         id="path128" /></clipPath><clipPath
       clipPathUnits="userSpaceOnUse"
       id="clipPath148"><path
         d="M 57.6,38.016 H 414.72 V 304.128 H 57.6 Z"
         id="path146" /></clipPath><clipPath
       clipPathUnits="userSpaceOnUse"
       id="clipPath170"><path
         d="M 57.6,38.016 H 414.72 V 304.128 H 57.6 Z"
         id="path168" /></clipPath><clipPath
       clipPathUnits="userSpaceOnUse"
       id="clipPath188"><path
         d="M 57.6,38.016 H 414.72 V 304.128 H 57.6 Z"
         id="path186" /></clipPath><clipPath
       clipPathUnits="userSpaceOnUse"
       id="clipPath206"><path
         d="M 57.6,38.016 H 414.72 V 304.128 H 57.6 Z"
         id="path204" /></clipPath><clipPath
       clipPathUnits="userSpaceOnUse"
       id="clipPath224"><path
         d="M 57.6,38.016 H 414.72 V 304.128 H 57.6 Z"
         id="path222" /></clipPath><clipPath
       clipPathUnits="userSpaceOnUse"
       id="clipPath242"><path
         d="M 57.6,38.016 H 414.72 V 304.128 H 57.6 Z"
         id="path240" /></clipPath><clipPath
       clipPathUnits="userSpaceOnUse"
       id="clipPath260"><path
         d="M 57.6,38.016 H 414.72 V 304.128 H 57.6 Z"
         id="path258" /></clipPath><clipPath
       clipPathUnits="userSpaceOnUse"
       id="clipPath282"><path
         d="M 57.6,38.016 H 414.72 V 304.128 H 57.6 Z"
         id="path280" /></clipPath><clipPath
       clipPathUnits="userSpaceOnUse"
       id="clipPath292"><path
         d="M 57.6,38.016 H 414.72 V 304.128 H 57.6 Z"
         id="path290" /></clipPath><clipPath
       clipPathUnits="userSpaceOnUse"
       id="clipPath302"><path
         d="M 57.6,38.016 H 414.72 V 304.128 H 57.6 Z"
         id="path300" /></clipPath></defs><sodipodi:namedview
     pagecolor="#ffffff"
     bordercolor="#666666"
     borderopacity="1"
     objecttolerance="10"
     gridtolerance="10"
     guidetolerance="10"
     inkscape:pageopacity="0"
     inkscape:pageshadow="2"
     inkscape:window-width="1920"
     inkscape:window-height="1020"
     id="namedview4"
     showgrid="false"
     fit-margin-top="0"
     fit-margin-left="0"
     fit-margin-right="0"
     fit-margin-bottom="0"
     units="mm"
     inkscape:zoom="1.8598091"
     inkscape:cx="90.204301"
     inkscape:cy="113.93226"
     inkscape:window-x="0"
     inkscape:window-y="0"
     inkscape:window-maximized="1"
     inkscape:current-layer="layer1" /><g
     id="g10"
     inkscape:groupmode="layer"
     inkscape:label="pearson_chr19"
     transform="matrix(1.3333333,0,0,-1.3333333,-28.023958,443.59358)"><g
       id="g298"
       clip-path="url(#clipPath302)"
       transform="matrix(0.57529647,0,0,0.57529647,8.9264057,141.97722)"
       style="stroke:#d40000"><path
         d="m 57.6,291.33455 4.520506,-7.97588 4.520507,-4.8207 4.520506,-2.38273 4.520506,-2.00584 4.520507,-0.8177 4.520506,-1.00394 4.520506,0.60452 4.520507,1.48061 4.520506,-4.08417 4.520503,1.43761 4.52051,-2.29967 4.52051,-2.87616 4.5205,-2.94062 4.52051,-2.24327 4.52051,-0.91396 4.5205,-1.91909 4.52051,-3.5274 4.5205,-1.53337 4.52051,-0.79363 4.52051,0.89746 4.5205,-3.40467 4.52051,0.89957 4.52051,-2.04818 4.5205,-1.32803 4.52051,-1.50822 4.5205,-2.06081 4.52051,0.35137 4.52051,1.70884 4.5205,-2.52509 4.52051,2.31069 4.52051,-3.76933 4.5205,-1.28512 4.52051,1.10747 4.5205,-1.31698 4.52051,1.28513 4.52051,-1.23017 4.5205,-3.43215 4.52051,-0.57387 4.52051,-0.66158 4.5205,-4.26573 4.52051,3.76297 4.52051,-4.57296 4.5205,1.18952 4.52051,-1.79374 4.5205,1.75614 4.52051,-8.31694 4.52051,6.77865 4.5205,-3.12846 4.52051,2.13633 4.52051,-0.0157 4.5205,0.77044 4.52051,1.60323 4.5205,-2.58385 4.52051,-3.66528 4.52051,1.26863 4.5205,2.36397 4.52051,1.22917 4.52051,-0.2502 4.5205,4.81668 4.52051,3.0338 4.52051,2.88561 4.5205,4.63507 4.52051,0.39739 4.5205,-9.20888 4.52051,-4.23291 4.52051,0.58426 4.5205,-9.93724 4.52051,1.45325 4.52051,-5.65994 4.5205,-2.99307 4.52051,-0.0567 4.52051,7.07205 4.5205,-3.81844 4.52051,5.61888 4.5205,-1.4272 4.52051,1.17987 4.52051,-12.24688 4.5205,-3.91389 4.52051,-4.54304"
         style="fill:none;stroke:#d40000;stroke-width:1.5;stroke-linecap:square;stroke-linejoin:round;stroke-miterlimit:10;stroke-dasharray:none;stroke-opacity:1"
         id="path304" /></g><g
       id="g16"
       transform="matrix(0.57529647,0,0,0.57529647,8.9264057,141.97722)"><g
         id="g18"
         clip-path="url(#clipPath22)"><path
           d="M 57.6,38.016 V 304.128"
           style="fill:none;stroke:#b0b0b0;stroke-width:0.8;stroke-linecap:square;stroke-linejoin:round;stroke-miterlimit:10;stroke-dasharray:none;stroke-opacity:1"
           id="path24" /></g></g><path
       d="m 42.063483,163.84769 v -2.01354"
       style="fill:#000000;fill-opacity:1;fill-rule:nonzero;stroke:#000000;stroke-width:0.460237;stroke-linecap:butt;stroke-linejoin:round;stroke-miterlimit:10;stroke-dasharray:none;stroke-opacity:1"
       id="path28" /><g
       id="g34"
       transform="matrix(0.57529647,0,0,0.57529647,8.9264057,141.97722)"><g
         id="g36"
         clip-path="url(#clipPath40)"><path
           d="M 102.80506,38.016 V 304.128"
           style="fill:none;stroke:#b0b0b0;stroke-width:0.8;stroke-linecap:square;stroke-linejoin:round;stroke-miterlimit:10;stroke-dasharray:none;stroke-opacity:1"
           id="path42" /></g></g><path
       d="m 68.069793,163.84769 v -2.01354"
       style="fill:#000000;fill-opacity:1;fill-rule:nonzero;stroke:#000000;stroke-width:0.460237;stroke-linecap:butt;stroke-linejoin:round;stroke-miterlimit:10;stroke-dasharray:none;stroke-opacity:1"
       id="path46" /><g
       id="g52"
       transform="matrix(0.57529647,0,0,0.57529647,8.9264057,141.97722)"><g
         id="g54"
         clip-path="url(#clipPath58)"><path
           d="M 148.01013,38.016 V 304.128"
           style="fill:none;stroke:#b0b0b0;stroke-width:0.8;stroke-linecap:square;stroke-linejoin:round;stroke-miterlimit:10;stroke-dasharray:none;stroke-opacity:1"
           id="path60" /></g></g><path
       d="m 94.076111,163.84769 v -2.01354"
       style="fill:#000000;fill-opacity:1;fill-rule:nonzero;stroke:#000000;stroke-width:0.460237;stroke-linecap:butt;stroke-linejoin:round;stroke-miterlimit:10;stroke-dasharray:none;stroke-opacity:1"
       id="path64" /><g
       id="g70"
       transform="matrix(0.57529647,0,0,0.57529647,8.9264057,141.97722)"><g
         id="g72"
         clip-path="url(#clipPath76)"><path
           d="M 193.21519,38.016 V 304.128"
           style="fill:none;stroke:#b0b0b0;stroke-width:0.8;stroke-linecap:square;stroke-linejoin:round;stroke-miterlimit:10;stroke-dasharray:none;stroke-opacity:1"
           id="path78" /></g></g><path
       d="m 120.08242,163.84769 v -2.01354"
       style="fill:#000000;fill-opacity:1;fill-rule:nonzero;stroke:#000000;stroke-width:0.460237;stroke-linecap:butt;stroke-linejoin:round;stroke-miterlimit:10;stroke-dasharray:none;stroke-opacity:1"
       id="path82" /><g
       id="g88"
       transform="matrix(0.57529647,0,0,0.57529647,8.9264057,141.97722)"><g
         id="g90"
         clip-path="url(#clipPath94)"><path
           d="M 238.42025,38.016 V 304.128"
           style="fill:none;stroke:#b0b0b0;stroke-width:0.8;stroke-linecap:square;stroke-linejoin:round;stroke-miterlimit:10;stroke-dasharray:none;stroke-opacity:1"
           id="path96" /></g></g><path
       d="m 146.08873,163.84769 v -2.01354"
       style="fill:#000000;fill-opacity:1;fill-rule:nonzero;stroke:#000000;stroke-width:0.460237;stroke-linecap:butt;stroke-linejoin:round;stroke-miterlimit:10;stroke-dasharray:none;stroke-opacity:1"
       id="path100" /><g
       id="g106"
       transform="matrix(0.57529647,0,0,0.57529647,8.9264057,141.97722)"><g
         id="g108"
         clip-path="url(#clipPath112)"><path
           d="M 283.62532,38.016 V 304.128"
           style="fill:none;stroke:#b0b0b0;stroke-width:0.8;stroke-linecap:square;stroke-linejoin:round;stroke-miterlimit:10;stroke-dasharray:none;stroke-opacity:1"
           id="path114" /></g></g><path
       d="m 172.09505,163.84769 v -2.01354"
       style="fill:#000000;fill-opacity:1;fill-rule:nonzero;stroke:#000000;stroke-width:0.460237;stroke-linecap:butt;stroke-linejoin:round;stroke-miterlimit:10;stroke-dasharray:none;stroke-opacity:1"
       id="path118" /><g
       id="g124"
       transform="matrix(0.57529647,0,0,0.57529647,8.9264057,141.97722)"><g
         id="g126"
         clip-path="url(#clipPath130)"><path
           d="M 328.83038,38.016 V 304.128"
           style="fill:none;stroke:#b0b0b0;stroke-width:0.8;stroke-linecap:square;stroke-linejoin:round;stroke-miterlimit:10;stroke-dasharray:none;stroke-opacity:1"
           id="path132" /></g></g><path
       d="m 198.10136,163.84769 v -2.01354"
       style="fill:#000000;fill-opacity:1;fill-rule:nonzero;stroke:#000000;stroke-width:0.460237;stroke-linecap:butt;stroke-linejoin:round;stroke-miterlimit:10;stroke-dasharray:none;stroke-opacity:1"
       id="path136" /><g
       id="g142"
       transform="matrix(0.57529647,0,0,0.57529647,8.9264057,141.97722)"><g
         id="g144"
         clip-path="url(#clipPath148)"><path
           d="M 374.03544,38.016 V 304.128"
           style="fill:none;stroke:#b0b0b0;stroke-width:0.8;stroke-linecap:square;stroke-linejoin:round;stroke-miterlimit:10;stroke-dasharray:none;stroke-opacity:1"
           id="path150" /></g></g><path
       d="m 224.10767,163.84769 v -2.01354"
       style="fill:#000000;fill-opacity:1;fill-rule:nonzero;stroke:#000000;stroke-width:0.460237;stroke-linecap:butt;stroke-linejoin:round;stroke-miterlimit:10;stroke-dasharray:none;stroke-opacity:1"
       id="path154" /><g
       id="g164"
       transform="matrix(0.57529647,0,0,0.57529647,8.9264057,141.97722)"><g
         id="g166"
         clip-path="url(#clipPath170)"><path
           d="M 57.6,38.016 H 414.72"
           style="fill:none;stroke:#b0b0b0;stroke-width:0.8;stroke-linecap:square;stroke-linejoin:round;stroke-miterlimit:10;stroke-dasharray:none;stroke-opacity:1"
           id="path172" /></g></g><path
       d="M 42.063483,163.84769 H 40.049944"
       style="fill:#000000;fill-opacity:1;fill-rule:nonzero;stroke:#000000;stroke-width:0.460237;stroke-linecap:butt;stroke-linejoin:round;stroke-miterlimit:10;stroke-dasharray:none;stroke-opacity:1"
       id="path176" /><g
       id="g182"
       transform="matrix(0.57529647,0,0,0.57529647,8.9264057,141.97722)"><g
         id="g184"
         clip-path="url(#clipPath188)"><path
           d="M 57.6,91.2384 H 414.72"
           style="fill:none;stroke:#b0b0b0;stroke-width:0.8;stroke-linecap:square;stroke-linejoin:round;stroke-miterlimit:10;stroke-dasharray:none;stroke-opacity:1"
           id="path190" /></g></g><path
       d="M 42.063483,194.46636 H 40.049944"
       style="fill:#000000;fill-opacity:1;fill-rule:nonzero;stroke:#000000;stroke-width:0.460237;stroke-linecap:butt;stroke-linejoin:round;stroke-miterlimit:10;stroke-dasharray:none;stroke-opacity:1"
       id="path194" /><g
       id="g200"
       transform="matrix(0.57529647,0,0,0.57529647,8.9264057,141.97722)"><g
         id="g202"
         clip-path="url(#clipPath206)"><path
           d="M 57.6,144.4608 H 414.72"
           style="fill:none;stroke:#b0b0b0;stroke-width:0.8;stroke-linecap:square;stroke-linejoin:round;stroke-miterlimit:10;stroke-dasharray:none;stroke-opacity:1"
           id="path208" /></g></g><path
       d="M 42.063483,225.08501 H 40.049944"
       style="fill:#000000;fill-opacity:1;fill-rule:nonzero;stroke:#000000;stroke-width:0.460237;stroke-linecap:butt;stroke-linejoin:round;stroke-miterlimit:10;stroke-dasharray:none;stroke-opacity:1"
       id="path212" /><g
       id="g218"
       transform="matrix(0.57529647,0,0,0.57529647,8.9264057,141.97722)"><g
         id="g220"
         clip-path="url(#clipPath224)"><path
           d="M 57.6,197.6832 H 414.72"
           style="fill:none;stroke:#b0b0b0;stroke-width:0.8;stroke-linecap:square;stroke-linejoin:round;stroke-miterlimit:10;stroke-dasharray:none;stroke-opacity:1"
           id="path226" /></g></g><path
       d="M 42.063483,255.70367 H 40.049944"
       style="fill:#000000;fill-opacity:1;fill-rule:nonzero;stroke:#000000;stroke-width:0.460237;stroke-linecap:butt;stroke-linejoin:round;stroke-miterlimit:10;stroke-dasharray:none;stroke-opacity:1"
       id="path230" /><g
       id="g236"
       transform="matrix(0.57529647,0,0,0.57529647,8.9264057,141.97722)"><g
         id="g238"
         clip-path="url(#clipPath242)"><path
           d="M 57.6,250.9056 H 414.72"
           style="fill:none;stroke:#b0b0b0;stroke-width:0.8;stroke-linecap:square;stroke-linejoin:round;stroke-miterlimit:10;stroke-dasharray:none;stroke-opacity:1"
           id="path244" /></g></g><path
       d="M 42.063483,286.32233 H 40.049944"
       style="fill:#000000;fill-opacity:1;fill-rule:nonzero;stroke:#000000;stroke-width:0.460237;stroke-linecap:butt;stroke-linejoin:round;stroke-miterlimit:10;stroke-dasharray:none;stroke-opacity:1"
       id="path248" /><g
       id="g254"
       transform="matrix(0.57529647,0,0,0.57529647,8.9264057,141.97722)"><g
         id="g256"
         clip-path="url(#clipPath260)"><path
           d="M 57.6,304.128 H 414.72"
           style="fill:none;stroke:#b0b0b0;stroke-width:0.8;stroke-linecap:square;stroke-linejoin:round;stroke-miterlimit:10;stroke-dasharray:none;stroke-opacity:1"
           id="path262" /></g></g><path
       d="M 42.063483,316.94098 H 40.049944"
       style="fill:#000000;fill-opacity:1;fill-rule:nonzero;stroke:#000000;stroke-width:0.460237;stroke-linecap:butt;stroke-linejoin:round;stroke-miterlimit:10;stroke-dasharray:none;stroke-opacity:1"
       id="path266" /><g
       id="g278"
       clip-path="url(#clipPath282)"
       transform="matrix(0.57529647,0,0,0.57529647,8.9264057,141.97722)"><path
         d="m 57.6,261.39138 4.520506,-1.51873 4.520507,-22.36479 4.520506,-8.24492 4.520506,-11.28866 4.520507,-3.66583 4.520506,-4.99373 4.520506,0.55396 4.520507,-9.81735 4.520506,-3.40594 4.520503,-9.77864 4.52051,-5.25992 4.52051,2.96753 4.5205,-4.22458 4.52051,-3.04243 4.52051,-7.20707 4.5205,-2.89772 4.52051,-0.51379 4.5205,-5.80209 4.52051,-1.42869 4.52051,-1.32409 4.5205,-3.04464 4.52051,-3.56746 4.52051,1.08473 4.5205,-7.9038 4.52051,-6.70554 4.5205,9.15407 4.52051,-1.70409 4.52051,-2.40396 4.5205,-4.92723 4.52051,-3.03008 4.52051,6.53526 4.5205,-4.3145 4.52051,-1.23545 4.5205,-4.45872 4.52051,-2.71683 4.52051,-0.34532 4.5205,-2.02733 4.52051,0.2258 4.52051,-0.7811 4.5205,-2.39625 4.52051,-3.68288 4.52051,0.87476 4.5205,3.19326 4.52051,-5.71228 4.5205,1.10554 4.52051,3.58754 4.52051,-4.57101 4.5205,-5.26344 4.52051,6.40592 4.52051,-5.44072 4.5205,0.86853 4.52051,5.5953 4.5205,-13.48676 4.52051,8.72057 4.52051,3.21422 4.5205,-8.59557 4.52051,5.74186 4.52051,0.0295 4.5205,-1.37513 4.52051,-0.97679 4.52051,5.88044 4.5205,-10.74476 4.52051,8.00058 4.5205,-3.47067 4.52051,0.12347 4.52051,3.32811 4.5205,-5.99625 4.52051,-3.537 4.52051,-1.69021 4.5205,4.52221 4.52051,-4.66584 4.52051,8.41233 4.5205,-1.536 4.52051,-6.11621 4.5205,3.91491 4.52051,-10.370934 4.52051,3.024294 4.5205,-2.68041 4.52051,-0.271984"
         style="fill:none;stroke:#1f77b4;stroke-width:1.5;stroke-linecap:square;stroke-linejoin:round;stroke-miterlimit:10;stroke-dasharray:none;stroke-opacity:1"
         id="path284" /></g><g
       id="g288"
       clip-path="url(#clipPath292)"
       transform="matrix(0.57529647,0,0,0.57529647,8.9264057,141.97722)"><path
         d="m 57.6,267.88516 4.520506,-2.59022 4.520507,-22.62733 4.520506,-13.49669 4.520506,-9.37179 4.520507,-4.50633 4.520506,-3.75793 4.520506,-5.49541 4.520507,-5.17459 4.520506,-3.38686 4.520503,-2.16748 4.52051,-7.95022 4.52051,-0.60402 4.5205,-2.15877 4.52051,-1.20203 4.52051,-0.2058 4.5205,-1.83813 4.52051,-0.41356 4.5205,-2.85068 4.52051,-0.44664 4.52051,1.67425 4.5205,-3.43277 4.52051,0.1281 4.52051,-0.72622 4.5205,-3.68853 4.52051,-1.41355 4.5205,-0.035 4.52051,-1.96394 4.52051,-4.6026 4.5205,-0.39572 4.52051,-2.799 4.52051,1.99732 4.5205,-2.78417 4.52051,-1.45704 4.5205,-0.93807 4.52051,-0.99712 4.52051,-3.75071 4.5205,4.69661 4.52051,1.62058 4.52051,3.44723 4.5205,-2.63393 4.52051,8.07914 4.52051,-4.32543 4.5205,1.18464 4.52051,-2.33957 4.5205,-3.41967 4.52051,1.52 4.52051,5.37068 4.5205,-3.28551 4.52051,-3.52205 4.52051,1.6828 4.5205,1.24197 4.52051,-0.78995 4.5205,-1.70126 4.52051,-0.44026 4.52051,-3.28883 4.5205,-1.60198 4.52051,-0.96528 4.52051,-5.44747 4.5205,1.32636 4.52051,-1.2326 4.52051,-3.86974 4.5205,-2.18555 4.52051,3.83108 4.5205,-2.88375 4.52051,2.92725 4.52051,-0.62643 4.5205,11.3223 4.52051,-1.43796 4.52051,-7.4605 4.5205,8.2794 4.52051,-1.5502 4.52051,-0.17967 4.5205,-4.55826 4.52051,-3.71171 4.5205,0.59011 4.52051,-3.97929 4.52051,4.25043 4.5205,-9.36556 4.52051,10.4999"
         style="fill:none;stroke:#ff7f0e;stroke-width:1.5;stroke-linecap:square;stroke-linejoin:round;stroke-miterlimit:10;stroke-dasharray:none;stroke-opacity:1"
         id="path294" /></g><path
       d="M 42.063483,163.84769 V 316.94098"
       style="fill:none;stroke:#000000;stroke-width:0.460237;stroke-linecap:square;stroke-linejoin:miter;stroke-miterlimit:10;stroke-dasharray:none;stroke-opacity:1"
       id="path308" /><path
       d="M 247.51336,163.84769 V 316.94098"
       style="fill:none;stroke:#000000;stroke-width:0.460237;stroke-linecap:square;stroke-linejoin:miter;stroke-miterlimit:10;stroke-dasharray:none;stroke-opacity:1"
       id="path310" /><path
       d="M 42.063483,163.84769 H 247.51336"
       style="fill:none;stroke:#000000;stroke-width:0.460237;stroke-linecap:square;stroke-linejoin:miter;stroke-miterlimit:10;stroke-dasharray:none;stroke-opacity:1"
       id="path312" /><path
       d="M 42.063483,316.94098 H 247.51336"
       style="fill:none;stroke:#000000;stroke-width:0.460237;stroke-linecap:square;stroke-linejoin:miter;stroke-miterlimit:10;stroke-dasharray:none;stroke-opacity:1"
       id="path314" /><path
       d="M 53.47116,188.01621 H 64.97709"
       style="fill:none;stroke:#1f77b4;stroke-width:0.862944;stroke-linecap:square;stroke-linejoin:round;stroke-miterlimit:10;stroke-dasharray:none;stroke-opacity:1"
       id="path324" /><path
       d="M 53.47116,179.57553 H 64.97709"
       style="fill:none;stroke:#ff7f0e;stroke-width:0.862944;stroke-linecap:square;stroke-linejoin:round;stroke-miterlimit:10;stroke-dasharray:none;stroke-opacity:1"
       id="path330" /><path
       d="M 53.47116,171.13485 H 64.97709"
       style="fill:none;stroke:#d40000;stroke-width:0.862944;stroke-linecap:square;stroke-linejoin:round;stroke-miterlimit:10;stroke-dasharray:none;stroke-opacity:1"
       id="path336" /></g><g
     inkscape:groupmode="layer"
     id="layer1"
     inkscape:label="text"
     style="display:inline"
     transform="translate(-28.023958,-17.206424)"><text
       style="font-variant:normal;font-weight:normal;font-size:7.67062px;font-family:'DejaVu Sans';-inkscape-font-specification:DejaVuSans;writing-mode:lr-tb;fill:#000000;fill-opacity:1;fill-rule:nonzero;stroke:none;stroke-width:0.767062"
       id="text32"
       x="53.545086"
       y="253.53073"><tspan
         x="53.545086 58.423599 60.862858 65.741371"
         y="253.53073"
         sodipodi:role="line"
         id="tspan30"
         style="stroke-width:0.767062">0.00</tspan></text><text
       style="font-variant:normal;font-weight:normal;font-size:7.67062px;font-family:'DejaVu Sans';-inkscape-font-specification:DejaVuSans;writing-mode:lr-tb;fill:#000000;fill-opacity:1;fill-rule:nonzero;stroke:none;stroke-width:0.767062"
       id="text50"
       x="82.220169"
       y="253.53073"><tspan
         x="82.220169 87.098679 89.537933 94.416451"
         y="253.53073"
         sodipodi:role="line"
         id="tspan48"
         style="stroke-width:0.767062">0.25</tspan></text><text
       style="font-variant:normal;font-weight:normal;font-size:7.67062px;font-family:'DejaVu Sans';-inkscape-font-specification:DejaVuSans;writing-mode:lr-tb;fill:#000000;fill-opacity:1;fill-rule:nonzero;stroke:none;stroke-width:0.767062"
       id="text68"
       x="116.89524"
       y="253.53073"><tspan
         x="116.89524 121.77377 124.21302 129.09154"
         y="253.53073"
         sodipodi:role="line"
         id="tspan66"
         style="stroke-width:0.767062">0.50</tspan></text><text
       style="font-variant:normal;font-weight:normal;font-size:7.67062px;font-family:'DejaVu Sans';-inkscape-font-specification:DejaVuSans;writing-mode:lr-tb;fill:#000000;fill-opacity:1;fill-rule:nonzero;stroke:none;stroke-width:0.767062"
       id="text86"
       x="151.57033"
       y="253.53073"><tspan
         x="151.57033 156.44885 158.88811 163.76662"
         y="253.53073"
         sodipodi:role="line"
         id="tspan84"
         style="stroke-width:0.767062">0.75</tspan></text><text
       style="font-variant:normal;font-weight:normal;font-size:7.67062px;font-family:'DejaVu Sans';-inkscape-font-specification:DejaVuSans;writing-mode:lr-tb;fill:#000000;fill-opacity:1;fill-rule:nonzero;stroke:none;stroke-width:0.767062"
       id="text104"
       x="186.24542"
       y="253.53073"><tspan
         x="186.24542 191.12393 193.56319 198.44171"
         y="253.53073"
         sodipodi:role="line"
         id="tspan102"
         style="stroke-width:0.767062">1.00</tspan></text><text
       style="font-variant:normal;font-weight:normal;font-size:7.67062px;font-family:'DejaVu Sans';-inkscape-font-specification:DejaVuSans;writing-mode:lr-tb;fill:#000000;fill-opacity:1;fill-rule:nonzero;stroke:none;stroke-width:0.767062"
       id="text122"
       x="220.9205"
       y="253.53073"><tspan
         x="220.9205 225.79903 228.23828 233.11678"
         y="253.53073"
         sodipodi:role="line"
         id="tspan120"
         style="stroke-width:0.767062">1.25</tspan></text><text
       style="font-variant:normal;font-weight:normal;font-size:7.67062px;font-family:'DejaVu Sans';-inkscape-font-specification:DejaVuSans;writing-mode:lr-tb;fill:#000000;fill-opacity:1;fill-rule:nonzero;stroke:none;stroke-width:0.767062"
       id="text140"
       x="255.5956"
       y="253.53073"><tspan
         x="255.5956 260.47409 262.91336 267.79187"
         y="253.53073"
         sodipodi:role="line"
         id="tspan138"
         style="stroke-width:0.767062">1.50</tspan></text><text
       style="font-variant:normal;font-weight:normal;font-size:7.67062px;font-family:'DejaVu Sans';-inkscape-font-specification:DejaVuSans;writing-mode:lr-tb;fill:#000000;fill-opacity:1;fill-rule:nonzero;stroke:none;stroke-width:0.767062"
       id="text158"
       x="290.27066"
       y="253.53073"><tspan
         x="290.27066 295.1492 297.58844 302.46695"
         y="253.53073"
         sodipodi:role="line"
         id="tspan156"
         style="stroke-width:0.767062">1.75</tspan></text><text
       style="font-variant:normal;font-weight:normal;font-size:7.67062px;font-family:'DejaVu Sans';-inkscape-font-specification:DejaVuSans;writing-mode:lr-tb;fill:#000000;fill-opacity:1;fill-rule:nonzero;stroke:none;stroke-width:0.767062"
       id="text162"
       x="146.62599"
       y="264.01788"><tspan
         x="146.62599 152.57072 157.28816 162.15132 166.84576 174.31693 176.44937 180.6682 183.10747 187.9783 190.11073 194.10713 197.11401 201.8161 206.67928 210.89813 215.61555 218.05479 220.6398 223.07906 229.69879 234.56964"
         y="264.01788"
         sodipodi:role="line"
         id="tspan160"
         style="stroke-width:0.767062">Genomic distance / Mbp</tspan></text><text
       style="font-variant:normal;font-weight:normal;font-size:7.67062px;font-family:'DejaVu Sans';-inkscape-font-specification:DejaVuSans;writing-mode:lr-tb;fill:#000000;fill-opacity:1;fill-rule:nonzero;stroke:none;stroke-width:0.767062"
       id="text180"
       x="38.51413"
       y="245.24886"><tspan
         x="38.51413 43.392643 45.831902"
         y="245.24886"
         sodipodi:role="line"
         id="tspan178"
         style="stroke-width:0.767062">0.0</tspan></text><text
       style="font-variant:normal;font-weight:normal;font-size:7.67062px;font-family:'DejaVu Sans';-inkscape-font-specification:DejaVuSans;writing-mode:lr-tb;fill:#000000;fill-opacity:1;fill-rule:nonzero;stroke:none;stroke-width:0.767062"
       id="text198"
       x="38.51413"
       y="204.42398"><tspan
         x="38.51413 43.392643 45.831902"
         y="204.42398"
         sodipodi:role="line"
         id="tspan196"
         style="stroke-width:0.767062">0.2</tspan></text><text
       style="font-variant:normal;font-weight:normal;font-size:7.67062px;font-family:'DejaVu Sans';-inkscape-font-specification:DejaVuSans;writing-mode:lr-tb;fill:#000000;fill-opacity:1;fill-rule:nonzero;stroke:none;stroke-width:0.767062"
       id="text216"
       x="38.51413"
       y="163.59911"><tspan
         x="38.51413 43.392643 45.831902"
         y="163.59911"
         sodipodi:role="line"
         id="tspan214"
         style="stroke-width:0.767062">0.4</tspan></text><text
       style="font-variant:normal;font-weight:normal;font-size:7.67062px;font-family:'DejaVu Sans';-inkscape-font-specification:DejaVuSans;writing-mode:lr-tb;fill:#000000;fill-opacity:1;fill-rule:nonzero;stroke:none;stroke-width:0.767062"
       id="text234"
       x="38.51413"
       y="122.77396"><tspan
         x="38.51413 43.392643 45.831902"
         y="122.77396"
         sodipodi:role="line"
         id="tspan232"
         style="stroke-width:0.767062">0.6</tspan></text><text
       style="font-variant:normal;font-weight:normal;font-size:7.67062px;font-family:'DejaVu Sans';-inkscape-font-specification:DejaVuSans;writing-mode:lr-tb;fill:#000000;fill-opacity:1;fill-rule:nonzero;stroke:none;stroke-width:0.767062"
       id="text252"
       x="38.51413"
       y="81.949142"><tspan
         x="38.51413 43.392643 45.831902"
         y="81.949142"
         sodipodi:role="line"
         id="tspan250"
         style="stroke-width:0.767062">0.8</tspan></text><text
       style="font-variant:normal;font-weight:normal;font-size:7.67062px;font-family:'DejaVu Sans';-inkscape-font-specification:DejaVuSans;writing-mode:lr-tb;fill:#000000;fill-opacity:1;fill-rule:nonzero;stroke:none;stroke-width:0.767062"
       id="text270"
       x="38.51413"
       y="41.124271"><tspan
         x="38.51413 43.392643 45.831902"
         y="41.124271"
         sodipodi:role="line"
         id="tspan268"
         style="stroke-width:0.767062">1.0</tspan></text><text
       transform="rotate(-90)"
       style="font-variant:normal;font-weight:normal;font-size:7.67062px;font-family:'DejaVu Sans';-inkscape-font-specification:DejaVuSans;writing-mode:lr-tb;fill:#000000;fill-opacity:1;fill-rule:nonzero;stroke:none;stroke-width:0.767062"
       id="text274"
       x="-177.3329"
       y="33.85183"><tspan
         x="-177.3329 -172.70752 -167.9901 -163.28799 -160.13538 -156.13899 -151.44455 -146.58139 -144.14214 -139.92329 -135.22888 -132.07625 -128.92361 -124.206 -122.07349 -117.37141 -114.36461 -112.23209 -107.53767"
         y="33.85183"
         sodipodi:role="line"
         id="tspan272"
         style="stroke-width:0.767062">Pearson correlation</tspan></text><text
       style="font-variant:normal;font-weight:normal;font-size:9.20474px;font-family:'DejaVu Sans';-inkscape-font-specification:DejaVuSans;writing-mode:lr-tb;fill:#000000;fill-opacity:1;fill-rule:nonzero;stroke:none;stroke-width:0.767062"
       id="text318"
       x="98.325066"
       y="23.292521"><tspan
         x="98.325066 103.87553 109.53645 115.17894 118.9621 123.75777 129.39107 135.22688 138.15399 143.21658 148.8499 152.63304 156.4162 162.07712 164.63603 170.27855 173.88681 176.44571 182.07903 187.91483 190.84193 196.29115 201.08682 204.01393 206.94104 212.78606 218.44696 224.28276 229.91608 238.8815 241.4404 246.50302 249.43015 255.27515 257.83405 262.62973 266.23798 271.88049 277.71631 282.77893"
         y="23.292521"
         sodipodi:role="line"
         id="tspan316"
         style="stroke-width:0.767062">Pearson correlation vs. genomic distance</tspan></text><text
       style="font-variant:normal;font-weight:normal;font-size:9.20474px;font-family:'DejaVu Sans';-inkscape-font-specification:DejaVuSans;writing-mode:lr-tb;fill:#000000;fill-opacity:1;fill-rule:nonzero;stroke:none;stroke-width:0.767062"
       id="text322"
       x="61.059326"
       y="33.609463"><tspan
         x="61.059326 68.193001 76.136703 81.990913 87.845131 93.699341 99.553558 105.40777 108.33488 111.26199 117.11622 120.04333 125.89754 128.82465 134.67886 137.60599 143.46019 146.3873 152.24152 155.16862 161.02284 166.87706 169.80415 175.65837 181.51259 184.43971 190.29391 196.14813 199.07524 204.92946 210.78368 213.7108 219.565 225.41924 228.34633 234.20056 240.05476 242.98189 248.83609 254.69032 257.61743 263.47165 269.32584 272.25296 277.88626 283.72208 286.64917 292.68747 298.54172 304.3959 310.25015 313.17725 316.10437 321.95859"
         y="33.609463"
         sodipodi:role="line"
         id="tspan320"
         style="stroke-width:0.767062">GM12878, 1,2,4,7,9,11,13,14,16,17,18,20,22 on K562, 19</tspan></text><text
       style="font-variant:normal;font-weight:normal;font-size:7.67062px;font-family:'DejaVu Sans';-inkscape-font-specification:DejaVuSans;writing-mode:lr-tb;fill:#000000;fill-opacity:1;fill-rule:nonzero;stroke:none;stroke-width:0.767062"
       id="text328"
       x="92.772598"
       y="212.79646"><tspan
         sodipodi:role="line"
         id="tspan326"
         style="stroke-width:0.767062"
         x="92.772598"
         y="212.79646">rand. forest \cite{Krauth2020} / AUC: 0.386</tspan></text><text
       style="font-variant:normal;font-weight:normal;font-size:7.67062px;font-family:'DejaVu Sans';-inkscape-font-specification:DejaVuSans;writing-mode:lr-tb;fill:#000000;fill-opacity:1;fill-rule:nonzero;stroke:none;stroke-width:0.767062"
       id="text334"
       x="92.772598"
       y="224.0507"><tspan
         x="92.772598 98.67897 104.4166 110.15424 112.59349 115.03273 119.91125 124.78976 129.66829 134.38571 139.25658 141.69582 144.28081 146.72005 151.96678 157.58168 162.93578 165.52077 167.96001 172.83855 175.27779 180.1563 185.03484"
         y="224.0507"
         sodipodi:role="line"
         id="tspan332"
         style="stroke-width:0.767062">DNN, 500ep / AUC: 0.490</tspan></text><text
       style="font-variant:normal;font-weight:normal;font-size:7.67062px;font-family:'DejaVu Sans';-inkscape-font-specification:DejaVuSans;writing-mode:lr-tb;fill:#000000;fill-opacity:1;fill-rule:nonzero;stroke:none;stroke-width:0.767062"
       id="text340"
       x="92.772598"
       y="235.30493"><tspan
         x="92.772598 95.77948 98.932114 103.6342 108.49739 112.49376 115.19382 119.91125 123.06387 125.50313 131.44786 138.06761 142.94612 147.82463 152.70317 157.58168 162.46019 164.89946 167.48442 169.92369 175.17039 180.78529 186.13942 188.72438 191.16365 196.04216 198.48143 203.35994 208.23842"
         y="235.30493"
         sodipodi:role="line"
         id="tspan338"
         style="stroke-width:0.767062">transfer GM12878 / AUC: 0.767</tspan></text></g></svg>
