<?xml version="1.0" encoding="UTF-8" standalone="no"?>
<svg
   xmlns:dc="http://purl.org/dc/elements/1.1/"
   xmlns:cc="http://creativecommons.org/ns#"
   xmlns:rdf="http://www.w3.org/1999/02/22-rdf-syntax-ns#"
   xmlns:svg="http://www.w3.org/2000/svg"
   xmlns="http://www.w3.org/2000/svg"
   xmlns:sodipodi="http://sodipodi.sourceforge.net/DTD/sodipodi-0.dtd"
   xmlns:inkscape="http://www.inkscape.org/namespaces/inkscape"
   version="1.1"
   id="svg2"
   xml:space="preserve"
   width="80mm"
   height="60mm"
   viewBox="0 0 302.36222 226.77163"
   sodipodi:docname="lossOverEpochs.svg"
   inkscape:version="1.0.2 (1.0.2+r75+1)"><metadata
     id="metadata8"><rdf:RDF><cc:Work
         rdf:about=""><dc:format>image/svg+xml</dc:format><dc:type
           rdf:resource="http://purl.org/dc/dcmitype/StillImage" /><dc:title></dc:title></cc:Work></rdf:RDF></metadata><defs
     id="defs6"><clipPath
       clipPathUnits="userSpaceOnUse"
       id="clipPath22"><path
         d="M 54,35.64 H 388.8 V 285.12 H 54 Z"
         id="path20" /></clipPath><clipPath
       clipPathUnits="userSpaceOnUse"
       id="clipPath40"><path
         d="M 54,35.64 H 388.8 V 285.12 H 54 Z"
         id="path38" /></clipPath><clipPath
       clipPathUnits="userSpaceOnUse"
       id="clipPath58"><path
         d="M 54,35.64 H 388.8 V 285.12 H 54 Z"
         id="path56" /></clipPath><clipPath
       clipPathUnits="userSpaceOnUse"
       id="clipPath80"><path
         d="M 54,35.64 H 388.8 V 285.12 H 54 Z"
         id="path78" /></clipPath><clipPath
       clipPathUnits="userSpaceOnUse"
       id="clipPath104"><path
         d="M 54,35.64 H 388.8 V 285.12 H 54 Z"
         id="path102" /></clipPath><clipPath
       clipPathUnits="userSpaceOnUse"
       id="clipPath130"><path
         d="M -1021,-463 H 1794 V 1233 H -1021 Z"
         id="path128" /></clipPath><clipPath
       clipPathUnits="userSpaceOnUse"
       id="clipPath140"><path
         d="M 54,35.64 H 388.8 V 285.12 H 54 Z"
         id="path138" /></clipPath><clipPath
       clipPathUnits="userSpaceOnUse"
       id="clipPath164"><path
         d="M 54,35.64 H 388.8 V 285.12 H 54 Z"
         id="path162" /></clipPath><clipPath
       clipPathUnits="userSpaceOnUse"
       id="clipPath188"><path
         d="M 54,35.64 H 388.8 V 285.12 H 54 Z"
         id="path186" /></clipPath><clipPath
       clipPathUnits="userSpaceOnUse"
       id="clipPath212"><path
         d="M 54,35.64 H 388.8 V 285.12 H 54 Z"
         id="path210" /></clipPath><clipPath
       clipPathUnits="userSpaceOnUse"
       id="clipPath236"><path
         d="M 54,35.64 H 388.8 V 285.12 H 54 Z"
         id="path234" /></clipPath><clipPath
       clipPathUnits="userSpaceOnUse"
       id="clipPath264"><path
         d="M 54,35.64 H 388.8 V 285.12 H 54 Z"
         id="path262" /></clipPath><clipPath
       clipPathUnits="userSpaceOnUse"
       id="clipPath274"><path
         d="M 54,35.64 H 388.8 V 285.12 H 54 Z"
         id="path272" /></clipPath></defs><sodipodi:namedview
     pagecolor="#ffffff"
     bordercolor="#666666"
     borderopacity="1"
     objecttolerance="10"
     gridtolerance="10"
     guidetolerance="10"
     inkscape:pageopacity="0"
     inkscape:pageshadow="2"
     inkscape:window-width="1920"
     inkscape:window-height="1020"
     id="namedview4"
     showgrid="false"
     units="mm"
     fit-margin-top="0"
     fit-margin-left="0"
     fit-margin-right="0"
     fit-margin-bottom="0"
     inkscape:zoom="1.9837963"
     inkscape:cx="71.135152"
     inkscape:cy="148.42184"
     inkscape:window-x="0"
     inkscape:window-y="0"
     inkscape:window-maximized="1"
     inkscape:current-layer="layer1" /><g
     id="g10"
     inkscape:groupmode="layer"
     inkscape:label="lossOverEpochs"
     transform="matrix(1.3333333,0,0,-1.3333333,14.767708,380.69332)"><g
       id="g16"
       transform="matrix(0.60455565,0,0,0.60456941,-19.773458,112.91103)"
       style="stroke-width:0.936345"><g
         id="g18"
         clip-path="url(#clipPath22)"
         style="stroke-width:0.936345"><path
           d="M 66.660504,35.64 V 285.12"
           style="fill:none;stroke:#b0b0b0;stroke-width:0.749076;stroke-linecap:square;stroke-linejoin:round;stroke-miterlimit:10;stroke-dasharray:none;stroke-opacity:1"
           id="path24" /></g></g><g
       id="g26"
       transform="matrix(0.60455565,0,0,0.60456941,-19.773458,112.91103)"
       style="stroke-width:0.936345"><path
         d="m 66.660504,35.64 v -3.5"
         style="fill:#000000;fill-opacity:1;fill-rule:nonzero;stroke:#000000;stroke-width:0.749076;stroke-linecap:butt;stroke-linejoin:round;stroke-miterlimit:10;stroke-dasharray:none;stroke-opacity:1"
         id="path28" /></g><g
       id="g34"
       transform="matrix(0.60455565,0,0,0.60456941,-19.773458,112.91103)"
       style="stroke-width:0.936345"><g
         id="g36"
         clip-path="url(#clipPath40)"
         style="stroke-width:0.936345"><path
           d="M 194.54438,35.64 V 285.12"
           style="fill:none;stroke:#b0b0b0;stroke-width:0.749076;stroke-linecap:square;stroke-linejoin:round;stroke-miterlimit:10;stroke-dasharray:none;stroke-opacity:1"
           id="path42" /></g></g><g
       id="g44"
       transform="matrix(0.60455565,0,0,0.60456941,-19.773458,112.91103)"
       style="stroke-width:0.936345"><path
         d="m 194.54438,35.64 v -3.5"
         style="fill:#000000;fill-opacity:1;fill-rule:nonzero;stroke:#000000;stroke-width:0.749076;stroke-linecap:butt;stroke-linejoin:round;stroke-miterlimit:10;stroke-dasharray:none;stroke-opacity:1"
         id="path46" /></g><g
       id="g52"
       transform="matrix(0.60455565,0,0,0.60456941,-19.773458,112.91103)"
       style="stroke-width:0.936345"><g
         id="g54"
         clip-path="url(#clipPath58)"
         style="stroke-width:0.936345"><path
           d="M 322.42827,35.64 V 285.12"
           style="fill:none;stroke:#b0b0b0;stroke-width:0.749076;stroke-linecap:square;stroke-linejoin:round;stroke-miterlimit:10;stroke-dasharray:none;stroke-opacity:1"
           id="path60" /></g></g><g
       id="g62"
       transform="matrix(0.60455565,0,0,0.60456941,-19.773458,112.91103)"
       style="stroke-width:0.936345"><path
         d="m 322.42827,35.64 v -3.5"
         style="fill:#000000;fill-opacity:1;fill-rule:nonzero;stroke:#000000;stroke-width:0.749076;stroke-linecap:butt;stroke-linejoin:round;stroke-miterlimit:10;stroke-dasharray:none;stroke-opacity:1"
         id="path64" /></g><g
       id="g74"
       transform="matrix(0.60455565,0,0,0.60456941,-19.773458,112.91103)"
       style="stroke-width:0.936345"><g
         id="g76"
         clip-path="url(#clipPath80)"
         style="stroke-width:0.936345"><path
           d="M 54,87.700894 H 388.8"
           style="fill:none;stroke:#b0b0b0;stroke-width:0.749076;stroke-linecap:square;stroke-linejoin:round;stroke-miterlimit:10;stroke-dasharray:none;stroke-opacity:1"
           id="path82" /></g></g><g
       id="g84"
       transform="matrix(0.60455565,0,0,0.60456941,-19.773458,112.91103)"
       style="stroke-width:0.936345"><path
         d="M 54,87.700894 H 50.5"
         style="fill:#000000;fill-opacity:1;fill-rule:nonzero;stroke:#000000;stroke-width:0.749076;stroke-linecap:butt;stroke-linejoin:round;stroke-miterlimit:10;stroke-dasharray:none;stroke-opacity:1"
         id="path86" /><g
         id="g88"
         transform="translate(29,83.239957)"
         style="stroke-width:0.936345" /></g><g
       id="g98"
       transform="matrix(0.60455565,0,0,0.60456941,-19.773458,112.91103)"
       style="stroke-width:0.936345"><g
         id="g100"
         clip-path="url(#clipPath104)"
         style="stroke-width:0.936345"><path
           d="M 54,37.989084 H 388.8"
           style="fill:none;stroke:#b0b0b0;stroke-width:0.749076;stroke-linecap:square;stroke-linejoin:round;stroke-miterlimit:10;stroke-dasharray:none;stroke-opacity:1"
           id="path106" /></g></g><path
       d="m 12.872547,135.87807 h -1.20911"
       style="fill:#000000;fill-opacity:1;fill-rule:nonzero;stroke:#000000;stroke-width:0.339647;stroke-linecap:butt;stroke-linejoin:round;stroke-miterlimit:10;stroke-dasharray:none;stroke-opacity:1"
       id="path110" /><g
       id="g134"
       transform="matrix(0.60455565,0,0,0.60456941,-19.773458,112.91103)"
       style="stroke-width:0.936345"><g
         id="g136"
         clip-path="url(#clipPath140)"
         style="stroke-width:0.936345"><path
           d="M 54,132.6707 H 388.8"
           style="fill:none;stroke:#b0b0b0;stroke-width:0.749076;stroke-linecap:square;stroke-linejoin:round;stroke-miterlimit:10;stroke-dasharray:none;stroke-opacity:1"
           id="path142" /></g></g><g
       id="g144"
       transform="matrix(0.60455565,0,0,0.60456941,-19.773458,112.91103)"
       style="stroke-width:0.936345"><path
         d="M 54,132.6707 H 52"
         style="fill:#000000;fill-opacity:1;fill-rule:nonzero;stroke:#000000;stroke-width:0.561807;stroke-linecap:butt;stroke-linejoin:round;stroke-miterlimit:10;stroke-dasharray:none;stroke-opacity:1"
         id="path146" /><g
         id="g148"
         transform="translate(2.6,128.20976)"
         style="stroke-width:0.936345" /></g><g
       id="g158"
       transform="matrix(0.60455565,0,0,0.60456941,-19.773458,112.91103)"
       style="stroke-width:0.936345"><g
         id="g160"
         clip-path="url(#clipPath164)"
         style="stroke-width:0.936345"><path
           d="M 54,173.72491 H 388.8"
           style="fill:none;stroke:#b0b0b0;stroke-width:0.749076;stroke-linecap:square;stroke-linejoin:round;stroke-miterlimit:10;stroke-dasharray:none;stroke-opacity:1"
           id="path166" /></g></g><g
       id="g168"
       transform="matrix(0.60455565,0,0,0.60456941,-19.773458,112.91103)"
       style="stroke-width:0.936345"><path
         d="M 54,173.72491 H 52"
         style="fill:#000000;fill-opacity:1;fill-rule:nonzero;stroke:#000000;stroke-width:0.561807;stroke-linecap:butt;stroke-linejoin:round;stroke-miterlimit:10;stroke-dasharray:none;stroke-opacity:1"
         id="path170" /><g
         id="g172"
         transform="translate(2.6,169.26397)"
         style="stroke-width:0.936345" /></g><g
       id="g182"
       transform="matrix(0.60455565,0,0,0.60456941,-19.773458,112.91103)"
       style="stroke-width:0.936345"><g
         id="g184"
         clip-path="url(#clipPath188)"
         style="stroke-width:0.936345"><path
           d="M 54,211.49112 H 388.8"
           style="fill:none;stroke:#b0b0b0;stroke-width:0.749076;stroke-linecap:square;stroke-linejoin:round;stroke-miterlimit:10;stroke-dasharray:none;stroke-opacity:1"
           id="path190" /></g></g><g
       id="g192"
       transform="matrix(0.60455565,0,0,0.60456941,-19.773458,112.91103)"
       style="stroke-width:0.936345"><path
         d="M 54,211.49112 H 52"
         style="fill:#000000;fill-opacity:1;fill-rule:nonzero;stroke:#000000;stroke-width:0.561807;stroke-linecap:butt;stroke-linejoin:round;stroke-miterlimit:10;stroke-dasharray:none;stroke-opacity:1"
         id="path194" /><g
         id="g196"
         transform="translate(2.6,207.03019)"
         style="stroke-width:0.936345" /></g><g
       id="g206"
       transform="matrix(0.60455565,0,0,0.60456941,-19.773458,112.91103)"
       style="stroke-width:0.936345"><g
         id="g208"
         clip-path="url(#clipPath212)"
         style="stroke-width:0.936345"><path
           d="M 54,246.45718 H 388.8"
           style="fill:none;stroke:#b0b0b0;stroke-width:0.749076;stroke-linecap:square;stroke-linejoin:round;stroke-miterlimit:10;stroke-dasharray:none;stroke-opacity:1"
           id="path214" /></g></g><g
       id="g216"
       transform="matrix(0.60455565,0,0,0.60456941,-19.773458,112.91103)"
       style="stroke-width:0.936345"><path
         d="M 54,246.45718 H 52"
         style="fill:#000000;fill-opacity:1;fill-rule:nonzero;stroke:#000000;stroke-width:0.561807;stroke-linecap:butt;stroke-linejoin:round;stroke-miterlimit:10;stroke-dasharray:none;stroke-opacity:1"
         id="path218" /><g
         id="g220"
         transform="translate(2.6,241.99624)"
         style="stroke-width:0.936345" /></g><g
       id="g230"
       transform="matrix(0.60455565,0,0,0.60456941,-19.773458,112.91103)"
       style="stroke-width:0.936345"><g
         id="g232"
         clip-path="url(#clipPath236)"
         style="stroke-width:0.936345"><path
           d="M 54,279.0098 H 388.8"
           style="fill:none;stroke:#b0b0b0;stroke-width:0.749076;stroke-linecap:square;stroke-linejoin:round;stroke-miterlimit:10;stroke-dasharray:none;stroke-opacity:1"
           id="path238" /></g></g><g
       id="g240"
       transform="matrix(0.60455565,0,0,0.60456941,-19.773458,112.91103)"
       style="stroke-width:0.936345"><path
         d="M 54,279.0098 H 52"
         style="fill:#000000;fill-opacity:1;fill-rule:nonzero;stroke:#000000;stroke-width:0.561807;stroke-linecap:butt;stroke-linejoin:round;stroke-miterlimit:10;stroke-dasharray:none;stroke-opacity:1"
         id="path242" /><g
         id="g244"
         transform="translate(2.6,274.54886)"
         style="stroke-width:0.936345" /></g><g
       id="g258"
       transform="matrix(0.60455565,0,0,0.60456941,-19.773458,112.91103)"
       style="stroke-width:0.936345"><g
         id="g260"
         clip-path="url(#clipPath264)"
         style="stroke-width:0.936345"><path
           d="m 69.218182,273.78 2.557677,-43.13831 2.557678,-3.92435 2.557678,-1.63171 2.557677,-2.03361 2.557678,-1.34574 2.557678,-0.62564 2.557677,-0.8466 2.557678,-0.65273 2.557677,-0.82211 2.557678,-0.78369 2.557678,-1.53844 2.557677,-1.91742 2.557677,-0.70142 2.55768,-1.26108 2.55768,-1.00863 2.55767,-1.28908 2.55768,-2.035 2.55768,-2.99052 2.55768,-1.58907 2.55767,-3.04678 2.55768,-4.55425 2.55768,-3.19332 2.55768,-4.42538 2.55768,-4.41629 2.55767,-3.82057 2.55768,-3.42223 2.55768,-2.8581 2.55767,-3.9763 2.55768,-2.49259 2.55768,-3.60337 2.55768,-3.66756 2.55768,-3.70024 2.55767,-2.69053 2.55768,-2.49131 2.55768,-3.1209 2.55768,-2.79164 2.55767,-3.30121 2.55768,-2.59946 2.55768,-1.72196 2.55768,-3.51339 2.55767,-2.56511 2.55768,-2.96045 2.55768,-2.2739 2.55768,-2.77536 2.55767,-2.46307 2.55768,-2.44955 2.55768,-1.41235 2.55768,-2.52964 2.55767,-2.46928 2.55768,-1.66296 2.55768,-1.99358 2.55768,-2.7295 2.55767,-1.57631 2.55768,-1.90081 2.55768,-1.88913 2.55768,-1.091939 2.55768,-2.172029 2.55767,-1.901452 2.55768,-1.732616 2.55768,-0.560198 2.55768,-1.95174 2.55767,-0.853736 2.55768,-2.065808 2.55768,-1.372725 2.55768,-0.689217 2.55767,-1.875112 2.55768,-0.240571 2.55768,-1.909534 2.55768,-1.565293 2.55767,-1.376993 2.55768,-0.253525 2.55768,-0.629157 2.55768,-2.370782 2.55767,-0.309571 2.55768,-1.143919 2.55768,-0.525648 2.55768,-0.767851 2.55768,-0.328993 2.55767,-1.305264 2.55768,-0.940829 2.55768,-1.889588 2.55768,-0.401352 2.55767,-0.464424 2.55768,0.02581 2.55768,-0.978129 2.55768,-1.529585 2.55767,-0.07 2.55768,-1.204306 2.55768,-1.18427 2.55768,0.591367 2.55767,-1.295896 2.55768,-0.04456 2.55768,-1.056104 2.55768,-1.138302 2.55767,0.613413 2.55768,-1.013237 2.55768,-0.822611 2.55768,-0.199357 2.55768,-0.988724 2.55767,-0.607965 2.55768,-0.370159 2.55768,-0.803141 2.55768,-0.607584 2.55767,-0.41097 2.55768,-0.13351 2.55768,-0.569629 2.55768,-0.962544 2.55767,-0.328925 2.55768,-0.02326 2.55768,-1.79876 2.55768,0.131001 2.55767,-0.306131 2.55768,-0.70927 2.55768,-0.156203 2.55768,-1.153967 2.55767,0.342937 2.55768,-1.24404 2.55768,0.534108 2.55768,-1.444109"
           style="fill:none;stroke:#1f77b4;stroke-width:1.40452;stroke-linecap:square;stroke-linejoin:round;stroke-miterlimit:10;stroke-dasharray:none;stroke-opacity:1"
           id="path266" /></g></g><g
       id="g268"
       transform="matrix(0.60455565,0,0,0.60456941,-19.773458,112.91103)"
       style="stroke-width:0.936345"><g
         id="g270"
         clip-path="url(#clipPath274)"
         style="stroke-width:0.936345"><path
           d="m 69.218182,225.72156 2.557677,-7.4075 2.557678,5.22576 2.557678,12.56177 2.557677,-15.86738 2.557678,19.44365 2.557678,-11.63056 2.557677,-1.451 2.557678,-3.61931 2.557677,-2.22325 2.557678,-1.38173 2.557678,-0.43229 2.557677,11.49121 2.557677,-8.39943 2.55768,3.50346 2.55768,-7.74081 2.55767,6.09501 2.55768,-12.97393 2.55768,-6.81849 2.55768,5.00566 2.55767,0.71815 2.55768,-17.49588 2.55768,13.57639 2.55768,-10.93853 2.55768,-10.6535 2.55767,0.32109 2.55768,0.43499 2.55768,-0.8654 2.55767,6.72454 2.55768,-14.90585 2.55768,31.27964 2.55768,-33.26199 2.55768,0.65499 2.55767,5.83396 2.55768,-6.55898 2.55768,0.53418 2.55768,-0.69841 2.55767,2.59419 2.55768,-2.43296 2.55768,3.09771 2.55768,0.26135 2.55767,-3.82407 2.55768,-1.10757 2.55768,13.72768 2.55768,-10.21882 2.55767,-0.39968 2.55768,-0.0723 2.55768,0.94059 2.55768,2.61218 2.55767,-0.54491 2.55768,-1.73743 2.55768,0.37884 2.55768,3.65626 2.55767,-3.74227 2.55768,6.28762 2.55768,-3.80716 2.55768,0.99116 2.55768,1.70156 2.55767,-0.62994 2.55768,-0.30488 2.55768,3.64701 2.55768,-1.0278 2.55767,-4.86041 2.55768,2.01293 2.55768,-0.1533 2.55768,-1.13751 2.55767,3.46089 2.55768,5.03732 2.55768,1.06344 2.55768,16.5277 2.55767,-22.83539 2.55768,1.05546 2.55768,-0.26377 2.55768,0.20241 2.55767,5.32488 2.55768,-5.48315 2.55768,5.95792 2.55768,-0.0139 2.55768,-7.87388 2.55767,14.61596 2.55768,-4.57645 2.55768,0.61373 2.55768,2.29599 2.55767,1.03489 2.55768,-2.00085 2.55768,13.3956 2.55768,-10.01845 2.55767,-1.72255 2.55768,5.62532 2.55768,4.83676 2.55768,-1.07797 2.55767,-6.39501 2.55768,3.95427 2.55768,-2.48757 2.55768,3.77306 2.55767,-0.16427 2.55768,8.61017 2.55768,-23.51003 2.55768,19.93205 2.55768,-13.03457 2.55767,0.58704 2.55768,2.36031 2.55768,11.15302 2.55768,-10.03906 2.55767,9.44565 2.55768,5.64254 2.55768,-9.83006 2.55768,-1.06783 2.55767,0.51094 2.55768,27.02804 2.55768,-6.5628 2.55768,-4.76315 2.55767,-8.94418 2.55768,-1.13 2.55768,0.30596 2.55768,6.85776 2.55767,-4.26715 2.55768,-4.5669 2.55768,4.27608 2.55768,-11.53205"
           style="fill:none;stroke:#ff7f0e;stroke-width:1.40452;stroke-linecap:square;stroke-linejoin:round;stroke-miterlimit:10;stroke-dasharray:none;stroke-opacity:1"
           id="path276" /></g></g><path
       d="M 12.872548,134.45789 V 285.28587"
       style="fill:none;stroke:#000000;stroke-width:0.452863;stroke-linecap:square;stroke-linejoin:miter;stroke-miterlimit:10;stroke-dasharray:none;stroke-opacity:1"
       id="path280" /><path
       d="M 215.27778,134.45789 V 285.28587"
       style="fill:none;stroke:#000000;stroke-width:0.452863;stroke-linecap:square;stroke-linejoin:miter;stroke-miterlimit:10;stroke-dasharray:none;stroke-opacity:1"
       id="path282" /><path
       d="M 12.872548,134.45789 H 215.27778"
       style="fill:none;stroke:#000000;stroke-width:0.452863;stroke-linecap:square;stroke-linejoin:miter;stroke-miterlimit:10;stroke-dasharray:none;stroke-opacity:1"
       id="path284" /><path
       d="M 12.872548,285.28587 H 215.27778"
       style="fill:none;stroke:#000000;stroke-width:0.452863;stroke-linecap:square;stroke-linejoin:miter;stroke-miterlimit:10;stroke-dasharray:none;stroke-opacity:1"
       id="path286" /><path
       d="m 108.38403,253.62338 h 57.46501 c 0.94301,0 1.41453,0.40306 1.41453,1.20914 v 17.13577 c 0,0.80608 -0.47152,1.20913 -1.41453,1.20913 h -57.46501 c -0.943,0 -1.41452,-0.40305 -1.41452,-1.20913 v -17.13577 c 0,-0.80608 0.47152,-1.20914 1.41452,-1.20914 z"
       style="fill:#ffffff;fill-opacity:0.8;fill-rule:nonzero;stroke:#cccccc;stroke-width:0.566079;stroke-linecap:butt;stroke-linejoin:miter;stroke-miterlimit:10;stroke-dasharray:none;stroke-opacity:0.8"
       id="path292" /><path
       d="m 109.38773,268.28419 h 12.09112"
       style="fill:none;stroke:#1f77b4;stroke-width:0.849119;stroke-linecap:square;stroke-linejoin:round;stroke-miterlimit:10;stroke-dasharray:none;stroke-opacity:1"
       id="path294" /><path
       d="m 109.38773,259.41401 h 12.09112"
       style="fill:none;stroke:#ff7f0e;stroke-width:0.849119;stroke-linecap:square;stroke-linejoin:round;stroke-miterlimit:10;stroke-dasharray:none;stroke-opacity:1"
       id="path300" /></g><g
     inkscape:groupmode="layer"
     id="layer1"
     inkscape:label="text"
     style="display:inline"
     transform="translate(14.767708,-51.306676)"><text
       style="font-variant:normal;font-weight:normal;font-size:8.06081px;font-family:'DejaVu Sans';-inkscape-font-specification:DejaVuSans;writing-mode:lr-tb;fill:#000000;fill-opacity:1;fill-rule:nonzero;stroke:none;stroke-width:0.75477"
       id="text304"
       x="168.42229"
       y="88.934967"
       transform="scale(0.99998862,1.0000114)"><tspan
         x="168.42229 173.19432 178.13562 180.37653 182.61745 187.73607 192.67738 195.8372 198.07811 203.01134"
         y="88.934967"
         sodipodi:role="line"
         id="tspan302"
         style="stroke-width:0.75477">validation</tspan></text><text
       style="font-variant:normal;font-weight:normal;font-size:8.06083px;font-family:'DejaVu Sans';-inkscape-font-specification:DejaVuSans;writing-mode:lr-tb;fill:#000000;fill-opacity:1;fill-rule:nonzero;stroke:none;stroke-width:0.754772"
       id="text32"
       x="24.805923"
       y="264.4837"
       transform="scale(0.99998862,1.0000114)"><tspan
         x="24.805923"
         y="264.4837"
         id="tspan30"
         style="stroke-width:0.754772">0</tspan></text><text
       style="font-variant:normal;font-weight:normal;font-size:8.06083px;font-family:'DejaVu Sans';-inkscape-font-specification:DejaVuSans;writing-mode:lr-tb;fill:#000000;fill-opacity:1;fill-rule:nonzero;stroke:none;stroke-width:0.754772"
       id="text50"
       x="125.32788"
       y="264.4837"
       transform="scale(0.99998862,1.0000114)"><tspan
         x="125.32788 130.45459"
         y="264.4837"
         sodipodi:role="line"
         id="tspan48"
         style="stroke-width:0.754772">50</tspan></text><text
       style="font-variant:normal;font-weight:normal;font-size:8.06083px;font-family:'DejaVu Sans';-inkscape-font-specification:DejaVuSans;writing-mode:lr-tb;fill:#000000;fill-opacity:1;fill-rule:nonzero;stroke:none;stroke-width:0.754772"
       id="text68"
       x="225.84988"
       y="264.4837"
       transform="scale(0.99998862,1.0000114)"><tspan
         x="225.84988 230.97656 236.10324"
         y="264.4837"
         sodipodi:role="line"
         id="tspan66"
         style="stroke-width:0.754772">100</tspan></text><text
       style="font-variant:normal;font-weight:normal;font-size:8.06083px;font-family:'DejaVu Sans';-inkscape-font-specification:DejaVuSans;writing-mode:lr-tb;fill:#000000;fill-opacity:1;fill-rule:nonzero;stroke:none;stroke-width:0.754772"
       id="text72"
       x="139.82176"
       y="275.50439"
       transform="scale(0.99998862,1.0000114)"><tspan
         x="139.82176 144.77917 149.89783 154.83105 159.26451"
         y="275.50439"
         sodipodi:role="line"
         id="tspan70"
         style="stroke-width:0.754772">epoch</tspan></text><text
       style="font-variant:normal;font-weight:normal;font-size:8.06083px;font-family:'DejaVu Sans';-inkscape-font-specification:DejaVuSans;writing-mode:lr-tb;fill:#000000;fill-opacity:1;fill-rule:nonzero;stroke:none;stroke-width:0.754772"
       id="text92"
       x="-2.9884915"
       y="213.56322"
       transform="scale(0.99998862,1.0000114)"><tspan
         sodipodi:role="line"
         id="tspan90"
         style="stroke-width:0.754772"
         x="-2.9884915"
         y="213.56322">1.0</tspan></text><text
       style="font-variant:normal;font-weight:normal;font-size:8.06083px;font-family:'DejaVu Sans';-inkscape-font-specification:DejaVuSans;writing-mode:lr-tb;fill:#000000;fill-opacity:1;fill-rule:nonzero;stroke:none;stroke-width:0.754772"
       id="text116"
       x="-2.9884915"
       y="253.96758"
       transform="scale(0.99998862,1.0000114)"><tspan
         sodipodi:role="line"
         id="tspan114"
         style="stroke-width:0.754772"
         x="-2.9884915"
         y="253.96758">0.9</tspan></text><text
       style="font-variant:normal;font-weight:normal;font-size:8.06083px;font-family:'DejaVu Sans';-inkscape-font-specification:DejaVuSans;writing-mode:lr-tb;fill:#000000;fill-opacity:1;fill-rule:nonzero;stroke:none;stroke-width:0.754772"
       id="text152"
       x="-2.9884915"
       y="177.3138"
       transform="scale(0.99998862,1.0000114)"><tspan
         sodipodi:role="line"
         id="tspan150"
         style="stroke-width:0.754772"
         x="-2.9884915"
         y="177.3138">1.1</tspan></text><text
       style="font-variant:normal;font-weight:normal;font-size:8.06083px;font-family:'DejaVu Sans';-inkscape-font-specification:DejaVuSans;writing-mode:lr-tb;fill:#000000;fill-opacity:1;fill-rule:nonzero;stroke:none;stroke-width:0.754772"
       id="text176"
       x="-2.9884915"
       y="144.22069"
       transform="scale(0.99998862,1.0000114)"><tspan
         sodipodi:role="line"
         id="tspan174"
         style="stroke-width:0.754772"
         x="-2.9884915"
         y="144.22069">1.2</tspan></text><text
       style="font-variant:normal;font-weight:normal;font-size:8.06083px;font-family:'DejaVu Sans';-inkscape-font-specification:DejaVuSans;writing-mode:lr-tb;fill:#000000;fill-opacity:1;fill-rule:nonzero;stroke:none;stroke-width:0.754772"
       id="text200"
       x="-2.9884915"
       y="113.77796"
       transform="scale(0.99998862,1.0000114)"><tspan
         sodipodi:role="line"
         id="tspan198"
         style="stroke-width:0.754772"
         x="-2.9884915"
         y="113.77796">1.3</tspan></text><text
       style="font-variant:normal;font-weight:normal;font-size:8.06083px;font-family:'DejaVu Sans';-inkscape-font-specification:DejaVuSans;writing-mode:lr-tb;fill:#000000;fill-opacity:1;fill-rule:nonzero;stroke:none;stroke-width:0.754772"
       id="text224"
       x="-2.9884915"
       y="85.592415"
       transform="scale(0.99998862,1.0000114)"><tspan
         sodipodi:role="line"
         id="tspan222"
         style="stroke-width:0.754772"
         x="-2.9884915"
         y="85.592415">1.4</tspan></text><text
       style="font-variant:normal;font-weight:normal;font-size:8.06083px;font-family:'DejaVu Sans';-inkscape-font-specification:DejaVuSans;writing-mode:lr-tb;fill:#000000;fill-opacity:1;fill-rule:nonzero;stroke:none;stroke-width:0.754772"
       id="text248"
       x="-2.9884915"
       y="59.352291"
       transform="scale(0.99998862,1.0000114)"><tspan
         x="-2.9884915"
         sodipodi:role="line"
         id="tspan246"
         style="stroke-width:0.754772"
         y="59.352291">1.5</tspan></text><text
       transform="matrix(0,-1.0000114,0.99998862,0,0,0)"
       style="font-variant:normal;font-weight:normal;font-size:8.06083px;font-family:'DejaVu Sans';-inkscape-font-specification:DejaVuSans;writing-mode:lr-tb;fill:#000000;fill-opacity:1;fill-rule:nonzero;stroke:none;stroke-width:0.754772"
       id="text256"
       x="-159.96545"
       y="-7.8089132"><tspan
         x="-159.96545 -157.72453 -152.79131 -148.5916"
         y="-7.8089132"
         sodipodi:role="line"
         id="tspan254"
         style="stroke-width:0.754772">loss (MSE)</tspan></text><text
       style="font-variant:normal;font-weight:normal;font-size:8.06081px;font-family:'DejaVu Sans';-inkscape-font-specification:DejaVuSans;writing-mode:lr-tb;fill:#000000;fill-opacity:1;fill-rule:nonzero;stroke:none;stroke-width:0.75477"
       id="text298"
       x="168.42229"
       y="77.108208"
       transform="scale(0.99998862,1.0000114)"><tspan
         x="168.42229 171.58215 174.89513 179.83643 182.07733"
         y="77.108208"
         sodipodi:role="line"
         id="tspan296"
         style="stroke-width:0.75477">train</tspan></text></g></svg>
