<?xml version="1.0" encoding="UTF-8" standalone="no"?>
<svg
   xmlns:dc="http://purl.org/dc/elements/1.1/"
   xmlns:cc="http://creativecommons.org/ns#"
   xmlns:rdf="http://www.w3.org/1999/02/22-rdf-syntax-ns#"
   xmlns:svg="http://www.w3.org/2000/svg"
   xmlns="http://www.w3.org/2000/svg"
   xmlns:sodipodi="http://sodipodi.sourceforge.net/DTD/sodipodi-0.dtd"
   xmlns:inkscape="http://www.inkscape.org/namespaces/inkscape"
   version="1.1"
   id="svg2"
   xml:space="preserve"
   width="80mm"
   height="59mm"
   viewBox="0 0 302.36221 222.99212"
   sodipodi:docname="lossOverEpochs.svg"
   inkscape:version="1.0.2 (1.0.2+r75+1)"><metadata
     id="metadata8"><rdf:RDF><cc:Work
         rdf:about=""><dc:format>image/svg+xml</dc:format><dc:type
           rdf:resource="http://purl.org/dc/dcmitype/StillImage" /><dc:title /></cc:Work></rdf:RDF></metadata><defs
     id="defs6"><clipPath
       clipPathUnits="userSpaceOnUse"
       id="clipPath22"><path
         d="M 50.105209,41.96 H 377.8 v 256.6 H 50.105209 Z"
         id="path20" /></clipPath><clipPath
       clipPathUnits="userSpaceOnUse"
       id="clipPath40"><path
         d="M 50.105209,41.96 H 377.8 v 256.6 H 50.105209 Z"
         id="path38" /></clipPath><clipPath
       clipPathUnits="userSpaceOnUse"
       id="clipPath58"><path
         d="M 50.105209,41.96 H 377.8 v 256.6 H 50.105209 Z"
         id="path56" /></clipPath><clipPath
       clipPathUnits="userSpaceOnUse"
       id="clipPath76"><path
         d="M 50.105209,41.96 H 377.8 v 256.6 H 50.105209 Z"
         id="path74" /></clipPath><clipPath
       clipPathUnits="userSpaceOnUse"
       id="clipPath98"><path
         d="M 50.105209,41.96 H 377.8 v 256.6 H 50.105209 Z"
         id="path96" /></clipPath><clipPath
       clipPathUnits="userSpaceOnUse"
       id="clipPath122"><path
         d="M 50.105209,41.96 H 377.8 v 256.6 H 50.105209 Z"
         id="path120" /></clipPath><clipPath
       clipPathUnits="userSpaceOnUse"
       id="clipPath146"><path
         d="M 50.105209,41.96 H 377.8 v 256.6 H 50.105209 Z"
         id="path144" /></clipPath><clipPath
       clipPathUnits="userSpaceOnUse"
       id="clipPath160"><path
         d="M 50.105209,41.96 H 377.8 v 256.6 H 50.105209 Z"
         id="path158" /></clipPath><clipPath
       clipPathUnits="userSpaceOnUse"
       id="clipPath174"><path
         d="M 50.105209,41.96 H 377.8 v 256.6 H 50.105209 Z"
         id="path172" /></clipPath><clipPath
       clipPathUnits="userSpaceOnUse"
       id="clipPath188"><path
         d="M 50.105209,41.96 H 377.8 v 256.6 H 50.105209 Z"
         id="path186" /></clipPath><clipPath
       clipPathUnits="userSpaceOnUse"
       id="clipPath202"><path
         d="M 50.105209,41.96 H 377.8 v 256.6 H 50.105209 Z"
         id="path200" /></clipPath><clipPath
       clipPathUnits="userSpaceOnUse"
       id="clipPath216"><path
         d="M 50.105209,41.96 H 377.8 v 256.6 H 50.105209 Z"
         id="path214" /></clipPath><clipPath
       clipPathUnits="userSpaceOnUse"
       id="clipPath230"><path
         d="M 50.105209,41.96 H 377.8 v 256.6 H 50.105209 Z"
         id="path228" /></clipPath><clipPath
       clipPathUnits="userSpaceOnUse"
       id="clipPath244"><path
         d="M 50.105209,41.96 H 377.8 v 256.6 H 50.105209 Z"
         id="path242" /></clipPath><clipPath
       clipPathUnits="userSpaceOnUse"
       id="clipPath258"><path
         d="M 50.105209,41.96 H 377.8 v 256.6 H 50.105209 Z"
         id="path256" /></clipPath><clipPath
       clipPathUnits="userSpaceOnUse"
       id="clipPath272"><path
         d="M 50.105209,41.96 H 377.8 v 256.6 H 50.105209 Z"
         id="path270" /></clipPath><clipPath
       clipPathUnits="userSpaceOnUse"
       id="clipPath290"><path
         d="M 50.105209,41.96 H 377.8 v 256.6 H 50.105209 Z"
         id="path288" /></clipPath><clipPath
       clipPathUnits="userSpaceOnUse"
       id="clipPath300"><path
         d="M 50.105209,41.96 H 377.8 v 256.6 H 50.105209 Z"
         id="path298" /></clipPath><clipPath
       clipPathUnits="userSpaceOnUse"
       id="clipPath382"><path
         d="M 50.105209,41.96 H 377.8 v 256.6 H 50.105209 Z"
         id="path380" /></clipPath><clipPath
       clipPathUnits="userSpaceOnUse"
       id="clipPath392"><path
         d="M 50.105209,41.96 H 377.8 v 256.6 H 50.105209 Z"
         id="path390" /></clipPath><clipPath
       clipPathUnits="userSpaceOnUse"
       id="clipPath402"><path
         d="M 50.105209,41.96 H 377.8 v 256.6 H 50.105209 Z"
         id="path400" /></clipPath><clipPath
       clipPathUnits="userSpaceOnUse"
       id="clipPath412"><path
         d="M 50.105209,41.96 H 377.8 v 256.6 H 50.105209 Z"
         id="path410" /></clipPath></defs><sodipodi:namedview
     pagecolor="#ffffff"
     bordercolor="#666666"
     borderopacity="1"
     objecttolerance="10"
     gridtolerance="10"
     guidetolerance="10"
     inkscape:pageopacity="0"
     inkscape:pageshadow="2"
     inkscape:window-width="1920"
     inkscape:window-height="1020"
     id="namedview4"
     showgrid="false"
     fit-margin-top="0"
     fit-margin-left="0"
     fit-margin-right="0"
     fit-margin-bottom="0"
     units="mm"
     inkscape:zoom="2.8055116"
     inkscape:cx="200.90232"
     inkscape:cy="112.25302"
     inkscape:window-x="0"
     inkscape:window-y="0"
     inkscape:window-maximized="1"
     inkscape:current-layer="g10"
     inkscape:document-rotation="0" /><g
     id="g10"
     inkscape:groupmode="layer"
     inkscape:label="lossOverEpochs"
     transform="matrix(1.3333333,0,0,-1.3333333,-42.93845,418.23624)"><path
       d="m 63.126815,41.96 v 256.6"
       style="fill:none;stroke:#b0b0b0;stroke-width:0.8;stroke-linecap:square;stroke-linejoin:round;stroke-miterlimit:10;stroke-dasharray:none;stroke-opacity:1"
       id="path24"
       transform="matrix(0.58612903,0,0,0.58612903,13.328234,138.12388)" /><path
       d="m 156.80743,41.96 v 256.6"
       style="fill:none;stroke:#b0b0b0;stroke-width:0.8;stroke-linecap:square;stroke-linejoin:round;stroke-miterlimit:10;stroke-dasharray:none;stroke-opacity:1"
       id="path42"
       transform="matrix(0.58612903,0,0,0.58612903,13.328234,138.12388)" /><path
       d="m 250.48804,41.96 v 256.6"
       style="fill:none;stroke:#b0b0b0;stroke-width:0.8;stroke-linecap:square;stroke-linejoin:round;stroke-miterlimit:10;stroke-dasharray:none;stroke-opacity:1"
       id="path60"
       transform="matrix(0.58612903,0,0,0.58612903,13.328234,138.12388)" /><path
       d="m 344.16866,41.96 v 256.6"
       style="fill:none;stroke:#b0b0b0;stroke-width:0.8;stroke-linecap:square;stroke-linejoin:round;stroke-miterlimit:10;stroke-dasharray:none;stroke-opacity:1"
       id="path78"
       transform="matrix(0.58612903,0,0,0.58612903,13.328234,138.12388)" /><path
       d="M 50.105209,70.639953 H 377.8"
       style="fill:none;stroke:#b0b0b0;stroke-width:0.8;stroke-linecap:square;stroke-linejoin:round;stroke-miterlimit:10;stroke-dasharray:none;stroke-opacity:1"
       id="path100"
       transform="matrix(0.58612903,0,0,0.58612903,13.328234,138.12388)" /><path
       d="M 50.105209,257.10082 H 377.8"
       style="fill:none;stroke:#b0b0b0;stroke-width:0.8;stroke-linecap:square;stroke-linejoin:round;stroke-miterlimit:10;stroke-dasharray:none;stroke-opacity:1"
       id="path124"
       transform="matrix(0.58612903,0,0,0.58612903,13.328234,138.12388)" /><path
       d="M 50.105209,52.570028 H 377.8"
       style="fill:none;stroke:#b0b0b0;stroke-width:0.8;stroke-linecap:square;stroke-linejoin:round;stroke-miterlimit:10;stroke-dasharray:none;stroke-opacity:1"
       id="path148"
       transform="matrix(0.58612903,0,0,0.58612903,13.328234,138.12388)" /><path
       d="M 50.105209,62.107972 H 377.8"
       style="fill:none;stroke:#b0b0b0;stroke-width:0.8;stroke-linecap:square;stroke-linejoin:round;stroke-miterlimit:10;stroke-dasharray:none;stroke-opacity:1"
       id="path162"
       transform="matrix(0.58612903,0,0,0.58612903,13.328234,138.12388)" /><path
       d="M 50.105209,126.77027 H 377.8"
       style="fill:none;stroke:#b0b0b0;stroke-width:0.8;stroke-linecap:square;stroke-linejoin:round;stroke-miterlimit:10;stroke-dasharray:none;stroke-opacity:1"
       id="path176"
       transform="matrix(0.58612903,0,0,0.58612903,13.328234,138.12388)" /><path
       d="M 50.105209,159.60439 H 377.8"
       style="fill:none;stroke:#b0b0b0;stroke-width:0.8;stroke-linecap:square;stroke-linejoin:round;stroke-miterlimit:10;stroke-dasharray:none;stroke-opacity:1"
       id="path190"
       transform="matrix(0.58612903,0,0,0.58612903,13.328234,138.12388)" /><path
       d="M 50.105209,182.90058 H 377.8"
       style="fill:none;stroke:#b0b0b0;stroke-width:0.8;stroke-linecap:square;stroke-linejoin:round;stroke-miterlimit:10;stroke-dasharray:none;stroke-opacity:1"
       id="path204"
       transform="matrix(0.58612903,0,0,0.58612903,13.328234,138.12388)" /><path
       d="M 42.696352,255.91852 H 234.76778"
       style="fill:none;stroke:#b0b0b0;stroke-width:0.468903;stroke-linecap:square;stroke-linejoin:round;stroke-miterlimit:10;stroke-dasharray:none;stroke-opacity:1"
       id="path218" /><path
       d="M 50.105209,215.73471 H 377.8"
       style="fill:none;stroke:#b0b0b0;stroke-width:0.8;stroke-linecap:square;stroke-linejoin:round;stroke-miterlimit:10;stroke-dasharray:none;stroke-opacity:1"
       id="path232"
       transform="matrix(0.58612903,0,0,0.58612903,13.328234,138.12388)" /><path
       d="M 50.105209,228.21766 H 377.8"
       style="fill:none;stroke:#b0b0b0;stroke-width:0.8;stroke-linecap:square;stroke-linejoin:round;stroke-miterlimit:10;stroke-dasharray:none;stroke-opacity:1"
       id="path246"
       transform="matrix(0.58612903,0,0,0.58612903,13.328234,138.12388)" /><path
       d="M 50.105209,239.03089 H 377.8"
       style="fill:none;stroke:#b0b0b0;stroke-width:0.8;stroke-linecap:square;stroke-linejoin:round;stroke-miterlimit:10;stroke-dasharray:none;stroke-opacity:1"
       id="path260"
       transform="matrix(0.58612903,0,0,0.58612903,13.328234,138.12388)" /><path
       d="M 50.105209,248.56884 H 377.8"
       style="fill:none;stroke:#b0b0b0;stroke-width:0.8;stroke-linecap:square;stroke-linejoin:round;stroke-miterlimit:10;stroke-dasharray:none;stroke-opacity:1"
       id="path274"
       transform="matrix(0.58612903,0,0,0.58612903,13.328234,138.12388)" /><g
       id="g408"
       clip-path="url(#clipPath412)"
       transform="matrix(0.58612903,0,0,0.58612903,13.328234,138.12388)"><path
         d="m 65.000427,53.623636 1.873612,128.742234 1.873613,35.05958 1.873612,13.09863 5.620837,-23.12026 1.873612,1.80207 1.873612,21.25887 1.873613,-24.70441 1.873612,19.696 1.873612,-3.99478 1.873613,5.44149 1.873612,-7.4531 1.873612,5.84917 1.873612,-1.11414 1.873613,-16.76936 1.873612,-3.98874 1.873612,21.65955 1.873612,-5.2012 1.87361,-9.14902 1.87362,4.25361 1.87361,-6.81364 1.87361,9.87361 1.87361,-2.67715 1.87361,-0.8288 1.87362,-6.55344 1.87361,6.9758 1.87361,-4.7261 1.87361,9.27974 1.87362,-9.79946 1.87361,-2.48697 1.87361,4.34767 1.87361,-3.37126 1.87361,6.37974 1.87362,-1.54667 1.87361,-0.37486 1.87361,1.66984 1.87361,0.37651 1.87362,-4.21655 1.87361,11.19606 1.87361,-5.83022 1.87361,-7.07961 1.87362,8.13869 1.87361,-4.36649 1.87361,-1.00525 1.87361,-2.14274 1.87361,8.31692 1.87362,-4.42333 1.87361,-0.99084 1.87361,2.98047 1.87361,1.42227 1.87362,-2.46858 1.87361,1.40634 1.87361,-1.32628 1.87361,-2.70159 1.87362,3.59452 1.87361,-1.00594 1.87361,3.15403 1.87361,-0.63575 1.87361,1.16659 1.87362,3.54949 1.87361,-6.77286 1.87361,3.53315 1.87361,0.14102 1.87362,-0.46741 3.74722,2.01394 1.87361,-3.85693 1.87361,6.45238 1.87362,-3.60537 1.87361,2.29075 1.87361,1.19928 1.87361,-1.91027 1.87362,1.58264 1.87361,2.52254 1.87361,-1.17799 1.87361,1.62123 1.87362,-2.3141 1.87361,1.75277 3.74722,2.1702 1.87361,2.10237 1.87362,-1.43765 1.87361,1.02283 1.87361,1.2288 1.87361,0.18619 1.87362,0.34479 1.87361,-0.91765 1.87361,0.3143 1.87361,1.09396 1.87362,1.6697 1.87361,-0.68079 1.87361,1.24623 1.87361,-2.26205 1.87361,2.47585 1.87362,-0.57575 1.87361,0.54389 1.87361,0.82414 1.87361,0.28973 1.87362,-0.71114 1.87361,1.05084 1.87361,0.76318 1.87361,-0.92136 1.87362,-1.31557 1.87361,3.67759 3.74722,-2.8492 1.87361,2.14123 1.87362,-0.0217 1.87361,1.12444 1.87361,0.30401 1.87361,-1.42117 1.87362,0.0329 1.87361,-0.72198 1.87361,0.22835 1.87361,1.38464 1.87362,2.06736 1.87361,-2.50098 1.87361,-0.81659 1.87361,3.19577 1.87361,-2.87803 1.87362,0.67337 1.87361,1.05867 1.87361,0.54128 1.87361,1.19995 1.87362,-2.10689 1.87361,1.41375 1.87361,0.34149 1.87361,-1.8044 1.87362,0.0158 1.87361,1.24321 1.87361,-0.55199 1.87361,1.15698 1.87362,-1.19364 1.87361,-0.4155 1.87361,1.74522 1.87361,1.16179 1.87361,-1.14875 1.87362,0.0423 1.87361,1.24527 1.87361,-0.25485 1.87361,-0.43459 1.87361,0.35248 1.87362,1.23126 1.87361,-0.79681 1.87361,0.0104 1.87361,2.06475 1.87362,-2.98157 1.87361,1.53925 1.87361,1.79026 1.87361,-0.28588 1.87362,1.28427 1.87361,-1.57592 1.87361,1.10371 1.87361,-2.02891 1.87361,-0.80478 1.87362,3.10268 1.87361,-0.23137 1.87361,-1.51193 v 0"
         style="fill:none;stroke:#d62728;stroke-width:1.5;stroke-linecap:butt;stroke-linejoin:round;stroke-miterlimit:10;stroke-dasharray:1.5, 2.475;stroke-dashoffset:0;stroke-opacity:1"
         id="path414" /></g><g
       id="g16"
       transform="matrix(0.58612903,0,0,0.58612903,13.328234,138.12388)"><g
         id="g18"
         clip-path="url(#clipPath22)" /></g><path
       d="M 50.328693,162.71785 V 160.6664"
       style="fill:#000000;fill-opacity:1;fill-rule:nonzero;stroke:#000000;stroke-width:0.468903;stroke-linecap:butt;stroke-linejoin:round;stroke-miterlimit:10;stroke-dasharray:none;stroke-opacity:1"
       id="path28" /><g
       id="g34"
       transform="matrix(0.58612903,0,0,0.58612903,13.328234,138.12388)"><g
         id="g36"
         clip-path="url(#clipPath40)" /></g><path
       d="M 105.23762,162.71785 V 160.6664"
       style="fill:#000000;fill-opacity:1;fill-rule:nonzero;stroke:#000000;stroke-width:0.468903;stroke-linecap:butt;stroke-linejoin:round;stroke-miterlimit:10;stroke-dasharray:none;stroke-opacity:1"
       id="path46" /><g
       id="g52"
       transform="matrix(0.58612903,0,0,0.58612903,13.328234,138.12388)"><g
         id="g54"
         clip-path="url(#clipPath58)" /></g><path
       d="M 160.14655,162.71785 V 160.6664"
       style="fill:#000000;fill-opacity:1;fill-rule:nonzero;stroke:#000000;stroke-width:0.468903;stroke-linecap:butt;stroke-linejoin:round;stroke-miterlimit:10;stroke-dasharray:none;stroke-opacity:1"
       id="path64" /><g
       id="g70"
       transform="matrix(0.58612903,0,0,0.58612903,13.328234,138.12388)"><g
         id="g72"
         clip-path="url(#clipPath76)" /></g><path
       d="M 215.05547,162.71785 V 160.6664"
       style="fill:#000000;fill-opacity:1;fill-rule:nonzero;stroke:#000000;stroke-width:0.468903;stroke-linecap:butt;stroke-linejoin:round;stroke-miterlimit:10;stroke-dasharray:none;stroke-opacity:1"
       id="path82" /><g
       id="g92"
       transform="matrix(0.58612903,0,0,0.58612903,13.328234,138.12388)"><g
         id="g94"
         clip-path="url(#clipPath98)" /></g><path
       d="M 42.696351,179.528 H 40.6449"
       style="fill:#000000;fill-opacity:1;fill-rule:nonzero;stroke:#000000;stroke-width:0.468903;stroke-linecap:butt;stroke-linejoin:round;stroke-miterlimit:10;stroke-dasharray:none;stroke-opacity:1"
       id="path104" /><g
       id="g106"
       transform="translate(25.105209,66.179016)" /><g
       id="g116"
       transform="matrix(0.58612903,0,0,0.58612903,13.328234,138.12388)"><g
         id="g118"
         clip-path="url(#clipPath122)" /></g><path
       d="M 42.696351,288.81813 H 40.6449"
       style="fill:#000000;fill-opacity:1;fill-rule:nonzero;stroke:#000000;stroke-width:0.468903;stroke-linecap:butt;stroke-linejoin:round;stroke-miterlimit:10;stroke-dasharray:none;stroke-opacity:1"
       id="path128" /><g
       id="g130"
       transform="translate(25.105209,253.13988)" /><g
       id="g140"
       transform="matrix(0.58612903,0,0,0.58612903,13.328234,138.12388)"><g
         id="g142"
         clip-path="url(#clipPath146)" /></g><path
       d="M 42.696351,168.93669 H 41.524094"
       style="fill:#000000;fill-opacity:1;fill-rule:nonzero;stroke:#000000;stroke-width:0.351678;stroke-linecap:butt;stroke-linejoin:round;stroke-miterlimit:10;stroke-dasharray:none;stroke-opacity:1"
       id="path152" /><g
       id="g154"
       transform="matrix(0.58612903,0,0,0.58612903,13.328234,138.12388)"><g
         id="g156"
         clip-path="url(#clipPath160)" /></g><path
       d="M 42.696351,174.52716 H 41.524094"
       style="fill:#000000;fill-opacity:1;fill-rule:nonzero;stroke:#000000;stroke-width:0.351678;stroke-linecap:butt;stroke-linejoin:round;stroke-miterlimit:10;stroke-dasharray:none;stroke-opacity:1"
       id="path166" /><g
       id="g168"
       transform="matrix(0.58612903,0,0,0.58612903,13.328234,138.12388)"><g
         id="g170"
         clip-path="url(#clipPath174)" /></g><path
       d="M 42.696351,212.42761 H 41.524094"
       style="fill:#000000;fill-opacity:1;fill-rule:nonzero;stroke:#000000;stroke-width:0.351678;stroke-linecap:butt;stroke-linejoin:round;stroke-miterlimit:10;stroke-dasharray:none;stroke-opacity:1"
       id="path180" /><g
       id="g182"
       transform="matrix(0.58612903,0,0,0.58612903,13.328234,138.12388)"><g
         id="g184"
         clip-path="url(#clipPath188)" /></g><path
       d="M 42.696351,231.67264 H 41.524094"
       style="fill:#000000;fill-opacity:1;fill-rule:nonzero;stroke:#000000;stroke-width:0.351678;stroke-linecap:butt;stroke-linejoin:round;stroke-miterlimit:10;stroke-dasharray:none;stroke-opacity:1"
       id="path194" /><g
       id="g196"
       transform="matrix(0.58612903,0,0,0.58612903,13.328234,138.12388)"><g
         id="g198"
         clip-path="url(#clipPath202)" /></g><path
       d="M 42.696351,245.32722 H 41.524094"
       style="fill:#000000;fill-opacity:1;fill-rule:nonzero;stroke:#000000;stroke-width:0.351678;stroke-linecap:butt;stroke-linejoin:round;stroke-miterlimit:10;stroke-dasharray:none;stroke-opacity:1"
       id="path208" /><path
       d="M 42.696351,255.91852 H 41.524094"
       style="fill:#000000;fill-opacity:1;fill-rule:nonzero;stroke:#000000;stroke-width:0.351678;stroke-linecap:butt;stroke-linejoin:round;stroke-miterlimit:10;stroke-dasharray:none;stroke-opacity:1"
       id="path222" /><g
       id="g224"
       transform="matrix(0.58612903,0,0,0.58612903,13.328234,138.12388)"><g
         id="g226"
         clip-path="url(#clipPath230)" /></g><path
       d="M 42.696351,264.57225 H 41.524094"
       style="fill:#000000;fill-opacity:1;fill-rule:nonzero;stroke:#000000;stroke-width:0.351678;stroke-linecap:butt;stroke-linejoin:round;stroke-miterlimit:10;stroke-dasharray:none;stroke-opacity:1"
       id="path236" /><g
       id="g238"
       transform="matrix(0.58612903,0,0,0.58612903,13.328234,138.12388)"><g
         id="g240"
         clip-path="url(#clipPath244)" /></g><path
       d="M 42.696351,271.88887 H 41.524094"
       style="fill:#000000;fill-opacity:1;fill-rule:nonzero;stroke:#000000;stroke-width:0.351678;stroke-linecap:butt;stroke-linejoin:round;stroke-miterlimit:10;stroke-dasharray:none;stroke-opacity:1"
       id="path250" /><g
       id="g252"
       transform="matrix(0.58612903,0,0,0.58612903,13.328234,138.12388)"><g
         id="g254"
         clip-path="url(#clipPath258)" /></g><path
       d="M 42.696351,278.22682 H 41.524094"
       style="fill:#000000;fill-opacity:1;fill-rule:nonzero;stroke:#000000;stroke-width:0.351678;stroke-linecap:butt;stroke-linejoin:round;stroke-miterlimit:10;stroke-dasharray:none;stroke-opacity:1"
       id="path264" /><g
       id="g266"
       transform="matrix(0.58612903,0,0,0.58612903,13.328234,138.12388)"><g
         id="g268"
         clip-path="url(#clipPath272)" /></g><path
       d="M 42.696351,283.81729 H 41.524094"
       style="fill:#000000;fill-opacity:1;fill-rule:nonzero;stroke:#000000;stroke-width:0.351678;stroke-linecap:butt;stroke-linejoin:round;stroke-miterlimit:10;stroke-dasharray:none;stroke-opacity:1"
       id="path278" /><g
       id="g286"
       clip-path="url(#clipPath290)"
       transform="matrix(0.58612903,0,0,0.58612903,13.328234,138.12388)"><path
         d="m 65.000427,286.89636 1.873612,-170.49947 1.873613,-22.902264 1.873612,-7.310846 1.873612,-3.079691 1.873612,-2.011902 1.873613,-1.164413 5.620837,-1.753195 1.873612,-0.245739 1.873612,-0.589027 1.873613,-0.193993 1.873612,-0.477039 1.873612,-0.251787 1.873612,-0.391073 3.747225,-0.612012 3.747224,-0.715663 1.87361,-0.529845 1.87362,-0.169997 7.49444,-1.111462 5.62084,-0.585741 1.87361,-0.107394 3.74723,-0.42616 3.74722,-0.31152 3.74723,-0.363268 5.62083,-0.435956 14.9889,-1.700267 1.87361,-0.342393 14.9889,-1.486765 9.36806,-1.336579 43.09309,-5.235396 14.9889,-1.514969 13.11528,-1.048856 9.36806,-0.642615 28.10419,-1.462091 35.59863,-1.205026 41.21947,-1.05831 v 0"
         style="fill:none;stroke:#1f77b4;stroke-width:1.5;stroke-linecap:square;stroke-linejoin:round;stroke-miterlimit:10;stroke-dasharray:none;stroke-opacity:1"
         id="path292" /></g><g
       id="g296"
       clip-path="url(#clipPath300)"
       transform="matrix(0.58612903,0,0,0.58612903,13.328234,138.12388)"><path
         d="m 65.000427,143.62213 1.873612,-37.01918 1.873613,-4.31523 1.873612,-3.340323 1.873612,0.619143 1.873612,0.373809 1.873613,-1.994738 1.873612,0.123966 3.747225,-2.124923 1.873612,1.639588 1.873612,-1.412198 1.873613,0.925224 1.873612,0.661213 3.747224,-0.126733 1.873613,0.09771 1.873612,-1.264485 1.873612,-1.029134 1.873612,0.63522 1.87361,-0.376482 1.87362,0.05331 1.87361,-0.338047 1.87361,0.766337 1.87361,-0.812647 1.87361,-0.216949 1.87362,0.957652 1.87361,-0.604188 1.87361,-0.478132 1.87361,0.284325 1.87362,0.588749 1.87361,1.174159 1.87361,-2.078464 1.87361,0.976781 1.87361,-0.895217 1.87362,1.760627 1.87361,0.700017 1.87361,-0.278018 1.87361,-1.428598 1.87362,0.236918 3.74722,-0.721163 1.87361,1.618699 1.87362,-0.630719 1.87361,0.667579 1.87361,-0.316992 1.87361,-1.500506 1.87361,0.437146 1.87362,0.655929 1.87361,0.02766 1.87361,-1.158275 1.87361,-0.02919 1.87362,0.298779 1.87361,0.813605 1.87361,0.562656 1.87361,-0.74537 1.87362,-0.285122 1.87361,-1.089064 1.87361,1.071499 1.87361,-1.521347 1.87361,1.131703 1.87362,-1.403647 1.87361,1.605417 1.87361,-0.659806 3.74723,0.667655 1.87361,-0.386941 1.87361,0.598575 1.87361,-0.834461 1.87361,0.623288 1.87362,-0.02187 1.87361,-1.366907 1.87361,0.117628 1.87361,0.680095 1.87362,0.173766 1.87361,-1.262201 1.87361,1.550756 1.87361,0.264403 1.87362,-0.68246 1.87361,0.319956 1.87361,-1.062519 1.87361,0.31341 1.87361,-0.309992 1.87362,-4.33e-4 1.87361,0.533266 1.87361,-0.630781 1.87361,-0.758424 1.87362,2.199578 1.87361,-0.34574 1.87361,-0.537789 1.87361,-0.323993 1.87362,-0.739281 1.87361,1.747045 1.87361,-1.104964 1.87361,0.877256 3.74723,-1.373169 1.87361,0.02021 1.87361,0.46721 1.87361,-0.255725 1.87362,0.294059 1.87361,0.516961 1.87361,-0.244562 1.87361,-0.454687 1.87362,0.675051 1.87361,-0.09789 1.87361,-0.362675 1.87361,0.752225 1.87361,-0.762847 1.87362,-1.156081 1.87361,1.275551 1.87361,-0.177357 1.87361,0.291452 1.87362,-1.458098 1.87361,1.355487 3.74722,-1.442373 1.87362,2.150346 3.74722,-1.44865 1.87361,0.636265 1.87361,0.377331 1.87362,-0.25322 1.87361,0.318526 1.87361,-0.123651 1.87361,-0.954351 1.87362,0.973983 1.87361,-0.625955 3.74722,0.983751 3.74723,-1.020579 1.87361,0.143833 1.87361,0.722114 1.87362,-1.013866 1.87361,0.207539 1.87361,0.761532 1.87361,0.460358 1.87361,-1.610664 1.87362,0.09409 1.87361,0.702132 1.87361,-0.38962 1.87361,0.654523 1.87361,-0.54773 1.87362,0.550968 3.74722,-0.501495 1.87361,0.01875 3.74723,-0.289487 1.87361,0.239304 1.87361,-0.4419 1.87362,0.27983 1.87361,0.547604 1.87361,-0.207627 1.87361,0.766691 1.87361,-0.818112 1.87362,0.08017 1.87361,-0.420909 1.87361,0.01861 v 0"
         style="fill:none;stroke:#ff7f0e;stroke-width:1.5;stroke-linecap:square;stroke-linejoin:round;stroke-miterlimit:10;stroke-dasharray:none;stroke-opacity:1"
         id="path302" /></g><path
       d="m 42.696351,162.71785 v 150.4007"
       style="fill:none;stroke:#000000;stroke-width:0.468903;stroke-linecap:square;stroke-linejoin:miter;stroke-miterlimit:10;stroke-dasharray:none;stroke-opacity:1"
       id="path306" /><path
       d="m 234.76778,162.71785 v 150.4007"
       style="fill:none;stroke:#000000;stroke-width:0.468903;stroke-linecap:square;stroke-linejoin:miter;stroke-miterlimit:10;stroke-dasharray:none;stroke-opacity:1"
       id="path308" /><path
       d="M 42.696351,162.71785 H 234.76778"
       style="fill:none;stroke:#000000;stroke-width:0.468903;stroke-linecap:square;stroke-linejoin:miter;stroke-miterlimit:10;stroke-dasharray:none;stroke-opacity:1"
       id="path310" /><path
       d="M 42.696351,313.11855 H 234.76778"
       style="fill:none;stroke:#000000;stroke-width:0.468903;stroke-linecap:square;stroke-linejoin:miter;stroke-miterlimit:10;stroke-dasharray:none;stroke-opacity:1"
       id="path312" /><path
       d="m 62.362063,201.28172 h 47.622987 c 0.7815,0 1.17225,0.39076 1.17225,1.17226 v 25.21271 c 0,0.7815 -0.39075,1.17226 -1.17225,1.17226 H 62.362063 c -0.7815,0 -1.17226,-0.39076 -1.17226,-1.17226 v -25.21271 c 0,-0.7815 0.39076,-1.17226 1.17226,-1.17226 z"
       style="fill:#ffffff;fill-opacity:0.8;fill-rule:nonzero;stroke:#cccccc;stroke-width:0.586129;stroke-linecap:butt;stroke-linejoin:miter;stroke-miterlimit:10;stroke-dasharray:none;stroke-opacity:0.8"
       id="path318" /><path
       d="m 63.534323,215.49536 h 11.72258"
       style="fill:none;stroke:#1f77b4;stroke-width:0.879194;stroke-linecap:square;stroke-linejoin:round;stroke-miterlimit:10;stroke-dasharray:none;stroke-opacity:1"
       id="path324" /><path
       d="m 63.534323,206.89574 h 11.72258"
       style="fill:none;stroke:#ff7f0e;stroke-width:0.879194;stroke-linecap:square;stroke-linejoin:round;stroke-miterlimit:10;stroke-dasharray:none;stroke-opacity:1"
       id="path330" /><path
       d="m 234.76778,164.85319 h 2.05145"
       style="fill:#000000;fill-opacity:1;fill-rule:nonzero;stroke:#000000;stroke-width:0.468903;stroke-linecap:butt;stroke-linejoin:round;stroke-miterlimit:10;stroke-dasharray:none;stroke-opacity:1"
       id="path336" /><path
       d="m 234.76778,191.85842 h 2.05145"
       style="fill:#000000;fill-opacity:1;fill-rule:nonzero;stroke:#000000;stroke-width:0.468903;stroke-linecap:butt;stroke-linejoin:round;stroke-miterlimit:10;stroke-dasharray:none;stroke-opacity:1"
       id="path342" /><path
       d="m 234.76778,218.86366 h 2.05145"
       style="fill:#000000;fill-opacity:1;fill-rule:nonzero;stroke:#000000;stroke-width:0.468903;stroke-linecap:butt;stroke-linejoin:round;stroke-miterlimit:10;stroke-dasharray:none;stroke-opacity:1"
       id="path348" /><path
       d="m 234.76778,245.86889 h 2.05145"
       style="fill:#000000;fill-opacity:1;fill-rule:nonzero;stroke:#000000;stroke-width:0.468903;stroke-linecap:butt;stroke-linejoin:round;stroke-miterlimit:10;stroke-dasharray:none;stroke-opacity:1"
       id="path354" /><path
       d="m 234.76778,272.87413 h 2.05145"
       style="fill:#000000;fill-opacity:1;fill-rule:nonzero;stroke:#000000;stroke-width:0.468903;stroke-linecap:butt;stroke-linejoin:round;stroke-miterlimit:10;stroke-dasharray:none;stroke-opacity:1"
       id="path360" /><path
       d="m 234.76778,299.87936 h 2.05145"
       style="fill:#000000;fill-opacity:1;fill-rule:nonzero;stroke:#000000;stroke-width:0.468903;stroke-linecap:butt;stroke-linejoin:round;stroke-miterlimit:10;stroke-dasharray:none;stroke-opacity:1"
       id="path366" /><g
       id="g378"
       clip-path="url(#clipPath382)"
       transform="matrix(0.58612903,0,0,0.58612903,13.328234,138.12388)"><path
         d="m 65.000427,174.09255 1.873612,29.61678 1.873613,75.27937 1.873612,-4.48416 1.873612,-8.94978 1.873612,-4.55886 1.873613,-3.24857 1.873612,0.82771 1.873612,-0.51244 1.873613,-4.48279 1.873612,4.31925 1.873612,-6.47215 1.873613,1.08936 1.873612,-1.62233 1.873612,4.8e-4 1.873612,3.19543 1.873613,-2.85105 1.873612,-0.51979 1.873612,1.29333 1.873612,2.37005 1.87361,-5.2106 1.87362,3.35917 1.87361,-1.46936 1.87361,-0.23467 1.87361,-0.68882 3.74723,-2.17946 1.87361,0.0693 1.87361,-0.34197 1.87361,1.57028 1.87362,-2.54526 1.87361,-0.2556 1.87361,1.62376 1.87361,-0.19175 1.87361,-1.95503 1.87362,0.83375 1.87361,-0.40493 1.87361,0.35207 1.87361,0.23226 1.87362,-1.12101 1.87361,1.54949 1.87361,-0.0406 1.87361,0.7686 1.87362,0.64268 1.87361,1.15595 1.87361,-0.48862 1.87361,1.45769 1.87361,-2.27606 1.87362,0.92753 1.87361,0.52652 1.87361,-0.95444 1.87361,0.91298 1.87362,-1.37648 1.87361,1.24665 1.87361,-1.25063 1.87361,0.32762 3.74723,3.15458 1.87361,-0.6041 1.87361,0.85895 1.87361,-0.76468 3.74723,0.52604 1.87361,0.10394 3.74723,-0.18358 1.87361,0.51107 1.87361,-0.3095 3.74722,0.65731 1.87362,-0.11322 1.87361,0.31108 3.74722,0.17741 3.74723,0.66891 1.87361,-0.0463 1.87361,0.39251 1.87362,-0.07 3.74722,0.42449 1.87361,-0.0222 1.87361,0.26583 3.74723,0.19574 1.87361,0.13704 1.87361,0.35234 1.87362,-0.0595 1.87361,0.51423 3.74722,0.13168 1.87362,0.29844 5.62083,0.5371 1.87361,0.29748 3.74723,-0.1794 9.36806,0.13388 1.87361,0.17363 1.87362,-0.061 1.87361,0.15632 3.74722,0.1137 1.87361,0.15179 1.87362,-0.0624 1.87361,0.16566 5.62084,-0.17624 5.62083,-0.10964 1.87362,0.26206 1.87361,-0.15963 11.24167,-0.11472 1.87361,0.0642 5.62084,-0.28032 1.87361,0.064 3.74723,-0.16477 1.87361,0.11918 3.74723,-0.10607 1.87361,0.0892 1.87361,-0.0406 1.87361,0.23652 1.87361,0.43775 1.87362,-0.29042 5.62083,0.0526 1.87361,-0.0571 1.87362,0.30476 1.87361,-0.007 1.87361,-0.1507 3.74723,-0.045 3.74722,-0.18001 1.87361,0.26631 5.62084,-0.23611 3.74722,-0.009 1.87362,0.61357 3.74722,-0.48299 v 0"
         style="fill:none;stroke:#1f77b4;stroke-width:1.5;stroke-linecap:butt;stroke-linejoin:round;stroke-miterlimit:10;stroke-dasharray:1.5, 2.475;stroke-dashoffset:0;stroke-opacity:1"
         id="path384" /></g><g
       id="g388"
       clip-path="url(#clipPath392)"
       transform="matrix(0.58612903,0,0,0.58612903,13.328234,138.12388)"><path
         d="m 65.000427,167.23696 1.873612,50.44458 1.873613,69.21482 1.873612,-5.99114 1.873612,-10.19067 1.873612,-5.61532 1.873613,-4.33367 1.873612,0.3912 1.873612,-1.32189 1.873613,-5.93073 1.873612,4.97134 1.873612,-7.13234 1.873613,1.71117 1.873612,-2.92143 1.873612,0.31856 1.873612,3.63737 1.873613,-2.93296 1.873612,0.0143 1.873612,0.58 1.873612,2.13559 1.87361,-4.63849 1.87362,3.32512 1.87361,-2.17281 1.87361,0.0551 1.87361,-0.96955 1.87361,-0.48718 1.87362,-1.37023 1.87361,-0.002 1.87361,-0.251 1.87361,0.51587 1.87362,-1.03971 1.87361,-0.60211 1.87361,1.23168 1.87361,-0.25211 1.87361,-1.48076 1.87362,0.20707 1.87361,-0.0595 1.87361,0.26172 1.87361,0.0405 1.87362,-0.48182 1.87361,0.91888 1.87361,0.10312 1.87361,0.90227 1.87362,0.71072 1.87361,0.49954 1.87361,0.1704 1.87361,0.99345 1.87361,-1.40455 1.87362,0.2477 1.87361,0.38942 1.87361,-0.29742 1.87361,0.49034 1.87362,-1.06086 1.87361,0.85915 1.87361,-0.73516 1.87361,0.11438 1.87362,1.34359 1.87361,1.83406 1.87361,-0.75906 1.87361,0.96365 1.87361,-0.73077 5.62084,0.4751 3.74723,-0.12221 1.87361,0.54155 1.87361,-0.28039 1.87361,0.43459 1.87361,0.0174 3.74723,0.36278 3.74722,0.19869 1.87362,0.23617 1.87361,0.46397 1.87361,-0.2889 1.87361,0.61515 3.74723,0.0643 1.87361,0.37376 1.87361,-0.077 7.49445,0.52096 1.87361,0.43706 1.87362,-0.2223 1.87361,0.54883 1.87361,0.25663 1.87361,-0.0762 1.87362,0.37157 1.87361,-0.0345 1.87361,0.43088 1.87361,0.22725 1.87361,0.0637 1.87362,0.18592 1.87361,-0.21159 1.87361,-0.0163 1.87361,0.13031 1.87362,-0.1667 3.74722,0.16271 1.87361,0.18881 3.74723,0.0865 3.74722,0.13155 1.87361,0.0277 1.87362,0.20542 7.49445,-0.043 1.87361,-0.18221 1.87361,0.0975 1.87361,-0.0854 1.87362,0.17301 5.62083,-0.19525 9.36806,-0.018 5.62084,-0.31403 1.87361,0.11575 3.74723,-0.13648 5.62084,0.029 1.87361,0.17672 1.87361,-0.37445 3.74722,0.93193 1.87362,-0.39916 1.87361,0.1601 5.62083,-0.0769 1.87362,0.19443 3.74722,0.0442 7.49445,-0.32734 1.87361,0.2775 1.87362,-0.1012 1.87361,-0.21667 3.74722,0.0707 1.87361,-0.0658 1.87362,0.57739 3.74722,-0.39847 v 0"
         style="fill:none;stroke:#ff7f0e;stroke-width:1.5;stroke-linecap:butt;stroke-linejoin:round;stroke-miterlimit:10;stroke-dasharray:1.5, 2.475;stroke-dashoffset:0;stroke-opacity:1"
         id="path394" /></g><g
       id="g398"
       clip-path="url(#clipPath402)"
       transform="matrix(0.58612903,0,0,0.58612903,13.328234,138.12388)"><path
         d="m 65.000427,180.94814 1.873612,8.78899 1.873613,81.34391 1.873612,-2.97718 1.873612,-7.7089 1.873612,-3.50239 1.873613,-2.16347 1.873612,1.26422 1.873612,0.297 1.873613,-3.03484 1.873612,3.66716 1.873612,-5.81195 1.873613,0.46754 3.747224,-0.64083 1.873612,2.75349 1.873613,-2.76914 1.873612,-1.05387 1.873612,2.00667 1.873612,2.60451 1.87361,-5.78271 1.87362,3.39322 1.87361,-0.76592 1.87361,-0.52439 1.87361,-0.40808 1.87361,-1.7731 1.87362,-0.72843 1.87361,0.14102 1.87361,-0.43295 1.87361,2.6247 1.87362,-4.05081 1.87361,0.0909 1.87361,2.01586 1.87361,-0.1314 1.87361,-2.42931 1.87362,1.46044 1.87361,-0.7504 3.74722,0.86643 1.87362,-1.76019 1.87361,2.18009 1.87361,-0.18441 3.74723,1.20957 1.87361,1.81237 1.87361,-1.14765 1.87361,1.92194 1.87361,-3.14758 1.87362,1.60737 1.87361,0.66362 1.87361,-1.61148 1.87361,1.33562 1.87362,-1.69208 1.87361,1.63414 1.87361,-1.7661 1.87361,0.54087 1.87362,1.72806 1.87361,1.40345 1.87361,-0.44914 1.87361,0.75425 1.87361,-0.7986 3.74723,0.62888 1.87361,0.15599 3.74723,-0.24497 1.87361,0.48059 1.87361,-0.33861 1.87361,0.28108 1.87361,0.58151 1.87362,-0.4442 1.87361,0.47715 1.87361,-0.0118 1.87361,0.16793 3.74723,0.63767 3.74722,0.36607 1.87362,-0.12001 1.87361,0.3592 3.74722,0.0644 1.87361,0.41633 1.87362,-0.0629 7.49445,0.69383 1.87361,0.47963 1.87361,-0.1877 5.62084,0.86725 3.74722,0.0792 1.87361,0.53126 1.87362,-0.38571 5.62083,0.10491 3.74723,0.0575 5.62084,0.0669 1.87361,0.24373 1.87361,-0.0306 1.87361,0.12647 1.87361,0.27586 1.87362,-0.33024 1.87361,0.34712 3.74722,-0.17191 1.87362,-0.15337 1.87361,0.17218 1.87361,0.0242 1.87361,-0.24551 1.87362,0.3511 1.87361,-0.22876 1.87361,-0.0621 1.87361,0.12797 18.73613,-0.35481 1.87361,-0.11685 1.87361,0.244 1.87361,-0.22382 3.74723,-0.0213 1.87361,0.29316 1.87361,0.0169 1.87361,0.39971 3.74723,-0.2591 3.74722,0.0917 1.87361,-0.10656 1.87362,0.4151 1.87361,-0.0877 1.87361,-0.2727 1.87361,0.16189 1.87362,-0.12261 1.87361,0.0181 1.87361,-0.18001 1.87361,0.25512 1.87362,-0.0876 1.87361,0.0728 1.87361,-0.19018 3.74722,0.0273 1.87362,0.64975 1.87361,-0.37417 1.87361,-0.19333 v 0"
         style="fill:none;stroke:#2ca02c;stroke-width:1.5;stroke-linecap:butt;stroke-linejoin:round;stroke-miterlimit:10;stroke-dasharray:1.5, 2.475;stroke-dashoffset:0;stroke-opacity:1"
         id="path404" /></g><path
       d="m 42.696351,162.71785 v 150.4007"
       style="fill:none;stroke:#000000;stroke-width:0.468903;stroke-linecap:square;stroke-linejoin:miter;stroke-miterlimit:10;stroke-dasharray:none;stroke-opacity:1"
       id="path418" /><path
       d="m 234.76778,162.71785 v 150.4007"
       style="fill:none;stroke:#000000;stroke-width:0.468903;stroke-linecap:square;stroke-linejoin:miter;stroke-miterlimit:10;stroke-dasharray:none;stroke-opacity:1"
       id="path420" /><path
       d="M 42.696351,162.71785 H 234.76778"
       style="fill:none;stroke:#000000;stroke-width:0.468903;stroke-linecap:square;stroke-linejoin:miter;stroke-miterlimit:10;stroke-dasharray:none;stroke-opacity:1"
       id="path422" /><path
       d="M 42.696351,313.11855 H 234.76778"
       style="fill:none;stroke:#000000;stroke-width:0.468903;stroke-linecap:square;stroke-linejoin:miter;stroke-miterlimit:10;stroke-dasharray:none;stroke-opacity:1"
       id="path424" /><path
       d="m 179.27588,228.63625 h 52.11392 c 0.81552,0 1.22328,0.39076 1.22328,1.17226 v 42.41192 c 0,0.78152 -0.40776,1.17227 -1.22328,1.17227 h -52.11392 c -0.81553,0 -1.22329,-0.39075 -1.22329,-1.17227 v -42.41192 c 0,-0.7815 0.40776,-1.17226 1.22329,-1.17226 z"
       style="fill:#ffffff;fill-opacity:0.8;fill-rule:nonzero;stroke:#cccccc;stroke-width:0.586129;stroke-linecap:butt;stroke-linejoin:miter;stroke-miterlimit:10;stroke-dasharray:none;stroke-opacity:0.8"
       id="path426" /><path
       d="m 180.3971,260.04911 h 11.72259"
       style="fill:none;stroke:#1f77b4;stroke-width:0.879194;stroke-linecap:butt;stroke-linejoin:round;stroke-miterlimit:10;stroke-dasharray:0.879194, 1.45066;stroke-dashoffset:0;stroke-opacity:1"
       id="path432" /><path
       d="m 180.3971,251.44949 h 11.72259"
       style="fill:none;stroke:#ff7f0e;stroke-width:0.879194;stroke-linecap:butt;stroke-linejoin:round;stroke-miterlimit:10;stroke-dasharray:0.879194, 1.45066;stroke-dashoffset:0;stroke-opacity:1"
       id="path438" /><path
       d="m 180.3971,242.84988 h 11.72259"
       style="fill:none;stroke:#2ca02c;stroke-width:0.879194;stroke-linecap:butt;stroke-linejoin:round;stroke-miterlimit:10;stroke-dasharray:0.879194, 1.45066;stroke-dashoffset:0;stroke-opacity:1"
       id="path444" /><path
       d="m 180.3971,234.25027 h 11.72259"
       style="fill:none;stroke:#d62728;stroke-width:0.879194;stroke-linecap:butt;stroke-linejoin:round;stroke-miterlimit:10;stroke-dasharray:0.879194, 1.45066;stroke-dashoffset:0;stroke-opacity:1"
       id="path450" /></g><g
     inkscape:groupmode="layer"
     id="layer1"
     inkscape:label="text"
     transform="translate(-42.93845,-13.763764)"
     style="display:inline"><text
       style="font-variant:normal;font-weight:normal;font-size:7.81505px;font-family:'DejaVu Sans';-inkscape-font-specification:DejaVuSans;writing-mode:lr-tb;fill:#000000;fill-opacity:1;fill-rule:nonzero;stroke:none;stroke-width:0.781505"
       id="text32"
       x="64.61998"
       y="226.44795"><tspan
         x="64.61998"
         y="226.44795"
         id="tspan30"
         style="stroke-width:0.781505">0</tspan></text><text
       style="font-variant:normal;font-weight:normal;font-size:7.81505px;font-family:'DejaVu Sans';-inkscape-font-specification:DejaVuSans;writing-mode:lr-tb;fill:#000000;fill-opacity:1;fill-rule:nonzero;stroke:none;stroke-width:0.781505"
       id="text50"
       x="135.34694"
       y="226.44795"><tspan
         x="135.34694 140.31731"
         y="226.44795"
         sodipodi:role="line"
         id="tspan48"
         style="stroke-width:0.781505">50</tspan></text><text
       style="font-variant:normal;font-weight:normal;font-size:7.81505px;font-family:'DejaVu Sans';-inkscape-font-specification:DejaVuSans;writing-mode:lr-tb;fill:#000000;fill-opacity:1;fill-rule:nonzero;stroke:none;stroke-width:0.781505"
       id="text68"
       x="206.0739"
       y="226.44795"><tspan
         x="206.0739 211.04427 216.01463"
         y="226.44795"
         sodipodi:role="line"
         id="tspan66"
         style="stroke-width:0.781505">100</tspan></text><text
       style="font-variant:normal;font-weight:normal;font-size:7.81505px;font-family:'DejaVu Sans';-inkscape-font-specification:DejaVuSans;writing-mode:lr-tb;fill:#000000;fill-opacity:1;fill-rule:nonzero;stroke:none;stroke-width:0.781505"
       id="text86"
       x="279.2858"
       y="226.44795"><tspan
         x="279.2858 284.2562 289.22656"
         y="226.44795"
         sodipodi:role="line"
         id="tspan84"
         style="stroke-width:0.781505">150</tspan></text><text
       style="font-variant:normal;font-weight:normal;font-size:7.81505px;font-family:'DejaVu Sans';-inkscape-font-specification:DejaVuSans;writing-mode:lr-tb;fill:#000000;fill-opacity:1;fill-rule:nonzero;stroke:none;stroke-width:0.781505"
       id="text90"
       x="173.07034"
       y="237.13258"><tspan
         x="173.07034 177.87659 182.83916 187.62196 191.92026"
         y="237.13258"
         sodipodi:role="line"
         id="tspan88"
         style="stroke-width:0.781505">epoch</tspan></text><text
       style="font-variant:normal;font-weight:normal;font-size:7.81503px;font-family:'DejaVu Sans';-inkscape-font-specification:DejaVuSans;writing-mode:lr-tb;fill:#000000;fill-opacity:1;fill-rule:nonzero;stroke:none;stroke-width:0.781503"
       id="text110"
       x="47.941154"
       y="195.35237"><tspan
         x="47.941154"
         y="195.35237"
         sodipodi:role="line"
         id="tspan108"
         style="stroke-width:0.781503">1</tspan></text><text
       style="font-variant:normal;font-weight:normal;font-size:7.81503px;font-family:'DejaVu Sans';-inkscape-font-specification:DejaVuSans;writing-mode:lr-tb;fill:#000000;fill-opacity:1;fill-rule:nonzero;stroke:none;stroke-width:0.781503"
       id="text134"
       x="42.079865"
       y="49.954601"><tspan
         x="42.079865 47.052044"
         y="49.954601"
         sodipodi:role="line"
         id="tspan132"
         style="stroke-width:0.781503">10</tspan></text><text
       transform="rotate(-90)"
       style="font-variant:normal;font-weight:normal;font-size:7.81503px;font-family:'DejaVu Sans';-inkscape-font-specification:DejaVuSans;writing-mode:lr-tb;fill:#000000;fill-opacity:1;fill-rule:nonzero;stroke:none;stroke-width:0.781503"
       id="text282"
       x="-159.1768"
       y="51.521866"><tspan
         x="-159.1768 -154.21425 -149.40799 -144.45326 -139.64699 -136.435 -131.64438 -128.58087 -123.79811 -120.58612 -118.10091 -115.92831 -111.14553 -107.07389"
         y="51.521866"
         sodipodi:role="line"
         id="tspan280"
         style="stroke-width:0.781503">generator loss</tspan></text><text
       style="font-variant:normal;font-weight:normal;font-size:7.81505px;font-family:'DejaVu Sans';-inkscape-font-specification:DejaVuSans;writing-mode:lr-tb;fill:#000000;fill-opacity:1;fill-rule:nonzero;stroke:none;stroke-width:0.781505"
       id="text322"
       x="83.687469"
       y="135.94199"><tspan
         x="83.687469 89.744156 94.55043 99.505203 104.31142 107.52339 112.31404 115.37756 120.16035"
         y="135.94199"
         sodipodi:role="line"
         id="tspan320"
         style="stroke-width:0.781505">Generator</tspan></text><text
       style="font-variant:normal;font-weight:normal;font-size:7.81505px;font-family:'DejaVu Sans';-inkscape-font-specification:DejaVuSans;writing-mode:lr-tb;fill:#000000;fill-opacity:1;fill-rule:nonzero;stroke:none;stroke-width:0.781505"
       id="text328"
       x="102.59457"
       y="147.40814"><tspan
         sodipodi:role="line"
         id="tspan326"
         style="stroke-width:0.781505"
         x="102.59457"
         y="147.40814">\tiny{training}</tspan></text><text
       style="font-variant:normal;font-weight:normal;font-size:7.81505px;font-family:'DejaVu Sans';-inkscape-font-specification:DejaVuSans;writing-mode:lr-tb;fill:#000000;fill-opacity:1;fill-rule:nonzero;stroke:none;stroke-width:0.781505"
       id="text334"
       x="102.59457"
       y="158.87428"><tspan
         sodipodi:role="line"
         id="tspan332"
         style="stroke-width:0.781505"
         x="102.59457"
         y="158.87428">\tiny{validation}</tspan></text><text
       style="font-variant:normal;font-weight:normal;font-size:7.81505px;font-family:'DejaVu Sans';-inkscape-font-specification:DejaVuSans;writing-mode:lr-tb;fill:#000000;fill-opacity:1;fill-rule:nonzero;stroke:none;stroke-width:0.781505"
       id="text340"
       x="318.4942"
       y="215.16302"><tspan
         x="318.4942 323.46463 325.9498 330.92017"
         y="215.16302"
         sodipodi:role="line"
         id="tspan338"
         style="stroke-width:0.781505">0.60</tspan></text><text
       style="font-variant:normal;font-weight:normal;font-size:7.81505px;font-family:'DejaVu Sans';-inkscape-font-specification:DejaVuSans;writing-mode:lr-tb;fill:#000000;fill-opacity:1;fill-rule:nonzero;stroke:none;stroke-width:0.781505"
       id="text346"
       x="318.4942"
       y="179.15604"><tspan
         x="318.4942 323.46463 325.9498 330.92017"
         y="179.15604"
         sodipodi:role="line"
         id="tspan344"
         style="stroke-width:0.781505">0.62</tspan></text><text
       style="font-variant:normal;font-weight:normal;font-size:7.81505px;font-family:'DejaVu Sans';-inkscape-font-specification:DejaVuSans;writing-mode:lr-tb;fill:#000000;fill-opacity:1;fill-rule:nonzero;stroke:none;stroke-width:0.781505"
       id="text352"
       x="318.4942"
       y="143.14906"><tspan
         x="318.4942 323.46463 325.9498 330.92017"
         y="143.14906"
         sodipodi:role="line"
         id="tspan350"
         style="stroke-width:0.781505">0.64</tspan></text><text
       style="font-variant:normal;font-weight:normal;font-size:7.81505px;font-family:'DejaVu Sans';-inkscape-font-specification:DejaVuSans;writing-mode:lr-tb;fill:#000000;fill-opacity:1;fill-rule:nonzero;stroke:none;stroke-width:0.781505"
       id="text358"
       x="318.4942"
       y="107.14215"><tspan
         x="318.4942 323.46463 325.9498 330.92017"
         y="107.14215"
         sodipodi:role="line"
         id="tspan356"
         style="stroke-width:0.781505">0.66</tspan></text><text
       style="font-variant:normal;font-weight:normal;font-size:7.81505px;font-family:'DejaVu Sans';-inkscape-font-specification:DejaVuSans;writing-mode:lr-tb;fill:#000000;fill-opacity:1;fill-rule:nonzero;stroke:none;stroke-width:0.781505"
       id="text364"
       x="318.4942"
       y="71.135124"><tspan
         x="318.4942 323.46463 325.9498 330.92017"
         y="71.135124"
         sodipodi:role="line"
         id="tspan362"
         style="stroke-width:0.781505">0.68</tspan></text><text
       style="font-variant:normal;font-weight:normal;font-size:7.81505px;font-family:'DejaVu Sans';-inkscape-font-specification:DejaVuSans;writing-mode:lr-tb;fill:#000000;fill-opacity:1;fill-rule:nonzero;stroke:none;stroke-width:0.781505"
       id="text370"
       x="318.4942"
       y="35.128151"><tspan
         x="318.4942 323.46463 325.9498 330.92017"
         y="35.128151"
         sodipodi:role="line"
         id="tspan368"
         style="stroke-width:0.781505">0.70</tspan></text><text
       transform="rotate(-90)"
       style="font-variant:normal;font-weight:normal;font-size:7.81505px;font-family:'DejaVu Sans';-inkscape-font-specification:DejaVuSans;writing-mode:lr-tb;fill:#000000;fill-opacity:1;fill-rule:nonzero;stroke:none;stroke-width:0.781505"
       id="text374"
       x="-149.32681"
       y="348.02484"><tspan
         x="-149.32681 -144.36424 -142.19167 -138.12003 -133.82175 -130.60976 -128.43718 -120.82537 -118.65277 -113.69802 -108.90736 -105.84389 -101.06108 -97.849075 -95.363884 -93.191307 -88.408493 -84.336853"
         y="348.02484"
         sodipodi:role="line"
         id="tspan372"
         style="stroke-width:0.781505">discriminator loss</tspan></text><text
       style="font-variant:normal;font-weight:normal;font-size:7.81505px;font-family:'DejaVu Sans';-inkscape-font-specification:DejaVuSans;writing-mode:lr-tb;fill:#000000;fill-opacity:1;fill-rule:nonzero;stroke:none;stroke-width:0.781505"
       id="text430"
       x="239.76245"
       y="76.53698"><tspan
         x="239.76245 245.78004 247.95264 252.02426 256.32254 259.53455 261.70712 269.319 271.49158 276.44629 281.23694 284.30045 289.08325"
         y="76.53698"
         sodipodi:role="line"
         id="tspan428"
         style="stroke-width:0.781505">Discriminator</tspan></text><text
       style="font-variant:normal;font-weight:normal;font-size:7.81505px;font-family:'DejaVu Sans';-inkscape-font-specification:DejaVuSans;writing-mode:lr-tb;fill:#000000;fill-opacity:1;fill-rule:nonzero;stroke:none;stroke-width:0.781505"
       id="text436"
       x="258.41162"
       y="88.003128"><tspan
         sodipodi:role="line"
         id="tspan434"
         style="stroke-width:0.781505"
         x="258.41162"
         y="88.003128">\tiny{train total}</tspan></text><text
       style="font-variant:normal;font-weight:normal;font-size:7.81505px;font-family:'DejaVu Sans';-inkscape-font-specification:DejaVuSans;writing-mode:lr-tb;fill:#000000;fill-opacity:1;fill-rule:nonzero;stroke:none;stroke-width:0.781505"
       id="text442"
       x="258.41162"
       y="99.469284"><tspan
         sodipodi:role="line"
         id="tspan440"
         style="stroke-width:0.781505"
         x="258.41162"
         y="99.469284">\tiny{train real}</tspan></text><text
       style="font-variant:normal;font-weight:normal;font-size:7.81505px;font-family:'DejaVu Sans';-inkscape-font-specification:DejaVuSans;writing-mode:lr-tb;fill:#000000;fill-opacity:1;fill-rule:nonzero;stroke:none;stroke-width:0.781505"
       id="text448"
       x="258.41162"
       y="110.93542"><tspan
         sodipodi:role="line"
         id="tspan446"
         style="stroke-width:0.781505"
         x="258.41162"
         y="110.93542">\tiny{train fake}</tspan></text><text
       style="font-variant:normal;font-weight:normal;font-size:7.81505px;font-family:'DejaVu Sans';-inkscape-font-specification:DejaVuSans;writing-mode:lr-tb;fill:#000000;fill-opacity:1;fill-rule:nonzero;stroke:none;stroke-width:0.781505"
       id="text454"
       x="258.41162"
       y="122.40156"><tspan
         sodipodi:role="line"
         id="tspan452"
         style="stroke-width:0.781505"
         x="258.41162"
         y="122.40156">\tiny{valid. total}</tspan></text></g></svg>
