<?xml version="1.0" encoding="UTF-8" standalone="no"?>
<svg
   xmlns:dc="http://purl.org/dc/elements/1.1/"
   xmlns:cc="http://creativecommons.org/ns#"
   xmlns:rdf="http://www.w3.org/1999/02/22-rdf-syntax-ns#"
   xmlns:svg="http://www.w3.org/2000/svg"
   xmlns="http://www.w3.org/2000/svg"
   xmlns:sodipodi="http://sodipodi.sourceforge.net/DTD/sodipodi-0.dtd"
   xmlns:inkscape="http://www.inkscape.org/namespaces/inkscape"
   version="1.1"
   id="svg2"
   xml:space="preserve"
   width="80mm"
   height="65.300003mm"
   viewBox="0 0 302.36219 246.80316"
   sodipodi:docname="pearson_chr05.svg"
   inkscape:version="1.0.2 (1.0.2+r75+1)"><metadata
     id="metadata8"><rdf:RDF><cc:Work
         rdf:about=""><dc:format>image/svg+xml</dc:format><dc:type
           rdf:resource="http://purl.org/dc/dcmitype/StillImage" /><dc:title></dc:title></cc:Work></rdf:RDF></metadata><defs
     id="defs6"><clipPath
       clipPathUnits="userSpaceOnUse"
       id="clipPath22"><path
         d="M 57.6,38.016 H 414.72 V 304.128 H 57.6 Z"
         id="path20" /></clipPath><clipPath
       clipPathUnits="userSpaceOnUse"
       id="clipPath40"><path
         d="M 57.6,38.016 H 414.72 V 304.128 H 57.6 Z"
         id="path38" /></clipPath><clipPath
       clipPathUnits="userSpaceOnUse"
       id="clipPath58"><path
         d="M 57.6,38.016 H 414.72 V 304.128 H 57.6 Z"
         id="path56" /></clipPath><clipPath
       clipPathUnits="userSpaceOnUse"
       id="clipPath76"><path
         d="M 57.6,38.016 H 414.72 V 304.128 H 57.6 Z"
         id="path74" /></clipPath><clipPath
       clipPathUnits="userSpaceOnUse"
       id="clipPath94"><path
         d="M 57.6,38.016 H 414.72 V 304.128 H 57.6 Z"
         id="path92" /></clipPath><clipPath
       clipPathUnits="userSpaceOnUse"
       id="clipPath112"><path
         d="M 57.6,38.016 H 414.72 V 304.128 H 57.6 Z"
         id="path110" /></clipPath><clipPath
       clipPathUnits="userSpaceOnUse"
       id="clipPath130"><path
         d="M 57.6,38.016 H 414.72 V 304.128 H 57.6 Z"
         id="path128" /></clipPath><clipPath
       clipPathUnits="userSpaceOnUse"
       id="clipPath148"><path
         d="M 57.6,38.016 H 414.72 V 304.128 H 57.6 Z"
         id="path146" /></clipPath><clipPath
       clipPathUnits="userSpaceOnUse"
       id="clipPath170"><path
         d="M 57.6,38.016 H 414.72 V 304.128 H 57.6 Z"
         id="path168" /></clipPath><clipPath
       clipPathUnits="userSpaceOnUse"
       id="clipPath188"><path
         d="M 57.6,38.016 H 414.72 V 304.128 H 57.6 Z"
         id="path186" /></clipPath><clipPath
       clipPathUnits="userSpaceOnUse"
       id="clipPath206"><path
         d="M 57.6,38.016 H 414.72 V 304.128 H 57.6 Z"
         id="path204" /></clipPath><clipPath
       clipPathUnits="userSpaceOnUse"
       id="clipPath224"><path
         d="M 57.6,38.016 H 414.72 V 304.128 H 57.6 Z"
         id="path222" /></clipPath><clipPath
       clipPathUnits="userSpaceOnUse"
       id="clipPath242"><path
         d="M 57.6,38.016 H 414.72 V 304.128 H 57.6 Z"
         id="path240" /></clipPath><clipPath
       clipPathUnits="userSpaceOnUse"
       id="clipPath260"><path
         d="M 57.6,38.016 H 414.72 V 304.128 H 57.6 Z"
         id="path258" /></clipPath><clipPath
       clipPathUnits="userSpaceOnUse"
       id="clipPath282"><path
         d="M 57.6,38.016 H 414.72 V 304.128 H 57.6 Z"
         id="path280" /></clipPath><clipPath
       clipPathUnits="userSpaceOnUse"
       id="clipPath292"><path
         d="M 57.6,38.016 H 414.72 V 304.128 H 57.6 Z"
         id="path290" /></clipPath><clipPath
       clipPathUnits="userSpaceOnUse"
       id="clipPath302"><path
         d="M 57.6,38.016 H 414.72 V 304.128 H 57.6 Z"
         id="path300" /></clipPath><clipPath
       clipPathUnits="userSpaceOnUse"
       id="clipPath312"><path
         d="M 57.6,38.016 H 414.72 V 304.128 H 57.6 Z"
         id="path310" /></clipPath><clipPath
       clipPathUnits="userSpaceOnUse"
       id="clipPath322"><path
         d="M 57.6,38.016 H 414.72 V 304.128 H 57.6 Z"
         id="path320" /></clipPath><clipPath
       clipPathUnits="userSpaceOnUse"
       id="clipPath332"><path
         d="M 57.6,38.016 H 414.72 V 304.128 H 57.6 Z"
         id="path330" /></clipPath></defs><sodipodi:namedview
     pagecolor="#ffffff"
     bordercolor="#666666"
     borderopacity="1"
     objecttolerance="10"
     gridtolerance="10"
     guidetolerance="10"
     inkscape:pageopacity="0"
     inkscape:pageshadow="2"
     inkscape:window-width="1920"
     inkscape:window-height="1020"
     id="namedview4"
     showgrid="false"
     units="mm"
     fit-margin-top="0"
     fit-margin-left="0"
     fit-margin-right="0"
     fit-margin-bottom="0"
     inkscape:zoom="2.6301672"
     inkscape:cx="139.80926"
     inkscape:cy="156.57572"
     inkscape:window-x="0"
     inkscape:window-y="0"
     inkscape:window-maximized="1"
     inkscape:current-layer="layer1" /><g
     id="g10"
     inkscape:groupmode="layer"
     inkscape:label="pearson_chr05"
     transform="matrix(1.3333333,0,0,-1.3333333,-28.023958,443.59358)"><g
       id="g328"
       clip-path="url(#clipPath332)"
       style="stroke:#d62728;stroke-opacity:1"
       transform="matrix(0.57526308,0,0,0.57526308,8.9271075,141.96326)"><path
         d="m 57.6,274.26669 5.668571,-8.51413 5.668572,-4.60585 5.668571,-0.61572 5.668572,-0.97414 5.668571,0.2994 5.668572,0.17462 5.668571,-0.0369 5.66857,0.55342 5.66857,-1.55777 5.66857,-1.31879 5.66858,-0.0429 5.66857,-1.84437 5.66857,-1.25059 5.66857,-0.22577 5.66857,-2.59774 5.66857,-0.67705 5.66857,-0.23919 5.66858,-2.43211 5.66857,-1.4151 5.66857,-1.07585 5.66857,-1.42078 5.66857,0.29705 5.66857,-1.2512 5.66857,-4.21345 5.66858,1.85402 5.66857,0.40948 5.66857,0.49735 5.66857,-0.15599 5.66857,-2.90436 5.66857,0.90238 5.66857,-3.56086 5.66858,-0.71117 5.66857,0.0317 5.66857,-3.35022 5.66857,0.40922 5.66857,-1.31818 5.66857,-0.0777 5.66857,-2.52089 5.66858,2.24148 5.66857,-2.15834 5.66857,-3.06158 5.66857,-0.31306 5.66857,-0.70681 5.66857,4.80396 5.66857,-2.65466 5.66858,0.83184 5.66857,-1.614 5.66857,-2.32449 5.66857,2.89507 5.66857,-6.57443 5.66857,2.15945 5.66857,-6.06139 5.66858,-1.32181 5.66857,-1.42226 5.66857,-2.91308 5.66857,-0.51664 5.66857,1.0175 5.66857,-5.84401 5.66857,1.57233 5.66858,-5.53072 5.66857,5.36572 5.66857,-2.10874 5.66857,3.65182"
         style="fill:none;stroke:#d62728;stroke-width:1.5;stroke-linecap:square;stroke-linejoin:round;stroke-miterlimit:10;stroke-dasharray:none;stroke-opacity:1"
         id="path334" /></g><g
       id="g16"
       transform="matrix(0.57526308,0,0,0.57526308,8.9271075,141.96326)"><g
         id="g18"
         clip-path="url(#clipPath22)"><path
           d="M 57.6,38.016 V 304.128"
           style="fill:none;stroke:#b0b0b0;stroke-width:0.8;stroke-linecap:square;stroke-linejoin:round;stroke-miterlimit:10;stroke-dasharray:none;stroke-opacity:1"
           id="path24" /></g></g><path
       d="m 42.062261,163.83246 v -2.01342"
       style="fill:#000000;fill-opacity:1;fill-rule:nonzero;stroke:#000000;stroke-width:0.460211;stroke-linecap:butt;stroke-linejoin:round;stroke-miterlimit:10;stroke-dasharray:none;stroke-opacity:1"
       id="path28" /><g
       id="g34"
       transform="matrix(0.57526308,0,0,0.57526308,8.9271075,141.96326)"><g
         id="g36"
         clip-path="url(#clipPath40)"><path
           d="M 102.94857,38.016 V 304.128"
           style="fill:none;stroke:#b0b0b0;stroke-width:0.8;stroke-linecap:square;stroke-linejoin:round;stroke-miterlimit:10;stroke-dasharray:none;stroke-opacity:1"
           id="path42" /></g></g><path
       d="m 68.149619,163.83246 v -2.01342"
       style="fill:#000000;fill-opacity:1;fill-rule:nonzero;stroke:#000000;stroke-width:0.460211;stroke-linecap:butt;stroke-linejoin:round;stroke-miterlimit:10;stroke-dasharray:none;stroke-opacity:1"
       id="path46" /><g
       id="g52"
       transform="matrix(0.57526308,0,0,0.57526308,8.9271075,141.96326)"><g
         id="g54"
         clip-path="url(#clipPath58)"><path
           d="M 148.29714,38.016 V 304.128"
           style="fill:none;stroke:#b0b0b0;stroke-width:0.8;stroke-linecap:square;stroke-linejoin:round;stroke-miterlimit:10;stroke-dasharray:none;stroke-opacity:1"
           id="path60" /></g></g><path
       d="m 94.236977,163.83246 v -2.01342"
       style="fill:#000000;fill-opacity:1;fill-rule:nonzero;stroke:#000000;stroke-width:0.460211;stroke-linecap:butt;stroke-linejoin:round;stroke-miterlimit:10;stroke-dasharray:none;stroke-opacity:1"
       id="path64" /><g
       id="g70"
       transform="matrix(0.57526308,0,0,0.57526308,8.9271075,141.96326)"><g
         id="g72"
         clip-path="url(#clipPath76)"><path
           d="M 193.64571,38.016 V 304.128"
           style="fill:none;stroke:#b0b0b0;stroke-width:0.8;stroke-linecap:square;stroke-linejoin:round;stroke-miterlimit:10;stroke-dasharray:none;stroke-opacity:1"
           id="path78" /></g></g><path
       d="m 120.32434,163.83246 v -2.01342"
       style="fill:#000000;fill-opacity:1;fill-rule:nonzero;stroke:#000000;stroke-width:0.460211;stroke-linecap:butt;stroke-linejoin:round;stroke-miterlimit:10;stroke-dasharray:none;stroke-opacity:1"
       id="path82" /><g
       id="g88"
       transform="matrix(0.57526308,0,0,0.57526308,8.9271075,141.96326)"><g
         id="g90"
         clip-path="url(#clipPath94)"><path
           d="M 238.99429,38.016 V 304.128"
           style="fill:none;stroke:#b0b0b0;stroke-width:0.8;stroke-linecap:square;stroke-linejoin:round;stroke-miterlimit:10;stroke-dasharray:none;stroke-opacity:1"
           id="path96" /></g></g><path
       d="m 146.4117,163.83246 v -2.01342"
       style="fill:#000000;fill-opacity:1;fill-rule:nonzero;stroke:#000000;stroke-width:0.460211;stroke-linecap:butt;stroke-linejoin:round;stroke-miterlimit:10;stroke-dasharray:none;stroke-opacity:1"
       id="path100" /><g
       id="g106"
       transform="matrix(0.57526308,0,0,0.57526308,8.9271075,141.96326)"><g
         id="g108"
         clip-path="url(#clipPath112)"><path
           d="M 284.34286,38.016 V 304.128"
           style="fill:none;stroke:#b0b0b0;stroke-width:0.8;stroke-linecap:square;stroke-linejoin:round;stroke-miterlimit:10;stroke-dasharray:none;stroke-opacity:1"
           id="path114" /></g></g><path
       d="m 172.49906,163.83246 v -2.01342"
       style="fill:#000000;fill-opacity:1;fill-rule:nonzero;stroke:#000000;stroke-width:0.460211;stroke-linecap:butt;stroke-linejoin:round;stroke-miterlimit:10;stroke-dasharray:none;stroke-opacity:1"
       id="path118" /><g
       id="g124"
       transform="matrix(0.57526308,0,0,0.57526308,8.9271075,141.96326)"><g
         id="g126"
         clip-path="url(#clipPath130)"><path
           d="M 329.69143,38.016 V 304.128"
           style="fill:none;stroke:#b0b0b0;stroke-width:0.8;stroke-linecap:square;stroke-linejoin:round;stroke-miterlimit:10;stroke-dasharray:none;stroke-opacity:1"
           id="path132" /></g></g><path
       d="m 198.58641,163.83246 v -2.01342"
       style="fill:#000000;fill-opacity:1;fill-rule:nonzero;stroke:#000000;stroke-width:0.460211;stroke-linecap:butt;stroke-linejoin:round;stroke-miterlimit:10;stroke-dasharray:none;stroke-opacity:1"
       id="path136" /><g
       id="g142"
       transform="matrix(0.57526308,0,0,0.57526308,8.9271075,141.96326)"><g
         id="g144"
         clip-path="url(#clipPath148)"><path
           d="M 375.04,38.016 V 304.128"
           style="fill:none;stroke:#b0b0b0;stroke-width:0.8;stroke-linecap:square;stroke-linejoin:round;stroke-miterlimit:10;stroke-dasharray:none;stroke-opacity:1"
           id="path150" /></g></g><path
       d="m 224.67377,163.83246 v -2.01342"
       style="fill:#000000;fill-opacity:1;fill-rule:nonzero;stroke:#000000;stroke-width:0.460211;stroke-linecap:butt;stroke-linejoin:round;stroke-miterlimit:10;stroke-dasharray:none;stroke-opacity:1"
       id="path154" /><g
       id="g164"
       transform="matrix(0.57526308,0,0,0.57526308,8.9271075,141.96326)"><g
         id="g166"
         clip-path="url(#clipPath170)"><path
           d="M 57.6,38.016 H 414.72"
           style="fill:none;stroke:#b0b0b0;stroke-width:0.8;stroke-linecap:square;stroke-linejoin:round;stroke-miterlimit:10;stroke-dasharray:none;stroke-opacity:1"
           id="path172" /></g></g><path
       d="M 42.062261,163.83246 H 40.04884"
       style="fill:#000000;fill-opacity:1;fill-rule:nonzero;stroke:#000000;stroke-width:0.460211;stroke-linecap:butt;stroke-linejoin:round;stroke-miterlimit:10;stroke-dasharray:none;stroke-opacity:1"
       id="path176" /><g
       id="g182"
       transform="matrix(0.57526308,0,0,0.57526308,8.9271075,141.96326)"><g
         id="g184"
         clip-path="url(#clipPath188)"><path
           d="M 57.6,91.2384 H 414.72"
           style="fill:none;stroke:#b0b0b0;stroke-width:0.8;stroke-linecap:square;stroke-linejoin:round;stroke-miterlimit:10;stroke-dasharray:none;stroke-opacity:1"
           id="path190" /></g></g><path
       d="M 42.062261,194.44934 H 40.04884"
       style="fill:#000000;fill-opacity:1;fill-rule:nonzero;stroke:#000000;stroke-width:0.460211;stroke-linecap:butt;stroke-linejoin:round;stroke-miterlimit:10;stroke-dasharray:none;stroke-opacity:1"
       id="path194" /><g
       id="g200"
       transform="matrix(0.57526308,0,0,0.57526308,8.9271075,141.96326)"><g
         id="g202"
         clip-path="url(#clipPath206)"><path
           d="M 57.6,144.4608 H 414.72"
           style="fill:none;stroke:#b0b0b0;stroke-width:0.8;stroke-linecap:square;stroke-linejoin:round;stroke-miterlimit:10;stroke-dasharray:none;stroke-opacity:1"
           id="path208" /></g></g><path
       d="M 42.062261,225.06623 H 40.04884"
       style="fill:#000000;fill-opacity:1;fill-rule:nonzero;stroke:#000000;stroke-width:0.460211;stroke-linecap:butt;stroke-linejoin:round;stroke-miterlimit:10;stroke-dasharray:none;stroke-opacity:1"
       id="path212" /><g
       id="g218"
       transform="matrix(0.57526308,0,0,0.57526308,8.9271075,141.96326)"><g
         id="g220"
         clip-path="url(#clipPath224)"><path
           d="M 57.6,197.6832 H 414.72"
           style="fill:none;stroke:#b0b0b0;stroke-width:0.8;stroke-linecap:square;stroke-linejoin:round;stroke-miterlimit:10;stroke-dasharray:none;stroke-opacity:1"
           id="path226" /></g></g><path
       d="M 42.062261,255.68311 H 40.04884"
       style="fill:#000000;fill-opacity:1;fill-rule:nonzero;stroke:#000000;stroke-width:0.460211;stroke-linecap:butt;stroke-linejoin:round;stroke-miterlimit:10;stroke-dasharray:none;stroke-opacity:1"
       id="path230" /><g
       id="g236"
       transform="matrix(0.57526308,0,0,0.57526308,8.9271075,141.96326)"><g
         id="g238"
         clip-path="url(#clipPath242)"><path
           d="M 57.6,250.9056 H 414.72"
           style="fill:none;stroke:#b0b0b0;stroke-width:0.8;stroke-linecap:square;stroke-linejoin:round;stroke-miterlimit:10;stroke-dasharray:none;stroke-opacity:1"
           id="path244" /></g></g><path
       d="M 42.062261,286.29999 H 40.04884"
       style="fill:#000000;fill-opacity:1;fill-rule:nonzero;stroke:#000000;stroke-width:0.460211;stroke-linecap:butt;stroke-linejoin:round;stroke-miterlimit:10;stroke-dasharray:none;stroke-opacity:1"
       id="path248" /><g
       id="g254"
       transform="matrix(0.57526308,0,0,0.57526308,8.9271075,141.96326)"><g
         id="g256"
         clip-path="url(#clipPath260)"><path
           d="M 57.6,304.128 H 414.72"
           style="fill:none;stroke:#b0b0b0;stroke-width:0.8;stroke-linecap:square;stroke-linejoin:round;stroke-miterlimit:10;stroke-dasharray:none;stroke-opacity:1"
           id="path262" /></g></g><path
       d="M 42.062261,316.91687 H 40.04884"
       style="fill:#000000;fill-opacity:1;fill-rule:nonzero;stroke:#000000;stroke-width:0.460211;stroke-linecap:butt;stroke-linejoin:round;stroke-miterlimit:10;stroke-dasharray:none;stroke-opacity:1"
       id="path266" /><g
       id="g278"
       clip-path="url(#clipPath282)"
       transform="matrix(0.57526308,0,0,0.57526308,8.9271075,141.96326)"><path
         d="m 57.6,233.85595 5.668571,7.44709 5.668572,-7.18122 5.668571,-9.03657 5.668572,-6.76725 5.668571,-5.23985 5.668572,-2.37897 5.668571,-3.30924 5.66857,-4.2173 5.66857,2.45588 5.66857,-0.90672 5.66858,-3.71343 5.66857,-1.01076 5.66857,-2.97937 5.66857,-5.3986 5.66857,-2.14559 5.66857,-1.70821 5.66857,-2.22134 5.66858,-0.66512 5.66857,-4.84115 5.66857,-0.22079 5.66857,-6.35892 5.66857,-3.01338 5.66857,-2.69267 5.66857,-2.05172 5.66858,-1.3179 5.66857,-5.85471 5.66857,0.66482 5.66857,-6.96913 5.66857,-2.04557 5.66857,-2.67875 5.66857,-2.41227 5.66858,0.62427 5.66857,-5.34334 5.66857,-3.05303 5.66857,-2.06042 5.66857,-2.3058 5.66857,-0.17628 5.66857,-0.88098 5.66858,-3.59972 5.66857,-2.57676 5.66857,-2.45815 5.66857,2.63836 5.66857,-4.4301 5.66857,-0.66652 5.66857,1.61751 5.66858,-0.66302 5.66857,-0.67659 5.66857,1.62137 5.66857,-2.80139 5.66857,1.40252 5.66857,-3.09795 5.66857,-17.60475 5.66858,-40.92528 5.66857,-40.501491 L 368.7935,-1"
         style="fill:none;stroke:#1f77b4;stroke-width:1.5;stroke-linecap:square;stroke-linejoin:round;stroke-miterlimit:10;stroke-dasharray:none;stroke-opacity:1"
         id="path284" /></g><g
       id="g288"
       clip-path="url(#clipPath292)"
       transform="matrix(0.57526308,0,0,0.57526308,8.9271075,141.96326)"><path
         d="m 57.6,238.09145 5.668571,6.54115 5.668572,-6.32278 5.668571,-7.06635 5.668572,-4.03267 5.668571,-2.45652 5.668572,-0.21825 5.668571,-3.43143 5.66857,-5.12311 5.66857,0.14339 5.66857,-3.05507 5.66858,-4.72925 5.66857,-0.25907 5.66857,-0.18918 5.66857,-3.51542 5.66857,-0.96911 5.66857,-1.83275 5.66857,-2.18969 5.66858,-1.73942 5.66857,-5.79125 5.66857,-1.26324 5.66857,-5.75806 5.66857,-3.0492 5.66857,-1.07061 5.66857,-2.30794 5.66858,-1.14627 5.66857,-6.35684 5.66857,1.42087 5.66857,-4.63031 5.66857,-2.14824 5.66857,-1.88416 5.66857,-2.80008 5.66858,0.33337 5.66857,-5.30682 5.66857,-2.72164 5.66857,-1.78365 5.66857,-2.09656 5.66857,-1.98934 5.66857,-0.48003 5.66858,-3.19618 5.66857,-2.23807 5.66857,-3.79299 5.66857,0.21745 5.66857,-4.02657 5.66857,0.88525 5.66857,0.75647 5.66858,0.70806 5.66857,-2.66342 5.66857,0.38601 5.66857,-3.00544 5.66857,2.88524 5.66857,3.00763 5.66857,0.17786 5.66858,-0.26462 5.66857,-5.025 5.66857,-36.89124 L 375.04,37.766024 380.63656,-1 m 6.74111,0 4.66804,1.256697 5.66858,0.990702 5.66857,0.259637 5.66857,-0.571514 5.66857,-1.762511"
         style="fill:none;stroke:#ff7f0e;stroke-width:1.5;stroke-linecap:square;stroke-linejoin:round;stroke-miterlimit:10;stroke-dasharray:none;stroke-opacity:1"
         id="path294" /></g><g
       id="g298"
       clip-path="url(#clipPath302)"
       transform="matrix(0.57526308,0,0,0.57526308,8.9271075,141.96326)"><path
         d="m 57.6,239.56881 5.668571,5.71493 5.668572,-5.41489 5.668571,-6.03383 5.668572,-3.27179 5.668571,-2.54181 5.668572,-0.99142 5.668571,-4.37021 5.66857,-4.55484 5.66857,-0.16867 5.66857,-2.76439 5.66858,-4.72761 5.66857,-0.29348 5.66857,-0.82353 5.66857,-3.05874 5.66857,-0.45877 5.66857,-0.78516 5.66857,-1.3058 5.66858,-1.39409 5.66857,-6.23241 5.66857,-1.08258 5.66857,-5.82184 5.66857,-2.87373 5.66857,-1.47212 5.66857,-1.47186 5.66858,-1.24725 5.66857,-6.04247 5.66857,0.14348 5.66857,-4.59881 5.66857,-2.15007 5.66857,-0.93358 5.66857,-2.25512 5.66858,-0.0454 5.66857,-4.21146 5.66857,-2.88436 5.66857,-1.72442 5.66857,-3.16628 5.66857,-1.14659 5.66857,0.0116 5.66858,-2.5785 5.66857,-1.88695 5.66857,-3.3654 5.66857,0.68982 5.66857,-4.75292 5.66857,1.60743 5.66857,0.45433 5.66858,2.4031 5.66857,-1.67979 5.66857,1.01289 5.66857,-3.30676 5.66857,1.0036 5.66857,2.29237 5.66857,0.43463 5.66858,0.41534 5.66857,1.86219 5.66857,-8.34822 5.66857,-52.116276 5.66857,-85.385418 5.66857,0.809286 5.66857,1.549309 5.66858,2.01095 5.66857,1.434477 5.66857,0.556741 5.66857,-0.434095"
         style="fill:none;stroke:#2ca02c;stroke-width:1.5;stroke-linecap:square;stroke-linejoin:round;stroke-miterlimit:10;stroke-dasharray:none;stroke-opacity:1"
         id="path304" /></g><g
       id="g308"
       clip-path="url(#clipPath312)"
       style="stroke:#8c564b;stroke-opacity:1"
       transform="matrix(0.57526308,0,0,0.57526308,8.9271075,141.96326)"><path
         d="m 57.6,235.67218 5.668571,7.41132 5.668572,-4.98375 5.668571,-4.91831 5.668572,-2.67798 5.668571,-2.89883 5.668572,-1.78528 5.668571,-4.47856 5.66857,-3.63094 5.66857,-0.76495 5.66857,-3.38415 5.66858,-5.15485 5.66857,-0.70126 5.66857,-0.91556 5.66857,-2.75664 5.66857,-1.10255 5.66857,-1.56564 5.66857,-1.85708 5.66858,-2.16383 5.66857,-6.43689 5.66857,-0.58681 5.66857,-6.33429 5.66857,-3.10074 5.66857,-2.17851 5.66857,-1.56431 5.66858,-2.18144 5.66857,-5.69976 5.66857,-0.10748 5.66857,-4.55507 5.66857,-2.25573 5.66857,-0.0315 5.66857,-2.85321 5.66858,0.29984 5.66857,-4.18076 5.66857,-2.09734 5.66857,-2.10061 5.66857,-2.99394 5.66857,-1.19711 5.66857,0.91071 5.66858,-2.85828 5.66857,-2.48171 5.66857,-3.41464 5.66857,1.15062 5.66857,-5.25429 5.66857,0.57949 5.66857,0.36283 5.66858,2.17408 5.66857,-0.91909 5.66857,1.07183 5.66857,-3.32218 5.66857,2.55545 5.66857,2.32125 5.66857,-0.3273 5.66858,1.25635 5.66857,2.57563 5.66857,-3.26311 5.66857,-29.04262 5.66857,-101.381638 5.66857,-1.534506 5.66857,0.776185 5.66858,2.226492 5.66857,0.533722 5.66857,0.385431 5.66857,0.843761"
         style="fill:none;stroke:#8c564b;stroke-width:1.5;stroke-linecap:square;stroke-linejoin:round;stroke-miterlimit:10;stroke-dasharray:none;stroke-opacity:1"
         id="path314" /></g><g
       id="g318"
       clip-path="url(#clipPath322)"
       transform="matrix(0.57526308,0,0,0.57526308,8.9271075,141.96326)"><path
         d="m 57.6,239.62518 5.668571,5.8958 5.668572,-5.0671 5.668571,-4.42078 5.668572,-2.88408 5.668571,-3.42296 5.668572,-1.96337 5.668571,-3.90134 5.66857,-3.10517 5.66857,-1.14263 5.66857,-3.67041 5.66858,-5.38486 5.66857,-0.65827 5.66857,-0.40144 5.66857,-2.41423 5.66857,-1.2282 5.66857,-1.72395 5.66857,-1.14236 5.66858,-1.93957 5.66857,-6.42852 5.66857,-0.68956 5.66857,-6.01993 5.66857,-3.57286 5.66857,-1.8228 5.66857,-1.9578 5.66858,-1.25984 5.66857,-5.53497 5.66857,-0.27886 5.66857,-4.55489 5.66857,-2.39752 5.66857,-0.35468 5.66857,-2.24377 5.66858,0.0363 5.66857,-3.94227 5.66857,-2.52219 5.66857,-2.80455 5.66857,-4.64212 5.66857,-1.20264 5.66857,0.67171 5.66858,-2.82484 5.66857,-2.39561 5.66857,-3.19267 5.66857,1.30036 5.66857,-5.64382 5.66857,-0.3546 5.66857,-0.26484 5.66858,1.55439 5.66857,-0.83483 5.66857,0.5884 5.66857,-3.37403 5.66857,2.18941 5.66857,2.97253 5.66857,-0.53094 5.66858,2.67317 5.66857,3.84081 5.66857,0.85563 5.66857,-17.46446 5.66857,-115.315693 5.66857,-1.635409 5.66857,4.461165 5.66858,4.591146 5.66857,1.828521 5.66857,1.252345 5.66857,1.610872"
         style="fill:none;stroke:#9467bd;stroke-width:1.5;stroke-linecap:square;stroke-linejoin:round;stroke-miterlimit:10;stroke-dasharray:none;stroke-opacity:1"
         id="path324" /></g><path
       d="M 42.062261,163.83246 V 316.91687"
       style="fill:none;stroke:#000000;stroke-width:0.460211;stroke-linecap:square;stroke-linejoin:miter;stroke-miterlimit:10;stroke-dasharray:none;stroke-opacity:1"
       id="path338" /><path
       d="M 247.50021,163.83246 V 316.91687"
       style="fill:none;stroke:#000000;stroke-width:0.460211;stroke-linecap:square;stroke-linejoin:miter;stroke-miterlimit:10;stroke-dasharray:none;stroke-opacity:1"
       id="path340" /><path
       d="M 42.062261,163.83246 H 247.50021"
       style="fill:none;stroke:#000000;stroke-width:0.460211;stroke-linecap:square;stroke-linejoin:miter;stroke-miterlimit:10;stroke-dasharray:none;stroke-opacity:1"
       id="path342" /><path
       d="M 42.062261,316.91687 H 247.50021"
       style="fill:none;stroke:#000000;stroke-width:0.460211;stroke-linecap:square;stroke-linejoin:miter;stroke-miterlimit:10;stroke-dasharray:none;stroke-opacity:1"
       id="path344" /><path
       d="M 53.42614,215.38355 H 64.93139"
       style="fill:none;stroke:#1f77b4;stroke-width:0.862895;stroke-linecap:square;stroke-linejoin:round;stroke-miterlimit:10;stroke-dasharray:none;stroke-opacity:1"
       id="path354" /><path
       d="M 53.42614,206.94336 H 64.93139"
       style="fill:none;stroke:#ff7f0e;stroke-width:0.862895;stroke-linecap:square;stroke-linejoin:round;stroke-miterlimit:10;stroke-dasharray:none;stroke-opacity:1"
       id="path360" /><path
       d="M 53.42614,198.50318 H 64.93139"
       style="fill:none;stroke:#2ca02c;stroke-width:0.862895;stroke-linecap:square;stroke-linejoin:round;stroke-miterlimit:10;stroke-dasharray:none;stroke-opacity:1"
       id="path366" /><path
       d="M 53.42614,190.06298 H 64.93139"
       style="fill:none;stroke:#8c564b;stroke-width:0.862895;stroke-linecap:square;stroke-linejoin:round;stroke-miterlimit:10;stroke-dasharray:none;stroke-opacity:1"
       id="path372" /><path
       d="M 53.42614,181.62279 H 64.93139"
       style="fill:none;stroke:#9467bd;stroke-width:0.862895;stroke-linecap:square;stroke-linejoin:round;stroke-miterlimit:10;stroke-dasharray:none;stroke-opacity:1"
       id="path378" /><path
       d="M 53.42614,173.1826 H 64.93139"
       style="fill:none;stroke:#d62728;stroke-width:0.862895;stroke-linecap:square;stroke-linejoin:round;stroke-miterlimit:10;stroke-dasharray:none;stroke-opacity:1"
       id="path384" /></g><g
     inkscape:groupmode="layer"
     id="layer1"
     inkscape:label="text"
     transform="translate(-28.023958,-17.206424)"
     style="display:inline"><text
       style="font-variant:normal;font-weight:normal;font-size:7.67017px;font-family:'DejaVu Sans';-inkscape-font-specification:DejaVuSans;writing-mode:lr-tb;fill:#000000;fill-opacity:1;fill-rule:nonzero;stroke:none;stroke-width:0.767017"
       id="text32"
       x="53.982826"
       y="253.55037"><tspan
         x="53.982826 58.861057 61.300175"
         y="253.55037"
         sodipodi:role="line"
         id="tspan30"
         style="stroke-width:0.767017">0.0</tspan></text><text
       style="font-variant:normal;font-weight:normal;font-size:7.67017px;font-family:'DejaVu Sans';-inkscape-font-specification:DejaVuSans;writing-mode:lr-tb;fill:#000000;fill-opacity:1;fill-rule:nonzero;stroke:none;stroke-width:0.767017"
       id="text50"
       x="84.765968"
       y="253.55037"><tspan
         x="84.765968 89.644203 92.083321"
         y="253.55037"
         sodipodi:role="line"
         id="tspan48"
         style="stroke-width:0.767017">0.2</tspan></text><text
       style="font-variant:normal;font-weight:normal;font-size:7.67017px;font-family:'DejaVu Sans';-inkscape-font-specification:DejaVuSans;writing-mode:lr-tb;fill:#000000;fill-opacity:1;fill-rule:nonzero;stroke:none;stroke-width:0.767017"
       id="text68"
       x="119.54912"
       y="253.55037"><tspan
         x="119.54912 124.42735 126.86647"
         y="253.55037"
         sodipodi:role="line"
         id="tspan66"
         style="stroke-width:0.767017">0.4</tspan></text><text
       style="font-variant:normal;font-weight:normal;font-size:7.67017px;font-family:'DejaVu Sans';-inkscape-font-specification:DejaVuSans;writing-mode:lr-tb;fill:#000000;fill-opacity:1;fill-rule:nonzero;stroke:none;stroke-width:0.767017"
       id="text86"
       x="154.33226"
       y="253.55037"><tspan
         x="154.33226 159.21049 161.64961"
         y="253.55037"
         sodipodi:role="line"
         id="tspan84"
         style="stroke-width:0.767017">0.6</tspan></text><text
       style="font-variant:normal;font-weight:normal;font-size:7.67017px;font-family:'DejaVu Sans';-inkscape-font-specification:DejaVuSans;writing-mode:lr-tb;fill:#000000;fill-opacity:1;fill-rule:nonzero;stroke:none;stroke-width:0.767017"
       id="text104"
       x="189.11539"
       y="253.55037"><tspan
         x="189.11539 193.99364 196.43275"
         y="253.55037"
         sodipodi:role="line"
         id="tspan102"
         style="stroke-width:0.767017">0.8</tspan></text><text
       style="font-variant:normal;font-weight:normal;font-size:7.67017px;font-family:'DejaVu Sans';-inkscape-font-specification:DejaVuSans;writing-mode:lr-tb;fill:#000000;fill-opacity:1;fill-rule:nonzero;stroke:none;stroke-width:0.767017"
       id="text122"
       x="223.89854"
       y="253.55037"><tspan
         x="223.89854 228.77678 231.21588"
         y="253.55037"
         sodipodi:role="line"
         id="tspan120"
         style="stroke-width:0.767017">1.0</tspan></text><text
       style="font-variant:normal;font-weight:normal;font-size:7.67017px;font-family:'DejaVu Sans';-inkscape-font-specification:DejaVuSans;writing-mode:lr-tb;fill:#000000;fill-opacity:1;fill-rule:nonzero;stroke:none;stroke-width:0.767017"
       id="text140"
       x="258.6817"
       y="253.55037"><tspan
         x="258.6817 263.55991 265.99902"
         y="253.55037"
         sodipodi:role="line"
         id="tspan138"
         style="stroke-width:0.767017">1.2</tspan></text><text
       style="font-variant:normal;font-weight:normal;font-size:7.67017px;font-family:'DejaVu Sans';-inkscape-font-specification:DejaVuSans;writing-mode:lr-tb;fill:#000000;fill-opacity:1;fill-rule:nonzero;stroke:none;stroke-width:0.767017"
       id="text158"
       x="293.46484"
       y="253.55037"><tspan
         x="293.46484 298.34308 300.78217"
         y="253.55037"
         sodipodi:role="line"
         id="tspan156"
         style="stroke-width:0.767017">1.4</tspan></text><text
       style="font-variant:normal;font-weight:normal;font-size:7.67017px;font-family:'DejaVu Sans';-inkscape-font-specification:DejaVuSans;writing-mode:lr-tb;fill:#000000;fill-opacity:1;fill-rule:nonzero;stroke:none;stroke-width:0.767017"
       id="text162"
       x="146.61913"
       y="264.03714"><tspan
         x="146.61913 152.56351 157.28065 162.14354 166.83769 174.30844 176.44073 180.65933 183.09846 187.96902 190.10132 194.09749 197.1042 201.80602 206.66891 210.88751 215.60468 218.04376 220.62863 223.06772 229.68709 234.55766"
         y="264.03714"
         sodipodi:role="line"
         id="tspan160"
         style="stroke-width:0.767017">Genomic distance / Mbp</tspan></text><text
       style="font-variant:normal;font-weight:normal;font-size:7.67017px;font-family:'DejaVu Sans';-inkscape-font-specification:DejaVuSans;writing-mode:lr-tb;fill:#000000;fill-opacity:1;fill-rule:nonzero;stroke:none;stroke-width:0.767017"
       id="text180"
       x="38.513519"
       y="245.26897"><tspan
         x="38.513519 43.39175 45.830868"
         y="245.26897"
         sodipodi:role="line"
         id="tspan178"
         style="stroke-width:0.767017">0.0</tspan></text><text
       style="font-variant:normal;font-weight:normal;font-size:7.67017px;font-family:'DejaVu Sans';-inkscape-font-specification:DejaVuSans;writing-mode:lr-tb;fill:#000000;fill-opacity:1;fill-rule:nonzero;stroke:none;stroke-width:0.767017"
       id="text198"
       x="38.513519"
       y="204.44646"><tspan
         x="38.513519 43.39175 45.830868"
         y="204.44646"
         sodipodi:role="line"
         id="tspan196"
         style="stroke-width:0.767017">0.2</tspan></text><text
       style="font-variant:normal;font-weight:normal;font-size:7.67017px;font-family:'DejaVu Sans';-inkscape-font-specification:DejaVuSans;writing-mode:lr-tb;fill:#000000;fill-opacity:1;fill-rule:nonzero;stroke:none;stroke-width:0.767017"
       id="text216"
       x="38.513519"
       y="163.62396"><tspan
         x="38.513519 43.39175 45.830868"
         y="163.62396"
         sodipodi:role="line"
         id="tspan214"
         style="stroke-width:0.767017">0.4</tspan></text><text
       style="font-variant:normal;font-weight:normal;font-size:7.67017px;font-family:'DejaVu Sans';-inkscape-font-specification:DejaVuSans;writing-mode:lr-tb;fill:#000000;fill-opacity:1;fill-rule:nonzero;stroke:none;stroke-width:0.767017"
       id="text234"
       x="38.513519"
       y="122.80144"><tspan
         x="38.513519 43.39175 45.830868"
         y="122.80144"
         sodipodi:role="line"
         id="tspan232"
         style="stroke-width:0.767017">0.6</tspan></text><text
       style="font-variant:normal;font-weight:normal;font-size:7.67017px;font-family:'DejaVu Sans';-inkscape-font-specification:DejaVuSans;writing-mode:lr-tb;fill:#000000;fill-opacity:1;fill-rule:nonzero;stroke:none;stroke-width:0.767017"
       id="text252"
       x="38.513519"
       y="81.978943"><tspan
         x="38.513519 43.39175 45.830868"
         y="81.978943"
         sodipodi:role="line"
         id="tspan250"
         style="stroke-width:0.767017">0.8</tspan></text><text
       style="font-variant:normal;font-weight:normal;font-size:7.67017px;font-family:'DejaVu Sans';-inkscape-font-specification:DejaVuSans;writing-mode:lr-tb;fill:#000000;fill-opacity:1;fill-rule:nonzero;stroke:none;stroke-width:0.767017"
       id="text270"
       x="38.513519"
       y="41.156487"><tspan
         x="38.513519 43.39175 45.830868"
         y="41.156487"
         sodipodi:role="line"
         id="tspan268"
         style="stroke-width:0.767017">1.0</tspan></text><text
       transform="rotate(-90)"
       style="font-variant:normal;font-weight:normal;font-size:7.67017px;font-family:'DejaVu Sans';-inkscape-font-specification:DejaVuSans;writing-mode:lr-tb;fill:#000000;fill-opacity:1;fill-rule:nonzero;stroke:none;stroke-width:0.767017"
       id="text274"
       x="-177.35696"
       y="33.85149"><tspan
         x="-177.35696 -172.73184 -168.01468 -163.31288 -160.16043 -156.16428 -151.47011 -146.60724 -144.16812 -139.94952 -135.25537 -132.10292 -128.95049 -124.23334 -122.10103 -117.39921 -114.39249 -112.26019 -107.56605"
         y="33.85149"
         sodipodi:role="line"
         id="tspan272"
         style="stroke-width:0.767017">Pearson correlation</tspan></text><text
       style="font-variant:normal;font-weight:normal;font-size:9.20421px;font-family:'DejaVu Sans';-inkscape-font-specification:DejaVuSans;writing-mode:lr-tb;fill:#000000;fill-opacity:1;fill-rule:nonzero;stroke:none;stroke-width:0.767017"
       id="text348"
       x="98.320984"
       y="23.325722"><tspan
         x="98.320984 103.87112 109.53171 115.1739 118.95682 123.75221 129.38519 135.22066 138.14758 143.2099 148.84288 152.62582 156.40875 162.06934 164.62811 170.27029 173.87834 176.4371 182.07008 187.90555 190.8325 196.28139 201.07678 204.00371 206.93066 212.77533 218.43593 224.27136 229.90436 238.86925 241.42802 246.49034 249.41728 255.26196 257.82071 262.61609 266.22415 271.86633 277.70181 282.76413"
         y="23.325722"
         sodipodi:role="line"
         id="tspan346"
         style="stroke-width:0.767017">Pearson correlation vs. genomic distance</tspan></text><text
       style="font-variant:normal;font-weight:normal;font-size:9.20421px;font-family:'DejaVu Sans';-inkscape-font-specification:DejaVuSans;writing-mode:lr-tb;fill:#000000;fill-opacity:1;fill-rule:nonzero;stroke:none;stroke-width:0.767017"
       id="text352"
       x="137.20786"
       y="33.642113"><tspan
         x="137.20786 144.34113 152.28435 158.13821 163.9921 169.84598 175.69986 181.55374 184.48067 187.40761 193.26149 199.11536 202.04231 207.67528 213.51074 216.43768 222.47563 228.32953 234.1834 240.03728 242.9642 245.89116"
         y="33.642113"
         sodipodi:role="line"
         id="tspan350"
         style="stroke-width:0.767017">GM12878, 17 on K562, 5</tspan></text><text
       style="font-variant:normal;font-weight:normal;font-size:7.67017px;font-family:'DejaVu Sans';-inkscape-font-specification:DejaVuSans;writing-mode:lr-tb;fill:#000000;fill-opacity:1;fill-rule:nonzero;stroke:none;stroke-width:0.767017"
       id="text358"
       x="92.711327"
       y="176.30659"><tspan
         x="92.711327 97.589569 102.46779 104.90691 109.62405 114.49463 116.93373 119.51859 121.9577 127.20412 132.8187 138.17245 140.75729 143.19643 148.07465 150.51376 155.392 160.27023"
         y="176.30659"
         sodipodi:role="line"
         id="tspan356"
         style="stroke-width:0.767017">20 ep / AUC: 0.370</tspan></text><text
       style="font-variant:normal;font-weight:normal;font-size:7.67017px;font-family:'DejaVu Sans';-inkscape-font-specification:DejaVuSans;writing-mode:lr-tb;fill:#000000;fill-opacity:1;fill-rule:nonzero;stroke:none;stroke-width:0.767017"
       id="text364"
       x="92.711327"
       y="187.56017"><tspan
         x="92.711327 97.589569 102.46779 104.90691 109.62405 114.49463 116.93373 119.51859 121.9577 127.20412 132.8187 138.17245 140.75729 143.19643 148.07465 150.51376 155.392 160.27023"
         y="187.56017"
         sodipodi:role="line"
         id="tspan362"
         style="stroke-width:0.767017">40 ep / AUC: 0.434</tspan></text><text
       style="font-variant:normal;font-weight:normal;font-size:7.67017px;font-family:'DejaVu Sans';-inkscape-font-specification:DejaVuSans;writing-mode:lr-tb;fill:#000000;fill-opacity:1;fill-rule:nonzero;stroke:none;stroke-width:0.767017"
       id="text370"
       x="92.711327"
       y="198.81371"><tspan
         x="92.711327 97.589569 102.46779 104.90691 109.62405 114.49463 116.93373 119.51859 121.9577 127.20412 132.8187 138.17245 140.75729 143.19643 148.07465 150.51376 155.392 160.27023"
         y="198.81371"
         sodipodi:role="line"
         id="tspan368"
         style="stroke-width:0.767017">60 ep / AUC: 0.459</tspan></text><text
       style="font-variant:normal;font-weight:normal;font-size:7.67017px;font-family:'DejaVu Sans';-inkscape-font-specification:DejaVuSans;writing-mode:lr-tb;fill:#000000;fill-opacity:1;fill-rule:nonzero;stroke:none;stroke-width:0.767017"
       id="text376"
       x="92.711327"
       y="210.06728"><tspan
         x="92.711327 97.589569 102.46779 104.90691 109.62405 114.49463 116.93373 119.51859 121.9577 127.20412 132.8187 138.17245 140.75729 143.19643 148.07465 150.51376 155.392 160.27023"
         y="210.06728"
         sodipodi:role="line"
         id="tspan374"
         style="stroke-width:0.767017">80 ep / AUC: 0.447</tspan></text><text
       style="font-variant:normal;font-weight:normal;font-size:7.67017px;font-family:'DejaVu Sans';-inkscape-font-specification:DejaVuSans;writing-mode:lr-tb;fill:#000000;fill-opacity:1;fill-rule:nonzero;stroke:none;stroke-width:0.767017"
       id="text382"
       x="92.711327"
       y="221.32086"><tspan
         x="92.711327 97.589569 102.46779 107.34602 109.78513 114.5023 119.37285 121.81198 124.39682 126.83594 132.08234 137.6969 143.0507 145.63554 148.07465 152.95288 155.392 160.27023 165.14847"
         y="221.32086"
         sodipodi:role="line"
         id="tspan380"
         style="stroke-width:0.767017">100 ep / AUC: 0.459</tspan></text><text
       style="font-variant:normal;font-weight:normal;font-size:7.67017px;font-family:'DejaVu Sans';-inkscape-font-specification:DejaVuSans;writing-mode:lr-tb;fill:#000000;fill-opacity:1;fill-rule:nonzero;stroke:none;stroke-width:0.767017"
       id="text388"
       x="92.711327"
       y="232.57445"><tspan
         x="92.711327 95.718048 98.870499 103.5723 108.4352 112.43135 115.13124 119.84842 123.00084 125.43996 131.38434 138.00371 142.88196 147.76016 152.63843 157.51663 162.39487 164.83398 167.41882 169.85794 175.10434 180.7189 186.07269 188.65756 191.09665 195.97488 198.414 203.29224 208.17047"
         y="232.57445"
         sodipodi:role="line"
         id="tspan386"
         style="stroke-width:0.767017">transfer GM12878 / AUC: 0.745</tspan></text></g></svg>
