<?xml version="1.0" encoding="UTF-8" standalone="no"?>
<svg
   xmlns:dc="http://purl.org/dc/elements/1.1/"
   xmlns:cc="http://creativecommons.org/ns#"
   xmlns:rdf="http://www.w3.org/1999/02/22-rdf-syntax-ns#"
   xmlns:svg="http://www.w3.org/2000/svg"
   xmlns="http://www.w3.org/2000/svg"
   xmlns:sodipodi="http://sodipodi.sourceforge.net/DTD/sodipodi-0.dtd"
   xmlns:inkscape="http://www.inkscape.org/namespaces/inkscape"
   version="1.1"
   id="svg2"
   xml:space="preserve"
   width="80mm"
   height="65.300003mm"
   viewBox="0 0 302.36219 246.80316"
   sodipodi:docname="pearson_chr05.svg"
   inkscape:version="1.0.2 (1.0.2+r75+1)"><metadata
     id="metadata8"><rdf:RDF><cc:Work
         rdf:about=""><dc:format>image/svg+xml</dc:format><dc:type
           rdf:resource="http://purl.org/dc/dcmitype/StillImage" /><dc:title></dc:title></cc:Work></rdf:RDF></metadata><defs
     id="defs6"><clipPath
       clipPathUnits="userSpaceOnUse"
       id="clipPath22"><path
         d="M 57.6,38.016 H 414.72 V 304.128 H 57.6 Z"
         id="path20" /></clipPath><clipPath
       clipPathUnits="userSpaceOnUse"
       id="clipPath40"><path
         d="M 57.6,38.016 H 414.72 V 304.128 H 57.6 Z"
         id="path38" /></clipPath><clipPath
       clipPathUnits="userSpaceOnUse"
       id="clipPath58"><path
         d="M 57.6,38.016 H 414.72 V 304.128 H 57.6 Z"
         id="path56" /></clipPath><clipPath
       clipPathUnits="userSpaceOnUse"
       id="clipPath76"><path
         d="M 57.6,38.016 H 414.72 V 304.128 H 57.6 Z"
         id="path74" /></clipPath><clipPath
       clipPathUnits="userSpaceOnUse"
       id="clipPath94"><path
         d="M 57.6,38.016 H 414.72 V 304.128 H 57.6 Z"
         id="path92" /></clipPath><clipPath
       clipPathUnits="userSpaceOnUse"
       id="clipPath112"><path
         d="M 57.6,38.016 H 414.72 V 304.128 H 57.6 Z"
         id="path110" /></clipPath><clipPath
       clipPathUnits="userSpaceOnUse"
       id="clipPath130"><path
         d="M 57.6,38.016 H 414.72 V 304.128 H 57.6 Z"
         id="path128" /></clipPath><clipPath
       clipPathUnits="userSpaceOnUse"
       id="clipPath148"><path
         d="M 57.6,38.016 H 414.72 V 304.128 H 57.6 Z"
         id="path146" /></clipPath><clipPath
       clipPathUnits="userSpaceOnUse"
       id="clipPath170"><path
         d="M 57.6,38.016 H 414.72 V 304.128 H 57.6 Z"
         id="path168" /></clipPath><clipPath
       clipPathUnits="userSpaceOnUse"
       id="clipPath188"><path
         d="M 57.6,38.016 H 414.72 V 304.128 H 57.6 Z"
         id="path186" /></clipPath><clipPath
       clipPathUnits="userSpaceOnUse"
       id="clipPath206"><path
         d="M 57.6,38.016 H 414.72 V 304.128 H 57.6 Z"
         id="path204" /></clipPath><clipPath
       clipPathUnits="userSpaceOnUse"
       id="clipPath224"><path
         d="M 57.6,38.016 H 414.72 V 304.128 H 57.6 Z"
         id="path222" /></clipPath><clipPath
       clipPathUnits="userSpaceOnUse"
       id="clipPath242"><path
         d="M 57.6,38.016 H 414.72 V 304.128 H 57.6 Z"
         id="path240" /></clipPath><clipPath
       clipPathUnits="userSpaceOnUse"
       id="clipPath260"><path
         d="M 57.6,38.016 H 414.72 V 304.128 H 57.6 Z"
         id="path258" /></clipPath><clipPath
       clipPathUnits="userSpaceOnUse"
       id="clipPath282"><path
         d="M 57.6,38.016 H 414.72 V 304.128 H 57.6 Z"
         id="path280" /></clipPath><clipPath
       clipPathUnits="userSpaceOnUse"
       id="clipPath292"><path
         d="M 57.6,38.016 H 414.72 V 304.128 H 57.6 Z"
         id="path290" /></clipPath><clipPath
       clipPathUnits="userSpaceOnUse"
       id="clipPath302"><path
         d="M 57.6,38.016 H 414.72 V 304.128 H 57.6 Z"
         id="path300" /></clipPath><clipPath
       clipPathUnits="userSpaceOnUse"
       id="clipPath312"><path
         d="M 57.6,38.016 H 414.72 V 304.128 H 57.6 Z"
         id="path310" /></clipPath><clipPath
       clipPathUnits="userSpaceOnUse"
       id="clipPath322"><path
         d="M 57.6,38.016 H 414.72 V 304.128 H 57.6 Z"
         id="path320" /></clipPath><clipPath
       clipPathUnits="userSpaceOnUse"
       id="clipPath332"><path
         d="M 57.6,38.016 H 414.72 V 304.128 H 57.6 Z"
         id="path330" /></clipPath></defs><sodipodi:namedview
     pagecolor="#ffffff"
     bordercolor="#666666"
     borderopacity="1"
     objecttolerance="10"
     gridtolerance="10"
     guidetolerance="10"
     inkscape:pageopacity="0"
     inkscape:pageshadow="2"
     inkscape:window-width="1920"
     inkscape:window-height="1020"
     id="namedview4"
     showgrid="false"
     units="mm"
     fit-margin-top="0"
     fit-margin-left="0"
     fit-margin-right="0"
     fit-margin-bottom="0"
     inkscape:zoom="2.6301672"
     inkscape:cx="162.81452"
     inkscape:cy="151.68257"
     inkscape:window-x="0"
     inkscape:window-y="0"
     inkscape:window-maximized="1"
     inkscape:current-layer="layer1" /><g
     id="g10"
     inkscape:groupmode="layer"
     inkscape:label="pearson_chr05"
     transform="matrix(1.3333333,0,0,-1.3333333,-28.023958,443.59358)"><g
       id="g328"
       clip-path="url(#clipPath332)"
       transform="matrix(0.57557945,0,0,0.57557945,8.920458,141.98676)"
       style="stroke:#d62728;stroke-opacity:1"><path
         d="m 57.6,274.26669 5.668571,-8.51413 5.668572,-4.60585 5.668571,-0.61572 5.668572,-0.97414 5.668571,0.2994 5.668572,0.17462 5.668571,-0.0369 5.66857,0.55342 5.66857,-1.55777 5.66857,-1.31879 5.66858,-0.0429 5.66857,-1.84437 5.66857,-1.25059 5.66857,-0.22577 5.66857,-2.59774 5.66857,-0.67705 5.66857,-0.23919 5.66858,-2.43211 5.66857,-1.4151 5.66857,-1.07585 5.66857,-1.42078 5.66857,0.29705 5.66857,-1.2512 5.66857,-4.21345 5.66858,1.85402 5.66857,0.40948 5.66857,0.49735 5.66857,-0.15599 5.66857,-2.90436 5.66857,0.90238 5.66857,-3.56086 5.66858,-0.71117 5.66857,0.0317 5.66857,-3.35022 5.66857,0.40922 5.66857,-1.31818 5.66857,-0.0777 5.66857,-2.52089 5.66858,2.24148 5.66857,-2.15834 5.66857,-3.06158 5.66857,-0.31306 5.66857,-0.70681 5.66857,4.80396 5.66857,-2.65466 5.66858,0.83184 5.66857,-1.614 5.66857,-2.32449 5.66857,2.89507 5.66857,-6.57443 5.66857,2.15945 5.66857,-6.06139 5.66858,-1.32181 5.66857,-1.42226 5.66857,-2.91308 5.66857,-0.51664 5.66857,1.0175 5.66857,-5.84401 5.66857,1.57233 5.66858,-5.53072 5.66857,5.36572 5.66857,-2.10874 5.66857,3.65182"
         style="fill:none;stroke:#d62728;stroke-width:1.5;stroke-linecap:square;stroke-linejoin:round;stroke-miterlimit:10;stroke-dasharray:none;stroke-opacity:1"
         id="path334" /></g><g
       id="g16"
       transform="matrix(0.57557945,0,0,0.57557945,8.920458,141.98676)"><g
         id="g18"
         clip-path="url(#clipPath22)"><path
           d="M 57.6,38.016 V 304.128"
           style="fill:none;stroke:#b0b0b0;stroke-width:0.8;stroke-linecap:square;stroke-linejoin:round;stroke-miterlimit:10;stroke-dasharray:none;stroke-opacity:1"
           id="path24" /></g></g><path
       d="m 42.073835,163.86799 v -2.01453"
       style="fill:#000000;fill-opacity:1;fill-rule:nonzero;stroke:#000000;stroke-width:0.460463;stroke-linecap:butt;stroke-linejoin:round;stroke-miterlimit:10;stroke-dasharray:none;stroke-opacity:1"
       id="path28" /><g
       id="g34"
       transform="matrix(0.57557945,0,0,0.57557945,8.920458,141.98676)"><g
         id="g36"
         clip-path="url(#clipPath40)"><path
           d="M 102.94857,38.016 V 304.128"
           style="fill:none;stroke:#b0b0b0;stroke-width:0.8;stroke-linecap:square;stroke-linejoin:round;stroke-miterlimit:10;stroke-dasharray:none;stroke-opacity:1"
           id="path42" /></g></g><path
       d="m 68.175539,163.86799 v -2.01453"
       style="fill:#000000;fill-opacity:1;fill-rule:nonzero;stroke:#000000;stroke-width:0.460463;stroke-linecap:butt;stroke-linejoin:round;stroke-miterlimit:10;stroke-dasharray:none;stroke-opacity:1"
       id="path46" /><g
       id="g52"
       transform="matrix(0.57557945,0,0,0.57557945,8.920458,141.98676)"><g
         id="g54"
         clip-path="url(#clipPath58)"><path
           d="M 148.29714,38.016 V 304.128"
           style="fill:none;stroke:#b0b0b0;stroke-width:0.8;stroke-linecap:square;stroke-linejoin:round;stroke-miterlimit:10;stroke-dasharray:none;stroke-opacity:1"
           id="path60" /></g></g><path
       d="m 94.277244,163.86799 v -2.01453"
       style="fill:#000000;fill-opacity:1;fill-rule:nonzero;stroke:#000000;stroke-width:0.460463;stroke-linecap:butt;stroke-linejoin:round;stroke-miterlimit:10;stroke-dasharray:none;stroke-opacity:1"
       id="path64" /><g
       id="g70"
       transform="matrix(0.57557945,0,0,0.57557945,8.920458,141.98676)"><g
         id="g72"
         clip-path="url(#clipPath76)"><path
           d="M 193.64571,38.016 V 304.128"
           style="fill:none;stroke:#b0b0b0;stroke-width:0.8;stroke-linecap:square;stroke-linejoin:round;stroke-miterlimit:10;stroke-dasharray:none;stroke-opacity:1"
           id="path78" /></g></g><path
       d="m 120.37895,163.86799 v -2.01453"
       style="fill:#000000;fill-opacity:1;fill-rule:nonzero;stroke:#000000;stroke-width:0.460463;stroke-linecap:butt;stroke-linejoin:round;stroke-miterlimit:10;stroke-dasharray:none;stroke-opacity:1"
       id="path82" /><g
       id="g88"
       transform="matrix(0.57557945,0,0,0.57557945,8.920458,141.98676)"><g
         id="g90"
         clip-path="url(#clipPath94)"><path
           d="M 238.99429,38.016 V 304.128"
           style="fill:none;stroke:#b0b0b0;stroke-width:0.8;stroke-linecap:square;stroke-linejoin:round;stroke-miterlimit:10;stroke-dasharray:none;stroke-opacity:1"
           id="path96" /></g></g><path
       d="m 146.48066,163.86799 v -2.01453"
       style="fill:#000000;fill-opacity:1;fill-rule:nonzero;stroke:#000000;stroke-width:0.460463;stroke-linecap:butt;stroke-linejoin:round;stroke-miterlimit:10;stroke-dasharray:none;stroke-opacity:1"
       id="path100" /><g
       id="g106"
       transform="matrix(0.57557945,0,0,0.57557945,8.920458,141.98676)"><g
         id="g108"
         clip-path="url(#clipPath112)"><path
           d="M 284.34286,38.016 V 304.128"
           style="fill:none;stroke:#b0b0b0;stroke-width:0.8;stroke-linecap:square;stroke-linejoin:round;stroke-miterlimit:10;stroke-dasharray:none;stroke-opacity:1"
           id="path114" /></g></g><path
       d="m 172.58236,163.86799 v -2.01453"
       style="fill:#000000;fill-opacity:1;fill-rule:nonzero;stroke:#000000;stroke-width:0.460463;stroke-linecap:butt;stroke-linejoin:round;stroke-miterlimit:10;stroke-dasharray:none;stroke-opacity:1"
       id="path118" /><g
       id="g124"
       transform="matrix(0.57557945,0,0,0.57557945,8.920458,141.98676)"><g
         id="g126"
         clip-path="url(#clipPath130)"><path
           d="M 329.69143,38.016 V 304.128"
           style="fill:none;stroke:#b0b0b0;stroke-width:0.8;stroke-linecap:square;stroke-linejoin:round;stroke-miterlimit:10;stroke-dasharray:none;stroke-opacity:1"
           id="path132" /></g></g><path
       d="m 198.68407,163.86799 v -2.01453"
       style="fill:#000000;fill-opacity:1;fill-rule:nonzero;stroke:#000000;stroke-width:0.460463;stroke-linecap:butt;stroke-linejoin:round;stroke-miterlimit:10;stroke-dasharray:none;stroke-opacity:1"
       id="path136" /><g
       id="g142"
       transform="matrix(0.57557945,0,0,0.57557945,8.920458,141.98676)"><g
         id="g144"
         clip-path="url(#clipPath148)"><path
           d="M 375.04,38.016 V 304.128"
           style="fill:none;stroke:#b0b0b0;stroke-width:0.8;stroke-linecap:square;stroke-linejoin:round;stroke-miterlimit:10;stroke-dasharray:none;stroke-opacity:1"
           id="path150" /></g></g><path
       d="m 224.78578,163.86799 v -2.01453"
       style="fill:#000000;fill-opacity:1;fill-rule:nonzero;stroke:#000000;stroke-width:0.460463;stroke-linecap:butt;stroke-linejoin:round;stroke-miterlimit:10;stroke-dasharray:none;stroke-opacity:1"
       id="path154" /><g
       id="g164"
       transform="matrix(0.57557945,0,0,0.57557945,8.920458,141.98676)"><g
         id="g166"
         clip-path="url(#clipPath170)"><path
           d="M 57.6,38.016 H 414.72"
           style="fill:none;stroke:#b0b0b0;stroke-width:0.8;stroke-linecap:square;stroke-linejoin:round;stroke-miterlimit:10;stroke-dasharray:none;stroke-opacity:1"
           id="path172" /></g></g><path
       d="M 42.073835,163.86799 H 40.059306"
       style="fill:#000000;fill-opacity:1;fill-rule:nonzero;stroke:#000000;stroke-width:0.460463;stroke-linecap:butt;stroke-linejoin:round;stroke-miterlimit:10;stroke-dasharray:none;stroke-opacity:1"
       id="path176" /><g
       id="g182"
       transform="matrix(0.57557945,0,0,0.57557945,8.920458,141.98676)"><g
         id="g184"
         clip-path="url(#clipPath188)"><path
           d="M 57.6,91.2384 H 414.72"
           style="fill:none;stroke:#b0b0b0;stroke-width:0.8;stroke-linecap:square;stroke-linejoin:round;stroke-miterlimit:10;stroke-dasharray:none;stroke-opacity:1"
           id="path190" /></g></g><path
       d="M 42.073835,194.5017 H 40.059306"
       style="fill:#000000;fill-opacity:1;fill-rule:nonzero;stroke:#000000;stroke-width:0.460463;stroke-linecap:butt;stroke-linejoin:round;stroke-miterlimit:10;stroke-dasharray:none;stroke-opacity:1"
       id="path194" /><g
       id="g200"
       transform="matrix(0.57557945,0,0,0.57557945,8.920458,141.98676)"><g
         id="g202"
         clip-path="url(#clipPath206)"><path
           d="M 57.6,144.4608 H 414.72"
           style="fill:none;stroke:#b0b0b0;stroke-width:0.8;stroke-linecap:square;stroke-linejoin:round;stroke-miterlimit:10;stroke-dasharray:none;stroke-opacity:1"
           id="path208" /></g></g><path
       d="M 42.073835,225.13543 H 40.059306"
       style="fill:#000000;fill-opacity:1;fill-rule:nonzero;stroke:#000000;stroke-width:0.460463;stroke-linecap:butt;stroke-linejoin:round;stroke-miterlimit:10;stroke-dasharray:none;stroke-opacity:1"
       id="path212" /><g
       id="g218"
       transform="matrix(0.57557945,0,0,0.57557945,8.920458,141.98676)"><g
         id="g220"
         clip-path="url(#clipPath224)"><path
           d="M 57.6,197.6832 H 414.72"
           style="fill:none;stroke:#b0b0b0;stroke-width:0.8;stroke-linecap:square;stroke-linejoin:round;stroke-miterlimit:10;stroke-dasharray:none;stroke-opacity:1"
           id="path226" /></g></g><path
       d="M 42.073835,255.76914 H 40.059306"
       style="fill:#000000;fill-opacity:1;fill-rule:nonzero;stroke:#000000;stroke-width:0.460463;stroke-linecap:butt;stroke-linejoin:round;stroke-miterlimit:10;stroke-dasharray:none;stroke-opacity:1"
       id="path230" /><g
       id="g236"
       transform="matrix(0.57557945,0,0,0.57557945,8.920458,141.98676)"><g
         id="g238"
         clip-path="url(#clipPath242)"><path
           d="M 57.6,250.9056 H 414.72"
           style="fill:none;stroke:#b0b0b0;stroke-width:0.8;stroke-linecap:square;stroke-linejoin:round;stroke-miterlimit:10;stroke-dasharray:none;stroke-opacity:1"
           id="path244" /></g></g><path
       d="M 42.073835,286.40287 H 40.059306"
       style="fill:#000000;fill-opacity:1;fill-rule:nonzero;stroke:#000000;stroke-width:0.460463;stroke-linecap:butt;stroke-linejoin:round;stroke-miterlimit:10;stroke-dasharray:none;stroke-opacity:1"
       id="path248" /><g
       id="g254"
       transform="matrix(0.57557945,0,0,0.57557945,8.920458,141.98676)"><g
         id="g256"
         clip-path="url(#clipPath260)"><path
           d="M 57.6,304.128 H 414.72"
           style="fill:none;stroke:#b0b0b0;stroke-width:0.8;stroke-linecap:square;stroke-linejoin:round;stroke-miterlimit:10;stroke-dasharray:none;stroke-opacity:1"
           id="path262" /></g></g><path
       d="M 42.073835,317.03658 H 40.059306"
       style="fill:#000000;fill-opacity:1;fill-rule:nonzero;stroke:#000000;stroke-width:0.460463;stroke-linecap:butt;stroke-linejoin:round;stroke-miterlimit:10;stroke-dasharray:none;stroke-opacity:1"
       id="path266" /><g
       id="g278"
       clip-path="url(#clipPath282)"
       transform="matrix(0.57557945,0,0,0.57557945,8.920458,141.98676)"><path
         d="m 57.6,243.51423 5.668571,6.20204 5.668572,-5.53303 5.668571,-6.85141 5.668572,-3.55455 5.668571,-2.95141 5.668572,-2.5119 5.668571,-3.39 5.66857,-4.85968 5.66857,-1.04932 5.66857,-3.91115 5.66858,-3.11916 5.66857,-0.66671 5.66857,-0.85516 5.66857,-2.67621 5.66857,-1.68289 5.66857,-1.99778 5.66857,-0.74187 5.66858,-1.39385 5.66857,-6.17515 5.66857,-0.0908 5.66857,-4.60977 5.66857,-2.91806 5.66857,-2.66879 5.66857,-0.49815 5.66858,-1.02779 5.66857,-5.44161 5.66857,1.36663 5.66857,-2.93078 5.66857,-0.23693 5.66857,-1.18066 5.66857,-1.22021 5.66858,0.69749 5.66857,-5.27385 5.66857,-1.84011 5.66857,-5.30497 5.66857,-2.77036 5.66857,-0.92765 5.66857,-0.62746 5.66858,-3.11339 5.66857,-4.88629 5.66857,-2.55755 5.66857,1.68117 5.66857,-5.16109 5.66857,0.17494 5.66857,1.44967 5.66858,-0.0472 5.66857,-0.4165 5.66857,2.32788 5.66857,-3.87836 5.66857,0.37889 5.66857,4.49648 5.66857,0.36357 5.66858,-0.40814 5.66857,-1.00327 5.66857,-26.89517 L 375.04,56.854023 379.68721,-1"
         style="fill:none;stroke:#1f77b4;stroke-width:1.5;stroke-linecap:square;stroke-linejoin:round;stroke-miterlimit:10;stroke-dasharray:none;stroke-opacity:1"
         id="path284" /></g><g
       id="g288"
       clip-path="url(#clipPath292)"
       transform="matrix(0.57557945,0,0,0.57557945,8.920458,141.98676)"><path
         d="m 57.6,243.72505 5.668571,6.65378 5.668572,-5.50474 5.668571,-6.37376 5.668572,-3.55342 5.668571,-2.63417 5.668572,-2.23402 5.668571,-3.23566 5.66857,-4.72288 5.66857,-2.0511 5.66857,-3.51378 5.66858,-3.81495 5.66857,-1.12896 5.66857,-0.39468 5.66857,-3.16258 5.66857,-1.60117 5.66857,-1.88153 5.66857,0.0343 5.66858,-1.90877 5.66857,-6.36086 5.66857,-0.13495 5.66857,-3.85706 5.66857,-3.56466 5.66857,-3.12958 5.66857,-1.23863 5.66858,-0.86244 5.66857,-5.9591 5.66857,2.17237 5.66857,-3.31677 5.66857,-0.89842 5.66857,-1.10741 5.66857,-0.85866 5.66858,0.15804 5.66857,-5.22915 5.66857,-1.70427 5.66857,-4.43549 5.66857,-3.40167 5.66857,-0.56628 5.66857,-0.99154 5.66858,-2.73329 5.66857,-5.01962 5.66857,-3.63633 5.66857,1.20108 5.66857,-5.23261 5.66857,-0.46665 5.66857,0.64875 5.66858,0.12582 5.66857,-0.46191 5.66857,2.03271 5.66857,-4.51699 5.66857,-0.0763 5.66857,4.81396 5.66857,0.67926 5.66858,1.91919 5.66857,0.8286 5.66857,-2.83595 5.66857,-26.37109 5.66857,-62.807336 5.66857,-34.54382 5.66857,-18.092435 5.66858,2.15423 5.66857,0.747362 5.66857,1.825508 5.66857,1.799028"
         style="fill:none;stroke:#ff7f0e;stroke-width:1.5;stroke-linecap:square;stroke-linejoin:round;stroke-miterlimit:10;stroke-dasharray:none;stroke-opacity:1"
         id="path294" /></g><g
       id="g298"
       clip-path="url(#clipPath302)"
       transform="matrix(0.57557945,0,0,0.57557945,8.920458,141.98676)"><path
         d="m 57.6,242.24293 5.668571,6.2447 5.668572,-5.52836 5.668571,-6.35284 5.668572,-3.58573 5.668571,-2.81835 5.668572,-2.33391 5.668571,-2.9806 5.66857,-4.59687 5.66857,-2.26883 5.66857,-3.81024 5.66858,-4.04319 5.66857,-0.78033 5.66857,-0.68904 5.66857,-3.16699 5.66857,-2.07319 5.66857,-2.52817 5.66857,0.13873 5.66858,-1.69837 5.66857,-6.89622 5.66857,0.20383 5.66857,-3.9376 5.66857,-3.71237 5.66857,-3.35084 5.66857,-1.61805 5.66858,-0.0928 5.66857,-5.76473 5.66857,2.23053 5.66857,-2.71473 5.66857,-1.19996 5.66857,-1.26168 5.66857,-0.37736 5.66858,0.96691 5.66857,-5.2353 5.66857,-2.42979 5.66857,-4.25196 5.66857,-3.24234 5.66857,-1.09289 5.66857,-1.07648 5.66858,-2.61525 5.66857,-5.15066 5.66857,-2.96061 5.66857,0.5292 5.66857,-5.10565 5.66857,-0.27187 5.66857,0.41639 5.66858,0.23758 5.66857,0.55928 5.66857,1.99837 5.66857,-4.48369 5.66857,0.91776 5.66857,5.34738 5.66857,0.14669 5.66858,1.57171 5.66857,1.73747 5.66857,-1.27245 5.66857,-15.90356 5.66857,-51.043437 5.66857,-34.604126 5.66857,-38.306328 5.66858,2.470636 5.66857,1.926623 5.66857,1.306274 5.66857,1.993846"
         style="fill:none;stroke:#2ca02c;stroke-width:1.5;stroke-linecap:square;stroke-linejoin:round;stroke-miterlimit:10;stroke-dasharray:none;stroke-opacity:1"
         id="path304" /></g><g
       id="g308"
       clip-path="url(#clipPath312)"
       transform="matrix(0.57557945,0,0,0.57557945,8.920458,141.98676)"
       style="stroke:#8c564b;stroke-opacity:1"><path
         d="m 57.6,244.87972 5.668571,5.37632 5.668572,-5.43875 5.668571,-6.16014 5.668572,-3.49046 5.668571,-2.74024 5.668572,-2.2182 5.668571,-2.96701 5.66857,-4.33661 5.66857,-1.85894 5.66857,-3.0588 5.66858,-3.56927 5.66857,-0.51088 5.66857,-0.43905 5.66857,-2.82796 5.66857,-2.01611 5.66857,-2.3506 5.66857,0.2495 5.66858,-1.75225 5.66857,-6.44018 5.66857,0.33095 5.66857,-3.88734 5.66857,-3.53496 5.66857,-2.62665 5.66857,-1.66353 5.66858,0.90378 5.66857,-5.61709 5.66857,2.48201 5.66857,-3.36757 5.66857,-0.95201 5.66857,-1.33798 5.66857,-0.0942 5.66858,0.33198 5.66857,-4.79838 5.66857,-2.21555 5.66857,-5.06724 5.66857,-3.51855 5.66857,-0.2524 5.66857,-1.41919 5.66858,-1.91386 5.66857,-5.72046 5.66857,-2.84504 5.66857,0.5475 5.66857,-5.00887 5.66857,-1.19867 5.66857,0.79288 5.66858,0.75544 5.66857,-0.0637 5.66857,1.91497 5.66857,-3.7176 5.66857,1.35455 5.66857,4.9748 5.66857,1.15946 5.66858,1.19954 5.66857,-0.22072 5.66857,-1.52574 5.66857,-24.18239 5.66857,-23.89078 5.66857,-5.95426 L 391.64845,-1"
         style="fill:none;stroke:#8c564b;stroke-width:1.5;stroke-linecap:square;stroke-linejoin:round;stroke-miterlimit:10;stroke-dasharray:none;stroke-opacity:1"
         id="path314" /></g><g
       id="g318"
       clip-path="url(#clipPath322)"
       transform="matrix(0.57557945,0,0,0.57557945,8.920458,141.98676)"><path
         d="m 57.6,244.55562 5.668571,5.77262 5.668572,-5.43348 5.668571,-5.94623 5.668572,-3.44011 5.668571,-2.5937 5.668572,-1.98028 5.668571,-3.06987 5.66857,-4.40734 5.66857,-1.07732 5.66857,-2.58017 5.66858,-3.7371 5.66857,-0.67935 5.66857,-0.63486 5.66857,-3.02514 5.66857,-2.18868 5.66857,-2.17807 5.66857,0.15208 5.66858,-1.59745 5.66857,-6.44478 5.66857,0.37317 5.66857,-3.75651 5.66857,-3.7952 5.66857,-2.75894 5.66857,-1.57535 5.66858,0.63488 5.66857,-6.14399 5.66857,2.46891 5.66857,-3.60869 5.66857,-1.44363 5.66857,-1.2099 5.66857,-0.34141 5.66858,0.49645 5.66857,-4.51176 5.66857,-1.60437 5.66857,-4.82986 5.66857,-3.38556 5.66857,-0.43149 5.66857,-1.25318 5.66858,-1.44992 5.66857,-5.36791 5.66857,-3.00598 5.66857,-0.0657 5.66857,-5.8432 5.66857,-1.26162 5.66857,0.51371 5.66858,0.70721 5.66857,-0.19345 5.66857,2.0568 5.66857,-3.42625 5.66857,1.26297 5.66857,4.62913 5.66857,1.37177 5.66858,1.80923 5.66857,1.05294 5.66857,-1.19608 5.66857,-7.79751 5.66857,-14.1901 5.66857,-64.64449 L 392.04571,9.739745 394.68447,-1"
         style="fill:none;stroke:#9467bd;stroke-width:1.5;stroke-linecap:square;stroke-linejoin:round;stroke-miterlimit:10;stroke-dasharray:none;stroke-opacity:1"
         id="path324" /></g><path
       d="M 42.073835,163.86799 V 317.03658"
       style="fill:none;stroke:#000000;stroke-width:0.460463;stroke-linecap:square;stroke-linejoin:miter;stroke-miterlimit:10;stroke-dasharray:none;stroke-opacity:1"
       id="path338" /><path
       d="M 247.62477,163.86799 V 317.03658"
       style="fill:none;stroke:#000000;stroke-width:0.460463;stroke-linecap:square;stroke-linejoin:miter;stroke-miterlimit:10;stroke-dasharray:none;stroke-opacity:1"
       id="path340" /><path
       d="M 42.073835,163.86799 H 247.62477"
       style="fill:none;stroke:#000000;stroke-width:0.460463;stroke-linecap:square;stroke-linejoin:miter;stroke-miterlimit:10;stroke-dasharray:none;stroke-opacity:1"
       id="path342" /><path
       d="M 42.073835,317.03658 H 247.62477"
       style="fill:none;stroke:#000000;stroke-width:0.460463;stroke-linecap:square;stroke-linejoin:miter;stroke-miterlimit:10;stroke-dasharray:none;stroke-opacity:1"
       id="path344" /><path
       d="m 53.869732,215.48818 h 11.51159"
       style="fill:none;stroke:#1f77b4;stroke-width:0.863369;stroke-linecap:square;stroke-linejoin:round;stroke-miterlimit:10;stroke-dasharray:none;stroke-opacity:1"
       id="path354" /><path
       d="m 53.869732,207.04335 h 11.51159"
       style="fill:none;stroke:#ff7f0e;stroke-width:0.863369;stroke-linecap:square;stroke-linejoin:round;stroke-miterlimit:10;stroke-dasharray:none;stroke-opacity:1"
       id="path360" /><path
       d="m 53.869732,198.59852 h 11.51159"
       style="fill:none;stroke:#2ca02c;stroke-width:0.863369;stroke-linecap:square;stroke-linejoin:round;stroke-miterlimit:10;stroke-dasharray:none;stroke-opacity:1"
       id="path366" /><path
       d="m 53.869732,190.15369 h 11.51159"
       style="fill:none;stroke:#8c564b;stroke-width:0.863369;stroke-linecap:square;stroke-linejoin:round;stroke-miterlimit:10;stroke-dasharray:none;stroke-opacity:1"
       id="path372" /><path
       d="m 53.869732,181.70886 h 11.51159"
       style="fill:none;stroke:#9467bd;stroke-width:0.863369;stroke-linecap:square;stroke-linejoin:round;stroke-miterlimit:10;stroke-dasharray:none;stroke-opacity:1"
       id="path378" /><path
       d="m 53.869732,173.26403 h 11.51159"
       style="fill:none;stroke:#d62728;stroke-width:0.863369;stroke-linecap:square;stroke-linejoin:round;stroke-miterlimit:10;stroke-dasharray:none;stroke-opacity:1"
       id="path384" /></g><g
     inkscape:groupmode="layer"
     id="layer1"
     inkscape:label="text"
     transform="translate(-28.023958,-17.206424)"><text
       style="font-variant:normal;font-weight:normal;font-size:7.67439px;font-family:'DejaVu Sans';-inkscape-font-specification:DejaVuSans;writing-mode:lr-tb;fill:#000000;fill-opacity:1;fill-rule:nonzero;stroke:none;stroke-width:0.767439"
       id="text32"
       x="53.994904"
       y="253.50894"><tspan
         x="53.994904 58.875816 61.316273"
         y="253.50894"
         sodipodi:role="line"
         id="tspan30"
         style="stroke-width:0.767439">0.0</tspan></text><text
       style="font-variant:normal;font-weight:normal;font-size:7.67439px;font-family:'DejaVu Sans';-inkscape-font-specification:DejaVuSans;writing-mode:lr-tb;fill:#000000;fill-opacity:1;fill-rule:nonzero;stroke:none;stroke-width:0.767439"
       id="text50"
       x="84.79718"
       y="253.50894"><tspan
         x="84.79718 89.678093 92.118553"
         y="253.50894"
         sodipodi:role="line"
         id="tspan48"
         style="stroke-width:0.767439">0.2</tspan></text><text
       style="font-variant:normal;font-weight:normal;font-size:7.67439px;font-family:'DejaVu Sans';-inkscape-font-specification:DejaVuSans;writing-mode:lr-tb;fill:#000000;fill-opacity:1;fill-rule:nonzero;stroke:none;stroke-width:0.767439"
       id="text68"
       x="119.59946"
       y="253.50894"><tspan
         x="119.59946 124.48037 126.92083"
         y="253.50894"
         sodipodi:role="line"
         id="tspan66"
         style="stroke-width:0.767439">0.4</tspan></text><text
       style="font-variant:normal;font-weight:normal;font-size:7.67439px;font-family:'DejaVu Sans';-inkscape-font-specification:DejaVuSans;writing-mode:lr-tb;fill:#000000;fill-opacity:1;fill-rule:nonzero;stroke:none;stroke-width:0.767439"
       id="text86"
       x="154.40172"
       y="253.50894"><tspan
         x="154.40172 159.28265 161.72308"
         y="253.50894"
         sodipodi:role="line"
         id="tspan84"
         style="stroke-width:0.767439">0.6</tspan></text><text
       style="font-variant:normal;font-weight:normal;font-size:7.67439px;font-family:'DejaVu Sans';-inkscape-font-specification:DejaVuSans;writing-mode:lr-tb;fill:#000000;fill-opacity:1;fill-rule:nonzero;stroke:none;stroke-width:0.767439"
       id="text104"
       x="189.20399"
       y="253.50894"><tspan
         x="189.20399 194.08492 196.52536"
         y="253.50894"
         sodipodi:role="line"
         id="tspan102"
         style="stroke-width:0.767439">0.8</tspan></text><text
       style="font-variant:normal;font-weight:normal;font-size:7.67439px;font-family:'DejaVu Sans';-inkscape-font-specification:DejaVuSans;writing-mode:lr-tb;fill:#000000;fill-opacity:1;fill-rule:nonzero;stroke:none;stroke-width:0.767439"
       id="text122"
       x="224.00627"
       y="253.50894"><tspan
         x="224.00627 228.88719 231.32762"
         y="253.50894"
         sodipodi:role="line"
         id="tspan120"
         style="stroke-width:0.767439">1.0</tspan></text><text
       style="font-variant:normal;font-weight:normal;font-size:7.67439px;font-family:'DejaVu Sans';-inkscape-font-specification:DejaVuSans;writing-mode:lr-tb;fill:#000000;fill-opacity:1;fill-rule:nonzero;stroke:none;stroke-width:0.767439"
       id="text140"
       x="258.80853"
       y="253.50894"><tspan
         x="258.80853 263.68945 266.12991"
         y="253.50894"
         sodipodi:role="line"
         id="tspan138"
         style="stroke-width:0.767439">1.2</tspan></text><text
       style="font-variant:normal;font-weight:normal;font-size:7.67439px;font-family:'DejaVu Sans';-inkscape-font-specification:DejaVuSans;writing-mode:lr-tb;fill:#000000;fill-opacity:1;fill-rule:nonzero;stroke:none;stroke-width:0.767439"
       id="text158"
       x="293.61081"
       y="253.50894"><tspan
         x="293.61081 298.49173 300.93216"
         y="253.50894"
         sodipodi:role="line"
         id="tspan156"
         style="stroke-width:0.767439">1.4</tspan></text><text
       style="font-variant:normal;font-weight:normal;font-size:7.67439px;font-family:'DejaVu Sans';-inkscape-font-specification:DejaVuSans;writing-mode:lr-tb;fill:#000000;fill-opacity:1;fill-rule:nonzero;stroke:none;stroke-width:0.767439"
       id="text162"
       x="146.68434"
       y="264.00159"><tspan
         x="146.68434 152.63199 157.35175 162.2173 166.91403 174.38889 176.52237 180.74329 183.18375 188.05698 190.19044 194.18883 197.19717 201.9016 206.76715 210.98808 215.70782 218.14828 220.73454 223.17499 229.79799 234.67123"
         y="264.00159"
         sodipodi:role="line"
         id="tspan160"
         style="stroke-width:0.767439">Genomic distance / Mbp</tspan></text><text
       style="font-variant:normal;font-weight:normal;font-size:7.67439px;font-family:'DejaVu Sans';-inkscape-font-specification:DejaVuSans;writing-mode:lr-tb;fill:#000000;fill-opacity:1;fill-rule:nonzero;stroke:none;stroke-width:0.767439"
       id="text180"
       x="38.519287"
       y="245.22298"><tspan
         x="38.519287 43.400204 45.840656"
         y="245.22298"
         sodipodi:role="line"
         id="tspan178"
         style="stroke-width:0.767439">0.0</tspan></text><text
       style="font-variant:normal;font-weight:normal;font-size:7.67439px;font-family:'DejaVu Sans';-inkscape-font-specification:DejaVuSans;writing-mode:lr-tb;fill:#000000;fill-opacity:1;fill-rule:nonzero;stroke:none;stroke-width:0.767439"
       id="text198"
       x="38.519287"
       y="204.37804"><tspan
         x="38.519287 43.400204 45.840656"
         y="204.37804"
         sodipodi:role="line"
         id="tspan196"
         style="stroke-width:0.767439">0.2</tspan></text><text
       style="font-variant:normal;font-weight:normal;font-size:7.67439px;font-family:'DejaVu Sans';-inkscape-font-specification:DejaVuSans;writing-mode:lr-tb;fill:#000000;fill-opacity:1;fill-rule:nonzero;stroke:none;stroke-width:0.767439"
       id="text216"
       x="38.519287"
       y="163.53307"><tspan
         x="38.519287 43.400204 45.840656"
         y="163.53307"
         sodipodi:role="line"
         id="tspan214"
         style="stroke-width:0.767439">0.4</tspan></text><text
       style="font-variant:normal;font-weight:normal;font-size:7.67439px;font-family:'DejaVu Sans';-inkscape-font-specification:DejaVuSans;writing-mode:lr-tb;fill:#000000;fill-opacity:1;fill-rule:nonzero;stroke:none;stroke-width:0.767439"
       id="text234"
       x="38.519287"
       y="122.68829"><tspan
         x="38.519287 43.400204 45.840656"
         y="122.68829"
         sodipodi:role="line"
         id="tspan232"
         style="stroke-width:0.767439">0.6</tspan></text><text
       style="font-variant:normal;font-weight:normal;font-size:7.67439px;font-family:'DejaVu Sans';-inkscape-font-specification:DejaVuSans;writing-mode:lr-tb;fill:#000000;fill-opacity:1;fill-rule:nonzero;stroke:none;stroke-width:0.767439"
       id="text252"
       x="38.519287"
       y="81.843323"><tspan
         x="38.519287 43.400204 45.840656"
         y="81.843323"
         sodipodi:role="line"
         id="tspan250"
         style="stroke-width:0.767439">0.8</tspan></text><text
       style="font-variant:normal;font-weight:normal;font-size:7.67439px;font-family:'DejaVu Sans';-inkscape-font-specification:DejaVuSans;writing-mode:lr-tb;fill:#000000;fill-opacity:1;fill-rule:nonzero;stroke:none;stroke-width:0.767439"
       id="text270"
       x="38.519287"
       y="40.998283"><tspan
         x="38.519287 43.400204 45.840656"
         y="40.998283"
         sodipodi:role="line"
         id="tspan268"
         style="stroke-width:0.767439">1.0</tspan></text><text
       transform="rotate(-90)"
       style="font-variant:normal;font-weight:normal;font-size:7.67439px;font-family:'DejaVu Sans';-inkscape-font-specification:DejaVuSans;writing-mode:lr-tb;fill:#000000;fill-opacity:1;fill-rule:nonzero;stroke:none;stroke-width:0.767439"
       id="text274"
       x="-177.27364"
       y="33.854698"><tspan
         x="-177.27364 -172.64597 -167.92621 -163.22182 -160.06763 -156.06929 -151.37256 -146.50699 -144.06654 -139.84561 -135.14888 -131.99471 -128.84053 -124.12099 -121.9875 -117.2831 -114.27473 -112.14124 -107.44453"
         y="33.854698"
         sodipodi:role="line"
         id="tspan272"
         style="stroke-width:0.767439">Pearson correlation</tspan></text><text
       style="font-variant:normal;font-weight:normal;font-size:9.20927px;font-family:'DejaVu Sans';-inkscape-font-specification:DejaVuSans;writing-mode:lr-tb;fill:#000000;fill-opacity:1;fill-rule:nonzero;stroke:none;stroke-width:0.767439"
       id="text348"
       x="98.359642"
       y="23.157753"><tspan
         x="98.359642 103.91283 109.57654 115.22182 119.00683 123.80486 129.44095 135.27962 138.20816 143.27325 148.90933 152.69434 156.47935 162.14305 164.70325 170.34853 173.95854 176.51874 182.15482 187.99347 190.92203 196.37393 201.17195 204.10049 207.02905 212.87694 218.54063 224.37929 230.01538 238.9852 241.54539 246.61049 249.53905 255.38692 257.94711 262.74512 266.35516 272.00043 277.83914 282.90424"
         y="23.157753"
         sodipodi:role="line"
         id="tspan346"
         style="stroke-width:0.767439">Pearson correlation vs. genomic distance</tspan></text><text
       style="font-variant:normal;font-weight:normal;font-size:9.20927px;font-family:'DejaVu Sans';-inkscape-font-specification:DejaVuSans;writing-mode:lr-tb;fill:#000000;fill-opacity:1;fill-rule:nonzero;stroke:none;stroke-width:0.767439"
       id="text352"
       x="64.007431"
       y="33.479778"><tspan
         x="64.007431 71.144615 79.092216 84.94931 90.806412 96.663506 102.52061 108.37769 111.30625 114.23479 120.09189 123.02045 128.87753 131.80609 137.66318 140.59174 146.44884 149.37738 155.23448 158.16302 164.02013 169.87721 172.80577 178.66286 184.51994 187.4485 193.30559 199.16269 202.09123 207.94833 213.80544 216.73399 222.59108 228.44818 231.37672 237.23383 243.09093 246.01947 251.87656 257.73367 260.6622 266.51932 272.3764 275.30496 280.94101 286.77969 289.70828 295.74954 301.60666 307.46371 313.32083 316.24939 319.17792"
         y="33.479778"
         sodipodi:role="line"
         id="tspan350"
         style="stroke-width:0.767439">GM12878, 1,2,4,7,9,11,13,14,16,17,18,20,22 on K562, 5</tspan></text><text
       style="font-variant:normal;font-weight:normal;font-size:7.67439px;font-family:'DejaVu Sans';-inkscape-font-specification:DejaVuSans;writing-mode:lr-tb;fill:#000000;fill-opacity:1;fill-rule:nonzero;stroke:none;stroke-width:0.767439"
       id="text358"
       x="93.314537"
       y="176.16829"><tspan
         x="93.314537 98.195465 103.07635 105.51681 110.23654 115.10979 117.55025 120.13651 122.57699 127.82642 133.44409 138.8008 141.38707 143.82755 148.70842 151.14891 156.02983 160.91072"
         y="176.16829"
         sodipodi:role="line"
         id="tspan356"
         style="stroke-width:0.767439">80 ep / AUC: 0.459</tspan></text><text
       style="font-variant:normal;font-weight:normal;font-size:7.67439px;font-family:'DejaVu Sans';-inkscape-font-specification:DejaVuSans;writing-mode:lr-tb;fill:#000000;fill-opacity:1;fill-rule:nonzero;stroke:none;stroke-width:0.767439"
       id="text364"
       x="93.314537"
       y="187.42805"><tspan
         x="93.314537 98.195465 103.07635 107.95725 110.39771 115.11748 119.99068 122.43117 125.01745 127.45799 132.70734 138.32498 143.68173 146.26799 148.70842 153.58937 156.02983 160.91072 165.79164"
         y="187.42805"
         sodipodi:role="line"
         id="tspan362"
         style="stroke-width:0.767439">100 ep / AUC: 0.472</tspan></text><text
       style="font-variant:normal;font-weight:normal;font-size:7.67439px;font-family:'DejaVu Sans';-inkscape-font-specification:DejaVuSans;writing-mode:lr-tb;fill:#000000;fill-opacity:1;fill-rule:nonzero;stroke:none;stroke-width:0.767439"
       id="text370"
       x="93.314537"
       y="198.68791"><tspan
         x="93.314537 98.195465 103.07635 107.95725 110.39771 115.11748 119.99068 122.43117 125.01745 127.45799 132.70734 138.32498 143.68173 146.26799 148.70842 153.58937 156.02983 160.91072 165.79164"
         y="198.68791"
         sodipodi:role="line"
         id="tspan368"
         style="stroke-width:0.767439">120 ep / AUC: 0.469</tspan></text><text
       style="font-variant:normal;font-weight:normal;font-size:7.67439px;font-family:'DejaVu Sans';-inkscape-font-specification:DejaVuSans;writing-mode:lr-tb;fill:#000000;fill-opacity:1;fill-rule:nonzero;stroke:none;stroke-width:0.767439"
       id="text376"
       x="93.314537"
       y="209.94769"><tspan
         x="93.314537 98.195465 103.07635 107.95725 110.39771 115.11748 119.99068 122.43117 125.01745 127.45799 132.70734 138.32498 143.68173 146.26799 148.70842 153.58937 156.02983 160.91072 165.79164"
         y="209.94769"
         sodipodi:role="line"
         id="tspan374"
         style="stroke-width:0.767439">140 ep / AUC: 0.489</tspan></text><text
       style="font-variant:normal;font-weight:normal;font-size:7.67439px;font-family:'DejaVu Sans';-inkscape-font-specification:DejaVuSans;writing-mode:lr-tb;fill:#000000;fill-opacity:1;fill-rule:nonzero;stroke:none;stroke-width:0.767439"
       id="text382"
       x="93.314537"
       y="221.20744"><tspan
         x="93.314537 98.195465 103.07635 107.95725 110.39771 115.11748 119.99068 122.43117 125.01745 127.45799 132.70734 138.32498 143.68173 146.26799 148.70842 153.58937 156.02983 160.91072 165.79164"
         y="221.20744"
         sodipodi:role="line"
         id="tspan380"
         style="stroke-width:0.767439">160 ep / AUC: 0.492</tspan></text><text
       style="font-variant:normal;font-weight:normal;font-size:7.67439px;font-family:'DejaVu Sans';-inkscape-font-specification:DejaVuSans;writing-mode:lr-tb;fill:#000000;fill-opacity:1;fill-rule:nonzero;stroke:none;stroke-width:0.767439"
       id="text388"
       x="93.314537"
       y="232.46725"><tspan
         x="93.314537 96.322899 99.477081 104.18146 109.04703 113.04537 115.74676 120.46652 123.6207 126.06113 132.00897 138.63196 143.51288 148.39378 153.27473 158.15562 163.03654 165.47697 168.06325 170.50371 175.75298 181.37065 186.7274 189.31364 191.7541 196.63503 199.07549 203.95638 208.8373"
         y="232.46725"
         sodipodi:role="line"
         id="tspan386"
         style="stroke-width:0.767439">transfer GM12878 / AUC: 0.745</tspan></text></g></svg>
