<?xml version="1.0" encoding="UTF-8" standalone="no"?>
<svg
   xmlns:dc="http://purl.org/dc/elements/1.1/"
   xmlns:cc="http://creativecommons.org/ns#"
   xmlns:rdf="http://www.w3.org/1999/02/22-rdf-syntax-ns#"
   xmlns:svg="http://www.w3.org/2000/svg"
   xmlns="http://www.w3.org/2000/svg"
   xmlns:sodipodi="http://sodipodi.sourceforge.net/DTD/sodipodi-0.dtd"
   xmlns:inkscape="http://www.inkscape.org/namespaces/inkscape"
   version="1.1"
   id="svg2"
   xml:space="preserve"
   width="80mm"
   height="65.300003mm"
   viewBox="0 0 302.36219 246.80316"
   sodipodi:docname="pearson_chr19.svg"
   inkscape:version="1.0.2 (1.0.2+r75+1)"><metadata
     id="metadata8"><rdf:RDF><cc:Work
         rdf:about=""><dc:format>image/svg+xml</dc:format><dc:type
           rdf:resource="http://purl.org/dc/dcmitype/StillImage" /><dc:title></dc:title></cc:Work></rdf:RDF></metadata><defs
     id="defs6"><clipPath
       clipPathUnits="userSpaceOnUse"
       id="clipPath22"><path
         d="M 57.6,38.016 H 414.72 V 304.128 H 57.6 Z"
         id="path20" /></clipPath><clipPath
       clipPathUnits="userSpaceOnUse"
       id="clipPath40"><path
         d="M 57.6,38.016 H 414.72 V 304.128 H 57.6 Z"
         id="path38" /></clipPath><clipPath
       clipPathUnits="userSpaceOnUse"
       id="clipPath58"><path
         d="M 57.6,38.016 H 414.72 V 304.128 H 57.6 Z"
         id="path56" /></clipPath><clipPath
       clipPathUnits="userSpaceOnUse"
       id="clipPath76"><path
         d="M 57.6,38.016 H 414.72 V 304.128 H 57.6 Z"
         id="path74" /></clipPath><clipPath
       clipPathUnits="userSpaceOnUse"
       id="clipPath94"><path
         d="M 57.6,38.016 H 414.72 V 304.128 H 57.6 Z"
         id="path92" /></clipPath><clipPath
       clipPathUnits="userSpaceOnUse"
       id="clipPath112"><path
         d="M 57.6,38.016 H 414.72 V 304.128 H 57.6 Z"
         id="path110" /></clipPath><clipPath
       clipPathUnits="userSpaceOnUse"
       id="clipPath130"><path
         d="M 57.6,38.016 H 414.72 V 304.128 H 57.6 Z"
         id="path128" /></clipPath><clipPath
       clipPathUnits="userSpaceOnUse"
       id="clipPath148"><path
         d="M 57.6,38.016 H 414.72 V 304.128 H 57.6 Z"
         id="path146" /></clipPath><clipPath
       clipPathUnits="userSpaceOnUse"
       id="clipPath170"><path
         d="M 57.6,38.016 H 414.72 V 304.128 H 57.6 Z"
         id="path168" /></clipPath><clipPath
       clipPathUnits="userSpaceOnUse"
       id="clipPath188"><path
         d="M 57.6,38.016 H 414.72 V 304.128 H 57.6 Z"
         id="path186" /></clipPath><clipPath
       clipPathUnits="userSpaceOnUse"
       id="clipPath206"><path
         d="M 57.6,38.016 H 414.72 V 304.128 H 57.6 Z"
         id="path204" /></clipPath><clipPath
       clipPathUnits="userSpaceOnUse"
       id="clipPath224"><path
         d="M 57.6,38.016 H 414.72 V 304.128 H 57.6 Z"
         id="path222" /></clipPath><clipPath
       clipPathUnits="userSpaceOnUse"
       id="clipPath242"><path
         d="M 57.6,38.016 H 414.72 V 304.128 H 57.6 Z"
         id="path240" /></clipPath><clipPath
       clipPathUnits="userSpaceOnUse"
       id="clipPath260"><path
         d="M 57.6,38.016 H 414.72 V 304.128 H 57.6 Z"
         id="path258" /></clipPath><clipPath
       clipPathUnits="userSpaceOnUse"
       id="clipPath282"><path
         d="M 57.6,38.016 H 414.72 V 304.128 H 57.6 Z"
         id="path280" /></clipPath><clipPath
       clipPathUnits="userSpaceOnUse"
       id="clipPath292"><path
         d="M 57.6,38.016 H 414.72 V 304.128 H 57.6 Z"
         id="path290" /></clipPath><clipPath
       clipPathUnits="userSpaceOnUse"
       id="clipPath302"><path
         d="M 57.6,38.016 H 414.72 V 304.128 H 57.6 Z"
         id="path300" /></clipPath><clipPath
       clipPathUnits="userSpaceOnUse"
       id="clipPath312"><path
         d="M 57.6,38.016 H 414.72 V 304.128 H 57.6 Z"
         id="path310" /></clipPath><clipPath
       clipPathUnits="userSpaceOnUse"
       id="clipPath322"><path
         d="M 57.6,38.016 H 414.72 V 304.128 H 57.6 Z"
         id="path320" /></clipPath><clipPath
       clipPathUnits="userSpaceOnUse"
       id="clipPath332"><path
         d="M 57.6,38.016 H 414.72 V 304.128 H 57.6 Z"
         id="path330" /></clipPath></defs><sodipodi:namedview
     pagecolor="#ffffff"
     bordercolor="#666666"
     borderopacity="1"
     objecttolerance="10"
     gridtolerance="10"
     guidetolerance="10"
     inkscape:pageopacity="0"
     inkscape:pageshadow="2"
     inkscape:window-width="1920"
     inkscape:window-height="1020"
     id="namedview4"
     showgrid="false"
     units="mm"
     fit-margin-top="0"
     fit-margin-left="0"
     fit-margin-right="0"
     fit-margin-bottom="0"
     inkscape:zoom="1.8598091"
     inkscape:cx="181.0167"
     inkscape:cy="154.17404"
     inkscape:window-x="0"
     inkscape:window-y="0"
     inkscape:window-maximized="1"
     inkscape:current-layer="layer1" /><g
     id="g10"
     inkscape:groupmode="layer"
     inkscape:label="pearson_chr19"
     transform="matrix(1.3333333,0,0,-1.3333333,-28.023958,443.59358)"><g
       id="g328"
       clip-path="url(#clipPath332)"
       transform="matrix(0.57529559,0,0,0.57529559,8.9264244,142.00286)"
       style="stroke:#d62728;stroke-opacity:1"><path
         d="m 57.6,291.21219 5.668571,-7.83046 5.668572,-4.86458 5.668571,-2.46954 5.668572,-1.96157 5.668571,-0.70339 5.668572,-0.77901 5.668571,0.56941 5.66857,1.44261 5.66857,-4.23176 5.66857,1.35083 5.66858,-2.28237 5.66857,-2.93286 5.66857,-3.08073 5.66857,-2.14705 5.66857,-0.83498 5.66857,-1.68169 5.66857,-3.59095 5.66858,-1.50789 5.66857,-0.86811 5.66857,1.0161 5.66857,-3.60562 5.66857,0.81065 5.66857,-1.96396 5.66857,-1.65329 5.66858,-1.46005 5.66857,-2.29329 5.66857,-0.0795 5.66857,2.51759 5.66857,-2.46762 5.66857,2.05221 5.66857,-3.78015 5.66858,-1.24809 5.66857,0.76119 5.66857,-0.93235 5.66857,1.35451 5.66857,-1.54374 5.66857,-3.18044 5.66857,-0.20368 5.66858,-0.82129 5.66857,-4.32261 5.66857,3.89268 5.66857,-4.43393 5.66857,1.02919 5.66857,-1.49329 5.66857,1.7614 5.66858,-8.713 5.66857,6.54481 5.66857,-2.93798 5.66857,2.2996 5.66857,-0.0617 5.66857,0.9859 5.66857,1.41998 5.66858,-2.47145 5.66857,-3.724 5.66857,1.31946 5.66857,2.11197 5.66857,1.16673 5.66857,-0.26716 5.66857,5.12537 5.66858,3.04913 5.66857,2.81569 5.66857,4.55411 5.66857,0.40623"
         style="fill:none;stroke:#d62728;stroke-width:1.5;stroke-linecap:square;stroke-linejoin:round;stroke-miterlimit:10;stroke-dasharray:none;stroke-opacity:1"
         id="path334" /></g><g
       id="g16"
       transform="matrix(0.57529559,0,0,0.57529559,8.9264244,142.00286)"><g
         id="g18"
         clip-path="url(#clipPath22)"><path
           d="M 57.6,38.016 V 304.128"
           style="fill:none;stroke:#b0b0b0;stroke-width:0.8;stroke-linecap:square;stroke-linejoin:round;stroke-miterlimit:10;stroke-dasharray:none;stroke-opacity:1"
           id="path24" /></g></g><path
       d="m 42.06345,163.87329 v -2.01353"
       style="fill:#000000;fill-opacity:1;fill-rule:nonzero;stroke:#000000;stroke-width:0.460236;stroke-linecap:butt;stroke-linejoin:round;stroke-miterlimit:10;stroke-dasharray:none;stroke-opacity:1"
       id="path28" /><g
       id="g34"
       transform="matrix(0.57529559,0,0,0.57529559,8.9264244,142.00286)"><g
         id="g36"
         clip-path="url(#clipPath40)"><path
           d="M 102.94857,38.016 V 304.128"
           style="fill:none;stroke:#b0b0b0;stroke-width:0.8;stroke-linecap:square;stroke-linejoin:round;stroke-miterlimit:10;stroke-dasharray:none;stroke-opacity:1"
           id="path42" /></g></g><path
       d="m 68.152282,163.87329 v -2.01353"
       style="fill:#000000;fill-opacity:1;fill-rule:nonzero;stroke:#000000;stroke-width:0.460236;stroke-linecap:butt;stroke-linejoin:round;stroke-miterlimit:10;stroke-dasharray:none;stroke-opacity:1"
       id="path46" /><g
       id="g52"
       transform="matrix(0.57529559,0,0,0.57529559,8.9264244,142.00286)"><g
         id="g54"
         clip-path="url(#clipPath58)"><path
           d="M 148.29714,38.016 V 304.128"
           style="fill:none;stroke:#b0b0b0;stroke-width:0.8;stroke-linecap:square;stroke-linejoin:round;stroke-miterlimit:10;stroke-dasharray:none;stroke-opacity:1"
           id="path60" /></g></g><path
       d="m 94.241114,163.87329 v -2.01353"
       style="fill:#000000;fill-opacity:1;fill-rule:nonzero;stroke:#000000;stroke-width:0.460236;stroke-linecap:butt;stroke-linejoin:round;stroke-miterlimit:10;stroke-dasharray:none;stroke-opacity:1"
       id="path64" /><g
       id="g70"
       transform="matrix(0.57529559,0,0,0.57529559,8.9264244,142.00286)"><g
         id="g72"
         clip-path="url(#clipPath76)"><path
           d="M 193.64571,38.016 V 304.128"
           style="fill:none;stroke:#b0b0b0;stroke-width:0.8;stroke-linecap:square;stroke-linejoin:round;stroke-miterlimit:10;stroke-dasharray:none;stroke-opacity:1"
           id="path78" /></g></g><path
       d="m 120.32994,163.87329 v -2.01353"
       style="fill:#000000;fill-opacity:1;fill-rule:nonzero;stroke:#000000;stroke-width:0.460236;stroke-linecap:butt;stroke-linejoin:round;stroke-miterlimit:10;stroke-dasharray:none;stroke-opacity:1"
       id="path82" /><g
       id="g88"
       transform="matrix(0.57529559,0,0,0.57529559,8.9264244,142.00286)"><g
         id="g90"
         clip-path="url(#clipPath94)"><path
           d="M 238.99429,38.016 V 304.128"
           style="fill:none;stroke:#b0b0b0;stroke-width:0.8;stroke-linecap:square;stroke-linejoin:round;stroke-miterlimit:10;stroke-dasharray:none;stroke-opacity:1"
           id="path96" /></g></g><path
       d="m 146.41878,163.87329 v -2.01353"
       style="fill:#000000;fill-opacity:1;fill-rule:nonzero;stroke:#000000;stroke-width:0.460236;stroke-linecap:butt;stroke-linejoin:round;stroke-miterlimit:10;stroke-dasharray:none;stroke-opacity:1"
       id="path100" /><g
       id="g106"
       transform="matrix(0.57529559,0,0,0.57529559,8.9264244,142.00286)"><g
         id="g108"
         clip-path="url(#clipPath112)"><path
           d="M 284.34286,38.016 V 304.128"
           style="fill:none;stroke:#b0b0b0;stroke-width:0.8;stroke-linecap:square;stroke-linejoin:round;stroke-miterlimit:10;stroke-dasharray:none;stroke-opacity:1"
           id="path114" /></g></g><path
       d="m 172.50761,163.87329 v -2.01353"
       style="fill:#000000;fill-opacity:1;fill-rule:nonzero;stroke:#000000;stroke-width:0.460236;stroke-linecap:butt;stroke-linejoin:round;stroke-miterlimit:10;stroke-dasharray:none;stroke-opacity:1"
       id="path118" /><g
       id="g124"
       transform="matrix(0.57529559,0,0,0.57529559,8.9264244,142.00286)"><g
         id="g126"
         clip-path="url(#clipPath130)"><path
           d="M 329.69143,38.016 V 304.128"
           style="fill:none;stroke:#b0b0b0;stroke-width:0.8;stroke-linecap:square;stroke-linejoin:round;stroke-miterlimit:10;stroke-dasharray:none;stroke-opacity:1"
           id="path132" /></g></g><path
       d="m 198.59645,163.87329 v -2.01353"
       style="fill:#000000;fill-opacity:1;fill-rule:nonzero;stroke:#000000;stroke-width:0.460236;stroke-linecap:butt;stroke-linejoin:round;stroke-miterlimit:10;stroke-dasharray:none;stroke-opacity:1"
       id="path136" /><g
       id="g142"
       transform="matrix(0.57529559,0,0,0.57529559,8.9264244,142.00286)"><g
         id="g144"
         clip-path="url(#clipPath148)"><path
           d="M 375.04,38.016 V 304.128"
           style="fill:none;stroke:#b0b0b0;stroke-width:0.8;stroke-linecap:square;stroke-linejoin:round;stroke-miterlimit:10;stroke-dasharray:none;stroke-opacity:1"
           id="path150" /></g></g><path
       d="m 224.68528,163.87329 v -2.01353"
       style="fill:#000000;fill-opacity:1;fill-rule:nonzero;stroke:#000000;stroke-width:0.460236;stroke-linecap:butt;stroke-linejoin:round;stroke-miterlimit:10;stroke-dasharray:none;stroke-opacity:1"
       id="path154" /><g
       id="g164"
       transform="matrix(0.57529559,0,0,0.57529559,8.9264244,142.00286)"><g
         id="g166"
         clip-path="url(#clipPath170)"><path
           d="M 57.6,38.016 H 414.72"
           style="fill:none;stroke:#b0b0b0;stroke-width:0.8;stroke-linecap:square;stroke-linejoin:round;stroke-miterlimit:10;stroke-dasharray:none;stroke-opacity:1"
           id="path172" /></g></g><path
       d="M 42.06345,163.87329 H 40.049915"
       style="fill:#000000;fill-opacity:1;fill-rule:nonzero;stroke:#000000;stroke-width:0.460236;stroke-linecap:butt;stroke-linejoin:round;stroke-miterlimit:10;stroke-dasharray:none;stroke-opacity:1"
       id="path176" /><g
       id="g182"
       transform="matrix(0.57529559,0,0,0.57529559,8.9264244,142.00286)"><g
         id="g184"
         clip-path="url(#clipPath188)"><path
           d="M 57.6,91.2384 H 414.72"
           style="fill:none;stroke:#b0b0b0;stroke-width:0.8;stroke-linecap:square;stroke-linejoin:round;stroke-miterlimit:10;stroke-dasharray:none;stroke-opacity:1"
           id="path190" /></g></g><path
       d="M 42.06345,194.49191 H 40.049915"
       style="fill:#000000;fill-opacity:1;fill-rule:nonzero;stroke:#000000;stroke-width:0.460236;stroke-linecap:butt;stroke-linejoin:round;stroke-miterlimit:10;stroke-dasharray:none;stroke-opacity:1"
       id="path194" /><g
       id="g200"
       transform="matrix(0.57529559,0,0,0.57529559,8.9264244,142.00286)"><g
         id="g202"
         clip-path="url(#clipPath206)"><path
           d="M 57.6,144.4608 H 414.72"
           style="fill:none;stroke:#b0b0b0;stroke-width:0.8;stroke-linecap:square;stroke-linejoin:round;stroke-miterlimit:10;stroke-dasharray:none;stroke-opacity:1"
           id="path208" /></g></g><path
       d="M 42.06345,225.11052 H 40.049915"
       style="fill:#000000;fill-opacity:1;fill-rule:nonzero;stroke:#000000;stroke-width:0.460236;stroke-linecap:butt;stroke-linejoin:round;stroke-miterlimit:10;stroke-dasharray:none;stroke-opacity:1"
       id="path212" /><g
       id="g218"
       transform="matrix(0.57529559,0,0,0.57529559,8.9264244,142.00286)"><g
         id="g220"
         clip-path="url(#clipPath224)"><path
           d="M 57.6,197.6832 H 414.72"
           style="fill:none;stroke:#b0b0b0;stroke-width:0.8;stroke-linecap:square;stroke-linejoin:round;stroke-miterlimit:10;stroke-dasharray:none;stroke-opacity:1"
           id="path226" /></g></g><path
       d="M 42.06345,255.72913 H 40.049915"
       style="fill:#000000;fill-opacity:1;fill-rule:nonzero;stroke:#000000;stroke-width:0.460236;stroke-linecap:butt;stroke-linejoin:round;stroke-miterlimit:10;stroke-dasharray:none;stroke-opacity:1"
       id="path230" /><g
       id="g236"
       transform="matrix(0.57529559,0,0,0.57529559,8.9264244,142.00286)"><g
         id="g238"
         clip-path="url(#clipPath242)"><path
           d="M 57.6,250.9056 H 414.72"
           style="fill:none;stroke:#b0b0b0;stroke-width:0.8;stroke-linecap:square;stroke-linejoin:round;stroke-miterlimit:10;stroke-dasharray:none;stroke-opacity:1"
           id="path244" /></g></g><path
       d="M 42.06345,286.34774 H 40.049915"
       style="fill:#000000;fill-opacity:1;fill-rule:nonzero;stroke:#000000;stroke-width:0.460236;stroke-linecap:butt;stroke-linejoin:round;stroke-miterlimit:10;stroke-dasharray:none;stroke-opacity:1"
       id="path248" /><g
       id="g254"
       transform="matrix(0.57529559,0,0,0.57529559,8.9264244,142.00286)"><g
         id="g256"
         clip-path="url(#clipPath260)"><path
           d="M 57.6,304.128 H 414.72"
           style="fill:none;stroke:#b0b0b0;stroke-width:0.8;stroke-linecap:square;stroke-linejoin:round;stroke-miterlimit:10;stroke-dasharray:none;stroke-opacity:1"
           id="path262" /></g></g><path
       d="M 42.06345,316.96635 H 40.049915"
       style="fill:#000000;fill-opacity:1;fill-rule:nonzero;stroke:#000000;stroke-width:0.460236;stroke-linecap:butt;stroke-linejoin:round;stroke-miterlimit:10;stroke-dasharray:none;stroke-opacity:1"
       id="path266" /><g
       id="g278"
       clip-path="url(#clipPath282)"
       transform="matrix(0.57529559,0,0,0.57529559,8.9264244,142.00286)"><path
         d="m 57.6,257.96984 5.668571,0.1261 5.668572,-19.45657 5.668571,-11.21294 5.668572,-5.27188 5.668571,-4.37444 5.668572,-1.33198 5.668571,-2.75135 5.66857,-4.43142 5.66857,-2.53913 5.66857,0.90351 5.66858,-6.18994 5.66857,-0.60401 5.66857,-4.20322 5.66857,-5.32385 5.66857,-4.08269 5.66857,-0.0931 5.66857,-0.50751 5.66858,-5.0087 5.66857,-0.18045 5.66857,-1.20232 5.66857,-4.21363 5.66857,1.43561 5.66857,0.33008 5.66857,-2.59071 5.66858,-5.28165 5.66857,-0.85445 5.66857,-4.45013 5.66857,2.28329 5.66857,1.61831 5.66857,0.83149 5.66857,2.64426 5.66858,-0.89522 5.66857,0.99217 5.66857,-0.48362 5.66857,-0.76923 5.66857,-4.82812 5.66857,6.25836 5.66857,1.07803 5.66858,-3.1139 5.66857,1.43198 5.66857,5.132 5.66857,-0.0341 5.66857,5.25835 5.66857,-3.51483 5.66857,-5.71187 5.66858,1.17034 5.66857,6.39472 5.66857,-2.15106 5.66857,2.61252 5.66857,-7.07985 5.66857,2.61647 5.66857,-0.37236 5.66858,-4.25747 5.66857,-5.28659 5.66857,-28.75754 L 375.04,52.875707 379.07232,-1"
         style="fill:none;stroke:#1f77b4;stroke-width:1.5;stroke-linecap:square;stroke-linejoin:round;stroke-miterlimit:10;stroke-dasharray:none;stroke-opacity:1"
         id="path284" /></g><g
       id="g288"
       clip-path="url(#clipPath292)"
       transform="matrix(0.57529559,0,0,0.57529559,8.9264244,142.00286)"><path
         d="m 57.6,257.14912 5.668571,0.97242 5.668572,-19.39853 5.668571,-10.03275 5.668572,-5.29553 5.668571,-4.64368 5.668572,-1.4639 5.668571,-3.20124 5.66857,-3.99737 5.66857,-2.70916 5.66857,0.88442 5.66858,-5.86062 5.66857,-1.54505 5.66857,-3.88339 5.66857,-5.63511 5.66857,-3.89143 5.66857,-1.0793 5.66857,-0.6769 5.66858,-5.26198 5.66857,-0.37257 5.66857,-1.07246 5.66857,-4.44666 5.66857,0.59254 5.66857,-0.23115 5.66857,-2.02266 5.66858,-5.50563 5.66857,-0.37037 5.66857,-4.13479 5.66857,1.49902 5.66857,0.80921 5.66857,0.7058 5.66857,3.84512 5.66858,-0.71482 5.66857,-0.55144 5.66857,-0.74228 5.66857,-0.3843 5.66857,-4.80635 5.66857,5.54894 5.66857,0.28728 5.66858,-4.05686 5.66857,0.74188 5.66857,6.04096 5.66857,-0.48234 5.66857,5.70305 5.66857,-3.1983 5.66857,-6.49251 5.66858,2.85181 5.66857,5.2038 5.66857,-1.85329 5.66857,2.15885 5.66857,-9.76734 5.66857,3.47058 5.66857,2.93915 5.66858,-5.33846 5.66857,0.1598 5.66857,-3.69312 L 375.04,101.39249 380.70857,19.447436 385.25078,-1"
         style="fill:none;stroke:#ff7f0e;stroke-width:1.5;stroke-linecap:square;stroke-linejoin:round;stroke-miterlimit:10;stroke-dasharray:none;stroke-opacity:1"
         id="path294" /></g><g
       id="g298"
       clip-path="url(#clipPath302)"
       transform="matrix(0.57529559,0,0,0.57529559,8.9264244,142.00286)"><path
         d="m 57.6,255.20832 5.668571,0.74178 5.668572,-19.13366 5.668571,-9.8671 5.668572,-4.9177 5.668571,-4.61892 5.668572,-0.95577 5.668571,-3.21133 5.66857,-3.78567 5.66857,-3.07001 5.66857,0.94749 5.66858,-6.83814 5.66857,-1.28163 5.66857,-4.75505 5.66857,-5.59273 5.66857,-4.04612 5.66857,-1.0031 5.66857,-1.7005 5.66858,-5.10913 5.66857,0.37411 5.66857,-0.58615 5.66857,-4.38227 5.66857,0.35923 5.66857,0.30959 5.66857,-2.25915 5.66858,-5.24407 5.66857,-0.41615 5.66857,-3.57991 5.66857,1.50257 5.66857,1.34812 5.66857,0.61712 5.66857,4.85232 5.66858,-0.86126 5.66857,-1.01097 5.66857,-0.83847 5.66857,0.82306 5.66857,-4.20913 5.66857,5.37462 5.66857,-1.60048 5.66858,-3.04545 5.66857,0.0762 5.66857,6.23404 5.66857,0.80119 5.66857,4.10339 5.66857,-2.6414 5.66857,-6.76249 5.66858,2.43592 5.66857,6.23863 5.66857,-2.92485 5.66857,2.07854 5.66857,-10.02837 5.66857,3.01812 5.66857,2.08881 5.66858,-5.07131 5.66857,-0.0971 5.66857,-3.17932 5.66857,-36.1751 5.66857,-88.604753 L 386.37714,8.105796 388.84435,-1"
         style="fill:none;stroke:#2ca02c;stroke-width:1.5;stroke-linecap:square;stroke-linejoin:round;stroke-miterlimit:10;stroke-dasharray:none;stroke-opacity:1"
         id="path304" /></g><g
       id="g308"
       clip-path="url(#clipPath312)"
       transform="matrix(0.57529559,0,0,0.57529559,8.9264244,142.00286)"
       style="stroke:#8c564b;stroke-opacity:1"><path
         d="m 57.6,256.04196 5.668571,1.05883 5.668572,-18.59021 5.668571,-9.23313 5.668572,-4.50059 5.668571,-5.16148 5.668572,-1.54455 5.668571,-3.48842 5.66857,-3.71052 5.66857,-2.71698 5.66857,1.06602 5.66858,-6.20943 5.66857,-0.51106 5.66857,-4.96167 5.66857,-4.9397 5.66857,-3.02723 5.66857,-0.75525 5.66857,-1.38596 5.66858,-5.07209 5.66857,0.53709 5.66857,-0.20748 5.66857,-4.08877 5.66857,0.26379 5.66857,1.0744 5.66857,-1.97052 5.66858,-5.06406 5.66857,-1.12728 5.66857,-2.99133 5.66857,1.74077 5.66857,0.8787 5.66857,0.0778 5.66857,5.32744 5.66858,-0.58042 5.66857,-2.51113 5.66857,-1.8826 5.66857,1.27285 5.66857,-3.39677 5.66857,5.3593 5.66857,-2.46437 5.66858,-2.48499 5.66857,-0.27456 5.66857,7.61254 5.66857,0.24556 5.66857,5.00357 5.66857,-3.27966 5.66857,-7.27258 5.66858,2.07588 5.66857,5.44547 5.66857,-2.3164 5.66857,1.98809 5.66857,-9.54978 5.66857,3.94088 5.66857,0.57041 5.66858,-3.42925 5.66857,-2.15882 5.66857,-3.16381 5.66857,-37.49481 5.66857,-29.459416 5.66857,-7.817659 L 390.9108,-1"
         style="fill:none;stroke:#8c564b;stroke-width:1.5;stroke-linecap:square;stroke-linejoin:round;stroke-miterlimit:10;stroke-dasharray:none;stroke-opacity:1"
         id="path314" /></g><g
       id="g318"
       clip-path="url(#clipPath322)"
       transform="matrix(0.57529559,0,0,0.57529559,8.9264244,142.00286)"><path
         d="m 57.6,255.84088 5.668571,1.52815 5.668572,-17.97397 5.668571,-8.77493 5.668572,-4.64238 5.668571,-5.03871 5.668572,-1.33262 5.668571,-3.77439 5.66857,-4.13021 5.66857,-2.48619 5.66857,1.02028 5.66858,-6.81353 5.66857,-1.34197 5.66857,-5.11579 5.66857,-5.59284 5.66857,-2.99647 5.66857,-0.63918 5.66857,-1.51328 5.66858,-5.35944 5.66857,0.42094 5.66857,0.006 5.66857,-4.84106 5.66857,0.33434 5.66857,0.60141 5.66857,-1.6479 5.66858,-4.61467 5.66857,-1.35511 5.66857,-3.07296 5.66857,1.53668 5.66857,0.53625 5.66857,0.33419 5.66857,4.61659 5.66858,0.22452 5.66857,-2.96713 5.66857,-1.14401 5.66857,2.11218 5.66857,-3.43346 5.66857,5.61402 5.66857,-2.32761 5.66858,-1.59484 5.66857,-0.19755 5.66857,5.65348 5.66857,1.05417 5.66857,4.8779 5.66857,-3.28008 5.66857,-7.54659 5.66858,2.4544 5.66857,6.0025 5.66857,-1.83968 5.66857,2.39163 5.66857,-9.91214 5.66857,3.89929 5.66857,2.32519 5.66858,-3.08744 5.66857,-2.14291 5.66857,-3.96287 5.66857,-8.52565 5.66857,-5.95484 5.66857,-98.321013 L 391.71785,-1"
         style="fill:none;stroke:#9467bd;stroke-width:1.5;stroke-linecap:square;stroke-linejoin:round;stroke-miterlimit:10;stroke-dasharray:none;stroke-opacity:1"
         id="path324" /></g><path
       d="M 42.06345,163.87329 V 316.96635"
       style="fill:none;stroke:#000000;stroke-width:0.460236;stroke-linecap:square;stroke-linejoin:miter;stroke-miterlimit:10;stroke-dasharray:none;stroke-opacity:1"
       id="path338" /><path
       d="M 247.513,163.87329 V 316.96635"
       style="fill:none;stroke:#000000;stroke-width:0.460236;stroke-linecap:square;stroke-linejoin:miter;stroke-miterlimit:10;stroke-dasharray:none;stroke-opacity:1"
       id="path340" /><path
       d="M 42.06345,163.87329 H 247.513"
       style="fill:none;stroke:#000000;stroke-width:0.460236;stroke-linecap:square;stroke-linejoin:miter;stroke-miterlimit:10;stroke-dasharray:none;stroke-opacity:1"
       id="path342" /><path
       d="M 42.06345,316.96635 H 247.513"
       style="fill:none;stroke:#000000;stroke-width:0.460236;stroke-linecap:square;stroke-linejoin:miter;stroke-miterlimit:10;stroke-dasharray:none;stroke-opacity:1"
       id="path344" /><path
       d="M 53.73194,215.38758 H 65.23786"
       style="fill:none;stroke:#1f77b4;stroke-width:0.862944;stroke-linecap:square;stroke-linejoin:round;stroke-miterlimit:10;stroke-dasharray:none;stroke-opacity:1"
       id="path354" /><path
       d="M 53.73194,206.94691 H 65.23786"
       style="fill:none;stroke:#ff7f0e;stroke-width:0.862944;stroke-linecap:square;stroke-linejoin:round;stroke-miterlimit:10;stroke-dasharray:none;stroke-opacity:1"
       id="path360" /><path
       d="M 53.73194,198.50625 H 65.23786"
       style="fill:none;stroke:#2ca02c;stroke-width:0.862944;stroke-linecap:square;stroke-linejoin:round;stroke-miterlimit:10;stroke-dasharray:none;stroke-opacity:1"
       id="path366" /><path
       d="M 53.73194,190.06558 H 65.23786"
       style="fill:none;stroke:#8c564b;stroke-width:0.862944;stroke-linecap:square;stroke-linejoin:round;stroke-miterlimit:10;stroke-dasharray:none;stroke-opacity:1"
       id="path372" /><path
       d="M 53.73194,181.62492 H 65.23786"
       style="fill:none;stroke:#9467bd;stroke-width:0.862944;stroke-linecap:square;stroke-linejoin:round;stroke-miterlimit:10;stroke-dasharray:none;stroke-opacity:1"
       id="path378" /><path
       d="M 53.73194,173.18425 H 65.23786"
       style="fill:none;stroke:#d62728;stroke-width:0.862944;stroke-linecap:square;stroke-linejoin:round;stroke-miterlimit:10;stroke-dasharray:none;stroke-opacity:1"
       id="path384" /></g><g
     inkscape:groupmode="layer"
     id="layer1"
     inkscape:label="text"
     transform="translate(-28.023958,-17.206424)"><text
       style="font-variant:normal;font-weight:normal;font-size:7.6706px;font-family:'DejaVu Sans';-inkscape-font-specification:DejaVuSans;writing-mode:lr-tb;fill:#000000;fill-opacity:1;fill-rule:nonzero;stroke:none;stroke-width:0.76706"
       id="text32"
       x="53.984066"
       y="253.49655"><tspan
         x="53.984066 58.862576 61.301826"
         y="253.49655"
         sodipodi:role="line"
         id="tspan30"
         style="stroke-width:0.76706">0.0</tspan></text><text
       style="font-variant:normal;font-weight:normal;font-size:7.6706px;font-family:'DejaVu Sans';-inkscape-font-specification:DejaVuSans;writing-mode:lr-tb;fill:#000000;fill-opacity:1;fill-rule:nonzero;stroke:none;stroke-width:0.76706"
       id="text50"
       x="84.769173"
       y="253.49655"><tspan
         x="84.769173 89.64769 92.086945"
         y="253.49655"
         sodipodi:role="line"
         id="tspan48"
         style="stroke-width:0.76706">0.2</tspan></text><text
       style="font-variant:normal;font-weight:normal;font-size:7.6706px;font-family:'DejaVu Sans';-inkscape-font-specification:DejaVuSans;writing-mode:lr-tb;fill:#000000;fill-opacity:1;fill-rule:nonzero;stroke:none;stroke-width:0.76706"
       id="text68"
       x="119.55429"
       y="253.49655"><tspan
         x="119.55429 124.4328 126.87205"
         y="253.49655"
         sodipodi:role="line"
         id="tspan66"
         style="stroke-width:0.76706">0.4</tspan></text><text
       style="font-variant:normal;font-weight:normal;font-size:7.6706px;font-family:'DejaVu Sans';-inkscape-font-specification:DejaVuSans;writing-mode:lr-tb;fill:#000000;fill-opacity:1;fill-rule:nonzero;stroke:none;stroke-width:0.76706"
       id="text86"
       x="154.3394"
       y="253.49655"><tspan
         x="154.3394 159.21791 161.65715"
         y="253.49655"
         sodipodi:role="line"
         id="tspan84"
         style="stroke-width:0.76706">0.6</tspan></text><text
       style="font-variant:normal;font-weight:normal;font-size:7.6706px;font-family:'DejaVu Sans';-inkscape-font-specification:DejaVuSans;writing-mode:lr-tb;fill:#000000;fill-opacity:1;fill-rule:nonzero;stroke:none;stroke-width:0.76706"
       id="text104"
       x="189.12451"
       y="253.49655"><tspan
         x="189.12451 194.00301 196.44226"
         y="253.49655"
         sodipodi:role="line"
         id="tspan102"
         style="stroke-width:0.76706">0.8</tspan></text><text
       style="font-variant:normal;font-weight:normal;font-size:7.6706px;font-family:'DejaVu Sans';-inkscape-font-specification:DejaVuSans;writing-mode:lr-tb;fill:#000000;fill-opacity:1;fill-rule:nonzero;stroke:none;stroke-width:0.76706"
       id="text122"
       x="223.90962"
       y="253.49655"><tspan
         x="223.90962 228.78812 231.22736"
         y="253.49655"
         sodipodi:role="line"
         id="tspan120"
         style="stroke-width:0.76706">1.0</tspan></text><text
       style="font-variant:normal;font-weight:normal;font-size:7.6706px;font-family:'DejaVu Sans';-inkscape-font-specification:DejaVuSans;writing-mode:lr-tb;fill:#000000;fill-opacity:1;fill-rule:nonzero;stroke:none;stroke-width:0.76706"
       id="text140"
       x="258.69473"
       y="253.49655"><tspan
         x="258.69473 263.57321 266.01248"
         y="253.49655"
         sodipodi:role="line"
         id="tspan138"
         style="stroke-width:0.76706">1.2</tspan></text><text
       style="font-variant:normal;font-weight:normal;font-size:7.6706px;font-family:'DejaVu Sans';-inkscape-font-specification:DejaVuSans;writing-mode:lr-tb;fill:#000000;fill-opacity:1;fill-rule:nonzero;stroke:none;stroke-width:0.76706"
       id="text158"
       x="293.47986"
       y="253.49655"><tspan
         x="293.47986 298.35834 300.79758"
         y="253.49655"
         sodipodi:role="line"
         id="tspan156"
         style="stroke-width:0.76706">1.4</tspan></text><text
       style="font-variant:normal;font-weight:normal;font-size:7.6706px;font-family:'DejaVu Sans';-inkscape-font-specification:DejaVuSans;writing-mode:lr-tb;fill:#000000;fill-opacity:1;fill-rule:nonzero;stroke:none;stroke-width:0.76706"
       id="text162"
       x="146.62582"
       y="263.98392"><tspan
         x="146.62582 152.57053 157.28795 162.15111 166.84554 174.3167 176.44913 180.66797 183.10722 187.97806 190.11049 194.10686 197.11374 201.81583 206.67899 210.89784 215.61526 218.0545 220.6395 223.07875 229.69849 234.56934"
         y="263.98392"
         sodipodi:role="line"
         id="tspan160"
         style="stroke-width:0.76706">Genomic distance / Mbp</tspan></text><text
       style="font-variant:normal;font-weight:normal;font-size:7.6706px;font-family:'DejaVu Sans';-inkscape-font-specification:DejaVuSans;writing-mode:lr-tb;fill:#000000;fill-opacity:1;fill-rule:nonzero;stroke:none;stroke-width:0.76706"
       id="text180"
       x="38.514111"
       y="245.21469"><tspan
         x="38.514111 43.39262 45.831871"
         y="245.21469"
         sodipodi:role="line"
         id="tspan178"
         style="stroke-width:0.76706">0.0</tspan></text><text
       style="font-variant:normal;font-weight:normal;font-size:7.6706px;font-family:'DejaVu Sans';-inkscape-font-specification:DejaVuSans;writing-mode:lr-tb;fill:#000000;fill-opacity:1;fill-rule:nonzero;stroke:none;stroke-width:0.76706"
       id="text198"
       x="38.514111"
       y="204.38988"><tspan
         x="38.514111 43.39262 45.831871"
         y="204.38988"
         sodipodi:role="line"
         id="tspan196"
         style="stroke-width:0.76706">0.2</tspan></text><text
       style="font-variant:normal;font-weight:normal;font-size:7.6706px;font-family:'DejaVu Sans';-inkscape-font-specification:DejaVuSans;writing-mode:lr-tb;fill:#000000;fill-opacity:1;fill-rule:nonzero;stroke:none;stroke-width:0.76706"
       id="text216"
       x="38.514111"
       y="163.56506"><tspan
         x="38.514111 43.39262 45.831871"
         y="163.56506"
         sodipodi:role="line"
         id="tspan214"
         style="stroke-width:0.76706">0.4</tspan></text><text
       style="font-variant:normal;font-weight:normal;font-size:7.6706px;font-family:'DejaVu Sans';-inkscape-font-specification:DejaVuSans;writing-mode:lr-tb;fill:#000000;fill-opacity:1;fill-rule:nonzero;stroke:none;stroke-width:0.76706"
       id="text234"
       x="38.514111"
       y="122.74024"><tspan
         x="38.514111 43.39262 45.831871"
         y="122.74024"
         sodipodi:role="line"
         id="tspan232"
         style="stroke-width:0.76706">0.6</tspan></text><text
       style="font-variant:normal;font-weight:normal;font-size:7.6706px;font-family:'DejaVu Sans';-inkscape-font-specification:DejaVuSans;writing-mode:lr-tb;fill:#000000;fill-opacity:1;fill-rule:nonzero;stroke:none;stroke-width:0.76706"
       id="text252"
       x="38.514111"
       y="81.915436"><tspan
         x="38.514111 43.39262 45.831871"
         y="81.915436"
         sodipodi:role="line"
         id="tspan250"
         style="stroke-width:0.76706">0.8</tspan></text><text
       style="font-variant:normal;font-weight:normal;font-size:7.6706px;font-family:'DejaVu Sans';-inkscape-font-specification:DejaVuSans;writing-mode:lr-tb;fill:#000000;fill-opacity:1;fill-rule:nonzero;stroke:none;stroke-width:0.76706"
       id="text270"
       x="38.514111"
       y="41.090679"><tspan
         x="38.514111 43.39262 45.831871"
         y="41.090679"
         sodipodi:role="line"
         id="tspan268"
         style="stroke-width:0.76706">1.0</tspan></text><text
       transform="rotate(-90)"
       style="font-variant:normal;font-weight:normal;font-size:7.6706px;font-family:'DejaVu Sans';-inkscape-font-specification:DejaVuSans;writing-mode:lr-tb;fill:#000000;fill-opacity:1;fill-rule:nonzero;stroke:none;stroke-width:0.76706"
       id="text274"
       x="-177.29884"
       y="33.851822"><tspan
         x="-177.29884 -172.67346 -167.95605 -163.25397 -160.10133 -156.10497 -151.41054 -146.54738 -144.10812 -139.8893 -135.19489 -132.04225 -128.88963 -124.17222 -122.03979 -117.33769 -114.33083 -112.19839 -107.50398"
         y="33.851822"
         sodipodi:role="line"
         id="tspan272"
         style="stroke-width:0.76706">Pearson correlation</tspan></text><text
       style="font-variant:normal;font-weight:normal;font-size:9.20472px;font-family:'DejaVu Sans';-inkscape-font-specification:DejaVuSans;writing-mode:lr-tb;fill:#000000;fill-opacity:1;fill-rule:nonzero;stroke:none;stroke-width:0.76706"
       id="text348"
       x="98.324951"
       y="23.258905"><tspan
         x="98.324951 103.87541 109.53632 115.17882 118.96195 123.75761 129.39091 135.22673 138.15381 143.2164 148.84972 152.63286 156.416 162.07692 164.63582 170.27832 173.88658 176.44548 182.0788 187.91458 190.84169 196.29089 201.08656 204.01366 206.94077 212.78577 218.44667 224.28246 229.91576 238.88116 241.44008 246.50269 249.42979 255.2748 257.83371 262.62936 266.23761 271.8801 277.71591 282.77853"
         y="23.258905"
         sodipodi:role="line"
         id="tspan346"
         style="stroke-width:0.76706">Pearson correlation vs. genomic distance</tspan></text><text
       style="font-variant:normal;font-weight:normal;font-size:9.20472px;font-family:'DejaVu Sans';-inkscape-font-specification:DejaVuSans;writing-mode:lr-tb;fill:#000000;fill-opacity:1;fill-rule:nonzero;stroke:none;stroke-width:0.76706"
       id="text352"
       x="61.059273"
       y="33.575878"><tspan
         x="61.059273 68.19294 76.136627 81.990829 87.845032 93.699234 99.553444 105.40765 108.33477 111.26186 117.11608 120.04319 125.89738 128.82451 134.6787 137.6058 143.46001 146.38712 152.24133 155.16843 161.02263 166.87683 169.80394 175.65814 181.51236 184.43947 190.29367 196.14787 199.07497 204.92918 210.78339 213.71051 219.56471 225.41893 228.34602 234.20024 240.05444 242.98154 248.83574 254.68996 257.61707 263.47128 269.3255 272.25259 277.88586 283.72168 286.6488 292.68707 298.54129 304.39551 310.24973 313.17682 316.10391 321.9581"
         y="33.575878"
         sodipodi:role="line"
         id="tspan350"
         style="stroke-width:0.76706">GM12878, 1,2,4,7,9,11,13,14,16,17,18,20,22 on K562, 19</tspan></text><text
       style="font-variant:normal;font-weight:normal;font-size:7.6706px;font-family:'DejaVu Sans';-inkscape-font-specification:DejaVuSans;writing-mode:lr-tb;fill:#000000;fill-opacity:1;fill-rule:nonzero;stroke:none;stroke-width:0.76706"
       id="text358"
       x="93.120285"
       y="176.30144"><tspan
         x="93.120285 97.998795 102.8773 105.31654 110.03397 114.9048 117.34404 119.92905 122.36832 127.61499 133.22992 138.58398 141.16898 143.60823 148.48674 150.92598 155.80449 160.683"
         y="176.30144"
         sodipodi:role="line"
         id="tspan356"
         style="stroke-width:0.76706">80 ep / AUC: 0.466</tspan></text><text
       style="font-variant:normal;font-weight:normal;font-size:7.6706px;font-family:'DejaVu Sans';-inkscape-font-specification:DejaVuSans;writing-mode:lr-tb;fill:#000000;fill-opacity:1;fill-rule:nonzero;stroke:none;stroke-width:0.76706"
       id="text364"
       x="93.120285"
       y="187.55566"><tspan
         x="93.120285 97.998795 102.8773 107.75579 110.19506 114.91248 119.78329 122.22256 124.80756 127.2468 132.49352 138.1084 143.46251 146.0475 148.48674 153.36525 155.80449 160.683 165.56154"
         y="187.55566"
         sodipodi:role="line"
         id="tspan362"
         style="stroke-width:0.76706">100 ep / AUC: 0.467</tspan></text><text
       style="font-variant:normal;font-weight:normal;font-size:7.6706px;font-family:'DejaVu Sans';-inkscape-font-specification:DejaVuSans;writing-mode:lr-tb;fill:#000000;fill-opacity:1;fill-rule:nonzero;stroke:none;stroke-width:0.76706"
       id="text370"
       x="93.120285"
       y="198.80983"><tspan
         x="93.120285 97.998795 102.8773 107.75579 110.19506 114.91248 119.78329 122.22256 124.80756 127.2468 132.49352 138.1084 143.46251 146.0475 148.48674 153.36525 155.80449 160.683 165.56154"
         y="198.80983"
         sodipodi:role="line"
         id="tspan368"
         style="stroke-width:0.76706">120 ep / AUC: 0.467</tspan></text><text
       style="font-variant:normal;font-weight:normal;font-size:7.6706px;font-family:'DejaVu Sans';-inkscape-font-specification:DejaVuSans;writing-mode:lr-tb;fill:#000000;fill-opacity:1;fill-rule:nonzero;stroke:none;stroke-width:0.76706"
       id="text376"
       x="93.120285"
       y="210.06404"><tspan
         x="93.120285 97.998795 102.8773 107.75579 110.19506 114.91248 119.78329 122.22256 124.80756 127.2468 132.49352 138.1084 143.46251 146.0475 148.48674 153.36525 155.80449 160.683 165.56154"
         y="210.06404"
         sodipodi:role="line"
         id="tspan374"
         style="stroke-width:0.76706">140 ep / AUC: 0.489</tspan></text><text
       style="font-variant:normal;font-weight:normal;font-size:7.6706px;font-family:'DejaVu Sans';-inkscape-font-specification:DejaVuSans;writing-mode:lr-tb;fill:#000000;fill-opacity:1;fill-rule:nonzero;stroke:none;stroke-width:0.76706"
       id="text382"
       x="93.120285"
       y="221.31825"><tspan
         x="93.120285 97.998795 102.8773 107.75579 110.19506 114.91248 119.78329 122.22256 124.80756 127.2468 132.49352 138.1084 143.46251 146.0475 148.48674 153.36525 155.80449 160.683 165.56154"
         y="221.31825"
         sodipodi:role="line"
         id="tspan380"
         style="stroke-width:0.76706">160 ep / AUC: 0.491</tspan></text><text
       style="font-variant:normal;font-weight:normal;font-size:7.6706px;font-family:'DejaVu Sans';-inkscape-font-specification:DejaVuSans;writing-mode:lr-tb;fill:#000000;fill-opacity:1;fill-rule:nonzero;stroke:none;stroke-width:0.76706"
       id="text388"
       x="93.120285"
       y="232.57248"><tspan
         x="93.120285 96.127167 99.27977 103.98188 108.84502 112.8414 115.54145 120.2589 123.41151 125.85075 131.7955 138.41524 143.29375 148.17226 153.05077 157.92924 162.80775 165.24702 167.83202 170.27126 175.51796 181.13286 186.48692 189.07195 191.51118 196.38969 198.82893 203.70744 208.58595"
         y="232.57248"
         sodipodi:role="line"
         id="tspan386"
         style="stroke-width:0.76706">transfer GM12878 / AUC: 0.786</tspan></text></g></svg>
