<?xml version="1.0" encoding="UTF-8" standalone="no"?>
<svg
   xmlns:dc="http://purl.org/dc/elements/1.1/"
   xmlns:cc="http://creativecommons.org/ns#"
   xmlns:rdf="http://www.w3.org/1999/02/22-rdf-syntax-ns#"
   xmlns:svg="http://www.w3.org/2000/svg"
   xmlns="http://www.w3.org/2000/svg"
   xmlns:sodipodi="http://sodipodi.sourceforge.net/DTD/sodipodi-0.dtd"
   xmlns:inkscape="http://www.inkscape.org/namespaces/inkscape"
   version="1.1"
   id="svg2"
   xml:space="preserve"
   width="80mm"
   height="65.300003mm"
   viewBox="0 0 302.36219 246.80316"
   sodipodi:docname="pearson_chr17.svg"
   inkscape:version="1.0.2 (1.0.2+r75+1)"><metadata
     id="metadata8"><rdf:RDF><cc:Work
         rdf:about=""><dc:format>image/svg+xml</dc:format><dc:type
           rdf:resource="http://purl.org/dc/dcmitype/StillImage" /><dc:title></dc:title></cc:Work></rdf:RDF></metadata><defs
     id="defs6"><clipPath
       clipPathUnits="userSpaceOnUse"
       id="clipPath22"><path
         d="M 57.6,38.016 H 414.72 V 304.128 H 57.6 Z"
         id="path20" /></clipPath><clipPath
       clipPathUnits="userSpaceOnUse"
       id="clipPath40"><path
         d="M 57.6,38.016 H 414.72 V 304.128 H 57.6 Z"
         id="path38" /></clipPath><clipPath
       clipPathUnits="userSpaceOnUse"
       id="clipPath58"><path
         d="M 57.6,38.016 H 414.72 V 304.128 H 57.6 Z"
         id="path56" /></clipPath><clipPath
       clipPathUnits="userSpaceOnUse"
       id="clipPath76"><path
         d="M 57.6,38.016 H 414.72 V 304.128 H 57.6 Z"
         id="path74" /></clipPath><clipPath
       clipPathUnits="userSpaceOnUse"
       id="clipPath94"><path
         d="M 57.6,38.016 H 414.72 V 304.128 H 57.6 Z"
         id="path92" /></clipPath><clipPath
       clipPathUnits="userSpaceOnUse"
       id="clipPath112"><path
         d="M 57.6,38.016 H 414.72 V 304.128 H 57.6 Z"
         id="path110" /></clipPath><clipPath
       clipPathUnits="userSpaceOnUse"
       id="clipPath130"><path
         d="M 57.6,38.016 H 414.72 V 304.128 H 57.6 Z"
         id="path128" /></clipPath><clipPath
       clipPathUnits="userSpaceOnUse"
       id="clipPath148"><path
         d="M 57.6,38.016 H 414.72 V 304.128 H 57.6 Z"
         id="path146" /></clipPath><clipPath
       clipPathUnits="userSpaceOnUse"
       id="clipPath170"><path
         d="M 57.6,38.016 H 414.72 V 304.128 H 57.6 Z"
         id="path168" /></clipPath><clipPath
       clipPathUnits="userSpaceOnUse"
       id="clipPath188"><path
         d="M 57.6,38.016 H 414.72 V 304.128 H 57.6 Z"
         id="path186" /></clipPath><clipPath
       clipPathUnits="userSpaceOnUse"
       id="clipPath206"><path
         d="M 57.6,38.016 H 414.72 V 304.128 H 57.6 Z"
         id="path204" /></clipPath><clipPath
       clipPathUnits="userSpaceOnUse"
       id="clipPath224"><path
         d="M 57.6,38.016 H 414.72 V 304.128 H 57.6 Z"
         id="path222" /></clipPath><clipPath
       clipPathUnits="userSpaceOnUse"
       id="clipPath242"><path
         d="M 57.6,38.016 H 414.72 V 304.128 H 57.6 Z"
         id="path240" /></clipPath><clipPath
       clipPathUnits="userSpaceOnUse"
       id="clipPath260"><path
         d="M 57.6,38.016 H 414.72 V 304.128 H 57.6 Z"
         id="path258" /></clipPath><clipPath
       clipPathUnits="userSpaceOnUse"
       id="clipPath282"><path
         d="M 57.6,38.016 H 414.72 V 304.128 H 57.6 Z"
         id="path280" /></clipPath><clipPath
       clipPathUnits="userSpaceOnUse"
       id="clipPath292"><path
         d="M 57.6,38.016 H 414.72 V 304.128 H 57.6 Z"
         id="path290" /></clipPath><clipPath
       clipPathUnits="userSpaceOnUse"
       id="clipPath302"><path
         d="M 57.6,38.016 H 414.72 V 304.128 H 57.6 Z"
         id="path300" /></clipPath><clipPath
       clipPathUnits="userSpaceOnUse"
       id="clipPath312"><path
         d="M 57.6,38.016 H 414.72 V 304.128 H 57.6 Z"
         id="path310" /></clipPath><clipPath
       clipPathUnits="userSpaceOnUse"
       id="clipPath322"><path
         d="M 57.6,38.016 H 414.72 V 304.128 H 57.6 Z"
         id="path320" /></clipPath><clipPath
       clipPathUnits="userSpaceOnUse"
       id="clipPath332"><path
         d="M 57.6,38.016 H 414.72 V 304.128 H 57.6 Z"
         id="path330" /></clipPath></defs><sodipodi:namedview
     pagecolor="#ffffff"
     bordercolor="#666666"
     borderopacity="1"
     objecttolerance="10"
     gridtolerance="10"
     guidetolerance="10"
     inkscape:pageopacity="0"
     inkscape:pageshadow="2"
     inkscape:window-width="1920"
     inkscape:window-height="1020"
     id="namedview4"
     showgrid="false"
     units="mm"
     fit-margin-top="0"
     fit-margin-left="0"
     fit-margin-right="0"
     fit-margin-bottom="0"
     inkscape:zoom="2.6301672"
     inkscape:cx="140.11178"
     inkscape:cy="153.46159"
     inkscape:window-x="0"
     inkscape:window-y="0"
     inkscape:window-maximized="1"
     inkscape:current-layer="layer1" /><g
     id="g10"
     inkscape:groupmode="layer"
     inkscape:label="pearson_chr17"
     transform="matrix(1.3333333,0,0,-1.3333333,-28.023958,443.59358)"><path
       d="m 53.695509,173.28775 h 11.50436"
       style="fill:none;stroke:#d62728;stroke-width:0.862827;stroke-linecap:square;stroke-linejoin:round;stroke-miterlimit:10;stroke-dasharray:none;stroke-opacity:1"
       id="path384" /><g
       id="g16"
       transform="matrix(0.57521787,0,0,0.57521787,8.9280578,141.96452)"><g
         id="g18"
         clip-path="url(#clipPath22)"><path
           d="M 57.6,38.016 V 304.128"
           style="fill:none;stroke:#b0b0b0;stroke-width:0.8;stroke-linecap:square;stroke-linejoin:round;stroke-miterlimit:10;stroke-dasharray:none;stroke-opacity:1"
           id="path24" /></g></g><path
       d="m 42.060607,163.83201 v -2.01327"
       style="fill:#000000;fill-opacity:1;fill-rule:nonzero;stroke:#000000;stroke-width:0.460174;stroke-linecap:butt;stroke-linejoin:round;stroke-miterlimit:10;stroke-dasharray:none;stroke-opacity:1"
       id="path28" /><g
       id="g34"
       transform="matrix(0.57521787,0,0,0.57521787,8.9280578,141.96452)"><g
         id="g36"
         clip-path="url(#clipPath40)"><path
           d="M 102.94857,38.016 V 304.128"
           style="fill:none;stroke:#b0b0b0;stroke-width:0.8;stroke-linecap:square;stroke-linejoin:round;stroke-miterlimit:10;stroke-dasharray:none;stroke-opacity:1"
           id="path42" /></g></g><path
       d="m 68.145915,163.83201 v -2.01327"
       style="fill:#000000;fill-opacity:1;fill-rule:nonzero;stroke:#000000;stroke-width:0.460174;stroke-linecap:butt;stroke-linejoin:round;stroke-miterlimit:10;stroke-dasharray:none;stroke-opacity:1"
       id="path46" /><g
       id="g52"
       transform="matrix(0.57521787,0,0,0.57521787,8.9280578,141.96452)"><g
         id="g54"
         clip-path="url(#clipPath58)"><path
           d="M 148.29714,38.016 V 304.128"
           style="fill:none;stroke:#b0b0b0;stroke-width:0.8;stroke-linecap:square;stroke-linejoin:round;stroke-miterlimit:10;stroke-dasharray:none;stroke-opacity:1"
           id="path60" /></g></g><path
       d="m 94.231222,163.83201 v -2.01327"
       style="fill:#000000;fill-opacity:1;fill-rule:nonzero;stroke:#000000;stroke-width:0.460174;stroke-linecap:butt;stroke-linejoin:round;stroke-miterlimit:10;stroke-dasharray:none;stroke-opacity:1"
       id="path64" /><g
       id="g70"
       transform="matrix(0.57521787,0,0,0.57521787,8.9280578,141.96452)"><g
         id="g72"
         clip-path="url(#clipPath76)"><path
           d="M 193.64571,38.016 V 304.128"
           style="fill:none;stroke:#b0b0b0;stroke-width:0.8;stroke-linecap:square;stroke-linejoin:round;stroke-miterlimit:10;stroke-dasharray:none;stroke-opacity:1"
           id="path78" /></g></g><path
       d="m 120.31653,163.83201 v -2.01327"
       style="fill:#000000;fill-opacity:1;fill-rule:nonzero;stroke:#000000;stroke-width:0.460174;stroke-linecap:butt;stroke-linejoin:round;stroke-miterlimit:10;stroke-dasharray:none;stroke-opacity:1"
       id="path82" /><g
       id="g88"
       transform="matrix(0.57521787,0,0,0.57521787,8.9280578,141.96452)"><g
         id="g90"
         clip-path="url(#clipPath94)"><path
           d="M 238.99429,38.016 V 304.128"
           style="fill:none;stroke:#b0b0b0;stroke-width:0.8;stroke-linecap:square;stroke-linejoin:round;stroke-miterlimit:10;stroke-dasharray:none;stroke-opacity:1"
           id="path96" /></g></g><path
       d="m 146.40184,163.83201 v -2.01327"
       style="fill:#000000;fill-opacity:1;fill-rule:nonzero;stroke:#000000;stroke-width:0.460174;stroke-linecap:butt;stroke-linejoin:round;stroke-miterlimit:10;stroke-dasharray:none;stroke-opacity:1"
       id="path100" /><g
       id="g106"
       transform="matrix(0.57521787,0,0,0.57521787,8.9280578,141.96452)"><g
         id="g108"
         clip-path="url(#clipPath112)"><path
           d="M 284.34286,38.016 V 304.128"
           style="fill:none;stroke:#b0b0b0;stroke-width:0.8;stroke-linecap:square;stroke-linejoin:round;stroke-miterlimit:10;stroke-dasharray:none;stroke-opacity:1"
           id="path114" /></g></g><path
       d="m 172.48715,163.83201 v -2.01327"
       style="fill:#000000;fill-opacity:1;fill-rule:nonzero;stroke:#000000;stroke-width:0.460174;stroke-linecap:butt;stroke-linejoin:round;stroke-miterlimit:10;stroke-dasharray:none;stroke-opacity:1"
       id="path118" /><g
       id="g124"
       transform="matrix(0.57521787,0,0,0.57521787,8.9280578,141.96452)"><g
         id="g126"
         clip-path="url(#clipPath130)"><path
           d="M 329.69143,38.016 V 304.128"
           style="fill:none;stroke:#b0b0b0;stroke-width:0.8;stroke-linecap:square;stroke-linejoin:round;stroke-miterlimit:10;stroke-dasharray:none;stroke-opacity:1"
           id="path132" /></g></g><path
       d="m 198.57246,163.83201 v -2.01327"
       style="fill:#000000;fill-opacity:1;fill-rule:nonzero;stroke:#000000;stroke-width:0.460174;stroke-linecap:butt;stroke-linejoin:round;stroke-miterlimit:10;stroke-dasharray:none;stroke-opacity:1"
       id="path136" /><g
       id="g142"
       transform="matrix(0.57521787,0,0,0.57521787,8.9280578,141.96452)"><g
         id="g144"
         clip-path="url(#clipPath148)"><path
           d="M 375.04,38.016 V 304.128"
           style="fill:none;stroke:#b0b0b0;stroke-width:0.8;stroke-linecap:square;stroke-linejoin:round;stroke-miterlimit:10;stroke-dasharray:none;stroke-opacity:1"
           id="path150" /></g></g><path
       d="m 224.65776,163.83201 v -2.01327"
       style="fill:#000000;fill-opacity:1;fill-rule:nonzero;stroke:#000000;stroke-width:0.460174;stroke-linecap:butt;stroke-linejoin:round;stroke-miterlimit:10;stroke-dasharray:none;stroke-opacity:1"
       id="path154" /><g
       id="g164"
       transform="matrix(0.57521787,0,0,0.57521787,8.9280578,141.96452)"><g
         id="g166"
         clip-path="url(#clipPath170)"><path
           d="M 57.6,38.016 H 414.72"
           style="fill:none;stroke:#b0b0b0;stroke-width:0.8;stroke-linecap:square;stroke-linejoin:round;stroke-miterlimit:10;stroke-dasharray:none;stroke-opacity:1"
           id="path172" /></g></g><path
       d="M 42.060607,163.83201 H 40.047344"
       style="fill:#000000;fill-opacity:1;fill-rule:nonzero;stroke:#000000;stroke-width:0.460174;stroke-linecap:butt;stroke-linejoin:round;stroke-miterlimit:10;stroke-dasharray:none;stroke-opacity:1"
       id="path176" /><g
       id="g182"
       transform="matrix(0.57521787,0,0,0.57521787,8.9280578,141.96452)"><g
         id="g184"
         clip-path="url(#clipPath188)"><path
           d="M 57.6,91.2384 H 414.72"
           style="fill:none;stroke:#b0b0b0;stroke-width:0.8;stroke-linecap:square;stroke-linejoin:round;stroke-miterlimit:10;stroke-dasharray:none;stroke-opacity:1"
           id="path190" /></g></g><path
       d="M 42.060607,194.44648 H 40.047344"
       style="fill:#000000;fill-opacity:1;fill-rule:nonzero;stroke:#000000;stroke-width:0.460174;stroke-linecap:butt;stroke-linejoin:round;stroke-miterlimit:10;stroke-dasharray:none;stroke-opacity:1"
       id="path194" /><g
       id="g200"
       transform="matrix(0.57521787,0,0,0.57521787,8.9280578,141.96452)"><g
         id="g202"
         clip-path="url(#clipPath206)"><path
           d="M 57.6,144.4608 H 414.72"
           style="fill:none;stroke:#b0b0b0;stroke-width:0.8;stroke-linecap:square;stroke-linejoin:round;stroke-miterlimit:10;stroke-dasharray:none;stroke-opacity:1"
           id="path208" /></g></g><path
       d="M 42.060607,225.06096 H 40.047344"
       style="fill:#000000;fill-opacity:1;fill-rule:nonzero;stroke:#000000;stroke-width:0.460174;stroke-linecap:butt;stroke-linejoin:round;stroke-miterlimit:10;stroke-dasharray:none;stroke-opacity:1"
       id="path212" /><g
       id="g218"
       transform="matrix(0.57521787,0,0,0.57521787,8.9280578,141.96452)"><g
         id="g220"
         clip-path="url(#clipPath224)"><path
           d="M 57.6,197.6832 H 414.72"
           style="fill:none;stroke:#b0b0b0;stroke-width:0.8;stroke-linecap:square;stroke-linejoin:round;stroke-miterlimit:10;stroke-dasharray:none;stroke-opacity:1"
           id="path226" /></g></g><path
       d="M 42.060607,255.67543 H 40.047344"
       style="fill:#000000;fill-opacity:1;fill-rule:nonzero;stroke:#000000;stroke-width:0.460174;stroke-linecap:butt;stroke-linejoin:round;stroke-miterlimit:10;stroke-dasharray:none;stroke-opacity:1"
       id="path230" /><g
       id="g236"
       transform="matrix(0.57521787,0,0,0.57521787,8.9280578,141.96452)"><g
         id="g238"
         clip-path="url(#clipPath242)"><path
           d="M 57.6,250.9056 H 414.72"
           style="fill:none;stroke:#b0b0b0;stroke-width:0.8;stroke-linecap:square;stroke-linejoin:round;stroke-miterlimit:10;stroke-dasharray:none;stroke-opacity:1"
           id="path244" /></g></g><path
       d="M 42.060607,286.2899 H 40.047344"
       style="fill:#000000;fill-opacity:1;fill-rule:nonzero;stroke:#000000;stroke-width:0.460174;stroke-linecap:butt;stroke-linejoin:round;stroke-miterlimit:10;stroke-dasharray:none;stroke-opacity:1"
       id="path248" /><g
       id="g254"
       transform="matrix(0.57521787,0,0,0.57521787,8.9280578,141.96452)"><g
         id="g256"
         clip-path="url(#clipPath260)"><path
           d="M 57.6,304.128 H 414.72"
           style="fill:none;stroke:#b0b0b0;stroke-width:0.8;stroke-linecap:square;stroke-linejoin:round;stroke-miterlimit:10;stroke-dasharray:none;stroke-opacity:1"
           id="path262" /></g></g><path
       d="M 42.060607,316.90438 H 40.047344"
       style="fill:#000000;fill-opacity:1;fill-rule:nonzero;stroke:#000000;stroke-width:0.460174;stroke-linecap:butt;stroke-linejoin:round;stroke-miterlimit:10;stroke-dasharray:none;stroke-opacity:1"
       id="path266" /><g
       id="g278"
       clip-path="url(#clipPath282)"
       transform="matrix(0.57521787,0,0,0.57521787,8.9280578,141.96452)"><path
         d="m 57.6,267.07473 5.668571,0.19018 5.668572,-6.73984 5.668571,-0.78012 5.668572,-1.21619 5.668571,1.00638 5.668572,0.50271 5.668571,-2.75825 5.66857,1.30364 5.66857,-2.17131 5.66857,0.61913 5.66858,-1.64264 5.66857,-0.39929 5.66857,-0.88353 5.66857,-3.65976 5.66857,2.32111 5.66857,0.57317 5.66857,-2.45054 5.66858,-0.31919 5.66857,-2.95015 5.66857,4.35836 5.66857,-4.20969 5.66857,-2.88396 5.66857,1.85894 5.66857,2.77437 5.66858,-0.23085 5.66857,-2.41269 5.66857,-5.01335 5.66857,-3.79241 5.66857,3.21134 5.66857,-2.99894 5.66857,-0.8356 5.66858,0.50963 5.66857,1.99035 5.66857,-4.1763 5.66857,-0.28311 5.66857,-0.0275 5.66857,-0.65283 5.66857,-1.7036 5.66858,0.86442 5.66857,-2.61891 5.66857,-2.55366 5.66857,-2.12627 5.66857,-2.67534 5.66857,-1.88297 5.66857,-0.53187 5.66858,-3.96913 5.66857,0.93092 5.66857,-2.37128 5.66857,-5.57751 5.66857,3.87813 5.66857,-3.17024 5.66857,-2.28358 5.66858,-1.59058 5.66857,-7.47133 5.66857,-54.74098 L 375.04,50.874232 379.03232,-1"
         style="fill:none;stroke:#1f77b4;stroke-width:1.5;stroke-linecap:square;stroke-linejoin:round;stroke-miterlimit:10;stroke-dasharray:none;stroke-opacity:1"
         id="path284" /></g><g
       id="g288"
       clip-path="url(#clipPath292)"
       transform="matrix(0.57521787,0,0,0.57521787,8.9280578,141.96452)"><path
         d="m 57.6,268.13114 5.668571,-0.32974 5.668572,-5.69673 5.668571,-0.79806 5.668572,-0.72504 5.668571,1.06002 5.668572,-0.72672 5.668571,-1.50321 5.66857,0.19707 5.66857,-1.30143 5.66857,0.0776 5.66858,-1.67246 5.66857,-0.66065 5.66857,-0.94285 5.66857,-3.59898 5.66857,2.33486 5.66857,0.36479 5.66857,-1.89439 5.66858,-0.26479 5.66857,-2.44953 5.66857,3.91001 5.66857,-2.92271 5.66857,-1.98032 5.66857,0.74105 5.66857,1.68243 5.66858,-0.0108 5.66857,-2.15211 5.66857,-4.53189 5.66857,-3.86818 5.66857,3.13741 5.66857,-1.93993 5.66857,-1.44503 5.66858,-0.50939 5.66857,1.57597 5.66857,-4.45921 5.66857,-1.10544 5.66857,0.0245 5.66857,-0.51315 5.66857,-1.57821 5.66858,0.52077 5.66857,-2.94033 5.66857,-1.84306 5.66857,-2.03159 5.66857,-2.92742 5.66857,-2.03408 5.66857,-0.87022 5.66858,-3.05009 5.66857,0.56698 5.66857,-2.04734 5.66857,-4.29401 5.66857,3.3614 5.66857,-2.49925 5.66857,-3.20391 5.66858,0.21579 5.66857,-4.07631 5.66857,-7.53588 L 375.04,111.19437 380.70857,30.299972 386.37714,0.296827 386.78109,-1"
         style="fill:none;stroke:#ff7f0e;stroke-width:1.5;stroke-linecap:square;stroke-linejoin:round;stroke-miterlimit:10;stroke-dasharray:none;stroke-opacity:1"
         id="path294" /></g><g
       id="g298"
       clip-path="url(#clipPath302)"
       transform="matrix(0.57521787,0,0,0.57521787,8.9280578,141.96452)"><path
         d="m 57.6,268.49588 5.668571,-0.77163 5.668572,-5.47327 5.668571,-1.01911 5.668572,-0.67322 5.668571,1.24473 5.668572,-0.54218 5.668571,-1.45734 5.66857,0.1543 5.66857,-0.99278 5.66857,-0.23826 5.66858,-0.84721 5.66857,-0.68477 5.66857,-0.46544 5.66857,-3.51756 5.66857,2.82833 5.66857,0.47502 5.66857,-1.66175 5.66858,-0.61803 5.66857,-1.90937 5.66857,3.59404 5.66857,-3.37812 5.66857,-2.54186 5.66857,0.54028 5.66857,2.24066 5.66858,-0.47012 5.66857,-1.45967 5.66857,-4.03769 5.66857,-3.91432 5.66857,3.06227 5.66857,-2.13761 5.66857,-0.17784 5.66858,-0.8662 5.66857,0.72276 5.66857,-4.16234 5.66857,-0.70982 5.66857,0.6881 5.66857,-1.38685 5.66857,-0.9406 5.66858,-0.0525 5.66857,-2.14368 5.66857,-1.50598 5.66857,-1.81271 5.66857,-3.69626 5.66857,-2.5576 5.66857,-0.52672 5.66858,-3.15801 5.66857,0.9377 5.66857,-2.17531 5.66857,-4.96232 5.66857,3.80776 5.66857,-3.55929 5.66857,-2.02881 5.66858,-0.11327 5.66857,-3.56083 5.66857,-6.68721 L 375.04,123.08383 380.70857,34.837675 386.37714,7.355786 388.23029,-1"
         style="fill:none;stroke:#2ca02c;stroke-width:1.5;stroke-linecap:square;stroke-linejoin:round;stroke-miterlimit:10;stroke-dasharray:none;stroke-opacity:1"
         id="path304" /></g><g
       id="g308"
       clip-path="url(#clipPath312)"
       style="stroke:#8c564b;stroke-opacity:1"
       transform="matrix(0.57521787,0,0,0.57521787,8.9280578,141.96452)"><path
         d="m 57.6,269.23042 5.668571,-1.04487 5.668572,-4.82128 5.668571,-1.18212 5.668572,-0.35675 5.668571,0.88567 5.668572,-0.62593 5.668571,-1.43616 5.66857,0.0737 5.66857,-0.76695 5.66857,-0.39405 5.66858,-0.90418 5.66857,-0.72998 5.66857,-6e-4 5.66857,-3.35752 5.66857,2.92535 5.66857,0.33037 5.66857,-1.67848 5.66858,-1.07386 5.66857,-1.78555 5.66857,3.57823 5.66857,-2.85305 5.66857,-2.81434 5.66857,0.8089 5.66857,2.04211 5.66858,0.15963 5.66857,-2.18329 5.66857,-3.7588 5.66857,-4.33806 5.66857,3.57942 5.66857,-1.6711 5.66857,-1.034 5.66858,-1.45084 5.66857,0.3218 5.66857,-3.94541 5.66857,-1.11157 5.66857,1.09165 5.66857,-1.70278 5.66857,-0.77299 5.66858,-0.29668 5.66857,-2.21133 5.66857,-2.06699 5.66857,-1.73156 5.66857,-3.55799 5.66857,-1.64377 5.66857,-1.47617 5.66858,-3.21692 5.66857,0.56321 5.66857,-1.21572 5.66857,-5.36176 5.66857,2.9828 5.66857,-4.20663 5.66857,-2.24631 5.66858,-0.0144 5.66857,-4.52724 5.66857,-4.91243 5.66857,-87.21811 5.66857,-15.040243 5.66857,-10.3688 L 390.74545,-1"
         style="fill:none;stroke:#8c564b;stroke-width:1.5;stroke-linecap:square;stroke-linejoin:round;stroke-miterlimit:10;stroke-dasharray:none;stroke-opacity:1"
         id="path314" /></g><g
       id="g318"
       clip-path="url(#clipPath322)"
       transform="matrix(0.57521787,0,0,0.57521787,8.9280578,141.96452)"><path
         d="m 57.6,270.02067 5.668571,-1.09663 5.668572,-4.68194 5.668571,-1.07934 5.668572,-0.54594 5.668571,1.08471 5.668572,-0.50789 5.668571,-1.39783 5.66857,0.0206 5.66857,-0.50754 5.66857,-0.82243 5.66858,-0.84518 5.66857,-0.94383 5.66857,-0.13602 5.66857,-3.49236 5.66857,3.08135 5.66857,0.24971 5.66857,-1.67918 5.66858,-1.2453 5.66857,-2.13299 5.66857,3.8292 5.66857,-2.55351 5.66857,-2.49706 5.66857,0.70357 5.66857,2.50206 5.66858,-0.14404 5.66857,-3.05807 5.66857,-2.85699 5.66857,-3.38507 5.66857,2.80385 5.66857,-1.60705 5.66857,-0.67624 5.66858,-1.18376 5.66857,0.14191 5.66857,-3.51407 5.66857,-1.20689 5.66857,1.14068 5.66857,-2.06399 5.66857,-0.57912 5.66858,-0.48198 5.66857,-2.29163 5.66857,-1.56716 5.66857,-2.45533 5.66857,-3.87697 5.66857,-1.52848 5.66857,-0.77264 5.66858,-3.36255 5.66857,0.47989 5.66857,-1.2078 5.66857,-6.04997 5.66857,3.85561 5.66857,-3.53114 5.66857,-2.23119 5.66858,0.28262 5.66857,-4.61212 5.66857,-1.83392 L 375.04,180.3311 380.70857,164.43138 386.37714,51.893625 391.28962,-1"
         style="fill:none;stroke:#9467bd;stroke-width:1.5;stroke-linecap:square;stroke-linejoin:round;stroke-miterlimit:10;stroke-dasharray:none;stroke-opacity:1"
         id="path324" /></g><g
       id="g328"
       clip-path="url(#clipPath332)"
       style="stroke:#d62728;stroke-opacity:1"
       transform="matrix(0.57521787,0,0,0.57521787,8.9280578,141.96452)"><path
         d="m 57.6,277.52718 5.668571,-5.10261 5.668572,-3.30527 5.668571,1.61667 5.668572,1.69047 5.668571,0.64688 5.668572,-1.04499 5.668571,-2.68412 5.66857,0.46869 5.66857,-0.50041 5.66857,-0.71317 5.66858,-0.85661 5.66857,-0.68175 5.66857,-2.35903 5.66857,-3.09363 5.66857,3.95107 5.66857,-0.74809 5.66857,-0.70124 5.66858,2.4258 5.66857,-1.9467 5.66857,-4.3011 5.66857,-0.17583 5.66857,-3.03645 5.66857,-1.19213 5.66857,4.01171 5.66858,-0.0452 5.66857,-4.73208 5.66857,1.64522 5.66857,-3.41021 5.66857,-1.27748 5.66857,-0.0868 5.66857,-3.0561 5.66858,-2.338 5.66857,-2.61076 5.66857,-4.8948 5.66857,5.25652 5.66857,-2.67279 5.66857,2.97221 5.66857,1.60339 5.66858,-4.35351 5.66857,-1.22218 5.66857,0.2893 5.66857,-2.16846 5.66857,-5.56479 5.66857,-2.18725 5.66857,3.70572 5.66858,-4.12975 5.66857,-2.647 5.66857,-4.29678 5.66857,3.45825 5.66857,-1.30424 5.66857,-1.33758 5.66857,4.53127 5.66858,-8.01111 5.66857,1.85718 5.66857,0.6508 5.66857,-1.67591 5.66857,-0.5043 5.66857,-0.39208 5.66857,2.98423 5.66858,-1.86757 5.66857,0.76511 5.66857,0.32209 5.66857,-4.92042"
         style="fill:none;stroke:#d62728;stroke-width:1.5;stroke-linecap:square;stroke-linejoin:round;stroke-miterlimit:10;stroke-dasharray:none;stroke-opacity:1"
         id="path334" /></g><path
       d="M 42.060607,163.83201 V 316.90438"
       style="fill:none;stroke:#000000;stroke-width:0.460174;stroke-linecap:square;stroke-linejoin:miter;stroke-miterlimit:10;stroke-dasharray:none;stroke-opacity:1"
       id="path338" /><path
       d="M 247.48241,163.83201 V 316.90438"
       style="fill:none;stroke:#000000;stroke-width:0.460174;stroke-linecap:square;stroke-linejoin:miter;stroke-miterlimit:10;stroke-dasharray:none;stroke-opacity:1"
       id="path340" /><path
       d="M 42.060607,163.83201 H 247.48241"
       style="fill:none;stroke:#000000;stroke-width:0.460174;stroke-linecap:square;stroke-linejoin:miter;stroke-miterlimit:10;stroke-dasharray:none;stroke-opacity:1"
       id="path342" /><path
       d="M 42.060607,316.90438 H 247.48241"
       style="fill:none;stroke:#000000;stroke-width:0.460174;stroke-linecap:square;stroke-linejoin:miter;stroke-miterlimit:10;stroke-dasharray:none;stroke-opacity:1"
       id="path344" /><path
       d="m 53.695509,215.48538 h 11.50436"
       style="fill:none;stroke:#1f77b4;stroke-width:0.862827;stroke-linecap:square;stroke-linejoin:round;stroke-miterlimit:10;stroke-dasharray:none;stroke-opacity:1"
       id="path354" /><path
       d="m 53.695509,207.04585 h 11.50436"
       style="fill:none;stroke:#ff7f0e;stroke-width:0.862827;stroke-linecap:square;stroke-linejoin:round;stroke-miterlimit:10;stroke-dasharray:none;stroke-opacity:1"
       id="path360" /><path
       d="m 53.695509,198.60632 h 11.50436"
       style="fill:none;stroke:#2ca02c;stroke-width:0.862827;stroke-linecap:square;stroke-linejoin:round;stroke-miterlimit:10;stroke-dasharray:none;stroke-opacity:1"
       id="path366" /><path
       d="m 53.695509,190.1668 h 11.50436"
       style="fill:none;stroke:#8c564b;stroke-width:0.862827;stroke-linecap:square;stroke-linejoin:round;stroke-miterlimit:10;stroke-dasharray:none;stroke-opacity:1"
       id="path372" /><path
       d="m 53.695509,181.72727 h 11.50436"
       style="fill:none;stroke:#9467bd;stroke-width:0.862827;stroke-linecap:square;stroke-linejoin:round;stroke-miterlimit:10;stroke-dasharray:none;stroke-opacity:1"
       id="path378" /></g><g
     inkscape:groupmode="layer"
     id="layer1"
     inkscape:label="text"
     transform="translate(-28.023958,-17.206424)"><text
       style="font-variant:normal;font-weight:normal;font-size:7.66958px;font-family:'DejaVu Sans';-inkscape-font-specification:DejaVuSans;writing-mode:lr-tb;fill:#000000;fill-opacity:1;fill-rule:nonzero;stroke:none;stroke-width:0.766958"
       id="text388"
       x="93.068832"
       y="232.43407"><tspan
         x="93.068832 96.075287 99.227478 103.92894 108.79144 112.78729 115.48697 120.20377 123.35596 125.79486 131.73878 138.35764 143.23549 148.11331 152.99118 157.86902 162.74689 165.18582 167.77045 170.20938 175.45532 181.06949 186.42285 189.00748 191.44641 196.32428 198.76318 203.64102 208.51889"
         y="232.43407"
         sodipodi:role="line"
         id="tspan386"
         style="stroke-width:0.766958">transfer GM12878 / AUC: 0.787</tspan></text><text
       style="font-variant:normal;font-weight:normal;font-size:7.66958px;font-family:'DejaVu Sans';-inkscape-font-specification:DejaVuSans;writing-mode:lr-tb;fill:#000000;fill-opacity:1;fill-rule:nonzero;stroke:none;stroke-width:0.766958"
       id="text32"
       x="53.981102"
       y="253.54999"><tspan
         x="53.981102 58.858948 61.297871"
         y="253.54999"
         sodipodi:role="line"
         id="tspan30"
         style="stroke-width:0.766958">0.0</tspan></text><text
       style="font-variant:normal;font-weight:normal;font-size:7.66958px;font-family:'DejaVu Sans';-inkscape-font-specification:DejaVuSans;writing-mode:lr-tb;fill:#000000;fill-opacity:1;fill-rule:nonzero;stroke:none;stroke-width:0.766958"
       id="text50"
       x="84.761513"
       y="253.54999"><tspan
         x="84.761513 89.639366 92.078285"
         y="253.54999"
         sodipodi:role="line"
         id="tspan48"
         style="stroke-width:0.766958">0.2</tspan></text><text
       style="font-variant:normal;font-weight:normal;font-size:7.66958px;font-family:'DejaVu Sans';-inkscape-font-specification:DejaVuSans;writing-mode:lr-tb;fill:#000000;fill-opacity:1;fill-rule:nonzero;stroke:none;stroke-width:0.766958"
       id="text68"
       x="119.54192"
       y="253.54999"><tspan
         x="119.54192 124.41978 126.85869"
         y="253.54999"
         sodipodi:role="line"
         id="tspan66"
         style="stroke-width:0.766958">0.4</tspan></text><text
       style="font-variant:normal;font-weight:normal;font-size:7.66958px;font-family:'DejaVu Sans';-inkscape-font-specification:DejaVuSans;writing-mode:lr-tb;fill:#000000;fill-opacity:1;fill-rule:nonzero;stroke:none;stroke-width:0.766958"
       id="text86"
       x="154.32234"
       y="253.54999"><tspan
         x="154.32234 159.20018 161.6391"
         y="253.54999"
         sodipodi:role="line"
         id="tspan84"
         style="stroke-width:0.766958">0.6</tspan></text><text
       style="font-variant:normal;font-weight:normal;font-size:7.66958px;font-family:'DejaVu Sans';-inkscape-font-specification:DejaVuSans;writing-mode:lr-tb;fill:#000000;fill-opacity:1;fill-rule:nonzero;stroke:none;stroke-width:0.766958"
       id="text104"
       x="189.10274"
       y="253.54999"><tspan
         x="189.10274 193.98058 196.41951"
         y="253.54999"
         sodipodi:role="line"
         id="tspan102"
         style="stroke-width:0.766958">0.8</tspan></text><text
       style="font-variant:normal;font-weight:normal;font-size:7.66958px;font-family:'DejaVu Sans';-inkscape-font-specification:DejaVuSans;writing-mode:lr-tb;fill:#000000;fill-opacity:1;fill-rule:nonzero;stroke:none;stroke-width:0.766958"
       id="text122"
       x="223.88316"
       y="253.54999"><tspan
         x="223.88316 228.76099 231.19991"
         y="253.54999"
         sodipodi:role="line"
         id="tspan120"
         style="stroke-width:0.766958">1.0</tspan></text><text
       style="font-variant:normal;font-weight:normal;font-size:7.66958px;font-family:'DejaVu Sans';-inkscape-font-specification:DejaVuSans;writing-mode:lr-tb;fill:#000000;fill-opacity:1;fill-rule:nonzero;stroke:none;stroke-width:0.766958"
       id="text140"
       x="258.66357"
       y="253.54999"><tspan
         x="258.66357 263.54141 265.98035"
         y="253.54999"
         sodipodi:role="line"
         id="tspan138"
         style="stroke-width:0.766958">1.2</tspan></text><text
       style="font-variant:normal;font-weight:normal;font-size:7.66958px;font-family:'DejaVu Sans';-inkscape-font-specification:DejaVuSans;writing-mode:lr-tb;fill:#000000;fill-opacity:1;fill-rule:nonzero;stroke:none;stroke-width:0.766958"
       id="text158"
       x="293.444"
       y="253.54999"><tspan
         x="293.444 298.32184 300.76074"
         y="253.54999"
         sodipodi:role="line"
         id="tspan156"
         style="stroke-width:0.766958">1.4</tspan></text><text
       style="font-variant:normal;font-weight:normal;font-size:7.66958px;font-family:'DejaVu Sans';-inkscape-font-specification:DejaVuSans;writing-mode:lr-tb;fill:#000000;fill-opacity:1;fill-rule:nonzero;stroke:none;stroke-width:0.766958"
       id="text162"
       x="146.6098"
       y="264.03589"><tspan
         x="146.6098 152.55371 157.27049 162.133 166.82678 174.29695 176.42908 180.64734 183.08627 187.95644 190.08858 194.08444 197.0909 201.79236 206.65486 210.87314 215.58992 218.02884 220.61349 223.0524 229.67125 234.54143"
         y="264.03589"
         sodipodi:role="line"
         id="tspan160"
         style="stroke-width:0.766958">Genomic distance / Mbp</tspan></text><text
       style="font-variant:normal;font-weight:normal;font-size:7.66958px;font-family:'DejaVu Sans';-inkscape-font-specification:DejaVuSans;writing-mode:lr-tb;fill:#000000;fill-opacity:1;fill-rule:nonzero;stroke:none;stroke-width:0.766958"
       id="text180"
       x="38.512695"
       y="245.26926"><tspan
         x="38.512695 43.390545 45.829468"
         y="245.26926"
         sodipodi:role="line"
         id="tspan178"
         style="stroke-width:0.766958">0.0</tspan></text><text
       style="font-variant:normal;font-weight:normal;font-size:7.66958px;font-family:'DejaVu Sans';-inkscape-font-specification:DejaVuSans;writing-mode:lr-tb;fill:#000000;fill-opacity:1;fill-rule:nonzero;stroke:none;stroke-width:0.766958"
       id="text198"
       x="38.512695"
       y="204.44995"><tspan
         x="38.512695 43.390545 45.829468"
         y="204.44995"
         sodipodi:role="line"
         id="tspan196"
         style="stroke-width:0.766958">0.2</tspan></text><text
       style="font-variant:normal;font-weight:normal;font-size:7.66958px;font-family:'DejaVu Sans';-inkscape-font-specification:DejaVuSans;writing-mode:lr-tb;fill:#000000;fill-opacity:1;fill-rule:nonzero;stroke:none;stroke-width:0.766958"
       id="text216"
       x="38.512695"
       y="163.63066"><tspan
         x="38.512695 43.390545 45.829468"
         y="163.63066"
         sodipodi:role="line"
         id="tspan214"
         style="stroke-width:0.766958">0.4</tspan></text><text
       style="font-variant:normal;font-weight:normal;font-size:7.66958px;font-family:'DejaVu Sans';-inkscape-font-specification:DejaVuSans;writing-mode:lr-tb;fill:#000000;fill-opacity:1;fill-rule:nonzero;stroke:none;stroke-width:0.766958"
       id="text234"
       x="38.512695"
       y="122.81145"><tspan
         x="38.512695 43.390545 45.829468"
         y="122.81145"
         sodipodi:role="line"
         id="tspan232"
         style="stroke-width:0.766958">0.6</tspan></text><text
       style="font-variant:normal;font-weight:normal;font-size:7.66958px;font-family:'DejaVu Sans';-inkscape-font-specification:DejaVuSans;writing-mode:lr-tb;fill:#000000;fill-opacity:1;fill-rule:nonzero;stroke:none;stroke-width:0.766958"
       id="text252"
       x="38.512695"
       y="81.992134"><tspan
         x="38.512695 43.390545 45.829468"
         y="81.992134"
         sodipodi:role="line"
         id="tspan250"
         style="stroke-width:0.766958">0.8</tspan></text><text
       style="font-variant:normal;font-weight:normal;font-size:7.66958px;font-family:'DejaVu Sans';-inkscape-font-specification:DejaVuSans;writing-mode:lr-tb;fill:#000000;fill-opacity:1;fill-rule:nonzero;stroke:none;stroke-width:0.766958"
       id="text270"
       x="38.512695"
       y="41.172802"><tspan
         x="38.512695 43.390545 45.829468"
         y="41.172802"
         sodipodi:role="line"
         id="tspan268"
         style="stroke-width:0.766958">1.0</tspan></text><text
       transform="rotate(-90)"
       style="font-variant:normal;font-weight:normal;font-size:7.66958px;font-family:'DejaVu Sans';-inkscape-font-specification:DejaVuSans;writing-mode:lr-tb;fill:#000000;fill-opacity:1;fill-rule:nonzero;stroke:none;stroke-width:0.766958"
       id="text274"
       x="-177.36259"
       y="33.851036"><tspan
         x="-177.36259 -172.73782 -168.02106 -163.3196 -160.1674 -156.17155 -151.47778 -146.61528 -144.17636 -139.95808 -135.2643 -132.11211 -128.95992 -124.24319 -122.11105 -117.40961 -114.40318 -112.27106 -107.57722"
         y="33.851036"
         sodipodi:role="line"
         id="tspan272"
         style="stroke-width:0.766958">Pearson correlation</tspan></text><text
       style="font-variant:normal;font-weight:normal;font-size:9.20349px;font-family:'DejaVu Sans';-inkscape-font-specification:DejaVuSans;writing-mode:lr-tb;fill:#000000;fill-opacity:1;fill-rule:nonzero;stroke:none;stroke-width:0.766958"
       id="text348"
       x="98.315453"
       y="23.343458"><tspan
         x="98.315453 103.86516 109.52531 115.16705 118.94967 123.74469 129.37723 135.21223 138.13895 143.20085 148.8334 152.61604 156.39865 162.05881 164.61737 170.25911 173.86687 176.42545 182.05798 187.89299 190.8197 196.26816 201.06317 203.98988 206.9166 212.7608 218.42096 224.25594 229.88849 238.85268 241.41125 246.47318 249.39989 255.24408 257.80267 262.59766 266.20544 271.84717 277.68219 282.74411"
         y="23.343458"
         sodipodi:role="line"
         id="tspan346"
         style="stroke-width:0.766958">Pearson correlation vs. genomic distance</tspan></text><text
       style="font-variant:normal;font-weight:normal;font-size:9.20349px;font-family:'DejaVu Sans';-inkscape-font-specification:DejaVuSans;writing-mode:lr-tb;fill:#000000;fill-opacity:1;fill-rule:nonzero;stroke:none;stroke-width:0.766958"
       id="text352"
       x="61.054813"
       y="33.659019"><tspan
         x="61.054813 68.187515 76.130127 81.983536 87.836952 93.690361 99.543793 105.39719 108.32391 111.25062 117.10403 120.03075 125.88416 128.81088 134.66429 137.591 143.44443 146.37112 152.22453 155.15125 161.00467 166.85808 169.78479 175.6382 181.49162 184.41833 190.27174 196.12517 199.05186 204.90529 210.75871 213.68542 219.53883 225.39227 228.31895 234.17239 240.0258 242.95251 248.80592 254.65936 257.58603 263.43948 269.29288 272.2196 277.85211 283.68713 286.61386 292.65134 298.50476 304.35818 310.21158 313.13831 316.065 321.91843"
         y="33.659019"
         sodipodi:role="line"
         id="tspan350"
         style="stroke-width:0.766958">GM12878, 1,2,4,7,9,11,13,14,16,17,18,20,22 on K562, 17</tspan></text><text
       style="font-variant:normal;font-weight:normal;font-size:7.66958px;font-family:'DejaVu Sans';-inkscape-font-specification:DejaVuSans;writing-mode:lr-tb;fill:#000000;fill-opacity:1;fill-rule:nonzero;stroke:none;stroke-width:0.766958"
       id="text358"
       x="93.068832"
       y="176.1705"><tspan
         x="93.068832 97.946671 102.82452 105.26344 109.98021 114.8504 117.28932 119.87396 122.31291 127.55888 133.17302 138.52637 141.11101 143.54994 148.4278 150.8667 155.74457 160.62241"
         y="176.1705"
         sodipodi:role="line"
         id="tspan356"
         style="stroke-width:0.766958">80 ep / AUC: 0.640</tspan></text><text
       style="font-variant:normal;font-weight:normal;font-size:7.66958px;font-family:'DejaVu Sans';-inkscape-font-specification:DejaVuSans;writing-mode:lr-tb;fill:#000000;fill-opacity:1;fill-rule:nonzero;stroke:none;stroke-width:0.766958"
       id="text364"
       x="93.068832"
       y="187.4232"><tspan
         x="93.068832 97.946671 102.82452 107.70236 110.14128 114.85808 119.72824 122.16718 124.75183 127.19075 132.43672 138.05084 143.40424 145.98886 148.4278 153.30566 155.74457 160.62241 165.50024"
         y="187.4232"
         sodipodi:role="line"
         id="tspan362"
         style="stroke-width:0.766958">100 ep / AUC: 0.659</tspan></text><text
       style="font-variant:normal;font-weight:normal;font-size:7.66958px;font-family:'DejaVu Sans';-inkscape-font-specification:DejaVuSans;writing-mode:lr-tb;fill:#000000;fill-opacity:1;fill-rule:nonzero;stroke:none;stroke-width:0.766958"
       id="text370"
       x="93.068832"
       y="198.67595"><tspan
         x="93.068832 97.946671 102.82452 107.70236 110.14128 114.85808 119.72824 122.16718 124.75183 127.19075 132.43672 138.05084 143.40424 145.98886 148.4278 153.30566 155.74457 160.62241 165.50024"
         y="198.67595"
         sodipodi:role="line"
         id="tspan368"
         style="stroke-width:0.766958">120 ep / AUC: 0.667</tspan></text><text
       style="font-variant:normal;font-weight:normal;font-size:7.66958px;font-family:'DejaVu Sans';-inkscape-font-specification:DejaVuSans;writing-mode:lr-tb;fill:#000000;fill-opacity:1;fill-rule:nonzero;stroke:none;stroke-width:0.766958"
       id="text376"
       x="93.068832"
       y="209.92865"><tspan
         x="93.068832 97.946671 102.82452 107.70236 110.14128 114.85808 119.72824 122.16718 124.75183 127.19075 132.43672 138.05084 143.40424 145.98886 148.4278 153.30566 155.74457 160.62241 165.50024"
         y="209.92865"
         sodipodi:role="line"
         id="tspan374"
         style="stroke-width:0.766958">140 ep / AUC: 0.674</tspan></text><text
       style="font-variant:normal;font-weight:normal;font-size:7.66958px;font-family:'DejaVu Sans';-inkscape-font-specification:DejaVuSans;writing-mode:lr-tb;fill:#000000;fill-opacity:1;fill-rule:nonzero;stroke:none;stroke-width:0.766958"
       id="text382"
       x="93.068832"
       y="221.18134"><tspan
         x="93.068832 97.946671 102.82452 107.70236 110.14128 114.85808 119.72824 122.16718 124.75183 127.19075 132.43672 138.05084 143.40424 145.98886 148.4278 153.30566 155.74457 160.62241 165.50024"
         y="221.18134"
         sodipodi:role="line"
         id="tspan380"
         style="stroke-width:0.766958">160 ep / AUC: 0.685</tspan></text></g></svg>
