<?xml version="1.0" encoding="UTF-8" standalone="no"?>
<svg
   xmlns:dc="http://purl.org/dc/elements/1.1/"
   xmlns:cc="http://creativecommons.org/ns#"
   xmlns:rdf="http://www.w3.org/1999/02/22-rdf-syntax-ns#"
   xmlns:svg="http://www.w3.org/2000/svg"
   xmlns="http://www.w3.org/2000/svg"
   xmlns:sodipodi="http://sodipodi.sourceforge.net/DTD/sodipodi-0.dtd"
   xmlns:inkscape="http://www.inkscape.org/namespaces/inkscape"
   version="1.1"
   id="svg2"
   xml:space="preserve"
   width="80mm"
   height="65.300003mm"
   viewBox="0 0 302.36219 246.80316"
   sodipodi:docname="pearson_chr21.svg"
   inkscape:version="1.0.2 (1.0.2+r75+1)"><metadata
     id="metadata8"><rdf:RDF><cc:Work
         rdf:about=""><dc:format>image/svg+xml</dc:format><dc:type
           rdf:resource="http://purl.org/dc/dcmitype/StillImage" /><dc:title></dc:title></cc:Work></rdf:RDF></metadata><defs
     id="defs6"><clipPath
       clipPathUnits="userSpaceOnUse"
       id="clipPath22"><path
         d="M 57.6,38.016 H 414.72 V 304.128 H 57.6 Z"
         id="path20" /></clipPath><clipPath
       clipPathUnits="userSpaceOnUse"
       id="clipPath40"><path
         d="M 57.6,38.016 H 414.72 V 304.128 H 57.6 Z"
         id="path38" /></clipPath><clipPath
       clipPathUnits="userSpaceOnUse"
       id="clipPath58"><path
         d="M 57.6,38.016 H 414.72 V 304.128 H 57.6 Z"
         id="path56" /></clipPath><clipPath
       clipPathUnits="userSpaceOnUse"
       id="clipPath76"><path
         d="M 57.6,38.016 H 414.72 V 304.128 H 57.6 Z"
         id="path74" /></clipPath><clipPath
       clipPathUnits="userSpaceOnUse"
       id="clipPath94"><path
         d="M 57.6,38.016 H 414.72 V 304.128 H 57.6 Z"
         id="path92" /></clipPath><clipPath
       clipPathUnits="userSpaceOnUse"
       id="clipPath112"><path
         d="M 57.6,38.016 H 414.72 V 304.128 H 57.6 Z"
         id="path110" /></clipPath><clipPath
       clipPathUnits="userSpaceOnUse"
       id="clipPath130"><path
         d="M 57.6,38.016 H 414.72 V 304.128 H 57.6 Z"
         id="path128" /></clipPath><clipPath
       clipPathUnits="userSpaceOnUse"
       id="clipPath148"><path
         d="M 57.6,38.016 H 414.72 V 304.128 H 57.6 Z"
         id="path146" /></clipPath><clipPath
       clipPathUnits="userSpaceOnUse"
       id="clipPath170"><path
         d="M 57.6,38.016 H 414.72 V 304.128 H 57.6 Z"
         id="path168" /></clipPath><clipPath
       clipPathUnits="userSpaceOnUse"
       id="clipPath188"><path
         d="M 57.6,38.016 H 414.72 V 304.128 H 57.6 Z"
         id="path186" /></clipPath><clipPath
       clipPathUnits="userSpaceOnUse"
       id="clipPath206"><path
         d="M 57.6,38.016 H 414.72 V 304.128 H 57.6 Z"
         id="path204" /></clipPath><clipPath
       clipPathUnits="userSpaceOnUse"
       id="clipPath224"><path
         d="M 57.6,38.016 H 414.72 V 304.128 H 57.6 Z"
         id="path222" /></clipPath><clipPath
       clipPathUnits="userSpaceOnUse"
       id="clipPath242"><path
         d="M 57.6,38.016 H 414.72 V 304.128 H 57.6 Z"
         id="path240" /></clipPath><clipPath
       clipPathUnits="userSpaceOnUse"
       id="clipPath260"><path
         d="M 57.6,38.016 H 414.72 V 304.128 H 57.6 Z"
         id="path258" /></clipPath><clipPath
       clipPathUnits="userSpaceOnUse"
       id="clipPath282"><path
         d="M 57.6,38.016 H 414.72 V 304.128 H 57.6 Z"
         id="path280" /></clipPath><clipPath
       clipPathUnits="userSpaceOnUse"
       id="clipPath292"><path
         d="M 57.6,38.016 H 414.72 V 304.128 H 57.6 Z"
         id="path290" /></clipPath><clipPath
       clipPathUnits="userSpaceOnUse"
       id="clipPath302"><path
         d="M 57.6,38.016 H 414.72 V 304.128 H 57.6 Z"
         id="path300" /></clipPath><clipPath
       clipPathUnits="userSpaceOnUse"
       id="clipPath312"><path
         d="M 57.6,38.016 H 414.72 V 304.128 H 57.6 Z"
         id="path310" /></clipPath><clipPath
       clipPathUnits="userSpaceOnUse"
       id="clipPath322"><path
         d="M 57.6,38.016 H 414.72 V 304.128 H 57.6 Z"
         id="path320" /></clipPath><clipPath
       clipPathUnits="userSpaceOnUse"
       id="clipPath332"><path
         d="M 57.6,38.016 H 414.72 V 304.128 H 57.6 Z"
         id="path330" /></clipPath></defs><sodipodi:namedview
     pagecolor="#ffffff"
     bordercolor="#666666"
     borderopacity="1"
     objecttolerance="10"
     gridtolerance="10"
     guidetolerance="10"
     inkscape:pageopacity="0"
     inkscape:pageshadow="2"
     inkscape:window-width="1920"
     inkscape:window-height="1020"
     id="namedview4"
     showgrid="false"
     fit-margin-top="0"
     fit-margin-left="0"
     fit-margin-right="0"
     fit-margin-bottom="0"
     units="mm"
     inkscape:zoom="2.6301672"
     inkscape:cx="221.47228"
     inkscape:cy="136.37237"
     inkscape:window-x="0"
     inkscape:window-y="0"
     inkscape:window-maximized="1"
     inkscape:current-layer="layer1" /><g
     id="g10"
     inkscape:groupmode="layer"
     inkscape:label="pearson_chr21"
     transform="matrix(1.3333333,0,0,-1.3333333,-28.023958,443.59358)"><g
       id="g328"
       clip-path="url(#clipPath332)"
       style="stroke:#d62728;stroke-opacity:1"
       transform="matrix(0.57536128,0,0,0.57536128,8.9250434,141.98806)"><path
         d="m 57.6,289.79076 5.668571,-7.78541 5.668572,-4.33434 5.668571,-1.33192 5.668572,-1.98102 5.668571,1.44608 5.668572,-0.87307 5.668571,-0.49112 5.66857,0.0761 5.66857,-0.4491 5.66857,3.76149 5.66858,-3.26655 5.66857,2.00984 5.66857,-1.67862 5.66857,-2.16124 5.66857,2.04623 5.66857,-2.13284 5.66857,3.15862 5.66858,-1.12324 5.66857,-1.58083 5.66857,-3.95531 5.66857,-1.19075 5.66857,-2.52338 5.66857,-1.22892 5.66857,2.84865 5.66858,-0.81444 5.66857,1.02032 5.66857,-2.44576 5.66857,1.25196 5.66857,1.21796 5.66857,-0.80819 5.66857,-4.60198 5.66858,4.42983 5.66857,-0.92774 5.66857,-1.14548 5.66857,1.44211 5.66857,-3.22653 5.66857,-0.0284 5.66857,3.98517 5.66858,-5.30989 5.66857,4.66157 5.66857,-3.53861 5.66857,3.5509 5.66857,3.95749 5.66857,3.4502 5.66857,-6.58525 5.66858,2.41022 5.66857,-0.55346 5.66857,1.77459 5.66857,-1.48678 5.66857,-6.10031 5.66857,4.59318 5.66857,-2.68526 5.66858,1.72599 5.66857,0.45505 5.66857,-1.36795 5.66857,-3.43089 5.66857,0.92592 5.66857,-3.01047 5.66857,-4.9939 5.66858,-1.686 5.66857,0.87888 5.66857,0.63212 5.66857,-3.49209"
         style="fill:none;stroke:#d62728;stroke-width:1.5;stroke-linecap:square;stroke-linejoin:round;stroke-miterlimit:10;stroke-dasharray:none;stroke-opacity:1"
         id="path334" /></g><g
       id="g16"
       transform="matrix(0.57536128,0,0,0.57536128,8.9250434,141.98806)"><g
         id="g18"
         clip-path="url(#clipPath22)"><path
           d="M 57.6,38.016 V 304.128"
           style="fill:none;stroke:#b0b0b0;stroke-width:0.8;stroke-linecap:square;stroke-linejoin:round;stroke-miterlimit:10;stroke-dasharray:none;stroke-opacity:1"
           id="path24" /></g></g><path
       d="m 42.065853,163.861 v -2.01377"
       style="fill:#000000;fill-opacity:1;fill-rule:nonzero;stroke:#000000;stroke-width:0.460289;stroke-linecap:butt;stroke-linejoin:round;stroke-miterlimit:10;stroke-dasharray:none;stroke-opacity:1"
       id="path28" /><g
       id="g34"
       transform="matrix(0.57536128,0,0,0.57536128,8.9250434,141.98806)"><g
         id="g36"
         clip-path="url(#clipPath40)"><path
           d="M 102.94857,38.016 V 304.128"
           style="fill:none;stroke:#b0b0b0;stroke-width:0.8;stroke-linecap:square;stroke-linejoin:round;stroke-miterlimit:10;stroke-dasharray:none;stroke-opacity:1"
           id="path42" /></g></g><path
       d="m 68.157665,163.861 v -2.01377"
       style="fill:#000000;fill-opacity:1;fill-rule:nonzero;stroke:#000000;stroke-width:0.460289;stroke-linecap:butt;stroke-linejoin:round;stroke-miterlimit:10;stroke-dasharray:none;stroke-opacity:1"
       id="path46" /><g
       id="g52"
       transform="matrix(0.57536128,0,0,0.57536128,8.9250434,141.98806)"><g
         id="g54"
         clip-path="url(#clipPath58)"><path
           d="M 148.29714,38.016 V 304.128"
           style="fill:none;stroke:#b0b0b0;stroke-width:0.8;stroke-linecap:square;stroke-linejoin:round;stroke-miterlimit:10;stroke-dasharray:none;stroke-opacity:1"
           id="path60" /></g></g><path
       d="m 94.249476,163.861 v -2.01377"
       style="fill:#000000;fill-opacity:1;fill-rule:nonzero;stroke:#000000;stroke-width:0.460289;stroke-linecap:butt;stroke-linejoin:round;stroke-miterlimit:10;stroke-dasharray:none;stroke-opacity:1"
       id="path64" /><g
       id="g70"
       transform="matrix(0.57536128,0,0,0.57536128,8.9250434,141.98806)"><g
         id="g72"
         clip-path="url(#clipPath76)"><path
           d="M 193.64571,38.016 V 304.128"
           style="fill:none;stroke:#b0b0b0;stroke-width:0.8;stroke-linecap:square;stroke-linejoin:round;stroke-miterlimit:10;stroke-dasharray:none;stroke-opacity:1"
           id="path78" /></g></g><path
       d="m 120.34129,163.861 v -2.01377"
       style="fill:#000000;fill-opacity:1;fill-rule:nonzero;stroke:#000000;stroke-width:0.460289;stroke-linecap:butt;stroke-linejoin:round;stroke-miterlimit:10;stroke-dasharray:none;stroke-opacity:1"
       id="path82" /><g
       id="g88"
       transform="matrix(0.57536128,0,0,0.57536128,8.9250434,141.98806)"><g
         id="g90"
         clip-path="url(#clipPath94)"><path
           d="M 238.99429,38.016 V 304.128"
           style="fill:none;stroke:#b0b0b0;stroke-width:0.8;stroke-linecap:square;stroke-linejoin:round;stroke-miterlimit:10;stroke-dasharray:none;stroke-opacity:1"
           id="path96" /></g></g><path
       d="m 146.4331,163.861 v -2.01377"
       style="fill:#000000;fill-opacity:1;fill-rule:nonzero;stroke:#000000;stroke-width:0.460289;stroke-linecap:butt;stroke-linejoin:round;stroke-miterlimit:10;stroke-dasharray:none;stroke-opacity:1"
       id="path100" /><g
       id="g106"
       transform="matrix(0.57536128,0,0,0.57536128,8.9250434,141.98806)"><g
         id="g108"
         clip-path="url(#clipPath112)"><path
           d="M 284.34286,38.016 V 304.128"
           style="fill:none;stroke:#b0b0b0;stroke-width:0.8;stroke-linecap:square;stroke-linejoin:round;stroke-miterlimit:10;stroke-dasharray:none;stroke-opacity:1"
           id="path114" /></g></g><path
       d="m 172.52491,163.861 v -2.01377"
       style="fill:#000000;fill-opacity:1;fill-rule:nonzero;stroke:#000000;stroke-width:0.460289;stroke-linecap:butt;stroke-linejoin:round;stroke-miterlimit:10;stroke-dasharray:none;stroke-opacity:1"
       id="path118" /><g
       id="g124"
       transform="matrix(0.57536128,0,0,0.57536128,8.9250434,141.98806)"><g
         id="g126"
         clip-path="url(#clipPath130)"><path
           d="M 329.69143,38.016 V 304.128"
           style="fill:none;stroke:#b0b0b0;stroke-width:0.8;stroke-linecap:square;stroke-linejoin:round;stroke-miterlimit:10;stroke-dasharray:none;stroke-opacity:1"
           id="path132" /></g></g><path
       d="m 198.61673,163.861 v -2.01377"
       style="fill:#000000;fill-opacity:1;fill-rule:nonzero;stroke:#000000;stroke-width:0.460289;stroke-linecap:butt;stroke-linejoin:round;stroke-miterlimit:10;stroke-dasharray:none;stroke-opacity:1"
       id="path136" /><g
       id="g142"
       transform="matrix(0.57536128,0,0,0.57536128,8.9250434,141.98806)"><g
         id="g144"
         clip-path="url(#clipPath148)"><path
           d="M 375.04,38.016 V 304.128"
           style="fill:none;stroke:#b0b0b0;stroke-width:0.8;stroke-linecap:square;stroke-linejoin:round;stroke-miterlimit:10;stroke-dasharray:none;stroke-opacity:1"
           id="path150" /></g></g><path
       d="m 224.70854,163.861 v -2.01377"
       style="fill:#000000;fill-opacity:1;fill-rule:nonzero;stroke:#000000;stroke-width:0.460289;stroke-linecap:butt;stroke-linejoin:round;stroke-miterlimit:10;stroke-dasharray:none;stroke-opacity:1"
       id="path154" /><g
       id="g164"
       transform="matrix(0.57536128,0,0,0.57536128,8.9250434,141.98806)"><g
         id="g166"
         clip-path="url(#clipPath170)"><path
           d="M 57.6,38.016 H 414.72"
           style="fill:none;stroke:#b0b0b0;stroke-width:0.8;stroke-linecap:square;stroke-linejoin:round;stroke-miterlimit:10;stroke-dasharray:none;stroke-opacity:1"
           id="path172" /></g></g><path
       d="M 42.065853,163.861 H 40.052089"
       style="fill:#000000;fill-opacity:1;fill-rule:nonzero;stroke:#000000;stroke-width:0.460289;stroke-linecap:butt;stroke-linejoin:round;stroke-miterlimit:10;stroke-dasharray:none;stroke-opacity:1"
       id="path176" /><g
       id="g182"
       transform="matrix(0.57536128,0,0,0.57536128,8.9250434,141.98806)"><g
         id="g184"
         clip-path="url(#clipPath188)"><path
           d="M 57.6,91.2384 H 414.72"
           style="fill:none;stroke:#b0b0b0;stroke-width:0.8;stroke-linecap:square;stroke-linejoin:round;stroke-miterlimit:10;stroke-dasharray:none;stroke-opacity:1"
           id="path190" /></g></g><path
       d="M 42.065853,194.4831 H 40.052089"
       style="fill:#000000;fill-opacity:1;fill-rule:nonzero;stroke:#000000;stroke-width:0.460289;stroke-linecap:butt;stroke-linejoin:round;stroke-miterlimit:10;stroke-dasharray:none;stroke-opacity:1"
       id="path194" /><g
       id="g200"
       transform="matrix(0.57536128,0,0,0.57536128,8.9250434,141.98806)"><g
         id="g202"
         clip-path="url(#clipPath206)"><path
           d="M 57.6,144.4608 H 414.72"
           style="fill:none;stroke:#b0b0b0;stroke-width:0.8;stroke-linecap:square;stroke-linejoin:round;stroke-miterlimit:10;stroke-dasharray:none;stroke-opacity:1"
           id="path208" /></g></g><path
       d="M 42.065853,225.10521 H 40.052089"
       style="fill:#000000;fill-opacity:1;fill-rule:nonzero;stroke:#000000;stroke-width:0.460289;stroke-linecap:butt;stroke-linejoin:round;stroke-miterlimit:10;stroke-dasharray:none;stroke-opacity:1"
       id="path212" /><g
       id="g218"
       transform="matrix(0.57536128,0,0,0.57536128,8.9250434,141.98806)"><g
         id="g220"
         clip-path="url(#clipPath224)"><path
           d="M 57.6,197.6832 H 414.72"
           style="fill:none;stroke:#b0b0b0;stroke-width:0.8;stroke-linecap:square;stroke-linejoin:round;stroke-miterlimit:10;stroke-dasharray:none;stroke-opacity:1"
           id="path226" /></g></g><path
       d="M 42.065853,255.72732 H 40.052089"
       style="fill:#000000;fill-opacity:1;fill-rule:nonzero;stroke:#000000;stroke-width:0.460289;stroke-linecap:butt;stroke-linejoin:round;stroke-miterlimit:10;stroke-dasharray:none;stroke-opacity:1"
       id="path230" /><g
       id="g236"
       transform="matrix(0.57536128,0,0,0.57536128,8.9250434,141.98806)"><g
         id="g238"
         clip-path="url(#clipPath242)"><path
           d="M 57.6,250.9056 H 414.72"
           style="fill:none;stroke:#b0b0b0;stroke-width:0.8;stroke-linecap:square;stroke-linejoin:round;stroke-miterlimit:10;stroke-dasharray:none;stroke-opacity:1"
           id="path244" /></g></g><path
       d="M 42.065853,286.34942 H 40.052089"
       style="fill:#000000;fill-opacity:1;fill-rule:nonzero;stroke:#000000;stroke-width:0.460289;stroke-linecap:butt;stroke-linejoin:round;stroke-miterlimit:10;stroke-dasharray:none;stroke-opacity:1"
       id="path248" /><g
       id="g254"
       transform="matrix(0.57536128,0,0,0.57536128,8.9250434,141.98806)"><g
         id="g256"
         clip-path="url(#clipPath260)"><path
           d="M 57.6,304.128 H 414.72"
           style="fill:none;stroke:#b0b0b0;stroke-width:0.8;stroke-linecap:square;stroke-linejoin:round;stroke-miterlimit:10;stroke-dasharray:none;stroke-opacity:1"
           id="path262" /></g></g><path
       d="M 42.065853,316.97154 H 40.052089"
       style="fill:#000000;fill-opacity:1;fill-rule:nonzero;stroke:#000000;stroke-width:0.460289;stroke-linecap:butt;stroke-linejoin:round;stroke-miterlimit:10;stroke-dasharray:none;stroke-opacity:1"
       id="path266" /><g
       id="g278"
       clip-path="url(#clipPath282)"
       transform="matrix(0.57536128,0,0,0.57536128,8.9250434,141.98806)"><path
         d="m 57.6,149.79874 5.668571,-5.40556 5.668572,-7.40459 5.668571,-3.86191 5.668572,-1.2092 5.668571,-1.18739 5.668572,1.99426 5.668571,-2.30995 5.66857,4.09759 5.66857,4.16582 5.66857,0.68873 5.66858,2.65626 5.66857,5.28396 5.66857,1.3231 5.66857,2.72071 5.66857,-0.7323 5.66857,1.60631 5.66857,-2.41725 5.66858,-3.5309 5.66857,1.20419 5.66857,4.17901 5.66857,3.95035 5.66857,4.52135 5.66857,-3.90659 5.66857,-1.07578 5.66858,-3.95916 5.66857,0.39709 5.66857,-3.00348 5.66857,2.32913 5.66857,0.41861 5.66857,-2.523 5.66857,-2.32465 5.66858,-1.70487 5.66857,-3.30752 5.66857,-1.37208 5.66857,-1.3544 5.66857,1.46061 5.66857,-5.91166 5.66857,3.09447 5.66858,-4.67313 5.66857,3.33997 5.66857,-1.62843 5.66857,1.52638 5.66857,1.35691 5.66857,-4.26247 5.66857,1.30983 5.66858,1.87298 5.66857,-1.06512 5.66857,-7.29196 5.66857,-9.70017 5.66857,-7.21325 5.66857,-18.468526 5.66857,-37.379442 L 357.31479,-1"
         style="fill:none;stroke:#1f77b4;stroke-width:1.5;stroke-linecap:square;stroke-linejoin:round;stroke-miterlimit:10;stroke-dasharray:none;stroke-opacity:1"
         id="path284" /></g><g
       id="g288"
       clip-path="url(#clipPath292)"
       transform="matrix(0.57536128,0,0,0.57536128,8.9250434,141.98806)"><path
         d="m 57.6,163.88026 5.668571,1.83343 5.668572,-6.02208 5.668571,-2.41127 5.668572,-1.41629 5.668571,0.63024 5.668572,3.43967 5.668571,-2.23767 5.66857,2.01144 5.66857,3.71793 5.66857,-1.43145 5.66858,2.13193 5.66857,3.54099 5.66857,3.11155 5.66857,2.95222 5.66857,1.89718 5.66857,4.02815 5.66857,-0.78961 5.66858,-5.11831 5.66857,0.85129 5.66857,1.91366 5.66857,3.49397 5.66857,2.70417 5.66857,-2.72174 5.66857,-1.70608 5.66858,-3.26657 5.66857,0.44834 5.66857,-2.60747 5.66857,-0.24059 5.66857,-1.51584 5.66857,-5.21113 5.66857,-3.27904 5.66858,-3.32951 5.66857,-2.35559 5.66857,-1.46418 5.66857,1.67564 5.66857,-0.45602 5.66857,-5.13128 5.66857,0.32668 5.66858,-3.23272 5.66857,2.87498 5.66857,-0.36306 5.66857,-0.44145 5.66857,0.56355 5.66857,-2.12523 5.66857,0.56082 5.66858,0.95885 5.66857,0.54485 5.66857,-2.61651 5.66857,-1.19072 5.66857,2.61707 5.66857,-1.49666 5.66857,-8.86388 5.66858,-5.41657 5.66857,-16.18176 5.66857,-66.576132 L 373.80222,-1"
         style="fill:none;stroke:#ff7f0e;stroke-width:1.5;stroke-linecap:square;stroke-linejoin:round;stroke-miterlimit:10;stroke-dasharray:none;stroke-opacity:1"
         id="path294" /></g><g
       id="g298"
       clip-path="url(#clipPath302)"
       transform="matrix(0.57536128,0,0,0.57536128,8.9250434,141.98806)"><path
         d="m 57.6,176.48415 5.668571,9.53569 5.668572,-3.9806 5.668571,-1.82861 5.668572,-1.78898 5.668571,0.48099 5.668572,2.66487 5.668571,-5.22364 5.66857,0.081 5.66857,4.89378 5.66857,-0.19889 5.66858,4.20919 5.66857,4.32813 5.66857,2.16354 5.66857,0.214 5.66857,0.70836 5.66857,4.17737 5.66857,1.14166 5.66858,-3.96569 5.66857,1.59368 5.66857,-0.5571 5.66857,2.74872 5.66857,0.50178 5.66857,-3.25789 5.66857,-1.69222 5.66858,-1.79819 5.66857,1.55283 5.66857,-2.63365 5.66857,0.26814 5.66857,-1.03753 5.66857,-4.97972 5.66857,-3.67477 5.66858,-3.32611 5.66857,-2.91017 5.66857,-2.38865 5.66857,0.81634 5.66857,-0.23382 5.66857,-3.21486 5.66857,0.82338 5.66858,-2.7326 5.66857,2.97654 5.66857,-1.5551 5.66857,-0.20169 5.66857,-0.7686 5.66857,-1.26376 5.66857,1.92367 5.66858,0.36736 5.66857,-0.0111 5.66857,-3.11066 5.66857,-1.97917 5.66857,1.18698 5.66857,-0.26091 5.66857,-4.54334 5.66858,-2.14334 5.66857,-6.56647 5.66857,-15.39751 L 375.04,22.21647 377.07646,-1"
         style="fill:none;stroke:#2ca02c;stroke-width:1.5;stroke-linecap:square;stroke-linejoin:round;stroke-miterlimit:10;stroke-dasharray:none;stroke-opacity:1"
         id="path304" /></g><g
       id="g308"
       clip-path="url(#clipPath312)"
       style="stroke:#8c564b;stroke-opacity:1"
       transform="matrix(0.57536128,0,0,0.57536128,8.9250434,141.98806)"><path
         d="m 57.6,184.7256 5.668571,15.77274 5.668572,-2.75239 5.668571,-1.62033 5.668572,-1.1616 5.668571,-0.83806 5.668572,1.70919 5.668571,-6.13074 5.66857,-0.40758 5.66857,4.69291 5.66857,-1.21851 5.66858,2.34966 5.66857,2.15434 5.66857,0.76703 5.66857,-1.45418 5.66857,-1.17742 5.66857,2.55762 5.66857,1.54076 5.66858,-4.37805 5.66857,1.23707 5.66857,-2.02646 5.66857,1.16936 5.66857,0.38044 5.66857,-3.83437 5.66857,-1.83005 5.66858,-2.48185 5.66857,1.57122 5.66857,-3.98557 5.66857,0.50619 5.66857,-2.047 5.66857,-3.44192 5.66857,-4.11178 5.66858,-2.60944 5.66857,-3.47605 5.66857,-2.42482 5.66857,0.63357 5.66857,1.07275 5.66857,-3.92873 5.66857,0.53415 5.66858,-2.46057 5.66857,2.95412 5.66857,-1.9249 5.66857,-1.30075 5.66857,-1.76313 5.66857,-0.29684 5.66857,0.69457 5.66858,0.86071 5.66857,-0.65617 5.66857,-2.2458 5.66857,-3.35912 5.66857,3.46574 5.66857,-0.27664 5.66857,-1.6972 5.66858,2.26522 5.66857,-6.97323 5.66857,-3.9251 L 375.04,67.224802 378.90945,-1"
         style="fill:none;stroke:#8c564b;stroke-width:1.5;stroke-linecap:square;stroke-linejoin:round;stroke-miterlimit:10;stroke-dasharray:none;stroke-opacity:1"
         id="path314" /></g><g
       id="g318"
       clip-path="url(#clipPath322)"
       transform="matrix(0.57536128,0,0,0.57536128,8.9250434,141.98806)"><path
         d="m 57.6,197.07224 5.668571,18.1318 5.668572,-1.14657 5.668571,-1.79976 5.668572,-1.02092 5.668571,-1.53338 5.668572,1.23452 5.668571,-6.22317 5.66857,-1.57867 5.66857,3.36302 5.66857,-2.33349 5.66858,1.50814 5.66857,2.42794 5.66857,1.04245 5.66857,-1.93182 5.66857,-1.24719 5.66857,2.16845 5.66857,0.96139 5.66858,-4.67366 5.66857,0.37818 5.66857,-2.52361 5.66857,0.62721 5.66857,-0.29126 5.66857,-4.18525 5.66857,-1.64376 5.66858,-2.79873 5.66857,1.75772 5.66857,-3.71684 5.66857,0.77453 5.66857,-2.05786 5.66857,-3.93885 5.66857,-3.35736 5.66858,-3.26903 5.66857,-3.5316 5.66857,-2.59261 5.66857,0.63101 5.66857,-0.17696 5.66857,-4.82274 5.66857,-0.0565 5.66858,-2.69457 5.66857,2.95717 5.66857,-2.4848 5.66857,-0.9732 5.66857,-3.24282 5.66857,0.0489 5.66857,-0.84852 5.66858,-0.4054 5.66857,-2.13279 5.66857,-3.74882 5.66857,-4.45838 5.66857,1.54408 5.66857,-2.89447 5.66857,-3.57087 5.66858,3.91135 5.66857,-4.45944 5.66857,-7.03528 L 375.04,94.536187 379.52636,-1"
         style="fill:none;stroke:#9467bd;stroke-width:1.5;stroke-linecap:square;stroke-linejoin:round;stroke-miterlimit:10;stroke-dasharray:none;stroke-opacity:1"
         id="path324" /></g><path
       d="M 42.065853,163.861 V 316.97154"
       style="fill:none;stroke:#000000;stroke-width:0.460289;stroke-linecap:square;stroke-linejoin:miter;stroke-miterlimit:10;stroke-dasharray:none;stroke-opacity:1"
       id="path338" /><path
       d="M 247.53887,163.861 V 316.97154"
       style="fill:none;stroke:#000000;stroke-width:0.460289;stroke-linecap:square;stroke-linejoin:miter;stroke-miterlimit:10;stroke-dasharray:none;stroke-opacity:1"
       id="path340" /><path
       d="M 42.065853,163.861 H 247.53887"
       style="fill:none;stroke:#000000;stroke-width:0.460289;stroke-linecap:square;stroke-linejoin:miter;stroke-miterlimit:10;stroke-dasharray:none;stroke-opacity:1"
       id="path342" /><path
       d="M 42.065853,316.97154 H 247.53887"
       style="fill:none;stroke:#000000;stroke-width:0.460289;stroke-linecap:square;stroke-linejoin:miter;stroke-miterlimit:10;stroke-dasharray:none;stroke-opacity:1"
       id="path344" /><path
       d="m 53.656668,211.9379 h 11.50723"
       style="fill:none;stroke:#1f77b4;stroke-width:0.863042;stroke-linecap:square;stroke-linejoin:round;stroke-miterlimit:10;stroke-dasharray:none;stroke-opacity:1"
       id="path354" /><path
       d="m 53.656668,203.49627 h 11.50723"
       style="fill:none;stroke:#ff7f0e;stroke-width:0.863042;stroke-linecap:square;stroke-linejoin:round;stroke-miterlimit:10;stroke-dasharray:none;stroke-opacity:1"
       id="path360" /><path
       d="m 53.656668,195.05464 h 11.50723"
       style="fill:none;stroke:#2ca02c;stroke-width:0.863042;stroke-linecap:square;stroke-linejoin:round;stroke-miterlimit:10;stroke-dasharray:none;stroke-opacity:1"
       id="path366" /><path
       d="m 53.656668,186.61301 h 11.50723"
       style="fill:none;stroke:#8c564b;stroke-width:0.863042;stroke-linecap:square;stroke-linejoin:round;stroke-miterlimit:10;stroke-dasharray:none;stroke-opacity:1"
       id="path372" /><path
       d="m 53.656668,178.17138 h 11.50723"
       style="fill:none;stroke:#9467bd;stroke-width:0.863042;stroke-linecap:square;stroke-linejoin:round;stroke-miterlimit:10;stroke-dasharray:none;stroke-opacity:1"
       id="path378" /><path
       d="m 53.656668,169.72976 h 11.50723"
       style="fill:none;stroke:#d62728;stroke-width:0.863042;stroke-linecap:square;stroke-linejoin:round;stroke-miterlimit:10;stroke-dasharray:none;stroke-opacity:1"
       id="path384" /></g><g
     inkscape:groupmode="layer"
     id="layer1"
     inkscape:label="text"
     transform="translate(-28.023958,-17.206424)"
     style="display:inline"><text
       style="font-variant:normal;font-weight:normal;font-size:7.67149px;font-family:'DejaVu Sans';-inkscape-font-specification:DejaVuSans;writing-mode:lr-tb;fill:#000000;fill-opacity:1;fill-rule:nonzero;stroke:none;stroke-width:0.767149"
       id="text32"
       x="53.986576"
       y="253.51404"><tspan
         x="53.986576 58.865635 61.305168"
         y="253.51404"
         sodipodi:role="line"
         id="tspan30"
         style="stroke-width:0.767149">0.0</tspan></text><text
       style="font-variant:normal;font-weight:normal;font-size:7.67149px;font-family:'DejaVu Sans';-inkscape-font-specification:DejaVuSans;writing-mode:lr-tb;fill:#000000;fill-opacity:1;fill-rule:nonzero;stroke:none;stroke-width:0.767149"
       id="text50"
       x="84.775658"
       y="253.51404"><tspan
         x="84.775658 89.654724 92.094254"
         y="253.51404"
         sodipodi:role="line"
         id="tspan48"
         style="stroke-width:0.767149">0.2</tspan></text><text
       style="font-variant:normal;font-weight:normal;font-size:7.67149px;font-family:'DejaVu Sans';-inkscape-font-specification:DejaVuSans;writing-mode:lr-tb;fill:#000000;fill-opacity:1;fill-rule:nonzero;stroke:none;stroke-width:0.767149"
       id="text68"
       x="119.56474"
       y="253.51404"><tspan
         x="119.56474 124.44382 126.88334"
         y="253.51404"
         sodipodi:role="line"
         id="tspan66"
         style="stroke-width:0.767149">0.4</tspan></text><text
       style="font-variant:normal;font-weight:normal;font-size:7.67149px;font-family:'DejaVu Sans';-inkscape-font-specification:DejaVuSans;writing-mode:lr-tb;fill:#000000;fill-opacity:1;fill-rule:nonzero;stroke:none;stroke-width:0.767149"
       id="text86"
       x="154.35382"
       y="253.51404"><tspan
         x="154.35382 159.23288 161.67241"
         y="253.51404"
         sodipodi:role="line"
         id="tspan84"
         style="stroke-width:0.767149">0.6</tspan></text><text
       style="font-variant:normal;font-weight:normal;font-size:7.67149px;font-family:'DejaVu Sans';-inkscape-font-specification:DejaVuSans;writing-mode:lr-tb;fill:#000000;fill-opacity:1;fill-rule:nonzero;stroke:none;stroke-width:0.767149"
       id="text104"
       x="189.1429"
       y="253.51404"><tspan
         x="189.1429 194.02197 196.46149"
         y="253.51404"
         sodipodi:role="line"
         id="tspan102"
         style="stroke-width:0.767149">0.8</tspan></text><text
       style="font-variant:normal;font-weight:normal;font-size:7.67149px;font-family:'DejaVu Sans';-inkscape-font-specification:DejaVuSans;writing-mode:lr-tb;fill:#000000;fill-opacity:1;fill-rule:nonzero;stroke:none;stroke-width:0.767149"
       id="text122"
       x="223.93201"
       y="253.51404"><tspan
         x="223.93201 228.81105 231.25058"
         y="253.51404"
         sodipodi:role="line"
         id="tspan120"
         style="stroke-width:0.767149">1.0</tspan></text><text
       style="font-variant:normal;font-weight:normal;font-size:7.67149px;font-family:'DejaVu Sans';-inkscape-font-specification:DejaVuSans;writing-mode:lr-tb;fill:#000000;fill-opacity:1;fill-rule:nonzero;stroke:none;stroke-width:0.767149"
       id="text140"
       x="258.72107"
       y="253.51404"><tspan
         x="258.72107 263.6001 266.03964"
         y="253.51404"
         sodipodi:role="line"
         id="tspan138"
         style="stroke-width:0.767149">1.2</tspan></text><text
       style="font-variant:normal;font-weight:normal;font-size:7.67149px;font-family:'DejaVu Sans';-inkscape-font-specification:DejaVuSans;writing-mode:lr-tb;fill:#000000;fill-opacity:1;fill-rule:nonzero;stroke:none;stroke-width:0.767149"
       id="text158"
       x="293.51013"
       y="253.51404"><tspan
         x="293.51013 298.38922 300.82874"
         y="253.51404"
         sodipodi:role="line"
         id="tspan156"
         style="stroke-width:0.767149">1.4</tspan></text><text
       style="font-variant:normal;font-weight:normal;font-size:7.67149px;font-family:'DejaVu Sans';-inkscape-font-specification:DejaVuSans;writing-mode:lr-tb;fill:#000000;fill-opacity:1;fill-rule:nonzero;stroke:none;stroke-width:0.767149"
       id="text162"
       x="146.63936"
       y="264.00269"><tspan
         x="146.63936 152.58478 157.30272 162.16644 166.86139 174.3334 176.46608 180.68539 183.12494 187.99631 190.12898 194.12585 197.13306 201.83569 206.6994 210.91872 215.63669 218.0762 220.6615 223.10101 229.72151 234.59293"
         y="264.00269"
         sodipodi:role="line"
         id="tspan160"
         style="stroke-width:0.767149">Genomic distance / Mbp</tspan></text><text
       style="font-variant:normal;font-weight:normal;font-size:7.67149px;font-family:'DejaVu Sans';-inkscape-font-specification:DejaVuSans;writing-mode:lr-tb;fill:#000000;fill-opacity:1;fill-rule:nonzero;stroke:none;stroke-width:0.767149"
       id="text180"
       x="38.515308"
       y="245.23123"><tspan
         x="38.515308 43.394379 45.833908"
         y="245.23123"
         sodipodi:role="line"
         id="tspan178"
         style="stroke-width:0.767149">0.0</tspan></text><text
       style="font-variant:normal;font-weight:normal;font-size:7.67149px;font-family:'DejaVu Sans';-inkscape-font-specification:DejaVuSans;writing-mode:lr-tb;fill:#000000;fill-opacity:1;fill-rule:nonzero;stroke:none;stroke-width:0.767149"
       id="text198"
       x="38.515308"
       y="204.40173"><tspan
         x="38.515308 43.394379 45.833908"
         y="204.40173"
         sodipodi:role="line"
         id="tspan196"
         style="stroke-width:0.767149">0.2</tspan></text><text
       style="font-variant:normal;font-weight:normal;font-size:7.67149px;font-family:'DejaVu Sans';-inkscape-font-specification:DejaVuSans;writing-mode:lr-tb;fill:#000000;fill-opacity:1;fill-rule:nonzero;stroke:none;stroke-width:0.767149"
       id="text216"
       x="38.515308"
       y="163.5723"><tspan
         x="38.515308 43.394379 45.833908"
         y="163.5723"
         sodipodi:role="line"
         id="tspan214"
         style="stroke-width:0.767149">0.4</tspan></text><text
       style="font-variant:normal;font-weight:normal;font-size:7.67149px;font-family:'DejaVu Sans';-inkscape-font-specification:DejaVuSans;writing-mode:lr-tb;fill:#000000;fill-opacity:1;fill-rule:nonzero;stroke:none;stroke-width:0.767149"
       id="text234"
       x="38.515308"
       y="122.74294"><tspan
         x="38.515308 43.394379 45.833908"
         y="122.74294"
         sodipodi:role="line"
         id="tspan232"
         style="stroke-width:0.767149">0.6</tspan></text><text
       style="font-variant:normal;font-weight:normal;font-size:7.67149px;font-family:'DejaVu Sans';-inkscape-font-specification:DejaVuSans;writing-mode:lr-tb;fill:#000000;fill-opacity:1;fill-rule:nonzero;stroke:none;stroke-width:0.767149"
       id="text252"
       x="38.515308"
       y="81.913506"><tspan
         x="38.515308 43.394379 45.833908"
         y="81.913506"
         sodipodi:role="line"
         id="tspan250"
         style="stroke-width:0.767149">0.8</tspan></text><text
       style="font-variant:normal;font-weight:normal;font-size:7.67149px;font-family:'DejaVu Sans';-inkscape-font-specification:DejaVuSans;writing-mode:lr-tb;fill:#000000;fill-opacity:1;fill-rule:nonzero;stroke:none;stroke-width:0.767149"
       id="text270"
       x="38.515308"
       y="41.083923"><tspan
         x="38.515308 43.394379 45.833908"
         y="41.083923"
         sodipodi:role="line"
         id="tspan268"
         style="stroke-width:0.767149">1.0</tspan></text><text
       transform="rotate(-90)"
       style="font-variant:normal;font-weight:normal;font-size:7.67149px;font-family:'DejaVu Sans';-inkscape-font-specification:DejaVuSans;writing-mode:lr-tb;fill:#000000;fill-opacity:1;fill-rule:nonzero;stroke:none;stroke-width:0.767149"
       id="text274"
       x="-177.30762"
       y="33.852486"><tspan
         x="-177.30762 -172.6817 -167.96378 -163.26114 -160.10815 -156.11131 -151.41637 -146.55264 -144.11313 -139.8938 -135.19885 -132.04587 -128.89288 -124.17509 -122.04243 -117.33984 -114.33257 -112.19989 -107.505"
         y="33.852486"
         sodipodi:role="line"
         id="tspan272"
         style="stroke-width:0.767149">Pearson correlation</tspan></text><text
       style="font-variant:normal;font-weight:normal;font-size:9.20577px;font-family:'DejaVu Sans';-inkscape-font-specification:DejaVuSans;writing-mode:lr-tb;fill:#000000;fill-opacity:1;fill-rule:nonzero;stroke:none;stroke-width:0.767149"
       id="text348"
       x="98.332985"
       y="23.250137"><tspan
         x="98.332985 103.88406 109.54563 115.18878 118.97234 123.76855 129.4025 135.23897 138.1664 143.22957 148.86351 152.64709 156.43068 162.09222 164.65143 170.29459 173.90326 176.46243 182.09639 187.93283 190.86029 196.31012 201.10632 204.03377 206.9612 212.80688 218.46844 224.30487 229.93881 238.90524 241.46445 246.52762 249.45508 255.30075 257.85995 262.65616 266.26483 271.90796 277.74442 282.80762"
         y="23.250137"
         sodipodi:role="line"
         id="tspan346"
         style="stroke-width:0.767149">Pearson correlation vs. genomic distance</tspan></text><text
       style="font-variant:normal;font-weight:normal;font-size:9.20577px;font-family:'DejaVu Sans';-inkscape-font-specification:DejaVuSans;writing-mode:lr-tb;fill:#000000;fill-opacity:1;fill-rule:nonzero;stroke:none;stroke-width:0.767149"
       id="text352"
       x="134.29575"
       y="33.568298"><tspan
         x="134.29575 141.43022 149.37482 155.22969 161.08456 166.93945 172.79431 178.64919 181.57663 184.50406 190.35895 196.21382 199.14127 204.77521 210.61165 213.53912 219.57808 225.43298 231.28784 237.14272 240.07016 242.99759 248.85248"
         y="33.568298"
         sodipodi:role="line"
         id="tspan350"
         style="stroke-width:0.767149">GM12878, 17 on K562, 21</tspan></text><text
       style="font-variant:normal;font-weight:normal;font-size:7.67149px;font-family:'DejaVu Sans';-inkscape-font-specification:DejaVuSans;writing-mode:lr-tb;fill:#000000;fill-opacity:1;fill-rule:nonzero;stroke:none;stroke-width:0.767149"
       id="text358"
       x="93.022369"
       y="180.90102"><tspan
         x="93.022369 97.901459 102.78051 105.22005 109.938 114.80938 117.24889 119.83421 122.27375 127.52105 133.13658 138.49126 141.07654 143.5161 148.39514 150.83469 155.71375 160.59277"
         y="180.90102"
         sodipodi:role="line"
         id="tspan356"
         style="stroke-width:0.767149">20 ep / AUC: 0.268</tspan></text><text
       style="font-variant:normal;font-weight:normal;font-size:7.67149px;font-family:'DejaVu Sans';-inkscape-font-specification:DejaVuSans;writing-mode:lr-tb;fill:#000000;fill-opacity:1;fill-rule:nonzero;stroke:none;stroke-width:0.767149"
       id="text364"
       x="93.022369"
       y="192.15651"><tspan
         x="93.022369 97.901459 102.78051 105.22005 109.938 114.80938 117.24889 119.83421 122.27375 127.52105 133.13658 138.49126 141.07654 143.5161 148.39514 150.83469 155.71375 160.59277"
         y="192.15651"
         sodipodi:role="line"
         id="tspan362"
         style="stroke-width:0.767149">40 ep / AUC: 0.368</tspan></text><text
       style="font-variant:normal;font-weight:normal;font-size:7.67149px;font-family:'DejaVu Sans';-inkscape-font-specification:DejaVuSans;writing-mode:lr-tb;fill:#000000;fill-opacity:1;fill-rule:nonzero;stroke:none;stroke-width:0.767149"
       id="text370"
       x="93.022369"
       y="203.41211"><tspan
         x="93.022369 97.901459 102.78051 105.22005 109.938 114.80938 117.24889 119.83421 122.27375 127.52105 133.13658 138.49126 141.07654 143.5161 148.39514 150.83469 155.71375 160.59277"
         y="203.41211"
         sodipodi:role="line"
         id="tspan368"
         style="stroke-width:0.767149">60 ep / AUC: 0.438</tspan></text><text
       style="font-variant:normal;font-weight:normal;font-size:7.67149px;font-family:'DejaVu Sans';-inkscape-font-specification:DejaVuSans;writing-mode:lr-tb;fill:#000000;fill-opacity:1;fill-rule:nonzero;stroke:none;stroke-width:0.767149"
       id="text376"
       x="93.022369"
       y="214.6676"><tspan
         x="93.022369 97.901459 102.78051 105.22005 109.938 114.80938 117.24889 119.83421 122.27375 127.52105 133.13658 138.49126 141.07654 143.5161 148.39514 150.83469 155.71375 160.59277"
         y="214.6676"
         sodipodi:role="line"
         id="tspan374"
         style="stroke-width:0.767149">80 ep / AUC: 0.448</tspan></text><text
       style="font-variant:normal;font-weight:normal;font-size:7.67149px;font-family:'DejaVu Sans';-inkscape-font-specification:DejaVuSans;writing-mode:lr-tb;fill:#000000;fill-opacity:1;fill-rule:nonzero;stroke:none;stroke-width:0.767149"
       id="text382"
       x="93.022369"
       y="225.9231"><tspan
         x="93.022369 97.901459 102.78051 107.65955 110.09908 114.81707 119.68845 122.12798 124.71328 127.15282 132.40009 138.01562 143.37033 145.95563 148.39514 153.27423 155.71375 160.59277 165.47189"
         y="225.9231"
         sodipodi:role="line"
         id="tspan380"
         style="stroke-width:0.767149">100 ep / AUC: 0.471</tspan></text><text
       style="font-variant:normal;font-weight:normal;font-size:7.67149px;font-family:'DejaVu Sans';-inkscape-font-specification:DejaVuSans;writing-mode:lr-tb;fill:#000000;fill-opacity:1;fill-rule:nonzero;stroke:none;stroke-width:0.767149"
       id="text388"
       x="93.022369"
       y="237.17862"><tspan
         x="93.022369 96.029602 99.182587 103.88519 108.74889 112.74575 115.44611 120.16409 123.31707 125.75658 131.702 138.32248 143.20154 148.0806 152.95969 157.83871 162.7178 165.15732 167.74265 170.18216 175.42944 181.04498 186.39969 188.98495 191.42447 196.30356 198.74307 203.62213 208.50119"
         y="237.17862"
         sodipodi:role="line"
         id="tspan386"
         style="stroke-width:0.767149">transfer GM12878 / AUC: 0.864</tspan></text></g></svg>
