<?xml version="1.0" encoding="UTF-8" standalone="no"?>
<svg
   xmlns:dc="http://purl.org/dc/elements/1.1/"
   xmlns:cc="http://creativecommons.org/ns#"
   xmlns:rdf="http://www.w3.org/1999/02/22-rdf-syntax-ns#"
   xmlns:svg="http://www.w3.org/2000/svg"
   xmlns="http://www.w3.org/2000/svg"
   xmlns:sodipodi="http://sodipodi.sourceforge.net/DTD/sodipodi-0.dtd"
   xmlns:inkscape="http://www.inkscape.org/namespaces/inkscape"
   version="1.1"
   id="svg2"
   xml:space="preserve"
   width="80mm"
   height="65.300003mm"
   viewBox="0 0 302.36219 246.80316"
   sodipodi:docname="pearson_chr14.svg"
   inkscape:version="1.0.2 (1.0.2+r75+1)"><metadata
     id="metadata8"><rdf:RDF><cc:Work
         rdf:about=""><dc:format>image/svg+xml</dc:format><dc:type
           rdf:resource="http://purl.org/dc/dcmitype/StillImage" /><dc:title /></cc:Work></rdf:RDF></metadata><defs
     id="defs6"><clipPath
       clipPathUnits="userSpaceOnUse"
       id="clipPath22"><path
         d="M 57.6,38.016 H 414.72 V 304.128 H 57.6 Z"
         id="path20" /></clipPath><clipPath
       clipPathUnits="userSpaceOnUse"
       id="clipPath40"><path
         d="M 57.6,38.016 H 414.72 V 304.128 H 57.6 Z"
         id="path38" /></clipPath><clipPath
       clipPathUnits="userSpaceOnUse"
       id="clipPath58"><path
         d="M 57.6,38.016 H 414.72 V 304.128 H 57.6 Z"
         id="path56" /></clipPath><clipPath
       clipPathUnits="userSpaceOnUse"
       id="clipPath76"><path
         d="M 57.6,38.016 H 414.72 V 304.128 H 57.6 Z"
         id="path74" /></clipPath><clipPath
       clipPathUnits="userSpaceOnUse"
       id="clipPath94"><path
         d="M 57.6,38.016 H 414.72 V 304.128 H 57.6 Z"
         id="path92" /></clipPath><clipPath
       clipPathUnits="userSpaceOnUse"
       id="clipPath112"><path
         d="M 57.6,38.016 H 414.72 V 304.128 H 57.6 Z"
         id="path110" /></clipPath><clipPath
       clipPathUnits="userSpaceOnUse"
       id="clipPath130"><path
         d="M 57.6,38.016 H 414.72 V 304.128 H 57.6 Z"
         id="path128" /></clipPath><clipPath
       clipPathUnits="userSpaceOnUse"
       id="clipPath148"><path
         d="M 57.6,38.016 H 414.72 V 304.128 H 57.6 Z"
         id="path146" /></clipPath><clipPath
       clipPathUnits="userSpaceOnUse"
       id="clipPath170"><path
         d="M 57.6,38.016 H 414.72 V 304.128 H 57.6 Z"
         id="path168" /></clipPath><clipPath
       clipPathUnits="userSpaceOnUse"
       id="clipPath188"><path
         d="M 57.6,38.016 H 414.72 V 304.128 H 57.6 Z"
         id="path186" /></clipPath><clipPath
       clipPathUnits="userSpaceOnUse"
       id="clipPath206"><path
         d="M 57.6,38.016 H 414.72 V 304.128 H 57.6 Z"
         id="path204" /></clipPath><clipPath
       clipPathUnits="userSpaceOnUse"
       id="clipPath224"><path
         d="M 57.6,38.016 H 414.72 V 304.128 H 57.6 Z"
         id="path222" /></clipPath><clipPath
       clipPathUnits="userSpaceOnUse"
       id="clipPath242"><path
         d="M 57.6,38.016 H 414.72 V 304.128 H 57.6 Z"
         id="path240" /></clipPath><clipPath
       clipPathUnits="userSpaceOnUse"
       id="clipPath260"><path
         d="M 57.6,38.016 H 414.72 V 304.128 H 57.6 Z"
         id="path258" /></clipPath><clipPath
       clipPathUnits="userSpaceOnUse"
       id="clipPath282"><path
         d="M 57.6,38.016 H 414.72 V 304.128 H 57.6 Z"
         id="path280" /></clipPath><clipPath
       clipPathUnits="userSpaceOnUse"
       id="clipPath292"><path
         d="M 57.6,38.016 H 414.72 V 304.128 H 57.6 Z"
         id="path290" /></clipPath><clipPath
       clipPathUnits="userSpaceOnUse"
       id="clipPath302"><path
         d="M 57.6,38.016 H 414.72 V 304.128 H 57.6 Z"
         id="path300" /></clipPath><clipPath
       clipPathUnits="userSpaceOnUse"
       id="clipPath312"><path
         d="M 57.6,38.016 H 414.72 V 304.128 H 57.6 Z"
         id="path310" /></clipPath><clipPath
       clipPathUnits="userSpaceOnUse"
       id="clipPath322"><path
         d="M 57.6,38.016 H 414.72 V 304.128 H 57.6 Z"
         id="path320" /></clipPath><clipPath
       clipPathUnits="userSpaceOnUse"
       id="clipPath332"><path
         d="M 57.6,38.016 H 414.72 V 304.128 H 57.6 Z"
         id="path330" /></clipPath></defs><sodipodi:namedview
     pagecolor="#ffffff"
     bordercolor="#666666"
     borderopacity="1"
     objecttolerance="10"
     gridtolerance="10"
     guidetolerance="10"
     inkscape:pageopacity="0"
     inkscape:pageshadow="2"
     inkscape:window-width="1920"
     inkscape:window-height="1020"
     id="namedview4"
     showgrid="false"
     units="mm"
     fit-margin-top="0"
     fit-margin-left="0"
     fit-margin-right="0"
     fit-margin-bottom="0"
     inkscape:zoom="1.8598091"
     inkscape:cx="121.34334"
     inkscape:cy="202.87138"
     inkscape:window-x="0"
     inkscape:window-y="0"
     inkscape:window-maximized="1"
     inkscape:current-layer="g10"
     inkscape:document-rotation="0" /><g
     id="g10"
     inkscape:groupmode="layer"
     inkscape:label="pearson_chr14"
     transform="matrix(1.3333333,0,0,-1.3333333,-28.023958,443.59358)"><path
       d="M 57.6,38.016 V 304.128"
       style="fill:none;stroke:#b0b0b0;stroke-width:0.8;stroke-linecap:square;stroke-linejoin:round;stroke-miterlimit:10;stroke-dasharray:none;stroke-opacity:1"
       id="path24"
       transform="matrix(0.57539281,0,0,0.57539281,8.9243807,141.97051)" /><path
       d="M 102.94857,38.016 V 304.128"
       style="fill:none;stroke:#b0b0b0;stroke-width:0.8;stroke-linecap:square;stroke-linejoin:round;stroke-miterlimit:10;stroke-dasharray:none;stroke-opacity:1"
       id="path42"
       transform="matrix(0.57539281,0,0,0.57539281,8.9243807,141.97051)" /><path
       d="M 148.29714,38.016 V 304.128"
       style="fill:none;stroke:#b0b0b0;stroke-width:0.8;stroke-linecap:square;stroke-linejoin:round;stroke-miterlimit:10;stroke-dasharray:none;stroke-opacity:1"
       id="path60"
       transform="matrix(0.57539281,0,0,0.57539281,8.9243807,141.97051)" /><path
       d="M 193.64571,38.016 V 304.128"
       style="fill:none;stroke:#b0b0b0;stroke-width:0.8;stroke-linecap:square;stroke-linejoin:round;stroke-miterlimit:10;stroke-dasharray:none;stroke-opacity:1"
       id="path78"
       transform="matrix(0.57539281,0,0,0.57539281,8.9243807,141.97051)" /><path
       d="M 238.99429,38.016 V 304.128"
       style="fill:none;stroke:#b0b0b0;stroke-width:0.8;stroke-linecap:square;stroke-linejoin:round;stroke-miterlimit:10;stroke-dasharray:none;stroke-opacity:1"
       id="path96"
       transform="matrix(0.57539281,0,0,0.57539281,8.9243807,141.97051)" /><path
       d="M 172.53322,163.84464 V 316.96357"
       style="fill:none;stroke:#b0b0b0;stroke-width:0.460314;stroke-linecap:square;stroke-linejoin:round;stroke-miterlimit:10;stroke-dasharray:none;stroke-opacity:1"
       id="path114" /><path
       d="M 329.69143,38.016 V 304.128"
       style="fill:none;stroke:#b0b0b0;stroke-width:0.8;stroke-linecap:square;stroke-linejoin:round;stroke-miterlimit:10;stroke-dasharray:none;stroke-opacity:1"
       id="path132"
       transform="matrix(0.57539281,0,0,0.57539281,8.9243807,141.97051)" /><path
       d="M 375.04,38.016 V 304.128"
       style="fill:none;stroke:#b0b0b0;stroke-width:0.8;stroke-linecap:square;stroke-linejoin:round;stroke-miterlimit:10;stroke-dasharray:none;stroke-opacity:1"
       id="path150"
       transform="matrix(0.57539281,0,0,0.57539281,8.9243807,141.97051)" /><path
       d="M 57.6,38.016 H 414.72"
       style="fill:none;stroke:#b0b0b0;stroke-width:0.8;stroke-linecap:square;stroke-linejoin:round;stroke-miterlimit:10;stroke-dasharray:none;stroke-opacity:1"
       id="path172"
       transform="matrix(0.57539281,0,0,0.57539281,8.9243807,141.97051)" /><path
       d="M 57.6,91.2384 H 414.72"
       style="fill:none;stroke:#b0b0b0;stroke-width:0.8;stroke-linecap:square;stroke-linejoin:round;stroke-miterlimit:10;stroke-dasharray:none;stroke-opacity:1"
       id="path190"
       transform="matrix(0.57539281,0,0,0.57539281,8.9243807,141.97051)" /><path
       d="M 57.6,144.4608 H 414.72"
       style="fill:none;stroke:#b0b0b0;stroke-width:0.8;stroke-linecap:square;stroke-linejoin:round;stroke-miterlimit:10;stroke-dasharray:none;stroke-opacity:1"
       id="path208"
       transform="matrix(0.57539281,0,0,0.57539281,8.9243807,141.97051)" /><path
       d="M 57.6,197.6832 H 414.72"
       style="fill:none;stroke:#b0b0b0;stroke-width:0.8;stroke-linecap:square;stroke-linejoin:round;stroke-miterlimit:10;stroke-dasharray:none;stroke-opacity:1"
       id="path226"
       transform="matrix(0.57539281,0,0,0.57539281,8.9243807,141.97051)" /><path
       d="M 57.6,250.9056 H 414.72"
       style="fill:none;stroke:#b0b0b0;stroke-width:0.8;stroke-linecap:square;stroke-linejoin:round;stroke-miterlimit:10;stroke-dasharray:none;stroke-opacity:1"
       id="path244"
       transform="matrix(0.57539281,0,0,0.57539281,8.9243807,141.97051)" /><path
       d="M 57.6,304.128 H 414.72"
       style="fill:none;stroke:#b0b0b0;stroke-width:0.8;stroke-linecap:square;stroke-linejoin:round;stroke-miterlimit:10;stroke-dasharray:none;stroke-opacity:1"
       id="path262"
       transform="matrix(0.57539281,0,0,0.57539281,8.9243807,141.97051)" /><g
       id="g328"
       clip-path="url(#clipPath332)"
       style="stroke:#d62728;stroke-opacity:1"
       transform="matrix(0.57539281,0,0,0.57539281,8.9243808,141.97051)"><path
         d="m 57.6,284.38868 5.668571,-9.20372 5.668572,-5.3505 5.668571,2.9e-4 5.668572,-0.50099 5.668571,-0.73374 5.668572,0.44703 5.668571,1.54924 5.66857,-0.9621 5.66857,-0.44339 5.66857,0.72252 5.66858,-1.52103 5.66857,-4.42445 5.66857,-0.60259 5.66857,-2.66808 5.66857,-1.75069 5.66857,-4.03012 5.66857,-1.93191 5.66858,-1.75878 5.66857,-4.54638 5.66857,-2.00066 5.66857,1.26625 5.66857,0.0828 5.66857,2.83137 5.66857,1.09576 5.66858,7.23962 5.66857,2.11143 5.66857,-1.82996 5.66857,-2.22537 5.66857,-1.65928 5.66857,0.0475 5.66857,-2.30437 5.66858,0.34218 5.66857,-2.8454 5.66857,-2.19831 5.66857,3.51748 5.66857,-1.65593 5.66857,-5.79776 5.66857,0.64215 5.66858,-0.84239 5.66857,1.37257 5.66857,-3.30367 5.66857,-2.27312 5.66857,-0.49737 5.66857,1.22834 5.66857,-1.60936 5.66858,-1.1619 5.66857,-3.67239 5.66857,4.95141 5.66857,-5.81373 5.66857,-1.08584 5.66857,-0.22629 5.66857,-8.00063 5.66858,4.95665 5.66857,-0.0807 5.66857,-0.93288 5.66857,-2.02315 5.66857,5.31369 5.66857,0.2984 5.66857,1.18819 5.66858,-5.2468 5.66857,4.05598 5.66857,-1.59055 5.66857,-0.21287"
         style="fill:none;stroke:#d62728;stroke-width:1.5;stroke-linecap:square;stroke-linejoin:round;stroke-miterlimit:10;stroke-dasharray:none;stroke-opacity:1"
         id="path334" /></g><g
       id="g16"
       transform="matrix(0.57539281,0,0,0.57539281,8.9243808,141.97051)"><g
         id="g18"
         clip-path="url(#clipPath22)" /></g><path
       d="m 42.067007,163.84465 v -2.01388"
       style="fill:#000000;fill-opacity:1;fill-rule:nonzero;stroke:#000000;stroke-width:0.460314;stroke-linecap:butt;stroke-linejoin:round;stroke-miterlimit:10;stroke-dasharray:none;stroke-opacity:1"
       id="path28" /><g
       id="g34"
       transform="matrix(0.57539281,0,0,0.57539281,8.9243808,141.97051)"><g
         id="g36"
         clip-path="url(#clipPath40)" /></g><path
       d="m 68.160248,163.84465 v -2.01388"
       style="fill:#000000;fill-opacity:1;fill-rule:nonzero;stroke:#000000;stroke-width:0.460314;stroke-linecap:butt;stroke-linejoin:round;stroke-miterlimit:10;stroke-dasharray:none;stroke-opacity:1"
       id="path46" /><g
       id="g52"
       transform="matrix(0.57539281,0,0,0.57539281,8.9243808,141.97051)"><g
         id="g54"
         clip-path="url(#clipPath58)" /></g><path
       d="m 94.253489,163.84465 v -2.01388"
       style="fill:#000000;fill-opacity:1;fill-rule:nonzero;stroke:#000000;stroke-width:0.460314;stroke-linecap:butt;stroke-linejoin:round;stroke-miterlimit:10;stroke-dasharray:none;stroke-opacity:1"
       id="path64" /><g
       id="g70"
       transform="matrix(0.57539281,0,0,0.57539281,8.9243808,141.97051)"><g
         id="g72"
         clip-path="url(#clipPath76)" /></g><path
       d="m 120.34673,163.84465 v -2.01388"
       style="fill:#000000;fill-opacity:1;fill-rule:nonzero;stroke:#000000;stroke-width:0.460314;stroke-linecap:butt;stroke-linejoin:round;stroke-miterlimit:10;stroke-dasharray:none;stroke-opacity:1"
       id="path82" /><g
       id="g88"
       transform="matrix(0.57539281,0,0,0.57539281,8.9243808,141.97051)"><g
         id="g90"
         clip-path="url(#clipPath94)" /></g><path
       d="m 146.43998,163.84465 v -2.01388"
       style="fill:#000000;fill-opacity:1;fill-rule:nonzero;stroke:#000000;stroke-width:0.460314;stroke-linecap:butt;stroke-linejoin:round;stroke-miterlimit:10;stroke-dasharray:none;stroke-opacity:1"
       id="path100" /><path
       d="m 172.53322,163.84465 v -2.01388"
       style="fill:#000000;fill-opacity:1;fill-rule:nonzero;stroke:#000000;stroke-width:0.460314;stroke-linecap:butt;stroke-linejoin:round;stroke-miterlimit:10;stroke-dasharray:none;stroke-opacity:1"
       id="path118" /><g
       id="g124"
       transform="matrix(0.57539281,0,0,0.57539281,8.9243808,141.97051)"><g
         id="g126"
         clip-path="url(#clipPath130)" /></g><path
       d="m 198.62646,163.84465 v -2.01388"
       style="fill:#000000;fill-opacity:1;fill-rule:nonzero;stroke:#000000;stroke-width:0.460314;stroke-linecap:butt;stroke-linejoin:round;stroke-miterlimit:10;stroke-dasharray:none;stroke-opacity:1"
       id="path136" /><g
       id="g142"
       transform="matrix(0.57539281,0,0,0.57539281,8.9243808,141.97051)"><g
         id="g144"
         clip-path="url(#clipPath148)" /></g><path
       d="m 224.7197,163.84465 v -2.01388"
       style="fill:#000000;fill-opacity:1;fill-rule:nonzero;stroke:#000000;stroke-width:0.460314;stroke-linecap:butt;stroke-linejoin:round;stroke-miterlimit:10;stroke-dasharray:none;stroke-opacity:1"
       id="path154" /><g
       id="g164"
       transform="matrix(0.57539281,0,0,0.57539281,8.9243808,141.97051)"><g
         id="g166"
         clip-path="url(#clipPath170)" /></g><path
       d="M 42.067007,163.84465 H 40.053132"
       style="fill:#000000;fill-opacity:1;fill-rule:nonzero;stroke:#000000;stroke-width:0.460314;stroke-linecap:butt;stroke-linejoin:round;stroke-miterlimit:10;stroke-dasharray:none;stroke-opacity:1"
       id="path176" /><g
       id="g182"
       transform="matrix(0.57539281,0,0,0.57539281,8.9243808,141.97051)"><g
         id="g184"
         clip-path="url(#clipPath188)" /></g><path
       d="M 42.067007,194.46843 H 40.053132"
       style="fill:#000000;fill-opacity:1;fill-rule:nonzero;stroke:#000000;stroke-width:0.460314;stroke-linecap:butt;stroke-linejoin:round;stroke-miterlimit:10;stroke-dasharray:none;stroke-opacity:1"
       id="path194" /><g
       id="g200"
       transform="matrix(0.57539281,0,0,0.57539281,8.9243808,141.97051)"><g
         id="g202"
         clip-path="url(#clipPath206)" /></g><path
       d="M 42.067007,225.09222 H 40.053132"
       style="fill:#000000;fill-opacity:1;fill-rule:nonzero;stroke:#000000;stroke-width:0.460314;stroke-linecap:butt;stroke-linejoin:round;stroke-miterlimit:10;stroke-dasharray:none;stroke-opacity:1"
       id="path212" /><g
       id="g218"
       transform="matrix(0.57539281,0,0,0.57539281,8.9243808,141.97051)"><g
         id="g220"
         clip-path="url(#clipPath224)" /></g><path
       d="M 42.067007,255.716 H 40.053132"
       style="fill:#000000;fill-opacity:1;fill-rule:nonzero;stroke:#000000;stroke-width:0.460314;stroke-linecap:butt;stroke-linejoin:round;stroke-miterlimit:10;stroke-dasharray:none;stroke-opacity:1"
       id="path230" /><g
       id="g236"
       transform="matrix(0.57539281,0,0,0.57539281,8.9243808,141.97051)"><g
         id="g238"
         clip-path="url(#clipPath242)" /></g><path
       d="M 42.067007,286.33978 H 40.053132"
       style="fill:#000000;fill-opacity:1;fill-rule:nonzero;stroke:#000000;stroke-width:0.460314;stroke-linecap:butt;stroke-linejoin:round;stroke-miterlimit:10;stroke-dasharray:none;stroke-opacity:1"
       id="path248" /><g
       id="g254"
       transform="matrix(0.57539281,0,0,0.57539281,8.9243808,141.97051)"><g
         id="g256"
         clip-path="url(#clipPath260)" /></g><path
       d="M 42.067007,316.96357 H 40.053132"
       style="fill:#000000;fill-opacity:1;fill-rule:nonzero;stroke:#000000;stroke-width:0.460314;stroke-linecap:butt;stroke-linejoin:round;stroke-miterlimit:10;stroke-dasharray:none;stroke-opacity:1"
       id="path266" /><g
       id="g278"
       clip-path="url(#clipPath282)"
       transform="matrix(0.57539281,0,0,0.57539281,8.9243808,141.97051)"><path
         d="m 57.6,258.01572 5.668571,5.28589 5.668572,-7.21691 5.668571,-6.1334 5.668572,-1.00518 5.668571,-0.74833 5.668572,-2.34257 5.668571,-2.22615 5.66857,-4.56891 5.66857,-3.42802 5.66857,-4.14475 5.66858,-6.92671 5.66857,-1.83086 5.66857,-5.17465 5.66857,-4.93237 5.66857,-4.33308 5.66857,-4.01718 5.66857,-5.08141 5.66858,-4.03515 5.66857,-9.04538 5.66857,-2.2334 5.66857,-1.48509 5.66857,-8.33331 5.66857,-2.40007 5.66857,-3.93358 5.66858,-1.84717 5.66857,0.44674 5.66857,-2.8549 5.66857,-3.7059 5.66857,-7.39947 5.66857,-5.51084 5.66857,-7.24531 5.66858,-9.44599 5.66857,-6.02045 5.66857,-8.69398 5.66857,-14.21224 5.66857,-5.860914 5.66857,-3.262277 5.66857,-4.894803 5.66858,-1.987031 5.66857,4.320629 5.66857,-2.768441 5.66857,6.977273 5.66857,-7.90941 5.66857,2.621721 5.66857,-5.132761 5.66858,-3.638421 5.66857,-8.976586 5.66857,-0.136466 5.66857,-4.506979 5.66857,2.342104 5.66857,-2.289946 5.66857,-2.945286 5.66858,6.478194 5.66857,-19.234047 5.66857,-28.722324 L 374.15307,-1 m 9.10545,0 3.11862,7.344987 5.66857,4.187735 5.66858,0.59581 5.66857,0.879889 5.66857,2.137182 5.66857,0.791038"
         style="fill:none;stroke:#1f77b4;stroke-width:1.5;stroke-linecap:square;stroke-linejoin:round;stroke-miterlimit:10;stroke-dasharray:none;stroke-opacity:1"
         id="path284" /></g><g
       id="g288"
       clip-path="url(#clipPath292)"
       transform="matrix(0.57539281,0,0,0.57539281,8.9243808,141.97051)"><path
         d="m 57.6,262.56572 5.668571,3.86724 5.668572,-7.73986 5.668571,-5.94736 5.668572,-0.62181 5.668571,-1.0833 5.668572,-2.43696 5.668571,-2.11529 5.66857,-3.99688 5.66857,-3.18602 5.66857,-3.78151 5.66858,-5.82472 5.66857,-1.86079 5.66857,-4.01861 5.66857,-5.27179 5.66857,-4.16037 5.66857,-4.30405 5.66857,-4.66814 5.66858,-3.9635 5.66857,-7.75979 5.66857,-2.00288 5.66857,-0.46777 5.66857,-8.28794 5.66857,-2.42607 5.66857,-5.42866 5.66858,-1.54352 5.66857,0.31972 5.66857,-1.59778 5.66857,-4.53402 5.66857,-6.4516 5.66857,-3.74323 5.66857,-5.45067 5.66858,-8.74024 5.66857,-6.54019 5.66857,-9.24 L 256,113.2719 l 5.66857,-6.5513 5.66857,-1.38251 5.66857,-5.649858 5.66858,-4.271049 5.66857,2.136145 5.66857,-4.030061 5.66857,6.427426 5.66857,-5.392018 5.66857,2.55504 5.66857,-6.209052 5.66858,-1.54582 5.66857,-11.826267 5.66857,0.690384 5.66857,-12.663575 5.66857,3.100642 5.66857,-2.50314 5.66857,0.113417 5.66858,16.256911 5.66857,-0.501073 5.66857,-14.527245 L 375.04,41.374794 380.53088,-1 m 7.49214,0 4.02269,12.52545 5.66858,0.83358 5.66857,0.20506 5.66857,2.507108 5.66857,2.3532"
         style="fill:none;stroke:#ff7f0e;stroke-width:1.5;stroke-linecap:square;stroke-linejoin:round;stroke-miterlimit:10;stroke-dasharray:none;stroke-opacity:1"
         id="path294" /></g><g
       id="g298"
       clip-path="url(#clipPath302)"
       transform="matrix(0.57539281,0,0,0.57539281,8.9243808,141.97051)"><path
         d="m 57.6,261.62578 5.668571,2.82671 5.668572,-7.78132 5.668571,-6.09463 5.668572,-0.44739 5.668571,-1.15231 5.668572,-2.31088 5.668571,-2.06789 5.66857,-3.82881 5.66857,-3.34242 5.66857,-3.26709 5.66858,-5.98997 5.66857,-1.42002 5.66857,-4.75427 5.66857,-4.90872 5.66857,-4.03308 5.66857,-4.14074 5.66857,-4.62414 5.66858,-3.68406 5.66857,-7.88052 5.66857,-1.48871 5.66857,-0.38423 5.66857,-8.5035 5.66857,-2.7383 5.66857,-5.74818 5.66858,-0.59122 5.66857,0.0595 5.66857,-2.0005 5.66857,-6.14123 5.66857,-6.79282 5.66857,-5.04964 5.66857,-4.4304 5.66858,-9.37541 5.66857,-4.85582 5.66857,-6.50145 5.66857,-13.33447 5.66857,-8.71131 5.66857,-0.32154 5.66857,-6.709946 5.66858,-4.373855 5.66857,-0.684012 5.66857,-1.699854 5.66857,6.262683 5.66857,-5.094067 5.66857,1.807435 5.66857,-6.68987 5.66858,-1.804552 5.66857,-13.036255 5.66857,-1.827258 5.66857,-12.190451 5.66857,4.643191 5.66857,-3.829652 5.66857,1.060425 5.66858,15.751466 5.66857,2.636528 5.66857,-5.482559 5.66857,-20.759092 5.66857,-53.801499 5.66857,2.821589 5.66857,8.993358 5.66858,2.4608 5.66857,1.496389 5.66857,2.118039 5.66857,2.130921"
         style="fill:none;stroke:#2ca02c;stroke-width:1.5;stroke-linecap:square;stroke-linejoin:round;stroke-miterlimit:10;stroke-dasharray:none;stroke-opacity:1"
         id="path304" /></g><g
       id="g308"
       clip-path="url(#clipPath312)"
       style="stroke:#8c564b;stroke-opacity:1"
       transform="matrix(0.57539281,0,0,0.57539281,8.9243808,141.97051)"><path
         d="m 57.6,264.4729 5.668571,2.11918 5.668572,-7.4603 5.668571,-5.92288 5.668572,-0.14237 5.668571,-1.1256 5.668572,-2.46186 5.668571,-2.07019 5.66857,-3.07656 5.66857,-3.023 5.66857,-3.07483 5.66858,-6.29078 5.66857,-1.08921 5.66857,-4.36146 5.66857,-4.58577 5.66857,-4.13619 5.66857,-4.30962 5.66857,-5.10481 5.66858,-3.72905 5.66857,-7.21777 5.66857,-1.32551 5.66857,-0.18645 5.66857,-8.43998 5.66857,-2.29487 5.66857,-6.83443 5.66858,0.77374 5.66857,0.72181 5.66857,-2.10066 5.66857,-5.44802 5.66857,-5.63199 5.66857,-3.65104 5.66857,-4.79463 5.66858,-10.87695 5.66857,-4.43367 5.66857,-5.37103 5.66857,-13.3194 5.66857,-9.68231 5.66857,1.16921 5.66857,-6.25169 5.66858,-1.99368 5.66857,-1.66934 5.66857,-1.1687 5.66857,4.73728 5.66857,-7.25765 5.66857,-0.17846 5.66857,-7.120027 5.66858,1.906121 5.66857,-12.94101 5.66857,-6.096547 5.66857,-8.989565 5.66857,6.365266 5.66857,-0.468394 5.66857,9.105538 5.66858,13.124624 5.66857,10.088434 5.66857,-3.48161 L 375.04,73.240986 380.70857,63.048653 386.37714,59.02481 391.87869,-1 m 6.69261,0 4.81156,0.87493 5.66857,2.815058 5.66857,1.48265"
         style="fill:none;stroke:#8c564b;stroke-width:1.5;stroke-linecap:square;stroke-linejoin:round;stroke-miterlimit:10;stroke-dasharray:none;stroke-opacity:1"
         id="path314" /></g><g
       id="g318"
       clip-path="url(#clipPath322)"
       transform="matrix(0.57539281,0,0,0.57539281,8.9243808,141.97051)"><path
         d="m 57.6,265.73651 5.668571,1.24578 5.668572,-7.26364 5.668571,-5.73444 5.668572,0.29309 5.668571,-0.7755 5.668572,-2.20451 5.668571,-1.86275 5.66857,-2.99387 5.66857,-2.77664 5.66857,-2.84241 5.66858,-5.81326 5.66857,-1.56454 5.66857,-4.11238 5.66857,-4.20818 5.66857,-3.81625 5.66857,-4.42797 5.66857,-5.07197 5.66858,-3.78907 5.66857,-7.04585 5.66857,-1.31661 5.66857,0.2065 5.66857,-7.98588 5.66857,-2.76045 5.66857,-5.98214 5.66858,1.28407 5.66857,0.68891 5.66857,-2.60812 5.66857,-5.75223 5.66857,-5.71479 5.66857,-3.79269 5.66857,-4.32627 5.66858,-10.92506 5.66857,-2.95134 5.66857,-3.28311 5.66857,-13.27829 5.66857,-9.65851 5.66857,3.28053 5.66857,-5.11527 5.66858,-3.45689 5.66857,-0.83204 5.66857,-2.93432 5.66857,1.87076 5.66857,-10.86654 5.66857,0.194 5.66857,-8.263227 5.66858,2.318045 5.66857,-14.784126 5.66857,-3.517501 5.66857,-6.682863 5.66857,6.364995 5.66857,-5.37204 5.66857,6.096942 5.66858,12.57187 5.66857,13.881405 5.66857,-2.35654 5.66857,3.37264 5.66857,1.81011 5.66857,-83.753111 L 392.04571,4.40815 396.22469,-1 m 10.93699,0 1.88975,0.546986 5.66857,1.480521"
         style="fill:none;stroke:#9467bd;stroke-width:1.5;stroke-linecap:square;stroke-linejoin:round;stroke-miterlimit:10;stroke-dasharray:none;stroke-opacity:1"
         id="path324" /></g><path
       d="M 42.067007,163.84465 V 316.96357"
       style="fill:none;stroke:#000000;stroke-width:0.460314;stroke-linecap:square;stroke-linejoin:miter;stroke-miterlimit:10;stroke-dasharray:none;stroke-opacity:1"
       id="path338" /><path
       d="M 247.55128,163.84465 V 316.96357"
       style="fill:none;stroke:#000000;stroke-width:0.460314;stroke-linecap:square;stroke-linejoin:miter;stroke-miterlimit:10;stroke-dasharray:none;stroke-opacity:1"
       id="path340" /><path
       d="M 42.067007,163.84465 H 247.55128"
       style="fill:none;stroke:#000000;stroke-width:0.460314;stroke-linecap:square;stroke-linejoin:miter;stroke-miterlimit:10;stroke-dasharray:none;stroke-opacity:1"
       id="path342" /><path
       d="M 42.067007,316.96357 H 247.55128"
       style="fill:none;stroke:#000000;stroke-width:0.460314;stroke-linecap:square;stroke-linejoin:miter;stroke-miterlimit:10;stroke-dasharray:none;stroke-opacity:1"
       id="path344" /><path
       d="m 53.725782,215.57596 h 11.50785"
       style="fill:none;stroke:#1f77b4;stroke-width:0.863089;stroke-linecap:square;stroke-linejoin:round;stroke-miterlimit:10;stroke-dasharray:none;stroke-opacity:1"
       id="path354" /><path
       d="m 53.725782,207.13387 h 11.50785"
       style="fill:none;stroke:#ff7f0e;stroke-width:0.863089;stroke-linecap:square;stroke-linejoin:round;stroke-miterlimit:10;stroke-dasharray:none;stroke-opacity:1"
       id="path360" /><path
       d="m 53.725782,198.69178 h 11.50785"
       style="fill:none;stroke:#2ca02c;stroke-width:0.863089;stroke-linecap:square;stroke-linejoin:round;stroke-miterlimit:10;stroke-dasharray:none;stroke-opacity:1"
       id="path366" /><path
       d="m 53.725782,190.24968 h 11.50785"
       style="fill:none;stroke:#8c564b;stroke-width:0.863089;stroke-linecap:square;stroke-linejoin:round;stroke-miterlimit:10;stroke-dasharray:none;stroke-opacity:1"
       id="path372" /><path
       d="m 53.725782,181.8076 h 11.50785"
       style="fill:none;stroke:#9467bd;stroke-width:0.863089;stroke-linecap:square;stroke-linejoin:round;stroke-miterlimit:10;stroke-dasharray:none;stroke-opacity:1"
       id="path378" /><path
       d="m 53.725782,173.3655 h 11.50785"
       style="fill:none;stroke:#d62728;stroke-width:0.863089;stroke-linecap:square;stroke-linejoin:round;stroke-miterlimit:10;stroke-dasharray:none;stroke-opacity:1"
       id="path384" /></g><g
     inkscape:groupmode="layer"
     id="layer1"
     inkscape:label="text"
     transform="translate(-28.023958,-17.206424)"><text
       style="font-variant:normal;font-weight:normal;font-size:7.67191px;font-family:'DejaVu Sans';-inkscape-font-specification:DejaVuSans;writing-mode:lr-tb;fill:#000000;fill-opacity:1;fill-rule:nonzero;stroke:none;stroke-width:0.767191"
       id="text32"
       x="53.987782"
       y="253.53658"><tspan
         x="53.987782 58.867111 61.306778"
         y="253.53658"
         sodipodi:role="line"
         id="tspan30"
         style="stroke-width:0.767191">0.0</tspan></text><text
       transform="matrix(1.3333333,0,0,1.3333333,0,460.8)"
       style="font-variant:normal;font-weight:normal;font-size:5.75393px;font-family:'DejaVu Sans';-inkscape-font-specification:DejaVuSans;writing-mode:lr-tb;fill:#000000;fill-opacity:1;fill-rule:nonzero;stroke:none;stroke-width:0.575393"
       id="text50"
       x="63.584076"
       y="-155.44757"><tspan
         x="63.584076 67.243584 69.073334"
         y="-155.44757"
         sodipodi:role="line"
         id="tspan48"
         style="stroke-width:0.575393">0.2</tspan></text><text
       transform="matrix(1.3333333,0,0,1.3333333,0,460.8)"
       style="font-variant:normal;font-weight:normal;font-size:5.75393px;font-family:'DejaVu Sans';-inkscape-font-specification:DejaVuSans;writing-mode:lr-tb;fill:#000000;fill-opacity:1;fill-rule:nonzero;stroke:none;stroke-width:0.575393"
       id="text68"
       x="89.677322"
       y="-155.44757"><tspan
         x="89.677322 93.336823 95.166565"
         y="-155.44757"
         sodipodi:role="line"
         id="tspan66"
         style="stroke-width:0.575393">0.4</tspan></text><text
       transform="matrix(1.3333333,0,0,1.3333333,0,460.8)"
       style="font-variant:normal;font-weight:normal;font-size:5.75393px;font-family:'DejaVu Sans';-inkscape-font-specification:DejaVuSans;writing-mode:lr-tb;fill:#000000;fill-opacity:1;fill-rule:nonzero;stroke:none;stroke-width:0.575393"
       id="text86"
       x="115.77057"
       y="-155.44757"><tspan
         x="115.77057 119.43006 121.25981"
         y="-155.44757"
         sodipodi:role="line"
         id="tspan84"
         style="stroke-width:0.575393">0.6</tspan></text><text
       transform="matrix(1.3333333,0,0,1.3333333,0,460.8)"
       style="font-variant:normal;font-weight:normal;font-size:5.75393px;font-family:'DejaVu Sans';-inkscape-font-specification:DejaVuSans;writing-mode:lr-tb;fill:#000000;fill-opacity:1;fill-rule:nonzero;stroke:none;stroke-width:0.575393"
       id="text104"
       x="141.8638"
       y="-155.44757"><tspan
         x="141.8638 145.52328 147.35304"
         y="-155.44757"
         sodipodi:role="line"
         id="tspan102"
         style="stroke-width:0.575393">0.8</tspan></text><text
       transform="matrix(1.3333333,0,0,1.3333333,0,460.8)"
       style="font-variant:normal;font-weight:normal;font-size:5.75393px;font-family:'DejaVu Sans';-inkscape-font-specification:DejaVuSans;writing-mode:lr-tb;fill:#000000;fill-opacity:1;fill-rule:nonzero;stroke:none;stroke-width:0.575393"
       id="text122"
       x="167.95705"
       y="-155.44757"><tspan
         x="167.95705 171.61653 173.44629"
         y="-155.44757"
         sodipodi:role="line"
         id="tspan120"
         style="stroke-width:0.575393">1.0</tspan></text><text
       transform="matrix(1.3333333,0,0,1.3333333,0,460.8)"
       style="font-variant:normal;font-weight:normal;font-size:5.75393px;font-family:'DejaVu Sans';-inkscape-font-specification:DejaVuSans;writing-mode:lr-tb;fill:#000000;fill-opacity:1;fill-rule:nonzero;stroke:none;stroke-width:0.575393"
       id="text140"
       x="194.05029"
       y="-155.44757"><tspan
         x="194.05029 197.70978 199.53954"
         y="-155.44757"
         sodipodi:role="line"
         id="tspan138"
         style="stroke-width:0.575393">1.2</tspan></text><text
       transform="matrix(1.3333333,0,0,1.3333333,0,460.8)"
       style="font-variant:normal;font-weight:normal;font-size:5.75393px;font-family:'DejaVu Sans';-inkscape-font-specification:DejaVuSans;writing-mode:lr-tb;fill:#000000;fill-opacity:1;fill-rule:nonzero;stroke:none;stroke-width:0.575393"
       id="text158"
       x="220.14354"
       y="-155.44757"><tspan
         x="220.14354 223.80302 225.63277"
         y="-155.44757"
         sodipodi:role="line"
         id="tspan156"
         style="stroke-width:0.575393">1.4</tspan></text><text
       transform="matrix(1.3333333,0,0,1.3333333,0,460.8)"
       style="font-variant:normal;font-weight:normal;font-size:5.75393px;font-family:'DejaVu Sans';-inkscape-font-specification:DejaVuSans;writing-mode:lr-tb;fill:#000000;fill-opacity:1;fill-rule:nonzero;stroke:none;stroke-width:0.575393"
       id="text162"
       x="109.98439"
       y="-147.58087"><tspan
         x="109.98439 114.4437 117.98235 121.63035 125.15175 130.75607 132.35567 135.52032 137.35008 141.00381 142.60341 145.60121 147.85675 151.38391 155.03191 158.19658 161.73523 163.56497 165.50404 167.33379 172.29942 175.95317"
         y="-147.58087"
         sodipodi:role="line"
         id="tspan160"
         style="stroke-width:0.575393">Genomic distance / Mbp</tspan></text><text
       transform="matrix(1.3333333,0,0,1.3333333,0,460.8)"
       style="font-variant:normal;font-weight:normal;font-size:5.75393px;font-family:'DejaVu Sans';-inkscape-font-specification:DejaVuSans;writing-mode:lr-tb;fill:#000000;fill-opacity:1;fill-rule:nonzero;stroke:none;stroke-width:0.575393"
       id="text180"
       x="28.886913"
       y="-161.66002"><tspan
         x="28.886913 32.546413 34.376163"
         y="-161.66002"
         sodipodi:role="line"
         id="tspan178"
         style="stroke-width:0.575393">0.0</tspan></text><text
       transform="matrix(1.3333333,0,0,1.3333333,0,460.8)"
       style="font-variant:normal;font-weight:normal;font-size:5.75393px;font-family:'DejaVu Sans';-inkscape-font-specification:DejaVuSans;writing-mode:lr-tb;fill:#000000;fill-opacity:1;fill-rule:nonzero;stroke:none;stroke-width:0.575393"
       id="text198"
       x="28.886913"
       y="-192.2838"><tspan
         x="28.886913 32.546413 34.376163"
         y="-192.2838"
         sodipodi:role="line"
         id="tspan196"
         style="stroke-width:0.575393">0.2</tspan></text><text
       transform="matrix(1.3333333,0,0,1.3333333,0,460.8)"
       style="font-variant:normal;font-weight:normal;font-size:5.75393px;font-family:'DejaVu Sans';-inkscape-font-specification:DejaVuSans;writing-mode:lr-tb;fill:#000000;fill-opacity:1;fill-rule:nonzero;stroke:none;stroke-width:0.575393"
       id="text216"
       x="28.886913"
       y="-222.90759"><tspan
         x="28.886913 32.546413 34.376163"
         y="-222.90759"
         sodipodi:role="line"
         id="tspan214"
         style="stroke-width:0.575393">0.4</tspan></text><text
       transform="matrix(1.3333333,0,0,1.3333333,0,460.8)"
       style="font-variant:normal;font-weight:normal;font-size:5.75393px;font-family:'DejaVu Sans';-inkscape-font-specification:DejaVuSans;writing-mode:lr-tb;fill:#000000;fill-opacity:1;fill-rule:nonzero;stroke:none;stroke-width:0.575393"
       id="text234"
       x="28.886913"
       y="-253.53139"><tspan
         x="28.886913 32.546413 34.376163"
         y="-253.53139"
         sodipodi:role="line"
         id="tspan232"
         style="stroke-width:0.575393">0.6</tspan></text><text
       transform="matrix(1.3333333,0,0,1.3333333,0,460.8)"
       style="font-variant:normal;font-weight:normal;font-size:5.75393px;font-family:'DejaVu Sans';-inkscape-font-specification:DejaVuSans;writing-mode:lr-tb;fill:#000000;fill-opacity:1;fill-rule:nonzero;stroke:none;stroke-width:0.575393"
       id="text252"
       x="28.886913"
       y="-284.15518"><tspan
         x="28.886913 32.546413 34.376163"
         y="-284.15518"
         sodipodi:role="line"
         id="tspan250"
         style="stroke-width:0.575393">0.8</tspan></text><text
       transform="matrix(1.3333333,0,0,1.3333333,0,460.8)"
       style="font-variant:normal;font-weight:normal;font-size:5.75393px;font-family:'DejaVu Sans';-inkscape-font-specification:DejaVuSans;writing-mode:lr-tb;fill:#000000;fill-opacity:1;fill-rule:nonzero;stroke:none;stroke-width:0.575393"
       id="text270"
       x="28.886913"
       y="-314.77893"><tspan
         x="28.886913 32.546413 34.376163"
         y="-314.77893"
         sodipodi:role="line"
         id="tspan268"
         style="stroke-width:0.575393">1.0</tspan></text><text
       transform="matrix(0,-1.3333333,1.3333333,0,0,460.8)"
       style="font-variant:normal;font-weight:normal;font-size:5.75393px;font-family:'DejaVu Sans';-inkscape-font-specification:DejaVuSans;writing-mode:lr-tb;fill:#000000;fill-opacity:1;fill-rule:nonzero;stroke:none;stroke-width:0.575393"
       id="text274"
       x="212.60551"
       y="25.389605"><tspan
         x="212.60551 216.07513 219.6138 223.14096 225.50581 228.50362 232.02502 235.67302 237.50276 240.66742 244.18883 246.5537 248.91856 252.45721 254.05681 257.58395 259.83951 261.43912 264.96048"
         y="25.389605"
         sodipodi:role="line"
         id="tspan272"
         style="stroke-width:0.575393">Pearson correlation</tspan></text><text
       transform="matrix(1.3333333,0,0,1.3333333,0,460.8)"
       style="font-variant:normal;font-weight:normal;font-size:6.90472px;font-family:'DejaVu Sans';-inkscape-font-specification:DejaVuSans;writing-mode:lr-tb;fill:#000000;fill-opacity:1;fill-rule:nonzero;stroke:none;stroke-width:0.575393"
       id="text348"
       x="73.752625"
       y="-328.15503"><tspan
         x="73.752625 77.916168 82.162567 86.395164 89.232994 92.830353 97.056038 101.43363 103.62933 107.42691 111.6526 114.49045 117.32827 121.57468 123.49419 127.72678 130.43343 132.35294 136.57863 140.95621 143.15192 147.2395 150.83685 153.03255 155.22826 159.61275 163.85915 168.23672 172.46243 179.18761 181.1071 184.90471 187.10042 191.48491 193.40442 197.00177 199.70842 203.94099 208.31859 212.11618"
         y="-328.15503"
         sodipodi:role="line"
         id="tspan346"
         style="stroke-width:0.575393">Pearson correlation vs. genomic distance</tspan></text><text
       transform="matrix(1.3333333,0,0,1.3333333,0,460.8)"
       style="font-variant:normal;font-weight:normal;font-size:6.90472px;font-family:'DejaVu Sans';-inkscape-font-specification:DejaVuSans;writing-mode:lr-tb;fill:#000000;fill-opacity:1;fill-rule:nonzero;stroke:none;stroke-width:0.575393"
       id="text352"
       x="45.798641"
       y="-320.41599"><tspan
         x="45.798641 51.149799 57.108566 61.499966 65.891357 70.282753 74.674156 79.065544 81.261253 83.456947 87.848351 90.04406 94.435448 96.631149 101.02254 103.21825 107.60965 109.80534 114.19675 116.39243 120.78384 125.17523 127.37094 131.76233 136.15373 138.34943 142.74083 147.13222 149.32791 153.71931 158.11072 160.30641 164.69781 169.08922 171.28491 175.67633 180.0677 182.26341 186.65482 191.04622 193.2419 197.63332 202.0247 204.2204 208.44608 212.82368 215.01938 219.54886 223.94028 228.33167 232.72307 234.91875 237.11447 241.50586"
         y="-320.41599"
         sodipodi:role="line"
         id="tspan350"
         style="stroke-width:0.575393">GM12878, 1,2,4,7,9,11,13,14,16,17,18,20,22 on K562, 14</tspan></text><text
       style="font-variant:normal;font-weight:normal;font-size:7.67191px;font-family:'DejaVu Sans';-inkscape-font-specification:DejaVuSans;writing-mode:lr-tb;fill:#000000;fill-opacity:1;fill-rule:nonzero;stroke:none;stroke-width:0.767191"
       id="text358"
       x="93.115707"
       y="176.05046"><tspan
         x="93.115707 97.995041 102.87437 105.31403 110.03223 114.90392 117.34356 119.92899 122.36868 127.61627 133.23212 138.5871 141.1725 143.6122 148.49152 150.93118 155.81052 160.68983"
         y="176.05046"
         sodipodi:role="line"
         id="tspan356"
         style="stroke-width:0.767191">80 ep / AUC: 0.362</tspan></text><text
       style="font-variant:normal;font-weight:normal;font-size:7.67191px;font-family:'DejaVu Sans';-inkscape-font-specification:DejaVuSans;writing-mode:lr-tb;fill:#000000;fill-opacity:1;fill-rule:nonzero;stroke:none;stroke-width:0.767191"
       id="text364"
       x="93.115707"
       y="187.30656"><tspan
         x="93.115707 97.995041 102.87437 107.75368 110.19334 114.91161 119.78323 122.22292 124.80835 127.24799 132.49559 138.11143 143.46645 146.05185 148.49152 153.37086 155.81052 160.68983 165.56918"
         y="187.30656"
         sodipodi:role="line"
         id="tspan362"
         style="stroke-width:0.767191">100 ep / AUC: 0.392</tspan></text><text
       style="font-variant:normal;font-weight:normal;font-size:7.67191px;font-family:'DejaVu Sans';-inkscape-font-specification:DejaVuSans;writing-mode:lr-tb;fill:#000000;fill-opacity:1;fill-rule:nonzero;stroke:none;stroke-width:0.767191"
       id="text370"
       x="93.115707"
       y="198.5627"><tspan
         x="93.115707 97.995041 102.87437 107.75368 110.19334 114.91161 119.78323 122.22292 124.80835 127.24799 132.49559 138.11143 143.46645 146.05185 148.49152 153.37086 155.81052 160.68983 165.56918"
         y="198.5627"
         sodipodi:role="line"
         id="tspan368"
         style="stroke-width:0.767191">120 ep / AUC: 0.388</tspan></text><text
       style="font-variant:normal;font-weight:normal;font-size:7.67191px;font-family:'DejaVu Sans';-inkscape-font-specification:DejaVuSans;writing-mode:lr-tb;fill:#000000;fill-opacity:1;fill-rule:nonzero;stroke:none;stroke-width:0.767191"
       id="text376"
       x="93.115707"
       y="209.8188"><tspan
         x="93.115707 97.995041 102.87437 107.75368 110.19334 114.91161 119.78323 122.22292 124.80835 127.24799 132.49559 138.11143 143.46645 146.05185 148.49152 153.37086 155.81052 160.68983 165.56918"
         y="209.8188"
         sodipodi:role="line"
         id="tspan374"
         style="stroke-width:0.767191">140 ep / AUC: 0.418</tspan></text><text
       style="font-variant:normal;font-weight:normal;font-size:7.67191px;font-family:'DejaVu Sans';-inkscape-font-specification:DejaVuSans;writing-mode:lr-tb;fill:#000000;fill-opacity:1;fill-rule:nonzero;stroke:none;stroke-width:0.767191"
       id="text382"
       x="93.115707"
       y="221.07491"><tspan
         x="93.115707 97.995041 102.87437 107.75368 110.19334 114.91161 119.78323 122.22292 124.80835 127.24799 132.49559 138.11143 143.46645 146.05185 148.49152 153.37086 155.81052 160.68983 165.56918"
         y="221.07491"
         sodipodi:role="line"
         id="tspan380"
         style="stroke-width:0.767191">160 ep / AUC: 0.434</tspan></text><text
       style="font-variant:normal;font-weight:normal;font-size:7.67191px;font-family:'DejaVu Sans';-inkscape-font-specification:DejaVuSans;writing-mode:lr-tb;fill:#000000;fill-opacity:1;fill-rule:nonzero;stroke:none;stroke-width:0.767191"
       id="text388"
       x="93.115707"
       y="232.33105"><tspan
         x="93.115707 96.123093 99.276245 103.97913 108.84309 112.84013 115.5407 120.2589 123.41206 125.85172 131.79747 138.41832 143.29767 148.17697 153.0563 157.93562 162.81497 165.25465 167.84006 170.27972 175.52731 181.14314 186.49814 189.08356 191.52322 196.40259 198.84224 203.72153 208.60089"
         y="232.33105"
         sodipodi:role="line"
         id="tspan386"
         style="stroke-width:0.767191">transfer GM12878 / AUC: 0.789</tspan></text></g></svg>
