<?xml version="1.0" encoding="UTF-8" standalone="no"?>
<svg
   xmlns:dc="http://purl.org/dc/elements/1.1/"
   xmlns:cc="http://creativecommons.org/ns#"
   xmlns:rdf="http://www.w3.org/1999/02/22-rdf-syntax-ns#"
   xmlns:svg="http://www.w3.org/2000/svg"
   xmlns="http://www.w3.org/2000/svg"
   xmlns:sodipodi="http://sodipodi.sourceforge.net/DTD/sodipodi-0.dtd"
   xmlns:inkscape="http://www.inkscape.org/namespaces/inkscape"
   version="1.1"
   id="svg2"
   xml:space="preserve"
   width="80mm"
   height="65.300003mm"
   viewBox="0 0 302.36219 246.80316"
   sodipodi:docname="pearson_chr19.svg"
   inkscape:version="1.0.2 (1.0.2+r75+1)"><metadata
     id="metadata8"><rdf:RDF><cc:Work
         rdf:about=""><dc:format>image/svg+xml</dc:format><dc:type
           rdf:resource="http://purl.org/dc/dcmitype/StillImage" /><dc:title></dc:title></cc:Work></rdf:RDF></metadata><defs
     id="defs6"><clipPath
       clipPathUnits="userSpaceOnUse"
       id="clipPath22"><path
         d="M 57.6,38.016 H 414.72 V 304.128 H 57.6 Z"
         id="path20" /></clipPath><clipPath
       clipPathUnits="userSpaceOnUse"
       id="clipPath40"><path
         d="M 57.6,38.016 H 414.72 V 304.128 H 57.6 Z"
         id="path38" /></clipPath><clipPath
       clipPathUnits="userSpaceOnUse"
       id="clipPath58"><path
         d="M 57.6,38.016 H 414.72 V 304.128 H 57.6 Z"
         id="path56" /></clipPath><clipPath
       clipPathUnits="userSpaceOnUse"
       id="clipPath76"><path
         d="M 57.6,38.016 H 414.72 V 304.128 H 57.6 Z"
         id="path74" /></clipPath><clipPath
       clipPathUnits="userSpaceOnUse"
       id="clipPath94"><path
         d="M 57.6,38.016 H 414.72 V 304.128 H 57.6 Z"
         id="path92" /></clipPath><clipPath
       clipPathUnits="userSpaceOnUse"
       id="clipPath112"><path
         d="M 57.6,38.016 H 414.72 V 304.128 H 57.6 Z"
         id="path110" /></clipPath><clipPath
       clipPathUnits="userSpaceOnUse"
       id="clipPath130"><path
         d="M 57.6,38.016 H 414.72 V 304.128 H 57.6 Z"
         id="path128" /></clipPath><clipPath
       clipPathUnits="userSpaceOnUse"
       id="clipPath148"><path
         d="M 57.6,38.016 H 414.72 V 304.128 H 57.6 Z"
         id="path146" /></clipPath><clipPath
       clipPathUnits="userSpaceOnUse"
       id="clipPath170"><path
         d="M 57.6,38.016 H 414.72 V 304.128 H 57.6 Z"
         id="path168" /></clipPath><clipPath
       clipPathUnits="userSpaceOnUse"
       id="clipPath188"><path
         d="M 57.6,38.016 H 414.72 V 304.128 H 57.6 Z"
         id="path186" /></clipPath><clipPath
       clipPathUnits="userSpaceOnUse"
       id="clipPath206"><path
         d="M 57.6,38.016 H 414.72 V 304.128 H 57.6 Z"
         id="path204" /></clipPath><clipPath
       clipPathUnits="userSpaceOnUse"
       id="clipPath224"><path
         d="M 57.6,38.016 H 414.72 V 304.128 H 57.6 Z"
         id="path222" /></clipPath><clipPath
       clipPathUnits="userSpaceOnUse"
       id="clipPath242"><path
         d="M 57.6,38.016 H 414.72 V 304.128 H 57.6 Z"
         id="path240" /></clipPath><clipPath
       clipPathUnits="userSpaceOnUse"
       id="clipPath260"><path
         d="M 57.6,38.016 H 414.72 V 304.128 H 57.6 Z"
         id="path258" /></clipPath><clipPath
       clipPathUnits="userSpaceOnUse"
       id="clipPath282"><path
         d="M 57.6,38.016 H 414.72 V 304.128 H 57.6 Z"
         id="path280" /></clipPath><clipPath
       clipPathUnits="userSpaceOnUse"
       id="clipPath292"><path
         d="M 57.6,38.016 H 414.72 V 304.128 H 57.6 Z"
         id="path290" /></clipPath><clipPath
       clipPathUnits="userSpaceOnUse"
       id="clipPath302"><path
         d="M 57.6,38.016 H 414.72 V 304.128 H 57.6 Z"
         id="path300" /></clipPath><clipPath
       clipPathUnits="userSpaceOnUse"
       id="clipPath312"><path
         d="M 57.6,38.016 H 414.72 V 304.128 H 57.6 Z"
         id="path310" /></clipPath><clipPath
       clipPathUnits="userSpaceOnUse"
       id="clipPath322"><path
         d="M 57.6,38.016 H 414.72 V 304.128 H 57.6 Z"
         id="path320" /></clipPath><clipPath
       clipPathUnits="userSpaceOnUse"
       id="clipPath332"><path
         d="M 57.6,38.016 H 414.72 V 304.128 H 57.6 Z"
         id="path330" /></clipPath></defs><sodipodi:namedview
     pagecolor="#ffffff"
     bordercolor="#666666"
     borderopacity="1"
     objecttolerance="10"
     gridtolerance="10"
     guidetolerance="10"
     inkscape:pageopacity="0"
     inkscape:pageshadow="2"
     inkscape:window-width="1920"
     inkscape:window-height="1020"
     id="namedview4"
     showgrid="false"
     units="mm"
     fit-margin-top="0"
     fit-margin-left="0"
     fit-margin-right="0"
     fit-margin-bottom="0"
     inkscape:zoom="5.2603344"
     inkscape:cx="165.71808"
     inkscape:cy="183.2285"
     inkscape:window-x="0"
     inkscape:window-y="0"
     inkscape:window-maximized="1"
     inkscape:current-layer="layer1" /><g
     id="g10"
     inkscape:groupmode="layer"
     inkscape:label="pearson_chr19"
     transform="matrix(1.3333333,0,0,-1.3333333,-28.023958,443.59358)"><g
       id="g328"
       clip-path="url(#clipPath332)"
       style="stroke:#d62728;stroke-opacity:1"
       transform="matrix(0.57526649,0,0,0.57526649,8.9270358,141.98396)"><path
         d="m 57.6,291.21219 5.668571,-7.83046 5.668572,-4.86458 5.668571,-2.46954 5.668572,-1.96157 5.668571,-0.70339 5.668572,-0.77901 5.668571,0.56941 5.66857,1.44261 5.66857,-4.23176 5.66857,1.35083 5.66858,-2.28237 5.66857,-2.93286 5.66857,-3.08073 5.66857,-2.14705 5.66857,-0.83498 5.66857,-1.68169 5.66857,-3.59095 5.66858,-1.50789 5.66857,-0.86811 5.66857,1.0161 5.66857,-3.60562 5.66857,0.81065 5.66857,-1.96396 5.66857,-1.65329 5.66858,-1.46005 5.66857,-2.29329 5.66857,-0.0795 5.66857,2.51759 5.66857,-2.46762 5.66857,2.05221 5.66857,-3.78015 5.66858,-1.24809 5.66857,0.76119 5.66857,-0.93235 5.66857,1.35451 5.66857,-1.54374 5.66857,-3.18044 5.66857,-0.20368 5.66858,-0.82129 5.66857,-4.32261 5.66857,3.89268 5.66857,-4.43393 5.66857,1.02919 5.66857,-1.49329 5.66857,1.7614 5.66858,-8.713 5.66857,6.54481 5.66857,-2.93798 5.66857,2.2996 5.66857,-0.0617 5.66857,0.9859 5.66857,1.41998 5.66858,-2.47145 5.66857,-3.724 5.66857,1.31946 5.66857,2.11197 5.66857,1.16673 5.66857,-0.26716 5.66857,5.12537 5.66858,3.04913 5.66857,2.81569 5.66857,4.55411 5.66857,0.40623"
         style="fill:none;stroke:#d62728;stroke-width:1.5;stroke-linecap:square;stroke-linejoin:round;stroke-miterlimit:10;stroke-dasharray:none;stroke-opacity:1"
         id="path334" /></g><g
       id="g16"
       transform="matrix(0.57526649,0,0,0.57526649,8.9270358,141.98396)"><g
         id="g18"
         clip-path="url(#clipPath22)"><path
           d="M 57.6,38.016 V 304.128"
           style="fill:none;stroke:#b0b0b0;stroke-width:0.8;stroke-linecap:square;stroke-linejoin:round;stroke-miterlimit:10;stroke-dasharray:none;stroke-opacity:1"
           id="path24" /></g></g><path
       d="m 42.062386,163.85329 v -2.01343"
       style="fill:#000000;fill-opacity:1;fill-rule:nonzero;stroke:#000000;stroke-width:0.460213;stroke-linecap:butt;stroke-linejoin:round;stroke-miterlimit:10;stroke-dasharray:none;stroke-opacity:1"
       id="path28" /><g
       id="g34"
       transform="matrix(0.57526649,0,0,0.57526649,8.9270358,141.98396)"><g
         id="g36"
         clip-path="url(#clipPath40)"><path
           d="M 102.94857,38.016 V 304.128"
           style="fill:none;stroke:#b0b0b0;stroke-width:0.8;stroke-linecap:square;stroke-linejoin:round;stroke-miterlimit:10;stroke-dasharray:none;stroke-opacity:1"
           id="path42" /></g></g><path
       d="m 68.149898,163.85329 v -2.01343"
       style="fill:#000000;fill-opacity:1;fill-rule:nonzero;stroke:#000000;stroke-width:0.460213;stroke-linecap:butt;stroke-linejoin:round;stroke-miterlimit:10;stroke-dasharray:none;stroke-opacity:1"
       id="path46" /><g
       id="g52"
       transform="matrix(0.57526649,0,0,0.57526649,8.9270358,141.98396)"><g
         id="g54"
         clip-path="url(#clipPath58)"><path
           d="M 148.29714,38.016 V 304.128"
           style="fill:none;stroke:#b0b0b0;stroke-width:0.8;stroke-linecap:square;stroke-linejoin:round;stroke-miterlimit:10;stroke-dasharray:none;stroke-opacity:1"
           id="path60" /></g></g><path
       d="m 94.237412,163.85329 v -2.01343"
       style="fill:#000000;fill-opacity:1;fill-rule:nonzero;stroke:#000000;stroke-width:0.460213;stroke-linecap:butt;stroke-linejoin:round;stroke-miterlimit:10;stroke-dasharray:none;stroke-opacity:1"
       id="path64" /><g
       id="g70"
       transform="matrix(0.57526649,0,0,0.57526649,8.9270358,141.98396)"><g
         id="g72"
         clip-path="url(#clipPath76)"><path
           d="M 193.64571,38.016 V 304.128"
           style="fill:none;stroke:#b0b0b0;stroke-width:0.8;stroke-linecap:square;stroke-linejoin:round;stroke-miterlimit:10;stroke-dasharray:none;stroke-opacity:1"
           id="path78" /></g></g><path
       d="m 120.32492,163.85329 v -2.01343"
       style="fill:#000000;fill-opacity:1;fill-rule:nonzero;stroke:#000000;stroke-width:0.460213;stroke-linecap:butt;stroke-linejoin:round;stroke-miterlimit:10;stroke-dasharray:none;stroke-opacity:1"
       id="path82" /><g
       id="g88"
       transform="matrix(0.57526649,0,0,0.57526649,8.9270358,141.98396)"><g
         id="g90"
         clip-path="url(#clipPath94)"><path
           d="M 238.99429,38.016 V 304.128"
           style="fill:none;stroke:#b0b0b0;stroke-width:0.8;stroke-linecap:square;stroke-linejoin:round;stroke-miterlimit:10;stroke-dasharray:none;stroke-opacity:1"
           id="path96" /></g></g><path
       d="m 146.41244,163.85329 v -2.01343"
       style="fill:#000000;fill-opacity:1;fill-rule:nonzero;stroke:#000000;stroke-width:0.460213;stroke-linecap:butt;stroke-linejoin:round;stroke-miterlimit:10;stroke-dasharray:none;stroke-opacity:1"
       id="path100" /><g
       id="g106"
       transform="matrix(0.57526649,0,0,0.57526649,8.9270358,141.98396)"><g
         id="g108"
         clip-path="url(#clipPath112)"><path
           d="M 284.34286,38.016 V 304.128"
           style="fill:none;stroke:#b0b0b0;stroke-width:0.8;stroke-linecap:square;stroke-linejoin:round;stroke-miterlimit:10;stroke-dasharray:none;stroke-opacity:1"
           id="path114" /></g></g><path
       d="m 172.49996,163.85329 v -2.01343"
       style="fill:#000000;fill-opacity:1;fill-rule:nonzero;stroke:#000000;stroke-width:0.460213;stroke-linecap:butt;stroke-linejoin:round;stroke-miterlimit:10;stroke-dasharray:none;stroke-opacity:1"
       id="path118" /><g
       id="g124"
       transform="matrix(0.57526649,0,0,0.57526649,8.9270358,141.98396)"><g
         id="g126"
         clip-path="url(#clipPath130)"><path
           d="M 329.69143,38.016 V 304.128"
           style="fill:none;stroke:#b0b0b0;stroke-width:0.8;stroke-linecap:square;stroke-linejoin:round;stroke-miterlimit:10;stroke-dasharray:none;stroke-opacity:1"
           id="path132" /></g></g><path
       d="m 198.58747,163.85329 v -2.01343"
       style="fill:#000000;fill-opacity:1;fill-rule:nonzero;stroke:#000000;stroke-width:0.460213;stroke-linecap:butt;stroke-linejoin:round;stroke-miterlimit:10;stroke-dasharray:none;stroke-opacity:1"
       id="path136" /><g
       id="g142"
       transform="matrix(0.57526649,0,0,0.57526649,8.9270358,141.98396)"><g
         id="g144"
         clip-path="url(#clipPath148)"><path
           d="M 375.04,38.016 V 304.128"
           style="fill:none;stroke:#b0b0b0;stroke-width:0.8;stroke-linecap:square;stroke-linejoin:round;stroke-miterlimit:10;stroke-dasharray:none;stroke-opacity:1"
           id="path150" /></g></g><path
       d="m 224.67498,163.85329 v -2.01343"
       style="fill:#000000;fill-opacity:1;fill-rule:nonzero;stroke:#000000;stroke-width:0.460213;stroke-linecap:butt;stroke-linejoin:round;stroke-miterlimit:10;stroke-dasharray:none;stroke-opacity:1"
       id="path154" /><g
       id="g164"
       transform="matrix(0.57526649,0,0,0.57526649,8.9270358,141.98396)"><g
         id="g166"
         clip-path="url(#clipPath170)"><path
           d="M 57.6,38.016 H 414.72"
           style="fill:none;stroke:#b0b0b0;stroke-width:0.8;stroke-linecap:square;stroke-linejoin:round;stroke-miterlimit:10;stroke-dasharray:none;stroke-opacity:1"
           id="path172" /></g></g><path
       d="M 42.062386,163.85329 H 40.048953"
       style="fill:#000000;fill-opacity:1;fill-rule:nonzero;stroke:#000000;stroke-width:0.460213;stroke-linecap:butt;stroke-linejoin:round;stroke-miterlimit:10;stroke-dasharray:none;stroke-opacity:1"
       id="path176" /><g
       id="g182"
       transform="matrix(0.57526649,0,0,0.57526649,8.9270358,141.98396)"><g
         id="g184"
         clip-path="url(#clipPath188)"><path
           d="M 57.6,91.2384 H 414.72"
           style="fill:none;stroke:#b0b0b0;stroke-width:0.8;stroke-linecap:square;stroke-linejoin:round;stroke-miterlimit:10;stroke-dasharray:none;stroke-opacity:1"
           id="path190" /></g></g><path
       d="M 42.062386,194.47035 H 40.048953"
       style="fill:#000000;fill-opacity:1;fill-rule:nonzero;stroke:#000000;stroke-width:0.460213;stroke-linecap:butt;stroke-linejoin:round;stroke-miterlimit:10;stroke-dasharray:none;stroke-opacity:1"
       id="path194" /><g
       id="g200"
       transform="matrix(0.57526649,0,0,0.57526649,8.9270358,141.98396)"><g
         id="g202"
         clip-path="url(#clipPath206)"><path
           d="M 57.6,144.4608 H 414.72"
           style="fill:none;stroke:#b0b0b0;stroke-width:0.8;stroke-linecap:square;stroke-linejoin:round;stroke-miterlimit:10;stroke-dasharray:none;stroke-opacity:1"
           id="path208" /></g></g><path
       d="M 42.062386,225.08741 H 40.048953"
       style="fill:#000000;fill-opacity:1;fill-rule:nonzero;stroke:#000000;stroke-width:0.460213;stroke-linecap:butt;stroke-linejoin:round;stroke-miterlimit:10;stroke-dasharray:none;stroke-opacity:1"
       id="path212" /><g
       id="g218"
       transform="matrix(0.57526649,0,0,0.57526649,8.9270358,141.98396)"><g
         id="g220"
         clip-path="url(#clipPath224)"><path
           d="M 57.6,197.6832 H 414.72"
           style="fill:none;stroke:#b0b0b0;stroke-width:0.8;stroke-linecap:square;stroke-linejoin:round;stroke-miterlimit:10;stroke-dasharray:none;stroke-opacity:1"
           id="path226" /></g></g><path
       d="M 42.062386,255.70448 H 40.048953"
       style="fill:#000000;fill-opacity:1;fill-rule:nonzero;stroke:#000000;stroke-width:0.460213;stroke-linecap:butt;stroke-linejoin:round;stroke-miterlimit:10;stroke-dasharray:none;stroke-opacity:1"
       id="path230" /><g
       id="g236"
       transform="matrix(0.57526649,0,0,0.57526649,8.9270358,141.98396)"><g
         id="g238"
         clip-path="url(#clipPath242)"><path
           d="M 57.6,250.9056 H 414.72"
           style="fill:none;stroke:#b0b0b0;stroke-width:0.8;stroke-linecap:square;stroke-linejoin:round;stroke-miterlimit:10;stroke-dasharray:none;stroke-opacity:1"
           id="path244" /></g></g><path
       d="M 42.062386,286.32154 H 40.048953"
       style="fill:#000000;fill-opacity:1;fill-rule:nonzero;stroke:#000000;stroke-width:0.460213;stroke-linecap:butt;stroke-linejoin:round;stroke-miterlimit:10;stroke-dasharray:none;stroke-opacity:1"
       id="path248" /><g
       id="g254"
       transform="matrix(0.57526649,0,0,0.57526649,8.9270358,141.98396)"><g
         id="g256"
         clip-path="url(#clipPath260)"><path
           d="M 57.6,304.128 H 414.72"
           style="fill:none;stroke:#b0b0b0;stroke-width:0.8;stroke-linecap:square;stroke-linejoin:round;stroke-miterlimit:10;stroke-dasharray:none;stroke-opacity:1"
           id="path262" /></g></g><path
       d="M 42.062386,316.93861 H 40.048953"
       style="fill:#000000;fill-opacity:1;fill-rule:nonzero;stroke:#000000;stroke-width:0.460213;stroke-linecap:butt;stroke-linejoin:round;stroke-miterlimit:10;stroke-dasharray:none;stroke-opacity:1"
       id="path266" /><g
       id="g278"
       clip-path="url(#clipPath282)"
       transform="matrix(0.57526649,0,0,0.57526649,8.9270358,141.98396)"><path
         d="m 57.6,260.32721 5.668571,-1.42434 5.668572,-20.72872 5.668571,-12.84834 5.668572,-8.42773 5.668571,-5.09009 5.668572,-1.92144 5.668571,-3.96667 5.66857,-2.63731 5.66857,-0.62718 5.66857,0.11387 5.66858,-8.69431 5.66857,-0.6947 5.66857,-1.5259 5.66857,-2.40156 5.66857,-0.82497 5.66857,-1.56474 5.66857,-0.78617 5.66858,-5.87296 5.66857,-1.10409 5.66857,-0.42255 5.66857,-4.57843 5.66857,-0.66442 5.66857,0.20912 5.66857,-2.10751 5.66858,-6.47515 5.66857,-0.8999 5.66857,-4.57307 5.66857,-0.29632 5.66857,-2.96238 5.66857,1.18507 5.66857,-0.24992 5.66858,-2.39329 5.66857,3.93325 5.66857,-1.55285 5.66857,-0.58394 5.66857,-5.46948 5.66857,4.15166 5.66857,-2.89856 5.66858,0.61334 5.66857,-3.61305 5.66857,8.15509 5.66857,-6.0436 5.66857,4.32579 5.66857,-3.41104 5.66857,-2.16467 5.66858,0.33973 5.66857,6.09962 5.66857,-0.21856 5.66857,-1.6752 5.66857,-1.80716 5.66857,-0.70882 5.66857,-25.04855 5.66858,-75.074152 L 363.43846,-1"
         style="fill:none;stroke:#1f77b4;stroke-width:1.5;stroke-linecap:square;stroke-linejoin:round;stroke-miterlimit:10;stroke-dasharray:none;stroke-opacity:1"
         id="path284" /></g><g
       id="g288"
       clip-path="url(#clipPath292)"
       transform="matrix(0.57526649,0,0,0.57526649,8.9270358,141.98396)"><path
         d="m 57.6,259.3868 5.668571,-2.15131 5.668572,-18.57678 5.668571,-11.04344 5.668572,-5.03788 5.668571,-2.02177 5.668572,-1.38406 5.668571,-4.14966 5.66857,-3.38978 5.66857,-2.08679 5.66857,0.24167 5.66858,-7.98935 5.66857,-0.20246 5.66857,-2.54042 5.66857,-2.3287 5.66857,-2.03024 5.66857,-1.08743 5.66857,-0.26593 5.66858,-4.4693 5.66857,0.37097 5.66857,-0.56428 5.66857,-3.77754 5.66857,-0.4341 5.66857,1.60174 5.66857,-2.71293 5.66858,-6.51517 5.66857,0.0694 5.66857,-3.90568 5.66857,-0.39934 5.66857,-2.02722 5.66857,-1.83957 5.66857,1.85114 5.66858,-2.88333 5.66857,2.55062 5.66857,-2.94246 5.66857,-0.88451 5.66857,-4.05488 5.66857,4.31733 5.66857,-0.86735 5.66858,1.07752 5.66857,-5.26017 5.66857,11.31887 5.66857,-4.86873 5.66857,4.66388 5.66857,-4.50917 5.66857,-2.91183 5.66858,-1.00394 5.66857,6.18557 5.66857,-3.09969 5.66857,-2.58365 5.66857,-5.52673 5.66857,1.54313 5.66857,0.72795 5.66858,-1.90906 5.66857,-16.69112 5.66857,-81.16476 L 373.90485,-1"
         style="fill:none;stroke:#ff7f0e;stroke-width:1.5;stroke-linecap:square;stroke-linejoin:round;stroke-miterlimit:10;stroke-dasharray:none;stroke-opacity:1"
         id="path294" /></g><g
       id="g298"
       clip-path="url(#clipPath302)"
       transform="matrix(0.57526649,0,0,0.57526649,8.9270358,141.98396)"><path
         d="m 57.6,258.91709 5.668571,-2.05733 5.668572,-16.93746 5.668571,-8.60616 5.668572,-3.03107 5.668571,-1.4541 5.668572,-3.78215 5.668571,-7.17749 5.66857,-5.05874 5.66857,-2.04955 5.66857,0.8347 5.66858,-6.10944 5.66857,-0.0221 5.66857,-5.149 5.66857,-3.74795 5.66857,-2.71349 5.66857,-0.8973 5.66857,0.39678 5.66858,-4.91867 5.66857,-0.40565 5.66857,-1.51813 5.66857,-4.62971 5.66857,0.22436 5.66857,0.84015 5.66857,-2.57002 5.66858,-6.27488 5.66857,-0.87021 5.66857,-2.89136 5.66857,0.0766 5.66857,-0.983 5.66857,-0.82257 5.66857,2.30693 5.66858,-2.71777 5.66857,1.15988 5.66857,-2.60202 5.66857,-0.64305 5.66857,-3.21474 5.66857,4.01401 5.66857,0.0876 5.66858,0.74155 5.66857,-5.4729 5.66857,10.76379 5.66857,-4.37982 5.66857,4.4112 5.66857,-3.50852 5.66857,-2.86023 5.66858,-1.73129 5.66857,6.16489 5.66857,-1.32722 5.66857,-3.82634 5.66857,-5.31697 5.66857,1.28079 5.66857,-0.25104 5.66858,-2.65469 5.66857,0.84371 5.66857,-14.49928 L 375.04,36.589345 378.16992,-1"
         style="fill:none;stroke:#2ca02c;stroke-width:1.5;stroke-linecap:square;stroke-linejoin:round;stroke-miterlimit:10;stroke-dasharray:none;stroke-opacity:1"
         id="path304" /></g><g
       id="g308"
       clip-path="url(#clipPath312)"
       transform="matrix(0.57526649,0,0,0.57526649,8.9270358,141.98396)"
       style="stroke:#8c564b;stroke-opacity:1"><path
         d="m 57.6,256.61743 5.668571,-1.79154 5.668572,-15.86321 5.668571,-7.32729 5.668572,-2.81307 5.668571,-1.93842 5.668572,-4.23066 5.668571,-7.29143 5.66857,-4.80377 5.66857,-1.75122 5.66857,0.004 5.66858,-6.19645 5.66857,1.0636 5.66857,-4.91409 5.66857,-3.46959 5.66857,-2.8467 5.66857,-0.99253 5.66857,-0.19044 5.66858,-5.3512 5.66857,-1.16176 5.66857,-1.41792 5.66857,-4.47431 5.66857,0.43081 5.66857,1.00613 5.66857,-2.88743 5.66858,-5.85577 5.66857,-1.97832 5.66857,-2.48164 5.66857,-0.1662 5.66857,1.30446 5.66857,-0.69745 5.66857,2.91034 5.66858,-2.39038 5.66857,1.68203 5.66857,-2.2403 5.66857,-0.70875 5.66857,-1.67695 5.66857,3.54473 5.66857,0.30411 5.66858,0.16362 5.66857,-5.72657 5.66857,11.09701 5.66857,-3.28786 5.66857,4.83017 5.66857,-2.56877 5.66857,-3.55639 5.66858,-2.08356 5.66857,6.73473 5.66857,0.33049 5.66857,-3.74427 5.66857,-5.30883 5.66857,3.30483 5.66857,-1.33598 5.66858,-4.23453 5.66857,1.29626 5.66857,0.40531 L 375.04,83.826749 379.29387,-1"
         style="fill:none;stroke:#8c564b;stroke-width:1.5;stroke-linecap:square;stroke-linejoin:round;stroke-miterlimit:10;stroke-dasharray:none;stroke-opacity:1"
         id="path314" /></g><g
       id="g318"
       clip-path="url(#clipPath322)"
       transform="matrix(0.57526649,0,0,0.57526649,8.9270358,141.98396)"><path
         d="m 57.6,256.45653 5.668571,-1.88135 5.668572,-15.3332 5.668571,-7.023 5.668572,-2.66783 5.668571,-2.06734 5.668572,-4.01537 5.668571,-6.78165 5.66857,-4.25891 5.66857,-2.40578 5.66857,-0.85863 5.66858,-6.1583 5.66857,0.91983 5.66857,-5.08551 5.66857,-2.99421 5.66857,-2.65331 5.66857,-0.92691 5.66857,-0.46958 5.66858,-6.14315 5.66857,-1.44541 5.66857,-2.14342 5.66857,-4.28237 5.66857,1.00353 5.66857,0.99715 5.66857,-3.29171 5.66858,-6.39693 5.66857,-1.88759 5.66857,-2.09275 5.66857,-0.19867 5.66857,2.11873 5.66857,-1.04218 5.66857,3.20157 5.66858,-2.43113 5.66857,1.44432 5.66857,-2.94946 5.66857,0.064 5.66857,-1.27231 5.66857,3.70065 5.66857,-0.296 5.66858,0.1044 5.66857,-6.0899 5.66857,11.04061 5.66857,-3.17398 5.66857,5.09496 5.66857,-2.08192 5.66857,-4.30921 5.66858,-2.59572 5.66857,7.55063 5.66857,0.0876 5.66857,-2.40185 5.66857,-4.51453 5.66857,4.45278 5.66857,-0.97792 5.66858,-3.36897 5.66857,0.57243 5.66857,4.24991 L 375.04,146.48922 379.99958,-1 m 16.83005,0 0.88466,1.313985 5.66857,5.759878 5.66857,5.100889 L 414.72,10.8516"
         style="fill:none;stroke:#9467bd;stroke-width:1.5;stroke-linecap:square;stroke-linejoin:round;stroke-miterlimit:10;stroke-dasharray:none;stroke-opacity:1"
         id="path324" /></g><path
       d="M 42.062386,163.85329 V 316.93861"
       style="fill:none;stroke:#000000;stroke-width:0.460213;stroke-linecap:square;stroke-linejoin:miter;stroke-miterlimit:10;stroke-dasharray:none;stroke-opacity:1"
       id="path338" /><path
       d="M 247.50156,163.85329 V 316.93861"
       style="fill:none;stroke:#000000;stroke-width:0.460213;stroke-linecap:square;stroke-linejoin:miter;stroke-miterlimit:10;stroke-dasharray:none;stroke-opacity:1"
       id="path340" /><path
       d="M 42.062386,163.85329 H 247.50156"
       style="fill:none;stroke:#000000;stroke-width:0.460213;stroke-linecap:square;stroke-linejoin:miter;stroke-miterlimit:10;stroke-dasharray:none;stroke-opacity:1"
       id="path342" /><path
       d="M 42.062386,316.93861 H 247.50156"
       style="fill:none;stroke:#000000;stroke-width:0.460213;stroke-linecap:square;stroke-linejoin:miter;stroke-miterlimit:10;stroke-dasharray:none;stroke-opacity:1"
       id="path344" /><path
       d="M 53.42682,215.83591 H 64.93215"
       style="fill:none;stroke:#1f77b4;stroke-width:0.8629;stroke-linecap:square;stroke-linejoin:round;stroke-miterlimit:10;stroke-dasharray:none;stroke-opacity:1"
       id="path354" /><path
       d="M 53.42682,207.39567 H 64.93215"
       style="fill:none;stroke:#ff7f0e;stroke-width:0.8629;stroke-linecap:square;stroke-linejoin:round;stroke-miterlimit:10;stroke-dasharray:none;stroke-opacity:1"
       id="path360" /><path
       d="M 53.42682,198.95543 H 64.93215"
       style="fill:none;stroke:#2ca02c;stroke-width:0.8629;stroke-linecap:square;stroke-linejoin:round;stroke-miterlimit:10;stroke-dasharray:none;stroke-opacity:1"
       id="path366" /><path
       d="M 53.42682,190.51519 H 64.93215"
       style="fill:none;stroke:#8c564b;stroke-width:0.8629;stroke-linecap:square;stroke-linejoin:round;stroke-miterlimit:10;stroke-dasharray:none;stroke-opacity:1"
       id="path372" /><path
       d="M 53.42682,182.07495 H 64.93215"
       style="fill:none;stroke:#9467bd;stroke-width:0.8629;stroke-linecap:square;stroke-linejoin:round;stroke-miterlimit:10;stroke-dasharray:none;stroke-opacity:1"
       id="path378" /><path
       d="M 53.42682,173.63471 H 64.93215"
       style="fill:none;stroke:#d62728;stroke-width:0.8629;stroke-linecap:square;stroke-linejoin:round;stroke-miterlimit:10;stroke-dasharray:none;stroke-opacity:1"
       id="path384" /></g><g
     inkscape:groupmode="layer"
     id="layer1"
     inkscape:label="text"
     transform="translate(-28.023958,-17.206424)"><text
       style="font-variant:normal;font-weight:normal;font-size:9.20426px;font-family:'DejaVu Sans';-inkscape-font-specification:DejaVuSans;writing-mode:lr-tb;fill:#000000;fill-opacity:1;fill-rule:nonzero;stroke:none;stroke-width:0.767022"
       id="text348"
       x="98.321404"
       y="23.296524"><tspan
         x="98.321404 103.87157 109.53219 115.17442 118.95736 123.75278 129.3858 135.2213 138.14825 143.21059 148.8436 152.62657 156.40952 162.07013 164.62891 170.27113 173.8792 176.43797 182.07101 187.90649 190.83345 196.28238 201.0778 204.00476 206.93172 212.77643 218.43704 224.27254 229.90556 238.87051 241.42929 246.49164 249.41859 255.26331 257.82208 262.61749 266.22559 271.86777 277.70328 282.76562"
         y="23.296524"
         sodipodi:role="line"
         id="tspan346"
         style="stroke-width:0.767022">Pearson correlation vs. genomic distance</tspan></text><text
       style="font-variant:normal;font-weight:normal;font-size:9.20426px;font-family:'DejaVu Sans';-inkscape-font-specification:DejaVuSans;writing-mode:lr-tb;fill:#000000;fill-opacity:1;fill-rule:nonzero;stroke:none;stroke-width:0.767022"
       id="text352"
       x="134.27823"
       y="33.612946"><tspan
         x="134.27823 141.41154 149.35483 155.20872 161.06264 166.91655 172.77046 178.62437 181.55135 184.47829 190.3322 196.18611 199.11308 204.74608 210.58157 213.50854 219.54652 225.40045 231.25435 237.10826 240.03522 242.96219 248.81609"
         y="33.612946"
         sodipodi:role="line"
         id="tspan350"
         style="stroke-width:0.767022">GM12878, 17 on K562, 19</tspan></text><text
       style="font-variant:normal;font-weight:normal;font-size:7.67022px;font-family:'DejaVu Sans';-inkscape-font-specification:DejaVuSans;writing-mode:lr-tb;fill:#000000;fill-opacity:1;fill-rule:nonzero;stroke:none;stroke-width:0.767022"
       id="text358"
       x="92.712372"
       y="175.70325"><tspan
         x="92.712372 97.590622 102.46889 104.90802 109.6252 114.49579 116.93491 119.51979 121.95894 127.20535 132.81995 138.17375 140.75861 143.19775 148.07602 150.51514 155.39343 160.27164"
         y="175.70325"
         sodipodi:role="line"
         id="tspan356"
         style="stroke-width:0.767022">20 ep / AUC: 0.390</tspan></text><text
       style="font-variant:normal;font-weight:normal;font-size:7.67022px;font-family:'DejaVu Sans';-inkscape-font-specification:DejaVuSans;writing-mode:lr-tb;fill:#000000;fill-opacity:1;fill-rule:nonzero;stroke:none;stroke-width:0.767022"
       id="text364"
       x="92.712372"
       y="186.95691"><tspan
         x="92.712372 97.590622 102.46889 104.90802 109.6252 114.49579 116.93491 119.51979 121.95894 127.20535 132.81995 138.17375 140.75861 143.19775 148.07602 150.51514 155.39343 160.27164"
         y="186.95691"
         sodipodi:role="line"
         id="tspan362"
         style="stroke-width:0.767022">40 ep / AUC: 0.445</tspan></text><text
       style="font-variant:normal;font-weight:normal;font-size:7.67022px;font-family:'DejaVu Sans';-inkscape-font-specification:DejaVuSans;writing-mode:lr-tb;fill:#000000;fill-opacity:1;fill-rule:nonzero;stroke:none;stroke-width:0.767022"
       id="text370"
       x="92.712372"
       y="198.21063"><tspan
         x="92.712372 97.590622 102.46889 104.90802 109.6252 114.49579 116.93491 119.51979 121.95894 127.20535 132.81995 138.17375 140.75861 143.19775 148.07602 150.51514 155.39343 160.27164"
         y="198.21063"
         sodipodi:role="line"
         id="tspan368"
         style="stroke-width:0.767022">60 ep / AUC: 0.454</tspan></text><text
       style="font-variant:normal;font-weight:normal;font-size:7.67022px;font-family:'DejaVu Sans';-inkscape-font-specification:DejaVuSans;writing-mode:lr-tb;fill:#000000;fill-opacity:1;fill-rule:nonzero;stroke:none;stroke-width:0.767022"
       id="text376"
       x="92.712372"
       y="209.46428"><tspan
         x="92.712372 97.590622 102.46889 104.90802 109.6252 114.49579 116.93491 119.51979 121.95894 127.20535 132.81995 138.17375 140.75861 143.19775 148.07602 150.51514 155.39343 160.27164"
         y="209.46428"
         sodipodi:role="line"
         id="tspan374"
         style="stroke-width:0.767022">80 ep / AUC: 0.466</tspan></text><text
       style="font-variant:normal;font-weight:normal;font-size:7.67022px;font-family:'DejaVu Sans';-inkscape-font-specification:DejaVuSans;writing-mode:lr-tb;fill:#000000;fill-opacity:1;fill-rule:nonzero;stroke:none;stroke-width:0.767022"
       id="text382"
       x="92.712372"
       y="220.7179"><tspan
         x="92.712372 97.590622 102.46889 107.34714 109.78627 114.50346 119.37404 121.81319 124.39804 126.83717 132.0836 137.6982 143.05203 145.63689 148.07602 152.95428 155.39343 160.27164 165.14993"
         y="220.7179"
         sodipodi:role="line"
         id="tspan380"
         style="stroke-width:0.767022">100 ep / AUC: 0.477</tspan></text><text
       style="font-variant:normal;font-weight:normal;font-size:7.67022px;font-family:'DejaVu Sans';-inkscape-font-specification:DejaVuSans;writing-mode:lr-tb;fill:#000000;fill-opacity:1;fill-rule:nonzero;stroke:none;stroke-width:0.767022"
       id="text388"
       x="92.712372"
       y="231.9716"><tspan
         x="92.712372 95.719101 98.871567 103.57339 108.43633 112.4325 115.13242 119.84961 123.00208 125.44119 131.38562 138.005 142.88329 147.76154 152.6398 157.51807 162.39633 164.83545 167.42032 169.85944 175.10583 180.72046 186.07428 188.65915 191.0983 195.97653 198.41568 203.29391 208.17221"
         y="231.9716"
         sodipodi:role="line"
         id="tspan386"
         style="stroke-width:0.767022">transfer GM12878 / AUC: 0.786</tspan></text><text
       style="font-variant:normal;font-weight:normal;font-size:7.67022px;font-family:'DejaVu Sans';-inkscape-font-specification:DejaVuSans;writing-mode:lr-tb;fill:#000000;fill-opacity:1;fill-rule:nonzero;stroke:none;stroke-width:0.767022"
       id="text32"
       x="53.982956"
       y="253.52248"><tspan
         x="53.982956 58.861217 61.30035"
         y="253.52248"
         sodipodi:role="line"
         id="tspan30"
         style="stroke-width:0.767022">0.0</tspan></text><text
       style="font-variant:normal;font-weight:normal;font-size:7.67022px;font-family:'DejaVu Sans';-inkscape-font-specification:DejaVuSans;writing-mode:lr-tb;fill:#000000;fill-opacity:1;fill-rule:nonzero;stroke:none;stroke-width:0.767022"
       id="text50"
       x="84.766304"
       y="253.52248"><tspan
         x="84.766304 89.644577 92.08371"
         y="253.52248"
         sodipodi:role="line"
         id="tspan48"
         style="stroke-width:0.767022">0.2</tspan></text><text
       style="font-variant:normal;font-weight:normal;font-size:7.67022px;font-family:'DejaVu Sans';-inkscape-font-specification:DejaVuSans;writing-mode:lr-tb;fill:#000000;fill-opacity:1;fill-rule:nonzero;stroke:none;stroke-width:0.767022"
       id="text68"
       x="119.54967"
       y="253.52248"><tspan
         x="119.54967 124.42793 126.86705"
         y="253.52248"
         sodipodi:role="line"
         id="tspan66"
         style="stroke-width:0.767022">0.4</tspan></text><text
       style="font-variant:normal;font-weight:normal;font-size:7.67022px;font-family:'DejaVu Sans';-inkscape-font-specification:DejaVuSans;writing-mode:lr-tb;fill:#000000;fill-opacity:1;fill-rule:nonzero;stroke:none;stroke-width:0.767022"
       id="text86"
       x="154.33302"
       y="253.52248"><tspan
         x="154.33302 159.21127 161.65041"
         y="253.52248"
         sodipodi:role="line"
         id="tspan84"
         style="stroke-width:0.767022">0.6</tspan></text><text
       style="font-variant:normal;font-weight:normal;font-size:7.67022px;font-family:'DejaVu Sans';-inkscape-font-specification:DejaVuSans;writing-mode:lr-tb;fill:#000000;fill-opacity:1;fill-rule:nonzero;stroke:none;stroke-width:0.767022"
       id="text104"
       x="189.11635"
       y="253.52248"><tspan
         x="189.11635 193.99461 196.43376"
         y="253.52248"
         sodipodi:role="line"
         id="tspan102"
         style="stroke-width:0.767022">0.8</tspan></text><text
       style="font-variant:normal;font-weight:normal;font-size:7.67022px;font-family:'DejaVu Sans';-inkscape-font-specification:DejaVuSans;writing-mode:lr-tb;fill:#000000;fill-opacity:1;fill-rule:nonzero;stroke:none;stroke-width:0.767022"
       id="text122"
       x="223.89972"
       y="253.52248"><tspan
         x="223.89972 228.77797 231.2171"
         y="253.52248"
         sodipodi:role="line"
         id="tspan120"
         style="stroke-width:0.767022">1.0</tspan></text><text
       style="font-variant:normal;font-weight:normal;font-size:7.67022px;font-family:'DejaVu Sans';-inkscape-font-specification:DejaVuSans;writing-mode:lr-tb;fill:#000000;fill-opacity:1;fill-rule:nonzero;stroke:none;stroke-width:0.767022"
       id="text140"
       x="258.68307"
       y="253.52248"><tspan
         x="258.68307 263.56131 266.00043"
         y="253.52248"
         sodipodi:role="line"
         id="tspan138"
         style="stroke-width:0.767022">1.2</tspan></text><text
       style="font-variant:normal;font-weight:normal;font-size:7.67022px;font-family:'DejaVu Sans';-inkscape-font-specification:DejaVuSans;writing-mode:lr-tb;fill:#000000;fill-opacity:1;fill-rule:nonzero;stroke:none;stroke-width:0.767022"
       id="text158"
       x="293.46643"
       y="253.52248"><tspan
         x="293.46643 298.34467 300.78378"
         y="253.52248"
         sodipodi:role="line"
         id="tspan156"
         style="stroke-width:0.767022">1.4</tspan></text><text
       style="font-variant:normal;font-weight:normal;font-size:7.67022px;font-family:'DejaVu Sans';-inkscape-font-specification:DejaVuSans;writing-mode:lr-tb;fill:#000000;fill-opacity:1;fill-rule:nonzero;stroke:none;stroke-width:0.767022"
       id="text162"
       x="146.61981"
       y="264.0094"><tspan
         x="146.61981 152.56424 157.28142 162.14433 166.83852 174.30931 176.44162 180.66025 183.09938 187.96997 190.10228 194.09848 197.10519 201.80705 206.66995 210.8886 215.60577 218.04489 220.62976 223.06888 229.68829 234.55888"
         y="264.0094"
         sodipodi:role="line"
         id="tspan160"
         style="stroke-width:0.767022">Genomic distance / Mbp</tspan></text><text
       style="font-variant:normal;font-weight:normal;font-size:7.67022px;font-family:'DejaVu Sans';-inkscape-font-specification:DejaVuSans;writing-mode:lr-tb;fill:#000000;fill-opacity:1;fill-rule:nonzero;stroke:none;stroke-width:0.767022"
       id="text180"
       x="38.51358"
       y="245.24103"><tspan
         x="38.51358 43.391842 45.830971"
         y="245.24103"
         sodipodi:role="line"
         id="tspan178"
         style="stroke-width:0.767022">0.0</tspan></text><text
       style="font-variant:normal;font-weight:normal;font-size:7.67022px;font-family:'DejaVu Sans';-inkscape-font-specification:DejaVuSans;writing-mode:lr-tb;fill:#000000;fill-opacity:1;fill-rule:nonzero;stroke:none;stroke-width:0.767022"
       id="text198"
       x="38.51358"
       y="204.41829"><tspan
         x="38.51358 43.391842 45.830971"
         y="204.41829"
         sodipodi:role="line"
         id="tspan196"
         style="stroke-width:0.767022">0.2</tspan></text><text
       style="font-variant:normal;font-weight:normal;font-size:7.67022px;font-family:'DejaVu Sans';-inkscape-font-specification:DejaVuSans;writing-mode:lr-tb;fill:#000000;fill-opacity:1;fill-rule:nonzero;stroke:none;stroke-width:0.767022"
       id="text216"
       x="38.51358"
       y="163.59554"><tspan
         x="38.51358 43.391842 45.830971"
         y="163.59554"
         sodipodi:role="line"
         id="tspan214"
         style="stroke-width:0.767022">0.4</tspan></text><text
       style="font-variant:normal;font-weight:normal;font-size:7.67022px;font-family:'DejaVu Sans';-inkscape-font-specification:DejaVuSans;writing-mode:lr-tb;fill:#000000;fill-opacity:1;fill-rule:nonzero;stroke:none;stroke-width:0.767022"
       id="text234"
       x="38.51358"
       y="122.77293"><tspan
         x="38.51358 43.391842 45.830971"
         y="122.77293"
         sodipodi:role="line"
         id="tspan232"
         style="stroke-width:0.767022">0.6</tspan></text><text
       style="font-variant:normal;font-weight:normal;font-size:7.67022px;font-family:'DejaVu Sans';-inkscape-font-specification:DejaVuSans;writing-mode:lr-tb;fill:#000000;fill-opacity:1;fill-rule:nonzero;stroke:none;stroke-width:0.767022"
       id="text252"
       x="38.51358"
       y="81.95018"><tspan
         x="38.51358 43.391842 45.830971"
         y="81.95018"
         sodipodi:role="line"
         id="tspan250"
         style="stroke-width:0.767022">0.8</tspan></text><text
       style="font-variant:normal;font-weight:normal;font-size:7.67022px;font-family:'DejaVu Sans';-inkscape-font-specification:DejaVuSans;writing-mode:lr-tb;fill:#000000;fill-opacity:1;fill-rule:nonzero;stroke:none;stroke-width:0.767022"
       id="text270"
       x="38.51358"
       y="41.127361"><tspan
         x="38.51358 43.391842 45.830971"
         y="41.127361"
         sodipodi:role="line"
         id="tspan268"
         style="stroke-width:0.767022">1.0</tspan></text><text
       transform="rotate(-90)"
       style="font-variant:normal;font-weight:normal;font-size:7.67022px;font-family:'DejaVu Sans';-inkscape-font-specification:DejaVuSans;writing-mode:lr-tb;fill:#000000;fill-opacity:1;fill-rule:nonzero;stroke:none;stroke-width:0.767022"
       id="text274"
       x="-177.32861"
       y="33.851528"><tspan
         x="-177.32861 -172.70348 -167.98628 -163.28444 -160.13199 -156.1358 -151.44162 -146.5787 -144.13957 -139.92096 -135.22678 -132.07433 -128.92186 -124.20486 -122.07254 -117.37067 -114.36396 -112.23164 -107.53745"
         y="33.851528"
         sodipodi:role="line"
         id="tspan272"
         style="stroke-width:0.767022">Pearson correlation</tspan></text></g></svg>
