<?xml version="1.0" encoding="UTF-8" standalone="no"?>
<svg
   xmlns:dc="http://purl.org/dc/elements/1.1/"
   xmlns:cc="http://creativecommons.org/ns#"
   xmlns:rdf="http://www.w3.org/1999/02/22-rdf-syntax-ns#"
   xmlns:svg="http://www.w3.org/2000/svg"
   xmlns="http://www.w3.org/2000/svg"
   xmlns:sodipodi="http://sodipodi.sourceforge.net/DTD/sodipodi-0.dtd"
   xmlns:inkscape="http://www.inkscape.org/namespaces/inkscape"
   version="1.1"
   id="svg2"
   xml:space="preserve"
   width="80mm"
   height="65.300003mm"
   viewBox="0 0 302.36219 246.80316"
   sodipodi:docname="pearson_chr21.svg"
   inkscape:version="1.0.2 (1.0.2+r75+1)"><metadata
     id="metadata8"><rdf:RDF><cc:Work
         rdf:about=""><dc:format>image/svg+xml</dc:format><dc:type
           rdf:resource="http://purl.org/dc/dcmitype/StillImage" /><dc:title /></cc:Work></rdf:RDF></metadata><defs
     id="defs6"><clipPath
       clipPathUnits="userSpaceOnUse"
       id="clipPath22"><path
         d="M 57.6,38.016 H 414.72 V 304.128 H 57.6 Z"
         id="path20" /></clipPath><clipPath
       clipPathUnits="userSpaceOnUse"
       id="clipPath40"><path
         d="M 57.6,38.016 H 414.72 V 304.128 H 57.6 Z"
         id="path38" /></clipPath><clipPath
       clipPathUnits="userSpaceOnUse"
       id="clipPath58"><path
         d="M 57.6,38.016 H 414.72 V 304.128 H 57.6 Z"
         id="path56" /></clipPath><clipPath
       clipPathUnits="userSpaceOnUse"
       id="clipPath76"><path
         d="M 57.6,38.016 H 414.72 V 304.128 H 57.6 Z"
         id="path74" /></clipPath><clipPath
       clipPathUnits="userSpaceOnUse"
       id="clipPath94"><path
         d="M 57.6,38.016 H 414.72 V 304.128 H 57.6 Z"
         id="path92" /></clipPath><clipPath
       clipPathUnits="userSpaceOnUse"
       id="clipPath112"><path
         d="M 57.6,38.016 H 414.72 V 304.128 H 57.6 Z"
         id="path110" /></clipPath><clipPath
       clipPathUnits="userSpaceOnUse"
       id="clipPath130"><path
         d="M 57.6,38.016 H 414.72 V 304.128 H 57.6 Z"
         id="path128" /></clipPath><clipPath
       clipPathUnits="userSpaceOnUse"
       id="clipPath148"><path
         d="M 57.6,38.016 H 414.72 V 304.128 H 57.6 Z"
         id="path146" /></clipPath><clipPath
       clipPathUnits="userSpaceOnUse"
       id="clipPath170"><path
         d="M 57.6,38.016 H 414.72 V 304.128 H 57.6 Z"
         id="path168" /></clipPath><clipPath
       clipPathUnits="userSpaceOnUse"
       id="clipPath188"><path
         d="M 57.6,38.016 H 414.72 V 304.128 H 57.6 Z"
         id="path186" /></clipPath><clipPath
       clipPathUnits="userSpaceOnUse"
       id="clipPath206"><path
         d="M 57.6,38.016 H 414.72 V 304.128 H 57.6 Z"
         id="path204" /></clipPath><clipPath
       clipPathUnits="userSpaceOnUse"
       id="clipPath224"><path
         d="M 57.6,38.016 H 414.72 V 304.128 H 57.6 Z"
         id="path222" /></clipPath><clipPath
       clipPathUnits="userSpaceOnUse"
       id="clipPath242"><path
         d="M 57.6,38.016 H 414.72 V 304.128 H 57.6 Z"
         id="path240" /></clipPath><clipPath
       clipPathUnits="userSpaceOnUse"
       id="clipPath260"><path
         d="M 57.6,38.016 H 414.72 V 304.128 H 57.6 Z"
         id="path258" /></clipPath><clipPath
       clipPathUnits="userSpaceOnUse"
       id="clipPath282"><path
         d="M 57.6,38.016 H 414.72 V 304.128 H 57.6 Z"
         id="path280" /></clipPath><clipPath
       clipPathUnits="userSpaceOnUse"
       id="clipPath292"><path
         d="M 57.6,38.016 H 414.72 V 304.128 H 57.6 Z"
         id="path290" /></clipPath><clipPath
       clipPathUnits="userSpaceOnUse"
       id="clipPath302"><path
         d="M 57.6,38.016 H 414.72 V 304.128 H 57.6 Z"
         id="path300" /></clipPath><clipPath
       clipPathUnits="userSpaceOnUse"
       id="clipPath312"><path
         d="M 57.6,38.016 H 414.72 V 304.128 H 57.6 Z"
         id="path310" /></clipPath><clipPath
       clipPathUnits="userSpaceOnUse"
       id="clipPath322"><path
         d="M 57.6,38.016 H 414.72 V 304.128 H 57.6 Z"
         id="path320" /></clipPath></defs><sodipodi:namedview
     pagecolor="#ffffff"
     bordercolor="#666666"
     borderopacity="1"
     objecttolerance="10"
     gridtolerance="10"
     guidetolerance="10"
     inkscape:pageopacity="0"
     inkscape:pageshadow="2"
     inkscape:window-width="1920"
     inkscape:window-height="1020"
     id="namedview4"
     showgrid="false"
     fit-margin-top="0"
     fit-margin-left="0"
     fit-margin-right="0"
     fit-margin-bottom="0"
     units="mm"
     inkscape:zoom="2.6301672"
     inkscape:cx="169.19331"
     inkscape:cy="151.60293"
     inkscape:window-x="0"
     inkscape:window-y="0"
     inkscape:window-maximized="1"
     inkscape:current-layer="layer1"
     inkscape:document-rotation="0" /><g
     id="g10"
     inkscape:groupmode="layer"
     inkscape:label="pearson_chr21"
     transform="matrix(1.3333333,0,0,-1.3333333,-28.023958,443.59358)"><path
       d="m 42.06634,308.57083 2.600984,-4.52047 2.600985,-2.33303 2.600984,-0.87486 2.600985,-1.3267 2.600984,0.87049 2.600985,-0.48334 2.600985,-0.061 2.600985,0.17103 2.600984,-0.45244 2.600982,2.10175 2.600987,-2.10461 2.600987,1.20758 2.60098,-0.96921 2.600987,-1.18513 2.600987,1.16495 2.60098,-1.39312 2.600987,2.03417 2.600981,-0.49133 2.600986,-0.98854 2.600987,-2.34502 2.600981,-0.72158 2.600986,-1.59926 2.600981,-0.61633 2.60099,1.42529 2.60099,-0.15474 2.60097,1.18615 2.60099,-1.16845 2.60098,0.0411 2.60099,1.14539 2.60099,-0.4978 2.60098,-2.02784 2.60098,1.80923 2.60099,-0.11794 2.60098,-1.12736 2.60099,0.79394 2.60098,-2.13097 2.60099,0.13334 2.60098,2.33516 2.60099,-2.86355 2.60098,2.31685 2.60098,-1.62402 2.60099,1.93681 2.60098,2.20172 2.60099,2.02833 2.60098,-3.88834 2.60098,1.72234 2.60099,-0.75487 2.60098,1.21776 2.60099,-0.99911 2.60099,-3.43066 2.60097,2.4361 2.601,-1.52994 2.60097,1.08825 2.60099,0.34207 2.60099,-0.84277 2.60098,-2.01737 2.60099,0.50887 2.60098,-1.71926 2.60098,-2.84508 2.60099,-1.11961 2.60098,0.56352 2.60099,0.36721 2.60098,-1.96474 2.60098,1.61099 2.60099,-3.61163 2.60098,-0.18611 2.60099,1.73497 2.60099,-2.72165 2.60098,-1.51936 2.60099,1.27044 2.60098,1.52813 2.60099,0.68163 2.60098,-0.19734 2.60098,-2.29157 2.60099,7.12504 2.60098,4.09367 2.60099,-8.221 2.60098,-4.33712 2.60098,-3.84297"
       style="fill:none;stroke:#d62728;stroke-width:0.863062;stroke-linecap:square;stroke-linejoin:round;stroke-miterlimit:10;stroke-dasharray:none;stroke-opacity:1"
       id="path324" /><g
       id="g16"
       transform="matrix(0.57537459,0,0,0.57537459,8.9247637,141.98371)"><g
         id="g18"
         clip-path="url(#clipPath22)"><path
           d="M 57.6,38.016 V 304.128"
           style="fill:none;stroke:#b0b0b0;stroke-width:0.8;stroke-linecap:square;stroke-linejoin:round;stroke-miterlimit:10;stroke-dasharray:none;stroke-opacity:1"
           id="path24" /></g></g><path
       d="m 42.06634,163.85715 v -2.01381"
       style="fill:#000000;fill-opacity:1;fill-rule:nonzero;stroke:#000000;stroke-width:0.4603;stroke-linecap:butt;stroke-linejoin:round;stroke-miterlimit:10;stroke-dasharray:none;stroke-opacity:1"
       id="path28" /><g
       id="g34"
       transform="matrix(0.57537459,0,0,0.57537459,8.9247637,141.98371)"><g
         id="g36"
         clip-path="url(#clipPath40)"><path
           d="M 102.80506,38.016 V 304.128"
           style="fill:none;stroke:#b0b0b0;stroke-width:0.8;stroke-linecap:square;stroke-linejoin:round;stroke-miterlimit:10;stroke-dasharray:none;stroke-opacity:1"
           id="path42" /></g></g><path
       d="m 68.076183,163.85715 v -2.01381"
       style="fill:#000000;fill-opacity:1;fill-rule:nonzero;stroke:#000000;stroke-width:0.4603;stroke-linecap:butt;stroke-linejoin:round;stroke-miterlimit:10;stroke-dasharray:none;stroke-opacity:1"
       id="path46" /><g
       id="g52"
       transform="matrix(0.57537459,0,0,0.57537459,8.9247637,141.98371)"><g
         id="g54"
         clip-path="url(#clipPath58)"><path
           d="M 148.01013,38.016 V 304.128"
           style="fill:none;stroke:#b0b0b0;stroke-width:0.8;stroke-linecap:square;stroke-linejoin:round;stroke-miterlimit:10;stroke-dasharray:none;stroke-opacity:1"
           id="path60" /></g></g><path
       d="m 94.086032,163.85715 v -2.01381"
       style="fill:#000000;fill-opacity:1;fill-rule:nonzero;stroke:#000000;stroke-width:0.4603;stroke-linecap:butt;stroke-linejoin:round;stroke-miterlimit:10;stroke-dasharray:none;stroke-opacity:1"
       id="path64" /><g
       id="g70"
       transform="matrix(0.57537459,0,0,0.57537459,8.9247637,141.98371)"><g
         id="g72"
         clip-path="url(#clipPath76)"><path
           d="M 193.21519,38.016 V 304.128"
           style="fill:none;stroke:#b0b0b0;stroke-width:0.8;stroke-linecap:square;stroke-linejoin:round;stroke-miterlimit:10;stroke-dasharray:none;stroke-opacity:1"
           id="path78" /></g></g><path
       d="m 120.09588,163.85715 v -2.01381"
       style="fill:#000000;fill-opacity:1;fill-rule:nonzero;stroke:#000000;stroke-width:0.4603;stroke-linecap:butt;stroke-linejoin:round;stroke-miterlimit:10;stroke-dasharray:none;stroke-opacity:1"
       id="path82" /><g
       id="g88"
       transform="matrix(0.57537459,0,0,0.57537459,8.9247637,141.98371)"><g
         id="g90"
         clip-path="url(#clipPath94)"><path
           d="M 238.42025,38.016 V 304.128"
           style="fill:none;stroke:#b0b0b0;stroke-width:0.8;stroke-linecap:square;stroke-linejoin:round;stroke-miterlimit:10;stroke-dasharray:none;stroke-opacity:1"
           id="path96" /></g></g><path
       d="m 146.10572,163.85715 v -2.01381"
       style="fill:#000000;fill-opacity:1;fill-rule:nonzero;stroke:#000000;stroke-width:0.4603;stroke-linecap:butt;stroke-linejoin:round;stroke-miterlimit:10;stroke-dasharray:none;stroke-opacity:1"
       id="path100" /><g
       id="g106"
       transform="matrix(0.57537459,0,0,0.57537459,8.9247637,141.98371)"><g
         id="g108"
         clip-path="url(#clipPath112)"><path
           d="M 283.62532,38.016 V 304.128"
           style="fill:none;stroke:#b0b0b0;stroke-width:0.8;stroke-linecap:square;stroke-linejoin:round;stroke-miterlimit:10;stroke-dasharray:none;stroke-opacity:1"
           id="path114" /></g></g><path
       d="m 172.11557,163.85715 v -2.01381"
       style="fill:#000000;fill-opacity:1;fill-rule:nonzero;stroke:#000000;stroke-width:0.4603;stroke-linecap:butt;stroke-linejoin:round;stroke-miterlimit:10;stroke-dasharray:none;stroke-opacity:1"
       id="path118" /><g
       id="g124"
       transform="matrix(0.57537459,0,0,0.57537459,8.9247637,141.98371)"><g
         id="g126"
         clip-path="url(#clipPath130)"><path
           d="M 328.83038,38.016 V 304.128"
           style="fill:none;stroke:#b0b0b0;stroke-width:0.8;stroke-linecap:square;stroke-linejoin:round;stroke-miterlimit:10;stroke-dasharray:none;stroke-opacity:1"
           id="path132" /></g></g><path
       d="m 198.12541,163.85715 v -2.01381"
       style="fill:#000000;fill-opacity:1;fill-rule:nonzero;stroke:#000000;stroke-width:0.4603;stroke-linecap:butt;stroke-linejoin:round;stroke-miterlimit:10;stroke-dasharray:none;stroke-opacity:1"
       id="path136" /><g
       id="g142"
       transform="matrix(0.57537459,0,0,0.57537459,8.9247637,141.98371)"><g
         id="g144"
         clip-path="url(#clipPath148)"><path
           d="M 374.03544,38.016 V 304.128"
           style="fill:none;stroke:#b0b0b0;stroke-width:0.8;stroke-linecap:square;stroke-linejoin:round;stroke-miterlimit:10;stroke-dasharray:none;stroke-opacity:1"
           id="path150" /></g></g><path
       d="m 224.13526,163.85715 v -2.01381"
       style="fill:#000000;fill-opacity:1;fill-rule:nonzero;stroke:#000000;stroke-width:0.4603;stroke-linecap:butt;stroke-linejoin:round;stroke-miterlimit:10;stroke-dasharray:none;stroke-opacity:1"
       id="path154" /><g
       id="g164"
       transform="matrix(0.57537459,0,0,0.57537459,8.9247637,141.98371)"><g
         id="g166"
         clip-path="url(#clipPath170)"><path
           d="M 57.6,38.016 H 414.72"
           style="fill:none;stroke:#b0b0b0;stroke-width:0.8;stroke-linecap:square;stroke-linejoin:round;stroke-miterlimit:10;stroke-dasharray:none;stroke-opacity:1"
           id="path172" /></g></g><path
       d="M 42.06634,163.85715 H 40.052529"
       style="fill:#000000;fill-opacity:1;fill-rule:nonzero;stroke:#000000;stroke-width:0.4603;stroke-linecap:butt;stroke-linejoin:round;stroke-miterlimit:10;stroke-dasharray:none;stroke-opacity:1"
       id="path176" /><g
       id="g182"
       transform="matrix(0.57537459,0,0,0.57537459,8.9247637,141.98371)"><g
         id="g184"
         clip-path="url(#clipPath188)"><path
           d="M 57.6,91.2384 H 414.72"
           style="fill:none;stroke:#b0b0b0;stroke-width:0.8;stroke-linecap:square;stroke-linejoin:round;stroke-miterlimit:10;stroke-dasharray:none;stroke-opacity:1"
           id="path190" /></g></g><path
       d="M 42.06634,194.47997 H 40.052529"
       style="fill:#000000;fill-opacity:1;fill-rule:nonzero;stroke:#000000;stroke-width:0.4603;stroke-linecap:butt;stroke-linejoin:round;stroke-miterlimit:10;stroke-dasharray:none;stroke-opacity:1"
       id="path194" /><g
       id="g200"
       transform="matrix(0.57537459,0,0,0.57537459,8.9247637,141.98371)"><g
         id="g202"
         clip-path="url(#clipPath206)"><path
           d="M 57.6,144.4608 H 414.72"
           style="fill:none;stroke:#b0b0b0;stroke-width:0.8;stroke-linecap:square;stroke-linejoin:round;stroke-miterlimit:10;stroke-dasharray:none;stroke-opacity:1"
           id="path208" /></g></g><path
       d="M 42.06634,225.10278 H 40.052529"
       style="fill:#000000;fill-opacity:1;fill-rule:nonzero;stroke:#000000;stroke-width:0.4603;stroke-linecap:butt;stroke-linejoin:round;stroke-miterlimit:10;stroke-dasharray:none;stroke-opacity:1"
       id="path212" /><g
       id="g218"
       transform="matrix(0.57537459,0,0,0.57537459,8.9247637,141.98371)"><g
         id="g220"
         clip-path="url(#clipPath224)"><path
           d="M 57.6,197.6832 H 414.72"
           style="fill:none;stroke:#b0b0b0;stroke-width:0.8;stroke-linecap:square;stroke-linejoin:round;stroke-miterlimit:10;stroke-dasharray:none;stroke-opacity:1"
           id="path226" /></g></g><path
       d="M 42.06634,255.7256 H 40.052529"
       style="fill:#000000;fill-opacity:1;fill-rule:nonzero;stroke:#000000;stroke-width:0.4603;stroke-linecap:butt;stroke-linejoin:round;stroke-miterlimit:10;stroke-dasharray:none;stroke-opacity:1"
       id="path230" /><g
       id="g236"
       transform="matrix(0.57537459,0,0,0.57537459,8.9247637,141.98371)"><g
         id="g238"
         clip-path="url(#clipPath242)"><path
           d="M 57.6,250.9056 H 414.72"
           style="fill:none;stroke:#b0b0b0;stroke-width:0.8;stroke-linecap:square;stroke-linejoin:round;stroke-miterlimit:10;stroke-dasharray:none;stroke-opacity:1"
           id="path244" /></g></g><path
       d="M 42.06634,286.34842 H 40.052529"
       style="fill:#000000;fill-opacity:1;fill-rule:nonzero;stroke:#000000;stroke-width:0.4603;stroke-linecap:butt;stroke-linejoin:round;stroke-miterlimit:10;stroke-dasharray:none;stroke-opacity:1"
       id="path248" /><g
       id="g254"
       transform="matrix(0.57537459,0,0,0.57537459,8.9247637,141.98371)"><g
         id="g256"
         clip-path="url(#clipPath260)"><path
           d="M 57.6,304.128 H 414.72"
           style="fill:none;stroke:#b0b0b0;stroke-width:0.8;stroke-linecap:square;stroke-linejoin:round;stroke-miterlimit:10;stroke-dasharray:none;stroke-opacity:1"
           id="path262" /></g></g><path
       d="M 42.06634,316.97123 H 40.052529"
       style="fill:#000000;fill-opacity:1;fill-rule:nonzero;stroke:#000000;stroke-width:0.4603;stroke-linecap:butt;stroke-linejoin:round;stroke-miterlimit:10;stroke-dasharray:none;stroke-opacity:1"
       id="path266" /><g
       id="g276"
       transform="matrix(0.57537459,0,0,0.57537459,8.9247637,141.98371)"><g
         id="g278"
         clip-path="url(#clipPath282)"><path
           d="m 57.6,269.1257 4.520506,-1.14729 4.520507,-7.65278 4.520506,-7.55026 4.520506,-4.45521 4.520507,-6.02839 4.520506,0.23215 4.520506,-4.91631 4.520507,-2.89355 4.520506,4.3431 4.520503,-6.52466 4.52051,0.23746 4.52051,-0.92001 4.5205,-1.94261 4.52051,-2.78257 4.52051,-3.2435 4.5205,-4.68161 4.52051,-4.29555 4.5205,-4.34133 4.52051,2.78065 4.52051,3.17469 4.5205,5.3147 4.52051,-1.44633 4.52051,-1.58749 4.5205,-4.93788 4.52051,-6.782 4.5205,-4.72787 4.52051,-0.39346 4.52051,4.59984 4.5205,3.71084 4.52051,-0.0409 4.52051,0.16985 4.5205,-2.57916 4.52051,-1.18094 4.5205,0.82767 4.52051,-1.44124 4.52051,-3.762 4.5205,-2.6895 4.52051,-2.12307 4.52051,-0.93694 4.5205,-1.98022 4.52051,-7.28917 4.52051,-1.39789 4.5205,-9.20607 4.52051,-12.37219 4.5205,-0.69183 4.52051,1.81589 4.52051,-4.11908 4.5205,-4.40114 4.52051,4.57906 4.52051,2.11207 4.5205,-4.47598 4.52051,1.19491 4.5205,6.48512 4.52051,2.88081 4.52051,0.76244 4.5205,2.86114 4.52051,-2.40303 4.52051,-0.60085 4.5205,1.28771 4.52051,-0.0944 4.52051,0.80283 4.5205,-5.57657 4.52051,0.57887 4.5205,1.08822 4.52051,-4.4291 4.52051,3.01157 4.5205,2.95842 4.52051,2.05847 4.52051,-12.00258 4.5205,6.08498 4.52051,0.17609 4.52051,-0.56785 4.5205,-3.0035 4.52051,3.673 4.5205,-18.36568 4.52051,-5.56952 4.52051,9.99227 4.5205,-4.04467 4.52051,6.49737"
           style="fill:none;stroke:#1f77b4;stroke-width:1.5;stroke-linecap:square;stroke-linejoin:round;stroke-miterlimit:10;stroke-dasharray:none;stroke-opacity:1"
           id="path284" /></g></g><g
       id="g286"
       transform="matrix(0.57537459,0,0,0.57537459,8.9247637,141.98371)"><g
         id="g288"
         clip-path="url(#clipPath292)"><path
           d="m 57.6,266.70054 4.520506,0.18441 4.520507,-7.32134 4.520506,-7.11218 4.520506,-4.1066 4.520507,-5.81398 4.520506,0.053 4.520506,-5.78609 4.520507,-3.10094 4.520506,3.46532 4.520503,-6.82776 4.52051,-0.098 4.52051,0.13874 4.5205,-1.61077 4.52051,-2.10625 4.52051,-3.76391 4.5205,-4.97388 4.52051,-5.01535 4.5205,-5.38936 4.52051,2.40868 4.52051,3.33162 4.5205,5.70814 4.52051,-0.44294 4.52051,-1.68332 4.5205,-4.91231 4.52051,-6.94798 4.5205,-5.12795 4.52051,-1.94444 4.52051,4.52167 4.5205,3.29269 4.52051,-0.66488 4.52051,-0.0613 4.5205,-4.0642 4.52051,-0.94547 4.5205,-0.69177 4.52051,-1.6337 4.52051,-3.77001 4.5205,-2.21233 4.52051,-1.51925 4.52051,-0.96186 4.5205,-1.64595 4.52051,-7.72925 4.52051,-1.41099 4.5205,-9.47993 4.52051,-11.65583 4.5205,-0.59688 4.52051,0.71956 4.52051,-4.39254 4.5205,-4.03929 4.52051,3.58909 4.52051,0.93452 4.5205,-3.39105 4.52051,0.16821 4.5205,6.12577 4.52051,4.32599 4.52051,1.58691 4.5205,1.7071 4.52051,-5.39125 4.52051,0.99483 4.5205,-0.53349 4.52051,-2.27271 4.52051,2.80157 4.5205,-4.8631 4.52051,-0.10739 4.5205,2.43574 4.52051,-3.18637 4.52051,5.50135 4.5205,-1.3233 4.52051,0.89817 4.52051,-12.60675 4.5205,8.6703 4.52051,-0.48631 4.52051,1.37415 4.5205,0.37629 4.52051,-0.85967 4.5205,-12.47095 4.52051,-5.94761 4.52051,11.26758 4.5205,1.60225 4.52051,3.29788"
           style="fill:none;stroke:#ff7f0e;stroke-width:1.5;stroke-linecap:square;stroke-linejoin:round;stroke-miterlimit:10;stroke-dasharray:none;stroke-opacity:1"
           id="path294" /></g></g><g
       id="g296"
       transform="matrix(0.57537459,0,0,0.57537459,8.9247637,141.98371)"><g
         id="g298"
         clip-path="url(#clipPath302)"><path
           d="m 57.6,267.10704 4.520506,0.12507 4.520507,-7.33787 4.520506,-6.76674 4.520506,-4.06196 4.520507,-6.04742 4.520506,-0.30126 4.520506,-6.07859 4.520507,-3.01542 4.520506,3.33687 4.520503,-6.50505 4.52051,0.20578 4.52051,0.77796 4.5205,-1.714 4.52051,-2.09345 4.52051,-3.22412 4.5205,-4.64941 4.52051,-5.30742 4.5205,-4.72806 4.52051,2.32636 4.52051,3.11455 4.5205,5.74141 4.52051,-1.13735 4.52051,-1.77192 4.5205,-5.23673 4.52051,-7.3562 4.5205,-5.4992 4.52051,-2.83657 4.52051,4.48171 4.5205,3.36909 4.52051,-0.31885 4.52051,-0.34172 4.5205,-3.72035 4.52051,-1.76592 4.5205,-1.09879 4.52051,-0.84272 4.52051,-3.44568 4.5205,-2.34032 4.52051,-1.50624 4.52051,-1.45379 4.5205,-1.18179 4.52051,-7.43673 4.52051,-2.32663 4.5205,-8.60544 4.52051,-12.17356 4.5205,-0.85934 4.52051,0.61218 4.52051,-3.45313 4.5205,-4.33905 4.52051,3.18787 4.52051,1.92154 4.5205,-2.38398 4.52051,-0.92661 4.5205,6.44662 4.52051,4.97398 4.52051,0.80342 4.5205,3.62443 4.52051,-6.80589 4.52051,1.9432 4.5205,-0.95168 4.52051,0.52604 4.52051,2.15072 4.5205,-5.157 4.52051,0.18012 4.5205,3.31634 4.52051,-3.62855 4.52051,4.33175 4.5205,0.51551 4.52051,1.31858 4.52051,-12.99715 4.5205,9.79713 4.52051,-0.47777 4.52051,-0.68679 4.5205,2.19916 4.52051,-0.004 4.5205,-11.62672 4.52051,-9.44251 4.52051,11.62058 4.5205,0.73152 4.52051,5.14748"
           style="fill:none;stroke:#2ca02c;stroke-width:1.5;stroke-linecap:square;stroke-linejoin:round;stroke-miterlimit:10;stroke-dasharray:none;stroke-opacity:1"
           id="path304" /></g></g><path
       d="m 42.06634,297.32657 2.600984,-1.07193 2.600985,-4.27974 2.600984,-3.74123 2.600985,-2.2796 2.600984,-3.71818 2.600985,0.0924 2.600985,-3.74337 2.600985,-1.91806 2.600984,1.86171 2.600982,-4.6871 2.600987,0.0366 2.600987,-0.33737 2.60098,-1.29066 2.600987,-1.12116 2.600987,-1.98664 2.60098,-2.48633 2.600987,-2.8096 2.600981,-2.47047 2.600986,2.00221 2.600987,2.20796 2.600981,4.29348 2.600986,0.16196 2.600981,-0.56647 2.60099,-2.56225 2.60099,-4.16598 2.60097,-2.27364 2.60099,-1.8203 2.60098,3.15404 2.60099,2.196 2.60099,0.28427 2.60098,-0.76655 2.60098,-1.71829 2.60099,-1.15074 2.60098,0.55248 2.60099,-1.95829 2.60098,-1.31633 2.60099,-2.03968 2.60098,-1.18233 2.60099,-1.18277 2.60098,-0.80811 2.60098,-3.87326 2.60099,-1.55645 2.60098,-5.21497 2.60099,-6.49865 2.60098,0.15401 2.60098,-1.06041 2.60099,-1.36338 2.60098,-2.6092 2.60099,2.19617 2.60099,1.21501 2.60097,-1.33966 2.601,0.33571 2.60097,3.58196 2.60099,2.55187 2.60099,0.7559 2.60098,2.70801 2.60099,-2.40856 2.60098,-0.34052 2.60098,-0.27586 2.60099,-0.9293 2.60098,-0.11726 2.60099,-2.52442 2.60098,-0.15289 2.60098,1.31169 2.60099,-1.20176 2.60098,2.104 2.60099,0.0727 2.60099,1.43515 2.60098,-5.06761 2.60099,2.07319 2.60098,0.27438 2.60099,1.16403 2.60098,1.39987 2.60098,-0.41398 2.60099,-6.52267 2.60098,-7.07521 2.60099,10.10883 2.60098,-0.82822 2.60098,3.13028"
       style="fill:none;stroke:#9367bd;stroke-width:0.863062;stroke-linecap:square;stroke-linejoin:round;stroke-miterlimit:10;stroke-dasharray:none;stroke-opacity:0.80000001"
       id="path314" /><path
       d="M 42.06634,163.85715 V 316.97123"
       style="fill:none;stroke:#000000;stroke-width:0.4603;stroke-linecap:square;stroke-linejoin:miter;stroke-miterlimit:10;stroke-dasharray:none;stroke-opacity:1"
       id="path328" /><path
       d="M 247.54411,163.85715 V 316.97123"
       style="fill:none;stroke:#000000;stroke-width:0.4603;stroke-linecap:square;stroke-linejoin:miter;stroke-miterlimit:10;stroke-dasharray:none;stroke-opacity:1"
       id="path330" /><path
       d="M 42.06634,163.85715 H 247.54411"
       style="fill:none;stroke:#000000;stroke-width:0.4603;stroke-linecap:square;stroke-linejoin:miter;stroke-miterlimit:10;stroke-dasharray:none;stroke-opacity:1"
       id="path332" /><path
       d="M 42.06634,316.97123 H 247.54411"
       style="fill:none;stroke:#000000;stroke-width:0.4603;stroke-linecap:square;stroke-linejoin:miter;stroke-miterlimit:10;stroke-dasharray:none;stroke-opacity:1"
       id="path334" /><path
       d="m 54.360515,206.22028 h 11.5075"
       style="fill:none;stroke:#1f77b4;stroke-width:0.863062;stroke-linecap:square;stroke-linejoin:round;stroke-miterlimit:10;stroke-dasharray:none;stroke-opacity:1"
       id="path344" /><path
       d="m 54.360515,197.77846 h 11.5075"
       style="fill:none;stroke:#ff7f0e;stroke-width:0.863062;stroke-linecap:square;stroke-linejoin:round;stroke-miterlimit:10;stroke-dasharray:none;stroke-opacity:1"
       id="path350" /><path
       d="m 54.360515,189.33664 h 11.5075"
       style="fill:none;stroke:#2ca02c;stroke-width:0.863062;stroke-linecap:square;stroke-linejoin:round;stroke-miterlimit:10;stroke-dasharray:none;stroke-opacity:1"
       id="path356" /><path
       d="m 54.360515,180.89481 h 11.5075"
       style="fill:none;stroke:#9367bd;stroke-width:0.863062;stroke-linecap:square;stroke-linejoin:round;stroke-miterlimit:10;stroke-dasharray:none;stroke-opacity:0.80000001"
       id="path362" /><path
       d="m 54.360515,172.45299 h 11.5075"
       style="fill:none;stroke:#d62728;stroke-width:0.863062;stroke-linecap:square;stroke-linejoin:round;stroke-miterlimit:10;stroke-dasharray:none;stroke-opacity:1"
       id="path368" /></g><g
     inkscape:groupmode="layer"
     id="layer1"
     inkscape:label="text"
     style="display:inline"
     transform="translate(-28.023958,-17.206424)"><text
       style="font-variant:normal;font-weight:normal;font-size:7.67167px;font-family:'DejaVu Sans';-inkscape-font-specification:DejaVuSans;writing-mode:lr-tb;fill:#000000;fill-opacity:1;fill-rule:nonzero;stroke:none;stroke-width:0.767167"
       id="text32"
       x="53.547733"
       y="253.51952"><tspan
         x="53.547733 58.426914 60.866501 65.745682"
         y="253.51952"
         sodipodi:role="line"
         id="tspan30"
         style="stroke-width:0.767167">0.00</tspan></text><text
       style="font-variant:normal;font-weight:normal;font-size:7.67167px;font-family:'DejaVu Sans';-inkscape-font-specification:DejaVuSans;writing-mode:lr-tb;fill:#000000;fill-opacity:1;fill-rule:nonzero;stroke:none;stroke-width:0.767167"
       id="text50"
       x="82.227524"
       y="253.51952"><tspan
         x="82.227524 87.106705 89.546288 94.425468"
         y="253.51952"
         sodipodi:role="line"
         id="tspan48"
         style="stroke-width:0.767167">0.25</tspan></text><text
       style="font-variant:normal;font-weight:normal;font-size:7.67167px;font-family:'DejaVu Sans';-inkscape-font-specification:DejaVuSans;writing-mode:lr-tb;fill:#000000;fill-opacity:1;fill-rule:nonzero;stroke:none;stroke-width:0.767167"
       id="text68"
       x="116.90731"
       y="253.51952"><tspan
         x="116.90731 121.7865 124.22608 129.10526"
         y="253.51952"
         sodipodi:role="line"
         id="tspan66"
         style="stroke-width:0.767167">0.50</tspan></text><text
       style="font-variant:normal;font-weight:normal;font-size:7.67167px;font-family:'DejaVu Sans';-inkscape-font-specification:DejaVuSans;writing-mode:lr-tb;fill:#000000;fill-opacity:1;fill-rule:nonzero;stroke:none;stroke-width:0.767167"
       id="text86"
       x="151.58711"
       y="253.51952"><tspan
         x="151.58711 156.46629 158.90588 163.78505"
         y="253.51952"
         sodipodi:role="line"
         id="tspan84"
         style="stroke-width:0.767167">0.75</tspan></text><text
       style="font-variant:normal;font-weight:normal;font-size:7.67167px;font-family:'DejaVu Sans';-inkscape-font-specification:DejaVuSans;writing-mode:lr-tb;fill:#000000;fill-opacity:1;fill-rule:nonzero;stroke:none;stroke-width:0.767167"
       id="text104"
       x="186.26691"
       y="253.51952"><tspan
         x="186.26691 191.14607 193.58568 198.46484"
         y="253.51952"
         sodipodi:role="line"
         id="tspan102"
         style="stroke-width:0.767167">1.00</tspan></text><text
       style="font-variant:normal;font-weight:normal;font-size:7.67167px;font-family:'DejaVu Sans';-inkscape-font-specification:DejaVuSans;writing-mode:lr-tb;fill:#000000;fill-opacity:1;fill-rule:nonzero;stroke:none;stroke-width:0.767167"
       id="text122"
       x="220.94669"
       y="253.51952"><tspan
         x="220.94669 225.82587 228.26546 233.14464"
         y="253.51952"
         sodipodi:role="line"
         id="tspan120"
         style="stroke-width:0.767167">1.25</tspan></text><text
       style="font-variant:normal;font-weight:normal;font-size:7.67167px;font-family:'DejaVu Sans';-inkscape-font-specification:DejaVuSans;writing-mode:lr-tb;fill:#000000;fill-opacity:1;fill-rule:nonzero;stroke:none;stroke-width:0.767167"
       id="text140"
       x="255.6265"
       y="253.51952"><tspan
         x="255.6265 260.50568 262.94525 267.82443"
         y="253.51952"
         sodipodi:role="line"
         id="tspan138"
         style="stroke-width:0.767167">1.50</tspan></text><text
       style="font-variant:normal;font-weight:normal;font-size:7.67167px;font-family:'DejaVu Sans';-inkscape-font-specification:DejaVuSans;writing-mode:lr-tb;fill:#000000;fill-opacity:1;fill-rule:nonzero;stroke:none;stroke-width:0.767167"
       id="text158"
       x="290.30627"
       y="253.51952"><tspan
         x="290.30627 295.18546 297.62506 302.50424"
         y="253.51952"
         sodipodi:role="line"
         id="tspan156"
         style="stroke-width:0.767167">1.75</tspan></text><text
       style="font-variant:normal;font-weight:normal;font-size:7.67167px;font-family:'DejaVu Sans';-inkscape-font-specification:DejaVuSans;writing-mode:lr-tb;fill:#000000;fill-opacity:1;fill-rule:nonzero;stroke:none;stroke-width:0.767167"
       id="text162"
       x="146.64211"
       y="264.00842"><tspan
         x="146.64211 152.58763 157.30571 162.16953 166.86459 174.33681 176.46951 180.68893 183.12852 188.00002 190.13275 194.12968 197.13698 201.83969 206.70354 210.92296 215.64102 218.0806 220.66595 223.10555 229.72618 234.59769"
         y="264.00842"
         sodipodi:role="line"
         id="tspan160"
         style="stroke-width:0.767167">Genomic distance / Mbp</tspan></text><text
       style="font-variant:normal;font-weight:normal;font-size:7.67167px;font-family:'DejaVu Sans';-inkscape-font-specification:DejaVuSans;writing-mode:lr-tb;fill:#000000;fill-opacity:1;fill-rule:nonzero;stroke:none;stroke-width:0.767167"
       id="text180"
       x="38.515553"
       y="245.23653"><tspan
         x="38.515553 43.39473 45.834316"
         y="245.23653"
         sodipodi:role="line"
         id="tspan178"
         style="stroke-width:0.767167">0.0</tspan></text><text
       style="font-variant:normal;font-weight:normal;font-size:7.67167px;font-family:'DejaVu Sans';-inkscape-font-specification:DejaVuSans;writing-mode:lr-tb;fill:#000000;fill-opacity:1;fill-rule:nonzero;stroke:none;stroke-width:0.767167"
       id="text198"
       x="38.515553"
       y="204.4061"><tspan
         x="38.515553 43.39473 45.834316"
         y="204.4061"
         sodipodi:role="line"
         id="tspan196"
         style="stroke-width:0.767167">0.2</tspan></text><text
       style="font-variant:normal;font-weight:normal;font-size:7.67167px;font-family:'DejaVu Sans';-inkscape-font-specification:DejaVuSans;writing-mode:lr-tb;fill:#000000;fill-opacity:1;fill-rule:nonzero;stroke:none;stroke-width:0.767167"
       id="text216"
       x="38.515553"
       y="163.57567"><tspan
         x="38.515553 43.39473 45.834316"
         y="163.57567"
         sodipodi:role="line"
         id="tspan214"
         style="stroke-width:0.767167">0.4</tspan></text><text
       style="font-variant:normal;font-weight:normal;font-size:7.67167px;font-family:'DejaVu Sans';-inkscape-font-specification:DejaVuSans;writing-mode:lr-tb;fill:#000000;fill-opacity:1;fill-rule:nonzero;stroke:none;stroke-width:0.767167"
       id="text234"
       x="38.515553"
       y="122.7454"><tspan
         x="38.515553 43.39473 45.834316"
         y="122.7454"
         sodipodi:role="line"
         id="tspan232"
         style="stroke-width:0.767167">0.6</tspan></text><text
       style="font-variant:normal;font-weight:normal;font-size:7.67167px;font-family:'DejaVu Sans';-inkscape-font-specification:DejaVuSans;writing-mode:lr-tb;fill:#000000;fill-opacity:1;fill-rule:nonzero;stroke:none;stroke-width:0.767167"
       id="text252"
       x="38.515553"
       y="81.914993"><tspan
         x="38.515553 43.39473 45.834316"
         y="81.914993"
         sodipodi:role="line"
         id="tspan250"
         style="stroke-width:0.767167">0.8</tspan></text><text
       style="font-variant:normal;font-weight:normal;font-size:7.67167px;font-family:'DejaVu Sans';-inkscape-font-specification:DejaVuSans;writing-mode:lr-tb;fill:#000000;fill-opacity:1;fill-rule:nonzero;stroke:none;stroke-width:0.767167"
       id="text270"
       x="38.515553"
       y="41.084515"><tspan
         x="38.515553 43.39473 45.834316"
         y="41.084515"
         sodipodi:role="line"
         id="tspan268"
         style="stroke-width:0.767167">1.0</tspan></text><text
       transform="rotate(-90)"
       style="font-variant:normal;font-weight:normal;font-size:7.67167px;font-family:'DejaVu Sans';-inkscape-font-specification:DejaVuSans;writing-mode:lr-tb;fill:#000000;fill-opacity:1;fill-rule:nonzero;stroke:none;stroke-width:0.767167"
       id="text274"
       x="-177.31136"
       y="33.852623"><tspan
         x="-177.31136 -172.68533 -167.96727 -163.26453 -160.11148 -156.11456 -151.41949 -146.55565 -144.11607 -139.89665 -135.20158 -132.04855 -128.89549 -124.17755 -122.04484 -117.34211 -114.33481 -112.2021 -107.50705"
         y="33.852623"
         sodipodi:role="line"
         id="tspan272"
         style="stroke-width:0.767167">Pearson correlation</tspan></text><text
       style="font-variant:normal;font-weight:normal;font-size:9.20599px;font-family:'DejaVu Sans';-inkscape-font-specification:DejaVuSans;writing-mode:lr-tb;fill:#000000;fill-opacity:1;fill-rule:nonzero;stroke:none;stroke-width:0.767167"
       id="text338"
       x="98.33461"
       y="23.25032"><tspan
         x="98.33461 103.88583 109.54751 115.19079 118.97446 123.77077 129.40485 135.24144 138.16895 143.23224 148.86632 152.64998 156.43364 162.09532 164.65459 170.29787 173.90662 176.46588 182.09996 187.93654 190.86406 196.314 201.11032 204.03783 206.96533 212.81114 218.47284 224.3094 229.9435 238.91013 241.46939 246.53268 249.46021 255.30602 257.86526 262.66159 266.27032 271.9136 277.75018 282.81351"
         y="23.25032"
         sodipodi:role="line"
         id="tspan336"
         style="stroke-width:0.767167">Pearson correlation vs. genomic distance</tspan></text><text
       style="font-variant:normal;font-weight:normal;font-size:9.20599px;font-family:'DejaVu Sans';-inkscape-font-specification:DejaVuSans;writing-mode:lr-tb;fill:#000000;fill-opacity:1;fill-rule:nonzero;stroke:none;stroke-width:0.767167"
       id="text342"
       x="61.063812"
       y="33.568684"><tspan
         x="61.063812 68.198456 76.143234 81.998238 87.853249 93.70826 99.563271 105.41828 108.34579 111.27329 117.12831 120.05583 125.91083 128.83833 134.69334 137.62085 143.47588 146.40338 152.25838 155.18588 161.04091 166.8959 169.82343 175.67842 181.53343 184.46095 190.31595 196.17097 199.09846 204.95349 210.80849 213.73601 219.59102 225.44604 228.37354 234.22855 240.08356 243.01108 248.86607 254.7211 257.64859 263.5036 269.35861 272.28613 277.9202 283.75681 286.68433 292.72342 298.57846 304.43347 310.28848 313.21597 316.14349 321.9985"
         y="33.568684"
         sodipodi:role="line"
         id="tspan340"
         style="stroke-width:0.767167">GM12878, 1,2,4,7,9,11,13,14,16,17,18,20,22 on K562, 21</tspan></text><text
       style="font-variant:normal;font-weight:normal;font-size:7.67167px;font-family:'DejaVu Sans';-inkscape-font-specification:DejaVuSans;writing-mode:lr-tb;fill:#000000;fill-opacity:1;fill-rule:nonzero;stroke:none;stroke-width:0.767167"
       id="text348"
       x="93.961349"
       y="188.52461"><tspan
         x="93.961349 100.23676 102.36947 107.24099 111.95905 115.11211 117.5517 119.99129 124.87047 129.74963 134.6288 139.34689 144.2184 146.65797 149.24333 151.68291 156.93034 162.54601 167.9008 170.48616 172.92574 177.80492 180.24452 185.12367 190.00288"
         y="188.52461"
         sodipodi:role="line"
         id="tspan346"
         style="stroke-width:0.767167">wider, 250ep / AUC: 0.586</tspan></text><text
       style="font-variant:normal;font-weight:normal;font-size:7.67167px;font-family:'DejaVu Sans';-inkscape-font-specification:DejaVuSans;writing-mode:lr-tb;fill:#000000;fill-opacity:1;fill-rule:nonzero;stroke:none;stroke-width:0.767167"
       id="text354"
       x="93.961349"
       y="199.78036"><tspan
         x="93.961349 100.23676 102.36947 107.24099 111.95905 115.11211 117.5517 119.99129 124.87047 129.74963 134.6288 139.34689 144.2184 146.65797 149.24333 151.68291 156.93034 162.54601 167.9008 170.48616 172.92574 177.80492 180.24452 185.12367 190.00288"
         y="199.78036"
         sodipodi:role="line"
         id="tspan352"
         style="stroke-width:0.767167">wider, 500ep / AUC: 0.563</tspan></text><text
       style="font-variant:normal;font-weight:normal;font-size:7.67167px;font-family:'DejaVu Sans';-inkscape-font-specification:DejaVuSans;writing-mode:lr-tb;fill:#000000;fill-opacity:1;fill-rule:nonzero;stroke:none;stroke-width:0.767167"
       id="text360"
       x="93.961349"
       y="211.03613"><tspan
         x="93.961349 100.23676 102.36947 107.24099 111.95905 115.11211 117.5517 119.99129 124.87047 129.74963 134.6288 139.508 144.22606 149.09755 151.53716 154.12251 156.56209 161.80952 167.42519 172.77995 175.36534 177.80492 182.6841 185.12367 190.00288 194.88203"
         y="211.03613"
         sodipodi:role="line"
         id="tspan358"
         style="stroke-width:0.767167">wider, 1000ep / AUC: 0.568</tspan></text><text
       style="font-variant:normal;font-weight:normal;font-size:7.67167px;font-family:'DejaVu Sans';-inkscape-font-specification:DejaVuSans;writing-mode:lr-tb;fill:#000000;fill-opacity:1;fill-rule:nonzero;stroke:none;stroke-width:0.767167"
       id="text366"
       x="93.961349"
       y="222.2919"><tspan
         x="93.961349 96.094055 100.95791 103.09061 106.09792 108.23064 112.93333 115.06606 117.50568 119.94526 124.82442 129.70361 134.58278 139.30087 144.17235 146.61195 149.19731 151.63689 156.88429 162.49995 167.85478 170.44014 172.87971 177.7589 180.19847 185.07765 189.95683"
         y="222.2919"
         sodipodi:role="line"
         id="tspan364"
         style="stroke-width:0.767167">initial, 500ep / AUC: 0.585</tspan></text><text
       style="font-variant:normal;font-weight:normal;font-size:7.67167px;font-family:'DejaVu Sans';-inkscape-font-specification:DejaVuSans;writing-mode:lr-tb;fill:#000000;fill-opacity:1;fill-rule:nonzero;stroke:none;stroke-width:0.767167"
       id="text372"
       x="93.961349"
       y="233.54765"><tspan
         x="93.961349 96.968643 100.12169 104.82442 109.68825 113.68517 116.38559 121.10368 124.25673 126.6963 132.64185 139.26248 144.14168 149.02086 153.90004 158.77919 163.65837 166.09798 168.68333 171.12288 176.37032 181.98598 187.34077 189.92613 192.36574 197.24492 199.68449 204.56367 209.44286"
         y="233.54765"
         sodipodi:role="line"
         id="tspan370"
         style="stroke-width:0.767167">transfer GM12878 / AUC: 0.849</tspan></text></g></svg>
