<?xml version="1.0" encoding="UTF-8" standalone="no"?>
<svg
   xmlns:dc="http://purl.org/dc/elements/1.1/"
   xmlns:cc="http://creativecommons.org/ns#"
   xmlns:rdf="http://www.w3.org/1999/02/22-rdf-syntax-ns#"
   xmlns:svg="http://www.w3.org/2000/svg"
   xmlns="http://www.w3.org/2000/svg"
   xmlns:sodipodi="http://sodipodi.sourceforge.net/DTD/sodipodi-0.dtd"
   xmlns:inkscape="http://www.inkscape.org/namespaces/inkscape"
   version="1.1"
   id="svg2"
   xml:space="preserve"
   width="80mm"
   height="65.300003mm"
   viewBox="0 0 302.36219 246.80316"
   sodipodi:docname="pearson_chr03.svg"
   inkscape:version="1.0.2 (1.0.2+r75+1)"><metadata
     id="metadata8"><rdf:RDF><cc:Work
         rdf:about=""><dc:format>image/svg+xml</dc:format><dc:type
           rdf:resource="http://purl.org/dc/dcmitype/StillImage" /><dc:title></dc:title></cc:Work></rdf:RDF></metadata><defs
     id="defs6"><clipPath
       clipPathUnits="userSpaceOnUse"
       id="clipPath22"><path
         d="M 57.6,38.016 H 414.72 V 304.128 H 57.6 Z"
         id="path20" /></clipPath><clipPath
       clipPathUnits="userSpaceOnUse"
       id="clipPath40"><path
         d="M 57.6,38.016 H 414.72 V 304.128 H 57.6 Z"
         id="path38" /></clipPath><clipPath
       clipPathUnits="userSpaceOnUse"
       id="clipPath58"><path
         d="M 57.6,38.016 H 414.72 V 304.128 H 57.6 Z"
         id="path56" /></clipPath><clipPath
       clipPathUnits="userSpaceOnUse"
       id="clipPath76"><path
         d="M 57.6,38.016 H 414.72 V 304.128 H 57.6 Z"
         id="path74" /></clipPath><clipPath
       clipPathUnits="userSpaceOnUse"
       id="clipPath94"><path
         d="M 57.6,38.016 H 414.72 V 304.128 H 57.6 Z"
         id="path92" /></clipPath><clipPath
       clipPathUnits="userSpaceOnUse"
       id="clipPath112"><path
         d="M 57.6,38.016 H 414.72 V 304.128 H 57.6 Z"
         id="path110" /></clipPath><clipPath
       clipPathUnits="userSpaceOnUse"
       id="clipPath130"><path
         d="M 57.6,38.016 H 414.72 V 304.128 H 57.6 Z"
         id="path128" /></clipPath><clipPath
       clipPathUnits="userSpaceOnUse"
       id="clipPath148"><path
         d="M 57.6,38.016 H 414.72 V 304.128 H 57.6 Z"
         id="path146" /></clipPath><clipPath
       clipPathUnits="userSpaceOnUse"
       id="clipPath170"><path
         d="M 57.6,38.016 H 414.72 V 304.128 H 57.6 Z"
         id="path168" /></clipPath><clipPath
       clipPathUnits="userSpaceOnUse"
       id="clipPath188"><path
         d="M 57.6,38.016 H 414.72 V 304.128 H 57.6 Z"
         id="path186" /></clipPath><clipPath
       clipPathUnits="userSpaceOnUse"
       id="clipPath206"><path
         d="M 57.6,38.016 H 414.72 V 304.128 H 57.6 Z"
         id="path204" /></clipPath><clipPath
       clipPathUnits="userSpaceOnUse"
       id="clipPath224"><path
         d="M 57.6,38.016 H 414.72 V 304.128 H 57.6 Z"
         id="path222" /></clipPath><clipPath
       clipPathUnits="userSpaceOnUse"
       id="clipPath242"><path
         d="M 57.6,38.016 H 414.72 V 304.128 H 57.6 Z"
         id="path240" /></clipPath><clipPath
       clipPathUnits="userSpaceOnUse"
       id="clipPath260"><path
         d="M 57.6,38.016 H 414.72 V 304.128 H 57.6 Z"
         id="path258" /></clipPath><clipPath
       clipPathUnits="userSpaceOnUse"
       id="clipPath282"><path
         d="M 57.6,38.016 H 414.72 V 304.128 H 57.6 Z"
         id="path280" /></clipPath><clipPath
       clipPathUnits="userSpaceOnUse"
       id="clipPath292"><path
         d="M 57.6,38.016 H 414.72 V 304.128 H 57.6 Z"
         id="path290" /></clipPath><clipPath
       clipPathUnits="userSpaceOnUse"
       id="clipPath302"><path
         d="M 57.6,38.016 H 414.72 V 304.128 H 57.6 Z"
         id="path300" /></clipPath><clipPath
       clipPathUnits="userSpaceOnUse"
       id="clipPath312"><path
         d="M 57.6,38.016 H 414.72 V 304.128 H 57.6 Z"
         id="path310" /></clipPath><clipPath
       clipPathUnits="userSpaceOnUse"
       id="clipPath322"><path
         d="M 57.6,38.016 H 414.72 V 304.128 H 57.6 Z"
         id="path320" /></clipPath></defs><sodipodi:namedview
     pagecolor="#ffffff"
     bordercolor="#666666"
     borderopacity="1"
     objecttolerance="10"
     gridtolerance="10"
     guidetolerance="10"
     inkscape:pageopacity="0"
     inkscape:pageshadow="2"
     inkscape:window-width="1920"
     inkscape:window-height="1020"
     id="namedview4"
     showgrid="false"
     fit-margin-top="0"
     fit-margin-left="0"
     fit-margin-right="0"
     fit-margin-bottom="0"
     units="mm"
     inkscape:zoom="29.756945"
     inkscape:cx="190.95399"
     inkscape:cy="248.95278"
     inkscape:window-x="0"
     inkscape:window-y="0"
     inkscape:window-maximized="1"
     inkscape:current-layer="layer1" /><g
     id="g10"
     inkscape:groupmode="layer"
     inkscape:label="pearson_chr03"
     transform="matrix(1.3333333,0,0,-1.3333333,-28.023958,443.59358)"><path
       d="M 56.120617,172.49203 H 67.624481"
       style="fill:none;stroke:#d62728;stroke-width:0.86279;stroke-linecap:square;stroke-linejoin:round;stroke-miterlimit:10;stroke-dasharray:none;stroke-opacity:1"
       id="path368" /><g
       id="g16"
       transform="matrix(0.57519317,0,0,0.57519317,8.9285768,141.9728)"><g
         id="g18"
         clip-path="url(#clipPath22)"><path
           d="M 57.6,38.016 V 304.128"
           style="fill:none;stroke:#b0b0b0;stroke-width:0.8;stroke-linecap:square;stroke-linejoin:round;stroke-miterlimit:10;stroke-dasharray:none;stroke-opacity:1"
           id="path24" /></g></g><path
       d="m 42.059704,163.83934 v -2.01318"
       style="fill:#000000;fill-opacity:1;fill-rule:nonzero;stroke:#000000;stroke-width:0.460154;stroke-linecap:butt;stroke-linejoin:round;stroke-miterlimit:10;stroke-dasharray:none;stroke-opacity:1"
       id="path28" /><g
       id="g34"
       transform="matrix(0.57519317,0,0,0.57519317,8.9285768,141.9728)"><g
         id="g36"
         clip-path="url(#clipPath40)"><path
           d="M 102.80506,38.016 V 304.128"
           style="fill:none;stroke:#b0b0b0;stroke-width:0.8;stroke-linecap:square;stroke-linejoin:round;stroke-miterlimit:10;stroke-dasharray:none;stroke-opacity:1"
           id="path42" /></g></g><path
       d="m 68.061345,163.83934 v -2.01318"
       style="fill:#000000;fill-opacity:1;fill-rule:nonzero;stroke:#000000;stroke-width:0.460154;stroke-linecap:butt;stroke-linejoin:round;stroke-miterlimit:10;stroke-dasharray:none;stroke-opacity:1"
       id="path46" /><g
       id="g52"
       transform="matrix(0.57519317,0,0,0.57519317,8.9285768,141.9728)"><g
         id="g54"
         clip-path="url(#clipPath58)"><path
           d="M 148.01013,38.016 V 304.128"
           style="fill:none;stroke:#b0b0b0;stroke-width:0.8;stroke-linecap:square;stroke-linejoin:round;stroke-miterlimit:10;stroke-dasharray:none;stroke-opacity:1"
           id="path60" /></g></g><path
       d="m 94.062993,163.83934 v -2.01318"
       style="fill:#000000;fill-opacity:1;fill-rule:nonzero;stroke:#000000;stroke-width:0.460154;stroke-linecap:butt;stroke-linejoin:round;stroke-miterlimit:10;stroke-dasharray:none;stroke-opacity:1"
       id="path64" /><g
       id="g70"
       transform="matrix(0.57519317,0,0,0.57519317,8.9285768,141.9728)"><g
         id="g72"
         clip-path="url(#clipPath76)"><path
           d="M 193.21519,38.016 V 304.128"
           style="fill:none;stroke:#b0b0b0;stroke-width:0.8;stroke-linecap:square;stroke-linejoin:round;stroke-miterlimit:10;stroke-dasharray:none;stroke-opacity:1"
           id="path78" /></g></g><path
       d="m 120.06464,163.83934 v -2.01318"
       style="fill:#000000;fill-opacity:1;fill-rule:nonzero;stroke:#000000;stroke-width:0.460154;stroke-linecap:butt;stroke-linejoin:round;stroke-miterlimit:10;stroke-dasharray:none;stroke-opacity:1"
       id="path82" /><g
       id="g88"
       transform="matrix(0.57519317,0,0,0.57519317,8.9285768,141.9728)"><g
         id="g90"
         clip-path="url(#clipPath94)"><path
           d="M 238.42025,38.016 V 304.128"
           style="fill:none;stroke:#b0b0b0;stroke-width:0.8;stroke-linecap:square;stroke-linejoin:round;stroke-miterlimit:10;stroke-dasharray:none;stroke-opacity:1"
           id="path96" /></g></g><path
       d="m 146.06628,163.83934 v -2.01318"
       style="fill:#000000;fill-opacity:1;fill-rule:nonzero;stroke:#000000;stroke-width:0.460154;stroke-linecap:butt;stroke-linejoin:round;stroke-miterlimit:10;stroke-dasharray:none;stroke-opacity:1"
       id="path100" /><g
       id="g106"
       transform="matrix(0.57519317,0,0,0.57519317,8.9285768,141.9728)"><g
         id="g108"
         clip-path="url(#clipPath112)"><path
           d="M 283.62532,38.016 V 304.128"
           style="fill:none;stroke:#b0b0b0;stroke-width:0.8;stroke-linecap:square;stroke-linejoin:round;stroke-miterlimit:10;stroke-dasharray:none;stroke-opacity:1"
           id="path114" /></g></g><path
       d="m 172.06792,163.83934 v -2.01318"
       style="fill:#000000;fill-opacity:1;fill-rule:nonzero;stroke:#000000;stroke-width:0.460154;stroke-linecap:butt;stroke-linejoin:round;stroke-miterlimit:10;stroke-dasharray:none;stroke-opacity:1"
       id="path118" /><g
       id="g124"
       transform="matrix(0.57519317,0,0,0.57519317,8.9285768,141.9728)"><g
         id="g126"
         clip-path="url(#clipPath130)"><path
           d="M 328.83038,38.016 V 304.128"
           style="fill:none;stroke:#b0b0b0;stroke-width:0.8;stroke-linecap:square;stroke-linejoin:round;stroke-miterlimit:10;stroke-dasharray:none;stroke-opacity:1"
           id="path132" /></g></g><path
       d="m 198.06957,163.83934 v -2.01318"
       style="fill:#000000;fill-opacity:1;fill-rule:nonzero;stroke:#000000;stroke-width:0.460154;stroke-linecap:butt;stroke-linejoin:round;stroke-miterlimit:10;stroke-dasharray:none;stroke-opacity:1"
       id="path136" /><g
       id="g142"
       transform="matrix(0.57519317,0,0,0.57519317,8.9285768,141.9728)"><g
         id="g144"
         clip-path="url(#clipPath148)"><path
           d="M 374.03544,38.016 V 304.128"
           style="fill:none;stroke:#b0b0b0;stroke-width:0.8;stroke-linecap:square;stroke-linejoin:round;stroke-miterlimit:10;stroke-dasharray:none;stroke-opacity:1"
           id="path150" /></g></g><path
       d="m 224.07121,163.83934 v -2.01318"
       style="fill:#000000;fill-opacity:1;fill-rule:nonzero;stroke:#000000;stroke-width:0.460154;stroke-linecap:butt;stroke-linejoin:round;stroke-miterlimit:10;stroke-dasharray:none;stroke-opacity:1"
       id="path154" /><g
       id="g164"
       transform="matrix(0.57519317,0,0,0.57519317,8.9285768,141.9728)"><g
         id="g166"
         clip-path="url(#clipPath170)"><path
           d="M 57.6,38.016 H 414.72"
           style="fill:none;stroke:#b0b0b0;stroke-width:0.8;stroke-linecap:square;stroke-linejoin:round;stroke-miterlimit:10;stroke-dasharray:none;stroke-opacity:1"
           id="path172" /></g></g><path
       d="M 42.059704,163.83934 H 40.046527"
       style="fill:#000000;fill-opacity:1;fill-rule:nonzero;stroke:#000000;stroke-width:0.460154;stroke-linecap:butt;stroke-linejoin:round;stroke-miterlimit:10;stroke-dasharray:none;stroke-opacity:1"
       id="path176" /><g
       id="g182"
       transform="matrix(0.57519317,0,0,0.57519317,8.9285768,141.9728)"><g
         id="g184"
         clip-path="url(#clipPath188)"><path
           d="M 57.6,91.2384 H 414.72"
           style="fill:none;stroke:#b0b0b0;stroke-width:0.8;stroke-linecap:square;stroke-linejoin:round;stroke-miterlimit:10;stroke-dasharray:none;stroke-opacity:1"
           id="path190" /></g></g><path
       d="M 42.059704,194.4525 H 40.046527"
       style="fill:#000000;fill-opacity:1;fill-rule:nonzero;stroke:#000000;stroke-width:0.460154;stroke-linecap:butt;stroke-linejoin:round;stroke-miterlimit:10;stroke-dasharray:none;stroke-opacity:1"
       id="path194" /><g
       id="g200"
       transform="matrix(0.57519317,0,0,0.57519317,8.9285768,141.9728)"><g
         id="g202"
         clip-path="url(#clipPath206)"><path
           d="M 57.6,144.4608 H 414.72"
           style="fill:none;stroke:#b0b0b0;stroke-width:0.8;stroke-linecap:square;stroke-linejoin:round;stroke-miterlimit:10;stroke-dasharray:none;stroke-opacity:1"
           id="path208" /></g></g><path
       d="M 42.059704,225.06566 H 40.046527"
       style="fill:#000000;fill-opacity:1;fill-rule:nonzero;stroke:#000000;stroke-width:0.460154;stroke-linecap:butt;stroke-linejoin:round;stroke-miterlimit:10;stroke-dasharray:none;stroke-opacity:1"
       id="path212" /><g
       id="g218"
       transform="matrix(0.57519317,0,0,0.57519317,8.9285768,141.9728)"><g
         id="g220"
         clip-path="url(#clipPath224)"><path
           d="M 57.6,197.6832 H 414.72"
           style="fill:none;stroke:#b0b0b0;stroke-width:0.8;stroke-linecap:square;stroke-linejoin:round;stroke-miterlimit:10;stroke-dasharray:none;stroke-opacity:1"
           id="path226" /></g></g><path
       d="M 42.059704,255.67882 H 40.046527"
       style="fill:#000000;fill-opacity:1;fill-rule:nonzero;stroke:#000000;stroke-width:0.460154;stroke-linecap:butt;stroke-linejoin:round;stroke-miterlimit:10;stroke-dasharray:none;stroke-opacity:1"
       id="path230" /><g
       id="g236"
       transform="matrix(0.57519317,0,0,0.57519317,8.9285768,141.9728)"><g
         id="g238"
         clip-path="url(#clipPath242)"><path
           d="M 57.6,250.9056 H 414.72"
           style="fill:none;stroke:#b0b0b0;stroke-width:0.8;stroke-linecap:square;stroke-linejoin:round;stroke-miterlimit:10;stroke-dasharray:none;stroke-opacity:1"
           id="path244" /></g></g><path
       d="M 42.059704,286.29199 H 40.046527"
       style="fill:#000000;fill-opacity:1;fill-rule:nonzero;stroke:#000000;stroke-width:0.460154;stroke-linecap:butt;stroke-linejoin:round;stroke-miterlimit:10;stroke-dasharray:none;stroke-opacity:1"
       id="path248" /><g
       id="g254"
       transform="matrix(0.57519317,0,0,0.57519317,8.9285768,141.9728)"><g
         id="g256"
         clip-path="url(#clipPath260)"><path
           d="M 57.6,304.128 H 414.72"
           style="fill:none;stroke:#b0b0b0;stroke-width:0.8;stroke-linecap:square;stroke-linejoin:round;stroke-miterlimit:10;stroke-dasharray:none;stroke-opacity:1"
           id="path262" /></g></g><path
       d="M 42.059704,316.90515 H 40.046527"
       style="fill:#000000;fill-opacity:1;fill-rule:nonzero;stroke:#000000;stroke-width:0.460154;stroke-linecap:butt;stroke-linejoin:round;stroke-miterlimit:10;stroke-dasharray:none;stroke-opacity:1"
       id="path266" /><g
       id="g276"
       transform="matrix(0.57519317,0,0,0.57519317,8.9285768,141.9728)"><g
         id="g278"
         clip-path="url(#clipPath282)"><path
           d="m 57.6,258.18293 4.520506,5.29777 4.520507,-7.31119 4.520506,-8.16455 4.520506,-8.09224 4.520507,-7.54891 4.520506,-4.57011 4.520506,-1.81624 4.520507,-3.18883 4.520506,-1.06803 4.520503,-3.20749 4.52051,-4.64737 4.52051,-2.01951 4.5205,-1.11171 4.52051,0.15152 4.52051,-0.12616 4.5205,0.51599 4.52051,1.6886 4.5205,-4.43332 4.52051,-0.0395 4.52051,-1.43411 4.5205,-3.91966 4.52051,-2.86687 4.52051,-2.24744 4.5205,-1.19282 4.52051,-3.84529 4.5205,-0.98756 4.52051,0.6015 4.52051,-1.6604 4.5205,-1.97908 4.52051,-2.16306 4.52051,0.71158 4.5205,-0.65762 4.52051,-0.81018 4.5205,0.27171 4.52051,-2.99943 4.52051,-2.2458 4.5205,-2.41707 4.52051,-2.69774 4.52051,-1.36239 4.5205,-0.11761 4.52051,-1.35237 4.52051,-3.32273 4.5205,0.39385 4.52051,-3.58433 4.5205,-0.16379 4.52051,2.51065 4.52051,-3.91534 4.5205,-2.82081 4.52051,3.07706 4.52051,-2.65655 4.5205,-3.62833 4.52051,1.35629 4.5205,-0.11234 4.52051,-2.71735 4.52051,-1.91159 4.5205,0.36247 4.52051,-0.52711 4.52051,-3.06692 4.5205,-2.78426 4.52051,-2.38057 4.52051,1.59603 4.5205,-1.67822 4.52051,-0.12221 4.5205,1.01712 4.52051,3.14365 4.52051,-3.32758 4.5205,-3.05634 4.52051,2.81101 4.52051,-1.89205 4.5205,-5.74086 4.52051,-1.10451 4.52051,-1.08508 4.5205,1.43803 4.52051,-0.47744 4.5205,2.09311 4.52051,-7.65268 4.52051,3.96485 4.5205,-2.56343 4.52051,-11.85506"
           style="fill:none;stroke:#1f77b4;stroke-width:1.5;stroke-linecap:square;stroke-linejoin:round;stroke-miterlimit:10;stroke-dasharray:none;stroke-opacity:1"
           id="path284" /></g></g><g
       id="g286"
       transform="matrix(0.57519317,0,0,0.57519317,8.9285768,141.9728)"><g
         id="g288"
         clip-path="url(#clipPath292)"><path
           d="m 57.6,259.46565 4.520506,5.21043 4.520507,-7.45768 4.520506,-7.57246 4.520506,-7.28049 4.520507,-7.2083 4.520506,-4.26161 4.520506,-2.54231 4.520507,-3.784 4.520506,-2.12459 4.520503,-3.27979 4.52051,-4.50361 4.52051,-1.83973 4.5205,-1.2923 4.52051,-0.17095 4.52051,-0.21191 4.5205,-0.0713 4.52051,1.38059 4.5205,-4.02494 4.52051,-0.0178 4.52051,-1.36462 4.5205,-3.84957 4.52051,-2.57605 4.52051,-2.26596 4.5205,-1.43926 4.52051,-3.17847 4.5205,-0.59173 4.52051,0.88276 4.52051,-1.41338 4.5205,-1.81349 4.52051,-1.79563 4.52051,0.24184 4.5205,-1.57434 4.52051,-1.25563 4.5205,0.0639 4.52051,-3.31188 4.52051,-1.92063 4.5205,-2.83059 4.52051,-2.53854 4.52051,-1.26483 4.5205,-0.62106 4.52051,-0.75068 4.52051,-4.04683 4.5205,0.43679 4.52051,-3.82283 4.5205,0.15404 4.52051,2.92317 4.52051,-3.67224 4.5205,-2.98628 4.52051,2.68066 4.52051,-2.09944 4.5205,-3.0873 4.52051,0.72707 4.5205,0.0211 4.52051,-2.65245 4.52051,-1.30001 4.5205,0.49075 4.52051,-0.92977 4.52051,-2.51487 4.5205,-2.86676 4.52051,-1.78209 4.52051,-0.14738 4.5205,-0.61253 4.52051,0.14543 4.5205,0.62668 4.52051,4.51124 4.52051,-3.82943 4.5205,-3.99866 4.52051,3.4683 4.52051,-0.39002 4.5205,-6.10338 4.52051,-2.15627 4.52051,-0.71583 4.5205,0.64433 4.52051,-2.39358 4.5205,0.89234 4.52051,-2.49901 4.52051,1.96774 4.5205,-8.48285 4.52051,0.58034"
           style="fill:none;stroke:#ff7f0e;stroke-width:1.5;stroke-linecap:square;stroke-linejoin:round;stroke-miterlimit:10;stroke-dasharray:none;stroke-opacity:1"
           id="path294" /></g></g><g
       id="g296"
       transform="matrix(0.57519317,0,0,0.57519317,8.9285768,141.9728)"><g
         id="g298"
         clip-path="url(#clipPath302)"><path
           d="m 57.6,262.29985 4.520506,4.7499 4.520507,-7.55546 4.520506,-7.05247 4.520506,-6.75185 4.520507,-7.21392 4.520506,-4.92705 4.520506,-2.99256 4.520507,-3.75358 4.520506,-2.07267 4.520503,-3.28018 4.52051,-4.79228 4.52051,-2.44033 4.5205,-1.83717 4.52051,-0.32345 4.52051,-0.34356 4.5205,0.0414 4.52051,1.10227 4.5205,-4.10168 4.52051,-0.10391 4.52051,-0.99799 4.5205,-3.38889 4.52051,-2.37347 4.52051,-1.77113 4.5205,-1.28515 4.52051,-3.14586 4.5205,-0.40953 4.52051,0.87148 4.52051,-1.41323 4.5205,-1.62163 4.52051,-2.07164 4.52051,0.67808 4.5205,-2.17358 4.52051,-1.26388 4.5205,0.17297 4.52051,-3.84864 4.52051,-1.61509 4.5205,-3.25415 4.52051,-2.57407 4.52051,-1.23538 4.5205,-0.52626 4.52051,-0.69282 4.52051,-3.28105 4.5205,0.0734 4.52051,-4.07403 4.5205,0.83135 4.52051,2.84982 4.52051,-3.60499 4.5205,-2.69198 4.52051,3.07015 4.52051,-1.83761 4.5205,-3.28207 4.52051,-0.5999 4.5205,0.48242 4.52051,-2.09977 4.52051,-1.46114 4.5205,-0.007 4.52051,-1.58542 4.52051,-1.96326 4.5205,-3.16391 4.52051,-1.7046 4.52051,0.55406 4.5205,-1.02289 4.52051,-0.47724 4.5205,1.33361 4.52051,2.57573 4.52051,-2.38341 4.5205,-3.36179 4.52051,2.34723 4.52051,0.20612 4.5205,-5.94943 4.52051,-1.56911 4.52051,0.30678 4.5205,1.41621 4.52051,-1.35553 4.5205,0.79916 4.52051,-0.34315 4.52051,-0.17782 4.5205,-5.83607 4.52051,-0.46769"
           style="fill:none;stroke:#2ca02c;stroke-width:1.5;stroke-linecap:square;stroke-linejoin:round;stroke-miterlimit:10;stroke-dasharray:none;stroke-opacity:1"
           id="path304" /></g></g><g
       id="g306"
       transform="matrix(0.57519317,0,0,0.57519317,8.9285768,141.9728)"><g
         id="g308"
         clip-path="url(#clipPath312)"><path
           d="m 57.6,263.06161 4.520506,2.49916 4.520507,-7.56298 4.520506,-6.6861 4.520506,-6.93072 4.520507,-6.64645 4.520506,-4.50441 4.520506,-2.75526 4.520507,-3.83106 4.520506,-1.91644 4.520503,-3.05746 4.52051,-4.14799 4.52051,-2.34974 4.5205,-1.17181 4.52051,-0.22569 4.52051,-0.22812 4.5205,-0.0396 4.52051,1.16581 4.5205,-4.19361 4.52051,0.0483 4.52051,-1.20925 4.5205,-3.89908 4.52051,-2.757 4.52051,-2.00252 4.5205,-0.77505 4.52051,-3.01428 4.5205,-0.0784 4.52051,1.11854 4.52051,-0.60097 4.5205,-1.09445 4.52051,-3.25865 4.52051,1.30361 4.5205,-1.94069 4.52051,-0.52568 4.5205,0.22663 4.52051,-2.45329 4.52051,-1.77049 4.5205,-2.18223 4.52051,-3.15564 4.52051,-1.06724 4.5205,0.38832 4.52051,0.12015 4.52051,-3.80542 4.5205,-1.07663 4.52051,-3.25465 4.5205,0.0515 4.52051,3.19274 4.52051,-2.27731 4.5205,-3.71317 4.52051,1.30894 4.52051,-0.55295 4.5205,-2.90296 4.52051,-1.19741 4.5205,1.75076 4.52051,-1.06907 4.52051,-2.08868 4.5205,-0.30387 4.52051,-0.89036 4.52051,-2.46576 4.5205,-3.40588 4.52051,-0.79477 4.52051,-0.41326 4.5205,-0.24237 4.52051,-0.7686 4.5205,0.70012 4.52051,2.85979 4.52051,-1.60487 4.5205,-2.15824 4.52051,1.40662 4.52051,0.7718 4.5205,-3.67096 4.52051,-2.88601 4.52051,3.32543 4.5205,0.44399 4.52051,-2.6296 4.5205,1.67091 4.52051,-1.6426 4.52051,3.88714 4.5205,-9.74198 4.52051,-0.81343"
           style="fill:none;stroke:#9467bd;stroke-width:1.5;stroke-linecap:square;stroke-linejoin:round;stroke-miterlimit:10;stroke-dasharray:none;stroke-opacity:1"
           id="path314" /></g></g><g
       id="g316"
       transform="matrix(0.57519317,0,0,0.57519317,8.9285768,141.9728)"><g
         id="g318"
         clip-path="url(#clipPath322)"><path
           d="m 57.6,249.43408 4.520506,-5.20186 4.520507,-4.25042 4.520506,-2.53385 4.520506,0.51185 4.520507,1.76975 4.520506,0.027 4.520506,1.40078 4.520507,1.36446 4.520506,-1.07307 4.520503,2.02065 4.52051,1.63235 4.52051,-0.41465 4.5205,-2.69263 4.52051,-1.8059 4.52051,-4.23726 4.5205,-2.58687 4.52051,-1.69678 4.5205,-2.809 4.52051,-2.83811 4.52051,-4.16238 4.5205,0.16367 4.52051,-1.66633 4.52051,-2.95736 4.5205,-2.54848 4.52051,-1.83639 4.5205,-1.74741 4.52051,-6.54721 4.52051,3.11576 4.5205,-1.91276 4.52051,1.2379 4.52051,-1.3836 4.5205,1.31736 4.52051,-1.90274 4.5205,-3.64953 4.52051,0.67557 4.52051,0.38704 4.5205,-2.54355 4.52051,5.20302 4.52051,0.18639 4.5205,-1.15956 4.52051,-1.39258 4.52051,-0.19822 4.5205,1.64389 4.52051,3.39909 4.5205,-1.1601 4.52051,-2.87988 4.52051,-0.15289 4.5205,6.06002 4.52051,-1.88374 4.52051,-5.30723 4.5205,6.9563 4.52051,-2.92275 4.5205,-5.02696 4.52051,-2.144 4.52051,5.77794 4.5205,-1.5952 4.52051,-2.8813 4.52051,0.0348 4.5205,2.54005 4.52051,0.64463 4.52051,0.30438 4.5205,-2.82776 4.52051,3.38645 4.5205,-7.45509 4.52051,3.45975 4.52051,-7.57811 4.5205,3.39645 4.52051,-1.00295 4.52051,-5.30473 4.5205,2.66344 4.52051,1.28031 4.52051,-0.34549 4.5205,-3.83706 4.52051,-3.2519 4.5205,1.03356 4.52051,2.50973 4.52051,-6.28953 4.5205,2.88595 4.52051,0.16931"
           style="fill:none;fill-opacity:1;stroke:#d62728;stroke-width:1.5;stroke-linecap:square;stroke-linejoin:round;stroke-miterlimit:10;stroke-dasharray:none;stroke-opacity:1"
           id="path324" /></g></g><path
       d="M 42.059704,163.83934 V 316.90515"
       style="fill:none;stroke:#000000;stroke-width:0.460154;stroke-linecap:square;stroke-linejoin:miter;stroke-miterlimit:10;stroke-dasharray:none;stroke-opacity:1"
       id="path328" /><path
       d="M 247.47269,163.83934 V 316.90515"
       style="fill:none;stroke:#000000;stroke-width:0.460154;stroke-linecap:square;stroke-linejoin:miter;stroke-miterlimit:10;stroke-dasharray:none;stroke-opacity:1"
       id="path330" /><path
       d="M 42.059704,163.83934 H 247.47269"
       style="fill:none;stroke:#000000;stroke-width:0.460154;stroke-linecap:square;stroke-linejoin:miter;stroke-miterlimit:10;stroke-dasharray:none;stroke-opacity:1"
       id="path332" /><path
       d="M 42.059704,316.90515 H 247.47269"
       style="fill:none;stroke:#000000;stroke-width:0.460154;stroke-linecap:square;stroke-linejoin:miter;stroke-miterlimit:10;stroke-dasharray:none;stroke-opacity:1"
       id="path334" /><path
       d="M 56.120617,206.24867 H 67.624481"
       style="fill:none;stroke:#1f77b4;stroke-width:0.86279;stroke-linecap:square;stroke-linejoin:round;stroke-miterlimit:10;stroke-dasharray:none;stroke-opacity:1"
       id="path344" /><path
       d="M 56.120617,197.80951 H 67.624481"
       style="fill:none;stroke:#ff7f0e;stroke-width:0.86279;stroke-linecap:square;stroke-linejoin:round;stroke-miterlimit:10;stroke-dasharray:none;stroke-opacity:1"
       id="path350" /><path
       d="M 56.120617,189.37035 H 67.624481"
       style="fill:none;stroke:#2ca02c;stroke-width:0.86279;stroke-linecap:square;stroke-linejoin:round;stroke-miterlimit:10;stroke-dasharray:none;stroke-opacity:1"
       id="path356" /><path
       d="M 56.120617,180.93119 H 67.624481"
       style="fill:none;stroke:#9467bd;stroke-width:0.86279;stroke-linecap:square;stroke-linejoin:round;stroke-miterlimit:10;stroke-dasharray:none;stroke-opacity:1"
       id="path362" /></g><g
     inkscape:groupmode="layer"
     id="layer1"
     inkscape:label="text"
     transform="translate(-28.023958,-17.206424)"><text
       style="font-variant:normal;font-weight:normal;font-size:7.66924px;font-family:'DejaVu Sans';-inkscape-font-specification:DejaVuSans;writing-mode:lr-tb;fill:#000000;fill-opacity:1;fill-rule:nonzero;stroke:none;stroke-width:0.766924"
       id="text32"
       x="47.54158"
       y="253.5399"><tspan
         x="47.54158 52.41922 54.858036 59.735676"
         y="253.5399"
         sodipodi:role="line"
         id="tspan30"
         style="stroke-width:0.766924">0.00</tspan></text><text
       style="font-variant:normal;font-weight:normal;font-size:7.66924px;font-family:'DejaVu Sans';-inkscape-font-specification:DejaVuSans;writing-mode:lr-tb;fill:#000000;fill-opacity:1;fill-rule:nonzero;stroke:none;stroke-width:0.766924"
       id="text50"
       x="82.210434"
       y="253.5399"><tspan
         x="82.210434 87.088074 89.526886 94.404533"
         y="253.5399"
         sodipodi:role="line"
         id="tspan48"
         style="stroke-width:0.766924">0.25</tspan></text><text
       style="font-variant:normal;font-weight:normal;font-size:7.66924px;font-family:'DejaVu Sans';-inkscape-font-specification:DejaVuSans;writing-mode:lr-tb;fill:#000000;fill-opacity:1;fill-rule:nonzero;stroke:none;stroke-width:0.766924"
       id="text68"
       x="116.87929"
       y="253.5399"><tspan
         x="116.87929 121.75693 124.19575 129.07339"
         y="253.5399"
         sodipodi:role="line"
         id="tspan66"
         style="stroke-width:0.766924">0.50</tspan></text><text
       style="font-variant:normal;font-weight:normal;font-size:7.66924px;font-family:'DejaVu Sans';-inkscape-font-specification:DejaVuSans;writing-mode:lr-tb;fill:#000000;fill-opacity:1;fill-rule:nonzero;stroke:none;stroke-width:0.766924"
       id="text86"
       x="151.54814"
       y="253.5399"><tspan
         x="151.54814 156.4258 158.86461 163.74225"
         y="253.5399"
         sodipodi:role="line"
         id="tspan84"
         style="stroke-width:0.766924">0.75</tspan></text><text
       style="font-variant:normal;font-weight:normal;font-size:7.66924px;font-family:'DejaVu Sans';-inkscape-font-specification:DejaVuSans;writing-mode:lr-tb;fill:#000000;fill-opacity:1;fill-rule:nonzero;stroke:none;stroke-width:0.766924"
       id="text104"
       x="186.21701"
       y="253.5399"><tspan
         x="186.21701 191.09465 193.53346 198.4111"
         y="253.5399"
         sodipodi:role="line"
         id="tspan102"
         style="stroke-width:0.766924">1.00</tspan></text><text
       style="font-variant:normal;font-weight:normal;font-size:7.66924px;font-family:'DejaVu Sans';-inkscape-font-specification:DejaVuSans;writing-mode:lr-tb;fill:#000000;fill-opacity:1;fill-rule:nonzero;stroke:none;stroke-width:0.766924"
       id="text122"
       x="220.88585"
       y="253.5399"><tspan
         x="220.88585 225.76352 228.20232 233.07996"
         y="253.5399"
         sodipodi:role="line"
         id="tspan120"
         style="stroke-width:0.766924">1.25</tspan></text><text
       style="font-variant:normal;font-weight:normal;font-size:7.66924px;font-family:'DejaVu Sans';-inkscape-font-specification:DejaVuSans;writing-mode:lr-tb;fill:#000000;fill-opacity:1;fill-rule:nonzero;stroke:none;stroke-width:0.766924"
       id="text140"
       x="255.55473"
       y="253.5399"><tspan
         x="255.55473 260.43237 262.87119 267.74884"
         y="253.5399"
         sodipodi:role="line"
         id="tspan138"
         style="stroke-width:0.766924">1.50</tspan></text><text
       style="font-variant:normal;font-weight:normal;font-size:7.66924px;font-family:'DejaVu Sans';-inkscape-font-specification:DejaVuSans;writing-mode:lr-tb;fill:#000000;fill-opacity:1;fill-rule:nonzero;stroke:none;stroke-width:0.766924"
       id="text158"
       x="290.22357"
       y="253.5399"><tspan
         x="290.22357 295.10123 297.54004 302.41769"
         y="253.5399"
         sodipodi:role="line"
         id="tspan156"
         style="stroke-width:0.766924">1.75</tspan></text><text
       style="font-variant:normal;font-weight:normal;font-size:7.66924px;font-family:'DejaVu Sans';-inkscape-font-specification:DejaVuSans;writing-mode:lr-tb;fill:#000000;fill-opacity:1;fill-rule:nonzero;stroke:none;stroke-width:0.766924"
       id="text162"
       x="146.60469"
       y="264.02505"><tspan
         x="146.60469 152.54837 157.26494 162.12724 166.82082 174.29066 176.42271 180.64079 183.07961 187.94958 190.08163 194.0773 197.08365 201.7849 206.6472 210.8653 215.58188 218.02068 220.60522 223.04402 229.66258 234.53255"
         y="264.02505"
         sodipodi:role="line"
         id="tspan160"
         style="stroke-width:0.766924">Genomic distance / Mbp</tspan></text><text
       style="font-variant:normal;font-weight:normal;font-size:7.66924px;font-family:'DejaVu Sans';-inkscape-font-specification:DejaVuSans;writing-mode:lr-tb;fill:#000000;fill-opacity:1;fill-rule:nonzero;stroke:none;stroke-width:0.766924"
       id="text180"
       x="38.512245"
       y="245.25952"><tspan
         x="38.512245 43.389881 45.828701"
         y="245.25952"
         sodipodi:role="line"
         id="tspan178"
         style="stroke-width:0.766924">0.0</tspan></text><text
       style="font-variant:normal;font-weight:normal;font-size:7.66924px;font-family:'DejaVu Sans';-inkscape-font-specification:DejaVuSans;writing-mode:lr-tb;fill:#000000;fill-opacity:1;fill-rule:nonzero;stroke:none;stroke-width:0.766924"
       id="text198"
       x="38.512245"
       y="204.44197"><tspan
         x="38.512245 43.389881 45.828701"
         y="204.44197"
         sodipodi:role="line"
         id="tspan196"
         style="stroke-width:0.766924">0.2</tspan></text><text
       style="font-variant:normal;font-weight:normal;font-size:7.66924px;font-family:'DejaVu Sans';-inkscape-font-specification:DejaVuSans;writing-mode:lr-tb;fill:#000000;fill-opacity:1;fill-rule:nonzero;stroke:none;stroke-width:0.766924"
       id="text216"
       x="38.512245"
       y="163.62444"><tspan
         x="38.512245 43.389881 45.828701"
         y="163.62444"
         sodipodi:role="line"
         id="tspan214"
         style="stroke-width:0.766924">0.4</tspan></text><text
       style="font-variant:normal;font-weight:normal;font-size:7.66924px;font-family:'DejaVu Sans';-inkscape-font-specification:DejaVuSans;writing-mode:lr-tb;fill:#000000;fill-opacity:1;fill-rule:nonzero;stroke:none;stroke-width:0.766924"
       id="text234"
       x="38.512245"
       y="122.80679"><tspan
         x="38.512245 43.389881 45.828701"
         y="122.80679"
         sodipodi:role="line"
         id="tspan232"
         style="stroke-width:0.766924">0.6</tspan></text><text
       style="font-variant:normal;font-weight:normal;font-size:7.66924px;font-family:'DejaVu Sans';-inkscape-font-specification:DejaVuSans;writing-mode:lr-tb;fill:#000000;fill-opacity:1;fill-rule:nonzero;stroke:none;stroke-width:0.766924"
       id="text252"
       x="38.512245"
       y="81.989265"><tspan
         x="38.512245 43.389881 45.828701"
         y="81.989265"
         sodipodi:role="line"
         id="tspan250"
         style="stroke-width:0.766924">0.8</tspan></text><text
       style="font-variant:normal;font-weight:normal;font-size:7.66924px;font-family:'DejaVu Sans';-inkscape-font-specification:DejaVuSans;writing-mode:lr-tb;fill:#000000;fill-opacity:1;fill-rule:nonzero;stroke:none;stroke-width:0.766924"
       id="text270"
       x="38.512245"
       y="41.171757"><tspan
         x="38.512245 43.389881 45.828701"
         y="41.171757"
         sodipodi:role="line"
         id="tspan268"
         style="stroke-width:0.766924">1.0</tspan></text><text
       transform="rotate(-90)"
       style="font-variant:normal;font-weight:normal;font-size:7.66924px;font-family:'DejaVu Sans';-inkscape-font-specification:DejaVuSans;writing-mode:lr-tb;fill:#000000;fill-opacity:1;fill-rule:nonzero;stroke:none;stroke-width:0.766924"
       id="text274"
       x="-177.35576"
       y="33.850784"><tspan
         x="-177.35576 -172.73122 -168.01463 -163.31339 -160.16132 -156.16565 -151.47206 -146.60977 -144.17096 -139.95288 -135.25929 -132.10722 -128.95517 -124.23852 -122.10647 -117.40521 -114.39889 -112.26684 -107.57324"
         y="33.850784"
         sodipodi:role="line"
         id="tspan272"
         style="stroke-width:0.766924">Pearson correlation</tspan></text><text
       style="font-variant:normal;font-weight:normal;font-size:9.20309px;font-family:'DejaVu Sans';-inkscape-font-specification:DejaVuSans;writing-mode:lr-tb;fill:#000000;fill-opacity:1;fill-rule:nonzero;stroke:none;stroke-width:0.766924"
       id="text338"
       x="98.312439"
       y="23.343159"><tspan
         x="98.312439 103.8619 109.5218 115.16331 118.94577 123.74058 129.37288 135.20764 138.13422 143.19591 148.8282 152.61069 156.39314 162.05304 164.61151 170.25301 173.86061 176.41907 182.05136 187.88612 190.8127 196.26094 201.05576 203.98232 206.90892 212.75287 218.41278 224.24751 229.87982 238.84363 241.4021 246.46379 249.39038 255.23434 257.79279 262.58759 266.19522 271.8367 277.67148 282.73315"
         y="23.343159"
         sodipodi:role="line"
         id="tspan336"
         style="stroke-width:0.766924">Pearson correlation vs. genomic distance</tspan></text><text
       style="font-variant:normal;font-weight:normal;font-size:9.20309px;font-family:'DejaVu Sans';-inkscape-font-specification:DejaVuSans;writing-mode:lr-tb;fill:#000000;fill-opacity:1;fill-rule:nonzero;stroke:none;stroke-width:0.766924"
       id="text342"
       x="63.98328"
       y="33.658298"><tspan
         x="63.98328 71.115677 79.057945 84.91111 90.764275 96.617439 102.4706 108.32378 111.25036 114.17695 120.03011 122.9567 128.80984 131.73643 137.5896 140.51619 146.36937 149.29593 155.14911 158.07568 163.92885 169.78201 172.7086 178.56175 184.41492 187.34152 193.19467 199.04784 201.97443 207.82759 213.68076 216.60735 222.46049 228.31369 231.24025 237.09343 242.94658 245.87317 251.72633 257.5795 260.50607 266.35925 272.2124 275.13901 280.7713 286.60605 289.53265 295.56985 301.42303 307.27618 313.12939 316.05594 318.98251"
         y="33.658298"
         sodipodi:role="line"
         id="tspan340"
         style="stroke-width:0.766924">GM12878, 1,2,4,7,9,11,13,14,16,17,18,20,22 on K562, 3</tspan></text><text
       style="font-variant:normal;font-weight:normal;font-size:7.66923px;font-family:'DejaVu Sans';-inkscape-font-specification:DejaVuSans;writing-mode:lr-tb;fill:#000000;fill-opacity:1;fill-rule:nonzero;stroke:none;stroke-width:0.766923"
       id="text372"
       x="96.301361"
       y="233.49492"><tspan
         x="96.301361 99.307709 102.45977 107.16102 112.02332 116.01898 118.71854 123.43515 126.5872 129.026 134.96968 141.58824 146.4659 151.34351 156.22116 161.09879 165.97644 168.41525 170.99979 173.4386 178.68436 184.29825 189.65138 192.23592 194.67474 199.55237 201.9912 206.86882 211.74648"
         y="233.49492"
         sodipodi:role="line"
         id="tspan370"
         style="stroke-width:0.766923">transfer GM12878 / AUC: 0.652</tspan></text><text
       style="font-variant:normal;font-weight:normal;font-size:7.66923px;font-family:'DejaVu Sans';-inkscape-font-specification:DejaVuSans;writing-mode:lr-tb;fill:#000000;fill-opacity:1;fill-rule:nonzero;stroke:none;stroke-width:0.766923"
       id="text348"
       x="96.301361"
       y="188.48607"><tspan
         x="96.301361 102.57481 104.70685 109.57683 114.2934 117.44547 119.88428 122.3231 127.20075 132.07838 136.95601 141.67261 146.54259 148.98138 151.56593 154.00473 159.2505 164.8644 170.21751 172.80206 175.24086 180.11853 182.55734 187.43497 192.31261"
         y="188.48607"
         sodipodi:role="line"
         id="tspan346"
         style="stroke-width:0.766923">wider, 250ep / AUC: 0.533</tspan></text><text
       style="font-variant:normal;font-weight:normal;font-size:7.66923px;font-family:'DejaVu Sans';-inkscape-font-specification:DejaVuSans;writing-mode:lr-tb;fill:#000000;fill-opacity:1;fill-rule:nonzero;stroke:none;stroke-width:0.766923"
       id="text354"
       x="96.301361"
       y="199.73828"><tspan
         x="96.301361 102.57481 104.70685 109.57683 114.2934 117.44547 119.88428 122.3231 127.20075 132.07838 136.95601 141.67261 146.54259 148.98138 151.56593 154.00473 159.2505 164.8644 170.21751 172.80206 175.24086 180.11853 182.55734 187.43497 192.31261"
         y="199.73828"
         sodipodi:role="line"
         id="tspan352"
         style="stroke-width:0.766923">wider, 500ep / AUC: 0.536</tspan></text><text
       style="font-variant:normal;font-weight:normal;font-size:7.66923px;font-family:'DejaVu Sans';-inkscape-font-specification:DejaVuSans;writing-mode:lr-tb;fill:#000000;fill-opacity:1;fill-rule:nonzero;stroke:none;stroke-width:0.766923"
       id="text360"
       x="96.301361"
       y="210.99049"><tspan
         x="96.301361 102.57481 104.70685 109.57683 114.2934 117.44547 119.88428 122.3231 127.20075 132.07838 136.95601 141.83365 146.55025 151.42021 153.85902 156.44356 158.88239 164.12816 169.74205 175.09515 177.67967 180.11853 184.99615 187.43497 192.31261 197.19025"
         y="210.99049"
         sodipodi:role="line"
         id="tspan358"
         style="stroke-width:0.766923">wider, 1000ep / AUC: 0.544</tspan></text><text
       style="font-variant:normal;font-weight:normal;font-size:7.66923px;font-family:'DejaVu Sans';-inkscape-font-specification:DejaVuSans;writing-mode:lr-tb;fill:#000000;fill-opacity:1;fill-rule:nonzero;stroke:none;stroke-width:0.766923"
       id="text366"
       x="96.301361"
       y="222.24272"><tspan
         x="96.301361 98.433418 103.29572 105.42776 108.4341 110.56616 115.26739 117.39944 119.83826 122.27708 127.15472 132.03236 136.90999 141.62659 146.49655 148.93538 151.51991 153.95872 159.20447 164.81836 170.17152 172.75604 175.19487 180.07251 182.51132 187.38895 192.2666"
         y="222.24272"
         sodipodi:role="line"
         id="tspan364"
         style="stroke-width:0.766923">initial, 500ep / AUC: 0.562</tspan></text></g></svg>
