<?xml version="1.0" encoding="UTF-8" standalone="no"?>
<svg
   xmlns:dc="http://purl.org/dc/elements/1.1/"
   xmlns:cc="http://creativecommons.org/ns#"
   xmlns:rdf="http://www.w3.org/1999/02/22-rdf-syntax-ns#"
   xmlns:svg="http://www.w3.org/2000/svg"
   xmlns="http://www.w3.org/2000/svg"
   xmlns:sodipodi="http://sodipodi.sourceforge.net/DTD/sodipodi-0.dtd"
   xmlns:inkscape="http://www.inkscape.org/namespaces/inkscape"
   version="1.1"
   id="svg2"
   xml:space="preserve"
   width="80mm"
   height="61.5mm"
   viewBox="0 0 302.36222 232.44095"
   sodipodi:docname="lossOverEpochs.svg"
   inkscape:version="1.0.2 (1.0.2+r75+1)"><metadata
     id="metadata8"><rdf:RDF><cc:Work
         rdf:about=""><dc:format>image/svg+xml</dc:format><dc:type
           rdf:resource="http://purl.org/dc/dcmitype/StillImage" /><dc:title></dc:title></cc:Work></rdf:RDF></metadata><defs
     id="defs6"><clipPath
       clipPathUnits="userSpaceOnUse"
       id="clipPath22"><path
         d="M 54,35.64 H 388.8 V 285.12 H 54 Z"
         id="path20" /></clipPath><clipPath
       clipPathUnits="userSpaceOnUse"
       id="clipPath40"><path
         d="M 54,35.64 H 388.8 V 285.12 H 54 Z"
         id="path38" /></clipPath><clipPath
       clipPathUnits="userSpaceOnUse"
       id="clipPath58"><path
         d="M 54,35.64 H 388.8 V 285.12 H 54 Z"
         id="path56" /></clipPath><clipPath
       clipPathUnits="userSpaceOnUse"
       id="clipPath76"><path
         d="M 54,35.64 H 388.8 V 285.12 H 54 Z"
         id="path74" /></clipPath><clipPath
       clipPathUnits="userSpaceOnUse"
       id="clipPath94"><path
         d="M 54,35.64 H 388.8 V 285.12 H 54 Z"
         id="path92" /></clipPath><clipPath
       clipPathUnits="userSpaceOnUse"
       id="clipPath112"><path
         d="M 54,35.64 H 388.8 V 285.12 H 54 Z"
         id="path110" /></clipPath><clipPath
       clipPathUnits="userSpaceOnUse"
       id="clipPath130"><path
         d="M 54,35.64 H 388.8 V 285.12 H 54 Z"
         id="path128" /></clipPath><clipPath
       clipPathUnits="userSpaceOnUse"
       id="clipPath148"><path
         d="M 54,35.64 H 388.8 V 285.12 H 54 Z"
         id="path146" /></clipPath><clipPath
       clipPathUnits="userSpaceOnUse"
       id="clipPath166"><path
         d="M 54,35.64 H 388.8 V 285.12 H 54 Z"
         id="path164" /></clipPath><clipPath
       clipPathUnits="userSpaceOnUse"
       id="clipPath184"><path
         d="M 54,35.64 H 388.8 V 285.12 H 54 Z"
         id="path182" /></clipPath><clipPath
       clipPathUnits="userSpaceOnUse"
       id="clipPath202"><path
         d="M 54,35.64 H 388.8 V 285.12 H 54 Z"
         id="path200" /></clipPath><clipPath
       clipPathUnits="userSpaceOnUse"
       id="clipPath224"><path
         d="M 54,35.64 H 388.8 V 285.12 H 54 Z"
         id="path222" /></clipPath><clipPath
       clipPathUnits="userSpaceOnUse"
       id="clipPath248"><path
         d="M 54,35.64 H 388.8 V 285.12 H 54 Z"
         id="path246" /></clipPath><clipPath
       clipPathUnits="userSpaceOnUse"
       id="clipPath262"><path
         d="M 54,35.64 H 388.8 V 285.12 H 54 Z"
         id="path260" /></clipPath><clipPath
       clipPathUnits="userSpaceOnUse"
       id="clipPath276"><path
         d="M 54,35.64 H 388.8 V 285.12 H 54 Z"
         id="path274" /></clipPath><clipPath
       clipPathUnits="userSpaceOnUse"
       id="clipPath290"><path
         d="M 54,35.64 H 388.8 V 285.12 H 54 Z"
         id="path288" /></clipPath><clipPath
       clipPathUnits="userSpaceOnUse"
       id="clipPath304"><path
         d="M 54,35.64 H 388.8 V 285.12 H 54 Z"
         id="path302" /></clipPath><clipPath
       clipPathUnits="userSpaceOnUse"
       id="clipPath318"><path
         d="M 54,35.64 H 388.8 V 285.12 H 54 Z"
         id="path316" /></clipPath><clipPath
       clipPathUnits="userSpaceOnUse"
       id="clipPath332"><path
         d="M 54,35.64 H 388.8 V 285.12 H 54 Z"
         id="path330" /></clipPath><clipPath
       clipPathUnits="userSpaceOnUse"
       id="clipPath346"><path
         d="M 54,35.64 H 388.8 V 285.12 H 54 Z"
         id="path344" /></clipPath><clipPath
       clipPathUnits="userSpaceOnUse"
       id="clipPath360"><path
         d="M 54,35.64 H 388.8 V 285.12 H 54 Z"
         id="path358" /></clipPath><clipPath
       clipPathUnits="userSpaceOnUse"
       id="clipPath374"><path
         d="M 54,35.64 H 388.8 V 285.12 H 54 Z"
         id="path372" /></clipPath><clipPath
       clipPathUnits="userSpaceOnUse"
       id="clipPath392"><path
         d="M 54,35.64 H 388.8 V 285.12 H 54 Z"
         id="path390" /></clipPath><clipPath
       clipPathUnits="userSpaceOnUse"
       id="clipPath402"><path
         d="M 54,35.64 H 388.8 V 285.12 H 54 Z"
         id="path400" /></clipPath></defs><sodipodi:namedview
     pagecolor="#ffffff"
     bordercolor="#666666"
     borderopacity="1"
     objecttolerance="10"
     gridtolerance="10"
     guidetolerance="10"
     inkscape:pageopacity="0"
     inkscape:pageshadow="2"
     inkscape:window-width="1920"
     inkscape:window-height="1020"
     id="namedview4"
     showgrid="false"
     fit-margin-top="0"
     fit-margin-left="0"
     fit-margin-right="0"
     fit-margin-bottom="0"
     units="mm"
     inkscape:zoom="7.9351852"
     inkscape:cx="35.729337"
     inkscape:cy="176.73444"
     inkscape:window-x="0"
     inkscape:window-y="0"
     inkscape:window-maximized="1"
     inkscape:current-layer="layer1" /><g
     id="g10"
     inkscape:groupmode="layer"
     inkscape:label="lossOverEpochs"
     transform="matrix(1.3333333,0,0,-1.3333333,-30.80192,380.69332)"
     style="display:inline"><g
       id="g16"
       transform="matrix(0.61925994,0,0,0.61925994,8.7956438,108.44898)"><g
         id="g18"
         clip-path="url(#clipPath22)"><path
           d="M 68.913514,35.64 V 285.12"
           style="fill:none;stroke:#b0b0b0;stroke-width:0.8;stroke-linecap:square;stroke-linejoin:round;stroke-miterlimit:10;stroke-dasharray:none;stroke-opacity:1"
           id="path24" /></g></g><path
       d="m 51.471022,130.5194 v -2.16741"
       style="fill:#000000;fill-opacity:1;fill-rule:nonzero;stroke:#000000;stroke-width:0.495408;stroke-linecap:butt;stroke-linejoin:round;stroke-miterlimit:10;stroke-dasharray:none;stroke-opacity:1"
       id="path28" /><g
       id="g34"
       transform="matrix(0.61925994,0,0,0.61925994,8.7956438,108.44898)"><g
         id="g36"
         clip-path="url(#clipPath40)"><path
           d="M 99.380344,35.64 V 285.12"
           style="fill:none;stroke:#b0b0b0;stroke-width:0.8;stroke-linecap:square;stroke-linejoin:round;stroke-miterlimit:10;stroke-dasharray:none;stroke-opacity:1"
           id="path42" /></g></g><path
       d="m 70.337909,130.5194 v -2.16741"
       style="fill:#000000;fill-opacity:1;fill-rule:nonzero;stroke:#000000;stroke-width:0.495408;stroke-linecap:butt;stroke-linejoin:round;stroke-miterlimit:10;stroke-dasharray:none;stroke-opacity:1"
       id="path46" /><g
       id="g52"
       transform="matrix(0.61925994,0,0,0.61925994,8.7956438,108.44898)"><g
         id="g54"
         clip-path="url(#clipPath58)"><path
           d="M 129.84717,35.64 V 285.12"
           style="fill:none;stroke:#b0b0b0;stroke-width:0.8;stroke-linecap:square;stroke-linejoin:round;stroke-miterlimit:10;stroke-dasharray:none;stroke-opacity:1"
           id="path60" /></g></g><path
       d="m 89.204794,130.5194 v -2.16741"
       style="fill:#000000;fill-opacity:1;fill-rule:nonzero;stroke:#000000;stroke-width:0.495408;stroke-linecap:butt;stroke-linejoin:round;stroke-miterlimit:10;stroke-dasharray:none;stroke-opacity:1"
       id="path64" /><g
       id="g70"
       transform="matrix(0.61925994,0,0,0.61925994,8.7956438,108.44898)"><g
         id="g72"
         clip-path="url(#clipPath76)"><path
           d="M 160.314,35.64 V 285.12"
           style="fill:none;stroke:#b0b0b0;stroke-width:0.8;stroke-linecap:square;stroke-linejoin:round;stroke-miterlimit:10;stroke-dasharray:none;stroke-opacity:1"
           id="path78" /></g></g><path
       d="m 108.07168,130.5194 v -2.16741"
       style="fill:#000000;fill-opacity:1;fill-rule:nonzero;stroke:#000000;stroke-width:0.495408;stroke-linecap:butt;stroke-linejoin:round;stroke-miterlimit:10;stroke-dasharray:none;stroke-opacity:1"
       id="path82" /><g
       id="g88"
       transform="matrix(0.61925994,0,0,0.61925994,8.7956438,108.44898)"><g
         id="g90"
         clip-path="url(#clipPath94)"><path
           d="M 190.78083,35.64 V 285.12"
           style="fill:none;stroke:#b0b0b0;stroke-width:0.8;stroke-linecap:square;stroke-linejoin:round;stroke-miterlimit:10;stroke-dasharray:none;stroke-opacity:1"
           id="path96" /></g></g><path
       d="m 126.93857,130.5194 v -2.16741"
       style="fill:#000000;fill-opacity:1;fill-rule:nonzero;stroke:#000000;stroke-width:0.495408;stroke-linecap:butt;stroke-linejoin:round;stroke-miterlimit:10;stroke-dasharray:none;stroke-opacity:1"
       id="path100" /><g
       id="g106"
       transform="matrix(0.61925994,0,0,0.61925994,8.7956438,108.44898)"><g
         id="g108"
         clip-path="url(#clipPath112)"><path
           d="M 221.24767,35.64 V 285.12"
           style="fill:none;stroke:#b0b0b0;stroke-width:0.8;stroke-linecap:square;stroke-linejoin:round;stroke-miterlimit:10;stroke-dasharray:none;stroke-opacity:1"
           id="path114" /></g></g><path
       d="m 145.80547,130.5194 v -2.16741"
       style="fill:#000000;fill-opacity:1;fill-rule:nonzero;stroke:#000000;stroke-width:0.495408;stroke-linecap:butt;stroke-linejoin:round;stroke-miterlimit:10;stroke-dasharray:none;stroke-opacity:1"
       id="path118" /><g
       id="g124"
       transform="matrix(0.61925994,0,0,0.61925994,8.7956438,108.44898)"><g
         id="g126"
         clip-path="url(#clipPath130)"><path
           d="M 251.7145,35.64 V 285.12"
           style="fill:none;stroke:#b0b0b0;stroke-width:0.8;stroke-linecap:square;stroke-linejoin:round;stroke-miterlimit:10;stroke-dasharray:none;stroke-opacity:1"
           id="path132" /></g></g><path
       d="m 164.67235,130.5194 v -2.16741"
       style="fill:#000000;fill-opacity:1;fill-rule:nonzero;stroke:#000000;stroke-width:0.495408;stroke-linecap:butt;stroke-linejoin:round;stroke-miterlimit:10;stroke-dasharray:none;stroke-opacity:1"
       id="path136" /><g
       id="g142"
       transform="matrix(0.61925994,0,0,0.61925994,8.7956438,108.44898)"><g
         id="g144"
         clip-path="url(#clipPath148)"><path
           d="M 282.18133,35.64 V 285.12"
           style="fill:none;stroke:#b0b0b0;stroke-width:0.8;stroke-linecap:square;stroke-linejoin:round;stroke-miterlimit:10;stroke-dasharray:none;stroke-opacity:1"
           id="path150" /></g></g><path
       d="m 183.53924,130.5194 v -2.16741"
       style="fill:#000000;fill-opacity:1;fill-rule:nonzero;stroke:#000000;stroke-width:0.495408;stroke-linecap:butt;stroke-linejoin:round;stroke-miterlimit:10;stroke-dasharray:none;stroke-opacity:1"
       id="path154" /><g
       id="g160"
       transform="matrix(0.61925994,0,0,0.61925994,8.7956438,108.44898)"><g
         id="g162"
         clip-path="url(#clipPath166)"><path
           d="M 312.64816,35.64 V 285.12"
           style="fill:none;stroke:#b0b0b0;stroke-width:0.8;stroke-linecap:square;stroke-linejoin:round;stroke-miterlimit:10;stroke-dasharray:none;stroke-opacity:1"
           id="path168" /></g></g><path
       d="m 202.40613,130.5194 v -2.16741"
       style="fill:#000000;fill-opacity:1;fill-rule:nonzero;stroke:#000000;stroke-width:0.495408;stroke-linecap:butt;stroke-linejoin:round;stroke-miterlimit:10;stroke-dasharray:none;stroke-opacity:1"
       id="path172" /><g
       id="g178"
       transform="matrix(0.61925994,0,0,0.61925994,8.7956438,108.44898)"><g
         id="g180"
         clip-path="url(#clipPath184)"><path
           d="M 343.11499,35.64 V 285.12"
           style="fill:none;stroke:#b0b0b0;stroke-width:0.8;stroke-linecap:square;stroke-linejoin:round;stroke-miterlimit:10;stroke-dasharray:none;stroke-opacity:1"
           id="path186" /></g></g><path
       d="m 221.27301,130.5194 v -2.16741"
       style="fill:#000000;fill-opacity:1;fill-rule:nonzero;stroke:#000000;stroke-width:0.495408;stroke-linecap:butt;stroke-linejoin:round;stroke-miterlimit:10;stroke-dasharray:none;stroke-opacity:1"
       id="path190" /><g
       id="g196"
       transform="matrix(0.61925994,0,0,0.61925994,8.7956438,108.44898)"><g
         id="g198"
         clip-path="url(#clipPath202)"><path
           d="M 373.58182,35.64 V 285.12"
           style="fill:none;stroke:#b0b0b0;stroke-width:0.8;stroke-linecap:square;stroke-linejoin:round;stroke-miterlimit:10;stroke-dasharray:none;stroke-opacity:1"
           id="path204" /></g></g><path
       d="m 240.1399,130.5194 v -2.16741"
       style="fill:#000000;fill-opacity:1;fill-rule:nonzero;stroke:#000000;stroke-width:0.495408;stroke-linecap:butt;stroke-linejoin:round;stroke-miterlimit:10;stroke-dasharray:none;stroke-opacity:1"
       id="path208" /><g
       id="g218"
       transform="matrix(0.61925994,0,0,0.61925994,8.7956438,108.44898)"><g
         id="g220"
         clip-path="url(#clipPath224)"><path
           d="M 54,101.70398 H 388.8"
           style="fill:none;stroke:#b0b0b0;stroke-width:0.8;stroke-linecap:square;stroke-linejoin:round;stroke-miterlimit:10;stroke-dasharray:none;stroke-opacity:1"
           id="path226" /></g></g><g
       id="g242"
       transform="matrix(0.61925994,0,0,0.61925994,8.7956438,108.44898)"><g
         id="g244"
         clip-path="url(#clipPath248)"><path
           d="M 54,35.840981 H 388.8"
           style="fill:none;stroke:#b0b0b0;stroke-width:0.8;stroke-linecap:square;stroke-linejoin:round;stroke-miterlimit:10;stroke-dasharray:none;stroke-opacity:1"
           id="path250" /></g></g><g
       id="g252"
       transform="matrix(0.61925994,0,0,0.61925994,8.7956438,108.44898)"><path
         d="M 54,35.840981 H 52"
         style="fill:#000000;fill-opacity:1;fill-rule:nonzero;stroke:#000000;stroke-width:0.6;stroke-linecap:butt;stroke-linejoin:round;stroke-miterlimit:10;stroke-dasharray:none;stroke-opacity:1"
         id="path254" /></g><path
       d="M 42.23568,171.43017 H 40.068271"
       style="fill:#000000;fill-opacity:1;fill-rule:nonzero;stroke:#000000;stroke-width:0.495408;stroke-linecap:butt;stroke-linejoin:round;stroke-miterlimit:10;stroke-dasharray:none;stroke-opacity:1"
       id="path230" /><g
       id="g256"
       transform="matrix(0.61925994,0,0,0.61925994,8.7956438,108.44898)"><g
         id="g258"
         clip-path="url(#clipPath262)"><path
           d="M 54,53.165215 H 388.8"
           style="fill:none;stroke:#b0b0b0;stroke-width:0.8;stroke-linecap:square;stroke-linejoin:round;stroke-miterlimit:10;stroke-dasharray:none;stroke-opacity:1"
           id="path264" /></g></g><g
       id="g266"
       transform="matrix(0.61925994,0,0,0.61925994,8.7956438,108.44898)"><path
         d="M 54,53.165215 H 52"
         style="fill:#000000;fill-opacity:1;fill-rule:nonzero;stroke:#000000;stroke-width:0.6;stroke-linecap:butt;stroke-linejoin:round;stroke-miterlimit:10;stroke-dasharray:none;stroke-opacity:1"
         id="path268" /></g><g
       id="g270"
       transform="matrix(0.61925994,0,0,0.61925994,8.7956438,108.44898)"><g
         id="g272"
         clip-path="url(#clipPath276)"><path
           d="M 54,67.812646 H 388.8"
           style="fill:none;stroke:#b0b0b0;stroke-width:0.8;stroke-linecap:square;stroke-linejoin:round;stroke-miterlimit:10;stroke-dasharray:none;stroke-opacity:1"
           id="path278" /></g></g><g
       id="g280"
       transform="matrix(0.61925994,0,0,0.61925994,8.7956438,108.44898)"><path
         d="M 54,67.812646 H 52"
         style="fill:#000000;fill-opacity:1;fill-rule:nonzero;stroke:#000000;stroke-width:0.6;stroke-linecap:butt;stroke-linejoin:round;stroke-miterlimit:10;stroke-dasharray:none;stroke-opacity:1"
         id="path282" /></g><g
       id="g284"
       transform="matrix(0.61925994,0,0,0.61925994,8.7956438,108.44898)"><g
         id="g286"
         clip-path="url(#clipPath290)"><path
           d="M 54,80.500828 H 388.8"
           style="fill:none;stroke:#b0b0b0;stroke-width:0.8;stroke-linecap:square;stroke-linejoin:round;stroke-miterlimit:10;stroke-dasharray:none;stroke-opacity:1"
           id="path292" /></g></g><g
       id="g294"
       transform="matrix(0.61925994,0,0,0.61925994,8.7956438,108.44898)"><path
         d="M 54,80.500828 H 52"
         style="fill:#000000;fill-opacity:1;fill-rule:nonzero;stroke:#000000;stroke-width:0.6;stroke-linecap:butt;stroke-linejoin:round;stroke-miterlimit:10;stroke-dasharray:none;stroke-opacity:1"
         id="path296" /></g><g
       id="g298"
       transform="matrix(0.61925994,0,0,0.61925994,8.7956438,108.44898)"><g
         id="g300"
         clip-path="url(#clipPath304)"><path
           d="M 54,91.692597 H 388.8"
           style="fill:none;stroke:#b0b0b0;stroke-width:0.8;stroke-linecap:square;stroke-linejoin:round;stroke-miterlimit:10;stroke-dasharray:none;stroke-opacity:1"
           id="path306" /></g></g><g
       id="g308"
       transform="matrix(0.61925994,0,0,0.61925994,8.7956438,108.44898)"><path
         d="M 54,91.692597 H 52"
         style="fill:#000000;fill-opacity:1;fill-rule:nonzero;stroke:#000000;stroke-width:0.6;stroke-linecap:butt;stroke-linejoin:round;stroke-miterlimit:10;stroke-dasharray:none;stroke-opacity:1"
         id="path310" /></g><g
       id="g312"
       transform="matrix(0.61925994,0,0,0.61925994,8.7956438,108.44898)"><g
         id="g314"
         clip-path="url(#clipPath318)"><path
           d="M 54,167.56697 H 388.8"
           style="fill:none;stroke:#b0b0b0;stroke-width:0.8;stroke-linecap:square;stroke-linejoin:round;stroke-miterlimit:10;stroke-dasharray:none;stroke-opacity:1"
           id="path320" /></g></g><g
       id="g322"
       transform="matrix(0.61925994,0,0,0.61925994,8.7956438,108.44898)"><path
         d="M 54,167.56697 H 52"
         style="fill:#000000;fill-opacity:1;fill-rule:nonzero;stroke:#000000;stroke-width:0.6;stroke-linecap:butt;stroke-linejoin:round;stroke-miterlimit:10;stroke-dasharray:none;stroke-opacity:1"
         id="path324" /></g><g
       id="g326"
       transform="matrix(0.61925994,0,0,0.61925994,8.7956438,108.44898)"><g
         id="g328"
         clip-path="url(#clipPath332)"><path
           d="M 54,206.09435 H 388.8"
           style="fill:none;stroke:#b0b0b0;stroke-width:0.8;stroke-linecap:square;stroke-linejoin:round;stroke-miterlimit:10;stroke-dasharray:none;stroke-opacity:1"
           id="path334" /></g></g><g
       id="g336"
       transform="matrix(0.61925994,0,0,0.61925994,8.7956438,108.44898)"><path
         d="M 54,206.09435 H 52"
         style="fill:#000000;fill-opacity:1;fill-rule:nonzero;stroke:#000000;stroke-width:0.6;stroke-linecap:butt;stroke-linejoin:round;stroke-miterlimit:10;stroke-dasharray:none;stroke-opacity:1"
         id="path338" /></g><g
       id="g340"
       transform="matrix(0.61925994,0,0,0.61925994,8.7956438,108.44898)"><g
         id="g342"
         clip-path="url(#clipPath346)"><path
           d="M 54,233.42997 H 388.8"
           style="fill:none;stroke:#b0b0b0;stroke-width:0.8;stroke-linecap:square;stroke-linejoin:round;stroke-miterlimit:10;stroke-dasharray:none;stroke-opacity:1"
           id="path348" /></g></g><g
       id="g350"
       transform="matrix(0.61925994,0,0,0.61925994,8.7956438,108.44898)"><path
         d="M 54,233.42997 H 52"
         style="fill:#000000;fill-opacity:1;fill-rule:nonzero;stroke:#000000;stroke-width:0.6;stroke-linecap:butt;stroke-linejoin:round;stroke-miterlimit:10;stroke-dasharray:none;stroke-opacity:1"
         id="path352" /></g><g
       id="g354"
       transform="matrix(0.61925994,0,0,0.61925994,8.7956438,108.44898)"><g
         id="g356"
         clip-path="url(#clipPath360)"><path
           d="M 54,254.63311 H 388.8"
           style="fill:none;stroke:#b0b0b0;stroke-width:0.8;stroke-linecap:square;stroke-linejoin:round;stroke-miterlimit:10;stroke-dasharray:none;stroke-opacity:1"
           id="path362" /></g></g><g
       id="g364"
       transform="matrix(0.61925994,0,0,0.61925994,8.7956438,108.44898)"><path
         d="M 54,254.63311 H 52"
         style="fill:#000000;fill-opacity:1;fill-rule:nonzero;stroke:#000000;stroke-width:0.6;stroke-linecap:butt;stroke-linejoin:round;stroke-miterlimit:10;stroke-dasharray:none;stroke-opacity:1"
         id="path366" /></g><g
       id="g368"
       transform="matrix(0.61925994,0,0,0.61925994,8.7956438,108.44898)"><g
         id="g370"
         clip-path="url(#clipPath374)"><path
           d="M 54,271.95735 H 388.8"
           style="fill:none;stroke:#b0b0b0;stroke-width:0.8;stroke-linecap:square;stroke-linejoin:round;stroke-miterlimit:10;stroke-dasharray:none;stroke-opacity:1"
           id="path376" /></g></g><path
       d="M 42.23568,276.86126 H 40.99716"
       style="fill:#000000;fill-opacity:1;fill-rule:nonzero;stroke:#000000;stroke-width:0.371556;stroke-linecap:butt;stroke-linejoin:round;stroke-miterlimit:10;stroke-dasharray:none;stroke-opacity:1"
       id="path380" /><g
       id="g386"
       transform="matrix(0.61925994,0,0,0.61925994,8.7956438,108.44898)"><g
         id="g388"
         clip-path="url(#clipPath392)"><path
           d="m 69.218182,273.78 0.304668,-55.28764 0.304668,-8.29015 0.304669,-2.61727 0.304668,-1.02969 0.914005,-32.26154 0.304668,-3.81739 0.304669,-6.44979 0.914004,-5.04301 0.304669,-1.66149 0.609336,-1.99719 0.304669,-9.24799 0.304668,-13.3266 0.304668,-1.88343 0.304669,-0.35603 0.304668,-0.63234 0.304668,-0.24658 0.304669,-1.35427 0.304668,-0.71303 0.304668,0.10692 0.304668,-0.64642 0.304669,0.0867 0.304668,-0.4372 0.304668,-0.89798 0.304669,-2.33867 0.304668,-0.1628 0.304668,-0.83606 0.609337,-0.55931 0.304668,-0.79691 0.304668,-0.0468 0.304669,-0.84667 0.609336,-0.0904 0.304669,-1.14354 0.609336,0.18589 0.304669,-0.30969 0.304668,-0.50801 0.304668,0.0324 0.304669,-0.90488 0.304668,0.12687 0.304668,-0.71928 0.304668,-1.09559 0.609337,-1.05193 0.304668,-0.0428 0.914005,-1.46226 0.304669,0.39772 0.304668,-1.16356 0.304668,0.42122 0.304668,-0.84078 0.304669,-0.19904 0.304668,0.0898 0.609337,-1.21405 0.609336,0.47017 0.304669,-0.65405 0.609336,0.14922 0.609337,-1.42539 0.304668,-0.19156 0.304668,-1.20281 0.304669,-0.37848 0.304668,-0.15688 0.304668,-0.40347 0.609337,-0.45287 0.304668,-0.70374 0.304669,-0.12636 0.304668,-0.47289 0.304668,0.0527 0.304668,-0.15449 0.609337,-0.75826 0.304668,-0.002 0.304669,-0.36181 0.304668,-0.0188 0.304668,-0.23313 0.304669,-0.76181 0.304668,-0.0537 0.304668,0.53851 0.304669,-0.31368 0.304668,-0.48946 1.523341,-1.22624 0.304669,0.13706 0.609336,-0.17911 0.304669,-0.78658 0.304669,0.21581 0.30467,-0.66858 0.30467,0.26532 0.30466,-0.16802 0.30467,-0.789526 0.30467,0.548695 0.60934,-0.911276 0.30467,-0.01779 0.30466,0.193487 0.30467,-0.896526 0.30467,0.640435 0.30467,-0.70964 0.30467,-0.158872 0.30466,-0.0046 0.30467,-0.363375 0.30467,0.377811 0.30467,0.08077 0.60934,-1.088252 0.30467,-0.317134 0.30466,0.181682 0.30467,-0.236708 0.30467,0.0046 0.30467,-0.921224 0.30467,0.338478 0.60933,-0.147835 0.30467,-0.264828 0.60934,-0.830199 0.30467,-0.07525 0.30466,-0.499726 0.30467,0.591583 0.30467,-0.368416 0.30467,-0.552711 0.30467,-0.161411 0.30467,0.103293 0.60933,-0.468295 0.30467,0.05812 0.91401,-0.691501 0.30466,0.280354 0.30467,-0.195162 0.30467,-0.472665 0.30467,0.05947 0.30467,-0.147462 0.60933,-1.105989 0.30467,1.033681 0.60934,-1.069605 0.30467,-0.169433 0.30467,0.39928 0.60933,-0.733171 0.30467,0.140049 0.30467,-0.511339 0.30467,-0.254113 0.30467,0.117372 0.60933,-0.205578 0.30467,-0.372671 0.91401,-0.451432 1.828,-0.319533 0.30467,-0.615922 0.30467,0.290954 0.60934,-0.965215 0.30467,0.533346 0.30467,-0.405987 0.30466,0.03706 0.91401,-0.901604 0.60934,0.385576 0.30466,-0.7109 0.30467,0.19694 0.91401,-0.47734 0.30466,0.254896 0.30467,-0.563604 0.91401,-0.284415 0.30467,0.01713 1.21867,-0.70439 0.914,-0.170823 0.30467,-0.740399 0.30467,0.366106 0.30467,-0.177562 0.30467,0.202384 0.30467,-0.118724 0.30466,-0.282586 0.30467,-0.470165 0.30467,0.562774 0.30467,-0.465881 0.30467,-0.192716 0.30467,0.09341 0.30466,-0.522349 0.60934,-0.102875 0.914,0.04116 0.30467,-0.224404 0.30467,-0.406181 0.30467,0.264578 0.30467,-0.593786 0.30467,0.425122 0.30466,-0.445622 0.60934,-0.02453 0.30467,0.260991 0.30467,-0.870071 0.30467,0.0699 0.30466,-0.0937 0.30467,0.06089 0.60934,-0.140863 0.30467,-0.414137 0.60933,-0.210805 0.30467,0.0573 0.30467,-0.213031 0.30467,0.323776 0.30467,-0.05845 0.30467,-0.615511 0.30466,0.126033 0.30467,-0.139563 0.30467,0.227208 0.30467,-0.461584 0.30467,-0.07103 0.30467,-0.483202 0.30466,0.220128 0.30467,-0.0052 0.30467,-0.467686 0.60934,0.106736 0.30467,-0.210461 0.30466,-0.0024 0.30467,0.187914 0.30467,-0.616285 0.30467,0.02857 0.30467,-0.128813 0.30467,0.436045 0.60933,-0.704383 2.13268,-0.719046 0.60934,0.139852 0.30467,-0.03536 0.30466,-0.393278 0.30467,-0.208749 0.60934,-0.04144 0.60933,-0.247908 0.30467,0.141864 0.30467,-0.592303 0.30467,-0.08406 0.30467,0.195213 0.30467,-0.39118 0.30466,0.222299 0.60934,-0.305247 0.30467,-0.128257 0.30467,0.01984 0.30467,-0.480542 0.30466,0.261185 0.30467,-0.467502 0.60934,0.407421 0.30467,-0.547367 0.30467,0.316659 0.30466,-0.622043 0.30467,0.574313 0.30467,-0.777459 0.60934,0.258203 0.60933,-0.205195 0.30467,-0.36744 0.60934,0.191553 0.30467,-0.123326 0.30467,0.01507 0.914,-0.540107 0.30467,0.115919 0.60934,-0.215478 0.60933,-0.0055 0.30467,-0.477342 0.30467,0.222233 0.30467,-0.32752 0.60933,-0.239813 0.30467,0.03169 0.30467,0.227598 0.30467,-0.406863 0.30467,0.393067 0.30467,-0.600677 0.30466,-0.299593 0.60934,0.21452 0.30467,-0.278186 0.30467,0.03868 0.30467,-0.257857 0.60933,0.279975 0.30467,-0.323144 0.30467,0.14304 0.30467,-0.185191 0.30466,0.173563 0.30467,-0.562546 0.30467,-0.02107 0.30467,0.290093 0.60934,-0.480323 0.60933,-0.0088 0.60934,-0.360271 0.30467,0.181584 0.30467,-0.132482 0.30467,2.164769 0.30466,-2.346741 0.60934,-0.139432 0.30467,0.10585 0.30467,-0.01242 0.60933,-0.732425 0.30467,0.22556 0.30467,-0.03373 0.30467,-0.265507 0.30467,0.04957 0.60933,-0.417536 0.30467,0.405909 0.30467,-0.338196 0.60934,0.05382 0.30466,-0.497941 0.30467,0.182135 0.30467,-0.127618 0.30467,0.123487 0.30467,-0.03354 0.30467,-0.525012 0.30466,0.153957 0.30467,-0.181521 0.60934,0.0032 0.30467,-0.384757 0.30467,0.144886 0.30466,0.313263 0.30467,-0.481425 0.30467,0.458187 0.60934,-0.974877 0.30467,0.697277 0.30466,-0.595877 0.30467,-0.03793 0.30467,0.09229 0.30467,-0.249968 0.30467,0.451831 0.60933,-0.498584 0.30467,-0.0077 0.60934,-0.251102 0.914,-0.09775 0.30467,0.275761 0.30467,-0.889134 0.30467,0.397973 0.30467,-0.355802 0.30466,0.246359 0.30467,-0.148964 0.30467,0.08659 0.30467,-0.345155 0.30467,0.280167 0.30467,-0.473463 0.30466,0.249495 0.30467,0.514054 0.30467,-1.038346 0.60934,0.360984 0.30467,-0.271858 0.30466,0.130976 0.30467,-0.221627 1.21868,-0.296386 0.30466,-0.195449 0.30467,0.1171 0.91401,-0.239157 0.30467,0.31258 0.30466,0.118881 0.30467,-0.453334 0.30467,0.07549 0.30467,-0.392566 1.21867,-0.03547 0.30467,-0.446498 0.30467,0.460902 0.30467,1.02561 0.30467,-1.178328 0.30466,0.02172 0.30467,-0.366778 0.30467,0.203392 0.30467,-0.146286 1.21867,-0.141268 0.30467,-0.117971 0.30467,0.173655 0.30467,-0.547447 0.30467,0.361682 0.60933,-0.536641 0.30467,0.249464 0.30467,-0.30483 0.30467,0.0084 0.30466,0.123371 0.30467,-0.179452 0.60934,0.171431 0.30467,-0.43885 0.30467,0.0122 0.60933,-0.319055 0.30467,0.122031 0.30467,0.403167 0.30467,-0.407099 0.30467,0.0292 0.30466,-0.105254 0.30467,0.03236 0.30467,-0.619964 0.30467,0.701294 0.30467,-0.652271 0.30467,0.233463 0.30466,-0.230414 0.30467,0.14474 0.30467,-0.14919 0.30467,-0.280802 0.30467,0.429522 0.30467,-0.470198 0.30466,0.320547 0.30467,-0.459641 0.30467,0.183143 0.60934,-0.358762 0.30467,0.54281 0.30466,-0.358022 0.60934,-0.183874 0.91401,0.149289 0.30466,-0.350165 0.30467,0.103863 0.30467,-0.265405 1.21867,-0.01421 0.30467,-0.224676 0.30467,0.09789 0.30467,-0.389389 0.30467,0.364641 0.30467,-0.177635 0.60933,0.07613 0.60934,-0.450162 0.30467,0.381037 0.30467,-0.46245 0.30466,0.177217 0.30467,-0.268087 0.30467,0.213857 0.60934,-0.25132 0.30466,0.332023 0.30467,-0.5602 0.30467,0.05559 0.30467,-0.07492 0.30467,0.09952 0.30467,-0.167614 0.30466,-0.01981 0.30467,0.129262 0.60934,-0.282902 0.30467,0.168155 0.30467,-0.335503 1.21867,0.04877 0.30467,0.20375 0.30467,-0.208119 0.30466,-0.438642 0.60934,0.332083 0.30467,-0.338144 0.30467,0.07408 0.30467,0.22639 0.30466,-0.256655 0.30467,0.254816 0.30467,-0.437749 0.60934,-0.236151 0.30467,0.515255 0.30466,-0.817428 0.30467,0.924469 0.30467,-0.725175 0.30467,-0.161142 0.30467,0.175011 0.30467,-0.242229 0.30466,-0.05201 0.30467,0.190552 0.60934,0.0065 0.30467,-0.153544 0.30467,0.126394 0.60933,-0.55577 0.91401,0.814119 0.30467,-0.85186 0.60933,0.01249 0.30467,0.347995 0.30467,-0.309211 0.60933,-0.118462 0.30467,-0.267104 0.30467,0.231614 0.30467,0.0879 0.60934,-0.352026 0.30466,0.134816 0.60934,-0.183434 0.30467,-0.16095 0.30467,0.131148 0.30467,-0.308886 0.30466,0.291893 0.30467,-0.33008 0.60934,0.21071 0.30467,-0.354106 0.30467,0.39291 0.30466,0.09328 0.30467,-0.628757 0.30467,0.106417 0.30467,-0.174069 0.30467,0.366693 0.30467,-0.171718 0.30466,0.152668 0.30467,-0.485319 0.30467,0.24273 0.30467,-0.140108 0.30467,0.429115 0.30467,-0.81798 0.30466,0.49041 0.30467,-0.13943 0.91401,-0.06537 0.30467,-0.03341 0.30466,-0.401369 0.30467,-0.02989 0.30467,0.337936 0.30467,0.05498 0.30467,-0.378323 0.30467,-0.05557 0.60933,0.195711 0.30467,-0.280648 0.30467,0.09373 0.30467,-0.321552 0.30467,0.09791 0.30466,0.220329 0.30467,-0.234385 0.30467,0.810735 0.30467,-1.072551 0.30467,0.25983 0.30467,-0.305968 0.30466,-0.04506 0.30467,0.111042 0.30467,0.63602 0.30467,-0.747752 0.60934,-0.265605 0.30466,0.722109 0.30467,-0.76391 0.30467,0.619165 0.30467,-0.431366 0.30467,-0.03208 0.60933,-0.526929 0.30467,0.475119 0.30467,-0.04847 0.30467,0.269115 0.30467,-0.204156 0.30466,-0.389606 0.30467,0.214686 0.30467,-0.213333 0.30467,0.389781 0.30467,-0.530269 0.30467,-0.01873 0.30466,0.500241 0.60934,-0.628798 0.30467,-0.04665 0.30467,0.941497 0.30467,-0.829611 0.30466,-0.152637 0.30467,0.05995 0.30467,0.18293 0.30467,-0.264542 0.30467,0.489687 0.60933,-0.609224 0.30467,0.16733 0.30467,0.318294 0.30467,-0.296973 0.30467,-0.07642 0.30467,-0.274931 0.30466,-0.06928 0.30467,0.987575 0.30467,-1.064113 0.30467,0.159249 0.30467,-0.180157 0.30467,3.5933 0.30466,-3.327598 0.30467,-0.482889 0.60934,0.375668 1.82801,-0.611275 0.30467,0.133166 0.30467,-0.102246 0.30466,0.130329 0.30467,-0.0891 0.30467,1.058985 0.30467,-1.124433 0.60933,-0.239343 0.91401,-0.0069 1.52334,-0.102193 0.30467,0.151969 0.30467,-0.246059 0.30467,0.21959 0.30466,-0.05105 0.30467,0.08116 0.60934,-0.643576 0.30467,0.278775 0.30467,-0.167418 1.52334,0.05212 0.30467,-0.235241 0.60933,0.175478 0.30467,-0.311941 0.30467,0.334832 0.30467,-0.219057 0.30467,0.08717 0.30466,0.209641 0.30467,-0.394822 0.60934,0.07955 0.30467,-0.214504 0.60933,0.278939 0.30467,-0.245894 0.30467,0.06773 0.60934,-0.320367 0.30467,0.221837 0.30466,-0.332269 0.30467,-0.124647 0.30467,0.349131 0.30467,-0.198288 0.30467,0.380345 0.30467,-0.411927 0.30466,-0.159948 0.30467,0.671238 0.30467,-0.808538 0.30467,0.947154 0.30467,-0.739338 0.30467,-0.116955 0.30466,0.04876 0.30467,-0.237813 0.30467,0.1544 0.60934,-0.110148 0.30466,0.316597 0.30467,-0.36992 0.30467,0.462328 0.30467,-0.524132 0.30467,0.284739 0.914,-0.405426 0.60934,0.202224 0.30467,-0.09039 0.30467,0.758156 0.30466,-1.073962 0.30467,0.377116 0.30467,-0.561087 0.60934,0.248355 0.30467,2.390423 0.30466,-2.587565 0.60934,0.06367 0.30467,-0.09544 0.30467,0.728704 0.30467,-0.833733 0.60933,0.04485 0.30467,0.390094 0.30467,-0.581147 0.30467,0.110521 0.30467,0.299171 0.30466,-0.456809 0.30467,0.0704 0.30467,0.263643 0.30467,-0.412607 0.30467,-0.125305 0.30467,0.707262 0.30466,-0.617095 0.91401,0.539662 0.30467,-0.702158 0.30467,0.0071 0.30466,0.150732 0.30467,-0.111998 0.30467,0.0362 0.30467,0.275235 0.30467,-0.511118 0.60933,0.239913 0.30467,-0.274022 0.30467,0.984391 0.30467,-0.953999 0.30467,0.121903 0.30467,-0.176519 0.30466,0.248736 0.60934,0.187152 0.30467,-0.45972 0.60933,-0.27025 0.91401,0.117609 0.30467,-0.02114 0.30467,0.365088 0.30467,-0.535613 0.30466,0.203699 0.30467,1.49671 0.30467,-1.705389 0.30467,0.03807 0.30467,0.497358 0.30466,-0.752946 0.30467,0.437432 0.30467,-0.283761 0.30467,0.14347 0.30467,-0.295503 0.30467,0.35598 0.30467,-0.08412 0.30466,-0.37694 0.30467,0.05212 0.30467,0.258225 0.60934,-0.385986 0.30466,0.703331 0.30467,0.397825 0.30467,-0.935444 0.30467,0.14329 0.60934,-0.400798 0.30466,0.220628 0.30467,-0.281686 0.30467,0.306878 0.30467,-0.239402 0.30467,0.28069 0.60933,-0.39612 0.30467,-0.09063 0.30467,0.466265 0.30467,-0.458224 0.60934,0.02975 0.30466,0.494142 0.30467,-0.700526 0.30467,-0.123747 0.30467,0.273283 0.30467,0.07863 0.30467,-0.155876 0.30466,0.02829 0.30467,-0.13853 0.30467,0.03307 0.30467,0.281228 0.60934,-0.643661 0.60933,0.647213 0.60934,-0.454149 0.30467,0.174792 0.30466,-0.31261 0.30467,0.273445 0.30467,-0.03718 0.30467,0.281324 0.30467,-0.467513 0.60933,-0.215945 0.30467,0.14419 0.30467,1.210563 0.30467,-1.178963 0.60934,-0.08448 0.30466,-0.04251 0.30467,0.365796 0.30467,-0.451325 0.60934,0.141713 0.30467,-0.191395 0.30466,0.110573 0.91401,-0.191836 0.30467,0.529816 0.30467,-0.231458 0.30466,-0.457864 0.30467,0.744794 0.30467,-0.146779 0.30467,-0.272795 0.30467,-0.07466 0.30467,-0.206752 0.60933,-0.05528 0.30467,0.07664 0.30467,-0.258057 0.30467,0.182477 0.60933,-0.273823 0.30467,0.62686 0.30467,-0.439395 0.30467,-0.03542 0.30467,0.415341 0.30467,-0.478261 0.60933,0.107706 0.30467,-0.289972 0.30467,0.01482 0.30467,0.17559 0.30467,-0.139061 0.30466,0.215995 0.30467,8.576297 0.30467,-7.317562 0.30467,-0.837033 0.30467,-0.396543 0.30467,0.644871 0.30466,-0.89454 0.30467,1.013406 0.30467,-1.072444 0.60934,0.121901 0.60933,-0.317144 0.30467,0.08861 0.30467,-0.0369 0.30467,0.122423 0.30467,-0.172006 0.60933,-0.133908 0.30467,0.299959 0.30467,-0.224229 0.30467,0.645808 0.30467,-0.851502 1.21867,0.178893 0.30467,-0.07655 0.30467,-0.203584 0.30466,0.277016 0.30467,-0.161227 0.30467,0.02836 0.30467,-0.09067 0.30467,1.050978 0.30467,-0.989498 0.30466,-0.223087 0.30467,-0.01171 0.30467,0.321406 0.30467,-0.286567 0.60934,0.221172 0.30466,-0.268378 0.91401,0.04322 0.30467,0.494382 0.30467,-0.587026 0.60933,-0.08854 0.30467,0.238224 0.30467,-0.326372 0.30467,0.190009 0.30467,1.007466 0.30466,-1.049772 0.30467,0.66837 0.30467,-0.863612 0.30467,0.09403 0.30467,-0.142093 0.60933,0.131866 0.30467,-0.194446 0.30467,0.03468 0.30467,0.504406 0.30467,-0.574224 0.60933,0.158173 0.60934,0.552623 0.30467,-0.528 0.30467,0.177951 0.30466,-0.329372 0.30467,-0.125611 0.30467,0.893302 0.30467,-0.968669 0.30467,-0.01586 0.30467,0.220413 0.60933,-0.362635 0.91401,0.174133 0.30467,-0.22062 0.60933,0.539709 0.30467,-0.309426 0.30467,0.394498 0.30467,-0.629039 v 0"
           style="fill:none;stroke:#1f77b4;stroke-width:1.5;stroke-linecap:square;stroke-linejoin:round;stroke-miterlimit:10;stroke-dasharray:none;stroke-opacity:1"
           id="path394" /></g></g><g
       id="g396"
       transform="matrix(0.61925994,0,0,0.61925994,8.7956438,108.44898)"><g
         id="g398"
         clip-path="url(#clipPath402)"><path
           d="m 69.218182,241.33981 0.304668,-21.38591 0.304668,-8.1264 0.304669,-1.63012 0.304668,-0.69343 0.304668,-3.68634 0.609337,-25.21174 0.304668,-7.90155 0.304669,-1.64185 0.304668,-7.44964 0.304668,8.14954 0.304668,-8.66704 0.304669,-0.30263 0.304668,11.0822 0.304668,-7.986 0.304669,-16.92392 0.304668,13.33001 0.304668,1.60498 0.304669,-12.47011 0.304668,-3.70694 0.304668,-0.85907 0.304669,9.66969 0.304668,-5.79454 0.304668,9.45012 0.304668,-6.45271 0.304669,-0.2739 0.304668,0.11562 0.304668,12.10355 0.304669,-14.30009 0.304668,2.0738 0.304668,-8.84142 0.304669,18.51801 0.304668,-9.25734 0.304668,-2.97117 0.304668,-6.92101 0.304669,-1.94564 0.304668,-2.90191 0.304668,18.5847 0.304669,-3.30593 0.304668,-5.22536 0.304668,6.307 0.304669,-10.34167 0.304668,-1.99564 0.304668,9.94609 0.304669,-9.57068 0.304668,-2.17851 0.304668,6.28047 0.304668,-8.47034 0.304669,11.99303 0.304668,-15.43812 0.304668,19.90922 0.304669,-18.31314 0.304668,9.42705 0.304668,-8.32893 0.304669,8.22067 0.609336,-4.63571 0.304668,-9.45214 0.304669,7.52164 0.304668,3.48088 0.304668,-1.77615 0.304669,2.30032 0.304668,-1.7511 0.304668,12.38727 0.304669,-18.87751 0.304668,11.39255 0.609337,-10.34666 0.304668,9.298 0.304668,-8.35039 0.304668,0.0674 0.304669,10.42683 0.304668,-15.94159 0.304668,17.92521 0.304669,-13.17682 0.304668,3.88621 0.304668,10.36317 0.304669,-13.14644 0.304668,-1.85652 0.304668,-0.98763 0.304668,20.40034 0.304669,-3.33003 0.609336,-17.62953 0.304669,0.47655 0.304668,15.16958 0.304668,-18.96552 0.304669,1.3052 0.304668,3.62007 0.304668,9.90433 0.304669,-3.50282 0.304668,-7.23373 0.304668,3.24112 0.304668,-3.57959 0.304669,0.30518 0.304668,-4.64506 0.304668,4.12915 0.304669,-0.46599 0.609336,1.69964 0.304669,-0.84354 0.304669,10.19747 0.30467,-12.41906 0.30467,18.94539 0.30466,-8.48255 0.30467,-12.16486 0.30467,1.4923 0.30467,-3.61052 0.30467,6.11714 0.30467,-9.89148 0.30466,28.18184 0.30467,-21.54573 0.30467,8.34739 0.30467,14.70859 0.30467,-5.93796 0.30466,-9.27308 0.30467,5.01264 0.30467,-3.1267 0.30467,2.94098 0.30467,8.09087 0.30467,-3.1276 0.30467,-8.16832 0.30466,1.18918 0.30467,-7.03683 0.30467,14.05593 0.30467,-14.36234 0.30467,19.35757 0.30467,-15.57969 0.30466,8.35295 0.30467,-10.3505 0.30467,8.81049 0.30467,-13.31625 0.30467,-0.91253 0.30466,13.04667 0.30467,-15.01184 0.30467,9.27368 0.30467,-3.8988 0.30467,5.23086 0.30467,-4.26323 0.30466,7.49531 0.30467,-3.74067 0.30467,3.60331 0.60934,-14.14805 0.30467,10.82681 0.30466,-16.92599 0.30467,10.08718 0.30467,-0.63487 0.30467,4.45871 0.30467,1.09541 0.30467,-1.13471 0.30466,0.0785 0.30467,-1.50897 0.30467,-12.2399 0.30467,15.72765 0.30467,1.39314 0.30467,-3.99492 0.30466,8.83643 0.30467,-13.09272 0.30467,-2.6973 0.30467,13.16509 0.60934,-15.25458 0.30466,19.27367 0.30467,5.55867 0.30467,3.25765 0.30467,-22.79174 0.30467,-5.19787 0.30467,16.90085 0.30466,-6.69922 0.30467,-1.61877 0.30467,-4.27675 0.60934,17.33247 0.30466,-7.65194 0.30467,39.37745 0.30467,-39.00367 0.30467,-4.01113 0.30467,7.79216 0.30467,-6.0717 0.30467,11.39719 0.30466,-17.49222 0.30467,1.41778 0.30467,-7.70249 0.30467,2.30008 0.30467,3.86485 0.30467,12.07029 0.60933,-2.67777 0.30467,-4.35806 0.30467,10.427 0.30467,-6.33006 0.30466,2.04607 0.60934,-15.16913 0.30467,20.08437 0.30467,-13.67262 0.30467,2.54305 0.30466,-10.56771 0.30467,2.69128 0.30467,16.78655 0.30467,-25.43916 0.30467,11.18293 0.30467,5.83362 0.30466,1.66984 0.30467,-1.24769 0.30467,0.63925 0.30467,-3.01085 0.30467,1.28169 0.30467,-0.20103 0.30466,8.66597 0.30467,-16.08799 0.30467,11.25601 0.30467,-8.31551 0.30467,-3.16493 0.30467,1.10439 0.30466,7.69993 0.30467,-7.9268 0.30467,6.54571 0.30467,2.46971 0.30467,-5.36963 0.30466,-0.15051 0.30467,-10.46809 0.30467,-0.51793 0.30467,12.85081 0.30467,7.65489 0.30467,-18.388 0.30466,21.83155 0.30467,-10.84178 0.30467,9.19739 0.30467,-8.71347 0.30467,10.40277 0.30467,-15.93464 0.30466,11.06993 0.30467,3.95574 0.30467,-18.5968 0.30467,13.10298 0.30467,-9.43757 0.30467,25.04545 0.30466,-30.20603 0.30467,1.90827 0.30467,-2.76478 0.60934,38.19546 0.30467,-21.5238 0.30466,-5.18049 0.30467,-3.17384 0.30467,26.48872 0.30467,-31.13063 0.30467,13.97238 0.30467,-4.31053 0.60933,2.62045 0.30467,4.52839 0.30467,-16.51523 0.30467,2.46665 0.30467,-2.86935 0.30466,4.01068 0.30467,-4.49457 0.30467,21.64205 0.30467,-28.93069 0.30467,15.82062 0.30467,7.61967 0.30466,-7.33334 0.30467,5.30012 0.30467,13.84621 0.30467,-33.53882 0.60934,6.50234 0.30466,13.49451 0.60934,-11.43608 0.30467,1.95334 0.30467,20.48096 0.30467,-17.48903 0.30466,16.32148 0.30467,-14.05913 0.30467,-2.6407 0.30467,8.28086 0.30467,-8.17525 0.30466,-13.2648 0.30467,9.75356 0.30467,0.56681 0.30467,-3.2643 0.30467,14.16711 0.30467,-8.14118 0.30466,-18.70548 0.30467,15.49973 0.30467,6.66972 0.30467,3.51066 0.30467,-9.70049 0.30467,-5.77226 0.30466,12.92058 0.30467,-9.43883 0.30467,6.38656 0.30467,0.0283 0.60934,-4.35387 0.30466,-4.41276 0.30467,-2.39532 0.30467,11.92089 0.30467,-9.78075 0.30467,7.86481 0.30467,-8.8357 0.30466,-5.42016 0.30467,22.18763 0.30467,-17.82212 0.30467,9.35108 0.30467,-11.3104 0.30467,9.69869 0.30466,-6.01277 0.30467,16.66508 0.30467,-2.40046 0.30467,-6.88281 0.30467,-2.10182 0.30467,-12.02945 0.60933,15.11981 0.30467,2.70238 0.60934,-15.35737 0.30467,6.93183 0.30466,-2.31341 0.30467,12.35866 0.30467,-10.64654 0.30467,1.07614 0.30467,8.73169 0.30467,-1.33146 0.30466,-16.63894 0.30467,14.07372 0.30467,-13.07073 0.30467,12.3655 0.60934,-14.77399 0.30466,12.8761 0.30467,-2.67898 0.60934,-1.65875 0.30467,8.71758 0.30466,-13.89293 0.30467,7.85818 0.30467,4.22166 0.30467,19.67945 0.30467,-22.36349 0.30467,-8.27042 0.30466,5.75712 0.30467,-1.97824 0.30467,3.98389 0.30467,-7.69384 0.60934,10.97671 0.30467,-5.4793 0.30466,-0.67818 0.30467,4.50276 0.30467,-4.52009 0.30467,10.05891 0.30467,-10.32985 0.30466,5.09434 0.30467,-8.4997 0.60934,4.58331 0.30467,8.17144 0.30467,-14.16077 0.30466,6.0142 0.30467,16.20002 0.30467,-19.95161 0.60934,28.91303 0.30467,-20.8185 0.30466,12.20789 0.30467,-15.0367 0.30467,-3.48342 0.30467,11.09273 0.30467,-2.1996 0.30467,-0.17713 0.30466,-9.89671 0.30467,23.36053 0.30467,-18.4888 0.30467,1.13024 0.30467,4.27329 0.30467,-10.26505 0.30466,19.39504 0.30467,-1.38898 0.60934,-17.83473 0.30467,5.92608 0.30467,-8.3604 0.30466,11.95938 0.30467,-1.98016 0.30467,-8.56163 0.30467,5.96664 0.30467,20.13004 0.30467,-15.14167 0.30466,-7.93281 0.30467,-0.33336 0.30467,-7.70058 0.30467,20.70517 0.30467,-7.32013 0.914,-1.75192 0.30467,-6.76118 0.30467,8.54672 0.30467,28.0948 0.30466,-28.10897 0.30467,-4.03722 0.30467,-1.70442 0.30467,6.4511 0.30467,2.08221 0.30467,-11.61883 0.30466,6.10836 0.30467,-12.58112 0.30467,12.73208 0.60934,12.79472 0.30467,-10.63922 0.30466,17.25171 0.30467,-20.7422 0.30467,9.80611 0.30467,-11.88479 0.60934,14.89456 0.30466,-15.50324 0.30467,-0.40232 0.30467,9.24981 0.60934,-9.32025 0.30467,4.0911 0.30466,8.44035 0.30467,-17.35163 0.30467,1.60257 0.30467,41.89114 0.30467,-33.68492 0.30467,7.21447 0.30466,10.33758 0.30467,-12.79287 0.30467,-1.7692 0.30467,25.10182 0.30467,-36.72496 0.30467,6.23562 0.30466,-4.68075 0.91401,20.46763 0.30467,-20.663 0.30467,25.45416 0.30466,-21.22411 0.30467,11.14926 0.30467,-5.9839 0.30467,1.9956 0.30467,20.69832 0.30467,-30.67875 0.30466,12.8007 0.30467,2.8911 0.60934,-17.44535 0.30467,3.22257 0.30466,-4.96209 0.30467,15.94052 0.30467,4.46744 0.60934,-18.25439 0.30467,12.18228 0.30466,-7.32026 0.30467,29.68938 0.30467,-32.77032 0.30467,6.49131 0.30467,21.30247 0.30467,-20.2389 0.30466,-5.47258 0.30467,2.08488 0.30467,3.65225 0.30467,-6.56663 0.30467,12.65412 0.60933,-9.13427 0.30467,-1.25003 0.30467,3.64913 0.30467,7.83416 0.30467,-12.05712 0.30467,2.02962 0.30466,-1.29127 0.30467,-4.98779 0.30467,3.33625 0.30467,1.39421 0.30467,6.34449 0.60933,-13.41104 0.30467,11.8615 0.30467,1.36789 0.30467,2.2605 0.60934,-5.18429 0.60933,18.01367 0.30467,-19.70563 0.30467,6.88428 0.30467,-6.98498 0.30467,-1.63969 0.30466,-0.25169 0.30467,1.21691 0.30467,-1.12591 0.30467,4.29604 0.30467,1.85604 0.30467,4.23154 0.30466,-7.8296 0.30467,-0.0163 0.30467,21.55015 0.30467,0.0234 0.30467,-6.00286 0.60933,-18.5137 0.30467,3.13549 0.30467,20.0162 0.30467,6.19639 0.30467,-21.64055 0.30466,-3.23082 0.30467,-1.72226 0.30467,-0.82668 0.30467,-1.34364 0.60934,3.01611 0.30466,-0.75008 0.30467,4.71746 0.30467,-11.57415 0.30467,4.76788 0.30467,11.55967 0.30467,-21.2071 0.30467,8.02312 0.30466,3.6016 0.60934,-4.39594 0.30467,11.00967 0.30467,-4.21855 0.30466,1.10796 0.30467,-2.09398 0.30467,5.11583 0.30467,-6.05058 0.30467,3.4227 0.30467,-2.1231 0.30466,-0.25988 0.30467,1.13183 0.30467,-0.73076 0.30467,-5.89763 0.30467,14.22242 0.30467,-5.41625 0.30466,-15.86289 0.30467,11.07071 0.60934,12.92232 0.30467,-6.1907 0.30467,-9.96317 0.30466,16.99948 0.30467,-12.17209 0.30467,-3.81154 0.30467,2.82956 0.30467,-1.60193 0.30467,-2.93416 0.60933,14.79977 0.30467,-8.82316 0.30467,10.52427 0.30467,-17.00903 0.30467,9.8745 0.30466,-0.42264 0.60934,-1.78328 0.30467,-10.23773 0.30467,19.71651 0.30466,-14.59385 0.30467,-1.45514 0.30467,17.53477 0.30467,1.1234 0.30467,-11.98853 0.30467,15.99942 0.30466,-12.29326 0.30467,8.26786 0.30467,-13.12612 0.30467,-3.24715 0.30467,3.67767 0.30467,-5.20139 0.60933,6.42901 0.30467,-5.14591 0.30467,10.94403 0.30467,-5.26242 0.30467,19.3622 0.30466,-18.11513 0.30467,-5.73605 0.30467,5.22535 0.30467,-5.24614 0.30467,4.40937 0.30467,12.67398 0.30466,-6.35558 0.30467,2.21102 0.30467,-10.50013 0.60934,8.18283 0.30467,12.314 0.30466,-23.08412 0.30467,12.15944 0.30467,-7.98732 0.30467,-15.57208 0.30467,24.61353 0.30467,-17.92986 0.30466,5.99061 0.30467,17.81388 0.30467,-15.4652 0.30467,0.17254 0.30467,-0.53962 0.30467,-0.88969 0.30466,8.12888 0.30467,-14.72932 0.30467,3.2314 0.30467,11.52068 0.30467,-7.66234 0.30467,7.73042 0.30466,-11.32679 0.30467,-0.65477 0.30467,0.4006 0.30467,3.73107 0.60934,-14.72152 0.30466,21.27281 0.30467,-2.48346 0.30467,6.25399 0.30467,-0.92595 0.30467,-6.13347 0.60933,-6.74305 0.30467,13.66885 0.30467,-12.06856 0.30467,6.43998 0.30467,-3.07159 0.30466,2.21939 0.30467,-0.71541 0.30467,-1.29194 0.30467,3.06882 0.30467,11.45806 0.60933,-14.46011 0.30467,-7.99855 0.30467,20.43946 0.30467,-11.85803 0.30467,-2.10809 0.60933,0.88711 0.30467,1.10695 0.30467,4.42287 0.30467,-4.19821 0.30467,2.07156 0.30467,-2.12431 0.30466,6.66013 0.30467,0.70243 0.30467,-7.08605 0.30467,-2.7696 0.30467,14.03755 0.30467,-8.32154 0.30466,0.85013 0.30467,21.60539 0.30467,-31.97915 0.30467,5.23133 0.60934,-7.73879 0.30466,5.02339 0.30467,0.48821 0.30467,5.81676 0.30467,-5.70152 0.30467,0.86769 0.30467,-4.02326 0.30466,7.9872 0.30467,3.23036 0.30467,-4.85731 0.30467,-2.02179 0.30467,4.2993 0.30467,-1.04192 0.30466,-4.63142 0.30467,-0.65113 0.30467,1.10777 0.30467,3.3702 0.30467,-9.07271 0.60933,13.17046 0.30467,-13.61945 0.30467,23.46534 0.30467,-15.36406 0.30467,-7.31693 0.30466,8.95271 0.30467,-2.46588 0.30467,2.60745 0.60934,-1.00289 0.30467,-1.1841 0.30467,0.51541 0.30466,3.5633 0.30467,1.73326 0.30467,-4.3641 0.30467,5.75613 0.30467,-6.77654 0.30466,11.17032 0.30467,-14.90739 0.30467,7.16196 0.30467,-2.59022 0.30467,-10.04381 0.30467,16.69078 0.30466,-9.25509 0.30467,1.19884 0.30467,1.65978 0.30467,-10.27859 0.30467,7.09382 0.30467,0.92828 0.30467,6.12719 0.30466,-5.8111 0.60934,2.50894 0.60934,10.85505 0.30466,-1.68112 0.30467,-8.81784 0.30467,-1.83315 0.30467,-0.25548 0.30467,-8.77673 0.30467,11.00844 0.30466,1.22357 0.30467,-6.04809 0.30467,1.77884 0.30467,4.52901 0.30467,-7.49373 0.30467,3.82879 0.30466,-0.31732 0.30467,-4.34805 0.30467,1.32078 0.30467,4.27095 0.60934,2.45709 0.30466,-12.21525 0.30467,-2.2099 0.30467,13.1471 0.30467,5.51913 0.30467,-10.37628 0.30467,10.4583 0.30466,-11.1473 0.30467,-6.70101 0.30467,16.2248 0.30467,-2.83091 0.30467,-0.37042 0.30466,4.45595 0.30467,12.9702 0.30467,-15.79709 0.30467,-7.43872 0.30467,2.53482 0.30467,13.0224 0.30466,-10.29502 0.30467,-4.07379 0.30467,6.37247 0.30467,-3.80105 0.30467,4.84917 0.30467,-6.23228 0.30466,12.25376 0.30467,-14.19724 0.30467,0.22354 0.30467,14.9286 0.30467,-10.31717 0.30467,-2.46167 0.30466,9.29226 0.60934,-13.07364 0.30467,12.67893 0.30467,-2.59894 0.30467,-1.42883 0.30467,-11.63652 0.30466,12.48646 0.30467,-4.60956 0.30467,-0.521 0.30467,3.97588 0.30467,-7.19016 0.30466,2.05119 0.30467,-1.62221 0.30467,0.0218 0.30467,11.47491 0.30467,-9.40196 0.30467,4.53881 0.60933,-1.57512 0.30467,-5.48544 0.30467,5.51288 0.30467,1.74725 0.30467,-5.27829 0.30466,-1.26896 0.30467,8.51299 0.30467,0.30826 0.30467,6.04532 0.30467,-14.62656 0.30467,0.71602 0.30466,2.8532 0.30467,5.57867 0.30467,1.37226 0.30467,-3.29465 0.60934,-0.50767 0.30466,-1.59585 0.30467,2.88697 0.30467,-14.48969 0.30467,14.92762 0.30467,-4.66581 0.30466,4.20032 0.30467,-2.84082 0.30467,0.6943 0.30467,5.28958 0.30467,-0.67568 0.30467,-6.27308 0.30467,-3.81984 0.30466,7.69187 0.30467,-9.99009 0.60934,6.28773 0.30467,-7.24731 0.30466,6.24386 0.30467,9.56721 0.60934,-7.88705 0.30467,6.55574 0.30467,3.76155 0.30467,13.27334 0.30466,-25.31953 0.30467,6.06302 0.60934,-13.17789 0.30467,5.57219 0.30466,0.20133 0.30467,2.47125 0.60934,12.08245 0.30467,-7.27757 0.30467,-2.35613 0.30466,6.07461 0.60934,-9.90724 0.30467,5.63404 0.30467,-4.16072 0.30467,-2.45076 0.30466,13.29449 0.30467,-8.17373 0.30467,2.48861 0.30467,1.24101 0.60934,-8.02137 0.30466,16.33099 0.60934,-11.14885 0.30467,2.9127 0.30467,5.49704 0.30467,-18.03197 0.30466,11.45072 0.30467,-0.13065 0.60934,-5.04257 0.30467,-7.95051 0.30467,3.28871 0.30466,8.69042 0.60934,-3.1506 0.30467,-1.04731 0.30467,-3.85839 0.60933,6.82734 0.30467,-3.1724 0.30467,5.20257 0.30467,-0.90495 0.30467,-1.5078 0.30466,-4.88516 0.30467,1.8988 0.30467,18.54761 0.30467,-24.5017 0.30467,12.78509 0.30467,2.4057 0.30466,-4.09092 0.30467,3.12015 0.30467,-4.63909 0.30467,4.49831 0.30467,-0.42907 0.30467,13.64709 0.30466,-11.31552 0.30467,-4.65455 0.30467,-11.14507 0.30467,18.32004 0.30467,-9.2541 0.30467,1.30477 0.30466,-2.96688 0.30467,3.21464 0.30467,-6.1299 0.30467,10.9967 0.30467,-6.86509 0.30467,3.63811 0.30466,-12.51339 0.30467,11.5486 0.30467,-13.69054 0.30467,13.45963 0.30467,-5.35511 0.30467,6.51839 0.30466,-9.19124 0.30467,5.48667 0.30467,-2.10251 0.30467,-4.0595 0.30467,11.30255 0.30467,19.3798 0.30466,-23.84659 0.60934,-11.83297 0.30467,6.12448 0.30467,10.98245 0.30467,-5.37815 0.30466,5.27728 0.30467,-9.97467 0.60934,12.08832 0.30467,-5.04874 0.30467,7.13762 0.60933,-15.66923 0.30467,3.43877 0.30467,-0.68707 0.30467,-3.30052 0.30466,1.75925 0.30467,-0.66047 0.30467,1.42416 0.30467,8.75298 0.30467,5.55051 0.60933,-19.16116 0.30467,10.63527 0.30467,-8.82911 0.30467,11.38523 0.30467,-4.26548 0.30467,2.05804 0.30466,-0.0528 0.30467,-0.22891 0.30467,-1.72023 0.30467,-3.93093 0.30467,2.24676 0.30467,-4.2805 0.60933,10.92674 0.30467,-11.69338 0.30467,1.70719 0.30467,19.09576 0.30467,-21.00905 0.30466,10.51304 0.30467,-7.26816 0.30467,-1.71308 0.60934,5.86463 0.30467,12.93479 0.30466,-15.82338 0.30467,2.40349 0.30467,-0.15237 0.30467,6.75654 0.30467,-1.66964 0.30467,-12.0814 0.30466,2.22626 0.30467,5.4455 0.30467,-7.5072 0.30467,10.68186 0.30467,-9.34909 0.30467,9.71146 0.30466,-11.64462 0.30467,3.96789 0.30467,0.67085 0.30467,6.1068 0.30467,-3.46259 0.30467,11.64063 0.30466,-16.43393 0.30467,8.31888 0.60934,5.57629 0.30467,-10.37532 0.30466,2.36501 0.30467,-2.04336 0.30467,23.49003 0.30467,-21.24854 0.30467,6.04425 0.30467,-5.8406 0.30466,0.0896 0.30467,12.05997 0.30467,-16.11252 0.30467,8.84333 0.30467,-0.96355 0.30467,-6.89033 0.30466,1.3121 0.30467,-7.06466 0.30467,4.06167 0.30467,-0.47552 0.30467,4.24167 0.30467,1.24298 0.30466,3.6884 0.60934,-11.68148 0.30467,10.80241 0.30467,-10.61694 v 0"
           style="fill:none;stroke:#ff7f0e;stroke-width:1.5;stroke-linecap:square;stroke-linejoin:round;stroke-miterlimit:10;stroke-dasharray:none;stroke-opacity:1"
           id="path404" /></g></g><path
       d="M 42.23568,130.5194 V 285.01237"
       style="fill:none;stroke:#000000;stroke-width:0.495408;stroke-linecap:square;stroke-linejoin:miter;stroke-miterlimit:10;stroke-dasharray:none;stroke-opacity:1"
       id="path408" /><path
       d="M 249.56391,130.5194 V 285.01237"
       style="fill:none;stroke:#000000;stroke-width:0.495408;stroke-linecap:square;stroke-linejoin:miter;stroke-miterlimit:10;stroke-dasharray:none;stroke-opacity:1"
       id="path410" /><path
       d="M 42.23568,130.5194 H 249.56391"
       style="fill:none;stroke:#000000;stroke-width:0.495408;stroke-linecap:square;stroke-linejoin:miter;stroke-miterlimit:10;stroke-dasharray:none;stroke-opacity:1"
       id="path412" /><path
       d="M 42.23568,285.01237 H 249.56391"
       style="fill:none;stroke:#000000;stroke-width:0.495408;stroke-linecap:square;stroke-linejoin:miter;stroke-miterlimit:10;stroke-dasharray:none;stroke-opacity:1"
       id="path414" /><path
       d="m 178.66737,248.85739 h 58.67975 c 0.96295,0 1.44442,0.41284 1.44442,1.23852 v 17.55215 c 0,0.82568 -0.48147,1.23852 -1.44442,1.23852 h -58.67975 c -0.96295,0 -1.44444,-0.41284 -1.44444,-1.23852 v -17.55215 c 0,-0.82568 0.48149,-1.23852 1.44444,-1.23852 z"
       style="fill:#ffffff;fill-opacity:0.8;fill-rule:nonzero;stroke:#cccccc;stroke-width:0.668758;stroke-linecap:butt;stroke-linejoin:miter;stroke-miterlimit:10;stroke-dasharray:none;stroke-opacity:0.8"
       id="path420" /><path
       d="m 179.69998,263.87444 h 12.3852"
       style="fill:none;stroke:#1f77b4;stroke-width:0.92889;stroke-linecap:square;stroke-linejoin:round;stroke-miterlimit:10;stroke-dasharray:none;stroke-opacity:1"
       id="path422" /><path
       d="m 179.69998,254.78873 h 12.3852"
       style="fill:none;stroke:#ff7f0e;stroke-width:0.92889;stroke-linecap:square;stroke-linejoin:round;stroke-miterlimit:10;stroke-dasharray:none;stroke-opacity:1"
       id="path428" /></g><g
     inkscape:groupmode="layer"
     id="layer1"
     inkscape:label="text"
     transform="translate(-30.80192,-51.306676)"
     style="display:inline"><text
       transform="matrix(1.3333333,0,0,1.3333333,0,432)"
       style="font-variant:normal;font-weight:normal;font-size:6.1926px;font-family:'DejaVu Sans';-inkscape-font-specification:DejaVuSans;writing-mode:lr-tb;fill:#000000;fill-opacity:1;fill-rule:nonzero;stroke:none;stroke-width:0.61926"
       id="text32"
       x="49.501968"
       y="-121.48209"><tspan
         x="49.501968"
         y="-121.48209"
         id="tspan30"
         style="stroke-width:0.61926">0</tspan></text><text
       transform="matrix(1.3333333,0,0,1.3333333,0,432)"
       style="font-variant:normal;font-weight:normal;font-size:6.1926px;font-family:'DejaVu Sans';-inkscape-font-specification:DejaVuSans;writing-mode:lr-tb;fill:#000000;fill-opacity:1;fill-rule:nonzero;stroke:none;stroke-width:0.61926"
       id="text50"
       x="64.430748"
       y="-121.48209"><tspan
         x="64.430748 68.36924 72.307739"
         y="-121.48209"
         sodipodi:role="line"
         id="tspan48"
         style="stroke-width:0.61926">100</tspan></text><text
       transform="matrix(1.3333333,0,0,1.3333333,0,432)"
       style="font-variant:normal;font-weight:normal;font-size:6.1926px;font-family:'DejaVu Sans';-inkscape-font-specification:DejaVuSans;writing-mode:lr-tb;fill:#000000;fill-opacity:1;fill-rule:nonzero;stroke:none;stroke-width:0.61926"
       id="text68"
       x="83.297638"
       y="-121.48209"><tspan
         x="83.297638 87.23613 91.174622"
         y="-121.48209"
         sodipodi:role="line"
         id="tspan66"
         style="stroke-width:0.61926">200</tspan></text><text
       transform="matrix(1.3333333,0,0,1.3333333,0,432)"
       style="font-variant:normal;font-weight:normal;font-size:6.1926px;font-family:'DejaVu Sans';-inkscape-font-specification:DejaVuSans;writing-mode:lr-tb;fill:#000000;fill-opacity:1;fill-rule:nonzero;stroke:none;stroke-width:0.61926"
       id="text86"
       x="102.16452"
       y="-121.48209"><tspan
         x="102.16452 106.10301 110.04151"
         y="-121.48209"
         sodipodi:role="line"
         id="tspan84"
         style="stroke-width:0.61926">300</tspan></text><text
       transform="matrix(1.3333333,0,0,1.3333333,0,432)"
       style="font-variant:normal;font-weight:normal;font-size:6.1926px;font-family:'DejaVu Sans';-inkscape-font-specification:DejaVuSans;writing-mode:lr-tb;fill:#000000;fill-opacity:1;fill-rule:nonzero;stroke:none;stroke-width:0.61926"
       id="text104"
       x="121.03141"
       y="-121.48209"><tspan
         x="121.03141 124.96991 128.9084"
         y="-121.48209"
         sodipodi:role="line"
         id="tspan102"
         style="stroke-width:0.61926">400</tspan></text><text
       transform="matrix(1.3333333,0,0,1.3333333,0,432)"
       style="font-variant:normal;font-weight:normal;font-size:6.1926px;font-family:'DejaVu Sans';-inkscape-font-specification:DejaVuSans;writing-mode:lr-tb;fill:#000000;fill-opacity:1;fill-rule:nonzero;stroke:none;stroke-width:0.61926"
       id="text122"
       x="139.8983"
       y="-121.48209"><tspan
         x="139.8983 143.83679 147.7753"
         y="-121.48209"
         sodipodi:role="line"
         id="tspan120"
         style="stroke-width:0.61926">500</tspan></text><text
       transform="matrix(1.3333333,0,0,1.3333333,0,432)"
       style="font-variant:normal;font-weight:normal;font-size:6.1926px;font-family:'DejaVu Sans';-inkscape-font-specification:DejaVuSans;writing-mode:lr-tb;fill:#000000;fill-opacity:1;fill-rule:nonzero;stroke:none;stroke-width:0.61926"
       id="text140"
       x="158.76518"
       y="-121.48209"><tspan
         x="158.76518 162.70369 166.64217"
         y="-121.48209"
         sodipodi:role="line"
         id="tspan138"
         style="stroke-width:0.61926">600</tspan></text><text
       transform="matrix(1.3333333,0,0,1.3333333,0,432)"
       style="font-variant:normal;font-weight:normal;font-size:6.1926px;font-family:'DejaVu Sans';-inkscape-font-specification:DejaVuSans;writing-mode:lr-tb;fill:#000000;fill-opacity:1;fill-rule:nonzero;stroke:none;stroke-width:0.61926"
       id="text158"
       x="177.63208"
       y="-121.48209"><tspan
         x="177.63208 181.57057 185.50906"
         y="-121.48209"
         sodipodi:role="line"
         id="tspan156"
         style="stroke-width:0.61926">700</tspan></text><text
       transform="matrix(1.3333333,0,0,1.3333333,0,432)"
       style="font-variant:normal;font-weight:normal;font-size:6.1926px;font-family:'DejaVu Sans';-inkscape-font-specification:DejaVuSans;writing-mode:lr-tb;fill:#000000;fill-opacity:1;fill-rule:nonzero;stroke:none;stroke-width:0.61926"
       id="text176"
       x="196.49898"
       y="-121.48209"><tspan
         x="196.49898 200.43745 204.37596"
         y="-121.48209"
         sodipodi:role="line"
         id="tspan174"
         style="stroke-width:0.61926">800</tspan></text><text
       transform="matrix(1.3333333,0,0,1.3333333,0,432)"
       style="font-variant:normal;font-weight:normal;font-size:6.1926px;font-family:'DejaVu Sans';-inkscape-font-specification:DejaVuSans;writing-mode:lr-tb;fill:#000000;fill-opacity:1;fill-rule:nonzero;stroke:none;stroke-width:0.61926"
       id="text194"
       x="215.36584"
       y="-121.48209"><tspan
         x="215.36584 219.30435 223.24284"
         y="-121.48209"
         sodipodi:role="line"
         id="tspan192"
         style="stroke-width:0.61926">900</tspan></text><text
       transform="matrix(1.3333333,0,0,1.3333333,0,432)"
       style="font-variant:normal;font-weight:normal;font-size:6.1926px;font-family:'DejaVu Sans';-inkscape-font-specification:DejaVuSans;writing-mode:lr-tb;fill:#000000;fill-opacity:1;fill-rule:nonzero;stroke:none;stroke-width:0.61926"
       id="text212"
       x="232.26369"
       y="-121.48209"><tspan
         x="232.26369 236.20219 240.14069 244.07918"
         y="-121.48209"
         sodipodi:role="line"
         id="tspan210"
         style="stroke-width:0.61926">1000</tspan></text><text
       transform="matrix(1.3333333,0,0,1.3333333,0,432)"
       style="font-variant:normal;font-weight:normal;font-size:6.1926px;font-family:'DejaVu Sans';-inkscape-font-specification:DejaVuSans;writing-mode:lr-tb;fill:#000000;fill-opacity:1;fill-rule:nonzero;stroke:none;stroke-width:0.61926"
       id="text216"
       x="136.46574"
       y="-113.01564"><tspan
         x="136.46574 140.2742 144.2065 147.99637 151.4023"
         y="-113.01564"
         sodipodi:role="line"
         id="tspan214"
         style="stroke-width:0.61926">epoch</tspan></text><g
       id="g232"
       transform="matrix(0.8256799,0,0,-0.8256799,35.672242,206.69691)"><text
         transform="matrix(1,0,0,-1,0,0.0640625)"
         style="font-variant:normal;font-weight:normal;font-size:10px;font-family:'DejaVu Sans';-inkscape-font-specification:DejaVuSans;writing-mode:lr-tb;fill:#000000;fill-opacity:1;fill-rule:nonzero;stroke:none"
         id="text236"><tspan
           x="0 6.3623047"
           y="0"
           sodipodi:role="line"
           id="tspan234">10</tspan></text><text
         transform="matrix(1,0,0,-1,12.820313,3.8921875)"
         style="font-variant:normal;font-weight:normal;font-size:7px;font-family:'DejaVu Sans';-inkscape-font-specification:DejaVuSans;writing-mode:lr-tb;fill:#000000;fill-opacity:1;fill-rule:nonzero;stroke:none"
         id="text240"><tspan
           x="0"
           y="0"
           id="tspan238">5</tspan></text></g><text
       transform="matrix(0,-1.3333333,1.3333333,0,0,432)"
       style="font-variant:normal;font-weight:normal;font-size:6.1926px;font-family:'DejaVu Sans';-inkscape-font-specification:DejaVuSans;writing-mode:lr-tb;fill:#000000;fill-opacity:1;fill-rule:nonzero;stroke:none;stroke-width:0.61926"
       id="text384"
       x="198.78369"
       y="35.97419"><tspan
         x="198.78369 200.50523 204.2951 207.52145"
         y="35.97419"
         sodipodi:role="line"
         id="tspan382"
         style="stroke-width:0.61926">loss (MSE)</tspan></text><text
       xml:space="preserve"
       style="font-style:normal;font-weight:normal;font-size:9.0825px;line-height:1.25;font-family:sans-serif;letter-spacing:0px;word-spacing:0px;fill:#000000;fill-opacity:1;stroke:none;stroke-width:0.61926"
       x="26.048"
       y="247.1087"
       id="text1304"><tspan
         sodipodi:role="line"
         id="tspan1302"
         x="26.048"
         y="247.1087"
         style="stroke-width:0.61926">6x$10^4$</tspan></text><text
       style="font-variant:normal;font-weight:normal;font-size:8.2568px;font-family:'DejaVu Sans';-inkscape-font-specification:DejaVuSans;writing-mode:lr-tb;fill:#000000;fill-opacity:1;fill-rule:nonzero;stroke:none;stroke-width:0.82568"
       id="text426"
       x="262.71899"
       y="83.057152"><tspan
         x="262.71899 265.95566 269.34921 274.41061 276.70602"
         y="83.057152"
         sodipodi:role="line"
         id="tspan424"
         style="stroke-width:0.82568">train</tspan></text><text
       style="font-variant:normal;font-weight:normal;font-size:8.2568px;font-family:'DejaVu Sans';-inkscape-font-specification:DejaVuSans;writing-mode:lr-tb;fill:#000000;fill-opacity:1;fill-rule:nonzero;stroke:none;stroke-width:0.82568"
       id="text432"
       x="262.71899"
       y="95.171448"><tspan
         x="262.71899 267.60703 272.66846 274.96384 277.25925 282.50232 287.56375 290.80038 293.09579 298.14896"
         y="95.171448"
         sodipodi:role="line"
         id="tspan430"
         style="stroke-width:0.82568">validation</tspan></text></g></svg>
