<?xml version="1.0" encoding="UTF-8" standalone="no"?>
<svg
   xmlns:dc="http://purl.org/dc/elements/1.1/"
   xmlns:cc="http://creativecommons.org/ns#"
   xmlns:rdf="http://www.w3.org/1999/02/22-rdf-syntax-ns#"
   xmlns:svg="http://www.w3.org/2000/svg"
   xmlns="http://www.w3.org/2000/svg"
   xmlns:sodipodi="http://sodipodi.sourceforge.net/DTD/sodipodi-0.dtd"
   xmlns:inkscape="http://www.inkscape.org/namespaces/inkscape"
   version="1.1"
   id="svg2"
   xml:space="preserve"
   width="80mm"
   height="65.300003mm"
   viewBox="0 0 302.36219 246.80316"
   sodipodi:docname="pearson_chr05.svg"
   inkscape:version="1.0.2 (1.0.2+r75+1)"><metadata
     id="metadata8"><rdf:RDF><cc:Work
         rdf:about=""><dc:format>image/svg+xml</dc:format><dc:type
           rdf:resource="http://purl.org/dc/dcmitype/StillImage" /><dc:title></dc:title></cc:Work></rdf:RDF></metadata><defs
     id="defs6"><clipPath
       clipPathUnits="userSpaceOnUse"
       id="clipPath22"><path
         d="M 57.6,38.016 H 414.72 V 304.128 H 57.6 Z"
         id="path20" /></clipPath><clipPath
       clipPathUnits="userSpaceOnUse"
       id="clipPath40"><path
         d="M 57.6,38.016 H 414.72 V 304.128 H 57.6 Z"
         id="path38" /></clipPath><clipPath
       clipPathUnits="userSpaceOnUse"
       id="clipPath58"><path
         d="M 57.6,38.016 H 414.72 V 304.128 H 57.6 Z"
         id="path56" /></clipPath><clipPath
       clipPathUnits="userSpaceOnUse"
       id="clipPath76"><path
         d="M 57.6,38.016 H 414.72 V 304.128 H 57.6 Z"
         id="path74" /></clipPath><clipPath
       clipPathUnits="userSpaceOnUse"
       id="clipPath94"><path
         d="M 57.6,38.016 H 414.72 V 304.128 H 57.6 Z"
         id="path92" /></clipPath><clipPath
       clipPathUnits="userSpaceOnUse"
       id="clipPath112"><path
         d="M 57.6,38.016 H 414.72 V 304.128 H 57.6 Z"
         id="path110" /></clipPath><clipPath
       clipPathUnits="userSpaceOnUse"
       id="clipPath130"><path
         d="M 57.6,38.016 H 414.72 V 304.128 H 57.6 Z"
         id="path128" /></clipPath><clipPath
       clipPathUnits="userSpaceOnUse"
       id="clipPath148"><path
         d="M 57.6,38.016 H 414.72 V 304.128 H 57.6 Z"
         id="path146" /></clipPath><clipPath
       clipPathUnits="userSpaceOnUse"
       id="clipPath170"><path
         d="M 57.6,38.016 H 414.72 V 304.128 H 57.6 Z"
         id="path168" /></clipPath><clipPath
       clipPathUnits="userSpaceOnUse"
       id="clipPath188"><path
         d="M 57.6,38.016 H 414.72 V 304.128 H 57.6 Z"
         id="path186" /></clipPath><clipPath
       clipPathUnits="userSpaceOnUse"
       id="clipPath206"><path
         d="M 57.6,38.016 H 414.72 V 304.128 H 57.6 Z"
         id="path204" /></clipPath><clipPath
       clipPathUnits="userSpaceOnUse"
       id="clipPath224"><path
         d="M 57.6,38.016 H 414.72 V 304.128 H 57.6 Z"
         id="path222" /></clipPath><clipPath
       clipPathUnits="userSpaceOnUse"
       id="clipPath242"><path
         d="M 57.6,38.016 H 414.72 V 304.128 H 57.6 Z"
         id="path240" /></clipPath><clipPath
       clipPathUnits="userSpaceOnUse"
       id="clipPath260"><path
         d="M 57.6,38.016 H 414.72 V 304.128 H 57.6 Z"
         id="path258" /></clipPath><clipPath
       clipPathUnits="userSpaceOnUse"
       id="clipPath282"><path
         d="M 57.6,38.016 H 414.72 V 304.128 H 57.6 Z"
         id="path280" /></clipPath><clipPath
       clipPathUnits="userSpaceOnUse"
       id="clipPath292"><path
         d="M 57.6,38.016 H 414.72 V 304.128 H 57.6 Z"
         id="path290" /></clipPath><clipPath
       clipPathUnits="userSpaceOnUse"
       id="clipPath302"><path
         d="M 57.6,38.016 H 414.72 V 304.128 H 57.6 Z"
         id="path300" /></clipPath><clipPath
       clipPathUnits="userSpaceOnUse"
       id="clipPath312"><path
         d="M 57.6,38.016 H 414.72 V 304.128 H 57.6 Z"
         id="path310" /></clipPath><clipPath
       clipPathUnits="userSpaceOnUse"
       id="clipPath322"><path
         d="M 57.6,38.016 H 414.72 V 304.128 H 57.6 Z"
         id="path320" /></clipPath></defs><sodipodi:namedview
     pagecolor="#ffffff"
     bordercolor="#666666"
     borderopacity="1"
     objecttolerance="10"
     gridtolerance="10"
     guidetolerance="10"
     inkscape:pageopacity="0"
     inkscape:pageshadow="2"
     inkscape:window-width="1920"
     inkscape:window-height="1020"
     id="namedview4"
     showgrid="false"
     fit-margin-top="0"
     fit-margin-left="0"
     fit-margin-right="0"
     fit-margin-bottom="0"
     units="mm"
     inkscape:zoom="29.756945"
     inkscape:cx="194.1674"
     inkscape:cy="242.90719"
     inkscape:window-x="0"
     inkscape:window-y="0"
     inkscape:window-maximized="1"
     inkscape:current-layer="layer1" /><g
     id="g10"
     inkscape:groupmode="layer"
     inkscape:label="pearson_chr05"
     transform="matrix(1.3333333,0,0,-1.3333333,-28.023958,443.59358)"><path
       d="m 53.541253,172.64858 h 11.50643"
       style="fill:none;stroke:#d62728;stroke-width:0.862982;stroke-linecap:square;stroke-linejoin:round;stroke-miterlimit:10;stroke-dasharray:none;stroke-opacity:1"
       id="path368" /><g
       id="g16"
       transform="matrix(0.57532126,0,0,0.57532126,8.9258847,141.94391)"><g
         id="g18"
         clip-path="url(#clipPath22)"><path
           d="M 57.6,38.016 V 304.128"
           style="fill:none;stroke:#b0b0b0;stroke-width:0.8;stroke-linecap:square;stroke-linejoin:round;stroke-miterlimit:10;stroke-dasharray:none;stroke-opacity:1"
           id="path24" /></g></g><path
       d="M 42.064389,163.81532 V 161.8017"
       style="fill:#000000;fill-opacity:1;fill-rule:nonzero;stroke:#000000;stroke-width:0.460257;stroke-linecap:butt;stroke-linejoin:round;stroke-miterlimit:10;stroke-dasharray:none;stroke-opacity:1"
       id="path28" /><g
       id="g34"
       transform="matrix(0.57532126,0,0,0.57532126,8.9258847,141.94391)"><g
         id="g36"
         clip-path="url(#clipPath40)"><path
           d="M 102.80506,38.016 V 304.128"
           style="fill:none;stroke:#b0b0b0;stroke-width:0.8;stroke-linecap:square;stroke-linejoin:round;stroke-miterlimit:10;stroke-dasharray:none;stroke-opacity:1"
           id="path42" /></g></g><path
       d="M 68.071821,163.81532 V 161.8017"
       style="fill:#000000;fill-opacity:1;fill-rule:nonzero;stroke:#000000;stroke-width:0.460257;stroke-linecap:butt;stroke-linejoin:round;stroke-miterlimit:10;stroke-dasharray:none;stroke-opacity:1"
       id="path46" /><g
       id="g52"
       transform="matrix(0.57532126,0,0,0.57532126,8.9258847,141.94391)"><g
         id="g54"
         clip-path="url(#clipPath58)"><path
           d="M 148.01013,38.016 V 304.128"
           style="fill:none;stroke:#b0b0b0;stroke-width:0.8;stroke-linecap:square;stroke-linejoin:round;stroke-miterlimit:10;stroke-dasharray:none;stroke-opacity:1"
           id="path60" /></g></g><path
       d="M 94.079259,163.81532 V 161.8017"
       style="fill:#000000;fill-opacity:1;fill-rule:nonzero;stroke:#000000;stroke-width:0.460257;stroke-linecap:butt;stroke-linejoin:round;stroke-miterlimit:10;stroke-dasharray:none;stroke-opacity:1"
       id="path64" /><g
       id="g70"
       transform="matrix(0.57532126,0,0,0.57532126,8.9258847,141.94391)"><g
         id="g72"
         clip-path="url(#clipPath76)"><path
           d="M 193.21519,38.016 V 304.128"
           style="fill:none;stroke:#b0b0b0;stroke-width:0.8;stroke-linecap:square;stroke-linejoin:round;stroke-miterlimit:10;stroke-dasharray:none;stroke-opacity:1"
           id="path78" /></g></g><path
       d="M 120.08669,163.81532 V 161.8017"
       style="fill:#000000;fill-opacity:1;fill-rule:nonzero;stroke:#000000;stroke-width:0.460257;stroke-linecap:butt;stroke-linejoin:round;stroke-miterlimit:10;stroke-dasharray:none;stroke-opacity:1"
       id="path82" /><g
       id="g88"
       transform="matrix(0.57532126,0,0,0.57532126,8.9258847,141.94391)"><g
         id="g90"
         clip-path="url(#clipPath94)"><path
           d="M 238.42025,38.016 V 304.128"
           style="fill:none;stroke:#b0b0b0;stroke-width:0.8;stroke-linecap:square;stroke-linejoin:round;stroke-miterlimit:10;stroke-dasharray:none;stroke-opacity:1"
           id="path96" /></g></g><path
       d="M 146.09412,163.81532 V 161.8017"
       style="fill:#000000;fill-opacity:1;fill-rule:nonzero;stroke:#000000;stroke-width:0.460257;stroke-linecap:butt;stroke-linejoin:round;stroke-miterlimit:10;stroke-dasharray:none;stroke-opacity:1"
       id="path100" /><g
       id="g106"
       transform="matrix(0.57532126,0,0,0.57532126,8.9258847,141.94391)"><g
         id="g108"
         clip-path="url(#clipPath112)"><path
           d="M 283.62532,38.016 V 304.128"
           style="fill:none;stroke:#b0b0b0;stroke-width:0.8;stroke-linecap:square;stroke-linejoin:round;stroke-miterlimit:10;stroke-dasharray:none;stroke-opacity:1"
           id="path114" /></g></g><path
       d="M 172.10156,163.81532 V 161.8017"
       style="fill:#000000;fill-opacity:1;fill-rule:nonzero;stroke:#000000;stroke-width:0.460257;stroke-linecap:butt;stroke-linejoin:round;stroke-miterlimit:10;stroke-dasharray:none;stroke-opacity:1"
       id="path118" /><g
       id="g124"
       transform="matrix(0.57532126,0,0,0.57532126,8.9258847,141.94391)"><g
         id="g126"
         clip-path="url(#clipPath130)"><path
           d="M 328.83038,38.016 V 304.128"
           style="fill:none;stroke:#b0b0b0;stroke-width:0.8;stroke-linecap:square;stroke-linejoin:round;stroke-miterlimit:10;stroke-dasharray:none;stroke-opacity:1"
           id="path132" /></g></g><path
       d="M 198.109,163.81532 V 161.8017"
       style="fill:#000000;fill-opacity:1;fill-rule:nonzero;stroke:#000000;stroke-width:0.460257;stroke-linecap:butt;stroke-linejoin:round;stroke-miterlimit:10;stroke-dasharray:none;stroke-opacity:1"
       id="path136" /><g
       id="g142"
       transform="matrix(0.57532126,0,0,0.57532126,8.9258847,141.94391)"><g
         id="g144"
         clip-path="url(#clipPath148)"><path
           d="M 374.03544,38.016 V 304.128"
           style="fill:none;stroke:#b0b0b0;stroke-width:0.8;stroke-linecap:square;stroke-linejoin:round;stroke-miterlimit:10;stroke-dasharray:none;stroke-opacity:1"
           id="path150" /></g></g><path
       d="M 224.11642,163.81532 V 161.8017"
       style="fill:#000000;fill-opacity:1;fill-rule:nonzero;stroke:#000000;stroke-width:0.460257;stroke-linecap:butt;stroke-linejoin:round;stroke-miterlimit:10;stroke-dasharray:none;stroke-opacity:1"
       id="path154" /><g
       id="g164"
       transform="matrix(0.57532126,0,0,0.57532126,8.9258847,141.94391)"><g
         id="g166"
         clip-path="url(#clipPath170)"><path
           d="M 57.6,38.016 H 414.72"
           style="fill:none;stroke:#b0b0b0;stroke-width:0.8;stroke-linecap:square;stroke-linejoin:round;stroke-miterlimit:10;stroke-dasharray:none;stroke-opacity:1"
           id="path172" /></g></g><path
       d="M 42.064389,163.81532 H 40.050765"
       style="fill:#000000;fill-opacity:1;fill-rule:nonzero;stroke:#000000;stroke-width:0.460257;stroke-linecap:butt;stroke-linejoin:round;stroke-miterlimit:10;stroke-dasharray:none;stroke-opacity:1"
       id="path176" /><g
       id="g182"
       transform="matrix(0.57532126,0,0,0.57532126,8.9258847,141.94391)"><g
         id="g184"
         clip-path="url(#clipPath188)"><path
           d="M 57.6,91.2384 H 414.72"
           style="fill:none;stroke:#b0b0b0;stroke-width:0.8;stroke-linecap:square;stroke-linejoin:round;stroke-miterlimit:10;stroke-dasharray:none;stroke-opacity:1"
           id="path190" /></g></g><path
       d="M 42.064389,194.4353 H 40.050765"
       style="fill:#000000;fill-opacity:1;fill-rule:nonzero;stroke:#000000;stroke-width:0.460257;stroke-linecap:butt;stroke-linejoin:round;stroke-miterlimit:10;stroke-dasharray:none;stroke-opacity:1"
       id="path194" /><g
       id="g200"
       transform="matrix(0.57532126,0,0,0.57532126,8.9258847,141.94391)"><g
         id="g202"
         clip-path="url(#clipPath206)"><path
           d="M 57.6,144.4608 H 414.72"
           style="fill:none;stroke:#b0b0b0;stroke-width:0.8;stroke-linecap:square;stroke-linejoin:round;stroke-miterlimit:10;stroke-dasharray:none;stroke-opacity:1"
           id="path208" /></g></g><path
       d="M 42.064389,225.05528 H 40.050765"
       style="fill:#000000;fill-opacity:1;fill-rule:nonzero;stroke:#000000;stroke-width:0.460257;stroke-linecap:butt;stroke-linejoin:round;stroke-miterlimit:10;stroke-dasharray:none;stroke-opacity:1"
       id="path212" /><g
       id="g218"
       transform="matrix(0.57532126,0,0,0.57532126,8.9258847,141.94391)"><g
         id="g220"
         clip-path="url(#clipPath224)"><path
           d="M 57.6,197.6832 H 414.72"
           style="fill:none;stroke:#b0b0b0;stroke-width:0.8;stroke-linecap:square;stroke-linejoin:round;stroke-miterlimit:10;stroke-dasharray:none;stroke-opacity:1"
           id="path226" /></g></g><path
       d="M 42.064389,255.67525 H 40.050765"
       style="fill:#000000;fill-opacity:1;fill-rule:nonzero;stroke:#000000;stroke-width:0.460257;stroke-linecap:butt;stroke-linejoin:round;stroke-miterlimit:10;stroke-dasharray:none;stroke-opacity:1"
       id="path230" /><g
       id="g236"
       transform="matrix(0.57532126,0,0,0.57532126,8.9258847,141.94391)"><g
         id="g238"
         clip-path="url(#clipPath242)"><path
           d="M 57.6,250.9056 H 414.72"
           style="fill:none;stroke:#b0b0b0;stroke-width:0.8;stroke-linecap:square;stroke-linejoin:round;stroke-miterlimit:10;stroke-dasharray:none;stroke-opacity:1"
           id="path244" /></g></g><path
       d="M 42.064389,286.29524 H 40.050765"
       style="fill:#000000;fill-opacity:1;fill-rule:nonzero;stroke:#000000;stroke-width:0.460257;stroke-linecap:butt;stroke-linejoin:round;stroke-miterlimit:10;stroke-dasharray:none;stroke-opacity:1"
       id="path248" /><g
       id="g254"
       transform="matrix(0.57532126,0,0,0.57532126,8.9258847,141.94391)"><g
         id="g256"
         clip-path="url(#clipPath260)"><path
           d="M 57.6,304.128 H 414.72"
           style="fill:none;stroke:#b0b0b0;stroke-width:0.8;stroke-linecap:square;stroke-linejoin:round;stroke-miterlimit:10;stroke-dasharray:none;stroke-opacity:1"
           id="path262" /></g></g><path
       d="M 42.064389,316.91521 H 40.050765"
       style="fill:#000000;fill-opacity:1;fill-rule:nonzero;stroke:#000000;stroke-width:0.460257;stroke-linecap:butt;stroke-linejoin:round;stroke-miterlimit:10;stroke-dasharray:none;stroke-opacity:1"
       id="path266" /><g
       id="g276"
       transform="matrix(0.57532126,0,0,0.57532126,8.9258847,141.94391)"><g
         id="g278"
         clip-path="url(#clipPath282)"><path
           d="m 57.6,256.21477 4.520506,6.37173 4.520507,-9.15966 4.520506,-10.32683 4.520506,-8.74838 4.520507,-6.60867 4.520506,-3.78399 4.520506,-4.83752 4.520507,-4.90382 4.520506,2.20868 4.520503,-1.68178 4.52051,-5.26636 4.52051,-1.45261 4.5205,-4.75338 4.52051,-4.49967 4.52051,-4.07809 4.5205,-1.30618 4.52051,-1.18639 4.5205,0.4402 4.52051,-0.44897 4.52051,-2.05978 4.5205,-2.32701 4.52051,-2.73648 4.52051,0.64022 4.5205,-1.59678 4.52051,-1.6294 4.5205,-4.68628 4.52051,1.86188 4.52051,-5.10019 4.5205,-0.9169 4.52051,-0.91472 4.52051,-0.8523 4.5205,0.13127 4.52051,-2.7067 4.5205,-2.48108 4.52051,0.58485 4.52051,-2.69859 4.5205,4.11371 4.52051,-1.58406 4.52051,-1.30197 4.5205,-3.59812 4.52051,-0.30459 4.52051,4.26011 4.5205,-3.91969 4.52051,-1.86628 4.5205,0.81441 4.52051,-0.74998 4.52051,-1.88982 4.5205,2.5275 4.52051,-2.99714 4.52051,-1.55896 4.5205,2.17555 4.52051,1.26639 4.5205,-1.67251 4.52051,0.36022 4.52051,-0.0555 4.5205,-2.37314 4.52051,-1.48926 4.52051,0.6026 4.5205,1.0603 4.52051,1.25665 4.52051,-3.29924 4.5205,1.8805 4.52051,1.38819 4.5205,0.55394 4.52051,-1.27174 4.52051,-1.21585 4.5205,1.35109 4.52051,1.15344 4.52051,-3.02358 4.5205,0.54285 4.52051,4.86163 4.52051,-4.27491 4.5205,-0.69497 4.52051,-1.29506 4.5205,-5.42335 4.52051,2.05959 4.52051,-0.29825 4.5205,-11.01777 4.52051,0.25409"
           style="fill:none;stroke:#1f77b4;stroke-width:1.5;stroke-linecap:square;stroke-linejoin:round;stroke-miterlimit:10;stroke-dasharray:none;stroke-opacity:1"
           id="path284" /></g></g><g
       id="g286"
       transform="matrix(0.57532126,0,0,0.57532126,8.9258847,141.94391)"><g
         id="g288"
         clip-path="url(#clipPath292)"><path
           d="m 57.6,257.2562 4.520506,6.07526 4.520507,-9.38535 4.520506,-10.07488 4.520506,-8.04396 4.520507,-5.98449 4.520506,-3.92823 4.520506,-5.32572 4.520507,-5.69833 4.520506,0.59489 4.520503,-2.25746 4.52051,-5.51995 4.52051,-1.29341 4.5205,-4.23379 4.52051,-4.53236 4.52051,-4.53231 4.5205,-1.52161 4.52051,-1.93156 4.5205,-0.42678 4.52051,-0.70386 4.52051,-2.46783 4.5205,-2.3088 4.52051,-3.00498 4.52051,-0.0108 4.5205,-1.76535 4.52051,-1.57551 4.5205,-5.27903 4.52051,1.72158 4.52051,-4.87642 4.5205,-1.22211 4.52051,-0.82677 4.52051,-1.90385 4.5205,-0.61898 4.52051,-2.1482 4.5205,-3.24542 4.52051,0.31663 4.52051,-2.70945 4.5205,3.81303 4.52051,-1.41556 4.52051,-1.29353 4.5205,-3.26432 4.52051,-0.35152 4.52051,4.51081 4.5205,-3.20364 4.52051,-2.44579 4.5205,2.21652 4.52051,-1.96901 4.52051,-1.86173 4.5205,4.32087 4.52051,-4.908 4.52051,-2.37624 4.5205,3.15597 4.52051,1.31046 4.5205,-0.30196 4.52051,0.34508 4.52051,1.34517 4.5205,-1.55672 4.52051,-2.56372 4.52051,0.28285 4.5205,1.926 4.52051,0.0617 4.52051,-2.17659 4.5205,0.19987 4.52051,2.77886 4.5205,0.42229 4.52051,-0.0247 4.52051,-2.19993 4.5205,0.53037 4.52051,0.59208 4.52051,-2.13025 4.5205,0.68951 4.52051,2.65761 4.52051,-2.54494 4.5205,0.0655 4.52051,-1.9997 4.5205,-6.1174 4.52051,4.52019 4.52051,-4.50871 4.5205,-0.76014 4.52051,-2.13488"
           style="fill:none;stroke:#ff7f0e;stroke-width:1.5;stroke-linecap:square;stroke-linejoin:round;stroke-miterlimit:10;stroke-dasharray:none;stroke-opacity:1"
           id="path294" /></g></g><g
       id="g296"
       transform="matrix(0.57532126,0,0,0.57532126,8.9258847,141.94391)"><g
         id="g298"
         clip-path="url(#clipPath302)"><path
           d="m 57.6,260.81508 4.520506,5.6463 4.520507,-9.61031 4.520506,-9.89665 4.520506,-7.38726 4.520507,-5.92776 4.520506,-4.65813 4.520506,-5.90867 4.520507,-5.87114 4.520506,0.41959 4.520503,-2.45683 4.52051,-5.87197 4.52051,-0.94021 4.5205,-3.47189 4.52051,-4.2071 4.52051,-5.01683 4.5205,-1.12991 4.52051,-1.83594 4.5205,-0.52629 4.52051,-0.74481 4.52051,-2.42478 4.5205,-2.17058 4.52051,-2.96128 4.52051,-0.17811 4.5205,-2.42221 4.52051,-1.54905 4.5205,-5.62028 4.52051,2.38391 4.52051,-4.5146 4.5205,-1.45305 4.52051,-0.73294 4.52051,-1.60396 4.5205,-0.52411 4.52051,-2.02116 4.5205,-2.94554 4.52051,-0.7003 4.52051,-2.79749 4.5205,3.05095 4.52051,-1.8577 4.52051,-1.01266 4.5205,-3.84155 4.52051,-0.0483 4.52051,3.92242 4.5205,-3.05837 4.52051,-1.81584 4.5205,1.8977 4.52051,-1.18171 4.52051,-1.87087 4.5205,3.55525 4.52051,-4.67726 4.52051,-1.5737 4.5205,3.0768 4.52051,0.64696 4.5205,-0.107 4.52051,0.18809 4.52051,1.8916 4.5205,-1.9359 4.52051,-1.36484 4.52051,-0.65847 4.5205,3.03549 4.52051,-0.87232 4.52051,-2.73448 4.5205,0.80669 4.52051,2.97017 4.5205,0.35444 4.52051,-0.94499 4.52051,-0.97811 4.5205,0.92063 4.52051,0.36333 4.52051,-2.46876 4.5205,2.14554 4.52051,2.62254 4.52051,-2.80374 4.5205,0.30949 4.52051,-2.64624 4.5205,-4.13194 4.52051,1.81664 4.52051,-2.5834 4.5205,-3.31773 4.52051,0.57787"
           style="fill:none;stroke:#2ca02c;stroke-width:1.5;stroke-linecap:square;stroke-linejoin:round;stroke-miterlimit:10;stroke-dasharray:none;stroke-opacity:1"
           id="path304" /></g></g><path
       d="m 42.064389,292.65376 2.600744,2.80373 2.600743,-5.41474 2.600743,-5.46728 2.600744,-4.09621 2.600743,-2.97698 2.600744,-2.00326 2.600742,-3.21412 2.600745,-3.2495 2.600742,0.68757 2.600742,-1.07831 2.600746,-2.92141 2.600745,-0.73243 2.60074,-2.31088 2.600745,-2.88767 2.600746,-2.59969 2.60074,-0.7495 2.600745,-0.82604 2.60074,-0.17922 2.600745,-0.50222 2.600746,-1.27144 2.600739,-1.26556 2.600746,-1.20389 2.600746,0.53467 2.60074,-1.08825 2.60074,-0.94217 2.60074,-2.74426 2.60075,1.52126 2.60074,-2.99111 2.60075,-0.23139 2.60074,-0.41464 2.60074,-0.60982 2.60075,-0.27122 2.60074,-1.25963 2.60074,-1.53607 2.60075,-0.24993 2.60074,-1.26259 2.60074,1.76219 2.60075,-1.25814 2.60074,-0.72997 2.60074,-2.48052 2.60075,-0.5735 2.60074,2.46472 2.60075,-2.12656 2.60074,-1.02425 2.60074,1.04901 2.60075,-0.15222 2.60074,-1.90848 2.60074,2.56472 2.60075,-2.99955 2.60074,-0.80406 2.60074,1.95015 2.60075,0.39564 2.60073,-0.0735 2.60075,1.20967 2.60075,0.45597 2.60073,-2.10282 2.60076,-1.55252 2.60074,-0.19354 2.60073,2.4421 2.60076,-0.97346 2.60074,-0.63885 2.60073,0.82264 2.60076,0.98761 2.60073,0.11611 2.60074,0.43164 2.60076,-1.5958 2.60073,1.19246 2.60074,-0.17087 2.60076,-1.29378 2.60073,1.29036 2.60075,1.2936 2.60075,-0.91412 2.60073,-0.1338 2.60075,-2.04292 2.60074,-1.45643 2.60074,2.13527 2.60075,-3.81701 2.60074,-1.18126 2.60074,-1.38515"
       style="fill:none;stroke:#9467bd;stroke-width:0.862982;stroke-linecap:square;stroke-linejoin:round;stroke-miterlimit:10;stroke-dasharray:none;stroke-opacity:1"
       id="path314" /><path
       d="m 42.064389,299.68812 2.600744,-4.90543 2.600743,-2.60056 2.600743,-0.34576 2.600744,-0.58578 2.600743,0.20315 2.600744,0.14261 2.600742,-0.0192 2.600745,0.32175 2.600742,-0.86593 2.600742,-0.80981 2.600746,-0.0152 2.600745,-1.0002 2.60074,-0.61318 2.600745,-0.0535 2.600746,-1.47867 2.60074,-0.38327 2.600745,-0.12824 2.60074,-1.40894 2.600745,-0.77313 2.600746,-0.57353 2.600739,-0.99624 2.600746,0.16023 2.600746,-0.76654 2.60074,-2.36813 2.60074,0.93922 2.60074,0.28199 2.60075,0.3249 2.60074,-0.0854 2.60075,-1.74384 2.60074,0.56259 2.60074,-2.08305 2.60075,-0.37532 2.60074,-0.002 2.60074,-1.89443 2.60075,0.25439 2.60074,-0.94015 2.60074,0.27866 2.60075,-1.55062 2.60074,1.35232 2.60074,-1.33309 2.60075,-1.78471 2.60074,-0.17887 2.60075,-0.41184 2.60074,2.74696 2.60074,-1.69085 2.60075,0.68152 2.60074,-1.19127 2.60074,-1.3996 2.60075,1.84106 2.60074,-3.80716 2.60074,1.08343 2.60075,-3.4389 2.60073,-0.6327 2.60075,-1.44882 2.60075,-1.42349 2.60073,-0.77242 2.60076,1.24025 2.60074,-3.8761 2.60073,1.48791 2.60076,-3.20201 2.60074,3.28127 2.60073,-0.9671 2.60076,1.72297 2.60073,-0.96971 2.60074,-0.26176 2.60076,0.36489 2.60073,-0.4659 2.60074,1.26394 2.60076,-1.54029 2.60073,-0.82946 2.60075,-0.0178 2.60075,-3.66531 2.60073,1.10023 2.60075,0.38266 2.60074,-2.77767 2.60074,-2.76319 2.60075,4.4298 2.60074,-3.28934 2.60074,-1.1711"
       style="fill:none;stroke:#d62728;stroke-width:0.862982;stroke-linecap:square;stroke-linejoin:round;stroke-miterlimit:10;stroke-dasharray:none;stroke-opacity:1"
       id="path324" /><path
       d="M 42.064389,163.81532 V 316.91521"
       style="fill:none;stroke:#000000;stroke-width:0.460257;stroke-linecap:square;stroke-linejoin:miter;stroke-miterlimit:10;stroke-dasharray:none;stroke-opacity:1"
       id="path328" /><path
       d="M 247.52311,163.81532 V 316.91521"
       style="fill:none;stroke:#000000;stroke-width:0.460257;stroke-linecap:square;stroke-linejoin:miter;stroke-miterlimit:10;stroke-dasharray:none;stroke-opacity:1"
       id="path330" /><path
       d="M 42.064389,163.81532 H 247.52311"
       style="fill:none;stroke:#000000;stroke-width:0.460257;stroke-linecap:square;stroke-linejoin:miter;stroke-miterlimit:10;stroke-dasharray:none;stroke-opacity:1"
       id="path332" /><path
       d="M 42.064389,316.91521 H 247.52311"
       style="fill:none;stroke:#000000;stroke-width:0.460257;stroke-linecap:square;stroke-linejoin:miter;stroke-miterlimit:10;stroke-dasharray:none;stroke-opacity:1"
       id="path334" /><path
       d="m 53.541253,206.41275 h 11.50643"
       style="fill:none;stroke:#1f77b4;stroke-width:0.862982;stroke-linecap:square;stroke-linejoin:round;stroke-miterlimit:10;stroke-dasharray:none;stroke-opacity:1"
       id="path344" /><path
       d="m 53.541253,197.9717 h 11.50643"
       style="fill:none;stroke:#ff7f0e;stroke-width:0.862982;stroke-linecap:square;stroke-linejoin:round;stroke-miterlimit:10;stroke-dasharray:none;stroke-opacity:1"
       id="path350" /><path
       d="m 53.541253,189.53066 h 11.50643"
       style="fill:none;stroke:#2ca02c;stroke-width:0.862982;stroke-linecap:square;stroke-linejoin:round;stroke-miterlimit:10;stroke-dasharray:none;stroke-opacity:1"
       id="path356" /><path
       d="m 53.541253,181.08962 h 11.50643"
       style="fill:none;fill-opacity:1;stroke:#9467bd;stroke-width:0.862982;stroke-linecap:square;stroke-linejoin:round;stroke-miterlimit:10;stroke-dasharray:none;stroke-opacity:1"
       id="path362" /></g><g
     inkscape:groupmode="layer"
     id="layer1"
     inkscape:label="text"
     transform="translate(-28.023958,-17.206424)"><text
       style="font-variant:normal;font-weight:normal;font-size:7.67095px;font-family:'DejaVu Sans';-inkscape-font-specification:DejaVuSans;writing-mode:lr-tb;fill:#000000;fill-opacity:1;fill-rule:nonzero;stroke:none;stroke-width:0.767095"
       id="text32"
       x="47.545925"
       y="253.57436"><tspan
         x="47.545925 52.424652 54.86401 59.742737"
         y="253.57436"
         sodipodi:role="line"
         id="tspan30"
         style="stroke-width:0.767095">0.00</tspan></text><text
       style="font-variant:normal;font-weight:normal;font-size:7.67095px;font-family:'DejaVu Sans';-inkscape-font-specification:DejaVuSans;writing-mode:lr-tb;fill:#000000;fill-opacity:1;fill-rule:nonzero;stroke:none;stroke-width:0.767095"
       id="text50"
       x="82.222504"
       y="253.57436"><tspan
         x="82.222504 87.101227 89.540588 94.419312"
         y="253.57436"
         sodipodi:role="line"
         id="tspan48"
         style="stroke-width:0.767095">0.25</tspan></text><text
       style="font-variant:normal;font-weight:normal;font-size:7.67095px;font-family:'DejaVu Sans';-inkscape-font-specification:DejaVuSans;writing-mode:lr-tb;fill:#000000;fill-opacity:1;fill-rule:nonzero;stroke:none;stroke-width:0.767095"
       id="text68"
       x="116.89907"
       y="253.57436"><tspan
         x="116.89907 121.7778 124.21717 129.09589"
         y="253.57436"
         sodipodi:role="line"
         id="tspan66"
         style="stroke-width:0.767095">0.50</tspan></text><text
       style="font-variant:normal;font-weight:normal;font-size:7.67095px;font-family:'DejaVu Sans';-inkscape-font-specification:DejaVuSans;writing-mode:lr-tb;fill:#000000;fill-opacity:1;fill-rule:nonzero;stroke:none;stroke-width:0.767095"
       id="text86"
       x="151.57565"
       y="253.57436"><tspan
         x="151.57565 156.45439 158.89375 163.77248"
         y="253.57436"
         sodipodi:role="line"
         id="tspan84"
         style="stroke-width:0.767095">0.75</tspan></text><text
       style="font-variant:normal;font-weight:normal;font-size:7.67095px;font-family:'DejaVu Sans';-inkscape-font-specification:DejaVuSans;writing-mode:lr-tb;fill:#000000;fill-opacity:1;fill-rule:nonzero;stroke:none;stroke-width:0.767095"
       id="text104"
       x="186.25223"
       y="253.57436"><tspan
         x="186.25223 191.13095 193.57033 198.44905"
         y="253.57436"
         sodipodi:role="line"
         id="tspan102"
         style="stroke-width:0.767095">1.00</tspan></text><text
       style="font-variant:normal;font-weight:normal;font-size:7.67095px;font-family:'DejaVu Sans';-inkscape-font-specification:DejaVuSans;writing-mode:lr-tb;fill:#000000;fill-opacity:1;fill-rule:nonzero;stroke:none;stroke-width:0.767095"
       id="text122"
       x="220.9288"
       y="253.57436"><tspan
         x="220.9288 225.80754 228.24689 233.12563"
         y="253.57436"
         sodipodi:role="line"
         id="tspan120"
         style="stroke-width:0.767095">1.25</tspan></text><text
       style="font-variant:normal;font-weight:normal;font-size:7.67095px;font-family:'DejaVu Sans';-inkscape-font-specification:DejaVuSans;writing-mode:lr-tb;fill:#000000;fill-opacity:1;fill-rule:nonzero;stroke:none;stroke-width:0.767095"
       id="text140"
       x="255.60539"
       y="253.57436"><tspan
         x="255.60539 260.4841 262.92349 267.80219"
         y="253.57436"
         sodipodi:role="line"
         id="tspan138"
         style="stroke-width:0.767095">1.50</tspan></text><text
       style="font-variant:normal;font-weight:normal;font-size:7.67095px;font-family:'DejaVu Sans';-inkscape-font-specification:DejaVuSans;writing-mode:lr-tb;fill:#000000;fill-opacity:1;fill-rule:nonzero;stroke:none;stroke-width:0.767095"
       id="text158"
       x="290.28195"
       y="253.57436"><tspan
         x="290.28195 295.16068 297.60007 302.47879"
         y="253.57436"
         sodipodi:role="line"
         id="tspan156"
         style="stroke-width:0.767095">1.75</tspan></text><text
       style="font-variant:normal;font-weight:normal;font-size:7.67095px;font-family:'DejaVu Sans';-inkscape-font-specification:DejaVuSans;writing-mode:lr-tb;fill:#000000;fill-opacity:1;fill-rule:nonzero;stroke:none;stroke-width:0.767095"
       id="text162"
       x="146.63112"
       y="264.06219"><tspan
         x="146.63112 152.5761 157.29373 162.1571 166.85173 174.32323 176.45575 180.67477 183.11414 187.9852 190.11772 194.11427 197.12129 201.82359 206.68697 210.90601 215.62363 218.06299 220.64809 223.08745 229.70749 234.57855"
         y="264.06219"
         sodipodi:role="line"
         id="tspan160"
         style="stroke-width:0.767095">Genomic distance / Mbp</tspan></text><text
       style="font-variant:normal;font-weight:normal;font-size:7.67095px;font-family:'DejaVu Sans';-inkscape-font-specification:DejaVuSans;writing-mode:lr-tb;fill:#000000;fill-opacity:1;fill-rule:nonzero;stroke:none;stroke-width:0.767095"
       id="text180"
       x="38.51458"
       y="245.29211"><tspan
         x="38.51458 43.393303 45.832664"
         y="245.29211"
         sodipodi:role="line"
         id="tspan178"
         style="stroke-width:0.767095">0.0</tspan></text><text
       style="font-variant:normal;font-weight:normal;font-size:7.67095px;font-family:'DejaVu Sans';-inkscape-font-specification:DejaVuSans;writing-mode:lr-tb;fill:#000000;fill-opacity:1;fill-rule:nonzero;stroke:none;stroke-width:0.767095"
       id="text198"
       x="38.51458"
       y="204.46548"><tspan
         x="38.51458 43.393303 45.832664"
         y="204.46548"
         sodipodi:role="line"
         id="tspan196"
         style="stroke-width:0.767095">0.2</tspan></text><text
       style="font-variant:normal;font-weight:normal;font-size:7.67095px;font-family:'DejaVu Sans';-inkscape-font-specification:DejaVuSans;writing-mode:lr-tb;fill:#000000;fill-opacity:1;fill-rule:nonzero;stroke:none;stroke-width:0.767095"
       id="text216"
       x="38.51458"
       y="163.63885"><tspan
         x="38.51458 43.393303 45.832664"
         y="163.63885"
         sodipodi:role="line"
         id="tspan214"
         style="stroke-width:0.767095">0.4</tspan></text><text
       style="font-variant:normal;font-weight:normal;font-size:7.67095px;font-family:'DejaVu Sans';-inkscape-font-specification:DejaVuSans;writing-mode:lr-tb;fill:#000000;fill-opacity:1;fill-rule:nonzero;stroke:none;stroke-width:0.767095"
       id="text234"
       x="38.51458"
       y="122.8122"><tspan
         x="38.51458 43.393303 45.832664"
         y="122.8122"
         sodipodi:role="line"
         id="tspan232"
         style="stroke-width:0.767095">0.6</tspan></text><text
       style="font-variant:normal;font-weight:normal;font-size:7.67095px;font-family:'DejaVu Sans';-inkscape-font-specification:DejaVuSans;writing-mode:lr-tb;fill:#000000;fill-opacity:1;fill-rule:nonzero;stroke:none;stroke-width:0.767095"
       id="text252"
       x="38.51458"
       y="81.98558"><tspan
         x="38.51458 43.393303 45.832664"
         y="81.98558"
         sodipodi:role="line"
         id="tspan250"
         style="stroke-width:0.767095">0.8</tspan></text><text
       style="font-variant:normal;font-weight:normal;font-size:7.67095px;font-family:'DejaVu Sans';-inkscape-font-specification:DejaVuSans;writing-mode:lr-tb;fill:#000000;fill-opacity:1;fill-rule:nonzero;stroke:none;stroke-width:0.767095"
       id="text270"
       x="38.51458"
       y="41.158997"><tspan
         x="38.51458 43.393303 45.832664"
         y="41.158997"
         sodipodi:role="line"
         id="tspan268"
         style="stroke-width:0.767095">1.0</tspan></text><text
       transform="rotate(-90)"
       style="font-variant:normal;font-weight:normal;font-size:7.67095px;font-family:'DejaVu Sans';-inkscape-font-specification:DejaVuSans;writing-mode:lr-tb;fill:#000000;fill-opacity:1;fill-rule:nonzero;stroke:none;stroke-width:0.767095"
       id="text274"
       x="-177.37325"
       y="33.852085"><tspan
         x="-177.37325 -172.74765 -168.03003 -163.32773 -160.17497 -156.17842 -151.4838 -146.62039 -144.18105 -139.96202 -135.2674 -132.11464 -128.96187 -124.24423 -122.11173 -117.40942 -114.40241 -112.2699 -107.57527"
         y="33.852085"
         sodipodi:role="line"
         id="tspan272"
         style="stroke-width:0.767095">Pearson correlation</tspan></text><text
       style="font-variant:normal;font-weight:normal;font-size:7.67095px;font-family:'DejaVu Sans';-inkscape-font-specification:DejaVuSans;writing-mode:lr-tb;fill:#000000;fill-opacity:1;fill-rule:nonzero;stroke:none;stroke-width:0.767095"
       id="text372"
       x="92.867012"
       y="233.28671"><tspan
         x="92.867012 95.874031 99.026787 103.72907 108.59245 112.58901 115.28918 120.00683 123.15958 125.59895 131.54393 138.16396 143.04269 147.92142 152.80014 157.67886 162.55759 164.99695 167.58203 170.02139 175.26834 180.88348 186.23782 188.82291 191.26227 196.14102 198.58035 203.45908 208.3378"
         y="233.28671"
         sodipodi:role="line"
         id="tspan370"
         style="stroke-width:0.767095">transfer GM12878 / AUC: 0.719</tspan></text><text
       style="font-variant:normal;font-weight:normal;font-size:9.20514px;font-family:'DejaVu Sans';-inkscape-font-specification:DejaVuSans;writing-mode:lr-tb;fill:#000000;fill-opacity:1;fill-rule:nonzero;stroke:none;stroke-width:0.767095"
       id="text338"
       x="98.328094"
       y="23.326429"><tspan
         x="98.328094 103.8788 109.53996 115.18271 118.96601 123.76189 129.39545 135.23151 138.15874 143.22156 148.8551 152.63843 156.42174 162.0829 164.64192 170.28468 173.89308 176.45212 182.08566 187.92172 190.84895 196.2984 201.09428 204.02151 206.94875 212.79401 218.45518 224.29121 229.92477 238.89058 241.4496 246.51244 249.43968 255.28494 257.84396 262.63983 266.24823 271.89099 277.72705 282.78989"
         y="23.326429"
         sodipodi:role="line"
         id="tspan336"
         style="stroke-width:0.767095">Pearson correlation vs. genomic distance</tspan></text><text
       style="font-variant:normal;font-weight:normal;font-size:9.20514px;font-family:'DejaVu Sans';-inkscape-font-specification:DejaVuSans;writing-mode:lr-tb;fill:#000000;fill-opacity:1;fill-rule:nonzero;stroke:none;stroke-width:0.767095"
       id="text342"
       x="63.991287"
       y="33.643864"><tspan
         x="63.991287 71.125282 79.069313 84.923782 90.778244 96.632713 102.48718 108.34167 111.26889 114.19612 120.05059 122.97783 128.83229 131.75954 137.614 140.54123 146.39572 149.32294 155.17741 158.10464 163.95912 169.81357 172.74081 178.59528 184.44975 187.377 193.23146 199.08592 202.01315 207.86763 213.72211 216.64934 222.5038 228.35828 231.28549 237.13998 242.99445 245.92169 251.77615 257.63065 260.55783 266.41235 272.26678 275.19403 280.82758 286.66364 289.59088 295.62943 301.48392 307.33838 313.19287 316.12006 319.0473"
         y="33.643864"
         sodipodi:role="line"
         id="tspan340"
         style="stroke-width:0.767095">GM12878, 1,2,4,7,9,11,13,14,16,17,18,20,22 on K562, 5</tspan></text><text
       style="font-variant:normal;font-weight:normal;font-size:7.67095px;font-family:'DejaVu Sans';-inkscape-font-specification:DejaVuSans;writing-mode:lr-tb;fill:#000000;fill-opacity:1;fill-rule:nonzero;stroke:none;stroke-width:0.767095"
       id="text348"
       x="92.867012"
       y="188.26784"><tspan
         x="92.867012 99.141853 101.27436 106.14542 110.86306 114.01583 116.45519 118.89454 123.77328 128.65198 133.53069 138.24834 143.1194 145.55876 148.14389 150.58322 155.83017 161.44528 166.79962 169.38474 171.8241 176.70282 179.14218 184.02087 188.89963"
         y="188.26784"
         sodipodi:role="line"
         id="tspan346"
         style="stroke-width:0.767095">wider, 250ep / AUC: 0.520</tspan></text><text
       style="font-variant:normal;font-weight:normal;font-size:7.67095px;font-family:'DejaVu Sans';-inkscape-font-specification:DejaVuSans;writing-mode:lr-tb;fill:#000000;fill-opacity:1;fill-rule:nonzero;stroke:none;stroke-width:0.767095"
       id="text354"
       x="92.867012"
       y="199.52255"><tspan
         x="92.867012 99.141853 101.27436 106.14542 110.86306 114.01583 116.45519 118.89454 123.77328 128.65198 133.53069 138.24834 143.1194 145.55876 148.14389 150.58322 155.83017 161.44528 166.79962 169.38474 171.8241 176.70282 179.14218 184.02087 188.89963"
         y="199.52255"
         sodipodi:role="line"
         id="tspan352"
         style="stroke-width:0.767095">wider, 500ep / AUC: 0.503</tspan></text><text
       style="font-variant:normal;font-weight:normal;font-size:7.67095px;font-family:'DejaVu Sans';-inkscape-font-specification:DejaVuSans;writing-mode:lr-tb;fill:#000000;fill-opacity:1;fill-rule:nonzero;stroke:none;stroke-width:0.767095"
       id="text360"
       x="92.867012"
       y="210.77728"><tspan
         x="92.867012 99.141853 101.27436 106.14542 110.86306 114.01583 116.45519 118.89454 123.77328 128.65198 133.53069 138.40942 143.12706 147.99814 150.4375 153.02258 155.46198 160.70889 166.32401 171.67834 174.26343 176.70282 181.58151 184.02087 188.89963 193.77835"
         y="210.77728"
         sodipodi:role="line"
         id="tspan358"
         style="stroke-width:0.767095">wider, 1000ep / AUC: 0.512</tspan></text><text
       style="font-variant:normal;font-weight:normal;font-size:7.67095px;font-family:'DejaVu Sans';-inkscape-font-specification:DejaVuSans;writing-mode:lr-tb;fill:#000000;fill-opacity:1;fill-rule:nonzero;stroke:none;stroke-width:0.767095"
       id="text366"
       x="92.867012"
       y="222.032"><tspan
         x="92.867012 94.999535 99.862923 101.99545 105.00246 107.13499 111.83726 113.96978 116.40916 118.84852 123.72723 128.60596 133.48466 138.20232 143.07336 145.51274 148.09784 150.5372 155.78412 161.39929 166.7536 169.33868 171.77808 176.6568 179.09616 183.97488 188.85361"
         y="222.032"
         sodipodi:role="line"
         id="tspan364"
         style="stroke-width:0.767095">initial, 500ep / AUC: 0.540</tspan></text></g></svg>
