<?xml version="1.0" encoding="UTF-8" standalone="no"?>
<svg
   xmlns:dc="http://purl.org/dc/elements/1.1/"
   xmlns:cc="http://creativecommons.org/ns#"
   xmlns:rdf="http://www.w3.org/1999/02/22-rdf-syntax-ns#"
   xmlns:svg="http://www.w3.org/2000/svg"
   xmlns="http://www.w3.org/2000/svg"
   xmlns:sodipodi="http://sodipodi.sourceforge.net/DTD/sodipodi-0.dtd"
   xmlns:inkscape="http://www.inkscape.org/namespaces/inkscape"
   version="1.1"
   id="svg2"
   xml:space="preserve"
   width="80mm"
   height="65.300003mm"
   viewBox="0 0 302.36219 246.80316"
   sodipodi:docname="pearson_chr03.svg"
   inkscape:version="1.0.2 (1.0.2+r75+1)"><metadata
     id="metadata8"><rdf:RDF><cc:Work
         rdf:about=""><dc:format>image/svg+xml</dc:format><dc:type
           rdf:resource="http://purl.org/dc/dcmitype/StillImage" /><dc:title /></cc:Work></rdf:RDF></metadata><defs
     id="defs6"><clipPath
       clipPathUnits="userSpaceOnUse"
       id="clipPath22"><path
         d="M 57.6,38.016 H 414.72 V 304.128 H 57.6 Z"
         id="path20" /></clipPath><clipPath
       clipPathUnits="userSpaceOnUse"
       id="clipPath40"><path
         d="M 57.6,38.016 H 414.72 V 304.128 H 57.6 Z"
         id="path38" /></clipPath><clipPath
       clipPathUnits="userSpaceOnUse"
       id="clipPath58"><path
         d="M 57.6,38.016 H 414.72 V 304.128 H 57.6 Z"
         id="path56" /></clipPath><clipPath
       clipPathUnits="userSpaceOnUse"
       id="clipPath76"><path
         d="M 57.6,38.016 H 414.72 V 304.128 H 57.6 Z"
         id="path74" /></clipPath><clipPath
       clipPathUnits="userSpaceOnUse"
       id="clipPath94"><path
         d="M 57.6,38.016 H 414.72 V 304.128 H 57.6 Z"
         id="path92" /></clipPath><clipPath
       clipPathUnits="userSpaceOnUse"
       id="clipPath112"><path
         d="M 57.6,38.016 H 414.72 V 304.128 H 57.6 Z"
         id="path110" /></clipPath><clipPath
       clipPathUnits="userSpaceOnUse"
       id="clipPath130"><path
         d="M 57.6,38.016 H 414.72 V 304.128 H 57.6 Z"
         id="path128" /></clipPath><clipPath
       clipPathUnits="userSpaceOnUse"
       id="clipPath148"><path
         d="M 57.6,38.016 H 414.72 V 304.128 H 57.6 Z"
         id="path146" /></clipPath><clipPath
       clipPathUnits="userSpaceOnUse"
       id="clipPath170"><path
         d="M 57.6,38.016 H 414.72 V 304.128 H 57.6 Z"
         id="path168" /></clipPath><clipPath
       clipPathUnits="userSpaceOnUse"
       id="clipPath188"><path
         d="M 57.6,38.016 H 414.72 V 304.128 H 57.6 Z"
         id="path186" /></clipPath><clipPath
       clipPathUnits="userSpaceOnUse"
       id="clipPath206"><path
         d="M 57.6,38.016 H 414.72 V 304.128 H 57.6 Z"
         id="path204" /></clipPath><clipPath
       clipPathUnits="userSpaceOnUse"
       id="clipPath224"><path
         d="M 57.6,38.016 H 414.72 V 304.128 H 57.6 Z"
         id="path222" /></clipPath><clipPath
       clipPathUnits="userSpaceOnUse"
       id="clipPath242"><path
         d="M 57.6,38.016 H 414.72 V 304.128 H 57.6 Z"
         id="path240" /></clipPath><clipPath
       clipPathUnits="userSpaceOnUse"
       id="clipPath260"><path
         d="M 57.6,38.016 H 414.72 V 304.128 H 57.6 Z"
         id="path258" /></clipPath><clipPath
       clipPathUnits="userSpaceOnUse"
       id="clipPath282"><path
         d="M 57.6,38.016 H 414.72 V 304.128 H 57.6 Z"
         id="path280" /></clipPath><clipPath
       clipPathUnits="userSpaceOnUse"
       id="clipPath292"><path
         d="M 57.6,38.016 H 414.72 V 304.128 H 57.6 Z"
         id="path290" /></clipPath><clipPath
       clipPathUnits="userSpaceOnUse"
       id="clipPath302"><path
         d="M 57.6,38.016 H 414.72 V 304.128 H 57.6 Z"
         id="path300" /></clipPath><clipPath
       clipPathUnits="userSpaceOnUse"
       id="clipPath312"><path
         d="M 57.6,38.016 H 414.72 V 304.128 H 57.6 Z"
         id="path310" /></clipPath><clipPath
       clipPathUnits="userSpaceOnUse"
       id="clipPath322"><path
         d="M 57.6,38.016 H 414.72 V 304.128 H 57.6 Z"
         id="path320" /></clipPath></defs><sodipodi:namedview
     pagecolor="#ffffff"
     bordercolor="#666666"
     borderopacity="1"
     objecttolerance="10"
     gridtolerance="10"
     guidetolerance="10"
     inkscape:pageopacity="0"
     inkscape:pageshadow="2"
     inkscape:window-width="1920"
     inkscape:window-height="1020"
     id="namedview4"
     showgrid="false"
     units="mm"
     fit-margin-top="0"
     fit-margin-left="0"
     fit-margin-right="0"
     fit-margin-bottom="0"
     inkscape:zoom="5.2603345"
     inkscape:cx="59.767091"
     inkscape:cy="233.64084"
     inkscape:window-x="0"
     inkscape:window-y="0"
     inkscape:window-maximized="1"
     inkscape:current-layer="layer1"
     inkscape:document-rotation="0" /><g
     id="g10"
     inkscape:groupmode="layer"
     inkscape:label="pearson_chr03"
     transform="matrix(1.3333333,0,0,-1.3333333,-28.023958,443.59358)"><path
       d="M 57.6,38.016 V 304.128"
       style="fill:none;stroke:#b0b0b0;stroke-width:0.8;stroke-linecap:square;stroke-linejoin:round;stroke-miterlimit:10;stroke-dasharray:none;stroke-opacity:1"
       id="path24"
       transform="matrix(0.5754698,0,0,0.5754698,8.922763,141.9876)" /><path
       d="M 102.80506,38.016 V 304.128"
       style="fill:none;stroke:#b0b0b0;stroke-width:0.8;stroke-linecap:square;stroke-linejoin:round;stroke-miterlimit:10;stroke-dasharray:none;stroke-opacity:1"
       id="path42"
       transform="matrix(0.5754698,0,0,0.5754698,8.922763,141.9876)" /><path
       d="M 94.098123,163.86466 V 317.00408"
       style="fill:none;stroke:#b0b0b0;stroke-width:0.460376;stroke-linecap:square;stroke-linejoin:round;stroke-miterlimit:10;stroke-dasharray:none;stroke-opacity:1"
       id="path60" /><path
       d="M 193.21519,38.016 V 304.128"
       style="fill:none;stroke:#b0b0b0;stroke-width:0.8;stroke-linecap:square;stroke-linejoin:round;stroke-miterlimit:10;stroke-dasharray:none;stroke-opacity:1"
       id="path78"
       transform="matrix(0.5754698,0,0,0.5754698,8.922763,141.9876)" /><path
       d="M 238.42025,38.016 V 304.128"
       style="fill:none;stroke:#b0b0b0;stroke-width:0.8;stroke-linecap:square;stroke-linejoin:round;stroke-miterlimit:10;stroke-dasharray:none;stroke-opacity:1"
       id="path96"
       transform="matrix(0.5754698,0,0,0.5754698,8.922763,141.9876)" /><path
       d="M 283.62532,38.016 V 304.128"
       style="fill:none;stroke:#b0b0b0;stroke-width:0.8;stroke-linecap:square;stroke-linejoin:round;stroke-miterlimit:10;stroke-dasharray:none;stroke-opacity:1"
       id="path114"
       transform="matrix(0.5754698,0,0,0.5754698,8.922763,141.9876)" /><path
       d="M 328.83038,38.016 V 304.128"
       style="fill:none;stroke:#b0b0b0;stroke-width:0.8;stroke-linecap:square;stroke-linejoin:round;stroke-miterlimit:10;stroke-dasharray:none;stroke-opacity:1"
       id="path132"
       transform="matrix(0.5754698,0,0,0.5754698,8.922763,141.9876)" /><path
       d="M 374.03544,38.016 V 304.128"
       style="fill:none;stroke:#b0b0b0;stroke-width:0.8;stroke-linecap:square;stroke-linejoin:round;stroke-miterlimit:10;stroke-dasharray:none;stroke-opacity:1"
       id="path150"
       transform="matrix(0.5754698,0,0,0.5754698,8.922763,141.9876)" /><path
       d="M 57.6,38.016 H 414.72"
       style="fill:none;stroke:#b0b0b0;stroke-width:0.8;stroke-linecap:square;stroke-linejoin:round;stroke-miterlimit:10;stroke-dasharray:none;stroke-opacity:1"
       id="path172"
       transform="matrix(0.5754698,0,0,0.5754698,8.922763,141.9876)" /><path
       d="M 57.6,91.2384 H 414.72"
       style="fill:none;stroke:#b0b0b0;stroke-width:0.8;stroke-linecap:square;stroke-linejoin:round;stroke-miterlimit:10;stroke-dasharray:none;stroke-opacity:1"
       id="path190"
       transform="matrix(0.5754698,0,0,0.5754698,8.922763,141.9876)" /><path
       d="M 57.6,144.4608 H 414.72"
       style="fill:none;stroke:#b0b0b0;stroke-width:0.8;stroke-linecap:square;stroke-linejoin:round;stroke-miterlimit:10;stroke-dasharray:none;stroke-opacity:1"
       id="path208"
       transform="matrix(0.5754698,0,0,0.5754698,8.922763,141.9876)" /><path
       d="M 57.6,197.6832 H 414.72"
       style="fill:none;stroke:#b0b0b0;stroke-width:0.8;stroke-linecap:square;stroke-linejoin:round;stroke-miterlimit:10;stroke-dasharray:none;stroke-opacity:1"
       id="path226"
       transform="matrix(0.5754698,0,0,0.5754698,8.922763,141.9876)" /><path
       d="M 57.6,250.9056 H 414.72"
       style="fill:none;stroke:#b0b0b0;stroke-width:0.8;stroke-linecap:square;stroke-linejoin:round;stroke-miterlimit:10;stroke-dasharray:none;stroke-opacity:1"
       id="path244"
       transform="matrix(0.5754698,0,0,0.5754698,8.922763,141.9876)" /><path
       d="M 57.6,304.128 H 414.72"
       style="fill:none;stroke:#b0b0b0;stroke-width:0.8;stroke-linecap:square;stroke-linejoin:round;stroke-miterlimit:10;stroke-dasharray:none;stroke-opacity:1"
       id="path262"
       transform="matrix(0.5754698,0,0,0.5754698,8.922763,141.9876)" /><path
       d="m 42.069823,285.52937 2.601415,-2.99351 2.601415,-2.44599 2.601415,-1.45815 2.601414,0.29456 2.601415,1.01843 2.601416,0.0156 2.601414,0.80609 2.601415,0.78521 2.601414,-0.61752 2.601414,1.16282 2.601417,0.93937 2.601416,-0.23861 2.601412,-1.54953 2.601417,-1.03925 2.601417,-2.4384 2.601411,-1.48867 2.601417,-0.97645 2.601411,-1.61649 2.601417,-1.63325 2.601417,-2.39532 2.601411,0.0942 2.601417,-0.95892 2.60142,-1.70187 2.60141,-1.46657 2.60142,-1.05679 2.60141,-1.00558 2.60141,-3.76772 2.60142,1.79302 2.60141,-1.10073 2.60142,0.71237 2.60142,-0.79622 2.6014,0.7581 2.60142,-1.09497 2.60142,-2.10019 2.60141,0.38876 2.60142,0.22274 2.60141,-1.46374 2.60142,2.99418 2.60142,0.10726 2.6014,-0.66729 2.60142,-0.80138 2.60142,-0.11408 2.60141,0.94601 2.60142,1.95608 2.6014,-0.6676 2.60142,-1.65729 2.60143,-0.088 2.6014,3.48736 2.60142,-1.08404 2.60142,-3.05414 2.60141,4.00313 2.60142,-1.68195 2.60141,-2.89286 2.60141,-1.23382 2.60142,3.32503 2.60141,-0.91799 2.60142,-1.6581 2.60142,0.0201 2.6014,1.46172 2.60143,0.37097 2.60142,0.17516 2.6014,-1.62729 2.60142,1.9488 2.60141,-4.29018 2.60142,1.99098 2.60142,-4.36097 2.6014,1.95455 2.60142,-0.57717 2.60142,-3.0527 2.60141,1.53273 2.60142,0.73677 2.60141,-0.19882 2.60142,-2.20811 2.60142,-1.87137 2.6014,0.59479 2.60142,1.44427 2.60142,-3.61943 2.60141,1.66077 2.60142,0.0974"
       style="fill:none;stroke:#d62728;stroke-width:0.863205;stroke-linecap:square;stroke-linejoin:round;stroke-miterlimit:10;stroke-dasharray:none;stroke-opacity:1"
       id="path324" /><g
       id="g16"
       transform="matrix(0.5754698,0,0,0.5754698,8.9227627,141.9876)"><g
         id="g18"
         clip-path="url(#clipPath22)" /></g><path
       d="m 42.069823,163.86466 v -2.01415"
       style="fill:#000000;fill-opacity:1;fill-rule:nonzero;stroke:#000000;stroke-width:0.460376;stroke-linecap:butt;stroke-linejoin:round;stroke-miterlimit:10;stroke-dasharray:none;stroke-opacity:1"
       id="path28" /><g
       id="g34"
       transform="matrix(0.5754698,0,0,0.5754698,8.9227627,141.9876)"><g
         id="g36"
         clip-path="url(#clipPath40)" /></g><path
       d="m 68.08397,163.86466 v -2.01415"
       style="fill:#000000;fill-opacity:1;fill-rule:nonzero;stroke:#000000;stroke-width:0.460376;stroke-linecap:butt;stroke-linejoin:round;stroke-miterlimit:10;stroke-dasharray:none;stroke-opacity:1"
       id="path46" /><path
       d="m 94.098122,163.86466 v -2.01415"
       style="fill:#000000;fill-opacity:1;fill-rule:nonzero;stroke:#000000;stroke-width:0.460376;stroke-linecap:butt;stroke-linejoin:round;stroke-miterlimit:10;stroke-dasharray:none;stroke-opacity:1"
       id="path64" /><g
       id="g70"
       transform="matrix(0.5754698,0,0,0.5754698,8.9227627,141.9876)"><g
         id="g72"
         clip-path="url(#clipPath76)" /></g><path
       d="m 120.11227,163.86466 v -2.01415"
       style="fill:#000000;fill-opacity:1;fill-rule:nonzero;stroke:#000000;stroke-width:0.460376;stroke-linecap:butt;stroke-linejoin:round;stroke-miterlimit:10;stroke-dasharray:none;stroke-opacity:1"
       id="path82" /><g
       id="g88"
       transform="matrix(0.5754698,0,0,0.5754698,8.9227627,141.9876)"><g
         id="g90"
         clip-path="url(#clipPath94)" /></g><path
       d="m 146.12641,163.86466 v -2.01415"
       style="fill:#000000;fill-opacity:1;fill-rule:nonzero;stroke:#000000;stroke-width:0.460376;stroke-linecap:butt;stroke-linejoin:round;stroke-miterlimit:10;stroke-dasharray:none;stroke-opacity:1"
       id="path100" /><g
       id="g106"
       transform="matrix(0.5754698,0,0,0.5754698,8.9227627,141.9876)"><g
         id="g108"
         clip-path="url(#clipPath112)" /></g><path
       d="m 172.14057,163.86466 v -2.01415"
       style="fill:#000000;fill-opacity:1;fill-rule:nonzero;stroke:#000000;stroke-width:0.460376;stroke-linecap:butt;stroke-linejoin:round;stroke-miterlimit:10;stroke-dasharray:none;stroke-opacity:1"
       id="path118" /><g
       id="g124"
       transform="matrix(0.5754698,0,0,0.5754698,8.9227627,141.9876)"><g
         id="g126"
         clip-path="url(#clipPath130)" /></g><path
       d="m 198.15472,163.86466 v -2.01415"
       style="fill:#000000;fill-opacity:1;fill-rule:nonzero;stroke:#000000;stroke-width:0.460376;stroke-linecap:butt;stroke-linejoin:round;stroke-miterlimit:10;stroke-dasharray:none;stroke-opacity:1"
       id="path136" /><g
       id="g142"
       transform="matrix(0.5754698,0,0,0.5754698,8.9227627,141.9876)"><g
         id="g144"
         clip-path="url(#clipPath148)" /></g><path
       d="m 224.16886,163.86466 v -2.01415"
       style="fill:#000000;fill-opacity:1;fill-rule:nonzero;stroke:#000000;stroke-width:0.460376;stroke-linecap:butt;stroke-linejoin:round;stroke-miterlimit:10;stroke-dasharray:none;stroke-opacity:1"
       id="path154" /><g
       id="g164"
       transform="matrix(0.5754698,0,0,0.5754698,8.9227627,141.9876)"><g
         id="g166"
         clip-path="url(#clipPath170)" /></g><path
       d="M 42.069823,163.86466 H 40.055679"
       style="fill:#000000;fill-opacity:1;fill-rule:nonzero;stroke:#000000;stroke-width:0.460376;stroke-linecap:butt;stroke-linejoin:round;stroke-miterlimit:10;stroke-dasharray:none;stroke-opacity:1"
       id="path176" /><g
       id="g182"
       transform="matrix(0.5754698,0,0,0.5754698,8.9227627,141.9876)"><g
         id="g184"
         clip-path="url(#clipPath188)" /></g><path
       d="M 42.069823,194.49255 H 40.055679"
       style="fill:#000000;fill-opacity:1;fill-rule:nonzero;stroke:#000000;stroke-width:0.460376;stroke-linecap:butt;stroke-linejoin:round;stroke-miterlimit:10;stroke-dasharray:none;stroke-opacity:1"
       id="path194" /><g
       id="g200"
       transform="matrix(0.5754698,0,0,0.5754698,8.9227627,141.9876)"><g
         id="g202"
         clip-path="url(#clipPath206)" /></g><path
       d="M 42.069823,225.12042 H 40.055679"
       style="fill:#000000;fill-opacity:1;fill-rule:nonzero;stroke:#000000;stroke-width:0.460376;stroke-linecap:butt;stroke-linejoin:round;stroke-miterlimit:10;stroke-dasharray:none;stroke-opacity:1"
       id="path212" /><g
       id="g218"
       transform="matrix(0.5754698,0,0,0.5754698,8.9227627,141.9876)"><g
         id="g220"
         clip-path="url(#clipPath224)" /></g><path
       d="M 42.069823,255.74831 H 40.055679"
       style="fill:#000000;fill-opacity:1;fill-rule:nonzero;stroke:#000000;stroke-width:0.460376;stroke-linecap:butt;stroke-linejoin:round;stroke-miterlimit:10;stroke-dasharray:none;stroke-opacity:1"
       id="path230" /><g
       id="g236"
       transform="matrix(0.5754698,0,0,0.5754698,8.9227627,141.9876)"><g
         id="g238"
         clip-path="url(#clipPath242)" /></g><path
       d="M 42.069823,286.37619 H 40.055679"
       style="fill:#000000;fill-opacity:1;fill-rule:nonzero;stroke:#000000;stroke-width:0.460376;stroke-linecap:butt;stroke-linejoin:round;stroke-miterlimit:10;stroke-dasharray:none;stroke-opacity:1"
       id="path248" /><g
       id="g254"
       transform="matrix(0.5754698,0,0,0.5754698,8.9227627,141.9876)"><g
         id="g256"
         clip-path="url(#clipPath260)" /></g><path
       d="M 42.069823,317.00408 H 40.055679"
       style="fill:#000000;fill-opacity:1;fill-rule:nonzero;stroke:#000000;stroke-width:0.460376;stroke-linecap:butt;stroke-linejoin:round;stroke-miterlimit:10;stroke-dasharray:none;stroke-opacity:1"
       id="path266" /><g
       id="g278"
       clip-path="url(#clipPath282)"
       transform="matrix(0.5754698,0,0,0.5754698,8.9227627,141.9876)"><path
         d="m 57.6,246.58777 4.520506,4.33474 4.520507,-6.78597 4.520506,-6.15934 4.520506,-6.90808 4.520507,-7.19726 4.520506,-4.70576 4.520506,-1.90211 4.520507,-4.01828 4.520506,-1.91047 4.520503,-4.18109 4.52051,-4.38846 4.52051,-2.06802 4.5205,-1.72635 4.52051,0.46436 4.52051,-0.8609 4.5205,0.39525 4.52051,1.00397 4.5205,-4.25643 4.52051,-0.8866 4.52051,-1.69472 4.5205,-4.36385 4.52051,-3.16198 4.52051,-2.45687 4.5205,-1.12697 4.52051,-3.05526 4.5205,-0.7906 4.52051,0.45616 4.52051,-0.28901 4.5205,-2.21905 4.52051,-3.35255 4.52051,1.74618 4.5205,-1.63245 4.52051,-0.47791 4.5205,-0.76795 4.52051,-1.56526 4.52051,-3.09852 4.5205,-2.77317 4.52051,-2.34979 4.52051,-2.01895 4.5205,-0.73259 4.52051,-1.02381 4.52051,-3.3217 4.5205,-0.38581 4.52051,-3.56863 4.5205,0.5744 4.52051,2.92885 4.52051,-3.58739 4.5205,-4.20546 4.52051,3.36428 4.52051,-2.34457 4.5205,-3.6163 4.52051,-0.62177 4.5205,-0.2418 4.52051,-0.57429 4.52051,-3.43742 4.5205,-0.63768 4.52051,-1.2108 4.52051,-0.21566 4.5205,-4.60122 4.52051,-0.2089 4.52051,0.98774 4.5205,-1.57376 4.52051,-3.41622 4.5205,1.4757 4.52051,2.66379 4.52051,-4.23113 4.5205,-1.47048 4.52051,-1.24018 4.52051,0.62065 4.5205,-3.63161 4.52051,-1.642 4.52051,-0.20159 4.5205,1.45615 4.52051,-1.1659 4.5205,1.55357 4.52051,-2.56188 4.52051,-0.99526 4.5205,-11.87184 4.52051,-0.0796"
         style="fill:none;stroke:#1f77b4;stroke-width:1.5;stroke-linecap:square;stroke-linejoin:round;stroke-miterlimit:10;stroke-dasharray:none;stroke-opacity:1"
         id="path284" /></g><g
       id="g288"
       clip-path="url(#clipPath292)"
       transform="matrix(0.5754698,0,0,0.5754698,8.9227627,141.9876)"><path
         d="m 57.6,248.11379 4.520506,3.84492 4.520507,-7.18222 4.520506,-5.50643 4.520506,-6.26045 4.520507,-7.0946 4.520506,-4.75377 4.520506,-2.78171 4.520507,-4.34514 4.520506,-1.89031 4.520503,-3.93583 4.52051,-3.86832 4.52051,-1.79138 4.5205,-1.60017 4.52051,-0.13957 4.52051,-1.03273 4.5205,0.35813 4.52051,0.73691 4.5205,-4.07605 4.52051,-1.13007 4.52051,-1.6524 4.5205,-4.94378 4.52051,-2.99922 4.52051,-2.28349 4.5205,-1.00744 4.52051,-2.9236 4.5205,-0.40304 4.52051,0.7494 4.52051,-0.8172 4.5205,-2.49299 4.52051,-3.22631 4.52051,2.33949 4.5205,-1.72002 4.52051,-0.59574 4.5205,-0.98745 4.52051,-1.84915 4.52051,-3.13475 4.5205,-2.56414 4.52051,-2.84703 4.52051,-1.73968 4.5205,-0.3515 4.52051,-1.06517 4.52051,-4.29853 4.5205,-0.76755 4.52051,-3.43203 4.5205,0.24864 4.52051,3.38432 4.52051,-2.87047 4.5205,-4.06672 4.52051,3.05609 4.52051,-2.22642 4.5205,-3.48932 4.52051,-1.50012 4.5205,1.05861 4.52051,-1.68498 4.52051,-3.66412 4.5205,-0.13905 4.52051,-1.5659 4.52051,-0.76449 4.5205,-3.84755 4.52051,-0.49112 4.52051,0.77417 4.5205,-0.65524 4.52051,-2.50435 4.5205,1.39693 4.52051,4.05791 4.52051,-5.33538 4.5205,-0.78541 4.52051,0.21843 4.52051,-0.53354 4.5205,-5.85057 4.52051,-2.10693 4.52051,1.79392 4.5205,0.67771 4.52051,0.77652 4.5205,-0.81887 4.52051,-3.66664 4.52051,0.9776 4.5205,-6.42875 4.52051,-3.22823"
         style="fill:none;stroke:#ff7f0e;stroke-width:1.5;stroke-linecap:square;stroke-linejoin:round;stroke-miterlimit:10;stroke-dasharray:none;stroke-opacity:1"
         id="path294" /></g><g
       id="g298"
       clip-path="url(#clipPath302)"
       transform="matrix(0.5754698,0,0,0.5754698,8.9227627,141.9876)"><path
         d="m 57.6,251.24459 4.520506,2.76844 4.520507,-7.10649 4.520506,-5.4218 4.520506,-6.4422 4.520507,-7.53281 4.520506,-5.05831 4.520506,-2.89037 4.520507,-4.3205 4.520506,-1.9418 4.520503,-3.9186 4.52051,-4.21616 4.52051,-1.95723 4.5205,-1.62993 4.52051,-0.31073 4.52051,-0.94738 4.5205,0.6577 4.52051,0.80123 4.5205,-4.13875 4.52051,-0.97434 4.52051,-1.6338 4.5205,-4.9718 4.52051,-2.75797 4.52051,-2.21022 4.5205,-1.07662 4.52051,-2.61091 4.5205,-0.0753 4.52051,0.42406 4.52051,-0.57698 4.5205,-2.454 4.52051,-2.84127 4.52051,2.43243 4.5205,-1.55722 4.52051,-1.26149 4.5205,-0.90158 4.52051,-1.55966 4.52051,-1.99805 4.5205,-2.43317 4.52051,-2.89667 4.52051,-1.1472 4.5205,-0.17042 4.52051,-1.11053 4.52051,-3.86918 4.5205,-1.10102 4.52051,-3.20946 4.5205,0.94265 4.52051,2.4003 4.52051,-2.20857 4.5205,-4.26686 4.52051,3.10295 4.52051,-2.08053 4.5205,-3.56317 4.52051,-1.65212 4.5205,1.70278 4.52051,-1.27531 4.52051,-3.81446 4.5205,0.78311 4.52051,-1.60107 4.52051,0.21868 4.5205,-3.85295 4.52051,-0.74653 4.52051,0.006 4.5205,0.26005 4.52051,-2.44087 4.5205,1.3193 4.52051,3.68508 4.52051,-4.61276 4.5205,-1.84725 4.52051,-0.055 4.52051,1.09306 4.5205,-4.60806 4.52051,-4.94293 4.52051,2.49023 4.5205,1.27888 4.52051,-1.20417 4.5205,-1.97945 4.52051,-2.63616 4.52051,1.1047 4.5205,-9.55238 4.52051,2.50785"
         style="fill:none;stroke:#2ca02c;stroke-width:1.5;stroke-linecap:square;stroke-linejoin:round;stroke-miterlimit:10;stroke-dasharray:none;stroke-opacity:1"
         id="path304" /></g><path
       d="m 42.069823,293.37161 2.601415,1.43819 2.601415,-4.35227 2.601415,-3.84764 2.601414,-3.98843 2.601415,-3.82483 2.601416,-2.59215 2.601414,-1.58556 2.601415,-2.20466 2.601414,-1.10286 2.601414,-1.75948 2.601417,-2.38704 2.601416,-1.3522 2.601412,-0.67435 2.601417,-0.12987 2.601417,-0.13128 2.601411,-0.0228 2.601417,0.6709 2.601411,-2.41331 2.601417,0.0278 2.601417,-0.69589 2.601411,-2.2438 2.601417,-1.58657 2.60142,-1.15239 2.60141,-0.44601 2.60142,-1.73464 2.60141,-0.0452 2.60141,0.64368 2.60142,-0.34583 2.60141,-0.62983 2.60142,-1.87525 2.60142,0.75019 2.6014,-1.11681 2.60142,-0.30251 2.60142,0.13042 2.60141,-1.41181 2.60142,-1.01885 2.60141,-1.25581 2.60142,-1.81598 2.60142,-0.61416 2.6014,0.22347 2.60142,0.0691 2.60142,-2.18991 2.60141,-0.61957 2.60142,-1.87295 2.6014,0.0296 2.60142,1.83732 2.60143,-1.31052 2.6014,-2.13682 2.60142,0.75326 2.60142,-0.31821 2.60141,-1.67057 2.60142,-0.68906 2.60141,1.00751 2.60141,-0.61523 2.60142,-1.20196 2.60141,-0.17487 2.60142,-0.51238 2.60142,-1.41897 2.6014,-1.95998 2.60143,-0.45736 2.60142,-0.23783 2.6014,-0.13947 2.60142,-0.44231 2.60141,0.4029 2.60142,1.64572 2.60142,-0.92355 2.6014,-1.242 2.60142,0.80947 2.60142,0.44415 2.60141,-2.11253 2.60142,-1.66081 2.60141,1.91368 2.60142,0.2555 2.60142,-1.51325 2.6014,0.96155 2.60142,-0.94527 2.60142,2.23694 2.60141,-5.60621 2.60142,-0.46811"
       style="fill:none;stroke:#9467bd;stroke-width:0.863205;stroke-linecap:square;stroke-linejoin:round;stroke-miterlimit:10;stroke-dasharray:none;stroke-opacity:1"
       id="path314" /><path
       d="M 42.069823,163.86466 V 317.00408"
       style="fill:none;stroke:#000000;stroke-width:0.460376;stroke-linecap:square;stroke-linejoin:miter;stroke-miterlimit:10;stroke-dasharray:none;stroke-opacity:1"
       id="path328" /><path
       d="M 247.5816,163.86466 V 317.00408"
       style="fill:none;stroke:#000000;stroke-width:0.460376;stroke-linecap:square;stroke-linejoin:miter;stroke-miterlimit:10;stroke-dasharray:none;stroke-opacity:1"
       id="path330" /><path
       d="M 42.069823,163.86466 H 247.5816"
       style="fill:none;stroke:#000000;stroke-width:0.460376;stroke-linecap:square;stroke-linejoin:miter;stroke-miterlimit:10;stroke-dasharray:none;stroke-opacity:1"
       id="path332" /><path
       d="M 42.069823,317.00408 H 247.5816"
       style="fill:none;stroke:#000000;stroke-width:0.460376;stroke-linecap:square;stroke-linejoin:miter;stroke-miterlimit:10;stroke-dasharray:none;stroke-opacity:1"
       id="path334" /><path
       d="m 53.814345,207.28807 h 11.5094"
       style="fill:none;stroke:#1f77b4;stroke-width:0.863205;stroke-linecap:square;stroke-linejoin:round;stroke-miterlimit:10;stroke-dasharray:none;stroke-opacity:1"
       id="path344" /><path
       d="m 53.814345,198.84484 h 11.5094"
       style="fill:none;stroke:#ff7f0e;stroke-width:0.863205;stroke-linecap:square;stroke-linejoin:round;stroke-miterlimit:10;stroke-dasharray:none;stroke-opacity:1"
       id="path350" /><path
       d="m 53.814345,190.40163 h 11.5094"
       style="fill:none;stroke:#2ca02c;stroke-width:0.863205;stroke-linecap:square;stroke-linejoin:round;stroke-miterlimit:10;stroke-dasharray:none;stroke-opacity:1"
       id="path356" /><path
       d="m 53.814345,181.9584 h 11.5094"
       style="fill:none;stroke:#9467bd;stroke-width:0.863205;stroke-linecap:square;stroke-linejoin:round;stroke-miterlimit:10;stroke-dasharray:none;stroke-opacity:1"
       id="path362" /><path
       d="m 53.814345,173.51519 h 11.5094"
       style="fill:none;stroke:#d62728;stroke-width:0.863205;stroke-linecap:square;stroke-linejoin:round;stroke-miterlimit:10;stroke-dasharray:none;stroke-opacity:1"
       id="path368" /></g><g
     inkscape:groupmode="layer"
     id="layer1"
     inkscape:label="text"
     style="display:inline"
     transform="translate(-28.023958,-17.206424)"><text
       style="font-variant:normal;font-weight:normal;font-size:7.67293px;font-family:'DejaVu Sans';-inkscape-font-specification:DejaVuSans;writing-mode:lr-tb;fill:#000000;fill-opacity:1;fill-rule:nonzero;stroke:none;stroke-width:0.767293"
       id="text32"
       x="53.550964"
       y="253.51155"><tspan
         x="53.550964 58.43095 60.870941 65.750931"
         y="253.51155"
         sodipodi:role="line"
         id="tspan30"
         style="stroke-width:0.767293">0.00</tspan></text><text
       style="font-variant:normal;font-weight:normal;font-size:7.67293px;font-family:'DejaVu Sans';-inkscape-font-specification:DejaVuSans;writing-mode:lr-tb;fill:#000000;fill-opacity:1;fill-rule:nonzero;stroke:none;stroke-width:0.767293"
       id="text50"
       x="82.236496"
       y="253.51155"><tspan
         x="82.236496 87.116478 89.556473 94.436455"
         y="253.51155"
         sodipodi:role="line"
         id="tspan48"
         style="stroke-width:0.767293">0.25</tspan></text><text
       style="font-variant:normal;font-weight:normal;font-size:7.67293px;font-family:'DejaVu Sans';-inkscape-font-specification:DejaVuSans;writing-mode:lr-tb;fill:#000000;fill-opacity:1;fill-rule:nonzero;stroke:none;stroke-width:0.767293"
       id="text68"
       x="116.92202"
       y="253.51155"><tspan
         x="116.92202 121.802 124.242 129.12198"
         y="253.51155"
         sodipodi:role="line"
         id="tspan66"
         style="stroke-width:0.767293">0.50</tspan></text><text
       style="font-variant:normal;font-weight:normal;font-size:7.67293px;font-family:'DejaVu Sans';-inkscape-font-specification:DejaVuSans;writing-mode:lr-tb;fill:#000000;fill-opacity:1;fill-rule:nonzero;stroke:none;stroke-width:0.767293"
       id="text86"
       x="151.60756"
       y="253.51155"><tspan
         x="151.60756 156.48755 158.92752 163.80751"
         y="253.51155"
         sodipodi:role="line"
         id="tspan84"
         style="stroke-width:0.767293">0.75</tspan></text><text
       style="font-variant:normal;font-weight:normal;font-size:7.67293px;font-family:'DejaVu Sans';-inkscape-font-specification:DejaVuSans;writing-mode:lr-tb;fill:#000000;fill-opacity:1;fill-rule:nonzero;stroke:none;stroke-width:0.767293"
       id="text104"
       x="186.29309"
       y="253.51155"><tspan
         x="186.29309 191.17308 193.61307 198.49304"
         y="253.51155"
         sodipodi:role="line"
         id="tspan102"
         style="stroke-width:0.767293">1.00</tspan></text><text
       style="font-variant:normal;font-weight:normal;font-size:7.67293px;font-family:'DejaVu Sans';-inkscape-font-specification:DejaVuSans;writing-mode:lr-tb;fill:#000000;fill-opacity:1;fill-rule:nonzero;stroke:none;stroke-width:0.767293"
       id="text122"
       x="220.97862"
       y="253.51155"><tspan
         x="220.97862 225.8586 228.2986 233.17857"
         y="253.51155"
         sodipodi:role="line"
         id="tspan120"
         style="stroke-width:0.767293">1.25</tspan></text><text
       style="font-variant:normal;font-weight:normal;font-size:7.67293px;font-family:'DejaVu Sans';-inkscape-font-specification:DejaVuSans;writing-mode:lr-tb;fill:#000000;fill-opacity:1;fill-rule:nonzero;stroke:none;stroke-width:0.767293"
       id="text140"
       x="255.66415"
       y="253.51155"><tspan
         x="255.66415 260.54413 262.98413 267.86411"
         y="253.51155"
         sodipodi:role="line"
         id="tspan138"
         style="stroke-width:0.767293">1.50</tspan></text><text
       style="font-variant:normal;font-weight:normal;font-size:7.67293px;font-family:'DejaVu Sans';-inkscape-font-specification:DejaVuSans;writing-mode:lr-tb;fill:#000000;fill-opacity:1;fill-rule:nonzero;stroke:none;stroke-width:0.767293"
       id="text158"
       x="290.34967"
       y="253.51155"><tspan
         x="290.34967 295.22968 297.66965 302.54965"
         y="253.51155"
         sodipodi:role="line"
         id="tspan156"
         style="stroke-width:0.767293">1.75</tspan></text><text
       style="font-variant:normal;font-weight:normal;font-size:7.67293px;font-family:'DejaVu Sans';-inkscape-font-specification:DejaVuSans;writing-mode:lr-tb;fill:#000000;fill-opacity:1;fill-rule:nonzero;stroke:none;stroke-width:0.767293"
       id="text162"
       x="146.66173"
       y="264.00128"><tspan
         x="146.66173 152.60825 157.32709 162.19174 166.88757 174.36101 176.49408 180.71419 183.15419 188.02649 190.15958 194.15717 197.16495 201.86845 206.73309 210.95322 215.67207 218.11206 220.69783 223.13782 229.75955 234.63187"
         y="264.00128"
         sodipodi:role="line"
         id="tspan160"
         style="stroke-width:0.767293">Genomic distance / Mbp</tspan></text><text
       style="font-variant:normal;font-weight:normal;font-size:7.67293px;font-family:'DejaVu Sans';-inkscape-font-specification:DejaVuSans;writing-mode:lr-tb;fill:#000000;fill-opacity:1;fill-rule:nonzero;stroke:none;stroke-width:0.767293"
       id="text180"
       x="38.517288"
       y="245.22719"><tspan
         x="38.517288 43.397274 45.837265"
         y="245.22719"
         sodipodi:role="line"
         id="tspan178"
         style="stroke-width:0.767293">0.0</tspan></text><text
       style="font-variant:normal;font-weight:normal;font-size:7.67293px;font-family:'DejaVu Sans';-inkscape-font-specification:DejaVuSans;writing-mode:lr-tb;fill:#000000;fill-opacity:1;fill-rule:nonzero;stroke:none;stroke-width:0.767293"
       id="text198"
       x="38.517288"
       y="204.39"><tspan
         x="38.517288 43.397274 45.837265"
         y="204.39"
         sodipodi:role="line"
         id="tspan196"
         style="stroke-width:0.767293">0.2</tspan></text><text
       style="font-variant:normal;font-weight:normal;font-size:7.67293px;font-family:'DejaVu Sans';-inkscape-font-specification:DejaVuSans;writing-mode:lr-tb;fill:#000000;fill-opacity:1;fill-rule:nonzero;stroke:none;stroke-width:0.767293"
       id="text216"
       x="38.517288"
       y="163.55283"><tspan
         x="38.517288 43.397274 45.837265"
         y="163.55283"
         sodipodi:role="line"
         id="tspan214"
         style="stroke-width:0.767293">0.4</tspan></text><text
       style="font-variant:normal;font-weight:normal;font-size:7.67293px;font-family:'DejaVu Sans';-inkscape-font-specification:DejaVuSans;writing-mode:lr-tb;fill:#000000;fill-opacity:1;fill-rule:nonzero;stroke:none;stroke-width:0.767293"
       id="text234"
       x="38.517288"
       y="122.71541"><tspan
         x="38.517288 43.397274 45.837265"
         y="122.71541"
         sodipodi:role="line"
         id="tspan232"
         style="stroke-width:0.767293">0.6</tspan></text><text
       style="font-variant:normal;font-weight:normal;font-size:7.67293px;font-family:'DejaVu Sans';-inkscape-font-specification:DejaVuSans;writing-mode:lr-tb;fill:#000000;fill-opacity:1;fill-rule:nonzero;stroke:none;stroke-width:0.767293"
       id="text252"
       x="38.517288"
       y="81.878181"><tspan
         x="38.517288 43.397274 45.837265"
         y="81.878181"
         sodipodi:role="line"
         id="tspan250"
         style="stroke-width:0.767293">0.8</tspan></text><text
       style="font-variant:normal;font-weight:normal;font-size:7.67293px;font-family:'DejaVu Sans';-inkscape-font-specification:DejaVuSans;writing-mode:lr-tb;fill:#000000;fill-opacity:1;fill-rule:nonzero;stroke:none;stroke-width:0.767293"
       id="text270"
       x="38.517288"
       y="41.041157"><tspan
         x="38.517288 43.397274 45.837265"
         y="41.041157"
         sodipodi:role="line"
         id="tspan268"
         style="stroke-width:0.767293">1.0</tspan></text><text
       transform="rotate(-90)"
       style="font-variant:normal;font-weight:normal;font-size:7.67293px;font-family:'DejaVu Sans';-inkscape-font-specification:DejaVuSans;writing-mode:lr-tb;fill:#000000;fill-opacity:1;fill-rule:nonzero;stroke:none;stroke-width:0.767293"
       id="text274"
       x="-177.29077"
       y="33.853588"><tspan
         x="-177.29077 -172.66399 -167.94513 -163.24162 -160.08806 -156.09045 -151.39462 -146.53 -144.09 -139.86989 -135.17406 -132.02048 -128.8669 -124.14781 -122.01475 -117.31123 -114.30344 -112.17037 -107.47455"
         y="33.853588"
         sodipodi:role="line"
         id="tspan272"
         style="stroke-width:0.767293">Pearson correlation</tspan></text><text
       style="font-variant:normal;font-weight:normal;font-size:9.20751px;font-family:'DejaVu Sans';-inkscape-font-specification:DejaVuSans;writing-mode:lr-tb;fill:#000000;fill-opacity:1;fill-rule:nonzero;stroke:none;stroke-width:0.767293"
       id="text338"
       x="98.346245"
       y="23.203907"><tspan
         x="98.346245 103.89838 109.561 115.20521 118.98949 123.78661 129.42162 135.25919 138.18718 143.2513 148.88631 152.67059 156.45488 162.11751 164.6772 170.3214 173.93074 176.49043 182.12544 187.963 190.89099 196.34184 201.13896 204.06694 206.99495 212.84172 218.50433 224.34189 229.9769 238.94502 241.50471 246.56883 249.49684 255.34361 257.90332 262.70041 266.30975 271.95395 277.7915 282.85565"
         y="23.203907"
         sodipodi:role="line"
         id="tspan336"
         style="stroke-width:0.767293">Pearson correlation vs. genomic distance</tspan></text><text
       style="font-variant:normal;font-weight:normal;font-size:9.20751px;font-family:'DejaVu Sans';-inkscape-font-specification:DejaVuSans;writing-mode:lr-tb;fill:#000000;fill-opacity:1;fill-rule:nonzero;stroke:none;stroke-width:0.767293"
       id="text342"
       x="64.00058"
       y="33.524082"><tspan
         x="64.00058 71.136406 79.082489 84.938469 90.794449 96.650429 102.50641 108.36238 111.29038 114.21838 120.07436 123.00235 128.85832 131.78632 137.64229 140.5703 146.42627 149.35426 155.21024 158.13823 163.99422 169.85017 172.77818 178.63414 184.49013 187.41812 193.27411 199.1301 202.05807 207.91406 213.77005 216.69804 222.55402 228.41002 231.33798 237.19398 243.04994 245.97795 251.83392 257.68991 260.61789 266.47388 272.32986 275.25784 280.89285 286.73044 289.65842 295.69852 301.5545 307.41049 313.26648 316.19446 319.12244"
         y="33.524082"
         sodipodi:role="line"
         id="tspan340"
         style="stroke-width:0.767293">GM12878, 1,2,4,7,9,11,13,14,16,17,18,20,22 on K562, 3</tspan></text><text
       style="font-variant:normal;font-weight:normal;font-size:7.67293px;font-family:'DejaVu Sans';-inkscape-font-specification:DejaVuSans;writing-mode:lr-tb;fill:#000000;fill-opacity:1;fill-rule:nonzero;stroke:none;stroke-width:0.767293"
       id="text348"
       x="93.236633"
       y="187.10139"><tspan
         sodipodi:role="line"
         id="tspan346"
         style="stroke-width:0.767293"
         x="93.236633"
         y="187.10139">5k25, 250ep / AUC: 0.477</tspan></text><text
       style="font-variant:normal;font-weight:normal;font-size:7.67293px;font-family:'DejaVu Sans';-inkscape-font-specification:DejaVuSans;writing-mode:lr-tb;fill:#000000;fill-opacity:1;fill-rule:nonzero;stroke:none;stroke-width:0.767293"
       id="text354"
       x="93.236633"
       y="198.35902"><tspan
         sodipodi:role="line"
         id="tspan352"
         style="stroke-width:0.767293"
         x="93.236633"
         y="198.35902">5k25, 500ep / AUC: 0.481</tspan></text><text
       style="font-variant:normal;font-weight:normal;font-size:7.67293px;font-family:'DejaVu Sans';-inkscape-font-specification:DejaVuSans;writing-mode:lr-tb;fill:#000000;fill-opacity:1;fill-rule:nonzero;stroke:none;stroke-width:0.767293"
       id="text360"
       x="93.236633"
       y="209.6165"><tspan
         sodipodi:role="line"
         id="tspan358"
         style="stroke-width:0.767293"
         x="93.236633"
         y="209.6165">5k25, 1000ep / AUC: 0.495</tspan></text><text
       style="font-variant:normal;font-weight:normal;font-size:7.67293px;font-family:'DejaVu Sans';-inkscape-font-specification:DejaVuSans;writing-mode:lr-tb;fill:#000000;fill-opacity:1;fill-rule:nonzero;stroke:none;stroke-width:0.767293"
       id="text366"
       x="93.236633"
       y="220.87413"><tspan
         x="93.236633 95.369705 100.23434 102.36741 105.37521 107.50828 112.21177 114.34486 116.78486 119.22484 124.1048 128.98486 133.86484 138.58372 143.45601 145.89601 148.48181 150.92178 156.17004 161.78665 167.14236 169.72812 172.16812 177.0481 179.4881 184.3681 189.24808"
         y="220.87413"
         sodipodi:role="line"
         id="tspan364"
         style="stroke-width:0.767293">initial, 500ep / AUC: 0.562</tspan></text><text
       style="font-variant:normal;font-weight:normal;font-size:7.67293px;font-family:'DejaVu Sans';-inkscape-font-specification:DejaVuSans;writing-mode:lr-tb;fill:#000000;fill-opacity:1;fill-rule:nonzero;stroke:none;stroke-width:0.767293"
       id="text372"
       x="93.236633"
       y="232.13174"><tspan
         x="93.236633 96.244431 99.397995 104.10151 108.96613 112.96372 115.66459 120.38347 123.53702 125.977 131.9236 138.54533 143.42534 148.3053 153.18533 158.06528 162.94525 165.38525 167.97104 170.41104 175.6593 181.27591 186.63162 189.21738 191.65738 196.53735 198.97736 203.8573 208.73734"
         y="232.13174"
         sodipodi:role="line"
         id="tspan370"
         style="stroke-width:0.767293">transfer GM12878 / AUC: 0.652</tspan></text></g></svg>
