<?xml version="1.0" encoding="UTF-8" standalone="no"?>
<svg
   xmlns:dc="http://purl.org/dc/elements/1.1/"
   xmlns:cc="http://creativecommons.org/ns#"
   xmlns:rdf="http://www.w3.org/1999/02/22-rdf-syntax-ns#"
   xmlns:svg="http://www.w3.org/2000/svg"
   xmlns="http://www.w3.org/2000/svg"
   xmlns:sodipodi="http://sodipodi.sourceforge.net/DTD/sodipodi-0.dtd"
   xmlns:inkscape="http://www.inkscape.org/namespaces/inkscape"
   version="1.1"
   id="svg2"
   xml:space="preserve"
   width="80mm"
   height="65.300003mm"
   viewBox="0 0 302.36219 246.80316"
   sodipodi:docname="pearson_chr05.svg"
   inkscape:version="1.0.2 (1.0.2+r75+1)"><metadata
     id="metadata8"><rdf:RDF><cc:Work
         rdf:about=""><dc:format>image/svg+xml</dc:format><dc:type
           rdf:resource="http://purl.org/dc/dcmitype/StillImage" /><dc:title /></cc:Work></rdf:RDF></metadata><defs
     id="defs6"><clipPath
       clipPathUnits="userSpaceOnUse"
       id="clipPath22"><path
         d="M 57.6,38.016 H 414.72 V 304.128 H 57.6 Z"
         id="path20" /></clipPath><clipPath
       clipPathUnits="userSpaceOnUse"
       id="clipPath40"><path
         d="M 57.6,38.016 H 414.72 V 304.128 H 57.6 Z"
         id="path38" /></clipPath><clipPath
       clipPathUnits="userSpaceOnUse"
       id="clipPath58"><path
         d="M 57.6,38.016 H 414.72 V 304.128 H 57.6 Z"
         id="path56" /></clipPath><clipPath
       clipPathUnits="userSpaceOnUse"
       id="clipPath76"><path
         d="M 57.6,38.016 H 414.72 V 304.128 H 57.6 Z"
         id="path74" /></clipPath><clipPath
       clipPathUnits="userSpaceOnUse"
       id="clipPath94"><path
         d="M 57.6,38.016 H 414.72 V 304.128 H 57.6 Z"
         id="path92" /></clipPath><clipPath
       clipPathUnits="userSpaceOnUse"
       id="clipPath112"><path
         d="M 57.6,38.016 H 414.72 V 304.128 H 57.6 Z"
         id="path110" /></clipPath><clipPath
       clipPathUnits="userSpaceOnUse"
       id="clipPath130"><path
         d="M 57.6,38.016 H 414.72 V 304.128 H 57.6 Z"
         id="path128" /></clipPath><clipPath
       clipPathUnits="userSpaceOnUse"
       id="clipPath148"><path
         d="M 57.6,38.016 H 414.72 V 304.128 H 57.6 Z"
         id="path146" /></clipPath><clipPath
       clipPathUnits="userSpaceOnUse"
       id="clipPath170"><path
         d="M 57.6,38.016 H 414.72 V 304.128 H 57.6 Z"
         id="path168" /></clipPath><clipPath
       clipPathUnits="userSpaceOnUse"
       id="clipPath188"><path
         d="M 57.6,38.016 H 414.72 V 304.128 H 57.6 Z"
         id="path186" /></clipPath><clipPath
       clipPathUnits="userSpaceOnUse"
       id="clipPath206"><path
         d="M 57.6,38.016 H 414.72 V 304.128 H 57.6 Z"
         id="path204" /></clipPath><clipPath
       clipPathUnits="userSpaceOnUse"
       id="clipPath224"><path
         d="M 57.6,38.016 H 414.72 V 304.128 H 57.6 Z"
         id="path222" /></clipPath><clipPath
       clipPathUnits="userSpaceOnUse"
       id="clipPath242"><path
         d="M 57.6,38.016 H 414.72 V 304.128 H 57.6 Z"
         id="path240" /></clipPath><clipPath
       clipPathUnits="userSpaceOnUse"
       id="clipPath260"><path
         d="M 57.6,38.016 H 414.72 V 304.128 H 57.6 Z"
         id="path258" /></clipPath><clipPath
       clipPathUnits="userSpaceOnUse"
       id="clipPath282"><path
         d="M 57.6,38.016 H 414.72 V 304.128 H 57.6 Z"
         id="path280" /></clipPath><clipPath
       clipPathUnits="userSpaceOnUse"
       id="clipPath292"><path
         d="M 57.6,38.016 H 414.72 V 304.128 H 57.6 Z"
         id="path290" /></clipPath><clipPath
       clipPathUnits="userSpaceOnUse"
       id="clipPath302"><path
         d="M 57.6,38.016 H 414.72 V 304.128 H 57.6 Z"
         id="path300" /></clipPath><clipPath
       clipPathUnits="userSpaceOnUse"
       id="clipPath312"><path
         d="M 57.6,38.016 H 414.72 V 304.128 H 57.6 Z"
         id="path310" /></clipPath><clipPath
       clipPathUnits="userSpaceOnUse"
       id="clipPath322"><path
         d="M 57.6,38.016 H 414.72 V 304.128 H 57.6 Z"
         id="path320" /></clipPath></defs><sodipodi:namedview
     pagecolor="#ffffff"
     bordercolor="#666666"
     borderopacity="1"
     objecttolerance="10"
     gridtolerance="10"
     guidetolerance="10"
     inkscape:pageopacity="0"
     inkscape:pageshadow="2"
     inkscape:window-width="1920"
     inkscape:window-height="1020"
     id="namedview4"
     showgrid="false"
     fit-margin-top="0"
     fit-margin-left="0"
     fit-margin-right="0"
     fit-margin-bottom="0"
     units="mm"
     inkscape:zoom="5.2603345"
     inkscape:cx="101.47363"
     inkscape:cy="210.22337"
     inkscape:window-x="0"
     inkscape:window-y="0"
     inkscape:window-maximized="1"
     inkscape:current-layer="g10"
     inkscape:document-rotation="0" /><g
     id="g10"
     inkscape:groupmode="layer"
     inkscape:label="pearson_chr05"
     transform="matrix(1.3333333,0,0,-1.3333333,-28.023958,443.59358)"><path
       d="M 57.6,38.016 V 304.128"
       style="fill:none;stroke:#b0b0b0;stroke-width:0.8;stroke-linecap:square;stroke-linejoin:round;stroke-miterlimit:10;stroke-dasharray:none;stroke-opacity:1"
       id="path24"
       transform="matrix(0.5754808,0,0,0.5754808,8.9225312,141.98393)" /><path
       d="M 102.80506,38.016 V 304.128"
       style="fill:none;stroke:#b0b0b0;stroke-width:0.8;stroke-linecap:square;stroke-linejoin:round;stroke-miterlimit:10;stroke-dasharray:none;stroke-opacity:1"
       id="path42"
       transform="matrix(0.5754808,0,0,0.5754808,8.9225312,141.98393)" /><path
       d="M 94.099519,163.86141 V 317.00375"
       style="fill:none;stroke:#b0b0b0;stroke-width:0.460385;stroke-linecap:square;stroke-linejoin:round;stroke-miterlimit:10;stroke-dasharray:none;stroke-opacity:1"
       id="path60" /><path
       d="M 193.21519,38.016 V 304.128"
       style="fill:none;stroke:#b0b0b0;stroke-width:0.8;stroke-linecap:square;stroke-linejoin:round;stroke-miterlimit:10;stroke-dasharray:none;stroke-opacity:1"
       id="path78"
       transform="matrix(0.5754808,0,0,0.5754808,8.9225312,141.98393)" /><path
       d="M 238.42025,38.016 V 304.128"
       style="fill:none;stroke:#b0b0b0;stroke-width:0.8;stroke-linecap:square;stroke-linejoin:round;stroke-miterlimit:10;stroke-dasharray:none;stroke-opacity:1"
       id="path96"
       transform="matrix(0.5754808,0,0,0.5754808,8.9225312,141.98393)" /><path
       d="M 283.62532,38.016 V 304.128"
       style="fill:none;stroke:#b0b0b0;stroke-width:0.8;stroke-linecap:square;stroke-linejoin:round;stroke-miterlimit:10;stroke-dasharray:none;stroke-opacity:1"
       id="path114"
       transform="matrix(0.5754808,0,0,0.5754808,8.9225312,141.98393)" /><path
       d="M 328.83038,38.016 V 304.128"
       style="fill:none;stroke:#b0b0b0;stroke-width:0.8;stroke-linecap:square;stroke-linejoin:round;stroke-miterlimit:10;stroke-dasharray:none;stroke-opacity:1"
       id="path132"
       transform="matrix(0.5754808,0,0,0.5754808,8.9225312,141.98393)" /><path
       d="M 374.03544,38.016 V 304.128"
       style="fill:none;stroke:#b0b0b0;stroke-width:0.8;stroke-linecap:square;stroke-linejoin:round;stroke-miterlimit:10;stroke-dasharray:none;stroke-opacity:1"
       id="path150"
       transform="matrix(0.5754808,0,0,0.5754808,8.9225312,141.98393)" /><path
       d="M 57.6,38.016 H 414.72"
       style="fill:none;stroke:#b0b0b0;stroke-width:0.8;stroke-linecap:square;stroke-linejoin:round;stroke-miterlimit:10;stroke-dasharray:none;stroke-opacity:1"
       id="path172"
       transform="matrix(0.5754808,0,0,0.5754808,8.9225312,141.98393)" /><path
       d="M 57.6,91.2384 H 414.72"
       style="fill:none;stroke:#b0b0b0;stroke-width:0.8;stroke-linecap:square;stroke-linejoin:round;stroke-miterlimit:10;stroke-dasharray:none;stroke-opacity:1"
       id="path190"
       transform="matrix(0.5754808,0,0,0.5754808,8.9225312,141.98393)" /><path
       d="M 57.6,144.4608 H 414.72"
       style="fill:none;stroke:#b0b0b0;stroke-width:0.8;stroke-linecap:square;stroke-linejoin:round;stroke-miterlimit:10;stroke-dasharray:none;stroke-opacity:1"
       id="path208"
       transform="matrix(0.5754808,0,0,0.5754808,8.9225312,141.98393)" /><path
       d="M 57.6,197.6832 H 414.72"
       style="fill:none;stroke:#b0b0b0;stroke-width:0.8;stroke-linecap:square;stroke-linejoin:round;stroke-miterlimit:10;stroke-dasharray:none;stroke-opacity:1"
       id="path226"
       transform="matrix(0.5754808,0,0,0.5754808,8.9225312,141.98393)" /><path
       d="M 57.6,250.9056 H 414.72"
       style="fill:none;stroke:#b0b0b0;stroke-width:0.8;stroke-linecap:square;stroke-linejoin:round;stroke-miterlimit:10;stroke-dasharray:none;stroke-opacity:1"
       id="path244"
       transform="matrix(0.5754808,0,0,0.5754808,8.9225312,141.98393)" /><path
       d="M 57.6,304.128 H 414.72"
       style="fill:none;stroke:#b0b0b0;stroke-width:0.8;stroke-linecap:square;stroke-linejoin:round;stroke-miterlimit:10;stroke-dasharray:none;stroke-opacity:1"
       id="path262"
       transform="matrix(0.5754808,0,0,0.5754808,8.9225312,141.98393)" /><path
       d="m 42.070226,299.77189 2.601464,-4.90679 2.601465,-2.60128 2.601465,-0.34586 2.601464,-0.58593 2.601465,0.2032 2.601465,0.14265 2.601464,-0.0192 2.601465,0.32184 2.601465,-0.86616 2.601462,-0.81004 2.601466,-0.0152 2.601468,-1.00048 2.60146,-0.61335 2.601468,-0.0535 2.601466,-1.47909 2.601461,-0.38338 2.601467,-0.12827 2.601461,-1.40933 2.601466,-0.77334 2.601468,-0.5737 2.60146,-0.99652 2.601467,0.16028 2.601462,-0.76675 2.60147,-2.36878 2.60147,0.93947 2.60145,0.28207 2.60147,0.32499 2.60147,-0.0854 2.60146,-1.74433 2.60146,0.56274 2.60148,-2.08362 2.60146,-0.37543 2.60146,-0.002 2.60146,-1.89495 2.60147,0.25446 2.60146,-0.94041 2.60146,0.27874 2.60147,-1.55105 2.60147,1.3527 2.60146,-1.33347 2.60147,-1.78521 2.60146,-0.17892 2.60146,-0.41194 2.60147,2.74772 2.60146,-1.69132 2.60147,0.6817 2.60147,-1.1916 2.60146,-1.39998 2.60146,1.84157 2.60147,-3.80821 2.60146,1.08372 2.60146,-3.43986 2.60147,-0.63287 2.60147,-1.44922 2.60146,-1.42388 2.60146,-0.77264 2.60147,1.2406 2.60146,-3.87718 2.60146,1.48832 2.60147,-3.20289 2.60147,3.28217 2.60146,-0.96736 2.60147,1.72345 2.60146,-0.96998 2.60146,-0.26184 2.60147,0.36499 2.60146,-0.46603 2.60148,1.26429 2.60146,-1.54071 2.60146,-0.82969 2.60147,-0.0178 2.60146,-3.66633 2.60146,1.10055 2.60147,0.38275 2.60146,-2.77844 2.60147,-2.76395 2.60147,4.43103 2.60146,-3.29025 2.60146,-1.17143"
       style="fill:none;stroke:#d62728;stroke-width:0.863221;stroke-linecap:square;stroke-linejoin:round;stroke-miterlimit:10;stroke-dasharray:none;stroke-opacity:1"
       id="path324" /><g
       id="g16"
       transform="matrix(0.5754808,0,0,0.5754808,8.9225313,141.98393)"><g
         id="g18"
         clip-path="url(#clipPath22)" /></g><path
       d="m 42.070226,163.86141 v -2.01417"
       style="fill:#000000;fill-opacity:1;fill-rule:nonzero;stroke:#000000;stroke-width:0.460385;stroke-linecap:butt;stroke-linejoin:round;stroke-miterlimit:10;stroke-dasharray:none;stroke-opacity:1"
       id="path28" /><g
       id="g34"
       transform="matrix(0.5754808,0,0,0.5754808,8.9225313,141.98393)"><g
         id="g36"
         clip-path="url(#clipPath40)" /></g><path
       d="m 68.08487,163.86141 v -2.01417"
       style="fill:#000000;fill-opacity:1;fill-rule:nonzero;stroke:#000000;stroke-width:0.460385;stroke-linecap:butt;stroke-linejoin:round;stroke-miterlimit:10;stroke-dasharray:none;stroke-opacity:1"
       id="path46" /><path
       d="m 94.099521,163.86141 v -2.01417"
       style="fill:#000000;fill-opacity:1;fill-rule:nonzero;stroke:#000000;stroke-width:0.460385;stroke-linecap:butt;stroke-linejoin:round;stroke-miterlimit:10;stroke-dasharray:none;stroke-opacity:1"
       id="path64" /><g
       id="g70"
       transform="matrix(0.5754808,0,0,0.5754808,8.9225313,141.98393)"><g
         id="g72"
         clip-path="url(#clipPath76)" /></g><path
       d="m 120.11416,163.86141 v -2.01417"
       style="fill:#000000;fill-opacity:1;fill-rule:nonzero;stroke:#000000;stroke-width:0.460385;stroke-linecap:butt;stroke-linejoin:round;stroke-miterlimit:10;stroke-dasharray:none;stroke-opacity:1"
       id="path82" /><g
       id="g88"
       transform="matrix(0.5754808,0,0,0.5754808,8.9225313,141.98393)"><g
         id="g90"
         clip-path="url(#clipPath94)" /></g><path
       d="m 146.12881,163.86141 v -2.01417"
       style="fill:#000000;fill-opacity:1;fill-rule:nonzero;stroke:#000000;stroke-width:0.460385;stroke-linecap:butt;stroke-linejoin:round;stroke-miterlimit:10;stroke-dasharray:none;stroke-opacity:1"
       id="path100" /><g
       id="g106"
       transform="matrix(0.5754808,0,0,0.5754808,8.9225313,141.98393)"><g
         id="g108"
         clip-path="url(#clipPath112)" /></g><path
       d="m 172.14346,163.86141 v -2.01417"
       style="fill:#000000;fill-opacity:1;fill-rule:nonzero;stroke:#000000;stroke-width:0.460385;stroke-linecap:butt;stroke-linejoin:round;stroke-miterlimit:10;stroke-dasharray:none;stroke-opacity:1"
       id="path118" /><g
       id="g124"
       transform="matrix(0.5754808,0,0,0.5754808,8.9225313,141.98393)"><g
         id="g126"
         clip-path="url(#clipPath130)" /></g><path
       d="m 198.1581,163.86141 v -2.01417"
       style="fill:#000000;fill-opacity:1;fill-rule:nonzero;stroke:#000000;stroke-width:0.460385;stroke-linecap:butt;stroke-linejoin:round;stroke-miterlimit:10;stroke-dasharray:none;stroke-opacity:1"
       id="path136" /><g
       id="g142"
       transform="matrix(0.5754808,0,0,0.5754808,8.9225313,141.98393)"><g
         id="g144"
         clip-path="url(#clipPath148)" /></g><path
       d="m 224.17275,163.86141 v -2.01417"
       style="fill:#000000;fill-opacity:1;fill-rule:nonzero;stroke:#000000;stroke-width:0.460385;stroke-linecap:butt;stroke-linejoin:round;stroke-miterlimit:10;stroke-dasharray:none;stroke-opacity:1"
       id="path154" /><g
       id="g164"
       transform="matrix(0.5754808,0,0,0.5754808,8.9225313,141.98393)"><g
         id="g166"
         clip-path="url(#clipPath170)" /></g><path
       d="M 42.070226,163.86141 H 40.056043"
       style="fill:#000000;fill-opacity:1;fill-rule:nonzero;stroke:#000000;stroke-width:0.460385;stroke-linecap:butt;stroke-linejoin:round;stroke-miterlimit:10;stroke-dasharray:none;stroke-opacity:1"
       id="path176" /><g
       id="g182"
       transform="matrix(0.5754808,0,0,0.5754808,8.9225313,141.98393)"><g
         id="g184"
         clip-path="url(#clipPath188)" /></g><path
       d="M 42.070226,194.48989 H 40.056043"
       style="fill:#000000;fill-opacity:1;fill-rule:nonzero;stroke:#000000;stroke-width:0.460385;stroke-linecap:butt;stroke-linejoin:round;stroke-miterlimit:10;stroke-dasharray:none;stroke-opacity:1"
       id="path194" /><g
       id="g200"
       transform="matrix(0.5754808,0,0,0.5754808,8.9225313,141.98393)"><g
         id="g202"
         clip-path="url(#clipPath206)" /></g><path
       d="M 42.070226,225.11835 H 40.056043"
       style="fill:#000000;fill-opacity:1;fill-rule:nonzero;stroke:#000000;stroke-width:0.460385;stroke-linecap:butt;stroke-linejoin:round;stroke-miterlimit:10;stroke-dasharray:none;stroke-opacity:1"
       id="path212" /><g
       id="g218"
       transform="matrix(0.5754808,0,0,0.5754808,8.9225313,141.98393)"><g
         id="g220"
         clip-path="url(#clipPath224)" /></g><path
       d="M 42.070226,255.74682 H 40.056043"
       style="fill:#000000;fill-opacity:1;fill-rule:nonzero;stroke:#000000;stroke-width:0.460385;stroke-linecap:butt;stroke-linejoin:round;stroke-miterlimit:10;stroke-dasharray:none;stroke-opacity:1"
       id="path230" /><g
       id="g236"
       transform="matrix(0.5754808,0,0,0.5754808,8.9225313,141.98393)"><g
         id="g238"
         clip-path="url(#clipPath242)" /></g><path
       d="M 42.070226,286.37529 H 40.056043"
       style="fill:#000000;fill-opacity:1;fill-rule:nonzero;stroke:#000000;stroke-width:0.460385;stroke-linecap:butt;stroke-linejoin:round;stroke-miterlimit:10;stroke-dasharray:none;stroke-opacity:1"
       id="path248" /><g
       id="g254"
       transform="matrix(0.5754808,0,0,0.5754808,8.9225313,141.98393)"><g
         id="g256"
         clip-path="url(#clipPath260)" /></g><path
       d="M 42.070226,317.00376 H 40.056043"
       style="fill:#000000;fill-opacity:1;fill-rule:nonzero;stroke:#000000;stroke-width:0.460385;stroke-linecap:butt;stroke-linejoin:round;stroke-miterlimit:10;stroke-dasharray:none;stroke-opacity:1"
       id="path266" /><g
       id="g278"
       clip-path="url(#clipPath282)"
       transform="matrix(0.5754808,0,0,0.5754808,8.9225313,141.98393)"><path
         d="m 57.6,251.97269 4.520506,6.90627 4.520507,-8.50397 4.520506,-9.28097 4.520506,-7.66474 4.520507,-5.85921 4.520506,-3.73055 4.520506,-5.50799 4.520507,-5.23971 4.520506,0.50653 4.520503,-2.04592 4.52051,-5.84014 4.52051,-1.67266 4.5205,-4.58834 4.52051,-4.01477 4.52051,-4.79974 4.5205,-0.65868 4.52051,-1.55213 4.5205,-0.89335 4.52051,-1.55778 4.52051,-2.38305 4.5205,-2.78542 4.52051,-2.0637 4.52051,0.67175 4.5205,-1.43649 4.52051,-0.91293 4.5205,-4.94451 4.52051,3.19319 4.52051,-5.61336 4.5205,-0.5625 4.52051,-1.87315 4.52051,-0.15603 4.5205,-1.36458 4.52051,-0.87004 4.5205,-3.89476 4.52051,-1.09645 4.52051,-1.38007 4.5205,2.64285 4.52051,-1.56055 4.52051,-0.8782 4.5205,-2.11789 4.52051,-0.35532 4.52051,2.26213 4.5205,-3.08435 4.52051,-3.15528 4.5205,0.63235 4.52051,-0.30329 4.52051,-3.47214 4.5205,0.5882 4.52051,-1.81484 4.52051,-1.14115 4.5205,1.33986 4.52051,3.02188 4.5205,-0.58526 4.52051,-0.66914 4.52051,-0.53065 4.5205,-1.45393 4.52051,-3.72113 4.52051,-0.15894 4.5205,0.84714 4.52051,-1.07144 4.52051,-1.82022 4.5205,0.77325 4.52051,1.26632 4.5205,-0.49206 4.52051,3.42965 4.52051,-3.91313 4.5205,0.41498 4.52051,-1.50831 4.52051,-0.29131 4.5205,-0.7632 4.52051,1.08562 4.52051,-3.61986 4.5205,3.23237 4.52051,-3.86364 4.5205,-5.34686 4.52051,0.0744 4.52051,-3.76779 4.5205,-13.47474 4.52051,3.93848"
         style="fill:none;stroke:#1f77b4;stroke-width:1.5;stroke-linecap:square;stroke-linejoin:round;stroke-miterlimit:10;stroke-dasharray:none;stroke-opacity:1"
         id="path284" /></g><g
       id="g288"
       clip-path="url(#clipPath292)"
       transform="matrix(0.5754808,0,0,0.5754808,8.9225313,141.98393)"><path
         d="m 57.6,254.53645 4.520506,5.40322 4.520507,-8.95836 4.520506,-9.08452 4.520506,-7.13887 4.520507,-5.66684 4.520506,-3.95631 4.520506,-6.2429 4.520507,-5.40305 4.520506,0.54016 4.520503,-1.59665 4.52051,-5.71003 4.52051,-1.02881 4.5205,-4.20904 4.52051,-3.83627 4.52051,-5.03883 4.5205,-1.15558 4.52051,-1.95146 4.5205,-0.86862 4.52051,-1.72164 4.52051,-2.39756 4.5205,-2.53047 4.52051,-1.99498 4.52051,1.41166 4.5205,-1.4697 4.52051,-0.89241 4.5205,-5.09894 4.52051,3.05191 4.52051,-5.43737 4.5205,-0.48862 4.52051,-1.72188 4.52051,-0.15923 4.5205,-1.12689 4.52051,-0.93053 4.5205,-3.49695 4.52051,-1.22517 4.52051,-1.34614 4.5205,2.39746 4.52051,-0.87735 4.52051,-1.08977 4.5205,-2.43989 4.52051,0.49719 4.52051,2.0376 4.5205,-2.89077 4.52051,-3.84069 4.5205,1.47071 4.52051,-1.18955 4.52051,-3.5682 4.5205,0.28582 4.52051,-2.51758 4.52051,-0.79657 4.5205,1.40442 4.52051,1.86341 4.5205,0.0242 4.52051,-0.29699 4.52051,-1.25916 4.5205,-0.42369 4.52051,-4.59033 4.52051,0.38825 4.5205,1.54183 4.52051,-1.91058 4.52051,-2.60396 4.5205,0.39674 4.52051,1.26638 4.5205,-0.58977 4.52051,2.19101 4.52051,-2.24119 4.5205,0.12399 4.52051,-1.25501 4.52051,-2.188 4.5205,0.1 4.52051,0.31002 4.52051,-2.84469 4.5205,0.78176 4.52051,-1.59309 4.5205,-5.54318 4.52051,0.66106 4.52051,-1.51014 4.5205,-2.00822 4.52051,-8.45731"
         style="fill:none;stroke:#ff7f0e;stroke-width:1.5;stroke-linecap:square;stroke-linejoin:round;stroke-miterlimit:10;stroke-dasharray:none;stroke-opacity:1"
         id="path294" /></g><g
       id="g298"
       clip-path="url(#clipPath302)"
       transform="matrix(0.5754808,0,0,0.5754808,8.9225313,141.98393)"><path
         d="m 57.6,257.30106 4.520506,4.4193 4.520507,-9.12034 4.520506,-8.96887 4.520506,-7.17848 4.520507,-6.26682 4.520506,-4.63557 4.520506,-6.33867 4.520507,-5.34536 4.520506,0.51545 4.520503,-1.98502 4.52051,-5.68061 4.52051,-0.92701 4.5205,-3.69448 4.52051,-3.56194 4.52051,-5.01297 4.5205,-0.81555 4.52051,-1.97569 4.5205,-0.88953 4.52051,-1.76143 4.52051,-2.38479 4.5205,-2.46447 4.52051,-2.02364 4.52051,1.73676 4.5205,-1.70841 4.52051,-0.65891 4.5205,-4.8448 4.52051,2.90186 4.52051,-5.21173 4.5205,-0.77239 4.52051,-2.05711 4.52051,-0.24212 4.5205,-1.23029 4.52051,-0.95484 4.5205,-3.35727 4.52051,-1.54669 4.52051,-1.26496 4.5205,1.85887 4.52051,-1.38621 4.52051,-1.19284 4.5205,-2.94449 4.52051,0.0979 4.52051,2.78513 4.5205,-3.20471 4.52051,-4.23952 4.5205,1.26789 4.52051,-1.24591 4.52051,-2.81341 4.5205,0.71435 4.52051,-2.55154 4.52051,-1.41785 4.5205,1.80953 4.52051,0.72455 4.5205,0.36509 4.52051,-0.18853 4.52051,-0.50004 4.5205,0.13725 4.52051,-4.02874 4.52051,0.0144 4.5205,1.81364 4.52051,-1.73333 4.52051,-2.22927 4.5205,0.0861 4.52051,2.70312 4.5205,-1.4373 4.52051,1.32971 4.52051,-2.78293 4.5205,0.14306 4.52051,-1.00372 4.52051,-2.58242 4.5205,2.5013 4.52051,-0.29726 4.52051,-2.64364 4.5205,-0.74356 4.52051,-4.35328 4.5205,-5.25113 4.52051,0.41614 4.52051,-5.34224 4.5205,-1.64448 4.52051,-5.56589"
         style="fill:none;stroke:#2ca02c;stroke-width:1.5;stroke-linecap:square;stroke-linejoin:round;stroke-miterlimit:10;stroke-dasharray:none;stroke-opacity:1"
         id="path304" /></g><path
       d="m 42.070226,292.73558 2.601464,2.80452 2.601465,-5.41625 2.601465,-5.46879 2.601464,-4.09735 2.601465,-2.97781 2.601465,-2.00381 2.601464,-3.21501 2.601465,-3.25042 2.601465,0.68778 2.601462,-1.07861 2.601466,-2.92222 2.601468,-0.73264 2.60146,-2.31151 2.601468,-2.88847 2.601466,-2.60041 2.601461,-0.74972 2.601467,-0.82627 2.601461,-0.17928 2.601466,-0.50234 2.601468,-1.2718 2.60146,-1.26591 2.601467,-1.20422 2.601462,0.53481 2.60147,-1.08855 2.60147,-0.94244 2.60145,-2.74501 2.60147,1.52168 2.60147,-2.99193 2.60146,-0.23146 2.60146,-0.41476 2.60148,-0.60999 2.60146,-0.27129 2.60146,-1.25998 2.60146,-1.5365 2.60147,-0.24999 2.60146,-1.26294 2.60146,1.76268 2.60147,-1.2585 2.60147,-0.73017 2.60146,-2.48121 2.60147,-0.57365 2.60146,2.4654 2.60146,-2.12715 2.60147,-1.02454 2.60146,1.0493 2.60147,-0.15225 2.60147,-1.90902 2.60146,2.56544 2.60146,-3.00039 2.60147,-0.80428 2.60146,1.9507 2.60146,0.39574 2.60147,-0.0734 2.60147,1.21001 2.60146,0.45609 2.60146,-2.10339 2.60147,-1.55297 2.60146,-0.19359 2.60146,2.44279 2.60147,-0.97374 2.60147,-0.63902 2.60146,0.82287 2.60147,0.98788 2.60146,0.11613 2.60146,0.43178 2.60147,-1.59625 2.60146,1.19279 2.60148,-0.17093 2.60146,-1.29413 2.60146,1.29072 2.60147,1.29397 2.60146,-0.91438 2.60146,-0.13385 2.60147,-2.04348 2.60146,-1.45683 2.60147,2.13585 2.60147,-3.81807 2.60146,-1.18158 2.60146,-1.38553"
       style="fill:none;stroke:#9467bd;stroke-width:0.863221;stroke-linecap:square;stroke-linejoin:round;stroke-miterlimit:10;stroke-dasharray:none;stroke-opacity:1"
       id="path314" /><path
       d="M 42.070226,163.86141 V 317.00376"
       style="fill:none;stroke:#000000;stroke-width:0.460385;stroke-linecap:square;stroke-linejoin:miter;stroke-miterlimit:10;stroke-dasharray:none;stroke-opacity:1"
       id="path328" /><path
       d="M 247.58593,163.86141 V 317.00376"
       style="fill:none;stroke:#000000;stroke-width:0.460385;stroke-linecap:square;stroke-linejoin:miter;stroke-miterlimit:10;stroke-dasharray:none;stroke-opacity:1"
       id="path330" /><path
       d="M 42.070226,163.86141 H 247.58593"
       style="fill:none;stroke:#000000;stroke-width:0.460385;stroke-linecap:square;stroke-linejoin:miter;stroke-miterlimit:10;stroke-dasharray:none;stroke-opacity:1"
       id="path332" /><path
       d="M 42.070226,317.00376 H 247.58593"
       style="fill:none;stroke:#000000;stroke-width:0.460385;stroke-linecap:square;stroke-linejoin:miter;stroke-miterlimit:10;stroke-dasharray:none;stroke-opacity:1"
       id="path334" /><path
       d="M 53.435616,207.2861 H 64.945231"
       style="fill:none;stroke:#1f77b4;stroke-width:0.863221;stroke-linecap:square;stroke-linejoin:round;stroke-miterlimit:10;stroke-dasharray:none;stroke-opacity:1"
       id="path344" /><path
       d="M 53.435616,198.84271 H 64.945231"
       style="fill:none;stroke:#ff7f0e;stroke-width:0.863221;stroke-linecap:square;stroke-linejoin:round;stroke-miterlimit:10;stroke-dasharray:none;stroke-opacity:1"
       id="path350" /><path
       d="M 53.435616,190.39933 H 64.945231"
       style="fill:none;stroke:#2ca02c;stroke-width:0.863221;stroke-linecap:square;stroke-linejoin:round;stroke-miterlimit:10;stroke-dasharray:none;stroke-opacity:1"
       id="path356" /><path
       d="M 53.435616,181.95595 H 64.945231"
       style="fill:none;stroke:#9467bd;stroke-width:0.863221;stroke-linecap:square;stroke-linejoin:round;stroke-miterlimit:10;stroke-dasharray:none;stroke-opacity:1"
       id="path362" /><path
       d="M 53.435616,173.51256 H 64.945231"
       style="fill:none;stroke:#d62728;stroke-width:0.863221;stroke-linecap:square;stroke-linejoin:round;stroke-miterlimit:10;stroke-dasharray:none;stroke-opacity:1"
       id="path368" /></g><g
     inkscape:groupmode="layer"
     id="layer1"
     inkscape:label="text"
     style="display:inline"
     transform="translate(-28.023958,-17.206424)"><text
       style="font-variant:normal;font-weight:normal;font-size:7.67308px;font-family:'DejaVu Sans';-inkscape-font-specification:DejaVuSans;writing-mode:lr-tb;fill:#000000;fill-opacity:1;fill-rule:nonzero;stroke:none;stroke-width:0.767308"
       id="text32"
       x="53.551338"
       y="253.51579"><tspan
         x="53.551338 58.431416 60.871456 65.751534"
         y="253.51579"
         sodipodi:role="line"
         id="tspan30"
         style="stroke-width:0.767308">0.00</tspan></text><text
       style="font-variant:normal;font-weight:normal;font-size:7.67308px;font-family:'DejaVu Sans';-inkscape-font-specification:DejaVuSans;writing-mode:lr-tb;fill:#000000;fill-opacity:1;fill-rule:nonzero;stroke:none;stroke-width:0.767308"
       id="text50"
       x="82.237534"
       y="253.51579"><tspan
         x="82.237534 87.117615 89.557648 94.437729"
         y="253.51579"
         sodipodi:role="line"
         id="tspan48"
         style="stroke-width:0.767308">0.25</tspan></text><text
       style="font-variant:normal;font-weight:normal;font-size:7.67308px;font-family:'DejaVu Sans';-inkscape-font-specification:DejaVuSans;writing-mode:lr-tb;fill:#000000;fill-opacity:1;fill-rule:nonzero;stroke:none;stroke-width:0.767308"
       id="text68"
       x="116.92372"
       y="253.51579"><tspan
         x="116.92372 121.8038 124.24384 129.12392"
         y="253.51579"
         sodipodi:role="line"
         id="tspan66"
         style="stroke-width:0.767308">0.50</tspan></text><text
       style="font-variant:normal;font-weight:normal;font-size:7.67308px;font-family:'DejaVu Sans';-inkscape-font-specification:DejaVuSans;writing-mode:lr-tb;fill:#000000;fill-opacity:1;fill-rule:nonzero;stroke:none;stroke-width:0.767308"
       id="text86"
       x="151.60992"
       y="253.51579"><tspan
         x="151.60992 156.49001 158.93004 163.81012"
         y="253.51579"
         sodipodi:role="line"
         id="tspan84"
         style="stroke-width:0.767308">0.75</tspan></text><text
       style="font-variant:normal;font-weight:normal;font-size:7.67308px;font-family:'DejaVu Sans';-inkscape-font-specification:DejaVuSans;writing-mode:lr-tb;fill:#000000;fill-opacity:1;fill-rule:nonzero;stroke:none;stroke-width:0.767308"
       id="text104"
       x="186.29613"
       y="253.51579"><tspan
         x="186.29613 191.17619 193.61623 198.49631"
         y="253.51579"
         sodipodi:role="line"
         id="tspan102"
         style="stroke-width:0.767308">1.00</tspan></text><text
       style="font-variant:normal;font-weight:normal;font-size:7.67308px;font-family:'DejaVu Sans';-inkscape-font-specification:DejaVuSans;writing-mode:lr-tb;fill:#000000;fill-opacity:1;fill-rule:nonzero;stroke:none;stroke-width:0.767308"
       id="text122"
       x="220.9823"
       y="253.51579"><tspan
         x="220.9823 225.8624 228.30243 233.1825"
         y="253.51579"
         sodipodi:role="line"
         id="tspan120"
         style="stroke-width:0.767308">1.25</tspan></text><text
       style="font-variant:normal;font-weight:normal;font-size:7.67308px;font-family:'DejaVu Sans';-inkscape-font-specification:DejaVuSans;writing-mode:lr-tb;fill:#000000;fill-opacity:1;fill-rule:nonzero;stroke:none;stroke-width:0.767308"
       id="text140"
       x="255.6685"
       y="253.51579"><tspan
         x="255.6685 260.54855 262.98865 267.86868"
         y="253.51579"
         sodipodi:role="line"
         id="tspan138"
         style="stroke-width:0.767308">1.50</tspan></text><text
       style="font-variant:normal;font-weight:normal;font-size:7.67308px;font-family:'DejaVu Sans';-inkscape-font-specification:DejaVuSans;writing-mode:lr-tb;fill:#000000;fill-opacity:1;fill-rule:nonzero;stroke:none;stroke-width:0.767308"
       id="text158"
       x="290.35471"
       y="253.51579"><tspan
         x="290.35471 295.23477 297.6748 302.5549"
         y="253.51579"
         sodipodi:role="line"
         id="tspan156"
         style="stroke-width:0.767308">1.75</tspan></text><text
       style="font-variant:normal;font-weight:normal;font-size:7.67308px;font-family:'DejaVu Sans';-inkscape-font-specification:DejaVuSans;writing-mode:lr-tb;fill:#000000;fill-opacity:1;fill-rule:nonzero;stroke:none;stroke-width:0.767308"
       id="text162"
       x="146.664"
       y="264.00665"><tspan
         x="146.664 152.61064 157.32957 162.19431 166.89023 174.3638 176.49692 180.7171 183.15715 188.02954 190.16267 194.16035 197.16818 201.8718 206.73653 210.95673 215.67566 218.11569 220.70152 223.14156 229.76341 234.63582"
         y="264.00665"
         sodipodi:role="line"
         id="tspan160"
         style="stroke-width:0.767308">Genomic distance / Mbp</tspan></text><text
       style="font-variant:normal;font-weight:normal;font-size:7.67308px;font-family:'DejaVu Sans';-inkscape-font-specification:DejaVuSans;writing-mode:lr-tb;fill:#000000;fill-opacity:1;fill-rule:nonzero;stroke:none;stroke-width:0.767308"
       id="text180"
       x="38.51749"
       y="245.23126"><tspan
         x="38.51749 43.397568 45.837605"
         y="245.23126"
         sodipodi:role="line"
         id="tspan178"
         style="stroke-width:0.767308">0.0</tspan></text><text
       style="font-variant:normal;font-weight:normal;font-size:7.67308px;font-family:'DejaVu Sans';-inkscape-font-specification:DejaVuSans;writing-mode:lr-tb;fill:#000000;fill-opacity:1;fill-rule:nonzero;stroke:none;stroke-width:0.767308"
       id="text198"
       x="38.51749"
       y="204.39331"><tspan
         x="38.51749 43.397568 45.837605"
         y="204.39331"
         sodipodi:role="line"
         id="tspan196"
         style="stroke-width:0.767308">0.2</tspan></text><text
       style="font-variant:normal;font-weight:normal;font-size:7.67308px;font-family:'DejaVu Sans';-inkscape-font-specification:DejaVuSans;writing-mode:lr-tb;fill:#000000;fill-opacity:1;fill-rule:nonzero;stroke:none;stroke-width:0.767308"
       id="text216"
       x="38.51749"
       y="163.55534"><tspan
         x="38.51749 43.397568 45.837605"
         y="163.55534"
         sodipodi:role="line"
         id="tspan214"
         style="stroke-width:0.767308">0.4</tspan></text><text
       style="font-variant:normal;font-weight:normal;font-size:7.67308px;font-family:'DejaVu Sans';-inkscape-font-specification:DejaVuSans;writing-mode:lr-tb;fill:#000000;fill-opacity:1;fill-rule:nonzero;stroke:none;stroke-width:0.767308"
       id="text234"
       x="38.51749"
       y="122.71756"><tspan
         x="38.51749 43.397568 45.837605"
         y="122.71756"
         sodipodi:role="line"
         id="tspan232"
         style="stroke-width:0.767308">0.6</tspan></text><text
       style="font-variant:normal;font-weight:normal;font-size:7.67308px;font-family:'DejaVu Sans';-inkscape-font-specification:DejaVuSans;writing-mode:lr-tb;fill:#000000;fill-opacity:1;fill-rule:nonzero;stroke:none;stroke-width:0.767308"
       id="text252"
       x="38.51749"
       y="81.879593"><tspan
         x="38.51749 43.397568 45.837605"
         y="81.879593"
         sodipodi:role="line"
         id="tspan250"
         style="stroke-width:0.767308">0.8</tspan></text><text
       style="font-variant:normal;font-weight:normal;font-size:7.67308px;font-family:'DejaVu Sans';-inkscape-font-specification:DejaVuSans;writing-mode:lr-tb;fill:#000000;fill-opacity:1;fill-rule:nonzero;stroke:none;stroke-width:0.767308"
       id="text270"
       x="38.51749"
       y="41.041553"><tspan
         x="38.51749 43.397568 45.837605"
         y="41.041553"
         sodipodi:role="line"
         id="tspan268"
         style="stroke-width:0.767308">1.0</tspan></text><text
       transform="rotate(-90)"
       style="font-variant:normal;font-weight:normal;font-size:7.67308px;font-family:'DejaVu Sans';-inkscape-font-specification:DejaVuSans;writing-mode:lr-tb;fill:#000000;fill-opacity:1;fill-rule:nonzero;stroke:none;stroke-width:0.767308"
       id="text274"
       x="-177.29355"
       y="33.853699"><tspan
         x="-177.29355 -172.66669 -167.94774 -163.24414 -160.09052 -156.09285 -151.39691 -146.53218 -144.09215 -139.87196 -135.17603 -132.0224 -128.86874 -124.14999 -122.01688 -117.31329 -114.30544 -112.17231 -107.47641"
         y="33.853699"
         sodipodi:role="line"
         id="tspan272"
         style="stroke-width:0.767308">Pearson correlation</tspan></text><text
       style="font-variant:normal;font-weight:normal;font-size:9.2077px;font-family:'DejaVu Sans';-inkscape-font-specification:DejaVuSans;writing-mode:lr-tb;fill:#000000;fill-opacity:1;fill-rule:nonzero;stroke:none;stroke-width:0.767308"
       id="text338"
       x="98.347588"
       y="23.204079"><tspan
         x="98.347588 103.89982 109.56256 115.20687 118.99123 123.78844 129.42355 135.26123 138.18929 143.25349 148.88863 152.67297 156.45734 162.12007 164.67981 170.32413 173.93355 176.49329 182.12839 187.96606 190.89412 196.34506 201.14227 204.07031 206.99837 212.84525 218.508 224.34564 229.98076 238.94907 241.50879 246.57303 249.50108 255.34795 257.90768 262.7049 266.3143 271.95865 277.79633 282.86053"
         y="23.204079"
         sodipodi:role="line"
         id="tspan336"
         style="stroke-width:0.767308">Pearson correlation vs. genomic distance</tspan></text><text
       style="font-variant:normal;font-weight:normal;font-size:9.2077px;font-family:'DejaVu Sans';-inkscape-font-specification:DejaVuSans;writing-mode:lr-tb;fill:#000000;fill-opacity:1;fill-rule:nonzero;stroke:none;stroke-width:0.767308"
       id="text342"
       x="64.001266"
       y="33.524334"><tspan
         x="64.001266 71.13723 79.083458 84.93956 90.795654 96.651741 102.50784 108.36393 111.29198 114.22002 120.07611 123.00417 128.86024 131.78831 137.64439 140.57245 146.42854 149.35658 155.21268 158.14072 163.99681 169.85289 172.78096 178.63704 184.49312 187.42119 193.27727 199.13336 202.0614 207.9175 213.77361 216.70164 222.55774 228.41385 231.34187 237.19798 243.05406 245.98212 251.8382 257.69431 260.62234 266.47842 272.33453 275.26257 280.89771 286.73538 289.66342 295.70364 301.55975 307.41583 313.27194 316.19998 319.12802"
         y="33.524334"
         sodipodi:role="line"
         id="tspan340"
         style="stroke-width:0.767308">GM12878, 1,2,4,7,9,11,13,14,16,17,18,20,22 on K562, 5</tspan></text><text
       style="font-variant:normal;font-weight:normal;font-size:7.67306px;font-family:'DejaVu Sans';-inkscape-font-specification:DejaVuSans;writing-mode:lr-tb;fill:#000000;fill-opacity:1;fill-rule:nonzero;stroke:none;stroke-width:0.767306"
       id="text348"
       x="92.732109"
       y="187.10391"><tspan
         x="92.732109 97.612183 102.49226 106.93496 111.81505 114.25508 116.69511 121.57521 126.45527 131.33536 136.05431 140.92671 143.36673 145.95256 148.39261 153.64099 159.25769 164.61349 167.19931 169.63937 174.51944 176.95947 181.83955 186.71962"
         y="187.10391"
         sodipodi:role="line"
         id="tspan346"
         style="stroke-width:0.767306">25k5, 250ep / AUC: 0.488</tspan></text><text
       style="font-variant:normal;font-weight:normal;font-size:7.67306px;font-family:'DejaVu Sans';-inkscape-font-specification:DejaVuSans;writing-mode:lr-tb;fill:#000000;fill-opacity:1;fill-rule:nonzero;stroke:none;stroke-width:0.767306"
       id="text354"
       x="92.732109"
       y="198.36176"><tspan
         x="92.732109 97.612183 102.49226 106.93496 111.81505 114.25508 116.69511 121.57521 126.45527 131.33536 136.05431 140.92671 143.36673 145.95256 148.39261 153.64099 159.25769 164.61349 167.19931 169.63937 174.51944 176.95947 181.83955 186.71962"
         y="198.36176"
         sodipodi:role="line"
         id="tspan352"
         style="stroke-width:0.767306">25k5, 500ep / AUC: 0.494</tspan></text><text
       style="font-variant:normal;font-weight:normal;font-size:7.67306px;font-family:'DejaVu Sans';-inkscape-font-specification:DejaVuSans;writing-mode:lr-tb;fill:#000000;fill-opacity:1;fill-rule:nonzero;stroke:none;stroke-width:0.767306"
       id="text360"
       x="92.732109"
       y="209.6196"><tspan
         x="92.732109 97.612183 102.49226 106.93496 111.81505 114.25508 116.69511 121.57521 126.45527 131.33536 136.21542 140.93439 145.80676 148.24683 150.83266 153.27267 158.52106 164.13776 169.49356 172.07941 174.51944 179.39951 181.83955 186.71962 191.5997"
         y="209.6196"
         sodipodi:role="line"
         id="tspan358"
         style="stroke-width:0.767306">25k5, 1000ep / AUC: 0.495</tspan></text><text
       style="font-variant:normal;font-weight:normal;font-size:7.67306px;font-family:'DejaVu Sans';-inkscape-font-specification:DejaVuSans;writing-mode:lr-tb;fill:#000000;fill-opacity:1;fill-rule:nonzero;stroke:none;stroke-width:0.767306"
       id="text366"
       x="92.732109"
       y="220.87744"><tspan
         x="92.732109 94.865227 99.72995 101.86307 104.87093 107.00404 111.70761 113.84072 116.28078 118.72082 123.60088 128.48097 133.36105 138.08 142.95238 145.39244 147.97826 150.4183 155.66669 161.28339 166.63919 169.22502 171.66504 176.54515 178.98517 183.86525 188.74533"
         y="220.87744"
         sodipodi:role="line"
         id="tspan364"
         style="stroke-width:0.767306">initial, 500ep / AUC: 0.540</tspan></text><text
       style="font-variant:normal;font-weight:normal;font-size:7.67306px;font-family:'DejaVu Sans';-inkscape-font-specification:DejaVuSans;writing-mode:lr-tb;fill:#000000;fill-opacity:1;fill-rule:nonzero;stroke:none;stroke-width:0.767306"
       id="text372"
       x="92.732109"
       y="232.13525"><tspan
         x="92.732109 95.739944 98.893585 103.59719 108.46192 112.45959 115.16049 119.87946 123.03308 125.47311 131.41974 138.04163 142.92171 147.80179 152.68187 157.56194 162.44202 164.88205 167.46786 169.9079 175.15628 180.77298 186.12881 188.71461 191.15466 196.03474 198.47478 203.35484 208.23494"
         y="232.13525"
         sodipodi:role="line"
         id="tspan370"
         style="stroke-width:0.767306">transfer GM12878 / AUC: 0.719</tspan></text></g></svg>
