<?xml version="1.0" encoding="UTF-8" standalone="no"?>
<svg
   xmlns:dc="http://purl.org/dc/elements/1.1/"
   xmlns:cc="http://creativecommons.org/ns#"
   xmlns:rdf="http://www.w3.org/1999/02/22-rdf-syntax-ns#"
   xmlns:svg="http://www.w3.org/2000/svg"
   xmlns="http://www.w3.org/2000/svg"
   xmlns:sodipodi="http://sodipodi.sourceforge.net/DTD/sodipodi-0.dtd"
   xmlns:inkscape="http://www.inkscape.org/namespaces/inkscape"
   version="1.1"
   id="svg2"
   xml:space="preserve"
   width="80mm"
   height="65.300003mm"
   viewBox="0 0 302.36219 246.80316"
   sodipodi:docname="pearson_chr21.svg"
   inkscape:version="1.0.2 (1.0.2+r75+1)"><metadata
     id="metadata8"><rdf:RDF><cc:Work
         rdf:about=""><dc:format>image/svg+xml</dc:format><dc:type
           rdf:resource="http://purl.org/dc/dcmitype/StillImage" /><dc:title /></cc:Work></rdf:RDF></metadata><defs
     id="defs6"><clipPath
       clipPathUnits="userSpaceOnUse"
       id="clipPath22"><path
         d="M 57.6,38.016 H 414.72 V 304.128 H 57.6 Z"
         id="path20" /></clipPath><clipPath
       clipPathUnits="userSpaceOnUse"
       id="clipPath40"><path
         d="M 57.6,38.016 H 414.72 V 304.128 H 57.6 Z"
         id="path38" /></clipPath><clipPath
       clipPathUnits="userSpaceOnUse"
       id="clipPath58"><path
         d="M 57.6,38.016 H 414.72 V 304.128 H 57.6 Z"
         id="path56" /></clipPath><clipPath
       clipPathUnits="userSpaceOnUse"
       id="clipPath76"><path
         d="M 57.6,38.016 H 414.72 V 304.128 H 57.6 Z"
         id="path74" /></clipPath><clipPath
       clipPathUnits="userSpaceOnUse"
       id="clipPath94"><path
         d="M 57.6,38.016 H 414.72 V 304.128 H 57.6 Z"
         id="path92" /></clipPath><clipPath
       clipPathUnits="userSpaceOnUse"
       id="clipPath112"><path
         d="M 57.6,38.016 H 414.72 V 304.128 H 57.6 Z"
         id="path110" /></clipPath><clipPath
       clipPathUnits="userSpaceOnUse"
       id="clipPath130"><path
         d="M 57.6,38.016 H 414.72 V 304.128 H 57.6 Z"
         id="path128" /></clipPath><clipPath
       clipPathUnits="userSpaceOnUse"
       id="clipPath148"><path
         d="M 57.6,38.016 H 414.72 V 304.128 H 57.6 Z"
         id="path146" /></clipPath><clipPath
       clipPathUnits="userSpaceOnUse"
       id="clipPath170"><path
         d="M 57.6,38.016 H 414.72 V 304.128 H 57.6 Z"
         id="path168" /></clipPath><clipPath
       clipPathUnits="userSpaceOnUse"
       id="clipPath188"><path
         d="M 57.6,38.016 H 414.72 V 304.128 H 57.6 Z"
         id="path186" /></clipPath><clipPath
       clipPathUnits="userSpaceOnUse"
       id="clipPath206"><path
         d="M 57.6,38.016 H 414.72 V 304.128 H 57.6 Z"
         id="path204" /></clipPath><clipPath
       clipPathUnits="userSpaceOnUse"
       id="clipPath224"><path
         d="M 57.6,38.016 H 414.72 V 304.128 H 57.6 Z"
         id="path222" /></clipPath><clipPath
       clipPathUnits="userSpaceOnUse"
       id="clipPath242"><path
         d="M 57.6,38.016 H 414.72 V 304.128 H 57.6 Z"
         id="path240" /></clipPath><clipPath
       clipPathUnits="userSpaceOnUse"
       id="clipPath260"><path
         d="M 57.6,38.016 H 414.72 V 304.128 H 57.6 Z"
         id="path258" /></clipPath><clipPath
       clipPathUnits="userSpaceOnUse"
       id="clipPath282"><path
         d="M 57.6,38.016 H 414.72 V 304.128 H 57.6 Z"
         id="path280" /></clipPath><clipPath
       clipPathUnits="userSpaceOnUse"
       id="clipPath292"><path
         d="M 57.6,38.016 H 414.72 V 304.128 H 57.6 Z"
         id="path290" /></clipPath><clipPath
       clipPathUnits="userSpaceOnUse"
       id="clipPath302"><path
         d="M 57.6,38.016 H 414.72 V 304.128 H 57.6 Z"
         id="path300" /></clipPath><clipPath
       clipPathUnits="userSpaceOnUse"
       id="clipPath312"><path
         d="M 57.6,38.016 H 414.72 V 304.128 H 57.6 Z"
         id="path310" /></clipPath><clipPath
       clipPathUnits="userSpaceOnUse"
       id="clipPath322"><path
         d="M 57.6,38.016 H 414.72 V 304.128 H 57.6 Z"
         id="path320" /></clipPath></defs><sodipodi:namedview
     pagecolor="#ffffff"
     bordercolor="#666666"
     borderopacity="1"
     objecttolerance="10"
     gridtolerance="10"
     guidetolerance="10"
     inkscape:pageopacity="0"
     inkscape:pageshadow="2"
     inkscape:window-width="1920"
     inkscape:window-height="1020"
     id="namedview4"
     showgrid="false"
     fit-margin-top="0"
     fit-margin-left="0"
     fit-margin-right="0"
     fit-margin-bottom="0"
     units="mm"
     inkscape:zoom="5.2603344"
     inkscape:cx="110.5697"
     inkscape:cy="190.11036"
     inkscape:window-x="0"
     inkscape:window-y="0"
     inkscape:window-maximized="1"
     inkscape:current-layer="layer1"
     inkscape:document-rotation="0" /><g
     id="g10"
     inkscape:groupmode="layer"
     inkscape:label="pearson_chr21"
     transform="matrix(1.3333333,0,0,-1.3333333,-28.023958,443.59358)"><path
       d="M 53.533602,173.38907 H 65.039603"
       style="fill:none;stroke:#d62728;stroke-width:0.86295;stroke-linecap:square;stroke-linejoin:round;stroke-miterlimit:10;stroke-dasharray:none;stroke-opacity:1"
       id="path368" /><g
       id="g16"
       transform="matrix(0.57530004,0,0,0.57530004,8.9263306,141.95096)"><g
         id="g18"
         clip-path="url(#clipPath22)"><path
           d="M 57.6,38.016 V 304.128"
           style="fill:none;stroke:#b0b0b0;stroke-width:0.8;stroke-linecap:square;stroke-linejoin:round;stroke-miterlimit:10;stroke-dasharray:none;stroke-opacity:1"
           id="path24" /></g></g><path
       d="m 42.063613,163.82158 v -2.01355"
       style="fill:#000000;fill-opacity:1;fill-rule:nonzero;stroke:#000000;stroke-width:0.46024;stroke-linecap:butt;stroke-linejoin:round;stroke-miterlimit:10;stroke-dasharray:none;stroke-opacity:1"
       id="path28" /><g
       id="g34"
       transform="matrix(0.57530004,0,0,0.57530004,8.9263306,141.95096)"><g
         id="g36"
         clip-path="url(#clipPath40)"><path
           d="M 102.80506,38.016 V 304.128"
           style="fill:none;stroke:#b0b0b0;stroke-width:0.8;stroke-linecap:square;stroke-linejoin:round;stroke-miterlimit:10;stroke-dasharray:none;stroke-opacity:1"
           id="path42" /></g></g><path
       d="m 68.070086,163.82158 v -2.01355"
       style="fill:#000000;fill-opacity:1;fill-rule:nonzero;stroke:#000000;stroke-width:0.46024;stroke-linecap:butt;stroke-linejoin:round;stroke-miterlimit:10;stroke-dasharray:none;stroke-opacity:1"
       id="path46" /><g
       id="g52"
       transform="matrix(0.57530004,0,0,0.57530004,8.9263306,141.95096)"><g
         id="g54"
         clip-path="url(#clipPath58)"><path
           d="M 148.01013,38.016 V 304.128"
           style="fill:none;stroke:#b0b0b0;stroke-width:0.8;stroke-linecap:square;stroke-linejoin:round;stroke-miterlimit:10;stroke-dasharray:none;stroke-opacity:1"
           id="path60" /></g></g><path
       d="m 94.076565,163.82158 v -2.01355"
       style="fill:#000000;fill-opacity:1;fill-rule:nonzero;stroke:#000000;stroke-width:0.46024;stroke-linecap:butt;stroke-linejoin:round;stroke-miterlimit:10;stroke-dasharray:none;stroke-opacity:1"
       id="path64" /><g
       id="g70"
       transform="matrix(0.57530004,0,0,0.57530004,8.9263306,141.95096)"><g
         id="g72"
         clip-path="url(#clipPath76)"><path
           d="M 193.21519,38.016 V 304.128"
           style="fill:none;stroke:#b0b0b0;stroke-width:0.8;stroke-linecap:square;stroke-linejoin:round;stroke-miterlimit:10;stroke-dasharray:none;stroke-opacity:1"
           id="path78" /></g></g><path
       d="m 120.08303,163.82158 v -2.01355"
       style="fill:#000000;fill-opacity:1;fill-rule:nonzero;stroke:#000000;stroke-width:0.46024;stroke-linecap:butt;stroke-linejoin:round;stroke-miterlimit:10;stroke-dasharray:none;stroke-opacity:1"
       id="path82" /><g
       id="g88"
       transform="matrix(0.57530004,0,0,0.57530004,8.9263306,141.95096)"><g
         id="g90"
         clip-path="url(#clipPath94)"><path
           d="M 238.42025,38.016 V 304.128"
           style="fill:none;stroke:#b0b0b0;stroke-width:0.8;stroke-linecap:square;stroke-linejoin:round;stroke-miterlimit:10;stroke-dasharray:none;stroke-opacity:1"
           id="path96" /></g></g><path
       d="m 146.08951,163.82158 v -2.01355"
       style="fill:#000000;fill-opacity:1;fill-rule:nonzero;stroke:#000000;stroke-width:0.46024;stroke-linecap:butt;stroke-linejoin:round;stroke-miterlimit:10;stroke-dasharray:none;stroke-opacity:1"
       id="path100" /><g
       id="g106"
       transform="matrix(0.57530004,0,0,0.57530004,8.9263306,141.95096)"><g
         id="g108"
         clip-path="url(#clipPath112)"><path
           d="M 283.62532,38.016 V 304.128"
           style="fill:none;stroke:#b0b0b0;stroke-width:0.8;stroke-linecap:square;stroke-linejoin:round;stroke-miterlimit:10;stroke-dasharray:none;stroke-opacity:1"
           id="path114" /></g></g><path
       d="m 172.09599,163.82158 v -2.01355"
       style="fill:#000000;fill-opacity:1;fill-rule:nonzero;stroke:#000000;stroke-width:0.46024;stroke-linecap:butt;stroke-linejoin:round;stroke-miterlimit:10;stroke-dasharray:none;stroke-opacity:1"
       id="path118" /><g
       id="g124"
       transform="matrix(0.57530004,0,0,0.57530004,8.9263306,141.95096)"><g
         id="g126"
         clip-path="url(#clipPath130)"><path
           d="M 328.83038,38.016 V 304.128"
           style="fill:none;stroke:#b0b0b0;stroke-width:0.8;stroke-linecap:square;stroke-linejoin:round;stroke-miterlimit:10;stroke-dasharray:none;stroke-opacity:1"
           id="path132" /></g></g><path
       d="m 198.10246,163.82158 v -2.01355"
       style="fill:#000000;fill-opacity:1;fill-rule:nonzero;stroke:#000000;stroke-width:0.46024;stroke-linecap:butt;stroke-linejoin:round;stroke-miterlimit:10;stroke-dasharray:none;stroke-opacity:1"
       id="path136" /><g
       id="g142"
       transform="matrix(0.57530004,0,0,0.57530004,8.9263306,141.95096)"><g
         id="g144"
         clip-path="url(#clipPath148)"><path
           d="M 374.03544,38.016 V 304.128"
           style="fill:none;stroke:#b0b0b0;stroke-width:0.8;stroke-linecap:square;stroke-linejoin:round;stroke-miterlimit:10;stroke-dasharray:none;stroke-opacity:1"
           id="path150" /></g></g><path
       d="m 224.10894,163.82158 v -2.01355"
       style="fill:#000000;fill-opacity:1;fill-rule:nonzero;stroke:#000000;stroke-width:0.46024;stroke-linecap:butt;stroke-linejoin:round;stroke-miterlimit:10;stroke-dasharray:none;stroke-opacity:1"
       id="path154" /><g
       id="g164"
       transform="matrix(0.57530004,0,0,0.57530004,8.9263306,141.95096)"><g
         id="g166"
         clip-path="url(#clipPath170)"><path
           d="M 57.6,38.016 H 414.72"
           style="fill:none;stroke:#b0b0b0;stroke-width:0.8;stroke-linecap:square;stroke-linejoin:round;stroke-miterlimit:10;stroke-dasharray:none;stroke-opacity:1"
           id="path172" /></g></g><path
       d="m 42.063613,163.82158 h -2.01355"
       style="fill:#000000;fill-opacity:1;fill-rule:nonzero;stroke:#000000;stroke-width:0.46024;stroke-linecap:butt;stroke-linejoin:round;stroke-miterlimit:10;stroke-dasharray:none;stroke-opacity:1"
       id="path176" /><g
       id="g182"
       transform="matrix(0.57530004,0,0,0.57530004,8.9263306,141.95096)"><g
         id="g184"
         clip-path="url(#clipPath188)"><path
           d="M 57.6,91.2384 H 414.72"
           style="fill:none;stroke:#b0b0b0;stroke-width:0.8;stroke-linecap:square;stroke-linejoin:round;stroke-miterlimit:10;stroke-dasharray:none;stroke-opacity:1"
           id="path190" /></g></g><path
       d="m 42.063613,194.44042 h -2.01355"
       style="fill:#000000;fill-opacity:1;fill-rule:nonzero;stroke:#000000;stroke-width:0.46024;stroke-linecap:butt;stroke-linejoin:round;stroke-miterlimit:10;stroke-dasharray:none;stroke-opacity:1"
       id="path194" /><g
       id="g200"
       transform="matrix(0.57530004,0,0,0.57530004,8.9263306,141.95096)"><g
         id="g202"
         clip-path="url(#clipPath206)"><path
           d="M 57.6,144.4608 H 414.72"
           style="fill:none;stroke:#b0b0b0;stroke-width:0.8;stroke-linecap:square;stroke-linejoin:round;stroke-miterlimit:10;stroke-dasharray:none;stroke-opacity:1"
           id="path208" /></g></g><path
       d="m 42.063613,225.05927 h -2.01355"
       style="fill:#000000;fill-opacity:1;fill-rule:nonzero;stroke:#000000;stroke-width:0.46024;stroke-linecap:butt;stroke-linejoin:round;stroke-miterlimit:10;stroke-dasharray:none;stroke-opacity:1"
       id="path212" /><g
       id="g218"
       transform="matrix(0.57530004,0,0,0.57530004,8.9263306,141.95096)"><g
         id="g220"
         clip-path="url(#clipPath224)"><path
           d="M 57.6,197.6832 H 414.72"
           style="fill:none;stroke:#b0b0b0;stroke-width:0.8;stroke-linecap:square;stroke-linejoin:round;stroke-miterlimit:10;stroke-dasharray:none;stroke-opacity:1"
           id="path226" /></g></g><path
       d="m 42.063613,255.67812 h -2.01355"
       style="fill:#000000;fill-opacity:1;fill-rule:nonzero;stroke:#000000;stroke-width:0.46024;stroke-linecap:butt;stroke-linejoin:round;stroke-miterlimit:10;stroke-dasharray:none;stroke-opacity:1"
       id="path230" /><g
       id="g236"
       transform="matrix(0.57530004,0,0,0.57530004,8.9263306,141.95096)"><g
         id="g238"
         clip-path="url(#clipPath242)"><path
           d="M 57.6,250.9056 H 414.72"
           style="fill:none;stroke:#b0b0b0;stroke-width:0.8;stroke-linecap:square;stroke-linejoin:round;stroke-miterlimit:10;stroke-dasharray:none;stroke-opacity:1"
           id="path244" /></g></g><path
       d="m 42.063613,286.29697 h -2.01355"
       style="fill:#000000;fill-opacity:1;fill-rule:nonzero;stroke:#000000;stroke-width:0.46024;stroke-linecap:butt;stroke-linejoin:round;stroke-miterlimit:10;stroke-dasharray:none;stroke-opacity:1"
       id="path248" /><g
       id="g254"
       transform="matrix(0.57530004,0,0,0.57530004,8.9263306,141.95096)"><g
         id="g256"
         clip-path="url(#clipPath260)"><path
           d="M 57.6,304.128 H 414.72"
           style="fill:none;stroke:#b0b0b0;stroke-width:0.8;stroke-linecap:square;stroke-linejoin:round;stroke-miterlimit:10;stroke-dasharray:none;stroke-opacity:1"
           id="path262" /></g></g><path
       d="m 42.063613,316.91582 h -2.01355"
       style="fill:#000000;fill-opacity:1;fill-rule:nonzero;stroke:#000000;stroke-width:0.46024;stroke-linecap:butt;stroke-linejoin:round;stroke-miterlimit:10;stroke-dasharray:none;stroke-opacity:1"
       id="path266" /><g
       id="g278"
       clip-path="url(#clipPath282)"
       transform="matrix(0.57530004,0,0,0.57530004,8.9263306,141.95096)"><path
         d="m 57.6,251.54141 4.520506,-1.65556 4.520507,-8.83853 4.520506,-6.72754 4.520506,-4.28218 4.520507,-5.91693 4.520506,-0.17526 4.520506,-5.33708 4.520507,-3.33341 4.520506,4.79908 4.520503,-8.34347 4.52051,-0.23076 4.52051,0.1625 4.5205,-3.93586 4.52051,-1.7907 4.52051,-5.0809 4.5205,-4.43972 4.52051,-4.26907 4.5205,-4.4326 4.52051,3.93973 4.52051,5.26141 4.5205,6.51814 4.52051,-0.59431 4.52051,-2.2465 4.5205,-2.43184 4.52051,-9.20339 4.5205,-3.64548 4.52051,-1.11264 4.52051,5.86045 4.5205,4.74207 4.52051,1.45647 4.52051,0.0216 4.5205,-1.77979 4.52051,-2.62086 4.5205,0.0294 4.52051,-3.171 4.52051,-5.46643 4.5205,-4.1585 4.52051,-1.77652 4.52051,-1.66619 4.5205,-2.33069 4.52051,-7.17765 4.52051,-2.60214 4.5205,-5.78874 4.52051,-11.18303 4.5205,-1.36927 4.52051,-1.09641 4.52051,-0.7865 4.5205,-5.1043 4.52051,1.95615 4.52051,0.2713 4.5205,-2.32905 4.52051,-1.92979 4.5205,8.68428 4.52051,3.41873 4.52051,-4.20711 4.5205,6.2565 4.52051,-7.04431 4.52051,-3.51998 4.5205,-0.10842 4.52051,-4.56088 4.52051,-0.52545 4.5205,-1.64109 4.52051,-2.71767 4.5205,-0.70378 4.52051,-3.4257 4.52051,3.76323 4.5205,-1.19237 4.52051,-1.64251 4.52051,-5.99293 4.5205,-0.38251 4.52051,4.58487 4.52051,1.1365 4.5205,1.88478 4.52051,-5.64677 4.5205,-8.62648 4.52051,-10.23796 4.52051,14.32395 4.5205,-20.632402 4.52051,18.619032"
         style="fill:none;stroke:#1f77b4;stroke-width:1.5;stroke-linecap:square;stroke-linejoin:round;stroke-miterlimit:10;stroke-dasharray:none;stroke-opacity:1"
         id="path284" /></g><g
       id="g288"
       clip-path="url(#clipPath292)"
       transform="matrix(0.57530004,0,0,0.57530004,8.9263306,141.95096)"><path
         d="m 57.6,244.51178 4.520506,-2.44805 4.520507,-9.14457 4.520506,-5.84584 4.520506,-4.26426 4.520507,-6.5483 4.520506,-0.71305 4.520506,-6.2886 4.520507,-3.63338 4.520506,3.73816 4.520503,-9.80075 4.52051,-0.64415 4.52051,-0.0503 4.5205,-3.8041 4.52051,-0.72738 4.52051,-4.71558 4.5205,-3.43108 4.52051,-4.29497 4.5205,-3.1801 4.52051,3.83445 4.52051,5.91318 4.5205,7.35956 4.52051,-0.67941 4.52051,-1.15545 4.5205,-1.87129 4.52051,-10.41984 4.5205,-3.00055 4.52051,-2.68035 4.52051,4.26751 4.5205,4.80379 4.52051,0.58009 4.52051,0.0702 4.5205,-3.83065 4.52051,-1.92668 4.5205,-0.24657 4.52051,-4.85474 4.52051,-5.36182 4.5205,-5.09918 4.52051,-3.10639 4.52051,-1.73237 4.5205,-3.65679 4.52051,-6.51475 4.52051,-2.4145 4.5205,-6.93077 4.52051,-10.25228 4.5205,-2.00807 4.52051,-0.91329 4.52051,-1.79847 4.5205,-5.49564 4.52051,2.5532 4.52051,-1.37526 4.5205,-4.99168 4.52051,-2.31942 4.5205,7.3581 4.52051,2.06721 4.52051,-1.42556 4.5205,7.02073 4.52051,-7.85966 4.52051,-0.21906 4.5205,2.05413 4.52051,-6.23316 4.52051,-1.10098 4.5205,-0.12279 4.52051,-4.7363 4.5205,1.72488 4.52051,-3.86847 4.52051,6.52191 4.5205,-0.35377 4.52051,2.77276 4.52051,-8.03984 4.5205,3.15397 4.52051,1.94755 4.52051,6.02438 4.5205,-0.11757 4.52051,-1.12008 4.5205,-4.09289 4.52051,-8.76079 4.52051,13.00759 4.5205,-11.25104 4.52051,12.78366"
         style="fill:none;stroke:#ff7f0e;stroke-width:1.5;stroke-linecap:square;stroke-linejoin:round;stroke-miterlimit:10;stroke-dasharray:none;stroke-opacity:1"
         id="path294" /></g><g
       id="g298"
       clip-path="url(#clipPath302)"
       transform="matrix(0.57530004,0,0,0.57530004,8.9263306,141.95096)"><path
         d="m 57.6,248.40213 4.520506,-2.15643 4.520507,-8.02138 4.520506,-5.04013 4.520506,-4.54509 4.520507,-7.98866 4.520506,-1.9247 4.520506,-6.88766 4.520507,-3.08146 4.520506,4.14696 4.520503,-9.84575 4.52051,-0.36383 4.52051,-0.19951 4.5205,-3.82007 4.52051,-0.30931 4.52051,-5.52506 4.5205,-3.87983 4.52051,-4.92156 4.5205,-2.82381 4.52051,4.24099 4.52051,6.05343 4.5205,7.36997 4.52051,-0.70024 4.52051,-0.93335 4.5205,-2.27202 4.52051,-9.66109 4.5205,-3.85682 4.52051,-2.41247 4.52051,4.69515 4.5205,4.97679 4.52051,1.39651 4.52051,-0.78921 4.5205,-3.62764 4.52051,-3.14879 4.5205,-0.94935 4.52051,-4.17917 4.52051,-4.18945 4.5205,-5.16945 4.52051,-1.95568 4.52051,-1.70462 4.5205,-3.47552 4.52051,-5.03553 4.52051,-2.48586 4.5205,-6.84742 4.52051,-11.65568 4.5205,-0.93245 4.52051,-1.0586 4.52051,-1.73853 4.5205,-6.39908 4.52051,2.24462 4.52051,0.13782 4.5205,-3.82412 4.52051,-1.53937 4.5205,7.61997 4.52051,3.17296 4.52051,-2.18505 4.5205,7.04116 4.52051,-6.82951 4.52051,-1.29576 4.5205,2.6417 4.52051,-2.8484 4.52051,-3.20112 4.5205,1.53326 4.52051,-4.13953 4.5205,1.71507 4.52051,-1.43624 4.52051,0.41311 4.5205,0.76663 4.52051,2.33727 4.52051,-7.17634 4.5205,5.59089 4.52051,-1.43236 4.52051,5.74135 4.5205,0.88339 4.52051,-5.52209 4.5205,-4.88333 4.52051,-9.59199 4.52051,14.1229 4.5205,-6.92215 4.52051,3.87574"
         style="fill:none;stroke:#2ca02c;stroke-width:1.5;stroke-linecap:square;stroke-linejoin:round;stroke-miterlimit:10;stroke-dasharray:none;stroke-opacity:1"
         id="path304" /></g><g
       id="g308"
       clip-path="url(#clipPath312)"
       style="stroke:#9467bd;stroke-opacity:1"
       transform="matrix(0.57530004,0,0,0.57530004,8.9263306,141.95096)"><path
         d="m 57.6,269.98562 4.520506,-1.86304 4.520507,-7.43817 4.520506,-6.50225 4.520506,-3.96193 4.520507,-6.4622 4.520506,0.16058 4.520506,-6.50597 4.520507,-3.33359 4.520506,3.23566 4.520503,-8.14617 4.52051,0.0636 4.52051,-0.58634 4.5205,-2.24318 4.52051,-1.94856 4.52051,-3.45279 4.5205,-4.32124 4.52051,-4.88306 4.5205,-4.29368 4.52051,3.47984 4.52051,3.83743 4.5205,7.46205 4.52051,0.28149 4.52051,-0.98452 4.5205,-4.45319 4.52051,-7.24048 4.5205,-3.95157 4.52051,-3.16369 4.52051,5.48174 4.5205,3.81664 4.52051,0.49407 4.52051,-1.33229 4.5205,-2.98636 4.52051,-2.00001 4.5205,0.96023 4.52051,-3.40352 4.52051,-2.28778 4.5205,-3.54494 4.52051,-2.0549 4.52051,-2.05566 4.5205,-1.40447 4.52051,-6.73174 4.52051,-2.70511 4.5205,-9.0636 4.52051,-11.29465 4.5205,0.26767 4.52051,-1.84298 4.52051,-2.36957 4.5205,-4.53477 4.52051,3.81694 4.52051,2.11168 4.5205,-2.32832 4.52051,0.58345 4.5205,6.22545 4.52051,4.43514 4.52051,1.31375 4.5205,4.70653 4.52051,-4.18608 4.52051,-0.59182 4.5205,-0.47945 4.52051,-1.61511 4.52051,-0.20379 4.5205,-4.38744 4.52051,-0.26573 4.5205,2.27971 4.52051,-2.08866 4.52051,3.65676 4.5205,0.12648 4.52051,2.49428 4.52051,-8.80751 4.5205,3.60321 4.52051,0.47687 4.52051,2.02308 4.5205,2.43297 4.52051,-0.71949 4.5205,-11.33638 4.52051,-12.2967 4.52051,17.5691 4.5205,-1.43943 4.52051,5.44043"
         style="fill:none;stroke:#9467bd;stroke-width:1.5;stroke-linecap:square;stroke-linejoin:round;stroke-miterlimit:10;stroke-dasharray:none;stroke-opacity:1"
         id="path314" /></g><g
       id="g318"
       clip-path="url(#clipPath322)"
       style="stroke:#d62728;stroke-opacity:1"
       transform="matrix(0.57530004,0,0,0.57530004,8.9263306,141.95096)"><path
         d="m 57.6,289.52811 4.520506,-7.85657 4.520507,-4.0548 4.520506,-1.5205 4.520506,-2.30581 4.520507,1.51292 4.520506,-0.84006 4.520506,-0.10603 4.520507,0.29726 4.520506,-0.78635 4.520503,3.65284 4.52051,-3.6578 4.52051,2.09877 4.5205,-1.6845 4.52051,-2.05975 4.52051,2.02469 4.5205,-2.42123 4.52051,3.53536 4.5205,-0.85392 4.52051,-1.71809 4.52051,-4.07563 4.5205,-1.25412 4.52051,-2.77949 4.52051,-1.07118 4.5205,2.47714 4.52051,-0.26893 4.5205,2.06152 4.52051,-2.03076 4.52051,0.0714 4.5205,1.9907 4.52051,-0.86517 4.52051,-3.52438 4.5205,3.14442 4.52051,-0.20498 4.5205,-1.95934 4.52051,1.37985 4.52051,-3.7036 4.5205,0.23173 4.52051,4.05851 4.52051,-4.97683 4.5205,4.02666 4.52051,-2.82253 4.52051,3.36616 4.5205,3.82659 4.52051,3.52523 4.5205,-6.75792 4.52051,2.99343 4.52051,-1.31198 4.5205,2.11649 4.52051,-1.73647 4.52051,-5.96248 4.5205,4.23394 4.52051,-2.65902 4.5205,1.89137 4.52051,0.59451 4.52051,-1.46475 4.5205,-3.50616 4.52051,0.88441 4.52051,-2.98807 4.5205,-4.94475 4.52051,-1.94589 4.52051,0.9794 4.5205,0.63821 4.52051,-3.41472 4.5205,2.79991 4.52051,-6.277 4.52051,-0.32345 4.5205,3.01535 4.52051,-4.73022 4.52051,-2.64064 4.5205,2.20802 4.52051,2.6559 4.52051,1.18466 4.5205,-0.34297 4.52051,-3.98275 4.5205,12.38331 4.52051,7.11479 4.52051,-14.28808 4.5205,-7.5379 4.52051,-6.67908"
         style="fill:none;stroke:#d62728;stroke-width:1.5;stroke-linecap:square;stroke-linejoin:round;stroke-miterlimit:10;stroke-dasharray:none;stroke-opacity:1"
         id="path324" /></g><path
       d="M 42.063613,163.82158 V 316.91582"
       style="fill:none;stroke:#000000;stroke-width:0.46024;stroke-linecap:square;stroke-linejoin:miter;stroke-miterlimit:10;stroke-dasharray:none;stroke-opacity:1"
       id="path328" /><path
       d="M 247.51477,163.82158 V 316.91582"
       style="fill:none;stroke:#000000;stroke-width:0.46024;stroke-linecap:square;stroke-linejoin:miter;stroke-miterlimit:10;stroke-dasharray:none;stroke-opacity:1"
       id="path330" /><path
       d="M 42.063613,163.82158 H 247.51477"
       style="fill:none;stroke:#000000;stroke-width:0.46024;stroke-linecap:square;stroke-linejoin:miter;stroke-miterlimit:10;stroke-dasharray:none;stroke-opacity:1"
       id="path332" /><path
       d="M 42.063613,316.91582 H 247.51477"
       style="fill:none;stroke:#000000;stroke-width:0.46024;stroke-linecap:square;stroke-linejoin:miter;stroke-miterlimit:10;stroke-dasharray:none;stroke-opacity:1"
       id="path334" /><path
       d="M 53.533602,207.15198 H 65.039603"
       style="fill:none;stroke:#1f77b4;stroke-width:0.86295;stroke-linecap:square;stroke-linejoin:round;stroke-miterlimit:10;stroke-dasharray:none;stroke-opacity:1"
       id="path344" /><path
       d="M 53.533602,198.71126 H 65.039603"
       style="fill:none;stroke:#ff7f0e;stroke-width:0.86295;stroke-linecap:square;stroke-linejoin:round;stroke-miterlimit:10;stroke-dasharray:none;stroke-opacity:1"
       id="path350" /><path
       d="M 53.533602,190.27054 H 65.039603"
       style="fill:none;stroke:#2ca02c;stroke-width:0.86295;stroke-linecap:square;stroke-linejoin:round;stroke-miterlimit:10;stroke-dasharray:none;stroke-opacity:1"
       id="path356" /><path
       d="M 53.533602,181.8298 H 65.039603"
       style="fill:none;stroke:#9467bd;stroke-width:0.86295;stroke-linecap:square;stroke-linejoin:round;stroke-miterlimit:10;stroke-dasharray:none;stroke-opacity:0.984314"
       id="path362" /></g><g
     inkscape:groupmode="layer"
     id="layer1"
     inkscape:label="text"
     transform="translate(-28.023958,-17.206424)"><text
       style="font-variant:normal;font-weight:normal;font-size:7.67065px;font-family:'DejaVu Sans';-inkscape-font-specification:DejaVuSans;writing-mode:lr-tb;fill:#000000;fill-opacity:1;fill-rule:nonzero;stroke:none;stroke-width:0.767065"
       id="text372"
       x="92.856003"
       y="232.29933"><tspan
         x="92.856003 95.862907 99.015549 103.71766 108.58087 112.57728 115.27735 119.99483 123.14746 125.58672 131.53151 138.15129 143.02986 147.90837 152.78693 157.66547 162.54404 164.98329 167.5683 170.00757 175.25429 180.86923 186.22337 188.80838 191.24765 196.12619 198.56546 203.444 208.32256"
         y="232.29933"
         sodipodi:role="line"
         id="tspan370"
         style="stroke-width:0.767065">transfer GM12878 / AUC: 0.849</tspan></text><text
       style="font-variant:normal;font-weight:normal;font-size:7.67067px;font-family:'DejaVu Sans';-inkscape-font-specification:DejaVuSans;writing-mode:lr-tb;fill:#000000;fill-opacity:1;fill-rule:nonzero;stroke:none;stroke-width:0.767067"
       id="text32"
       x="53.545204"
       y="253.56561"><tspan
         x="53.545204 58.423748 60.863022 65.741562"
         y="253.56561"
         sodipodi:role="line"
         id="tspan30"
         style="stroke-width:0.767067">0.00</tspan></text><text
       style="font-variant:normal;font-weight:normal;font-size:7.67067px;font-family:'DejaVu Sans';-inkscape-font-specification:DejaVuSans;writing-mode:lr-tb;fill:#000000;fill-opacity:1;fill-rule:nonzero;stroke:none;stroke-width:0.767067"
       id="text50"
       x="82.220497"
       y="253.56561"><tspan
         x="82.220497 87.099052 89.538322 94.416862"
         y="253.56561"
         sodipodi:role="line"
         id="tspan48"
         style="stroke-width:0.767067">0.25</tspan></text><text
       style="font-variant:normal;font-weight:normal;font-size:7.67067px;font-family:'DejaVu Sans';-inkscape-font-specification:DejaVuSans;writing-mode:lr-tb;fill:#000000;fill-opacity:1;fill-rule:nonzero;stroke:none;stroke-width:0.767067"
       id="text68"
       x="116.8958"
       y="253.56561"><tspan
         x="116.8958 121.77434 124.21362 129.09216"
         y="253.56561"
         sodipodi:role="line"
         id="tspan66"
         style="stroke-width:0.767067">0.50</tspan></text><text
       style="font-variant:normal;font-weight:normal;font-size:7.67067px;font-family:'DejaVu Sans';-inkscape-font-specification:DejaVuSans;writing-mode:lr-tb;fill:#000000;fill-opacity:1;fill-rule:nonzero;stroke:none;stroke-width:0.767067"
       id="text86"
       x="151.57111"
       y="253.56561"><tspan
         x="151.57111 156.44966 158.88892 163.76747"
         y="253.56561"
         sodipodi:role="line"
         id="tspan84"
         style="stroke-width:0.767067">0.75</tspan></text><text
       style="font-variant:normal;font-weight:normal;font-size:7.67067px;font-family:'DejaVu Sans';-inkscape-font-specification:DejaVuSans;writing-mode:lr-tb;fill:#000000;fill-opacity:1;fill-rule:nonzero;stroke:none;stroke-width:0.767067"
       id="text104"
       x="186.2464"
       y="253.56561"><tspan
         x="186.2464 191.12495 193.56421 198.44276"
         y="253.56561"
         sodipodi:role="line"
         id="tspan102"
         style="stroke-width:0.767067">1.00</tspan></text><text
       style="font-variant:normal;font-weight:normal;font-size:7.67067px;font-family:'DejaVu Sans';-inkscape-font-specification:DejaVuSans;writing-mode:lr-tb;fill:#000000;fill-opacity:1;fill-rule:nonzero;stroke:none;stroke-width:0.767067"
       id="text122"
       x="220.92169"
       y="253.56561"><tspan
         x="220.92169 225.80025 228.23952 233.11806"
         y="253.56561"
         sodipodi:role="line"
         id="tspan120"
         style="stroke-width:0.767067">1.25</tspan></text><text
       style="font-variant:normal;font-weight:normal;font-size:7.67067px;font-family:'DejaVu Sans';-inkscape-font-specification:DejaVuSans;writing-mode:lr-tb;fill:#000000;fill-opacity:1;fill-rule:nonzero;stroke:none;stroke-width:0.767067"
       id="text140"
       x="255.597"
       y="253.56561"><tspan
         x="255.597 260.47552 262.91483 267.79333"
         y="253.56561"
         sodipodi:role="line"
         id="tspan138"
         style="stroke-width:0.767067">1.50</tspan></text><text
       style="font-variant:normal;font-weight:normal;font-size:7.67067px;font-family:'DejaVu Sans';-inkscape-font-specification:DejaVuSans;writing-mode:lr-tb;fill:#000000;fill-opacity:1;fill-rule:nonzero;stroke:none;stroke-width:0.767067"
       id="text158"
       x="290.27231"
       y="253.56561"><tspan
         x="290.27231 295.15085 297.59012 302.46869"
         y="253.56561"
         sodipodi:role="line"
         id="tspan156"
         style="stroke-width:0.767067">1.75</tspan></text><text
       style="font-variant:normal;font-weight:normal;font-size:7.67067px;font-family:'DejaVu Sans';-inkscape-font-specification:DejaVuSans;writing-mode:lr-tb;fill:#000000;fill-opacity:1;fill-rule:nonzero;stroke:none;stroke-width:0.767067"
       id="text162"
       x="146.62674"
       y="264.05304"><tspan
         x="146.62674 152.5715 157.28896 162.15216 166.8466 174.31784 176.45029 180.66914 183.10843 187.97929 190.11174 194.10815 197.11505 201.81718 206.68037 210.89926 215.61671 218.05598 220.64099 223.08026 229.70006 234.57092"
         y="264.05304"
         sodipodi:role="line"
         id="tspan160"
         style="stroke-width:0.767067">Genomic distance / Mbp</tspan></text><text
       style="font-variant:normal;font-weight:normal;font-size:7.67067px;font-family:'DejaVu Sans';-inkscape-font-specification:DejaVuSans;writing-mode:lr-tb;fill:#000000;fill-opacity:1;fill-rule:nonzero;stroke:none;stroke-width:0.767067"
       id="text180"
       x="38.514191"
       y="245.28369"><tspan
         x="38.514191 43.392738 45.832012"
         y="245.28369"
         sodipodi:role="line"
         id="tspan178"
         style="stroke-width:0.767067">0.0</tspan></text><text
       style="font-variant:normal;font-weight:normal;font-size:7.67067px;font-family:'DejaVu Sans';-inkscape-font-specification:DejaVuSans;writing-mode:lr-tb;fill:#000000;fill-opacity:1;fill-rule:nonzero;stroke:none;stroke-width:0.767067"
       id="text198"
       x="38.514191"
       y="204.45854"><tspan
         x="38.514191 43.392738 45.832012"
         y="204.45854"
         sodipodi:role="line"
         id="tspan196"
         style="stroke-width:0.767067">0.2</tspan></text><text
       style="font-variant:normal;font-weight:normal;font-size:7.67067px;font-family:'DejaVu Sans';-inkscape-font-specification:DejaVuSans;writing-mode:lr-tb;fill:#000000;fill-opacity:1;fill-rule:nonzero;stroke:none;stroke-width:0.767067"
       id="text216"
       x="38.514191"
       y="163.63342"><tspan
         x="38.514191 43.392738 45.832012"
         y="163.63342"
         sodipodi:role="line"
         id="tspan214"
         style="stroke-width:0.767067">0.4</tspan></text><text
       style="font-variant:normal;font-weight:normal;font-size:7.67067px;font-family:'DejaVu Sans';-inkscape-font-specification:DejaVuSans;writing-mode:lr-tb;fill:#000000;fill-opacity:1;fill-rule:nonzero;stroke:none;stroke-width:0.767067"
       id="text234"
       x="38.514191"
       y="122.80829"><tspan
         x="38.514191 43.392738 45.832012"
         y="122.80829"
         sodipodi:role="line"
         id="tspan232"
         style="stroke-width:0.767067">0.6</tspan></text><text
       style="font-variant:normal;font-weight:normal;font-size:7.67067px;font-family:'DejaVu Sans';-inkscape-font-specification:DejaVuSans;writing-mode:lr-tb;fill:#000000;fill-opacity:1;fill-rule:nonzero;stroke:none;stroke-width:0.767067"
       id="text252"
       x="38.514191"
       y="81.983162"><tspan
         x="38.514191 43.392738 45.832012"
         y="81.983162"
         sodipodi:role="line"
         id="tspan250"
         style="stroke-width:0.767067">0.8</tspan></text><text
       style="font-variant:normal;font-weight:normal;font-size:7.67067px;font-family:'DejaVu Sans';-inkscape-font-specification:DejaVuSans;writing-mode:lr-tb;fill:#000000;fill-opacity:1;fill-rule:nonzero;stroke:none;stroke-width:0.767067"
       id="text270"
       x="38.514191"
       y="41.158085"><tspan
         x="38.514191 43.392738 45.832012"
         y="41.158085"
         sodipodi:role="line"
         id="tspan268"
         style="stroke-width:0.767067">1.0</tspan></text><text
       transform="rotate(-90)"
       style="font-variant:normal;font-weight:normal;font-size:7.67067px;font-family:'DejaVu Sans';-inkscape-font-specification:DejaVuSans;writing-mode:lr-tb;fill:#000000;fill-opacity:1;fill-rule:nonzero;stroke:none;stroke-width:0.767067"
       id="text274"
       x="-177.36731"
       y="33.851868"><tspan
         x="-177.36731 -172.7419 -168.02443 -163.32233 -160.16968 -156.17326 -151.47879 -146.6156 -144.17633 -139.95746 -135.26302 -132.11037 -128.95772 -124.24027 -122.10783 -117.40571 -114.3988 -112.26636 -107.57191"
         y="33.851868"
         sodipodi:role="line"
         id="tspan272"
         style="stroke-width:0.767067">Pearson correlation</tspan></text><text
       style="font-variant:normal;font-weight:normal;font-size:9.2048px;font-family:'DejaVu Sans';-inkscape-font-specification:DejaVuSans;writing-mode:lr-tb;fill:#000000;fill-opacity:1;fill-rule:nonzero;stroke:none;stroke-width:0.767067"
       id="text338"
       x="98.325493"
       y="23.32617"><tspan
         x="98.325493 103.876 109.53695 115.1795 118.96266 123.75835 129.39171 135.22754 138.15468 143.21732 148.85065 152.63382 156.41699 162.07794 164.63689 170.27943 173.88771 176.44664 182.07999 187.91582 190.84296 196.29219 201.08791 204.01503 206.94215 212.7872 218.44815 224.28398 229.91733 238.8828 241.44174 246.50438 249.43152 255.27657 257.83548 262.63116 266.23947 271.88202 277.71783 282.78052"
         y="23.32617"
         sodipodi:role="line"
         id="tspan336"
         style="stroke-width:0.767067">Pearson correlation vs. genomic distance</tspan></text><text
       style="font-variant:normal;font-weight:normal;font-size:9.2048px;font-family:'DejaVu Sans';-inkscape-font-specification:DejaVuSans;writing-mode:lr-tb;fill:#000000;fill-opacity:1;fill-rule:nonzero;stroke:none;stroke-width:0.767067"
       id="text342"
       x="61.059528"
       y="33.643227"><tspan
         x="61.059528 68.193253 76.136993 81.991249 87.845497 93.699745 99.554001 105.40825 108.33538 111.2625 117.11676 120.0439 125.89815 128.82529 134.67952 137.60666 143.46091 146.38803 152.24229 155.16942 161.02368 166.87791 169.80504 175.65929 181.51353 184.44069 190.29492 196.14919 199.07631 204.93056 210.78482 213.71194 219.56619 225.42046 228.34758 234.20184 240.05609 242.98322 248.83746 254.69173 257.61884 263.47308 269.32736 272.25449 277.88782 283.72366 286.65079 292.68915 298.5434 304.39764 310.25192 313.17902 316.10617 321.96039"
         y="33.643227"
         sodipodi:role="line"
         id="tspan340"
         style="stroke-width:0.767067">GM12878, 1,2,4,7,9,11,13,14,16,17,18,20,22 on K562, 21</tspan></text><text
       style="font-variant:normal;font-weight:normal;font-size:7.67065px;font-family:'DejaVu Sans';-inkscape-font-specification:DejaVuSans;writing-mode:lr-tb;fill:#000000;fill-opacity:1;fill-rule:nonzero;stroke:none;stroke-width:0.767065"
       id="text348"
       x="92.856003"
       y="187.2821"><tspan
         x="92.856003 97.73455 102.61311 107.05441 111.93295 114.37222 116.81149 121.69004 126.56858 131.44713 136.16458 141.03546 143.47473 146.05974 148.49904 153.74577 159.36067 164.71481 167.29982 169.73912 174.61766 177.05692 181.93547 186.81401"
         y="187.2821"
         sodipodi:role="line"
         id="tspan346"
         style="stroke-width:0.767065">25k5, 250ep / AUC: 0.493</tspan></text><text
       style="font-variant:normal;font-weight:normal;font-size:7.67065px;font-family:'DejaVu Sans';-inkscape-font-specification:DejaVuSans;writing-mode:lr-tb;fill:#000000;fill-opacity:1;fill-rule:nonzero;stroke:none;stroke-width:0.767065"
       id="text354"
       x="92.856003"
       y="198.53641"><tspan
         x="92.856003 97.73455 102.61311 107.05441 111.93295 114.37222 116.81149 121.69004 126.56858 131.44713 136.16458 141.03546 143.47473 146.05974 148.49904 153.74577 159.36067 164.71481 167.29982 169.73912 174.61766 177.05692 181.93547 186.81401"
         y="198.53641"
         sodipodi:role="line"
         id="tspan352"
         style="stroke-width:0.767065">25k5, 500ep / AUC: 0.447</tspan></text><text
       style="font-variant:normal;font-weight:normal;font-size:7.67065px;font-family:'DejaVu Sans';-inkscape-font-specification:DejaVuSans;writing-mode:lr-tb;fill:#000000;fill-opacity:1;fill-rule:nonzero;stroke:none;stroke-width:0.767065"
       id="text360"
       x="92.856003"
       y="209.79071"><tspan
         x="92.856003 97.73455 102.61311 107.05441 111.93295 114.37222 116.81149 121.69004 126.56858 131.44713 136.32567 141.04314 145.914 148.35329 150.93831 153.37756 158.62431 164.23923 169.59335 172.17838 174.61766 179.49619 181.93547 186.81401 191.69257"
         y="209.79071"
         sodipodi:role="line"
         id="tspan358"
         style="stroke-width:0.767065">25k5, 1000ep / AUC: 0.470</tspan></text><text
       style="font-variant:normal;font-weight:normal;font-size:7.67065px;font-family:'DejaVu Sans';-inkscape-font-specification:DejaVuSans;writing-mode:lr-tb;fill:#000000;fill-opacity:1;fill-rule:nonzero;stroke:none;stroke-width:0.767065"
       id="text366"
       x="92.856003"
       y="221.04501"><tspan
         x="92.856003 94.988441 99.851654 101.9841 104.99101 107.12346 111.82555 113.95799 116.39729 118.83656 123.7151 128.59364 133.47218 138.18965 143.06052 145.4998 148.08481 150.52408 155.77081 161.38574 166.73987 169.32489 171.76414 176.64273 179.08199 183.96053 188.83908"
         y="221.04501"
         sodipodi:role="line"
         id="tspan364"
         style="stroke-width:0.767065">initial, 500ep / AUC: 0.585</tspan></text></g></svg>
