<?xml version="1.0" encoding="UTF-8" standalone="no"?>
<svg
   xmlns:dc="http://purl.org/dc/elements/1.1/"
   xmlns:cc="http://creativecommons.org/ns#"
   xmlns:rdf="http://www.w3.org/1999/02/22-rdf-syntax-ns#"
   xmlns:svg="http://www.w3.org/2000/svg"
   xmlns="http://www.w3.org/2000/svg"
   xmlns:sodipodi="http://sodipodi.sourceforge.net/DTD/sodipodi-0.dtd"
   xmlns:inkscape="http://www.inkscape.org/namespaces/inkscape"
   version="1.1"
   id="svg2"
   xml:space="preserve"
   width="80mm"
   height="59.5mm"
   viewBox="0 0 302.36219 224.88189"
   sodipodi:docname="lossOverEpochs.svg"
   inkscape:version="1.0.2 (1.0.2+r75+1)"><metadata
     id="metadata8"><rdf:RDF><cc:Work
         rdf:about=""><dc:format>image/svg+xml</dc:format><dc:type
           rdf:resource="http://purl.org/dc/dcmitype/StillImage" /><dc:title></dc:title></cc:Work></rdf:RDF></metadata><defs
     id="defs6"><clipPath
       clipPathUnits="userSpaceOnUse"
       id="clipPath22"><path
         d="M 54,35.64 H 388.8 V 285.12 H 54 Z"
         id="path20" /></clipPath><clipPath
       clipPathUnits="userSpaceOnUse"
       id="clipPath40"><path
         d="M 54,35.64 H 388.8 V 285.12 H 54 Z"
         id="path38" /></clipPath><clipPath
       clipPathUnits="userSpaceOnUse"
       id="clipPath58"><path
         d="M 54,35.64 H 388.8 V 285.12 H 54 Z"
         id="path56" /></clipPath><clipPath
       clipPathUnits="userSpaceOnUse"
       id="clipPath76"><path
         d="M 54,35.64 H 388.8 V 285.12 H 54 Z"
         id="path74" /></clipPath><clipPath
       clipPathUnits="userSpaceOnUse"
       id="clipPath94"><path
         d="M 54,35.64 H 388.8 V 285.12 H 54 Z"
         id="path92" /></clipPath><clipPath
       clipPathUnits="userSpaceOnUse"
       id="clipPath112"><path
         d="M 54,35.64 H 388.8 V 285.12 H 54 Z"
         id="path110" /></clipPath><clipPath
       clipPathUnits="userSpaceOnUse"
       id="clipPath130"><path
         d="M 54,35.64 H 388.8 V 285.12 H 54 Z"
         id="path128" /></clipPath><clipPath
       clipPathUnits="userSpaceOnUse"
       id="clipPath148"><path
         d="M 54,35.64 H 388.8 V 285.12 H 54 Z"
         id="path146" /></clipPath><clipPath
       clipPathUnits="userSpaceOnUse"
       id="clipPath166"><path
         d="M 54,35.64 H 388.8 V 285.12 H 54 Z"
         id="path164" /></clipPath><clipPath
       clipPathUnits="userSpaceOnUse"
       id="clipPath184"><path
         d="M 54,35.64 H 388.8 V 285.12 H 54 Z"
         id="path182" /></clipPath><clipPath
       clipPathUnits="userSpaceOnUse"
       id="clipPath202"><path
         d="M 54,35.64 H 388.8 V 285.12 H 54 Z"
         id="path200" /></clipPath><clipPath
       clipPathUnits="userSpaceOnUse"
       id="clipPath224"><path
         d="M 54,35.64 H 388.8 V 285.12 H 54 Z"
         id="path222" /></clipPath><clipPath
       clipPathUnits="userSpaceOnUse"
       id="clipPath248"><path
         d="M 54,35.64 H 388.8 V 285.12 H 54 Z"
         id="path246" /></clipPath><clipPath
       clipPathUnits="userSpaceOnUse"
       id="clipPath272"><path
         d="M 54,35.64 H 388.8 V 285.12 H 54 Z"
         id="path270" /></clipPath><clipPath
       clipPathUnits="userSpaceOnUse"
       id="clipPath296"><path
         d="M 54,35.64 H 388.8 V 285.12 H 54 Z"
         id="path294" /></clipPath><clipPath
       clipPathUnits="userSpaceOnUse"
       id="clipPath320"><path
         d="M 54,35.64 H 388.8 V 285.12 H 54 Z"
         id="path318" /></clipPath><clipPath
       clipPathUnits="userSpaceOnUse"
       id="clipPath334"><path
         d="M 54,35.64 H 388.8 V 285.12 H 54 Z"
         id="path332" /></clipPath><clipPath
       clipPathUnits="userSpaceOnUse"
       id="clipPath358"><path
         d="M 54,35.64 H 388.8 V 285.12 H 54 Z"
         id="path356" /></clipPath><clipPath
       clipPathUnits="userSpaceOnUse"
       id="clipPath376"><path
         d="M 54,35.64 H 388.8 V 285.12 H 54 Z"
         id="path374" /></clipPath><clipPath
       clipPathUnits="userSpaceOnUse"
       id="clipPath386"><path
         d="M 54,35.64 H 388.8 V 285.12 H 54 Z"
         id="path384" /></clipPath></defs><sodipodi:namedview
     pagecolor="#ffffff"
     bordercolor="#666666"
     borderopacity="1"
     objecttolerance="10"
     gridtolerance="10"
     guidetolerance="10"
     inkscape:pageopacity="0"
     inkscape:pageshadow="2"
     inkscape:window-width="1920"
     inkscape:window-height="1020"
     id="namedview4"
     showgrid="false"
     fit-margin-top="0"
     fit-margin-left="0"
     fit-margin-right="0"
     fit-margin-bottom="0"
     units="mm"
     inkscape:zoom="1.9837963"
     inkscape:cx="60.181044"
     inkscape:cy="156.14523"
     inkscape:window-x="0"
     inkscape:window-y="0"
     inkscape:window-maximized="1"
     inkscape:current-layer="layer1"
     inkscape:document-rotation="0" /><g
     id="g10"
     inkscape:groupmode="layer"
     inkscape:label="lossOverEpochs"
     transform="matrix(1.3333333,0,0,-1.3333333,-16.117708,380.69332)"><g
       id="g16"
       transform="matrix(0.60134398,0,0,0.60134398,4.819066,113.82427)"><g
         id="g18"
         clip-path="url(#clipPath22)"><path
           d="M 68.913514,35.64 V 285.12"
           style="fill:none;stroke:#b0b0b0;stroke-width:0.8;stroke-linecap:square;stroke-linejoin:round;stroke-miterlimit:10;stroke-dasharray:none;stroke-opacity:1"
           id="path24" /></g></g><path
       d="m 46.259793,135.25617 v -2.10471"
       style="fill:#000000;fill-opacity:1;fill-rule:nonzero;stroke:#000000;stroke-width:0.481075;stroke-linecap:butt;stroke-linejoin:round;stroke-miterlimit:10;stroke-dasharray:none;stroke-opacity:1"
       id="path28" /><g
       id="g34"
       transform="matrix(0.60134398,0,0,0.60134398,4.819066,113.82427)"><g
         id="g36"
         clip-path="url(#clipPath40)"><path
           d="M 99.380344,35.64 V 285.12"
           style="fill:none;stroke:#b0b0b0;stroke-width:0.8;stroke-linecap:square;stroke-linejoin:round;stroke-miterlimit:10;stroke-dasharray:none;stroke-opacity:1"
           id="path42" /></g></g><path
       d="m 64.580838,135.25617 v -2.10471"
       style="fill:#000000;fill-opacity:1;fill-rule:nonzero;stroke:#000000;stroke-width:0.481075;stroke-linecap:butt;stroke-linejoin:round;stroke-miterlimit:10;stroke-dasharray:none;stroke-opacity:1"
       id="path46" /><g
       id="g52"
       transform="matrix(0.60134398,0,0,0.60134398,4.819066,113.82427)"><g
         id="g54"
         clip-path="url(#clipPath58)"><path
           d="M 129.84717,35.64 V 285.12"
           style="fill:none;stroke:#b0b0b0;stroke-width:0.8;stroke-linecap:square;stroke-linejoin:round;stroke-miterlimit:10;stroke-dasharray:none;stroke-opacity:1"
           id="path60" /></g></g><path
       d="m 82.90188,135.25617 v -2.10471"
       style="fill:#000000;fill-opacity:1;fill-rule:nonzero;stroke:#000000;stroke-width:0.481075;stroke-linecap:butt;stroke-linejoin:round;stroke-miterlimit:10;stroke-dasharray:none;stroke-opacity:1"
       id="path64" /><g
       id="g70"
       transform="matrix(0.60134398,0,0,0.60134398,4.819066,113.82427)"><g
         id="g72"
         clip-path="url(#clipPath76)"><path
           d="M 160.314,35.64 V 285.12"
           style="fill:none;stroke:#b0b0b0;stroke-width:0.8;stroke-linecap:square;stroke-linejoin:round;stroke-miterlimit:10;stroke-dasharray:none;stroke-opacity:1"
           id="path78" /></g></g><path
       d="m 101.22293,135.25617 v -2.10471"
       style="fill:#000000;fill-opacity:1;fill-rule:nonzero;stroke:#000000;stroke-width:0.481075;stroke-linecap:butt;stroke-linejoin:round;stroke-miterlimit:10;stroke-dasharray:none;stroke-opacity:1"
       id="path82" /><g
       id="g88"
       transform="matrix(0.60134398,0,0,0.60134398,4.819066,113.82427)"><g
         id="g90"
         clip-path="url(#clipPath94)"><path
           d="M 190.78083,35.64 V 285.12"
           style="fill:none;stroke:#b0b0b0;stroke-width:0.8;stroke-linecap:square;stroke-linejoin:round;stroke-miterlimit:10;stroke-dasharray:none;stroke-opacity:1"
           id="path96" /></g></g><path
       d="m 119.54397,135.25617 v -2.10471"
       style="fill:#000000;fill-opacity:1;fill-rule:nonzero;stroke:#000000;stroke-width:0.481075;stroke-linecap:butt;stroke-linejoin:round;stroke-miterlimit:10;stroke-dasharray:none;stroke-opacity:1"
       id="path100" /><g
       id="g106"
       transform="matrix(0.60134398,0,0,0.60134398,4.819066,113.82427)"><g
         id="g108"
         clip-path="url(#clipPath112)"><path
           d="M 221.24767,35.64 V 285.12"
           style="fill:none;stroke:#b0b0b0;stroke-width:0.8;stroke-linecap:square;stroke-linejoin:round;stroke-miterlimit:10;stroke-dasharray:none;stroke-opacity:1"
           id="path114" /></g></g><path
       d="m 137.86502,135.25617 v -2.10471"
       style="fill:#000000;fill-opacity:1;fill-rule:nonzero;stroke:#000000;stroke-width:0.481075;stroke-linecap:butt;stroke-linejoin:round;stroke-miterlimit:10;stroke-dasharray:none;stroke-opacity:1"
       id="path118" /><g
       id="g124"
       transform="matrix(0.60134398,0,0,0.60134398,4.819066,113.82427)"><g
         id="g126"
         clip-path="url(#clipPath130)"><path
           d="M 251.7145,35.64 V 285.12"
           style="fill:none;stroke:#b0b0b0;stroke-width:0.8;stroke-linecap:square;stroke-linejoin:round;stroke-miterlimit:10;stroke-dasharray:none;stroke-opacity:1"
           id="path132" /></g></g><path
       d="m 156.18606,135.25617 v -2.10471"
       style="fill:#000000;fill-opacity:1;fill-rule:nonzero;stroke:#000000;stroke-width:0.481075;stroke-linecap:butt;stroke-linejoin:round;stroke-miterlimit:10;stroke-dasharray:none;stroke-opacity:1"
       id="path136" /><g
       id="g142"
       transform="matrix(0.60134398,0,0,0.60134398,4.819066,113.82427)"><g
         id="g144"
         clip-path="url(#clipPath148)"><path
           d="M 282.18133,35.64 V 285.12"
           style="fill:none;stroke:#b0b0b0;stroke-width:0.8;stroke-linecap:square;stroke-linejoin:round;stroke-miterlimit:10;stroke-dasharray:none;stroke-opacity:1"
           id="path150" /></g></g><path
       d="m 174.50711,135.25617 v -2.10471"
       style="fill:#000000;fill-opacity:1;fill-rule:nonzero;stroke:#000000;stroke-width:0.481075;stroke-linecap:butt;stroke-linejoin:round;stroke-miterlimit:10;stroke-dasharray:none;stroke-opacity:1"
       id="path154" /><g
       id="g160"
       transform="matrix(0.60134398,0,0,0.60134398,4.819066,113.82427)"><g
         id="g162"
         clip-path="url(#clipPath166)"><path
           d="M 312.64816,35.64 V 285.12"
           style="fill:none;stroke:#b0b0b0;stroke-width:0.8;stroke-linecap:square;stroke-linejoin:round;stroke-miterlimit:10;stroke-dasharray:none;stroke-opacity:1"
           id="path168" /></g></g><path
       d="m 192.82816,135.25617 v -2.10471"
       style="fill:#000000;fill-opacity:1;fill-rule:nonzero;stroke:#000000;stroke-width:0.481075;stroke-linecap:butt;stroke-linejoin:round;stroke-miterlimit:10;stroke-dasharray:none;stroke-opacity:1"
       id="path172" /><g
       id="g178"
       transform="matrix(0.60134398,0,0,0.60134398,4.819066,113.82427)"><g
         id="g180"
         clip-path="url(#clipPath184)"><path
           d="M 343.11499,35.64 V 285.12"
           style="fill:none;stroke:#b0b0b0;stroke-width:0.8;stroke-linecap:square;stroke-linejoin:round;stroke-miterlimit:10;stroke-dasharray:none;stroke-opacity:1"
           id="path186" /></g></g><path
       d="m 211.1492,135.25617 v -2.10471"
       style="fill:#000000;fill-opacity:1;fill-rule:nonzero;stroke:#000000;stroke-width:0.481075;stroke-linecap:butt;stroke-linejoin:round;stroke-miterlimit:10;stroke-dasharray:none;stroke-opacity:1"
       id="path190" /><g
       id="g196"
       transform="matrix(0.60134398,0,0,0.60134398,4.819066,113.82427)"><g
         id="g198"
         clip-path="url(#clipPath202)"><path
           d="M 373.58182,35.64 V 285.12"
           style="fill:none;stroke:#b0b0b0;stroke-width:0.8;stroke-linecap:square;stroke-linejoin:round;stroke-miterlimit:10;stroke-dasharray:none;stroke-opacity:1"
           id="path204" /></g></g><path
       d="m 229.47024,135.25617 v -2.10471"
       style="fill:#000000;fill-opacity:1;fill-rule:nonzero;stroke:#000000;stroke-width:0.481075;stroke-linecap:butt;stroke-linejoin:round;stroke-miterlimit:10;stroke-dasharray:none;stroke-opacity:1"
       id="path208" /><g
       id="g218"
       transform="matrix(0.60134398,0,0,0.60134398,4.819066,113.82427)"><g
         id="g220"
         clip-path="url(#clipPath224)"><path
           d="M 54,36.133403 H 388.8"
           style="fill:none;stroke:#b0b0b0;stroke-width:0.8;stroke-linecap:square;stroke-linejoin:round;stroke-miterlimit:10;stroke-dasharray:none;stroke-opacity:1"
           id="path226" /></g></g><path
       d="M 37.291641,135.55288 H 35.186937"
       style="fill:#000000;fill-opacity:1;fill-rule:nonzero;stroke:#000000;stroke-width:0.481075;stroke-linecap:butt;stroke-linejoin:round;stroke-miterlimit:10;stroke-dasharray:none;stroke-opacity:1"
       id="path230" /><g
       id="g242"
       transform="matrix(0.60134398,0,0,0.60134398,4.819066,113.82427)"><g
         id="g244"
         clip-path="url(#clipPath248)"><path
           d="M 54,119.60898 H 388.8"
           style="fill:none;stroke:#b0b0b0;stroke-width:0.8;stroke-linecap:square;stroke-linejoin:round;stroke-miterlimit:10;stroke-dasharray:none;stroke-opacity:1"
           id="path250" /></g></g><path
       d="M 37.291641,185.75041 H 36.088953"
       style="fill:#000000;fill-opacity:1;fill-rule:nonzero;stroke:#000000;stroke-width:0.360806;stroke-linecap:butt;stroke-linejoin:round;stroke-miterlimit:10;stroke-dasharray:none;stroke-opacity:1"
       id="path254" /><g
       id="g266"
       transform="matrix(0.60134398,0,0,0.60134398,4.819066,113.82427)"><g
         id="g268"
         clip-path="url(#clipPath272)"><path
           d="M 54,168.43907 H 388.8"
           style="fill:none;stroke:#b0b0b0;stroke-width:0.8;stroke-linecap:square;stroke-linejoin:round;stroke-miterlimit:10;stroke-dasharray:none;stroke-opacity:1"
           id="path274" /></g></g><path
       d="M 37.291641,215.11408 H 36.088953"
       style="fill:#000000;fill-opacity:1;fill-rule:nonzero;stroke:#000000;stroke-width:0.360806;stroke-linecap:butt;stroke-linejoin:round;stroke-miterlimit:10;stroke-dasharray:none;stroke-opacity:1"
       id="path278" /><g
       id="g290"
       transform="matrix(0.60134398,0,0,0.60134398,4.819066,113.82427)"><g
         id="g292"
         clip-path="url(#clipPath296)"><path
           d="M 54,203.08456 H 388.8"
           style="fill:none;stroke:#b0b0b0;stroke-width:0.8;stroke-linecap:square;stroke-linejoin:round;stroke-miterlimit:10;stroke-dasharray:none;stroke-opacity:1"
           id="path298" /></g></g><path
       d="M 37.291641,235.94795 H 36.088953"
       style="fill:#000000;fill-opacity:1;fill-rule:nonzero;stroke:#000000;stroke-width:0.360806;stroke-linecap:butt;stroke-linejoin:round;stroke-miterlimit:10;stroke-dasharray:none;stroke-opacity:1"
       id="path302" /><g
       id="g314"
       transform="matrix(0.60134398,0,0,0.60134398,4.819066,113.82427)"><g
         id="g316"
         clip-path="url(#clipPath320)"><path
           d="M 54,229.9577 H 388.8"
           style="fill:none;stroke:#b0b0b0;stroke-width:0.8;stroke-linecap:square;stroke-linejoin:round;stroke-miterlimit:10;stroke-dasharray:none;stroke-opacity:1"
           id="path322" /></g></g><g
       id="g324"
       transform="matrix(0.60134398,0,0,0.60134398,4.819066,113.82427)"><path
         d="M 54,229.9577 H 52"
         style="fill:#000000;fill-opacity:1;fill-rule:nonzero;stroke:#000000;stroke-width:0.6;stroke-linecap:butt;stroke-linejoin:round;stroke-miterlimit:10;stroke-dasharray:none;stroke-opacity:1"
         id="path326" /></g><g
       id="g328"
       transform="matrix(0.60134398,0,0,0.60134398,4.819066,113.82427)"><g
         id="g330"
         clip-path="url(#clipPath334)"><path
           d="M 54,251.91465 H 388.8"
           style="fill:none;stroke:#b0b0b0;stroke-width:0.8;stroke-linecap:square;stroke-linejoin:round;stroke-miterlimit:10;stroke-dasharray:none;stroke-opacity:1"
           id="path336" /></g></g><path
       d="M 37.291641,265.31163 H 36.088953"
       style="fill:#000000;fill-opacity:1;fill-rule:nonzero;stroke:#000000;stroke-width:0.360806;stroke-linecap:butt;stroke-linejoin:round;stroke-miterlimit:10;stroke-dasharray:none;stroke-opacity:1"
       id="path340" /><g
       id="g352"
       transform="matrix(0.60134398,0,0,0.60134398,4.819066,113.82427)"><g
         id="g354"
         clip-path="url(#clipPath358)"><path
           d="M 54,270.47898 H 388.8"
           style="fill:none;stroke:#b0b0b0;stroke-width:0.8;stroke-linecap:square;stroke-linejoin:round;stroke-miterlimit:10;stroke-dasharray:none;stroke-opacity:1"
           id="path360" /></g></g><path
       d="M 37.291641,276.47517 H 36.088953"
       style="fill:#000000;fill-opacity:1;fill-rule:nonzero;stroke:#000000;stroke-width:0.360806;stroke-linecap:butt;stroke-linejoin:round;stroke-miterlimit:10;stroke-dasharray:none;stroke-opacity:1"
       id="path364" /><g
       id="g370"
       transform="matrix(0.60134398,0,0,0.60134398,4.819066,113.82427)"><g
         id="g372"
         clip-path="url(#clipPath376)"><path
           d="m 69.218182,273.78 0.304668,-84.12956 0.304668,-11.98152 0.304669,-3.35699 0.304668,-0.43236 0.609337,-1.41586 0.609336,-0.37778 0.914005,-0.56637 0.609337,-0.15816 0.609336,-0.75669 0.609337,-0.15199 0.304668,-0.18072 0.304669,-0.71603 0.609336,-29.60151 0.304669,-0.86045 0.304668,-1.32706 0.609336,-0.4112 0.304669,-0.37578 0.304668,-1.58096 0.609337,-13.01294 0.304668,-0.38945 0.304668,-0.60127 0.609337,-0.37124 0.304668,-0.0224 0.609337,-1.10826 1.218673,-0.47429 0.304668,-0.18711 0.304669,-0.0128 0.304668,-0.13642 0.304668,0.0248 0.914005,-0.37012 0.304668,-0.16288 0.609337,-1.0881 0.914005,-1.75102 0.304668,-3.8897 0.304669,-7.09894 0.304668,-0.25312 0.609336,-0.27891 0.304669,-0.2517 0.609336,-0.87203 0.609337,-0.94402 0.304668,-0.48699 0.304669,-0.98514 0.304668,-0.19898 0.609337,-0.2076 0.304668,-0.10872 0.304668,0.0139 0.609337,-0.198981 0.304668,-0.09116 0.304668,0.03089 0.609337,-0.31377 0.304668,0.02228 0.609337,-0.186061 1.82801,-0.666709 0.304668,-0.286702 0.304668,-0.08899 0.304669,-0.291508 0.609336,-0.259111 1.523342,-0.957422 1.523341,-1.681563 0.609338,-0.08622 0.30467,-0.146596 0.30467,0.02788 0.30466,-0.154426 0.60934,-0.131042 0.60934,-0.0609 0.60933,-0.157747 0.30467,-0.183365 0.60934,-0.04557 1.21867,-0.28733 0.30467,0.06376 0.60934,-0.32413 0.30467,0.119187 0.60933,-0.326749 1.21868,-0.561064 0.30466,-0.241826 0.30467,-1.279439 0.60934,-0.365428 1.21867,-0.146172 0.30467,-0.183704 0.30467,0.0065 0.30467,-0.221562 0.30466,0.07105 1.21868,-0.30123 0.30467,0.111891 0.60933,-0.246871 2.13268,-0.320462 1.21867,-0.260269 1.82801,-0.829256 0.60934,-0.240472 0.30467,0.0333 0.60934,-0.189929 0.60933,-13.384493 0.30467,-0.210494 1.21867,-0.226766 0.60934,-0.117061 2.74202,-0.482307 0.30466,-0.233855 0.30467,-0.049 0.30467,-0.221272 0.30467,-0.05142 0.60933,-0.435569 0.30467,0.08541 0.60934,-0.162394 0.30467,0.03998 1.82801,-0.428544 0.30467,0.113659 0.30466,-0.191998 0.30467,0.07242 0.60934,-0.192659 0.914,-0.108243 0.60934,-0.04175 0.60934,-0.226939 1.52334,-0.377403 0.914,-0.375151 2.74202,-0.404662 0.30467,-0.172415 0.914,-0.06241 0.91401,-0.154036 6.7027,-0.886932 0.30467,-0.164277 0.914,-0.122722 0.30467,-0.04559 0.91401,-0.36662 0.60933,-0.187781 0.30467,0.0372 0.91401,-0.223209 1.21867,-0.266214 0.30467,0.09251 1.21867,-0.205875 0.30467,0.02645 0.30467,-0.150351 0.60933,-0.02091 0.30467,-0.131439 1.21867,-0.02138 0.60934,-0.247315 0.60934,-0.05084 0.30467,-0.128137 0.30466,0.07929 1.21868,-0.459164 0.60933,0.01923 0.30467,-0.136125 0.30467,0.04718 0.30467,-0.157095 0.60934,-0.03146 0.914,-0.159828 4.26536,-0.593492 0.30467,-0.07617 0.30466,0.04942 1.21868,-0.311817 1.52334,-0.330129 8.53071,-1.404855 0.30467,-0.130336 0.60934,0.0048 0.60933,-0.165896 0.91401,-0.139345 0.914,-0.134952 0.30467,0.02594 0.91401,-0.193093 1.21867,-0.08163 0.30467,-0.172699 1.21867,-0.08664 3.04668,-0.473978 0.30467,0.01072 0.60934,-0.188102 1.52334,-0.223722 1.52334,-0.225746 2.13268,-0.202968 0.30467,-0.231519 0.60933,0.109012 0.60934,-0.172125 0.30467,0.04002 0.60934,-0.171635 0.30466,0.07164 0.60934,-0.159745 0.60934,-0.03108 0.914,-0.162875 10.05406,-1.189609 0.914,-0.149493 0.30467,-0.09667 0.30467,0.08412 0.60933,-0.110363 1.82801,-0.154021 2.13268,-0.315666 0.60934,0.01783 0.60934,-0.133796 0.30466,0.01678 0.60934,-0.114794 4.26536,-0.370112 0.60933,-0.13181 4.57003,-0.400774 0.914,-0.06319 0.30467,-0.07707 0.30467,0.06444 0.60934,-0.11008 1.21867,-0.127463 0.30467,0.0506 0.60933,-0.100644 3.65602,-0.279755 0.30467,-0.125009 0.60934,-0.01214 2.43735,-0.249093 0.30466,-0.07428 0.30467,0.07974 0.30467,-0.09188 0.30467,0.07587 0.30467,-0.171522 15.23341,-1.350643 0.30467,-0.160327 0.60934,0.0085 0.60933,-0.07161 3.35135,-0.389556 0.91401,-0.08226 0.60934,-0.0307 0.60933,-0.12208 0.91401,-0.101072 11.27273,-1.085398 0.60933,-0.0584 1.21867,-0.09839 0.30467,-0.128634 0.30467,0.09967 1.52334,-0.182873 4.8747,-0.404497 0.914,-0.122923 1.82801,-0.12241 17.97543,-1.301641 0.30467,0.163967 0.914,-0.132195 1.21868,-0.08467 0.30467,-0.08269 0.30466,0.09024 0.91401,-0.07091 0.30467,0.04444 0.30467,-0.157234 1.21867,0.03101 0.30467,-0.123706 1.21867,0.04564 0.30467,-0.1621 0.60933,0.09425 2.13268,-0.230141 0.30467,0.06205 0.60934,-0.121756 2.43735,-0.19254 0.914,0.01424 0.914,-0.119027 0.60934,0.0175 0.60934,-0.08819 0.914,-0.05067 2.74202,-0.20102 1.82801,-0.04515 0.30467,-0.114631 0.60933,0.0014 0.91401,-0.118883 0.30467,0.06184 0.914,-0.140471 0.914,0.03634 1.21868,-0.161014 0.60933,0.03606 0.60934,-0.06194 4.26536,-0.244928 0.914,-0.07636 1.21868,-0.136168 0.60933,0.07426 0.60934,-0.103022 0.30467,0.06349 0.914,-0.102907 1.82801,-0.07982 0.60934,-0.07553 3.04668,-0.175867 0.30467,0.05422 0.30467,-0.133732 0.30467,0.09888 0.30466,-0.08267 0.60934,-0.0031 5.48403,-0.28212 0.30467,0.04951 0.30467,-0.154113 0.30467,0.09458 0.30466,-0.110201 0.60934,0.01205 14.92875,-0.714026 v 0"
           style="fill:none;stroke:#1f77b4;stroke-width:1.5;stroke-linecap:square;stroke-linejoin:round;stroke-miterlimit:10;stroke-dasharray:none;stroke-opacity:1"
           id="path378" /></g></g><g
       id="g380"
       transform="matrix(0.60134398,0,0,0.60134398,4.819066,113.82427)"><g
         id="g382"
         clip-path="url(#clipPath386)"><path
           d="m 69.218182,242.10102 0.304668,-10.67109 0.304668,-5.82952 0.304669,-0.95117 0.304668,-3.20344 0.304668,-0.55023 0.304669,0.89201 0.304668,-0.13677 0.304668,-1.45782 0.304669,-3.07423 0.304668,1.08927 0.304668,-0.35861 0.304668,1.06423 0.304669,-2.58192 0.304668,0.87455 0.304668,-0.41855 0.304669,-0.94417 0.304668,1.86531 0.304668,-0.21892 0.304669,-1.54726 0.304668,-13.97943 0.304668,-1.40849 0.304669,0.74292 0.304668,-1.69371 0.304668,0.57559 0.304668,-3.32778 0.304669,2.95321 0.304668,0.18698 0.304668,-7.3853 0.304669,-1.13737 0.609336,2.59309 0.304669,-0.11597 0.304668,-2.39037 0.304668,3.97402 0.304668,-3.85026 0.304669,-0.40919 0.609336,-1.89883 0.304669,7.10011 0.304668,-3.12001 0.304668,-0.83566 0.304669,2.3082 0.304668,0.91047 0.304668,2.76732 0.304669,-4.77325 0.609336,0.36863 0.304668,-0.28012 0.304669,-6.42383 0.609336,14.5529 0.304669,-7.56575 0.609336,-7.23418 0.304669,3.82316 0.304668,-3.20353 0.304668,-0.0249 0.304668,2.702 0.304669,-2.34718 0.304668,2.35096 0.304668,-2.60983 0.304669,-0.75793 0.304668,5.33125 0.609337,-8.67467 0.304668,0.78199 0.304668,4.54865 0.304669,-5.41005 0.304668,7.60884 0.304668,-7.56659 0.304668,2.81017 0.304669,0.48103 0.304668,-2.09154 0.304668,-3.40375 0.304669,5.6489 0.304668,-1.32991 0.304668,-5.50214 0.304669,7.29717 0.304668,1.44208 0.304668,-5.50914 0.609337,1.87606 0.304668,-1.04047 0.304668,0.84792 0.304669,1.63124 0.304668,-5.66585 0.304668,-1.79109 0.304669,-3.60573 0.304668,10.00647 0.304668,-3.29611 0.304669,-6.22244 0.304668,6.38528 0.304668,-1.88319 0.304668,-5.63321 0.304669,1.52234 0.304668,3.32633 0.304668,-0.49615 0.304669,-1.10211 0.304668,-5.42291 0.304668,0.24046 0.304669,5.91131 0.304669,-2.91023 0.60934,-2.83068 0.30466,0.0503 0.30467,1.67744 0.30467,-3.09784 0.30467,2.19538 0.30467,-4.22175 0.30467,1.24236 0.30466,-0.94088 0.30467,-1.88049 0.30467,2.68813 0.30467,-4.55977 0.30467,4.19349 0.30466,-2.72705 0.30467,1.4655 0.30467,-1.04756 0.30467,-4.12772 0.30467,1.71169 0.30467,-1.74085 0.30467,3.05115 0.60933,-3.35937 0.30467,-1.00362 0.30467,7.04415 0.60934,-7.46389 0.30466,0.76007 0.30467,4.30947 0.30467,-7.2279 0.30467,-2.13643 0.30467,5.07247 0.30466,-0.60919 0.60934,-1.7597 0.30467,2.48484 0.30467,-2.66034 0.30467,2.61328 0.30466,1.43554 0.30467,-2.3417 0.30467,-4.71731 0.30467,4.33732 0.30467,-1.99744 0.30467,0.6079 0.30466,3.60666 0.30467,-1.36072 0.60934,-6.02639 0.30467,9.26495 0.60933,-9.43227 0.30467,-1.63377 0.60934,6.29098 0.30467,-1.11975 0.30467,-1.69674 0.30466,0.61419 0.30467,-2.9255 0.30467,2.91337 0.30467,1.77517 0.30467,-1.72011 0.30467,-3.70494 0.30466,1.86207 0.30467,-1.77686 0.60934,-1.2042 0.30467,5.46453 0.30467,-3.02543 0.30466,0.52714 0.30467,-3.02318 0.60934,2.31586 0.30467,-7.68901 0.30466,0.85395 0.60934,-2.0609 0.30467,4.44169 0.30467,-2.30053 0.30467,3.26128 0.30467,-8.08045 0.60933,9.85267 0.60934,-1.91898 0.30467,-0.0793 0.30467,-1.34614 0.30466,1.18709 0.30467,-2.08738 0.30467,0.38449 0.30467,-2.82872 0.30467,1.44109 0.30466,0.32121 0.30467,-1.34006 0.30467,1.45079 0.60934,-3.26408 0.30467,-0.91089 0.30466,-2.50275 0.30467,9.94937 0.30467,-1.51433 0.30467,-5.16014 0.30467,3.28448 0.30467,0.20702 0.30466,-3.95842 0.30467,6.50699 0.30467,-5.00565 0.30467,-1.1015 0.30467,-0.37454 0.30467,-1.54771 0.30466,3.79272 0.30467,-1.85178 0.30467,1.2427 0.30467,0.75063 0.30467,-3.06576 0.30467,2.98206 0.30466,-5.58156 0.30467,4.05324 0.30467,0.33363 0.30467,-3.1735 0.30467,-0.22775 0.30466,0.17261 0.30467,0.49038 0.60934,-0.16647 0.30467,3.87059 0.60933,-5.28977 0.30467,-0.15027 0.30467,6.09131 0.30467,-6.98174 0.30467,0.15155 0.30467,3.20765 0.30466,1.563 0.30467,-3.13997 0.30467,5.19527 0.30467,0.86414 0.30467,-5.87131 0.30467,-3.19006 0.30466,3.68184 0.30467,0.95728 0.30467,-1.52663 0.30467,1.28963 0.30467,-0.71151 0.30467,-2.11297 0.30466,-1.16975 0.30467,2.31676 0.30467,-1.37744 0.30467,1.65159 0.30467,-1.69628 0.30467,0.86956 0.30466,-1.10222 0.30467,1.45439 0.30467,3.13348 0.30467,-4.70488 0.30467,5.9435 0.30467,-4.7121 0.30466,4.57487 0.30467,-9.267 0.30467,3.75192 0.30467,-1.4319 0.60934,3.76549 0.30466,-0.73704 0.30467,-0.12389 0.30467,-2.56487 0.30467,0.12631 0.30467,-1.09918 0.30467,1.33674 0.30466,-0.99026 0.30467,-1.43939 0.30467,3.7779 0.30467,1.38049 0.30467,-3.58568 0.30467,0.0128 0.30466,3.50056 0.60934,-3.91083 0.30467,-2.99193 0.30467,4.72563 0.30466,-2.89153 0.30467,7.05934 0.30467,-4.1724 0.30467,2.419 0.30467,-3.80753 0.30467,2.59332 0.30466,-5.66155 0.30467,1.44561 0.30467,5.93636 0.30467,-4.7555 0.30467,-2.42488 0.30467,2.82394 0.30466,-2.90009 0.30467,4.99152 0.30467,2.43473 0.30467,-7.10914 0.60934,4.20197 0.30466,-2.4666 0.30467,2.92275 0.30467,-0.78526 0.30467,-4.23276 0.30467,2.74265 0.30467,-0.64876 0.30466,0.61052 0.30467,-5.04796 0.60934,2.57597 0.30467,-1.37069 0.30467,7.27435 0.30466,-5.71706 0.60934,-2.17558 0.30467,-0.12079 0.30467,1.47633 0.30467,0.42819 0.30466,2.68213 0.60934,0.0471 0.30467,-0.51056 0.30467,-2.58155 0.30467,-0.44035 0.30466,0.59867 0.30467,-0.22256 0.30467,3.92154 0.30467,-2.39214 0.30467,-0.7129 0.30467,2.12717 0.30466,0.0603 0.30467,-1.27676 0.30467,-3.29173 0.30467,3.50504 0.30467,0.40032 0.30467,0.12931 0.30466,-1.66253 0.30467,0.49461 0.30467,0.71076 0.30467,0.14203 0.30467,-0.79854 0.30466,-4.0493 0.30467,1.58155 0.30467,10.17738 0.30467,-7.5872 0.30467,-0.28518 0.30467,-2.118 0.30466,3.08219 0.30467,-3.68844 0.30467,1.00745 0.30467,5.29159 0.60934,-8.5807 0.30467,0.23796 0.30466,4.18893 0.30467,-1.49712 0.30467,-0.73988 0.30467,4.73032 0.30467,-4.34909 0.30466,3.13445 0.30467,-5.24408 0.60934,9.16097 0.30467,-5.45108 0.30467,0.98427 0.30466,-4.46816 0.30467,3.98206 0.30467,-2.50713 0.30467,1.48096 0.30467,-3.63172 0.30467,0.95132 0.30466,1.40526 0.30467,-0.27676 0.30467,4.10394 0.60934,-3.59517 0.30467,1.36929 0.30466,-0.099 0.30467,1.99776 0.30467,-4.3237 0.30467,0.3838 0.30467,-2.30444 0.30467,0.58486 0.30466,5.0677 0.30467,-4.85343 0.30467,2.72228 0.30467,-0.76481 0.30467,1.10818 0.30467,-0.20692 0.30466,-2.04849 0.30467,0.35055 0.30467,1.48637 0.30467,2.45728 0.30467,-1.70454 0.30467,-5.38484 0.30466,3.07422 0.30467,1.11354 0.30467,-1.05994 0.30467,-0.51762 0.30467,3.37621 0.30466,-3.20609 0.30467,-1.87859 0.30467,1.15552 0.30467,-1.93072 0.30467,1.27669 0.60933,4.11076 0.30467,-3.11577 0.30467,1.12859 0.30467,0.43773 0.30467,-1.95318 0.30467,0.004 0.30466,0.83343 0.30467,2.46263 0.30467,-1.44581 0.30467,-2.41448 0.30467,3.50803 0.30467,-0.10187 0.30466,-3.79989 0.30467,4.91367 0.30467,-1.47919 0.30467,-4.34106 0.30467,6.00176 0.30467,-0.58464 0.30466,-5.57015 0.60934,5.40067 0.30467,-4.33702 0.60934,7.44937 0.60933,-4.18807 0.30467,1.79577 0.91401,-5.75696 0.30466,3.43983 0.30467,-0.4432 0.30467,0.0768 0.30467,1.2083 0.30467,-1.24772 0.30467,0.61016 0.30466,-2.21513 0.30467,2.30648 0.30467,0.60707 0.30467,-4.41883 0.30467,4.35182 0.30467,0.56631 0.30466,-2.19264 0.30467,0.21672 0.30467,-1.33892 0.30467,0.7035 0.30467,4.51787 0.30467,-4.21663 0.30466,-1.40675 0.30467,2.72835 0.30467,-0.81429 0.30467,2.29455 0.30467,-0.85866 0.30466,-1.86341 0.30467,-0.26862 0.30467,4.03584 0.30467,-1.241 0.30467,0.44879 0.30467,1.14014 0.30466,-5.7754 0.30467,12.1385 0.30467,-4.88504 0.30467,-6.76342 0.60934,5.25607 0.30466,-4.86551 0.30467,-0.11083 0.30467,3.39164 0.30467,-1.19604 0.30467,-3.10676 0.30467,0.82731 0.30466,5.4541 0.30467,-3.49339 0.30467,2.72646 0.30467,-4.11213 0.30467,-0.85693 0.30467,3.2674 0.30466,-2.35887 0.30467,1.00554 0.30467,0.40558 0.30467,-1.67327 0.30467,3.57722 0.30467,1.39683 0.30466,-4.53161 0.30467,1.28266 0.30467,-0.98721 0.30467,-0.16379 0.30467,-1.22941 0.30467,5.12254 0.30466,-4.33031 0.30467,0.57611 0.30467,2.02463 0.30467,-4.21528 0.30467,5.48456 0.30467,-1.27645 0.30466,0.87512 0.30467,0.20384 0.30467,-3.0414 0.30467,0.8982 0.30467,-0.2264 0.30467,3.33288 0.30466,0.0679 0.30467,-1.09804 0.30467,0.80042 0.30467,-3.49279 0.30467,2.87351 0.30467,1.24276 0.30466,-3.31214 0.30467,-1.94665 0.30467,-0.38358 0.30467,3.71178 0.30467,-0.48982 0.30466,-0.98421 0.30467,-0.2935 0.30467,3.69749 0.30467,-4.78868 0.30467,2.94487 0.30467,-3.43344 0.30466,4.00012 0.30467,-1.7191 0.30467,3.34674 0.30467,1.51003 0.30467,-5.68949 0.30467,0.35442 0.30467,2.27359 0.30466,0.30977 0.30467,-1.05374 0.30467,-2.37423 0.30467,2.58273 0.30467,0.62413 0.30466,1.18156 0.60934,-3.40222 0.30467,1.76227 0.30467,-1.88924 0.30467,2.162 0.30466,-0.29888 0.60934,1.46143 0.60934,-4.1543 0.30467,0.5812 0.30466,-0.66744 0.30467,5.21835 0.30467,-3.15187 0.30467,-1.16481 0.30467,2.74959 0.30467,-2.04655 0.30466,2.93442 0.30467,-3.17227 0.30467,-0.73279 0.30467,4.97847 0.30467,-3.49204 0.30467,2.52958 0.30466,-0.48834 0.30467,-2.7913 0.30467,1.41952 0.30467,-2.47678 0.30467,3.31181 0.60933,-1.82908 0.30467,3.17572 0.30467,-1.92525 0.30467,0.35189 0.30467,1.18088 0.60933,-3.07087 0.30467,3.11664 0.30467,0.50851 0.30467,-2.94313 0.30467,-0.60806 0.30466,2.26249 0.30467,-2.74184 0.30467,2.03933 0.30467,-2.12288 0.30467,3.70604 0.60933,-2.85524 0.30467,2.44949 0.30467,-2.53063 0.30467,1.75055 0.30467,-1.10022 0.30467,0.40442 0.30466,3.07727 0.60934,-4.1547 0.30467,-0.9506 0.60934,2.88846 0.30466,1.34533 0.91401,-3.30467 0.30467,0.43925 0.30467,1.50163 0.30466,0.27182 0.30467,-1.73181 0.30467,-3.27072 0.30467,6.82077 0.30467,-4.42649 0.30467,2.48293 0.30466,-3.51793 0.30467,3.35406 0.30467,0.15107 0.30467,-0.45853 0.30467,-3.25965 0.30467,5.89576 0.30466,-2.97687 0.30467,1.4393 0.60934,-2.26831 0.30467,2.2218 0.30467,-3.14318 0.30466,-1.11527 0.30467,2.74621 0.30467,-1.77882 0.30467,-0.83183 0.30467,1.32212 0.30467,-1.00146 0.30466,6.56436 0.60934,-3.17886 0.30467,-2.90422 0.30467,2.63595 0.30467,-0.80023 0.30466,-2.7068 0.30467,1.74871 0.30467,-0.71498 0.30467,1.1986 0.30467,-2.08187 0.30466,-0.73933 0.30467,2.28611 0.30467,-1.18998 0.30467,-0.7312 0.30467,2.44147 0.30467,-0.49012 0.30466,0.78686 0.30467,1.44595 0.30467,-3.31824 0.30467,2.03286 0.30467,-0.61169 0.30467,-1.58228 0.30466,3.21346 0.30467,-0.54476 0.30467,0.11031 0.30467,-1.0471 0.30467,0.46121 0.30467,-0.12645 0.30466,-2.43719 0.30467,5.33183 0.60934,-3.2848 0.60934,1.88146 0.30466,-2.58031 0.30467,0.67548 0.30467,1.7962 0.60934,-2.6115 0.30467,0.18509 0.30466,2.78387 0.30467,-2.4 0.60934,3.24492 0.30467,-3.57836 0.30467,-0.52367 0.30466,2.78962 0.30467,-2.57424 0.60934,4.5165 0.30467,-4.47352 0.30467,1.81039 0.30466,-1.82612 0.60934,0.11126 0.30467,-1.26546 0.30467,-0.24812 0.30467,1.11197 0.30466,0.51417 0.30467,2.77244 0.30467,-2.48391 0.30467,0.78482 0.30467,-1.87165 0.60933,1.00312 0.30467,4.91854 0.30467,-2.01661 0.30467,-0.80891 0.60934,-5.47934 0.60933,3.94197 0.30467,1.65387 0.30467,-2.85936 0.30467,0.0718 0.30466,-0.27509 0.30467,-0.64196 0.30467,2.68651 0.30467,-1.32437 0.30467,0.5167 0.30467,-1.25678 0.30466,1.34514 0.30467,0.82623 0.30467,0.35635 0.30467,-0.5248 0.30467,-2.80532 0.30467,1.58884 0.30467,3.21181 0.30466,-1.72312 0.30467,-0.52218 0.30467,0.26109 0.30467,1.91562 0.30467,-2.16535 0.30466,0.84156 0.60934,-5.92182 0.30467,5.76213 0.30467,-4.8197 0.30467,0.76581 0.30466,6.85284 0.30467,-2.63255 0.30467,-0.28005 0.30467,-1.98017 0.30467,-0.10646 0.30467,-0.49971 0.60933,2.84181 0.60934,-1.6994 0.30467,1.08192 0.30467,0.431 0.30466,-1.75473 0.30467,-0.36198 0.30467,4.61992 0.30467,-5.11866 0.30467,1.57313 0.30467,0.0681 0.30466,0.68447 0.30467,-1.51435 0.30467,5.34463 0.30467,-7.06189 0.30467,1.2458 0.30466,2.95929 0.60934,-2.03119 0.30467,3.1346 0.30467,-6.52902 0.30467,3.5441 0.30466,1.88549 0.30467,-1.87723 0.30467,3.14076 0.30467,-3.03301 0.30467,-1.79098 0.30467,1.8041 0.30466,-2.04475 0.30467,5.26852 0.30467,-1.64091 0.30467,-0.45537 0.30467,1.02123 0.30467,-0.88339 0.30466,-1.62456 0.30467,3.20075 0.30467,-3.096 0.30467,2.3194 0.60934,-3.20252 0.30467,2.11302 0.30466,-2.2483 0.30467,0.41229 0.30467,2.84203 0.30467,-0.71627 0.30467,2.26852 0.30466,-4.48498 0.30467,2.51492 0.30467,-1.91894 0.30467,-0.55405 0.30467,1.16257 0.30467,3.48314 0.30466,-1.17549 0.30467,-1.95075 0.30467,6.52465 0.60934,-5.61647 0.30467,-0.5739 0.30466,3.74418 0.30467,-5.34888 0.30467,2.19392 0.30467,-0.35679 0.30467,5.44987 0.60933,-6.05614 0.30467,1.02814 0.30467,-0.17511 0.30467,-4.63198 0.30467,6.05344 0.30467,-2.38665 0.30466,4.27872 0.30467,-0.59015 0.30467,-1.9376 0.30467,-4.65058 0.30467,4.00549 0.30466,-0.1704 0.60934,-3.3795 0.30467,5.97055 0.30467,-4.07063 0.30467,3.50162 0.30467,-0.21142 0.30466,-2.39544 0.30467,3.54561 0.30467,-0.81642 0.30467,-4.26936 0.30467,3.79601 0.30466,1.49905 0.30467,-2.97679 0.30467,1.24173 0.30467,-1.95528 0.30467,-0.63498 0.30467,1.80365 0.30467,-0.17047 0.30466,-1.68075 0.30467,-1.00896 0.60934,3.68332 0.30467,-2.47877 0.30466,-1.30881 0.30467,3.47884 0.30467,-0.3721 0.30467,-2.66521 0.30467,6.42141 0.30467,-3.86759 0.30466,-0.84678 0.30467,-2.10621 0.30467,1.63332 0.30467,3.06376 0.30467,-2.65253 0.30467,-0.36959 0.30466,2.57444 0.30467,0.33042 0.30467,-2.64335 0.30467,-1.58271 0.30467,-0.19783 0.60933,5.99631 0.30467,-3.03191 0.30467,-0.5466 0.30467,3.03929 0.30467,-3.35771 0.30467,1.19899 0.30466,-0.16613 0.30467,0.58318 0.30467,-0.35233 0.30467,-2.55866 0.30467,3.16189 0.30467,-4.26873 0.30466,5.35159 0.30467,-6.01439 0.30467,1.76993 0.30467,2.77109 0.30467,-3.60814 0.30466,2.06159 0.30467,-2.36216 0.60934,8.78966 0.30467,-5.42039 0.30467,2.86532 0.30466,-3.20292 0.30467,2.52401 0.30467,-1.81778 0.30467,-1.04863 0.30467,1.34186 0.30467,-0.59047 0.30466,-0.90599 0.30467,1.12401 0.30467,0.14421 0.30467,0.31645 0.30467,4.68916 0.30467,-5.09649 0.30466,4.16845 0.30467,-4.07279 0.30467,-0.94186 0.30467,-0.54075 0.30467,0.48507 0.30467,2.59115 0.30466,-3.88376 0.60934,0.78211 0.30467,2.13379 0.30467,-1.07925 0.60933,-0.91774 0.30467,-2.04356 0.30467,3.97733 0.60934,-0.57868 0.30467,0.50446 0.30466,-0.86696 0.30467,1.59686 0.30467,-1.61038 0.30467,0.27125 0.30467,1.38905 0.30467,-1.99939 0.30466,0.92586 0.30467,-0.85007 0.30467,1.52347 0.30467,-0.45833 0.30467,-1.96559 0.30467,0.4631 0.30466,0.75324 0.30467,2.12745 0.30467,4.16332 0.30467,-4.46433 0.30467,-1.69916 0.30467,-0.14924 0.30466,1.72985 0.30467,0.56232 0.30467,-4.84085 0.30467,3.1594 0.30467,0.19238 0.30466,-4.31056 0.30467,1.871 0.30467,-0.86673 0.30467,0.8759 0.30467,6.62631 0.30467,-3.81753 0.30466,4.62023 0.30467,-3.38601 0.30467,0.30223 0.60934,-4.84006 0.30467,0.0433 0.30466,1.02318 0.30467,5.87616 0.30467,-7.61168 0.30467,3.52738 0.30467,-2.80982 0.30467,-0.39527 0.60933,4.63225 0.30467,-0.94579 0.30467,-2.45058 0.30467,0.36767 0.30467,4.50201 0.30466,1.0008 0.30467,-5.7336 0.60934,3.16553 0.30467,4.85671 0.30467,-2.53789 0.30466,-3.85263 0.30467,1.69015 0.30467,-2.42091 0.30467,-0.74095 0.30467,7.83676 0.30467,-4.59723 0.30466,-1.04066 0.30467,-2.03638 0.30467,-0.33803 0.30467,2.16448 0.60934,0.063 0.30466,-0.27362 0.30467,-1.90873 0.30467,2.16955 0.30467,-3.30242 0.30467,3.40353 0.30467,0.76681 0.30466,-0.92015 0.30467,3.65432 0.30467,-4.45062 0.30467,0.89194 0.30467,-2.41892 0.30466,-0.19995 0.30467,-0.6014 0.30467,1.70339 0.30467,-0.77165 0.30467,1.02022 0.30467,5.14079 0.30466,-5.61163 0.30467,5.0988 0.30467,-4.20708 0.30467,-0.0972 0.30467,-2.57111 0.60933,1.70662 0.30467,3.18076 0.30467,-0.78575 0.30467,-2.73999 0.30467,5.93812 0.30467,-7.40412 0.30466,4.11634 0.30467,-0.24351 0.60934,-2.65271 0.30467,3.61275 v 0"
           style="fill:none;stroke:#ff7f0e;stroke-width:1.5;stroke-linecap:square;stroke-linejoin:round;stroke-miterlimit:10;stroke-dasharray:none;stroke-opacity:1"
           id="path388" /></g></g><path
       d="m 37.291641,135.25617 v 150.0233"
       style="fill:none;stroke:#000000;stroke-width:0.481075;stroke-linecap:square;stroke-linejoin:miter;stroke-miterlimit:10;stroke-dasharray:none;stroke-opacity:1"
       id="path392" /><path
       d="m 238.62161,135.25617 v 150.0233"
       style="fill:none;stroke:#000000;stroke-width:0.481075;stroke-linecap:square;stroke-linejoin:miter;stroke-miterlimit:10;stroke-dasharray:none;stroke-opacity:1"
       id="path394" /><path
       d="M 37.291641,135.25617 H 238.62161"
       style="fill:none;stroke:#000000;stroke-width:0.481075;stroke-linecap:square;stroke-linejoin:miter;stroke-miterlimit:10;stroke-dasharray:none;stroke-opacity:1"
       id="path396" /><path
       d="M 37.291641,285.27947 H 238.62161"
       style="fill:none;stroke:#000000;stroke-width:0.481075;stroke-linecap:square;stroke-linejoin:miter;stroke-miterlimit:10;stroke-dasharray:none;stroke-opacity:1"
       id="path398" /><path
       d="m 160.99194,254.83865 h 54.66583 c 0.89707,0 1.34562,0.40089 1.34562,1.20268 v 17.04434 c 0,0.8018 -0.44855,1.20269 -1.34562,1.20269 h -54.66583 c -0.89708,0 -1.34562,-0.40089 -1.34562,-1.20269 v -17.04434 c 0,-0.80179 0.44854,-1.20268 1.34562,-1.20268 z"
       style="fill:#ffffff;fill-opacity:0.8;fill-rule:nonzero;stroke:#cccccc;stroke-width:0.601344;stroke-linecap:butt;stroke-linejoin:miter;stroke-miterlimit:10;stroke-dasharray:none;stroke-opacity:0.8"
       id="path404" /><path
       d="m 162.05171,269.42123 h 12.02687"
       style="fill:none;stroke:#1f77b4;stroke-width:0.902016;stroke-linecap:square;stroke-linejoin:round;stroke-miterlimit:10;stroke-dasharray:none;stroke-opacity:1"
       id="path406" /><path
       d="m 162.05171,260.59839 h 12.02687"
       style="fill:none;stroke:#ff7f0e;stroke-width:0.902016;stroke-linecap:square;stroke-linejoin:round;stroke-miterlimit:10;stroke-dasharray:none;stroke-opacity:1"
       id="path412" /></g><g
     inkscape:groupmode="layer"
     id="layer1"
     inkscape:label="text"
     style="display:inline"
     transform="translate(-16.117708,-51.306676)"><text
       style="font-variant:normal;font-weight:normal;font-size:8.01791px;font-family:'DejaVu Sans';-inkscape-font-specification:DejaVuSans;writing-mode:lr-tb;fill:#000000;fill-opacity:1;fill-rule:nonzero;stroke:none;stroke-width:0.801792"
       id="text32"
       x="59.130272"
       y="263.35959"><tspan
         x="59.130272"
         y="263.35959"
         id="tspan30"
         style="stroke-width:0.801792">0</tspan></text><text
       style="font-variant:normal;font-weight:normal;font-size:8.01791px;font-family:'DejaVu Sans';-inkscape-font-specification:DejaVuSans;writing-mode:lr-tb;fill:#000000;fill-opacity:1;fill-rule:nonzero;stroke:none;stroke-width:0.801792"
       id="text50"
       x="78.459435"
       y="263.35959"><tspan
         x="78.459435 83.55883 88.658226"
         y="263.35959"
         sodipodi:role="line"
         id="tspan48"
         style="stroke-width:0.801792">100</tspan></text><text
       style="font-variant:normal;font-weight:normal;font-size:8.01791px;font-family:'DejaVu Sans';-inkscape-font-specification:DejaVuSans;writing-mode:lr-tb;fill:#000000;fill-opacity:1;fill-rule:nonzero;stroke:none;stroke-width:0.801792"
       id="text68"
       x="102.8875"
       y="263.35959"><tspan
         x="102.8875 107.98689 113.08629"
         y="263.35959"
         sodipodi:role="line"
         id="tspan66"
         style="stroke-width:0.801792">200</tspan></text><text
       style="font-variant:normal;font-weight:normal;font-size:8.01791px;font-family:'DejaVu Sans';-inkscape-font-specification:DejaVuSans;writing-mode:lr-tb;fill:#000000;fill-opacity:1;fill-rule:nonzero;stroke:none;stroke-width:0.801792"
       id="text86"
       x="127.31555"
       y="263.35959"><tspan
         x="127.31555 132.41495 137.51434"
         y="263.35959"
         sodipodi:role="line"
         id="tspan84"
         style="stroke-width:0.801792">300</tspan></text><text
       style="font-variant:normal;font-weight:normal;font-size:8.01791px;font-family:'DejaVu Sans';-inkscape-font-specification:DejaVuSans;writing-mode:lr-tb;fill:#000000;fill-opacity:1;fill-rule:nonzero;stroke:none;stroke-width:0.801792"
       id="text104"
       x="151.74362"
       y="263.35959"><tspan
         x="151.74362 156.84302 161.94241"
         y="263.35959"
         sodipodi:role="line"
         id="tspan102"
         style="stroke-width:0.801792">400</tspan></text><text
       style="font-variant:normal;font-weight:normal;font-size:8.01791px;font-family:'DejaVu Sans';-inkscape-font-specification:DejaVuSans;writing-mode:lr-tb;fill:#000000;fill-opacity:1;fill-rule:nonzero;stroke:none;stroke-width:0.801792"
       id="text122"
       x="176.17168"
       y="263.35959"><tspan
         x="176.17168 181.27107 186.37047"
         y="263.35959"
         sodipodi:role="line"
         id="tspan120"
         style="stroke-width:0.801792">500</tspan></text><text
       style="font-variant:normal;font-weight:normal;font-size:8.01791px;font-family:'DejaVu Sans';-inkscape-font-specification:DejaVuSans;writing-mode:lr-tb;fill:#000000;fill-opacity:1;fill-rule:nonzero;stroke:none;stroke-width:0.801792"
       id="text140"
       x="200.59975"
       y="263.35959"><tspan
         x="200.59975 205.69913 210.79854"
         y="263.35959"
         sodipodi:role="line"
         id="tspan138"
         style="stroke-width:0.801792">600</tspan></text><text
       style="font-variant:normal;font-weight:normal;font-size:8.01791px;font-family:'DejaVu Sans';-inkscape-font-specification:DejaVuSans;writing-mode:lr-tb;fill:#000000;fill-opacity:1;fill-rule:nonzero;stroke:none;stroke-width:0.801792"
       id="text158"
       x="225.0278"
       y="263.35959"><tspan
         x="225.0278 230.12718 235.22659"
         y="263.35959"
         sodipodi:role="line"
         id="tspan156"
         style="stroke-width:0.801792">700</tspan></text><text
       style="font-variant:normal;font-weight:normal;font-size:8.01791px;font-family:'DejaVu Sans';-inkscape-font-specification:DejaVuSans;writing-mode:lr-tb;fill:#000000;fill-opacity:1;fill-rule:nonzero;stroke:none;stroke-width:0.801792"
       id="text176"
       x="249.45586"
       y="263.35959"><tspan
         x="249.45586 254.55525 259.65466"
         y="263.35959"
         sodipodi:role="line"
         id="tspan174"
         style="stroke-width:0.801792">800</tspan></text><text
       style="font-variant:normal;font-weight:normal;font-size:8.01791px;font-family:'DejaVu Sans';-inkscape-font-specification:DejaVuSans;writing-mode:lr-tb;fill:#000000;fill-opacity:1;fill-rule:nonzero;stroke:none;stroke-width:0.801792"
       id="text194"
       x="273.88394"
       y="263.35959"><tspan
         x="273.88394 278.98331 284.0827"
         y="263.35959"
         sodipodi:role="line"
         id="tspan192"
         style="stroke-width:0.801792">900</tspan></text><text
       style="font-variant:normal;font-weight:normal;font-size:8.01791px;font-family:'DejaVu Sans';-inkscape-font-specification:DejaVuSans;writing-mode:lr-tb;fill:#000000;fill-opacity:1;fill-rule:nonzero;stroke:none;stroke-width:0.801792"
       id="text212"
       x="295.76251"
       y="263.35959"><tspan
         x="295.76251 300.86194 305.96133 311.06073"
         y="263.35959"
         sodipodi:role="line"
         id="tspan210"
         style="stroke-width:0.801792">1000</tspan></text><text
       style="font-variant:normal;font-weight:normal;font-size:8.01791px;font-family:'DejaVu Sans';-inkscape-font-specification:DejaVuSans;writing-mode:lr-tb;fill:#000000;fill-opacity:1;fill-rule:nonzero;stroke:none;stroke-width:0.801792"
       id="text216"
       x="171.72734"
       y="274.32159"><tspan
         x="171.72734 176.65837 181.74976 186.65672 191.06657"
         y="274.32159"
         sodipodi:role="line"
         id="tspan214"
         style="stroke-width:0.801792">epoch</tspan></text><g
       id="g232"
       transform="matrix(0.80179196,0,0,-0.80179196,29.677388,254.43869)"><text
         transform="matrix(1,0,0,-1,0,0.0640625)"
         style="font-variant:normal;font-weight:normal;font-size:10px;font-family:'DejaVu Sans';-inkscape-font-specification:DejaVuSans;writing-mode:lr-tb;fill:#000000;fill-opacity:1;fill-rule:nonzero;stroke:none"
         id="text236"><tspan
           x="0 6.3623047"
           y="0"
           sodipodi:role="line"
           id="tspan234">10</tspan></text><text
         transform="matrix(1,0,0,-1,12.820313,3.8921875)"
         style="font-variant:normal;font-weight:normal;font-size:7px;font-family:'DejaVu Sans';-inkscape-font-specification:DejaVuSans;writing-mode:lr-tb;fill:#000000;fill-opacity:1;fill-rule:nonzero;stroke:none"
         id="text240"><tspan
           x="0"
           y="0"
           id="tspan238">4</tspan></text></g><g
       id="g256"
       transform="matrix(0.80179196,0,0,-0.80179196,15.726208,187.50863)"><text
         transform="matrix(1,0,0,-1,0,0.0640625)"
         style="font-variant:normal;font-weight:normal;font-size:10px;font-family:'DejaVu Sans';-inkscape-font-specification:DejaVuSans;writing-mode:lr-tb;fill:#000000;fill-opacity:1;fill-rule:nonzero;stroke:none"
         id="text260"><tspan
           x="0 8.3105469 18.637695 25"
           y="0"
           sodipodi:role="line"
           id="tspan258">2×10</tspan></text><text
         transform="matrix(1,0,0,-1,31.458008,3.8921875)"
         style="font-variant:normal;font-weight:normal;font-size:7px;font-family:'DejaVu Sans';-inkscape-font-specification:DejaVuSans;writing-mode:lr-tb;fill:#000000;fill-opacity:1;fill-rule:nonzero;stroke:none"
         id="text264"><tspan
           x="0"
           y="0"
           id="tspan262">4</tspan></text></g><g
       id="g280"
       transform="matrix(0.80179196,0,0,-0.80179196,15.726208,148.35707)"><text
         transform="matrix(1,0,0,-1,0,0.0640625)"
         style="font-variant:normal;font-weight:normal;font-size:10px;font-family:'DejaVu Sans';-inkscape-font-specification:DejaVuSans;writing-mode:lr-tb;fill:#000000;fill-opacity:1;fill-rule:nonzero;stroke:none"
         id="text284"><tspan
           x="0 8.3105469 18.637695 25"
           y="0"
           sodipodi:role="line"
           id="tspan282">3×10</tspan></text><text
         transform="matrix(1,0,0,-1,31.458008,3.8921875)"
         style="font-variant:normal;font-weight:normal;font-size:7px;font-family:'DejaVu Sans';-inkscape-font-specification:DejaVuSans;writing-mode:lr-tb;fill:#000000;fill-opacity:1;fill-rule:nonzero;stroke:none"
         id="text288"><tspan
           x="0"
           y="0"
           id="tspan286">4</tspan></text></g><g
       id="g304"
       transform="matrix(0.80179196,0,0,-0.80179196,15.726208,120.57859)"><text
         transform="matrix(1,0,0,-1,0,0.0640625)"
         style="font-variant:normal;font-weight:normal;font-size:10px;font-family:'DejaVu Sans';-inkscape-font-specification:DejaVuSans;writing-mode:lr-tb;fill:#000000;fill-opacity:1;fill-rule:nonzero;stroke:none"
         id="text308"><tspan
           x="0 8.3105469 18.637695 25"
           y="0"
           sodipodi:role="line"
           id="tspan306">4×10</tspan></text><text
         transform="matrix(1,0,0,-1,31.458008,3.8921875)"
         style="font-variant:normal;font-weight:normal;font-size:7px;font-family:'DejaVu Sans';-inkscape-font-specification:DejaVuSans;writing-mode:lr-tb;fill:#000000;fill-opacity:1;fill-rule:nonzero;stroke:none"
         id="text312"><tspan
           x="0"
           y="0"
           id="tspan310">4</tspan></text></g><g
       id="g342"
       transform="matrix(0.80179196,0,0,-0.80179196,15.726208,81.427022)"><text
         transform="matrix(1,0,0,-1,0,0.0640625)"
         style="font-variant:normal;font-weight:normal;font-size:10px;font-family:'DejaVu Sans';-inkscape-font-specification:DejaVuSans;writing-mode:lr-tb;fill:#000000;fill-opacity:1;fill-rule:nonzero;stroke:none"
         id="text346"><tspan
           x="0 8.3105469 18.637695 25"
           y="0"
           sodipodi:role="line"
           id="tspan344">6×10</tspan></text><text
         transform="matrix(1,0,0,-1,31.458008,3.8921875)"
         style="font-variant:normal;font-weight:normal;font-size:7px;font-family:'DejaVu Sans';-inkscape-font-specification:DejaVuSans;writing-mode:lr-tb;fill:#000000;fill-opacity:1;fill-rule:nonzero;stroke:none"
         id="text350"><tspan
           x="0"
           y="0"
           id="tspan348">4</tspan></text></g><text
       transform="rotate(-90)"
       style="font-variant:normal;font-weight:normal;font-size:8.01789px;font-family:'DejaVu Sans';-inkscape-font-specification:DejaVuSans;writing-mode:lr-tb;fill:#000000;fill-opacity:1;fill-rule:nonzero;stroke:none;stroke-width:0.80179"
       id="text368"
       x="-249.38869"
       y="25.103256"><tspan
         x="-249.38869 -247.15971 -242.25273 -238.07542"
         y="25.103256"
         sodipodi:role="line"
         id="tspan366"
         style="stroke-width:0.80179">loss (MSE)</tspan></text><text
       style="font-variant:normal;font-weight:normal;font-size:8.01791px;font-family:'DejaVu Sans';-inkscape-font-specification:DejaVuSans;writing-mode:lr-tb;fill:#000000;fill-opacity:1;fill-rule:nonzero;stroke:none;stroke-width:0.801792"
       id="text410"
       x="238.51909"
       y="75.577965"><tspan
         x="238.51909 241.66212 244.95747 249.87247 252.10144"
         y="75.577965"
         sodipodi:role="line"
         id="tspan408"
         style="stroke-width:0.801792">train</tspan></text><text
       style="font-variant:normal;font-weight:normal;font-size:8.01791px;font-family:'DejaVu Sans';-inkscape-font-specification:DejaVuSans;writing-mode:lr-tb;fill:#000000;fill-opacity:1;fill-rule:nonzero;stroke:none;stroke-width:0.801792"
       id="text416"
       x="238.51909"
       y="87.341759"><tspan
         x="238.51909 243.26572 248.18069 250.40967 252.63866 257.73004 262.64502 265.78802 268.01703 272.92398"
         y="87.341759"
         sodipodi:role="line"
         id="tspan414"
         style="stroke-width:0.801792">validation</tspan></text></g></svg>
