<?xml version="1.0" encoding="UTF-8" standalone="no"?>
<svg
   xmlns:dc="http://purl.org/dc/elements/1.1/"
   xmlns:cc="http://creativecommons.org/ns#"
   xmlns:rdf="http://www.w3.org/1999/02/22-rdf-syntax-ns#"
   xmlns:svg="http://www.w3.org/2000/svg"
   xmlns="http://www.w3.org/2000/svg"
   xmlns:sodipodi="http://sodipodi.sourceforge.net/DTD/sodipodi-0.dtd"
   xmlns:inkscape="http://www.inkscape.org/namespaces/inkscape"
   version="1.1"
   id="svg2"
   xml:space="preserve"
   width="80mm"
   height="65.300003mm"
   viewBox="0 0 302.36219 246.80316"
   sodipodi:docname="pearson_chr05.svg"
   inkscape:version="1.0.2 (1.0.2+r75+1)"><metadata
     id="metadata8"><rdf:RDF><cc:Work
         rdf:about=""><dc:format>image/svg+xml</dc:format><dc:type
           rdf:resource="http://purl.org/dc/dcmitype/StillImage" /><dc:title /></cc:Work></rdf:RDF></metadata><defs
     id="defs6"><clipPath
       clipPathUnits="userSpaceOnUse"
       id="clipPath22"><path
         d="M 57.6,38.016 H 414.72 V 304.128 H 57.6 Z"
         id="path20" /></clipPath><clipPath
       clipPathUnits="userSpaceOnUse"
       id="clipPath40"><path
         d="M 57.6,38.016 H 414.72 V 304.128 H 57.6 Z"
         id="path38" /></clipPath><clipPath
       clipPathUnits="userSpaceOnUse"
       id="clipPath58"><path
         d="M 57.6,38.016 H 414.72 V 304.128 H 57.6 Z"
         id="path56" /></clipPath><clipPath
       clipPathUnits="userSpaceOnUse"
       id="clipPath76"><path
         d="M 57.6,38.016 H 414.72 V 304.128 H 57.6 Z"
         id="path74" /></clipPath><clipPath
       clipPathUnits="userSpaceOnUse"
       id="clipPath94"><path
         d="M 57.6,38.016 H 414.72 V 304.128 H 57.6 Z"
         id="path92" /></clipPath><clipPath
       clipPathUnits="userSpaceOnUse"
       id="clipPath112"><path
         d="M 57.6,38.016 H 414.72 V 304.128 H 57.6 Z"
         id="path110" /></clipPath><clipPath
       clipPathUnits="userSpaceOnUse"
       id="clipPath130"><path
         d="M 57.6,38.016 H 414.72 V 304.128 H 57.6 Z"
         id="path128" /></clipPath><clipPath
       clipPathUnits="userSpaceOnUse"
       id="clipPath148"><path
         d="M 57.6,38.016 H 414.72 V 304.128 H 57.6 Z"
         id="path146" /></clipPath><clipPath
       clipPathUnits="userSpaceOnUse"
       id="clipPath170"><path
         d="M 57.6,38.016 H 414.72 V 304.128 H 57.6 Z"
         id="path168" /></clipPath><clipPath
       clipPathUnits="userSpaceOnUse"
       id="clipPath188"><path
         d="M 57.6,38.016 H 414.72 V 304.128 H 57.6 Z"
         id="path186" /></clipPath><clipPath
       clipPathUnits="userSpaceOnUse"
       id="clipPath206"><path
         d="M 57.6,38.016 H 414.72 V 304.128 H 57.6 Z"
         id="path204" /></clipPath><clipPath
       clipPathUnits="userSpaceOnUse"
       id="clipPath224"><path
         d="M 57.6,38.016 H 414.72 V 304.128 H 57.6 Z"
         id="path222" /></clipPath><clipPath
       clipPathUnits="userSpaceOnUse"
       id="clipPath242"><path
         d="M 57.6,38.016 H 414.72 V 304.128 H 57.6 Z"
         id="path240" /></clipPath><clipPath
       clipPathUnits="userSpaceOnUse"
       id="clipPath260"><path
         d="M 57.6,38.016 H 414.72 V 304.128 H 57.6 Z"
         id="path258" /></clipPath><clipPath
       clipPathUnits="userSpaceOnUse"
       id="clipPath282"><path
         d="M 57.6,38.016 H 414.72 V 304.128 H 57.6 Z"
         id="path280" /></clipPath><clipPath
       clipPathUnits="userSpaceOnUse"
       id="clipPath292"><path
         d="M 57.6,38.016 H 414.72 V 304.128 H 57.6 Z"
         id="path290" /></clipPath><clipPath
       clipPathUnits="userSpaceOnUse"
       id="clipPath302"><path
         d="M 57.6,38.016 H 414.72 V 304.128 H 57.6 Z"
         id="path300" /></clipPath><clipPath
       clipPathUnits="userSpaceOnUse"
       id="clipPath312"><path
         d="M 57.6,38.016 H 414.72 V 304.128 H 57.6 Z"
         id="path310" /></clipPath></defs><sodipodi:namedview
     pagecolor="#ffffff"
     bordercolor="#666666"
     borderopacity="1"
     objecttolerance="10"
     gridtolerance="10"
     guidetolerance="10"
     inkscape:pageopacity="0"
     inkscape:pageshadow="2"
     inkscape:window-width="1920"
     inkscape:window-height="1020"
     id="namedview4"
     showgrid="false"
     fit-margin-top="0"
     fit-margin-left="0"
     fit-margin-right="0"
     fit-margin-bottom="0"
     units="mm"
     inkscape:zoom="5.2603344"
     inkscape:cx="207.36119"
     inkscape:cy="66.419151"
     inkscape:window-x="0"
     inkscape:window-y="0"
     inkscape:window-maximized="1"
     inkscape:current-layer="g10"
     inkscape:document-rotation="0" /><g
     id="g10"
     inkscape:groupmode="layer"
     inkscape:label="pearson_chr05"
     transform="matrix(1.3333333,0,0,-1.3333333,-28.023958,443.59358)"><path
       d="M 57.6,38.016 V 304.128"
       style="fill:none;stroke:#b0b0b0;stroke-width:0.8;stroke-linecap:square;stroke-linejoin:round;stroke-miterlimit:10;stroke-dasharray:none;stroke-opacity:1"
       id="path24"
       transform="matrix(0.57537129,0,0,0.57537129,8.924833,141.98473)" /><path
       d="M 102.80506,38.016 V 304.128"
       style="fill:none;stroke:#b0b0b0;stroke-width:0.8;stroke-linecap:square;stroke-linejoin:round;stroke-miterlimit:10;stroke-dasharray:none;stroke-opacity:1"
       id="path42"
       transform="matrix(0.57537129,0,0,0.57537129,8.924833,141.98473)" /><path
       d="M 148.01013,38.016 V 304.128"
       style="fill:none;stroke:#b0b0b0;stroke-width:0.8;stroke-linecap:square;stroke-linejoin:round;stroke-miterlimit:10;stroke-dasharray:none;stroke-opacity:1"
       id="path60"
       transform="matrix(0.57537129,0,0,0.57537129,8.924833,141.98473)" /><path
       d="M 193.21519,38.016 V 304.128"
       style="fill:none;stroke:#b0b0b0;stroke-width:0.8;stroke-linecap:square;stroke-linejoin:round;stroke-miterlimit:10;stroke-dasharray:none;stroke-opacity:1"
       id="path78"
       transform="matrix(0.57537129,0,0,0.57537129,8.924833,141.98473)" /><path
       d="M 238.42025,38.016 V 304.128"
       style="fill:none;stroke:#b0b0b0;stroke-width:0.8;stroke-linecap:square;stroke-linejoin:round;stroke-miterlimit:10;stroke-dasharray:none;stroke-opacity:1"
       id="path96"
       transform="matrix(0.57537129,0,0,0.57537129,8.924833,141.98473)" /><path
       d="M 283.62532,38.016 V 304.128"
       style="fill:none;stroke:#b0b0b0;stroke-width:0.8;stroke-linecap:square;stroke-linejoin:round;stroke-miterlimit:10;stroke-dasharray:none;stroke-opacity:1"
       id="path114"
       transform="matrix(0.57537129,0,0,0.57537129,8.924833,141.98473)" /><path
       d="M 328.83038,38.016 V 304.128"
       style="fill:none;stroke:#b0b0b0;stroke-width:0.8;stroke-linecap:square;stroke-linejoin:round;stroke-miterlimit:10;stroke-dasharray:none;stroke-opacity:1"
       id="path132"
       transform="matrix(0.57537129,0,0,0.57537129,8.924833,141.98473)" /><path
       d="M 224.13409,163.85804 V 316.97125"
       style="fill:none;stroke:#b0b0b0;stroke-width:0.460297;stroke-linecap:square;stroke-linejoin:round;stroke-miterlimit:10;stroke-dasharray:none;stroke-opacity:1"
       id="path150" /><path
       d="M 57.6,38.016 H 414.72"
       style="fill:none;stroke:#b0b0b0;stroke-width:0.8;stroke-linecap:square;stroke-linejoin:round;stroke-miterlimit:10;stroke-dasharray:none;stroke-opacity:1"
       id="path172"
       transform="matrix(0.57537129,0,0,0.57537129,8.924833,141.98473)" /><path
       d="M 57.6,91.2384 H 414.72"
       style="fill:none;stroke:#b0b0b0;stroke-width:0.8;stroke-linecap:square;stroke-linejoin:round;stroke-miterlimit:10;stroke-dasharray:none;stroke-opacity:1"
       id="path190"
       transform="matrix(0.57537129,0,0,0.57537129,8.924833,141.98473)" /><path
       d="M 57.6,144.4608 H 414.72"
       style="fill:none;stroke:#b0b0b0;stroke-width:0.8;stroke-linecap:square;stroke-linejoin:round;stroke-miterlimit:10;stroke-dasharray:none;stroke-opacity:1"
       id="path208"
       transform="matrix(0.57537129,0,0,0.57537129,8.924833,141.98473)" /><path
       d="M 57.6,197.6832 H 414.72"
       style="fill:none;stroke:#b0b0b0;stroke-width:0.8;stroke-linecap:square;stroke-linejoin:round;stroke-miterlimit:10;stroke-dasharray:none;stroke-opacity:1"
       id="path226"
       transform="matrix(0.57537129,0,0,0.57537129,8.924833,141.98473)" /><path
       d="M 57.6,250.9056 H 414.72"
       style="fill:none;stroke:#b0b0b0;stroke-width:0.8;stroke-linecap:square;stroke-linejoin:round;stroke-miterlimit:10;stroke-dasharray:none;stroke-opacity:1"
       id="path244"
       transform="matrix(0.57537129,0,0,0.57537129,8.924833,141.98473)" /><path
       d="M 57.6,304.128 H 414.72"
       style="fill:none;stroke:#b0b0b0;stroke-width:0.8;stroke-linecap:square;stroke-linejoin:round;stroke-miterlimit:10;stroke-dasharray:none;stroke-opacity:1"
       id="path262"
       transform="matrix(0.57537129,0,0,0.57537129,8.924833,141.98473)" /><g
       id="g308"
       clip-path="url(#clipPath312)"
       transform="matrix(0.57537129,0,0,0.57537129,8.9248331,141.98473)"><path
         d="m 57.6,276.25369 4.520506,-9.22124 4.520507,-5.33247 4.520506,-2.78325 4.520506,-2.6316 4.520507,-2.25127 4.520506,-0.77266 4.520506,-1.25736 4.520507,0.21578 4.520506,-1.91501 4.520503,0.3763 4.52051,-2.05949 4.52051,0.18255 4.5205,1.47499 4.52051,-1.2203 4.52051,-1.30997 4.5205,-0.13086 4.52051,-0.31561 4.5205,-0.19217 4.52051,0.71304 4.52051,-1.13097 4.5205,-1.91058 4.52051,0.55916 4.52051,-3.75096 4.5205,0.11014 4.52051,-1.05598 4.5205,0.69133 4.52051,-1.52615 4.52051,-0.39011 4.5205,-3.32194 4.52051,-1.43493 4.52051,1.21937 4.5205,-1.1821 4.52051,-0.45674 4.5205,0.0296 4.52051,1.65235 4.52051,-4.50293 4.5205,-1.92973 4.52051,0.28905 4.52051,-1.68657 4.5205,-0.18606 4.52051,-1.36624 4.52051,-0.58128 4.5205,-0.83076 4.52051,-0.6409 4.5205,-4.31773 4.52051,-2.34803 4.52051,2.50918 4.5205,0.86217 4.52051,-3.40899 4.52051,-3.74829 4.5205,-0.60185 4.52051,1.74086 4.5205,-1.43849 4.52051,-2.00025 4.52051,0.24165 4.5205,-1.39899 4.52051,-2.76337 4.52051,-2.76233 4.5205,-0.0523 4.52051,-1.78399 4.52051,0.50038 4.5205,-1.77612 4.52051,2.10694 4.5205,-4.81612 4.52051,3.2425 4.52051,1.1489 4.5205,-4.02955 4.52051,1.04817 4.52051,-0.39741 4.5205,-2.78195 4.52051,0.92359 4.52051,-2.52103 4.5205,-0.69318 4.52051,1.69428 4.5205,-3.58071 4.52051,0.28694 4.52051,-2.00721 4.5205,-1.02973 4.52051,-0.62128"
         style="fill:none;stroke:#d62728;stroke-width:1.5;stroke-linecap:square;stroke-linejoin:round;stroke-miterlimit:10;stroke-dasharray:none;stroke-opacity:1"
         id="path314" /></g><g
       id="g16"
       transform="matrix(0.57537129,0,0,0.57537129,8.9248331,141.98473)"><g
         id="g18"
         clip-path="url(#clipPath22)" /></g><path
       d="m 42.066219,163.85804 v -2.01379"
       style="fill:#000000;fill-opacity:1;fill-rule:nonzero;stroke:#000000;stroke-width:0.460297;stroke-linecap:butt;stroke-linejoin:round;stroke-miterlimit:10;stroke-dasharray:none;stroke-opacity:1"
       id="path28" /><g
       id="g34"
       transform="matrix(0.57537129,0,0,0.57537129,8.9248331,141.98473)"><g
         id="g36"
         clip-path="url(#clipPath40)" /></g><path
       d="m 68.075914,163.85804 v -2.01379"
       style="fill:#000000;fill-opacity:1;fill-rule:nonzero;stroke:#000000;stroke-width:0.460297;stroke-linecap:butt;stroke-linejoin:round;stroke-miterlimit:10;stroke-dasharray:none;stroke-opacity:1"
       id="path46" /><g
       id="g52"
       transform="matrix(0.57537129,0,0,0.57537129,8.9248331,141.98473)"><g
         id="g54"
         clip-path="url(#clipPath58)" /></g><path
       d="m 94.085613,163.85804 v -2.01379"
       style="fill:#000000;fill-opacity:1;fill-rule:nonzero;stroke:#000000;stroke-width:0.460297;stroke-linecap:butt;stroke-linejoin:round;stroke-miterlimit:10;stroke-dasharray:none;stroke-opacity:1"
       id="path64" /><g
       id="g70"
       transform="matrix(0.57537129,0,0,0.57537129,8.9248331,141.98473)"><g
         id="g72"
         clip-path="url(#clipPath76)" /></g><path
       d="m 120.09531,163.85804 v -2.01379"
       style="fill:#000000;fill-opacity:1;fill-rule:nonzero;stroke:#000000;stroke-width:0.460297;stroke-linecap:butt;stroke-linejoin:round;stroke-miterlimit:10;stroke-dasharray:none;stroke-opacity:1"
       id="path82" /><g
       id="g88"
       transform="matrix(0.57537129,0,0,0.57537129,8.9248331,141.98473)"><g
         id="g90"
         clip-path="url(#clipPath94)" /></g><path
       d="m 146.105,163.85804 v -2.01379"
       style="fill:#000000;fill-opacity:1;fill-rule:nonzero;stroke:#000000;stroke-width:0.460297;stroke-linecap:butt;stroke-linejoin:round;stroke-miterlimit:10;stroke-dasharray:none;stroke-opacity:1"
       id="path100" /><g
       id="g106"
       transform="matrix(0.57537129,0,0,0.57537129,8.9248331,141.98473)"><g
         id="g108"
         clip-path="url(#clipPath112)" /></g><path
       d="m 172.1147,163.85804 v -2.01379"
       style="fill:#000000;fill-opacity:1;fill-rule:nonzero;stroke:#000000;stroke-width:0.460297;stroke-linecap:butt;stroke-linejoin:round;stroke-miterlimit:10;stroke-dasharray:none;stroke-opacity:1"
       id="path118" /><g
       id="g124"
       transform="matrix(0.57537129,0,0,0.57537129,8.9248331,141.98473)"><g
         id="g126"
         clip-path="url(#clipPath130)" /></g><path
       d="m 198.12439,163.85804 v -2.01379"
       style="fill:#000000;fill-opacity:1;fill-rule:nonzero;stroke:#000000;stroke-width:0.460297;stroke-linecap:butt;stroke-linejoin:round;stroke-miterlimit:10;stroke-dasharray:none;stroke-opacity:1"
       id="path136" /><path
       d="m 224.13408,163.85804 v -2.01379"
       style="fill:#000000;fill-opacity:1;fill-rule:nonzero;stroke:#000000;stroke-width:0.460297;stroke-linecap:butt;stroke-linejoin:round;stroke-miterlimit:10;stroke-dasharray:none;stroke-opacity:1"
       id="path154" /><g
       id="g164"
       transform="matrix(0.57537129,0,0,0.57537129,8.9248331,141.98473)"><g
         id="g166"
         clip-path="url(#clipPath170)" /></g><path
       d="M 42.066219,163.85804 H 40.05242"
       style="fill:#000000;fill-opacity:1;fill-rule:nonzero;stroke:#000000;stroke-width:0.460297;stroke-linecap:butt;stroke-linejoin:round;stroke-miterlimit:10;stroke-dasharray:none;stroke-opacity:1"
       id="path176" /><g
       id="g182"
       transform="matrix(0.57537129,0,0,0.57537129,8.9248331,141.98473)"><g
         id="g184"
         clip-path="url(#clipPath188)" /></g><path
       d="M 42.066219,194.48069 H 40.05242"
       style="fill:#000000;fill-opacity:1;fill-rule:nonzero;stroke:#000000;stroke-width:0.460297;stroke-linecap:butt;stroke-linejoin:round;stroke-miterlimit:10;stroke-dasharray:none;stroke-opacity:1"
       id="path194" /><g
       id="g200"
       transform="matrix(0.57537129,0,0,0.57537129,8.9248331,141.98473)"><g
         id="g202"
         clip-path="url(#clipPath206)" /></g><path
       d="M 42.066219,225.10332 H 40.05242"
       style="fill:#000000;fill-opacity:1;fill-rule:nonzero;stroke:#000000;stroke-width:0.460297;stroke-linecap:butt;stroke-linejoin:round;stroke-miterlimit:10;stroke-dasharray:none;stroke-opacity:1"
       id="path212" /><g
       id="g218"
       transform="matrix(0.57537129,0,0,0.57537129,8.9248331,141.98473)"><g
         id="g220"
         clip-path="url(#clipPath224)" /></g><path
       d="M 42.066219,255.72597 H 40.05242"
       style="fill:#000000;fill-opacity:1;fill-rule:nonzero;stroke:#000000;stroke-width:0.460297;stroke-linecap:butt;stroke-linejoin:round;stroke-miterlimit:10;stroke-dasharray:none;stroke-opacity:1"
       id="path230" /><g
       id="g236"
       transform="matrix(0.57537129,0,0,0.57537129,8.9248331,141.98473)"><g
         id="g238"
         clip-path="url(#clipPath242)" /></g><path
       d="M 42.066219,286.34861 H 40.05242"
       style="fill:#000000;fill-opacity:1;fill-rule:nonzero;stroke:#000000;stroke-width:0.460297;stroke-linecap:butt;stroke-linejoin:round;stroke-miterlimit:10;stroke-dasharray:none;stroke-opacity:1"
       id="path248" /><g
       id="g254"
       transform="matrix(0.57537129,0,0,0.57537129,8.9248331,141.98473)"><g
         id="g256"
         clip-path="url(#clipPath260)" /></g><path
       d="M 42.066219,316.97125 H 40.05242"
       style="fill:#000000;fill-opacity:1;fill-rule:nonzero;stroke:#000000;stroke-width:0.460297;stroke-linecap:butt;stroke-linejoin:round;stroke-miterlimit:10;stroke-dasharray:none;stroke-opacity:1"
       id="path266" /><g
       id="g278"
       clip-path="url(#clipPath282)"
       transform="matrix(0.57537129,0,0,0.57537129,8.9248331,141.98473)"><path
         d="m 57.6,233.88671 4.520506,5.87293 4.520507,0.0631 4.520506,-4.44414 4.520506,-2.9221 4.520507,-3.66486 4.520506,-3.50073 4.520506,-4.56529 4.520507,-4.16418 4.520506,-1.96807 4.520503,-2.76715 4.52051,-1.22671 4.52051,-1.91722 4.5205,-3.10885 4.52051,-1.43548 4.52051,-1.59223 4.5205,-1.66322 4.52051,-2.80303 4.5205,-2.77528 4.52051,-1.29206 4.52051,-0.79331 4.5205,-0.43756 4.52051,-2.02848 4.52051,1.16855 4.5205,-0.39703 4.52051,-1.36495 4.5205,-1.08537 4.52051,-1.44008 4.52051,-0.76023 4.5205,-0.4038 4.52051,-0.29325 4.52051,-1.38166 4.5205,-1.25247 4.52051,-2.31586 4.5205,-1.29322 4.52051,-1.69853 4.52051,-2.61964 4.5205,-0.31823 4.52051,-1.74905 4.52051,0.24712 4.5205,-0.93756 4.52051,-0.82294 4.52051,-0.60708 4.5205,-2.32736 4.52051,-2.33525 4.5205,2.97309 4.52051,-0.94511 4.52051,-2.94655 4.5205,-1.57348 4.52051,-1.81103 4.52051,-0.41145 4.5205,-0.51459 4.52051,-1.76073 4.5205,-2.99601 4.52051,-0.76558 4.52051,0.95589 4.5205,-2.28142 4.52051,-0.68421 4.52051,2.27216 4.5205,-1.0802 4.52051,-2.80374 4.52051,-0.94431 4.5205,-1.52442 4.52051,-1.62985 4.5205,-3.09729 4.52051,0.26467 4.52051,-1.09021 4.5205,0.65041 4.52051,-0.43147 4.52051,-3.02753 4.5205,-4.03441 4.52051,0.98334 4.52051,0.0897 4.5205,-2.28278 4.52051,-3.71667 4.5205,0.9805 4.52051,-1.84958 4.52051,-2.74324 4.5205,-0.39863 4.52051,-5.00591"
         style="fill:none;stroke:#1f77b4;stroke-width:1.5;stroke-linecap:square;stroke-linejoin:round;stroke-miterlimit:10;stroke-dasharray:none;stroke-opacity:1"
         id="path284" /></g><g
       id="g288"
       clip-path="url(#clipPath292)"
       transform="matrix(0.57537129,0,0,0.57537129,8.9248331,141.98473)"><path
         d="m 57.6,234.43212 4.520506,6.32476 4.520507,-0.15709 4.520506,-4.66576 4.520506,-3.17251 4.520507,-3.37835 4.520506,-3.18958 4.520506,-4.21271 4.520507,-4.01637 4.520506,-1.66395 4.520503,-3.0518 4.52051,-1.07594 4.52051,-1.84545 4.5205,-3.17029 4.52051,-1.61135 4.52051,-1.61891 4.5205,-1.85808 4.52051,-2.96891 4.5205,-3.01407 4.52051,-1.75631 4.52051,-0.58364 4.5205,-0.59511 4.52051,-2.45779 4.52051,1.00323 4.5205,-0.5189 4.52051,-2.01964 4.5205,-0.99933 4.52051,-1.69908 4.52051,-0.56383 4.5205,-0.21654 4.52051,0.0182 4.52051,-2.11291 4.5205,-0.89634 4.52051,-2.14195 4.5205,-1.44176 4.52051,-2.19481 4.52051,-2.32482 4.5205,-1.05533 4.52051,-1.06451 4.52051,-0.0776 4.5205,-0.43643 4.52051,-0.53265 4.52051,-0.90006 4.5205,-2.05058 4.52051,-2.15631 4.5205,3.38902 4.52051,-0.86961 4.52051,-3.58439 4.5205,-1.73025 4.52051,-0.59066 4.52051,-1.01506 4.5205,-0.0993 4.52051,-1.94909 4.5205,-2.32913 4.52051,-0.2841 4.52051,1.43208 4.5205,-2.61436 4.52051,0.94181 4.52051,0.83767 4.5205,-1.22494 4.52051,-1.90033 4.52051,-0.26983 4.5205,0.10397 4.52051,-2.18175 4.5205,-3.03631 4.52051,0.43575 4.52051,-0.79737 4.5205,0.69933 4.52051,1.40935 4.52051,-3.89191 4.5205,-4.60388 4.52051,1.31051 4.52051,0.73076 4.5205,-2.30664 4.52051,-3.03052 4.5205,-0.31239 4.52051,-3.33241 4.52051,0.44924 4.5205,-1.95988 4.52051,-5.07937"
         style="fill:none;stroke:#ff7f0e;stroke-width:1.5;stroke-linecap:square;stroke-linejoin:round;stroke-miterlimit:10;stroke-dasharray:none;stroke-opacity:1"
         id="path294" /></g><g
       id="g298"
       clip-path="url(#clipPath302)"
       transform="matrix(0.57537129,0,0,0.57537129,8.9248331,141.98473)"><path
         d="m 57.6,239.44626 4.520506,5.12124 4.520507,-0.63489 4.520506,-4.59029 4.520506,-2.75238 4.520507,-2.95627 4.520506,-2.85807 4.520506,-3.74777 4.520507,-4.50061 4.520506,-1.91742 4.520503,-3.73147 4.52051,-1.12112 4.52051,-1.82788 4.5205,-3.43906 4.52051,-1.54342 4.52051,-1.95839 4.5205,-1.86716 4.52051,-2.97582 4.5205,-2.70115 4.52051,-1.35228 4.52051,-0.65719 4.5205,-0.73772 4.52051,-2.2031 4.52051,0.82946 4.5205,-0.0971 4.52051,-2.2661 4.5205,-0.79971 4.52051,-1.83931 4.52051,-0.89734 4.5205,-0.20664 4.52051,-0.0479 4.52051,-2.03466 4.5205,-0.77968 4.52051,-2.62959 4.5205,-0.98904 4.52051,-3.04559 4.52051,-2.36268 4.5205,-0.85016 4.52051,-0.85226 4.52051,-0.12605 4.5205,-0.93118 4.52051,-0.83467 4.52051,-1.00958 4.5205,-2.31016 4.52051,-1.343 4.5205,2.78022 4.52051,-0.4737 4.52051,-3.30955 4.5205,-1.55178 4.52051,-1.70813 4.52051,-0.66222 4.5205,-0.25025 4.52051,-1.40654 4.5205,-2.02473 4.52051,-0.47379 4.52051,1.50922 4.5205,-3.02914 4.52051,1.75347 4.52051,0.20459 4.5205,-1.72103 4.52051,-1.17546 4.52051,-1.18302 4.5205,0.16378 4.52051,-1.74273 4.5205,-3.13981 4.52051,-0.0966 4.52051,-0.44147 4.5205,0.22104 4.52051,1.23178 4.52051,-2.94008 4.5205,-5.07844 4.52051,1.36375 4.52051,-0.0121 4.5205,-1.51968 4.52051,-2.69022 4.5205,-0.33956 4.52051,-3.03877 4.52051,0.89978 4.5205,-4.20209 4.52051,-2.61309"
         style="fill:none;stroke:#2ca02c;stroke-width:1.5;stroke-linecap:square;stroke-linejoin:round;stroke-miterlimit:10;stroke-dasharray:none;stroke-opacity:1"
         id="path304" /></g><path
       d="M 42.066219,163.85804 V 316.97125"
       style="fill:none;stroke:#000000;stroke-width:0.460297;stroke-linecap:square;stroke-linejoin:miter;stroke-miterlimit:10;stroke-dasharray:none;stroke-opacity:1"
       id="path318" /><path
       d="M 247.54282,163.85804 V 316.97125"
       style="fill:none;stroke:#000000;stroke-width:0.460297;stroke-linecap:square;stroke-linejoin:miter;stroke-miterlimit:10;stroke-dasharray:none;stroke-opacity:1"
       id="path320" /><path
       d="M 42.066219,163.85804 H 247.54282"
       style="fill:none;stroke:#000000;stroke-width:0.460297;stroke-linecap:square;stroke-linejoin:miter;stroke-miterlimit:10;stroke-dasharray:none;stroke-opacity:1"
       id="path322" /><path
       d="M 42.066219,316.97125 H 247.54282"
       style="fill:none;stroke:#000000;stroke-width:0.460297;stroke-linecap:square;stroke-linejoin:miter;stroke-miterlimit:10;stroke-dasharray:none;stroke-opacity:1"
       id="path324" /><path
       d="m 53.668945,207.00926 h 11.50742"
       style="fill:none;stroke:#1f77b4;stroke-width:0.863057;stroke-linecap:square;stroke-linejoin:round;stroke-miterlimit:10;stroke-dasharray:none;stroke-opacity:1"
       id="path334" /><path
       d="m 53.668945,198.56749 h 11.50742"
       style="fill:none;stroke:#ff7f0e;stroke-width:0.863057;stroke-linecap:square;stroke-linejoin:round;stroke-miterlimit:10;stroke-dasharray:none;stroke-opacity:1"
       id="path340" /><path
       d="m 53.668945,190.12571 h 11.50742"
       style="fill:none;stroke:#2ca02c;stroke-width:0.863057;stroke-linecap:square;stroke-linejoin:round;stroke-miterlimit:10;stroke-dasharray:none;stroke-opacity:1"
       id="path346" /><path
       d="m 53.668945,181.68393 h 11.50742"
       style="fill:none;stroke:#d62728;stroke-width:0.863057;stroke-linecap:square;stroke-linejoin:round;stroke-miterlimit:10;stroke-dasharray:none;stroke-opacity:1"
       id="path352" /></g><g
     inkscape:groupmode="layer"
     id="layer1"
     inkscape:label="text"
     style="display:inline"><text
       style="font-variant:normal;font-weight:normal;font-size:7.67163px;font-family:'DejaVu Sans';-inkscape-font-specification:DejaVuSans;writing-mode:lr-tb;fill:#000000;fill-opacity:1;fill-rule:nonzero;stroke:none;stroke-width:0.767163"
       id="text32"
       x="25.962999"
       y="236.31183"><tspan
         x="25.962999 30.84215 33.281723"
         y="236.31183"
         sodipodi:role="line"
         id="tspan30"
         style="stroke-width:0.767163">0.0</tspan></text><text
       transform="matrix(1.3333333,0,0,1.3333333,-28.023958,443.59358)"
       style="font-variant:normal;font-weight:normal;font-size:5.75372px;font-family:'DejaVu Sans';-inkscape-font-specification:DejaVuSans;writing-mode:lr-tb;fill:#000000;fill-opacity:1;fill-rule:nonzero;stroke:none;stroke-width:0.575372"
       id="text50"
       x="63.499912"
       y="-155.46132"><tspan
         x="63.499912 67.159279 68.988953"
         y="-155.46132"
         sodipodi:role="line"
         id="tspan48"
         style="stroke-width:0.575372">0.1</tspan></text><text
       transform="matrix(1.3333333,0,0,1.3333333,-28.023958,443.59358)"
       style="font-variant:normal;font-weight:normal;font-size:5.75372px;font-family:'DejaVu Sans';-inkscape-font-specification:DejaVuSans;writing-mode:lr-tb;fill:#000000;fill-opacity:1;fill-rule:nonzero;stroke:none;stroke-width:0.575372"
       id="text68"
       x="89.509613"
       y="-155.46132"><tspan
         x="89.509613 93.168976 94.998657"
         y="-155.46132"
         sodipodi:role="line"
         id="tspan66"
         style="stroke-width:0.575372">0.2</tspan></text><text
       transform="matrix(1.3333333,0,0,1.3333333,-28.023958,443.59358)"
       style="font-variant:normal;font-weight:normal;font-size:5.75372px;font-family:'DejaVu Sans';-inkscape-font-specification:DejaVuSans;writing-mode:lr-tb;fill:#000000;fill-opacity:1;fill-rule:nonzero;stroke:none;stroke-width:0.575372"
       id="text86"
       x="115.5193"
       y="-155.46132"><tspan
         x="115.5193 119.17867 121.00835"
         y="-155.46132"
         sodipodi:role="line"
         id="tspan84"
         style="stroke-width:0.575372">0.3</tspan></text><text
       transform="matrix(1.3333333,0,0,1.3333333,-28.023958,443.59358)"
       style="font-variant:normal;font-weight:normal;font-size:5.75372px;font-family:'DejaVu Sans';-inkscape-font-specification:DejaVuSans;writing-mode:lr-tb;fill:#000000;fill-opacity:1;fill-rule:nonzero;stroke:none;stroke-width:0.575372"
       id="text104"
       x="141.52899"
       y="-155.46132"><tspan
         x="141.52899 145.18837 147.01805"
         y="-155.46132"
         sodipodi:role="line"
         id="tspan102"
         style="stroke-width:0.575372">0.4</tspan></text><text
       transform="matrix(1.3333333,0,0,1.3333333,-28.023958,443.59358)"
       style="font-variant:normal;font-weight:normal;font-size:5.75372px;font-family:'DejaVu Sans';-inkscape-font-specification:DejaVuSans;writing-mode:lr-tb;fill:#000000;fill-opacity:1;fill-rule:nonzero;stroke:none;stroke-width:0.575372"
       id="text122"
       x="167.5387"
       y="-155.46132"><tspan
         x="167.5387 171.19807 173.02774"
         y="-155.46132"
         sodipodi:role="line"
         id="tspan120"
         style="stroke-width:0.575372">0.5</tspan></text><text
       transform="matrix(1.3333333,0,0,1.3333333,-28.023958,443.59358)"
       style="font-variant:normal;font-weight:normal;font-size:5.75372px;font-family:'DejaVu Sans';-inkscape-font-specification:DejaVuSans;writing-mode:lr-tb;fill:#000000;fill-opacity:1;fill-rule:nonzero;stroke:none;stroke-width:0.575372"
       id="text140"
       x="193.5484"
       y="-155.46132"><tspan
         x="193.5484 197.20775 199.03743"
         y="-155.46132"
         sodipodi:role="line"
         id="tspan138"
         style="stroke-width:0.575372">0.6</tspan></text><text
       transform="matrix(1.3333333,0,0,1.3333333,-28.023958,443.59358)"
       style="font-variant:normal;font-weight:normal;font-size:5.75372px;font-family:'DejaVu Sans';-inkscape-font-specification:DejaVuSans;writing-mode:lr-tb;fill:#000000;fill-opacity:1;fill-rule:nonzero;stroke:none;stroke-width:0.575372"
       id="text158"
       x="219.55809"
       y="-155.46132"><tspan
         x="219.55809 223.21745 225.04713"
         y="-155.46132"
         sodipodi:role="line"
         id="tspan156"
         style="stroke-width:0.575372">0.7</tspan></text><text
       transform="matrix(1.3333333,0,0,1.3333333,-28.023958,443.59358)"
       style="font-variant:normal;font-weight:normal;font-size:5.75372px;font-family:'DejaVu Sans';-inkscape-font-specification:DejaVuSans;writing-mode:lr-tb;fill:#000000;fill-opacity:1;fill-rule:nonzero;stroke:none;stroke-width:0.575372"
       id="text162"
       x="109.98107"
       y="-147.59491"><tspan
         x="109.98107 114.44021 117.97872 121.62658 125.14786 130.75197 132.3515 135.51605 137.34572 140.99934 142.59888 145.59654 147.85201 151.37904 155.02689 158.19144 161.72997 163.55965 165.49864 167.32831 172.29378 175.94739"
         y="-147.59491"
         sodipodi:role="line"
         id="tspan160"
         style="stroke-width:0.575372">Genomic distance / Mbp</tspan></text><text
       transform="matrix(1.3333333,0,0,1.3333333,-28.023958,443.59358)"
       style="font-variant:normal;font-weight:normal;font-size:5.75372px;font-family:'DejaVu Sans';-inkscape-font-specification:DejaVuSans;writing-mode:lr-tb;fill:#000000;fill-opacity:1;fill-rule:nonzero;stroke:none;stroke-width:0.575372"
       id="text180"
       x="28.88662"
       y="-161.67351"><tspan
         x="28.88662 32.545982 34.37566"
         y="-161.67351"
         sodipodi:role="line"
         id="tspan178"
         style="stroke-width:0.575372">0.0</tspan></text><text
       transform="matrix(1.3333333,0,0,1.3333333,-28.023958,443.59358)"
       style="font-variant:normal;font-weight:normal;font-size:5.75372px;font-family:'DejaVu Sans';-inkscape-font-specification:DejaVuSans;writing-mode:lr-tb;fill:#000000;fill-opacity:1;fill-rule:nonzero;stroke:none;stroke-width:0.575372"
       id="text198"
       x="28.88662"
       y="-192.29617"><tspan
         x="28.88662 32.545982 34.37566"
         y="-192.29617"
         sodipodi:role="line"
         id="tspan196"
         style="stroke-width:0.575372">0.2</tspan></text><text
       transform="matrix(1.3333333,0,0,1.3333333,-28.023958,443.59358)"
       style="font-variant:normal;font-weight:normal;font-size:5.75372px;font-family:'DejaVu Sans';-inkscape-font-specification:DejaVuSans;writing-mode:lr-tb;fill:#000000;fill-opacity:1;fill-rule:nonzero;stroke:none;stroke-width:0.575372"
       id="text216"
       x="28.88662"
       y="-222.91879"><tspan
         x="28.88662 32.545982 34.37566"
         y="-222.91879"
         sodipodi:role="line"
         id="tspan214"
         style="stroke-width:0.575372">0.4</tspan></text><text
       transform="matrix(1.3333333,0,0,1.3333333,-28.023958,443.59358)"
       style="font-variant:normal;font-weight:normal;font-size:5.75372px;font-family:'DejaVu Sans';-inkscape-font-specification:DejaVuSans;writing-mode:lr-tb;fill:#000000;fill-opacity:1;fill-rule:nonzero;stroke:none;stroke-width:0.575372"
       id="text234"
       x="28.88662"
       y="-253.54146"><tspan
         x="28.88662 32.545982 34.37566"
         y="-253.54146"
         sodipodi:role="line"
         id="tspan232"
         style="stroke-width:0.575372">0.6</tspan></text><text
       transform="matrix(1.3333333,0,0,1.3333333,-28.023958,443.59358)"
       style="font-variant:normal;font-weight:normal;font-size:5.75372px;font-family:'DejaVu Sans';-inkscape-font-specification:DejaVuSans;writing-mode:lr-tb;fill:#000000;fill-opacity:1;fill-rule:nonzero;stroke:none;stroke-width:0.575372"
       id="text252"
       x="28.88662"
       y="-284.16409"><tspan
         x="28.88662 32.545982 34.37566"
         y="-284.16409"
         sodipodi:role="line"
         id="tspan250"
         style="stroke-width:0.575372">0.8</tspan></text><text
       transform="matrix(1.3333333,0,0,1.3333333,-28.023958,443.59358)"
       style="font-variant:normal;font-weight:normal;font-size:5.75372px;font-family:'DejaVu Sans';-inkscape-font-specification:DejaVuSans;writing-mode:lr-tb;fill:#000000;fill-opacity:1;fill-rule:nonzero;stroke:none;stroke-width:0.575372"
       id="text270"
       x="28.88662"
       y="-314.78671"><tspan
         x="28.88662 32.545982 34.37566"
         y="-314.78671"
         sodipodi:role="line"
         id="tspan268"
         style="stroke-width:0.575372">1.0</tspan></text><text
       transform="matrix(0,-1.3333333,1.3333333,0,-28.023958,443.59358)"
       style="font-variant:normal;font-weight:normal;font-size:5.75372px;font-family:'DejaVu Sans';-inkscape-font-specification:DejaVuSans;writing-mode:lr-tb;fill:#000000;fill-opacity:1;fill-rule:nonzero;stroke:none;stroke-width:0.575372"
       id="text274"
       x="212.6171"
       y="25.389442"><tspan
         x="212.6171 216.08661 219.62514 223.15216 225.51694 228.51462 232.03589 235.68375 237.51343 240.67796 244.19923 246.56403 248.9288 252.46733 254.06686 257.5939 259.84933 261.44888 264.97012"
         y="25.389442"
         sodipodi:role="line"
         id="tspan272"
         style="stroke-width:0.575372">Pearson correlation</tspan></text><text
       transform="matrix(1.3333333,0,0,1.3333333,-28.023958,443.59358)"
       style="font-variant:normal;font-weight:normal;font-size:6.90446px;font-family:'DejaVu Sans';-inkscape-font-specification:DejaVuSans;writing-mode:lr-tb;fill:#000000;fill-opacity:1;fill-rule:nonzero;stroke:none;stroke-width:0.575372"
       id="text328"
       x="73.750656"
       y="-328.16232"><tspan
         x="73.750656 77.91404 82.160286 86.392715 89.230446 92.827667 97.0532 101.43063 103.62624 107.42368 111.64922 114.48695 117.32468 121.57093 123.49036 127.72279 130.42932 132.34877 136.57431 140.95172 143.14734 147.23479 150.832 153.02762 155.22324 159.60756 163.85381 168.23122 172.45676 179.18169 181.10114 184.89857 187.09421 191.47853 193.39798 196.99519 199.70174 203.93416 208.31158 212.10904"
         y="-328.16232"
         sodipodi:role="line"
         id="tspan326"
         style="stroke-width:0.575372">Pearson correlation vs. genomic distance</tspan></text><text
       transform="matrix(1.3333333,0,0,1.3333333,-28.023958,443.59358)"
       style="font-variant:normal;font-weight:normal;font-size:6.90446px;font-family:'DejaVu Sans';-inkscape-font-specification:DejaVuSans;writing-mode:lr-tb;fill:#000000;fill-opacity:1;fill-rule:nonzero;stroke:none;stroke-width:0.575372"
       id="text332"
       x="47.995815"
       y="-320.42355"><tspan
         x="47.995815 53.346771 59.305313 63.696548 68.087776 72.479012 76.870247 81.261482 83.4571 85.652718 90.043953 92.239578 96.630798 98.826424 103.21765 105.41327 109.8045 112.00012 116.39136 118.58698 122.9782 127.36943 129.56505 133.95628 138.34752 140.54314 144.93437 149.32561 151.52122 155.91246 160.3037 162.49931 166.89053 171.28178 173.47739 177.86864 182.25986 184.45549 188.84671 193.23796 195.43355 199.8248 204.21602 206.41165 210.63718 215.0146 217.21024 221.73955 226.13078 230.52202 234.91325 237.10886 239.30449"
         y="-320.42355"
         sodipodi:role="line"
         id="tspan330"
         style="stroke-width:0.575372">GM12878, 1,2,4,7,9,11,13,14,16,17,18,20,22 on K562, 5</tspan></text><text
       style="font-variant:normal;font-weight:normal;font-size:7.67163px;font-family:'DejaVu Sans';-inkscape-font-specification:DejaVuSans;writing-mode:lr-tb;fill:#000000;fill-opacity:1;fill-rule:nonzero;stroke:none;stroke-width:0.767163"
       id="text338"
       x="65.015114"
       y="170.2662"><tspan
         x="65.015114 69.894264 74.773415 79.215263 81.654861 84.094414 88.973564 93.852715 98.73185 103.44993 108.32139 110.76098 113.34631 115.78587 121.03326 126.64887 132.00368 134.589 137.02858 141.90773 144.34731 149.22646 154.10561"
         y="170.2662"
         sodipodi:role="line"
         id="tspan336"
         style="stroke-width:0.767163">10k, 250ep / AUC: 0.518</tspan></text><text
       style="font-variant:normal;font-weight:normal;font-size:7.67163px;font-family:'DejaVu Sans';-inkscape-font-specification:DejaVuSans;writing-mode:lr-tb;fill:#000000;fill-opacity:1;fill-rule:nonzero;stroke:none;stroke-width:0.767163"
       id="text344"
       x="65.015114"
       y="181.5219"><tspan
         x="65.015114 69.894264 74.773415 79.215263 81.654861 84.094414 88.973564 93.852715 98.73185 103.44993 108.32139 110.76098 113.34631 115.78587 121.03326 126.64887 132.00368 134.589 137.02858 141.90773 144.34731 149.22646 154.10561"
         y="181.5219"
         sodipodi:role="line"
         id="tspan342"
         style="stroke-width:0.767163">10k, 500ep / AUC: 0.523</tspan></text><text
       style="font-variant:normal;font-weight:normal;font-size:7.67163px;font-family:'DejaVu Sans';-inkscape-font-specification:DejaVuSans;writing-mode:lr-tb;fill:#000000;fill-opacity:1;fill-rule:nonzero;stroke:none;stroke-width:0.767163"
       id="text350"
       x="65.015114"
       y="192.7776"><tspan
         x="65.015114 69.894264 74.773415 79.215263 81.654861 84.094414 88.973564 93.852715 98.73185 103.61101 108.32906 113.20055 115.64011 118.22545 120.66503 125.91241 131.52802 136.88283 139.46815 141.90773 146.78688 149.22646 154.10561 158.98476"
         y="192.7776"
         sodipodi:role="line"
         id="tspan348"
         style="stroke-width:0.767163">10k, 1000ep / AUC: 0.534</tspan></text><text
       style="font-variant:normal;font-weight:normal;font-size:7.67163px;font-family:'DejaVu Sans';-inkscape-font-specification:DejaVuSans;writing-mode:lr-tb;fill:#000000;fill-opacity:1;fill-rule:nonzero;stroke:none;stroke-width:0.767163"
       id="text356"
       x="65.015114"
       y="204.03329"><tspan
         x="65.015114 68.022377 71.17543 75.878128 80.741936 84.738846 87.439247 92.157303 95.310318 97.749893 103.69541 110.31599 115.19517 120.07429 124.95347 129.8326 134.71176 137.15134 139.73666 142.17622 147.42361 153.03925 158.39404 160.97937 163.41895 168.2981 170.73767 175.61681 180.49596"
         y="204.03329"
         sodipodi:role="line"
         id="tspan354"
         style="stroke-width:0.767163">transfer GM12878 / AUC: 0.708</tspan></text></g></svg>
