<?xml version="1.0" encoding="UTF-8" standalone="no"?>
<svg
   xmlns:dc="http://purl.org/dc/elements/1.1/"
   xmlns:cc="http://creativecommons.org/ns#"
   xmlns:rdf="http://www.w3.org/1999/02/22-rdf-syntax-ns#"
   xmlns:svg="http://www.w3.org/2000/svg"
   xmlns="http://www.w3.org/2000/svg"
   xmlns:sodipodi="http://sodipodi.sourceforge.net/DTD/sodipodi-0.dtd"
   xmlns:inkscape="http://www.inkscape.org/namespaces/inkscape"
   version="1.1"
   id="svg2"
   xml:space="preserve"
   width="80mm"
   height="65.300003mm"
   viewBox="0 0 302.36219 246.80316"
   sodipodi:docname="pearson_chrX.svg"
   inkscape:version="1.0.2 (1.0.2+r75+1)"><metadata
     id="metadata8"><rdf:RDF><cc:Work
         rdf:about=""><dc:format>image/svg+xml</dc:format><dc:type
           rdf:resource="http://purl.org/dc/dcmitype/StillImage" /><dc:title></dc:title></cc:Work></rdf:RDF></metadata><defs
     id="defs6"><clipPath
       clipPathUnits="userSpaceOnUse"
       id="clipPath22"><path
         d="M 57.6,38.016 H 414.72 V 304.128 H 57.6 Z"
         id="path20" /></clipPath><clipPath
       clipPathUnits="userSpaceOnUse"
       id="clipPath40"><path
         d="M 57.6,38.016 H 414.72 V 304.128 H 57.6 Z"
         id="path38" /></clipPath><clipPath
       clipPathUnits="userSpaceOnUse"
       id="clipPath58"><path
         d="M 57.6,38.016 H 414.72 V 304.128 H 57.6 Z"
         id="path56" /></clipPath><clipPath
       clipPathUnits="userSpaceOnUse"
       id="clipPath76"><path
         d="M 57.6,38.016 H 414.72 V 304.128 H 57.6 Z"
         id="path74" /></clipPath><clipPath
       clipPathUnits="userSpaceOnUse"
       id="clipPath94"><path
         d="M 57.6,38.016 H 414.72 V 304.128 H 57.6 Z"
         id="path92" /></clipPath><clipPath
       clipPathUnits="userSpaceOnUse"
       id="clipPath112"><path
         d="M 57.6,38.016 H 414.72 V 304.128 H 57.6 Z"
         id="path110" /></clipPath><clipPath
       clipPathUnits="userSpaceOnUse"
       id="clipPath130"><path
         d="M 57.6,38.016 H 414.72 V 304.128 H 57.6 Z"
         id="path128" /></clipPath><clipPath
       clipPathUnits="userSpaceOnUse"
       id="clipPath152"><path
         d="M 57.6,38.016 H 414.72 V 304.128 H 57.6 Z"
         id="path150" /></clipPath><clipPath
       clipPathUnits="userSpaceOnUse"
       id="clipPath170"><path
         d="M 57.6,38.016 H 414.72 V 304.128 H 57.6 Z"
         id="path168" /></clipPath><clipPath
       clipPathUnits="userSpaceOnUse"
       id="clipPath188"><path
         d="M 57.6,38.016 H 414.72 V 304.128 H 57.6 Z"
         id="path186" /></clipPath><clipPath
       clipPathUnits="userSpaceOnUse"
       id="clipPath206"><path
         d="M 57.6,38.016 H 414.72 V 304.128 H 57.6 Z"
         id="path204" /></clipPath><clipPath
       clipPathUnits="userSpaceOnUse"
       id="clipPath224"><path
         d="M 57.6,38.016 H 414.72 V 304.128 H 57.6 Z"
         id="path222" /></clipPath><clipPath
       clipPathUnits="userSpaceOnUse"
       id="clipPath242"><path
         d="M 57.6,38.016 H 414.72 V 304.128 H 57.6 Z"
         id="path240" /></clipPath><clipPath
       clipPathUnits="userSpaceOnUse"
       id="clipPath264"><path
         d="M 57.6,38.016 H 414.72 V 304.128 H 57.6 Z"
         id="path262" /></clipPath><clipPath
       clipPathUnits="userSpaceOnUse"
       id="clipPath274"><path
         d="M 57.6,38.016 H 414.72 V 304.128 H 57.6 Z"
         id="path272" /></clipPath><clipPath
       clipPathUnits="userSpaceOnUse"
       id="clipPath284"><path
         d="M 57.6,38.016 H 414.72 V 304.128 H 57.6 Z"
         id="path282" /></clipPath><clipPath
       clipPathUnits="userSpaceOnUse"
       id="clipPath294"><path
         d="M 57.6,38.016 H 414.72 V 304.128 H 57.6 Z"
         id="path292" /></clipPath><clipPath
       clipPathUnits="userSpaceOnUse"
       id="clipPath304"><path
         d="M 57.6,38.016 H 414.72 V 304.128 H 57.6 Z"
         id="path302" /></clipPath></defs><sodipodi:namedview
     pagecolor="#ffffff"
     bordercolor="#666666"
     borderopacity="1"
     objecttolerance="10"
     gridtolerance="10"
     guidetolerance="10"
     inkscape:pageopacity="0"
     inkscape:pageshadow="2"
     inkscape:window-width="1920"
     inkscape:window-height="1020"
     id="namedview4"
     showgrid="false"
     fit-margin-top="0"
     fit-margin-left="0"
     fit-margin-right="0"
     fit-margin-bottom="0"
     units="mm"
     inkscape:zoom="14.878473"
     inkscape:cx="78.914112"
     inkscape:cy="178.86336"
     inkscape:window-x="0"
     inkscape:window-y="0"
     inkscape:window-maximized="1"
     inkscape:current-layer="g10" /><g
     id="g10"
     inkscape:groupmode="layer"
     inkscape:label="pearson_chrX"
     transform="matrix(1.3333333,0,0,-1.3333333,-28.023958,443.59358)"><g
       id="g16"
       transform="matrix(0.57523699,0,0,0.57523699,8.9276559,141.99377)"><g
         id="g18"
         clip-path="url(#clipPath22)"><path
           d="M 57.6,38.016 V 304.128"
           style="fill:none;stroke:#b0b0b0;stroke-width:0.8;stroke-linecap:square;stroke-linejoin:round;stroke-miterlimit:10;stroke-dasharray:none;stroke-opacity:1"
           id="path24" /></g></g><path
       d="m 42.061306,163.86198 v -2.01332"
       style="fill:#000000;fill-opacity:1;fill-rule:nonzero;stroke:#000000;stroke-width:0.46019;stroke-linecap:butt;stroke-linejoin:round;stroke-miterlimit:10;stroke-dasharray:none;stroke-opacity:1"
       id="path28" /><text
       transform="scale(1,-1)"
       style="font-variant:normal;font-weight:normal;font-size:5.75237px;font-family:'DejaVu Sans';-inkscape-font-specification:DejaVuSans;writing-mode:lr-tb;fill:#000000;fill-opacity:1;fill-rule:nonzero;stroke:none;stroke-width:0.575237"
       id="text32"
       x="40.486374"
       y="-155.46721"><tspan
         x="40.486374 44.144882 45.974133"
         y="-155.46721"
         sodipodi:role="line"
         id="tspan30"
         style="stroke-width:0.575237">0.0</tspan></text><g
       id="g34"
       transform="matrix(0.57523699,0,0,0.57523699,8.9276559,141.99377)"><g
         id="g36"
         clip-path="url(#clipPath40)"><path
           d="M 114.28571,38.016 V 304.128"
           style="fill:none;stroke:#b0b0b0;stroke-width:0.8;stroke-linecap:square;stroke-linejoin:round;stroke-miterlimit:10;stroke-dasharray:none;stroke-opacity:1"
           id="path42" /></g></g><path
       d="m 74.669023,163.86198 v -2.01332"
       style="fill:#000000;fill-opacity:1;fill-rule:nonzero;stroke:#000000;stroke-width:0.46019;stroke-linecap:butt;stroke-linejoin:round;stroke-miterlimit:10;stroke-dasharray:none;stroke-opacity:1"
       id="path46" /><text
       transform="scale(1,-1)"
       style="font-variant:normal;font-weight:normal;font-size:5.75237px;font-family:'DejaVu Sans';-inkscape-font-specification:DejaVuSans;writing-mode:lr-tb;fill:#000000;fill-opacity:1;fill-rule:nonzero;stroke:none;stroke-width:0.575237"
       id="text50"
       x="70.094093"
       y="-155.46721"><tspan
         x="70.094093 73.752602 75.581856"
         y="-155.46721"
         sodipodi:role="line"
         id="tspan48"
         style="stroke-width:0.575237">0.1</tspan></text><g
       id="g52"
       transform="matrix(0.57523699,0,0,0.57523699,8.9276559,141.99377)"><g
         id="g54"
         clip-path="url(#clipPath58)"><path
           d="M 170.97143,38.016 V 304.128"
           style="fill:none;stroke:#b0b0b0;stroke-width:0.8;stroke-linecap:square;stroke-linejoin:round;stroke-miterlimit:10;stroke-dasharray:none;stroke-opacity:1"
           id="path60" /></g></g><path
       d="m 107.27675,163.86198 v -2.01332"
       style="fill:#000000;fill-opacity:1;fill-rule:nonzero;stroke:#000000;stroke-width:0.46019;stroke-linecap:butt;stroke-linejoin:round;stroke-miterlimit:10;stroke-dasharray:none;stroke-opacity:1"
       id="path64" /><text
       transform="scale(1,-1)"
       style="font-variant:normal;font-weight:normal;font-size:5.75237px;font-family:'DejaVu Sans';-inkscape-font-specification:DejaVuSans;writing-mode:lr-tb;fill:#000000;fill-opacity:1;fill-rule:nonzero;stroke:none;stroke-width:0.575237"
       id="text68"
       x="102.70181"
       y="-155.46721"><tspan
         x="102.70181 106.36031 108.18958"
         y="-155.46721"
         sodipodi:role="line"
         id="tspan66"
         style="stroke-width:0.575237">0.2</tspan></text><g
       id="g70"
       transform="matrix(0.57523699,0,0,0.57523699,8.9276559,141.99377)"><g
         id="g72"
         clip-path="url(#clipPath76)"><path
           d="M 227.65714,38.016 V 304.128"
           style="fill:none;stroke:#b0b0b0;stroke-width:0.8;stroke-linecap:square;stroke-linejoin:round;stroke-miterlimit:10;stroke-dasharray:none;stroke-opacity:1"
           id="path78" /></g></g><path
       d="m 139.88447,163.86198 v -2.01332"
       style="fill:#000000;fill-opacity:1;fill-rule:nonzero;stroke:#000000;stroke-width:0.46019;stroke-linecap:butt;stroke-linejoin:round;stroke-miterlimit:10;stroke-dasharray:none;stroke-opacity:1"
       id="path82" /><text
       transform="scale(1,-1)"
       style="font-variant:normal;font-weight:normal;font-size:5.75237px;font-family:'DejaVu Sans';-inkscape-font-specification:DejaVuSans;writing-mode:lr-tb;fill:#000000;fill-opacity:1;fill-rule:nonzero;stroke:none;stroke-width:0.575237"
       id="text86"
       x="135.30954"
       y="-155.46721"><tspan
         x="135.30954 138.96805 140.79729"
         y="-155.46721"
         sodipodi:role="line"
         id="tspan84"
         style="stroke-width:0.575237">0.3</tspan></text><g
       id="g88"
       transform="matrix(0.57523699,0,0,0.57523699,8.9276559,141.99377)"><g
         id="g90"
         clip-path="url(#clipPath94)"><path
           d="M 284.34286,38.016 V 304.128"
           style="fill:none;stroke:#b0b0b0;stroke-width:0.8;stroke-linecap:square;stroke-linejoin:round;stroke-miterlimit:10;stroke-dasharray:none;stroke-opacity:1"
           id="path96" /></g></g><path
       d="m 172.49219,163.86198 v -2.01332"
       style="fill:#000000;fill-opacity:1;fill-rule:nonzero;stroke:#000000;stroke-width:0.46019;stroke-linecap:butt;stroke-linejoin:round;stroke-miterlimit:10;stroke-dasharray:none;stroke-opacity:1"
       id="path100" /><text
       transform="scale(1,-1)"
       style="font-variant:normal;font-weight:normal;font-size:5.75237px;font-family:'DejaVu Sans';-inkscape-font-specification:DejaVuSans;writing-mode:lr-tb;fill:#000000;fill-opacity:1;fill-rule:nonzero;stroke:none;stroke-width:0.575237"
       id="text104"
       x="167.91725"
       y="-155.46721"><tspan
         x="167.91725 171.57576 173.40501"
         y="-155.46721"
         sodipodi:role="line"
         id="tspan102"
         style="stroke-width:0.575237">0.4</tspan></text><g
       id="g106"
       transform="matrix(0.57523699,0,0,0.57523699,8.9276559,141.99377)"><g
         id="g108"
         clip-path="url(#clipPath112)"><path
           d="M 341.02857,38.016 V 304.128"
           style="fill:none;stroke:#b0b0b0;stroke-width:0.8;stroke-linecap:square;stroke-linejoin:round;stroke-miterlimit:10;stroke-dasharray:none;stroke-opacity:1"
           id="path114" /></g></g><path
       d="m 205.09991,163.86198 v -2.01332"
       style="fill:#000000;fill-opacity:1;fill-rule:nonzero;stroke:#000000;stroke-width:0.46019;stroke-linecap:butt;stroke-linejoin:round;stroke-miterlimit:10;stroke-dasharray:none;stroke-opacity:1"
       id="path118" /><text
       transform="scale(1,-1)"
       style="font-variant:normal;font-weight:normal;font-size:5.75237px;font-family:'DejaVu Sans';-inkscape-font-specification:DejaVuSans;writing-mode:lr-tb;fill:#000000;fill-opacity:1;fill-rule:nonzero;stroke:none;stroke-width:0.575237"
       id="text122"
       x="200.52496"
       y="-155.46721"><tspan
         x="200.52496 204.18349 206.01274"
         y="-155.46721"
         sodipodi:role="line"
         id="tspan120"
         style="stroke-width:0.575237">0.5</tspan></text><g
       id="g124"
       transform="matrix(0.57523699,0,0,0.57523699,8.9276559,141.99377)"><g
         id="g126"
         clip-path="url(#clipPath130)"><path
           d="M 397.71429,38.016 V 304.128"
           style="fill:none;stroke:#b0b0b0;stroke-width:0.8;stroke-linecap:square;stroke-linejoin:round;stroke-miterlimit:10;stroke-dasharray:none;stroke-opacity:1"
           id="path132" /></g></g><path
       d="m 237.70763,163.86198 v -2.01332"
       style="fill:#000000;fill-opacity:1;fill-rule:nonzero;stroke:#000000;stroke-width:0.46019;stroke-linecap:butt;stroke-linejoin:round;stroke-miterlimit:10;stroke-dasharray:none;stroke-opacity:1"
       id="path136" /><text
       transform="scale(1,-1)"
       style="font-variant:normal;font-weight:normal;font-size:5.75237px;font-family:'DejaVu Sans';-inkscape-font-specification:DejaVuSans;writing-mode:lr-tb;fill:#000000;fill-opacity:1;fill-rule:nonzero;stroke:none;stroke-width:0.575237"
       id="text140"
       x="233.13271"
       y="-155.46721"><tspan
         x="233.13271 236.7912 238.62044"
         y="-155.46721"
         sodipodi:role="line"
         id="tspan138"
         style="stroke-width:0.575237">0.6</tspan></text><text
       transform="scale(1,-1)"
       style="font-variant:normal;font-weight:normal;font-size:5.75237px;font-family:'DejaVu Sans';-inkscape-font-specification:DejaVuSans;writing-mode:lr-tb;fill:#000000;fill-opacity:1;fill-rule:nonzero;stroke:none;stroke-width:0.575237"
       id="text144"
       x="109.9603"
       y="-147.60263"><tspan
         x="109.9603 114.41839 117.95609 121.6031 125.12354 130.72635 132.32552 135.48932 137.31857 140.97133 142.5705 145.56747 147.8224 151.3486 154.99561 158.15942 161.69713 163.52637 165.46492 167.29416 172.25847 175.91122"
         y="-147.60263"
         sodipodi:role="line"
         id="tspan142"
         style="stroke-width:0.575237">Genomic distance / Mbp</tspan></text><g
       id="g146"
       transform="matrix(0.57523699,0,0,0.57523699,8.9276559,141.99377)"><g
         id="g148"
         clip-path="url(#clipPath152)"><path
           d="M 57.6,38.016 H 414.72"
           style="fill:none;stroke:#b0b0b0;stroke-width:0.8;stroke-linecap:square;stroke-linejoin:round;stroke-miterlimit:10;stroke-dasharray:none;stroke-opacity:1"
           id="path154" /></g></g><path
       d="M 42.061306,163.86198 H 40.047977"
       style="fill:#000000;fill-opacity:1;fill-rule:nonzero;stroke:#000000;stroke-width:0.46019;stroke-linecap:butt;stroke-linejoin:round;stroke-miterlimit:10;stroke-dasharray:none;stroke-opacity:1"
       id="path158" /><text
       transform="scale(1,-1)"
       style="font-variant:normal;font-weight:normal;font-size:5.75237px;font-family:'DejaVu Sans';-inkscape-font-specification:DejaVuSans;writing-mode:lr-tb;fill:#000000;fill-opacity:1;fill-rule:nonzero;stroke:none;stroke-width:0.575237"
       id="text162"
       x="28.884785"
       y="-161.67796"><tspan
         x="28.884785 32.543289 34.372543"
         y="-161.67796"
         sodipodi:role="line"
         id="tspan160"
         style="stroke-width:0.575237">0.0</tspan></text><g
       id="g164"
       transform="matrix(0.57523699,0,0,0.57523699,8.9276559,141.99377)"><g
         id="g166"
         clip-path="url(#clipPath170)"><path
           d="M 57.6,91.2384 H 414.72"
           style="fill:none;stroke:#b0b0b0;stroke-width:0.8;stroke-linecap:square;stroke-linejoin:round;stroke-miterlimit:10;stroke-dasharray:none;stroke-opacity:1"
           id="path172" /></g></g><path
       d="M 42.061306,194.47748 H 40.047977"
       style="fill:#000000;fill-opacity:1;fill-rule:nonzero;stroke:#000000;stroke-width:0.46019;stroke-linecap:butt;stroke-linejoin:round;stroke-miterlimit:10;stroke-dasharray:none;stroke-opacity:1"
       id="path176" /><text
       transform="scale(1,-1)"
       style="font-variant:normal;font-weight:normal;font-size:5.75237px;font-family:'DejaVu Sans';-inkscape-font-specification:DejaVuSans;writing-mode:lr-tb;fill:#000000;fill-opacity:1;fill-rule:nonzero;stroke:none;stroke-width:0.575237"
       id="text180"
       x="28.884785"
       y="-192.29347"><tspan
         x="28.884785 32.543289 34.372543"
         y="-192.29347"
         sodipodi:role="line"
         id="tspan178"
         style="stroke-width:0.575237">0.2</tspan></text><g
       id="g182"
       transform="matrix(0.57523699,0,0,0.57523699,8.9276559,141.99377)"><g
         id="g184"
         clip-path="url(#clipPath188)"><path
           d="M 57.6,144.4608 H 414.72"
           style="fill:none;stroke:#b0b0b0;stroke-width:0.8;stroke-linecap:square;stroke-linejoin:round;stroke-miterlimit:10;stroke-dasharray:none;stroke-opacity:1"
           id="path190" /></g></g><path
       d="M 42.061306,225.09297 H 40.047977"
       style="fill:#000000;fill-opacity:1;fill-rule:nonzero;stroke:#000000;stroke-width:0.46019;stroke-linecap:butt;stroke-linejoin:round;stroke-miterlimit:10;stroke-dasharray:none;stroke-opacity:1"
       id="path194" /><text
       transform="scale(1,-1)"
       style="font-variant:normal;font-weight:normal;font-size:5.75237px;font-family:'DejaVu Sans';-inkscape-font-specification:DejaVuSans;writing-mode:lr-tb;fill:#000000;fill-opacity:1;fill-rule:nonzero;stroke:none;stroke-width:0.575237"
       id="text198"
       x="28.884785"
       y="-222.90895"><tspan
         x="28.884785 32.543289 34.372543"
         y="-222.90895"
         sodipodi:role="line"
         id="tspan196"
         style="stroke-width:0.575237">0.4</tspan></text><g
       id="g200"
       transform="matrix(0.57523699,0,0,0.57523699,8.9276559,141.99377)"><g
         id="g202"
         clip-path="url(#clipPath206)"><path
           d="M 57.6,197.6832 H 414.72"
           style="fill:none;stroke:#b0b0b0;stroke-width:0.8;stroke-linecap:square;stroke-linejoin:round;stroke-miterlimit:10;stroke-dasharray:none;stroke-opacity:1"
           id="path208" /></g></g><path
       d="M 42.061306,255.70846 H 40.047977"
       style="fill:#000000;fill-opacity:1;fill-rule:nonzero;stroke:#000000;stroke-width:0.46019;stroke-linecap:butt;stroke-linejoin:round;stroke-miterlimit:10;stroke-dasharray:none;stroke-opacity:1"
       id="path212" /><text
       transform="scale(1,-1)"
       style="font-variant:normal;font-weight:normal;font-size:5.75237px;font-family:'DejaVu Sans';-inkscape-font-specification:DejaVuSans;writing-mode:lr-tb;fill:#000000;fill-opacity:1;fill-rule:nonzero;stroke:none;stroke-width:0.575237"
       id="text216"
       x="28.884785"
       y="-253.52444"><tspan
         x="28.884785 32.543289 34.372543"
         y="-253.52444"
         sodipodi:role="line"
         id="tspan214"
         style="stroke-width:0.575237">0.6</tspan></text><g
       id="g218"
       transform="matrix(0.57523699,0,0,0.57523699,8.9276559,141.99377)"><g
         id="g220"
         clip-path="url(#clipPath224)"><path
           d="M 57.6,250.9056 H 414.72"
           style="fill:none;stroke:#b0b0b0;stroke-width:0.8;stroke-linecap:square;stroke-linejoin:round;stroke-miterlimit:10;stroke-dasharray:none;stroke-opacity:1"
           id="path226" /></g></g><path
       d="M 42.061306,286.32395 H 40.047977"
       style="fill:#000000;fill-opacity:1;fill-rule:nonzero;stroke:#000000;stroke-width:0.46019;stroke-linecap:butt;stroke-linejoin:round;stroke-miterlimit:10;stroke-dasharray:none;stroke-opacity:1"
       id="path230" /><text
       transform="scale(1,-1)"
       style="font-variant:normal;font-weight:normal;font-size:5.75237px;font-family:'DejaVu Sans';-inkscape-font-specification:DejaVuSans;writing-mode:lr-tb;fill:#000000;fill-opacity:1;fill-rule:nonzero;stroke:none;stroke-width:0.575237"
       id="text234"
       x="28.884785"
       y="-284.13992"><tspan
         x="28.884785 32.543289 34.372543"
         y="-284.13992"
         sodipodi:role="line"
         id="tspan232"
         style="stroke-width:0.575237">0.8</tspan></text><g
       id="g236"
       transform="matrix(0.57523699,0,0,0.57523699,8.9276559,141.99377)"><g
         id="g238"
         clip-path="url(#clipPath242)"><path
           d="M 57.6,304.128 H 414.72"
           style="fill:none;stroke:#b0b0b0;stroke-width:0.8;stroke-linecap:square;stroke-linejoin:round;stroke-miterlimit:10;stroke-dasharray:none;stroke-opacity:1"
           id="path244" /></g></g><path
       d="M 42.061306,316.93945 H 40.047977"
       style="fill:#000000;fill-opacity:1;fill-rule:nonzero;stroke:#000000;stroke-width:0.46019;stroke-linecap:butt;stroke-linejoin:round;stroke-miterlimit:10;stroke-dasharray:none;stroke-opacity:1"
       id="path248" /><text
       transform="scale(1,-1)"
       style="font-variant:normal;font-weight:normal;font-size:5.75237px;font-family:'DejaVu Sans';-inkscape-font-specification:DejaVuSans;writing-mode:lr-tb;fill:#000000;fill-opacity:1;fill-rule:nonzero;stroke:none;stroke-width:0.575237"
       id="text252"
       x="28.884785"
       y="-314.75543"><tspan
         x="28.884785 32.543289 34.372543"
         y="-314.75543"
         sodipodi:role="line"
         id="tspan250"
         style="stroke-width:0.575237">1.0</tspan></text><text
       transform="matrix(0,1,1,0,0,0)"
       style="font-variant:normal;font-weight:normal;font-size:5.75237px;font-family:'DejaVu Sans';-inkscape-font-specification:DejaVuSans;writing-mode:lr-tb;fill:#000000;fill-opacity:1;fill-rule:nonzero;stroke:none;stroke-width:0.575237"
       id="text256"
       x="212.60966"
       y="25.388422"><tspan
         x="212.60966 216.07834 219.61606 223.14224 225.50647 228.50346 232.02391 235.67091 237.50017 240.66396 244.18443 246.54865 248.91287 252.45058 254.04974 257.57593 259.83084 261.43002 264.95047"
         y="25.388422"
         sodipodi:role="line"
         id="tspan254"
         style="stroke-width:0.575237">Pearson correlation</tspan></text><g
       id="g260"
       clip-path="url(#clipPath264)"
       transform="matrix(0.57523699,0,0,0.57523699,8.9276559,141.99377)"><path
         d="m 57.6,237.38512 5.668571,1.02637 5.668572,-33.02428 5.668571,-12.41846 5.668572,12.01671 5.668571,6.3094 5.668572,0.72287 5.668571,0.69886 5.66857,2.2365 5.66857,-0.12089 5.66857,-2.94292 5.66858,-0.4615 5.66857,0.0327 5.66857,-0.55163 5.66857,-6.2475 5.66857,-2.61767 5.66857,-1.71737 5.66857,1.63502 5.66858,3.13242 5.66857,1.87428 5.66857,-8.20321 5.66857,-0.45543 5.66857,-0.47577 5.66857,-0.9187 5.66857,3.45981 5.66858,-0.7347 5.66857,-3.65356 5.66857,-2.89423 5.66857,-1.76231 5.66857,1.79409 5.66857,0.37013 5.66857,-6.20799 5.66858,1.08718 5.66857,0.63613 5.66857,-2.56424 5.66857,3.07269 5.66857,2.33282 5.66857,0.60686 5.66857,0.81443 5.66858,0.9172 5.66857,-6.50656 5.66857,4.3442 5.66857,-1.08569 5.66857,1.50265 5.66857,-6.30691 5.66857,-6.25918 5.66858,-0.06 5.66857,-6.00237 5.66857,2.93225 5.66857,-4.05707 5.66857,5.17878 5.66857,-2.47165 5.66857,-0.97837 5.66858,-2.06347 5.66857,2.92307 5.66857,2.67874 5.66857,-7.99074 5.66857,-4.74494 5.66857,-7.37687 5.66857,-11.41095 5.66858,-6.72933 5.66857,-8.2762 5.66857,-16.04918 5.66857,-7.44412"
         style="fill:none;stroke:#1f77b4;stroke-width:1.5;stroke-linecap:square;stroke-linejoin:round;stroke-miterlimit:10;stroke-dasharray:none;stroke-opacity:1"
         id="path266" /></g><g
       id="g270"
       clip-path="url(#clipPath274)"
       transform="matrix(0.57523699,0,0,0.57523699,8.9276559,141.99377)"><path
         d="m 57.6,239.04473 5.668571,6.99136 5.668572,-35.31873 5.668571,-7.31119 5.668572,5.41091 5.668571,3.65995 5.668572,4.73065 5.668571,-0.66501 5.66857,5.5413 5.66857,0.61929 5.66857,-0.18018 5.66858,0.13084 5.66857,-1.72881 5.66857,-0.65215 5.66857,-4.92676 5.66857,0.0906 5.66857,-6.16258 5.66857,4.64532 5.66858,3.00969 5.66857,0.49096 5.66857,-4.52548 5.66857,-3.01266 5.66857,-1.84783 5.66857,1.17805 5.66857,4.61267 5.66858,-2.80803 5.66857,-2.20334 5.66857,0.66581 5.66857,-4.49698 5.66857,-1.79785 5.66857,-2.86948 5.66857,-2.64884 5.66858,1.4723 5.66857,3.37062 5.66857,-3.82983 5.66857,3.9025 5.66857,1.26291 5.66857,1.07541 5.66857,-1.12255 5.66858,1.904 5.66857,-2.06391 5.66857,7.67737 5.66857,-4.43591 5.66857,-1.38133 5.66857,-1.22418 5.66857,-5.71279 5.66858,-2.79125 5.66857,-5.87045 5.66857,-0.0367 5.66857,2.97061 5.66857,1.02859 5.66857,-3.31875 5.66857,-3.0008 5.66858,1.29075 5.66857,4.0256 5.66857,0.78367 5.66857,-4.98011 5.66857,0.75941 5.66857,-5.79546 5.66857,-10.15776 5.66858,-5.65563 5.66857,-7.53582 5.66857,-18.15079 5.66857,-17.40607"
         style="fill:none;stroke:#ff7f0e;stroke-width:1.5;stroke-linecap:square;stroke-linejoin:round;stroke-miterlimit:10;stroke-dasharray:none;stroke-opacity:1"
         id="path276" /></g><g
       id="g280"
       clip-path="url(#clipPath284)"
       transform="matrix(0.57523699,0,0,0.57523699,8.9276559,141.99377)"><path
         d="m 57.6,243.88696 5.668571,5.40421 5.668572,-29.40573 5.668571,-9.53812 5.668572,5.83889 5.668571,2.93394 5.668572,3.74267 5.668571,-1.05267 5.66857,4.45039 5.66857,0.16975 5.66857,1.91163 5.66858,-0.56986 5.66857,-0.38553 5.66857,-2.98585 5.66857,-3.04904 5.66857,-1.47937 5.66857,-5.62735 5.66857,5.87834 5.66858,0.92916 5.66857,0.29594 5.66857,-6.34962 5.66857,-1.09216 5.66857,-0.21026 5.66857,-0.5758 5.66857,4.04801 5.66858,-1.0791 5.66857,-0.42658 5.66857,0.58565 5.66857,-4.30002 5.66857,-4.00947 5.66857,-4.83293 5.66857,-3.1624 5.66858,1.44944 5.66857,3.29773 5.66857,-4.95439 5.66857,5.52352 5.66857,1.07582 5.66857,1.42075 5.66857,-2.53399 5.66858,3.56101 5.66857,-0.74426 5.66857,1.69182 5.66857,-3.6448 5.66857,1.64005 5.66857,1.0639 5.66857,-6.05193 5.66858,-3.78156 5.66857,-3.34792 5.66857,2.90408 5.66857,1.77622 5.66857,-1.24646 5.66857,-2.42665 5.66857,-0.38848 5.66858,0.96524 5.66857,2.51076 5.66857,0.43859 5.66857,-3.99975 5.66857,1.00508 5.66857,-3.45231 5.66857,-9.68645 5.66858,-6.99421 5.66857,-3.46866 5.66857,-17.36054 5.66857,-14.88409"
         style="fill:none;stroke:#2ca02c;stroke-width:1.5;stroke-linecap:square;stroke-linejoin:round;stroke-miterlimit:10;stroke-dasharray:none;stroke-opacity:1"
         id="path286" /></g><g
       id="g290"
       clip-path="url(#clipPath294)"
       transform="matrix(0.57523699,0,0,0.57523699,8.9276559,141.99377)"><path
         d="m 57.6,243.95913 5.668571,5.23115 5.668572,-28.12311 5.668571,-10.5461 5.668572,6.85618 5.668571,1.63095 5.668572,4.14344 5.668571,-0.90866 5.66857,4.10943 5.66857,0.97982 5.66857,2.04502 5.66858,0.36765 5.66857,0.40923 5.66857,-3.71289 5.66857,-2.9196 5.66857,-1.43985 5.66857,-5.66812 5.66857,4.3552 5.66858,1.58113 5.66857,-0.31654 5.66857,-6.68221 5.66857,-1.44327 5.66857,-0.4296 5.66857,-0.20156 5.66857,3.72082 5.66858,-0.098 5.66857,-0.78429 5.66857,1.88759 5.66857,-4.35562 5.66857,-4.09095 5.66857,-3.568 5.66857,-3.63654 5.66858,0.40515 5.66857,3.19916 5.66857,-4.70059 5.66857,4.45938 5.66857,0.57879 5.66857,2.38811 5.66857,-2.76892 5.66858,5.8453 5.66857,-0.85783 5.66857,0.13336 5.66857,-2.452 5.66857,2.30173 5.66857,0.83301 5.66857,-5.12615 5.66858,-4.87214 5.66857,-2.05899 5.66857,4.73876 5.66857,1.29321 5.66857,-2.17258 5.66857,-1.7629 5.66857,-1.1734 5.66858,1.21705 5.66857,1.90651 5.66857,0.5344 5.66857,-3.24875 5.66857,1.54353 5.66857,-2.86545 5.66857,-9.73344 5.66858,-7.05982 5.66857,-2.50946 5.66857,-14.0317 5.66857,-13.70606"
         style="fill:none;stroke:#d62728;stroke-width:1.5;stroke-linecap:square;stroke-linejoin:round;stroke-miterlimit:10;stroke-dasharray:none;stroke-opacity:1"
         id="path296" /></g><g
       id="g300"
       clip-path="url(#clipPath304)"
       transform="matrix(0.57523699,0,0,0.57523699,8.9276559,141.99377)"><path
         d="m 57.6,245.43923 5.668571,5.62792 5.668572,-27.02403 5.668571,-10.63077 5.668572,5.05781 5.668571,2.50544 5.668572,4.20542 5.668571,-0.5972 5.66857,3.48734 5.66857,0.77103 5.66857,1.94253 5.66858,0.30689 5.66857,0.76476 5.66857,-3.96254 5.66857,-2.59492 5.66857,-1.4785 5.66857,-6.17903 5.66857,3.58778 5.66858,1.87586 5.66857,-0.68669 5.66857,-6.32602 5.66857,-1.49006 5.66857,-1.47671 5.66857,-0.32996 5.66857,2.37883 5.66858,0.81373 5.66857,-0.23647 5.66857,1.90974 5.66857,-3.73694 5.66857,-3.65533 5.66857,-4.29709 5.66857,-3.72419 5.66858,0.36625 5.66857,2.93139 5.66857,-4.54039 5.66857,5.35504 5.66857,-0.0321 5.66857,1.57221 5.66857,-1.24811 5.66858,5.55884 5.66857,-1.45612 5.66857,2.73121 5.66857,-2.31333 5.66857,2.03816 5.66857,0.84945 5.66857,-4.96532 5.66858,-5.47054 5.66857,-1.85531 5.66857,4.59496 5.66857,1.60355 5.66857,-0.94333 5.66857,-2.07516 5.66857,-1.71996 5.66858,2.08767 5.66857,0.33749 5.66857,1.84257 5.66857,-3.80938 5.66857,1.40986 5.66857,-3.09267 5.66857,-10.38966 5.66858,-5.94786 5.66857,-1.97983 5.66857,-13.46785 5.66857,-15.06413"
         style="fill:none;stroke:#9467bd;stroke-width:1.5;stroke-linecap:square;stroke-linejoin:round;stroke-miterlimit:10;stroke-dasharray:none;stroke-opacity:1"
         id="path306" /></g><path
       d="M 42.061306,163.86198 V 316.93945"
       style="fill:none;stroke:#000000;stroke-width:0.46019;stroke-linecap:square;stroke-linejoin:miter;stroke-miterlimit:10;stroke-dasharray:none;stroke-opacity:1"
       id="path310" /><path
       d="M 247.48994,163.86198 V 316.93945"
       style="fill:none;stroke:#000000;stroke-width:0.46019;stroke-linecap:square;stroke-linejoin:miter;stroke-miterlimit:10;stroke-dasharray:none;stroke-opacity:1"
       id="path312" /><path
       d="M 42.061306,163.86198 H 247.48994"
       style="fill:none;stroke:#000000;stroke-width:0.46019;stroke-linecap:square;stroke-linejoin:miter;stroke-miterlimit:10;stroke-dasharray:none;stroke-opacity:1"
       id="path314" /><path
       d="M 42.061306,316.93945 H 247.48994"
       style="fill:none;stroke:#000000;stroke-width:0.46019;stroke-linecap:square;stroke-linejoin:miter;stroke-miterlimit:10;stroke-dasharray:none;stroke-opacity:1"
       id="path316" /><text
       transform="scale(1,-1)"
       style="font-variant:normal;font-weight:normal;font-size:6.90284px;font-family:'DejaVu Sans';-inkscape-font-specification:DejaVuSans;writing-mode:lr-tb;fill:#000000;fill-opacity:1;fill-rule:nonzero;stroke:none;stroke-width:0.575237"
       id="text320"
       x="73.738342"
       y="-328.1279"><tspan
         x="73.738342 77.900757 82.146011 86.377464 89.214523 92.810898 97.035454 101.41186 103.60695 107.40351 111.62807 114.46512 117.30219 121.54745 123.46644 127.69788 130.40379 132.32278 136.54732 140.92374 143.11884 147.20531 150.80171 152.99681 155.19191 159.57521 163.82047 168.19685 172.42142 179.14478 181.06377 184.86032 187.05545 191.43874 193.35774 196.9541 199.66003 203.89146 208.26787 212.06444"
         y="-328.1279"
         sodipodi:role="line"
         id="tspan318"
         style="stroke-width:0.575237">Pearson correlation vs. genomic distance</tspan></text><text
       transform="scale(1,-1)"
       style="font-variant:normal;font-weight:normal;font-size:6.90284px;font-family:'DejaVu Sans';-inkscape-font-specification:DejaVuSans;writing-mode:lr-tb;fill:#000000;fill-opacity:1;fill-rule:nonzero;stroke:none;stroke-width:0.575237"
       id="text324"
       x="65.327522"
       y="-320.39093"><tspan
         sodipodi:role="line"
         id="tspan322"
         x="65.327522"
         y="-320.39093"
         style="stroke-width:0.575237">D. melanogaster embryo 14-16h, 2L, 2R on X</tspan></text><path
       d="m 60.168044,211.38967 h 11.50474"
       style="fill:none;stroke:#1f77b4;stroke-width:0.862855;stroke-linecap:square;stroke-linejoin:round;stroke-miterlimit:10;stroke-dasharray:none;stroke-opacity:1"
       id="path326" /><text
       transform="scale(1,-1)"
       style="font-variant:normal;font-weight:normal;font-size:5.75237px;font-family:'DejaVu Sans';-inkscape-font-specification:DejaVuSans;writing-mode:lr-tb;fill:#000000;fill-opacity:1;fill-rule:nonzero;stroke:none;stroke-width:0.575237"
       id="text330"
       x="76.274689"
       y="-209.37636"><tspan
         x="76.274689 79.933167 83.59169 85.420944 88.958649 92.611404 96.131851 99.295654 102.94265 105.93965 107.76891 109.70744 111.53669 115.47131 119.68208 123.69722 125.63575 127.46501 131.12354 132.95279 136.61128 140.26979"
         y="-209.37636"
         sodipodi:role="line"
         id="tspan328"
         style="stroke-width:0.575237">20 epochs / AUC: 0.569</tspan></text><path
       d="m 60.168044,202.94987 h 11.50474"
       style="fill:none;stroke:#ff7f0e;stroke-width:0.862855;stroke-linecap:square;stroke-linejoin:round;stroke-miterlimit:10;stroke-dasharray:none;stroke-opacity:1"
       id="path332" /><text
       transform="scale(1,-1)"
       style="font-variant:normal;font-weight:normal;font-size:5.75237px;font-family:'DejaVu Sans';-inkscape-font-specification:DejaVuSans;writing-mode:lr-tb;fill:#000000;fill-opacity:1;fill-rule:nonzero;stroke:none;stroke-width:0.575237"
       id="text336"
       x="76.274689"
       y="-200.9366"><tspan
         x="76.274689 79.933167 83.59169 85.420944 88.958649 92.611404 96.131851 99.295654 102.94265 105.93965 107.76891 109.70744 111.53669 115.47131 119.68208 123.69722 125.63575 127.46501 131.12354 132.95279 136.61128 140.26979"
         y="-200.9366"
         sodipodi:role="line"
         id="tspan334"
         style="stroke-width:0.575237">40 epochs / AUC: 0.619</tspan></text><path
       d="m 60.168044,194.51006 h 11.50474"
       style="fill:none;stroke:#2ca02c;stroke-width:0.862855;stroke-linecap:square;stroke-linejoin:round;stroke-miterlimit:10;stroke-dasharray:none;stroke-opacity:1"
       id="path338" /><text
       transform="scale(1,-1)"
       style="font-variant:normal;font-weight:normal;font-size:5.75237px;font-family:'DejaVu Sans';-inkscape-font-specification:DejaVuSans;writing-mode:lr-tb;fill:#000000;fill-opacity:1;fill-rule:nonzero;stroke:none;stroke-width:0.575237"
       id="text342"
       x="76.274689"
       y="-192.49678"><tspan
         x="76.274689 79.933167 83.59169 85.420944 88.958649 92.611404 96.131851 99.295654 102.94265 105.93965 107.76891 109.70744 111.53669 115.47131 119.68208 123.69722 125.63575 127.46501 131.12354 132.95279 136.61128 140.26979"
         y="-192.49678"
         sodipodi:role="line"
         id="tspan340"
         style="stroke-width:0.575237">60 epochs / AUC: 0.640</tspan></text><path
       d="m 60.168044,186.07026 h 11.50474"
       style="fill:none;stroke:#d62728;stroke-width:0.862855;stroke-linecap:square;stroke-linejoin:round;stroke-miterlimit:10;stroke-dasharray:none;stroke-opacity:1"
       id="path344" /><text
       transform="scale(1,-1)"
       style="font-variant:normal;font-weight:normal;font-size:5.75237px;font-family:'DejaVu Sans';-inkscape-font-specification:DejaVuSans;writing-mode:lr-tb;fill:#000000;fill-opacity:1;fill-rule:nonzero;stroke:none;stroke-width:0.575237"
       id="text348"
       x="76.274689"
       y="-184.05696"><tspan
         x="76.274689 79.933167 83.59169 85.420944 88.958649 92.611404 96.131851 99.295654 102.94265 105.93965 107.76891 109.70744 111.53669 115.47131 119.68208 123.69722 125.63575 127.46501 131.12354 132.95279 136.61128 140.26979"
         y="-184.05696"
         sodipodi:role="line"
         id="tspan346"
         style="stroke-width:0.575237">80 epochs / AUC: 0.649</tspan></text><path
       d="m 60.168044,177.63046 h 11.50474"
       style="fill:none;stroke:#9467bd;stroke-width:0.862855;stroke-linecap:square;stroke-linejoin:round;stroke-miterlimit:10;stroke-dasharray:none;stroke-opacity:1"
       id="path350" /><text
       transform="scale(1,-1)"
       style="font-variant:normal;font-weight:normal;font-size:5.75237px;font-family:'DejaVu Sans';-inkscape-font-specification:DejaVuSans;writing-mode:lr-tb;fill:#000000;fill-opacity:1;fill-rule:nonzero;stroke:none;stroke-width:0.575237"
       id="text354"
       x="76.274689"
       y="-175.61717"><tspan
         x="76.274689 79.933167 83.59169 87.250198 89.079453 92.617172 96.269913 99.790359 102.95419 106.60118 109.59816 111.42741 113.36596 115.19522 119.12983 123.34058 127.35574 129.29427 131.12354 134.78203 136.61128 140.26979 143.9283"
         y="-175.61717"
         sodipodi:role="line"
         id="tspan352"
         style="stroke-width:0.575237">100 epochs / AUC: 0.654</tspan></text></g></svg>
