<?xml version="1.0" encoding="UTF-8" standalone="no"?>
<svg
   xmlns:dc="http://purl.org/dc/elements/1.1/"
   xmlns:cc="http://creativecommons.org/ns#"
   xmlns:rdf="http://www.w3.org/1999/02/22-rdf-syntax-ns#"
   xmlns:svg="http://www.w3.org/2000/svg"
   xmlns="http://www.w3.org/2000/svg"
   xmlns:sodipodi="http://sodipodi.sourceforge.net/DTD/sodipodi-0.dtd"
   xmlns:inkscape="http://www.inkscape.org/namespaces/inkscape"
   version="1.1"
   id="svg2"
   xml:space="preserve"
   width="80mm"
   height="65.300003mm"
   viewBox="0 0 302.36219 246.80316"
   sodipodi:docname="pearson_chr3R.svg"
   inkscape:version="1.0.2 (1.0.2+r75+1)"><metadata
     id="metadata8"><rdf:RDF><cc:Work
         rdf:about=""><dc:format>image/svg+xml</dc:format><dc:type
           rdf:resource="http://purl.org/dc/dcmitype/StillImage" /><dc:title></dc:title></cc:Work></rdf:RDF></metadata><defs
     id="defs6"><clipPath
       clipPathUnits="userSpaceOnUse"
       id="clipPath22"><path
         d="M 57.6,38.016 H 414.72 V 304.128 H 57.6 Z"
         id="path20" /></clipPath><clipPath
       clipPathUnits="userSpaceOnUse"
       id="clipPath40"><path
         d="M 57.6,38.016 H 414.72 V 304.128 H 57.6 Z"
         id="path38" /></clipPath><clipPath
       clipPathUnits="userSpaceOnUse"
       id="clipPath58"><path
         d="M 57.6,38.016 H 414.72 V 304.128 H 57.6 Z"
         id="path56" /></clipPath><clipPath
       clipPathUnits="userSpaceOnUse"
       id="clipPath76"><path
         d="M 57.6,38.016 H 414.72 V 304.128 H 57.6 Z"
         id="path74" /></clipPath><clipPath
       clipPathUnits="userSpaceOnUse"
       id="clipPath94"><path
         d="M 57.6,38.016 H 414.72 V 304.128 H 57.6 Z"
         id="path92" /></clipPath><clipPath
       clipPathUnits="userSpaceOnUse"
       id="clipPath112"><path
         d="M 57.6,38.016 H 414.72 V 304.128 H 57.6 Z"
         id="path110" /></clipPath><clipPath
       clipPathUnits="userSpaceOnUse"
       id="clipPath130"><path
         d="M 57.6,38.016 H 414.72 V 304.128 H 57.6 Z"
         id="path128" /></clipPath><clipPath
       clipPathUnits="userSpaceOnUse"
       id="clipPath152"><path
         d="M 57.6,38.016 H 414.72 V 304.128 H 57.6 Z"
         id="path150" /></clipPath><clipPath
       clipPathUnits="userSpaceOnUse"
       id="clipPath170"><path
         d="M 57.6,38.016 H 414.72 V 304.128 H 57.6 Z"
         id="path168" /></clipPath><clipPath
       clipPathUnits="userSpaceOnUse"
       id="clipPath188"><path
         d="M 57.6,38.016 H 414.72 V 304.128 H 57.6 Z"
         id="path186" /></clipPath><clipPath
       clipPathUnits="userSpaceOnUse"
       id="clipPath206"><path
         d="M 57.6,38.016 H 414.72 V 304.128 H 57.6 Z"
         id="path204" /></clipPath><clipPath
       clipPathUnits="userSpaceOnUse"
       id="clipPath224"><path
         d="M 57.6,38.016 H 414.72 V 304.128 H 57.6 Z"
         id="path222" /></clipPath><clipPath
       clipPathUnits="userSpaceOnUse"
       id="clipPath242"><path
         d="M 57.6,38.016 H 414.72 V 304.128 H 57.6 Z"
         id="path240" /></clipPath><clipPath
       clipPathUnits="userSpaceOnUse"
       id="clipPath264"><path
         d="M 57.6,38.016 H 414.72 V 304.128 H 57.6 Z"
         id="path262" /></clipPath><clipPath
       clipPathUnits="userSpaceOnUse"
       id="clipPath274"><path
         d="M 57.6,38.016 H 414.72 V 304.128 H 57.6 Z"
         id="path272" /></clipPath><clipPath
       clipPathUnits="userSpaceOnUse"
       id="clipPath284"><path
         d="M 57.6,38.016 H 414.72 V 304.128 H 57.6 Z"
         id="path282" /></clipPath><clipPath
       clipPathUnits="userSpaceOnUse"
       id="clipPath294"><path
         d="M 57.6,38.016 H 414.72 V 304.128 H 57.6 Z"
         id="path292" /></clipPath><clipPath
       clipPathUnits="userSpaceOnUse"
       id="clipPath304"><path
         d="M 57.6,38.016 H 414.72 V 304.128 H 57.6 Z"
         id="path302" /></clipPath></defs><sodipodi:namedview
     pagecolor="#ffffff"
     bordercolor="#666666"
     borderopacity="1"
     objecttolerance="10"
     gridtolerance="10"
     guidetolerance="10"
     inkscape:pageopacity="0"
     inkscape:pageshadow="2"
     inkscape:window-width="1920"
     inkscape:window-height="1020"
     id="namedview4"
     showgrid="false"
     units="mm"
     fit-margin-top="0"
     fit-margin-left="0"
     fit-margin-right="0"
     fit-margin-bottom="0"
     inkscape:zoom="1.8598091"
     inkscape:cx="168.8837"
     inkscape:cy="202.60566"
     inkscape:window-x="0"
     inkscape:window-y="0"
     inkscape:window-maximized="1"
     inkscape:current-layer="g10" /><g
     id="g10"
     inkscape:groupmode="layer"
     inkscape:label="pearson_chr3R"
     transform="matrix(1.3333333,0,0,-1.3333333,-28.023958,443.59358)"><g
       id="g300"
       clip-path="url(#clipPath304)"
       transform="matrix(0.57531361,0,0,0.57531361,8.9260456,142.00402)"><path
         d="m 57.6,241.11954 5.668571,4.35783 5.668572,-24.93235 5.668571,-1.38507 5.668572,0.82184 5.668571,5.86164 5.668572,2.53145 5.668571,2.40852 5.66857,2.26187 5.66857,-3.14427 5.66857,2.41007 5.66858,-3.21267 5.66857,3.49418 5.66857,1.8641 5.66857,3.22369 5.66857,-0.89952 5.66857,-1.81369 5.66857,-6.67477 5.66858,-2.14359 5.66857,0.44387 5.66857,4.09582 5.66857,-0.88055 5.66857,-5.99956 5.66857,-5.64577 5.66857,2.59587 5.66858,-2.0335 5.66857,2.34756 5.66857,-3.70905 5.66857,-3.16488 5.66857,-0.89235 5.66857,-1.88226 5.66857,-2.72953 5.66858,-3.62941 5.66857,-1.59061 5.66857,4.77966 5.66857,-0.77556 5.66857,-0.60585 5.66857,3.52662 5.66857,-2.21981 5.66858,-3.53358 5.66857,-5.65337 5.66857,0.93085 5.66857,-5.58682 5.66857,-0.58875 5.66857,-4.50264 5.66857,-0.32535 5.66858,3.98119 5.66857,-0.19633 5.66857,-1.68624 5.66857,0.0578 5.66857,7.92162 5.66857,-1.13982 5.66857,-2.63688 5.66858,-5.2809 5.66857,0.83196 5.66857,-6.92078 5.66857,5.96859 5.66857,-0.29306 5.66857,-3.9291 5.66857,-2.38781 5.66858,-2.05675 5.66857,-10.56484 5.66857,-1.61694 5.66857,-21.84789"
         style="fill:none;stroke:#9467bd;stroke-width:1.5;stroke-linecap:square;stroke-linejoin:round;stroke-miterlimit:10;stroke-dasharray:none;stroke-opacity:1"
         id="path306" /></g><g
       id="g16"
       transform="matrix(0.57531361,0,0,0.57531361,8.9260456,142.00402)"><g
         id="g18"
         clip-path="url(#clipPath22)"><path
           d="M 57.6,38.016 V 304.128"
           style="fill:none;stroke:#b0b0b0;stroke-width:0.8;stroke-linecap:square;stroke-linejoin:round;stroke-miterlimit:10;stroke-dasharray:none;stroke-opacity:1"
           id="path24" /></g></g><path
       d="m 42.064109,163.87514 v -2.01359"
       style="fill:#000000;fill-opacity:1;fill-rule:nonzero;stroke:#000000;stroke-width:0.46025;stroke-linecap:butt;stroke-linejoin:round;stroke-miterlimit:10;stroke-dasharray:none;stroke-opacity:1"
       id="path28" /><text
       transform="scale(1,-1)"
       style="font-variant:normal;font-weight:normal;font-size:5.75314px;font-family:'DejaVu Sans';-inkscape-font-specification:DejaVuSans;writing-mode:lr-tb;fill:#000000;fill-opacity:1;fill-rule:nonzero;stroke:none;stroke-width:0.575314"
       id="text32"
       x="40.488567"
       y="-155.47916"><tspan
         x="40.488567 44.147564 45.977058"
         y="-155.47916"
         sodipodi:role="line"
         id="tspan30"
         style="stroke-width:0.575314">0.0</tspan></text><g
       id="g34"
       transform="matrix(0.57531361,0,0,0.57531361,8.9260456,142.00402)"><g
         id="g36"
         clip-path="url(#clipPath40)"><path
           d="M 114.28571,38.016 V 304.128"
           style="fill:none;stroke:#b0b0b0;stroke-width:0.8;stroke-linecap:square;stroke-linejoin:round;stroke-miterlimit:10;stroke-dasharray:none;stroke-opacity:1"
           id="path42" /></g></g><path
       d="m 74.67617,163.87514 v -2.01359"
       style="fill:#000000;fill-opacity:1;fill-rule:nonzero;stroke:#000000;stroke-width:0.46025;stroke-linecap:butt;stroke-linejoin:round;stroke-miterlimit:10;stroke-dasharray:none;stroke-opacity:1"
       id="path46" /><text
       transform="scale(1,-1)"
       style="font-variant:normal;font-weight:normal;font-size:5.75314px;font-family:'DejaVu Sans';-inkscape-font-specification:DejaVuSans;writing-mode:lr-tb;fill:#000000;fill-opacity:1;fill-rule:nonzero;stroke:none;stroke-width:0.575314"
       id="text50"
       x="70.100624"
       y="-155.47916"><tspan
         x="70.100624 73.759621 75.589119"
         y="-155.47916"
         sodipodi:role="line"
         id="tspan48"
         style="stroke-width:0.575314">0.1</tspan></text><g
       id="g52"
       transform="matrix(0.57531361,0,0,0.57531361,8.9260456,142.00402)"><g
         id="g54"
         clip-path="url(#clipPath58)"><path
           d="M 170.97143,38.016 V 304.128"
           style="fill:none;stroke:#b0b0b0;stroke-width:0.8;stroke-linecap:square;stroke-linejoin:round;stroke-miterlimit:10;stroke-dasharray:none;stroke-opacity:1"
           id="path60" /></g></g><path
       d="m 107.28824,163.87514 v -2.01359"
       style="fill:#000000;fill-opacity:1;fill-rule:nonzero;stroke:#000000;stroke-width:0.46025;stroke-linecap:butt;stroke-linejoin:round;stroke-miterlimit:10;stroke-dasharray:none;stroke-opacity:1"
       id="path64" /><text
       transform="scale(1,-1)"
       style="font-variant:normal;font-weight:normal;font-size:5.75314px;font-family:'DejaVu Sans';-inkscape-font-specification:DejaVuSans;writing-mode:lr-tb;fill:#000000;fill-opacity:1;fill-rule:nonzero;stroke:none;stroke-width:0.575314"
       id="text68"
       x="102.71268"
       y="-155.47916"><tspan
         x="102.71268 106.37167 108.20119"
         y="-155.47916"
         sodipodi:role="line"
         id="tspan66"
         style="stroke-width:0.575314">0.2</tspan></text><g
       id="g70"
       transform="matrix(0.57531361,0,0,0.57531361,8.9260456,142.00402)"><g
         id="g72"
         clip-path="url(#clipPath76)"><path
           d="M 227.65714,38.016 V 304.128"
           style="fill:none;stroke:#b0b0b0;stroke-width:0.8;stroke-linecap:square;stroke-linejoin:round;stroke-miterlimit:10;stroke-dasharray:none;stroke-opacity:1"
           id="path78" /></g></g><path
       d="m 139.90029,163.87514 v -2.01359"
       style="fill:#000000;fill-opacity:1;fill-rule:nonzero;stroke:#000000;stroke-width:0.46025;stroke-linecap:butt;stroke-linejoin:round;stroke-miterlimit:10;stroke-dasharray:none;stroke-opacity:1"
       id="path82" /><text
       transform="scale(1,-1)"
       style="font-variant:normal;font-weight:normal;font-size:5.75314px;font-family:'DejaVu Sans';-inkscape-font-specification:DejaVuSans;writing-mode:lr-tb;fill:#000000;fill-opacity:1;fill-rule:nonzero;stroke:none;stroke-width:0.575314"
       id="text86"
       x="135.32477"
       y="-155.47916"><tspan
         x="135.32477 138.98376 140.81325"
         y="-155.47916"
         sodipodi:role="line"
         id="tspan84"
         style="stroke-width:0.575314">0.3</tspan></text><g
       id="g88"
       transform="matrix(0.57531361,0,0,0.57531361,8.9260456,142.00402)"><g
         id="g90"
         clip-path="url(#clipPath94)"><path
           d="M 284.34286,38.016 V 304.128"
           style="fill:none;stroke:#b0b0b0;stroke-width:0.8;stroke-linecap:square;stroke-linejoin:round;stroke-miterlimit:10;stroke-dasharray:none;stroke-opacity:1"
           id="path96" /></g></g><path
       d="m 172.51236,163.87514 v -2.01359"
       style="fill:#000000;fill-opacity:1;fill-rule:nonzero;stroke:#000000;stroke-width:0.46025;stroke-linecap:butt;stroke-linejoin:round;stroke-miterlimit:10;stroke-dasharray:none;stroke-opacity:1"
       id="path100" /><text
       transform="scale(1,-1)"
       style="font-variant:normal;font-weight:normal;font-size:5.75314px;font-family:'DejaVu Sans';-inkscape-font-specification:DejaVuSans;writing-mode:lr-tb;fill:#000000;fill-opacity:1;fill-rule:nonzero;stroke:none;stroke-width:0.575314"
       id="text104"
       x="167.93681"
       y="-155.47916"><tspan
         x="167.93681 171.59579 173.42529"
         y="-155.47916"
         sodipodi:role="line"
         id="tspan102"
         style="stroke-width:0.575314">0.4</tspan></text><g
       id="g106"
       transform="matrix(0.57531361,0,0,0.57531361,8.9260456,142.00402)"><g
         id="g108"
         clip-path="url(#clipPath112)"><path
           d="M 341.02857,38.016 V 304.128"
           style="fill:none;stroke:#b0b0b0;stroke-width:0.8;stroke-linecap:square;stroke-linejoin:round;stroke-miterlimit:10;stroke-dasharray:none;stroke-opacity:1"
           id="path114" /></g></g><path
       d="m 205.12442,163.87514 v -2.01359"
       style="fill:#000000;fill-opacity:1;fill-rule:nonzero;stroke:#000000;stroke-width:0.46025;stroke-linecap:butt;stroke-linejoin:round;stroke-miterlimit:10;stroke-dasharray:none;stroke-opacity:1"
       id="path118" /><text
       transform="scale(1,-1)"
       style="font-variant:normal;font-weight:normal;font-size:5.75314px;font-family:'DejaVu Sans';-inkscape-font-specification:DejaVuSans;writing-mode:lr-tb;fill:#000000;fill-opacity:1;fill-rule:nonzero;stroke:none;stroke-width:0.575314"
       id="text122"
       x="200.54887"
       y="-155.47916"><tspan
         x="200.54887 204.20789 206.03738"
         y="-155.47916"
         sodipodi:role="line"
         id="tspan120"
         style="stroke-width:0.575314">0.5</tspan></text><g
       id="g124"
       transform="matrix(0.57531361,0,0,0.57531361,8.9260456,142.00402)"><g
         id="g126"
         clip-path="url(#clipPath130)"><path
           d="M 397.71429,38.016 V 304.128"
           style="fill:none;stroke:#b0b0b0;stroke-width:0.8;stroke-linecap:square;stroke-linejoin:round;stroke-miterlimit:10;stroke-dasharray:none;stroke-opacity:1"
           id="path132" /></g></g><path
       d="m 237.73648,163.87514 v -2.01359"
       style="fill:#000000;fill-opacity:1;fill-rule:nonzero;stroke:#000000;stroke-width:0.46025;stroke-linecap:butt;stroke-linejoin:round;stroke-miterlimit:10;stroke-dasharray:none;stroke-opacity:1"
       id="path136" /><text
       transform="scale(1,-1)"
       style="font-variant:normal;font-weight:normal;font-size:5.75314px;font-family:'DejaVu Sans';-inkscape-font-specification:DejaVuSans;writing-mode:lr-tb;fill:#000000;fill-opacity:1;fill-rule:nonzero;stroke:none;stroke-width:0.575314"
       id="text140"
       x="233.16095"
       y="-155.47916"><tspan
         x="233.16095 236.81993 238.64943"
         y="-155.47916"
         sodipodi:role="line"
         id="tspan138"
         style="stroke-width:0.575314">0.6</tspan></text><text
       transform="scale(1,-1)"
       style="font-variant:normal;font-weight:normal;font-size:5.75314px;font-family:'DejaVu Sans';-inkscape-font-specification:DejaVuSans;writing-mode:lr-tb;fill:#000000;fill-opacity:1;fill-rule:nonzero;stroke:none;stroke-width:0.575314"
       id="text144"
       x="109.97215"
       y="-147.61353"><tspan
         x="109.97215 114.43083 117.969 121.61649 125.13742 130.74097 132.34035 135.50456 137.33408 140.9873 142.58667 145.58406 147.83928 151.36597 155.01344 158.17769 161.71585 163.54533 165.48416 167.31366 172.27861 175.93185"
         y="-147.61353"
         sodipodi:role="line"
         id="tspan142"
         style="stroke-width:0.575314">Genomic distance / Mbp</tspan></text><g
       id="g146"
       transform="matrix(0.57531361,0,0,0.57531361,8.9260456,142.00402)"><g
         id="g148"
         clip-path="url(#clipPath152)"><path
           d="M 57.6,38.016 H 414.72"
           style="fill:none;stroke:#b0b0b0;stroke-width:0.8;stroke-linecap:square;stroke-linejoin:round;stroke-miterlimit:10;stroke-dasharray:none;stroke-opacity:1"
           id="path154" /></g></g><path
       d="M 42.064109,163.87514 H 40.050512"
       style="fill:#000000;fill-opacity:1;fill-rule:nonzero;stroke:#000000;stroke-width:0.46025;stroke-linecap:butt;stroke-linejoin:round;stroke-miterlimit:10;stroke-dasharray:none;stroke-opacity:1"
       id="path158" /><text
       transform="scale(1,-1)"
       style="font-variant:normal;font-weight:normal;font-size:5.75314px;font-family:'DejaVu Sans';-inkscape-font-specification:DejaVuSans;writing-mode:lr-tb;fill:#000000;fill-opacity:1;fill-rule:nonzero;stroke:none;stroke-width:0.575314"
       id="text162"
       x="28.885832"
       y="-161.69075"><tspan
         x="28.885832 32.54483 34.374325"
         y="-161.69075"
         sodipodi:role="line"
         id="tspan160"
         style="stroke-width:0.575314">0.0</tspan></text><g
       id="g164"
       transform="matrix(0.57531361,0,0,0.57531361,8.9260456,142.00402)"><g
         id="g166"
         clip-path="url(#clipPath170)"><path
           d="M 57.6,91.2384 H 414.72"
           style="fill:none;stroke:#b0b0b0;stroke-width:0.8;stroke-linecap:square;stroke-linejoin:round;stroke-miterlimit:10;stroke-dasharray:none;stroke-opacity:1"
           id="path172" /></g></g><path
       d="M 42.064109,194.49472 H 40.050512"
       style="fill:#000000;fill-opacity:1;fill-rule:nonzero;stroke:#000000;stroke-width:0.46025;stroke-linecap:butt;stroke-linejoin:round;stroke-miterlimit:10;stroke-dasharray:none;stroke-opacity:1"
       id="path176" /><text
       transform="scale(1,-1)"
       style="font-variant:normal;font-weight:normal;font-size:5.75314px;font-family:'DejaVu Sans';-inkscape-font-specification:DejaVuSans;writing-mode:lr-tb;fill:#000000;fill-opacity:1;fill-rule:nonzero;stroke:none;stroke-width:0.575314"
       id="text180"
       x="28.885832"
       y="-192.3103"><tspan
         x="28.885832 32.54483 34.374325"
         y="-192.3103"
         sodipodi:role="line"
         id="tspan178"
         style="stroke-width:0.575314">0.2</tspan></text><g
       id="g182"
       transform="matrix(0.57531361,0,0,0.57531361,8.9260456,142.00402)"><g
         id="g184"
         clip-path="url(#clipPath188)"><path
           d="M 57.6,144.4608 H 414.72"
           style="fill:none;stroke:#b0b0b0;stroke-width:0.8;stroke-linecap:square;stroke-linejoin:round;stroke-miterlimit:10;stroke-dasharray:none;stroke-opacity:1"
           id="path190" /></g></g><path
       d="M 42.064109,225.11429 H 40.050512"
       style="fill:#000000;fill-opacity:1;fill-rule:nonzero;stroke:#000000;stroke-width:0.46025;stroke-linecap:butt;stroke-linejoin:round;stroke-miterlimit:10;stroke-dasharray:none;stroke-opacity:1"
       id="path194" /><text
       transform="scale(1,-1)"
       style="font-variant:normal;font-weight:normal;font-size:5.75314px;font-family:'DejaVu Sans';-inkscape-font-specification:DejaVuSans;writing-mode:lr-tb;fill:#000000;fill-opacity:1;fill-rule:nonzero;stroke:none;stroke-width:0.575314"
       id="text198"
       x="28.885832"
       y="-222.92989"><tspan
         x="28.885832 32.54483 34.374325"
         y="-222.92989"
         sodipodi:role="line"
         id="tspan196"
         style="stroke-width:0.575314">0.4</tspan></text><g
       id="g200"
       transform="matrix(0.57531361,0,0,0.57531361,8.9260456,142.00402)"><g
         id="g202"
         clip-path="url(#clipPath206)"><path
           d="M 57.6,197.6832 H 414.72"
           style="fill:none;stroke:#b0b0b0;stroke-width:0.8;stroke-linecap:square;stroke-linejoin:round;stroke-miterlimit:10;stroke-dasharray:none;stroke-opacity:1"
           id="path208" /></g></g><path
       d="M 42.064109,255.73386 H 40.050512"
       style="fill:#000000;fill-opacity:1;fill-rule:nonzero;stroke:#000000;stroke-width:0.46025;stroke-linecap:butt;stroke-linejoin:round;stroke-miterlimit:10;stroke-dasharray:none;stroke-opacity:1"
       id="path212" /><text
       transform="scale(1,-1)"
       style="font-variant:normal;font-weight:normal;font-size:5.75314px;font-family:'DejaVu Sans';-inkscape-font-specification:DejaVuSans;writing-mode:lr-tb;fill:#000000;fill-opacity:1;fill-rule:nonzero;stroke:none;stroke-width:0.575314"
       id="text216"
       x="28.885832"
       y="-253.54945"><tspan
         x="28.885832 32.54483 34.374325"
         y="-253.54945"
         sodipodi:role="line"
         id="tspan214"
         style="stroke-width:0.575314">0.6</tspan></text><g
       id="g218"
       transform="matrix(0.57531361,0,0,0.57531361,8.9260456,142.00402)"><g
         id="g220"
         clip-path="url(#clipPath224)"><path
           d="M 57.6,250.9056 H 414.72"
           style="fill:none;stroke:#b0b0b0;stroke-width:0.8;stroke-linecap:square;stroke-linejoin:round;stroke-miterlimit:10;stroke-dasharray:none;stroke-opacity:1"
           id="path226" /></g></g><path
       d="M 42.064109,286.35342 H 40.050512"
       style="fill:#000000;fill-opacity:1;fill-rule:nonzero;stroke:#000000;stroke-width:0.46025;stroke-linecap:butt;stroke-linejoin:round;stroke-miterlimit:10;stroke-dasharray:none;stroke-opacity:1"
       id="path230" /><text
       transform="scale(1,-1)"
       style="font-variant:normal;font-weight:normal;font-size:5.75314px;font-family:'DejaVu Sans';-inkscape-font-specification:DejaVuSans;writing-mode:lr-tb;fill:#000000;fill-opacity:1;fill-rule:nonzero;stroke:none;stroke-width:0.575314"
       id="text234"
       x="28.885832"
       y="-284.16901"><tspan
         x="28.885832 32.54483 34.374325"
         y="-284.16901"
         sodipodi:role="line"
         id="tspan232"
         style="stroke-width:0.575314">0.8</tspan></text><g
       id="g236"
       transform="matrix(0.57531361,0,0,0.57531361,8.9260456,142.00402)"><g
         id="g238"
         clip-path="url(#clipPath242)"><path
           d="M 57.6,304.128 H 414.72"
           style="fill:none;stroke:#b0b0b0;stroke-width:0.8;stroke-linecap:square;stroke-linejoin:round;stroke-miterlimit:10;stroke-dasharray:none;stroke-opacity:1"
           id="path244" /></g></g><path
       d="M 42.064109,316.973 H 40.050512"
       style="fill:#000000;fill-opacity:1;fill-rule:nonzero;stroke:#000000;stroke-width:0.46025;stroke-linecap:butt;stroke-linejoin:round;stroke-miterlimit:10;stroke-dasharray:none;stroke-opacity:1"
       id="path248" /><text
       transform="scale(1,-1)"
       style="font-variant:normal;font-weight:normal;font-size:5.75314px;font-family:'DejaVu Sans';-inkscape-font-specification:DejaVuSans;writing-mode:lr-tb;fill:#000000;fill-opacity:1;fill-rule:nonzero;stroke:none;stroke-width:0.575314"
       id="text252"
       x="28.885832"
       y="-314.78857"><tspan
         x="28.885832 32.54483 34.374325"
         y="-314.78857"
         sodipodi:role="line"
         id="tspan250"
         style="stroke-width:0.575314">1.0</tspan></text><text
       transform="matrix(0,1,1,0,0,0)"
       style="font-variant:normal;font-weight:normal;font-size:5.75314px;font-family:'DejaVu Sans';-inkscape-font-specification:DejaVuSans;writing-mode:lr-tb;fill:#000000;fill-opacity:1;fill-rule:nonzero;stroke:none;stroke-width:0.575314"
       id="text256"
       x="212.62923"
       y="25.389006"><tspan
         x="212.62923 216.09837 219.63654 223.16321 225.52776 228.52513 232.04605 235.69354 237.52303 240.68727 244.20818 246.57272 248.93727 252.47543 254.07481 257.60147 259.85672 261.45609 264.97702"
         y="25.389006"
         sodipodi:role="line"
         id="tspan254"
         style="stroke-width:0.575314">Pearson correlation</tspan></text><g
       id="g260"
       clip-path="url(#clipPath264)"
       transform="matrix(0.57531361,0,0,0.57531361,8.9260456,142.00402)"><path
         d="m 57.6,231.84364 5.668571,4.32162 5.668572,-37.76051 5.668571,-3.75557 5.668572,13.34377 5.668571,6.34792 5.668572,0.35939 5.668571,5.51828 5.66857,0.0842 5.66857,-0.40201 5.66857,0.72411 5.66858,-1.58501 5.66857,2.39214 5.66857,3.63381 5.66857,1.89277 5.66857,-0.0485 5.66857,-5.29868 5.66857,-2.60783 5.66858,-1.5011 5.66857,-2.50218 5.66857,1.28505 5.66857,-0.72317 5.66857,-7.31135 5.66857,-1.87201 5.66857,1.17721 5.66858,0.22894 5.66857,-0.72479 5.66857,-0.30776 5.66857,-1.35823 5.66857,-1.54203 5.66857,-4.93636 5.66857,-6.24001 5.66858,-0.1982 5.66857,0.48774 5.66857,6.09776 5.66857,-1.1346 5.66857,1.15204 5.66857,-0.72127 5.66857,-7.02467 5.66858,-4.77871 5.66857,-3.50658 5.66857,-2.41325 5.66857,-4.94922 5.66857,-4.35454 5.66857,-4.28777 5.66857,-2.67707 5.66858,4.9908 5.66857,-2.98162 5.66857,-4.05615 5.66857,1.40699 5.66857,7.22642 5.66857,-2.35736 5.66857,-0.81747 5.66858,-5.14369 5.66857,-2.48613 5.66857,-1.3574 5.66857,-1.98853 5.66857,-3.95373 5.66857,-5.47864 5.66857,-3.99614 5.66858,-6.83054 5.66857,-11.77545 5.66857,-2.5956 5.66857,-9.92257"
         style="fill:none;stroke:#1f77b4;stroke-width:1.5;stroke-linecap:square;stroke-linejoin:round;stroke-miterlimit:10;stroke-dasharray:none;stroke-opacity:1"
         id="path266" /></g><g
       id="g270"
       clip-path="url(#clipPath274)"
       transform="matrix(0.57531361,0,0,0.57531361,8.9260456,142.00402)"><path
         d="m 57.6,235.07278 5.668571,6.38715 5.668572,-35.0085 5.668571,3.93483 5.668572,3.12383 5.668571,5.48839 5.668572,2.38728 5.668571,2.30298 5.66857,1.86351 5.66857,-1.5321 5.66857,1.78163 5.66858,-1.82599 5.66857,0.0271 5.66857,5.7631 5.66857,1.95194 5.66857,0.0851 5.66857,-3.42101 5.66857,-6.03275 5.66858,-1.52316 5.66857,-0.25961 5.66857,1.87976 5.66857,0.029 5.66857,-6.32521 5.66857,-4.16526 5.66857,1.79617 5.66858,-0.14412 5.66857,-2.64368 5.66857,0.31763 5.66857,-2.56974 5.66857,-1.01784 5.66857,-4.06414 5.66857,-5.11274 5.66858,-1.14116 5.66857,0.61843 5.66857,5.17121 5.66857,-1.23464 5.66857,3.1585 5.66857,1.32956 5.66857,-5.56517 5.66858,-2.52334 5.66857,-4.97856 5.66857,0.0586 5.66857,-6.05283 5.66857,-3.33783 5.66857,-1.82501 5.66857,-1.8318 5.66858,4.45902 5.66857,-2.53248 5.66857,-5.37777 5.66857,3.22753 5.66857,7.18841 5.66857,-1.74599 5.66857,-2.35312 5.66858,-4.33446 5.66857,-1.08116 5.66857,-6.70425 5.66857,2.38229 5.66857,2.21442 5.66857,-6.37188 5.66857,-4.83253 5.66858,-7.39607 5.66857,-10.70589 5.66857,-3.07878 5.66857,-23.34912"
         style="fill:none;stroke:#ff7f0e;stroke-width:1.5;stroke-linecap:square;stroke-linejoin:round;stroke-miterlimit:10;stroke-dasharray:none;stroke-opacity:1"
         id="path276" /></g><g
       id="g280"
       clip-path="url(#clipPath284)"
       transform="matrix(0.57531361,0,0,0.57531361,8.9260456,142.00402)"><path
         d="m 57.6,240.26459 5.668571,3.22393 5.668572,-26.94398 5.668571,-0.22078 5.668572,1.4041 5.668571,6.79561 5.668572,2.73357 5.668571,1.95623 5.66857,2.83357 5.66857,-3.87765 5.66857,2.8345 5.66858,-3.6044 5.66857,3.20485 5.66857,2.71292 5.66857,2.63821 5.66857,-0.19958 5.66857,-2.54127 5.66857,-6.51031 5.66858,-2.5541 5.66857,0.62442 5.66857,2.7354 5.66857,0.59345 5.66857,-5.91935 5.66857,-5.57366 5.66857,2.52073 5.66858,-1.81951 5.66857,0.34626 5.66857,-1.01393 5.66857,-4.0747 5.66857,-1.3027 5.66857,-3.24221 5.66857,-2.97798 5.66858,-2.50142 5.66857,-1.46768 5.66857,3.92171 5.66857,1.29136 5.66857,-0.0384 5.66857,2.51494 5.66857,-3.01221 5.66858,-3.20422 5.66857,-6.16433 5.66857,-0.84704 5.66857,-5.73931 5.66857,-0.19023 5.66857,-1.71425 5.66857,-2.55697 5.66858,5.04139 5.66857,-2.8594 5.66857,-3.14266 5.66857,1.17229 5.66857,7.81407 5.66857,-1.23286 5.66857,-2.80723 5.66858,-5.69595 5.66857,-0.13847 5.66857,-5.41607 5.66857,4.02855 5.66857,-1.0045 5.66857,-5.16386 5.66857,-2.97626 5.66858,-3.11403 5.66857,-9.16012 5.66857,-1.46057 5.66857,-23.25843"
         style="fill:none;stroke:#2ca02c;stroke-width:1.5;stroke-linecap:square;stroke-linejoin:round;stroke-miterlimit:10;stroke-dasharray:none;stroke-opacity:1"
         id="path286" /></g><g
       id="g290"
       clip-path="url(#clipPath294)"
       transform="matrix(0.57531361,0,0,0.57531361,8.9260456,142.00402)"><path
         d="m 57.6,240.86885 5.668571,3.6833 5.668572,-25.3726 5.668571,-1.45653 5.668572,1.33392 5.668571,5.85174 5.668572,3.49393 5.668571,2.02773 5.66857,2.54008 5.66857,-3.46786 5.66857,2.30012 5.66858,-3.36759 5.66857,3.54627 5.66857,1.96204 5.66857,3.68983 5.66857,-1.34171 5.66857,-1.42861 5.66857,-7.3236 5.66858,-2.0565 5.66857,0.61606 5.66857,3.4629 5.66857,-0.3725 5.66857,-6.04575 5.66857,-5.59902 5.66857,3.63592 5.66858,-2.1691 5.66857,1.3839 5.66857,-2.39445 5.66857,-4.02944 5.66857,-1.59895 5.66857,-3.00332 5.66857,-2.83039 5.66858,-3.66953 5.66857,-2.44527 5.66857,4.86869 5.66857,1.15118 5.66857,0.36136 5.66857,3.48044 5.66857,-2.35524 5.66858,-3.33928 5.66857,-6.38794 5.66857,0.10653 5.66857,-5.16673 5.66857,0.30354 5.66857,-3.02247 5.66857,-2.00122 5.66858,3.94893 5.66857,-1.22335 5.66857,-2.46686 5.66857,0.3303 5.66857,7.00328 5.66857,-0.0703 5.66857,-3.24731 5.66858,-5.81916 5.66857,0.12753 5.66857,-6.15801 5.66857,5.28434 5.66857,0.35977 5.66857,-4.39508 5.66857,-3.29247 5.66858,-2.89654 5.66857,-9.0009 5.66857,-1.30361 5.66857,-23.40255"
         style="fill:none;stroke:#d62728;stroke-width:1.5;stroke-linecap:square;stroke-linejoin:round;stroke-miterlimit:10;stroke-dasharray:none;stroke-opacity:1"
         id="path296" /></g><path
       d="M 42.064109,163.87514 V 316.973"
       style="fill:none;stroke:#000000;stroke-width:0.46025;stroke-linecap:square;stroke-linejoin:miter;stroke-miterlimit:10;stroke-dasharray:none;stroke-opacity:1"
       id="path310" /><path
       d="M 247.5201,163.87514 V 316.973"
       style="fill:none;stroke:#000000;stroke-width:0.46025;stroke-linecap:square;stroke-linejoin:miter;stroke-miterlimit:10;stroke-dasharray:none;stroke-opacity:1"
       id="path312" /><path
       d="M 42.064109,163.87514 H 247.5201"
       style="fill:none;stroke:#000000;stroke-width:0.46025;stroke-linecap:square;stroke-linejoin:miter;stroke-miterlimit:10;stroke-dasharray:none;stroke-opacity:1"
       id="path314" /><path
       d="M 42.064109,316.973 H 247.5201"
       style="fill:none;stroke:#000000;stroke-width:0.46025;stroke-linecap:square;stroke-linejoin:miter;stroke-miterlimit:10;stroke-dasharray:none;stroke-opacity:1"
       id="path316" /><text
       transform="scale(1,-1)"
       style="font-variant:normal;font-weight:normal;font-size:6.90376px;font-family:'DejaVu Sans';-inkscape-font-specification:DejaVuSans;writing-mode:lr-tb;fill:#000000;fill-opacity:1;fill-rule:nonzero;stroke:none;stroke-width:0.575314"
       id="text320"
       x="73.745369"
       y="-328.16284"><tspan
         x="73.745369 77.908333 82.15416 86.386154 89.223602 92.820465 97.04557 101.42256 103.61796 107.41502 111.64011 114.47757 117.31502 121.56083 123.48009 127.71209 130.41835 132.3376 136.5627 140.93968 143.13509 147.22212 150.81898 153.01439 155.20979 159.59366 163.83949 168.21646 172.44157 179.16583 181.08508 184.88216 187.07755 191.46144 193.38069 196.97754 199.68381 203.91582 208.2928 212.08987"
         y="-328.16284"
         sodipodi:role="line"
         id="tspan318"
         style="stroke-width:0.575314">Pearson correlation vs. genomic distance</tspan></text><text
       transform="scale(1,-1)"
       style="font-variant:normal;font-weight:normal;font-size:6.90376px;font-family:'DejaVu Sans';-inkscape-font-specification:DejaVuSans;writing-mode:lr-tb;fill:#000000;fill-opacity:1;fill-rule:nonzero;stroke:none;stroke-width:0.575314"
       id="text324"
       x="63.099586"
       y="-320.42487"><tspan
         sodipodi:role="line"
         id="tspan322"
         x="63.099586"
         y="-320.42487"
         style="stroke-width:0.575314">D. melanogaster embryo 14-16h, 2L, 2R on 3R</tspan></text><path
       d="m 60.375002,211.35551 h 11.50628"
       style="fill:none;stroke:#1f77b4;stroke-width:0.86297;stroke-linecap:square;stroke-linejoin:round;stroke-miterlimit:10;stroke-dasharray:none;stroke-opacity:1"
       id="path326" /><text
       transform="scale(1,-1)"
       style="font-variant:normal;font-weight:normal;font-size:5.75314px;font-family:'DejaVu Sans';-inkscape-font-specification:DejaVuSans;writing-mode:lr-tb;fill:#000000;fill-opacity:1;fill-rule:nonzero;stroke:none;stroke-width:0.575314"
       id="text330"
       x="76.483788"
       y="-209.34186"><tspan
         x="76.483788 80.142784 83.801781 85.631279 89.169456 92.822685 96.34362 99.507835 103.15533 106.1527 107.98221 109.92101 111.75052 115.68565 119.89694 123.91263 125.85145 127.68095 131.33994 133.16943 136.82843 140.48741"
         y="-209.34186"
         sodipodi:role="line"
         id="tspan328"
         style="stroke-width:0.575314">20 epochs / AUC: 0.574</tspan></text><path
       d="m 60.375002,202.91458 h 11.50628"
       style="fill:none;stroke:#ff7f0e;stroke-width:0.86297;stroke-linecap:square;stroke-linejoin:round;stroke-miterlimit:10;stroke-dasharray:none;stroke-opacity:1"
       id="path332" /><text
       transform="scale(1,-1)"
       style="font-variant:normal;font-weight:normal;font-size:5.75314px;font-family:'DejaVu Sans';-inkscape-font-specification:DejaVuSans;writing-mode:lr-tb;fill:#000000;fill-opacity:1;fill-rule:nonzero;stroke:none;stroke-width:0.575314"
       id="text336"
       x="76.483788"
       y="-200.90094"><tspan
         x="76.483788 80.142784 83.801781 85.631279 89.169456 92.822685 96.34362 99.507835 103.15533 106.1527 107.98221 109.92101 111.75052 115.68565 119.89694 123.91263 125.85145 127.68095 131.33994 133.16943 136.82843 140.48741"
         y="-200.90094"
         sodipodi:role="line"
         id="tspan334"
         style="stroke-width:0.575314">40 epochs / AUC: 0.611</tspan></text><path
       d="m 60.375002,194.47365 h 11.50628"
       style="fill:none;stroke:#2ca02c;stroke-width:0.86297;stroke-linecap:square;stroke-linejoin:round;stroke-miterlimit:10;stroke-dasharray:none;stroke-opacity:1"
       id="path338" /><text
       transform="scale(1,-1)"
       style="font-variant:normal;font-weight:normal;font-size:5.75314px;font-family:'DejaVu Sans';-inkscape-font-specification:DejaVuSans;writing-mode:lr-tb;fill:#000000;fill-opacity:1;fill-rule:nonzero;stroke:none;stroke-width:0.575314"
       id="text342"
       x="76.483788"
       y="-192.46002"><tspan
         x="76.483788 80.142784 83.801781 85.631279 89.169456 92.822685 96.34362 99.507835 103.15533 106.1527 107.98221 109.92101 111.75052 115.68565 119.89694 123.91263 125.85145 127.68095 131.33994 133.16943 136.82843 140.48741"
         y="-192.46002"
         sodipodi:role="line"
         id="tspan340"
         style="stroke-width:0.575314">60 epochs / AUC: 0.631</tspan></text><path
       d="m 60.375002,186.03272 h 11.50628"
       style="fill:none;stroke:#d62728;stroke-width:0.86297;stroke-linecap:square;stroke-linejoin:round;stroke-miterlimit:10;stroke-dasharray:none;stroke-opacity:1"
       id="path344" /><text
       transform="scale(1,-1)"
       style="font-variant:normal;font-weight:normal;font-size:5.75314px;font-family:'DejaVu Sans';-inkscape-font-specification:DejaVuSans;writing-mode:lr-tb;fill:#000000;fill-opacity:1;fill-rule:nonzero;stroke:none;stroke-width:0.575314"
       id="text348"
       x="76.483788"
       y="-184.01907"><tspan
         x="76.483788 80.142784 83.801781 85.631279 89.169456 92.822685 96.34362 99.507835 103.15533 106.1527 107.98221 109.92101 111.75052 115.68565 119.89694 123.91263 125.85145 127.68095 131.33994 133.16943 136.82843 140.48741"
         y="-184.01907"
         sodipodi:role="line"
         id="tspan346"
         style="stroke-width:0.575314">80 epochs / AUC: 0.640</tspan></text><path
       d="m 60.375002,177.5918 h 11.50628"
       style="fill:none;stroke:#9467bd;stroke-width:0.86297;stroke-linecap:square;stroke-linejoin:round;stroke-miterlimit:10;stroke-dasharray:none;stroke-opacity:1"
       id="path350" /><text
       transform="scale(1,-1)"
       style="font-variant:normal;font-weight:normal;font-size:5.75314px;font-family:'DejaVu Sans';-inkscape-font-specification:DejaVuSans;writing-mode:lr-tb;fill:#000000;fill-opacity:1;fill-rule:nonzero;stroke:none;stroke-width:0.575314"
       id="text354"
       x="76.483788"
       y="-175.57812"><tspan
         x="76.483788 80.142784 83.801781 87.460777 89.29026 92.828453 96.481682 100.00262 103.16683 106.81431 109.8117 111.64118 113.58 115.40951 119.34466 123.55595 127.57163 129.51042 131.33994 134.99893 136.82843 140.48741 144.14641"
         y="-175.57812"
         sodipodi:role="line"
         id="tspan352"
         style="stroke-width:0.575314">100 epochs / AUC: 0.645</tspan></text></g></svg>
