<?xml version="1.0" encoding="UTF-8" standalone="no"?>
<svg
   xmlns:dc="http://purl.org/dc/elements/1.1/"
   xmlns:cc="http://creativecommons.org/ns#"
   xmlns:rdf="http://www.w3.org/1999/02/22-rdf-syntax-ns#"
   xmlns:svg="http://www.w3.org/2000/svg"
   xmlns="http://www.w3.org/2000/svg"
   xmlns:sodipodi="http://sodipodi.sourceforge.net/DTD/sodipodi-0.dtd"
   xmlns:inkscape="http://www.inkscape.org/namespaces/inkscape"
   version="1.1"
   id="svg2"
   xml:space="preserve"
   width="80mm"
   height="59mm"
   viewBox="0 0 302.36224 222.99212"
   sodipodi:docname="ppp_chr3L_comparison.svg"
   inkscape:version="1.0.2 (1.0.2+r75+1)"><metadata
     id="metadata8"><rdf:RDF><cc:Work
         rdf:about=""><dc:format>image/svg+xml</dc:format><dc:type
           rdf:resource="http://purl.org/dc/dcmitype/StillImage" /><dc:title></dc:title></cc:Work></rdf:RDF></metadata><defs
     id="defs6"><clipPath
       clipPathUnits="userSpaceOnUse"
       id="clipPath22"><path
         d="M 0,0 H 1093 V 730 H 0 Z"
         id="path20" /></clipPath><clipPath
       clipPathUnits="userSpaceOnUse"
       id="clipPath282"><path
         d="M 57.6,38.016 H 414.72 V 304.128 H 57.6 Z"
         id="path280" /></clipPath><clipPath
       clipPathUnits="userSpaceOnUse"
       id="clipPath22-3"><path
         d="M 57.6,38.016 H 414.72 V 304.128 H 57.6 Z"
         id="path20-6" /></clipPath><clipPath
       clipPathUnits="userSpaceOnUse"
       id="clipPath40"><path
         d="M 57.6,38.016 H 414.72 V 304.128 H 57.6 Z"
         id="path38" /></clipPath><clipPath
       clipPathUnits="userSpaceOnUse"
       id="clipPath58"><path
         d="M 57.6,38.016 H 414.72 V 304.128 H 57.6 Z"
         id="path56" /></clipPath><clipPath
       clipPathUnits="userSpaceOnUse"
       id="clipPath76"><path
         d="M 57.6,38.016 H 414.72 V 304.128 H 57.6 Z"
         id="path74" /></clipPath><clipPath
       clipPathUnits="userSpaceOnUse"
       id="clipPath94"><path
         d="M 57.6,38.016 H 414.72 V 304.128 H 57.6 Z"
         id="path92" /></clipPath><clipPath
       clipPathUnits="userSpaceOnUse"
       id="clipPath112"><path
         d="M 57.6,38.016 H 414.72 V 304.128 H 57.6 Z"
         id="path110" /></clipPath><clipPath
       clipPathUnits="userSpaceOnUse"
       id="clipPath130"><path
         d="M 57.6,38.016 H 414.72 V 304.128 H 57.6 Z"
         id="path128" /></clipPath><clipPath
       clipPathUnits="userSpaceOnUse"
       id="clipPath148"><path
         d="M 57.6,38.016 H 414.72 V 304.128 H 57.6 Z"
         id="path146" /></clipPath><clipPath
       clipPathUnits="userSpaceOnUse"
       id="clipPath170"><path
         d="M 57.6,38.016 H 414.72 V 304.128 H 57.6 Z"
         id="path168" /></clipPath><clipPath
       clipPathUnits="userSpaceOnUse"
       id="clipPath188"><path
         d="M 57.6,38.016 H 414.72 V 304.128 H 57.6 Z"
         id="path186" /></clipPath><clipPath
       clipPathUnits="userSpaceOnUse"
       id="clipPath206"><path
         d="M 57.6,38.016 H 414.72 V 304.128 H 57.6 Z"
         id="path204" /></clipPath><clipPath
       clipPathUnits="userSpaceOnUse"
       id="clipPath224"><path
         d="M 57.6,38.016 H 414.72 V 304.128 H 57.6 Z"
         id="path222" /></clipPath><clipPath
       clipPathUnits="userSpaceOnUse"
       id="clipPath242"><path
         d="M 57.6,38.016 H 414.72 V 304.128 H 57.6 Z"
         id="path240" /></clipPath><clipPath
       clipPathUnits="userSpaceOnUse"
       id="clipPath260"><path
         d="M 57.6,38.016 H 414.72 V 304.128 H 57.6 Z"
         id="path258" /></clipPath><clipPath
       clipPathUnits="userSpaceOnUse"
       id="clipPath22-36"><path
         d="M 57.6,38.016 H 414.72 V 304.128 H 57.6 Z"
         id="path20-7" /></clipPath><clipPath
       clipPathUnits="userSpaceOnUse"
       id="clipPath40-5"><path
         d="M 57.6,38.016 H 414.72 V 304.128 H 57.6 Z"
         id="path38-3" /></clipPath><clipPath
       clipPathUnits="userSpaceOnUse"
       id="clipPath58-5"><path
         d="M 57.6,38.016 H 414.72 V 304.128 H 57.6 Z"
         id="path56-6" /></clipPath><clipPath
       clipPathUnits="userSpaceOnUse"
       id="clipPath76-2"><path
         d="M 57.6,38.016 H 414.72 V 304.128 H 57.6 Z"
         id="path74-9" /></clipPath><clipPath
       clipPathUnits="userSpaceOnUse"
       id="clipPath94-1"><path
         d="M 57.6,38.016 H 414.72 V 304.128 H 57.6 Z"
         id="path92-2" /></clipPath><clipPath
       clipPathUnits="userSpaceOnUse"
       id="clipPath112-7"><path
         d="M 57.6,38.016 H 414.72 V 304.128 H 57.6 Z"
         id="path110-0" /></clipPath><clipPath
       clipPathUnits="userSpaceOnUse"
       id="clipPath130-9"><path
         d="M 57.6,38.016 H 414.72 V 304.128 H 57.6 Z"
         id="path128-3" /></clipPath><clipPath
       clipPathUnits="userSpaceOnUse"
       id="clipPath148-6"><path
         d="M 57.6,38.016 H 414.72 V 304.128 H 57.6 Z"
         id="path146-0" /></clipPath><clipPath
       clipPathUnits="userSpaceOnUse"
       id="clipPath170-6"><path
         d="M 57.6,38.016 H 414.72 V 304.128 H 57.6 Z"
         id="path168-2" /></clipPath><clipPath
       clipPathUnits="userSpaceOnUse"
       id="clipPath188-6"><path
         d="M 57.6,38.016 H 414.72 V 304.128 H 57.6 Z"
         id="path186-1" /></clipPath><clipPath
       clipPathUnits="userSpaceOnUse"
       id="clipPath206-8"><path
         d="M 57.6,38.016 H 414.72 V 304.128 H 57.6 Z"
         id="path204-7" /></clipPath><clipPath
       clipPathUnits="userSpaceOnUse"
       id="clipPath224-9"><path
         d="M 57.6,38.016 H 414.72 V 304.128 H 57.6 Z"
         id="path222-2" /></clipPath><clipPath
       clipPathUnits="userSpaceOnUse"
       id="clipPath242-0"><path
         d="M 57.6,38.016 H 414.72 V 304.128 H 57.6 Z"
         id="path240-2" /></clipPath><clipPath
       clipPathUnits="userSpaceOnUse"
       id="clipPath264"><path
         d="M 57.6,38.016 H 414.72 V 304.128 H 57.6 Z"
         id="path262" /></clipPath></defs><sodipodi:namedview
     pagecolor="#ffffff"
     bordercolor="#666666"
     borderopacity="1"
     objecttolerance="10"
     gridtolerance="10"
     guidetolerance="10"
     inkscape:pageopacity="0"
     inkscape:pageshadow="2"
     inkscape:window-width="1920"
     inkscape:window-height="1020"
     id="namedview4"
     showgrid="false"
     inkscape:zoom="4.980744"
     inkscape:cx="80.858004"
     inkscape:cy="172.01864"
     inkscape:window-x="0"
     inkscape:window-y="0"
     inkscape:window-maximized="1"
     inkscape:current-layer="layer3"
     units="mm"
     fit-margin-top="0"
     fit-margin-left="0"
     fit-margin-right="0"
     fit-margin-bottom="0"
     inkscape:document-rotation="0" /><g
     inkscape:groupmode="layer"
     id="layer4"
     inkscape:label="background"
     transform="translate(1860.103,170.61393)"
     style="display:inline"><path
       style="display:inline;fill:none;stroke:#808080;stroke-width:0.189294px;stroke-linecap:butt;stroke-linejoin:miter;stroke-opacity:1"
       d="M -1793.2022,-151.66867 V 30.808011"
       id="path2854"
       sodipodi:nodetypes="cc" /><path
       style="display:inline;fill:none;stroke:#808080;stroke-width:0.189294px;stroke-linecap:butt;stroke-linejoin:miter;stroke-opacity:1"
       d="M -1753.9633,-151.66867 V 30.808011"
       id="path2856"
       sodipodi:nodetypes="cc" /><path
       style="display:inline;fill:none;stroke:#808080;stroke-width:0.189294px;stroke-linecap:butt;stroke-linejoin:miter;stroke-opacity:1"
       d="M -1714.7229,-151.66867 V 30.808011"
       id="path2858"
       sodipodi:nodetypes="cc" /><path
       style="display:inline;fill:none;stroke:#808080;stroke-width:0.189294px;stroke-linecap:butt;stroke-linejoin:miter;stroke-opacity:1"
       d="M -1675.3509,-151.66867 V 30.808011"
       id="path2860"
       sodipodi:nodetypes="cc" /><path
       style="display:inline;fill:none;stroke:#808080;stroke-width:0.189294px;stroke-linecap:butt;stroke-linejoin:miter;stroke-opacity:1"
       d="M -1636.0713,-151.66867 V 30.808011"
       id="path2862"
       sodipodi:nodetypes="cc" /><path
       style="display:inline;fill:none;stroke:#808080;stroke-width:0.189294px;stroke-linecap:butt;stroke-linejoin:miter;stroke-opacity:1"
       d="M -1596.9829,-151.66867 V 30.808011"
       id="path2864"
       sodipodi:nodetypes="cc" /><path
       style="display:inline;fill:none;stroke:#808080;stroke-width:0.189294px;stroke-linecap:butt;stroke-linejoin:miter;stroke-opacity:1"
       d="m -1832.1952,-115.43984 274.0859,-1e-5"
       id="path2866"
       sodipodi:nodetypes="cc" /><path
       style="display:inline;fill:none;stroke:#808080;stroke-width:0.189294px;stroke-linecap:butt;stroke-linejoin:miter;stroke-opacity:1"
       d="m -1832.1952,-78.734754 274.0859,-8e-6"
       id="path2868"
       sodipodi:nodetypes="cc" /><path
       style="display:inline;fill:none;stroke:#808080;stroke-width:0.189294px;stroke-linecap:butt;stroke-linejoin:miter;stroke-opacity:1"
       d="m -1832.1952,-42.145474 274.0859,-8e-6"
       id="path2870"
       sodipodi:nodetypes="cc" /><path
       style="display:inline;fill:none;stroke:#808080;stroke-width:0.189294px;stroke-linecap:butt;stroke-linejoin:miter;stroke-opacity:1"
       d="m -1832.1952,-5.4046325 274.0859,-7.6e-6"
       id="path2872"
       sodipodi:nodetypes="cc" /><path
       style="display:inline;fill:none;stroke:#000000;stroke-width:0.567884;stroke-linecap:butt;stroke-linejoin:miter;stroke-miterlimit:4;stroke-dasharray:none;stroke-opacity:1"
       d="M -1832.0527,-151.6838 V 30.876433 h 273.8019 V -151.6838 Z"
       id="path2902"
       sodipodi:nodetypes="ccccc" /></g><g
     inkscape:groupmode="layer"
     id="layer3"
     inkscape:label="cgan"
     transform="translate(1860.103,170.61393)"><g
       id="g278"
       clip-path="url(#clipPath282)"
       transform="matrix(0.76694472,0,0,-0.7188012,-1876.2227,66.883556)"
       style="stroke-width:1.01979;stroke-miterlimit:10;stroke-dasharray:none"><path
         d="m 57.344914,289.20657 0.255086,0.0351 0.510171,-0.46458 0.510172,0.64975 0.255086,-0.1311 0.255085,-0.56014 0.255086,-0.21848 0.255086,-0.51338 0.255085,-0.0637 0.510172,-1.13055 0.510171,-2.1162 0.255086,0.40699 0.255086,0.74141 0.255085,0.21319 0.255086,-0.084 0.255086,-0.34787 0.510171,0.91204 0.255086,-0.50744 0.255086,-0.12265 0.255085,0.33479 0.510172,0.93385 0.510171,1.03306 0.255086,-0.81387 0.255086,0.13967 0.255085,-0.0867 0.255086,-0.73136 0.255086,-0.004 0.255086,-1.21415 0.255085,0.024 0.255086,0.19115 1.7856,0.23593 0.255086,-0.0314 0.255085,0.51125 0.510172,0.36788 0.255086,0.0908 0.765257,-1.06722 0.510171,0.54098 0.255086,0.13073 0.255086,0.28114 0.765257,-0.41685 0.255085,0.605 0.255086,0.17259 1.020343,-0.45429 0.765257,0.26763 0.510172,-0.51524 0.255085,0.0941 0.510172,0.6421 0.255085,-0.0631 0.510172,0.0949 0.255086,-0.23207 0.255085,1.04781 0.510172,0.0355 0.255085,-0.61833 0.255086,-0.11799 0.255086,0.11482 0.255086,-0.12174 0.510171,-0.75606 0.255086,0.10219 0.510171,-0.76647 0.255086,-0.11077 0.510171,0.33735 0.255086,0.64699 0.510171,-0.30662 0.255086,0.68699 0.255086,1.45314 0.255086,0.0418 0.255085,0.536 0.255086,-0.004 0.255086,0.13971 0.255085,-0.37446 0.510172,0.15416 0.255086,-0.97963 0.255085,-0.005 0.255086,-0.12857 0.255086,0.33062 0.255085,0.10951 0.255086,-0.10932 0.255086,0.12319 0.255086,-0.0878 0.255085,0.13534 0.510172,0.51797 0.255085,-0.38891 0.255086,-0.13639 0.255086,-0.29622 0.510171,-1.21633 0.255086,-0.12635 0.255086,-0.34359 0.255085,-1.06184 0.255086,0.40712 0.255086,-0.40581 0.255086,0.45392 0.255085,0.12985 0.510172,-0.32589 0.255085,-0.47032 0.255086,-0.18013 0.255086,0.10365 0.255086,-0.0422 0.255085,0.48276 0.510172,-1.34579 0.510171,0.20795 0.255086,-0.20836 0.255086,0.15015 0.255085,-0.16421 0.255086,-0.37309 0.255086,-0.16924 0.255085,-0.48286 0.255086,-0.0952 0.255086,-0.68482 0.255086,-0.29404 0.255085,-0.035 0.255086,0.0867 0.510171,-1.13304 0.255086,-0.0544 0.510172,0.38618 0.510171,-0.16417 0.255086,-0.0971 0.510171,0.22076 0.510172,-0.15018 0.255085,0.0842 0.255086,-0.30013 0.255086,-0.62756 0.255085,-0.0319 0.255086,0.52986 0.255086,-0.27655 0.255086,0.19336 0.255081,0.37245 0.25509,0.0881 0.25509,-0.92979 0.51017,-3.04423 0.76525,-3.48845 0.25509,0.0345 0.76526,4.09528 0.51017,1.10649 0.25508,1.84511 0.25509,0.3855 0.51017,1.25459 0.76526,0.50582 0.25508,-0.74139 1.02035,1.68712 0.25508,0.41718 0.25509,0.1297 0.51017,0.90945 0.25509,1.13168 0.51017,-0.89463 0.25508,-0.10191 0.51017,0.3889 0.25509,0.30059 0.25509,0.003 0.51017,0.36142 0.25508,0.10431 0.25509,-0.24627 0.25508,0.0729 0.25509,-0.35065 0.25509,0.06 0.25508,-0.2073 0.25509,0.36762 0.25508,-1.10112 0.25509,0.097 0.51017,0.78309 0.25509,-0.38463 0.25508,0.0196 0.25509,-0.53752 0.25508,0.0564 0.25509,-1.98818 1.53051,0.43718 1.02035,1.39445 0.25508,-0.26895 0.25509,0.38196 0.25508,-0.0973 0.25509,0.2727 0.25508,-0.0266 0.25509,0.54523 0.51017,-0.55931 0.25509,0.0431 0.76525,0.48687 0.25509,-0.28868 0.25509,0.12478 0.25508,-0.055 0.25509,0.34209 0.25508,-0.21947 0.51017,0.17191 0.76526,-1.92865 0.51017,0.29761 0.51017,-0.12718 0.76526,0.92186 0.25509,-0.0805 0.25508,-0.24349 0.25509,-0.0138 0.76526,0.46757 0.25508,-0.0101 0.25509,-0.60864 0.25508,0.35613 1.02035,-0.087 0.25508,-0.25057 0.25509,-0.69208 0.25508,0.0625 0.25509,0.64512 0.76526,-0.4754 0.25508,0.30856 0.51017,0.10539 0.25509,-0.19584 0.25508,0.80082 0.51018,-0.0803 0.51017,-1.52532 0.51017,-0.41332 0.25508,-0.71469 1.27543,-1.30486 0.25509,-0.033 0.25508,-0.20361 1.02035,-1.67735 0.51017,-1.40563 0.25508,0.17522 0.51018,-0.19194 0.51017,-1.05036 0.25508,0.44828 0.25509,0.0845 0.51017,-0.57705 0.51017,1.83438 0.25509,-0.12079 0.25508,-0.46374 0.51017,-1.23627 0.25509,0.33731 0.25509,-0.16139 0.25508,-0.38803 0.25509,0.0769 0.25508,1.24021 0.25509,0.29166 0.25508,-0.8808 0.25509,-2.16424 0.25509,-0.68309 0.25508,0.0204 0.25509,-0.47874 0.25508,0.32509 0.51017,-0.27843 0.25509,0.005 0.25509,-0.1417 0.25508,0.15066 0.25509,-0.19713 0.25508,0.92006 0.25509,-0.37706 0.25508,-0.097 0.51018,0.0886 0.51017,-0.23134 0.25508,-0.53827 0.25509,-0.26123 0.25508,-0.008 0.25509,-0.58516 0.51017,0.59801 0.25509,1.23638 0.51017,-0.39868 0.25508,0.5432 0.25509,2.38786 0.25509,0.62325 0.25508,1.17106 0.25509,0.34362 0.25508,0.99677 0.25509,0.27244 0.25508,0.1093 0.25509,-0.33705 0.25509,0.16594 0.25508,1.66129 0.25509,-0.17905 0.25508,0.0238 0.25509,-0.3647 0.25508,0.32346 0.25509,-0.36444 0.25509,0.3733 0.25508,0.6897 0.25509,0.21406 0.25508,-1.56111 0.76526,-0.67296 0.25509,0.37628 0.76525,3.20342 0.76526,-0.0733 0.25509,-0.59506 0.25508,0.18696 0.51017,1.08829 0.25509,1.11955 0.25508,0.2444 0.25509,1.08561 0.25509,1.86259 0.51017,0.47588 0.25508,-0.0338 0.25509,-0.93359 0.25508,0.0985 0.76526,-0.51821 0.51017,-0.0154 0.25509,0.002 0.51017,-0.35762 0.51017,-0.20707 1.53052,-0.10026 0.25508,-0.33083 0.76526,-0.0598 0.25508,-0.26453 0.76526,-1.80488 0.25509,-0.0895 0.25508,0.0359 0.25509,-0.37174 0.25508,0.0751 0.25509,-0.0843 0.25509,0.50364 0.25508,0.23437 0.25509,-0.3288 0.25508,0.24187 0.51017,1.00332 0.51018,0.22238 0.25508,-0.26908 0.25509,0.0351 0.25508,-0.70528 0.25509,1.19792 0.51017,-0.008 0.25509,0.70372 0.76525,-2.65395 0.51017,-0.0758 0.25509,0.40037 0.51017,0.14234 0.51017,-1.48451 0.25509,-0.98883 0.25508,-0.19684 0.25509,0.27367 0.25509,-0.16918 0.25508,-0.6981 0.25509,-0.10097 0.25508,1.23076 0.25509,0.29994 0.25508,0.6816 0.51018,0.26214 0.25508,0.2784 0.25509,0.54635 0.51017,-0.41499 0.25508,-0.0647 0.76526,-1.30727 0.25509,-0.66106 0.51017,0.15901 1.53051,0.25869 0.25509,-0.11045 0.51017,0.20909 0.25509,-0.13937 0.51017,-0.64098 0.25508,-0.19336 0.25509,-0.34082 0.25508,-0.64853 0.25509,0.28598 0.25509,0.0449 0.25508,-0.16494 0.25509,0.0451 0.51017,-0.66576 0.25508,0.35457 0.25509,-0.22841 0.51017,1.2556 0.25509,0.1824 0.25508,-1.2794 0.25509,-0.0168 1.02034,-0.91168 0.25509,0.53623 0.25508,-0.23332 0.25509,0.23308 0.25508,-1.18478 0.25509,0.39396 0.25509,-0.7938 0.25508,0.21667 0.25509,0.37025 0.25508,0.96903 0.25509,0.25073 0.25508,0.94949 0.25509,0.27584 0.25509,0.6081 0.25508,-0.28999 0.25509,-0.033 0.25508,0.3066 0.76526,1.43419 0.25509,0.2045 0.25508,0.49788 0.51017,0.34604 0.25509,0.28261 0.25508,-0.29494 0.25509,-0.0363 0.25509,0.87568 0.25508,0.37026 0.25509,1.19087 0.25508,-0.51905 0.25509,-0.17035 0.25508,-0.0299 0.25509,0.22311 0.25509,0.0631 0.25508,-0.1813 0.51017,0.21991 0.25509,0.52577 0.25508,0.21697 0.51018,0.0378 0.25508,-0.71588 0.25509,-0.0552 0.25508,-0.79468 0.25509,0.0602 0.25508,0.1756 0.25509,-0.005 0.51017,0.44648 0.25509,-0.24711 0.51017,0.0714 0.25508,-0.22194 0.25509,-0.53384 0.25509,0.18513 0.25508,-0.39505 0.25509,0.24772 0.76525,2.05014 0.25509,0.0854 0.25509,0.23578 1.02034,-0.0162 0.25508,1.0626 0.51018,0.65267 0.25508,-0.025 0.25509,-0.21768 0.25508,-0.62732 0.25509,-0.13935 0.51017,-1.06924 0.51017,-0.40435 0.25509,0.89818 0.76525,-0.49941 0.51018,-1.23706 0.51017,-0.48883 0.76525,0.24942 0.25509,0.67283 0.25509,-0.37818 0.25508,-1.12761 0.51017,-0.19157 0.25509,0.34125 0.25508,-0.004 0.25509,-0.72025 0.51017,-0.32079 0.25509,0.0333 0.25508,0.20982 0.25509,-0.22962 0.25508,0.20278 0.51018,-0.0272 0.51017,0.9435 0.25508,-6.1e-4 0.25509,0.4841 0.25508,-0.34469 0.25509,0.32118 0.76526,0.0469 0.51017,0.92041 0.51017,0.0746 0.51017,-0.0182 0.25509,0.41412 0.25508,-0.28277 0.51017,0.31793 0.25509,-0.19467 1.02034,-1.71359 0.51017,-0.88378 0.25509,0.34743 0.25509,0.0483 0.51017,-0.27481 0.25508,0.13838 0.25509,0.35781 0.25508,0.16381 0.25509,0.87839 0.25509,0.32342 0.25508,-0.0129 0.51017,-2.28254 0.25509,0.13459 0.51017,0.99059 0.25509,1.18239 0.25508,0.4646 0.51017,0.1855 0.51017,-0.2533 0.25509,-0.42642 0.76526,-0.088 0.25508,-0.20248 0.25509,-0.005 0.25508,-0.14869 0.25509,-0.61006 0.76526,0.52113 0.25508,-0.73109 0.25509,-0.32934 0.25508,-0.0299 0.25509,-0.17358 0.51017,0.18366 0.51017,-0.193 0.25509,-0.67434 0.25508,-1.15649 0.25509,-0.0961 0.25509,-0.27097 0.25508,-0.10489 0.51017,0.17626 0.25509,-0.0989 0.25508,0.20209 0.25509,-0.5592 0.25509,-0.21857 0.25508,-0.42474 0.25509,-2.14872 0.51017,-1.16683 0.76526,-0.83566 0.25508,0.27157 0.25509,0.77972 0.25508,0.0355 0.25509,0.28869 1.02034,-0.0604 0.51017,-0.10186 0.76526,-2.69145 0.51017,-1.42597 0.25509,0.91361 0.25508,2.06219 0.25509,0.75387 0.51017,-0.4024 0.25509,0.57221 0.25508,-0.25281 0.25509,-0.982 0.25508,0.43598 0.51017,2.53818 0.25509,0.31987 0.25509,-0.0645 0.25508,0.38117 1.53052,1.0214 0.25508,0.24929 0.25509,-0.60776 0.25508,-0.088 0.25509,0.17242 0.51017,-0.0232 0.25509,-0.24276 0.25508,-0.43371 0.25509,0.26181 0.51017,-0.48682 0.25508,1.14505 0.25509,0.30985 0.25509,-0.67285 0.51017,-0.67543 0.76525,-1.23735 0.25509,-0.16858 0.25509,0.0396 0.25508,-0.28859 0.25509,1.30582 0.25508,2.24282 0.25509,0.5787 0.51017,0.13015 0.25509,0.28693 0.25508,-0.0773 0.25509,0.14174 0.25508,-0.23914 0.25509,-0.46475 0.25508,-1.40334 0.25509,-0.29492 0.51017,-0.77115 0.76526,0.5839 0.51017,0.89757 0.25509,0.0658 0.25508,-0.61824 0.25509,-1.5103 0.25508,-0.64052 0.51017,-0.0863 0.25509,-1.54038 0.25509,-0.39244 0.25508,-1.34565 0.25509,-2.31803 0.76525,-1.6236 0.25509,-0.45994 0.25509,0.0252 0.51017,-0.52666 0.25508,-0.0772 0.25509,-1.0958 0.25508,-0.20032 0.25509,0.11411 0.25509,0.69945 0.25508,0.35478 0.51017,0.17273 0.25509,0.52284 0.25508,0.15095 0.25509,1.6e-4 0.25509,-0.5103 0.25508,0.33138 0.25509,-0.0813 0.25508,-0.77709 0.25509,0.55083 0.25508,-0.38904 0.25509,0.29841 0.51017,2.52555 0.25509,-0.27807 0.25508,0.0918 0.25509,-7.14545 0.51017,0.53879 0.25509,-3.79168 0.25508,1.30295 0.51017,0.95244 1.02035,2.24754 0.25508,-1.07034 0.25509,-0.0337 1.02034,2.14047 0.25509,-0.35979 0.76525,-3.30797 0.51017,1.8681 0.25509,-0.15178 0.25509,0.012 0.25508,-0.16634 0.25509,0.35238 1.27543,2.93402 0.25508,1.35689 0.51017,4.44527 0.25509,0.6139 0.25508,1.74187 1.27543,3.67724 0.76526,0.47139 0.25509,-0.35569 0.25508,0.15648 0.76526,-0.038 0.51017,-0.0143 0.51017,-0.48816 0.25509,0.14303 0.51017,0.67649 0.51017,-0.8682 0.25509,0.28755 0.51017,0.01 0.25508,0.39075 0.25509,0.0705 0.25508,0.95462 0.25509,-0.0494 0.25509,0.10675 0.25508,-0.28945 0.25509,0.21146 1.02034,-0.73645 0.76526,0.68019 0.25508,-0.072 0.25509,1.01519 0.51017,-0.67747 0.51017,0.19427 0.25509,0.64555 0.25508,0.14879 0.25509,-0.33447 0.25508,-0.75512 0.25509,0.0863 0.25509,-0.27821 0.25508,-0.47213 0.25509,-0.0508 0.25508,0.0708 0.51017,-1.50288 0.25509,-0.34894 0.51017,-0.16223 0.76526,-2.10113 0.51017,-3.40136 0.25509,0.28905 0.25508,0.0989 0.51017,2.59915 0.25509,-0.31045 0.25508,0.0207 1.02035,0.61541 1.27543,-2.08202 0.25508,0.31018 0.25509,-0.058 0.25508,-0.28731 0.25509,-0.0974 0.25508,0.0626 0.51018,-0.24187 0.51017,-0.31905 0.25508,-0.13994 0.25509,-0.002 0.25508,0.14263 0.25509,-0.2602 0.25509,-0.70806 0.76525,-0.76866 0.25509,-0.52457 0.25508,0.14932 0.25509,-0.23872 0.25509,-0.43224 0.25508,-0.9496 0.25509,-0.2981 0.25508,-0.84686 0.25509,-0.0426 0.25508,1.01278 0.25509,-0.27362 0.25509,0.57277 0.25508,-1.38497 0.25509,0.12973 0.51017,-0.76067 0.25508,-0.18917 0.25509,0.2438 0.25509,0.008 0.25508,0.18362 0.25509,0.36735 0.25508,0.12356 0.25509,-0.22843 0.25508,0.71358 0.25509,0.15477 0.25509,-0.28022 0.76525,-4.96196 0.25509,0.75574 0.25508,1.30113 0.25509,0.58697 0.25509,-0.99514 0.25508,-1.73208 0.25509,-0.48273 0.25508,-2.53075 0.25509,-0.21611 0.25508,1.29601 0.25509,-0.92596 0.25509,0.39404 0.51017,1.07489 0.25508,1.65173 0.25509,0.81966 0.25508,-0.2906 0.76526,0.99006 0.25509,-0.23528 0.25508,-0.5062 1.27543,1.8953 0.25509,-0.0531 0.25508,-0.26381 0.25509,0.0596 0.25508,-0.23152 0.51018,2.29593 0.25508,1.80748 0.25509,0.088 0.25508,0.81859 0.51017,2.76538 0.25509,0.2627 0.25509,0.48626 0.25508,0.11952 0.25509,0.79811 0.25508,0.32157 0.76526,-0.007 0.51017,-0.19122 0.25509,1.06302 0.51017,0.79199 0.25508,0.0543 0.25509,0.29097 0.25509,0.50684 0.25508,0.0508 0.25509,0.28068 0.25508,-0.18231 0.76526,0.26621 0.51017,0.88451 0.25509,1.26025 0.25508,0.67925 0.25509,0.28625 0.25508,0.0973 0.51018,0.5452 0.25508,0.20901 0.25509,-0.50624 0.25508,-0.054 0.25509,-0.17764 0.51017,0.6865 0.25509,0.3965 0.25508,1.09362 0.25509,0.16455 0.25508,0.77506 0.76526,0.79141 0.51017,-0.54137 0.25509,0.0727 0.76525,2.10707 0.76526,0.0862 0.25509,-0.0543 0.25508,0.26845 0.51017,0.0693 0.25509,0.24418 0.25509,-0.46601 0.51017,0.59191 0.25508,-0.4716 0.76526,-0.58877 0.25509,0.41783 0.25508,0.0868 0.51017,-0.2551 0.25509,0.15624 1.02034,0.11 0.25509,0.21691 0.76525,-0.24459 0.51018,-0.26543 0.25508,0.21992 0.25509,0.92056 0.25508,0.4652 0.25509,-0.14552 0.25508,-0.59071 0.25509,-0.21432 0.25509,-0.58187 0.25508,-0.034 0.51017,-1.4022 0.25509,0.12379 0.51017,-0.34626 1.27543,2.17284 0.25508,0.12829 0.76526,-0.43961 0.25509,0.22806 0.76525,-0.90504 0.51018,0.94448 0.25508,0.38692 0.25509,0.0496 0.25508,0.36149 0.25509,-0.37559 0.25508,0.18894 0.25509,-0.4829 0.25509,-0.73013 0.25508,-0.18688 0.25509,0.14997 0.25508,-0.11093 0.51017,-0.51524 1.27543,-1.00999 0.25509,-0.91404 0.25508,0.0154 0.51018,-0.21569 0.51017,0.0941 0.76525,0.1785 0.25509,-0.12336 0.25509,-0.44585 0.25508,-0.12072 0.25509,0.0872 0.51017,-0.14597 0.25508,0.11705 1.27543,-0.49471 0.51017,0.19975 0.25509,-0.0936 0.76526,-0.83595 0.25508,0.14609 1.27543,-1.70966 0.51017,-1.41152 0.25509,-0.38796 0.51017,-1.31103 0.25509,-0.73192 0.76525,-0.28599 0.25509,-0.27173 0.76526,-2.77644 0.51017,0.44184 0.51017,-0.43048 0.25508,-0.34226 0.25509,-1.10229 0.25509,0.81309 0.25508,-0.0614 0.51017,-1.30647 0.25509,-0.10989 0.25508,0.45538 0.25509,0.15931 0.25509,0.81418 0.25508,0.22509 0.76526,-0.044 0.25508,1.74727 0.25509,-0.55643 0.51017,-0.56698 0.51017,-1.9449 0.51017,-0.42416 0.25509,0.20853 0.51017,2.12226 1.53052,1.35331 0.25508,0.45041 0.25509,-0.32705 0.51017,-0.0854 0.25508,0.1141 0.76526,1.01786 0.25509,0.0173 0.25508,1.07827 0.25509,0.36068 0.25508,-0.13632 0.25509,0.10496 0.25509,-1.13394 0.51017,0.7082 0.25508,-0.0614 0.25509,0.16407 0.25508,-0.56957 0.25509,1.00039 0.25509,-0.0285 0.25508,0.5747 0.25509,0.0112 0.25508,-0.38314 0.25509,-0.071 0.25508,0.42096 0.25509,2.22602 0.25509,0.3817 0.25508,-2.73251 0.25509,-0.19775 0.51017,0.79906 0.25508,0.23968 0.25509,0.43878 0.25509,-0.22625 0.25508,0.25685 0.25509,-0.21691 0.51017,0.14608 0.25508,0.12879 0.25509,-0.75385 0.25509,-0.27088 0.51017,-1.07431 0.25508,-0.15045 0.25509,-0.53975 0.25508,0.50739 0.25509,-0.36847 0.25509,-0.10002 0.25508,0.0706 0.25509,-0.57781 0.25508,-1.32831 0.76526,-11.15849 0.25509,-2.16901 1.27542,-22.98284 0.76526,-17.85167 0.25509,-4.06819 0.51017,-15.55183 0.51017,-4.98796 0.25509,-0.68555 0.25508,-0.27276 0.25509,-0.78997 0.51017,-4.2481 0.51017,-8.49074 0.25509,-2.92422 0.25508,-4.4861 1.02034,-8.76257 0.25509,-1.39989 0.25509,-4.2247 0.25508,-2.17937 0.51017,-6.6392 0.51017,-3.92509 0.25509,-0.48937 0.25509,-2.73231 0.25508,-7.2644 0.25509,0.689 0.51017,-7.56266 0.25508,-2.85453 0.25509,-4.91933 0.25509,-0.70352 0.25508,2.0023 0.25509,-1.28947 0.51017,-8.96677 0.25508,-2.00491 0.25509,1.98548 0.51017,-1.67754 0.25509,-3.11176 0.25508,0.98334 0.25509,-3.15981 0.51017,-37.453025 0.25509,-3.379539 0.25508,-0.09717 0.25509,-13.873327 0.19715,-3.712154"
         style="fill:none;stroke:#1f77b4;stroke-width:1.01979;stroke-linecap:square;stroke-linejoin:round;stroke-miterlimit:10;stroke-dasharray:none;stroke-opacity:1"
         id="path284"
         sodipodi:nodetypes="ccccccccccccccccccccccccccccccccccccccccccccccccccccccccccccccccccccccccccccccccccccccccccccccccccccccccccccccccccccccccccccccccccccccccccccccccccccccccccccccccccccccccccccccccccccccccccccccccccccccccccccccccccccccccccccccccccccccccccccccccccccccccccccccccccccccccccccccccccccccccccccccccccccccccccccccccccccccccccccccccccccccccccccccccccccccccccccccccccccccccccccccccccccccccccccccccccccccccccccccccccccccccccccccccccccccccccccccccccccccccccccccccccccccccccccccccccccccccccccccccccccccccccccccccccccccccccccccccccccccccccccccccccccccccccccccccccccccccccccccccccccccccccccccccccccccccccccccccccccccccccccccccccccccccccccccccccccccccccccccccccccccccccccccccccccccccccccccccccccccccccccccccccccccccccccccccccccccccccccccccccccccccccccccccccccccccccccccccccccccccccccccccccccccccccccccccccccccccccccccccccccccccccccccccccccccccccccccccccccccccccccccccccccccccccccccccccccccccccccccccccccccccccccccccccccccccccccccccccccccccccc" /></g><path
       d="m -1832.0466,30.903801 v 2.51581"
       style="fill:#000000;fill-opacity:1;fill-rule:nonzero;stroke:#000000;stroke-width:0.593989;stroke-linecap:butt;stroke-linejoin:round;stroke-miterlimit:10;stroke-dasharray:none;stroke-opacity:1"
       id="path28" /><path
       d="m -1793.2418,30.903801 v 2.51581"
       style="fill:#000000;fill-opacity:1;fill-rule:nonzero;stroke:#000000;stroke-width:0.593989;stroke-linecap:butt;stroke-linejoin:round;stroke-miterlimit:10;stroke-dasharray:none;stroke-opacity:1"
       id="path46" /><path
       d="m -1754.007,30.903801 v 2.51581"
       style="fill:#000000;fill-opacity:1;fill-rule:nonzero;stroke:#000000;stroke-width:0.593989;stroke-linecap:butt;stroke-linejoin:round;stroke-miterlimit:10;stroke-dasharray:none;stroke-opacity:1"
       id="path64" /><path
       d="m -1714.6646,30.903801 v 2.51581"
       style="fill:#000000;fill-opacity:1;fill-rule:nonzero;stroke:#000000;stroke-width:0.593989;stroke-linecap:butt;stroke-linejoin:round;stroke-miterlimit:10;stroke-dasharray:none;stroke-opacity:1"
       id="path82" /><path
       d="m -1675.3223,30.903801 v 2.51581"
       style="fill:#000000;fill-opacity:1;fill-rule:nonzero;stroke:#000000;stroke-width:0.593989;stroke-linecap:butt;stroke-linejoin:round;stroke-miterlimit:10;stroke-dasharray:none;stroke-opacity:1"
       id="path100" /><path
       d="m -1636.093,30.903801 v 2.51581"
       style="fill:#000000;fill-opacity:1;fill-rule:nonzero;stroke:#000000;stroke-width:0.593989;stroke-linecap:butt;stroke-linejoin:round;stroke-miterlimit:10;stroke-dasharray:none;stroke-opacity:1"
       id="path118" /><path
       d="m -1596.9656,30.903801 v 2.51581"
       style="fill:#000000;fill-opacity:1;fill-rule:nonzero;stroke:#000000;stroke-width:0.593989;stroke-linecap:butt;stroke-linejoin:round;stroke-miterlimit:10;stroke-dasharray:none;stroke-opacity:1"
       id="path136" /><path
       d="m -1558.3704,30.903801 v 2.51581"
       style="fill:#000000;fill-opacity:1;fill-rule:nonzero;stroke:#000000;stroke-width:0.593989;stroke-linecap:butt;stroke-linejoin:round;stroke-miterlimit:10;stroke-dasharray:none;stroke-opacity:1"
       id="path154" /><path
       d="m -1832.0466,30.862996 h -2.6844"
       style="fill:#000000;fill-opacity:1;fill-rule:nonzero;stroke:#000000;stroke-width:0.593989;stroke-linecap:butt;stroke-linejoin:round;stroke-miterlimit:10;stroke-dasharray:none;stroke-opacity:1"
       id="path176" /><path
       d="m -1832.0466,-5.3985619 h -2.6844"
       style="fill:#000000;fill-opacity:1;fill-rule:nonzero;stroke:#000000;stroke-width:0.593989;stroke-linecap:butt;stroke-linejoin:round;stroke-miterlimit:10;stroke-dasharray:none;stroke-opacity:1"
       id="path194" /><path
       d="m -1832.0466,-42.090109 h -2.6844"
       style="fill:#000000;fill-opacity:1;fill-rule:nonzero;stroke:#000000;stroke-width:0.593989;stroke-linecap:butt;stroke-linejoin:round;stroke-miterlimit:10;stroke-dasharray:none;stroke-opacity:1"
       id="path212" /><path
       d="m -1832.0466,-78.835403 h -2.6844"
       style="fill:#000000;fill-opacity:1;fill-rule:nonzero;stroke:#000000;stroke-width:0.593989;stroke-linecap:butt;stroke-linejoin:round;stroke-miterlimit:10;stroke-dasharray:none;stroke-opacity:1"
       id="path230" /><path
       d="m -1832.0466,-115.55251 h -2.6844"
       style="fill:#000000;fill-opacity:1;fill-rule:nonzero;stroke:#000000;stroke-width:0.593989;stroke-linecap:butt;stroke-linejoin:round;stroke-miterlimit:10;stroke-dasharray:none;stroke-opacity:1"
       id="path248" /><path
       d="m -1832.0466,-151.65413 h -2.6844"
       style="fill:#000000;fill-opacity:1;fill-rule:nonzero;stroke:#000000;stroke-width:0.593989;stroke-linecap:butt;stroke-linejoin:round;stroke-miterlimit:10;stroke-dasharray:none;stroke-opacity:1"
       id="path266" /><path
       d="m -1806.3632,11.02538 h 100.4232 c 1.0956,0 3.5003,-1.2785772 3.5003,-3.8611789 V -19.317524 c 0,-2.582603 -2.4047,-3.886732 -3.5003,-3.886593 l -99.7021,0.01271 c -1.0956,1.4e-4 -3.6751,1.291276 -3.6751,3.873879 V 7.1642011 c 0,2.5826017 1.8584,3.8611789 2.954,3.8611789 z"
       style="fill:#ffffff;fill-opacity:0.8;fill-rule:nonzero;stroke:#cccccc;stroke-width:0.742478;stroke-linecap:butt;stroke-linejoin:miter;stroke-miterlimit:10;stroke-dasharray:none;stroke-opacity:0.8"
       id="path304"
       sodipodi:nodetypes="sssssssss" /><path
       d="m -1806.2494,-5.5455152 h 15.3389"
       style="fill:none;stroke:#1f77b4;stroke-width:0.757179;stroke-linecap:square;stroke-linejoin:round;stroke-miterlimit:10;stroke-dasharray:none;stroke-opacity:1"
       id="path306" /><path
       d="m -1806.2494,5.1620465 h 15.3389"
       style="fill:none;stroke:#ff0000;stroke-width:0.757179;stroke-linecap:square;stroke-linejoin:round;stroke-miterlimit:10;stroke-dasharray:none;stroke-opacity:1"
       id="path3342" /><path
       d="m -1806.2494,-15.874487 h 15.3389"
       style="fill:none;stroke:#00d400;stroke-width:0.757179;stroke-linecap:square;stroke-linejoin:round;stroke-miterlimit:10;stroke-dasharray:none;stroke-opacity:1"
       id="path1290" /></g><g
     inkscape:groupmode="layer"
     id="layer2"
     inkscape:label="dnn"
     style="display:inline"
     transform="translate(3.5865541e-5,86.395326)"><g
       id="g16"
       transform="matrix(1.3333333,0,0,-1.3333333,1511.3977,1908.9983)"
       style="display:inline"><g
         id="g18"
         clip-path="url(#clipPath22-36)"><path
           d="M -1022.2799,703.32869 V 1372.9534"
           style="fill:none;stroke:#b0b0b0;stroke-width:2.2778;stroke-linecap:square;stroke-linejoin:round;stroke-miterlimit:10;stroke-dasharray:none;stroke-opacity:1"
           id="path24"
           sodipodi:nodetypes="cc" /></g></g><g
       id="g258"
       transform="matrix(0.76729401,0,0,-0.67304097,-16.112788,149.48899)"
       style="display:inline;stroke:#00d400"><g
         id="g260"
         clip-path="url(#clipPath264)"
         style="stroke:#00d400;stroke-width:1.05365;stroke-miterlimit:10;stroke-dasharray:none"><path
           d="M 57.344914,268.89018 57.6,268.71411 l 0.255086,0.17499 0.255085,-0.29728 0.510172,0.0625 0.510171,-0.18005 0.765257,-0.62841 0.255086,-0.19464 0.255086,-0.0236 0.765257,1.09727 0.510171,1.52622 0.765258,0.63498 0.255085,-0.38803 0.255086,0.46621 0.255086,0.16145 0.255085,-0.3953 0.255086,0.61477 0.255086,0.22529 0.255086,-0.0258 0.255085,-0.48074 0.255086,0.54215 0.510171,1.70572 0.510172,0.35978 0.510171,1.13168 0.765257,2.54782 0.510172,1.09944 0.255086,0.0214 0.765257,-2.09534 0.255085,0.591 0.510172,-0.27149 0.255086,-0.699 0.255085,-1.6056 0.510172,-1.47899 0.510171,-0.56161 0.255086,-0.0391 0.765257,-1.60055 0.255086,-1.05294 0.255085,1.23498 0.255086,-0.42053 0.255086,-0.65867 0.255086,0.20338 0.255085,0.98447 0.510172,1.13507 0.510171,1.65783 0.255086,0.4285 0.255086,0.16623 0.255085,0.59947 0.510172,2.98571 0.255085,0.61639 0.255086,0.32401 0.255086,-1.97524 0.255086,-1.07203 0.255085,-0.37842 0.255086,0.14569 0.255086,-0.5899 0.255085,-0.30376 0.255086,-0.55778 1.020343,-0.59576 0.255086,-0.4184 0.255085,-0.12781 0.255086,0.10857 0.255086,0.3217 0.765257,-1.39569 0.255086,0.33428 0.255085,0.0842 0.255086,0.62864 0.255086,0.20628 0.255086,-0.47458 0.255085,0.96414 0.255086,-0.48661 0.255086,-0.86729 0.255085,-1.50057 0.510172,-0.89198 0.255086,-0.081 0.765257,-1.21017 0.510171,1.54757 0.255086,0.51311 0.765257,-0.96839 0.255086,-0.7199 0.255085,-1.51793 1.020343,-2.21667 0.765257,-3.99469 0.510172,-1.74562 0.765257,-0.80603 0.255086,0.29852 0.255085,0.49085 0.255086,-0.47964 0.510172,-2.50351 0.765257,1.31894 0.510171,1.14656 0.255086,1.04116 0.255086,0.40462 0.765257,-1.31609 0.255085,-1.12556 0.510172,-1.01384 0.510171,-2.26414 0.510172,-1.0878 0.510171,-1.7689 0.255086,-0.28193 0.255086,0.0656 0.255085,0.43703 0.255086,1.83878 0.255086,0.005 0.255085,-0.39111 0.255086,-0.16459 0.255086,0.82036 0.255086,-0.33048 0.765257,-0.13163 0.255085,-0.33897 0.510172,0.63642 0.255086,-0.33367 0.255081,-0.59851 0.25509,0.34968 0.51017,2.13132 0.76526,0.49712 0.25508,-0.4214 0.51018,2.13011 0.25508,0.35001 0.76526,3.11325 0.25508,0.39211 0.25509,0.71922 0.51017,0.18242 0.51017,2.16221 0.25509,-0.12922 0.51017,0.91104 0.25509,-0.1708 0.25508,0.19133 0.25509,-0.33455 0.25508,0.51879 0.25509,1.45138 1.02034,2.92708 0.51017,2.44534 0.25509,0.30626 0.51017,1.54586 0.25509,0.18637 0.25508,1.00789 0.25509,-0.25872 0.25508,0.0417 1.02035,2.95199 0.25508,-0.004 0.51017,0.5463 0.76526,1.46926 0.25509,-1.4244 0.25508,-0.12164 0.25509,0.17809 0.25508,0.39618 0.25509,-0.0473 0.25508,0.13476 0.76526,1.70905 0.25509,0.36437 1.02034,3.08209 0.25509,0.57576 0.25508,-0.83409 0.25509,-1.63788 0.25508,0.1715 1.02035,-0.77311 0.25508,-0.64665 0.25509,0.45307 1.02034,0.87263 0.25509,0.58534 0.25508,1.49704 0.25509,0.18653 0.51017,-0.0765 0.76526,0.35792 0.25508,0.4249 0.51017,0.25514 0.25509,-0.25172 1.02034,-1.89421 0.51017,-0.0244 0.51017,-0.69435 0.76526,-0.30608 0.25509,0.19828 0.51017,1.19106 0.25508,0.7675 0.25509,0.11948 0.51017,-0.42599 0.25509,-0.48808 0.25508,0.4387 0.76526,-0.61798 0.76526,0.72975 0.51017,-1.06553 0.25508,1.44823 0.51018,-0.25534 0.25508,0.0762 0.25509,-0.4444 0.51017,0.0425 0.51017,-1.45118 0.25509,-0.0114 0.25508,-0.26672 0.25509,0.0503 0.25508,0.88489 0.51017,-2.11269 0.25509,-0.34322 0.76526,-1.72563 0.25508,0.32362 0.25509,-0.92207 0.76526,-1.09374 0.25508,-0.2056 0.25509,-0.47004 0.25508,-0.0428 0.51017,1.30549 0.25509,-0.17355 0.25509,1.11524 0.25508,-4.8e-4 0.25509,-0.45079 0.25508,0.24706 0.25509,-0.11974 0.51017,-0.91862 0.25509,0.10965 0.25508,-0.17226 0.25509,0.10057 0.25508,0.65675 1.27543,-7.858 0.76526,-3.66415 0.25508,-0.66391 0.25509,-0.32985 0.25509,-0.0743 0.25508,0.3799 0.25509,-0.45805 0.25508,0.36839 0.51017,-1.25711 0.25509,0.25656 0.25509,1.22382 0.25508,0.0668 0.25509,0.39083 0.25508,-0.06 0.25509,0.30456 0.25508,-0.19725 0.76526,1.40433 0.51017,-1.01264 0.25509,0.29176 0.25508,1.04824 0.25509,0.51794 0.25509,1.2093 0.76525,0.80221 0.25509,-0.49647 0.51017,0.40257 0.25509,-1.65139 0.51017,1.20458 0.51017,-1.45131 0.25508,0.13613 0.76526,1.94663 0.25509,0.0891 0.25508,0.52215 0.25509,0.79275 0.25508,-0.29056 1.27543,4.21496 0.25509,-0.0667 0.25508,-0.38974 0.25509,-0.84871 0.25509,-0.31843 0.51017,-2.08699 0.51017,-1.20447 0.25508,-0.61719 0.25509,0.0512 0.25509,-0.29058 0.25508,-0.4965 0.25509,-0.21858 0.51017,0.20963 0.25508,-0.2654 0.25509,0.21245 0.76526,0.0313 0.25508,-0.69158 0.25509,-0.36888 0.25508,0.0983 0.25509,0.88452 0.51017,2.78765 0.25509,-0.17296 0.51017,1.40406 0.25508,0.0923 0.25509,0.67965 0.76526,-0.2553 0.25508,0.51195 0.25509,0.94299 0.25508,-0.002 0.25509,-0.44479 0.25509,0.33728 0.76525,0.25376 0.51017,-0.53385 0.25509,-0.49439 0.25509,0.0617 0.25508,0.45949 0.25509,0.2277 0.25508,0.0368 0.25509,0.30216 0.51017,1.08308 0.25509,0.29129 1.02034,-0.96213 0.51017,-0.16937 0.25509,0.10743 0.25508,0.47579 0.25509,1.62582 0.25508,0.82226 0.25509,-0.14959 0.51017,0.1772 0.25509,0.21396 0.25508,-0.37069 0.25509,-0.68995 0.25508,0.006 0.25509,0.12269 0.51017,-0.2234 0.25509,0.21599 0.25508,2.20047 0.25509,-0.76133 0.25508,-0.10864 0.51017,-1.04737 0.25509,0.33169 1.27543,3.57414 0.25508,-0.0352 0.25509,-0.37072 0.25509,0.35764 0.25508,0.94575 0.25509,0.1739 0.51017,1.57246 0.51017,0.7087 0.76526,0.71128 0.25508,-0.28723 0.51017,1.2008 0.25509,1.03933 0.25509,0.26156 0.25508,-0.22115 0.25509,-0.81036 0.25508,-2.2516 0.25509,-1.11845 0.25508,0.21408 0.25509,-0.35379 0.25509,-0.1398 0.25508,0.16059 0.25509,-0.0899 0.51017,-0.37458 0.76526,-0.22754 0.51017,0.25646 0.25508,-0.32466 0.51017,0.22089 0.25509,-0.69263 0.76526,0.32965 0.51017,-0.0881 0.76526,-3.00396 0.25508,-1.01126 0.51017,-1.04156 0.51017,-1.29038 0.25509,0.036 0.25509,0.27971 0.76525,1.29094 0.25509,0.78644 0.76526,1.02385 0.76525,1.05847 0.25509,0.23025 0.51017,0.21291 0.51017,-0.96071 0.51017,-0.20946 0.25509,0.50904 0.51017,1.60511 0.25509,0.56023 0.25508,0.22965 0.25509,-0.17584 0.25508,-0.39703 0.25509,0.0969 0.25508,-0.50232 0.25509,-0.8172 0.76526,-0.78015 1.7856,-4.84703 0.76525,-1.44662 0.25509,-0.11511 0.25509,-0.3724 0.25508,-0.89393 0.51017,-0.77445 0.76526,2.22162 0.25509,-0.43315 0.25508,0.60092 0.25509,-0.77434 0.25508,-0.0607 0.51017,0.29567 0.51018,1.57899 0.51017,-1.52161 0.51017,-0.38288 0.25508,0.14099 0.25509,0.0134 0.51017,0.63834 0.25509,0.80946 0.51017,0.19481 0.25508,-0.0739 0.25509,0.50075 0.25509,0.23522 0.51017,1.74215 0.51017,2.33412 0.25508,-0.0401 0.25509,0.69201 0.25509,0.26227 0.51017,-0.18791 0.25508,-0.0405 0.76526,-1.33957 0.25509,-0.0364 0.25508,0.49721 0.51017,-1.43678 1.02035,-0.39198 0.25508,-0.42991 0.25509,0.20765 0.25508,0.38012 0.25509,0.82964 0.25508,0.18797 0.25509,-0.58754 0.25509,-0.0676 0.51017,-0.36814 0.25508,0.0673 0.25509,0.19487 0.51017,0.86337 0.25509,0.56588 1.02034,4.7531 0.76526,1.96146 0.25508,0.40095 0.51017,1.63145 0.25509,-0.23126 0.25508,0.12681 0.76526,0.85142 0.25509,-0.007 1.02034,0.92977 0.25509,-0.81336 0.25508,-0.29101 0.25509,0.4835 0.25508,-0.29475 0.51017,-0.19424 0.51018,-2.9684 0.76525,-1.35895 0.25509,0.26913 0.25508,0.0447 0.51018,-1.10663 1.53051,-2.97084 0.25509,-0.31918 0.51017,-1.28664 0.51017,-1.03579 0.51017,-0.36264 0.25509,-1.11679 0.51017,-1.16681 0.25508,-1.17029 0.25509,-0.35282 0.25508,-0.12091 0.25509,0.23401 0.51017,0.87999 0.25509,0.0331 0.51017,-0.55208 0.25508,-0.15252 0.25509,-0.83601 0.51017,-2.40058 0.51017,-1.42813 0.25509,-0.53737 0.76526,-2.34384 0.51017,1.2952 0.25508,-0.35937 0.25509,0.31461 0.25508,-0.10768 0.25509,-0.5889 0.25509,0.1389 0.25508,-1.24218 0.25509,-0.49631 0.51017,-1.82136 0.25508,-1.4822 1.02035,-2.63095 0.25508,-0.57749 0.51017,-1.53176 0.51018,-3.1306 0.25508,-0.0986 0.25509,-0.3647 0.51017,-1.4618 0.25508,0.64483 0.25509,-0.6794 0.25509,-0.27432 0.25508,0.40273 0.25509,1.07193 0.51017,0.6468 0.51017,1.5269 0.25509,1.07391 0.25508,0.0398 0.25509,1.87374 0.25508,-0.38373 0.25509,-0.59012 0.25508,0.0547 0.25509,0.67545 0.25509,0.23077 0.25508,-0.21099 0.51017,0.88281 0.25509,0.16201 1.27543,-5.60393 0.25508,-0.63947 0.25509,-0.97346 0.25508,-0.45278 0.51018,0.54857 0.51017,0.99652 0.25508,0.70404 0.25509,0.21388 0.25508,-0.13072 0.25509,1.1478 0.25509,-1.54383 0.25508,-0.37589 0.76526,-2.11809 0.25508,0.35105 0.25509,-0.5432 0.25509,-0.89543 0.25508,0.64814 0.25509,1.21131 0.25508,1.82176 0.25509,-0.24708 0.51017,1.31754 0.25509,0.17421 0.25508,-0.43896 0.25509,0.18279 0.25508,-0.15325 0.51017,0.77605 0.25509,0.0125 1.02034,-1.86944 0.25509,4.60603 0.51017,3.57687 0.25509,0.1403 0.51017,-1.70119 0.25508,0.24067 0.51017,2.1069 0.25509,1.10467 0.51017,1.12124 0.25509,-1.65425 0.51017,0.82498 0.25508,-2.86745 1.53052,5.31127 0.25508,0.0878 0.51018,1.55816 0.25508,0.83737 0.25509,0.22743 0.51017,1.56667 0.76526,3.06325 0.25508,0.53608 0.25509,-1.09204 0.25508,-0.11199 0.25509,0.0526 0.25508,-0.79937 0.25509,-0.0513 0.25509,0.70145 0.51017,2.52596 0.25508,0.75814 0.25509,0.37497 0.25508,0.0462 0.25509,0.31774 0.25509,0.006 0.25508,0.4066 0.25509,-0.32189 0.25508,-0.85444 0.25509,0.22856 0.51017,1.20274 0.25509,0.90471 0.51017,2.46825 0.25508,-0.0285 0.25509,-1.42435 0.25508,0.017 0.76526,-2.29328 0.25509,-0.0538 0.51017,-1.6393 0.51017,-1.7162 0.25509,-0.38642 0.25508,-0.62412 1.02034,-0.77477 0.51018,-1.54374 0.25508,-1.0205 0.25509,-0.51959 0.51017,0.38994 0.25508,0.58559 0.25509,-0.45049 0.25509,0.0484 0.25508,-0.87485 0.25509,0.54947 0.25508,0.22473 0.25509,0.82917 0.51017,0.19907 0.25509,0.27423 0.25508,-0.56082 0.25509,-0.83686 0.25508,0.44951 0.25509,-0.69496 0.25508,0.44997 0.25509,0.16573 0.25509,-1.02229 0.25508,0.002 0.25509,-0.2381 0.76525,-1.47861 0.25509,-0.97654 0.25509,-0.35412 0.25508,0.0198 0.76526,-2.44919 0.25508,-0.36886 0.51018,-2.17864 0.51017,-3.43702 0.51017,-2.32551 0.25508,0.17068 0.25509,-0.57792 0.25509,-1.08791 0.76525,-0.0247 0.51017,-0.89818 0.76526,-3.15458 0.76526,-3.94204 0.25508,-0.0185 1.27543,-3.2527 0.76526,0.49129 0.25509,0.66095 0.51017,0.31253 0.51017,-0.77493 0.25508,-0.23438 0.51018,0.0767 0.25508,-0.25966 0.25509,-0.65564 0.51017,-2.6826 0.25508,-0.96755 0.25509,-0.35832 0.25509,-0.6649 0.25508,0.19823 0.25509,0.41177 0.51017,1.65741 0.25508,-0.30663 0.76526,-3.77652 0.25509,-0.63946 0.25508,0.81082 1.02035,-4.70021 0.76525,-4.23414 0.51017,4.21194 0.25509,-0.63792 0.25509,2.25656 0.25508,0.12776 0.25509,-0.03 0.25508,0.43691 0.25509,-0.79493 0.25508,0.56426 0.76526,3.05056 0.51017,2.14862 0.25509,0.34134 0.76526,3.39996 0.25508,0.73388 0.51017,2.9971 0.25509,2.2528 0.51017,2.1999 0.25509,0.2266 0.25508,0.59476 0.51017,8.13809 0.25509,1.10118 0.25508,-0.54011 0.51018,-2.55281 0.25508,-0.23555 0.25509,-0.96547 0.25508,0.048 0.25509,-0.93359 0.25508,0.32066 0.25509,-0.67684 0.25509,0.63497 0.51017,2.53269 0.25508,-0.51433 0.51017,2.8675 0.51018,0.71396 0.25508,1.00232 0.25509,0.009 0.51017,-0.91685 0.25508,0.56212 0.25509,-0.24766 0.25509,0.10492 0.51017,0.79186 0.25508,0.70181 1.02035,3.97251 0.25508,-0.16303 0.25509,0.0177 0.25508,0.18063 0.25509,-0.006 0.25508,-0.36841 0.25509,-0.0821 0.25509,0.52942 0.51017,1.99712 0.51017,1.78738 0.51017,1.152 2.29577,7.66395 0.25509,0.16674 0.51017,-0.0998 0.25508,-0.63089 0.51018,-2.53866 2.55085,-7.93107 0.76526,-1.92995 0.25509,-0.69884 0.25508,-0.29085 0.51017,-0.044 0.51017,0.72072 0.76526,2.1398 1.02034,4.4395 0.25509,-0.33126 0.25509,0.17081 0.25508,-0.46331 0.25509,0.52313 1.02034,-3.18703 0.25509,0.0533 0.25508,0.20156 0.25509,0.38005 0.25508,0.0625 0.25509,0.40928 0.51017,1.80747 0.51017,0.68122 0.25509,1.05174 0.25508,0.19624 0.25509,0.39297 0.51017,-0.0729 0.25509,-0.44068 0.25508,0.15943 0.25509,-0.55371 0.51017,1.41307 0.25508,-0.0106 0.25509,-1.10212 0.76526,-0.2017 0.25508,0.18681 0.25509,-0.50164 0.25508,-0.0234 0.25509,0.22149 0.25509,-0.065 0.25508,-0.19407 0.51017,-1.40286 0.51017,-0.21647 0.25509,0.0769 0.25509,-0.38115 0.51017,-0.004 0.25508,-0.0138 0.51017,-1.97764 0.25509,-0.15651 0.25509,0.37476 0.25508,1.10102 0.25509,0.2029 0.76525,2.46759 1.53052,3.88698 0.25508,0.23033 0.51018,1.53876 0.51017,0.95618 0.25508,-0.0151 0.25509,-0.46416 0.25508,0.13637 0.25509,-0.41102 0.51017,-2.07909 0.51017,-0.83506 0.25509,-0.27368 0.25508,-0.0788 0.76526,-2.81665 0.25509,-0.0932 0.51017,0.57755 0.25508,0.53562 0.51018,2.82263 0.51017,-0.85878 0.25508,0.0582 0.25509,0.24711 0.51017,-0.0947 0.51017,-0.57999 0.25509,-0.50971 0.51017,-0.307 0.25508,0.0934 0.25509,-0.18336 0.25509,-0.36161 0.25508,0.42555 0.51017,-0.80317 0.25509,-0.65119 0.25508,0.20703 0.76526,-0.79277 0.25509,0.93787 0.51017,-1.27316 0.51017,-1.00062 0.25509,0.66211 0.51017,-1.18558 0.25508,0.16634 0.25509,0.33114 0.25508,-0.66239 0.25509,-0.29275 0.51017,-1.29967 0.25509,-0.0704 0.25508,0.33421 0.25509,0.15082 0.25508,-0.25619 0.25509,0.23751 0.25509,1.35166 0.25508,0.72027 0.25509,-0.2428 0.51017,0.0404 0.25508,0.98577 0.25509,-0.4271 0.25509,-0.88511 0.25508,-0.32282 0.25509,-0.007 0.51017,-1.15324 0.25508,-0.29976 0.25509,0.0291 0.25509,0.22946 0.25508,0.41219 0.25509,-0.19799 0.76525,1.00733 0.25509,-0.99011 0.51017,-0.95117 0.25509,0.82508 0.51017,2.3849 0.25508,-0.13473 0.25509,0.0895 0.51017,0.51685 0.25509,1.67716 0.25508,0.92243 0.25509,2.04483 0.25508,-1.3427 0.25509,-0.50922 0.25509,-0.14054 0.25508,-0.37525 0.25509,0.0771 0.25508,0.26817 0.25509,-0.10018 0.25508,-1.6054 0.25509,-0.19034 0.25509,-1.72503 0.51017,-5.23368 0.25508,-0.60449 0.51017,-2.03144 0.25509,-3.87176 0.25509,-1.3338 0.25508,-2.20811 0.25509,-3.44471 0.25508,-6.87696 0.25509,-0.44652 0.25508,0.2721 0.76526,-2.67177 1.02034,-7.01592 0.76526,-8.27006 0.51017,-6.54144 0.76526,-11.65576 0.25509,-3.46911 0.25508,-8.18414 0.25509,-3.80682 0.51017,-3.96714 0.51017,-5.68235 1.02034,-15.47227 0.51017,-9.56885 0.51018,-10.60321 0.51017,-6.45182 0.25508,-1.52576 0.51017,-8.67707 0.25509,-1.06395 0.51017,-5.15123 0.25509,-1.7055 0.51017,-2.00075 0.51017,-5.00638 0.51017,-1.53158 0.25509,2.36721 0.25508,0.59123 0.25509,-0.34391 0.25508,-1.29337 0.25509,-0.28439 0.25509,-0.89509 0.25508,0.49738 0.25509,0.22188 0.25508,-0.64403 0.25509,0.2402 0.25508,-3.62197 0.25509,0.22893 0.25509,-1.89685 0.25508,-7.97191 0.25509,-1.10465 0.76525,-29.557445 0.25509,-19.041644 0.16265,-3.551025"
           style="fill:none;stroke:#00d400;stroke-width:1.05365;stroke-linecap:square;stroke-linejoin:round;stroke-miterlimit:10;stroke-dasharray:none;stroke-opacity:1"
           id="path266-3"
           sodipodi:nodetypes="cccccccccccccccccccccccccccccccccccccccccccccccccccccccccccccccccccccccccccccccccccccccccccccccccccccccccccccccccccccccccccccccccccccccccccccccccccccccccccccccccccccccccccccccccccccccccccccccccccccccccccccccccccccccccccccccccccccccccccccccccccccccccccccccccccccccccccccccccccccccccccccccccccccccccccccccccccccccccccccccccccccccccccccccccccccccccccccccccccccccccccccccccccccccccccccccccccccccccccccccccccccccccccccccccccccccccccccccccccccccccccccccccccccccccccccccccccccccccccccccccccccccccccccccccccccccccccccccccccccccccccccccccccccccccccccccccccccccccccccccccccccccccccccccccccccccccccccccccccccccccccccccccccccccccccccccccccccccccccccccccccccccccccccccccccccccccccccccccccccccccccccccccccccccccccccccccccccccccccccccccccccccccccccccccccccccccccccccccccccccccccccccccccccccccccccccccccccccccccccccccccccccccccccccccccccccccccccccccccccccccccccccccccccccccc" /></g></g></g><g
     inkscape:groupmode="layer"
     id="layer1"
     inkscape:label="FarreEtAl"
     style="display:inline"
     transform="translate(1860.103,170.61393)"><path
       style="display:inline;fill:none;stroke:#ff0000;stroke-width:0.757179;stroke-linecap:butt;stroke-linejoin:miter;stroke-miterlimit:4;stroke-dasharray:none;stroke-opacity:1"
       d="m -1806.3718,-87.657561 0.9366,-3.411199 0.2172,-0.503083 1.1814,-0.381297 0.9532,0.42597 0.5776,2.63757 1.1349,4.662057 1.3727,-5.220214 v -1.368299 l 0.2955,-2.068787 0.6116,-1.241388 0.1208,-2.200197 0.5745,-5.779502 0.1727,-2.89211 0.9116,-4.94601 0.8795,1.07777 1.2078,-1.04397 0.5929,0.11415 0.8213,2.02267 0.836,-0.96898 0.5407,2.16503 0.3747,2.35277 0.2812,0.79148 0.6098,1.08001 0.5159,1.33989 0.3725,1.738628 1.0624,-2.113258 0.3466,-2.51481 0.7044,-4.86628 0.6505,2.86913 0.01,1.34633 1.255,1.10979 1.0833,0.03 0.9758,1.62728 1.2829,4.246888 0.7462,2.900624 0.3576,0.34434 0.7828,2.74278 1.4474,-1.789298 0.4106,-0.0187 0.4321,-1.391386 1.2258,-1.20691 1.0664,-3.390562 0.739,-0.677176 0.4705,4.230898 -0.024,1.331729 0.3808,0.697544 0.386,2.209763 0.1934,-3.55468 0.2645,-0.272441 0.01,-3.97238 0.1449,-2.455853 0.4637,-8.08473 0.9906,-9.3812 0.2894,-2.37052 0.4534,4.77342 0.4015,4.31785 0.4447,1.39729 0.5378,1.13401 0.911,-1.34737 0.6751,-0.0769 0.9164,-1.95368 1.0783,-1.23278 0.1352,-1.37704 0.5315,-1.03736 0.6871,1.09518 1.8709,-0.64546 0.4794,-0.44919 0.4903,-2.16894 0.7398,-4.18903 0.5894,-3.00436 0.6155,0.73791 0.7467,2.80673 0.5952,-1.00154 1.151,-3.96302 0.3073,-3.11456 0.6938,1.22562 1.8088,0.9518 2.1531,3.74601 0.7492,0.10615 0.8006,1.37095 2.2636,0.72005 2.4821,4.60809 0.2325,1.5597 0.4371,0.90675 0.3864,12.34121 0.3095,0.17663 v 2.8815 l 0.6191,4.863758 0.5716,-1.536033 1.5232,-11.951535 0.8296,-0.98823 0.6812,1.60354 0.1146,1.791 0.6478,-0.56991 0.98,-0.0296 1.5414,-3.4469 1.3919,-0.4015 0.8739,0.0152 0.5205,-0.92542 0.6405,1.33953 1.5467,15.568791 1.3546,-2.020675 0.5914,0.377302 0.515,7.105264 0.6865,2.222588 0.6102,-1.671083 0.6341,-0.142217 0.718,-6.273611 0.508,-10.054529 0.8612,-6.76976 1.4945,-3.70212 0.3963,0.0126 0.5395,3.89411 0.7625,2.93438 0.7823,1.57952 0.3181,0.808 0.6733,0.0769 1.0215,2.31846 1.0303,-0.0366 1.803,1.69386 0.557,0.7568 0.2977,1.15204 0.6636,0.24408 0.2897,1.115398 0.3129,0.258423 0.9264,3.653635 0.5231,-0.902813 0.3154,1.850917 0.678,9.249737 0.4233,3.387501 0.058,1.219736 0.8942,3.884141 0.2936,0.559989 0.072,2.759578 0.5607,1.290205 1.06,-1.263967 0.5836,-2.482047 0.1053,-1.795422 0.254,-0.813746 0.4707,-5.153665 0.7502,-0.891297 0.3156,-1.970546 c 0,0 0.267,2.617692 0.2897,2.577227 0.023,-0.04047 0.7318,-0.880257 0.7318,-0.880257 l 1.1334,2.610844 0.777,4.805337 0.5124,1.973355 0.687,-3.894016 0.3531,-2.32653 0.9184,1.763303 0.8005,-1.355441 0.5677,-1.511835 0.5699,1.030019 0.2291,1.70739 0.5542,2.401957 0.3681,4.339379 0.8896,4.844574 0.943,-2.584225 0.5543,3.098572 0.5382,1.639534 0.5067,2.880219 0.419,1.817761 0.824,1.794037 0.5712,-1.515091 0.1919,-2.297153 0.6582,-0.852592 0.893,-8.013535 1.4958,-7.041373 1.6939,-0.473074 0.7681,-2.122019 0.6829,-2.737621 0.8982,3.261951 0.6584,0.761445 0.3936,-2.405784 1.0358,-0.643701 0.819,-1.240805 0.1643,-1.153919 0.045,-1.990752 0.8143,-1.2996 0.3126,-1.911818 0.4166,-0.162253 0.9795,-1.377308 0.9592,2.169273 0.5133,2.972775 0.2023,2.750346 0.1735,2.08324 0.3395,2.9308 0.5725,-2.974358 0.247,-0.214992 1.1356,-9.334899 0.8383,-6.057353 0.8195,-3.862521 0.641,-0.004 1.2378,3.024255 0.8089,3.263728 1.2851,1.812848 0.2848,0.951332 1.2147,-0.588039 0.4032,-1.55305 0.1461,-2.651848 0.6019,-2.881926 0.2115,-2.38549 1.3245,-1.07305 1.1981,-4.74162 0.5366,-5.46039 0.2094,-3.0841 0.4971,-4.06102 3.3931,3.48882 1.1965,0.33977 0.9202,-0.83774 1.2467,1.02106 0.2695,1.4988 1.1209,1.02429 0.6781,-0.29138 1.5295,2.08741 0.9534,1.82682 0.053,3.33567 0.5195,1.97394 0.2328,3.53564 0.4005,1.70597 1.3128,1.26464 0.4899,-0.47695 0.3417,1.891233 0.7292,-0.161482 0.463,-1.260751 0.3466,-3.07631 0.4599,0.62925 0.4281,2.2489 0.3658,2.456913 0.5907,3.974764 0.6708,0.91609 0.5759,6.073002 0.8727,6.641483 0.7672,0.748589 0.3211,1.145338 0.7607,-5.07929 0.6629,-5.256696 0.8093,-4.040434 0.059,-7.986429 0.7674,-3.63601 0.7152,1.92079 0.976,8.055623 0.7715,4.847659 0.9845,4.210418 1.0398,0.618228 0.3819,5.506457 0.2726,4.066563 0.7073,3.518695 0.6387,-2.481485 0.2502,-2.018027 0.3034,-4.033791 1.7711,-4.415782 0.731,4.972176 0.2845,3.76632 1.0488,2.257021 0.6898,0.196931 0.76,2.334726 0.1963,7.559301 -0.046,3.435609 0.2717,0.860958 0.2787,13.927401 0.1467,11.526949 0.2138,9.062938 0.2297,8.722489 0.4288,8.3997139 0.5795,2.1550817 1.2384,-7.7733346 0.8812,-8.568713 0.5389,-10.056976 0.5563,-9.621947 0.3574,-7.181565 0.124,-7.105976 0.061,-15.581449 0.5638,-9.231761 2.1733,-1.571421 1.0177,-8.314032 1.0731,-4.847119 0.9862,-2.161271 0.861,2.239674 1.0422,5.016168 0.5891,-2.47401 0.6963,0.733268 1.1911,-2.873284 0.5898,-4.128152 1.6677,2.424905 0.3141,1.367825 0.8015,-1.419866 0.2771,-1.823672 0.6008,-0.273249 0.6827,-1.515395 1.2789,-5.57035 0.4367,-0.6111 0.8994,-2.79349 2.6403,2.16054 1.6409,0.93542 0.4014,0.57683 0.6163,-0.49935 0.9406,0.43499 0.515,-0.71724 0.8379,2.39193 0.2897,2.03979 0.4887,2.244948 0.5453,0.548812 1.5423,4.637551 0.046,0.716246 0.3978,0.923525 0.3376,2.094647 0.05,1.255304 0.5182,2.372047 1.104,2.39838 0.4624,-1.353952 0.3455,-2.639822 0.3632,-2.370062 0.666,-0.131096 0.6662,-1.159984 0.1797,1.505732 1.0045,0.699636 0.6722,0.0039"
       id="path2900" /></g><g
     inkscape:groupmode="layer"
     id="layer5"
     inkscape:label="text"
     transform="translate(1860.103,170.61393)"><text
       style="font-variant:normal;font-weight:normal;font-size:7.42479px;font-family:'DejaVu Sans';-inkscape-font-specification:DejaVuSans;writing-mode:lr-tb;fill:#000000;fill-opacity:1;fill-rule:nonzero;stroke:none;stroke-width:0.742479"
       id="text32"
       x="-1778.3348"
       y="42.757591"
       transform="scale(1.032946,0.96810481)"><tspan
         x="-1778.3348 -1773.6127"
         y="42.757591"
         sodipodi:role="line"
         id="tspan30"
         style="stroke-width:0.742479">14</tspan></text><text
       style="font-variant:normal;font-weight:normal;font-size:7.42479px;font-family:'DejaVu Sans';-inkscape-font-specification:DejaVuSans;writing-mode:lr-tb;fill:#000000;fill-opacity:1;fill-rule:nonzero;stroke:none;stroke-width:0.742479"
       id="text50"
       x="-1740.7679"
       y="42.757591"
       transform="scale(1.032946,0.96810481)"><tspan
         x="-1740.7679 -1736.0455"
         y="42.757591"
         sodipodi:role="line"
         id="tspan48"
         style="stroke-width:0.742479">16</tspan></text><text
       style="font-variant:normal;font-weight:normal;font-size:7.42479px;font-family:'DejaVu Sans';-inkscape-font-specification:DejaVuSans;writing-mode:lr-tb;fill:#000000;fill-opacity:1;fill-rule:nonzero;stroke:none;stroke-width:0.742479"
       id="text68"
       x="-1702.7843"
       y="42.757591"
       transform="scale(1.032946,0.96810481)"><tspan
         x="-1702.7843 -1698.0621"
         y="42.757591"
         sodipodi:role="line"
         id="tspan66"
         style="stroke-width:0.742479">18</tspan></text><text
       style="font-variant:normal;font-weight:normal;font-size:7.42479px;font-family:'DejaVu Sans';-inkscape-font-specification:DejaVuSans;writing-mode:lr-tb;fill:#000000;fill-opacity:1;fill-rule:nonzero;stroke:none;stroke-width:0.742479"
       id="text86"
       x="-1664.6968"
       y="42.757591"
       transform="scale(1.032946,0.96810481)"><tspan
         x="-1664.6968 -1659.9746"
         y="42.757591"
         sodipodi:role="line"
         id="tspan84"
         style="stroke-width:0.742479">20</tspan></text><text
       style="font-variant:normal;font-weight:normal;font-size:7.42479px;font-family:'DejaVu Sans';-inkscape-font-specification:DejaVuSans;writing-mode:lr-tb;fill:#000000;fill-opacity:1;fill-rule:nonzero;stroke:none;stroke-width:0.742479"
       id="text104"
       x="-1626.6094"
       y="42.757591"
       transform="scale(1.032946,0.96810481)"><tspan
         x="-1626.6094 -1621.8872"
         y="42.757591"
         sodipodi:role="line"
         id="tspan102"
         style="stroke-width:0.742479">22</tspan></text><text
       style="font-variant:normal;font-weight:normal;font-size:7.42479px;font-family:'DejaVu Sans';-inkscape-font-specification:DejaVuSans;writing-mode:lr-tb;fill:#000000;fill-opacity:1;fill-rule:nonzero;stroke:none;stroke-width:0.742479"
       id="text122"
       x="-1588.6312"
       y="42.757591"
       transform="scale(1.032946,0.96810481)"><tspan
         x="-1588.6312 -1583.9091"
         y="42.757591"
         sodipodi:role="line"
         id="tspan120"
         style="stroke-width:0.742479">24</tspan></text><text
       style="font-variant:normal;font-weight:normal;font-size:7.42479px;font-family:'DejaVu Sans';-inkscape-font-specification:DejaVuSans;writing-mode:lr-tb;fill:#000000;fill-opacity:1;fill-rule:nonzero;stroke:none;stroke-width:0.742479"
       id="text140"
       x="-1550.7518"
       y="42.757591"
       transform="scale(1.032946,0.96810481)"><tspan
         x="-1550.7518 -1546.0297"
         y="42.757591"
         sodipodi:role="line"
         id="tspan138"
         style="stroke-width:0.742479">26</tspan></text><text
       style="font-variant:normal;font-weight:normal;font-size:7.42479px;font-family:'DejaVu Sans';-inkscape-font-specification:DejaVuSans;writing-mode:lr-tb;fill:#000000;fill-opacity:1;fill-rule:nonzero;stroke:none;stroke-width:0.742479"
       id="text158"
       x="-1513.3876"
       y="42.757591"
       transform="scale(1.032946,0.96810481)"><tspan
         x="-1513.3876 -1508.6653"
         y="42.757591"
         sodipodi:role="line"
         id="tspan156"
         style="stroke-width:0.742479">28</tspan></text><text
       style="font-variant:normal;font-weight:normal;font-size:7.42479px;font-family:'DejaVu Sans';-inkscape-font-specification:DejaVuSans;writing-mode:lr-tb;fill:#000000;fill-opacity:1;fill-rule:nonzero;stroke:none;stroke-width:0.742479"
       id="text162"
       x="-1684.6383"
       y="52.908691"
       transform="scale(1.032946,0.96810481)"><tspan
         x="-1684.6383 -1679.9235 -1675.3572 -1670.6499 -1666.1058 -1658.874 -1656.8099 -1652.7263 -1650.3652 -1645.6505 -1641.1064 -1637.2382 -1635.174 -1632.2634 -1630.1995 -1625.6554 -1620.948 -1618.587 -1616.0848 -1613.7238 -1607.316 -1602.6013"
         y="52.908691"
         sodipodi:role="line"
         id="tspan160"
         style="stroke-width:0.742479">genomic position / Mbp</tspan></text><text
       style="font-variant:normal;font-weight:normal;font-size:7.42479px;font-family:'DejaVu Sans';-inkscape-font-specification:DejaVuSans;writing-mode:lr-tb;fill:#000000;fill-opacity:1;fill-rule:nonzero;stroke:none;stroke-width:0.742479"
       id="text180"
       x="-1790.6206"
       y="34.698917"
       transform="scale(1.032946,0.96810481)"><tspan
         x="-1790.6206 -1785.8986 -1783.5374"
         y="34.698917"
         sodipodi:role="line"
         id="tspan178"
         style="stroke-width:0.742479">0.0</tspan></text><text
       style="font-variant:normal;font-weight:normal;font-size:7.42479px;font-family:'DejaVu Sans';-inkscape-font-specification:DejaVuSans;writing-mode:lr-tb;fill:#000000;fill-opacity:1;fill-rule:nonzero;stroke:none;stroke-width:0.742479"
       id="text198"
       x="-1790.6206"
       y="-2.757297"
       transform="scale(1.032946,0.96810481)"><tspan
         x="-1790.6206 -1785.8986 -1783.5374"
         y="-2.757297"
         sodipodi:role="line"
         id="tspan196"
         style="stroke-width:0.742479">0.2</tspan></text><text
       style="font-variant:normal;font-weight:normal;font-size:7.42479px;font-family:'DejaVu Sans';-inkscape-font-specification:DejaVuSans;writing-mode:lr-tb;fill:#000000;fill-opacity:1;fill-rule:nonzero;stroke:none;stroke-width:0.742479"
       id="text216"
       x="-1790.6206"
       y="-40.657715"
       transform="scale(1.032946,0.96810481)"><tspan
         x="-1790.6206 -1785.8986 -1783.5374"
         y="-40.657715"
         sodipodi:role="line"
         id="tspan214"
         style="stroke-width:0.742479">0.4</tspan></text><text
       style="font-variant:normal;font-weight:normal;font-size:7.42479px;font-family:'DejaVu Sans';-inkscape-font-specification:DejaVuSans;writing-mode:lr-tb;fill:#000000;fill-opacity:1;fill-rule:nonzero;stroke:none;stroke-width:0.742479"
       id="text234"
       x="-1790.6206"
       y="-78.613571"
       transform="scale(1.032946,0.96810481)"><tspan
         sodipodi:role="line"
         id="tspan232"
         style="stroke-width:0.742479"
         x="-1790.6206"
         y="-78.613571">0.6</tspan></text><text
       style="font-variant:normal;font-weight:normal;font-size:7.42479px;font-family:'DejaVu Sans';-inkscape-font-specification:DejaVuSans;writing-mode:lr-tb;fill:#000000;fill-opacity:1;fill-rule:nonzero;stroke:none;stroke-width:0.742479"
       id="text252"
       x="-1790.6206"
       y="-116.5404"
       transform="scale(1.032946,0.96810481)"><tspan
         sodipodi:role="line"
         id="tspan250"
         style="stroke-width:0.742479"
         x="-1790.6206"
         y="-116.5404">0.8</tspan></text><text
       style="font-variant:normal;font-weight:normal;font-size:7.42479px;font-family:'DejaVu Sans';-inkscape-font-specification:DejaVuSans;writing-mode:lr-tb;fill:#000000;fill-opacity:1;fill-rule:nonzero;stroke:none;stroke-width:0.742479"
       id="text270"
       x="-1790.6206"
       y="-153.83141"
       transform="scale(1.032946,0.96810481)"><tspan
         sodipodi:role="line"
         id="tspan268"
         style="stroke-width:0.742479"
         x="-1790.6206"
         y="-153.83141">1.0</tspan></text><text
       transform="matrix(0,-0.96810481,1.032946,0,0,0)"
       style="font-variant:normal;font-weight:normal;font-size:7.42479px;font-family:'DejaVu Sans';-inkscape-font-specification:DejaVuSans;writing-mode:lr-tb;fill:#000000;fill-opacity:1;fill-rule:nonzero;stroke:none;stroke-width:0.742479"
       id="text274"
       x="22.059731"
       y="-1795.1335"><tspan
         x="22.059731 26.53688 31.103157 35.654587 38.706181 42.574501 47.118523 51.825848 54.186932 58.270599 62.814598 65.866219 68.917816 73.484077 75.548187 80.099602 83.010132 85.074234 89.618225"
         y="-1795.1335"
         sodipodi:role="line"
         id="tspan272"
         style="stroke-width:0.742479">Pearson correlation</tspan></text><text
       style="font-variant:normal;font-weight:normal;font-size:7.42479px;font-family:'DejaVu Sans';-inkscape-font-specification:DejaVuSans;writing-mode:lr-tb;fill:#000000;fill-opacity:1;fill-rule:nonzero;stroke:none;stroke-width:0.742479"
       id="text310"
       x="-1727.8496"
       y="-3.1302252"
       transform="scale(1.032946,0.96810481)"><tspan
         sodipodi:role="line"
         id="tspan308"
         style="stroke-width:0.742479"
         x="-1727.8496"
         y="-3.1302252">Hi-cGAN</tspan></text><text
       style="font-variant:normal;font-weight:normal;font-size:7.42479px;font-family:'DejaVu Sans';-inkscape-font-specification:DejaVuSans;writing-mode:lr-tb;fill:#000000;fill-opacity:1;fill-rule:nonzero;stroke:none;stroke-width:0.742479"
       id="text3346"
       x="-1727.8496"
       y="7.9301286"
       transform="scale(1.032946,0.96810481)"><tspan
         sodipodi:role="line"
         id="tspan3344"
         style="stroke-width:0.742479"
         x="-1727.8496"
         y="7.9301286">Farr\'e et al. \cite{Farre2018a} </tspan></text><text
       style="font-variant:normal;font-weight:normal;font-size:7.42479px;font-family:'DejaVu Sans';-inkscape-font-specification:DejaVuSans;writing-mode:lr-tb;fill:#000000;fill-opacity:1;fill-rule:nonzero;stroke:none;stroke-width:0.742479"
       id="text1294"
       x="-1727.8496"
       y="-13.799511"
       transform="scale(1.032946,0.96810481)"><tspan
         sodipodi:role="line"
         id="tspan1292"
         style="stroke-width:0.742479"
         x="-1727.8496"
         y="-13.799511">DNN</tspan></text><text
       xml:space="preserve"
       style="font-style:normal;font-weight:normal;font-size:7.42036px;line-height:1.25;font-family:sans-serif;letter-spacing:0px;word-spacing:0px;fill:#000000;fill-opacity:1;stroke:none;stroke-width:0.189294"
       x="-1763.4727"
       y="-164.9762"
       id="text1302"><tspan
         sodipodi:role="line"
         id="tspan1300"
         x="-1763.4727"
         y="-164.9762"
         style="font-size:7.42036px;stroke-width:0.189294">Pearson correlation per position</tspan></text><text
       xml:space="preserve"
       style="font-style:normal;font-weight:normal;font-size:7.42036px;line-height:1.25;font-family:sans-serif;letter-spacing:0px;word-spacing:0px;fill:#000000;fill-opacity:1;stroke:none;stroke-width:0.189294"
       x="-1742.9525"
       y="-156.69199"
       id="text1306"><tspan
         sodipodi:role="line"
         id="tspan1304"
         x="-1742.9525"
         y="-156.69199"
         style="font-size:7.42036px;stroke-width:0.189294">test chromosome 3R</tspan></text></g></svg>
