<?xml version="1.0" encoding="UTF-8" standalone="no"?>
<svg
   xmlns:dc="http://purl.org/dc/elements/1.1/"
   xmlns:cc="http://creativecommons.org/ns#"
   xmlns:rdf="http://www.w3.org/1999/02/22-rdf-syntax-ns#"
   xmlns:svg="http://www.w3.org/2000/svg"
   xmlns="http://www.w3.org/2000/svg"
   xmlns:sodipodi="http://sodipodi.sourceforge.net/DTD/sodipodi-0.dtd"
   xmlns:inkscape="http://www.inkscape.org/namespaces/inkscape"
   version="1.1"
   id="svg2"
   xml:space="preserve"
   width="80mm"
   height="65.300003mm"
   viewBox="0 0 302.36219 246.80316"
   sodipodi:docname="ppp_chr3R_restricted.svg"
   inkscape:version="1.0.2 (1.0.2+r75+1)"><metadata
     id="metadata8"><rdf:RDF><cc:Work
         rdf:about=""><dc:format>image/svg+xml</dc:format><dc:type
           rdf:resource="http://purl.org/dc/dcmitype/StillImage" /><dc:title></dc:title></cc:Work></rdf:RDF></metadata><defs
     id="defs6"><clipPath
       clipPathUnits="userSpaceOnUse"
       id="clipPath22"><path
         d="M 57.6,38.016 H 414.72 V 304.128 H 57.6 Z"
         id="path20" /></clipPath><clipPath
       clipPathUnits="userSpaceOnUse"
       id="clipPath40"><path
         d="M 57.6,38.016 H 414.72 V 304.128 H 57.6 Z"
         id="path38" /></clipPath><clipPath
       clipPathUnits="userSpaceOnUse"
       id="clipPath58"><path
         d="M 57.6,38.016 H 414.72 V 304.128 H 57.6 Z"
         id="path56" /></clipPath><clipPath
       clipPathUnits="userSpaceOnUse"
       id="clipPath76"><path
         d="M 57.6,38.016 H 414.72 V 304.128 H 57.6 Z"
         id="path74" /></clipPath><clipPath
       clipPathUnits="userSpaceOnUse"
       id="clipPath94"><path
         d="M 57.6,38.016 H 414.72 V 304.128 H 57.6 Z"
         id="path92" /></clipPath><clipPath
       clipPathUnits="userSpaceOnUse"
       id="clipPath112"><path
         d="M 57.6,38.016 H 414.72 V 304.128 H 57.6 Z"
         id="path110" /></clipPath><clipPath
       clipPathUnits="userSpaceOnUse"
       id="clipPath130"><path
         d="M 57.6,38.016 H 414.72 V 304.128 H 57.6 Z"
         id="path128" /></clipPath><clipPath
       clipPathUnits="userSpaceOnUse"
       id="clipPath152"><path
         d="M 57.6,38.016 H 414.72 V 304.128 H 57.6 Z"
         id="path150" /></clipPath><clipPath
       clipPathUnits="userSpaceOnUse"
       id="clipPath174"><path
         d="M -1021,-463 H 1794 V 1233 H -1021 Z"
         id="path172" /></clipPath><clipPath
       clipPathUnits="userSpaceOnUse"
       id="clipPath184"><path
         d="M 57.6,38.016 H 414.72 V 304.128 H 57.6 Z"
         id="path182" /></clipPath><clipPath
       clipPathUnits="userSpaceOnUse"
       id="clipPath202"><path
         d="M 57.6,38.016 H 414.72 V 304.128 H 57.6 Z"
         id="path200" /></clipPath><clipPath
       clipPathUnits="userSpaceOnUse"
       id="clipPath220"><path
         d="M 57.6,38.016 H 414.72 V 304.128 H 57.6 Z"
         id="path218" /></clipPath><clipPath
       clipPathUnits="userSpaceOnUse"
       id="clipPath238"><path
         d="M 57.6,38.016 H 414.72 V 304.128 H 57.6 Z"
         id="path236" /></clipPath><clipPath
       clipPathUnits="userSpaceOnUse"
       id="clipPath256"><path
         d="M 57.6,38.016 H 414.72 V 304.128 H 57.6 Z"
         id="path254" /></clipPath><clipPath
       clipPathUnits="userSpaceOnUse"
       id="clipPath274"><path
         d="M 57.6,38.016 H 414.72 V 304.128 H 57.6 Z"
         id="path272" /></clipPath><clipPath
       clipPathUnits="userSpaceOnUse"
       id="clipPath296"><path
         d="M 57.6,38.016 H 414.72 V 304.128 H 57.6 Z"
         id="path294" /></clipPath><clipPath
       clipPathUnits="userSpaceOnUse"
       id="clipPath306"><path
         d="M 57.6,38.016 H 414.72 V 304.128 H 57.6 Z"
         id="path304" /></clipPath><clipPath
       clipPathUnits="userSpaceOnUse"
       id="clipPath316"><path
         d="M 57.6,38.016 H 414.72 V 304.128 H 57.6 Z"
         id="path314" /></clipPath></defs><sodipodi:namedview
     pagecolor="#ffffff"
     bordercolor="#666666"
     borderopacity="1"
     objecttolerance="10"
     gridtolerance="10"
     guidetolerance="10"
     inkscape:pageopacity="0"
     inkscape:pageshadow="2"
     inkscape:window-width="1920"
     inkscape:window-height="1020"
     id="namedview4"
     showgrid="false"
     units="mm"
     fit-margin-top="0"
     fit-margin-left="0"
     fit-margin-right="0"
     fit-margin-bottom="0"
     inkscape:zoom="3.7196182"
     inkscape:cx="119.24856"
     inkscape:cy="188.88586"
     inkscape:window-x="0"
     inkscape:window-y="0"
     inkscape:window-maximized="1"
     inkscape:current-layer="layer1" /><g
     id="g10"
     inkscape:groupmode="layer"
     inkscape:label="ppp_chr3R_restricted"
     transform="matrix(1.3333333,0,0,-1.3333333,-16.857292,443.59358)"><g
       id="g312"
       clip-path="url(#clipPath316)"
       transform="matrix(0.56299696,0,0,0.56299696,5.525016,145.38881)"><path
         d="m 57.327597,144.33701 1.089611,-5.65774 1.089611,-3.16116 0.272403,-0.2351 1.089611,-0.14297 0.272403,0.44959 0.544805,1.86898 1.362014,5.65246 1.089611,7.9774 0.544805,4.32206 0.272403,1.24732 0.544806,4.73387 0.544805,4.98822 1.089611,5.50206 0.817208,3.45128 0.544806,0.91791 0.544805,2.17632 0.272403,-0.35342 0.544806,-3.22416 0.272402,-0.91883 0.817209,-3.89273 1.634416,-6.24285 0.272403,-0.68797 0.272403,-1.08974 0.272402,-0.0696 0.272403,-0.90348 1.089611,-6.29742 2.451625,-20.47283 0.272402,-1.45893 0.817209,-2.67835 0.817208,-2.98892 0.817208,-3.68521 0.544806,-2.70041 1.089611,-4.12232 0.272402,-0.0116 0.272403,0.62849 1.089611,5.10309 0.817208,5.23136 0.817209,8.18701 1.906819,21.66192 0.544805,2.78818 0.544806,3.48808 0.272403,1.07282 0.544805,2.74599 1.089611,3.96144 0.544806,-0.0833 0.272402,0.60649 0.272403,0.15246 0.544806,-1.22309 0.544805,-3.16375 0.544805,-4.31354 1.089611,-9.33169 0.817209,-3.44008 0.544805,-1.54866 0.272403,-0.27001 0.817208,0.005 0.544806,0.6677 0.272402,0.0257 0.544806,-0.16662 0.544805,0.46498 0.272403,-0.0201 0.272403,-0.75845 0.272403,-1.14138 0.272402,-0.58914 0.272403,-1.44171 0.272403,-0.18324 1.362017,-9.85336 0.2724,-1.66659 0.2724,-0.8972 0.27241,-0.30451 0.2724,-0.54837 0.2724,0.0636 0.2724,-0.1468 0.27241,-0.68285 0.5448,-2.16447 0.54481,-2.02743 0.2724,-0.62285 0.2724,-0.31139 0.2724,-0.0537 0.27241,0.61393 1.08961,4.03689 0.5448,2.11823 1.36202,7.62429 0.2724,1.869 0.81721,7.07463 0.2724,2.04152 0.2724,1.04622 0.81721,4.85941 0.27241,0.3638 0.2724,0.60639 0.5448,0.44088 0.27241,-0.13004 1.63441,-5.15315 1.08961,-5.86322 0.27241,-1.09049 0.2724,-0.52223 0.2724,0.0613 0.2724,0.73595 0.81721,4.08149 0.54481,0.80916 0.2724,0.42642 0.54481,-0.47301 0.2724,-0.39985 0.54481,-1.30435 0.8172,-1.4041 0.81721,-2.12086 0.81721,-2.12483 0.2724,-0.31042 0.54481,-0.97862 0.5448,1.36529 0.54481,3.59417 0.2724,2.91394 0.54481,9.7005 0.5448,9.56191 0.54481,5.81852 0.81721,6.15462 0.2724,1.64067 0.54481,1.73005 0.2724,0.41893 0.2724,0.0118 0.54481,-0.64378 0.2724,-0.80209 0.2724,-0.4304 0.81721,-4.73962 0.81721,-5.43663 0.2724,-0.67492 0.2724,0.23841 0.27241,0.39158 1.08961,4.11119 0.8172,1.10862 0.54481,-0.25627 0.54481,-0.91899 0.5448,-1.82992 0.54481,-2.90456 0.5448,-2.75693 0.2724,0.23541 0.54481,-2.28031 1.90682,-8.35477 0.2724,-0.84854 0.27241,-0.40798 0.2724,-0.0568 1.08961,-4.46139 1.36201,-8.0897 0.27241,-0.4151 0.2724,0.60638 0.5448,2.36579 1.08961,7.17188 0.27241,0.612 1.08961,4.74014 0.2724,1.07138 0.2724,0.47873 0.27241,-0.39181 0.5448,-2.00592 0.2724,-1.91779 0.54481,-7.81741 0.81721,-5.34898 0.2724,-0.50226 0.54481,-5.01528 0.5448,-3.61495 1.08961,-9.44899 0.81721,-2.99209 0.2724,-0.64162 0.27241,0.12723 0.2724,0.52223 0.81721,2.57235 0.5448,0.98396 0.81721,1.09107 0.54481,0.76047 0.2724,1.19244 0.54481,3.29348 1.63441,6.77224 1.08961,7.99912 0.81721,6.24804 0.54481,3.33427 0.8172,3.24821 0.81721,1.64527 0.27241,-0.10598 0.2724,-0.40357 0.2724,1.27251 0.54481,4.48333 1.08961,11.69556 1.08961,11.69159 0.5448,3.69521 0.54481,1.48448 0.2724,-0.65873 0.27241,0.21498 0.2724,-0.83882 0.81721,-7.51626 0.5448,-5.52896 0.81721,-6.47778 1.36201,-13.38902 1.63442,-14.96074 1.08961,-6.50387 0.81721,-4.04808 1.36201,-5.611 0.54481,-1.78222 0.5448,-1.01038 1.08961,-0.51111 0.54481,0.85426 0.54481,1.37082 0.5448,0.5319 1.08961,3.27235 1.36202,5.01053 0.8172,4.07221 0.54481,4.21795 0.54481,3.74341 0.2724,0.85221 0.2724,0.4116 0.81721,-3.38036 0.2724,-2.26047 0.81721,-9.17892 0.81721,-6.44744 1.36201,-10.68184 0.81721,-3.77756 0.2724,-0.97914 0.54481,-2.54607 0.54481,-1.34917 0.5448,-0.98438 0.2724,-0.015 0.54481,-0.87735 0.2724,-0.36091 0.54481,0.0815 0.2724,0.50601 0.5448,2.51217 0.81721,4.85699 2.45163,16.67697 2.72402,22.51066 1.08962,10.82275 0.2724,1.34708 0.5448,4.8672 0.81721,6.22847 0.54481,2.61567 0.2724,0.69707 0.2724,0.004 0.54481,0.5497 0.2724,-0.36175 0.54481,-2.18657 0.2724,-1.88782 0.2724,-1.0752 0.54481,-1.06744 0.81721,-0.86847 0.2724,-0.0442 0.5448,-0.76978 0.27241,-0.77115 0.5448,-0.569 0.27241,0.38083 0.5448,-0.79989 0.2724,0.4321 0.27241,0.0402 0.5448,-0.33943 0.54481,0.53004 0.5448,0.515 0.27241,-0.0682 0.5448,-0.78047 0.54481,-1.2017 0.2724,-1.31411 0.2724,-0.64667 0.81721,-1.07233 0.54481,-1.29752 0.2724,-0.9316 0.81721,-4.27314 0.8172,-6.39611 0.81721,-7.54744 0.81721,-5.42642 1.08961,-4.05582 1.08961,-3.57298 0.27241,0.041 0.5448,-0.78166 0.2724,0.0148 0.54481,0.67562 0.2724,0.47052 0.27241,0.73421 0.8172,3.11002 1.36202,3.67595 0.5448,3.36204 0.54481,5.12716 1.63441,20.80983 0.81721,9.35636 0.54481,4.49614 0.2724,1.05818 0.2724,0.27816 0.27241,0.0629 0.5448,-0.39651 0.2724,-0.20146 0.27241,-0.41556 0.2724,-0.15172 0.2724,0.27735 0.27241,1.40524 0.2724,0.55053 0.81721,3.90033 0.5448,3.1278 0.54481,1.51027 0.2724,-0.48607 0.2724,-0.23764 0.27241,-0.70646 1.36201,-8.06014 0.2724,-1.21989 0.81721,-2.05552 0.2724,-0.99997 0.54481,-0.77766 0.54481,-3.50037 0.5448,-4.97969 0.81721,-11.4759 0.5448,-8.16244 0.54481,-4.46291 0.5448,-1.36735 0.27241,-0.0793 0.5448,-0.99456 0.27241,-0.002 0.2724,-0.80781 0.81721,-3.37443 0.5448,-1.2938 0.54481,-0.44309 0.2724,-0.14628 0.2724,-0.85243 0.27241,-2.02403 0.2724,-1.16599 0.5448,-3.80799 1.36202,-5.00016 0.2724,-0.53522 0.54481,-1.42642 0.2724,-0.29927 0.2724,-0.0145 0.2724,-0.1916 0.54481,-1.75463 0.81721,-2.44137 0.2724,-0.40434 0.2724,0.56961 0.27241,1.05422 1.08961,7.45214 0.5448,6.31566 0.81721,6.13171 0.2724,0.91304 0.27241,1.58308 0.2724,0.85845 0.2724,-0.0234 0.54481,-0.2754 0.5448,-1.27646 1.08961,-4.19958 0.27241,0.0652 0.5448,-1.74338 0.81721,-4.10967 0.54481,-3.4043 0.5448,-2.92637 0.54481,-4.21762 0.81721,-6.13579 0.8172,-8.08213 0.54481,-4.14485 0.5448,-3.05809 0.27241,-1.03718 0.5448,-3.04806 0.27241,-0.49451 1.63441,-5.04492 0.54481,-0.534104 0.2724,-0.79615 0.2724,-1.222744 0.27241,-1.856656 0.2724,-1.018972 2.72403,-16.279573 1.08961,-5.934739 0.5448,-5.171512 0.54481,-6.230239 0.5448,-2.040189 0.27241,0.614301 0.2724,2.241743 0.54481,7.370057 0.2724,4.841064 0.5448,12.651499 2.17922,39.785694 0.81721,11.1725 0.81721,9.49542 0.54481,5.19495 0.8172,8.62069 0.27241,2.05549 0.81721,3.1169 0.2724,0.65166 0.2724,-0.0387 0.2724,-0.27198 0.27241,-0.0779 0.2724,0.16386 0.81721,3.0375 1.08961,4.79682 0.2724,0.71355 0.2724,0.11566 0.27241,0.39269 0.2724,-0.0954 0.2724,-0.33788 0.27241,0.41483 0.2724,1.07035 0.81721,6.40385 0.8172,7.76732 0.54481,2.87711 0.2724,0.43674 0.54481,1.80735 0.2724,-0.0596 0.2724,0.22299 0.27241,-1.21392 0.2724,-0.27108 0.2724,-1.62226 0.54481,-4.63356 0.2724,-3.69172 0.54481,-3.69978 1.08961,-11.87258 1.08961,-9.10945 1.08961,-5.5635 0.81721,-3.03547 0.2724,-0.70011 0.2724,-0.14298 1.08961,2.31853 0.54481,1.21837 0.2724,0.27208 0.2724,-0.17106 0.27241,0.15906 0.5448,-0.3701 0.27241,-0.0354 0.2724,0.0858 0.5448,-0.28178 0.27241,-1.45964 0.2724,0.2118 0.2724,-0.42229 0.2724,-0.012 0.27241,0.66688 0.81721,-0.93604 0.5448,0.43553 0.54481,1.00805 0.81721,2.69578 0.8172,3.00883 0.54481,1.98498 0.5448,3.18793 0.27241,1.19331 0.2724,0.42321 0.2724,-0.49628 0.2724,0.0985 0.27241,0.63623 0.2724,2.65081 0.2724,-0.72638 0.27241,0.37542 0.2724,-0.63331 0.2724,-0.0473 0.2724,-0.79517 0.54481,-0.39315 0.54481,-2.00785 0.2724,-2.52009 0.5448,-1.65555 0.27241,-0.31443 0.5448,-1.68914 1.08961,-5.14989 0.27241,-0.32295 0.8172,-1.68804 0.27241,0.1234 0.5448,-1.47542 0.54481,-1.67847 0.5448,-1.21649 0.27241,-0.24049 0.2724,0.59743 0.2724,0.17219 0.2724,-0.0807 0.54481,-2.45057 0.2724,-1.29253 0.2724,-0.24794 0.54481,-2.65063 0.54481,-1.77334 0.2724,-1.06691 0.2724,-0.49324 0.2724,-0.0851 0.81721,-1.03515 0.2724,-0.33675 0.27241,0.12457 0.2724,-0.27488 0.2724,-0.54139 0.27241,-1.32498 0.2724,-0.33991 0.81721,-2.11529 0.5448,-2.98358 0.27241,-0.28632 0.8172,6.12627 2.72403,33.80184 0.54481,5.45896 0.2724,1.54719 0.2724,0.80068 0.81721,5.70801 0.81721,2.97453 0.2724,0.98396 0.2724,0.20003 0.27241,-0.10371 0.2724,0.39741 0.2724,-0.33305 1.63442,-6.0247 0.2724,-0.30253 0.2724,0.0889 0.27241,1.10016 0.8172,5.04753 0.54481,1.88992 0.81721,0.70992 0.2724,-0.0835 0.54481,-0.77751 1.90682,-6.03558 0.2724,-0.46282 0.54481,1.0776 0.5448,0.90429 1.08961,1.65365 0.81721,0.92468 0.2724,-0.0857 0.81721,-1.44552 1.36201,-6.76832 1.08961,-5.78873 1.08962,-5.38522 2.72402,-17.69004 0.54481,-5.11412 0.5448,-4.9656 0.81721,-4.66723 0.54481,-2.68718 0.5448,-1.28401 0.27241,-0.2714 0.2724,-0.11161 0.2724,0.21614 0.2724,0.0456 0.54481,-0.27855 0.2724,-0.042 0.27241,0.37151 0.2724,0.88636 0.2724,0.48939 0.81721,2.30019 0.5448,2.35771 0.54481,3.8793 0.54481,5.05162 1.08961,12.64854 1.63441,24.93043 1.36202,21.5837 0.5448,5.48806 0.27241,1.8398 0.5448,1.70766 0.81721,1.65071 0.2724,0.23752 0.2724,-0.22261 0.27241,-0.46845 0.2724,-0.21826 0.2724,0.28792 1.08961,2.42838 0.27241,-0.20496 0.2724,-0.0149 0.2724,0.11066 0.2724,-0.0561 0.54481,0.37843 0.2724,-1.17803 0.27241,-0.23359 0.2724,-2.15021 0.5448,-2.37334 1.08961,-6.22666 0.27241,0.13094 0.2724,0.32714 0.54481,-0.84628 0.2724,-0.67052 0.5448,-0.34094 0.27241,-0.51418 0.5448,-2.00685 0.81721,-3.38568 0.2724,-1.55297 0.27241,-0.23889 0.2724,0.16153 0.2724,-0.82255 0.2724,-0.4599 0.54481,-2.93819 0.54481,-2.77488 0.2724,-0.19811 0.5448,-3.8337 1.36202,-10.52987 0.81721,-11.22116 0.8172,-11.22592 0.81721,-7.67863 0.54481,-2.28039 0.5448,-1.03583 0.81721,-2.06921 0.2724,0.0632 0.27241,-0.22909 0.2724,0.16075 1.08961,-1.08958 1.08961,-2.01938 0.2724,-0.73891 0.81721,-3.04781 0.54481,-0.92854 0.2724,-0.44745 0.54481,-2.0053 0.8172,-3.75838 0.54481,-1.73632 0.2724,-1.28475 0.27241,-0.63457 0.2724,-1.87382 0.2724,-0.37575 0.2724,-0.0649 1.08961,1.78596 0.27241,1.0243 0.2724,-5.147 H 414.72 v 0"
         style="fill:none;stroke:#ff0000;stroke-width:1.5;stroke-linecap:square;stroke-linejoin:round;stroke-miterlimit:10;stroke-dasharray:none;stroke-opacity:1"
         id="path318" /></g><g
       id="g16"
       transform="matrix(0.56299696,0,0,0.56299696,5.525016,145.38881)"><g
         id="g18"
         clip-path="url(#clipPath22)"><path
           d="M 57.6,38.016 V 304.128"
           style="fill:none;stroke:#b0b0b0;stroke-width:0.8;stroke-linecap:square;stroke-linejoin:round;stroke-miterlimit:10;stroke-dasharray:none;stroke-opacity:1"
           id="path24" /></g></g><path
       d="m 37.953641,166.7917 v -1.97048"
       style="fill:#000000;fill-opacity:1;fill-rule:nonzero;stroke:#000000;stroke-width:0.450397;stroke-linecap:butt;stroke-linejoin:round;stroke-miterlimit:10;stroke-dasharray:none;stroke-opacity:1"
       id="path28" /><g
       id="g34"
       transform="matrix(0.56299696,0,0,0.56299696,5.525016,145.38881)"><g
         id="g36"
         clip-path="url(#clipPath40)"><path
           d="M 112.08055,38.016 V 304.128"
           style="fill:none;stroke:#b0b0b0;stroke-width:0.8;stroke-linecap:square;stroke-linejoin:round;stroke-miterlimit:10;stroke-dasharray:none;stroke-opacity:1"
           id="path42" /></g></g><path
       d="m 68.626025,166.7917 v -1.97048"
       style="fill:#000000;fill-opacity:1;fill-rule:nonzero;stroke:#000000;stroke-width:0.450397;stroke-linecap:butt;stroke-linejoin:round;stroke-miterlimit:10;stroke-dasharray:none;stroke-opacity:1"
       id="path46" /><g
       id="g52"
       transform="matrix(0.56299696,0,0,0.56299696,5.525016,145.38881)"><g
         id="g54"
         clip-path="url(#clipPath58)"><path
           d="M 166.5611,38.016 V 304.128"
           style="fill:none;stroke:#b0b0b0;stroke-width:0.8;stroke-linecap:square;stroke-linejoin:round;stroke-miterlimit:10;stroke-dasharray:none;stroke-opacity:1"
           id="path60" /></g></g><path
       d="m 99.298409,166.7917 v -1.97048"
       style="fill:#000000;fill-opacity:1;fill-rule:nonzero;stroke:#000000;stroke-width:0.450397;stroke-linecap:butt;stroke-linejoin:round;stroke-miterlimit:10;stroke-dasharray:none;stroke-opacity:1"
       id="path64" /><g
       id="g70"
       transform="matrix(0.56299696,0,0,0.56299696,5.525016,145.38881)"><g
         id="g72"
         clip-path="url(#clipPath76)"><path
           d="M 221.04165,38.016 V 304.128"
           style="fill:none;stroke:#b0b0b0;stroke-width:0.8;stroke-linecap:square;stroke-linejoin:round;stroke-miterlimit:10;stroke-dasharray:none;stroke-opacity:1"
           id="path78" /></g></g><path
       d="m 129.97079,166.7917 v -1.97048"
       style="fill:#000000;fill-opacity:1;fill-rule:nonzero;stroke:#000000;stroke-width:0.450397;stroke-linecap:butt;stroke-linejoin:round;stroke-miterlimit:10;stroke-dasharray:none;stroke-opacity:1"
       id="path82" /><g
       id="g88"
       transform="matrix(0.56299696,0,0,0.56299696,5.525016,145.38881)"><g
         id="g90"
         clip-path="url(#clipPath94)"><path
           d="M 275.5222,38.016 V 304.128"
           style="fill:none;stroke:#b0b0b0;stroke-width:0.8;stroke-linecap:square;stroke-linejoin:round;stroke-miterlimit:10;stroke-dasharray:none;stroke-opacity:1"
           id="path96" /></g></g><path
       d="m 160.64318,166.7917 v -1.97048"
       style="fill:#000000;fill-opacity:1;fill-rule:nonzero;stroke:#000000;stroke-width:0.450397;stroke-linecap:butt;stroke-linejoin:round;stroke-miterlimit:10;stroke-dasharray:none;stroke-opacity:1"
       id="path100" /><g
       id="g106"
       transform="matrix(0.56299696,0,0,0.56299696,5.525016,145.38881)"><g
         id="g108"
         clip-path="url(#clipPath112)"><path
           d="M 330.00275,38.016 V 304.128"
           style="fill:none;stroke:#b0b0b0;stroke-width:0.8;stroke-linecap:square;stroke-linejoin:round;stroke-miterlimit:10;stroke-dasharray:none;stroke-opacity:1"
           id="path114" /></g></g><path
       d="m 191.31556,166.7917 v -1.97048"
       style="fill:#000000;fill-opacity:1;fill-rule:nonzero;stroke:#000000;stroke-width:0.450397;stroke-linecap:butt;stroke-linejoin:round;stroke-miterlimit:10;stroke-dasharray:none;stroke-opacity:1"
       id="path118" /><g
       id="g124"
       transform="matrix(0.56299696,0,0,0.56299696,5.525016,145.38881)"><g
         id="g126"
         clip-path="url(#clipPath130)"><path
           d="M 384.48329,38.016 V 304.128"
           style="fill:none;stroke:#b0b0b0;stroke-width:0.8;stroke-linecap:square;stroke-linejoin:round;stroke-miterlimit:10;stroke-dasharray:none;stroke-opacity:1"
           id="path132" /></g></g><path
       d="m 221.98793,166.7917 v -1.97048"
       style="fill:#000000;fill-opacity:1;fill-rule:nonzero;stroke:#000000;stroke-width:0.450397;stroke-linecap:butt;stroke-linejoin:round;stroke-miterlimit:10;stroke-dasharray:none;stroke-opacity:1"
       id="path136" /><g
       id="g146"
       transform="matrix(0.56299696,0,0,0.56299696,5.525016,145.38881)"><g
         id="g148"
         clip-path="url(#clipPath152)"><path
           d="M 57.6,73.042018 H 414.72"
           style="fill:none;stroke:#b0b0b0;stroke-width:0.8;stroke-linecap:square;stroke-linejoin:round;stroke-miterlimit:10;stroke-dasharray:none;stroke-opacity:1"
           id="path154" /></g></g><path
       d="M 37.953641,186.51124 H 35.983152"
       style="fill:#000000;fill-opacity:1;fill-rule:nonzero;stroke:#000000;stroke-width:0.450397;stroke-linecap:butt;stroke-linejoin:round;stroke-miterlimit:10;stroke-dasharray:none;stroke-opacity:1"
       id="path158" /><g
       id="g160"
       transform="matrix(0.56299696,0,0,0.56299696,20.342393,184.37362)"><g
         id="g166"
         transform="scale(0.01)"><g
           id="g168"><g
             id="g170"
             clip-path="url(#clipPath174)"><path
               d="M 106,355 H 732 V 272 H 106 v 83"
               style="fill:#000000;fill-opacity:1;fill-rule:nonzero;stroke:none"
               id="path176" /></g></g></g></g><g
       id="g178"
       transform="matrix(0.56299696,0,0,0.56299696,5.525016,145.38881)"><g
         id="g180"
         clip-path="url(#clipPath184)"><path
           d="M 57.6,111.0134 H 414.72"
           style="fill:none;stroke:#b0b0b0;stroke-width:0.8;stroke-linecap:square;stroke-linejoin:round;stroke-miterlimit:10;stroke-dasharray:none;stroke-opacity:1"
           id="path186" /></g></g><path
       d="M 37.953641,207.88902 H 35.983152"
       style="fill:#000000;fill-opacity:1;fill-rule:nonzero;stroke:#000000;stroke-width:0.450397;stroke-linecap:butt;stroke-linejoin:round;stroke-miterlimit:10;stroke-dasharray:none;stroke-opacity:1"
       id="path190" /><g
       id="g196"
       transform="matrix(0.56299696,0,0,0.56299696,5.525016,145.38881)"><g
         id="g198"
         clip-path="url(#clipPath202)"><path
           d="M 57.6,148.98478 H 414.72"
           style="fill:none;stroke:#b0b0b0;stroke-width:0.8;stroke-linecap:square;stroke-linejoin:round;stroke-miterlimit:10;stroke-dasharray:none;stroke-opacity:1"
           id="path204" /></g></g><path
       d="M 37.953641,229.26679 H 35.983152"
       style="fill:#000000;fill-opacity:1;fill-rule:nonzero;stroke:#000000;stroke-width:0.450397;stroke-linecap:butt;stroke-linejoin:round;stroke-miterlimit:10;stroke-dasharray:none;stroke-opacity:1"
       id="path208" /><g
       id="g214"
       transform="matrix(0.56299696,0,0,0.56299696,5.525016,145.38881)"><g
         id="g216"
         clip-path="url(#clipPath220)"><path
           d="M 57.6,186.95617 H 414.72"
           style="fill:none;stroke:#b0b0b0;stroke-width:0.8;stroke-linecap:square;stroke-linejoin:round;stroke-miterlimit:10;stroke-dasharray:none;stroke-opacity:1"
           id="path222" /></g></g><path
       d="M 37.953641,250.64457 H 35.983152"
       style="fill:#000000;fill-opacity:1;fill-rule:nonzero;stroke:#000000;stroke-width:0.450397;stroke-linecap:butt;stroke-linejoin:round;stroke-miterlimit:10;stroke-dasharray:none;stroke-opacity:1"
       id="path226" /><g
       id="g232"
       transform="matrix(0.56299696,0,0,0.56299696,5.525016,145.38881)"><g
         id="g234"
         clip-path="url(#clipPath238)"><path
           d="M 57.6,224.92755 H 414.72"
           style="fill:none;stroke:#b0b0b0;stroke-width:0.8;stroke-linecap:square;stroke-linejoin:round;stroke-miterlimit:10;stroke-dasharray:none;stroke-opacity:1"
           id="path240" /></g></g><path
       d="M 37.953641,272.02234 H 35.983152"
       style="fill:#000000;fill-opacity:1;fill-rule:nonzero;stroke:#000000;stroke-width:0.450397;stroke-linecap:butt;stroke-linejoin:round;stroke-miterlimit:10;stroke-dasharray:none;stroke-opacity:1"
       id="path244" /><g
       id="g250"
       transform="matrix(0.56299696,0,0,0.56299696,5.525016,145.38881)"><g
         id="g252"
         clip-path="url(#clipPath256)"><path
           d="M 57.6,262.89893 H 414.72"
           style="fill:none;stroke:#b0b0b0;stroke-width:0.8;stroke-linecap:square;stroke-linejoin:round;stroke-miterlimit:10;stroke-dasharray:none;stroke-opacity:1"
           id="path258" /></g></g><path
       d="M 37.953641,293.40011 H 35.983152"
       style="fill:#000000;fill-opacity:1;fill-rule:nonzero;stroke:#000000;stroke-width:0.450397;stroke-linecap:butt;stroke-linejoin:round;stroke-miterlimit:10;stroke-dasharray:none;stroke-opacity:1"
       id="path262" /><g
       id="g270"
       clip-path="url(#clipPath274)"
       transform="matrix(0.56299696,0,0,0.56299696,5.525016,145.38881)"><path
         d="M 57.6,300.87032 H 414.72"
         style="fill:none;stroke:#b0b0b0;stroke-width:0.8;stroke-linecap:square;stroke-linejoin:round;stroke-miterlimit:10;stroke-dasharray:none;stroke-opacity:1"
         id="path276" /></g><path
       d="M 37.953641,314.77789 H 35.983152"
       style="fill:#000000;fill-opacity:1;fill-rule:nonzero;stroke:#000000;stroke-width:0.450397;stroke-linecap:butt;stroke-linejoin:round;stroke-miterlimit:10;stroke-dasharray:none;stroke-opacity:1"
       id="path280" /><path
       d="m 37.800279,308.61167 0.153362,0.0148 0.306724,-0.19572 0.306723,0.27372 0.153362,-0.0552 0.153362,-0.23596 0.153362,-0.092 0.153362,-0.21627 0.153362,-0.0268 0.306724,-0.47627 0.306724,-0.89148 0.153361,0.17144 0.153362,0.31234 0.153363,0.0898 0.153361,-0.0354 0.153362,-0.14655 0.306724,0.38422 0.153363,-0.21379 0.15336,-0.0517 0.153363,0.14103 0.306723,0.3934 0.306725,0.4352 0.153361,-0.34286 0.153363,0.0589 0.153361,-0.0365 0.153362,-0.3081 0.153362,-0.002 0.153362,-0.51147 0.153361,0.0101 0.306725,0.0974 0.460085,0.0912 0.306725,-0.0155 0.306723,-0.006 0.153362,0.21537 0.460086,0.19322 0.460086,-0.44959 0.306724,0.2279 0.460086,0.11623 0.306723,-0.11834 0.153363,0.25488 0.15336,0.0727 0.613449,-0.19137 0.460085,0.11274 0.306724,-0.21706 0.153362,0.0397 0.306724,0.2705 0.306723,-0.003 0.153363,0.0161 0.153362,-0.0978 0.153362,0.4414 0.306723,0.0149 0.153363,-0.26047 0.153362,-0.0497 0.153361,0.0484 0.153363,-0.0513 0.306723,-0.3185 0.153361,0.0431 0.306725,-0.32288 0.153361,-0.0467 0.306724,0.14212 0.153362,0.27255 0.306723,-0.12917 0.153363,0.28941 0.153362,0.61215 0.153362,0.0176 0.153362,0.2258 0.306724,0.0573 0.153362,-0.15776 0.306723,0.065 0.153363,-0.41269 0.306723,-0.0562 0.153362,0.13928 0.153362,0.0461 0.153362,-0.0461 0.153362,0.0519 0.153362,-0.037 0.306723,0.17065 0.153363,0.10457 0.153361,-0.16384 0.153362,-0.0574 0.153363,-0.12478 0.306723,-0.5124 0.153361,-0.0532 0.153363,-0.14473 0.153362,-0.44733 0.153361,0.17151 0.153363,-0.17096 0.153362,0.19123 0.153361,0.0547 0.306724,-0.13729 0.153362,-0.19812 0.153362,-0.0759 0.306725,0.0259 0.153361,0.20338 0.306724,-0.56694 0.306723,0.0876 0.153363,-0.0878 0.153362,0.0632 0.153361,-0.0692 0.460086,-0.43186 0.153362,-0.0401 0.153362,-0.28849 0.153362,-0.12387 0.306724,0.0217 0.306723,-0.47731 0.153363,-0.023 0.306723,0.1627 0.306724,-0.0692 0.153363,-0.0409 0.306722,0.093 0.306726,-0.0632 0.153362,0.0355 0.153359,-0.12645 0.153366,-0.26437 0.153361,-0.0134 0.15336,0.22321 0.153361,-0.1165 0.153366,0.0815 0.15336,0.15689 0.15336,0.0371 0.15336,-0.39168 0.306727,-1.28243 0.460087,-1.46958 0.153359,0.0145 0.460088,1.72519 0.30672,0.46614 0.153367,0.77729 0.15336,0.16239 0.306727,0.52852 0.46008,0.21308 0.153366,-0.31232 0.613447,0.71072 0.153361,0.17575 0.153361,0.0547 0.306726,0.38313 0.15336,0.47674 0.306727,-0.37688 0.15336,-0.0429 0.30672,0.16383 0.153367,0.12663 0.153359,9.9e-4 0.306727,0.15226 0.15336,0.044 0.153362,-0.10374 0.153359,0.0308 0.153367,-0.14772 0.15336,0.0253 0.15336,-0.0873 0.153361,0.15487 0.153365,-0.46387 0.153361,0.0409 0.306726,0.32988 0.153361,-0.16202 0.153359,0.008 0.153361,-0.22644 0.153366,0.0238 0.15336,-0.83756 0.920175,0.18417 0.613446,0.58745 0.153361,-0.1133 0.15336,0.1609 0.153366,-0.041 0.15336,0.11489 0.153361,-0.0112 0.15336,0.22967 0.306726,-0.23561 0.460087,0.10661 0.153361,0.11664 0.153361,-0.12162 0.153365,0.0526 0.153361,-0.0231 0.153359,0.14411 0.153361,-0.0925 0.306726,0.0725 0.460087,-0.81248 0.306721,0.12536 0.306727,-0.0536 0.460086,0.38836 0.153361,-0.0339 0.15336,-0.10257 0.15336,-0.006 0.613453,0.1927 0.15336,-0.2564 0.15336,0.15002 0.613448,-0.0367 0.15336,-0.10555 0.153367,-0.29155 0.153359,0.0264 0.153361,0.27177 0.460087,-0.20027 0.153359,0.12997 0.306728,0.0444 0.153359,-0.0825 0.153362,0.33737 0.306726,-0.0339 0.306725,-0.64255 0.306722,-0.17413 0.15336,-0.30107 0.766813,-0.54969 0.15336,-0.0139 0.153361,-0.0858 0.613447,-0.70661 0.306726,-0.59216 0.153361,0.0738 0.306726,-0.0809 0.30672,-0.44249 0.153367,0.18885 0.153361,0.0356 0.30672,-0.24309 0.306726,0.77276 0.153362,-0.0509 0.153364,-0.19536 0.306722,-0.5208 0.15336,0.14209 0.153366,-0.068 0.15336,-0.16347 0.153361,0.0324 0.15336,0.52246 0.153366,0.12287 0.15336,-0.37105 0.153361,-0.91173 0.153366,-0.28776 0.15336,0.009 0.15336,-0.20169 0.15336,0.13697 0.306727,-0.11731 0.460087,0.006 0.153361,-0.0831 0.153359,0.38759 0.153367,-0.15884 0.30672,-0.0242 0.153361,0.0207 0.306726,-0.0974 0.153361,-0.22675 0.153365,-0.11006 0.153361,-0.003 0.15336,-0.24652 0.306727,0.25193 0.15336,0.52084 0.306721,-0.16795 0.153366,0.22884 0.15336,1.00593 0.15336,0.26254 0.153367,0.49334 0.15336,0.14475 0.15336,0.41991 0.306727,0.16081 0.15336,-0.14199 0.15336,0.07 0.153361,0.69985 0.153365,-0.0755 0.153362,0.01 0.15336,-0.15362 0.153365,0.13625 0.153362,-0.15353 0.153359,0.15727 0.153361,0.29054 0.153365,0.0902 0.153361,-0.65764 0.460087,-0.28349 0.15336,0.15851 0.460086,1.3495 0.460087,-0.0309 0.153362,-0.25067 0.153359,0.0788 0.306727,0.45846 0.15336,0.47163 0.15336,0.10295 0.153367,0.45733 0.15336,0.78465 0.30672,0.20048 0.153366,-0.0142 0.153361,-0.39328 0.15336,0.0415 0.460087,-0.2183 0.766801,-0.15649 0.30673,-0.0872 0.92018,-0.0422 0.15335,-0.13936 0.4601,-0.0253 0.15335,-0.11144 0.46009,-0.76033 0.30672,-0.0226 0.15337,-0.1566 0.15336,0.0317 0.15335,-0.0355 0.15337,0.21217 0.15336,0.0987 0.15337,-0.13851 0.15335,0.10189 0.30672,0.42266 0.30673,0.0937 0.15337,-0.11334 0.15336,0.0148 0.15336,-0.29711 0.15337,0.50464 0.30671,-0.003 0.15337,0.29646 0.46008,-1.11803 0.30672,-0.032 0.15337,0.16866 0.30673,0.0599 0.30672,-0.62538 0.15336,-0.41656 0.15336,-0.0829 0.15336,0.11529 0.15336,-0.0713 0.15336,-0.29408 0.15338,-0.0426 0.15335,0.51848 0.15337,0.12635 0.15335,0.28713 0.46009,0.22772 0.15336,0.23017 0.30673,-0.17483 0.15335,-0.0273 0.46009,-0.55071 0.15336,-0.27849 0.30674,0.067 0.92017,0.10898 0.15335,-0.0465 0.30673,0.0881 0.15336,-0.0587 0.30672,-0.27002 0.30673,-0.22502 0.15336,-0.27321 0.15336,0.12047 0.15336,0.0189 0.15337,-0.0695 0.15335,0.019 0.30673,-0.28047 0.15337,0.14936 0.15334,-0.0962 0.30674,0.52893 0.15336,0.0769 0.15337,-0.53896 0.15335,-0.007 0.61346,-0.38406 0.15335,0.2259 0.15337,-0.0983 0.15336,0.0982 0.15337,-0.49911 0.15334,0.16597 0.15337,-0.33441 0.30673,0.24726 0.15336,0.40822 0.15336,0.10563 0.15337,0.39999 0.15335,0.11619 0.15336,0.25618 0.15336,-0.12217 0.15337,-0.0139 0.15337,0.12916 0.46007,0.60418 0.15337,0.0862 0.15336,0.20976 0.30672,0.14577 0.15337,0.11905 0.15337,-0.12425 0.15334,-0.0153 0.15337,0.3689 0.15336,0.15598 0.15337,0.50169 0.15336,-0.21867 0.30672,-0.0844 0.30673,0.12059 0.15336,-0.0764 0.30672,0.0926 0.15337,0.2215 0.30671,0.11321 0.15337,-0.006 0.15336,-0.30157 0.15337,-0.0233 0.15335,-0.33477 0.46009,0.0973 0.30672,0.18809 0.15337,-0.10411 0.30672,0.0301 0.15336,-0.0935 0.15336,-0.22489 0.15336,0.078 0.15336,-0.16643 0.15338,0.10437 0.46008,0.86365 0.61344,0.10326 0.30673,0.0253 0.15336,0.44764 0.30672,0.27494 0.15336,-0.0105 0.15336,-0.0917 0.15337,-0.26427 0.15337,-0.0588 0.30672,-0.45042 0.30672,-0.17034 0.15335,0.37836 0.4601,-0.21037 0.30672,-0.52113 0.30672,-0.20593 0.46009,0.10506 0.15337,0.28345 0.15335,-0.15932 0.15337,-0.47503 0.30672,-0.0807 0.15336,0.14376 0.15337,-0.002 0.15335,-0.30342 0.30673,-0.13514 0.15336,0.014 0.15336,0.0884 0.15337,-0.0967 0.15336,0.0855 0.30671,-0.0114 0.30673,0.39748 0.15337,-2.6e-4 0.15336,0.20393 0.15337,-0.1452 0.15335,0.13529 0.46009,0.0197 0.30672,0.38773 0.30673,0.0315 0.30671,-0.008 0.15337,0.17444 0.15337,-0.11912 0.30672,0.13394 0.15336,-0.082 0.61344,-0.72189 0.30674,-0.37231 0.15336,0.14636 0.15335,0.0204 0.30673,-0.11577 0.15336,0.0583 0.30673,0.21975 0.15336,0.37003 0.15336,0.13626 0.15335,-0.006 0.30673,-0.96156 0.15337,0.0567 0.30672,0.41731 0.15337,0.49811 0.15335,0.19571 0.30672,0.0782 0.30673,-0.10671 0.15337,-0.17964 0.46008,-0.0371 0.15336,-0.0853 0.30672,-0.0648 0.15337,-0.257 0.46008,0.21954 0.15336,-0.30799 0.15337,-0.13875 0.92017,-0.0896 0.15336,-0.28408 0.15336,-0.4872 0.15337,-0.0405 0.30671,-0.15833 0.30673,0.0743 0.15337,-0.0417 0.15335,0.0851 0.15337,-0.23557 0.15336,-0.0921 0.15336,-0.17893 0.15335,-0.90517 0.30673,-0.49156 0.4601,-0.35203 0.15335,0.1144 0.15336,0.32848 0.15337,0.0149 0.15336,0.12162 0.7668,-0.0427 0.15337,-0.0257 0.46008,-1.13381 0.30673,-0.60072 0.15336,0.38488 0.15336,0.86872 0.15336,0.31759 0.30673,-0.16952 0.15336,0.24106 0.15337,-0.1065 0.15335,-0.4137 0.15337,0.18366 0.30673,1.06926 0.15335,0.13476 0.15337,-0.0272 0.15334,0.16058 1.07354,0.5353 0.15337,-0.25603 0.15337,-0.0371 0.15335,0.0727 0.30673,-0.01 0.15337,-0.10226 0.15335,-0.18271 0.15337,0.1103 0.30672,-0.20509 0.15336,0.48237 0.15337,0.13053 0.15336,-0.28346 0.30672,-0.28452 0.46009,-0.52126 0.15336,-0.0711 0.15337,0.0166 0.15335,-0.12158 0.15336,0.55011 0.15336,0.94482 0.15337,0.24379 0.30672,0.0548 0.15337,0.12088 0.15336,-0.0326 0.15335,0.0597 0.15336,-0.10073 0.15337,-0.19579 0.15336,-0.59118 0.46009,-0.4491 0.46009,0.24597 0.30672,0.37813 0.15336,0.0277 0.15337,-0.26045 0.15335,-0.63624 0.15336,-0.26984 0.30673,-0.0363 0.15336,-0.64891 0.15336,-0.16532 0.15337,-0.56687 0.15335,-0.97652 0.46009,-0.68397 0.15337,-0.19375 0.15336,0.0106 0.30671,-0.22186 0.15337,-0.0325 0.15337,-0.46162 0.15335,-0.0844 0.15337,0.0481 0.15336,0.29465 0.15337,0.14946 0.30671,0.0728 0.15336,0.22025 0.30674,0.0637 0.15335,-0.21497 0.15337,0.1396 0.15335,-0.0343 0.15337,-0.32737 0.15335,0.23205 0.15337,-0.16388 0.15337,0.12571 0.30673,1.06393 0.15334,-0.11715 0.15337,0.0387 0.15336,-3.01014 0.30672,0.22697 0.15337,-1.59731 0.15337,0.54889 0.30671,0.40124 0.61345,0.94682 0.15337,-0.45091 0.15336,-0.0142 0.61344,0.90169 0.15337,-0.15156 0.30673,-0.99056 0.15335,-0.40298 0.30673,0.78698 0.15336,-0.064 0.15336,0.005 0.15336,-0.0701 0.15337,0.14845 0.76681,1.23601 0.15335,0.57161 0.30672,1.87265 0.15337,0.25861 0.15336,0.73379 0.76681,1.5491 0.46008,0.19858 0.15338,-0.14984 0.30672,0.071 0.15335,0.0314 0.30672,-0.0658 0.15337,0.007 0.30673,-0.20565 0.15336,0.0602 0.30672,0.28498 0.30672,-0.36573 0.15337,0.12113 0.30673,0.004 0.15334,0.16462 0.15338,0.0298 0.15335,0.40215 0.15337,-0.0208 0.15335,0.045 0.15338,-0.12194 0.15336,0.0891 0.61344,-0.31025 0.46009,0.28654 0.15335,-0.0304 0.15337,0.42767 0.30673,-0.2854 0.30672,0.0819 0.15336,0.27195 0.15336,0.0627 0.15336,-0.14091 0.15337,-0.31811 0.15336,0.0364 0.15336,-0.11719 0.15337,-0.1989 0.30671,0.008 0.30673,-0.63312 0.15337,-0.147 0.30672,-0.0684 0.46007,-0.88514 0.30674,-1.43289 0.15336,0.12178 0.15336,0.0417 0.30673,1.09494 0.15335,-0.13078 0.30672,0.0787 0.15337,0.0185 0.15337,0.16773 0.15336,0.003 0.76681,-0.8771 0.15336,0.13068 0.15336,-0.0245 0.15337,-0.12102 0.15335,-0.041 0.15336,0.0264 0.30673,-0.10188 0.30672,-0.13442 0.30672,-0.0596 0.15337,0.06 0.15336,-0.1096 0.15336,-0.2983 0.4601,-0.3238 0.15334,-0.22098 0.15337,0.063 0.15336,-0.10055 0.15337,-0.1821 0.15335,-0.40003 0.15337,-0.12559 0.15336,-0.35674 0.15336,-0.0179 0.15336,0.42665 0.15336,-0.11526 0.15337,0.24127 0.15336,-0.58343 0.15337,0.0546 0.30671,-0.32045 0.15337,-0.0797 0.15336,0.1027 0.15337,0.003 0.15335,0.0774 0.15337,0.15475 0.15336,0.0521 0.15336,-0.0962 0.15335,0.3006 0.15337,0.0653 0.15337,-0.11806 0.46008,-2.09031 0.15336,0.31838 0.15336,0.54812 0.15336,0.24727 0.15337,-0.41922 0.15336,-0.72967 0.15337,-0.20335 0.15335,-1.06612 0.15337,-0.091 0.15335,0.54596 0.15337,-0.39006 0.15335,0.16598 0.30674,0.45282 0.15336,0.69583 0.15336,0.34529 0.15336,-0.12242 0.46009,0.41708 0.15336,-0.0991 0.15336,-0.21325 0.76681,0.79842 0.15336,-0.0224 0.15337,-0.11113 0.15336,0.0252 0.15336,-0.0975 0.30672,0.9672 0.15336,0.76144 0.15337,0.0371 0.15336,0.34484 0.30671,1.16497 0.15338,0.11066 0.15335,0.20484 0.15337,0.0503 0.15336,0.33621 0.15337,0.13546 0.61344,-0.0489 0.15336,-0.0345 0.15336,0.44782 0.46008,0.35651 0.15337,0.12258 0.15336,0.21351 0.15337,0.0213 0.15335,0.11824 0.15338,-0.0768 0.46007,0.11214 0.30673,0.37261 0.15336,0.53091 0.15337,0.28614 0.15336,0.12059 0.15335,0.041 0.30673,0.22966 0.15336,0.0881 0.15336,-0.21325 0.30673,-0.0976 0.46008,0.45624 0.15336,0.46071 0.15337,0.0694 0.15336,0.3265 0.46008,0.3334 0.30673,-0.22806 0.15336,0.0307 0.46009,0.88763 1.07353,0.15572 0.15336,0.10286 0.15336,-0.1963 0.30673,0.24934 0.15336,-0.19866 0.46008,-0.24803 0.15337,0.17601 0.15336,0.0366 0.30672,-0.10746 0.30673,0.0658 0.30672,0.0427 0.15336,0.004 0.15337,0.0914 0.61344,-0.13508 0.15336,-0.0798 0.15336,0.0926 0.15337,0.38781 0.15336,0.19597 0.15337,-0.0614 0.15336,-0.24884 0.15335,-0.0903 0.15336,-0.24512 0.15337,-0.0143 0.30672,-0.5907 0.15337,0.0521 0.30672,-0.14586 0.76681,0.91535 0.15336,0.054 0.46008,-0.1852 0.15337,0.0961 0.46009,-0.38127 0.30671,0.39787 0.15337,0.16301 0.15336,0.0208 0.15337,0.15228 0.15335,-0.15822 0.15337,0.0796 0.15336,-0.20343 0.15336,-0.30757 0.15336,-0.0788 0.15336,0.0632 0.15337,-0.0467 0.30672,-0.21706 0.76682,-0.42548 0.15335,-0.38505 0.15337,0.007 0.30672,-0.0909 0.46008,0.0699 0.30673,0.045 0.15335,-0.052 0.15337,-0.18782 0.15336,-0.0508 0.15336,0.0367 0.30673,-0.0616 0.15337,0.0493 0.7668,-0.2084 0.30673,0.0842 0.30671,-0.13707 0.30673,-0.25451 0.15336,0.0616 0.76681,-0.72021 0.30672,-0.59463 0.15337,-0.16345 0.15337,-0.3561 0.15336,-0.19618 0.15335,-0.30835 0.46009,-0.12046 0.15336,-0.11447 0.46009,-1.16963 0.30672,0.18613 0.30673,-0.18136 0.15336,-0.14417 0.15337,-0.46436 0.15335,0.34253 0.15336,-0.0259 0.30673,-0.55037 0.15336,-0.0463 0.15336,0.19184 0.15337,0.0672 0.15335,0.34299 0.15336,0.0948 0.4601,-0.0185 0.15335,0.73606 0.15337,-0.2344 0.30672,-0.23885 0.30672,-0.81932 0.30673,-0.17868 0.15337,0.0879 0.30671,0.89404 0.92017,0.57011 0.15337,0.18973 0.15335,-0.13777 0.30673,-0.036 0.15337,0.0481 0.46008,0.42879 0.15336,0.007 0.15337,0.45425 0.15335,0.15194 0.15337,-0.0574 0.15337,0.0442 0.15335,-0.47769 0.30672,0.29834 0.15337,-0.0259 0.15336,0.0692 0.15336,-0.23995 0.15336,0.42144 0.15336,-0.012 0.15337,0.2421 0.15335,0.005 0.15337,-0.16141 0.15336,-0.0299 0.15337,0.17734 0.15335,0.93776 0.15337,0.16078 0.15336,-1.15112 0.15336,-0.0833 0.30673,0.33662 0.15336,0.10096 0.15336,0.18485 0.15337,-0.0953 0.15335,0.10821 0.15336,-0.0914 0.30673,0.0616 0.15337,0.0543 0.15335,-0.31758 0.15337,-0.1141 0.30672,-0.45257 0.15336,-0.0634 0.15336,-0.22737 0.15337,0.21375 0.15336,-0.15523 0.15336,-0.0421 0.15336,0.0298 0.15336,-0.24341 0.15336,-96.81089 h 7.36137 v 0"
       style="fill:none;stroke:#7efa00;stroke-width:0.844495;stroke-linecap:square;stroke-linejoin:round;stroke-miterlimit:10;stroke-dasharray:none;stroke-opacity:1"
       id="path298" /><g
       id="g302"
       clip-path="url(#clipPath306)"
       transform="matrix(0.56299696,0,0,0.56299696,5.525016,145.38881)"><path
         d="m 57.327597,126.26775 0.817208,-1.94068 0.272403,-0.13608 0.817208,-1.73269 0.272403,-0.3863 0.544806,0.65979 0.272402,0.31528 0.544806,-0.073 0.272403,0.88049 1.089611,5.8078 1.089611,6.60426 0.817208,5.72627 0.817208,2.30555 0.272403,1.42727 1.634416,14.35707 0.817209,6.05275 0.817208,3.95594 0.544805,2.50047 0.544806,0.86974 0.272403,-0.0339 0.272402,0.11831 0.272403,-0.67282 0.272403,-1.12658 0.544805,-0.49029 0.272403,0.6547 0.272403,-0.32988 0.817208,-2.15658 0.272403,0.3506 0.272403,-0.71068 0.272402,0.32041 0.272403,-0.60652 0.272403,-1.27568 0.272403,-0.49619 0.272402,0.9014 0.272403,0.15513 0.272403,-0.20278 0.544805,-1.08752 0.544806,-2.07242 0.817208,-4.27233 0.544805,-4.50926 1.089611,-18.7846 0.544806,-11.42029 0.544805,-7.02544 1.634417,-14.30652 0.817208,-4.713247 0.272403,-0.309832 0.272403,0.302481 0.272402,-0.266843 0.817209,1.639841 0.272402,0.57606 1.089611,3.49341 0.817209,3.6042 0.544805,1.98751 0.817208,4.35154 0.544806,2.47285 0.544805,1.15898 0.272403,-0.15661 0.272403,0.16818 0.544805,-0.37148 0.272403,-0.48475 0.272403,-1.1841 0.272403,-0.50927 0.272402,0.78827 0.272403,0.0525 0.272403,-0.23214 0.272403,1.09688 0.272402,0.4452 0.272403,0.0219 0.272403,0.37848 0.272402,0.16584 0.272403,-0.33884 0.544806,-1.33574 0.272402,-0.34897 0.544806,-1.02329 0.544805,-0.65564 0.544806,1.15278 0.544805,1.02289 0.272403,0.18713 0.544806,-0.0133 0.272402,-0.42941 0.272403,-1.00287 0.272403,-1.51652 0.272403,-0.57682 0.272402,-0.85807 0.544806,-3.22016 0.817208,-5.15799 0.272403,-0.76385 0.817207,-4.370672 0.54481,-2.025587 0.5448,-1.053758 0.27241,0.0019 0.2724,0.446632 0.2724,0.01104 0.2724,-0.352386 0.81721,-2.757114 0.2724,-0.01215 0.54481,0.519674 0.2724,-0.132208 0.2724,0.392803 0.27241,0.933057 0.81721,3.848314 0.8172,1.827065 1.36202,4.17689 2.17922,14.07814 0.2724,3.84905 0.27241,0.74731 0.5448,4.1664 0.81721,7.90271 0.5448,2.03233 0.54481,2.06558 0.2724,0.75475 0.27241,0.38127 0.5448,0.42878 0.81721,2.22512 0.2724,0.38164 1.08961,3.95202 0.27241,0.14337 0.5448,2.05603 0.2724,0.32697 0.27241,0.63753 0.2724,1.19306 0.2724,0.20968 0.27241,0.75342 1.08961,5.88546 0.5448,3.72946 0.54481,2.91387 0.2724,0.83869 0.2724,-0.0348 0.27241,0.41609 0.5448,-0.2754 0.54481,0.1038 0.2724,-0.36736 0.2724,0.76358 0.27241,1.16146 0.5448,1.53568 0.54481,1.2894 0.2724,-0.0491 0.2724,0.22461 0.2724,0.0623 0.27241,1.27871 0.81721,7.60135 0.2724,3.27818 0.5448,3.25818 0.27241,0.0932 0.2724,-0.19859 0.2724,0.17055 0.2724,-0.36292 0.27241,0.2052 0.2724,-0.55525 0.2724,-0.2292 0.2724,-0.38967 0.27241,0.0572 0.2724,0.30614 0.54481,1.21931 0.2724,1.37805 0.5448,4.217 0.54481,5.31365 0.5448,3.07501 0.27241,0.50191 0.2724,0.94031 0.2724,0.46494 0.27241,-1.18178 1.36201,-11.26097 0.2724,-1.6622 0.2724,-0.20086 0.81721,-2.38365 0.54481,-0.22196 0.2724,-0.71289 0.2724,-1.41292 0.54481,-4.4818 0.54481,-7.65575 0.8172,-11.47431 0.27241,-2.09308 0.5448,-1.94353 0.2724,-0.0121 0.27241,0.0998 1.36201,-7.86684 0.54481,-4.6891 1.63441,-16.35751 0.54481,-3.13383 0.5448,-0.57282 0.27241,0.39917 0.2724,-0.24157 0.5448,-1.18913 0.54481,-10.29436 0.81721,-4.93453 0.2724,0.90288 0.2724,-2.52026 0.27241,-0.50705 0.2724,0.0333 0.2724,-0.38879 0.2724,-0.91168 0.54481,-3.1502 0.2724,-1.36222 0.27241,-0.280686 0.5448,-1.039447 0.2724,-1.20673 0.27241,-0.537184 0.2724,0.131362 0.54481,0.720169 0.2724,-0.303279 0.5448,1.874315 0.27241,1.00051 2.17922,12.04482 0.81721,4.17767 0.5448,1.66508 1.36202,8.70546 0.8172,4.08459 0.54481,2.16503 0.5448,2.74845 1.08962,5.76681 0.5448,1.64947 0.2724,0.55527 0.54481,1.77883 0.81721,1.13864 0.5448,1.87739 0.81721,6.16932 0.2724,1.33416 0.54481,1.05848 0.2724,-1.06296 0.27241,0.54862 0.2724,-0.75986 0.2724,-1.91417 0.2724,-0.49233 0.27241,-3.70405 0.2724,-2.18669 0.2724,-0.96148 0.2724,0.21727 0.27241,0.47767 0.2724,0.22235 0.54481,-1.26294 0.5448,-1.12743 0.54481,-1.71298 1.36201,-5.98704 0.2724,-0.52137 0.27241,-0.27242 0.8172,-1.3616 0.81721,-0.24069 0.2724,-0.55674 0.54481,0.25682 0.2724,-0.30483 0.81721,-1.2055 0.2724,-0.32681 0.54481,0.0836 0.2724,-0.5959 0.2724,-0.17947 0.54481,0.2564 0.2724,-0.0185 0.54481,1.02049 0.2724,0.54293 1.08961,0.91305 0.27241,0.38372 0.2724,0.72115 0.5448,1.981 0.27241,0.56968 0.2724,0.14321 0.2724,0.005 0.2724,0.34649 0.27241,-0.55161 0.2724,0.0311 0.2724,-0.10122 0.54481,-0.83246 0.2724,0.0518 0.2724,-0.64751 0.27241,0.17877 0.2724,1.25769 0.2724,0.55758 0.81721,-2.5024 0.2724,-0.0887 1.08961,-4.56244 0.27241,-0.66517 0.2724,-0.25117 0.81721,-1.16777 0.5448,-0.14031 0.54481,-0.24005 0.2724,0.23412 0.81721,1.20482 0.2724,1.04988 0.54481,0.18858 0.81721,-0.77548 0.5448,0.6202 0.81721,0.16588 0.2724,0.28628 0.27241,-0.19054 0.2724,0.0216 0.2724,0.21206 0.2724,0.63987 0.54481,0.24745 0.2724,-0.22942 0.54481,0.54536 0.81721,1.98658 0.8172,2.34238 0.27241,0.35035 1.08961,3.11767 0.5448,1.50433 0.27241,0.18682 0.5448,0.0842 0.81721,6.30102 1.36201,10.35541 0.54481,2.1892 0.2724,0.0529 0.2724,-0.51622 0.27241,0.81472 0.81721,1.06675 0.2724,0.0722 0.2724,-0.21791 0.2724,0.10258 0.27241,-0.52791 1.08961,-4.21962 0.5448,-1.0325 0.27241,0.79544 0.2724,-0.2266 0.2724,-0.37886 0.2724,0.71115 0.27241,-0.14605 1.36201,-3.24748 0.2724,-0.1855 0.27241,0.0287 0.5448,0.75788 0.2724,0.17805 0.27241,1.02512 0.2724,-0.0666 0.2724,0.41077 0.2724,-0.13539 0.27241,-0.27686 0.5448,-1.3213 1.08961,-3.71879 0.27241,0.27633 0.2724,0.0743 0.5448,-0.51789 0.54481,-1.43715 0.81721,-3.07146 0.2724,-0.64101 0.54481,-2.33486 0.5448,-2.43533 0.27241,-0.50894 0.8172,-2.61095 0.27241,-0.0767 0.5448,-0.78463 0.81721,-0.87983 0.2724,-0.39886 0.27241,-0.097 0.2724,-0.61507 0.2724,-0.27786 0.2724,-0.47041 0.27241,-0.22034 0.5448,-1.10534 0.2724,-0.85376 0.27241,-0.31415 0.2724,9.5e-4 0.2724,-0.53575 1.08961,1.71406 0.27241,0.87323 0.2724,0.17312 0.2724,0.33405 0.54481,4.16752 0.81721,13.18215 0.8172,15.06219 0.54481,5.82085 0.5448,4.13124 1.08962,6.41649 0.8172,4.93687 0.27241,0.0165 0.2724,0.39769 0.2724,1.04504 0.27241,0.42666 0.8172,-4.29759 0.27241,-1.01682 0.5448,-3.287 0.54481,-2.76287 0.5448,-4.41041 0.27241,-2.05531 0.5448,-5.17224 0.81721,-6.62659 0.54481,-3.49256 0.5448,-2.1714 0.2724,-1.13781 0.27241,-0.35734 0.8172,-2.58405 0.27241,-0.35414 0.2724,-0.0255 0.2724,-0.42064 0.2724,-0.70811 0.27241,-0.29226 0.5448,-1.86317 1.36202,-8.17175 1.08961,-5.92226 0.2724,-0.88946 0.2724,-1.29721 0.27241,-1.97008 0.2724,-0.75347 0.5448,-1.89594 1.08962,-3.9357 0.5448,-1.438 1.08961,-3.0136 0.81721,-3.31069 1.36201,-3.68463 0.27241,-0.17661 0.5448,0.80006 0.2724,-0.22883 0.27241,0.15937 0.2724,1.04796 0.2724,0.52225 0.27241,1.06325 0.2724,-1.10523 0.2724,0.16397 0.2724,-1.20736 0.27241,2.55817 1.08961,5.30398 0.5448,2.47948 0.27241,0.77323 0.2724,0.35745 0.2724,-0.031 0.2724,-0.20236 0.27241,0.63441 0.2724,-0.55115 1.08961,-5.07836 0.2724,-1.72804 0.27241,-0.87893 0.2724,-0.42064 0.2724,-1.50427 0.2724,-2.60579 0.81721,-3.83648 0.54481,-1.75872 0.2724,-0.67465 0.54481,-0.87744 0.8172,-2.43176 0.27241,-0.42016 0.2724,-1.48479 0.2724,-0.363061 0.27241,1.354591 0.2724,-0.52395 0.2724,-0.23049 1.36201,-2.646152 0.54481,-1.258878 0.2724,-1.015795 1.90682,-11.202484 0.54481,-2.477485 0.81721,-5.958876 1.63441,-12.825861 0.81721,-10.051378 0.2724,-3.024135 0.27241,0.966509 0.2724,3.042514 0.54481,10.522787 1.08961,23.027581 1.90681,25.806723 0.81721,9.22241 1.63442,24.14517 0.5448,9.39183 0.27241,2.62176 0.2724,1.47182 0.2724,2.39862 0.27241,0.65502 0.2724,0.17386 0.2724,0.94258 0.54481,2.58451 1.08961,4.25882 0.2724,0.81778 0.2724,1.39086 0.27241,0.17082 0.2724,-0.77292 0.2724,0.54473 0.2724,-0.33067 0.54481,1.40693 0.81721,3.0882 0.2724,-0.77979 0.2724,1.33964 0.81721,-2.60223 0.2724,0.49035 0.27241,-1.00773 0.2724,-0.15822 0.2724,-0.81201 0.27241,0.31944 0.2724,-0.22497 0.2724,-0.75338 0.2724,-0.0787 0.27241,-1.83979 0.2724,-0.47553 0.81721,-7.73324 0.2724,-3.50265 0.2724,-0.005 0.27241,-0.58632 0.8172,-4.71929 0.27241,-1.22745 0.2724,-1.8908 0.81721,-2.45206 1.36201,-5.01867 0.2724,-0.0624 0.27241,-1.41645 0.5448,-0.79348 0.54481,0.0618 0.5448,-0.31327 0.27241,-0.1084 0.2724,-0.23771 0.5448,-1.10503 0.27241,0.11886 0.81721,-1.15869 0.2724,0.20624 0.5448,-0.11408 0.27241,-0.47089 0.2724,0.2909 0.2724,0.0861 0.54481,0.77108 0.2724,-0.8709 0.54481,-3.89677 0.2724,0.33787 0.2724,0.0733 1.08961,1.12017 0.27241,0.0716 0.5448,0.33961 0.2724,-0.0668 0.27241,0.46836 0.2724,-0.004 0.5448,-0.80184 0.27241,-0.86883 0.8172,-5.95682 0.27241,-0.25793 0.2724,4.05128 0.2724,-2.55223 0.27241,0.86823 0.2724,-1.38769 0.2724,-0.78043 0.54481,-4.43525 0.2724,-1.45821 1.08961,-11.4999 0.2724,-1.0265 0.27241,-0.32014 1.63441,-6.44744 0.27241,0.10407 0.2724,-0.46408 0.2724,-0.69184 0.2724,-1.47899 0.27241,0.27413 0.2724,0.0231 0.2724,-0.97375 0.2724,-1.612342 0.54481,-1.658879 0.54481,-2.032585 0.2724,-0.645039 0.2724,0.181208 0.2724,0.574135 0.54481,2.05618 0.2724,0.420192 0.2724,0.06737 0.27241,-0.412455 0.5448,0.330152 0.27241,-0.303616 0.2724,-0.549564 0.2724,-0.213868 0.2724,0.213519 0.27241,-0.06419 0.8172,2.579852 0.54481,2.12193 0.54481,0.40876 0.2724,0.42227 0.5448,0.0904 0.54481,1.32263 0.54481,1.14584 0.2724,-0.72421 0.5448,1.20187 0.27241,1.66662 0.2724,0.47524 1.63442,8.42837 0.2724,3.42414 0.2724,1.82649 0.54481,6.43222 0.5448,5.00282 0.54481,4.16574 0.2724,0.69121 0.2724,0.19665 0.27241,1.28063 0.2724,0.55214 0.5448,3.00422 1.08961,7.59479 0.27241,1.65052 0.2724,0.50069 0.54481,1.75114 0.2724,0.40391 0.2724,-0.70586 0.2724,-1.21436 0.27241,-0.24184 0.2724,-0.0694 0.2724,0.3209 0.2724,-0.25415 0.81721,-0.19258 0.27241,-0.18631 0.2724,-0.0379 1.36201,-2.28409 0.27241,-0.44157 0.2724,0.26746 0.5448,0.29657 1.36202,2.31318 0.81721,-0.40765 0.2724,-0.30229 0.5448,-1.33018 0.27241,0.082 0.2724,-0.74937 0.5448,-2.25042 0.54481,-2.10209 1.36201,-7.24554 0.54481,-2.58773 0.2724,-0.59025 0.2724,-0.19878 0.54481,0.58434 0.2724,-0.27843 1.63442,-4.24333 0.5448,-2.81226 0.27241,0.21476 0.2724,-0.0844 0.54481,-1.53598 0.8172,-3.54575 0.54481,-0.96029 0.2724,-0.18642 0.27241,-0.45193 0.2724,-0.0779 0.2724,-0.29435 0.54481,-1.63117 0.2724,-0.55803 0.2724,-0.12564 0.2724,0.16989 0.27241,-0.25525 0.2724,0.27284 0.54481,-0.83555 0.2724,-0.41294 0.5448,-0.0118 0.27241,0.34288 0.2724,0.68738 0.81721,4.95775 1.36201,7.72751 0.81721,3.39119 0.54481,4.08931 0.5448,5.94444 0.81721,10.4268 0.54481,8.52972 0.5448,5.74577 0.54481,3.38795 0.5448,2.09559 1.08961,6.24188 0.54481,2.88515 0.2724,0.56105 0.2724,0.0547 0.27241,-0.14675 0.2724,-0.79708 0.2724,-0.30286 0.2724,-0.67009 0.54481,-3.6975 0.2724,-1.11905 0.81721,-6.03219 0.2724,-4.23115 0.27241,-1.55195 0.2724,-4.67553 1.36201,-6.93349 0.54481,-1.72919 0.81721,-2.63206 0.5448,-2.43193 0.2724,-0.34595 0.81721,-1.98027 0.54481,-2.55118 0.5448,-2.87654 0.27241,-0.28914 0.2724,-0.52785 0.5448,-2.96728 0.27241,-1.67837 0.5448,-5.36234 0.54481,-5.08966 1.36201,-7.06627 0.54481,-2.35762 0.5448,-3.859 0.54481,-4.06487 1.36201,-5.94712 1.08961,-2.300048 0.27241,-0.02141 0.2724,0.419926 0.2724,-0.128142 1.08961,2.978484 0.54481,2.35652 0.81721,4.05263 1.08961,5.47295 0.2724,1.13643 0.81721,5.78115 0.2724,1.38544 0.81721,5.88046 0.2724,-0.016 0.54481,-0.76335 0.2724,-1.01909 0.2724,-0.11258 0.27241,-0.58313 0.8172,-2.48565 0.27241,0.35106 0.2724,-0.21308 0.5448,-0.70899 0.27241,0.22608 0.2724,0.8935 0.2724,-12.70859 H 414.72 v 0"
         style="fill:none;stroke:#0000ff;stroke-width:1.5;stroke-linecap:square;stroke-linejoin:round;stroke-miterlimit:10;stroke-dasharray:none;stroke-opacity:1"
         id="path308" /></g><path
       d="M 37.953641,166.7917 V 316.61195"
       style="fill:none;stroke:#000000;stroke-width:0.450397;stroke-linecap:square;stroke-linejoin:miter;stroke-miterlimit:10;stroke-dasharray:none;stroke-opacity:1"
       id="path322" /><path
       d="M 239.01111,166.7917 V 316.61195"
       style="fill:none;stroke:#000000;stroke-width:0.450397;stroke-linecap:square;stroke-linejoin:miter;stroke-miterlimit:10;stroke-dasharray:none;stroke-opacity:1"
       id="path324" /><path
       d="M 37.953641,166.7917 H 239.01111"
       style="fill:none;stroke:#000000;stroke-width:0.450397;stroke-linecap:square;stroke-linejoin:miter;stroke-miterlimit:10;stroke-dasharray:none;stroke-opacity:1"
       id="path326" /><path
       d="M 37.953641,316.61195 H 239.01111"
       style="fill:none;stroke:#000000;stroke-width:0.450397;stroke-linecap:square;stroke-linejoin:miter;stroke-miterlimit:10;stroke-dasharray:none;stroke-opacity:1"
       id="path328" /><path
       d="m 42.440659,169.6067 h 97.931401 c 1.1147,0 1.67203,0.38796 1.67203,1.16385 v 25.03214 c 0,0.77592 -0.55733,1.16387 -1.67203,1.16387 H 42.440659 c -1.114686,0 -1.672031,-0.38795 -1.672031,-1.16387 v -25.03214 c 0,-0.77589 0.557345,-1.16385 1.672031,-1.16385 z"
       style="fill:#ffffff;fill-opacity:0.8;fill-rule:nonzero;stroke:#cccccc;stroke-width:0.562997;stroke-linecap:butt;stroke-linejoin:miter;stroke-miterlimit:10;stroke-dasharray:none;stroke-opacity:0.8"
       id="path338" /><path
       d="m 43.020613,182.45285 h 11.25994"
       style="fill:none;stroke:#7efa00;stroke-width:0.844495;stroke-linecap:square;stroke-linejoin:round;stroke-miterlimit:10;stroke-dasharray:none;stroke-opacity:1"
       id="path340" /><path
       d="m 43.020613,190.71307 h 11.25994"
       style="fill:none;stroke:#0000ff;stroke-width:0.844495;stroke-linecap:square;stroke-linejoin:round;stroke-miterlimit:10;stroke-dasharray:none;stroke-opacity:1"
       id="path346" /><path
       d="m 43.020613,174.19263 h 11.25994"
       style="fill:none;stroke:#ff0000;stroke-width:0.844495;stroke-linecap:square;stroke-linejoin:round;stroke-miterlimit:10;stroke-dasharray:none;stroke-opacity:1"
       id="path352" /></g><g
     inkscape:groupmode="layer"
     id="layer1"
     inkscape:label="text"
     transform="translate(-16.857292,-17.206424)"><text
       style="font-variant:normal;font-weight:normal;font-size:7.50663px;font-family:'DejaVu Sans';-inkscape-font-specification:DejaVuSans;writing-mode:lr-tb;fill:#000000;fill-opacity:1;fill-rule:nonzero;stroke:none;stroke-width:0.750663"
       id="text32"
       x="45.831108"
       y="249.36606"><tspan
         x="45.831108 50.60532"
         y="249.36606"
         sodipodi:role="line"
         id="tspan30"
         style="stroke-width:0.750663">14</tspan></text><text
       style="font-variant:normal;font-weight:normal;font-size:7.50663px;font-family:'DejaVu Sans';-inkscape-font-specification:DejaVuSans;writing-mode:lr-tb;fill:#000000;fill-opacity:1;fill-rule:nonzero;stroke:none;stroke-width:0.750663"
       id="text50"
       x="86.727615"
       y="249.36606"><tspan
         x="86.727615 91.501831"
         y="249.36606"
         sodipodi:role="line"
         id="tspan48"
         style="stroke-width:0.750663">16</tspan></text><text
       style="font-variant:normal;font-weight:normal;font-size:7.50663px;font-family:'DejaVu Sans';-inkscape-font-specification:DejaVuSans;writing-mode:lr-tb;fill:#000000;fill-opacity:1;fill-rule:nonzero;stroke:none;stroke-width:0.750663"
       id="text68"
       x="127.62412"
       y="249.36606"><tspan
         x="127.62412 132.39835"
         y="249.36606"
         sodipodi:role="line"
         id="tspan66"
         style="stroke-width:0.750663">18</tspan></text><text
       style="font-variant:normal;font-weight:normal;font-size:7.50663px;font-family:'DejaVu Sans';-inkscape-font-specification:DejaVuSans;writing-mode:lr-tb;fill:#000000;fill-opacity:1;fill-rule:nonzero;stroke:none;stroke-width:0.750663"
       id="text86"
       x="168.52063"
       y="249.36606"><tspan
         x="168.52063 173.29485"
         y="249.36606"
         sodipodi:role="line"
         id="tspan84"
         style="stroke-width:0.750663">20</tspan></text><text
       style="font-variant:normal;font-weight:normal;font-size:7.50663px;font-family:'DejaVu Sans';-inkscape-font-specification:DejaVuSans;writing-mode:lr-tb;fill:#000000;fill-opacity:1;fill-rule:nonzero;stroke:none;stroke-width:0.750663"
       id="text104"
       x="209.41713"
       y="249.36606"><tspan
         x="209.41713 214.19138"
         y="249.36606"
         sodipodi:role="line"
         id="tspan102"
         style="stroke-width:0.750663">22</tspan></text><text
       style="font-variant:normal;font-weight:normal;font-size:7.50663px;font-family:'DejaVu Sans';-inkscape-font-specification:DejaVuSans;writing-mode:lr-tb;fill:#000000;fill-opacity:1;fill-rule:nonzero;stroke:none;stroke-width:0.750663"
       id="text122"
       x="250.31367"
       y="249.36606"><tspan
         x="250.31367 255.08786"
         y="249.36606"
         sodipodi:role="line"
         id="tspan120"
         style="stroke-width:0.750663">24</tspan></text><text
       style="font-variant:normal;font-weight:normal;font-size:7.50663px;font-family:'DejaVu Sans';-inkscape-font-specification:DejaVuSans;writing-mode:lr-tb;fill:#000000;fill-opacity:1;fill-rule:nonzero;stroke:none;stroke-width:0.750663"
       id="text140"
       x="291.21017"
       y="249.36606"><tspan
         x="291.21017 295.98438"
         y="249.36606"
         sodipodi:role="line"
         id="tspan138"
         style="stroke-width:0.750663">26</tspan></text><text
       style="font-variant:normal;font-weight:normal;font-size:7.50663px;font-family:'DejaVu Sans';-inkscape-font-specification:DejaVuSans;writing-mode:lr-tb;fill:#000000;fill-opacity:1;fill-rule:nonzero;stroke:none;stroke-width:0.750663"
       id="text144"
       x="140.77046"
       y="259.62903"><tspan
         x="140.77046 145.53717 150.15375 154.91295 159.50699 166.81845 168.90529 173.03392 175.42105 180.18776 184.7818 188.69275 190.7796 193.72218 195.80904 200.40309 205.16229 207.54939 210.07913 212.46625 218.94446 223.71115"
         y="259.62903"
         sodipodi:role="line"
         id="tspan142"
         style="stroke-width:0.750663">genomic position / Mbp</tspan></text><text
       style="font-variant:normal;font-weight:normal;font-size:7.50663px;font-family:'DejaVu Sans';-inkscape-font-specification:DejaVuSans;writing-mode:lr-tb;fill:#000000;fill-opacity:1;fill-rule:nonzero;stroke:none;stroke-width:0.750663"
       id="text164"
       x="33.412922"
       y="214.96851"><tspan
         x="33.412922 38.187134 40.574242"
         y="214.96851"
         sodipodi:role="line"
         id="tspan162"
         style="stroke-width:0.750663">0.2</tspan></text><text
       style="font-variant:normal;font-weight:normal;font-size:7.50663px;font-family:'DejaVu Sans';-inkscape-font-specification:DejaVuSans;writing-mode:lr-tb;fill:#000000;fill-opacity:1;fill-rule:nonzero;stroke:none;stroke-width:0.750663"
       id="text194"
       x="33.409988"
       y="186.46483"><tspan
         x="33.409988 38.1842 40.571308"
         y="186.46483"
         sodipodi:role="line"
         id="tspan192"
         style="stroke-width:0.750663">0.0</tspan></text><text
       style="font-variant:normal;font-weight:normal;font-size:7.50663px;font-family:'DejaVu Sans';-inkscape-font-specification:DejaVuSans;writing-mode:lr-tb;fill:#000000;fill-opacity:1;fill-rule:nonzero;stroke:none;stroke-width:0.750663"
       id="text212"
       x="33.409988"
       y="157.96112"><tspan
         x="33.409988 38.1842 40.571308"
         y="157.96112"
         sodipodi:role="line"
         id="tspan210"
         style="stroke-width:0.750663">0.2</tspan></text><text
       style="font-variant:normal;font-weight:normal;font-size:7.50663px;font-family:'DejaVu Sans';-inkscape-font-specification:DejaVuSans;writing-mode:lr-tb;fill:#000000;fill-opacity:1;fill-rule:nonzero;stroke:none;stroke-width:0.750663"
       id="text230"
       x="33.409988"
       y="129.45744"><tspan
         x="33.409988 38.1842 40.571308"
         y="129.45744"
         sodipodi:role="line"
         id="tspan228"
         style="stroke-width:0.750663">0.4</tspan></text><text
       style="font-variant:normal;font-weight:normal;font-size:7.50663px;font-family:'DejaVu Sans';-inkscape-font-specification:DejaVuSans;writing-mode:lr-tb;fill:#000000;fill-opacity:1;fill-rule:nonzero;stroke:none;stroke-width:0.750663"
       id="text248"
       x="33.409988"
       y="100.95372"><tspan
         x="33.409988 38.1842 40.571308"
         y="100.95372"
         sodipodi:role="line"
         id="tspan246"
         style="stroke-width:0.750663">0.6</tspan></text><text
       style="font-variant:normal;font-weight:normal;font-size:7.50663px;font-family:'DejaVu Sans';-inkscape-font-specification:DejaVuSans;writing-mode:lr-tb;fill:#000000;fill-opacity:1;fill-rule:nonzero;stroke:none;stroke-width:0.750663"
       id="text266"
       x="33.409988"
       y="72.450043"><tspan
         x="33.409988 38.1842 40.571308"
         y="72.450043"
         sodipodi:role="line"
         id="tspan264"
         style="stroke-width:0.750663">0.8</tspan></text><text
       style="font-variant:normal;font-weight:normal;font-size:7.50663px;font-family:'DejaVu Sans';-inkscape-font-specification:DejaVuSans;writing-mode:lr-tb;fill:#000000;fill-opacity:1;fill-rule:nonzero;stroke:none;stroke-width:0.750663"
       id="text284"
       x="33.409988"
       y="43.946346"><tspan
         x="33.409988 38.1842 40.571308"
         y="43.946346"
         sodipodi:role="line"
         id="tspan282"
         style="stroke-width:0.750663">1.0</tspan></text><text
       transform="rotate(-90)"
       style="font-variant:normal;font-weight:normal;font-size:7.50663px;font-family:'DejaVu Sans';-inkscape-font-specification:DejaVuSans;writing-mode:lr-tb;fill:#000000;fill-opacity:1;fill-rule:nonzero;stroke:none;stroke-width:0.750663"
       id="text288"
       x="-174.79729"
       y="22.56057"><tspan
         x="-174.79729 -170.2708 -165.65422 -161.05264 -157.96744 -154.05649 -149.46243 -144.70323 -142.31613 -138.18748 -133.59341 -130.50819 -127.42298 -122.80641 -120.71956 -116.11799 -113.1754 -111.08855 -106.49451"
         y="22.56057"
         sodipodi:role="line"
         id="tspan286"
         style="stroke-width:0.750663">Pearson correlation</tspan></text><text
       style="font-variant:normal;font-weight:normal;font-size:9.00795px;font-family:'DejaVu Sans';-inkscape-font-specification:DejaVuSans;writing-mode:lr-tb;fill:#000000;fill-opacity:1;fill-rule:nonzero;stroke:none;stroke-width:0.750663"
       id="text332"
       x="93.191345"
       y="24.050354"><tspan
         x="93.191345 98.623138 104.16303 109.68489 113.38718 118.08031 123.59316 129.30421 132.16875 137.12312 142.63597 146.33826 150.04053 155.58041 158.08463 163.60649 167.13763 169.64183 175.15469 180.86574 183.73026 189.06297 193.75612 196.62064 199.48517 205.20522 210.74513 216.45613 221.96902 230.74275 233.24696 238.20135 241.06587 246.78593 252.29878 256.99191 259.49612 263.02725 265.53149 271.04431"
         y="24.050354"
         sodipodi:role="line"
         id="tspan330"
         style="stroke-width:0.750663">Pearson correlation vs. genomic position</tspan></text><text
       style="font-variant:normal;font-weight:normal;font-size:9.00795px;font-family:'DejaVu Sans';-inkscape-font-specification:DejaVuSans;writing-mode:lr-tb;fill:#000000;fill-opacity:1;fill-rule:nonzero;stroke:none;stroke-width:0.750663"
       id="text336"
       x="147.29184"
       y="34.146778"><tspan
         x="147.29184 153.57939 159.29042 162.99271 168.50557 177.27931 182.79218 187.48531 192.99818 201.77193 207.31181 210.17635 215.90541"
         y="34.146778"
         sodipodi:role="line"
         id="tspan334"
         style="stroke-width:0.750663">Chromosome 3R</tspan></text><text
       style="font-variant:normal;font-weight:normal;font-size:7.50661px;font-family:'DejaVu Sans';-inkscape-font-specification:DejaVuSans;writing-mode:lr-tb;fill:#000000;fill-opacity:1;fill-rule:nonzero;stroke:none;stroke-width:0.750661"
       id="text344"
       x="78.379372"
       y="220.15689"><tspan
         x="78.379372 84.024353 86.111198 88.821091 92.949738 98.767365 103.90192 109.51686 111.90395 114.29108 119.06529 123.83951 128.61371 133.23029"
         y="220.15689"
         sodipodi:role="line"
         id="tspan342"
         style="stroke-width:0.750661">Hi-cGAN, 100ep</tspan></text><text
       style="font-variant:normal;font-weight:normal;font-size:7.50661px;font-family:'DejaVu Sans';-inkscape-font-specification:DejaVuSans;writing-mode:lr-tb;fill:#000000;fill-opacity:1;fill-rule:nonzero;stroke:none;stroke-width:0.750661"
       id="text350"
       x="78.379364"
       y="208.89694"><tspan
         x="78.379364 84.15947 89.774422 95.389389 97.776482 100.1636 104.93781 109.71202 114.3286"
         y="208.89694"
         sodipodi:role="line"
         id="tspan348"
         style="stroke-width:0.750661">DNN, 40ep</tspan></text><text
       style="font-variant:normal;font-weight:normal;font-size:7.50663px;font-family:'DejaVu Sans';-inkscape-font-specification:DejaVuSans;writing-mode:lr-tb;fill:#000000;fill-opacity:1;fill-rule:nonzero;stroke:none;stroke-width:0.750663"
       id="text356"
       x="78.379372"
       y="231.17052"><tspan
         sodipodi:role="line"
         id="tspan354"
         x="78.379372"
         y="231.17052"
         style="stroke-width:0.750663">Farre et al. \cite{Farre2018a}, 70ep</tspan></text></g></svg>
