<?xml version="1.0" encoding="UTF-8" standalone="no"?>
<svg
   xmlns:dc="http://purl.org/dc/elements/1.1/"
   xmlns:cc="http://creativecommons.org/ns#"
   xmlns:rdf="http://www.w3.org/1999/02/22-rdf-syntax-ns#"
   xmlns:svg="http://www.w3.org/2000/svg"
   xmlns="http://www.w3.org/2000/svg"
   xmlns:sodipodi="http://sodipodi.sourceforge.net/DTD/sodipodi-0.dtd"
   xmlns:inkscape="http://www.inkscape.org/namespaces/inkscape"
   version="1.1"
   id="svg2"
   xml:space="preserve"
   width="80mm"
   height="65.300003mm"
   viewBox="0 0 302.36219 246.80316"
   sodipodi:docname="pearson_chr3R_comparison_DNN-Hi-cGAN-Farre.svg"
   inkscape:version="1.0.2 (1.0.2+r75+1)"><metadata
     id="metadata8"><rdf:RDF><cc:Work
         rdf:about=""><dc:format>image/svg+xml</dc:format><dc:type
           rdf:resource="http://purl.org/dc/dcmitype/StillImage" /><dc:title></dc:title></cc:Work></rdf:RDF></metadata><defs
     id="defs6"><clipPath
       clipPathUnits="userSpaceOnUse"
       id="clipPath22"><path
         d="M 57.6,38.016 H 414.72 V 304.128 H 57.6 Z"
         id="path20" /></clipPath><clipPath
       clipPathUnits="userSpaceOnUse"
       id="clipPath40"><path
         d="M 57.6,38.016 H 414.72 V 304.128 H 57.6 Z"
         id="path38" /></clipPath><clipPath
       clipPathUnits="userSpaceOnUse"
       id="clipPath58"><path
         d="M 57.6,38.016 H 414.72 V 304.128 H 57.6 Z"
         id="path56" /></clipPath><clipPath
       clipPathUnits="userSpaceOnUse"
       id="clipPath76"><path
         d="M 57.6,38.016 H 414.72 V 304.128 H 57.6 Z"
         id="path74" /></clipPath><clipPath
       clipPathUnits="userSpaceOnUse"
       id="clipPath94"><path
         d="M 57.6,38.016 H 414.72 V 304.128 H 57.6 Z"
         id="path92" /></clipPath><clipPath
       clipPathUnits="userSpaceOnUse"
       id="clipPath112"><path
         d="M 57.6,38.016 H 414.72 V 304.128 H 57.6 Z"
         id="path110" /></clipPath><clipPath
       clipPathUnits="userSpaceOnUse"
       id="clipPath130"><path
         d="M 57.6,38.016 H 414.72 V 304.128 H 57.6 Z"
         id="path128" /></clipPath><clipPath
       clipPathUnits="userSpaceOnUse"
       id="clipPath148"><path
         d="M 57.6,38.016 H 414.72 V 304.128 H 57.6 Z"
         id="path146" /></clipPath><clipPath
       clipPathUnits="userSpaceOnUse"
       id="clipPath166"><path
         d="M 57.6,38.016 H 414.72 V 304.128 H 57.6 Z"
         id="path164" /></clipPath><clipPath
       clipPathUnits="userSpaceOnUse"
       id="clipPath188"><path
         d="M 57.6,38.016 H 414.72 V 304.128 H 57.6 Z"
         id="path186" /></clipPath><clipPath
       clipPathUnits="userSpaceOnUse"
       id="clipPath206"><path
         d="M 57.6,38.016 H 414.72 V 304.128 H 57.6 Z"
         id="path204" /></clipPath><clipPath
       clipPathUnits="userSpaceOnUse"
       id="clipPath224"><path
         d="M 57.6,38.016 H 414.72 V 304.128 H 57.6 Z"
         id="path222" /></clipPath><clipPath
       clipPathUnits="userSpaceOnUse"
       id="clipPath242"><path
         d="M 57.6,38.016 H 414.72 V 304.128 H 57.6 Z"
         id="path240" /></clipPath><clipPath
       clipPathUnits="userSpaceOnUse"
       id="clipPath260"><path
         d="M 57.6,38.016 H 414.72 V 304.128 H 57.6 Z"
         id="path258" /></clipPath><clipPath
       clipPathUnits="userSpaceOnUse"
       id="clipPath278"><path
         d="M 57.6,38.016 H 414.72 V 304.128 H 57.6 Z"
         id="path276" /></clipPath><clipPath
       clipPathUnits="userSpaceOnUse"
       id="clipPath300"><path
         d="M 57.6,38.016 H 414.72 V 304.128 H 57.6 Z"
         id="path298" /></clipPath><clipPath
       clipPathUnits="userSpaceOnUse"
       id="clipPath310"><path
         d="M 57.6,38.016 H 414.72 V 304.128 H 57.6 Z"
         id="path308" /></clipPath><clipPath
       clipPathUnits="userSpaceOnUse"
       id="clipPath320"><path
         d="M 57.6,38.016 H 414.72 V 304.128 H 57.6 Z"
         id="path318" /></clipPath></defs><sodipodi:namedview
     pagecolor="#ffffff"
     bordercolor="#666666"
     borderopacity="1"
     objecttolerance="10"
     gridtolerance="10"
     guidetolerance="10"
     inkscape:pageopacity="0"
     inkscape:pageshadow="2"
     inkscape:window-width="1920"
     inkscape:window-height="1020"
     id="namedview4"
     showgrid="false"
     units="mm"
     fit-margin-top="0"
     fit-margin-left="0"
     fit-margin-right="0"
     fit-margin-bottom="0"
     inkscape:zoom="2.6301672"
     inkscape:cx="155.62883"
     inkscape:cy="130.5628"
     inkscape:window-x="0"
     inkscape:window-y="0"
     inkscape:window-maximized="1"
     inkscape:current-layer="layer1" /><g
     id="g10"
     inkscape:groupmode="layer"
     inkscape:label="pearson_chr3R_comparison_DNN-Hi-cGAN-Farre"
     transform="matrix(1.3333333,0,0,-1.3333333,-28.023958,443.59358)"><path
       d="M 78.77044,292.39018 H 90.26376"
       style="fill:none;stroke:#ff0000;stroke-width:0.861998;stroke-linecap:square;stroke-linejoin:round;stroke-miterlimit:10;stroke-dasharray:none;stroke-opacity:1"
       id="path354" /><g
       id="g16"
       transform="matrix(0.57466584,0,0,0.57466584,8.9396602,142.0056)"><g
         id="g18"
         clip-path="url(#clipPath22)"><path
           d="M 57.6,38.016 V 304.128"
           style="fill:none;stroke:#b0b0b0;stroke-width:0.8;stroke-linecap:square;stroke-linejoin:round;stroke-miterlimit:10;stroke-dasharray:none;stroke-opacity:1"
           id="path24" /></g></g><g
       id="g26"
       transform="matrix(0.57466584,0,0,0.57466584,8.9396602,142.0056)"><path
         d="m 57.6,38.016 v -3.5"
         style="fill:#000000;fill-opacity:1;fill-rule:nonzero;stroke:#000000;stroke-width:0.8;stroke-linecap:butt;stroke-linejoin:round;stroke-miterlimit:10;stroke-dasharray:none;stroke-opacity:1"
         id="path28" /></g><g
       id="g34"
       transform="matrix(0.57466584,0,0,0.57466584,8.9396602,142.0056)"><g
         id="g36"
         clip-path="url(#clipPath40)"><path
           d="M 102.24,38.016 V 304.128"
           style="fill:none;stroke:#b0b0b0;stroke-width:0.8;stroke-linecap:square;stroke-linejoin:round;stroke-miterlimit:10;stroke-dasharray:none;stroke-opacity:1"
           id="path42" /></g></g><g
       id="g44"
       transform="matrix(0.57466584,0,0,0.57466584,8.9396602,142.0056)"><path
         d="m 102.24,38.016 v -3.5"
         style="fill:#000000;fill-opacity:1;fill-rule:nonzero;stroke:#000000;stroke-width:0.8;stroke-linecap:butt;stroke-linejoin:round;stroke-miterlimit:10;stroke-dasharray:none;stroke-opacity:1"
         id="path46" /></g><g
       id="g52"
       transform="matrix(0.57466584,0,0,0.57466584,8.9396602,142.0056)"><g
         id="g54"
         clip-path="url(#clipPath58)"><path
           d="M 146.88,38.016 V 304.128"
           style="fill:none;stroke:#b0b0b0;stroke-width:0.8;stroke-linecap:square;stroke-linejoin:round;stroke-miterlimit:10;stroke-dasharray:none;stroke-opacity:1"
           id="path60" /></g></g><g
       id="g62"
       transform="matrix(0.57466584,0,0,0.57466584,8.9396602,142.0056)"><path
         d="m 146.88,38.016 v -3.5"
         style="fill:#000000;fill-opacity:1;fill-rule:nonzero;stroke:#000000;stroke-width:0.8;stroke-linecap:butt;stroke-linejoin:round;stroke-miterlimit:10;stroke-dasharray:none;stroke-opacity:1"
         id="path64" /></g><g
       id="g70"
       transform="matrix(0.57466584,0,0,0.57466584,8.9396602,142.0056)"><g
         id="g72"
         clip-path="url(#clipPath76)"><path
           d="M 191.52,38.016 V 304.128"
           style="fill:none;stroke:#b0b0b0;stroke-width:0.8;stroke-linecap:square;stroke-linejoin:round;stroke-miterlimit:10;stroke-dasharray:none;stroke-opacity:1"
           id="path78" /></g></g><g
       id="g80"
       transform="matrix(0.57466584,0,0,0.57466584,8.9396602,142.0056)"><path
         d="m 191.52,38.016 v -3.5"
         style="fill:#000000;fill-opacity:1;fill-rule:nonzero;stroke:#000000;stroke-width:0.8;stroke-linecap:butt;stroke-linejoin:round;stroke-miterlimit:10;stroke-dasharray:none;stroke-opacity:1"
         id="path82" /></g><g
       id="g88"
       transform="matrix(0.57466584,0,0,0.57466584,8.9396602,142.0056)"><g
         id="g90"
         clip-path="url(#clipPath94)"><path
           d="M 236.16,38.016 V 304.128"
           style="fill:none;stroke:#b0b0b0;stroke-width:0.8;stroke-linecap:square;stroke-linejoin:round;stroke-miterlimit:10;stroke-dasharray:none;stroke-opacity:1"
           id="path96" /></g></g><g
       id="g98"
       transform="matrix(0.57466584,0,0,0.57466584,8.9396602,142.0056)"><path
         d="m 236.16,38.016 v -3.5"
         style="fill:#000000;fill-opacity:1;fill-rule:nonzero;stroke:#000000;stroke-width:0.8;stroke-linecap:butt;stroke-linejoin:round;stroke-miterlimit:10;stroke-dasharray:none;stroke-opacity:1"
         id="path100" /></g><g
       id="g106"
       transform="matrix(0.57466584,0,0,0.57466584,8.9396602,142.0056)"><g
         id="g108"
         clip-path="url(#clipPath112)"><path
           d="M 280.8,38.016 V 304.128"
           style="fill:none;stroke:#b0b0b0;stroke-width:0.8;stroke-linecap:square;stroke-linejoin:round;stroke-miterlimit:10;stroke-dasharray:none;stroke-opacity:1"
           id="path114" /></g></g><g
       id="g116"
       transform="matrix(0.57466584,0,0,0.57466584,8.9396602,142.0056)"><path
         d="m 280.8,38.016 v -3.5"
         style="fill:#000000;fill-opacity:1;fill-rule:nonzero;stroke:#000000;stroke-width:0.8;stroke-linecap:butt;stroke-linejoin:round;stroke-miterlimit:10;stroke-dasharray:none;stroke-opacity:1"
         id="path118" /></g><g
       id="g124"
       transform="matrix(0.57466584,0,0,0.57466584,8.9396602,142.0056)"><g
         id="g126"
         clip-path="url(#clipPath130)"><path
           d="M 325.44,38.016 V 304.128"
           style="fill:none;stroke:#b0b0b0;stroke-width:0.8;stroke-linecap:square;stroke-linejoin:round;stroke-miterlimit:10;stroke-dasharray:none;stroke-opacity:1"
           id="path132" /></g></g><g
       id="g134"
       transform="matrix(0.57466584,0,0,0.57466584,8.9396602,142.0056)"><path
         d="m 325.44,38.016 v -3.5"
         style="fill:#000000;fill-opacity:1;fill-rule:nonzero;stroke:#000000;stroke-width:0.8;stroke-linecap:butt;stroke-linejoin:round;stroke-miterlimit:10;stroke-dasharray:none;stroke-opacity:1"
         id="path136" /></g><g
       id="g142"
       transform="matrix(0.57466584,0,0,0.57466584,8.9396602,142.0056)"><g
         id="g144"
         clip-path="url(#clipPath148)"><path
           d="M 370.08,38.016 V 304.128"
           style="fill:none;stroke:#b0b0b0;stroke-width:0.8;stroke-linecap:square;stroke-linejoin:round;stroke-miterlimit:10;stroke-dasharray:none;stroke-opacity:1"
           id="path150" /></g></g><g
       id="g152"
       transform="matrix(0.57466584,0,0,0.57466584,8.9396602,142.0056)"><path
         d="m 370.08,38.016 v -3.5"
         style="fill:#000000;fill-opacity:1;fill-rule:nonzero;stroke:#000000;stroke-width:0.8;stroke-linecap:butt;stroke-linejoin:round;stroke-miterlimit:10;stroke-dasharray:none;stroke-opacity:1"
         id="path154" /></g><g
       id="g160"
       transform="matrix(0.57466584,0,0,0.57466584,8.9396602,142.0056)"><g
         id="g162"
         clip-path="url(#clipPath166)"><path
           d="M 414.72,38.016 V 304.128"
           style="fill:none;stroke:#b0b0b0;stroke-width:0.8;stroke-linecap:square;stroke-linejoin:round;stroke-miterlimit:10;stroke-dasharray:none;stroke-opacity:1"
           id="path168" /></g></g><g
       id="g170"
       transform="matrix(0.57466584,0,0,0.57466584,8.9396602,142.0056)"><path
         d="m 414.72,38.016 v -3.5"
         style="fill:#000000;fill-opacity:1;fill-rule:nonzero;stroke:#000000;stroke-width:0.8;stroke-linecap:butt;stroke-linejoin:round;stroke-miterlimit:10;stroke-dasharray:none;stroke-opacity:1"
         id="path172" /></g><g
       id="g182"
       transform="matrix(0.57466584,0,0,0.57466584,8.9396602,142.0056)"><g
         id="g184"
         clip-path="url(#clipPath188)"><path
           d="M 57.6,38.016 H 414.72"
           style="fill:none;stroke:#b0b0b0;stroke-width:0.8;stroke-linecap:square;stroke-linejoin:round;stroke-miterlimit:10;stroke-dasharray:none;stroke-opacity:1"
           id="path190" /></g></g><g
       id="g192"
       transform="matrix(0.57466584,0,0,0.57466584,8.9396602,142.0056)"><path
         d="M 57.6,38.016 H 54.1"
         style="fill:#000000;fill-opacity:1;fill-rule:nonzero;stroke:#000000;stroke-width:0.8;stroke-linecap:butt;stroke-linejoin:round;stroke-miterlimit:10;stroke-dasharray:none;stroke-opacity:1"
         id="path194" /></g><g
       id="g200"
       transform="matrix(0.57466584,0,0,0.57466584,8.9396602,142.0056)"><g
         id="g202"
         clip-path="url(#clipPath206)"><path
           d="M 57.6,91.2384 H 414.72"
           style="fill:none;stroke:#b0b0b0;stroke-width:0.8;stroke-linecap:square;stroke-linejoin:round;stroke-miterlimit:10;stroke-dasharray:none;stroke-opacity:1"
           id="path208" /></g></g><g
       id="g210"
       transform="matrix(0.57466584,0,0,0.57466584,8.9396602,142.0056)"><path
         d="M 57.6,91.2384 H 54.1"
         style="fill:#000000;fill-opacity:1;fill-rule:nonzero;stroke:#000000;stroke-width:0.8;stroke-linecap:butt;stroke-linejoin:round;stroke-miterlimit:10;stroke-dasharray:none;stroke-opacity:1"
         id="path212" /></g><g
       id="g218"
       transform="matrix(0.57466584,0,0,0.57466584,8.9396602,142.0056)"><g
         id="g220"
         clip-path="url(#clipPath224)"><path
           d="M 57.6,144.4608 H 414.72"
           style="fill:none;stroke:#b0b0b0;stroke-width:0.8;stroke-linecap:square;stroke-linejoin:round;stroke-miterlimit:10;stroke-dasharray:none;stroke-opacity:1"
           id="path226" /></g></g><g
       id="g228"
       transform="matrix(0.57466584,0,0,0.57466584,8.9396602,142.0056)"><path
         d="M 57.6,144.4608 H 54.1"
         style="fill:#000000;fill-opacity:1;fill-rule:nonzero;stroke:#000000;stroke-width:0.8;stroke-linecap:butt;stroke-linejoin:round;stroke-miterlimit:10;stroke-dasharray:none;stroke-opacity:1"
         id="path230" /></g><g
       id="g236"
       transform="matrix(0.57466584,0,0,0.57466584,8.9396602,142.0056)"><g
         id="g238"
         clip-path="url(#clipPath242)"><path
           d="M 57.6,197.6832 H 414.72"
           style="fill:none;stroke:#b0b0b0;stroke-width:0.8;stroke-linecap:square;stroke-linejoin:round;stroke-miterlimit:10;stroke-dasharray:none;stroke-opacity:1"
           id="path244" /></g></g><g
       id="g246"
       transform="matrix(0.57466584,0,0,0.57466584,8.9396602,142.0056)"><path
         d="M 57.6,197.6832 H 54.1"
         style="fill:#000000;fill-opacity:1;fill-rule:nonzero;stroke:#000000;stroke-width:0.8;stroke-linecap:butt;stroke-linejoin:round;stroke-miterlimit:10;stroke-dasharray:none;stroke-opacity:1"
         id="path248" /></g><g
       id="g254"
       transform="matrix(0.57466584,0,0,0.57466584,8.9396602,142.0056)"><g
         id="g256"
         clip-path="url(#clipPath260)"><path
           d="M 57.6,250.9056 H 414.72"
           style="fill:none;stroke:#b0b0b0;stroke-width:0.8;stroke-linecap:square;stroke-linejoin:round;stroke-miterlimit:10;stroke-dasharray:none;stroke-opacity:1"
           id="path262" /></g></g><g
       id="g264"
       transform="matrix(0.57466584,0,0,0.57466584,8.9396602,142.0056)"><path
         d="M 57.6,250.9056 H 54.1"
         style="fill:#000000;fill-opacity:1;fill-rule:nonzero;stroke:#000000;stroke-width:0.8;stroke-linecap:butt;stroke-linejoin:round;stroke-miterlimit:10;stroke-dasharray:none;stroke-opacity:1"
         id="path266" /></g><g
       id="g272"
       transform="matrix(0.57466584,0,0,0.57466584,8.9396602,142.0056)"><g
         id="g274"
         clip-path="url(#clipPath278)"><path
           d="M 57.6,304.128 H 414.72"
           style="fill:none;stroke:#b0b0b0;stroke-width:0.8;stroke-linecap:square;stroke-linejoin:round;stroke-miterlimit:10;stroke-dasharray:none;stroke-opacity:1"
           id="path280" /></g></g><g
       id="g282"
       transform="matrix(0.57466584,0,0,0.57466584,8.9396602,142.0056)"><path
         d="M 57.6,304.128 H 54.1"
         style="fill:#000000;fill-opacity:1;fill-rule:nonzero;stroke:#000000;stroke-width:0.8;stroke-linecap:butt;stroke-linejoin:round;stroke-miterlimit:10;stroke-dasharray:none;stroke-opacity:1"
         id="path284" /></g><path
       d="m 42.040412,168.45985 2.565308,7.33726 2.565309,9.94182 2.565309,17.66939 2.565308,7.27782 2.565308,4.7554 2.565309,8.07337 2.565308,4.14846 2.565308,-14.62516 2.565308,11.20989 2.565309,6.03033 2.565308,-1.86991 2.565308,0.35777 2.565309,-0.94879 2.565308,1.12554 2.565308,2.1086 2.565308,-9.15659 2.565309,2.44424 2.565308,-3.06241 2.565308,-1.08398 2.565308,2.04691 2.565309,3.8134 2.565308,-1.27417 2.565315,-4.89275 2.5653,-9.47804 2.56531,2.59376 2.56531,-1.9533 2.5653,-0.37923 2.56531,4.31331 2.56531,-6.54964 2.56532,1.95901 2.5653,1.42143 2.56531,-1.75265 2.56531,3.38611 2.5653,-5.98768 2.56531,2.09335 2.56531,-6.21432 2.56531,5.15652 2.5653,2.80916 2.56532,-2.98554 2.56531,-2.65567 2.56531,-2.20042 2.5653,-7.35755 2.56531,-1.54007 2.56531,3.48292 2.5653,-5.99382 2.56531,-0.0868 2.56531,6.53747 2.56531,1.37614 2.56531,-7.66607 2.56531,1.88356 2.56531,-14.90469 2.56531,10.71676 2.5653,-10.59516 2.56531,8.42916 2.56531,3.89651 2.5653,-4.39631 2.56531,6.51471 2.56531,-2.96315 2.56532,0.3244 2.5653,0.68388 2.56531,-1.6499 2.56531,0.63946 2.56531,-4.42254 2.5653,-3.0478 2.56531,3.24452 2.56531,1.81042 2.5653,-1.04517 2.56532,2.88418 2.56531,0.98065 2.56531,-8.06326 2.5653,-1.47754 2.56531,3.91071 2.56531,-3.03879 2.56531,2.97691 2.5653,-1.24043 2.56531,-1.24782 2.56531,-2.01028 2.56531,1.93889 2.56531,1.76361"
       style="fill:none;stroke:#0000ff;stroke-width:0.861998;stroke-linecap:square;stroke-linejoin:round;stroke-miterlimit:10;stroke-dasharray:none;stroke-opacity:1"
       id="path302" /><path
       d="m 42.040412,280.56875 2.565308,2.50429 2.565309,-14.32776 2.565309,-0.79595 2.565308,0.47228 2.565308,3.36848 2.565309,1.45475 2.565308,1.3841 2.565308,1.29982 2.565308,-1.80691 2.565309,1.38498 2.565308,-1.84621 2.565308,2.00799 2.565309,1.07122 2.565308,1.85255 2.565308,-0.51693 2.565308,-1.04226 2.565309,-3.83577 2.565308,-1.23184 2.565308,0.25507 2.565308,2.35375 2.565309,-0.50604 2.565308,-3.44773 2.565315,-3.24444 2.5653,1.49176 2.56531,-1.16859 2.56531,1.34906 2.5653,-2.13146 2.56531,-1.81875 2.56531,-0.5128 2.56532,-1.08166 2.5653,-1.56857 2.56531,-2.08571 2.56531,-0.91406 2.5653,2.7467 2.56531,-0.44569 2.56531,-0.34816 2.56531,2.02663 2.5653,-1.27564 2.56532,-2.03063 2.56531,-3.2488 2.56531,0.53492 2.5653,-3.21055 2.56531,-0.33834 2.56531,-2.58751 2.5653,-0.18697 2.56531,2.28786 2.56531,-0.11282 2.56531,-0.96903 2.56531,0.0332 2.56531,4.55228 2.56531,-0.65502 2.56531,-1.51532 2.5653,-3.03476 2.56531,0.47811 2.56531,-3.97714 2.5653,3.42994 2.56531,-0.16841 2.56531,-2.25792 2.56532,-1.37219 2.5653,-1.18195 2.56531,-6.07124 2.56531,-0.92921 2.56531,-12.55523"
       style="fill:none;stroke:#7cfc00;stroke-width:0.861998;stroke-linecap:square;stroke-linejoin:round;stroke-miterlimit:10;stroke-dasharray:none;stroke-opacity:1"
       id="path312" /><path
       d="m 42.040412,172.32941 2.565308,-2.47079 2.565309,2.78825 2.565309,13.69943 2.565308,7.21669 2.565308,9.32713 2.565309,8.1456 2.565308,6.11617 2.565308,-12.43238 2.565308,8.93808 2.565309,7.94945 2.565308,-4.39237 2.565308,-0.28349 2.565309,-0.63641 2.565308,-0.23571 2.565308,2.18782 2.565308,-6.50132 2.565309,1.83333 2.565308,-4.06738 2.565308,-3.07238 2.565308,4.20962 2.565309,2.48956 2.565308,-1.07292 2.565315,-2.72966 2.5653,-7.27009 2.56531,0.74819 2.56531,-2.1968 2.5653,-5.01526 2.56531,5.3897 2.56531,-4.86169 2.56532,-2.67629 2.5653,6.82521 2.56531,-3.38526 2.56531,1.23797 2.5653,-4.86073 2.56531,-0.60322 2.56531,-0.74025 2.56531,1.02176 2.5653,3.51248 2.56532,0.5303 2.56531,1.67606 2.56531,-6.64294 2.5653,-3.32943 2.56531,-3.28034 2.56531,5.64061 2.5653,-4.19202 2.56531,2.54074 2.56531,2.07576 2.56531,1.97493 2.56531,-7.83913 2.56531,3.63519 2.56531,-10.28782 2.56531,7.97154 2.5653,-12.85779 2.56531,6.68953 2.56531,5.56846 2.5653,-10.10587 2.56531,5.81237 2.56531,-0.21175 2.56532,-1.42169 2.5653,3.47032 2.56531,-3.36151 2.56531,2.33912 2.56531,-6.55401 2.5653,2.34792 2.56531,0.72267 2.56531,5.41291 2.5653,-3.98178 2.56532,-2.10219 2.56531,8.82613 2.56531,-10.15598 2.5653,1.14739 2.56531,1.32508 2.56531,-3.97514 2.56531,0.97291 2.5653,2.26179 2.56531,-5.38461 2.56531,5.7008 2.56531,-3.55224 2.56531,3.59577"
       style="fill:none;stroke:#ff0000;stroke-width:0.861998;stroke-linecap:square;stroke-linejoin:round;stroke-miterlimit:10;stroke-dasharray:none;stroke-opacity:1"
       id="path322" /><path
       d="M 42.040412,163.85209 V 316.77756"
       style="fill:none;stroke:#000000;stroke-width:0.459732;stroke-linecap:square;stroke-linejoin:miter;stroke-miterlimit:10;stroke-dasharray:none;stroke-opacity:1"
       id="path326" /><path
       d="M 247.26508,163.85209 V 316.77756"
       style="fill:none;stroke:#000000;stroke-width:0.459732;stroke-linecap:square;stroke-linejoin:miter;stroke-miterlimit:10;stroke-dasharray:none;stroke-opacity:1"
       id="path328" /><path
       d="M 42.040412,163.85209 H 247.26508"
       style="fill:none;stroke:#000000;stroke-width:0.459732;stroke-linecap:square;stroke-linejoin:miter;stroke-miterlimit:10;stroke-dasharray:none;stroke-opacity:1"
       id="path330" /><path
       d="M 42.040412,316.77756 H 247.26508"
       style="fill:none;stroke:#000000;stroke-width:0.459732;stroke-linecap:square;stroke-linejoin:miter;stroke-miterlimit:10;stroke-dasharray:none;stroke-opacity:1"
       id="path332" /><path
       d="M 78.77044,309.25303 H 90.26376"
       style="fill:none;stroke:#0000ff;stroke-width:0.861998;stroke-linecap:square;stroke-linejoin:round;stroke-miterlimit:10;stroke-dasharray:none;stroke-opacity:1"
       id="path342" /><path
       d="M 78.77044,300.82161 H 90.26376"
       style="fill:none;stroke:#7cfc00;stroke-width:0.861998;stroke-linecap:square;stroke-linejoin:round;stroke-miterlimit:10;stroke-dasharray:none;stroke-opacity:1"
       id="path348" /></g><g
     inkscape:groupmode="layer"
     id="layer1"
     inkscape:label="text"
     style="display:inline"
     transform="translate(-28.023958,-17.206424)"><text
       style="font-variant:normal;font-weight:normal;font-size:7.66222px;font-family:'DejaVu Sans';-inkscape-font-specification:DejaVuSans;writing-mode:lr-tb;fill:#000000;fill-opacity:1;fill-rule:nonzero;stroke:none;stroke-width:0.766222"
       id="text358"
       x="126.48145"
       y="73.628166"><tspan
         sodipodi:role="line"
         id="tspan356"
         style="stroke-width:0.766222"
         x="126.48145"
         y="73.628166">Farre et al. \cite{Farre2018a}, 70ep / AUC: 0.188</tspan></text><text
       style="font-variant:normal;font-weight:normal;font-size:7.66222px;font-family:'DejaVu Sans';-inkscape-font-specification:DejaVuSans;writing-mode:lr-tb;fill:#000000;fill-opacity:1;fill-rule:nonzero;stroke:none;stroke-width:0.766222"
       id="text32"
       x="53.96003"
       y="253.51244"><tspan
         x="53.96003 58.833195 61.269779"
         y="253.51244"
         sodipodi:role="line"
         id="tspan30"
         style="stroke-width:0.766222">0.0</tspan></text><text
       style="font-variant:normal;font-weight:normal;font-size:7.66222px;font-family:'DejaVu Sans';-inkscape-font-specification:DejaVuSans;writing-mode:lr-tb;fill:#000000;fill-opacity:1;fill-rule:nonzero;stroke:none;stroke-width:0.766222"
       id="text50"
       x="84.164139"
       y="253.51244"><tspan
         x="84.164139 89.0373 91.473885"
         y="253.51244"
         sodipodi:role="line"
         id="tspan48"
         style="stroke-width:0.766222">0.1</tspan></text><text
       style="font-variant:normal;font-weight:normal;font-size:7.66222px;font-family:'DejaVu Sans';-inkscape-font-specification:DejaVuSans;writing-mode:lr-tb;fill:#000000;fill-opacity:1;fill-rule:nonzero;stroke:none;stroke-width:0.766222"
       id="text68"
       x="118.36824"
       y="253.51244"><tspan
         x="118.36824 123.24142 125.67799"
         y="253.51244"
         sodipodi:role="line"
         id="tspan66"
         style="stroke-width:0.766222">0.2</tspan></text><text
       style="font-variant:normal;font-weight:normal;font-size:7.66222px;font-family:'DejaVu Sans';-inkscape-font-specification:DejaVuSans;writing-mode:lr-tb;fill:#000000;fill-opacity:1;fill-rule:nonzero;stroke:none;stroke-width:0.766222"
       id="text86"
       x="152.57234"
       y="253.51244"><tspan
         x="152.57234 157.44551 159.88211"
         y="253.51244"
         sodipodi:role="line"
         id="tspan84"
         style="stroke-width:0.766222">0.3</tspan></text><text
       style="font-variant:normal;font-weight:normal;font-size:7.66222px;font-family:'DejaVu Sans';-inkscape-font-specification:DejaVuSans;writing-mode:lr-tb;fill:#000000;fill-opacity:1;fill-rule:nonzero;stroke:none;stroke-width:0.766222"
       id="text104"
       x="186.77647"
       y="253.51244"><tspan
         x="186.77647 191.64964 194.08621"
         y="253.51244"
         sodipodi:role="line"
         id="tspan102"
         style="stroke-width:0.766222">0.4</tspan></text><text
       style="font-variant:normal;font-weight:normal;font-size:7.66222px;font-family:'DejaVu Sans';-inkscape-font-specification:DejaVuSans;writing-mode:lr-tb;fill:#000000;fill-opacity:1;fill-rule:nonzero;stroke:none;stroke-width:0.766222"
       id="text122"
       x="220.98058"
       y="253.51244"><tspan
         x="220.98058 225.85374 228.29033"
         y="253.51244"
         sodipodi:role="line"
         id="tspan120"
         style="stroke-width:0.766222">0.5</tspan></text><text
       style="font-variant:normal;font-weight:normal;font-size:7.66222px;font-family:'DejaVu Sans';-inkscape-font-specification:DejaVuSans;writing-mode:lr-tb;fill:#000000;fill-opacity:1;fill-rule:nonzero;stroke:none;stroke-width:0.766222"
       id="text140"
       x="255.18469"
       y="253.51244"><tspan
         x="255.18469 260.05786 262.49445"
         y="253.51244"
         sodipodi:role="line"
         id="tspan138"
         style="stroke-width:0.766222">0.6</tspan></text><text
       style="font-variant:normal;font-weight:normal;font-size:7.66222px;font-family:'DejaVu Sans';-inkscape-font-specification:DejaVuSans;writing-mode:lr-tb;fill:#000000;fill-opacity:1;fill-rule:nonzero;stroke:none;stroke-width:0.766222"
       id="text158"
       x="289.38879"
       y="253.51244"><tspan
         x="289.38879 294.26193 296.69855"
         y="253.51244"
         sodipodi:role="line"
         id="tspan156"
         style="stroke-width:0.766222">0.7</tspan></text><text
       style="font-variant:normal;font-weight:normal;font-size:7.66222px;font-family:'DejaVu Sans';-inkscape-font-specification:DejaVuSans;writing-mode:lr-tb;fill:#000000;fill-opacity:1;fill-rule:nonzero;stroke:none;stroke-width:0.766222"
       id="text176"
       x="323.59293"
       y="253.51244"><tspan
         x="323.59293 328.46606 330.90265"
         y="253.51244"
         sodipodi:role="line"
         id="tspan174"
         style="stroke-width:0.766222">0.8</tspan></text><text
       style="font-variant:normal;font-weight:normal;font-size:7.66222px;font-family:'DejaVu Sans';-inkscape-font-specification:DejaVuSans;writing-mode:lr-tb;fill:#000000;fill-opacity:1;fill-rule:nonzero;stroke:none;stroke-width:0.766222"
       id="text180"
       x="146.49599"
       y="263.98834"><tspan
         x="146.49599 152.4342 157.14645 162.0043 166.69357 174.15656 176.28667 180.50087 182.93745 187.80296 189.93306 193.92508 196.92865 201.62558 206.48343 210.69766 215.40991 217.8465 220.42865 222.86523 229.47772 234.34323"
         y="263.98834"
         sodipodi:role="line"
         id="tspan178"
         style="stroke-width:0.766222">Genomic distance / Mbp</tspan></text><text
       style="font-variant:normal;font-weight:normal;font-size:7.66222px;font-family:'DejaVu Sans';-inkscape-font-specification:DejaVuSans;writing-mode:lr-tb;fill:#000000;fill-opacity:1;fill-rule:nonzero;stroke:none;stroke-width:0.766222"
       id="text198"
       x="38.502628"
       y="245.23965"><tspan
         x="38.502628 43.375797 45.812378"
         y="245.23965"
         sodipodi:role="line"
         id="tspan196"
         style="stroke-width:0.766222">0.0</tspan></text><text
       style="font-variant:normal;font-weight:normal;font-size:7.66222px;font-family:'DejaVu Sans';-inkscape-font-specification:DejaVuSans;writing-mode:lr-tb;fill:#000000;fill-opacity:1;fill-rule:nonzero;stroke:none;stroke-width:0.766222"
       id="text216"
       x="38.502628"
       y="204.45952"><tspan
         x="38.502628 43.375797 45.812378"
         y="204.45952"
         sodipodi:role="line"
         id="tspan214"
         style="stroke-width:0.766222">0.2</tspan></text><text
       style="font-variant:normal;font-weight:normal;font-size:7.66222px;font-family:'DejaVu Sans';-inkscape-font-specification:DejaVuSans;writing-mode:lr-tb;fill:#000000;fill-opacity:1;fill-rule:nonzero;stroke:none;stroke-width:0.766222"
       id="text234"
       x="38.502628"
       y="163.6794"><tspan
         x="38.502628 43.375797 45.812378"
         y="163.6794"
         sodipodi:role="line"
         id="tspan232"
         style="stroke-width:0.766222">0.4</tspan></text><text
       style="font-variant:normal;font-weight:normal;font-size:7.66222px;font-family:'DejaVu Sans';-inkscape-font-specification:DejaVuSans;writing-mode:lr-tb;fill:#000000;fill-opacity:1;fill-rule:nonzero;stroke:none;stroke-width:0.766222"
       id="text252"
       x="38.502628"
       y="122.89938"><tspan
         x="38.502628 43.375797 45.812378"
         y="122.89938"
         sodipodi:role="line"
         id="tspan250"
         style="stroke-width:0.766222">0.6</tspan></text><text
       style="font-variant:normal;font-weight:normal;font-size:7.66222px;font-family:'DejaVu Sans';-inkscape-font-specification:DejaVuSans;writing-mode:lr-tb;fill:#000000;fill-opacity:1;fill-rule:nonzero;stroke:none;stroke-width:0.766222"
       id="text270"
       x="38.502628"
       y="82.119255"><tspan
         x="38.502628 43.375797 45.812378"
         y="82.119255"
         sodipodi:role="line"
         id="tspan268"
         style="stroke-width:0.766222">0.8</tspan></text><text
       style="font-variant:normal;font-weight:normal;font-size:7.66222px;font-family:'DejaVu Sans';-inkscape-font-specification:DejaVuSans;writing-mode:lr-tb;fill:#000000;fill-opacity:1;fill-rule:nonzero;stroke:none;stroke-width:0.766222"
       id="text288"
       x="38.502628"
       y="41.339077"><tspan
         x="38.502628 43.375797 45.812378"
         y="41.339077"
         sodipodi:role="line"
         id="tspan286"
         style="stroke-width:0.766222">1.0</tspan></text><text
       transform="rotate(-90)"
       style="font-variant:normal;font-weight:normal;font-size:7.66222px;font-family:'DejaVu Sans';-inkscape-font-specification:DejaVuSans;writing-mode:lr-tb;fill:#000000;fill-opacity:1;fill-rule:nonzero;stroke:none;stroke-width:0.766222"
       id="text292"
       x="-177.39813"
       y="33.845444"><tspan
         x="-177.39813 -172.77783 -168.06557 -163.36864 -160.21947 -156.22745 -151.53818 -146.68034 -144.24376 -140.02954 -135.34027 -132.1911 -129.04193 -124.3298 -122.19971 -117.50278 -114.49918 -112.36909 -107.67982"
         y="33.845444"
         sodipodi:role="line"
         id="tspan290"
         style="stroke-width:0.766222">Pearson correlation</tspan></text><text
       style="font-variant:normal;font-weight:normal;font-size:9.19466px;font-family:'DejaVu Sans';-inkscape-font-specification:DejaVuSans;writing-mode:lr-tb;fill:#000000;fill-opacity:1;fill-rule:nonzero;stroke:none;stroke-width:0.766222"
       id="text336"
       x="98.248001"
       y="23.52685"><tspan
         x="98.248001 103.79237 109.44709 115.08343 118.86241 123.65282 129.27997 135.10938 138.03326 143.09032 148.71745 152.49648 156.27545 161.93018 164.48628 170.1226 173.7269 176.28302 181.91016 187.73956 190.66347 196.1067 200.89713 203.82101 206.74492 212.58353 218.23824 224.06763 229.69476 238.65034 241.20647 246.26353 249.18742 255.02603 257.58215 262.37256 265.97684 271.61316 277.4426 282.49963"
         y="23.52685"
         sodipodi:role="line"
         id="tspan334"
         style="stroke-width:0.766222">Pearson correlation vs. genomic distance</tspan></text><text
       style="font-variant:normal;font-weight:normal;font-size:9.19466px;font-family:'DejaVu Sans';-inkscape-font-specification:DejaVuSans;writing-mode:lr-tb;fill:#000000;fill-opacity:1;fill-rule:nonzero;stroke:none;stroke-width:0.766222"
       id="text340"
       x="154.74484"
       y="33.832504"><tspan
         x="154.74484 161.1627 166.99211 170.77112 176.39824 185.35384 190.98096 195.77136 201.39851 210.3541 216.0088 218.93272 224.7805"
         y="33.832504"
         sodipodi:role="line"
         id="tspan338"
         style="stroke-width:0.766222">Chromosome 3R</tspan></text><text
       style="font-variant:normal;font-weight:normal;font-size:7.66222px;font-family:'DejaVu Sans';-inkscape-font-specification:DejaVuSans;writing-mode:lr-tb;fill:#000000;fill-opacity:1;fill-rule:nonzero;stroke:none;stroke-width:0.766222"
       id="text346"
       x="126.48145"
       y="51.144314"><tspan
         x="126.48145 132.38136 138.11267 143.84401 146.28059 148.71716 153.59035 158.46352 163.17575 168.04128 170.47784 173.06004 175.49661 180.73755 186.34631 191.69449 194.2767 196.71326 201.58643 204.02301 208.89618 213.76935"
         y="51.144314"
         sodipodi:role="line"
         id="tspan344"
         style="stroke-width:0.766222">DNN, 50ep / AUC: 0.250</tspan></text><text
       style="font-variant:normal;font-weight:normal;font-size:7.66222px;font-family:'DejaVu Sans';-inkscape-font-specification:DejaVuSans;writing-mode:lr-tb;fill:#000000;fill-opacity:1;fill-rule:nonzero;stroke:none;stroke-width:0.766222"
       id="text352"
       x="126.48145"
       y="62.386211"><tspan
         x="126.48145 132.24341 134.37352 137.13957 141.35379 147.29202 152.53297 158.2643 160.70088 163.13745 168.01065 172.8838 177.75696 182.46921 187.33469 189.77133 192.35345 194.79007 200.03098 205.63977 210.98798 213.57013 216.00671 220.87985 223.3165 228.18964 233.06281"
         y="62.386211"
         sodipodi:role="line"
         id="tspan350"
         style="stroke-width:0.766222">Hi-cGAN, 100ep / AUC: 0.645</tspan></text></g></svg>
