<?xml version="1.0" encoding="UTF-8" standalone="no"?>
<svg
   xmlns:dc="http://purl.org/dc/elements/1.1/"
   xmlns:cc="http://creativecommons.org/ns#"
   xmlns:rdf="http://www.w3.org/1999/02/22-rdf-syntax-ns#"
   xmlns:svg="http://www.w3.org/2000/svg"
   xmlns="http://www.w3.org/2000/svg"
   xmlns:sodipodi="http://sodipodi.sourceforge.net/DTD/sodipodi-0.dtd"
   xmlns:inkscape="http://www.inkscape.org/namespaces/inkscape"
   version="1.1"
   id="svg2"
   xml:space="preserve"
   width="80mm"
   height="65.300003mm"
   viewBox="0 0 302.36219 246.80316"
   sodipodi:docname="pearson_chr10.svg"
   inkscape:version="1.0.2 (1.0.2+r75+1)"><metadata
     id="metadata8"><rdf:RDF><cc:Work
         rdf:about=""><dc:format>image/svg+xml</dc:format><dc:type
           rdf:resource="http://purl.org/dc/dcmitype/StillImage" /><dc:title></dc:title></cc:Work></rdf:RDF></metadata><defs
     id="defs6"><clipPath
       clipPathUnits="userSpaceOnUse"
       id="clipPath22"><path
         d="M 57.6,38.016 H 414.72 V 304.128 H 57.6 Z"
         id="path20" /></clipPath><clipPath
       clipPathUnits="userSpaceOnUse"
       id="clipPath40"><path
         d="M 57.6,38.016 H 414.72 V 304.128 H 57.6 Z"
         id="path38" /></clipPath><clipPath
       clipPathUnits="userSpaceOnUse"
       id="clipPath58"><path
         d="M 57.6,38.016 H 414.72 V 304.128 H 57.6 Z"
         id="path56" /></clipPath><clipPath
       clipPathUnits="userSpaceOnUse"
       id="clipPath76"><path
         d="M 57.6,38.016 H 414.72 V 304.128 H 57.6 Z"
         id="path74" /></clipPath><clipPath
       clipPathUnits="userSpaceOnUse"
       id="clipPath94"><path
         d="M 57.6,38.016 H 414.72 V 304.128 H 57.6 Z"
         id="path92" /></clipPath><clipPath
       clipPathUnits="userSpaceOnUse"
       id="clipPath112"><path
         d="M 57.6,38.016 H 414.72 V 304.128 H 57.6 Z"
         id="path110" /></clipPath><clipPath
       clipPathUnits="userSpaceOnUse"
       id="clipPath130"><path
         d="M 57.6,38.016 H 414.72 V 304.128 H 57.6 Z"
         id="path128" /></clipPath><clipPath
       clipPathUnits="userSpaceOnUse"
       id="clipPath148"><path
         d="M 57.6,38.016 H 414.72 V 304.128 H 57.6 Z"
         id="path146" /></clipPath><clipPath
       clipPathUnits="userSpaceOnUse"
       id="clipPath170"><path
         d="M 57.6,38.016 H 414.72 V 304.128 H 57.6 Z"
         id="path168" /></clipPath><clipPath
       clipPathUnits="userSpaceOnUse"
       id="clipPath188"><path
         d="M 57.6,38.016 H 414.72 V 304.128 H 57.6 Z"
         id="path186" /></clipPath><clipPath
       clipPathUnits="userSpaceOnUse"
       id="clipPath206"><path
         d="M 57.6,38.016 H 414.72 V 304.128 H 57.6 Z"
         id="path204" /></clipPath><clipPath
       clipPathUnits="userSpaceOnUse"
       id="clipPath224"><path
         d="M 57.6,38.016 H 414.72 V 304.128 H 57.6 Z"
         id="path222" /></clipPath><clipPath
       clipPathUnits="userSpaceOnUse"
       id="clipPath242"><path
         d="M 57.6,38.016 H 414.72 V 304.128 H 57.6 Z"
         id="path240" /></clipPath><clipPath
       clipPathUnits="userSpaceOnUse"
       id="clipPath260"><path
         d="M 57.6,38.016 H 414.72 V 304.128 H 57.6 Z"
         id="path258" /></clipPath><clipPath
       clipPathUnits="userSpaceOnUse"
       id="clipPath282"><path
         d="M 57.6,38.016 H 414.72 V 304.128 H 57.6 Z"
         id="path280" /></clipPath><clipPath
       clipPathUnits="userSpaceOnUse"
       id="clipPath292"><path
         d="M 57.6,38.016 H 414.72 V 304.128 H 57.6 Z"
         id="path290" /></clipPath><clipPath
       clipPathUnits="userSpaceOnUse"
       id="clipPath302"><path
         d="M 57.6,38.016 H 414.72 V 304.128 H 57.6 Z"
         id="path300" /></clipPath><clipPath
       clipPathUnits="userSpaceOnUse"
       id="clipPath312"><path
         d="M 57.6,38.016 H 414.72 V 304.128 H 57.6 Z"
         id="path310" /></clipPath><clipPath
       clipPathUnits="userSpaceOnUse"
       id="clipPath322"><path
         d="M 57.6,38.016 H 414.72 V 304.128 H 57.6 Z"
         id="path320" /></clipPath></defs><sodipodi:namedview
     pagecolor="#ffffff"
     bordercolor="#666666"
     borderopacity="1"
     objecttolerance="10"
     gridtolerance="10"
     guidetolerance="10"
     inkscape:pageopacity="0"
     inkscape:pageshadow="2"
     inkscape:window-width="1920"
     inkscape:window-height="1020"
     id="namedview4"
     showgrid="false"
     fit-margin-top="0"
     fit-margin-left="0"
     fit-margin-right="0"
     fit-margin-bottom="0"
     units="mm"
     inkscape:zoom="14.878473"
     inkscape:cx="183.55564"
     inkscape:cy="253.79637"
     inkscape:window-x="0"
     inkscape:window-y="0"
     inkscape:window-maximized="1"
     inkscape:current-layer="g10" /><g
     id="g10"
     inkscape:groupmode="layer"
     inkscape:label="pearson_chr10"
     transform="matrix(1.3333333,0,0,-1.3333333,-28.023958,443.59357)"><path
       d="M 42.066189,163.85122 V 316.96421"
       style="fill:none;stroke:#000000;stroke-width:0.460296;stroke-linecap:square;stroke-linejoin:miter;stroke-miterlimit:10;stroke-dasharray:none;stroke-opacity:1"
       id="path328" /><path
       d="M 247.54249,163.85122 V 316.96421"
       style="fill:none;stroke:#000000;stroke-width:0.460296;stroke-linecap:square;stroke-linejoin:miter;stroke-miterlimit:10;stroke-dasharray:none;stroke-opacity:1"
       id="path330" /><path
       d="M 42.066189,163.85122 H 247.54249"
       style="fill:none;stroke:#000000;stroke-width:0.460296;stroke-linecap:square;stroke-linejoin:miter;stroke-miterlimit:10;stroke-dasharray:none;stroke-opacity:1"
       id="path332" /><path
       d="M 42.066189,316.96421 H 247.54249"
       style="fill:none;stroke:#000000;stroke-width:0.460296;stroke-linecap:square;stroke-linejoin:miter;stroke-miterlimit:10;stroke-dasharray:none;stroke-opacity:1"
       id="path334" /><path
       d="m 53.911628,206.67531 h 11.50741"
       style="fill:none;stroke:#1f77b4;stroke-width:0.863056;stroke-linecap:square;stroke-linejoin:round;stroke-miterlimit:10;stroke-dasharray:none;stroke-opacity:1"
       id="path344" /><path
       d="m 53.911628,198.23355 h 11.50741"
       style="fill:none;stroke:#ff7f0e;stroke-width:0.863056;stroke-linecap:square;stroke-linejoin:round;stroke-miterlimit:10;stroke-dasharray:none;stroke-opacity:1"
       id="path350" /><path
       d="m 53.911628,189.79179 h 11.50741"
       style="fill:none;stroke:#2ca02c;stroke-width:0.863056;stroke-linecap:square;stroke-linejoin:round;stroke-miterlimit:10;stroke-dasharray:none;stroke-opacity:1"
       id="path356" /><path
       d="m 53.911628,181.35002 h 11.50741"
       style="fill:none;stroke:#9467bd;stroke-width:0.863056;stroke-linecap:square;stroke-linejoin:round;stroke-miterlimit:10;stroke-dasharray:none;stroke-opacity:1"
       id="path362" /><path
       d="m 53.911628,172.90826 h 11.50741"
       style="fill:none;stroke:#d62728;stroke-width:0.863056;stroke-linecap:square;stroke-linejoin:round;stroke-miterlimit:10;stroke-dasharray:none;stroke-opacity:1"
       id="path368" /><g
       id="g16"
       transform="matrix(0.57537047,0,0,0.57537047,8.9248504,141.97794)"><g
         id="g18"
         clip-path="url(#clipPath22)"><path
           d="M 57.6,38.016 V 304.128"
           style="fill:none;stroke:#b0b0b0;stroke-width:0.8;stroke-linecap:square;stroke-linejoin:round;stroke-miterlimit:10;stroke-dasharray:none;stroke-opacity:1"
           id="path24" /></g></g><path
       d="m 42.06619,163.85123 v -2.0138"
       style="fill:#000000;fill-opacity:1;fill-rule:nonzero;stroke:#000000;stroke-width:0.460296;stroke-linecap:butt;stroke-linejoin:round;stroke-miterlimit:10;stroke-dasharray:none;stroke-opacity:1"
       id="path28" /><g
       id="g34"
       transform="matrix(0.57537047,0,0,0.57537047,8.9248504,141.97794)"><g
         id="g36"
         clip-path="url(#clipPath40)"><path
           d="M 102.80506,38.016 V 304.128"
           style="fill:none;stroke:#b0b0b0;stroke-width:0.8;stroke-linecap:square;stroke-linejoin:round;stroke-miterlimit:10;stroke-dasharray:none;stroke-opacity:1"
           id="path42" /></g></g><path
       d="m 68.075846,163.85123 v -2.0138"
       style="fill:#000000;fill-opacity:1;fill-rule:nonzero;stroke:#000000;stroke-width:0.460296;stroke-linecap:butt;stroke-linejoin:round;stroke-miterlimit:10;stroke-dasharray:none;stroke-opacity:1"
       id="path46" /><g
       id="g52"
       transform="matrix(0.57537047,0,0,0.57537047,8.9248504,141.97794)"><g
         id="g54"
         clip-path="url(#clipPath58)"><path
           d="M 148.01013,38.016 V 304.128"
           style="fill:none;stroke:#b0b0b0;stroke-width:0.8;stroke-linecap:square;stroke-linejoin:round;stroke-miterlimit:10;stroke-dasharray:none;stroke-opacity:1"
           id="path60" /></g></g><path
       d="m 94.085508,163.85123 v -2.0138"
       style="fill:#000000;fill-opacity:1;fill-rule:nonzero;stroke:#000000;stroke-width:0.460296;stroke-linecap:butt;stroke-linejoin:round;stroke-miterlimit:10;stroke-dasharray:none;stroke-opacity:1"
       id="path64" /><g
       id="g70"
       transform="matrix(0.57537047,0,0,0.57537047,8.9248504,141.97794)"><g
         id="g72"
         clip-path="url(#clipPath76)"><path
           d="M 193.21519,38.016 V 304.128"
           style="fill:none;stroke:#b0b0b0;stroke-width:0.8;stroke-linecap:square;stroke-linejoin:round;stroke-miterlimit:10;stroke-dasharray:none;stroke-opacity:1"
           id="path78" /></g></g><path
       d="m 120.09516,163.85123 v -2.0138"
       style="fill:#000000;fill-opacity:1;fill-rule:nonzero;stroke:#000000;stroke-width:0.460296;stroke-linecap:butt;stroke-linejoin:round;stroke-miterlimit:10;stroke-dasharray:none;stroke-opacity:1"
       id="path82" /><g
       id="g88"
       transform="matrix(0.57537047,0,0,0.57537047,8.9248504,141.97794)"><g
         id="g90"
         clip-path="url(#clipPath94)"><path
           d="M 238.42025,38.016 V 304.128"
           style="fill:none;stroke:#b0b0b0;stroke-width:0.8;stroke-linecap:square;stroke-linejoin:round;stroke-miterlimit:10;stroke-dasharray:none;stroke-opacity:1"
           id="path96" /></g></g><path
       d="m 146.10483,163.85123 v -2.0138"
       style="fill:#000000;fill-opacity:1;fill-rule:nonzero;stroke:#000000;stroke-width:0.460296;stroke-linecap:butt;stroke-linejoin:round;stroke-miterlimit:10;stroke-dasharray:none;stroke-opacity:1"
       id="path100" /><g
       id="g106"
       transform="matrix(0.57537047,0,0,0.57537047,8.9248504,141.97794)"><g
         id="g108"
         clip-path="url(#clipPath112)"><path
           d="M 283.62532,38.016 V 304.128"
           style="fill:none;stroke:#b0b0b0;stroke-width:0.8;stroke-linecap:square;stroke-linejoin:round;stroke-miterlimit:10;stroke-dasharray:none;stroke-opacity:1"
           id="path114" /></g></g><path
       d="m 172.11448,163.85123 v -2.0138"
       style="fill:#000000;fill-opacity:1;fill-rule:nonzero;stroke:#000000;stroke-width:0.460296;stroke-linecap:butt;stroke-linejoin:round;stroke-miterlimit:10;stroke-dasharray:none;stroke-opacity:1"
       id="path118" /><g
       id="g124"
       transform="matrix(0.57537047,0,0,0.57537047,8.9248504,141.97794)"><g
         id="g126"
         clip-path="url(#clipPath130)"><path
           d="M 328.83038,38.016 V 304.128"
           style="fill:none;stroke:#b0b0b0;stroke-width:0.8;stroke-linecap:square;stroke-linejoin:round;stroke-miterlimit:10;stroke-dasharray:none;stroke-opacity:1"
           id="path132" /></g></g><path
       d="m 198.12414,163.85123 v -2.0138"
       style="fill:#000000;fill-opacity:1;fill-rule:nonzero;stroke:#000000;stroke-width:0.460296;stroke-linecap:butt;stroke-linejoin:round;stroke-miterlimit:10;stroke-dasharray:none;stroke-opacity:1"
       id="path136" /><g
       id="g142"
       transform="matrix(0.57537047,0,0,0.57537047,8.9248504,141.97794)"><g
         id="g144"
         clip-path="url(#clipPath148)"><path
           d="M 374.03544,38.016 V 304.128"
           style="fill:none;stroke:#b0b0b0;stroke-width:0.8;stroke-linecap:square;stroke-linejoin:round;stroke-miterlimit:10;stroke-dasharray:none;stroke-opacity:1"
           id="path150" /></g></g><path
       d="m 224.1338,163.85123 v -2.0138"
       style="fill:#000000;fill-opacity:1;fill-rule:nonzero;stroke:#000000;stroke-width:0.460296;stroke-linecap:butt;stroke-linejoin:round;stroke-miterlimit:10;stroke-dasharray:none;stroke-opacity:1"
       id="path154" /><g
       id="g164"
       transform="matrix(0.57537047,0,0,0.57537047,8.9248504,141.97794)"><g
         id="g166"
         clip-path="url(#clipPath170)"><path
           d="M 57.6,38.016 H 414.72"
           style="fill:none;stroke:#b0b0b0;stroke-width:0.8;stroke-linecap:square;stroke-linejoin:round;stroke-miterlimit:10;stroke-dasharray:none;stroke-opacity:1"
           id="path172" /></g></g><path
       d="M 42.06619,163.85123 H 40.052393"
       style="fill:#000000;fill-opacity:1;fill-rule:nonzero;stroke:#000000;stroke-width:0.460296;stroke-linecap:butt;stroke-linejoin:round;stroke-miterlimit:10;stroke-dasharray:none;stroke-opacity:1"
       id="path176" /><g
       id="g182"
       transform="matrix(0.57537047,0,0,0.57537047,8.9248504,141.97794)"><g
         id="g184"
         clip-path="url(#clipPath188)"><path
           d="M 57.6,91.2384 H 414.72"
           style="fill:none;stroke:#b0b0b0;stroke-width:0.8;stroke-linecap:square;stroke-linejoin:round;stroke-miterlimit:10;stroke-dasharray:none;stroke-opacity:1"
           id="path190" /></g></g><path
       d="M 42.06619,194.47382 H 40.052393"
       style="fill:#000000;fill-opacity:1;fill-rule:nonzero;stroke:#000000;stroke-width:0.460296;stroke-linecap:butt;stroke-linejoin:round;stroke-miterlimit:10;stroke-dasharray:none;stroke-opacity:1"
       id="path194" /><g
       id="g200"
       transform="matrix(0.57537047,0,0,0.57537047,8.9248504,141.97794)"><g
         id="g202"
         clip-path="url(#clipPath206)"><path
           d="M 57.6,144.4608 H 414.72"
           style="fill:none;stroke:#b0b0b0;stroke-width:0.8;stroke-linecap:square;stroke-linejoin:round;stroke-miterlimit:10;stroke-dasharray:none;stroke-opacity:1"
           id="path208" /></g></g><path
       d="M 42.06619,225.09642 H 40.052393"
       style="fill:#000000;fill-opacity:1;fill-rule:nonzero;stroke:#000000;stroke-width:0.460296;stroke-linecap:butt;stroke-linejoin:round;stroke-miterlimit:10;stroke-dasharray:none;stroke-opacity:1"
       id="path212" /><g
       id="g218"
       transform="matrix(0.57537047,0,0,0.57537047,8.9248504,141.97794)"><g
         id="g220"
         clip-path="url(#clipPath224)"><path
           d="M 57.6,197.6832 H 414.72"
           style="fill:none;stroke:#b0b0b0;stroke-width:0.8;stroke-linecap:square;stroke-linejoin:round;stroke-miterlimit:10;stroke-dasharray:none;stroke-opacity:1"
           id="path226" /></g></g><path
       d="M 42.06619,255.71902 H 40.052393"
       style="fill:#000000;fill-opacity:1;fill-rule:nonzero;stroke:#000000;stroke-width:0.460296;stroke-linecap:butt;stroke-linejoin:round;stroke-miterlimit:10;stroke-dasharray:none;stroke-opacity:1"
       id="path230" /><g
       id="g236"
       transform="matrix(0.57537047,0,0,0.57537047,8.9248504,141.97794)"><g
         id="g238"
         clip-path="url(#clipPath242)"><path
           d="M 57.6,250.9056 H 414.72"
           style="fill:none;stroke:#b0b0b0;stroke-width:0.8;stroke-linecap:square;stroke-linejoin:round;stroke-miterlimit:10;stroke-dasharray:none;stroke-opacity:1"
           id="path244" /></g></g><path
       d="M 42.06619,286.34161 H 40.052393"
       style="fill:#000000;fill-opacity:1;fill-rule:nonzero;stroke:#000000;stroke-width:0.460296;stroke-linecap:butt;stroke-linejoin:round;stroke-miterlimit:10;stroke-dasharray:none;stroke-opacity:1"
       id="path248" /><g
       id="g254"
       transform="matrix(0.57537047,0,0,0.57537047,8.9248504,141.97794)"><g
         id="g256"
         clip-path="url(#clipPath260)"><path
           d="M 57.6,304.128 H 414.72"
           style="fill:none;stroke:#b0b0b0;stroke-width:0.8;stroke-linecap:square;stroke-linejoin:round;stroke-miterlimit:10;stroke-dasharray:none;stroke-opacity:1"
           id="path262" /></g></g><path
       d="M 42.06619,316.96421 H 40.052393"
       style="fill:#000000;fill-opacity:1;fill-rule:nonzero;stroke:#000000;stroke-width:0.460296;stroke-linecap:butt;stroke-linejoin:round;stroke-miterlimit:10;stroke-dasharray:none;stroke-opacity:1"
       id="path266" /><g
       id="g278"
       clip-path="url(#clipPath282)"
       transform="matrix(0.57537047,0,0,0.57537047,8.9248504,141.97794)"><path
         d="m 57.6,266.77933 4.520506,2.25163 4.520507,-8.46804 4.520506,-8.68207 4.520506,-5.8811 4.520507,-7.17653 4.520506,-2.85093 4.520506,-2.76885 4.520507,-4.31969 4.520506,-0.14439 4.520503,-4.54878 4.52051,-2.7865 4.52051,-2.45211 4.5205,-7.5973 4.52051,-2.51889 4.52051,-1.47526 4.5205,-2.20572 4.52051,1.4269 4.5205,-2.8587 4.52051,-4.07826 4.52051,-2.73017 4.5205,-0.59649 4.52051,-4.29702 4.52051,-2.96244 4.5205,3.16594 4.52051,-1.50499 4.5205,-2.29059 4.52051,-0.19701 4.52051,-3.61681 4.5205,-0.2255 4.52051,-3.25589 4.52051,-0.5793 4.5205,-0.36542 4.52051,-3.04625 4.5205,2.86093 4.52051,-0.0593 4.52051,1.40136 4.5205,-1.27509 4.52051,-0.5069 4.52051,-3.21908 4.5205,0.44874 4.52051,2.00423 4.52051,-4.52775 4.5205,3.31637 4.52051,1.41447 4.5205,-1.83139 4.52051,0.0356 4.52051,-0.0409 4.5205,-4.65546 4.52051,0.65878 4.52051,3.20291 4.5205,3.23669 4.52051,-1.42626 4.5205,-0.68691 4.52051,-2.03619 4.52051,0.13712 4.5205,-3.55244 4.52051,-2.61015 4.52051,2.27984 4.5205,-3.9973 4.52051,3.57933 4.52051,-3.21389 4.5205,0.47106 4.52051,3.15702 4.5205,5.38605 4.52051,-1.84535 4.52051,2.53348 4.5205,2.49275 4.52051,-4.04424 4.52051,3.94243 4.5205,-5.93272 4.52051,-1.43316 4.52051,2.54441 4.5205,0.65059 4.52051,-6.0275 4.5205,-6.18452 4.52051,2.70579 4.52051,-2.74937 4.5205,-14.92052 4.52051,6.21971"
         style="fill:none;stroke:#1f77b4;stroke-width:1.5;stroke-linecap:square;stroke-linejoin:round;stroke-miterlimit:10;stroke-dasharray:none;stroke-opacity:1"
         id="path284" /></g><g
       id="g288"
       clip-path="url(#clipPath292)"
       transform="matrix(0.57537047,0,0,0.57537047,8.9248504,141.97794)"><path
         d="m 57.6,266.89558 4.520506,2.37437 4.520507,-8.30234 4.520506,-8.54211 4.520506,-5.58901 4.520507,-6.86396 4.520506,-3.39392 4.520506,-3.71871 4.520507,-4.53216 4.520506,0.11574 4.520503,-4.69983 4.52051,-2.49338 4.52051,-2.31085 4.5205,-7.35645 4.52051,-2.69175 4.52051,-1.42955 4.5205,-2.70647 4.52051,1.34738 4.5205,-2.52712 4.52051,-3.80915 4.52051,-2.16492 4.5205,-0.51941 4.52051,-4.32566 4.52051,-3.59 4.5205,3.12205 4.52051,-2.02656 4.5205,-2.87057 4.52051,-0.43916 4.52051,-3.70726 4.5205,-0.69537 4.52051,-2.98859 4.52051,-1.1348 4.5205,-0.0778 4.52051,-2.81593 4.5205,2.70937 4.52051,0.29956 4.52051,1.24485 4.5205,-0.62839 4.52051,-1.27828 4.52051,-3.15565 4.5205,0.60401 4.52051,2.17246 4.52051,-4.30333 4.5205,3.39817 4.52051,1.15325 4.5205,-1.77586 4.52051,0.23221 4.52051,-0.0837 4.5205,-4.86713 4.52051,1.55092 4.52051,4.27509 4.5205,2.19595 4.52051,-0.26692 4.5205,-0.16038 4.52051,-1.34558 4.52051,-0.66166 4.5205,-2.02975 4.52051,-5.20528 4.52051,2.97915 4.5205,-3.62073 4.52051,3.08989 4.52051,-1.87025 4.5205,-0.10293 4.52051,4.46718 4.5205,5.31916 4.52051,-3.64431 4.52051,2.05613 4.5205,2.22604 4.52051,-4.61738 4.52051,3.16157 4.5205,-6.5658 4.52051,-2.70009 4.52051,3.61628 4.5205,1.54033 4.52051,-5.26914 4.5205,-0.3844 4.52051,1.2538 4.52051,-7.22013 4.5205,-4.74415 4.52051,3.51471"
         style="fill:none;stroke:#ff7f0e;stroke-width:1.5;stroke-linecap:square;stroke-linejoin:round;stroke-miterlimit:10;stroke-dasharray:none;stroke-opacity:1"
         id="path294" /></g><g
       id="g318"
       clip-path="url(#clipPath322)"
       style="stroke:#d62728;stroke-opacity:1"
       transform="matrix(0.57537047,0,0,0.57537047,8.9248504,141.97794)"><path
         d="m 57.6,248.04826 4.520506,-7.31345 4.520507,-2.67199 4.520506,-1.92582 4.520506,0.52852 4.520507,1.5828 4.520506,-0.83742 4.520506,4.75577 4.520507,1.51933 4.520506,-0.1265 4.520503,-0.0103 4.52051,0.10428 4.52051,-2.9016 4.5205,0.21693 4.52051,-0.43194 4.52051,1.81056 4.5205,-2.13652 4.52051,-1.28172 4.5205,1.11446 4.52051,0.68509 4.52051,-1.5634 4.5205,-2.88215 4.52051,-3.72723 4.52051,-3.7109 4.5205,-0.44788 4.52051,-2.4429 4.5205,-0.96455 4.52051,1.22164 4.52051,-1.212 4.5205,6.89727 4.52051,3.34875 4.52051,-2.16375 4.5205,-1.01249 4.52051,6.2809 4.5205,-2.72251 4.52051,-2.2134 4.52051,-2.6234 4.5205,4.04371 4.52051,0.25559 4.52051,2.09483 4.5205,-4.94605 4.52051,0.91346 4.52051,2.43847 4.5205,-4.99945 4.52051,-0.86193 4.5205,-2.68794 4.52051,2.85342 4.52051,3.77661 4.5205,-0.51097 4.52051,4.62935 4.52051,-3.57512 4.5205,0.37684 4.52051,1.56505 4.5205,-2.09594 4.52051,-1.96746 4.52051,4.21977 4.5205,-2.11606 4.52051,-1.44609 4.52051,-1.48226 4.5205,-3.92104 4.52051,-3.91256 4.52051,0.7496 4.5205,0.77762 4.52051,-2.93298 4.5205,-4.47071 4.52051,-3.50641 4.52051,-0.75959 4.5205,-2.00022 4.52051,-1.98589 4.52051,-0.32473 4.5205,-3.05912 4.52051,1.95696 4.52051,0.20884 4.5205,-3.16905 4.52051,1.02544 4.5205,2.31483 4.52051,2.71847 4.52051,-3.92037 4.5205,1.00809 4.52051,-7.19419"
         style="fill:none;stroke:#d62728;stroke-width:1.5;stroke-linecap:square;stroke-linejoin:round;stroke-miterlimit:10;stroke-dasharray:none;stroke-opacity:1"
         id="path324" /></g><g
       id="g298"
       clip-path="url(#clipPath302)"
       transform="matrix(0.57537047,0,0,0.57537047,8.9248504,141.97794)"><path
         d="m 57.6,267.28468 4.520506,2.25438 4.520507,-8.32566 4.520506,-7.99776 4.520506,-5.23495 4.520507,-7.20718 4.520506,-4.00903 4.520506,-4.19899 4.520507,-4.31228 4.520506,0.2981 4.520503,-5.03075 4.52051,-3.15022 4.52051,-2.56781 4.5205,-7.33162 4.52051,-2.67536 4.52051,-1.32738 4.5205,-2.97951 4.52051,1.88097 4.5205,-1.97155 4.52051,-3.96291 4.52051,-1.90054 4.5205,-0.72165 4.52051,-4.22457 4.52051,-3.61765 4.5205,3.14582 4.52051,-2.11701 4.5205,-3.28928 4.52051,-0.85839 4.52051,-3.64052 4.5205,-1.35043 4.52051,-2.90366 4.52051,-0.5492 4.5205,-0.1994 4.52051,-2.28501 4.5205,2.03266 4.52051,0.29665 4.52051,0.87627 4.5205,-1.31466 4.52051,-0.65331 4.52051,-3.39127 4.5205,0.1337 4.52051,1.89079 4.52051,-3.56623 4.5205,3.13262 4.52051,1.8498 4.5205,-2.02025 4.52051,0.72954 4.52051,-0.79264 4.5205,-3.80272 4.52051,1.40649 4.52051,3.43859 4.5205,2.51261 4.52051,-0.65619 4.5205,-0.32494 4.52051,-2.10234 4.52051,-0.0966 4.5205,-2.41363 4.52051,-3.5427 4.52051,3.43887 4.5205,-2.96389 4.52051,2.20115 4.52051,-0.51316 4.5205,0.4904 4.52051,3.66956 4.5205,3.79378 4.52051,-2.10058 4.52051,2.75922 4.5205,1.26731 4.52051,-3.08523 4.52051,2.66431 4.5205,-5.26699 4.52051,-1.62425 4.52051,2.71533 4.5205,-0.28332 4.52051,-0.18583 4.5205,-1.98732 4.52051,-3.35635 4.52051,-2.28032 4.5205,-6.15461 4.52051,1.10967"
         style="fill:none;stroke:#2ca02c;stroke-width:1.5;stroke-linecap:square;stroke-linejoin:round;stroke-miterlimit:10;stroke-dasharray:none;stroke-opacity:1"
         id="path304" /></g><g
       id="g308"
       clip-path="url(#clipPath312)"
       style="stroke:#9467bd;stroke-opacity:1"
       transform="matrix(0.57537047,0,0,0.57537047,8.9248504,141.97794)"><path
         d="m 57.6,266.78145 4.520506,2.4843 4.520507,-8.34081 4.520506,-8.48631 4.520506,-5.73836 4.520507,-6.97139 4.520506,-3.32681 4.520506,-3.9142 4.520507,-4.74258 4.520506,0.0647 4.520503,-4.65079 4.52051,-2.59945 4.52051,-2.33156 4.5205,-7.37712 4.52051,-2.5371 4.52051,-1.62013 4.5205,-2.47514 4.52051,1.60444 4.5205,-2.5055 4.52051,-3.24996 4.52051,-1.82988 4.5205,0.0569 4.52051,-3.49936 4.52051,-3.25519 4.5205,3.23908 4.52051,-2.19695 4.5205,-2.64961 4.52051,-0.72134 4.52051,-3.832 4.5205,-0.58759 4.52051,-3.19799 4.52051,-0.61097 4.5205,-0.48359 4.52051,-2.84816 4.5205,2.36024 4.52051,0.0285 4.52051,1.22046 4.5205,-1.30432 4.52051,-1.1295 4.52051,-3.26021 4.5205,0.90733 4.52051,1.11465 4.52051,-4.02126 4.5205,1.92665 4.52051,1.70354 4.5205,-1.72089 4.52051,0.22704 4.52051,0.13876 4.5205,-3.59701 4.52051,1.02719 4.52051,4.24224 4.5205,3.19094 4.52051,-0.64277 4.5205,0.12576 4.52051,-1.74594 4.52051,-0.0511 4.5205,-2.98449 4.52051,-3.15285 4.52051,3.71737 4.5205,-2.26606 4.52051,1.58062 4.52051,-1.59339 4.5205,-0.44368 4.52051,3.56623 4.5205,3.77175 4.52051,-1.73563 4.52051,1.35475 4.5205,2.25541 4.52051,-4.29482 4.52051,2.58138 4.5205,-4.66777 4.52051,-2.28875 4.52051,4.82699 4.5205,-0.55869 4.52051,-2.95296 4.5205,-1.01878 4.52051,0.26969 4.52051,-5.91046 4.5205,-3.27512 4.52051,-0.0225"
         style="fill:none;stroke:#9467bd;stroke-width:1.5;stroke-linecap:square;stroke-linejoin:round;stroke-miterlimit:10;stroke-dasharray:none;stroke-opacity:1"
         id="path314" /></g></g><g
     inkscape:groupmode="layer"
     id="layer1"
     inkscape:label="text"
     style="display:inline"
     transform="translate(-28.023958,-17.206427)"><text
       style="font-variant:normal;font-weight:normal;font-size:7.6716px;font-family:'DejaVu Sans';-inkscape-font-specification:DejaVuSans;writing-mode:lr-tb;fill:#000000;fill-opacity:1;fill-rule:nonzero;stroke:none;stroke-width:0.76716"
       id="text32"
       x="47.547596"
       y="253.52742"><tspan
         x="47.547596 52.426735 54.866306 59.745453"
         y="253.52742"
         sodipodi:role="line"
         id="tspan30"
         style="stroke-width:0.76716">0.00</tspan></text><text
       style="font-variant:normal;font-weight:normal;font-size:7.6716px;font-family:'DejaVu Sans';-inkscape-font-specification:DejaVuSans;writing-mode:lr-tb;fill:#000000;fill-opacity:1;fill-rule:nonzero;stroke:none;stroke-width:0.76716"
       id="text50"
       x="82.227142"
       y="253.52742"><tspan
         x="82.227142 87.106277 89.545853 94.424995"
         y="253.52742"
         sodipodi:role="line"
         id="tspan48"
         style="stroke-width:0.76716">0.25</tspan></text><text
       style="font-variant:normal;font-weight:normal;font-size:7.6716px;font-family:'DejaVu Sans';-inkscape-font-specification:DejaVuSans;writing-mode:lr-tb;fill:#000000;fill-opacity:1;fill-rule:nonzero;stroke:none;stroke-width:0.76716"
       id="text68"
       x="116.90668"
       y="253.52742"><tspan
         x="116.90668 121.78581 124.2254 129.10454"
         y="253.52742"
         sodipodi:role="line"
         id="tspan66"
         style="stroke-width:0.76716">0.50</tspan></text><text
       style="font-variant:normal;font-weight:normal;font-size:7.6716px;font-family:'DejaVu Sans';-inkscape-font-specification:DejaVuSans;writing-mode:lr-tb;fill:#000000;fill-opacity:1;fill-rule:nonzero;stroke:none;stroke-width:0.76716"
       id="text86"
       x="151.58623"
       y="253.52742"><tspan
         x="151.58623 156.46536 158.90494 163.78409"
         y="253.52742"
         sodipodi:role="line"
         id="tspan84"
         style="stroke-width:0.76716">0.75</tspan></text><text
       style="font-variant:normal;font-weight:normal;font-size:7.6716px;font-family:'DejaVu Sans';-inkscape-font-specification:DejaVuSans;writing-mode:lr-tb;fill:#000000;fill-opacity:1;fill-rule:nonzero;stroke:none;stroke-width:0.76716"
       id="text104"
       x="186.26578"
       y="253.52742"><tspan
         x="186.26578 191.14491 193.58449 198.46362"
         y="253.52742"
         sodipodi:role="line"
         id="tspan102"
         style="stroke-width:0.76716">1.00</tspan></text><text
       style="font-variant:normal;font-weight:normal;font-size:7.6716px;font-family:'DejaVu Sans';-inkscape-font-specification:DejaVuSans;writing-mode:lr-tb;fill:#000000;fill-opacity:1;fill-rule:nonzero;stroke:none;stroke-width:0.76716"
       id="text122"
       x="220.9453"
       y="253.52742"><tspan
         x="220.9453 225.82446 228.26402 233.14314"
         y="253.52742"
         sodipodi:role="line"
         id="tspan120"
         style="stroke-width:0.76716">1.25</tspan></text><text
       style="font-variant:normal;font-weight:normal;font-size:7.6716px;font-family:'DejaVu Sans';-inkscape-font-specification:DejaVuSans;writing-mode:lr-tb;fill:#000000;fill-opacity:1;fill-rule:nonzero;stroke:none;stroke-width:0.76716"
       id="text140"
       x="255.62486"
       y="253.52742"><tspan
         x="255.62486 260.50397 262.94357 267.82269"
         y="253.52742"
         sodipodi:role="line"
         id="tspan138"
         style="stroke-width:0.76716">1.50</tspan></text><text
       style="font-variant:normal;font-weight:normal;font-size:7.6716px;font-family:'DejaVu Sans';-inkscape-font-specification:DejaVuSans;writing-mode:lr-tb;fill:#000000;fill-opacity:1;fill-rule:nonzero;stroke:none;stroke-width:0.76716"
       id="text158"
       x="290.30438"
       y="253.52742"><tspan
         x="290.30438 295.18356 297.62311 302.50226"
         y="253.52742"
         sodipodi:role="line"
         id="tspan156"
         style="stroke-width:0.76716">1.75</tspan></text><text
       style="font-variant:normal;font-weight:normal;font-size:7.6716px;font-family:'DejaVu Sans';-inkscape-font-specification:DejaVuSans;writing-mode:lr-tb;fill:#000000;fill-opacity:1;fill-rule:nonzero;stroke:none;stroke-width:0.76716"
       id="text162"
       x="146.64125"
       y="264.01617"><tspan
         x="146.64125 152.58675 157.30478 162.16858 166.86362 174.33574 176.46844 180.68784 183.12741 187.99887 190.13158 194.12848 197.13576 201.83847 206.70226 210.92166 215.63968 218.07925 220.66458 223.10414 229.72473 234.59622"
         y="264.01617"
         sodipodi:role="line"
         id="tspan160"
         style="stroke-width:0.76716">Genomic distance / Mbp</tspan></text><text
       style="font-variant:normal;font-weight:normal;font-size:7.6716px;font-family:'DejaVu Sans';-inkscape-font-specification:DejaVuSans;writing-mode:lr-tb;fill:#000000;fill-opacity:1;fill-rule:nonzero;stroke:none;stroke-width:0.76716"
       id="text180"
       x="38.515476"
       y="245.24451"><tspan
         x="38.515476 43.394619 45.834187"
         y="245.24451"
         sodipodi:role="line"
         id="tspan178"
         style="stroke-width:0.76716">0.0</tspan></text><text
       style="font-variant:normal;font-weight:normal;font-size:7.6716px;font-family:'DejaVu Sans';-inkscape-font-specification:DejaVuSans;writing-mode:lr-tb;fill:#000000;fill-opacity:1;fill-rule:nonzero;stroke:none;stroke-width:0.76716"
       id="text198"
       x="38.515476"
       y="204.41437"><tspan
         x="38.515476 43.394619 45.834187"
         y="204.41437"
         sodipodi:role="line"
         id="tspan196"
         style="stroke-width:0.76716">0.2</tspan></text><text
       style="font-variant:normal;font-weight:normal;font-size:7.6716px;font-family:'DejaVu Sans';-inkscape-font-specification:DejaVuSans;writing-mode:lr-tb;fill:#000000;fill-opacity:1;fill-rule:nonzero;stroke:none;stroke-width:0.76716"
       id="text216"
       x="38.515476"
       y="163.58423"><tspan
         x="38.515476 43.394619 45.834187"
         y="163.58423"
         sodipodi:role="line"
         id="tspan214"
         style="stroke-width:0.76716">0.4</tspan></text><text
       style="font-variant:normal;font-weight:normal;font-size:7.6716px;font-family:'DejaVu Sans';-inkscape-font-specification:DejaVuSans;writing-mode:lr-tb;fill:#000000;fill-opacity:1;fill-rule:nonzero;stroke:none;stroke-width:0.76716"
       id="text234"
       x="38.515476"
       y="122.75411"><tspan
         x="38.515476 43.394619 45.834187"
         y="122.75411"
         sodipodi:role="line"
         id="tspan232"
         style="stroke-width:0.76716">0.6</tspan></text><text
       style="font-variant:normal;font-weight:normal;font-size:7.6716px;font-family:'DejaVu Sans';-inkscape-font-specification:DejaVuSans;writing-mode:lr-tb;fill:#000000;fill-opacity:1;fill-rule:nonzero;stroke:none;stroke-width:0.76716"
       id="text252"
       x="38.515476"
       y="81.923981"><tspan
         x="38.515476 43.394619 45.834187"
         y="81.923981"
         sodipodi:role="line"
         id="tspan250"
         style="stroke-width:0.76716">0.8</tspan></text><text
       style="font-variant:normal;font-weight:normal;font-size:7.6716px;font-family:'DejaVu Sans';-inkscape-font-specification:DejaVuSans;writing-mode:lr-tb;fill:#000000;fill-opacity:1;fill-rule:nonzero;stroke:none;stroke-width:0.76716"
       id="text270"
       x="38.515476"
       y="41.093914"><tspan
         x="38.515476 43.394619 45.834187"
         y="41.093914"
         sodipodi:role="line"
         id="tspan268"
         style="stroke-width:0.76716">1.0</tspan></text><text
       transform="rotate(-90)"
       style="font-variant:normal;font-weight:normal;font-size:7.6716px;font-family:'DejaVu Sans';-inkscape-font-specification:DejaVuSans;writing-mode:lr-tb;fill:#000000;fill-opacity:1;fill-rule:nonzero;stroke:none;stroke-width:0.76716"
       id="text274"
       x="-177.31981"
       y="33.852581"><tspan
         x="-177.31981 -172.69382 -167.97578 -163.2731 -160.12007 -156.12315 -151.42813 -146.56435 -144.12477 -139.9054 -135.21036 -132.05731 -128.9043 -124.18626 -122.05356 -117.35084 -114.34358 -112.21088 -107.51586"
         y="33.852581"
         sodipodi:role="line"
         id="tspan272"
         style="stroke-width:0.76716">Pearson correlation</tspan></text><text
       style="font-variant:normal;font-weight:normal;font-size:9.20593px;font-family:'DejaVu Sans';-inkscape-font-specification:DejaVuSans;writing-mode:lr-tb;fill:#000000;fill-opacity:1;fill-rule:nonzero;stroke:none;stroke-width:0.76716"
       id="text338"
       x="98.334099"
       y="23.259819"><tspan
         x="98.334099 103.88528 109.54692 115.19016 118.97379 123.77008 129.40411 135.24066 138.16815 143.23141 148.86543 152.64908 156.43271 162.09436 164.65359 170.29683 173.90556 176.46481 182.09883 187.93539 190.86287 196.31279 201.10907 204.03654 206.96405 212.80981 218.47147 224.308 229.94205 238.90863 241.46786 246.53111 249.4586 255.30437 257.86362 262.65991 266.26862 271.91187 277.74841 282.81168"
         y="23.259819"
         sodipodi:role="line"
         id="tspan336"
         style="stroke-width:0.76716">Pearson correlation vs. genomic distance</tspan></text><text
       style="font-variant:normal;font-weight:normal;font-size:9.20593px;font-family:'DejaVu Sans';-inkscape-font-specification:DejaVuSans;writing-mode:lr-tb;fill:#000000;fill-opacity:1;fill-rule:nonzero;stroke:none;stroke-width:0.76716"
       id="text342"
       x="61.063576"
       y="33.578129"><tspan
         x="61.063576 68.198166 76.142883 81.997856 87.852821 93.707787 99.562759 105.41773 108.34521 111.27271 117.12767 120.05516 125.91013 128.83762 134.69258 137.62007 143.47504 146.40251 152.25749 155.18497 161.03995 166.89491 169.8224 175.67737 181.53233 184.45984 190.3148 196.16975 199.09724 204.95221 210.80719 213.73466 219.58965 225.44461 228.37209 234.22707 240.08205 243.00952 248.8645 254.71947 257.64694 263.50192 269.3569 272.28436 277.9184 283.75497 286.68246 292.7215 298.57651 304.43146 310.28644 313.21393 316.14142 321.99637"
         y="33.578129"
         sodipodi:role="line"
         id="tspan340"
         style="stroke-width:0.76716">GM12878, 1,2,4,7,9,11,13,14,16,17,18,20,22 on K562, 10</tspan></text><text
       style="font-variant:normal;font-weight:normal;font-size:7.6716px;font-family:'DejaVu Sans';-inkscape-font-specification:DejaVuSans;writing-mode:lr-tb;fill:#000000;fill-opacity:1;fill-rule:nonzero;stroke:none;stroke-width:0.76716"
       id="text348"
       x="93.362671"
       y="187.91794"><tspan
         x="93.362671 97.359573 101.57896 106.27399 109.42699 114.14503 116.58459 118.71731 123.41235 127.40928 131.40613 133.8457 136.28528 141.16441 146.04356 150.92271 155.64073 160.51219 162.95177 165.53709 167.97667 173.22408 178.83968 184.19447 186.7798 189.21938 194.0985 196.53807 201.41722 206.29637"
         y="187.91794"
         sodipodi:role="line"
         id="tspan346"
         style="stroke-width:0.76716">score loss, 250ep / AUC: 0.569</tspan></text><text
       style="font-variant:normal;font-weight:normal;font-size:7.6716px;font-family:'DejaVu Sans';-inkscape-font-specification:DejaVuSans;writing-mode:lr-tb;fill:#000000;fill-opacity:1;fill-rule:nonzero;stroke:none;stroke-width:0.76716"
       id="text354"
       x="93.362671"
       y="199.17361"><tspan
         x="93.362671 97.359573 101.57896 106.27399 109.42699 114.14503 116.58459 118.71731 123.41235 127.40928 131.40613 133.8457 136.28528 141.16441 146.04356 150.92271 155.64073 160.51219 162.95177 165.53709 167.97667 173.22408 178.83968 184.19447 186.7798 189.21938 194.0985 196.53807 201.41722 206.29637"
         y="199.17361"
         sodipodi:role="line"
         id="tspan352"
         style="stroke-width:0.76716">score loss, 500ep / AUC: 0.570</tspan></text><text
       style="font-variant:normal;font-weight:normal;font-size:7.6716px;font-family:'DejaVu Sans';-inkscape-font-specification:DejaVuSans;writing-mode:lr-tb;fill:#000000;fill-opacity:1;fill-rule:nonzero;stroke:none;stroke-width:0.76716"
       id="text360"
       x="93.362671"
       y="210.42931"><tspan
         x="93.362671 97.359573 101.57896 106.27399 109.42699 114.14503 116.58459 118.71731 123.41235 127.40928 131.40613 133.8457 136.28528 141.16441 146.04356 150.92271 155.80186 160.51988 165.39134 167.83092 170.41624 172.85582 178.10323 183.71883 189.07359 191.65895 194.0985 198.97765 201.41722 206.29637 211.17552"
         y="210.42931"
         sodipodi:role="line"
         id="tspan358"
         style="stroke-width:0.76716">score loss, 1000ep / AUC: 0.568</tspan></text><text
       style="font-variant:normal;font-weight:normal;font-size:7.6716px;font-family:'DejaVu Sans';-inkscape-font-specification:DejaVuSans;writing-mode:lr-tb;fill:#000000;fill-opacity:1;fill-rule:nonzero;stroke:none;stroke-width:0.76716"
       id="text366"
       x="93.362671"
       y="221.685"><tspan
         x="93.362671 95.495377 100.35918 102.49187 105.49911 107.63186 112.33456 114.46722 116.90681 119.34637 124.22552 129.10464 133.9838 138.70183 143.5733 146.01286 148.59821 151.03777 156.28517 161.90077 167.25554 169.8409 172.28044 177.15959 179.59917 184.47832 189.35747"
         y="221.685"
         sodipodi:role="line"
         id="tspan364"
         style="stroke-width:0.76716">initial, 500ep / AUC: 0.575</tspan></text><text
       style="font-variant:normal;font-weight:normal;font-size:7.6716px;font-family:'DejaVu Sans';-inkscape-font-specification:DejaVuSans;writing-mode:lr-tb;fill:#000000;fill-opacity:1;fill-rule:nonzero;stroke:none;stroke-width:0.76716"
       id="text372"
       x="93.362671"
       y="232.94067"><tspan
         x="93.362671 96.369949 99.52298 104.22565 109.08945 113.08633 115.78678 120.50481 123.65784 126.0974 132.04288 138.66348 143.54262 148.42175 153.30089 158.18004 163.05916 165.49873 168.08406 170.52364 175.77104 181.38664 186.74144 189.32677 191.76634 196.64549 199.08504 203.96419 208.84334"
         y="232.94067"
         sodipodi:role="line"
         id="tspan370"
         style="stroke-width:0.76716">transfer GM12878 / AUC: 0.720</tspan></text></g></svg>
