<?xml version="1.0" encoding="UTF-8" standalone="no"?>
<svg
   xmlns:dc="http://purl.org/dc/elements/1.1/"
   xmlns:cc="http://creativecommons.org/ns#"
   xmlns:rdf="http://www.w3.org/1999/02/22-rdf-syntax-ns#"
   xmlns:svg="http://www.w3.org/2000/svg"
   xmlns="http://www.w3.org/2000/svg"
   xmlns:sodipodi="http://sodipodi.sourceforge.net/DTD/sodipodi-0.dtd"
   xmlns:inkscape="http://www.inkscape.org/namespaces/inkscape"
   version="1.1"
   id="svg2"
   xml:space="preserve"
   width="80mm"
   height="65.300003mm"
   viewBox="0 0 302.3622 246.80316"
   sodipodi:docname="pearson_chr03.svg"
   inkscape:version="1.0.2 (1.0.2+r75+1)"><metadata
     id="metadata8"><rdf:RDF><cc:Work
         rdf:about=""><dc:format>image/svg+xml</dc:format><dc:type
           rdf:resource="http://purl.org/dc/dcmitype/StillImage" /><dc:title /></cc:Work></rdf:RDF></metadata><defs
     id="defs6"><clipPath
       clipPathUnits="userSpaceOnUse"
       id="clipPath22"><path
         d="M 57.6,38.016 H 414.72 V 304.128 H 57.6 Z"
         id="path20" /></clipPath><clipPath
       clipPathUnits="userSpaceOnUse"
       id="clipPath40"><path
         d="M 57.6,38.016 H 414.72 V 304.128 H 57.6 Z"
         id="path38" /></clipPath><clipPath
       clipPathUnits="userSpaceOnUse"
       id="clipPath58"><path
         d="M 57.6,38.016 H 414.72 V 304.128 H 57.6 Z"
         id="path56" /></clipPath><clipPath
       clipPathUnits="userSpaceOnUse"
       id="clipPath76"><path
         d="M 57.6,38.016 H 414.72 V 304.128 H 57.6 Z"
         id="path74" /></clipPath><clipPath
       clipPathUnits="userSpaceOnUse"
       id="clipPath94"><path
         d="M 57.6,38.016 H 414.72 V 304.128 H 57.6 Z"
         id="path92" /></clipPath><clipPath
       clipPathUnits="userSpaceOnUse"
       id="clipPath112"><path
         d="M 57.6,38.016 H 414.72 V 304.128 H 57.6 Z"
         id="path110" /></clipPath><clipPath
       clipPathUnits="userSpaceOnUse"
       id="clipPath130"><path
         d="M 57.6,38.016 H 414.72 V 304.128 H 57.6 Z"
         id="path128" /></clipPath><clipPath
       clipPathUnits="userSpaceOnUse"
       id="clipPath148"><path
         d="M 57.6,38.016 H 414.72 V 304.128 H 57.6 Z"
         id="path146" /></clipPath><clipPath
       clipPathUnits="userSpaceOnUse"
       id="clipPath170"><path
         d="M 57.6,38.016 H 414.72 V 304.128 H 57.6 Z"
         id="path168" /></clipPath><clipPath
       clipPathUnits="userSpaceOnUse"
       id="clipPath188"><path
         d="M 57.6,38.016 H 414.72 V 304.128 H 57.6 Z"
         id="path186" /></clipPath><clipPath
       clipPathUnits="userSpaceOnUse"
       id="clipPath206"><path
         d="M 57.6,38.016 H 414.72 V 304.128 H 57.6 Z"
         id="path204" /></clipPath><clipPath
       clipPathUnits="userSpaceOnUse"
       id="clipPath224"><path
         d="M 57.6,38.016 H 414.72 V 304.128 H 57.6 Z"
         id="path222" /></clipPath><clipPath
       clipPathUnits="userSpaceOnUse"
       id="clipPath242"><path
         d="M 57.6,38.016 H 414.72 V 304.128 H 57.6 Z"
         id="path240" /></clipPath><clipPath
       clipPathUnits="userSpaceOnUse"
       id="clipPath260"><path
         d="M 57.6,38.016 H 414.72 V 304.128 H 57.6 Z"
         id="path258" /></clipPath><clipPath
       clipPathUnits="userSpaceOnUse"
       id="clipPath282"><path
         d="M 57.6,38.016 H 414.72 V 304.128 H 57.6 Z"
         id="path280" /></clipPath><clipPath
       clipPathUnits="userSpaceOnUse"
       id="clipPath292"><path
         d="M 57.6,38.016 H 414.72 V 304.128 H 57.6 Z"
         id="path290" /></clipPath><clipPath
       clipPathUnits="userSpaceOnUse"
       id="clipPath302"><path
         d="M 57.6,38.016 H 414.72 V 304.128 H 57.6 Z"
         id="path300" /></clipPath><clipPath
       clipPathUnits="userSpaceOnUse"
       id="clipPath312"><path
         d="M 57.6,38.016 H 414.72 V 304.128 H 57.6 Z"
         id="path310" /></clipPath><clipPath
       clipPathUnits="userSpaceOnUse"
       id="clipPath322"><path
         d="M 57.6,38.016 H 414.72 V 304.128 H 57.6 Z"
         id="path320" /></clipPath></defs><sodipodi:namedview
     pagecolor="#ffffff"
     bordercolor="#666666"
     borderopacity="1"
     objecttolerance="10"
     gridtolerance="10"
     guidetolerance="10"
     inkscape:pageopacity="0"
     inkscape:pageshadow="2"
     inkscape:window-width="1920"
     inkscape:window-height="1020"
     id="namedview4"
     showgrid="false"
     fit-margin-top="0"
     fit-margin-left="0"
     fit-margin-right="0"
     fit-margin-bottom="0"
     units="mm"
     inkscape:zoom="1.8598091"
     inkscape:cx="135.86286"
     inkscape:cy="246.60828"
     inkscape:window-x="0"
     inkscape:window-y="0"
     inkscape:window-maximized="1"
     inkscape:current-layer="g10"
     inkscape:document-rotation="0" /><g
     id="g10"
     inkscape:groupmode="layer"
     inkscape:label="pearson_chr03"
     transform="matrix(1.3333333,0,0,-1.3333333,-28.023958,443.59358)"><path
       d="M 57.6,38.016 V 304.128"
       style="fill:none;stroke:#b0b0b0;stroke-width:0.8;stroke-linecap:square;stroke-linejoin:round;stroke-miterlimit:10;stroke-dasharray:none;stroke-opacity:1"
       id="path24"
       transform="matrix(0.57520938,0,0,0.57520938,8.9282365,141.96732)" /><path
       d="M 102.80506,38.016 V 304.128"
       style="fill:none;stroke:#b0b0b0;stroke-width:0.8;stroke-linecap:square;stroke-linejoin:round;stroke-miterlimit:10;stroke-dasharray:none;stroke-opacity:1"
       id="path42"
       transform="matrix(0.57520938,0,0,0.57520938,8.9282365,141.96732)" /><path
       d="M 148.01013,38.016 V 304.128"
       style="fill:none;stroke:#b0b0b0;stroke-width:0.8;stroke-linecap:square;stroke-linejoin:round;stroke-miterlimit:10;stroke-dasharray:none;stroke-opacity:1"
       id="path60"
       transform="matrix(0.57520938,0,0,0.57520938,8.9282365,141.96732)" /><path
       d="M 193.21519,38.016 V 304.128"
       style="fill:none;stroke:#b0b0b0;stroke-width:0.8;stroke-linecap:square;stroke-linejoin:round;stroke-miterlimit:10;stroke-dasharray:none;stroke-opacity:1"
       id="path78"
       transform="matrix(0.57520938,0,0,0.57520938,8.9282365,141.96732)" /><path
       d="M 238.42025,38.016 V 304.128"
       style="fill:none;stroke:#b0b0b0;stroke-width:0.8;stroke-linecap:square;stroke-linejoin:round;stroke-miterlimit:10;stroke-dasharray:none;stroke-opacity:1"
       id="path96"
       transform="matrix(0.57520938,0,0,0.57520938,8.9282365,141.96732)" /><path
       d="M 283.62532,38.016 V 304.128"
       style="fill:none;stroke:#b0b0b0;stroke-width:0.8;stroke-linecap:square;stroke-linejoin:round;stroke-miterlimit:10;stroke-dasharray:none;stroke-opacity:1"
       id="path114"
       transform="matrix(0.57520938,0,0,0.57520938,8.9282365,141.96732)" /><path
       d="M 198.07456,163.83448 V 316.9046"
       style="fill:none;stroke:#b0b0b0;stroke-width:0.460167;stroke-linecap:square;stroke-linejoin:round;stroke-miterlimit:10;stroke-dasharray:none;stroke-opacity:1"
       id="path132" /><path
       d="M 374.03544,38.016 V 304.128"
       style="fill:none;stroke:#b0b0b0;stroke-width:0.8;stroke-linecap:square;stroke-linejoin:round;stroke-miterlimit:10;stroke-dasharray:none;stroke-opacity:1"
       id="path150"
       transform="matrix(0.57520938,0,0,0.57520938,8.9282365,141.96732)" /><path
       d="M 57.6,38.016 H 414.72"
       style="fill:none;stroke:#b0b0b0;stroke-width:0.8;stroke-linecap:square;stroke-linejoin:round;stroke-miterlimit:10;stroke-dasharray:none;stroke-opacity:1"
       id="path172"
       transform="matrix(0.57520938,0,0,0.57520938,8.9282365,141.96732)" /><path
       d="M 57.6,91.2384 H 414.72"
       style="fill:none;stroke:#b0b0b0;stroke-width:0.8;stroke-linecap:square;stroke-linejoin:round;stroke-miterlimit:10;stroke-dasharray:none;stroke-opacity:1"
       id="path190"
       transform="matrix(0.57520938,0,0,0.57520938,8.9282365,141.96732)" /><path
       d="M 57.6,144.4608 H 414.72"
       style="fill:none;stroke:#b0b0b0;stroke-width:0.8;stroke-linecap:square;stroke-linejoin:round;stroke-miterlimit:10;stroke-dasharray:none;stroke-opacity:1"
       id="path208"
       transform="matrix(0.57520938,0,0,0.57520938,8.9282365,141.96732)" /><path
       d="M 57.6,197.6832 H 414.72"
       style="fill:none;stroke:#b0b0b0;stroke-width:0.8;stroke-linecap:square;stroke-linejoin:round;stroke-miterlimit:10;stroke-dasharray:none;stroke-opacity:1"
       id="path226"
       transform="matrix(0.57520938,0,0,0.57520938,8.9282365,141.96732)" /><path
       d="M 57.6,250.9056 H 414.72"
       style="fill:none;stroke:#b0b0b0;stroke-width:0.8;stroke-linecap:square;stroke-linejoin:round;stroke-miterlimit:10;stroke-dasharray:none;stroke-opacity:1"
       id="path244"
       transform="matrix(0.57520938,0,0,0.57520938,8.9282365,141.96732)" /><path
       d="M 57.6,304.128 H 414.72"
       style="fill:none;stroke:#b0b0b0;stroke-width:0.8;stroke-linecap:square;stroke-linejoin:round;stroke-miterlimit:10;stroke-dasharray:none;stroke-opacity:1"
       id="path262"
       transform="matrix(0.57520938,0,0,0.57520938,8.9282365,141.96732)" /><path
       d="m 42.060296,285.44414 2.600238,-2.99216 2.600238,-2.44488 2.600237,-1.45749 2.600238,0.29442 2.600238,1.01797 2.600237,0.0156 2.600238,0.80575 2.600238,0.78485 2.600237,-0.61725 2.600236,1.16231 2.60024,0.93894 2.600239,-0.23851 2.600234,-1.54883 2.60024,-1.03878 2.600239,-2.4373 2.600235,-1.48799 2.60024,-0.97601 2.600233,-1.61576 2.60024,-1.63251 2.60024,-2.39424 2.600234,0.0941 2.60024,-0.95849 2.600245,-1.7011 2.60023,-1.46591 2.60024,-1.05632 2.60024,-1.00512 2.60024,-3.76601 2.60024,1.79221 2.60023,-1.10024 2.60024,0.71206 2.60023,-0.79587 2.60023,0.75776 2.60024,-1.09447 2.60024,-2.09925 2.60024,0.38859 2.60024,0.22263 2.60023,-1.46306 2.60024,2.99282 2.60024,0.10722 2.60024,-0.667 2.60024,-0.80102 2.60024,-0.11402 2.60023,0.94558 2.60024,1.95519 2.60024,-0.6673 2.60024,-1.65653 2.60024,-0.0879 2.60023,3.48578 2.60024,-1.08355 2.60024,-3.05277 2.60024,4.00134 2.60024,-1.6812 2.60023,-2.89155 2.60024,-1.23325 2.60024,3.32353 2.60023,-0.91758 2.60024,-1.65735 2.60024,0.0201 2.60024,1.46107 2.60024,0.3708 2.60024,0.17508 2.60022,-1.62655 2.60024,1.94791 2.60024,-4.28824 2.60024,1.99009 2.60024,-4.35901 2.60023,1.95367 2.60024,-0.5769 2.60024,-3.05134 2.60024,1.53204 2.60024,0.73645 2.60024,-0.19873 2.60023,-2.20712 2.60024,-1.87052 2.60024,0.59451 2.60024,1.44363 2.60024,-3.6178 2.60023,1.66003 2.60024,0.0974"
       style="fill:none;stroke:#d62728;stroke-width:0.862814;stroke-linecap:square;stroke-linejoin:round;stroke-miterlimit:10;stroke-dasharray:none;stroke-opacity:1"
       id="path324" /><g
       id="g16"
       transform="matrix(0.57520938,0,0,0.57520938,8.9282362,141.96732)"><g
         id="g18"
         clip-path="url(#clipPath22)" /></g><path
       d="m 42.060296,163.83448 v -2.01324"
       style="fill:#000000;fill-opacity:1;fill-rule:nonzero;stroke:#000000;stroke-width:0.460168;stroke-linecap:butt;stroke-linejoin:round;stroke-miterlimit:10;stroke-dasharray:none;stroke-opacity:1"
       id="path28" /><g
       id="g34"
       transform="matrix(0.57520938,0,0,0.57520938,8.9282362,141.96732)"><g
         id="g36"
         clip-path="url(#clipPath40)" /></g><path
       d="m 68.062671,163.83448 v -2.01324"
       style="fill:#000000;fill-opacity:1;fill-rule:nonzero;stroke:#000000;stroke-width:0.460168;stroke-linecap:butt;stroke-linejoin:round;stroke-miterlimit:10;stroke-dasharray:none;stroke-opacity:1"
       id="path46" /><g
       id="g52"
       transform="matrix(0.57520938,0,0,0.57520938,8.9282362,141.96732)"><g
         id="g54"
         clip-path="url(#clipPath58)" /></g><path
       d="m 94.065051,163.83448 v -2.01324"
       style="fill:#000000;fill-opacity:1;fill-rule:nonzero;stroke:#000000;stroke-width:0.460168;stroke-linecap:butt;stroke-linejoin:round;stroke-miterlimit:10;stroke-dasharray:none;stroke-opacity:1"
       id="path64" /><g
       id="g70"
       transform="matrix(0.57520938,0,0,0.57520938,8.9282362,141.96732)"><g
         id="g72"
         clip-path="url(#clipPath76)" /></g><path
       d="m 120.06743,163.83448 v -2.01324"
       style="fill:#000000;fill-opacity:1;fill-rule:nonzero;stroke:#000000;stroke-width:0.460168;stroke-linecap:butt;stroke-linejoin:round;stroke-miterlimit:10;stroke-dasharray:none;stroke-opacity:1"
       id="path82" /><g
       id="g88"
       transform="matrix(0.57520938,0,0,0.57520938,8.9282362,141.96732)"><g
         id="g90"
         clip-path="url(#clipPath94)" /></g><path
       d="m 146.0698,163.83448 v -2.01324"
       style="fill:#000000;fill-opacity:1;fill-rule:nonzero;stroke:#000000;stroke-width:0.460168;stroke-linecap:butt;stroke-linejoin:round;stroke-miterlimit:10;stroke-dasharray:none;stroke-opacity:1"
       id="path100" /><g
       id="g106"
       transform="matrix(0.57520938,0,0,0.57520938,8.9282362,141.96732)"><g
         id="g108"
         clip-path="url(#clipPath112)" /></g><path
       d="m 172.07218,163.83448 v -2.01324"
       style="fill:#000000;fill-opacity:1;fill-rule:nonzero;stroke:#000000;stroke-width:0.460168;stroke-linecap:butt;stroke-linejoin:round;stroke-miterlimit:10;stroke-dasharray:none;stroke-opacity:1"
       id="path118" /><path
       d="m 198.07456,163.83448 v -2.01324"
       style="fill:#000000;fill-opacity:1;fill-rule:nonzero;stroke:#000000;stroke-width:0.460168;stroke-linecap:butt;stroke-linejoin:round;stroke-miterlimit:10;stroke-dasharray:none;stroke-opacity:1"
       id="path136" /><g
       id="g142"
       transform="matrix(0.57520938,0,0,0.57520938,8.9282362,141.96732)"><g
         id="g144"
         clip-path="url(#clipPath148)" /></g><path
       d="m 224.07693,163.83448 v -2.01324"
       style="fill:#000000;fill-opacity:1;fill-rule:nonzero;stroke:#000000;stroke-width:0.460168;stroke-linecap:butt;stroke-linejoin:round;stroke-miterlimit:10;stroke-dasharray:none;stroke-opacity:1"
       id="path154" /><g
       id="g164"
       transform="matrix(0.57520938,0,0,0.57520938,8.9282362,141.96732)"><g
         id="g166"
         clip-path="url(#clipPath170)" /></g><path
       d="M 42.060296,163.83448 H 40.047064"
       style="fill:#000000;fill-opacity:1;fill-rule:nonzero;stroke:#000000;stroke-width:0.460168;stroke-linecap:butt;stroke-linejoin:round;stroke-miterlimit:10;stroke-dasharray:none;stroke-opacity:1"
       id="path176" /><g
       id="g182"
       transform="matrix(0.57520938,0,0,0.57520938,8.9282362,141.96732)"><g
         id="g184"
         clip-path="url(#clipPath188)" /></g><path
       d="M 42.060296,194.4485 H 40.047064"
       style="fill:#000000;fill-opacity:1;fill-rule:nonzero;stroke:#000000;stroke-width:0.460168;stroke-linecap:butt;stroke-linejoin:round;stroke-miterlimit:10;stroke-dasharray:none;stroke-opacity:1"
       id="path194" /><g
       id="g200"
       transform="matrix(0.57520938,0,0,0.57520938,8.9282362,141.96732)"><g
         id="g202"
         clip-path="url(#clipPath206)" /></g><path
       d="M 42.060296,225.06252 H 40.047064"
       style="fill:#000000;fill-opacity:1;fill-rule:nonzero;stroke:#000000;stroke-width:0.460168;stroke-linecap:butt;stroke-linejoin:round;stroke-miterlimit:10;stroke-dasharray:none;stroke-opacity:1"
       id="path212" /><g
       id="g218"
       transform="matrix(0.57520938,0,0,0.57520938,8.9282362,141.96732)"><g
         id="g220"
         clip-path="url(#clipPath224)" /></g><path
       d="M 42.060296,255.67655 H 40.047064"
       style="fill:#000000;fill-opacity:1;fill-rule:nonzero;stroke:#000000;stroke-width:0.460168;stroke-linecap:butt;stroke-linejoin:round;stroke-miterlimit:10;stroke-dasharray:none;stroke-opacity:1"
       id="path230" /><g
       id="g236"
       transform="matrix(0.57520938,0,0,0.57520938,8.9282362,141.96732)"><g
         id="g238"
         clip-path="url(#clipPath242)" /></g><path
       d="M 42.060296,286.29057 H 40.047064"
       style="fill:#000000;fill-opacity:1;fill-rule:nonzero;stroke:#000000;stroke-width:0.460168;stroke-linecap:butt;stroke-linejoin:round;stroke-miterlimit:10;stroke-dasharray:none;stroke-opacity:1"
       id="path248" /><g
       id="g254"
       transform="matrix(0.57520938,0,0,0.57520938,8.9282362,141.96732)"><g
         id="g256"
         clip-path="url(#clipPath260)" /></g><path
       d="M 42.060296,316.90459 H 40.047064"
       style="fill:#000000;fill-opacity:1;fill-rule:nonzero;stroke:#000000;stroke-width:0.460168;stroke-linecap:butt;stroke-linejoin:round;stroke-miterlimit:10;stroke-dasharray:none;stroke-opacity:1"
       id="path266" /><g
       id="g278"
       clip-path="url(#clipPath282)"
       transform="matrix(0.57520938,0,0,0.57520938,8.9282362,141.96732)"><path
         d="m 57.6,260.26472 4.520506,3.63205 4.520507,-7.32919 4.520506,-7.58384 4.520506,-8.0793 4.520507,-7.07899 4.520506,-4.16344 4.520506,-1.93864 4.520507,-3.4996 4.520506,-1.52433 4.520503,-3.58432 4.52051,-4.61695 4.52051,-2.44802 4.5205,-1.1154 4.52051,0.21578 4.52051,-0.40486 4.5205,-0.12564 4.52051,1.54878 4.5205,-4.4337 4.52051,-0.0995 4.52051,-1.62339 4.5205,-3.78959 4.52051,-3.08703 4.52051,-2.01037 4.5205,-0.61319 4.52051,-3.74254 4.5205,-0.78468 4.52051,0.65581 4.52051,-1.07487 4.5205,-1.60674 4.52051,-2.77604 4.52051,1.47211 4.5205,-1.32409 4.52051,-0.56674 4.5205,0.3894 4.52051,-1.9228 4.52051,-2.29264 4.5205,-1.93699 4.52051,-2.22378 4.52051,-1.14053 4.5205,0.0292 4.52051,0.7572 4.52051,-3.81046 4.5205,-0.73915 4.52051,-2.99251 4.5205,0.1493 4.52051,2.91808 4.52051,-3.01928 4.5205,-1.95694 4.52051,2.09869 4.52051,-0.90842 4.5205,-4.23092 4.52051,0.036 4.5205,0.25745 4.52051,-1.14338 4.52051,-1.69707 4.5205,0.24999 4.52051,-0.66164 4.52051,-2.0884 4.5205,-3.67037 4.52051,-0.95656 4.52051,0.59786 4.5205,-1.41084 4.52051,-0.16174 4.5205,2.1267 4.52051,2.52128 4.52051,-2.64214 4.5205,-2.46821 4.52051,1.21346 4.52051,-0.50504 4.5205,-3.73409 4.52051,-3.44336 4.52051,-0.28316 4.5205,2.34806 4.52051,-1.82432 4.5205,-1.39519 4.52051,-4.04202 4.52051,2.3901 4.5205,-7.46486 4.52051,-2.42116"
         style="fill:none;stroke:#1f77b4;stroke-width:1.5;stroke-linecap:square;stroke-linejoin:round;stroke-miterlimit:10;stroke-dasharray:none;stroke-opacity:1"
         id="path284" /></g><g
       id="g288"
       clip-path="url(#clipPath292)"
       transform="matrix(0.57520938,0,0,0.57520938,8.9282362,141.96732)"><path
         d="m 57.6,260.66195 4.520506,4.14262 4.520507,-6.96312 4.520506,-6.45913 4.520506,-6.88275 4.520507,-6.68638 4.520506,-4.57601 4.520506,-2.63436 4.520507,-4.06134 4.520506,-1.99332 4.520503,-3.18476 4.52051,-4.2359 4.52051,-2.18002 4.5205,-1.23411 4.52051,-0.12618 4.52051,-0.0946 4.5205,-0.18054 4.52051,1.03042 4.5205,-4.46174 4.52051,-0.10045 4.52051,-1.61568 4.5205,-4.04267 4.52051,-3.01379 4.52051,-2.36301 4.5205,-1.14639 4.52051,-3.62106 4.5205,-0.36743 4.52051,0.65779 4.52051,-0.63882 4.5205,-1.6811 4.52051,-3.16367 4.52051,1.09685 4.5205,-1.39686 4.52051,-1.00278 4.5205,-0.0136 4.52051,-2.37692 4.52051,-2.41387 4.5205,-2.10511 4.52051,-2.46071 4.52051,-1.03274 4.5205,0.16485 4.52051,0.15403 4.52051,-3.49821 4.5205,-0.5536 4.52051,-3.51212 4.5205,0.61917 4.52051,2.66716 4.52051,-2.44175 4.5205,-3.32072 4.52051,1.77247 4.52051,-0.16742 4.5205,-3.7455 4.52051,-0.89308 4.5205,0.98273 4.52051,-2.10104 4.52051,-1.72693 4.5205,0.11712 4.52051,-1.8986 4.52051,-1.0683 4.5205,-3.81385 4.52051,-1.1122 4.52051,-0.13072 4.5205,-1.18326 4.52051,0.53267 4.5205,1.2467 4.52051,2.99914 4.52051,-1.88259 4.5205,-3.06683 4.52051,2.06132 4.52051,0.53338 4.5205,-3.4832 4.52051,-4.5546 4.52051,2.4111 4.5205,2.59611 4.52051,-2.23401 4.5205,0.99517 4.52051,-2.20313 4.52051,0.94748 4.5205,-7.66042 4.52051,-0.33192"
         style="fill:none;stroke:#ff7f0e;stroke-width:1.5;stroke-linecap:square;stroke-linejoin:round;stroke-miterlimit:10;stroke-dasharray:none;stroke-opacity:1"
         id="path294" /></g><g
       id="g298"
       clip-path="url(#clipPath302)"
       transform="matrix(0.57520938,0,0,0.57520938,8.9282362,141.96732)"><path
         d="m 57.6,263.60669 4.520506,2.36175 4.520507,-7.16163 4.520506,-6.11406 4.520506,-6.45635 4.520507,-7.04054 4.520506,-5.30514 4.520506,-2.93293 4.520507,-3.63532 4.520506,-1.98807 4.520503,-3.20772 4.52051,-4.50335 4.52051,-2.49459 4.5205,-1.50738 4.52051,0.30733 4.52051,-0.17717 4.5205,0.0276 4.52051,1.01445 4.5205,-4.55122 4.52051,-0.13571 4.52051,-1.2264 4.5205,-3.91927 4.52051,-3.03249 4.52051,-2.19148 4.5205,-1.12804 4.52051,-3.46853 4.5205,-0.11019 4.52051,0.32032 4.52051,-0.90899 4.5205,-1.36896 4.52051,-3.036 4.52051,1.43613 4.5205,-1.50127 4.52051,-0.7116 4.5205,0.47773 4.52051,-2.34439 4.52051,-1.61629 4.5205,-2.563 4.52051,-2.74903 4.52051,-0.94859 4.5205,0.9211 4.52051,-0.19337 4.52051,-3.7972 4.5205,-0.37525 4.52051,-4.20371 4.5205,0.73177 4.52051,2.53316 4.52051,-1.55605 4.5205,-3.21795 4.52051,2.16267 4.52051,-0.28601 4.5205,-3.55117 4.52051,-2.03746 4.5205,1.43646 4.52051,-1.28756 4.52051,-2.2663 4.5205,0.43239 4.52051,-1.74387 4.52051,-1.67501 4.5205,-4.6703 4.52051,-0.96011 4.52051,0.0732 4.5205,-0.49952 4.52051,-0.36823 4.5205,1.52919 4.52051,3.10905 4.52051,-1.90026 4.5205,-2.01967 4.52051,1.74122 4.52051,0.34234 4.5205,-3.33245 4.52051,-3.20258 4.52051,-0.05 4.5205,3.57099 4.52051,-1.09734 4.5205,-0.15015 4.52051,-1.06365 4.52051,0.35201 4.5205,-10.40213 4.52051,7.19956"
         style="fill:none;stroke:#2ca02c;stroke-width:1.5;stroke-linecap:square;stroke-linejoin:round;stroke-miterlimit:10;stroke-dasharray:none;stroke-opacity:1"
         id="path304" /></g><path
       d="m 42.060296,293.28282 2.600238,1.43755 2.600238,-4.3503 2.600237,-3.84591 2.600238,-3.98662 2.600238,-3.8231 2.600237,-2.59098 2.600238,-1.58485 2.600238,-2.20366 2.600237,-1.10235 2.600236,-1.75868 2.60024,-2.38596 2.600239,-1.3516 2.600234,-0.67403 2.60024,-0.12982 2.600239,-0.13122 2.600235,-0.0228 2.60024,0.67059 2.600233,-2.41221 2.60024,0.0277 2.60024,-0.69557 2.600234,-2.24278 2.60024,-1.58586 2.600245,-1.15186 2.60023,-0.44582 2.60024,-1.73384 2.60024,-0.0451 2.60024,0.64339 2.60024,-0.34568 2.60023,-0.62953 2.60024,-1.87441 2.60023,0.74985 2.60023,-1.11631 2.60024,-0.30237 2.60024,0.13035 2.60024,-1.41114 2.60024,-1.01841 2.60023,-1.25524 2.60024,-1.81515 2.60024,-0.61389 2.60024,0.22336 2.60024,0.0691 2.60024,-2.18891 2.60023,-0.6193 2.60024,-1.8721 2.60024,0.0297 2.60024,1.83648 2.60024,-1.30992 2.60023,-2.13585 2.60024,0.75291 2.60024,-0.31806 2.60024,-1.66981 2.60024,-0.68876 2.60023,1.00705 2.60024,-0.61493 2.60024,-1.20143 2.60023,-0.1748 2.60024,-0.51213 2.60024,-1.41834 2.60024,-1.95909 2.60024,-0.45716 2.60024,-0.23771 2.60022,-0.13941 2.60024,-0.44211 2.60024,0.40271 2.60024,1.64499 2.60024,-0.92315 2.60023,-1.24143 2.60024,0.8091 2.60024,0.44394 2.60024,-2.11157 2.60024,-1.66005 2.60024,1.91282 2.60023,0.25538 2.60024,-1.51257 2.60024,0.96113 2.60024,-0.94485 2.60024,2.23593 2.60023,-5.60368 2.60024,-0.46789"
       style="fill:none;stroke:#9467bd;stroke-width:0.862814;stroke-linecap:square;stroke-linejoin:round;stroke-miterlimit:10;stroke-dasharray:none;stroke-opacity:1"
       id="path314" /><path
       d="M 42.060296,163.83448 V 316.90459"
       style="fill:none;stroke:#000000;stroke-width:0.460168;stroke-linecap:square;stroke-linejoin:miter;stroke-miterlimit:10;stroke-dasharray:none;stroke-opacity:1"
       id="path328" /><path
       d="M 247.47907,163.83448 V 316.90459"
       style="fill:none;stroke:#000000;stroke-width:0.460168;stroke-linecap:square;stroke-linejoin:miter;stroke-miterlimit:10;stroke-dasharray:none;stroke-opacity:1"
       id="path330" /><path
       d="M 42.060296,163.83448 H 247.47907"
       style="fill:none;stroke:#000000;stroke-width:0.460168;stroke-linecap:square;stroke-linejoin:miter;stroke-miterlimit:10;stroke-dasharray:none;stroke-opacity:1"
       id="path332" /><path
       d="M 42.060296,316.90459 H 247.47907"
       style="fill:none;stroke:#000000;stroke-width:0.460168;stroke-linecap:square;stroke-linejoin:miter;stroke-miterlimit:10;stroke-dasharray:none;stroke-opacity:1"
       id="path334" /><text
       transform="scale(1,-1)"
       style="font-variant:normal;font-weight:normal;font-size:6.90251px;font-family:'DejaVu Sans';-inkscape-font-specification:DejaVuSans;writing-mode:lr-tb;fill:#000000;fill-opacity:1;fill-rule:nonzero;stroke:none;stroke-width:0.575209"
       id="text342"
       x="47.988224"
       y="-320.35593"><tspan
         x="47.988224 53.337673 59.294537 63.68454 68.074532 72.464531 76.85453 81.24453 83.439529 85.634521 90.024521 92.219528 96.60952 98.804527 103.19452 105.38953 109.77952 111.97451 116.36452 118.55952 122.94952 127.33951 129.53452 133.9245 138.31451 140.50951 144.89949 149.28951 151.48448 155.8745 160.2645 162.4595 166.8495 171.23949 173.43448 177.82449 182.21449 184.40948 188.79948 193.18948 195.38448 199.77448 204.16447 206.35948 210.58382 214.96002 217.15501 221.68304 226.07306 230.46306 234.85306 237.04805 239.24306"
         y="-320.35593"
         sodipodi:role="line"
         id="tspan340"
         style="stroke-width:0.575209">GM12878, 1,2,4,7,9,11,13,14,16,17,18,20,22 on K562, 3</tspan></text><path
       d="M 54.0541,206.66145 H 65.55829"
       style="fill:none;stroke:#1f77b4;stroke-width:0.862814;stroke-linecap:square;stroke-linejoin:round;stroke-miterlimit:10;stroke-dasharray:none;stroke-opacity:1"
       id="path344" /><path
       d="M 54.0541,198.22204 H 65.55829"
       style="fill:none;stroke:#ff7f0e;stroke-width:0.862814;stroke-linecap:square;stroke-linejoin:round;stroke-miterlimit:10;stroke-dasharray:none;stroke-opacity:1"
       id="path350" /><path
       d="M 54.0541,189.78264 H 65.55829"
       style="fill:none;stroke:#2ca02c;stroke-width:0.862814;stroke-linecap:square;stroke-linejoin:round;stroke-miterlimit:10;stroke-dasharray:none;stroke-opacity:1"
       id="path356" /><path
       d="M 54.0541,181.34325 H 65.55829"
       style="fill:none;stroke:#9467bd;stroke-width:0.862814;stroke-linecap:square;stroke-linejoin:round;stroke-miterlimit:10;stroke-dasharray:none;stroke-opacity:1"
       id="path362" /><path
       d="M 54.0541,172.90385 H 65.55829"
       style="fill:none;stroke:#d62728;stroke-width:0.862814;stroke-linecap:square;stroke-linejoin:round;stroke-miterlimit:10;stroke-dasharray:none;stroke-opacity:1"
       id="path368" /></g><g
     inkscape:groupmode="layer"
     id="layer1"
     inkscape:label="text"
     style="display:inline"
     transform="translate(-28.023958,-17.206424)"><text
       style="font-variant:normal;font-weight:normal;font-size:7.66946px;font-family:'DejaVu Sans';-inkscape-font-specification:DejaVuSans;writing-mode:lr-tb;fill:#000000;fill-opacity:1;fill-rule:nonzero;stroke:none;stroke-width:0.766946"
       id="text32"
       x="53.54213"
       y="253.54645"><tspan
         x="53.54213 58.419903 60.858791 65.736572"
         y="253.54645"
         sodipodi:role="line"
         id="tspan30"
         style="stroke-width:0.766946">0.00</tspan></text><text
       style="font-variant:normal;font-weight:normal;font-size:7.66946px;font-family:'DejaVu Sans';-inkscape-font-specification:DejaVuSans;writing-mode:lr-tb;fill:#000000;fill-opacity:1;fill-rule:nonzero;stroke:none;stroke-width:0.766946"
       id="text50"
       x="82.21196"
       y="253.54645"><tspan
         x="82.21196 87.089745 89.528625 94.406403"
         y="253.54645"
         sodipodi:role="line"
         id="tspan48"
         style="stroke-width:0.766946">0.25</tspan></text><text
       style="font-variant:normal;font-weight:normal;font-size:7.66946px;font-family:'DejaVu Sans';-inkscape-font-specification:DejaVuSans;writing-mode:lr-tb;fill:#000000;fill-opacity:1;fill-rule:nonzero;stroke:none;stroke-width:0.766946"
       id="text68"
       x="116.88178"
       y="253.54645"><tspan
         x="116.88178 121.75957 124.19846 129.07623"
         y="253.54645"
         sodipodi:role="line"
         id="tspan66"
         style="stroke-width:0.766946">0.50</tspan></text><text
       style="font-variant:normal;font-weight:normal;font-size:7.66946px;font-family:'DejaVu Sans';-inkscape-font-specification:DejaVuSans;writing-mode:lr-tb;fill:#000000;fill-opacity:1;fill-rule:nonzero;stroke:none;stroke-width:0.766946"
       id="text86"
       x="151.55164"
       y="253.54645"><tspan
         x="151.55164 156.42941 158.8683 163.74608"
         y="253.54645"
         sodipodi:role="line"
         id="tspan84"
         style="stroke-width:0.766946">0.75</tspan></text><text
       style="font-variant:normal;font-weight:normal;font-size:7.66946px;font-family:'DejaVu Sans';-inkscape-font-specification:DejaVuSans;writing-mode:lr-tb;fill:#000000;fill-opacity:1;fill-rule:nonzero;stroke:none;stroke-width:0.766946"
       id="text104"
       x="186.22147"
       y="253.54645"><tspan
         x="186.22147 191.09924 193.53813 198.41589"
         y="253.54645"
         sodipodi:role="line"
         id="tspan102"
         style="stroke-width:0.766946">1.00</tspan></text><text
       style="font-variant:normal;font-weight:normal;font-size:7.66946px;font-family:'DejaVu Sans';-inkscape-font-specification:DejaVuSans;writing-mode:lr-tb;fill:#000000;fill-opacity:1;fill-rule:nonzero;stroke:none;stroke-width:0.766946"
       id="text122"
       x="220.8913"
       y="253.54645"><tspan
         x="220.8913 225.76909 228.20796 233.08572"
         y="253.54645"
         sodipodi:role="line"
         id="tspan120"
         style="stroke-width:0.766946">1.25</tspan></text><text
       style="font-variant:normal;font-weight:normal;font-size:7.66946px;font-family:'DejaVu Sans';-inkscape-font-specification:DejaVuSans;writing-mode:lr-tb;fill:#000000;fill-opacity:1;fill-rule:nonzero;stroke:none;stroke-width:0.766946"
       id="text140"
       x="255.56114"
       y="253.54645"><tspan
         x="255.56114 260.4389 262.87781 267.75558"
         y="253.54645"
         sodipodi:role="line"
         id="tspan138"
         style="stroke-width:0.766946">1.50</tspan></text><text
       style="font-variant:normal;font-weight:normal;font-size:7.66946px;font-family:'DejaVu Sans';-inkscape-font-specification:DejaVuSans;writing-mode:lr-tb;fill:#000000;fill-opacity:1;fill-rule:nonzero;stroke:none;stroke-width:0.766946"
       id="text158"
       x="290.23096"
       y="253.54645"><tspan
         x="290.23096 295.10873 297.54764 302.42542"
         y="253.54645"
         sodipodi:role="line"
         id="tspan156"
         style="stroke-width:0.766946">1.75</tspan></text><text
       style="font-variant:normal;font-weight:normal;font-size:7.66946px;font-family:'DejaVu Sans';-inkscape-font-specification:DejaVuSans;writing-mode:lr-tb;fill:#000000;fill-opacity:1;fill-rule:nonzero;stroke:none;stroke-width:0.766946"
       id="text162"
       x="146.60805"
       y="264.03232"><tspan
         x="146.60805 152.55186 157.26859 162.13103 166.82474 174.29477 176.4269 180.6451 183.08398 187.95409 190.0862 194.08199 197.08841 201.78978 206.65222 210.87044 215.58716 218.02603 220.61064 223.04951 229.66826 234.53838"
         y="264.03232"
         sodipodi:role="line"
         id="tspan160"
         style="stroke-width:0.766946">Genomic distance / Mbp</tspan></text><text
       style="font-variant:normal;font-weight:normal;font-size:7.66946px;font-family:'DejaVu Sans';-inkscape-font-specification:DejaVuSans;writing-mode:lr-tb;fill:#000000;fill-opacity:1;fill-rule:nonzero;stroke:none;stroke-width:0.766946"
       id="text180"
       x="38.512539"
       y="245.26584"><tspan
         x="38.512539 43.390316 45.829205"
         y="245.26584"
         sodipodi:role="line"
         id="tspan178"
         style="stroke-width:0.766946">0.0</tspan></text><text
       style="font-variant:normal;font-weight:normal;font-size:7.66946px;font-family:'DejaVu Sans';-inkscape-font-specification:DejaVuSans;writing-mode:lr-tb;fill:#000000;fill-opacity:1;fill-rule:nonzero;stroke:none;stroke-width:0.766946"
       id="text198"
       x="38.512539"
       y="204.44713"><tspan
         x="38.512539 43.390316 45.829205"
         y="204.44713"
         sodipodi:role="line"
         id="tspan196"
         style="stroke-width:0.766946">0.2</tspan></text><text
       style="font-variant:normal;font-weight:normal;font-size:7.66946px;font-family:'DejaVu Sans';-inkscape-font-specification:DejaVuSans;writing-mode:lr-tb;fill:#000000;fill-opacity:1;fill-rule:nonzero;stroke:none;stroke-width:0.766946"
       id="text216"
       x="38.512539"
       y="163.62843"><tspan
         x="38.512539 43.390316 45.829205"
         y="163.62843"
         sodipodi:role="line"
         id="tspan214"
         style="stroke-width:0.766946">0.4</tspan></text><text
       style="font-variant:normal;font-weight:normal;font-size:7.66946px;font-family:'DejaVu Sans';-inkscape-font-specification:DejaVuSans;writing-mode:lr-tb;fill:#000000;fill-opacity:1;fill-rule:nonzero;stroke:none;stroke-width:0.766946"
       id="text234"
       x="38.512539"
       y="122.80988"><tspan
         x="38.512539 43.390316 45.829205"
         y="122.80988"
         sodipodi:role="line"
         id="tspan232"
         style="stroke-width:0.766946">0.6</tspan></text><text
       style="font-variant:normal;font-weight:normal;font-size:7.66946px;font-family:'DejaVu Sans';-inkscape-font-specification:DejaVuSans;writing-mode:lr-tb;fill:#000000;fill-opacity:1;fill-rule:nonzero;stroke:none;stroke-width:0.766946"
       id="text252"
       x="38.512539"
       y="81.991188"><tspan
         x="38.512539 43.390316 45.829205"
         y="81.991188"
         sodipodi:role="line"
         id="tspan250"
         style="stroke-width:0.766946">0.8</tspan></text><text
       style="font-variant:normal;font-weight:normal;font-size:7.66946px;font-family:'DejaVu Sans';-inkscape-font-specification:DejaVuSans;writing-mode:lr-tb;fill:#000000;fill-opacity:1;fill-rule:nonzero;stroke:none;stroke-width:0.766946"
       id="text270"
       x="38.512539"
       y="41.172421"><tspan
         x="38.512539 43.390316 45.829205"
         y="41.172421"
         sodipodi:role="line"
         id="tspan268"
         style="stroke-width:0.766946">1.0</tspan></text><text
       transform="rotate(-90)"
       style="font-variant:normal;font-weight:normal;font-size:7.66946px;font-family:'DejaVu Sans';-inkscape-font-specification:DejaVuSans;writing-mode:lr-tb;fill:#000000;fill-opacity:1;fill-rule:nonzero;stroke:none;stroke-width:0.766946"
       id="text274"
       x="-177.36017"
       y="33.850948"><tspan
         x="-177.36017 -172.73547 -168.01877 -163.31738 -160.16524 -156.16946 -151.47574 -146.6133 -144.17442 -139.95622 -135.26251 -132.11035 -128.95822 -124.24165 -122.10954 -117.40818 -114.40173 -112.26962 -107.57592"
         y="33.850948"
         sodipodi:role="line"
         id="tspan272"
         style="stroke-width:0.766946">Pearson correlation</tspan></text><text
       style="font-variant:normal;font-weight:normal;font-size:9.20335px;font-family:'DejaVu Sans';-inkscape-font-specification:DejaVuSans;writing-mode:lr-tb;fill:#000000;fill-opacity:1;fill-rule:nonzero;stroke:none;stroke-width:0.766946"
       id="text338"
       x="98.314423"
       y="23.343355"><tspan
         x="98.314423 103.86405 109.5241 115.16576 118.94833 123.74326 129.37573 135.21066 138.13731 143.19916 148.83162 152.6142 156.39676 162.05682 164.61536 170.257 173.86472 176.42325 182.05571 187.89062 190.81729 196.26567 201.06062 203.98729 206.91396 212.75809 218.41815 224.25305 229.88553 238.84958 241.4081 246.46994 249.39662 255.24074 257.79929 262.59421 266.20193 271.84357 277.6785 282.74033"
         y="23.343355"
         sodipodi:role="line"
         id="tspan336"
         style="stroke-width:0.766946">Pearson correlation vs. genomic distance</tspan></text><text
       style="font-variant:normal;font-weight:normal;font-size:7.66946px;font-family:'DejaVu Sans';-inkscape-font-specification:DejaVuSans;writing-mode:lr-tb;fill:#000000;fill-opacity:1;fill-rule:nonzero;stroke:none;stroke-width:0.766946"
       id="text348"
       x="93.546646"
       y="187.93556"><tspan
         x="93.546646 97.542419 101.76062 106.45434 109.60648 114.3232 116.76208 118.89419 123.5879 127.5837 131.57945 134.01833 136.45721 141.33501 146.21275 151.09056 155.80727 160.67738 163.11623 165.70085 168.13976 173.3857 178.99971 184.35298 186.93758 189.37648 194.25426 196.69313 201.57094 206.44868"
         y="187.93556"
         sodipodi:role="line"
         id="tspan346"
         style="stroke-width:0.766946">score loss, 250ep / AUC: 0.548</tspan></text><text
       style="font-variant:normal;font-weight:normal;font-size:7.66946px;font-family:'DejaVu Sans';-inkscape-font-specification:DejaVuSans;writing-mode:lr-tb;fill:#000000;fill-opacity:1;fill-rule:nonzero;stroke:none;stroke-width:0.766946"
       id="text354"
       x="93.546646"
       y="199.1881"><tspan
         x="93.546646 97.542419 101.76062 106.45434 109.60648 114.3232 116.76208 118.89419 123.5879 127.5837 131.57945 134.01833 136.45721 141.33501 146.21275 151.09056 155.80727 160.67738 163.11623 165.70085 168.13976 173.3857 178.99971 184.35298 186.93758 189.37648 194.25426 196.69313 201.57094 206.44868"
         y="199.1881"
         sodipodi:role="line"
         id="tspan352"
         style="stroke-width:0.766946">score loss, 500ep / AUC: 0.550</tspan></text><text
       style="font-variant:normal;font-weight:normal;font-size:7.66946px;font-family:'DejaVu Sans';-inkscape-font-specification:DejaVuSans;writing-mode:lr-tb;fill:#000000;fill-opacity:1;fill-rule:nonzero;stroke:none;stroke-width:0.766946"
       id="text360"
       x="93.546646"
       y="210.44069"><tspan
         x="93.546646 97.542419 101.76062 106.45434 109.60648 114.3232 116.76208 118.89419 123.5879 127.5837 131.57945 134.01833 136.45721 141.33501 146.21275 151.09056 155.96831 160.68504 165.55513 167.99403 170.57866 173.01753 178.26344 183.87749 189.23076 191.81538 194.25426 199.13203 201.57094 206.44868 211.32646"
         y="210.44069"
         sodipodi:role="line"
         id="tspan358"
         style="stroke-width:0.766946">score loss, 1000ep / AUC: 0.558</tspan></text><text
       style="font-variant:normal;font-weight:normal;font-size:7.66946px;font-family:'DejaVu Sans';-inkscape-font-specification:DejaVuSans;writing-mode:lr-tb;fill:#000000;fill-opacity:1;fill-rule:nonzero;stroke:none;stroke-width:0.766946"
       id="text366"
       x="93.546646"
       y="221.69322"><tspan
         x="93.546646 95.678741 100.54118 102.6733 105.67972 107.81182 112.51319 114.6453 117.08421 119.52309 124.40085 129.27866 134.15637 138.87311 143.74319 146.1821 148.76671 151.20558 156.45149 162.06554 167.41881 170.00343 172.44234 177.32011 179.75899 184.63673 189.51454"
         y="221.69322"
         sodipodi:role="line"
         id="tspan364"
         style="stroke-width:0.766946">initial, 500ep / AUC: 0.562</tspan></text><text
       style="font-variant:normal;font-weight:normal;font-size:7.66946px;font-family:'DejaVu Sans';-inkscape-font-specification:DejaVuSans;writing-mode:lr-tb;fill:#000000;fill-opacity:1;fill-rule:nonzero;stroke:none;stroke-width:0.766946"
       id="text372"
       x="93.546646"
       y="232.94576"><tspan
         x="93.546646 96.553055 99.705215 104.40659 109.26903 113.2648 115.96445 120.68118 123.83333 126.2722 132.216 138.83475 143.71254 148.59029 153.46809 158.34584 163.22365 165.66252 168.24712 170.68602 175.93193 181.54597 186.89925 189.48384 191.92274 196.80055 199.2394 204.11717 208.99495"
         y="232.94576"
         sodipodi:role="line"
         id="tspan370"
         style="stroke-width:0.766946">transfer GM12878 / AUC: 0.652</tspan></text></g></svg>
