<?xml version="1.0" encoding="UTF-8" standalone="no"?>
<svg
   xmlns:dc="http://purl.org/dc/elements/1.1/"
   xmlns:cc="http://creativecommons.org/ns#"
   xmlns:rdf="http://www.w3.org/1999/02/22-rdf-syntax-ns#"
   xmlns:svg="http://www.w3.org/2000/svg"
   xmlns="http://www.w3.org/2000/svg"
   xmlns:sodipodi="http://sodipodi.sourceforge.net/DTD/sodipodi-0.dtd"
   xmlns:inkscape="http://www.inkscape.org/namespaces/inkscape"
   version="1.1"
   id="svg2"
   xml:space="preserve"
   width="80mm"
   height="65.300003mm"
   viewBox="0 0 302.36219 246.80316"
   sodipodi:docname="pearson_chr19.svg"
   inkscape:version="1.0.2 (1.0.2+r75+1)"><metadata
     id="metadata8"><rdf:RDF><cc:Work
         rdf:about=""><dc:format>image/svg+xml</dc:format><dc:type
           rdf:resource="http://purl.org/dc/dcmitype/StillImage" /><dc:title></dc:title></cc:Work></rdf:RDF></metadata><defs
     id="defs6"><clipPath
       clipPathUnits="userSpaceOnUse"
       id="clipPath22"><path
         d="M 57.6,38.016 H 414.72 V 304.128 H 57.6 Z"
         id="path20" /></clipPath><clipPath
       clipPathUnits="userSpaceOnUse"
       id="clipPath40"><path
         d="M 57.6,38.016 H 414.72 V 304.128 H 57.6 Z"
         id="path38" /></clipPath><clipPath
       clipPathUnits="userSpaceOnUse"
       id="clipPath58"><path
         d="M 57.6,38.016 H 414.72 V 304.128 H 57.6 Z"
         id="path56" /></clipPath><clipPath
       clipPathUnits="userSpaceOnUse"
       id="clipPath76"><path
         d="M 57.6,38.016 H 414.72 V 304.128 H 57.6 Z"
         id="path74" /></clipPath><clipPath
       clipPathUnits="userSpaceOnUse"
       id="clipPath94"><path
         d="M 57.6,38.016 H 414.72 V 304.128 H 57.6 Z"
         id="path92" /></clipPath><clipPath
       clipPathUnits="userSpaceOnUse"
       id="clipPath112"><path
         d="M 57.6,38.016 H 414.72 V 304.128 H 57.6 Z"
         id="path110" /></clipPath><clipPath
       clipPathUnits="userSpaceOnUse"
       id="clipPath130"><path
         d="M 57.6,38.016 H 414.72 V 304.128 H 57.6 Z"
         id="path128" /></clipPath><clipPath
       clipPathUnits="userSpaceOnUse"
       id="clipPath148"><path
         d="M 57.6,38.016 H 414.72 V 304.128 H 57.6 Z"
         id="path146" /></clipPath><clipPath
       clipPathUnits="userSpaceOnUse"
       id="clipPath170"><path
         d="M 57.6,38.016 H 414.72 V 304.128 H 57.6 Z"
         id="path168" /></clipPath><clipPath
       clipPathUnits="userSpaceOnUse"
       id="clipPath188"><path
         d="M 57.6,38.016 H 414.72 V 304.128 H 57.6 Z"
         id="path186" /></clipPath><clipPath
       clipPathUnits="userSpaceOnUse"
       id="clipPath206"><path
         d="M 57.6,38.016 H 414.72 V 304.128 H 57.6 Z"
         id="path204" /></clipPath><clipPath
       clipPathUnits="userSpaceOnUse"
       id="clipPath224"><path
         d="M 57.6,38.016 H 414.72 V 304.128 H 57.6 Z"
         id="path222" /></clipPath><clipPath
       clipPathUnits="userSpaceOnUse"
       id="clipPath242"><path
         d="M 57.6,38.016 H 414.72 V 304.128 H 57.6 Z"
         id="path240" /></clipPath><clipPath
       clipPathUnits="userSpaceOnUse"
       id="clipPath260"><path
         d="M 57.6,38.016 H 414.72 V 304.128 H 57.6 Z"
         id="path258" /></clipPath><clipPath
       clipPathUnits="userSpaceOnUse"
       id="clipPath282"><path
         d="M 57.6,38.016 H 414.72 V 304.128 H 57.6 Z"
         id="path280" /></clipPath><clipPath
       clipPathUnits="userSpaceOnUse"
       id="clipPath292"><path
         d="M 57.6,38.016 H 414.72 V 304.128 H 57.6 Z"
         id="path290" /></clipPath><clipPath
       clipPathUnits="userSpaceOnUse"
       id="clipPath302"><path
         d="M 57.6,38.016 H 414.72 V 304.128 H 57.6 Z"
         id="path300" /></clipPath><clipPath
       clipPathUnits="userSpaceOnUse"
       id="clipPath312"><path
         d="M 57.6,38.016 H 414.72 V 304.128 H 57.6 Z"
         id="path310" /></clipPath><clipPath
       clipPathUnits="userSpaceOnUse"
       id="clipPath322"><path
         d="M 57.6,38.016 H 414.72 V 304.128 H 57.6 Z"
         id="path320" /></clipPath><clipPath
       clipPathUnits="userSpaceOnUse"
       id="clipPath332"><path
         d="M 57.6,38.016 H 414.72 V 304.128 H 57.6 Z"
         id="path330" /></clipPath></defs><sodipodi:namedview
     pagecolor="#ffffff"
     bordercolor="#666666"
     borderopacity="1"
     objecttolerance="10"
     gridtolerance="10"
     guidetolerance="10"
     inkscape:pageopacity="0"
     inkscape:pageshadow="2"
     inkscape:window-width="1920"
     inkscape:window-height="1020"
     id="namedview4"
     showgrid="false"
     units="mm"
     fit-margin-top="0"
     fit-margin-left="0"
     fit-margin-right="0"
     fit-margin-bottom="0"
     inkscape:zoom="3.7196182"
     inkscape:cx="146.36477"
     inkscape:cy="156.86036"
     inkscape:window-x="0"
     inkscape:window-y="0"
     inkscape:window-maximized="1"
     inkscape:current-layer="layer1" /><g
     id="g10"
     inkscape:groupmode="layer"
     inkscape:label="pearson_chr19"
     transform="matrix(1.3333333,0,0,-1.3333333,-28.023958,443.59358)"><g
       id="g328"
       clip-path="url(#clipPath332)"
       style="stroke:#d62728;stroke-opacity:1"
       transform="matrix(0.57549864,0,0,0.57549864,8.9221564,141.98571)"><path
         d="m 57.6,291.21219 5.668571,-7.83046 5.668572,-4.86458 5.668571,-2.46954 5.668572,-1.96157 5.668571,-0.70339 5.668572,-0.77901 5.668571,0.56941 5.66857,1.44261 5.66857,-4.23176 5.66857,1.35083 5.66858,-2.28237 5.66857,-2.93286 5.66857,-3.08073 5.66857,-2.14705 5.66857,-0.83498 5.66857,-1.68169 5.66857,-3.59095 5.66858,-1.50789 5.66857,-0.86811 5.66857,1.0161 5.66857,-3.60562 5.66857,0.81065 5.66857,-1.96396 5.66857,-1.65329 5.66858,-1.46005 5.66857,-2.29329 5.66857,-0.0795 5.66857,2.51759 5.66857,-2.46762 5.66857,2.05221 5.66857,-3.78015 5.66858,-1.24809 5.66857,0.76119 5.66857,-0.93235 5.66857,1.35451 5.66857,-1.54374 5.66857,-3.18044 5.66857,-0.20368 5.66858,-0.82129 5.66857,-4.32261 5.66857,3.89268 5.66857,-4.43393 5.66857,1.02919 5.66857,-1.49329 5.66857,1.7614 5.66858,-8.713 5.66857,6.54481 5.66857,-2.93798 5.66857,2.2996 5.66857,-0.0617 5.66857,0.9859 5.66857,1.41998 5.66858,-2.47145 5.66857,-3.724 5.66857,1.31946 5.66857,2.11197 5.66857,1.16673 5.66857,-0.26716 5.66857,5.12537 5.66858,3.04913 5.66857,2.81569 5.66857,4.55411 5.66857,0.40623"
         style="fill:none;stroke:#d62728;stroke-width:1.5;stroke-linecap:square;stroke-linejoin:round;stroke-miterlimit:10;stroke-dasharray:none;stroke-opacity:1"
         id="path334" /></g><g
       id="g16"
       transform="matrix(0.57549864,0,0,0.57549864,8.9221564,141.98571)"><g
         id="g18"
         clip-path="url(#clipPath22)"><path
           d="M 57.6,38.016 V 304.128"
           style="fill:none;stroke:#b0b0b0;stroke-width:0.8;stroke-linecap:square;stroke-linejoin:round;stroke-miterlimit:10;stroke-dasharray:none;stroke-opacity:1"
           id="path24" /></g></g><path
       d="m 42.070878,163.86386 v -2.01423"
       style="fill:#000000;fill-opacity:1;fill-rule:nonzero;stroke:#000000;stroke-width:0.460399;stroke-linecap:butt;stroke-linejoin:round;stroke-miterlimit:10;stroke-dasharray:none;stroke-opacity:1"
       id="path28" /><g
       id="g34"
       transform="matrix(0.57549864,0,0,0.57549864,8.9221564,141.98571)"><g
         id="g36"
         clip-path="url(#clipPath40)"><path
           d="M 102.94857,38.016 V 304.128"
           style="fill:none;stroke:#b0b0b0;stroke-width:0.8;stroke-linecap:square;stroke-linejoin:round;stroke-miterlimit:10;stroke-dasharray:none;stroke-opacity:1"
           id="path42" /></g></g><path
       d="m 68.168919,163.86386 v -2.01423"
       style="fill:#000000;fill-opacity:1;fill-rule:nonzero;stroke:#000000;stroke-width:0.460399;stroke-linecap:butt;stroke-linejoin:round;stroke-miterlimit:10;stroke-dasharray:none;stroke-opacity:1"
       id="path46" /><g
       id="g52"
       transform="matrix(0.57549864,0,0,0.57549864,8.9221564,141.98571)"><g
         id="g54"
         clip-path="url(#clipPath58)"><path
           d="M 148.29714,38.016 V 304.128"
           style="fill:none;stroke:#b0b0b0;stroke-width:0.8;stroke-linecap:square;stroke-linejoin:round;stroke-miterlimit:10;stroke-dasharray:none;stroke-opacity:1"
           id="path60" /></g></g><path
       d="m 94.26696,163.86386 v -2.01423"
       style="fill:#000000;fill-opacity:1;fill-rule:nonzero;stroke:#000000;stroke-width:0.460399;stroke-linecap:butt;stroke-linejoin:round;stroke-miterlimit:10;stroke-dasharray:none;stroke-opacity:1"
       id="path64" /><g
       id="g70"
       transform="matrix(0.57549864,0,0,0.57549864,8.9221564,141.98571)"><g
         id="g72"
         clip-path="url(#clipPath76)"><path
           d="M 193.64571,38.016 V 304.128"
           style="fill:none;stroke:#b0b0b0;stroke-width:0.8;stroke-linecap:square;stroke-linejoin:round;stroke-miterlimit:10;stroke-dasharray:none;stroke-opacity:1"
           id="path78" /></g></g><path
       d="m 120.365,163.86386 v -2.01423"
       style="fill:#000000;fill-opacity:1;fill-rule:nonzero;stroke:#000000;stroke-width:0.460399;stroke-linecap:butt;stroke-linejoin:round;stroke-miterlimit:10;stroke-dasharray:none;stroke-opacity:1"
       id="path82" /><g
       id="g88"
       transform="matrix(0.57549864,0,0,0.57549864,8.9221564,141.98571)"><g
         id="g90"
         clip-path="url(#clipPath94)"><path
           d="M 238.99429,38.016 V 304.128"
           style="fill:none;stroke:#b0b0b0;stroke-width:0.8;stroke-linecap:square;stroke-linejoin:round;stroke-miterlimit:10;stroke-dasharray:none;stroke-opacity:1"
           id="path96" /></g></g><path
       d="m 146.46305,163.86386 v -2.01423"
       style="fill:#000000;fill-opacity:1;fill-rule:nonzero;stroke:#000000;stroke-width:0.460399;stroke-linecap:butt;stroke-linejoin:round;stroke-miterlimit:10;stroke-dasharray:none;stroke-opacity:1"
       id="path100" /><g
       id="g106"
       transform="matrix(0.57549864,0,0,0.57549864,8.9221564,141.98571)"><g
         id="g108"
         clip-path="url(#clipPath112)"><path
           d="M 284.34286,38.016 V 304.128"
           style="fill:none;stroke:#b0b0b0;stroke-width:0.8;stroke-linecap:square;stroke-linejoin:round;stroke-miterlimit:10;stroke-dasharray:none;stroke-opacity:1"
           id="path114" /></g></g><path
       d="m 172.56108,163.86386 v -2.01423"
       style="fill:#000000;fill-opacity:1;fill-rule:nonzero;stroke:#000000;stroke-width:0.460399;stroke-linecap:butt;stroke-linejoin:round;stroke-miterlimit:10;stroke-dasharray:none;stroke-opacity:1"
       id="path118" /><g
       id="g124"
       transform="matrix(0.57549864,0,0,0.57549864,8.9221564,141.98571)"><g
         id="g126"
         clip-path="url(#clipPath130)"><path
           d="M 329.69143,38.016 V 304.128"
           style="fill:none;stroke:#b0b0b0;stroke-width:0.8;stroke-linecap:square;stroke-linejoin:round;stroke-miterlimit:10;stroke-dasharray:none;stroke-opacity:1"
           id="path132" /></g></g><path
       d="m 198.65913,163.86386 v -2.01423"
       style="fill:#000000;fill-opacity:1;fill-rule:nonzero;stroke:#000000;stroke-width:0.460399;stroke-linecap:butt;stroke-linejoin:round;stroke-miterlimit:10;stroke-dasharray:none;stroke-opacity:1"
       id="path136" /><g
       id="g142"
       transform="matrix(0.57549864,0,0,0.57549864,8.9221564,141.98571)"><g
         id="g144"
         clip-path="url(#clipPath148)"><path
           d="M 375.04,38.016 V 304.128"
           style="fill:none;stroke:#b0b0b0;stroke-width:0.8;stroke-linecap:square;stroke-linejoin:round;stroke-miterlimit:10;stroke-dasharray:none;stroke-opacity:1"
           id="path150" /></g></g><path
       d="m 224.75717,163.86386 v -2.01423"
       style="fill:#000000;fill-opacity:1;fill-rule:nonzero;stroke:#000000;stroke-width:0.460399;stroke-linecap:butt;stroke-linejoin:round;stroke-miterlimit:10;stroke-dasharray:none;stroke-opacity:1"
       id="path154" /><g
       id="g164"
       transform="matrix(0.57549864,0,0,0.57549864,8.9221564,141.98571)"><g
         id="g166"
         clip-path="url(#clipPath170)"><path
           d="M 57.6,38.016 H 414.72"
           style="fill:none;stroke:#b0b0b0;stroke-width:0.8;stroke-linecap:square;stroke-linejoin:round;stroke-miterlimit:10;stroke-dasharray:none;stroke-opacity:1"
           id="path172" /></g></g><path
       d="M 42.070878,163.86386 H 40.056633"
       style="fill:#000000;fill-opacity:1;fill-rule:nonzero;stroke:#000000;stroke-width:0.460399;stroke-linecap:butt;stroke-linejoin:round;stroke-miterlimit:10;stroke-dasharray:none;stroke-opacity:1"
       id="path176" /><g
       id="g182"
       transform="matrix(0.57549864,0,0,0.57549864,8.9221564,141.98571)"><g
         id="g184"
         clip-path="url(#clipPath188)"><path
           d="M 57.6,91.2384 H 414.72"
           style="fill:none;stroke:#b0b0b0;stroke-width:0.8;stroke-linecap:square;stroke-linejoin:round;stroke-miterlimit:10;stroke-dasharray:none;stroke-opacity:1"
           id="path190" /></g></g><path
       d="M 42.070878,194.49329 H 40.056633"
       style="fill:#000000;fill-opacity:1;fill-rule:nonzero;stroke:#000000;stroke-width:0.460399;stroke-linecap:butt;stroke-linejoin:round;stroke-miterlimit:10;stroke-dasharray:none;stroke-opacity:1"
       id="path194" /><g
       id="g200"
       transform="matrix(0.57549864,0,0,0.57549864,8.9221564,141.98571)"><g
         id="g202"
         clip-path="url(#clipPath206)"><path
           d="M 57.6,144.4608 H 414.72"
           style="fill:none;stroke:#b0b0b0;stroke-width:0.8;stroke-linecap:square;stroke-linejoin:round;stroke-miterlimit:10;stroke-dasharray:none;stroke-opacity:1"
           id="path208" /></g></g><path
       d="M 42.070878,225.1227 H 40.056633"
       style="fill:#000000;fill-opacity:1;fill-rule:nonzero;stroke:#000000;stroke-width:0.460399;stroke-linecap:butt;stroke-linejoin:round;stroke-miterlimit:10;stroke-dasharray:none;stroke-opacity:1"
       id="path212" /><g
       id="g218"
       transform="matrix(0.57549864,0,0,0.57549864,8.9221564,141.98571)"><g
         id="g220"
         clip-path="url(#clipPath224)"><path
           d="M 57.6,197.6832 H 414.72"
           style="fill:none;stroke:#b0b0b0;stroke-width:0.8;stroke-linecap:square;stroke-linejoin:round;stroke-miterlimit:10;stroke-dasharray:none;stroke-opacity:1"
           id="path226" /></g></g><path
       d="M 42.070878,255.75212 H 40.056633"
       style="fill:#000000;fill-opacity:1;fill-rule:nonzero;stroke:#000000;stroke-width:0.460399;stroke-linecap:butt;stroke-linejoin:round;stroke-miterlimit:10;stroke-dasharray:none;stroke-opacity:1"
       id="path230" /><g
       id="g236"
       transform="matrix(0.57549864,0,0,0.57549864,8.9221564,141.98571)"><g
         id="g238"
         clip-path="url(#clipPath242)"><path
           d="M 57.6,250.9056 H 414.72"
           style="fill:none;stroke:#b0b0b0;stroke-width:0.8;stroke-linecap:square;stroke-linejoin:round;stroke-miterlimit:10;stroke-dasharray:none;stroke-opacity:1"
           id="path244" /></g></g><path
       d="M 42.070878,286.38154 H 40.056633"
       style="fill:#000000;fill-opacity:1;fill-rule:nonzero;stroke:#000000;stroke-width:0.460399;stroke-linecap:butt;stroke-linejoin:round;stroke-miterlimit:10;stroke-dasharray:none;stroke-opacity:1"
       id="path248" /><g
       id="g254"
       transform="matrix(0.57549864,0,0,0.57549864,8.9221564,141.98571)"><g
         id="g256"
         clip-path="url(#clipPath260)"><path
           d="M 57.6,304.128 H 414.72"
           style="fill:none;stroke:#b0b0b0;stroke-width:0.8;stroke-linecap:square;stroke-linejoin:round;stroke-miterlimit:10;stroke-dasharray:none;stroke-opacity:1"
           id="path262" /></g></g><path
       d="M 42.070878,317.01096 H 40.056633"
       style="fill:#000000;fill-opacity:1;fill-rule:nonzero;stroke:#000000;stroke-width:0.460399;stroke-linecap:butt;stroke-linejoin:round;stroke-miterlimit:10;stroke-dasharray:none;stroke-opacity:1"
       id="path266" /><g
       id="g278"
       clip-path="url(#clipPath282)"
       transform="matrix(0.57549864,0,0,0.57549864,8.9221564,141.98571)"><path
         d="m 57.6,258.70452 5.668571,-3.36937 5.668572,-20.91475 5.668571,-13.24193 5.668572,-9.4544 5.668571,-5.35416 5.668572,-3.7184 5.668571,-4.19656 5.66857,-2.45191 5.66857,-2.07893 5.66857,-0.12896 5.66858,-7.48833 5.66857,0.17732 5.66857,-0.78083 5.66857,-1.10039 5.66857,2.198 5.66857,-0.42117 5.66857,-0.10037 5.66858,-8.70808 5.66857,-0.7073 5.66857,-1.08426 5.66857,-3.88413 5.66857,-0.43797 5.66857,-5.11347 5.66857,-1.61891 5.66858,-5.09369 5.66857,-1.32082 5.66857,-1.88367 5.66857,-1.67796 5.66857,-5.56478 5.66857,-0.85872 5.66857,0.97803 5.66858,-5.7015 5.66857,2.88363 5.66857,0.82096 5.66857,-0.8712 5.66857,-2.2975 5.66857,3.61534 5.66857,-0.90985 5.66858,2.98321 5.66857,-2.96236 5.66857,2.08946 5.66857,-2.68413 5.66857,4.57025 5.66857,-1.41871 5.66857,-3.18098 5.66858,2.31127 5.66857,1.81066 5.66857,4.95918 5.66857,-1.13976 5.66857,-0.0134 5.66857,1.50057 5.66857,-0.0341 5.66858,0.009 5.66857,-6.55833 5.66857,-6.02183 5.66857,-9.39185 5.66857,-9.8067 5.66857,-79.825333 L 390.43071,-1"
         style="fill:none;stroke:#1f77b4;stroke-width:1.5;stroke-linecap:square;stroke-linejoin:round;stroke-miterlimit:10;stroke-dasharray:none;stroke-opacity:1"
         id="path284" /></g><g
       id="g288"
       clip-path="url(#clipPath292)"
       transform="matrix(0.57549864,0,0,0.57549864,8.9221564,141.98571)"><path
         d="m 57.6,258.27537 5.668571,-4.3272 5.668572,-20.26216 5.668571,-11.67857 5.668572,-6.63784 5.668571,-3.13988 5.668572,-0.14721 5.668571,-4.17217 5.66857,-3.31224 5.66857,-4.03646 5.66857,-1.36921 5.66858,-10.13408 5.66857,-0.7387 5.66857,-2.02826 5.66857,0.51942 5.66857,2.93357 5.66857,1.39887 5.66857,-0.55314 5.66858,-6.8657 5.66857,-0.63021 5.66857,-1.99638 5.66857,-4.00347 5.66857,-2.33598 5.66857,-4.49403 5.66857,-1.29463 5.66858,-4.92847 5.66857,1.05399 5.66857,-2.41206 5.66857,-1.50752 5.66857,-3.86955 5.66857,-2.06103 5.66857,2.45043 5.66858,-5.74056 5.66857,0.92093 5.66857,-0.7923 5.66857,-0.89933 5.66857,-2.94441 5.66857,1.74696 5.66857,-1.64533 5.66858,1.71591 5.66857,-2.44254 5.66857,1.2784 5.66857,-1.32197 5.66857,6.76833 5.66857,-4.36393 5.66857,-3.1686 5.66858,3.59875 5.66857,0.98594 5.66857,4.19854 5.66857,-1.88997 5.66857,0.17461 5.66857,2.26258 5.66857,-4.27436 5.66858,0.26896 5.66857,-3.23082 5.66857,2.06581 5.66857,-4.33332 5.66857,2.08709 5.66857,-13.64194 L 392.04571,10.008673 397.25706,-1 m 1.2027,0 4.9231,6.378623 5.66857,3.545803 5.66857,-2.695047"
         style="fill:none;stroke:#ff7f0e;stroke-width:1.5;stroke-linecap:square;stroke-linejoin:round;stroke-miterlimit:10;stroke-dasharray:none;stroke-opacity:1"
         id="path294" /></g><g
       id="g298"
       clip-path="url(#clipPath302)"
       transform="matrix(0.57549864,0,0,0.57549864,8.9221564,141.98571)"><path
         d="m 57.6,257.11023 5.668571,-3.93686 5.668572,-19.67338 5.668571,-11.27825 5.668572,-5.39014 5.668571,-2.38311 5.668572,-0.35956 5.668571,-4.24125 5.66857,-3.08392 5.66857,-3.93595 5.66857,-1.17011 5.66858,-9.78874 5.66857,-1.13176 5.66857,-1.67228 5.66857,0.0218 5.66857,3.38916 5.66857,1.03387 5.66857,-0.39045 5.66858,-6.97021 5.66857,-1.84253 5.66857,-2.18739 5.66857,-3.74935 5.66857,-2.76892 5.66857,-3.62845 5.66857,-1.82628 5.66858,-4.52481 5.66857,2.07001 5.66857,-2.1001 5.66857,-0.4017 5.66857,-3.92768 5.66857,-3.2135 5.66857,2.79216 5.66858,-5.63029 5.66857,0.90751 5.66857,-0.362 5.66857,-0.043 5.66857,-2.62968 5.66857,2.6837 5.66857,-2.05792 5.66858,0.94914 5.66857,-2.4005 5.66857,-0.56979 5.66857,-0.36123 5.66857,5.24914 5.66857,-4.08659 5.66857,-3.44053 5.66858,2.54666 5.66857,1.57729 5.66857,2.92018 5.66857,-1.00357 5.66857,0.77212 5.66857,1.85197 5.66857,-3.75361 5.66858,1.81689 5.66857,-3.21362 5.66857,0.90917 5.66857,-6.37829 5.66857,2.7558 5.66857,-6.94389 L 392.04571,24.77399 395.9249,-1 m 9.42195,0 3.70458,2.758806 5.66857,-1.285183"
         style="fill:none;stroke:#2ca02c;stroke-width:1.5;stroke-linecap:square;stroke-linejoin:round;stroke-miterlimit:10;stroke-dasharray:none;stroke-opacity:1"
         id="path304" /></g><g
       id="g308"
       clip-path="url(#clipPath312)"
       style="stroke:#8c564b;stroke-opacity:1"
       transform="matrix(0.57549864,0,0,0.57549864,8.9221564,141.98571)"><path
         d="m 57.6,255.29085 5.668571,-4.99601 5.668572,-19.56909 5.668571,-11.01609 5.668572,-4.97179 5.668571,-2.51494 5.668572,-1.10363 5.668571,-5.09224 5.66857,-3.4899 5.66857,-3.39073 5.66857,-0.2726 5.66858,-9.52491 5.66857,-0.44173 5.66857,-1.62341 5.66857,0.20488 5.66857,4.057 5.66857,1.10459 5.66857,-0.29421 5.66858,-6.52942 5.66857,-2.05296 5.66857,-2.56812 5.66857,-4.19209 5.66857,-3.03089 5.66857,-3.33107 5.66857,-1.71842 5.66858,-5.054 5.66857,1.68764 5.66857,-2.416 5.66857,-0.31141 5.66857,-3.98723 5.66857,-2.56817 5.66857,2.05878 5.66858,-5.21125 5.66857,0.55535 5.66857,-1.11362 5.66857,0.72369 5.66857,-3.19908 5.66857,2.88098 5.66857,-0.0833 5.66858,0.7915 5.66857,-1.65913 5.66857,-0.75884 5.66857,0.19202 5.66857,6.30642 5.66857,-4.86433 5.66857,-3.96069 5.66858,3.36488 5.66857,0.64043 5.66857,2.48648 5.66857,-1.02242 5.66857,1.21007 5.66857,0.8649 5.66857,-3.7708 5.66858,2.30111 5.66857,-3.48656 5.66857,0.44383 5.66857,-7.49691 5.66857,2.95955 5.66857,-4.45161 5.66857,-20.94218 L 397.38682,-1 m 6.61614,0 5.04847,5.306006 5.66857,1.565055"
         style="fill:none;stroke:#8c564b;stroke-width:1.5;stroke-linecap:square;stroke-linejoin:round;stroke-miterlimit:10;stroke-dasharray:none;stroke-opacity:1"
         id="path314" /></g><g
       id="g318"
       clip-path="url(#clipPath322)"
       transform="matrix(0.57549864,0,0,0.57549864,8.9221564,141.98571)"><path
         d="m 57.6,255.18371 5.668571,-5.05161 5.668572,-18.74853 5.668571,-10.34424 5.668572,-4.72662 5.668571,-2.64522 5.668572,-1.18962 5.668571,-5.0668 5.66857,-2.83762 5.66857,-2.91684 5.66857,-0.35116 5.66858,-9.38397 5.66857,-0.54697 5.66857,-1.69526 5.66857,-0.30343 5.66857,3.78857 5.66857,0.89224 5.66857,-0.58531 5.66858,-6.59612 5.66857,-2.24161 5.66857,-2.73934 5.66857,-4.14739 5.66857,-3.20206 5.66857,-3.24266 5.66857,-1.9593 5.66858,-4.8265 5.66857,1.78495 5.66857,-2.68303 5.66857,0.41294 5.66857,-3.72727 5.66857,-2.42596 5.66857,2.41114 5.66858,-4.89329 5.66857,-0.11985 5.66857,-0.80628 5.66857,0.50232 5.66857,-3.03924 5.66857,2.66526 5.66857,0.025 5.66858,0.91184 5.66857,-1.22144 5.66857,-0.93396 5.66857,-0.18135 5.66857,6.31482 5.66857,-4.17342 5.66857,-4.60595 5.66858,3.17521 5.66857,1.09261 5.66857,1.41944 5.66857,-0.6684 5.66857,1.34043 5.66857,0.81893 5.66857,-3.93875 5.66858,3.11065 5.66857,-3.29182 5.66857,-0.0833 5.66857,-7.16393 5.66857,2.59565 5.66857,-3.67776 5.66857,5.62186 5.66858,-89.686119 5.66857,-59.50756 5.66857,7.294522 5.66857,1.330214"
         style="fill:none;stroke:#9467bd;stroke-width:1.5;stroke-linecap:square;stroke-linejoin:round;stroke-miterlimit:10;stroke-dasharray:none;stroke-opacity:1"
         id="path324" /></g><path
       d="m 42.070878,163.86386 v 153.1471"
       style="fill:none;stroke:#000000;stroke-width:0.460399;stroke-linecap:square;stroke-linejoin:miter;stroke-miterlimit:10;stroke-dasharray:none;stroke-opacity:1"
       id="path338" /><path
       d="m 247.59295,163.86386 v 153.1471"
       style="fill:none;stroke:#000000;stroke-width:0.460399;stroke-linecap:square;stroke-linejoin:miter;stroke-miterlimit:10;stroke-dasharray:none;stroke-opacity:1"
       id="path340" /><path
       d="M 42.070878,163.86386 H 247.59295"
       style="fill:none;stroke:#000000;stroke-width:0.460399;stroke-linecap:square;stroke-linejoin:miter;stroke-miterlimit:10;stroke-dasharray:none;stroke-opacity:1"
       id="path342" /><path
       d="M 42.070878,317.01096 H 247.59295"
       style="fill:none;stroke:#000000;stroke-width:0.460399;stroke-linecap:square;stroke-linejoin:miter;stroke-miterlimit:10;stroke-dasharray:none;stroke-opacity:1"
       id="path344" /><path
       d="M 78.97319,215.32839 H 90.48316"
       style="fill:none;stroke:#1f77b4;stroke-width:0.863248;stroke-linecap:square;stroke-linejoin:round;stroke-miterlimit:10;stroke-dasharray:none;stroke-opacity:1"
       id="path354" /><path
       d="M 78.97319,206.88475 H 90.48316"
       style="fill:none;stroke:#ff7f0e;stroke-width:0.863248;stroke-linecap:square;stroke-linejoin:round;stroke-miterlimit:10;stroke-dasharray:none;stroke-opacity:1"
       id="path360" /><path
       d="M 78.97319,198.44111 H 90.48316"
       style="fill:none;stroke:#2ca02c;stroke-width:0.863248;stroke-linecap:square;stroke-linejoin:round;stroke-miterlimit:10;stroke-dasharray:none;stroke-opacity:1"
       id="path366" /><path
       d="M 78.97319,189.99746 H 90.48316"
       style="fill:none;stroke:#8c564b;stroke-width:0.863248;stroke-linecap:square;stroke-linejoin:round;stroke-miterlimit:10;stroke-dasharray:none;stroke-opacity:1"
       id="path372" /><path
       d="M 78.97319,181.55382 H 90.48316"
       style="fill:none;stroke:#9467bd;stroke-width:0.863248;stroke-linecap:square;stroke-linejoin:round;stroke-miterlimit:10;stroke-dasharray:none;stroke-opacity:1"
       id="path378" /><path
       d="M 78.97319,173.11017 H 90.48316"
       style="fill:none;stroke:#d62728;stroke-width:0.863248;stroke-linecap:square;stroke-linejoin:round;stroke-miterlimit:10;stroke-dasharray:none;stroke-opacity:1"
       id="path384" /></g><g
     inkscape:groupmode="layer"
     id="layer1"
     inkscape:label="text"
     style="display:inline"><text
       transform="matrix(1.3333333,0,0,1.3333333,-28.023958,443.59358)"
       style="font-variant:normal;font-weight:normal;font-size:5.75499px;font-family:'DejaVu Sans';-inkscape-font-specification:DejaVuSans;writing-mode:lr-tb;fill:#000000;fill-opacity:1;fill-rule:nonzero;stroke:none;stroke-width:0.575499"
       id="text32"
       x="40.493862"
       y="-155.46527"><tspan
         x="40.493862 44.154037 45.984123"
         y="-155.46527"
         sodipodi:role="line"
         id="tspan30"
         style="stroke-width:0.575499">0.0</tspan></text><text
       transform="matrix(1.3333333,0,0,1.3333333,-28.023958,443.59358)"
       style="font-variant:normal;font-weight:normal;font-size:5.75499px;font-family:'DejaVu Sans';-inkscape-font-specification:DejaVuSans;writing-mode:lr-tb;fill:#000000;fill-opacity:1;fill-rule:nonzero;stroke:none;stroke-width:0.575499"
       id="text50"
       x="63.591904"
       y="-155.46527"><tspan
         x="63.591904 67.252075 69.082169"
         y="-155.46527"
         sodipodi:role="line"
         id="tspan48"
         style="stroke-width:0.575499">0.2</tspan></text><text
       transform="matrix(1.3333333,0,0,1.3333333,-28.023958,443.59358)"
       style="font-variant:normal;font-weight:normal;font-size:5.75499px;font-family:'DejaVu Sans';-inkscape-font-specification:DejaVuSans;writing-mode:lr-tb;fill:#000000;fill-opacity:1;fill-rule:nonzero;stroke:none;stroke-width:0.575499"
       id="text68"
       x="89.689949"
       y="-155.46527"><tspan
         x="89.689949 93.350128 95.180206"
         y="-155.46527"
         sodipodi:role="line"
         id="tspan66"
         style="stroke-width:0.575499">0.4</tspan></text><text
       transform="matrix(1.3333333,0,0,1.3333333,-28.023958,443.59358)"
       style="font-variant:normal;font-weight:normal;font-size:5.75499px;font-family:'DejaVu Sans';-inkscape-font-specification:DejaVuSans;writing-mode:lr-tb;fill:#000000;fill-opacity:1;fill-rule:nonzero;stroke:none;stroke-width:0.575499"
       id="text86"
       x="115.78799"
       y="-155.46527"><tspan
         x="115.78799 119.44817 121.27826"
         y="-155.46527"
         sodipodi:role="line"
         id="tspan84"
         style="stroke-width:0.575499">0.6</tspan></text><text
       transform="matrix(1.3333333,0,0,1.3333333,-28.023958,443.59358)"
       style="font-variant:normal;font-weight:normal;font-size:5.75499px;font-family:'DejaVu Sans';-inkscape-font-specification:DejaVuSans;writing-mode:lr-tb;fill:#000000;fill-opacity:1;fill-rule:nonzero;stroke:none;stroke-width:0.575499"
       id="text104"
       x="141.88603"
       y="-155.46527"><tspan
         x="141.88603 145.5462 147.3763"
         y="-155.46527"
         sodipodi:role="line"
         id="tspan102"
         style="stroke-width:0.575499">0.8</tspan></text><text
       transform="matrix(1.3333333,0,0,1.3333333,-28.023958,443.59358)"
       style="font-variant:normal;font-weight:normal;font-size:5.75499px;font-family:'DejaVu Sans';-inkscape-font-specification:DejaVuSans;writing-mode:lr-tb;fill:#000000;fill-opacity:1;fill-rule:nonzero;stroke:none;stroke-width:0.575499"
       id="text122"
       x="167.98407"
       y="-155.46527"><tspan
         x="167.98407 171.64423 173.47432"
         y="-155.46527"
         sodipodi:role="line"
         id="tspan120"
         style="stroke-width:0.575499">1.0</tspan></text><text
       transform="matrix(1.3333333,0,0,1.3333333,-28.023958,443.59358)"
       style="font-variant:normal;font-weight:normal;font-size:5.75499px;font-family:'DejaVu Sans';-inkscape-font-specification:DejaVuSans;writing-mode:lr-tb;fill:#000000;fill-opacity:1;fill-rule:nonzero;stroke:none;stroke-width:0.575499"
       id="text140"
       x="194.08212"
       y="-155.46527"><tspan
         x="194.08212 197.74228 199.57236"
         y="-155.46527"
         sodipodi:role="line"
         id="tspan138"
         style="stroke-width:0.575499">1.2</tspan></text><text
       transform="matrix(1.3333333,0,0,1.3333333,-28.023958,443.59358)"
       style="font-variant:normal;font-weight:normal;font-size:5.75499px;font-family:'DejaVu Sans';-inkscape-font-specification:DejaVuSans;writing-mode:lr-tb;fill:#000000;fill-opacity:1;fill-rule:nonzero;stroke:none;stroke-width:0.575499"
       id="text158"
       x="220.18016"
       y="-155.46527"><tspan
         x="220.18016 223.84032 225.67039"
         y="-155.46527"
         sodipodi:role="line"
         id="tspan156"
         style="stroke-width:0.575499">1.4</tspan></text><text
       transform="matrix(1.3333333,0,0,1.3333333,-28.023958,443.59358)"
       style="font-variant:normal;font-weight:normal;font-size:5.75499px;font-family:'DejaVu Sans';-inkscape-font-specification:DejaVuSans;writing-mode:lr-tb;fill:#000000;fill-opacity:1;fill-rule:nonzero;stroke:none;stroke-width:0.575499"
       id="text162"
       x="110.00076"
       y="-147.59712"><tspan
         x="110.00076 114.46088 118.00019 121.64885 125.17091 130.77626 132.37613 135.54138 137.37148 141.02589 142.62576 145.62413 147.88008 151.40788 155.05655 158.2218 161.76111 163.59119 165.53061 167.3607 172.32727 175.98167"
         y="-147.59712"
         sodipodi:role="line"
         id="tspan160"
         style="stroke-width:0.575499">Genomic distance / Mbp</tspan></text><text
       transform="matrix(1.3333333,0,0,1.3333333,-28.023958,443.59358)"
       style="font-variant:normal;font-weight:normal;font-size:5.75499px;font-family:'DejaVu Sans';-inkscape-font-specification:DejaVuSans;writing-mode:lr-tb;fill:#000000;fill-opacity:1;fill-rule:nonzero;stroke:none;stroke-width:0.575499"
       id="text180"
       x="28.888361"
       y="-161.67883"><tspan
         x="28.888361 32.548534 34.37862"
         y="-161.67883"
         sodipodi:role="line"
         id="tspan178"
         style="stroke-width:0.575499">0.0</tspan></text><text
       transform="matrix(1.3333333,0,0,1.3333333,-28.023958,443.59358)"
       style="font-variant:normal;font-weight:normal;font-size:5.75499px;font-family:'DejaVu Sans';-inkscape-font-specification:DejaVuSans;writing-mode:lr-tb;fill:#000000;fill-opacity:1;fill-rule:nonzero;stroke:none;stroke-width:0.575499"
       id="text198"
       x="28.888361"
       y="-192.30826"><tspan
         x="28.888361 32.548534 34.37862"
         y="-192.30826"
         sodipodi:role="line"
         id="tspan196"
         style="stroke-width:0.575499">0.2</tspan></text><text
       transform="matrix(1.3333333,0,0,1.3333333,-28.023958,443.59358)"
       style="font-variant:normal;font-weight:normal;font-size:5.75499px;font-family:'DejaVu Sans';-inkscape-font-specification:DejaVuSans;writing-mode:lr-tb;fill:#000000;fill-opacity:1;fill-rule:nonzero;stroke:none;stroke-width:0.575499"
       id="text216"
       x="28.888361"
       y="-222.93768"><tspan
         x="28.888361 32.548534 34.37862"
         y="-222.93768"
         sodipodi:role="line"
         id="tspan214"
         style="stroke-width:0.575499">0.4</tspan></text><text
       transform="matrix(1.3333333,0,0,1.3333333,-28.023958,443.59358)"
       style="font-variant:normal;font-weight:normal;font-size:5.75499px;font-family:'DejaVu Sans';-inkscape-font-specification:DejaVuSans;writing-mode:lr-tb;fill:#000000;fill-opacity:1;fill-rule:nonzero;stroke:none;stroke-width:0.575499"
       id="text234"
       x="28.888361"
       y="-253.56711"><tspan
         x="28.888361 32.548534 34.37862"
         y="-253.56711"
         sodipodi:role="line"
         id="tspan232"
         style="stroke-width:0.575499">0.6</tspan></text><text
       transform="matrix(1.3333333,0,0,1.3333333,-28.023958,443.59358)"
       style="font-variant:normal;font-weight:normal;font-size:5.75499px;font-family:'DejaVu Sans';-inkscape-font-specification:DejaVuSans;writing-mode:lr-tb;fill:#000000;fill-opacity:1;fill-rule:nonzero;stroke:none;stroke-width:0.575499"
       id="text252"
       x="28.888361"
       y="-284.19653"><tspan
         x="28.888361 32.548534 34.37862"
         y="-284.19653"
         sodipodi:role="line"
         id="tspan250"
         style="stroke-width:0.575499">0.8</tspan></text><text
       transform="matrix(1.3333333,0,0,1.3333333,-28.023958,443.59358)"
       style="font-variant:normal;font-weight:normal;font-size:5.75499px;font-family:'DejaVu Sans';-inkscape-font-specification:DejaVuSans;writing-mode:lr-tb;fill:#000000;fill-opacity:1;fill-rule:nonzero;stroke:none;stroke-width:0.575499"
       id="text270"
       x="28.888361"
       y="-314.82596"><tspan
         x="28.888361 32.548534 34.37862"
         y="-314.82596"
         sodipodi:role="line"
         id="tspan268"
         style="stroke-width:0.575499">1.0</tspan></text><text
       transform="matrix(0,-1.3333333,1.3333333,0,-28.023958,443.59358)"
       style="font-variant:normal;font-weight:normal;font-size:5.75499px;font-family:'DejaVu Sans';-inkscape-font-specification:DejaVuSans;writing-mode:lr-tb;fill:#000000;fill-opacity:1;fill-rule:nonzero;stroke:none;stroke-width:0.575499"
       id="text274"
       x="212.63371"
       y="25.390409"><tspan
         x="212.63371 216.10397 219.6433 223.1711 225.53639 228.53474 232.05679 235.70546 237.53554 240.70078 244.22282 246.58813 248.95343 252.49275 254.09264 257.62045 259.8764 261.47629 264.99832"
         y="25.390409"
         sodipodi:role="line"
         id="tspan272"
         style="stroke-width:0.575499">Pearson correlation</tspan></text><text
       transform="matrix(1.3333333,0,0,1.3333333,-28.023958,443.59358)"
       style="font-variant:normal;font-weight:normal;font-size:6.90598px;font-family:'DejaVu Sans';-inkscape-font-specification:DejaVuSans;writing-mode:lr-tb;fill:#000000;fill-opacity:1;fill-rule:nonzero;stroke:none;stroke-width:0.575499"
       id="text348"
       x="73.762329"
       y="-328.2045"><tspan
         x="73.762329 77.926636 82.17382 86.407188 89.245537 92.843559 97.070023 101.44843 103.64452 107.44281 111.66928 114.50764 117.34599 121.59319 123.51304 127.74641 130.45354 132.3734 136.59988 140.97827 143.17438 147.26271 150.86073 153.05684 155.25294 159.63824 163.88542 168.26379 172.49028 179.21671 181.13657 184.93484 187.13097 191.51625 193.43613 197.03413 199.74129 203.97466 208.35304 212.15134"
         y="-328.2045"
         sodipodi:role="line"
         id="tspan346"
         style="stroke-width:0.575499">Pearson correlation vs. genomic distance</tspan></text><text
       transform="matrix(1.3333333,0,0,1.3333333,-28.023958,443.59358)"
       style="font-variant:normal;font-weight:normal;font-size:6.90598px;font-family:'DejaVu Sans';-inkscape-font-specification:DejaVuSans;writing-mode:lr-tb;fill:#000000;fill-opacity:1;fill-rule:nonzero;stroke:none;stroke-width:0.575499"
       id="text352"
       x="100.74084"
       y="-320.46402"><tspan
         x="100.74084 106.09298 112.05285 116.44505 120.83727 125.22945 129.62166 134.01387 136.20998 138.40607 142.79828 147.19048 149.3866 153.61305 157.99144 160.18755 164.71786 169.11008 173.50227 177.89449 180.09059 182.2867 186.67889"
         y="-320.46402"
         sodipodi:role="line"
         id="tspan350"
         style="stroke-width:0.575499">GM12878, 14 on K562, 19</tspan></text><text
       style="font-variant:normal;font-weight:normal;font-size:7.67332px;font-family:'DejaVu Sans';-inkscape-font-specification:DejaVuSans;writing-mode:lr-tb;fill:#000000;fill-opacity:1;fill-rule:nonzero;stroke:none;stroke-width:0.767332"
       id="text358"
       x="98.758911"
       y="159.17461"><tspan
         x="98.758911 103.63914 108.51938 110.95947 115.67857 120.55112 122.99124 125.57713 128.01726 133.26581 138.88269 144.23865 146.82454 149.26466 154.1449 156.58501 161.46523 166.34546"
         y="159.17461"
         sodipodi:role="line"
         id="tspan356"
         style="stroke-width:0.767332">20 ep / AUC: 0.432</tspan></text><text
       style="font-variant:normal;font-weight:normal;font-size:7.67332px;font-family:'DejaVu Sans';-inkscape-font-specification:DejaVuSans;writing-mode:lr-tb;fill:#000000;fill-opacity:1;fill-rule:nonzero;stroke:none;stroke-width:0.767332"
       id="text364"
       x="98.758911"
       y="170.43282"><tspan
         x="98.758911 103.63914 108.51938 110.95947 115.67857 120.55112 122.99124 125.57713 128.01726 133.26581 138.88269 144.23865 146.82454 149.26466 154.1449 156.58501 161.46523 166.34546"
         y="170.43282"
         sodipodi:role="line"
         id="tspan362"
         style="stroke-width:0.767332">40 ep / AUC: 0.457</tspan></text><text
       style="font-variant:normal;font-weight:normal;font-size:7.67332px;font-family:'DejaVu Sans';-inkscape-font-specification:DejaVuSans;writing-mode:lr-tb;fill:#000000;fill-opacity:1;fill-rule:nonzero;stroke:none;stroke-width:0.767332"
       id="text370"
       x="98.758911"
       y="181.69099"><tspan
         x="98.758911 103.63914 108.51938 110.95947 115.67857 120.55112 122.99124 125.57713 128.01726 133.26581 138.88269 144.23865 146.82454 149.26466 154.1449 156.58501 161.46523 166.34546"
         y="181.69099"
         sodipodi:role="line"
         id="tspan368"
         style="stroke-width:0.767332">60 ep / AUC: 0.465</tspan></text><text
       style="font-variant:normal;font-weight:normal;font-size:7.67332px;font-family:'DejaVu Sans';-inkscape-font-specification:DejaVuSans;writing-mode:lr-tb;fill:#000000;fill-opacity:1;fill-rule:nonzero;stroke:none;stroke-width:0.767332"
       id="text376"
       x="98.758911"
       y="192.94922"><tspan
         x="98.758911 103.63914 108.51938 110.95947 115.67857 120.55112 122.99124 125.57713 128.01726 133.26581 138.88269 144.23865 146.82454 149.26466 154.1449 156.58501 161.46523 166.34546"
         y="192.94922"
         sodipodi:role="line"
         id="tspan374"
         style="stroke-width:0.767332">80 ep / AUC: 0.466</tspan></text><text
       style="font-variant:normal;font-weight:normal;font-size:7.67332px;font-family:'DejaVu Sans';-inkscape-font-specification:DejaVuSans;writing-mode:lr-tb;fill:#000000;fill-opacity:1;fill-rule:nonzero;stroke:none;stroke-width:0.767332"
       id="text382"
       x="98.758911"
       y="204.20735"><tspan
         x="98.758911 103.63914 108.51938 113.39958 115.83971 120.55881 125.43134 127.87146 130.45738 132.89749 138.14601 143.76289 149.11888 151.70479 154.1449 159.02513 161.46523 166.34546 171.22569"
         y="204.20735"
         sodipodi:role="line"
         id="tspan380"
         style="stroke-width:0.767332">100 ep / AUC: 0.478</tspan></text><text
       style="font-variant:normal;font-weight:normal;font-size:7.67332px;font-family:'DejaVu Sans';-inkscape-font-specification:DejaVuSans;writing-mode:lr-tb;fill:#000000;fill-opacity:1;fill-rule:nonzero;stroke:none;stroke-width:0.767332"
       id="text388"
       x="98.758911"
       y="215.46558"><tspan
         x="98.758911 101.76685 104.92058 109.62433 114.4892 118.487 121.18802 125.9071 129.06082 131.50095 137.44775 144.06982 148.95007 153.83028 158.71053 163.59074 168.47099 170.91109 173.49699 175.93709 181.18564 186.80252 192.15851 194.74442 197.18451 202.06476 204.50485 209.38507 214.26532"
         y="215.46558"
         sodipodi:role="line"
         id="tspan386"
         style="stroke-width:0.767332">transfer GM12878 / AUC: 0.786</tspan></text></g></svg>
