<?xml version="1.0" encoding="UTF-8" standalone="no"?>
<svg
   xmlns:dc="http://purl.org/dc/elements/1.1/"
   xmlns:cc="http://creativecommons.org/ns#"
   xmlns:rdf="http://www.w3.org/1999/02/22-rdf-syntax-ns#"
   xmlns:svg="http://www.w3.org/2000/svg"
   xmlns="http://www.w3.org/2000/svg"
   xmlns:sodipodi="http://sodipodi.sourceforge.net/DTD/sodipodi-0.dtd"
   xmlns:inkscape="http://www.inkscape.org/namespaces/inkscape"
   width="140mm"
   height="35mm"
   viewBox="0 0 140 35"
   version="1.1"
   id="svg8"
   inkscape:version="1.0.2 (1.0.2+r75+1)"
   sodipodi:docname="explanation_spatial_structure.svg">
  <defs
     id="defs2">
    <marker
       style="overflow:visible"
       id="marker2112"
       refX="0"
       refY="0"
       orient="auto"
       inkscape:stockid="Arrow1Mstart"
       inkscape:isstock="true">
      <path
         transform="matrix(0.4,0,0,0.4,4,0)"
         style="fill:#000000;fill-opacity:1;fill-rule:evenodd;stroke:#000000;stroke-width:1pt;stroke-opacity:1"
         d="M 0,0 5,-5 -12.5,0 5,5 Z"
         id="path2110" />
    </marker>
    <marker
       style="overflow:visible"
       id="marker2102"
       refX="0"
       refY="0"
       orient="auto"
       inkscape:stockid="Arrow1Mend"
       inkscape:isstock="true">
      <path
         transform="matrix(-0.4,0,0,-0.4,-4,0)"
         style="fill:#000000;fill-opacity:1;fill-rule:evenodd;stroke:#000000;stroke-width:1pt;stroke-opacity:1"
         d="M 0,0 5,-5 -12.5,0 5,5 Z"
         id="path2100" />
    </marker>
    <marker
       style="overflow:visible"
       id="marker1852"
       refX="0"
       refY="0"
       orient="auto"
       inkscape:stockid="Arrow1Mstart"
       inkscape:isstock="true"
       inkscape:collect="always">
      <path
         transform="matrix(0.4,0,0,0.4,4,0)"
         style="fill:#000000;fill-opacity:1;fill-rule:evenodd;stroke:#000000;stroke-width:1pt;stroke-opacity:1"
         d="M 0,0 5,-5 -12.5,0 5,5 Z"
         id="path1850" />
    </marker>
    <marker
       style="overflow:visible"
       id="marker1842"
       refX="0"
       refY="0"
       orient="auto"
       inkscape:stockid="Arrow1Mend"
       inkscape:isstock="true"
       inkscape:collect="always">
      <path
         transform="matrix(-0.4,0,0,-0.4,-4,0)"
         style="fill:#000000;fill-opacity:1;fill-rule:evenodd;stroke:#000000;stroke-width:1pt;stroke-opacity:1"
         d="M 0,0 5,-5 -12.5,0 5,5 Z"
         id="path1840" />
    </marker>
    <marker
       style="overflow:visible"
       id="marker1660"
       refX="0"
       refY="0"
       orient="auto"
       inkscape:stockid="Arrow1Mstart"
       inkscape:isstock="true">
      <path
         transform="matrix(0.4,0,0,0.4,4,0)"
         style="fill:#000000;fill-opacity:1;fill-rule:evenodd;stroke:#000000;stroke-width:1pt;stroke-opacity:1"
         d="M 0,0 5,-5 -12.5,0 5,5 Z"
         id="path1658" />
    </marker>
    <marker
       style="overflow:visible"
       id="marker1650"
       refX="0"
       refY="0"
       orient="auto"
       inkscape:stockid="Arrow1Mend"
       inkscape:isstock="true">
      <path
         transform="matrix(-0.4,0,0,-0.4,-4,0)"
         style="fill:#000000;fill-opacity:1;fill-rule:evenodd;stroke:#000000;stroke-width:1pt;stroke-opacity:1"
         d="M 0,0 5,-5 -12.5,0 5,5 Z"
         id="path1648" />
    </marker>
    <marker
       style="overflow:visible"
       id="marker1533"
       refX="0"
       refY="0"
       orient="auto"
       inkscape:stockid="Arrow1Mend"
       inkscape:isstock="true"
       inkscape:collect="always">
      <path
         transform="matrix(-0.4,0,0,-0.4,-4,0)"
         style="fill:#000000;fill-opacity:1;fill-rule:evenodd;stroke:#000000;stroke-width:1pt;stroke-opacity:1"
         d="M 0,0 5,-5 -12.5,0 5,5 Z"
         id="path1531" />
    </marker>
    <marker
       style="overflow:visible"
       id="Arrow1Send"
       refX="0"
       refY="0"
       orient="auto"
       inkscape:stockid="Arrow1Send"
       inkscape:isstock="true">
      <path
         transform="matrix(-0.2,0,0,-0.2,-1.2,0)"
         style="fill:#000000;fill-opacity:1;fill-rule:evenodd;stroke:#000000;stroke-width:1pt;stroke-opacity:1"
         d="M 0,0 5,-5 -12.5,0 5,5 Z"
         id="path1468" />
    </marker>
    <marker
       style="overflow:visible"
       id="Arrow1Mstart"
       refX="0"
       refY="0"
       orient="auto"
       inkscape:stockid="Arrow1Mstart"
       inkscape:isstock="true"
       inkscape:collect="always">
      <path
         transform="matrix(0.4,0,0,0.4,4,0)"
         style="fill:#000000;fill-opacity:1;fill-rule:evenodd;stroke:#000000;stroke-width:1pt;stroke-opacity:1"
         d="M 0,0 5,-5 -12.5,0 5,5 Z"
         id="path906" />
    </marker>
    <marker
       style="overflow:visible"
       id="Arrow1Lstart"
       refX="0"
       refY="0"
       orient="auto"
       inkscape:stockid="Arrow1Lstart"
       inkscape:isstock="true">
      <path
         transform="matrix(0.8,0,0,0.8,10,0)"
         style="fill:#000000;fill-opacity:1;fill-rule:evenodd;stroke:#000000;stroke-width:1pt;stroke-opacity:1"
         d="M 0,0 5,-5 -12.5,0 5,5 Z"
         id="path900" />
    </marker>
    <marker
       style="overflow:visible"
       id="marker1310"
       refX="0"
       refY="0"
       orient="auto"
       inkscape:stockid="Arrow1Mend"
       inkscape:isstock="true"
       inkscape:collect="always">
      <path
         transform="matrix(-0.4,0,0,-0.4,-4,0)"
         style="fill:#666666;fill-opacity:1;fill-rule:evenodd;stroke:#666666;stroke-width:1pt;stroke-opacity:1"
         d="M 0,0 5,-5 -12.5,0 5,5 Z"
         id="path1308" />
    </marker>
    <marker
       style="overflow:visible"
       id="marker1216"
       refX="0"
       refY="0"
       orient="auto"
       inkscape:stockid="Arrow1Mend"
       inkscape:isstock="true"
       inkscape:collect="always">
      <path
         transform="matrix(-0.4,0,0,-0.4,-4,0)"
         style="fill:#666666;fill-opacity:1;fill-rule:evenodd;stroke:#666666;stroke-width:1pt;stroke-opacity:1"
         d="M 0,0 5,-5 -12.5,0 5,5 Z"
         id="path1214" />
    </marker>
    <marker
       style="overflow:visible"
       id="Arrow1Mend"
       refX="0"
       refY="0"
       orient="auto"
       inkscape:stockid="Arrow1Mend"
       inkscape:isstock="true"
       inkscape:collect="always">
      <path
         transform="matrix(-0.4,0,0,-0.4,-4,0)"
         style="fill:#666666;fill-opacity:1;fill-rule:evenodd;stroke:#666666;stroke-width:1pt;stroke-opacity:1"
         d="M 0,0 5,-5 -12.5,0 5,5 Z"
         id="path909" />
    </marker>
  </defs>
  <sodipodi:namedview
     id="base"
     pagecolor="#ffffff"
     bordercolor="#666666"
     borderopacity="1.0"
     inkscape:pageopacity="0.0"
     inkscape:pageshadow="2"
     inkscape:zoom="4"
     inkscape:cx="309.92581"
     inkscape:cy="35.652236"
     inkscape:document-units="mm"
     inkscape:current-layer="layer2"
     inkscape:document-rotation="0"
     showgrid="false"
     inkscape:window-width="1920"
     inkscape:window-height="1020"
     inkscape:window-x="0"
     inkscape:window-y="0"
     inkscape:window-maximized="1" />
  <metadata
     id="metadata5">
    <rdf:RDF>
      <cc:Work
         rdf:about="">
        <dc:format>image/svg+xml</dc:format>
        <dc:type
           rdf:resource="http://purl.org/dc/dcmitype/StillImage" />
        <dc:title></dc:title>
      </cc:Work>
    </rdf:RDF>
  </metadata>
  <g
     inkscape:label="Layer 1"
     inkscape:groupmode="layer"
     id="layer1"
     style="display:inline">
    <path
       style="fill:none;stroke:#808080;stroke-width:0.264583px;stroke-linecap:round;stroke-linejoin:miter;stroke-opacity:1"
       d="m 2.9270833,6.551401 0.097138,1.4863755"
       id="path913" />
    <path
       style="fill:none;stroke:#808080;stroke-width:0.264583px;stroke-linecap:round;stroke-linejoin:miter;stroke-opacity:1"
       d="m 6.6076266,6.1521641 0.097138,1.4863755"
       id="path915" />
    <path
       style="fill:none;stroke:#808080;stroke-width:0.264583px;stroke-linecap:round;stroke-linejoin:miter;stroke-opacity:1"
       d="M 5.6627858,5.7446131 5.8154179,8.1174146"
       id="path917"
       sodipodi:nodetypes="cc" />
    <path
       style="fill:none;stroke:#808080;stroke-width:0.264583px;stroke-linecap:round;stroke-linejoin:miter;stroke-opacity:1"
       d="M 3.8036143,5.9336019 3.9562464,8.3064034"
       id="path921"
       sodipodi:nodetypes="cc" />
    <path
       style="fill:none;stroke:#808080;stroke-width:0.264583px;stroke-linecap:round;stroke-linejoin:miter;stroke-opacity:1"
       d="M 4.7107586,5.8391075 4.8633907,8.211909"
       id="path919"
       sodipodi:nodetypes="cc" />
    <path
       style="fill:none;stroke:#808080;stroke-width:0.264583px;stroke-linecap:round;stroke-linejoin:miter;stroke-opacity:1"
       d="M 7.43426,6.3963006 7.500336,7.4615443"
       id="path923"
       sodipodi:nodetypes="cc" />
    <path
       style="fill:none;stroke:#808080;stroke-width:0.264583px;stroke-linecap:round;stroke-linejoin:miter;stroke-opacity:1"
       d="m 2.1307812,6.8545962 0.066076,1.065244"
       id="path925"
       sodipodi:nodetypes="cc" />
    <path
       style="fill:none;stroke:#808080;stroke-width:0.264583px;stroke-linecap:round;stroke-linejoin:miter;stroke-opacity:1"
       d="m 16.238832,6.2975996 -0.10704,1.4856955"
       id="path866" />
    <path
       style="fill:none;stroke:#808080;stroke-width:0.264583px;stroke-linecap:round;stroke-linejoin:miter;stroke-opacity:1"
       d="M 19.939395,6.4054399 19.832356,7.8911353"
       id="path868" />
    <path
       style="fill:none;stroke:#808080;stroke-width:0.264583px;stroke-linecap:round;stroke-linejoin:miter;stroke-opacity:1"
       d="M 19.059165,5.8725077 18.885875,8.24389"
       id="path870"
       sodipodi:nodetypes="cc" />
    <path
       style="fill:none;stroke:#808080;stroke-width:0.264583px;stroke-linecap:round;stroke-linejoin:miter;stroke-opacity:1"
       d="m 17.191615,5.8054733 -0.17329,2.3713822"
       id="path872"
       sodipodi:nodetypes="cc" />
    <path
       style="fill:none;stroke:#808080;stroke-width:0.264583px;stroke-linecap:round;stroke-linejoin:miter;stroke-opacity:1"
       d="M 18.10316,5.8359216 17.92987,8.2073039"
       id="path874"
       sodipodi:nodetypes="cc" />
    <path
       style="fill:none;stroke:#808080;stroke-width:0.264583px;stroke-linecap:round;stroke-linejoin:miter;stroke-opacity:1"
       d="M 20.704578,6.9132243 20.67769,7.6417007"
       id="path876"
       sodipodi:nodetypes="cc" />
    <path
       style="fill:none;stroke:#808080;stroke-width:0.264583px;stroke-linecap:round;stroke-linejoin:miter;stroke-opacity:1"
       d="m 9.8316057,6.4599103 0.019098,1.0860741"
       id="path880"
       sodipodi:nodetypes="cc" />
    <path
       style="fill:none;stroke:#808080;stroke-width:0.264583px;stroke-linecap:round;stroke-linejoin:miter;stroke-opacity:1"
       d="m 13.52381,6.0840715 0.028,1.6458291"
       id="path882"
       sodipodi:nodetypes="cc" />
    <path
       style="fill:none;stroke:#808080;stroke-width:0.264583px;stroke-linecap:round;stroke-linejoin:miter;stroke-opacity:1"
       d="m 12.603384,5.787434 0.03679,2.3774209"
       id="path884"
       sodipodi:nodetypes="cc" />
    <path
       style="fill:none;stroke:#808080;stroke-width:0.264583px;stroke-linecap:round;stroke-linejoin:miter;stroke-opacity:1"
       d="m 10.768914,6.0450281 0.01466,1.9296813"
       id="path886"
       sodipodi:nodetypes="cc" />
    <path
       style="fill:none;stroke:#808080;stroke-width:0.264583px;stroke-linecap:round;stroke-linejoin:miter;stroke-opacity:1"
       d="m 11.647883,5.8354093 0.03679,2.3774209"
       id="path888"
       sodipodi:nodetypes="cc" />
    <path
       style="fill:none;stroke:#808080;stroke-width:0.264583px;stroke-linecap:round;stroke-linejoin:miter;stroke-opacity:1"
       d="m 14.340987,6.5246977 0.01661,0.7646542"
       id="path890"
       sodipodi:nodetypes="cc" />
    <path
       style="fill:none;stroke:#000000;stroke-width:0.426075;stroke-linecap:butt;stroke-linejoin:miter;stroke-miterlimit:4;stroke-dasharray:none;stroke-opacity:1"
       d="m 0.50129517,7.9436669 c 0,0 2.93646043,-2.3281036 4.20583833,-2.3423406 2.3964015,-0.032799 5.5657035,2.7430016 7.3761075,2.7452282 1.852959,-0.051693 3.680162,-2.7087355 5.533787,-2.722781 2.027259,-0.015361 4.039812,2.1562748 4.039812,2.1562748"
       id="path833"
       sodipodi:nodetypes="cccsc" />
    <path
       style="fill:none;stroke:#000000;stroke-width:0.426075;stroke-linecap:butt;stroke-linejoin:miter;stroke-miterlimit:4;stroke-dasharray:none;stroke-opacity:1"
       d="m 0.50082237,7.1195138 c 0,0 2.39251533,1.3459839 3.66189323,1.360221 2.3964017,0.032799 6.1177494,-2.7449911 7.9281534,-2.7472177 2.754518,-0.069684 3.975995,2.763607 5.82962,2.7776525 2.027259,0.015361 3.994462,-1.831121 3.994462,-1.831121"
       id="path837"
       sodipodi:nodetypes="cccsc" />
    <circle
       style="fill:#009933;stroke:#000000;stroke-width:0.5;stroke-linecap:round;stroke-linejoin:round;stroke-miterlimit:4;stroke-dasharray:none;stroke-opacity:1"
       id="path839"
       cx="37.131836"
       cy="27.791882"
       r="2.4733863" />
    <circle
       style="fill:#009933;stroke:#000000;stroke-width:0.5;stroke-linecap:round;stroke-linejoin:round;stroke-miterlimit:4;stroke-dasharray:none;stroke-opacity:1"
       id="circle841"
       cx="47.675396"
       cy="25.965403"
       r="2.4733863" />
    <circle
       style="fill:#009933;stroke:#000000;stroke-width:0.5;stroke-linecap:round;stroke-linejoin:round;stroke-miterlimit:4;stroke-dasharray:none;stroke-opacity:1"
       id="circle843"
       cx="57.85561"
       cy="28.188675"
       r="2.4733863" />
    <path
       style="fill:none;stroke:#000000;stroke-width:0.5;stroke-linecap:round;stroke-linejoin:miter;stroke-miterlimit:4;stroke-dasharray:none;stroke-opacity:1"
       d="m 31.399546,30.903178 6.017252,-0.653454"
       id="path845"
       sodipodi:nodetypes="cc" />
    <path
       style="fill:none;stroke:#000000;stroke-width:0.5;stroke-linecap:round;stroke-linejoin:miter;stroke-miterlimit:4;stroke-dasharray:none;stroke-opacity:1"
       d="m 39.593113,28.053698 c 0.04888,-3.662128 4.088142,-4.604752 5.800288,-1.15109"
       id="path847"
       sodipodi:nodetypes="cc" />
    <path
       style="fill:none;stroke:#000000;stroke-width:0.5;stroke-linecap:round;stroke-linejoin:miter;stroke-miterlimit:4;stroke-dasharray:none;stroke-opacity:1"
       d="m 48.240695,28.384588 c 0,0 3.026217,-0.916874 4.432875,-0.651856 1.308313,0.246488 3.371433,2.148612 3.371433,2.148612"
       id="path849"
       sodipodi:nodetypes="csc" />
    <path
       style="fill:none;stroke:#000000;stroke-width:0.5;stroke-linecap:round;stroke-linejoin:miter;stroke-miterlimit:4;stroke-dasharray:none;stroke-opacity:1"
       d="m 58.679264,30.527167 c 1.376928,-0.424456 2.44388,-1.097104 3.347211,-2.672015"
       id="path851"
       sodipodi:nodetypes="cc"
       inkscape:transform-center-x="-1.7769813"
       inkscape:transform-center-y="-1.4405679" />
    <circle
       style="fill:#009933;stroke:#000000;stroke-width:0.5;stroke-linecap:round;stroke-linejoin:round;stroke-miterlimit:4;stroke-dasharray:none;stroke-opacity:1"
       id="circle853"
       cx="82.860207"
       cy="7.9082241"
       r="2.4733863" />
    <circle
       style="fill:#009933;stroke:#000000;stroke-width:0.5;stroke-linecap:round;stroke-linejoin:round;stroke-miterlimit:4;stroke-dasharray:none;stroke-opacity:1"
       id="circle855"
       cx="88.681046"
       cy="7.9082241"
       r="2.4733863" />
    <circle
       style="fill:#009933;stroke:#000000;stroke-width:0.5;stroke-linecap:round;stroke-linejoin:round;stroke-miterlimit:4;stroke-dasharray:none;stroke-opacity:1"
       id="circle857"
       cx="94.501884"
       cy="7.9082241"
       r="2.4733863" />
    <circle
       style="fill:#009933;stroke:#000000;stroke-width:0.5;stroke-linecap:round;stroke-linejoin:round;stroke-miterlimit:4;stroke-dasharray:none;stroke-opacity:1"
       id="circle859"
       cx="100.32272"
       cy="7.9082241"
       r="2.4733863" />
    <circle
       style="fill:#009933;stroke:#000000;stroke-width:0.5;stroke-linecap:round;stroke-linejoin:round;stroke-miterlimit:4;stroke-dasharray:none;stroke-opacity:1"
       id="circle861"
       cx="79.685204"
       cy="13.199886"
       r="2.4733863" />
    <circle
       style="fill:#009933;stroke:#000000;stroke-width:0.5;stroke-linecap:round;stroke-linejoin:round;stroke-miterlimit:4;stroke-dasharray:none;stroke-opacity:1"
       id="circle863"
       cx="85.506042"
       cy="13.199886"
       r="2.4733863" />
    <circle
       style="fill:#009933;stroke:#000000;stroke-width:0.5;stroke-linecap:round;stroke-linejoin:round;stroke-miterlimit:4;stroke-dasharray:none;stroke-opacity:1"
       id="circle865"
       cx="91.326881"
       cy="13.199886"
       r="2.4733863" />
    <circle
       style="fill:#009933;stroke:#000000;stroke-width:0.5;stroke-linecap:round;stroke-linejoin:round;stroke-miterlimit:4;stroke-dasharray:none;stroke-opacity:1"
       id="circle867"
       cx="97.14772"
       cy="13.199886"
       r="2.4733863" />
    <path
       style="fill:none;stroke:#000000;stroke-width:0.5;stroke-linecap:round;stroke-linejoin:miter;stroke-miterlimit:4;stroke-dasharray:none;stroke-opacity:1"
       d="m 79.60208,10.732796 3.633386,-0.376638"
       id="path869"
       sodipodi:nodetypes="cc" />
    <path
       style="fill:none;stroke:#000000;stroke-width:0.5;stroke-linecap:round;stroke-linejoin:miter;stroke-miterlimit:4;stroke-dasharray:none;stroke-opacity:1"
       d="m 85.422917,10.732796 3.633386,-0.376638"
       id="path871"
       sodipodi:nodetypes="cc" />
    <path
       style="fill:none;stroke:#000000;stroke-width:0.5;stroke-linecap:round;stroke-linejoin:miter;stroke-miterlimit:4;stroke-dasharray:none;stroke-opacity:1"
       d="M 91.243754,10.732796 94.87714,10.356158"
       id="path873"
       sodipodi:nodetypes="cc" />
    <path
       style="fill:none;stroke:#000000;stroke-width:0.5;stroke-linecap:round;stroke-linejoin:miter;stroke-miterlimit:4;stroke-dasharray:none;stroke-opacity:1"
       d="m 97.064591,10.732796 3.633389,-0.376638"
       id="path875"
       sodipodi:nodetypes="cc" />
    <path
       style="fill:none;stroke:#000000;stroke-width:0.5;stroke-linecap:round;stroke-linejoin:miter;stroke-miterlimit:4;stroke-dasharray:none;stroke-opacity:1"
       d="m 80.898578,9.4250436 c 0.768574,0.8135134 2.07936,2.3402704 2.153016,3.4251124"
       id="path877"
       sodipodi:nodetypes="cc"
       inkscape:transform-center-x="-1.1301125"
       inkscape:transform-center-y="1.4997741" />
    <path
       style="fill:none;stroke:#000000;stroke-width:0.5;stroke-linecap:round;stroke-linejoin:miter;stroke-miterlimit:4;stroke-dasharray:none;stroke-opacity:1"
       d="m 86.719415,9.4250436 c 0.768574,0.8135134 2.07936,2.3402704 2.153016,3.4251124"
       id="path879"
       sodipodi:nodetypes="cc"
       inkscape:transform-center-x="-1.1301125"
       inkscape:transform-center-y="1.4997741" />
    <path
       style="fill:none;stroke:#000000;stroke-width:0.5;stroke-linecap:round;stroke-linejoin:miter;stroke-miterlimit:4;stroke-dasharray:none;stroke-opacity:1"
       d="m 92.540252,9.4250436 c 0.768574,0.8135134 2.07936,2.3402704 2.153016,3.4251124"
       id="path881"
       sodipodi:nodetypes="cc"
       inkscape:transform-center-x="-1.1301125"
       inkscape:transform-center-y="1.4997741" />
    <path
       style="fill:none;stroke:#000000;stroke-width:0.5;stroke-linecap:round;stroke-linejoin:miter;stroke-miterlimit:4;stroke-dasharray:none;stroke-opacity:1"
       d="m 92.540252,9.4250436 c 0.768574,0.8135134 2.07936,2.3402704 2.153016,3.4251124"
       id="path883"
       sodipodi:nodetypes="cc"
       inkscape:transform-center-x="-1.1301125"
       inkscape:transform-center-y="1.4997741" />
    <path
       style="fill:none;stroke:#000000;stroke-width:0.5;stroke-linecap:round;stroke-linejoin:miter;stroke-miterlimit:4;stroke-dasharray:none;stroke-opacity:1"
       d="m 98.361089,9.4250436 c 0.702173,0.9556274 2.789331,2.5491284 5.233271,2.5786134"
       id="path885"
       sodipodi:nodetypes="cc"
       inkscape:transform-center-x="-1.1301125"
       inkscape:transform-center-y="1.4997741" />
    <path
       style="fill:none;stroke:#000000;stroke-width:0.5;stroke-linecap:round;stroke-linejoin:miter;stroke-miterlimit:4;stroke-dasharray:none;stroke-opacity:1"
       d="M 81.611415,11.648721 C 80.720003,10.673315 79.148317,9.2344151 76.60966,9.3451858"
       id="path887"
       sodipodi:nodetypes="cc"
       inkscape:transform-center-x="0.9048625"
       inkscape:transform-center-y="-1.645509" />
    <path
       id="path895"
       style="fill:#00382b;fill-opacity:1;stroke:none;stroke-width:0.353531px;stroke-linecap:butt;stroke-linejoin:miter;stroke-opacity:1"
       d="m 115.74101,23.361903 c -0.13783,0.07408 -0.0701,0.272635 -0.15332,0.30643 -0.0793,0.03215 -0.32924,-0.237106 -0.54723,0.02766 -0.26957,0.256429 0.1021,0.311697 0.0555,0.389922 -0.0556,0.133837 -0.20998,-0.05633 -0.31543,0.131372 -0.13797,0.120137 0.22681,0.196073 0.12466,0.363612 -0.0534,0.109668 -0.28742,0.02153 -0.34073,0.11288 -0.10513,0.180119 0.19544,0.212991 0.23578,0.348182 0.058,0.194486 -0.16381,0.206973 -0.008,0.350745 0.2629,0.242301 0.18421,-0.05091 0.45012,-0.0071 0.21897,0.03603 0.2315,0.497785 0.57009,0.07684 0.33588,0.258135 0.29543,0.430136 0.8083,0.05979 0.26418,0.06695 0.0424,0.286574 0.37236,0.337452 0.47397,0.08171 0.3231,-0.241584 0.50339,-0.258113 0.17798,-0.01631 0.2107,0.242578 0.44203,0.25728 0.18092,0.0115 0.15793,0.03914 0.49369,-0.21363 0.17218,-0.05125 0.3204,0.351534 0.42563,0.258697 0.0477,0.03337 0.33104,-0.273229 0.40375,-0.248723 0.17025,0.05737 0.2522,0.327067 0.35743,0.234124 0.0478,0.03337 0.36355,-0.241719 0.43627,-0.217208 0.26168,0.387026 0.49674,0.250161 0.72758,0.119821 0.24338,0.193548 0.2663,0.480839 0.77808,0.08979 0.26675,0.527755 0.4295,0.226695 0.82004,0.05017 0.12982,-0.05868 0.37222,0.287642 0.47801,0.31991 0.14707,0.04485 0.3959,-0.155336 0.4801,-0.268682 0.0593,0.05751 0.26117,0.450587 0.39042,0.290892 0.52357,-0.408388 0.17766,0.508618 0.71915,0.167739 0.1452,-0.09385 0.27436,0.252098 0.39825,0.14577 0.42972,-0.299496 0.45766,0.0027 0.60708,0.118036 0.1702,0.13134 0.32713,-0.256567 0.54096,-0.251105 0.15329,0.0039 0.0737,0.214674 0.29535,0.233041 0.0747,0.0062 0.28478,-0.250774 0.37825,-0.194696 0.0353,0.02116 0.11238,0.08859 0.203,0.222452 0.0554,0.08186 0.41373,-0.168667 0.4531,-0.0798 0.0209,0.04722 0.12412,0.246392 0.0758,0.350516 -0.0329,0.07091 -0.29288,-0.0015 -0.32995,0.06151 -0.0467,0.07935 -0.01,0.178762 -0.0283,0.188329 -0.0969,0.04941 -0.43343,-0.188229 -0.48614,-0.10665 -0.0956,0.147928 -0.17449,0.260995 -0.18813,0.271835 -0.0956,0.07598 -0.18004,-0.232462 -0.34245,0.0678 -0.10653,0.196901 -0.30316,-0.334922 -0.42282,0.05692 -0.21442,0.108465 -0.31562,-0.189703 -0.47496,-0.122878 -0.27565,0.09541 -0.11866,0.291353 -0.2618,0.325654 -0.18309,0.05668 -0.64083,-0.475096 -0.75262,0.159196 -0.048,0.09999 -0.30136,-0.149757 -0.39373,-0.213909 -0.11611,-0.08065 -0.2765,0.241931 -0.42369,0.28683 -0.1061,0.03235 -0.25789,-0.252349 -0.31728,-0.194633 -0.0842,-0.113535 -0.24486,0.330719 -0.36491,0.234425 -0.49221,-0.410808 -0.31552,-0.229674 -0.66587,0.06045 -0.0941,-0.105524 -0.27622,-0.248571 -0.50157,-0.242873 -0.14603,0.0037 -0.37608,0.213468 -0.41516,0.244582 -0.17563,-0.386397 -0.46306,-0.397226 -0.60018,0.0012 -0.0897,-0.05525 -0.24468,-0.227192 -0.37791,-0.182298 -0.0729,0.02454 -0.3634,0.299262 -0.41119,0.332683 -0.10523,-0.09276 -0.54588,-0.573161 -0.66197,-0.0094 -0.29414,0.290219 -0.22931,-0.07258 -0.52221,-0.146881 -0.0818,0.04716 -0.27191,0.297574 -0.32325,0.358033 -0.11032,-0.145958 -0.26068,-0.267943 -0.41616,-0.178378 -0.0819,0.04716 -0.20656,0.195409 -0.2579,0.255869 -0.40515,-0.361097 -0.69822,-0.03762 -0.88592,0.189705 -0.32861,-0.398569 -0.35158,-0.294063 -0.64012,0.03752 -0.22202,-0.408832 -0.47741,-0.301472 -0.55664,0.04052 -0.0608,0.26254 -0.36132,-0.154356 -0.58977,0.120699 -0.17245,0.20763 -0.13637,0.272289 0.3156,0.405224 0.1267,0.03726 -0.19519,0.472269 -0.15982,0.524606 0.12751,0.188585 0.51715,-0.145639 0.63277,0.06052 0.0816,0.145591 -0.23077,0.393513 -0.17211,0.584888 0.036,0.117536 0.38284,-0.186476 0.49955,-0.09114 0.14631,0.119543 -0.13919,0.41001 0.14266,0.522227 0.1439,0.05728 0.33063,-0.195424 0.38384,-0.378604 0.0445,0.329293 0.10382,0.56084 0.31553,0.42743 0.13104,-0.08256 0.20415,-0.24425 0.25735,-0.42743 0.0445,0.329293 0.0679,0.463016 0.31555,0.42743 0.31106,-0.04469 0.23541,-0.132766 0.31541,-0.491245 0.16705,0.301439 0.17326,0.371157 0.42637,0.329314 0.17002,-0.02811 0.23299,-0.413756 0.26233,-0.430147 0.11188,0.104138 0.21915,0.453114 0.44478,0.355579 0.0345,-0.01492 0.21137,-0.455273 0.24071,-0.471664 0.11188,0.104138 0.33697,0.417694 0.49527,0.367196 0.36857,-0.11757 0.31153,-0.103023 0.35471,-0.465524 0.17658,0.226831 0.0882,0.509433 0.41134,0.407715 0.0574,-0.01806 0.18027,-0.296346 0.22091,-0.335981 0.11242,0.09499 0.22827,0.355608 0.41413,0.297085 0.0574,-0.01806 0.26323,-0.313766 0.30388,-0.353401 0.11242,0.09499 0.37128,0.390407 0.55715,0.331884 0.3377,-0.106336 0.40162,-0.0484 0.48927,-0.456149 0.20208,0.315198 0.24609,0.455276 0.51171,0.381868 0.0903,-0.02496 0.31693,-0.370206 0.36552,-0.458835 0.10873,0.133748 0.22689,0.441457 0.37288,0.40111 0.0903,-0.02495 0.27762,-0.424317 0.32619,-0.512947 0.10874,0.133748 0.23895,0.456329 0.38494,0.415983 0.35607,-0.0984 0.10842,-0.224458 0.32453,-0.617627 0.18285,0.279974 0.11134,0.558839 0.49905,0.469344 0.0873,-0.02016 0.13318,-0.459586 0.19243,-0.495323 0.0866,0.08103 0.32076,0.389729 0.48356,0.352149 0.0873,-0.02016 -0.34674,-0.927424 0.47951,-0.200487 0.33103,-0.04335 0.15335,-0.579182 0.28511,-0.476443 0.55367,0.43174 0.62526,0.315736 0.63367,-0.107082 0.47497,0.414081 0.32438,0.116414 0.59049,-0.161232 0.32906,0.0023 0.0407,0.0844 0.49478,0.0953 0.18644,-0.03656 0.16587,-0.185459 0.26644,-0.346673 0.19277,0.151767 0.42229,0.192053 0.66843,0.04635 0.19323,-0.11438 0.0805,-0.261536 0.19176,-0.289053 0.0654,-0.01618 0.40894,0.338598 0.47808,0.352629 0.17801,0.03612 0.15075,-0.224871 0.33026,-0.225005 0.15382,0.01028 0.18785,0.248176 0.25699,0.262207 0.15088,0.03062 0.23021,-0.26128 0.29681,-0.186938 0.17746,0.19811 0.10948,0.289256 0.40203,0.100251 0.17626,-0.113878 -0.17465,0.393035 0.33298,0.277732 0.12074,0.08018 -0.009,0.150519 0.15578,0.283996 0.0461,0.03735 0.0481,0.07615 0.30789,0.0012 0,0 0.11277,0.460242 0.47665,0.16512 0.19535,0.150713 0.008,0.24377 0.136,0.336066 0.16713,0.152694 0.21962,0.05141 0.40693,-0.04329 0.27466,0.400661 0.20381,0.633145 0.60904,0.118313 0.4155,1.09661 0.30447,-0.02348 0.669,0.169824 0.24263,0.128663 -0.0286,0.88738 0.61713,0.190738 0.16497,0.577643 0.47989,0.30409 0.66106,0.181792 0.19133,0.123376 0.12586,0.615913 0.6325,0.159188 0.21557,0.122561 0.23868,0.520698 0.62638,0.05872 0.28803,0.267311 0.38461,0.565901 0.63617,0.08617 0.40861,0.695984 0.551,0.123875 0.81856,0.06579 0.43899,0.620985 0.47871,0.07052 0.63057,0.06511 0.1117,-0.004 0.17632,0.207561 0.2893,0.256088 0.0838,0.03602 0.26563,-0.0988 0.35602,-0.112128 0.13979,-0.02062 -0.19597,-0.291292 -0.18263,-0.363361 0.0174,-0.09396 0.36728,-0.150284 0.41498,-0.282921 0.0442,-0.122853 -0.27718,-0.190983 -0.30406,-0.341742 -0.0181,-0.101724 0.38413,-0.187207 0.40577,-0.330477 0.0323,-0.213163 -0.25138,-0.175324 -0.30469,-0.372737 -0.0334,-0.123402 0.29993,-0.180969 0.14207,-0.360174 -0.2291,-0.26009 -0.34878,0.131623 -0.54375,0.0764 -0.26662,-0.07559 0.0481,-0.294226 -0.30833,-0.362082 -0.4188,-0.07976 -0.16324,0.276739 -0.57472,0.260182 -0.25606,-0.01028 -0.0667,-0.421212 -0.4808,-0.408372 -0.15421,0.0048 -0.10854,0.390601 -0.56756,0.391511 -0.2624,5.2e-4 0.013,-0.451801 -0.27576,-0.50384 -0.14915,-0.02688 -0.31496,0.457461 -0.46328,0.377362 -0.32862,-0.04205 -0.11558,-0.36906 -0.42787,-0.505469 -0.28755,-0.125611 -0.30051,0.305187 -0.52765,0.263038 -0.19668,-0.0365 -0.009,-0.380089 -0.29102,-0.453455 -0.26408,-0.06874 -0.1925,0.313632 -0.43257,0.214149 -0.11852,-0.04912 -0.12893,-0.385493 -0.23427,-0.396345 -0.26217,-0.02701 -0.22379,0.255403 -0.42345,0.161695 -0.18995,-0.08916 -0.004,-0.435341 -0.25403,-0.501937 -0.15502,-0.04127 -0.11298,0.257179 -0.41012,0.251825 -0.24893,-0.0044 -0.15067,-0.128165 -0.24246,-0.342822 -0.0925,-0.216161 -0.44742,-0.224172 -0.53326,-0.43929 -0.085,-0.212983 0.38054,-0.109292 0.48576,-0.137501 0.0657,-0.01761 0.0195,-0.379024 0.14382,-0.397103 0.42047,-0.06116 0.26912,0.221807 0.53378,0.07098 0.14442,-0.08231 0.003,-0.39812 0.12127,-0.435435 0.14436,-0.04581 0.34455,0.216575 0.42272,0.158189 0.15158,-0.113204 -0.0801,-0.619776 0.0606,-0.644795 0.13393,-0.02382 0.28135,0.354908 0.40947,0.294537 0.15506,-0.07307 -0.045,-0.485287 0.10675,-0.526113 0.18076,-0.04859 0.1048,0.452344 0.29072,0.381466 0.16514,-0.05432 0.0806,-0.467655 0.22887,-0.496252 0.15217,-0.02937 0.19733,0.341255 0.40185,0.320667 0.24085,-0.02424 0.0671,-0.379281 0.28472,-0.426509 0.23818,-0.05168 0.20756,0.285062 0.3804,0.312712 0.15086,0.02413 0.25322,-0.319491 0.35051,-0.38248 0.0984,0.05132 0.10686,0.334997 0.27438,0.395858 0.0729,0.02648 0.21678,-0.463096 0.32472,-0.458933 0.11819,0.0045 0.19984,0.499818 0.25628,0.456828 0.14635,-0.111451 0.15664,-0.461809 0.28412,-0.462535 0.12635,-7.21e-4 0.11898,0.447933 0.28853,0.424106 0.2102,-0.02954 0.0607,-0.382606 0.23524,-0.467132 0.0683,-0.03304 0.18731,0.377998 0.27473,0.361752 0.11747,-0.02182 0.22144,-0.419028 0.26597,-0.427605 0.13022,-0.02509 0.13438,0.2665 0.24298,0.247813 0.0977,0.03777 0.0585,-0.07341 0.13001,-0.292406 0.0378,-0.115516 0.23781,0.09354 0.3059,-0.01533 0.0474,-0.07578 -0.20041,-0.364464 -0.14512,-0.519556 0.055,-0.154301 0.2093,-0.03673 0.24782,-0.221812 0.0337,-0.161964 -0.16173,-0.192377 -0.15848,-0.291113 0.005,-0.153982 0.17923,-0.293594 0.10555,-0.363759 -0.0681,-0.06483 -0.19625,0.08686 -0.25798,0.01625 -0.0697,-0.07972 -0.0908,-0.185462 -0.17768,-0.232664 -0.0685,-0.03724 -0.19102,0.114801 -0.24658,0.06031 -0.0697,-0.06835 -0.10241,-0.214902 -0.20559,-0.231485 -0.0771,-0.0124 -0.1632,0.140505 -0.21999,0.142707 -0.0788,0.003 -0.094,-0.15612 -0.14909,-0.159465 -0.12861,-0.0078 -0.15846,0.06986 -0.22267,0.128341 -0.0596,0.05423 -0.20075,-0.231853 -0.34787,0.05365 -0.11406,-0.131567 -0.20639,-0.170453 -0.28968,0.03755 -0.0344,0.08595 -0.11871,-0.161664 -0.23611,-0.181881 -0.087,-0.01499 -0.11476,0.171256 -0.20672,0.23564 -0.20875,-0.03796 -0.19807,-0.196837 -0.37676,-0.218999 -0.12898,-0.016 -0.1305,0.135215 -0.23369,0.191053 -0.0739,0.04 -0.17261,-0.166101 -0.26878,-0.143868 -0.14883,0.03441 -0.0899,0.06389 -0.21213,0.233527 -0.1953,-0.01777 -0.18211,-0.221581 -0.32063,-0.199849 -0.11215,0.01759 -0.1193,0.30125 -0.21524,0.31083 -0.1398,0.0058 -0.41705,-0.354314 -0.60164,-0.170442 -0.12508,0.124582 0.0403,0.260643 -0.22483,0.385942 -0.1075,-0.05186 -0.24847,-0.361949 -0.39796,-0.254192 -0.14088,0.101551 -0.10512,0.270951 -0.19037,0.364266 -0.15345,0.167916 -0.18793,-0.184221 -0.37707,-0.181188 -0.15119,0.0024 -0.25118,0.194858 -0.33993,0.478016 -0.10285,-0.02672 -0.27177,-0.267705 -0.43691,-0.128456 -0.26674,0.224912 -0.0157,0.217352 -0.181,0.475366 -0.16689,0.134778 -0.27626,-0.163634 -0.50159,-0.01007 -0.19963,0.136025 -0.0453,0.392744 -0.051,0.412924 -0.18747,-0.09481 -0.36269,-0.178744 -0.54659,-0.04643 -0.08,0.05753 -0.002,0.346012 -0.0554,0.568414 -5.8e-4,9.17e-4 -0.001,0.0018 -0.002,0.0028 -0.12302,-0.143842 -0.25024,-0.277242 -0.42687,-0.164482 -0.0606,0.03867 -0.20359,0.303668 -0.28074,0.309632 -0.20269,0.01567 -0.25851,-0.246175 -0.4035,-0.235839 -0.30319,0.02161 -0.36664,0.341112 -0.42836,0.327725 -0.11439,-0.02481 -0.065,-0.292175 -0.27001,-0.322051 -0.39229,-0.05716 -0.4524,0.213491 -0.54159,0.094 0.11067,-0.613079 -0.6308,-0.232738 -0.67285,-0.211464 0.0721,-0.463378 -0.25866,-0.661487 -0.65682,-0.427472 -0.10534,-0.272559 -0.22551,-0.326441 -0.75184,-0.125808 -0.0938,-0.503202 -0.32758,-0.395725 -0.75667,-0.24031 -0.15694,0.05684 -0.12226,-0.628388 -0.65481,-0.213506 -0.0591,-0.0356 -0.29971,-0.331095 -0.38679,-0.351188 -0.16263,-0.03755 -0.22489,0.23733 -0.31151,0.318181 -0.0591,-0.0356 -0.23499,-0.438237 -0.32205,-0.458331 -0.38775,-0.0895 -0.39001,0.214299 -0.57288,0.494288 -0.21613,-0.39317 -0.10805,-0.54239 -0.46407,-0.640791 -0.14607,-0.04037 -0.26215,0.04517 -0.37093,0.179029 -0.0486,-0.08855 -0.11171,-0.154086 -0.20197,-0.179029 -0.14605,-0.04037 -0.26214,0.04517 -0.37092,0.179029 -0.0486,-0.08855 -0.21586,-0.133163 -0.30611,-0.158106 -0.2658,-0.07346 -0.25888,0.04207 -0.46115,0.357472 -0.0878,-0.407824 -0.20758,-0.544796 -0.52305,-0.535471 -0.19487,0.0057 -0.40618,0.252579 -0.51864,0.347634 -0.0406,-0.03964 -0.28357,-0.420023 -0.34086,-0.438081 -0.18595,-0.05855 -0.18836,0.291495 -0.30081,0.386568 -0.0406,-0.03964 -0.22534,-0.17829 -0.28264,-0.196348 -0.32307,-0.101724 -0.35325,0.0752 -0.52984,0.302041 -0.0432,-0.362495 -0.10512,-0.385978 -0.25066,-0.425276 -0.23765,-0.06416 -0.40767,0.01568 -0.51962,0.120153 -0.0294,-0.01643 -0.20683,-0.229288 -0.24137,-0.24425 -0.22596,-0.09767 -0.24797,0.20115 -0.35992,0.305624 -0.0295,-0.01644 -0.21504,-0.263142 -0.24958,-0.278104 -0.4194,-0.181298 -0.31613,0.08737 -0.48317,0.388809 -0.08,-0.35848 -0.1726,-0.193088 -0.4296,-0.355007 -0.22395,-0.14107 -0.29552,0.04693 -0.34016,0.342391 -0.0515,-0.147399 -0.12196,-0.272599 -0.23274,-0.342391 -0.22394,-0.14107 -0.2955,0.04693 -0.34015,0.342391 -0.0839,-0.248395 -0.23297,-0.488048 -0.39779,-0.399456 z"
       sodipodi:nodetypes="ssccccsssscccssccsccccssccccssssssssssssccccsscccsccsccccscccssscsssscscscscscscscscscscscscscscsccccssscssscscccccsccccccssssssssssssssscsssssssssssssscssscsssscsssssssscssssssssssssscsscssscscscssscscscsccsssssccccscscscscscscscscscscscscscscss" />
  </g>
  <g
     inkscape:groupmode="layer"
     id="layer2"
     inkscape:label="dims"
     style="display:inline">
    <rect
       style="fill:none;fill-opacity:0;stroke:#666666;stroke-width:0.3;stroke-linecap:round;stroke-linejoin:round;stroke-miterlimit:4;stroke-dasharray:none"
       id="rect896"
       width="2.1771572"
       height="1.7230176"
       x="41.181183"
       y="23.998238"
       rx="0"
       ry="0" />
    <path
       style="fill:none;stroke:#666666;stroke-width:0.3;stroke-linecap:round;stroke-linejoin:miter;stroke-miterlimit:4;stroke-dasharray:none;stroke-opacity:1;marker-end:url(#Arrow1Mend)"
       d="M 16.470539,4.4869718 C 35.712482,-2.6082785 39.077663,0.78303197 42.128246,23.315922"
       id="path898"
       sodipodi:nodetypes="cc" />
    <path
       style="fill:none;stroke:#666666;stroke-width:0.3;stroke-linecap:round;stroke-linejoin:miter;stroke-miterlimit:4;stroke-dasharray:none;stroke-opacity:1;marker-end:url(#marker1216)"
       d="M 46.742667,22.245148 C 56.294449,-2.4559175 68.1847,-2.8226016 80.302461,4.9786038"
       id="path1212"
       sodipodi:nodetypes="cc" />
    <path
       style="fill:none;stroke:#666666;stroke-width:0.3;stroke-linecap:round;stroke-linejoin:miter;stroke-miterlimit:4;stroke-dasharray:none;stroke-opacity:1;marker-end:url(#marker1310)"
       d="m 95.787286,4.8712286 c 13.231974,-8.7836481 28.757494,-4.01858767 30.145324,13.7854884 0.0756,0.970283 0.18615,0.845338 0.36847,3.385792"
       id="path1306"
       sodipodi:nodetypes="csc" />
    <path
       style="fill:none;stroke:#000000;stroke-width:0.2;stroke-linecap:butt;stroke-linejoin:miter;stroke-miterlimit:4;stroke-dasharray:none;stroke-opacity:1"
       d="m 17.950627,5.1096872 h 6.059851"
       id="path1378" />
    <path
       style="fill:none;stroke:#000000;stroke-width:0.2;stroke-linecap:butt;stroke-linejoin:miter;stroke-miterlimit:4;stroke-dasharray:none;stroke-opacity:1"
       d="m 17.950627,9.0757512 h 6.059851"
       id="path1382" />
    <path
       style="fill:none;stroke:#000000;stroke-width:0.2;stroke-linecap:butt;stroke-linejoin:miter;stroke-miterlimit:4;stroke-dasharray:none;stroke-opacity:1;marker-start:url(#marker1533);marker-end:url(#Arrow1Mstart)"
       d="M 23.142593,4.9459775 V 9.2292073"
       id="path1384"
       sodipodi:nodetypes="cc" />
    <path
       style="fill:none;stroke:#000000;stroke-width:0.2;stroke-linecap:butt;stroke-linejoin:miter;stroke-miterlimit:4;stroke-dasharray:none;stroke-opacity:1"
       d="M 48.642321,23.101362 H 66.873005"
       id="path1642"
       sodipodi:nodetypes="cc" />
    <path
       style="fill:none;stroke:#000000;stroke-width:0.2;stroke-linecap:butt;stroke-linejoin:miter;stroke-miterlimit:4;stroke-dasharray:none;stroke-opacity:1"
       d="m 57.638154,31.300765 h 9.234851"
       id="path1644"
       sodipodi:nodetypes="cc" />
    <path
       style="fill:none;stroke:#000000;stroke-width:0.2;stroke-linecap:butt;stroke-linejoin:miter;stroke-miterlimit:4;stroke-dasharray:none;stroke-opacity:1;marker-start:url(#marker1650);marker-end:url(#marker1660)"
       d="m 66.00512,22.937652 v 8.516567"
       id="path1646"
       sodipodi:nodetypes="cc" />
    <path
       style="fill:none;stroke:#000000;stroke-width:0.2;stroke-linecap:butt;stroke-linejoin:miter;stroke-miterlimit:4;stroke-dasharray:none;stroke-opacity:1"
       d="m 101.02985,4.9760524 h 6.05989"
       id="path1834" />
    <path
       style="fill:none;stroke:#000000;stroke-width:0.2;stroke-linecap:butt;stroke-linejoin:miter;stroke-miterlimit:4;stroke-dasharray:none;stroke-opacity:1"
       d="m 98.384017,16.081151 h 8.705723"
       id="path1836"
       sodipodi:nodetypes="cc" />
    <path
       style="fill:none;stroke:#000000;stroke-width:0.2;stroke-linecap:butt;stroke-linejoin:miter;stroke-miterlimit:4;stroke-dasharray:none;stroke-opacity:1;marker-start:url(#marker1842);marker-end:url(#marker1852)"
       d="M 106.22184,4.8123427 V 16.210974"
       id="path1838"
       sodipodi:nodetypes="cc" />
    <path
       style="fill:none;stroke:#000000;stroke-width:0.2;stroke-linecap:butt;stroke-linejoin:miter;stroke-miterlimit:4;stroke-dasharray:none;stroke-opacity:1"
       d="m 117.14399,23.199238 h -6.05991"
       id="path2094" />
    <path
       style="fill:none;stroke:#000000;stroke-width:0.2;stroke-linecap:butt;stroke-linejoin:miter;stroke-miterlimit:4;stroke-dasharray:none;stroke-opacity:1;marker-start:url(#marker2102);marker-end:url(#marker2112)"
       d="m 111.95199,23.035529 v 8.318128"
       id="path2098"
       sodipodi:nodetypes="cc" />
    <path
       style="fill:none;stroke:#000000;stroke-width:0.2;stroke-linecap:butt;stroke-linejoin:miter;stroke-miterlimit:4;stroke-dasharray:none;stroke-opacity:1"
       d="m 117.14399,31.136743 h -6.05991"
       id="path2274" />
  </g>
  <g
     inkscape:groupmode="layer"
     id="layer3"
     inkscape:label="text"
     style="display:inline">
    <text
       xml:space="preserve"
       style="font-style:normal;font-weight:normal;font-size:3.88056px;line-height:1.25;font-family:sans-serif;letter-spacing:0px;word-spacing:0px;fill:#000000;fill-opacity:1;stroke:none;stroke-width:0.264583"
       x="23.622805"
       y="7.8819585"
       id="text1616"><tspan
         sodipodi:role="line"
         id="tspan1614"
         x="23.622805"
         y="7.8819585"
         style="stroke-width:0.264583">\scriptsize\SI{2}{\nano\meter}</tspan></text>
    <text
       xml:space="preserve"
       style="font-style:normal;font-weight:normal;font-size:3.88056px;line-height:1.25;font-family:sans-serif;letter-spacing:0px;word-spacing:0px;fill:#000000;fill-opacity:1;stroke:none;stroke-width:0.264583"
       x="66.485344"
       y="27.990297"
       id="text1796"><tspan
         sodipodi:role="line"
         id="tspan1794"
         x="66.485344"
         y="27.990297"
         style="stroke-width:0.264583">\scriptsize\SI{11}{\nano\meter}</tspan></text>
    <text
       xml:space="preserve"
       style="font-style:normal;font-weight:normal;font-size:3.88056px;line-height:1.25;font-family:sans-serif;letter-spacing:0px;word-spacing:0px;fill:#000000;fill-opacity:1;stroke:none;stroke-width:0.264583"
       x="106.70203"
       y="11.056957"
       id="text2008"><tspan
         sodipodi:role="line"
         id="tspan2006"
         x="106.70203"
         y="11.056957"
         style="stroke-width:0.264583">\scriptsize\SI{30}{\nano\meter}</tspan></text>
    <text
       xml:space="preserve"
       style="font-style:normal;font-weight:normal;font-size:3.88056px;line-height:1.25;font-family:sans-serif;letter-spacing:0px;word-spacing:0px;fill:#000000;fill-opacity:1;stroke:none;stroke-width:0.264583"
       x="100.88121"
       y="28.221811"
       id="text2290"><tspan
         sodipodi:role="line"
         id="tspan2288"
         x="100.88121"
         y="28.221811"
         style="stroke-width:0.264583">\scriptsize\SI{1400}{\nano\m}</tspan></text>
    <text
       xml:space="preserve"
       style="font-style:normal;font-weight:normal;font-size:3.88056px;line-height:1.25;font-family:sans-serif;letter-spacing:0px;word-spacing:0px;fill:#000000;fill-opacity:1;stroke:none;stroke-width:0.264583"
       x="1.8225741"
       y="14.305349"
       id="text2294"><tspan
         sodipodi:role="line"
         id="tspan2292"
         x="1.8225741"
         y="14.305349"
         style="stroke-width:0.264583">\textbf{double helix}</tspan></text>
    <text
       xml:space="preserve"
       style="font-style:normal;font-weight:normal;font-size:3.88056px;line-height:1.25;font-family:sans-serif;letter-spacing:0px;word-spacing:0px;fill:#000000;fill-opacity:1;stroke:none;stroke-width:0.264583"
       x="36.1978"
       y="34.702885"
       id="text2298"><tspan
         sodipodi:role="line"
         id="tspan2296"
         x="36.1978"
         y="34.702885"
         style="stroke-width:0.264583">\textbf{nucleosomes}</tspan></text>
    <text
       xml:space="preserve"
       style="font-style:normal;font-weight:normal;font-size:3.88056px;line-height:1.25;font-family:sans-serif;letter-spacing:0px;word-spacing:0px;fill:#000000;fill-opacity:1;stroke:none;stroke-width:0.264583"
       x="80.86145"
       y="19.953264"
       id="text2302"><tspan
         sodipodi:role="line"
         id="tspan2300"
         x="80.86145"
         y="19.953264"
         style="stroke-width:0.264583">\textbf{30\,nm fiber}</tspan></text>
    <text
       xml:space="preserve"
       style="font-style:normal;font-weight:normal;font-size:3.88056px;line-height:1.25;font-family:sans-serif;letter-spacing:0px;word-spacing:0px;fill:#000000;fill-opacity:1;stroke:none;stroke-width:0.264583"
       x="117.39096"
       y="34.743946"
       id="text2306"><tspan
         sodipodi:role="line"
         id="tspan2304"
         x="117.39096"
         y="34.743946"
         style="stroke-width:0.264583">\textbf{chromosome}</tspan></text>
    <text
       xml:space="preserve"
       style="font-style:normal;font-weight:normal;font-size:3.88056px;line-height:1.25;font-family:sans-serif;letter-spacing:0px;word-spacing:0px;fill:#999999;fill-opacity:1;stroke:none;stroke-width:0.264583"
       x="4.5883412"
       y="23.74955"
       id="text2890"><tspan
         sodipodi:role="line"
         id="tspan2888"
         x="4.5883412"
         y="23.74955"
         style="fill:#999999;stroke-width:0.264583">\scriptsize{not to scale}</tspan></text>
  </g>
</svg>
