<?xml version="1.0" encoding="UTF-8" standalone="no"?>
<svg
   xmlns:dc="http://purl.org/dc/elements/1.1/"
   xmlns:cc="http://creativecommons.org/ns#"
   xmlns:rdf="http://www.w3.org/1999/02/22-rdf-syntax-ns#"
   xmlns:svg="http://www.w3.org/2000/svg"
   xmlns="http://www.w3.org/2000/svg"
   xmlns:sodipodi="http://sodipodi.sourceforge.net/DTD/sodipodi-0.dtd"
   xmlns:inkscape="http://www.inkscape.org/namespaces/inkscape"
   version="1.1"
   id="svg2"
   xml:space="preserve"
   width="80mm"
   height="65.300003mm"
   viewBox="0 0 302.36219 246.80316"
   sodipodi:docname="pearson_chr05.svg"
   inkscape:version="1.0.2 (1.0.2+r75+1)"><metadata
     id="metadata8"><rdf:RDF><cc:Work
         rdf:about=""><dc:format>image/svg+xml</dc:format><dc:type
           rdf:resource="http://purl.org/dc/dcmitype/StillImage" /><dc:title></dc:title></cc:Work></rdf:RDF></metadata><defs
     id="defs6"><clipPath
       clipPathUnits="userSpaceOnUse"
       id="clipPath22"><path
         d="M 57.6,38.016 H 414.72 V 304.128 H 57.6 Z"
         id="path20" /></clipPath><clipPath
       clipPathUnits="userSpaceOnUse"
       id="clipPath40"><path
         d="M 57.6,38.016 H 414.72 V 304.128 H 57.6 Z"
         id="path38" /></clipPath><clipPath
       clipPathUnits="userSpaceOnUse"
       id="clipPath58"><path
         d="M 57.6,38.016 H 414.72 V 304.128 H 57.6 Z"
         id="path56" /></clipPath><clipPath
       clipPathUnits="userSpaceOnUse"
       id="clipPath76"><path
         d="M 57.6,38.016 H 414.72 V 304.128 H 57.6 Z"
         id="path74" /></clipPath><clipPath
       clipPathUnits="userSpaceOnUse"
       id="clipPath94"><path
         d="M 57.6,38.016 H 414.72 V 304.128 H 57.6 Z"
         id="path92" /></clipPath><clipPath
       clipPathUnits="userSpaceOnUse"
       id="clipPath112"><path
         d="M 57.6,38.016 H 414.72 V 304.128 H 57.6 Z"
         id="path110" /></clipPath><clipPath
       clipPathUnits="userSpaceOnUse"
       id="clipPath130"><path
         d="M 57.6,38.016 H 414.72 V 304.128 H 57.6 Z"
         id="path128" /></clipPath><clipPath
       clipPathUnits="userSpaceOnUse"
       id="clipPath148"><path
         d="M 57.6,38.016 H 414.72 V 304.128 H 57.6 Z"
         id="path146" /></clipPath><clipPath
       clipPathUnits="userSpaceOnUse"
       id="clipPath170"><path
         d="M 57.6,38.016 H 414.72 V 304.128 H 57.6 Z"
         id="path168" /></clipPath><clipPath
       clipPathUnits="userSpaceOnUse"
       id="clipPath188"><path
         d="M 57.6,38.016 H 414.72 V 304.128 H 57.6 Z"
         id="path186" /></clipPath><clipPath
       clipPathUnits="userSpaceOnUse"
       id="clipPath206"><path
         d="M 57.6,38.016 H 414.72 V 304.128 H 57.6 Z"
         id="path204" /></clipPath><clipPath
       clipPathUnits="userSpaceOnUse"
       id="clipPath224"><path
         d="M 57.6,38.016 H 414.72 V 304.128 H 57.6 Z"
         id="path222" /></clipPath><clipPath
       clipPathUnits="userSpaceOnUse"
       id="clipPath242"><path
         d="M 57.6,38.016 H 414.72 V 304.128 H 57.6 Z"
         id="path240" /></clipPath><clipPath
       clipPathUnits="userSpaceOnUse"
       id="clipPath260"><path
         d="M 57.6,38.016 H 414.72 V 304.128 H 57.6 Z"
         id="path258" /></clipPath><clipPath
       clipPathUnits="userSpaceOnUse"
       id="clipPath282"><path
         d="M 57.6,38.016 H 414.72 V 304.128 H 57.6 Z"
         id="path280" /></clipPath><clipPath
       clipPathUnits="userSpaceOnUse"
       id="clipPath292"><path
         d="M 57.6,38.016 H 414.72 V 304.128 H 57.6 Z"
         id="path290" /></clipPath><clipPath
       clipPathUnits="userSpaceOnUse"
       id="clipPath302"><path
         d="M 57.6,38.016 H 414.72 V 304.128 H 57.6 Z"
         id="path300" /></clipPath><clipPath
       clipPathUnits="userSpaceOnUse"
       id="clipPath312"><path
         d="M 57.6,38.016 H 414.72 V 304.128 H 57.6 Z"
         id="path310" /></clipPath><clipPath
       clipPathUnits="userSpaceOnUse"
       id="clipPath322"><path
         d="M 57.6,38.016 H 414.72 V 304.128 H 57.6 Z"
         id="path320" /></clipPath><clipPath
       clipPathUnits="userSpaceOnUse"
       id="clipPath332"><path
         d="M 57.6,38.016 H 414.72 V 304.128 H 57.6 Z"
         id="path330" /></clipPath></defs><sodipodi:namedview
     pagecolor="#ffffff"
     bordercolor="#666666"
     borderopacity="1"
     objecttolerance="10"
     gridtolerance="10"
     guidetolerance="10"
     inkscape:pageopacity="0"
     inkscape:pageshadow="2"
     inkscape:window-width="1920"
     inkscape:window-height="1020"
     id="namedview4"
     showgrid="false"
     units="mm"
     fit-margin-top="0"
     fit-margin-left="0"
     fit-margin-right="0"
     fit-margin-bottom="0"
     inkscape:zoom="1.8598091"
     inkscape:cx="158.14034"
     inkscape:cy="45.591137"
     inkscape:window-x="0"
     inkscape:window-y="0"
     inkscape:window-maximized="1"
     inkscape:current-layer="layer1" /><g
     id="g10"
     inkscape:groupmode="layer"
     inkscape:label="pearson_chr05"
     transform="matrix(1.3333333,0,0,-1.3333333,-28.023958,443.59358)"><g
       id="g328"
       clip-path="url(#clipPath332)"
       style="stroke:#d62728;stroke-opacity:1"
       transform="matrix(0.57529806,0,0,0.57529806,8.9263723,141.95162)"><path
         d="m 57.6,274.26669 5.668571,-8.51413 5.668572,-4.60585 5.668571,-0.61572 5.668572,-0.97414 5.668571,0.2994 5.668572,0.17462 5.668571,-0.0369 5.66857,0.55342 5.66857,-1.55777 5.66857,-1.31879 5.66858,-0.0429 5.66857,-1.84437 5.66857,-1.25059 5.66857,-0.22577 5.66857,-2.59774 5.66857,-0.67705 5.66857,-0.23919 5.66858,-2.43211 5.66857,-1.4151 5.66857,-1.07585 5.66857,-1.42078 5.66857,0.29705 5.66857,-1.2512 5.66857,-4.21345 5.66858,1.85402 5.66857,0.40948 5.66857,0.49735 5.66857,-0.15599 5.66857,-2.90436 5.66857,0.90238 5.66857,-3.56086 5.66858,-0.71117 5.66857,0.0317 5.66857,-3.35022 5.66857,0.40922 5.66857,-1.31818 5.66857,-0.0777 5.66857,-2.52089 5.66858,2.24148 5.66857,-2.15834 5.66857,-3.06158 5.66857,-0.31306 5.66857,-0.70681 5.66857,4.80396 5.66857,-2.65466 5.66858,0.83184 5.66857,-1.614 5.66857,-2.32449 5.66857,2.89507 5.66857,-6.57443 5.66857,2.15945 5.66857,-6.06139 5.66858,-1.32181 5.66857,-1.42226 5.66857,-2.91308 5.66857,-0.51664 5.66857,1.0175 5.66857,-5.84401 5.66857,1.57233 5.66858,-5.53072 5.66857,5.36572 5.66857,-2.10874 5.66857,3.65182"
         style="fill:none;stroke:#d62728;stroke-width:1.5;stroke-linecap:square;stroke-linejoin:round;stroke-miterlimit:10;stroke-dasharray:none;stroke-opacity:1"
         id="path334" /></g><g
       id="g16"
       transform="matrix(0.57529806,0,0,0.57529806,8.9263723,141.95162)"><g
         id="g18"
         clip-path="url(#clipPath22)"><path
           d="M 57.6,38.016 V 304.128"
           style="fill:none;stroke:#b0b0b0;stroke-width:0.8;stroke-linecap:square;stroke-linejoin:round;stroke-miterlimit:10;stroke-dasharray:none;stroke-opacity:1"
           id="path24" /></g></g><path
       d="m 42.063541,163.82216 v -2.01355"
       style="fill:#000000;fill-opacity:1;fill-rule:nonzero;stroke:#000000;stroke-width:0.460239;stroke-linecap:butt;stroke-linejoin:round;stroke-miterlimit:10;stroke-dasharray:none;stroke-opacity:1"
       id="path28" /><g
       id="g34"
       transform="matrix(0.57529806,0,0,0.57529806,8.9263723,141.95162)"><g
         id="g36"
         clip-path="url(#clipPath40)"><path
           d="M 102.94857,38.016 V 304.128"
           style="fill:none;stroke:#b0b0b0;stroke-width:0.8;stroke-linecap:square;stroke-linejoin:round;stroke-miterlimit:10;stroke-dasharray:none;stroke-opacity:1"
           id="path42" /></g></g><path
       d="m 68.152485,163.82216 v -2.01355"
       style="fill:#000000;fill-opacity:1;fill-rule:nonzero;stroke:#000000;stroke-width:0.460239;stroke-linecap:butt;stroke-linejoin:round;stroke-miterlimit:10;stroke-dasharray:none;stroke-opacity:1"
       id="path46" /><g
       id="g52"
       transform="matrix(0.57529806,0,0,0.57529806,8.9263723,141.95162)"><g
         id="g54"
         clip-path="url(#clipPath58)"><path
           d="M 148.29714,38.016 V 304.128"
           style="fill:none;stroke:#b0b0b0;stroke-width:0.8;stroke-linecap:square;stroke-linejoin:round;stroke-miterlimit:10;stroke-dasharray:none;stroke-opacity:1"
           id="path60" /></g></g><g
       id="g70"
       transform="matrix(0.57529806,0,0,0.57529806,8.9263723,141.95162)"><g
         id="g72"
         clip-path="url(#clipPath76)"><path
           d="M 193.64571,38.016 V 304.128"
           style="fill:none;stroke:#b0b0b0;stroke-width:0.8;stroke-linecap:square;stroke-linejoin:round;stroke-miterlimit:10;stroke-dasharray:none;stroke-opacity:1"
           id="path78" /></g></g><g
       id="g88"
       transform="matrix(0.57529806,0,0,0.57529806,8.9263723,141.95162)"><g
         id="g90"
         clip-path="url(#clipPath94)"><path
           d="M 238.99429,38.016 V 304.128"
           style="fill:none;stroke:#b0b0b0;stroke-width:0.8;stroke-linecap:square;stroke-linejoin:round;stroke-miterlimit:10;stroke-dasharray:none;stroke-opacity:1"
           id="path96" /></g></g><g
       id="g106"
       transform="matrix(0.57529806,0,0,0.57529806,8.9263723,141.95162)"><g
         id="g108"
         clip-path="url(#clipPath112)"><path
           d="M 284.34286,38.016 V 304.128"
           style="fill:none;stroke:#b0b0b0;stroke-width:0.8;stroke-linecap:square;stroke-linejoin:round;stroke-miterlimit:10;stroke-dasharray:none;stroke-opacity:1"
           id="path114" /></g></g><g
       id="g124"
       transform="matrix(0.57529806,0,0,0.57529806,8.9263723,141.95162)"><g
         id="g126"
         clip-path="url(#clipPath130)"><path
           d="M 329.69143,38.016 V 304.128"
           style="fill:none;stroke:#b0b0b0;stroke-width:0.8;stroke-linecap:square;stroke-linejoin:round;stroke-miterlimit:10;stroke-dasharray:none;stroke-opacity:1"
           id="path132" /></g></g><path
       d="m 198.59722,163.82216 v -2.01355"
       style="fill:#000000;fill-opacity:1;fill-rule:nonzero;stroke:#000000;stroke-width:0.460239;stroke-linecap:butt;stroke-linejoin:round;stroke-miterlimit:10;stroke-dasharray:none;stroke-opacity:1"
       id="path136" /><g
       id="g142"
       transform="matrix(0.57529806,0,0,0.57529806,8.9263723,141.95162)"><g
         id="g144"
         clip-path="url(#clipPath148)"><path
           d="M 375.04,38.016 V 304.128"
           style="fill:none;stroke:#b0b0b0;stroke-width:0.8;stroke-linecap:square;stroke-linejoin:round;stroke-miterlimit:10;stroke-dasharray:none;stroke-opacity:1"
           id="path150" /></g></g><path
       d="m 224.68615,163.82216 v -2.01355"
       style="fill:#000000;fill-opacity:1;fill-rule:nonzero;stroke:#000000;stroke-width:0.460239;stroke-linecap:butt;stroke-linejoin:round;stroke-miterlimit:10;stroke-dasharray:none;stroke-opacity:1"
       id="path154" /><g
       id="g164"
       transform="matrix(0.57529806,0,0,0.57529806,8.9263723,141.95162)"><g
         id="g166"
         clip-path="url(#clipPath170)"><path
           d="M 57.6,38.016 H 414.72"
           style="fill:none;stroke:#b0b0b0;stroke-width:0.8;stroke-linecap:square;stroke-linejoin:round;stroke-miterlimit:10;stroke-dasharray:none;stroke-opacity:1"
           id="path172" /></g></g><path
       d="M 42.063541,163.82216 H 40.049998"
       style="fill:#000000;fill-opacity:1;fill-rule:nonzero;stroke:#000000;stroke-width:0.460239;stroke-linecap:butt;stroke-linejoin:round;stroke-miterlimit:10;stroke-dasharray:none;stroke-opacity:1"
       id="path176" /><g
       id="g182"
       transform="matrix(0.57529806,0,0,0.57529806,8.9263723,141.95162)"><g
         id="g184"
         clip-path="url(#clipPath188)"><path
           d="M 57.6,91.2384 H 414.72"
           style="fill:none;stroke:#b0b0b0;stroke-width:0.8;stroke-linecap:square;stroke-linejoin:round;stroke-miterlimit:10;stroke-dasharray:none;stroke-opacity:1"
           id="path190" /></g></g><path
       d="M 42.063541,194.4409 H 40.049998"
       style="fill:#000000;fill-opacity:1;fill-rule:nonzero;stroke:#000000;stroke-width:0.460239;stroke-linecap:butt;stroke-linejoin:round;stroke-miterlimit:10;stroke-dasharray:none;stroke-opacity:1"
       id="path194" /><g
       id="g200"
       transform="matrix(0.57529806,0,0,0.57529806,8.9263723,141.95162)"><g
         id="g202"
         clip-path="url(#clipPath206)"><path
           d="M 57.6,144.4608 H 414.72"
           style="fill:none;stroke:#b0b0b0;stroke-width:0.8;stroke-linecap:square;stroke-linejoin:round;stroke-miterlimit:10;stroke-dasharray:none;stroke-opacity:1"
           id="path208" /></g></g><path
       d="M 42.063541,225.05964 H 40.049998"
       style="fill:#000000;fill-opacity:1;fill-rule:nonzero;stroke:#000000;stroke-width:0.460239;stroke-linecap:butt;stroke-linejoin:round;stroke-miterlimit:10;stroke-dasharray:none;stroke-opacity:1"
       id="path212" /><g
       id="g218"
       transform="matrix(0.57529806,0,0,0.57529806,8.9263723,141.95162)"><g
         id="g220"
         clip-path="url(#clipPath224)"><path
           d="M 57.6,197.6832 H 414.72"
           style="fill:none;stroke:#b0b0b0;stroke-width:0.8;stroke-linecap:square;stroke-linejoin:round;stroke-miterlimit:10;stroke-dasharray:none;stroke-opacity:1"
           id="path226" /></g></g><path
       d="M 42.063541,255.67838 H 40.049998"
       style="fill:#000000;fill-opacity:1;fill-rule:nonzero;stroke:#000000;stroke-width:0.460239;stroke-linecap:butt;stroke-linejoin:round;stroke-miterlimit:10;stroke-dasharray:none;stroke-opacity:1"
       id="path230" /><g
       id="g236"
       transform="matrix(0.57529806,0,0,0.57529806,8.9263723,141.95162)"><g
         id="g238"
         clip-path="url(#clipPath242)"><path
           d="M 57.6,250.9056 H 414.72"
           style="fill:none;stroke:#b0b0b0;stroke-width:0.8;stroke-linecap:square;stroke-linejoin:round;stroke-miterlimit:10;stroke-dasharray:none;stroke-opacity:1"
           id="path244" /></g></g><path
       d="M 42.063541,286.29713 H 40.049998"
       style="fill:#000000;fill-opacity:1;fill-rule:nonzero;stroke:#000000;stroke-width:0.460239;stroke-linecap:butt;stroke-linejoin:round;stroke-miterlimit:10;stroke-dasharray:none;stroke-opacity:1"
       id="path248" /><g
       id="g254"
       transform="matrix(0.57529806,0,0,0.57529806,8.9263723,141.95162)"><g
         id="g256"
         clip-path="url(#clipPath260)"><path
           d="M 57.6,304.128 H 414.72"
           style="fill:none;stroke:#b0b0b0;stroke-width:0.8;stroke-linecap:square;stroke-linejoin:round;stroke-miterlimit:10;stroke-dasharray:none;stroke-opacity:1"
           id="path262" /></g></g><path
       d="M 42.063541,316.91587 H 40.049998"
       style="fill:#000000;fill-opacity:1;fill-rule:nonzero;stroke:#000000;stroke-width:0.460239;stroke-linecap:butt;stroke-linejoin:round;stroke-miterlimit:10;stroke-dasharray:none;stroke-opacity:1"
       id="path266" /><g
       id="g278"
       clip-path="url(#clipPath282)"
       transform="matrix(0.57529806,0,0,0.57529806,8.9263723,141.95162)"><path
         d="m 57.6,266.09192 5.668571,5.18925 5.668572,-9.40345 5.668571,-9.6095 5.668572,-6.70941 5.668571,-5.95246 5.668572,-3.73624 5.668571,-5.33806 5.66857,-6.2813 5.66857,0.10492 5.66857,-2.99305 5.66858,-5.98691 5.66857,-2.95765 5.66857,-4.99079 5.66857,-5.48036 5.66857,-5.97932 5.66857,-3.12184 5.66857,-3.63396 5.66858,-0.20234 5.66857,-1.08734 5.66857,-3.34665 5.66857,-2.89972 5.66857,-3.21278 5.66857,-1.75968 5.66857,-1.84669 5.66858,-3.7671 5.66857,-6.15435 5.66857,1.45927 5.66857,-4.80791 5.66857,-0.92738 5.66857,-4.30434 5.66857,-2.19707 5.66858,-1.49693 5.66857,-3.35656 5.66857,-3.13344 5.66857,-3.73852 5.66857,-2.44633 5.66857,1.31967 5.66857,-1.91212 5.66858,0.67321 5.66857,-3.04437 5.66857,-1.22804 5.66857,4.65051 5.66857,-4.38954 5.66857,-1.53951 5.66857,1.36235 5.66858,1.3431 5.66857,-4.11906 5.66857,5.27186 5.66857,-6.72207 5.66857,1.94554 5.66857,0.60285 5.66857,2.21468 5.66858,-2.77165 5.66857,2.48293 5.66857,-1.55513 5.66857,0.29886 5.66857,1.32166 5.66857,2.92767 5.66857,1.21717 5.66858,1.58226 5.66857,-3.70191 5.66857,-0.0994 5.66857,-24.81976"
         style="fill:none;stroke:#1f77b4;stroke-width:1.5;stroke-linecap:square;stroke-linejoin:round;stroke-miterlimit:10;stroke-dasharray:none;stroke-opacity:1"
         id="path284" /></g><g
       id="g288"
       clip-path="url(#clipPath292)"
       transform="matrix(0.57529806,0,0,0.57529806,8.9263723,141.95162)"><path
         d="m 57.6,263.90544 5.668571,4.45463 5.668572,-8.53256 5.668571,-8.84552 5.668572,-6.71706 5.668571,-6.3126 5.668572,-4.14133 5.668571,-5.89542 5.66857,-6.43203 5.66857,0.25768 5.66857,-3.17766 5.66858,-5.85948 5.66857,-2.45416 5.66857,-4.79306 5.66857,-5.20762 5.66857,-5.716 5.66857,-3.00442 5.66857,-3.06931 5.66858,-0.0748 5.66857,-1.51919 5.66857,-2.73792 5.66857,-2.61531 5.66857,-3.04547 5.66857,-0.7873 5.66857,-1.08672 5.66858,-3.01589 5.66857,-6.13573 5.66857,1.7334 5.66857,-4.51535 5.66857,-0.5472 5.66857,-3.03445 5.66857,-1.79289 5.66858,-0.59692 5.66857,-2.57765 5.66857,-3.49497 5.66857,-3.81139 5.66857,-1.5775 5.66857,0.99366 5.66857,-1.51036 5.66858,1.12826 5.66857,-3.19319 5.66857,-0.34995 5.66857,4.56026 5.66857,-4.22823 5.66857,-1.84082 5.66857,1.61355 5.66858,0.65232 5.66857,-3.40098 5.66857,3.64048 5.66857,-5.65627 5.66857,0.62712 5.66857,0.7213 5.66857,0.77468 5.66858,-1.90656 5.66857,0.33594 5.66857,0.52018 5.66857,-1.11717 5.66857,-0.63169 5.66857,1.35623 5.66857,1.78175 5.66858,-4.43157 5.66857,2.24824 5.66857,1.72739 5.66857,-12.69129"
         style="fill:none;stroke:#ff7f0e;stroke-width:1.5;stroke-linecap:square;stroke-linejoin:round;stroke-miterlimit:10;stroke-dasharray:none;stroke-opacity:1"
         id="path294" /></g><g
       id="g298"
       clip-path="url(#clipPath302)"
       transform="matrix(0.57529806,0,0,0.57529806,8.9263723,141.95162)"><path
         d="m 57.6,263.96234 5.668571,4.24102 5.668572,-8.72545 5.668571,-8.91274 5.668572,-6.68159 5.668571,-5.76848 5.668572,-3.79967 5.668571,-6.08241 5.66857,-6.23339 5.66857,0.79998 5.66857,-2.37956 5.66858,-5.68036 5.66857,-1.84921 5.66857,-4.247 5.66857,-4.69736 5.66857,-5.66398 5.66857,-2.54438 5.66857,-2.9398 5.66858,-0.0141 5.66857,-1.33622 5.66857,-2.37973 5.66857,-3.17435 5.66857,-3.23383 5.66857,-1.16335 5.66857,-0.86989 5.66858,-1.98316 5.66857,-5.34261 5.66857,2.25745 5.66857,-4.32575 5.66857,-0.0609 5.66857,-2.59566 5.66857,-1.39548 5.66858,-1.01769 5.66857,-2.31166 5.66857,-3.55687 5.66857,-3.36742 5.66857,-0.83924 5.66857,0.91692 5.66857,-1.57016 5.66858,0.90983 5.66857,-2.17713 5.66857,0.12047 5.66857,4.1186 5.66857,-4.18342 5.66857,-0.98625 5.66857,0.76262 5.66858,0.77081 5.66857,-4.13711 5.66857,1.71222 5.66857,-5.23109 5.66857,-0.0792 5.66857,1.00132 5.66857,1.04019 5.66858,-3.93381 5.66857,1.28465 5.66857,-0.74414 5.66857,0.41319 5.66857,-3.35684 5.66857,-1.42631 5.66857,-0.057 5.66858,-5.40856 5.66857,3.21797 5.66857,-0.86013 5.66857,-5.60048"
         style="fill:none;stroke:#2ca02c;stroke-width:1.5;stroke-linecap:square;stroke-linejoin:round;stroke-miterlimit:10;stroke-dasharray:none;stroke-opacity:1"
         id="path304" /></g><g
       id="g308"
       clip-path="url(#clipPath312)"
       style="stroke:#8c564b;stroke-opacity:1"
       transform="matrix(0.57529806,0,0,0.57529806,8.9263723,141.95162)"><path
         d="m 57.6,263.76066 5.668571,4.07982 5.668572,-8.76969 5.668571,-8.78659 5.668572,-7.23858 5.668571,-5.86349 5.668572,-4.0701 5.668571,-6.08392 5.66857,-5.86248 5.66857,0.95558 5.66857,-2.01343 5.66858,-5.51497 5.66857,-1.61468 5.66857,-4.16441 5.66857,-4.8038 5.66857,-5.25299 5.66857,-2.49859 5.66857,-2.83171 5.66858,0.16339 5.66857,-1.33611 5.66857,-2.27719 5.66857,-2.47521 5.66857,-2.44208 5.66857,-0.90535 5.66857,-0.55702 5.66858,-1.67802 5.66857,-4.58488 5.66857,1.54285 5.66857,-4.26069 5.66857,-0.41646 5.66857,-2.14232 5.66857,-1.65617 5.66858,-0.61839 5.66857,-2.77577 5.66857,-2.68747 5.66857,-2.68367 5.66857,-0.73797 5.66857,0.45277 5.66857,-1.11867 5.66858,1.18201 5.66857,-1.9624 5.66857,0.30151 5.66857,4.30549 5.66857,-4.99771 5.66857,-0.924 5.66857,0.55773 5.66858,0.23753 5.66857,-4.67918 5.66857,1.49139 5.66857,-4.37997 5.66857,0.71066 5.66857,0.99638 5.66857,0.28971 5.66858,-2.58111 5.66857,1.58185 5.66857,-3.00233 5.66857,0.39967 5.66857,-4.02925 5.66857,-0.40497 5.66857,-0.42267 5.66858,-6.1388 5.66857,2.26579 5.66857,-1.23553 5.66857,-6.61893"
         style="fill:none;stroke:#8c564b;stroke-width:1.5;stroke-linecap:square;stroke-linejoin:round;stroke-miterlimit:10;stroke-dasharray:none;stroke-opacity:1"
         id="path314" /></g><g
       id="g318"
       clip-path="url(#clipPath322)"
       transform="matrix(0.57529806,0,0,0.57529806,8.9263723,141.95162)"><path
         d="m 57.6,263.65699 5.668571,4.20785 5.668572,-8.88314 5.668571,-8.73172 5.668572,-6.89233 5.668571,-5.55226 5.668572,-3.8041 5.668571,-5.63231 5.66857,-5.92714 5.66857,0.97929 5.66857,-2.1848 5.66858,-5.69606 5.66857,-1.61943 5.66857,-4.07473 5.66857,-4.88705 5.66857,-5.0498 5.66857,-2.63993 5.66857,-2.53116 5.66858,0.01 5.66857,-0.98007 5.66857,-2.22291 5.66857,-2.75922 5.66857,-2.2383 5.66857,-0.77463 5.66857,-0.76552 5.66858,-1.4188 5.66857,-4.87449 5.66857,1.66588 5.66857,-4.57853 5.66857,0.087 5.66857,-1.77537 5.66857,-1.43597 5.66858,-0.0553 5.66857,-2.35191 5.66857,-2.80275 5.66857,-1.91024 5.66857,-1.98252 5.66857,1.03451 5.66857,-1.50988 5.66858,1.12245 5.66857,-2.29407 5.66857,0.51136 5.66857,4.06114 5.66857,-5.33399 5.66857,-0.0455 5.66857,0.81061 5.66858,0.42399 5.66857,-3.88534 5.66857,0.80527 5.66857,-4.42555 5.66857,0.30853 5.66857,1.80912 5.66857,0.52768 5.66858,-3.7173 5.66857,1.68378 5.66857,-3.16588 5.66857,-1.355 5.66857,-3.31271 5.66857,-1.23534 5.66857,-0.98899 5.66858,-6.41548 5.66857,-0.4242 5.66857,-3.41023 5.66857,-0.0596"
         style="fill:none;stroke:#9467bd;stroke-width:1.5;stroke-linecap:square;stroke-linejoin:round;stroke-miterlimit:10;stroke-dasharray:none;stroke-opacity:1"
         id="path324" /></g><path
       d="M 42.063541,163.82216 V 316.91587"
       style="fill:none;stroke:#000000;stroke-width:0.460239;stroke-linecap:square;stroke-linejoin:miter;stroke-miterlimit:10;stroke-dasharray:none;stroke-opacity:1"
       id="path338" /><path
       d="M 247.51398,163.82216 V 316.91587"
       style="fill:none;stroke:#000000;stroke-width:0.460239;stroke-linecap:square;stroke-linejoin:miter;stroke-miterlimit:10;stroke-dasharray:none;stroke-opacity:1"
       id="path340" /><path
       d="M 42.063541,163.82216 H 247.51398"
       style="fill:none;stroke:#000000;stroke-width:0.460239;stroke-linecap:square;stroke-linejoin:miter;stroke-miterlimit:10;stroke-dasharray:none;stroke-opacity:1"
       id="path342" /><path
       d="M 42.063541,316.91587 H 247.51398"
       style="fill:none;stroke:#000000;stroke-width:0.460239;stroke-linecap:square;stroke-linejoin:miter;stroke-miterlimit:10;stroke-dasharray:none;stroke-opacity:1"
       id="path344" /><path
       d="M 53.95315,215.41793 H 65.459113"
       style="fill:none;stroke:#1f77b4;stroke-width:0.862947;stroke-linecap:square;stroke-linejoin:round;stroke-miterlimit:10;stroke-dasharray:none;stroke-opacity:1"
       id="path354" /><path
       d="M 53.95315,206.97722 H 65.459113"
       style="fill:none;stroke:#ff7f0e;stroke-width:0.862947;stroke-linecap:square;stroke-linejoin:round;stroke-miterlimit:10;stroke-dasharray:none;stroke-opacity:1"
       id="path360" /><path
       d="M 53.95315,198.53652 H 65.459113"
       style="fill:none;stroke:#2ca02c;stroke-width:0.862947;stroke-linecap:square;stroke-linejoin:round;stroke-miterlimit:10;stroke-dasharray:none;stroke-opacity:1"
       id="path366" /><path
       d="M 53.95315,190.09582 H 65.459113"
       style="fill:none;stroke:#8c564b;stroke-width:0.862947;stroke-linecap:square;stroke-linejoin:round;stroke-miterlimit:10;stroke-dasharray:none;stroke-opacity:1"
       id="path372" /><path
       d="M 53.95315,181.65512 H 65.459113"
       style="fill:none;stroke:#9467bd;stroke-width:0.862947;stroke-linecap:square;stroke-linejoin:round;stroke-miterlimit:10;stroke-dasharray:none;stroke-opacity:1"
       id="path378" /><path
       d="M 53.95315,173.21441 H 65.459113"
       style="fill:none;stroke:#d62728;stroke-width:0.862947;stroke-linecap:square;stroke-linejoin:round;stroke-miterlimit:10;stroke-dasharray:none;stroke-opacity:1"
       id="path384" /></g><g
     inkscape:groupmode="layer"
     id="layer1"
     inkscape:label="text"
     style="display:inline"><text
       style="font-variant:normal;font-weight:normal;font-size:7.67064px;font-family:'DejaVu Sans';-inkscape-font-specification:DejaVuSans;writing-mode:lr-tb;fill:#000000;fill-opacity:1;fill-rule:nonzero;stroke:none;stroke-width:0.767064"
       id="text32"
       x="25.960205"
       y="236.35837"><tspan
         x="25.960205 30.838732 33.277996"
         y="236.35837"
         sodipodi:role="line"
         id="tspan30"
         style="stroke-width:0.767064">0.0</tspan></text><text
       style="font-variant:normal;font-weight:normal;font-size:7.67064px;font-family:'DejaVu Sans';-inkscape-font-specification:DejaVuSans;writing-mode:lr-tb;fill:#000000;fill-opacity:1;fill-rule:nonzero;stroke:none;stroke-width:0.767064"
       id="text50"
       x="56.745464"
       y="236.35837"><tspan
         x="56.745464 61.623997 64.063255"
         y="236.35837"
         sodipodi:role="line"
         id="tspan48"
         style="stroke-width:0.767064">0.2</tspan></text><path
       d="m 97.631279,225.16409 v 2.68473"
       style="fill:#000000;fill-opacity:1;fill-rule:nonzero;stroke:#000000;stroke-width:0.613651;stroke-linecap:butt;stroke-linejoin:round;stroke-miterlimit:10;stroke-dasharray:none;stroke-opacity:1"
       id="path64" /><text
       style="font-variant:normal;font-weight:normal;font-size:7.67064px;font-family:'DejaVu Sans';-inkscape-font-specification:DejaVuSans;writing-mode:lr-tb;fill:#000000;fill-opacity:1;fill-rule:nonzero;stroke:none;stroke-width:0.767064"
       id="text68"
       x="91.530724"
       y="236.35837"><tspan
         x="91.530724 96.409256 98.848511"
         y="236.35837"
         sodipodi:role="line"
         id="tspan66"
         style="stroke-width:0.767064">0.4</tspan></text><path
       d="m 132.41653,225.16409 v 2.68473"
       style="fill:#000000;fill-opacity:1;fill-rule:nonzero;stroke:#000000;stroke-width:0.613651;stroke-linecap:butt;stroke-linejoin:round;stroke-miterlimit:10;stroke-dasharray:none;stroke-opacity:1"
       id="path82" /><text
       style="font-variant:normal;font-weight:normal;font-size:7.67064px;font-family:'DejaVu Sans';-inkscape-font-specification:DejaVuSans;writing-mode:lr-tb;fill:#000000;fill-opacity:1;fill-rule:nonzero;stroke:none;stroke-width:0.767064"
       id="text86"
       x="126.31599"
       y="236.35837"><tspan
         x="126.31599 131.19452 133.63377"
         y="236.35837"
         sodipodi:role="line"
         id="tspan84"
         style="stroke-width:0.767064">0.6</tspan></text><path
       d="m 167.2018,225.16409 v 2.68473"
       style="fill:#000000;fill-opacity:1;fill-rule:nonzero;stroke:#000000;stroke-width:0.613651;stroke-linecap:butt;stroke-linejoin:round;stroke-miterlimit:10;stroke-dasharray:none;stroke-opacity:1"
       id="path100" /><text
       style="font-variant:normal;font-weight:normal;font-size:7.67064px;font-family:'DejaVu Sans';-inkscape-font-specification:DejaVuSans;writing-mode:lr-tb;fill:#000000;fill-opacity:1;fill-rule:nonzero;stroke:none;stroke-width:0.767064"
       id="text104"
       x="161.10123"
       y="236.35837"><tspan
         x="161.10123 165.97977 168.41904"
         y="236.35837"
         sodipodi:role="line"
         id="tspan102"
         style="stroke-width:0.767064">0.8</tspan></text><path
       d="m 201.98706,225.16409 v 2.68473"
       style="fill:#000000;fill-opacity:1;fill-rule:nonzero;stroke:#000000;stroke-width:0.613651;stroke-linecap:butt;stroke-linejoin:round;stroke-miterlimit:10;stroke-dasharray:none;stroke-opacity:1"
       id="path118" /><text
       style="font-variant:normal;font-weight:normal;font-size:7.67064px;font-family:'DejaVu Sans';-inkscape-font-specification:DejaVuSans;writing-mode:lr-tb;fill:#000000;fill-opacity:1;fill-rule:nonzero;stroke:none;stroke-width:0.767064"
       id="text122"
       x="195.88651"
       y="236.35837"><tspan
         x="195.88651 200.76501 203.20428"
         y="236.35837"
         sodipodi:role="line"
         id="tspan120"
         style="stroke-width:0.767064">1.0</tspan></text><text
       style="font-variant:normal;font-weight:normal;font-size:7.67064px;font-family:'DejaVu Sans';-inkscape-font-specification:DejaVuSans;writing-mode:lr-tb;fill:#000000;fill-opacity:1;fill-rule:nonzero;stroke:none;stroke-width:0.767064"
       id="text140"
       x="230.67177"
       y="236.35837"><tspan
         x="230.67177 235.55028 237.98953"
         y="236.35837"
         sodipodi:role="line"
         id="tspan138"
         style="stroke-width:0.767064">1.2</tspan></text><text
       style="font-variant:normal;font-weight:normal;font-size:7.67064px;font-family:'DejaVu Sans';-inkscape-font-specification:DejaVuSans;writing-mode:lr-tb;fill:#000000;fill-opacity:1;fill-rule:nonzero;stroke:none;stroke-width:0.767064"
       id="text158"
       x="265.457"
       y="236.35837"><tspan
         x="265.457 270.33554 272.77481"
         y="236.35837"
         sodipodi:role="line"
         id="tspan156"
         style="stroke-width:0.767064">1.4</tspan></text><text
       style="font-variant:normal;font-weight:normal;font-size:7.67064px;font-family:'DejaVu Sans';-inkscape-font-specification:DejaVuSans;writing-mode:lr-tb;fill:#000000;fill-opacity:1;fill-rule:nonzero;stroke:none;stroke-width:0.767064"
       id="text162"
       x="118.60237"
       y="246.84558"><tspan
         x="118.60237 124.54712 129.26456 134.12773 138.82217 146.29338 148.42581 152.64468 155.08394 159.95477 162.08723 166.08362 169.09052 173.79262 178.65581 182.87466 187.59212 190.03137 192.61638 195.05563 201.67542 206.54626"
         y="246.84558"
         sodipodi:role="line"
         id="tspan160"
         style="stroke-width:0.767064">Genomic distance / Mbp</tspan></text><text
       style="font-variant:normal;font-weight:normal;font-size:7.67064px;font-family:'DejaVu Sans';-inkscape-font-specification:DejaVuSans;writing-mode:lr-tb;fill:#000000;fill-opacity:1;fill-rule:nonzero;stroke:none;stroke-width:0.767064"
       id="text180"
       x="10.490199"
       y="228.07648"><tspan
         x="10.490199 15.368728 17.807993"
         y="228.07648"
         sodipodi:role="line"
         id="tspan178"
         style="stroke-width:0.767064">0.0</tspan></text><text
       style="font-variant:normal;font-weight:normal;font-size:7.67064px;font-family:'DejaVu Sans';-inkscape-font-specification:DejaVuSans;writing-mode:lr-tb;fill:#000000;fill-opacity:1;fill-rule:nonzero;stroke:none;stroke-width:0.767064"
       id="text198"
       x="10.490199"
       y="187.25148"><tspan
         x="10.490199 15.368728 17.807993"
         y="187.25148"
         sodipodi:role="line"
         id="tspan196"
         style="stroke-width:0.767064">0.2</tspan></text><text
       style="font-variant:normal;font-weight:normal;font-size:7.67064px;font-family:'DejaVu Sans';-inkscape-font-specification:DejaVuSans;writing-mode:lr-tb;fill:#000000;fill-opacity:1;fill-rule:nonzero;stroke:none;stroke-width:0.767064"
       id="text216"
       x="10.490199"
       y="146.42648"><tspan
         x="10.490199 15.368728 17.807993"
         y="146.42648"
         sodipodi:role="line"
         id="tspan214"
         style="stroke-width:0.767064">0.4</tspan></text><text
       style="font-variant:normal;font-weight:normal;font-size:7.67064px;font-family:'DejaVu Sans';-inkscape-font-specification:DejaVuSans;writing-mode:lr-tb;fill:#000000;fill-opacity:1;fill-rule:nonzero;stroke:none;stroke-width:0.767064"
       id="text234"
       x="10.490199"
       y="105.60152"><tspan
         x="10.490199 15.368728 17.807993"
         y="105.60152"
         sodipodi:role="line"
         id="tspan232"
         style="stroke-width:0.767064">0.6</tspan></text><text
       style="font-variant:normal;font-weight:normal;font-size:7.67064px;font-family:'DejaVu Sans';-inkscape-font-specification:DejaVuSans;writing-mode:lr-tb;fill:#000000;fill-opacity:1;fill-rule:nonzero;stroke:none;stroke-width:0.767064"
       id="text252"
       x="10.490199"
       y="64.776535"><tspan
         x="10.490199 15.368728 17.807993"
         y="64.776535"
         sodipodi:role="line"
         id="tspan250"
         style="stroke-width:0.767064">0.8</tspan></text><text
       style="font-variant:normal;font-weight:normal;font-size:7.67064px;font-family:'DejaVu Sans';-inkscape-font-specification:DejaVuSans;writing-mode:lr-tb;fill:#000000;fill-opacity:1;fill-rule:nonzero;stroke:none;stroke-width:0.767064"
       id="text270"
       x="10.490199"
       y="23.951578"><tspan
         x="10.490199 15.368728 17.807993"
         y="23.951578"
         sodipodi:role="line"
         id="tspan268"
         style="stroke-width:0.767064">1.0</tspan></text><text
       transform="rotate(-90)"
       style="font-variant:normal;font-weight:normal;font-size:7.67064px;font-family:'DejaVu Sans';-inkscape-font-specification:DejaVuSans;writing-mode:lr-tb;fill:#000000;fill-opacity:1;fill-rule:nonzero;stroke:none;stroke-width:0.767064"
       id="text274"
       x="-160.16032"
       y="5.8278894"><tspan
         x="-160.16032 -155.53494 -150.81749 -146.11539 -142.96274 -138.96637 -134.27193 -129.40874 -126.96948 -122.75063 -118.0562 -114.90356 -111.75096 -107.03348 -104.90103 -100.19894 -97.192062 -95.059616 -90.365196"
         y="5.8278894"
         sodipodi:role="line"
         id="tspan272"
         style="stroke-width:0.767064">Pearson correlation</tspan></text><text
       style="font-variant:normal;font-weight:normal;font-size:9.20477px;font-family:'DejaVu Sans';-inkscape-font-specification:DejaVuSans;writing-mode:lr-tb;fill:#000000;fill-opacity:1;fill-rule:nonzero;stroke:none;stroke-width:0.767064"
       id="text348"
       x="70.3013"
       y="6.1197257"><tspan
         x="70.3013 75.851776 81.512703 87.155235 90.938385 95.73407 101.36739 107.20322 110.13034 115.19295 120.82628 124.60944 128.39259 134.05353 136.61244 142.25499 145.86325 148.42216 154.0555 159.89131 162.81844 168.26765 173.06334 175.99046 178.91757 184.7626 190.42355 196.25932 201.89268 210.85812 213.41704 218.47966 221.4068 227.25182 229.81075 234.60641 238.21469 243.85719 249.69302 254.75566"
         y="6.1197257"
         sodipodi:role="line"
         id="tspan346"
         style="stroke-width:0.767064">Pearson correlation vs. genomic distance</tspan></text><text
       style="font-variant:normal;font-weight:normal;font-size:9.20477px;font-family:'DejaVu Sans';-inkscape-font-specification:DejaVuSans;writing-mode:lr-tb;fill:#000000;fill-opacity:1;fill-rule:nonzero;stroke:none;stroke-width:0.767064"
       id="text352"
       x="35.965885"
       y="16.436747"><tspan
         x="35.965885 43.099583 51.043293 56.89753 62.751759 68.605995 74.460228 80.314461 83.24157 86.168694 92.022926 94.95005 100.80427 103.7314 109.58562 112.51275 118.36698 121.29409 127.14833 130.07544 135.92969 141.78389 144.71103 150.56525 156.41949 159.34662 165.20082 171.05508 173.98218 179.83643 185.69066 188.61778 194.472 200.32625 203.25336 209.10759 214.96181 217.88895 223.74316 229.59743 232.52451 238.37877 244.23299 247.16011 252.79343 258.62924 261.55637 267.5947 273.44894 279.30316 285.15738 288.0845 291.01163"
         y="16.436747"
         sodipodi:role="line"
         id="tspan350"
         style="stroke-width:0.767064">GM12878, 1,2,4,7,9,11,13,14,16,17,18,20,22 on K562, 5</tspan></text><text
       style="font-variant:normal;font-weight:normal;font-size:7.67064px;font-family:'DejaVu Sans';-inkscape-font-specification:DejaVuSans;writing-mode:lr-tb;fill:#000000;fill-opacity:1;fill-rule:nonzero;stroke:none;stroke-width:0.767064"
       id="text358"
       x="65.391373"
       y="159.05438"><tspan
         x="65.391373 70.269905 75.14843 77.587685 82.305122 87.175987 89.61525 92.200256 94.639534 99.886246 105.50116 110.85526 113.44024 115.87953 120.75805 123.1973 128.07587 132.95436"
         y="159.05438"
         sodipodi:role="line"
         id="tspan356"
         style="stroke-width:0.767064">20 ep / AUC: 0.496</tspan></text><text
       style="font-variant:normal;font-weight:normal;font-size:7.67064px;font-family:'DejaVu Sans';-inkscape-font-specification:DejaVuSans;writing-mode:lr-tb;fill:#000000;fill-opacity:1;fill-rule:nonzero;stroke:none;stroke-width:0.767064"
       id="text364"
       x="65.391373"
       y="170.30864"><tspan
         x="65.391373 70.269905 75.14843 77.587685 82.305122 87.175987 89.61525 92.200256 94.639534 99.886246 105.50116 110.85526 113.44024 115.87953 120.75805 123.1973 128.07587 132.95436"
         y="170.30864"
         sodipodi:role="line"
         id="tspan362"
         style="stroke-width:0.767064">40 ep / AUC: 0.507</tspan></text><text
       style="font-variant:normal;font-weight:normal;font-size:7.67064px;font-family:'DejaVu Sans';-inkscape-font-specification:DejaVuSans;writing-mode:lr-tb;fill:#000000;fill-opacity:1;fill-rule:nonzero;stroke:none;stroke-width:0.767064"
       id="text370"
       x="65.391373"
       y="181.56293"><tspan
         x="65.391373 70.269905 75.14843 77.587685 82.305122 87.175987 89.61525 92.200256 94.639534 99.886246 105.50116 110.85526 113.44024 115.87953 120.75805 123.1973 128.07587 132.95436"
         y="181.56293"
         sodipodi:role="line"
         id="tspan368"
         style="stroke-width:0.767064">60 ep / AUC: 0.525</tspan></text><text
       style="font-variant:normal;font-weight:normal;font-size:7.67064px;font-family:'DejaVu Sans';-inkscape-font-specification:DejaVuSans;writing-mode:lr-tb;fill:#000000;fill-opacity:1;fill-rule:nonzero;stroke:none;stroke-width:0.767064"
       id="text376"
       x="65.391373"
       y="192.81718"><tspan
         x="65.391373 70.269905 75.14843 77.587685 82.305122 87.175987 89.61525 92.200256 94.639534 99.886246 105.50116 110.85526 113.44024 115.87953 120.75805 123.1973 128.07587 132.95436"
         y="192.81718"
         sodipodi:role="line"
         id="tspan374"
         style="stroke-width:0.767064">80 ep / AUC: 0.535</tspan></text><text
       style="font-variant:normal;font-weight:normal;font-size:7.67064px;font-family:'DejaVu Sans';-inkscape-font-specification:DejaVuSans;writing-mode:lr-tb;fill:#000000;fill-opacity:1;fill-rule:nonzero;stroke:none;stroke-width:0.767064"
       id="text382"
       x="65.391373"
       y="204.07146"><tspan
         x="65.391373 70.269905 75.14843 80.026947 82.466217 87.183662 92.054504 94.493782 97.078789 99.518051 104.76476 110.37967 115.7338 118.3188 120.75805 125.63659 128.07587 132.95436 137.83292"
         y="204.07146"
         sodipodi:role="line"
         id="tspan380"
         style="stroke-width:0.767064">100 ep / AUC: 0.541</tspan></text><text
       style="font-variant:normal;font-weight:normal;font-size:7.67064px;font-family:'DejaVu Sans';-inkscape-font-specification:DejaVuSans;writing-mode:lr-tb;fill:#000000;fill-opacity:1;fill-rule:nonzero;stroke:none;stroke-width:0.767064"
       id="text388"
       x="65.391373"
       y="215.32574"><tspan
         x="65.391373 68.398254 71.550903 76.253006 81.116188 85.112579 87.812637 92.530106 95.682724 98.121986 104.06673 110.6865 115.56504 120.44355 125.32208 130.20061 135.07915 137.51842 140.10339 142.54266 147.78938 153.4043 158.75841 161.34341 163.78267 168.66119 171.10046 175.97899 180.85753"
         y="215.32574"
         sodipodi:role="line"
         id="tspan386"
         style="stroke-width:0.767064">transfer GM12878 / AUC: 0.745</tspan></text></g></svg>
