<?xml version="1.0" encoding="UTF-8" standalone="no"?>
<svg
   xmlns:dc="http://purl.org/dc/elements/1.1/"
   xmlns:cc="http://creativecommons.org/ns#"
   xmlns:rdf="http://www.w3.org/1999/02/22-rdf-syntax-ns#"
   xmlns:svg="http://www.w3.org/2000/svg"
   xmlns="http://www.w3.org/2000/svg"
   xmlns:sodipodi="http://sodipodi.sourceforge.net/DTD/sodipodi-0.dtd"
   xmlns:inkscape="http://www.inkscape.org/namespaces/inkscape"
   version="1.1"
   id="svg2"
   xml:space="preserve"
   width="80mm"
   height="65.300003mm"
   viewBox="0 0 302.36219 246.80316"
   sodipodi:docname="pearson_chr21.svg"
   inkscape:version="1.0.2 (1.0.2+r75+1)"><metadata
     id="metadata8"><rdf:RDF><cc:Work
         rdf:about=""><dc:format>image/svg+xml</dc:format><dc:type
           rdf:resource="http://purl.org/dc/dcmitype/StillImage" /><dc:title></dc:title></cc:Work></rdf:RDF></metadata><defs
     id="defs6"><clipPath
       clipPathUnits="userSpaceOnUse"
       id="clipPath22"><path
         d="M 57.6,38.016 H 414.72 V 304.128 H 57.6 Z"
         id="path20" /></clipPath><clipPath
       clipPathUnits="userSpaceOnUse"
       id="clipPath40"><path
         d="M 57.6,38.016 H 414.72 V 304.128 H 57.6 Z"
         id="path38" /></clipPath><clipPath
       clipPathUnits="userSpaceOnUse"
       id="clipPath58"><path
         d="M 57.6,38.016 H 414.72 V 304.128 H 57.6 Z"
         id="path56" /></clipPath><clipPath
       clipPathUnits="userSpaceOnUse"
       id="clipPath76"><path
         d="M 57.6,38.016 H 414.72 V 304.128 H 57.6 Z"
         id="path74" /></clipPath><clipPath
       clipPathUnits="userSpaceOnUse"
       id="clipPath94"><path
         d="M 57.6,38.016 H 414.72 V 304.128 H 57.6 Z"
         id="path92" /></clipPath><clipPath
       clipPathUnits="userSpaceOnUse"
       id="clipPath112"><path
         d="M 57.6,38.016 H 414.72 V 304.128 H 57.6 Z"
         id="path110" /></clipPath><clipPath
       clipPathUnits="userSpaceOnUse"
       id="clipPath130"><path
         d="M 57.6,38.016 H 414.72 V 304.128 H 57.6 Z"
         id="path128" /></clipPath><clipPath
       clipPathUnits="userSpaceOnUse"
       id="clipPath148"><path
         d="M 57.6,38.016 H 414.72 V 304.128 H 57.6 Z"
         id="path146" /></clipPath><clipPath
       clipPathUnits="userSpaceOnUse"
       id="clipPath170"><path
         d="M 57.6,38.016 H 414.72 V 304.128 H 57.6 Z"
         id="path168" /></clipPath><clipPath
       clipPathUnits="userSpaceOnUse"
       id="clipPath188"><path
         d="M 57.6,38.016 H 414.72 V 304.128 H 57.6 Z"
         id="path186" /></clipPath><clipPath
       clipPathUnits="userSpaceOnUse"
       id="clipPath206"><path
         d="M 57.6,38.016 H 414.72 V 304.128 H 57.6 Z"
         id="path204" /></clipPath><clipPath
       clipPathUnits="userSpaceOnUse"
       id="clipPath224"><path
         d="M 57.6,38.016 H 414.72 V 304.128 H 57.6 Z"
         id="path222" /></clipPath><clipPath
       clipPathUnits="userSpaceOnUse"
       id="clipPath242"><path
         d="M 57.6,38.016 H 414.72 V 304.128 H 57.6 Z"
         id="path240" /></clipPath><clipPath
       clipPathUnits="userSpaceOnUse"
       id="clipPath260"><path
         d="M 57.6,38.016 H 414.72 V 304.128 H 57.6 Z"
         id="path258" /></clipPath><clipPath
       clipPathUnits="userSpaceOnUse"
       id="clipPath282"><path
         d="M 57.6,38.016 H 414.72 V 304.128 H 57.6 Z"
         id="path280" /></clipPath><clipPath
       clipPathUnits="userSpaceOnUse"
       id="clipPath292"><path
         d="M 57.6,38.016 H 414.72 V 304.128 H 57.6 Z"
         id="path290" /></clipPath><clipPath
       clipPathUnits="userSpaceOnUse"
       id="clipPath302"><path
         d="M 57.6,38.016 H 414.72 V 304.128 H 57.6 Z"
         id="path300" /></clipPath><clipPath
       clipPathUnits="userSpaceOnUse"
       id="clipPath312"><path
         d="M 57.6,38.016 H 414.72 V 304.128 H 57.6 Z"
         id="path310" /></clipPath><clipPath
       clipPathUnits="userSpaceOnUse"
       id="clipPath322"><path
         d="M 57.6,38.016 H 414.72 V 304.128 H 57.6 Z"
         id="path320" /></clipPath><clipPath
       clipPathUnits="userSpaceOnUse"
       id="clipPath332"><path
         d="M 57.6,38.016 H 414.72 V 304.128 H 57.6 Z"
         id="path330" /></clipPath></defs><sodipodi:namedview
     pagecolor="#ffffff"
     bordercolor="#666666"
     borderopacity="1"
     objecttolerance="10"
     gridtolerance="10"
     guidetolerance="10"
     inkscape:pageopacity="0"
     inkscape:pageshadow="2"
     inkscape:window-width="1920"
     inkscape:window-height="1020"
     id="namedview4"
     showgrid="false"
     fit-margin-top="0"
     fit-margin-left="0"
     fit-margin-right="0"
     fit-margin-bottom="0"
     units="mm"
     inkscape:zoom="1.3150836"
     inkscape:cx="324.06435"
     inkscape:cy="287.04078"
     inkscape:window-x="0"
     inkscape:window-y="0"
     inkscape:window-maximized="1"
     inkscape:current-layer="layer1" /><g
     id="g10"
     inkscape:groupmode="layer"
     inkscape:label="pearson_chr21"
     transform="matrix(1.3333333,0,0,-1.3333333,-28.023958,443.59358)"><g
       id="g328"
       clip-path="url(#clipPath332)"
       style="stroke:#d62728;stroke-opacity:1"
       transform="matrix(0.57525238,0,0,0.57525238,8.9273322,141.98865)"><path
         d="m 57.6,289.79076 5.668571,-7.78541 5.668572,-4.33434 5.668571,-1.33192 5.668572,-1.98102 5.668571,1.44608 5.668572,-0.87307 5.668571,-0.49112 5.66857,0.0761 5.66857,-0.4491 5.66857,3.76149 5.66858,-3.26655 5.66857,2.00984 5.66857,-1.67862 5.66857,-2.16124 5.66857,2.04623 5.66857,-2.13284 5.66857,3.15862 5.66858,-1.12324 5.66857,-1.58083 5.66857,-3.95531 5.66857,-1.19075 5.66857,-2.52338 5.66857,-1.22892 5.66857,2.84865 5.66858,-0.81444 5.66857,1.02032 5.66857,-2.44576 5.66857,1.25196 5.66857,1.21796 5.66857,-0.80819 5.66857,-4.60198 5.66858,4.42983 5.66857,-0.92774 5.66857,-1.14548 5.66857,1.44211 5.66857,-3.22653 5.66857,-0.0284 5.66857,3.98517 5.66858,-5.30989 5.66857,4.66157 5.66857,-3.53861 5.66857,3.5509 5.66857,3.95749 5.66857,3.4502 5.66857,-6.58525 5.66858,2.41022 5.66857,-0.55346 5.66857,1.77459 5.66857,-1.48678 5.66857,-6.10031 5.66857,4.59318 5.66857,-2.68526 5.66858,1.72599 5.66857,0.45505 5.66857,-1.36795 5.66857,-3.43089 5.66857,0.92592 5.66857,-3.01047 5.66857,-4.9939 5.66858,-1.686 5.66857,0.87888 5.66857,0.63212 5.66857,-3.49209"
         style="fill:none;stroke:#d62728;stroke-width:1.5;stroke-linecap:square;stroke-linejoin:round;stroke-miterlimit:10;stroke-dasharray:none;stroke-opacity:1"
         id="path334" /></g><g
       id="g16"
       transform="matrix(0.57525238,0,0,0.57525238,8.9273322,141.98865)"><g
         id="g18"
         clip-path="url(#clipPath22)"><path
           d="M 57.6,38.016 V 304.128"
           style="fill:none;stroke:#b0b0b0;stroke-width:0.8;stroke-linecap:square;stroke-linejoin:round;stroke-miterlimit:10;stroke-dasharray:none;stroke-opacity:1"
           id="path24" /></g></g><path
       d="m 42.06187,163.85744 v -2.01338"
       style="fill:#000000;fill-opacity:1;fill-rule:nonzero;stroke:#000000;stroke-width:0.460202;stroke-linecap:butt;stroke-linejoin:round;stroke-miterlimit:10;stroke-dasharray:none;stroke-opacity:1"
       id="path28" /><g
       id="g34"
       transform="matrix(0.57525238,0,0,0.57525238,8.9273322,141.98865)"><g
         id="g36"
         clip-path="url(#clipPath40)"><path
           d="M 102.94857,38.016 V 304.128"
           style="fill:none;stroke:#b0b0b0;stroke-width:0.8;stroke-linecap:square;stroke-linejoin:round;stroke-miterlimit:10;stroke-dasharray:none;stroke-opacity:1"
           id="path42" /></g></g><path
       d="m 68.148743,163.85744 v -2.01338"
       style="fill:#000000;fill-opacity:1;fill-rule:nonzero;stroke:#000000;stroke-width:0.460202;stroke-linecap:butt;stroke-linejoin:round;stroke-miterlimit:10;stroke-dasharray:none;stroke-opacity:1"
       id="path46" /><g
       id="g52"
       transform="matrix(0.57525238,0,0,0.57525238,8.9273322,141.98865)"><g
         id="g54"
         clip-path="url(#clipPath58)"><path
           d="M 148.29714,38.016 V 304.128"
           style="fill:none;stroke:#b0b0b0;stroke-width:0.8;stroke-linecap:square;stroke-linejoin:round;stroke-miterlimit:10;stroke-dasharray:none;stroke-opacity:1"
           id="path60" /></g></g><path
       d="m 94.235616,163.85744 v -2.01338"
       style="fill:#000000;fill-opacity:1;fill-rule:nonzero;stroke:#000000;stroke-width:0.460202;stroke-linecap:butt;stroke-linejoin:round;stroke-miterlimit:10;stroke-dasharray:none;stroke-opacity:1"
       id="path64" /><g
       id="g70"
       transform="matrix(0.57525238,0,0,0.57525238,8.9273322,141.98865)"><g
         id="g72"
         clip-path="url(#clipPath76)"><path
           d="M 193.64571,38.016 V 304.128"
           style="fill:none;stroke:#b0b0b0;stroke-width:0.8;stroke-linecap:square;stroke-linejoin:round;stroke-miterlimit:10;stroke-dasharray:none;stroke-opacity:1"
           id="path78" /></g></g><path
       d="m 120.32249,163.85744 v -2.01338"
       style="fill:#000000;fill-opacity:1;fill-rule:nonzero;stroke:#000000;stroke-width:0.460202;stroke-linecap:butt;stroke-linejoin:round;stroke-miterlimit:10;stroke-dasharray:none;stroke-opacity:1"
       id="path82" /><g
       id="g88"
       transform="matrix(0.57525238,0,0,0.57525238,8.9273322,141.98865)"><g
         id="g90"
         clip-path="url(#clipPath94)"><path
           d="M 238.99429,38.016 V 304.128"
           style="fill:none;stroke:#b0b0b0;stroke-width:0.8;stroke-linecap:square;stroke-linejoin:round;stroke-miterlimit:10;stroke-dasharray:none;stroke-opacity:1"
           id="path96" /></g></g><path
       d="m 146.40937,163.85744 v -2.01338"
       style="fill:#000000;fill-opacity:1;fill-rule:nonzero;stroke:#000000;stroke-width:0.460202;stroke-linecap:butt;stroke-linejoin:round;stroke-miterlimit:10;stroke-dasharray:none;stroke-opacity:1"
       id="path100" /><g
       id="g106"
       transform="matrix(0.57525238,0,0,0.57525238,8.9273322,141.98865)"><g
         id="g108"
         clip-path="url(#clipPath112)"><path
           d="M 284.34286,38.016 V 304.128"
           style="fill:none;stroke:#b0b0b0;stroke-width:0.8;stroke-linecap:square;stroke-linejoin:round;stroke-miterlimit:10;stroke-dasharray:none;stroke-opacity:1"
           id="path114" /></g></g><path
       d="m 172.49624,163.85744 v -2.01338"
       style="fill:#000000;fill-opacity:1;fill-rule:nonzero;stroke:#000000;stroke-width:0.460202;stroke-linecap:butt;stroke-linejoin:round;stroke-miterlimit:10;stroke-dasharray:none;stroke-opacity:1"
       id="path118" /><g
       id="g124"
       transform="matrix(0.57525238,0,0,0.57525238,8.9273322,141.98865)"><g
         id="g126"
         clip-path="url(#clipPath130)"><path
           d="M 329.69143,38.016 V 304.128"
           style="fill:none;stroke:#b0b0b0;stroke-width:0.8;stroke-linecap:square;stroke-linejoin:round;stroke-miterlimit:10;stroke-dasharray:none;stroke-opacity:1"
           id="path132" /></g></g><path
       d="m 198.58312,163.85744 v -2.01338"
       style="fill:#000000;fill-opacity:1;fill-rule:nonzero;stroke:#000000;stroke-width:0.460202;stroke-linecap:butt;stroke-linejoin:round;stroke-miterlimit:10;stroke-dasharray:none;stroke-opacity:1"
       id="path136" /><g
       id="g142"
       transform="matrix(0.57525238,0,0,0.57525238,8.9273322,141.98865)"><g
         id="g144"
         clip-path="url(#clipPath148)"><path
           d="M 375.04,38.016 V 304.128"
           style="fill:none;stroke:#b0b0b0;stroke-width:0.8;stroke-linecap:square;stroke-linejoin:round;stroke-miterlimit:10;stroke-dasharray:none;stroke-opacity:1"
           id="path150" /></g></g><path
       d="m 224.66999,163.85744 v -2.01338"
       style="fill:#000000;fill-opacity:1;fill-rule:nonzero;stroke:#000000;stroke-width:0.460202;stroke-linecap:butt;stroke-linejoin:round;stroke-miterlimit:10;stroke-dasharray:none;stroke-opacity:1"
       id="path154" /><g
       id="g164"
       transform="matrix(0.57525238,0,0,0.57525238,8.9273322,141.98865)"><g
         id="g166"
         clip-path="url(#clipPath170)"><path
           d="M 57.6,38.016 H 414.72"
           style="fill:none;stroke:#b0b0b0;stroke-width:0.8;stroke-linecap:square;stroke-linejoin:round;stroke-miterlimit:10;stroke-dasharray:none;stroke-opacity:1"
           id="path172" /></g></g><path
       d="M 42.06187,163.85744 H 40.048486"
       style="fill:#000000;fill-opacity:1;fill-rule:nonzero;stroke:#000000;stroke-width:0.460202;stroke-linecap:butt;stroke-linejoin:round;stroke-miterlimit:10;stroke-dasharray:none;stroke-opacity:1"
       id="path176" /><g
       id="g182"
       transform="matrix(0.57525238,0,0,0.57525238,8.9273322,141.98865)"><g
         id="g184"
         clip-path="url(#clipPath188)"><path
           d="M 57.6,91.2384 H 414.72"
           style="fill:none;stroke:#b0b0b0;stroke-width:0.8;stroke-linecap:square;stroke-linejoin:round;stroke-miterlimit:10;stroke-dasharray:none;stroke-opacity:1"
           id="path190" /></g></g><path
       d="M 42.06187,194.47376 H 40.048486"
       style="fill:#000000;fill-opacity:1;fill-rule:nonzero;stroke:#000000;stroke-width:0.460202;stroke-linecap:butt;stroke-linejoin:round;stroke-miterlimit:10;stroke-dasharray:none;stroke-opacity:1"
       id="path194" /><g
       id="g200"
       transform="matrix(0.57525238,0,0,0.57525238,8.9273322,141.98865)"><g
         id="g202"
         clip-path="url(#clipPath206)"><path
           d="M 57.6,144.4608 H 414.72"
           style="fill:none;stroke:#b0b0b0;stroke-width:0.8;stroke-linecap:square;stroke-linejoin:round;stroke-miterlimit:10;stroke-dasharray:none;stroke-opacity:1"
           id="path208" /></g></g><path
       d="M 42.06187,225.09007 H 40.048486"
       style="fill:#000000;fill-opacity:1;fill-rule:nonzero;stroke:#000000;stroke-width:0.460202;stroke-linecap:butt;stroke-linejoin:round;stroke-miterlimit:10;stroke-dasharray:none;stroke-opacity:1"
       id="path212" /><g
       id="g218"
       transform="matrix(0.57525238,0,0,0.57525238,8.9273322,141.98865)"><g
         id="g220"
         clip-path="url(#clipPath224)"><path
           d="M 57.6,197.6832 H 414.72"
           style="fill:none;stroke:#b0b0b0;stroke-width:0.8;stroke-linecap:square;stroke-linejoin:round;stroke-miterlimit:10;stroke-dasharray:none;stroke-opacity:1"
           id="path226" /></g></g><path
       d="M 42.06187,255.70638 H 40.048486"
       style="fill:#000000;fill-opacity:1;fill-rule:nonzero;stroke:#000000;stroke-width:0.460202;stroke-linecap:butt;stroke-linejoin:round;stroke-miterlimit:10;stroke-dasharray:none;stroke-opacity:1"
       id="path230" /><g
       id="g236"
       transform="matrix(0.57525238,0,0,0.57525238,8.9273322,141.98865)"><g
         id="g238"
         clip-path="url(#clipPath242)"><path
           d="M 57.6,250.9056 H 414.72"
           style="fill:none;stroke:#b0b0b0;stroke-width:0.8;stroke-linecap:square;stroke-linejoin:round;stroke-miterlimit:10;stroke-dasharray:none;stroke-opacity:1"
           id="path244" /></g></g><path
       d="M 42.06187,286.32269 H 40.048486"
       style="fill:#000000;fill-opacity:1;fill-rule:nonzero;stroke:#000000;stroke-width:0.460202;stroke-linecap:butt;stroke-linejoin:round;stroke-miterlimit:10;stroke-dasharray:none;stroke-opacity:1"
       id="path248" /><g
       id="g254"
       transform="matrix(0.57525238,0,0,0.57525238,8.9273322,141.98865)"><g
         id="g256"
         clip-path="url(#clipPath260)"><path
           d="M 57.6,304.128 H 414.72"
           style="fill:none;stroke:#b0b0b0;stroke-width:0.8;stroke-linecap:square;stroke-linejoin:round;stroke-miterlimit:10;stroke-dasharray:none;stroke-opacity:1"
           id="path262" /></g></g><path
       d="M 42.06187,316.939 H 40.048486"
       style="fill:#000000;fill-opacity:1;fill-rule:nonzero;stroke:#000000;stroke-width:0.460202;stroke-linecap:butt;stroke-linejoin:round;stroke-miterlimit:10;stroke-dasharray:none;stroke-opacity:1"
       id="path266" /><g
       id="g278"
       clip-path="url(#clipPath282)"
       transform="matrix(0.57525238,0,0,0.57525238,8.9273322,141.98865)"><path
         d="m 71.091584,-1 3.51413,257.00914 5.668572,-4.73609 5.668571,-6.49009 5.668572,-1.75456 5.668571,-7.6919 5.66857,-2.98206 5.66857,3.6109 5.66857,-8.14144 5.66858,0.94021 5.66857,-0.35625 5.66857,-1.43777 5.66857,-3.0291 5.66857,-3.25947 5.66857,-3.64702 5.66857,-5.39453 5.66858,-4.46643 5.66857,3.29609 5.66857,4.30887 5.66857,5.97212 5.66857,-0.31108 5.66857,-2.40395 5.66857,-4.36395 5.66858,-8.78507 5.66857,-4.40171 5.66857,-2.50977 5.66857,4.36591 5.66857,4.60696 5.66857,-2.41282 5.66857,-2.13047 5.66858,-3.89578 5.66857,-2.3744 5.66857,-0.41378 5.66857,-1.98396 5.66857,-3.08041 5.66857,-4.01873 5.66857,-1.98084 5.66858,-2.18475 5.66857,-0.16517 5.66857,-5.64031 5.66857,-4.23933 5.66857,-7.04596 5.66857,-11.63046 5.66857,0.85201 5.66858,-2.12831 5.66857,-1.81389 5.66857,-4.71225 5.66857,3.89387 5.66857,2.60554 5.66857,-1.82704 5.66857,0.55066 5.66858,2.10845 5.66857,1.64516 5.66857,4.0663 5.66857,1.50084 5.66857,-0.27408 5.66857,-5.28645 5.66857,6.54455 5.66858,2.79647 5.66857,3.49381 5.66857,-9.88558 5.66857,-27.1078"
         style="fill:none;stroke:#1f77b4;stroke-width:1.5;stroke-linecap:square;stroke-linejoin:round;stroke-miterlimit:10;stroke-dasharray:none;stroke-opacity:1"
         id="path284" /></g><g
       id="g288"
       clip-path="url(#clipPath292)"
       transform="matrix(0.57525238,0,0,0.57525238,8.9273322,141.98865)"><path
         d="m 57.6,260.75609 5.668571,3.36202 5.668572,-4.42856 5.668571,-11.71975 5.668572,-4.84677 5.668571,-5.02369 5.668572,-0.73133 5.668571,-3.32453 5.66857,-1.74506 5.66857,2.6667 5.66857,-7.65962 5.66858,0.80676 5.66857,-0.46493 5.66857,-2.19666 5.66857,-3.53034 5.66857,-3.29365 5.66857,-4.06776 5.66857,-4.88244 5.66858,-4.33548 5.66857,4.17202 5.66857,5.3249 5.66857,7.33045 5.66857,0.5864 5.66857,-1.48596 5.66857,-3.7932 5.66858,-7.47948 5.66857,-4.9105 5.66857,-3.08116 5.66857,3.94607 5.66857,5.25924 5.66857,-1.29711 5.66857,-2.01808 5.66858,-1.01547 5.66857,-2.95038 5.66857,0.67616 5.66857,-1.18279 5.66857,-0.78553 5.66857,-4.36066 5.66857,-1.71301 5.66858,-0.0249 5.66857,0.94985 5.66857,-4.03948 5.66857,-5.74323 5.66857,-5.19492 5.66857,-12.34067 5.66857,2.13468 5.66858,-0.94964 5.66857,-1.52419 5.66857,-3.32294 5.66857,3.34378 5.66857,2.02343 5.66857,-3.60527 5.66857,2.67775 5.66858,0.0848 5.66857,1.41868 5.66857,2.91639 5.66857,3.43602 5.66857,-1.35556 5.66857,-2.04635 5.66857,1.49257 5.66858,2.33183 5.66857,-1.46903 5.66857,-4.89962 5.66857,-11.09551"
         style="fill:none;stroke:#ff7f0e;stroke-width:1.5;stroke-linecap:square;stroke-linejoin:round;stroke-miterlimit:10;stroke-dasharray:none;stroke-opacity:1"
         id="path294" /></g><g
       id="g298"
       clip-path="url(#clipPath302)"
       transform="matrix(0.57525238,0,0,0.57525238,8.9273322,141.98865)"><path
         d="m 57.6,256.32378 5.668571,0.64573 5.668572,-3.95387 5.668571,-7.83987 5.668572,-3.7307 5.668571,-6.22546 5.668572,-0.16632 5.668571,-4.19657 5.66857,-2.05416 5.66857,3.27838 5.66857,-7.70173 5.66858,1.48097 5.66857,-0.29797 5.66857,-1.80339 5.66857,-3.45416 5.66857,-2.64128 5.66857,-4.27249 5.66857,-5.37692 5.66858,-3.57809 5.66857,3.49802 5.66857,5.49141 5.66857,8.15717 5.66857,0.55045 5.66857,-1.03988 5.66857,-3.54338 5.66858,-7.76713 5.66857,-4.27241 5.66857,-3.11653 5.66857,4.26786 5.66857,4.86764 5.66857,-1.21883 5.66857,-2.47923 5.66858,-0.74023 5.66857,-3.08641 5.66857,1.23805 5.66857,-3.14852 5.66857,-0.9582 5.66857,-4.49172 5.66857,-2.37845 5.66858,0.48541 5.66857,0.26864 5.66857,-3.72604 5.66857,-5.81461 5.66857,-6.55618 5.66857,-12.18698 5.66857,0.83044 5.66858,-0.2365 5.66857,-1.41346 5.66857,-3.98122 5.66857,3.43601 5.66857,3.84243 5.66857,-4.6226 5.66857,3.76741 5.66858,0.8343 5.66857,1.28678 5.66857,2.29144 5.66857,3.10299 5.66857,-1.34052 5.66857,-0.77693 5.66857,0.23938 5.66858,-1.09652 5.66857,-1.80339 5.66857,-4.88032 5.66857,-8.58119"
         style="fill:none;stroke:#2ca02c;stroke-width:1.5;stroke-linecap:square;stroke-linejoin:round;stroke-miterlimit:10;stroke-dasharray:none;stroke-opacity:1"
         id="path304" /></g><g
       id="g308"
       clip-path="url(#clipPath312)"
       style="stroke:#8c564b;stroke-opacity:1"
       transform="matrix(0.57525238,0,0,0.57525238,8.9273322,141.98865)"><path
         d="m 57.6,259.79262 5.668571,-0.45951 5.668572,-3.49995 5.668571,-7.30896 5.668572,-3.41319 5.668571,-7.0955 5.668572,-0.61032 5.668571,-4.35603 5.66857,-1.68537 5.66857,2.65765 5.66857,-7.76374 5.66858,1.07072 5.66857,-0.224 5.66857,-2.52104 5.66857,-3.22631 5.66857,-2.61718 5.66857,-4.61957 5.66857,-5.44041 5.66858,-3.96182 5.66857,3.5738 5.66857,5.41495 5.66857,8.23008 5.66857,0.28331 5.66857,-1.30202 5.66857,-3.21307 5.66858,-8.21643 5.66857,-4.01853 5.66857,-2.37587 5.66857,4.18733 5.66857,5.41285 5.66857,-0.12672 5.66857,-2.61256 5.66858,-0.6822 5.66857,-1.41558 5.66857,1.1662 5.66857,-3.01962 5.66857,-1.35535 5.66857,-3.96243 5.66857,-2.56434 5.66858,-0.54483 5.66857,0.0831 5.66857,-4.12605 5.66857,-4.93736 5.66857,-6.2343 5.66857,-11.52976 5.66857,0.8976 5.66858,-0.15847 5.66857,-0.51764 5.66857,-3.42306 5.66857,3.01108 5.66857,3.78004 5.66857,-5.22524 5.66857,3.14595 5.66858,2.16042 5.66857,2.86296 5.66857,2.04461 5.66857,2.59326 5.66857,-1.79181 5.66857,-0.81362 5.66857,0.68605 5.66858,1.33024 5.66857,-7.14441 5.66857,0.83073 5.66857,-15.32341"
         style="fill:none;stroke:#8c564b;stroke-width:1.5;stroke-linecap:square;stroke-linejoin:round;stroke-miterlimit:10;stroke-dasharray:none;stroke-opacity:1"
         id="path314" /></g><g
       id="g318"
       clip-path="url(#clipPath322)"
       transform="matrix(0.57525238,0,0,0.57525238,8.9273322,141.98865)"><path
         d="m 57.6,261.21416 5.668571,-0.0425 5.668572,-4.17205 5.668571,-6.46438 5.668572,-3.51672 5.668571,-6.89639 5.668572,-0.88243 5.668571,-5.38577 5.66857,-2.52276 5.66857,3.11323 5.66857,-8.03663 5.66858,1.34038 5.66857,0.31566 5.66857,-1.9411 5.66857,-2.821 5.66857,-2.93594 5.66857,-4.73821 5.66857,-5.4829 5.66858,-4.35501 5.66857,3.61974 5.66857,5.01295 5.66857,8.36576 5.66857,0.51388 5.66857,-1.09591 5.66857,-2.42919 5.66858,-9.00532 5.66857,-4.1141 5.66857,-2.63869 5.66857,4.59394 5.66857,4.67794 5.66857,0.20676 5.66857,-2.60914 5.66858,-0.038 5.66857,-1.17747 5.66857,2.01351 5.66857,-3.04254 5.66857,-0.55515 5.66857,-4.30513 5.66857,-1.8095 5.66858,-0.87335 5.66857,0.40921 5.66857,-5.03836 5.66857,-4.97187 5.66857,-6.74108 5.66857,-12.14708 5.66857,0.28638 5.66858,-1.43569 5.66857,-1.35581 5.66857,-5.21547 5.66857,2.83106 5.66857,2.94754 5.66857,-5.78482 5.66857,4.3205 5.66858,1.6421 5.66857,3.6367 5.66857,3.09269 5.66857,3.5998 5.66857,-1.11982 5.66857,-2.10608 5.66857,-1.08987 5.66858,1.57189 5.66857,-6.36331 5.66857,-0.0281 L 414.72,158.211"
         style="fill:none;stroke:#9467bd;stroke-width:1.5;stroke-linecap:square;stroke-linejoin:round;stroke-miterlimit:10;stroke-dasharray:none;stroke-opacity:1"
         id="path324" /></g><path
       d="M 42.06187,163.85744 V 316.939"
       style="fill:none;stroke:#000000;stroke-width:0.460202;stroke-linecap:square;stroke-linejoin:miter;stroke-miterlimit:10;stroke-dasharray:none;stroke-opacity:1"
       id="path338" /><path
       d="M 247.496,163.85744 V 316.939"
       style="fill:none;stroke:#000000;stroke-width:0.460202;stroke-linecap:square;stroke-linejoin:miter;stroke-miterlimit:10;stroke-dasharray:none;stroke-opacity:1"
       id="path340" /><path
       d="M 42.06187,163.85744 H 247.496"
       style="fill:none;stroke:#000000;stroke-width:0.460202;stroke-linecap:square;stroke-linejoin:miter;stroke-miterlimit:10;stroke-dasharray:none;stroke-opacity:1"
       id="path342" /><path
       d="M 42.06187,316.939 H 247.496"
       style="fill:none;stroke:#000000;stroke-width:0.460202;stroke-linecap:square;stroke-linejoin:miter;stroke-miterlimit:10;stroke-dasharray:none;stroke-opacity:1"
       id="path344" /><path
       d="m 79.736638,215.20608 h 11.50504"
       style="fill:none;stroke:#1f77b4;stroke-width:0.862879;stroke-linecap:square;stroke-linejoin:round;stroke-miterlimit:10;stroke-dasharray:none;stroke-opacity:1"
       id="path354" /><path
       d="m 79.736638,206.76606 h 11.50504"
       style="fill:none;stroke:#ff7f0e;stroke-width:0.862879;stroke-linecap:square;stroke-linejoin:round;stroke-miterlimit:10;stroke-dasharray:none;stroke-opacity:1"
       id="path360" /><path
       d="m 79.736638,198.32603 h 11.50504"
       style="fill:none;stroke:#2ca02c;stroke-width:0.862879;stroke-linecap:square;stroke-linejoin:round;stroke-miterlimit:10;stroke-dasharray:none;stroke-opacity:1"
       id="path366" /><path
       d="m 79.736638,189.88599 h 11.50504"
       style="fill:none;stroke:#8c564b;stroke-width:0.862879;stroke-linecap:square;stroke-linejoin:round;stroke-miterlimit:10;stroke-dasharray:none;stroke-opacity:1"
       id="path372" /><path
       d="m 79.736638,181.44596 h 11.50504"
       style="fill:none;stroke:#9467bd;stroke-width:0.862879;stroke-linecap:square;stroke-linejoin:round;stroke-miterlimit:10;stroke-dasharray:none;stroke-opacity:1"
       id="path378" /><path
       d="m 79.736638,173.00592 h 11.50504"
       style="fill:none;stroke:#d62728;stroke-width:0.862879;stroke-linecap:square;stroke-linejoin:round;stroke-miterlimit:10;stroke-dasharray:none;stroke-opacity:1"
       id="path384" /></g><g
     inkscape:groupmode="layer"
     id="layer1"
     inkscape:label="text"><text
       style="font-variant:normal;font-weight:normal;font-size:7.67003px;font-family:'DejaVu Sans';-inkscape-font-specification:DejaVuSans;writing-mode:lr-tb;fill:#000000;fill-opacity:1;fill-rule:nonzero;stroke:none;stroke-width:0.767003"
       id="text32"
       x="25.958462"
       y="236.31032"><tspan
         x="25.958462 30.836601 33.275673"
         y="236.31032"
         sodipodi:role="line"
         id="tspan30"
         style="stroke-width:0.767003">0.0</tspan></text><text
       transform="matrix(1.3333333,0,0,1.3333333,-28.023958,443.59358)"
       style="font-variant:normal;font-weight:normal;font-size:5.75252px;font-family:'DejaVu Sans';-inkscape-font-specification:DejaVuSans;writing-mode:lr-tb;fill:#000000;fill-opacity:1;fill-rule:nonzero;stroke:none;stroke-width:0.575252"
       id="text50"
       x="63.573689"
       y="-155.46245"><tspan
         x="63.573689 67.2323 69.0616"
         y="-155.46245"
         sodipodi:role="line"
         id="tspan48"
         style="stroke-width:0.575252">0.2</tspan></text><text
       transform="matrix(1.3333333,0,0,1.3333333,-28.023958,443.59358)"
       style="font-variant:normal;font-weight:normal;font-size:5.75252px;font-family:'DejaVu Sans';-inkscape-font-specification:DejaVuSans;writing-mode:lr-tb;fill:#000000;fill-opacity:1;fill-rule:nonzero;stroke:none;stroke-width:0.575252"
       id="text68"
       x="89.660568"
       y="-155.46245"><tspan
         x="89.660568 93.319168 95.148468"
         y="-155.46245"
         sodipodi:role="line"
         id="tspan66"
         style="stroke-width:0.575252">0.4</tspan></text><text
       transform="matrix(1.3333333,0,0,1.3333333,-28.023958,443.59358)"
       style="font-variant:normal;font-weight:normal;font-size:5.75252px;font-family:'DejaVu Sans';-inkscape-font-specification:DejaVuSans;writing-mode:lr-tb;fill:#000000;fill-opacity:1;fill-rule:nonzero;stroke:none;stroke-width:0.575252"
       id="text86"
       x="115.74744"
       y="-155.46245"><tspan
         x="115.74744 119.40604 121.23534"
         y="-155.46245"
         sodipodi:role="line"
         id="tspan84"
         style="stroke-width:0.575252">0.6</tspan></text><text
       transform="matrix(1.3333333,0,0,1.3333333,-28.023958,443.59358)"
       style="font-variant:normal;font-weight:normal;font-size:5.75252px;font-family:'DejaVu Sans';-inkscape-font-specification:DejaVuSans;writing-mode:lr-tb;fill:#000000;fill-opacity:1;fill-rule:nonzero;stroke:none;stroke-width:0.575252"
       id="text104"
       x="141.8343"
       y="-155.46245"><tspan
         x="141.8343 145.4929 147.32222"
         y="-155.46245"
         sodipodi:role="line"
         id="tspan102"
         style="stroke-width:0.575252">0.8</tspan></text><text
       transform="matrix(1.3333333,0,0,1.3333333,-28.023958,443.59358)"
       style="font-variant:normal;font-weight:normal;font-size:5.75252px;font-family:'DejaVu Sans';-inkscape-font-specification:DejaVuSans;writing-mode:lr-tb;fill:#000000;fill-opacity:1;fill-rule:nonzero;stroke:none;stroke-width:0.575252"
       id="text122"
       x="167.92119"
       y="-155.46245"><tspan
         x="167.92119 171.57977 173.40909"
         y="-155.46245"
         sodipodi:role="line"
         id="tspan120"
         style="stroke-width:0.575252">1.0</tspan></text><text
       transform="matrix(1.3333333,0,0,1.3333333,-28.023958,443.59358)"
       style="font-variant:normal;font-weight:normal;font-size:5.75252px;font-family:'DejaVu Sans';-inkscape-font-specification:DejaVuSans;writing-mode:lr-tb;fill:#000000;fill-opacity:1;fill-rule:nonzero;stroke:none;stroke-width:0.575252"
       id="text140"
       x="194.00806"
       y="-155.46245"><tspan
         x="194.00806 197.66666 199.49596"
         y="-155.46245"
         sodipodi:role="line"
         id="tspan138"
         style="stroke-width:0.575252">1.2</tspan></text><text
       transform="matrix(1.3333333,0,0,1.3333333,-28.023958,443.59358)"
       style="font-variant:normal;font-weight:normal;font-size:5.75252px;font-family:'DejaVu Sans';-inkscape-font-specification:DejaVuSans;writing-mode:lr-tb;fill:#000000;fill-opacity:1;fill-rule:nonzero;stroke:none;stroke-width:0.575252"
       id="text158"
       x="220.09494"
       y="-155.46245"><tspan
         x="220.09494 223.75352 225.58284"
         y="-155.46245"
         sodipodi:role="line"
         id="tspan156"
         style="stroke-width:0.575252">1.4</tspan></text><text
       transform="matrix(1.3333333,0,0,1.3333333,-28.023958,443.59358)"
       style="font-variant:normal;font-weight:normal;font-size:5.75252px;font-family:'DejaVu Sans';-inkscape-font-specification:DejaVuSans;writing-mode:lr-tb;fill:#000000;fill-opacity:1;fill-rule:nonzero;stroke:none;stroke-width:0.575252"
       id="text162"
       x="109.96269"
       y="-147.59766"><tspan
         x="109.96269 114.42089 117.9587 121.60578 125.12634 130.72929 132.32849 135.49239 137.32169 140.97453 142.57373 145.5708 147.82579 151.3521 154.99919 158.16309 161.7009 163.53018 165.46878 167.29808 172.26251 175.91537"
         y="-147.59766"
         sodipodi:role="line"
         id="tspan160"
         style="stroke-width:0.575252">Genomic distance / Mbp</tspan></text><text
       transform="matrix(1.3333333,0,0,1.3333333,-28.023958,443.59358)"
       style="font-variant:normal;font-weight:normal;font-size:5.75252px;font-family:'DejaVu Sans';-inkscape-font-specification:DejaVuSans;writing-mode:lr-tb;fill:#000000;fill-opacity:1;fill-rule:nonzero;stroke:none;stroke-width:0.575252"
       id="text180"
       x="28.884995"
       y="-161.67337"><tspan
         x="28.884995 32.543598 34.372902"
         y="-161.67337"
         sodipodi:role="line"
         id="tspan178"
         style="stroke-width:0.575252">0.0</tspan></text><text
       transform="matrix(1.3333333,0,0,1.3333333,-28.023958,443.59358)"
       style="font-variant:normal;font-weight:normal;font-size:5.75252px;font-family:'DejaVu Sans';-inkscape-font-specification:DejaVuSans;writing-mode:lr-tb;fill:#000000;fill-opacity:1;fill-rule:nonzero;stroke:none;stroke-width:0.575252"
       id="text198"
       x="28.884995"
       y="-192.28967"><tspan
         x="28.884995 32.543598 34.372902"
         y="-192.28967"
         sodipodi:role="line"
         id="tspan196"
         style="stroke-width:0.575252">0.2</tspan></text><text
       transform="matrix(1.3333333,0,0,1.3333333,-28.023958,443.59358)"
       style="font-variant:normal;font-weight:normal;font-size:5.75252px;font-family:'DejaVu Sans';-inkscape-font-specification:DejaVuSans;writing-mode:lr-tb;fill:#000000;fill-opacity:1;fill-rule:nonzero;stroke:none;stroke-width:0.575252"
       id="text216"
       x="28.884995"
       y="-222.90599"><tspan
         x="28.884995 32.543598 34.372902"
         y="-222.90599"
         sodipodi:role="line"
         id="tspan214"
         style="stroke-width:0.575252">0.4</tspan></text><text
       transform="matrix(1.3333333,0,0,1.3333333,-28.023958,443.59358)"
       style="font-variant:normal;font-weight:normal;font-size:5.75252px;font-family:'DejaVu Sans';-inkscape-font-specification:DejaVuSans;writing-mode:lr-tb;fill:#000000;fill-opacity:1;fill-rule:nonzero;stroke:none;stroke-width:0.575252"
       id="text234"
       x="28.884995"
       y="-253.52231"><tspan
         x="28.884995 32.543598 34.372902"
         y="-253.52231"
         sodipodi:role="line"
         id="tspan232"
         style="stroke-width:0.575252">0.6</tspan></text><text
       transform="matrix(1.3333333,0,0,1.3333333,-28.023958,443.59358)"
       style="font-variant:normal;font-weight:normal;font-size:5.75252px;font-family:'DejaVu Sans';-inkscape-font-specification:DejaVuSans;writing-mode:lr-tb;fill:#000000;fill-opacity:1;fill-rule:nonzero;stroke:none;stroke-width:0.575252"
       id="text252"
       x="28.884995"
       y="-284.13861"><tspan
         x="28.884995 32.543598 34.372902"
         y="-284.13861"
         sodipodi:role="line"
         id="tspan250"
         style="stroke-width:0.575252">0.8</tspan></text><text
       transform="matrix(1.3333333,0,0,1.3333333,-28.023958,443.59358)"
       style="font-variant:normal;font-weight:normal;font-size:5.75252px;font-family:'DejaVu Sans';-inkscape-font-specification:DejaVuSans;writing-mode:lr-tb;fill:#000000;fill-opacity:1;fill-rule:nonzero;stroke:none;stroke-width:0.575252"
       id="text270"
       x="28.884995"
       y="-314.75491"><tspan
         x="28.884995 32.543598 34.372902"
         y="-314.75491"
         sodipodi:role="line"
         id="tspan268"
         style="stroke-width:0.575252">1.0</tspan></text><text
       transform="matrix(0,-1.3333333,1.3333333,0,-28.023958,443.59358)"
       style="font-variant:normal;font-weight:normal;font-size:5.75252px;font-family:'DejaVu Sans';-inkscape-font-specification:DejaVuSans;writing-mode:lr-tb;fill:#000000;fill-opacity:1;fill-rule:nonzero;stroke:none;stroke-width:0.575252"
       id="text274"
       x="212.60643"
       y="25.38854"><tspan
         x="212.60643 216.07521 219.61301 223.1393 225.50359 228.50066 232.02119 235.6683 237.4976 240.66148 244.18204 246.54633 248.91061 252.44841 254.04761 257.57391 259.82889 261.4281 264.94864"
         y="25.38854"
         sodipodi:role="line"
         id="tspan272"
         style="stroke-width:0.575252">Pearson correlation</tspan></text><text
       transform="matrix(1.3333333,0,0,1.3333333,-28.023958,443.59358)"
       style="font-variant:normal;font-weight:normal;font-size:6.90303px;font-family:'DejaVu Sans';-inkscape-font-specification:DejaVuSans;writing-mode:lr-tb;fill:#000000;fill-opacity:1;fill-rule:nonzero;stroke:none;stroke-width:0.575252"
       id="text348"
       x="73.739754"
       y="-328.12775"><tspan
         x="73.739754 77.902283 82.147644 86.379211 89.216347 92.81282 97.037483 101.41401 103.60916 107.40583 111.63048 114.46763 117.30477 121.55014 123.46917 127.70074 130.40672 132.32578 136.55042 140.92693 143.1221 147.20871 150.80518 153.00034 155.19551 159.57893 163.8243 168.20079 172.42546 179.149 181.06804 184.86472 187.05988 191.44331 193.36234 196.95882 199.66481 203.89635 208.27289 212.06955"
         y="-328.12775"
         sodipodi:role="line"
         id="tspan346"
         style="stroke-width:0.575252">Pearson correlation vs. genomic distance</tspan></text><text
       transform="matrix(1.3333333,0,0,1.3333333,-28.023958,443.59358)"
       style="font-variant:normal;font-weight:normal;font-size:6.90303px;font-family:'DejaVu Sans';-inkscape-font-specification:DejaVuSans;writing-mode:lr-tb;fill:#000000;fill-opacity:1;fill-rule:nonzero;stroke:none;stroke-width:0.575252"
       id="text352"
       x="45.792599"
       y="-320.39062"><tspan
         x="45.792599 51.142445 57.099762 61.490086 65.880409 70.270729 74.661057 79.051392 81.246559 83.441719 87.832047 90.027214 94.417526 96.612694 101.00302 103.19818 107.58851 109.78366 114.174 116.36916 120.75949 125.14981 127.34497 131.73531 136.12563 138.3208 142.71112 147.10144 149.2966 153.68694 158.07726 160.27243 164.66275 169.05309 171.24823 175.63857 180.02888 182.22406 186.61438 191.00471 193.19987 197.59021 201.98053 204.1757 208.40034 212.77686 214.97203 219.50041 223.89075 228.28107 232.6714 234.86656 237.06172 241.45204"
         y="-320.39062"
         sodipodi:role="line"
         id="tspan350"
         style="stroke-width:0.575252">GM12878, 1,2,4,7,9,11,13,14,16,17,18,20,22 on K562, 21</tspan></text><text
       style="font-variant:normal;font-weight:normal;font-size:7.67003px;font-family:'DejaVu Sans';-inkscape-font-specification:DejaVuSans;writing-mode:lr-tb;fill:#000000;fill-opacity:1;fill-rule:nonzero;stroke:none;stroke-width:0.767003"
       id="text358"
       x="99.767632"
       y="159.33655"><tspan
         x="99.767632 104.64578 109.52392 111.96298 116.68005 121.55051 123.98959 126.57437 129.01347 134.25978 139.87424 145.22792 147.8127 150.25179 155.12991 157.569 162.44713 167.32527"
         y="159.33655"
         sodipodi:role="line"
         id="tspan356"
         style="stroke-width:0.767003">20 ep / AUC: 0.530</tspan></text><text
       style="font-variant:normal;font-weight:normal;font-size:7.67003px;font-family:'DejaVu Sans';-inkscape-font-specification:DejaVuSans;writing-mode:lr-tb;fill:#000000;fill-opacity:1;fill-rule:nonzero;stroke:none;stroke-width:0.767003"
       id="text364"
       x="99.767632"
       y="170.58992"><tspan
         x="99.767632 104.64578 109.52392 111.96298 116.68005 121.55051 123.98959 126.57437 129.01347 134.25978 139.87424 145.22792 147.8127 150.25179 155.12991 157.569 162.44713 167.32527"
         y="170.58992"
         sodipodi:role="line"
         id="tspan362"
         style="stroke-width:0.767003">40 ep / AUC: 0.621</tspan></text><text
       style="font-variant:normal;font-weight:normal;font-size:7.67003px;font-family:'DejaVu Sans';-inkscape-font-specification:DejaVuSans;writing-mode:lr-tb;fill:#000000;fill-opacity:1;fill-rule:nonzero;stroke:none;stroke-width:0.767003"
       id="text370"
       x="99.767632"
       y="181.84331"><tspan
         x="99.767632 104.64578 109.52392 111.96298 116.68005 121.55051 123.98959 126.57437 129.01347 134.25978 139.87424 145.22792 147.8127 150.25179 155.12991 157.569 162.44713 167.32527"
         y="181.84331"
         sodipodi:role="line"
         id="tspan368"
         style="stroke-width:0.767003">60 ep / AUC: 0.612</tspan></text><text
       style="font-variant:normal;font-weight:normal;font-size:7.67003px;font-family:'DejaVu Sans';-inkscape-font-specification:DejaVuSans;writing-mode:lr-tb;fill:#000000;fill-opacity:1;fill-rule:nonzero;stroke:none;stroke-width:0.767003"
       id="text376"
       x="99.767632"
       y="193.09668"><tspan
         x="99.767632 104.64578 109.52392 111.96298 116.68005 121.55051 123.98959 126.57437 129.01347 134.25978 139.87424 145.22792 147.8127 150.25179 155.12991 157.569 162.44713 167.32527"
         y="193.09668"
         sodipodi:role="line"
         id="tspan374"
         style="stroke-width:0.767003">80 ep / AUC: 0.624</tspan></text><text
       style="font-variant:normal;font-weight:normal;font-size:7.67003px;font-family:'DejaVu Sans';-inkscape-font-specification:DejaVuSans;writing-mode:lr-tb;fill:#000000;fill-opacity:1;fill-rule:nonzero;stroke:none;stroke-width:0.767003"
       id="text382"
       x="99.767632"
       y="204.35005"><tspan
         x="99.767632 104.64578 109.52392 114.40205 116.84109 121.5582 126.42864 128.86772 131.45255 133.89159 139.13789 144.75237 150.10605 152.69087 155.12991 160.00807 162.44713 167.32527 172.20341"
         y="204.35005"
         sodipodi:role="line"
         id="tspan380"
         style="stroke-width:0.767003">100 ep / AUC: 0.626</tspan></text><text
       style="font-variant:normal;font-weight:normal;font-size:7.67003px;font-family:'DejaVu Sans';-inkscape-font-specification:DejaVuSans;writing-mode:lr-tb;fill:#000000;fill-opacity:1;fill-rule:nonzero;stroke:none;stroke-width:0.767003"
       id="text388"
       x="99.767632"
       y="215.60344"><tspan
         x="99.767632 102.77428 105.92667 110.62841 115.4912 119.4873 122.18713 126.90423 130.05656 132.49565 138.43993 145.05917 149.93733 154.81544 159.69359 164.57173 169.44987 171.88895 174.47372 176.91281 182.1591 187.77359 193.12727 195.71205 198.15114 203.02927 205.46835 210.34647 215.22462"
         y="215.60344"
         sodipodi:role="line"
         id="tspan386"
         style="stroke-width:0.767003">transfer GM12878 / AUC: 0.864</tspan></text></g></svg>
