<?xml version="1.0" encoding="UTF-8" standalone="no"?>
<svg
   xmlns:dc="http://purl.org/dc/elements/1.1/"
   xmlns:cc="http://creativecommons.org/ns#"
   xmlns:rdf="http://www.w3.org/1999/02/22-rdf-syntax-ns#"
   xmlns:svg="http://www.w3.org/2000/svg"
   xmlns="http://www.w3.org/2000/svg"
   xmlns:sodipodi="http://sodipodi.sourceforge.net/DTD/sodipodi-0.dtd"
   xmlns:inkscape="http://www.inkscape.org/namespaces/inkscape"
   version="1.1"
   id="svg2"
   xml:space="preserve"
   width="80mm"
   height="65.300003mm"
   viewBox="0 0 302.36219 246.80316"
   sodipodi:docname="pearson_chr10.svg"
   inkscape:version="1.0.2 (1.0.2+r75+1)"><metadata
     id="metadata8"><rdf:RDF><cc:Work
         rdf:about=""><dc:format>image/svg+xml</dc:format><dc:type
           rdf:resource="http://purl.org/dc/dcmitype/StillImage" /><dc:title></dc:title></cc:Work></rdf:RDF></metadata><defs
     id="defs6"><clipPath
       clipPathUnits="userSpaceOnUse"
       id="clipPath22"><path
         d="M 57.6,38.016 H 414.72 V 304.128 H 57.6 Z"
         id="path20" /></clipPath><clipPath
       clipPathUnits="userSpaceOnUse"
       id="clipPath40"><path
         d="M 57.6,38.016 H 414.72 V 304.128 H 57.6 Z"
         id="path38" /></clipPath><clipPath
       clipPathUnits="userSpaceOnUse"
       id="clipPath58"><path
         d="M 57.6,38.016 H 414.72 V 304.128 H 57.6 Z"
         id="path56" /></clipPath><clipPath
       clipPathUnits="userSpaceOnUse"
       id="clipPath76"><path
         d="M 57.6,38.016 H 414.72 V 304.128 H 57.6 Z"
         id="path74" /></clipPath><clipPath
       clipPathUnits="userSpaceOnUse"
       id="clipPath94"><path
         d="M 57.6,38.016 H 414.72 V 304.128 H 57.6 Z"
         id="path92" /></clipPath><clipPath
       clipPathUnits="userSpaceOnUse"
       id="clipPath112"><path
         d="M 57.6,38.016 H 414.72 V 304.128 H 57.6 Z"
         id="path110" /></clipPath><clipPath
       clipPathUnits="userSpaceOnUse"
       id="clipPath130"><path
         d="M 57.6,38.016 H 414.72 V 304.128 H 57.6 Z"
         id="path128" /></clipPath><clipPath
       clipPathUnits="userSpaceOnUse"
       id="clipPath148"><path
         d="M 57.6,38.016 H 414.72 V 304.128 H 57.6 Z"
         id="path146" /></clipPath><clipPath
       clipPathUnits="userSpaceOnUse"
       id="clipPath170"><path
         d="M 57.6,38.016 H 414.72 V 304.128 H 57.6 Z"
         id="path168" /></clipPath><clipPath
       clipPathUnits="userSpaceOnUse"
       id="clipPath188"><path
         d="M 57.6,38.016 H 414.72 V 304.128 H 57.6 Z"
         id="path186" /></clipPath><clipPath
       clipPathUnits="userSpaceOnUse"
       id="clipPath206"><path
         d="M 57.6,38.016 H 414.72 V 304.128 H 57.6 Z"
         id="path204" /></clipPath><clipPath
       clipPathUnits="userSpaceOnUse"
       id="clipPath224"><path
         d="M 57.6,38.016 H 414.72 V 304.128 H 57.6 Z"
         id="path222" /></clipPath><clipPath
       clipPathUnits="userSpaceOnUse"
       id="clipPath242"><path
         d="M 57.6,38.016 H 414.72 V 304.128 H 57.6 Z"
         id="path240" /></clipPath><clipPath
       clipPathUnits="userSpaceOnUse"
       id="clipPath260"><path
         d="M 57.6,38.016 H 414.72 V 304.128 H 57.6 Z"
         id="path258" /></clipPath><clipPath
       clipPathUnits="userSpaceOnUse"
       id="clipPath282"><path
         d="M 57.6,38.016 H 414.72 V 304.128 H 57.6 Z"
         id="path280" /></clipPath><clipPath
       clipPathUnits="userSpaceOnUse"
       id="clipPath292"><path
         d="M 57.6,38.016 H 414.72 V 304.128 H 57.6 Z"
         id="path290" /></clipPath><clipPath
       clipPathUnits="userSpaceOnUse"
       id="clipPath302"><path
         d="M 57.6,38.016 H 414.72 V 304.128 H 57.6 Z"
         id="path300" /></clipPath><clipPath
       clipPathUnits="userSpaceOnUse"
       id="clipPath312"><path
         d="M 57.6,38.016 H 414.72 V 304.128 H 57.6 Z"
         id="path310" /></clipPath><clipPath
       clipPathUnits="userSpaceOnUse"
       id="clipPath322"><path
         d="M 57.6,38.016 H 414.72 V 304.128 H 57.6 Z"
         id="path320" /></clipPath><clipPath
       clipPathUnits="userSpaceOnUse"
       id="clipPath332"><path
         d="M 57.6,38.016 H 414.72 V 304.128 H 57.6 Z"
         id="path330" /></clipPath></defs><sodipodi:namedview
     pagecolor="#ffffff"
     bordercolor="#666666"
     borderopacity="1"
     objecttolerance="10"
     gridtolerance="10"
     guidetolerance="10"
     inkscape:pageopacity="0"
     inkscape:pageshadow="2"
     inkscape:window-width="1920"
     inkscape:window-height="1020"
     id="namedview4"
     showgrid="false"
     fit-margin-top="0"
     fit-margin-left="0"
     fit-margin-right="0"
     fit-margin-bottom="0"
     units="mm"
     inkscape:zoom="2.6301672"
     inkscape:cx="111.09138"
     inkscape:cy="125.70309"
     inkscape:window-x="0"
     inkscape:window-y="0"
     inkscape:window-maximized="1"
     inkscape:current-layer="layer1" /><g
     id="g10"
     inkscape:groupmode="layer"
     inkscape:label="pearson_chr10"
     transform="matrix(1.3333333,0,0,-1.3333333,-28.023958,443.59358)"><g
       id="g16"
       transform="matrix(0.57528562,0,0,0.57528562,8.9266339,141.9776)"><g
         id="g18"
         clip-path="url(#clipPath22)"><path
           d="M 57.6,38.016 V 304.128"
           style="fill:none;stroke:#b0b0b0;stroke-width:0.8;stroke-linecap:square;stroke-linejoin:round;stroke-miterlimit:10;stroke-dasharray:none;stroke-opacity:1"
           id="path24" /></g></g><path
       d="m 42.063085,163.84766 v -2.0135"
       style="fill:#000000;fill-opacity:1;fill-rule:nonzero;stroke:#000000;stroke-width:0.460229;stroke-linecap:butt;stroke-linejoin:round;stroke-miterlimit:10;stroke-dasharray:none;stroke-opacity:1"
       id="path28" /><g
       id="g34"
       transform="matrix(0.57528562,0,0,0.57528562,8.9266339,141.9776)"><g
         id="g36"
         clip-path="url(#clipPath40)"><path
           d="M 102.94857,38.016 V 304.128"
           style="fill:none;stroke:#b0b0b0;stroke-width:0.8;stroke-linecap:square;stroke-linejoin:round;stroke-miterlimit:10;stroke-dasharray:none;stroke-opacity:1"
           id="path42" /></g></g><path
       d="m 68.151465,163.84766 v -2.0135"
       style="fill:#000000;fill-opacity:1;fill-rule:nonzero;stroke:#000000;stroke-width:0.460229;stroke-linecap:butt;stroke-linejoin:round;stroke-miterlimit:10;stroke-dasharray:none;stroke-opacity:1"
       id="path46" /><g
       id="g52"
       transform="matrix(0.57528562,0,0,0.57528562,8.9266339,141.9776)"><g
         id="g54"
         clip-path="url(#clipPath58)"><path
           d="M 148.29714,38.016 V 304.128"
           style="fill:none;stroke:#b0b0b0;stroke-width:0.8;stroke-linecap:square;stroke-linejoin:round;stroke-miterlimit:10;stroke-dasharray:none;stroke-opacity:1"
           id="path60" /></g></g><path
       d="m 94.239845,163.84766 v -2.0135"
       style="fill:#000000;fill-opacity:1;fill-rule:nonzero;stroke:#000000;stroke-width:0.460229;stroke-linecap:butt;stroke-linejoin:round;stroke-miterlimit:10;stroke-dasharray:none;stroke-opacity:1"
       id="path64" /><g
       id="g70"
       transform="matrix(0.57528562,0,0,0.57528562,8.9266339,141.9776)"><g
         id="g72"
         clip-path="url(#clipPath76)"><path
           d="M 193.64571,38.016 V 304.128"
           style="fill:none;stroke:#b0b0b0;stroke-width:0.8;stroke-linecap:square;stroke-linejoin:round;stroke-miterlimit:10;stroke-dasharray:none;stroke-opacity:1"
           id="path78" /></g></g><path
       d="m 120.32822,163.84766 v -2.0135"
       style="fill:#000000;fill-opacity:1;fill-rule:nonzero;stroke:#000000;stroke-width:0.460229;stroke-linecap:butt;stroke-linejoin:round;stroke-miterlimit:10;stroke-dasharray:none;stroke-opacity:1"
       id="path82" /><g
       id="g88"
       transform="matrix(0.57528562,0,0,0.57528562,8.9266339,141.9776)"><g
         id="g90"
         clip-path="url(#clipPath94)"><path
           d="M 238.99429,38.016 V 304.128"
           style="fill:none;stroke:#b0b0b0;stroke-width:0.8;stroke-linecap:square;stroke-linejoin:round;stroke-miterlimit:10;stroke-dasharray:none;stroke-opacity:1"
           id="path96" /></g></g><path
       d="m 146.41661,163.84766 v -2.0135"
       style="fill:#000000;fill-opacity:1;fill-rule:nonzero;stroke:#000000;stroke-width:0.460229;stroke-linecap:butt;stroke-linejoin:round;stroke-miterlimit:10;stroke-dasharray:none;stroke-opacity:1"
       id="path100" /><g
       id="g106"
       transform="matrix(0.57528562,0,0,0.57528562,8.9266339,141.9776)"><g
         id="g108"
         clip-path="url(#clipPath112)"><path
           d="M 284.34286,38.016 V 304.128"
           style="fill:none;stroke:#b0b0b0;stroke-width:0.8;stroke-linecap:square;stroke-linejoin:round;stroke-miterlimit:10;stroke-dasharray:none;stroke-opacity:1"
           id="path114" /></g></g><path
       d="m 172.50499,163.84766 v -2.0135"
       style="fill:#000000;fill-opacity:1;fill-rule:nonzero;stroke:#000000;stroke-width:0.460229;stroke-linecap:butt;stroke-linejoin:round;stroke-miterlimit:10;stroke-dasharray:none;stroke-opacity:1"
       id="path118" /><g
       id="g124"
       transform="matrix(0.57528562,0,0,0.57528562,8.9266339,141.9776)"><g
         id="g126"
         clip-path="url(#clipPath130)"><path
           d="M 329.69143,38.016 V 304.128"
           style="fill:none;stroke:#b0b0b0;stroke-width:0.8;stroke-linecap:square;stroke-linejoin:round;stroke-miterlimit:10;stroke-dasharray:none;stroke-opacity:1"
           id="path132" /></g></g><path
       d="m 198.59337,163.84766 v -2.0135"
       style="fill:#000000;fill-opacity:1;fill-rule:nonzero;stroke:#000000;stroke-width:0.460229;stroke-linecap:butt;stroke-linejoin:round;stroke-miterlimit:10;stroke-dasharray:none;stroke-opacity:1"
       id="path136" /><g
       id="g142"
       transform="matrix(0.57528562,0,0,0.57528562,8.9266339,141.9776)"><g
         id="g144"
         clip-path="url(#clipPath148)"><path
           d="M 375.04,38.016 V 304.128"
           style="fill:none;stroke:#b0b0b0;stroke-width:0.8;stroke-linecap:square;stroke-linejoin:round;stroke-miterlimit:10;stroke-dasharray:none;stroke-opacity:1"
           id="path150" /></g></g><path
       d="m 224.68175,163.84766 v -2.0135"
       style="fill:#000000;fill-opacity:1;fill-rule:nonzero;stroke:#000000;stroke-width:0.460229;stroke-linecap:butt;stroke-linejoin:round;stroke-miterlimit:10;stroke-dasharray:none;stroke-opacity:1"
       id="path154" /><g
       id="g164"
       transform="matrix(0.57528562,0,0,0.57528562,8.9266339,141.9776)"><g
         id="g166"
         clip-path="url(#clipPath170)"><path
           d="M 57.6,38.016 H 414.72"
           style="fill:none;stroke:#b0b0b0;stroke-width:0.8;stroke-linecap:square;stroke-linejoin:round;stroke-miterlimit:10;stroke-dasharray:none;stroke-opacity:1"
           id="path172" /></g></g><path
       d="m 42.063085,163.84766 h -2.0135"
       style="fill:#000000;fill-opacity:1;fill-rule:nonzero;stroke:#000000;stroke-width:0.460229;stroke-linecap:butt;stroke-linejoin:round;stroke-miterlimit:10;stroke-dasharray:none;stroke-opacity:1"
       id="path176" /><g
       id="g182"
       transform="matrix(0.57528562,0,0,0.57528562,8.9266339,141.9776)"><g
         id="g184"
         clip-path="url(#clipPath188)"><path
           d="M 57.6,91.2384 H 414.72"
           style="fill:none;stroke:#b0b0b0;stroke-width:0.8;stroke-linecap:square;stroke-linejoin:round;stroke-miterlimit:10;stroke-dasharray:none;stroke-opacity:1"
           id="path190" /></g></g><path
       d="m 42.063085,194.46574 h -2.0135"
       style="fill:#000000;fill-opacity:1;fill-rule:nonzero;stroke:#000000;stroke-width:0.460229;stroke-linecap:butt;stroke-linejoin:round;stroke-miterlimit:10;stroke-dasharray:none;stroke-opacity:1"
       id="path194" /><g
       id="g200"
       transform="matrix(0.57528562,0,0,0.57528562,8.9266339,141.9776)"><g
         id="g202"
         clip-path="url(#clipPath206)"><path
           d="M 57.6,144.4608 H 414.72"
           style="fill:none;stroke:#b0b0b0;stroke-width:0.8;stroke-linecap:square;stroke-linejoin:round;stroke-miterlimit:10;stroke-dasharray:none;stroke-opacity:1"
           id="path208" /></g></g><path
       d="m 42.063085,225.08381 h -2.0135"
       style="fill:#000000;fill-opacity:1;fill-rule:nonzero;stroke:#000000;stroke-width:0.460229;stroke-linecap:butt;stroke-linejoin:round;stroke-miterlimit:10;stroke-dasharray:none;stroke-opacity:1"
       id="path212" /><g
       id="g218"
       transform="matrix(0.57528562,0,0,0.57528562,8.9266339,141.9776)"><g
         id="g220"
         clip-path="url(#clipPath224)"><path
           d="M 57.6,197.6832 H 414.72"
           style="fill:none;stroke:#b0b0b0;stroke-width:0.8;stroke-linecap:square;stroke-linejoin:round;stroke-miterlimit:10;stroke-dasharray:none;stroke-opacity:1"
           id="path226" /></g></g><path
       d="m 42.063085,255.7019 h -2.0135"
       style="fill:#000000;fill-opacity:1;fill-rule:nonzero;stroke:#000000;stroke-width:0.460229;stroke-linecap:butt;stroke-linejoin:round;stroke-miterlimit:10;stroke-dasharray:none;stroke-opacity:1"
       id="path230" /><g
       id="g236"
       transform="matrix(0.57528562,0,0,0.57528562,8.9266339,141.9776)"><g
         id="g238"
         clip-path="url(#clipPath242)"><path
           d="M 57.6,250.9056 H 414.72"
           style="fill:none;stroke:#b0b0b0;stroke-width:0.8;stroke-linecap:square;stroke-linejoin:round;stroke-miterlimit:10;stroke-dasharray:none;stroke-opacity:1"
           id="path244" /></g></g><path
       d="m 42.063085,286.31998 h -2.0135"
       style="fill:#000000;fill-opacity:1;fill-rule:nonzero;stroke:#000000;stroke-width:0.460229;stroke-linecap:butt;stroke-linejoin:round;stroke-miterlimit:10;stroke-dasharray:none;stroke-opacity:1"
       id="path248" /><g
       id="g254"
       transform="matrix(0.57528562,0,0,0.57528562,8.9266339,141.9776)"><g
         id="g256"
         clip-path="url(#clipPath260)"><path
           d="M 57.6,304.128 H 414.72"
           style="fill:none;stroke:#b0b0b0;stroke-width:0.8;stroke-linecap:square;stroke-linejoin:round;stroke-miterlimit:10;stroke-dasharray:none;stroke-opacity:1"
           id="path262" /></g></g><path
       d="m 42.063085,316.93806 h -2.0135"
       style="fill:#000000;fill-opacity:1;fill-rule:nonzero;stroke:#000000;stroke-width:0.460229;stroke-linecap:butt;stroke-linejoin:round;stroke-miterlimit:10;stroke-dasharray:none;stroke-opacity:1"
       id="path266" /><g
       id="g278"
       clip-path="url(#clipPath282)"
       transform="matrix(0.57528562,0,0,0.57528562,8.9266339,141.9776)"><path
         d="m 57.6,264.75481 5.668571,5.04418 5.668572,-10.19045 5.668571,-9.39361 5.668572,-4.0146 5.668571,-5.78588 5.668572,-3.28444 5.668571,-3.02555 5.66857,-5.01319 5.66857,-1.74395 5.66857,-4.5654 5.66858,-2.9601 5.66857,-2.62052 5.66857,-6.41493 5.66857,-1.13486 5.66857,-1.93465 5.66857,-1.42951 5.66857,2.09357 5.66858,-2.38592 5.66857,-3.97224 5.66857,-4.39004 5.66857,-2.81352 5.66857,-4.68672 5.66857,-5.23841 5.66857,2.5962 5.66858,-2.78313 5.66857,-1.71141 5.66857,1.26547 5.66857,-2.60137 5.66857,0.29244 5.66857,-1.04699 5.66857,-0.88226 5.66858,-0.28361 5.66857,-3.86523 5.66857,2.56798 5.66857,-1.51598 5.66857,4.1238 5.66857,-2.6667 5.66857,-1.04332 5.66858,-4.36807 5.66857,3.85741 5.66857,-1.87494 5.66857,-2.84158 5.66857,3.00927 5.66857,1.34305 5.66857,-1.64326 5.66858,-1.29564 5.66857,-0.18997 5.66857,-7.47955 5.66857,-0.90479 5.66857,-1.10731 5.66857,2.65545 5.66857,-4.38397 5.66858,-4.29331 5.66857,1.30138 5.66857,-6.05496 5.66857,-1.36569 5.66857,-0.62998 5.66857,3.73847 5.66857,-2.02566 5.66858,1.078 5.66857,-5.21985 5.66857,1.94664 5.66857,-14.80343"
         style="fill:none;stroke:#1f77b4;stroke-width:1.5;stroke-linecap:square;stroke-linejoin:round;stroke-miterlimit:10;stroke-dasharray:none;stroke-opacity:1"
         id="path284" /></g><g
       id="g288"
       clip-path="url(#clipPath292)"
       transform="matrix(0.57528562,0,0,0.57528562,8.9266339,141.9776)"><path
         d="m 57.6,266.01623 5.668571,3.4586 5.668572,-9.18415 5.668571,-8.11609 5.668572,-5.07991 5.668571,-6.61669 5.668572,-4.11709 5.668571,-3.30985 5.66857,-5.27028 5.66857,-1.63619 5.66857,-5.0472 5.66858,-3.18821 5.66857,-2.97291 5.66857,-7.03477 5.66857,-1.06771 5.66857,-1.53424 5.66857,-1.43715 5.66857,2.34549 5.66858,-2.17395 5.66857,-4.2761 5.66857,-4.15734 5.66857,-1.37509 5.66857,-4.89374 5.66857,-4.99355 5.66857,2.54212 5.66858,-2.18498 5.66857,-2.11798 5.66857,0.94172 5.66857,-2.67651 5.66857,0.54315 5.66857,-1.1183 5.66857,0.2181 5.66858,-0.50864 5.66857,-3.82126 5.66857,2.69051 5.66857,-0.77678 5.66857,3.3873 5.66857,-2.49739 5.66857,-0.93317 5.66858,-4.28728 5.66857,3.60446 5.66857,-1.30072 5.66857,-3.09579 5.66857,4.04293 5.66857,0.92504 5.66857,-0.26333 5.66858,-1.3932 5.66857,-0.35999 5.66857,-7.5969 5.66857,-0.16204 5.66857,-1.71475 5.66857,2.41214 5.66857,-2.90365 5.66858,-4.6004 5.66857,0.85404 5.66857,-4.2515 5.66857,-1.4208 5.66857,-0.37387 5.66857,2.90388 5.66857,-1.82412 5.66858,0.18982 5.66857,-4.05292 5.66857,2.74581 5.66857,-9.78881"
         style="fill:none;stroke:#ff7f0e;stroke-width:1.5;stroke-linecap:square;stroke-linejoin:round;stroke-miterlimit:10;stroke-dasharray:none;stroke-opacity:1"
         id="path294" /></g><g
       id="g298"
       clip-path="url(#clipPath302)"
       transform="matrix(0.57528562,0,0,0.57528562,8.9266339,141.9776)"><path
         d="m 57.6,267.36313 5.668571,1.93424 5.668572,-8.8443 5.668571,-8.01861 5.668572,-5.80832 5.668571,-6.79535 5.668572,-4.15998 5.668571,-3.64305 5.66857,-5.47259 5.66857,-2.09523 5.66857,-5.35913 5.66858,-3.42264 5.66857,-2.96983 5.66857,-7.25166 5.66857,-1.29421 5.66857,-1.80078 5.66857,-1.69451 5.66857,2.05467 5.66858,-2.33158 5.66857,-4.45034 5.66857,-3.37741 5.66857,-0.86891 5.66857,-4.51545 5.66857,-4.9375 5.66857,2.85591 5.66858,-1.77011 5.66857,-2.13975 5.66857,0.96405 5.66857,-2.58221 5.66857,1.5977 5.66857,-1.20176 5.66857,0.29585 5.66858,-0.5566 5.66857,-3.04018 5.66857,2.83672 5.66857,-0.0692 5.66857,3.3016 5.66857,-1.92221 5.66857,0.0648 5.66858,-4.87814 5.66857,2.71769 5.66857,0.14912 5.66857,-2.59851 5.66857,3.66072 5.66857,1.6335 5.66857,0.0863 5.66858,-2.32823 5.66857,-0.18791 5.66857,-6.96813 5.66857,-0.64566 5.66857,-2.03798 5.66857,2.74388 5.66857,-2.0609 5.66858,-5.12522 5.66857,-0.83099 5.66857,-2.30916 5.66857,-2.34319 5.66857,-2.04773 5.66857,2.03043 5.66857,-3.49812 5.66858,0.85561 5.66857,-2.48541 5.66857,2.02374 5.66857,-2.57565"
         style="fill:none;stroke:#2ca02c;stroke-width:1.5;stroke-linecap:square;stroke-linejoin:round;stroke-miterlimit:10;stroke-dasharray:none;stroke-opacity:1"
         id="path304" /></g><g
       id="g308"
       clip-path="url(#clipPath312)"
       style="stroke:#8c564b;stroke-opacity:1"
       transform="matrix(0.57528562,0,0,0.57528562,8.9266339,141.9776)"><path
         d="m 57.6,267.74318 5.668571,1.74314 5.668572,-8.96417 5.668571,-7.93381 5.668572,-5.75055 5.668571,-6.72645 5.668572,-4.30055 5.668571,-3.74697 5.66857,-5.46619 5.66857,-1.83619 5.66857,-5.3512 5.66858,-3.4547 5.66857,-2.89728 5.66857,-7.42769 5.66857,-1.18812 5.66857,-1.34043 5.66857,-1.65979 5.66857,2.24047 5.66858,-2.33764 5.66857,-4.76956 5.66857,-3.3654 5.66857,-0.73347 5.66857,-5.0323 5.66857,-5.384 5.66857,3.04793 5.66858,-2.46948 5.66857,-2.34355 5.66857,0.75994 5.66857,-2.1398 5.66857,1.71414 5.66857,-1.52323 5.66857,0.41405 5.66858,-0.18807 5.66857,-2.97126 5.66857,3.17377 5.66857,0.54739 5.66857,3.41484 5.66857,-2.41363 5.66857,-0.11485 5.66858,-5.66321 5.66857,2.64795 5.66857,0.41209 5.66857,-3.82385 5.66857,2.68656 5.66857,2.53806 5.66857,-0.85947 5.66858,-2.27031 5.66857,-1.04632 5.66857,-7.96335 5.66857,1.05988 5.66857,-2.68558 5.66857,1.80058 5.66857,-2.7734 5.66858,-4.41568 5.66857,-1.6629 5.66857,-2.44676 5.66857,-3.07881 5.66857,-1.01749 5.66857,2.13785 5.66857,-3.17257 5.66858,1.81977 5.66857,-4.33472 5.66857,3.8252 5.66857,2.14249"
         style="fill:none;stroke:#8c564b;stroke-width:1.5;stroke-linecap:square;stroke-linejoin:round;stroke-miterlimit:10;stroke-dasharray:none;stroke-opacity:1"
         id="path314" /></g><g
       id="g318"
       clip-path="url(#clipPath322)"
       transform="matrix(0.57528562,0,0,0.57528562,8.9266339,141.9776)"><path
         d="m 57.6,267.01208 5.668571,1.38834 5.668572,-8.71933 5.668571,-7.96872 5.668572,-5.81298 5.668571,-6.79507 5.668572,-4.14119 5.668571,-3.70934 5.66857,-5.32123 5.66857,-1.83673 5.66857,-5.4569 5.66858,-3.36647 5.66857,-2.62422 5.66857,-7.00213 5.66857,-1.06124 5.66857,-1.37012 5.66857,-1.18795 5.66857,2.48693 5.66858,-2.06366 5.66857,-4.26391 5.66857,-3.15089 5.66857,-0.57481 5.66857,-4.97705 5.66857,-4.74129 5.66857,2.75151 5.66858,-2.31526 5.66857,-2.60517 5.66857,0.71718 5.66857,-2.16903 5.66857,1.32323 5.66857,-1.44297 5.66857,0.0375 5.66858,-0.46874 5.66857,-2.91766 5.66857,3.29661 5.66857,0.5292 5.66857,2.93887 5.66857,-2.77782 5.66857,-0.27557 5.66858,-6.33416 5.66857,2.79873 5.66857,0.77014 5.66857,-3.08851 5.66857,3.32702 5.66857,2.15892 5.66857,-0.31521 5.66858,-2.8188 5.66857,-0.097 5.66857,-5.50107 5.66857,0.79893 5.66857,-2.37881 5.66857,1.50828 5.66857,-1.65704 5.66858,-4.4859 5.66857,-1.23334 5.66857,-1.82965 5.66857,-3.13613 5.66857,-1.95582 5.66857,1.822 5.66857,-1.95722 5.66858,1.78092 5.66857,-4.18554 5.66857,1.60904 5.66857,-0.67908"
         style="fill:none;stroke:#9467bd;stroke-width:1.5;stroke-linecap:square;stroke-linejoin:round;stroke-miterlimit:10;stroke-dasharray:none;stroke-opacity:1"
         id="path324" /></g><g
       id="g328"
       clip-path="url(#clipPath332)"
       style="stroke:#d62728;stroke-opacity:1"
       transform="matrix(0.57528562,0,0,0.57528562,8.9266339,141.9776)"><path
         d="m 57.6,248.06087 5.668571,-7.29187 5.668572,-2.64319 5.668571,-1.93013 5.668572,0.54601 5.668571,1.59325 5.668572,-0.82048 5.668571,4.73928 5.66857,1.5332 5.66857,-0.13717 5.66857,-0.0418 5.66858,0.0806 5.66857,-2.90026 5.66857,0.21707 5.66857,-0.3958 5.66857,1.80474 5.66857,-2.15561 5.66857,-1.25425 5.66858,1.11235 5.66857,0.67488 5.66857,-1.59361 5.66857,-2.88676 5.66857,-3.72877 5.66857,-3.70619 5.66857,-0.453 5.66858,-2.45747 5.66857,-0.95794 5.66857,1.2394 5.66857,-1.25637 5.66857,6.93874 5.66857,3.25746 5.66857,-2.18465 5.66858,-0.95258 5.66857,6.25023 5.66857,-2.70001 5.66857,-2.34489 5.66857,-2.58518 5.66857,3.99357 5.66857,0.33421 5.66858,2.02432 5.66857,-4.83246 5.66857,1.02922 5.66857,2.38637 5.66857,-4.87707 5.66857,-1.12189 5.66857,-2.62176 5.66858,2.86751 5.66857,3.78359 5.66857,-0.44397 5.66857,4.76036 5.66857,-3.69919 5.66857,0.85233 5.66857,1.144 5.66858,-2.18453 5.66857,-1.99703 5.66857,3.80299 5.66857,-2.09308 5.66857,-1.42895 5.66857,-1.48115 5.66857,-3.76073 5.66858,-4.27128 5.66857,-0.29657 5.66857,1.01551 5.66857,-3.61633"
         style="fill:none;stroke:#d62728;stroke-width:1.5;stroke-linecap:square;stroke-linejoin:round;stroke-miterlimit:10;stroke-dasharray:none;stroke-opacity:1"
         id="path334" /></g><path
       d="m 42.063085,163.84766 v 153.0904"
       style="fill:none;stroke:#000000;stroke-width:0.460229;stroke-linecap:square;stroke-linejoin:miter;stroke-miterlimit:10;stroke-dasharray:none;stroke-opacity:1"
       id="path338" /><path
       d="m 247.50909,163.84766 v 153.0904"
       style="fill:none;stroke:#000000;stroke-width:0.460229;stroke-linecap:square;stroke-linejoin:miter;stroke-miterlimit:10;stroke-dasharray:none;stroke-opacity:1"
       id="path340" /><path
       d="M 42.063085,163.84766 H 247.50909"
       style="fill:none;stroke:#000000;stroke-width:0.460229;stroke-linecap:square;stroke-linejoin:miter;stroke-miterlimit:10;stroke-dasharray:none;stroke-opacity:1"
       id="path342" /><path
       d="M 42.063085,316.93806 H 247.50909"
       style="fill:none;stroke:#000000;stroke-width:0.460229;stroke-linecap:square;stroke-linejoin:miter;stroke-miterlimit:10;stroke-dasharray:none;stroke-opacity:1"
       id="path344" /><path
       d="M 53.919906,215.53116 H 65.425619"
       style="fill:none;stroke:#1f77b4;stroke-width:0.862928;stroke-linecap:square;stroke-linejoin:round;stroke-miterlimit:10;stroke-dasharray:none;stroke-opacity:1"
       id="path354" /><path
       d="M 53.919906,207.09065 H 65.425619"
       style="fill:none;stroke:#ff7f0e;stroke-width:0.862928;stroke-linecap:square;stroke-linejoin:round;stroke-miterlimit:10;stroke-dasharray:none;stroke-opacity:1"
       id="path360" /><path
       d="M 53.919906,198.65015 H 65.425619"
       style="fill:none;stroke:#2ca02c;stroke-width:0.862928;stroke-linecap:square;stroke-linejoin:round;stroke-miterlimit:10;stroke-dasharray:none;stroke-opacity:1"
       id="path366" /><path
       d="M 53.919906,190.20966 H 65.425619"
       style="fill:none;stroke:#8c564b;stroke-width:0.862928;stroke-linecap:square;stroke-linejoin:round;stroke-miterlimit:10;stroke-dasharray:none;stroke-opacity:1"
       id="path372" /><path
       d="M 53.919906,181.76914 H 65.425619"
       style="fill:none;stroke:#9467bd;stroke-width:0.862928;stroke-linecap:square;stroke-linejoin:round;stroke-miterlimit:10;stroke-dasharray:none;stroke-opacity:1"
       id="path378" /><path
       d="M 53.919906,173.32863 H 65.425619"
       style="fill:none;stroke:#d62728;stroke-width:0.862928;stroke-linecap:square;stroke-linejoin:round;stroke-miterlimit:10;stroke-dasharray:none;stroke-opacity:1"
       id="path384" /></g><g
     inkscape:groupmode="layer"
     id="layer1"
     inkscape:label="text"
     style="display:inline"
     transform="translate(-28.023958,-17.206424)"><text
       style="font-variant:normal;font-weight:normal;font-size:7.67047px;font-family:'DejaVu Sans';-inkscape-font-specification:DejaVuSans;writing-mode:lr-tb;fill:#000000;fill-opacity:1;fill-rule:nonzero;stroke:none;stroke-width:0.767047"
       id="text32"
       x="53.983685"
       y="253.53036"><tspan
         x="53.983685 58.86211 61.301319"
         y="253.53036"
         sodipodi:role="line"
         id="tspan30"
         style="stroke-width:0.767047">0.0</tspan></text><text
       style="font-variant:normal;font-weight:normal;font-size:7.67047px;font-family:'DejaVu Sans';-inkscape-font-specification:DejaVuSans;writing-mode:lr-tb;fill:#000000;fill-opacity:1;fill-rule:nonzero;stroke:none;stroke-width:0.767047"
       id="text50"
       x="84.768188"
       y="253.53036"><tspan
         x="84.768188 89.646622 92.085831"
         y="253.53036"
         sodipodi:role="line"
         id="tspan48"
         style="stroke-width:0.767047">0.2</tspan></text><text
       style="font-variant:normal;font-weight:normal;font-size:7.67047px;font-family:'DejaVu Sans';-inkscape-font-specification:DejaVuSans;writing-mode:lr-tb;fill:#000000;fill-opacity:1;fill-rule:nonzero;stroke:none;stroke-width:0.767047"
       id="text68"
       x="119.55271"
       y="253.53036"><tspan
         x="119.55271 124.43113 126.87033"
         y="253.53036"
         sodipodi:role="line"
         id="tspan66"
         style="stroke-width:0.767047">0.4</tspan></text><text
       style="font-variant:normal;font-weight:normal;font-size:7.67047px;font-family:'DejaVu Sans';-inkscape-font-specification:DejaVuSans;writing-mode:lr-tb;fill:#000000;fill-opacity:1;fill-rule:nonzero;stroke:none;stroke-width:0.767047"
       id="text86"
       x="154.33722"
       y="253.53036"><tspan
         x="154.33722 159.21564 161.65483"
         y="253.53036"
         sodipodi:role="line"
         id="tspan84"
         style="stroke-width:0.767047">0.6</tspan></text><text
       style="font-variant:normal;font-weight:normal;font-size:7.67047px;font-family:'DejaVu Sans';-inkscape-font-specification:DejaVuSans;writing-mode:lr-tb;fill:#000000;fill-opacity:1;fill-rule:nonzero;stroke:none;stroke-width:0.767047"
       id="text104"
       x="189.12172"
       y="253.53036"><tspan
         x="189.12172 194.00014 196.43936"
         y="253.53036"
         sodipodi:role="line"
         id="tspan102"
         style="stroke-width:0.767047">0.8</tspan></text><text
       style="font-variant:normal;font-weight:normal;font-size:7.67047px;font-family:'DejaVu Sans';-inkscape-font-specification:DejaVuSans;writing-mode:lr-tb;fill:#000000;fill-opacity:1;fill-rule:nonzero;stroke:none;stroke-width:0.767047"
       id="text122"
       x="223.90623"
       y="253.53036"><tspan
         x="223.90623 228.78464 231.22385"
         y="253.53036"
         sodipodi:role="line"
         id="tspan120"
         style="stroke-width:0.767047">1.0</tspan></text><text
       style="font-variant:normal;font-weight:normal;font-size:7.67047px;font-family:'DejaVu Sans';-inkscape-font-specification:DejaVuSans;writing-mode:lr-tb;fill:#000000;fill-opacity:1;fill-rule:nonzero;stroke:none;stroke-width:0.767047"
       id="text140"
       x="258.69073"
       y="253.53036"><tspan
         x="258.69073 263.56915 266.00836"
         y="253.53036"
         sodipodi:role="line"
         id="tspan138"
         style="stroke-width:0.767047">1.2</tspan></text><text
       style="font-variant:normal;font-weight:normal;font-size:7.67047px;font-family:'DejaVu Sans';-inkscape-font-specification:DejaVuSans;writing-mode:lr-tb;fill:#000000;fill-opacity:1;fill-rule:nonzero;stroke:none;stroke-width:0.767047"
       id="text158"
       x="293.47525"
       y="253.53036"><tspan
         x="293.47525 298.35367 300.79285"
         y="253.53036"
         sodipodi:role="line"
         id="tspan156"
         style="stroke-width:0.767047">1.4</tspan></text><text
       style="font-variant:normal;font-weight:normal;font-size:7.67047px;font-family:'DejaVu Sans';-inkscape-font-specification:DejaVuSans;writing-mode:lr-tb;fill:#000000;fill-opacity:1;fill-rule:nonzero;stroke:none;stroke-width:0.767047"
       id="text162"
       x="146.62376"
       y="264.01764"><tspan
         x="146.62376 152.56837 157.28572 162.1488 166.84312 174.31416 176.44656 180.66533 183.10454 187.97528 190.10768 194.10399 197.11082 201.81282 206.6759 210.89467 215.61201 218.05122 220.63617 223.07538 229.69499 234.56575"
         y="264.01764"
         sodipodi:role="line"
         id="tspan160"
         style="stroke-width:0.767047">Genomic distance / Mbp</tspan></text><text
       style="font-variant:normal;font-weight:normal;font-size:7.67047px;font-family:'DejaVu Sans';-inkscape-font-specification:DejaVuSans;writing-mode:lr-tb;fill:#000000;fill-opacity:1;fill-rule:nonzero;stroke:none;stroke-width:0.767047"
       id="text180"
       x="38.513931"
       y="245.24864"><tspan
         x="38.513931 43.392353 45.831562"
         y="245.24864"
         sodipodi:role="line"
         id="tspan178"
         style="stroke-width:0.767047">0.0</tspan></text><text
       style="font-variant:normal;font-weight:normal;font-size:7.67047px;font-family:'DejaVu Sans';-inkscape-font-specification:DejaVuSans;writing-mode:lr-tb;fill:#000000;fill-opacity:1;fill-rule:nonzero;stroke:none;stroke-width:0.767047"
       id="text198"
       x="38.513931"
       y="204.42453"><tspan
         x="38.513931 43.392353 45.831562"
         y="204.42453"
         sodipodi:role="line"
         id="tspan196"
         style="stroke-width:0.767047">0.2</tspan></text><text
       style="font-variant:normal;font-weight:normal;font-size:7.67047px;font-family:'DejaVu Sans';-inkscape-font-specification:DejaVuSans;writing-mode:lr-tb;fill:#000000;fill-opacity:1;fill-rule:nonzero;stroke:none;stroke-width:0.767047"
       id="text216"
       x="38.513931"
       y="163.60043"><tspan
         x="38.513931 43.392353 45.831562"
         y="163.60043"
         sodipodi:role="line"
         id="tspan214"
         style="stroke-width:0.767047">0.4</tspan></text><text
       style="font-variant:normal;font-weight:normal;font-size:7.67047px;font-family:'DejaVu Sans';-inkscape-font-specification:DejaVuSans;writing-mode:lr-tb;fill:#000000;fill-opacity:1;fill-rule:nonzero;stroke:none;stroke-width:0.767047"
       id="text234"
       x="38.513931"
       y="122.7765"><tspan
         x="38.513931 43.392353 45.831562"
         y="122.7765"
         sodipodi:role="line"
         id="tspan232"
         style="stroke-width:0.767047">0.6</tspan></text><text
       style="font-variant:normal;font-weight:normal;font-size:7.67047px;font-family:'DejaVu Sans';-inkscape-font-specification:DejaVuSans;writing-mode:lr-tb;fill:#000000;fill-opacity:1;fill-rule:nonzero;stroke:none;stroke-width:0.767047"
       id="text252"
       x="38.513931"
       y="81.95237"><tspan
         x="38.513931 43.392353 45.831562"
         y="81.95237"
         sodipodi:role="line"
         id="tspan250"
         style="stroke-width:0.767047">0.8</tspan></text><text
       style="font-variant:normal;font-weight:normal;font-size:7.67047px;font-family:'DejaVu Sans';-inkscape-font-specification:DejaVuSans;writing-mode:lr-tb;fill:#000000;fill-opacity:1;fill-rule:nonzero;stroke:none;stroke-width:0.767047"
       id="text270"
       x="38.513931"
       y="41.128189"><tspan
         x="38.513931 43.392353 45.831562"
         y="41.128189"
         sodipodi:role="line"
         id="tspan268"
         style="stroke-width:0.767047">1.0</tspan></text><text
       transform="rotate(-90)"
       style="font-variant:normal;font-weight:normal;font-size:7.67047px;font-family:'DejaVu Sans';-inkscape-font-specification:DejaVuSans;writing-mode:lr-tb;fill:#000000;fill-opacity:1;fill-rule:nonzero;stroke:none;stroke-width:0.767047"
       id="text274"
       x="-177.33397"
       y="33.851723"><tspan
         x="-177.33397 -172.70868 -167.99133 -163.28934 -160.13676 -156.14044 -151.44612 -146.58304 -144.14383 -139.92508 -135.23073 -132.07817 -128.92561 -124.20844 -122.07603 -117.37405 -114.3672 -112.23481 -107.5405"
         y="33.851723"
         sodipodi:role="line"
         id="tspan272"
         style="stroke-width:0.767047">Pearson correlation</tspan></text><text
       style="font-variant:normal;font-weight:normal;font-size:9.20457px;font-family:'DejaVu Sans';-inkscape-font-specification:DejaVuSans;writing-mode:lr-tb;fill:#000000;fill-opacity:1;fill-rule:nonzero;stroke:none;stroke-width:0.767047"
       id="text348"
       x="98.323738"
       y="23.296757"><tspan
         x="98.323738 103.87409 109.5349 115.17731 118.96038 123.75597 129.38916 135.22487 138.15192 143.21442 148.84763 152.63069 156.41379 162.0746 164.63347 170.27585 173.88405 176.44292 182.07613 187.9118 190.83887 196.28798 201.08356 204.0106 206.93767 212.78256 218.44339 224.27905 229.91228 238.87752 241.43639 246.49889 249.42595 255.27084 257.82971 262.62527 266.23349 271.87589 277.71158 282.77411"
         y="23.296757"
         sodipodi:role="line"
         id="tspan346"
         style="stroke-width:0.767047">Pearson correlation vs. genomic distance</tspan></text><text
       style="font-variant:normal;font-weight:normal;font-size:9.20457px;font-family:'DejaVu Sans';-inkscape-font-specification:DejaVuSans;writing-mode:lr-tb;fill:#000000;fill-opacity:1;fill-rule:nonzero;stroke:none;stroke-width:0.767047"
       id="text352"
       x="61.058701"
       y="33.613518"><tspan
         x="61.058701 68.192245 76.135796 81.989891 87.843994 93.698105 99.552208 105.4063 108.33337 111.26041 117.11453 120.0416 125.89569 128.82275 134.67685 137.60391 143.45801 146.38506 152.23917 155.16623 161.02034 166.87444 169.8015 175.65558 181.50969 184.43675 190.29085 196.14497 199.07202 204.92613 210.78023 213.70729 219.56139 225.41551 228.34254 234.19667 240.05077 242.97781 248.83192 254.68604 257.61307 263.46719 269.32132 272.24835 277.88156 283.71725 286.64429 292.6825 298.53662 304.39072 310.24484 313.17188 316.09894 321.95303"
         y="33.613518"
         sodipodi:role="line"
         id="tspan350"
         style="stroke-width:0.767047">GM12878, 1,2,4,7,9,11,13,14,16,17,18,20,22 on K562, 10</tspan></text><text
       style="font-variant:normal;font-weight:normal;font-size:7.67045px;font-family:'DejaVu Sans';-inkscape-font-specification:DejaVuSans;writing-mode:lr-tb;fill:#000000;fill-opacity:1;fill-rule:nonzero;stroke:none;stroke-width:0.767045"
       id="text358"
       x="93.370491"
       y="176.10942"><tspan
         x="93.370491 98.248909 103.12734 105.56655 110.28387 115.15463 117.59384 120.17877 122.61802 127.86462 133.4794 138.83339 141.41833 143.85757 148.73598 151.17517 156.05362 160.93213"
         y="176.10942"
         sodipodi:role="line"
         id="tspan356"
         style="stroke-width:0.767045">20 ep / AUC: 0.568</tspan></text><text
       style="font-variant:normal;font-weight:normal;font-size:7.67045px;font-family:'DejaVu Sans';-inkscape-font-specification:DejaVuSans;writing-mode:lr-tb;fill:#000000;fill-opacity:1;fill-rule:nonzero;stroke:none;stroke-width:0.767045"
       id="text364"
       x="93.370491"
       y="187.36343"><tspan
         x="93.370491 98.248909 103.12734 105.56655 110.28387 115.15463 117.59384 120.17877 122.61802 127.86462 133.4794 138.83339 141.41833 143.85757 148.73598 151.17517 156.05362 160.93213"
         y="187.36343"
         sodipodi:role="line"
         id="tspan362"
         style="stroke-width:0.767045">40 ep / AUC: 0.571</tspan></text><text
       style="font-variant:normal;font-weight:normal;font-size:7.67045px;font-family:'DejaVu Sans';-inkscape-font-specification:DejaVuSans;writing-mode:lr-tb;fill:#000000;fill-opacity:1;fill-rule:nonzero;stroke:none;stroke-width:0.767045"
       id="text370"
       x="93.370491"
       y="198.61746"><tspan
         x="93.370491 98.248909 103.12734 105.56655 110.28387 115.15463 117.59384 120.17877 122.61802 127.86462 133.4794 138.83339 141.41833 143.85757 148.73598 151.17517 156.05362 160.93213"
         y="198.61746"
         sodipodi:role="line"
         id="tspan368"
         style="stroke-width:0.767045">60 ep / AUC: 0.572</tspan></text><text
       style="font-variant:normal;font-weight:normal;font-size:7.67045px;font-family:'DejaVu Sans';-inkscape-font-specification:DejaVuSans;writing-mode:lr-tb;fill:#000000;fill-opacity:1;fill-rule:nonzero;stroke:none;stroke-width:0.767045"
       id="text376"
       x="93.370491"
       y="209.87149"><tspan
         x="93.370491 98.248909 103.12734 105.56655 110.28387 115.15463 117.59384 120.17877 122.61802 127.86462 133.4794 138.83339 141.41833 143.85757 148.73598 151.17517 156.05362 160.93213"
         y="209.87149"
         sodipodi:role="line"
         id="tspan374"
         style="stroke-width:0.767045">80 ep / AUC: 0.567</tspan></text><text
       style="font-variant:normal;font-weight:normal;font-size:7.67045px;font-family:'DejaVu Sans';-inkscape-font-specification:DejaVuSans;writing-mode:lr-tb;fill:#000000;fill-opacity:1;fill-rule:nonzero;stroke:none;stroke-width:0.767045"
       id="text382"
       x="93.370491"
       y="221.12549"><tspan
         x="93.370491 98.248909 103.12734 108.00574 110.44495 115.16232 120.03304 122.47227 125.05722 127.49643 132.74303 138.35782 143.71182 146.29677 148.73598 153.61441 156.05362 160.93213 165.81055"
         y="221.12549"
         sodipodi:role="line"
         id="tspan380"
         style="stroke-width:0.767045">100 ep / AUC: 0.574</tspan></text><text
       style="font-variant:normal;font-weight:normal;font-size:7.67045px;font-family:'DejaVu Sans';-inkscape-font-specification:DejaVuSans;writing-mode:lr-tb;fill:#000000;fill-opacity:1;fill-rule:nonzero;stroke:none;stroke-width:0.767045"
       id="text388"
       x="93.370491"
       y="232.37953"><tspan
         x="93.370491 96.377319 99.529884 104.23188 109.09496 113.09127 115.79127 120.50864 123.66119 126.1004 132.04501 138.66463 143.54308 148.42148 153.29991 158.17833 163.05685 165.49606 168.08099 170.52022 175.76682 181.38161 186.73561 189.32056 191.75977 196.6382 199.07739 203.95581 208.83424"
         y="232.37953"
         sodipodi:role="line"
         id="tspan386"
         style="stroke-width:0.767045">transfer GM12878 / AUC: 0.738</tspan></text></g></svg>
