<?xml version="1.0" encoding="UTF-8" standalone="no"?>
<svg
   xmlns:dc="http://purl.org/dc/elements/1.1/"
   xmlns:cc="http://creativecommons.org/ns#"
   xmlns:rdf="http://www.w3.org/1999/02/22-rdf-syntax-ns#"
   xmlns:svg="http://www.w3.org/2000/svg"
   xmlns="http://www.w3.org/2000/svg"
   xmlns:sodipodi="http://sodipodi.sourceforge.net/DTD/sodipodi-0.dtd"
   xmlns:inkscape="http://www.inkscape.org/namespaces/inkscape"
   version="1.1"
   id="svg2"
   xml:space="preserve"
   width="80mm"
   height="65.300003mm"
   viewBox="0 0 302.36219 246.80316"
   sodipodi:docname="pearson_chr21.svg"
   inkscape:version="1.0.2 (1.0.2+r75+1)"><metadata
     id="metadata8"><rdf:RDF><cc:Work
         rdf:about=""><dc:format>image/svg+xml</dc:format><dc:type
           rdf:resource="http://purl.org/dc/dcmitype/StillImage" /><dc:title></dc:title></cc:Work></rdf:RDF></metadata><defs
     id="defs6"><clipPath
       clipPathUnits="userSpaceOnUse"
       id="clipPath22"><path
         d="M 57.6,38.016 H 414.72 V 304.128 H 57.6 Z"
         id="path20" /></clipPath><clipPath
       clipPathUnits="userSpaceOnUse"
       id="clipPath40"><path
         d="M 57.6,38.016 H 414.72 V 304.128 H 57.6 Z"
         id="path38" /></clipPath><clipPath
       clipPathUnits="userSpaceOnUse"
       id="clipPath58"><path
         d="M 57.6,38.016 H 414.72 V 304.128 H 57.6 Z"
         id="path56" /></clipPath><clipPath
       clipPathUnits="userSpaceOnUse"
       id="clipPath76"><path
         d="M 57.6,38.016 H 414.72 V 304.128 H 57.6 Z"
         id="path74" /></clipPath><clipPath
       clipPathUnits="userSpaceOnUse"
       id="clipPath94"><path
         d="M 57.6,38.016 H 414.72 V 304.128 H 57.6 Z"
         id="path92" /></clipPath><clipPath
       clipPathUnits="userSpaceOnUse"
       id="clipPath112"><path
         d="M 57.6,38.016 H 414.72 V 304.128 H 57.6 Z"
         id="path110" /></clipPath><clipPath
       clipPathUnits="userSpaceOnUse"
       id="clipPath130"><path
         d="M 57.6,38.016 H 414.72 V 304.128 H 57.6 Z"
         id="path128" /></clipPath><clipPath
       clipPathUnits="userSpaceOnUse"
       id="clipPath148"><path
         d="M 57.6,38.016 H 414.72 V 304.128 H 57.6 Z"
         id="path146" /></clipPath><clipPath
       clipPathUnits="userSpaceOnUse"
       id="clipPath170"><path
         d="M 57.6,38.016 H 414.72 V 304.128 H 57.6 Z"
         id="path168" /></clipPath><clipPath
       clipPathUnits="userSpaceOnUse"
       id="clipPath188"><path
         d="M 57.6,38.016 H 414.72 V 304.128 H 57.6 Z"
         id="path186" /></clipPath><clipPath
       clipPathUnits="userSpaceOnUse"
       id="clipPath206"><path
         d="M 57.6,38.016 H 414.72 V 304.128 H 57.6 Z"
         id="path204" /></clipPath><clipPath
       clipPathUnits="userSpaceOnUse"
       id="clipPath224"><path
         d="M 57.6,38.016 H 414.72 V 304.128 H 57.6 Z"
         id="path222" /></clipPath><clipPath
       clipPathUnits="userSpaceOnUse"
       id="clipPath242"><path
         d="M 57.6,38.016 H 414.72 V 304.128 H 57.6 Z"
         id="path240" /></clipPath><clipPath
       clipPathUnits="userSpaceOnUse"
       id="clipPath260"><path
         d="M 57.6,38.016 H 414.72 V 304.128 H 57.6 Z"
         id="path258" /></clipPath><clipPath
       clipPathUnits="userSpaceOnUse"
       id="clipPath282"><path
         d="M 57.6,38.016 H 414.72 V 304.128 H 57.6 Z"
         id="path280" /></clipPath><clipPath
       clipPathUnits="userSpaceOnUse"
       id="clipPath292"><path
         d="M 57.6,38.016 H 414.72 V 304.128 H 57.6 Z"
         id="path290" /></clipPath><clipPath
       clipPathUnits="userSpaceOnUse"
       id="clipPath302"><path
         d="M 57.6,38.016 H 414.72 V 304.128 H 57.6 Z"
         id="path300" /></clipPath><clipPath
       clipPathUnits="userSpaceOnUse"
       id="clipPath312"><path
         d="M 57.6,38.016 H 414.72 V 304.128 H 57.6 Z"
         id="path310" /></clipPath><clipPath
       clipPathUnits="userSpaceOnUse"
       id="clipPath322"><path
         d="M 57.6,38.016 H 414.72 V 304.128 H 57.6 Z"
         id="path320" /></clipPath><clipPath
       clipPathUnits="userSpaceOnUse"
       id="clipPath332"><path
         d="M 57.6,38.016 H 414.72 V 304.128 H 57.6 Z"
         id="path330" /></clipPath></defs><sodipodi:namedview
     pagecolor="#ffffff"
     bordercolor="#666666"
     borderopacity="1"
     objecttolerance="10"
     gridtolerance="10"
     guidetolerance="10"
     inkscape:pageopacity="0"
     inkscape:pageshadow="2"
     inkscape:window-width="1920"
     inkscape:window-height="1020"
     id="namedview4"
     showgrid="false"
     units="mm"
     fit-margin-top="0"
     fit-margin-left="0"
     fit-margin-right="0"
     fit-margin-bottom="0"
     inkscape:zoom="1.8598091"
     inkscape:cx="245.27635"
     inkscape:cy="166.50985"
     inkscape:window-x="0"
     inkscape:window-y="0"
     inkscape:window-maximized="1"
     inkscape:current-layer="layer1" /><g
     id="g10"
     inkscape:groupmode="layer"
     inkscape:label="pearson_chr21"
     transform="matrix(1.3333333,0,0,-1.3333333,-28.023958,443.59358)"><g
       id="g328"
       clip-path="url(#clipPath332)"
       transform="matrix(0.57531569,0,0,0.57531569,8.9260016,141.97085)"
       style="stroke:#d62728;stroke-opacity:1"><path
         d="m 57.6,289.79076 5.668571,-7.78541 5.668572,-4.33434 5.668571,-1.33192 5.668572,-1.98102 5.668571,1.44608 5.668572,-0.87307 5.668571,-0.49112 5.66857,0.0761 5.66857,-0.4491 5.66857,3.76149 5.66858,-3.26655 5.66857,2.00984 5.66857,-1.67862 5.66857,-2.16124 5.66857,2.04623 5.66857,-2.13284 5.66857,3.15862 5.66858,-1.12324 5.66857,-1.58083 5.66857,-3.95531 5.66857,-1.19075 5.66857,-2.52338 5.66857,-1.22892 5.66857,2.84865 5.66858,-0.81444 5.66857,1.02032 5.66857,-2.44576 5.66857,1.25196 5.66857,1.21796 5.66857,-0.80819 5.66857,-4.60198 5.66858,4.42983 5.66857,-0.92774 5.66857,-1.14548 5.66857,1.44211 5.66857,-3.22653 5.66857,-0.0284 5.66857,3.98517 5.66858,-5.30989 5.66857,4.66157 5.66857,-3.53861 5.66857,3.5509 5.66857,3.95749 5.66857,3.4502 5.66857,-6.58525 5.66858,2.41022 5.66857,-0.55346 5.66857,1.77459 5.66857,-1.48678 5.66857,-6.10031 5.66857,4.59318 5.66857,-2.68526 5.66858,1.72599 5.66857,0.45505 5.66857,-1.36795 5.66857,-3.43089 5.66857,0.92592 5.66857,-3.01047 5.66857,-4.9939 5.66858,-1.686 5.66857,0.87888 5.66857,0.63212 5.66857,-3.49209"
         style="fill:none;stroke:#d62728;stroke-width:1.5;stroke-linecap:square;stroke-linejoin:round;stroke-miterlimit:10;stroke-dasharray:none;stroke-opacity:1"
         id="path334" /></g><g
       id="g16"
       transform="matrix(0.57531569,0,0,0.57531569,8.9260016,141.97085)"><g
         id="g18"
         clip-path="url(#clipPath22)"><path
           d="M 57.6,38.016 V 304.128"
           style="fill:none;stroke:#b0b0b0;stroke-width:0.8;stroke-linecap:square;stroke-linejoin:round;stroke-miterlimit:10;stroke-dasharray:none;stroke-opacity:1"
           id="path24" /></g></g><path
       d="m 42.064185,163.84205 v -2.0136"
       style="fill:#000000;fill-opacity:1;fill-rule:nonzero;stroke:#000000;stroke-width:0.460253;stroke-linecap:butt;stroke-linejoin:round;stroke-miterlimit:10;stroke-dasharray:none;stroke-opacity:1"
       id="path28" /><g
       id="g34"
       transform="matrix(0.57531569,0,0,0.57531569,8.9260016,141.97085)"><g
         id="g36"
         clip-path="url(#clipPath40)"><path
           d="M 102.94857,38.016 V 304.128"
           style="fill:none;stroke:#b0b0b0;stroke-width:0.8;stroke-linecap:square;stroke-linejoin:round;stroke-miterlimit:10;stroke-dasharray:none;stroke-opacity:1"
           id="path42" /></g></g><path
       d="m 68.15393,163.84205 v -2.0136"
       style="fill:#000000;fill-opacity:1;fill-rule:nonzero;stroke:#000000;stroke-width:0.460253;stroke-linecap:butt;stroke-linejoin:round;stroke-miterlimit:10;stroke-dasharray:none;stroke-opacity:1"
       id="path46" /><g
       id="g52"
       transform="matrix(0.57531569,0,0,0.57531569,8.9260016,141.97085)"><g
         id="g54"
         clip-path="url(#clipPath58)"><path
           d="M 148.29714,38.016 V 304.128"
           style="fill:none;stroke:#b0b0b0;stroke-width:0.8;stroke-linecap:square;stroke-linejoin:round;stroke-miterlimit:10;stroke-dasharray:none;stroke-opacity:1"
           id="path60" /></g></g><path
       d="m 94.243674,163.84205 v -2.0136"
       style="fill:#000000;fill-opacity:1;fill-rule:nonzero;stroke:#000000;stroke-width:0.460253;stroke-linecap:butt;stroke-linejoin:round;stroke-miterlimit:10;stroke-dasharray:none;stroke-opacity:1"
       id="path64" /><g
       id="g70"
       transform="matrix(0.57531569,0,0,0.57531569,8.9260016,141.97085)"><g
         id="g72"
         clip-path="url(#clipPath76)"><path
           d="M 193.64571,38.016 V 304.128"
           style="fill:none;stroke:#b0b0b0;stroke-width:0.8;stroke-linecap:square;stroke-linejoin:round;stroke-miterlimit:10;stroke-dasharray:none;stroke-opacity:1"
           id="path78" /></g></g><path
       d="m 120.33341,163.84205 v -2.0136"
       style="fill:#000000;fill-opacity:1;fill-rule:nonzero;stroke:#000000;stroke-width:0.460253;stroke-linecap:butt;stroke-linejoin:round;stroke-miterlimit:10;stroke-dasharray:none;stroke-opacity:1"
       id="path82" /><g
       id="g88"
       transform="matrix(0.57531569,0,0,0.57531569,8.9260016,141.97085)"><g
         id="g90"
         clip-path="url(#clipPath94)"><path
           d="M 238.99429,38.016 V 304.128"
           style="fill:none;stroke:#b0b0b0;stroke-width:0.8;stroke-linecap:square;stroke-linejoin:round;stroke-miterlimit:10;stroke-dasharray:none;stroke-opacity:1"
           id="path96" /></g></g><path
       d="m 146.42317,163.84205 v -2.0136"
       style="fill:#000000;fill-opacity:1;fill-rule:nonzero;stroke:#000000;stroke-width:0.460253;stroke-linecap:butt;stroke-linejoin:round;stroke-miterlimit:10;stroke-dasharray:none;stroke-opacity:1"
       id="path100" /><g
       id="g106"
       transform="matrix(0.57531569,0,0,0.57531569,8.9260016,141.97085)"><g
         id="g108"
         clip-path="url(#clipPath112)"><path
           d="M 284.34286,38.016 V 304.128"
           style="fill:none;stroke:#b0b0b0;stroke-width:0.8;stroke-linecap:square;stroke-linejoin:round;stroke-miterlimit:10;stroke-dasharray:none;stroke-opacity:1"
           id="path114" /></g></g><path
       d="m 172.51292,163.84205 v -2.0136"
       style="fill:#000000;fill-opacity:1;fill-rule:nonzero;stroke:#000000;stroke-width:0.460253;stroke-linecap:butt;stroke-linejoin:round;stroke-miterlimit:10;stroke-dasharray:none;stroke-opacity:1"
       id="path118" /><g
       id="g124"
       transform="matrix(0.57531569,0,0,0.57531569,8.9260016,141.97085)"><g
         id="g126"
         clip-path="url(#clipPath130)"><path
           d="M 329.69143,38.016 V 304.128"
           style="fill:none;stroke:#b0b0b0;stroke-width:0.8;stroke-linecap:square;stroke-linejoin:round;stroke-miterlimit:10;stroke-dasharray:none;stroke-opacity:1"
           id="path132" /></g></g><path
       d="m 198.60266,163.84205 v -2.0136"
       style="fill:#000000;fill-opacity:1;fill-rule:nonzero;stroke:#000000;stroke-width:0.460253;stroke-linecap:butt;stroke-linejoin:round;stroke-miterlimit:10;stroke-dasharray:none;stroke-opacity:1"
       id="path136" /><g
       id="g142"
       transform="matrix(0.57531569,0,0,0.57531569,8.9260016,141.97085)"><g
         id="g144"
         clip-path="url(#clipPath148)"><path
           d="M 375.04,38.016 V 304.128"
           style="fill:none;stroke:#b0b0b0;stroke-width:0.8;stroke-linecap:square;stroke-linejoin:round;stroke-miterlimit:10;stroke-dasharray:none;stroke-opacity:1"
           id="path150" /></g></g><path
       d="m 224.6924,163.84205 v -2.0136"
       style="fill:#000000;fill-opacity:1;fill-rule:nonzero;stroke:#000000;stroke-width:0.460253;stroke-linecap:butt;stroke-linejoin:round;stroke-miterlimit:10;stroke-dasharray:none;stroke-opacity:1"
       id="path154" /><g
       id="g164"
       transform="matrix(0.57531569,0,0,0.57531569,8.9260016,141.97085)"><g
         id="g166"
         clip-path="url(#clipPath170)"><path
           d="M 57.6,38.016 H 414.72"
           style="fill:none;stroke:#b0b0b0;stroke-width:0.8;stroke-linecap:square;stroke-linejoin:round;stroke-miterlimit:10;stroke-dasharray:none;stroke-opacity:1"
           id="path172" /></g></g><path
       d="M 42.064185,163.84205 H 40.050581"
       style="fill:#000000;fill-opacity:1;fill-rule:nonzero;stroke:#000000;stroke-width:0.460253;stroke-linecap:butt;stroke-linejoin:round;stroke-miterlimit:10;stroke-dasharray:none;stroke-opacity:1"
       id="path176" /><g
       id="g182"
       transform="matrix(0.57531569,0,0,0.57531569,8.9260016,141.97085)"><g
         id="g184"
         clip-path="url(#clipPath188)"><path
           d="M 57.6,91.2384 H 414.72"
           style="fill:none;stroke:#b0b0b0;stroke-width:0.8;stroke-linecap:square;stroke-linejoin:round;stroke-miterlimit:10;stroke-dasharray:none;stroke-opacity:1"
           id="path190" /></g></g><path
       d="M 42.064185,194.46173 H 40.050581"
       style="fill:#000000;fill-opacity:1;fill-rule:nonzero;stroke:#000000;stroke-width:0.460253;stroke-linecap:butt;stroke-linejoin:round;stroke-miterlimit:10;stroke-dasharray:none;stroke-opacity:1"
       id="path194" /><g
       id="g200"
       transform="matrix(0.57531569,0,0,0.57531569,8.9260016,141.97085)"><g
         id="g202"
         clip-path="url(#clipPath206)"><path
           d="M 57.6,144.4608 H 414.72"
           style="fill:none;stroke:#b0b0b0;stroke-width:0.8;stroke-linecap:square;stroke-linejoin:round;stroke-miterlimit:10;stroke-dasharray:none;stroke-opacity:1"
           id="path208" /></g></g><path
       d="M 42.064185,225.08141 H 40.050581"
       style="fill:#000000;fill-opacity:1;fill-rule:nonzero;stroke:#000000;stroke-width:0.460253;stroke-linecap:butt;stroke-linejoin:round;stroke-miterlimit:10;stroke-dasharray:none;stroke-opacity:1"
       id="path212" /><g
       id="g218"
       transform="matrix(0.57531569,0,0,0.57531569,8.9260016,141.97085)"><g
         id="g220"
         clip-path="url(#clipPath224)"><path
           d="M 57.6,197.6832 H 414.72"
           style="fill:none;stroke:#b0b0b0;stroke-width:0.8;stroke-linecap:square;stroke-linejoin:round;stroke-miterlimit:10;stroke-dasharray:none;stroke-opacity:1"
           id="path226" /></g></g><path
       d="M 42.064185,255.7011 H 40.050581"
       style="fill:#000000;fill-opacity:1;fill-rule:nonzero;stroke:#000000;stroke-width:0.460253;stroke-linecap:butt;stroke-linejoin:round;stroke-miterlimit:10;stroke-dasharray:none;stroke-opacity:1"
       id="path230" /><g
       id="g236"
       transform="matrix(0.57531569,0,0,0.57531569,8.9260016,141.97085)"><g
         id="g238"
         clip-path="url(#clipPath242)"><path
           d="M 57.6,250.9056 H 414.72"
           style="fill:none;stroke:#b0b0b0;stroke-width:0.8;stroke-linecap:square;stroke-linejoin:round;stroke-miterlimit:10;stroke-dasharray:none;stroke-opacity:1"
           id="path244" /></g></g><path
       d="M 42.064185,286.32078 H 40.050581"
       style="fill:#000000;fill-opacity:1;fill-rule:nonzero;stroke:#000000;stroke-width:0.460253;stroke-linecap:butt;stroke-linejoin:round;stroke-miterlimit:10;stroke-dasharray:none;stroke-opacity:1"
       id="path248" /><g
       id="g254"
       transform="matrix(0.57531569,0,0,0.57531569,8.9260016,141.97085)"><g
         id="g256"
         clip-path="url(#clipPath260)"><path
           d="M 57.6,304.128 H 414.72"
           style="fill:none;stroke:#b0b0b0;stroke-width:0.8;stroke-linecap:square;stroke-linejoin:round;stroke-miterlimit:10;stroke-dasharray:none;stroke-opacity:1"
           id="path262" /></g></g><path
       d="M 42.064185,316.94046 H 40.050581"
       style="fill:#000000;fill-opacity:1;fill-rule:nonzero;stroke:#000000;stroke-width:0.460253;stroke-linecap:butt;stroke-linejoin:round;stroke-miterlimit:10;stroke-dasharray:none;stroke-opacity:1"
       id="path266" /><g
       id="g278"
       clip-path="url(#clipPath282)"
       transform="matrix(0.57531569,0,0,0.57531569,8.9260016,141.97085)"><path
         d="m 57.6,263.12179 5.668571,3.07277 5.668572,-7.48087 5.668571,-2.14661 5.668572,-4.27285 5.668571,-8.3525 5.668572,1.33824 5.668571,-8.38195 5.66857,-5.19281 5.66857,3.34497 5.66857,-7.06533 5.66858,1.58826 5.66857,-0.47793 5.66857,-0.36678 5.66857,-3.73142 5.66857,-2.30621 5.66857,-7.71871 5.66857,-4.71883 5.66858,-6.35117 5.66857,5.31502 5.66857,2.47094 5.66857,8.7821 5.66857,-0.826 5.66857,-0.40599 5.66857,-5.34551 5.66858,-6.8285 5.66857,-7.0414 5.66857,-1.11259 5.66857,3.23592 5.66857,5.89023 5.66857,-3.44407 5.66857,-0.82554 5.66858,-3.75947 5.66857,0.28511 5.66857,-2.56349 5.66857,-0.26555 5.66857,-4.85948 5.66857,-0.49987 5.66857,-3.59295 5.66858,-0.45643 5.66857,-2.81764 5.66857,-2.43764 5.66857,-7.6932 5.66857,-4.85569 5.66857,-14.24384 5.66857,2.35755 5.66858,-2.13382 5.66857,0.40578 5.66857,-4.87075 5.66857,4.80906 5.66857,1.05729 5.66857,-1.96726 5.66857,-0.0209 5.66858,3.02788 5.66857,0.75452 5.66857,6.23519 5.66857,1.38792 5.66857,2.21922 5.66857,-5.15174 5.66857,5.97162 5.66858,4.28307 5.66857,-0.14691 5.66857,-3.63632 5.66857,-30.21006"
         style="fill:none;stroke:#1f77b4;stroke-width:1.5;stroke-linecap:square;stroke-linejoin:round;stroke-miterlimit:10;stroke-dasharray:none;stroke-opacity:1"
         id="path284" /></g><g
       id="g288"
       clip-path="url(#clipPath292)"
       transform="matrix(0.57531569,0,0,0.57531569,8.9260016,141.97085)"><path
         d="m 57.6,258.10713 5.668571,1.74334 5.668572,-4.04877 5.668571,-2.19601 5.668572,-3.45422 5.668571,-8.5364 5.668572,1.05403 5.668571,-7.46251 5.66857,-3.82633 5.66857,3.69649 5.66857,-7.50936 5.66858,1.59233 5.66857,-0.44907 5.66857,-1.9135 5.66857,-3.82622 5.66857,-2.72235 5.66857,-5.32442 5.66857,-5.89907 5.66858,-5.63888 5.66857,4.51032 5.66857,3.6635 5.66857,8.36844 5.66857,-0.0749 5.66857,0.46701 5.66857,-4.59389 5.66858,-6.81712 5.66857,-4.31029 5.66857,-1.02338 5.66857,3.96428 5.66857,4.51557 5.66857,-1.15063 5.66857,-1.55292 5.66858,-2.70704 5.66857,-1.48744 5.66857,-0.52429 5.66857,-2.59937 5.66857,-3.08193 5.66857,-2.68666 5.66857,-3.39035 5.66858,0.80949 5.66857,-1.24666 5.66857,-5.06747 5.66857,-5.47987 5.66857,-6.17766 5.66857,-12.7953 5.66857,1.65434 5.66858,-2.89956 5.66857,-0.45057 5.66857,-3.57355 5.66857,2.03571 5.66857,1.82195 5.66857,-3.95763 5.66857,0.70344 5.66858,2.08549 5.66857,2.48773 5.66857,3.42604 5.66857,1.67338 5.66857,-0.15022 5.66857,-1.76876 5.66857,2.33181 5.66858,1.14699 5.66857,-4.22549 5.66857,3.62438 5.66857,-19.92864"
         style="fill:none;stroke:#ff7f0e;stroke-width:1.5;stroke-linecap:square;stroke-linejoin:round;stroke-miterlimit:10;stroke-dasharray:none;stroke-opacity:1"
         id="path294" /></g><g
       id="g298"
       clip-path="url(#clipPath302)"
       transform="matrix(0.57531569,0,0,0.57531569,8.9260016,141.97085)"><path
         d="m 57.6,260.31622 5.668571,-0.25289 5.668572,-6.3178 5.668571,-4.14723 5.668572,-3.13273 5.668571,-7.31736 5.668572,0.44482 5.668571,-7.47818 5.66857,-3.66396 5.66857,3.62067 5.66857,-7.75705 5.66858,1.36046 5.66857,-0.88392 5.66857,-2.50329 5.66857,-4.13424 5.66857,-3.0523 5.66857,-4.73074 5.66857,-5.904 5.66858,-4.0321 5.66857,4.40314 5.66857,4.54104 5.66857,8.58638 5.66857,0.68877 5.66857,0.19657 5.66857,-2.67913 5.66858,-7.83607 5.66857,-4.64464 5.66857,-1.17174 5.66857,5.43204 5.66857,4.56545 5.66857,-0.62335 5.66857,-0.87036 5.66858,-2.67236 5.66857,-0.44637 5.66857,-0.32225 5.66857,-2.32626 5.66857,-2.4672 5.66857,-2.59131 5.66857,-2.759 5.66858,0.43778 5.66857,-0.70842 5.66857,-4.31435 5.66857,-5.44013 5.66857,-6.14685 5.66857,-12.5734 5.66857,1.07118 5.66858,-0.78933 5.66857,-0.0801 5.66857,-4.2006 5.66857,2.44236 5.66857,3.51348 5.66857,-4.02779 5.66857,1.3072 5.66858,1.30716 5.66857,1.29805 5.66857,0.82159 5.66857,1.12825 5.66857,0.1236 5.66857,-3.39581 5.66857,3.80469 5.66858,-1.83833 5.66857,-0.11665 5.66857,-0.0434 5.66857,-12.1576"
         style="fill:none;stroke:#2ca02c;stroke-width:1.5;stroke-linecap:square;stroke-linejoin:round;stroke-miterlimit:10;stroke-dasharray:none;stroke-opacity:1"
         id="path304" /></g><g
       id="g308"
       clip-path="url(#clipPath312)"
       transform="matrix(0.57531569,0,0,0.57531569,8.9260016,141.97085)"
       style="stroke:#8c564b;stroke-opacity:1"><path
         d="m 57.6,259.80307 5.668571,0.96257 5.668572,-5.20767 5.668571,-4.43034 5.668572,-3.97164 5.668571,-7.10607 5.668572,-0.47957 5.668571,-6.86869 5.66857,-3.04576 5.66857,4.05824 5.66857,-7.90243 5.66858,1.41269 5.66857,-0.90925 5.66857,-2.82009 5.66857,-3.81798 5.66857,-2.66811 5.66857,-4.61562 5.66857,-5.13128 5.66858,-4.04244 5.66857,4.37489 5.66857,4.35196 5.66857,8.24764 5.66857,0.0598 5.66857,-0.43831 5.66857,-2.46945 5.66858,-7.34334 5.66857,-3.74782 5.66857,-1.12912 5.66857,5.44485 5.66857,4.53126 5.66857,0.32515 5.66857,-0.60359 5.66858,-2.1391 5.66857,-0.18866 5.66857,0.72217 5.66857,-1.51082 5.66857,-1.66108 5.66857,-2.82633 5.66857,-2.09214 5.66858,0.53899 5.66857,-1.70953 5.66857,-4.38787 5.66857,-5.63239 5.66857,-5.71811 5.66857,-13.18746 5.66857,-0.42688 5.66858,-2.11434 5.66857,-0.69025 5.66857,-5.88063 5.66857,3.1608 5.66857,2.64763 5.66857,-4.20003 5.66857,2.49342 5.66858,3.26984 5.66857,1.98647 5.66857,1.61492 5.66857,3.83363 5.66857,-0.0832 5.66857,-3.69135 5.66857,3.71478 5.66858,-3.44114 5.66857,-1.9667 5.66857,-2.23151 5.66857,-12.68224"
         style="fill:none;stroke:#8c564b;stroke-width:1.5;stroke-linecap:square;stroke-linejoin:round;stroke-miterlimit:10;stroke-dasharray:none;stroke-opacity:1"
         id="path314" /></g><g
       id="g318"
       clip-path="url(#clipPath322)"
       transform="matrix(0.57531569,0,0,0.57531569,8.9260016,141.97085)"><path
         d="m 57.6,260.92678 5.668571,1.78938 5.668572,-6.24298 5.668571,-4.24038 5.668572,-3.36975 5.668571,-6.9536 5.668572,-0.64671 5.668571,-6.32549 5.66857,-3.38891 5.66857,3.43175 5.66857,-8.05214 5.66858,0.7929 5.66857,-1.52447 5.66857,-3.20563 5.66857,-3.68147 5.66857,-2.95025 5.66857,-4.51243 5.66857,-5.62038 5.66858,-4.0958 5.66857,4.55852 5.66857,4.74158 5.66857,9.36443 5.66857,0.62886 5.66857,0.11114 5.66857,-2.94131 5.66858,-7.18261 5.66857,-3.76402 5.66857,-0.47342 5.66857,5.50074 5.66857,4.14609 5.66857,1.81143 5.66857,-0.61377 5.66858,-2.07643 5.66857,-0.27163 5.66857,0.61814 5.66857,-1.92223 5.66857,-2.43572 5.66857,-3.15725 5.66857,-2.12619 5.66858,-0.24703 5.66857,-0.65194 5.66857,-4.20804 5.66857,-5.142 5.66857,-5.77478 5.66857,-13.1022 5.66857,0.23359 5.66858,-2.40915 5.66857,-0.99228 5.66857,-5.03974 5.66857,2.51855 5.66857,2.82838 5.66857,-3.77153 5.66857,2.19313 5.66858,2.53082 5.66857,2.13131 5.66857,2.47998 5.66857,4.92433 5.66857,-3.27967 5.66857,-4.33614 5.66857,2.17341 5.66858,-4.64205 5.66857,-3.14302 5.66857,-4.39375 5.66857,-11.44889"
         style="fill:none;stroke:#9467bd;stroke-width:1.5;stroke-linecap:square;stroke-linejoin:round;stroke-miterlimit:10;stroke-dasharray:none;stroke-opacity:1"
         id="path324" /></g><path
       d="M 42.064185,163.84205 V 316.94046"
       style="fill:none;stroke:#000000;stroke-width:0.460253;stroke-linecap:square;stroke-linejoin:miter;stroke-miterlimit:10;stroke-dasharray:none;stroke-opacity:1"
       id="path338" /><path
       d="M 247.52093,163.84205 V 316.94046"
       style="fill:none;stroke:#000000;stroke-width:0.460253;stroke-linecap:square;stroke-linejoin:miter;stroke-miterlimit:10;stroke-dasharray:none;stroke-opacity:1"
       id="path340" /><path
       d="M 42.064185,163.84205 H 247.52093"
       style="fill:none;stroke:#000000;stroke-width:0.460253;stroke-linecap:square;stroke-linejoin:miter;stroke-miterlimit:10;stroke-dasharray:none;stroke-opacity:1"
       id="path342" /><path
       d="M 42.064185,316.94046 H 247.52093"
       style="fill:none;stroke:#000000;stroke-width:0.460253;stroke-linecap:square;stroke-linejoin:miter;stroke-miterlimit:10;stroke-dasharray:none;stroke-opacity:1"
       id="path344" /><path
       d="m 53.739088,215.39921 h 11.50632"
       style="fill:none;stroke:#1f77b4;stroke-width:0.862973;stroke-linecap:square;stroke-linejoin:round;stroke-miterlimit:10;stroke-dasharray:none;stroke-opacity:1"
       id="path354" /><path
       d="m 53.739088,206.95826 h 11.50632"
       style="fill:none;stroke:#ff7f0e;stroke-width:0.862973;stroke-linecap:square;stroke-linejoin:round;stroke-miterlimit:10;stroke-dasharray:none;stroke-opacity:1"
       id="path360" /><path
       d="m 53.739088,198.51729 h 11.50632"
       style="fill:none;stroke:#2ca02c;stroke-width:0.862973;stroke-linecap:square;stroke-linejoin:round;stroke-miterlimit:10;stroke-dasharray:none;stroke-opacity:1"
       id="path366" /><path
       d="m 53.739088,190.07634 h 11.50632"
       style="fill:none;stroke:#8c564b;stroke-width:0.862973;stroke-linecap:square;stroke-linejoin:round;stroke-miterlimit:10;stroke-dasharray:none;stroke-opacity:1"
       id="path372" /><path
       d="m 53.739088,181.63538 h 11.50632"
       style="fill:none;stroke:#9467bd;stroke-width:0.862973;stroke-linecap:square;stroke-linejoin:round;stroke-miterlimit:10;stroke-dasharray:none;stroke-opacity:1"
       id="path378" /><path
       d="m 53.739088,173.19442 h 11.50632"
       style="fill:none;stroke:#d62728;stroke-width:0.862973;stroke-linecap:square;stroke-linejoin:round;stroke-miterlimit:10;stroke-dasharray:none;stroke-opacity:1"
       id="path384" /></g><g
     inkscape:groupmode="layer"
     id="layer1"
     inkscape:label="text"
     transform="translate(-28.023958,-17.206424)"
     style="display:inline"><text
       style="font-variant:normal;font-weight:normal;font-size:7.67088px;font-family:'DejaVu Sans';-inkscape-font-specification:DejaVuSans;writing-mode:lr-tb;fill:#000000;fill-opacity:1;fill-rule:nonzero;stroke:none;stroke-width:0.767088"
       id="text32"
       x="53.984837"
       y="253.53864"><tspan
         x="53.984837 58.863514 61.302853"
         y="253.53864"
         sodipodi:role="line"
         id="tspan30"
         style="stroke-width:0.767088">0.0</tspan></text><text
       style="font-variant:normal;font-weight:normal;font-size:7.67088px;font-family:'DejaVu Sans';-inkscape-font-specification:DejaVuSans;writing-mode:lr-tb;fill:#000000;fill-opacity:1;fill-rule:nonzero;stroke:none;stroke-width:0.767088"
       id="text50"
       x="84.771164"
       y="253.53864"><tspan
         x="84.771164 89.649849 92.089188"
         y="253.53864"
         sodipodi:role="line"
         id="tspan48"
         style="stroke-width:0.767088">0.2</tspan></text><text
       style="font-variant:normal;font-weight:normal;font-size:7.67088px;font-family:'DejaVu Sans';-inkscape-font-specification:DejaVuSans;writing-mode:lr-tb;fill:#000000;fill-opacity:1;fill-rule:nonzero;stroke:none;stroke-width:0.767088"
       id="text68"
       x="119.5575"
       y="253.53864"><tspan
         x="119.5575 124.43616 126.8755"
         y="253.53864"
         sodipodi:role="line"
         id="tspan66"
         style="stroke-width:0.767088">0.4</tspan></text><text
       style="font-variant:normal;font-weight:normal;font-size:7.67088px;font-family:'DejaVu Sans';-inkscape-font-specification:DejaVuSans;writing-mode:lr-tb;fill:#000000;fill-opacity:1;fill-rule:nonzero;stroke:none;stroke-width:0.767088"
       id="text86"
       x="154.34381"
       y="253.53864"><tspan
         x="154.34381 159.22249 161.66183"
         y="253.53864"
         sodipodi:role="line"
         id="tspan84"
         style="stroke-width:0.767088">0.6</tspan></text><text
       style="font-variant:normal;font-weight:normal;font-size:7.67088px;font-family:'DejaVu Sans';-inkscape-font-specification:DejaVuSans;writing-mode:lr-tb;fill:#000000;fill-opacity:1;fill-rule:nonzero;stroke:none;stroke-width:0.767088"
       id="text104"
       x="189.13014"
       y="253.53864"><tspan
         x="189.13014 194.00882 196.44815"
         y="253.53864"
         sodipodi:role="line"
         id="tspan102"
         style="stroke-width:0.767088">0.8</tspan></text><text
       style="font-variant:normal;font-weight:normal;font-size:7.67088px;font-family:'DejaVu Sans';-inkscape-font-specification:DejaVuSans;writing-mode:lr-tb;fill:#000000;fill-opacity:1;fill-rule:nonzero;stroke:none;stroke-width:0.767088"
       id="text122"
       x="223.91646"
       y="253.53864"><tspan
         x="223.91646 228.79514 231.23447"
         y="253.53864"
         sodipodi:role="line"
         id="tspan120"
         style="stroke-width:0.767088">1.0</tspan></text><text
       style="font-variant:normal;font-weight:normal;font-size:7.67088px;font-family:'DejaVu Sans';-inkscape-font-specification:DejaVuSans;writing-mode:lr-tb;fill:#000000;fill-opacity:1;fill-rule:nonzero;stroke:none;stroke-width:0.767088"
       id="text140"
       x="258.70282"
       y="253.53864"><tspan
         x="258.70282 263.58145 266.02081"
         y="253.53864"
         sodipodi:role="line"
         id="tspan138"
         style="stroke-width:0.767088">1.2</tspan></text><text
       style="font-variant:normal;font-weight:normal;font-size:7.67088px;font-family:'DejaVu Sans';-inkscape-font-specification:DejaVuSans;writing-mode:lr-tb;fill:#000000;fill-opacity:1;fill-rule:nonzero;stroke:none;stroke-width:0.767088"
       id="text158"
       x="293.48911"
       y="253.53864"><tspan
         x="293.48911 298.3678 300.80713"
         y="253.53864"
         sodipodi:role="line"
         id="tspan156"
         style="stroke-width:0.767088">1.4</tspan></text><text
       style="font-variant:normal;font-weight:normal;font-size:7.67088px;font-family:'DejaVu Sans';-inkscape-font-specification:DejaVuSans;writing-mode:lr-tb;fill:#000000;fill-opacity:1;fill-rule:nonzero;stroke:none;stroke-width:0.767088"
       id="text162"
       x="146.62997"
       y="264.02618"><tspan
         x="146.62997 152.57489 157.29248 162.15581 166.85039 174.32182 176.45433 180.67329 183.11266 187.98364 190.11615 194.11269 197.11967 201.82191 206.68524 210.90424 215.62183 218.06116 220.64622 223.08557 229.70555 234.57655"
         y="264.02618"
         sodipodi:role="line"
         id="tspan160"
         style="stroke-width:0.767088">Genomic distance / Mbp</tspan></text><text
       style="font-variant:normal;font-weight:normal;font-size:7.67088px;font-family:'DejaVu Sans';-inkscape-font-specification:DejaVuSans;writing-mode:lr-tb;fill:#000000;fill-opacity:1;fill-rule:nonzero;stroke:none;stroke-width:0.767088"
       id="text180"
       x="38.514481"
       y="245.25648"><tspan
         x="38.514481 43.393154 45.832493"
         y="245.25648"
         sodipodi:role="line"
         id="tspan178"
         style="stroke-width:0.767088">0.0</tspan></text><text
       style="font-variant:normal;font-weight:normal;font-size:7.67088px;font-family:'DejaVu Sans';-inkscape-font-specification:DejaVuSans;writing-mode:lr-tb;fill:#000000;fill-opacity:1;fill-rule:nonzero;stroke:none;stroke-width:0.767088"
       id="text198"
       x="38.514481"
       y="204.43024"><tspan
         x="38.514481 43.393154 45.832493"
         y="204.43024"
         sodipodi:role="line"
         id="tspan196"
         style="stroke-width:0.767088">0.2</tspan></text><text
       style="font-variant:normal;font-weight:normal;font-size:7.67088px;font-family:'DejaVu Sans';-inkscape-font-specification:DejaVuSans;writing-mode:lr-tb;fill:#000000;fill-opacity:1;fill-rule:nonzero;stroke:none;stroke-width:0.767088"
       id="text216"
       x="38.514481"
       y="163.60399"><tspan
         x="38.514481 43.393154 45.832493"
         y="163.60399"
         sodipodi:role="line"
         id="tspan214"
         style="stroke-width:0.767088">0.4</tspan></text><text
       style="font-variant:normal;font-weight:normal;font-size:7.67088px;font-family:'DejaVu Sans';-inkscape-font-specification:DejaVuSans;writing-mode:lr-tb;fill:#000000;fill-opacity:1;fill-rule:nonzero;stroke:none;stroke-width:0.767088"
       id="text234"
       x="38.514481"
       y="122.7775"><tspan
         x="38.514481 43.393154 45.832493"
         y="122.7775"
         sodipodi:role="line"
         id="tspan232"
         style="stroke-width:0.767088">0.6</tspan></text><text
       style="font-variant:normal;font-weight:normal;font-size:7.67088px;font-family:'DejaVu Sans';-inkscape-font-specification:DejaVuSans;writing-mode:lr-tb;fill:#000000;fill-opacity:1;fill-rule:nonzero;stroke:none;stroke-width:0.767088"
       id="text252"
       x="38.514481"
       y="81.95134"><tspan
         x="38.514481 43.393154 45.832493"
         y="81.95134"
         sodipodi:role="line"
         id="tspan250"
         style="stroke-width:0.767088">0.8</tspan></text><text
       style="font-variant:normal;font-weight:normal;font-size:7.67088px;font-family:'DejaVu Sans';-inkscape-font-specification:DejaVuSans;writing-mode:lr-tb;fill:#000000;fill-opacity:1;fill-rule:nonzero;stroke:none;stroke-width:0.767088"
       id="text270"
       x="38.514481"
       y="41.125111"><tspan
         x="38.514481 43.393154 45.832493"
         y="41.125111"
         sodipodi:role="line"
         id="tspan268"
         style="stroke-width:0.767088">1.0</tspan></text><text
       transform="rotate(-90)"
       style="font-variant:normal;font-weight:normal;font-size:7.67088px;font-family:'DejaVu Sans';-inkscape-font-specification:DejaVuSans;writing-mode:lr-tb;fill:#000000;fill-opacity:1;fill-rule:nonzero;stroke:none;stroke-width:0.767088"
       id="text274"
       x="-177.33826"
       y="33.852028"><tspan
         x="-177.33826 -172.71272 -167.99513 -163.29288 -160.14015 -156.14363 -151.44904 -146.58571 -144.14639 -139.9274 -135.23282 -132.08009 -128.92735 -124.20953 -122.07702 -117.37478 -114.36785 -112.23534 -107.54076"
         y="33.852028"
         sodipodi:role="line"
         id="tspan272"
         style="stroke-width:0.767088">Pearson correlation</tspan></text><text
       style="font-variant:normal;font-weight:normal;font-size:9.20505px;font-family:'DejaVu Sans';-inkscape-font-specification:DejaVuSans;writing-mode:lr-tb;fill:#000000;fill-opacity:1;fill-rule:nonzero;stroke:none;stroke-width:0.767088"
       id="text348"
       x="98.327408"
       y="23.292755"><tspan
         x="98.327408 103.87806 109.53915 115.18187 118.96513 123.76096 129.39447 135.23047 138.15767 143.22044 148.85394 152.63722 156.42049 162.08159 164.64061 170.28329 173.89166 176.45068 182.08418 187.92017 190.84738 196.29678 201.09261 204.01981 206.94702 212.79222 218.45334 224.28932 229.92284 238.88853 241.44754 246.51033 249.43755 255.28275 257.84174 262.63754 266.24594 271.88864 277.72464 282.78745"
         y="23.292755"
         sodipodi:role="line"
         id="tspan346"
         style="stroke-width:0.767088">Pearson correlation vs. genomic distance</tspan></text><text
       style="font-variant:normal;font-weight:normal;font-size:9.20505px;font-family:'DejaVu Sans';-inkscape-font-specification:DejaVuSans;writing-mode:lr-tb;fill:#000000;fill-opacity:1;fill-rule:nonzero;stroke:none;stroke-width:0.767088"
       id="text352"
       x="61.060429"
       y="33.610046"><tspan
         x="61.060429 68.194351 76.138306 81.992722 87.847122 93.70153 99.555946 105.41035 108.33757 111.26477 117.11919 120.0464 125.90081 128.82802 134.68242 137.60963 143.46405 146.39125 152.24567 155.17288 161.0273 166.8817 169.80891 175.66331 181.51772 184.44493 190.29933 196.15375 199.08095 204.93536 210.78978 213.717 219.5714 225.42583 228.35303 234.20744 240.06186 242.98906 248.84348 254.69789 257.62509 263.47952 269.33392 272.26111 277.89462 283.73062 286.65784 292.69632 298.55075 304.40515 310.25958 313.1868 316.11398 321.96838"
         y="33.610046"
         sodipodi:role="line"
         id="tspan350"
         style="stroke-width:0.767088">GM12878, 1,2,4,7,9,11,13,14,16,17,18,20,22 on K562, 21</tspan></text><text
       style="font-variant:normal;font-weight:normal;font-size:7.67088px;font-family:'DejaVu Sans';-inkscape-font-specification:DejaVuSans;writing-mode:lr-tb;fill:#000000;fill-opacity:1;fill-rule:nonzero;stroke:none;stroke-width:0.767088"
       id="text358"
       x="93.130623"
       y="176.28574"><tspan
         x="93.130623 98.009293 102.88798 105.32729 110.04488 114.91589 117.35522 119.94029 122.37965 127.62655 133.24162 138.59587 141.18095 143.62032 148.49899 150.93832 155.81699 160.69568"
         y="176.28574"
         sodipodi:role="line"
         id="tspan356"
         style="stroke-width:0.767088">20 ep / AUC: 0.602</tspan></text><text
       style="font-variant:normal;font-weight:normal;font-size:7.67088px;font-family:'DejaVu Sans';-inkscape-font-specification:DejaVuSans;writing-mode:lr-tb;fill:#000000;fill-opacity:1;fill-rule:nonzero;stroke:none;stroke-width:0.767088"
       id="text364"
       x="93.130623"
       y="187.54034"><tspan
         x="93.130623 98.009293 102.88798 105.32729 110.04488 114.91589 117.35522 119.94029 122.37965 127.62655 133.24162 138.59587 141.18095 143.62032 148.49899 150.93832 155.81699 160.69568"
         y="187.54034"
         sodipodi:role="line"
         id="tspan362"
         style="stroke-width:0.767088">40 ep / AUC: 0.608</tspan></text><text
       style="font-variant:normal;font-weight:normal;font-size:7.67088px;font-family:'DejaVu Sans';-inkscape-font-specification:DejaVuSans;writing-mode:lr-tb;fill:#000000;fill-opacity:1;fill-rule:nonzero;stroke:none;stroke-width:0.767088"
       id="text370"
       x="93.130623"
       y="198.79495"><tspan
         x="93.130623 98.009293 102.88798 105.32729 110.04488 114.91589 117.35522 119.94029 122.37965 127.62655 133.24162 138.59587 141.18095 143.62032 148.49899 150.93832 155.81699 160.69568"
         y="198.79495"
         sodipodi:role="line"
         id="tspan368"
         style="stroke-width:0.767088">60 ep / AUC: 0.614</tspan></text><text
       style="font-variant:normal;font-weight:normal;font-size:7.67088px;font-family:'DejaVu Sans';-inkscape-font-specification:DejaVuSans;writing-mode:lr-tb;fill:#000000;fill-opacity:1;fill-rule:nonzero;stroke:none;stroke-width:0.767088"
       id="text376"
       x="93.130623"
       y="210.04956"><tspan
         x="93.130623 98.009293 102.88798 105.32729 110.04488 114.91589 117.35522 119.94029 122.37965 127.62655 133.24162 138.59587 141.18095 143.62032 148.49899 150.93832 155.81699 160.69568"
         y="210.04956"
         sodipodi:role="line"
         id="tspan374"
         style="stroke-width:0.767088">80 ep / AUC: 0.627</tspan></text><text
       style="font-variant:normal;font-weight:normal;font-size:7.67088px;font-family:'DejaVu Sans';-inkscape-font-specification:DejaVuSans;writing-mode:lr-tb;fill:#000000;fill-opacity:1;fill-rule:nonzero;stroke:none;stroke-width:0.767088"
       id="text382"
       x="93.130623"
       y="221.30417"><tspan
         x="93.130623 98.009293 102.88798 107.76663 110.20596 114.92357 119.79456 122.2339 124.81899 127.25833 132.50519 138.1203 143.47456 146.05965 148.49899 153.37766 155.81699 160.69568 165.57437"
         y="221.30417"
         sodipodi:role="line"
         id="tspan380"
         style="stroke-width:0.767088">100 ep / AUC: 0.632</tspan></text><text
       style="font-variant:normal;font-weight:normal;font-size:7.67088px;font-family:'DejaVu Sans';-inkscape-font-specification:DejaVuSans;writing-mode:lr-tb;fill:#000000;fill-opacity:1;fill-rule:nonzero;stroke:none;stroke-width:0.767088"
       id="text388"
       x="93.130623"
       y="232.55872"><tspan
         x="93.130623 96.137589 99.290306 103.99255 108.85591 112.85242 115.55257 120.27017 123.42288 125.86221 131.80716 138.42711 143.3058 148.18448 153.06317 157.94183 162.82053 165.25986 167.84491 170.28427 175.53113 181.14621 186.50052 189.08557 191.52493 196.40359 198.84293 203.72162 208.60028"
         y="232.55872"
         sodipodi:role="line"
         id="tspan386"
         style="stroke-width:0.767088">transfer GM12878 / AUC: 0.864</tspan></text></g></svg>
