<?xml version="1.0" encoding="UTF-8" standalone="no"?>
<svg
   xmlns:dc="http://purl.org/dc/elements/1.1/"
   xmlns:cc="http://creativecommons.org/ns#"
   xmlns:rdf="http://www.w3.org/1999/02/22-rdf-syntax-ns#"
   xmlns:svg="http://www.w3.org/2000/svg"
   xmlns="http://www.w3.org/2000/svg"
   xmlns:sodipodi="http://sodipodi.sourceforge.net/DTD/sodipodi-0.dtd"
   xmlns:inkscape="http://www.inkscape.org/namespaces/inkscape"
   version="1.1"
   id="svg2"
   xml:space="preserve"
   width="80mm"
   height="65.300003mm"
   viewBox="0 0 302.36219 246.80316"
   sodipodi:docname="pearson_chr3L.svg"
   inkscape:version="1.0.2 (1.0.2+r75+1)"><metadata
     id="metadata8"><rdf:RDF><cc:Work
         rdf:about=""><dc:format>image/svg+xml</dc:format><dc:type
           rdf:resource="http://purl.org/dc/dcmitype/StillImage" /><dc:title></dc:title></cc:Work></rdf:RDF></metadata><defs
     id="defs6"><clipPath
       clipPathUnits="userSpaceOnUse"
       id="clipPath22"><path
         d="M 57.6,38.016 H 414.72 V 304.128 H 57.6 Z"
         id="path20" /></clipPath><clipPath
       clipPathUnits="userSpaceOnUse"
       id="clipPath40"><path
         d="M 57.6,38.016 H 414.72 V 304.128 H 57.6 Z"
         id="path38" /></clipPath><clipPath
       clipPathUnits="userSpaceOnUse"
       id="clipPath58"><path
         d="M 57.6,38.016 H 414.72 V 304.128 H 57.6 Z"
         id="path56" /></clipPath><clipPath
       clipPathUnits="userSpaceOnUse"
       id="clipPath76"><path
         d="M 57.6,38.016 H 414.72 V 304.128 H 57.6 Z"
         id="path74" /></clipPath><clipPath
       clipPathUnits="userSpaceOnUse"
       id="clipPath94"><path
         d="M 57.6,38.016 H 414.72 V 304.128 H 57.6 Z"
         id="path92" /></clipPath><clipPath
       clipPathUnits="userSpaceOnUse"
       id="clipPath112"><path
         d="M 57.6,38.016 H 414.72 V 304.128 H 57.6 Z"
         id="path110" /></clipPath><clipPath
       clipPathUnits="userSpaceOnUse"
       id="clipPath130"><path
         d="M 57.6,38.016 H 414.72 V 304.128 H 57.6 Z"
         id="path128" /></clipPath><clipPath
       clipPathUnits="userSpaceOnUse"
       id="clipPath148"><path
         d="M 57.6,38.016 H 414.72 V 304.128 H 57.6 Z"
         id="path146" /></clipPath><clipPath
       clipPathUnits="userSpaceOnUse"
       id="clipPath170"><path
         d="M 57.6,38.016 H 414.72 V 304.128 H 57.6 Z"
         id="path168" /></clipPath><clipPath
       clipPathUnits="userSpaceOnUse"
       id="clipPath188"><path
         d="M 57.6,38.016 H 414.72 V 304.128 H 57.6 Z"
         id="path186" /></clipPath><clipPath
       clipPathUnits="userSpaceOnUse"
       id="clipPath206"><path
         d="M 57.6,38.016 H 414.72 V 304.128 H 57.6 Z"
         id="path204" /></clipPath><clipPath
       clipPathUnits="userSpaceOnUse"
       id="clipPath224"><path
         d="M 57.6,38.016 H 414.72 V 304.128 H 57.6 Z"
         id="path222" /></clipPath><clipPath
       clipPathUnits="userSpaceOnUse"
       id="clipPath242"><path
         d="M 57.6,38.016 H 414.72 V 304.128 H 57.6 Z"
         id="path240" /></clipPath><clipPath
       clipPathUnits="userSpaceOnUse"
       id="clipPath260"><path
         d="M 57.6,38.016 H 414.72 V 304.128 H 57.6 Z"
         id="path258" /></clipPath><clipPath
       clipPathUnits="userSpaceOnUse"
       id="clipPath282"><path
         d="M 57.6,38.016 H 414.72 V 304.128 H 57.6 Z"
         id="path280" /></clipPath><clipPath
       clipPathUnits="userSpaceOnUse"
       id="clipPath292"><path
         d="M 57.6,38.016 H 414.72 V 304.128 H 57.6 Z"
         id="path290" /></clipPath><clipPath
       clipPathUnits="userSpaceOnUse"
       id="clipPath302"><path
         d="M 57.6,38.016 H 414.72 V 304.128 H 57.6 Z"
         id="path300" /></clipPath><clipPath
       clipPathUnits="userSpaceOnUse"
       id="clipPath312"><path
         d="M 57.6,38.016 H 414.72 V 304.128 H 57.6 Z"
         id="path310" /></clipPath></defs><sodipodi:namedview
     pagecolor="#ffffff"
     bordercolor="#666666"
     borderopacity="1"
     objecttolerance="10"
     gridtolerance="10"
     guidetolerance="10"
     inkscape:pageopacity="0"
     inkscape:pageshadow="2"
     inkscape:window-width="1920"
     inkscape:window-height="1020"
     id="namedview4"
     showgrid="false"
     units="mm"
     fit-margin-top="0"
     fit-margin-left="0"
     fit-margin-right="0"
     fit-margin-bottom="0"
     inkscape:zoom="2.6301672"
     inkscape:cx="140.17872"
     inkscape:cy="140.49842"
     inkscape:window-x="0"
     inkscape:window-y="0"
     inkscape:window-maximized="1"
     inkscape:current-layer="layer1" /><g
     id="g10"
     inkscape:groupmode="layer"
     inkscape:label="pearson_chr3L"
     transform="matrix(1.3333333,0,0,-1.3333333,-28.023958,443.59357)"><g
       id="g308"
       clip-path="url(#clipPath312)"
       transform="matrix(0.57536564,0,0,0.57536564,8.9249517,141.98661)"><path
         d="m 57.6,126.7724 4.520506,16.92956 4.520507,2.9155 4.520506,-12.14878 4.520506,-8.56642 4.520507,-7.59732 4.520506,-2.34301 4.520506,-4.64812 4.520507,-3.15486 4.520506,0.37393 4.520503,-4.91425 4.52051,-4.565401 4.52051,-1.284117 4.5205,-3.937152 4.52051,-2.712382 4.52051,0.306096 4.5205,0.161014 4.52051,-1.767845 4.5205,-2.222939 4.52051,3.252779 4.52051,0.413038 4.5205,4.485322 4.52051,0.228493 4.52051,-0.752989 4.5205,-0.187983 4.52051,-1.18819 4.5205,4.176602 4.52051,1.02135 4.52051,-1.693105 4.5205,2.330877 4.52051,-0.262052 4.52051,1.416794 4.5205,-3.178774 4.52051,5.378734 4.5205,-4.135798 4.52051,-3.640641 4.52051,-3.836036 4.5205,-0.899423 4.52051,-0.703505 4.52051,4.512996 4.5205,-2.598151 4.52051,-1.498401 4.52051,-4.682191 4.5205,-1.475886 4.52051,8.579713 4.5205,-1.625182 4.52051,1.088393 4.52051,-0.115686 4.5205,0.08532 4.52051,-0.837797 4.52051,6.045175 4.5205,-5.443128 4.52051,4.028352 4.5205,1.202481 4.52051,-4.63492 4.52051,5.684738 4.5205,-3.739644 4.52051,-0.98818 4.52051,1.122162 4.5205,11.228919 4.52051,2.43186 4.52051,0.69171 4.5205,-4.69337 4.52051,4.28056 4.5205,-0.78911 4.52051,9.08601 4.52051,-7.28613 4.5205,-4.62314 4.52051,3.85969 4.52051,-2.05459 4.5205,-3.17131 4.52051,3.7204 4.52051,-5.17395 4.5205,-7.272878 4.52051,-0.647491 4.5205,-1.196132 4.52051,-3.204739 4.52051,1.863652 4.5205,-5.70424 4.52051,5.094555"
         style="fill:none;stroke:#d62728;stroke-width:1.5;stroke-linecap:square;stroke-linejoin:round;stroke-miterlimit:10;stroke-dasharray:none;stroke-opacity:1"
         id="path314" /></g><g
       id="g16"
       transform="matrix(0.57536564,0,0,0.57536564,8.9249517,141.98661)"><g
         id="g18"
         clip-path="url(#clipPath22)"><path
           d="M 57.6,38.016 V 304.128"
           style="fill:none;stroke:#b0b0b0;stroke-width:0.8;stroke-linecap:square;stroke-linejoin:round;stroke-miterlimit:10;stroke-dasharray:none;stroke-opacity:1"
           id="path24" /></g></g><path
       d="m 42.066013,163.85971 v -2.01378"
       style="fill:#000000;fill-opacity:1;fill-rule:nonzero;stroke:#000000;stroke-width:0.460293;stroke-linecap:butt;stroke-linejoin:round;stroke-miterlimit:10;stroke-dasharray:none;stroke-opacity:1"
       id="path28" /><g
       id="g34"
       transform="matrix(0.57536564,0,0,0.57536564,8.9249517,141.98661)"><g
         id="g36"
         clip-path="url(#clipPath40)"><path
           d="M 102.80506,38.016 V 304.128"
           style="fill:none;stroke:#b0b0b0;stroke-width:0.8;stroke-linecap:square;stroke-linejoin:round;stroke-miterlimit:10;stroke-dasharray:none;stroke-opacity:1"
           id="path42" /></g></g><path
       d="m 68.075451,163.85971 v -2.01378"
       style="fill:#000000;fill-opacity:1;fill-rule:nonzero;stroke:#000000;stroke-width:0.460293;stroke-linecap:butt;stroke-linejoin:round;stroke-miterlimit:10;stroke-dasharray:none;stroke-opacity:1"
       id="path46" /><g
       id="g52"
       transform="matrix(0.57536564,0,0,0.57536564,8.9249517,141.98661)"><g
         id="g54"
         clip-path="url(#clipPath58)"><path
           d="M 148.01013,38.016 V 304.128"
           style="fill:none;stroke:#b0b0b0;stroke-width:0.8;stroke-linecap:square;stroke-linejoin:round;stroke-miterlimit:10;stroke-dasharray:none;stroke-opacity:1"
           id="path60" /></g></g><path
       d="m 94.084895,163.85971 v -2.01378"
       style="fill:#000000;fill-opacity:1;fill-rule:nonzero;stroke:#000000;stroke-width:0.460293;stroke-linecap:butt;stroke-linejoin:round;stroke-miterlimit:10;stroke-dasharray:none;stroke-opacity:1"
       id="path64" /><g
       id="g70"
       transform="matrix(0.57536564,0,0,0.57536564,8.9249517,141.98661)"><g
         id="g72"
         clip-path="url(#clipPath76)"><path
           d="M 193.21519,38.016 V 304.128"
           style="fill:none;stroke:#b0b0b0;stroke-width:0.8;stroke-linecap:square;stroke-linejoin:round;stroke-miterlimit:10;stroke-dasharray:none;stroke-opacity:1"
           id="path78" /></g></g><path
       d="m 120.09433,163.85971 v -2.01378"
       style="fill:#000000;fill-opacity:1;fill-rule:nonzero;stroke:#000000;stroke-width:0.460293;stroke-linecap:butt;stroke-linejoin:round;stroke-miterlimit:10;stroke-dasharray:none;stroke-opacity:1"
       id="path82" /><g
       id="g88"
       transform="matrix(0.57536564,0,0,0.57536564,8.9249517,141.98661)"><g
         id="g90"
         clip-path="url(#clipPath94)"><path
           d="M 238.42025,38.016 V 304.128"
           style="fill:none;stroke:#b0b0b0;stroke-width:0.8;stroke-linecap:square;stroke-linejoin:round;stroke-miterlimit:10;stroke-dasharray:none;stroke-opacity:1"
           id="path96" /></g></g><path
       d="m 146.10377,163.85971 v -2.01378"
       style="fill:#000000;fill-opacity:1;fill-rule:nonzero;stroke:#000000;stroke-width:0.460293;stroke-linecap:butt;stroke-linejoin:round;stroke-miterlimit:10;stroke-dasharray:none;stroke-opacity:1"
       id="path100" /><g
       id="g106"
       transform="matrix(0.57536564,0,0,0.57536564,8.9249517,141.98661)"><g
         id="g108"
         clip-path="url(#clipPath112)"><path
           d="M 283.62532,38.016 V 304.128"
           style="fill:none;stroke:#b0b0b0;stroke-width:0.8;stroke-linecap:square;stroke-linejoin:round;stroke-miterlimit:10;stroke-dasharray:none;stroke-opacity:1"
           id="path114" /></g></g><path
       d="m 172.11322,163.85971 v -2.01378"
       style="fill:#000000;fill-opacity:1;fill-rule:nonzero;stroke:#000000;stroke-width:0.460293;stroke-linecap:butt;stroke-linejoin:round;stroke-miterlimit:10;stroke-dasharray:none;stroke-opacity:1"
       id="path118" /><g
       id="g124"
       transform="matrix(0.57536564,0,0,0.57536564,8.9249517,141.98661)"><g
         id="g126"
         clip-path="url(#clipPath130)"><path
           d="M 328.83038,38.016 V 304.128"
           style="fill:none;stroke:#b0b0b0;stroke-width:0.8;stroke-linecap:square;stroke-linejoin:round;stroke-miterlimit:10;stroke-dasharray:none;stroke-opacity:1"
           id="path132" /></g></g><path
       d="m 198.12265,163.85971 v -2.01378"
       style="fill:#000000;fill-opacity:1;fill-rule:nonzero;stroke:#000000;stroke-width:0.460293;stroke-linecap:butt;stroke-linejoin:round;stroke-miterlimit:10;stroke-dasharray:none;stroke-opacity:1"
       id="path136" /><g
       id="g142"
       transform="matrix(0.57536564,0,0,0.57536564,8.9249517,141.98661)"><g
         id="g144"
         clip-path="url(#clipPath148)"><path
           d="M 374.03544,38.016 V 304.128"
           style="fill:none;stroke:#b0b0b0;stroke-width:0.8;stroke-linecap:square;stroke-linejoin:round;stroke-miterlimit:10;stroke-dasharray:none;stroke-opacity:1"
           id="path150" /></g></g><path
       d="m 224.13209,163.85971 v -2.01378"
       style="fill:#000000;fill-opacity:1;fill-rule:nonzero;stroke:#000000;stroke-width:0.460293;stroke-linecap:butt;stroke-linejoin:round;stroke-miterlimit:10;stroke-dasharray:none;stroke-opacity:1"
       id="path154" /><g
       id="g164"
       transform="matrix(0.57536564,0,0,0.57536564,8.9249517,141.98661)"><g
         id="g166"
         clip-path="url(#clipPath170)"><path
           d="M 57.6,38.016 H 414.72"
           style="fill:none;stroke:#b0b0b0;stroke-width:0.8;stroke-linecap:square;stroke-linejoin:round;stroke-miterlimit:10;stroke-dasharray:none;stroke-opacity:1"
           id="path172" /></g></g><path
       d="m 42.066013,163.85971 h -2.01378"
       style="fill:#000000;fill-opacity:1;fill-rule:nonzero;stroke:#000000;stroke-width:0.460293;stroke-linecap:butt;stroke-linejoin:round;stroke-miterlimit:10;stroke-dasharray:none;stroke-opacity:1"
       id="path176" /><g
       id="g182"
       transform="matrix(0.57536564,0,0,0.57536564,8.9249517,141.98661)"><g
         id="g184"
         clip-path="url(#clipPath188)"><path
           d="M 57.6,91.2384 H 414.72"
           style="fill:none;stroke:#b0b0b0;stroke-width:0.8;stroke-linecap:square;stroke-linejoin:round;stroke-miterlimit:10;stroke-dasharray:none;stroke-opacity:1"
           id="path190" /></g></g><path
       d="m 42.066013,194.48205 h -2.01378"
       style="fill:#000000;fill-opacity:1;fill-rule:nonzero;stroke:#000000;stroke-width:0.460293;stroke-linecap:butt;stroke-linejoin:round;stroke-miterlimit:10;stroke-dasharray:none;stroke-opacity:1"
       id="path194" /><g
       id="g200"
       transform="matrix(0.57536564,0,0,0.57536564,8.9249517,141.98661)"><g
         id="g202"
         clip-path="url(#clipPath206)"><path
           d="M 57.6,144.4608 H 414.72"
           style="fill:none;stroke:#b0b0b0;stroke-width:0.8;stroke-linecap:square;stroke-linejoin:round;stroke-miterlimit:10;stroke-dasharray:none;stroke-opacity:1"
           id="path208" /></g></g><path
       d="m 42.066013,225.10439 h -2.01378"
       style="fill:#000000;fill-opacity:1;fill-rule:nonzero;stroke:#000000;stroke-width:0.460293;stroke-linecap:butt;stroke-linejoin:round;stroke-miterlimit:10;stroke-dasharray:none;stroke-opacity:1"
       id="path212" /><g
       id="g218"
       transform="matrix(0.57536564,0,0,0.57536564,8.9249517,141.98661)"><g
         id="g220"
         clip-path="url(#clipPath224)"><path
           d="M 57.6,197.6832 H 414.72"
           style="fill:none;stroke:#b0b0b0;stroke-width:0.8;stroke-linecap:square;stroke-linejoin:round;stroke-miterlimit:10;stroke-dasharray:none;stroke-opacity:1"
           id="path226" /></g></g><path
       d="m 42.066013,255.72673 h -2.01378"
       style="fill:#000000;fill-opacity:1;fill-rule:nonzero;stroke:#000000;stroke-width:0.460293;stroke-linecap:butt;stroke-linejoin:round;stroke-miterlimit:10;stroke-dasharray:none;stroke-opacity:1"
       id="path230" /><g
       id="g236"
       transform="matrix(0.57536564,0,0,0.57536564,8.9249517,141.98661)"><g
         id="g238"
         clip-path="url(#clipPath242)"><path
           d="M 57.6,250.9056 H 414.72"
           style="fill:none;stroke:#b0b0b0;stroke-width:0.8;stroke-linecap:square;stroke-linejoin:round;stroke-miterlimit:10;stroke-dasharray:none;stroke-opacity:1"
           id="path244" /></g></g><path
       d="m 42.066013,286.34907 h -2.01378"
       style="fill:#000000;fill-opacity:1;fill-rule:nonzero;stroke:#000000;stroke-width:0.460293;stroke-linecap:butt;stroke-linejoin:round;stroke-miterlimit:10;stroke-dasharray:none;stroke-opacity:1"
       id="path248" /><g
       id="g254"
       transform="matrix(0.57536564,0,0,0.57536564,8.9249517,141.98661)"><g
         id="g256"
         clip-path="url(#clipPath260)"><path
           d="M 57.6,304.128 H 414.72"
           style="fill:none;stroke:#b0b0b0;stroke-width:0.8;stroke-linecap:square;stroke-linejoin:round;stroke-miterlimit:10;stroke-dasharray:none;stroke-opacity:1"
           id="path262" /></g></g><path
       d="m 42.066013,316.97141 h -2.01378"
       style="fill:#000000;fill-opacity:1;fill-rule:nonzero;stroke:#000000;stroke-width:0.460293;stroke-linecap:butt;stroke-linejoin:round;stroke-miterlimit:10;stroke-dasharray:none;stroke-opacity:1"
       id="path266" /><g
       id="g278"
       clip-path="url(#clipPath282)"
       transform="matrix(0.57536564,0,0,0.57536564,8.9249517,141.98661)"><path
         d="m 57.6,126.27672 4.520506,16.87325 4.520507,4.11737 4.520506,-11.68524 4.520506,-8.94451 4.520507,-7.54534 4.520506,-2.52965 4.520506,-4.81235 4.520507,-3.9578 4.520506,0.46116 4.520503,-4.81304 4.52051,-5.025938 4.52051,-1.617735 4.5205,-3.77435 4.52051,-3.406295 4.52051,0.882923 4.5205,-0.267151 4.52051,-1.570405 4.5205,-2.688467 4.52051,3.303723 4.52051,-0.04779 4.5205,4.053929 4.52051,0.370818 4.52051,-0.833625 4.5205,0.0065 4.52051,-1.6213 4.5205,5.587098 4.52051,0.459393 4.52051,-2.780503 4.5205,3.010213 4.52051,-0.692688 4.52051,1.844753 4.5205,-2.277142 4.52051,5.435929 4.5205,-3.94643 4.52051,-2.409205 4.52051,-4.122938 4.5205,-2.049533 4.52051,0.367753 4.52051,4.114956 4.5205,-2.933095 4.52051,-2.879633 4.52051,-4.13313 4.5205,-0.175547 4.52051,8.586304 4.5205,-2.90523 4.52051,2.375353 4.52051,-0.165436 4.5205,-0.01769 4.52051,0.02334 4.52051,5.450039 4.5205,-5.059759 4.52051,3.709096 4.5205,0.564348 4.52051,-4.257297 4.52051,5.606342 4.5205,-3.26866 4.52051,-0.978763 4.52051,1.104366 4.5205,11.366999 4.52051,3.54618 4.52051,-0.10618 4.5205,-4.5812 4.52051,3.74437 4.5205,-0.0596 4.52051,10.16709 4.52051,-7.57627 4.5205,-3.01017 4.52051,4.81459 4.52051,-3.8368 4.5205,-1.22315 4.52051,2.68239 4.52051,-4.83662 4.5205,-6.589115 4.52051,-0.960961 4.5205,-1.812004 4.52051,-2.727922 4.52051,1.726478 4.5205,-5.995342 4.52051,5.540089"
         style="fill:none;stroke:#1f77b4;stroke-width:1.5;stroke-linecap:square;stroke-linejoin:round;stroke-miterlimit:10;stroke-dasharray:none;stroke-opacity:1"
         id="path284" /></g><g
       id="g288"
       clip-path="url(#clipPath292)"
       transform="matrix(0.57536564,0,0,0.57536564,8.9249517,141.98661)"><path
         d="m 57.6,126.34792 4.520506,16.74338 4.520507,3.38068 4.520506,-11.45641 4.520506,-8.97777 4.520507,-7.4269 4.520506,-2.33278 4.520506,-4.70062 4.520507,-3.48657 4.520506,0.69499 4.520503,-5.03268 4.52051,-4.677484 4.52051,-1.117638 4.5205,-4.102659 4.52051,-3.127367 4.52051,0.891604 4.5205,-0.227696 4.52051,-1.586147 4.5205,-2.290411 4.52051,3.251035 4.52051,0.229952 4.5205,4.376164 4.52051,0.397767 4.52051,-0.876166 4.5205,-0.09234 4.52051,-1.664737 4.5205,4.950322 4.52051,1.183951 4.52051,-2.386559 4.5205,2.691183 4.52051,-0.430775 4.52051,1.767851 4.5205,-3.125465 4.52051,5.585495 4.5205,-4.0562 4.52051,-3.110307 4.52051,-4.314315 4.5205,-1.071259 4.52051,-0.597103 4.52051,4.625399 4.5205,-2.751048 4.52051,-2.981774 4.52051,-3.590709 4.5205,-0.807287 4.52051,8.205703 4.5205,-1.181754 4.52051,1.450015 4.52051,-0.904593 4.5205,0.25604 4.52051,-0.547055 4.52051,5.640254 4.5205,-5.171884 4.52051,4.007728 4.5205,1.001968 4.52051,-4.717388 4.52051,5.975186 4.5205,-3.918904 4.52051,-0.955017 4.52051,0.969661 4.5205,11.601053 4.52051,2.95039 4.52051,-0.24067 4.5205,-4.26769 4.52051,4.13409 4.5205,-0.49024 4.52051,9.23086 4.52051,-7.13291 4.5205,-4.10628 4.52051,4.06839 4.52051,-2.47151 4.5205,-2.09036 4.52051,2.92547 4.52051,-4.90175 4.5205,-6.943628 4.52051,-0.74059 4.5205,-1.471778 4.52051,-3.081923 4.52051,1.841739 4.5205,-5.698763 4.52051,5.008316"
         style="fill:none;stroke:#ff7f0e;stroke-width:1.5;stroke-linecap:square;stroke-linejoin:round;stroke-miterlimit:10;stroke-dasharray:none;stroke-opacity:1"
         id="path294" /></g><g
       id="g298"
       clip-path="url(#clipPath302)"
       transform="matrix(0.57536564,0,0,0.57536564,8.9249517,141.98661)"><path
         d="m 57.6,126.63833 4.520506,16.66032 4.520507,3.4479 4.520506,-11.92331 4.520506,-8.58132 4.520507,-7.80164 4.520506,-2.27967 4.520506,-4.68714 4.520507,-3.37239 4.520506,0.4344 4.520503,-4.86075 4.52051,-4.596008 4.52051,-1.145689 4.5205,-4.07575 4.52051,-3.162 4.52051,0.67798 4.5205,0.0523 4.52051,-1.703951 4.5205,-2.166095 4.52051,2.999249 4.52051,0.491988 4.5205,4.423669 4.52051,0.362336 4.52051,-0.850411 4.5205,-0.143146 4.52051,-1.090503 4.5205,4.263332 4.52051,1.097058 4.52051,-1.881766 4.5205,2.332808 4.52051,-0.419739 4.52051,1.665728 4.5205,-3.171941 4.52051,5.500661 4.5205,-4.104373 4.52051,-3.190412 4.52051,-4.254973 4.5205,-0.985757 4.52051,-0.658955 4.52051,4.562072 4.5205,-2.68002 4.52051,-1.612228 4.52051,-4.815444 4.5205,-0.845307 4.52051,8.070785 4.5205,-1.634116 4.52051,1.956378 4.52051,-0.98423 4.5205,0.20334 4.52051,-0.66834 4.52051,5.839815 4.5205,-5.295575 4.52051,4.004817 4.5205,1.099627 4.52051,-4.670842 4.52051,5.825568 4.5205,-3.896535 4.52051,-0.966291 4.52051,1.033616 4.5205,11.45478 4.52051,2.76163 4.52051,-0.13361 4.5205,-4.28436 4.52051,4.23457 4.5205,-0.6703 4.52051,9.14868 4.52051,-7.22384 4.5205,-4.33565 4.52051,3.95414 4.52051,-2.25064 4.5205,-2.28711 4.52051,3.06681 4.52051,-4.96204 4.5205,-7.102432 4.52051,-0.792726 4.5205,-1.187349 4.52051,-3.112298 4.52051,1.759977 4.5205,-5.632712 4.52051,5.075616"
         style="fill:none;stroke:#2ca02c;stroke-width:1.5;stroke-linecap:square;stroke-linejoin:round;stroke-miterlimit:10;stroke-dasharray:none;stroke-opacity:1"
         id="path304" /></g><path
       d="m 42.066013,163.85971 v 153.1117"
       style="fill:none;stroke:#000000;stroke-width:0.460293;stroke-linecap:square;stroke-linejoin:miter;stroke-miterlimit:10;stroke-dasharray:none;stroke-opacity:1"
       id="path318" /><path
       d="m 247.54059,163.85971 v 153.1117"
       style="fill:none;stroke:#000000;stroke-width:0.460293;stroke-linecap:square;stroke-linejoin:miter;stroke-miterlimit:10;stroke-dasharray:none;stroke-opacity:1"
       id="path320" /><path
       d="M 42.066013,163.85971 H 247.54059"
       style="fill:none;stroke:#000000;stroke-width:0.460293;stroke-linecap:square;stroke-linejoin:miter;stroke-miterlimit:10;stroke-dasharray:none;stroke-opacity:1"
       id="path322" /><path
       d="M 42.066013,316.97141 H 247.54059"
       style="fill:none;stroke:#000000;stroke-width:0.460293;stroke-linecap:square;stroke-linejoin:miter;stroke-miterlimit:10;stroke-dasharray:none;stroke-opacity:1"
       id="path324" /><path
       d="m 79.655732,268.43103 h 11.50731"
       style="fill:none;stroke:#1f77b4;stroke-width:0.863048;stroke-linecap:square;stroke-linejoin:round;stroke-miterlimit:10;stroke-dasharray:none;stroke-opacity:1"
       id="path334" /><path
       d="m 79.655732,259.98933 h 11.50731"
       style="fill:none;stroke:#ff7f0e;stroke-width:0.863048;stroke-linecap:square;stroke-linejoin:round;stroke-miterlimit:10;stroke-dasharray:none;stroke-opacity:1"
       id="path340" /><path
       d="m 79.655732,251.54764 h 11.50731"
       style="fill:none;stroke:#2ca02c;stroke-width:0.863048;stroke-linecap:square;stroke-linejoin:round;stroke-miterlimit:10;stroke-dasharray:none;stroke-opacity:1"
       id="path346" /><path
       d="m 79.655732,243.10595 h 11.50731"
       style="fill:none;stroke:#d62728;stroke-width:0.863048;stroke-linecap:square;stroke-linejoin:round;stroke-miterlimit:10;stroke-dasharray:none;stroke-opacity:1"
       id="path352" /></g><g
     inkscape:groupmode="layer"
     id="layer1"
     inkscape:label="text"><text
       style="font-variant:normal;font-weight:normal;font-size:7.67155px;font-family:'DejaVu Sans';-inkscape-font-specification:DejaVuSans;writing-mode:lr-tb;fill:#000000;fill-opacity:1;fill-rule:nonzero;stroke:none;stroke-width:0.767155"
       id="text32"
       x="25.962786"
       y="236.30962"><tspan
         x="25.962786 30.841885 33.281433"
         y="236.30962"
         sodipodi:role="line"
         id="tspan30"
         style="stroke-width:0.767155">0.0</tspan></text><text
       transform="matrix(1.3333333,0,0,1.3333333,-28.023958,443.59357)"
       style="font-variant:normal;font-weight:normal;font-size:5.75366px;font-family:'DejaVu Sans';-inkscape-font-specification:DejaVuSans;writing-mode:lr-tb;fill:#000000;fill-opacity:1;fill-rule:nonzero;stroke:none;stroke-width:0.575366"
       id="text50"
       x="63.499496"
       y="-155.46297"><tspan
         x="63.499496 67.158821 68.988487"
         y="-155.46297"
         sodipodi:role="line"
         id="tspan48"
         style="stroke-width:0.575366">0.1</tspan></text><text
       transform="matrix(1.3333333,0,0,1.3333333,-28.023958,443.59357)"
       style="font-variant:normal;font-weight:normal;font-size:5.75366px;font-family:'DejaVu Sans';-inkscape-font-specification:DejaVuSans;writing-mode:lr-tb;fill:#000000;fill-opacity:1;fill-rule:nonzero;stroke:none;stroke-width:0.575366"
       id="text68"
       x="89.508934"
       y="-155.46297"><tspan
         x="89.508934 93.168266 94.997925"
         y="-155.46297"
         sodipodi:role="line"
         id="tspan66"
         style="stroke-width:0.575366">0.2</tspan></text><text
       transform="matrix(1.3333333,0,0,1.3333333,-28.023958,443.59357)"
       style="font-variant:normal;font-weight:normal;font-size:5.75366px;font-family:'DejaVu Sans';-inkscape-font-specification:DejaVuSans;writing-mode:lr-tb;fill:#000000;fill-opacity:1;fill-rule:nonzero;stroke:none;stroke-width:0.575366"
       id="text86"
       x="115.51838"
       y="-155.46297"><tspan
         x="115.51838 119.1777 121.00737"
         y="-155.46297"
         sodipodi:role="line"
         id="tspan84"
         style="stroke-width:0.575366">0.3</tspan></text><text
       transform="matrix(1.3333333,0,0,1.3333333,-28.023958,443.59357)"
       style="font-variant:normal;font-weight:normal;font-size:5.75366px;font-family:'DejaVu Sans';-inkscape-font-specification:DejaVuSans;writing-mode:lr-tb;fill:#000000;fill-opacity:1;fill-rule:nonzero;stroke:none;stroke-width:0.575366"
       id="text104"
       x="141.52782"
       y="-155.46297"><tspan
         x="141.52782 145.18715 147.01682"
         y="-155.46297"
         sodipodi:role="line"
         id="tspan102"
         style="stroke-width:0.575366">0.4</tspan></text><text
       transform="matrix(1.3333333,0,0,1.3333333,-28.023958,443.59357)"
       style="font-variant:normal;font-weight:normal;font-size:5.75366px;font-family:'DejaVu Sans';-inkscape-font-specification:DejaVuSans;writing-mode:lr-tb;fill:#000000;fill-opacity:1;fill-rule:nonzero;stroke:none;stroke-width:0.575366"
       id="text122"
       x="167.53726"
       y="-155.46297"><tspan
         x="167.53726 171.19658 173.02625"
         y="-155.46297"
         sodipodi:role="line"
         id="tspan120"
         style="stroke-width:0.575366">0.5</tspan></text><text
       transform="matrix(1.3333333,0,0,1.3333333,-28.023958,443.59357)"
       style="font-variant:normal;font-weight:normal;font-size:5.75366px;font-family:'DejaVu Sans';-inkscape-font-specification:DejaVuSans;writing-mode:lr-tb;fill:#000000;fill-opacity:1;fill-rule:nonzero;stroke:none;stroke-width:0.575366"
       id="text140"
       x="193.54671"
       y="-155.46297"><tspan
         x="193.54671 197.20602 199.03569"
         y="-155.46297"
         sodipodi:role="line"
         id="tspan138"
         style="stroke-width:0.575366">0.6</tspan></text><text
       transform="matrix(1.3333333,0,0,1.3333333,-28.023958,443.59357)"
       style="font-variant:normal;font-weight:normal;font-size:5.75366px;font-family:'DejaVu Sans';-inkscape-font-specification:DejaVuSans;writing-mode:lr-tb;fill:#000000;fill-opacity:1;fill-rule:nonzero;stroke:none;stroke-width:0.575366"
       id="text158"
       x="219.55614"
       y="-155.46297"><tspan
         x="219.55614 223.21547 225.04514"
         y="-155.46297"
         sodipodi:role="line"
         id="tspan156"
         style="stroke-width:0.575366">0.7</tspan></text><text
       transform="matrix(1.3333333,0,0,1.3333333,-28.023958,443.59357)"
       style="font-variant:normal;font-weight:normal;font-size:5.75366px;font-family:'DejaVu Sans';-inkscape-font-specification:DejaVuSans;writing-mode:lr-tb;fill:#000000;fill-opacity:1;fill-rule:nonzero;stroke:none;stroke-width:0.575366"
       id="text162"
       x="109.98019"
       y="-147.59663"><tspan
         x="109.98019 114.43927 117.97778 121.62559 125.14683 130.75089 132.3504 135.51492 137.34457 140.99815 142.59767 145.59532 147.85075 151.37775 155.02557 158.19008 161.72858 163.55824 165.49722 167.32689 172.2923 175.94586"
         y="-147.59663"
         sodipodi:role="line"
         id="tspan160"
         style="stroke-width:0.575366">Genomic distance / Mbp</tspan></text><text
       transform="matrix(1.3333333,0,0,1.3333333,-28.023958,443.59357)"
       style="font-variant:normal;font-weight:normal;font-size:5.75366px;font-family:'DejaVu Sans';-inkscape-font-specification:DejaVuSans;writing-mode:lr-tb;fill:#000000;fill-opacity:1;fill-rule:nonzero;stroke:none;stroke-width:0.575366"
       id="text180"
       x="28.886543"
       y="-161.67513"><tspan
         x="28.886543 32.545868 34.37553"
         y="-161.67513"
         sodipodi:role="line"
         id="tspan178"
         style="stroke-width:0.575366">0.0</tspan></text><text
       transform="matrix(1.3333333,0,0,1.3333333,-28.023958,443.59357)"
       style="font-variant:normal;font-weight:normal;font-size:5.75366px;font-family:'DejaVu Sans';-inkscape-font-specification:DejaVuSans;writing-mode:lr-tb;fill:#000000;fill-opacity:1;fill-rule:nonzero;stroke:none;stroke-width:0.575366"
       id="text198"
       x="28.886543"
       y="-192.29745"><tspan
         x="28.886543 32.545868 34.37553"
         y="-192.29745"
         sodipodi:role="line"
         id="tspan196"
         style="stroke-width:0.575366">0.2</tspan></text><text
       transform="matrix(1.3333333,0,0,1.3333333,-28.023958,443.59357)"
       style="font-variant:normal;font-weight:normal;font-size:5.75366px;font-family:'DejaVu Sans';-inkscape-font-specification:DejaVuSans;writing-mode:lr-tb;fill:#000000;fill-opacity:1;fill-rule:nonzero;stroke:none;stroke-width:0.575366"
       id="text216"
       x="28.886543"
       y="-222.9198"><tspan
         x="28.886543 32.545868 34.37553"
         y="-222.9198"
         sodipodi:role="line"
         id="tspan214"
         style="stroke-width:0.575366">0.4</tspan></text><text
       transform="matrix(1.3333333,0,0,1.3333333,-28.023958,443.59357)"
       style="font-variant:normal;font-weight:normal;font-size:5.75366px;font-family:'DejaVu Sans';-inkscape-font-specification:DejaVuSans;writing-mode:lr-tb;fill:#000000;fill-opacity:1;fill-rule:nonzero;stroke:none;stroke-width:0.575366"
       id="text234"
       x="28.886543"
       y="-253.54214"><tspan
         x="28.886543 32.545868 34.37553"
         y="-253.54214"
         sodipodi:role="line"
         id="tspan232"
         style="stroke-width:0.575366">0.6</tspan></text><text
       transform="matrix(1.3333333,0,0,1.3333333,-28.023958,443.59357)"
       style="font-variant:normal;font-weight:normal;font-size:5.75366px;font-family:'DejaVu Sans';-inkscape-font-specification:DejaVuSans;writing-mode:lr-tb;fill:#000000;fill-opacity:1;fill-rule:nonzero;stroke:none;stroke-width:0.575366"
       id="text252"
       x="28.886543"
       y="-284.16449"><tspan
         x="28.886543 32.545868 34.37553"
         y="-284.16449"
         sodipodi:role="line"
         id="tspan250"
         style="stroke-width:0.575366">0.8</tspan></text><text
       transform="matrix(1.3333333,0,0,1.3333333,-28.023958,443.59357)"
       style="font-variant:normal;font-weight:normal;font-size:5.75366px;font-family:'DejaVu Sans';-inkscape-font-specification:DejaVuSans;writing-mode:lr-tb;fill:#000000;fill-opacity:1;fill-rule:nonzero;stroke:none;stroke-width:0.575366"
       id="text270"
       x="28.886543"
       y="-314.78683"><tspan
         x="28.886543 32.545868 34.37553"
         y="-314.78683"
         sodipodi:role="line"
         id="tspan268"
         style="stroke-width:0.575366">1.0</tspan></text><text
       transform="matrix(0,-1.3333333,1.3333333,0,-28.023958,443.59357)"
       style="font-variant:normal;font-weight:normal;font-size:5.75366px;font-family:'DejaVu Sans';-inkscape-font-specification:DejaVuSans;writing-mode:lr-tb;fill:#000000;fill-opacity:1;fill-rule:nonzero;stroke:none;stroke-width:0.575366"
       id="text274"
       x="212.61821"
       y="25.389399"><tspan
         x="212.61821 216.08766 219.62616 223.15315 225.51791 228.51556 232.0368 235.68462 237.51428 240.67879 244.20003 246.56479 248.92953 252.46803 254.06755 257.59454 259.84998 261.44949 264.97073"
         y="25.389399"
         sodipodi:role="line"
         id="tspan272"
         style="stroke-width:0.575366">Pearson correlation</tspan></text><text
       transform="matrix(1.3333333,0,0,1.3333333,-28.023958,443.59357)"
       style="font-variant:normal;font-weight:normal;font-size:6.90439px;font-family:'DejaVu Sans';-inkscape-font-specification:DejaVuSans;writing-mode:lr-tb;fill:#000000;fill-opacity:1;fill-rule:nonzero;stroke:none;stroke-width:0.575366"
       id="text328"
       x="73.750137"
       y="-328.16226"><tspan
         x="73.750137 77.913483 82.159683 86.392075 89.229774 92.826958 97.052444 101.42983 103.62542 107.42284 111.64832 114.48603 117.32373 121.56992 123.48935 127.72174 130.42825 132.34767 136.57317 140.95055 143.14613 147.23354 150.83072 153.02632 155.22191 159.6062 163.8524 168.22978 172.45526 179.18015 181.09956 184.89697 187.09258 191.47685 193.39627 196.99345 199.69998 203.93236 208.30975 212.10716"
         y="-328.16226"
         sodipodi:role="line"
         id="tspan326"
         style="stroke-width:0.575366">Pearson correlation vs. genomic distance</tspan></text><text
       transform="matrix(1.3333333,0,0,1.3333333,-28.023958,443.59357)"
       style="font-variant:normal;font-weight:normal;font-size:6.90439px;font-family:'DejaVu Sans';-inkscape-font-specification:DejaVuSans;writing-mode:lr-tb;fill:#000000;fill-opacity:1;fill-rule:nonzero;stroke:none;stroke-width:0.575366"
       id="text332"
       x="63.579868"
       y="-320.42361"><tspan
         sodipodi:role="line"
         id="tspan330"
         style="stroke-width:0.575366"
         x="63.579868"
         y="-320.42361">D. melanogaster embryo 14-16h, 2L, 2R on 3L</tspan></text><text
       transform="matrix(1.3333333,0,0,1.3333333,-28.023958,443.59357)"
       style="font-variant:normal;font-weight:normal;font-size:5.75366px;font-family:'DejaVu Sans';-inkscape-font-specification:DejaVuSans;writing-mode:lr-tb;fill:#000000;fill-opacity:1;fill-rule:nonzero;stroke:none;stroke-width:0.575366"
       id="text338"
       x="95.765976"
       y="-266.41721"><tspan
         x="95.765976 99.425278 103.08459 106.74394 108.57355 112.11212 115.76566 119.28694 122.45142 126.09921 129.09674 130.92639 132.86539 134.69504 138.63054 142.84222 146.85828 148.79726 150.62692 154.28624 156.11591 159.77524 163.43456"
         y="-266.41721"
         sodipodi:role="line"
         id="tspan336"
         style="stroke-width:0.575366">200 epochs / AUC: 0.232</tspan></text><text
       transform="matrix(1.3333333,0,0,1.3333333,-28.023958,443.59357)"
       style="font-variant:normal;font-weight:normal;font-size:5.75366px;font-family:'DejaVu Sans';-inkscape-font-specification:DejaVuSans;writing-mode:lr-tb;fill:#000000;fill-opacity:1;fill-rule:nonzero;stroke:none;stroke-width:0.575366"
       id="text344"
       x="95.765976"
       y="-257.97549"><tspan
         x="95.765976 99.425278 103.08459 106.74394 108.57355 112.11212 115.76566 119.28694 122.45142 126.09921 129.09674 130.92639 132.86539 134.69504 138.63054 142.84222 146.85828 148.79726 150.62692 154.28624 156.11591 159.77524 163.43456"
         y="-257.97549"
         sodipodi:role="line"
         id="tspan342"
         style="stroke-width:0.575366">500 epochs / AUC: 0.234</tspan></text><text
       transform="matrix(1.3333333,0,0,1.3333333,-28.023958,443.59357)"
       style="font-variant:normal;font-weight:normal;font-size:5.75366px;font-family:'DejaVu Sans';-inkscape-font-specification:DejaVuSans;writing-mode:lr-tb;fill:#000000;fill-opacity:1;fill-rule:nonzero;stroke:none;stroke-width:0.575366"
       id="text350"
       x="95.765976"
       y="-249.53383"><tspan
         x="95.765976 99.425278 103.08459 106.74394 108.57355 112.11212 115.76566 119.28694 122.45142 126.09921 129.09674 130.92639 132.86539 134.69504 138.63054 142.84222 146.85828 148.79726 150.62692 154.28624 156.11591 159.77524 163.43456"
         y="-249.53383"
         sodipodi:role="line"
         id="tspan348"
         style="stroke-width:0.575366">700 epochs / AUC: 0.233</tspan></text><text
       transform="matrix(1.3333333,0,0,1.3333333,-28.023958,443.59357)"
       style="font-variant:normal;font-weight:normal;font-size:5.75366px;font-family:'DejaVu Sans';-inkscape-font-specification:DejaVuSans;writing-mode:lr-tb;fill:#000000;fill-opacity:1;fill-rule:nonzero;stroke:none;stroke-width:0.575366"
       id="text356"
       x="95.765976"
       y="-241.09212"><tspan
         x="95.765976 99.425278 103.08459 106.74394 110.40327 112.23289 115.77142 119.42496 122.94619 126.11076 129.75841 132.75606 134.58572 136.5247 138.35437 142.28987 146.50154 150.51759 152.45657 154.28624 157.94557 159.77524 163.43456 167.09389"
         y="-241.09212"
         sodipodi:role="line"
         id="tspan354"
         style="stroke-width:0.575366">1000 epochs / AUC: 0.232</tspan></text></g></svg>
