<?xml version="1.0" encoding="UTF-8" standalone="no"?>
<svg
   xmlns:dc="http://purl.org/dc/elements/1.1/"
   xmlns:cc="http://creativecommons.org/ns#"
   xmlns:rdf="http://www.w3.org/1999/02/22-rdf-syntax-ns#"
   xmlns:svg="http://www.w3.org/2000/svg"
   xmlns="http://www.w3.org/2000/svg"
   xmlns:sodipodi="http://sodipodi.sourceforge.net/DTD/sodipodi-0.dtd"
   xmlns:inkscape="http://www.inkscape.org/namespaces/inkscape"
   version="1.1"
   id="svg2"
   xml:space="preserve"
   width="80mm"
   height="60mm"
   viewBox="0 0 302.36221 226.77165"
   sodipodi:docname="lossOverEpochs.svg"
   inkscape:version="1.0.2 (1.0.2+r75+1)"><metadata
     id="metadata8"><rdf:RDF><cc:Work
         rdf:about=""><dc:format>image/svg+xml</dc:format><dc:type
           rdf:resource="http://purl.org/dc/dcmitype/StillImage" /><dc:title></dc:title></cc:Work></rdf:RDF></metadata><defs
     id="defs6"><clipPath
       clipPathUnits="userSpaceOnUse"
       id="clipPath22"><path
         d="M 54,35.64 H 388.8 V 285.12 H 54 Z"
         id="path20" /></clipPath><clipPath
       clipPathUnits="userSpaceOnUse"
       id="clipPath40"><path
         d="M 54,35.64 H 388.8 V 285.12 H 54 Z"
         id="path38" /></clipPath><clipPath
       clipPathUnits="userSpaceOnUse"
       id="clipPath58"><path
         d="M 54,35.64 H 388.8 V 285.12 H 54 Z"
         id="path56" /></clipPath><clipPath
       clipPathUnits="userSpaceOnUse"
       id="clipPath76"><path
         d="M 54,35.64 H 388.8 V 285.12 H 54 Z"
         id="path74" /></clipPath><clipPath
       clipPathUnits="userSpaceOnUse"
       id="clipPath94"><path
         d="M 54,35.64 H 388.8 V 285.12 H 54 Z"
         id="path92" /></clipPath><clipPath
       clipPathUnits="userSpaceOnUse"
       id="clipPath112"><path
         d="M 54,35.64 H 388.8 V 285.12 H 54 Z"
         id="path110" /></clipPath><clipPath
       clipPathUnits="userSpaceOnUse"
       id="clipPath130"><path
         d="M 54,35.64 H 388.8 V 285.12 H 54 Z"
         id="path128" /></clipPath><clipPath
       clipPathUnits="userSpaceOnUse"
       id="clipPath148"><path
         d="M 54,35.64 H 388.8 V 285.12 H 54 Z"
         id="path146" /></clipPath><clipPath
       clipPathUnits="userSpaceOnUse"
       id="clipPath166"><path
         d="M 54,35.64 H 388.8 V 285.12 H 54 Z"
         id="path164" /></clipPath><clipPath
       clipPathUnits="userSpaceOnUse"
       id="clipPath184"><path
         d="M 54,35.64 H 388.8 V 285.12 H 54 Z"
         id="path182" /></clipPath><clipPath
       clipPathUnits="userSpaceOnUse"
       id="clipPath202"><path
         d="M 54,35.64 H 388.8 V 285.12 H 54 Z"
         id="path200" /></clipPath><clipPath
       clipPathUnits="userSpaceOnUse"
       id="clipPath224"><path
         d="M 54,35.64 H 388.8 V 285.12 H 54 Z"
         id="path222" /></clipPath><clipPath
       clipPathUnits="userSpaceOnUse"
       id="clipPath248"><path
         d="M 54,35.64 H 388.8 V 285.12 H 54 Z"
         id="path246" /></clipPath><clipPath
       clipPathUnits="userSpaceOnUse"
       id="clipPath262"><path
         d="M 54,35.64 H 388.8 V 285.12 H 54 Z"
         id="path260" /></clipPath><clipPath
       clipPathUnits="userSpaceOnUse"
       id="clipPath276"><path
         d="M 54,35.64 H 388.8 V 285.12 H 54 Z"
         id="path274" /></clipPath><clipPath
       clipPathUnits="userSpaceOnUse"
       id="clipPath290"><path
         d="M 54,35.64 H 388.8 V 285.12 H 54 Z"
         id="path288" /></clipPath><clipPath
       clipPathUnits="userSpaceOnUse"
       id="clipPath304"><path
         d="M 54,35.64 H 388.8 V 285.12 H 54 Z"
         id="path302" /></clipPath><clipPath
       clipPathUnits="userSpaceOnUse"
       id="clipPath318"><path
         d="M 54,35.64 H 388.8 V 285.12 H 54 Z"
         id="path316" /></clipPath><clipPath
       clipPathUnits="userSpaceOnUse"
       id="clipPath332"><path
         d="M 54,35.64 H 388.8 V 285.12 H 54 Z"
         id="path330" /></clipPath><clipPath
       clipPathUnits="userSpaceOnUse"
       id="clipPath346"><path
         d="M 54,35.64 H 388.8 V 285.12 H 54 Z"
         id="path344" /></clipPath><clipPath
       clipPathUnits="userSpaceOnUse"
       id="clipPath360"><path
         d="M 54,35.64 H 388.8 V 285.12 H 54 Z"
         id="path358" /></clipPath><clipPath
       clipPathUnits="userSpaceOnUse"
       id="clipPath378"><path
         d="M 54,35.64 H 388.8 V 285.12 H 54 Z"
         id="path376" /></clipPath><clipPath
       clipPathUnits="userSpaceOnUse"
       id="clipPath388"><path
         d="M 54,35.64 H 388.8 V 285.12 H 54 Z"
         id="path386" /></clipPath></defs><sodipodi:namedview
     pagecolor="#ffffff"
     bordercolor="#666666"
     borderopacity="1"
     objecttolerance="10"
     gridtolerance="10"
     guidetolerance="10"
     inkscape:pageopacity="0"
     inkscape:pageshadow="2"
     inkscape:window-width="1920"
     inkscape:window-height="1020"
     id="namedview4"
     showgrid="false"
     fit-margin-top="0"
     fit-margin-left="0"
     fit-margin-right="0"
     fit-margin-bottom="0"
     units="mm"
     inkscape:zoom="5.6110232"
     inkscape:cx="63.95479"
     inkscape:cy="66.840504"
     inkscape:window-x="0"
     inkscape:window-y="0"
     inkscape:window-maximized="1"
     inkscape:current-layer="layer1" /><g
     id="g10"
     inkscape:groupmode="layer"
     inkscape:label="lossOverEpochs"
     transform="matrix(1.3333333,0,0,-1.3333333,-23.787685,380.69332)"><g
       id="g16"
       transform="matrix(0.61041881,0,0,0.61041881,6.950426,111.23322)"><g
         id="g18"
         clip-path="url(#clipPath22)"><path
           d="M 68.913514,35.64 V 285.12"
           style="fill:none;stroke:#b0b0b0;stroke-width:0.8;stroke-linecap:square;stroke-linejoin:round;stroke-miterlimit:10;stroke-dasharray:none;stroke-opacity:1"
           id="path24" /></g></g><path
       d="m 49.016531,132.98854 v -2.13646"
       style="fill:#000000;fill-opacity:1;fill-rule:nonzero;stroke:#000000;stroke-width:0.488335;stroke-linecap:butt;stroke-linejoin:round;stroke-miterlimit:10;stroke-dasharray:none;stroke-opacity:1"
       id="path28" /><g
       id="g34"
       transform="matrix(0.61041881,0,0,0.61041881,6.950426,111.23322)"><g
         id="g36"
         clip-path="url(#clipPath40)"><path
           d="M 99.380344,35.64 V 285.12"
           style="fill:none;stroke:#b0b0b0;stroke-width:0.8;stroke-linecap:square;stroke-linejoin:round;stroke-miterlimit:10;stroke-dasharray:none;stroke-opacity:1"
           id="path42" /></g></g><path
       d="m 67.614058,132.98854 v -2.13646"
       style="fill:#000000;fill-opacity:1;fill-rule:nonzero;stroke:#000000;stroke-width:0.488335;stroke-linecap:butt;stroke-linejoin:round;stroke-miterlimit:10;stroke-dasharray:none;stroke-opacity:1"
       id="path46" /><g
       id="g52"
       transform="matrix(0.61041881,0,0,0.61041881,6.950426,111.23322)"><g
         id="g54"
         clip-path="url(#clipPath58)"><path
           d="M 129.84717,35.64 V 285.12"
           style="fill:none;stroke:#b0b0b0;stroke-width:0.8;stroke-linecap:square;stroke-linejoin:round;stroke-miterlimit:10;stroke-dasharray:none;stroke-opacity:1"
           id="path60" /></g></g><path
       d="m 86.211581,132.98854 v -2.13646"
       style="fill:#000000;fill-opacity:1;fill-rule:nonzero;stroke:#000000;stroke-width:0.488335;stroke-linecap:butt;stroke-linejoin:round;stroke-miterlimit:10;stroke-dasharray:none;stroke-opacity:1"
       id="path64" /><g
       id="g70"
       transform="matrix(0.61041881,0,0,0.61041881,6.950426,111.23322)"><g
         id="g72"
         clip-path="url(#clipPath76)"><path
           d="M 160.314,35.64 V 285.12"
           style="fill:none;stroke:#b0b0b0;stroke-width:0.8;stroke-linecap:square;stroke-linejoin:round;stroke-miterlimit:10;stroke-dasharray:none;stroke-opacity:1"
           id="path78" /></g></g><path
       d="m 104.80911,132.98854 v -2.13646"
       style="fill:#000000;fill-opacity:1;fill-rule:nonzero;stroke:#000000;stroke-width:0.488335;stroke-linecap:butt;stroke-linejoin:round;stroke-miterlimit:10;stroke-dasharray:none;stroke-opacity:1"
       id="path82" /><g
       id="g88"
       transform="matrix(0.61041881,0,0,0.61041881,6.950426,111.23322)"><g
         id="g90"
         clip-path="url(#clipPath94)"><path
           d="M 190.78083,35.64 V 285.12"
           style="fill:none;stroke:#b0b0b0;stroke-width:0.8;stroke-linecap:square;stroke-linejoin:round;stroke-miterlimit:10;stroke-dasharray:none;stroke-opacity:1"
           id="path96" /></g></g><path
       d="m 123.40664,132.98854 v -2.13646"
       style="fill:#000000;fill-opacity:1;fill-rule:nonzero;stroke:#000000;stroke-width:0.488335;stroke-linecap:butt;stroke-linejoin:round;stroke-miterlimit:10;stroke-dasharray:none;stroke-opacity:1"
       id="path100" /><g
       id="g106"
       transform="matrix(0.61041881,0,0,0.61041881,6.950426,111.23322)"><g
         id="g108"
         clip-path="url(#clipPath112)"><path
           d="M 221.24767,35.64 V 285.12"
           style="fill:none;stroke:#b0b0b0;stroke-width:0.8;stroke-linecap:square;stroke-linejoin:round;stroke-miterlimit:10;stroke-dasharray:none;stroke-opacity:1"
           id="path114" /></g></g><path
       d="m 142.00417,132.98854 v -2.13646"
       style="fill:#000000;fill-opacity:1;fill-rule:nonzero;stroke:#000000;stroke-width:0.488335;stroke-linecap:butt;stroke-linejoin:round;stroke-miterlimit:10;stroke-dasharray:none;stroke-opacity:1"
       id="path118" /><g
       id="g124"
       transform="matrix(0.61041881,0,0,0.61041881,6.950426,111.23322)"><g
         id="g126"
         clip-path="url(#clipPath130)"><path
           d="M 251.7145,35.64 V 285.12"
           style="fill:none;stroke:#b0b0b0;stroke-width:0.8;stroke-linecap:square;stroke-linejoin:round;stroke-miterlimit:10;stroke-dasharray:none;stroke-opacity:1"
           id="path132" /></g></g><path
       d="m 160.60169,132.98854 v -2.13646"
       style="fill:#000000;fill-opacity:1;fill-rule:nonzero;stroke:#000000;stroke-width:0.488335;stroke-linecap:butt;stroke-linejoin:round;stroke-miterlimit:10;stroke-dasharray:none;stroke-opacity:1"
       id="path136" /><g
       id="g142"
       transform="matrix(0.61041881,0,0,0.61041881,6.950426,111.23322)"><g
         id="g144"
         clip-path="url(#clipPath148)"><path
           d="M 282.18133,35.64 V 285.12"
           style="fill:none;stroke:#b0b0b0;stroke-width:0.8;stroke-linecap:square;stroke-linejoin:round;stroke-miterlimit:10;stroke-dasharray:none;stroke-opacity:1"
           id="path150" /></g></g><path
       d="m 179.19922,132.98854 v -2.13646"
       style="fill:#000000;fill-opacity:1;fill-rule:nonzero;stroke:#000000;stroke-width:0.488335;stroke-linecap:butt;stroke-linejoin:round;stroke-miterlimit:10;stroke-dasharray:none;stroke-opacity:1"
       id="path154" /><g
       id="g160"
       transform="matrix(0.61041881,0,0,0.61041881,6.950426,111.23322)"><g
         id="g162"
         clip-path="url(#clipPath166)"><path
           d="M 312.64816,35.64 V 285.12"
           style="fill:none;stroke:#b0b0b0;stroke-width:0.8;stroke-linecap:square;stroke-linejoin:round;stroke-miterlimit:10;stroke-dasharray:none;stroke-opacity:1"
           id="path168" /></g></g><path
       d="m 197.79675,132.98854 v -2.13646"
       style="fill:#000000;fill-opacity:1;fill-rule:nonzero;stroke:#000000;stroke-width:0.488335;stroke-linecap:butt;stroke-linejoin:round;stroke-miterlimit:10;stroke-dasharray:none;stroke-opacity:1"
       id="path172" /><g
       id="g178"
       transform="matrix(0.61041881,0,0,0.61041881,6.950426,111.23322)"><g
         id="g180"
         clip-path="url(#clipPath184)"><path
           d="M 343.11499,35.64 V 285.12"
           style="fill:none;stroke:#b0b0b0;stroke-width:0.8;stroke-linecap:square;stroke-linejoin:round;stroke-miterlimit:10;stroke-dasharray:none;stroke-opacity:1"
           id="path186" /></g></g><path
       d="m 216.39427,132.98854 v -2.13646"
       style="fill:#000000;fill-opacity:1;fill-rule:nonzero;stroke:#000000;stroke-width:0.488335;stroke-linecap:butt;stroke-linejoin:round;stroke-miterlimit:10;stroke-dasharray:none;stroke-opacity:1"
       id="path190" /><g
       id="g196"
       transform="matrix(0.61041881,0,0,0.61041881,6.950426,111.23322)"><g
         id="g198"
         clip-path="url(#clipPath202)"><path
           d="M 373.58182,35.64 V 285.12"
           style="fill:none;stroke:#b0b0b0;stroke-width:0.8;stroke-linecap:square;stroke-linejoin:round;stroke-miterlimit:10;stroke-dasharray:none;stroke-opacity:1"
           id="path204" /></g></g><path
       d="m 234.9918,132.98854 v -2.13646"
       style="fill:#000000;fill-opacity:1;fill-rule:nonzero;stroke:#000000;stroke-width:0.488335;stroke-linecap:butt;stroke-linejoin:round;stroke-miterlimit:10;stroke-dasharray:none;stroke-opacity:1"
       id="path208" /><g
       id="g218"
       transform="matrix(0.61041881,0,0,0.61041881,6.950426,111.23322)"><g
         id="g220"
         clip-path="url(#clipPath224)"><path
           d="M 54,100.6977 H 388.8"
           style="fill:none;stroke:#b0b0b0;stroke-width:0.8;stroke-linecap:square;stroke-linejoin:round;stroke-miterlimit:10;stroke-dasharray:none;stroke-opacity:1"
           id="path226" /></g></g><g
       id="g242"
       transform="matrix(0.61041881,0,0,0.61041881,6.950426,111.23322)"><g
         id="g244"
         clip-path="url(#clipPath248)"><path
           d="M 54,52.08719 H 388.8"
           style="fill:none;stroke:#b0b0b0;stroke-width:0.8;stroke-linecap:square;stroke-linejoin:round;stroke-miterlimit:10;stroke-dasharray:none;stroke-opacity:1"
           id="path250" /></g></g><g
       id="g252"
       transform="matrix(0.61041881,0,0,0.61041881,6.950426,111.23322)"><path
         d="M 54,52.08719 H 52"
         style="fill:#000000;fill-opacity:1;fill-rule:nonzero;stroke:#000000;stroke-width:0.6;stroke-linecap:butt;stroke-linejoin:round;stroke-miterlimit:10;stroke-dasharray:none;stroke-opacity:1"
         id="path254" /></g><path
       d="M 39.913042,172.70099 H 37.776576"
       style="fill:#000000;fill-opacity:1;fill-rule:nonzero;stroke:#000000;stroke-width:0.488335;stroke-linecap:butt;stroke-linejoin:round;stroke-miterlimit:10;stroke-dasharray:none;stroke-opacity:1"
       id="path230" /><g
       id="g256"
       transform="matrix(0.61041881,0,0,0.61041881,6.950426,111.23322)"><g
         id="g258"
         clip-path="url(#clipPath262)"><path
           d="M 54,66.756272 H 388.8"
           style="fill:none;stroke:#b0b0b0;stroke-width:0.8;stroke-linecap:square;stroke-linejoin:round;stroke-miterlimit:10;stroke-dasharray:none;stroke-opacity:1"
           id="path264" /></g></g><g
       id="g266"
       transform="matrix(0.61041881,0,0,0.61041881,6.950426,111.23322)"><path
         d="M 54,66.756272 H 52"
         style="fill:#000000;fill-opacity:1;fill-rule:nonzero;stroke:#000000;stroke-width:0.6;stroke-linecap:butt;stroke-linejoin:round;stroke-miterlimit:10;stroke-dasharray:none;stroke-opacity:1"
         id="path268" /></g><g
       id="g270"
       transform="matrix(0.61041881,0,0,0.61041881,6.950426,111.23322)"><g
         id="g272"
         clip-path="url(#clipPath276)"><path
           d="M 54,79.463209 H 388.8"
           style="fill:none;stroke:#b0b0b0;stroke-width:0.8;stroke-linecap:square;stroke-linejoin:round;stroke-miterlimit:10;stroke-dasharray:none;stroke-opacity:1"
           id="path278" /></g></g><g
       id="g280"
       transform="matrix(0.61041881,0,0,0.61041881,6.950426,111.23322)"><path
         d="M 54,79.463209 H 52"
         style="fill:#000000;fill-opacity:1;fill-rule:nonzero;stroke:#000000;stroke-width:0.6;stroke-linecap:butt;stroke-linejoin:round;stroke-miterlimit:10;stroke-dasharray:none;stroke-opacity:1"
         id="path282" /></g><g
       id="g284"
       transform="matrix(0.61041881,0,0,0.61041881,6.950426,111.23322)"><g
         id="g286"
         clip-path="url(#clipPath290)"><path
           d="M 54,90.671521 H 388.8"
           style="fill:none;stroke:#b0b0b0;stroke-width:0.8;stroke-linecap:square;stroke-linejoin:round;stroke-miterlimit:10;stroke-dasharray:none;stroke-opacity:1"
           id="path292" /></g></g><g
       id="g294"
       transform="matrix(0.61041881,0,0,0.61041881,6.950426,111.23322)"><path
         d="M 54,90.671521 H 52"
         style="fill:#000000;fill-opacity:1;fill-rule:nonzero;stroke:#000000;stroke-width:0.6;stroke-linecap:butt;stroke-linejoin:round;stroke-miterlimit:10;stroke-dasharray:none;stroke-opacity:1"
         id="path296" /></g><g
       id="g298"
       transform="matrix(0.61041881,0,0,0.61041881,6.950426,111.23322)"><g
         id="g300"
         clip-path="url(#clipPath304)"><path
           d="M 54,166.65805 H 388.8"
           style="fill:none;stroke:#b0b0b0;stroke-width:0.8;stroke-linecap:square;stroke-linejoin:round;stroke-miterlimit:10;stroke-dasharray:none;stroke-opacity:1"
           id="path306" /></g></g><g
       id="g308"
       transform="matrix(0.61041881,0,0,0.61041881,6.950426,111.23322)"><path
         d="M 54,166.65805 H 52"
         style="fill:#000000;fill-opacity:1;fill-rule:nonzero;stroke:#000000;stroke-width:0.6;stroke-linecap:butt;stroke-linejoin:round;stroke-miterlimit:10;stroke-dasharray:none;stroke-opacity:1"
         id="path310" /></g><g
       id="g312"
       transform="matrix(0.61041881,0,0,0.61041881,6.950426,111.23322)"><g
         id="g314"
         clip-path="url(#clipPath318)"><path
           d="M 54,205.24238 H 388.8"
           style="fill:none;stroke:#b0b0b0;stroke-width:0.8;stroke-linecap:square;stroke-linejoin:round;stroke-miterlimit:10;stroke-dasharray:none;stroke-opacity:1"
           id="path320" /></g></g><g
       id="g322"
       transform="matrix(0.61041881,0,0,0.61041881,6.950426,111.23322)"><path
         d="M 54,205.24238 H 52"
         style="fill:#000000;fill-opacity:1;fill-rule:nonzero;stroke:#000000;stroke-width:0.6;stroke-linecap:butt;stroke-linejoin:round;stroke-miterlimit:10;stroke-dasharray:none;stroke-opacity:1"
         id="path324" /></g><g
       id="g326"
       transform="matrix(0.61041881,0,0,0.61041881,6.950426,111.23322)"><g
         id="g328"
         clip-path="url(#clipPath332)"><path
           d="M 54,232.6184 H 388.8"
           style="fill:none;stroke:#b0b0b0;stroke-width:0.8;stroke-linecap:square;stroke-linejoin:round;stroke-miterlimit:10;stroke-dasharray:none;stroke-opacity:1"
           id="path334" /></g></g><g
       id="g336"
       transform="matrix(0.61041881,0,0,0.61041881,6.950426,111.23322)"><path
         d="M 54,232.6184 H 52"
         style="fill:#000000;fill-opacity:1;fill-rule:nonzero;stroke:#000000;stroke-width:0.6;stroke-linecap:butt;stroke-linejoin:round;stroke-miterlimit:10;stroke-dasharray:none;stroke-opacity:1"
         id="path338" /></g><g
       id="g340"
       transform="matrix(0.61041881,0,0,0.61041881,6.950426,111.23322)"><g
         id="g342"
         clip-path="url(#clipPath346)"><path
           d="M 54,253.85289 H 388.8"
           style="fill:none;stroke:#b0b0b0;stroke-width:0.8;stroke-linecap:square;stroke-linejoin:round;stroke-miterlimit:10;stroke-dasharray:none;stroke-opacity:1"
           id="path348" /></g></g><g
       id="g350"
       transform="matrix(0.61041881,0,0,0.61041881,6.950426,111.23322)"><path
         d="M 54,253.85289 H 52"
         style="fill:#000000;fill-opacity:1;fill-rule:nonzero;stroke:#000000;stroke-width:0.6;stroke-linecap:butt;stroke-linejoin:round;stroke-miterlimit:10;stroke-dasharray:none;stroke-opacity:1"
         id="path352" /></g><g
       id="g354"
       transform="matrix(0.61041881,0,0,0.61041881,6.950426,111.23322)"><g
         id="g356"
         clip-path="url(#clipPath360)"><path
           d="M 54,271.20273 H 388.8"
           style="fill:none;stroke:#b0b0b0;stroke-width:0.8;stroke-linecap:square;stroke-linejoin:round;stroke-miterlimit:10;stroke-dasharray:none;stroke-opacity:1"
           id="path362" /></g></g><path
       d="M 39.913042,276.78047 H 38.692205"
       style="fill:#000000;fill-opacity:1;fill-rule:nonzero;stroke:#000000;stroke-width:0.366252;stroke-linecap:butt;stroke-linejoin:round;stroke-miterlimit:10;stroke-dasharray:none;stroke-opacity:1"
       id="path366" /><g
       id="g374"
       clip-path="url(#clipPath378)"
       transform="matrix(0.61041881,0,0,0.61041881,6.950426,111.23322)"><path
         d="m 69.218182,273.78 0.304668,-62.99993 0.304668,-5.11075 0.304669,-3.23393 0.304668,-1.13898 0.304668,-2.44871 0.304669,-5.77938 0.304668,-2.04615 0.304668,-6.81468 0.304669,-4.27272 0.304668,-6.17683 0.609336,-3.22574 0.609337,-1.72793 0.609337,-0.72921 0.304668,-1.86572 0.304668,-9.35382 0.304669,-1.29211 0.609336,-1.0171 0.304669,0.12567 0.304668,-7.45138 0.304668,-1.48929 0.304668,-0.35296 0.304669,-0.026 0.304668,-6.29138 0.304668,-3.30192 0.609337,-1.70008 0.304668,-1.41089 0.304669,-0.20661 0.304668,-0.47253 0.304668,-0.86868 0.304668,0.0632 0.609337,-1.35157 0.304668,-0.79825 0.304669,0.24979 0.304668,-0.5758 0.609337,-0.48337 0.304668,0.15809 0.304668,-0.7253 0.304669,0.22217 0.304668,-0.31684 0.304668,-0.93101 0.304668,-0.0335 0.609337,-0.9117 0.609337,-0.99169 0.304668,-0.0987 0.609337,-1.31172 0.304668,0.0713 0.609336,-1.09374 0.609337,-0.1491 0.304668,-0.44298 0.609337,-0.29311 0.304668,-0.68967 0.609337,-0.072 0.304668,-0.15978 0.304669,-0.57132 0.304668,-0.0641 0.304668,-0.2301 0.304668,-0.52869 0.304669,0.11995 0.304668,-0.70042 0.304668,-0.21837 0.304669,-0.53709 0.304668,0.20137 0.304668,-1.18556 0.304669,0.0942 0.304668,-0.47086 0.304668,0.12661 0.304668,-0.66912 0.304669,0.0924 0.304668,-0.0739 0.304668,0.0523 0.304669,-0.76435 0.304668,0.11281 0.304668,-0.0255 0.914005,-0.64458 0.304669,-0.4877 0.304668,-0.17563 0.304668,-0.30632 0.609337,-0.0885 0.609336,-0.85143 0.304669,0.53256 0.609336,-0.77072 0.609338,-0.0934 0.30467,-0.33373 0.30467,-0.0174 0.30466,-0.20053 0.30467,0.0456 0.30467,-0.46674 0.30467,0.1017 0.60934,-0.49837 0.60933,-0.72799 0.30467,-3.87343 0.30467,-9.279842 0.30467,-0.911049 0.30466,0.0097 0.30467,0.267928 0.30467,-0.516087 0.60934,-0.346056 0.60934,-0.512607 0.30466,-0.260574 0.30467,0.528949 0.60934,-1.390426 0.30467,0.679953 0.30467,-0.867496 0.30466,-0.305536 0.30467,0.121253 0.30467,-0.15443 0.30467,-0.415451 0.30467,0.409511 0.30466,-0.359604 0.30467,-0.05703 0.91401,-0.796028 0.30467,0.160867 0.60933,-0.603711 0.30467,-0.508231 0.60934,-0.223043 0.30467,-0.314853 0.30466,-0.01614 0.30467,-0.309281 0.30467,0.490067 0.30467,-0.426694 0.30467,0.961261 0.30467,-1.431238 0.30466,-0.08741 0.30467,0.04831 0.30467,-0.690776 0.30467,0.04858 0.30467,-0.283862 0.60933,0.04387 0.60934,-0.571839 0.30467,0.01543 0.30467,-0.463928 0.30467,-0.09558 0.30466,0.02833 0.30467,-0.354925 0.30467,0.120032 0.60934,-0.194226 0.30467,-0.598692 0.30466,0.36676 0.30467,-0.146019 0.30467,-0.335781 0.30467,0.244109 0.30467,-0.465227 0.30466,-0.157197 0.30467,0.328751 0.30467,-0.817472 0.30467,0.17942 0.30467,-0.01476 0.30467,0.249113 0.30467,-0.581506 0.60933,-0.483694 0.91401,-0.06983 0.30467,-0.118048 0.30466,0.07409 0.30467,-0.704863 0.30467,0.317934 0.30467,-0.181809 0.30467,-0.539792 0.30466,0.647973 0.30467,-0.387919 0.30467,0.105122 0.30467,-0.164158 0.30467,-0.532597 0.30467,0.225814 0.60933,-0.524071 0.30467,0.03874 0.60934,-0.241652 0.30467,-0.07709 0.30466,0.840088 0.30467,-1.359244 0.30467,0.897707 0.30467,-0.671698 0.30467,-0.295465 0.30467,0.105589 0.30466,-0.264013 1.52335,-0.44857 0.30466,0.2948 0.30467,-0.425391 0.30467,-0.661893 0.30467,0.254494 0.30467,-0.279096 0.30466,0.01863 0.30467,-0.246488 0.30467,0.222149 0.30467,0.05951 0.30467,-0.514258 0.60933,-0.336695 0.30467,-0.06569 0.30467,0.424919 0.30467,-0.647816 0.30467,-0.354258 0.30467,0.263769 0.30466,-0.0361 0.60934,-0.294206 0.30467,-0.365095 0.30467,0.309963 0.30467,-0.288233 0.60933,-0.266131 0.30467,-0.349014 0.30467,0.02499 0.30467,0.306122 0.30467,-0.570191 0.30466,0.422327 0.30467,-0.643634 0.60934,0.43583 0.914,-0.690329 0.60934,-0.255711 0.30467,0.08381 0.60934,-0.440937 0.60933,0.02031 0.30467,0.09427 0.91401,-0.604729 0.30466,-0.06844 0.30467,-0.242679 0.30467,0.140553 0.30467,-0.517914 0.30467,0.438127 0.30467,-0.335416 0.30466,0.01249 0.30467,0.242812 0.60934,-0.770445 0.30467,-0.06923 0.30467,0.286847 0.60933,-0.652213 0.30467,0.439997 0.30467,-0.14096 0.30467,0.367306 0.30466,-0.540592 0.30467,-0.235857 0.30467,0.1421 0.30467,-0.48755 0.30467,0.247103 0.60933,-0.37009 0.30467,-0.365319 0.60934,0.383861 0.30467,-0.08224 0.30467,-0.508166 0.30466,0.426873 0.60934,-0.441207 0.30467,0.09812 0.30467,-0.479465 0.60933,0.138114 0.30467,0.0638 0.60934,-0.471608 0.60934,-0.119419 0.60933,-0.481503 0.30467,0.23113 0.60934,-0.115698 0.30467,-0.176676 0.30466,0.482792 0.30467,-0.688295 0.60934,-0.05732 2.13268,-0.736786 0.914,-0.04831 0.60934,-0.437819 0.30467,0.431352 0.30467,-0.542528 0.60933,0.126403 0.30467,-0.173875 0.30467,-0.329126 0.30467,0.24952 0.30467,-0.179024 0.30466,0.07617 0.30467,-0.310369 0.30467,-0.0037 0.60934,-0.259464 0.60933,0.0081 0.30467,-0.102495 0.30467,0.0537 0.30467,-0.388037 0.30467,0.07641 0.30466,0.227215 0.30467,-0.533546 0.30467,-0.141904 0.30467,0.01172 0.60934,0.483627 0.30467,-0.724166 0.30466,-0.212432 0.30467,0.123224 0.30467,0.35562 0.60934,-0.759079 1.52334,-0.08759 0.30467,-0.275132 0.30466,0.12998 0.30467,-0.308432 0.30467,0.05484 0.30467,-0.155428 0.30467,0.167865 0.30467,-0.311499 0.30466,0.120493 0.30467,-0.318209 0.30467,-0.07771 0.30467,0.574364 0.30467,-0.444591 0.30467,0.190285 0.30466,-0.650782 0.30467,0.677425 0.30467,-0.474213 0.60934,-0.300215 0.30467,0.161617 0.60933,-0.390667 0.30467,-0.268889 0.30467,0.27262 0.30467,-0.183474 0.30467,0.543921 0.30466,-0.703179 1.52335,-0.02717 0.30466,-0.361152 0.60934,0.07901 0.60934,-0.233884 0.30466,0.17314 0.91401,-0.37997 0.30467,0.264891 0.30467,-0.109743 0.30466,-0.367228 1.52335,-0.228546 0.30466,-0.279005 0.30467,0.113682 0.30467,3.077813 0.30467,-3.125954 0.30467,0.03074 0.30467,-0.411476 0.914,0.180471 0.30467,-0.403095 0.30467,0.103591 1.21867,-0.04996 0.30467,-0.296568 0.30467,-0.02936 0.30467,0.197872 0.30466,-0.292454 0.30467,0.255247 0.30467,-0.407106 0.30467,-0.206069 0.30467,0.07762 0.30467,-0.05252 0.30466,-0.17758 0.60934,0.119206 0.30467,-0.140552 0.30467,0.157466 0.60933,-0.365545 0.30467,0.05002 0.30467,-0.276836 0.30467,0.06305 0.30467,-0.0544 0.30467,0.15939 0.30466,1.007364 0.30467,-1.332893 0.30467,0.06873 0.30467,-0.206451 0.60934,-0.02784 0.30466,-0.347032 0.30467,0.182962 0.30467,-0.26649 0.30467,0.81178 0.30467,-0.772708 0.30466,-0.07222 0.30467,0.210161 0.60934,-0.298848 0.30467,0.107219 0.30467,-0.256551 0.30466,-0.05867 0.60934,0.262339 0.30467,-0.385167 1.21867,-0.1395 0.30467,-0.238686 0.30467,0.139504 0.914,-0.278184 0.30467,0.962631 0.30467,-1.016391 0.30467,0.01878 0.30467,0.545324 0.30467,-0.687776 0.30466,0.119585 0.60934,-0.361073 0.30467,0.0062 0.30467,-0.208985 0.30467,-0.0098 0.30466,0.233467 0.30467,-7.87e-4 0.30467,-0.294551 0.30467,0.176662 0.30467,-0.295775 0.30467,0.112475 0.60933,-0.109507 0.30467,0.133678 0.60934,-0.324542 0.60933,-0.133501 1.52335,-0.159485 0.30466,0.252164 0.30467,-0.290571 0.30467,-0.124601 0.30467,0.04865 1.52334,-0.371998 0.30467,0.508259 0.30467,-0.660131 0.30466,0.120795 0.30467,-0.310195 0.30467,0.0918 0.30467,-0.08763 0.30467,0.03074 0.30467,0.144589 0.30466,-0.308188 0.60934,0.139141 0.30467,-0.324407 0.60934,0.0096 0.30467,2.339527 0.30466,-2.477119 0.30467,-0.08119 0.30467,0.07234 1.21867,-0.28342 0.60934,0.128304 0.30467,-0.187312 0.914,-0.03456 0.30467,3.781705 0.30467,-3.896639 0.30467,-0.02501 0.60933,-0.224027 0.30467,0.08842 1.21868,-0.235629 2.74201,-0.425231 0.30467,0.34219 0.30467,-0.280428 1.21867,-0.156501 0.30467,0.129962 0.30467,-0.418334 0.30466,0.0582 0.30467,0.227349 0.30467,-0.280576 0.30467,-0.09259 0.30467,0.09974 0.30467,10.84708 0.30466,-8.900939 0.30467,-1.096649 0.30467,-0.114654 0.60934,-0.416573 0.914,-0.321448 0.30467,0.03071 0.30467,-0.247537 0.60934,-0.02942 0.30466,-0.120237 0.30467,0.02487 0.60934,-0.23772 0.30467,0.08526 0.30467,-0.05879 0.30466,-0.214233 0.30467,0.578196 0.30467,-0.466816 0.60934,-0.344869 0.30467,0.271572 0.30466,-0.19559 0.30467,0.178387 0.30467,-0.149046 0.30467,0.207674 0.30467,-0.381253 0.914,-0.08523 0.30467,-0.205124 0.60934,0.119524 0.30467,3.4809 0.30466,-3.618548 0.30467,-0.08069 0.30467,0.07258 0.60934,-0.158 0.30467,0.500289 0.30466,-0.550482 0.30467,-0.136779 1.21868,0.04798 0.30466,-0.04181 0.30467,-0.206244 0.30467,0.141895 0.60934,-0.256743 0.30467,0.179144 0.30466,-0.241414 0.30467,-0.06809 1.21867,0.14247 0.60934,-0.347651 0.60934,0.152617 0.30467,-0.01158 0.30466,-0.171504 0.60934,0.256129 0.30467,-0.470165 0.30467,0.189775 0.30467,-0.147654 0.30466,0.03587 0.30467,-0.231459 0.30467,0.248425 0.30467,-0.268057 0.60934,0.03169 0.30466,0.234962 0.30467,-0.317631 1.21868,-0.07853 0.30466,-0.194811 0.30467,-0.02578 0.60934,0.249946 0.914,-0.299402 0.91401,-0.08252 0.30467,-0.08282 0.30467,0.215973 0.30466,-0.269979 0.30467,0.371778 0.30467,-0.411061 0.30467,0.09443 0.60934,-0.212999 0.30466,0.04638 0.30467,0.159171 0.30467,-0.205861 1.21867,-0.09798 0.30467,-0.108451 0.60934,0.04767 0.30467,-0.06186 0.30466,-0.228735 0.60934,0.187036 0.60934,-0.11545 0.30467,-0.134292 0.60933,0.09757 0.30467,5.25e-4 0.30467,-0.171591 0.60934,0.01329 0.30466,0.738983 0.30467,-0.893256 0.60934,0.01742 0.60934,-0.0073 0.30466,0.303835 0.30467,-0.423139 0.30467,-0.07616 0.30467,0.07828 0.91401,-0.119599 0.30466,0.07696 2.43735,-0.442194 0.30467,0.171127 0.914,-0.286423 0.60934,0.127526 0.914,-0.221357 0.30467,0.138826 0.30467,-0.185597 0.60934,-0.0157 0.60933,-0.08856 0.30467,0.312549 0.30467,-0.314367 0.91401,-0.142571 0.30466,0.0718 0.30467,-0.197576 0.30467,0.06569 0.914,-0.08284 0.30467,0.09815 1.21868,-0.269748 0.60933,0.03623 0.91401,-0.181524 1.21867,-0.04874 0.30467,-0.105251 0.30467,0.08562 1.52334,-0.247994 0.30467,0.131477 0.914,-0.187353 0.30467,0.143473 0.30467,-0.210444 0.30467,0.124613 0.60933,-0.17467 0.30467,0.07744 2.43735,-0.295613 0.30467,0.09551 1.21867,-0.234954 0.30467,0.07902 0.60934,-0.09158 0.30466,0.3397 0.30467,-0.364073 0.30467,0.101018 0.30467,-0.212227 0.30467,0.137666 0.30467,-0.09571 0.30466,0.08225 0.30467,-0.126117 0.30467,0.02241 0.30467,-0.149733 2.74201,-0.120592 0.30467,0.02055 0.91401,-0.194496 0.30466,0.05697 0.30467,-0.110822 0.30467,0.162563 0.60934,-0.149352 0.60934,0.231529 0.30466,-0.388191 0.30467,1.163304 0.30467,-1.154198 0.60934,0.0094 1.82801,-0.156141 0.30466,0.06298 0.91401,-0.153757 0.60934,0.0095 0.60933,-0.112459 2.13268,-0.02195 0.30467,-0.124097 0.30467,7.036122 0.30467,-6.633177 0.30466,-0.238823 0.60934,-0.182045 0.30467,-0.240648 0.60934,0.137852 0.30466,-0.118895 0.30467,0.153981 0.30467,-0.183212 0.60934,-0.03796 0.30466,0.07907 0.30467,-0.13239 0.91401,0.04981 0.30467,-0.175336 0.60933,0.09856 1.52334,-0.17581 0.91401,-0.129827 0.30467,0.186625 0.30467,-0.195722 0.30466,0.198114 0.30467,-0.139792 0.30467,0.100816 0.30467,-0.125022 0.30467,0.07041 1.82801,-0.263128 0.30467,0.01166 0.60933,-0.133046 0.30467,0.118389 0.30467,-0.125373 0.60934,0.07727 0.30466,-0.143112 0.30467,0.07871 1.82801,-0.24413 0.30467,0.155401 0.30467,0.02573 0.60934,-0.247205 0.60933,0.134153 0.30467,0.265263 0.30467,-0.325958 0.30467,-0.03035 0.30467,-0.15035 0.30466,0.169536 0.60934,-0.199607 0.30467,0.179667 0.30467,-0.264905 0.60933,0.05554 2.43735,-0.04921 0.30467,-0.230795 0.30467,0.206448 0.60933,-0.163991 0.60934,0.133114 0.30467,-0.242893 0.30467,0.141061 0.60933,-0.125657 0.91401,0.04591 0.30467,-0.01162 0.30466,-0.224043 0.60934,0.22949 0.30467,3.177349 0.30467,-3.341166 1.82801,-0.127546 0.30467,0.07357 0.30466,-0.17763 0.30467,0.152807 0.60934,-0.147129 0.30467,0.05733 0.60933,-0.141845 0.60934,-0.003 0.30467,-0.04904 0.30467,0.08216 0.30467,-0.0529 0.30466,0.161122 0.60934,-0.24868 0.30467,0.103607 0.30467,-0.02296 0.30466,-0.176756 0.30467,0.01213 0.30467,-0.102637 0.91401,0.139745 0.60933,-0.107759 0.60934,-0.02575 0.60934,-0.106427 0.30466,0.133436 0.30467,-0.0061 0.30467,10.850893 0.30467,-8.499863 0.30467,-0.950943 0.30467,-0.252406 0.30466,-0.40184 1.21868,-0.4309 v 0"
         style="fill:none;stroke:#1f77b4;stroke-width:1.5;stroke-linecap:square;stroke-linejoin:round;stroke-miterlimit:10;stroke-dasharray:none;stroke-opacity:1"
         id="path380" /></g><g
       id="g384"
       clip-path="url(#clipPath388)"
       transform="matrix(0.61041881,0,0,0.61041881,6.950426,111.23322)"><path
         d="m 69.218182,222.76934 0.304668,-8.92778 0.304668,-2.04111 0.304669,4.69723 0.304668,0.54135 0.304668,-14.03239 0.304669,5.5984 0.304668,0.23376 0.304668,-18.48813 0.304669,-1.87346 0.304668,-17.06119 0.609336,-1.41169 0.304669,-1.80414 0.304668,11.87933 0.304668,-10.03652 0.304669,4.68499 0.304668,-15.84576 0.304668,10.90827 0.304669,-5.74945 0.304668,1.27285 0.304668,-0.61532 0.304669,-3.75766 0.304668,-9.97719 0.304668,5.28772 0.304668,1.1001 0.304669,-6.67955 0.304668,-1.19965 0.304668,-5.09517 0.304669,9.22726 0.304668,-4.28422 0.304668,-12.27742 0.304669,12.01408 0.304668,26.84534 0.304668,-34.79658 0.304668,5.27578 0.304669,1.51164 0.304668,-13.48955 0.304668,7.99591 0.304669,3.72659 0.304668,-7.5336 0.304668,0.19558 0.304669,-2.50568 0.304668,-5.1862 0.609337,2.95003 0.304668,-4.01961 0.609336,2.86811 0.304669,0.13525 0.609336,17.24112 0.304669,-22.32239 0.304668,1.30844 0.304668,4.05084 0.304669,-0.14949 0.304668,13.12728 0.304668,-18.15611 0.304668,10.26769 0.304669,-8.82167 0.304668,9.84231 0.304668,-8.00216 0.304669,5.7702 0.304668,1.74094 0.304668,-2.54188 0.304669,-5.70802 0.304668,1.06315 0.304668,5.63325 0.304669,-6.71348 0.304668,14.51996 0.304668,-12.79083 0.304668,-2.88133 0.304669,-1.43962 0.304668,-2.39502 0.304668,1.62636 0.304669,0.69057 0.304668,-2.3573 0.304668,12.63716 0.304669,-10.31409 0.304668,3.71008 0.304668,-6.33635 0.304668,2.60989 0.304669,-2.24775 0.914005,5.69712 0.304668,-4.96543 0.304668,-0.8415 0.304669,-2.62336 0.304668,6.24607 0.304668,1.41979 0.304669,-0.63333 0.304668,2.84038 0.304668,-0.0173 0.304668,-12.61548 0.304669,23.94319 0.304668,-10.45406 0.304668,2.26722 0.304669,-8.71652 0.304668,7.4866 0.609337,-12.69185 0.304669,4.74555 0.30467,7.52077 0.30467,-15.0077 0.30466,27.11453 0.30467,-22.92653 0.30467,26.91257 0.91401,-26.11204 0.30466,1.10815 0.30467,-1.31599 0.30467,-3.17983 0.30467,4.80646 0.30467,8.84071 0.30466,-13.46735 0.30467,0.75117 0.30467,-6.31304 0.30467,2.98276 0.30467,15.90178 0.30467,-19.0274 0.30467,-10.82503 0.30466,10.88667 0.30467,17.47197 0.30467,-24.70452 0.30467,17.08292 0.30467,-16.33176 0.30467,1.84406 0.30466,5.74595 0.30467,-4.18228 0.30467,-2.41435 0.30467,13.24453 0.30467,-5.57173 0.30466,-2.8782 0.30467,-0.27043 0.30467,1.56959 0.30467,-9.90805 0.30467,8.71181 0.30467,23.6279 0.30466,-20.96781 0.30467,-4.68434 0.30467,3.97679 0.30467,-12.79519 0.30467,11.51245 0.30467,1.3864 0.30466,1.96113 0.30467,-5.62992 0.30467,10.38722 0.30467,-7.61675 0.30467,4.51291 0.30467,-11.39193 0.30466,1.32363 0.30467,-2.85126 0.60934,9.17726 0.30467,-12.20419 0.30467,9.67101 0.30466,-4.75385 0.30467,9.02492 0.30467,-0.40255 0.30467,-14.53063 0.30467,6.63277 0.30467,0.31497 0.30466,10.62011 0.30467,-9.83977 0.30467,9.62329 0.60934,-9.13818 0.30467,-0.66031 0.30466,1.235 0.30467,13.85645 0.60934,-15.77352 0.30467,-4.04264 0.30466,3.67954 0.30467,-1.2157 0.30467,-2.44077 0.30467,14.2738 0.30467,-11.20386 0.30467,4.12077 0.30467,-0.79173 0.30466,2.8086 0.30467,-10.63641 0.30467,-2.36847 0.30467,14.36083 0.30467,-10.19167 0.30467,3.67489 0.30466,-9.32164 0.30467,24.95099 0.30467,-13.85576 0.30467,2.21836 0.30467,-3.7255 0.30466,-9.59509 0.30467,8.30284 0.30467,1.20419 0.30467,14.73211 0.30467,-12.81606 0.30467,1.51679 0.30466,-9.91829 0.30467,20.38283 0.60934,-25.382545 0.30467,10.932485 0.30467,15.25264 0.30466,-14.99961 0.30467,-0.42267 0.30467,-3.32576 0.30467,-1.06429 0.30467,-2.42291 0.30467,10.04505 0.30466,42.43364 0.30467,-42.94618 0.30467,14.49147 0.30467,-16.56009 0.30467,-0.11 0.30467,-4.66143 0.30466,4.59909 0.30467,-2.10518 0.30467,0.0483 0.30467,-3.16318 0.30467,5.07263 0.30466,16.48307 0.30467,-25.43211 0.30467,11.281 0.30467,-2.42895 0.30467,30.59428 0.30467,-28.94379 0.30466,-3.10548 0.30467,2.82511 0.30467,-4.66785 0.30467,0.72786 0.30467,5.38265 0.30467,-6.35729 0.30466,14.68884 0.30467,-1.8398 0.30467,-15.54397 0.30467,-3.31107 0.30467,8.63936 0.30467,-3.30516 0.60933,11.77029 0.30467,-5.68942 0.30467,21.11715 0.60934,-30.70755 0.30466,14.02756 0.30467,-9.62967 0.30467,8.60361 0.30467,-7.49564 0.30467,0.51121 0.30467,7.07153 0.30466,-8.5471 0.30467,18.33553 0.30467,-20.77443 0.30467,11.26553 0.30467,-11.06357 0.30467,7.32459 0.30466,-9.59078 0.30467,16.06164 0.30467,4.0352 0.30467,-12.19495 0.30467,-0.17141 0.60933,-6.67631 0.30467,8.53196 0.30467,-8.19508 0.30467,15.5408 0.30467,-9.97616 0.30467,-1.31907 0.30466,-2.8636 0.30467,7.59693 0.30467,-8.58067 0.30467,10.54148 0.30467,-9.06635 0.30467,-0.59322 0.914,9.49317 0.30467,14.38619 0.30467,-23.37733 0.30466,6.99589 0.30467,-6.50601 0.30467,5.39666 0.30467,2.48 0.30467,-1.6063 0.30467,-3.43195 0.30466,-5.73387 0.30467,15.0778 0.30467,-15.52937 0.30467,39.61765 0.30467,-26.01436 0.30467,2.91657 0.30466,-12.98069 0.30467,14.51226 0.30467,-7.89909 0.30467,14.55962 0.30467,-9.20491 0.30467,12.37958 0.30466,-14.32961 0.30467,-7.431 0.30467,2.44212 0.30467,-2.12282 0.30467,-3.94699 0.60933,0.58913 0.30467,4.83385 0.30467,13.81651 0.60934,-18.78832 0.30467,-3.95524 0.30466,2.57463 0.30467,9.61033 0.30467,-1.46555 0.30467,11.2281 0.30467,-13.56604 0.30467,-6.99866 0.30466,11.67723 0.30467,-6.53848 0.30467,7.46329 0.30467,2.51108 0.30467,-5.88831 0.30467,0.42335 0.30466,-6.61963 0.30467,0.77042 0.30467,3.3672 0.30467,13.94057 0.30467,-5.90513 0.30467,3.65224 0.30466,28.09082 0.30467,-37.83182 0.30467,-1.77093 0.30467,12.75927 0.60934,-21.88212 0.30466,9.934 0.30467,-2.29301 0.30467,-6.47884 0.30467,10.93148 0.30467,-4.69536 0.30466,0.60848 0.30467,-0.0982 0.30467,3.89917 0.30467,-7.0619 0.30467,2.4218 0.30467,3.8443 0.30466,-6.1344 0.30467,0.80611 0.30467,2.397 0.30467,0.41514 0.30467,13.45326 0.30467,-7.90065 0.30467,-3.98731 0.30466,-1.17359 0.30467,1.47158 0.30467,44.65891 0.30467,-39.46593 0.30467,-0.75414 0.30466,12.98619 0.60934,-21.56802 0.60934,15.66523 0.30467,-1.84396 0.30466,-5.28413 0.30467,53.7138 0.30467,-51.13437 0.30467,2.34479 0.30467,-10.79619 0.30467,8.53561 0.30466,-10.74897 0.30467,8.85632 0.30467,-8.2294 0.30467,3.91179 0.30467,-3.02329 0.30467,3.77596 0.30466,-10.75187 0.30467,12.63995 0.30467,-6.6319 0.30467,2.55846 0.30467,-8.36573 0.30467,-0.0763 0.30466,23.53797 0.30467,-16.51413 0.60934,-2.35911 0.30467,4.74435 0.30467,-11.63454 0.30466,8.21979 0.30467,3.56216 0.30467,6.58989 0.30467,-10.91413 0.30467,2.4622 0.30467,-2.05696 0.30466,11.40462 0.30467,4.05495 0.30467,-8.61286 0.60934,-8.33881 0.30466,5.72394 0.30467,-4.35218 0.30467,-2.63404 0.30467,0.9083 0.30467,5.15188 0.30467,0.87599 0.30466,1.53229 0.30467,12.66093 0.30467,-21.99704 0.30467,5.91186 0.30467,14.9126 0.30467,-13.08182 0.30466,-2.51638 0.30467,2.53372 0.30467,1.11979 0.30467,6.71645 0.60934,-12.77636 0.30466,0.81429 0.30467,11.62237 0.30467,-8.32374 0.30467,5.5463 0.30467,-5.36497 0.30467,-0.32744 0.30466,-4.92741 0.30467,0.61194 0.30467,3.69046 0.30467,-5.64401 0.30467,3.09002 0.30467,-1.0578 0.30466,4.78597 0.30467,0.90849 0.30467,-2.0365 0.30467,4.76766 0.30467,14.64213 0.30467,-20.68248 0.30466,3.73041 0.30467,-6.06818 0.60934,13.54448 0.30467,-9.25627 0.60933,-5.03625 0.30467,0.33807 0.30467,18.07505 0.30467,-8.66286 0.30467,-1.6117 0.30467,-6.36765 0.30466,6.24083 0.30467,1.15802 0.30467,-7.32525 0.30467,8.25356 0.30467,2.68166 0.30467,-10.25569 0.30466,0.18047 0.30467,10.63836 0.30467,-6.3939 0.30467,-1.29868 0.30467,4.87583 0.30466,-0.77173 0.60934,-11.28131 0.30467,-2.20007 0.30467,3.38672 0.60933,20.07096 0.30467,-18.03939 0.30467,3.5954 0.30467,5.99547 0.30467,-4.76772 0.30467,0.77059 0.30466,-7.1791 0.30467,19.14354 0.30467,-10.25585 0.30467,7.06013 0.30467,14.00429 0.30467,-24.85898 0.30466,0.47619 0.30467,3.0072 0.30467,-0.41725 0.30467,12.43303 0.30467,-15.72073 0.30467,2.94407 0.30466,-1.17944 0.30467,-0.7216 0.30467,-2.5157 0.30467,5.12556 0.30467,-6.17649 0.30467,20.05831 0.30466,-17.10668 0.30467,-5.5929 0.30467,16.69466 0.30467,-13.04796 0.30467,2.48478 0.30467,0.15824 0.30466,6.81577 0.30467,2.4234 0.30467,-10.33673 0.30467,5.9997 0.30467,-0.2834 0.30467,-4.26107 0.30466,1.72986 0.30467,-7.28593 0.30467,2.01902 0.30467,9.21937 0.30467,-6.32367 0.30467,3.84176 0.30466,-3.4282 0.30467,-0.6538 0.30467,1.93751 0.30467,-3.04808 0.30467,6.54692 0.30467,-0.23632 0.30466,3.20825 0.30467,-9.22245 0.30467,0.0714 0.30467,18.53442 0.30467,-12.51309 0.30466,4.1333 0.30467,1.99454 0.30467,0.95341 0.30467,-7.45695 0.30467,-1.91329 0.30467,5.50862 0.30466,-14.06887 0.30467,10.54411 0.30467,-9.75422 0.60934,11.42046 0.30467,-4.58959 0.30467,-0.1673 0.30466,-2.97433 0.30467,2.30176 0.30467,-0.36507 0.30467,5.28513 0.30467,-10.24933 0.30466,10.76269 0.30467,1.79344 0.30467,-6.63437 0.30467,-0.008 0.30467,7.28332 0.30467,-7.51746 0.30466,-0.33699 0.30467,-1.05095 0.30467,4.23996 0.30467,-2.27693 0.30467,13.50541 0.30467,-18.91308 0.30466,3.08321 0.30467,13.41227 0.30467,-1.48661 0.30467,-3.4799 0.30467,14.78949 0.30467,-14.0288 0.30466,-5.62363 0.30467,-2.48265 0.30467,3.13133 0.30467,17.22646 0.30467,-15.375 0.30467,-4.72899 0.30466,-1.90732 0.30467,0.0845 0.30467,8.05097 0.91401,-11.51788 0.60933,11.38815 0.30467,-0.49693 0.60934,-2.34783 0.30466,4.79846 0.30467,-8.632 0.30467,8.95805 0.30467,-9.62436 0.30467,-0.26383 0.30467,4.08441 0.30466,-9.62312 0.30467,18.92514 0.30467,-8.43613 0.30467,-0.0803 0.30467,-6.99949 0.30467,5.15885 0.30466,-4.41118 0.30467,8.27164 0.30467,-7.75929 0.30467,4.1755 0.30467,-5.60674 0.30467,15.1651 0.60933,-13.77201 0.30467,12.25498 0.30467,-5.95706 0.30467,5.56639 0.30467,-9.69491 0.60933,-1.39044 0.30467,21.31362 0.30467,-18.56547 0.30467,15.7413 0.30467,-14.95221 0.30466,0.14665 0.30467,3.52416 0.30467,5.11603 0.30467,-11.16851 0.30467,11.99312 0.30467,-0.24309 0.30466,-10.83794 0.30467,-1.10995 0.60934,16.16608 0.30467,-1.70339 0.30467,-5.2696 0.30466,8.76191 0.30467,-21.07516 0.30467,8.14465 0.30467,-1.03934 0.30467,-0.50163 0.30467,-1.66795 0.30466,0.9064 0.30467,-4.85835 0.30467,11.33854 0.30467,-9.38996 0.60934,5.29011 0.30466,9.94964 0.30467,5.58332 0.30467,-15.8971 0.30467,-7.73497 0.60934,13.36003 0.30466,-4.41061 0.30467,7.4234 0.30467,-15.24493 0.30467,12.75325 0.30467,-8.37683 0.30466,4.03064 0.30467,1.13963 0.30467,-0.37934 0.30467,-2.91164 0.30467,4.52557 0.30467,0.74765 0.30466,-10.29692 0.30467,2.67935 0.30467,-0.39919 0.30467,4.50327 0.30467,-8.04557 0.30467,8.64075 0.30466,-2.61302 0.60934,-6.60855 0.30467,8.30197 0.30467,-5.39215 0.30467,7.20849 0.30466,-2.93985 0.30467,6.99665 0.30467,-7.24367 0.30467,-1.79539 0.30467,0.48697 0.30467,1.13039 0.30466,-0.69764 0.30467,6.79313 0.30467,-9.07857 0.60934,10.46737 0.30467,1.0523 0.30466,-9.91 0.30467,2.88669 0.30467,10.03159 0.30467,-4.51028 0.30467,-12.34562 0.30467,7.92709 0.30466,-1.8221 0.30467,0.38977 0.30467,1.27336 0.30467,-4.18993 0.30467,1.73814 0.30467,-4.2514 0.60933,7.34121 0.30467,-9.269 0.30467,6.5493 0.30467,-1.94658 0.30467,6.78105 0.30466,-5.86323 0.30467,-0.25478 0.30467,-0.69696 0.30467,1.76691 0.30467,9.5147 0.30466,-6.60885 0.30467,-2.66538 0.30467,1.21641 0.30467,4.11075 0.30467,-10.94735 0.30467,7.99464 0.30467,-4.2909 0.30466,4.45152 0.30467,-5.59934 0.30467,5.73115 0.30467,-4.33596 0.30467,2.18646 0.30466,4.66871 0.30467,2.42726 0.60934,1.47789 0.30467,-3.78476 0.30467,0.66721 0.30466,-9.31202 0.30467,7.88913 0.30467,0.56087 0.30467,-7.01219 0.30467,-1.93824 0.30467,1.7042 0.30467,6.92667 0.30466,-0.5193 0.30467,-2.4155 0.30467,3.36591 0.30467,-5.92957 0.30467,-2.06016 0.30466,3.5689 0.30467,0.215 0.30467,-4.46552 0.30467,0.66814 0.30467,3.76431 0.30467,-0.70618 0.30466,3.06847 0.30467,-4.06089 0.30467,2.84999 0.30467,1.3499 0.30467,-0.78836 0.30467,8.46643 0.30466,-17.95557 0.30467,7.31979 0.60934,-3.56737 0.30467,6.2252 0.30467,3.62812 0.30466,-6.23667 0.30467,6.5048 0.30467,-5.44892 0.30467,19.58223 0.30467,-22.81897 0.30467,5.47179 0.30466,-6.3311 0.30467,11.47451 0.30467,-4.37005 0.30467,0.18775 0.30467,2.35176 0.60933,-6.37039 0.30467,6.26456 0.30467,-5.61632 0.30467,0.42343 0.30467,7.62432 0.60933,-8.21179 0.30467,0.7198 0.30467,-0.81466 0.60934,1.32264 0.30466,-4.4162 0.30467,10.1765 0.30467,-6.67352 0.30467,9.49946 0.30467,-7.90925 0.30467,-1.57796 0.30466,2.12757 0.30467,0.31416 0.30467,3.75615 0.30467,-4.10383 0.30467,-7.69405 0.30467,8.59214 0.30467,1.21469 0.30466,-2.94134 0.30467,-7.73844 0.60934,8.28157 0.30467,-4.75822 0.30466,2.38921 0.30467,5.73495 0.60934,-7.29745 0.30467,5.59162 0.30467,-9.35372 0.60933,20.71407 0.30467,-17.60334 0.30467,8.86873 0.30467,-3.63395 0.30467,0.69396 0.30466,-8.43847 0.30467,16.85048 0.30467,3.65265 0.30467,-8.09754 0.914,-10.52776 0.30467,5.30557 0.30467,2.71875 0.30467,-8.02883 0.30467,8.61367 0.30467,-4.81477 0.30466,1.89686 0.30467,0.30879 0.30467,-1.09507 0.30467,0.35356 0.30467,-2.45826 0.60933,3.73585 0.30467,-1.99203 0.30467,5.04785 0.30467,-8.82409 0.30467,4.33602 0.30467,1.19324 0.30466,-8.50843 0.30467,12.43122 0.30467,-4.23729 0.30467,-1.98741 0.30467,5.39848 0.30466,-2.97392 0.30467,12.16599 0.30467,-18.76396 0.30467,2.14143 0.30467,5.01552 0.30467,-4.86665 0.60933,2.76103 0.30467,-6.81805 0.30467,12.59247 0.30467,1.43411 0.30467,-8.02763 0.60933,6.02198 0.30467,-3.44033 0.30467,-1.04509 0.30467,1.28003 0.30467,-3.90531 0.30466,5.89961 0.30467,0.97153 0.30467,-10.14266 0.30467,7.95456 0.30467,-6.06655 0.30467,5.87733 0.30466,-0.0139 0.30467,-8.01817 0.30467,5.95599 0.30467,1.9453 0.60934,-7.44171 0.30466,0.93646 0.30467,6.13504 0.30467,2.23909 0.30467,-2.56438 0.30467,18.76308 0.30467,-22.0394 0.30466,14.96517 0.30467,-18.0619 0.30467,4.36288 0.30467,6.63614 0.30467,-11.46462 0.30467,4.89242 0.30466,9.11958 0.30467,-7.7997 0.30467,4.98641 0.30467,-12.27279 0.30467,4.56511 0.30466,-5.16914 0.30467,9.35443 0.30467,-3.95483 0.30467,3.06234 0.30467,-6.44732 0.30467,3.88654 0.30466,-2.5073 0.30467,11.07583 0.30467,-9.74353 0.30467,-5.31464 0.30467,8.67456 0.30467,-2.87388 0.30466,6.13988 0.30467,-7.85327 0.30467,6.38829 0.30467,-6.72121 0.30467,1.00914 0.60933,6.38956 0.30467,17.19926 0.30467,-19.49985 0.30467,-2.48073 0.30467,-1.03333 0.30467,15.55599 0.30466,-15.84265 0.30467,0.33371 0.30467,8.55511 0.30467,-0.045 0.30467,-6.92339 0.30467,3.18632 0.30466,-4.21564 0.30467,0.0898 0.30467,-2.68317 0.30467,2.11962 0.30467,-5.02091 0.60933,20.26533 0.30467,-12.55325 0.60934,12.02138 0.30467,-14.74262 0.60933,11.41818 0.30467,-7.48297 0.30467,-2.89771 0.30467,4.37206 0.30467,-8.25343 0.30467,9.91625 0.30466,1.30893 0.30467,-9.44041 0.30467,8.51263 0.30467,-3.25732 0.30467,3.12007 0.30467,-7.70651 0.30466,-0.74334 0.30467,0.65936 0.30467,7.08162 0.30467,-1.86666 0.30467,1.8724 0.30466,-2.0123 0.30467,-0.57838 0.30467,4.78934 0.30467,-1.28611 0.30467,-1.9712 0.30467,-3.32384 0.30466,-7.24465 0.30467,11.37997 0.30467,-6.07687 0.30467,12.39484 0.30467,-12.87335 0.30467,16.06921 0.30466,-12.8531 0.30467,-2.69631 0.30467,8.21732 0.30467,-13.69263 0.30467,3.35284 0.30467,4.74371 0.30466,-6.50889 0.30467,2.7115 0.30467,-3.13998 0.30467,1.67285 0.60934,8.52397 0.30466,1.23253 0.30467,-1.91726 0.30467,6.20019 0.30467,-12.28664 0.30467,-0.13715 0.30467,6.01734 0.30466,-4.01758 0.60934,-3.28752 0.30467,9.80513 0.30467,3.99446 0.914,-5.1111 0.30467,0.67473 0.30467,-0.9719 0.30467,-0.2001 0.30467,-7.64429 0.30466,0.24431 0.30467,-1.98313 0.30467,6.94441 0.30467,-7.77584 0.30467,4.30145 0.30467,10.75141 0.30466,5.61403 0.30467,-13.58484 0.30467,1.12635 0.30467,-3.12145 0.30467,8.51053 0.30466,-7.78861 0.30467,-0.56702 0.30467,11.12937 0.30467,1.51993 0.30467,-11.24376 0.30467,-1.96384 0.30466,2.82954 0.30467,-1.94263 0.30467,4.45672 0.30467,-6.18296 0.30467,10.57425 0.30467,-7.76369 0.30466,-2.07851 0.30467,3.2097 0.30467,6.64089 0.30467,9.69863 0.30467,-1.00884 0.30467,-6.73691 0.30466,-12.70636 0.60934,9.2514 0.30467,-8.02303 0.30467,4.08587 v 0"
         style="fill:none;stroke:#ff7f0e;stroke-width:1.5;stroke-linecap:square;stroke-linejoin:round;stroke-miterlimit:10;stroke-dasharray:none;stroke-opacity:1"
         id="path390" /></g><path
       d="M 39.913042,132.98854 V 285.27583"
       style="fill:none;stroke:#000000;stroke-width:0.488335;stroke-linecap:square;stroke-linejoin:miter;stroke-miterlimit:10;stroke-dasharray:none;stroke-opacity:1"
       id="path394" /><path
       d="M 244.28126,132.98854 V 285.27583"
       style="fill:none;stroke:#000000;stroke-width:0.488335;stroke-linecap:square;stroke-linejoin:miter;stroke-miterlimit:10;stroke-dasharray:none;stroke-opacity:1"
       id="path396" /><path
       d="M 39.913042,132.98854 H 244.28126"
       style="fill:none;stroke:#000000;stroke-width:0.488335;stroke-linecap:square;stroke-linejoin:miter;stroke-miterlimit:10;stroke-dasharray:none;stroke-opacity:1"
       id="path398" /><path
       d="M 39.913042,285.27583 H 244.28126"
       style="fill:none;stroke:#000000;stroke-width:0.488335;stroke-linecap:square;stroke-linejoin:miter;stroke-miterlimit:10;stroke-dasharray:none;stroke-opacity:1"
       id="path400" /><path
       d="m 145.47247,254.95704 h 61.94195 c 1.01648,0 1.52471,0.40695 1.52471,1.22084 v 17.30156 c 0,0.81389 -0.50823,1.22083 -1.52471,1.22083 h -61.94195 c -1.0165,0 -1.52473,-0.40694 -1.52473,-1.22083 v -17.30156 c 0,-0.81389 0.50823,-1.22084 1.52473,-1.22084 z"
       style="fill:#ffffff;fill-opacity:0.8;fill-rule:nonzero;stroke:#cccccc;stroke-width:0.610419;stroke-linecap:butt;stroke-linejoin:miter;stroke-miterlimit:10;stroke-dasharray:none;stroke-opacity:0.8"
       id="path406" /><path
       d="m 146.38942,269.7597 h 12.20837"
       style="fill:none;stroke:#1f77b4;stroke-width:0.915628;stroke-linecap:square;stroke-linejoin:round;stroke-miterlimit:10;stroke-dasharray:none;stroke-opacity:1"
       id="path408" /><path
       d="m 146.38942,260.80371 h 12.20837"
       style="fill:none;stroke:#ff7f0e;stroke-width:0.915628;stroke-linecap:square;stroke-linejoin:round;stroke-miterlimit:10;stroke-dasharray:none;stroke-opacity:1"
       id="path414" /></g><g
     inkscape:groupmode="layer"
     id="layer1"
     inkscape:label="text"
     style="display:inline"
     transform="translate(-23.787685,-51.306676)"><text
       style="font-variant:normal;font-weight:normal;font-size:8.13892px;font-family:'DejaVu Sans';-inkscape-font-specification:DejaVuSans;writing-mode:lr-tb;fill:#000000;fill-opacity:1;fill-rule:nonzero;stroke:none;stroke-width:0.813892"
       id="text32"
       x="62.767448"
       y="266.55966"><tspan
         x="62.767448"
         y="266.55966"
         id="tspan30"
         style="stroke-width:0.813892">0</tspan></text><text
       style="font-variant:normal;font-weight:normal;font-size:8.13892px;font-family:'DejaVu Sans';-inkscape-font-specification:DejaVuSans;writing-mode:lr-tb;fill:#000000;fill-opacity:1;fill-rule:nonzero;stroke:none;stroke-width:0.813892"
       id="text50"
       x="82.388306"
       y="266.55966"><tspan
         x="82.388306 87.564659 92.741005"
         y="266.55966"
         sodipodi:role="line"
         id="tspan48"
         style="stroke-width:0.813892">100</tspan></text><text
       style="font-variant:normal;font-weight:normal;font-size:8.13892px;font-family:'DejaVu Sans';-inkscape-font-specification:DejaVuSans;writing-mode:lr-tb;fill:#000000;fill-opacity:1;fill-rule:nonzero;stroke:none;stroke-width:0.813892"
       id="text68"
       x="107.18501"
       y="266.55966"><tspan
         x="107.18501 112.36136 117.53771"
         y="266.55966"
         sodipodi:role="line"
         id="tspan66"
         style="stroke-width:0.813892">200</tspan></text><text
       style="font-variant:normal;font-weight:normal;font-size:8.13892px;font-family:'DejaVu Sans';-inkscape-font-specification:DejaVuSans;writing-mode:lr-tb;fill:#000000;fill-opacity:1;fill-rule:nonzero;stroke:none;stroke-width:0.813892"
       id="text86"
       x="131.9817"
       y="266.55966"><tspan
         x="131.9817 137.15805 142.3344"
         y="266.55966"
         sodipodi:role="line"
         id="tspan84"
         style="stroke-width:0.813892">300</tspan></text><text
       style="font-variant:normal;font-weight:normal;font-size:8.13892px;font-family:'DejaVu Sans';-inkscape-font-specification:DejaVuSans;writing-mode:lr-tb;fill:#000000;fill-opacity:1;fill-rule:nonzero;stroke:none;stroke-width:0.813892"
       id="text104"
       x="156.77841"
       y="266.55966"><tspan
         x="156.77841 161.95476 167.13112"
         y="266.55966"
         sodipodi:role="line"
         id="tspan102"
         style="stroke-width:0.813892">400</tspan></text><text
       style="font-variant:normal;font-weight:normal;font-size:8.13892px;font-family:'DejaVu Sans';-inkscape-font-specification:DejaVuSans;writing-mode:lr-tb;fill:#000000;fill-opacity:1;fill-rule:nonzero;stroke:none;stroke-width:0.813892"
       id="text122"
       x="181.5751"
       y="266.55966"><tspan
         x="181.5751 186.75146 191.92781"
         y="266.55966"
         sodipodi:role="line"
         id="tspan120"
         style="stroke-width:0.813892">500</tspan></text><text
       style="font-variant:normal;font-weight:normal;font-size:8.13892px;font-family:'DejaVu Sans';-inkscape-font-specification:DejaVuSans;writing-mode:lr-tb;fill:#000000;fill-opacity:1;fill-rule:nonzero;stroke:none;stroke-width:0.813892"
       id="text140"
       x="206.37183"
       y="266.55966"><tspan
         x="206.37183 211.54817 216.72452"
         y="266.55966"
         sodipodi:role="line"
         id="tspan138"
         style="stroke-width:0.813892">600</tspan></text><text
       style="font-variant:normal;font-weight:normal;font-size:8.13892px;font-family:'DejaVu Sans';-inkscape-font-specification:DejaVuSans;writing-mode:lr-tb;fill:#000000;fill-opacity:1;fill-rule:nonzero;stroke:none;stroke-width:0.813892"
       id="text158"
       x="231.16852"
       y="266.55966"><tspan
         x="231.16852 236.34486 241.52124"
         y="266.55966"
         sodipodi:role="line"
         id="tspan156"
         style="stroke-width:0.813892">700</tspan></text><text
       style="font-variant:normal;font-weight:normal;font-size:8.13892px;font-family:'DejaVu Sans';-inkscape-font-specification:DejaVuSans;writing-mode:lr-tb;fill:#000000;fill-opacity:1;fill-rule:nonzero;stroke:none;stroke-width:0.813892"
       id="text176"
       x="255.96523"
       y="266.55966"><tspan
         x="255.96523 261.14157 266.31793"
         y="266.55966"
         sodipodi:role="line"
         id="tspan174"
         style="stroke-width:0.813892">800</tspan></text><text
       style="font-variant:normal;font-weight:normal;font-size:8.13892px;font-family:'DejaVu Sans';-inkscape-font-specification:DejaVuSans;writing-mode:lr-tb;fill:#000000;fill-opacity:1;fill-rule:nonzero;stroke:none;stroke-width:0.813892"
       id="text194"
       x="280.76193"
       y="266.55966"><tspan
         x="280.76193 285.93829 291.11462"
         y="266.55966"
         sodipodi:role="line"
         id="tspan192"
         style="stroke-width:0.813892">900</tspan></text><text
       style="font-variant:normal;font-weight:normal;font-size:8.13892px;font-family:'DejaVu Sans';-inkscape-font-specification:DejaVuSans;writing-mode:lr-tb;fill:#000000;fill-opacity:1;fill-rule:nonzero;stroke:none;stroke-width:0.813892"
       id="text212"
       x="302.9707"
       y="266.55966"><tspan
         x="302.9707 308.14706 313.32339 318.49979"
         y="266.55966"
         sodipodi:role="line"
         id="tspan210"
         style="stroke-width:0.813892">1000</tspan></text><text
       style="font-variant:normal;font-weight:normal;font-size:8.13892px;font-family:'DejaVu Sans';-inkscape-font-specification:DejaVuSans;writing-mode:lr-tb;fill:#000000;fill-opacity:1;fill-rule:nonzero;stroke:none;stroke-width:0.813892"
       id="text216"
       x="177.06372"
       y="277.6871"><tspan
         x="177.06372 182.06915 187.23737 192.21838 196.69479"
         y="277.6871"
         sodipodi:role="line"
         id="tspan214"
         style="stroke-width:0.813892">epoch</tspan></text><g
       id="g232"
       transform="matrix(0.81389173,0,0,-0.81389173,32.870094,204.95579)"><text
         transform="matrix(1,0,0,-1,0,0.0640625)"
         style="font-variant:normal;font-weight:normal;font-size:10px;font-family:'DejaVu Sans';-inkscape-font-specification:DejaVuSans;writing-mode:lr-tb;fill:#000000;fill-opacity:1;fill-rule:nonzero;stroke:none"
         id="text236"><tspan
           x="0 6.3623047"
           y="0"
           sodipodi:role="line"
           id="tspan234">10</tspan></text><text
         transform="matrix(1,0,0,-1,12.820313,3.8921875)"
         style="font-variant:normal;font-weight:normal;font-size:7px;font-family:'DejaVu Sans';-inkscape-font-specification:DejaVuSans;writing-mode:lr-tb;fill:#000000;fill-opacity:1;fill-rule:nonzero;stroke:none"
         id="text240"><tspan
           x="0"
           y="0"
           id="tspan238">5</tspan></text></g><text
       transform="rotate(-90)"
       style="font-variant:normal;font-weight:normal;font-size:8.13892px;font-family:'DejaVu Sans';-inkscape-font-specification:DejaVuSans;writing-mode:lr-tb;fill:#000000;fill-opacity:1;fill-rule:nonzero;stroke:none;stroke-width:0.813892"
       id="text370"
       x="-181.7832"
       y="43.794048"><tspan
         x="-181.7832 -179.52057 -174.53955 -170.29918"
         y="43.794048"
         sodipodi:role="line"
         id="tspan368"
         style="stroke-width:0.813892">loss (MSE, TV, VGG-16)</tspan></text><text
       style="font-variant:normal;font-weight:normal;font-size:8.13892px;font-family:'DejaVu Sans';-inkscape-font-specification:DejaVuSans;writing-mode:lr-tb;fill:#000000;fill-opacity:1;fill-rule:nonzero;stroke:none;stroke-width:0.813892"
       id="text412"
       x="217.97484"
       y="75.169022"><tspan
         x="217.97484 221.1653 224.51039 229.49956 231.76216"
         y="75.169022"
         sodipodi:role="line"
         id="tspan410"
         style="stroke-width:0.813892">train</tspan></text><text
       style="font-variant:normal;font-weight:normal;font-size:8.13892px;font-family:'DejaVu Sans';-inkscape-font-specification:DejaVuSans;writing-mode:lr-tb;fill:#000000;fill-opacity:1;fill-rule:nonzero;stroke:none;stroke-width:0.813892"
       id="text418"
       x="217.97484"
       y="87.110344"><tspan
         x="217.97484 222.79311 227.78227 230.04485 232.30748 237.47572 242.46489 245.65529 247.91792 252.89894"
         y="87.110344"
         sodipodi:role="line"
         id="tspan416"
         style="stroke-width:0.813892">validation</tspan></text><text
       xml:space="preserve"
       style="font-style:normal;font-weight:normal;font-size:8.95283px;line-height:1.25;font-family:sans-serif;letter-spacing:0px;word-spacing:0px;fill:#000000;fill-opacity:1;stroke:none;stroke-width:0.610419"
       x="23.16256"
       y="243.27377"
       id="text1342"><tspan
         sodipodi:role="line"
         id="tspan1340"
         x="23.16256"
         y="243.27377"
         style="stroke-width:0.610419">6x$10^4$</tspan></text></g></svg>
