<?xml version="1.0" encoding="UTF-8" standalone="no"?>
<svg
   xmlns:dc="http://purl.org/dc/elements/1.1/"
   xmlns:cc="http://creativecommons.org/ns#"
   xmlns:rdf="http://www.w3.org/1999/02/22-rdf-syntax-ns#"
   xmlns:svg="http://www.w3.org/2000/svg"
   xmlns="http://www.w3.org/2000/svg"
   xmlns:sodipodi="http://sodipodi.sourceforge.net/DTD/sodipodi-0.dtd"
   xmlns:inkscape="http://www.inkscape.org/namespaces/inkscape"
   version="1.1"
   id="svg2"
   xml:space="preserve"
   width="80mm"
   height="65.300003mm"
   viewBox="0 0 302.36219 246.80316"
   sodipodi:docname="pearson_chr10.svg"
   inkscape:version="1.0.2 (1.0.2+r75+1)"><metadata
     id="metadata8"><rdf:RDF><cc:Work
         rdf:about=""><dc:format>image/svg+xml</dc:format><dc:type
           rdf:resource="http://purl.org/dc/dcmitype/StillImage" /><dc:title></dc:title></cc:Work></rdf:RDF></metadata><defs
     id="defs6"><clipPath
       clipPathUnits="userSpaceOnUse"
       id="clipPath22"><path
         d="M 57.6,38.016 H 414.72 V 304.128 H 57.6 Z"
         id="path20" /></clipPath><clipPath
       clipPathUnits="userSpaceOnUse"
       id="clipPath40"><path
         d="M 57.6,38.016 H 414.72 V 304.128 H 57.6 Z"
         id="path38" /></clipPath><clipPath
       clipPathUnits="userSpaceOnUse"
       id="clipPath58"><path
         d="M 57.6,38.016 H 414.72 V 304.128 H 57.6 Z"
         id="path56" /></clipPath><clipPath
       clipPathUnits="userSpaceOnUse"
       id="clipPath76"><path
         d="M 57.6,38.016 H 414.72 V 304.128 H 57.6 Z"
         id="path74" /></clipPath><clipPath
       clipPathUnits="userSpaceOnUse"
       id="clipPath94"><path
         d="M 57.6,38.016 H 414.72 V 304.128 H 57.6 Z"
         id="path92" /></clipPath><clipPath
       clipPathUnits="userSpaceOnUse"
       id="clipPath112"><path
         d="M 57.6,38.016 H 414.72 V 304.128 H 57.6 Z"
         id="path110" /></clipPath><clipPath
       clipPathUnits="userSpaceOnUse"
       id="clipPath130"><path
         d="M 57.6,38.016 H 414.72 V 304.128 H 57.6 Z"
         id="path128" /></clipPath><clipPath
       clipPathUnits="userSpaceOnUse"
       id="clipPath148"><path
         d="M 57.6,38.016 H 414.72 V 304.128 H 57.6 Z"
         id="path146" /></clipPath><clipPath
       clipPathUnits="userSpaceOnUse"
       id="clipPath170"><path
         d="M 57.6,38.016 H 414.72 V 304.128 H 57.6 Z"
         id="path168" /></clipPath><clipPath
       clipPathUnits="userSpaceOnUse"
       id="clipPath188"><path
         d="M 57.6,38.016 H 414.72 V 304.128 H 57.6 Z"
         id="path186" /></clipPath><clipPath
       clipPathUnits="userSpaceOnUse"
       id="clipPath206"><path
         d="M 57.6,38.016 H 414.72 V 304.128 H 57.6 Z"
         id="path204" /></clipPath><clipPath
       clipPathUnits="userSpaceOnUse"
       id="clipPath224"><path
         d="M 57.6,38.016 H 414.72 V 304.128 H 57.6 Z"
         id="path222" /></clipPath><clipPath
       clipPathUnits="userSpaceOnUse"
       id="clipPath242"><path
         d="M 57.6,38.016 H 414.72 V 304.128 H 57.6 Z"
         id="path240" /></clipPath><clipPath
       clipPathUnits="userSpaceOnUse"
       id="clipPath260"><path
         d="M 57.6,38.016 H 414.72 V 304.128 H 57.6 Z"
         id="path258" /></clipPath><clipPath
       clipPathUnits="userSpaceOnUse"
       id="clipPath282"><path
         d="M 57.6,38.016 H 414.72 V 304.128 H 57.6 Z"
         id="path280" /></clipPath><clipPath
       clipPathUnits="userSpaceOnUse"
       id="clipPath292"><path
         d="M 57.6,38.016 H 414.72 V 304.128 H 57.6 Z"
         id="path290" /></clipPath><clipPath
       clipPathUnits="userSpaceOnUse"
       id="clipPath302"><path
         d="M 57.6,38.016 H 414.72 V 304.128 H 57.6 Z"
         id="path300" /></clipPath><clipPath
       clipPathUnits="userSpaceOnUse"
       id="clipPath312"><path
         d="M 57.6,38.016 H 414.72 V 304.128 H 57.6 Z"
         id="path310" /></clipPath><clipPath
       clipPathUnits="userSpaceOnUse"
       id="clipPath322"><path
         d="M 57.6,38.016 H 414.72 V 304.128 H 57.6 Z"
         id="path320" /></clipPath></defs><sodipodi:namedview
     pagecolor="#ffffff"
     bordercolor="#666666"
     borderopacity="1"
     objecttolerance="10"
     gridtolerance="10"
     guidetolerance="10"
     inkscape:pageopacity="0"
     inkscape:pageshadow="2"
     inkscape:window-width="1920"
     inkscape:window-height="1020"
     id="namedview4"
     showgrid="false"
     fit-margin-top="0"
     fit-margin-left="0"
     fit-margin-right="0"
     fit-margin-bottom="0"
     units="mm"
     inkscape:zoom="3.7196182"
     inkscape:cx="156.63579"
     inkscape:cy="165.5856"
     inkscape:window-x="0"
     inkscape:window-y="0"
     inkscape:window-maximized="1"
     inkscape:current-layer="layer1" /><g
     id="g10"
     inkscape:groupmode="layer"
     inkscape:label="pearson_chr10"
     transform="matrix(1.3333333,0,0,-1.3333333,-28.023958,443.59358)"><path
       d="m 42.071818,284.73497 2.601661,-4.20906 2.601662,-1.5378 2.601662,-1.10836 2.601661,0.30418 2.601661,0.91094 2.601662,-0.48196 2.601661,2.73707 2.601661,0.87441 2.601662,-0.0728 2.60166,-0.006 2.601663,0.06 2.601663,-1.66994 2.601658,0.12484 2.601664,-0.24859 2.601663,1.04202 2.601658,-1.22962 2.601664,-0.73766 2.601657,0.6414 2.601663,0.39429 2.601664,-0.89977 2.601658,-1.65875 2.601663,-2.14512 2.601661,-2.13571 2.60166,-0.25777 2.60166,-1.40594 2.60166,-0.55513 2.60166,0.70309 2.60166,-0.69754 2.60166,3.96956 2.60167,1.92728 2.60167,-1.24529 2.60166,-0.58272 2.60166,3.61482 2.60166,-1.56688 2.60166,-1.27386 2.60166,-1.50983 2.60166,2.32725 2.60166,0.1471 2.60167,1.20563 2.60165,-2.84658 2.60167,0.52572 2.60166,1.4034 2.60166,-2.8773 2.60166,-0.49607 2.60166,-1.54697 2.60166,1.64221 2.60167,2.17354 2.60165,-0.29408 2.60167,2.6643 2.60166,-2.05757 2.60166,0.21689 2.60166,0.90072 2.60166,-1.20626 2.60166,-1.13233 2.60166,2.42858 2.60166,-1.21784 2.60167,-0.83226 2.60166,-0.85307 2.60166,-2.25667 2.60166,-2.25177 2.60166,0.43142 2.60166,0.44754 2.60166,-1.688 2.60166,-2.573 2.60167,-2.01803 2.60167,-0.43717 2.60165,-1.15117 2.60167,-1.14293 2.60166,-0.18689 2.60166,-1.76059 2.60166,1.12627 2.60166,0.1202 2.60166,-1.82387 2.60167,0.59017 2.60165,1.33223 2.60167,1.56455 2.60166,-2.25627 2.60166,0.58018 2.60166,-4.14042"
       style="fill:none;stroke:#d62728;stroke-width:0.863286;stroke-linecap:square;stroke-linejoin:round;stroke-miterlimit:10;stroke-dasharray:none;stroke-opacity:1"
       id="path324" /><g
       id="g16"
       transform="matrix(0.57552433,0,0,0.57552433,8.9216164,141.97716)"><g
         id="g18"
         clip-path="url(#clipPath22)"><path
           d="M 57.6,38.016 V 304.128"
           style="fill:none;stroke:#b0b0b0;stroke-width:0.8;stroke-linecap:square;stroke-linejoin:round;stroke-miterlimit:10;stroke-dasharray:none;stroke-opacity:1"
           id="path24" /></g></g><path
       d="m 42.071818,163.85629 v -2.01433"
       style="fill:#000000;fill-opacity:1;fill-rule:nonzero;stroke:#000000;stroke-width:0.460419;stroke-linecap:butt;stroke-linejoin:round;stroke-miterlimit:10;stroke-dasharray:none;stroke-opacity:1"
       id="path28" /><g
       id="g34"
       transform="matrix(0.57552433,0,0,0.57552433,8.9216164,141.97716)"><g
         id="g36"
         clip-path="url(#clipPath40)"><path
           d="M 102.80506,38.016 V 304.128"
           style="fill:none;stroke:#b0b0b0;stroke-width:0.8;stroke-linecap:square;stroke-linejoin:round;stroke-miterlimit:10;stroke-dasharray:none;stroke-opacity:1"
           id="path42" /></g></g><path
       d="m 68.088431,163.85629 v -2.01433"
       style="fill:#000000;fill-opacity:1;fill-rule:nonzero;stroke:#000000;stroke-width:0.460419;stroke-linecap:butt;stroke-linejoin:round;stroke-miterlimit:10;stroke-dasharray:none;stroke-opacity:1"
       id="path46" /><g
       id="g52"
       transform="matrix(0.57552433,0,0,0.57552433,8.9216164,141.97716)"><g
         id="g54"
         clip-path="url(#clipPath58)"><path
           d="M 148.01013,38.016 V 304.128"
           style="fill:none;stroke:#b0b0b0;stroke-width:0.8;stroke-linecap:square;stroke-linejoin:round;stroke-miterlimit:10;stroke-dasharray:none;stroke-opacity:1"
           id="path60" /></g></g><path
       d="m 94.105048,163.85629 v -2.01433"
       style="fill:#000000;fill-opacity:1;fill-rule:nonzero;stroke:#000000;stroke-width:0.460419;stroke-linecap:butt;stroke-linejoin:round;stroke-miterlimit:10;stroke-dasharray:none;stroke-opacity:1"
       id="path64" /><g
       id="g70"
       transform="matrix(0.57552433,0,0,0.57552433,8.9216164,141.97716)"><g
         id="g72"
         clip-path="url(#clipPath76)"><path
           d="M 193.21519,38.016 V 304.128"
           style="fill:none;stroke:#b0b0b0;stroke-width:0.8;stroke-linecap:square;stroke-linejoin:round;stroke-miterlimit:10;stroke-dasharray:none;stroke-opacity:1"
           id="path78" /></g></g><path
       d="m 120.12166,163.85629 v -2.01433"
       style="fill:#000000;fill-opacity:1;fill-rule:nonzero;stroke:#000000;stroke-width:0.460419;stroke-linecap:butt;stroke-linejoin:round;stroke-miterlimit:10;stroke-dasharray:none;stroke-opacity:1"
       id="path82" /><g
       id="g88"
       transform="matrix(0.57552433,0,0,0.57552433,8.9216164,141.97716)"><g
         id="g90"
         clip-path="url(#clipPath94)"><path
           d="M 238.42025,38.016 V 304.128"
           style="fill:none;stroke:#b0b0b0;stroke-width:0.8;stroke-linecap:square;stroke-linejoin:round;stroke-miterlimit:10;stroke-dasharray:none;stroke-opacity:1"
           id="path96" /></g></g><path
       d="m 146.13827,163.85629 v -2.01433"
       style="fill:#000000;fill-opacity:1;fill-rule:nonzero;stroke:#000000;stroke-width:0.460419;stroke-linecap:butt;stroke-linejoin:round;stroke-miterlimit:10;stroke-dasharray:none;stroke-opacity:1"
       id="path100" /><g
       id="g106"
       transform="matrix(0.57552433,0,0,0.57552433,8.9216164,141.97716)"><g
         id="g108"
         clip-path="url(#clipPath112)"><path
           d="M 283.62532,38.016 V 304.128"
           style="fill:none;stroke:#b0b0b0;stroke-width:0.8;stroke-linecap:square;stroke-linejoin:round;stroke-miterlimit:10;stroke-dasharray:none;stroke-opacity:1"
           id="path114" /></g></g><path
       d="m 172.15489,163.85629 v -2.01433"
       style="fill:#000000;fill-opacity:1;fill-rule:nonzero;stroke:#000000;stroke-width:0.460419;stroke-linecap:butt;stroke-linejoin:round;stroke-miterlimit:10;stroke-dasharray:none;stroke-opacity:1"
       id="path118" /><g
       id="g124"
       transform="matrix(0.57552433,0,0,0.57552433,8.9216164,141.97716)"><g
         id="g126"
         clip-path="url(#clipPath130)"><path
           d="M 328.83038,38.016 V 304.128"
           style="fill:none;stroke:#b0b0b0;stroke-width:0.8;stroke-linecap:square;stroke-linejoin:round;stroke-miterlimit:10;stroke-dasharray:none;stroke-opacity:1"
           id="path132" /></g></g><path
       d="m 198.1715,163.85629 v -2.01433"
       style="fill:#000000;fill-opacity:1;fill-rule:nonzero;stroke:#000000;stroke-width:0.460419;stroke-linecap:butt;stroke-linejoin:round;stroke-miterlimit:10;stroke-dasharray:none;stroke-opacity:1"
       id="path136" /><g
       id="g142"
       transform="matrix(0.57552433,0,0,0.57552433,8.9216164,141.97716)"><g
         id="g144"
         clip-path="url(#clipPath148)"><path
           d="M 374.03544,38.016 V 304.128"
           style="fill:none;stroke:#b0b0b0;stroke-width:0.8;stroke-linecap:square;stroke-linejoin:round;stroke-miterlimit:10;stroke-dasharray:none;stroke-opacity:1"
           id="path150" /></g></g><path
       d="m 224.18812,163.85629 v -2.01433"
       style="fill:#000000;fill-opacity:1;fill-rule:nonzero;stroke:#000000;stroke-width:0.460419;stroke-linecap:butt;stroke-linejoin:round;stroke-miterlimit:10;stroke-dasharray:none;stroke-opacity:1"
       id="path154" /><g
       id="g164"
       transform="matrix(0.57552433,0,0,0.57552433,8.9216164,141.97716)"><g
         id="g166"
         clip-path="url(#clipPath170)"><path
           d="M 57.6,38.016 H 414.72"
           style="fill:none;stroke:#b0b0b0;stroke-width:0.8;stroke-linecap:square;stroke-linejoin:round;stroke-miterlimit:10;stroke-dasharray:none;stroke-opacity:1"
           id="path172" /></g></g><path
       d="M 42.071818,163.85629 H 40.057483"
       style="fill:#000000;fill-opacity:1;fill-rule:nonzero;stroke:#000000;stroke-width:0.460419;stroke-linecap:butt;stroke-linejoin:round;stroke-miterlimit:10;stroke-dasharray:none;stroke-opacity:1"
       id="path176" /><g
       id="g182"
       transform="matrix(0.57552433,0,0,0.57552433,8.9216164,141.97716)"><g
         id="g184"
         clip-path="url(#clipPath188)"><path
           d="M 57.6,91.2384 H 414.72"
           style="fill:none;stroke:#b0b0b0;stroke-width:0.8;stroke-linecap:square;stroke-linejoin:round;stroke-miterlimit:10;stroke-dasharray:none;stroke-opacity:1"
           id="path190" /></g></g><path
       d="M 42.071818,194.48709 H 40.057483"
       style="fill:#000000;fill-opacity:1;fill-rule:nonzero;stroke:#000000;stroke-width:0.460419;stroke-linecap:butt;stroke-linejoin:round;stroke-miterlimit:10;stroke-dasharray:none;stroke-opacity:1"
       id="path194" /><g
       id="g200"
       transform="matrix(0.57552433,0,0,0.57552433,8.9216164,141.97716)"><g
         id="g202"
         clip-path="url(#clipPath206)"><path
           d="M 57.6,144.4608 H 414.72"
           style="fill:none;stroke:#b0b0b0;stroke-width:0.8;stroke-linecap:square;stroke-linejoin:round;stroke-miterlimit:10;stroke-dasharray:none;stroke-opacity:1"
           id="path208" /></g></g><path
       d="M 42.071818,225.11787 H 40.057483"
       style="fill:#000000;fill-opacity:1;fill-rule:nonzero;stroke:#000000;stroke-width:0.460419;stroke-linecap:butt;stroke-linejoin:round;stroke-miterlimit:10;stroke-dasharray:none;stroke-opacity:1"
       id="path212" /><g
       id="g218"
       transform="matrix(0.57552433,0,0,0.57552433,8.9216164,141.97716)"><g
         id="g220"
         clip-path="url(#clipPath224)"><path
           d="M 57.6,197.6832 H 414.72"
           style="fill:none;stroke:#b0b0b0;stroke-width:0.8;stroke-linecap:square;stroke-linejoin:round;stroke-miterlimit:10;stroke-dasharray:none;stroke-opacity:1"
           id="path226" /></g></g><path
       d="M 42.071818,255.74865 H 40.057483"
       style="fill:#000000;fill-opacity:1;fill-rule:nonzero;stroke:#000000;stroke-width:0.460419;stroke-linecap:butt;stroke-linejoin:round;stroke-miterlimit:10;stroke-dasharray:none;stroke-opacity:1"
       id="path230" /><g
       id="g236"
       transform="matrix(0.57552433,0,0,0.57552433,8.9216164,141.97716)"><g
         id="g238"
         clip-path="url(#clipPath242)"><path
           d="M 57.6,250.9056 H 414.72"
           style="fill:none;stroke:#b0b0b0;stroke-width:0.8;stroke-linecap:square;stroke-linejoin:round;stroke-miterlimit:10;stroke-dasharray:none;stroke-opacity:1"
           id="path244" /></g></g><path
       d="M 42.071818,286.37944 H 40.057483"
       style="fill:#000000;fill-opacity:1;fill-rule:nonzero;stroke:#000000;stroke-width:0.460419;stroke-linecap:butt;stroke-linejoin:round;stroke-miterlimit:10;stroke-dasharray:none;stroke-opacity:1"
       id="path248" /><g
       id="g254"
       transform="matrix(0.57552433,0,0,0.57552433,8.9216164,141.97716)"><g
         id="g256"
         clip-path="url(#clipPath260)"><path
           d="M 57.6,304.128 H 414.72"
           style="fill:none;stroke:#b0b0b0;stroke-width:0.8;stroke-linecap:square;stroke-linejoin:round;stroke-miterlimit:10;stroke-dasharray:none;stroke-opacity:1"
           id="path262" /></g></g><path
       d="M 42.071818,317.01023 H 40.057483"
       style="fill:#000000;fill-opacity:1;fill-rule:nonzero;stroke:#000000;stroke-width:0.460419;stroke-linecap:butt;stroke-linejoin:round;stroke-miterlimit:10;stroke-dasharray:none;stroke-opacity:1"
       id="path266" /><path
       d="m 42.071818,295.53169 2.601661,1.20203 2.601662,-4.8132 2.601662,-4.98626 2.601661,-3.36209 2.601661,-4.10391 2.601662,-1.60827 2.601661,-1.55782 2.601661,-2.47123 2.601662,-0.11358 2.60166,-2.55491 2.601663,-1.52014 2.601663,-1.32294 2.601658,-4.36308 2.601664,-1.37478 2.601663,-0.82415 2.601658,-1.14917 2.601664,0.95728 2.601657,-1.49594 2.601663,-2.40913 2.601664,-1.54034 2.601658,-0.33068 2.601663,-2.57017 2.601661,-1.64569 2.60166,1.95958 2.60166,-1.09535 2.60166,-1.20398 2.60166,-0.17092 2.60166,-2.22799 2.60166,0.10932 2.60167,-1.82038 2.60167,-0.62557 2.60166,-0.0403 2.60166,-1.86397 2.60166,1.77694 2.60166,-0.16736 2.60166,0.92199 2.60166,-0.71895 2.60166,-0.65708 2.60167,-2.03716 2.60165,0.55127 2.60167,0.87638 2.60166,-2.56312 2.60166,1.6778 2.60166,0.83956 2.60166,-0.21222 2.60166,-0.25235 2.60167,-0.1437 2.60165,-2.57388 2.60167,0.95095 2.60166,1.45529 2.60166,2.16322 2.60166,-0.60732 2.60166,-0.38684 2.60166,-1.36344 2.60166,0.20712 2.60166,-2.16762 2.60167,-1.89669 2.60166,1.59245 2.60166,-2.18372 2.60166,1.50298 2.60166,-1.56603 2.60166,0.22424 2.60166,1.92474 2.60166,2.38417 2.60167,-2.01412 2.60167,1.89944 2.60165,1.50007 2.60167,-2.81588 2.60166,2.0214 2.60166,-3.09365 2.60166,-1.70337 2.60166,2.80832 2.60166,-0.3365 2.60167,-1.43361 2.60165,-1.161 2.60167,-1.46566 2.60166,0.54974 2.60166,-14.30183 2.60166,6.40819"
       style="fill:none;stroke:#1f77b4;stroke-width:0.863286;stroke-linecap:square;stroke-linejoin:round;stroke-miterlimit:10;stroke-dasharray:none;stroke-opacity:1"
       id="path284" /><path
       d="m 42.071818,295.21381 2.601661,1.31455 2.601662,-4.70992 2.601662,-4.79305 2.601661,-3.13895 2.601661,-3.80881 2.601662,-1.87344 2.601661,-2.00989 2.601661,-2.70432 2.601662,-0.1223 2.60166,-2.69504 2.601663,-1.46552 2.601663,-1.29714 2.601658,-4.17579 2.601664,-1.45135 2.601663,-0.94303 2.601658,-1.39538 2.601664,0.90128 2.601657,-1.46054 2.601663,-2.25588 2.601664,-1.37191 2.601658,-0.13149 2.601663,-2.64033 2.601661,-1.93688 2.60166,1.96296 2.60166,-1.27487 2.60166,-1.43181 2.60166,-0.15081 2.60166,-2.03269 2.60166,0.15489 2.60167,-1.76718 2.60167,-0.38421 2.60166,-0.0316 2.60166,-1.86566 2.60166,1.59898 2.60166,0.0989 2.60166,0.85375 2.60166,-0.77181 2.60166,-0.61895 2.60167,-2.01265 2.60165,0.32886 2.60167,1.06324 2.60166,-2.44563 2.60166,1.90528 2.60166,0.64393 2.60166,-0.53526 2.60166,0.15767 2.60167,-0.0777 2.60165,-2.53089 2.60167,0.70391 2.60166,2.07998 2.60166,1.81696 2.60166,-0.79293 2.60166,-0.27408 2.60166,-1.05276 2.60166,-0.61368 2.60166,-1.66886 2.60167,-2.23603 2.60166,1.75259 2.60166,-1.36159 2.60166,1.17475 2.60166,-1.41216 2.60166,0.10739 2.60166,2.38498 2.60166,2.14798 2.60167,-1.54823 2.60167,1.19784 2.60165,0.88152 2.60167,-1.51325 2.60166,1.37073 2.60166,-3.27221 2.60166,-1.15348 2.60166,3.35369 2.60166,-0.45672 2.60167,-1.10579 2.60165,-2.13723 2.60167,-0.87283 2.60166,-1.05633 2.60166,-4.06402 2.60166,0.41427"
       style="fill:none;stroke:#ff7f0e;stroke-width:0.863286;stroke-linecap:square;stroke-linejoin:round;stroke-miterlimit:10;stroke-dasharray:none;stroke-opacity:1"
       id="path294" /><path
       d="m 42.071818,295.25152 2.601661,1.38136 2.601662,-4.74616 2.601662,-4.45933 2.601661,-2.91499 2.601661,-3.94046 2.601662,-2.29871 2.601661,-2.29004 2.601661,-2.548 2.601662,0.17367 2.60166,-2.84375 2.601663,-1.71442 2.601663,-1.51068 2.601658,-4.18766 2.601664,-1.3682 2.601663,-1.05821 2.601658,-1.67303 2.601664,0.94338 2.601657,-1.02744 2.601663,-2.42802 2.601664,-1.0964 2.601658,-0.22027 2.601663,-2.37895 2.601661,-2.2143 2.60166,2.05926 2.60166,-1.35977 2.60166,-1.54636 2.60166,-0.3718 2.60166,-1.64312 2.60166,0.0843 2.60167,-1.75198 2.60167,-0.39547 2.60166,-0.33084 2.60166,-1.59394 2.60166,1.09907 2.60166,0.35418 2.60166,0.2843 2.60166,-0.87562 2.60166,-0.39744 2.60167,-1.95587 2.60165,-0.0917 2.60167,1.2161 2.60166,-2.54365 2.60166,1.71601 2.60166,0.83064 2.60166,-0.81429 2.60166,0.13823 2.60167,-0.48163 2.60165,-2.33467 2.60167,0.50898 2.60166,2.02601 2.60166,1.691 2.60166,-0.57811 2.60166,-0.36709 2.60166,-1.25935 2.60166,-0.0752 2.60166,-1.49023 2.60167,-2.6275 2.60166,1.41904 2.60166,-1.47176 2.60166,1.4666 2.60166,-1.03901 2.60166,0.42413 2.60166,2.23928 2.60166,2.22608 2.60167,-1.17366 2.60167,1.40116 2.60165,1.22199 2.60167,-0.87564 2.60166,1.16741 2.60166,-2.83522 2.60166,-1.15233 2.60166,1.65987 2.60166,-0.30586 2.60167,-1.25229 2.60165,-1.77454 2.60167,-1.76066 2.60166,-2.19738 2.60166,-3.45884 2.60166,-0.0246"
       style="fill:none;stroke:#2ca02c;stroke-width:0.863286;stroke-linecap:square;stroke-linejoin:round;stroke-miterlimit:10;stroke-dasharray:none;stroke-opacity:1"
       id="path304" /><path
       d="m 42.071818,295.51638 2.601661,1.42977 2.601662,-4.80033 2.601662,-4.88409 2.601661,-3.30255 2.601661,-4.01221 2.601662,-1.91466 2.601661,-2.25272 2.601661,-2.72947 2.601662,0.0373 2.60166,-2.67665 2.601663,-1.49604 2.601663,-1.34187 2.601658,-4.24571 2.601664,-1.46016 2.601663,-0.93243 2.601658,-1.4245 2.601664,0.92338 2.601657,-1.44196 2.601663,-1.87043 2.601664,-1.05315 2.601658,0.0328 2.601663,-2.01397 2.601661,-1.87344 2.60166,1.86418 2.60166,-1.2644 2.60166,-1.52492 2.60166,-0.41515 2.60166,-2.20541 2.60166,-0.33818 2.60167,-1.84051 2.60167,-0.35163 2.60166,-0.27832 2.60166,-1.63919 2.60166,1.35838 2.60166,0.0164 2.60166,0.7024 2.60166,-0.75066 2.60166,-0.65005 2.60167,-1.87634 2.60165,0.52219 2.60167,0.64151 2.60166,-2.31433 2.60166,1.10883 2.60166,0.98043 2.60166,-0.99041 2.60166,0.13067 2.60167,0.0799 2.60165,-2.07017 2.60167,0.59117 2.60166,2.44151 2.60166,1.83646 2.60166,-0.36992 2.60166,0.0723 2.60166,-1.00484 2.60166,-0.0295 2.60166,-1.71764 2.60167,-1.81454 2.60166,2.13943 2.60166,-1.30417 2.60166,0.90969 2.60166,-0.91704 2.60166,-0.25535 2.60166,2.05246 2.60166,2.17073 2.60167,-0.9989 2.60167,0.77969 2.60165,1.29804 2.60167,-2.47177 2.60166,1.48565 2.60166,-2.68642 2.60166,-1.31723 2.60166,2.77805 2.60166,-0.32153 2.60167,-1.69951 2.60165,-0.58633 2.60167,0.15521 2.60166,-3.40161 2.60166,-1.88491 2.60166,-0.0129"
       style="fill:none;stroke:#9467bd;stroke-width:0.863286;stroke-linecap:square;stroke-linejoin:round;stroke-miterlimit:10;stroke-dasharray:none;stroke-opacity:1"
       id="path314" /><path
       d="M 42.071818,163.85629 V 317.01023"
       style="fill:none;stroke:#000000;stroke-width:0.460419;stroke-linecap:square;stroke-linejoin:miter;stroke-miterlimit:10;stroke-dasharray:none;stroke-opacity:1"
       id="path328" /><path
       d="M 247.60307,163.85629 V 317.01023"
       style="fill:none;stroke:#000000;stroke-width:0.460419;stroke-linecap:square;stroke-linejoin:miter;stroke-miterlimit:10;stroke-dasharray:none;stroke-opacity:1"
       id="path330" /><path
       d="M 42.071818,163.85629 H 247.60307"
       style="fill:none;stroke:#000000;stroke-width:0.460419;stroke-linecap:square;stroke-linejoin:miter;stroke-miterlimit:10;stroke-dasharray:none;stroke-opacity:1"
       id="path332" /><path
       d="M 42.071818,317.01023 H 247.60307"
       style="fill:none;stroke:#000000;stroke-width:0.460419;stroke-linecap:square;stroke-linejoin:miter;stroke-miterlimit:10;stroke-dasharray:none;stroke-opacity:1"
       id="path334" /><path
       d="M 54.01261,206.90123 H 65.52309"
       style="fill:none;stroke:#1f77b4;stroke-width:0.863286;stroke-linecap:square;stroke-linejoin:round;stroke-miterlimit:10;stroke-dasharray:none;stroke-opacity:1"
       id="path344" /><path
       d="M 54.01261,198.4572 H 65.52309"
       style="fill:none;stroke:#ff7f0e;stroke-width:0.863286;stroke-linecap:square;stroke-linejoin:round;stroke-miterlimit:10;stroke-dasharray:none;stroke-opacity:1"
       id="path350" /><path
       d="M 54.01261,190.01318 H 65.52309"
       style="fill:none;stroke:#2ca02c;stroke-width:0.863286;stroke-linecap:square;stroke-linejoin:round;stroke-miterlimit:10;stroke-dasharray:none;stroke-opacity:1"
       id="path356" /><path
       d="M 54.01261,181.56916 H 65.52309"
       style="fill:none;stroke:#9467bd;stroke-width:0.863286;stroke-linecap:square;stroke-linejoin:round;stroke-miterlimit:10;stroke-dasharray:none;stroke-opacity:1"
       id="path362" /><path
       d="M 54.01261,173.12515 H 65.52309"
       style="fill:none;stroke:#d62728;stroke-width:0.863286;stroke-linecap:square;stroke-linejoin:round;stroke-miterlimit:10;stroke-dasharray:none;stroke-opacity:1"
       id="path368" /></g><g
     inkscape:groupmode="layer"
     id="layer1"
     inkscape:label="text"
     style="display:inline"
     transform="translate(-28.023958,-17.206424)"><text
       style="font-variant:normal;font-weight:normal;font-size:7.67366px;font-family:'DejaVu Sans';-inkscape-font-specification:DejaVuSans;writing-mode:lr-tb;fill:#000000;fill-opacity:1;fill-rule:nonzero;stroke:none;stroke-width:0.767365"
       id="text32"
       x="47.552814"
       y="253.52367"><tspan
         x="47.552814 52.433262 54.873486 59.753933"
         y="253.52367"
         sodipodi:role="line"
         id="tspan30"
         style="stroke-width:0.767365">0.00</tspan></text><text
       style="font-variant:normal;font-weight:normal;font-size:7.67366px;font-family:'DejaVu Sans';-inkscape-font-specification:DejaVuSans;writing-mode:lr-tb;fill:#000000;fill-opacity:1;fill-rule:nonzero;stroke:none;stroke-width:0.767365"
       id="text50"
       x="82.241631"
       y="253.52367"><tspan
         x="82.241631 87.122078 89.562309 94.442749"
         y="253.52367"
         sodipodi:role="line"
         id="tspan48"
         style="stroke-width:0.767365">0.25</tspan></text><text
       style="font-variant:normal;font-weight:normal;font-size:7.67366px;font-family:'DejaVu Sans';-inkscape-font-specification:DejaVuSans;writing-mode:lr-tb;fill:#000000;fill-opacity:1;fill-rule:nonzero;stroke:none;stroke-width:0.767365"
       id="text68"
       x="116.93044"
       y="253.52367"><tspan
         x="116.93044 121.81089 124.25112 129.13158"
         y="253.52367"
         sodipodi:role="line"
         id="tspan66"
         style="stroke-width:0.767365">0.50</tspan></text><text
       style="font-variant:normal;font-weight:normal;font-size:7.67366px;font-family:'DejaVu Sans';-inkscape-font-specification:DejaVuSans;writing-mode:lr-tb;fill:#000000;fill-opacity:1;fill-rule:nonzero;stroke:none;stroke-width:0.767365"
       id="text86"
       x="151.61926"
       y="253.52367"><tspan
         x="151.61926 156.49973 158.93994 163.82039"
         y="253.52367"
         sodipodi:role="line"
         id="tspan84"
         style="stroke-width:0.767365">0.75</tspan></text><text
       style="font-variant:normal;font-weight:normal;font-size:7.67366px;font-family:'DejaVu Sans';-inkscape-font-specification:DejaVuSans;writing-mode:lr-tb;fill:#000000;fill-opacity:1;fill-rule:nonzero;stroke:none;stroke-width:0.767365"
       id="text104"
       x="186.30811"
       y="253.52367"><tspan
         x="186.30811 191.18854 193.62875 198.5092"
         y="253.52367"
         sodipodi:role="line"
         id="tspan102"
         style="stroke-width:0.767365">1.00</tspan></text><text
       style="font-variant:normal;font-weight:normal;font-size:7.67366px;font-family:'DejaVu Sans';-inkscape-font-specification:DejaVuSans;writing-mode:lr-tb;fill:#000000;fill-opacity:1;fill-rule:nonzero;stroke:none;stroke-width:0.767365"
       id="text122"
       x="220.9969"
       y="253.52367"><tspan
         x="220.9969 225.87735 228.31758 233.198"
         y="253.52367"
         sodipodi:role="line"
         id="tspan120"
         style="stroke-width:0.767365">1.25</tspan></text><text
       style="font-variant:normal;font-weight:normal;font-size:7.67366px;font-family:'DejaVu Sans';-inkscape-font-specification:DejaVuSans;writing-mode:lr-tb;fill:#000000;fill-opacity:1;fill-rule:nonzero;stroke:none;stroke-width:0.767365"
       id="text140"
       x="255.68573"
       y="253.52367"><tspan
         x="255.68573 260.56616 263.00641 267.88684"
         y="253.52367"
         sodipodi:role="line"
         id="tspan138"
         style="stroke-width:0.767365">1.50</tspan></text><text
       style="font-variant:normal;font-weight:normal;font-size:7.67366px;font-family:'DejaVu Sans';-inkscape-font-specification:DejaVuSans;writing-mode:lr-tb;fill:#000000;fill-opacity:1;fill-rule:nonzero;stroke:none;stroke-width:0.767365"
       id="text158"
       x="290.37454"
       y="253.52367"><tspan
         x="290.37454 295.255 297.69519 302.57568"
         y="253.52367"
         sodipodi:role="line"
         id="tspan156"
         style="stroke-width:0.767365">1.75</tspan></text><text
       style="font-variant:normal;font-weight:normal;font-size:7.67366px;font-family:'DejaVu Sans';-inkscape-font-specification:DejaVuSans;writing-mode:lr-tb;fill:#000000;fill-opacity:1;fill-rule:nonzero;stroke:none;stroke-width:0.767365"
       id="text162"
       x="146.67297"
       y="264.01523"><tspan
         x="146.67297 152.62006 157.33936 162.20445 166.90073 174.37486 176.50815 180.72867 183.1689 188.04166 190.17493 194.17291 197.18098 201.88495 206.75003 210.97057 215.68985 218.13007 220.71609 223.15631 229.77867 234.65146"
         y="264.01523"
         sodipodi:role="line"
         id="tspan160"
         style="stroke-width:0.767365">Genomic distance / Mbp</tspan></text><text
       style="font-variant:normal;font-weight:normal;font-size:7.67366px;font-family:'DejaVu Sans';-inkscape-font-specification:DejaVuSans;writing-mode:lr-tb;fill:#000000;fill-opacity:1;fill-rule:nonzero;stroke:none;stroke-width:0.767365"
       id="text180"
       x="38.518284"
       y="245.23851"><tspan
         x="38.518284 43.398727 45.838951"
         y="245.23851"
         sodipodi:role="line"
         id="tspan178"
         style="stroke-width:0.767365">0.0</tspan></text><text
       style="font-variant:normal;font-weight:normal;font-size:7.67366px;font-family:'DejaVu Sans';-inkscape-font-specification:DejaVuSans;writing-mode:lr-tb;fill:#000000;fill-opacity:1;fill-rule:nonzero;stroke:none;stroke-width:0.767365"
       id="text198"
       x="38.518284"
       y="204.39746"><tspan
         x="38.518284 43.398727 45.838951"
         y="204.39746"
         sodipodi:role="line"
         id="tspan196"
         style="stroke-width:0.767365">0.2</tspan></text><text
       style="font-variant:normal;font-weight:normal;font-size:7.67366px;font-family:'DejaVu Sans';-inkscape-font-specification:DejaVuSans;writing-mode:lr-tb;fill:#000000;fill-opacity:1;fill-rule:nonzero;stroke:none;stroke-width:0.767365"
       id="text216"
       x="38.518284"
       y="163.55641"><tspan
         x="38.518284 43.398727 45.838951"
         y="163.55641"
         sodipodi:role="line"
         id="tspan214"
         style="stroke-width:0.767365">0.4</tspan></text><text
       style="font-variant:normal;font-weight:normal;font-size:7.67366px;font-family:'DejaVu Sans';-inkscape-font-specification:DejaVuSans;writing-mode:lr-tb;fill:#000000;fill-opacity:1;fill-rule:nonzero;stroke:none;stroke-width:0.767365"
       id="text234"
       x="38.518284"
       y="122.71535"><tspan
         x="38.518284 43.398727 45.838951"
         y="122.71535"
         sodipodi:role="line"
         id="tspan232"
         style="stroke-width:0.767365">0.6</tspan></text><text
       style="font-variant:normal;font-weight:normal;font-size:7.67366px;font-family:'DejaVu Sans';-inkscape-font-specification:DejaVuSans;writing-mode:lr-tb;fill:#000000;fill-opacity:1;fill-rule:nonzero;stroke:none;stroke-width:0.767365"
       id="text252"
       x="38.518284"
       y="81.874329"><tspan
         x="38.518284 43.398727 45.838951"
         y="81.874329"
         sodipodi:role="line"
         id="tspan250"
         style="stroke-width:0.767365">0.8</tspan></text><text
       style="font-variant:normal;font-weight:normal;font-size:7.67366px;font-family:'DejaVu Sans';-inkscape-font-specification:DejaVuSans;writing-mode:lr-tb;fill:#000000;fill-opacity:1;fill-rule:nonzero;stroke:none;stroke-width:0.767365"
       id="text270"
       x="38.518284"
       y="41.03334"><tspan
         x="38.518284 43.398727 45.838951"
         y="41.03334"
         sodipodi:role="line"
         id="tspan268"
         style="stroke-width:0.767365">1.0</tspan></text><text
       transform="rotate(-90)"
       style="font-variant:normal;font-weight:normal;font-size:7.67366px;font-family:'DejaVu Sans';-inkscape-font-specification:DejaVuSans;writing-mode:lr-tb;fill:#000000;fill-opacity:1;fill-rule:nonzero;stroke:none;stroke-width:0.767365"
       id="text274"
       x="-177.29565"
       y="33.854141"><tspan
         x="-177.29565 -172.66844 -167.94914 -163.24519 -160.09131 -156.09335 -151.39706 -146.53197 -144.09175 -139.87123 -135.17496 -132.02107 -128.8672 -124.14792 -122.01463 -117.31068 -114.3026 -112.16933 -107.47305"
         y="33.854141"
         sodipodi:role="line"
         id="tspan272"
         style="stroke-width:0.767365">Pearson correlation</tspan></text><text
       style="font-variant:normal;font-weight:normal;font-size:9.20839px;font-family:'DejaVu Sans';-inkscape-font-specification:DejaVuSans;writing-mode:lr-tb;fill:#000000;fill-opacity:1;fill-rule:nonzero;stroke:none;stroke-width:0.767365"
       id="text338"
       x="98.352905"
       y="23.194473"><tspan
         x="98.352905 103.90558 109.56873 115.21348 118.99812 123.79568 129.43123 135.26935 138.1976 143.26222 148.89775 152.68242 156.46706 162.13022 164.69014 170.33488 173.94458 176.5045 182.14005 187.97815 190.90643 196.3578 201.15538 204.08363 207.01192 212.85924 218.5224 224.3605 229.99603 238.965 241.52493 246.58957 249.51782 255.36516 257.92508 262.72266 266.33237 271.97708 277.81519 282.87982"
         y="23.194473"
         sodipodi:role="line"
         id="tspan336"
         style="stroke-width:0.767365">Pearson correlation vs. genomic distance</tspan></text><text
       style="font-variant:normal;font-weight:normal;font-size:7.67366px;font-family:'DejaVu Sans';-inkscape-font-specification:DejaVuSans;writing-mode:lr-tb;fill:#000000;fill-opacity:1;fill-rule:nonzero;stroke:none;stroke-width:0.767365"
       id="text348"
       x="93.503052"
       y="187.61763"><tspan
         x="93.503052 97.723557 102.41983 109.89397 114.76674 117.20695 119.6472 121.78047 126.47675 130.47472 134.47269 136.91293 139.35315 144.23358 149.11403 153.99448 158.71378 163.58655 166.02679 168.61282 171.05304 176.30179 181.91895 187.27512 189.86118 192.30136 197.18182 199.62201 204.5025 209.38293"
         y="187.61763"
         sodipodi:role="line"
         id="tspan346"
         style="stroke-width:0.767365">comb. loss, 250ep / AUC: 0.573</tspan></text><text
       style="font-variant:normal;font-weight:normal;font-size:7.67366px;font-family:'DejaVu Sans';-inkscape-font-specification:DejaVuSans;writing-mode:lr-tb;fill:#000000;fill-opacity:1;fill-rule:nonzero;stroke:none;stroke-width:0.767365"
       id="text354"
       x="93.503052"
       y="198.87631"><tspan
         x="93.503052 97.723557 102.41983 109.89397 114.76674 117.20695 119.6472 121.78047 126.47675 130.47472 134.47269 136.91293 139.35315 144.23358 149.11403 153.99448 158.71378 163.58655 166.02679 168.61282 171.05304 176.30179 181.91895 187.27512 189.86118 192.30136 197.18182 199.62201 204.5025 209.38293"
         y="198.87631"
         sodipodi:role="line"
         id="tspan352"
         style="stroke-width:0.767365">comb. loss, 500ep / AUC: 0.573</tspan></text><text
       style="font-variant:normal;font-weight:normal;font-size:7.67366px;font-family:'DejaVu Sans';-inkscape-font-specification:DejaVuSans;writing-mode:lr-tb;fill:#000000;fill-opacity:1;fill-rule:nonzero;stroke:none;stroke-width:0.767365"
       id="text360"
       x="93.503052"
       y="210.13493"><tspan
         x="93.503052 97.723557 102.41983 109.89397 114.76674 117.20695 119.6472 121.78047 126.47675 130.47472 134.47269 136.91293 139.35315 144.23358 149.11403 153.99448 158.87494 163.59424 168.46701 170.90723 173.49323 175.93347 181.18225 186.79935 192.15558 194.74161 197.18182 202.06229 204.5025 209.38293 214.2634"
         y="210.13493"
         sodipodi:role="line"
         id="tspan358"
         style="stroke-width:0.767365">comb. loss, 1000ep / AUC: 0.567</tspan></text><text
       style="font-variant:normal;font-weight:normal;font-size:7.67366px;font-family:'DejaVu Sans';-inkscape-font-specification:DejaVuSans;writing-mode:lr-tb;fill:#000000;fill-opacity:1;fill-rule:nonzero;stroke:none;stroke-width:0.767365"
       id="text366"
       x="93.503052"
       y="221.39363"><tspan
         x="93.503052 95.636322 100.50142 102.63469 105.64278 107.77605 112.48 114.61328 117.0535 119.49371 124.37418 129.25461 134.13507 138.85437 143.72711 146.16736 148.75339 151.19359 156.44238 162.05951 167.41571 170.00174 172.44196 177.32242 179.76263 184.64307 189.52353"
         y="221.39363"
         sodipodi:role="line"
         id="tspan364"
         style="stroke-width:0.767365">initial, 500ep / AUC: 0.575</tspan></text><text
       style="font-variant:normal;font-weight:normal;font-size:7.67366px;font-family:'DejaVu Sans';-inkscape-font-specification:DejaVuSans;writing-mode:lr-tb;fill:#000000;fill-opacity:1;fill-rule:nonzero;stroke:none;stroke-width:0.767365"
       id="text372"
       x="93.503052"
       y="232.65233"><tspan
         x="93.503052 96.511108 99.664978 104.36894 109.23405 113.23201 115.93315 120.65244 123.8063 126.24654 132.19362 138.81598 143.69643 148.57687 153.45734 158.33777 163.21823 165.65845 168.24448 170.68466 175.93347 181.5506 186.9068 189.49283 191.93304 196.81348 199.25372 204.13412 209.01462"
         y="232.65233"
         sodipodi:role="line"
         id="tspan370"
         style="stroke-width:0.767365">transfer GM12878 / AUC: 0.720</tspan></text><text
       style="font-variant:normal;font-weight:normal;font-size:9.20839px;font-family:'DejaVu Sans';-inkscape-font-specification:DejaVuSans;writing-mode:lr-tb;fill:#000000;fill-opacity:1;fill-rule:nonzero;stroke:none;stroke-width:0.767365"
       id="text342"
       x="61.072407"
       y="33.515553"><tspan
         x="61.072407 68.208916 76.155754 82.012291 87.86882 93.725349 99.581886 105.43842 108.3667 111.29497 117.1515 120.07979 125.9363 128.86456 134.7211 137.64938 143.50592 146.43419 152.29073 155.21899 161.07552 166.93204 169.86032 175.71686 181.57339 184.50166 190.35818 196.21472 199.14299 204.99953 210.85606 213.78433 219.64087 225.49742 228.42567 234.28221 240.13875 243.06702 248.92355 254.78011 257.70834 263.56491 269.42145 272.3497 277.98523 283.82336 286.75162 292.79233 298.64886 304.50537 310.36194 313.29019 316.21848 322.07498"
         y="33.515553"
         sodipodi:role="line"
         id="tspan340"
         style="stroke-width:0.767365">GM12878, 1,2,4,7,9,11,13,14,16,17,18,20,22 on K562, 10</tspan></text></g></svg>
