<?xml version="1.0" encoding="UTF-8" standalone="no"?>
<svg
   xmlns:dc="http://purl.org/dc/elements/1.1/"
   xmlns:cc="http://creativecommons.org/ns#"
   xmlns:rdf="http://www.w3.org/1999/02/22-rdf-syntax-ns#"
   xmlns:svg="http://www.w3.org/2000/svg"
   xmlns="http://www.w3.org/2000/svg"
   xmlns:sodipodi="http://sodipodi.sourceforge.net/DTD/sodipodi-0.dtd"
   xmlns:inkscape="http://www.inkscape.org/namespaces/inkscape"
   version="1.1"
   id="svg2"
   xml:space="preserve"
   width="80mm"
   height="65.300003mm"
   viewBox="0 0 302.36219 246.80316"
   sodipodi:docname="pearson_chr05.svg"
   inkscape:version="1.0.2 (1.0.2+r75+1)"><metadata
     id="metadata8"><rdf:RDF><cc:Work
         rdf:about=""><dc:format>image/svg+xml</dc:format><dc:type
           rdf:resource="http://purl.org/dc/dcmitype/StillImage" /><dc:title /></cc:Work></rdf:RDF></metadata><defs
     id="defs6"><clipPath
       clipPathUnits="userSpaceOnUse"
       id="clipPath22"><path
         d="M 57.6,38.016 H 414.72 V 304.128 H 57.6 Z"
         id="path20" /></clipPath><clipPath
       clipPathUnits="userSpaceOnUse"
       id="clipPath40"><path
         d="M 57.6,38.016 H 414.72 V 304.128 H 57.6 Z"
         id="path38" /></clipPath><clipPath
       clipPathUnits="userSpaceOnUse"
       id="clipPath58"><path
         d="M 57.6,38.016 H 414.72 V 304.128 H 57.6 Z"
         id="path56" /></clipPath><clipPath
       clipPathUnits="userSpaceOnUse"
       id="clipPath76"><path
         d="M 57.6,38.016 H 414.72 V 304.128 H 57.6 Z"
         id="path74" /></clipPath><clipPath
       clipPathUnits="userSpaceOnUse"
       id="clipPath94"><path
         d="M 57.6,38.016 H 414.72 V 304.128 H 57.6 Z"
         id="path92" /></clipPath><clipPath
       clipPathUnits="userSpaceOnUse"
       id="clipPath112"><path
         d="M 57.6,38.016 H 414.72 V 304.128 H 57.6 Z"
         id="path110" /></clipPath><clipPath
       clipPathUnits="userSpaceOnUse"
       id="clipPath130"><path
         d="M 57.6,38.016 H 414.72 V 304.128 H 57.6 Z"
         id="path128" /></clipPath><clipPath
       clipPathUnits="userSpaceOnUse"
       id="clipPath148"><path
         d="M 57.6,38.016 H 414.72 V 304.128 H 57.6 Z"
         id="path146" /></clipPath><clipPath
       clipPathUnits="userSpaceOnUse"
       id="clipPath170"><path
         d="M 57.6,38.016 H 414.72 V 304.128 H 57.6 Z"
         id="path168" /></clipPath><clipPath
       clipPathUnits="userSpaceOnUse"
       id="clipPath188"><path
         d="M 57.6,38.016 H 414.72 V 304.128 H 57.6 Z"
         id="path186" /></clipPath><clipPath
       clipPathUnits="userSpaceOnUse"
       id="clipPath206"><path
         d="M 57.6,38.016 H 414.72 V 304.128 H 57.6 Z"
         id="path204" /></clipPath><clipPath
       clipPathUnits="userSpaceOnUse"
       id="clipPath224"><path
         d="M 57.6,38.016 H 414.72 V 304.128 H 57.6 Z"
         id="path222" /></clipPath><clipPath
       clipPathUnits="userSpaceOnUse"
       id="clipPath242"><path
         d="M 57.6,38.016 H 414.72 V 304.128 H 57.6 Z"
         id="path240" /></clipPath><clipPath
       clipPathUnits="userSpaceOnUse"
       id="clipPath260"><path
         d="M 57.6,38.016 H 414.72 V 304.128 H 57.6 Z"
         id="path258" /></clipPath><clipPath
       clipPathUnits="userSpaceOnUse"
       id="clipPath282"><path
         d="M 57.6,38.016 H 414.72 V 304.128 H 57.6 Z"
         id="path280" /></clipPath><clipPath
       clipPathUnits="userSpaceOnUse"
       id="clipPath292"><path
         d="M 57.6,38.016 H 414.72 V 304.128 H 57.6 Z"
         id="path290" /></clipPath><clipPath
       clipPathUnits="userSpaceOnUse"
       id="clipPath302"><path
         d="M 57.6,38.016 H 414.72 V 304.128 H 57.6 Z"
         id="path300" /></clipPath><clipPath
       clipPathUnits="userSpaceOnUse"
       id="clipPath312"><path
         d="M 57.6,38.016 H 414.72 V 304.128 H 57.6 Z"
         id="path310" /></clipPath><clipPath
       clipPathUnits="userSpaceOnUse"
       id="clipPath322"><path
         d="M 57.6,38.016 H 414.72 V 304.128 H 57.6 Z"
         id="path320" /></clipPath></defs><sodipodi:namedview
     pagecolor="#ffffff"
     bordercolor="#666666"
     borderopacity="1"
     objecttolerance="10"
     gridtolerance="10"
     guidetolerance="10"
     inkscape:pageopacity="0"
     inkscape:pageshadow="2"
     inkscape:window-width="1920"
     inkscape:window-height="1020"
     id="namedview4"
     showgrid="false"
     fit-margin-top="0"
     fit-margin-left="0"
     fit-margin-right="0"
     fit-margin-bottom="0"
     units="mm"
     inkscape:zoom="1.8598091"
     inkscape:cx="84.788859"
     inkscape:cy="191.48693"
     inkscape:window-x="0"
     inkscape:window-y="0"
     inkscape:window-maximized="1"
     inkscape:current-layer="layer1"
     inkscape:document-rotation="0" /><g
     id="g10"
     inkscape:groupmode="layer"
     inkscape:label="pearson_chr05"
     transform="matrix(1.3333333,0,0,-1.3333333,-28.023958,443.59358)"><g
       id="g16"
       transform="matrix(0.57535771,0,0,0.57535771,8.9251186,141.98219)"><g
         id="g18"
         clip-path="url(#clipPath22)"><path
           d="M 57.6,38.016 V 304.128"
           style="fill:none;stroke:#b0b0b0;stroke-width:0.8;stroke-linecap:square;stroke-linejoin:round;stroke-miterlimit:10;stroke-dasharray:none;stroke-opacity:1"
           id="path24" /></g></g><path
       d="m 42.065722,163.85499 v -2.01376"
       style="fill:#000000;fill-opacity:1;fill-rule:nonzero;stroke:#000000;stroke-width:0.460286;stroke-linecap:butt;stroke-linejoin:round;stroke-miterlimit:10;stroke-dasharray:none;stroke-opacity:1"
       id="path28" /><g
       id="g34"
       transform="matrix(0.57535771,0,0,0.57535771,8.9251186,141.98219)"><g
         id="g36"
         clip-path="url(#clipPath40)"><path
           d="M 102.80506,38.016 V 304.128"
           style="fill:none;stroke:#b0b0b0;stroke-width:0.8;stroke-linecap:square;stroke-linejoin:round;stroke-miterlimit:10;stroke-dasharray:none;stroke-opacity:1"
           id="path42" /></g></g><path
       d="m 68.074802,163.85499 v -2.01376"
       style="fill:#000000;fill-opacity:1;fill-rule:nonzero;stroke:#000000;stroke-width:0.460286;stroke-linecap:butt;stroke-linejoin:round;stroke-miterlimit:10;stroke-dasharray:none;stroke-opacity:1"
       id="path46" /><g
       id="g52"
       transform="matrix(0.57535771,0,0,0.57535771,8.9251186,141.98219)"><g
         id="g54"
         clip-path="url(#clipPath58)"><path
           d="M 148.01013,38.016 V 304.128"
           style="fill:none;stroke:#b0b0b0;stroke-width:0.8;stroke-linecap:square;stroke-linejoin:round;stroke-miterlimit:10;stroke-dasharray:none;stroke-opacity:1"
           id="path60" /></g></g><path
       d="m 94.083888,163.85499 v -2.01376"
       style="fill:#000000;fill-opacity:1;fill-rule:nonzero;stroke:#000000;stroke-width:0.460286;stroke-linecap:butt;stroke-linejoin:round;stroke-miterlimit:10;stroke-dasharray:none;stroke-opacity:1"
       id="path64" /><g
       id="g70"
       transform="matrix(0.57535771,0,0,0.57535771,8.9251186,141.98219)"><g
         id="g72"
         clip-path="url(#clipPath76)"><path
           d="M 193.21519,38.016 V 304.128"
           style="fill:none;stroke:#b0b0b0;stroke-width:0.8;stroke-linecap:square;stroke-linejoin:round;stroke-miterlimit:10;stroke-dasharray:none;stroke-opacity:1"
           id="path78" /></g></g><path
       d="m 120.09297,163.85499 v -2.01376"
       style="fill:#000000;fill-opacity:1;fill-rule:nonzero;stroke:#000000;stroke-width:0.460286;stroke-linecap:butt;stroke-linejoin:round;stroke-miterlimit:10;stroke-dasharray:none;stroke-opacity:1"
       id="path82" /><g
       id="g88"
       transform="matrix(0.57535771,0,0,0.57535771,8.9251186,141.98219)"><g
         id="g90"
         clip-path="url(#clipPath94)"><path
           d="M 238.42025,38.016 V 304.128"
           style="fill:none;stroke:#b0b0b0;stroke-width:0.8;stroke-linecap:square;stroke-linejoin:round;stroke-miterlimit:10;stroke-dasharray:none;stroke-opacity:1"
           id="path96" /></g></g><path
       d="m 146.10205,163.85499 v -2.01376"
       style="fill:#000000;fill-opacity:1;fill-rule:nonzero;stroke:#000000;stroke-width:0.460286;stroke-linecap:butt;stroke-linejoin:round;stroke-miterlimit:10;stroke-dasharray:none;stroke-opacity:1"
       id="path100" /><g
       id="g106"
       transform="matrix(0.57535771,0,0,0.57535771,8.9251186,141.98219)"><g
         id="g108"
         clip-path="url(#clipPath112)"><path
           d="M 283.62532,38.016 V 304.128"
           style="fill:none;stroke:#b0b0b0;stroke-width:0.8;stroke-linecap:square;stroke-linejoin:round;stroke-miterlimit:10;stroke-dasharray:none;stroke-opacity:1"
           id="path114" /></g></g><path
       d="m 172.11113,163.85499 v -2.01376"
       style="fill:#000000;fill-opacity:1;fill-rule:nonzero;stroke:#000000;stroke-width:0.460286;stroke-linecap:butt;stroke-linejoin:round;stroke-miterlimit:10;stroke-dasharray:none;stroke-opacity:1"
       id="path118" /><g
       id="g124"
       transform="matrix(0.57535771,0,0,0.57535771,8.9251186,141.98219)"><g
         id="g126"
         clip-path="url(#clipPath130)"><path
           d="M 328.83038,38.016 V 304.128"
           style="fill:none;stroke:#b0b0b0;stroke-width:0.8;stroke-linecap:square;stroke-linejoin:round;stroke-miterlimit:10;stroke-dasharray:none;stroke-opacity:1"
           id="path132" /></g></g><path
       d="m 198.12021,163.85499 v -2.01376"
       style="fill:#000000;fill-opacity:1;fill-rule:nonzero;stroke:#000000;stroke-width:0.460286;stroke-linecap:butt;stroke-linejoin:round;stroke-miterlimit:10;stroke-dasharray:none;stroke-opacity:1"
       id="path136" /><g
       id="g142"
       transform="matrix(0.57535771,0,0,0.57535771,8.9251186,141.98219)"><g
         id="g144"
         clip-path="url(#clipPath148)"><path
           d="M 374.03544,38.016 V 304.128"
           style="fill:none;stroke:#b0b0b0;stroke-width:0.8;stroke-linecap:square;stroke-linejoin:round;stroke-miterlimit:10;stroke-dasharray:none;stroke-opacity:1"
           id="path150" /></g></g><path
       d="m 224.12929,163.85499 v -2.01376"
       style="fill:#000000;fill-opacity:1;fill-rule:nonzero;stroke:#000000;stroke-width:0.460286;stroke-linecap:butt;stroke-linejoin:round;stroke-miterlimit:10;stroke-dasharray:none;stroke-opacity:1"
       id="path154" /><g
       id="g164"
       transform="matrix(0.57535771,0,0,0.57535771,8.9251186,141.98219)"><g
         id="g166"
         clip-path="url(#clipPath170)"><path
           d="M 57.6,38.016 H 414.72"
           style="fill:none;stroke:#b0b0b0;stroke-width:0.8;stroke-linecap:square;stroke-linejoin:round;stroke-miterlimit:10;stroke-dasharray:none;stroke-opacity:1"
           id="path172" /></g></g><path
       d="M 42.065722,163.85499 H 40.05197"
       style="fill:#000000;fill-opacity:1;fill-rule:nonzero;stroke:#000000;stroke-width:0.460286;stroke-linecap:butt;stroke-linejoin:round;stroke-miterlimit:10;stroke-dasharray:none;stroke-opacity:1"
       id="path176" /><g
       id="g182"
       transform="matrix(0.57535771,0,0,0.57535771,8.9251186,141.98219)"><g
         id="g184"
         clip-path="url(#clipPath188)"><path
           d="M 57.6,91.2384 H 414.72"
           style="fill:none;stroke:#b0b0b0;stroke-width:0.8;stroke-linecap:square;stroke-linejoin:round;stroke-miterlimit:10;stroke-dasharray:none;stroke-opacity:1"
           id="path190" /></g></g><path
       d="M 42.065722,194.47691 H 40.05197"
       style="fill:#000000;fill-opacity:1;fill-rule:nonzero;stroke:#000000;stroke-width:0.460286;stroke-linecap:butt;stroke-linejoin:round;stroke-miterlimit:10;stroke-dasharray:none;stroke-opacity:1"
       id="path194" /><g
       id="g200"
       transform="matrix(0.57535771,0,0,0.57535771,8.9251186,141.98219)"><g
         id="g202"
         clip-path="url(#clipPath206)"><path
           d="M 57.6,144.4608 H 414.72"
           style="fill:none;stroke:#b0b0b0;stroke-width:0.8;stroke-linecap:square;stroke-linejoin:round;stroke-miterlimit:10;stroke-dasharray:none;stroke-opacity:1"
           id="path208" /></g></g><path
       d="M 42.065722,225.09882 H 40.05197"
       style="fill:#000000;fill-opacity:1;fill-rule:nonzero;stroke:#000000;stroke-width:0.460286;stroke-linecap:butt;stroke-linejoin:round;stroke-miterlimit:10;stroke-dasharray:none;stroke-opacity:1"
       id="path212" /><g
       id="g218"
       transform="matrix(0.57535771,0,0,0.57535771,8.9251186,141.98219)"><g
         id="g220"
         clip-path="url(#clipPath224)"><path
           d="M 57.6,197.6832 H 414.72"
           style="fill:none;stroke:#b0b0b0;stroke-width:0.8;stroke-linecap:square;stroke-linejoin:round;stroke-miterlimit:10;stroke-dasharray:none;stroke-opacity:1"
           id="path226" /></g></g><path
       d="M 42.065722,255.72074 H 40.05197"
       style="fill:#000000;fill-opacity:1;fill-rule:nonzero;stroke:#000000;stroke-width:0.460286;stroke-linecap:butt;stroke-linejoin:round;stroke-miterlimit:10;stroke-dasharray:none;stroke-opacity:1"
       id="path230" /><g
       id="g236"
       transform="matrix(0.57535771,0,0,0.57535771,8.9251186,141.98219)"><g
         id="g238"
         clip-path="url(#clipPath242)"><path
           d="M 57.6,250.9056 H 414.72"
           style="fill:none;stroke:#b0b0b0;stroke-width:0.8;stroke-linecap:square;stroke-linejoin:round;stroke-miterlimit:10;stroke-dasharray:none;stroke-opacity:1"
           id="path244" /></g></g><path
       d="M 42.065722,286.34266 H 40.05197"
       style="fill:#000000;fill-opacity:1;fill-rule:nonzero;stroke:#000000;stroke-width:0.460286;stroke-linecap:butt;stroke-linejoin:round;stroke-miterlimit:10;stroke-dasharray:none;stroke-opacity:1"
       id="path248" /><g
       id="g254"
       transform="matrix(0.57535771,0,0,0.57535771,8.9251186,141.98219)"><g
         id="g256"
         clip-path="url(#clipPath260)"><path
           d="M 57.6,304.128 H 414.72"
           style="fill:none;stroke:#b0b0b0;stroke-width:0.8;stroke-linecap:square;stroke-linejoin:round;stroke-miterlimit:10;stroke-dasharray:none;stroke-opacity:1"
           id="path262" /></g></g><g
       id="g276"
       transform="matrix(0.57535771,0,0,0.57535771,8.9251186,141.98219)"><g
         id="g278"
         clip-path="url(#clipPath282)"><path
           d="m 57.6,259.81533 4.520506,4.56992 4.520507,-7.97791 4.520506,-10.61562 4.520506,-7.83357 4.520507,-5.56244 4.520506,-3.6621 4.520506,-4.12436 4.520507,-4.02727 4.520506,0.93234 4.520503,-1.11845 4.52051,-6.17431 4.52051,-1.34745 4.5205,-4.25603 4.52051,-4.66047 4.52051,-4.08255 4.5205,-0.55766 4.52051,-1.48695 4.5205,0.0353 4.52051,-1.47782 4.52051,-2.3025 4.5205,-1.2195 4.52051,-2.18468 4.52051,1.30833 4.5205,-0.99567 4.52051,-1.77024 4.5205,-4.07233 4.52051,2.44608 4.52051,-5.45086 4.5205,-0.73898 4.52051,-1.12792 4.52051,-1.8923 4.5205,-1.11442 4.52051,-3.68507 4.5205,-2.11285 4.52051,-1.30808 4.52051,-2.47117 4.5205,1.33532 4.52051,-2.82282 4.52051,0.40273 4.5205,-3.1663 4.52051,-1.06966 4.52051,2.4317 4.5205,-2.51964 4.52051,-1.02854 4.5205,2.15593 4.52051,1.08533 4.52051,-2.46146 4.5205,1.82712 4.52051,-2.63524 4.52051,-2.00872 4.5205,1.63977 4.52051,2.34002 4.5205,-1.61115 4.52051,1.03506 4.52051,-0.51559 4.5205,-2.79202 4.52051,-2.71596 4.52051,0.3721 4.5205,3.8089 4.52051,-0.92499 4.52051,-2.65298 4.5205,0.88511 4.52051,2.6779 4.5205,0.44349 4.52051,-3.55241 4.52051,0.85822 4.5205,-2.61533 4.52051,1.806 4.52051,0.55298 4.5205,-1.91406 4.52051,1.21158 4.52051,-1.55246 4.5205,3.79473 m 9.04101,-15.56488 4.52051,-1.92849 4.52051,3.29536"
           style="fill:none;stroke:#1f77b4;stroke-width:1.5;stroke-linecap:square;stroke-linejoin:round;stroke-miterlimit:10;stroke-dasharray:none;stroke-opacity:1"
           id="path284" /></g></g><g
       id="g286"
       transform="matrix(0.57535771,0,0,0.57535771,8.9251186,141.98219)"><g
         id="g288"
         clip-path="url(#clipPath292)"><path
           d="m 57.6,262.482 4.520506,4.50694 4.520507,-8.32875 4.520506,-10.39816 4.520506,-7.75308 4.520507,-5.51757 4.520506,-4.21094 4.520506,-4.71108 4.520507,-4.39299 4.520506,1.04864 4.520503,-1.59089 4.52051,-6.17838 4.52051,-1.50745 4.5205,-3.92702 4.52051,-5.0639 4.52051,-4.49258 4.5205,-0.8773 4.52051,-1.58939 4.5205,0.20928 4.52051,-1.40846 4.52051,-2.26937 4.5205,-1.93077 4.52051,-2.30771 4.52051,1.06284 4.5205,-1.55868 4.52051,-1.02401 4.5205,-4.55473 4.52051,1.88437 4.52051,-4.96703 4.5205,-0.5964 4.52051,-1.0876 4.52051,-1.37431 4.5205,-1.09662 4.52051,-3.44415 4.5205,-2.28406 4.52051,-0.8996 4.52051,-2.73117 4.5205,1.54935 4.52051,-2.78059 4.52051,0.38298 4.5205,-3.68558 4.52051,-0.56264 4.52051,2.49779 4.5205,-2.62226 4.52051,-1.36274 4.5205,1.81967 4.52051,-0.0531 4.52051,-3.08248 4.5205,3.26573 4.52051,-3.77528 4.52051,-1.3966 4.5205,0.4974 4.52051,2.48459 4.5205,-2.14535 4.52051,1.5315 4.52051,-1.00391 4.5205,-1.83512 4.52051,-3.06089 4.52051,-0.35732 4.5205,3.65785 4.52051,-0.40805 4.52051,-2.30277 4.5205,-0.48518 4.52051,2.82223 4.5205,0.22008 4.52051,-1.38545 4.52051,0.01 4.5205,-2.3479 4.52051,-0.73489 4.52051,-3.49226 4.5205,9.64002 4.52051,3.62336 4.52051,-8.99933 4.5205,-0.7063 m 9.04101,-9.50114 4.52051,4.56995 4.52051,-4.44779"
           style="fill:none;stroke:#ff7f0e;stroke-width:1.5;stroke-linecap:square;stroke-linejoin:round;stroke-miterlimit:10;stroke-dasharray:none;stroke-opacity:1"
           id="path294" /></g></g><path
       d="M 42.065722,316.96458 H 40.05197"
       style="fill:#000000;fill-opacity:1;fill-rule:nonzero;stroke:#000000;stroke-width:0.460286;stroke-linecap:butt;stroke-linejoin:round;stroke-miterlimit:10;stroke-dasharray:none;stroke-opacity:1"
       id="path266" /><g
       id="g296"
       transform="matrix(0.57535771,0,0,0.57535771,8.9251186,141.98219)"><g
         id="g298"
         clip-path="url(#clipPath302)"><path
           d="m 57.6,262.21453 4.520506,4.53074 4.520507,-8.45853 4.520506,-10.01171 4.520506,-7.95102 4.520507,-6.02993 4.520506,-4.66752 4.520506,-5.3623 4.520507,-4.92544 4.520506,0.90352 4.520503,-2.00246 4.52051,-6.12427 4.52051,-1.17702 4.5205,-3.56018 4.52051,-4.78908 4.52051,-4.79394 4.5205,-0.809 4.52051,-1.9301 4.5205,-0.58284 4.52051,-1.2459 4.52051,-2.10259 4.5205,-2.19376 4.52051,-1.8153 4.52051,0.57495 4.5205,-1.46711 4.52051,-0.50094 4.5205,-4.90241 4.52051,1.25728 4.52051,-4.81043 4.5205,-1.03007 4.52051,-1.02733 4.52051,-0.99999 4.5205,-1.24497 4.52051,-3.07986 4.5205,-2.55638 4.52051,-1.05449 4.52051,-2.03641 4.5205,1.28559 4.52051,-2.92717 4.52051,0.30685 4.5205,-3.20418 4.52051,-0.30942 4.52051,2.25236 4.5205,-2.95396 4.52051,-0.94111 4.5205,1.02264 4.52051,-0.43895 4.52051,-2.9171 4.5205,2.73997 4.52051,-3.84351 4.52051,-1.28652 4.5205,0.31821 4.52051,3.85861 4.5205,-3.32966 4.52051,1.42465 4.52051,-0.0874 4.5205,-1.27201 4.52051,-2.53865 4.52051,0.10857 4.5205,2.2453 4.52051,-0.34921 4.52051,-0.62701 4.5205,-0.90118 4.52051,1.43423 4.5205,0.76195 4.52051,-2.19135 4.52051,0.63992 4.5205,-0.96082 4.52051,-1.38213 4.52051,-0.98318 4.5205,0.79576 4.52051,1.09063 4.52051,0.65014 4.5205,-1.74455 4.52051,-1.16172 4.5205,-3.65005 4.52051,5.52105 4.52051,-11.95712 4.5205,-12.25326 4.52051,10.18412"
           style="fill:none;stroke:#2ca02c;stroke-width:1.5;stroke-linecap:square;stroke-linejoin:round;stroke-miterlimit:10;stroke-dasharray:none;stroke-opacity:1"
           id="path304" /></g></g><path
       d="m 42.065722,292.70159 2.600908,2.80392 2.600909,-5.41509 2.600908,-5.46762 2.600908,-4.09649 2.600909,-2.97716 2.600907,-2.00339 2.600908,-3.21432 2.600909,-3.24971 2.600907,0.68762 2.600907,-1.07838 2.600911,-2.92159 2.600909,-0.73248 2.600905,-2.31102 2.600911,-2.88785 2.600909,-2.59986 2.600905,-0.74955 2.600911,-0.8261 2.600904,-0.17923 2.60091,-0.50224 2.600911,-1.27153 2.600904,-1.26564 2.60091,-1.20396 2.600908,0.5347 2.6009,-1.08832 2.60092,-0.94224 2.6009,-2.74442 2.60092,1.52135 2.6009,-2.99129 2.60091,-0.23142 2.60091,-0.41466 2.60091,-0.60986 2.6009,-0.27123 2.60091,-1.25971 2.60091,-1.53617 2.6009,-0.24994 2.60092,-1.26268 2.6009,1.76232 2.60091,-1.25824 2.60091,-0.73001 2.60091,-2.48068 2.60091,-0.57354 2.60091,2.46488 2.6009,-2.12669 2.60092,-1.02432 2.6009,1.04907 2.6009,-0.15221 2.60092,-1.90862 2.6009,2.5649 2.60091,-2.99975 2.60091,-0.80411 2.60091,1.95029 2.6009,0.39565 2.60091,-0.0735 2.60091,1.20976 2.60091,0.45599 2.6009,-2.10295 2.60092,-1.55262 2.60091,-0.19355 2.60091,2.44225 2.6009,-0.97352 2.60091,-0.63889 2.60091,0.82269 2.6009,0.98767 2.60091,0.11612 2.60091,0.43168 2.60091,-1.59591 2.6009,1.19253 2.60092,-0.17088 2.6009,-1.29386 2.60091,1.29044 2.60091,1.29369 2.60092,-0.91418 2.6009,-0.13382 2.60091,-2.04304 2.6009,-1.45652 2.60091,2.13539 2.60091,-3.81725 2.6009,-1.18133 2.60092,-1.38524"
       style="fill:none;stroke:#9467bd;stroke-width:0.863037;stroke-linecap:square;stroke-linejoin:round;stroke-miterlimit:10;stroke-dasharray:none;stroke-opacity:1"
       id="path314" /><path
       d="m 42.065722,299.73639 2.600908,-4.90573 2.600909,-2.60074 2.600908,-0.34578 2.600908,-0.5858 2.600909,0.20315 2.600907,0.14262 2.600908,-0.0192 2.600909,0.32178 2.600907,-0.86598 2.600907,-0.80988 2.600911,-0.0151 2.600909,-1.00027 2.600905,-0.61323 2.600911,-0.0535 2.600909,-1.47876 2.600905,-0.3833 2.600911,-0.12825 2.600904,-1.40902 2.60091,-0.77318 2.600911,-0.57357 2.600904,-0.99631 2.60091,0.16024 2.600908,-0.76658 2.6009,-2.36827 2.60092,0.93926 2.6009,0.28201 2.60092,0.32492 2.6009,-0.0855 2.60091,-1.74394 2.60091,0.56262 2.60091,-2.08319 2.6009,-0.37534 2.60091,-0.002 2.60091,-1.89455 2.6009,0.2544 2.60092,-0.9402 2.6009,0.27867 2.60091,-1.55072 2.60091,1.35241 2.60091,-1.33318 2.60091,-1.78482 2.60091,-0.17889 2.6009,-0.41185 2.60092,2.74713 2.6009,-1.69095 2.6009,0.68155 2.60092,-1.19134 2.6009,-1.39969 2.60091,1.84118 2.60091,-3.8074 2.60091,1.08349 2.6009,-3.43912 2.60091,-0.63273 2.60091,-1.44891 2.60091,-1.42358 2.6009,-0.77248 2.60092,1.24034 2.60091,-3.87635 2.60091,1.488 2.6009,-3.2022 2.60091,3.28147 2.60091,-0.96716 2.6009,1.72308 2.60091,-0.96977 2.60091,-0.26179 2.60091,0.36492 2.6009,-0.46593 2.60092,1.26402 2.6009,-1.54038 2.60091,-0.82952 2.60091,-0.0178 2.60092,-3.66554 2.6009,1.1003 2.60091,0.38268 2.6009,-2.77785 2.60091,-2.76336 2.60091,4.43008 2.6009,-3.28954 2.60092,-1.17118"
       style="fill:none;stroke:#d62728;stroke-width:0.863037;stroke-linecap:square;stroke-linejoin:round;stroke-miterlimit:10;stroke-dasharray:none;stroke-opacity:1"
       id="path324" /><path
       d="M 42.065722,163.85499 V 316.96458"
       style="fill:none;stroke:#000000;stroke-width:0.460286;stroke-linecap:square;stroke-linejoin:miter;stroke-miterlimit:10;stroke-dasharray:none;stroke-opacity:1"
       id="path328" /><path
       d="M 247.53747,163.85499 V 316.96458"
       style="fill:none;stroke:#000000;stroke-width:0.460286;stroke-linecap:square;stroke-linejoin:miter;stroke-miterlimit:10;stroke-dasharray:none;stroke-opacity:1"
       id="path330" /><path
       d="M 42.065722,163.85499 H 247.53747"
       style="fill:none;stroke:#000000;stroke-width:0.460286;stroke-linecap:square;stroke-linejoin:miter;stroke-miterlimit:10;stroke-dasharray:none;stroke-opacity:1"
       id="path332" /><path
       d="M 42.065722,316.96458 H 247.53747"
       style="fill:none;stroke:#000000;stroke-width:0.460286;stroke-linecap:square;stroke-linejoin:miter;stroke-miterlimit:10;stroke-dasharray:none;stroke-opacity:1"
       id="path334" /><path
       d="M 54.147639,206.37955 H 65.654793"
       style="fill:none;stroke:#1f77b4;stroke-width:0.863037;stroke-linecap:square;stroke-linejoin:round;stroke-miterlimit:10;stroke-dasharray:none;stroke-opacity:1"
       id="path344" /><path
       d="M 54.147639,197.93797 H 65.654793"
       style="fill:none;stroke:#ff7f0e;stroke-width:0.863037;stroke-linecap:square;stroke-linejoin:round;stroke-miterlimit:10;stroke-dasharray:none;stroke-opacity:1"
       id="path350" /><path
       d="M 54.147639,189.4964 H 65.654793"
       style="fill:none;stroke:#2ca02c;stroke-width:0.863037;stroke-linecap:square;stroke-linejoin:round;stroke-miterlimit:10;stroke-dasharray:none;stroke-opacity:1"
       id="path356" /><path
       d="M 54.147639,181.05482 H 65.654793"
       style="fill:none;stroke:#9467bd;stroke-width:0.863037;stroke-linecap:square;stroke-linejoin:round;stroke-miterlimit:10;stroke-dasharray:none;stroke-opacity:0.823529"
       id="path362" /><path
       d="M 54.147639,172.61324 H 65.654793"
       style="fill:none;stroke:#d62728;stroke-width:0.863037;stroke-linecap:square;stroke-linejoin:round;stroke-miterlimit:10;stroke-dasharray:none;stroke-opacity:1"
       id="path368" /></g><g
     inkscape:groupmode="layer"
     id="layer1"
     inkscape:label="text"
     style="display:inline"
     transform="translate(-28.023958,-17.206424)"><text
       style="font-variant:normal;font-weight:normal;font-size:7.67143px;font-family:'DejaVu Sans';-inkscape-font-specification:DejaVuSans;writing-mode:lr-tb;fill:#000000;fill-opacity:1;fill-rule:nonzero;stroke:none;stroke-width:0.767143"
       id="text32"
       x="53.547161"
       y="253.52217"><tspan
         x="53.547161 58.426197 60.865711 65.744751"
         y="253.52217"
         sodipodi:role="line"
         id="tspan30"
         style="stroke-width:0.767143">0.00</tspan></text><text
       style="font-variant:normal;font-weight:normal;font-size:7.67143px;font-family:'DejaVu Sans';-inkscape-font-specification:DejaVuSans;writing-mode:lr-tb;fill:#000000;fill-opacity:1;fill-rule:nonzero;stroke:none;stroke-width:0.767143"
       id="text50"
       x="82.225937"
       y="253.52217"><tspan
         x="82.225937 87.104973 89.544487 94.423523"
         y="253.52217"
         sodipodi:role="line"
         id="tspan48"
         style="stroke-width:0.767143">0.25</tspan></text><text
       style="font-variant:normal;font-weight:normal;font-size:7.67143px;font-family:'DejaVu Sans';-inkscape-font-specification:DejaVuSans;writing-mode:lr-tb;fill:#000000;fill-opacity:1;fill-rule:nonzero;stroke:none;stroke-width:0.767143"
       id="text68"
       x="116.9047"
       y="253.52217"><tspan
         x="116.9047 121.78373 124.22326 129.10229"
         y="253.52217"
         sodipodi:role="line"
         id="tspan66"
         style="stroke-width:0.767143">0.50</tspan></text><text
       style="font-variant:normal;font-weight:normal;font-size:7.67143px;font-family:'DejaVu Sans';-inkscape-font-specification:DejaVuSans;writing-mode:lr-tb;fill:#000000;fill-opacity:1;fill-rule:nonzero;stroke:none;stroke-width:0.767143"
       id="text86"
       x="151.58348"
       y="253.52217"><tspan
         x="151.58348 156.46252 158.90202 163.78108"
         y="253.52217"
         sodipodi:role="line"
         id="tspan84"
         style="stroke-width:0.767143">0.75</tspan></text><text
       style="font-variant:normal;font-weight:normal;font-size:7.67143px;font-family:'DejaVu Sans';-inkscape-font-specification:DejaVuSans;writing-mode:lr-tb;fill:#000000;fill-opacity:1;fill-rule:nonzero;stroke:none;stroke-width:0.767143"
       id="text104"
       x="186.26227"
       y="253.52217"><tspan
         x="186.26227 191.1413 193.58081 198.45984"
         y="253.52217"
         sodipodi:role="line"
         id="tspan102"
         style="stroke-width:0.767143">1.00</tspan></text><text
       style="font-variant:normal;font-weight:normal;font-size:7.67143px;font-family:'DejaVu Sans';-inkscape-font-specification:DejaVuSans;writing-mode:lr-tb;fill:#000000;fill-opacity:1;fill-rule:nonzero;stroke:none;stroke-width:0.767143"
       id="text122"
       x="220.94102"
       y="253.52217"><tspan
         x="220.94102 225.82008 228.25958 233.13861"
         y="253.52217"
         sodipodi:role="line"
         id="tspan120"
         style="stroke-width:0.767143">1.25</tspan></text><text
       style="font-variant:normal;font-weight:normal;font-size:7.67143px;font-family:'DejaVu Sans';-inkscape-font-specification:DejaVuSans;writing-mode:lr-tb;fill:#000000;fill-opacity:1;fill-rule:nonzero;stroke:none;stroke-width:0.767143"
       id="text140"
       x="255.61981"
       y="253.52217"><tspan
         x="255.61981 260.49884 262.93835 267.81738"
         y="253.52217"
         sodipodi:role="line"
         id="tspan138"
         style="stroke-width:0.767143">1.50</tspan></text><text
       style="font-variant:normal;font-weight:normal;font-size:7.67143px;font-family:'DejaVu Sans';-inkscape-font-specification:DejaVuSans;writing-mode:lr-tb;fill:#000000;fill-opacity:1;fill-rule:nonzero;stroke:none;stroke-width:0.767143"
       id="text158"
       x="290.29855"
       y="253.52217"><tspan
         x="290.29855 295.17761 297.61713 302.49615"
         y="253.52217"
         sodipodi:role="line"
         id="tspan156"
         style="stroke-width:0.767143">1.75</tspan></text><text
       style="font-variant:normal;font-weight:normal;font-size:7.67143px;font-family:'DejaVu Sans';-inkscape-font-specification:DejaVuSans;writing-mode:lr-tb;fill:#000000;fill-opacity:1;fill-rule:nonzero;stroke:none;stroke-width:0.767143"
       id="text162"
       x="146.63861"
       y="264.01068"><tspan
         x="146.63861 152.58398 157.30191 162.1656 166.86053 174.33249 176.46516 180.68445 183.12398 187.99532 190.12799 194.12482 197.132 201.83461 206.6983 210.91759 215.63551 218.07503 220.66031 223.09981 229.72028 234.59163"
         y="264.01068"
         sodipodi:role="line"
         id="tspan160"
         style="stroke-width:0.767143">Genomic distance / Mbp</tspan></text><text
       style="font-variant:normal;font-weight:normal;font-size:7.67143px;font-family:'DejaVu Sans';-inkscape-font-specification:DejaVuSans;writing-mode:lr-tb;fill:#000000;fill-opacity:1;fill-rule:nonzero;stroke:none;stroke-width:0.767143"
       id="text180"
       x="38.515247"
       y="245.23941"><tspan
         x="38.515247 43.394276 45.833794"
         y="245.23941"
         sodipodi:role="line"
         id="tspan178"
         style="stroke-width:0.767143">0.0</tspan></text><text
       style="font-variant:normal;font-weight:normal;font-size:7.67143px;font-family:'DejaVu Sans';-inkscape-font-specification:DejaVuSans;writing-mode:lr-tb;fill:#000000;fill-opacity:1;fill-rule:nonzero;stroke:none;stroke-width:0.767143"
       id="text198"
       x="38.515247"
       y="204.41019"><tspan
         x="38.515247 43.394276 45.833794"
         y="204.41019"
         sodipodi:role="line"
         id="tspan196"
         style="stroke-width:0.767143">0.2</tspan></text><text
       style="font-variant:normal;font-weight:normal;font-size:7.67143px;font-family:'DejaVu Sans';-inkscape-font-specification:DejaVuSans;writing-mode:lr-tb;fill:#000000;fill-opacity:1;fill-rule:nonzero;stroke:none;stroke-width:0.767143"
       id="text216"
       x="38.515247"
       y="163.58096"><tspan
         x="38.515247 43.394276 45.833794"
         y="163.58096"
         sodipodi:role="line"
         id="tspan214"
         style="stroke-width:0.767143">0.4</tspan></text><text
       style="font-variant:normal;font-weight:normal;font-size:7.67143px;font-family:'DejaVu Sans';-inkscape-font-specification:DejaVuSans;writing-mode:lr-tb;fill:#000000;fill-opacity:1;fill-rule:nonzero;stroke:none;stroke-width:0.767143"
       id="text234"
       x="38.515247"
       y="122.75173"><tspan
         x="38.515247 43.394276 45.833794"
         y="122.75173"
         sodipodi:role="line"
         id="tspan232"
         style="stroke-width:0.767143">0.6</tspan></text><text
       style="font-variant:normal;font-weight:normal;font-size:7.67143px;font-family:'DejaVu Sans';-inkscape-font-specification:DejaVuSans;writing-mode:lr-tb;fill:#000000;fill-opacity:1;fill-rule:nonzero;stroke:none;stroke-width:0.767143"
       id="text252"
       x="38.515247"
       y="81.922531"><tspan
         x="38.515247 43.394276 45.833794"
         y="81.922531"
         sodipodi:role="line"
         id="tspan250"
         style="stroke-width:0.767143">0.8</tspan></text><text
       style="font-variant:normal;font-weight:normal;font-size:7.67143px;font-family:'DejaVu Sans';-inkscape-font-specification:DejaVuSans;writing-mode:lr-tb;fill:#000000;fill-opacity:1;fill-rule:nonzero;stroke:none;stroke-width:0.767143"
       id="text270"
       x="38.515247"
       y="41.093361"><tspan
         x="38.515247 43.394276 45.833794"
         y="41.093361"
         sodipodi:role="line"
         id="tspan268"
         style="stroke-width:0.767143">1.0</tspan></text><text
       transform="rotate(-90)"
       style="font-variant:normal;font-weight:normal;font-size:7.67143px;font-family:'DejaVu Sans';-inkscape-font-specification:DejaVuSans;writing-mode:lr-tb;fill:#000000;fill-opacity:1;fill-rule:nonzero;stroke:none;stroke-width:0.767143"
       id="text274"
       x="-177.31624"
       y="33.852451"><tspan
         x="-177.31624 -172.69035 -167.97243 -163.26984 -160.11687 -156.12006 -151.42513 -146.56143 -144.12193 -139.90265 -135.20772 -132.05476 -128.90179 -124.18387 -122.05122 -117.34862 -114.34141 -112.20876 -107.51383"
         y="33.852451"
         sodipodi:role="line"
         id="tspan272"
         style="stroke-width:0.767143">Pearson correlation</tspan></text><text
       style="font-variant:normal;font-weight:normal;font-size:9.20572px;font-family:'DejaVu Sans';-inkscape-font-specification:DejaVuSans;writing-mode:lr-tb;fill:#000000;fill-opacity:1;fill-rule:nonzero;stroke:none;stroke-width:0.767143"
       id="text338"
       x="98.33255"
       y="23.259661"><tspan
         x="98.33255 103.88361 109.54512 115.18824 118.97177 123.76796 129.40187 135.2383 138.16571 143.22885 148.86275 152.64632 156.42986 162.0914 164.65057 170.29369 173.90233 176.46153 182.09543 187.93184 190.85928 196.30907 201.10526 204.03265 206.96008 212.80573 218.46724 224.30365 229.93758 238.90393 241.46312 246.52629 249.4537 255.29933 257.85852 262.65469 266.26334 271.90643 277.74289 282.80603"
         y="23.259661"
         sodipodi:role="line"
         id="tspan336"
         style="stroke-width:0.767143">Pearson correlation vs. genomic distance</tspan></text><text
       style="font-variant:normal;font-weight:normal;font-size:9.20572px;font-family:'DejaVu Sans';-inkscape-font-specification:DejaVuSans;writing-mode:lr-tb;fill:#000000;fill-opacity:1;fill-rule:nonzero;stroke:none;stroke-width:0.767143"
       id="text342"
       x="63.993568"
       y="33.577751"><tspan
         x="63.993568 71.128006 79.072548 84.927383 90.782219 96.63707 102.49189 108.34675 111.27415 114.20158 120.05642 122.98386 128.83868 131.7661 137.62094 140.54837 146.40321 149.33063 155.18547 158.11288 163.96773 169.82256 172.74998 178.60481 184.45966 187.38708 193.24191 199.09677 202.02417 207.87903 213.73386 216.6613 222.51611 228.37097 231.29839 237.15323 243.00807 245.93549 251.79033 257.64517 260.5726 266.42743 272.28226 275.20969 280.8436 286.68002 289.60745 295.64639 301.50122 307.35608 313.21094 316.13831 319.06577"
         y="33.577751"
         sodipodi:role="line"
         id="tspan340"
         style="stroke-width:0.767143">GM12878, 1,2,4,7,9,11,13,14,16,17,18,20,22 on K562, 5</tspan></text><text
       style="font-variant:normal;font-weight:normal;font-size:7.67141px;font-family:'DejaVu Sans';-inkscape-font-specification:DejaVuSans;writing-mode:lr-tb;fill:#000000;fill-opacity:1;fill-rule:nonzero;stroke:none;stroke-width:0.767141"
       id="text348"
       x="93.67688"
       y="188.31227"><tspan
         x="93.67688 95.809532 100.50445 105.36813 110.2395 114.95744 118.1104 120.54991 122.98943 127.86847 132.7475 137.62654 142.34447 147.21584 149.65535 152.24062 154.68013 159.92738 165.54288 170.89757 173.48283 175.92233 180.80138 183.24089 188.1199 192.99896"
         y="188.31227"
         sodipodi:role="line"
         id="tspan346"
         style="stroke-width:0.767141">longer, 250ep / AUC: 0.521</tspan></text><text
       style="font-variant:normal;font-weight:normal;font-size:7.67141px;font-family:'DejaVu Sans';-inkscape-font-specification:DejaVuSans;writing-mode:lr-tb;fill:#000000;fill-opacity:1;fill-rule:nonzero;stroke:none;stroke-width:0.767141"
       id="text354"
       x="93.67688"
       y="199.56772"><tspan
         x="93.67688 95.809532 100.50445 105.36813 110.2395 114.95744 118.1104 120.54991 122.98943 127.86847 132.7475 137.62654 142.34447 147.21584 149.65535 152.24062 154.68013 159.92738 165.54288 170.89757 173.48283 175.92233 180.80138 183.24089 188.1199 192.99896"
         y="199.56772"
         sodipodi:role="line"
         id="tspan352"
         style="stroke-width:0.767141">longer, 500ep / AUC: 0.522</tspan></text><text
       style="font-variant:normal;font-weight:normal;font-size:7.67141px;font-family:'DejaVu Sans';-inkscape-font-specification:DejaVuSans;writing-mode:lr-tb;fill:#000000;fill-opacity:1;fill-rule:nonzero;stroke:none;stroke-width:0.767141"
       id="text360"
       x="93.67688"
       y="210.82315"><tspan
         x="93.67688 95.809532 100.50445 105.36813 110.2395 114.95744 118.1104 120.54991 122.98943 127.86847 132.7475 137.62654 142.50555 147.22348 152.09486 154.53436 157.11963 159.55917 164.80644 170.42194 175.77658 178.36185 180.80138 185.6804 188.1199 192.99896 197.87799"
         y="210.82315"
         sodipodi:role="line"
         id="tspan358"
         style="stroke-width:0.767141">longer, 1000ep / AUC: 0.516</tspan></text><text
       style="font-variant:normal;font-weight:normal;font-size:7.67141px;font-family:'DejaVu Sans';-inkscape-font-specification:DejaVuSans;writing-mode:lr-tb;fill:#000000;fill-opacity:1;fill-rule:nonzero;stroke:none;stroke-width:0.767141"
       id="text366"
       x="93.67688"
       y="222.07857"><tspan
         x="93.67688 95.809532 100.67322 102.80586 105.81309 107.94575 112.64833 114.78098 117.22052 119.66003 124.53905 129.41809 134.2971 139.01506 143.88641 146.32594 148.91121 151.35072 156.59798 162.21349 167.56815 170.15343 172.59294 177.47198 179.91148 184.79051 189.66954"
         y="222.07857"
         sodipodi:role="line"
         id="tspan364"
         style="stroke-width:0.767141">initial, 500ep / AUC: 0.540</tspan></text><text
       style="font-variant:normal;font-weight:normal;font-size:7.67141px;font-family:'DejaVu Sans';-inkscape-font-specification:DejaVuSans;writing-mode:lr-tb;fill:#000000;fill-opacity:1;fill-rule:nonzero;stroke:none;stroke-width:0.767141"
       id="text372"
       x="93.67688"
       y="233.33398"><tspan
         x="93.67688 96.684082 99.837036 104.53963 109.40333 113.40013 116.10047 120.81842 123.97137 126.41088 132.35623 138.9767 143.85574 148.73476 153.6138 158.49283 163.37187 165.81137 168.39665 170.83617 176.08344 181.69893 187.05359 189.63885 192.07837 196.95744 199.39694 204.27597 209.155"
         y="233.33398"
         sodipodi:role="line"
         id="tspan370"
         style="stroke-width:0.767141">transfer GM12878 / AUC: 0.719</tspan></text></g></svg>
