<?xml version="1.0" encoding="UTF-8" standalone="no"?>
<svg
   xmlns:dc="http://purl.org/dc/elements/1.1/"
   xmlns:cc="http://creativecommons.org/ns#"
   xmlns:rdf="http://www.w3.org/1999/02/22-rdf-syntax-ns#"
   xmlns:svg="http://www.w3.org/2000/svg"
   xmlns="http://www.w3.org/2000/svg"
   xmlns:sodipodi="http://sodipodi.sourceforge.net/DTD/sodipodi-0.dtd"
   xmlns:inkscape="http://www.inkscape.org/namespaces/inkscape"
   version="1.1"
   id="svg2"
   xml:space="preserve"
   width="80mm"
   height="65.300003mm"
   viewBox="0 0 302.36219 246.80316"
   sodipodi:docname="pearson_chr10.svg"
   inkscape:version="1.0.2 (1.0.2+r75+1)"><metadata
     id="metadata8"><rdf:RDF><cc:Work
         rdf:about=""><dc:format>image/svg+xml</dc:format><dc:type
           rdf:resource="http://purl.org/dc/dcmitype/StillImage" /><dc:title /></cc:Work></rdf:RDF></metadata><defs
     id="defs6"><clipPath
       clipPathUnits="userSpaceOnUse"
       id="clipPath22"><path
         d="M 57.6,38.016 H 414.72 V 304.128 H 57.6 Z"
         id="path20" /></clipPath><clipPath
       clipPathUnits="userSpaceOnUse"
       id="clipPath40"><path
         d="M 57.6,38.016 H 414.72 V 304.128 H 57.6 Z"
         id="path38" /></clipPath><clipPath
       clipPathUnits="userSpaceOnUse"
       id="clipPath58"><path
         d="M 57.6,38.016 H 414.72 V 304.128 H 57.6 Z"
         id="path56" /></clipPath><clipPath
       clipPathUnits="userSpaceOnUse"
       id="clipPath76"><path
         d="M 57.6,38.016 H 414.72 V 304.128 H 57.6 Z"
         id="path74" /></clipPath><clipPath
       clipPathUnits="userSpaceOnUse"
       id="clipPath94"><path
         d="M 57.6,38.016 H 414.72 V 304.128 H 57.6 Z"
         id="path92" /></clipPath><clipPath
       clipPathUnits="userSpaceOnUse"
       id="clipPath112"><path
         d="M 57.6,38.016 H 414.72 V 304.128 H 57.6 Z"
         id="path110" /></clipPath><clipPath
       clipPathUnits="userSpaceOnUse"
       id="clipPath130"><path
         d="M 57.6,38.016 H 414.72 V 304.128 H 57.6 Z"
         id="path128" /></clipPath><clipPath
       clipPathUnits="userSpaceOnUse"
       id="clipPath148"><path
         d="M 57.6,38.016 H 414.72 V 304.128 H 57.6 Z"
         id="path146" /></clipPath><clipPath
       clipPathUnits="userSpaceOnUse"
       id="clipPath170"><path
         d="M 57.6,38.016 H 414.72 V 304.128 H 57.6 Z"
         id="path168" /></clipPath><clipPath
       clipPathUnits="userSpaceOnUse"
       id="clipPath188"><path
         d="M 57.6,38.016 H 414.72 V 304.128 H 57.6 Z"
         id="path186" /></clipPath><clipPath
       clipPathUnits="userSpaceOnUse"
       id="clipPath206"><path
         d="M 57.6,38.016 H 414.72 V 304.128 H 57.6 Z"
         id="path204" /></clipPath><clipPath
       clipPathUnits="userSpaceOnUse"
       id="clipPath224"><path
         d="M 57.6,38.016 H 414.72 V 304.128 H 57.6 Z"
         id="path222" /></clipPath><clipPath
       clipPathUnits="userSpaceOnUse"
       id="clipPath242"><path
         d="M 57.6,38.016 H 414.72 V 304.128 H 57.6 Z"
         id="path240" /></clipPath><clipPath
       clipPathUnits="userSpaceOnUse"
       id="clipPath260"><path
         d="M 57.6,38.016 H 414.72 V 304.128 H 57.6 Z"
         id="path258" /></clipPath><clipPath
       clipPathUnits="userSpaceOnUse"
       id="clipPath282"><path
         d="M 57.6,38.016 H 414.72 V 304.128 H 57.6 Z"
         id="path280" /></clipPath><clipPath
       clipPathUnits="userSpaceOnUse"
       id="clipPath292"><path
         d="M 57.6,38.016 H 414.72 V 304.128 H 57.6 Z"
         id="path290" /></clipPath><clipPath
       clipPathUnits="userSpaceOnUse"
       id="clipPath302"><path
         d="M 57.6,38.016 H 414.72 V 304.128 H 57.6 Z"
         id="path300" /></clipPath><clipPath
       clipPathUnits="userSpaceOnUse"
       id="clipPath312"><path
         d="M 57.6,38.016 H 414.72 V 304.128 H 57.6 Z"
         id="path310" /></clipPath><clipPath
       clipPathUnits="userSpaceOnUse"
       id="clipPath322"><path
         d="M 57.6,38.016 H 414.72 V 304.128 H 57.6 Z"
         id="path320" /></clipPath></defs><sodipodi:namedview
     pagecolor="#ffffff"
     bordercolor="#666666"
     borderopacity="1"
     objecttolerance="10"
     gridtolerance="10"
     guidetolerance="10"
     inkscape:pageopacity="0"
     inkscape:pageshadow="2"
     inkscape:window-width="1920"
     inkscape:window-height="1020"
     id="namedview4"
     showgrid="false"
     fit-margin-top="0"
     fit-margin-left="0"
     fit-margin-right="0"
     fit-margin-bottom="0"
     units="mm"
     inkscape:zoom="1.3150836"
     inkscape:cx="170.23683"
     inkscape:cy="116.9218"
     inkscape:window-x="0"
     inkscape:window-y="0"
     inkscape:window-maximized="1"
     inkscape:current-layer="layer1"
     inkscape:document-rotation="0" /><g
     id="g10"
     inkscape:groupmode="layer"
     inkscape:label="pearson_chr10"
     transform="matrix(1.3333333,0,0,-1.3333333,-28.023958,443.59358)"><g
       id="g16"
       transform="matrix(0.5752952,0,0,0.5752952,8.9264324,142.01014)"><g
         id="g18"
         clip-path="url(#clipPath22)"><path
           d="M 57.6,38.016 V 304.128"
           style="fill:none;stroke:#b0b0b0;stroke-width:0.8;stroke-linecap:square;stroke-linejoin:round;stroke-miterlimit:10;stroke-dasharray:none;stroke-opacity:1"
           id="path24" /></g></g><path
       d="m 42.063436,163.88057 v -2.01353"
       style="fill:#000000;fill-opacity:1;fill-rule:nonzero;stroke:#000000;stroke-width:0.460236;stroke-linecap:butt;stroke-linejoin:round;stroke-miterlimit:10;stroke-dasharray:none;stroke-opacity:1"
       id="path28" /><g
       id="g34"
       transform="matrix(0.5752952,0,0,0.5752952,8.9264324,142.01014)"><g
         id="g36"
         clip-path="url(#clipPath40)"><path
           d="M 102.80506,38.016 V 304.128"
           style="fill:none;stroke:#b0b0b0;stroke-width:0.8;stroke-linecap:square;stroke-linejoin:round;stroke-miterlimit:10;stroke-dasharray:none;stroke-opacity:1"
           id="path42" /></g></g><path
       d="m 68.06969,163.88057 v -2.01353"
       style="fill:#000000;fill-opacity:1;fill-rule:nonzero;stroke:#000000;stroke-width:0.460236;stroke-linecap:butt;stroke-linejoin:round;stroke-miterlimit:10;stroke-dasharray:none;stroke-opacity:1"
       id="path46" /><g
       id="g52"
       transform="matrix(0.5752952,0,0,0.5752952,8.9264324,142.01014)"><g
         id="g54"
         clip-path="url(#clipPath58)"><path
           d="M 148.01013,38.016 V 304.128"
           style="fill:none;stroke:#b0b0b0;stroke-width:0.8;stroke-linecap:square;stroke-linejoin:round;stroke-miterlimit:10;stroke-dasharray:none;stroke-opacity:1"
           id="path60" /></g></g><path
       d="m 94.075949,163.88057 v -2.01353"
       style="fill:#000000;fill-opacity:1;fill-rule:nonzero;stroke:#000000;stroke-width:0.460236;stroke-linecap:butt;stroke-linejoin:round;stroke-miterlimit:10;stroke-dasharray:none;stroke-opacity:1"
       id="path64" /><g
       id="g70"
       transform="matrix(0.5752952,0,0,0.5752952,8.9264324,142.01014)"><g
         id="g72"
         clip-path="url(#clipPath76)"><path
           d="M 193.21519,38.016 V 304.128"
           style="fill:none;stroke:#b0b0b0;stroke-width:0.8;stroke-linecap:square;stroke-linejoin:round;stroke-miterlimit:10;stroke-dasharray:none;stroke-opacity:1"
           id="path78" /></g></g><path
       d="m 120.08221,163.88057 v -2.01353"
       style="fill:#000000;fill-opacity:1;fill-rule:nonzero;stroke:#000000;stroke-width:0.460236;stroke-linecap:butt;stroke-linejoin:round;stroke-miterlimit:10;stroke-dasharray:none;stroke-opacity:1"
       id="path82" /><g
       id="g88"
       transform="matrix(0.5752952,0,0,0.5752952,8.9264324,142.01014)"><g
         id="g90"
         clip-path="url(#clipPath94)"><path
           d="M 238.42025,38.016 V 304.128"
           style="fill:none;stroke:#b0b0b0;stroke-width:0.8;stroke-linecap:square;stroke-linejoin:round;stroke-miterlimit:10;stroke-dasharray:none;stroke-opacity:1"
           id="path96" /></g></g><path
       d="m 146.08846,163.88057 v -2.01353"
       style="fill:#000000;fill-opacity:1;fill-rule:nonzero;stroke:#000000;stroke-width:0.460236;stroke-linecap:butt;stroke-linejoin:round;stroke-miterlimit:10;stroke-dasharray:none;stroke-opacity:1"
       id="path100" /><g
       id="g106"
       transform="matrix(0.5752952,0,0,0.5752952,8.9264324,142.01014)"><g
         id="g108"
         clip-path="url(#clipPath112)"><path
           d="M 283.62532,38.016 V 304.128"
           style="fill:none;stroke:#b0b0b0;stroke-width:0.8;stroke-linecap:square;stroke-linejoin:round;stroke-miterlimit:10;stroke-dasharray:none;stroke-opacity:1"
           id="path114" /></g></g><path
       d="m 172.09472,163.88057 v -2.01353"
       style="fill:#000000;fill-opacity:1;fill-rule:nonzero;stroke:#000000;stroke-width:0.460236;stroke-linecap:butt;stroke-linejoin:round;stroke-miterlimit:10;stroke-dasharray:none;stroke-opacity:1"
       id="path118" /><g
       id="g124"
       transform="matrix(0.5752952,0,0,0.5752952,8.9264324,142.01014)"><g
         id="g126"
         clip-path="url(#clipPath130)"><path
           d="M 328.83038,38.016 V 304.128"
           style="fill:none;stroke:#b0b0b0;stroke-width:0.8;stroke-linecap:square;stroke-linejoin:round;stroke-miterlimit:10;stroke-dasharray:none;stroke-opacity:1"
           id="path132" /></g></g><path
       d="m 198.10098,163.88057 v -2.01353"
       style="fill:#000000;fill-opacity:1;fill-rule:nonzero;stroke:#000000;stroke-width:0.460236;stroke-linecap:butt;stroke-linejoin:round;stroke-miterlimit:10;stroke-dasharray:none;stroke-opacity:1"
       id="path136" /><g
       id="g142"
       transform="matrix(0.5752952,0,0,0.5752952,8.9264324,142.01014)"><g
         id="g144"
         clip-path="url(#clipPath148)"><path
           d="M 374.03544,38.016 V 304.128"
           style="fill:none;stroke:#b0b0b0;stroke-width:0.8;stroke-linecap:square;stroke-linejoin:round;stroke-miterlimit:10;stroke-dasharray:none;stroke-opacity:1"
           id="path150" /></g></g><path
       d="m 224.10723,163.88057 v -2.01353"
       style="fill:#000000;fill-opacity:1;fill-rule:nonzero;stroke:#000000;stroke-width:0.460236;stroke-linecap:butt;stroke-linejoin:round;stroke-miterlimit:10;stroke-dasharray:none;stroke-opacity:1"
       id="path154" /><g
       id="g164"
       transform="matrix(0.5752952,0,0,0.5752952,8.9264324,142.01014)"><g
         id="g166"
         clip-path="url(#clipPath170)"><path
           d="M 57.6,38.016 H 414.72"
           style="fill:none;stroke:#b0b0b0;stroke-width:0.8;stroke-linecap:square;stroke-linejoin:round;stroke-miterlimit:10;stroke-dasharray:none;stroke-opacity:1"
           id="path172" /></g></g><path
       d="M 42.063436,163.88057 H 40.049903"
       style="fill:#000000;fill-opacity:1;fill-rule:nonzero;stroke:#000000;stroke-width:0.460236;stroke-linecap:butt;stroke-linejoin:round;stroke-miterlimit:10;stroke-dasharray:none;stroke-opacity:1"
       id="path176" /><g
       id="g182"
       transform="matrix(0.5752952,0,0,0.5752952,8.9264324,142.01014)"><g
         id="g184"
         clip-path="url(#clipPath188)"><path
           d="M 57.6,91.2384 H 414.72"
           style="fill:none;stroke:#b0b0b0;stroke-width:0.8;stroke-linecap:square;stroke-linejoin:round;stroke-miterlimit:10;stroke-dasharray:none;stroke-opacity:1"
           id="path190" /></g></g><path
       d="M 42.063436,194.49916 H 40.049903"
       style="fill:#000000;fill-opacity:1;fill-rule:nonzero;stroke:#000000;stroke-width:0.460236;stroke-linecap:butt;stroke-linejoin:round;stroke-miterlimit:10;stroke-dasharray:none;stroke-opacity:1"
       id="path194" /><g
       id="g200"
       transform="matrix(0.5752952,0,0,0.5752952,8.9264324,142.01014)"><g
         id="g202"
         clip-path="url(#clipPath206)"><path
           d="M 57.6,144.4608 H 414.72"
           style="fill:none;stroke:#b0b0b0;stroke-width:0.8;stroke-linecap:square;stroke-linejoin:round;stroke-miterlimit:10;stroke-dasharray:none;stroke-opacity:1"
           id="path208" /></g></g><path
       d="M 42.063436,225.11774 H 40.049903"
       style="fill:#000000;fill-opacity:1;fill-rule:nonzero;stroke:#000000;stroke-width:0.460236;stroke-linecap:butt;stroke-linejoin:round;stroke-miterlimit:10;stroke-dasharray:none;stroke-opacity:1"
       id="path212" /><g
       id="g218"
       transform="matrix(0.5752952,0,0,0.5752952,8.9264324,142.01014)"><g
         id="g220"
         clip-path="url(#clipPath224)"><path
           d="M 57.6,197.6832 H 414.72"
           style="fill:none;stroke:#b0b0b0;stroke-width:0.8;stroke-linecap:square;stroke-linejoin:round;stroke-miterlimit:10;stroke-dasharray:none;stroke-opacity:1"
           id="path226" /></g></g><path
       d="M 42.063436,255.73634 H 40.049903"
       style="fill:#000000;fill-opacity:1;fill-rule:nonzero;stroke:#000000;stroke-width:0.460236;stroke-linecap:butt;stroke-linejoin:round;stroke-miterlimit:10;stroke-dasharray:none;stroke-opacity:1"
       id="path230" /><g
       id="g236"
       transform="matrix(0.5752952,0,0,0.5752952,8.9264324,142.01014)"><g
         id="g238"
         clip-path="url(#clipPath242)"><path
           d="M 57.6,250.9056 H 414.72"
           style="fill:none;stroke:#b0b0b0;stroke-width:0.8;stroke-linecap:square;stroke-linejoin:round;stroke-miterlimit:10;stroke-dasharray:none;stroke-opacity:1"
           id="path244" /></g></g><g
       id="g254"
       transform="matrix(0.5752952,0,0,0.5752952,8.9264324,142.01014)"><g
         id="g256"
         clip-path="url(#clipPath260)"><path
           d="M 57.6,304.128 H 414.72"
           style="fill:none;stroke:#b0b0b0;stroke-width:0.8;stroke-linecap:square;stroke-linejoin:round;stroke-miterlimit:10;stroke-dasharray:none;stroke-opacity:1"
           id="path262" /></g></g><path
       d="M 42.063436,316.97352 H 40.049903"
       style="fill:#000000;fill-opacity:1;fill-rule:nonzero;stroke:#000000;stroke-width:0.460236;stroke-linecap:butt;stroke-linejoin:round;stroke-miterlimit:10;stroke-dasharray:none;stroke-opacity:1"
       id="path266" /><path
       d="M 42.063436,286.35493 H 40.049903"
       style="fill:#000000;fill-opacity:1;fill-rule:nonzero;stroke:#000000;stroke-width:0.460236;stroke-linecap:butt;stroke-linejoin:round;stroke-miterlimit:10;stroke-dasharray:none;stroke-opacity:1"
       id="path248" /><g
       id="g276"
       transform="matrix(0.5752952,0,0,0.5752952,8.9264324,142.01014)"><g
         id="g278"
         clip-path="url(#clipPath282)"><path
           d="m 57.6,269.96448 4.520506,2.26358 4.520507,-8.7927 4.520506,-8.60849 4.520506,-6.01085 4.520507,-7.27883 4.520506,-2.65699 4.520506,-3.35931 4.520507,-4.16982 4.520506,-0.10719 4.520503,-3.74162 4.52051,-2.44437 4.52051,-2.23798 4.5205,-7.10282 4.52051,-2.00638 4.52051,-1.17263 4.5205,-1.87565 4.52051,1.47294 4.5205,-2.6102 4.52051,-4.46311 4.52051,-2.60359 4.5205,-0.81463 4.52051,-4.17575 4.52051,-1.46218 4.5205,4.25032 4.52051,-0.60918 4.5205,-2.17634 4.52051,0.13877 4.52051,-3.3794 4.5205,0.84619 4.52051,-4.05563 4.52051,-1.33083 4.5205,-0.80908 4.52051,-3.36809 4.5205,2.52877 4.52051,-0.17868 4.52051,1.47643 4.5205,-1.04925 4.52051,-0.39579 4.52051,-5.12976 4.5205,0.8845 4.52051,2.65351 4.52051,-5.33098 4.5205,1.62198 4.52051,2.42496 4.5205,-0.57806 4.52051,-1.85108 4.52051,-0.34122 4.5205,-5.72066 4.52051,1.82755 4.52051,2.18678 4.5205,4.7467 4.52051,-2.03291 4.5205,0.13348 4.52051,-1.2736 4.52051,0.2807 4.5205,-2.92604 4.52051,-5.27758 4.52051,-0.50108 4.5205,-1.20936 4.52051,0.0884 4.52051,-3.064 4.5205,5.40055 4.52051,2.50684 4.5205,0.76866 4.52051,-4.46075 4.52051,-5.56077 4.5205,5.67266 4.52051,-3.39797 4.52051,-0.8828 4.5205,-4.17234 4.52051,-9.92212 4.52051,6.05139 4.5205,-3.64657 m 9.04101,-5.39673 4.52051,-10.08379 4.52051,1.31482"
           style="fill:none;stroke:#1f77b4;stroke-width:1.5;stroke-linecap:square;stroke-linejoin:round;stroke-miterlimit:10;stroke-dasharray:none;stroke-opacity:1"
           id="path284" /></g></g><g
       id="g286"
       transform="matrix(0.5752952,0,0,0.5752952,8.9264324,142.01014)"><g
         id="g288"
         clip-path="url(#clipPath292)"><path
           d="m 57.6,271.2859 4.520506,1.4782 4.520507,-8.82881 4.520506,-8.41061 4.520506,-5.70726 4.520507,-6.81213 4.520506,-2.90929 4.520506,-3.69431 4.520507,-4.21889 4.520506,-0.17893 4.520503,-3.64655 4.52051,-2.61976 4.52051,-1.92074 4.5205,-6.85204 4.52051,-1.98794 4.52051,-1.38078 4.5205,-2.32879 4.52051,1.48997 4.5205,-2.26096 4.52051,-4.14157 4.52051,-2.06798 4.5205,-0.48747 4.52051,-3.87033 4.52051,-1.77435 4.5205,3.85849 4.52051,-0.40757 4.5205,-2.38113 4.52051,0.85935 4.52051,-3.5013 4.5205,0.40163 4.52051,-3.62539 4.52051,-0.91099 4.5205,-0.6505 4.52051,-2.65997 4.5205,2.22264 4.52051,0.12118 4.52051,1.60322 4.5205,-0.98836 4.52051,0.0606 4.52051,-4.83795 4.5205,1.35459 4.52051,2.41231 4.52051,-5.0907 4.5205,2.21344 4.52051,2.2934 4.5205,-0.96787 4.52051,-1.66542 4.52051,-0.026 4.5205,-6.08657 4.52051,1.57472 4.52051,2.1687 4.5205,4.57917 4.52051,-2.35371 4.5205,0.50741 4.52051,-0.99962 4.52051,0.306 4.5205,-3.33366 4.52051,-2.81845 4.52051,0.92785 4.5205,-1.14389 4.52051,0.22589 4.52051,-1.00933 4.5205,1.49257 4.52051,2.09095 4.5205,2.07875 4.52051,0.55807 4.52051,-1.1832 4.5205,3.16359 4.52051,-6.57764 4.52051,1.34468 4.5205,-3.7542 4.52051,-1.93335 4.52051,1.23828 4.5205,2.1808 m 9.04101,-9.27535 4.52051,-7.96143 4.52051,8.05553"
           style="fill:none;stroke:#ff7f0e;stroke-width:1.5;stroke-linecap:square;stroke-linejoin:round;stroke-miterlimit:10;stroke-dasharray:none;stroke-opacity:1"
           id="path294" /></g></g><g
       id="g296"
       transform="matrix(0.5752952,0,0,0.5752952,8.9264324,142.01014)"><g
         id="g298"
         clip-path="url(#clipPath302)"><path
           d="m 57.6,270.19664 4.520506,1.86195 4.520507,-8.39638 4.520506,-7.61131 4.520506,-5.17892 4.520507,-7.0444 4.520506,-3.75041 4.520506,-3.9402 4.520507,-4.06623 4.520506,-0.004 4.520503,-3.83327 4.52051,-3.09998 4.52051,-1.83308 4.5205,-6.80601 4.52051,-1.84318 4.52051,-1.35803 4.5205,-2.39888 4.52051,1.80785 4.5205,-1.96821 4.52051,-4.26665 4.52051,-1.88325 4.5205,-0.75894 4.52051,-3.53929 4.52051,-2.41063 4.5205,3.76798 4.52051,-0.56074 4.5205,-2.531 4.52051,0.87228 4.52051,-3.74669 4.5205,0.84156 4.52051,-3.76606 4.52051,-0.83349 4.5205,-0.78375 4.52051,-2.15342 4.5205,2.16927 4.52051,-0.23085 4.52051,1.85502 4.5205,-1.23631 4.52051,0.29302 4.52051,-4.49681 4.5205,1.33282 4.52051,1.9238 4.52051,-4.81613 4.5205,1.96247 4.52051,2.30985 4.5205,-1.13312 4.52051,-1.41849 4.52051,-0.18416 4.5205,-5.49833 4.52051,1.59788 4.52051,2.11932 4.5205,4.1402 4.52051,-2.43235 4.5205,-0.11482 4.52051,-1.38893 4.52051,-0.068 4.5205,-2.28245 4.52051,-3.77956 4.52051,1.53428 4.5205,-1.90114 4.52051,3.13209 4.52051,-1.71163 4.5205,0.95518 4.52051,1.65684 4.5205,4.04104 4.52051,-2.47473 4.52051,0.20365 4.5205,1.79394 4.52051,-4.85794 4.52051,3.02517 4.5205,-4.88292 4.52051,-2.51533 4.52051,3.55232 4.5205,2.78367 4.52051,-17.47377 4.5205,13.86604 4.52051,-8.14158 4.52051,-6.07179 4.5205,-32.47481 4.52051,34.77122"
           style="fill:none;stroke:#2ca02c;stroke-width:1.5;stroke-linecap:square;stroke-linejoin:round;stroke-miterlimit:10;stroke-dasharray:none;stroke-opacity:1"
           id="path304" /></g></g><path
       d="m 42.063436,295.48823 2.600625,1.42921 2.600626,-4.79843 2.600626,-4.88213 2.600625,-3.30125 2.600626,-4.01061 2.600625,-1.9139 2.600626,-2.25181 2.600626,-2.72839 2.600625,0.0372 2.600624,-2.67557 2.600627,-1.49546 2.600628,-1.34134 2.600622,-4.24402 2.600628,-1.45958 2.600627,-0.93205 2.600622,-1.42394 2.600628,0.92303 2.600622,-1.4414 2.600628,-1.86969 2.600627,-1.05272 2.600622,0.0327 2.600628,-2.01317 2.600641,-1.8727 2.60062,1.86343 2.60062,-1.26389 2.60062,-1.52431 2.60063,-0.41499 2.60063,-2.20452 2.60062,-0.33804 2.60063,-1.83978 2.60063,-0.3515 2.60062,-0.27821 2.60063,-1.63853 2.60062,1.35784 2.60062,0.0164 2.60063,0.70212 2.60062,-0.75037 2.60063,-0.6498 2.60063,-1.87558 2.60062,0.52199 2.60063,0.64125 2.60063,-2.31343 2.60062,1.1084 2.60063,0.98004 2.60062,-0.99002 2.60062,0.13062 2.60063,0.0798 2.60063,-2.06934 2.60062,0.59094 2.60063,2.44054 2.60063,1.83573 2.60062,-0.36978 2.60063,0.0723 2.60063,-1.00443 2.60061,-0.0294 2.60063,-1.71697 2.60063,-1.81383 2.60062,2.13859 2.60063,-1.30366 2.60063,0.90933 2.60063,-0.91666 2.60062,-0.25525 2.60063,2.05164 2.60062,2.16986 2.60062,-0.9985 2.60063,0.77939 2.60062,1.29752 2.60063,-2.47079 2.60063,1.48505 2.60062,-2.68534 2.60063,-1.31671 2.60063,2.77695 2.60062,-0.32142 2.60063,-1.69882 2.60061,-0.58609 2.60063,0.15515 2.60063,-3.40026 2.60062,-1.88417 2.60063,-0.013"
       style="fill:none;stroke:#9467bd;stroke-width:0.862943;stroke-linecap:square;stroke-linejoin:round;stroke-miterlimit:10;stroke-dasharray:none;stroke-opacity:1"
       id="path314" /><path
       d="m 42.063436,284.71112 2.600625,-4.2074 2.600626,-1.53717 2.600626,-1.10792 2.600625,0.30405 2.600626,0.91058 2.600625,-0.48176 2.600626,2.73597 2.600626,0.87406 2.600625,-0.0728 2.600624,-0.006 2.600627,0.0599 2.600628,-1.66929 2.600622,0.1248 2.600628,-0.24848 2.600627,1.0416 2.600622,-1.22913 2.600628,-0.73737 2.600622,0.64114 2.600628,0.39413 2.600627,-0.89942 2.600622,-1.65808 2.600628,-2.14426 2.600641,-2.13485 2.60062,-0.25767 2.60062,-1.40539 2.60062,-0.55491 2.60063,0.70281 2.60063,-0.69726 2.60062,3.96797 2.60063,1.92653 2.60063,-1.24481 2.60062,-0.58248 2.60063,3.61338 2.60062,-1.56625 2.60062,-1.27336 2.60063,-1.50922 2.60062,2.32632 2.60063,0.14704 2.60063,1.20514 2.60062,-2.84544 2.60063,0.52551 2.60063,1.40285 2.60062,-2.87617 2.60063,-0.49586 2.60062,-1.54636 2.60062,1.64156 2.60063,2.17266 2.60063,-0.29396 2.60062,2.66325 2.60063,-2.05676 2.60063,0.21681 2.60062,0.90037 2.60063,-1.20579 2.60063,-1.13188 2.60061,2.42762 2.60063,-1.21735 2.60063,-0.83193 2.60062,-0.85274 2.60063,-2.25576 2.60063,-2.25089 2.60063,0.43125 2.60062,0.44737 2.60063,-1.68733 2.60062,-2.57198 2.60062,-2.01722 2.60063,-0.43699 2.60062,-1.15071 2.60063,-1.14248 2.60063,-0.18682 2.60062,-1.75989 2.60063,1.12583 2.60063,0.12013 2.60062,-1.82312 2.60063,0.58993 2.60061,1.3317 2.60063,1.56393 2.60063,-2.25538 2.60062,0.57995 2.60063,-4.13878"
       style="fill:none;stroke:#d62728;stroke-width:0.862943;stroke-linecap:square;stroke-linejoin:round;stroke-miterlimit:10;stroke-dasharray:none;stroke-opacity:1"
       id="path324" /><path
       d="M 42.063436,163.88057 V 316.97352"
       style="fill:none;stroke:#000000;stroke-width:0.460236;stroke-linecap:square;stroke-linejoin:miter;stroke-miterlimit:10;stroke-dasharray:none;stroke-opacity:1"
       id="path328" /><path
       d="M 247.51286,163.88057 V 316.97352"
       style="fill:none;stroke:#000000;stroke-width:0.460236;stroke-linecap:square;stroke-linejoin:miter;stroke-miterlimit:10;stroke-dasharray:none;stroke-opacity:1"
       id="path330" /><path
       d="M 42.063436,163.88057 H 247.51286"
       style="fill:none;stroke:#000000;stroke-width:0.460236;stroke-linecap:square;stroke-linejoin:miter;stroke-miterlimit:10;stroke-dasharray:none;stroke-opacity:1"
       id="path332" /><path
       d="M 42.063436,316.97352 H 247.51286"
       style="fill:none;stroke:#000000;stroke-width:0.460236;stroke-linecap:square;stroke-linejoin:miter;stroke-miterlimit:10;stroke-dasharray:none;stroke-opacity:1"
       id="path334" /><path
       d="m 53.043536,206.57599 h 11.5059"
       style="fill:none;stroke:#1f77b4;stroke-width:0.862943;stroke-linecap:square;stroke-linejoin:round;stroke-miterlimit:10;stroke-dasharray:none;stroke-opacity:1"
       id="path344" /><path
       d="m 53.043536,198.13533 h 11.5059"
       style="fill:none;stroke:#ff7f0e;stroke-width:0.862943;stroke-linecap:square;stroke-linejoin:round;stroke-miterlimit:10;stroke-dasharray:none;stroke-opacity:1"
       id="path350" /><path
       d="m 53.043536,189.69467 h 11.5059"
       style="fill:none;stroke:#2ca02c;stroke-width:0.862943;stroke-linecap:square;stroke-linejoin:round;stroke-miterlimit:10;stroke-dasharray:none;stroke-opacity:1"
       id="path356" /><path
       d="m 53.043536,181.25401 h 11.5059"
       style="fill:none;stroke:#9467bd;stroke-width:0.862943;stroke-linecap:square;stroke-linejoin:round;stroke-miterlimit:10;stroke-dasharray:none;stroke-opacity:1"
       id="path362" /><path
       d="m 53.043536,172.81336 h 11.5059"
       style="fill:none;stroke:#d62728;stroke-width:0.862943;stroke-linecap:square;stroke-linejoin:round;stroke-miterlimit:10;stroke-dasharray:none;stroke-opacity:1"
       id="path368" /></g><g
     inkscape:groupmode="layer"
     id="layer1"
     inkscape:label="text"
     style="display:inline"
     transform="translate(-28.023958,-17.206424)"><text
       style="font-variant:normal;font-weight:normal;font-size:7.67061px;font-family:'DejaVu Sans';-inkscape-font-specification:DejaVuSans;writing-mode:lr-tb;fill:#000000;fill-opacity:1;fill-rule:nonzero;stroke:none;stroke-width:0.767061"
       id="text32"
       x="53.54504"
       y="253.48691"><tspan
         x="53.54504 58.423542 60.862797 65.741302"
         y="253.48691"
         sodipodi:role="line"
         id="tspan30"
         style="stroke-width:0.767061">0.00</tspan></text><text
       style="font-variant:normal;font-weight:normal;font-size:7.67061px;font-family:'DejaVu Sans';-inkscape-font-specification:DejaVuSans;writing-mode:lr-tb;fill:#000000;fill-opacity:1;fill-rule:nonzero;stroke:none;stroke-width:0.767061"
       id="text50"
       x="82.220039"
       y="253.48691"><tspan
         x="82.220039 87.098549 89.537796 94.416306"
         y="253.48691"
         sodipodi:role="line"
         id="tspan48"
         style="stroke-width:0.767061">0.25</tspan></text><text
       style="font-variant:normal;font-weight:normal;font-size:7.67061px;font-family:'DejaVu Sans';-inkscape-font-specification:DejaVuSans;writing-mode:lr-tb;fill:#000000;fill-opacity:1;fill-rule:nonzero;stroke:none;stroke-width:0.767061"
       id="text68"
       x="116.89503"
       y="253.48691"><tspan
         x="116.89503 121.77354 124.21281 129.09131"
         y="253.48691"
         sodipodi:role="line"
         id="tspan66"
         style="stroke-width:0.767061">0.50</tspan></text><text
       style="font-variant:normal;font-weight:normal;font-size:7.67061px;font-family:'DejaVu Sans';-inkscape-font-specification:DejaVuSans;writing-mode:lr-tb;fill:#000000;fill-opacity:1;fill-rule:nonzero;stroke:none;stroke-width:0.767061"
       id="text86"
       x="151.57007"
       y="253.48691"><tspan
         x="151.57007 156.44858 158.88782 163.76633"
         y="253.48691"
         sodipodi:role="line"
         id="tspan84"
         style="stroke-width:0.767061">0.75</tspan></text><text
       style="font-variant:normal;font-weight:normal;font-size:7.67061px;font-family:'DejaVu Sans';-inkscape-font-specification:DejaVuSans;writing-mode:lr-tb;fill:#000000;fill-opacity:1;fill-rule:nonzero;stroke:none;stroke-width:0.767061"
       id="text104"
       x="186.24507"
       y="253.48691"><tspan
         x="186.24507 191.12358 193.56282 198.44133"
         y="253.48691"
         sodipodi:role="line"
         id="tspan102"
         style="stroke-width:0.767061">1.00</tspan></text><text
       style="font-variant:normal;font-weight:normal;font-size:7.67061px;font-family:'DejaVu Sans';-inkscape-font-specification:DejaVuSans;writing-mode:lr-tb;fill:#000000;fill-opacity:1;fill-rule:nonzero;stroke:none;stroke-width:0.767061"
       id="text122"
       x="220.92007"
       y="253.48691"><tspan
         x="220.92007 225.79858 228.23784 233.11633"
         y="253.48691"
         sodipodi:role="line"
         id="tspan120"
         style="stroke-width:0.767061">1.25</tspan></text><text
       style="font-variant:normal;font-weight:normal;font-size:7.67061px;font-family:'DejaVu Sans';-inkscape-font-specification:DejaVuSans;writing-mode:lr-tb;fill:#000000;fill-opacity:1;fill-rule:nonzero;stroke:none;stroke-width:0.767061"
       id="text140"
       x="255.59509"
       y="253.48691"><tspan
         x="255.59509 260.47357 262.91284 267.79135"
         y="253.48691"
         sodipodi:role="line"
         id="tspan138"
         style="stroke-width:0.767061">1.50</tspan></text><text
       style="font-variant:normal;font-weight:normal;font-size:7.67061px;font-family:'DejaVu Sans';-inkscape-font-specification:DejaVuSans;writing-mode:lr-tb;fill:#000000;fill-opacity:1;fill-rule:nonzero;stroke:none;stroke-width:0.767061"
       id="text158"
       x="290.27008"
       y="253.48691"><tspan
         x="290.27008 295.14859 297.58786 302.46637"
         y="253.48691"
         sodipodi:role="line"
         id="tspan156"
         style="stroke-width:0.767061">1.75</tspan></text><text
       style="font-variant:normal;font-weight:normal;font-size:7.67061px;font-family:'DejaVu Sans';-inkscape-font-specification:DejaVuSans;writing-mode:lr-tb;fill:#000000;fill-opacity:1;fill-rule:nonzero;stroke:none;stroke-width:0.767061"
       id="text162"
       x="146.62575"
       y="263.97397"><tspan
         x="146.62575 152.57045 157.28787 162.15103 166.84544 174.3166 176.44902 180.66785 183.10713 187.97794 190.11037 194.10675 197.11365 201.8157 206.67888 210.89774 215.61513 218.05438 220.63937 223.07861 229.69836 234.56918"
         y="263.97397"
         sodipodi:role="line"
         id="tspan160"
         style="stroke-width:0.767061">Genomic distance / Mbp</tspan></text><text
       style="font-variant:normal;font-weight:normal;font-size:7.67061px;font-family:'DejaVu Sans';-inkscape-font-specification:DejaVuSans;writing-mode:lr-tb;fill:#000000;fill-opacity:1;fill-rule:nonzero;stroke:none;stroke-width:0.767061"
       id="text180"
       x="38.514103"
       y="245.20508"><tspan
         x="38.514103 43.392612 45.83186"
         y="245.20508"
         sodipodi:role="line"
         id="tspan178"
         style="stroke-width:0.767061">0.0</tspan></text><text
       style="font-variant:normal;font-weight:normal;font-size:7.67061px;font-family:'DejaVu Sans';-inkscape-font-specification:DejaVuSans;writing-mode:lr-tb;fill:#000000;fill-opacity:1;fill-rule:nonzero;stroke:none;stroke-width:0.767061"
       id="text198"
       x="38.514103"
       y="204.38026"><tspan
         x="38.514103 43.392612 45.83186"
         y="204.38026"
         sodipodi:role="line"
         id="tspan196"
         style="stroke-width:0.767061">0.2</tspan></text><text
       style="font-variant:normal;font-weight:normal;font-size:7.67061px;font-family:'DejaVu Sans';-inkscape-font-specification:DejaVuSans;writing-mode:lr-tb;fill:#000000;fill-opacity:1;fill-rule:nonzero;stroke:none;stroke-width:0.767061"
       id="text216"
       x="38.514103"
       y="163.55548"><tspan
         x="38.514103 43.392612 45.83186"
         y="163.55548"
         sodipodi:role="line"
         id="tspan214"
         style="stroke-width:0.767061">0.4</tspan></text><text
       style="font-variant:normal;font-weight:normal;font-size:7.67061px;font-family:'DejaVu Sans';-inkscape-font-specification:DejaVuSans;writing-mode:lr-tb;fill:#000000;fill-opacity:1;fill-rule:nonzero;stroke:none;stroke-width:0.767061"
       id="text234"
       x="38.514103"
       y="122.73062"><tspan
         x="38.514103 43.392612 45.83186"
         y="122.73062"
         sodipodi:role="line"
         id="tspan232"
         style="stroke-width:0.767061">0.6</tspan></text><text
       style="font-variant:normal;font-weight:normal;font-size:7.67061px;font-family:'DejaVu Sans';-inkscape-font-specification:DejaVuSans;writing-mode:lr-tb;fill:#000000;fill-opacity:1;fill-rule:nonzero;stroke:none;stroke-width:0.767061"
       id="text270"
       x="38.514103"
       y="41.081112"><tspan
         x="38.514103 43.392612 45.83186"
         y="41.081112"
         sodipodi:role="line"
         id="tspan268"
         style="stroke-width:0.767061">1.0</tspan></text><text
       transform="rotate(-90)"
       style="font-variant:normal;font-weight:normal;font-size:7.67061px;font-family:'DejaVu Sans';-inkscape-font-specification:DejaVuSans;writing-mode:lr-tb;fill:#000000;fill-opacity:1;fill-rule:nonzero;stroke:none;stroke-width:0.767061"
       id="text274"
       x="-177.28926"
       y="33.851818"><tspan
         x="-177.28926 -172.66388 -167.94646 -163.24438 -160.09177 -156.09538 -151.40097 -146.53781 -144.09856 -139.87973 -135.18532 -132.0327 -128.88008 -124.16263 -122.03018 -117.32812 -114.32123 -112.1888 -107.49439"
         y="33.851818"
         sodipodi:role="line"
         id="tspan272"
         style="stroke-width:0.767061">Pearson correlation</tspan></text><text
       style="font-variant:normal;font-weight:normal;font-size:7.67061px;font-family:'DejaVu Sans';-inkscape-font-specification:DejaVuSans;writing-mode:lr-tb;fill:#000000;fill-opacity:1;fill-rule:nonzero;stroke:none;stroke-width:0.767061"
       id="text252"
       x="38.514103"
       y="81.905869"><tspan
         x="38.514103 43.392612 45.83186"
         y="81.905869"
         sodipodi:role="line"
         id="tspan250"
         style="stroke-width:0.767061">0.8</tspan></text><text
       style="font-variant:normal;font-weight:normal;font-size:9.20472px;font-family:'DejaVu Sans';-inkscape-font-specification:DejaVuSans;writing-mode:lr-tb;fill:#000000;fill-opacity:1;fill-rule:nonzero;stroke:none;stroke-width:0.767061"
       id="text338"
       x="98.324905"
       y="23.249348"><tspan
         x="98.324905 103.87535 109.53626 115.17876 118.96189 123.75755 129.39085 135.22665 138.15373 143.21634 148.84962 152.63278 156.41592 162.07683 164.63573 170.27823 173.88649 176.44539 182.0787 187.91447 190.84158 196.29079 201.08644 204.01355 206.94063 212.78563 218.44655 224.28233 229.91562 238.88101 241.43993 246.50253 249.42964 255.27464 257.83356 262.62918 266.23743 271.87994 277.71573 282.77835"
         y="23.249348"
         sodipodi:role="line"
         id="tspan336"
         style="stroke-width:0.767061">Pearson correlation vs. genomic distance</tspan></text><text
       style="font-variant:normal;font-weight:normal;font-size:9.20472px;font-family:'DejaVu Sans';-inkscape-font-specification:DejaVuSans;writing-mode:lr-tb;fill:#000000;fill-opacity:1;fill-rule:nonzero;stroke:none;stroke-width:0.767061"
       id="text342"
       x="61.05925"
       y="33.566319"><tspan
         x="61.05925 68.192917 76.136589 81.990791 87.844994 93.699196 99.553406 105.40759 108.3347 111.26181 117.11601 120.04312 125.89732 128.82443 134.67862 137.60573 143.45993 146.38704 152.24124 155.16833 161.02255 166.87674 169.80385 175.65805 181.51225 184.43936 190.29356 196.14777 199.07484 204.92906 210.78326 213.71037 219.56459 225.41879 228.3459 234.2001 240.05429 242.98141 248.8356 254.68982 257.61691 263.47113 269.32532 272.25244 277.88574 283.7215 286.64862 292.68692 298.54114 304.39532 310.24954 313.17661 316.10373 321.95792"
         y="33.566319"
         sodipodi:role="line"
         id="tspan340"
         style="stroke-width:0.767061">GM12878, 1,2,4,7,9,11,13,14,16,17,18,20,22 on K562, 10</tspan></text><text
       style="font-variant:normal;font-weight:normal;font-size:7.67061px;font-family:'DejaVu Sans';-inkscape-font-specification:DejaVuSans;writing-mode:lr-tb;fill:#000000;fill-opacity:1;fill-rule:nonzero;stroke:none;stroke-width:0.767061"
       id="text348"
       x="92.2024"
       y="188.05009"><tspan
         x="92.2024 94.334831 99.029243 103.8924 108.76325 113.48064 116.63329 119.07252 121.51177 126.39028 131.26878 136.14731 140.86472 145.73557 148.1748 150.75977 153.19907 158.44571 164.06058 169.4147 171.99969 174.43893 179.31744 181.75671 186.63516 191.5137"
         y="188.05009"
         sodipodi:role="line"
         id="tspan346"
         style="stroke-width:0.767061">longer, 250ep / AUC: 0.568</tspan></text><text
       style="font-variant:normal;font-weight:normal;font-size:7.67061px;font-family:'DejaVu Sans';-inkscape-font-specification:DejaVuSans;writing-mode:lr-tb;fill:#000000;fill-opacity:1;fill-rule:nonzero;stroke:none;stroke-width:0.767061"
       id="text354"
       x="92.2024"
       y="199.30431"><tspan
         x="92.2024 94.334831 99.029243 103.8924 108.76325 113.48064 116.63329 119.07252 121.51177 126.39028 131.26878 136.14731 140.86472 145.73557 148.1748 150.75977 153.19907 158.44571 164.06058 169.4147 171.99969 174.43893 179.31744 181.75671 186.63516 191.5137"
         y="199.30431"
         sodipodi:role="line"
         id="tspan352"
         style="stroke-width:0.767061">longer, 500ep / AUC: 0.596</tspan></text><text
       style="font-variant:normal;font-weight:normal;font-size:7.67061px;font-family:'DejaVu Sans';-inkscape-font-specification:DejaVuSans;writing-mode:lr-tb;fill:#000000;fill-opacity:1;fill-rule:nonzero;stroke:none;stroke-width:0.767061"
       id="text360"
       x="92.2024"
       y="210.55849"><tspan
         x="92.2024 94.334831 99.029243 103.8924 108.76325 113.48064 116.63329 119.07252 121.51177 126.39028 131.26878 136.14731 141.02579 145.74323 150.61404 153.05328 155.63831 158.07758 163.32425 168.93915 174.29318 176.87817 179.31744 184.19595 186.63516 191.5137 196.39221"
         y="210.55849"
         sodipodi:role="line"
         id="tspan358"
         style="stroke-width:0.767061">longer, 1000ep / AUC: 0.600</tspan></text><text
       style="font-variant:normal;font-weight:normal;font-size:7.67061px;font-family:'DejaVu Sans';-inkscape-font-specification:DejaVuSans;writing-mode:lr-tb;fill:#000000;fill-opacity:1;fill-rule:nonzero;stroke:none;stroke-width:0.767061"
       id="text366"
       x="92.2024"
       y="221.8127"><tspan
         x="92.2024 94.334831 99.198006 101.33042 104.33729 106.46973 111.17179 113.30421 115.74348 118.18273 123.06123 127.93972 132.81824 137.53569 142.40649 144.84576 147.43073 149.87 155.11667 160.7316 166.08566 168.67065 171.10989 175.98843 178.42767 183.30615 188.18466"
         y="221.8127"
         sodipodi:role="line"
         id="tspan364"
         style="stroke-width:0.767061">initial, 500ep / AUC: 0.575</tspan></text><text
       style="font-variant:normal;font-weight:normal;font-size:7.67061px;font-family:'DejaVu Sans';-inkscape-font-specification:DejaVuSans;writing-mode:lr-tb;fill:#000000;fill-opacity:1;fill-rule:nonzero;stroke:none;stroke-width:0.767061"
       id="text372"
       x="92.2024"
       y="233.06691"><tspan
         x="92.2024 95.209282 98.3619 103.06397 107.92713 111.92352 114.62356 119.34101 122.4936 124.93285 130.87758 137.4973 142.37584 147.25433 152.13284 157.01132 161.88986 164.3291 166.91409 169.3533 174.60001 180.2149 185.569 188.15396 190.59323 195.47174 197.91098 202.78946 207.66803"
         y="233.06691"
         sodipodi:role="line"
         id="tspan370"
         style="stroke-width:0.767061">transfer GM12878 / AUC: 0.720</tspan></text></g></svg>
