<?xml version="1.0" encoding="UTF-8" standalone="no"?>
<svg
   xmlns:dc="http://purl.org/dc/elements/1.1/"
   xmlns:cc="http://creativecommons.org/ns#"
   xmlns:rdf="http://www.w3.org/1999/02/22-rdf-syntax-ns#"
   xmlns:svg="http://www.w3.org/2000/svg"
   xmlns="http://www.w3.org/2000/svg"
   xmlns:sodipodi="http://sodipodi.sourceforge.net/DTD/sodipodi-0.dtd"
   xmlns:inkscape="http://www.inkscape.org/namespaces/inkscape"
   version="1.1"
   id="svg2"
   xml:space="preserve"
   width="80mm"
   height="65.300003mm"
   viewBox="0 0 302.36222 246.80316"
   sodipodi:docname="pearson_chr19.svg"
   inkscape:version="1.0.2 (1.0.2+r75+1)"><metadata
     id="metadata8"><rdf:RDF><cc:Work
         rdf:about=""><dc:format>image/svg+xml</dc:format><dc:type
           rdf:resource="http://purl.org/dc/dcmitype/StillImage" /><dc:title></dc:title></cc:Work></rdf:RDF></metadata><defs
     id="defs6"><clipPath
       clipPathUnits="userSpaceOnUse"
       id="clipPath22"><path
         d="M 57.6,38.016 H 414.72 V 304.128 H 57.6 Z"
         id="path20" /></clipPath><clipPath
       clipPathUnits="userSpaceOnUse"
       id="clipPath40"><path
         d="M 57.6,38.016 H 414.72 V 304.128 H 57.6 Z"
         id="path38" /></clipPath><clipPath
       clipPathUnits="userSpaceOnUse"
       id="clipPath58"><path
         d="M 57.6,38.016 H 414.72 V 304.128 H 57.6 Z"
         id="path56" /></clipPath><clipPath
       clipPathUnits="userSpaceOnUse"
       id="clipPath76"><path
         d="M 57.6,38.016 H 414.72 V 304.128 H 57.6 Z"
         id="path74" /></clipPath><clipPath
       clipPathUnits="userSpaceOnUse"
       id="clipPath94"><path
         d="M 57.6,38.016 H 414.72 V 304.128 H 57.6 Z"
         id="path92" /></clipPath><clipPath
       clipPathUnits="userSpaceOnUse"
       id="clipPath112"><path
         d="M 57.6,38.016 H 414.72 V 304.128 H 57.6 Z"
         id="path110" /></clipPath><clipPath
       clipPathUnits="userSpaceOnUse"
       id="clipPath130"><path
         d="M 57.6,38.016 H 414.72 V 304.128 H 57.6 Z"
         id="path128" /></clipPath><clipPath
       clipPathUnits="userSpaceOnUse"
       id="clipPath148"><path
         d="M 57.6,38.016 H 414.72 V 304.128 H 57.6 Z"
         id="path146" /></clipPath><clipPath
       clipPathUnits="userSpaceOnUse"
       id="clipPath170"><path
         d="M 57.6,38.016 H 414.72 V 304.128 H 57.6 Z"
         id="path168" /></clipPath><clipPath
       clipPathUnits="userSpaceOnUse"
       id="clipPath188"><path
         d="M 57.6,38.016 H 414.72 V 304.128 H 57.6 Z"
         id="path186" /></clipPath><clipPath
       clipPathUnits="userSpaceOnUse"
       id="clipPath206"><path
         d="M 57.6,38.016 H 414.72 V 304.128 H 57.6 Z"
         id="path204" /></clipPath><clipPath
       clipPathUnits="userSpaceOnUse"
       id="clipPath224"><path
         d="M 57.6,38.016 H 414.72 V 304.128 H 57.6 Z"
         id="path222" /></clipPath><clipPath
       clipPathUnits="userSpaceOnUse"
       id="clipPath242"><path
         d="M 57.6,38.016 H 414.72 V 304.128 H 57.6 Z"
         id="path240" /></clipPath><clipPath
       clipPathUnits="userSpaceOnUse"
       id="clipPath260"><path
         d="M 57.6,38.016 H 414.72 V 304.128 H 57.6 Z"
         id="path258" /></clipPath><clipPath
       clipPathUnits="userSpaceOnUse"
       id="clipPath282"><path
         d="M 57.6,38.016 H 414.72 V 304.128 H 57.6 Z"
         id="path280" /></clipPath><clipPath
       clipPathUnits="userSpaceOnUse"
       id="clipPath292"><path
         d="M 57.6,38.016 H 414.72 V 304.128 H 57.6 Z"
         id="path290" /></clipPath><clipPath
       clipPathUnits="userSpaceOnUse"
       id="clipPath302"><path
         d="M 57.6,38.016 H 414.72 V 304.128 H 57.6 Z"
         id="path300" /></clipPath><clipPath
       clipPathUnits="userSpaceOnUse"
       id="clipPath312"><path
         d="M 57.6,38.016 H 414.72 V 304.128 H 57.6 Z"
         id="path310" /></clipPath><clipPath
       clipPathUnits="userSpaceOnUse"
       id="clipPath322"><path
         d="M 57.6,38.016 H 414.72 V 304.128 H 57.6 Z"
         id="path320" /></clipPath></defs><sodipodi:namedview
     pagecolor="#ffffff"
     bordercolor="#666666"
     borderopacity="1"
     objecttolerance="10"
     gridtolerance="10"
     guidetolerance="10"
     inkscape:pageopacity="0"
     inkscape:pageshadow="2"
     inkscape:window-width="1920"
     inkscape:window-height="1020"
     id="namedview4"
     showgrid="false"
     fit-margin-top="0"
     fit-margin-left="0"
     fit-margin-right="0"
     fit-margin-bottom="0"
     units="mm"
     inkscape:zoom="3.7196182"
     inkscape:cx="150.90698"
     inkscape:cy="219.98199"
     inkscape:window-x="0"
     inkscape:window-y="0"
     inkscape:window-maximized="1"
     inkscape:current-layer="layer1"
     inkscape:document-rotation="0" /><g
     id="g10"
     inkscape:groupmode="layer"
     inkscape:label="pearson_chr19"
     transform="matrix(1.3333333,0,0,-1.3333333,-28.023958,443.59358)"><g
       id="g16"
       transform="matrix(0.57527259,0,0,0.57527259,8.9269075,142.01049)"><g
         id="g18"
         clip-path="url(#clipPath22)"><path
           d="M 57.6,38.016 V 304.128"
           style="fill:none;stroke:#b0b0b0;stroke-width:0.8;stroke-linecap:square;stroke-linejoin:round;stroke-miterlimit:10;stroke-dasharray:none;stroke-opacity:1"
           id="path24" /></g></g><path
       d="m 42.062608,163.88005 v -2.01346"
       style="fill:#000000;fill-opacity:1;fill-rule:nonzero;stroke:#000000;stroke-width:0.460218;stroke-linecap:butt;stroke-linejoin:round;stroke-miterlimit:10;stroke-dasharray:none;stroke-opacity:1"
       id="path28" /><g
       id="g34"
       transform="matrix(0.57527259,0,0,0.57527259,8.9269075,142.01049)"><g
         id="g36"
         clip-path="url(#clipPath40)"><path
           d="M 102.80506,38.016 V 304.128"
           style="fill:none;stroke:#b0b0b0;stroke-width:0.8;stroke-linecap:square;stroke-linejoin:round;stroke-miterlimit:10;stroke-dasharray:none;stroke-opacity:1"
           id="path42" /></g></g><path
       d="m 68.067841,163.88005 v -2.01346"
       style="fill:#000000;fill-opacity:1;fill-rule:nonzero;stroke:#000000;stroke-width:0.460218;stroke-linecap:butt;stroke-linejoin:round;stroke-miterlimit:10;stroke-dasharray:none;stroke-opacity:1"
       id="path46" /><g
       id="g52"
       transform="matrix(0.57527259,0,0,0.57527259,8.9269075,142.01049)"><g
         id="g54"
         clip-path="url(#clipPath58)"><path
           d="M 148.01013,38.016 V 304.128"
           style="fill:none;stroke:#b0b0b0;stroke-width:0.8;stroke-linecap:square;stroke-linejoin:round;stroke-miterlimit:10;stroke-dasharray:none;stroke-opacity:1"
           id="path60" /></g></g><path
       d="m 94.073078,163.88005 v -2.01346"
       style="fill:#000000;fill-opacity:1;fill-rule:nonzero;stroke:#000000;stroke-width:0.460218;stroke-linecap:butt;stroke-linejoin:round;stroke-miterlimit:10;stroke-dasharray:none;stroke-opacity:1"
       id="path64" /><g
       id="g70"
       transform="matrix(0.57527259,0,0,0.57527259,8.9269075,142.01049)"><g
         id="g72"
         clip-path="url(#clipPath76)"><path
           d="M 193.21519,38.016 V 304.128"
           style="fill:none;stroke:#b0b0b0;stroke-width:0.8;stroke-linecap:square;stroke-linejoin:round;stroke-miterlimit:10;stroke-dasharray:none;stroke-opacity:1"
           id="path78" /></g></g><path
       d="m 120.07831,163.88005 v -2.01346"
       style="fill:#000000;fill-opacity:1;fill-rule:nonzero;stroke:#000000;stroke-width:0.460218;stroke-linecap:butt;stroke-linejoin:round;stroke-miterlimit:10;stroke-dasharray:none;stroke-opacity:1"
       id="path82" /><g
       id="g88"
       transform="matrix(0.57527259,0,0,0.57527259,8.9269075,142.01049)"><g
         id="g90"
         clip-path="url(#clipPath94)"><path
           d="M 238.42025,38.016 V 304.128"
           style="fill:none;stroke:#b0b0b0;stroke-width:0.8;stroke-linecap:square;stroke-linejoin:round;stroke-miterlimit:10;stroke-dasharray:none;stroke-opacity:1"
           id="path96" /></g></g><path
       d="m 146.08354,163.88005 v -2.01346"
       style="fill:#000000;fill-opacity:1;fill-rule:nonzero;stroke:#000000;stroke-width:0.460218;stroke-linecap:butt;stroke-linejoin:round;stroke-miterlimit:10;stroke-dasharray:none;stroke-opacity:1"
       id="path100" /><g
       id="g106"
       transform="matrix(0.57527259,0,0,0.57527259,8.9269075,142.01049)"><g
         id="g108"
         clip-path="url(#clipPath112)"><path
           d="M 283.62532,38.016 V 304.128"
           style="fill:none;stroke:#b0b0b0;stroke-width:0.8;stroke-linecap:square;stroke-linejoin:round;stroke-miterlimit:10;stroke-dasharray:none;stroke-opacity:1"
           id="path114" /></g></g><path
       d="m 172.08878,163.88005 v -2.01346"
       style="fill:#000000;fill-opacity:1;fill-rule:nonzero;stroke:#000000;stroke-width:0.460218;stroke-linecap:butt;stroke-linejoin:round;stroke-miterlimit:10;stroke-dasharray:none;stroke-opacity:1"
       id="path118" /><g
       id="g124"
       transform="matrix(0.57527259,0,0,0.57527259,8.9269075,142.01049)"><g
         id="g126"
         clip-path="url(#clipPath130)"><path
           d="M 328.83038,38.016 V 304.128"
           style="fill:none;stroke:#b0b0b0;stroke-width:0.8;stroke-linecap:square;stroke-linejoin:round;stroke-miterlimit:10;stroke-dasharray:none;stroke-opacity:1"
           id="path132" /></g></g><path
       d="m 198.09401,163.88005 v -2.01346"
       style="fill:#000000;fill-opacity:1;fill-rule:nonzero;stroke:#000000;stroke-width:0.460218;stroke-linecap:butt;stroke-linejoin:round;stroke-miterlimit:10;stroke-dasharray:none;stroke-opacity:1"
       id="path136" /><g
       id="g142"
       transform="matrix(0.57527259,0,0,0.57527259,8.9269075,142.01049)"><g
         id="g144"
         clip-path="url(#clipPath148)"><path
           d="M 374.03544,38.016 V 304.128"
           style="fill:none;stroke:#b0b0b0;stroke-width:0.8;stroke-linecap:square;stroke-linejoin:round;stroke-miterlimit:10;stroke-dasharray:none;stroke-opacity:1"
           id="path150" /></g></g><path
       d="m 224.09925,163.88005 v -2.01346"
       style="fill:#000000;fill-opacity:1;fill-rule:nonzero;stroke:#000000;stroke-width:0.460218;stroke-linecap:butt;stroke-linejoin:round;stroke-miterlimit:10;stroke-dasharray:none;stroke-opacity:1"
       id="path154" /><g
       id="g164"
       transform="matrix(0.57527259,0,0,0.57527259,8.9269075,142.01049)"><g
         id="g166"
         clip-path="url(#clipPath170)"><path
           d="M 57.6,38.016 H 414.72"
           style="fill:none;stroke:#b0b0b0;stroke-width:0.8;stroke-linecap:square;stroke-linejoin:round;stroke-miterlimit:10;stroke-dasharray:none;stroke-opacity:1"
           id="path172" /></g></g><path
       d="M 42.062608,163.88005 H 40.049155"
       style="fill:#000000;fill-opacity:1;fill-rule:nonzero;stroke:#000000;stroke-width:0.460218;stroke-linecap:butt;stroke-linejoin:round;stroke-miterlimit:10;stroke-dasharray:none;stroke-opacity:1"
       id="path176" /><g
       id="g182"
       transform="matrix(0.57527259,0,0,0.57527259,8.9269075,142.01049)"><g
         id="g184"
         clip-path="url(#clipPath188)"><path
           d="M 57.6,91.2384 H 414.72"
           style="fill:none;stroke:#b0b0b0;stroke-width:0.8;stroke-linecap:square;stroke-linejoin:round;stroke-miterlimit:10;stroke-dasharray:none;stroke-opacity:1"
           id="path190" /></g></g><path
       d="M 42.062608,194.49743 H 40.049155"
       style="fill:#000000;fill-opacity:1;fill-rule:nonzero;stroke:#000000;stroke-width:0.460218;stroke-linecap:butt;stroke-linejoin:round;stroke-miterlimit:10;stroke-dasharray:none;stroke-opacity:1"
       id="path194" /><g
       id="g200"
       transform="matrix(0.57527259,0,0,0.57527259,8.9269075,142.01049)"><g
         id="g202"
         clip-path="url(#clipPath206)"><path
           d="M 57.6,144.4608 H 414.72"
           style="fill:none;stroke:#b0b0b0;stroke-width:0.8;stroke-linecap:square;stroke-linejoin:round;stroke-miterlimit:10;stroke-dasharray:none;stroke-opacity:1"
           id="path208" /></g></g><path
       d="M 42.062608,225.11482 H 40.049155"
       style="fill:#000000;fill-opacity:1;fill-rule:nonzero;stroke:#000000;stroke-width:0.460218;stroke-linecap:butt;stroke-linejoin:round;stroke-miterlimit:10;stroke-dasharray:none;stroke-opacity:1"
       id="path212" /><g
       id="g218"
       transform="matrix(0.57527259,0,0,0.57527259,8.9269075,142.01049)"><g
         id="g220"
         clip-path="url(#clipPath224)"><path
           d="M 57.6,197.6832 H 414.72"
           style="fill:none;stroke:#b0b0b0;stroke-width:0.8;stroke-linecap:square;stroke-linejoin:round;stroke-miterlimit:10;stroke-dasharray:none;stroke-opacity:1"
           id="path226" /></g></g><path
       d="M 42.062608,255.73221 H 40.049155"
       style="fill:#000000;fill-opacity:1;fill-rule:nonzero;stroke:#000000;stroke-width:0.460218;stroke-linecap:butt;stroke-linejoin:round;stroke-miterlimit:10;stroke-dasharray:none;stroke-opacity:1"
       id="path230" /><g
       id="g236"
       transform="matrix(0.57527259,0,0,0.57527259,8.9269075,142.01049)"><g
         id="g238"
         clip-path="url(#clipPath242)"><path
           d="M 57.6,250.9056 H 414.72"
           style="fill:none;stroke:#b0b0b0;stroke-width:0.8;stroke-linecap:square;stroke-linejoin:round;stroke-miterlimit:10;stroke-dasharray:none;stroke-opacity:1"
           id="path244" /></g></g><g
       id="g254"
       transform="matrix(0.57527259,0,0,0.57527259,8.9269075,142.01049)"><g
         id="g256"
         clip-path="url(#clipPath260)"><path
           d="M 57.6,304.128 H 414.72"
           style="fill:none;stroke:#b0b0b0;stroke-width:0.8;stroke-linecap:square;stroke-linejoin:round;stroke-miterlimit:10;stroke-dasharray:none;stroke-opacity:1"
           id="path262" /></g></g><path
       d="M 42.062608,316.96699 H 40.049155"
       style="fill:#000000;fill-opacity:1;fill-rule:nonzero;stroke:#000000;stroke-width:0.460218;stroke-linecap:butt;stroke-linejoin:round;stroke-miterlimit:10;stroke-dasharray:none;stroke-opacity:1"
       id="path266" /><path
       d="M 42.062608,286.3496 H 40.049155"
       style="fill:#000000;fill-opacity:1;fill-rule:nonzero;stroke:#000000;stroke-width:0.460218;stroke-linecap:butt;stroke-linejoin:round;stroke-miterlimit:10;stroke-dasharray:none;stroke-opacity:1"
       id="path248" /><g
       id="g276"
       transform="matrix(0.57527259,0,0,0.57527259,8.9269075,142.01049)"><g
         id="g278"
         clip-path="url(#clipPath282)"><path
           d="m 57.6,269.50675 4.520506,-0.7294 4.520507,-22.04263 4.520506,-13.6897 4.520506,-9.61358 4.520507,-4.93384 4.520506,-2.89966 4.520506,-3.96503 4.520507,-3.68655 4.520506,-2.73436 4.520503,-1.83662 4.52051,-9.41035 4.52051,-0.77625 4.5205,-2.0523 4.52051,0.42653 4.52051,-0.48379 4.5205,-1.2208 4.52051,0.33379 4.5205,-2.47279 4.52051,0.81864 4.52051,0.57625 4.5205,-3.42253 4.52051,-0.66322 4.52051,-0.96833 4.5205,-2.82511 4.52051,-2.05611 4.5205,0.75299 4.52051,-1.62861 4.52051,-2.86246 4.5205,-0.74281 4.52051,-1.13783 4.52051,2.0472 4.5205,-2.02379 4.52051,-0.50078 4.5205,1.16593 4.52051,-0.24049 4.52051,-3.87987 4.5205,6.18317 4.52051,3.38548 4.52051,0.007 4.5205,2.25813 4.52051,5.09847 4.52051,-3.12649 4.5205,0.0113 4.52051,0.23443 4.5205,-2.73714 4.52051,1.071 4.52051,7.10632 4.5205,-2.55638 4.52051,2.06069 4.52051,-3.54292 4.5205,1.77505 4.52051,1.77244 4.5205,-3.05726 4.52051,0.53752 4.52051,-2.06116 4.5205,0.14353 4.52051,-4.32686 4.52051,-1.51695 4.5205,1.37692 4.52051,1.30693 4.52051,-7.61694 4.5205,-0.79812 4.52051,9.28081 4.5205,-7.18038 4.52051,1.00237 4.52051,-5.88929 4.5205,15.51363 4.52051,-0.24814 4.52051,-9.07427 4.5205,3.64591 4.52051,-4.97622 4.52051,8.45282 4.5205,-10.68569 m 9.04101,-17.84894 4.52051,-13.19874 4.52051,17.33594"
           style="fill:none;stroke:#1f77b4;stroke-width:1.5;stroke-linecap:square;stroke-linejoin:round;stroke-miterlimit:10;stroke-dasharray:none;stroke-opacity:1"
           id="path284" /></g></g><g
       id="g286"
       transform="matrix(0.57527259,0,0,0.57527259,8.9269075,142.01049)"><g
         id="g288"
         clip-path="url(#clipPath292)"><path
           d="m 57.6,270.59788 4.520506,-1.68447 4.520507,-22.34796 4.520506,-13.42485 4.520506,-8.56828 4.520507,-4.41955 4.520506,-3.19217 4.520506,-4.96246 4.520507,-4.36034 4.520506,-2.24473 4.520503,-1.0651 4.52051,-8.63538 4.52051,0.40821 4.5205,-2.13375 4.52051,0.70589 4.52051,-0.34087 4.5205,-0.505 4.52051,0.89777 4.5205,-2.96383 4.52051,0.75139 4.52051,1.17128 4.5205,-4.00386 4.52051,-1.21372 4.52051,-0.76104 4.5205,-3.48035 4.52051,-1.6315 4.5205,-0.50499 4.52051,-1.16424 4.52051,-3.32649 4.5205,-1.16347 4.52051,-0.38309 4.52051,0.92257 4.5205,-2.19698 4.52051,-1.20835 4.5205,-0.72522 4.52051,0.76837 4.52051,-2.9667 4.5205,3.73688 4.52051,5.37923 4.52051,0.0417 4.5205,1.48233 4.52051,4.90808 4.52051,-2.89939 4.5205,0.89008 4.52051,-0.1352 4.5205,-2.36243 4.52051,1.38769 4.52051,6.66607 4.5205,-3.19097 4.52051,0.45367 4.52051,-1.42955 4.5205,2.30706 4.52051,1.30128 4.5205,-3.50202 4.52051,0.83828 4.52051,-2.66537 4.5205,0.58598 4.52051,-4.52226 4.52051,-3.19342 4.5205,2.81639 4.52051,-0.58056 4.52051,-3.6353 4.5205,-4.84184 4.52051,8.83684 4.5205,-5.54902 4.52051,3.70331 4.52051,-2.84741 4.5205,12.78332 4.52051,-2.48606 4.52051,-9.01484 4.5205,16.52132 4.52051,0.67059 4.52051,-9.54672 4.5205,-5.41084 m 9.04101,-2.01189 4.52051,-5.59873 4.52051,2.96945"
           style="fill:none;stroke:#ff7f0e;stroke-width:1.5;stroke-linecap:square;stroke-linejoin:round;stroke-miterlimit:10;stroke-dasharray:none;stroke-opacity:1"
           id="path294" /></g></g><g
       id="g296"
       transform="matrix(0.57527259,0,0,0.57527259,8.9269075,142.01049)"><g
         id="g298"
         clip-path="url(#clipPath302)"><path
           d="m 57.6,270.11519 4.520506,-2.31665 4.520507,-22.08647 4.520506,-12.94498 4.520506,-8.18495 4.520507,-5.00269 4.520506,-3.70016 4.520506,-5.12076 4.520507,-3.69998 4.520506,-1.95961 4.520503,-1.99243 4.52051,-9.13087 4.52051,1.02128 4.5205,-1.88327 4.52051,0.50736 4.52051,-0.16916 4.5205,-0.79854 4.52051,1.10898 4.5205,-2.43516 4.52051,0.62626 4.52051,0.50085 4.5205,-4.58831 4.52051,-0.86675 4.52051,-1.75126 4.5205,-2.09124 4.52051,-1.8591 4.5205,-1.57855 4.52051,-1.44268 4.52051,-2.96138 4.5205,-1.36033 4.52051,-0.10466 4.52051,1.22366 4.5205,-1.58401 4.52051,-0.86636 4.5205,-1.16891 4.52051,1.30883 4.52051,-1.0766 4.5205,2.55538 4.52051,6.88945 4.52051,0.33047 4.5205,1.08149 4.52051,5.54609 4.52051,-2.38431 4.5205,2.36056 4.52051,-1.5493 4.5205,-1.50157 4.52051,2.22246 4.52051,6.36081 4.5205,-2.2599 4.52051,0.66403 4.52051,-1.89555 4.5205,3.76332 4.52051,1.33311 4.5205,-3.44063 4.52051,1.07034 4.52051,-2.87769 4.5205,0.68529 4.52051,-4.19481 4.52051,-3.87708 4.5205,3.76705 4.52051,-2.89357 4.52051,-2.50052 4.5205,-4.92413 4.52051,7.00562 4.5205,-5.30198 4.52051,4.09915 4.52051,-1.93136 4.5205,12.35851 4.52051,-3.09477 4.52051,-5.4308 4.5205,4.99631 4.52051,1.78583 4.52051,-0.67573 4.5205,-6.86066 4.52051,-8.27191 4.5205,0.25851 4.52051,-2.26196 4.52051,2.2708 4.5205,-33.89442 4.52051,37.69377"
           style="fill:none;stroke:#2ca02c;stroke-width:1.5;stroke-linecap:square;stroke-linejoin:round;stroke-miterlimit:10;stroke-dasharray:none;stroke-opacity:1"
           id="path304" /></g></g><path
       d="m 42.062608,296.11748 2.600524,-1.49009 2.600524,-13.01688 2.600523,-7.76428 2.600523,-5.39133 2.600524,-2.59237 2.600523,-2.16183 2.600523,-3.16136 2.600524,-2.9768 2.600523,-1.94837 2.600522,-1.24689 2.600526,-4.57354 2.600525,-0.34748 2.60052,-1.24187 2.600526,-0.69151 2.600524,-0.11838 2.60052,-1.05743 2.600525,-0.23791 2.600521,-1.63993 2.600525,-0.25693 2.600525,0.96314 2.60052,-1.97477 2.600526,0.0737 2.600516,-0.41778 2.60053,-2.12192 2.60053,-0.81316 2.60051,-0.0202 2.60054,-1.1298 2.60052,-2.64775 2.60051,-0.22765 2.60053,-1.61019 2.60053,1.14901 2.60051,-1.60166 2.60053,-0.83819 2.60052,-0.53965 2.60053,-0.57362 2.60053,-2.15768 2.60052,2.70183 2.60052,0.93228 2.60053,1.9831 2.60051,-1.51524 2.60053,4.64772 2.60053,-2.48831 2.60051,0.68149 2.60052,-1.34588 2.60053,-1.96724 2.60053,0.87441 2.60052,3.0896 2.60052,-1.89006 2.60053,-2.02615 2.60052,0.96808 2.60052,0.71447 2.60053,-0.45444 2.60051,-0.97869 2.60052,-0.25326 2.60054,-1.89199 2.60051,-0.92157 2.60053,-0.55529 2.60053,-3.13379 2.60052,0.76302 2.60052,-0.70907 2.60053,-2.22617 2.60052,-1.25727 2.60052,2.20391 2.60052,-1.65895 2.60053,1.68397 2.60052,-0.36036 2.60052,6.5134 2.60053,-0.82722 2.60053,-4.29182 2.60052,4.76292 2.60052,-0.89179 2.60052,-0.10336 2.60053,-2.62224 2.60052,-2.13526 2.60052,0.33948 2.60053,-2.28918 2.60052,2.44517 2.60052,-5.38776 2.60054,6.04032"
       style="fill:none;stroke:#9467bd;stroke-width:0.862909;stroke-linecap:square;stroke-linejoin:round;stroke-miterlimit:10;stroke-dasharray:none;stroke-opacity:1"
       id="path314" /><path
       d="m 42.062608,309.60727 2.600524,-4.58831 2.600524,-2.77321 2.600523,-1.37072 2.600523,-1.15391 2.600524,-0.4704 2.600523,-0.57754 2.600523,0.34777 2.600524,0.85176 2.600523,-2.34952 2.600522,0.82702 2.600526,-1.32294 2.600525,-1.65458 2.60052,-1.69165 2.600526,-1.2905 2.600524,-0.52577 2.60052,-1.104 2.600525,-2.02922 2.600521,-0.8821 2.600525,-0.45656 2.600525,0.51629 2.60052,-1.95862 2.600526,0.51751 2.600516,-1.17827 2.60053,-0.76398 2.60053,-0.86764 2.60051,-1.18552 2.60054,0.20213 2.60052,0.98305 2.60051,-1.45262 2.60053,1.32928 2.60053,-2.16839 2.60051,-0.7393 2.60053,0.6371 2.60052,-0.75763 2.60053,0.7393 2.60053,-0.70768 2.60052,-1.97442 2.60052,-0.33012 2.60053,-0.3806 2.60051,-2.45396 2.60053,2.16474 2.60053,-2.63071 2.60051,0.6843 2.60052,-1.03188 2.60053,1.01025 2.60053,-4.7845 2.60052,3.89957 2.60052,-1.79971 2.60053,1.22896 2.60052,-0.009 2.60052,0.44321 2.60053,0.92229 2.60051,-1.48641 2.60052,-2.10854 2.60054,0.72981 2.60051,1.35993 2.60053,0.70711 2.60053,-0.14394 2.60052,2.77091 2.60052,1.74526 2.60053,1.66 2.60052,2.66643 2.60052,0.22861 2.60052,-5.29761 2.60053,-2.43509 2.60052,0.33613 2.60052,-5.71663 2.60053,0.83602 2.60053,-3.25601 2.60052,-1.72183 2.60052,-0.0326 2.60052,4.06836 2.60053,-2.19664 2.60052,3.23239 2.60052,-0.82103 2.60053,0.67875 2.60052,-7.0453 2.60052,-2.25156 2.60054,-2.61348"
       style="fill:none;stroke:#d62728;stroke-width:0.862909;stroke-linecap:square;stroke-linejoin:round;stroke-miterlimit:10;stroke-dasharray:none;stroke-opacity:1"
       id="path324" /><path
       d="M 42.062608,163.88005 V 316.96699"
       style="fill:none;stroke:#000000;stroke-width:0.460218;stroke-linecap:square;stroke-linejoin:miter;stroke-miterlimit:10;stroke-dasharray:none;stroke-opacity:1"
       id="path328" /><path
       d="M 247.50397,163.88005 V 316.96699"
       style="fill:none;stroke:#000000;stroke-width:0.460218;stroke-linecap:square;stroke-linejoin:miter;stroke-miterlimit:10;stroke-dasharray:none;stroke-opacity:1"
       id="path330" /><path
       d="M 42.062608,163.88005 H 247.50397"
       style="fill:none;stroke:#000000;stroke-width:0.460218;stroke-linecap:square;stroke-linejoin:miter;stroke-miterlimit:10;stroke-dasharray:none;stroke-opacity:1"
       id="path332" /><path
       d="M 42.062608,316.96699 H 247.50397"
       style="fill:none;stroke:#000000;stroke-width:0.460218;stroke-linecap:square;stroke-linejoin:miter;stroke-miterlimit:10;stroke-dasharray:none;stroke-opacity:1"
       id="path334" /><path
       d="m 53.220012,206.54013 h 11.50545"
       style="fill:none;stroke:#1f77b4;stroke-width:0.862909;stroke-linecap:square;stroke-linejoin:round;stroke-miterlimit:10;stroke-dasharray:none;stroke-opacity:1"
       id="path344" /><path
       d="m 53.220012,198.0998 h 11.50545"
       style="fill:none;stroke:#ff7f0e;stroke-width:0.862909;stroke-linecap:square;stroke-linejoin:round;stroke-miterlimit:10;stroke-dasharray:none;stroke-opacity:1"
       id="path350" /><path
       d="m 53.220012,189.65948 h 11.50545"
       style="fill:none;stroke:#2ca02c;stroke-width:0.862909;stroke-linecap:square;stroke-linejoin:round;stroke-miterlimit:10;stroke-dasharray:none;stroke-opacity:1"
       id="path356" /><path
       d="m 53.220012,181.21915 h 11.50545"
       style="fill:none;stroke:#9467bd;stroke-width:0.862909;stroke-linecap:square;stroke-linejoin:round;stroke-miterlimit:10;stroke-dasharray:none;stroke-opacity:1"
       id="path362" /><path
       d="m 53.220012,172.77883 h 11.50545"
       style="fill:none;stroke:#d62728;stroke-width:0.862909;stroke-linecap:square;stroke-linejoin:round;stroke-miterlimit:10;stroke-dasharray:none;stroke-opacity:1"
       id="path368" /></g><g
     inkscape:groupmode="layer"
     id="layer1"
     inkscape:label="text"
     transform="translate(-28.023958,-17.206424)"
     style="display:inline"><text
       style="font-variant:normal;font-weight:normal;font-size:7.6703px;font-family:'DejaVu Sans';-inkscape-font-specification:DejaVuSans;writing-mode:lr-tb;fill:#000000;fill-opacity:1;fill-rule:nonzero;stroke:none;stroke-width:0.76703"
       id="text32"
       x="53.544273"
       y="253.48711"><tspan
         x="53.544273 58.422588 60.861744 65.740051"
         y="253.48711"
         sodipodi:role="line"
         id="tspan30"
         style="stroke-width:0.76703">0.00</tspan></text><text
       style="font-variant:normal;font-weight:normal;font-size:7.6703px;font-family:'DejaVu Sans';-inkscape-font-specification:DejaVuSans;writing-mode:lr-tb;fill:#000000;fill-opacity:1;fill-rule:nonzero;stroke:none;stroke-width:0.76703"
       id="text50"
       x="82.217926"
       y="253.48711"><tspan
         x="82.217926 87.09623 89.535393 94.413696"
         y="253.48711"
         sodipodi:role="line"
         id="tspan48"
         style="stroke-width:0.76703">0.25</tspan></text><text
       style="font-variant:normal;font-weight:normal;font-size:7.6703px;font-family:'DejaVu Sans';-inkscape-font-specification:DejaVuSans;writing-mode:lr-tb;fill:#000000;fill-opacity:1;fill-rule:nonzero;stroke:none;stroke-width:0.76703"
       id="text68"
       x="116.89156"
       y="253.48711"><tspan
         x="116.89156 121.76987 124.20903 129.08734"
         y="253.48711"
         sodipodi:role="line"
         id="tspan66"
         style="stroke-width:0.76703">0.50</tspan></text><text
       style="font-variant:normal;font-weight:normal;font-size:7.6703px;font-family:'DejaVu Sans';-inkscape-font-specification:DejaVuSans;writing-mode:lr-tb;fill:#000000;fill-opacity:1;fill-rule:nonzero;stroke:none;stroke-width:0.76703"
       id="text86"
       x="151.56522"
       y="253.48711"><tspan
         x="151.56522 156.44353 158.88268 163.76099"
         y="253.48711"
         sodipodi:role="line"
         id="tspan84"
         style="stroke-width:0.76703">0.75</tspan></text><text
       style="font-variant:normal;font-weight:normal;font-size:7.6703px;font-family:'DejaVu Sans';-inkscape-font-specification:DejaVuSans;writing-mode:lr-tb;fill:#000000;fill-opacity:1;fill-rule:nonzero;stroke:none;stroke-width:0.76703"
       id="text104"
       x="186.23886"
       y="253.48711"><tspan
         x="186.23886 191.11717 193.55632 198.43463"
         y="253.48711"
         sodipodi:role="line"
         id="tspan102"
         style="stroke-width:0.76703">1.00</tspan></text><text
       style="font-variant:normal;font-weight:normal;font-size:7.6703px;font-family:'DejaVu Sans';-inkscape-font-specification:DejaVuSans;writing-mode:lr-tb;fill:#000000;fill-opacity:1;fill-rule:nonzero;stroke:none;stroke-width:0.76703"
       id="text122"
       x="220.91248"
       y="253.48711"><tspan
         x="220.91248 225.7908 228.22997 233.10828"
         y="253.48711"
         sodipodi:role="line"
         id="tspan120"
         style="stroke-width:0.76703">1.25</tspan></text><text
       style="font-variant:normal;font-weight:normal;font-size:7.6703px;font-family:'DejaVu Sans';-inkscape-font-specification:DejaVuSans;writing-mode:lr-tb;fill:#000000;fill-opacity:1;fill-rule:nonzero;stroke:none;stroke-width:0.76703"
       id="text140"
       x="255.58614"
       y="253.48711"><tspan
         x="255.58614 260.46445 262.90359 267.78189"
         y="253.48711"
         sodipodi:role="line"
         id="tspan138"
         style="stroke-width:0.76703">1.50</tspan></text><text
       style="font-variant:normal;font-weight:normal;font-size:7.6703px;font-family:'DejaVu Sans';-inkscape-font-specification:DejaVuSans;writing-mode:lr-tb;fill:#000000;fill-opacity:1;fill-rule:nonzero;stroke:none;stroke-width:0.76703"
       id="text158"
       x="290.25977"
       y="253.48711"><tspan
         x="290.25977 295.13812 297.57721 302.45557"
         y="253.48711"
         sodipodi:role="line"
         id="tspan156"
         style="stroke-width:0.76703">1.75</tspan></text><text
       style="font-variant:normal;font-weight:normal;font-size:7.6703px;font-family:'DejaVu Sans';-inkscape-font-specification:DejaVuSans;writing-mode:lr-tb;fill:#000000;fill-opacity:1;fill-rule:nonzero;stroke:none;stroke-width:0.76703"
       id="text162"
       x="146.62108"
       y="263.97379"><tspan
         x="146.62108 152.56555 157.28279 162.14577 166.84 174.31085 176.44319 180.66187 183.10101 187.97165 190.104 194.10023 197.10699 201.80888 206.67186 210.89053 215.60777 218.04692 220.63181 223.07094 229.69043 234.56107"
         y="263.97379"
         sodipodi:role="line"
         id="tspan160"
         style="stroke-width:0.76703">Genomic distance / Mbp</tspan></text><text
       style="font-variant:normal;font-weight:normal;font-size:7.6703px;font-family:'DejaVu Sans';-inkscape-font-specification:DejaVuSans;writing-mode:lr-tb;fill:#000000;fill-opacity:1;fill-rule:nonzero;stroke:none;stroke-width:0.76703"
       id="text180"
       x="38.513695"
       y="245.20557"><tspan
         x="38.513695 43.392002 45.831161"
         y="245.20557"
         sodipodi:role="line"
         id="tspan178"
         style="stroke-width:0.76703">0.0</tspan></text><text
       style="font-variant:normal;font-weight:normal;font-size:7.6703px;font-family:'DejaVu Sans';-inkscape-font-specification:DejaVuSans;writing-mode:lr-tb;fill:#000000;fill-opacity:1;fill-rule:nonzero;stroke:none;stroke-width:0.76703"
       id="text198"
       x="38.513695"
       y="204.3824"><tspan
         x="38.513695 43.392002 45.831161"
         y="204.3824"
         sodipodi:role="line"
         id="tspan196"
         style="stroke-width:0.76703">0.2</tspan></text><text
       style="font-variant:normal;font-weight:normal;font-size:7.6703px;font-family:'DejaVu Sans';-inkscape-font-specification:DejaVuSans;writing-mode:lr-tb;fill:#000000;fill-opacity:1;fill-rule:nonzero;stroke:none;stroke-width:0.76703"
       id="text216"
       x="38.513695"
       y="163.55919"><tspan
         x="38.513695 43.392002 45.831161"
         y="163.55919"
         sodipodi:role="line"
         id="tspan214"
         style="stroke-width:0.76703">0.4</tspan></text><text
       style="font-variant:normal;font-weight:normal;font-size:7.6703px;font-family:'DejaVu Sans';-inkscape-font-specification:DejaVuSans;writing-mode:lr-tb;fill:#000000;fill-opacity:1;fill-rule:nonzero;stroke:none;stroke-width:0.76703"
       id="text234"
       x="38.513695"
       y="122.73603"><tspan
         x="38.513695 43.392002 45.831161"
         y="122.73603"
         sodipodi:role="line"
         id="tspan232"
         style="stroke-width:0.76703">0.6</tspan></text><text
       style="font-variant:normal;font-weight:normal;font-size:7.6703px;font-family:'DejaVu Sans';-inkscape-font-specification:DejaVuSans;writing-mode:lr-tb;fill:#000000;fill-opacity:1;fill-rule:nonzero;stroke:none;stroke-width:0.76703"
       id="text270"
       x="38.513695"
       y="41.089687"><tspan
         x="38.513695 43.392002 45.831161"
         y="41.089687"
         sodipodi:role="line"
         id="tspan268"
         style="stroke-width:0.76703">1.0</tspan></text><text
       transform="rotate(-90)"
       style="font-variant:normal;font-weight:normal;font-size:7.6703px;font-family:'DejaVu Sans';-inkscape-font-specification:DejaVuSans;writing-mode:lr-tb;fill:#000000;fill-opacity:1;fill-rule:nonzero;stroke:none;stroke-width:0.76703"
       id="text274"
       x="-177.29243"
       y="33.851589"><tspan
         x="-177.29243 -172.66725 -167.95001 -163.24812 -160.09563 -156.0994 -151.40517 -146.54221 -144.10306 -139.88438 -135.19017 -132.03766 -128.88516 -124.16796 -122.0356 -117.33371 -114.32692 -112.19461 -107.50039"
         y="33.851589"
         sodipodi:role="line"
         id="tspan272"
         style="stroke-width:0.76703">Pearson correlation</tspan></text><text
       style="font-variant:normal;font-weight:normal;font-size:7.6703px;font-family:'DejaVu Sans';-inkscape-font-specification:DejaVuSans;writing-mode:lr-tb;fill:#000000;fill-opacity:1;fill-rule:nonzero;stroke:none;stroke-width:0.76703"
       id="text252"
       x="38.513695"
       y="81.912865"><tspan
         x="38.513695 43.392002 45.831161"
         y="81.912865"
         sodipodi:role="line"
         id="tspan250"
         style="stroke-width:0.76703">0.8</tspan></text><text
       style="font-variant:normal;font-weight:normal;font-size:9.20436px;font-family:'DejaVu Sans';-inkscape-font-specification:DejaVuSans;writing-mode:lr-tb;fill:#000000;fill-opacity:1;fill-rule:nonzero;stroke:none;stroke-width:0.76703"
       id="text338"
       x="98.322144"
       y="23.258625"><tspan
         x="98.322144 103.87238 109.53306 115.17534 118.95833 123.75379 129.38687 135.22244 138.14941 143.21181 148.84488 152.62788 156.41086 162.07155 164.63037 170.27264 173.88074 176.43956 182.07263 187.90819 190.83519 196.28416 201.07964 204.00662 206.93361 212.77838 218.43907 224.27461 229.9077 238.87274 241.43155 246.49396 249.42094 255.26572 257.82452 262.61996 266.22809 271.87036 277.70593 282.76834"
         y="23.258625"
         sodipodi:role="line"
         id="tspan336"
         style="stroke-width:0.76703">Pearson correlation vs. genomic distance</tspan></text><text
       style="font-variant:normal;font-weight:normal;font-size:9.20436px;font-family:'DejaVu Sans';-inkscape-font-specification:DejaVuSans;writing-mode:lr-tb;fill:#000000;fill-opacity:1;fill-rule:nonzero;stroke:none;stroke-width:0.76703"
       id="text342"
       x="61.057957"
       y="33.575188"><tspan
         x="61.057957 68.19133 76.134705 81.98867 87.842644 93.696617 99.550598 105.40456 108.33155 111.25853 117.11251 120.03951 125.89347 128.82047 134.67444 137.60144 143.4554 146.3824 152.23637 155.16335 161.01733 166.87129 169.79828 175.65225 181.50623 184.43321 190.28719 196.14116 199.06813 204.92212 210.77609 213.70308 219.55705 225.41104 228.33801 234.192 240.04596 242.97295 248.82692 254.68091 257.60788 263.46185 269.31586 272.24286 277.87592 283.71146 286.63846 292.67648 298.53046 304.38446 310.23843 313.16544 316.09241 321.94635"
         y="33.575188"
         sodipodi:role="line"
         id="tspan340"
         style="stroke-width:0.76703">GM12878, 1,2,4,7,9,11,13,14,16,17,18,20,22 on K562, 19</tspan></text><text
       style="font-variant:normal;font-weight:normal;font-size:7.67029px;font-family:'DejaVu Sans';-inkscape-font-specification:DejaVuSans;writing-mode:lr-tb;fill:#000000;fill-opacity:1;fill-rule:nonzero;stroke:none;stroke-width:0.767029"
       id="text348"
       x="92.436859"
       y="188.09782"><tspan
         x="92.436859 94.569183 99.263412 104.12637 108.99704 113.71426 116.86677 119.30594 121.74506 126.6234 131.50169 136.38 141.09724 145.9679 148.40704 150.9919 153.43108 158.67755 164.29224 169.6461 172.23099 174.67017 179.54848 181.98763 186.86594 191.74423"
         y="188.09782"
         sodipodi:role="line"
         id="tspan346"
         style="stroke-width:0.767029">longer, 250ep / AUC: 0.545</tspan></text><text
       style="font-variant:normal;font-weight:normal;font-size:7.67029px;font-family:'DejaVu Sans';-inkscape-font-specification:DejaVuSans;writing-mode:lr-tb;fill:#000000;fill-opacity:1;fill-rule:nonzero;stroke:none;stroke-width:0.767029"
       id="text354"
       x="92.436859"
       y="199.35156"><tspan
         x="92.436859 94.569183 99.263412 104.12637 108.99704 113.71426 116.86677 119.30594 121.74506 126.6234 131.50169 136.38 141.09724 145.9679 148.40704 150.9919 153.43108 158.67755 164.29224 169.6461 172.23099 174.67017 179.54848 181.98763 186.86594 191.74423"
         y="199.35156"
         sodipodi:role="line"
         id="tspan352"
         style="stroke-width:0.767029">longer, 500ep / AUC: 0.552</tspan></text><text
       style="font-variant:normal;font-weight:normal;font-size:7.67029px;font-family:'DejaVu Sans';-inkscape-font-specification:DejaVuSans;writing-mode:lr-tb;fill:#000000;fill-opacity:1;fill-rule:nonzero;stroke:none;stroke-width:0.767029"
       id="text360"
       x="92.436859"
       y="210.60535"><tspan
         x="92.436859 94.569183 99.263412 104.12637 108.99704 113.71426 116.86677 119.30594 121.74506 126.6234 131.50169 136.38 141.2583 145.97552 150.84619 153.28534 155.87024 158.30939 163.55589 169.17053 174.52441 177.10931 179.54848 184.42677 186.86594 191.74423 196.62256"
         y="210.60535"
         sodipodi:role="line"
         id="tspan358"
         style="stroke-width:0.767029">longer, 1000ep / AUC: 0.569</tspan></text><text
       style="font-variant:normal;font-weight:normal;font-size:7.67029px;font-family:'DejaVu Sans';-inkscape-font-specification:DejaVuSans;writing-mode:lr-tb;fill:#000000;fill-opacity:1;fill-rule:nonzero;stroke:none;stroke-width:0.767029"
       id="text366"
       x="92.436859"
       y="221.85913"><tspan
         x="92.436859 94.569183 99.432159 101.56452 104.57127 106.70364 111.4055 113.53783 115.97702 118.41615 123.29446 128.17279 133.05107 137.76834 142.63898 145.07812 147.66301 150.10217 155.34866 160.9633 166.3172 168.90208 171.34125 176.21957 178.65872 183.53702 188.41534"
         y="221.85913"
         sodipodi:role="line"
         id="tspan364"
         style="stroke-width:0.767029">initial, 500ep / AUC: 0.490</tspan></text><text
       style="font-variant:normal;font-weight:normal;font-size:7.67029px;font-family:'DejaVu Sans';-inkscape-font-specification:DejaVuSans;writing-mode:lr-tb;fill:#000000;fill-opacity:1;fill-rule:nonzero;stroke:none;stroke-width:0.767029"
       id="text372"
       x="92.436859"
       y="233.11288"><tspan
         x="92.436859 95.443588 98.5961 103.298 108.16096 112.1572 114.85712 119.57439 122.72685 125.166 131.1105 137.72998 142.60831 147.4866 152.36488 157.24323 162.12155 164.56071 167.1456 169.58473 174.83121 180.44589 185.79977 188.38466 190.82381 195.70215 198.1413 203.01956 207.8979"
         y="233.11288"
         sodipodi:role="line"
         id="tspan370"
         style="stroke-width:0.767029">transfer GM12878 / AUC: 0.767</tspan></text></g></svg>
