<?xml version="1.0" encoding="UTF-8" standalone="no"?>
<svg
   xmlns:dc="http://purl.org/dc/elements/1.1/"
   xmlns:cc="http://creativecommons.org/ns#"
   xmlns:rdf="http://www.w3.org/1999/02/22-rdf-syntax-ns#"
   xmlns:svg="http://www.w3.org/2000/svg"
   xmlns="http://www.w3.org/2000/svg"
   xmlns:sodipodi="http://sodipodi.sourceforge.net/DTD/sodipodi-0.dtd"
   xmlns:inkscape="http://www.inkscape.org/namespaces/inkscape"
   version="1.1"
   id="svg2"
   xml:space="preserve"
   width="80mm"
   height="65.300003mm"
   viewBox="0 0 302.36219 246.80316"
   sodipodi:docname="pearson_chr10.svg"
   inkscape:version="1.0.2 (1.0.2+r75+1)"><metadata
     id="metadata8"><rdf:RDF><cc:Work
         rdf:about=""><dc:format>image/svg+xml</dc:format><dc:type
           rdf:resource="http://purl.org/dc/dcmitype/StillImage" /><dc:title></dc:title></cc:Work></rdf:RDF></metadata><defs
     id="defs6"><clipPath
       clipPathUnits="userSpaceOnUse"
       id="clipPath22"><path
         d="M 57.6,38.016 H 414.72 V 304.128 H 57.6 Z"
         id="path20" /></clipPath><clipPath
       clipPathUnits="userSpaceOnUse"
       id="clipPath40"><path
         d="M 57.6,38.016 H 414.72 V 304.128 H 57.6 Z"
         id="path38" /></clipPath><clipPath
       clipPathUnits="userSpaceOnUse"
       id="clipPath58"><path
         d="M 57.6,38.016 H 414.72 V 304.128 H 57.6 Z"
         id="path56" /></clipPath><clipPath
       clipPathUnits="userSpaceOnUse"
       id="clipPath76"><path
         d="M 57.6,38.016 H 414.72 V 304.128 H 57.6 Z"
         id="path74" /></clipPath><clipPath
       clipPathUnits="userSpaceOnUse"
       id="clipPath94"><path
         d="M 57.6,38.016 H 414.72 V 304.128 H 57.6 Z"
         id="path92" /></clipPath><clipPath
       clipPathUnits="userSpaceOnUse"
       id="clipPath112"><path
         d="M 57.6,38.016 H 414.72 V 304.128 H 57.6 Z"
         id="path110" /></clipPath><clipPath
       clipPathUnits="userSpaceOnUse"
       id="clipPath130"><path
         d="M 57.6,38.016 H 414.72 V 304.128 H 57.6 Z"
         id="path128" /></clipPath><clipPath
       clipPathUnits="userSpaceOnUse"
       id="clipPath148"><path
         d="M 57.6,38.016 H 414.72 V 304.128 H 57.6 Z"
         id="path146" /></clipPath><clipPath
       clipPathUnits="userSpaceOnUse"
       id="clipPath170"><path
         d="M 57.6,38.016 H 414.72 V 304.128 H 57.6 Z"
         id="path168" /></clipPath><clipPath
       clipPathUnits="userSpaceOnUse"
       id="clipPath188"><path
         d="M 57.6,38.016 H 414.72 V 304.128 H 57.6 Z"
         id="path186" /></clipPath><clipPath
       clipPathUnits="userSpaceOnUse"
       id="clipPath206"><path
         d="M 57.6,38.016 H 414.72 V 304.128 H 57.6 Z"
         id="path204" /></clipPath><clipPath
       clipPathUnits="userSpaceOnUse"
       id="clipPath224"><path
         d="M 57.6,38.016 H 414.72 V 304.128 H 57.6 Z"
         id="path222" /></clipPath><clipPath
       clipPathUnits="userSpaceOnUse"
       id="clipPath242"><path
         d="M 57.6,38.016 H 414.72 V 304.128 H 57.6 Z"
         id="path240" /></clipPath><clipPath
       clipPathUnits="userSpaceOnUse"
       id="clipPath260"><path
         d="M 57.6,38.016 H 414.72 V 304.128 H 57.6 Z"
         id="path258" /></clipPath><clipPath
       clipPathUnits="userSpaceOnUse"
       id="clipPath282"><path
         d="M 57.6,38.016 H 414.72 V 304.128 H 57.6 Z"
         id="path280" /></clipPath><clipPath
       clipPathUnits="userSpaceOnUse"
       id="clipPath292"><path
         d="M 57.6,38.016 H 414.72 V 304.128 H 57.6 Z"
         id="path290" /></clipPath><clipPath
       clipPathUnits="userSpaceOnUse"
       id="clipPath302"><path
         d="M 57.6,38.016 H 414.72 V 304.128 H 57.6 Z"
         id="path300" /></clipPath><clipPath
       clipPathUnits="userSpaceOnUse"
       id="clipPath312"><path
         d="M 57.6,38.016 H 414.72 V 304.128 H 57.6 Z"
         id="path310" /></clipPath></defs><sodipodi:namedview
     pagecolor="#ffffff"
     bordercolor="#666666"
     borderopacity="1"
     objecttolerance="10"
     gridtolerance="10"
     guidetolerance="10"
     inkscape:pageopacity="0"
     inkscape:pageshadow="2"
     inkscape:window-width="1920"
     inkscape:window-height="1020"
     id="namedview4"
     showgrid="false"
     inkscape:zoom="2.6301673"
     inkscape:cx="162.15159"
     inkscape:cy="249.43153"
     inkscape:window-x="0"
     inkscape:window-y="0"
     inkscape:window-maximized="1"
     inkscape:current-layer="layer1"
     inkscape:document-units="mm"
     fit-margin-top="0"
     fit-margin-left="0"
     fit-margin-right="0"
     fit-margin-bottom="0"
     units="mm"
     inkscape:document-rotation="0" /><g
     id="g10"
     inkscape:groupmode="layer"
     inkscape:label="pearson_chr10"
     transform="matrix(1.3333333,0,0,-1.3333333,-28.023958,443.59358)"><g
       id="g16"
       transform="matrix(0.5752206,0,0,0.5752206,8.9280003,141.92699)"><g
         id="g18"
         clip-path="url(#clipPath22)"><path
           d="M 57.6,38.016 V 304.128"
           style="fill:none;stroke:#b0b0b0;stroke-width:0.8;stroke-linecap:square;stroke-linejoin:round;stroke-miterlimit:10;stroke-dasharray:none;stroke-opacity:1"
           id="path24" /></g></g><path
       d="M 42.060707,163.79458 V 161.7813"
       style="fill:#000000;fill-opacity:1;fill-rule:nonzero;stroke:#000000;stroke-width:0.460177;stroke-linecap:butt;stroke-linejoin:round;stroke-miterlimit:10;stroke-dasharray:none;stroke-opacity:1"
       id="path28" /><g
       id="g34"
       transform="matrix(0.5752206,0,0,0.5752206,8.9280003,141.92699)"><g
         id="g36"
         clip-path="url(#clipPath40)"><path
           d="M 102.80506,38.016 V 304.128"
           style="fill:none;stroke:#b0b0b0;stroke-width:0.8;stroke-linecap:square;stroke-linejoin:round;stroke-miterlimit:10;stroke-dasharray:none;stroke-opacity:1"
           id="path42" /></g></g><path
       d="M 68.063589,163.79458 V 161.7813"
       style="fill:#000000;fill-opacity:1;fill-rule:nonzero;stroke:#000000;stroke-width:0.460177;stroke-linecap:butt;stroke-linejoin:round;stroke-miterlimit:10;stroke-dasharray:none;stroke-opacity:1"
       id="path46" /><g
       id="g52"
       transform="matrix(0.5752206,0,0,0.5752206,8.9280003,141.92699)"><g
         id="g54"
         clip-path="url(#clipPath58)"><path
           d="M 148.01013,38.016 V 304.128"
           style="fill:none;stroke:#b0b0b0;stroke-width:0.8;stroke-linecap:square;stroke-linejoin:round;stroke-miterlimit:10;stroke-dasharray:none;stroke-opacity:1"
           id="path60" /></g></g><path
       d="M 94.066476,163.79458 V 161.7813"
       style="fill:#000000;fill-opacity:1;fill-rule:nonzero;stroke:#000000;stroke-width:0.460177;stroke-linecap:butt;stroke-linejoin:round;stroke-miterlimit:10;stroke-dasharray:none;stroke-opacity:1"
       id="path64" /><g
       id="g70"
       transform="matrix(0.5752206,0,0,0.5752206,8.9280003,141.92699)"><g
         id="g72"
         clip-path="url(#clipPath76)"><path
           d="M 193.21519,38.016 V 304.128"
           style="fill:none;stroke:#b0b0b0;stroke-width:0.8;stroke-linecap:square;stroke-linejoin:round;stroke-miterlimit:10;stroke-dasharray:none;stroke-opacity:1"
           id="path78" /></g></g><path
       d="M 120.06936,163.79458 V 161.7813"
       style="fill:#000000;fill-opacity:1;fill-rule:nonzero;stroke:#000000;stroke-width:0.460177;stroke-linecap:butt;stroke-linejoin:round;stroke-miterlimit:10;stroke-dasharray:none;stroke-opacity:1"
       id="path82" /><g
       id="g88"
       transform="matrix(0.5752206,0,0,0.5752206,8.9280003,141.92699)"><g
         id="g90"
         clip-path="url(#clipPath94)"><path
           d="M 238.42025,38.016 V 304.128"
           style="fill:none;stroke:#b0b0b0;stroke-width:0.8;stroke-linecap:square;stroke-linejoin:round;stroke-miterlimit:10;stroke-dasharray:none;stroke-opacity:1"
           id="path96" /></g></g><path
       d="M 146.07224,163.79458 V 161.7813"
       style="fill:#000000;fill-opacity:1;fill-rule:nonzero;stroke:#000000;stroke-width:0.460177;stroke-linecap:butt;stroke-linejoin:round;stroke-miterlimit:10;stroke-dasharray:none;stroke-opacity:1"
       id="path100" /><g
       id="g106"
       transform="matrix(0.5752206,0,0,0.5752206,8.9280003,141.92699)"><g
         id="g108"
         clip-path="url(#clipPath112)"><path
           d="M 283.62532,38.016 V 304.128"
           style="fill:none;stroke:#b0b0b0;stroke-width:0.8;stroke-linecap:square;stroke-linejoin:round;stroke-miterlimit:10;stroke-dasharray:none;stroke-opacity:1"
           id="path114" /></g></g><path
       d="M 172.07513,163.79458 V 161.7813"
       style="fill:#000000;fill-opacity:1;fill-rule:nonzero;stroke:#000000;stroke-width:0.460177;stroke-linecap:butt;stroke-linejoin:round;stroke-miterlimit:10;stroke-dasharray:none;stroke-opacity:1"
       id="path118" /><g
       id="g124"
       transform="matrix(0.5752206,0,0,0.5752206,8.9280003,141.92699)"><g
         id="g126"
         clip-path="url(#clipPath130)"><path
           d="M 328.83038,38.016 V 304.128"
           style="fill:none;stroke:#b0b0b0;stroke-width:0.8;stroke-linecap:square;stroke-linejoin:round;stroke-miterlimit:10;stroke-dasharray:none;stroke-opacity:1"
           id="path132" /></g></g><path
       d="M 198.07801,163.79458 V 161.7813"
       style="fill:#000000;fill-opacity:1;fill-rule:nonzero;stroke:#000000;stroke-width:0.460177;stroke-linecap:butt;stroke-linejoin:round;stroke-miterlimit:10;stroke-dasharray:none;stroke-opacity:1"
       id="path136" /><g
       id="g142"
       transform="matrix(0.5752206,0,0,0.5752206,8.9280003,141.92699)"><g
         id="g144"
         clip-path="url(#clipPath148)"><path
           d="M 374.03544,38.016 V 304.128"
           style="fill:none;stroke:#b0b0b0;stroke-width:0.8;stroke-linecap:square;stroke-linejoin:round;stroke-miterlimit:10;stroke-dasharray:none;stroke-opacity:1"
           id="path150" /></g></g><path
       d="M 224.08089,163.79458 V 161.7813"
       style="fill:#000000;fill-opacity:1;fill-rule:nonzero;stroke:#000000;stroke-width:0.460177;stroke-linecap:butt;stroke-linejoin:round;stroke-miterlimit:10;stroke-dasharray:none;stroke-opacity:1"
       id="path154" /><g
       id="g164"
       transform="matrix(0.5752206,0,0,0.5752206,8.9280003,141.92699)"><g
         id="g166"
         clip-path="url(#clipPath170)"><path
           d="M 57.6,38.016 H 414.72"
           style="fill:none;stroke:#b0b0b0;stroke-width:0.8;stroke-linecap:square;stroke-linejoin:round;stroke-miterlimit:10;stroke-dasharray:none;stroke-opacity:1"
           id="path172" /></g></g><path
       d="M 42.060707,163.79458 H 40.047435"
       style="fill:#000000;fill-opacity:1;fill-rule:nonzero;stroke:#000000;stroke-width:0.460177;stroke-linecap:butt;stroke-linejoin:round;stroke-miterlimit:10;stroke-dasharray:none;stroke-opacity:1"
       id="path176" /><g
       id="g182"
       transform="matrix(0.5752206,0,0,0.5752206,8.9280003,141.92699)"><g
         id="g184"
         clip-path="url(#clipPath188)"><path
           d="M 57.6,91.2384 H 414.72"
           style="fill:none;stroke:#b0b0b0;stroke-width:0.8;stroke-linecap:square;stroke-linejoin:round;stroke-miterlimit:10;stroke-dasharray:none;stroke-opacity:1"
           id="path190" /></g></g><path
       d="M 42.060707,194.40919 H 40.047435"
       style="fill:#000000;fill-opacity:1;fill-rule:nonzero;stroke:#000000;stroke-width:0.460177;stroke-linecap:butt;stroke-linejoin:round;stroke-miterlimit:10;stroke-dasharray:none;stroke-opacity:1"
       id="path194" /><g
       id="g200"
       transform="matrix(0.5752206,0,0,0.5752206,8.9280003,141.92699)"><g
         id="g202"
         clip-path="url(#clipPath206)"><path
           d="M 57.6,144.4608 H 414.72"
           style="fill:none;stroke:#b0b0b0;stroke-width:0.8;stroke-linecap:square;stroke-linejoin:round;stroke-miterlimit:10;stroke-dasharray:none;stroke-opacity:1"
           id="path208" /></g></g><path
       d="M 42.060707,225.02381 H 40.047435"
       style="fill:#000000;fill-opacity:1;fill-rule:nonzero;stroke:#000000;stroke-width:0.460177;stroke-linecap:butt;stroke-linejoin:round;stroke-miterlimit:10;stroke-dasharray:none;stroke-opacity:1"
       id="path212" /><g
       id="g218"
       transform="matrix(0.5752206,0,0,0.5752206,8.9280003,141.92699)"><g
         id="g220"
         clip-path="url(#clipPath224)"><path
           d="M 57.6,197.6832 H 414.72"
           style="fill:none;stroke:#b0b0b0;stroke-width:0.8;stroke-linecap:square;stroke-linejoin:round;stroke-miterlimit:10;stroke-dasharray:none;stroke-opacity:1"
           id="path226" /></g></g><path
       d="M 42.060707,255.63844 H 40.047435"
       style="fill:#000000;fill-opacity:1;fill-rule:nonzero;stroke:#000000;stroke-width:0.460177;stroke-linecap:butt;stroke-linejoin:round;stroke-miterlimit:10;stroke-dasharray:none;stroke-opacity:1"
       id="path230" /><g
       id="g236"
       transform="matrix(0.5752206,0,0,0.5752206,8.9280003,141.92699)"><g
         id="g238"
         clip-path="url(#clipPath242)"><path
           d="M 57.6,250.9056 H 414.72"
           style="fill:none;stroke:#b0b0b0;stroke-width:0.8;stroke-linecap:square;stroke-linejoin:round;stroke-miterlimit:10;stroke-dasharray:none;stroke-opacity:1"
           id="path244" /></g></g><path
       d="M 42.060707,286.25306 H 40.047435"
       style="fill:#000000;fill-opacity:1;fill-rule:nonzero;stroke:#000000;stroke-width:0.460177;stroke-linecap:butt;stroke-linejoin:round;stroke-miterlimit:10;stroke-dasharray:none;stroke-opacity:1"
       id="path248" /><g
       id="g254"
       transform="matrix(0.5752206,0,0,0.5752206,8.9280003,141.92699)"><g
         id="g256"
         clip-path="url(#clipPath260)"><path
           d="M 57.6,304.128 H 414.72"
           style="fill:none;stroke:#b0b0b0;stroke-width:0.8;stroke-linecap:square;stroke-linejoin:round;stroke-miterlimit:10;stroke-dasharray:none;stroke-opacity:1"
           id="path262" /></g></g><path
       d="M 42.060707,316.86767 H 40.047435"
       style="fill:#000000;fill-opacity:1;fill-rule:nonzero;stroke:#000000;stroke-width:0.460177;stroke-linecap:butt;stroke-linejoin:round;stroke-miterlimit:10;stroke-dasharray:none;stroke-opacity:1"
       id="path266" /><g
       id="g276"
       transform="matrix(0.5752206,0,0,0.5752206,8.9280003,141.92699)"><g
         id="g278"
         clip-path="url(#clipPath282)"><path
           d="m 57.6,266.78145 4.520506,2.4843 4.520507,-8.34081 4.520506,-8.48631 4.520506,-5.73836 4.520507,-6.97139 4.520506,-3.32681 4.520506,-3.9142 4.520507,-4.74258 4.520506,0.0647 4.520503,-4.65079 4.52051,-2.59945 4.52051,-2.33156 4.5205,-7.37712 4.52051,-2.5371 4.52051,-1.62013 4.5205,-2.47514 4.52051,1.60444 4.5205,-2.5055 4.52051,-3.24996 4.52051,-1.82988 4.5205,0.0569 4.52051,-3.49936 4.52051,-3.25519 4.5205,3.23908 4.52051,-2.19695 4.5205,-2.64961 4.52051,-0.72134 4.52051,-3.832 4.5205,-0.58759 4.52051,-3.19799 4.52051,-0.61097 4.5205,-0.48359 4.52051,-2.84816 4.5205,2.36024 4.52051,0.0285 4.52051,1.22046 4.5205,-1.30432 4.52051,-1.1295 4.52051,-3.26021 4.5205,0.90733 4.52051,1.11465 4.52051,-4.02126 4.5205,1.92665 4.52051,1.70354 4.5205,-1.72089 4.52051,0.22704 4.52051,0.13876 4.5205,-3.59701 4.52051,1.02719 4.52051,4.24224 4.5205,3.19094 4.52051,-0.64277 4.5205,0.12576 4.52051,-1.74594 4.52051,-0.0511 4.5205,-2.98449 4.52051,-3.15285 4.52051,3.71737 4.5205,-2.26606 4.52051,1.58062 4.52051,-1.59339 4.5205,-0.44368 4.52051,3.56623 4.5205,3.77175 4.52051,-1.73563 4.52051,1.35475 4.5205,2.25541 4.52051,-4.29482 4.52051,2.58138 4.5205,-4.66777 4.52051,-2.28875 4.52051,4.82699 4.5205,-0.55869 4.52051,-2.95296 4.5205,-1.01878 4.52051,0.26969 4.52051,-5.91046 4.5205,-3.27512 4.52051,-0.0225"
           style="fill:none;stroke:#1f77b4;stroke-width:1.5;stroke-linecap:square;stroke-linejoin:round;stroke-miterlimit:10;stroke-dasharray:none;stroke-opacity:1"
           id="path284" /></g></g><g
       id="g286"
       transform="matrix(0.5752206,0,0,0.5752206,8.9280003,141.92699)"><g
         id="g288"
         clip-path="url(#clipPath292)"><path
           d="m 57.6,266.24281 4.520506,2.27887 4.520507,-8.15178 4.520506,-7.80761 4.520506,-5.16026 4.520507,-7.1209 4.520506,-4.07448 4.520506,-4.20873 4.520507,-4.37246 4.520506,0.35495 4.520503,-5.02685 4.52051,-3.34267 4.52051,-2.69868 4.5205,-7.07642 4.52051,-2.69625 4.52051,-1.67368 4.5205,-2.67019 4.52051,1.85639 4.5205,-2.0315 4.52051,-3.38245 4.52051,-1.83245 4.5205,0.13903 4.52051,-3.34066 4.52051,-3.64421 4.5205,3.13195 4.52051,-2.28308 4.5205,-3.40342 4.52051,-0.0428 4.52051,-3.88802 4.5205,-0.64349 4.52051,-3.76642 4.52051,-0.55872 4.5205,-0.22019 4.52051,-3.19846 4.5205,2.28406 4.52051,-0.1767 4.52051,0.68158 4.5205,-1.28143 4.52051,-0.18112 4.52051,-3.57086 4.5205,1.09081 4.52051,0.60628 4.52051,-3.32545 4.5205,1.4663 4.52051,1.89758 4.5205,-1.594 4.52051,0.56521 4.52051,-0.19675 4.5205,-3.1518 4.52051,2.10695 4.52051,4.36988 4.5205,3.28843 4.52051,-0.29634 4.5205,0.35691 4.52051,-1.79129 4.52051,1.24685 4.5205,-2.73906 4.52051,-2.76 4.52051,3.92969 4.5205,-2.3795 4.52051,1.16341 4.52051,-1.17841 4.5205,-0.27726 4.52051,3.43595 4.5205,3.28278 4.52051,-1.47841 4.52051,0.8268 4.5205,1.36783 4.52051,-3.4764 4.52051,3.05707 4.5205,-5.02523 4.52051,-1.07814 4.52051,3.51945 4.5205,1.13504 4.52051,-1.27881 4.5205,-1.22739 4.52051,-2.69684 4.52051,-0.36307 4.5205,-4.63995 4.52051,-1.30337"
           style="fill:none;stroke:#ff7f0e;stroke-width:1.5;stroke-linecap:square;stroke-linejoin:round;stroke-miterlimit:10;stroke-dasharray:none;stroke-opacity:1"
           id="path294" /></g></g><g
       id="g296"
       transform="matrix(0.5752206,0,0,0.5752206,8.9280003,141.92699)"><g
         id="g298"
         clip-path="url(#clipPath302)"><path
           d="m 57.6,266.83787 4.520506,2.1673 4.520507,-8.23704 4.520506,-7.7624 4.520506,-5.15109 4.520507,-7.36236 4.520506,-4.07491 4.520506,-4.16606 4.520507,-4.33713 4.520506,0.3701 4.520503,-5.15929 4.52051,-3.40061 4.52051,-2.72017 4.5205,-7.0972 4.52051,-2.77471 4.52051,-1.83014 4.5205,-2.71635 4.52051,1.81778 4.5205,-2.05637 4.52051,-3.67378 4.52051,-2.04496 4.5205,-0.0881 4.52051,-3.76817 4.52051,-3.60191 4.5205,3.32925 4.52051,-2.09474 4.5205,-3.43266 4.52051,-0.20419 4.52051,-3.58423 4.5205,-0.70212 4.52051,-3.52684 4.52051,-0.51913 4.5205,-0.46658 4.52051,-2.79632 4.5205,1.83755 4.52051,-0.17097 4.52051,0.46235 4.5205,-1.5002 4.52051,-0.23594 4.52051,-3.89954 4.5205,1.40714 4.52051,0.66171 4.52051,-3.21869 4.5205,1.85401 4.52051,2.19005 4.5205,-1.47981 4.52051,0.85441 4.52051,-0.39188 4.5205,-3.20651 4.52051,2.21747 4.52051,4.13684 4.5205,2.84541 4.52051,-0.69935 4.5205,-0.15278 4.52051,-1.10118 4.52051,0.75735 4.5205,-2.89218 4.52051,-2.85322 4.52051,3.05328 4.5205,-3.07863 4.52051,1.30455 4.52051,-1.17489 4.5205,-0.3914 4.52051,3.23457 4.5205,3.07115 4.52051,-0.72758 4.52051,0.75311 4.5205,1.22113 4.52051,-2.06776 4.52051,2.93549 4.5205,-4.53171 4.52051,-0.49193 4.52051,3.89272 4.5205,0.92553 4.52051,-1.51923 4.5205,-1.52577 4.52051,-3.13428 4.52051,0.36217 4.5205,-5.60726 4.52051,-0.39062"
           style="fill:none;stroke:#2ca02c;stroke-width:1.5;stroke-linecap:square;stroke-linejoin:round;stroke-miterlimit:10;stroke-dasharray:none;stroke-opacity:1"
           id="path304" /></g></g><g
       id="g306"
       transform="matrix(0.5752206,0,0,0.5752206,8.9280003,141.92699)"><g
         id="g308"
         clip-path="url(#clipPath312)"><path
           d="m 57.6,248.04826 4.520506,-7.31345 4.520507,-2.67199 4.520506,-1.92582 4.520506,0.52852 4.520507,1.5828 4.520506,-0.83742 4.520506,4.75577 4.520507,1.51933 4.520506,-0.1265 4.520503,-0.0103 4.52051,0.10428 4.52051,-2.9016 4.5205,0.21693 4.52051,-0.43194 4.52051,1.81056 4.5205,-2.13652 4.52051,-1.28172 4.5205,1.11446 4.52051,0.68509 4.52051,-1.5634 4.5205,-2.88215 4.52051,-3.72723 4.52051,-3.7109 4.5205,-0.44788 4.52051,-2.4429 4.5205,-0.96455 4.52051,1.22164 4.52051,-1.212 4.5205,6.89727 4.52051,3.34875 4.52051,-2.16375 4.5205,-1.01249 4.52051,6.2809 4.5205,-2.72251 4.52051,-2.2134 4.52051,-2.6234 4.5205,4.04371 4.52051,0.25559 4.52051,2.09483 4.5205,-4.94605 4.52051,0.91346 4.52051,2.43847 4.5205,-4.99945 4.52051,-0.86193 4.5205,-2.68794 4.52051,2.85342 4.52051,3.77661 4.5205,-0.51097 4.52051,4.62935 4.52051,-3.57512 4.5205,0.37684 4.52051,1.56505 4.5205,-2.09594 4.52051,-1.96746 4.52051,4.21977 4.5205,-2.11606 4.52051,-1.44609 4.52051,-1.48226 4.5205,-3.92104 4.52051,-3.91256 4.52051,0.7496 4.5205,0.77762 4.52051,-2.93298 4.5205,-4.47071 4.52051,-3.50641 4.52051,-0.75959 4.5205,-2.00022 4.52051,-1.98589 4.52051,-0.32473 4.5205,-3.05912 4.52051,1.95696 4.52051,0.20884 4.5205,-3.16905 4.52051,1.02544 4.5205,2.31483 4.52051,2.71847 4.52051,-3.92037 4.5205,1.00809 4.52051,-7.19419"
           style="fill:none;stroke:#d62728;stroke-width:1.5;stroke-linecap:square;stroke-linejoin:round;stroke-miterlimit:10;stroke-dasharray:none;stroke-opacity:1"
           id="path314" /></g></g><path
       d="M 42.060707,163.79458 V 316.86767"
       style="fill:none;stroke:#000000;stroke-width:0.460177;stroke-linecap:square;stroke-linejoin:miter;stroke-miterlimit:10;stroke-dasharray:none;stroke-opacity:1"
       id="path318" /><path
       d="M 247.48349,163.79458 V 316.86767"
       style="fill:none;stroke:#000000;stroke-width:0.460177;stroke-linecap:square;stroke-linejoin:miter;stroke-miterlimit:10;stroke-dasharray:none;stroke-opacity:1"
       id="path320" /><path
       d="M 42.060707,163.79458 H 247.48349"
       style="fill:none;stroke:#000000;stroke-width:0.460177;stroke-linecap:square;stroke-linejoin:miter;stroke-miterlimit:10;stroke-dasharray:none;stroke-opacity:1"
       id="path322" /><path
       d="M 42.060707,316.86767 H 247.48349"
       style="fill:none;stroke:#000000;stroke-width:0.460177;stroke-linecap:square;stroke-linejoin:miter;stroke-miterlimit:10;stroke-dasharray:none;stroke-opacity:1"
       id="path324" /><path
       d="M 52.739171,197.27959 H 64.243582"
       style="fill:none;stroke:#1f77b4;stroke-width:0.862831;stroke-linecap:square;stroke-linejoin:round;stroke-miterlimit:10;stroke-dasharray:none;stroke-opacity:1"
       id="path334" /><path
       d="M 52.739171,188.84003 H 64.243582"
       style="fill:none;stroke:#ff7f0e;stroke-width:0.862831;stroke-linecap:square;stroke-linejoin:round;stroke-miterlimit:10;stroke-dasharray:none;stroke-opacity:1"
       id="path340" /><path
       d="M 52.739171,180.40047 H 64.243582"
       style="fill:none;stroke:#2ca02c;stroke-width:0.862831;stroke-linecap:square;stroke-linejoin:round;stroke-miterlimit:10;stroke-dasharray:none;stroke-opacity:1"
       id="path346" /><path
       d="M 52.739171,171.96089 H 64.243582"
       style="fill:none;stroke:#d62728;stroke-width:0.862831;stroke-linecap:square;stroke-linejoin:round;stroke-miterlimit:10;stroke-dasharray:none;stroke-opacity:1"
       id="path352" /></g><g
     inkscape:groupmode="layer"
     id="layer1"
     inkscape:label="text"
     transform="translate(-28.023958,-17.206424)"><text
       style="font-variant:normal;font-weight:normal;font-size:7.6696px;font-family:'DejaVu Sans';-inkscape-font-specification:DejaVuSans;writing-mode:lr-tb;fill:#000000;fill-opacity:1;fill-rule:nonzero;stroke:none;stroke-width:0.76696"
       id="text32"
       x="53.542507"
       y="253.60005"><tspan
         x="53.542507 58.42038 60.859318 65.737183"
         y="253.60005"
         sodipodi:role="line"
         id="tspan30"
         style="stroke-width:0.76696">0.00</tspan></text><text
       style="font-variant:normal;font-weight:normal;font-size:7.6696px;font-family:'DejaVu Sans';-inkscape-font-specification:DejaVuSans;writing-mode:lr-tb;fill:#000000;fill-opacity:1;fill-rule:nonzero;stroke:none;stroke-width:0.76696"
       id="text50"
       x="82.21302"
       y="253.60005"><tspan
         x="82.21302 87.090897 89.529823 94.407692"
         y="253.60005"
         sodipodi:role="line"
         id="tspan48"
         style="stroke-width:0.76696">0.25</tspan></text><text
       style="font-variant:normal;font-weight:normal;font-size:7.6696px;font-family:'DejaVu Sans';-inkscape-font-specification:DejaVuSans;writing-mode:lr-tb;fill:#000000;fill-opacity:1;fill-rule:nonzero;stroke:none;stroke-width:0.76696"
       id="text68"
       x="116.88353"
       y="253.60005"><tspan
         x="116.88353 121.76139 124.20034 129.07822"
         y="253.60005"
         sodipodi:role="line"
         id="tspan66"
         style="stroke-width:0.76696">0.50</tspan></text><text
       style="font-variant:normal;font-weight:normal;font-size:7.6696px;font-family:'DejaVu Sans';-inkscape-font-specification:DejaVuSans;writing-mode:lr-tb;fill:#000000;fill-opacity:1;fill-rule:nonzero;stroke:none;stroke-width:0.76696"
       id="text86"
       x="151.55405"
       y="253.60005"><tspan
         x="151.55405 156.43192 158.87085 163.74872"
         y="253.60005"
         sodipodi:role="line"
         id="tspan84"
         style="stroke-width:0.76696">0.75</tspan></text><text
       style="font-variant:normal;font-weight:normal;font-size:7.6696px;font-family:'DejaVu Sans';-inkscape-font-specification:DejaVuSans;writing-mode:lr-tb;fill:#000000;fill-opacity:1;fill-rule:nonzero;stroke:none;stroke-width:0.76696"
       id="text104"
       x="186.22456"
       y="253.60005"><tspan
         x="186.22456 191.10243 193.54137 198.41924"
         y="253.60005"
         sodipodi:role="line"
         id="tspan102"
         style="stroke-width:0.76696">1.00</tspan></text><text
       style="font-variant:normal;font-weight:normal;font-size:7.6696px;font-family:'DejaVu Sans';-inkscape-font-specification:DejaVuSans;writing-mode:lr-tb;fill:#000000;fill-opacity:1;fill-rule:nonzero;stroke:none;stroke-width:0.76696"
       id="text122"
       x="220.89505"
       y="253.60005"><tspan
         x="220.89505 225.77293 228.21187 233.08972"
         y="253.60005"
         sodipodi:role="line"
         id="tspan120"
         style="stroke-width:0.76696">1.25</tspan></text><text
       style="font-variant:normal;font-weight:normal;font-size:7.6696px;font-family:'DejaVu Sans';-inkscape-font-specification:DejaVuSans;writing-mode:lr-tb;fill:#000000;fill-opacity:1;fill-rule:nonzero;stroke:none;stroke-width:0.76696"
       id="text140"
       x="255.56558"
       y="253.60005"><tspan
         x="255.56558 260.44345 262.88239 267.76025"
         y="253.60005"
         sodipodi:role="line"
         id="tspan138"
         style="stroke-width:0.76696">1.50</tspan></text><text
       style="font-variant:normal;font-weight:normal;font-size:7.6696px;font-family:'DejaVu Sans';-inkscape-font-specification:DejaVuSans;writing-mode:lr-tb;fill:#000000;fill-opacity:1;fill-rule:nonzero;stroke:none;stroke-width:0.76696"
       id="text158"
       x="290.23608"
       y="253.60005"><tspan
         x="290.23608 295.11395 297.55289 302.43076"
         y="253.60005"
         sodipodi:role="line"
         id="tspan156"
         style="stroke-width:0.76696">1.75</tspan></text><text
       style="font-variant:normal;font-weight:normal;font-size:7.6696px;font-family:'DejaVu Sans';-inkscape-font-specification:DejaVuSans;writing-mode:lr-tb;fill:#000000;fill-opacity:1;fill-rule:nonzero;stroke:none;stroke-width:0.76696"
       id="text162"
       x="146.61035"
       y="264.08603"><tspan
         x="146.61035 152.55431 157.27112 162.13364 166.82744 174.29764 176.42978 180.64807 183.08701 187.95721 190.08936 194.08524 197.09171 201.79318 206.6557 210.87401 215.59082 218.02974 220.6144 223.05333 229.6722 234.5424"
         y="264.08603"
         sodipodi:role="line"
         id="tspan160"
         style="stroke-width:0.76696">Genomic distance / Mbp</tspan></text><text
       style="font-variant:normal;font-weight:normal;font-size:7.6696px;font-family:'DejaVu Sans';-inkscape-font-specification:DejaVuSans;writing-mode:lr-tb;fill:#000000;fill-opacity:1;fill-rule:nonzero;stroke:none;stroke-width:0.76696"
       id="text180"
       x="38.512745"
       y="245.31929"><tspan
         x="38.512745 43.390614 45.829552"
         y="245.31929"
         sodipodi:role="line"
         id="tspan178"
         style="stroke-width:0.76696">0.0</tspan></text><text
       style="font-variant:normal;font-weight:normal;font-size:7.6696px;font-family:'DejaVu Sans';-inkscape-font-specification:DejaVuSans;writing-mode:lr-tb;fill:#000000;fill-opacity:1;fill-rule:nonzero;stroke:none;stroke-width:0.76696"
       id="text198"
       x="38.512745"
       y="204.49979"><tspan
         x="38.512745 43.390614 45.829552"
         y="204.49979"
         sodipodi:role="line"
         id="tspan196"
         style="stroke-width:0.76696">0.2</tspan></text><text
       style="font-variant:normal;font-weight:normal;font-size:7.6696px;font-family:'DejaVu Sans';-inkscape-font-specification:DejaVuSans;writing-mode:lr-tb;fill:#000000;fill-opacity:1;fill-rule:nonzero;stroke:none;stroke-width:0.76696"
       id="text216"
       x="38.512745"
       y="163.6803"><tspan
         x="38.512745 43.390614 45.829552"
         y="163.6803"
         sodipodi:role="line"
         id="tspan214"
         style="stroke-width:0.76696">0.4</tspan></text><text
       style="font-variant:normal;font-weight:normal;font-size:7.6696px;font-family:'DejaVu Sans';-inkscape-font-specification:DejaVuSans;writing-mode:lr-tb;fill:#000000;fill-opacity:1;fill-rule:nonzero;stroke:none;stroke-width:0.76696"
       id="text234"
       x="38.512745"
       y="122.86079"><tspan
         x="38.512745 43.390614 45.829552"
         y="122.86079"
         sodipodi:role="line"
         id="tspan232"
         style="stroke-width:0.76696">0.6</tspan></text><text
       style="font-variant:normal;font-weight:normal;font-size:7.6696px;font-family:'DejaVu Sans';-inkscape-font-specification:DejaVuSans;writing-mode:lr-tb;fill:#000000;fill-opacity:1;fill-rule:nonzero;stroke:none;stroke-width:0.76696"
       id="text252"
       x="38.512745"
       y="82.041313"><tspan
         x="38.512745 43.390614 45.829552"
         y="82.041313"
         sodipodi:role="line"
         id="tspan250"
         style="stroke-width:0.76696">0.8</tspan></text><text
       style="font-variant:normal;font-weight:normal;font-size:7.6696px;font-family:'DejaVu Sans';-inkscape-font-specification:DejaVuSans;writing-mode:lr-tb;fill:#000000;fill-opacity:1;fill-rule:nonzero;stroke:none;stroke-width:0.76696"
       id="text270"
       x="38.512745"
       y="41.221867"><tspan
         x="38.512745 43.390614 45.829552"
         y="41.221867"
         sodipodi:role="line"
         id="tspan268"
         style="stroke-width:0.76696">1.0</tspan></text><text
       transform="rotate(-90)"
       style="font-variant:normal;font-weight:normal;font-size:7.6696px;font-family:'DejaVu Sans';-inkscape-font-specification:DejaVuSans;writing-mode:lr-tb;fill:#000000;fill-opacity:1;fill-rule:nonzero;stroke:none;stroke-width:0.76696"
       id="text274"
       x="-177.41228"
       y="33.851063"><tspan
         x="-177.41228 -172.78751 -168.07071 -163.36922 -160.21703 -156.22116 -151.52736 -146.66483 -144.22589 -140.00761 -135.3138 -132.16159 -129.00938 -124.29257 -122.16044 -117.45896 -114.45248 -112.32031 -107.62653"
         y="33.851063"
         sodipodi:role="line"
         id="tspan272"
         style="stroke-width:0.76696">Pearson correlation</tspan></text><text
       style="font-variant:normal;font-weight:normal;font-size:9.20353px;font-family:'DejaVu Sans';-inkscape-font-specification:DejaVuSans;writing-mode:lr-tb;fill:#000000;fill-opacity:1;fill-rule:nonzero;stroke:none;stroke-width:0.76696"
       id="text328"
       x="98.315788"
       y="23.392416"><tspan
         x="98.315788 103.86552 109.5257 115.16747 118.9501 123.74514 129.37772 135.21275 138.13947 143.2014 148.83397 152.61662 156.39926 162.05943 164.61801 170.25978 173.86757 176.42615 182.05872 187.89374 190.82047 196.26895 201.06401 203.99072 206.91745 212.76169 218.42186 224.25687 229.88945 238.85367 241.41226 246.4742 249.40094 255.24518 257.80374 262.59879 266.20657 271.84833 277.68338 282.7453"
         y="23.392416"
         sodipodi:role="line"
         id="tspan326"
         style="stroke-width:0.76696">Pearson correlation vs. genomic distance</tspan></text><text
       style="font-variant:normal;font-weight:normal;font-size:9.20353px;font-family:'DejaVu Sans';-inkscape-font-specification:DejaVuSans;writing-mode:lr-tb;fill:#000000;fill-opacity:1;fill-rule:nonzero;stroke:none;stroke-width:0.76696"
       id="text332"
       x="61.05497"
       y="33.70805"><tspan
         x="61.05497 68.187706 76.130348 81.983795 87.837234 93.690681 99.544128 105.39756 108.3243 111.25101 117.10446 120.03119 125.88463 128.81136 134.66479 137.59152 143.44496 146.37169 152.22514 155.15186 161.00531 166.85873 169.78546 175.6389 181.49234 184.41908 190.27252 196.12596 199.05269 204.90613 210.75958 213.68631 219.53973 225.3932 228.31992 234.17337 240.02681 242.95352 248.80698 254.66042 257.58716 263.44058 269.29404 272.22076 277.8533 283.68835 286.61508 292.65256 298.50604 304.35947 310.21295 313.13965 316.06635 321.9198"
         y="33.70805"
         sodipodi:role="line"
         id="tspan330"
         style="stroke-width:0.76696">GM12878, 1,2,4,7,9,11,13,14,16,17,18,20,22 on K562, 10</tspan></text><text
       style="font-variant:normal;font-weight:normal;font-size:7.66959px;font-family:'DejaVu Sans';-inkscape-font-specification:DejaVuSans;writing-mode:lr-tb;fill:#000000;fill-opacity:1;fill-rule:nonzero;stroke:none;stroke-width:0.766959"
       id="text338"
       x="91.7938"
       y="200.4449"><tspan
         x="91.7938 96.671669 101.54955 106.4274 111.1442 116.0144 118.45334 121.03801 123.47694 128.72296 134.33711 139.69048 142.27518 144.7141 149.59195 152.0309 156.90875 161.78665"
         y="200.4449"
         sodipodi:role="line"
         id="tspan336"
         style="stroke-width:0.766959">500ep / AUC: 0.575</tspan></text><text
       style="font-variant:normal;font-weight:normal;font-size:7.66959px;font-family:'DejaVu Sans';-inkscape-font-specification:DejaVuSans;writing-mode:lr-tb;fill:#000000;fill-opacity:1;fill-rule:nonzero;stroke:none;stroke-width:0.766959"
       id="text344"
       x="91.7938"
       y="211.69766"><tspan
         x="91.7938 96.671669 101.54955 106.4274 111.30528 116.02208 120.8923 123.33122 125.91587 128.35481 133.60081 139.21498 144.56836 147.15303 149.59195 154.46982 156.90875 161.78665 166.66451"
         y="211.69766"
         sodipodi:role="line"
         id="tspan342"
         style="stroke-width:0.766959">1000ep / AUC: 0.576</tspan></text><text
       style="font-variant:normal;font-weight:normal;font-size:7.66959px;font-family:'DejaVu Sans';-inkscape-font-specification:DejaVuSans;writing-mode:lr-tb;fill:#000000;fill-opacity:1;fill-rule:nonzero;stroke:none;stroke-width:0.766959"
       id="text350"
       x="91.7938"
       y="222.95042"><tspan
         x="91.7938 96.671669 101.54955 106.4274 111.30528 116.02208 120.8923 123.33122 125.91587 128.35481 133.60081 139.21498 144.56836 147.15303 149.59195 154.46982 156.90875 161.78665 166.66451"
         y="222.95042"
         sodipodi:role="line"
         id="tspan348"
         style="stroke-width:0.766959">1500ep / AUC: 0.571</tspan></text><text
       style="font-variant:normal;font-weight:normal;font-size:7.66959px;font-family:'DejaVu Sans';-inkscape-font-specification:DejaVuSans;writing-mode:lr-tb;fill:#000000;fill-opacity:1;fill-rule:nonzero;stroke:none;stroke-width:0.766959"
       id="text356"
       x="91.7938"
       y="234.20316"><tspan
         x="91.7938 94.800285 97.952492 102.65397 107.51649 111.51235 114.21205 118.92888 122.08107 124.52 130.46394 137.08282 141.96071 146.83856 151.71645 156.59431 161.4722 163.91112 166.49579 168.93471 174.18073 179.79489 185.14827 187.73293 190.17184 195.04971 197.48865 202.3665 207.2444"
         y="234.20316"
         sodipodi:role="line"
         id="tspan354"
         style="stroke-width:0.766959">transfer GM12878 / AUC: 0.720</tspan></text></g></svg>
