<?xml version="1.0" encoding="UTF-8" standalone="no"?>
<svg
   xmlns:dc="http://purl.org/dc/elements/1.1/"
   xmlns:cc="http://creativecommons.org/ns#"
   xmlns:rdf="http://www.w3.org/1999/02/22-rdf-syntax-ns#"
   xmlns:svg="http://www.w3.org/2000/svg"
   xmlns="http://www.w3.org/2000/svg"
   xmlns:sodipodi="http://sodipodi.sourceforge.net/DTD/sodipodi-0.dtd"
   xmlns:inkscape="http://www.inkscape.org/namespaces/inkscape"
   version="1.1"
   id="svg2"
   xml:space="preserve"
   width="80mm"
   height="65.300003mm"
   viewBox="0 0 302.36219 246.80316"
   sodipodi:docname="pearson_chr21.svg"
   inkscape:version="1.0.2 (1.0.2+r75+1)"><metadata
     id="metadata8"><rdf:RDF><cc:Work
         rdf:about=""><dc:format>image/svg+xml</dc:format><dc:type
           rdf:resource="http://purl.org/dc/dcmitype/StillImage" /><dc:title /></cc:Work></rdf:RDF></metadata><defs
     id="defs6"><clipPath
       clipPathUnits="userSpaceOnUse"
       id="clipPath22"><path
         d="M 57.6,38.016 H 414.72 V 304.128 H 57.6 Z"
         id="path20" /></clipPath><clipPath
       clipPathUnits="userSpaceOnUse"
       id="clipPath40"><path
         d="M 57.6,38.016 H 414.72 V 304.128 H 57.6 Z"
         id="path38" /></clipPath><clipPath
       clipPathUnits="userSpaceOnUse"
       id="clipPath58"><path
         d="M 57.6,38.016 H 414.72 V 304.128 H 57.6 Z"
         id="path56" /></clipPath><clipPath
       clipPathUnits="userSpaceOnUse"
       id="clipPath76"><path
         d="M 57.6,38.016 H 414.72 V 304.128 H 57.6 Z"
         id="path74" /></clipPath><clipPath
       clipPathUnits="userSpaceOnUse"
       id="clipPath94"><path
         d="M 57.6,38.016 H 414.72 V 304.128 H 57.6 Z"
         id="path92" /></clipPath><clipPath
       clipPathUnits="userSpaceOnUse"
       id="clipPath112"><path
         d="M 57.6,38.016 H 414.72 V 304.128 H 57.6 Z"
         id="path110" /></clipPath><clipPath
       clipPathUnits="userSpaceOnUse"
       id="clipPath130"><path
         d="M 57.6,38.016 H 414.72 V 304.128 H 57.6 Z"
         id="path128" /></clipPath><clipPath
       clipPathUnits="userSpaceOnUse"
       id="clipPath148"><path
         d="M 57.6,38.016 H 414.72 V 304.128 H 57.6 Z"
         id="path146" /></clipPath><clipPath
       clipPathUnits="userSpaceOnUse"
       id="clipPath170"><path
         d="M 57.6,38.016 H 414.72 V 304.128 H 57.6 Z"
         id="path168" /></clipPath><clipPath
       clipPathUnits="userSpaceOnUse"
       id="clipPath188"><path
         d="M 57.6,38.016 H 414.72 V 304.128 H 57.6 Z"
         id="path186" /></clipPath><clipPath
       clipPathUnits="userSpaceOnUse"
       id="clipPath206"><path
         d="M 57.6,38.016 H 414.72 V 304.128 H 57.6 Z"
         id="path204" /></clipPath><clipPath
       clipPathUnits="userSpaceOnUse"
       id="clipPath224"><path
         d="M 57.6,38.016 H 414.72 V 304.128 H 57.6 Z"
         id="path222" /></clipPath><clipPath
       clipPathUnits="userSpaceOnUse"
       id="clipPath242"><path
         d="M 57.6,38.016 H 414.72 V 304.128 H 57.6 Z"
         id="path240" /></clipPath><clipPath
       clipPathUnits="userSpaceOnUse"
       id="clipPath260"><path
         d="M 57.6,38.016 H 414.72 V 304.128 H 57.6 Z"
         id="path258" /></clipPath><clipPath
       clipPathUnits="userSpaceOnUse"
       id="clipPath282"><path
         d="M 57.6,38.016 H 414.72 V 304.128 H 57.6 Z"
         id="path280" /></clipPath><clipPath
       clipPathUnits="userSpaceOnUse"
       id="clipPath292"><path
         d="M 57.6,38.016 H 414.72 V 304.128 H 57.6 Z"
         id="path290" /></clipPath><clipPath
       clipPathUnits="userSpaceOnUse"
       id="clipPath302"><path
         d="M 57.6,38.016 H 414.72 V 304.128 H 57.6 Z"
         id="path300" /></clipPath><clipPath
       clipPathUnits="userSpaceOnUse"
       id="clipPath312"><path
         d="M 57.6,38.016 H 414.72 V 304.128 H 57.6 Z"
         id="path310" /></clipPath></defs><sodipodi:namedview
     pagecolor="#ffffff"
     bordercolor="#666666"
     borderopacity="1"
     objecttolerance="10"
     gridtolerance="10"
     guidetolerance="10"
     inkscape:pageopacity="0"
     inkscape:pageshadow="2"
     inkscape:window-width="1920"
     inkscape:window-height="1020"
     id="namedview4"
     showgrid="false"
     fit-margin-top="0"
     fit-margin-left="0"
     fit-margin-right="0"
     fit-margin-bottom="0"
     units="mm"
     inkscape:zoom="3.7196182"
     inkscape:cx="89.482459"
     inkscape:cy="161.47942"
     inkscape:window-x="0"
     inkscape:window-y="0"
     inkscape:window-maximized="1"
     inkscape:current-layer="layer1"
     inkscape:document-rotation="0" /><g
     id="g10"
     inkscape:groupmode="layer"
     inkscape:label="pearson_chr21"
     transform="matrix(1.3333333,0,0,-1.3333333,-28.023958,443.59358)"><g
       id="g16"
       transform="matrix(0.57524284,0,0,0.57524284,8.9275328,141.96132)"><g
         id="g18"
         clip-path="url(#clipPath22)"><path
           d="M 57.6,38.016 V 304.128"
           style="fill:none;stroke:#b0b0b0;stroke-width:0.8;stroke-linecap:square;stroke-linejoin:round;stroke-miterlimit:10;stroke-dasharray:none;stroke-opacity:1"
           id="path24" /></g></g><path
       d="m 42.06152,163.82976 v -2.01335"
       style="fill:#000000;fill-opacity:1;fill-rule:nonzero;stroke:#000000;stroke-width:0.460194;stroke-linecap:butt;stroke-linejoin:round;stroke-miterlimit:10;stroke-dasharray:none;stroke-opacity:1"
       id="path28" /><g
       id="g34"
       transform="matrix(0.57524284,0,0,0.57524284,8.9275328,141.96132)"><g
         id="g36"
         clip-path="url(#clipPath40)"><path
           d="M 102.80506,38.016 V 304.128"
           style="fill:none;stroke:#b0b0b0;stroke-width:0.8;stroke-linecap:square;stroke-linejoin:round;stroke-miterlimit:10;stroke-dasharray:none;stroke-opacity:1"
           id="path42" /></g></g><path
       d="m 68.065408,163.82976 v -2.01335"
       style="fill:#000000;fill-opacity:1;fill-rule:nonzero;stroke:#000000;stroke-width:0.460194;stroke-linecap:butt;stroke-linejoin:round;stroke-miterlimit:10;stroke-dasharray:none;stroke-opacity:1"
       id="path46" /><g
       id="g52"
       transform="matrix(0.57524284,0,0,0.57524284,8.9275328,141.96132)"><g
         id="g54"
         clip-path="url(#clipPath58)"><path
           d="M 148.01013,38.016 V 304.128"
           style="fill:none;stroke:#b0b0b0;stroke-width:0.8;stroke-linecap:square;stroke-linejoin:round;stroke-miterlimit:10;stroke-dasharray:none;stroke-opacity:1"
           id="path60" /></g></g><path
       d="m 94.069301,163.82976 v -2.01335"
       style="fill:#000000;fill-opacity:1;fill-rule:nonzero;stroke:#000000;stroke-width:0.460194;stroke-linecap:butt;stroke-linejoin:round;stroke-miterlimit:10;stroke-dasharray:none;stroke-opacity:1"
       id="path64" /><g
       id="g70"
       transform="matrix(0.57524284,0,0,0.57524284,8.9275328,141.96132)"><g
         id="g72"
         clip-path="url(#clipPath76)"><path
           d="M 193.21519,38.016 V 304.128"
           style="fill:none;stroke:#b0b0b0;stroke-width:0.8;stroke-linecap:square;stroke-linejoin:round;stroke-miterlimit:10;stroke-dasharray:none;stroke-opacity:1"
           id="path78" /></g></g><path
       d="m 120.07319,163.82976 v -2.01335"
       style="fill:#000000;fill-opacity:1;fill-rule:nonzero;stroke:#000000;stroke-width:0.460194;stroke-linecap:butt;stroke-linejoin:round;stroke-miterlimit:10;stroke-dasharray:none;stroke-opacity:1"
       id="path82" /><g
       id="g88"
       transform="matrix(0.57524284,0,0,0.57524284,8.9275328,141.96132)"><g
         id="g90"
         clip-path="url(#clipPath94)"><path
           d="M 238.42025,38.016 V 304.128"
           style="fill:none;stroke:#b0b0b0;stroke-width:0.8;stroke-linecap:square;stroke-linejoin:round;stroke-miterlimit:10;stroke-dasharray:none;stroke-opacity:1"
           id="path96" /></g></g><path
       d="m 146.07708,163.82976 v -2.01335"
       style="fill:#000000;fill-opacity:1;fill-rule:nonzero;stroke:#000000;stroke-width:0.460194;stroke-linecap:butt;stroke-linejoin:round;stroke-miterlimit:10;stroke-dasharray:none;stroke-opacity:1"
       id="path100" /><g
       id="g106"
       transform="matrix(0.57524284,0,0,0.57524284,8.9275328,141.96132)"><g
         id="g108"
         clip-path="url(#clipPath112)"><path
           d="M 283.62532,38.016 V 304.128"
           style="fill:none;stroke:#b0b0b0;stroke-width:0.8;stroke-linecap:square;stroke-linejoin:round;stroke-miterlimit:10;stroke-dasharray:none;stroke-opacity:1"
           id="path114" /></g></g><path
       d="m 172.08097,163.82976 v -2.01335"
       style="fill:#000000;fill-opacity:1;fill-rule:nonzero;stroke:#000000;stroke-width:0.460194;stroke-linecap:butt;stroke-linejoin:round;stroke-miterlimit:10;stroke-dasharray:none;stroke-opacity:1"
       id="path118" /><g
       id="g124"
       transform="matrix(0.57524284,0,0,0.57524284,8.9275328,141.96132)"><g
         id="g126"
         clip-path="url(#clipPath130)"><path
           d="M 328.83038,38.016 V 304.128"
           style="fill:none;stroke:#b0b0b0;stroke-width:0.8;stroke-linecap:square;stroke-linejoin:round;stroke-miterlimit:10;stroke-dasharray:none;stroke-opacity:1"
           id="path132" /></g></g><path
       d="m 198.08486,163.82976 v -2.01335"
       style="fill:#000000;fill-opacity:1;fill-rule:nonzero;stroke:#000000;stroke-width:0.460194;stroke-linecap:butt;stroke-linejoin:round;stroke-miterlimit:10;stroke-dasharray:none;stroke-opacity:1"
       id="path136" /><g
       id="g142"
       transform="matrix(0.57524284,0,0,0.57524284,8.9275328,141.96132)"><g
         id="g144"
         clip-path="url(#clipPath148)"><path
           d="M 374.03544,38.016 V 304.128"
           style="fill:none;stroke:#b0b0b0;stroke-width:0.8;stroke-linecap:square;stroke-linejoin:round;stroke-miterlimit:10;stroke-dasharray:none;stroke-opacity:1"
           id="path150" /></g></g><path
       d="m 224.08874,163.82976 v -2.01335"
       style="fill:#000000;fill-opacity:1;fill-rule:nonzero;stroke:#000000;stroke-width:0.460194;stroke-linecap:butt;stroke-linejoin:round;stroke-miterlimit:10;stroke-dasharray:none;stroke-opacity:1"
       id="path154" /><g
       id="g164"
       transform="matrix(0.57524284,0,0,0.57524284,8.9275328,141.96132)"><g
         id="g166"
         clip-path="url(#clipPath170)"><path
           d="M 57.6,38.016 H 414.72"
           style="fill:none;stroke:#b0b0b0;stroke-width:0.8;stroke-linecap:square;stroke-linejoin:round;stroke-miterlimit:10;stroke-dasharray:none;stroke-opacity:1"
           id="path172" /></g></g><path
       d="M 42.06152,163.82976 H 40.048171"
       style="fill:#000000;fill-opacity:1;fill-rule:nonzero;stroke:#000000;stroke-width:0.460194;stroke-linecap:butt;stroke-linejoin:round;stroke-miterlimit:10;stroke-dasharray:none;stroke-opacity:1"
       id="path176" /><g
       id="g182"
       transform="matrix(0.57524284,0,0,0.57524284,8.9275328,141.96132)"><g
         id="g184"
         clip-path="url(#clipPath188)"><path
           d="M 57.6,91.2384 H 414.72"
           style="fill:none;stroke:#b0b0b0;stroke-width:0.8;stroke-linecap:square;stroke-linejoin:round;stroke-miterlimit:10;stroke-dasharray:none;stroke-opacity:1"
           id="path190" /></g></g><path
       d="M 42.06152,194.44556 H 40.048171"
       style="fill:#000000;fill-opacity:1;fill-rule:nonzero;stroke:#000000;stroke-width:0.460194;stroke-linecap:butt;stroke-linejoin:round;stroke-miterlimit:10;stroke-dasharray:none;stroke-opacity:1"
       id="path194" /><g
       id="g200"
       transform="matrix(0.57524284,0,0,0.57524284,8.9275328,141.96132)"><g
         id="g202"
         clip-path="url(#clipPath206)"><path
           d="M 57.6,144.4608 H 414.72"
           style="fill:none;stroke:#b0b0b0;stroke-width:0.8;stroke-linecap:square;stroke-linejoin:round;stroke-miterlimit:10;stroke-dasharray:none;stroke-opacity:1"
           id="path208" /></g></g><path
       d="M 42.06152,225.06137 H 40.048171"
       style="fill:#000000;fill-opacity:1;fill-rule:nonzero;stroke:#000000;stroke-width:0.460194;stroke-linecap:butt;stroke-linejoin:round;stroke-miterlimit:10;stroke-dasharray:none;stroke-opacity:1"
       id="path212" /><g
       id="g218"
       transform="matrix(0.57524284,0,0,0.57524284,8.9275328,141.96132)"><g
         id="g220"
         clip-path="url(#clipPath224)"><path
           d="M 57.6,197.6832 H 414.72"
           style="fill:none;stroke:#b0b0b0;stroke-width:0.8;stroke-linecap:square;stroke-linejoin:round;stroke-miterlimit:10;stroke-dasharray:none;stroke-opacity:1"
           id="path226" /></g></g><path
       d="M 42.06152,255.67717 H 40.048171"
       style="fill:#000000;fill-opacity:1;fill-rule:nonzero;stroke:#000000;stroke-width:0.460194;stroke-linecap:butt;stroke-linejoin:round;stroke-miterlimit:10;stroke-dasharray:none;stroke-opacity:1"
       id="path230" /><g
       id="g236"
       transform="matrix(0.57524284,0,0,0.57524284,8.9275328,141.96132)"><g
         id="g238"
         clip-path="url(#clipPath242)"><path
           d="M 57.6,250.9056 H 414.72"
           style="fill:none;stroke:#b0b0b0;stroke-width:0.8;stroke-linecap:square;stroke-linejoin:round;stroke-miterlimit:10;stroke-dasharray:none;stroke-opacity:1"
           id="path244" /></g></g><path
       d="M 42.06152,286.29298 H 40.048171"
       style="fill:#000000;fill-opacity:1;fill-rule:nonzero;stroke:#000000;stroke-width:0.460194;stroke-linecap:butt;stroke-linejoin:round;stroke-miterlimit:10;stroke-dasharray:none;stroke-opacity:1"
       id="path248" /><g
       id="g254"
       transform="matrix(0.57524284,0,0,0.57524284,8.9275328,141.96132)"><g
         id="g256"
         clip-path="url(#clipPath260)"><path
           d="M 57.6,304.128 H 414.72"
           style="fill:none;stroke:#b0b0b0;stroke-width:0.8;stroke-linecap:square;stroke-linejoin:round;stroke-miterlimit:10;stroke-dasharray:none;stroke-opacity:1"
           id="path262" /></g></g><path
       d="M 42.06152,316.90878 H 40.048171"
       style="fill:#000000;fill-opacity:1;fill-rule:nonzero;stroke:#000000;stroke-width:0.460194;stroke-linecap:butt;stroke-linejoin:round;stroke-miterlimit:10;stroke-dasharray:none;stroke-opacity:1"
       id="path266" /><g
       id="g276"
       transform="matrix(0.57524284,0,0,0.57524284,8.9275328,141.96132)"><g
         id="g278"
         clip-path="url(#clipPath282)"><path
           d="m 57.6,269.98562 4.520506,-1.86304 4.520507,-7.43817 4.520506,-6.50225 4.520506,-3.96193 4.520507,-6.4622 4.520506,0.16058 4.520506,-6.50597 4.520507,-3.33359 4.520506,3.23566 4.520503,-8.14617 4.52051,0.0636 4.52051,-0.58634 4.5205,-2.24318 4.52051,-1.94856 4.52051,-3.45279 4.5205,-4.32124 4.52051,-4.88306 4.5205,-4.29368 4.52051,3.47984 4.52051,3.83743 4.5205,7.46205 4.52051,0.28149 4.52051,-0.98452 4.5205,-4.45319 4.52051,-7.24048 4.5205,-3.95157 4.52051,-3.16369 4.52051,5.48174 4.5205,3.81664 4.52051,0.49407 4.52051,-1.33229 4.5205,-2.98636 4.52051,-2.00001 4.5205,0.96023 4.52051,-3.40352 4.52051,-2.28778 4.5205,-3.54494 4.52051,-2.0549 4.52051,-2.05566 4.5205,-1.40447 4.52051,-6.73174 4.52051,-2.70511 4.5205,-9.0636 4.52051,-11.29465 4.5205,0.26767 4.52051,-1.84298 4.52051,-2.36957 4.5205,-4.53477 4.52051,3.81694 4.52051,2.11168 4.5205,-2.32832 4.52051,0.58345 4.5205,6.22545 4.52051,4.43514 4.52051,1.31375 4.5205,4.70653 4.52051,-4.18608 4.52051,-0.59182 4.5205,-0.47945 4.52051,-1.61511 4.52051,-0.20379 4.5205,-4.38744 4.52051,-0.26573 4.5205,2.27971 4.52051,-2.08866 4.52051,3.65676 4.5205,0.12648 4.52051,2.49428 4.52051,-8.80751 4.5205,3.60321 4.52051,0.47687 4.52051,2.02308 4.5205,2.43297 4.52051,-0.71949 4.5205,-11.33638 4.52051,-12.2967 4.52051,17.5691 4.5205,-1.43943 4.52051,5.44043"
           style="fill:none;stroke:#1f77b4;stroke-width:1.5;stroke-linecap:square;stroke-linejoin:round;stroke-miterlimit:10;stroke-dasharray:none;stroke-opacity:1"
           id="path284" /></g></g><g
       id="g286"
       transform="matrix(0.57524284,0,0,0.57524284,8.9275328,141.96132)"><g
         id="g288"
         clip-path="url(#clipPath292)"><path
           d="m 57.6,262.28137 4.520506,-0.97425 4.520507,-7.29809 4.520506,-5.69402 4.520506,-3.87262 4.520507,-6.52375 4.520506,-0.87766 4.520506,-6.9992 4.520507,-3.73495 4.520506,3.20494 4.520503,-8.77018 4.52051,0.20501 4.52051,-0.23437 4.5205,-2.9618 4.52051,-1.5405 4.52051,-3.53539 4.5205,-4.80096 4.52051,-4.62125 4.5205,-2.86599 4.52051,3.19962 4.52051,3.66245 4.5205,8.11859 4.52051,0.38861 4.52051,-1.18365 4.5205,-4.22518 4.52051,-8.32401 4.5205,-4.33019 4.52051,-4.62366 4.52051,4.73802 4.5205,3.01331 4.52051,0.43643 4.52051,-0.51144 4.5205,-4.19811 4.52051,-3.09485 4.5205,-0.378 4.52051,-1.74068 4.52051,-3.16637 4.5205,-3.26247 4.52051,-1.97354 4.52051,-2.7372 4.5205,-1.67016 4.52051,-6.30615 4.52051,-3.63655 4.5205,-7.90499 4.52051,-12.47787 4.5205,0.0343 4.52051,0.23436 4.52051,-2.61696 4.5205,-4.73182 4.52051,4.62606 4.52051,1.87984 4.5205,-2.65477 4.52051,-1.49893 4.5205,7.79401 4.52051,5.64871 4.52051,0.69448 4.5205,4.33354 4.52051,-5.71376 4.52051,-0.2904 4.5205,-0.34506 4.52051,-1.54887 4.52051,0.69562 4.5205,-3.46695 4.52051,0.75171 4.5205,3.55721 4.52051,-2.28516 4.52051,3.26367 4.5205,-1.58637 4.52051,4.95006 4.52051,-11.92575 4.5205,4.54965 4.52051,1.79716 4.52051,2.09019 4.5205,4.95216 4.52051,-3.39768 4.5205,-8.57403 4.52051,-9.07457 4.52051,13.66268 4.5205,-4.79028 4.52051,9.40153"
           style="fill:none;stroke:#ff7f0e;stroke-width:1.5;stroke-linecap:square;stroke-linejoin:round;stroke-miterlimit:10;stroke-dasharray:none;stroke-opacity:1"
           id="path294" /></g></g><g
       id="g296"
       transform="matrix(0.57524284,0,0,0.57524284,8.9275328,141.96132)"><g
         id="g298"
         clip-path="url(#clipPath302)"><path
           d="m 57.6,264.8211 4.520506,-0.4578 4.520507,-6.66711 4.520506,-5.80156 4.520506,-4.14877 4.520507,-6.91784 4.520506,-1.306 4.520506,-7.12088 4.520507,-3.62071 4.520506,3.36971 4.520503,-8.16415 4.52051,0.64348 4.52051,0.32445 4.5205,-2.7246 4.52051,-1.68758 4.52051,-3.56968 4.5205,-4.8879 4.52051,-4.61938 4.5205,-2.8605 4.52051,3.29034 4.52051,3.6284 4.5205,7.65426 4.52051,0.11244 4.52051,-1.60036 4.5205,-4.29683 4.52051,-8.15752 4.5205,-4.64734 4.52051,-4.23678 4.52051,4.80546 4.5205,3.10109 4.52051,0.27004 4.52051,-1.47023 4.5205,-4.22196 4.52051,-3.48498 4.5205,-0.51919 4.52051,-2.03485 4.52051,-3.15008 4.5205,-3.16202 4.52051,-2.53627 4.52051,-1.7684 4.5205,-1.8072 4.52051,-5.89023 4.52051,-3.76154 4.5205,-8.15143 4.52051,-13.27613 4.5205,0.7527 4.52051,0.0826 4.52051,-1.80735 4.5205,-5.4322 4.52051,4.27642 4.52051,2.12867 4.5205,-3.01442 4.52051,-1.52156 4.5205,7.23632 4.52051,5.25674 4.52051,1.16539 4.5205,4.71968 4.52051,-4.94104 4.52051,0.54741 4.5205,-0.91145 4.52051,-0.52401 4.52051,0.1054 4.5205,-3.23415 4.52051,1.58394 4.5205,3.33875 4.52051,-1.9213 4.52051,1.95976 4.5205,1.23101 4.52051,5.903 4.52051,-11.2601 4.5205,3.57614 4.52051,2.80495 4.52051,-0.61964 4.5205,5.34129 4.52051,-2.87995 4.5205,-11.15985 4.52051,-8.48465 4.52051,11.53308 4.5205,-10.9496 4.52051,11.1354"
           style="fill:none;stroke:#2ca02c;stroke-width:1.5;stroke-linecap:square;stroke-linejoin:round;stroke-miterlimit:10;stroke-dasharray:none;stroke-opacity:1"
           id="path304" /></g></g><g
       id="g306"
       transform="matrix(0.57524284,0,0,0.57524284,8.9275328,141.96132)"><g
         id="g308"
         clip-path="url(#clipPath312)"><path
           d="m 57.6,289.52811 4.520506,-7.85657 4.520507,-4.0548 4.520506,-1.5205 4.520506,-2.30581 4.520507,1.51292 4.520506,-0.84006 4.520506,-0.10603 4.520507,0.29726 4.520506,-0.78635 4.520503,3.65284 4.52051,-3.6578 4.52051,2.09877 4.5205,-1.6845 4.52051,-2.05975 4.52051,2.02469 4.5205,-2.42123 4.52051,3.53536 4.5205,-0.85392 4.52051,-1.71809 4.52051,-4.07563 4.5205,-1.25412 4.52051,-2.77949 4.52051,-1.07118 4.5205,2.47714 4.52051,-0.26893 4.5205,2.06152 4.52051,-2.03076 4.52051,0.0714 4.5205,1.9907 4.52051,-0.86517 4.52051,-3.52438 4.5205,3.14442 4.52051,-0.20498 4.5205,-1.95934 4.52051,1.37985 4.52051,-3.7036 4.5205,0.23173 4.52051,4.05851 4.52051,-4.97683 4.5205,4.02666 4.52051,-2.82253 4.52051,3.36616 4.5205,3.82659 4.52051,3.52523 4.5205,-6.75792 4.52051,2.99343 4.52051,-1.31198 4.5205,2.11649 4.52051,-1.73647 4.52051,-5.96248 4.5205,4.23394 4.52051,-2.65902 4.5205,1.89137 4.52051,0.59451 4.52051,-1.46475 4.5205,-3.50616 4.52051,0.88441 4.52051,-2.98807 4.5205,-4.94475 4.52051,-1.94589 4.52051,0.9794 4.5205,0.63821 4.52051,-3.41472 4.5205,2.79991 4.52051,-6.277 4.52051,-0.32345 4.5205,3.01535 4.52051,-4.73022 4.52051,-2.64064 4.5205,2.20802 4.52051,2.6559 4.52051,1.18466 4.5205,-0.34297 4.52051,-3.98275 4.5205,12.38331 4.52051,7.11479 4.52051,-14.28808 4.5205,-7.5379 4.52051,-6.67908"
           style="fill:none;stroke:#d62728;stroke-width:1.5;stroke-linecap:square;stroke-linejoin:round;stroke-miterlimit:10;stroke-dasharray:none;stroke-opacity:1"
           id="path314" /></g></g><path
       d="M 42.06152,163.82976 V 316.90878"
       style="fill:none;stroke:#000000;stroke-width:0.460194;stroke-linecap:square;stroke-linejoin:miter;stroke-miterlimit:10;stroke-dasharray:none;stroke-opacity:1"
       id="path318" /><path
       d="M 247.49224,163.82976 V 316.90878"
       style="fill:none;stroke:#000000;stroke-width:0.460194;stroke-linecap:square;stroke-linejoin:miter;stroke-miterlimit:10;stroke-dasharray:none;stroke-opacity:1"
       id="path320" /><path
       d="M 42.06152,163.82976 H 247.49224"
       style="fill:none;stroke:#000000;stroke-width:0.460194;stroke-linecap:square;stroke-linejoin:miter;stroke-miterlimit:10;stroke-dasharray:none;stroke-opacity:1"
       id="path322" /><path
       d="M 42.06152,316.90878 H 247.49224"
       style="fill:none;stroke:#000000;stroke-width:0.460194;stroke-linecap:square;stroke-linejoin:miter;stroke-miterlimit:10;stroke-dasharray:none;stroke-opacity:1"
       id="path324" /><path
       d="m 53.870575,198.08922 h 11.50486"
       style="fill:none;stroke:#1f77b4;stroke-width:0.862865;stroke-linecap:square;stroke-linejoin:round;stroke-miterlimit:10;stroke-dasharray:none;stroke-opacity:1"
       id="path334" /><path
       d="m 53.870575,189.64933 h 11.50486"
       style="fill:none;stroke:#ff7f0e;stroke-width:0.862865;stroke-linecap:square;stroke-linejoin:round;stroke-miterlimit:10;stroke-dasharray:none;stroke-opacity:1"
       id="path340" /><path
       d="m 53.870575,181.20944 h 11.50486"
       style="fill:none;stroke:#2ca02c;stroke-width:0.862865;stroke-linecap:square;stroke-linejoin:round;stroke-miterlimit:10;stroke-dasharray:none;stroke-opacity:1"
       id="path346" /><path
       d="m 53.870575,172.76955 h 11.50486"
       style="fill:none;stroke:#d62728;stroke-width:0.862865;stroke-linecap:square;stroke-linejoin:round;stroke-miterlimit:10;stroke-dasharray:none;stroke-opacity:1"
       id="path352" /></g><g
     inkscape:groupmode="layer"
     id="layer1"
     inkscape:label="text"
     transform="translate(-28.023958,-17.206424)"><text
       style="font-variant:normal;font-weight:normal;font-size:7.66991px;font-family:'DejaVu Sans';-inkscape-font-specification:DejaVuSans;writing-mode:lr-tb;fill:#000000;fill-opacity:1;fill-rule:nonzero;stroke:none;stroke-width:0.766991"
       id="text32"
       x="53.543266"
       y="253.55359"><tspan
         x="53.543266 58.421326 60.860355 65.738419"
         y="253.55359"
         sodipodi:role="line"
         id="tspan30"
         style="stroke-width:0.766991">0.00</tspan></text><text
       style="font-variant:normal;font-weight:normal;font-size:7.66991px;font-family:'DejaVu Sans';-inkscape-font-specification:DejaVuSans;writing-mode:lr-tb;fill:#000000;fill-opacity:1;fill-rule:nonzero;stroke:none;stroke-width:0.766991"
       id="text50"
       x="82.215118"
       y="253.55359"><tspan
         x="82.215118 87.093178 89.532211 94.410271"
         y="253.55359"
         sodipodi:role="line"
         id="tspan48"
         style="stroke-width:0.766991">0.25</tspan></text><text
       style="font-variant:normal;font-weight:normal;font-size:7.66991px;font-family:'DejaVu Sans';-inkscape-font-specification:DejaVuSans;writing-mode:lr-tb;fill:#000000;fill-opacity:1;fill-rule:nonzero;stroke:none;stroke-width:0.766991"
       id="text68"
       x="116.88696"
       y="253.55359"><tspan
         x="116.88696 121.76502 124.20406 129.08211"
         y="253.55359"
         sodipodi:role="line"
         id="tspan66"
         style="stroke-width:0.766991">0.50</tspan></text><text
       style="font-variant:normal;font-weight:normal;font-size:7.66991px;font-family:'DejaVu Sans';-inkscape-font-specification:DejaVuSans;writing-mode:lr-tb;fill:#000000;fill-opacity:1;fill-rule:nonzero;stroke:none;stroke-width:0.766991"
       id="text86"
       x="151.55882"
       y="253.55359"><tspan
         x="151.55882 156.43687 158.8759 163.75397"
         y="253.55359"
         sodipodi:role="line"
         id="tspan84"
         style="stroke-width:0.766991">0.75</tspan></text><text
       style="font-variant:normal;font-weight:normal;font-size:7.66991px;font-family:'DejaVu Sans';-inkscape-font-specification:DejaVuSans;writing-mode:lr-tb;fill:#000000;fill-opacity:1;fill-rule:nonzero;stroke:none;stroke-width:0.766991"
       id="text104"
       x="186.23068"
       y="253.55359"><tspan
         x="186.23068 191.10873 193.54776 198.42583"
         y="253.55359"
         sodipodi:role="line"
         id="tspan102"
         style="stroke-width:0.766991">1.00</tspan></text><text
       style="font-variant:normal;font-weight:normal;font-size:7.66991px;font-family:'DejaVu Sans';-inkscape-font-specification:DejaVuSans;writing-mode:lr-tb;fill:#000000;fill-opacity:1;fill-rule:nonzero;stroke:none;stroke-width:0.766991"
       id="text122"
       x="220.90251"
       y="253.55359"><tspan
         x="220.90251 225.78059 228.2196 233.09766"
         y="253.55359"
         sodipodi:role="line"
         id="tspan120"
         style="stroke-width:0.766991">1.25</tspan></text><text
       style="font-variant:normal;font-weight:normal;font-size:7.66991px;font-family:'DejaVu Sans';-inkscape-font-specification:DejaVuSans;writing-mode:lr-tb;fill:#000000;fill-opacity:1;fill-rule:nonzero;stroke:none;stroke-width:0.766991"
       id="text140"
       x="255.57439"
       y="253.55359"><tspan
         x="255.57439 260.45242 262.89145 267.76953"
         y="253.55359"
         sodipodi:role="line"
         id="tspan138"
         style="stroke-width:0.766991">1.50</tspan></text><text
       style="font-variant:normal;font-weight:normal;font-size:7.66991px;font-family:'DejaVu Sans';-inkscape-font-specification:DejaVuSans;writing-mode:lr-tb;fill:#000000;fill-opacity:1;fill-rule:nonzero;stroke:none;stroke-width:0.766991"
       id="text158"
       x="290.24622"
       y="253.55359"><tspan
         x="290.24622 295.1243 297.56329 302.44141"
         y="253.55359"
         sodipodi:role="line"
         id="tspan156"
         style="stroke-width:0.766991">1.75</tspan></text><text
       style="font-variant:normal;font-weight:normal;font-size:7.66991px;font-family:'DejaVu Sans';-inkscape-font-specification:DejaVuSans;writing-mode:lr-tb;fill:#000000;fill-opacity:1;fill-rule:nonzero;stroke:none;stroke-width:0.766991"
       id="text162"
       x="146.61493"
       y="264.0397"><tspan
         x="146.61493 152.55913 157.27611 162.13882 166.83281 174.30328 176.43552 180.65396 183.09302 187.96339 190.09563 194.09164 197.09825 201.79991 206.66261 210.88107 215.59807 218.03709 220.62184 223.06087 229.67999 234.55038"
         y="264.0397"
         sodipodi:role="line"
         id="tspan160"
         style="stroke-width:0.766991">Genomic distance / Mbp</tspan></text><text
       style="font-variant:normal;font-weight:normal;font-size:7.66991px;font-family:'DejaVu Sans';-inkscape-font-specification:DejaVuSans;writing-mode:lr-tb;fill:#000000;fill-opacity:1;fill-rule:nonzero;stroke:none;stroke-width:0.766991"
       id="text180"
       x="38.513153"
       y="245.27251"><tspan
         x="38.513153 43.391212 45.830242"
         y="245.27251"
         sodipodi:role="line"
         id="tspan178"
         style="stroke-width:0.766991">0.0</tspan></text><text
       style="font-variant:normal;font-weight:normal;font-size:7.66991px;font-family:'DejaVu Sans';-inkscape-font-specification:DejaVuSans;writing-mode:lr-tb;fill:#000000;fill-opacity:1;fill-rule:nonzero;stroke:none;stroke-width:0.766991"
       id="text198"
       x="38.513153"
       y="204.45142"><tspan
         x="38.513153 43.391212 45.830242"
         y="204.45142"
         sodipodi:role="line"
         id="tspan196"
         style="stroke-width:0.766991">0.2</tspan></text><text
       style="font-variant:normal;font-weight:normal;font-size:7.66991px;font-family:'DejaVu Sans';-inkscape-font-specification:DejaVuSans;writing-mode:lr-tb;fill:#000000;fill-opacity:1;fill-rule:nonzero;stroke:none;stroke-width:0.766991"
       id="text216"
       x="38.513153"
       y="163.63036"><tspan
         x="38.513153 43.391212 45.830242"
         y="163.63036"
         sodipodi:role="line"
         id="tspan214"
         style="stroke-width:0.766991">0.4</tspan></text><text
       style="font-variant:normal;font-weight:normal;font-size:7.66991px;font-family:'DejaVu Sans';-inkscape-font-specification:DejaVuSans;writing-mode:lr-tb;fill:#000000;fill-opacity:1;fill-rule:nonzero;stroke:none;stroke-width:0.766991"
       id="text234"
       x="38.513153"
       y="122.80926"><tspan
         x="38.513153 43.391212 45.830242"
         y="122.80926"
         sodipodi:role="line"
         id="tspan232"
         style="stroke-width:0.766991">0.6</tspan></text><text
       style="font-variant:normal;font-weight:normal;font-size:7.66991px;font-family:'DejaVu Sans';-inkscape-font-specification:DejaVuSans;writing-mode:lr-tb;fill:#000000;fill-opacity:1;fill-rule:nonzero;stroke:none;stroke-width:0.766991"
       id="text252"
       x="38.513153"
       y="81.988197"><tspan
         x="38.513153 43.391212 45.830242"
         y="81.988197"
         sodipodi:role="line"
         id="tspan250"
         style="stroke-width:0.766991">0.8</tspan></text><text
       style="font-variant:normal;font-weight:normal;font-size:7.66991px;font-family:'DejaVu Sans';-inkscape-font-specification:DejaVuSans;writing-mode:lr-tb;fill:#000000;fill-opacity:1;fill-rule:nonzero;stroke:none;stroke-width:0.766991"
       id="text270"
       x="38.513153"
       y="41.167152"><tspan
         x="38.513153 43.391212 45.830242"
         y="41.167152"
         sodipodi:role="line"
         id="tspan268"
         style="stroke-width:0.766991">1.0</tspan></text><text
       transform="rotate(-90)"
       style="font-variant:normal;font-weight:normal;font-size:7.66991px;font-family:'DejaVu Sans';-inkscape-font-specification:DejaVuSans;writing-mode:lr-tb;fill:#000000;fill-opacity:1;fill-rule:nonzero;stroke:none;stroke-width:0.766991"
       id="text274"
       x="-177.36287"
       y="33.851288"><tspan
         x="-177.36287 -172.73793 -168.02094 -163.31927 -160.16696 -156.17093 -151.47694 -146.61423 -144.1752 -139.95676 -135.26277 -132.11044 -128.9581 -124.24111 -122.10889 -117.40724 -114.40063 -112.2684 -107.57442"
         y="33.851288"
         sodipodi:role="line"
         id="tspan272"
         style="stroke-width:0.766991">Pearson correlation</tspan></text><text
       style="font-variant:normal;font-weight:normal;font-size:9.20389px;font-family:'DejaVu Sans';-inkscape-font-specification:DejaVuSans;writing-mode:lr-tb;fill:#000000;fill-opacity:1;fill-rule:nonzero;stroke:none;stroke-width:0.766991"
       id="text328"
       x="98.318504"
       y="23.337"><tspan
         x="98.318504 103.86845 109.52884 115.17083 118.95361 123.74885 129.38162 135.21689 138.14372 143.20586 148.83864 152.62144 156.40424 162.06462 164.62331 170.26529 173.87321 176.43188 182.06467 187.89992 190.82677 196.27547 201.07069 203.99753 206.92436 212.76883 218.42923 224.26447 229.89726 238.86183 241.42052 246.48267 249.4095 255.25398 257.81265 262.60785 266.21579 271.85776 277.69302 282.75516"
         y="23.337"
         sodipodi:role="line"
         id="tspan326"
         style="stroke-width:0.766991">Pearson correlation vs. genomic distance</tspan></text><text
       style="font-variant:normal;font-weight:normal;font-size:9.20389px;font-family:'DejaVu Sans';-inkscape-font-specification:DejaVuSans;writing-mode:lr-tb;fill:#000000;fill-opacity:1;fill-rule:nonzero;stroke:none;stroke-width:0.766991"
       id="text332"
       x="61.056248"
       y="33.653046"><tspan
         x="61.056248 68.189262 76.132217 81.985878 87.839554 93.693214 99.54689 105.40056 108.32741 111.25423 117.1079 120.03475 125.8884 128.81526 134.66891 137.59576 143.44943 146.37627 152.22993 155.15678 161.01045 166.86411 169.79095 175.64461 181.49829 184.42514 190.27879 196.13246 199.0593 204.91296 210.76665 213.6935 219.54715 225.40083 228.32765 234.18135 240.035 242.96185 248.81551 254.66919 257.59601 263.44971 269.30338 272.23019 277.86298 283.69824 286.62509 292.66284 298.51651 304.37018 310.22385 313.15067 316.07751 321.93118"
         y="33.653046"
         sodipodi:role="line"
         id="tspan330"
         style="stroke-width:0.766991">GM12878, 1,2,4,7,9,11,13,14,16,17,18,20,22 on K562, 21</tspan></text><text
       style="font-variant:normal;font-weight:normal;font-size:7.66991px;font-family:'DejaVu Sans';-inkscape-font-specification:DejaVuSans;writing-mode:lr-tb;fill:#000000;fill-opacity:1;fill-rule:nonzero;stroke:none;stroke-width:0.766991"
       id="text338"
       x="93.303185"
       y="199.36552"><tspan
         x="93.303185 98.181236 103.0593 107.93734 112.65434 117.52472 119.96375 122.54853 124.98754 130.23375 135.84813 141.20172 143.78647 146.22552 151.10356 153.54259 158.42064 163.29872"
         y="199.36552"
         sodipodi:role="line"
         id="tspan336"
         style="stroke-width:0.766991">500ep / AUC: 0.585</tspan></text><text
       style="font-variant:normal;font-weight:normal;font-size:7.66991px;font-family:'DejaVu Sans';-inkscape-font-specification:DejaVuSans;writing-mode:lr-tb;fill:#000000;fill-opacity:1;fill-rule:nonzero;stroke:none;stroke-width:0.766991"
       id="text344"
       x="93.303185"
       y="210.61871"><tspan
         x="93.303185 98.181236 103.0593 107.93734 112.81542 117.5324 122.40279 124.84182 127.42658 129.86559 135.1118 140.72617 146.07977 148.66454 151.10356 155.98164 158.42064 163.29872 168.17677"
         y="210.61871"
         sodipodi:role="line"
         id="tspan342"
         style="stroke-width:0.766991">1000ep / AUC: 0.546</tspan></text><text
       style="font-variant:normal;font-weight:normal;font-size:7.66991px;font-family:'DejaVu Sans';-inkscape-font-specification:DejaVuSans;writing-mode:lr-tb;fill:#000000;fill-opacity:1;fill-rule:nonzero;stroke:none;stroke-width:0.766991"
       id="text350"
       x="93.303185"
       y="221.87187"><tspan
         x="93.303185 98.181236 103.0593 107.93734 112.81542 117.5324 122.40279 124.84182 127.42658 129.86559 135.1118 140.72617 146.07977 148.66454 151.10356 155.98164 158.42064 163.29872 168.17677"
         y="221.87187"
         sodipodi:role="line"
         id="tspan348"
         style="stroke-width:0.766991">1500ep / AUC: 0.556</tspan></text><text
       style="font-variant:normal;font-weight:normal;font-size:7.66991px;font-family:'DejaVu Sans';-inkscape-font-specification:DejaVuSans;writing-mode:lr-tb;fill:#000000;fill-opacity:1;fill-rule:nonzero;stroke:none;stroke-width:0.766991"
       id="text356"
       x="93.303185"
       y="233.12506"><tspan
         x="93.303185 96.309776 99.462105 104.16376 109.02648 113.0225 115.72231 120.43931 123.59162 126.03065 131.97482 138.59395 143.47202 148.35005 153.22813 158.10619 162.98427 165.42326 168.00804 170.44707 175.69328 181.30766 186.66124 189.24599 191.68501 196.5631 199.00212 203.88017 208.75822"
         y="233.12506"
         sodipodi:role="line"
         id="tspan354"
         style="stroke-width:0.766991">transfer GM12878 / AUC: 0.849</tspan></text></g></svg>
