<?xml version="1.0" encoding="UTF-8" standalone="no"?>
<svg
   xmlns:dc="http://purl.org/dc/elements/1.1/"
   xmlns:cc="http://creativecommons.org/ns#"
   xmlns:rdf="http://www.w3.org/1999/02/22-rdf-syntax-ns#"
   xmlns:svg="http://www.w3.org/2000/svg"
   xmlns="http://www.w3.org/2000/svg"
   xmlns:sodipodi="http://sodipodi.sourceforge.net/DTD/sodipodi-0.dtd"
   xmlns:inkscape="http://www.inkscape.org/namespaces/inkscape"
   version="1.1"
   id="svg2"
   xml:space="preserve"
   width="80mm"
   height="65.300003mm"
   viewBox="0 0 302.36219 246.80316"
   sodipodi:docname="pearson_chr05.svg"
   inkscape:version="1.0.2 (1.0.2+r75+1)"><metadata
     id="metadata8"><rdf:RDF><cc:Work
         rdf:about=""><dc:format>image/svg+xml</dc:format><dc:type
           rdf:resource="http://purl.org/dc/dcmitype/StillImage" /><dc:title /></cc:Work></rdf:RDF></metadata><defs
     id="defs6"><clipPath
       clipPathUnits="userSpaceOnUse"
       id="clipPath22"><path
         d="M 57.6,38.016 H 414.72 V 304.128 H 57.6 Z"
         id="path20" /></clipPath><clipPath
       clipPathUnits="userSpaceOnUse"
       id="clipPath40"><path
         d="M 57.6,38.016 H 414.72 V 304.128 H 57.6 Z"
         id="path38" /></clipPath><clipPath
       clipPathUnits="userSpaceOnUse"
       id="clipPath58"><path
         d="M 57.6,38.016 H 414.72 V 304.128 H 57.6 Z"
         id="path56" /></clipPath><clipPath
       clipPathUnits="userSpaceOnUse"
       id="clipPath76"><path
         d="M 57.6,38.016 H 414.72 V 304.128 H 57.6 Z"
         id="path74" /></clipPath><clipPath
       clipPathUnits="userSpaceOnUse"
       id="clipPath94"><path
         d="M 57.6,38.016 H 414.72 V 304.128 H 57.6 Z"
         id="path92" /></clipPath><clipPath
       clipPathUnits="userSpaceOnUse"
       id="clipPath112"><path
         d="M 57.6,38.016 H 414.72 V 304.128 H 57.6 Z"
         id="path110" /></clipPath><clipPath
       clipPathUnits="userSpaceOnUse"
       id="clipPath130"><path
         d="M 57.6,38.016 H 414.72 V 304.128 H 57.6 Z"
         id="path128" /></clipPath><clipPath
       clipPathUnits="userSpaceOnUse"
       id="clipPath148"><path
         d="M 57.6,38.016 H 414.72 V 304.128 H 57.6 Z"
         id="path146" /></clipPath><clipPath
       clipPathUnits="userSpaceOnUse"
       id="clipPath170"><path
         d="M 57.6,38.016 H 414.72 V 304.128 H 57.6 Z"
         id="path168" /></clipPath><clipPath
       clipPathUnits="userSpaceOnUse"
       id="clipPath188"><path
         d="M 57.6,38.016 H 414.72 V 304.128 H 57.6 Z"
         id="path186" /></clipPath><clipPath
       clipPathUnits="userSpaceOnUse"
       id="clipPath206"><path
         d="M 57.6,38.016 H 414.72 V 304.128 H 57.6 Z"
         id="path204" /></clipPath><clipPath
       clipPathUnits="userSpaceOnUse"
       id="clipPath224"><path
         d="M 57.6,38.016 H 414.72 V 304.128 H 57.6 Z"
         id="path222" /></clipPath><clipPath
       clipPathUnits="userSpaceOnUse"
       id="clipPath242"><path
         d="M 57.6,38.016 H 414.72 V 304.128 H 57.6 Z"
         id="path240" /></clipPath><clipPath
       clipPathUnits="userSpaceOnUse"
       id="clipPath260"><path
         d="M 57.6,38.016 H 414.72 V 304.128 H 57.6 Z"
         id="path258" /></clipPath><clipPath
       clipPathUnits="userSpaceOnUse"
       id="clipPath282"><path
         d="M 57.6,38.016 H 414.72 V 304.128 H 57.6 Z"
         id="path280" /></clipPath><clipPath
       clipPathUnits="userSpaceOnUse"
       id="clipPath292"><path
         d="M 57.6,38.016 H 414.72 V 304.128 H 57.6 Z"
         id="path290" /></clipPath><clipPath
       clipPathUnits="userSpaceOnUse"
       id="clipPath302"><path
         d="M 57.6,38.016 H 414.72 V 304.128 H 57.6 Z"
         id="path300" /></clipPath><clipPath
       clipPathUnits="userSpaceOnUse"
       id="clipPath312"><path
         d="M 57.6,38.016 H 414.72 V 304.128 H 57.6 Z"
         id="path310" /></clipPath><clipPath
       clipPathUnits="userSpaceOnUse"
       id="clipPath322"><path
         d="M 57.6,38.016 H 414.72 V 304.128 H 57.6 Z"
         id="path320" /></clipPath></defs><sodipodi:namedview
     pagecolor="#ffffff"
     bordercolor="#666666"
     borderopacity="1"
     objecttolerance="10"
     gridtolerance="10"
     guidetolerance="10"
     inkscape:pageopacity="0"
     inkscape:pageshadow="2"
     inkscape:window-width="1920"
     inkscape:window-height="1020"
     id="namedview4"
     showgrid="false"
     fit-margin-top="0"
     fit-margin-left="0"
     fit-margin-right="0"
     fit-margin-bottom="0"
     units="mm"
     inkscape:zoom="5.2603345"
     inkscape:cx="99.940084"
     inkscape:cy="184.61525"
     inkscape:window-x="0"
     inkscape:window-y="0"
     inkscape:window-maximized="1"
     inkscape:current-layer="layer1"
     inkscape:document-rotation="0" /><g
     id="g10"
     inkscape:groupmode="layer"
     inkscape:label="pearson_chr05"
     transform="matrix(1.3333333,0,0,-1.3333333,-28.023958,443.59358)"><path
       d="m 42.062222,299.69158 2.600476,-4.90492 2.600475,-2.6003 2.600476,-0.34572 2.600475,-0.58572 2.600475,0.20313 2.600477,0.1426 2.600475,-0.0191 2.600476,0.32172 2.600475,-0.86583 2.600473,-0.80975 2.600479,-0.0152 2.600477,-1.0001 2.600472,-0.61312 2.600478,-0.0535 2.600477,-1.47851 2.600472,-0.38324 2.600478,-0.12822 2.600472,-1.40879 2.600478,-0.77305 2.600477,-0.57348 2.600472,-0.99614 2.600478,0.16021 2.600475,-0.76645 2.60047,-2.36789 2.60048,0.93911 2.60047,0.28197 2.60048,0.32488 2.60048,-0.0854 2.60047,-1.74365 2.60048,0.56252 2.60048,-2.08284 2.60047,-0.37526 2.60048,-0.002 2.60047,-1.89423 2.60047,0.25437 2.60048,-0.94006 2.60047,0.27864 2.60048,-1.55046 2.60048,1.35217 2.60047,-1.33295 2.60048,-1.78452 2.60048,-0.17886 2.60047,-0.41179 2.60048,2.74668 2.60047,-1.69067 2.60048,0.68144 2.60048,-1.19115 2.60046,-1.39946 2.60048,1.84087 2.60048,-3.80676 2.60047,1.08331 2.60048,-3.43855 2.60047,-0.63262 2.60048,-1.44868 2.60048,-1.42333 2.60047,-0.77235 2.60048,1.24013 2.60048,-3.87571 2.60047,1.48775 2.60047,-3.20166 2.60048,3.28092 2.60047,-0.967 2.60048,1.7228 2.60047,-0.96961 2.60048,-0.26174 2.60048,0.36485 2.60047,-0.46586 2.60048,1.26382 2.60048,-1.54012 2.60047,-0.82939 2.60048,-0.0178 2.60047,-3.66493 2.60047,1.10012 2.60048,0.38262 2.60047,-2.77739 2.60048,-2.76289 2.60048,4.42933 2.60047,-3.28899 2.60048,-1.17099"
       style="fill:none;stroke:#d62728;stroke-width:0.862893;stroke-linecap:square;stroke-linejoin:round;stroke-miterlimit:10;stroke-dasharray:none;stroke-opacity:1"
       id="path324" /><g
       id="g16"
       transform="matrix(0.57526201,0,0,0.57526201,8.9271299,141.96361)"><g
         id="g18"
         clip-path="url(#clipPath22)"><path
           d="M 57.6,38.016 V 304.128"
           style="fill:none;stroke:#b0b0b0;stroke-width:0.8;stroke-linecap:square;stroke-linejoin:round;stroke-miterlimit:10;stroke-dasharray:none;stroke-opacity:1"
           id="path24" /></g></g><path
       d="m 42.062222,163.83278 v -2.01342"
       style="fill:#000000;fill-opacity:1;fill-rule:nonzero;stroke:#000000;stroke-width:0.46021;stroke-linecap:butt;stroke-linejoin:round;stroke-miterlimit:10;stroke-dasharray:none;stroke-opacity:1"
       id="path28" /><g
       id="g34"
       transform="matrix(0.57526201,0,0,0.57526201,8.9271299,141.96361)"><g
         id="g36"
         clip-path="url(#clipPath40)"><path
           d="M 102.80506,38.016 V 304.128"
           style="fill:none;stroke:#b0b0b0;stroke-width:0.8;stroke-linecap:square;stroke-linejoin:round;stroke-miterlimit:10;stroke-dasharray:none;stroke-opacity:1"
           id="path42" /></g></g><path
       d="m 68.066975,163.83278 v -2.01342"
       style="fill:#000000;fill-opacity:1;fill-rule:nonzero;stroke:#000000;stroke-width:0.46021;stroke-linecap:butt;stroke-linejoin:round;stroke-miterlimit:10;stroke-dasharray:none;stroke-opacity:1"
       id="path46" /><g
       id="g52"
       transform="matrix(0.57526201,0,0,0.57526201,8.9271299,141.96361)"><g
         id="g54"
         clip-path="url(#clipPath58)"><path
           d="M 148.01013,38.016 V 304.128"
           style="fill:none;stroke:#b0b0b0;stroke-width:0.8;stroke-linecap:square;stroke-linejoin:round;stroke-miterlimit:10;stroke-dasharray:none;stroke-opacity:1"
           id="path60" /></g></g><path
       d="m 94.071735,163.83278 v -2.01342"
       style="fill:#000000;fill-opacity:1;fill-rule:nonzero;stroke:#000000;stroke-width:0.46021;stroke-linecap:butt;stroke-linejoin:round;stroke-miterlimit:10;stroke-dasharray:none;stroke-opacity:1"
       id="path64" /><g
       id="g70"
       transform="matrix(0.57526201,0,0,0.57526201,8.9271299,141.96361)"><g
         id="g72"
         clip-path="url(#clipPath76)"><path
           d="M 193.21519,38.016 V 304.128"
           style="fill:none;stroke:#b0b0b0;stroke-width:0.8;stroke-linecap:square;stroke-linejoin:round;stroke-miterlimit:10;stroke-dasharray:none;stroke-opacity:1"
           id="path78" /></g></g><path
       d="m 120.07649,163.83278 v -2.01342"
       style="fill:#000000;fill-opacity:1;fill-rule:nonzero;stroke:#000000;stroke-width:0.46021;stroke-linecap:butt;stroke-linejoin:round;stroke-miterlimit:10;stroke-dasharray:none;stroke-opacity:1"
       id="path82" /><g
       id="g88"
       transform="matrix(0.57526201,0,0,0.57526201,8.9271299,141.96361)"><g
         id="g90"
         clip-path="url(#clipPath94)"><path
           d="M 238.42025,38.016 V 304.128"
           style="fill:none;stroke:#b0b0b0;stroke-width:0.8;stroke-linecap:square;stroke-linejoin:round;stroke-miterlimit:10;stroke-dasharray:none;stroke-opacity:1"
           id="path96" /></g></g><path
       d="m 146.08124,163.83278 v -2.01342"
       style="fill:#000000;fill-opacity:1;fill-rule:nonzero;stroke:#000000;stroke-width:0.46021;stroke-linecap:butt;stroke-linejoin:round;stroke-miterlimit:10;stroke-dasharray:none;stroke-opacity:1"
       id="path100" /><g
       id="g106"
       transform="matrix(0.57526201,0,0,0.57526201,8.9271299,141.96361)"><g
         id="g108"
         clip-path="url(#clipPath112)"><path
           d="M 283.62532,38.016 V 304.128"
           style="fill:none;stroke:#b0b0b0;stroke-width:0.8;stroke-linecap:square;stroke-linejoin:round;stroke-miterlimit:10;stroke-dasharray:none;stroke-opacity:1"
           id="path114" /></g></g><path
       d="m 172.086,163.83278 v -2.01342"
       style="fill:#000000;fill-opacity:1;fill-rule:nonzero;stroke:#000000;stroke-width:0.46021;stroke-linecap:butt;stroke-linejoin:round;stroke-miterlimit:10;stroke-dasharray:none;stroke-opacity:1"
       id="path118" /><g
       id="g124"
       transform="matrix(0.57526201,0,0,0.57526201,8.9271299,141.96361)"><g
         id="g126"
         clip-path="url(#clipPath130)"><path
           d="M 328.83038,38.016 V 304.128"
           style="fill:none;stroke:#b0b0b0;stroke-width:0.8;stroke-linecap:square;stroke-linejoin:round;stroke-miterlimit:10;stroke-dasharray:none;stroke-opacity:1"
           id="path132" /></g></g><path
       d="m 198.09075,163.83278 v -2.01342"
       style="fill:#000000;fill-opacity:1;fill-rule:nonzero;stroke:#000000;stroke-width:0.46021;stroke-linecap:butt;stroke-linejoin:round;stroke-miterlimit:10;stroke-dasharray:none;stroke-opacity:1"
       id="path136" /><g
       id="g142"
       transform="matrix(0.57526201,0,0,0.57526201,8.9271299,141.96361)"><g
         id="g144"
         clip-path="url(#clipPath148)"><path
           d="M 374.03544,38.016 V 304.128"
           style="fill:none;stroke:#b0b0b0;stroke-width:0.8;stroke-linecap:square;stroke-linejoin:round;stroke-miterlimit:10;stroke-dasharray:none;stroke-opacity:1"
           id="path150" /></g></g><path
       d="m 224.09551,163.83278 v -2.01342"
       style="fill:#000000;fill-opacity:1;fill-rule:nonzero;stroke:#000000;stroke-width:0.46021;stroke-linecap:butt;stroke-linejoin:round;stroke-miterlimit:10;stroke-dasharray:none;stroke-opacity:1"
       id="path154" /><g
       id="g164"
       transform="matrix(0.57526201,0,0,0.57526201,8.9271299,141.96361)"><g
         id="g166"
         clip-path="url(#clipPath170)"><path
           d="M 57.6,38.016 H 414.72"
           style="fill:none;stroke:#b0b0b0;stroke-width:0.8;stroke-linecap:square;stroke-linejoin:round;stroke-miterlimit:10;stroke-dasharray:none;stroke-opacity:1"
           id="path172" /></g></g><path
       d="M 42.062222,163.83278 H 40.048805"
       style="fill:#000000;fill-opacity:1;fill-rule:nonzero;stroke:#000000;stroke-width:0.46021;stroke-linecap:butt;stroke-linejoin:round;stroke-miterlimit:10;stroke-dasharray:none;stroke-opacity:1"
       id="path176" /><g
       id="g182"
       transform="matrix(0.57526201,0,0,0.57526201,8.9271299,141.96361)"><g
         id="g184"
         clip-path="url(#clipPath188)"><path
           d="M 57.6,91.2384 H 414.72"
           style="fill:none;stroke:#b0b0b0;stroke-width:0.8;stroke-linecap:square;stroke-linejoin:round;stroke-miterlimit:10;stroke-dasharray:none;stroke-opacity:1"
           id="path190" /></g></g><path
       d="M 42.062222,194.4496 H 40.048805"
       style="fill:#000000;fill-opacity:1;fill-rule:nonzero;stroke:#000000;stroke-width:0.46021;stroke-linecap:butt;stroke-linejoin:round;stroke-miterlimit:10;stroke-dasharray:none;stroke-opacity:1"
       id="path194" /><g
       id="g200"
       transform="matrix(0.57526201,0,0,0.57526201,8.9271299,141.96361)"><g
         id="g202"
         clip-path="url(#clipPath206)"><path
           d="M 57.6,144.4608 H 414.72"
           style="fill:none;stroke:#b0b0b0;stroke-width:0.8;stroke-linecap:square;stroke-linejoin:round;stroke-miterlimit:10;stroke-dasharray:none;stroke-opacity:1"
           id="path208" /></g></g><path
       d="M 42.062222,225.06643 H 40.048805"
       style="fill:#000000;fill-opacity:1;fill-rule:nonzero;stroke:#000000;stroke-width:0.46021;stroke-linecap:butt;stroke-linejoin:round;stroke-miterlimit:10;stroke-dasharray:none;stroke-opacity:1"
       id="path212" /><g
       id="g218"
       transform="matrix(0.57526201,0,0,0.57526201,8.9271299,141.96361)"><g
         id="g220"
         clip-path="url(#clipPath224)"><path
           d="M 57.6,197.6832 H 414.72"
           style="fill:none;stroke:#b0b0b0;stroke-width:0.8;stroke-linecap:square;stroke-linejoin:round;stroke-miterlimit:10;stroke-dasharray:none;stroke-opacity:1"
           id="path226" /></g></g><path
       d="M 42.062222,255.68325 H 40.048805"
       style="fill:#000000;fill-opacity:1;fill-rule:nonzero;stroke:#000000;stroke-width:0.46021;stroke-linecap:butt;stroke-linejoin:round;stroke-miterlimit:10;stroke-dasharray:none;stroke-opacity:1"
       id="path230" /><g
       id="g236"
       transform="matrix(0.57526201,0,0,0.57526201,8.9271299,141.96361)"><g
         id="g238"
         clip-path="url(#clipPath242)"><path
           d="M 57.6,250.9056 H 414.72"
           style="fill:none;stroke:#b0b0b0;stroke-width:0.8;stroke-linecap:square;stroke-linejoin:round;stroke-miterlimit:10;stroke-dasharray:none;stroke-opacity:1"
           id="path244" /></g></g><path
       d="M 42.062222,286.30007 H 40.048805"
       style="fill:#000000;fill-opacity:1;fill-rule:nonzero;stroke:#000000;stroke-width:0.46021;stroke-linecap:butt;stroke-linejoin:round;stroke-miterlimit:10;stroke-dasharray:none;stroke-opacity:1"
       id="path248" /><g
       id="g254"
       transform="matrix(0.57526201,0,0,0.57526201,8.9271299,141.96361)"><g
         id="g256"
         clip-path="url(#clipPath260)"><path
           d="M 57.6,304.128 H 414.72"
           style="fill:none;stroke:#b0b0b0;stroke-width:0.8;stroke-linecap:square;stroke-linejoin:round;stroke-miterlimit:10;stroke-dasharray:none;stroke-opacity:1"
           id="path262" /></g></g><path
       d="M 42.062222,316.9169 H 40.048805"
       style="fill:#000000;fill-opacity:1;fill-rule:nonzero;stroke:#000000;stroke-width:0.46021;stroke-linecap:butt;stroke-linejoin:round;stroke-miterlimit:10;stroke-dasharray:none;stroke-opacity:1"
       id="path266" /><g
       id="g278"
       clip-path="url(#clipPath282)"
       transform="matrix(0.57526201,0,0,0.57526201,8.9271299,141.96361)"><path
         d="m 57.6,259.11749 4.520506,5.64194 4.520507,-9.09775 4.520506,-9.95091 4.520506,-8.08349 4.520507,-5.83997 4.520506,-3.28367 4.520506,-4.53885 4.520507,-5.08756 4.520506,1.77647 4.520503,-2.03893 4.52051,-5.45206 4.52051,-2.034 4.5205,-4.76018 4.52051,-4.69682 4.52051,-3.75023 4.5205,-0.92585 4.52051,-1.21322 4.5205,-0.37692 4.52051,-0.47846 4.52051,-2.40292 4.5205,-2.39312 4.52051,-2.36259 4.52051,0.86556 4.5205,-1.29233 4.52051,-1.42611 4.5205,-4.84833 4.52051,2.23835 4.52051,-5.22021 4.5205,-0.13357 4.52051,-0.72752 4.52051,-0.18497 4.5205,-0.15387 4.52051,-2.48507 4.5205,-2.46602 4.52051,0.30695 4.52051,-2.46906 4.5205,3.44883 4.52051,-2.45416 4.52051,-0.27922 4.5205,-4.22916 4.52051,-0.2018 4.52051,4.26432 4.5205,-3.00562 4.52051,-1.90583 4.5205,1.45447 4.52051,-0.19792 4.52051,-3.38338 4.5205,4.15188 4.52051,-5.29339 4.52051,-2.36577 4.5205,4.89715 4.52051,0.26687 4.5205,0.017 4.52051,0.94015 4.52051,0.59771 4.5205,-3.11119 4.52051,-1.32483 4.52051,-1.2966 4.5205,3.80705 4.52051,0.0787 4.52051,-1.63688 4.5205,1.02202 4.52051,2.30999 4.5205,-0.44054 4.52051,1.23075 4.52051,-2.12896 4.5205,1.31572 4.52051,-0.16987 4.52051,-1.28431 4.5205,2.79612 4.52051,1.72012 4.52051,-2.32985 4.5205,0.92795 4.52051,-3.23739 4.5205,-2.48408 4.52051,0.31164 4.52051,-4.13364 4.5205,-20.29385 4.52051,11.99224"
         style="fill:none;stroke:#1f77b4;stroke-width:1.5;stroke-linecap:square;stroke-linejoin:round;stroke-miterlimit:10;stroke-dasharray:none;stroke-opacity:1"
         id="path284" /></g><g
       id="g288"
       clip-path="url(#clipPath292)"
       transform="matrix(0.57526201,0,0,0.57526201,8.9271299,141.96361)"><path
         d="m 57.6,260.70164 4.520506,5.24821 4.520507,-9.18159 4.520506,-9.37443 4.520506,-7.10521 4.520507,-5.1713 4.520506,-3.30301 4.520506,-5.55048 4.520507,-5.75145 4.520506,1.11468 4.520503,-1.8265 4.52051,-5.37179 4.52051,-1.31407 4.5205,-4.26788 4.52051,-4.96731 4.52051,-4.5872 4.5205,-1.55763 4.52051,-1.37331 4.5205,-0.55184 4.52051,-0.38201 4.52051,-2.51742 4.5205,-2.16364 4.52051,-2.36785 4.52051,1.14012 4.5205,-1.68172 4.52051,-1.21984 4.5205,-4.7073 4.52051,2.43041 4.52051,-4.82342 4.5205,-0.51663 4.52051,-0.97015 4.52051,-1.15099 4.5205,-0.0198 4.52051,-3.02403 4.5205,-2.00589 4.52051,-0.54695 4.52051,-2.24983 4.5205,2.64583 4.52051,-1.95962 4.52051,-0.88539 4.5205,-4.45214 4.52051,0.20488 4.52051,3.86984 4.5205,-2.8668 4.52051,-2.38297 4.5205,1.65999 4.52051,-0.83672 4.52051,-2.48952 4.5205,3.80402 4.52051,-4.12389 4.52051,-2.55708 4.5205,5.01467 4.52051,0.0476 4.5205,0.9822 4.52051,1.12115 4.52051,1.40307 4.5205,-3.69852 4.52051,-2.36894 4.52051,-0.19075 4.5205,4.13883 4.52051,-1.87302 4.52051,-1.2662 4.5205,0.36005 4.52051,2.53253 4.5205,-0.0107 4.52051,-0.0695 4.52051,-3.03959 4.5205,1.03966 4.52051,0.73035 4.52051,-2.88768 4.5205,2.2105 4.52051,1.26068 4.52051,-1.09826 4.5205,0.90783 4.52051,-3.97565 4.5205,-2.33149 4.52051,1.03643 4.52051,-5.88595 4.5205,-9.70782 4.52051,3.63172"
         style="fill:none;stroke:#ff7f0e;stroke-width:1.5;stroke-linecap:square;stroke-linejoin:round;stroke-miterlimit:10;stroke-dasharray:none;stroke-opacity:1"
         id="path294" /></g><g
       id="g298"
       clip-path="url(#clipPath302)"
       transform="matrix(0.57526201,0,0,0.57526201,8.9271299,141.96361)"><path
         d="m 57.6,262.21963 4.520506,4.74341 4.520507,-9.12897 4.520506,-8.92326 4.520506,-6.69901 4.520507,-5.64331 4.520506,-3.97499 4.520506,-5.89778 4.520507,-5.34246 4.520506,1.099 4.520503,-2.26871 4.52051,-5.85397 4.52051,-1.1502 4.5205,-3.62069 4.52051,-4.97627 4.52051,-5.18846 4.5205,-1.69694 4.52051,-1.47544 4.5205,-0.48423 4.52051,-0.47724 4.52051,-2.43949 4.5205,-1.61652 4.52051,-1.98813 4.52051,0.94569 4.5205,-1.79611 4.52051,-1.04614 4.5205,-4.17599 4.52051,2.30317 4.52051,-4.64267 4.5205,-0.93145 4.52051,-0.87162 4.52051,-0.83425 4.5205,-0.54901 4.52051,-2.94285 4.5205,-2.43893 4.52051,-0.88122 4.52051,-2.30596 4.5205,2.45127 4.52051,-1.21084 4.52051,-1.19068 4.5205,-3.57115 4.52051,-0.96922 4.52051,3.78506 4.5205,-2.40373 4.52051,-1.98276 4.5205,0.77086 4.52051,-0.0141 4.52051,-2.47056 4.5205,2.88302 4.52051,-3.80841 4.52051,-0.31624 4.5205,3.11855 4.52051,-0.0399 4.5205,0.11774 4.52051,0.69648 4.52051,1.39349 4.5205,-3.18947 4.52051,-2.19403 4.52051,0.16028 4.5205,4.03106 4.52051,-2.02998 4.52051,-1.84751 4.5205,0.86512 4.52051,1.81254 4.5205,0.12064 4.52051,-1.5706 4.52051,-2.82474 4.5205,1.40811 4.52051,0.46577 4.52051,-3.07602 4.5205,2.41989 4.52051,1.93445 4.52051,-0.78327 4.5205,-1.19469 4.52051,-4.23973 4.5205,-2.30267 4.52051,-0.13905 4.52051,-8.14123 4.5205,-3.77742 4.52051,0.27459"
         style="fill:none;stroke:#2ca02c;stroke-width:1.5;stroke-linecap:square;stroke-linejoin:round;stroke-miterlimit:10;stroke-dasharray:none;stroke-opacity:1"
         id="path304" /></g><path
       d="m 42.062222,292.65795 2.600476,2.80345 2.600475,-5.41419 2.600476,-5.46671 2.600475,-4.0958 2.600475,-2.97667 2.600477,-2.00305 2.600475,-3.21379 2.600476,-3.24917 2.600475,0.68751 2.600473,-1.07821 2.600479,-2.9211 2.600477,-0.73236 2.600472,-2.31064 2.600478,-2.88737 2.600477,-2.59942 2.600472,-0.74943 2.600478,-0.82596 2.600472,-0.17921 2.600478,-0.50215 2.600477,-1.27131 2.600472,-1.26544 2.600478,-1.20376 2.600475,0.53462 2.60047,-1.08815 2.60048,-0.94207 2.60047,-2.74398 2.60048,1.52111 2.60048,-2.9908 2.60047,-0.23137 2.60048,-0.41459 2.60048,-0.60977 2.60047,-0.27118 2.60048,-1.2595 2.60047,-1.53592 2.60047,-0.24989 2.60048,-1.26247 2.60047,1.76201 2.60048,-1.25802 2.60048,-0.72989 2.60047,-2.48026 2.60048,-0.57345 2.60048,2.46448 2.60047,-2.12634 2.60048,-1.02416 2.60047,1.0489 2.60048,-0.1522 2.60048,-1.90828 2.60046,2.56446 2.60048,-2.99925 2.60048,-0.80397 2.60047,1.94996 2.60048,0.39558 2.60047,-0.0734 2.60048,1.20954 2.60048,0.45592 2.60047,-2.10259 2.60048,-1.55238 2.60048,-0.19352 2.60047,2.44187 2.60047,-0.97337 2.60048,-0.63878 2.60047,0.82255 2.60048,0.98751 2.60047,0.11609 2.60048,0.43161 2.60048,-1.59564 2.60047,1.19233 2.60048,-0.17086 2.60048,-1.29364 2.60047,1.29023 2.60048,1.29348 2.60047,-0.91403 2.60047,-0.1338 2.60048,-2.04271 2.60047,-1.45628 2.60048,2.13505 2.60048,-3.81662 2.60047,-1.18113 2.60048,-1.38501"
       style="fill:none;stroke:#9467bd;stroke-width:0.862893;stroke-linecap:square;stroke-linejoin:round;stroke-miterlimit:10;stroke-dasharray:none;stroke-opacity:1"
       id="path314" /><path
       d="M 42.062222,163.83278 V 316.9169"
       style="fill:none;stroke:#000000;stroke-width:0.46021;stroke-linecap:square;stroke-linejoin:miter;stroke-miterlimit:10;stroke-dasharray:none;stroke-opacity:1"
       id="path328" /><path
       d="M 247.49979,163.83278 V 316.9169"
       style="fill:none;stroke:#000000;stroke-width:0.46021;stroke-linecap:square;stroke-linejoin:miter;stroke-miterlimit:10;stroke-dasharray:none;stroke-opacity:1"
       id="path330" /><path
       d="M 42.062222,163.83278 H 247.49979"
       style="fill:none;stroke:#000000;stroke-width:0.46021;stroke-linecap:square;stroke-linejoin:miter;stroke-miterlimit:10;stroke-dasharray:none;stroke-opacity:1"
       id="path332" /><path
       d="M 42.062222,316.9169 H 247.49979"
       style="fill:none;stroke:#000000;stroke-width:0.46021;stroke-linecap:square;stroke-linejoin:miter;stroke-miterlimit:10;stroke-dasharray:none;stroke-opacity:1"
       id="path334" /><path
       d="m 53.964972,215.59747 h 11.50523"
       style="fill:none;stroke:#1f77b4;stroke-width:0.862893;stroke-linecap:square;stroke-linejoin:round;stroke-miterlimit:10;stroke-dasharray:none;stroke-opacity:1"
       id="path344" /><path
       d="m 53.964972,207.15729 h 11.50523"
       style="fill:none;stroke:#ff7f0e;stroke-width:0.862893;stroke-linecap:square;stroke-linejoin:round;stroke-miterlimit:10;stroke-dasharray:none;stroke-opacity:1"
       id="path350" /><path
       d="m 53.964972,198.71712 h 11.50523"
       style="fill:none;stroke:#2ca02c;stroke-width:0.862893;stroke-linecap:square;stroke-linejoin:round;stroke-miterlimit:10;stroke-dasharray:none;stroke-opacity:1"
       id="path356" /><path
       d="m 53.964972,190.27695 h 11.50523"
       style="fill:none;stroke:#9467bd;stroke-width:0.862893;stroke-linecap:square;stroke-linejoin:round;stroke-miterlimit:10;stroke-dasharray:none;stroke-opacity:1"
       id="path362" /><path
       d="m 53.964972,181.83678 h 11.50523"
       style="fill:none;stroke:#d62728;stroke-width:0.862893;stroke-linecap:square;stroke-linejoin:round;stroke-miterlimit:10;stroke-dasharray:none;stroke-opacity:1"
       id="path368" /></g><g
     inkscape:groupmode="layer"
     id="layer1"
     inkscape:label="text"
     style="display:inline"
     transform="translate(-28.023958,-17.206424)"><text
       style="font-variant:normal;font-weight:normal;font-size:7.67017px;font-family:'DejaVu Sans';-inkscape-font-specification:DejaVuSans;writing-mode:lr-tb;fill:#000000;fill-opacity:1;fill-rule:nonzero;stroke:none;stroke-width:0.767016"
       id="text32"
       x="53.543915"
       y="253.54993"><tspan
         x="53.543915 58.422138 60.861248 65.739471"
         y="253.54993"
         sodipodi:role="line"
         id="tspan30"
         style="stroke-width:0.767016">0.00</tspan></text><text
       style="font-variant:normal;font-weight:normal;font-size:7.67017px;font-family:'DejaVu Sans';-inkscape-font-specification:DejaVuSans;writing-mode:lr-tb;fill:#000000;fill-opacity:1;fill-rule:nonzero;stroke:none;stroke-width:0.767016"
       id="text50"
       x="82.216919"
       y="253.54993"><tspan
         x="82.216919 87.095146 89.534256 94.412476"
         y="253.54993"
         sodipodi:role="line"
         id="tspan48"
         style="stroke-width:0.767016">0.25</tspan></text><text
       style="font-variant:normal;font-weight:normal;font-size:7.67017px;font-family:'DejaVu Sans';-inkscape-font-specification:DejaVuSans;writing-mode:lr-tb;fill:#000000;fill-opacity:1;fill-rule:nonzero;stroke:none;stroke-width:0.767016"
       id="text68"
       x="116.88992"
       y="253.54993"><tspan
         x="116.88992 121.76814 124.20726 129.08548"
         y="253.54993"
         sodipodi:role="line"
         id="tspan66"
         style="stroke-width:0.767016">0.50</tspan></text><text
       style="font-variant:normal;font-weight:normal;font-size:7.67017px;font-family:'DejaVu Sans';-inkscape-font-specification:DejaVuSans;writing-mode:lr-tb;fill:#000000;fill-opacity:1;fill-rule:nonzero;stroke:none;stroke-width:0.767016"
       id="text86"
       x="151.56294"
       y="253.54993"><tspan
         x="151.56294 156.44116 158.88026 163.7585"
         y="253.54993"
         sodipodi:role="line"
         id="tspan84"
         style="stroke-width:0.767016">0.75</tspan></text><text
       style="font-variant:normal;font-weight:normal;font-size:7.67017px;font-family:'DejaVu Sans';-inkscape-font-specification:DejaVuSans;writing-mode:lr-tb;fill:#000000;fill-opacity:1;fill-rule:nonzero;stroke:none;stroke-width:0.767016"
       id="text104"
       x="186.23595"
       y="253.54993"><tspan
         x="186.23595 191.11417 193.55327 198.4315"
         y="253.54993"
         sodipodi:role="line"
         id="tspan102"
         style="stroke-width:0.767016">1.00</tspan></text><text
       style="font-variant:normal;font-weight:normal;font-size:7.67017px;font-family:'DejaVu Sans';-inkscape-font-specification:DejaVuSans;writing-mode:lr-tb;fill:#000000;fill-opacity:1;fill-rule:nonzero;stroke:none;stroke-width:0.767016"
       id="text122"
       x="220.90895"
       y="253.54993"><tspan
         x="220.90895 225.78717 228.22627 233.10449"
         y="253.54993"
         sodipodi:role="line"
         id="tspan120"
         style="stroke-width:0.767016">1.25</tspan></text><text
       style="font-variant:normal;font-weight:normal;font-size:7.67017px;font-family:'DejaVu Sans';-inkscape-font-specification:DejaVuSans;writing-mode:lr-tb;fill:#000000;fill-opacity:1;fill-rule:nonzero;stroke:none;stroke-width:0.767016"
       id="text140"
       x="255.58195"
       y="253.54993"><tspan
         x="255.58195 260.46014 262.89929 267.7775"
         y="253.54993"
         sodipodi:role="line"
         id="tspan138"
         style="stroke-width:0.767016">1.50</tspan></text><text
       style="font-variant:normal;font-weight:normal;font-size:7.67017px;font-family:'DejaVu Sans';-inkscape-font-specification:DejaVuSans;writing-mode:lr-tb;fill:#000000;fill-opacity:1;fill-rule:nonzero;stroke:none;stroke-width:0.767016"
       id="text158"
       x="290.25494"
       y="253.54993"><tspan
         x="290.25494 295.13318 297.5723 302.45053"
         y="253.54993"
         sodipodi:role="line"
         id="tspan156"
         style="stroke-width:0.767016">1.75</tspan></text><text
       style="font-variant:normal;font-weight:normal;font-size:7.67017px;font-family:'DejaVu Sans';-inkscape-font-specification:DejaVuSans;writing-mode:lr-tb;fill:#000000;fill-opacity:1;fill-rule:nonzero;stroke:none;stroke-width:0.767016"
       id="text162"
       x="146.6189"
       y="264.03665"><tspan
         x="146.6189 152.56328 157.28041 162.1433 166.83743 174.30817 176.44046 180.65906 183.09818 187.96872 190.10103 194.09718 197.10388 201.80569 206.66858 210.88718 215.60432 218.04343 220.62827 223.06737 229.68672 234.55728"
         y="264.03665"
         sodipodi:role="line"
         id="tspan160"
         style="stroke-width:0.767016">Genomic distance / Mbp</tspan></text><text
       style="font-variant:normal;font-weight:normal;font-size:7.67017px;font-family:'DejaVu Sans';-inkscape-font-specification:DejaVuSans;writing-mode:lr-tb;fill:#000000;fill-opacity:1;fill-rule:nonzero;stroke:none;stroke-width:0.767016"
       id="text180"
       x="38.513496"
       y="245.26854"><tspan
         x="38.513496 43.391724 45.830833"
         y="245.26854"
         sodipodi:role="line"
         id="tspan178"
         style="stroke-width:0.767016">0.0</tspan></text><text
       style="font-variant:normal;font-weight:normal;font-size:7.67017px;font-family:'DejaVu Sans';-inkscape-font-specification:DejaVuSans;writing-mode:lr-tb;fill:#000000;fill-opacity:1;fill-rule:nonzero;stroke:none;stroke-width:0.767016"
       id="text198"
       x="38.513496"
       y="204.44612"><tspan
         x="38.513496 43.391724 45.830833"
         y="204.44612"
         sodipodi:role="line"
         id="tspan196"
         style="stroke-width:0.767016">0.2</tspan></text><text
       style="font-variant:normal;font-weight:normal;font-size:7.67017px;font-family:'DejaVu Sans';-inkscape-font-specification:DejaVuSans;writing-mode:lr-tb;fill:#000000;fill-opacity:1;fill-rule:nonzero;stroke:none;stroke-width:0.767016"
       id="text216"
       x="38.513496"
       y="163.62369"><tspan
         x="38.513496 43.391724 45.830833"
         y="163.62369"
         sodipodi:role="line"
         id="tspan214"
         style="stroke-width:0.767016">0.4</tspan></text><text
       style="font-variant:normal;font-weight:normal;font-size:7.67017px;font-family:'DejaVu Sans';-inkscape-font-specification:DejaVuSans;writing-mode:lr-tb;fill:#000000;fill-opacity:1;fill-rule:nonzero;stroke:none;stroke-width:0.767016"
       id="text234"
       x="38.513496"
       y="122.80123"><tspan
         x="38.513496 43.391724 45.830833"
         y="122.80123"
         sodipodi:role="line"
         id="tspan232"
         style="stroke-width:0.767016">0.6</tspan></text><text
       style="font-variant:normal;font-weight:normal;font-size:7.67017px;font-family:'DejaVu Sans';-inkscape-font-specification:DejaVuSans;writing-mode:lr-tb;fill:#000000;fill-opacity:1;fill-rule:nonzero;stroke:none;stroke-width:0.767016"
       id="text252"
       x="38.513496"
       y="81.978821"><tspan
         x="38.513496 43.391724 45.830833"
         y="81.978821"
         sodipodi:role="line"
         id="tspan250"
         style="stroke-width:0.767016">0.8</tspan></text><text
       style="font-variant:normal;font-weight:normal;font-size:7.67017px;font-family:'DejaVu Sans';-inkscape-font-specification:DejaVuSans;writing-mode:lr-tb;fill:#000000;fill-opacity:1;fill-rule:nonzero;stroke:none;stroke-width:0.767016"
       id="text270"
       x="38.513496"
       y="41.156445"><tspan
         x="38.513496 43.391724 45.830833"
         y="41.156445"
         sodipodi:role="line"
         id="tspan268"
         style="stroke-width:0.767016">1.0</tspan></text><text
       transform="rotate(-90)"
       style="font-variant:normal;font-weight:normal;font-size:7.67017px;font-family:'DejaVu Sans';-inkscape-font-specification:DejaVuSans;writing-mode:lr-tb;fill:#000000;fill-opacity:1;fill-rule:nonzero;stroke:none;stroke-width:0.767016"
       id="text274"
       x="-177.35666"
       y="33.851482"><tspan
         x="-177.35666 -172.73155 -168.01442 -163.31261 -160.16016 -156.16402 -151.46986 -146.60698 -144.16788 -139.9493 -135.25516 -132.10271 -128.95027 -124.23313 -122.10082 -117.39902 -114.39232 -112.26002 -107.56587"
         y="33.851482"
         sodipodi:role="line"
         id="tspan272"
         style="stroke-width:0.767016">Pearson correlation</tspan></text><text
       style="font-variant:normal;font-weight:normal;font-size:9.20419px;font-family:'DejaVu Sans';-inkscape-font-specification:DejaVuSans;writing-mode:lr-tb;fill:#000000;fill-opacity:1;fill-rule:nonzero;stroke:none;stroke-width:0.767016"
       id="text338"
       x="98.320847"
       y="23.325706"><tspan
         x="98.320847 103.87098 109.53157 115.17374 118.95665 123.75202 129.38499 135.22047 138.1474 143.20969 148.84267 152.6256 156.40851 162.06909 164.62785 170.27002 173.87807 176.43683 182.06979 187.90526 190.8322 196.28108 201.07646 204.00339 206.93033 212.77499 218.43556 224.27101 229.90399 238.86887 241.42761 246.48993 249.41687 255.26154 257.82031 262.61566 266.22372 271.86591 277.70132 282.76364"
         y="23.325706"
         sodipodi:role="line"
         id="tspan336"
         style="stroke-width:0.767016">Pearson correlation vs. genomic distance</tspan></text><text
       style="font-variant:normal;font-weight:normal;font-size:9.20419px;font-family:'DejaVu Sans';-inkscape-font-specification:DejaVuSans;writing-mode:lr-tb;fill:#000000;fill-opacity:1;fill-rule:nonzero;stroke:none;stroke-width:0.767016"
       id="text342"
       x="63.987587"
       y="33.642082"><tspan
         x="63.987587 71.120834 79.064049 84.917923 90.771782 96.625656 102.47952 108.33339 111.26032 114.18725 120.04111 122.96806 128.82191 131.74886 137.60272 140.52966 146.38351 149.31044 155.16432 158.09125 163.94511 169.79898 172.72591 178.57977 184.43364 187.36058 193.21445 199.0683 201.99524 207.84911 213.70297 216.62991 222.48376 228.33765 231.26457 237.11845 242.97232 245.89926 251.7531 257.60699 260.53391 266.38779 272.24164 275.16858 280.80154 286.63702 289.56393 295.60187 301.45575 307.30963 313.16351 316.09039 319.01733"
         y="33.642082"
         sodipodi:role="line"
         id="tspan340"
         style="stroke-width:0.767016">GM12878, 1,2,4,7,9,11,13,14,16,17,18,20,22 on K562, 5</tspan></text><text
       style="font-variant:normal;font-weight:normal;font-size:7.67017px;font-family:'DejaVu Sans';-inkscape-font-specification:DejaVuSans;writing-mode:lr-tb;fill:#000000;fill-opacity:1;fill-rule:nonzero;stroke:none;stroke-width:0.767016"
       id="text348"
       x="93.429634"
       y="176.02138"><tspan
         x="93.429634 97.648239 102.34235 109.81309 114.68362 117.12273 119.56186 121.69417 126.38834 130.38463 134.38077 136.8199 139.259 144.13722 149.01546 153.89366 158.61082 163.48137 165.92052 168.50533 170.94444 176.19084 181.8054 187.15913 189.74403 192.18312 197.06133 199.50041 204.37865 209.25688"
         y="176.02138"
         sodipodi:role="line"
         id="tspan346"
         style="stroke-width:0.767016">comb. loss, 250ep / AUC: 0.540</tspan></text><text
       style="font-variant:normal;font-weight:normal;font-size:7.67017px;font-family:'DejaVu Sans';-inkscape-font-specification:DejaVuSans;writing-mode:lr-tb;fill:#000000;fill-opacity:1;fill-rule:nonzero;stroke:none;stroke-width:0.767016"
       id="text354"
       x="93.429634"
       y="187.27493"><tspan
         x="93.429634 97.648239 102.34235 109.81309 114.68362 117.12273 119.56186 121.69417 126.38834 130.38463 134.38077 136.8199 139.259 144.13722 149.01546 153.89366 158.61082 163.48137 165.92052 168.50533 170.94444 176.19084 181.8054 187.15913 189.74403 192.18312 197.06133 199.50041 204.37865 209.25688"
         y="187.27493"
         sodipodi:role="line"
         id="tspan352"
         style="stroke-width:0.767016">comb. loss, 500ep / AUC: 0.538</tspan></text><text
       style="font-variant:normal;font-weight:normal;font-size:7.67017px;font-family:'DejaVu Sans';-inkscape-font-specification:DejaVuSans;writing-mode:lr-tb;fill:#000000;fill-opacity:1;fill-rule:nonzero;stroke:none;stroke-width:0.767016"
       id="text360"
       x="93.429634"
       y="198.52846"><tspan
         x="93.429634 97.648239 102.34235 109.81309 114.68362 117.12273 119.56186 121.69417 126.38834 130.38463 134.38077 136.8199 139.259 144.13722 149.01546 153.89366 158.7719 163.48906 168.3596 170.79872 173.38356 175.82265 181.06908 186.68361 192.03737 194.62224 197.06133 201.93956 204.37865 209.25688 214.13512"
         y="198.52846"
         sodipodi:role="line"
         id="tspan358"
         style="stroke-width:0.767016">comb. loss, 1000ep / AUC: 0.538</tspan></text><text
       style="font-variant:normal;font-weight:normal;font-size:7.67017px;font-family:'DejaVu Sans';-inkscape-font-specification:DejaVuSans;writing-mode:lr-tb;fill:#000000;fill-opacity:1;fill-rule:nonzero;stroke:none;stroke-width:0.767016"
       id="text366"
       x="93.429634"
       y="209.78201"><tspan
         x="93.429634 95.561943 100.4248 102.55711 105.56383 107.69613 112.39793 114.53024 116.96935 119.40846 124.28668 129.16508 134.04332 138.76045 143.631 146.07013 148.65495 151.09407 156.34044 161.955 167.30879 169.89363 172.33272 177.21098 179.65007 184.52831 189.40654"
         y="209.78201"
         sodipodi:role="line"
         id="tspan364"
         style="stroke-width:0.767016">initial, 500ep / AUC: 0.540</tspan></text><text
       style="font-variant:normal;font-weight:normal;font-size:7.67017px;font-family:'DejaVu Sans';-inkscape-font-specification:DejaVuSans;writing-mode:lr-tb;fill:#000000;fill-opacity:1;fill-rule:nonzero;stroke:none;stroke-width:0.767016"
       id="text372"
       x="93.429634"
       y="221.03557"><tspan
         x="93.429634 96.436356 99.588776 104.29057 109.15346 113.1496 115.8495 120.56666 123.71908 126.1582 132.10274 138.72209 143.60033 148.47853 153.35677 158.23497 163.11324 165.55232 168.13716 170.57628 175.82265 181.43721 186.79097 189.37584 191.81496 196.69316 199.13228 204.01048 208.88872"
         y="221.03557"
         sodipodi:role="line"
         id="tspan370"
         style="stroke-width:0.767016">transfer GM12878 / AUC: 0.719</tspan></text></g></svg>
