<?xml version="1.0" encoding="UTF-8" standalone="no"?>
<svg
   xmlns:dc="http://purl.org/dc/elements/1.1/"
   xmlns:cc="http://creativecommons.org/ns#"
   xmlns:rdf="http://www.w3.org/1999/02/22-rdf-syntax-ns#"
   xmlns:svg="http://www.w3.org/2000/svg"
   xmlns="http://www.w3.org/2000/svg"
   xmlns:sodipodi="http://sodipodi.sourceforge.net/DTD/sodipodi-0.dtd"
   xmlns:inkscape="http://www.inkscape.org/namespaces/inkscape"
   version="1.1"
   id="svg2"
   xml:space="preserve"
   width="80mm"
   height="65.300003mm"
   viewBox="0 0 302.3622 246.80316"
   sodipodi:docname="pearson_chr03.svg"
   inkscape:version="1.0.2 (1.0.2+r75+1)"><metadata
     id="metadata8"><rdf:RDF><cc:Work
         rdf:about=""><dc:format>image/svg+xml</dc:format><dc:type
           rdf:resource="http://purl.org/dc/dcmitype/StillImage" /><dc:title /></cc:Work></rdf:RDF></metadata><defs
     id="defs6"><clipPath
       clipPathUnits="userSpaceOnUse"
       id="clipPath22"><path
         d="M 57.6,38.016 H 414.72 V 304.128 H 57.6 Z"
         id="path20" /></clipPath><clipPath
       clipPathUnits="userSpaceOnUse"
       id="clipPath40"><path
         d="M 57.6,38.016 H 414.72 V 304.128 H 57.6 Z"
         id="path38" /></clipPath><clipPath
       clipPathUnits="userSpaceOnUse"
       id="clipPath58"><path
         d="M 57.6,38.016 H 414.72 V 304.128 H 57.6 Z"
         id="path56" /></clipPath><clipPath
       clipPathUnits="userSpaceOnUse"
       id="clipPath76"><path
         d="M 57.6,38.016 H 414.72 V 304.128 H 57.6 Z"
         id="path74" /></clipPath><clipPath
       clipPathUnits="userSpaceOnUse"
       id="clipPath94"><path
         d="M 57.6,38.016 H 414.72 V 304.128 H 57.6 Z"
         id="path92" /></clipPath><clipPath
       clipPathUnits="userSpaceOnUse"
       id="clipPath112"><path
         d="M 57.6,38.016 H 414.72 V 304.128 H 57.6 Z"
         id="path110" /></clipPath><clipPath
       clipPathUnits="userSpaceOnUse"
       id="clipPath130"><path
         d="M 57.6,38.016 H 414.72 V 304.128 H 57.6 Z"
         id="path128" /></clipPath><clipPath
       clipPathUnits="userSpaceOnUse"
       id="clipPath148"><path
         d="M 57.6,38.016 H 414.72 V 304.128 H 57.6 Z"
         id="path146" /></clipPath><clipPath
       clipPathUnits="userSpaceOnUse"
       id="clipPath170"><path
         d="M 57.6,38.016 H 414.72 V 304.128 H 57.6 Z"
         id="path168" /></clipPath><clipPath
       clipPathUnits="userSpaceOnUse"
       id="clipPath188"><path
         d="M 57.6,38.016 H 414.72 V 304.128 H 57.6 Z"
         id="path186" /></clipPath><clipPath
       clipPathUnits="userSpaceOnUse"
       id="clipPath206"><path
         d="M 57.6,38.016 H 414.72 V 304.128 H 57.6 Z"
         id="path204" /></clipPath><clipPath
       clipPathUnits="userSpaceOnUse"
       id="clipPath224"><path
         d="M 57.6,38.016 H 414.72 V 304.128 H 57.6 Z"
         id="path222" /></clipPath><clipPath
       clipPathUnits="userSpaceOnUse"
       id="clipPath242"><path
         d="M 57.6,38.016 H 414.72 V 304.128 H 57.6 Z"
         id="path240" /></clipPath><clipPath
       clipPathUnits="userSpaceOnUse"
       id="clipPath260"><path
         d="M 57.6,38.016 H 414.72 V 304.128 H 57.6 Z"
         id="path258" /></clipPath><clipPath
       clipPathUnits="userSpaceOnUse"
       id="clipPath282"><path
         d="M 57.6,38.016 H 414.72 V 304.128 H 57.6 Z"
         id="path280" /></clipPath><clipPath
       clipPathUnits="userSpaceOnUse"
       id="clipPath292"><path
         d="M 57.6,38.016 H 414.72 V 304.128 H 57.6 Z"
         id="path290" /></clipPath><clipPath
       clipPathUnits="userSpaceOnUse"
       id="clipPath302"><path
         d="M 57.6,38.016 H 414.72 V 304.128 H 57.6 Z"
         id="path300" /></clipPath><clipPath
       clipPathUnits="userSpaceOnUse"
       id="clipPath312"><path
         d="M 57.6,38.016 H 414.72 V 304.128 H 57.6 Z"
         id="path310" /></clipPath><clipPath
       clipPathUnits="userSpaceOnUse"
       id="clipPath322"><path
         d="M 57.6,38.016 H 414.72 V 304.128 H 57.6 Z"
         id="path320" /></clipPath></defs><sodipodi:namedview
     pagecolor="#ffffff"
     bordercolor="#666666"
     borderopacity="1"
     objecttolerance="10"
     gridtolerance="10"
     guidetolerance="10"
     inkscape:pageopacity="0"
     inkscape:pageshadow="2"
     inkscape:window-width="1920"
     inkscape:window-height="1020"
     id="namedview4"
     showgrid="false"
     fit-margin-top="0"
     fit-margin-left="0"
     fit-margin-right="0"
     fit-margin-bottom="0"
     units="mm"
     inkscape:zoom="2.6301673"
     inkscape:cx="53.261991"
     inkscape:cy="225.05958"
     inkscape:window-x="0"
     inkscape:window-y="0"
     inkscape:window-maximized="1"
     inkscape:current-layer="layer1"
     inkscape:document-rotation="0" /><g
     id="g10"
     inkscape:groupmode="layer"
     inkscape:label="pearson_chr03"
     transform="matrix(1.3333333,0,0,-1.3333333,-28.023958,443.59358)"><path
       d="m 42.064661,285.50559 2.600775,-2.99278 2.600778,-2.44539 2.600777,-1.4578 2.600777,0.29449 2.600777,1.01819 2.600778,0.0155 2.600776,0.80591 2.600777,0.78501 2.600776,-0.61736 2.600776,1.16252 2.600779,0.93915 2.600779,-0.23857 2.600773,-1.54914 2.600779,-1.03899 2.600779,-2.43781 2.600773,-1.4883 2.600779,-0.97621 2.600774,-1.6161 2.600779,-1.63285 2.600778,-2.39473 2.600773,0.0942 2.60078,-0.95869 2.600777,-1.70146 2.60078,-1.46621 2.60078,-1.05654 2.60076,-1.00533 2.60079,-3.76679 2.60077,1.79258 2.60078,-1.10046 2.60077,0.7122 2.60079,-0.79603 2.60076,0.75791 2.60079,-1.09469 2.60077,-2.09968 2.60079,0.38867 2.60077,0.22268 2.60077,-1.46338 2.60079,2.99344 2.60077,0.10725 2.60078,-0.66713 2.60078,-0.8012 2.60077,-0.11404 2.60078,0.94578 2.60078,1.95559 2.60077,-0.66743 2.60077,-1.65688 2.60079,-0.0879 2.60076,3.4865 2.60079,-1.08376 2.60078,-3.0534 2.60077,4.00215 2.60078,-1.68153 2.60078,-2.89216 2.60078,-1.2335 2.60077,3.32421 2.60078,-0.91776 2.60077,-1.65769 2.60078,0.02 2.60077,1.46136 2.60079,0.37088 2.60077,0.17512 2.60078,-1.62689 2.60078,1.94832 2.60077,-4.28913 2.60078,1.99049 2.60078,-4.3599 2.60077,1.95408 2.60078,-0.57703 2.60078,-3.05196 2.60077,1.53235 2.60078,0.7366 2.60078,-0.19877 2.60077,-2.20757 2.60078,-1.87091 2.60078,0.59463 2.60078,1.44393 2.60077,-3.61856 2.60078,1.66038 2.60078,0.0974"
       style="fill:none;stroke:#d62728;stroke-width:0.862993;stroke-linecap:square;stroke-linejoin:round;stroke-miterlimit:10;stroke-dasharray:none;stroke-opacity:1"
       id="path324" /><g
       id="g16"
       transform="matrix(0.57532866,0,0,0.57532866,8.9257288,141.99901)"><g
         id="g18"
         clip-path="url(#clipPath22)"><path
           d="M 57.6,38.016 V 304.128"
           style="fill:none;stroke:#b0b0b0;stroke-width:0.8;stroke-linecap:square;stroke-linejoin:round;stroke-miterlimit:10;stroke-dasharray:none;stroke-opacity:1"
           id="path24" /></g></g><path
       d="m 42.064661,163.8707 v -2.01365"
       style="fill:#000000;fill-opacity:1;fill-rule:nonzero;stroke:#000000;stroke-width:0.460263;stroke-linecap:butt;stroke-linejoin:round;stroke-miterlimit:10;stroke-dasharray:none;stroke-opacity:1"
       id="path28" /><g
       id="g34"
       transform="matrix(0.57532866,0,0,0.57532866,8.9257288,141.99901)"><g
         id="g36"
         clip-path="url(#clipPath40)"><path
           d="M 102.80506,38.016 V 304.128"
           style="fill:none;stroke:#b0b0b0;stroke-width:0.8;stroke-linecap:square;stroke-linejoin:round;stroke-miterlimit:10;stroke-dasharray:none;stroke-opacity:1"
           id="path42" /></g></g><path
       d="m 68.072428,163.8707 v -2.01365"
       style="fill:#000000;fill-opacity:1;fill-rule:nonzero;stroke:#000000;stroke-width:0.460263;stroke-linecap:butt;stroke-linejoin:round;stroke-miterlimit:10;stroke-dasharray:none;stroke-opacity:1"
       id="path46" /><g
       id="g52"
       transform="matrix(0.57532866,0,0,0.57532866,8.9257288,141.99901)"><g
         id="g54"
         clip-path="url(#clipPath58)"><path
           d="M 148.01013,38.016 V 304.128"
           style="fill:none;stroke:#b0b0b0;stroke-width:0.8;stroke-linecap:square;stroke-linejoin:round;stroke-miterlimit:10;stroke-dasharray:none;stroke-opacity:1"
           id="path60" /></g></g><path
       d="m 94.0802,163.8707 v -2.01365"
       style="fill:#000000;fill-opacity:1;fill-rule:nonzero;stroke:#000000;stroke-width:0.460263;stroke-linecap:butt;stroke-linejoin:round;stroke-miterlimit:10;stroke-dasharray:none;stroke-opacity:1"
       id="path64" /><g
       id="g70"
       transform="matrix(0.57532866,0,0,0.57532866,8.9257288,141.99901)"><g
         id="g72"
         clip-path="url(#clipPath76)"><path
           d="M 193.21519,38.016 V 304.128"
           style="fill:none;stroke:#b0b0b0;stroke-width:0.8;stroke-linecap:square;stroke-linejoin:round;stroke-miterlimit:10;stroke-dasharray:none;stroke-opacity:1"
           id="path78" /></g></g><path
       d="m 120.08796,163.8707 v -2.01365"
       style="fill:#000000;fill-opacity:1;fill-rule:nonzero;stroke:#000000;stroke-width:0.460263;stroke-linecap:butt;stroke-linejoin:round;stroke-miterlimit:10;stroke-dasharray:none;stroke-opacity:1"
       id="path82" /><g
       id="g88"
       transform="matrix(0.57532866,0,0,0.57532866,8.9257288,141.99901)"><g
         id="g90"
         clip-path="url(#clipPath94)"><path
           d="M 238.42025,38.016 V 304.128"
           style="fill:none;stroke:#b0b0b0;stroke-width:0.8;stroke-linecap:square;stroke-linejoin:round;stroke-miterlimit:10;stroke-dasharray:none;stroke-opacity:1"
           id="path96" /></g></g><path
       d="m 146.09574,163.8707 v -2.01365"
       style="fill:#000000;fill-opacity:1;fill-rule:nonzero;stroke:#000000;stroke-width:0.460263;stroke-linecap:butt;stroke-linejoin:round;stroke-miterlimit:10;stroke-dasharray:none;stroke-opacity:1"
       id="path100" /><g
       id="g106"
       transform="matrix(0.57532866,0,0,0.57532866,8.9257288,141.99901)"><g
         id="g108"
         clip-path="url(#clipPath112)"><path
           d="M 283.62532,38.016 V 304.128"
           style="fill:none;stroke:#b0b0b0;stroke-width:0.8;stroke-linecap:square;stroke-linejoin:round;stroke-miterlimit:10;stroke-dasharray:none;stroke-opacity:1"
           id="path114" /></g></g><path
       d="m 172.10351,163.8707 v -2.01365"
       style="fill:#000000;fill-opacity:1;fill-rule:nonzero;stroke:#000000;stroke-width:0.460263;stroke-linecap:butt;stroke-linejoin:round;stroke-miterlimit:10;stroke-dasharray:none;stroke-opacity:1"
       id="path118" /><g
       id="g124"
       transform="matrix(0.57532866,0,0,0.57532866,8.9257288,141.99901)"><g
         id="g126"
         clip-path="url(#clipPath130)"><path
           d="M 328.83038,38.016 V 304.128"
           style="fill:none;stroke:#b0b0b0;stroke-width:0.8;stroke-linecap:square;stroke-linejoin:round;stroke-miterlimit:10;stroke-dasharray:none;stroke-opacity:1"
           id="path132" /></g></g><path
       d="m 198.11128,163.8707 v -2.01365"
       style="fill:#000000;fill-opacity:1;fill-rule:nonzero;stroke:#000000;stroke-width:0.460263;stroke-linecap:butt;stroke-linejoin:round;stroke-miterlimit:10;stroke-dasharray:none;stroke-opacity:1"
       id="path136" /><g
       id="g142"
       transform="matrix(0.57532866,0,0,0.57532866,8.9257288,141.99901)"><g
         id="g144"
         clip-path="url(#clipPath148)"><path
           d="M 374.03544,38.016 V 304.128"
           style="fill:none;stroke:#b0b0b0;stroke-width:0.8;stroke-linecap:square;stroke-linejoin:round;stroke-miterlimit:10;stroke-dasharray:none;stroke-opacity:1"
           id="path150" /></g></g><path
       d="m 224.11904,163.8707 v -2.01365"
       style="fill:#000000;fill-opacity:1;fill-rule:nonzero;stroke:#000000;stroke-width:0.460263;stroke-linecap:butt;stroke-linejoin:round;stroke-miterlimit:10;stroke-dasharray:none;stroke-opacity:1"
       id="path154" /><g
       id="g164"
       transform="matrix(0.57532866,0,0,0.57532866,8.9257288,141.99901)"><g
         id="g166"
         clip-path="url(#clipPath170)"><path
           d="M 57.6,38.016 H 414.72"
           style="fill:none;stroke:#b0b0b0;stroke-width:0.8;stroke-linecap:square;stroke-linejoin:round;stroke-miterlimit:10;stroke-dasharray:none;stroke-opacity:1"
           id="path172" /></g></g><path
       d="M 42.064661,163.8707 H 40.051009"
       style="fill:#000000;fill-opacity:1;fill-rule:nonzero;stroke:#000000;stroke-width:0.460263;stroke-linecap:butt;stroke-linejoin:round;stroke-miterlimit:10;stroke-dasharray:none;stroke-opacity:1"
       id="path176" /><g
       id="g182"
       transform="matrix(0.57532866,0,0,0.57532866,8.9257288,141.99901)"><g
         id="g184"
         clip-path="url(#clipPath188)"><path
           d="M 57.6,91.2384 H 414.72"
           style="fill:none;stroke:#b0b0b0;stroke-width:0.8;stroke-linecap:square;stroke-linejoin:round;stroke-miterlimit:10;stroke-dasharray:none;stroke-opacity:1"
           id="path190" /></g></g><path
       d="M 42.064661,194.49107 H 40.051009"
       style="fill:#000000;fill-opacity:1;fill-rule:nonzero;stroke:#000000;stroke-width:0.460263;stroke-linecap:butt;stroke-linejoin:round;stroke-miterlimit:10;stroke-dasharray:none;stroke-opacity:1"
       id="path194" /><g
       id="g200"
       transform="matrix(0.57532866,0,0,0.57532866,8.9257288,141.99901)"><g
         id="g202"
         clip-path="url(#clipPath206)"><path
           d="M 57.6,144.4608 H 414.72"
           style="fill:none;stroke:#b0b0b0;stroke-width:0.8;stroke-linecap:square;stroke-linejoin:round;stroke-miterlimit:10;stroke-dasharray:none;stroke-opacity:1"
           id="path208" /></g></g><path
       d="M 42.064661,225.11145 H 40.051009"
       style="fill:#000000;fill-opacity:1;fill-rule:nonzero;stroke:#000000;stroke-width:0.460263;stroke-linecap:butt;stroke-linejoin:round;stroke-miterlimit:10;stroke-dasharray:none;stroke-opacity:1"
       id="path212" /><g
       id="g218"
       transform="matrix(0.57532866,0,0,0.57532866,8.9257288,141.99901)"><g
         id="g220"
         clip-path="url(#clipPath224)"><path
           d="M 57.6,197.6832 H 414.72"
           style="fill:none;stroke:#b0b0b0;stroke-width:0.8;stroke-linecap:square;stroke-linejoin:round;stroke-miterlimit:10;stroke-dasharray:none;stroke-opacity:1"
           id="path226" /></g></g><path
       d="M 42.064661,255.73183 H 40.051009"
       style="fill:#000000;fill-opacity:1;fill-rule:nonzero;stroke:#000000;stroke-width:0.460263;stroke-linecap:butt;stroke-linejoin:round;stroke-miterlimit:10;stroke-dasharray:none;stroke-opacity:1"
       id="path230" /><g
       id="g236"
       transform="matrix(0.57532866,0,0,0.57532866,8.9257288,141.99901)"><g
         id="g238"
         clip-path="url(#clipPath242)"><path
           d="M 57.6,250.9056 H 414.72"
           style="fill:none;stroke:#b0b0b0;stroke-width:0.8;stroke-linecap:square;stroke-linejoin:round;stroke-miterlimit:10;stroke-dasharray:none;stroke-opacity:1"
           id="path244" /></g></g><path
       d="M 42.064661,286.3522 H 40.051009"
       style="fill:#000000;fill-opacity:1;fill-rule:nonzero;stroke:#000000;stroke-width:0.460263;stroke-linecap:butt;stroke-linejoin:round;stroke-miterlimit:10;stroke-dasharray:none;stroke-opacity:1"
       id="path248" /><g
       id="g254"
       transform="matrix(0.57532866,0,0,0.57532866,8.9257288,141.99901)"><g
         id="g256"
         clip-path="url(#clipPath260)"><path
           d="M 57.6,304.128 H 414.72"
           style="fill:none;stroke:#b0b0b0;stroke-width:0.8;stroke-linecap:square;stroke-linejoin:round;stroke-miterlimit:10;stroke-dasharray:none;stroke-opacity:1"
           id="path262" /></g></g><path
       d="M 42.064661,316.97257 H 40.051009"
       style="fill:#000000;fill-opacity:1;fill-rule:nonzero;stroke:#000000;stroke-width:0.460263;stroke-linecap:butt;stroke-linejoin:round;stroke-miterlimit:10;stroke-dasharray:none;stroke-opacity:1"
       id="path266" /><g
       id="g278"
       clip-path="url(#clipPath282)"
       transform="matrix(0.57532866,0,0,0.57532866,8.9257288,141.99901)"><path
         d="m 57.6,257.50179 4.520506,4.81049 4.520507,-6.84651 4.520506,-7.36777 4.520506,-7.91224 4.520507,-7.04123 4.520506,-4.2282 4.520506,-1.93144 4.520507,-3.5999 4.520506,-1.68433 4.520503,-3.49177 4.52051,-4.71292 4.52051,-2.55102 4.5205,-1.03019 4.52051,0.0413 4.52051,-0.23732 4.5205,-0.0839 4.52051,1.53047 4.5205,-4.35131 4.52051,-0.13052 4.52051,-1.97062 4.5205,-3.56687 4.52051,-2.81577 4.52051,-2.24382 4.5205,-0.68664 4.52051,-3.60942 4.5205,-0.72231 4.52051,0.57827 4.52051,-1.49071 4.5205,-1.46509 4.52051,-2.73112 4.52051,1.00745 4.5205,-1.47452 4.52051,-0.66642 4.5205,0.60205 4.52051,-1.96564 4.52051,-2.17431 4.5205,-1.82063 4.52051,-2.47256 4.52051,-1.43461 4.5205,-0.25952 4.52051,0.4554 4.52051,-3.76833 4.5205,0.2594 4.52051,-3.87117 4.5205,0.92983 4.52051,2.47428 4.52051,-2.79906 4.5205,-2.22483 4.52051,3.15409 4.52051,-0.95864 4.5205,-4.40658 4.52051,0.22618 4.5205,1.0946 4.52051,-2.04502 4.52051,-2.17223 4.5205,0.46072 4.52051,0.82869 4.52051,-2.55098 4.5205,-3.6805 4.52051,-0.9036 4.52051,-0.57495 4.5205,0.50566 4.52051,-2.19933 4.5205,1.86456 4.52051,1.47909 4.52051,-1.14293 4.5205,-3.05372 4.52051,1.32178 4.52051,0.59095 4.5205,-4.00172 4.52051,-2.76583 4.52051,-0.88531 4.5205,1.31717 4.52051,-2.05543 4.5205,1.13833 4.52051,-0.0635 4.52051,1.23091 4.5205,-15.66587 4.52051,2.46521"
         style="fill:none;stroke:#1f77b4;stroke-width:1.5;stroke-linecap:square;stroke-linejoin:round;stroke-miterlimit:10;stroke-dasharray:none;stroke-opacity:1"
         id="path284" /></g><g
       id="g288"
       clip-path="url(#clipPath292)"
       transform="matrix(0.57532866,0,0,0.57532866,8.9257288,141.99901)"><path
         d="m 57.6,260.47398 4.520506,4.138 4.520507,-6.95608 4.520506,-6.39579 4.520506,-6.81584 4.520507,-6.70202 4.520506,-4.67447 4.520506,-2.70932 4.520507,-4.05286 4.520506,-2.09806 4.520503,-3.29401 4.52051,-4.38958 4.52051,-2.30678 4.5205,-1.40237 4.52051,0.067 4.52051,-0.37121 4.5205,-0.033 4.52051,1.21835 4.5205,-4.40782 4.52051,-0.013 4.52051,-1.44227 4.5205,-3.95902 4.52051,-3.03312 4.52051,-2.18643 4.5205,-0.99785 4.52051,-3.60752 4.5205,0.0168 4.52051,0.73989 4.52051,-0.76057 4.5205,-1.59001 4.52051,-2.79832 4.52051,0.82686 4.5205,-1.87707 4.52051,-0.9051 4.5205,0.49791 4.52051,-2.6057 4.52051,-1.78815 4.5205,-2.05229 4.52051,-2.71186 4.52051,-1.24766 4.5205,0.72265 4.52051,-0.17253 4.52051,-3.74063 4.5205,-0.22666 4.52051,-4.01938 4.5205,1.10233 4.52051,2.73903 4.52051,-2.68561 4.5205,-3.00869 4.52051,3.02508 4.52051,-0.80164 4.5205,-4.20026 4.52051,-0.74488 4.5205,1.40459 4.52051,-2.54953 4.52051,-2.02429 4.5205,0.19403 4.52051,-1.82619 4.52051,-1.20011 4.5205,-3.10132 4.52051,-2.33741 4.52051,0.69751 4.5205,-0.0299 4.52051,-1.83073 4.5205,0.18264 4.52051,3.79089 4.52051,-2.5508 4.5205,-1.65176 4.52051,1.24058 4.52051,-1.14764 4.5205,-3.51634 4.52051,-3.82133 4.52051,1.09689 4.5205,0.98944 4.52051,-1.81445 4.5205,-2.21976 4.52051,0.19309 4.52051,2.31332 4.5205,-10.94152 4.52051,0.39171"
         style="fill:none;stroke:#ff7f0e;stroke-width:1.5;stroke-linecap:square;stroke-linejoin:round;stroke-miterlimit:10;stroke-dasharray:none;stroke-opacity:1"
         id="path294" /></g><g
       id="g298"
       clip-path="url(#clipPath302)"
       transform="matrix(0.57532866,0,0,0.57532866,8.9257288,141.99901)"><path
         d="m 57.6,261.5731 4.520506,4.51847 4.520507,-6.76387 4.520506,-6.05488 4.520506,-6.61176 4.520507,-7.25023 4.520506,-5.33891 4.520506,-2.91591 4.520507,-3.90609 4.520506,-2.03165 4.520503,-3.393 4.52051,-4.75627 4.52051,-2.37699 4.5205,-1.47934 4.52051,0.31606 4.52051,-0.25072 4.5205,0.21078 4.52051,1.07869 4.5205,-4.35436 4.52051,-0.05 4.52051,-0.96594 4.5205,-3.96254 4.52051,-2.71243 4.52051,-2.0033 4.5205,-0.95041 4.52051,-3.20323 4.5205,0.0619 4.52051,0.30026 4.52051,-0.80696 4.5205,-1.81157 4.52051,-2.68312 4.52051,0.84968 4.5205,-2.10314 4.52051,-1.1927 4.5205,0.0591 4.52051,-2.49897 4.52051,-1.59977 4.5205,-2.24101 4.52051,-2.75618 4.52051,-0.9041 4.5205,0.13244 4.52051,-0.5043 4.52051,-3.27777 4.5205,-0.65438 4.52051,-4.36881 4.5205,0.80027 4.52051,2.458 4.52051,-2.49716 4.5205,-3.60152 4.52051,2.51803 4.52051,-0.991 4.5205,-4.08582 4.52051,-0.91224 4.5205,0.90859 4.52051,-2.10161 4.52051,-1.72056 4.5205,-0.27052 4.52051,-1.77964 4.52051,-1.07997 4.5205,-3.98022 4.52051,-1.77621 4.52051,0.25547 4.5205,-1.04829 4.52051,-1.26882 4.5205,1.57195 4.52051,2.66586 4.52051,-3.1514 4.5205,-1.20567 4.52051,-0.232 4.52051,0.86152 4.5205,-3.79858 4.52051,-4.60198 4.52051,0.039 4.5205,2.11984 4.52051,-2.0429 4.5205,-0.61628 4.52051,0.18584 4.52051,-0.0329 4.5205,-10.24943 4.52051,3.43953"
         style="fill:none;stroke:#2ca02c;stroke-width:1.5;stroke-linecap:square;stroke-linejoin:round;stroke-miterlimit:10;stroke-dasharray:none;stroke-opacity:1"
         id="path304" /></g><path
       d="m 42.064661,293.3459 2.600775,1.43784 2.600778,-4.3512 2.600777,-3.84671 2.600777,-3.98744 2.600777,-3.8239 2.600778,-2.59151 2.600776,-1.58518 2.600777,-2.20412 2.600776,-1.10258 2.600776,-1.75904 2.600779,-2.38646 2.600779,-1.35188 2.600773,-0.67418 2.600779,-0.12984 2.600779,-0.13124 2.600773,-0.0228 2.600779,0.67073 2.600774,-2.4127 2.600779,0.0277 2.600778,-0.69572 2.600773,-2.24325 2.60078,-1.58618 2.600777,-1.15211 2.60078,-0.44591 2.60078,-1.7342 2.60076,-0.0451 2.60079,0.64352 2.60077,-0.34575 2.60078,-0.62967 2.60077,-1.8748 2.60079,0.75001 2.60076,-1.11653 2.60079,-0.30244 2.60077,0.13039 2.60079,-1.41145 2.60077,-1.01862 2.60077,-1.2555 2.60079,-1.81553 2.60077,-0.61402 2.60078,0.22342 2.60078,0.0691 2.60077,-2.18937 2.60078,-0.61942 2.60078,-1.87249 2.60077,0.0297 2.60077,1.83686 2.60079,-1.3102 2.60076,-2.1363 2.60079,0.75308 2.60078,-0.31813 2.60077,-1.67016 2.60078,-0.6889 2.60078,1.00726 2.60078,-0.61506 2.60077,-1.20168 2.60078,-0.17482 2.60077,-0.51226 2.60078,-1.41861 2.60077,-1.9595 2.60079,-0.45726 2.60077,-0.23775 2.60078,-0.13946 2.60078,-0.44219 2.60077,0.4028 2.60078,1.64532 2.60078,-0.92332 2.60077,-1.24171 2.60078,0.80927 2.60078,0.44404 2.60077,-2.11201 2.60078,-1.6604 2.60078,1.91321 2.60077,0.25544 2.60078,-1.51288 2.60078,0.96132 2.60078,-0.94503 2.60077,2.23638 2.60078,-5.60485 2.60078,-0.46798"
       style="fill:none;stroke:#9467bd;stroke-width:0.862993;stroke-linecap:square;stroke-linejoin:round;stroke-miterlimit:10;stroke-dasharray:none;stroke-opacity:1"
       id="path314" /><path
       d="M 42.064661,163.8707 V 316.97257"
       style="fill:none;stroke:#000000;stroke-width:0.460263;stroke-linecap:square;stroke-linejoin:miter;stroke-miterlimit:10;stroke-dasharray:none;stroke-opacity:1"
       id="path328" /><path
       d="M 247.52604,163.8707 V 316.97257"
       style="fill:none;stroke:#000000;stroke-width:0.460263;stroke-linecap:square;stroke-linejoin:miter;stroke-miterlimit:10;stroke-dasharray:none;stroke-opacity:1"
       id="path330" /><path
       d="M 42.064661,163.8707 H 247.52604"
       style="fill:none;stroke:#000000;stroke-width:0.460263;stroke-linecap:square;stroke-linejoin:miter;stroke-miterlimit:10;stroke-dasharray:none;stroke-opacity:1"
       id="path332" /><path
       d="M 42.064661,316.97257 H 247.52604"
       style="fill:none;stroke:#000000;stroke-width:0.460263;stroke-linecap:square;stroke-linejoin:miter;stroke-miterlimit:10;stroke-dasharray:none;stroke-opacity:1"
       id="path334" /><path
       d="m 53.574375,207.15464 h 11.50658"
       style="fill:none;stroke:#1f77b4;stroke-width:0.862993;stroke-linecap:square;stroke-linejoin:round;stroke-miterlimit:10;stroke-dasharray:none;stroke-opacity:1"
       id="path344" /><path
       d="m 53.574375,198.71348 h 11.50658"
       style="fill:none;stroke:#ff7f0e;stroke-width:0.862993;stroke-linecap:square;stroke-linejoin:round;stroke-miterlimit:10;stroke-dasharray:none;stroke-opacity:1"
       id="path350" /><path
       d="m 53.574375,190.27235 h 11.50658"
       style="fill:none;stroke:#2ca02c;stroke-width:0.862993;stroke-linecap:square;stroke-linejoin:round;stroke-miterlimit:10;stroke-dasharray:none;stroke-opacity:1"
       id="path356" /><path
       d="m 53.574375,181.83119 h 11.50658"
       style="fill:none;stroke:#9467bd;stroke-width:0.862993;stroke-linecap:square;stroke-linejoin:round;stroke-miterlimit:10;stroke-dasharray:none;stroke-opacity:1"
       id="path362" /><path
       d="m 53.574375,173.39003 h 11.50658"
       style="fill:none;stroke:#d62728;stroke-width:0.862993;stroke-linecap:square;stroke-linejoin:round;stroke-miterlimit:10;stroke-dasharray:none;stroke-opacity:1"
       id="path368" /></g><g
     inkscape:groupmode="layer"
     id="layer1"
     inkscape:label="text"
     transform="translate(-28.023958,-17.206424)"
     style="display:inline"><text
       style="font-variant:normal;font-weight:normal;font-size:7.67104px;font-family:'DejaVu Sans';-inkscape-font-specification:DejaVuSans;writing-mode:lr-tb;fill:#000000;fill-opacity:1;fill-rule:nonzero;stroke:none;stroke-width:0.767104"
       id="text32"
       x="53.546173"
       y="253.50075"><tspan
         x="53.546173 58.424965 60.864353 65.743149"
         y="253.50075"
         sodipodi:role="line"
         id="tspan30"
         style="stroke-width:0.767104">0.00</tspan></text><text
       style="font-variant:normal;font-weight:normal;font-size:7.67104px;font-family:'DejaVu Sans';-inkscape-font-specification:DejaVuSans;writing-mode:lr-tb;fill:#000000;fill-opacity:1;fill-rule:nonzero;stroke:none;stroke-width:0.767104"
       id="text50"
       x="82.223198"
       y="253.50075"><tspan
         x="82.223198 87.10199 89.541382 94.420174"
         y="253.50075"
         sodipodi:role="line"
         id="tspan48"
         style="stroke-width:0.767104">0.25</tspan></text><text
       style="font-variant:normal;font-weight:normal;font-size:7.67104px;font-family:'DejaVu Sans';-inkscape-font-specification:DejaVuSans;writing-mode:lr-tb;fill:#000000;fill-opacity:1;fill-rule:nonzero;stroke:none;stroke-width:0.767104"
       id="text68"
       x="116.90021"
       y="253.50075"><tspan
         x="116.90021 121.77901 124.21841 129.09718"
         y="253.50075"
         sodipodi:role="line"
         id="tspan66"
         style="stroke-width:0.767104">0.50</tspan></text><text
       style="font-variant:normal;font-weight:normal;font-size:7.67104px;font-family:'DejaVu Sans';-inkscape-font-specification:DejaVuSans;writing-mode:lr-tb;fill:#000000;fill-opacity:1;fill-rule:nonzero;stroke:none;stroke-width:0.767104"
       id="text86"
       x="151.57726"
       y="253.50075"><tspan
         x="151.57726 156.45604 158.89543 163.77422"
         y="253.50075"
         sodipodi:role="line"
         id="tspan84"
         style="stroke-width:0.767104">0.75</tspan></text><text
       style="font-variant:normal;font-weight:normal;font-size:7.67104px;font-family:'DejaVu Sans';-inkscape-font-specification:DejaVuSans;writing-mode:lr-tb;fill:#000000;fill-opacity:1;fill-rule:nonzero;stroke:none;stroke-width:0.767104"
       id="text104"
       x="186.25427"
       y="253.50075"><tspan
         x="186.25427 191.13307 193.57246 198.45123"
         y="253.50075"
         sodipodi:role="line"
         id="tspan102"
         style="stroke-width:0.767104">1.00</tspan></text><text
       style="font-variant:normal;font-weight:normal;font-size:7.67104px;font-family:'DejaVu Sans';-inkscape-font-specification:DejaVuSans;writing-mode:lr-tb;fill:#000000;fill-opacity:1;fill-rule:nonzero;stroke:none;stroke-width:0.767104"
       id="text122"
       x="220.93129"
       y="253.50075"><tspan
         x="220.93129 225.8101 228.24947 233.12827"
         y="253.50075"
         sodipodi:role="line"
         id="tspan120"
         style="stroke-width:0.767104">1.25</tspan></text><text
       style="font-variant:normal;font-weight:normal;font-size:7.67104px;font-family:'DejaVu Sans';-inkscape-font-specification:DejaVuSans;writing-mode:lr-tb;fill:#000000;fill-opacity:1;fill-rule:nonzero;stroke:none;stroke-width:0.767104"
       id="text140"
       x="255.60834"
       y="253.50075"><tspan
         x="255.60834 260.48712 262.92651 267.8053"
         y="253.50075"
         sodipodi:role="line"
         id="tspan138"
         style="stroke-width:0.767104">1.50</tspan></text><text
       style="font-variant:normal;font-weight:normal;font-size:7.67104px;font-family:'DejaVu Sans';-inkscape-font-specification:DejaVuSans;writing-mode:lr-tb;fill:#000000;fill-opacity:1;fill-rule:nonzero;stroke:none;stroke-width:0.767104"
       id="text158"
       x="290.28537"
       y="253.50075"><tspan
         x="290.28537 295.16412 297.60352 302.48233"
         y="253.50075"
         sodipodi:role="line"
         id="tspan156"
         style="stroke-width:0.767104">1.75</tspan></text><text
       style="font-variant:normal;font-weight:normal;font-size:7.67104px;font-family:'DejaVu Sans';-inkscape-font-specification:DejaVuSans;writing-mode:lr-tb;fill:#000000;fill-opacity:1;fill-rule:nonzero;stroke:none;stroke-width:0.767104"
       id="text162"
       x="146.63264"
       y="263.98834"><tspan
         x="146.63264 152.5777 157.29539 162.15884 166.85353 174.3251 176.45766 180.67676 183.11613 187.98726 190.11981 194.11642 197.12347 201.82584 206.68927 210.90837 215.62607 218.06543 220.65059 223.08997 229.71008 234.58122"
         y="263.98834"
         sodipodi:role="line"
         id="tspan160"
         style="stroke-width:0.767104">Genomic distance / Mbp</tspan></text><text
       style="font-variant:normal;font-weight:normal;font-size:7.67104px;font-family:'DejaVu Sans';-inkscape-font-specification:DejaVuSans;writing-mode:lr-tb;fill:#000000;fill-opacity:1;fill-rule:nonzero;stroke:none;stroke-width:0.767104"
       id="text180"
       x="38.514713"
       y="245.2184"><tspan
         x="38.514713 43.393501 45.832897"
         y="245.2184"
         sodipodi:role="line"
         id="tspan178"
         style="stroke-width:0.767104">0.0</tspan></text><text
       style="font-variant:normal;font-weight:normal;font-size:7.67104px;font-family:'DejaVu Sans';-inkscape-font-specification:DejaVuSans;writing-mode:lr-tb;fill:#000000;fill-opacity:1;fill-rule:nonzero;stroke:none;stroke-width:0.767104"
       id="text198"
       x="38.514713"
       y="204.39125"><tspan
         x="38.514713 43.393501 45.832897"
         y="204.39125"
         sodipodi:role="line"
         id="tspan196"
         style="stroke-width:0.767104">0.2</tspan></text><text
       style="font-variant:normal;font-weight:normal;font-size:7.67104px;font-family:'DejaVu Sans';-inkscape-font-specification:DejaVuSans;writing-mode:lr-tb;fill:#000000;fill-opacity:1;fill-rule:nonzero;stroke:none;stroke-width:0.767104"
       id="text216"
       x="38.514713"
       y="163.56407"><tspan
         x="38.514713 43.393501 45.832897"
         y="163.56407"
         sodipodi:role="line"
         id="tspan214"
         style="stroke-width:0.767104">0.4</tspan></text><text
       style="font-variant:normal;font-weight:normal;font-size:7.67104px;font-family:'DejaVu Sans';-inkscape-font-specification:DejaVuSans;writing-mode:lr-tb;fill:#000000;fill-opacity:1;fill-rule:nonzero;stroke:none;stroke-width:0.767104"
       id="text234"
       x="38.514713"
       y="122.73682"><tspan
         x="38.514713 43.393501 45.832897"
         y="122.73682"
         sodipodi:role="line"
         id="tspan232"
         style="stroke-width:0.767104">0.6</tspan></text><text
       style="font-variant:normal;font-weight:normal;font-size:7.67104px;font-family:'DejaVu Sans';-inkscape-font-specification:DejaVuSans;writing-mode:lr-tb;fill:#000000;fill-opacity:1;fill-rule:nonzero;stroke:none;stroke-width:0.767104"
       id="text252"
       x="38.514713"
       y="81.909683"><tspan
         x="38.514713 43.393501 45.832897"
         y="81.909683"
         sodipodi:role="line"
         id="tspan250"
         style="stroke-width:0.767104">0.8</tspan></text><text
       style="font-variant:normal;font-weight:normal;font-size:7.67104px;font-family:'DejaVu Sans';-inkscape-font-specification:DejaVuSans;writing-mode:lr-tb;fill:#000000;fill-opacity:1;fill-rule:nonzero;stroke:none;stroke-width:0.767104"
       id="text270"
       x="38.514713"
       y="41.082558"><tspan
         x="38.514713 43.393501 45.832897"
         y="41.082558"
         sodipodi:role="line"
         id="tspan268"
         style="stroke-width:0.767104">1.0</tspan></text><text
       transform="rotate(-90)"
       style="font-variant:normal;font-weight:normal;font-size:7.67104px;font-family:'DejaVu Sans';-inkscape-font-specification:DejaVuSans;writing-mode:lr-tb;fill:#000000;fill-opacity:1;fill-rule:nonzero;stroke:none;stroke-width:0.767104"
       id="text274"
       x="-177.29866"
       y="33.852158"><tspan
         x="-177.29866 -172.67299 -167.95529 -163.25294 -160.10016 -156.10355 -151.40886 -146.54543 -144.10602 -139.88695 -135.19226 -132.03944 -128.88666 -124.16888 -122.03632 -117.33398 -114.32693 -112.19437 -107.49969"
         y="33.852158"
         sodipodi:role="line"
         id="tspan272"
         style="stroke-width:0.767104">Pearson correlation</tspan></text><text
       style="font-variant:normal;font-weight:normal;font-size:9.20526px;font-family:'DejaVu Sans';-inkscape-font-specification:DejaVuSans;writing-mode:lr-tb;fill:#000000;fill-opacity:1;fill-rule:nonzero;stroke:none;stroke-width:0.767104"
       id="text338"
       x="98.328995"
       y="23.249756"><tspan
         x="98.328995 103.87975 109.541 115.18383 118.96719 123.76312 129.39674 135.23289 138.16016 143.22304 148.85666 152.64003 156.42339 162.08463 164.64368 170.28651 173.89497 176.45403 182.08765 187.92378 190.85106 196.30057 201.09653 204.02379 206.95107 212.79639 218.45763 224.29375 229.92738 238.8933 241.45236 246.51526 249.44252 255.28786 257.84692 262.64285 266.25131 271.89417 277.73026 282.79318"
         y="23.249756"
         sodipodi:role="line"
         id="tspan336"
         style="stroke-width:0.767104">Pearson correlation vs. genomic distance</tspan></text><text
       style="font-variant:normal;font-weight:normal;font-size:9.20526px;font-family:'DejaVu Sans';-inkscape-font-specification:DejaVuSans;writing-mode:lr-tb;fill:#000000;fill-opacity:1;fill-rule:nonzero;stroke:none;stroke-width:0.767104"
       id="text342"
       x="63.991753"
       y="33.567322"><tspan
         x="63.991753 71.125832 79.069969 84.924507 90.77906 96.633606 102.48815 108.34269 111.26997 114.19724 120.05179 122.97906 128.8336 131.76088 137.61542 140.54269 146.39723 149.32451 155.17905 158.10634 163.96086 169.8154 172.74268 178.59721 184.45177 187.37906 193.23358 199.08812 202.01538 207.86995 213.72449 216.65178 222.5063 228.36086 231.28813 237.14268 242.99721 245.9245 251.77902 257.63358 260.56082 266.41541 272.26996 275.19724 280.83084 286.66696 289.59424 295.6329 301.48743 307.34195 313.19653 316.12378 319.05109"
         y="33.567322"
         sodipodi:role="line"
         id="tspan340"
         style="stroke-width:0.767104">GM12878, 1,2,4,7,9,11,13,14,16,17,18,20,22 on K562, 3</tspan></text><text
       style="font-variant:normal;font-weight:normal;font-size:7.67104px;font-family:'DejaVu Sans';-inkscape-font-specification:DejaVuSans;writing-mode:lr-tb;fill:#000000;fill-opacity:1;fill-rule:nonzero;stroke:none;stroke-width:0.767104"
       id="text348"
       x="92.911469"
       y="187.27863"><tspan
         x="92.911469 97.130539 101.82523 109.29684 114.16795 116.60734 119.04677 121.1793 125.87396 129.87054 133.86714 136.30656 138.74596 143.62473 148.50352 153.38229 158.10001 162.97113 165.41052 167.99564 170.43506 175.68204 181.29724 186.65164 189.23679 191.67618 196.55496 198.99435 203.87314 208.75192"
         y="187.27863"
         sodipodi:role="line"
         id="tspan346"
         style="stroke-width:0.767104">comb. loss, 250ep / AUC: 0.543</tspan></text><text
       style="font-variant:normal;font-weight:normal;font-size:7.67104px;font-family:'DejaVu Sans';-inkscape-font-specification:DejaVuSans;writing-mode:lr-tb;fill:#000000;fill-opacity:1;fill-rule:nonzero;stroke:none;stroke-width:0.767104"
       id="text354"
       x="92.911469"
       y="198.53348"><tspan
         x="92.911469 97.130539 101.82523 109.29684 114.16795 116.60734 119.04677 121.1793 125.87396 129.87054 133.86714 136.30656 138.74596 143.62473 148.50352 153.38229 158.10001 162.97113 165.41052 167.99564 170.43506 175.68204 181.29724 186.65164 189.23679 191.67618 196.55496 198.99435 203.87314 208.75192"
         y="198.53348"
         sodipodi:role="line"
         id="tspan352"
         style="stroke-width:0.767104">comb. loss, 500ep / AUC: 0.549</tspan></text><text
       style="font-variant:normal;font-weight:normal;font-size:7.67104px;font-family:'DejaVu Sans';-inkscape-font-specification:DejaVuSans;writing-mode:lr-tb;fill:#000000;fill-opacity:1;fill-rule:nonzero;stroke:none;stroke-width:0.767104"
       id="text360"
       x="92.911469"
       y="209.78835"><tspan
         x="92.911469 97.130539 101.82523 109.29684 114.16795 116.60734 119.04677 121.1793 125.87396 129.87054 133.86714 136.30656 138.74596 143.62473 148.50352 153.38229 158.26111 162.97879 167.84991 170.28928 172.87445 175.31381 180.56085 186.17603 191.53043 194.11557 196.55496 201.43375 203.87314 208.75192 213.63071"
         y="209.78835"
         sodipodi:role="line"
         id="tspan358"
         style="stroke-width:0.767104">comb. loss, 1000ep / AUC: 0.548</tspan></text><text
       style="font-variant:normal;font-weight:normal;font-size:7.67104px;font-family:'DejaVu Sans';-inkscape-font-specification:DejaVuSans;writing-mode:lr-tb;fill:#000000;fill-opacity:1;fill-rule:nonzero;stroke:none;stroke-width:0.767104"
       id="text366"
       x="92.911469"
       y="221.04321"><tspan
         x="92.911469 95.044037 99.907455 102.04002 105.04708 107.17963 111.882 114.01454 116.45394 118.89332 123.77212 128.65083 133.52963 138.24733 143.11842 145.55783 148.14297 150.58237 155.82935 161.44458 166.79898 169.38409 171.82352 176.7023 179.14166 184.02048 188.89926"
         y="221.04321"
         sodipodi:role="line"
         id="tspan364"
         style="stroke-width:0.767104">initial, 500ep / AUC: 0.562</tspan></text><text
       style="font-variant:normal;font-weight:normal;font-size:7.67104px;font-family:'DejaVu Sans';-inkscape-font-specification:DejaVuSans;writing-mode:lr-tb;fill:#000000;fill-opacity:1;fill-rule:nonzero;stroke:none;stroke-width:0.767104"
       id="text372"
       x="92.911469"
       y="232.29807"><tspan
         x="92.911469 95.918533 99.071335 103.77367 108.63714 112.63375 115.33398 120.05164 123.20442 125.64384 131.58885 138.20897 143.08777 147.96654 152.84534 157.72409 162.60291 165.0423 167.62744 170.06683 175.31381 180.92905 186.28345 188.86859 191.30795 196.18677 198.62616 203.50491 208.38373"
         y="232.29807"
         sodipodi:role="line"
         id="tspan370"
         style="stroke-width:0.767104">transfer GM12878 / AUC: 0.652</tspan></text></g></svg>
