<?xml version="1.0" encoding="UTF-8" standalone="no"?>
<svg
   xmlns:dc="http://purl.org/dc/elements/1.1/"
   xmlns:cc="http://creativecommons.org/ns#"
   xmlns:rdf="http://www.w3.org/1999/02/22-rdf-syntax-ns#"
   xmlns:svg="http://www.w3.org/2000/svg"
   xmlns="http://www.w3.org/2000/svg"
   xmlns:sodipodi="http://sodipodi.sourceforge.net/DTD/sodipodi-0.dtd"
   xmlns:inkscape="http://www.inkscape.org/namespaces/inkscape"
   version="1.1"
   id="svg2"
   xml:space="preserve"
   width="80mm"
   height="65.300003mm"
   viewBox="0 0 302.36219 246.80316"
   sodipodi:docname="pearson_chr10.svg"
   inkscape:version="1.0.2 (1.0.2+r75+1)"><metadata
     id="metadata8"><rdf:RDF><cc:Work
         rdf:about=""><dc:format>image/svg+xml</dc:format><dc:type
           rdf:resource="http://purl.org/dc/dcmitype/StillImage" /><dc:title></dc:title></cc:Work></rdf:RDF></metadata><defs
     id="defs6"><clipPath
       clipPathUnits="userSpaceOnUse"
       id="clipPath22"><path
         d="M 57.6,38.016 H 414.72 V 304.128 H 57.6 Z"
         id="path20" /></clipPath><clipPath
       clipPathUnits="userSpaceOnUse"
       id="clipPath40"><path
         d="M 57.6,38.016 H 414.72 V 304.128 H 57.6 Z"
         id="path38" /></clipPath><clipPath
       clipPathUnits="userSpaceOnUse"
       id="clipPath58"><path
         d="M 57.6,38.016 H 414.72 V 304.128 H 57.6 Z"
         id="path56" /></clipPath><clipPath
       clipPathUnits="userSpaceOnUse"
       id="clipPath76"><path
         d="M 57.6,38.016 H 414.72 V 304.128 H 57.6 Z"
         id="path74" /></clipPath><clipPath
       clipPathUnits="userSpaceOnUse"
       id="clipPath94"><path
         d="M 57.6,38.016 H 414.72 V 304.128 H 57.6 Z"
         id="path92" /></clipPath><clipPath
       clipPathUnits="userSpaceOnUse"
       id="clipPath112"><path
         d="M 57.6,38.016 H 414.72 V 304.128 H 57.6 Z"
         id="path110" /></clipPath><clipPath
       clipPathUnits="userSpaceOnUse"
       id="clipPath130"><path
         d="M 57.6,38.016 H 414.72 V 304.128 H 57.6 Z"
         id="path128" /></clipPath><clipPath
       clipPathUnits="userSpaceOnUse"
       id="clipPath148"><path
         d="M 57.6,38.016 H 414.72 V 304.128 H 57.6 Z"
         id="path146" /></clipPath><clipPath
       clipPathUnits="userSpaceOnUse"
       id="clipPath170"><path
         d="M 57.6,38.016 H 414.72 V 304.128 H 57.6 Z"
         id="path168" /></clipPath><clipPath
       clipPathUnits="userSpaceOnUse"
       id="clipPath188"><path
         d="M 57.6,38.016 H 414.72 V 304.128 H 57.6 Z"
         id="path186" /></clipPath><clipPath
       clipPathUnits="userSpaceOnUse"
       id="clipPath206"><path
         d="M 57.6,38.016 H 414.72 V 304.128 H 57.6 Z"
         id="path204" /></clipPath><clipPath
       clipPathUnits="userSpaceOnUse"
       id="clipPath224"><path
         d="M 57.6,38.016 H 414.72 V 304.128 H 57.6 Z"
         id="path222" /></clipPath><clipPath
       clipPathUnits="userSpaceOnUse"
       id="clipPath242"><path
         d="M 57.6,38.016 H 414.72 V 304.128 H 57.6 Z"
         id="path240" /></clipPath><clipPath
       clipPathUnits="userSpaceOnUse"
       id="clipPath260"><path
         d="M 57.6,38.016 H 414.72 V 304.128 H 57.6 Z"
         id="path258" /></clipPath><clipPath
       clipPathUnits="userSpaceOnUse"
       id="clipPath282"><path
         d="M 57.6,38.016 H 414.72 V 304.128 H 57.6 Z"
         id="path280" /></clipPath><clipPath
       clipPathUnits="userSpaceOnUse"
       id="clipPath292"><path
         d="M 57.6,38.016 H 414.72 V 304.128 H 57.6 Z"
         id="path290" /></clipPath><clipPath
       clipPathUnits="userSpaceOnUse"
       id="clipPath302"><path
         d="M 57.6,38.016 H 414.72 V 304.128 H 57.6 Z"
         id="path300" /></clipPath><clipPath
       clipPathUnits="userSpaceOnUse"
       id="clipPath312"><path
         d="M 57.6,38.016 H 414.72 V 304.128 H 57.6 Z"
         id="path310" /></clipPath><clipPath
       clipPathUnits="userSpaceOnUse"
       id="clipPath322"><path
         d="M 57.6,38.016 H 414.72 V 304.128 H 57.6 Z"
         id="path320" /></clipPath><clipPath
       clipPathUnits="userSpaceOnUse"
       id="clipPath332"><path
         d="M 57.6,38.016 H 414.72 V 304.128 H 57.6 Z"
         id="path330" /></clipPath></defs><sodipodi:namedview
     pagecolor="#ffffff"
     bordercolor="#666666"
     borderopacity="1"
     objecttolerance="10"
     gridtolerance="10"
     guidetolerance="10"
     inkscape:pageopacity="0"
     inkscape:pageshadow="2"
     inkscape:window-width="1920"
     inkscape:window-height="1020"
     id="namedview4"
     showgrid="false"
     inkscape:zoom="1.8598091"
     inkscape:cx="106.16507"
     inkscape:cy="103.55616"
     inkscape:window-x="0"
     inkscape:window-y="0"
     inkscape:window-maximized="1"
     inkscape:current-layer="layer1"
     fit-margin-top="0"
     fit-margin-left="0"
     fit-margin-right="0"
     fit-margin-bottom="0"
     units="mm" /><g
     id="g10"
     inkscape:groupmode="layer"
     inkscape:label="pearson_chr10"
     transform="matrix(1.3333333,0,0,-1.3333333,-28.023958,443.59358)"><g
       id="g328"
       clip-path="url(#clipPath332)"
       style="stroke:#d62728;stroke-opacity:1"
       transform="matrix(0.57539048,0,0,0.57539048,8.9244297,141.97845)"><path
         d="m 57.6,248.06087 5.668571,-7.29187 5.668572,-2.64319 5.668571,-1.93013 5.668572,0.54601 5.668571,1.59325 5.668572,-0.82048 5.668571,4.73928 5.66857,1.5332 5.66857,-0.13717 5.66857,-0.0418 5.66858,0.0806 5.66857,-2.90026 5.66857,0.21707 5.66857,-0.3958 5.66857,1.80474 5.66857,-2.15561 5.66857,-1.25425 5.66858,1.11235 5.66857,0.67488 5.66857,-1.59361 5.66857,-2.88676 5.66857,-3.72877 5.66857,-3.70619 5.66857,-0.453 5.66858,-2.45747 5.66857,-0.95794 5.66857,1.2394 5.66857,-1.25637 5.66857,6.93874 5.66857,3.25746 5.66857,-2.18465 5.66858,-0.95258 5.66857,6.25023 5.66857,-2.70001 5.66857,-2.34489 5.66857,-2.58518 5.66857,3.99357 5.66857,0.33421 5.66858,2.02432 5.66857,-4.83246 5.66857,1.02922 5.66857,2.38637 5.66857,-4.87707 5.66857,-1.12189 5.66857,-2.62176 5.66858,2.86751 5.66857,3.78359 5.66857,-0.44397 5.66857,4.76036 5.66857,-3.69919 5.66857,0.85233 5.66857,1.144 5.66858,-2.18453 5.66857,-1.99703 5.66857,3.80299 5.66857,-2.09308 5.66857,-1.42895 5.66857,-1.48115 5.66857,-3.76073 5.66858,-4.27128 5.66857,-0.29657 5.66857,1.01551 5.66857,-3.61633"
         style="fill:none;stroke:#d62728;stroke-width:1.5;stroke-linecap:square;stroke-linejoin:round;stroke-miterlimit:10;stroke-dasharray:none;stroke-opacity:1"
         id="path334" /></g><g
       id="g16"
       transform="matrix(0.57539048,0,0,0.57539048,8.9244297,141.97845)"><g
         id="g18"
         clip-path="url(#clipPath22)"><path
           d="M 57.6,38.016 V 304.128"
           style="fill:none;stroke:#b0b0b0;stroke-width:0.8;stroke-linecap:square;stroke-linejoin:round;stroke-miterlimit:10;stroke-dasharray:none;stroke-opacity:1"
           id="path24" /></g></g><path
       d="m 42.066922,163.85249 v -2.01387"
       style="fill:#000000;fill-opacity:1;fill-rule:nonzero;stroke:#000000;stroke-width:0.460312;stroke-linecap:butt;stroke-linejoin:round;stroke-miterlimit:10;stroke-dasharray:none;stroke-opacity:1"
       id="path28" /><g
       id="g34"
       transform="matrix(0.57539048,0,0,0.57539048,8.9244297,141.97845)"><g
         id="g36"
         clip-path="url(#clipPath40)"><path
           d="M 102.94857,38.016 V 304.128"
           style="fill:none;stroke:#b0b0b0;stroke-width:0.8;stroke-linecap:square;stroke-linejoin:round;stroke-miterlimit:10;stroke-dasharray:none;stroke-opacity:1"
           id="path42" /></g></g><path
       d="m 68.160057,163.85249 v -2.01387"
       style="fill:#000000;fill-opacity:1;fill-rule:nonzero;stroke:#000000;stroke-width:0.460312;stroke-linecap:butt;stroke-linejoin:round;stroke-miterlimit:10;stroke-dasharray:none;stroke-opacity:1"
       id="path46" /><g
       id="g52"
       transform="matrix(0.57539048,0,0,0.57539048,8.9244297,141.97845)"><g
         id="g54"
         clip-path="url(#clipPath58)"><path
           d="M 148.29714,38.016 V 304.128"
           style="fill:none;stroke:#b0b0b0;stroke-width:0.8;stroke-linecap:square;stroke-linejoin:round;stroke-miterlimit:10;stroke-dasharray:none;stroke-opacity:1"
           id="path60" /></g></g><path
       d="m 94.253193,163.85249 v -2.01387"
       style="fill:#000000;fill-opacity:1;fill-rule:nonzero;stroke:#000000;stroke-width:0.460312;stroke-linecap:butt;stroke-linejoin:round;stroke-miterlimit:10;stroke-dasharray:none;stroke-opacity:1"
       id="path64" /><g
       id="g70"
       transform="matrix(0.57539048,0,0,0.57539048,8.9244297,141.97845)"><g
         id="g72"
         clip-path="url(#clipPath76)"><path
           d="M 193.64571,38.016 V 304.128"
           style="fill:none;stroke:#b0b0b0;stroke-width:0.8;stroke-linecap:square;stroke-linejoin:round;stroke-miterlimit:10;stroke-dasharray:none;stroke-opacity:1"
           id="path78" /></g></g><path
       d="m 120.34633,163.85249 v -2.01387"
       style="fill:#000000;fill-opacity:1;fill-rule:nonzero;stroke:#000000;stroke-width:0.460312;stroke-linecap:butt;stroke-linejoin:round;stroke-miterlimit:10;stroke-dasharray:none;stroke-opacity:1"
       id="path82" /><g
       id="g88"
       transform="matrix(0.57539048,0,0,0.57539048,8.9244297,141.97845)"><g
         id="g90"
         clip-path="url(#clipPath94)"><path
           d="M 238.99429,38.016 V 304.128"
           style="fill:none;stroke:#b0b0b0;stroke-width:0.8;stroke-linecap:square;stroke-linejoin:round;stroke-miterlimit:10;stroke-dasharray:none;stroke-opacity:1"
           id="path96" /></g></g><path
       d="m 146.43947,163.85249 v -2.01387"
       style="fill:#000000;fill-opacity:1;fill-rule:nonzero;stroke:#000000;stroke-width:0.460312;stroke-linecap:butt;stroke-linejoin:round;stroke-miterlimit:10;stroke-dasharray:none;stroke-opacity:1"
       id="path100" /><g
       id="g106"
       transform="matrix(0.57539048,0,0,0.57539048,8.9244297,141.97845)"><g
         id="g108"
         clip-path="url(#clipPath112)"><path
           d="M 284.34286,38.016 V 304.128"
           style="fill:none;stroke:#b0b0b0;stroke-width:0.8;stroke-linecap:square;stroke-linejoin:round;stroke-miterlimit:10;stroke-dasharray:none;stroke-opacity:1"
           id="path114" /></g></g><path
       d="m 172.53261,163.85249 v -2.01387"
       style="fill:#000000;fill-opacity:1;fill-rule:nonzero;stroke:#000000;stroke-width:0.460312;stroke-linecap:butt;stroke-linejoin:round;stroke-miterlimit:10;stroke-dasharray:none;stroke-opacity:1"
       id="path118" /><g
       id="g124"
       transform="matrix(0.57539048,0,0,0.57539048,8.9244297,141.97845)"><g
         id="g126"
         clip-path="url(#clipPath130)"><path
           d="M 329.69143,38.016 V 304.128"
           style="fill:none;stroke:#b0b0b0;stroke-width:0.8;stroke-linecap:square;stroke-linejoin:round;stroke-miterlimit:10;stroke-dasharray:none;stroke-opacity:1"
           id="path132" /></g></g><path
       d="m 198.62574,163.85249 v -2.01387"
       style="fill:#000000;fill-opacity:1;fill-rule:nonzero;stroke:#000000;stroke-width:0.460312;stroke-linecap:butt;stroke-linejoin:round;stroke-miterlimit:10;stroke-dasharray:none;stroke-opacity:1"
       id="path136" /><g
       id="g142"
       transform="matrix(0.57539048,0,0,0.57539048,8.9244297,141.97845)"><g
         id="g144"
         clip-path="url(#clipPath148)"><path
           d="M 375.04,38.016 V 304.128"
           style="fill:none;stroke:#b0b0b0;stroke-width:0.8;stroke-linecap:square;stroke-linejoin:round;stroke-miterlimit:10;stroke-dasharray:none;stroke-opacity:1"
           id="path150" /></g></g><path
       d="m 224.71887,163.85249 v -2.01387"
       style="fill:#000000;fill-opacity:1;fill-rule:nonzero;stroke:#000000;stroke-width:0.460312;stroke-linecap:butt;stroke-linejoin:round;stroke-miterlimit:10;stroke-dasharray:none;stroke-opacity:1"
       id="path154" /><g
       id="g164"
       transform="matrix(0.57539048,0,0,0.57539048,8.9244297,141.97845)"><g
         id="g166"
         clip-path="url(#clipPath170)"><path
           d="M 57.6,38.016 H 414.72"
           style="fill:none;stroke:#b0b0b0;stroke-width:0.8;stroke-linecap:square;stroke-linejoin:round;stroke-miterlimit:10;stroke-dasharray:none;stroke-opacity:1"
           id="path172" /></g></g><path
       d="M 42.066922,163.85249 H 40.053054"
       style="fill:#000000;fill-opacity:1;fill-rule:nonzero;stroke:#000000;stroke-width:0.460312;stroke-linecap:butt;stroke-linejoin:round;stroke-miterlimit:10;stroke-dasharray:none;stroke-opacity:1"
       id="path176" /><g
       id="g182"
       transform="matrix(0.57539048,0,0,0.57539048,8.9244297,141.97845)"><g
         id="g184"
         clip-path="url(#clipPath188)"><path
           d="M 57.6,91.2384 H 414.72"
           style="fill:none;stroke:#b0b0b0;stroke-width:0.8;stroke-linecap:square;stroke-linejoin:round;stroke-miterlimit:10;stroke-dasharray:none;stroke-opacity:1"
           id="path190" /></g></g><path
       d="M 42.066922,194.47615 H 40.053054"
       style="fill:#000000;fill-opacity:1;fill-rule:nonzero;stroke:#000000;stroke-width:0.460312;stroke-linecap:butt;stroke-linejoin:round;stroke-miterlimit:10;stroke-dasharray:none;stroke-opacity:1"
       id="path194" /><g
       id="g200"
       transform="matrix(0.57539048,0,0,0.57539048,8.9244297,141.97845)"><g
         id="g202"
         clip-path="url(#clipPath206)"><path
           d="M 57.6,144.4608 H 414.72"
           style="fill:none;stroke:#b0b0b0;stroke-width:0.8;stroke-linecap:square;stroke-linejoin:round;stroke-miterlimit:10;stroke-dasharray:none;stroke-opacity:1"
           id="path208" /></g></g><path
       d="M 42.066922,225.09981 H 40.053054"
       style="fill:#000000;fill-opacity:1;fill-rule:nonzero;stroke:#000000;stroke-width:0.460312;stroke-linecap:butt;stroke-linejoin:round;stroke-miterlimit:10;stroke-dasharray:none;stroke-opacity:1"
       id="path212" /><g
       id="g218"
       transform="matrix(0.57539048,0,0,0.57539048,8.9244297,141.97845)"><g
         id="g220"
         clip-path="url(#clipPath224)"><path
           d="M 57.6,197.6832 H 414.72"
           style="fill:none;stroke:#b0b0b0;stroke-width:0.8;stroke-linecap:square;stroke-linejoin:round;stroke-miterlimit:10;stroke-dasharray:none;stroke-opacity:1"
           id="path226" /></g></g><path
       d="M 42.066922,255.72348 H 40.053054"
       style="fill:#000000;fill-opacity:1;fill-rule:nonzero;stroke:#000000;stroke-width:0.460312;stroke-linecap:butt;stroke-linejoin:round;stroke-miterlimit:10;stroke-dasharray:none;stroke-opacity:1"
       id="path230" /><g
       id="g236"
       transform="matrix(0.57539048,0,0,0.57539048,8.9244297,141.97845)"><g
         id="g238"
         clip-path="url(#clipPath242)"><path
           d="M 57.6,250.9056 H 414.72"
           style="fill:none;stroke:#b0b0b0;stroke-width:0.8;stroke-linecap:square;stroke-linejoin:round;stroke-miterlimit:10;stroke-dasharray:none;stroke-opacity:1"
           id="path244" /></g></g><path
       d="M 42.066922,286.34714 H 40.053054"
       style="fill:#000000;fill-opacity:1;fill-rule:nonzero;stroke:#000000;stroke-width:0.460312;stroke-linecap:butt;stroke-linejoin:round;stroke-miterlimit:10;stroke-dasharray:none;stroke-opacity:1"
       id="path248" /><g
       id="g254"
       transform="matrix(0.57539048,0,0,0.57539048,8.9244297,141.97845)"><g
         id="g256"
         clip-path="url(#clipPath260)"><path
           d="M 57.6,304.128 H 414.72"
           style="fill:none;stroke:#b0b0b0;stroke-width:0.8;stroke-linecap:square;stroke-linejoin:round;stroke-miterlimit:10;stroke-dasharray:none;stroke-opacity:1"
           id="path262" /></g></g><path
       d="M 42.066922,316.9708 H 40.053054"
       style="fill:#000000;fill-opacity:1;fill-rule:nonzero;stroke:#000000;stroke-width:0.460312;stroke-linecap:butt;stroke-linejoin:round;stroke-miterlimit:10;stroke-dasharray:none;stroke-opacity:1"
       id="path266" /><g
       id="g278"
       clip-path="url(#clipPath282)"
       transform="matrix(0.57539048,0,0,0.57539048,8.9244297,141.97845)"><path
         d="m 57.6,247.00745 5.668571,8.13083 5.668572,-7.14832 5.668571,-5.72352 5.668572,-7.01144 5.668571,-8.82062 5.668572,-4.76126 5.668571,-5.2374 5.66857,-5.69962 5.66857,-2.31722 5.66857,-5.84884 5.66858,-5.95573 5.66857,-0.87644 5.66857,-7.51328 5.66857,-1.93591 5.66857,1.43772 5.66857,-2.49865 5.66857,3.09912 5.66858,-5.07312 5.66857,-5.11665 5.66857,-4.8259 5.66857,-0.86498 5.66857,-5.98549 5.66857,-3.67474 5.66857,3.95607 5.66858,-1.73342 5.66857,-1.98879 5.66857,1.3603 5.66857,-1.49561 5.66857,-1.17664 5.66857,-2.77325 5.66857,0.18434 5.66858,1.01159 5.66857,-4.66781 5.66857,3.25591 5.66857,-2.43848 5.66857,2.33088 5.66857,-2.68816 5.66857,-1.3919 5.66858,-2.32139 5.66857,1.55614 5.66857,-3.7186 5.66857,-5.40774 5.66857,2.12553 5.66857,0.29415 5.66857,-2.94251 5.66858,-3.73998 5.66857,2.17212 5.66857,-10.80591 5.66857,2.4521 5.66857,-2.92588 5.66857,1.39031 5.66857,-7.33335 5.66858,-0.48801 5.66857,-5.66922 5.66857,-2.92434 5.66857,-5.32033 5.66857,-0.47963 5.66857,-0.81661 5.66857,-7.07794 5.66858,-5.302408 5.66857,-8.433922 5.66857,0.536813 5.66857,-1.476715"
         style="fill:none;stroke:#1f77b4;stroke-width:1.5;stroke-linecap:square;stroke-linejoin:round;stroke-miterlimit:10;stroke-dasharray:none;stroke-opacity:1"
         id="path284" /></g><g
       id="g288"
       clip-path="url(#clipPath292)"
       transform="matrix(0.57539048,0,0,0.57539048,8.9244297,141.97845)"><path
         d="m 57.6,262.38282 5.668571,2.50681 5.668572,-9.04463 5.668571,-8.41243 5.668572,-6.59539 5.668571,-7.59813 5.668572,-2.75004 5.668571,-4.39874 5.66857,-4.96159 5.66857,-0.75696 5.66857,-3.6941 5.66858,-3.84434 5.66857,-4.58913 5.66857,-8.73977 5.66857,-1.36603 5.66857,0.22422 5.66857,-1.01485 5.66857,1.18436 5.66858,-1.93114 5.66857,-3.64375 5.66857,-4.9001 5.66857,-1.69058 5.66857,-7.45112 5.66857,-6.84994 5.66857,0.66386 5.66858,-3.92412 5.66857,-2.54026 5.66857,-0.058 5.66857,-0.71754 5.66857,0.0997 5.66857,-2.91283 5.66857,1.78538 5.66858,2.42394 5.66857,-3.38315 5.66857,2.24045 5.66857,0.0281 5.66857,4.53686 5.66857,-2.03769 5.66857,-0.55893 5.66858,-3.99913 5.66857,0.71197 5.66857,-1.24175 5.66857,-6.36378 5.66857,4.76588 5.66857,-0.42124 5.66857,-4.18457 5.66858,-4.53847 5.66857,2.23658 5.66857,-10.50973 5.66857,1.86672 5.66857,-2.51947 5.66857,2.3713 5.66857,-5.86972 5.66858,0.83149 5.66857,-5.1299 5.66857,-1.45279 5.66857,-2.51627 5.66857,-0.60297 5.66857,-0.98452 5.66857,-8.65375 5.66858,-7.7624 5.66857,-8.07006 5.66857,1.47704 5.66857,-6.1564"
         style="fill:none;stroke:#ff7f0e;stroke-width:1.5;stroke-linecap:square;stroke-linejoin:round;stroke-miterlimit:10;stroke-dasharray:none;stroke-opacity:1"
         id="path294" /></g><g
       id="g298"
       clip-path="url(#clipPath302)"
       transform="matrix(0.57539048,0,0,0.57539048,8.9244297,141.97845)"><path
         d="m 57.6,260.55705 5.668571,2.06096 5.668572,-8.4106 5.668571,-8.67794 5.668572,-5.93209 5.668571,-6.86972 5.668572,-2.43068 5.668571,-4.92736 5.66857,-4.57668 5.66857,-1.68876 5.66857,-4.93044 5.66858,-3.81603 5.66857,-3.57441 5.66857,-8.61497 5.66857,-1.78991 5.66857,-0.15411 5.66857,-0.24593 5.66857,0.72403 5.66858,-2.00258 5.66857,-3.58424 5.66857,-3.9716 5.66857,-2.34385 5.66857,-7.09617 5.66857,-6.77054 5.66857,2.50974 5.66858,-5.74033 5.66857,-1.46567 5.66857,-1.15751 5.66857,0.56187 5.66857,-2.16361 5.66857,-2.41852 5.66857,-0.7663 5.66858,3.82039 5.66857,-2.57489 5.66857,3.50933 5.66857,1.26666 5.66857,7.50393 5.66857,-3.91597 5.66857,0.10414 5.66858,-4.79144 5.66857,0.23299 5.66857,-2.22379 5.66857,-7.508 5.66857,1.50197 5.66857,1.41939 5.66857,-4.74228 5.66858,-3.93834 5.66857,2.18219 5.66857,-9.5166 5.66857,2.48053 5.66857,-3.07454 5.66857,4.54211 5.66857,-6.78633 5.66858,0.60803 5.66857,-7.27505 5.66857,-0.84477 5.66857,-1.95073 5.66857,0.67601 5.66857,-1.67325 5.66857,-6.21457 5.66858,-6.69631 5.66857,-6.58037 5.66857,-2.59512 5.66857,-5.9883"
         style="fill:none;stroke:#2ca02c;stroke-width:1.5;stroke-linecap:square;stroke-linejoin:round;stroke-miterlimit:10;stroke-dasharray:none;stroke-opacity:1"
         id="path304" /></g><g
       id="g308"
       clip-path="url(#clipPath312)"
       style="fill:#000000;fill-opacity:0;stroke:#8c564b;stroke-opacity:1"
       transform="matrix(0.57539048,0,0,0.57539048,8.9244297,141.97845)"><path
         d="m 57.6,259.22087 5.668571,2.2958 5.668572,-7.79441 5.668571,-7.56597 5.668572,-5.28535 5.668571,-6.94621 5.668572,-2.6054 5.668571,-5.42444 5.66857,-4.80834 5.66857,-1.87761 5.66857,-4.17949 5.66858,-3.47611 5.66857,-2.37435 5.66857,-7.74482 5.66857,-1.64613 5.66857,-0.99113 5.66857,-1.82348 5.66857,2.46423 5.66858,-1.52966 5.66857,-3.28082 5.66857,-4.97564 5.66857,-1.65697 5.66857,-6.65292 5.66857,-7.77023 5.66857,2.89065 5.66858,-5.6918 5.66857,-1.97793 5.66857,-1.73038 5.66857,1.09884 5.66857,-1.6936 5.66857,0.0795 5.66857,-1.01533 5.66858,4.05556 5.66857,-1.81036 5.66857,-0.16723 5.66857,2.09027 5.66857,5.48259 5.66857,-4.7647 5.66857,1.50645 5.66858,-6.06326 5.66857,-2.25764 5.66857,-0.034 5.66857,-8.07442 5.66857,0.0634 5.66857,1.43213 5.66857,-6.30614 5.66858,-5.40821 5.66857,1.23933 5.66857,-6.27044 5.66857,1.94478 5.66857,-0.47696 5.66857,3.12197 5.66857,-5.01163 5.66858,0.35268 5.66857,-5.64207 5.66857,-2.67779 5.66857,-0.94833 5.66857,-0.30399 5.66857,-1.28729 5.66857,-6.6576 5.66858,-4.6187 5.66857,-9.85566 5.66857,-3.27435 5.66857,-5.721982"
         style="fill:#000000;fill-opacity:0;stroke:#8c564b;stroke-width:1.5;stroke-linecap:square;stroke-linejoin:round;stroke-miterlimit:10;stroke-dasharray:none;stroke-opacity:1"
         id="path314" /></g><g
       id="g318"
       clip-path="url(#clipPath322)"
       transform="matrix(0.57539048,0,0,0.57539048,8.9244297,141.97845)"><path
         d="m 57.6,255.99613 5.668571,1.95544 5.668572,-6.8568 5.668571,-6.62991 5.668572,-5.25286 5.668571,-6.90285 5.668572,-3.12151 5.668571,-6.18501 5.66857,-4.51791 5.66857,-1.96296 5.66857,-4.44274 5.66858,-3.45946 5.66857,-2.95643 5.66857,-7.04435 5.66857,-1.97016 5.66857,-1.63881 5.66857,-1.82962 5.66857,3.33843 5.66858,-1.04932 5.66857,-2.9536 5.66857,-4.79533 5.66857,-1.52705 5.66857,-5.94298 5.66857,-7.3734 5.66857,2.85593 5.66858,-5.27047 5.66857,-2.37953 5.66857,-1.51538 5.66857,1.83121 5.66857,0.68781 5.66857,0.78078 5.66857,1.0395 5.66858,3.64392 5.66857,0.47104 5.66857,0.60333 5.66857,2.18716 5.66857,3.82855 5.66857,-2.75847 5.66857,-0.18764 5.66858,-4.86505 5.66857,-2.04819 5.66857,-1.26811 5.66857,-8.32777 5.66857,0.94732 5.66857,-0.65902 5.66857,-6.00711 5.66858,-6.10857 5.66857,-0.29013 5.66857,-5.36335 5.66857,1.99938 5.66857,-1.79482 5.66857,1.59812 5.66857,-4.46948 5.66858,-3.03239 5.66857,-3.82159 5.66857,-3.37503 5.66857,-4.71892 5.66857,0.43716 5.66857,-1.67069 5.66857,-4.65295 5.66858,-3.04191 5.66857,-8.30155 5.66857,-3.88182 5.66857,-4.04698"
         style="fill:none;stroke:#9467bd;stroke-width:1.5;stroke-linecap:square;stroke-linejoin:round;stroke-miterlimit:10;stroke-dasharray:none;stroke-opacity:1"
         id="path324" /></g><path
       d="M 42.066922,163.85249 V 316.9708"
       style="fill:none;stroke:#000000;stroke-width:0.460312;stroke-linecap:square;stroke-linejoin:miter;stroke-miterlimit:10;stroke-dasharray:none;stroke-opacity:1"
       id="path338" /><path
       d="M 247.55037,163.85249 V 316.9708"
       style="fill:none;stroke:#000000;stroke-width:0.460312;stroke-linecap:square;stroke-linejoin:miter;stroke-miterlimit:10;stroke-dasharray:none;stroke-opacity:1"
       id="path340" /><path
       d="M 42.066922,163.85249 H 247.55037"
       style="fill:none;stroke:#000000;stroke-width:0.460312;stroke-linecap:square;stroke-linejoin:miter;stroke-miterlimit:10;stroke-dasharray:none;stroke-opacity:1"
       id="path342" /><path
       d="M 42.066922,316.9708 H 247.55037"
       style="fill:none;stroke:#000000;stroke-width:0.460312;stroke-linecap:square;stroke-linejoin:miter;stroke-miterlimit:10;stroke-dasharray:none;stroke-opacity:1"
       id="path344" /><path
       d="M 53.719972,215.23169 H 65.227784"
       style="fill:none;stroke:#1f77b4;stroke-width:0.863086;stroke-linecap:square;stroke-linejoin:round;stroke-miterlimit:10;stroke-dasharray:none;stroke-opacity:1"
       id="path354" /><path
       d="M 53.719972,206.78963 H 65.227784"
       style="fill:none;stroke:#ff7f0e;stroke-width:0.863086;stroke-linecap:square;stroke-linejoin:round;stroke-miterlimit:10;stroke-dasharray:none;stroke-opacity:1"
       id="path360" /><path
       d="M 53.719972,198.34759 H 65.227784"
       style="fill:none;stroke:#2ca02c;stroke-width:0.863086;stroke-linecap:square;stroke-linejoin:round;stroke-miterlimit:10;stroke-dasharray:none;stroke-opacity:1"
       id="path366" /><path
       d="M 53.719972,189.90554 H 65.227784"
       style="fill:none;stroke:#8c564b;stroke-width:0.863086;stroke-linecap:square;stroke-linejoin:round;stroke-miterlimit:10;stroke-dasharray:none;stroke-opacity:1"
       id="path372" /><path
       d="M 53.719972,181.46347 H 65.227784"
       style="fill:none;stroke:#9467bd;stroke-width:0.863086;stroke-linecap:square;stroke-linejoin:round;stroke-miterlimit:10;stroke-dasharray:none;stroke-opacity:1"
       id="path378" /><path
       d="M 53.719972,173.02141 H 65.227784"
       style="fill:none;stroke:#d62728;stroke-width:0.863086;stroke-linecap:square;stroke-linejoin:round;stroke-miterlimit:10;stroke-dasharray:none;stroke-opacity:1"
       id="path384" /></g><g
     inkscape:groupmode="layer"
     id="layer1"
     inkscape:label="text"
     style="display:inline"
     transform="translate(-28.023958,-17.206424)"><text
       style="font-variant:normal;font-weight:normal;font-size:7.67187px;font-family:'DejaVu Sans';-inkscape-font-specification:DejaVuSans;writing-mode:lr-tb;fill:#000000;fill-opacity:1;fill-rule:nonzero;stroke:none;stroke-width:0.767187"
       id="text32"
       x="53.98769"
       y="253.52623"><tspan
         x="53.98769 58.867001 61.306656"
         y="253.52623"
         sodipodi:role="line"
         id="tspan30"
         style="stroke-width:0.767187">0.0</tspan></text><text
       style="font-variant:normal;font-weight:normal;font-size:7.67187px;font-family:'DejaVu Sans';-inkscape-font-specification:DejaVuSans;writing-mode:lr-tb;fill:#000000;fill-opacity:1;fill-rule:nonzero;stroke:none;stroke-width:0.767187"
       id="text50"
       x="84.778542"
       y="253.52623"><tspan
         x="84.778542 89.65786 92.097511"
         y="253.52623"
         sodipodi:role="line"
         id="tspan48"
         style="stroke-width:0.767187">0.2</tspan></text><text
       style="font-variant:normal;font-weight:normal;font-size:7.67187px;font-family:'DejaVu Sans';-inkscape-font-specification:DejaVuSans;writing-mode:lr-tb;fill:#000000;fill-opacity:1;fill-rule:nonzero;stroke:none;stroke-width:0.767187"
       id="text68"
       x="119.56938"
       y="253.52623"><tspan
         x="119.56938 124.44871 126.88835"
         y="253.52623"
         sodipodi:role="line"
         id="tspan66"
         style="stroke-width:0.767187">0.4</tspan></text><text
       style="font-variant:normal;font-weight:normal;font-size:7.67187px;font-family:'DejaVu Sans';-inkscape-font-specification:DejaVuSans;writing-mode:lr-tb;fill:#000000;fill-opacity:1;fill-rule:nonzero;stroke:none;stroke-width:0.767187"
       id="text86"
       x="154.36024"
       y="253.52623"><tspan
         x="154.36024 159.23956 161.67921"
         y="253.52623"
         sodipodi:role="line"
         id="tspan84"
         style="stroke-width:0.767187">0.6</tspan></text><text
       style="font-variant:normal;font-weight:normal;font-size:7.67187px;font-family:'DejaVu Sans';-inkscape-font-specification:DejaVuSans;writing-mode:lr-tb;fill:#000000;fill-opacity:1;fill-rule:nonzero;stroke:none;stroke-width:0.767187"
       id="text104"
       x="189.15108"
       y="253.52623"><tspan
         x="189.15108 194.0304 196.47005"
         y="253.52623"
         sodipodi:role="line"
         id="tspan102"
         style="stroke-width:0.767187">0.8</tspan></text><text
       style="font-variant:normal;font-weight:normal;font-size:7.67187px;font-family:'DejaVu Sans';-inkscape-font-specification:DejaVuSans;writing-mode:lr-tb;fill:#000000;fill-opacity:1;fill-rule:nonzero;stroke:none;stroke-width:0.767187"
       id="text122"
       x="223.94193"
       y="253.52623"><tspan
         x="223.94193 228.82123 231.26088"
         y="253.52623"
         sodipodi:role="line"
         id="tspan120"
         style="stroke-width:0.767187">1.0</tspan></text><text
       style="font-variant:normal;font-weight:normal;font-size:7.67187px;font-family:'DejaVu Sans';-inkscape-font-specification:DejaVuSans;writing-mode:lr-tb;fill:#000000;fill-opacity:1;fill-rule:nonzero;stroke:none;stroke-width:0.767187"
       id="text140"
       x="258.73279"
       y="253.52623"><tspan
         x="258.73279 263.61209 266.05173"
         y="253.52623"
         sodipodi:role="line"
         id="tspan138"
         style="stroke-width:0.767187">1.2</tspan></text><text
       style="font-variant:normal;font-weight:normal;font-size:7.67187px;font-family:'DejaVu Sans';-inkscape-font-specification:DejaVuSans;writing-mode:lr-tb;fill:#000000;fill-opacity:1;fill-rule:nonzero;stroke:none;stroke-width:0.767187"
       id="text158"
       x="293.52362"
       y="253.52623"><tspan
         x="293.52362 298.40292 300.84259"
         y="253.52623"
         sodipodi:role="line"
         id="tspan156"
         style="stroke-width:0.767187">1.4</tspan></text><text
       style="font-variant:normal;font-weight:normal;font-size:7.67187px;font-family:'DejaVu Sans';-inkscape-font-specification:DejaVuSans;writing-mode:lr-tb;fill:#000000;fill-opacity:1;fill-rule:nonzero;stroke:none;stroke-width:0.767187"
       id="text162"
       x="146.64539"
       y="264.01498"><tspan
         x="146.64539 152.59108 157.30927 162.17325 166.86842 174.34084 176.47362 180.69315 183.1328 188.00444 190.13722 194.13426 197.14163 201.8445 206.70847 210.92801 215.64621 218.08586 220.67126 223.11092 229.73175 234.60341"
         y="264.01498"
         sodipodi:role="line"
         id="tspan160"
         style="stroke-width:0.767187">Genomic distance / Mbp</tspan></text><text
       style="font-variant:normal;font-weight:normal;font-size:7.67187px;font-family:'DejaVu Sans';-inkscape-font-specification:DejaVuSans;writing-mode:lr-tb;fill:#000000;fill-opacity:1;fill-rule:nonzero;stroke:none;stroke-width:0.767187"
       id="text180"
       x="38.515842"
       y="245.243"><tspan
         x="38.515842 43.395153 45.834808"
         y="245.243"
         sodipodi:role="line"
         id="tspan178"
         style="stroke-width:0.767187">0.0</tspan></text><text
       style="font-variant:normal;font-weight:normal;font-size:7.67187px;font-family:'DejaVu Sans';-inkscape-font-specification:DejaVuSans;writing-mode:lr-tb;fill:#000000;fill-opacity:1;fill-rule:nonzero;stroke:none;stroke-width:0.767187"
       id="text198"
       x="38.515842"
       y="204.41144"><tspan
         x="38.515842 43.395153 45.834808"
         y="204.41144"
         sodipodi:role="line"
         id="tspan196"
         style="stroke-width:0.767187">0.2</tspan></text><text
       style="font-variant:normal;font-weight:normal;font-size:7.67187px;font-family:'DejaVu Sans';-inkscape-font-specification:DejaVuSans;writing-mode:lr-tb;fill:#000000;fill-opacity:1;fill-rule:nonzero;stroke:none;stroke-width:0.767187"
       id="text216"
       x="38.515842"
       y="163.57991"><tspan
         x="38.515842 43.395153 45.834808"
         y="163.57991"
         sodipodi:role="line"
         id="tspan214"
         style="stroke-width:0.767187">0.4</tspan></text><text
       style="font-variant:normal;font-weight:normal;font-size:7.67187px;font-family:'DejaVu Sans';-inkscape-font-specification:DejaVuSans;writing-mode:lr-tb;fill:#000000;fill-opacity:1;fill-rule:nonzero;stroke:none;stroke-width:0.767187"
       id="text234"
       x="38.515842"
       y="122.74825"><tspan
         x="38.515842 43.395153 45.834808"
         y="122.74825"
         sodipodi:role="line"
         id="tspan232"
         style="stroke-width:0.767187">0.6</tspan></text><text
       style="font-variant:normal;font-weight:normal;font-size:7.67187px;font-family:'DejaVu Sans';-inkscape-font-specification:DejaVuSans;writing-mode:lr-tb;fill:#000000;fill-opacity:1;fill-rule:nonzero;stroke:none;stroke-width:0.767187"
       id="text252"
       x="38.515842"
       y="81.916733"><tspan
         x="38.515842 43.395153 45.834808"
         y="81.916733"
         sodipodi:role="line"
         id="tspan250"
         style="stroke-width:0.767187">0.8</tspan></text><text
       style="font-variant:normal;font-weight:normal;font-size:7.67187px;font-family:'DejaVu Sans';-inkscape-font-specification:DejaVuSans;writing-mode:lr-tb;fill:#000000;fill-opacity:1;fill-rule:nonzero;stroke:none;stroke-width:0.767187"
       id="text270"
       x="38.515842"
       y="41.085224"><tspan
         x="38.515842 43.395153 45.834808"
         y="41.085224"
         sodipodi:role="line"
         id="tspan268"
         style="stroke-width:0.767187">1.0</tspan></text><text
       transform="rotate(-90)"
       style="font-variant:normal;font-weight:normal;font-size:7.67187px;font-family:'DejaVu Sans';-inkscape-font-specification:DejaVuSans;writing-mode:lr-tb;fill:#000000;fill-opacity:1;fill-rule:nonzero;stroke:none;stroke-width:0.767187"
       id="text274"
       x="-177.31595"
       y="33.852783"><tspan
         x="-177.31595 -172.6898 -167.9716 -163.26875 -160.1156 -156.11856 -151.42337 -146.55942 -144.11977 -139.90022 -135.20503 -132.05188 -128.89876 -124.18047 -122.04769 -117.34483 -114.33746 -112.20467 -107.50948"
         y="33.852783"
         sodipodi:role="line"
         id="tspan272"
         style="stroke-width:0.767187">Pearson correlation</tspan></text><text
       style="font-variant:normal;font-weight:normal;font-size:9.20625px;font-family:'DejaVu Sans';-inkscape-font-specification:DejaVuSans;writing-mode:lr-tb;fill:#000000;fill-opacity:1;fill-rule:nonzero;stroke:none;stroke-width:0.767187"
       id="text348"
       x="98.336548"
       y="23.250505"><tspan
         x="98.336548 103.88792 109.54977 115.1932 118.97695 123.77341 129.40764 135.2444 138.17198 143.23541 148.86964 152.65343 156.43718 162.09903 164.65837 170.30179 173.91064 176.46997 182.10422 187.94095 190.86855 196.31865 201.1151 204.04268 206.97028 212.81624 218.47809 224.31483 229.94907 238.91594 241.47528 246.53873 249.46631 255.31229 257.87161 262.66806 266.27692 271.92032 277.75708 282.82053"
         y="23.250505"
         sodipodi:role="line"
         id="tspan346"
         style="stroke-width:0.767187">Pearson correlation vs. genomic distance</tspan></text><text
       style="font-variant:normal;font-weight:normal;font-size:9.20625px;font-family:'DejaVu Sans';-inkscape-font-specification:DejaVuSans;writing-mode:lr-tb;fill:#000000;fill-opacity:1;fill-rule:nonzero;stroke:none;stroke-width:0.767187"
       id="text352"
       x="61.06472"
       y="33.569183"><tspan
         x="61.06472 68.199562 76.144562 81.999733 87.854904 93.710068 99.565254 105.42042 108.34801 111.2756 117.13078 120.05836 125.91353 128.84113 134.69629 137.62387 143.47906 146.40665 152.26183 155.18941 161.04457 166.89973 169.82733 175.6825 181.53767 184.46527 190.32043 196.17561 199.1032 204.95836 210.81354 213.74115 219.59631 225.45149 228.37906 234.23425 240.08942 243.017 248.87218 254.72737 257.65494 263.51013 269.3653 272.29288 277.92709 283.76385 286.69147 292.73074 298.58594 304.4411 310.29626 313.22385 316.15143 322.00659"
         y="33.569183"
         sodipodi:role="line"
         id="tspan350"
         style="stroke-width:0.767187">GM12878, 1,2,4,7,9,11,13,14,16,17,18,20,22 on K562, 10</tspan></text><text
       style="font-variant:normal;font-weight:normal;font-size:7.67185px;font-family:'DejaVu Sans';-inkscape-font-specification:DejaVuSans;writing-mode:lr-tb;fill:#000000;fill-opacity:1;fill-rule:nonzero;stroke:none;stroke-width:0.767185"
       id="text358"
       x="93.10791"
       y="176.50966"><tspan
         x="93.10791 97.987221 102.86654 105.30619 110.02437 114.89602 117.33567 119.92109 122.36077 127.60833 133.22415 138.57909 141.16451 143.60417 148.48347 150.92313 155.80246 160.68176"
         y="176.50966"
         sodipodi:role="line"
         id="tspan356"
         style="stroke-width:0.767185">20 ep / AUC: 0.468</tspan></text><text
       style="font-variant:normal;font-weight:normal;font-size:7.67185px;font-family:'DejaVu Sans';-inkscape-font-specification:DejaVuSans;writing-mode:lr-tb;fill:#000000;fill-opacity:1;fill-rule:nonzero;stroke:none;stroke-width:0.767185"
       id="text364"
       x="93.10791"
       y="187.76575"><tspan
         x="93.10791 97.987221 102.86654 105.30619 110.02437 114.89602 117.33567 119.92109 122.36077 127.60833 133.22415 138.57909 141.16451 143.60417 148.48347 150.92313 155.80246 160.68176"
         y="187.76575"
         sodipodi:role="line"
         id="tspan362"
         style="stroke-width:0.767185">40 ep / AUC: 0.512</tspan></text><text
       style="font-variant:normal;font-weight:normal;font-size:7.67185px;font-family:'DejaVu Sans';-inkscape-font-specification:DejaVuSans;writing-mode:lr-tb;fill:#000000;fill-opacity:1;fill-rule:nonzero;stroke:none;stroke-width:0.767185"
       id="text370"
       x="93.10791"
       y="199.02182"><tspan
         x="93.10791 97.987221 102.86654 105.30619 110.02437 114.89602 117.33567 119.92109 122.36077 127.60833 133.22415 138.57909 141.16451 143.60417 148.48347 150.92313 155.80246 160.68176"
         y="199.02182"
         sodipodi:role="line"
         id="tspan368"
         style="stroke-width:0.767185">60 ep / AUC: 0.508</tspan></text><text
       style="font-variant:normal;font-weight:normal;font-size:7.67185px;font-family:'DejaVu Sans';-inkscape-font-specification:DejaVuSans;writing-mode:lr-tb;fill:#000000;fill-opacity:1;fill-rule:nonzero;stroke:none;stroke-width:0.767185"
       id="text376"
       x="93.10791"
       y="210.27789"><tspan
         x="93.10791 97.987221 102.86654 105.30619 110.02437 114.89602 117.33567 119.92109 122.36077 127.60833 133.22415 138.57909 141.16451 143.60417 148.48347 150.92313 155.80246 160.68176"
         y="210.27789"
         sodipodi:role="line"
         id="tspan374"
         style="stroke-width:0.767185">80 ep / AUC: 0.512</tspan></text><text
       style="font-variant:normal;font-weight:normal;font-size:7.67185px;font-family:'DejaVu Sans';-inkscape-font-specification:DejaVuSans;writing-mode:lr-tb;fill:#000000;fill-opacity:1;fill-rule:nonzero;stroke:none;stroke-width:0.767185"
       id="text382"
       x="93.10791"
       y="221.53395"><tspan
         x="93.10791 97.987221 102.86654 107.74583 110.18549 114.90371 119.77532 122.215 124.80042 127.24007 132.48764 138.10344 143.45842 146.04382 148.48347 153.36281 155.80246 160.68176 165.5611"
         y="221.53395"
         sodipodi:role="line"
         id="tspan380"
         style="stroke-width:0.767185">100 ep / AUC: 0.516</tspan></text><text
       style="font-variant:normal;font-weight:normal;font-size:7.67185px;font-family:'DejaVu Sans';-inkscape-font-specification:DejaVuSans;writing-mode:lr-tb;fill:#000000;fill-opacity:1;fill-rule:nonzero;stroke:none;stroke-width:0.767185"
       id="text388"
       x="93.10791"
       y="232.79005"><tspan
         x="93.10791 96.11528 99.268425 103.97129 108.83524 112.8323 115.53278 120.25101 123.40413 125.84378 131.78949 138.41031 143.28963 148.16895 153.04826 157.92757 162.80687 165.24652 167.83197 170.27161 175.51917 181.13498 186.48994 189.07536 191.51501 196.39435 198.834 203.7133 208.59262"
         y="232.79005"
         sodipodi:role="line"
         id="tspan386"
         style="stroke-width:0.767185">transfer GM12878 / AUC: 0.738</tspan></text></g></svg>
