<?xml version="1.0" encoding="UTF-8" standalone="no"?>
<svg
   xmlns:dc="http://purl.org/dc/elements/1.1/"
   xmlns:cc="http://creativecommons.org/ns#"
   xmlns:rdf="http://www.w3.org/1999/02/22-rdf-syntax-ns#"
   xmlns:svg="http://www.w3.org/2000/svg"
   xmlns="http://www.w3.org/2000/svg"
   xmlns:sodipodi="http://sodipodi.sourceforge.net/DTD/sodipodi-0.dtd"
   xmlns:inkscape="http://www.inkscape.org/namespaces/inkscape"
   version="1.1"
   id="svg2"
   xml:space="preserve"
   width="80mm"
   height="65.300003mm"
   viewBox="0 0 302.36219 246.80316"
   sodipodi:docname="pearson_chr10.svg"
   inkscape:version="1.0.2 (1.0.2+r75+1)"><metadata
     id="metadata8"><rdf:RDF><cc:Work
         rdf:about=""><dc:format>image/svg+xml</dc:format><dc:type
           rdf:resource="http://purl.org/dc/dcmitype/StillImage" /><dc:title></dc:title></cc:Work></rdf:RDF></metadata><defs
     id="defs6"><clipPath
       clipPathUnits="userSpaceOnUse"
       id="clipPath22"><path
         d="M 57.6,38.016 H 414.72 V 304.128 H 57.6 Z"
         id="path20" /></clipPath><clipPath
       clipPathUnits="userSpaceOnUse"
       id="clipPath40"><path
         d="M 57.6,38.016 H 414.72 V 304.128 H 57.6 Z"
         id="path38" /></clipPath><clipPath
       clipPathUnits="userSpaceOnUse"
       id="clipPath58"><path
         d="M 57.6,38.016 H 414.72 V 304.128 H 57.6 Z"
         id="path56" /></clipPath><clipPath
       clipPathUnits="userSpaceOnUse"
       id="clipPath76"><path
         d="M 57.6,38.016 H 414.72 V 304.128 H 57.6 Z"
         id="path74" /></clipPath><clipPath
       clipPathUnits="userSpaceOnUse"
       id="clipPath94"><path
         d="M 57.6,38.016 H 414.72 V 304.128 H 57.6 Z"
         id="path92" /></clipPath><clipPath
       clipPathUnits="userSpaceOnUse"
       id="clipPath112"><path
         d="M 57.6,38.016 H 414.72 V 304.128 H 57.6 Z"
         id="path110" /></clipPath><clipPath
       clipPathUnits="userSpaceOnUse"
       id="clipPath130"><path
         d="M 57.6,38.016 H 414.72 V 304.128 H 57.6 Z"
         id="path128" /></clipPath><clipPath
       clipPathUnits="userSpaceOnUse"
       id="clipPath148"><path
         d="M 57.6,38.016 H 414.72 V 304.128 H 57.6 Z"
         id="path146" /></clipPath><clipPath
       clipPathUnits="userSpaceOnUse"
       id="clipPath170"><path
         d="M 57.6,38.016 H 414.72 V 304.128 H 57.6 Z"
         id="path168" /></clipPath><clipPath
       clipPathUnits="userSpaceOnUse"
       id="clipPath188"><path
         d="M 57.6,38.016 H 414.72 V 304.128 H 57.6 Z"
         id="path186" /></clipPath><clipPath
       clipPathUnits="userSpaceOnUse"
       id="clipPath206"><path
         d="M 57.6,38.016 H 414.72 V 304.128 H 57.6 Z"
         id="path204" /></clipPath><clipPath
       clipPathUnits="userSpaceOnUse"
       id="clipPath224"><path
         d="M 57.6,38.016 H 414.72 V 304.128 H 57.6 Z"
         id="path222" /></clipPath><clipPath
       clipPathUnits="userSpaceOnUse"
       id="clipPath242"><path
         d="M 57.6,38.016 H 414.72 V 304.128 H 57.6 Z"
         id="path240" /></clipPath><clipPath
       clipPathUnits="userSpaceOnUse"
       id="clipPath260"><path
         d="M 57.6,38.016 H 414.72 V 304.128 H 57.6 Z"
         id="path258" /></clipPath><clipPath
       clipPathUnits="userSpaceOnUse"
       id="clipPath282"><path
         d="M 57.6,38.016 H 414.72 V 304.128 H 57.6 Z"
         id="path280" /></clipPath><clipPath
       clipPathUnits="userSpaceOnUse"
       id="clipPath292"><path
         d="M 57.6,38.016 H 414.72 V 304.128 H 57.6 Z"
         id="path290" /></clipPath><clipPath
       clipPathUnits="userSpaceOnUse"
       id="clipPath302"><path
         d="M 57.6,38.016 H 414.72 V 304.128 H 57.6 Z"
         id="path300" /></clipPath><clipPath
       clipPathUnits="userSpaceOnUse"
       id="clipPath312"><path
         d="M 57.6,38.016 H 414.72 V 304.128 H 57.6 Z"
         id="path310" /></clipPath><clipPath
       clipPathUnits="userSpaceOnUse"
       id="clipPath322"><path
         d="M 57.6,38.016 H 414.72 V 304.128 H 57.6 Z"
         id="path320" /></clipPath><clipPath
       clipPathUnits="userSpaceOnUse"
       id="clipPath332"><path
         d="M 57.6,38.016 H 414.72 V 304.128 H 57.6 Z"
         id="path330" /></clipPath></defs><sodipodi:namedview
     pagecolor="#ffffff"
     bordercolor="#666666"
     borderopacity="1"
     objecttolerance="10"
     gridtolerance="10"
     guidetolerance="10"
     inkscape:pageopacity="0"
     inkscape:pageshadow="2"
     inkscape:window-width="1920"
     inkscape:window-height="1020"
     id="namedview4"
     showgrid="false"
     fit-margin-top="0"
     fit-margin-left="0"
     fit-margin-right="0"
     fit-margin-bottom="0"
     units="mm"
     inkscape:zoom="1.8598091"
     inkscape:cx="155.34607"
     inkscape:cy="132.91012"
     inkscape:window-x="0"
     inkscape:window-y="0"
     inkscape:window-maximized="1"
     inkscape:current-layer="layer1" /><g
     id="g10"
     inkscape:groupmode="layer"
     inkscape:label="pearson_chr10"
     transform="matrix(1.3333333,0,0,-1.3333333,-28.023958,443.59358)"><path
       d="m 53.757612,173.06376 h 11.5099"
       style="fill:none;stroke:#d62728;stroke-width:0.863243;stroke-linecap:square;stroke-linejoin:round;stroke-miterlimit:10;stroke-dasharray:none;stroke-opacity:1"
       id="path384" /><g
       id="g16"
       transform="matrix(0.575495,0,0,0.575495,8.9222329,141.93652)"><g
         id="g18"
         clip-path="url(#clipPath22)"><path
           d="M 57.6,38.016 V 304.128"
           style="fill:none;stroke:#b0b0b0;stroke-width:0.8;stroke-linecap:square;stroke-linejoin:round;stroke-miterlimit:10;stroke-dasharray:none;stroke-opacity:1"
           id="path24" /></g></g><path
       d="M 42.070745,163.81453 V 161.8003"
       style="fill:#000000;fill-opacity:1;fill-rule:nonzero;stroke:#000000;stroke-width:0.460396;stroke-linecap:butt;stroke-linejoin:round;stroke-miterlimit:10;stroke-dasharray:none;stroke-opacity:1"
       id="path28" /><g
       id="g34"
       transform="matrix(0.575495,0,0,0.575495,8.9222329,141.93652)"><g
         id="g36"
         clip-path="url(#clipPath40)"><path
           d="M 102.94857,38.016 V 304.128"
           style="fill:none;stroke:#b0b0b0;stroke-width:0.8;stroke-linecap:square;stroke-linejoin:round;stroke-miterlimit:10;stroke-dasharray:none;stroke-opacity:1"
           id="path42" /></g></g><path
       d="M 68.16862,163.81453 V 161.8003"
       style="fill:#000000;fill-opacity:1;fill-rule:nonzero;stroke:#000000;stroke-width:0.460396;stroke-linecap:butt;stroke-linejoin:round;stroke-miterlimit:10;stroke-dasharray:none;stroke-opacity:1"
       id="path46" /><g
       id="g52"
       transform="matrix(0.575495,0,0,0.575495,8.9222329,141.93652)"><g
         id="g54"
         clip-path="url(#clipPath58)"><path
           d="M 148.29714,38.016 V 304.128"
           style="fill:none;stroke:#b0b0b0;stroke-width:0.8;stroke-linecap:square;stroke-linejoin:round;stroke-miterlimit:10;stroke-dasharray:none;stroke-opacity:1"
           id="path60" /></g></g><path
       d="M 94.266496,163.81453 V 161.8003"
       style="fill:#000000;fill-opacity:1;fill-rule:nonzero;stroke:#000000;stroke-width:0.460396;stroke-linecap:butt;stroke-linejoin:round;stroke-miterlimit:10;stroke-dasharray:none;stroke-opacity:1"
       id="path64" /><g
       id="g70"
       transform="matrix(0.575495,0,0,0.575495,8.9222329,141.93652)"><g
         id="g72"
         clip-path="url(#clipPath76)"><path
           d="M 193.64571,38.016 V 304.128"
           style="fill:none;stroke:#b0b0b0;stroke-width:0.8;stroke-linecap:square;stroke-linejoin:round;stroke-miterlimit:10;stroke-dasharray:none;stroke-opacity:1"
           id="path78" /></g></g><path
       d="M 120.36437,163.81453 V 161.8003"
       style="fill:#000000;fill-opacity:1;fill-rule:nonzero;stroke:#000000;stroke-width:0.460396;stroke-linecap:butt;stroke-linejoin:round;stroke-miterlimit:10;stroke-dasharray:none;stroke-opacity:1"
       id="path82" /><g
       id="g88"
       transform="matrix(0.575495,0,0,0.575495,8.9222329,141.93652)"><g
         id="g90"
         clip-path="url(#clipPath94)"><path
           d="M 238.99429,38.016 V 304.128"
           style="fill:none;stroke:#b0b0b0;stroke-width:0.8;stroke-linecap:square;stroke-linejoin:round;stroke-miterlimit:10;stroke-dasharray:none;stroke-opacity:1"
           id="path96" /></g></g><path
       d="M 146.46225,163.81453 V 161.8003"
       style="fill:#000000;fill-opacity:1;fill-rule:nonzero;stroke:#000000;stroke-width:0.460396;stroke-linecap:butt;stroke-linejoin:round;stroke-miterlimit:10;stroke-dasharray:none;stroke-opacity:1"
       id="path100" /><g
       id="g106"
       transform="matrix(0.575495,0,0,0.575495,8.9222329,141.93652)"><g
         id="g108"
         clip-path="url(#clipPath112)"><path
           d="M 284.34286,38.016 V 304.128"
           style="fill:none;stroke:#b0b0b0;stroke-width:0.8;stroke-linecap:square;stroke-linejoin:round;stroke-miterlimit:10;stroke-dasharray:none;stroke-opacity:1"
           id="path114" /></g></g><path
       d="M 172.56012,163.81453 V 161.8003"
       style="fill:#000000;fill-opacity:1;fill-rule:nonzero;stroke:#000000;stroke-width:0.460396;stroke-linecap:butt;stroke-linejoin:round;stroke-miterlimit:10;stroke-dasharray:none;stroke-opacity:1"
       id="path118" /><g
       id="g124"
       transform="matrix(0.575495,0,0,0.575495,8.9222329,141.93652)"><g
         id="g126"
         clip-path="url(#clipPath130)"><path
           d="M 329.69143,38.016 V 304.128"
           style="fill:none;stroke:#b0b0b0;stroke-width:0.8;stroke-linecap:square;stroke-linejoin:round;stroke-miterlimit:10;stroke-dasharray:none;stroke-opacity:1"
           id="path132" /></g></g><path
       d="M 198.658,163.81453 V 161.8003"
       style="fill:#000000;fill-opacity:1;fill-rule:nonzero;stroke:#000000;stroke-width:0.460396;stroke-linecap:butt;stroke-linejoin:round;stroke-miterlimit:10;stroke-dasharray:none;stroke-opacity:1"
       id="path136" /><g
       id="g142"
       transform="matrix(0.575495,0,0,0.575495,8.9222329,141.93652)"><g
         id="g144"
         clip-path="url(#clipPath148)"><path
           d="M 375.04,38.016 V 304.128"
           style="fill:none;stroke:#b0b0b0;stroke-width:0.8;stroke-linecap:square;stroke-linejoin:round;stroke-miterlimit:10;stroke-dasharray:none;stroke-opacity:1"
           id="path150" /></g></g><path
       d="M 224.75588,163.81453 V 161.8003"
       style="fill:#000000;fill-opacity:1;fill-rule:nonzero;stroke:#000000;stroke-width:0.460396;stroke-linecap:butt;stroke-linejoin:round;stroke-miterlimit:10;stroke-dasharray:none;stroke-opacity:1"
       id="path154" /><g
       id="g164"
       transform="matrix(0.575495,0,0,0.575495,8.9222329,141.93652)"><g
         id="g166"
         clip-path="url(#clipPath170)"><path
           d="M 57.6,38.016 H 414.72"
           style="fill:none;stroke:#b0b0b0;stroke-width:0.8;stroke-linecap:square;stroke-linejoin:round;stroke-miterlimit:10;stroke-dasharray:none;stroke-opacity:1"
           id="path172" /></g></g><path
       d="M 42.070745,163.81453 H 40.056512"
       style="fill:#000000;fill-opacity:1;fill-rule:nonzero;stroke:#000000;stroke-width:0.460396;stroke-linecap:butt;stroke-linejoin:round;stroke-miterlimit:10;stroke-dasharray:none;stroke-opacity:1"
       id="path176" /><g
       id="g182"
       transform="matrix(0.575495,0,0,0.575495,8.9222329,141.93652)"><g
         id="g184"
         clip-path="url(#clipPath188)"><path
           d="M 57.6,91.2384 H 414.72"
           style="fill:none;stroke:#b0b0b0;stroke-width:0.8;stroke-linecap:square;stroke-linejoin:round;stroke-miterlimit:10;stroke-dasharray:none;stroke-opacity:1"
           id="path190" /></g></g><path
       d="M 42.070745,194.44375 H 40.056512"
       style="fill:#000000;fill-opacity:1;fill-rule:nonzero;stroke:#000000;stroke-width:0.460396;stroke-linecap:butt;stroke-linejoin:round;stroke-miterlimit:10;stroke-dasharray:none;stroke-opacity:1"
       id="path194" /><g
       id="g200"
       transform="matrix(0.575495,0,0,0.575495,8.9222329,141.93652)"><g
         id="g202"
         clip-path="url(#clipPath206)"><path
           d="M 57.6,144.4608 H 414.72"
           style="fill:none;stroke:#b0b0b0;stroke-width:0.8;stroke-linecap:square;stroke-linejoin:round;stroke-miterlimit:10;stroke-dasharray:none;stroke-opacity:1"
           id="path208" /></g></g><path
       d="M 42.070745,225.07298 H 40.056512"
       style="fill:#000000;fill-opacity:1;fill-rule:nonzero;stroke:#000000;stroke-width:0.460396;stroke-linecap:butt;stroke-linejoin:round;stroke-miterlimit:10;stroke-dasharray:none;stroke-opacity:1"
       id="path212" /><g
       id="g218"
       transform="matrix(0.575495,0,0,0.575495,8.9222329,141.93652)"><g
         id="g220"
         clip-path="url(#clipPath224)"><path
           d="M 57.6,197.6832 H 414.72"
           style="fill:none;stroke:#b0b0b0;stroke-width:0.8;stroke-linecap:square;stroke-linejoin:round;stroke-miterlimit:10;stroke-dasharray:none;stroke-opacity:1"
           id="path226" /></g></g><path
       d="M 42.070745,255.70221 H 40.056512"
       style="fill:#000000;fill-opacity:1;fill-rule:nonzero;stroke:#000000;stroke-width:0.460396;stroke-linecap:butt;stroke-linejoin:round;stroke-miterlimit:10;stroke-dasharray:none;stroke-opacity:1"
       id="path230" /><g
       id="g236"
       transform="matrix(0.575495,0,0,0.575495,8.9222329,141.93652)"><g
         id="g238"
         clip-path="url(#clipPath242)"><path
           d="M 57.6,250.9056 H 414.72"
           style="fill:none;stroke:#b0b0b0;stroke-width:0.8;stroke-linecap:square;stroke-linejoin:round;stroke-miterlimit:10;stroke-dasharray:none;stroke-opacity:1"
           id="path244" /></g></g><path
       d="M 42.070745,286.33143 H 40.056512"
       style="fill:#000000;fill-opacity:1;fill-rule:nonzero;stroke:#000000;stroke-width:0.460396;stroke-linecap:butt;stroke-linejoin:round;stroke-miterlimit:10;stroke-dasharray:none;stroke-opacity:1"
       id="path248" /><g
       id="g254"
       transform="matrix(0.575495,0,0,0.575495,8.9222329,141.93652)"><g
         id="g256"
         clip-path="url(#clipPath260)"><path
           d="M 57.6,304.128 H 414.72"
           style="fill:none;stroke:#b0b0b0;stroke-width:0.8;stroke-linecap:square;stroke-linejoin:round;stroke-miterlimit:10;stroke-dasharray:none;stroke-opacity:1"
           id="path262" /></g></g><path
       d="M 42.070745,316.96066 H 40.056512"
       style="fill:#000000;fill-opacity:1;fill-rule:nonzero;stroke:#000000;stroke-width:0.460396;stroke-linecap:butt;stroke-linejoin:round;stroke-miterlimit:10;stroke-dasharray:none;stroke-opacity:1"
       id="path266" /><g
       id="g278"
       clip-path="url(#clipPath282)"
       transform="matrix(0.575495,0,0,0.575495,8.9222329,141.93652)"><path
         d="m 57.6,250.93244 5.668571,4.31125 5.668572,-8.84782 5.668571,-7.31737 5.668572,-5.63556 5.668571,-7.53229 5.668572,-3.96154 5.668571,-4.88468 5.66857,-4.3839 5.66857,-1.0725 5.66857,-4.93733 5.66858,-1.94233 5.66857,-3.97168 5.66857,-6.23931 5.66857,-2.51532 5.66857,-1.26358 5.66857,-2.25006 5.66857,-1.69086 5.66858,-5.04751 5.66857,-4.63543 5.66857,-6.10427 5.66857,-3.42293 5.66857,-4.52897 5.66857,-5.44945 5.66857,1.31794 5.66858,-1.3943 5.66857,-2.80616 5.66857,1.02001 5.66857,-2.40725 5.66857,-2.58243 5.66857,-2.08275 5.66857,-0.66084 5.66858,0.92808 5.66857,-3.59857 5.66857,0.30636 5.66857,-2.08786 5.66857,2.55088 5.66857,-2.21281 5.66857,-0.72685 5.66858,-2.98264 5.66857,2.79349 5.66857,-2.86502 5.66857,-3.71991 5.66857,3.7082 5.66857,-0.92281 5.66857,-1.57462 5.66858,-1.7516 5.66857,0.96074 5.66857,-9.51725 5.66857,1.39383 5.66857,-2.06964 5.66857,1.94292 5.66857,-7.11597 5.66858,-0.50174 5.66857,-2.84369 5.66857,-4.94222 5.66857,-1.5534 5.66857,-0.34952 5.66857,-0.4394 5.66857,-7.67741 5.66858,-0.67046 5.66857,-6.988514 5.66857,4.509035 5.66857,-1.05755"
         style="fill:none;stroke:#1f77b4;stroke-width:1.5;stroke-linecap:square;stroke-linejoin:round;stroke-miterlimit:10;stroke-dasharray:none;stroke-opacity:1"
         id="path284" /></g><g
       id="g288"
       clip-path="url(#clipPath292)"
       transform="matrix(0.575495,0,0,0.575495,8.9222329,141.93652)"><path
         d="m 57.6,259.57792 5.668571,3.7403 5.668572,-9.20685 5.668571,-8.05335 5.668572,-6.59149 5.668571,-7.85661 5.668572,-3.72749 5.668571,-4.94973 5.66857,-6.28117 5.66857,-0.84241 5.66857,-4.73553 5.66858,-1.07279 5.66857,-3.0857 5.66857,-5.32229 5.66857,-1.62793 5.66857,0.81881 5.66857,-2.21275 5.66857,-0.1537 5.66858,-5.13077 5.66857,-4.41638 5.66857,-6.95751 5.66857,-3.4399 5.66857,-6.49307 5.66857,-5.12335 5.66857,1.14853 5.66858,-2.07337 5.66857,-3.42606 5.66857,0.28266 5.66857,-2.34536 5.66857,-1.30217 5.66857,-3.37019 5.66857,0.93997 5.66858,1.38366 5.66857,-3.90458 5.66857,-0.61834 5.66857,-0.70268 5.66857,2.54478 5.66857,-2.03326 5.66857,0.36797 5.66858,-3.0309 5.66857,1.3212 5.66857,-1.50066 5.66857,-4.95945 5.66857,4.12922 5.66857,-0.26526 5.66857,-1.79878 5.66858,-1.86056 5.66857,1.54664 5.66857,-7.39452 5.66857,0.35249 5.66857,-1.18496 5.66857,2.96281 5.66857,-5.97401 5.66858,-0.29824 5.66857,-2.64763 5.66857,-2.04362 5.66857,2.37383 5.66857,-0.0402 5.66857,1.95974 5.66857,-4.88597 5.66858,-2.12012 5.66857,-5.0087 5.66857,1.3332 5.66857,-6.43702"
         style="fill:none;stroke:#ff7f0e;stroke-width:1.5;stroke-linecap:square;stroke-linejoin:round;stroke-miterlimit:10;stroke-dasharray:none;stroke-opacity:1"
         id="path294" /></g><g
       id="g298"
       clip-path="url(#clipPath302)"
       transform="matrix(0.575495,0,0,0.575495,8.9222329,141.93652)"><path
         d="m 57.6,261.8696 5.668571,2.84635 5.668572,-9.08138 5.668571,-7.67718 5.668572,-5.54856 5.668571,-7.00603 5.668572,-2.44442 5.668571,-4.10263 5.66857,-5.72013 5.66857,-1.03582 5.66857,-4.43293 5.66858,-1.44509 5.66857,-2.56433 5.66857,-6.23915 5.66857,-1.67399 5.66857,0.32102 5.66857,-2.72983 5.66857,0.23772 5.66858,-5.26529 5.66857,-4.74902 5.66857,-7.3358 5.66857,-2.9633 5.66857,-6.27899 5.66857,-4.60692 5.66857,1.93486 5.66858,-2.16322 5.66857,-2.82858 5.66857,0.53863 5.66857,-1.7324 5.66857,-0.25042 5.66857,-3.33615 5.66857,1.28841 5.66858,0.72047 5.66857,-4.14588 5.66857,-0.93533 5.66857,0.15028 5.66857,2.41274 5.66857,-2.75626 5.66857,0.21432 5.66858,-3.65165 5.66857,1.0515 5.66857,-0.82817 5.66857,-5.60146 5.66857,3.9196 5.66857,0.85395 5.66857,-2.29373 5.66858,-1.70951 5.66857,-0.17233 5.66857,-7.53095 5.66857,0.65069 5.66857,-1.29828 5.66857,3.1348 5.66857,-4.52038 5.66858,-2.69961 5.66857,-2.26899 5.66857,-1.20947 5.66857,0.90565 5.66857,-0.52812 5.66857,0.98744 5.66857,-2.1989 5.66858,-2.29825 5.66857,-3.68421 5.66857,0.52576 5.66857,-5.89527"
         style="fill:none;stroke:#2ca02c;stroke-width:1.5;stroke-linecap:square;stroke-linejoin:round;stroke-miterlimit:10;stroke-dasharray:none;stroke-opacity:1"
         id="path304" /></g><g
       id="g308"
       clip-path="url(#clipPath312)"
       style="stroke:#8c564b;stroke-opacity:1"
       transform="matrix(0.575495,0,0,0.575495,8.9222329,141.93652)"><path
         d="m 57.6,263.68763 5.668571,2.01787 5.668572,-9.46401 5.668571,-7.75794 5.668572,-5.46759 5.668571,-6.67833 5.668572,-2.01356 5.668571,-3.79244 5.66857,-5.52267 5.66857,-1.1144 5.66857,-4.16368 5.66858,-1.9155 5.66857,-2.69257 5.66857,-6.55761 5.66857,-1.24302 5.66857,0.44603 5.66857,-2.4911 5.66857,1.67087 5.66858,-4.43098 5.66857,-3.80508 5.66857,-7.06337 5.66857,-2.81621 5.66857,-6.5276 5.66857,-5.24756 5.66857,2.14481 5.66858,-3.2778 5.66857,-2.95725 5.66857,0.28787 5.66857,-1.09011 5.66857,0.0372 5.66857,-2.77137 5.66857,1.09651 5.66858,0.84911 5.66857,-3.31648 5.66857,-0.73544 5.66857,0.38933 5.66857,2.93663 5.66857,-2.88489 5.66857,0.22549 5.66858,-3.98564 5.66857,1.28401 5.66857,-0.7357 5.66857,-6.3094 5.66857,4.35373 5.66857,1.10653 5.66857,-2.37442 5.66858,-1.28433 5.66857,-1.24236 5.66857,-8.23681 5.66857,0.21593 5.66857,-1.99801 5.66857,2.55332 5.66857,-5.2133 5.66858,-3.02443 5.66857,-3.15928 5.66857,-1.57723 5.66857,0.36941 5.66857,-0.27075 5.66857,2.13855 5.66857,-2.57077 5.66858,-2.14947 5.66857,-2.50873 5.66857,-2.58508 5.66857,-6.55673"
         style="fill:none;stroke:#8c564b;stroke-width:1.5;stroke-linecap:square;stroke-linejoin:round;stroke-miterlimit:10;stroke-dasharray:none;stroke-opacity:1"
         id="path314" /></g><g
       id="g318"
       clip-path="url(#clipPath322)"
       transform="matrix(0.575495,0,0,0.575495,8.9222329,141.93652)"><path
         d="m 57.6,259.84667 5.668571,2.24027 5.668572,-9.42866 5.668571,-7.36524 5.668572,-5.16575 5.668571,-6.50383 5.668572,-1.69248 5.668571,-3.67019 5.66857,-5.21733 5.66857,-0.79981 5.66857,-3.72227 5.66858,-1.77131 5.66857,-1.86716 5.66857,-6.3347 5.66857,-0.0858 5.66857,0.82225 5.66857,-1.73903 5.66857,2.69134 5.66858,-3.09476 5.66857,-3.17324 5.66857,-7.11591 5.66857,-2.65955 5.66857,-7.08001 5.66857,-5.98364 5.66857,1.54042 5.66858,-4.69655 5.66857,-3.49532 5.66857,-0.79073 5.66857,-1.25751 5.66857,-0.39553 5.66857,-2.74038 5.66857,-0.24401 5.66858,0.22472 5.66857,-2.43882 5.66857,0.3253 5.66857,1.20491 5.66857,3.90131 5.66857,-2.16952 5.66857,1.38034 5.66858,-4.62694 5.66857,1.03224 5.66857,0.77748 5.66857,-6.29131 5.66857,3.88408 5.66857,2.27044 5.66857,-3.78991 5.66858,-1.17353 5.66857,-2.98127 5.66857,-5.91924 5.66857,-1.22084 5.66857,-2.8218 5.66857,2.22994 5.66857,-5.11119 5.66858,-2.97788 5.66857,-4.8078 5.66857,-2.81254 5.66857,0.0146 5.66857,-3.42814 5.66857,-0.87266 5.66857,-2.94494 5.66858,-2.36262 5.66857,-3.2648 5.66857,-3.34862 5.66857,-7.41946"
         style="fill:none;stroke:#9467bd;stroke-width:1.5;stroke-linecap:square;stroke-linejoin:round;stroke-miterlimit:10;stroke-dasharray:none;stroke-opacity:1"
         id="path324" /></g><g
       id="g328"
       clip-path="url(#clipPath332)"
       style="stroke:#d62728;stroke-opacity:1"
       transform="matrix(0.575495,0,0,0.575495,8.9222329,141.93652)"><path
         d="m 57.6,248.06087 5.668571,-7.29187 5.668572,-2.64319 5.668571,-1.93013 5.668572,0.54601 5.668571,1.59325 5.668572,-0.82048 5.668571,4.73928 5.66857,1.5332 5.66857,-0.13717 5.66857,-0.0418 5.66858,0.0806 5.66857,-2.90026 5.66857,0.21707 5.66857,-0.3958 5.66857,1.80474 5.66857,-2.15561 5.66857,-1.25425 5.66858,1.11235 5.66857,0.67488 5.66857,-1.59361 5.66857,-2.88676 5.66857,-3.72877 5.66857,-3.70619 5.66857,-0.453 5.66858,-2.45747 5.66857,-0.95794 5.66857,1.2394 5.66857,-1.25637 5.66857,6.93874 5.66857,3.25746 5.66857,-2.18465 5.66858,-0.95258 5.66857,6.25023 5.66857,-2.70001 5.66857,-2.34489 5.66857,-2.58518 5.66857,3.99357 5.66857,0.33421 5.66858,2.02432 5.66857,-4.83246 5.66857,1.02922 5.66857,2.38637 5.66857,-4.87707 5.66857,-1.12189 5.66857,-2.62176 5.66858,2.86751 5.66857,3.78359 5.66857,-0.44397 5.66857,4.76036 5.66857,-3.69919 5.66857,0.85233 5.66857,1.144 5.66858,-2.18453 5.66857,-1.99703 5.66857,3.80299 5.66857,-2.09308 5.66857,-1.42895 5.66857,-1.48115 5.66857,-3.76073 5.66858,-4.27128 5.66857,-0.29657 5.66857,1.01551 5.66857,-3.61633"
         style="fill:none;stroke:#d62728;stroke-width:1.5;stroke-linecap:square;stroke-linejoin:round;stroke-miterlimit:10;stroke-dasharray:none;stroke-opacity:1"
         id="path334" /></g><path
       d="M 42.070745,163.81453 V 316.96066"
       style="fill:none;stroke:#000000;stroke-width:0.460396;stroke-linecap:square;stroke-linejoin:miter;stroke-miterlimit:10;stroke-dasharray:none;stroke-opacity:1"
       id="path338" /><path
       d="M 247.59152,163.81453 V 316.96066"
       style="fill:none;stroke:#000000;stroke-width:0.460396;stroke-linecap:square;stroke-linejoin:miter;stroke-miterlimit:10;stroke-dasharray:none;stroke-opacity:1"
       id="path340" /><path
       d="M 42.070745,163.81453 H 247.59152"
       style="fill:none;stroke:#000000;stroke-width:0.460396;stroke-linecap:square;stroke-linejoin:miter;stroke-miterlimit:10;stroke-dasharray:none;stroke-opacity:1"
       id="path342" /><path
       d="M 42.070745,316.96066 H 247.59152"
       style="fill:none;stroke:#000000;stroke-width:0.460396;stroke-linecap:square;stroke-linejoin:miter;stroke-miterlimit:10;stroke-dasharray:none;stroke-opacity:1"
       id="path344" /><path
       d="m 53.757612,215.28171 h 11.5099"
       style="fill:none;stroke:#1f77b4;stroke-width:0.863243;stroke-linecap:square;stroke-linejoin:round;stroke-miterlimit:10;stroke-dasharray:none;stroke-opacity:1"
       id="path354" /><path
       d="m 53.757612,206.83812 h 11.5099"
       style="fill:none;stroke:#ff7f0e;stroke-width:0.863243;stroke-linecap:square;stroke-linejoin:round;stroke-miterlimit:10;stroke-dasharray:none;stroke-opacity:1"
       id="path360" /><path
       d="m 53.757612,198.39453 h 11.5099"
       style="fill:none;stroke:#2ca02c;stroke-width:0.863243;stroke-linecap:square;stroke-linejoin:round;stroke-miterlimit:10;stroke-dasharray:none;stroke-opacity:1"
       id="path366" /><path
       d="m 53.757612,189.95094 h 11.5099"
       style="fill:none;stroke:#8c564b;stroke-width:0.863243;stroke-linecap:square;stroke-linejoin:round;stroke-miterlimit:10;stroke-dasharray:none;stroke-opacity:1"
       id="path372" /><path
       d="m 53.757612,181.50735 h 11.5099"
       style="fill:none;stroke:#9467bd;stroke-width:0.863243;stroke-linecap:square;stroke-linejoin:round;stroke-miterlimit:10;stroke-dasharray:none;stroke-opacity:1"
       id="path378" /></g><g
     inkscape:groupmode="layer"
     id="layer1"
     inkscape:label="text"
     style="display:inline"
     transform="translate(-28.023958,-17.206424)"><text
       style="font-variant:normal;font-weight:normal;font-size:7.67326px;font-family:'DejaVu Sans';-inkscape-font-specification:DejaVuSans;writing-mode:lr-tb;fill:#000000;fill-opacity:1;fill-rule:nonzero;stroke:none;stroke-width:0.767327"
       id="text388"
       x="93.161987"
       y="232.73402"><tspan
         x="93.161987 96.169907 99.323608 104.02732 108.89218 112.88994 115.59093 120.31 123.46372 125.90379 131.85056 138.47258 143.3528 148.233 153.11319 157.99338 162.87357 165.31366 167.89954 170.33966 175.58817 181.20499 186.56094 189.14682 191.58694 196.46716 198.90723 203.78741 208.66763"
         y="232.73402"
         sodipodi:role="line"
         id="tspan386"
         style="stroke-width:0.767327">transfer GM12878 / AUC: 0.738</tspan></text><text
       style="font-variant:normal;font-weight:normal;font-size:7.67326px;font-family:'DejaVu Sans';-inkscape-font-specification:DejaVuSans;writing-mode:lr-tb;fill:#000000;fill-opacity:1;fill-rule:nonzero;stroke:none;stroke-width:0.767327"
       id="text32"
       x="53.991676"
       y="253.57878"><tspan
         x="53.991676 58.871876 61.311974"
         y="253.57878"
         sodipodi:role="line"
         id="tspan30"
         style="stroke-width:0.767327">0.0</tspan></text><text
       style="font-variant:normal;font-weight:normal;font-size:7.67326px;font-family:'DejaVu Sans';-inkscape-font-specification:DejaVuSans;writing-mode:lr-tb;fill:#000000;fill-opacity:1;fill-rule:nonzero;stroke:none;stroke-width:0.767327"
       id="text50"
       x="84.788849"
       y="253.57878"><tspan
         x="84.788849 89.669052 92.109154"
         y="253.57878"
         sodipodi:role="line"
         id="tspan48"
         style="stroke-width:0.767327">0.2</tspan></text><text
       style="font-variant:normal;font-weight:normal;font-size:7.67326px;font-family:'DejaVu Sans';-inkscape-font-specification:DejaVuSans;writing-mode:lr-tb;fill:#000000;fill-opacity:1;fill-rule:nonzero;stroke:none;stroke-width:0.767327"
       id="text68"
       x="119.58602"
       y="253.57878"><tspan
         x="119.58602 124.46622 126.90631"
         y="253.57878"
         sodipodi:role="line"
         id="tspan66"
         style="stroke-width:0.767327">0.4</tspan></text><text
       style="font-variant:normal;font-weight:normal;font-size:7.67326px;font-family:'DejaVu Sans';-inkscape-font-specification:DejaVuSans;writing-mode:lr-tb;fill:#000000;fill-opacity:1;fill-rule:nonzero;stroke:none;stroke-width:0.767327"
       id="text86"
       x="154.38319"
       y="253.57878"><tspan
         x="154.38319 159.26338 161.70348"
         y="253.57878"
         sodipodi:role="line"
         id="tspan84"
         style="stroke-width:0.767327">0.6</tspan></text><text
       style="font-variant:normal;font-weight:normal;font-size:7.67326px;font-family:'DejaVu Sans';-inkscape-font-specification:DejaVuSans;writing-mode:lr-tb;fill:#000000;fill-opacity:1;fill-rule:nonzero;stroke:none;stroke-width:0.767327"
       id="text104"
       x="189.18034"
       y="253.57878"><tspan
         x="189.18034 194.06055 196.50064"
         y="253.57878"
         sodipodi:role="line"
         id="tspan102"
         style="stroke-width:0.767327">0.8</tspan></text><text
       style="font-variant:normal;font-weight:normal;font-size:7.67326px;font-family:'DejaVu Sans';-inkscape-font-specification:DejaVuSans;writing-mode:lr-tb;fill:#000000;fill-opacity:1;fill-rule:nonzero;stroke:none;stroke-width:0.767327"
       id="text122"
       x="223.97752"
       y="253.57878"><tspan
         x="223.97752 228.85771 231.29781"
         y="253.57878"
         sodipodi:role="line"
         id="tspan120"
         style="stroke-width:0.767327">1.0</tspan></text><text
       style="font-variant:normal;font-weight:normal;font-size:7.67326px;font-family:'DejaVu Sans';-inkscape-font-specification:DejaVuSans;writing-mode:lr-tb;fill:#000000;fill-opacity:1;fill-rule:nonzero;stroke:none;stroke-width:0.767327"
       id="text140"
       x="258.77469"
       y="253.57878"><tspan
         x="258.77469 263.65488 266.09497"
         y="253.57878"
         sodipodi:role="line"
         id="tspan138"
         style="stroke-width:0.767327">1.2</tspan></text><text
       style="font-variant:normal;font-weight:normal;font-size:7.67326px;font-family:'DejaVu Sans';-inkscape-font-specification:DejaVuSans;writing-mode:lr-tb;fill:#000000;fill-opacity:1;fill-rule:nonzero;stroke:none;stroke-width:0.767327"
       id="text158"
       x="293.57184"
       y="253.57878"><tspan
         x="293.57184 298.45206 300.89215"
         y="253.57878"
         sodipodi:role="line"
         id="tspan156"
         style="stroke-width:0.767327">1.4</tspan></text><text
       style="font-variant:normal;font-weight:normal;font-size:7.67326px;font-family:'DejaVu Sans';-inkscape-font-specification:DejaVuSans;writing-mode:lr-tb;fill:#000000;fill-opacity:1;fill-rule:nonzero;stroke:none;stroke-width:0.767327"
       id="text162"
       x="146.66693"
       y="264.06958"><tspan
         x="146.66693 152.61371 157.33276 162.19762 166.89366 174.36742 176.50058 180.72087 183.161 188.03349 190.16667 194.16444 197.17236 201.87608 206.74092 210.96123 215.6803 218.12038 220.70627 223.14636 229.76839 234.64091"
         y="264.06958"
         sodipodi:role="line"
         id="tspan160"
         style="stroke-width:0.767327">Genomic distance / Mbp</tspan></text><text
       style="font-variant:normal;font-weight:normal;font-size:7.67326px;font-family:'DejaVu Sans';-inkscape-font-specification:DejaVuSans;writing-mode:lr-tb;fill:#000000;fill-opacity:1;fill-rule:nonzero;stroke:none;stroke-width:0.767327"
       id="text180"
       x="38.51775"
       y="245.29405"><tspan
         x="38.51775 43.397949 45.838047"
         y="245.29405"
         sodipodi:role="line"
         id="tspan178"
         style="stroke-width:0.767327">0.0</tspan></text><text
       style="font-variant:normal;font-weight:normal;font-size:7.67326px;font-family:'DejaVu Sans';-inkscape-font-specification:DejaVuSans;writing-mode:lr-tb;fill:#000000;fill-opacity:1;fill-rule:nonzero;stroke:none;stroke-width:0.767327"
       id="text198"
       x="38.51775"
       y="204.45509"><tspan
         x="38.51775 43.397949 45.838047"
         y="204.45509"
         sodipodi:role="line"
         id="tspan196"
         style="stroke-width:0.767327">0.2</tspan></text><text
       style="font-variant:normal;font-weight:normal;font-size:7.67326px;font-family:'DejaVu Sans';-inkscape-font-specification:DejaVuSans;writing-mode:lr-tb;fill:#000000;fill-opacity:1;fill-rule:nonzero;stroke:none;stroke-width:0.767327"
       id="text216"
       x="38.51775"
       y="163.61612"><tspan
         x="38.51775 43.397949 45.838047"
         y="163.61612"
         sodipodi:role="line"
         id="tspan214"
         style="stroke-width:0.767327">0.4</tspan></text><text
       style="font-variant:normal;font-weight:normal;font-size:7.67326px;font-family:'DejaVu Sans';-inkscape-font-specification:DejaVuSans;writing-mode:lr-tb;fill:#000000;fill-opacity:1;fill-rule:nonzero;stroke:none;stroke-width:0.767327"
       id="text234"
       x="38.51775"
       y="122.7772"><tspan
         x="38.51775 43.397949 45.838047"
         y="122.7772"
         sodipodi:role="line"
         id="tspan232"
         style="stroke-width:0.767327">0.6</tspan></text><text
       style="font-variant:normal;font-weight:normal;font-size:7.67326px;font-family:'DejaVu Sans';-inkscape-font-specification:DejaVuSans;writing-mode:lr-tb;fill:#000000;fill-opacity:1;fill-rule:nonzero;stroke:none;stroke-width:0.767327"
       id="text252"
       x="38.51775"
       y="81.938248"><tspan
         x="38.51775 43.397949 45.838047"
         y="81.938248"
         sodipodi:role="line"
         id="tspan250"
         style="stroke-width:0.767327">0.8</tspan></text><text
       style="font-variant:normal;font-weight:normal;font-size:7.67326px;font-family:'DejaVu Sans';-inkscape-font-specification:DejaVuSans;writing-mode:lr-tb;fill:#000000;fill-opacity:1;fill-rule:nonzero;stroke:none;stroke-width:0.767327"
       id="text270"
       x="38.51775"
       y="41.099285"><tspan
         x="38.51775 43.397949 45.838047"
         y="41.099285"
         sodipodi:role="line"
         id="tspan268"
         style="stroke-width:0.767327">1.0</tspan></text><text
       transform="rotate(-90)"
       style="font-variant:normal;font-weight:normal;font-size:7.67326px;font-family:'DejaVu Sans';-inkscape-font-specification:DejaVuSans;writing-mode:lr-tb;fill:#000000;fill-opacity:1;fill-rule:nonzero;stroke:none;stroke-width:0.767327"
       id="text274"
       x="-177.35466"
       y="33.853844"><tspan
         x="-177.35466 -172.72768 -168.00864 -163.3049 -160.1512 -156.15343 -151.45738 -146.59254 -144.15245 -139.93216 -135.2361 -132.08238 -128.92868 -124.20966 -122.07647 -117.37275 -114.36489 -112.23166 -107.53563"
         y="33.853844"
         sodipodi:role="line"
         id="tspan272"
         style="stroke-width:0.767327">Pearson correlation</tspan></text><text
       style="font-variant:normal;font-weight:normal;font-size:9.20792px;font-family:'DejaVu Sans';-inkscape-font-specification:DejaVuSans;writing-mode:lr-tb;fill:#000000;fill-opacity:1;fill-rule:nonzero;stroke:none;stroke-width:0.767327"
       id="text348"
       x="98.349327"
       y="23.26133"><tspan
         x="98.349327 103.9017 109.56457 115.20903 118.99348 123.79081 129.42606 135.26389 138.19199 143.25635 148.8916 152.67606 156.46051 162.12338 164.68318 170.32764 173.93713 176.49695 182.13219 187.97 190.89813 196.34921 201.14655 204.07466 207.00279 212.84981 218.51268 224.35048 229.98575 238.95425 241.51405 246.57841 249.50655 255.35356 257.91336 262.71069 266.32022 271.96463 277.80246 282.86682"
         y="23.26133"
         sodipodi:role="line"
         id="tspan346"
         style="stroke-width:0.767327">Pearson correlation vs. genomic distance</tspan></text><text
       style="font-variant:normal;font-weight:normal;font-size:9.20792px;font-family:'DejaVu Sans';-inkscape-font-specification:DejaVuSans;writing-mode:lr-tb;fill:#000000;fill-opacity:1;fill-rule:nonzero;stroke:none;stroke-width:0.767327"
       id="text352"
       x="61.070724"
       y="33.581882"><tspan
         x="61.070724 68.206863 76.153305 82.009537 87.865768 93.722 99.578247 105.43447 108.3626 111.29071 117.14697 120.07508 125.93131 128.85944 134.71567 137.64378 143.50003 146.42815 152.28439 155.21249 161.06874 166.92496 169.8531 175.70932 181.56557 184.49368 190.34991 196.20616 199.13428 204.99051 210.84674 213.77487 219.6311 225.48737 228.41545 234.27171 240.12793 243.05606 248.91229 254.76854 257.69666 263.55289 269.40915 272.33725 277.9725 283.8103 286.73843 292.77884 298.63507 304.4913 310.34756 313.27567 316.20377 322.06"
         y="33.581882"
         sodipodi:role="line"
         id="tspan350"
         style="stroke-width:0.767327">GM12878, 1,2,4,7,9,11,13,14,16,17,18,20,22 on K562, 10</tspan></text><text
       style="font-variant:normal;font-weight:normal;font-size:7.67326px;font-family:'DejaVu Sans';-inkscape-font-specification:DejaVuSans;writing-mode:lr-tb;fill:#000000;fill-opacity:1;fill-rule:nonzero;stroke:none;stroke-width:0.767327"
       id="text358"
       x="93.161987"
       y="176.44344"><tspan
         x="93.161987 98.042175 102.92237 105.36247 110.08153 114.95406 117.39414 119.98003 122.42016 127.66866 133.28546 138.64139 141.22728 143.66739 148.54758 150.9877 155.86789 160.74808"
         y="176.44344"
         sodipodi:role="line"
         id="tspan356"
         style="stroke-width:0.767327">20 ep / AUC: 0.456</tspan></text><text
       style="font-variant:normal;font-weight:normal;font-size:7.67326px;font-family:'DejaVu Sans';-inkscape-font-specification:DejaVuSans;writing-mode:lr-tb;fill:#000000;fill-opacity:1;fill-rule:nonzero;stroke:none;stroke-width:0.767327"
       id="text364"
       x="93.161987"
       y="187.70155"><tspan
         x="93.161987 98.042175 102.92237 105.36247 110.08153 114.95406 117.39414 119.98003 122.42016 127.66866 133.28546 138.64139 141.22728 143.66739 148.54758 150.9877 155.86789 160.74808"
         y="187.70155"
         sodipodi:role="line"
         id="tspan362"
         style="stroke-width:0.767327">40 ep / AUC: 0.497</tspan></text><text
       style="font-variant:normal;font-weight:normal;font-size:7.67326px;font-family:'DejaVu Sans';-inkscape-font-specification:DejaVuSans;writing-mode:lr-tb;fill:#000000;fill-opacity:1;fill-rule:nonzero;stroke:none;stroke-width:0.767327"
       id="text370"
       x="93.161987"
       y="198.95967"><tspan
         x="93.161987 98.042175 102.92237 105.36247 110.08153 114.95406 117.39414 119.98003 122.42016 127.66866 133.28546 138.64139 141.22728 143.66739 148.54758 150.9877 155.86789 160.74808"
         y="198.95967"
         sodipodi:role="line"
         id="tspan368"
         style="stroke-width:0.767327">60 ep / AUC: 0.520</tspan></text><text
       style="font-variant:normal;font-weight:normal;font-size:7.67326px;font-family:'DejaVu Sans';-inkscape-font-specification:DejaVuSans;writing-mode:lr-tb;fill:#000000;fill-opacity:1;fill-rule:nonzero;stroke:none;stroke-width:0.767327"
       id="text376"
       x="93.161987"
       y="210.21779"><tspan
         x="93.161987 98.042175 102.92237 105.36247 110.08153 114.95406 117.39414 119.98003 122.42016 127.66866 133.28546 138.64139 141.22728 143.66739 148.54758 150.9877 155.86789 160.74808"
         y="210.21779"
         sodipodi:role="line"
         id="tspan374"
         style="stroke-width:0.767327">80 ep / AUC: 0.533</tspan></text><text
       style="font-variant:normal;font-weight:normal;font-size:7.67326px;font-family:'DejaVu Sans';-inkscape-font-specification:DejaVuSans;writing-mode:lr-tb;fill:#000000;fill-opacity:1;fill-rule:nonzero;stroke:none;stroke-width:0.767327"
       id="text382"
       x="93.161987"
       y="221.47591"><tspan
         x="93.161987 98.042175 102.92237 107.80255 110.24267 114.96173 119.83425 122.27437 124.86025 127.30033 132.54883 138.16566 143.52161 146.1075 148.54758 153.4278 155.86789 160.74808 165.62827"
         y="221.47591"
         sodipodi:role="line"
         id="tspan380"
         style="stroke-width:0.767327">100 ep / AUC: 0.534</tspan></text></g></svg>
