<?xml version="1.0" encoding="UTF-8" standalone="no"?>
<svg
   xmlns:dc="http://purl.org/dc/elements/1.1/"
   xmlns:cc="http://creativecommons.org/ns#"
   xmlns:rdf="http://www.w3.org/1999/02/22-rdf-syntax-ns#"
   xmlns:svg="http://www.w3.org/2000/svg"
   xmlns="http://www.w3.org/2000/svg"
   xmlns:sodipodi="http://sodipodi.sourceforge.net/DTD/sodipodi-0.dtd"
   xmlns:inkscape="http://www.inkscape.org/namespaces/inkscape"
   version="1.1"
   id="svg2"
   xml:space="preserve"
   width="80mm"
   height="65.300003mm"
   viewBox="0 0 302.36219 246.80316"
   sodipodi:docname="pearson_chr19.svg"
   inkscape:version="1.0.2 (1.0.2+r75+1)"><metadata
     id="metadata8"><rdf:RDF><cc:Work
         rdf:about=""><dc:format>image/svg+xml</dc:format><dc:type
           rdf:resource="http://purl.org/dc/dcmitype/StillImage" /><dc:title></dc:title></cc:Work></rdf:RDF></metadata><defs
     id="defs6"><clipPath
       clipPathUnits="userSpaceOnUse"
       id="clipPath22"><path
         d="M 57.6,38.016 H 414.72 V 304.128 H 57.6 Z"
         id="path20" /></clipPath><clipPath
       clipPathUnits="userSpaceOnUse"
       id="clipPath40"><path
         d="M 57.6,38.016 H 414.72 V 304.128 H 57.6 Z"
         id="path38" /></clipPath><clipPath
       clipPathUnits="userSpaceOnUse"
       id="clipPath58"><path
         d="M 57.6,38.016 H 414.72 V 304.128 H 57.6 Z"
         id="path56" /></clipPath><clipPath
       clipPathUnits="userSpaceOnUse"
       id="clipPath76"><path
         d="M 57.6,38.016 H 414.72 V 304.128 H 57.6 Z"
         id="path74" /></clipPath><clipPath
       clipPathUnits="userSpaceOnUse"
       id="clipPath94"><path
         d="M 57.6,38.016 H 414.72 V 304.128 H 57.6 Z"
         id="path92" /></clipPath><clipPath
       clipPathUnits="userSpaceOnUse"
       id="clipPath112"><path
         d="M 57.6,38.016 H 414.72 V 304.128 H 57.6 Z"
         id="path110" /></clipPath><clipPath
       clipPathUnits="userSpaceOnUse"
       id="clipPath130"><path
         d="M 57.6,38.016 H 414.72 V 304.128 H 57.6 Z"
         id="path128" /></clipPath><clipPath
       clipPathUnits="userSpaceOnUse"
       id="clipPath148"><path
         d="M 57.6,38.016 H 414.72 V 304.128 H 57.6 Z"
         id="path146" /></clipPath><clipPath
       clipPathUnits="userSpaceOnUse"
       id="clipPath170"><path
         d="M 57.6,38.016 H 414.72 V 304.128 H 57.6 Z"
         id="path168" /></clipPath><clipPath
       clipPathUnits="userSpaceOnUse"
       id="clipPath188"><path
         d="M 57.6,38.016 H 414.72 V 304.128 H 57.6 Z"
         id="path186" /></clipPath><clipPath
       clipPathUnits="userSpaceOnUse"
       id="clipPath206"><path
         d="M 57.6,38.016 H 414.72 V 304.128 H 57.6 Z"
         id="path204" /></clipPath><clipPath
       clipPathUnits="userSpaceOnUse"
       id="clipPath224"><path
         d="M 57.6,38.016 H 414.72 V 304.128 H 57.6 Z"
         id="path222" /></clipPath><clipPath
       clipPathUnits="userSpaceOnUse"
       id="clipPath242"><path
         d="M 57.6,38.016 H 414.72 V 304.128 H 57.6 Z"
         id="path240" /></clipPath><clipPath
       clipPathUnits="userSpaceOnUse"
       id="clipPath260"><path
         d="M 57.6,38.016 H 414.72 V 304.128 H 57.6 Z"
         id="path258" /></clipPath><clipPath
       clipPathUnits="userSpaceOnUse"
       id="clipPath282"><path
         d="M 57.6,38.016 H 414.72 V 304.128 H 57.6 Z"
         id="path280" /></clipPath><clipPath
       clipPathUnits="userSpaceOnUse"
       id="clipPath292"><path
         d="M 57.6,38.016 H 414.72 V 304.128 H 57.6 Z"
         id="path290" /></clipPath><clipPath
       clipPathUnits="userSpaceOnUse"
       id="clipPath302"><path
         d="M 57.6,38.016 H 414.72 V 304.128 H 57.6 Z"
         id="path300" /></clipPath><clipPath
       clipPathUnits="userSpaceOnUse"
       id="clipPath312"><path
         d="M 57.6,38.016 H 414.72 V 304.128 H 57.6 Z"
         id="path310" /></clipPath><clipPath
       clipPathUnits="userSpaceOnUse"
       id="clipPath322"><path
         d="M 57.6,38.016 H 414.72 V 304.128 H 57.6 Z"
         id="path320" /></clipPath><clipPath
       clipPathUnits="userSpaceOnUse"
       id="clipPath332"><path
         d="M 57.6,38.016 H 414.72 V 304.128 H 57.6 Z"
         id="path330" /></clipPath></defs><sodipodi:namedview
     pagecolor="#ffffff"
     bordercolor="#666666"
     borderopacity="1"
     objecttolerance="10"
     gridtolerance="10"
     guidetolerance="10"
     inkscape:pageopacity="0"
     inkscape:pageshadow="2"
     inkscape:window-width="1920"
     inkscape:window-height="1020"
     id="namedview4"
     showgrid="false"
     units="mm"
     fit-margin-top="0"
     fit-margin-left="0"
     fit-margin-right="0"
     fit-margin-bottom="0"
     inkscape:zoom="5.2603344"
     inkscape:cx="150.74227"
     inkscape:cy="140.58146"
     inkscape:window-x="0"
     inkscape:window-y="0"
     inkscape:window-maximized="1"
     inkscape:current-layer="layer1" /><g
     id="g10"
     inkscape:groupmode="layer"
     inkscape:label="pearson_chr19"
     transform="matrix(1.3333333,0,0,-1.3333333,-28.023958,443.59358)"><g
       id="g328"
       clip-path="url(#clipPath332)"
       style="stroke:#d62728;stroke-opacity:1"
       transform="matrix(0.57541343,0,0,0.57541343,8.9239475,141.97072)"><path
         d="m 57.6,291.21219 5.668571,-7.83046 5.668572,-4.86458 5.668571,-2.46954 5.668572,-1.96157 5.668571,-0.70339 5.668572,-0.77901 5.668571,0.56941 5.66857,1.44261 5.66857,-4.23176 5.66857,1.35083 5.66858,-2.28237 5.66857,-2.93286 5.66857,-3.08073 5.66857,-2.14705 5.66857,-0.83498 5.66857,-1.68169 5.66857,-3.59095 5.66858,-1.50789 5.66857,-0.86811 5.66857,1.0161 5.66857,-3.60562 5.66857,0.81065 5.66857,-1.96396 5.66857,-1.65329 5.66858,-1.46005 5.66857,-2.29329 5.66857,-0.0795 5.66857,2.51759 5.66857,-2.46762 5.66857,2.05221 5.66857,-3.78015 5.66858,-1.24809 5.66857,0.76119 5.66857,-0.93235 5.66857,1.35451 5.66857,-1.54374 5.66857,-3.18044 5.66857,-0.20368 5.66858,-0.82129 5.66857,-4.32261 5.66857,3.89268 5.66857,-4.43393 5.66857,1.02919 5.66857,-1.49329 5.66857,1.7614 5.66858,-8.713 5.66857,6.54481 5.66857,-2.93798 5.66857,2.2996 5.66857,-0.0617 5.66857,0.9859 5.66857,1.41998 5.66858,-2.47145 5.66857,-3.724 5.66857,1.31946 5.66857,2.11197 5.66857,1.16673 5.66857,-0.26716 5.66857,5.12537 5.66858,3.04913 5.66857,2.81569 5.66857,4.55411 5.66857,0.40623"
         style="fill:none;stroke:#d62728;stroke-width:1.5;stroke-linecap:square;stroke-linejoin:round;stroke-miterlimit:10;stroke-dasharray:none;stroke-opacity:1"
         id="path334" /></g><g
       id="g16"
       transform="matrix(0.57541343,0,0,0.57541343,8.9239475,141.97072)"><g
         id="g18"
         clip-path="url(#clipPath22)"><path
           d="M 57.6,38.016 V 304.128"
           style="fill:none;stroke:#b0b0b0;stroke-width:0.8;stroke-linecap:square;stroke-linejoin:round;stroke-miterlimit:10;stroke-dasharray:none;stroke-opacity:1"
           id="path24" /></g></g><path
       d="m 42.067761,163.84563 v -2.01395"
       style="fill:#000000;fill-opacity:1;fill-rule:nonzero;stroke:#000000;stroke-width:0.460331;stroke-linecap:butt;stroke-linejoin:round;stroke-miterlimit:10;stroke-dasharray:none;stroke-opacity:1"
       id="path28" /><g
       id="g34"
       transform="matrix(0.57541343,0,0,0.57541343,8.9239475,141.97072)"><g
         id="g36"
         clip-path="url(#clipPath40)"><path
           d="M 102.94857,38.016 V 304.128"
           style="fill:none;stroke:#b0b0b0;stroke-width:0.8;stroke-linecap:square;stroke-linejoin:round;stroke-miterlimit:10;stroke-dasharray:none;stroke-opacity:1"
           id="path42" /></g></g><path
       d="m 68.161936,163.84563 v -2.01395"
       style="fill:#000000;fill-opacity:1;fill-rule:nonzero;stroke:#000000;stroke-width:0.460331;stroke-linecap:butt;stroke-linejoin:round;stroke-miterlimit:10;stroke-dasharray:none;stroke-opacity:1"
       id="path46" /><g
       id="g52"
       transform="matrix(0.57541343,0,0,0.57541343,8.9239475,141.97072)"><g
         id="g54"
         clip-path="url(#clipPath58)"><path
           d="M 148.29714,38.016 V 304.128"
           style="fill:none;stroke:#b0b0b0;stroke-width:0.8;stroke-linecap:square;stroke-linejoin:round;stroke-miterlimit:10;stroke-dasharray:none;stroke-opacity:1"
           id="path60" /></g></g><path
       d="m 94.256113,163.84563 v -2.01395"
       style="fill:#000000;fill-opacity:1;fill-rule:nonzero;stroke:#000000;stroke-width:0.460331;stroke-linecap:butt;stroke-linejoin:round;stroke-miterlimit:10;stroke-dasharray:none;stroke-opacity:1"
       id="path64" /><g
       id="g70"
       transform="matrix(0.57541343,0,0,0.57541343,8.9239475,141.97072)"><g
         id="g72"
         clip-path="url(#clipPath76)"><path
           d="M 193.64571,38.016 V 304.128"
           style="fill:none;stroke:#b0b0b0;stroke-width:0.8;stroke-linecap:square;stroke-linejoin:round;stroke-miterlimit:10;stroke-dasharray:none;stroke-opacity:1"
           id="path78" /></g></g><path
       d="m 120.35029,163.84563 v -2.01395"
       style="fill:#000000;fill-opacity:1;fill-rule:nonzero;stroke:#000000;stroke-width:0.460331;stroke-linecap:butt;stroke-linejoin:round;stroke-miterlimit:10;stroke-dasharray:none;stroke-opacity:1"
       id="path82" /><g
       id="g88"
       transform="matrix(0.57541343,0,0,0.57541343,8.9239475,141.97072)"><g
         id="g90"
         clip-path="url(#clipPath94)"><path
           d="M 238.99429,38.016 V 304.128"
           style="fill:none;stroke:#b0b0b0;stroke-width:0.8;stroke-linecap:square;stroke-linejoin:round;stroke-miterlimit:10;stroke-dasharray:none;stroke-opacity:1"
           id="path96" /></g></g><path
       d="m 146.44447,163.84563 v -2.01395"
       style="fill:#000000;fill-opacity:1;fill-rule:nonzero;stroke:#000000;stroke-width:0.460331;stroke-linecap:butt;stroke-linejoin:round;stroke-miterlimit:10;stroke-dasharray:none;stroke-opacity:1"
       id="path100" /><g
       id="g106"
       transform="matrix(0.57541343,0,0,0.57541343,8.9239475,141.97072)"><g
         id="g108"
         clip-path="url(#clipPath112)"><path
           d="M 284.34286,38.016 V 304.128"
           style="fill:none;stroke:#b0b0b0;stroke-width:0.8;stroke-linecap:square;stroke-linejoin:round;stroke-miterlimit:10;stroke-dasharray:none;stroke-opacity:1"
           id="path114" /></g></g><path
       d="m 172.53865,163.84563 v -2.01395"
       style="fill:#000000;fill-opacity:1;fill-rule:nonzero;stroke:#000000;stroke-width:0.460331;stroke-linecap:butt;stroke-linejoin:round;stroke-miterlimit:10;stroke-dasharray:none;stroke-opacity:1"
       id="path118" /><g
       id="g124"
       transform="matrix(0.57541343,0,0,0.57541343,8.9239475,141.97072)"><g
         id="g126"
         clip-path="url(#clipPath130)"><path
           d="M 329.69143,38.016 V 304.128"
           style="fill:none;stroke:#b0b0b0;stroke-width:0.8;stroke-linecap:square;stroke-linejoin:round;stroke-miterlimit:10;stroke-dasharray:none;stroke-opacity:1"
           id="path132" /></g></g><path
       d="m 198.63282,163.84563 v -2.01395"
       style="fill:#000000;fill-opacity:1;fill-rule:nonzero;stroke:#000000;stroke-width:0.460331;stroke-linecap:butt;stroke-linejoin:round;stroke-miterlimit:10;stroke-dasharray:none;stroke-opacity:1"
       id="path136" /><g
       id="g142"
       transform="matrix(0.57541343,0,0,0.57541343,8.9239475,141.97072)"><g
         id="g144"
         clip-path="url(#clipPath148)"><path
           d="M 375.04,38.016 V 304.128"
           style="fill:none;stroke:#b0b0b0;stroke-width:0.8;stroke-linecap:square;stroke-linejoin:round;stroke-miterlimit:10;stroke-dasharray:none;stroke-opacity:1"
           id="path150" /></g></g><path
       d="m 224.727,163.84563 v -2.01395"
       style="fill:#000000;fill-opacity:1;fill-rule:nonzero;stroke:#000000;stroke-width:0.460331;stroke-linecap:butt;stroke-linejoin:round;stroke-miterlimit:10;stroke-dasharray:none;stroke-opacity:1"
       id="path154" /><g
       id="g164"
       transform="matrix(0.57541343,0,0,0.57541343,8.9239475,141.97072)"><g
         id="g166"
         clip-path="url(#clipPath170)"><path
           d="M 57.6,38.016 H 414.72"
           style="fill:none;stroke:#b0b0b0;stroke-width:0.8;stroke-linecap:square;stroke-linejoin:round;stroke-miterlimit:10;stroke-dasharray:none;stroke-opacity:1"
           id="path172" /></g></g><path
       d="M 42.067761,163.84563 H 40.053814"
       style="fill:#000000;fill-opacity:1;fill-rule:nonzero;stroke:#000000;stroke-width:0.460331;stroke-linecap:butt;stroke-linejoin:round;stroke-miterlimit:10;stroke-dasharray:none;stroke-opacity:1"
       id="path176" /><g
       id="g182"
       transform="matrix(0.57541343,0,0,0.57541343,8.9239475,141.97072)"><g
         id="g184"
         clip-path="url(#clipPath188)"><path
           d="M 57.6,91.2384 H 414.72"
           style="fill:none;stroke:#b0b0b0;stroke-width:0.8;stroke-linecap:square;stroke-linejoin:round;stroke-miterlimit:10;stroke-dasharray:none;stroke-opacity:1"
           id="path190" /></g></g><path
       d="M 42.067761,194.47051 H 40.053814"
       style="fill:#000000;fill-opacity:1;fill-rule:nonzero;stroke:#000000;stroke-width:0.460331;stroke-linecap:butt;stroke-linejoin:round;stroke-miterlimit:10;stroke-dasharray:none;stroke-opacity:1"
       id="path194" /><g
       id="g200"
       transform="matrix(0.57541343,0,0,0.57541343,8.9239475,141.97072)"><g
         id="g202"
         clip-path="url(#clipPath206)"><path
           d="M 57.6,144.4608 H 414.72"
           style="fill:none;stroke:#b0b0b0;stroke-width:0.8;stroke-linecap:square;stroke-linejoin:round;stroke-miterlimit:10;stroke-dasharray:none;stroke-opacity:1"
           id="path208" /></g></g><path
       d="M 42.067761,225.09539 H 40.053814"
       style="fill:#000000;fill-opacity:1;fill-rule:nonzero;stroke:#000000;stroke-width:0.460331;stroke-linecap:butt;stroke-linejoin:round;stroke-miterlimit:10;stroke-dasharray:none;stroke-opacity:1"
       id="path212" /><g
       id="g218"
       transform="matrix(0.57541343,0,0,0.57541343,8.9239475,141.97072)"><g
         id="g220"
         clip-path="url(#clipPath224)"><path
           d="M 57.6,197.6832 H 414.72"
           style="fill:none;stroke:#b0b0b0;stroke-width:0.8;stroke-linecap:square;stroke-linejoin:round;stroke-miterlimit:10;stroke-dasharray:none;stroke-opacity:1"
           id="path226" /></g></g><path
       d="M 42.067761,255.72027 H 40.053814"
       style="fill:#000000;fill-opacity:1;fill-rule:nonzero;stroke:#000000;stroke-width:0.460331;stroke-linecap:butt;stroke-linejoin:round;stroke-miterlimit:10;stroke-dasharray:none;stroke-opacity:1"
       id="path230" /><g
       id="g236"
       transform="matrix(0.57541343,0,0,0.57541343,8.9239475,141.97072)"><g
         id="g238"
         clip-path="url(#clipPath242)"><path
           d="M 57.6,250.9056 H 414.72"
           style="fill:none;stroke:#b0b0b0;stroke-width:0.8;stroke-linecap:square;stroke-linejoin:round;stroke-miterlimit:10;stroke-dasharray:none;stroke-opacity:1"
           id="path244" /></g></g><path
       d="M 42.067761,286.34516 H 40.053814"
       style="fill:#000000;fill-opacity:1;fill-rule:nonzero;stroke:#000000;stroke-width:0.460331;stroke-linecap:butt;stroke-linejoin:round;stroke-miterlimit:10;stroke-dasharray:none;stroke-opacity:1"
       id="path248" /><g
       id="g254"
       transform="matrix(0.57541343,0,0,0.57541343,8.9239475,141.97072)"><g
         id="g256"
         clip-path="url(#clipPath260)"><path
           d="M 57.6,304.128 H 414.72"
           style="fill:none;stroke:#b0b0b0;stroke-width:0.8;stroke-linecap:square;stroke-linejoin:round;stroke-miterlimit:10;stroke-dasharray:none;stroke-opacity:1"
           id="path262" /></g></g><path
       d="M 42.067761,316.97005 H 40.053814"
       style="fill:#000000;fill-opacity:1;fill-rule:nonzero;stroke:#000000;stroke-width:0.460331;stroke-linecap:butt;stroke-linejoin:round;stroke-miterlimit:10;stroke-dasharray:none;stroke-opacity:1"
       id="path266" /><g
       id="g278"
       clip-path="url(#clipPath282)"
       transform="matrix(0.57541343,0,0,0.57541343,8.9239475,141.97072)"><path
         d="m 57.6,245.09782 5.668571,0.9068 5.668572,-21.20175 5.668571,-13.57812 5.668572,-14.13259 5.668571,-7.65523 5.668572,-6.98526 5.668571,-7.27105 5.66857,-6.11455 5.66857,-6.94758 5.66857,-4.85008 5.66858,-12.93919 5.66857,-0.788 5.66857,-2.3227 5.66857,-2.56109 5.66857,2.22076 5.66857,-5.07914 5.66857,-0.35478 5.66858,-2.30853 5.66857,-3.571 5.66857,0.11785 5.66857,-5.00486 5.66857,-3.65703 5.66857,1.13587 5.66857,-6.79187 5.66858,-3.05255 5.66857,-1.47786 5.66857,-3.6462 5.66857,-2.21328 5.66857,-4.3112 5.66857,-3.606572 5.66857,2.60417 5.66858,-3.403507 5.66857,-0.805234 5.66857,-3.775317 5.66857,-1.78599 5.66857,-2.489108 5.66857,2.434116 5.66857,-3.499434 5.66858,-0.640817 5.66857,-2.824019 5.66857,7.821351 5.66857,-6.338018 5.66857,0.382762 5.66857,-5.658329 5.66857,3.960968 5.66858,-2.556487 5.66857,0.312797 5.66857,1.547358 5.66857,-6.750865 5.66857,6.497375 5.66857,-2.216694 5.66857,4.574103 5.66858,-5.926027 5.66857,-6.495317 5.66857,0.959498 5.66857,-1.640924 5.66857,-8.799473 5.66857,-4.460015 5.66857,1.415071 5.66858,-6.02836 5.66857,-5.373435 5.66857,-3.37562 5.66857,-2.113814"
         style="fill:none;stroke:#1f77b4;stroke-width:1.5;stroke-linecap:square;stroke-linejoin:round;stroke-miterlimit:10;stroke-dasharray:none;stroke-opacity:1"
         id="path284" /></g><g
       id="g288"
       clip-path="url(#clipPath292)"
       transform="matrix(0.57541343,0,0,0.57541343,8.9239475,141.97072)"><path
         d="m 57.6,262.5756 5.668571,-4.3852 5.668572,-24.56399 5.668571,-15.6304 5.668572,-13.60145 5.668571,-7.64658 5.668572,-3.51491 5.668571,-6.9358 5.66857,-5.45112 5.66857,-3.94811 5.66857,-5.26529 5.66858,-12.30284 5.66857,-4.1908 5.66857,-5.77923 5.66857,-3.75377 5.66857,0.0718 5.66857,-3.65386 5.66857,0.0281 5.66858,-3.87557 5.66857,-0.49434 5.66857,-1.21856 5.66857,-3.91951 5.66857,-3.49867 5.66857,-1.13928 5.66857,-6.69005 5.66858,1.04515 5.66857,1.57911 5.66857,-2.35005 5.66857,-0.66857 5.66857,-2.81988 5.66857,-2.67395 5.66857,3.82941 5.66858,-3.3342 5.66857,1.70736 5.66857,-1.78227 5.66857,-0.22994 5.66857,-4.10077 5.66857,4.42318 5.66857,-3.89569 5.66858,0.0197 5.66857,-3.02618 5.66857,10.04849 5.66857,-6.64115 5.66857,1.88204 5.66857,-12.37229 5.66857,6.35444 5.66858,-3.0659 5.66857,2.75351 5.66857,-6.86438 5.66857,2.42796 5.66857,0.5364 5.66857,2.05967 5.66857,3.35314 5.66858,0.86306 5.66857,-10.324564 5.66857,6.347024 5.66857,0.75153 5.66857,-10.274762 5.66857,-6.385107 5.66857,1.153235 5.66858,-3.819377 5.66857,-6.372322 5.66857,-6.762076 5.66857,-7.015824"
         style="fill:none;stroke:#ff7f0e;stroke-width:1.5;stroke-linecap:square;stroke-linejoin:round;stroke-miterlimit:10;stroke-dasharray:none;stroke-opacity:1"
         id="path294" /></g><g
       id="g298"
       clip-path="url(#clipPath302)"
       transform="matrix(0.57541343,0,0,0.57541343,8.9239475,141.97072)"><path
         d="m 57.6,262.03195 5.668571,-3.79305 5.668572,-24.07609 5.668571,-15.93341 5.668572,-11.31315 5.668571,-5.79777 5.668572,-3.47157 5.668571,-7.0127 5.66857,-7.84185 5.66857,-4.75462 5.66857,-7.51684 5.66858,-11.27014 5.66857,-3.20567 5.66857,-4.4133 5.66857,-2.2406 5.66857,1.33878 5.66857,-2.6744 5.66857,-0.29838 5.66858,-3.20916 5.66857,-1.56381 5.66857,-0.34361 5.66857,-3.99642 5.66857,-4.66299 5.66857,-1.19637 5.66857,-6.15522 5.66858,1.25582 5.66857,3.83679 5.66857,-2.83942 5.66857,-0.43681 5.66857,-1.42087 5.66857,-4.35666 5.66857,4.08358 5.66858,-4.32615 5.66857,3.15607 5.66857,-3.05139 5.66857,-0.14377 5.66857,-3.37647 5.66857,2.77074 5.66857,-2.12962 5.66858,-1.99254 5.66857,-3.80745 5.66857,8.54002 5.66857,-8.2786 5.66857,2.47823 5.66857,-12.73812 5.66857,3.41422 5.66858,-5.5998 5.66857,3.07551 5.66857,-9.915896 5.66857,2.72427 5.66857,0.848654 5.66857,0.174314 5.66857,6.117448 5.66858,-1.23836 5.66857,-9.189925 5.66857,6.250575 5.66857,4.63655 5.66857,-7.599692 5.66857,-2.785353 5.66857,2.434247 5.66858,-5.390876 5.66857,-5.960681 5.66857,-7.870141 5.66857,-1.904067"
         style="fill:none;stroke:#2ca02c;stroke-width:1.5;stroke-linecap:square;stroke-linejoin:round;stroke-miterlimit:10;stroke-dasharray:none;stroke-opacity:1"
         id="path304" /></g><g
       id="g308"
       clip-path="url(#clipPath312)"
       style="stroke:#8c564b;stroke-opacity:1"
       transform="matrix(0.57541343,0,0,0.57541343,8.9239475,141.97072)"><path
         d="m 57.6,262.34026 5.668571,-4.33014 5.668572,-23.47807 5.668571,-14.17957 5.668572,-9.31345 5.668571,-5.30208 5.668572,-3.51716 5.668571,-7.30656 5.66857,-8.21055 5.66857,-4.47341 5.66857,-8.0274 5.66858,-10.47558 5.66857,-2.81222 5.66857,-2.58706 5.66857,-2.60174 5.66857,0.81738 5.66857,-3.72013 5.66857,1.04034 5.66858,-2.48023 5.66857,-1.91066 5.66857,0.0848 5.66857,-5.14761 5.66857,-4.06417 5.66857,-2.15818 5.66857,-4.82691 5.66858,0.18649 5.66857,2.76784 5.66857,-1.06685 5.66857,-1.5599 5.66857,-1.31808 5.66857,-4.58673 5.66857,3.12486 5.66858,-2.30006 5.66857,2.3122 5.66857,-2.17405 5.66857,0.8036 5.66857,-2.84209 5.66857,2.97902 5.66857,-1.30847 5.66858,-3.02674 5.66857,-3.21642 5.66857,4.49477 5.66857,-9.20849 5.66857,1.11399 5.66857,-10.18114 5.66857,4.07501 5.66858,-3.84778 5.66857,2.49239 5.66857,-6.93432 5.66857,-1.25327 5.66857,-3.467357 5.66857,1.171617 5.66857,6.09704 5.66858,0.22951 5.66857,-8.832687 5.66857,3.658387 5.66857,2.87116 5.66857,-4.34804 5.66857,-6.832265 5.66857,-1.7954 5.66858,-2.790262 5.66857,-8.974927 5.66857,-7.140781 5.66857,0.970756"
         style="fill:none;stroke:#8c564b;stroke-width:1.5;stroke-linecap:square;stroke-linejoin:round;stroke-miterlimit:10;stroke-dasharray:none;stroke-opacity:1"
         id="path314" /></g><g
       id="g318"
       clip-path="url(#clipPath322)"
       transform="matrix(0.57541343,0,0,0.57541343,8.9239475,141.97072)"><path
         d="m 57.6,260.4157 5.668571,-4.71691 5.668572,-21.7888 5.668571,-12.84765 5.668572,-8.39902 5.668571,-5.47236 5.668572,-4.54142 5.668571,-7.99109 5.66857,-8.50726 5.66857,-5.66424 5.66857,-10.22477 5.66858,-10.87361 5.66857,-2.46157 5.66857,-1.26417 5.66857,-1.36287 5.66857,-1.23535 5.66857,-5.9575 5.66857,-1.16142 5.66858,-2.19205 5.66857,-1.26166 5.66857,1.35351 5.66857,-0.23752 5.66857,-3.72127 5.66857,-2.57045 5.66857,-4.83984 5.66858,-0.79959 5.66857,3.97588 5.66857,-1.2695 5.66857,-1.74593 5.66857,-1.26164 5.66857,-3.64174 5.66857,2.25971 5.66858,0.39382 5.66857,0.55461 5.66857,1.23377 5.66857,-1.05083 5.66857,-3.17506 5.66857,2.26871 5.66857,-0.16482 5.66858,-2.20511 5.66857,-3.6757 5.66857,6.81305 5.66857,-3.54555 5.66857,0.90298 5.66857,-9.90453 5.66857,3.20865 5.66858,-6.77288 5.66857,4.02258 5.66857,-8.65693 5.66857,-0.94404 5.66857,1.35321 5.66857,-5.32274 5.66857,4.02045 5.66858,0.0473 5.66857,-12.686525 5.66857,-0.135176 5.66857,3.213229 5.66857,-9.441077 5.66857,-0.46569 5.66857,-1.29648 5.66858,-3.220799 5.66857,-5.335784 5.66857,-8.244175 5.66857,-2.557352"
         style="fill:none;stroke:#9467bd;stroke-width:1.5;stroke-linecap:square;stroke-linejoin:round;stroke-miterlimit:10;stroke-dasharray:none;stroke-opacity:1"
         id="path324" /></g><path
       d="M 42.067761,163.84563 V 316.97005"
       style="fill:none;stroke:#000000;stroke-width:0.460331;stroke-linecap:square;stroke-linejoin:miter;stroke-miterlimit:10;stroke-dasharray:none;stroke-opacity:1"
       id="path338" /><path
       d="M 247.5594,163.84563 V 316.97005"
       style="fill:none;stroke:#000000;stroke-width:0.460331;stroke-linecap:square;stroke-linejoin:miter;stroke-miterlimit:10;stroke-dasharray:none;stroke-opacity:1"
       id="path340" /><path
       d="M 42.067761,163.84563 H 247.5594"
       style="fill:none;stroke:#000000;stroke-width:0.460331;stroke-linecap:square;stroke-linejoin:miter;stroke-miterlimit:10;stroke-dasharray:none;stroke-opacity:1"
       id="path342" /><path
       d="M 42.067761,316.97005 H 247.5594"
       style="fill:none;stroke:#000000;stroke-width:0.460331;stroke-linecap:square;stroke-linejoin:miter;stroke-miterlimit:10;stroke-dasharray:none;stroke-opacity:1"
       id="path344" /><path
       d="m 117.89508,265.70031 h 8.50827"
       style="fill:none;stroke:#1f77b4;stroke-width:0.86312;stroke-linecap:square;stroke-linejoin:round;stroke-miterlimit:10;stroke-dasharray:none;stroke-opacity:1"
       id="path354"
       sodipodi:nodetypes="cc" /><path
       d="m 117.89508,257.60599 h 8.50827"
       style="fill:none;stroke:#ff7f0e;stroke-width:0.86312;stroke-linecap:square;stroke-linejoin:round;stroke-miterlimit:10;stroke-dasharray:none;stroke-opacity:1"
       id="path360"
       sodipodi:nodetypes="cc" /><path
       d="m 117.89508,249.51166 h 8.50827"
       style="fill:none;stroke:#2ca02c;stroke-width:0.86312;stroke-linecap:square;stroke-linejoin:round;stroke-miterlimit:10;stroke-dasharray:none;stroke-opacity:1"
       id="path366"
       sodipodi:nodetypes="cc" /><path
       d="m 117.89508,241.41732 h 8.50827"
       style="fill:none;stroke:#8c564b;stroke-width:0.86312;stroke-linecap:square;stroke-linejoin:round;stroke-miterlimit:10;stroke-dasharray:none;stroke-opacity:1"
       id="path372"
       sodipodi:nodetypes="cc" /><path
       d="m 117.89508,233.32299 h 8.50827"
       style="fill:none;stroke:#9467bd;stroke-width:0.86312;stroke-linecap:square;stroke-linejoin:round;stroke-miterlimit:10;stroke-dasharray:none;stroke-opacity:1"
       id="path378"
       sodipodi:nodetypes="cc" /><path
       d="m 117.89508,225.22866 h 8.50827"
       style="fill:none;stroke:#d62728;stroke-width:0.86312;stroke-linecap:square;stroke-linejoin:round;stroke-miterlimit:10;stroke-dasharray:none;stroke-opacity:1"
       id="path384"
       sodipodi:nodetypes="cc" /></g><g
     inkscape:groupmode="layer"
     id="layer1"
     inkscape:label="text"
     style="display:inline"
     transform="translate(-28.023958,-17.206424)"><text
       style="font-variant:normal;font-weight:normal;font-size:7.67218px;font-family:'DejaVu Sans';-inkscape-font-specification:DejaVuSans;writing-mode:lr-tb;fill:#000000;fill-opacity:1;fill-rule:nonzero;stroke:none;stroke-width:0.767218"
       id="text32"
       x="53.988564"
       y="253.53554"><tspan
         x="53.988564 58.868073 61.307827"
         y="253.53554"
         sodipodi:role="line"
         id="tspan30"
         style="stroke-width:0.767218">0.0</tspan></text><text
       style="font-variant:normal;font-weight:normal;font-size:7.67218px;font-family:'DejaVu Sans';-inkscape-font-specification:DejaVuSans;writing-mode:lr-tb;fill:#000000;fill-opacity:1;fill-rule:nonzero;stroke:none;stroke-width:0.767218"
       id="text50"
       x="84.780807"
       y="253.53554"><tspan
         x="84.780807 89.660316 92.100067"
         y="253.53554"
         sodipodi:role="line"
         id="tspan48"
         style="stroke-width:0.767218">0.2</tspan></text><text
       style="font-variant:normal;font-weight:normal;font-size:7.67218px;font-family:'DejaVu Sans';-inkscape-font-specification:DejaVuSans;writing-mode:lr-tb;fill:#000000;fill-opacity:1;fill-rule:nonzero;stroke:none;stroke-width:0.767218"
       id="text68"
       x="119.57304"
       y="253.53554"><tspan
         x="119.57304 124.45255 126.8923"
         y="253.53554"
         sodipodi:role="line"
         id="tspan66"
         style="stroke-width:0.767218">0.4</tspan></text><text
       style="font-variant:normal;font-weight:normal;font-size:7.67218px;font-family:'DejaVu Sans';-inkscape-font-specification:DejaVuSans;writing-mode:lr-tb;fill:#000000;fill-opacity:1;fill-rule:nonzero;stroke:none;stroke-width:0.767218"
       id="text86"
       x="154.36528"
       y="253.53554"><tspan
         x="154.36528 159.24478 161.68454"
         y="253.53554"
         sodipodi:role="line"
         id="tspan84"
         style="stroke-width:0.767218">0.6</tspan></text><text
       style="font-variant:normal;font-weight:normal;font-size:7.67218px;font-family:'DejaVu Sans';-inkscape-font-specification:DejaVuSans;writing-mode:lr-tb;fill:#000000;fill-opacity:1;fill-rule:nonzero;stroke:none;stroke-width:0.767218"
       id="text104"
       x="189.15749"
       y="253.53554"><tspan
         x="189.15749 194.037 196.47676"
         y="253.53554"
         sodipodi:role="line"
         id="tspan102"
         style="stroke-width:0.767218">0.8</tspan></text><text
       style="font-variant:normal;font-weight:normal;font-size:7.67218px;font-family:'DejaVu Sans';-inkscape-font-specification:DejaVuSans;writing-mode:lr-tb;fill:#000000;fill-opacity:1;fill-rule:nonzero;stroke:none;stroke-width:0.767218"
       id="text122"
       x="223.94974"
       y="253.53554"><tspan
         x="223.94974 228.82924 231.26898"
         y="253.53554"
         sodipodi:role="line"
         id="tspan120"
         style="stroke-width:0.767218">1.0</tspan></text><text
       style="font-variant:normal;font-weight:normal;font-size:7.67218px;font-family:'DejaVu Sans';-inkscape-font-specification:DejaVuSans;writing-mode:lr-tb;fill:#000000;fill-opacity:1;fill-rule:nonzero;stroke:none;stroke-width:0.767218"
       id="text140"
       x="258.74197"
       y="253.53554"><tspan
         x="258.74197 263.62146 266.06122"
         y="253.53554"
         sodipodi:role="line"
         id="tspan138"
         style="stroke-width:0.767218">1.2</tspan></text><text
       style="font-variant:normal;font-weight:normal;font-size:7.67218px;font-family:'DejaVu Sans';-inkscape-font-specification:DejaVuSans;writing-mode:lr-tb;fill:#000000;fill-opacity:1;fill-rule:nonzero;stroke:none;stroke-width:0.767218"
       id="text158"
       x="293.53421"
       y="253.53554"><tspan
         x="293.53421 298.41373 300.85345"
         y="253.53554"
         sodipodi:role="line"
         id="tspan156"
         style="stroke-width:0.767218">1.4</tspan></text><text
       style="font-variant:normal;font-weight:normal;font-size:7.67218px;font-family:'DejaVu Sans';-inkscape-font-specification:DejaVuSans;writing-mode:lr-tb;fill:#000000;fill-opacity:1;fill-rule:nonzero;stroke:none;stroke-width:0.767218"
       id="text162"
       x="146.65012"
       y="264.02515"><tspan
         x="146.65012 152.59605 157.31444 162.17859 166.87398 174.34666 176.47954 180.69922 183.13898 188.01082 190.14369 194.14088 197.14839 201.85144 206.71561 210.9353 215.65369 218.09344 220.67896 223.1187 229.73981 234.61165"
         y="264.02515"
         sodipodi:role="line"
         id="tspan160"
         style="stroke-width:0.767218">Genomic distance / Mbp</tspan></text><text
       style="font-variant:normal;font-weight:normal;font-size:7.67218px;font-family:'DejaVu Sans';-inkscape-font-specification:DejaVuSans;writing-mode:lr-tb;fill:#000000;fill-opacity:1;fill-rule:nonzero;stroke:none;stroke-width:0.767218"
       id="text180"
       x="38.516266"
       y="245.25197"><tspan
         x="38.516266 43.395767 45.835518"
         y="245.25197"
         sodipodi:role="line"
         id="tspan178"
         style="stroke-width:0.767218">0.0</tspan></text><text
       style="font-variant:normal;font-weight:normal;font-size:7.67218px;font-family:'DejaVu Sans';-inkscape-font-specification:DejaVuSans;writing-mode:lr-tb;fill:#000000;fill-opacity:1;fill-rule:nonzero;stroke:none;stroke-width:0.767218"
       id="text198"
       x="38.516266"
       y="204.41881"><tspan
         x="38.516266 43.395767 45.835518"
         y="204.41881"
         sodipodi:role="line"
         id="tspan196"
         style="stroke-width:0.767218">0.2</tspan></text><text
       style="font-variant:normal;font-weight:normal;font-size:7.67218px;font-family:'DejaVu Sans';-inkscape-font-specification:DejaVuSans;writing-mode:lr-tb;fill:#000000;fill-opacity:1;fill-rule:nonzero;stroke:none;stroke-width:0.767218"
       id="text216"
       x="38.516266"
       y="163.58562"><tspan
         x="38.516266 43.395767 45.835518"
         y="163.58562"
         sodipodi:role="line"
         id="tspan214"
         style="stroke-width:0.767218">0.4</tspan></text><text
       style="font-variant:normal;font-weight:normal;font-size:7.67218px;font-family:'DejaVu Sans';-inkscape-font-specification:DejaVuSans;writing-mode:lr-tb;fill:#000000;fill-opacity:1;fill-rule:nonzero;stroke:none;stroke-width:0.767218"
       id="text234"
       x="38.516266"
       y="122.75262"><tspan
         x="38.516266 43.395767 45.835518"
         y="122.75262"
         sodipodi:role="line"
         id="tspan232"
         style="stroke-width:0.767218">0.6</tspan></text><text
       style="font-variant:normal;font-weight:normal;font-size:7.67218px;font-family:'DejaVu Sans';-inkscape-font-specification:DejaVuSans;writing-mode:lr-tb;fill:#000000;fill-opacity:1;fill-rule:nonzero;stroke:none;stroke-width:0.767218"
       id="text252"
       x="38.516266"
       y="81.919426"><tspan
         x="38.516266 43.395767 45.835518"
         y="81.919426"
         sodipodi:role="line"
         id="tspan250"
         style="stroke-width:0.767218">0.8</tspan></text><text
       style="font-variant:normal;font-weight:normal;font-size:7.67218px;font-family:'DejaVu Sans';-inkscape-font-specification:DejaVuSans;writing-mode:lr-tb;fill:#000000;fill-opacity:1;fill-rule:nonzero;stroke:none;stroke-width:0.767218"
       id="text270"
       x="38.516266"
       y="41.086174"><tspan
         x="38.516266 43.395767 45.835518"
         y="41.086174"
         sodipodi:role="line"
         id="tspan268"
         style="stroke-width:0.767218">1.0</tspan></text><text
       transform="rotate(-90)"
       style="font-variant:normal;font-weight:normal;font-size:7.67218px;font-family:'DejaVu Sans';-inkscape-font-specification:DejaVuSans;writing-mode:lr-tb;fill:#000000;fill-opacity:1;fill-rule:nonzero;stroke:none;stroke-width:0.767218"
       id="text274"
       x="-177.32222"
       y="33.853016"><tspan
         x="-177.32222 -172.69589 -167.97749 -163.27444 -160.1212 -156.12399 -151.4286 -146.56445 -144.12469 -139.90501 -135.20963 -132.05635 -128.90311 -124.18488 -122.05202 -117.34895 -114.34145 -112.20863 -107.51324"
         y="33.853016"
         sodipodi:role="line"
         id="tspan272"
         style="stroke-width:0.767218">Pearson correlation</tspan></text><text
       style="font-variant:normal;font-weight:normal;font-size:9.20661px;font-family:'DejaVu Sans';-inkscape-font-specification:DejaVuSans;writing-mode:lr-tb;fill:#000000;fill-opacity:1;fill-rule:nonzero;stroke:none;stroke-width:0.767218"
       id="text348"
       x="98.339348"
       y="23.250784"><tspan
         x="98.339348 103.89095 109.55302 115.19667 118.98057 123.77724 129.41168 135.24867 138.17638 143.24002 148.87447 152.65839 156.44229 162.10437 164.6638 170.30746 173.91646 176.47589 182.11035 187.94734 190.87505 196.32536 201.12199 204.0497 206.97742 212.82361 218.48569 224.32266 229.95712 238.92436 241.4838 246.54744 249.47516 255.32135 257.8808 262.67743 266.28641 271.93005 277.76706 282.83069"
         y="23.250784"
         sodipodi:role="line"
         id="tspan346"
         style="stroke-width:0.767218">Pearson correlation vs. genomic distance</tspan></text><text
       style="font-variant:normal;font-weight:normal;font-size:9.20661px;font-family:'DejaVu Sans';-inkscape-font-specification:DejaVuSans;writing-mode:lr-tb;fill:#000000;fill-opacity:1;fill-rule:nonzero;stroke:none;stroke-width:0.767218"
       id="text352"
       x="61.06604"
       y="33.569836"><tspan
         x="61.06604 68.201172 76.146484 82.001877 87.857285 93.712692 99.5681 105.42351 108.35122 111.27892 117.13432 120.06203 125.91743 128.84515 134.70053 137.62825 143.48367 146.41136 152.26677 155.19447 161.04988 166.90527 169.83299 175.68839 181.54379 184.47151 190.3269 196.18233 199.11002 204.96542 210.82083 213.74855 219.60396 225.45937 228.38705 234.24248 240.09787 243.02557 248.88097 254.7364 257.66406 263.5195 269.37491 272.30261 277.93704 283.77405 286.70175 292.7413 298.59671 304.45212 310.30753 313.23523 316.16293 322.01834"
         y="33.569836"
         sodipodi:role="line"
         id="tspan350"
         style="stroke-width:0.767218">GM12878, 1,2,4,7,9,11,13,14,16,17,18,20,22 on K562, 19</tspan></text><text
       style="font-variant:normal;font-weight:normal;font-size:7.67216px;font-family:'DejaVu Sans';-inkscape-font-specification:DejaVuSans;writing-mode:lr-tb;fill:#000000;fill-opacity:1;fill-rule:nonzero;stroke:none;stroke-width:0.767216"
       id="text358"
       x="173.52496"
       y="109.21804"><tspan
         x="173.52496 178.40448 183.28401 185.72375 190.44214 195.31396 197.75371 200.33923 202.77901 208.02676 213.64282 218.99799 221.5835 224.02327 228.90276 231.34251 236.22203 241.10153"
         y="109.21804"
         sodipodi:role="line"
         id="tspan356"
         style="stroke-width:0.767216">20 ep / AUC: 0.278</tspan></text><text
       style="font-variant:normal;font-weight:normal;font-size:7.67216px;font-family:'DejaVu Sans';-inkscape-font-specification:DejaVuSans;writing-mode:lr-tb;fill:#000000;fill-opacity:1;fill-rule:nonzero;stroke:none;stroke-width:0.767216"
       id="text364"
       x="173.52496"
       y="120.01046"><tspan
         x="173.52496 178.40448 183.28401 185.72375 190.44214 195.31396 197.75371 200.33923 202.77901 208.02676 213.64282 218.99799 221.5835 224.02327 228.90276 231.34251 236.22203 241.10153"
         y="120.01046"
         sodipodi:role="line"
         id="tspan362"
         style="stroke-width:0.767216">40 ep / AUC: 0.349</tspan></text><text
       style="font-variant:normal;font-weight:normal;font-size:7.67216px;font-family:'DejaVu Sans';-inkscape-font-specification:DejaVuSans;writing-mode:lr-tb;fill:#000000;fill-opacity:1;fill-rule:nonzero;stroke:none;stroke-width:0.767216"
       id="text370"
       x="173.52496"
       y="130.80284"><tspan
         x="173.52496 178.40448 183.28401 185.72375 190.44214 195.31396 197.75371 200.33923 202.77901 208.02676 213.64282 218.99799 221.5835 224.02327 228.90276 231.34251 236.22203 241.10153"
         y="130.80284"
         sodipodi:role="line"
         id="tspan368"
         style="stroke-width:0.767216">60 ep / AUC: 0.360</tspan></text><text
       style="font-variant:normal;font-weight:normal;font-size:7.67216px;font-family:'DejaVu Sans';-inkscape-font-specification:DejaVuSans;writing-mode:lr-tb;fill:#000000;fill-opacity:1;fill-rule:nonzero;stroke:none;stroke-width:0.767216"
       id="text376"
       x="173.52496"
       y="141.59538"><tspan
         x="173.52496 178.40448 183.28401 185.72375 190.44214 195.31396 197.75371 200.33923 202.77901 208.02676 213.64282 218.99799 221.5835 224.02327 228.90276 231.34251 236.22203 241.10153"
         y="141.59538"
         sodipodi:role="line"
         id="tspan374"
         style="stroke-width:0.767216">80 ep / AUC: 0.375</tspan></text><text
       style="font-variant:normal;font-weight:normal;font-size:7.67216px;font-family:'DejaVu Sans';-inkscape-font-specification:DejaVuSans;writing-mode:lr-tb;fill:#000000;fill-opacity:1;fill-rule:nonzero;stroke:none;stroke-width:0.767216"
       id="text382"
       x="173.52496"
       y="152.38782"><tspan
         x="173.52496 178.40448 183.28401 188.1635 190.60326 195.32164 200.19347 202.63324 205.21877 207.65851 212.90628 218.52232 223.8775 226.46301 228.90276 233.78229 236.22203 241.10153 245.98105"
         y="152.38782"
         sodipodi:role="line"
         id="tspan380"
         style="stroke-width:0.767216">100 ep / AUC: 0.375</tspan></text><text
       style="font-variant:normal;font-weight:normal;font-size:7.67216px;font-family:'DejaVu Sans';-inkscape-font-specification:DejaVuSans;writing-mode:lr-tb;fill:#000000;fill-opacity:1;fill-rule:nonzero;stroke:none;stroke-width:0.767216"
       id="text388"
       x="173.52496"
       y="163.18024"><tspan
         sodipodi:role="line"
         id="tspan386"
         style="stroke-width:0.767216"
         x="173.52496"
         y="163.18024">transfer GM12878/AUC: 0.786</tspan></text></g></svg>
