<?xml version="1.0" encoding="UTF-8" standalone="no"?>
<svg
   xmlns:dc="http://purl.org/dc/elements/1.1/"
   xmlns:cc="http://creativecommons.org/ns#"
   xmlns:rdf="http://www.w3.org/1999/02/22-rdf-syntax-ns#"
   xmlns:svg="http://www.w3.org/2000/svg"
   xmlns="http://www.w3.org/2000/svg"
   xmlns:sodipodi="http://sodipodi.sourceforge.net/DTD/sodipodi-0.dtd"
   xmlns:inkscape="http://www.inkscape.org/namespaces/inkscape"
   version="1.1"
   id="svg2"
   xml:space="preserve"
   width="80mm"
   height="65.300003mm"
   viewBox="0 0 302.36219 246.80316"
   sodipodi:docname="pearson_chr03.svg"
   inkscape:version="1.0.2 (1.0.2+r75+1)"><metadata
     id="metadata8"><rdf:RDF><cc:Work
         rdf:about=""><dc:format>image/svg+xml</dc:format><dc:type
           rdf:resource="http://purl.org/dc/dcmitype/StillImage" /><dc:title></dc:title></cc:Work></rdf:RDF></metadata><defs
     id="defs6"><clipPath
       clipPathUnits="userSpaceOnUse"
       id="clipPath22"><path
         d="M 57.6,38.016 H 414.72 V 304.128 H 57.6 Z"
         id="path20" /></clipPath><clipPath
       clipPathUnits="userSpaceOnUse"
       id="clipPath40"><path
         d="M 57.6,38.016 H 414.72 V 304.128 H 57.6 Z"
         id="path38" /></clipPath><clipPath
       clipPathUnits="userSpaceOnUse"
       id="clipPath58"><path
         d="M 57.6,38.016 H 414.72 V 304.128 H 57.6 Z"
         id="path56" /></clipPath><clipPath
       clipPathUnits="userSpaceOnUse"
       id="clipPath76"><path
         d="M 57.6,38.016 H 414.72 V 304.128 H 57.6 Z"
         id="path74" /></clipPath><clipPath
       clipPathUnits="userSpaceOnUse"
       id="clipPath94"><path
         d="M 57.6,38.016 H 414.72 V 304.128 H 57.6 Z"
         id="path92" /></clipPath><clipPath
       clipPathUnits="userSpaceOnUse"
       id="clipPath112"><path
         d="M 57.6,38.016 H 414.72 V 304.128 H 57.6 Z"
         id="path110" /></clipPath><clipPath
       clipPathUnits="userSpaceOnUse"
       id="clipPath130"><path
         d="M 57.6,38.016 H 414.72 V 304.128 H 57.6 Z"
         id="path128" /></clipPath><clipPath
       clipPathUnits="userSpaceOnUse"
       id="clipPath148"><path
         d="M 57.6,38.016 H 414.72 V 304.128 H 57.6 Z"
         id="path146" /></clipPath><clipPath
       clipPathUnits="userSpaceOnUse"
       id="clipPath170"><path
         d="M 57.6,38.016 H 414.72 V 304.128 H 57.6 Z"
         id="path168" /></clipPath><clipPath
       clipPathUnits="userSpaceOnUse"
       id="clipPath188"><path
         d="M 57.6,38.016 H 414.72 V 304.128 H 57.6 Z"
         id="path186" /></clipPath><clipPath
       clipPathUnits="userSpaceOnUse"
       id="clipPath206"><path
         d="M 57.6,38.016 H 414.72 V 304.128 H 57.6 Z"
         id="path204" /></clipPath><clipPath
       clipPathUnits="userSpaceOnUse"
       id="clipPath224"><path
         d="M 57.6,38.016 H 414.72 V 304.128 H 57.6 Z"
         id="path222" /></clipPath><clipPath
       clipPathUnits="userSpaceOnUse"
       id="clipPath242"><path
         d="M 57.6,38.016 H 414.72 V 304.128 H 57.6 Z"
         id="path240" /></clipPath><clipPath
       clipPathUnits="userSpaceOnUse"
       id="clipPath260"><path
         d="M 57.6,38.016 H 414.72 V 304.128 H 57.6 Z"
         id="path258" /></clipPath><clipPath
       clipPathUnits="userSpaceOnUse"
       id="clipPath282"><path
         d="M 57.6,38.016 H 414.72 V 304.128 H 57.6 Z"
         id="path280" /></clipPath><clipPath
       clipPathUnits="userSpaceOnUse"
       id="clipPath292"><path
         d="M 57.6,38.016 H 414.72 V 304.128 H 57.6 Z"
         id="path290" /></clipPath><clipPath
       clipPathUnits="userSpaceOnUse"
       id="clipPath302"><path
         d="M 57.6,38.016 H 414.72 V 304.128 H 57.6 Z"
         id="path300" /></clipPath><clipPath
       clipPathUnits="userSpaceOnUse"
       id="clipPath312"><path
         d="M 57.6,38.016 H 414.72 V 304.128 H 57.6 Z"
         id="path310" /></clipPath><clipPath
       clipPathUnits="userSpaceOnUse"
       id="clipPath322"><path
         d="M 57.6,38.016 H 414.72 V 304.128 H 57.6 Z"
         id="path320" /></clipPath><clipPath
       clipPathUnits="userSpaceOnUse"
       id="clipPath332"><path
         d="M 57.6,38.016 H 414.72 V 304.128 H 57.6 Z"
         id="path330" /></clipPath></defs><sodipodi:namedview
     pagecolor="#ffffff"
     bordercolor="#666666"
     borderopacity="1"
     objecttolerance="10"
     gridtolerance="10"
     guidetolerance="10"
     inkscape:pageopacity="0"
     inkscape:pageshadow="2"
     inkscape:window-width="1920"
     inkscape:window-height="1020"
     id="namedview4"
     showgrid="false"
     fit-margin-top="0"
     fit-margin-left="0"
     fit-margin-right="0"
     fit-margin-bottom="0"
     units="mm"
     inkscape:zoom="1.3150836"
     inkscape:cx="191.20001"
     inkscape:cy="44.265654"
     inkscape:window-x="0"
     inkscape:window-y="0"
     inkscape:window-maximized="1"
     inkscape:current-layer="layer1" /><g
     id="g10"
     inkscape:groupmode="layer"
     inkscape:label="pearson_chr03"
     transform="matrix(1.3333333,0,0,-1.3333333,-28.023958,443.59358)"><g
       id="g328"
       clip-path="url(#clipPath332)"
       style="stroke:#d62728;stroke-opacity:1"
       transform="matrix(0.57531497,0,0,0.57531497,8.9260168,141.99641)"><path
         d="m 57.6,249.59067 5.668571,-5.03852 5.668572,-4.18733 5.668571,-2.46767 5.668572,0.37439 5.668571,1.72112 5.668572,-0.004 5.668571,1.51314 5.66857,1.39577 5.66857,-0.89786 5.66857,1.96613 5.66858,1.33749 5.66857,-0.53189 5.66857,-2.68686 5.66857,-1.81133 5.66857,-4.1856 5.66857,-2.53148 5.66857,-1.62903 5.66858,-2.88153 5.66857,-2.91804 5.66857,-4.21862 5.66857,0.17346 5.66857,-1.68093 5.66857,-2.96491 5.66857,-2.59023 5.66858,-1.97438 5.66857,-1.69155 5.66857,-6.55182 5.66857,3.0325 5.66857,-1.88589 5.66857,1.14505 5.66857,-1.59183 5.66858,0.42152 5.66857,-0.92409 5.66857,-3.43764 5.66857,0.65537 5.66857,0.34486 5.66857,-2.51059 5.66857,5.26589 5.66858,0.2239 5.66857,-1.05603 5.66857,-1.41809 5.66857,-0.18235 5.66857,1.59826 5.66857,3.46085 5.66857,-1.19037 5.66858,-2.84335 5.66857,-0.1945 5.66857,6.00871 5.66857,-1.8039 5.66857,-5.30133 5.66857,6.73212 5.66857,-2.78949 5.66858,-5.02578 5.66857,-2.16497 5.66857,5.86576 5.66857,-1.69485 5.66857,-2.8213 5.66857,0.0801 5.66857,2.4624 5.66858,0.61762 5.66857,0.28287 5.66857,-2.82845 5.66857,3.48401"
         style="fill:none;stroke:#d62728;stroke-width:1.5;stroke-linecap:square;stroke-linejoin:round;stroke-miterlimit:10;stroke-dasharray:none;stroke-opacity:1"
         id="path334" /></g><g
       id="g16"
       transform="matrix(0.57531497,0,0,0.57531497,8.9260168,141.99641)"><g
         id="g18"
         clip-path="url(#clipPath22)"><path
           d="M 57.6,38.016 V 304.128"
           style="fill:none;stroke:#b0b0b0;stroke-width:0.8;stroke-linecap:square;stroke-linejoin:round;stroke-miterlimit:10;stroke-dasharray:none;stroke-opacity:1"
           id="path24" /></g></g><path
       d="m 42.064159,163.86758 v -2.0136"
       style="fill:#000000;fill-opacity:1;fill-rule:nonzero;stroke:#000000;stroke-width:0.460252;stroke-linecap:butt;stroke-linejoin:round;stroke-miterlimit:10;stroke-dasharray:none;stroke-opacity:1"
       id="path28" /><g
       id="g34"
       transform="matrix(0.57531497,0,0,0.57531497,8.9260168,141.99641)"><g
         id="g36"
         clip-path="url(#clipPath40)"><path
           d="M 102.94857,38.016 V 304.128"
           style="fill:none;stroke:#b0b0b0;stroke-width:0.8;stroke-linecap:square;stroke-linejoin:round;stroke-miterlimit:10;stroke-dasharray:none;stroke-opacity:1"
           id="path42" /></g></g><path
       d="m 68.15387,163.86758 v -2.0136"
       style="fill:#000000;fill-opacity:1;fill-rule:nonzero;stroke:#000000;stroke-width:0.460252;stroke-linecap:butt;stroke-linejoin:round;stroke-miterlimit:10;stroke-dasharray:none;stroke-opacity:1"
       id="path46" /><g
       id="g52"
       transform="matrix(0.57531497,0,0,0.57531497,8.9260168,141.99641)"><g
         id="g54"
         clip-path="url(#clipPath58)"><path
           d="M 148.29714,38.016 V 304.128"
           style="fill:none;stroke:#b0b0b0;stroke-width:0.8;stroke-linecap:square;stroke-linejoin:round;stroke-miterlimit:10;stroke-dasharray:none;stroke-opacity:1"
           id="path60" /></g></g><path
       d="m 94.243581,163.86758 v -2.0136"
       style="fill:#000000;fill-opacity:1;fill-rule:nonzero;stroke:#000000;stroke-width:0.460252;stroke-linecap:butt;stroke-linejoin:round;stroke-miterlimit:10;stroke-dasharray:none;stroke-opacity:1"
       id="path64" /><g
       id="g70"
       transform="matrix(0.57531497,0,0,0.57531497,8.9260168,141.99641)"><g
         id="g72"
         clip-path="url(#clipPath76)"><path
           d="M 193.64571,38.016 V 304.128"
           style="fill:none;stroke:#b0b0b0;stroke-width:0.8;stroke-linecap:square;stroke-linejoin:round;stroke-miterlimit:10;stroke-dasharray:none;stroke-opacity:1"
           id="path78" /></g></g><path
       d="m 120.33329,163.86758 v -2.0136"
       style="fill:#000000;fill-opacity:1;fill-rule:nonzero;stroke:#000000;stroke-width:0.460252;stroke-linecap:butt;stroke-linejoin:round;stroke-miterlimit:10;stroke-dasharray:none;stroke-opacity:1"
       id="path82" /><g
       id="g88"
       transform="matrix(0.57531497,0,0,0.57531497,8.9260168,141.99641)"><g
         id="g90"
         clip-path="url(#clipPath94)"><path
           d="M 238.99429,38.016 V 304.128"
           style="fill:none;stroke:#b0b0b0;stroke-width:0.8;stroke-linecap:square;stroke-linejoin:round;stroke-miterlimit:10;stroke-dasharray:none;stroke-opacity:1"
           id="path96" /></g></g><path
       d="m 146.42301,163.86758 v -2.0136"
       style="fill:#000000;fill-opacity:1;fill-rule:nonzero;stroke:#000000;stroke-width:0.460252;stroke-linecap:butt;stroke-linejoin:round;stroke-miterlimit:10;stroke-dasharray:none;stroke-opacity:1"
       id="path100" /><g
       id="g106"
       transform="matrix(0.57531497,0,0,0.57531497,8.9260168,141.99641)"><g
         id="g108"
         clip-path="url(#clipPath112)"><path
           d="M 284.34286,38.016 V 304.128"
           style="fill:none;stroke:#b0b0b0;stroke-width:0.8;stroke-linecap:square;stroke-linejoin:round;stroke-miterlimit:10;stroke-dasharray:none;stroke-opacity:1"
           id="path114" /></g></g><path
       d="m 172.51273,163.86758 v -2.0136"
       style="fill:#000000;fill-opacity:1;fill-rule:nonzero;stroke:#000000;stroke-width:0.460252;stroke-linecap:butt;stroke-linejoin:round;stroke-miterlimit:10;stroke-dasharray:none;stroke-opacity:1"
       id="path118" /><g
       id="g124"
       transform="matrix(0.57531497,0,0,0.57531497,8.9260168,141.99641)"><g
         id="g126"
         clip-path="url(#clipPath130)"><path
           d="M 329.69143,38.016 V 304.128"
           style="fill:none;stroke:#b0b0b0;stroke-width:0.8;stroke-linecap:square;stroke-linejoin:round;stroke-miterlimit:10;stroke-dasharray:none;stroke-opacity:1"
           id="path132" /></g></g><path
       d="m 198.60244,163.86758 v -2.0136"
       style="fill:#000000;fill-opacity:1;fill-rule:nonzero;stroke:#000000;stroke-width:0.460252;stroke-linecap:butt;stroke-linejoin:round;stroke-miterlimit:10;stroke-dasharray:none;stroke-opacity:1"
       id="path136" /><g
       id="g142"
       transform="matrix(0.57531497,0,0,0.57531497,8.9260168,141.99641)"><g
         id="g144"
         clip-path="url(#clipPath148)"><path
           d="M 375.04,38.016 V 304.128"
           style="fill:none;stroke:#b0b0b0;stroke-width:0.8;stroke-linecap:square;stroke-linejoin:round;stroke-miterlimit:10;stroke-dasharray:none;stroke-opacity:1"
           id="path150" /></g></g><path
       d="m 224.69215,163.86758 v -2.0136"
       style="fill:#000000;fill-opacity:1;fill-rule:nonzero;stroke:#000000;stroke-width:0.460252;stroke-linecap:butt;stroke-linejoin:round;stroke-miterlimit:10;stroke-dasharray:none;stroke-opacity:1"
       id="path154" /><g
       id="g164"
       transform="matrix(0.57531497,0,0,0.57531497,8.9260168,141.99641)"><g
         id="g166"
         clip-path="url(#clipPath170)"><path
           d="M 57.6,38.016 H 414.72"
           style="fill:none;stroke:#b0b0b0;stroke-width:0.8;stroke-linecap:square;stroke-linejoin:round;stroke-miterlimit:10;stroke-dasharray:none;stroke-opacity:1"
           id="path172" /></g></g><path
       d="M 42.064159,163.86758 H 40.050557"
       style="fill:#000000;fill-opacity:1;fill-rule:nonzero;stroke:#000000;stroke-width:0.460252;stroke-linecap:butt;stroke-linejoin:round;stroke-miterlimit:10;stroke-dasharray:none;stroke-opacity:1"
       id="path176" /><g
       id="g182"
       transform="matrix(0.57531497,0,0,0.57531497,8.9260168,141.99641)"><g
         id="g184"
         clip-path="url(#clipPath188)"><path
           d="M 57.6,91.2384 H 414.72"
           style="fill:none;stroke:#b0b0b0;stroke-width:0.8;stroke-linecap:square;stroke-linejoin:round;stroke-miterlimit:10;stroke-dasharray:none;stroke-opacity:1"
           id="path190" /></g></g><path
       d="M 42.064159,194.48722 H 40.050557"
       style="fill:#000000;fill-opacity:1;fill-rule:nonzero;stroke:#000000;stroke-width:0.460252;stroke-linecap:butt;stroke-linejoin:round;stroke-miterlimit:10;stroke-dasharray:none;stroke-opacity:1"
       id="path194" /><g
       id="g200"
       transform="matrix(0.57531497,0,0,0.57531497,8.9260168,141.99641)"><g
         id="g202"
         clip-path="url(#clipPath206)"><path
           d="M 57.6,144.4608 H 414.72"
           style="fill:none;stroke:#b0b0b0;stroke-width:0.8;stroke-linecap:square;stroke-linejoin:round;stroke-miterlimit:10;stroke-dasharray:none;stroke-opacity:1"
           id="path208" /></g></g><path
       d="M 42.064159,225.10687 H 40.050557"
       style="fill:#000000;fill-opacity:1;fill-rule:nonzero;stroke:#000000;stroke-width:0.460252;stroke-linecap:butt;stroke-linejoin:round;stroke-miterlimit:10;stroke-dasharray:none;stroke-opacity:1"
       id="path212" /><g
       id="g218"
       transform="matrix(0.57531497,0,0,0.57531497,8.9260168,141.99641)"><g
         id="g220"
         clip-path="url(#clipPath224)"><path
           d="M 57.6,197.6832 H 414.72"
           style="fill:none;stroke:#b0b0b0;stroke-width:0.8;stroke-linecap:square;stroke-linejoin:round;stroke-miterlimit:10;stroke-dasharray:none;stroke-opacity:1"
           id="path226" /></g></g><path
       d="M 42.064159,255.72651 H 40.050557"
       style="fill:#000000;fill-opacity:1;fill-rule:nonzero;stroke:#000000;stroke-width:0.460252;stroke-linecap:butt;stroke-linejoin:round;stroke-miterlimit:10;stroke-dasharray:none;stroke-opacity:1"
       id="path230" /><g
       id="g236"
       transform="matrix(0.57531497,0,0,0.57531497,8.9260168,141.99641)"><g
         id="g238"
         clip-path="url(#clipPath242)"><path
           d="M 57.6,250.9056 H 414.72"
           style="fill:none;stroke:#b0b0b0;stroke-width:0.8;stroke-linecap:square;stroke-linejoin:round;stroke-miterlimit:10;stroke-dasharray:none;stroke-opacity:1"
           id="path244" /></g></g><path
       d="M 42.064159,286.34615 H 40.050557"
       style="fill:#000000;fill-opacity:1;fill-rule:nonzero;stroke:#000000;stroke-width:0.460252;stroke-linecap:butt;stroke-linejoin:round;stroke-miterlimit:10;stroke-dasharray:none;stroke-opacity:1"
       id="path248" /><g
       id="g254"
       transform="matrix(0.57531497,0,0,0.57531497,8.9260168,141.99641)"><g
         id="g256"
         clip-path="url(#clipPath260)"><path
           d="M 57.6,304.128 H 414.72"
           style="fill:none;stroke:#b0b0b0;stroke-width:0.8;stroke-linecap:square;stroke-linejoin:round;stroke-miterlimit:10;stroke-dasharray:none;stroke-opacity:1"
           id="path262" /></g></g><path
       d="M 42.064159,316.9658 H 40.050557"
       style="fill:#000000;fill-opacity:1;fill-rule:nonzero;stroke:#000000;stroke-width:0.460252;stroke-linecap:butt;stroke-linejoin:round;stroke-miterlimit:10;stroke-dasharray:none;stroke-opacity:1"
       id="path266" /><g
       id="g278"
       clip-path="url(#clipPath282)"
       transform="matrix(0.57531497,0,0,0.57531497,8.9260168,141.99641)"><path
         d="m 57.6,251.21305 5.668571,6.68213 5.668572,-4.70027 5.668571,-5.61069 5.668572,-8.31015 5.668571,-9.58246 5.668572,-6.48776 5.668571,-2.47097 5.66857,-5.68525 5.66857,-4.88641 5.66857,-5.13047 5.66858,-6.58326 5.66857,0.81811 5.66857,-0.29319 5.66857,1.52693 5.66857,2.471 5.66857,1.9131 5.66857,3.10707 5.66858,-1.97992 5.66857,0.20046 5.66857,-1.26878 5.66857,-3.47609 5.66857,-4.83596 5.66857,-2.75757 5.66857,1.71544 5.66858,-3.71959 5.66857,-2.61442 5.66857,-1.45885 5.66857,-3.16223 5.66857,-2.98773 5.66857,-7.06845 5.66857,0.0871 5.66858,-5.09676 5.66857,-0.34305 5.66857,-0.71497 5.66857,-1.56768 5.66857,-4.07395 5.66857,-2.41532 5.66857,-4.88578 5.66858,-2.29065 5.66857,0.0556 5.66857,0.76966 5.66857,-4.71606 5.66857,0.14041 5.66857,-5.55875 5.66857,1.8104 5.66858,0.73349 5.66857,-0.55869 5.66857,-1.85548 5.66857,-0.0139 5.66857,0.37574 5.66857,-1.76058 5.66857,-2.66261 5.66858,0.90028 5.66857,-0.17699 5.66857,-4.08468 5.66857,-0.60954 5.66857,0.10702 5.66857,-3.50594 5.66857,-5.20656 5.66858,-4.64454 5.66857,-4.308 5.66857,-1.61604 5.66857,-2.92514"
         style="fill:none;stroke:#1f77b4;stroke-width:1.5;stroke-linecap:square;stroke-linejoin:round;stroke-miterlimit:10;stroke-dasharray:none;stroke-opacity:1"
         id="path284" /></g><g
       id="g288"
       clip-path="url(#clipPath292)"
       transform="matrix(0.57531497,0,0,0.57531497,8.9260168,141.99641)"><path
         d="m 57.6,267.04851 5.668571,0.14509 5.668572,-8.16714 5.668571,-8.18651 5.668572,-8.2835 5.668571,-8.40988 5.668572,-4.75103 5.668571,-2.84072 5.66857,-3.4085 5.66857,-1.14623 5.66857,-2.5157 5.66858,-5.92846 5.66857,-2.54219 5.66857,-0.94149 5.66857,1.00246 5.66857,-0.39514 5.66857,1.87322 5.66857,1.95079 5.66858,-3.77669 5.66857,-2.90775 5.66857,-2.12449 5.66857,-5.0912 5.66857,-4.33206 5.66857,-2.0849 5.66857,0.38375 5.66858,-3.5371 5.66857,-2.35004 5.66857,0.006 5.66857,-0.96911 5.66857,-4.40858 5.66857,-6.41947 5.66857,1.08958 5.66858,-4.55265 5.66857,-0.44276 5.66857,-1.73934 5.66857,-2.19407 5.66857,-3.17098 5.66857,-0.76466 5.66857,-5.34343 5.66858,-0.91484 5.66857,1.31636 5.66857,-0.57642 5.66857,-2.97299 5.66857,0.39077 5.66857,-2.28363 5.66857,-1.40862 5.66858,-1.37934 5.66857,-2.50432 5.66857,-1.53673 5.66857,-0.0118 5.66857,-0.59575 5.66857,-3.0667 5.66857,-4.26466 5.66858,0.75409 5.66857,-0.5069 5.66857,-4.61519 5.66857,-0.47599 5.66857,-0.72909 5.66857,-2.21497 5.66857,-5.45758 5.66858,-2.13692 5.66857,-3.58354 5.66857,-2.91235 5.66857,-2.3137"
         style="fill:none;stroke:#ff7f0e;stroke-width:1.5;stroke-linecap:square;stroke-linejoin:round;stroke-miterlimit:10;stroke-dasharray:none;stroke-opacity:1"
         id="path294" /></g><g
       id="g298"
       clip-path="url(#clipPath302)"
       transform="matrix(0.57531497,0,0,0.57531497,8.9260168,141.99641)"><path
         d="m 57.6,257.21003 5.668571,1.28299 5.668572,-7.64517 5.668571,-8.69323 5.668572,-6.00711 5.668571,-7.92863 5.668572,-3.62967 5.668571,-3.8644 5.66857,-3.11338 5.66857,-1.86552 5.66857,-3.09497 5.66858,-4.63057 5.66857,-1.46224 5.66857,-2.34093 5.66857,1.03431 5.66857,-0.5736 5.66857,2.31872 5.66857,0.007 5.66858,-3.3146 5.66857,-3.63287 5.66857,-0.61695 5.66857,-6.17647 5.66857,-2.54032 5.66857,-2.26669 5.66857,2.87592 5.66858,-3.6847 5.66857,-0.0835 5.66857,-0.0372 5.66857,0.47557 5.66857,-4.79006 5.66857,-4.27599 5.66857,0.42369 5.66858,-3.45253 5.66857,0.69691 5.66857,-0.9046 5.66857,-2.24873 5.66857,-3.81628 5.66857,-0.40467 5.66857,-5.90352 5.66858,-0.5793 5.66857,1.74839 5.66857,-0.53029 5.66857,-2.65346 5.66857,0.93223 5.66857,-3.18883 5.66857,1.07001 5.66858,-0.37355 5.66857,-1.14873 5.66857,-2.05657 5.66857,2.3264 5.66857,-2.3617 5.66857,-1.94069 5.66857,-1.8518 5.66858,0.83432 5.66857,-0.7592 5.66857,-6.5118 5.66857,3.0333 5.66857,-5.41669 5.66857,-0.27209 5.66857,-6.28954 5.66858,-4.02443 5.66857,-2.45517 5.66857,-6.09427 5.66857,-4.96801"
         style="fill:none;stroke:#2ca02c;stroke-width:1.5;stroke-linecap:square;stroke-linejoin:round;stroke-miterlimit:10;stroke-dasharray:none;stroke-opacity:1"
         id="path304" /></g><g
       id="g308"
       clip-path="url(#clipPath312)"
       style="stroke:#8c564b;stroke-opacity:1"
       transform="matrix(0.57531497,0,0,0.57531497,8.9260168,141.99641)"><path
         d="m 57.6,251.96943 5.668571,1.51061 5.668572,-7.05487 5.668571,-5.93807 5.668572,-4.33096 5.668571,-7.63897 5.668572,-3.29009 5.668571,-3.86548 5.66857,-2.6105 5.66857,-0.79011 5.66857,-1.70943 5.66858,-4.86331 5.66857,-2.12578 5.66857,-2.78412 5.66857,0.58838 5.66857,0.11709 5.66857,1.15483 5.66857,0.93242 5.66858,-3.63248 5.66857,-4.21511 5.66857,-1.94664 5.66857,-6.29524 5.66857,-2.61457 5.66857,-2.71701 5.66857,2.23501 5.66858,-4.10238 5.66857,-1.12447 5.66857,-0.76252 5.66857,1.2718 5.66857,-5.5854 5.66857,-4.53184 5.66857,1.09924 5.66858,-2.31551 5.66857,-0.99642 5.66857,-0.82271 5.66857,-3.93934 5.66857,-2.90696 5.66857,-1.70032 5.66857,-5.75167 5.66858,-2.00422 5.66857,1.48468 5.66857,-0.52334 5.66857,-2.5692 5.66857,-0.67766 5.66857,-2.24157 5.66857,0.9927 5.66858,-0.39075 5.66857,-2.23177 5.66857,-1.72609 5.66857,0.95202 5.66857,-2.69645 5.66857,0.017 5.66857,-1.04213 5.66858,-1.33487 5.66857,2.05347 5.66857,-5.25687 5.66857,3.2633 5.66857,-7.54121 5.66857,0.54941 5.66857,-6.30204 5.66858,-2.77019 5.66857,-3.08161 5.66857,-8.24814 5.66857,-3.91451"
         style="fill:none;stroke:#8c564b;stroke-width:1.5;stroke-linecap:square;stroke-linejoin:round;stroke-miterlimit:10;stroke-dasharray:none;stroke-opacity:1"
         id="path314" /></g><g
       id="g318"
       clip-path="url(#clipPath322)"
       transform="matrix(0.57531497,0,0,0.57531497,8.9260168,141.99641)"><path
         d="m 57.6,242.17793 5.668571,1.85789 5.668572,-5.78528 5.668571,-4.88247 5.668572,-3.07658 5.668571,-7.57441 5.668572,-3.20379 5.668571,-4.55225 5.66857,-1.93417 5.66857,-0.874 5.66857,-1.66413 5.66858,-5.66045 5.66857,-2.92007 5.66857,-2.14011 5.66857,1.28313 5.66857,0.38726 5.66857,1.6984 5.66857,0.33017 5.66858,-3.72152 5.66857,-3.33458 5.66857,-1.57265 5.66857,-4.95425 5.66857,-2.63763 5.66857,-3.68076 5.66857,1.78138 5.66858,-3.73965 5.66857,-1.03002 5.66857,-1.41007 5.66857,1.18219 5.66857,-4.66351 5.66857,-4.52816 5.66857,0.26188 5.66858,-2.94481 5.66857,-0.88121 5.66857,0.30808 5.66857,-3.86048 5.66857,-1.73846 5.66857,-0.60318 5.66857,-6.95025 5.66858,-1.76545 5.66857,0.82361 5.66857,-1.27067 5.66857,-3.50185 5.66857,-1.47128 5.66857,-1.53037 5.66857,-2.0995 5.66858,-0.11573 5.66857,-1.73277 5.66857,-2.26919 5.66857,1.81613 5.66857,-3.91702 5.66857,-0.22557 5.66857,1.23443 5.66858,-0.44331 5.66857,1.19219 5.66857,-4.54695 5.66857,3.17887 5.66857,-7.04739 5.66857,3.19613 5.66857,-4.91308 5.66858,-1.89818 5.66857,-2.06236 5.66857,-7.05142 5.66857,-3.83909"
         style="fill:none;stroke:#9467bd;stroke-width:1.5;stroke-linecap:square;stroke-linejoin:round;stroke-miterlimit:10;stroke-dasharray:none;stroke-opacity:1"
         id="path324" /></g><path
       d="M 42.064159,163.86758 V 316.9658"
       style="fill:none;stroke:#000000;stroke-width:0.460252;stroke-linecap:square;stroke-linejoin:miter;stroke-miterlimit:10;stroke-dasharray:none;stroke-opacity:1"
       id="path338" /><path
       d="M 247.52064,163.86758 V 316.9658"
       style="fill:none;stroke:#000000;stroke-width:0.460252;stroke-linecap:square;stroke-linejoin:miter;stroke-miterlimit:10;stroke-dasharray:none;stroke-opacity:1"
       id="path340" /><path
       d="M 42.064159,163.86758 H 247.52064"
       style="fill:none;stroke:#000000;stroke-width:0.460252;stroke-linecap:square;stroke-linejoin:miter;stroke-miterlimit:10;stroke-dasharray:none;stroke-opacity:1"
       id="path342" /><path
       d="M 42.064159,316.9658 H 247.52064"
       style="fill:none;stroke:#000000;stroke-width:0.460252;stroke-linecap:square;stroke-linejoin:miter;stroke-miterlimit:10;stroke-dasharray:none;stroke-opacity:1"
       id="path344" /><path
       d="m 53.658471,215.23401 h 11.50631"
       style="fill:none;stroke:#1f77b4;stroke-width:0.862972;stroke-linecap:square;stroke-linejoin:round;stroke-miterlimit:10;stroke-dasharray:none;stroke-opacity:1"
       id="path354" /><path
       d="m 53.658471,206.79306 h 11.50631"
       style="fill:none;stroke:#ff7f0e;stroke-width:0.862972;stroke-linecap:square;stroke-linejoin:round;stroke-miterlimit:10;stroke-dasharray:none;stroke-opacity:1"
       id="path360" /><path
       d="m 53.658471,198.35211 h 11.50631"
       style="fill:none;stroke:#2ca02c;stroke-width:0.862972;stroke-linecap:square;stroke-linejoin:round;stroke-miterlimit:10;stroke-dasharray:none;stroke-opacity:1"
       id="path366" /><path
       d="m 53.658471,189.91116 h 11.50631"
       style="fill:none;stroke:#8c564b;stroke-width:0.862972;stroke-linecap:square;stroke-linejoin:round;stroke-miterlimit:10;stroke-dasharray:none;stroke-opacity:1"
       id="path372" /><path
       d="m 53.658471,181.47021 h 11.50631"
       style="fill:none;stroke:#9467bd;stroke-width:0.862972;stroke-linecap:square;stroke-linejoin:round;stroke-miterlimit:10;stroke-dasharray:none;stroke-opacity:1"
       id="path378" /><path
       d="m 53.658471,173.02926 h 11.50631"
       style="fill:none;stroke:#d62728;stroke-width:0.862972;stroke-linecap:square;stroke-linejoin:round;stroke-miterlimit:10;stroke-dasharray:none;stroke-opacity:1"
       id="path384" /></g><g
     inkscape:groupmode="layer"
     id="layer1"
     inkscape:label="text"
     transform="translate(-28.023958,-17.206424)"
     style="display:inline"><text
       style="font-variant:normal;font-weight:normal;font-size:7.67087px;font-family:'DejaVu Sans';-inkscape-font-specification:DejaVuSans;writing-mode:lr-tb;fill:#000000;fill-opacity:1;fill-rule:nonzero;stroke:none;stroke-width:0.767087"
       id="text32"
       x="53.984806"
       y="253.50455"><tspan
         x="53.984806 58.86348 61.302814"
         y="253.50455"
         sodipodi:role="line"
         id="tspan30"
         style="stroke-width:0.767087">0.0</tspan></text><text
       style="font-variant:normal;font-weight:normal;font-size:7.67087px;font-family:'DejaVu Sans';-inkscape-font-specification:DejaVuSans;writing-mode:lr-tb;fill:#000000;fill-opacity:1;fill-rule:nonzero;stroke:none;stroke-width:0.767087"
       id="text50"
       x="84.771088"
       y="253.50455"><tspan
         x="84.771088 89.649765 92.089104"
         y="253.50455"
         sodipodi:role="line"
         id="tspan48"
         style="stroke-width:0.767087">0.2</tspan></text><text
       style="font-variant:normal;font-weight:normal;font-size:7.67087px;font-family:'DejaVu Sans';-inkscape-font-specification:DejaVuSans;writing-mode:lr-tb;fill:#000000;fill-opacity:1;fill-rule:nonzero;stroke:none;stroke-width:0.767087"
       id="text68"
       x="119.55737"
       y="253.50455"><tspan
         x="119.55737 124.43604 126.87537"
         y="253.50455"
         sodipodi:role="line"
         id="tspan66"
         style="stroke-width:0.767087">0.4</tspan></text><text
       style="font-variant:normal;font-weight:normal;font-size:7.67087px;font-family:'DejaVu Sans';-inkscape-font-specification:DejaVuSans;writing-mode:lr-tb;fill:#000000;fill-opacity:1;fill-rule:nonzero;stroke:none;stroke-width:0.767087"
       id="text86"
       x="154.34367"
       y="253.50455"><tspan
         x="154.34367 159.22234 161.66167"
         y="253.50455"
         sodipodi:role="line"
         id="tspan84"
         style="stroke-width:0.767087">0.6</tspan></text><text
       style="font-variant:normal;font-weight:normal;font-size:7.67087px;font-family:'DejaVu Sans';-inkscape-font-specification:DejaVuSans;writing-mode:lr-tb;fill:#000000;fill-opacity:1;fill-rule:nonzero;stroke:none;stroke-width:0.767087"
       id="text104"
       x="189.12993"
       y="253.50455"><tspan
         x="189.12993 194.00861 196.44794"
         y="253.50455"
         sodipodi:role="line"
         id="tspan102"
         style="stroke-width:0.767087">0.8</tspan></text><text
       style="font-variant:normal;font-weight:normal;font-size:7.67087px;font-family:'DejaVu Sans';-inkscape-font-specification:DejaVuSans;writing-mode:lr-tb;fill:#000000;fill-opacity:1;fill-rule:nonzero;stroke:none;stroke-width:0.767087"
       id="text122"
       x="223.91621"
       y="253.50455"><tspan
         x="223.91621 228.79489 231.23421"
         y="253.50455"
         sodipodi:role="line"
         id="tspan120"
         style="stroke-width:0.767087">1.0</tspan></text><text
       style="font-variant:normal;font-weight:normal;font-size:7.67087px;font-family:'DejaVu Sans';-inkscape-font-specification:DejaVuSans;writing-mode:lr-tb;fill:#000000;fill-opacity:1;fill-rule:nonzero;stroke:none;stroke-width:0.767087"
       id="text140"
       x="258.70251"
       y="253.50455"><tspan
         x="258.70251 263.58115 266.02051"
         y="253.50455"
         sodipodi:role="line"
         id="tspan138"
         style="stroke-width:0.767087">1.2</tspan></text><text
       style="font-variant:normal;font-weight:normal;font-size:7.67087px;font-family:'DejaVu Sans';-inkscape-font-specification:DejaVuSans;writing-mode:lr-tb;fill:#000000;fill-opacity:1;fill-rule:nonzero;stroke:none;stroke-width:0.767087"
       id="text158"
       x="293.4888"
       y="253.50455"><tspan
         x="293.4888 298.36746 300.80679"
         y="253.50455"
         sodipodi:role="line"
         id="tspan156"
         style="stroke-width:0.767087">1.4</tspan></text><text
       style="font-variant:normal;font-weight:normal;font-size:7.67087px;font-family:'DejaVu Sans';-inkscape-font-specification:DejaVuSans;writing-mode:lr-tb;fill:#000000;fill-opacity:1;fill-rule:nonzero;stroke:none;stroke-width:0.767087"
       id="text162"
       x="146.62981"
       y="263.99228"><tspan
         x="146.62981 152.57474 157.29231 162.15564 166.8502 174.32164 176.45413 180.67311 183.11246 187.98344 190.11594 194.11246 197.11946 201.82169 206.68501 210.90401 215.62158 218.06093 220.64598 223.08533 229.70529 234.57629"
         y="263.99228"
         sodipodi:role="line"
         id="tspan160"
         style="stroke-width:0.767087">Genomic distance / Mbp</tspan></text><text
       style="font-variant:normal;font-weight:normal;font-size:7.67087px;font-family:'DejaVu Sans';-inkscape-font-specification:DejaVuSans;writing-mode:lr-tb;fill:#000000;fill-opacity:1;fill-rule:nonzero;stroke:none;stroke-width:0.767087"
       id="text180"
       x="38.514465"
       y="245.2224"><tspan
         x="38.514465 43.393135 45.832474"
         y="245.2224"
         sodipodi:role="line"
         id="tspan178"
         style="stroke-width:0.767087">0.0</tspan></text><text
       style="font-variant:normal;font-weight:normal;font-size:7.67087px;font-family:'DejaVu Sans';-inkscape-font-specification:DejaVuSans;writing-mode:lr-tb;fill:#000000;fill-opacity:1;fill-rule:nonzero;stroke:none;stroke-width:0.767087"
       id="text198"
       x="38.514465"
       y="204.39621"><tspan
         x="38.514465 43.393135 45.832474"
         y="204.39621"
         sodipodi:role="line"
         id="tspan196"
         style="stroke-width:0.767087">0.2</tspan></text><text
       style="font-variant:normal;font-weight:normal;font-size:7.67087px;font-family:'DejaVu Sans';-inkscape-font-specification:DejaVuSans;writing-mode:lr-tb;fill:#000000;fill-opacity:1;fill-rule:nonzero;stroke:none;stroke-width:0.767087"
       id="text216"
       x="38.514465"
       y="163.57002"><tspan
         x="38.514465 43.393135 45.832474"
         y="163.57002"
         sodipodi:role="line"
         id="tspan214"
         style="stroke-width:0.767087">0.4</tspan></text><text
       style="font-variant:normal;font-weight:normal;font-size:7.67087px;font-family:'DejaVu Sans';-inkscape-font-specification:DejaVuSans;writing-mode:lr-tb;fill:#000000;fill-opacity:1;fill-rule:nonzero;stroke:none;stroke-width:0.767087"
       id="text234"
       x="38.514465"
       y="122.74383"><tspan
         x="38.514465 43.393135 45.832474"
         y="122.74383"
         sodipodi:role="line"
         id="tspan232"
         style="stroke-width:0.767087">0.6</tspan></text><text
       style="font-variant:normal;font-weight:normal;font-size:7.67087px;font-family:'DejaVu Sans';-inkscape-font-specification:DejaVuSans;writing-mode:lr-tb;fill:#000000;fill-opacity:1;fill-rule:nonzero;stroke:none;stroke-width:0.767087"
       id="text252"
       x="38.514465"
       y="81.917648"><tspan
         x="38.514465 43.393135 45.832474"
         y="81.917648"
         sodipodi:role="line"
         id="tspan250"
         style="stroke-width:0.767087">0.8</tspan></text><text
       style="font-variant:normal;font-weight:normal;font-size:7.67087px;font-family:'DejaVu Sans';-inkscape-font-specification:DejaVuSans;writing-mode:lr-tb;fill:#000000;fill-opacity:1;fill-rule:nonzero;stroke:none;stroke-width:0.767087"
       id="text270"
       x="38.514465"
       y="41.091518"><tspan
         x="38.514465 43.393135 45.832474"
         y="41.091518"
         sodipodi:role="line"
         id="tspan268"
         style="stroke-width:0.767087">1.0</tspan></text><text
       transform="rotate(-90)"
       style="font-variant:normal;font-weight:normal;font-size:7.67087px;font-family:'DejaVu Sans';-inkscape-font-specification:DejaVuSans;writing-mode:lr-tb;fill:#000000;fill-opacity:1;fill-rule:nonzero;stroke:none;stroke-width:0.767087"
       id="text274"
       x="-177.30428"
       y="33.85202"><tspan
         x="-177.30428 -172.67873 -167.96115 -163.25891 -160.10619 -156.10966 -151.4151 -146.55176 -144.11244 -139.89346 -135.19888 -132.04616 -128.89343 -124.17584 -122.04336 -117.34109 -114.33412 -112.20162 -107.50706"
         y="33.85202"
         sodipodi:role="line"
         id="tspan272"
         style="stroke-width:0.767087">Pearson correlation</tspan></text><text
       style="font-variant:normal;font-weight:normal;font-size:9.20504px;font-family:'DejaVu Sans';-inkscape-font-specification:DejaVuSans;writing-mode:lr-tb;fill:#000000;fill-opacity:1;fill-rule:nonzero;stroke:none;stroke-width:0.767087"
       id="text348"
       x="98.327316"
       y="23.25914"><tspan
         x="98.327316 103.87796 109.53906 115.18176 118.96502 123.76085 129.39433 135.23033 138.15753 143.22029 148.85379 152.63707 156.42032 162.08142 164.64043 170.28313 173.89149 176.4505 182.08398 187.91997 190.84718 196.29657 201.09239 204.01958 206.94681 212.79199 218.45309 224.28906 229.92258 238.88828 241.44728 246.51006 249.43726 255.28246 257.84146 262.63727 266.24567 271.88834 277.7243 282.78708"
         y="23.25914"
         sodipodi:role="line"
         id="tspan346"
         style="stroke-width:0.767087">Pearson correlation vs. genomic distance</tspan></text><text
       style="font-variant:normal;font-weight:normal;font-size:9.20504px;font-family:'DejaVu Sans';-inkscape-font-specification:DejaVuSans;writing-mode:lr-tb;fill:#000000;fill-opacity:1;fill-rule:nonzero;stroke:none;stroke-width:0.767087"
       id="text352"
       x="63.990898"
       y="33.576466"><tspan
         x="63.990898 71.124802 79.068756 84.923164 90.777557 96.631966 102.48637 108.34078 111.26798 114.19518 120.04959 122.97681 128.83119 131.75839 137.61281 140.54001 146.39441 149.32162 155.17603 158.10321 163.95763 169.81203 172.73923 178.59363 184.44803 187.37524 193.22964 199.08405 202.01126 207.86566 213.72006 216.64728 222.50168 228.35609 231.28328 237.1377 242.9921 245.91931 251.7737 257.62811 260.5553 266.40973 272.2641 275.19135 280.82483 286.6608 289.58801 295.62653 301.48093 307.33533 313.18973 316.11694 319.04416"
         y="33.576466"
         sodipodi:role="line"
         id="tspan350"
         style="stroke-width:0.767087">GM12878, 1,2,4,7,9,11,13,14,16,17,18,20,22 on K562, 3</tspan></text><text
       style="font-variant:normal;font-weight:normal;font-size:7.67087px;font-family:'DejaVu Sans';-inkscape-font-specification:DejaVuSans;writing-mode:lr-tb;fill:#000000;fill-opacity:1;fill-rule:nonzero;stroke:none;stroke-width:0.767087"
       id="text358"
       x="93.023094"
       y="176.50618"><tspan
         x="93.023094 97.901756 102.78043 105.21976 109.93735 114.80836 117.24767 119.83276 122.27212 127.51897 133.13406 138.48831 141.07339 143.51274 148.3914 150.83073 155.70943 160.58809"
         y="176.50618"
         sodipodi:role="line"
         id="tspan356"
         style="stroke-width:0.767087">20 ep / AUC: 0.520</tspan></text><text
       style="font-variant:normal;font-weight:normal;font-size:7.67087px;font-family:'DejaVu Sans';-inkscape-font-specification:DejaVuSans;writing-mode:lr-tb;fill:#000000;fill-opacity:1;fill-rule:nonzero;stroke:none;stroke-width:0.767087"
       id="text364"
       x="93.023094"
       y="187.76077"><tspan
         x="93.023094 97.901756 102.78043 105.21976 109.93735 114.80836 117.24767 119.83276 122.27212 127.51897 133.13406 138.48831 141.07339 143.51274 148.3914 150.83073 155.70943 160.58809"
         y="187.76077"
         sodipodi:role="line"
         id="tspan362"
         style="stroke-width:0.767087">40 ep / AUC: 0.535</tspan></text><text
       style="font-variant:normal;font-weight:normal;font-size:7.67087px;font-family:'DejaVu Sans';-inkscape-font-specification:DejaVuSans;writing-mode:lr-tb;fill:#000000;fill-opacity:1;fill-rule:nonzero;stroke:none;stroke-width:0.767087"
       id="text370"
       x="93.023094"
       y="199.01532"><tspan
         x="93.023094 97.901756 102.78043 105.21976 109.93735 114.80836 117.24767 119.83276 122.27212 127.51897 133.13406 138.48831 141.07339 143.51274 148.3914 150.83073 155.70943 160.58809"
         y="199.01532"
         sodipodi:role="line"
         id="tspan368"
         style="stroke-width:0.767087">60 ep / AUC: 0.540</tspan></text><text
       style="font-variant:normal;font-weight:normal;font-size:7.67087px;font-family:'DejaVu Sans';-inkscape-font-specification:DejaVuSans;writing-mode:lr-tb;fill:#000000;fill-opacity:1;fill-rule:nonzero;stroke:none;stroke-width:0.767087"
       id="text376"
       x="93.023094"
       y="210.26991"><tspan
         x="93.023094 97.901756 102.78043 105.21976 109.93735 114.80836 117.24767 119.83276 122.27212 127.51897 133.13406 138.48831 141.07339 143.51274 148.3914 150.83073 155.70943 160.58809"
         y="210.26991"
         sodipodi:role="line"
         id="tspan374"
         style="stroke-width:0.767087">80 ep / AUC: 0.527</tspan></text><text
       style="font-variant:normal;font-weight:normal;font-size:7.67087px;font-family:'DejaVu Sans';-inkscape-font-specification:DejaVuSans;writing-mode:lr-tb;fill:#000000;fill-opacity:1;fill-rule:nonzero;stroke:none;stroke-width:0.767087"
       id="text382"
       x="93.023094"
       y="221.52451"><tspan
         x="93.023094 97.901756 102.78043 107.6591 110.09843 114.81603 119.687 122.12637 124.71145 127.15076 132.39764 138.01273 143.36699 145.95207 148.3914 153.27007 155.70943 160.58809 165.46675"
         y="221.52451"
         sodipodi:role="line"
         id="tspan380"
         style="stroke-width:0.767087">100 ep / AUC: 0.507</tspan></text><text
       style="font-variant:normal;font-weight:normal;font-size:7.67087px;font-family:'DejaVu Sans';-inkscape-font-specification:DejaVuSans;writing-mode:lr-tb;fill:#000000;fill-opacity:1;fill-rule:nonzero;stroke:none;stroke-width:0.767087"
       id="text388"
       x="93.023094"
       y="232.77913"><tspan
         x="93.023094 96.030067 99.182808 103.88503 108.74835 112.7449 115.44502 120.16263 123.31535 125.75466 131.6996 138.31955 143.19824 148.07689 152.95558 157.83424 162.71291 165.15227 167.73732 170.17668 175.42354 181.03859 186.3929 188.97795 191.41728 196.29597 198.73531 203.61397 208.49266"
         y="232.77913"
         sodipodi:role="line"
         id="tspan386"
         style="stroke-width:0.767087">transfer GM12878 / AUC: 0.671</tspan></text></g></svg>
