<?xml version="1.0" encoding="UTF-8" standalone="no"?>
<svg
   xmlns:dc="http://purl.org/dc/elements/1.1/"
   xmlns:cc="http://creativecommons.org/ns#"
   xmlns:rdf="http://www.w3.org/1999/02/22-rdf-syntax-ns#"
   xmlns:svg="http://www.w3.org/2000/svg"
   xmlns="http://www.w3.org/2000/svg"
   xmlns:sodipodi="http://sodipodi.sourceforge.net/DTD/sodipodi-0.dtd"
   xmlns:inkscape="http://www.inkscape.org/namespaces/inkscape"
   version="1.1"
   id="svg2"
   xml:space="preserve"
   width="80mm"
   height="65.300003mm"
   viewBox="0 0 302.36219 246.80316"
   sodipodi:docname="pearson_chr05.svg"
   inkscape:version="1.0.2 (1.0.2+r75+1)"><metadata
     id="metadata8"><rdf:RDF><cc:Work
         rdf:about=""><dc:format>image/svg+xml</dc:format><dc:type
           rdf:resource="http://purl.org/dc/dcmitype/StillImage" /><dc:title></dc:title></cc:Work></rdf:RDF></metadata><defs
     id="defs6"><clipPath
       clipPathUnits="userSpaceOnUse"
       id="clipPath22"><path
         d="M 57.6,38.016 H 414.72 V 304.128 H 57.6 Z"
         id="path20" /></clipPath><clipPath
       clipPathUnits="userSpaceOnUse"
       id="clipPath40"><path
         d="M 57.6,38.016 H 414.72 V 304.128 H 57.6 Z"
         id="path38" /></clipPath><clipPath
       clipPathUnits="userSpaceOnUse"
       id="clipPath58"><path
         d="M 57.6,38.016 H 414.72 V 304.128 H 57.6 Z"
         id="path56" /></clipPath><clipPath
       clipPathUnits="userSpaceOnUse"
       id="clipPath76"><path
         d="M 57.6,38.016 H 414.72 V 304.128 H 57.6 Z"
         id="path74" /></clipPath><clipPath
       clipPathUnits="userSpaceOnUse"
       id="clipPath94"><path
         d="M 57.6,38.016 H 414.72 V 304.128 H 57.6 Z"
         id="path92" /></clipPath><clipPath
       clipPathUnits="userSpaceOnUse"
       id="clipPath112"><path
         d="M 57.6,38.016 H 414.72 V 304.128 H 57.6 Z"
         id="path110" /></clipPath><clipPath
       clipPathUnits="userSpaceOnUse"
       id="clipPath130"><path
         d="M 57.6,38.016 H 414.72 V 304.128 H 57.6 Z"
         id="path128" /></clipPath><clipPath
       clipPathUnits="userSpaceOnUse"
       id="clipPath148"><path
         d="M 57.6,38.016 H 414.72 V 304.128 H 57.6 Z"
         id="path146" /></clipPath><clipPath
       clipPathUnits="userSpaceOnUse"
       id="clipPath170"><path
         d="M 57.6,38.016 H 414.72 V 304.128 H 57.6 Z"
         id="path168" /></clipPath><clipPath
       clipPathUnits="userSpaceOnUse"
       id="clipPath188"><path
         d="M 57.6,38.016 H 414.72 V 304.128 H 57.6 Z"
         id="path186" /></clipPath><clipPath
       clipPathUnits="userSpaceOnUse"
       id="clipPath206"><path
         d="M 57.6,38.016 H 414.72 V 304.128 H 57.6 Z"
         id="path204" /></clipPath><clipPath
       clipPathUnits="userSpaceOnUse"
       id="clipPath224"><path
         d="M 57.6,38.016 H 414.72 V 304.128 H 57.6 Z"
         id="path222" /></clipPath><clipPath
       clipPathUnits="userSpaceOnUse"
       id="clipPath242"><path
         d="M 57.6,38.016 H 414.72 V 304.128 H 57.6 Z"
         id="path240" /></clipPath><clipPath
       clipPathUnits="userSpaceOnUse"
       id="clipPath260"><path
         d="M 57.6,38.016 H 414.72 V 304.128 H 57.6 Z"
         id="path258" /></clipPath><clipPath
       clipPathUnits="userSpaceOnUse"
       id="clipPath282"><path
         d="M 57.6,38.016 H 414.72 V 304.128 H 57.6 Z"
         id="path280" /></clipPath><clipPath
       clipPathUnits="userSpaceOnUse"
       id="clipPath292"><path
         d="M 57.6,38.016 H 414.72 V 304.128 H 57.6 Z"
         id="path290" /></clipPath><clipPath
       clipPathUnits="userSpaceOnUse"
       id="clipPath302"><path
         d="M 57.6,38.016 H 414.72 V 304.128 H 57.6 Z"
         id="path300" /></clipPath><clipPath
       clipPathUnits="userSpaceOnUse"
       id="clipPath312"><path
         d="M 57.6,38.016 H 414.72 V 304.128 H 57.6 Z"
         id="path310" /></clipPath><clipPath
       clipPathUnits="userSpaceOnUse"
       id="clipPath322"><path
         d="M 57.6,38.016 H 414.72 V 304.128 H 57.6 Z"
         id="path320" /></clipPath><clipPath
       clipPathUnits="userSpaceOnUse"
       id="clipPath332"><path
         d="M 57.6,38.016 H 414.72 V 304.128 H 57.6 Z"
         id="path330" /></clipPath></defs><sodipodi:namedview
     pagecolor="#ffffff"
     bordercolor="#666666"
     borderopacity="1"
     objecttolerance="10"
     gridtolerance="10"
     guidetolerance="10"
     inkscape:pageopacity="0"
     inkscape:pageshadow="2"
     inkscape:window-width="1920"
     inkscape:window-height="1020"
     id="namedview4"
     showgrid="false"
     fit-margin-top="0"
     fit-margin-left="0"
     fit-margin-right="0"
     fit-margin-bottom="0"
     units="mm"
     inkscape:zoom="1.8598091"
     inkscape:cx="236.62578"
     inkscape:cy="209.46081"
     inkscape:window-x="0"
     inkscape:window-y="0"
     inkscape:window-maximized="1"
     inkscape:current-layer="layer1" /><g
     id="g10"
     inkscape:groupmode="layer"
     inkscape:label="pearson_chr05"
     transform="matrix(1.3333333,0,0,-1.3333333,-28.023958,443.59358)"><g
       id="g328"
       clip-path="url(#clipPath332)"
       transform="matrix(0.57522824,0,0,0.57522824,8.9278396,141.92444)"
       style="stroke:#d62728;stroke-opacity:1"><path
         d="m 57.6,274.26669 5.668571,-8.51413 5.668572,-4.60585 5.668571,-0.61572 5.668572,-0.97414 5.668571,0.2994 5.668572,0.17462 5.668571,-0.0369 5.66857,0.55342 5.66857,-1.55777 5.66857,-1.31879 5.66858,-0.0429 5.66857,-1.84437 5.66857,-1.25059 5.66857,-0.22577 5.66857,-2.59774 5.66857,-0.67705 5.66857,-0.23919 5.66858,-2.43211 5.66857,-1.4151 5.66857,-1.07585 5.66857,-1.42078 5.66857,0.29705 5.66857,-1.2512 5.66857,-4.21345 5.66858,1.85402 5.66857,0.40948 5.66857,0.49735 5.66857,-0.15599 5.66857,-2.90436 5.66857,0.90238 5.66857,-3.56086 5.66858,-0.71117 5.66857,0.0317 5.66857,-3.35022 5.66857,0.40922 5.66857,-1.31818 5.66857,-0.0777 5.66857,-2.52089 5.66858,2.24148 5.66857,-2.15834 5.66857,-3.06158 5.66857,-0.31306 5.66857,-0.70681 5.66857,4.80396 5.66857,-2.65466 5.66858,0.83184 5.66857,-1.614 5.66857,-2.32449 5.66857,2.89507 5.66857,-6.57443 5.66857,2.15945 5.66857,-6.06139 5.66858,-1.32181 5.66857,-1.42226 5.66857,-2.91308 5.66857,-0.51664 5.66857,1.0175 5.66857,-5.84401 5.66857,1.57233 5.66858,-5.53072 5.66857,5.36572 5.66857,-2.10874 5.66857,3.65182"
         style="fill:none;stroke:#d62728;stroke-width:1.5;stroke-linecap:square;stroke-linejoin:round;stroke-miterlimit:10;stroke-dasharray:none;stroke-opacity:1"
         id="path334" /></g><g
       id="g16"
       transform="matrix(0.57522824,0,0,0.57522824,8.9278396,141.92444)"><g
         id="g18"
         clip-path="url(#clipPath22)"><path
           d="M 57.6,38.016 V 304.128"
           style="fill:none;stroke:#b0b0b0;stroke-width:0.8;stroke-linecap:square;stroke-linejoin:round;stroke-miterlimit:10;stroke-dasharray:none;stroke-opacity:1"
           id="path24" /></g></g><path
       d="m 42.060986,163.79232 v -2.0133"
       style="fill:#000000;fill-opacity:1;fill-rule:nonzero;stroke:#000000;stroke-width:0.460183;stroke-linecap:butt;stroke-linejoin:round;stroke-miterlimit:10;stroke-dasharray:none;stroke-opacity:1"
       id="path28" /><g
       id="g34"
       transform="matrix(0.57522824,0,0,0.57522824,8.9278396,141.92444)"><g
         id="g36"
         clip-path="url(#clipPath40)"><path
           d="M 102.94857,38.016 V 304.128"
           style="fill:none;stroke:#b0b0b0;stroke-width:0.8;stroke-linecap:square;stroke-linejoin:round;stroke-miterlimit:10;stroke-dasharray:none;stroke-opacity:1"
           id="path42" /></g></g><path
       d="m 68.146765,163.79232 v -2.0133"
       style="fill:#000000;fill-opacity:1;fill-rule:nonzero;stroke:#000000;stroke-width:0.460183;stroke-linecap:butt;stroke-linejoin:round;stroke-miterlimit:10;stroke-dasharray:none;stroke-opacity:1"
       id="path46" /><g
       id="g52"
       transform="matrix(0.57522824,0,0,0.57522824,8.9278396,141.92444)"><g
         id="g54"
         clip-path="url(#clipPath58)"><path
           d="M 148.29714,38.016 V 304.128"
           style="fill:none;stroke:#b0b0b0;stroke-width:0.8;stroke-linecap:square;stroke-linejoin:round;stroke-miterlimit:10;stroke-dasharray:none;stroke-opacity:1"
           id="path60" /></g></g><path
       d="m 94.232543,163.79232 v -2.0133"
       style="fill:#000000;fill-opacity:1;fill-rule:nonzero;stroke:#000000;stroke-width:0.460183;stroke-linecap:butt;stroke-linejoin:round;stroke-miterlimit:10;stroke-dasharray:none;stroke-opacity:1"
       id="path64" /><g
       id="g70"
       transform="matrix(0.57522824,0,0,0.57522824,8.9278396,141.92444)"><g
         id="g72"
         clip-path="url(#clipPath76)"><path
           d="M 193.64571,38.016 V 304.128"
           style="fill:none;stroke:#b0b0b0;stroke-width:0.8;stroke-linecap:square;stroke-linejoin:round;stroke-miterlimit:10;stroke-dasharray:none;stroke-opacity:1"
           id="path78" /></g></g><path
       d="m 120.31833,163.79232 v -2.0133"
       style="fill:#000000;fill-opacity:1;fill-rule:nonzero;stroke:#000000;stroke-width:0.460183;stroke-linecap:butt;stroke-linejoin:round;stroke-miterlimit:10;stroke-dasharray:none;stroke-opacity:1"
       id="path82" /><g
       id="g88"
       transform="matrix(0.57522824,0,0,0.57522824,8.9278396,141.92444)"><g
         id="g90"
         clip-path="url(#clipPath94)"><path
           d="M 238.99429,38.016 V 304.128"
           style="fill:none;stroke:#b0b0b0;stroke-width:0.8;stroke-linecap:square;stroke-linejoin:round;stroke-miterlimit:10;stroke-dasharray:none;stroke-opacity:1"
           id="path96" /></g></g><path
       d="m 146.40411,163.79232 v -2.0133"
       style="fill:#000000;fill-opacity:1;fill-rule:nonzero;stroke:#000000;stroke-width:0.460183;stroke-linecap:butt;stroke-linejoin:round;stroke-miterlimit:10;stroke-dasharray:none;stroke-opacity:1"
       id="path100" /><g
       id="g106"
       transform="matrix(0.57522824,0,0,0.57522824,8.9278396,141.92444)"><g
         id="g108"
         clip-path="url(#clipPath112)"><path
           d="M 284.34286,38.016 V 304.128"
           style="fill:none;stroke:#b0b0b0;stroke-width:0.8;stroke-linecap:square;stroke-linejoin:round;stroke-miterlimit:10;stroke-dasharray:none;stroke-opacity:1"
           id="path114" /></g></g><path
       d="m 172.48988,163.79232 v -2.0133"
       style="fill:#000000;fill-opacity:1;fill-rule:nonzero;stroke:#000000;stroke-width:0.460183;stroke-linecap:butt;stroke-linejoin:round;stroke-miterlimit:10;stroke-dasharray:none;stroke-opacity:1"
       id="path118" /><g
       id="g124"
       transform="matrix(0.57522824,0,0,0.57522824,8.9278396,141.92444)"><g
         id="g126"
         clip-path="url(#clipPath130)"><path
           d="M 329.69143,38.016 V 304.128"
           style="fill:none;stroke:#b0b0b0;stroke-width:0.8;stroke-linecap:square;stroke-linejoin:round;stroke-miterlimit:10;stroke-dasharray:none;stroke-opacity:1"
           id="path132" /></g></g><path
       d="m 198.57566,163.79232 v -2.0133"
       style="fill:#000000;fill-opacity:1;fill-rule:nonzero;stroke:#000000;stroke-width:0.460183;stroke-linecap:butt;stroke-linejoin:round;stroke-miterlimit:10;stroke-dasharray:none;stroke-opacity:1"
       id="path136" /><g
       id="g142"
       transform="matrix(0.57522824,0,0,0.57522824,8.9278396,141.92444)"><g
         id="g144"
         clip-path="url(#clipPath148)"><path
           d="M 375.04,38.016 V 304.128"
           style="fill:none;stroke:#b0b0b0;stroke-width:0.8;stroke-linecap:square;stroke-linejoin:round;stroke-miterlimit:10;stroke-dasharray:none;stroke-opacity:1"
           id="path150" /></g></g><path
       d="m 224.66144,163.79232 v -2.0133"
       style="fill:#000000;fill-opacity:1;fill-rule:nonzero;stroke:#000000;stroke-width:0.460183;stroke-linecap:butt;stroke-linejoin:round;stroke-miterlimit:10;stroke-dasharray:none;stroke-opacity:1"
       id="path154" /><g
       id="g164"
       transform="matrix(0.57522824,0,0,0.57522824,8.9278396,141.92444)"><g
         id="g166"
         clip-path="url(#clipPath170)"><path
           d="M 57.6,38.016 H 414.72"
           style="fill:none;stroke:#b0b0b0;stroke-width:0.8;stroke-linecap:square;stroke-linejoin:round;stroke-miterlimit:10;stroke-dasharray:none;stroke-opacity:1"
           id="path172" /></g></g><path
       d="M 42.060986,163.79232 H 40.047688"
       style="fill:#000000;fill-opacity:1;fill-rule:nonzero;stroke:#000000;stroke-width:0.460183;stroke-linecap:butt;stroke-linejoin:round;stroke-miterlimit:10;stroke-dasharray:none;stroke-opacity:1"
       id="path176" /><g
       id="g182"
       transform="matrix(0.57522824,0,0,0.57522824,8.9278396,141.92444)"><g
         id="g184"
         clip-path="url(#clipPath188)"><path
           d="M 57.6,91.2384 H 414.72"
           style="fill:none;stroke:#b0b0b0;stroke-width:0.8;stroke-linecap:square;stroke-linejoin:round;stroke-miterlimit:10;stroke-dasharray:none;stroke-opacity:1"
           id="path190" /></g></g><path
       d="M 42.060986,194.40735 H 40.047688"
       style="fill:#000000;fill-opacity:1;fill-rule:nonzero;stroke:#000000;stroke-width:0.460183;stroke-linecap:butt;stroke-linejoin:round;stroke-miterlimit:10;stroke-dasharray:none;stroke-opacity:1"
       id="path194" /><g
       id="g200"
       transform="matrix(0.57522824,0,0,0.57522824,8.9278396,141.92444)"><g
         id="g202"
         clip-path="url(#clipPath206)"><path
           d="M 57.6,144.4608 H 414.72"
           style="fill:none;stroke:#b0b0b0;stroke-width:0.8;stroke-linecap:square;stroke-linejoin:round;stroke-miterlimit:10;stroke-dasharray:none;stroke-opacity:1"
           id="path208" /></g></g><path
       d="M 42.060986,225.02238 H 40.047688"
       style="fill:#000000;fill-opacity:1;fill-rule:nonzero;stroke:#000000;stroke-width:0.460183;stroke-linecap:butt;stroke-linejoin:round;stroke-miterlimit:10;stroke-dasharray:none;stroke-opacity:1"
       id="path212" /><g
       id="g218"
       transform="matrix(0.57522824,0,0,0.57522824,8.9278396,141.92444)"><g
         id="g220"
         clip-path="url(#clipPath224)"><path
           d="M 57.6,197.6832 H 414.72"
           style="fill:none;stroke:#b0b0b0;stroke-width:0.8;stroke-linecap:square;stroke-linejoin:round;stroke-miterlimit:10;stroke-dasharray:none;stroke-opacity:1"
           id="path226" /></g></g><path
       d="M 42.060986,255.6374 H 40.047688"
       style="fill:#000000;fill-opacity:1;fill-rule:nonzero;stroke:#000000;stroke-width:0.460183;stroke-linecap:butt;stroke-linejoin:round;stroke-miterlimit:10;stroke-dasharray:none;stroke-opacity:1"
       id="path230" /><g
       id="g236"
       transform="matrix(0.57522824,0,0,0.57522824,8.9278396,141.92444)"><g
         id="g238"
         clip-path="url(#clipPath242)"><path
           d="M 57.6,250.9056 H 414.72"
           style="fill:none;stroke:#b0b0b0;stroke-width:0.8;stroke-linecap:square;stroke-linejoin:round;stroke-miterlimit:10;stroke-dasharray:none;stroke-opacity:1"
           id="path244" /></g></g><path
       d="M 42.060986,286.25242 H 40.047688"
       style="fill:#000000;fill-opacity:1;fill-rule:nonzero;stroke:#000000;stroke-width:0.460183;stroke-linecap:butt;stroke-linejoin:round;stroke-miterlimit:10;stroke-dasharray:none;stroke-opacity:1"
       id="path248" /><g
       id="g254"
       transform="matrix(0.57522824,0,0,0.57522824,8.9278396,141.92444)"><g
         id="g256"
         clip-path="url(#clipPath260)"><path
           d="M 57.6,304.128 H 414.72"
           style="fill:none;stroke:#b0b0b0;stroke-width:0.8;stroke-linecap:square;stroke-linejoin:round;stroke-miterlimit:10;stroke-dasharray:none;stroke-opacity:1"
           id="path262" /></g></g><path
       d="M 42.060986,316.86746 H 40.047688"
       style="fill:#000000;fill-opacity:1;fill-rule:nonzero;stroke:#000000;stroke-width:0.460183;stroke-linecap:butt;stroke-linejoin:round;stroke-miterlimit:10;stroke-dasharray:none;stroke-opacity:1"
       id="path266" /><g
       id="g278"
       clip-path="url(#clipPath282)"
       transform="matrix(0.57522824,0,0,0.57522824,8.9278396,141.92444)"><path
         d="m 57.6,252.98546 5.668571,4.10693 5.668572,-6.94942 5.668571,-9.10497 5.668572,-6.25581 5.668571,-7.357 5.668572,-4.39113 5.668571,-5.14901 5.66857,-5.69997 5.66857,-0.27123 5.66857,-3.46913 5.66858,-5.91149 5.66857,-3.07577 5.66857,-5.18245 5.66857,-6.53719 5.66857,-5.11046 5.66857,-3.20494 5.66857,-2.54698 5.66858,-0.98262 5.66857,-2.69276 5.66857,-3.13088 5.66857,-3.59316 5.66857,-3.7088 5.66857,-2.60226 5.66857,-2.05587 5.66858,-4.29461 5.66857,-5.41594 5.66857,1.37009 5.66857,-4.86187 5.66857,-0.8721 5.66857,-2.2295 5.66857,-0.63727 5.66858,-1.72811 5.66857,-3.46039 5.66857,-2.00969 5.66857,-2.11412 5.66857,-0.68512 5.66857,0.44732 5.66857,-1.5792 5.66858,-1.74071 5.66857,-2.49594 5.66857,-1.64738 5.66857,4.01657 5.66857,-3.17553 5.66857,-0.67138 5.66857,1.47735 5.66858,-1.21698 5.66857,-3.38677 5.66857,0.88589 5.66857,-3.86092 5.66857,-1.04827 5.66857,-2.07153 5.66857,1.58275 5.66858,-6.28334 5.66857,2.94619 5.66857,-5.39512 5.66857,-4.25536 5.66857,-0.39236 5.66857,-1.02351 5.66857,-1.84396 5.66858,-4.421851 5.66857,-3.27242 5.66857,-1.211232 5.66857,-4.383702"
         style="fill:none;stroke:#1f77b4;stroke-width:1.5;stroke-linecap:square;stroke-linejoin:round;stroke-miterlimit:10;stroke-dasharray:none;stroke-opacity:1"
         id="path284" /></g><g
       id="g288"
       clip-path="url(#clipPath292)"
       transform="matrix(0.57522824,0,0,0.57522824,8.9278396,141.92444)"><path
         d="m 57.6,261.55878 5.668571,3.4045 5.668572,-8.24799 5.668571,-10.00333 5.668572,-8.15845 5.668571,-7.77377 5.668572,-5.407 5.668571,-5.07825 5.66857,-5.19671 5.66857,-0.094 5.66857,-2.70102 5.66858,-5.15937 5.66857,-2.34551 5.66857,-4.10337 5.66857,-6.43993 5.66857,-3.62978 5.66857,-2.0418 5.66857,-3.0198 5.66858,-0.23245 5.66857,-1.53227 5.66857,-1.3159 5.66857,-2.32903 5.66857,-3.11115 5.66857,-1.30206 5.66857,-2.24036 5.66858,-4.07539 5.66857,-5.69601 5.66857,0.59371 5.66857,-7.18877 5.66857,-0.47438 5.66857,-2.91582 5.66857,-0.38764 5.66858,-3.10524 5.66857,-3.98291 5.66857,-2.11204 5.66857,-2.95758 5.66857,-0.11079 5.66857,0.57898 5.66857,-1.2948 5.66858,-2.37937 5.66857,-1.91661 5.66857,-0.19026 5.66857,4.36171 5.66857,-3.04993 5.66857,-0.74678 5.66857,2.44094 5.66858,-1.38751 5.66857,1.22224 5.66857,0.80852 5.66857,-2.6577 5.66857,1.05909 5.66857,0.72686 5.66857,0.0617 5.66858,-4.14755 5.66857,4.05732 5.66857,-1.11268 5.66857,-4.40254 5.66857,-0.85151 5.66857,-0.32424 5.66857,0.99047 5.66858,-4.22184 5.66857,-3.54478 5.66857,-1.44349 5.66857,-10.39592"
         style="fill:none;stroke:#ff7f0e;stroke-width:1.5;stroke-linecap:square;stroke-linejoin:round;stroke-miterlimit:10;stroke-dasharray:none;stroke-opacity:1"
         id="path294" /></g><g
       id="g298"
       clip-path="url(#clipPath302)"
       transform="matrix(0.57522824,0,0,0.57522824,8.9278396,141.92444)"><path
         d="m 57.6,263.97707 5.668571,2.66717 5.668572,-8.64074 5.668571,-9.77876 5.668572,-7.88 5.668571,-6.94925 5.668572,-4.21375 5.668571,-4.4125 5.66857,-4.44658 5.66857,1.50649 5.66857,-1.96362 5.66858,-5.00231 5.66857,-2.15015 5.66857,-3.8587 5.66857,-6.40042 5.66857,-4.35487 5.66857,-2.26 5.66857,-3.32955 5.66858,-0.35297 5.66857,-2.20522 5.66857,-1.8442 5.66857,-2.64385 5.66857,-3.02357 5.66857,-0.26055 5.66857,-2.04105 5.66858,-3.34879 5.66857,-5.46082 5.66857,0.64482 5.66857,-7.50151 5.66857,-0.39884 5.66857,-2.83005 5.66857,-0.11015 5.66858,-3.31264 5.66857,-3.59279 5.66857,-3.31466 5.66857,-2.04355 5.66857,-0.30467 5.66857,-0.23766 5.66857,-0.93981 5.66858,-1.73375 5.66857,-1.10695 5.66857,-0.45562 5.66857,3.58431 5.66857,-5.25994 5.66857,-1.78181 5.66857,1.52013 5.66858,-2.27947 5.66857,0.69681 5.66857,-0.88738 5.66857,-1.70435 5.66857,2.0192 5.66857,2.99032 5.66857,-0.86082 5.66858,-2.40378 5.66857,4.73754 5.66857,-0.54865 5.66857,-1.4573 5.66857,-1.22069 5.66857,-0.52021 5.66857,1.87447 5.66858,-4.82472 5.66857,-1.91121 5.66857,0.86855 5.66857,-9.79026"
         style="fill:none;stroke:#2ca02c;stroke-width:1.5;stroke-linecap:square;stroke-linejoin:round;stroke-miterlimit:10;stroke-dasharray:none;stroke-opacity:1"
         id="path304" /></g><g
       id="g308"
       clip-path="url(#clipPath312)"
       transform="matrix(0.57522824,0,0,0.57522824,8.9278396,141.92444)"
       style="stroke:#8c564b;stroke-opacity:1"><path
         d="m 57.6,265.11893 5.668571,2.61517 5.668572,-8.78089 5.668571,-9.73605 5.668572,-7.71935 5.668571,-6.58864 5.668572,-4.05163 5.668571,-4.44485 5.66857,-4.60598 5.66857,1.56302 5.66857,-2.19391 5.66858,-5.19298 5.66857,-2.64526 5.66857,-3.59052 5.66857,-6.14832 5.66857,-4.83706 5.66857,-1.84003 5.66857,-2.55069 5.66858,0.42482 5.66857,-0.67607 5.66857,-1.41607 5.66857,-2.8157 5.66857,-2.90071 5.66857,-0.98036 5.66857,-1.99018 5.66858,-3.03816 5.66857,-5.75089 5.66857,0.4009 5.66857,-6.75228 5.66857,-0.97716 5.66857,-2.29705 5.66857,-0.19719 5.66858,-2.88977 5.66857,-2.59102 5.66857,-3.49292 5.66857,-1.63246 5.66857,-0.21606 5.66857,-0.0847 5.66857,-1.72312 5.66858,-2.78788 5.66857,-2.09844 5.66857,-0.72163 5.66857,3.40813 5.66857,-5.48408 5.66857,-1.99797 5.66857,0.866 5.66858,-2.1413 5.66857,-0.21531 5.66857,-1.51625 5.66857,-2.13294 5.66857,0.90542 5.66857,3.17364 5.66857,-1.16985 5.66858,-1.89446 5.66857,3.14974 5.66857,0.001 5.66857,-1.21735 5.66857,-1.10168 5.66857,0.39238 5.66857,0.77961 5.66858,-3.67827 5.66857,-2.01085 5.66857,2.60829 5.66857,-9.90435"
         style="fill:none;stroke:#8c564b;stroke-width:1.5;stroke-linecap:square;stroke-linejoin:round;stroke-miterlimit:10;stroke-dasharray:none;stroke-opacity:1"
         id="path314" /></g><g
       id="g318"
       clip-path="url(#clipPath322)"
       transform="matrix(0.57522824,0,0,0.57522824,8.9278396,141.92444)"><path
         d="m 57.6,263.4092 5.668571,3.40921 5.668572,-8.56219 5.668571,-9.48004 5.668572,-7.34672 5.668571,-6.46648 5.668572,-4.027 5.668571,-4.53224 5.66857,-4.95138 5.66857,1.25842 5.66857,-2.22426 5.66858,-5.27974 5.66857,-2.34006 5.66857,-3.3255 5.66857,-5.62633 5.66857,-4.92192 5.66857,-1.17583 5.66857,-2.21622 5.66858,0.45393 5.66857,-0.14088 5.66857,-1.78246 5.66857,-3.1388 5.66857,-2.5376 5.66857,-1.53376 5.66857,-2.70801 5.66858,-2.33635 5.66857,-5.87779 5.66857,0.66152 5.66857,-6.2125 5.66857,-0.74609 5.66857,-1.38708 5.66857,-1.5341 5.66858,-4.91576 5.66857,-0.98255 5.66857,-2.77969 5.66857,-1.30092 5.66857,0.39855 5.66857,-0.0296 5.66857,-1.20817 5.66858,-3.4693 5.66857,-2.85348 5.66857,-0.36451 5.66857,2.61318 5.66857,-5.15634 5.66857,-1.70402 5.66857,-0.17176 5.66858,-3.97306 5.66857,-1.27954 5.66857,-1.81746 5.66857,-2.20714 5.66857,1.08832 5.66857,1.63137 5.66857,-2.63436 5.66858,-1.78428 5.66857,1.5324 5.66857,-1.29188 5.66857,-0.51403 5.66857,-3.66784 5.66857,-1.62571 5.66857,-0.57981 5.66858,-2.89857 5.66857,-1.07606 5.66857,0.12298 5.66857,-7.21015"
         style="fill:none;stroke:#9467bd;stroke-width:1.5;stroke-linecap:square;stroke-linejoin:round;stroke-miterlimit:10;stroke-dasharray:none;stroke-opacity:1"
         id="path324" /></g><path
       d="M 42.060986,163.79232 V 316.86746"
       style="fill:none;stroke:#000000;stroke-width:0.460183;stroke-linecap:square;stroke-linejoin:miter;stroke-miterlimit:10;stroke-dasharray:none;stroke-opacity:1"
       id="path338" /><path
       d="M 247.4865,163.79232 V 316.86746"
       style="fill:none;stroke:#000000;stroke-width:0.460183;stroke-linecap:square;stroke-linejoin:miter;stroke-miterlimit:10;stroke-dasharray:none;stroke-opacity:1"
       id="path340" /><path
       d="M 42.060986,163.79232 H 247.4865"
       style="fill:none;stroke:#000000;stroke-width:0.460183;stroke-linecap:square;stroke-linejoin:miter;stroke-miterlimit:10;stroke-dasharray:none;stroke-opacity:1"
       id="path342" /><path
       d="M 42.060986,316.86746 H 247.4865"
       style="fill:none;stroke:#000000;stroke-width:0.460183;stroke-linecap:square;stroke-linejoin:miter;stroke-miterlimit:10;stroke-dasharray:none;stroke-opacity:1"
       id="path344" /><path
       d="M 53.67122,215.08762 H 65.17578"
       style="fill:none;stroke:#1f77b4;stroke-width:0.862843;stroke-linecap:square;stroke-linejoin:round;stroke-miterlimit:10;stroke-dasharray:none;stroke-opacity:1"
       id="path354" /><path
       d="M 53.67122,206.64793 H 65.17578"
       style="fill:none;stroke:#ff7f0e;stroke-width:0.862843;stroke-linecap:square;stroke-linejoin:round;stroke-miterlimit:10;stroke-dasharray:none;stroke-opacity:1"
       id="path360" /><path
       d="M 53.67122,198.20826 H 65.17578"
       style="fill:none;stroke:#2ca02c;stroke-width:0.862843;stroke-linecap:square;stroke-linejoin:round;stroke-miterlimit:10;stroke-dasharray:none;stroke-opacity:1"
       id="path366" /><path
       d="M 53.67122,189.76857 H 65.17578"
       style="fill:none;stroke:#8c564b;stroke-width:0.862843;stroke-linecap:square;stroke-linejoin:round;stroke-miterlimit:10;stroke-dasharray:none;stroke-opacity:1"
       id="path372" /><path
       d="M 53.67122,181.3289 H 65.17578"
       style="fill:none;stroke:#9467bd;stroke-width:0.862843;stroke-linecap:square;stroke-linejoin:round;stroke-miterlimit:10;stroke-dasharray:none;stroke-opacity:1"
       id="path378" /><path
       d="M 53.67122,172.88923 H 65.17578"
       style="fill:none;stroke:#d62728;stroke-width:0.862843;stroke-linecap:square;stroke-linejoin:round;stroke-miterlimit:10;stroke-dasharray:none;stroke-opacity:1"
       id="path384" /></g><g
     inkscape:groupmode="layer"
     id="layer1"
     inkscape:label="text"
     style="display:inline"
     transform="translate(-28.023958,-17.206424)"><text
       style="font-variant:normal;font-weight:normal;font-size:7.66971px;font-family:'DejaVu Sans';-inkscape-font-specification:DejaVuSans;writing-mode:lr-tb;fill:#000000;fill-opacity:1;fill-rule:nonzero;stroke:none;stroke-width:0.766971"
       id="text32"
       x="53.981495"
       y="253.60321"><tspan
         x="53.981495 58.859432 61.298401"
         y="253.60321"
         sodipodi:role="line"
         id="tspan30"
         style="stroke-width:0.766971">0.0</tspan></text><text
       style="font-variant:normal;font-weight:normal;font-size:7.66971px;font-family:'DejaVu Sans';-inkscape-font-specification:DejaVuSans;writing-mode:lr-tb;fill:#000000;fill-opacity:1;fill-rule:nonzero;stroke:none;stroke-width:0.766971"
       id="text50"
       x="84.762535"
       y="253.60321"><tspan
         x="84.762535 89.64048 92.079445"
         y="253.60321"
         sodipodi:role="line"
         id="tspan48"
         style="stroke-width:0.766971">0.2</tspan></text><text
       style="font-variant:normal;font-weight:normal;font-size:7.66971px;font-family:'DejaVu Sans';-inkscape-font-specification:DejaVuSans;writing-mode:lr-tb;fill:#000000;fill-opacity:1;fill-rule:nonzero;stroke:none;stroke-width:0.766971"
       id="text68"
       x="119.54358"
       y="253.60321"><tspan
         x="119.54358 124.42152 126.86047"
         y="253.60321"
         sodipodi:role="line"
         id="tspan66"
         style="stroke-width:0.766971">0.4</tspan></text><text
       style="font-variant:normal;font-weight:normal;font-size:7.66971px;font-family:'DejaVu Sans';-inkscape-font-specification:DejaVuSans;writing-mode:lr-tb;fill:#000000;fill-opacity:1;fill-rule:nonzero;stroke:none;stroke-width:0.766971"
       id="text86"
       x="154.32462"
       y="253.60321"><tspan
         x="154.32462 159.20255 161.64153"
         y="253.60321"
         sodipodi:role="line"
         id="tspan84"
         style="stroke-width:0.766971">0.6</tspan></text><text
       style="font-variant:normal;font-weight:normal;font-size:7.66971px;font-family:'DejaVu Sans';-inkscape-font-specification:DejaVuSans;writing-mode:lr-tb;fill:#000000;fill-opacity:1;fill-rule:nonzero;stroke:none;stroke-width:0.766971"
       id="text104"
       x="189.10565"
       y="253.60321"><tspan
         x="189.10565 193.98358 196.42256"
         y="253.60321"
         sodipodi:role="line"
         id="tspan102"
         style="stroke-width:0.766971">0.8</tspan></text><text
       style="font-variant:normal;font-weight:normal;font-size:7.66971px;font-family:'DejaVu Sans';-inkscape-font-specification:DejaVuSans;writing-mode:lr-tb;fill:#000000;fill-opacity:1;fill-rule:nonzero;stroke:none;stroke-width:0.766971"
       id="text122"
       x="223.88669"
       y="253.60321"><tspan
         x="223.88669 228.76462 231.20357"
         y="253.60321"
         sodipodi:role="line"
         id="tspan120"
         style="stroke-width:0.766971">1.0</tspan></text><text
       style="font-variant:normal;font-weight:normal;font-size:7.66971px;font-family:'DejaVu Sans';-inkscape-font-specification:DejaVuSans;writing-mode:lr-tb;fill:#000000;fill-opacity:1;fill-rule:nonzero;stroke:none;stroke-width:0.766971"
       id="text140"
       x="258.66776"
       y="253.60321"><tspan
         x="258.66776 263.54565 265.98462"
         y="253.60321"
         sodipodi:role="line"
         id="tspan138"
         style="stroke-width:0.766971">1.2</tspan></text><text
       style="font-variant:normal;font-weight:normal;font-size:7.66971px;font-family:'DejaVu Sans';-inkscape-font-specification:DejaVuSans;writing-mode:lr-tb;fill:#000000;fill-opacity:1;fill-rule:nonzero;stroke:none;stroke-width:0.766971"
       id="text158"
       x="293.44876"
       y="253.60321"><tspan
         x="293.44876 298.32669 300.76566"
         y="253.60321"
         sodipodi:role="line"
         id="tspan156"
         style="stroke-width:0.766971">1.4</tspan></text><text
       style="font-variant:normal;font-weight:normal;font-size:7.66971px;font-family:'DejaVu Sans';-inkscape-font-specification:DejaVuSans;writing-mode:lr-tb;fill:#000000;fill-opacity:1;fill-rule:nonzero;stroke:none;stroke-width:0.766971"
       id="text162"
       x="146.61194"
       y="264.08914"><tspan
         x="146.61194 152.55595 157.27283 162.13542 166.82928 174.29958 176.43176 180.6501 183.08908 187.95934 190.09151 194.08743 197.09396 201.79549 206.65808 210.87643 215.59331 218.03227 220.61694 223.05591 229.67488 234.54515"
         y="264.08914"
         sodipodi:role="line"
         id="tspan160"
         style="stroke-width:0.766971">Genomic distance / Mbp</tspan></text><text
       style="font-variant:normal;font-weight:normal;font-size:7.66971px;font-family:'DejaVu Sans';-inkscape-font-specification:DejaVuSans;writing-mode:lr-tb;fill:#000000;fill-opacity:1;fill-rule:nonzero;stroke:none;stroke-width:0.766971"
       id="text180"
       x="38.512886"
       y="245.32233"><tspan
         x="38.512886 43.39082 45.829788"
         y="245.32233"
         sodipodi:role="line"
         id="tspan178"
         style="stroke-width:0.766971">0.0</tspan></text><text
       style="font-variant:normal;font-weight:normal;font-size:7.66971px;font-family:'DejaVu Sans';-inkscape-font-specification:DejaVuSans;writing-mode:lr-tb;fill:#000000;fill-opacity:1;fill-rule:nonzero;stroke:none;stroke-width:0.766971"
       id="text198"
       x="38.512886"
       y="204.50229"><tspan
         x="38.512886 43.39082 45.829788"
         y="204.50229"
         sodipodi:role="line"
         id="tspan196"
         style="stroke-width:0.766971">0.2</tspan></text><text
       style="font-variant:normal;font-weight:normal;font-size:7.66971px;font-family:'DejaVu Sans';-inkscape-font-specification:DejaVuSans;writing-mode:lr-tb;fill:#000000;fill-opacity:1;fill-rule:nonzero;stroke:none;stroke-width:0.766971"
       id="text216"
       x="38.512886"
       y="163.68225"><tspan
         x="38.512886 43.39082 45.829788"
         y="163.68225"
         sodipodi:role="line"
         id="tspan214"
         style="stroke-width:0.766971">0.4</tspan></text><text
       style="font-variant:normal;font-weight:normal;font-size:7.66971px;font-family:'DejaVu Sans';-inkscape-font-specification:DejaVuSans;writing-mode:lr-tb;fill:#000000;fill-opacity:1;fill-rule:nonzero;stroke:none;stroke-width:0.766971"
       id="text234"
       x="38.512886"
       y="122.86226"><tspan
         x="38.512886 43.39082 45.829788"
         y="122.86226"
         sodipodi:role="line"
         id="tspan232"
         style="stroke-width:0.766971">0.6</tspan></text><text
       style="font-variant:normal;font-weight:normal;font-size:7.66971px;font-family:'DejaVu Sans';-inkscape-font-specification:DejaVuSans;writing-mode:lr-tb;fill:#000000;fill-opacity:1;fill-rule:nonzero;stroke:none;stroke-width:0.766971"
       id="text252"
       x="38.512886"
       y="82.042229"><tspan
         x="38.512886 43.39082 45.829788"
         y="82.042229"
         sodipodi:role="line"
         id="tspan250"
         style="stroke-width:0.766971">0.8</tspan></text><text
       style="font-variant:normal;font-weight:normal;font-size:7.66971px;font-family:'DejaVu Sans';-inkscape-font-specification:DejaVuSans;writing-mode:lr-tb;fill:#000000;fill-opacity:1;fill-rule:nonzero;stroke:none;stroke-width:0.766971"
       id="text270"
       x="38.512886"
       y="41.222195"><tspan
         x="38.512886 43.39082 45.829788"
         y="41.222195"
         sodipodi:role="line"
         id="tspan268"
         style="stroke-width:0.766971">1.0</tspan></text><text
       transform="rotate(-90)"
       style="font-variant:normal;font-weight:normal;font-size:7.66971px;font-family:'DejaVu Sans';-inkscape-font-specification:DejaVuSans;writing-mode:lr-tb;fill:#000000;fill-opacity:1;fill-rule:nonzero;stroke:none;stroke-width:0.766971"
       id="text274"
       x="-177.41443"
       y="33.851139"><tspan
         x="-177.41443 -172.7896 -168.07272 -163.37119 -160.21893 -156.22302 -151.52916 -146.66656 -144.2276 -140.00926 -135.31538 -132.16313 -129.01088 -124.29403 -122.16182 -117.46032 -114.45382 -112.32161 -107.62774"
         y="33.851139"
         sodipodi:role="line"
         id="tspan272"
         style="stroke-width:0.766971">Pearson correlation</tspan></text><text
       style="font-variant:normal;font-weight:normal;font-size:9.20365px;font-family:'DejaVu Sans';-inkscape-font-specification:DejaVuSans;writing-mode:lr-tb;fill:#000000;fill-opacity:1;fill-rule:nonzero;stroke:none;stroke-width:0.766971"
       id="text348"
       x="98.316727"
       y="23.392508"><tspan
         x="98.316727 103.86653 109.52679 115.16862 118.95132 123.74641 129.37906 135.21417 138.14093 143.20293 148.83557 152.61827 156.40097 162.06123 164.61984 170.26167 173.86951 176.42812 182.06076 187.89586 190.82263 196.27119 201.0663 203.99306 206.91983 212.76414 218.42439 224.25948 229.89214 238.85649 241.4151 246.47711 249.40388 255.2482 257.80682 262.6019 266.20975 271.85156 277.68668 282.74872"
         y="23.392508"
         sodipodi:role="line"
         id="tspan346"
         style="stroke-width:0.766971">Pearson correlation vs. genomic distance</tspan></text><text
       style="font-variant:normal;font-weight:normal;font-size:9.20365px;font-family:'DejaVu Sans';-inkscape-font-specification:DejaVuSans;writing-mode:lr-tb;fill:#000000;fill-opacity:1;fill-rule:nonzero;stroke:none;stroke-width:0.766971"
       id="text352"
       x="63.985477"
       y="33.708279"><tspan
         x="63.985477 71.118309 79.061058 84.914581 90.768105 96.621628 102.47515 108.32867 111.25543 114.18219 120.03571 122.96248 128.81599 131.74277 137.59627 140.52306 146.37657 149.30333 155.15686 158.08362 163.93713 169.79065 172.71742 178.57094 184.42445 187.35123 193.20474 199.05827 201.98502 207.83855 213.69208 216.61884 222.47237 228.3259 231.25264 237.10619 242.95969 245.88646 251.73997 257.59354 260.52023 266.37378 272.22733 275.15405 280.78671 286.62183 289.54858 295.58618 301.4397 307.29321 313.14673 316.07349 319.00027"
         y="33.708279"
         sodipodi:role="line"
         id="tspan350"
         style="stroke-width:0.766971">GM12878, 1,2,4,7,9,11,13,14,16,17,18,20,22 on K562, 5</tspan></text><text
       style="font-variant:normal;font-weight:normal;font-size:7.66971px;font-family:'DejaVu Sans';-inkscape-font-specification:DejaVuSans;writing-mode:lr-tb;fill:#000000;fill-opacity:1;fill-rule:nonzero;stroke:none;stroke-width:0.766971"
       id="text358"
       x="93.036835"
       y="176.70096"><tspan
         x="93.036835 97.914772 102.7927 105.23167 109.94853 114.8188 117.25777 119.84245 122.28145 127.52753 133.14175 138.49519 141.0799 143.51886 148.3968 150.83577 155.7137 160.59163"
         y="176.70096"
         sodipodi:role="line"
         id="tspan356"
         style="stroke-width:0.766971">20 ep / AUC: 0.432</tspan></text><text
       style="font-variant:normal;font-weight:normal;font-size:7.66971px;font-family:'DejaVu Sans';-inkscape-font-specification:DejaVuSans;writing-mode:lr-tb;fill:#000000;fill-opacity:1;fill-rule:nonzero;stroke:none;stroke-width:0.766971"
       id="text364"
       x="93.036835"
       y="187.95386"><tspan
         x="93.036835 97.914772 102.7927 105.23167 109.94853 114.8188 117.25777 119.84245 122.28145 127.52753 133.14175 138.49519 141.0799 143.51886 148.3968 150.83577 155.7137 160.59163"
         y="187.95386"
         sodipodi:role="line"
         id="tspan362"
         style="stroke-width:0.766971">40 ep / AUC: 0.484</tspan></text><text
       style="font-variant:normal;font-weight:normal;font-size:7.66971px;font-family:'DejaVu Sans';-inkscape-font-specification:DejaVuSans;writing-mode:lr-tb;fill:#000000;fill-opacity:1;fill-rule:nonzero;stroke:none;stroke-width:0.766971"
       id="text370"
       x="93.036835"
       y="199.20676"><tspan
         x="93.036835 97.914772 102.7927 105.23167 109.94853 114.8188 117.25777 119.84245 122.28145 127.52753 133.14175 138.49519 141.0799 143.51886 148.3968 150.83577 155.7137 160.59163"
         y="199.20676"
         sodipodi:role="line"
         id="tspan368"
         style="stroke-width:0.766971">60 ep / AUC: 0.508</tspan></text><text
       style="font-variant:normal;font-weight:normal;font-size:7.66971px;font-family:'DejaVu Sans';-inkscape-font-specification:DejaVuSans;writing-mode:lr-tb;fill:#000000;fill-opacity:1;fill-rule:nonzero;stroke:none;stroke-width:0.766971"
       id="text376"
       x="93.036835"
       y="210.45967"><tspan
         x="93.036835 97.914772 102.7927 105.23167 109.94853 114.8188 117.25777 119.84245 122.28145 127.52753 133.14175 138.49519 141.0799 143.51886 148.3968 150.83577 155.7137 160.59163"
         y="210.45967"
         sodipodi:role="line"
         id="tspan374"
         style="stroke-width:0.766971">80 ep / AUC: 0.515</tspan></text><text
       style="font-variant:normal;font-weight:normal;font-size:7.66971px;font-family:'DejaVu Sans';-inkscape-font-specification:DejaVuSans;writing-mode:lr-tb;fill:#000000;fill-opacity:1;fill-rule:nonzero;stroke:none;stroke-width:0.766971"
       id="text382"
       x="93.036835"
       y="221.71254"><tspan
         x="93.036835 97.914772 102.7927 107.67063 110.10959 114.82648 119.69672 122.13571 124.72041 127.15936 132.40544 138.01967 143.37314 145.95782 148.3968 153.27477 155.7137 160.59163 165.46959"
         y="221.71254"
         sodipodi:role="line"
         id="tspan380"
         style="stroke-width:0.766971">100 ep / AUC: 0.510</tspan></text><text
       style="font-variant:normal;font-weight:normal;font-size:7.66971px;font-family:'DejaVu Sans';-inkscape-font-specification:DejaVuSans;writing-mode:lr-tb;fill:#000000;fill-opacity:1;fill-rule:nonzero;stroke:none;stroke-width:0.766971"
       id="text388"
       x="93.036835"
       y="232.96545"><tspan
         x="93.036835 96.043358 99.195618 103.89715 108.75974 112.75565 115.45538 120.17227 123.32451 125.76347 131.7075 138.32646 143.20441 148.08232 152.96028 157.83818 162.71614 165.15511 167.73982 170.17879 175.42482 181.03905 186.39253 188.97722 191.41621 196.29411 198.73308 203.61104 208.489"
         y="232.96545"
         sodipodi:role="line"
         id="tspan386"
         style="stroke-width:0.766971">transfer GM12878 / AUC: 0.745</tspan></text></g></svg>
