<?xml version="1.0" encoding="UTF-8" standalone="no"?>
<svg
   xmlns:dc="http://purl.org/dc/elements/1.1/"
   xmlns:cc="http://creativecommons.org/ns#"
   xmlns:rdf="http://www.w3.org/1999/02/22-rdf-syntax-ns#"
   xmlns:svg="http://www.w3.org/2000/svg"
   xmlns="http://www.w3.org/2000/svg"
   xmlns:sodipodi="http://sodipodi.sourceforge.net/DTD/sodipodi-0.dtd"
   xmlns:inkscape="http://www.inkscape.org/namespaces/inkscape"
   version="1.1"
   id="svg2"
   xml:space="preserve"
   width="80mm"
   height="65.300003mm"
   viewBox="0 0 302.36219 246.80316"
   sodipodi:docname="pearson_chr21.svg"
   inkscape:version="1.0.2 (1.0.2+r75+1)"><metadata
     id="metadata8"><rdf:RDF><cc:Work
         rdf:about=""><dc:format>image/svg+xml</dc:format><dc:type
           rdf:resource="http://purl.org/dc/dcmitype/StillImage" /><dc:title></dc:title></cc:Work></rdf:RDF></metadata><defs
     id="defs6"><clipPath
       clipPathUnits="userSpaceOnUse"
       id="clipPath22"><path
         d="M 57.6,38.016 H 414.72 V 304.128 H 57.6 Z"
         id="path20" /></clipPath><clipPath
       clipPathUnits="userSpaceOnUse"
       id="clipPath40"><path
         d="M 57.6,38.016 H 414.72 V 304.128 H 57.6 Z"
         id="path38" /></clipPath><clipPath
       clipPathUnits="userSpaceOnUse"
       id="clipPath58"><path
         d="M 57.6,38.016 H 414.72 V 304.128 H 57.6 Z"
         id="path56" /></clipPath><clipPath
       clipPathUnits="userSpaceOnUse"
       id="clipPath76"><path
         d="M 57.6,38.016 H 414.72 V 304.128 H 57.6 Z"
         id="path74" /></clipPath><clipPath
       clipPathUnits="userSpaceOnUse"
       id="clipPath94"><path
         d="M 57.6,38.016 H 414.72 V 304.128 H 57.6 Z"
         id="path92" /></clipPath><clipPath
       clipPathUnits="userSpaceOnUse"
       id="clipPath112"><path
         d="M 57.6,38.016 H 414.72 V 304.128 H 57.6 Z"
         id="path110" /></clipPath><clipPath
       clipPathUnits="userSpaceOnUse"
       id="clipPath130"><path
         d="M 57.6,38.016 H 414.72 V 304.128 H 57.6 Z"
         id="path128" /></clipPath><clipPath
       clipPathUnits="userSpaceOnUse"
       id="clipPath148"><path
         d="M 57.6,38.016 H 414.72 V 304.128 H 57.6 Z"
         id="path146" /></clipPath><clipPath
       clipPathUnits="userSpaceOnUse"
       id="clipPath170"><path
         d="M 57.6,38.016 H 414.72 V 304.128 H 57.6 Z"
         id="path168" /></clipPath><clipPath
       clipPathUnits="userSpaceOnUse"
       id="clipPath188"><path
         d="M 57.6,38.016 H 414.72 V 304.128 H 57.6 Z"
         id="path186" /></clipPath><clipPath
       clipPathUnits="userSpaceOnUse"
       id="clipPath206"><path
         d="M 57.6,38.016 H 414.72 V 304.128 H 57.6 Z"
         id="path204" /></clipPath><clipPath
       clipPathUnits="userSpaceOnUse"
       id="clipPath224"><path
         d="M 57.6,38.016 H 414.72 V 304.128 H 57.6 Z"
         id="path222" /></clipPath><clipPath
       clipPathUnits="userSpaceOnUse"
       id="clipPath242"><path
         d="M 57.6,38.016 H 414.72 V 304.128 H 57.6 Z"
         id="path240" /></clipPath><clipPath
       clipPathUnits="userSpaceOnUse"
       id="clipPath260"><path
         d="M 57.6,38.016 H 414.72 V 304.128 H 57.6 Z"
         id="path258" /></clipPath><clipPath
       clipPathUnits="userSpaceOnUse"
       id="clipPath282"><path
         d="M 57.6,38.016 H 414.72 V 304.128 H 57.6 Z"
         id="path280" /></clipPath><clipPath
       clipPathUnits="userSpaceOnUse"
       id="clipPath292"><path
         d="M 57.6,38.016 H 414.72 V 304.128 H 57.6 Z"
         id="path290" /></clipPath><clipPath
       clipPathUnits="userSpaceOnUse"
       id="clipPath302"><path
         d="M 57.6,38.016 H 414.72 V 304.128 H 57.6 Z"
         id="path300" /></clipPath><clipPath
       clipPathUnits="userSpaceOnUse"
       id="clipPath312"><path
         d="M 57.6,38.016 H 414.72 V 304.128 H 57.6 Z"
         id="path310" /></clipPath><clipPath
       clipPathUnits="userSpaceOnUse"
       id="clipPath322"><path
         d="M 57.6,38.016 H 414.72 V 304.128 H 57.6 Z"
         id="path320" /></clipPath><clipPath
       clipPathUnits="userSpaceOnUse"
       id="clipPath332"><path
         d="M 57.6,38.016 H 414.72 V 304.128 H 57.6 Z"
         id="path330" /></clipPath></defs><sodipodi:namedview
     pagecolor="#ffffff"
     bordercolor="#666666"
     borderopacity="1"
     objecttolerance="10"
     gridtolerance="10"
     guidetolerance="10"
     inkscape:pageopacity="0"
     inkscape:pageshadow="2"
     inkscape:window-width="1920"
     inkscape:window-height="1020"
     id="namedview4"
     showgrid="false"
     fit-margin-top="0"
     fit-margin-left="0"
     fit-margin-right="0"
     fit-margin-bottom="0"
     units="mm"
     inkscape:zoom="5.2603344"
     inkscape:cx="115.89304"
     inkscape:cy="175.68358"
     inkscape:window-x="0"
     inkscape:window-y="0"
     inkscape:window-maximized="1"
     inkscape:current-layer="layer1" /><g
     id="g10"
     inkscape:groupmode="layer"
     inkscape:label="pearson_chr21"
     transform="matrix(1.3333333,0,0,-1.3333333,-28.023958,443.59358)"><g
       id="g328"
       clip-path="url(#clipPath332)"
       transform="matrix(0.57539559,0,0,0.57539559,8.9243224,141.96959)"
       style="stroke:#d62728;stroke-opacity:1"><path
         d="m 57.6,289.79076 5.668571,-7.78541 5.668572,-4.33434 5.668571,-1.33192 5.668572,-1.98102 5.668571,1.44608 5.668572,-0.87307 5.668571,-0.49112 5.66857,0.0761 5.66857,-0.4491 5.66857,3.76149 5.66858,-3.26655 5.66857,2.00984 5.66857,-1.67862 5.66857,-2.16124 5.66857,2.04623 5.66857,-2.13284 5.66857,3.15862 5.66858,-1.12324 5.66857,-1.58083 5.66857,-3.95531 5.66857,-1.19075 5.66857,-2.52338 5.66857,-1.22892 5.66857,2.84865 5.66858,-0.81444 5.66857,1.02032 5.66857,-2.44576 5.66857,1.25196 5.66857,1.21796 5.66857,-0.80819 5.66857,-4.60198 5.66858,4.42983 5.66857,-0.92774 5.66857,-1.14548 5.66857,1.44211 5.66857,-3.22653 5.66857,-0.0284 5.66857,3.98517 5.66858,-5.30989 5.66857,4.66157 5.66857,-3.53861 5.66857,3.5509 5.66857,3.95749 5.66857,3.4502 5.66857,-6.58525 5.66858,2.41022 5.66857,-0.55346 5.66857,1.77459 5.66857,-1.48678 5.66857,-6.10031 5.66857,4.59318 5.66857,-2.68526 5.66858,1.72599 5.66857,0.45505 5.66857,-1.36795 5.66857,-3.43089 5.66857,0.92592 5.66857,-3.01047 5.66857,-4.9939 5.66858,-1.686 5.66857,0.87888 5.66857,0.63212 5.66857,-3.49209"
         style="fill:none;stroke:#d62728;stroke-width:1.5;stroke-linecap:square;stroke-linejoin:round;stroke-miterlimit:10;stroke-dasharray:none;stroke-opacity:1"
         id="path334" /></g><g
       id="g16"
       transform="matrix(0.57539559,0,0,0.57539559,8.9243224,141.96959)"><g
         id="g18"
         clip-path="url(#clipPath22)"><path
           d="M 57.6,38.016 V 304.128"
           style="fill:none;stroke:#b0b0b0;stroke-width:0.8;stroke-linecap:square;stroke-linejoin:round;stroke-miterlimit:10;stroke-dasharray:none;stroke-opacity:1"
           id="path24" /></g></g><path
       d="m 42.067108,163.84383 v -2.01389"
       style="fill:#000000;fill-opacity:1;fill-rule:nonzero;stroke:#000000;stroke-width:0.460316;stroke-linecap:butt;stroke-linejoin:round;stroke-miterlimit:10;stroke-dasharray:none;stroke-opacity:1"
       id="path28" /><g
       id="g34"
       transform="matrix(0.57539559,0,0,0.57539559,8.9243224,141.96959)"><g
         id="g36"
         clip-path="url(#clipPath40)"><path
           d="M 102.94857,38.016 V 304.128"
           style="fill:none;stroke:#b0b0b0;stroke-width:0.8;stroke-linecap:square;stroke-linejoin:round;stroke-miterlimit:10;stroke-dasharray:none;stroke-opacity:1"
           id="path42" /></g></g><path
       d="m 68.160475,163.84383 v -2.01389"
       style="fill:#000000;fill-opacity:1;fill-rule:nonzero;stroke:#000000;stroke-width:0.460316;stroke-linecap:butt;stroke-linejoin:round;stroke-miterlimit:10;stroke-dasharray:none;stroke-opacity:1"
       id="path46" /><g
       id="g52"
       transform="matrix(0.57539559,0,0,0.57539559,8.9243224,141.96959)"><g
         id="g54"
         clip-path="url(#clipPath58)"><path
           d="M 148.29714,38.016 V 304.128"
           style="fill:none;stroke:#b0b0b0;stroke-width:0.8;stroke-linecap:square;stroke-linejoin:round;stroke-miterlimit:10;stroke-dasharray:none;stroke-opacity:1"
           id="path60" /></g></g><path
       d="m 94.253843,163.84383 v -2.01389"
       style="fill:#000000;fill-opacity:1;fill-rule:nonzero;stroke:#000000;stroke-width:0.460316;stroke-linecap:butt;stroke-linejoin:round;stroke-miterlimit:10;stroke-dasharray:none;stroke-opacity:1"
       id="path64" /><g
       id="g70"
       transform="matrix(0.57539559,0,0,0.57539559,8.9243224,141.96959)"><g
         id="g72"
         clip-path="url(#clipPath76)"><path
           d="M 193.64571,38.016 V 304.128"
           style="fill:none;stroke:#b0b0b0;stroke-width:0.8;stroke-linecap:square;stroke-linejoin:round;stroke-miterlimit:10;stroke-dasharray:none;stroke-opacity:1"
           id="path78" /></g></g><path
       d="m 120.34721,163.84383 v -2.01389"
       style="fill:#000000;fill-opacity:1;fill-rule:nonzero;stroke:#000000;stroke-width:0.460316;stroke-linecap:butt;stroke-linejoin:round;stroke-miterlimit:10;stroke-dasharray:none;stroke-opacity:1"
       id="path82" /><g
       id="g88"
       transform="matrix(0.57539559,0,0,0.57539559,8.9243224,141.96959)"><g
         id="g90"
         clip-path="url(#clipPath94)"><path
           d="M 238.99429,38.016 V 304.128"
           style="fill:none;stroke:#b0b0b0;stroke-width:0.8;stroke-linecap:square;stroke-linejoin:round;stroke-miterlimit:10;stroke-dasharray:none;stroke-opacity:1"
           id="path96" /></g></g><path
       d="m 146.44058,163.84383 v -2.01389"
       style="fill:#000000;fill-opacity:1;fill-rule:nonzero;stroke:#000000;stroke-width:0.460316;stroke-linecap:butt;stroke-linejoin:round;stroke-miterlimit:10;stroke-dasharray:none;stroke-opacity:1"
       id="path100" /><g
       id="g106"
       transform="matrix(0.57539559,0,0,0.57539559,8.9243224,141.96959)"><g
         id="g108"
         clip-path="url(#clipPath112)"><path
           d="M 284.34286,38.016 V 304.128"
           style="fill:none;stroke:#b0b0b0;stroke-width:0.8;stroke-linecap:square;stroke-linejoin:round;stroke-miterlimit:10;stroke-dasharray:none;stroke-opacity:1"
           id="path114" /></g></g><path
       d="m 172.53395,163.84383 v -2.01389"
       style="fill:#000000;fill-opacity:1;fill-rule:nonzero;stroke:#000000;stroke-width:0.460316;stroke-linecap:butt;stroke-linejoin:round;stroke-miterlimit:10;stroke-dasharray:none;stroke-opacity:1"
       id="path118" /><g
       id="g124"
       transform="matrix(0.57539559,0,0,0.57539559,8.9243224,141.96959)"><g
         id="g126"
         clip-path="url(#clipPath130)"><path
           d="M 329.69143,38.016 V 304.128"
           style="fill:none;stroke:#b0b0b0;stroke-width:0.8;stroke-linecap:square;stroke-linejoin:round;stroke-miterlimit:10;stroke-dasharray:none;stroke-opacity:1"
           id="path132" /></g></g><path
       d="m 198.62731,163.84383 v -2.01389"
       style="fill:#000000;fill-opacity:1;fill-rule:nonzero;stroke:#000000;stroke-width:0.460316;stroke-linecap:butt;stroke-linejoin:round;stroke-miterlimit:10;stroke-dasharray:none;stroke-opacity:1"
       id="path136" /><g
       id="g142"
       transform="matrix(0.57539559,0,0,0.57539559,8.9243224,141.96959)"><g
         id="g144"
         clip-path="url(#clipPath148)"><path
           d="M 375.04,38.016 V 304.128"
           style="fill:none;stroke:#b0b0b0;stroke-width:0.8;stroke-linecap:square;stroke-linejoin:round;stroke-miterlimit:10;stroke-dasharray:none;stroke-opacity:1"
           id="path150" /></g></g><path
       d="m 224.72068,163.84383 v -2.01389"
       style="fill:#000000;fill-opacity:1;fill-rule:nonzero;stroke:#000000;stroke-width:0.460316;stroke-linecap:butt;stroke-linejoin:round;stroke-miterlimit:10;stroke-dasharray:none;stroke-opacity:1"
       id="path154" /><g
       id="g164"
       transform="matrix(0.57539559,0,0,0.57539559,8.9243224,141.96959)"><g
         id="g166"
         clip-path="url(#clipPath170)"><path
           d="M 57.6,38.016 H 414.72"
           style="fill:none;stroke:#b0b0b0;stroke-width:0.8;stroke-linecap:square;stroke-linejoin:round;stroke-miterlimit:10;stroke-dasharray:none;stroke-opacity:1"
           id="path172" /></g></g><path
       d="M 42.067108,163.84383 H 40.053224"
       style="fill:#000000;fill-opacity:1;fill-rule:nonzero;stroke:#000000;stroke-width:0.460316;stroke-linecap:butt;stroke-linejoin:round;stroke-miterlimit:10;stroke-dasharray:none;stroke-opacity:1"
       id="path176" /><g
       id="g182"
       transform="matrix(0.57539559,0,0,0.57539559,8.9243224,141.96959)"><g
         id="g184"
         clip-path="url(#clipPath188)"><path
           d="M 57.6,91.2384 H 414.72"
           style="fill:none;stroke:#b0b0b0;stroke-width:0.8;stroke-linecap:square;stroke-linejoin:round;stroke-miterlimit:10;stroke-dasharray:none;stroke-opacity:1"
           id="path190" /></g></g><path
       d="M 42.067108,194.46776 H 40.053224"
       style="fill:#000000;fill-opacity:1;fill-rule:nonzero;stroke:#000000;stroke-width:0.460316;stroke-linecap:butt;stroke-linejoin:round;stroke-miterlimit:10;stroke-dasharray:none;stroke-opacity:1"
       id="path194" /><g
       id="g200"
       transform="matrix(0.57539559,0,0,0.57539559,8.9243224,141.96959)"><g
         id="g202"
         clip-path="url(#clipPath206)"><path
           d="M 57.6,144.4608 H 414.72"
           style="fill:none;stroke:#b0b0b0;stroke-width:0.8;stroke-linecap:square;stroke-linejoin:round;stroke-miterlimit:10;stroke-dasharray:none;stroke-opacity:1"
           id="path208" /></g></g><path
       d="M 42.067108,225.09169 H 40.053224"
       style="fill:#000000;fill-opacity:1;fill-rule:nonzero;stroke:#000000;stroke-width:0.460316;stroke-linecap:butt;stroke-linejoin:round;stroke-miterlimit:10;stroke-dasharray:none;stroke-opacity:1"
       id="path212" /><g
       id="g218"
       transform="matrix(0.57539559,0,0,0.57539559,8.9243224,141.96959)"><g
         id="g220"
         clip-path="url(#clipPath224)"><path
           d="M 57.6,197.6832 H 414.72"
           style="fill:none;stroke:#b0b0b0;stroke-width:0.8;stroke-linecap:square;stroke-linejoin:round;stroke-miterlimit:10;stroke-dasharray:none;stroke-opacity:1"
           id="path226" /></g></g><path
       d="M 42.067108,255.71562 H 40.053224"
       style="fill:#000000;fill-opacity:1;fill-rule:nonzero;stroke:#000000;stroke-width:0.460316;stroke-linecap:butt;stroke-linejoin:round;stroke-miterlimit:10;stroke-dasharray:none;stroke-opacity:1"
       id="path230" /><g
       id="g236"
       transform="matrix(0.57539559,0,0,0.57539559,8.9243224,141.96959)"><g
         id="g238"
         clip-path="url(#clipPath242)"><path
           d="M 57.6,250.9056 H 414.72"
           style="fill:none;stroke:#b0b0b0;stroke-width:0.8;stroke-linecap:square;stroke-linejoin:round;stroke-miterlimit:10;stroke-dasharray:none;stroke-opacity:1"
           id="path244" /></g></g><path
       d="M 42.067108,286.33956 H 40.053224"
       style="fill:#000000;fill-opacity:1;fill-rule:nonzero;stroke:#000000;stroke-width:0.460316;stroke-linecap:butt;stroke-linejoin:round;stroke-miterlimit:10;stroke-dasharray:none;stroke-opacity:1"
       id="path248" /><g
       id="g254"
       transform="matrix(0.57539559,0,0,0.57539559,8.9243224,141.96959)"><g
         id="g256"
         clip-path="url(#clipPath260)"><path
           d="M 57.6,304.128 H 414.72"
           style="fill:none;stroke:#b0b0b0;stroke-width:0.8;stroke-linecap:square;stroke-linejoin:round;stroke-miterlimit:10;stroke-dasharray:none;stroke-opacity:1"
           id="path262" /></g></g><path
       d="M 42.067108,316.96349 H 40.053224"
       style="fill:#000000;fill-opacity:1;fill-rule:nonzero;stroke:#000000;stroke-width:0.460316;stroke-linecap:butt;stroke-linejoin:round;stroke-miterlimit:10;stroke-dasharray:none;stroke-opacity:1"
       id="path266" /><g
       id="g278"
       clip-path="url(#clipPath282)"
       transform="matrix(0.57539559,0,0,0.57539559,8.9243224,141.96959)"><path
         d="m 57.6,283.19547 5.668571,0.36857 5.668572,-5.61223 5.668571,-7.19356 5.668572,-5.34574 5.668571,-9.70698 5.668572,-3.20285 5.668571,-7.63448 5.66857,-3.94683 5.66857,2.75928 5.66857,-7.34028 5.66858,0.50475 5.66857,0.69273 5.66857,-0.23291 5.66857,-1.02283 5.66857,-2.47568 5.66857,-4.27472 5.66857,-3.39765 5.66858,-4.51526 5.66857,1.41056 5.66857,3.12301 5.66857,4.36903 5.66857,-0.70688 5.66857,-2.23996 5.66857,-6.73371 5.66858,-5.65754 5.66857,-3.95629 5.66857,-0.43862 5.66857,5.62408 5.66857,2.45062 5.66857,-1.34127 5.66857,1.04651 5.66858,-2.27866 5.66857,-1.15489 5.66857,-0.0532 5.66857,2.50765 5.66857,-1.34286 5.66857,-2.94143 5.66857,-1.96279 5.66858,-1.58729 5.66857,-1.17361 5.66857,-5.93883 5.66857,-4.6032 5.66857,-6.09826 5.66857,-9.79923 5.66857,0.19002 5.66858,-2.07146 5.66857,-1.36801 5.66857,-6.03992 5.66857,3.4888 5.66857,2.25884 5.66857,-6.46052 5.66857,-1.61211 5.66858,6.72403 5.66857,3.19659 5.66857,2.33975 5.66857,3.40607 5.66857,-4.62103 5.66857,-0.56873 5.66857,-1.25411 5.66858,0.29177 5.66857,0.28914 5.66857,-3.16085 5.66857,-1.24985"
         style="fill:none;stroke:#1f77b4;stroke-width:1.5;stroke-linecap:square;stroke-linejoin:round;stroke-miterlimit:10;stroke-dasharray:none;stroke-opacity:1"
         id="path284" /></g><g
       id="g288"
       clip-path="url(#clipPath292)"
       transform="matrix(0.57539559,0,0,0.57539559,8.9243224,141.96959)"><path
         d="m 57.6,286.43959 5.668571,-0.87344 5.668572,-5.79685 5.668571,-7.72086 5.668572,-5.53248 5.668571,-9.71286 5.668572,-2.91158 5.668571,-7.0864 5.66857,-4.0044 5.66857,3.81019 5.66857,-6.80009 5.66858,1.19985 5.66857,1.57045 5.66857,0.6329 5.66857,-1.95904 5.66857,-2.08937 5.66857,-5.11242 5.66857,-4.23066 5.66858,-5.37988 5.66857,1.16871 5.66857,2.24866 5.66857,3.99565 5.66857,-1.51395 5.66857,-2.96749 5.66857,-6.38586 5.66858,-6.06513 5.66857,-4.02429 5.66857,-1.70394 5.66857,4.54062 5.66857,3.88592 5.66857,-2.99087 5.66857,0.7898 5.66858,-2.13868 5.66857,-1.91982 5.66857,-1.38425 5.66857,2.35117 5.66857,-0.94658 5.66857,-4.75289 5.66857,-3.63817 5.66858,-0.7887 5.66857,-2.63386 5.66857,-3.85732 5.66857,-6.85339 5.66857,-4.84671 5.66857,-9.62694 5.66857,-0.67766 5.66858,-1.85628 5.66857,0.83238 5.66857,-6.00709 5.66857,4.37993 5.66857,2.24124 5.66857,-4.70045 5.66857,-1.43697 5.66858,7.57417 5.66857,3.08304 5.66857,5.85916 5.66857,4.19583 5.66857,-2.34311 5.66857,-2.46377 5.66857,0.12513 5.66858,1.84731 5.66857,3.73777 5.66857,-3.06587 5.66857,0.59426"
         style="fill:none;stroke:#ff7f0e;stroke-width:1.5;stroke-linecap:square;stroke-linejoin:round;stroke-miterlimit:10;stroke-dasharray:none;stroke-opacity:1"
         id="path294" /></g><g
       id="g298"
       clip-path="url(#clipPath302)"
       transform="matrix(0.57539559,0,0,0.57539559,8.9243224,141.96959)"><path
         d="m 57.6,287.37804 5.668571,-1.45323 5.668572,-6.14418 5.668571,-7.65637 5.668572,-4.96832 5.668571,-8.74913 5.668572,-1.98064 5.668571,-6.28606 5.66857,-3.68628 5.66857,4.7859 5.66857,-6.4248 5.66858,0.79959 5.66857,1.25921 5.66857,0.24451 5.66857,-2.35596 5.66857,-2.88879 5.66857,-5.59682 5.66857,-4.20131 5.66858,-4.45701 5.66857,1.91937 5.66857,2.88643 5.66857,4.72475 5.66857,-0.94067 5.66857,-2.15209 5.66857,-5.63712 5.66858,-6.78823 5.66857,-3.83373 5.66857,-2.09572 5.66857,4.57518 5.66857,3.96501 5.66857,-3.82454 5.66857,0.15331 5.66858,-3.84797 5.66857,-1.22746 5.66857,-1.19572 5.66857,1.68951 5.66857,-1.26721 5.66857,-3.93608 5.66857,-4.67353 5.66858,0.23123 5.66857,-2.72252 5.66857,-4.5099 5.66857,-6.48841 5.66857,-6.51308 5.66857,-9.14861 5.66857,-1.40062 5.66858,-1.32102 5.66857,1.40203 5.66857,-5.36273 5.66857,5.09878 5.66857,3.04246 5.66857,-5.80811 5.66857,-0.94409 5.66858,6.2735 5.66857,2.26626 5.66857,4.34903 5.66857,4.86375 5.66857,-3.91704 5.66857,-1.64479 5.66857,-0.76113 5.66858,0.74465 5.66857,3.78418 5.66857,-4.6762 5.66857,1.62538"
         style="fill:none;stroke:#2ca02c;stroke-width:1.5;stroke-linecap:square;stroke-linejoin:round;stroke-miterlimit:10;stroke-dasharray:none;stroke-opacity:1"
         id="path304" /></g><g
       id="g308"
       clip-path="url(#clipPath312)"
       transform="matrix(0.57539559,0,0,0.57539559,8.9243224,141.96959)"
       style="stroke:#8c564b;stroke-opacity:1"><path
         d="m 57.6,286.25266 5.668571,-1.4735 5.668572,-6.27405 5.668571,-7.2434 5.668572,-4.35505 5.668571,-7.80773 5.668572,-1.25855 5.668571,-5.75484 5.66857,-3.38167 5.66857,4.88617 5.66857,-6.77124 5.66858,0.2699 5.66857,0.38063 5.66857,0.0882 5.66857,-2.05265 5.66857,-2.60448 5.66857,-5.08401 5.66857,-3.95876 5.66858,-4.29776 5.66857,2.1371 5.66857,3.1884 5.66857,4.3741 5.66857,-0.86142 5.66857,-2.33515 5.66857,-6.2603 5.66858,-6.77642 5.66857,-3.48825 5.66857,-2.68641 5.66857,4.45586 5.66857,3.87668 5.66857,-3.44701 5.66857,-0.23989 5.66858,-2.88922 5.66857,-0.8441 5.66857,-0.36202 5.66857,0.90337 5.66857,-1.5576 5.66857,-3.6293 5.66857,-4.2461 5.66858,0.1883 5.66857,-1.86889 5.66857,-3.78735 5.66857,-5.68887 5.66857,-6.04598 5.66857,-8.75579 5.66857,-1.46962 5.66858,-0.3932 5.66857,1.74736 5.66857,-3.99124 5.66857,5.68116 5.66857,4.09492 5.66857,-5.32187 5.66857,-0.75663 5.66858,7.27027 5.66857,1.53857 5.66857,3.64511 5.66857,5.30957 5.66857,-4.12262 5.66857,-4.18766 5.66857,0.33017 5.66858,-2.99382 5.66857,2.8373 5.66857,-7.69513 5.66857,-1.32464"
         style="fill:none;stroke:#8c564b;stroke-width:1.5;stroke-linecap:square;stroke-linejoin:round;stroke-miterlimit:10;stroke-dasharray:none;stroke-opacity:1"
         id="path314" /></g><g
       id="g318"
       clip-path="url(#clipPath322)"
       transform="matrix(0.57539559,0,0,0.57539559,8.9243224,141.96959)"><path
         d="m 57.6,277.86541 5.668571,-0.55366 5.668572,-5.18262 5.668571,-6.63365 5.668572,-3.52581 5.668571,-6.87615 5.668572,-0.73885 5.668571,-5.0274 5.66857,-2.7961 5.66857,5.28241 5.66857,-6.36418 5.66858,0.26159 5.66857,-0.006 5.66857,0.175 5.66857,-1.82749 5.66857,-2.43837 5.66857,-4.86712 5.66857,-3.98073 5.66858,-4.0431 5.66857,2.53481 5.66857,3.2604 5.66857,4.54148 5.66857,-0.27299 5.66857,-1.95458 5.66857,-6.40853 5.66858,-7.07958 5.66857,-3.03623 5.66857,-2.57146 5.66857,4.92159 5.66857,3.2385 5.66857,-3.56868 5.66857,-1.76237 5.66858,-4.10729 5.66857,-1.30429 5.66857,-0.43426 5.66857,-0.20406 5.66857,-1.56001 5.66857,-3.61157 5.66857,-4.88466 5.66858,0.47673 5.66857,-0.80851 5.66857,-4.30096 5.66857,-5.52889 5.66857,-7.38856 5.66857,-8.09358 5.66857,-2.37597 5.66858,-0.23198 5.66857,0.66076 5.66857,-4.13418 5.66857,5.5633 5.66857,4.89734 5.66857,-4.9933 5.66857,-0.54995 5.66858,5.7196 5.66857,1.11286 5.66857,5.30148 5.66857,5.61574 5.66857,-8.12791 5.66857,-2.99382 5.66857,-0.72288 5.66858,2.48101 5.66857,-0.79308 5.66857,-6.36204 5.66857,-6.39669"
         style="fill:none;stroke:#9467bd;stroke-width:1.5;stroke-linecap:square;stroke-linejoin:round;stroke-miterlimit:10;stroke-dasharray:none;stroke-opacity:1"
         id="path324" /></g><path
       d="M 42.067108,163.84383 V 316.96349"
       style="fill:none;stroke:#000000;stroke-width:0.460316;stroke-linecap:square;stroke-linejoin:miter;stroke-miterlimit:10;stroke-dasharray:none;stroke-opacity:1"
       id="path338" /><path
       d="M 247.55238,163.84383 V 316.96349"
       style="fill:none;stroke:#000000;stroke-width:0.460316;stroke-linecap:square;stroke-linejoin:miter;stroke-miterlimit:10;stroke-dasharray:none;stroke-opacity:1"
       id="path340" /><path
       d="M 42.067108,163.84383 H 247.55238"
       style="fill:none;stroke:#000000;stroke-width:0.460316;stroke-linecap:square;stroke-linejoin:miter;stroke-miterlimit:10;stroke-dasharray:none;stroke-opacity:1"
       id="path342" /><path
       d="M 42.067108,316.96349 H 247.55238"
       style="fill:none;stroke:#000000;stroke-width:0.460316;stroke-linecap:square;stroke-linejoin:miter;stroke-miterlimit:10;stroke-dasharray:none;stroke-opacity:1"
       id="path344" /><path
       d="M 80.45261,215.43351 H 91.96052"
       style="fill:none;stroke:#1f77b4;stroke-width:0.863094;stroke-linecap:square;stroke-linejoin:round;stroke-miterlimit:10;stroke-dasharray:none;stroke-opacity:1"
       id="path354" /><path
       d="M 80.45261,206.99138 H 91.96052"
       style="fill:none;stroke:#ff7f0e;stroke-width:0.863094;stroke-linecap:square;stroke-linejoin:round;stroke-miterlimit:10;stroke-dasharray:none;stroke-opacity:1"
       id="path360" /><path
       d="M 80.45261,198.54925 H 91.96052"
       style="fill:none;stroke:#2ca02c;stroke-width:0.863094;stroke-linecap:square;stroke-linejoin:round;stroke-miterlimit:10;stroke-dasharray:none;stroke-opacity:1"
       id="path366" /><path
       d="M 80.45261,190.10711 H 91.96052"
       style="fill:none;stroke:#8c564b;stroke-width:0.863094;stroke-linecap:square;stroke-linejoin:round;stroke-miterlimit:10;stroke-dasharray:none;stroke-opacity:1"
       id="path372" /><path
       d="M 80.45261,181.66498 H 91.96052"
       style="fill:none;stroke:#9467bd;stroke-width:0.863094;stroke-linecap:square;stroke-linejoin:round;stroke-miterlimit:10;stroke-dasharray:none;stroke-opacity:1"
       id="path378" /><path
       d="M 80.45261,173.22285 H 91.96052"
       style="fill:none;stroke:#d62728;stroke-width:0.863094;stroke-linecap:square;stroke-linejoin:round;stroke-miterlimit:10;stroke-dasharray:none;stroke-opacity:1"
       id="path384" /></g><g
     inkscape:groupmode="layer"
     id="layer1"
     inkscape:label="text"
     style="display:inline"
     transform="translate(-28.023958,-17.206424)"><text
       style="font-variant:normal;font-weight:normal;font-size:7.67194px;font-family:'DejaVu Sans';-inkscape-font-specification:DejaVuSans;writing-mode:lr-tb;fill:#000000;fill-opacity:1;fill-rule:nonzero;stroke:none;stroke-width:0.767194"
       id="text32"
       x="53.987885"
       y="253.53778"><tspan
         x="53.987885 58.867241 61.306919"
         y="253.53778"
         sodipodi:role="line"
         id="tspan30"
         style="stroke-width:0.767194">0.0</tspan></text><text
       style="font-variant:normal;font-weight:normal;font-size:7.67194px;font-family:'DejaVu Sans';-inkscape-font-specification:DejaVuSans;writing-mode:lr-tb;fill:#000000;fill-opacity:1;fill-rule:nonzero;stroke:none;stroke-width:0.767194"
       id="text50"
       x="84.779045"
       y="253.53778"><tspan
         x="84.779045 89.658401 92.098083"
         y="253.53778"
         sodipodi:role="line"
         id="tspan48"
         style="stroke-width:0.767194">0.2</tspan></text><text
       style="font-variant:normal;font-weight:normal;font-size:7.67194px;font-family:'DejaVu Sans';-inkscape-font-specification:DejaVuSans;writing-mode:lr-tb;fill:#000000;fill-opacity:1;fill-rule:nonzero;stroke:none;stroke-width:0.767194"
       id="text68"
       x="119.57021"
       y="253.53778"><tspan
         x="119.57021 124.44956 126.88924"
         y="253.53778"
         sodipodi:role="line"
         id="tspan66"
         style="stroke-width:0.767194">0.4</tspan></text><text
       style="font-variant:normal;font-weight:normal;font-size:7.67194px;font-family:'DejaVu Sans';-inkscape-font-specification:DejaVuSans;writing-mode:lr-tb;fill:#000000;fill-opacity:1;fill-rule:nonzero;stroke:none;stroke-width:0.767194"
       id="text86"
       x="154.36136"
       y="253.53778"><tspan
         x="154.36136 159.24072 161.68039"
         y="253.53778"
         sodipodi:role="line"
         id="tspan84"
         style="stroke-width:0.767194">0.6</tspan></text><text
       style="font-variant:normal;font-weight:normal;font-size:7.67194px;font-family:'DejaVu Sans';-inkscape-font-specification:DejaVuSans;writing-mode:lr-tb;fill:#000000;fill-opacity:1;fill-rule:nonzero;stroke:none;stroke-width:0.767194"
       id="text104"
       x="189.15251"
       y="253.53778"><tspan
         x="189.15251 194.03186 196.47154"
         y="253.53778"
         sodipodi:role="line"
         id="tspan102"
         style="stroke-width:0.767194">0.8</tspan></text><text
       style="font-variant:normal;font-weight:normal;font-size:7.67194px;font-family:'DejaVu Sans';-inkscape-font-specification:DejaVuSans;writing-mode:lr-tb;fill:#000000;fill-opacity:1;fill-rule:nonzero;stroke:none;stroke-width:0.767194"
       id="text122"
       x="223.94368"
       y="253.53778"><tspan
         x="223.94368 228.82301 231.26268"
         y="253.53778"
         sodipodi:role="line"
         id="tspan120"
         style="stroke-width:0.767194">1.0</tspan></text><text
       style="font-variant:normal;font-weight:normal;font-size:7.67194px;font-family:'DejaVu Sans';-inkscape-font-specification:DejaVuSans;writing-mode:lr-tb;fill:#000000;fill-opacity:1;fill-rule:nonzero;stroke:none;stroke-width:0.767194"
       id="text140"
       x="258.73483"
       y="253.53778"><tspan
         x="258.73483 263.61417 266.05386"
         y="253.53778"
         sodipodi:role="line"
         id="tspan138"
         style="stroke-width:0.767194">1.2</tspan></text><text
       style="font-variant:normal;font-weight:normal;font-size:7.67194px;font-family:'DejaVu Sans';-inkscape-font-specification:DejaVuSans;writing-mode:lr-tb;fill:#000000;fill-opacity:1;fill-rule:nonzero;stroke:none;stroke-width:0.767194"
       id="text158"
       x="293.52597"
       y="253.53778"><tspan
         x="293.52597 298.40533 300.845"
         y="253.53778"
         sodipodi:role="line"
         id="tspan156"
         style="stroke-width:0.767194">1.4</tspan></text><text
       style="font-variant:normal;font-weight:normal;font-size:7.67194px;font-family:'DejaVu Sans';-inkscape-font-specification:DejaVuSans;writing-mode:lr-tb;fill:#000000;fill-opacity:1;fill-rule:nonzero;stroke:none;stroke-width:0.767194"
       id="text162"
       x="146.64644"
       y="264.02701"><tspan
         x="146.64644 152.59219 157.31042 162.17442 166.86967 174.34213 176.47493 180.6945 183.13417 188.00586 190.13866 194.13574 197.14314 201.84605 206.71005 210.92963 215.64786 218.08755 220.67299 223.11266 229.73355 234.60522"
         y="264.02701"
         sodipodi:role="line"
         id="tspan160"
         style="stroke-width:0.767194">Genomic distance / Mbp</tspan></text><text
       style="font-variant:normal;font-weight:normal;font-size:7.67194px;font-family:'DejaVu Sans';-inkscape-font-specification:DejaVuSans;writing-mode:lr-tb;fill:#000000;fill-opacity:1;fill-rule:nonzero;stroke:none;stroke-width:0.767194"
       id="text180"
       x="38.515934"
       y="245.25449"><tspan
         x="38.515934 43.39529 45.834965"
         y="245.25449"
         sodipodi:role="line"
         id="tspan178"
         style="stroke-width:0.767194">0.0</tspan></text><text
       style="font-variant:normal;font-weight:normal;font-size:7.67194px;font-family:'DejaVu Sans';-inkscape-font-specification:DejaVuSans;writing-mode:lr-tb;fill:#000000;fill-opacity:1;fill-rule:nonzero;stroke:none;stroke-width:0.767194"
       id="text198"
       x="38.515934"
       y="204.42258"><tspan
         x="38.515934 43.39529 45.834965"
         y="204.42258"
         sodipodi:role="line"
         id="tspan196"
         style="stroke-width:0.767194">0.2</tspan></text><text
       style="font-variant:normal;font-weight:normal;font-size:7.67194px;font-family:'DejaVu Sans';-inkscape-font-specification:DejaVuSans;writing-mode:lr-tb;fill:#000000;fill-opacity:1;fill-rule:nonzero;stroke:none;stroke-width:0.767194"
       id="text216"
       x="38.515934"
       y="163.59067"><tspan
         x="38.515934 43.39529 45.834965"
         y="163.59067"
         sodipodi:role="line"
         id="tspan214"
         style="stroke-width:0.767194">0.4</tspan></text><text
       style="font-variant:normal;font-weight:normal;font-size:7.67194px;font-family:'DejaVu Sans';-inkscape-font-specification:DejaVuSans;writing-mode:lr-tb;fill:#000000;fill-opacity:1;fill-rule:nonzero;stroke:none;stroke-width:0.767194"
       id="text234"
       x="38.515934"
       y="122.75876"><tspan
         x="38.515934 43.39529 45.834965"
         y="122.75876"
         sodipodi:role="line"
         id="tspan232"
         style="stroke-width:0.767194">0.6</tspan></text><text
       style="font-variant:normal;font-weight:normal;font-size:7.67194px;font-family:'DejaVu Sans';-inkscape-font-specification:DejaVuSans;writing-mode:lr-tb;fill:#000000;fill-opacity:1;fill-rule:nonzero;stroke:none;stroke-width:0.767194"
       id="text252"
       x="38.515934"
       y="81.926849"><tspan
         x="38.515934 43.39529 45.834965"
         y="81.926849"
         sodipodi:role="line"
         id="tspan250"
         style="stroke-width:0.767194">0.8</tspan></text><text
       style="font-variant:normal;font-weight:normal;font-size:7.67194px;font-family:'DejaVu Sans';-inkscape-font-specification:DejaVuSans;writing-mode:lr-tb;fill:#000000;fill-opacity:1;fill-rule:nonzero;stroke:none;stroke-width:0.767194"
       id="text270"
       x="38.515934"
       y="41.094994"><tspan
         x="38.515934 43.39529 45.834965"
         y="41.094994"
         sodipodi:role="line"
         id="tspan268"
         style="stroke-width:0.767194">1.0</tspan></text><text
       transform="rotate(-90)"
       style="font-variant:normal;font-weight:normal;font-size:7.67194px;font-family:'DejaVu Sans';-inkscape-font-specification:DejaVuSans;writing-mode:lr-tb;fill:#000000;fill-opacity:1;fill-rule:nonzero;stroke:none;stroke-width:0.767194"
       id="text274"
       x="-177.32684"
       y="33.852833"><tspan
         x="-177.32684 -172.70065 -167.98241 -163.27951 -160.12634 -156.12926 -151.43404 -146.57002 -144.13036 -139.91078 -135.21555 -132.06238 -128.90921 -124.19097 -122.05817 -117.35526 -114.34786 -112.21507 -107.51985"
         y="33.852833"
         sodipodi:role="line"
         id="tspan272"
         style="stroke-width:0.767194">Pearson correlation</tspan></text><text
       style="font-variant:normal;font-weight:normal;font-size:9.20633px;font-family:'DejaVu Sans';-inkscape-font-specification:DejaVuSans;writing-mode:lr-tb;fill:#000000;fill-opacity:1;fill-rule:nonzero;stroke:none;stroke-width:0.767194"
       id="text348"
       x="98.337173"
       y="23.26012"><tspan
         x="98.337173 103.88859 109.55049 115.19397 118.97776 123.77426 129.40855 135.24535 138.17297 143.23643 148.87071 152.65453 156.43832 162.1002 164.65958 170.30305 173.91193 176.4713 182.10558 187.94238 190.87 196.32014 201.11664 204.04424 206.97188 212.81789 218.47978 224.31656 229.95085 238.91782 241.47717 246.54066 249.46829 255.3143 257.87366 262.67014 266.27902 271.92249 277.75931 282.82281"
         y="23.26012"
         sodipodi:role="line"
         id="tspan346"
         style="stroke-width:0.767194">Pearson correlation vs. genomic distance</tspan></text><text
       style="font-variant:normal;font-weight:normal;font-size:9.20633px;font-family:'DejaVu Sans';-inkscape-font-specification:DejaVuSans;writing-mode:lr-tb;fill:#000000;fill-opacity:1;fill-rule:nonzero;stroke:none;stroke-width:0.767194"
       id="text352"
       x="61.065014"
       y="33.578892"><tspan
         x="61.065014 68.199921 76.144989 82.000214 87.855438 93.710655 99.565887 105.4211 108.34872 111.27634 117.13156 120.05917 125.9144 128.84201 134.69724 137.62486 143.48007 146.4077 152.26292 155.19052 161.04576 166.90097 169.8286 175.68381 181.53905 184.46666 190.32187 196.17711 199.10471 204.95995 210.81517 213.74278 219.59801 225.45325 228.38083 234.23608 240.09129 243.01891 248.87413 254.72937 257.65698 263.51221 269.3674 272.29504 277.92932 283.76614 286.69376 292.73309 298.58832 304.44354 310.2988 313.22638 316.15399 322.00922"
         y="33.578892"
         sodipodi:role="line"
         id="tspan350"
         style="stroke-width:0.767194">GM12878, 1,2,4,7,9,11,13,14,16,17,18,20,22 on K562, 21</tspan></text><text
       style="font-variant:normal;font-weight:normal;font-size:7.67194px;font-family:'DejaVu Sans';-inkscape-font-specification:DejaVuSans;writing-mode:lr-tb;fill:#000000;fill-opacity:1;fill-rule:nonzero;stroke:none;stroke-width:0.767194"
       id="text358"
       x="128.75159"
       y="176.24054"><tspan
         x="128.75159 133.63095 138.51028 140.94997 145.6682 150.53989 152.97955 155.565 158.00467 163.25229 168.86816 174.22316 176.80861 179.24831 184.12762 186.56732 191.44666 196.32602"
         y="176.24054"
         sodipodi:role="line"
         id="tspan356"
         style="stroke-width:0.767194">20 ep / AUC: 0.659</tspan></text><text
       style="font-variant:normal;font-weight:normal;font-size:7.67194px;font-family:'DejaVu Sans';-inkscape-font-specification:DejaVuSans;writing-mode:lr-tb;fill:#000000;fill-opacity:1;fill-rule:nonzero;stroke:none;stroke-width:0.767194"
       id="text364"
       x="128.75159"
       y="187.4967"><tspan
         x="128.75159 133.63095 138.51028 140.94997 145.6682 150.53989 152.97955 155.565 158.00467 163.25229 168.86816 174.22316 176.80861 179.24831 184.12762 186.56732 191.44666 196.32602"
         y="187.4967"
         sodipodi:role="line"
         id="tspan362"
         style="stroke-width:0.767194">40 ep / AUC: 0.656</tspan></text><text
       style="font-variant:normal;font-weight:normal;font-size:7.67194px;font-family:'DejaVu Sans';-inkscape-font-specification:DejaVuSans;writing-mode:lr-tb;fill:#000000;fill-opacity:1;fill-rule:nonzero;stroke:none;stroke-width:0.767194"
       id="text370"
       x="128.75159"
       y="198.75284"><tspan
         x="128.75159 133.63095 138.51028 140.94997 145.6682 150.53989 152.97955 155.565 158.00467 163.25229 168.86816 174.22316 176.80861 179.24831 184.12762 186.56732 191.44666 196.32602"
         y="198.75284"
         sodipodi:role="line"
         id="tspan368"
         style="stroke-width:0.767194">60 ep / AUC: 0.668</tspan></text><text
       style="font-variant:normal;font-weight:normal;font-size:7.67194px;font-family:'DejaVu Sans';-inkscape-font-specification:DejaVuSans;writing-mode:lr-tb;fill:#000000;fill-opacity:1;fill-rule:nonzero;stroke:none;stroke-width:0.767194"
       id="text376"
       x="128.75159"
       y="210.009"><tspan
         x="128.75159 133.63095 138.51028 140.94997 145.6682 150.53989 152.97955 155.565 158.00467 163.25229 168.86816 174.22316 176.80861 179.24831 184.12762 186.56732 191.44666 196.32602"
         y="210.009"
         sodipodi:role="line"
         id="tspan374"
         style="stroke-width:0.767194">80 ep / AUC: 0.682</tspan></text><text
       style="font-variant:normal;font-weight:normal;font-size:7.67194px;font-family:'DejaVu Sans';-inkscape-font-specification:DejaVuSans;writing-mode:lr-tb;fill:#000000;fill-opacity:1;fill-rule:nonzero;stroke:none;stroke-width:0.767194"
       id="text382"
       x="128.75159"
       y="221.26517"><tspan
         x="128.75159 133.63095 138.51028 143.38963 145.8293 150.54756 155.41922 157.85893 160.44437 162.88403 168.13164 173.7475 179.10252 181.68797 184.12762 189.00699 191.44666 196.32602 201.20541"
         y="221.26517"
         sodipodi:role="line"
         id="tspan380"
         style="stroke-width:0.767194">100 ep / AUC: 0.670</tspan></text><text
       style="font-variant:normal;font-weight:normal;font-size:7.67194px;font-family:'DejaVu Sans';-inkscape-font-specification:DejaVuSans;writing-mode:lr-tb;fill:#000000;fill-opacity:1;fill-rule:nonzero;stroke:none;stroke-width:0.767194"
       id="text388"
       x="128.75159"
       y="232.52136"><tspan
         x="128.75159 131.75897 134.91214 139.61505 144.47905 148.47614 151.17665 155.89491 159.04807 161.48773 167.43349 174.05438 178.93375 183.81308 188.69244 193.57181 198.45117 200.89084 203.47629 205.91595 211.16354 216.77942 222.13443 224.71988 227.15955 232.03891 234.47858 239.35794 244.2373"
         y="232.52136"
         sodipodi:role="line"
         id="tspan386"
         style="stroke-width:0.767194">transfer GM12878 / AUC: 0.864</tspan></text></g></svg>
