<?xml version="1.0" encoding="UTF-8" standalone="no"?>
<svg
   xmlns:dc="http://purl.org/dc/elements/1.1/"
   xmlns:cc="http://creativecommons.org/ns#"
   xmlns:rdf="http://www.w3.org/1999/02/22-rdf-syntax-ns#"
   xmlns:svg="http://www.w3.org/2000/svg"
   xmlns="http://www.w3.org/2000/svg"
   xmlns:sodipodi="http://sodipodi.sourceforge.net/DTD/sodipodi-0.dtd"
   xmlns:inkscape="http://www.inkscape.org/namespaces/inkscape"
   version="1.1"
   id="svg2"
   xml:space="preserve"
   width="80mm"
   height="65.300003mm"
   viewBox="0 0 302.36219 246.80316"
   sodipodi:docname="pearson_chr19.svg"
   inkscape:version="1.0.2 (1.0.2+r75+1)"><metadata
     id="metadata8"><rdf:RDF><cc:Work
         rdf:about=""><dc:format>image/svg+xml</dc:format><dc:type
           rdf:resource="http://purl.org/dc/dcmitype/StillImage" /><dc:title></dc:title></cc:Work></rdf:RDF></metadata><defs
     id="defs6"><clipPath
       clipPathUnits="userSpaceOnUse"
       id="clipPath22"><path
         d="M 57.6,38.016 H 414.72 V 304.128 H 57.6 Z"
         id="path20" /></clipPath><clipPath
       clipPathUnits="userSpaceOnUse"
       id="clipPath40"><path
         d="M 57.6,38.016 H 414.72 V 304.128 H 57.6 Z"
         id="path38" /></clipPath><clipPath
       clipPathUnits="userSpaceOnUse"
       id="clipPath58"><path
         d="M 57.6,38.016 H 414.72 V 304.128 H 57.6 Z"
         id="path56" /></clipPath><clipPath
       clipPathUnits="userSpaceOnUse"
       id="clipPath76"><path
         d="M 57.6,38.016 H 414.72 V 304.128 H 57.6 Z"
         id="path74" /></clipPath><clipPath
       clipPathUnits="userSpaceOnUse"
       id="clipPath94"><path
         d="M 57.6,38.016 H 414.72 V 304.128 H 57.6 Z"
         id="path92" /></clipPath><clipPath
       clipPathUnits="userSpaceOnUse"
       id="clipPath112"><path
         d="M 57.6,38.016 H 414.72 V 304.128 H 57.6 Z"
         id="path110" /></clipPath><clipPath
       clipPathUnits="userSpaceOnUse"
       id="clipPath130"><path
         d="M 57.6,38.016 H 414.72 V 304.128 H 57.6 Z"
         id="path128" /></clipPath><clipPath
       clipPathUnits="userSpaceOnUse"
       id="clipPath148"><path
         d="M 57.6,38.016 H 414.72 V 304.128 H 57.6 Z"
         id="path146" /></clipPath><clipPath
       clipPathUnits="userSpaceOnUse"
       id="clipPath170"><path
         d="M 57.6,38.016 H 414.72 V 304.128 H 57.6 Z"
         id="path168" /></clipPath><clipPath
       clipPathUnits="userSpaceOnUse"
       id="clipPath188"><path
         d="M 57.6,38.016 H 414.72 V 304.128 H 57.6 Z"
         id="path186" /></clipPath><clipPath
       clipPathUnits="userSpaceOnUse"
       id="clipPath206"><path
         d="M 57.6,38.016 H 414.72 V 304.128 H 57.6 Z"
         id="path204" /></clipPath><clipPath
       clipPathUnits="userSpaceOnUse"
       id="clipPath224"><path
         d="M 57.6,38.016 H 414.72 V 304.128 H 57.6 Z"
         id="path222" /></clipPath><clipPath
       clipPathUnits="userSpaceOnUse"
       id="clipPath242"><path
         d="M 57.6,38.016 H 414.72 V 304.128 H 57.6 Z"
         id="path240" /></clipPath><clipPath
       clipPathUnits="userSpaceOnUse"
       id="clipPath260"><path
         d="M 57.6,38.016 H 414.72 V 304.128 H 57.6 Z"
         id="path258" /></clipPath><clipPath
       clipPathUnits="userSpaceOnUse"
       id="clipPath282"><path
         d="M 57.6,38.016 H 414.72 V 304.128 H 57.6 Z"
         id="path280" /></clipPath><clipPath
       clipPathUnits="userSpaceOnUse"
       id="clipPath292"><path
         d="M 57.6,38.016 H 414.72 V 304.128 H 57.6 Z"
         id="path290" /></clipPath><clipPath
       clipPathUnits="userSpaceOnUse"
       id="clipPath302"><path
         d="M 57.6,38.016 H 414.72 V 304.128 H 57.6 Z"
         id="path300" /></clipPath><clipPath
       clipPathUnits="userSpaceOnUse"
       id="clipPath312"><path
         d="M 57.6,38.016 H 414.72 V 304.128 H 57.6 Z"
         id="path310" /></clipPath><clipPath
       clipPathUnits="userSpaceOnUse"
       id="clipPath322"><path
         d="M 57.6,38.016 H 414.72 V 304.128 H 57.6 Z"
         id="path320" /></clipPath><clipPath
       clipPathUnits="userSpaceOnUse"
       id="clipPath332"><path
         d="M 57.6,38.016 H 414.72 V 304.128 H 57.6 Z"
         id="path330" /></clipPath></defs><sodipodi:namedview
     pagecolor="#ffffff"
     bordercolor="#666666"
     borderopacity="1"
     objecttolerance="10"
     gridtolerance="10"
     guidetolerance="10"
     inkscape:pageopacity="0"
     inkscape:pageshadow="2"
     inkscape:window-width="1920"
     inkscape:window-height="1020"
     id="namedview4"
     showgrid="false"
     units="mm"
     fit-margin-top="0"
     fit-margin-left="0"
     fit-margin-right="0"
     fit-margin-bottom="0"
     inkscape:zoom="5.2603344"
     inkscape:cx="102.97638"
     inkscape:cy="185.95198"
     inkscape:window-x="0"
     inkscape:window-y="0"
     inkscape:window-maximized="1"
     inkscape:current-layer="g10" /><g
     id="g10"
     inkscape:groupmode="layer"
     inkscape:label="pearson_chr19"
     transform="matrix(1.3333333,0,0,-1.3333333,-28.023958,443.59358)"><g
       id="g328"
       clip-path="url(#clipPath332)"
       transform="matrix(0.57535022,0,0,0.57535022,8.9252759,141.98468)"
       style="stroke:#d62728;stroke-opacity:1"><path
         d="m 57.6,291.21219 5.668571,-7.83046 5.668572,-4.86458 5.668571,-2.46954 5.668572,-1.96157 5.668571,-0.70339 5.668572,-0.77901 5.668571,0.56941 5.66857,1.44261 5.66857,-4.23176 5.66857,1.35083 5.66858,-2.28237 5.66857,-2.93286 5.66857,-3.08073 5.66857,-2.14705 5.66857,-0.83498 5.66857,-1.68169 5.66857,-3.59095 5.66858,-1.50789 5.66857,-0.86811 5.66857,1.0161 5.66857,-3.60562 5.66857,0.81065 5.66857,-1.96396 5.66857,-1.65329 5.66858,-1.46005 5.66857,-2.29329 5.66857,-0.0795 5.66857,2.51759 5.66857,-2.46762 5.66857,2.05221 5.66857,-3.78015 5.66858,-1.24809 5.66857,0.76119 5.66857,-0.93235 5.66857,1.35451 5.66857,-1.54374 5.66857,-3.18044 5.66857,-0.20368 5.66858,-0.82129 5.66857,-4.32261 5.66857,3.89268 5.66857,-4.43393 5.66857,1.02919 5.66857,-1.49329 5.66857,1.7614 5.66858,-8.713 5.66857,6.54481 5.66857,-2.93798 5.66857,2.2996 5.66857,-0.0617 5.66857,0.9859 5.66857,1.41998 5.66858,-2.47145 5.66857,-3.724 5.66857,1.31946 5.66857,2.11197 5.66857,1.16673 5.66857,-0.26716 5.66857,5.12537 5.66858,3.04913 5.66857,2.81569 5.66857,4.55411 5.66857,0.40623"
         style="fill:none;stroke:#d62728;stroke-width:1.5;stroke-linecap:square;stroke-linejoin:round;stroke-miterlimit:10;stroke-dasharray:none;stroke-opacity:1"
         id="path334" /></g><g
       id="g16"
       transform="matrix(0.57535022,0,0,0.57535022,8.9252759,141.98468)"><g
         id="g18"
         clip-path="url(#clipPath22)"><path
           d="M 57.6,38.016 V 304.128"
           style="fill:none;stroke:#b0b0b0;stroke-width:0.8;stroke-linecap:square;stroke-linejoin:round;stroke-miterlimit:10;stroke-dasharray:none;stroke-opacity:1"
           id="path24" /></g></g><path
       d="m 42.065449,163.85719 v -2.01372"
       style="fill:#000000;fill-opacity:1;fill-rule:nonzero;stroke:#000000;stroke-width:0.46028;stroke-linecap:butt;stroke-linejoin:round;stroke-miterlimit:10;stroke-dasharray:none;stroke-opacity:1"
       id="path28" /><g
       id="g34"
       transform="matrix(0.57535022,0,0,0.57535022,8.9252759,141.98468)"><g
         id="g36"
         clip-path="url(#clipPath40)"><path
           d="M 102.94857,38.016 V 304.128"
           style="fill:none;stroke:#b0b0b0;stroke-width:0.8;stroke-linecap:square;stroke-linejoin:round;stroke-miterlimit:10;stroke-dasharray:none;stroke-opacity:1"
           id="path42" /></g></g><path
       d="m 68.156759,163.85719 v -2.01372"
       style="fill:#000000;fill-opacity:1;fill-rule:nonzero;stroke:#000000;stroke-width:0.46028;stroke-linecap:butt;stroke-linejoin:round;stroke-miterlimit:10;stroke-dasharray:none;stroke-opacity:1"
       id="path46" /><g
       id="g52"
       transform="matrix(0.57535022,0,0,0.57535022,8.9252759,141.98468)"><g
         id="g54"
         clip-path="url(#clipPath58)"><path
           d="M 148.29714,38.016 V 304.128"
           style="fill:none;stroke:#b0b0b0;stroke-width:0.8;stroke-linecap:square;stroke-linejoin:round;stroke-miterlimit:10;stroke-dasharray:none;stroke-opacity:1"
           id="path60" /></g></g><path
       d="m 94.248069,163.85719 v -2.01372"
       style="fill:#000000;fill-opacity:1;fill-rule:nonzero;stroke:#000000;stroke-width:0.46028;stroke-linecap:butt;stroke-linejoin:round;stroke-miterlimit:10;stroke-dasharray:none;stroke-opacity:1"
       id="path64" /><g
       id="g70"
       transform="matrix(0.57535022,0,0,0.57535022,8.9252759,141.98468)"><g
         id="g72"
         clip-path="url(#clipPath76)"><path
           d="M 193.64571,38.016 V 304.128"
           style="fill:none;stroke:#b0b0b0;stroke-width:0.8;stroke-linecap:square;stroke-linejoin:round;stroke-miterlimit:10;stroke-dasharray:none;stroke-opacity:1"
           id="path78" /></g></g><path
       d="m 120.33938,163.85719 v -2.01372"
       style="fill:#000000;fill-opacity:1;fill-rule:nonzero;stroke:#000000;stroke-width:0.46028;stroke-linecap:butt;stroke-linejoin:round;stroke-miterlimit:10;stroke-dasharray:none;stroke-opacity:1"
       id="path82" /><g
       id="g88"
       transform="matrix(0.57535022,0,0,0.57535022,8.9252759,141.98468)"><g
         id="g90"
         clip-path="url(#clipPath94)"><path
           d="M 238.99429,38.016 V 304.128"
           style="fill:none;stroke:#b0b0b0;stroke-width:0.8;stroke-linecap:square;stroke-linejoin:round;stroke-miterlimit:10;stroke-dasharray:none;stroke-opacity:1"
           id="path96" /></g></g><path
       d="m 146.43069,163.85719 v -2.01372"
       style="fill:#000000;fill-opacity:1;fill-rule:nonzero;stroke:#000000;stroke-width:0.46028;stroke-linecap:butt;stroke-linejoin:round;stroke-miterlimit:10;stroke-dasharray:none;stroke-opacity:1"
       id="path100" /><g
       id="g106"
       transform="matrix(0.57535022,0,0,0.57535022,8.9252759,141.98468)"><g
         id="g108"
         clip-path="url(#clipPath112)"><path
           d="M 284.34286,38.016 V 304.128"
           style="fill:none;stroke:#b0b0b0;stroke-width:0.8;stroke-linecap:square;stroke-linejoin:round;stroke-miterlimit:10;stroke-dasharray:none;stroke-opacity:1"
           id="path114" /></g></g><path
       d="m 172.522,163.85719 v -2.01372"
       style="fill:#000000;fill-opacity:1;fill-rule:nonzero;stroke:#000000;stroke-width:0.46028;stroke-linecap:butt;stroke-linejoin:round;stroke-miterlimit:10;stroke-dasharray:none;stroke-opacity:1"
       id="path118" /><g
       id="g124"
       transform="matrix(0.57535022,0,0,0.57535022,8.9252759,141.98468)"><g
         id="g126"
         clip-path="url(#clipPath130)"><path
           d="M 329.69143,38.016 V 304.128"
           style="fill:none;stroke:#b0b0b0;stroke-width:0.8;stroke-linecap:square;stroke-linejoin:round;stroke-miterlimit:10;stroke-dasharray:none;stroke-opacity:1"
           id="path132" /></g></g><path
       d="m 198.61332,163.85719 v -2.01372"
       style="fill:#000000;fill-opacity:1;fill-rule:nonzero;stroke:#000000;stroke-width:0.46028;stroke-linecap:butt;stroke-linejoin:round;stroke-miterlimit:10;stroke-dasharray:none;stroke-opacity:1"
       id="path136" /><g
       id="g142"
       transform="matrix(0.57535022,0,0,0.57535022,8.9252759,141.98468)"><g
         id="g144"
         clip-path="url(#clipPath148)"><path
           d="M 375.04,38.016 V 304.128"
           style="fill:none;stroke:#b0b0b0;stroke-width:0.8;stroke-linecap:square;stroke-linejoin:round;stroke-miterlimit:10;stroke-dasharray:none;stroke-opacity:1"
           id="path150" /></g></g><path
       d="m 224.70462,163.85719 v -2.01372"
       style="fill:#000000;fill-opacity:1;fill-rule:nonzero;stroke:#000000;stroke-width:0.46028;stroke-linecap:butt;stroke-linejoin:round;stroke-miterlimit:10;stroke-dasharray:none;stroke-opacity:1"
       id="path154" /><g
       id="g164"
       transform="matrix(0.57535022,0,0,0.57535022,8.9252759,141.98468)"><g
         id="g166"
         clip-path="url(#clipPath170)"><path
           d="M 57.6,38.016 H 414.72"
           style="fill:none;stroke:#b0b0b0;stroke-width:0.8;stroke-linecap:square;stroke-linejoin:round;stroke-miterlimit:10;stroke-dasharray:none;stroke-opacity:1"
           id="path172" /></g></g><path
       d="M 42.065449,163.85719 H 40.051723"
       style="fill:#000000;fill-opacity:1;fill-rule:nonzero;stroke:#000000;stroke-width:0.46028;stroke-linecap:butt;stroke-linejoin:round;stroke-miterlimit:10;stroke-dasharray:none;stroke-opacity:1"
       id="path176" /><g
       id="g182"
       transform="matrix(0.57535022,0,0,0.57535022,8.9252759,141.98468)"><g
         id="g184"
         clip-path="url(#clipPath188)"><path
           d="M 57.6,91.2384 H 414.72"
           style="fill:none;stroke:#b0b0b0;stroke-width:0.8;stroke-linecap:square;stroke-linejoin:round;stroke-miterlimit:10;stroke-dasharray:none;stroke-opacity:1"
           id="path190" /></g></g><path
       d="M 42.065449,194.47871 H 40.051723"
       style="fill:#000000;fill-opacity:1;fill-rule:nonzero;stroke:#000000;stroke-width:0.46028;stroke-linecap:butt;stroke-linejoin:round;stroke-miterlimit:10;stroke-dasharray:none;stroke-opacity:1"
       id="path194" /><g
       id="g200"
       transform="matrix(0.57535022,0,0,0.57535022,8.9252759,141.98468)"><g
         id="g202"
         clip-path="url(#clipPath206)"><path
           d="M 57.6,144.4608 H 414.72"
           style="fill:none;stroke:#b0b0b0;stroke-width:0.8;stroke-linecap:square;stroke-linejoin:round;stroke-miterlimit:10;stroke-dasharray:none;stroke-opacity:1"
           id="path208" /></g></g><path
       d="M 42.065449,225.10023 H 40.051723"
       style="fill:#000000;fill-opacity:1;fill-rule:nonzero;stroke:#000000;stroke-width:0.46028;stroke-linecap:butt;stroke-linejoin:round;stroke-miterlimit:10;stroke-dasharray:none;stroke-opacity:1"
       id="path212" /><g
       id="g218"
       transform="matrix(0.57535022,0,0,0.57535022,8.9252759,141.98468)"><g
         id="g220"
         clip-path="url(#clipPath224)"><path
           d="M 57.6,197.6832 H 414.72"
           style="fill:none;stroke:#b0b0b0;stroke-width:0.8;stroke-linecap:square;stroke-linejoin:round;stroke-miterlimit:10;stroke-dasharray:none;stroke-opacity:1"
           id="path226" /></g></g><path
       d="M 42.065449,255.72176 H 40.051723"
       style="fill:#000000;fill-opacity:1;fill-rule:nonzero;stroke:#000000;stroke-width:0.46028;stroke-linecap:butt;stroke-linejoin:round;stroke-miterlimit:10;stroke-dasharray:none;stroke-opacity:1"
       id="path230" /><g
       id="g236"
       transform="matrix(0.57535022,0,0,0.57535022,8.9252759,141.98468)"><g
         id="g238"
         clip-path="url(#clipPath242)"><path
           d="M 57.6,250.9056 H 414.72"
           style="fill:none;stroke:#b0b0b0;stroke-width:0.8;stroke-linecap:square;stroke-linejoin:round;stroke-miterlimit:10;stroke-dasharray:none;stroke-opacity:1"
           id="path244" /></g></g><path
       d="M 42.065449,286.34327 H 40.051723"
       style="fill:#000000;fill-opacity:1;fill-rule:nonzero;stroke:#000000;stroke-width:0.46028;stroke-linecap:butt;stroke-linejoin:round;stroke-miterlimit:10;stroke-dasharray:none;stroke-opacity:1"
       id="path248" /><g
       id="g254"
       transform="matrix(0.57535022,0,0,0.57535022,8.9252759,141.98468)"><g
         id="g256"
         clip-path="url(#clipPath260)"><path
           d="M 57.6,304.128 H 414.72"
           style="fill:none;stroke:#b0b0b0;stroke-width:0.8;stroke-linecap:square;stroke-linejoin:round;stroke-miterlimit:10;stroke-dasharray:none;stroke-opacity:1"
           id="path262" /></g></g><path
       d="M 42.065449,316.96479 H 40.051723"
       style="fill:#000000;fill-opacity:1;fill-rule:nonzero;stroke:#000000;stroke-width:0.46028;stroke-linecap:butt;stroke-linejoin:round;stroke-miterlimit:10;stroke-dasharray:none;stroke-opacity:1"
       id="path266" /><g
       id="g278"
       clip-path="url(#clipPath282)"
       transform="matrix(0.57535022,0,0,0.57535022,8.9252759,141.98468)"><path
         d="m 57.6,256.76919 5.668571,-1.27044 5.668572,-18.87826 5.668571,-13.46876 5.668572,-9.55844 5.668571,-5.76432 5.668572,-4.81385 5.668571,-6.86656 5.66857,-6.81546 5.66857,-5.15275 5.66857,-4.72548 5.66858,-10.00367 5.66857,-3.21057 5.66857,-4.45992 5.66857,-4.11415 5.66857,-2.63292 5.66857,-4.2121 5.66857,-0.91008 5.66858,-2.33102 5.66857,-4.27702 5.66857,-1.02398 5.66857,-5.87097 5.66857,-3.66824 5.66857,-0.30963 5.66857,-6.31318 5.66858,-2.40326 5.66857,0.59544 5.66857,-3.3323 5.66857,-1.62029 5.66857,-4.25963 5.66857,-2.76854 5.66857,4.57824 5.66858,-3.97133 5.66857,-0.75749 5.66857,-3.53207 5.66857,-0.705 5.66857,-2.62685 5.66857,2.50401 5.66857,-4.8539 5.66858,2.02972 5.66857,-4.04145 5.66857,6.57156 5.66857,-2.06917 5.66857,-0.48647 5.66857,-6.300529 5.66857,0.162545 5.66858,-1.466127 5.66857,3.728601 5.66857,-3.093978 5.66857,-6.05926 5.66857,3.133672 5.66857,-1.743244 5.66857,1.142715 5.66858,-3.350443 5.66857,-5.943812 5.66857,0.352352 5.66857,0.774053 5.66857,-6.25664 5.66857,-6.651795 5.66857,0.89248 5.66858,-4.092091 5.66857,-1.738698 5.66857,-3.76005 5.66857,1.216871"
         style="fill:none;stroke:#1f77b4;stroke-width:1.5;stroke-linecap:square;stroke-linejoin:round;stroke-miterlimit:10;stroke-dasharray:none;stroke-opacity:1"
         id="path284" /></g><g
       id="g288"
       clip-path="url(#clipPath292)"
       transform="matrix(0.57535022,0,0,0.57535022,8.9252759,141.98468)"><path
         d="m 57.6,264.17068 5.668571,-1.19555 5.668572,-21.68276 5.668571,-14.66146 5.668572,-10.44803 5.668571,-6.28506 5.668572,-4.02324 5.668571,-6.74499 5.66857,-6.64794 5.66857,-3.27993 5.66857,-4.31458 5.66858,-8.95719 5.66857,-2.65758 5.66857,-3.71024 5.66857,-1.64571 5.66857,-0.80314 5.66857,-3.60042 5.66857,-0.96951 5.66858,-3.35524 5.66857,-3.53703 5.66857,-0.77248 5.66857,-5.01532 5.66857,-3.46807 5.66857,-0.27446 5.66857,-7.10172 5.66858,-2.40848 5.66857,-0.43733 5.66857,-4.75406 5.66857,0.0286 5.66857,-3.71499 5.66857,-2.5261 5.66857,4.09548 5.66858,-5.02822 5.66857,1.98443 5.66857,-4.65293 5.66857,-0.91386 5.66857,-3.87471 5.66857,3.55452 5.66857,-3.08354 5.66858,1.22949 5.66857,-0.93184 5.66857,6.72344 5.66857,-6.62931 5.66857,2.35953 5.66857,-7.06803 5.66857,1.27052 5.66858,-0.28755 5.66857,4.86151 5.66857,-3.12072 5.66857,0.74268 5.66857,3.66688 5.66857,-1.72325 5.66857,3.35081 5.66858,-2.3353 5.66857,-7.07506 5.66857,2.5062 5.66857,2.84193 5.66857,-5.82265 5.66857,-1.90815 5.66857,-0.52361 5.66858,-1.58787 5.66857,-6.90983 5.66857,-1.878047 5.66857,-8.276334"
         style="fill:none;stroke:#ff7f0e;stroke-width:1.5;stroke-linecap:square;stroke-linejoin:round;stroke-miterlimit:10;stroke-dasharray:none;stroke-opacity:1"
         id="path294" /></g><g
       id="g298"
       clip-path="url(#clipPath302)"
       transform="matrix(0.57535022,0,0,0.57535022,8.9252759,141.98468)"><path
         d="m 57.6,267.24535 5.668571,-1.75723 5.668572,-22.48185 5.668571,-14.3977 5.668572,-10.04399 5.668571,-5.722 5.668572,-2.66401 5.668571,-6.20486 5.66857,-6.06391 5.66857,-3.32863 5.66857,-4.26438 5.66858,-9.71984 5.66857,-2.60081 5.66857,-3.82356 5.66857,-1.76049 5.66857,-1.42166 5.66857,-4.11731 5.66857,-1.39089 5.66858,-3.2342 5.66857,-2.47344 5.66857,-0.46896 5.66857,-4.69794 5.66857,-3.40353 5.66857,-0.75801 5.66857,-6.16302 5.66858,-1.92277 5.66857,0.25376 5.66857,-4.08816 5.66857,-0.34381 5.66857,-3.32795 5.66857,-3.50481 5.66857,5.0886 5.66858,-5.98255 5.66857,3.25541 5.66857,-5.31176 5.66857,-1.10959 5.66857,-4.0453 5.66857,3.28169 5.66857,-5.68359 5.66858,1.72115 5.66857,-2.83053 5.66857,8.02699 5.66857,-7.12761 5.66857,4.07565 5.66857,-4.60577 5.66857,0.50646 5.66858,0.39388 5.66857,0.75869 5.66857,-2.81004 5.66857,2.75136 5.66857,1.60091 5.66857,2.15879 5.66857,2.95415 5.66858,-2.04432 5.66857,-4.86335 5.66857,4.84798 5.66857,0.96491 5.66857,-3.24188 5.66857,3.19019 5.66857,-0.29777 5.66858,-2.90758 5.66857,-7.1163 5.66857,-1.44513 5.66857,-6.42591"
         style="fill:none;stroke:#2ca02c;stroke-width:1.5;stroke-linecap:square;stroke-linejoin:round;stroke-miterlimit:10;stroke-dasharray:none;stroke-opacity:1"
         id="path304" /></g><g
       id="g308"
       clip-path="url(#clipPath312)"
       transform="matrix(0.57535022,0,0,0.57535022,8.9252759,141.98468)"
       style="stroke:#8c564b;stroke-opacity:1"><path
         d="m 57.6,266.33655 5.668571,-1.66864 5.668572,-22.45914 5.668571,-14.16578 5.668572,-9.7051 5.668571,-5.01419 5.668572,-2.05409 5.668571,-5.61425 5.66857,-5.56211 5.66857,-3.51757 5.66857,-5.37779 5.66858,-9.78677 5.66857,-3.13436 5.66857,-3.56829 5.66857,-0.84288 5.66857,-1.05036 5.66857,-3.88992 5.66857,-0.64207 5.66858,-3.48327 5.66857,-1.79244 5.66857,-0.45004 5.66857,-4.51479 5.66857,-3.12121 5.66857,-1.36579 5.66857,-5.65036 5.66858,-1.60848 5.66857,1.03311 5.66857,-3.62546 5.66857,0.17379 5.66857,-2.95124 5.66857,-1.78453 5.66857,4.49056 5.66858,-5.8278 5.66857,3.02758 5.66857,-4.22335 5.66857,-2.27815 5.66857,-3.6682 5.66857,2.72693 5.66857,-4.66737 5.66858,1.19209 5.66857,-1.20711 5.66857,7.29462 5.66857,-7.75099 5.66857,4.3678 5.66857,-5.08126 5.66857,-0.0596 5.66858,-0.17623 5.66857,1.76273 5.66857,-2.72867 5.66857,2.34035 5.66857,2.77057 5.66857,0.99867 5.66857,4.28214 5.66858,-1.94157 5.66857,-5.119 5.66857,4.5129 5.66857,-0.20883 5.66857,-2.20022 5.66857,0.85256 5.66857,2.89184 5.66858,-4.757 5.66857,-3.78366 5.66857,-9.80745 5.66857,-0.4419"
         style="fill:none;stroke:#8c564b;stroke-width:1.5;stroke-linecap:square;stroke-linejoin:round;stroke-miterlimit:10;stroke-dasharray:none;stroke-opacity:1"
         id="path314" /></g><g
       id="g318"
       clip-path="url(#clipPath322)"
       transform="matrix(0.57535022,0,0,0.57535022,8.9252759,141.98468)"><path
         d="m 57.6,264.87441 5.668571,-1.63015 5.668572,-22.15097 5.668571,-13.68522 5.668572,-8.85378 5.668571,-4.49653 5.668572,-1.55649 5.668571,-5.46536 5.66857,-6.07721 5.66857,-3.3118 5.66857,-5.79302 5.66858,-9.98092 5.66857,-3.15589 5.66857,-3.61463 5.66857,-0.99637 5.66857,-1.27213 5.66857,-4.82857 5.66857,1.1653 5.66858,-2.77125 5.66857,-2.02278 5.66857,-0.99724 5.66857,-4.06739 5.66857,-2.47054 5.66857,-2.3299 5.66857,-5.59541 5.66858,-1.63295 5.66857,1.89539 5.66857,-3.13699 5.66857,0.0916 5.66857,-1.58387 5.66857,-1.24206 5.66857,4.80036 5.66858,-5.83917 5.66857,3.90305 5.66857,-4.3563 5.66857,-2.00357 5.66857,-4.61495 5.66857,2.95099 5.66857,-3.50009 5.66858,0.41055 5.66857,0.69694 5.66857,4.93879 5.66857,-5.81384 5.66857,3.93622 5.66857,-4.57983 5.66857,-0.71024 5.66858,-0.55408 5.66857,0.60237 5.66857,1.26161 5.66857,2.03025 5.66857,0.25547 5.66857,1.40527 5.66857,5.3365 5.66858,-3.02297 5.66857,-4.41989 5.66857,4.62959 5.66857,3.90704 5.66857,-5.75766 5.66857,-1.53306 5.66857,1.25035 5.66858,-2.51246 5.66857,-5.52743 5.66857,-5.58829 5.66857,-8.20058"
         style="fill:none;stroke:#9467bd;stroke-width:1.5;stroke-linecap:square;stroke-linejoin:round;stroke-miterlimit:10;stroke-dasharray:none;stroke-opacity:1"
         id="path324" /></g><path
       d="m 42.065449,163.85719 v 153.1076"
       style="fill:none;stroke:#000000;stroke-width:0.46028;stroke-linecap:square;stroke-linejoin:miter;stroke-miterlimit:10;stroke-dasharray:none;stroke-opacity:1"
       id="path338" /><path
       d="m 247.53453,163.85719 v 153.1076"
       style="fill:none;stroke:#000000;stroke-width:0.46028;stroke-linecap:square;stroke-linejoin:miter;stroke-miterlimit:10;stroke-dasharray:none;stroke-opacity:1"
       id="path340" /><path
       d="M 42.065449,163.85719 H 247.53453"
       style="fill:none;stroke:#000000;stroke-width:0.46028;stroke-linecap:square;stroke-linejoin:miter;stroke-miterlimit:10;stroke-dasharray:none;stroke-opacity:1"
       id="path342" /><path
       d="M 42.065449,316.96479 H 247.53453"
       style="fill:none;stroke:#000000;stroke-width:0.46028;stroke-linecap:square;stroke-linejoin:miter;stroke-miterlimit:10;stroke-dasharray:none;stroke-opacity:1"
       id="path344" /><path
       d="m 53.44354,199.46975 h 11.507"
       style="fill:none;stroke:#1f77b4;stroke-width:0.863026;stroke-linecap:square;stroke-linejoin:round;stroke-miterlimit:10;stroke-dasharray:none;stroke-opacity:1"
       id="path354" /><path
       d="m 53.44354,191.5986 h 11.507"
       style="fill:none;stroke:#ff7f0e;stroke-width:0.863026;stroke-linecap:square;stroke-linejoin:round;stroke-miterlimit:10;stroke-dasharray:none;stroke-opacity:1"
       id="path360" /><path
       d="m 53.44354,183.72746 h 11.507"
       style="fill:none;stroke:#2ca02c;stroke-width:0.863026;stroke-linecap:square;stroke-linejoin:round;stroke-miterlimit:10;stroke-dasharray:none;stroke-opacity:1"
       id="path366" /><path
       d="m 53.44354,175.85631 h 11.507"
       style="fill:none;stroke:#8c564b;stroke-width:0.863026;stroke-linecap:square;stroke-linejoin:round;stroke-miterlimit:10;stroke-dasharray:none;stroke-opacity:1"
       id="path372" /><path
       d="m 53.44354,167.98516 h 11.507"
       style="fill:none;stroke:#9467bd;stroke-width:0.863026;stroke-linecap:square;stroke-linejoin:round;stroke-miterlimit:10;stroke-dasharray:none;stroke-opacity:1"
       id="path378" /><path
       d="m 53.44354,309.82886 h 11.507"
       style="fill:none;stroke:#d62728;stroke-width:0.863026;stroke-linecap:square;stroke-linejoin:round;stroke-miterlimit:10;stroke-dasharray:none;stroke-opacity:1"
       id="path384" /></g><g
     inkscape:groupmode="layer"
     id="layer1"
     inkscape:label="text"
     style="display:inline"
     transform="translate(-28.023958,-17.206424)"><text
       style="font-variant:normal;font-weight:normal;font-size:7.67134px;font-family:'DejaVu Sans';-inkscape-font-specification:DejaVuSans;writing-mode:lr-tb;fill:#000000;fill-opacity:1;fill-rule:nonzero;stroke:none;stroke-width:0.767134"
       id="text32"
       x="53.986153"
       y="253.51907"><tspan
         x="53.986153 58.865124 61.304607"
         y="253.51907"
         sodipodi:role="line"
         id="tspan30"
         style="stroke-width:0.767134">0.0</tspan></text><text
       style="font-variant:normal;font-weight:normal;font-size:7.67134px;font-family:'DejaVu Sans';-inkscape-font-specification:DejaVuSans;writing-mode:lr-tb;fill:#000000;fill-opacity:1;fill-rule:nonzero;stroke:none;stroke-width:0.767134"
       id="text50"
       x="84.774567"
       y="253.51907"><tspan
         x="84.774567 89.653542 92.093033"
         y="253.51907"
         sodipodi:role="line"
         id="tspan48"
         style="stroke-width:0.767134">0.2</tspan></text><text
       style="font-variant:normal;font-weight:normal;font-size:7.67134px;font-family:'DejaVu Sans';-inkscape-font-specification:DejaVuSans;writing-mode:lr-tb;fill:#000000;fill-opacity:1;fill-rule:nonzero;stroke:none;stroke-width:0.767134"
       id="text68"
       x="119.56299"
       y="253.51907"><tspan
         x="119.56299 124.44196 126.88143"
         y="253.51907"
         sodipodi:role="line"
         id="tspan66"
         style="stroke-width:0.767134">0.4</tspan></text><text
       style="font-variant:normal;font-weight:normal;font-size:7.67134px;font-family:'DejaVu Sans';-inkscape-font-specification:DejaVuSans;writing-mode:lr-tb;fill:#000000;fill-opacity:1;fill-rule:nonzero;stroke:none;stroke-width:0.767134"
       id="text86"
       x="154.35139"
       y="253.51907"><tspan
         x="154.35139 159.23036 161.66985"
         y="253.51907"
         sodipodi:role="line"
         id="tspan84"
         style="stroke-width:0.767134">0.6</tspan></text><text
       style="font-variant:normal;font-weight:normal;font-size:7.67134px;font-family:'DejaVu Sans';-inkscape-font-specification:DejaVuSans;writing-mode:lr-tb;fill:#000000;fill-opacity:1;fill-rule:nonzero;stroke:none;stroke-width:0.767134"
       id="text104"
       x="189.1398"
       y="253.51907"><tspan
         x="189.1398 194.01877 196.45827"
         y="253.51907"
         sodipodi:role="line"
         id="tspan102"
         style="stroke-width:0.767134">0.8</tspan></text><text
       style="font-variant:normal;font-weight:normal;font-size:7.67134px;font-family:'DejaVu Sans';-inkscape-font-specification:DejaVuSans;writing-mode:lr-tb;fill:#000000;fill-opacity:1;fill-rule:nonzero;stroke:none;stroke-width:0.767134"
       id="text122"
       x="223.92822"
       y="253.51907"><tspan
         x="223.92822 228.80717 231.24666"
         y="253.51907"
         sodipodi:role="line"
         id="tspan120"
         style="stroke-width:0.767134">1.0</tspan></text><text
       style="font-variant:normal;font-weight:normal;font-size:7.67134px;font-family:'DejaVu Sans';-inkscape-font-specification:DejaVuSans;writing-mode:lr-tb;fill:#000000;fill-opacity:1;fill-rule:nonzero;stroke:none;stroke-width:0.767134"
       id="text140"
       x="258.71664"
       y="253.51907"><tspan
         x="258.71664 263.59558 266.0351"
         y="253.51907"
         sodipodi:role="line"
         id="tspan138"
         style="stroke-width:0.767134">1.2</tspan></text><text
       style="font-variant:normal;font-weight:normal;font-size:7.67134px;font-family:'DejaVu Sans';-inkscape-font-specification:DejaVuSans;writing-mode:lr-tb;fill:#000000;fill-opacity:1;fill-rule:nonzero;stroke:none;stroke-width:0.767134"
       id="text158"
       x="293.50504"
       y="253.51907"><tspan
         x="293.50504 298.384 300.82352"
         y="253.51907"
         sodipodi:role="line"
         id="tspan156"
         style="stroke-width:0.767134">1.4</tspan></text><text
       style="font-variant:normal;font-weight:normal;font-size:7.67134px;font-family:'DejaVu Sans';-inkscape-font-specification:DejaVuSans;writing-mode:lr-tb;fill:#000000;fill-opacity:1;fill-rule:nonzero;stroke:none;stroke-width:0.767134"
       id="text162"
       x="146.63707"
       y="264.00745"><tspan
         x="146.63707 152.58235 157.30023 162.16386 166.85873 174.3306 176.46323 180.68246 183.12196 187.99324 190.12587 194.12265 197.12981 201.83234 206.69597 210.91522 215.63307 218.07256 220.65779 223.09727 229.71764 234.58894"
         y="264.00745"
         sodipodi:role="line"
         id="tspan160"
         style="stroke-width:0.767134">Genomic distance / Mbp</tspan></text><text
       style="font-variant:normal;font-weight:normal;font-size:7.67134px;font-family:'DejaVu Sans';-inkscape-font-specification:DejaVuSans;writing-mode:lr-tb;fill:#000000;fill-opacity:1;fill-rule:nonzero;stroke:none;stroke-width:0.767134"
       id="text180"
       x="38.515106"
       y="245.23643"><tspan
         x="38.515106 43.394077 45.833561"
         y="245.23643"
         sodipodi:role="line"
         id="tspan178"
         style="stroke-width:0.767134">0.0</tspan></text><text
       style="font-variant:normal;font-weight:normal;font-size:7.67134px;font-family:'DejaVu Sans';-inkscape-font-specification:DejaVuSans;writing-mode:lr-tb;fill:#000000;fill-opacity:1;fill-rule:nonzero;stroke:none;stroke-width:0.767134"
       id="text198"
       x="38.515106"
       y="204.40775"><tspan
         x="38.515106 43.394077 45.833561"
         y="204.40775"
         sodipodi:role="line"
         id="tspan196"
         style="stroke-width:0.767134">0.2</tspan></text><text
       style="font-variant:normal;font-weight:normal;font-size:7.67134px;font-family:'DejaVu Sans';-inkscape-font-specification:DejaVuSans;writing-mode:lr-tb;fill:#000000;fill-opacity:1;fill-rule:nonzero;stroke:none;stroke-width:0.767134"
       id="text216"
       x="38.515106"
       y="163.57906"><tspan
         x="38.515106 43.394077 45.833561"
         y="163.57906"
         sodipodi:role="line"
         id="tspan214"
         style="stroke-width:0.767134">0.4</tspan></text><text
       style="font-variant:normal;font-weight:normal;font-size:7.67134px;font-family:'DejaVu Sans';-inkscape-font-specification:DejaVuSans;writing-mode:lr-tb;fill:#000000;fill-opacity:1;fill-rule:nonzero;stroke:none;stroke-width:0.767134"
       id="text234"
       x="38.515106"
       y="122.75036"><tspan
         x="38.515106 43.394077 45.833561"
         y="122.75036"
         sodipodi:role="line"
         id="tspan232"
         style="stroke-width:0.767134">0.6</tspan></text><text
       style="font-variant:normal;font-weight:normal;font-size:7.67134px;font-family:'DejaVu Sans';-inkscape-font-specification:DejaVuSans;writing-mode:lr-tb;fill:#000000;fill-opacity:1;fill-rule:nonzero;stroke:none;stroke-width:0.767134"
       id="text252"
       x="38.515106"
       y="81.921669"><tspan
         x="38.515106 43.394077 45.833561"
         y="81.921669"
         sodipodi:role="line"
         id="tspan250"
         style="stroke-width:0.767134">0.8</tspan></text><text
       style="font-variant:normal;font-weight:normal;font-size:7.67134px;font-family:'DejaVu Sans';-inkscape-font-specification:DejaVuSans;writing-mode:lr-tb;fill:#000000;fill-opacity:1;fill-rule:nonzero;stroke:none;stroke-width:0.767134"
       id="text270"
       x="38.515106"
       y="41.093037"><tspan
         x="38.515106 43.394077 45.833561"
         y="41.093037"
         sodipodi:role="line"
         id="tspan268"
         style="stroke-width:0.767134">1.0</tspan></text><text
       transform="rotate(-90)"
       style="font-variant:normal;font-weight:normal;font-size:7.67134px;font-family:'DejaVu Sans';-inkscape-font-specification:DejaVuSans;writing-mode:lr-tb;fill:#000000;fill-opacity:1;fill-rule:nonzero;stroke:none;stroke-width:0.767134"
       id="text274"
       x="-177.31413"
       y="33.852375"><tspan
         x="-177.31413 -172.68831 -167.97046 -163.26793 -160.11499 -156.11824 -151.42337 -146.55975 -144.12027 -139.90103 -135.20618 -132.05324 -128.90033 -124.18246 -122.04983 -117.3473 -114.34014 -112.20751 -107.51266"
         y="33.852375"
         sodipodi:role="line"
         id="tspan272"
         style="stroke-width:0.767134">Pearson correlation</tspan></text><text
       style="font-variant:normal;font-weight:normal;font-size:9.2056px;font-family:'DejaVu Sans';-inkscape-font-specification:DejaVuSans;writing-mode:lr-tb;fill:#000000;fill-opacity:1;fill-rule:nonzero;stroke:none;stroke-width:0.767134"
       id="text348"
       x="98.331635"
       y="23.259567"><tspan
         x="98.331635 103.88261 109.54406 115.18709 118.97058 123.76672 129.40056 135.23691 138.16428 143.22736 148.86119 152.6447 156.42821 162.08965 164.6488 170.29184 173.90042 176.45959 182.09343 187.92976 190.85716 196.30688 201.10298 204.03038 206.95775 212.80331 218.46475 224.30109 229.93494 238.9012 241.46036 246.52344 249.45084 255.29637 257.85553 262.65164 266.26025 271.90329 277.73962 282.8027"
         y="23.259567"
         sodipodi:role="line"
         id="tspan346"
         style="stroke-width:0.767134">Pearson correlation vs. genomic distance</tspan></text><text
       style="font-variant:normal;font-weight:normal;font-size:9.2056px;font-family:'DejaVu Sans';-inkscape-font-specification:DejaVuSans;writing-mode:lr-tb;fill:#000000;fill-opacity:1;fill-rule:nonzero;stroke:none;stroke-width:0.767134"
       id="text352"
       x="61.062412"
       y="33.577526"><tspan
         x="61.062412 68.196754 76.141197 81.995956 87.850716 93.705475 99.560242 105.415 108.34239 111.26977 117.12453 120.05193 125.90668 128.83408 134.68883 137.61621 143.47098 146.39836 152.25313 155.1805 161.03526 166.89001 169.81741 175.67216 181.52693 184.45432 190.30907 196.16383 199.09122 204.94598 210.80075 213.72815 219.5829 225.43768 228.36504 234.21982 240.07457 243.00197 248.85672 254.7115 257.63885 263.49365 269.34839 272.27579 277.90961 283.74594 286.67337 292.71222 298.56699 304.42175 310.27652 313.20389 316.13129 321.98602"
         y="33.577526"
         sodipodi:role="line"
         id="tspan350"
         style="stroke-width:0.767134">GM12878, 1,2,4,7,9,11,13,14,16,17,18,20,22 on K562, 19</tspan></text><text
       style="font-variant:normal;font-weight:normal;font-size:7.67134px;font-family:'DejaVu Sans';-inkscape-font-specification:DejaVuSans;writing-mode:lr-tb;fill:#000000;fill-opacity:1;fill-rule:nonzero;stroke:none;stroke-width:0.767134"
       id="text358"
       x="92.737808"
       y="197.52538"><tspan
         x="92.737808 97.61676 102.49574 104.93523 109.65309 114.52438 116.96387 119.5491 121.9886 127.23579 132.85123 138.2058 140.79105 143.23053 148.1095 150.54898 155.42795 160.30692"
         y="197.52538"
         sodipodi:role="line"
         id="tspan356"
         style="stroke-width:0.767134">20 ep / AUC: 0.339</tspan></text><text
       style="font-variant:normal;font-weight:normal;font-size:7.67134px;font-family:'DejaVu Sans';-inkscape-font-specification:DejaVuSans;writing-mode:lr-tb;fill:#000000;fill-opacity:1;fill-rule:nonzero;stroke:none;stroke-width:0.767134"
       id="text364"
       x="92.737808"
       y="208.02023"><tspan
         x="92.737808 97.61676 102.49574 104.93523 109.65309 114.52438 116.96387 119.5491 121.9886 127.23579 132.85123 138.2058 140.79105 143.23053 148.1095 150.54898 155.42795 160.30692"
         y="208.02023"
         sodipodi:role="line"
         id="tspan362"
         style="stroke-width:0.767134">40 ep / AUC: 0.397</tspan></text><text
       style="font-variant:normal;font-weight:normal;font-size:7.67134px;font-family:'DejaVu Sans';-inkscape-font-specification:DejaVuSans;writing-mode:lr-tb;fill:#000000;fill-opacity:1;fill-rule:nonzero;stroke:none;stroke-width:0.767134"
       id="text370"
       x="92.737808"
       y="218.51503"><tspan
         x="92.737808 97.61676 102.49574 104.93523 109.65309 114.52438 116.96387 119.5491 121.9886 127.23579 132.85123 138.2058 140.79105 143.23053 148.1095 150.54898 155.42795 160.30692"
         y="218.51503"
         sodipodi:role="line"
         id="tspan368"
         style="stroke-width:0.767134">60 ep / AUC: 0.421</tspan></text><text
       style="font-variant:normal;font-weight:normal;font-size:7.67134px;font-family:'DejaVu Sans';-inkscape-font-specification:DejaVuSans;writing-mode:lr-tb;fill:#000000;fill-opacity:1;fill-rule:nonzero;stroke:none;stroke-width:0.767134"
       id="text376"
       x="92.737808"
       y="229.00987"><tspan
         x="92.737808 97.61676 102.49574 104.93523 109.65309 114.52438 116.96387 119.5491 121.9886 127.23579 132.85123 138.2058 140.79105 143.23053 148.1095 150.54898 155.42795 160.30692"
         y="229.00987"
         sodipodi:role="line"
         id="tspan374"
         style="stroke-width:0.767134">80 ep / AUC: 0.439</tspan></text><text
       style="font-variant:normal;font-weight:normal;font-size:7.67134px;font-family:'DejaVu Sans';-inkscape-font-specification:DejaVuSans;writing-mode:lr-tb;fill:#000000;fill-opacity:1;fill-rule:nonzero;stroke:none;stroke-width:0.767134"
       id="text382"
       x="92.737808"
       y="239.50471"><tspan
         x="92.737808 97.61676 102.49574 107.37469 109.81418 114.53207 119.40335 121.84285 124.42809 126.86757 132.11476 137.73018 143.08478 145.67001 148.1095 152.98849 155.42795 160.30692 165.18591"
         y="239.50471"
         sodipodi:role="line"
         id="tspan380"
         style="stroke-width:0.767134">100 ep / AUC: 0.453</tspan></text><text
       style="font-variant:normal;font-weight:normal;font-size:7.67134px;font-family:'DejaVu Sans';-inkscape-font-specification:DejaVuSans;writing-mode:lr-tb;fill:#000000;fill-opacity:1;fill-rule:nonzero;stroke:none;stroke-width:0.767134"
       id="text388"
       x="92.737808"
       y="50.379807"><tspan
         x="92.737808 95.744957 98.897888 103.60042 108.46404 112.4608 115.1611 119.879 123.03191 125.47139 131.41667 138.03703 142.91602 147.79498 152.67395 157.55292 162.43188 164.87137 167.4566 169.89609 175.14328 180.7587 186.11331 188.69855 191.138 196.017 198.45648 203.33542 208.21442"
         y="50.379807"
         sodipodi:role="line"
         id="tspan386"
         style="stroke-width:0.767134">transfer GM12878 / AUC: 0.786</tspan></text></g></svg>
