<?xml version="1.0" encoding="UTF-8" standalone="no"?>
<svg
   xmlns:dc="http://purl.org/dc/elements/1.1/"
   xmlns:cc="http://creativecommons.org/ns#"
   xmlns:rdf="http://www.w3.org/1999/02/22-rdf-syntax-ns#"
   xmlns:svg="http://www.w3.org/2000/svg"
   xmlns="http://www.w3.org/2000/svg"
   xmlns:sodipodi="http://sodipodi.sourceforge.net/DTD/sodipodi-0.dtd"
   xmlns:inkscape="http://www.inkscape.org/namespaces/inkscape"
   version="1.1"
   id="svg2"
   xml:space="preserve"
   width="80mm"
   height="65.300003mm"
   viewBox="0 0 302.36219 246.80316"
   sodipodi:docname="pearson_chr21.svg"
   inkscape:version="1.0.2 (1.0.2+r75+1)"><metadata
     id="metadata8"><rdf:RDF><cc:Work
         rdf:about=""><dc:format>image/svg+xml</dc:format><dc:type
           rdf:resource="http://purl.org/dc/dcmitype/StillImage" /><dc:title /></cc:Work></rdf:RDF></metadata><defs
     id="defs6"><clipPath
       clipPathUnits="userSpaceOnUse"
       id="clipPath22"><path
         d="M 57.6,38.016 H 414.72 V 304.128 H 57.6 Z"
         id="path20" /></clipPath><clipPath
       clipPathUnits="userSpaceOnUse"
       id="clipPath40"><path
         d="M 57.6,38.016 H 414.72 V 304.128 H 57.6 Z"
         id="path38" /></clipPath><clipPath
       clipPathUnits="userSpaceOnUse"
       id="clipPath58"><path
         d="M 57.6,38.016 H 414.72 V 304.128 H 57.6 Z"
         id="path56" /></clipPath><clipPath
       clipPathUnits="userSpaceOnUse"
       id="clipPath76"><path
         d="M 57.6,38.016 H 414.72 V 304.128 H 57.6 Z"
         id="path74" /></clipPath><clipPath
       clipPathUnits="userSpaceOnUse"
       id="clipPath94"><path
         d="M 57.6,38.016 H 414.72 V 304.128 H 57.6 Z"
         id="path92" /></clipPath><clipPath
       clipPathUnits="userSpaceOnUse"
       id="clipPath112"><path
         d="M 57.6,38.016 H 414.72 V 304.128 H 57.6 Z"
         id="path110" /></clipPath><clipPath
       clipPathUnits="userSpaceOnUse"
       id="clipPath130"><path
         d="M 57.6,38.016 H 414.72 V 304.128 H 57.6 Z"
         id="path128" /></clipPath><clipPath
       clipPathUnits="userSpaceOnUse"
       id="clipPath148"><path
         d="M 57.6,38.016 H 414.72 V 304.128 H 57.6 Z"
         id="path146" /></clipPath><clipPath
       clipPathUnits="userSpaceOnUse"
       id="clipPath170"><path
         d="M 57.6,38.016 H 414.72 V 304.128 H 57.6 Z"
         id="path168" /></clipPath><clipPath
       clipPathUnits="userSpaceOnUse"
       id="clipPath188"><path
         d="M 57.6,38.016 H 414.72 V 304.128 H 57.6 Z"
         id="path186" /></clipPath><clipPath
       clipPathUnits="userSpaceOnUse"
       id="clipPath206"><path
         d="M 57.6,38.016 H 414.72 V 304.128 H 57.6 Z"
         id="path204" /></clipPath><clipPath
       clipPathUnits="userSpaceOnUse"
       id="clipPath224"><path
         d="M 57.6,38.016 H 414.72 V 304.128 H 57.6 Z"
         id="path222" /></clipPath><clipPath
       clipPathUnits="userSpaceOnUse"
       id="clipPath242"><path
         d="M 57.6,38.016 H 414.72 V 304.128 H 57.6 Z"
         id="path240" /></clipPath><clipPath
       clipPathUnits="userSpaceOnUse"
       id="clipPath260"><path
         d="M 57.6,38.016 H 414.72 V 304.128 H 57.6 Z"
         id="path258" /></clipPath><clipPath
       clipPathUnits="userSpaceOnUse"
       id="clipPath282"><path
         d="M 57.6,38.016 H 414.72 V 304.128 H 57.6 Z"
         id="path280" /></clipPath><clipPath
       clipPathUnits="userSpaceOnUse"
       id="clipPath292"><path
         d="M 57.6,38.016 H 414.72 V 304.128 H 57.6 Z"
         id="path290" /></clipPath><clipPath
       clipPathUnits="userSpaceOnUse"
       id="clipPath302"><path
         d="M 57.6,38.016 H 414.72 V 304.128 H 57.6 Z"
         id="path300" /></clipPath><clipPath
       clipPathUnits="userSpaceOnUse"
       id="clipPath312"><path
         d="M 57.6,38.016 H 414.72 V 304.128 H 57.6 Z"
         id="path310" /></clipPath><clipPath
       clipPathUnits="userSpaceOnUse"
       id="clipPath322"><path
         d="M 57.6,38.016 H 414.72 V 304.128 H 57.6 Z"
         id="path320" /></clipPath><clipPath
       clipPathUnits="userSpaceOnUse"
       id="clipPath332"><path
         d="M 57.6,38.016 H 414.72 V 304.128 H 57.6 Z"
         id="path330" /></clipPath></defs><sodipodi:namedview
     pagecolor="#ffffff"
     bordercolor="#666666"
     borderopacity="1"
     objecttolerance="10"
     gridtolerance="10"
     guidetolerance="10"
     inkscape:pageopacity="0"
     inkscape:pageshadow="2"
     inkscape:window-width="1920"
     inkscape:window-height="1020"
     id="namedview4"
     showgrid="false"
     fit-margin-top="0"
     fit-margin-left="0"
     fit-margin-right="0"
     fit-margin-bottom="0"
     units="mm"
     inkscape:zoom="3.7196181"
     inkscape:cx="101.75373"
     inkscape:cy="140.49117"
     inkscape:window-x="0"
     inkscape:window-y="0"
     inkscape:window-maximized="1"
     inkscape:current-layer="g10"
     inkscape:document-rotation="0" /><g
     id="g10"
     inkscape:groupmode="layer"
     inkscape:label="pearson_chr21"
     transform="matrix(1.3333333,0,0,-1.3333333,-28.023958,443.59358)"><path
       d="M 57.6,38.016 V 304.128"
       style="fill:none;stroke:#b0b0b0;stroke-width:0.8;stroke-linecap:square;stroke-linejoin:round;stroke-miterlimit:10;stroke-dasharray:none;stroke-opacity:1"
       id="path24"
       transform="matrix(0.57544839,0,0,0.57544839,8.923213,141.95202)" /><path
       d="M 102.94857,38.016 V 304.128"
       style="fill:none;stroke:#b0b0b0;stroke-width:0.8;stroke-linecap:square;stroke-linejoin:round;stroke-miterlimit:10;stroke-dasharray:none;stroke-opacity:1"
       id="path42"
       transform="matrix(0.57544839,0,0,0.57544839,8.923213,141.95202)" /><path
       d="M 94.260563,163.82827 V 316.96199"
       style="fill:none;stroke:#b0b0b0;stroke-width:0.460359;stroke-linecap:square;stroke-linejoin:round;stroke-miterlimit:10;stroke-dasharray:none;stroke-opacity:1"
       id="path60" /><path
       d="M 193.64571,38.016 V 304.128"
       style="fill:none;stroke:#b0b0b0;stroke-width:0.8;stroke-linecap:square;stroke-linejoin:round;stroke-miterlimit:10;stroke-dasharray:none;stroke-opacity:1"
       id="path78"
       transform="matrix(0.57544839,0,0,0.57544839,8.923213,141.95202)" /><path
       d="M 238.99429,38.016 V 304.128"
       style="fill:none;stroke:#b0b0b0;stroke-width:0.8;stroke-linecap:square;stroke-linejoin:round;stroke-miterlimit:10;stroke-dasharray:none;stroke-opacity:1"
       id="path96"
       transform="matrix(0.57544839,0,0,0.57544839,8.923213,141.95202)" /><path
       d="M 284.34286,38.016 V 304.128"
       style="fill:none;stroke:#b0b0b0;stroke-width:0.8;stroke-linecap:square;stroke-linejoin:round;stroke-miterlimit:10;stroke-dasharray:none;stroke-opacity:1"
       id="path114"
       transform="matrix(0.57544839,0,0,0.57544839,8.923213,141.95202)" /><path
       d="M 329.69143,38.016 V 304.128"
       style="fill:none;stroke:#b0b0b0;stroke-width:0.8;stroke-linecap:square;stroke-linejoin:round;stroke-miterlimit:10;stroke-dasharray:none;stroke-opacity:1"
       id="path132"
       transform="matrix(0.57544839,0,0,0.57544839,8.923213,141.95202)" /><path
       d="M 375.04,38.016 V 304.128"
       style="fill:none;stroke:#b0b0b0;stroke-width:0.8;stroke-linecap:square;stroke-linejoin:round;stroke-miterlimit:10;stroke-dasharray:none;stroke-opacity:1"
       id="path150"
       transform="matrix(0.57544839,0,0,0.57544839,8.923213,141.95202)" /><path
       d="M 57.6,38.016 H 414.72"
       style="fill:none;stroke:#b0b0b0;stroke-width:0.8;stroke-linecap:square;stroke-linejoin:round;stroke-miterlimit:10;stroke-dasharray:none;stroke-opacity:1"
       id="path172"
       transform="matrix(0.57544839,0,0,0.57544839,8.923213,141.95202)" /><path
       d="M 57.6,91.2384 H 414.72"
       style="fill:none;stroke:#b0b0b0;stroke-width:0.8;stroke-linecap:square;stroke-linejoin:round;stroke-miterlimit:10;stroke-dasharray:none;stroke-opacity:1"
       id="path190"
       transform="matrix(0.57544839,0,0,0.57544839,8.923213,141.95202)" /><path
       d="M 57.6,144.4608 H 414.72"
       style="fill:none;stroke:#b0b0b0;stroke-width:0.8;stroke-linecap:square;stroke-linejoin:round;stroke-miterlimit:10;stroke-dasharray:none;stroke-opacity:1"
       id="path208"
       transform="matrix(0.57544839,0,0,0.57544839,8.923213,141.95202)" /><path
       d="M 57.6,197.6832 H 414.72"
       style="fill:none;stroke:#b0b0b0;stroke-width:0.8;stroke-linecap:square;stroke-linejoin:round;stroke-miterlimit:10;stroke-dasharray:none;stroke-opacity:1"
       id="path226"
       transform="matrix(0.57544839,0,0,0.57544839,8.923213,141.95202)" /><path
       d="M 57.6,250.9056 H 414.72"
       style="fill:none;stroke:#b0b0b0;stroke-width:0.8;stroke-linecap:square;stroke-linejoin:round;stroke-miterlimit:10;stroke-dasharray:none;stroke-opacity:1"
       id="path244"
       transform="matrix(0.57544839,0,0,0.57544839,8.923213,141.95202)" /><path
       d="M 57.6,304.128 H 414.72"
       style="fill:none;stroke:#b0b0b0;stroke-width:0.8;stroke-linecap:square;stroke-linejoin:round;stroke-miterlimit:10;stroke-dasharray:none;stroke-opacity:1"
       id="path262"
       transform="matrix(0.57544839,0,0,0.57544839,8.923213,141.95202)" /><g
       id="g328"
       clip-path="url(#clipPath332)"
       style="stroke:#d62728;stroke-opacity:1"
       transform="matrix(0.57544839,0,0,0.57544839,8.9232126,141.95202)"><path
         d="m 57.6,289.79076 5.668571,-7.78541 5.668572,-4.33434 5.668571,-1.33192 5.668572,-1.98102 5.668571,1.44608 5.668572,-0.87307 5.668571,-0.49112 5.66857,0.0761 5.66857,-0.4491 5.66857,3.76149 5.66858,-3.26655 5.66857,2.00984 5.66857,-1.67862 5.66857,-2.16124 5.66857,2.04623 5.66857,-2.13284 5.66857,3.15862 5.66858,-1.12324 5.66857,-1.58083 5.66857,-3.95531 5.66857,-1.19075 5.66857,-2.52338 5.66857,-1.22892 5.66857,2.84865 5.66858,-0.81444 5.66857,1.02032 5.66857,-2.44576 5.66857,1.25196 5.66857,1.21796 5.66857,-0.80819 5.66857,-4.60198 5.66858,4.42983 5.66857,-0.92774 5.66857,-1.14548 5.66857,1.44211 5.66857,-3.22653 5.66857,-0.0284 5.66857,3.98517 5.66858,-5.30989 5.66857,4.66157 5.66857,-3.53861 5.66857,3.5509 5.66857,3.95749 5.66857,3.4502 5.66857,-6.58525 5.66858,2.41022 5.66857,-0.55346 5.66857,1.77459 5.66857,-1.48678 5.66857,-6.10031 5.66857,4.59318 5.66857,-2.68526 5.66858,1.72599 5.66857,0.45505 5.66857,-1.36795 5.66857,-3.43089 5.66857,0.92592 5.66857,-3.01047 5.66857,-4.9939 5.66858,-1.686 5.66857,0.87888 5.66857,0.63212 5.66857,-3.49209"
         style="fill:none;stroke:#d62728;stroke-width:1.5;stroke-linecap:square;stroke-linejoin:round;stroke-miterlimit:10;stroke-dasharray:none;stroke-opacity:1"
         id="path334" /></g><g
       id="g16"
       transform="matrix(0.57544839,0,0,0.57544839,8.9232126,141.95202)"><g
         id="g18"
         clip-path="url(#clipPath22)" /></g><path
       d="m 42.06904,163.82827 v -2.01408"
       style="fill:#000000;fill-opacity:1;fill-rule:nonzero;stroke:#000000;stroke-width:0.460358;stroke-linecap:butt;stroke-linejoin:round;stroke-miterlimit:10;stroke-dasharray:none;stroke-opacity:1"
       id="path28" /><text
       transform="scale(1,-1)"
       style="font-variant:normal;font-weight:normal;font-size:5.75448px;font-family:'DejaVu Sans';-inkscape-font-specification:DejaVuSans;writing-mode:lr-tb;fill:#000000;fill-opacity:1;fill-rule:nonzero;stroke:none;stroke-width:0.575448"
       id="text32"
       x="40.492424"
       y="-155.43028"><tspan
         x="40.492424 44.152279 45.982204"
         y="-155.43028"
         sodipodi:role="line"
         id="tspan30"
         style="stroke-width:0.575448">0.0</tspan></text><g
       id="g34"
       transform="matrix(0.57544839,0,0,0.57544839,8.9232126,141.95202)"><g
         id="g36"
         clip-path="url(#clipPath40)" /></g><path
       d="m 68.164802,163.82827 v -2.01408"
       style="fill:#000000;fill-opacity:1;fill-rule:nonzero;stroke:#000000;stroke-width:0.460358;stroke-linecap:butt;stroke-linejoin:round;stroke-miterlimit:10;stroke-dasharray:none;stroke-opacity:1"
       id="path46" /><text
       transform="scale(1,-1)"
       style="font-variant:normal;font-weight:normal;font-size:5.75448px;font-family:'DejaVu Sans';-inkscape-font-specification:DejaVuSans;writing-mode:lr-tb;fill:#000000;fill-opacity:1;fill-rule:nonzero;stroke:none;stroke-width:0.575448"
       id="text50"
       x="63.588192"
       y="-155.43028"><tspan
         x="63.588192 67.248047 69.077972"
         y="-155.43028"
         sodipodi:role="line"
         id="tspan48"
         style="stroke-width:0.575448">0.2</tspan></text><path
       d="m 94.260563,163.82827 v -2.01408"
       style="fill:#000000;fill-opacity:1;fill-rule:nonzero;stroke:#000000;stroke-width:0.460358;stroke-linecap:butt;stroke-linejoin:round;stroke-miterlimit:10;stroke-dasharray:none;stroke-opacity:1"
       id="path64" /><text
       transform="scale(1,-1)"
       style="font-variant:normal;font-weight:normal;font-size:5.75448px;font-family:'DejaVu Sans';-inkscape-font-specification:DejaVuSans;writing-mode:lr-tb;fill:#000000;fill-opacity:1;fill-rule:nonzero;stroke:none;stroke-width:0.575448"
       id="text68"
       x="89.68396"
       y="-155.43028"><tspan
         x="89.68396 93.343803 95.173729"
         y="-155.43028"
         sodipodi:role="line"
         id="tspan66"
         style="stroke-width:0.575448">0.4</tspan></text><g
       id="g70"
       transform="matrix(0.57544839,0,0,0.57544839,8.9232126,141.95202)"><g
         id="g72"
         clip-path="url(#clipPath76)" /></g><path
       d="m 120.35632,163.82827 v -2.01408"
       style="fill:#000000;fill-opacity:1;fill-rule:nonzero;stroke:#000000;stroke-width:0.460358;stroke-linecap:butt;stroke-linejoin:round;stroke-miterlimit:10;stroke-dasharray:none;stroke-opacity:1"
       id="path82" /><text
       transform="scale(1,-1)"
       style="font-variant:normal;font-weight:normal;font-size:5.75448px;font-family:'DejaVu Sans';-inkscape-font-specification:DejaVuSans;writing-mode:lr-tb;fill:#000000;fill-opacity:1;fill-rule:nonzero;stroke:none;stroke-width:0.575448"
       id="text86"
       x="115.77972"
       y="-155.43028"><tspan
         x="115.77972 119.43958 121.26949"
         y="-155.43028"
         sodipodi:role="line"
         id="tspan84"
         style="stroke-width:0.575448">0.6</tspan></text><g
       id="g88"
       transform="matrix(0.57544839,0,0,0.57544839,8.9232126,141.95202)"><g
         id="g90"
         clip-path="url(#clipPath94)" /></g><path
       d="m 146.4521,163.82827 v -2.01408"
       style="fill:#000000;fill-opacity:1;fill-rule:nonzero;stroke:#000000;stroke-width:0.460358;stroke-linecap:butt;stroke-linejoin:round;stroke-miterlimit:10;stroke-dasharray:none;stroke-opacity:1"
       id="path100" /><text
       transform="scale(1,-1)"
       style="font-variant:normal;font-weight:normal;font-size:5.75448px;font-family:'DejaVu Sans';-inkscape-font-specification:DejaVuSans;writing-mode:lr-tb;fill:#000000;fill-opacity:1;fill-rule:nonzero;stroke:none;stroke-width:0.575448"
       id="text104"
       x="141.87547"
       y="-155.43028"><tspan
         x="141.87547 145.53532 147.36525"
         y="-155.43028"
         sodipodi:role="line"
         id="tspan102"
         style="stroke-width:0.575448">0.8</tspan></text><g
       id="g106"
       transform="matrix(0.57544839,0,0,0.57544839,8.9232126,141.95202)"><g
         id="g108"
         clip-path="url(#clipPath112)" /></g><path
       d="m 172.54786,163.82827 v -2.01408"
       style="fill:#000000;fill-opacity:1;fill-rule:nonzero;stroke:#000000;stroke-width:0.460358;stroke-linecap:butt;stroke-linejoin:round;stroke-miterlimit:10;stroke-dasharray:none;stroke-opacity:1"
       id="path118" /><text
       transform="scale(1,-1)"
       style="font-variant:normal;font-weight:normal;font-size:5.75448px;font-family:'DejaVu Sans';-inkscape-font-specification:DejaVuSans;writing-mode:lr-tb;fill:#000000;fill-opacity:1;fill-rule:nonzero;stroke:none;stroke-width:0.575448"
       id="text122"
       x="167.97125"
       y="-155.43028"><tspan
         x="167.97125 171.63107 173.46101"
         y="-155.43028"
         sodipodi:role="line"
         id="tspan120"
         style="stroke-width:0.575448">1.0</tspan></text><g
       id="g124"
       transform="matrix(0.57544839,0,0,0.57544839,8.9232126,141.95202)"><g
         id="g126"
         clip-path="url(#clipPath130)" /></g><path
       d="m 198.64362,163.82827 v -2.01408"
       style="fill:#000000;fill-opacity:1;fill-rule:nonzero;stroke:#000000;stroke-width:0.460358;stroke-linecap:butt;stroke-linejoin:round;stroke-miterlimit:10;stroke-dasharray:none;stroke-opacity:1"
       id="path136" /><text
       transform="scale(1,-1)"
       style="font-variant:normal;font-weight:normal;font-size:5.75448px;font-family:'DejaVu Sans';-inkscape-font-specification:DejaVuSans;writing-mode:lr-tb;fill:#000000;fill-opacity:1;fill-rule:nonzero;stroke:none;stroke-width:0.575448"
       id="text140"
       x="194.067"
       y="-155.43028"><tspan
         x="194.067 197.72685 199.55678"
         y="-155.43028"
         sodipodi:role="line"
         id="tspan138"
         style="stroke-width:0.575448">1.2</tspan></text><g
       id="g142"
       transform="matrix(0.57544839,0,0,0.57544839,8.9232126,141.95202)"><g
         id="g144"
         clip-path="url(#clipPath148)" /></g><path
       d="m 224.73938,163.82827 v -2.01408"
       style="fill:#000000;fill-opacity:1;fill-rule:nonzero;stroke:#000000;stroke-width:0.460358;stroke-linecap:butt;stroke-linejoin:round;stroke-miterlimit:10;stroke-dasharray:none;stroke-opacity:1"
       id="path154" /><text
       transform="scale(1,-1)"
       style="font-variant:normal;font-weight:normal;font-size:5.75448px;font-family:'DejaVu Sans';-inkscape-font-specification:DejaVuSans;writing-mode:lr-tb;fill:#000000;fill-opacity:1;fill-rule:nonzero;stroke:none;stroke-width:0.575448"
       id="text158"
       x="220.16278"
       y="-155.43028"><tspan
         x="220.16278 223.82262 225.65253"
         y="-155.43028"
         sodipodi:role="line"
         id="tspan156"
         style="stroke-width:0.575448">1.4</tspan></text><text
       transform="scale(1,-1)"
       style="font-variant:normal;font-weight:normal;font-size:5.75448px;font-family:'DejaVu Sans';-inkscape-font-specification:DejaVuSans;writing-mode:lr-tb;fill:#000000;fill-opacity:1;fill-rule:nonzero;stroke:none;stroke-width:0.575448"
       id="text162"
       x="109.993"
       y="-147.56282"><tspan
         x="109.993 114.45272 117.99173 121.64005 125.16181 130.76668 132.36642 135.53139 137.36131 141.0154 142.61516 145.61324 147.869 151.39651 155.04483 158.20982 161.74883 163.57874 165.51799 167.34793 172.31406 175.96814"
         y="-147.56282"
         sodipodi:role="line"
         id="tspan160"
         style="stroke-width:0.575448">Genomic distance / Mbp</tspan></text><g
       id="g164"
       transform="matrix(0.57544839,0,0,0.57544839,8.9232126,141.95202)"><g
         id="g166"
         clip-path="url(#clipPath170)" /></g><path
       d="M 42.06904,163.82827 H 40.054971"
       style="fill:#000000;fill-opacity:1;fill-rule:nonzero;stroke:#000000;stroke-width:0.460358;stroke-linecap:butt;stroke-linejoin:round;stroke-miterlimit:10;stroke-dasharray:none;stroke-opacity:1"
       id="path176" /><g
       id="g182"
       transform="matrix(0.57544839,0,0,0.57544839,8.9232126,141.95202)"><g
         id="g184"
         clip-path="url(#clipPath188)" /></g><path
       d="M 42.06904,194.45501 H 40.054971"
       style="fill:#000000;fill-opacity:1;fill-rule:nonzero;stroke:#000000;stroke-width:0.460358;stroke-linecap:butt;stroke-linejoin:round;stroke-miterlimit:10;stroke-dasharray:none;stroke-opacity:1"
       id="path194" /><g
       id="g200"
       transform="matrix(0.57544839,0,0,0.57544839,8.9232126,141.95202)"><g
         id="g202"
         clip-path="url(#clipPath206)" /></g><path
       d="M 42.06904,225.08176 H 40.054971"
       style="fill:#000000;fill-opacity:1;fill-rule:nonzero;stroke:#000000;stroke-width:0.460358;stroke-linecap:butt;stroke-linejoin:round;stroke-miterlimit:10;stroke-dasharray:none;stroke-opacity:1"
       id="path212" /><g
       id="g218"
       transform="matrix(0.57544839,0,0,0.57544839,8.9232126,141.95202)"><g
         id="g220"
         clip-path="url(#clipPath224)" /></g><path
       d="M 42.06904,255.7085 H 40.054971"
       style="fill:#000000;fill-opacity:1;fill-rule:nonzero;stroke:#000000;stroke-width:0.460358;stroke-linecap:butt;stroke-linejoin:round;stroke-miterlimit:10;stroke-dasharray:none;stroke-opacity:1"
       id="path230" /><g
       id="g236"
       transform="matrix(0.57544839,0,0,0.57544839,8.9232126,141.95202)"><g
         id="g238"
         clip-path="url(#clipPath242)" /></g><path
       d="M 42.06904,286.33525 H 40.054971"
       style="fill:#000000;fill-opacity:1;fill-rule:nonzero;stroke:#000000;stroke-width:0.460358;stroke-linecap:butt;stroke-linejoin:round;stroke-miterlimit:10;stroke-dasharray:none;stroke-opacity:1"
       id="path248" /><g
       id="g254"
       transform="matrix(0.57544839,0,0,0.57544839,8.9232126,141.95202)"><g
         id="g256"
         clip-path="url(#clipPath260)" /></g><path
       d="M 42.06904,316.96199 H 40.054971"
       style="fill:#000000;fill-opacity:1;fill-rule:nonzero;stroke:#000000;stroke-width:0.460358;stroke-linecap:butt;stroke-linejoin:round;stroke-miterlimit:10;stroke-dasharray:none;stroke-opacity:1"
       id="path266" /><g
       id="g278"
       clip-path="url(#clipPath282)"
       transform="matrix(0.57544839,0,0,0.57544839,8.9232126,141.95202)"><path
         d="m 57.6,64.522832 5.668571,30.57517 5.668572,16.682518 5.668571,3.40716 5.668572,7.8073 5.668571,7.24627 5.668572,4.20082 5.668571,1.48887 5.66857,-0.78153 5.66857,1.07108 5.66857,5.02266 5.66858,3.75367 5.66857,1.50824 5.66857,0.15086 5.66857,0.12982 5.66857,-1.24422 5.66857,7.42866 5.66857,7.75239 5.66858,0.88214 5.66857,-6.55489 5.66857,-7.16746 5.66857,-8.6307 5.66857,3.60166 5.66857,-0.93068 5.66857,8.08852 5.66858,-1.83537 5.66857,-0.0617 5.66857,-7.95953 5.66857,1.40802 5.66857,-1.84513 5.66857,-2.85635 5.66857,-3.20013 5.66858,-4.56749 5.66857,-3.47139 5.66857,-4.45699 5.66857,-1.87862 5.66857,-2.44691 5.66857,-1.3707 5.66857,-5.37206 5.66858,-3.16253 5.66857,-3.22912 5.66857,-0.74777 5.66857,-5.020025 5.66857,-5.973211 5.66857,-2.224879 5.66857,-2.179907 5.66858,-2.039834 5.66857,4.140807 5.66857,-3.691073 5.66857,-3.944651 5.66857,-3.631596 5.66857,-4.09359 5.66857,-4.136625 5.66858,-3.323492 5.66857,-5.682117 5.66857,-1.14163 5.66857,-3.881461 5.66857,-0.813174 5.66857,-9.815777 5.66857,4.597898 5.66858,-4.478758 5.66857,2.147011 5.66857,-2.812712 5.66857,0.674937"
         style="fill:none;stroke:#1f77b4;stroke-width:1.5;stroke-linecap:square;stroke-linejoin:round;stroke-miterlimit:10;stroke-dasharray:none;stroke-opacity:1"
         id="path284" /></g><g
       id="g288"
       clip-path="url(#clipPath292)"
       transform="matrix(0.57544839,0,0,0.57544839,8.9232126,141.95202)"><path
         d="m 57.6,116.34762 5.668571,23.68242 5.668572,7.048 5.668571,2.4699 5.668572,4.71408 5.668571,5.18918 5.668572,5.30846 5.668571,0.15459 5.66857,1.16101 5.66857,-0.48624 5.66857,4.29599 5.66858,6.90505 5.66857,0.7009 5.66857,-4.77095 5.66857,0.0974 5.66857,-1.74878 5.66857,9.06695 5.66857,8.43415 5.66858,1.12916 5.66857,-5.68 5.66857,-8.59715 5.66857,-14.23795 5.66857,-1.17811 5.66857,0.28298 5.66857,4.07286 5.66858,-1.95922 5.66857,-8.28145 5.66857,-8.95629 5.66857,-2.2205 5.66857,-2.27475 5.66857,-3.54006 5.66857,-6.87618 5.66858,-5.20815 5.66857,0.48429 5.66857,-6.13451 5.66857,0.55689 5.66857,1.42891 5.66857,-0.0767 5.66857,-5.70736 5.66858,-3.04646 5.66857,-2.20789 5.66857,-1.62443 5.66857,-7.69329 5.66857,-9.474513 5.66857,-3.946094 5.66857,-3.663292 5.66858,0.179965 5.66857,5.314411 5.66857,-1.574866 5.66857,0.30612 5.66857,2.993836 5.66857,-1.70372 5.66857,-2.254556 5.66858,-2.031233 5.66857,-3.122862 5.66857,7.016031 5.66857,-0.513794 5.66857,-1.218942 5.66857,-7.162051 5.66857,2.78195 5.66858,1.67613 5.66857,2.992429 5.66857,-4.34404 5.66857,2.621309"
         style="fill:none;stroke:#ff7f0e;stroke-width:1.5;stroke-linecap:square;stroke-linejoin:round;stroke-miterlimit:10;stroke-dasharray:none;stroke-opacity:1"
         id="path294" /></g><g
       id="g298"
       clip-path="url(#clipPath302)"
       transform="matrix(0.57544839,0,0,0.57544839,8.9232126,141.95202)"><path
         d="m 57.6,134.92036 5.668571,16.44519 5.668572,5.84944 5.668571,2.61937 5.668572,6.11699 5.668571,5.4213 5.668572,4.24877 5.668571,0.39017 5.66857,1.96715 5.66857,-2.56573 5.66857,4.49207 5.66858,6.15552 5.66857,-3.31267 5.66857,-3.86848 5.66857,1.21983 5.66857,-1.75038 5.66857,7.96219 5.66857,8.56477 5.66858,5.32239 5.66857,-4.31409 5.66857,-10.61146 5.66857,-13.84811 5.66857,-3.21835 5.66857,-1.92595 5.66857,3.35959 5.66858,-4.65602 5.66857,-5.54055 5.66857,-10.24542 5.66857,-5.28867 5.66857,-1.78976 5.66857,-4.25052 5.66857,-3.5958 5.66858,-7.7511 5.66857,1.86096 5.66857,-5.81841 5.66857,0.98995 5.66857,-0.28533 5.66857,0.64903 5.66857,-5.18963 5.66858,-1.59157 5.66857,-2.09702 5.66857,-0.5595 5.66857,-4.6743 5.66857,-6.78682 5.66857,-4.161625 5.66857,-2.892989 5.66858,0.762526 5.66857,7.613478 5.66857,-3.41978 5.66857,2.71815 5.66857,2.45334 5.66857,-4.0274 5.66857,-2.440964 5.66858,-2.146265 5.66857,-4.278198 5.66857,7.481187 5.66857,-1.193799 5.66857,-0.71926 5.66857,-9.437564 5.66857,4.958983 5.66858,-2.352905 5.66857,-2.493667 5.66857,1.713499 5.66857,5.193554"
         style="fill:none;stroke:#2ca02c;stroke-width:1.5;stroke-linecap:square;stroke-linejoin:round;stroke-miterlimit:10;stroke-dasharray:none;stroke-opacity:1"
         id="path304" /></g><g
       id="g308"
       clip-path="url(#clipPath312)"
       style="stroke:#8c564b;stroke-opacity:1"
       transform="matrix(0.57544839,0,0,0.57544839,8.9232126,141.95202)"><path
         d="m 57.6,158.85167 5.668571,13.87573 5.668572,6.00401 5.668571,1.49582 5.668572,5.54087 5.668571,4.57656 5.668572,3.88676 5.668571,-1.25253 5.66857,0.4278 5.66857,-0.73715 5.66857,2.60529 5.66858,4.8766 5.66857,-3.91789 5.66857,-3.71619 5.66857,0.64939 5.66857,-3.33297 5.66857,7.59242 5.66857,9.98287 5.66858,6.49857 5.66857,-3.44138 5.66857,-9.28244 5.66857,-12.63499 5.66857,-3.04897 5.66857,-0.95178 5.66857,3.3554 5.66858,0.90252 5.66857,-3.0232 5.66857,-11.96903 5.66857,-7.36611 5.66857,-3.45539 5.66857,-4.61968 5.66857,-5.24198 5.66858,-13.74765 5.66857,2.26458 5.66857,-5.12783 5.66857,0.55765 5.66857,0.30983 5.66857,2.25798 5.66857,-6.658 5.66858,2.51087 5.66857,-4.96303 5.66857,1.94291 5.66857,-4.30503 5.66857,-7.74662 5.66857,-4.86218 5.66857,-3.43015 5.66858,0.89059 5.66857,8.32671 5.66857,-1.50755 5.66857,1.78947 5.66857,1.43396 5.66857,-5.77427 5.66857,-2.23857 5.66858,-1.9136 5.66857,-6.39032 5.66857,3.97291 5.66857,-1.58413 5.66857,-2.13597 5.66857,-5.3629 5.66857,1.24482 5.66858,0.68092 5.66857,-0.0396 5.66857,2.59948 5.66857,10.14718"
         style="fill:none;stroke:#8c564b;stroke-width:1.5;stroke-linecap:square;stroke-linejoin:round;stroke-miterlimit:10;stroke-dasharray:none;stroke-opacity:1"
         id="path314" /></g><g
       id="g318"
       clip-path="url(#clipPath322)"
       transform="matrix(0.57544839,0,0,0.57544839,8.9232126,141.95202)"><path
         d="m 57.6,160.33696 5.668571,10.97961 5.668572,4.55366 5.668571,5.92672 5.668572,4.63315 5.668571,5.09898 5.668572,2.3401 5.668571,-0.59733 5.66857,0.44728 5.66857,-2.16903 5.66857,2.17439 5.66858,5.69008 5.66857,-3.12042 5.66857,-4.65561 5.66857,-1.00622 5.66857,-4.79936 5.66857,5.95547 5.66857,9.18461 5.66858,5.50054 5.66857,-4.62389 5.66857,-8.79013 5.66857,-13.23277 5.66857,-4.64602 5.66857,0.68456 5.66857,2.04912 5.66858,1.13375 5.66857,-2.45655 5.66857,-11.45106 5.66857,-11.10126 5.66857,-5.40919 5.66857,-3.87099 5.66857,-0.49658 5.66858,-14.07938 5.66857,1.06776 5.66857,-2.35779 5.66857,2.25227 5.66857,-0.30185 5.66857,2.61827 5.66857,-4.96527 5.66858,5.96168 5.66857,-4.22926 5.66857,-0.25821 5.66857,-3.53991 5.66857,-7.91007 5.66857,-6.49811 5.66857,-4.99659 5.66858,0.26731 5.66857,8.4803 5.66857,2.21177 5.66857,1.34655 5.66857,5.8287 5.66857,-0.36537 5.66857,-7.17886 5.66858,-5.5615 5.66857,-6.18865 5.66857,0.57815 5.66857,1.033 5.66857,-3.1988 5.66857,-6.1437 5.66857,-0.08524 5.66858,1.411318 5.66857,3.830842 5.66857,1.63241 5.66857,8.07047"
         style="fill:none;stroke:#9467bd;stroke-width:1.5;stroke-linecap:square;stroke-linejoin:round;stroke-miterlimit:10;stroke-dasharray:none;stroke-opacity:1"
         id="path324" /></g><path
       d="M 42.06904,163.82827 V 316.96199"
       style="fill:none;stroke:#000000;stroke-width:0.460358;stroke-linecap:square;stroke-linejoin:miter;stroke-miterlimit:10;stroke-dasharray:none;stroke-opacity:1"
       id="path338" /><path
       d="M 247.57317,163.82827 V 316.96199"
       style="fill:none;stroke:#000000;stroke-width:0.460358;stroke-linecap:square;stroke-linejoin:miter;stroke-miterlimit:10;stroke-dasharray:none;stroke-opacity:1"
       id="path340" /><path
       d="M 42.06904,163.82827 H 247.57317"
       style="fill:none;stroke:#000000;stroke-width:0.460358;stroke-linecap:square;stroke-linejoin:miter;stroke-miterlimit:10;stroke-dasharray:none;stroke-opacity:1"
       id="path342" /><path
       d="M 42.06904,316.96199 H 247.57317"
       style="fill:none;stroke:#000000;stroke-width:0.460358;stroke-linecap:square;stroke-linejoin:miter;stroke-miterlimit:10;stroke-dasharray:none;stroke-opacity:1"
       id="path344" /><path
       d="M 57.618197,205.10936 H 69.127165"
       style="fill:none;stroke:#1f77b4;stroke-width:0.863172;stroke-linecap:square;stroke-linejoin:round;stroke-miterlimit:10;stroke-dasharray:none;stroke-opacity:1"
       id="path354" /><path
       d="M 57.618197,197.88129 H 69.127165"
       style="fill:none;stroke:#ff7f0e;stroke-width:0.863172;stroke-linecap:square;stroke-linejoin:round;stroke-miterlimit:10;stroke-dasharray:none;stroke-opacity:1"
       id="path360" /><path
       d="M 57.618197,190.65322 H 69.127165"
       style="fill:none;stroke:#2ca02c;stroke-width:0.863172;stroke-linecap:square;stroke-linejoin:round;stroke-miterlimit:10;stroke-dasharray:none;stroke-opacity:1"
       id="path366" /><path
       d="M 57.618197,183.42515 H 69.127165"
       style="fill:none;stroke:#8c564b;stroke-width:0.863172;stroke-linecap:square;stroke-linejoin:round;stroke-miterlimit:10;stroke-dasharray:none;stroke-opacity:1"
       id="path372" /><path
       d="M 57.618197,176.19708 H 69.127165"
       style="fill:none;stroke:#9467bd;stroke-width:0.863172;stroke-linecap:square;stroke-linejoin:round;stroke-miterlimit:10;stroke-dasharray:none;stroke-opacity:1"
       id="path378" /><path
       d="M 57.618197,168.96902 H 69.127165"
       style="fill:none;stroke:#d62728;stroke-width:0.863172;stroke-linecap:square;stroke-linejoin:round;stroke-miterlimit:10;stroke-dasharray:none;stroke-opacity:1"
       id="path384" /></g><g
     inkscape:groupmode="layer"
     id="layer1"
     inkscape:label="text"
     style="display:inline"
     transform="translate(-28.023958,-17.206424)"><text
       style="font-variant:normal;font-weight:normal;font-size:7.67265px;font-family:'DejaVu Sans';-inkscape-font-specification:DejaVuSans;writing-mode:lr-tb;fill:#000000;fill-opacity:1;fill-rule:nonzero;stroke:none;stroke-width:0.767265"
       id="text180"
       x="38.516895"
       y="245.27551"><tspan
         x="38.516895 43.396702 45.836601"
         y="245.27551"
         sodipodi:role="line"
         id="tspan178"
         style="stroke-width:0.767265">0.0</tspan></text><text
       style="font-variant:normal;font-weight:normal;font-size:7.67265px;font-family:'DejaVu Sans';-inkscape-font-specification:DejaVuSans;writing-mode:lr-tb;fill:#000000;fill-opacity:1;fill-rule:nonzero;stroke:none;stroke-width:0.767265"
       id="text198"
       x="38.516895"
       y="204.43985"><tspan
         x="38.516895 43.396702 45.836601"
         y="204.43985"
         sodipodi:role="line"
         id="tspan196"
         style="stroke-width:0.767265">0.2</tspan></text><text
       style="font-variant:normal;font-weight:normal;font-size:7.67265px;font-family:'DejaVu Sans';-inkscape-font-specification:DejaVuSans;writing-mode:lr-tb;fill:#000000;fill-opacity:1;fill-rule:nonzero;stroke:none;stroke-width:0.767265"
       id="text216"
       x="38.516895"
       y="163.60419"><tspan
         x="38.516895 43.396702 45.836601"
         y="163.60419"
         sodipodi:role="line"
         id="tspan214"
         style="stroke-width:0.767265">0.4</tspan></text><text
       style="font-variant:normal;font-weight:normal;font-size:7.67265px;font-family:'DejaVu Sans';-inkscape-font-specification:DejaVuSans;writing-mode:lr-tb;fill:#000000;fill-opacity:1;fill-rule:nonzero;stroke:none;stroke-width:0.767265"
       id="text234"
       x="38.516895"
       y="122.76854"><tspan
         x="38.516895 43.396702 45.836601"
         y="122.76854"
         sodipodi:role="line"
         id="tspan232"
         style="stroke-width:0.767265">0.6</tspan></text><text
       style="font-variant:normal;font-weight:normal;font-size:7.67265px;font-family:'DejaVu Sans';-inkscape-font-specification:DejaVuSans;writing-mode:lr-tb;fill:#000000;fill-opacity:1;fill-rule:nonzero;stroke:none;stroke-width:0.767265"
       id="text252"
       x="38.516895"
       y="81.93293"><tspan
         x="38.516895 43.396702 45.836601"
         y="81.93293"
         sodipodi:role="line"
         id="tspan250"
         style="stroke-width:0.767265">0.8</tspan></text><text
       style="font-variant:normal;font-weight:normal;font-size:7.67265px;font-family:'DejaVu Sans';-inkscape-font-specification:DejaVuSans;writing-mode:lr-tb;fill:#000000;fill-opacity:1;fill-rule:nonzero;stroke:none;stroke-width:0.767265"
       id="text270"
       x="38.516895"
       y="41.097275"><tspan
         x="38.516895 43.396702 45.836601"
         y="41.097275"
         sodipodi:role="line"
         id="tspan268"
         style="stroke-width:0.767265">1.0</tspan></text><text
       transform="rotate(-90)"
       style="font-variant:normal;font-weight:normal;font-size:7.67265px;font-family:'DejaVu Sans';-inkscape-font-specification:DejaVuSans;writing-mode:lr-tb;fill:#000000;fill-opacity:1;fill-rule:nonzero;stroke:none;stroke-width:0.767265"
       id="text274"
       x="-177.34161"
       y="33.853371"><tspan
         x="-177.34161 -172.71501 -167.99634 -163.293 -160.13954 -156.14211 -151.44644 -146.58199 -144.14209 -139.92213 -135.22647 -132.07301 -128.91954 -124.20089 -122.06791 -117.36461 -114.35694 -112.22387 -107.52826"
         y="33.853371"
         sodipodi:role="line"
         id="tspan272"
         style="stroke-width:0.767265">Pearson correlation</tspan></text><text
       style="font-variant:normal;font-weight:normal;font-size:9.20718px;font-family:'DejaVu Sans';-inkscape-font-specification:DejaVuSans;writing-mode:lr-tb;fill:#000000;fill-opacity:1;fill-rule:nonzero;stroke:none;stroke-width:0.767265"
       id="text348"
       x="98.343628"
       y="23.260761"><tspan
         x="98.343628 103.89555 109.55797 115.20197 118.98611 123.78306 129.41785 135.25519 138.18306 143.24702 148.88181 152.66595 156.4501 162.11252 164.67212 170.31612 173.92532 176.48491 182.11971 187.95705 190.88493 196.3356 201.13252 204.06041 206.9883 212.83484 218.49725 224.33458 229.96941 238.93718 241.49677 246.56071 249.4886 255.33516 257.89474 262.69168 266.3009 271.94489 277.78223 282.84619"
         y="23.260761"
         sodipodi:role="line"
         id="tspan346"
         style="stroke-width:0.767265">Pearson correlation vs. genomic distance</tspan></text><text
       style="font-variant:normal;font-weight:normal;font-size:9.20718px;font-family:'DejaVu Sans';-inkscape-font-specification:DejaVuSans;writing-mode:lr-tb;fill:#000000;fill-opacity:1;fill-rule:nonzero;stroke:none;stroke-width:0.767265"
       id="text352"
       x="61.06805"
       y="33.580482"><tspan
         x="61.06805 68.203606 76.149406 82.005165 87.860924 93.716682 99.572449 105.42821 108.3561 111.28397 117.13974 120.06763 125.92339 128.85126 134.70703 137.63492 143.49068 146.41855 152.27432 155.20219 161.05795 166.91373 169.84161 175.69736 181.55312 184.48102 190.33678 196.19254 199.12041 204.97618 210.83194 213.75983 219.61559 225.47136 228.39923 234.255 240.11076 243.03865 248.89439 254.75017 257.67804 263.53381 269.38959 272.31744 277.95227 283.78961 286.71747 292.75739 298.61316 304.4689 310.32471 313.25253 316.18045 322.03619"
         y="33.580482"
         sodipodi:role="line"
         id="tspan350"
         style="stroke-width:0.767265">GM12878, 1,2,4,7,9,11,13,14,16,17,18,20,22 on K562, 21</tspan></text><text
       style="font-variant:normal;font-weight:normal;font-size:7.67263px;font-family:'DejaVu Sans';-inkscape-font-specification:DejaVuSans;writing-mode:lr-tb;fill:#000000;fill-opacity:1;fill-rule:nonzero;stroke:none;stroke-width:0.767263"
       id="text358"
       x="96.976898"
       y="190.00626"><tspan
         x="96.976898 101.85668 106.7365 109.17638 113.89507 118.76719 121.20708 123.79276 126.2327 131.4809 137.09729 142.45277 145.03845 147.47836 152.35814 154.79805 159.67787 164.55768"
         y="190.00626"
         sodipodi:role="line"
         id="tspan356"
         style="stroke-width:0.767263">20 ep / AUC: 0.275</tspan></text><text
       style="font-variant:normal;font-weight:normal;font-size:7.67263px;font-family:'DejaVu Sans';-inkscape-font-specification:DejaVuSans;writing-mode:lr-tb;fill:#000000;fill-opacity:1;fill-rule:nonzero;stroke:none;stroke-width:0.767263"
       id="text364"
       x="96.976898"
       y="199.64368"><tspan
         x="96.976898 101.85668 106.7365 109.17638 113.89507 118.76719 121.20708 123.79276 126.2327 131.4809 137.09729 142.45277 145.03845 147.47836 152.35814 154.79805 159.67787 164.55768"
         y="199.64368"
         sodipodi:role="line"
         id="tspan362"
         style="stroke-width:0.767263">40 ep / AUC: 0.343</tspan></text><text
       style="font-variant:normal;font-weight:normal;font-size:7.67263px;font-family:'DejaVu Sans';-inkscape-font-specification:DejaVuSans;writing-mode:lr-tb;fill:#000000;fill-opacity:1;fill-rule:nonzero;stroke:none;stroke-width:0.767263"
       id="text370"
       x="96.976898"
       y="209.2811"><tspan
         x="96.976898 101.85668 106.7365 109.17638 113.89507 118.76719 121.20708 123.79276 126.2327 131.4809 137.09729 142.45277 145.03845 147.47836 152.35814 154.79805 159.67787 164.55768"
         y="209.2811"
         sodipodi:role="line"
         id="tspan368"
         style="stroke-width:0.767263">60 ep / AUC: 0.374</tspan></text><text
       style="font-variant:normal;font-weight:normal;font-size:7.67263px;font-family:'DejaVu Sans';-inkscape-font-specification:DejaVuSans;writing-mode:lr-tb;fill:#000000;fill-opacity:1;fill-rule:nonzero;stroke:none;stroke-width:0.767263"
       id="text376"
       x="96.976898"
       y="218.91853"><tspan
         x="96.976898 101.85668 106.7365 109.17638 113.89507 118.76719 121.20708 123.79276 126.2327 131.4809 137.09729 142.45277 145.03845 147.47836 152.35814 154.79805 159.67787 164.55768"
         y="218.91853"
         sodipodi:role="line"
         id="tspan374"
         style="stroke-width:0.767263">80 ep / AUC: 0.435</tspan></text><text
       style="font-variant:normal;font-weight:normal;font-size:7.67263px;font-family:'DejaVu Sans';-inkscape-font-specification:DejaVuSans;writing-mode:lr-tb;fill:#000000;fill-opacity:1;fill-rule:nonzero;stroke:none;stroke-width:0.767263"
       id="text382"
       x="96.976898"
       y="228.55595"><tspan
         x="96.976898 101.85668 106.7365 111.61629 114.05618 118.77487 123.64699 126.0869 128.6727 131.11259 136.36069 141.97707 147.33258 149.91826 152.35814 157.23798 159.67787 164.55768 169.43748"
         y="228.55595"
         sodipodi:role="line"
         id="tspan380"
         style="stroke-width:0.767263">100 ep / AUC: 0.420</tspan></text><text
       style="font-variant:normal;font-weight:normal;font-size:7.67263px;font-family:'DejaVu Sans';-inkscape-font-specification:DejaVuSans;writing-mode:lr-tb;fill:#000000;fill-opacity:1;fill-rule:nonzero;stroke:none;stroke-width:0.767263"
       id="text388"
       x="96.976898"
       y="238.19339"><tspan
         x="96.976898 99.984573 103.13801 107.84135 112.7058 116.70325 119.40401 124.1227 127.27621 129.71617 135.66248 142.28397 147.16379 152.04356 156.92339 161.80319 166.68301 169.12289 171.70857 174.14848 179.39656 185.01295 190.36845 192.95413 195.39404 200.27383 202.71373 207.59351 212.47334"
         y="238.19339"
         sodipodi:role="line"
         id="tspan386"
         style="stroke-width:0.767263">transfer GM12878 / AUC: 0.864</tspan></text></g></svg>
