<?xml version="1.0" encoding="UTF-8" standalone="no"?>
<svg
   xmlns:dc="http://purl.org/dc/elements/1.1/"
   xmlns:cc="http://creativecommons.org/ns#"
   xmlns:rdf="http://www.w3.org/1999/02/22-rdf-syntax-ns#"
   xmlns:svg="http://www.w3.org/2000/svg"
   xmlns="http://www.w3.org/2000/svg"
   xmlns:sodipodi="http://sodipodi.sourceforge.net/DTD/sodipodi-0.dtd"
   xmlns:inkscape="http://www.inkscape.org/namespaces/inkscape"
   version="1.1"
   id="svg2"
   xml:space="preserve"
   width="80mm"
   height="65.300003mm"
   viewBox="0 0 302.36219 246.80316"
   sodipodi:docname="pearson_chr05.svg"
   inkscape:version="1.0.2 (1.0.2+r75+1)"><metadata
     id="metadata8"><rdf:RDF><cc:Work
         rdf:about=""><dc:format>image/svg+xml</dc:format><dc:type
           rdf:resource="http://purl.org/dc/dcmitype/StillImage" /><dc:title /></cc:Work></rdf:RDF></metadata><defs
     id="defs6"><clipPath
       clipPathUnits="userSpaceOnUse"
       id="clipPath22"><path
         d="M 57.6,38.016 H 414.72 V 304.128 H 57.6 Z"
         id="path20" /></clipPath><clipPath
       clipPathUnits="userSpaceOnUse"
       id="clipPath40"><path
         d="M 57.6,38.016 H 414.72 V 304.128 H 57.6 Z"
         id="path38" /></clipPath><clipPath
       clipPathUnits="userSpaceOnUse"
       id="clipPath58"><path
         d="M 57.6,38.016 H 414.72 V 304.128 H 57.6 Z"
         id="path56" /></clipPath><clipPath
       clipPathUnits="userSpaceOnUse"
       id="clipPath76"><path
         d="M 57.6,38.016 H 414.72 V 304.128 H 57.6 Z"
         id="path74" /></clipPath><clipPath
       clipPathUnits="userSpaceOnUse"
       id="clipPath94"><path
         d="M 57.6,38.016 H 414.72 V 304.128 H 57.6 Z"
         id="path92" /></clipPath><clipPath
       clipPathUnits="userSpaceOnUse"
       id="clipPath112"><path
         d="M 57.6,38.016 H 414.72 V 304.128 H 57.6 Z"
         id="path110" /></clipPath><clipPath
       clipPathUnits="userSpaceOnUse"
       id="clipPath130"><path
         d="M 57.6,38.016 H 414.72 V 304.128 H 57.6 Z"
         id="path128" /></clipPath><clipPath
       clipPathUnits="userSpaceOnUse"
       id="clipPath148"><path
         d="M 57.6,38.016 H 414.72 V 304.128 H 57.6 Z"
         id="path146" /></clipPath><clipPath
       clipPathUnits="userSpaceOnUse"
       id="clipPath170"><path
         d="M 57.6,38.016 H 414.72 V 304.128 H 57.6 Z"
         id="path168" /></clipPath><clipPath
       clipPathUnits="userSpaceOnUse"
       id="clipPath188"><path
         d="M 57.6,38.016 H 414.72 V 304.128 H 57.6 Z"
         id="path186" /></clipPath><clipPath
       clipPathUnits="userSpaceOnUse"
       id="clipPath206"><path
         d="M 57.6,38.016 H 414.72 V 304.128 H 57.6 Z"
         id="path204" /></clipPath><clipPath
       clipPathUnits="userSpaceOnUse"
       id="clipPath224"><path
         d="M 57.6,38.016 H 414.72 V 304.128 H 57.6 Z"
         id="path222" /></clipPath><clipPath
       clipPathUnits="userSpaceOnUse"
       id="clipPath242"><path
         d="M 57.6,38.016 H 414.72 V 304.128 H 57.6 Z"
         id="path240" /></clipPath><clipPath
       clipPathUnits="userSpaceOnUse"
       id="clipPath260"><path
         d="M 57.6,38.016 H 414.72 V 304.128 H 57.6 Z"
         id="path258" /></clipPath><clipPath
       clipPathUnits="userSpaceOnUse"
       id="clipPath282"><path
         d="M 57.6,38.016 H 414.72 V 304.128 H 57.6 Z"
         id="path280" /></clipPath><clipPath
       clipPathUnits="userSpaceOnUse"
       id="clipPath292"><path
         d="M 57.6,38.016 H 414.72 V 304.128 H 57.6 Z"
         id="path290" /></clipPath><clipPath
       clipPathUnits="userSpaceOnUse"
       id="clipPath302"><path
         d="M 57.6,38.016 H 414.72 V 304.128 H 57.6 Z"
         id="path300" /></clipPath><clipPath
       clipPathUnits="userSpaceOnUse"
       id="clipPath312"><path
         d="M 57.6,38.016 H 414.72 V 304.128 H 57.6 Z"
         id="path310" /></clipPath><clipPath
       clipPathUnits="userSpaceOnUse"
       id="clipPath322"><path
         d="M 57.6,38.016 H 414.72 V 304.128 H 57.6 Z"
         id="path320" /></clipPath><clipPath
       clipPathUnits="userSpaceOnUse"
       id="clipPath332"><path
         d="M 57.6,38.016 H 414.72 V 304.128 H 57.6 Z"
         id="path330" /></clipPath></defs><sodipodi:namedview
     pagecolor="#ffffff"
     bordercolor="#666666"
     borderopacity="1"
     objecttolerance="10"
     gridtolerance="10"
     guidetolerance="10"
     inkscape:pageopacity="0"
     inkscape:pageshadow="2"
     inkscape:window-width="1920"
     inkscape:window-height="1020"
     id="namedview4"
     showgrid="false"
     fit-margin-top="0"
     fit-margin-left="0"
     fit-margin-right="0"
     fit-margin-bottom="0"
     units="mm"
     inkscape:zoom="3.7196182"
     inkscape:cx="93.745472"
     inkscape:cy="91.203331"
     inkscape:window-x="0"
     inkscape:window-y="0"
     inkscape:window-maximized="1"
     inkscape:current-layer="g10"
     inkscape:document-rotation="0" /><g
     id="g10"
     inkscape:groupmode="layer"
     inkscape:label="pearson_chr05"
     transform="matrix(1.3333333,0,0,-1.3333333,-28.023958,443.59358)"><path
       d="M 57.6,38.016 V 304.128"
       style="fill:none;stroke:#b0b0b0;stroke-width:0.8;stroke-linecap:square;stroke-linejoin:round;stroke-miterlimit:10;stroke-dasharray:none;stroke-opacity:1"
       id="path24"
       transform="matrix(0.57547787,0,0,0.57547787,8.9225927,141.98491)" /><path
       d="M 102.94857,38.016 V 304.128"
       style="fill:none;stroke:#b0b0b0;stroke-width:0.8;stroke-linecap:square;stroke-linejoin:round;stroke-miterlimit:10;stroke-dasharray:none;stroke-opacity:1"
       id="path42"
       transform="matrix(0.57547787,0,0,0.57547787,8.9225927,141.98491)" /><path
       d="M 148.29714,38.016 V 304.128"
       style="fill:none;stroke:#b0b0b0;stroke-width:0.8;stroke-linecap:square;stroke-linejoin:round;stroke-miterlimit:10;stroke-dasharray:none;stroke-opacity:1"
       id="path60"
       transform="matrix(0.57547787,0,0,0.57547787,8.9225927,141.98491)" /><path
       d="M 193.64571,38.016 V 304.128"
       style="fill:none;stroke:#b0b0b0;stroke-width:0.8;stroke-linecap:square;stroke-linejoin:round;stroke-miterlimit:10;stroke-dasharray:none;stroke-opacity:1"
       id="path78"
       transform="matrix(0.57547787,0,0,0.57547787,8.9225927,141.98491)" /><path
       d="M 146.45852,163.86228 V 317.00384"
       style="fill:none;stroke:#b0b0b0;stroke-width:0.460382;stroke-linecap:square;stroke-linejoin:round;stroke-miterlimit:10;stroke-dasharray:none;stroke-opacity:1"
       id="path96" /><path
       d="M 284.34286,38.016 V 304.128"
       style="fill:none;stroke:#b0b0b0;stroke-width:0.8;stroke-linecap:square;stroke-linejoin:round;stroke-miterlimit:10;stroke-dasharray:none;stroke-opacity:1"
       id="path114"
       transform="matrix(0.57547787,0,0,0.57547787,8.9225927,141.98491)" /><path
       d="M 329.69143,38.016 V 304.128"
       style="fill:none;stroke:#b0b0b0;stroke-width:0.8;stroke-linecap:square;stroke-linejoin:round;stroke-miterlimit:10;stroke-dasharray:none;stroke-opacity:1"
       id="path132"
       transform="matrix(0.57547787,0,0,0.57547787,8.9225927,141.98491)" /><path
       d="M 375.04,38.016 V 304.128"
       style="fill:none;stroke:#b0b0b0;stroke-width:0.8;stroke-linecap:square;stroke-linejoin:round;stroke-miterlimit:10;stroke-dasharray:none;stroke-opacity:1"
       id="path150"
       transform="matrix(0.57547787,0,0,0.57547787,8.9225927,141.98491)" /><path
       d="M 57.6,38.016 H 414.72"
       style="fill:none;stroke:#b0b0b0;stroke-width:0.8;stroke-linecap:square;stroke-linejoin:round;stroke-miterlimit:10;stroke-dasharray:none;stroke-opacity:1"
       id="path172"
       transform="matrix(0.57547787,0,0,0.57547787,8.9225927,141.98491)" /><path
       d="M 57.6,91.2384 H 414.72"
       style="fill:none;stroke:#b0b0b0;stroke-width:0.8;stroke-linecap:square;stroke-linejoin:round;stroke-miterlimit:10;stroke-dasharray:none;stroke-opacity:1"
       id="path190"
       transform="matrix(0.57547787,0,0,0.57547787,8.9225927,141.98491)" /><path
       d="M 57.6,144.4608 H 414.72"
       style="fill:none;stroke:#b0b0b0;stroke-width:0.8;stroke-linecap:square;stroke-linejoin:round;stroke-miterlimit:10;stroke-dasharray:none;stroke-opacity:1"
       id="path208"
       transform="matrix(0.57547787,0,0,0.57547787,8.9225927,141.98491)" /><path
       d="M 57.6,197.6832 H 414.72"
       style="fill:none;stroke:#b0b0b0;stroke-width:0.8;stroke-linecap:square;stroke-linejoin:round;stroke-miterlimit:10;stroke-dasharray:none;stroke-opacity:1"
       id="path226"
       transform="matrix(0.57547787,0,0,0.57547787,8.9225927,141.98491)" /><path
       d="M 57.6,250.9056 H 414.72"
       style="fill:none;stroke:#b0b0b0;stroke-width:0.8;stroke-linecap:square;stroke-linejoin:round;stroke-miterlimit:10;stroke-dasharray:none;stroke-opacity:1"
       id="path244"
       transform="matrix(0.57547787,0,0,0.57547787,8.9225927,141.98491)" /><path
       d="M 57.6,304.128 H 414.72"
       style="fill:none;stroke:#b0b0b0;stroke-width:0.8;stroke-linecap:square;stroke-linejoin:round;stroke-miterlimit:10;stroke-dasharray:none;stroke-opacity:1"
       id="path262"
       transform="matrix(0.57547787,0,0,0.57547787,8.9225927,141.98491)" /><g
       id="g328"
       clip-path="url(#clipPath332)"
       style="stroke:#d62728;stroke-opacity:1"
       transform="matrix(0.57547787,0,0,0.57547787,8.922593,141.98491)"><path
         d="m 57.6,274.26669 5.668571,-8.51413 5.668572,-4.60585 5.668571,-0.61572 5.668572,-0.97414 5.668571,0.2994 5.668572,0.17462 5.668571,-0.0369 5.66857,0.55342 5.66857,-1.55777 5.66857,-1.31879 5.66858,-0.0429 5.66857,-1.84437 5.66857,-1.25059 5.66857,-0.22577 5.66857,-2.59774 5.66857,-0.67705 5.66857,-0.23919 5.66858,-2.43211 5.66857,-1.4151 5.66857,-1.07585 5.66857,-1.42078 5.66857,0.29705 5.66857,-1.2512 5.66857,-4.21345 5.66858,1.85402 5.66857,0.40948 5.66857,0.49735 5.66857,-0.15599 5.66857,-2.90436 5.66857,0.90238 5.66857,-3.56086 5.66858,-0.71117 5.66857,0.0317 5.66857,-3.35022 5.66857,0.40922 5.66857,-1.31818 5.66857,-0.0777 5.66857,-2.52089 5.66858,2.24148 5.66857,-2.15834 5.66857,-3.06158 5.66857,-0.31306 5.66857,-0.70681 5.66857,4.80396 5.66857,-2.65466 5.66858,0.83184 5.66857,-1.614 5.66857,-2.32449 5.66857,2.89507 5.66857,-6.57443 5.66857,2.15945 5.66857,-6.06139 5.66858,-1.32181 5.66857,-1.42226 5.66857,-2.91308 5.66857,-0.51664 5.66857,1.0175 5.66857,-5.84401 5.66857,1.57233 5.66858,-5.53072 5.66857,5.36572 5.66857,-2.10874 5.66857,3.65182"
         style="fill:none;stroke:#d62728;stroke-width:1.5;stroke-linecap:square;stroke-linejoin:round;stroke-miterlimit:10;stroke-dasharray:none;stroke-opacity:1"
         id="path334" /></g><g
       id="g16"
       transform="matrix(0.57547787,0,0,0.57547787,8.922593,141.98491)"><g
         id="g18"
         clip-path="url(#clipPath22)" /></g><path
       d="M 42.070118,163.86228 V 161.8481"
       style="fill:#000000;fill-opacity:1;fill-rule:nonzero;stroke:#000000;stroke-width:0.460382;stroke-linecap:butt;stroke-linejoin:round;stroke-miterlimit:10;stroke-dasharray:none;stroke-opacity:1"
       id="path28" /><g
       id="g34"
       transform="matrix(0.57547787,0,0,0.57547787,8.922593,141.98491)"><g
         id="g36"
         clip-path="url(#clipPath40)" /></g><path
       d="M 68.167217,163.86228 V 161.8481"
       style="fill:#000000;fill-opacity:1;fill-rule:nonzero;stroke:#000000;stroke-width:0.460382;stroke-linecap:butt;stroke-linejoin:round;stroke-miterlimit:10;stroke-dasharray:none;stroke-opacity:1"
       id="path46" /><g
       id="g52"
       transform="matrix(0.57547787,0,0,0.57547787,8.922593,141.98491)"><g
         id="g54"
         clip-path="url(#clipPath58)" /></g><path
       d="M 94.264316,163.86228 V 161.8481"
       style="fill:#000000;fill-opacity:1;fill-rule:nonzero;stroke:#000000;stroke-width:0.460382;stroke-linecap:butt;stroke-linejoin:round;stroke-miterlimit:10;stroke-dasharray:none;stroke-opacity:1"
       id="path64" /><g
       id="g70"
       transform="matrix(0.57547787,0,0,0.57547787,8.922593,141.98491)"><g
         id="g72"
         clip-path="url(#clipPath76)" /></g><path
       d="M 120.36141,163.86228 V 161.8481"
       style="fill:#000000;fill-opacity:1;fill-rule:nonzero;stroke:#000000;stroke-width:0.460382;stroke-linecap:butt;stroke-linejoin:round;stroke-miterlimit:10;stroke-dasharray:none;stroke-opacity:1"
       id="path82" /><path
       d="M 146.45852,163.86228 V 161.8481"
       style="fill:#000000;fill-opacity:1;fill-rule:nonzero;stroke:#000000;stroke-width:0.460382;stroke-linecap:butt;stroke-linejoin:round;stroke-miterlimit:10;stroke-dasharray:none;stroke-opacity:1"
       id="path100" /><g
       id="g106"
       transform="matrix(0.57547787,0,0,0.57547787,8.922593,141.98491)"><g
         id="g108"
         clip-path="url(#clipPath112)" /></g><path
       d="M 172.55562,163.86228 V 161.8481"
       style="fill:#000000;fill-opacity:1;fill-rule:nonzero;stroke:#000000;stroke-width:0.460382;stroke-linecap:butt;stroke-linejoin:round;stroke-miterlimit:10;stroke-dasharray:none;stroke-opacity:1"
       id="path118" /><g
       id="g124"
       transform="matrix(0.57547787,0,0,0.57547787,8.922593,141.98491)"><g
         id="g126"
         clip-path="url(#clipPath130)" /></g><path
       d="M 198.65272,163.86228 V 161.8481"
       style="fill:#000000;fill-opacity:1;fill-rule:nonzero;stroke:#000000;stroke-width:0.460382;stroke-linecap:butt;stroke-linejoin:round;stroke-miterlimit:10;stroke-dasharray:none;stroke-opacity:1"
       id="path136" /><g
       id="g142"
       transform="matrix(0.57547787,0,0,0.57547787,8.922593,141.98491)"><g
         id="g144"
         clip-path="url(#clipPath148)" /></g><path
       d="M 224.74981,163.86228 V 161.8481"
       style="fill:#000000;fill-opacity:1;fill-rule:nonzero;stroke:#000000;stroke-width:0.460382;stroke-linecap:butt;stroke-linejoin:round;stroke-miterlimit:10;stroke-dasharray:none;stroke-opacity:1"
       id="path154" /><g
       id="g164"
       transform="matrix(0.57547787,0,0,0.57547787,8.922593,141.98491)"><g
         id="g166"
         clip-path="url(#clipPath170)" /></g><path
       d="M 42.070118,163.86228 H 40.055946"
       style="fill:#000000;fill-opacity:1;fill-rule:nonzero;stroke:#000000;stroke-width:0.460382;stroke-linecap:butt;stroke-linejoin:round;stroke-miterlimit:10;stroke-dasharray:none;stroke-opacity:1"
       id="path176" /><g
       id="g182"
       transform="matrix(0.57547787,0,0,0.57547787,8.922593,141.98491)"><g
         id="g184"
         clip-path="url(#clipPath188)" /></g><path
       d="M 42.070118,194.49059 H 40.055946"
       style="fill:#000000;fill-opacity:1;fill-rule:nonzero;stroke:#000000;stroke-width:0.460382;stroke-linecap:butt;stroke-linejoin:round;stroke-miterlimit:10;stroke-dasharray:none;stroke-opacity:1"
       id="path194" /><g
       id="g200"
       transform="matrix(0.57547787,0,0,0.57547787,8.922593,141.98491)"><g
         id="g202"
         clip-path="url(#clipPath206)" /></g><path
       d="M 42.070118,225.11891 H 40.055946"
       style="fill:#000000;fill-opacity:1;fill-rule:nonzero;stroke:#000000;stroke-width:0.460382;stroke-linecap:butt;stroke-linejoin:round;stroke-miterlimit:10;stroke-dasharray:none;stroke-opacity:1"
       id="path212" /><g
       id="g218"
       transform="matrix(0.57547787,0,0,0.57547787,8.922593,141.98491)"><g
         id="g220"
         clip-path="url(#clipPath224)" /></g><path
       d="M 42.070118,255.74722 H 40.055946"
       style="fill:#000000;fill-opacity:1;fill-rule:nonzero;stroke:#000000;stroke-width:0.460382;stroke-linecap:butt;stroke-linejoin:round;stroke-miterlimit:10;stroke-dasharray:none;stroke-opacity:1"
       id="path230" /><g
       id="g236"
       transform="matrix(0.57547787,0,0,0.57547787,8.922593,141.98491)"><g
         id="g238"
         clip-path="url(#clipPath242)" /></g><path
       d="M 42.070118,286.37553 H 40.055946"
       style="fill:#000000;fill-opacity:1;fill-rule:nonzero;stroke:#000000;stroke-width:0.460382;stroke-linecap:butt;stroke-linejoin:round;stroke-miterlimit:10;stroke-dasharray:none;stroke-opacity:1"
       id="path248" /><g
       id="g254"
       transform="matrix(0.57547787,0,0,0.57547787,8.922593,141.98491)"><g
         id="g256"
         clip-path="url(#clipPath260)" /></g><path
       d="M 42.070118,317.00385 H 40.055946"
       style="fill:#000000;fill-opacity:1;fill-rule:nonzero;stroke:#000000;stroke-width:0.460382;stroke-linecap:butt;stroke-linejoin:round;stroke-miterlimit:10;stroke-dasharray:none;stroke-opacity:1"
       id="path266" /><g
       id="g278"
       clip-path="url(#clipPath282)"
       transform="matrix(0.57547787,0,0,0.57547787,8.922593,141.98491)"><path
         d="m 57.6,195.08182 5.668571,15.54746 5.668572,4.73318 5.668571,-2.64963 5.668572,-1.04553 5.668571,0.57168 5.668572,-1.78231 5.668571,-3.09688 5.66857,-2.12046 5.66857,-0.85533 5.66857,-4.13437 5.66858,-0.0354 5.66857,-0.0147 5.66857,3.77202 5.66857,3.30181 5.66857,-0.24759 5.66857,-2.18802 5.66857,-0.1641 5.66858,-5.29262 5.66857,-4.06604 5.66857,-3.84683 5.66857,-3.64299 5.66857,-2.54171 5.66857,-1.5383 5.66857,-2.67877 5.66858,-0.10061 5.66857,-4.37718 5.66857,0.79617 5.66857,-6.14132 5.66857,-0.63695 5.66857,-1.08054 5.66857,-2.25543 5.66858,-0.54243 5.66857,-1.48469 5.66857,-3.90043 5.66857,-2.11343 5.66857,-1.52373 5.66857,-0.46305 5.66857,-0.59292 5.66858,-3.47476 5.66857,-1.07817 5.66857,-5.73836 5.66857,-1.01746 5.66857,-4.23256 5.66857,-6.56773 5.66857,-1.88862 5.66858,-4.65823 5.66857,-0.33125 5.66857,-3.63644 5.66857,-6.05478 5.66857,0.14622 5.66857,0.0915 5.66857,0.014 5.66858,-6.01331 5.66857,0.42003 5.66857,-1.75668 5.66857,-3.62718 5.66857,0.0191 5.66857,-3.9331 5.66857,-2.21957 5.66858,0.82342 5.66857,-7.507785 5.66857,-4.943573 5.66857,-15.708293"
         style="fill:none;stroke:#1f77b4;stroke-width:1.5;stroke-linecap:square;stroke-linejoin:round;stroke-miterlimit:10;stroke-dasharray:none;stroke-opacity:1"
         id="path284" /></g><g
       id="g288"
       clip-path="url(#clipPath292)"
       transform="matrix(0.57547787,0,0,0.57547787,8.922593,141.98491)"><path
         d="m 57.6,204.90928 5.668571,16.98733 5.668572,-2.49365 5.668571,0.0101 5.668572,1.67845 5.668571,1.12462 5.668572,-0.24117 5.668571,-3.62696 5.66857,-3.01111 5.66857,-3.15928 5.66857,-2.29561 5.66858,0.11143 5.66857,-3.069 5.66857,4.1081 5.66857,1.65965 5.66857,-0.99919 5.66857,-0.89442 5.66857,-2.24327 5.66858,-4.63969 5.66857,-3.30828 5.66857,-2.38029 5.66857,-4.46374 5.66857,-1.00677 5.66857,-0.25012 5.66857,-2.14512 5.66858,-0.77782 5.66857,-3.32882 5.66857,-0.68007 5.66857,-5.61372 5.66857,-0.94526 5.66857,-0.10345 5.66857,-2.93194 5.66858,-1.16811 5.66857,-0.51109 5.66857,-5.44237 5.66857,-3.73622 5.66857,-1.71512 5.66857,-0.25625 5.66857,1.1052 5.66858,-2.24028 5.66857,-3.02109 5.66857,-2.01909 5.66857,1.58444 5.66857,-4.21981 5.66857,-4.61928 5.66857,-3.04318 5.66858,-0.16224 5.66857,-1.68372 5.66857,-3.02525 5.66857,-2.81554 5.66857,-1.77994 5.66857,0.004 5.66857,-1.10444 5.66858,-2.69905 5.66857,-0.13201 5.66857,-1.90165 5.66857,-2.46116 5.66857,-3.56558 5.66857,-3.72284 5.66857,-0.46749 5.66858,0.65675 5.66857,-3.73036 5.66857,-5.23291 5.66857,-16.082927"
         style="fill:none;stroke:#ff7f0e;stroke-width:1.5;stroke-linecap:square;stroke-linejoin:round;stroke-miterlimit:10;stroke-dasharray:none;stroke-opacity:1"
         id="path294" /></g><g
       id="g298"
       clip-path="url(#clipPath302)"
       transform="matrix(0.57547787,0,0,0.57547787,8.922593,141.98491)"><path
         d="m 57.6,211.51779 5.668571,15.06902 5.668572,-2.17004 5.668571,1.17921 5.668572,-0.51609 5.668571,2.75327 5.668572,-0.21579 5.668571,-2.19941 5.66857,-4.29561 5.66857,-4.74596 5.66857,-1.87735 5.66858,0.11914 5.66857,-3.57332 5.66857,4.16988 5.66857,2.35698 5.66857,-1.18995 5.66857,-2.44835 5.66857,-1.79473 5.66858,-5.33145 5.66857,-3.41178 5.66857,-2.02233 5.66857,-3.52818 5.66857,-0.35798 5.66857,0.65378 5.66857,-2.23421 5.66858,0.98185 5.66857,-4.47738 5.66857,-0.28295 5.66857,-5.22515 5.66857,-2.6273 5.66857,0.28654 5.66857,-2.31652 5.66858,-2.31355 5.66857,-2.37334 5.66857,-4.58022 5.66857,-3.51856 5.66857,-3.82752 5.66857,1.35375 5.66857,-1.56573 5.66858,-0.16546 5.66857,-3.24997 5.66857,-1.07967 5.66857,5.9811 5.66857,-4.83917 5.66857,-2.81865 5.66857,-5.9119 5.66858,-2.50698 5.66857,-4.30259 5.66857,-3.88748 5.66857,-2.49562 5.66857,-3.24122 5.66857,3.36007 5.66857,-1.17661 5.66858,-0.76039 5.66857,1.36557 5.66857,-1.90998 5.66857,-1.08971 5.66857,1.15695 5.66857,-3.83159 5.66857,1.22692 5.66858,-0.54952 5.66857,-4.405 5.66857,-4.97247 5.66857,-15.37943"
         style="fill:none;stroke:#2ca02c;stroke-width:1.5;stroke-linecap:square;stroke-linejoin:round;stroke-miterlimit:10;stroke-dasharray:none;stroke-opacity:1"
         id="path304" /></g><g
       id="g308"
       clip-path="url(#clipPath312)"
       style="stroke:#8c564b;stroke-opacity:1"
       transform="matrix(0.57547787,0,0,0.57547787,8.922593,141.98491)"><path
         d="m 57.6,218.69779 5.668571,11.47983 5.668572,-1.57132 5.668571,1.03466 5.668572,-0.68661 5.668571,2.65043 5.668572,-1.13605 5.668571,-2.63536 5.66857,-4.69658 5.66857,-4.27295 5.66857,-2.34333 5.66858,0.56091 5.66857,-3.83014 5.66857,3.59312 5.66857,2.76419 5.66857,-1.04788 5.66857,-2.56437 5.66857,-1.40644 5.66858,-6.17196 5.66857,-3.67162 5.66857,-1.72405 5.66857,-3.45023 5.66857,-1.52773 5.66857,0.15149 5.66857,-2.46164 5.66858,0.95665 5.66857,-3.95176 5.66857,0.4662 5.66857,-3.76522 5.66857,-0.99779 5.66857,-2.55916 5.66857,-2.92825 5.66858,-1.70474 5.66857,-2.20738 5.66857,-4.18793 5.66857,-3.8549 5.66857,-2.39198 5.66857,1.11416 5.66857,-2.80786 5.66858,-0.53439 5.66857,-2.96696 5.66857,1.02397 5.66857,5.38958 5.66857,-3.52258 5.66857,-1.61464 5.66857,-5.85904 5.66858,-2.25946 5.66857,-3.78914 5.66857,-4.129 5.66857,-1.63752 5.66857,-4.09648 5.66857,3.56659 5.66857,-0.90764 5.66858,0.46557 5.66857,1.84603 5.66857,-0.42199 5.66857,0.51806 5.66857,-0.93227 5.66857,-1.28964 5.66857,1.99837 5.66858,-0.39814 5.66857,-4.34991 5.66857,-6.42781 5.66857,-15.88599"
         style="fill:none;stroke:#8c564b;stroke-width:1.5;stroke-linecap:square;stroke-linejoin:round;stroke-miterlimit:10;stroke-dasharray:none;stroke-opacity:1"
         id="path314" /></g><g
       id="g318"
       clip-path="url(#clipPath322)"
       transform="matrix(0.57547787,0,0,0.57547787,8.922593,141.98491)"><path
         d="m 57.6,219.50852 5.668571,10.9505 5.668572,-0.53199 5.668571,1.45216 5.668572,-0.42291 5.668571,1.11427 5.668572,-0.73889 5.668571,-1.77386 5.66857,-3.95204 5.66857,-5.7097 5.66857,-2.08082 5.66858,0.67974 5.66857,-3.33423 5.66857,3.67086 5.66857,1.95474 5.66857,-1.16323 5.66857,-2.78186 5.66857,-2.42919 5.66858,-6.11775 5.66857,-4.58685 5.66857,-2.1033 5.66857,-3.63904 5.66857,-2.21758 5.66857,-0.78087 5.66857,-3.01627 5.66858,-0.0181 5.66857,-4.38617 5.66857,-0.085 5.66857,-3.89419 5.66857,0.40315 5.66857,-1.82058 5.66857,-3.61927 5.66858,-1.0053 5.66857,-1.7296 5.66857,-3.91875 5.66857,-4.77446 5.66857,-4.73995 5.66857,1.68349 5.66857,-0.37189 5.66858,1.04699 5.66857,-3.08018 5.66857,-0.34531 5.66857,6.22218 5.66857,-3.61457 5.66857,-2.66095 5.66857,-6.89767 5.66858,-3.65639 5.66857,-4.35537 5.66857,-3.80881 5.66857,-2.05993 5.66857,-3.09451 5.66857,2.09593 5.66857,0.92993 5.66858,0.27753 5.66857,1.8101 5.66857,2.41608 5.66857,-0.6235 5.66857,-1.19536 5.66857,-2.34571 5.66857,-1.43528 5.66858,0.86444 5.66857,-3.60452 5.66857,-6.43703 5.66857,-13.60125"
         style="fill:none;stroke:#9467bd;stroke-width:1.5;stroke-linecap:square;stroke-linejoin:round;stroke-miterlimit:10;stroke-dasharray:none;stroke-opacity:1"
         id="path324" /></g><path
       d="M 42.070118,163.86228 V 317.00385"
       style="fill:none;stroke:#000000;stroke-width:0.460382;stroke-linecap:square;stroke-linejoin:miter;stroke-miterlimit:10;stroke-dasharray:none;stroke-opacity:1"
       id="path338" /><path
       d="M 247.58478,163.86228 V 317.00385"
       style="fill:none;stroke:#000000;stroke-width:0.460382;stroke-linecap:square;stroke-linejoin:miter;stroke-miterlimit:10;stroke-dasharray:none;stroke-opacity:1"
       id="path340" /><path
       d="M 42.070118,163.86228 H 247.58478"
       style="fill:none;stroke:#000000;stroke-width:0.460382;stroke-linecap:square;stroke-linejoin:miter;stroke-miterlimit:10;stroke-dasharray:none;stroke-opacity:1"
       id="path342" /><path
       d="M 42.070118,317.00385 H 247.58478"
       style="fill:none;stroke:#000000;stroke-width:0.460382;stroke-linecap:square;stroke-linejoin:miter;stroke-miterlimit:10;stroke-dasharray:none;stroke-opacity:1"
       id="path344" /><path
       d="M 53.963445,215.37805 H 65.473002"
       style="fill:none;stroke:#1f77b4;stroke-width:0.863217;stroke-linecap:square;stroke-linejoin:round;stroke-miterlimit:10;stroke-dasharray:none;stroke-opacity:1"
       id="path354" /><path
       d="M 53.963445,206.93471 H 65.473002"
       style="fill:none;stroke:#ff7f0e;stroke-width:0.863217;stroke-linecap:square;stroke-linejoin:round;stroke-miterlimit:10;stroke-dasharray:none;stroke-opacity:1"
       id="path360" /><path
       d="M 53.963445,198.49137 H 65.473002"
       style="fill:none;stroke:#2ca02c;stroke-width:0.863217;stroke-linecap:square;stroke-linejoin:round;stroke-miterlimit:10;stroke-dasharray:none;stroke-opacity:1"
       id="path366" /><path
       d="M 53.963445,190.04803 H 65.473002"
       style="fill:none;stroke:#8c564b;stroke-width:0.863217;stroke-linecap:square;stroke-linejoin:round;stroke-miterlimit:10;stroke-dasharray:none;stroke-opacity:1"
       id="path372" /><path
       d="M 53.963445,181.60469 H 65.473002"
       style="fill:none;stroke:#9467bd;stroke-width:0.863217;stroke-linecap:square;stroke-linejoin:round;stroke-miterlimit:10;stroke-dasharray:none;stroke-opacity:1"
       id="path378" /><path
       d="M 53.963445,173.16135 H 65.473002"
       style="fill:none;stroke:#d62728;stroke-width:0.863217;stroke-linecap:square;stroke-linejoin:round;stroke-miterlimit:10;stroke-dasharray:none;stroke-opacity:1"
       id="path384" /></g><g
     inkscape:groupmode="layer"
     id="layer1"
     inkscape:label="text"
     style="display:inline"
     transform="translate(-28.023958,-17.206424)"><text
       style="font-variant:normal;font-weight:normal;font-size:7.67303px;font-family:'DejaVu Sans';-inkscape-font-specification:DejaVuSans;writing-mode:lr-tb;fill:#000000;fill-opacity:1;fill-rule:nonzero;stroke:none;stroke-width:0.767303"
       id="text32"
       x="53.991024"
       y="253.51457"><tspan
         x="53.991024 58.871075 61.311104"
         y="253.51457"
         sodipodi:role="line"
         id="tspan30"
         style="stroke-width:0.767303">0.0</tspan></text><text
       style="font-variant:normal;font-weight:normal;font-size:7.67303px;font-family:'DejaVu Sans';-inkscape-font-specification:DejaVuSans;writing-mode:lr-tb;fill:#000000;fill-opacity:1;fill-rule:nonzero;stroke:none;stroke-width:0.767303"
       id="text50"
       x="84.787155"
       y="253.51457"><tspan
         x="84.787155 89.667213 92.107246"
         y="253.51457"
         sodipodi:role="line"
         id="tspan48"
         style="stroke-width:0.767303">0.2</tspan></text><text
       style="font-variant:normal;font-weight:normal;font-size:7.67303px;font-family:'DejaVu Sans';-inkscape-font-specification:DejaVuSans;writing-mode:lr-tb;fill:#000000;fill-opacity:1;fill-rule:nonzero;stroke:none;stroke-width:0.767303"
       id="text68"
       x="119.5833"
       y="253.51457"><tspan
         x="119.5833 124.46335 126.90337"
         y="253.51457"
         sodipodi:role="line"
         id="tspan66"
         style="stroke-width:0.767303">0.4</tspan></text><text
       style="font-variant:normal;font-weight:normal;font-size:7.67303px;font-family:'DejaVu Sans';-inkscape-font-specification:DejaVuSans;writing-mode:lr-tb;fill:#000000;fill-opacity:1;fill-rule:nonzero;stroke:none;stroke-width:0.767303"
       id="text86"
       x="154.37943"
       y="253.51457"><tspan
         x="154.37943 159.25948 161.69949"
         y="253.51457"
         sodipodi:role="line"
         id="tspan84"
         style="stroke-width:0.767303">0.6</tspan></text><text
       style="font-variant:normal;font-weight:normal;font-size:7.67303px;font-family:'DejaVu Sans';-inkscape-font-specification:DejaVuSans;writing-mode:lr-tb;fill:#000000;fill-opacity:1;fill-rule:nonzero;stroke:none;stroke-width:0.767303"
       id="text104"
       x="189.17555"
       y="253.51457"><tspan
         x="189.17555 194.0556 196.49564"
         y="253.51457"
         sodipodi:role="line"
         id="tspan102"
         style="stroke-width:0.767303">0.8</tspan></text><text
       style="font-variant:normal;font-weight:normal;font-size:7.67303px;font-family:'DejaVu Sans';-inkscape-font-specification:DejaVuSans;writing-mode:lr-tb;fill:#000000;fill-opacity:1;fill-rule:nonzero;stroke:none;stroke-width:0.767303"
       id="text122"
       x="223.97169"
       y="253.51457"><tspan
         x="223.97169 228.85173 231.29176"
         y="253.51457"
         sodipodi:role="line"
         id="tspan120"
         style="stroke-width:0.767303">1.0</tspan></text><text
       style="font-variant:normal;font-weight:normal;font-size:7.67303px;font-family:'DejaVu Sans';-inkscape-font-specification:DejaVuSans;writing-mode:lr-tb;fill:#000000;fill-opacity:1;fill-rule:nonzero;stroke:none;stroke-width:0.767303"
       id="text140"
       x="258.76782"
       y="253.51457"><tspan
         x="258.76782 263.64786 266.08789"
         y="253.51457"
         sodipodi:role="line"
         id="tspan138"
         style="stroke-width:0.767303">1.2</tspan></text><text
       style="font-variant:normal;font-weight:normal;font-size:7.67303px;font-family:'DejaVu Sans';-inkscape-font-specification:DejaVuSans;writing-mode:lr-tb;fill:#000000;fill-opacity:1;fill-rule:nonzero;stroke:none;stroke-width:0.767303"
       id="text158"
       x="293.56393"
       y="253.51457"><tspan
         x="293.56393 298.444 300.884"
         y="253.51457"
         sodipodi:role="line"
         id="tspan156"
         style="stroke-width:0.767303">1.4</tspan></text><text
       style="font-variant:normal;font-weight:normal;font-size:7.67303px;font-family:'DejaVu Sans';-inkscape-font-specification:DejaVuSans;writing-mode:lr-tb;fill:#000000;fill-opacity:1;fill-rule:nonzero;stroke:none;stroke-width:0.767303"
       id="text162"
       x="146.66339"
       y="264.0054"><tspan
         x="146.66339 152.61 157.32892 162.19362 166.88953 174.36305 176.49617 180.71634 183.15637 188.02873 190.16185 194.1595 197.16733 201.87091 206.73561 210.9558 215.6747 218.11472 220.70053 223.14055 229.76239 234.63477"
         y="264.0054"
         sodipodi:role="line"
         id="tspan160"
         style="stroke-width:0.767303">Genomic distance / Mbp</tspan></text><text
       style="font-variant:normal;font-weight:normal;font-size:7.67303px;font-family:'DejaVu Sans';-inkscape-font-specification:DejaVuSans;writing-mode:lr-tb;fill:#000000;fill-opacity:1;fill-rule:nonzero;stroke:none;stroke-width:0.767303"
       id="text180"
       x="38.517433"
       y="245.23009"><tspan
         x="38.517433 43.397488 45.837513"
         y="245.23009"
         sodipodi:role="line"
         id="tspan178"
         style="stroke-width:0.767303">0.0</tspan></text><text
       style="font-variant:normal;font-weight:normal;font-size:7.67303px;font-family:'DejaVu Sans';-inkscape-font-specification:DejaVuSans;writing-mode:lr-tb;fill:#000000;fill-opacity:1;fill-rule:nonzero;stroke:none;stroke-width:0.767303"
       id="text198"
       x="38.517433"
       y="204.39233"><tspan
         x="38.517433 43.397488 45.837513"
         y="204.39233"
         sodipodi:role="line"
         id="tspan196"
         style="stroke-width:0.767303">0.2</tspan></text><text
       style="font-variant:normal;font-weight:normal;font-size:7.67303px;font-family:'DejaVu Sans';-inkscape-font-specification:DejaVuSans;writing-mode:lr-tb;fill:#000000;fill-opacity:1;fill-rule:nonzero;stroke:none;stroke-width:0.767303"
       id="text216"
       x="38.517433"
       y="163.5546"><tspan
         x="38.517433 43.397488 45.837513"
         y="163.5546"
         sodipodi:role="line"
         id="tspan214"
         style="stroke-width:0.767303">0.4</tspan></text><text
       style="font-variant:normal;font-weight:normal;font-size:7.67303px;font-family:'DejaVu Sans';-inkscape-font-specification:DejaVuSans;writing-mode:lr-tb;fill:#000000;fill-opacity:1;fill-rule:nonzero;stroke:none;stroke-width:0.767303"
       id="text234"
       x="38.517433"
       y="122.71703"><tspan
         x="38.517433 43.397488 45.837513"
         y="122.71703"
         sodipodi:role="line"
         id="tspan232"
         style="stroke-width:0.767303">0.6</tspan></text><text
       style="font-variant:normal;font-weight:normal;font-size:7.67303px;font-family:'DejaVu Sans';-inkscape-font-specification:DejaVuSans;writing-mode:lr-tb;fill:#000000;fill-opacity:1;fill-rule:nonzero;stroke:none;stroke-width:0.767303"
       id="text252"
       x="38.517433"
       y="81.879257"><tspan
         x="38.517433 43.397488 45.837513"
         y="81.879257"
         sodipodi:role="line"
         id="tspan250"
         style="stroke-width:0.767303">0.8</tspan></text><text
       style="font-variant:normal;font-weight:normal;font-size:7.67303px;font-family:'DejaVu Sans';-inkscape-font-specification:DejaVuSans;writing-mode:lr-tb;fill:#000000;fill-opacity:1;fill-rule:nonzero;stroke:none;stroke-width:0.767303"
       id="text270"
       x="38.517433"
       y="41.041428"><tspan
         x="38.517433 43.397488 45.837513"
         y="41.041428"
         sodipodi:role="line"
         id="tspan268"
         style="stroke-width:0.767303">1.0</tspan></text><text
       transform="rotate(-90)"
       style="font-variant:normal;font-weight:normal;font-size:7.67303px;font-family:'DejaVu Sans';-inkscape-font-specification:DejaVuSans;writing-mode:lr-tb;fill:#000000;fill-opacity:1;fill-rule:nonzero;stroke:none;stroke-width:0.767303"
       id="text274"
       x="-177.29272"
       y="33.853668"><tspan
         x="-177.29272 -172.66588 -167.94696 -163.24339 -160.08977 -156.09212 -151.39622 -146.53152 -144.09151 -139.87132 -135.17542 -132.02179 -128.86818 -124.14946 -122.01635 -117.31277 -114.30495 -112.17184 -107.47594"
         y="33.853668"
         sodipodi:role="line"
         id="tspan272"
         style="stroke-width:0.767303">Pearson correlation</tspan></text><text
       style="font-variant:normal;font-weight:normal;font-size:9.20765px;font-family:'DejaVu Sans';-inkscape-font-specification:DejaVuSans;writing-mode:lr-tb;fill:#000000;fill-opacity:1;fill-rule:nonzero;stroke:none;stroke-width:0.767303"
       id="text348"
       x="98.347229"
       y="23.204042"><tspan
         x="98.347229 103.89944 109.56215 115.20643 118.99078 123.78796 129.42303 135.2607 138.18871 143.25291 148.888 152.67235 156.4567 162.11938 164.67911 170.32339 173.93279 176.49252 182.12761 187.96524 190.89328 196.34421 201.1414 204.06941 206.99747 212.8443 218.50702 224.34464 229.97974 238.94798 241.50771 246.57191 249.49995 255.3468 257.90652 262.7037 266.31308 271.9574 277.79501 282.85925"
         y="23.204042"
         sodipodi:role="line"
         id="tspan346"
         style="stroke-width:0.767303">Pearson correlation vs. genomic distance</tspan></text><text
       style="font-variant:normal;font-weight:normal;font-size:9.20765px;font-family:'DejaVu Sans';-inkscape-font-specification:DejaVuSans;writing-mode:lr-tb;fill:#000000;fill-opacity:1;fill-rule:nonzero;stroke:none;stroke-width:0.767303"
       id="text352"
       x="64.001076"
       y="33.524246"><tspan
         x="64.001076 71.137009 79.083199 84.93927 90.795334 96.65139 102.50745 108.36353 111.29155 114.21958 120.07565 123.00368 128.85974 131.78777 137.64383 140.57187 146.42793 149.35596 155.21204 158.14006 163.99612 169.85217 172.78021 178.63628 184.49234 187.42036 193.27643 199.13249 202.06052 207.91658 213.77266 216.70068 222.55675 228.41283 231.34084 237.19691 243.05296 245.981 251.83707 257.69312 260.62112 266.47723 272.33328 275.26129 280.89639 286.73404 289.66208 295.70227 301.55835 307.4144 313.27051 316.19852 319.12656"
         y="33.524246"
         sodipodi:role="line"
         id="tspan350"
         style="stroke-width:0.767303">GM12878, 1,2,4,7,9,11,13,14,16,17,18,20,22 on K562, 5</tspan></text><text
       style="font-variant:normal;font-weight:normal;font-size:7.67301px;font-family:'DejaVu Sans';-inkscape-font-specification:DejaVuSans;writing-mode:lr-tb;fill:#000000;fill-opacity:1;fill-rule:nonzero;stroke:none;stroke-width:0.767302"
       id="text358"
       x="93.435753"
       y="176.31462"><tspan
         x="93.435753 98.315811 103.19588 105.63589 110.3548 115.22719 117.66721 120.25301 122.69307 127.94143 133.55809 138.91386 141.49966 143.9397 148.81975 151.25977 156.13985 161.01988"
         y="176.31462"
         sodipodi:role="line"
         id="tspan356"
         style="stroke-width:0.767302">20 ep / AUC: 0.466</tspan></text><text
       style="font-variant:normal;font-weight:normal;font-size:7.67301px;font-family:'DejaVu Sans';-inkscape-font-specification:DejaVuSans;writing-mode:lr-tb;fill:#000000;fill-opacity:1;fill-rule:nonzero;stroke:none;stroke-width:0.767302"
       id="text364"
       x="93.435753"
       y="187.57239"><tspan
         x="93.435753 98.315811 103.19588 105.63589 110.3548 115.22719 117.66721 120.25301 122.69307 127.94143 133.55809 138.91386 141.49966 143.9397 148.81975 151.25977 156.13985 161.01988"
         y="187.57239"
         sodipodi:role="line"
         id="tspan362"
         style="stroke-width:0.767302">40 ep / AUC: 0.510</tspan></text><text
       style="font-variant:normal;font-weight:normal;font-size:7.67301px;font-family:'DejaVu Sans';-inkscape-font-specification:DejaVuSans;writing-mode:lr-tb;fill:#000000;fill-opacity:1;fill-rule:nonzero;stroke:none;stroke-width:0.767302"
       id="text370"
       x="93.435753"
       y="198.83018"><tspan
         x="93.435753 98.315811 103.19588 105.63589 110.3548 115.22719 117.66721 120.25301 122.69307 127.94143 133.55809 138.91386 141.49966 143.9397 148.81975 151.25977 156.13985 161.01988"
         y="198.83018"
         sodipodi:role="line"
         id="tspan368"
         style="stroke-width:0.767302">60 ep / AUC: 0.531</tspan></text><text
       style="font-variant:normal;font-weight:normal;font-size:7.67301px;font-family:'DejaVu Sans';-inkscape-font-specification:DejaVuSans;writing-mode:lr-tb;fill:#000000;fill-opacity:1;fill-rule:nonzero;stroke:none;stroke-width:0.767302"
       id="text376"
       x="93.435753"
       y="210.08797"><tspan
         x="93.435753 98.315811 103.19588 105.63589 110.3548 115.22719 117.66721 120.25301 122.69307 127.94143 133.55809 138.91386 141.49966 143.9397 148.81975 151.25977 156.13985 161.01988"
         y="210.08797"
         sodipodi:role="line"
         id="tspan374"
         style="stroke-width:0.767302">80 ep / AUC: 0.546</tspan></text><text
       style="font-variant:normal;font-weight:normal;font-size:7.67301px;font-family:'DejaVu Sans';-inkscape-font-specification:DejaVuSans;writing-mode:lr-tb;fill:#000000;fill-opacity:1;fill-rule:nonzero;stroke:none;stroke-width:0.767302"
       id="text382"
       x="93.435753"
       y="221.34576"><tspan
         x="93.435753 98.315811 103.19588 108.07591 110.51593 115.23486 120.10722 122.54727 125.13309 127.57311 132.82147 138.43813 143.79391 146.37973 148.81975 153.69981 156.13985 161.01988 165.89995"
         y="221.34576"
         sodipodi:role="line"
         id="tspan380"
         style="stroke-width:0.767302">100 ep / AUC: 0.536</tspan></text><text
       style="font-variant:normal;font-weight:normal;font-size:7.67301px;font-family:'DejaVu Sans';-inkscape-font-specification:DejaVuSans;writing-mode:lr-tb;fill:#000000;fill-opacity:1;fill-rule:nonzero;stroke:none;stroke-width:0.767302"
       id="text388"
       x="93.435753"
       y="232.60355"><tspan
         x="93.435753 96.443596 99.597206 104.30078 109.1655 113.16315 115.86404 120.58298 123.73658 126.17661 132.1232 138.74506 143.62511 148.50516 153.38521 158.26526 163.14532 165.58536 168.17116 170.61118 175.85953 181.4762 186.83199 189.4178 191.85782 196.73787 199.17787 204.05792 208.938"
         y="232.60355"
         sodipodi:role="line"
         id="tspan386"
         style="stroke-width:0.767302">transfer GM12878 / AUC: 0.745</tspan></text></g></svg>
