<?xml version="1.0" encoding="UTF-8" standalone="no"?>
<svg
   xmlns:dc="http://purl.org/dc/elements/1.1/"
   xmlns:cc="http://creativecommons.org/ns#"
   xmlns:rdf="http://www.w3.org/1999/02/22-rdf-syntax-ns#"
   xmlns:svg="http://www.w3.org/2000/svg"
   xmlns="http://www.w3.org/2000/svg"
   xmlns:sodipodi="http://sodipodi.sourceforge.net/DTD/sodipodi-0.dtd"
   xmlns:inkscape="http://www.inkscape.org/namespaces/inkscape"
   version="1.1"
   id="svg2"
   xml:space="preserve"
   width="80mm"
   height="65.300003mm"
   viewBox="0 0 302.36219 246.80316"
   sodipodi:docname="pearson_chr19.svg"
   inkscape:version="1.0.2 (1.0.2+r75+1)"><metadata
     id="metadata8"><rdf:RDF><cc:Work
         rdf:about=""><dc:format>image/svg+xml</dc:format><dc:type
           rdf:resource="http://purl.org/dc/dcmitype/StillImage" /><dc:title></dc:title></cc:Work></rdf:RDF></metadata><defs
     id="defs6"><clipPath
       clipPathUnits="userSpaceOnUse"
       id="clipPath22"><path
         d="M 57.6,38.016 H 414.72 V 304.128 H 57.6 Z"
         id="path20" /></clipPath><clipPath
       clipPathUnits="userSpaceOnUse"
       id="clipPath40"><path
         d="M 57.6,38.016 H 414.72 V 304.128 H 57.6 Z"
         id="path38" /></clipPath><clipPath
       clipPathUnits="userSpaceOnUse"
       id="clipPath58"><path
         d="M 57.6,38.016 H 414.72 V 304.128 H 57.6 Z"
         id="path56" /></clipPath><clipPath
       clipPathUnits="userSpaceOnUse"
       id="clipPath76"><path
         d="M 57.6,38.016 H 414.72 V 304.128 H 57.6 Z"
         id="path74" /></clipPath><clipPath
       clipPathUnits="userSpaceOnUse"
       id="clipPath94"><path
         d="M 57.6,38.016 H 414.72 V 304.128 H 57.6 Z"
         id="path92" /></clipPath><clipPath
       clipPathUnits="userSpaceOnUse"
       id="clipPath112"><path
         d="M 57.6,38.016 H 414.72 V 304.128 H 57.6 Z"
         id="path110" /></clipPath><clipPath
       clipPathUnits="userSpaceOnUse"
       id="clipPath130"><path
         d="M 57.6,38.016 H 414.72 V 304.128 H 57.6 Z"
         id="path128" /></clipPath><clipPath
       clipPathUnits="userSpaceOnUse"
       id="clipPath148"><path
         d="M 57.6,38.016 H 414.72 V 304.128 H 57.6 Z"
         id="path146" /></clipPath><clipPath
       clipPathUnits="userSpaceOnUse"
       id="clipPath170"><path
         d="M 57.6,38.016 H 414.72 V 304.128 H 57.6 Z"
         id="path168" /></clipPath><clipPath
       clipPathUnits="userSpaceOnUse"
       id="clipPath188"><path
         d="M 57.6,38.016 H 414.72 V 304.128 H 57.6 Z"
         id="path186" /></clipPath><clipPath
       clipPathUnits="userSpaceOnUse"
       id="clipPath206"><path
         d="M 57.6,38.016 H 414.72 V 304.128 H 57.6 Z"
         id="path204" /></clipPath><clipPath
       clipPathUnits="userSpaceOnUse"
       id="clipPath224"><path
         d="M 57.6,38.016 H 414.72 V 304.128 H 57.6 Z"
         id="path222" /></clipPath><clipPath
       clipPathUnits="userSpaceOnUse"
       id="clipPath242"><path
         d="M 57.6,38.016 H 414.72 V 304.128 H 57.6 Z"
         id="path240" /></clipPath><clipPath
       clipPathUnits="userSpaceOnUse"
       id="clipPath260"><path
         d="M 57.6,38.016 H 414.72 V 304.128 H 57.6 Z"
         id="path258" /></clipPath><clipPath
       clipPathUnits="userSpaceOnUse"
       id="clipPath282"><path
         d="M 57.6,38.016 H 414.72 V 304.128 H 57.6 Z"
         id="path280" /></clipPath><clipPath
       clipPathUnits="userSpaceOnUse"
       id="clipPath292"><path
         d="M 57.6,38.016 H 414.72 V 304.128 H 57.6 Z"
         id="path290" /></clipPath><clipPath
       clipPathUnits="userSpaceOnUse"
       id="clipPath302"><path
         d="M 57.6,38.016 H 414.72 V 304.128 H 57.6 Z"
         id="path300" /></clipPath><clipPath
       clipPathUnits="userSpaceOnUse"
       id="clipPath312"><path
         d="M 57.6,38.016 H 414.72 V 304.128 H 57.6 Z"
         id="path310" /></clipPath></defs><sodipodi:namedview
     pagecolor="#ffffff"
     bordercolor="#666666"
     borderopacity="1"
     objecttolerance="10"
     gridtolerance="10"
     guidetolerance="10"
     inkscape:pageopacity="0"
     inkscape:pageshadow="2"
     inkscape:window-width="1920"
     inkscape:window-height="1020"
     id="namedview4"
     showgrid="false"
     fit-margin-top="0"
     fit-margin-left="0"
     fit-margin-right="0"
     fit-margin-bottom="0"
     units="mm"
     inkscape:zoom="29.756945"
     inkscape:cx="190.59454"
     inkscape:cy="242.75967"
     inkscape:window-x="0"
     inkscape:window-y="0"
     inkscape:window-maximized="1"
     inkscape:current-layer="layer1" /><g
     id="g10"
     inkscape:groupmode="layer"
     inkscape:label="pearson_chr19"
     transform="matrix(1.3333333,0,0,-1.3333333,-28.023958,443.59358)"><g
       id="g16"
       transform="matrix(0.57525052,0,0,0.57525052,8.9273715,141.97461)"><g
         id="g18"
         clip-path="url(#clipPath22)"><path
           d="M 57.6,38.016 V 304.128"
           style="fill:none;stroke:#b0b0b0;stroke-width:0.8;stroke-linecap:square;stroke-linejoin:round;stroke-miterlimit:10;stroke-dasharray:none;stroke-opacity:1"
           id="path24" /></g></g><path
       d="m 42.061801,163.84334 v -2.01339"
       style="fill:#000000;fill-opacity:1;fill-rule:nonzero;stroke:#000000;stroke-width:0.460201;stroke-linecap:butt;stroke-linejoin:round;stroke-miterlimit:10;stroke-dasharray:none;stroke-opacity:1"
       id="path28" /><g
       id="g34"
       transform="matrix(0.57525052,0,0,0.57525052,8.9273715,141.97461)"><g
         id="g36"
         clip-path="url(#clipPath40)"><path
           d="M 102.80506,38.016 V 304.128"
           style="fill:none;stroke:#b0b0b0;stroke-width:0.8;stroke-linecap:square;stroke-linejoin:round;stroke-miterlimit:10;stroke-dasharray:none;stroke-opacity:1"
           id="path42" /></g></g><path
       d="m 68.066036,163.84334 v -2.01339"
       style="fill:#000000;fill-opacity:1;fill-rule:nonzero;stroke:#000000;stroke-width:0.460201;stroke-linecap:butt;stroke-linejoin:round;stroke-miterlimit:10;stroke-dasharray:none;stroke-opacity:1"
       id="path46" /><g
       id="g52"
       transform="matrix(0.57525052,0,0,0.57525052,8.9273715,141.97461)"><g
         id="g54"
         clip-path="url(#clipPath58)"><path
           d="M 148.01013,38.016 V 304.128"
           style="fill:none;stroke:#b0b0b0;stroke-width:0.8;stroke-linecap:square;stroke-linejoin:round;stroke-miterlimit:10;stroke-dasharray:none;stroke-opacity:1"
           id="path60" /></g></g><path
       d="m 94.070276,163.84334 v -2.01339"
       style="fill:#000000;fill-opacity:1;fill-rule:nonzero;stroke:#000000;stroke-width:0.460201;stroke-linecap:butt;stroke-linejoin:round;stroke-miterlimit:10;stroke-dasharray:none;stroke-opacity:1"
       id="path64" /><g
       id="g70"
       transform="matrix(0.57525052,0,0,0.57525052,8.9273715,141.97461)"><g
         id="g72"
         clip-path="url(#clipPath76)"><path
           d="M 193.21519,38.016 V 304.128"
           style="fill:none;stroke:#b0b0b0;stroke-width:0.8;stroke-linecap:square;stroke-linejoin:round;stroke-miterlimit:10;stroke-dasharray:none;stroke-opacity:1"
           id="path78" /></g></g><path
       d="m 120.07451,163.84334 v -2.01339"
       style="fill:#000000;fill-opacity:1;fill-rule:nonzero;stroke:#000000;stroke-width:0.460201;stroke-linecap:butt;stroke-linejoin:round;stroke-miterlimit:10;stroke-dasharray:none;stroke-opacity:1"
       id="path82" /><g
       id="g88"
       transform="matrix(0.57525052,0,0,0.57525052,8.9273715,141.97461)"><g
         id="g90"
         clip-path="url(#clipPath94)"><path
           d="M 238.42025,38.016 V 304.128"
           style="fill:none;stroke:#b0b0b0;stroke-width:0.8;stroke-linecap:square;stroke-linejoin:round;stroke-miterlimit:10;stroke-dasharray:none;stroke-opacity:1"
           id="path96" /></g></g><path
       d="m 146.07874,163.84334 v -2.01339"
       style="fill:#000000;fill-opacity:1;fill-rule:nonzero;stroke:#000000;stroke-width:0.460201;stroke-linecap:butt;stroke-linejoin:round;stroke-miterlimit:10;stroke-dasharray:none;stroke-opacity:1"
       id="path100" /><g
       id="g106"
       transform="matrix(0.57525052,0,0,0.57525052,8.9273715,141.97461)"><g
         id="g108"
         clip-path="url(#clipPath112)"><path
           d="M 283.62532,38.016 V 304.128"
           style="fill:none;stroke:#b0b0b0;stroke-width:0.8;stroke-linecap:square;stroke-linejoin:round;stroke-miterlimit:10;stroke-dasharray:none;stroke-opacity:1"
           id="path114" /></g></g><path
       d="m 172.08298,163.84334 v -2.01339"
       style="fill:#000000;fill-opacity:1;fill-rule:nonzero;stroke:#000000;stroke-width:0.460201;stroke-linecap:butt;stroke-linejoin:round;stroke-miterlimit:10;stroke-dasharray:none;stroke-opacity:1"
       id="path118" /><g
       id="g124"
       transform="matrix(0.57525052,0,0,0.57525052,8.9273715,141.97461)"><g
         id="g126"
         clip-path="url(#clipPath130)"><path
           d="M 328.83038,38.016 V 304.128"
           style="fill:none;stroke:#b0b0b0;stroke-width:0.8;stroke-linecap:square;stroke-linejoin:round;stroke-miterlimit:10;stroke-dasharray:none;stroke-opacity:1"
           id="path132" /></g></g><path
       d="m 198.08722,163.84334 v -2.01339"
       style="fill:#000000;fill-opacity:1;fill-rule:nonzero;stroke:#000000;stroke-width:0.460201;stroke-linecap:butt;stroke-linejoin:round;stroke-miterlimit:10;stroke-dasharray:none;stroke-opacity:1"
       id="path136" /><g
       id="g142"
       transform="matrix(0.57525052,0,0,0.57525052,8.9273715,141.97461)"><g
         id="g144"
         clip-path="url(#clipPath148)"><path
           d="M 374.03544,38.016 V 304.128"
           style="fill:none;stroke:#b0b0b0;stroke-width:0.8;stroke-linecap:square;stroke-linejoin:round;stroke-miterlimit:10;stroke-dasharray:none;stroke-opacity:1"
           id="path150" /></g></g><g
       id="g164"
       transform="matrix(0.57525052,0,0,0.57525052,8.9273715,141.97461)"><g
         id="g166"
         clip-path="url(#clipPath170)"><path
           d="M 57.6,38.016 H 414.72"
           style="fill:none;stroke:#b0b0b0;stroke-width:0.8;stroke-linecap:square;stroke-linejoin:round;stroke-miterlimit:10;stroke-dasharray:none;stroke-opacity:1"
           id="path172" /></g></g><path
       d="M 42.061801,163.84334 H 40.048425"
       style="fill:#000000;fill-opacity:1;fill-rule:nonzero;stroke:#000000;stroke-width:0.460201;stroke-linecap:butt;stroke-linejoin:round;stroke-miterlimit:10;stroke-dasharray:none;stroke-opacity:1"
       id="path176" /><path
       d="m 224.09145,163.84334 v -2.01339"
       style="fill:#000000;fill-opacity:1;fill-rule:nonzero;stroke:#000000;stroke-width:0.460201;stroke-linecap:butt;stroke-linejoin:round;stroke-miterlimit:10;stroke-dasharray:none;stroke-opacity:1"
       id="path154" /><g
       id="g182"
       transform="matrix(0.57525052,0,0,0.57525052,8.9273715,141.97461)"><g
         id="g184"
         clip-path="url(#clipPath188)"><path
           d="M 57.6,91.2384 H 414.72"
           style="fill:none;stroke:#b0b0b0;stroke-width:0.8;stroke-linecap:square;stroke-linejoin:round;stroke-miterlimit:10;stroke-dasharray:none;stroke-opacity:1"
           id="path190" /></g></g><path
       d="M 42.061801,194.45954 H 40.048425"
       style="fill:#000000;fill-opacity:1;fill-rule:nonzero;stroke:#000000;stroke-width:0.460201;stroke-linecap:butt;stroke-linejoin:round;stroke-miterlimit:10;stroke-dasharray:none;stroke-opacity:1"
       id="path194" /><g
       id="g200"
       transform="matrix(0.57525052,0,0,0.57525052,8.9273715,141.97461)"><g
         id="g202"
         clip-path="url(#clipPath206)"><path
           d="M 57.6,144.4608 H 414.72"
           style="fill:none;stroke:#b0b0b0;stroke-width:0.8;stroke-linecap:square;stroke-linejoin:round;stroke-miterlimit:10;stroke-dasharray:none;stroke-opacity:1"
           id="path208" /></g></g><path
       d="M 42.061801,225.07576 H 40.048425"
       style="fill:#000000;fill-opacity:1;fill-rule:nonzero;stroke:#000000;stroke-width:0.460201;stroke-linecap:butt;stroke-linejoin:round;stroke-miterlimit:10;stroke-dasharray:none;stroke-opacity:1"
       id="path212" /><g
       id="g218"
       transform="matrix(0.57525052,0,0,0.57525052,8.9273715,141.97461)"><g
         id="g220"
         clip-path="url(#clipPath224)"><path
           d="M 57.6,197.6832 H 414.72"
           style="fill:none;stroke:#b0b0b0;stroke-width:0.8;stroke-linecap:square;stroke-linejoin:round;stroke-miterlimit:10;stroke-dasharray:none;stroke-opacity:1"
           id="path226" /></g></g><path
       d="M 42.061801,255.69198 H 40.048425"
       style="fill:#000000;fill-opacity:1;fill-rule:nonzero;stroke:#000000;stroke-width:0.460201;stroke-linecap:butt;stroke-linejoin:round;stroke-miterlimit:10;stroke-dasharray:none;stroke-opacity:1"
       id="path230" /><g
       id="g236"
       transform="matrix(0.57525052,0,0,0.57525052,8.9273715,141.97461)"><g
         id="g238"
         clip-path="url(#clipPath242)"><path
           d="M 57.6,250.9056 H 414.72"
           style="fill:none;stroke:#b0b0b0;stroke-width:0.8;stroke-linecap:square;stroke-linejoin:round;stroke-miterlimit:10;stroke-dasharray:none;stroke-opacity:1"
           id="path244" /></g></g><path
       d="M 42.061801,286.30818 H 40.048425"
       style="fill:#000000;fill-opacity:1;fill-rule:nonzero;stroke:#000000;stroke-width:0.460201;stroke-linecap:butt;stroke-linejoin:round;stroke-miterlimit:10;stroke-dasharray:none;stroke-opacity:1"
       id="path248" /><g
       id="g254"
       transform="matrix(0.57525052,0,0,0.57525052,8.9273715,141.97461)"><g
         id="g256"
         clip-path="url(#clipPath260)"><path
           d="M 57.6,304.128 H 414.72"
           style="fill:none;stroke:#b0b0b0;stroke-width:0.8;stroke-linecap:square;stroke-linejoin:round;stroke-miterlimit:10;stroke-dasharray:none;stroke-opacity:1"
           id="path262" /></g></g><path
       d="M 42.061801,316.9244 H 40.048425"
       style="fill:#000000;fill-opacity:1;fill-rule:nonzero;stroke:#000000;stroke-width:0.460201;stroke-linecap:butt;stroke-linejoin:round;stroke-miterlimit:10;stroke-dasharray:none;stroke-opacity:1"
       id="path266" /><g
       id="g276"
       transform="matrix(0.57525052,0,0,0.57525052,8.9273715,141.97461)"><g
         id="g278"
         clip-path="url(#clipPath282)"><path
           d="m 57.6,267.88516 4.520506,-2.59022 4.520507,-22.62733 4.520506,-13.49669 4.520506,-9.37179 4.520507,-4.50633 4.520506,-3.75793 4.520506,-5.49541 4.520507,-5.17459 4.520506,-3.38686 4.520503,-2.16748 4.52051,-7.95022 4.52051,-0.60402 4.5205,-2.15877 4.52051,-1.20203 4.52051,-0.2058 4.5205,-1.83813 4.52051,-0.41356 4.5205,-2.85068 4.52051,-0.44664 4.52051,1.67425 4.5205,-3.43277 4.52051,0.1281 4.52051,-0.72622 4.5205,-3.68853 4.52051,-1.41355 4.5205,-0.035 4.52051,-1.96394 4.52051,-4.6026 4.5205,-0.39572 4.52051,-2.799 4.52051,1.99732 4.5205,-2.78417 4.52051,-1.45704 4.5205,-0.93807 4.52051,-0.99712 4.52051,-3.75071 4.5205,4.69661 4.52051,1.62058 4.52051,3.44723 4.5205,-2.63393 4.52051,8.07914 4.52051,-4.32543 4.5205,1.18464 4.52051,-2.33957 4.5205,-3.41967 4.52051,1.52 4.52051,5.37068 4.5205,-3.28551 4.52051,-3.52205 4.52051,1.6828 4.5205,1.24197 4.52051,-0.78995 4.5205,-1.70126 4.52051,-0.44026 4.52051,-3.28883 4.5205,-1.60198 4.52051,-0.96528 4.52051,-5.44747 4.5205,1.32636 4.52051,-1.2326 4.52051,-3.86974 4.5205,-2.18555 4.52051,3.83108 4.5205,-2.88375 4.52051,2.92725 4.52051,-0.62643 4.5205,11.3223 4.52051,-1.43796 4.52051,-7.4605 4.5205,8.2794 4.52051,-1.5502 4.52051,-0.17967 4.5205,-4.55826 4.52051,-3.71171 4.5205,0.59011 4.52051,-3.97929 4.52051,4.25043 4.5205,-9.36556 4.52051,10.4999"
           style="fill:none;stroke:#1f77b4;stroke-width:1.5;stroke-linecap:square;stroke-linejoin:round;stroke-miterlimit:10;stroke-dasharray:none;stroke-opacity:1"
           id="path284" /></g></g><g
       id="g286"
       transform="matrix(0.57525052,0,0,0.57525052,8.9273715,141.97461)"><g
         id="g288"
         clip-path="url(#clipPath292)"><path
           d="m 57.6,268.69464 4.520506,-3.46926 4.520507,-22.55526 4.520506,-12.76476 4.520506,-9.19743 4.520507,-5.4272 4.520506,-5.15851 4.520506,-5.70796 4.520507,-4.95353 4.520506,-3.74351 4.520503,-2.30138 4.52051,-8.55833 4.52051,-0.19681 4.5205,-1.84227 4.52051,-1.23052 4.52051,0.31184 4.5205,-1.84776 4.52051,-0.29927 4.5205,-2.93844 4.52051,-1.12511 4.52051,1.66603 4.5205,-3.85786 4.52051,0.61304 4.52051,-1.0407 4.5205,-3.58351 4.52051,-2.00317 4.5205,-0.64412 4.52051,-1.34781 4.52051,-4.60069 4.5205,0.92057 4.52051,-4.14401 4.52051,2.67409 4.5205,-2.35536 4.52051,-2.26331 4.5205,-1.83325 4.52051,-0.63788 4.52051,-4.40515 4.5205,5.55615 4.52051,0.43633 4.52051,4.46091 4.5205,-3.20385 4.52051,9.29744 4.52051,-5.32011 4.5205,2.09812 4.52051,-3.22811 4.5205,-3.20468 4.52051,0.63988 4.52051,6.25557 4.5205,-3.10088 4.52051,-4.5769 4.52051,2.30542 4.5205,1.97749 4.52051,-2.37671 4.5205,-1.17129 4.52051,-1.06341 4.52051,-3.15364 4.5205,-0.72513 4.52051,0.18715 4.52051,-6.34018 4.5205,1.96387 4.52051,-1.154 4.52051,-1.38982 4.5205,-3.54424 4.52051,3.61976 4.5205,-3.59561 4.52051,3.88692 4.52051,-0.87823 4.5205,11.77357 4.52051,-1.92005 4.52051,-7.49667 4.5205,7.68442 4.52051,-0.33975 4.52051,-0.91464 4.5205,-3.83953 4.52051,-5.9523 4.5205,1.96533 4.52051,-4.13678 4.52051,6.72724 4.5205,-3.6798 4.52051,7.34204"
           style="fill:none;stroke:#ff7f0e;stroke-width:1.5;stroke-linecap:square;stroke-linejoin:round;stroke-miterlimit:10;stroke-dasharray:none;stroke-opacity:1"
           id="path294" /></g></g><g
       id="g296"
       transform="matrix(0.57525052,0,0,0.57525052,8.9273715,141.97461)"><g
         id="g298"
         clip-path="url(#clipPath302)"><path
           d="m 57.6,268.90547 4.520506,-3.11289 4.520507,-22.51286 4.520506,-12.80899 4.520506,-9.29107 4.520507,-5.80835 4.520506,-5.22819 4.520506,-5.6349 4.520507,-5.05952 4.520506,-3.8503 4.520503,-2.40603 4.52051,-8.51002 4.52051,-0.51082 4.5205,-1.95014 4.52051,-1.39602 4.52051,0.19332 4.5205,-1.83757 4.52051,-0.39024 4.5205,-2.99478 4.52051,-0.87358 4.52051,1.55943 4.5205,-3.68685 4.52051,0.1754 4.52051,-0.99836 4.5205,-3.60473 4.52051,-2.26352 4.5205,-0.16368 4.52051,-1.25067 4.52051,-4.19186 4.5205,1.14939 4.52051,-4.39157 4.52051,3.55915 4.5205,-2.7478 4.52051,-1.39607 4.5205,-1.98556 4.52051,-0.30335 4.52051,-4.73987 4.5205,6.17058 4.52051,0.0958 4.52051,4.95041 4.5205,-3.81079 4.52051,9.73181 4.52051,-5.48676 4.5205,2.06078 4.52051,-3.02124 4.5205,-3.24185 4.52051,0.67218 4.52051,5.57218 4.5205,-3.18524 4.52051,-5.19983 4.52051,2.46075 4.5205,2.04576 4.52051,-1.19386 4.5205,-2.14806 4.52051,-0.79682 4.52051,-3.19505 4.5205,-0.31585 4.52051,-0.15635 4.52051,-5.66963 4.5205,2.25634 4.52051,-0.89888 4.52051,-1.66552 4.5205,-3.62271 4.52051,2.63018 4.5205,-2.69801 4.52051,2.75668 4.52051,-0.59049 4.5205,10.99711 4.52051,-0.95842 4.52051,-7.73023 4.5205,6.2013 4.52051,1.32832 4.52051,-0.74476 4.5205,-5.2767 4.52051,-5.59997 4.5205,3.39763 4.52051,-4.98765 4.52051,7.08589 4.5205,-4.12605 4.52051,7.59545"
           style="fill:none;stroke:#2ca02c;stroke-width:1.5;stroke-linecap:square;stroke-linejoin:round;stroke-miterlimit:10;stroke-dasharray:none;stroke-opacity:1"
           id="path304" /></g></g><g
       id="g306"
       transform="matrix(0.57525052,0,0,0.57525052,8.9273715,141.97461)"><g
         id="g308"
         clip-path="url(#clipPath312)"><path
           d="m 57.6,291.33455 4.520506,-7.97588 4.520507,-4.8207 4.520506,-2.38273 4.520506,-2.00584 4.520507,-0.8177 4.520506,-1.00394 4.520506,0.60452 4.520507,1.48061 4.520506,-4.08417 4.520503,1.43761 4.52051,-2.29967 4.52051,-2.87616 4.5205,-2.94062 4.52051,-2.24327 4.52051,-0.91396 4.5205,-1.91909 4.52051,-3.5274 4.5205,-1.53337 4.52051,-0.79363 4.52051,0.89746 4.5205,-3.40467 4.52051,0.89957 4.52051,-2.04818 4.5205,-1.32803 4.52051,-1.50822 4.5205,-2.06081 4.52051,0.35137 4.52051,1.70884 4.5205,-2.52509 4.52051,2.31069 4.52051,-3.76933 4.5205,-1.28512 4.52051,1.10747 4.5205,-1.31698 4.52051,1.28513 4.52051,-1.23017 4.5205,-3.43215 4.52051,-0.57387 4.52051,-0.66158 4.5205,-4.26573 4.52051,3.76297 4.52051,-4.57296 4.5205,1.18952 4.52051,-1.79374 4.5205,1.75614 4.52051,-8.31694 4.52051,6.77865 4.5205,-3.12846 4.52051,2.13633 4.52051,-0.0157 4.5205,0.77044 4.52051,1.60323 4.5205,-2.58385 4.52051,-3.66528 4.52051,1.26863 4.5205,2.36397 4.52051,1.22917 4.52051,-0.2502 4.5205,4.81668 4.52051,3.0338 4.52051,2.88561 4.5205,4.63507 4.52051,0.39739 4.5205,-9.20888 4.52051,-4.23291 4.52051,0.58426 4.5205,-9.93724 4.52051,1.45325 4.52051,-5.65994 4.5205,-2.99307 4.52051,-0.0567 4.52051,7.07205 4.5205,-3.81844 4.52051,5.61888 4.5205,-1.4272 4.52051,1.17987 4.52051,-12.24688 4.5205,-3.91389 4.52051,-4.54304"
           style="fill:none;stroke:#d62728;stroke-width:1.5;stroke-linecap:square;stroke-linejoin:round;stroke-miterlimit:10;stroke-dasharray:none;stroke-opacity:1"
           id="path314" /></g></g><path
       d="M 42.061801,163.84334 V 316.9244"
       style="fill:none;stroke:#000000;stroke-width:0.460201;stroke-linecap:square;stroke-linejoin:miter;stroke-miterlimit:10;stroke-dasharray:none;stroke-opacity:1"
       id="path318" /><path
       d="M 247.49527,163.84334 V 316.9244"
       style="fill:none;stroke:#000000;stroke-width:0.460201;stroke-linecap:square;stroke-linejoin:miter;stroke-miterlimit:10;stroke-dasharray:none;stroke-opacity:1"
       id="path320" /><path
       d="M 42.061801,163.84334 H 247.49527"
       style="fill:none;stroke:#000000;stroke-width:0.460201;stroke-linecap:square;stroke-linejoin:miter;stroke-miterlimit:10;stroke-dasharray:none;stroke-opacity:1"
       id="path322" /><path
       d="M 42.061801,316.9244 H 247.49527"
       style="fill:none;stroke:#000000;stroke-width:0.460201;stroke-linecap:square;stroke-linejoin:miter;stroke-miterlimit:10;stroke-dasharray:none;stroke-opacity:1"
       id="path324" /><text
       transform="scale(1,-1)"
       style="font-variant:normal;font-weight:normal;font-size:6.90301px;font-family:'DejaVu Sans';-inkscape-font-specification:DejaVuSans;writing-mode:lr-tb;fill:#000000;fill-opacity:1;fill-rule:nonzero;stroke:none;stroke-width:0.57525"
       id="text328"
       x="73.739586"
       y="-328.11301"><tspan
         x="73.739586 77.9021 82.147453 86.378998 89.216125 92.812599 97.037239 101.41374 103.60889 107.40554 111.63019 114.46732 117.30447 121.54981 123.46885 127.70039 130.40637 132.32539 136.55005 140.92654 143.1217 147.2083 150.80475 152.99989 155.19507 159.57848 163.82382 168.20032 172.42497 179.1485 181.06754 184.86418 187.05934 191.44275 193.36179 196.95824 199.66423 203.89577 208.27226 212.06892"
         y="-328.11301"
         sodipodi:role="line"
         id="tspan326"
         style="stroke-width:0.57525">Pearson correlation vs. genomic distance</tspan></text><text
       transform="scale(1,-1)"
       style="font-variant:normal;font-weight:normal;font-size:6.90301px;font-family:'DejaVu Sans';-inkscape-font-specification:DejaVuSans;writing-mode:lr-tb;fill:#000000;fill-opacity:1;fill-rule:nonzero;stroke:none;stroke-width:0.57525"
       id="text332"
       x="45.792515"
       y="-320.37589"><tspan
         x="45.792515 51.142345 57.099644 61.489952 65.880264 70.270576 74.660889 79.051193 81.246361 83.441513 87.831825 90.026985 94.41729 96.612457 101.00276 103.19791 107.58823 109.78338 114.1737 116.36886 120.75917 125.14948 127.34463 131.73494 136.12526 138.32042 142.71072 147.10103 149.29619 153.68649 158.07683 160.27197 164.66229 169.0526 171.24774 175.63808 180.02838 182.22354 186.61385 191.00417 193.19931 197.58963 201.97993 204.17511 208.39973 212.77625 214.97141 219.49977 223.89009 228.2804 232.67072 234.86586 237.06102 241.45134"
         y="-320.37589"
         sodipodi:role="line"
         id="tspan330"
         style="stroke-width:0.57525">GM12878, 1,2,4,7,9,11,13,14,16,17,18,20,22 on K562, 19</tspan></text><path
       d="M 54.496285,198.26662 H 66.001296"
       style="fill:none;stroke:#1f77b4;stroke-width:0.862876;stroke-linecap:square;stroke-linejoin:round;stroke-miterlimit:10;stroke-dasharray:none;stroke-opacity:1"
       id="path334" /><text
       transform="scale(1,-1)"
       style="font-variant:normal;font-weight:normal;font-size:5.7525px;font-family:'DejaVu Sans';-inkscape-font-specification:DejaVuSans;writing-mode:lr-tb;fill:#000000;fill-opacity:1;fill-rule:nonzero;stroke:none;stroke-width:0.57525"
       id="text338"
       x="70.603302"
       y="-196.25322"><tspan
         x="70.603302 74.261894 77.920494 81.579079 85.116859 88.769707 90.598999 92.537605 94.366905 98.301605 102.51244 106.52768 108.4663 110.29559 113.95418 115.78349 119.44206 123.10067"
         y="-196.25322"
         sodipodi:role="line"
         id="tspan336"
         style="stroke-width:0.57525">500ep / AUC: 0.490</tspan></text><path
       d="M 54.496285,189.82661 H 66.001296"
       style="fill:none;stroke:#ff7f0e;stroke-width:0.862876;stroke-linecap:square;stroke-linejoin:round;stroke-miterlimit:10;stroke-dasharray:none;stroke-opacity:1"
       id="path340" /><text
       transform="scale(1,-1)"
       style="font-variant:normal;font-weight:normal;font-size:5.7525px;font-family:'DejaVu Sans';-inkscape-font-specification:DejaVuSans;writing-mode:lr-tb;fill:#000000;fill-opacity:1;fill-rule:nonzero;stroke:none;stroke-width:0.57525"
       id="text344"
       x="70.603302"
       y="-187.8132"><tspan
         x="70.603302 74.261894 77.920494 81.579079 85.237671 88.775467 92.428307 94.257599 96.19619 98.025482 101.96019 106.17103 110.18629 112.12488 113.95418 117.61278 119.44206 123.10067 126.75925"
         y="-187.8132"
         sodipodi:role="line"
         id="tspan342"
         style="stroke-width:0.57525">1000ep / AUC: 0.483</tspan></text><path
       d="M 54.496285,181.38661 H 66.001296"
       style="fill:none;stroke:#2ca02c;stroke-width:0.862876;stroke-linecap:square;stroke-linejoin:round;stroke-miterlimit:10;stroke-dasharray:none;stroke-opacity:1"
       id="path346" /><text
       transform="scale(1,-1)"
       style="font-variant:normal;font-weight:normal;font-size:5.7525px;font-family:'DejaVu Sans';-inkscape-font-specification:DejaVuSans;writing-mode:lr-tb;fill:#000000;fill-opacity:1;fill-rule:nonzero;stroke:none;stroke-width:0.57525"
       id="text350"
       x="70.603302"
       y="-179.3732"><tspan
         x="70.603302 74.261894 77.920494 81.579079 85.237671 88.775467 92.428307 94.257599 96.19619 98.025482 101.96019 106.17103 110.18629 112.12488 113.95418 117.61278 119.44206 123.10067 126.75925"
         y="-179.3732"
         sodipodi:role="line"
         id="tspan348"
         style="stroke-width:0.57525">1500ep / AUC: 0.485</tspan></text><path
       d="M 54.496285,172.94661 H 66.001296"
       style="fill:none;stroke:#d62728;stroke-width:0.862876;stroke-linecap:square;stroke-linejoin:round;stroke-miterlimit:10;stroke-dasharray:none;stroke-opacity:1"
       id="path352" /><text
       transform="scale(1,-1)"
       style="font-variant:normal;font-weight:normal;font-size:5.7525px;font-family:'DejaVu Sans';-inkscape-font-specification:DejaVuSans;writing-mode:lr-tb;fill:#000000;fill-opacity:1;fill-rule:nonzero;stroke:none;stroke-width:0.57525"
       id="text356"
       x="70.603302"
       y="-170.9332"><tspan
         x="70.603302 72.858284 75.222557 78.748848 82.395927 85.392982 87.417862 90.955673 93.319939 95.149231 99.607422 104.57184 108.23045 111.88902 115.54763 119.20621 122.86481 124.69411 126.6327 128.46199 132.3967 136.60754 140.6228 142.56139 144.39067 148.04929 149.87857 153.53717 157.19577"
         y="-170.9332"
         sodipodi:role="line"
         id="tspan354"
         style="stroke-width:0.57525">transfer GM12878 / AUC: 0.767</tspan></text></g><g
     inkscape:groupmode="layer"
     id="layer1"
     inkscape:label="text"
     transform="translate(-28.023958,-17.206424)"><text
       style="font-variant:normal;font-weight:normal;font-size:7.67001px;font-family:'DejaVu Sans';-inkscape-font-specification:DejaVuSans;writing-mode:lr-tb;fill:#000000;fill-opacity:1;fill-rule:nonzero;stroke:none;stroke-width:0.767001"
       id="text32"
       x="47.543526"
       y="253.53563"><tspan
         x="47.543526 52.421646 54.860714 59.738838"
         y="253.53563"
         sodipodi:role="line"
         id="tspan30"
         style="stroke-width:0.767001">0.00</tspan></text><text
       style="font-variant:normal;font-weight:normal;font-size:7.67001px;font-family:'DejaVu Sans';-inkscape-font-specification:DejaVuSans;writing-mode:lr-tb;fill:#000000;fill-opacity:1;fill-rule:nonzero;stroke:none;stroke-width:0.767001"
       id="text50"
       x="82.215836"
       y="253.53563"><tspan
         x="82.215836 87.093964 89.53302 94.411156"
         y="253.53563"
         sodipodi:role="line"
         id="tspan48"
         style="stroke-width:0.767001">0.25</tspan></text><text
       style="font-variant:normal;font-weight:normal;font-size:7.67001px;font-family:'DejaVu Sans';-inkscape-font-specification:DejaVuSans;writing-mode:lr-tb;fill:#000000;fill-opacity:1;fill-rule:nonzero;stroke:none;stroke-width:0.767001"
       id="text68"
       x="116.88815"
       y="253.53563"><tspan
         x="116.88815 121.76627 124.20535 129.08347"
         y="253.53563"
         sodipodi:role="line"
         id="tspan66"
         style="stroke-width:0.767001">0.50</tspan></text><text
       style="font-variant:normal;font-weight:normal;font-size:7.67001px;font-family:'DejaVu Sans';-inkscape-font-specification:DejaVuSans;writing-mode:lr-tb;fill:#000000;fill-opacity:1;fill-rule:nonzero;stroke:none;stroke-width:0.767001"
       id="text86"
       x="151.56047"
       y="253.53563"><tspan
         x="151.56047 156.43858 158.87766 163.75578"
         y="253.53563"
         sodipodi:role="line"
         id="tspan84"
         style="stroke-width:0.767001">0.75</tspan></text><text
       style="font-variant:normal;font-weight:normal;font-size:7.67001px;font-family:'DejaVu Sans';-inkscape-font-specification:DejaVuSans;writing-mode:lr-tb;fill:#000000;fill-opacity:1;fill-rule:nonzero;stroke:none;stroke-width:0.767001"
       id="text104"
       x="186.23279"
       y="253.53563"><tspan
         x="186.23279 191.11092 193.54996 198.4281"
         y="253.53563"
         sodipodi:role="line"
         id="tspan102"
         style="stroke-width:0.767001">1.00</tspan></text><text
       style="font-variant:normal;font-weight:normal;font-size:7.67001px;font-family:'DejaVu Sans';-inkscape-font-specification:DejaVuSans;writing-mode:lr-tb;fill:#000000;fill-opacity:1;fill-rule:nonzero;stroke:none;stroke-width:0.767001"
       id="text122"
       x="220.90508"
       y="253.53563"><tspan
         x="220.90508 225.78323 228.22227 233.10039"
         y="253.53563"
         sodipodi:role="line"
         id="tspan120"
         style="stroke-width:0.767001">1.25</tspan></text><text
       style="font-variant:normal;font-weight:normal;font-size:7.67001px;font-family:'DejaVu Sans';-inkscape-font-specification:DejaVuSans;writing-mode:lr-tb;fill:#000000;fill-opacity:1;fill-rule:nonzero;stroke:none;stroke-width:0.767001"
       id="text140"
       x="255.57741"
       y="253.53563"><tspan
         x="255.57741 260.45554 262.89462 267.77271"
         y="253.53563"
         sodipodi:role="line"
         id="tspan138"
         style="stroke-width:0.767001">1.50</tspan></text><text
       style="font-variant:normal;font-weight:normal;font-size:7.67001px;font-family:'DejaVu Sans';-inkscape-font-specification:DejaVuSans;writing-mode:lr-tb;fill:#000000;fill-opacity:1;fill-rule:nonzero;stroke:none;stroke-width:0.767001"
       id="text158"
       x="290.24969"
       y="253.53563"><tspan
         x="290.24969 295.12787 297.56689 302.44507"
         y="253.53563"
         sodipodi:role="line"
         id="tspan156"
         style="stroke-width:0.767001">1.75</tspan></text><text
       style="font-variant:normal;font-weight:normal;font-size:7.67001px;font-family:'DejaVu Sans';-inkscape-font-specification:DejaVuSans;writing-mode:lr-tb;fill:#000000;fill-opacity:1;fill-rule:nonzero;stroke:none;stroke-width:0.767001"
       id="text162"
       x="146.61653"
       y="264.02203"><tspan
         x="146.61653 152.56078 157.27783 162.14061 166.83466 174.30525 176.4375 180.65601 183.09508 187.96553 190.09778 194.09387 197.10049 201.80223 206.66501 210.88351 215.60057 218.03963 220.6244 223.06348 229.68269 234.55315"
         y="264.02203"
         sodipodi:role="line"
         id="tspan160"
         style="stroke-width:0.767001">Genomic distance / Mbp</tspan></text><text
       style="font-variant:normal;font-weight:normal;font-size:7.67001px;font-family:'DejaVu Sans';-inkscape-font-specification:DejaVuSans;writing-mode:lr-tb;fill:#000000;fill-opacity:1;fill-rule:nonzero;stroke:none;stroke-width:0.767001"
       id="text180"
       x="38.51329"
       y="245.25443"><tspan
         x="38.51329 43.391415 45.830475"
         y="245.25443"
         sodipodi:role="line"
         id="tspan178"
         style="stroke-width:0.767001">0.0</tspan></text><text
       style="font-variant:normal;font-weight:normal;font-size:7.67001px;font-family:'DejaVu Sans';-inkscape-font-specification:DejaVuSans;writing-mode:lr-tb;fill:#000000;fill-opacity:1;fill-rule:nonzero;stroke:none;stroke-width:0.767001"
       id="text198"
       x="38.51329"
       y="204.4328"><tspan
         x="38.51329 43.391415 45.830475"
         y="204.4328"
         sodipodi:role="line"
         id="tspan196"
         style="stroke-width:0.767001">0.2</tspan></text><text
       style="font-variant:normal;font-weight:normal;font-size:7.67001px;font-family:'DejaVu Sans';-inkscape-font-specification:DejaVuSans;writing-mode:lr-tb;fill:#000000;fill-opacity:1;fill-rule:nonzero;stroke:none;stroke-width:0.767001"
       id="text216"
       x="38.51329"
       y="163.61118"><tspan
         x="38.51329 43.391415 45.830475"
         y="163.61118"
         sodipodi:role="line"
         id="tspan214"
         style="stroke-width:0.767001">0.4</tspan></text><text
       style="font-variant:normal;font-weight:normal;font-size:7.67001px;font-family:'DejaVu Sans';-inkscape-font-specification:DejaVuSans;writing-mode:lr-tb;fill:#000000;fill-opacity:1;fill-rule:nonzero;stroke:none;stroke-width:0.767001"
       id="text234"
       x="38.51329"
       y="122.7896"><tspan
         x="38.51329 43.391415 45.830475"
         y="122.7896"
         sodipodi:role="line"
         id="tspan232"
         style="stroke-width:0.767001">0.6</tspan></text><text
       style="font-variant:normal;font-weight:normal;font-size:7.67001px;font-family:'DejaVu Sans';-inkscape-font-specification:DejaVuSans;writing-mode:lr-tb;fill:#000000;fill-opacity:1;fill-rule:nonzero;stroke:none;stroke-width:0.767001"
       id="text252"
       x="38.51329"
       y="81.96801"><tspan
         x="38.51329 43.391415 45.830475"
         y="81.96801"
         sodipodi:role="line"
         id="tspan250"
         style="stroke-width:0.767001">0.8</tspan></text><text
       style="font-variant:normal;font-weight:normal;font-size:7.67001px;font-family:'DejaVu Sans';-inkscape-font-specification:DejaVuSans;writing-mode:lr-tb;fill:#000000;fill-opacity:1;fill-rule:nonzero;stroke:none;stroke-width:0.767001"
       id="text270"
       x="38.51329"
       y="41.1464"><tspan
         x="38.51329 43.391415 45.830475"
         y="41.1464"
         sodipodi:role="line"
         id="tspan268"
         style="stroke-width:0.767001">1.0</tspan></text><text
       transform="rotate(-90)"
       style="font-variant:normal;font-weight:normal;font-size:7.67001px;font-family:'DejaVu Sans';-inkscape-font-specification:DejaVuSans;writing-mode:lr-tb;fill:#000000;fill-opacity:1;fill-rule:nonzero;stroke:none;stroke-width:0.767001"
       id="text274"
       x="-177.3439"
       y="33.851364"><tspan
         x="-177.3439 -172.71889 -168.00183 -163.30011 -160.14774 -156.15166 -151.45763 -146.59483 -144.15578 -139.93727 -135.24323 -132.09085 -128.93848 -124.2215 -122.08922 -117.3875 -114.38087 -112.2486 -107.55457"
         y="33.851364"
         sodipodi:role="line"
         id="tspan272"
         style="stroke-width:0.767001">Pearson correlation</tspan></text></g></svg>
