<?xml version="1.0" encoding="UTF-8" standalone="no"?>
<svg
   xmlns:dc="http://purl.org/dc/elements/1.1/"
   xmlns:cc="http://creativecommons.org/ns#"
   xmlns:rdf="http://www.w3.org/1999/02/22-rdf-syntax-ns#"
   xmlns:svg="http://www.w3.org/2000/svg"
   xmlns="http://www.w3.org/2000/svg"
   xmlns:sodipodi="http://sodipodi.sourceforge.net/DTD/sodipodi-0.dtd"
   xmlns:inkscape="http://www.inkscape.org/namespaces/inkscape"
   version="1.1"
   id="svg2"
   xml:space="preserve"
   width="80mm"
   height="65.300003mm"
   viewBox="0 0 302.36219 246.80316"
   sodipodi:docname="pearson_chr03.svg"
   inkscape:version="1.0.2 (1.0.2+r75+1)"><metadata
     id="metadata8"><rdf:RDF><cc:Work
         rdf:about=""><dc:format>image/svg+xml</dc:format><dc:type
           rdf:resource="http://purl.org/dc/dcmitype/StillImage" /><dc:title></dc:title></cc:Work></rdf:RDF></metadata><defs
     id="defs6"><clipPath
       clipPathUnits="userSpaceOnUse"
       id="clipPath22"><path
         d="M 57.6,38.016 H 414.72 V 304.128 H 57.6 Z"
         id="path20" /></clipPath><clipPath
       clipPathUnits="userSpaceOnUse"
       id="clipPath40"><path
         d="M 57.6,38.016 H 414.72 V 304.128 H 57.6 Z"
         id="path38" /></clipPath><clipPath
       clipPathUnits="userSpaceOnUse"
       id="clipPath58"><path
         d="M 57.6,38.016 H 414.72 V 304.128 H 57.6 Z"
         id="path56" /></clipPath><clipPath
       clipPathUnits="userSpaceOnUse"
       id="clipPath76"><path
         d="M 57.6,38.016 H 414.72 V 304.128 H 57.6 Z"
         id="path74" /></clipPath><clipPath
       clipPathUnits="userSpaceOnUse"
       id="clipPath94"><path
         d="M 57.6,38.016 H 414.72 V 304.128 H 57.6 Z"
         id="path92" /></clipPath><clipPath
       clipPathUnits="userSpaceOnUse"
       id="clipPath112"><path
         d="M 57.6,38.016 H 414.72 V 304.128 H 57.6 Z"
         id="path110" /></clipPath><clipPath
       clipPathUnits="userSpaceOnUse"
       id="clipPath130"><path
         d="M 57.6,38.016 H 414.72 V 304.128 H 57.6 Z"
         id="path128" /></clipPath><clipPath
       clipPathUnits="userSpaceOnUse"
       id="clipPath148"><path
         d="M 57.6,38.016 H 414.72 V 304.128 H 57.6 Z"
         id="path146" /></clipPath><clipPath
       clipPathUnits="userSpaceOnUse"
       id="clipPath170"><path
         d="M 57.6,38.016 H 414.72 V 304.128 H 57.6 Z"
         id="path168" /></clipPath><clipPath
       clipPathUnits="userSpaceOnUse"
       id="clipPath188"><path
         d="M 57.6,38.016 H 414.72 V 304.128 H 57.6 Z"
         id="path186" /></clipPath><clipPath
       clipPathUnits="userSpaceOnUse"
       id="clipPath206"><path
         d="M 57.6,38.016 H 414.72 V 304.128 H 57.6 Z"
         id="path204" /></clipPath><clipPath
       clipPathUnits="userSpaceOnUse"
       id="clipPath224"><path
         d="M 57.6,38.016 H 414.72 V 304.128 H 57.6 Z"
         id="path222" /></clipPath><clipPath
       clipPathUnits="userSpaceOnUse"
       id="clipPath242"><path
         d="M 57.6,38.016 H 414.72 V 304.128 H 57.6 Z"
         id="path240" /></clipPath><clipPath
       clipPathUnits="userSpaceOnUse"
       id="clipPath260"><path
         d="M 57.6,38.016 H 414.72 V 304.128 H 57.6 Z"
         id="path258" /></clipPath><clipPath
       clipPathUnits="userSpaceOnUse"
       id="clipPath282"><path
         d="M 57.6,38.016 H 414.72 V 304.128 H 57.6 Z"
         id="path280" /></clipPath><clipPath
       clipPathUnits="userSpaceOnUse"
       id="clipPath292"><path
         d="M 57.6,38.016 H 414.72 V 304.128 H 57.6 Z"
         id="path290" /></clipPath><clipPath
       clipPathUnits="userSpaceOnUse"
       id="clipPath302"><path
         d="M 57.6,38.016 H 414.72 V 304.128 H 57.6 Z"
         id="path300" /></clipPath><clipPath
       clipPathUnits="userSpaceOnUse"
       id="clipPath312"><path
         d="M 57.6,38.016 H 414.72 V 304.128 H 57.6 Z"
         id="path310" /></clipPath><clipPath
       clipPathUnits="userSpaceOnUse"
       id="clipPath322"><path
         d="M 57.6,38.016 H 414.72 V 304.128 H 57.6 Z"
         id="path320" /></clipPath></defs><sodipodi:namedview
     pagecolor="#ffffff"
     bordercolor="#666666"
     borderopacity="1"
     objecttolerance="10"
     gridtolerance="10"
     guidetolerance="10"
     inkscape:pageopacity="0"
     inkscape:pageshadow="2"
     inkscape:window-width="1920"
     inkscape:window-height="1020"
     id="namedview4"
     showgrid="false"
     fit-margin-top="0"
     fit-margin-left="0"
     fit-margin-right="0"
     fit-margin-bottom="0"
     units="mm"
     inkscape:zoom="2.6301672"
     inkscape:cx="188.26125"
     inkscape:cy="157.84189"
     inkscape:window-x="0"
     inkscape:window-y="0"
     inkscape:window-maximized="1"
     inkscape:current-layer="g10" /><g
     id="g10"
     inkscape:groupmode="layer"
     inkscape:label="pearson_chr03"
     transform="matrix(1.3333333,0,0,-1.3333333,-28.023958,443.59358)"><g
       id="g318"
       clip-path="url(#clipPath322)"
       style="fill:none;fill-opacity:1;stroke:#d62728;stroke-opacity:1"
       transform="matrix(0.57532749,0,0,0.57532749,8.9257536,141.96366)"><path
         d="m 57.6,249.59067 5.668571,-5.03852 5.668572,-4.18733 5.668571,-2.46767 5.668572,0.37439 5.668571,1.72112 5.668572,-0.004 5.668571,1.51314 5.66857,1.39577 5.66857,-0.89786 5.66857,1.96613 5.66858,1.33749 5.66857,-0.53189 5.66857,-2.68686 5.66857,-1.81133 5.66857,-4.1856 5.66857,-2.53148 5.66857,-1.62903 5.66858,-2.88153 5.66857,-2.91804 5.66857,-4.21862 5.66857,0.17346 5.66857,-1.68093 5.66857,-2.96491 5.66857,-2.59023 5.66858,-1.97438 5.66857,-1.69155 5.66857,-6.55182 5.66857,3.0325 5.66857,-1.88589 5.66857,1.14505 5.66857,-1.59183 5.66858,0.42152 5.66857,-0.92409 5.66857,-3.43764 5.66857,0.65537 5.66857,0.34486 5.66857,-2.51059 5.66857,5.26589 5.66858,0.2239 5.66857,-1.05603 5.66857,-1.41809 5.66857,-0.18235 5.66857,1.59826 5.66857,3.46085 5.66857,-1.19037 5.66858,-2.84335 5.66857,-0.1945 5.66857,6.00871 5.66857,-1.8039 5.66857,-5.30133 5.66857,6.73212 5.66857,-2.78949 5.66858,-5.02578 5.66857,-2.16497 5.66857,5.86576 5.66857,-1.69485 5.66857,-2.8213 5.66857,0.0801 5.66857,2.4624 5.66858,0.61762 5.66857,0.28287 5.66857,-2.82845 5.66857,3.48401"
         style="fill:none;fill-opacity:1;stroke:#d62728;stroke-width:1.5;stroke-linecap:square;stroke-linejoin:round;stroke-miterlimit:10;stroke-dasharray:none;stroke-opacity:1"
         id="path324" /></g><g
       id="g16"
       transform="matrix(0.57532749,0,0,0.57532749,8.9257536,141.96366)"><g
         id="g18"
         clip-path="url(#clipPath22)"><path
           d="M 57.6,38.016 V 304.128"
           style="fill:none;stroke:#b0b0b0;stroke-width:0.8;stroke-linecap:square;stroke-linejoin:round;stroke-miterlimit:10;stroke-dasharray:none;stroke-opacity:1"
           id="path24" /></g></g><path
       d="m 42.064618,163.83531 v -2.01365"
       style="fill:#000000;fill-opacity:1;fill-rule:nonzero;stroke:#000000;stroke-width:0.460262;stroke-linecap:butt;stroke-linejoin:round;stroke-miterlimit:10;stroke-dasharray:none;stroke-opacity:1"
       id="path28" /><text
       transform="scale(1,-1)"
       style="font-variant:normal;font-weight:normal;font-size:5.75328px;font-family:'DejaVu Sans';-inkscape-font-specification:DejaVuSans;writing-mode:lr-tb;fill:#000000;fill-opacity:1;fill-rule:nonzero;stroke:none;stroke-width:0.575328"
       id="text32"
       x="40.488968"
       y="-155.43921"><tspan
         x="40.488968 44.148048 45.977589"
         y="-155.43921"
         sodipodi:role="line"
         id="tspan30"
         style="stroke-width:0.575328">0.0</tspan></text><g
       id="g34"
       transform="matrix(0.57532749,0,0,0.57532749,8.9257536,141.96366)"><g
         id="g36"
         clip-path="url(#clipPath40)"><path
           d="M 102.94857,38.016 V 304.128"
           style="fill:none;stroke:#b0b0b0;stroke-width:0.8;stroke-linecap:square;stroke-linejoin:round;stroke-miterlimit:10;stroke-dasharray:none;stroke-opacity:1"
           id="path42" /></g></g><path
       d="m 68.154897,163.83531 v -2.01365"
       style="fill:#000000;fill-opacity:1;fill-rule:nonzero;stroke:#000000;stroke-width:0.460262;stroke-linecap:butt;stroke-linejoin:round;stroke-miterlimit:10;stroke-dasharray:none;stroke-opacity:1"
       id="path46" /><text
       transform="scale(1,-1)"
       style="font-variant:normal;font-weight:normal;font-size:5.75328px;font-family:'DejaVu Sans';-inkscape-font-specification:DejaVuSans;writing-mode:lr-tb;fill:#000000;fill-opacity:1;fill-rule:nonzero;stroke:none;stroke-width:0.575328"
       id="text50"
       x="63.579247"
       y="-155.43921"><tspan
         x="63.579247 67.238327 69.067879"
         y="-155.43921"
         sodipodi:role="line"
         id="tspan48"
         style="stroke-width:0.575328">0.2</tspan></text><g
       id="g52"
       transform="matrix(0.57532749,0,0,0.57532749,8.9257536,141.96366)"><g
         id="g54"
         clip-path="url(#clipPath58)"><path
           d="M 148.29714,38.016 V 304.128"
           style="fill:none;stroke:#b0b0b0;stroke-width:0.8;stroke-linecap:square;stroke-linejoin:round;stroke-miterlimit:10;stroke-dasharray:none;stroke-opacity:1"
           id="path60" /></g></g><path
       d="m 94.245176,163.83531 v -2.01365"
       style="fill:#000000;fill-opacity:1;fill-rule:nonzero;stroke:#000000;stroke-width:0.460262;stroke-linecap:butt;stroke-linejoin:round;stroke-miterlimit:10;stroke-dasharray:none;stroke-opacity:1"
       id="path64" /><text
       transform="scale(1,-1)"
       style="font-variant:normal;font-weight:normal;font-size:5.75328px;font-family:'DejaVu Sans';-inkscape-font-specification:DejaVuSans;writing-mode:lr-tb;fill:#000000;fill-opacity:1;fill-rule:nonzero;stroke:none;stroke-width:0.575328"
       id="text68"
       x="89.669533"
       y="-155.43921"><tspan
         x="89.669533 93.328613 95.15815"
         y="-155.43921"
         sodipodi:role="line"
         id="tspan66"
         style="stroke-width:0.575328">0.4</tspan></text><g
       id="g70"
       transform="matrix(0.57532749,0,0,0.57532749,8.9257536,141.96366)"><g
         id="g72"
         clip-path="url(#clipPath76)"><path
           d="M 193.64571,38.016 V 304.128"
           style="fill:none;stroke:#b0b0b0;stroke-width:0.8;stroke-linecap:square;stroke-linejoin:round;stroke-miterlimit:10;stroke-dasharray:none;stroke-opacity:1"
           id="path78" /></g></g><path
       d="m 120.33546,163.83531 v -2.01365"
       style="fill:#000000;fill-opacity:1;fill-rule:nonzero;stroke:#000000;stroke-width:0.460262;stroke-linecap:butt;stroke-linejoin:round;stroke-miterlimit:10;stroke-dasharray:none;stroke-opacity:1"
       id="path82" /><text
       transform="scale(1,-1)"
       style="font-variant:normal;font-weight:normal;font-size:5.75328px;font-family:'DejaVu Sans';-inkscape-font-specification:DejaVuSans;writing-mode:lr-tb;fill:#000000;fill-opacity:1;fill-rule:nonzero;stroke:none;stroke-width:0.575328"
       id="text86"
       x="115.75981"
       y="-155.43921"><tspan
         x="115.75981 119.41889 121.24843"
         y="-155.43921"
         sodipodi:role="line"
         id="tspan84"
         style="stroke-width:0.575328">0.6</tspan></text><g
       id="g88"
       transform="matrix(0.57532749,0,0,0.57532749,8.9257536,141.96366)"><g
         id="g90"
         clip-path="url(#clipPath94)"><path
           d="M 238.99429,38.016 V 304.128"
           style="fill:none;stroke:#b0b0b0;stroke-width:0.8;stroke-linecap:square;stroke-linejoin:round;stroke-miterlimit:10;stroke-dasharray:none;stroke-opacity:1"
           id="path96" /></g></g><path
       d="m 146.42574,163.83531 v -2.01365"
       style="fill:#000000;fill-opacity:1;fill-rule:nonzero;stroke:#000000;stroke-width:0.460262;stroke-linecap:butt;stroke-linejoin:round;stroke-miterlimit:10;stroke-dasharray:none;stroke-opacity:1"
       id="path100" /><text
       transform="scale(1,-1)"
       style="font-variant:normal;font-weight:normal;font-size:5.75328px;font-family:'DejaVu Sans';-inkscape-font-specification:DejaVuSans;writing-mode:lr-tb;fill:#000000;fill-opacity:1;fill-rule:nonzero;stroke:none;stroke-width:0.575328"
       id="text104"
       x="141.85008"
       y="-155.43921"><tspan
         x="141.85008 145.50917 147.33871"
         y="-155.43921"
         sodipodi:role="line"
         id="tspan102"
         style="stroke-width:0.575328">0.8</tspan></text><g
       id="g106"
       transform="matrix(0.57532749,0,0,0.57532749,8.9257536,141.96366)"><g
         id="g108"
         clip-path="url(#clipPath112)"><path
           d="M 284.34286,38.016 V 304.128"
           style="fill:none;stroke:#b0b0b0;stroke-width:0.8;stroke-linecap:square;stroke-linejoin:round;stroke-miterlimit:10;stroke-dasharray:none;stroke-opacity:1"
           id="path114" /></g></g><path
       d="m 172.51602,163.83531 v -2.01365"
       style="fill:#000000;fill-opacity:1;fill-rule:nonzero;stroke:#000000;stroke-width:0.460262;stroke-linecap:butt;stroke-linejoin:round;stroke-miterlimit:10;stroke-dasharray:none;stroke-opacity:1"
       id="path118" /><text
       transform="scale(1,-1)"
       style="font-variant:normal;font-weight:normal;font-size:5.75328px;font-family:'DejaVu Sans';-inkscape-font-specification:DejaVuSans;writing-mode:lr-tb;fill:#000000;fill-opacity:1;fill-rule:nonzero;stroke:none;stroke-width:0.575328"
       id="text122"
       x="167.94037"
       y="-155.43921"><tspan
         x="167.94037 171.59944 173.42899"
         y="-155.43921"
         sodipodi:role="line"
         id="tspan120"
         style="stroke-width:0.575328">1.0</tspan></text><g
       id="g124"
       transform="matrix(0.57532749,0,0,0.57532749,8.9257536,141.96366)"><g
         id="g126"
         clip-path="url(#clipPath130)"><path
           d="M 329.69143,38.016 V 304.128"
           style="fill:none;stroke:#b0b0b0;stroke-width:0.8;stroke-linecap:square;stroke-linejoin:round;stroke-miterlimit:10;stroke-dasharray:none;stroke-opacity:1"
           id="path132" /></g></g><path
       d="m 198.6063,163.83531 v -2.01365"
       style="fill:#000000;fill-opacity:1;fill-rule:nonzero;stroke:#000000;stroke-width:0.460262;stroke-linecap:butt;stroke-linejoin:round;stroke-miterlimit:10;stroke-dasharray:none;stroke-opacity:1"
       id="path136" /><text
       transform="scale(1,-1)"
       style="font-variant:normal;font-weight:normal;font-size:5.75328px;font-family:'DejaVu Sans';-inkscape-font-specification:DejaVuSans;writing-mode:lr-tb;fill:#000000;fill-opacity:1;fill-rule:nonzero;stroke:none;stroke-width:0.575328"
       id="text140"
       x="194.03065"
       y="-155.43921"><tspan
         x="194.03065 197.68973 199.51926"
         y="-155.43921"
         sodipodi:role="line"
         id="tspan138"
         style="stroke-width:0.575328">1.2</tspan></text><g
       id="g142"
       transform="matrix(0.57532749,0,0,0.57532749,8.9257536,141.96366)"><g
         id="g144"
         clip-path="url(#clipPath148)"><path
           d="M 375.04,38.016 V 304.128"
           style="fill:none;stroke:#b0b0b0;stroke-width:0.8;stroke-linecap:square;stroke-linejoin:round;stroke-miterlimit:10;stroke-dasharray:none;stroke-opacity:1"
           id="path150" /></g></g><path
       d="m 224.69658,163.83531 v -2.01365"
       style="fill:#000000;fill-opacity:1;fill-rule:nonzero;stroke:#000000;stroke-width:0.460262;stroke-linecap:butt;stroke-linejoin:round;stroke-miterlimit:10;stroke-dasharray:none;stroke-opacity:1"
       id="path154" /><text
       transform="scale(1,-1)"
       style="font-variant:normal;font-weight:normal;font-size:5.75328px;font-family:'DejaVu Sans';-inkscape-font-specification:DejaVuSans;writing-mode:lr-tb;fill:#000000;fill-opacity:1;fill-rule:nonzero;stroke:none;stroke-width:0.575328"
       id="text158"
       x="220.12093"
       y="-155.43921"><tspan
         x="220.12093 223.78001 225.60954"
         y="-155.43921"
         sodipodi:role="line"
         id="tspan156"
         style="stroke-width:0.575328">1.4</tspan></text><text
       transform="scale(1,-1)"
       style="font-variant:normal;font-weight:normal;font-size:5.75328px;font-family:'DejaVu Sans';-inkscape-font-specification:DejaVuSans;writing-mode:lr-tb;fill:#000000;fill-opacity:1;fill-rule:nonzero;stroke:none;stroke-width:0.575328"
       id="text162"
       x="109.9743"
       y="-147.57341"><tspan
         x="109.9743 114.43308 117.97134 121.61893 125.13992 130.74362 132.34303 135.50732 137.33688 140.9902 142.58961 145.58707 147.84236 151.36911 155.01669 158.18098 161.71925 163.5488 165.48764 167.31718 172.28226 175.93559"
         y="-147.57341"
         sodipodi:role="line"
         id="tspan160"
         style="stroke-width:0.575328">Genomic distance / Mbp</tspan></text><g
       id="g164"
       transform="matrix(0.57532749,0,0,0.57532749,8.9257536,141.96366)"><g
         id="g166"
         clip-path="url(#clipPath170)"><path
           d="M 57.6,38.016 H 414.72"
           style="fill:none;stroke:#b0b0b0;stroke-width:0.8;stroke-linecap:square;stroke-linejoin:round;stroke-miterlimit:10;stroke-dasharray:none;stroke-opacity:1"
           id="path172" /></g></g><path
       d="M 42.064618,163.83531 H 40.050971"
       style="fill:#000000;fill-opacity:1;fill-rule:nonzero;stroke:#000000;stroke-width:0.460262;stroke-linecap:butt;stroke-linejoin:round;stroke-miterlimit:10;stroke-dasharray:none;stroke-opacity:1"
       id="path176" /><text
       transform="scale(1,-1)"
       style="font-variant:normal;font-weight:normal;font-size:5.75328px;font-family:'DejaVu Sans';-inkscape-font-specification:DejaVuSans;writing-mode:lr-tb;fill:#000000;fill-opacity:1;fill-rule:nonzero;stroke:none;stroke-width:0.575328"
       id="text180"
       x="28.886021"
       y="-161.65096"><tspan
         x="28.886021 32.545101 34.374645"
         y="-161.65096"
         sodipodi:role="line"
         id="tspan178"
         style="stroke-width:0.575328">0.0</tspan></text><g
       id="g182"
       transform="matrix(0.57532749,0,0,0.57532749,8.9257536,141.96366)"><g
         id="g184"
         clip-path="url(#clipPath188)"><path
           d="M 57.6,91.2384 H 414.72"
           style="fill:none;stroke:#b0b0b0;stroke-width:0.8;stroke-linecap:square;stroke-linejoin:round;stroke-miterlimit:10;stroke-dasharray:none;stroke-opacity:1"
           id="path190" /></g></g><path
       d="M 42.064618,194.45562 H 40.050971"
       style="fill:#000000;fill-opacity:1;fill-rule:nonzero;stroke:#000000;stroke-width:0.460262;stroke-linecap:butt;stroke-linejoin:round;stroke-miterlimit:10;stroke-dasharray:none;stroke-opacity:1"
       id="path194" /><text
       transform="scale(1,-1)"
       style="font-variant:normal;font-weight:normal;font-size:5.75328px;font-family:'DejaVu Sans';-inkscape-font-specification:DejaVuSans;writing-mode:lr-tb;fill:#000000;fill-opacity:1;fill-rule:nonzero;stroke:none;stroke-width:0.575328"
       id="text198"
       x="28.886021"
       y="-192.27126"><tspan
         x="28.886021 32.545101 34.374645"
         y="-192.27126"
         sodipodi:role="line"
         id="tspan196"
         style="stroke-width:0.575328">0.2</tspan></text><g
       id="g200"
       transform="matrix(0.57532749,0,0,0.57532749,8.9257536,141.96366)"><g
         id="g202"
         clip-path="url(#clipPath206)"><path
           d="M 57.6,144.4608 H 414.72"
           style="fill:none;stroke:#b0b0b0;stroke-width:0.8;stroke-linecap:square;stroke-linejoin:round;stroke-miterlimit:10;stroke-dasharray:none;stroke-opacity:1"
           id="path208" /></g></g><path
       d="M 42.064618,225.07593 H 40.050971"
       style="fill:#000000;fill-opacity:1;fill-rule:nonzero;stroke:#000000;stroke-width:0.460262;stroke-linecap:butt;stroke-linejoin:round;stroke-miterlimit:10;stroke-dasharray:none;stroke-opacity:1"
       id="path212" /><text
       transform="scale(1,-1)"
       style="font-variant:normal;font-weight:normal;font-size:5.75328px;font-family:'DejaVu Sans';-inkscape-font-specification:DejaVuSans;writing-mode:lr-tb;fill:#000000;fill-opacity:1;fill-rule:nonzero;stroke:none;stroke-width:0.575328"
       id="text216"
       x="28.886021"
       y="-222.89157"><tspan
         x="28.886021 32.545101 34.374645"
         y="-222.89157"
         sodipodi:role="line"
         id="tspan214"
         style="stroke-width:0.575328">0.4</tspan></text><g
       id="g218"
       transform="matrix(0.57532749,0,0,0.57532749,8.9257536,141.96366)"><g
         id="g220"
         clip-path="url(#clipPath224)"><path
           d="M 57.6,197.6832 H 414.72"
           style="fill:none;stroke:#b0b0b0;stroke-width:0.8;stroke-linecap:square;stroke-linejoin:round;stroke-miterlimit:10;stroke-dasharray:none;stroke-opacity:1"
           id="path226" /></g></g><path
       d="M 42.064618,255.69624 H 40.050971"
       style="fill:#000000;fill-opacity:1;fill-rule:nonzero;stroke:#000000;stroke-width:0.460262;stroke-linecap:butt;stroke-linejoin:round;stroke-miterlimit:10;stroke-dasharray:none;stroke-opacity:1"
       id="path230" /><text
       transform="scale(1,-1)"
       style="font-variant:normal;font-weight:normal;font-size:5.75328px;font-family:'DejaVu Sans';-inkscape-font-specification:DejaVuSans;writing-mode:lr-tb;fill:#000000;fill-opacity:1;fill-rule:nonzero;stroke:none;stroke-width:0.575328"
       id="text234"
       x="28.886021"
       y="-253.51189"><tspan
         x="28.886021 32.545101 34.374645"
         y="-253.51189"
         sodipodi:role="line"
         id="tspan232"
         style="stroke-width:0.575328">0.6</tspan></text><g
       id="g236"
       transform="matrix(0.57532749,0,0,0.57532749,8.9257536,141.96366)"><g
         id="g238"
         clip-path="url(#clipPath242)"><path
           d="M 57.6,250.9056 H 414.72"
           style="fill:none;stroke:#b0b0b0;stroke-width:0.8;stroke-linecap:square;stroke-linejoin:round;stroke-miterlimit:10;stroke-dasharray:none;stroke-opacity:1"
           id="path244" /></g></g><path
       d="M 42.064618,286.31655 H 40.050971"
       style="fill:#000000;fill-opacity:1;fill-rule:nonzero;stroke:#000000;stroke-width:0.460262;stroke-linecap:butt;stroke-linejoin:round;stroke-miterlimit:10;stroke-dasharray:none;stroke-opacity:1"
       id="path248" /><text
       transform="scale(1,-1)"
       style="font-variant:normal;font-weight:normal;font-size:5.75328px;font-family:'DejaVu Sans';-inkscape-font-specification:DejaVuSans;writing-mode:lr-tb;fill:#000000;fill-opacity:1;fill-rule:nonzero;stroke:none;stroke-width:0.575328"
       id="text252"
       x="28.886021"
       y="-284.1322"><tspan
         x="28.886021 32.545101 34.374645"
         y="-284.1322"
         sodipodi:role="line"
         id="tspan250"
         style="stroke-width:0.575328">0.8</tspan></text><g
       id="g254"
       transform="matrix(0.57532749,0,0,0.57532749,8.9257536,141.96366)"><g
         id="g256"
         clip-path="url(#clipPath260)"><path
           d="M 57.6,304.128 H 414.72"
           style="fill:none;stroke:#b0b0b0;stroke-width:0.8;stroke-linecap:square;stroke-linejoin:round;stroke-miterlimit:10;stroke-dasharray:none;stroke-opacity:1"
           id="path262" /></g></g><path
       d="M 42.064618,316.93686 H 40.050971"
       style="fill:#000000;fill-opacity:1;fill-rule:nonzero;stroke:#000000;stroke-width:0.460262;stroke-linecap:butt;stroke-linejoin:round;stroke-miterlimit:10;stroke-dasharray:none;stroke-opacity:1"
       id="path266" /><text
       transform="scale(1,-1)"
       style="font-variant:normal;font-weight:normal;font-size:5.75328px;font-family:'DejaVu Sans';-inkscape-font-specification:DejaVuSans;writing-mode:lr-tb;fill:#000000;fill-opacity:1;fill-rule:nonzero;stroke:none;stroke-width:0.575328"
       id="text270"
       x="28.886021"
       y="-314.7525"><tspan
         x="28.886021 32.545101 34.374645"
         y="-314.7525"
         sodipodi:role="line"
         id="tspan268"
         style="stroke-width:0.575328">1.0</tspan></text><text
       transform="matrix(0,1,1,0,0,0)"
       style="font-variant:normal;font-weight:normal;font-size:5.75328px;font-family:'DejaVu Sans';-inkscape-font-specification:DejaVuSans;writing-mode:lr-tb;fill:#000000;fill-opacity:1;fill-rule:nonzero;stroke:none;stroke-width:0.575328"
       id="text274"
       x="212.59065"
       y="25.389111"><tspan
         x="212.59065 216.05989 219.59814 223.12491 225.48952 228.48697 232.00798 235.65553 237.48509 240.64938 244.17039 246.53499 248.8996 252.43785 254.03725 257.56403 259.81931 261.4187 264.9397"
         y="25.389111"
         sodipodi:role="line"
         id="tspan272"
         style="stroke-width:0.575328">Pearson correlation</tspan></text><g
       id="g278"
       clip-path="url(#clipPath282)"
       transform="matrix(0.57532749,0,0,0.57532749,8.9257536,141.96366)"><path
         d="m 57.6,254.54668 5.668571,6.01381 5.668572,-6.77704 5.668571,-6.83188 5.668572,-7.34913 5.668571,-6.87581 5.668572,-4.67095 5.668571,-1.97039 5.66857,-3.815 5.66857,-1.79774 5.66857,-3.67129 5.66858,-4.14487 5.66857,-1.83459 5.66857,-0.6864 5.66857,0.38056 5.66857,-0.52051 5.66857,-0.42828 5.66857,1.56252 5.66858,-4.11961 5.66857,-0.53052 5.66857,-1.8168 5.66857,-3.66121 5.66857,-2.61933 5.66857,-1.62138 5.66857,-0.0935 5.66858,-3.72685 5.66857,-0.3301 5.66857,0.44522 5.66857,-1.04361 5.66857,-2.10488 5.66857,-2.61882 5.66857,1.13661 5.66858,-3.25371 5.66857,-0.19203 5.66857,0.0478 5.66857,-2.71851 5.66857,-2.44097 5.66857,-1.92327 5.66857,-2.44564 5.66858,-1.79422 5.66857,-0.46739 5.66857,-1.26725 5.66857,-2.17766 5.66857,0.0351 5.66857,-4.47657 5.66857,-0.16886 5.66858,2.90804 5.66857,-3.63673 5.66857,-4.27632 5.66857,2.96546 5.66857,-0.30963 5.66857,-3.96402 5.66857,-1.50635 5.66858,1.86361 5.66857,-2.67778 5.66857,-1.60257 5.66857,0.29922 5.66857,-1.95611 5.66857,-1.33106 5.66857,-3.06273 5.66858,-4.63362 5.66857,1.60872 5.66857,-1.93812 5.66857,-3.63713"
         style="fill:none;stroke:#1f77b4;stroke-width:1.5;stroke-linecap:square;stroke-linejoin:round;stroke-miterlimit:10;stroke-dasharray:none;stroke-opacity:1"
         id="path284" /></g><g
       id="g288"
       clip-path="url(#clipPath292)"
       transform="matrix(0.57532749,0,0,0.57532749,8.9257536,141.96366)"><path
         d="m 57.6,257.62692 5.668571,4.3547 5.668572,-7.23813 5.668571,-6.68328 5.668572,-7.18235 5.668571,-6.76882 5.668572,-4.63856 5.668571,-2.33411 5.66857,-3.91945 5.66857,-1.95172 5.66857,-3.32695 5.66858,-3.96898 5.66857,-1.80155 5.66857,-0.68551 5.66857,0.38135 5.66857,-0.41699 5.66857,-0.38694 5.66857,1.55265 5.66858,-4.15216 5.66857,-0.40312 5.66857,-1.73831 5.66857,-3.69063 5.66857,-2.84167 5.66857,-1.43679 5.66857,0.0117 5.66858,-3.93627 5.66857,-0.23512 5.66857,0.59446 5.66857,-1.06426 5.66857,-2.0288 5.66857,-3.08151 5.66857,1.17067 5.66858,-3.25521 5.66857,-0.54305 5.66857,0.24471 5.66857,-2.68516 5.66857,-2.36294 5.66857,-2.0585 5.66857,-2.67134 5.66858,-1.33416 5.66857,-0.17883 5.66857,-0.62499 5.66857,-2.38009 5.66857,-0.55864 5.66857,-4.40251 5.66857,0.79065 5.66858,2.7447 5.66857,-3.55961 5.66857,-4.33107 5.66857,2.30156 5.66857,0.19537 5.66857,-3.05725 5.66857,-2.90117 5.66858,1.60107 5.66857,-1.6883 5.66857,-1.15132 5.66857,0.89685 5.66857,-2.78303 5.66857,-1.32261 5.66857,-3.20731 5.66858,-3.80387 5.66857,0.86335 5.66857,-2.41529 5.66857,-1.63481"
         style="fill:none;stroke:#ff7f0e;stroke-width:1.5;stroke-linecap:square;stroke-linejoin:round;stroke-miterlimit:10;stroke-dasharray:none;stroke-opacity:1"
         id="path294" /></g><g
       id="g298"
       clip-path="url(#clipPath302)"
       transform="matrix(0.57532749,0,0,0.57532749,8.9257536,141.96366)"><path
         d="m 57.6,262.19197 5.668571,2.67273 5.668572,-7.11566 5.668571,-5.96514 5.668572,-6.59284 5.668571,-7.31628 5.668572,-5.39741 5.668571,-2.77734 5.66857,-3.89371 5.66857,-1.7689 5.66857,-3.05867 5.66858,-4.322 5.66857,-2.31621 5.66857,-0.82745 5.66857,0.37471 5.66857,-0.27834 5.66857,-0.099 5.66857,1.3121 5.66858,-4.18305 5.66857,-0.18079 5.66857,-1.24116 5.66857,-3.73006 5.66857,-2.75982 5.66857,-1.34778 5.66857,-0.23379 5.66858,-3.23998 5.66857,-0.0602 5.66857,0.45849 5.66857,-0.77623 5.66857,-1.9221 5.66857,-3.09318 5.66857,0.77286 5.66858,-3.13929 5.66857,-0.72495 5.66857,0.0712 5.66857,-3.06245 5.66857,-1.70501 5.66857,-2.12391 5.66857,-3.50798 5.66858,-0.80167 5.66857,0.6029 5.66857,-0.8978 5.66857,-2.96462 5.66857,-0.87437 5.66857,-4.06693 5.66857,1.17818 5.66858,1.69636 5.66857,-2.22538 5.66857,-3.16168 5.66857,0.91788 5.66857,0.99687 5.66857,-3.32294 5.66857,-2.72936 5.66858,2.16254 5.66857,-1.10148 5.66857,-2.56935 5.66857,1.54773 5.66857,-4.1961 5.66857,-0.15153 5.66857,-4.03873 5.66858,-4.04623 5.66857,0.40372 5.66857,-1.98541 5.66857,-4.51002"
         style="fill:none;stroke:#2ca02c;stroke-width:1.5;stroke-linecap:square;stroke-linejoin:round;stroke-miterlimit:10;stroke-dasharray:none;stroke-opacity:1"
         id="path304" /></g><path
       d="M 42.064618,163.83531 V 316.93686"
       style="fill:none;stroke:#000000;stroke-width:0.460262;stroke-linecap:square;stroke-linejoin:miter;stroke-miterlimit:10;stroke-dasharray:none;stroke-opacity:1"
       id="path328" /><path
       d="M 247.52558,163.83531 V 316.93686"
       style="fill:none;stroke:#000000;stroke-width:0.460262;stroke-linecap:square;stroke-linejoin:miter;stroke-miterlimit:10;stroke-dasharray:none;stroke-opacity:1"
       id="path330" /><path
       d="M 42.064618,163.83531 H 247.52558"
       style="fill:none;stroke:#000000;stroke-width:0.460262;stroke-linecap:square;stroke-linejoin:miter;stroke-miterlimit:10;stroke-dasharray:none;stroke-opacity:1"
       id="path332" /><path
       d="M 42.064618,316.93686 H 247.52558"
       style="fill:none;stroke:#000000;stroke-width:0.460262;stroke-linecap:square;stroke-linejoin:miter;stroke-miterlimit:10;stroke-dasharray:none;stroke-opacity:1"
       id="path334" /><text
       transform="scale(1,-1)"
       style="font-variant:normal;font-weight:normal;font-size:6.90393px;font-family:'DejaVu Sans';-inkscape-font-specification:DejaVuSans;writing-mode:lr-tb;fill:#000000;fill-opacity:1;fill-rule:nonzero;stroke:none;stroke-width:0.575328"
       id="text338"
       x="73.746643"
       y="-328.12708"><tspan
         x="73.746643 77.909706 82.155632 86.387741 89.225258 92.822197 97.047409 101.4245 103.61995 107.41711 111.64232 114.47983 117.31734 121.56327 123.48255 127.71467 130.42101 132.3403 136.56551 140.94258 143.13805 147.22517 150.82211 153.01756 155.21303 159.59702 163.84294 168.22002 172.44522 179.16965 181.08894 184.88611 187.08156 191.46555 193.38484 196.98178 199.68814 203.92024 208.29733 212.0945"
         y="-328.12708"
         sodipodi:role="line"
         id="tspan336"
         style="stroke-width:0.575328">Pearson correlation vs. genomic distance</tspan></text><text
       transform="scale(1,-1)"
       style="font-variant:normal;font-weight:normal;font-size:6.90393px;font-family:'DejaVu Sans';-inkscape-font-specification:DejaVuSans;writing-mode:lr-tb;fill:#000000;fill-opacity:1;fill-rule:nonzero;stroke:none;stroke-width:0.575328"
       id="text342"
       x="47.993759"
       y="-320.38889"><tspan
         x="47.993759 53.344311 59.302395 63.693298 68.084198 72.475098 76.86599 81.256897 83.452347 85.647789 90.038696 92.234154 96.625046 98.820496 103.21139 105.40685 109.79775 111.99319 116.3841 118.57954 122.97044 127.36134 129.55679 133.94769 138.33858 140.53404 144.92494 149.31584 151.51129 155.90218 160.29309 162.48854 166.87944 171.27036 173.46577 177.85669 182.24757 184.44304 188.83394 193.22484 195.42029 199.81119 204.20209 206.39755 210.62274 214.99983 217.1953 221.72426 226.11516 230.50606 234.89697 237.09241 239.28786"
         y="-320.38889"
         sodipodi:role="line"
         id="tspan340"
         style="stroke-width:0.575328">GM12878, 1,2,4,7,9,11,13,14,16,17,18,20,22 on K562, 3</tspan></text><path
       d="m 53.999858,206.88839 h 11.50655"
       style="fill:none;stroke:#1f77b4;stroke-width:0.862991;stroke-linecap:square;stroke-linejoin:round;stroke-miterlimit:10;stroke-dasharray:none;stroke-opacity:1"
       id="path344" /><text
       transform="scale(1,-1)"
       style="font-variant:normal;font-weight:normal;font-size:5.75328px;font-family:'DejaVu Sans';-inkscape-font-specification:DejaVuSans;writing-mode:lr-tb;fill:#000000;fill-opacity:1;fill-rule:nonzero;stroke:none;stroke-width:0.575328"
       id="text348"
       x="70.109039"
       y="-204.87483"><tspan
         x="70.109039 73.768112 77.4272 81.086258 84.624527 88.277863 90.107407 92.04628 93.875809 97.81105 102.02245 106.03822 107.9771 109.80663 113.4657 115.29526 118.95433 122.61343"
         y="-204.87483"
         sodipodi:role="line"
         id="tspan346"
         style="stroke-width:0.575328">200ep / AUC: 0.566</tspan></text><path
       d="m 53.999858,198.44726 h 11.50655"
       style="fill:none;stroke:#ff7f0e;stroke-width:0.862991;stroke-linecap:square;stroke-linejoin:round;stroke-miterlimit:10;stroke-dasharray:none;stroke-opacity:1"
       id="path350" /><text
       transform="scale(1,-1)"
       style="font-variant:normal;font-weight:normal;font-size:5.75328px;font-family:'DejaVu Sans';-inkscape-font-specification:DejaVuSans;writing-mode:lr-tb;fill:#000000;fill-opacity:1;fill-rule:nonzero;stroke:none;stroke-width:0.575328"
       id="text354"
       x="70.109039"
       y="-196.4337"><tspan
         x="70.109039 73.768112 77.4272 81.086258 84.624527 88.277863 90.107407 92.04628 93.875809 97.81105 102.02245 106.03822 107.9771 109.80663 113.4657 115.29526 118.95433 122.61343"
         y="-196.4337"
         sodipodi:role="line"
         id="tspan352"
         style="stroke-width:0.575328">250ep / AUC: 0.572</tspan></text><path
       d="m 53.999858,190.00613 h 11.50655"
       style="fill:none;stroke:#2ca02c;stroke-width:0.862991;stroke-linecap:square;stroke-linejoin:round;stroke-miterlimit:10;stroke-dasharray:none;stroke-opacity:1"
       id="path356" /><text
       transform="scale(1,-1)"
       style="font-variant:normal;font-weight:normal;font-size:5.75328px;font-family:'DejaVu Sans';-inkscape-font-specification:DejaVuSans;writing-mode:lr-tb;fill:#000000;fill-opacity:1;fill-rule:nonzero;stroke:none;stroke-width:0.575328"
       id="text360"
       x="70.109039"
       y="-187.99257"><tspan
         x="70.109039 73.768112 77.4272 81.086258 84.624527 88.277863 90.107407 92.04628 93.875809 97.81105 102.02245 106.03822 107.9771 109.80663 113.4657 115.29526 118.95433 122.61343"
         y="-187.99257"
         sodipodi:role="line"
         id="tspan358"
         style="stroke-width:0.575328">500ep / AUC: 0.585</tspan></text><path
       d="m 53.999858,180.89078 h 11.50655"
       style="fill:none;stroke:#d62728;stroke-width:0.862991;stroke-linecap:square;stroke-linejoin:round;stroke-miterlimit:10;stroke-dasharray:none;stroke-opacity:1"
       id="path368" /><text
       transform="scale(1,-1)"
       style="font-variant:normal;font-weight:normal;font-size:5.75328px;font-family:'DejaVu Sans';-inkscape-font-specification:DejaVuSans;writing-mode:lr-tb;fill:#000000;fill-opacity:1;fill-rule:nonzero;stroke:none;stroke-width:0.575328"
       id="text372"
       x="70.109039"
       y="-178.87724"><tspan
         x="70.109039 72.364319 74.728912 78.255676 81.903244 84.900696 86.925842 90.464111 92.828705 94.658234 99.117035 104.08211 107.7412 111.40028 115.05937 118.71844 122.37753 124.20706 126.14592 127.97546 131.91069 136.1221 140.13789 142.07675 143.90628 147.56537 149.3949 153.05399 156.71307"
         y="-178.87724"
         sodipodi:role="line"
         id="tspan370"
         style="stroke-width:0.575328">transfer GM12878 / AUC: 0.671</tspan></text></g></svg>
